<?xml version="1.0" encoding="utf-8"?>
<!-- Generator: Adobe Illustrator 28.3.0, SVG Export Plug-In . SVG Version: 6.00 Build 0)  -->
<svg version="1.1" id="Calque_1" xmlns="http://www.w3.org/2000/svg" xmlns:xlink="http://www.w3.org/1999/xlink" x="0px" y="0px"
	 width="512px" height="512px" viewBox="0 0 512 512" style="enable-background:new 0 0 512 512;" xml:space="preserve">
<style type="text/css">
	.st0{fill:#FFFFFF;}
</style>
<g transform="translate(0,0)">
	<path class="st0" d="M441.9,14.8l-18.6,43.5l-50,6.1l43.4,26.4l1.4,13.9c-46.7-26.9-114.2-42.8-204.5-35.6l-20.8-3.4L168,26l0.5,41
		L117.8,84l56.7,4.7l8.1,34.8l17.6-38.9l18.4-2.8c210.2,22.7,285.9,210.9,80.2,213.9l5.4-38.7l37.9-45l-52.9-25.7l-31.1-49.9
		l-40.8,42.4l-4.2,1.1C-16.3,152.3-40.3,298,94.2,371.8l-12.3,13.1l-48.5-14.7l34,40.6l-15.6,43.8l37.5-32.1l48.5,18.6l-31.3-45.2
		l4.8-15.5c64.3,29.5,158.5,43.4,278.7,21.3C141.6,436.1,14.8,259.6,164.1,200.1l23.7,44.6l-4.1,58.7l57.9-10.3l19.8,8
		c224.9,105.7,306.5-86.5,177-183.1l14.8-22.9l47.9-17L458,62.8L441.9,14.8L441.9,14.8z M27.9,65.7l5,26.9l-20.1,22.7l28-3.3
		L59,135.9l0.7-30.4l25.5-18.4L51,85.4L27.9,65.7L27.9,65.7z M397.3,373.2l14.7,53.2l-32.3,42.3l51.1-13.1l34.7,35.3l-2.6-53
		l36.3-31.3l-53.2,1.6L397.3,373.2L397.3,373.2z"/>
</g>
</svg>
