<?xml version="1.0" encoding="utf-8"?>
<!-- Generator: Adobe Illustrator 28.3.0, SVG Export Plug-In . SVG Version: 6.00 Build 0)  -->
<svg version="1.1" id="Calque_1" xmlns="http://www.w3.org/2000/svg" xmlns:xlink="http://www.w3.org/1999/xlink" x="0px" y="0px"
	 width="512px" height="512px" viewBox="0 0 512 512" style="enable-background:new 0 0 512 512;" xml:space="preserve">
<style type="text/css">
	.st0{fill:#FFFFFF;}
</style>
<g transform="translate(0,0)">
	<path class="st0" d="M274,22.5L166.5,86.2l45.2,16l-42.8,120.6l60.2,21.4L272,123.6l45.2,16.1L274,22.5z M62.9,35.3l-4.8,60
		l-22.6-1.9l34,48.1l41-42L88,97.6l4.8-60.1L62.9,35.3z M391.9,93.7l-30.1,28l55.8,60.2l-22.7,20.9l79.6,10.3l-4.2-80L447.7,154
		L391.9,93.7z M46,202.5L32.8,237l68.6,26.7l-10.2,25.8l68.4-22.7L125,203.6l-10.2,25.9L46,202.5z M423.8,254.3l-94.9,7.6l24.7,91.6
		l21-29.8L454,380l28-39.8l-79.4-56.1L423.8,254.3z M243.1,268.8L107.3,370.7L69,319.4L31,481.1l165.3,8.4l-38.1-51l136.1-101.8
		L243.1,268.8z M335.9,384.4l-22.3,15.8l31.3,44.9L328,456.8l51.6,14.3l4.8-53.3l-17,11.7L335.9,384.4z"/>
</g>
</svg>
