<?xml version="1.0" encoding="utf-8"?>
<!-- Generator: Adobe Illustrator 28.3.0, SVG Export Plug-In . SVG Version: 6.00 Build 0)  -->
<svg version="1.1" id="Calque_1" xmlns="http://www.w3.org/2000/svg" xmlns:xlink="http://www.w3.org/1999/xlink" x="0px" y="0px"
	 width="512px" height="512px" viewBox="0 0 512 512" style="enable-background:new 0 0 512 512;" xml:space="preserve">
<style type="text/css">
	.st0{fill:#FFFFFF;}
</style>
<g>
	<path class="st0" d="M85.8,214.1c9.5,0,16.1,0,23.4,0c0-7.8,0-14.8,0-23c-7.4,0-15.2,0-23,0c0-16.9,0-32.5,0-49.5
		c7.4,0,14.8,0,23.4,0c0-8.7,0-16.1,0-24.3c8.2,0,15.6,0,23.9,0c0-8.2,0-15.2,0-23c9.1,0,16.5,0,25.2,0c0,7.4,0,14.8,0,22.1
		c8.2,0,15.2,0,23.4,0c0-7.8,0-15.2,0-23.4c9.1,0,16.9,0,25.6,0c0,8.2,0,15.6,0,23.9c8.2,0,15.2,0,23.9,0c0,16.1,0,31.2,0,47.3
		c8.2,0,15.2,0,23,0c0-6.9,0-14.3,0-23.4c5.6,0,10-0.4,14.3,0c8.7,1.3,11.3-3,10.4-10.8c-0.4-3.9,0-7.8,0-12.6c-8.7,0-16.1,0-23.9,0
		c0-8.7,0-16.5,0-24.7c8.2,0,15.6,0,24.7,0c0,7.8,0,15.2,0,23.4c8.2,0,15.6,0,23.4,0c0-16.1,0-31.2,0-47.3c8.7,0,16.5,0,25.2,0
		c0,15.6,0,30.8,0,46.9c7.8,0,15.2,0,23.4,0c0-7.4,0-15.2,0-23c8.7,0,16.5,0,25.2,0c0,7.4,0,14.8,0,23c8.7,0.4,16.1,0.9,24.3,1.3
		c0,8.2,0,15.6,0,23.9c8.7,0,16.1,0,24.3,0c0.4,3.5,0.4,6.1,0.4,8.7c0,46.9,0,93.3,0,140.1c0,21.7-7.4,40.3-21.7,56.4
		c-2.2,2.6-4.8,5.2-7.4,8.2c-15.6,18.2-15.6,18.2-5.2,39.5c6.1,12.1-3.9,36.9-16.9,40.3c-1.7,0.4-4.3-1.3-6.5-2.2
		c-10.8-5.6-21.3-12.1-32.1-16.5c-12.6-5.2-16.5-2.6-17.4,11.3c-1.3,16.5-0.4,32.5-0.9,49c0,4.8,0,9.5,0,15.2c-9.5,0-17.8,0-27.8,0
		c0-17.8,0-35.1,0-52.9c0-2.6,0.4-5.6,0-8.2c-0.4-2.2-1.7-3.5-3-5.6c-1.3,1.7-3.5,3.9-3.5,5.6c-0.4,16.5,0,33.4,0,49.9
		c0,3,0,6.5,0,10.8c-7.8,0-14.3,0.4-20.8-0.4c-2.2-0.4-4.8-4.8-4.8-7.4c-0.4-16.1-0.4-32.1-0.4-48.2c0-3.5,0-6.5,0-10
		c-0.9-0.4-1.7-0.9-3-1.3c-1.3,2.6-3.5,4.8-3.5,7.4c-0.4,16.5,0,33,0,49c0,3-0.4,6.5-0.4,10.8c-7.4,0-13.9,0.4-20.4-0.4
		c-2.2-0.4-4.8-4.8-4.8-7.4c-0.4-16.1,0-32.1,0-48.2c0-3.5,0-6.5,0-10c-0.9-0.4-1.7-0.9-2.6-1.3c-1.3,2.6-3.5,4.8-3.5,7.4
		c-0.4,16.5,0,33,0,49c0,3.5,0,6.5,0,10.4c-9.5,0-17.8,0-27.3,0c0-3.9,0-7.8,0-11.7c-0.4-18.7-0.4-37.7-1.3-56.4
		c-0.4-8.7-4.3-11.7-12.6-8.7c-11.7,4.8-23.4,10-33.8,16.5c-6.5,4.3-10.4,3.5-15.2-1.7c-13-13.9-19.1-25.2-6.5-42.1
		c5.2-6.9,4.8-14.8-0.4-22.1c-3-4.3-6.5-8.2-10-11.7c-17.8-18.7-28.2-39.9-26.9-66.8C86.6,262.7,85.8,238.8,85.8,214.1z
		 M117.9,263.1c15.2,4.8,15.2,4.8,13.4,19.5c-0.9,9.1-1.7,18.2-0.9,27.3c0.9,12.1,4.3,24.7,17.4,28.2c12.6,3.5,26,3.9,39.5,3.9
		c6.9,0,13.9-2.6,23-4.3c-4.8,5.6-8.2,10-12.1,14.8c16.9-3.5,30.8-23,40.8-52.1c-16.1,1.3-30.4-4.3-43.8-12.6
		c-10.8-6.9-21.3-15.2-32.5-21.3C148.7,258.8,134.4,254,117.9,263.1z M272.8,300.9c10.8,26.9,22.1,49,41.7,52.1
		c-3.9-4.3-7.8-9.1-11.7-13.4c19.5,4.3,37.7,6.5,56.4,0.9c10.4-3,17.4-8.7,19.5-19.1c1.7-10.4,2.6-20.8,2.6-31.2
		c0-7.8-1.7-16.1-2.6-23.4c4.3-1.3,7.8-2.2,11.3-3c-3-1.7-6.1-2.6-9.1-3c-21.3-3-37.3,9.1-52.9,20.4
		C311.8,291.7,294.9,301.3,272.8,300.9z M267.1,390.2c9.5-5.2,12.1-9.5,9.5-19.5c-3.5-13.4-10.8-24.7-20.8-35.1
		c-10,10.4-17.4,21.7-20.8,35.1c-2.6,10.4,0,15.6,10,19.1c3-7.4,6.5-14.8,9.5-22.6c0.9,0,2.2,0.4,3,0.4
		C260.6,374.6,263.7,382,267.1,390.2z M304,211.9c-7.8,0-15.2,0-22.6,0c0,8.2,0,16.1,0,24.7c7.8-0.9,15.2-1.3,22.6-2.2
		C304,226.2,304,219.3,304,211.9z M306.2,118.6c-3.9,22.6,0.4,26.9,21.3,21.3c0-7.4,0-14.3,0-21.3
		C320.1,118.6,313.1,118.6,306.2,118.6z M376.5,142.9c-8.2,0-14.8,0-22.1,0c0,7.8,0,14.8,0,21.7c7.8,0,14.8,0,22.1,0
		C376.5,157.3,376.5,150.3,376.5,142.9z M158.2,120.4c-8.2,0-15.2,0-22.6,0c0,6.9,0,13.4,0,20.4c7.8,0,15.2,0,22.6,0
		C158.2,133.8,158.2,127.3,158.2,120.4z M182.1,168.1c-7.8,0-14.8,0-21.7,0c0,7.8,0,14.3,0,21.7c7.4,0,14.3,0,21.7,0
		C182.1,182.4,182.1,175.5,182.1,168.1z M184.7,165.1c23.9,2.2,26.5-0.4,20.8-21.3c-6.5,0-13.4,0-20.8,0
		C184.7,150.7,184.7,157.7,184.7,165.1z M351.7,188.9c0-8.2,0-14.8,0-21.7c-7.4,0-14.3,0-21.3,0c0,7.4,0,14.3,0,21.7
		C337.4,188.9,344.4,188.9,351.7,188.9z M111.8,235.3c7.8,0,14.8,0,21.3,0c0-7.4,0-13.9,0-20.8c-7.4,0-14.3,0-21.3,0
		C111.8,221.9,111.8,228.4,111.8,235.3z"/>
	<path class="st0" d="M85.8,93.9c0-8.2,0-16.1,0-24.7c7.8,0,15.6,0,24.3,0c0,8.2,0,16.1,0,24.7C101.8,93.9,94,93.9,85.8,93.9z"/>
	<path class="st0" d="M401.6,93.9c0-8.7,0-16.5,0-24.7c7.8,0,15.6,0,24.7,0c0,6.9,0.4,13.9,0,20.4c0,1.7-2.6,3.9-4.3,3.9
		C415.5,94.3,408.6,93.9,401.6,93.9z"/>
	<path class="st0" d="M328.7,45.3c-8.2,0-15.6,0-23.9,0c0-7.8,0-15.2,0-23.4c7.4,0,15.2,0,23.9,0C328.7,29.3,328.7,36.6,328.7,45.3z
		"/>
	<path class="st0" d="M133.5,47.1c8.2,0,15.6,0,24.3,0c0,6.9,0.4,13.4-0.4,20c0,1.7-3,4.3-4.8,4.8c-6.1,0.4-12.6,0.4-19.5,0.4
		C133.5,63.1,133.5,55.7,133.5,47.1z"/>
	<path class="st0" d="M231.6,75.3c0-7.8,0-13.9,0-19.5c0-1.3,0.4-3,0.4-4.8c7.8,0,15.2,0,24.7,0c0,6.9,0.4,13.9-0.4,20.4
		c0,1.3-3,3.5-4.8,3.9C245.4,75.3,238.9,75.3,231.6,75.3z"/>
</g>
</svg>
