<?xml version="1.0" encoding="utf-8"?>
<!-- Generator: Adobe Illustrator 28.3.0, SVG Export Plug-In . SVG Version: 6.00 Build 0)  -->
<svg version="1.1" id="Calque_1" xmlns="http://www.w3.org/2000/svg" xmlns:xlink="http://www.w3.org/1999/xlink" x="0px" y="0px"
	 width="512px" height="512px" viewBox="0 0 512 512" style="enable-background:new 0 0 512 512;" xml:space="preserve">
<style type="text/css">
	.st0{fill:#FFFFFF;}
</style>
<g transform="translate(0,0)">
	<path class="st0" d="M20.6,23.2v106L173,210.4L102.9,23.2L20.6,23.2L20.6,23.2z M129.6,23.2l118.2,143.7L253,23.2
		C253,23.2,129.6,23.2,129.6,23.2z M293.6,23.2l40.6,132.1l60.2-132.1C394.4,23.2,293.6,23.2,293.6,23.2z M432.7,23.2l-14.5,154.7
		l74.2-69V23.2H432.7z M20.6,172.7v96.8l99.1,9.9L20.6,172.7L20.6,172.7z M426.9,212.7c-17.7-0.1-38.6,9-55.5,26
		c-5.3,5.3-9.7,10.9-13.5,16.7c-93-56-327.4,75.7-177.6,188.3H61.9L35.7,491h255.2L203,388.5c24.1-26.5,66.9-43.4,96.2-44.7
		c13.7,44.7,36,112.6,71.2,147.2h60.4c-42.7-46.2-75.9-108.2-81.3-178.4c1.6,3.2,3.7,6.1,6.3,8.7c18.5,18.5,55.5,11.6,82.6-15.6
		c27.1-27.1,34.1-64.1,15.6-82.6C447.1,216.1,437.5,212.7,426.9,212.7L426.9,212.7z M20.6,327.4v59.1l77.1-23.8L20.6,327.4
		L20.6,327.4z"/>
</g>
</svg>
