<?xml version="1.0" encoding="utf-8"?>
<!-- Generator: Adobe Illustrator 28.3.0, SVG Export Plug-In . SVG Version: 6.00 Build 0)  -->
<svg version="1.1" id="Calque_1" xmlns="http://www.w3.org/2000/svg" xmlns:xlink="http://www.w3.org/1999/xlink" x="0px" y="0px"
	 width="512px" height="512px" viewBox="0 0 512 512" style="enable-background:new 0 0 512 512;" xml:space="preserve">
<style type="text/css">
	.st0{fill:#FFFFFF;}
</style>
<g transform="translate(0,0)">
	<path class="st0" d="M280.6,22.1c21.3,6.1,35.9,15,40.1,28.4c-1.4,0.7-2.7,1.5-4,2.3c-25.4,5.7-52.5,18.4-80.1,34
		c20-4.6,36.3-4.4,47,3.3c-5.6,10.2-10.7,22-14.9,35.6c-21.1,67.1-124.2-79.6-186.9-5.2C42,167.8,92.7,213.3,27.2,294.4
		c35.2-4.1,44.6-9.4,61.7-35.8c10.3-15.9,28.2-21.8,44.2-21.2c-12.6,11.1-25.5,30-37.8,59.2c19.6-18.3,44.4-38.2,70.8-39.5
		c0.9,6.3-2.4,13.6-11.9,21.2C93.2,327,16.4,363.4,20.6,474.5c5.5-11.1,11.5-20.1,17.4-28.3c5.9,29.2,27.9,53.2,91.9,40
		c-46.4-6.3-75.4-58.9-44.8-81.6c62-46,127.3,1.4,266.8-74.5c2.4-1.3,4.8-2.5,7.1-3.4c-2.2,19.4-12.2,39.4-22.1,56.5
		c14.1-10.3,25.1-19.9,33.5-28.9c2.1,25.8-11.6,54-25.1,77.4c42.8-31.1,60.5-57.3,62.5-77.5c9.2,36.3-1.9,94.4-24.7,122.1
		c76.7-39,105.4-76.2,108.5-188.5c1.6-59.1-65.5-59.8-55.8-100.2c11.8-49.2,6.7-83.7-7.5-106.7C408.9,31.7,349.2,21.8,280.6,22.1
		L280.6,22.1z M89.8,50.6c-34.7-0.1-44.1,35-33.7,68.5C73,68.2,125.7,75.4,166,85.1C133.1,60.4,108,50.7,89.8,50.6L89.8,50.6z
		 M341.4,81c18.4,21.1,29,42.5,10,65C325.2,129.5,324.8,107.1,341.4,81z M415.1,129c3.6,0,7.7,0.3,12.3,1.1
		c-1.7,30.2-14.2,32.6-46.1,31.8C389.6,140,395.6,129.1,415.1,129L415.1,129z M331.4,168.9c9.5,0.1,20,2.8,30.2,8.8
		c44.1,25.9,21.7,72.5-4.1,73.9c-15,0.8,1.4-23.6-16-38c-15.1-12.5-38.2,12.4-44.7-5.7C288.8,185.4,307,168.6,331.4,168.9
		L331.4,168.9z M390.9,412.2c-23.9,27.5-58.2,59.4-98.3,31C309,488.4,360.6,512.9,390.9,412.2L390.9,412.2z"/>
</g>
</svg>
