<?xml version="1.0" encoding="utf-8"?>
<!-- Generator: Adobe Illustrator 28.3.0, SVG Export Plug-In . SVG Version: 6.00 Build 0)  -->
<svg version="1.1" id="Calque_1" xmlns="http://www.w3.org/2000/svg" xmlns:xlink="http://www.w3.org/1999/xlink" x="0px" y="0px"
	 width="512px" height="512px" viewBox="0 0 512 512" style="enable-background:new 0 0 512 512;" xml:space="preserve">
<style type="text/css">
	.st0{fill:#FFFFFF;}
</style>
<g transform="translate(0,0)">
	<path class="st0" d="M259.1,19c-111.9,0-190.6,38.3-204.7,80.7h0c-25.9,78,72.8,118,216.4,92.3c78.3-14,182.3,16.7,123.1,80.4
		c151.5-68.8,22.8-120.4-128.7-102.6c-88.3,10.3-160,11-170.9-37.8C86.3,96.4,170.8,60,261.4,54.6c89.6-5.4,183.3,37.9,170.5,64.8
		c-17.2,36.1-126.9,7.8-120.3-25.1c2.2-11,19.9-16,42-14.6c-30.6-10.6-72.8-11.9-79.4,12.8c-4.8,17.9,27.7,42.5,72.4,53.7
		c54.7,13.8,115.1,5.3,115.1-46.1C461.7,55.2,369.4,18.9,259.1,19L259.1,19z M248,215.1c-53.9,0.2-99.5,27.1-111,70.1
		c-7.4,27.6,1.2,56.6,19.9,81.2c2.1,2.7-0.4,8.2-3.5,11.1c-51.9,48.2-12.1,89.9,25.1,51.4c-17,47.3,24.4,66.5,46.7,24.5
		c-2.5,47.8,41.4,54.3,52,8.8c12.3,50.2,66.5,34.7,47.3-33.3c-1.4-5,0.7-9.3,4.7-10.5c33.5-10.3,59-33.1,67.2-63.7
		c5.6-20.8,2.3-42.3-7.8-62l-56.6,13.4l38.9-38.9c-18.7-20.8-45.8-37.6-77.9-46.2c-13.4-3.6-26.7-5.5-39.7-5.8v0
		C251.5,215.1,249.7,215.1,248,215.1L248,215.1z M211,280.2c3.5,0,7.1,0.5,10.6,1.5c22.7,6.1,36.1,29.4,30,52
		c-6.1,22.7-29.4,36.1-52,30c-22.7-6.1-36.1-29.4-30-52C174.7,292.6,192,280,211,280.2L211,280.2z M213.7,320.4
		c-7.3,0-13.1,5.9-13.1,13.1s5.9,13.1,13.1,13.1c7.3,0,13.1-5.9,13.1-13.1C226.9,326.3,221,320.4,213.7,320.4z M309.8,337.9
		c2.5,0,5.1,0.4,7.7,1.1c16.4,4.4,26.2,21.3,21.8,37.8c-4.4,16.4-21.3,26.2-37.8,21.8c-16.4-4.4-26.2-21.3-21.8-37.8
		C283.5,346.9,296.1,337.8,309.8,337.9L309.8,337.9z M257.9,362.4c8.9,23.3,15.9,66.2-17,56.8C209.6,410.3,240,378.1,257.9,362.4
		L257.9,362.4z"/>
</g>
</svg>
