<?xml version="1.0" encoding="utf-8"?>
<!-- Generator: Adobe Illustrator 28.3.0, SVG Export Plug-In . SVG Version: 6.00 Build 0)  -->
<svg version="1.1" id="Calque_1" xmlns="http://www.w3.org/2000/svg" xmlns:xlink="http://www.w3.org/1999/xlink" x="0px" y="0px"
	 width="512px" height="512px" viewBox="0 0 512 512" style="enable-background:new 0 0 512 512;" xml:space="preserve">
<style type="text/css">
	.st0{fill:#FFFFFF;}
</style>
<g transform="translate(0,0)">
	<path class="st0" d="M147.6,23.2c-1,0-2.1,0-3.1,0.2c-4.2,0.4-8.5,1.8-12.5,4.1c0,0,0,0,0,0l-29.5,17C94.7,49,89.9,56.5,88.7,64
		s0.6,15,4.2,21.2c0.1,0.2,0.2,0.4,0.3,0.6l-11.6,39.8c-1.8,1.2-3.4,2.6-4.9,4.1c-5.1,5.1-8.9,11.7-9.7,19.4
		c-0.8,7.6,1.9,16.2,8.3,22.6l24.1,24.1c6.6,6.6,15.1,9.5,22.9,8.9c4.6-0.3,8.8-1.7,12.6-3.9l7,6.6c-2.3,2.9-4.1,6.4-5.1,10.3
		l-1.6,6l17.9,4.8l1.6-6c1-3.9,2.7-5.3,5.1-6.4c1.2-0.5,2.6-0.9,4.2-0.9c1.6-0.1,3.3,0.1,5,0.6c3.4,0.9,6.3,2.9,7.9,5.1
		c1.6,2.2,2.3,4.2,1.3,7.9l-1.6,6l17.9,4.8l1.6-6c2.3-8.7,0.3-17.4-4.2-23.6c-4.5-6.2-11-10.2-17.9-12.1c-3.5-1-7.1-1.4-10.8-1.2
		c-1.7,0.1-3.3,0.3-4.9,0.6l-10.2-9.6c2-3.7,3.4-7.9,3.7-12.3c0.6-7.8-2.4-16.4-9-23l-24.1-24.1c-4.6-4.6-10.4-7.3-16.1-8.1
		l6.1-20.9c0.2,0.1,0.3,0.1,0.5,0.2c7.2,2.8,16.2,2.4,24-2.2l29.5-17c6-3.5,10.4-8.6,12.8-14.2l20.9,5.9c-0.9,3.7-1.1,7.6-0.5,11.6
		c1.2,7.6,6,15.2,13.9,19.7l29.5,17c3.8,2.2,7.7,3.4,11.7,3.9l3.2,18.2c-2.7,1.5-5.2,3.4-7.4,5.6c-5.1,5.1-8.9,11.7-9.7,19.4
		c-0.8,7.6,1.9,16.2,8.3,22.6l4.2,4.2l13.1-13.1l-4.2-4.2c-2.9-2.9-3.3-5-3-7.6c0.3-2.6,1.8-5.7,4.3-8.2c2.5-2.4,5.7-4,8.4-4.3
		c0.3,0,0.7-0.1,1-0.1c2.2-0.1,4.1,0.5,6.5,2.9v0l4.2,4.1l13-13l-4.1-4.2c-4.7-4.7-10.6-7.4-16.5-8.1l-3.2-18.1
		c4.9-2.9,8.8-7,11.5-11.7c3.7-6.3,5.5-14,4-21.7c-1.5-7.7-6.6-15.2-14.7-19.9l-29.5-17c-3.9-2.2-8.1-3.5-12.2-3.8
		c-4.1-0.3-8.1,0.3-11.7,1.7c-4.3,1.6-7.9,4.2-11,7.3l-28.8-8.1c-0.8-3-1.9-5.9-3.4-8.5c-3.6-6.4-9.4-11.7-16.8-14.3
		C153.7,23.7,150.7,23.2,147.6,23.2L147.6,23.2z M147.4,41.6c1.1,0,2,0.2,3,0.6c2.6,0.9,5.2,3.1,6.8,6c1.7,2.9,2.3,6.3,1.8,9
		c-0.5,2.7-1.8,5.1-5.7,7.3c0,0,0,0,0,0l-29.5,17c-3.5,2-5.7,1.9-8.1,0.9c-0.6-0.2-1.3-0.6-1.9-1l0.1-0.3l-0.9-0.2
		c-1.5-1.2-2.9-2.8-4-4.7c-1.7-3-2.4-6.6-2-9.2c0.4-2.6,1.4-4.5,4.7-6.5v0l29.5-17h0c2-1.2,3.6-1.7,5.1-1.9
		C146.7,41.6,147.1,41.6,147.4,41.6L147.4,41.6z M225.8,64.9c0.3,0,0.6,0,0.9,0c1.3,0.1,2.6,0.5,4.3,1.5v0l29.5,17
		c4,2.3,5.2,4.6,5.8,7.3c0.5,2.7-0.1,6-1.8,8.9c-1.7,2.9-4.3,5.1-6.9,6c-2.6,0.9-5.3,1-9.2-1.2l-29.5-17c-3.5-2-4.4-3.9-4.8-6.5
		c-0.4-2.6,0.3-6,2-9c1.8-3,4.5-5.4,7-6.3C224,65.2,224.9,65,225.8,64.9L225.8,64.9z M99.1,138.6c2.2-0.1,4.1,0.6,6.5,2.9l24.1,24.1
		c3.3,3.3,3.8,5.8,3.6,8.6c-0.2,2.7-1.7,5.8-4.1,8.2c-2.4,2.4-5.5,3.9-8.3,4.1c-2.8,0.2-5.4-0.4-8.5-3.6l-24.1-24.1
		c-2.9-2.9-3.3-5-3-7.6c0.3-2.6,1.8-5.7,4.3-8.2c2.5-2.4,5.7-4,8.4-4.3C98.4,138.6,98.7,138.6,99.1,138.6L99.1,138.6z M318.4,151.7
		l-61.4,61.4l48.3,48.3l26.7-26.7l0.3,0.3c1-1.1,2-2.2,3-3.2c27.4-27.4,71.8-27.4,99.2,0c26.9,26.9,27.4,70.3,1.4,97.8c0,0,0,0,0,0
		c-1,2.5-1.4,4.9-1.3,7.3c0.2,4.7,2.4,9.4,5.9,12.9c3.5,3.5,8.1,5.7,12.7,5.9c3.6,0.1,7.3-0.7,11.3-3.6
		c37.2-41.9,35.7-106.2-4.4-146.3c-28.9-28.9-70.4-37.5-106.9-26.3l-5.3,1.6l-3.9-3.9L318.4,151.7z M306.7,191.9l18.1,18.1
		l-13.1,13.1L293.7,205L306.7,191.9L306.7,191.9z M122.2,239.4l-17.7,66.1l36.4,9.7l-0.1,0.5c1.4,0.3,2.9,0.6,4.3,1
		c37.4,10,59.6,48.5,49.6,85.9c-9.9,36.8-47.2,58.9-84,50.1c-2.7,0.4-4.9,1.3-6.9,2.6c-4,2.5-6.9,6.7-8.3,11.5
		c-1.3,4.8-0.9,9.9,1.3,14c1.7,3.2,4.3,6,8.8,8.1c54.9,11.2,109.8-22.2,124.5-77c0,0,0,0,0,0c10.6-39.5-2.8-79.7-30.7-105.7
		l-4.1-3.8l1.4-5.4l9.4-35.1L122.2,239.4L122.2,239.4z M280.1,262.4c-6,33.1,3.7,68.3,29.4,94.1c35.8,35.8,90.5,41.1,131.6,15.5
		c-5.3-2-10-5.2-13.9-9.1c-5.1-5.1-8.8-11.7-10.4-19c-26.4,13.6-59.6,9.3-81.7-12.8c-14.6-14.6-21.4-34-20.5-53.1l-3,3l-6.6,6.6
		l-6.5-6.6L280.1,262.4L280.1,262.4z M149.9,266.5l17.9,4.8l-6.6,24.8l-17.9-4.8L149.9,266.5L149.9,266.5z M91,284.2
		c-31.7,11.4-57.3,37.4-66.7,72.5c-13.1,48.9,9.7,98.9,52.4,121.7c-0.9-5.6-0.6-11.2,0.9-16.6c1.9-7,5.7-13.5,11.3-18.5
		c-25-16.1-37.9-46.9-29.8-77.1c5.3-19.9,18.7-35.5,35.7-44.3l-4.1-1.1l-8.9-2.4l2.4-8.9L91,284.2L91,284.2z"/>
</g>
</svg>
