<?xml version="1.0" encoding="utf-8"?>
<!-- Generator: Adobe Illustrator 28.3.0, SVG Export Plug-In . SVG Version: 6.00 Build 0)  -->
<svg version="1.1" id="Calque_1" xmlns="http://www.w3.org/2000/svg" xmlns:xlink="http://www.w3.org/1999/xlink" x="0px" y="0px"
	 width="512px" height="512px" viewBox="0 0 512 512" style="enable-background:new 0 0 512 512;" xml:space="preserve">
<style type="text/css">
	.st0{fill:#FFFFFF;}
</style>
<g transform="translate(0,0)">
	<path class="st0" d="M21.5,22.1v26.8l55.7,56.7l24.5-24.5l-58-59L21.5,22.1L21.5,22.1z M86,25.6c-4.4,0.1-8.3,0.9-11.7,2.2l115,115
		c2.9-7.3,3-17-0.1-28.7c-4.5-16.7-15.9-36.1-33-53.2c-17.1-17.1-36.5-28.4-53.2-33C96.8,26.2,91.1,25.4,86,25.6L86,25.6z
		 M23.8,78.3c-2.9,7.3-3,17,0.1,28.7c4.5,16.7,15.9,36.1,33,53.2s36.5,28.4,53.2,33c11.7,3.2,21.4,3,28.7,0.1L23.8,78.3L23.8,78.3z
		 M129.4,108.9l-24.4,24.4L223,251.2l24.4-24.4L129.4,108.9L129.4,108.9z M490.5,164.7c-7.7,2.7-15.5,6.1-23,10.5
		c-20.1,11.6-35.3,26.8-43.5,41.1c-5.7,9.8-7.8,18.7-7.1,26l73.7-42.4L490.5,164.7L490.5,164.7z M236.9,176.4
		c-4.4,0.1-8.3,0.9-11.7,2.2l72.6,72.6c10.5-5.1,21.1-8.9,31.3-11.2c-5.7-9.6-13.1-19.3-22.1-28.3c-17.1-17.1-36.5-28.4-53.2-33
		C247.7,177,242,176.3,236.9,176.4L236.9,176.4z M175.1,228.8c-2.9,7.3-3,17,0.1,28.7c4.5,16.7,15.9,36.1,33,53.2
		c6.3,6.3,13,11.9,19.7,16.5c1.5-7.6,4.6-15.2,8.9-22.6c1.7-2.9,3.6-5.7,5.6-8.6L175.1,228.8L175.1,228.8z M475,229.4l-138.5,80.1
		l16.2,28.4l136-78.5v-6L475,229.4L475,229.4z M353.9,255.5c-16.6,0.1-37.4,5.8-57.5,17.3c-20.1,11.6-35.4,26.8-43.8,41.1
		c-5.7,9.8-8,18.6-7.3,25.9L380,262.1C374,257.9,365.2,255.4,353.9,255.5L353.9,255.5z M490.5,278.8l-39.1,22.6
		c3.2,2.3,7.1,4.1,12.1,5.2c7.4,1.8,16.8,1.9,27.1,0.3V278.8L490.5,278.8z M416.2,321.8l-134.6,77.7c6,4.2,14.7,6.7,26.1,6.6
		c16.6-0.1,37.4-5.8,57.5-17.3c20.1-11.6,35.4-26.8,43.8-41.1C414.6,338,416.8,329.1,416.2,321.8L416.2,321.8z M295.3,332.4
		l-10.5,6.1l0,0l-12.6,7.3l0.1,0l-115.4,66.6l16.2,28.1l138.4-79.9L295.3,332.4L295.3,332.4z M432.4,339.8
		c-1.7,5.8-4.3,11.6-7.6,17.2c-2.5,4.2-5.4,8.4-8.6,12.5l67.8,67.8c2.9-7.3,3-17-0.1-28.7c-4.5-16.7-15.9-36.1-33-53.2
		C444.9,349.6,438.7,344.3,432.4,339.8L432.4,339.8z M177.8,358.1c-16.6,0.1-37.4,5.8-57.5,17.3c-20.1,11.6-35.4,26.8-43.8,41.1
		c-5.7,9.8-8,18.6-7.3,25.9l134.6-77.7C197.9,360.6,189.1,358.1,177.8,358.1L177.8,358.1z M424.2,403.8l-24.3,24l61.6,62.1h27.3
		v-21.5L424.2,403.8z M358.9,412.7c-10.5,4.7-21,8-31.1,9.9c5.9,10.7,14,21.7,24.1,31.9c17.1,17.1,36.5,28.4,53.2,33
		c11.7,3.2,21.4,3,28.7,0.1L358.9,412.7L358.9,412.7z M238.6,424.6l-113,65.2h64.9c18.7-11.4,33.1-26,40.9-39.6
		C237.1,440.5,239.3,431.8,238.6,424.6L238.6,424.6z M125.3,431.6L24.2,489.9h64.6l52.7-30.4C141.4,459.5,125.3,431.6,125.3,431.6z"
		/>
</g>
</svg>
