<?xml version="1.0" encoding="utf-8"?>
<!-- Generator: Adobe Illustrator 28.3.0, SVG Export Plug-In . SVG Version: 6.00 Build 0)  -->
<svg version="1.1" id="Calque_1" xmlns="http://www.w3.org/2000/svg" xmlns:xlink="http://www.w3.org/1999/xlink" x="0px" y="0px"
	 width="512px" height="512px" viewBox="0 0 512 512" style="enable-background:new 0 0 512 512;" xml:space="preserve">
<style type="text/css">
	.st0{fill:#FFFFFF;}
</style>
<g transform="translate(0,0)">
	<path class="st0" d="M260.7,31.1c5.2,0.5,9.9,2.4,14.5,4.9l9.1-16.3c-6.4-3.8-13.9-6.1-20.7-7.3C262.7,18.6,261.7,24.9,260.7,31.1z
		 M251.6,12.7c-7.6,0.5-14.1,2.5-21.1,6l8.3,16.7c5.1-1.9,9.6-3.7,14.6-4L251.6,12.7z M192.4,67.4c-2.1,6.7-3.3,14.2-3.8,20.2
		l18.6,1.8c0.6-6.2,1.4-10.7,3-16.5L192.4,67.4z M320.6,69.6c-6,1.9-12,3.4-18.1,4.9c1.1,5.6,2.2,11.8,2.7,16.6l18.7-1
		C323.1,83.1,322.1,75.8,320.6,69.6L320.6,69.6z M217.9,137.3c0,0-11.5,5.4-16.1,6.7c0,0,4.8,9.6,6.9,17.1
		c7.6-2.2,15.5-3.2,23.3-4.5C227.3,149.7,221.5,143.2,217.9,137.3L217.9,137.3z M293.2,139c-4.2,6.3-9.2,12-13.9,17.9
		c7.8,2.1,16,2.7,23.6,5.5c0,0,4.4-12.9,6.1-17.7C303.3,142.8,293.2,139,293.2,139L293.2,139z M155.8,181.9
		c-3.5,5.7-6.3,11.8-8.7,18l17.4,6.9c2-5.4,4.5-10.7,7.5-15.6L155.8,181.9z M355.3,185.1l-16.2,9.2c2.8,5.1,5.4,10.4,7.6,15.8
		L364,203C361.6,196.8,358.5,190.9,355.3,185.1L355.3,185.1z M135.1,257.4c-0.5,6.8-0.6,12.6-0.6,19.3h18.7c0.1-6.3,0.2-12.9,0.6-18
		L135.1,257.4z M376.7,260.3l-18.7,1.5c0.5,5.8,0.8,12,0.8,18l18.7-0.1C377.4,272.7,377.1,266.5,376.7,260.3z M139,329.6
		c0.5,6.3,2,12.9,2.9,18.3h20.3v-18.7C154.5,329,146.8,329.3,139,329.6L139,329.6z M180.9,329.2c-0.1,6.4,0,12.3,0,18.7l19.2-0.5
		c-0.5-6.1-0.9-12.1-1.2-18.2H180.9z M310.9,329.2c-0.5,6.3-1,12.7-1.5,19l18.7,1.4l-0.2-20.4H310.9z M346.6,329.2v18.7h23.2
		c1.3-6.4,2.3-11.6,3.4-18C364.4,329,355.5,329.2,346.6,329.2z M247.8,378.7v18.7h18.6v-18.7H247.8z M203.8,403.4l-18.7,1.2
		l1.3,18.7L205,422L203.8,403.4z M305.3,404.1l-1.4,18.6l18.6,1.4l1.4-18.6L305.3,404.1z M247.8,453.5v18.7h18.6v-18.7H247.8z
		 M208.7,478l-18.7,1.2c0.5,6.8,0.9,13.6,1.4,20.4h15.7L208.7,478z M299.7,478.6l0.8,21h16.4c0.4-6.5,1-13.1,1.5-19.6L299.7,478.6z"
		/>
</g>
</svg>
