<?xml version="1.0" encoding="UTF-8" standalone="no"?>
<!-- Created with Inkscape (http://www.inkscape.org/) -->

<svg
   width="505.62521"
   height="489.76483"
   viewBox="0 0 505.62521 489.76483"
   version="1.1"
   id="svg1"
   xml:space="preserve"
   xmlns="http://www.w3.org/2000/svg"
   xmlns:svg="http://www.w3.org/2000/svg"><defs
     id="defs1" /><g
     style="clip-rule:evenodd;fill:#ffffff;fill-rule:evenodd;image-rendering:optimizeQuality;shape-rendering:geometricPrecision;text-rendering:geometricPrecision"
     id="g7-1-3-75"
     transform="matrix(0.12293343,0,0,0.12834508,-13.645611,-11.551057)"><path
       d="m 2301,522 c 634,49 1170,448 1417,1003 h 136 370 l -407,296 c 30,125 45,256 45,391 0,509 -224,966 -580,1276 l 140,407 -345,-253 c -263,167 -575,264 -910,264 -332,0 -642,-96 -904,-261 l -329,235 125,-386 C 700,3183 473,2724 473,2212 c 0,-137 16,-270 46,-397 L 111,1525 H 617 C 860,978 1384,583 2007,524 L 2148,90 Z m 323,916 -262,-742 c 514,65 947,385 1171,829 H 1977 l -67,205 h 1705 l -687,493 65,197 676,-492 c 17,92 26,187 26,284 0,434 -181,826 -472,1104 L 2703,1806 h -189 l 528,1540 -643,-436 -152,125 684,500 c -225,130 -486,204 -764,204 -275,0 -533,-72 -756,-200 l 1306,-934 -75,-213 -1347,954 254,-721 -170,-118 -263,813 C 822,3041 640,2648 640,2212 c 0,-100 9,-198 28,-292 l 1256,890 164,-115 -1369,-972 2,-4 h 815 l 63,-194 H 802 c 220,-437 644,-754 1148,-826 l -478,1464 181,132 497,-1611 h 13 l 262,754 z"
       fill="#2b2a29"
       id="path1-4-8-4-4"
       style="fill:#ffffff" /></g><path
     style="fill:#000000;stroke:none;stroke-width:14.5221;stroke-linecap:round;stroke-linejoin:round;stroke-dasharray:none"
     d="m 243.37352,467.84423 c -26.22698,-2.25458 -43.60494,-6.44461 -63.87162,-15.40021 -7.29784,-3.22482 -18.07519,-8.92529 -18.33226,-9.69648 -0.0976,-0.29275 35.66619,-27.25661 79.47503,-59.91968 43.80885,-32.66308 79.67266,-59.79034 79.69736,-60.28281 0.0247,-0.49246 -2.00635,-6.86668 -4.51345,-14.16492 -3.02276,-8.79935 -4.78388,-13.13221 -5.2278,-12.86192 -0.3682,0.22419 -37.30292,27.49416 -82.07717,60.59993 -44.77424,33.10578 -81.52087,60.07918 -81.65916,59.94089 -0.13829,-0.13829 6.61664,-20.61237 15.01095,-45.49796 8.39431,-24.88559 15.05561,-45.43145 14.80289,-45.65747 -0.25273,-0.22602 -4.99294,-3.69755 -10.5338,-7.71451 -6.64635,-4.81841 -10.22003,-7.06774 -10.50261,-6.61052 -0.23558,0.38118 -7.50364,23.57746 -16.15124,51.54729 -8.64761,27.96984 -15.83,50.98835 -15.96088,51.15226 -0.40936,0.51267 -9.81632,-9.56297 -14.96819,-16.03218 C 84.543301,367.08616 69.67769,329.6361 66.114205,290.31078 64.774593,275.52731 65.657199,252.00261 68.021312,239.47939 l 0.749885,-3.97231 76.971673,56.94994 c 42.33443,31.32246 77.04744,56.94993 77.14003,56.94993 0.31574,0 19.90304,-14.45547 20.16782,-14.88389 0.14509,-0.23477 -37.58116,-28.47751 -83.83612,-62.76165 l -84.099928,-62.33479 50.239858,-0.29846 50.23986,-0.29847 3.7328,-11.93862 c 2.05303,-6.56624 3.73808,-12.14009 3.74455,-12.38632 0.006,-0.24623 -21.8807,-0.4477 -48.63813,-0.4477 -26.75743,0 -48.649878,-0.17709 -48.649878,-0.39353 0,-1.22567 8.05193,-15.40473 12.82001,-22.57543 7.903598,-11.88617 14.721618,-20.17268 25.059048,-30.45637 26.80489,-26.66553 60.49129,-44.572988 95.98273,-51.02376 3.20104,-0.581808 5.82007,-0.94595 5.82007,-0.809205 0,0.136745 -13.03541,41.940425 -28.96759,92.897075 -15.93218,50.95665 -29.09929,93.07657 -29.26025,93.59984 -0.20975,0.68186 2.85796,3.34339 10.82891,9.39504 6.11687,4.64401 11.30613,8.32959 11.53171,8.19017 0.22557,-0.13941 14.09613,-46.60506 30.82347,-103.257 16.72732,-56.65194 30.6838,-103.005969 31.0144,-103.008965 0.33059,-0.003 7.85006,21.752689 16.70992,48.345965 l 16.10885,48.35141 h 12.39047 c 6.81475,0 12.39046,-0.23709 12.39046,-0.52687 0,-0.28979 -7.1184,-21.55232 -15.81867,-47.25009 -8.70027,-25.697756 -15.81868,-46.815869 -15.81868,-46.929133 0,-0.521585 3.35917,-0.05914 11.3782,1.566384 53.52896,10.850793 99.72532,45.647699 127.31536,95.898899 2.18513,3.9799 3.97296,7.40479 3.97296,7.61087 0,0.20609 -42.96488,0.3747 -95.47752,0.3747 h -95.47751 l -2.7526,8.80473 c -2.96363,9.47977 -5.07992,16.1166 -5.51944,17.30933 -0.21835,0.59254 21.01845,0.77529 104.05324,0.89539 l 104.32758,0.15091 -41.63573,31.22805 c -22.89965,17.17542 -41.52416,31.54654 -41.38778,31.93581 0.13637,0.38927 1.95171,6.1473 4.03409,12.79562 2.08238,6.64832 3.9404,12.07932 4.12894,12.06888 0.18853,-0.0104 18.87749,-14.11041 41.53102,-31.33328 l 41.18825,-31.31431 0.42319,1.93443 c 2.83015,12.93682 3.41392,43.04065 1.15728,59.67908 -5.76262,42.48849 -23.79985,81.1686 -51.58544,110.62293 l -4.34572,4.6067 -31.92083,-96.78206 -31.92083,-96.78206 -11.8541,-0.002 -11.8541,-0.002 0.35278,1.40559 c 0.19402,0.77307 14.6167,44.84892 32.05037,97.94633 17.43368,53.09741 31.57086,96.66748 31.41597,96.82237 -0.1549,0.15489 -17.43508,-11.86343 -38.40041,-26.70739 -20.96533,-14.84396 -38.52272,-27.0868 -39.01644,-27.20632 -0.93731,-0.22691 -18.80559,14.82135 -18.80559,15.83764 0,0.31825 18.4004,14.60497 40.88978,31.74825 22.48938,17.14329 41.2248,31.48013 41.63428,31.85964 0.57689,0.53467 -0.90146,1.57876 -6.56624,4.63746 -20.00164,10.79987 -41.57554,17.67217 -64.22128,20.45748 -7.3533,0.90441 -26.05344,1.60726 -31.1368,1.17027 z"
     id="path43" /></svg>
