<?xml version="1.0" encoding="utf-8"?>
<!-- Generator: Adobe Illustrator 28.3.0, SVG Export Plug-In . SVG Version: 6.00 Build 0)  -->
<svg version="1.1" id="Calque_1" xmlns="http://www.w3.org/2000/svg" xmlns:xlink="http://www.w3.org/1999/xlink" x="0px" y="0px"
	 width="512px" height="512px" viewBox="0 0 512 512" style="enable-background:new 0 0 512 512;" xml:space="preserve">
<style type="text/css">
	.st0{fill:#FFFFFF;}
</style>
<g transform="translate(0,0)">
	<path class="st0" d="M256.1,22.1c-107.2,0-194.1,89.6-194.1,200.3c0,83.5,49.2,155.1,119.5,184.9v-16.3c0-25.5-6.1-39.5-13.6-47.9
		c-7.5-8.3-17.1-11.4-27.2-11.9c-18-0.9-32.1-12.3-40.4-26.8c-6.6-11-5.7-24.6-0.4-36.5c5.3-11.9,15.4-23.3,29-33.4
		c27.2-20.2,69-35.1,120.8-35.1s97.1,15.4,127.8,35.6c15.4,10.1,26.8,21.5,33.8,33.4c7,11.9,8.8,25.9,2.2,37.8
		c-4,7-11,11.9-18.4,15.8s-15.8,6.6-24.2,6.6c-11.9,0-20.2,2.2-27.2,10.1s-12.3,23.3-12.3,51.8v16.3
		c70.3-30.3,119.9-101.5,119.9-184.9C450.2,111.7,363.2,22.1,256.1,22.1L256.1,22.1z M180.5,107.8c1.3,0,3.1,0,4.4,0
		c14.5,0.9,28.1,4.4,40.4,9.7l17.1,7.5l-16.3,8.8l-83,45.7l-8.8-16.3l64.1-35.1c-23.7-5.3-50.1-1.8-80.8,17.6l-9.7-15.8
		C133.5,113.9,157.7,107.3,180.5,107.8L180.5,107.8z M328.5,107.8c22.8-0.4,47,6.1,72.5,22l-9.7,15.8
		c-30.7-19.3-57.1-22.8-80.8-17.1l64.1,35.1l-8.8,16.3l-82.6-45.7l-16.3-8.8l17.1-7.5c12.7-5.7,26.4-9.2,40.4-9.7
		C325.9,107.8,327.2,107.8,328.5,107.8L328.5,107.8z M256.1,276c-68.1,0-111.6,15.4-115.5,37.3h0.4c13.2,0.9,28.6,5.3,40,17.6
		c11.4,12.3,18.4,32.1,18.4,60.2v98.8h112.4v-98.8c0-31.2,5.7-51,16.7-64.1c11-12.7,26.8-16.7,41.3-16.7c0.4,0,0.9,0,1.3,0
		C364.6,288.3,321.9,276,256.1,276L256.1,276z"/>
</g>
</svg>
