<?xml version="1.0" encoding="utf-8"?>
<!-- Generator: Adobe Illustrator 28.3.0, SVG Export Plug-In . SVG Version: 6.00 Build 0)  -->
<svg version="1.1" id="Calque_1" xmlns="http://www.w3.org/2000/svg" xmlns:xlink="http://www.w3.org/1999/xlink" x="0px" y="0px"
	 width="512px" height="512px" viewBox="0 0 512 512" style="enable-background:new 0 0 512 512;" xml:space="preserve">
<style type="text/css">
	.st0{fill:#FFFFFF;}
</style>
<g transform="translate(0,0)">
	<path class="st0" d="M183.5,19.1L29.9,172.7l226.8,314l226.3-313.5L329.5,19.7l-72.8,72.8L183.5,19.1L183.5,19.1z M182.5,46.9
		l6.6,6.6l67.6,67.6l67.6-67.6l6.6-6.6l6.6,6.6l116.1,116.1l5.6,5.6l-4.7,6.4L264.4,445.4l-7.6,10.5l-7.6-10.5L58.9,181.7l-4.7-6.4
		l5.6-5.6L175.9,53.5L182.5,46.9L182.5,46.9z M182.5,73.3L78.7,177.2L256.8,424l178.1-246.8L331,73.3l-61,61l66,66l6.6,6.6l-6.6,6.6
		l-78.2,78.2l-6.6,6.6l-6.6-6.6l-78.2-78.2l13.2-13.2l71.7,71.7l65.1-65l-59.4-59.4l0,0l-6.6-6.6L182.5,73.3L182.5,73.3z M184,98.1
		l109,109l-13.2,13.2l-109-109L184,98.1L184,98.1z M331.9,98.1l81.4,81.4l-13.2,13.2l-81.4-81.4L331.9,98.1L331.9,98.1z"/>
</g>
</svg>
