<?xml version="1.0" encoding="UTF-8" standalone="no"?>
<!-- Created with Inkscape (http://www.inkscape.org/) -->

<svg
   width="512"
   height="512"
   viewBox="0 0 512 512"
   version="1.1"
   id="svg1"
   xml:space="preserve"
   xmlns="http://www.w3.org/2000/svg"
   xmlns:svg="http://www.w3.org/2000/svg"><defs
     id="defs1"><rect
       x="411.28549"
       y="32.234276"
       width="57.902309"
       height="134.9064"
       id="rect15-9-1-1" /><rect
       x="433.96887"
       y="204.15041"
       width="65.065483"
       height="142.66652"
       id="rect16-3-7-9" /><rect
       x="411.28549"
       y="32.234276"
       width="57.902309"
       height="134.9064"
       id="rect15-9-1-1-1" /><rect
       x="411.28549"
       y="32.234276"
       width="57.902309"
       height="134.9064"
       id="rect15-9-1-1-1-8" /><rect
       x="411.28549"
       y="32.234276"
       width="57.902309"
       height="134.9064"
       id="rect15-9-1-1-1-84" /><rect
       x="411.28549"
       y="32.234276"
       width="57.902309"
       height="134.9064"
       id="rect15-9-1-1-1-4" /><rect
       x="433.96887"
       y="204.15041"
       width="65.065483"
       height="142.66652"
       id="rect16-3-7-9-6" /><rect
       x="433.96887"
       y="204.15041"
       width="65.065483"
       height="142.66652"
       id="rect16-3-7-9-6-5" /><rect
       x="433.96887"
       y="204.15041"
       width="65.065483"
       height="142.66652"
       id="rect16-3-7-9-4" /><rect
       x="433.96887"
       y="204.15041"
       width="65.065483"
       height="142.66652"
       id="rect16-3-7-9-6-5-1" /><rect
       x="433.96887"
       y="204.15041"
       width="65.065483"
       height="142.66652"
       id="rect16-3-7-9-4-7" /><rect
       x="433.96887"
       y="204.15041"
       width="65.065483"
       height="142.66652"
       id="rect16-3-7-9-4-7-5" /><rect
       x="433.96887"
       y="204.15041"
       width="65.065483"
       height="142.66652"
       id="rect16-3-7-9-6-5-1-9" /><rect
       x="433.96887"
       y="204.15041"
       width="65.065483"
       height="142.66652"
       id="rect16-3-7-9-6-5-1-9-6" /><rect
       x="433.96887"
       y="204.15041"
       width="65.065483"
       height="142.66652"
       id="rect16-3-7-9-4-7-5-6" /><rect
       x="411.28549"
       y="32.234276"
       width="57.902309"
       height="134.9064"
       id="rect15-9-1-1-1-8-0" /><rect
       x="433.96887"
       y="204.15041"
       width="65.065483"
       height="142.66652"
       id="rect16-3-7-9-6-5-1-9-2" /><rect
       x="433.96887"
       y="204.15041"
       width="65.065483"
       height="142.66652"
       id="rect16-3-7-9-4-7-5-0" /><rect
       x="411.28549"
       y="32.234276"
       width="57.902309"
       height="134.9064"
       id="rect15-9-1-1-1-8-0-1" /><rect
       x="433.96887"
       y="204.15041"
       width="65.065483"
       height="142.66652"
       id="rect16-3-7-9-6-5-1-9-2-3" /><rect
       x="433.96887"
       y="204.15041"
       width="65.065483"
       height="142.66652"
       id="rect16-3-7-9-4-7-5-0-9" /><rect
       x="411.28549"
       y="32.234276"
       width="57.902309"
       height="134.9064"
       id="rect15-9-1-1-1-8-0-1-8" /><rect
       x="411.28549"
       y="32.234276"
       width="57.902309"
       height="134.9064"
       id="rect15-9-1-1-1-8-0-1-8-9" /><rect
       x="411.28549"
       y="32.234276"
       width="57.902309"
       height="134.9064"
       id="rect15-9-1-1-1-8-0-1-8-9-8" /><rect
       x="433.96887"
       y="204.15041"
       width="65.065483"
       height="142.66652"
       id="rect16-3-7-9-6-5-1-9-2-3-2" /><rect
       x="433.96887"
       y="204.15041"
       width="65.065483"
       height="142.66652"
       id="rect16-3-7-9-4-7-5-0-9-5" /></defs><path
     style="fill:#ffffff;stroke:none;stroke-width:11.078;stroke-linecap:round;stroke-dasharray:none"
     d="m 222.05834,96.702827 -7.7601,24.474173 4.77545,83.57034 -11.93862,11.93863 -6.56624,-6.56625 -23.28031,13.13249 81.18262,113.41689 68.05014,-26.26496 31.04041,-60.29004 -34.622,-54.91765 1.19386,-10.14783 26.8619,-23.28031 -2.98466,-25.0711 -28.05576,-34.622 z"
     id="path20" /><path
     id="path5-8"
     style="fill:#000000;stroke:#ffffff;stroke-width:15;stroke-dasharray:none"
     d="m 274.54938,62.029177 c -3.14144,0.125018 -6.15185,0.418952 -8.86329,0.894532 -15.16435,2.659761 -29.20164,9.489677 -39.81836,19.374997 -4.99782,4.65353 -6.69156,5.26114 -14.00781,5.02149 -5.75002,-0.18836 -6.30018,0.0439 -5.87304,2.47265 1.13639,6.46289 5.69509,12.107484 11.10546,13.751964 2.00105,0.60826 10.11783,0.73785 34.92969,0.55664 l 32.32227,-0.23633 2.77734,1.41602 c 4.044,2.06309 5.93807,3.60217 8.04297,6.5332 3.25163,4.52782 3.76177,7.75505 4.21875,26.70117 l 0.41602,17.24414 -1.4336,1.80469 c -1.46467,1.84321 -6.9163,4.76389 -8.91211,4.77539 -0.9097,0.005 -1.0224,-0.30463 -0.62695,-1.71875 0.26466,-0.94851 0.38946,-9.89564 0.27539,-19.88281 -0.23056,-20.18405 -0.29638,-20.52687 -4.38477,-23.23242 -4.3692,-2.89142 -7.05975,-3.05471 -50.59375,-3.09571 -40.49972,-0.0382 -40.7819,-0.0309 -43.69726,1.31641 -5.19897,2.40266 -5.25159,2.6593 -5,24.03515 0.23646,20.09001 0.23283,20.07294 3.96094,23.64844 3.28998,3.15528 7.19649,4.55733 13.93554,5 l 5.95117,0.39063 0.36914,2.25976 c 0.46416,2.84166 1.55718,17.07382 1.57618,20.51758 l 0.0137,2.58203 -4.85938,1.73828 c -8.16519,2.9218 -19.59765,9.28751 -19.59765,10.91211 0,0.77413 5.20093,6.48168 23.19531,25.45703 23.17991,24.44357 33.81198,35.93695 31.36329,33.9043 -1.20721,-1.00207 -13.20085,-10.99568 -26.65235,-22.20898 -25.2138,-21.01848 -33.67311,-27.68555 -35.125,-27.68555 -0.46144,0 -2.90498,0.82675 -5.43164,1.83789 -2.52666,1.01113 -8.54625,3.00746 -13.375,4.4375 -4.82875,1.43005 -10.98336,3.25808 -13.67774,4.06055 l -4.89843,1.45898 -7.64258,-4.74414 c -4.20384,-2.6091 -9.05474,-5.6159 -10.7793,-6.68164 -8.2852,-5.12014 -12.91335,-8.72407 -12.48047,-9.71875 1.61739,-3.7165 2.27071,-10.11964 1.78711,-15.13086 -0.85076,-2.27922 -1.70226,-4.55814 -2.25586,-6.92187 -0.13035,-0.55658 -0.22646,-1.1193 -0.29883,-1.68555 -2.77833,-6.20705 -7.45181,-15.10513 -9.39844,-17.5 -2.784018,-3.42509 -6.475658,-4.86643 -11.359368,-4.4375 l -3.62109,0.31641 -5.39649,-5.2461 c -9.27136,-9.01323 -14.6026,-9.96591 -22.90625,-4.09375 -2.08682,1.47576 -3.76074,2.14363 -5.55273,2.21485 -4.213187,0.16757 -8.959711,4.57947 -12.259765,11.39648 -0.770479,1.59158 -1.777483,2.77539 -2.361328,2.77539 -1.602724,0 -7.409276,6.57713 -9.34375,10.58398 -0.989911,2.05039 -2.489457,4.06766 -3.4375,4.625 -2.501826,1.47077 -5.307932,5.71604 -6.177734,9.3418 -1.660242,6.92064 1.30457,12.83477 12.267578,24.4707 15.204821,16.13809 20.724809,20.72163 29.142579,24.19922 4.35761,1.80024 4.75563,2.12287 5.41211,4.375 2.1705,7.44618 5.97015,11.1468 20.09375,19.57617 17.465228,10.42386 38.069598,22.10034 40.576168,22.99415 4.9045,1.74888 32.86282,0.76671 56.44922,-1.98438 4.44611,-0.5186 8.11464,-0.86668 8.15234,-0.77148 2.24792,5.67407 18.23829,35.46481 27.97461,52.11914 3.10434,5.3101 6.18907,11.03377 6.85547,12.71875 1.91891,4.852 4.95152,13.07199 7.95508,21.56445 3.34675,9.4628 3.21929,9.19662 8.65039,18.18555 9.34488,15.46654 24.46008,37.13426 29.56445,42.38086 3.8556,3.96301 4.02031,4.00353 25.36328,6.21875 8.45031,0.87708 16.25931,1.73808 17.35352,1.91406 1.81441,0.29182 2.66332,1.4094 9.64062,12.6875 4.20772,6.80137 8.53241,13.30671 9.61133,14.45703 4.60669,4.91155 11.12749,6.71654 14.67969,4.06445 3.41694,-2.55112 4.10035,-4.14531 4.00195,-9.32226 -0.10363,-5.45256 -2.36828,-21.86321 -3.24219,-23.4961 -0.31736,-0.593 -6.57378,-6.83136 -13.90429,-13.86132 -33.88074,-32.49167 -43.79777,-42.13775 -43.56054,-42.375 0.14072,-0.1407 3.18193,0.51941 6.75781,1.46679 l 6.50196,1.72266 9.40624,9.05859 c 5.17366,4.98237 19.99573,19.38948 32.9375,32.01563 12.94181,12.62614 27.61583,26.90847 32.60938,31.73828 l 9.08008,8.78125 6.21484,14.01367 c 5.25407,11.84501 6.67237,14.48115 9.15625,17.03125 2.20878,2.26767 3.6231,3.1582 5.69727,3.58203 h 0.002 c 7.62103,1.55483 13.65323,-3.52558 15.08203,-12.70312 1.27296,-8.17648 -0.53499,-17.33399 -8.37109,-42.41797 -1.83965,-5.88887 -1.9999,-6.1502 -5.4961,-8.86524 -3.72096,-2.88959 -6.76306,-7.39891 -22.5,-33.35547 -6.00644,-9.90705 -20.31804,-37.78098 -22.9375,-44.67578 l -1.72461,-4.54101 2.76563,-3.29883 c 4.14069,-4.93722 5.49219,-7.09159 5.49219,-8.75586 0,-0.82673 -1.58061,-4.17075 -3.51173,-7.42969 -6.96818,-11.75945 -10.9162,-20.7717 -10.9082,-24.9082 0.002,-1.28554 0.88134,-5.58236 1.95312,-9.54883 1.07177,-3.96646 2.24562,-8.41108 2.60938,-9.87695 0.36378,-1.46587 0.88788,-2.66602 1.16406,-2.66602 0.27617,0 1.56901,0.53882 2.87304,1.19727 1.30406,0.65847 5.61556,2.67454 9.58204,4.48047 14.90637,6.78686 19.77482,9.17819 20.45703,10.04687 0.38634,0.49193 4.16811,8.51359 8.40429,17.82617 4.29022,9.43138 8.4795,17.76458 9.45704,18.8125 l 1.75586,1.88086 -2.6543,4.39063 c -1.45923,2.41438 -3.69329,5.95852 -4.9668,7.87695 -3.74349,5.63927 -4.43633,7.8194 -3.95898,12.47852 0.91468,8.92782 7.3703,16.95703 13.63282,16.95703 2.08652,0 2.51454,0.24357 3.03125,1.72461 1.2561,3.60057 2.32209,4.91215 5.34375,6.57031 2.34447,1.28654 4.00004,1.71311 6.68164,1.72461 3.21447,0.0132 4.64909,-0.51463 14.62891,-5.38086 8.66887,-4.22701 11.31586,-5.8084 12.22461,-7.30273 2.19411,-3.60793 7.7035,-20.41412 7.32031,-22.33008 -0.19668,-0.98335 -1.32015,-3.45271 -2.49611,-5.48633 -1.17595,-2.03362 -2.9788,-5.24948 -4.00585,-7.14648 -1.02703,-1.89701 -3.07123,-5.64124 -4.54296,-8.32032 -2.62506,-4.77853 -2.65892,-4.91462 -1.76172,-7.16406 0.86221,-2.16176 0.81824,-2.50933 -0.77736,-6.10156 -0.93085,-2.0957 -5.46722,-12.69262 -10.08202,-23.54883 l -8.39062,-19.74023 -9.77736,-10.08204 c -5.37682,-5.54594 -12.86311,-13.76025 -16.6367,-18.25195 -3.7736,-4.49169 -10.47717,-12.4294 -14.8965,-17.64062 l -8.03516,-9.47461 -4.85546,-1.85547 c -5.69647,-2.17527 -14.29701,-4.67877 -27.36133,-7.9668 -5.17364,-1.30211 -9.60524,-2.53614 -9.84766,-2.74219 -0.24243,-0.20606 0.33956,-1.6442 1.29297,-3.19531 0.95341,-1.55111 3.19669,-5.54977 4.98437,-8.88672 l 3.25,-6.06836 -7.18945,-3.49609 c -3.95453,-1.92293 -7.30472,-3.49609 -7.44336,-3.49609 -0.13864,0 -1.59779,-0.59597 -3.24414,-1.32422 l -2.99414,-1.32422 3.36133,-1.93946 c 1.84872,-1.06734 5.34662,-3.83189 7.77344,-6.14257 7.46077,-7.10365 11.05877,-14.43703 12.64453,-25.77344 0.61879,-4.42349 0.83699,-8.60949 0.58203,-11.15625 -0.45438,-4.53852 -2.71982,-10.10357 -5.14844,-12.64258 -1.55124,-1.62178 -1.58314,-1.82879 -1.16211,-7.52539 0.54354,-7.35428 -0.56231,-12.52139 -4.15234,-19.42187 -4.3061,-8.276864 -11.47417,-14.193414 -18.57031,-15.328134 -2.22545,-0.35588 -2.5908,-0.66652 -3.20508,-2.7168 -2.28522,-7.62741 -11.88012,-15.71033 -23.07813,-19.441403 -7.18575,-2.394222 -17.78077,-3.546921 -27.20507,-3.171876 z m 40.15821,70.841803 h 3.96483 c 5.82079,0 16.5161,1.74776 19.25781,3.14648 4.27493,2.18091 6.70707,7.49435 5.89844,12.88672 -0.23059,1.53764 -0.59751,2.90582 -0.8164,3.04102 -0.21888,0.1352 -0.96251,-1.20784 -1.65235,-2.98438 -0.96544,-2.48635 -1.7597,-3.47551 -3.44922,-4.29883 -3.96738,-1.93324 -8.38306,-1.13594 -12.9375,2.3379 -1.72258,1.31388 -2.7119,1.54882 -6.52929,1.54882 -3.84458,0 -4.44249,-0.14446 -4.11719,-0.99218 0.20936,-0.54557 0.38086,-4.07209 0.38086,-7.83789 z m 16.74608,21.07227 c 0.46328,-0.0595 0.83133,0.005 1.07227,0.20507 0.43809,0.36364 0.94966,0.50739 1.13673,0.32032 0.67327,-0.67326 1.73842,3.74578 1.73242,7.18554 -0.007,4.10527 -2.03542,9.0323 -4.75782,11.55664 -1.08368,1.00486 -3.10653,1.92015 -5.21289,2.35743 -5.50221,1.14223 -6.249,1.67882 -7.2754,5.22656 -0.50688,1.75202 -2.18838,9.39439 -3.73437,16.98242 -1.54601,7.58803 -3.12535,14.92506 -3.51172,16.30469 -1.55778,5.56252 -12.01467,23.74831 -19.99219,34.77148 -13.48408,18.63205 -13.60614,18.93621 -14.83984,36.71289 -0.50291,7.24643 -1.12343,15.71418 -1.37891,18.81836 -0.45809,5.5657 -0.47177,5.60181 -0.94336,2.50977 -0.98463,-6.45607 -1.7163,-12.90703 -2.89062,-25.48633 -1.33732,-14.32534 -1.86732,-16.2353 -7.63281,-27.50586 -8.06188,-15.75958 -9.55062,-19.10454 -8.00391,-17.98438 0.81243,0.58837 2.95535,2.09154 4.76172,3.33985 2.50774,1.73299 4.30083,3.84409 7.58203,8.92773 2.36355,3.66187 4.58031,7.50434 4.92578,8.53906 0.62071,1.85918 0.63325,1.84473 1.0918,-1.2539 0.86753,-5.86228 2.86602,-15.43704 3.44336,-16.5 0.31636,-0.58248 2.36254,-2.75281 4.54883,-4.82227 5.44158,-5.15082 11.39107,-12.17784 15.10351,-17.84179 2.60046,-3.96746 9.87695,-18.04077 9.87695,-19.10352 0,-0.17855 -2.47031,1.6646 -5.48828,4.0957 -10.70295,8.6217 -23.13142,15.71019 -31.17383,17.7793 -7.50684,1.93134 -29.90157,0.92164 -35.14257,-1.58398 -4.78724,-2.28871 -7.37323,-8.20613 -10.3125,-23.60157 -1.50162,-7.86526 -3.79688,-23.03834 -3.79688,-25.09375 0,-0.2088 5.99682,-0.19292 13.32617,0.0332 7.32934,0.22621 23.06152,0.58649 34.96094,0.80078 29.50549,0.53134 33.23859,-0.0848 38.80469,-6.40821 1.42165,-1.61507 2.58398,-3.1802 2.58398,-3.47656 0,-0.29634 2.95295,-0.53906 6.5625,-0.53906 6.32333,0 6.6383,-0.0641 8.62305,-1.79297 2.30678,-2.00939 4.56135,-3.29419 5.95117,-3.47265 z M 67.463442,164.8534 c 0.28201,0 2.33195,1.83739 4.55664,4.08203 l 4.04492,4.08008 -2.83984,2.83984 -2.83985,2.8418 -4.33007,-4.48633 -4.33008,-4.48437 2.61328,-2.43555 c 1.43675,-1.34019 2.84299,-2.4375 3.125,-2.4375 z m -17.78906,12.54297 c 0.0707,0 2.4679,2.67271 5.32812,5.93945 l 5.20117,5.93946 0.10547,4.09375 c 0.058,2.25204 0.10083,4.09396 0.0957,4.09375 -0.005,-2.1e-4 -3.36365,-3.36272 -7.46289,-7.47266 l -7.453122,-7.47266 2.027344,-2.56054 c 1.115651,-1.40863 2.087468,-2.56055 2.158198,-2.56055 z m 40.53125,0.62695 c 0.20869,0 1.56805,2.46205 3.02148,5.47266 l 2.64258,5.47461 -2.05078,1.84961 c -1.12771,1.01767 -4.20444,3.91637 -6.83789,6.4414 -3.84384,3.6856 -5.17028,4.5918 -6.73047,4.5918 -2.51483,0 -5.60138,-2.77524 -6.125,-5.50781 -0.37694,-1.9671 -0.0381,-2.41513 7.6543,-10.18945 4.42583,-4.47301 8.21709,-8.13282 8.42578,-8.13282 z m 154.853518,7.5293 c -7.4183,-0.51551 -13.43452,1.78003 -10.15235,6.18555 1.09431,1.46884 1.80457,1.6984 6.49414,2.10547 2.89595,0.25139 7.66396,0.85472 10.5957,1.33984 7.3703,1.21962 9.36738,1.2282 9.82227,0.043 0.56507,-1.47255 -0.94237,-3.80012 -3.59961,-5.5586 -3.75473,-2.48476 -8.70919,-3.80592 -13.16016,-4.11523 z m -209.226567,8.2832 c 1.943892,-0.26563 4.955156,2.17542 12.8125,9.50977 3.202969,2.98949 3.809209,3.85334 3.210939,4.57422 -0.4058,0.48896 -1.49927,1.43375 -2.43164,2.09765 l -1.695315,1.20703 -4.972656,-4.61914 c -2.734587,-2.54049 -6.049067,-5.93479 -7.365234,-7.54101 -2.308168,-2.8168 -2.35396,-2.96373 -1.28711,-4.14258 0.550835,-0.60867 1.080552,-0.99739 1.728516,-1.08594 z m 60.791019,10.29102 -0.45899,4.03711 c -0.68435,6.03635 -2.77368,9.76763 -9.60351,17.14062 -5.99023,6.46662 -6.12153,6.56174 -8.90235,6.55274 -4.02638,-0.0121 -9.61799,-1.49333 -13.95507,-3.69727 -3.71954,-1.89014 -8.6211,-5.43996 -8.6211,-6.24414 0,-0.23183 0.69485,-0.73661 1.54297,-1.12305 0.84812,-0.38642 3.68127,-2.56821 6.29492,-4.84765 l 4.75196,-4.14453 2.95507,1.14062 c 1.87563,0.72374 4.56008,1.1339 7.34571,1.1211 5.23907,-0.0237 8.61063,-1.54627 14.70507,-6.63868 z m 232.507818,45.77539 c 0,0.2429 -0.46857,1.92259 -1.03907,3.73242 l -1.03711,3.29102 -11.97461,6.10156 c -6.58636,3.35597 -14.37294,7.37537 -17.30468,8.93164 -2.93174,1.55626 -5.05,2.53454 -4.70508,2.17383 0.83341,-0.87161 19.44496,-14.14213 25.39844,-18.10938 6.06984,-4.0448 10.66211,-6.68047 10.66211,-6.12109 z m 100.96289,119.32031 v 3.08789 c 0,3.081 -0.005,3.08873 -2.35157,3.47656 -1.29341,0.2138 -2.83852,0.39054 -3.43554,0.39454 -1.53945,0.01 -2.15398,-2.95271 -1.0293,-4.96485 0.73686,-1.31829 1.43876,-1.64634 3.85938,-1.80273 z" /><text
     xml:space="preserve"
     id="text16-2-9-6-1"
     style="font-style:normal;font-variant:normal;font-weight:bold;font-stretch:normal;font-size:85.3333px;font-family:'Century Gothic';-inkscape-font-specification:'Century Gothic Bold';text-align:start;writing-mode:lr-tb;direction:ltr;white-space:pre;shape-inside:url(#rect16-3-7-9-6);fill:#000000;stroke:#ffffff;stroke-width:16.8638;stroke-linecap:round;stroke-dasharray:none"
     transform="matrix(0.6569094,0,0,0.6569094,-152.78614,-128.69387)"><tspan
       x="433.96875"
       y="281.62233"
       id="tspan5">0</tspan></text><path
     style="fill:none;stroke:#ffffff;stroke-width:15.3;stroke-linecap:round;stroke-dasharray:none"
     d="M 51.933,44.769827 69.244,43.575965 68.647069,81.182621"
     id="path19" /><text
     xml:space="preserve"
     id="text14-79-3-8"
     style="font-style:normal;font-variant:normal;font-weight:bold;font-stretch:normal;font-size:85.3333px;font-family:'Century Gothic';-inkscape-font-specification:'Century Gothic Bold';text-align:start;writing-mode:lr-tb;direction:ltr;white-space:pre;shape-inside:url(#rect15-9-1-1);fill:#000000;stroke:none;stroke-width:14.276;stroke-linecap:round;stroke-dasharray:none"
     transform="matrix(0.66886749,0,0,0.66886749,-224.02926,7.4845178)"><tspan
       x="411.28516"
       y="109.70631"
       id="tspan6">1</tspan></text><text
     xml:space="preserve"
     id="text16-2-9-6"
     style="font-style:normal;font-variant:normal;font-weight:bold;font-stretch:normal;font-size:85.3333px;font-family:'Century Gothic';-inkscape-font-specification:'Century Gothic Bold';text-align:start;writing-mode:lr-tb;direction:ltr;white-space:pre;shape-inside:url(#rect16-3-7-9);fill:#000000;stroke:none;stroke-width:14.276;stroke-linecap:round;stroke-dasharray:none"
     transform="matrix(0.6569094,0,0,0.6569094,-152.82762,-128.04529)"><tspan
       x="433.96875"
       y="281.62233"
       id="tspan7">0</tspan></text><text
     xml:space="preserve"
     id="text16-2-9-6-1-2"
     style="font-style:normal;font-variant:normal;font-weight:bold;font-stretch:normal;font-size:85.3333px;font-family:'Century Gothic';-inkscape-font-specification:'Century Gothic Bold';text-align:start;writing-mode:lr-tb;direction:ltr;white-space:pre;shape-inside:url(#rect16-3-7-9-6-5);fill:#000000;stroke:#ffffff;stroke-width:16.8638;stroke-linecap:round;stroke-dasharray:none"
     transform="matrix(0.6569094,0,0,0.6569094,-12.738172,-130.80757)"><tspan
       x="433.96875"
       y="281.62233"
       id="tspan8">0</tspan></text><text
     xml:space="preserve"
     id="text16-2-9-6-14"
     style="font-style:normal;font-variant:normal;font-weight:bold;font-stretch:normal;font-size:85.3333px;font-family:'Century Gothic';-inkscape-font-specification:'Century Gothic Bold';text-align:start;writing-mode:lr-tb;direction:ltr;white-space:pre;shape-inside:url(#rect16-3-7-9-4);fill:#000000;stroke:none;stroke-width:14.276;stroke-linecap:round;stroke-dasharray:none"
     transform="matrix(0.6569094,0,0,0.6569094,-12.779652,-130.15899)"><tspan
       x="433.96875"
       y="281.62233"
       id="tspan9">0</tspan></text><text
     xml:space="preserve"
     id="text16-2-9-6-1-2-7"
     style="font-style:normal;font-variant:normal;font-weight:bold;font-stretch:normal;font-size:85.3333px;font-family:'Century Gothic';-inkscape-font-specification:'Century Gothic Bold';text-align:start;writing-mode:lr-tb;direction:ltr;white-space:pre;shape-inside:url(#rect16-3-7-9-6-5-1);fill:#000000;stroke:#ffffff;stroke-width:16.8638;stroke-linecap:round;stroke-dasharray:none"
     transform="matrix(0.6569094,0,0,0.6569094,77.849033,-85.339018)"><tspan
       x="433.96875"
       y="281.62233"
       id="tspan10">0</tspan></text><text
     xml:space="preserve"
     id="text16-2-9-6-14-7"
     style="font-style:normal;font-variant:normal;font-weight:bold;font-stretch:normal;font-size:85.3333px;font-family:'Century Gothic';-inkscape-font-specification:'Century Gothic Bold';text-align:start;writing-mode:lr-tb;direction:ltr;white-space:pre;shape-inside:url(#rect16-3-7-9-4-7);fill:#000000;stroke:none;stroke-width:14.276;stroke-linecap:round;stroke-dasharray:none"
     transform="matrix(0.6569094,0,0,0.6569094,77.807553,-84.690438)"><tspan
       x="433.96875"
       y="281.62233"
       id="tspan11">0</tspan></text><text
     xml:space="preserve"
     id="text16-2-9-6-1-2-7-8"
     style="font-style:normal;font-variant:normal;font-weight:bold;font-stretch:normal;font-size:85.3333px;font-family:'Century Gothic';-inkscape-font-specification:'Century Gothic Bold';text-align:start;writing-mode:lr-tb;direction:ltr;white-space:pre;shape-inside:url(#rect16-3-7-9-6-5-1-9);fill:#000000;stroke:#ffffff;stroke-width:16.8638;stroke-linecap:round;stroke-dasharray:none"
     transform="matrix(0.6569094,0,0,0.6569094,168.81834,-26.354362)"><tspan
       x="433.96875"
       y="281.62233"
       id="tspan12">0</tspan></text><text
     xml:space="preserve"
     id="text16-2-9-6-14-7-1"
     style="font-style:normal;font-variant:normal;font-weight:bold;font-stretch:normal;font-size:85.3333px;font-family:'Century Gothic';-inkscape-font-specification:'Century Gothic Bold';text-align:start;writing-mode:lr-tb;direction:ltr;white-space:pre;shape-inside:url(#rect16-3-7-9-4-7-5);fill:#000000;stroke:none;stroke-width:14.276;stroke-linecap:round;stroke-dasharray:none"
     transform="matrix(0.6569094,0,0,0.6569094,168.77686,-25.705782)"><tspan
       x="433.96875"
       y="281.62233"
       id="tspan13">0</tspan></text><text
     xml:space="preserve"
     id="text16-2-9-6-1-2-7-8-3"
     style="font-style:normal;font-variant:normal;font-weight:bold;font-stretch:normal;font-size:85.3333px;font-family:'Century Gothic';-inkscape-font-specification:'Century Gothic Bold';text-align:start;writing-mode:lr-tb;direction:ltr;white-space:pre;shape-inside:url(#rect16-3-7-9-6-5-1-9-6);fill:#000000;stroke:#ffffff;stroke-width:16.8638;stroke-linecap:round;stroke-dasharray:none"
     transform="matrix(0.6569094,0,0,0.6569094,158.50323,65.400118)"><tspan
       x="433.96875"
       y="281.62233"
       id="tspan14">0</tspan></text><text
     xml:space="preserve"
     id="text16-2-9-6-14-7-1-0"
     style="font-style:normal;font-variant:normal;font-weight:bold;font-stretch:normal;font-size:85.3333px;font-family:'Century Gothic';-inkscape-font-specification:'Century Gothic Bold';text-align:start;writing-mode:lr-tb;direction:ltr;white-space:pre;shape-inside:url(#rect16-3-7-9-4-7-5-6);fill:#000000;stroke:none;stroke-width:14.276;stroke-linecap:round;stroke-dasharray:none"
     transform="matrix(0.6569094,0,0,0.6569094,158.46175,66.048698)"><tspan
       x="433.96875"
       y="281.62233"
       id="tspan15">0</tspan></text><path
     style="fill:none;stroke:#ffffff;stroke-width:15.3;stroke-linecap:round;stroke-dasharray:none"
     d="m 123.13693,111.52553 17.311,-1.19386 -0.59693,37.60665"
     id="path19-4" /><text
     xml:space="preserve"
     id="text14-79-3-8-9"
     style="font-style:normal;font-variant:normal;font-weight:bold;font-stretch:normal;font-size:85.3333px;font-family:'Century Gothic';-inkscape-font-specification:'Century Gothic Bold';text-align:start;writing-mode:lr-tb;direction:ltr;white-space:pre;shape-inside:url(#rect15-9-1-1-1);fill:#000000;stroke:none;stroke-width:14.276;stroke-linecap:round;stroke-dasharray:none"
     transform="matrix(0.66886749,0,0,0.66886749,-152.82533,74.240221)"><tspan
       x="411.28516"
       y="109.70631"
       id="tspan16">1</tspan></text><path
     style="fill:none;stroke:#ffffff;stroke-width:15.3;stroke-linecap:round;stroke-dasharray:none"
     d="m 413.11141,50.868729 17.311,-1.19386 -0.59693,37.60665"
     id="path19-4-9" /><text
     xml:space="preserve"
     id="text14-79-3-8-9-1"
     style="font-style:normal;font-variant:normal;font-weight:bold;font-stretch:normal;font-size:85.3333px;font-family:'Century Gothic';-inkscape-font-specification:'Century Gothic Bold';text-align:start;writing-mode:lr-tb;direction:ltr;white-space:pre;shape-inside:url(#rect15-9-1-1-1-8);fill:#000000;stroke:none;stroke-width:14.276;stroke-linecap:round;stroke-dasharray:none"
     transform="matrix(0.66886749,0,0,0.66886749,137.14915,13.58342)"><tspan
       x="411.28516"
       y="109.70631"
       id="tspan17">1</tspan></text><path
     style="fill:none;stroke:#ffffff;stroke-width:15.3;stroke-linecap:round;stroke-dasharray:none"
     d="m 464.30269,24.108631 17.311,-1.19386 -0.59693,37.606645"
     id="path19-4-9-4" /><text
     xml:space="preserve"
     id="text14-79-3-8-9-1-7"
     style="font-style:normal;font-variant:normal;font-weight:bold;font-stretch:normal;font-size:85.3333px;font-family:'Century Gothic';-inkscape-font-specification:'Century Gothic Bold';text-align:start;writing-mode:lr-tb;direction:ltr;white-space:pre;shape-inside:url(#rect15-9-1-1-1-8-0);fill:#000000;stroke:none;stroke-width:14.276;stroke-linecap:round;stroke-dasharray:none"
     transform="matrix(0.66886749,0,0,0.66886749,188.34043,-13.176678)"><tspan
       x="411.28516"
       y="109.70631"
       id="tspan18">1</tspan></text><text
     xml:space="preserve"
     id="text16-2-9-6-1-2-7-8-4"
     style="font-style:normal;font-variant:normal;font-weight:bold;font-stretch:normal;font-size:85.3333px;font-family:'Century Gothic';-inkscape-font-specification:'Century Gothic Bold';text-align:start;writing-mode:lr-tb;direction:ltr;white-space:pre;shape-inside:url(#rect16-3-7-9-6-5-1-9-2);fill:#000000;stroke:#ffffff;stroke-width:16.8638;stroke-linecap:round;stroke-dasharray:none"
     transform="matrix(0.6569094,0,0,0.6569094,-256.74594,295.60068)"><tspan
       x="433.96875"
       y="281.62233"
       id="tspan19">0</tspan></text><text
     xml:space="preserve"
     id="text16-2-9-6-14-7-1-6"
     style="font-style:normal;font-variant:normal;font-weight:bold;font-stretch:normal;font-size:85.3333px;font-family:'Century Gothic';-inkscape-font-specification:'Century Gothic Bold';text-align:start;writing-mode:lr-tb;direction:ltr;white-space:pre;shape-inside:url(#rect16-3-7-9-4-7-5-0);fill:#000000;stroke:none;stroke-width:14.276;stroke-linecap:round;stroke-dasharray:none"
     transform="matrix(0.6569094,0,0,0.6569094,-256.78742,296.24926)"><tspan
       x="433.96875"
       y="281.62233"
       id="tspan20">0</tspan></text><text
     xml:space="preserve"
     id="text16-2-9-6-1-2-7-8-4-8"
     style="font-style:normal;font-variant:normal;font-weight:bold;font-stretch:normal;font-size:85.3333px;font-family:'Century Gothic';-inkscape-font-specification:'Century Gothic Bold';text-align:start;writing-mode:lr-tb;direction:ltr;white-space:pre;shape-inside:url(#rect16-3-7-9-6-5-1-9-2-3);fill:#000000;stroke:#ffffff;stroke-width:16.8638;stroke-linecap:round;stroke-dasharray:none"
     transform="matrix(0.6569094,0,0,0.6569094,-163.1607,165.23436)"><tspan
       x="433.96875"
       y="281.62233"
       id="tspan21">0</tspan></text><text
     xml:space="preserve"
     id="text16-2-9-6-14-7-1-6-7"
     style="font-style:normal;font-variant:normal;font-weight:bold;font-stretch:normal;font-size:85.3333px;font-family:'Century Gothic';-inkscape-font-specification:'Century Gothic Bold';text-align:start;writing-mode:lr-tb;direction:ltr;white-space:pre;shape-inside:url(#rect16-3-7-9-4-7-5-0-9);fill:#000000;stroke:none;stroke-width:14.276;stroke-linecap:round;stroke-dasharray:none"
     transform="matrix(0.6569094,0,0,0.6569094,-163.20218,165.88294)"><tspan
       x="433.96875"
       y="281.62233"
       id="tspan22">0</tspan></text><text
     xml:space="preserve"
     id="text16-2-9-6-1-2-7-8-4-8-3"
     style="font-style:normal;font-variant:normal;font-weight:bold;font-stretch:normal;font-size:85.3333px;font-family:'Century Gothic';-inkscape-font-specification:'Century Gothic Bold';text-align:start;writing-mode:lr-tb;direction:ltr;white-space:pre;shape-inside:url(#rect16-3-7-9-6-5-1-9-2-3-2);fill:#000000;stroke:#ffffff;stroke-width:16.8638;stroke-linecap:round;stroke-dasharray:none"
     transform="matrix(0.6569094,0,0,0.6569094,-141.49677,304.68043)"><tspan
       x="433.96875"
       y="281.62233"
       id="tspan23">0</tspan></text><text
     xml:space="preserve"
     id="text16-2-9-6-14-7-1-6-7-7"
     style="font-style:normal;font-variant:normal;font-weight:bold;font-stretch:normal;font-size:85.3333px;font-family:'Century Gothic';-inkscape-font-specification:'Century Gothic Bold';text-align:start;writing-mode:lr-tb;direction:ltr;white-space:pre;shape-inside:url(#rect16-3-7-9-4-7-5-0-9-5);fill:#000000;stroke:none;stroke-width:14.276;stroke-linecap:round;stroke-dasharray:none"
     transform="matrix(0.6569094,0,0,0.6569094,-141.53825,305.32901)"><tspan
       x="433.96875"
       y="281.62233"
       id="tspan24">0</tspan></text><path
     style="fill:none;stroke:#ffffff;stroke-width:15.3;stroke-linecap:round;stroke-dasharray:none"
     d="m 47.095445,306.66621 17.311,-1.19386 -0.59693,37.60665"
     id="path19-4-9-4-9" /><text
     xml:space="preserve"
     id="text14-79-3-8-9-1-7-8"
     style="font-style:normal;font-variant:normal;font-weight:bold;font-stretch:normal;font-size:85.3333px;font-family:'Century Gothic';-inkscape-font-specification:'Century Gothic Bold';text-align:start;writing-mode:lr-tb;direction:ltr;white-space:pre;shape-inside:url(#rect15-9-1-1-1-8-0-1);fill:#000000;stroke:none;stroke-width:14.276;stroke-linecap:round;stroke-dasharray:none"
     transform="matrix(0.66886749,0,0,0.66886749,-228.86681,269.3809)"><tspan
       x="411.28516"
       y="109.70631"
       id="tspan25">1</tspan></text><path
     style="fill:none;stroke:#ffffff;stroke-width:15.3;stroke-linecap:round;stroke-dasharray:none"
     d="m 216.50066,443.46414 17.311,-1.19386 -0.59693,37.60665"
     id="path19-4-9-4-9-7" /><text
     xml:space="preserve"
     id="text14-79-3-8-9-1-7-8-1"
     style="font-style:normal;font-variant:normal;font-weight:bold;font-stretch:normal;font-size:85.3333px;font-family:'Century Gothic';-inkscape-font-specification:'Century Gothic Bold';text-align:start;writing-mode:lr-tb;direction:ltr;white-space:pre;shape-inside:url(#rect15-9-1-1-1-8-0-1-8);fill:#000000;stroke:none;stroke-width:14.276;stroke-linecap:round;stroke-dasharray:none"
     transform="matrix(0.66886749,0,0,0.66886749,-59.461605,406.17883)"><tspan
       x="411.28516"
       y="109.70631"
       id="tspan26">1</tspan></text><path
     style="fill:none;stroke:#ffffff;stroke-width:15.3;stroke-linecap:round;stroke-dasharray:none"
     d="m 176.32927,380.34852 17.311,-1.19386 -0.59693,37.60665"
     id="path19-4-9-4-9-7-5" /><text
     xml:space="preserve"
     id="text14-79-3-8-9-1-7-8-1-1"
     style="font-style:normal;font-variant:normal;font-weight:bold;font-stretch:normal;font-size:85.3333px;font-family:'Century Gothic';-inkscape-font-specification:'Century Gothic Bold';text-align:start;writing-mode:lr-tb;direction:ltr;white-space:pre;shape-inside:url(#rect15-9-1-1-1-8-0-1-8-9);fill:#000000;stroke:none;stroke-width:14.276;stroke-linecap:round;stroke-dasharray:none"
     transform="matrix(0.66886749,0,0,0.66886749,-99.632989,343.06321)"><tspan
       x="411.28516"
       y="109.70631"
       id="tspan27">1</tspan></text><path
     style="fill:none;stroke:#ffffff;stroke-width:15.3;stroke-linecap:round;stroke-dasharray:none"
     d="m 76.809066,403.56183 17.311001,-1.19386 -0.59693,37.60665"
     id="path19-4-9-4-9-7-5-4" /><text
     xml:space="preserve"
     id="text14-79-3-8-9-1-7-8-1-1-8"
     style="font-style:normal;font-variant:normal;font-weight:bold;font-stretch:normal;font-size:85.3333px;font-family:'Century Gothic';-inkscape-font-specification:'Century Gothic Bold';text-align:start;writing-mode:lr-tb;direction:ltr;white-space:pre;shape-inside:url(#rect15-9-1-1-1-8-0-1-8-9-8);fill:#000000;stroke:none;stroke-width:14.276;stroke-linecap:round;stroke-dasharray:none"
     transform="matrix(0.66886749,0,0,0.66886749,-199.15319,366.27652)"><tspan
       x="411.28516"
       y="109.70631"
       id="tspan28">1</tspan></text><path
     style="fill:none;stroke:#ffffff;stroke-width:15.3;stroke-linecap:round;stroke-dasharray:none"
     d="m 389.29297,145.09738 17.311,-1.19386 -0.59693,37.60665"
     id="path19-4-7" /><text
     xml:space="preserve"
     id="text14-79-3-8-9-6"
     style="font-style:normal;font-variant:normal;font-weight:bold;font-stretch:normal;font-size:85.3333px;font-family:'Century Gothic';-inkscape-font-specification:'Century Gothic Bold';text-align:start;writing-mode:lr-tb;direction:ltr;white-space:pre;shape-inside:url(#rect15-9-1-1-1-84);display:inline;fill:#000000;stroke:none;stroke-width:14.276;stroke-linecap:round;stroke-dasharray:none"
     transform="matrix(0.66886749,0,0,0.66886749,113.33071,107.81208)"><tspan
       x="411.28516"
       y="109.70631"
       id="tspan29">1</tspan></text><path
     style="fill:none;stroke:#ffffff;stroke-width:15.3;stroke-linecap:round;stroke-dasharray:none"
     d="m 469.75179,291.64266 17.311,-1.19386 -0.59693,37.60665"
     id="path19-4-0" /><text
     xml:space="preserve"
     id="text14-79-3-8-9-9"
     style="font-style:normal;font-variant:normal;font-weight:bold;font-stretch:normal;font-size:85.3333px;font-family:'Century Gothic';-inkscape-font-specification:'Century Gothic Bold';text-align:start;writing-mode:lr-tb;direction:ltr;white-space:pre;shape-inside:url(#rect15-9-1-1-1-4);display:inline;fill:#000000;stroke:none;stroke-width:14.276;stroke-linecap:round;stroke-dasharray:none"
     transform="matrix(0.66886749,0,0,0.66886749,193.78953,254.35735)"><tspan
       x="411.28516"
       y="109.70631"
       id="tspan30">1</tspan></text><path
     style="fill:#ffffff;stroke:none;stroke-width:6.6128;stroke-linecap:round;stroke-dasharray:none"
     d="m 65.656988,175.64696 -4.888552,-5.22315 3.193153,-2.82884 c 1.756234,-1.55586 3.697112,-2.8318 4.313062,-2.83542 0.615951,-0.004 3.167831,1.99747 5.670845,4.44686 l 4.550935,4.45345 -3.562901,3.60512 c -1.959595,1.98282 -3.748544,3.60512 -3.975444,3.60512 -0.2269,0 -2.612393,-2.35041 -5.301098,-5.22314 z"
     id="path21" /><path
     style="fill:#ffffff;stroke:none;stroke-width:6.6128;stroke-linecap:round;stroke-dasharray:none"
     d="m 52.18647,190.71661 -7.715108,-7.32389 1.492328,-1.66784 c 0.82078,-0.91732 2.163875,-2.28046 2.984655,-3.02919 l 1.492327,-1.36134 5.731543,5.87231 c 4.985588,5.10803 5.775353,6.19893 6.068147,8.38187 0.266165,1.98441 0.05668,2.92206 -1.00109,4.48077 l -1.337694,1.9712 z"
     id="path22" /><path
     style="fill:#ffffff;stroke:none;stroke-width:6.6128;stroke-linecap:round;stroke-dasharray:none"
     d="m 41.811729,207.37917 c -3.624778,-3.50199 -7.154528,-7.27986 -7.843891,-8.39527 -1.172558,-1.89724 -1.191393,-2.12264 -0.292061,-3.49519 2.355783,-3.59538 5.79719,-2.22177 14.243585,5.68522 6.571914,6.15222 6.945926,6.7936 5.109411,8.76201 -0.766831,0.8219 -2.121507,2.01549 -3.01039,2.65242 l -1.616151,1.15806 z"
     id="path23" /><path
     style="fill:#ffffff;stroke:none;stroke-width:6.6128;stroke-linecap:round;stroke-dasharray:none"
     d="m 78.328206,203.17185 c -2.29485,-1.1477 -4.176047,-3.58103 -4.667261,-6.0371 -0.293936,-1.46968 0.117229,-2.29853 2.615956,-5.27338 5.091758,-6.06199 13.702547,-14.09293 14.877462,-13.87563 0.671567,0.12421 2.185459,2.39208 4.056137,6.07625 l 2.984655,5.87807 -5.670845,5.37882 c -9.299335,8.82046 -10.705861,9.59852 -14.196104,7.85297 z"
     id="path24" /><path
     style="fill:#ffffff;stroke:none;stroke-width:6.6128;stroke-linecap:round;stroke-dasharray:none"
     d="m 71.937482,233.03344 c -7.036629,-1.70106 -17.019827,-7.75682 -17.019827,-10.32415 0,-0.58986 1.237697,-1.8586 2.835422,-2.90652 1.559483,-1.02283 4.531417,-3.35133 6.604299,-5.17444 2.072883,-1.82311 3.880624,-3.31474 4.017205,-3.31474 0.13658,0 1.395395,0.47008 2.797365,1.04463 1.709211,0.70045 4.122393,1.04082 7.324485,1.03308 5.800148,-0.014 8.384086,-1.20529 15.452963,-7.12433 2.589513,-2.16829 4.788269,-3.86228 4.886125,-3.76443 0.397566,0.39757 -1.007057,9.30297 -1.883896,11.94402 -1.532423,4.61568 -11.366661,16.68715 -15.21624,18.67785 -2.071963,1.07145 -5.105926,1.04328 -9.797901,-0.091 z"
     id="path25" /><path
     id="path5"
     style="fill:#000000;stroke:#ffffff;stroke-width:0;stroke-dasharray:none"
     d="m 275.35152,62.879071 c -3.14144,0.125018 -6.15185,0.418952 -8.86329,0.894532 -15.16435,2.659761 -29.20164,9.489677 -39.81836,19.375 -4.99782,4.653524 -6.69156,5.261139 -14.00781,5.021484 -5.75002,-0.188358 -6.30018,0.04388 -5.87304,2.472656 1.13639,6.462886 5.69509,12.107477 11.10546,13.751957 2.00105,0.60826 10.11783,0.73785 34.92969,0.55664 l 32.32227,-0.23633 2.77734,1.41602 c 4.044,2.06309 5.93807,3.60217 8.04297,6.5332 3.25163,4.52782 3.76177,7.75505 4.21875,26.70117 l 0.41602,17.24414 -1.4336,1.80469 c -1.46467,1.84321 -6.9163,4.76389 -8.91211,4.77539 -0.9097,0.005 -1.02241,-0.30463 -0.62695,-1.71875 0.26466,-0.94851 0.38946,-9.89564 0.27539,-19.88281 -0.23056,-20.18405 -0.29639,-20.52687 -4.38477,-23.23242 -4.3692,-2.89142 -7.05975,-3.05471 -50.59375,-3.09571 -40.49972,-0.0382 -40.7819,-0.0309 -43.69726,1.31641 -5.19897,2.40266 -5.25159,2.6593 -5,24.03515 0.23646,20.09001 0.23283,20.07294 3.96094,23.64844 3.28998,3.15528 7.19649,4.55733 13.93554,5 l 5.95117,0.39063 0.36914,2.25976 c 0.46416,2.84166 1.55718,17.07382 1.57618,20.51758 l 0.0137,2.58203 -4.85938,1.73828 c -8.16519,2.9218 -19.59765,9.28751 -19.59765,10.91211 0,0.77413 5.20093,6.48168 23.19531,25.45703 23.17991,24.44357 33.81198,35.93695 31.36328,33.9043 -1.2072,-1.00207 -13.20084,-10.99568 -26.65234,-22.20898 -25.2138,-21.01848 -33.67311,-27.68555 -35.125,-27.68555 -0.46144,0 -2.90498,0.82675 -5.43164,1.83789 -2.52666,1.01113 -8.54625,3.00746 -13.375,4.4375 -4.82875,1.43005 -10.98336,3.25808 -13.67774,4.06055 l -4.89843,1.45898 -7.64258,-4.74414 c -4.20384,-2.6091 -9.05474,-5.6159 -10.7793,-6.68164 -8.2852,-5.12014 -12.91335,-8.72407 -12.48047,-9.71875 1.61739,-3.7165 2.27071,-10.11964 1.78711,-15.13086 -0.85076,-2.27922 -1.70226,-4.55814 -2.25586,-6.92187 -0.13035,-0.55658 -0.22646,-1.1193 -0.29883,-1.68555 -2.77833,-6.20705 -7.45181,-15.10513 -9.39844,-17.5 -2.78402,-3.42509 -6.475661,-4.86643 -11.359371,-4.4375 l -3.621094,0.31641 -5.396485,-5.2461 c -9.27136,-9.01323 -14.602606,-9.96591 -22.90625,-4.09375 -2.086826,1.47576 -3.760748,2.14363 -5.552734,2.21485 -4.213188,0.16757 -8.959712,4.57947 -12.259766,11.39648 -0.770479,1.59158 -1.777483,2.77539 -2.361328,2.77539 -1.602724,0 -7.409276,6.57713 -9.34375,10.58398 -0.989911,2.05039 -2.489457,4.06766 -3.4375,4.625 -2.501826,1.47077 -5.307932,5.71604 -6.177734,9.3418 -1.660242,6.92064 1.30457,12.83477 12.267578,24.4707 15.204821,16.13809 20.724805,20.72163 29.142578,24.19922 4.357613,1.80024 4.755632,2.12287 5.41211,4.375 2.170497,7.44618 5.970156,11.1468 20.09375,19.57617 17.465236,10.42386 38.069606,22.10034 40.576176,22.99415 4.9045,1.74888 32.86282,0.76671 56.44922,-1.98438 4.44611,-0.5186 8.11464,-0.86668 8.15234,-0.77148 2.24792,5.67407 18.23829,35.46481 27.97461,52.11914 3.10434,5.3101 6.18907,11.03377 6.85547,12.71875 1.91891,4.852 4.95152,13.07199 7.95508,21.56445 3.34675,9.4628 3.21929,9.19662 8.65039,18.18555 9.34488,15.46654 24.46008,37.13426 29.56445,42.38086 3.8556,3.96301 4.02031,4.00353 25.36328,6.21875 8.45031,0.87708 16.25931,1.73808 17.35352,1.91406 1.81441,0.29182 2.66332,1.4094 9.64062,12.6875 4.20772,6.80137 8.53241,13.30671 9.61133,14.45703 4.60669,4.91155 11.12749,6.71654 14.67969,4.06445 3.41694,-2.55112 4.10035,-4.14531 4.00195,-9.32226 -0.10364,-5.45256 -2.36828,-21.86321 -3.24219,-23.4961 -0.31737,-0.593 -6.57379,-6.83136 -13.90429,-13.86132 -33.88074,-32.49167 -43.79777,-42.13775 -43.56055,-42.375 0.14072,-0.1407 3.18193,0.51941 6.75781,1.46679 l 6.50196,1.72266 9.40624,9.05859 c 5.17366,4.98237 19.99573,19.38948 32.9375,32.01563 12.94181,12.62614 27.61583,26.90847 32.60938,31.73828 l 9.08008,8.78125 6.21484,14.01367 c 5.25407,11.84501 6.67237,14.48115 9.15625,17.03125 2.20878,2.26767 3.6231,3.1582 5.69727,3.58203 h 0.002 c 7.62103,1.55483 13.65323,-3.52558 15.08203,-12.70312 1.27296,-8.17648 -0.53499,-17.33399 -8.37109,-42.41797 -1.83965,-5.88887 -1.9999,-6.1502 -5.4961,-8.86524 -3.72096,-2.88959 -6.76305,-7.39891 -22.5,-33.35547 -6.00644,-9.90705 -20.31804,-37.78098 -22.9375,-44.67578 l -1.72461,-4.54101 2.76563,-3.29883 c 4.1407,-4.93722 5.49219,-7.09159 5.49219,-8.75586 0,-0.82673 -1.58061,-4.17075 -3.51172,-7.42969 -6.96818,-11.75945 -10.9162,-20.7717 -10.9082,-24.9082 0.002,-1.28554 0.88134,-5.58236 1.95312,-9.54883 1.07177,-3.96646 2.24562,-8.41108 2.60938,-9.87695 0.36378,-1.46587 0.88788,-2.66602 1.16406,-2.66602 0.27617,0 1.56901,0.53882 2.87304,1.19727 1.30406,0.65847 5.61556,2.67454 9.58204,4.48047 14.90637,6.78686 19.77482,9.17819 20.45703,10.04687 0.38634,0.49193 4.16811,8.51359 8.40429,17.82617 4.29022,9.43138 8.4795,17.76458 9.45704,18.8125 l 1.75586,1.88086 -2.6543,4.39063 c -1.45923,2.41438 -3.69329,5.95852 -4.9668,7.87695 -3.7435,5.63927 -4.43633,7.8194 -3.95898,12.47852 0.91468,8.92782 7.37029,16.95703 13.63281,16.95703 2.08653,0 2.51455,0.24357 3.03125,1.72461 1.25611,3.60057 2.32209,4.91215 5.34375,6.57031 2.34448,1.28654 4.00004,1.71311 6.68164,1.72461 3.21448,0.0132 4.6491,-0.51463 14.62891,-5.38086 8.66887,-4.22701 11.31586,-5.8084 12.22461,-7.30273 2.19411,-3.60793 7.7035,-20.41412 7.32031,-22.33008 -0.19668,-0.98335 -1.32014,-3.45271 -2.4961,-5.48633 -1.17596,-2.03362 -2.97881,-5.24948 -4.00586,-7.14648 -1.02703,-1.89701 -3.07123,-5.64124 -4.54296,-8.32032 -2.62506,-4.77853 -2.65892,-4.91462 -1.76172,-7.16406 0.86222,-2.16176 0.81825,-2.50933 -0.77735,-6.10156 -0.93086,-2.0957 -5.46723,-12.69262 -10.08203,-23.54883 l -8.39062,-19.74023 -9.77735,-10.08204 c -5.37683,-5.54594 -12.86312,-13.76025 -16.63671,-18.25195 -3.7736,-4.49169 -10.47717,-12.4294 -14.89649,-17.64062 l -8.03516,-9.47461 -4.85546,-1.85547 c -5.69647,-2.17527 -14.29701,-4.67877 -27.36133,-7.9668 -5.17364,-1.30211 -9.60524,-2.53614 -9.84766,-2.74219 -0.24243,-0.20606 0.33956,-1.6442 1.29297,-3.19531 0.95341,-1.55111 3.19669,-5.54977 4.98437,-8.88672 l 3.25,-6.06836 -7.18945,-3.49609 c -3.95453,-1.92293 -7.30472,-3.49609 -7.44336,-3.49609 -0.13864,0 -1.59779,-0.59597 -3.24414,-1.32422 l -2.99414,-1.32422 3.36133,-1.93946 c 1.84872,-1.06734 5.34662,-3.83189 7.77344,-6.14257 7.46077,-7.10365 11.05877,-14.43703 12.64453,-25.77344 0.61879,-4.42349 0.83699,-8.60949 0.58203,-11.15625 -0.45438,-4.53852 -2.71982,-10.10357 -5.14844,-12.64258 -1.55124,-1.62178 -1.58314,-1.82879 -1.16211,-7.52539 0.54354,-7.35428 -0.56231,-12.52139 -4.15234,-19.42187 -4.3061,-8.276861 -11.47417,-14.193412 -18.57031,-15.32813 -2.22545,-0.355876 -2.5908,-0.666523 -3.20508,-2.716797 -2.28522,-7.62741 -11.88012,-15.710335 -23.07813,-19.441406 -7.18575,-2.394222 -17.78077,-3.546921 -27.20507,-3.171876 z m 40.1582,70.841799 h 3.96484 c 5.82079,0 16.5161,1.74776 19.25781,3.14648 4.27493,2.18091 6.70706,7.49435 5.89844,12.88672 -0.2306,1.53764 -0.59752,2.90582 -0.8164,3.04102 -0.21888,0.1352 -0.96252,-1.20784 -1.65235,-2.98438 -0.96544,-2.48635 -1.7597,-3.47551 -3.44922,-4.29883 -3.96738,-1.93324 -8.38306,-1.13594 -12.9375,2.3379 -1.72258,1.31388 -2.7119,1.54882 -6.52929,1.54882 -3.84458,0 -4.44249,-0.14446 -4.11719,-0.99218 0.20936,-0.54557 0.38086,-4.07209 0.38086,-7.83789 z m 16.74609,21.07227 c 0.46327,-0.0595 0.83133,0.005 1.07227,0.20507 0.43809,0.36364 0.94965,0.50739 1.13672,0.32032 0.67327,-0.67326 1.73842,3.74578 1.73242,7.18554 -0.007,4.10527 -2.03542,9.0323 -4.75781,11.55664 -1.08369,1.00486 -3.10654,1.92015 -5.21289,2.35743 -5.50221,1.14223 -6.249,1.67882 -7.2754,5.22656 -0.50688,1.75202 -2.18838,9.39439 -3.73437,16.98242 -1.54601,7.58803 -3.12535,14.92506 -3.51172,16.30469 -1.55778,5.56252 -12.01467,23.74831 -19.99219,34.77148 -13.48408,18.63205 -13.60614,18.93621 -14.83984,36.71289 -0.50291,7.24643 -1.12343,15.71418 -1.37891,18.81836 -0.45809,5.5657 -0.47177,5.60181 -0.94336,2.50977 -0.98463,-6.45607 -1.7163,-12.90703 -2.89062,-25.48633 -1.33732,-14.32534 -1.86732,-16.2353 -7.63281,-27.50586 -8.06188,-15.75958 -9.55062,-19.10454 -8.00391,-17.98438 0.81243,0.58837 2.95535,2.09154 4.76172,3.33985 2.50774,1.73299 4.30083,3.84409 7.58203,8.92773 2.36355,3.66187 4.58031,7.50434 4.92578,8.53906 0.62071,1.85918 0.63325,1.84473 1.0918,-1.2539 0.86753,-5.86228 2.86602,-15.43704 3.44336,-16.5 0.31636,-0.58248 2.36254,-2.75281 4.54883,-4.82227 5.44158,-5.15082 11.39107,-12.17784 15.10351,-17.84179 2.60046,-3.96746 9.87695,-18.04077 9.87695,-19.10352 0,-0.17855 -2.47031,1.6646 -5.48828,4.0957 -10.70295,8.6217 -23.13142,15.71019 -31.17383,17.7793 -7.50684,1.93134 -29.90157,0.92164 -35.14257,-1.58398 -4.78724,-2.28871 -7.37323,-8.20613 -10.3125,-23.60157 -1.50162,-7.86526 -3.79688,-23.03834 -3.79688,-25.09375 0,-0.2088 5.99682,-0.19292 13.32617,0.0332 7.32934,0.22621 23.06152,0.58649 34.96094,0.80078 29.50549,0.53134 33.23859,-0.0848 38.80469,-6.40821 1.42165,-1.61507 2.58398,-3.1802 2.58398,-3.47656 0,-0.29634 2.95295,-0.53906 6.5625,-0.53906 6.32333,0 6.6383,-0.0641 8.62305,-1.79297 2.30678,-2.00939 4.56135,-3.29419 5.95117,-3.47265 z M 68.265576,165.70329 c 0.282006,0 2.331952,1.83739 4.55664,4.08203 l 4.044922,4.08008 -2.839844,2.83984 -2.839844,2.8418 -4.330078,-4.48633 -4.330078,-4.48437 2.613282,-2.43555 c 1.436745,-1.34019 2.842992,-2.4375 3.125,-2.4375 z m -17.789063,12.54297 c 0.0707,0 2.467899,2.67271 5.328125,5.93945 l 5.201172,5.93946 0.105469,4.09375 c 0.05798,2.25204 0.100824,4.09396 0.0957,4.09375 -0.0054,-2.1e-4 -3.363655,-3.36272 -7.462891,-7.47266 l -7.453125,-7.47266 2.027344,-2.56054 c 1.115651,-1.40863 2.087473,-2.56055 2.158203,-2.56055 z m 40.53125,0.62695 c 0.208697,0 1.568054,2.46205 3.021484,5.47266 l 2.642579,5.47461 -2.050782,1.84961 c -1.127708,1.01767 -4.204439,3.91637 -6.83789,6.4414 -3.84384,3.6856 -5.170275,4.5918 -6.730469,4.5918 -2.514827,0 -5.601375,-2.77524 -6.125,-5.50781 -0.376944,-1.9671 -0.03806,-2.41513 7.654297,-10.18945 4.425837,-4.47301 8.217095,-8.13282 8.425781,-8.13282 z m 154.853517,7.5293 c -7.41829,-0.51551 -13.43452,1.78003 -10.15234,6.18555 1.0943,1.46884 1.80456,1.6984 6.49414,2.10547 2.89595,0.25139 7.66396,0.85472 10.5957,1.33984 7.3703,1.21962 9.36737,1.2282 9.82227,0.043 0.56507,-1.47255 -0.94237,-3.80012 -3.59961,-5.5586 -3.75474,-2.48476 -8.70919,-3.80592 -13.16016,-4.11523 z m -209.226564,8.2832 c 1.943892,-0.26563 4.955156,2.17542 12.8125,9.50977 3.202971,2.98949 3.809209,3.85334 3.210938,4.57422 -0.405798,0.48896 -1.499274,1.43375 -2.431641,2.09765 l -1.695313,1.20703 -4.972656,-4.61914 c -2.734587,-2.54049 -6.049067,-5.93479 -7.365234,-7.54101 -2.308168,-2.8168 -2.35396,-2.96373 -1.28711,-4.14258 0.550835,-0.60867 1.080552,-0.99739 1.728516,-1.08594 z m 60.791016,10.29102 -0.458985,4.03711 c -0.684351,6.03635 -2.773687,9.76763 -9.603515,17.14062 -5.990224,6.46662 -6.121531,6.56174 -8.902344,6.55274 -4.026386,-0.0121 -9.617997,-1.49333 -13.955078,-3.69727 -3.719539,-1.89014 -8.621094,-5.43996 -8.621094,-6.24414 0,-0.23183 0.694846,-0.73661 1.542969,-1.12305 0.848123,-0.38642 3.681272,-2.56821 6.294922,-4.84765 l 4.751953,-4.14453 2.955078,1.14062 c 1.875631,0.72374 4.560073,1.1339 7.345703,1.1211 5.239077,-0.0237 8.610631,-1.54627 14.705078,-6.63868 z m 232.507818,45.77539 c 0,0.2429 -0.46857,1.92259 -1.03907,3.73242 l -1.03711,3.29102 -11.97461,6.10156 c -6.58636,3.35597 -14.37294,7.37537 -17.30468,8.93164 -2.93174,1.55626 -5.05,2.53454 -4.70508,2.17383 0.83341,-0.87161 19.44496,-14.14213 25.39844,-18.10938 6.06984,-4.0448 10.66211,-6.68047 10.66211,-6.12109 z m 100.96289,119.32031 v 3.08789 c 0,3.081 -0.005,3.08873 -2.35157,3.47656 -1.29341,0.2138 -2.83852,0.39054 -3.43554,0.39454 -1.53945,0.01 -2.15398,-2.95271 -1.0293,-4.96485 0.73686,-1.31829 1.43876,-1.64634 3.85938,-1.80273 z" /><path
     style="fill:#ffffff;stroke:none;stroke-width:2.33798;stroke-linecap:round;stroke-dasharray:none"
     d="m 424.36074,378.30826 c -1.04936,-0.36335 -1.31926,-0.60955 -1.8341,-1.67309 -0.53711,-1.10952 -0.57272,-3.01784 -0.0831,-4.45472 0.44218,-1.29776 1.7826,-2.66308 2.95983,-3.01485 0.74912,-0.22384 4.98508,-0.6573 6.57451,-0.67276 l 0.49229,-0.005 -0.0709,3.64056 c -0.059,3.02853 -0.13539,3.75898 -0.45451,4.34496 -0.49704,0.91266 -1.64614,1.41246 -3.94145,1.71435 -0.98665,0.12976 -2.03133,0.27174 -2.32152,0.3155 -0.29019,0.0438 -0.88466,-0.0441 -1.32104,-0.19516 z"
     id="path26" /></svg>
