<?xml version="1.0" encoding="utf-8"?>
<!-- Generator: Adobe Illustrator 28.3.0, SVG Export Plug-In . SVG Version: 6.00 Build 0)  -->
<svg version="1.1" id="Calque_1" xmlns="http://www.w3.org/2000/svg" xmlns:xlink="http://www.w3.org/1999/xlink" x="0px" y="0px"
	 width="512px" height="512px" viewBox="0 0 512 512" style="enable-background:new 0 0 512 512;" xml:space="preserve">
<style type="text/css">
	.st0{fill:#FFFFFF;}
</style>
<g transform="translate(0,0)">
	<path class="st0" d="M257.2,36.6c-16.4,0-31.5,8.6-43.1,23.8c-11.6,15.2-19,36.8-19,60.9c0,24.1,7.5,45.7,19,60.9
		c11.6,15.2,26.7,23.9,43.1,23.9c16.4,0,31.6-8.7,43.1-23.9c11.6-15.2,19-36.8,19-60.9s-7.5-45.7-19-60.9
		C288.7,45.2,273.6,36.6,257.2,36.6L257.2,36.6z M221.9,117.1H241v46.3h-19.1V117.1z M273.7,117.1h19.1v46.3h-19.1L273.7,117.1
		L273.7,117.1z M60.9,124.3L17,247.7c0,0,0,0.1,0,0.1c-2.5,9.5-0.9,16,2.4,21.1c3.3,5.1,9,8.8,15.4,10.4c6.4,1.6,13.4,1,19.1-1.9
		c5.7-2.8,10.3-7.7,12.7-16.3l0.1-0.4l0.2-0.4l26.8-69.2l3.1-8l8.3,2.3l56,15.5l5.8,1.6l1.1,5.9l14.2,76.6
		c-35.3,4.4-67,12-93.2,21.9c-21.8,8.2-39.7,18.1-52.8,29.8c-13,11.7-21.4,25.8-21.4,41.3c0,15.5,8.4,29.7,21.4,41.4
		c13,11.7,31,21.5,52.8,29.8c43.5,16.5,102.4,26.4,167.5,26.4c65.1,0,124-9.9,167.6-26.4c21.8-8.2,39.7-18.1,52.8-29.8
		c13-11.7,21.4-25.8,21.4-41.4c0-15.6-8.4-29.7-21.4-41.3c-13-11.7-31-21.5-52.8-29.8c-26.1-9.9-57.8-17.4-92.9-21.8l14.2-76.6
		l1.1-5.9l5.8-1.6l56-15.5l8.3-2.3l3.1,8l26.8,69.2l0.2,0.4l0.1,0.4c2.4,8.6,7,13.4,12.7,16.3c5.7,2.8,12.7,3.4,19.1,1.9
		c6.4-1.6,12-5.3,15.4-10.4c3.3-5.1,4.9-11.6,2.4-21.1l0-0.1l-43.9-123.4l-118.1,30.1c-3.9,14.8-10.3,28.2-18.7,39.3
		c-14.4,18.9-35.1,31.4-58.3,31.4s-43.9-12.5-58.3-31.4c-8.4-11-14.7-24.3-18.6-39L60.9,124.3L60.9,124.3z M185.6,303.7l3.5,18.7
		c-8.2,1.9-15.8,4.2-22.7,6.9c-11.8,4.5-21.8,9.9-29.2,16.6c-7.5,6.7-12.8,15.4-12.8,25.2c0,9.8,5.3,18.5,12.8,25.2
		c7.5,6.7,17.4,12.1,29.2,16.6c23.7,9,55.3,14.2,90.1,14.2c34.8,0,66.4-5.2,90.1-14.2c11.8-4.5,21.8-9.9,29.3-16.6
		s12.8-15.4,12.8-25.2c0-9.8-5.3-18.5-12.8-25.2c-7.5-6.7-17.4-12.1-29.3-16.6c-6.9-2.6-14.4-4.9-22.5-6.8l3.5-18.8
		c34.4,4.3,65.1,11.6,89.7,20.9c20.3,7.7,36.3,16.8,46.8,26.2c10.5,9.4,15.1,18.4,15.1,27.1c0,8.7-4.6,17.8-15.1,27.1
		c-10.5,9.4-26.5,18.5-46.8,26.2c-40.5,15.4-97.7,25.2-160.8,25.2c-63.1,0-120.2-9.8-160.8-25.2c-20.3-7.7-36.3-16.8-46.8-26.2
		c-10.5-9.4-15.1-18.4-15.1-27.1c0-8.7,4.6-17.8,15.1-27.1c10.5-9.4,26.5-18.5,46.8-26.2C120.3,315.3,151.1,308,185.6,303.7
		L185.6,303.7z M192.6,341.2l2.3,12.5v12l0.3,0c-0.1,0.4-0.2,0.8-0.2,1.3c0,10,27.5,18,61.5,18S318,377,318,367
		c0-0.4-0.1-0.9-0.2-1.3h0.3v-11.2l2.5-13.3c7,1.7,13.5,3.7,19.2,5.8c10.3,3.9,18.4,8.5,23.3,12.9c4.9,4.4,6.5,8,6.5,11
		c0,3-1.6,6.6-6.5,11c-4.9,4.4-12.9,9-23.3,13c-20.7,7.8-50.5,13-83.3,13c-32.9,0-62.7-5.1-83.3-13c-10.3-3.9-18.4-8.5-23.3-12.9
		c-4.9-4.4-6.5-8-6.5-11c0-3,1.6-6.6,6.5-11c4.9-4.4,12.9-9,23.3-13C178.9,344.9,185.5,343,192.6,341.2L192.6,341.2z"/>
</g>
</svg>
