<?xml version="1.0" encoding="utf-8"?>
<!-- Generator: Adobe Illustrator 28.3.0, SVG Export Plug-In . SVG Version: 6.00 Build 0)  -->
<svg version="1.1" id="Calque_1" xmlns="http://www.w3.org/2000/svg" xmlns:xlink="http://www.w3.org/1999/xlink" x="0px" y="0px"
	 width="512px" height="512px" viewBox="0 0 512 512" style="enable-background:new 0 0 512 512;" xml:space="preserve">
<style type="text/css">
	.st0{fill:#FFFFFF;}
</style>
<g transform="translate(0,0)">
	<path class="st0" d="M366.5,286.3c-24.6,3.3-55.8,5.6-95.2,7c-25,0.8-53.1,1.3-83.4,1.3c-38.2,0-72.2-0.7-93.3-1.2
		c0.2,21.3,3.4,42.4,9.6,62.8C128.2,436.6,191.4,491,254.3,491c10.4,0,20.7-1.5,30.6-4.5C354.7,465.6,390.2,377.1,366.5,286.3
		L366.5,286.3z M192.2,380l-14.6-8.9l-6.4,11.3l-16.9-9.7l6.7-11.7l-15-9.1l10.1-16.6l14.6,8.9l6.4-11.3l16.9,9.7l-6.7,11.7l15,9.1
		L192.2,380z M297.7,352.3l-14.6-8.9l-6.4,11.3l-16.9-9.7l6.7-11.8l-15-9.1l10.1-16.7l14.6,8.9l6.4-11.3l16.9,9.7l-6.7,11.7l15,9.1
		L297.7,352.3z M428.5,108.3l23.6,19.7l26.1-16.2l-11.4,28.5l23.5,19.8l-30.7-2.1L448,186.6l-7.5-29.8l-30.6-2.3l25.9-16.4
		L428.5,108.3z M428.3,23.7l2.2,19.2l18.9,3.9l-17.6,8.1l2.1,19.2l-13.1-14.2l-17.6,7.9l9.5-16.8l-13-14.3l18.9,3.8L428.3,23.7z
		 M49.2,23.2L69,46.7l28.5-11.4L81.3,61.4L100.9,85l-29.8-7.4l-16.4,26L52.5,73l-29.8-7.6l28.5-11.6L49.2,23.2z M428.3,243.6
		c-4.9,13.6-27.4,28.1-157.5,32.5c-27.8,0.9-56.3,1.3-82.8,1.3c-45,0-130.1-1.3-130.1-1.3v-17.2c0,0,85.3,1.3,130.1,1.3
		c25.9,0,53.8-0.3,81-1.2c41.6-1.4,75.1-4,99.4-7.6c36.6-5.5,42.7-12.1,43.6-13.4c-0.3-0.6-1.3-2.5-5.2-5.6
		c-10.9-8.6-30.6-17.2-57.2-25.2c-5.4-8-11.4-15.6-17.8-22.8c2.1,0.5,4.3,1.1,6.3,1.6c37.8,10,64.4,21.1,79.3,32.8
		C424.4,224.4,432,233.2,428.3,243.6L428.3,243.6z M101,242c1.6-7.9,9.5-28.4,13.3-34.3c60.5,4.1,161.9-16.9,189.4-27
		c16.3,14.2,35.1,38.5,43.6,56C285.8,243.7,176.1,243.9,101,242L101,242z M121.9,164.6c-10.8-0.6-36.2-2.2-45.8,2.1
		c12.7,12,80.5,13.4,137.7,5.3c61.3-8.7,118.1-23,151.4-45.8c13.9-9.5,21.2-23.3,19.9-29.4c-6.8-31.3-186.9-42.4-186.9-42.4
		s191.4,4,192.8,42.4c1.5,41.2-88.2,72.8-174.4,86.2c-81.9,12.8-160.4,13.7-156.3-20.1c2.4-19.6,55.1-16,77.9-13.4
		C133.7,152.7,125.4,160.9,121.9,164.6L121.9,164.6z M203.3,144.1c15.4-1.5,31,0.2,45.7,4.9c-13.7,3.3-62.6,10-91.4,10.7
		C180.4,145.9,199.2,144.6,203.3,144.1L203.3,144.1z"/>
</g>
</svg>
