<?xml version="1.0" encoding="utf-8"?>
<!-- Generator: Adobe Illustrator 28.3.0, SVG Export Plug-In . SVG Version: 6.00 Build 0)  -->
<svg version="1.1" id="Calque_1" xmlns="http://www.w3.org/2000/svg" xmlns:xlink="http://www.w3.org/1999/xlink" x="0px" y="0px"
	 width="512px" height="512px" viewBox="0 0 512 512" style="enable-background:new 0 0 512 512;" xml:space="preserve">
<style type="text/css">
	.st0{fill:#FFFFFF;}
</style>
<g transform="translate(0,0)">
	<path class="st0" d="M220.8,87.8c-43.4,0-69.4,30.6-6.4,30.6C257.9,118.4,283.8,87.8,220.8,87.8L220.8,87.8z M357.5,105.2
		c-43.1,0-74.5,9.9-82.9,27.5c-83.6-2.5-152.9,26.7-134.9,46.7c2.3,2.6,0.3,5.6-5.2,5.8c-139,6.8-164.8,69.4-31,88.8
		c5.7,0.8,6.8,4.9,4.1,7.6c-32.5,32,38.4,55.5,143.7,55.5c107.5,0,165.7-18.5,147.2-48.5c-4.1-6.6-2-11.3,7-12.2
		c142.2-14.8,106.2-95.1-16.3-102.8c-25-1.6-19-13.4-9.9-14.6C481.2,145.9,419.1,105.2,357.5,105.2L357.5,105.2z M451.1,308.5
		c-35.6,0.7-53.4,24.4,1.4,28.2c40.3,2.8,64.4-24,5.9-28C456,308.5,453.5,308.5,451.1,308.5L451.1,308.5z M106.8,348.8
		c-68.4,0-99.2,49.3,0,49.3C175.2,398.2,205.9,348.8,106.8,348.8z"/>
</g>
</svg>
