<?xml version="1.0" encoding="utf-8"?>
<!-- Generator: Adobe Illustrator 28.3.0, SVG Export Plug-In . SVG Version: 6.00 Build 0)  -->
<svg version="1.1" id="Calque_1" xmlns="http://www.w3.org/2000/svg" xmlns:xlink="http://www.w3.org/1999/xlink" x="0px" y="0px"
	 width="512px" height="512px" viewBox="0 0 512 512" style="enable-background:new 0 0 512 512;" xml:space="preserve">
<style type="text/css">
	.st0{fill:#FFFFFF;}
</style>
<g transform="translate(0,0)">
	<path class="st0" d="M20.1,22.1v65.3l91.7,70.4l-59.9,57.9l234.9,157l-83.6-5.8l92.9,76.3l-77.3,5.5L332,489.1l-4.6-68.8h-21.7
		c0-37.7-0.7-91.7,32.4-99.7c-5.1-7.6-8.2-17.6-8.2-28.5c0-23.9,14.7-43.3,32.9-43.3s32.9,19.4,32.9,43.3c0,11.2-3.2,21.4-8.5,29.1
		c30.4,8.6,32.8,61.6,32.8,99.1H397l-5.2,69.6l91.6-59.4l-48.9,4.4l57.4-105.2l-60,16.9l57.3-92.5l-68.3,28.7l54-102l-72.4,42.9
		l18.5-123l-51.6,115.6L298.6,72.6l22.9,164.5l-66-52.3l42.3,85.5l-120-76.7l73.4-54.5l-128.3-117H20.1L20.1,22.1z"/>
</g>
</svg>
