<?xml version="1.0" encoding="UTF-8"?>
<svg id="Layer_1" data-name="Layer 1" xmlns="http://www.w3.org/2000/svg" viewBox="0 0 201.97 181.71">
  <defs>
    <style>
      .cls-1 {
        fill: #f1bc1b;
      }
    </style>
  </defs>
  <path class="cls-1" d="M44.53,166.04c.19-.68,1.54-1.74,1.36-2.86-3.81.85-4.65,5.86-5.62,9.29-.83,2.96-.13,7.09-4.04,8.1l.25-3.26c-1.38.78-6.47,7.53-6.3,2.61.18-5.52,3.37-10.29,5.01-15.43,1.77-5.57,2.78-11.31,5.01-16.76-3.2.49-4.23-3.74-5.51-5.54-1.69-2.39-4.1-4.42-4.81-7.3l-1,.94.59,1.82c-3.54-4.18-6.66-10.04-8.47-15.23-.24-.69-.39-1.35-.24-2.08-.91.15-.98.44-.92,1.27.11,1.55,1.3,4.44,2.21,5.75l-1.84,1.37c-1.25-2.43-2.15-4.82-2.71-7.5l-17.5,2.59c5-3.73,11.26-5.59,17.15-7.56l-.72-1.51,1.45-.25-2.15-1.27,1.9-.18c-1.39-1.48-2.4-1.06-1.79-3.8l-1.38-.21-.66,1.31c.11-5.41-1.25-10.66-1.24-16.08.05-21.99,6.72-39.92,21.23-56.52.86-.99,10.07-9.12,10.75-9.32.39-.11.88.44,1.52.17,12.4-5.28,24.26-13.59,38.41-12.88l1.38-6.17c3.42.78,2.3,6.85,6.61,6.16,1.37-.94-6.83-11.78-4.44-14.32l2.55,1.79.71-3.19c3.71,4.7,7.61,9.58,8.27,15.8,15.41.44,29.94,6.66,42.39,15.33l-.98.32.1.96c6.44,6.59,13.16,13.12,17.71,21.3l-1.04.97c-5.26-11.21-16.1-19.16-26.75-25.07-6.73-3.74-14.34-6.67-21.89-8.29-2.55-.55-5.34-.38-7.84-1.46l1,3.35c3.45.41,6.89,1.39,10.28,1.97.66.11,1.19-.57,2.2-.39,11.2,2.02,26.69,14.96,34.16,23.42.76.86,4.18,4.6,4.34,4.89.04.07-.52.52-.46.75.4,1.45,5.41,9.09,6.67,12.46.79,2.11,3.37,10.59,3.74,11.09.29.38,9.08-2.55,9.67-2.07.68.55,4.41-1.77,4.92-1.55.26.11,8.31-1.69,8.89-2.05,2.81-1.73,15.53-1.9,15.28-.89-1.45.12-6.95,6.53-7.43,7.51-1.14,2.37-9.84,1.12-21.67,7.08-4.99.32-2.47.23-6.91,1.55.05,2.73-2.42,5.58-2.81,8.3-.24,1.65-.82,4.19-1.75,5.62l-.09-7.5c-.38-.43-7.12.64-7.63.95-.58.35-.71,1.28-1.21,1.69-2.67,2.24-5.66,3.41-8.93,1.68-.45,0-.37.94-.71,1.31-.92.97-13.93,3-16.11,2.34,6.17,19.45,12.89,38.77,17.59,58.66-.96-.02-1.39-1.01-1.87-1.68-6.9-9.68-13.47-27.98-17.47-39.5-1.92-5.55-3.52-11.37-4.96-17.01l-1.78-.32,10.99,39.78-6.11-12.68-.8,2.23c-4.42-8.85-6.65-18.93-10.9-27.99-.53-.52-7.04,2.71-8.32,2.73-1.09.01-2.45-1.02-3.76-.57l-21.05,4.21c-1.47.82-.97,2.98-1.54,4.56-2.26,6.27-5.55,12.41-8.08,18.43-.8,1.91-4.75,12.86-4.71,14.13.04,1.61,4.84,3.03,6.35,3.93,1.08.64,1.48,1.51,2.22,2.04.94.68,2.73.41,2.95,2.11-1.35-.19-2.42.67-3.75.75-1.74.11-4.76-1.33-5.48,1.17,1.27-.02,2.24.94,3.33,1.21,7.08,1.8,15.54,2.89,22.32,1.54.91-.18,1.54-1.39,2.78-.84l-1.58,1.17,1.77.74c-1.3-.18-2.76.2-3.5,1.36,1.29.24,2.62.35,3.92.59.55.1,1.77-.09,1.54.69-10.84,3.19-22.56-2.53-32.42-6.73-.75,2.21,2.62,2.82,4.19,3.46l-1.23.29-.36.87,6.85,2.11,7.4,3.32c-3.98,1.02-7.99.12-11.97-.3-.65-.07-1.2.57-1.86.48-2.76-.37-7.65-3.65-10.15-5.16-1.75,2.35-2.68,4.68-4.66,6.97-2.66,3.07-6.02,5.36-9.49,7.38.72-2.94.6-6.6,1.41-9.44ZM86.28,21.92c-1.78-1.18-2.98.55-3.72.73-6.9,1.7-12.34,2-18.84,5.43-.26.14-1.76.25-1.05,1.06.18.2,4.68-1.25,5.27-1.43,2.82-.87,11.74-4.1,14.32-3.9.9.07,1.91,1.64,4.18.65.92-.4-.25-1.92-.16-2.54ZM141.55,48.21c-9.71-9.75-22.51-16.35-36.15-18.31-.38.25,2.65,7.72,3.04,8.6,1.51,3.49,4.37,6.79,3.82,10.66-.11.75-.77,1.15-.86,1.64-.62,3.45,4.81,12.36,5.27,15.6.72,5.14.79,5.45,2.5,10.44.48,1.39.75,3.25,1.11,4.72l27.37-5.32-7.58,3.04c-4.43,1.44-9.72,1.66-13.54,4.4-.12.34.4.36.65.32,1.61-.26,6.59-2.35,7.89-2.12l1.17,1.63c1.72.26,4.16-2.02,4.59-2.1,1.58-.28,2.84.97,4.28.84,3.98-.36,9.47-4.49,13.83-4.33-1.33-3.79-2.48-7.38-4.28-10.96-3.03-6-8.35-13.97-13.12-18.76ZM32.43,80.18l-1.55,10.36c-.1.69.47,7.84,1.76,7.09l.59-.85c-.67,1.47.83,2.34.95,2.86.23.94-.32,4.11.56,4.43l27.61-7.23c.23-.69.62-1.48-.43-1.42l-20.24,3.95-1.15-1.02,22.22-4.57c.5-.08.79-.36,1.09-.74,1.3-1.64,3.26-8.74,4.36-11.27,4.86-11.19,9.48-22.53,14.37-33.73,1.33-3.04,6.39-11.84,6.72-14.2.17-1.23-.66-3.02-1.11-4.2-.79-.29-6.99,1.19-8.26,1.54-15.67,4.3-29.44,12.77-38.37,26.75-3.66,5.73-4.45,12.01-7.27,17.97-.57,1.2-2.06,1.98-1.78,3.83,2.8-1.23,1.22,2.73.65,1.98l-.72-1.52ZM81.89,89.46l20.93-4.63-13.23-38.94-16.37,44.87.59.79,1.9-1.31,8.21-21.56,6.95-15.52-2.69,13.25c1.77.81,1.04-3.57,2.69-2.18l-8.97,25.25ZM59.47,104.01c-.95-.24-1.83-.28-2.8-.19-3.73.32-10.46,2.67-14.54,3.6-2.05.47-4.29.86-6.39,1.05-.28,1.21.17,2.54,1.14,3.34,5.21-1.56,10.64-2.42,15.88-3.87,2.3-.64,6.73-1.03,6.72-3.92ZM54.66,114.12l-15.99,3.04c-.07.17.86,3.16,1.04,3.51s.85.59,1.09,1.02c.72,1.3,4.5,8,5.62,8.14l1.1-2.65,1.45,4.45c2.18-5.78,4.58-11.38,5.68-17.51ZM22.85,121.26c-.09-.15-1.39-1.38-1.25-.1l4.41,9.84c1.1-.59.64-.63.36-1.48-.64-1.91-2.54-6.62-3.51-8.26Z"/>
</svg>