<?xml version="1.0" encoding="UTF-8" standalone="no"?>
<!-- Created with Inkscape (http://www.inkscape.org/) -->

<svg
   width="497.09528"
   height="433.42462"
   viewBox="0 0 497.09528 433.42462"
   version="1.1"
   id="svg1"
   xml:space="preserve"
   sodipodi:docname="Template.svg"
   inkscape:version="1.4 (86a8ad7, 2024-10-11)"
   inkscape:export-filename="Suit-case.svg"
   inkscape:export-xdpi="96"
   inkscape:export-ydpi="96"
   xmlns:inkscape="http://www.inkscape.org/namespaces/inkscape"
   xmlns:sodipodi="http://sodipodi.sourceforge.net/DTD/sodipodi-0.dtd"
   xmlns="http://www.w3.org/2000/svg"
   xmlns:svg="http://www.w3.org/2000/svg"><sodipodi:namedview
     id="namedview1"
     pagecolor="#ffffff"
     bordercolor="#000000"
     borderopacity="0.25"
     inkscape:showpageshadow="2"
     inkscape:pageopacity="0.0"
     inkscape:pagecheckerboard="true"
     inkscape:deskcolor="#d1d1d1"
     inkscape:zoom="2"
     inkscape:cx="227.5"
     inkscape:cy="294.75"
     inkscape:window-width="2560"
     inkscape:window-height="1494"
     inkscape:window-x="585"
     inkscape:window-y="2149"
     inkscape:window-maximized="1"
     inkscape:current-layer="svg1"><inkscape:page
       x="0"
       y="0"
       width="497.09528"
       height="433.42462"
       id="page2"
       margin="0"
       bleed="0" /></sodipodi:namedview><defs
     id="defs1" /><rect
     style="fill:#000000;stroke:none;stroke-width:0;stroke-linecap:round;stroke-linejoin:round"
     id="rect71"
     width="316.50443"
     height="10.598877"
     x="94.845497"
     y="398.06604" /><path
     style="fill:#000000;stroke-width:0.559789"
     d="m 282.97325,433.23415 c -10.77816,-1.13191 -20.09333,-6.84091 -26.19068,-16.05151 -1.27387,-1.92428 -2.4516,-3.49192 -2.61722,-3.48364 -0.16561,0.009 -0.93087,1.06863 -1.70059,2.3563 -0.7697,1.28771 -3.07197,4.03272 -5.11615,6.10004 -2.91461,2.94763 -4.84748,4.30142 -8.95662,6.27328 -6.1271,2.94022 -9.4641,3.72836 -15.78587,3.72836 -8.6111,0 -15.56938,-2.85808 -21.46502,-8.81666 l -3.46172,-3.49869 -4.09543,-0.009 c -8.47237,-0.017 -16.56146,-3.18543 -23.02376,-9.01788 -7.92864,-7.1559 -11.7602,-15.28051 -12.62416,-26.76887 l -0.35547,-4.72677 -3.10113,-0.91871 c -11.16522,-3.30778 -20.25302,-12.1338 -23.85846,-23.17121 -2.13863,-6.54708 -2.50538,-17.2865 -0.80231,-23.49426 0.65505,-2.38762 1.6986,-5.33614 2.31901,-6.55227 l 1.12805,-2.21112 -1.62076,-2.36616 c -5.82909,-8.50999 -8.71951,-19.91056 -7.38754,-29.13844 0.82661,-5.72682 2.85197,-11.89189 5.4572,-16.61133 2.47763,-4.48834 8.5304,-12.36253 11.04544,-14.36934 l 1.8701,-1.49219 -0.29373,-5.36422 c -0.58145,-10.61908 2.13932,-18.33688 10.0024,-28.37295 0.31404,-0.4008 -0.64478,-1.50265 -2.73526,-3.14325 l -3.21878,-2.52613 -1.95751,3.42317 c -1.12192,1.96196 -4.34777,5.82525 -7.55716,9.0505 -4.66999,4.6931 -6.45709,6.06713 -10.76445,8.27641 -7.18643,3.68598 -12.38054,4.98846 -20.02569,5.02172 -7.48128,0.0326 -11.54056,-0.91997 -18.473022,-4.33475 -8.099727,-3.98974 -15.218368,-10.61399 -19.439457,-18.08938 -0.912723,-1.61637 -1.831736,-3.04534 -2.04227,-3.17544 -0.210536,-0.13012 -2.453637,1.70237 -4.984673,4.07221 l -4.601891,4.30878 v 11.08513 11.08514 l -1.636301,1.6363 c -2.256395,2.25639 -5.370808,2.28392 -7.495475,0.0663 l -1.504208,-1.57005 v -12.38824 c 0,-6.81352 0.230041,-12.99325 0.511185,-13.73274 0.558397,-1.46868 1.514439,-2.49226 9.926403,-10.62781 l 5.647484,-5.46189 -0.727557,-3.1298 c -0.400145,-1.7214 -0.904991,-5.43522 -1.121865,-8.25295 -0.216874,-2.81773 -0.674686,-5.30821 -1.017351,-5.53441 -0.342677,-0.2262 -2.667296,-0.41513 -5.165809,-0.41984 -5.006615,-0.0103 -4.90003,-0.06 -10.793548,5.12024 -1.661519,1.46042 -3.721351,2.80915 -4.577398,2.99718 -2.060698,0.4526 -4.884364,-1.03965 -5.617873,-2.96893 -1.153573,-3.03415 -0.214125,-4.829 4.917178,-9.39439 6.630062,-5.89886 7.832289,-6.37121 16.254459,-6.38637 l 6.835841,-0.0125 0.605821,-2.3791 c 0.3332,-1.30851 1.144008,-3.95011 1.801797,-5.87022 0.657789,-1.92012 1.08762,-3.57662 0.955177,-3.68111 -2.71363,-2.141 -12.057673,-10.09893 -13.86188,-11.80559 -4.326294,-4.09235 -4.572064,-4.99916 -4.572064,-16.8694 v -10.42145 l 1.636314,-1.63631 c 1.211428,-1.21145 2.167383,-1.63632 3.681685,-1.63632 1.514301,0 2.470243,0.42487 3.681684,1.63632 l 1.636301,1.63631 v 9.13948 9.13949 l 4.618259,4.37707 c 2.54005,2.40738 5.471544,5.04574 6.514452,5.86304 l 1.896181,1.48599 1.801773,-2.08434 1.801759,-2.08433 h 33.076559 33.07655 l 1.82442,2.17309 1.82443,2.17309 3.90803,-3.43261 c 2.14941,-1.88794 5.12123,-4.53769 6.60402,-5.88833 l 2.69598,-2.45571 v -9.12869 c 0,-8.84289 0.0423,-9.17788 1.351,-10.69933 1.12183,-1.3042 1.79479,-1.57064 3.967,-1.57064 2.17221,0 2.84517,0.26644 3.967,1.57064 1.31978,1.53435 1.351,1.8031 1.351,11.6336 0,7.46205 -0.20703,10.55839 -0.80093,11.97984 -0.90247,2.15991 -4.81193,6.06967 -12.64798,12.64898 l -5.33197,4.47681 1.93313,5.85488 1.93312,5.85488 h 6.81398 c 7.87299,0 9.31671,0.38379 14.23555,3.78429 2.35988,1.63143 3.85467,2.33194 4.30337,2.0167 0.3781,-0.26564 2.05616,-1.44709 3.72898,-2.62542 3.75174,-2.64273 9.58785,-4.81436 14.07454,-5.23717 l 3.38628,-0.31914 1.94658,-3.42788 c 2.95046,-5.19572 10.02737,-11.96647 15.12697,-14.47251 10.26366,-5.04378 21.64868,-5.07792 31.34818,-0.0941 2.00125,1.02829 4.29812,2.29297 5.10417,2.8104 1.41264,0.90678 1.53441,0.88822 3.37306,-0.51419 4.74238,-3.61719 13.60069,-6.52121 19.95565,-6.54206 8.4703,-0.0277 19.25068,4.21623 25.27767,9.95134 4.03513,3.83967 4.41275,5.66794 1.77947,8.6151 -2.46104,2.75437 -4.73507,2.5195 -8.51564,-0.87955 -5.65795,-5.08699 -11.92468,-7.32336 -19.48972,-6.95521 -5.11376,0.24887 -10.14674,2.02096 -12.78855,4.50283 l -1.26118,1.18481 v 112.61032 c 0,109.45392 0.0304,112.72885 1.08143,116.83869 2.91469,11.39635 9.28388,18.26499 19.32852,20.84429 7.35731,1.88923 15.75891,0.20902 23.15129,-4.62995 l 1.29719,-0.84911 -2.69665,-1.67349 c -6.85136,-4.25179 -13.05276,-11.54595 -13.05276,-15.35281 0,-2.65679 2.5449,-5.18714 5.21693,-5.18714 2.10026,0 3.37175,1.16071 6.95333,6.3475 4.48508,6.49521 15.26935,9.71102 25.44798,7.5884 7.95092,-1.65807 15.35342,-7.40397 19.06306,-14.79695 2.4104,-4.80372 3.21609,-8.44363 3.21609,-14.52949 0,-5.79214 0.85022,-7.00801 5.8778,-8.40571 4.48725,-1.24751 9.19348,-3.8058 11.64241,-6.32877 6.28905,-6.4792 9.90986,-18.01419 8.22183,-26.1926 -0.85462,-4.14052 -2.05772,-6.51735 -4.9724,-9.82336 -3.48075,-3.9481 -3.26112,-5.21771 1.82322,-10.53943 8.46399,-8.85915 11.26837,-19.52005 7.92164,-30.11432 -1.82988,-5.79257 -5.02686,-10.64153 -10.43383,-15.82526 -2.42361,-2.32356 -4.40657,-4.37781 -4.40657,-4.565 0,-0.18719 0.99171,-0.20732 2.2038,-0.0447 1.2505,0.16774 3.9602,-0.13483 6.26421,-0.69946 l 4.06042,-0.99506 3.11225,3.34693 c 11.29639,12.14817 13.87302,30.02871 6.50774,45.16075 -1.07226,2.20297 -2.98934,5.3617 -4.2602,7.0194 l -2.31064,3.01399 1.68653,3.70347 c 3.04522,6.68711 3.91198,12.60931 2.94632,20.13063 -1.72504,13.43594 -8.90574,24.31023 -19.58133,29.65354 -2.40772,1.2051 -4.68513,2.29357 -5.06089,2.41882 -0.39464,0.13156 -0.91493,2.11388 -1.23179,4.69324 -2.40984,19.61647 -17.33834,33.61151 -37.14025,34.8179 -4.9286,0.30026 -5.72221,0.49353 -6.5979,1.6068 -1.6603,2.11072 -7.74524,6.43026 -11.83822,8.40361 -6.05391,2.9188 -13.91502,4.258 -20.76912,3.53819 z M 233.0997,419.64216 c 6.90719,-3.41372 11.84166,-9.50278 14.9597,-18.45998 l 1.59144,-4.57179 0.007,-110.93055 0.007,-110.93057 -2.59119,-2.28085 c -9.0441,-7.96093 -22.58113,-7.80494 -32.13203,0.37027 -2.15576,1.84525 -5.58159,6.28605 -5.58159,7.23525 0,0.25294 1.19656,1.08921 2.659,1.8584 3.92802,2.06595 9.19636,7.59692 11.24449,11.80504 1.85601,3.81338 3.44996,9.26132 3.44996,11.79152 0,2.14375 -2.11515,4.36546 -4.52035,4.74806 -3.12109,0.49648 -4.87177,-1.35027 -5.89147,-6.21481 -2.84191,-13.55758 -17.50139,-19.82705 -29.12927,-12.45781 -7.63453,4.83842 -12.39862,14.8151 -10.83195,22.68367 1.62497,8.16145 8.57749,13.54605 17.49046,13.54605 3.03583,0 3.49166,0.16592 5.22902,1.90328 2.4795,2.4795 2.56668,4.79671 0.26697,7.0964 -1.44127,1.44128 -2.03263,1.63631 -4.96168,1.63631 -5.00479,0 -8.91973,-0.90427 -13.37549,-3.08948 -3.80599,-1.86655 -8.99829,-6.19651 -10.96003,-9.13977 l -0.87538,-1.31336 -2.14875,1.4496 c -10.29236,6.94353 -16.14631,19.24405 -14.23866,29.9187 1.68889,9.4504 7.42453,16.53222 15.00833,18.53089 2.81839,0.74277 4.07896,2.33777 4.07896,5.16113 0,3.17489 -2.02569,5.23022 -5.12958,5.20466 -5.2581,-0.0433 -14.33776,-6.25086 -18.4694,-12.62707 -2.05241,-3.16741 -2.00715,-3.18245 -5.86408,1.9484 -5.56338,7.40095 -8.04279,14.15048 -8.04279,21.89444 0,5.89599 0.90965,9.51648 3.76261,14.9757 3.32391,6.3604 11.08549,12.58078 17.6836,14.17223 1.31807,0.31791 1.62648,0.17771 1.89865,-0.86303 0.17871,-0.68342 1.2947,-3.24793 2.47995,-5.69889 4.59835,-9.50878 14.31589,-15.58865 24.91558,-15.58865 3.20547,0 3.57511,0.1295 4.64058,1.62584 1.64487,2.31002 1.5004,4.83505 -0.38452,6.71998 -1.22816,1.22815 -2.25392,1.61661 -5.0368,1.90748 -6.43402,0.67249 -12.32655,4.72307 -15.27318,10.49896 -0.65369,1.28132 -1.60924,4.35177 -2.12347,6.82322 -0.75746,3.64058 -1.22312,4.70854 -2.45311,5.62604 -1.43036,1.06697 -1.75404,1.09035 -5.59492,0.40394 -5.55274,-0.99233 -9.71876,-2.42483 -13.86098,-4.76615 -1.91636,-1.0832 -3.55182,-1.96944 -3.63436,-1.96944 -0.56136,0 -2.11396,5.63914 -2.46997,8.97116 -0.59184,5.53897 0.15911,10.17211 2.42292,14.9486 4.06053,8.56741 12.06619,14.33659 21.66041,15.60929 4.87387,0.64655 5.11718,1.10358 5.20676,9.78033 0.0884,8.5581 0.85898,11.85173 3.9977,17.08617 3.93725,6.56614 8.67491,10.19802 15.62006,11.97428 2.4089,0.61611 4.67606,1.12018 5.0381,1.12018 0.47866,0 0.58806,-1.57885 0.40095,-5.78601 -0.33748,-7.58832 0.8451,-13.67857 3.85451,-19.85051 1.24553,-2.55444 3.0009,-5.48303 3.90082,-6.50797 l 1.6362,-1.86354 -2.46208,-3.67159 c -2.33314,-3.47935 -4.54189,-8.42681 -5.17477,-11.5912 l -0.28757,-1.43781 -6.81065,0.21597 c -6.33284,0.2008 -6.89854,0.13266 -8.0634,-0.97127 -2.33143,-2.20944 -2.34672,-5.70394 -0.0344,-7.85819 1.00328,-0.93469 1.97268,-1.13508 5.4914,-1.13508 10.64394,0 19.39009,-6.76811 21.18893,-16.39687 0.59389,-3.17894 1.27387,-4.06918 3.72633,-4.87857 1.51161,-0.49887 2.2129,-0.44848 3.57726,0.25706 2.13038,1.10166 2.84981,2.42895 2.84981,5.25762 0,5.62432 -3.78299,12.9183 -9.32877,17.98684 -2.97695,2.72078 -3.07099,2.89489 -2.71174,5.02125 0.56567,3.34817 3.85838,9.75677 6.4671,12.58688 2.69638,2.92524 8.26055,5.91608 11.00627,5.91608 5.16641,0 6.56407,7.73231 1.76257,9.75121 -2.0216,0.85001 -6.80781,0.23668 -10.3377,-1.32476 l -2.3446,-1.03714 -1.69606,1.76329 c -4.01325,4.17231 -6.5817,12.17062 -6.06647,18.89135 0.96441,12.57995 8.53482,19.34108 21.00019,18.75527 3.97175,-0.18665 5.27723,-0.5187 8.71065,-2.21558 z m -6.35925,-108.28748 c -1.27231,-1.27231 -1.70533,-2.21975 -1.70533,-3.73124 0,-2.93158 -1.53088,-9.89758 -2.81124,-12.79203 -1.75656,-3.97099 -5.95199,-9.24111 -8.78889,-11.04022 -2.04214,-1.29508 -3.25717,-1.65762 -5.55548,-1.65762 -10.0901,0 -20.09193,-5.84948 -27.1245,-15.86352 -3.33976,-4.75561 -3.59104,-6.88484 -1.10586,-9.37003 1.61994,-1.61994 3.80056,-2.09259 5.91356,-1.28175 0.50817,0.195 1.9198,1.93137 3.13694,3.85859 2.49847,3.95605 5.81874,7.23005 9.54951,9.41642 2.72826,1.59887 9.44456,3.49406 10.68948,3.01635 0.42138,-0.1617 1.05669,-1.88406 1.42046,-3.85097 1.57105,-8.49457 7.26983,-16.04819 14.98374,-19.86061 5.82967,-2.88117 8.64196,-2.19856 10.0232,2.43293 0.70044,2.34863 -1.076,4.75809 -5.00529,6.78887 -1.99665,1.03195 -4.4271,2.78378 -5.40099,3.89299 -2.51484,2.86424 -4.5849,7.70478 -4.85339,11.34897 -0.22667,3.07648 -0.19514,3.15342 2.09627,5.11479 5.11987,4.38241 9.79252,11.9313 11.48128,18.54852 0.45978,1.80161 1.00129,5.46566 1.20335,8.14235 0.34649,4.58973 0.29163,4.95392 -0.96382,6.39959 -0.81945,0.94363 -2.12818,1.65978 -3.40443,1.86293 -1.79134,0.28516 -2.30512,0.0982 -3.77857,-1.37531 z M 165.6975,211.34339 c 0,-3.91725 1.61092,-10.87173 3.27294,-14.12956 l 1.10277,-2.1616 -2.97949,-2.08212 c -2.95253,-2.06327 -3.02982,-2.08212 -8.54037,-2.08212 h -5.56086 l -0.36661,5.73784 c -0.20164,3.1558 -0.72481,7.24719 -1.16262,9.09195 -0.43779,1.84477 -0.75194,3.37274 -0.69808,3.39552 0.0539,0.0227 1.9872,1.55175 4.29633,3.39776 7.00794,5.60244 6.57112,5.41541 8.75582,3.74904 1.77855,-1.35657 1.88017,-1.6223 1.88017,-4.91671 z M 16.557809,407.46843 C 8.5986495,404.73128 3.1690305,398.60226 0.88091463,389.77217 0.08832133,386.71343 1.348696e-7,368.10935 1.348696e-7,204.21979 1.348696e-7,41.400022 0.09226283,21.712874 0.86878873,18.730591 3.0968015,10.174408 9.8504105,3.5484502 18.901571,1.0386402 22.521347,0.03490924 30.221055,2.3363809e-7 248.03789,2.3363809e-7 c 150.96744,0 226.3855,0.18866800636191 228.40353,0.57138900636191 9.58473,1.81770096 17.27956,9.11130296 19.79295,18.76090476 0.76244,2.927164 0.85811,23.583699 0.85811,185.270526 0,198.03997 0.20773,184.65552 -2.96683,191.16252 -1.86888,3.8307 -6.78421,8.47576 -11.30778,10.68601 l -3.91852,1.91461 -51.55022,0.15392 -51.5502,0.15392 -1.48978,-1.48978 c -1.98083,-1.98082 -2.0403,-5.11287 -0.13904,-7.32362 l 1.35075,-1.57063 50.00988,-0.2799 c 46.46122,-0.26004 50.13844,-0.35015 51.82164,-1.27 3.16536,-1.72982 5.88202,-4.5121 7.22809,-7.40266 l 1.3053,-2.80302 0.006,-160.23955 0.005,-160.23955 H 248.54636 11.195889 l 0.0051,160.23955 0.0051,160.23955 1.325446,2.79895 c 1.603539,3.38616 4.238626,5.98423 7.620237,7.51318 2.479985,1.12129 3.413244,1.13927 60.177297,1.15951 44.799501,0.0159 57.970361,0.17573 59.057731,0.71644 0.76971,0.38276 1.85178,1.61916 2.40462,2.74761 0.90838,1.85416 0.92641,2.24013 0.18734,4.00898 -0.4498,1.07652 -1.32639,2.22948 -1.94798,2.56215 -0.78989,0.42273 -19.04932,0.5992 -60.644537,0.58609 -58.38465,-0.0185 -59.577287,-0.0404 -62.829052,-1.15867 z M 485.89124,38.765375 c -0.006,-15.720629 -0.0361,-16.159574 -1.32331,-18.924004 -0.72778,-1.562918 -2.40622,-3.761683 -3.74865,-4.910762 -4.75824,-4.072866 16.29031,-3.734834 -232.55482,-3.734834 -199.957511,0 -224.828834,0.09365 -227.064065,0.855308 -3.284064,1.118989 -6.276716,3.63534 -8.185864,6.883 l -1.538854,2.61779 -0.170629,16.653725 -0.170617,16.653712 H 248.51557 485.89671 Z M 36.60354,38.636584 c -1.819785,-0.735266 -3.576004,-3.328375 -3.576004,-5.280078 0,-2.280508 1.355786,-4.169409 3.693811,-5.146302 2.214683,-0.925351 11.265356,-1.05059 14.333914,-0.198359 2.607169,0.724106 4.363839,2.901055 4.363839,5.407889 0,4.655252 -2.160165,5.777644 -11.028033,5.730006 -3.63293,-0.01958 -7.137319,-0.25044 -7.787527,-0.513156 z m 36.946067,0.01858 c -3.289374,-1.380576 -4.564834,-5.898851 -2.430954,-8.611627 1.529365,-1.944272 4.224855,-2.606956 10.619253,-2.610697 4.135429,-0.0025 5.762956,0.230657 7.277258,1.042205 3.703262,1.984666 4.201296,7.214482 0.885019,9.293632 -1.42401,0.892789 -14.629657,1.60876 -16.350576,0.886487 z m 36.368853,-0.02497 c -2.81673,-1.13669 -3.9517,-5.672401 -2.08595,-8.336133 1.50344,-2.146457 4.11234,-2.864437 10.4049,-2.863497 7.03426,0.0011 9.23417,0.862199 10.44846,4.089926 0.71435,1.898868 0.69996,2.345256 -0.13177,4.089424 -1.37471,2.882803 -3.57211,3.58228 -11.1204,3.539864 -3.47359,-0.01958 -6.85546,-0.253328 -7.51524,-0.519584 z M 315.99811,390.50096 c -0.74319,-0.74319 -1.46592,-1.93975 -1.60606,-2.659 -1.24145,-6.3718 -1.76658,-8.16083 -3.29563,-11.22756 -2.02346,-4.05835 -6.42571,-8.72469 -9.90586,-10.50013 l -2.41049,-1.22975 -2.58542,1.39519 c -3.93895,2.12561 -8.22534,3.18129 -12.90315,3.17783 -7.56938,-0.005 -10.11454,-1.45117 -10.11454,-5.74476 0,-1.51154 0.39389,-2.53395 1.34121,-3.48127 1.25149,-1.25149 1.72895,-1.33734 7.1373,-1.28318 6.88447,0.0689 10.44753,-1.1496 13.61574,-4.65642 2.64022,-2.92241 3.56982,-5.38356 4.00518,-10.60394 0.44681,-5.35772 1.66987,-6.94952 5.3397,-6.94952 1.81281,0 2.54976,0.32871 3.67823,1.64064 1.33114,1.54754 1.39492,1.91208 1.12421,6.42484 -0.19463,3.24437 -0.7604,6.02808 -1.75781,8.64882 -0.80894,2.12552 -1.40454,3.90699 -1.32357,3.95883 0.0809,0.0519 1.29795,0.75261 2.70438,1.55727 3.61743,2.06962 9.49967,8.51497 11.38291,12.47262 2.35196,4.94263 3.00454,7.03676 3.6589,11.7413 0.49113,3.53124 0.4483,4.52885 -0.25268,5.88439 -1.59462,3.08365 -5.47277,3.79356 -7.83255,1.4338 z m 31.43484,-39.1905 c -0.96984,-1.05398 -2.51907,-2.86211 -3.44271,-4.01809 -1.95219,-2.44323 -5.80133,-5.02557 -8.85471,-5.94051 -3.5503,-1.06387 -4.30032,-2.56316 -4.30032,-8.59626 0,-10.69026 -3.39057,-19.84042 -9.70641,-26.19479 -5.04624,-5.07703 -12.69348,-8.72776 -18.32138,-8.74647 -3.10812,-0.0103 -7.3108,1.46851 -9.63427,3.39014 -2.90954,2.40636 -4.33233,5.46456 -4.72581,10.15784 -0.39203,4.67625 -1.61235,6.46638 -4.74838,6.96558 -1.80166,0.2868 -2.30386,0.0994 -3.83382,-1.43055 -1.75151,-1.7515 -1.75938,-1.78573 -1.52757,-6.64653 0.15332,-3.21524 0.64711,-5.93878 1.44404,-7.96482 2.50615,-6.37129 8.77209,-11.91268 15.54268,-13.74541 4.58111,-1.24006 12.51205,-0.8888 17.31777,0.76698 l 3.35874,1.15724 2.39478,-2.33828 c 3.176,-3.10108 5.16237,-7.15845 5.16237,-10.54471 0,-3.39949 -0.7508,-5.34177 -2.97322,-7.69168 -1.82113,-1.92558 -7.72127,-5.10875 -9.47075,-5.10956 -1.97231,-10e-4 -5.33068,-1.77003 -5.95304,-3.13598 -1.80169,-3.95426 0.45941,-7.45011 4.83979,-7.48264 7.84252,-0.0583 18.34179,6.76547 21.74459,14.13234 1.45438,3.14862 1.60723,4.04781 1.59118,9.36099 -0.0211,6.98287 -1.12897,10.37884 -5.11639,15.68325 l -2.53755,3.37569 2.43637,2.23401 c 2.20246,2.01951 2.65136,2.20485 4.67554,1.93041 6.43546,-0.87256 12.38227,-4.95684 15.13943,-10.39783 2.38802,-4.71252 5.70819,-5.77884 8.69464,-2.79239 2.32826,2.32825 2.22538,5.00436 -0.358,9.31251 -3.71956,6.20288 -9.68468,11.07318 -15.862,12.95076 -1.72468,0.5242 -3.2241,1.01247 -3.33205,1.08505 -0.10796,0.0726 0.34224,1.6881 1.00045,3.59005 1.67408,4.83741 2.83447,10.69639 2.83447,14.31181 0,2.8554 0.12075,3.13444 1.74033,4.02187 4.80822,2.63459 10.60582,8.14024 12.56843,11.93551 1.30543,2.52442 1.01726,4.84645 -0.83077,6.69449 -2.31674,2.31672 -4.65357,2.22266 -6.95645,-0.28002 z m 15.97528,-89.18338 c -1.42808,-0.25692 -3.45864,-3.1424 -3.46192,-4.91947 -10e-4,-0.62424 0.37274,-1.67011 0.83086,-2.32418 0.89771,-1.28165 22.54817,-13.92017 36.6729,-21.40789 4.77221,-2.52982 8.88969,-4.80771 9.14996,-5.06199 0.26027,-0.25428 -2.19932,-3.41874 -5.46576,-7.03214 -6.12426,-6.77473 -7.0094,-8.33956 -6.1307,-10.83815 0.72709,-2.06749 2.5954,-2.7683 9.81916,-3.68328 3.48819,-0.44182 10.12075,-1.3257 14.73901,-1.9642 4.61825,-0.63847 15.11248,-2.02956 23.3205,-3.09128 8.20802,-1.06174 15.9422,-2.09328 17.18707,-2.29236 3.34168,-0.53434 4.85094,0.0444 5.90429,2.26421 0.9062,1.90966 0.77649,4.29812 -0.30877,5.68556 -0.26669,0.34095 -6.52379,3.99358 -13.90467,8.11694 -7.38087,4.12337 -13.36258,7.67758 -13.29269,7.89826 0.0699,0.22066 3.04506,3.49542 6.61148,7.27726 3.56642,3.78179 6.79367,7.45515 7.17167,8.16296 1.07658,2.01591 -0.15628,5.06372 -2.43313,6.01504 -2.01933,0.84373 -17.42567,3.96622 -30.25575,6.13209 -11.17937,1.88724 -11.64318,1.98079 -33.58733,6.77524 -21.92716,4.79074 -20.87714,4.59125 -22.56618,4.28738 z m 46.91699,-19.69195 c 5.08009,-0.89309 13.31407,-2.31225 18.29776,-3.15365 l 9.06125,-1.52985 -6.33076,-6.81164 c -3.48192,-3.74642 -6.50458,-7.35929 -6.71701,-8.0286 -0.72032,-2.2695 0.86432,-4.15195 6.12105,-7.27146 3.46224,-2.05461 4.51281,-2.89481 3.35874,-2.6862 -0.92366,0.16697 -6.46557,0.94839 -12.31535,1.73647 -5.84981,0.78809 -10.82139,1.48583 -11.04802,1.55056 -0.22659,0.0646 1.85163,2.73957 4.61826,5.94413 4.3706,5.06238 5.03027,6.09712 5.03027,7.89024 0,1.27018 -0.37668,2.38887 -0.97963,2.90925 -0.53879,0.46503 -5.45095,3.16556 -10.91587,6.00116 -9.40809,4.88161 -11.55141,6.22122 -8.67673,5.42309 0.69274,-0.19233 5.41595,-1.08041 10.49604,-1.9735 z m -134.39238,8.39335 c -1.91139,-1.91136 -2.06781,-3.7926 -0.80932,-9.73205 1.37934,-6.50973 5.62182,-12.63718 11.52532,-16.64617 3.79171,-2.5749 4.18708,-3.66621 3.75688,-10.36962 -0.33351,-5.19677 -2.25754,-8.62856 -6.33338,-11.29649 -3.46928,-2.27088 -4.17793,-3.22221 -4.17793,-5.6086 0,-2.46799 2.56429,-5.16794 4.90825,-5.16794 1.97709,0 7.63302,3.53451 9.82556,6.14019 3.41007,4.05264 5.97839,11.26405 5.97839,16.7863 v 2.89239 l 2.659,-0.3636 c 1.46244,-0.19997 4.04447,-0.56748 5.73783,-0.81671 5.11916,-0.75336 7.83704,1.11574 7.83704,5.38962 0,2.34949 -2.63261,4.43989 -6.16483,4.89509 -5.17102,0.6664 -14.1401,3.12637 -16.55343,4.54016 -4.85507,2.84421 -8.79658,8.91901 -9.43905,14.54776 -0.45854,4.01748 -0.7617,4.68174 -2.56147,5.61244 -2.46895,1.27674 -4.35385,1.03225 -6.18886,-0.80277 z m 90.57166,-9.03149 c -0.37227,-2.77543 -3.22415,-7.70006 -6.41697,-11.08083 -1.30666,-1.38357 -2.31429,-2.55103 -2.23916,-2.59434 1.36396,-0.78628 7.22192,-3.08668 7.86028,-3.08668 1.93907,0 9.34987,10.49209 9.34987,13.23743 0,0.69044 -0.85281,1.31649 -6.22391,4.56903 l -2.02548,1.22655 z m -30.77116,-5.61091 c -1.32817,-0.77359 -2.65972,-3.4739 -2.65558,-5.38531 0.002,-0.91306 1.29153,-3.67011 3.08948,-6.60531 3.64505,-5.95071 6.40879,-12.78838 6.83393,-16.90755 0.60822,-5.89296 -2.36432,-10.07244 -9.84196,-13.83811 -4.15147,-2.09064 -4.56316,-2.62445 -4.56316,-5.91654 0,-1.70645 0.35123,-2.43914 1.72232,-3.59284 2.27212,-1.91188 3.52037,-1.83173 8.23926,0.52905 4.87216,2.43743 8.84557,5.94442 11.89947,10.50263 2.15341,3.21415 2.30531,3.68617 2.03726,6.33131 -0.1593,1.57204 -1.03294,4.34298 -1.9414,6.15768 -2.54656,5.08682 -7.4024,20.48467 -7.4024,23.47298 0,2.10964 -0.30039,2.88442 -1.63631,4.22034 -1.70847,1.70845 -3.93631,2.10604 -5.78091,1.03167 z m 20.54681,-19.80222 c -0.77227,-0.77227 -1.37402,-2.02821 -1.37402,-2.86775 0,-0.82154 2.48447,-6.18598 5.52108,-11.92095 6.494,-12.26471 15.76823,-30.17324 19.31494,-37.2971 2.1791,-4.37693 2.38531,-5.08344 1.57132,-5.38353 -0.51533,-0.18997 -5.30324,-1.05184 -10.63981,-1.91527 -11.3024,-1.82864 -12.4088,-2.36834 -12.4088,-6.05299 0,-2.15493 0.29674,-2.6411 3.49868,-5.73191 1.92426,-1.8575 5.01962,-4.74713 6.87857,-6.42141 1.85894,-1.67427 13.9213,-12.74247 26.80523,-24.596 35.97069,-33.0939 32.64636,-30.27789 35.53374,-30.10023 3.03884,0.18697 4.80146,2.16691 4.76597,5.35358 -0.0221,1.98387 -2.44267,6.45223 -22.40816,41.36541 -0.7373,1.28927 -1.1502,2.46098 -0.91758,2.60382 0.70347,0.43187 11.79407,2.01671 18.05473,2.57999 6.77197,0.6093 7.83861,1.31831 7.83861,5.21047 0,2.10954 -0.37792,2.64458 -5.73782,8.12291 -3.15582,3.22555 -17.57737,17.2712 -32.04792,31.21256 -14.47054,13.94136 -28.95058,28.01745 -32.17786,31.28018 -5.65058,5.71265 -5.95716,5.93224 -8.28232,5.93224 -1.81722,0 -2.75447,-0.33991 -3.78858,-1.37402 z m 51.38607,-56.8521 c 7.92801,-7.53451 14.41456,-13.8604 14.41456,-14.05755 0,-0.19714 -1.5744,-0.53083 -3.49868,-0.74153 -1.92428,-0.21072 -6.63138,-0.96191 -10.46022,-1.66935 -6.02652,-1.11349 -7.13553,-1.48851 -8.25689,-2.79217 -0.71244,-0.82826 -1.29534,-1.91603 -1.29534,-2.41728 0,-0.75512 5.07611,-10.1064 12.23386,-22.53734 1.36581,-2.37202 1.10828,-2.20418 -4.41207,2.87558 -3.22439,2.96704 -11.60995,10.62097 -18.63456,17.00873 -7.02462,6.38775 -12.56653,11.79635 -12.31536,12.0191 0.25118,0.22276 4.23525,1.07266 8.85351,1.88868 7.29947,1.28978 8.56144,1.67005 9.65636,2.90982 2.13294,2.41511 1.66556,4.11666 -4.12505,15.0179 -2.9615,5.57527 -6.52223,12.27803 -7.91271,14.89504 l -2.52817,4.75822 6.9331,-6.72938 c 3.8132,-3.70115 13.41965,-12.89397 21.34766,-20.42847 z m -99.62926,36.96542 c -0.99133,-0.60286 -1.9592,-1.72076 -2.15082,-2.48423 -0.20851,-0.83081 0.55622,-5.05176 1.90477,-10.51341 2.50506,-10.14546 7.36982,-32.87052 7.37089,-34.43207 5.6e-4,-0.9219 -0.58222,-0.98854 -7.18443,-0.82137 -7.01364,0.17756 -7.22569,0.14777 -8.88514,-1.24858 -1.86026,-1.5653 -2.65013,-4.10308 -1.88952,-6.0709 0.44208,-1.14366 30.44681,-43.87274 38.81735,-55.27889 2.15547,-2.93717 4.27988,-5.18015 5.55089,-5.8607 1.95307,-1.04574 2.15904,-1.05477 4.00338,-0.17526 1.34421,0.64101 2.14093,1.52271 2.5811,2.85643 0.58318,1.76706 0.26357,3.05219 -3.8024,15.28956 -5.85971,17.63594 -7.34353,22.54427 -6.89367,22.80356 0.20526,0.11823 3.52149,0.39794 7.3694,0.62139 8.75714,0.50856 11.19694,1.65217 11.19694,5.24845 0,0.61163 -9.20894,16.47362 -20.46432,35.24885 -21.02656,35.07471 -20.62904,34.49942 -24.60056,35.60194 -0.62834,0.17444 -1.91399,-0.17064 -2.92386,-0.78477 z m 18.42871,-39.19648 c 5.82813,-9.48314 15.00552,-25.19656 15.00552,-25.69231 0,-0.25142 -2.33012,-0.62644 -5.17804,-0.83334 -7.02675,-0.51054 -8.52441,-0.82841 -9.88782,-2.09861 -1.77914,-1.65752 -1.48611,-4.64888 1.06798,-10.90205 1.22978,-3.01092 1.99682,-5.23523 1.7045,-4.94291 -0.2923,0.2923 -4.41998,5.94615 -9.17261,12.56408 -5.77716,8.04459 -8.42936,12.1786 -8.00214,12.47303 0.35146,0.24223 3.08041,0.27908 6.06434,0.0819 5.29512,-0.3499 5.45971,-0.32413 6.8574,1.07357 1.96774,1.96773 2.03782,4.59078 0.30885,11.55917 -0.57293,2.30913 -1.32423,5.78853 -1.66955,7.73199 -0.34532,1.94348 -0.78002,3.95872 -0.96599,4.47831 -0.56656,1.58303 0.10544,0.62864 3.86756,-5.49283 z M 76.957177,142.88611 c 0.570397,-3.85699 3.204241,-10.29829 5.540848,-13.55068 l 2.02555,-2.81942 -2.042961,-2.66086 c -3.876867,-5.04947 -6.349333,-12.19699 -6.349333,-18.35498 0,-4.31201 1.308763,-5.85775 4.95968,-5.85775 3.535371,0 4.793972,1.54534 5.583829,6.85597 0.830679,5.58506 2.01168,8.42121 4.368308,10.49036 2.278542,2.00058 2.421002,2.01291 6.285602,0.54406 6.02243,-2.28899 13.78415,-2.04069 20.07421,0.64217 l 2.36632,1.0093 1.64854,-1.38718 c 2.30457,-1.93914 3.86251,-5.46216 4.8175,-10.89382 1.01199,-5.75597 2.18154,-7.26086 5.64281,-7.26086 1.97956,0 2.62025,0.29534 3.87473,1.78621 1.41105,1.67695 1.47912,2.01085 1.11276,5.45796 -0.58756,5.52828 -2.80642,11.85874 -5.63508,16.07703 l -2.51929,3.75691 1.62576,2.27497 c 2.38499,3.33738 4.46801,7.69832 5.4165,11.33981 1.51616,5.82094 4.93889,5.2098 -29.17724,5.2098 H 76.563949 Z"
     id="path71"
     inkscape:export-filename="..\Matrix\Program_BioFeedBack.svg"
     inkscape:export-xdpi="96"
     inkscape:export-ydpi="96" /><path
     style="fill:#ffffff;stroke:none;stroke-width:0;stroke-linecap:round;stroke-linejoin:round"
     d="m 171.76836,395.37595 c -2.58642,-4.60094 -3.34737,-8.22398 -3.39667,-16.17243 -0.0319,-5.14724 -0.38164,-7.31007 -1.33639,-8.26482 -0.45169,-0.45168 -1.9651,-0.93665 -4.33626,-1.38953 -6.91297,-1.32035 -11.41237,-3.57554 -15.72848,-7.88344 -5.61242,-5.60174 -8.69015,-13.69432 -7.99429,-21.02019 0.29424,-3.09778 1.53513,-8.51067 2.14098,-9.33923 0.44481,-0.6083 0.68492,-0.53783 3.67422,1.07846 3.96001,2.14113 9.54081,4.03698 14.20172,4.82444 5.66867,0.95772 6.44267,0.3371 8.24919,-6.61433 1.57883,-6.07534 2.76283,-8.33366 5.94122,-11.33198 3.691,-3.4819 6.20825,-4.56335 13.56342,-5.827 1.78375,-0.30647 3.80277,-2.29262 4.13596,-4.06864 0.31156,-1.66078 -0.30672,-3.77376 -1.47224,-5.03136 -0.8551,-0.92268 -1.07157,-0.96917 -4.51197,-0.96917 -8.27923,0 -16.28774,3.76832 -21.37863,10.05951 -1.65218,2.04173 -5.09329,8.35343 -6.02859,11.05767 -0.36696,1.06097 -0.5317,1.17357 -1.43487,0.98064 -0.56117,-0.11987 -2.66497,-1.02382 -4.6751,-2.00877 -6.21367,-3.04465 -10.70272,-7.52405 -13.72269,-13.69318 -2.34944,-4.79937 -3.00197,-7.65933 -3.00197,-13.15723 0,-8.3495 2.16532,-14.18341 8.32674,-22.43433 1.35008,-1.80794 2.68071,-3.37388 2.95695,-3.47989 0.31264,-0.11996 1.07366,0.59596 2.01586,1.8964 4.31976,5.96222 10.71407,10.81631 16.26689,12.34865 2.67264,0.73752 4.40952,0.50859 5.9452,-0.7836 2.18025,-1.83456 2.47068,-5.86137 0.56613,-7.84929 -0.55797,-0.58239 -1.85137,-1.33009 -2.87423,-1.66156 -7.22104,-2.34001 -12.48666,-8.40542 -14.46648,-16.66379 -2.19759,-9.16675 0.84272,-18.87066 8.37866,-26.74263 2.25657,-2.35719 6.49185,-5.71857 7.19832,-5.71304 0.17548,0.001 0.72003,0.59118 1.21009,1.31069 1.20635,1.77113 4.78121,4.96497 7.82898,6.99454 4.50459,2.99969 10.49272,4.80792 16.01737,4.83675 2.82182,0.0148 4.10288,-0.38501 5.49753,-1.71543 2.0768,-1.98119 2.08608,-4.6161 0.0249,-7.06571 -1.33441,-1.58586 -2.70604,-2.16959 -5.11497,-2.17681 -2.8922,-0.008 -6.81252,-0.88709 -9.24011,-2.07044 -3.77379,-1.83959 -7.27665,-6.13168 -8.39565,-10.28731 -0.54892,-2.03855 -0.5409,-6.40351 0.0159,-8.68255 1.08821,-4.45367 4.28198,-9.71775 7.72118,-12.72629 8.31757,-7.276 19.66014,-6.88069 26.78386,0.93346 2.40427,2.6373 3.57051,4.86693 4.75118,9.08338 1.1097,3.96304 1.95432,5.53835 3.29756,6.15038 3.2848,1.49665 7.4841,-1.21974 7.4841,-4.84124 0,-3.04861 -2.43916,-10.2131 -4.67622,-13.73542 -1.93918,-3.05327 -6.12364,-7.18835 -9.48608,-9.3741 -1.65836,-1.07802 -3.01519,-2.09459 -3.01519,-2.25903 0,-0.52673 2.47197,-3.79705 4.27516,-5.65586 7.33974,-7.56614 18.95107,-9.53581 28.29667,-4.80004 0.93904,0.47585 2.95788,1.87119 4.48633,3.10077 l 2.779,2.23558 -0.005,110.8017 c -0.003,60.94094 -0.10416,111.17175 -0.22536,111.62403 l -0.22039,0.82233 h -22.61703 c -21.39423,0 -22.61705,-0.0349 -22.61705,-0.64694 0,-1.33692 1.5236,-6.07241 2.71476,-8.43773 0.67974,-1.34979 1.99122,-3.29427 2.9144,-4.32107 l 1.67851,-1.86691 2.83341,1.12812 c 2.49575,0.99368 3.27878,1.13061 6.57082,1.14908 3.72379,0.0209 3.74164,0.0168 4.90181,-1.14172 0.95192,-0.95053 1.19429,-1.52316 1.32822,-3.13816 0.27893,-3.36349 -1.21378,-5.2972 -4.48512,-5.8102 -4.43202,-0.695 -9.74041,-4.00576 -12.37296,-7.71682 -2.96493,-4.17959 -5.70826,-10.63344 -5.19882,-12.23061 0.11258,-0.35295 1.51223,-1.97863 3.11033,-3.61262 6.18805,-6.32701 9.77334,-14.18896 8.82343,-19.34838 -0.39409,-2.14049 -0.91215,-2.8678 -2.72941,-3.83186 -1.52291,-0.8079 -1.77707,-0.83918 -3.40067,-0.41857 -2.44795,0.63418 -3.52891,1.93713 -4.24771,5.1201 -1.15322,5.10664 -4.03269,9.4303 -8.15719,12.24845 -3.66072,2.50125 -6.99085,3.54923 -12.40454,3.90364 -4.74739,0.3108 -5.51581,0.54533 -6.69386,2.04297 -1.64667,2.09341 -1.33027,5.33797 0.71091,7.28999 l 1.13067,1.08126 6.82955,-0.10494 6.82955,-0.10492 0.63618,2.4256 c 0.84597,3.22542 3.02259,7.80094 5.35593,11.2588 l 1.89946,2.81487 -1.40042,1.59096 c -1.60869,1.82756 -4.78395,7.77096 -5.87271,10.99242 -0.84363,2.49616 -1.90341,7.37136 -1.90341,8.75608 v 0.92911 h -9.98548 -9.98548 z m 60.54133,-83.04187 c 1.974,-1.0208 2.94921,-2.5993 2.94921,-4.77368 0,-3.3849 -1.08594,-10.42939 -2.05083,-13.30376 -1.99774,-5.95119 -5.95543,-12.10428 -10.52119,-16.35751 -2.33572,-2.17583 -2.41259,-2.30421 -2.41259,-4.02871 0,-3.93574 2.46298,-9.89925 5.2322,-12.66847 0.84667,-0.84667 2.96532,-2.40069 4.70812,-3.45339 3.28999,-1.98725 4.88599,-3.51169 5.26737,-5.03118 0.51395,-2.0478 -0.93483,-5.36723 -2.62265,-6.00894 -3.32649,-1.26472 -9.61486,1.49491 -14.59503,6.40499 -4.24817,4.18838 -6.69227,8.61116 -7.99532,14.46808 -0.80335,3.61093 -1.35047,4.39283 -2.89039,4.13074 -7.1604,-1.21871 -12.66688,-4.58862 -16.95377,-10.37556 -1.26571,-1.70861 -2.93323,-3.80554 -3.70558,-4.65985 -1.23484,-1.36586 -1.59268,-1.55328 -2.96564,-1.55328 -3.14539,0 -5.88381,2.38525 -5.8668,5.11017 0.0233,3.73065 6.19073,11.6513 12.5871,16.16522 5.221,3.68445 9.39807,5.21499 15.75289,5.77207 5.20228,0.45606 6.58195,1.05223 9.66502,4.17629 5.35724,5.4285 7.72893,10.75044 8.79981,19.74626 0.41078,3.45076 0.76398,4.30076 2.42842,5.84412 1.17395,1.08854 3.50662,1.26672 5.18965,0.39639 z"
     id="path72" /><path
     style="fill:#ffffff;stroke:none;stroke-width:0;stroke-linecap:round;stroke-linejoin:round"
     d="m 53.981549,397.67049 -31.979372,-0.19304 -2.192871,-1.07272 c -2.951451,-1.44381 -5.697235,-4.32212 -7.297994,-7.65023 L 11.22056,386.07092 V 226.12104 66.17116 H 248.41613 485.6117 v 160.30026 160.30026 l -1.32706,2.52538 c -1.37478,2.61625 -4.60174,5.9919 -6.82908,7.14377 -1.91784,0.99182 -9.50967,1.15404 -67.28598,1.43773 -53.52896,0.26282 -54.42213,0.25569 -54.1278,-0.43241 1.22114,-2.85482 2.77196,-8.24601 3.25908,-11.32969 0.88009,-5.57131 0.90464,-5.61319 4.16124,-7.09568 13.2185,-6.01744 20.94208,-17.83994 22.21622,-34.00644 0.43697,-5.54433 -0.84788,-11.88545 -3.65753,-18.0508 l -1.19497,-2.62217 2.14181,-2.90364 c 2.96158,-4.01502 5.95672,-10.15981 7.11595,-14.59895 1.17143,-4.48581 1.58691,-12.49785 0.8777,-16.92487 -1.29713,-8.09648 -5.17109,-15.75565 -11.12792,-22.00077 -2.40653,-2.52298 -1.86584,-2.42197 -6.97179,-1.30243 -1.40709,0.30853 -3.75073,0.56381 -5.20807,0.5673 -1.89369,0.004 -2.64972,0.13864 -2.64972,0.47005 0,0.25504 1.65831,2.10527 3.68512,4.11162 2.02683,2.00637 4.39832,4.5639 5.26999,5.6834 7.61076,9.77462 9.07859,21.37475 3.98812,31.51777 -1.68857,3.36463 -2.94019,5.1361 -6.42505,9.09365 -4.77431,5.42189 -4.93211,6.48209 -1.58376,10.64122 2.84902,3.5389 3.74101,5.21766 4.62065,8.6962 1.84431,7.29323 -0.4125,16.79582 -5.78866,24.37398 -0.89674,1.26404 -2.47416,2.96516 -3.50538,3.7803 -2.35879,1.86451 -6.65824,4.03946 -9.97938,5.04822 -3.32762,1.01074 -4.83306,1.95629 -5.42765,3.40904 -0.26558,0.64888 -0.60178,3.39976 -0.74711,6.11306 -0.37776,7.05286 -1.5991,11.17464 -4.82357,16.27858 l -1.02929,1.62926 -21.6872,6.6e-4 -21.68721,6.5e-4 -1.57569,-1.62127 c -2.03121,-2.08997 -3.53028,-2.42621 -5.83743,-1.30933 -0.9101,0.44056 -1.93776,1.28018 -2.2837,1.86582 l -0.62898,1.06478 h -14.29888 -14.29888 l -0.24146,-9.92731 c -0.1328,-5.46 -0.24146,-56.26066 -0.24146,-112.89033 V 172.24499 l 1.50758,-1.36202 c 3.02499,-2.7329 7.84362,-4.1914 13.87543,-4.19981 6.74397,-0.009 11.70804,1.79844 17.16391,6.25087 3.27658,2.67396 4.319,3.24692 5.90155,3.24376 1.95542,-0.004 4.1451,-1.8377 5.05641,-4.2346 0.62906,-1.65457 -0.40502,-3.7682 -3.0574,-6.2493 -5.64133,-5.27701 -13.77415,-8.95651 -22.09166,-9.99485 -7.27388,-0.90805 -16.62644,1.55184 -23.39979,6.15457 l -1.93739,1.31652 -4.64122,-2.42648 c -2.55267,-1.33457 -6.1214,-2.88123 -7.93052,-3.43704 -3.0514,-0.93744 -3.7387,-1.00987 -9.50245,-1.00135 -5.67533,0.008 -6.49784,0.0945 -9.50243,0.99441 -8.95186,2.68126 -16.49667,8.66722 -21.82028,17.31191 -1.81623,2.94929 -1.87588,3.00333 -3.53627,3.20391 -6.39517,0.77259 -11.36504,2.55672 -16.21118,5.81962 -3.88229,2.61395 -3.70563,2.60918 -7.25945,0.19583 -4.80499,-3.26301 -5.45511,-3.43257 -13.6895,-3.57059 l -7.32941,-0.12285 -1.76754,-5.35933 c -0.97215,-2.94763 -1.83067,-5.52951 -1.90784,-5.7375 -0.0771,-0.20799 2.28726,-2.42828 5.25425,-4.93396 6.71274,-5.66903 11.41197,-10.32071 12.35585,-12.23084 0.65467,-1.32485 0.73403,-2.38664 0.84644,-11.32535 0.13652,-10.85551 -0.0159,-11.99766 -1.80163,-13.50025 -0.94761,-0.79736 -1.47626,-0.94063 -3.47081,-0.94063 -2.14568,0 -2.46684,0.10463 -3.64607,1.1878 -0.81883,0.75215 -1.41689,1.724 -1.63056,2.64973 -0.1856,0.80404 -0.34137,5.10284 -0.34617,9.55287 l -0.008,8.09095 -6.46,5.74716 -6.46,5.74715 -1.56648,-1.77732 c -0.86156,-0.97753 -1.57281,-1.90067 -1.58053,-2.05143 -0.007,-0.15076 -15.10374,-0.26612 -33.54669,-0.25636 l -33.532662,0.0178 -1.613968,1.97503 -1.613968,1.97503 -1.384722,-1.09672 c -0.761599,-0.60319 -3.694665,-3.23505 -6.517929,-5.84857 l -5.133208,-4.75185 v -9.22975 -9.22973 l -1.187806,-1.14572 c -2.817894,-2.71803 -5.775394,-2.57879 -8.645045,0.40705 l -1.244107,1.29447 0.21764,9.97517 c 0.260234,11.92738 0.46497,12.9134 3.304796,15.91609 1.038233,1.09778 4.895373,4.55125 8.571414,7.67437 3.676046,3.12311 6.613708,5.86011 6.528138,6.08222 -0.08556,0.22209 -0.872529,2.82792 -1.748804,5.7907 l -1.593223,5.38688 -6.23817,0.004 c -7.363742,0.004 -9.110536,0.39501 -12.473196,2.7875 -3.261907,2.32081 -8.328618,7.2288 -9.065375,8.78141 -1.645959,3.4686 0.884554,7.4399 4.740706,7.4399 1.583189,0 3.082448,-0.91137 7.123667,-4.33033 1.682412,-1.42336 3.591063,-2.84043 4.241447,-3.14906 1.700247,-0.80682 9.007233,-0.797 9.817422,0.0132 0.31588,0.31587 0.574324,0.62912 0.574324,0.6961 0,1.34062 1.251092,10.96865 1.685218,12.96893 l 0.591801,2.72678 -7.337555,7.15415 c -4.780723,4.66123 -7.53383,7.62391 -7.900823,8.50225 -0.45218,1.08221 -0.610825,3.83854 -0.804413,13.97594 l -0.241146,12.62786 1.064433,1.11966 c 1.456364,1.53192 2.763447,2.15084 4.542356,2.15084 1.764721,0 2.668241,-0.40935 4.288495,-1.94295 l 1.187806,-1.12427 V 239.5514 228.50823 l 3.746155,-3.53977 c 2.060385,-1.94689 4.194915,-3.86144 4.743404,-4.25457 l 0.997244,-0.71477 1.323686,2.12082 c 2.879716,4.61391 4.115154,6.24047 7.174588,9.446 7.494489,7.85236 17.362494,12.88049 27.02167,13.76861 10.13595,0.93195 19.69071,-1.38224 28.05976,-6.79615 4.65654,-3.01231 12.85558,-11.59698 15.42605,-16.15158 0.6157,-1.09096 1.24319,-2.06004 1.39445,-2.15352 0.26701,-0.16502 4.52477,3.17379 5.37991,4.21878 0.33921,0.41453 0.0645,1.01341 -1.35832,2.9609 -6.36966,8.71855 -8.75582,16.35675 -8.25117,26.4123 l 0.23972,4.7767 -3.22829,3.28619 c -11.27297,11.47513 -16.90066,26.40034 -15.02886,39.85805 0.84208,6.05429 3.19765,12.44589 6.56737,17.81981 l 2.14632,3.42289 -1.24294,2.88936 c -2.41261,5.60838 -2.911,8.31269 -2.88998,15.68109 0.0148,5.19239 0.17606,7.311 0.76525,10.05432 2.73021,12.71232 12.0116,22.83148 24.66324,26.88942 l 3.17305,1.01774 0.2212,2.76524 c 0.36908,4.6138 1.30141,9.92688 2.23424,12.73221 0.486,1.46158 0.88363,2.73618 0.88363,2.83246 0,0.20261 -60.12545,0.10109 -106.719727,-0.18013 z m 268.109871,-6.39312 c 2.44513,-1.60212 2.92777,-4.81431 1.65206,-10.99535 -1.35554,-6.56779 -4.25272,-11.83374 -9.37436,-17.03901 -2.3333,-2.37141 -6.31373,-5.4588 -7.58339,-5.88202 -0.16618,-0.0554 0.17806,-1.41317 0.76498,-3.01728 1.38829,-3.79428 1.93985,-6.87316 2.0189,-11.26973 l 0.0642,-3.56964 -1.53913,-1.43954 c -1.39291,-1.30276 -1.72277,-1.43902 -3.47205,-1.43414 -3.81677,0.0106 -4.70903,1.234 -5.59929,7.67723 -0.69761,5.04883 -1.64678,7.31834 -4.18173,9.99867 -3.17647,3.35866 -7.4113,4.61291 -15.57501,4.61291 -2.87382,0 -3.48182,0.11078 -4.34825,0.79231 -2.88381,2.26841 -2.53768,6.91677 0.65105,8.74345 1.44923,0.83019 1.87012,0.88009 7.38448,0.87531 6.6041,-0.006 8.18578,-0.34381 13.08375,-2.79666 l 2.85035,-1.42743 1.90087,1.00425 c 1.05348,0.55657 3.36908,2.47679 5.19436,4.30745 4.48387,4.49708 6.30138,8.02203 7.67019,14.87587 0.69502,3.48007 1.76574,5.38747 3.52727,6.28354 1.42856,0.7267 3.54059,0.59759 4.91078,-0.30019 z m 31.22077,-38.66241 c 2.94607,-2.00507 3.59121,-4.55709 1.9843,-7.8494 -1.31743,-2.69923 -6.98947,-8.44071 -10.75951,-10.89123 -1.5076,-0.97993 -2.84685,-1.93547 -2.9761,-2.12342 -0.12927,-0.18794 -0.34668,-1.75844 -0.48316,-3.48996 -0.31537,-4.00133 -1.35247,-9.13239 -2.7383,-13.54768 -0.59648,-1.90044 -1.04958,-3.48166 -1.00689,-3.51383 0.0427,-0.0322 1.22888,-0.42782 2.63597,-0.87921 7.34821,-2.35727 13.99321,-8.06494 17.23166,-14.80098 1.96954,-4.0967 1.46994,-6.74833 -1.6702,-8.86447 -2.75909,-1.85936 -5.10105,-0.69971 -7.92895,3.92615 -2.19933,3.59763 -4.71361,6.00457 -8.16917,7.82042 -2.53354,1.33133 -5.99367,2.40703 -7.74259,2.40703 -0.68067,0 -1.75861,-0.64456 -3.38392,-2.02339 l -2.38506,-2.02339 2.21274,-2.98432 c 4.44241,-5.99148 5.23271,-8.48318 5.24672,-16.54227 l 0.0103,-5.84765 -1.31519,-2.74109 c -2.47053,-5.14902 -6.59957,-9.11239 -12.57299,-12.0685 -7.03292,-3.48045 -12.89561,-3.39001 -14.61124,0.2254 -0.81916,1.72626 -0.52525,4.30513 0.63438,5.56627 1.01885,1.10805 4.14826,2.61369 5.44234,2.61847 1.5542,0.006 7.41538,3.14514 9.19571,4.92547 2.38797,2.38797 2.98527,3.85449 2.98978,7.34059 0.003,2.66228 -0.12495,3.20223 -1.34708,5.66492 -0.91358,1.84088 -2.10137,3.46304 -3.6691,5.0108 l -2.3182,2.28868 -2.64457,-0.89947 c -3.74975,-1.27537 -7.90211,-1.79554 -12.63247,-1.58248 -6.78947,0.30582 -11.70823,2.5689 -16.38981,7.54084 -4.0976,4.35173 -5.5585,8.15708 -5.99814,15.62394 l -0.2392,4.06241 1.54852,1.67994 c 1.88623,2.04632 2.47961,2.25735 4.78934,1.70325 3.0448,-0.73043 3.57007,-1.72271 4.73606,-8.94687 0.98331,-6.09218 5.17092,-9.98313 12.05953,-11.20515 1.51584,-0.2689 2.64356,-0.22435 4.56848,0.18048 12.1728,2.56008 21.41489,12.24723 24.11429,25.27552 0.33319,1.60811 0.73857,5.47305 0.90086,8.58875 0.16564,3.18024 0.49937,6.1035 0.76088,6.66486 0.56354,1.2097 1.52533,1.87173 4.1409,2.85033 3.32091,1.24252 6.17707,3.36377 9.15828,6.80178 3.2754,3.77726 4.6927,4.88078 6.26862,4.88078 0.62924,0 1.68778,-0.37004 2.35232,-0.82232 z m 16.30118,-91.06969 c 2.38956,-0.48831 11.16995,-2.36672 19.51199,-4.17423 17.28048,-3.74425 21.33445,-4.55384 33.10275,-6.61076 15.96249,-2.79 27.14858,-5.18118 28.44161,-6.07979 1.22644,-0.85233 2.04401,-2.47657 2.0465,-4.06573 0.003,-1.81052 -0.6465,-2.65731 -8.74875,-11.40895 -5.11359,-5.52347 -5.20058,-5.64505 -4.44638,-6.21395 0.42308,-0.31915 6.23817,-3.70473 12.92244,-7.52354 6.68424,-3.8188 12.62421,-7.40168 13.19992,-7.96194 0.97992,-0.95359 1.03719,-1.16928 0.89662,-3.37674 -0.18266,-2.869 -1.04848,-4.22425 -3.01728,-4.7229 -1.08631,-0.27515 -6.97091,0.39382 -28.4723,3.23677 -35.18276,4.65193 -36.22778,4.80828 -38.05794,5.69425 -2.62224,1.2694 -3.12433,3.81233 -1.31584,6.66405 0.58806,0.92727 2.60736,3.46755 4.48731,5.6451 5.27496,6.10992 6.28426,7.43428 5.92185,7.77043 -0.18219,0.16899 -4.92252,2.80586 -10.53408,5.8597 -14.40076,7.83698 -27.75857,15.56243 -33.54549,19.40095 -2.89588,1.92087 -2.85728,5.31914 0.0886,7.79791 1.40129,1.17911 2.05845,1.18517 7.5185,0.0694 z m -87.57088,-9.71221 c 1.8154,-0.92615 2.10934,-1.49878 2.77432,-5.40476 1.00127,-5.88121 4.84878,-12.04002 9.06491,-14.51042 2.28411,-1.33835 7.84298,-3.03064 13.92467,-4.2391 5.97038,-1.18634 7.7441,-1.99963 8.79558,-4.03295 0.73781,-1.42679 0.4464,-3.87477 -0.62311,-5.23444 -1.67275,-2.12657 -3.89415,-2.4495 -10.1826,-1.48034 -5.47464,0.84375 -4.97902,1.1476 -5.21616,-3.19794 -0.34573,-6.33534 -3.03507,-12.96503 -6.73883,-16.61238 -2.51701,-2.47866 -6.60564,-4.90429 -8.60992,-5.1079 -2.8612,-0.29068 -5.38002,2.19353 -5.3827,5.30873 -0.002,2.1976 0.71226,3.19894 4.0278,5.64756 4.80963,3.55205 6.2873,6.67361 6.3508,13.41607 0.0448,4.75399 -0.18078,5.16925 -4.71505,8.68063 -6.60214,5.11275 -9.81932,10.68918 -11.15448,19.33437 -0.28453,1.84231 -0.29124,3.03574 -0.0226,4.03309 0.36521,1.35629 2.16419,3.45666 3.31937,3.87546 1.17106,0.42458 3.01533,0.22464 4.38808,-0.47568 z m 88.99455,-10.09358 c 2.14031,-1.33085 3.98325,-2.65893 4.09543,-2.95127 0.38537,-1.00427 -0.62235,-3.28187 -3.1361,-7.08801 -2.33945,-3.54222 -5.38628,-6.91136 -6.25017,-6.91136 -0.71581,0 -8.05199,3.02657 -8.05199,3.32188 0,0.16433 1.04575,1.47665 2.32388,2.91626 3.62643,4.08458 6.41936,9.26557 6.43893,11.94442 0.005,0.65329 0.16165,1.1878 0.34861,1.1878 0.18698,0 2.0911,-1.08888 4.23141,-2.41972 z m -29.60178,-6.35645 c 1.40315,-1.36 1.83685,-2.47805 2.1577,-5.56247 0.28489,-2.73861 3.42002,-13.09834 5.53664,-18.29523 4.1381,-10.16021 4.40411,-11.94375 2.31169,-15.49966 -2.86467,-4.86829 -9.8182,-10.73659 -15.26702,-12.88432 -3.07961,-1.21387 -4.82926,-0.8361 -6.76111,1.45977 -0.79379,0.94336 -0.95723,1.50245 -0.95723,3.27439 0,2.66387 0.81195,3.74991 4.09285,5.47436 3.34114,1.75612 6.62955,4.16562 7.93551,5.81453 3.99688,5.04648 2.75568,12.06214 -4.3718,24.71075 -3.26036,5.78592 -3.52111,6.57218 -2.90696,8.76569 0.26658,0.95213 1.0246,2.29555 1.69833,3.00992 1.16342,1.23358 1.30587,1.28286 3.24385,1.12215 1.68258,-0.13954 2.24117,-0.37569 3.28755,-1.38988 z m 21.3857,-18.15565 c 0.49701,-0.33956 6.65994,-6.22005 13.69539,-13.06778 7.03546,-6.84772 20.52162,-19.92306 29.96925,-29.05632 21.61374,-20.89458 30.208,-29.45768 31.1983,-31.0852 0.87006,-1.42994 1.04552,-4.13642 0.36493,-5.6301 -0.67076,-1.47222 -2.29254,-1.94644 -9.45178,-2.76384 -6.70226,-0.76521 -15.73134,-2.09885 -15.99502,-2.36254 -0.21319,-0.21319 1.07889,-2.61768 6.49458,-12.08593 8.25284,-14.42839 13.53532,-23.92484 15.24755,-27.41088 1.39357,-2.83727 1.59385,-3.53163 1.45731,-5.05256 -0.26256,-2.92502 -1.73464,-4.33221 -5.03885,-4.81672 -2.48292,-0.36408 0.85631,-3.23952 -43.67228,37.60643 -30.34795,27.8381 -29.03066,26.50292 -29.03066,29.42489 0,2.77302 0.98186,3.79168 4.57304,4.74441 1.1703,0.31048 18.09837,3.33146 18.66782,3.33146 0.95328,0 -2.00487,6.07443 -15.48449,31.79664 -10.71641,20.44936 -11.48392,22.18121 -10.68496,24.11006 0.82581,1.99371 2.33442,2.93535 4.70271,2.93535 1.35545,0 2.39928,-0.21574 2.98716,-0.61737 z M 312.69459,196.8534 c 1.46906,-0.75968 3.46284,-3.09592 6.06385,-7.10536 5.34963,-8.24644 34.01565,-56.42418 36.55866,-61.44257 1.26191,-2.49027 1.00867,-4.11563 -0.83418,-5.35406 -1.63219,-1.09685 -3.69821,-1.48619 -10.52664,-1.98376 -3.19834,-0.23305 -5.95499,-0.55298 -6.12588,-0.71095 -0.40762,-0.3768 0.6606,-3.99096 5.99373,-20.27878 2.43526,-7.43748 4.50758,-14.34503 4.60515,-15.35009 0.21939,-2.26021 -0.64923,-4.02977 -2.45292,-4.9971 -3.263,-1.74996 -5.68662,-0.15604 -11.21047,7.3727 -8.67446,11.82289 -37.28842,52.73712 -37.78193,54.02325 -0.17856,0.46536 -0.32467,1.21172 -0.32467,1.65859 0,1.35707 1.56982,4.01828 2.88651,4.89328 1.17934,0.78374 1.58923,0.82528 8.14337,0.82528 5.63489,0 6.93818,0.0955 7.10129,0.52061 0.29904,0.77926 -2.41866,13.96932 -6.46782,31.39087 -2.61054,11.2319 -2.94386,13.79642 -1.94,14.92591 1.80122,2.02661 4.28415,2.66079 6.31195,1.61218 z M 135.3626,145.15486 c 0.63717,-0.25129 1.24866,-0.69185 1.35884,-0.97901 0.31275,-0.81499 -1.49178,-6.60996 -3.06505,-9.84294 -0.78255,-1.60811 -2.14479,-3.98756 -3.0272,-5.28766 l -1.60439,-2.36384 1.95366,-2.99718 c 3.31445,-5.08482 5.56261,-11.50493 6.12563,-17.49317 0.19996,-2.12679 0.12352,-2.77414 -0.45317,-3.83752 -1.9651,-3.62355 -7.32459,-3.99732 -9.08226,-0.63341 -0.33958,0.6499 -1.0699,3.17997 -1.62295,5.62239 -1.21519,5.36671 -2.32736,7.83219 -4.49017,9.95392 l -1.63397,1.60293 -2.35407,-0.9424 c -6.22146,-2.49063 -13.62707,-2.73442 -20.03181,-0.65947 -1.93041,0.6254 -3.70209,1.13708 -3.93706,1.13708 -0.788315,0 -3.756907,-3.06005 -4.619005,-4.76132 -0.46937,-0.92627 -1.282169,-3.71485 -1.806217,-6.19688 -0.524045,-2.48202 -1.20703,-5.04849 -1.517741,-5.70326 -1.475368,-3.10911 -7.664089,-3.13223 -8.9721,-0.0335 -0.315817,0.74817 -0.471182,2.46408 -0.436143,4.81695 0.08945,6.00658 2.444466,12.4766 6.507385,17.8779 l 1.626526,2.16234 -1.060853,1.33943 c -2.544425,3.2126 -5.859842,10.90224 -6.395904,14.83439 -0.134642,0.98764 -0.328857,2.09789 -0.431586,2.46722 -0.180386,0.64853 0.805884,0.66643 28.812158,0.52273 22.04349,-0.11311 29.27681,-0.25839 30.15745,-0.60569 z"
     id="path73" /><path
     style="fill:#ffffff;stroke:none;stroke-width:0;stroke-linecap:round;stroke-linejoin:round"
     d="m 285.34162,423.03245 c -2.18776,-0.19369 -3.72956,-0.46421 -5.42708,-0.95222 -6.25858,-1.79926 -10.98958,-5.29724 -14.35886,-10.61661 -0.45096,-0.71196 -1.53473,-2.65829 -1.53473,-2.75621 0,-0.024 6.85059,-0.0435 15.22352,-0.0435 H 294.468 l 1.24132,1.21586 c 2.44596,2.39578 4.54655,4.00507 8.02899,6.15111 0.71932,0.44327 1.30798,0.82049 1.30811,0.83826 3.9e-4,0.0469 -1.98266,1.3165 -2.77748,1.77821 -4.07486,2.36702 -8.18754,3.75946 -12.59858,4.26549 -0.8284,0.095 -3.70785,0.17464 -4.32874,0.11967 z"
     id="path74" /><path
     style="fill:#ffffff;stroke:none;stroke-width:0;stroke-linecap:round;stroke-linejoin:round"
     d="m 319.7701,409.21716 c -1.62748,-0.0492 -3.25692,-0.2269 -4.83117,-0.52702 l -0.31408,-0.0599 3.0409,-0.003 c 1.67249,-0.002 4.40927,-0.002 6.08172,0 l 3.04082,0.003 -0.31972,0.0602 c -1.94444,0.3657 -3.87936,0.54358 -5.84759,0.53759 -0.30152,-9.2e-4 -0.68441,-0.006 -0.85088,-0.0109 z"
     id="path75" /><path
     style="fill:#ffffff;stroke:none;stroke-width:0;stroke-linecap:round;stroke-linejoin:round"
     d="m 221.55345,421.84115 c -0.63831,-0.0281 -1.88992,-0.15665 -2.62687,-0.26973 -5.25027,-0.80563 -9.33578,-3.27851 -11.99301,-7.25912 -1.00269,-1.50206 -1.76506,-3.11384 -2.35535,-4.97964 l -0.2168,-0.68528 20.10473,-0.0115 c 11.05761,-0.006 20.11415,-0.002 20.12566,0.009 0.0276,0.0276 -0.44387,0.79516 -1.00749,1.6401 -1.04977,1.57374 -2.21214,2.98876 -3.57214,4.34858 -2.12297,2.12269 -4.19078,3.60409 -6.96899,4.99266 -2.861,1.42996 -4.24201,1.85423 -6.7842,2.08427 -1.53049,0.13849 -3.36534,0.18924 -4.70554,0.13017 z"
     id="path76" /><path
     style="fill:#ffffff;stroke:none;stroke-width:0;stroke-linecap:round;stroke-linejoin:round"
     d="m 322.91432,162.2486 c 0.0184,-0.38255 1.73018,-8.46716 2.44868,-11.56484 1.68336,-7.2574 1.52156,-10.03103 -0.70238,-12.04023 l -1.06315,-0.96049 -5.18873,0.1645 c -2.85381,0.0905 -5.4534,0.094 -5.77688,0.007 l -0.58814,-0.15684 0.81462,-1.4541 c 1.68597,-3.00946 15.53433,-22.48243 15.67929,-22.04754 0.0402,0.12059 -0.457,1.5908 -1.10489,3.26714 -1.56907,4.0598 -2.19563,6.40668 -2.19563,8.2242 0,3.57797 1.63534,4.44945 9.562,5.09567 3.40775,0.27781 6.17349,0.66101 6.39907,0.88658 0.29696,0.2974 -17.70946,30.64333 -18.18263,30.64333 -0.0574,0 -0.10295,-0.029 -0.1012,-0.0646 z"
     id="path78" /><path
     style="fill:#ffffff;stroke:none;stroke-width:0;stroke-linecap:round;stroke-linejoin:round"
     d="m 380.2832,185.4691 c 0,-0.086 2.42746,-4.72075 5.39434,-10.29937 8.65583,-16.27554 9.75203,-18.67083 9.51973,-20.80166 -0.14846,-1.36179 -1.16055,-2.73779 -2.52614,-3.43447 -0.56135,-0.28637 -3.14216,-0.93031 -5.73516,-1.43097 -6.41716,-1.23904 -10.86042,-2.16509 -10.98474,-2.28939 -0.27345,-0.27346 0.74989,-1.40891 4.35197,-4.82876 5.49631,-5.21824 30.58557,-28.11528 30.69129,-28.00957 0.048,0.048 -1.76957,3.38179 -4.03897,7.40848 -4.31999,7.66517 -7.36784,13.30646 -8.16004,15.10347 -0.45734,1.03739 -0.45618,1.08714 0.0479,2.06746 0.64789,1.26005 1.71784,2.28677 2.89581,2.77884 1.5104,0.63092 10.20319,2.21874 18.66564,3.40948 0.67516,0.095 1.22756,0.24786 1.22756,0.33969 0,0.27806 -9.41951,9.52299 -18.73635,18.38909 -4.83268,4.59888 -11.89757,11.37492 -15.69976,15.05786 -3.80218,3.68293 -6.91307,6.62585 -6.91307,6.53982 z"
     id="path79" /><path
     style="fill:#ffffff;stroke:none;stroke-width:0;stroke-linecap:round;stroke-linejoin:round"
     d="m 399.83001,243.85957 c 0.2958,-0.20719 4.06806,-2.25179 8.38278,-4.54355 12.63766,-6.71249 12.20655,-6.39026 12.23815,-9.14706 0.0164,-1.43585 -0.0834,-1.76578 -0.91202,-3.01156 -0.51178,-0.76947 -2.2562,-2.97211 -3.87648,-4.89476 -3.84159,-4.55844 -4.71529,-5.67527 -4.56072,-5.82986 0.11362,-0.11361 18.07416,-2.69756 21.64325,-3.11377 l 1.42138,-0.16575 -0.64608,0.50904 c -0.35535,0.27997 -1.62885,1.1095 -2.83,1.84339 -2.93122,1.79094 -5.08597,3.4937 -5.70419,4.50762 -0.31007,0.50855 -0.5094,1.29725 -0.50998,2.01798 -8.9e-4,1.09701 0.14602,1.36048 2.01759,3.61806 1.1102,1.33919 4.0073,4.58634 6.438,7.21589 l 4.41945,4.781 -1.72161,0.30835 c -0.94689,0.1696 -6.89672,1.19136 -13.22186,2.27058 -6.32513,1.07921 -14.01707,2.42322 -17.0932,2.98665 -3.07613,0.56345 -5.68955,1.02445 -5.80762,1.02445 -0.11806,0 0.0274,-0.16951 0.32316,-0.3767 z"
     id="path80" /><path
     style="fill:#ffffff;stroke:none;stroke-width:0;stroke-linecap:round;stroke-linejoin:round"
     d="m 11.402085,38.330293 0.153956,-16.475062 1.06827,-1.938243 c 1.474706,-2.675672 4.628852,-5.836333 6.962174,-6.976556 1.638569,-0.800718 2.02326,-0.875719 5.814728,-1.133662 6.377107,-0.433851 429.197547,-0.39582 439.647797,0.03954 8.87348,0.369674 12.11283,0.684952 13.45805,1.309833 1.11855,0.519587 3.74376,3.325692 5.15723,5.512638 1.96486,3.040022 1.8942,2.326431 1.99827,20.178373 l 0.0931,15.958201 H 248.50187 11.248127 Z m 38.352921,0.70015 c 2.469287,-0.303286 4.22816,-1.051971 5.014862,-2.134638 0.637211,-0.876942 0.880032,-4.040548 0.41766,-5.44155 -0.435709,-1.32021 -2.130836,-2.894678 -3.709308,-3.445277 -1.145421,-0.399545 -2.214328,-0.468235 -7.286288,-0.468235 -6.393629,0 -7.1459,0.116706 -8.980415,1.393199 -1.222902,0.850921 -2.261392,2.846659 -2.261392,4.345871 0,2.438289 2.279893,5.32647 4.430546,5.612641 3.176751,0.422702 9.483653,0.493034 12.374335,0.137989 z m 73.108734,0.01491 c 2.83945,-0.32644 4.29035,-1.047089 5.37465,-2.669531 1.11077,-1.662059 1.28725,-2.747955 0.73257,-4.507602 -0.53465,-1.696119 -2.10786,-3.391223 -3.63127,-3.912623 -1.65943,-0.567953 -10.869,-0.692102 -13.30927,-0.179415 -3.51662,0.738827 -5.16864,2.571467 -5.16864,5.733759 0,2.011096 0.9919,4.088301 2.32362,4.866074 1.4085,0.822606 9.0799,1.197999 13.67834,0.669338 z M 87.56898,38.416351 c 1.875841,-0.295648 2.426719,-0.49231 3.068408,-1.095409 2.384132,-2.24075 1.865006,-6.691444 -1.001996,-8.590467 -1.766571,-1.170128 -3.346645,-1.387686 -9.107543,-1.254004 -5.382267,0.124896 -6.852192,0.390857 -8.554802,1.547867 -3.100022,2.106623 -2.416637,7.861179 1.133307,9.543181 0.985945,0.46715 1.470038,0.493226 6.620026,0.35659 3.055962,-0.08108 6.585133,-0.309571 7.8426,-0.507758 z"
     id="path81" /><path
     style="fill:#ffffff;stroke:none;stroke-width:0;stroke-linecap:round;stroke-linejoin:round"
     d="m 219.62772,421.60757 c -5.25741,-0.66196 -9.59903,-3.10926 -12.39205,-6.98518 -2.54681,-3.53424 -3.9581,-9.00564 -3.72738,-14.45057 0.26864,-6.33987 2.55677,-12.14201 6.44179,-16.33481 l 1.19524,-1.28993 1.236,0.56238 c 3.25239,1.47985 5.27358,1.92909 8.67922,1.92909 2.85668,0 3.37394,-0.148 4.42522,-1.26614 1.02494,-1.09013 1.21303,-1.6476 1.21303,-3.59522 0,-1.48373 -0.0626,-1.88469 -0.3893,-2.49546 -0.95429,-1.78382 -2.00622,-2.45834 -4.22939,-2.712 -3.63689,-0.41496 -8.92153,-3.43266 -11.46591,-6.5474 -2.61926,-3.20641 -5.6254,-9.43801 -6.02228,-12.48389 -0.1706,-1.30932 0.1925,-1.91401 2.34776,-3.90982 5.0061,-4.63574 8.31383,-10.05412 9.42474,-15.43862 0.45082,-2.1851 0.41155,-4.72516 -0.0921,-5.95585 -0.65934,-1.61118 -3.20789,-3.19614 -4.7958,-2.98253 -1.12389,0.15118 -2.68551,0.7984 -3.3642,1.39429 -0.83155,0.73012 -1.18474,1.49187 -1.65504,3.56959 -0.53922,2.38222 -1.05615,3.84534 -2.01346,5.69886 -2.52455,4.88799 -7.47862,8.6657 -13.31472,10.15309 -1.75799,0.44804 -2.63648,0.55779 -5.61929,0.70201 -3.72291,0.18001 -4.41932,0.29203 -5.34215,0.85929 -1.19087,0.73202 -2.17086,2.69259 -2.17086,4.34303 0,1.6612 1.01003,3.58526 2.34407,4.46534 l 0.72823,0.48042 6.76045,-0.0442 c 6.30759,-0.0412 6.76661,-0.0235 6.8525,0.26516 0.0506,0.17014 0.2142,0.8474 0.36348,1.50503 0.73231,3.22593 2.84892,7.72967 5.57787,11.86866 l 1.88643,2.86115 -0.87688,0.96448 c -2.34241,2.5764 -5.47246,8.5051 -6.85394,12.98219 -1.28496,4.1643 -1.61509,6.9725 -1.59799,13.59307 0.008,3.00203 -0.0333,5.64705 -0.0912,5.87783 -0.0712,0.28366 -0.23219,0.41958 -0.49697,0.41958 -0.61354,0 -5.87656,-1.3364 -7.34818,-1.86586 -5.88677,-2.11798 -10.20722,-6.06539 -13.82336,-12.62983 -2.32926,-4.22834 -2.89655,-7.0638 -3.14773,-15.73313 -0.21114,-7.28727 -0.44106,-8.20488 -2.24839,-8.97339 -0.46457,-0.19755 -1.71972,-0.49139 -2.78922,-0.65299 -7.26783,-1.09813 -12.89693,-4.04125 -17.52877,-9.16476 -3.17776,-3.51508 -5.66897,-8.61242 -6.54026,-13.38221 -0.41871,-2.29222 -0.41147,-6.87148 0.0147,-9.28078 0.57725,-3.26355 1.81291,-7.51301 2.18462,-7.51301 0.0525,0 1.17628,0.59279 2.4973,1.31731 5.6192,3.0819 9.36769,4.39584 15.63907,5.48188 2.48036,0.42954 3.5965,0.37082 4.55944,-0.23986 1.53615,-0.97419 1.94761,-1.7889 2.87668,-5.69588 1.23283,-5.18442 2.11331,-7.36409 3.9701,-9.82825 1.34118,-1.77987 2.91985,-3.2606 4.83452,-4.53458 2.69862,-1.7956 5.19579,-2.69417 8.8996,-3.20238 3.09713,-0.42496 4.61365,-1.24502 5.69079,-3.07728 0.41977,-0.71404 0.47938,-1.0023 0.47938,-2.31805 0,-1.69744 -0.31971,-2.5625 -1.42378,-3.85235 -0.80984,-0.94612 -1.38688,-1.09544 -4.23307,-1.09537 -6.14644,1.5e-4 -11.61871,1.79015 -16.74713,5.47805 -1.63204,1.17361 -4.65944,4.28078 -5.94224,6.0988 -1.22893,1.74168 -3.51363,6.19306 -4.54556,8.85632 -0.36045,0.93027 -0.77051,1.73558 -0.91124,1.78958 -0.98589,0.37832 -6.78007,-2.18937 -9.75951,-4.32492 -3.03597,-2.17608 -6.49924,-5.78267 -8.27656,-8.61908 -0.92047,-1.46897 -2.64979,-5.20059 -3.21383,-6.93497 -1.00686,-3.09605 -1.16188,-4.30513 -1.16198,-9.06332 -8e-5,-3.81796 0.048,-4.56838 0.40583,-6.33458 1.13223,-5.58845 3.64478,-10.70239 8.18522,-16.6598 1.59488,-2.09262 2.62976,-3.16857 3.0476,-3.16857 0.32301,0 1.18753,0.96524 2.10188,2.34677 3.34795,5.05853 9.89766,10.13259 15.33915,11.88324 1.95391,0.62862 4.10851,0.68971 5.3033,0.15036 1.17549,-0.53063 1.86735,-1.19426 2.41763,-2.319 0.42863,-0.87609 0.49043,-1.20696 0.48552,-2.59934 -0.0106,-3.01998 -1.00556,-4.21765 -4.42425,-5.32588 -3.44033,-1.11525 -5.84004,-2.62667 -8.26768,-5.20726 -3.01178,-3.20155 -5.12874,-7.46135 -6.23225,-12.5407 -0.50986,-2.34681 -0.46833,-7.4291 0.0807,-9.88161 1.90482,-8.50814 6.74367,-15.49871 14.37014,-20.76019 l 1.70021,-1.17297 0.66937,1.01395 c 1.38798,2.10251 5.08693,5.53897 8.25492,7.66912 3.02597,2.03466 6.98039,3.64074 10.65625,4.32802 2.56767,0.48008 8.38749,0.48011 9.26862,5e-5 0.86528,-0.47142 2.20403,-1.90174 2.65829,-2.84011 0.86393,-1.78463 0.40778,-3.52152 -1.44497,-5.50212 -1.55429,-1.66154 -2.03286,-1.83803 -5.47849,-2.02037 -3.92797,-0.20787 -5.90824,-0.66389 -8.45139,-1.9462 -3.31479,-1.6714 -5.74291,-4.08557 -7.37886,-7.3365 -0.52981,-1.05282 -1.45918,-3.76082 -1.45918,-4.25176 0,-0.22271 4.76337,-0.25604 36.59278,-0.25604 h 36.59277 v 91.28387 91.28387 l -0.95428,2.71713 c -2.82437,8.0418 -5.11044,11.9609 -9.30583,15.95337 -2.60584,2.4798 -6.20005,4.65951 -9.50423,5.76387 -2.41652,0.80768 -6.86176,1.10698 -10.19931,0.68675 z m 11.57391,-108.97398 c 1.6493,-0.48979 3.0838,-1.65502 3.61993,-2.94043 0.50843,-1.21901 0.23177,-6.2644 -0.61517,-11.21844 -1.21787,-7.1238 -5.75614,-15.07789 -11.81375,-20.70561 -2.3922,-2.22244 -2.47057,-2.40306 -2.1828,-5.03115 0.27069,-2.4722 0.91499,-4.59764 2.15595,-7.11207 1.89638,-3.84244 3.54663,-5.53294 7.7471,-7.93604 3.45007,-1.9738 4.87297,-3.33618 5.35533,-5.12755 0.53412,-1.98355 -1.04995,-5.1407 -2.9418,-5.8632 -3.41295,-1.30342 -11.07462,2.61259 -15.77795,8.06436 -3.27601,3.79733 -5.22459,7.73714 -6.41828,12.97707 -0.2871,1.26027 -0.71458,2.71205 -0.94995,3.22617 -0.37541,0.82001 -0.49186,0.93476 -0.94853,0.93476 -1.72294,0 -6.99432,-1.52747 -9.31055,-2.69788 -3.34182,-1.68867 -6.94227,-4.96468 -9.54547,-8.68533 -0.87505,-1.25067 -2.04735,-2.85783 -2.60512,-3.57147 -0.92376,-1.18191 -1.10356,-1.32353 -2.01763,-1.58926 -2.33618,-0.67915 -5.06349,0.47725 -6.36554,2.69902 -1.23302,2.10401 -0.70168,4.25248 2.02035,8.16926 4.01554,5.77801 9.49532,10.55063 15.15512,13.19935 3.6028,1.68607 6.94304,2.49965 11.22532,2.73415 3.23827,0.17733 4.25121,0.42916 6.00047,1.49178 3.2096,1.94972 7.62684,7.5589 9.44967,11.99952 0.93273,2.27224 2.27434,8.50432 2.49853,11.6062 0.14398,1.99211 0.44899,2.77576 1.55802,4.003 1.42784,1.58002 2.73124,1.96045 4.70675,1.37379 z"
     id="path82" /><path
     style="fill:#ffffff;stroke:none;stroke-width:0;stroke-linecap:round;stroke-linejoin:round"
     d="m 219.5705,421.61819 c -5.15733,-0.66929 -9.58384,-3.16962 -12.33864,-6.96955 -1.07696,-1.48554 -2.34638,-4.33755 -2.88863,-6.48991 -0.7316,-2.90395 -0.95839,-5.07342 -0.83494,-7.98691 0.26843,-6.3349 2.55621,-12.14036 6.43832,-16.33786 l 1.19583,-1.29297 1.59099,0.70709 c 2.98908,1.32844 4.42106,1.65851 7.58664,1.74866 3.23706,0.0922 3.85718,-0.0309 4.89991,-0.97299 1.20282,-1.08668 1.47881,-1.80455 1.47881,-3.84656 0,-1.62911 -0.0411,-1.84203 -0.52439,-2.7145 -0.28841,-0.52071 -0.79129,-1.16675 -1.11751,-1.43565 -0.70624,-0.58215 -2.10279,-1.06476 -3.0811,-1.06476 -0.38771,0 -1.43261,-0.24345 -2.32199,-0.541 -2.82989,-0.94676 -6.08917,-2.95229 -8.15472,-5.01784 -3.24765,-3.24764 -7.38423,-11.97231 -6.90005,-14.55322 0.096,-0.5119 0.62384,-1.13195 2.80608,-3.2965 3.80382,-3.77298 5.9853,-6.83995 7.62026,-10.71336 1.17624,-2.78666 1.57945,-4.60222 1.58912,-7.15544 0.01,-2.5502 -0.26251,-3.43476 -1.37128,-4.45672 -1.68681,-1.55476 -3.43859,-1.91271 -5.48528,-1.12083 -1.98024,0.76617 -2.64006,1.67207 -3.29884,4.52917 -1.57465,6.82926 -5.11462,11.3633 -11.17868,14.31779 -2.88302,1.40465 -6.18722,2.19433 -9.21922,2.20334 -2.59211,0.008 -4.7496,0.27383 -5.5563,0.68537 -0.93489,0.47695 -1.91106,1.76607 -2.26857,2.99585 -0.63582,2.18717 0.2542,4.7003 2.12152,5.99046 l 0.70659,0.48819 6.76279,-0.0442 c 6.30981,-0.0412 6.76895,-0.0235 6.85484,0.26516 0.0506,0.17014 0.2142,0.8474 0.36348,1.50503 0.79644,3.50842 3.00197,8.05199 6.28086,12.9391 l 1.19373,1.77922 -0.8819,0.97022 c -2.49292,2.74259 -5.67748,8.92134 -7.0601,13.69815 -1.08746,3.75705 -1.23513,5.08867 -1.31347,11.84404 -0.083,7.15841 -0.099,7.33623 -0.66067,7.33623 -0.61732,0 -5.86585,-1.32887 -7.35933,-1.86328 -5.50093,-1.96846 -9.64467,-5.58337 -13.16756,-11.48713 -2.89236,-4.84709 -3.53372,-7.66509 -3.80119,-16.70163 -0.26757,-9.04024 -0.25621,-9.02023 -5.61887,-9.90322 -3.59526,-0.59198 -5.97802,-1.36508 -9.05541,-2.93809 -3.67524,-1.87859 -7.23106,-4.93536 -9.63701,-8.28448 -2.26772,-3.1567 -4.11002,-7.4758 -4.80361,-11.26162 -0.39862,-2.17579 -0.3982,-6.83085 8.3e-4,-9.17068 0.52728,-3.09188 1.8307,-7.58583 2.20019,-7.58583 0.0502,0 1.26485,0.64039 2.69926,1.42309 5.26126,2.87083 8.81787,4.13771 14.63444,5.21285 3.22898,0.59685 4.32915,0.58114 5.36632,-0.0766 1.53579,-0.97396 1.91656,-1.73591 2.89066,-5.78427 1.54509,-6.42142 2.91921,-9.15735 6.11201,-12.16928 3.04488,-2.87238 6.90829,-4.69768 11.06964,-5.22994 3.17695,-0.40634 4.51921,-0.98678 5.68111,-2.45669 0.83341,-1.05434 1.16403,-2.16735 1.04237,-3.50903 -0.17471,-1.92675 -1.49999,-3.93247 -2.83927,-4.29703 -1.15243,-0.31369 -6.36074,-0.0911 -8.47696,0.36233 -7.27431,1.55854 -13.55748,5.75402 -17.48503,11.67534 -1.07424,1.61955 -3.25304,5.96077 -4.13824,8.24534 -0.3588,0.92601 -0.76751,1.72784 -0.90824,1.78184 -0.98557,0.3782 -6.77755,-2.18821 -9.76066,-4.32492 -2.23179,-1.59858 -5.40166,-4.67133 -6.97881,-6.76502 -2.25179,-2.98928 -4.45328,-7.80234 -5.25827,-11.49605 -0.35804,-1.64287 -0.40349,-2.34009 -0.40854,-6.26791 -0.005,-3.92407 0.0398,-4.64398 0.40023,-6.42297 1.13223,-5.58845 3.64478,-10.70239 8.18522,-16.6598 1.61228,-2.11544 2.62989,-3.16857 3.06171,-3.16857 0.32161,0 1.19543,1.01902 2.57114,2.99839 1.98577,2.85715 5.87338,6.42609 9.38332,8.61419 4.60706,2.87204 8.5834,3.82804 11.00142,2.64501 1.82291,-0.89186 2.69205,-2.47795 2.67876,-4.88843 -0.009,-1.63597 -0.28718,-2.49304 -1.10174,-3.39466 -0.75542,-0.83617 -1.55935,-1.26594 -3.61412,-1.93207 -7.13514,-2.31312 -12.26446,-8.68464 -14.21235,-17.65424 -0.25497,-1.17411 -0.32482,-2.23685 -0.31951,-4.86135 0.006,-3.04114 0.0536,-3.55937 0.50159,-5.48008 1.91207,-8.19762 6.79368,-15.14141 14.27156,-20.30037 l 1.70021,-1.17297 0.66176,1.01395 c 0.85983,1.31745 4.7417,5.13795 6.59835,6.49403 3.43202,2.50672 6.78937,4.14073 10.3519,5.03822 2.78632,0.70194 4.97063,0.93434 8.0061,0.8518 3.00977,-0.0818 3.2503,-0.16344 4.63841,-1.57362 1.16499,-1.18351 1.61,-2.1238 1.61,-3.40187 0,-1.32619 -0.49499,-2.35423 -1.81087,-3.7609 -1.54697,-1.65372 -2.02845,-1.83086 -5.47166,-2.01307 -3.92797,-0.20787 -5.90824,-0.66389 -8.45139,-1.9462 -3.31479,-1.6714 -5.74291,-4.08557 -7.37886,-7.3365 -0.52981,-1.05282 -1.45918,-3.76082 -1.45918,-4.25176 0,-0.22271 4.76337,-0.25604 36.59278,-0.25604 h 36.59277 v 91.29179 91.29179 l -0.95288,2.70922 c -1.68435,4.78894 -2.75934,7.19043 -4.53625,10.13383 -3.92793,6.50648 -11.28825,11.62777 -17.64315,12.27601 -2.08289,0.21247 -5.23817,0.21102 -6.88859,-0.003 z m 12.50057,-109.32877 c 1.25102,-0.56142 2.52109,-1.83284 2.86162,-2.86466 0.26657,-0.80774 0.12683,-4.86981 -0.27224,-7.9132 -0.6503,-4.95936 -1.45739,-7.76107 -3.36097,-11.66726 -2.22707,-4.57002 -4.4796,-7.67336 -8.34027,-11.49049 -2.27211,-2.24649 -2.70127,-2.75562 -2.80868,-3.3321 -0.17881,-0.95962 0.18101,-3.82115 0.71562,-5.69106 0.56587,-1.97928 2.26395,-5.44751 3.43539,-7.01657 1.0967,-1.46895 3.13389,-3.10094 5.66163,-4.53552 4.09723,-2.32531 5.56664,-3.94425 5.55296,-6.11803 -0.0132,-2.0916 -1.36764,-4.34196 -2.98523,-4.95972 -3.43362,-1.31131 -11.28654,2.75214 -15.93065,8.24324 -3.22463,3.81273 -5.14837,7.77848 -6.33373,13.05686 -0.24967,1.11181 -0.64752,2.44427 -0.88409,2.96101 -0.40255,0.8793 -0.47064,0.93954 -1.06172,0.93954 -1.6995,0 -6.885,-1.52799 -9.26139,-2.72903 -3.81666,-1.92895 -7.2171,-5.22729 -10.76815,-10.44483 -1.67857,-2.46632 -2.45031,-3.19093 -3.66761,-3.44364 -1.31328,-0.27264 -2.39679,-0.10236 -3.67918,0.57818 -1.09707,0.58221 -2.04668,1.54959 -2.62735,2.67654 -0.56025,1.08731 -0.40424,2.82742 0.4056,4.52395 1.63935,3.4343 5.7451,8.38461 9.70401,11.70014 1.66067,1.39079 4.86809,3.46004 6.83017,4.40643 3.90814,1.88507 7.24511,2.72873 11.83111,2.99115 3.33826,0.19103 4.39937,0.49304 6.39605,1.82043 2.86977,1.90782 7.20814,7.44363 8.73471,11.14558 1.11948,2.71478 2.27252,7.75959 2.69311,11.78296 0.14158,1.35437 0.35971,2.48831 0.56108,2.91681 0.40493,0.86163 1.98301,2.47698 2.76755,2.83291 0.85418,0.38753 2.49665,0.22904 3.83065,-0.36962 z"
     id="path83" /><path
     style="fill:#ffffff;stroke:none;stroke-width:0;stroke-linecap:round;stroke-linejoin:round"
     d="m 284.90252,422.99358 c -0.17015,-0.0196 -0.68722,-0.0788 -1.14905,-0.13151 -3.3001,-0.37685 -7.35665,-1.78369 -10.29009,-3.56869 -3.06977,-1.86794 -5.92143,-4.69994 -7.92555,-7.87091 -2.13081,-3.37141 -4.13816,-8.82995 -4.53448,-12.33051 -0.18508,-1.63475 -0.3049,-4.2625 -0.41108,-9.01528 -0.1139,-5.09875 -0.25473,-39.3482 -0.25868,-62.9104 l -0.003,-18.05332 h 9.02781 9.02782 l -0.0541,0.55243 c -0.1321,1.34834 -0.17066,4.18925 -0.0651,4.7955 0.15713,0.90228 0.43707,1.33095 1.63233,2.49965 1.38912,1.35823 1.63287,1.48205 2.88189,1.46392 2.05386,-0.0298 3.64031,-0.79675 4.46861,-2.16028 0.63771,-1.04978 0.97466,-2.40253 1.27488,-5.11829 0.0994,-0.89935 0.20479,-1.72468 0.23415,-1.83406 l 0.0534,-0.19887 h 17.26073 17.26072 l 0.57067,0.7734 c 2.59194,3.51276 4.46342,7.54694 5.5868,12.04291 0.86098,3.4458 1.16777,5.97623 1.28596,10.6066 0.10919,4.27816 0.34455,5.74924 1.09805,6.86328 0.59773,0.88374 1.31517,1.32872 3.18776,1.97714 1.60057,0.55424 3.14078,1.29553 4.4146,2.12471 2.12457,1.38296 3.26511,2.40361 4.9824,4.45864 2.84596,3.40567 3.80732,4.36341 4.94662,4.92798 0.72304,0.35829 0.79378,0.37532 1.55959,0.37532 0.98478,0 1.497,-0.16325 2.39338,-0.76278 1.26581,-0.84663 2.26393,-2.18986 2.55975,-3.44478 0.52558,-2.22972 -0.41465,-4.50921 -3.21885,-7.80374 -2.64236,-3.1044 -6.25106,-6.12447 -9.85932,-8.25112 -1.78869,-1.05423 -1.79108,-1.05936 -1.90131,-4.08857 -0.0433,-1.19104 -0.14049,-2.64929 -0.21588,-3.24058 -0.44389,-3.48118 -1.28646,-7.07357 -2.59833,-11.07833 -0.65533,-2.00052 -0.98553,-3.12791 -0.98553,-3.36489 0,-0.18914 0.10892,-0.23314 2.16552,-0.87486 0.97227,-0.30338 2.16799,-0.70666 2.65716,-0.89618 l 0.88939,-0.34459 17.64503,0.0223 17.64503,0.0223 -0.5309,0.9623 c -1.70143,3.08403 -3.21838,5.10055 -6.43215,8.55044 -2.64929,2.84394 -3.45948,4.17255 -3.45461,5.66517 0.004,1.07568 0.47677,2.01097 1.84009,3.63653 2.23339,2.66299 2.91928,3.61689 3.70162,5.14799 0.85829,1.67978 1.591,4.08633 1.92134,6.31058 1.22763,8.26587 -2.70743,19.59973 -8.83012,25.43269 -2.34057,2.22981 -6.30629,4.41659 -10.23855,5.64576 -0.5455,0.17051 -1.489,0.46738 -2.09667,0.65971 -3.08439,0.97621 -4.15916,2.0778 -4.55902,4.67275 -0.0779,0.50567 -0.16334,2.0866 -0.2128,3.93837 -0.0793,2.96832 -0.19892,4.46679 -0.49406,6.18719 -0.41101,2.39589 -1.29931,4.9565 -2.66766,7.68978 -3.4164,6.82428 -9.78357,12.1613 -17.16875,14.391 -1.23262,0.37215 -2.83598,0.70755 -4.37668,0.91556 -1.64401,0.22196 -6.16487,0.22108 -7.73253,-10e-4 -5.87299,-0.83384 -10.73464,-3.06278 -13.81297,-6.33287 -0.40854,-0.43399 -1.17444,-1.39725 -1.702,-2.14059 -2.28949,-3.22591 -3.60791,-4.74543 -4.64411,-5.35246 -0.49472,-0.28982 -1.44942,-0.548 -2.02639,-0.548 -0.57036,0 -1.54105,0.25697 -2.20502,0.58374 -0.75266,0.37041 -1.93196,1.46614 -2.34291,2.17686 -0.85069,1.47127 -0.89399,3.04906 -0.13378,4.87515 0.97972,2.35339 3.43954,5.54466 6.36109,8.25257 2.30169,2.1334 4.00252,3.42237 6.90383,5.23206 0.94272,0.58801 1.72551,1.10197 1.73955,1.14212 0.014,0.0402 -0.4036,0.3514 -0.92808,0.69163 -1.37789,0.89387 -1.54899,0.99664 -2.72136,1.63483 -3.42,1.86167 -6.9748,3.05959 -10.71931,3.61226 -1.15631,0.17066 -4.82422,0.30299 -5.67673,0.2048 z m 35.46147,-31.1577 c 1.89602,-0.39249 3.50581,-2.02113 3.91353,-3.95935 0.25865,-1.22959 0.12688,-3.1856 -0.44424,-6.59449 -0.54265,-3.23892 -1.40946,-5.79543 -3.26663,-9.63433 -1.33425,-2.75797 -3.72443,-5.85873 -6.94959,-9.01563 -2.24191,-2.19445 -3.13283,-2.88149 -5.56957,-4.295 -0.84371,-0.48942 -1.56527,-0.91991 -1.60346,-0.95664 -0.0881,-0.0847 0.23147,-1.10256 1.0153,-3.23362 0.73025,-1.98538 1.12149,-3.30792 1.42505,-4.81716 0.41912,-2.08379 0.67849,-4.90592 0.67849,-7.38245 0,-1.46864 -0.12983,-2.07914 -0.59165,-2.78221 -0.45493,-0.69258 -1.67185,-1.87507 -2.16278,-2.10159 -0.50885,-0.2348 -1.32286,-0.3723 -2.19532,-0.37084 -2.62972,0.004 -3.98711,0.88361 -4.6738,3.02731 -0.34839,1.08759 -0.50174,1.96033 -0.7179,4.0855 -0.5753,5.65619 -1.52963,7.96069 -4.54213,10.96827 -1.93511,1.93194 -3.42445,2.79517 -5.93669,3.44097 -1.99078,0.51175 -2.81519,0.58471 -7.5082,0.66446 -5.42166,0.0921 -5.54193,0.11581 -6.73839,1.32719 -0.96787,0.97995 -1.34671,1.98589 -1.3463,3.57488 6.9e-4,2.67245 1.08433,4.22215 3.48778,4.98783 1.68275,0.53608 2.18516,0.58153 6.32048,0.57177 3.00664,-0.007 3.93801,-0.0376 4.66572,-0.15283 3.32291,-0.52617 5.95372,-1.44484 9.32293,-3.25555 0.93516,-0.50258 1.74459,-0.9256 1.79875,-0.94005 0.13532,-0.0361 3.12956,1.53589 3.82419,2.0077 3.32924,2.26133 6.82884,6.30335 8.62678,9.96387 1.28279,2.6117 1.93389,4.76811 2.87837,9.53307 0.33428,1.68647 0.48968,2.12879 1.04672,2.97933 1.24796,1.90549 3.19747,2.78294 5.24256,2.35959 z"
     id="path84" /></svg>
