<?xml version="1.0" encoding="UTF-8" standalone="no"?>
<!-- Created with Inkscape (http://www.inkscape.org/) -->

<svg
   width="512"
   height="512"
   viewBox="0 0 135.46667 135.46667"
   version="1.1"
   id="svg1"
   xml:space="preserve"
   xmlns="http://www.w3.org/2000/svg"
   xmlns:svg="http://www.w3.org/2000/svg"><defs
     id="defs1" /><path
     style="fill:#ffffff;stroke:none;stroke-width:0.64194;stroke-dasharray:none"
     d="m 16.612295,34.298827 c -0.17735,-0.0472 -0.226227,-0.362122 -0.226227,-1.457592 v -0.937757 h 0.868659 0.868659 v 1.224018 1.22402 l -0.690978,-0.0092 c -0.380039,-0.005 -0.749089,-0.02463 -0.820113,-0.04353 z"
     id="path127" /><path
     style="fill:#ffffff;stroke:none;stroke-width:0.64194;stroke-dasharray:none"
     d="m 12.204946,58.575259 c -0.444531,-0.22887 -0.79945,-0.725813 -0.852121,-1.193107 -0.05018,-0.445182 0.208204,-0.932339 0.710134,-1.338887 0.534263,-0.432736 0.824019,-0.5505 1.253066,-0.509272 0.866785,0.08328 1.594787,1.136221 1.379274,1.994894 -0.07391,0.294474 -0.661504,0.906309 -1.033662,1.076299 -0.441096,0.20148 -1.030759,0.189368 -1.456691,-0.02993 z"
     id="path128" /><path
     style="fill:#ffffff;stroke:none;stroke-width:0.64194;stroke-dasharray:none"
     d="M 10.833906,98.913188 C 9.9322612,98.673631 9.3507647,97.550967 9.6787269,96.682943 c 0.1761548,-0.466232 0.7580091,-0.901094 1.3557171,-1.013227 0.629902,-0.118168 1.345787,0.372134 1.73132,1.185768 0.413891,0.873479 0.247701,1.501658 -0.494535,1.869283 -0.531745,0.263369 -0.949237,0.318098 -1.437323,0.188421 z"
     id="path129" /><path
     style="fill:#ffffff;stroke:none;stroke-width:0.64194;stroke-dasharray:none"
     d="m 32.772137,95.457245 c -0.626875,-0.360778 -0.830581,-1.164553 -0.43569,-1.719127 0.506198,-0.710891 1.80017,-0.738683 2.221519,-0.04771 0.313745,0.514503 0.08646,1.49008 -0.406551,1.745025 -0.431395,0.22308 -1.013569,0.232291 -1.379278,0.02183 z"
     id="path130" /><path
     style="fill:#ffffff;stroke:none;stroke-width:0.64194;stroke-dasharray:none"
     d="m 41.774603,106.96818 c -0.404738,-0.14931 -0.795755,-0.5744 -0.906436,-0.98543 -0.133773,-0.4968 0.01214,-0.91611 0.474718,-1.36424 0.501769,-0.48609 0.872122,-0.59272 1.462535,-0.42108 1.374238,0.3995 1.825059,2.16098 0.682424,2.66642 -0.473895,0.20962 -1.292651,0.25948 -1.713241,0.10433 z"
     id="path131" /><path
     style="fill:#ffffff;stroke:none;stroke-width:0.64194;stroke-dasharray:none"
     d="m 50.606334,96.504281 c -0.09391,-0.0401 -0.193527,-0.144703 -0.221379,-0.232466 -0.135202,-0.425984 0.430323,-1.358979 1.094176,-1.805146 0.49072,-0.329806 0.813475,-0.337569 1.145358,-0.02754 0.344614,0.321918 0.34087,0.764828 -0.01138,1.347332 -0.373886,0.618265 -0.584711,0.74644 -1.267511,0.770602 -0.312684,0.01106 -0.64535,-0.01267 -0.739254,-0.05278 z"
     id="path132" /><path
     style="fill:#ffffff;stroke:#000000;stroke-width:2.1508;stroke-dasharray:none"
     d="m 81.13482,90.515858 4.802198,5.137237"
     id="path133" /><path
     style="fill:#ffffff;stroke:none;stroke-width:0.453919;stroke-dasharray:none"
     d="m 56.032142,99.077531 c -0.136655,-0.113858 -0.413263,-0.36327 -0.614683,-0.554252 l -0.36622,-0.347239 0.3551,-0.493675 c 0.43815,-0.609143 0.704054,-1.07428 0.860012,-1.504397 0.162812,-0.449017 0.175271,-1.313612 0.02527,-1.753344 -0.279768,-0.820126 -0.915445,-1.829022 -1.568892,-2.490018 -0.500904,-0.506693 -0.842904,-0.702471 -1.452801,-0.831662 -1.235858,-0.261781 -3.228109,0.153742 -3.975798,0.829234 -0.1236,0.111662 -0.262432,0.203028 -0.308515,0.203028 -0.288986,0 -3.13531,-2.132539 -3.828931,-2.868735 l -0.296683,-0.314896 0.127522,-0.181086 c 0.07014,-0.0996 0.681074,-0.74725 1.357635,-1.439225 1.980441,-2.025544 3.156577,-3.41943 3.156577,-3.740978 0,-0.278731 0.079,-0.262615 -2.596539,-0.529635 -2.247831,-0.224335 -5.772547,-0.636345 -7.124245,-0.832761 -0.908777,-0.132058 -1.406435,-0.269155 -1.303448,-0.359082 0.02847,-0.02487 0.378428,-0.292438 0.777679,-0.594614 2.663103,-2.015582 4.997638,-4.056755 4.997638,-4.369623 0,-0.145952 -0.436192,-0.753205 -1.734974,-2.41537 -3.038567,-3.888724 -4.308298,-5.542757 -6.755818,-8.800553 -1.027649,-1.367867 -2.302097,-3.252324 -2.698795,-3.99057 -0.141634,-0.263575 -0.257514,-0.496007 -0.257514,-0.516517 0,-0.07137 0.228487,-0.03509 2.077011,0.329838 2.155675,0.425561 2.618079,0.470109 3.451101,0.332472 0.912921,-0.150833 1.639255,-0.306297 1.695956,-0.362995 0.06623,-0.06623 0.0316,-0.11806 -1.026801,-1.537155 -2.230268,-2.990318 -6.780334,-9.570419 -6.684267,-9.666483 0.0601,-0.0601 0.744271,0.147857 5.345039,1.624687 1.213112,0.389406 3.223334,1.018945 4.467159,1.398976 1.243827,0.380032 2.598896,0.804889 3.011268,0.944131 0.412369,0.139243 0.760703,0.242227 0.774075,0.228854 0.01336,-0.01336 -0.09042,-0.270668 -0.230647,-0.571769 -0.14023,-0.301102 -0.280644,-0.660533 -0.312037,-0.798735 -0.06357,-0.279895 -0.07785,-0.614236 -0.02622,-0.614236 0.01847,0 0.627817,0.279384 1.354108,0.620853 2.006214,0.943226 2.918921,1.341951 3.145029,1.373926 0.328369,0.04643 0.448013,-0.119129 0.595233,-0.823667 0.20542,-0.983091 0.386186,-2.268945 0.65133,-4.633161 0.267896,-2.388746 0.752186,-6.424168 0.910831,-7.589602 0.05191,-0.381384 0.121785,-0.702516 0.155265,-0.713634 0.129278,-0.04292 3.611904,3.61841 5.321935,5.595019 1.540455,1.780596 2.186935,2.392231 2.429955,2.298978 0.1671,-0.06412 0.244483,-0.379518 0.558215,-2.275149 0.454866,-2.7484 1.086546,-6.23292 2.119955,-11.694288 0.505588,-2.671921 0.9367,-4.952627 0.95803,-5.068234 l 0.03879,-0.210195 1.709806,0.01476 1.709809,0.01476 0.654828,3.37829 c 0.575625,2.969678 0.942718,5.05714 1.698805,9.660237 0.23459,1.428192 0.530865,2.981669 0.726831,3.811048 0.160608,0.679717 0.214863,0.724545 0.506857,0.418795 0.215697,-0.225853 1.025404,-1.466498 1.867739,-2.861775 0.626187,-1.037236 0.941435,-1.586796 3.203181,-5.58395 1.92944,-3.409878 3.555593,-6.170268 3.634923,-6.170268 0.015,0 0.01243,1.740098 -0.0057,3.866888 -0.01815,2.126787 -0.01323,4.828066 0.01093,6.002843 l 0.04394,2.135957 0.530477,-0.366212 c 0.680691,-0.469913 1.487993,-0.932524 3.032429,-1.737686 1.459169,-0.760708 2.166662,-1.162198 3.088637,-1.752745 0.372192,-0.238398 0.780519,-0.486408 0.907392,-0.551135 0.21808,-0.111257 0.230679,-0.112094 0.230679,-0.01535 0,0.17708 -0.279072,0.931741 -1.92469,5.204685 -1.817439,4.719098 -2.893952,7.561234 -3.341746,8.822645 -0.277603,0.781995 -0.51309,1.66574 -0.45843,1.720403 0.0571,0.0571 1.149477,0.18387 1.369383,0.158922 0.138205,-0.01569 1.118187,-0.317196 2.177743,-0.670033 1.926161,-0.641422 3.559529,-1.130425 3.609372,-1.080583 0.03566,0.03566 -0.06039,0.40145 -0.711571,2.709934 -0.534448,1.894658 -0.831514,3.029842 -0.831667,3.178064 -1.19e-4,0.114097 1.018407,0.08742 1.714156,-0.0449 0.85862,-0.163287 2.765078,-0.644874 4.605218,-1.16332 2.991575,-0.842851 6.626326,-1.709084 6.731217,-1.604184 0.0437,0.0437 -0.554757,0.879699 -3.642185,5.087863 -7.031741,9.584259 -8.179808,11.23486 -8.179964,11.760563 -4.5e-5,0.154445 0.240098,0.44037 0.369858,0.44037 0.389972,0 4.22542,1.537885 7.011713,2.81146 1.178134,0.538509 1.613527,0.768908 1.590511,0.841666 -0.02421,0.07652 -6.203302,3.174651 -7.46446,3.742603 -2.01004,0.9052 -3.429585,1.426916 -3.882528,1.426916 -0.291954,0 -0.361275,0.04823 -0.361275,0.251383 0,0.247179 0.340146,0.713513 1.812383,2.484753 2.091663,2.51647 2.766457,3.382473 2.766457,3.550362 0,0.09336 -0.638871,0.653364 -1.619346,1.419439 -0.960908,0.750779 -1.576292,1.263515 -2.490351,2.074952 l -0.675566,0.599721 -1.003038,-1.072139 C 83.75712,91.696317 83.222773,91.119337 83.121352,91.003823 l -0.184401,-0.210035 0.197453,-0.404201 c 0.262999,-0.538382 0.371817,-0.926423 0.41147,-1.467265 0.128865,-1.757627 -1.232329,-3.75883 -2.913581,-4.283499 -1.093121,-0.34113 -2.645672,0.03196 -3.678659,0.884021 -0.916328,0.755827 -1.371549,1.740323 -1.373849,2.971189 -0.0016,0.912026 0.211426,1.671135 0.585425,2.085107 0.119283,0.132027 0.195358,0.273624 0.195358,0.363612 0,0.08724 -0.208973,0.491577 -0.512178,0.990989 -0.578614,0.953053 -2.117627,3.396064 -2.479693,3.936243 l -0.238948,0.356497 -0.03197,-0.188976 c -0.01757,-0.103936 -0.09499,-0.729221 -0.172014,-1.389523 -0.276103,-2.366891 -0.658212,-4.605068 -1.730256,-10.134873 -0.788582,-4.067656 -1.175604,-6.202505 -1.569074,-8.655124 -0.397732,-2.47918 -0.612555,-3.714128 -1.117052,-6.421546 -0.416063,-2.232814 -0.871231,-4.783289 -1.669201,-9.353119 -0.427506,-2.448243 -1.112118,-5.969836 -1.316215,-6.7705 -0.120692,-0.473461 -0.214421,-0.711994 -0.279776,-0.711994 -0.1065,0 -1.016473,4.409252 -1.475076,7.147457 -0.11059,0.660302 -0.388948,2.252104 -0.618572,3.537339 -0.229624,1.285232 -0.656359,3.735192 -0.948303,5.444353 -0.97822,5.726935 -1.423194,8.160419 -2.845181,15.559776 -0.442656,2.30338 -0.970011,5.092565 -1.171893,6.198187 -0.411517,2.253671 -0.543044,2.877571 -0.894641,4.243803 -0.315775,1.227019 -0.495038,2.094915 -0.640117,3.099094 -0.142393,0.985589 -0.234225,1.408517 -0.311417,1.434248 -0.0321,0.01069 -0.170167,-0.0737 -0.306824,-0.187553 z m -0.674375,-19.617897 0.0069,-1.982303 -0.653074,-0.558395 c -2.923897,-2.500017 -3.919678,-3.291118 -4.018383,-3.192413 -0.05175,0.05175 0.116853,0.846577 0.517289,2.43858 0.568437,2.259902 0.966793,3.602191 1.15705,3.898739 0.0922,0.143716 0.785474,0.876935 1.5406,1.629373 l 1.372955,1.368068 0.03486,-0.809673 c 0.01918,-0.44532 0.03797,-1.70171 0.04178,-2.791976 z m 27.830212,1.510808 c 0.06834,-0.06169 0.05901,-3.340155 -0.01048,-3.684291 -0.03364,-0.166571 -0.07273,-0.314428 -0.08687,-0.32857 -0.01413,-0.01413 -0.52336,0.0033 -1.131594,0.03877 -1.084287,0.06322 -1.342896,0.05387 -1.644156,-0.05945 -0.08243,-0.03101 -0.229243,-0.03894 -0.326255,-0.01762 -0.313436,0.06884 -0.345934,0.240194 -0.376975,1.987539 -0.01505,0.847633 -0.0095,1.684211 0.01236,1.859064 l 0.03972,0.317912 1.740667,-0.03729 c 0.957369,-0.02051 1.75999,-0.05473 1.783604,-0.07605 z M 77.173005,74.58181 c 0.520565,-0.256577 1.763133,-0.912781 2.761265,-1.45823 0.99813,-0.545451 2.13682,-1.153189 2.530422,-1.350528 1.033016,-0.517925 1.106925,-0.599022 1.660883,-1.822464 1.567394,-3.461665 2.679882,-6.227368 2.594464,-6.449965 -0.08641,-0.225181 -1.127352,0.221102 -6.111893,2.620352 -1.785131,0.85925 -1.761014,0.822857 -3.38132,5.102331 -0.917501,2.423258 -1.257162,3.411887 -1.257162,3.659129 0,0.135861 0.02323,0.165878 0.128428,0.165878 0.07064,0 0.554347,-0.209926 1.074913,-0.466503 z M 46.469807,70.788939 c -0.05803,-0.621395 -0.459513,-1.587463 -0.812557,-1.955197 -0.264332,-0.275328 -0.633812,-0.382714 -1.355119,-0.393845 -0.636429,-0.0098 -0.68543,0.01995 -0.640086,0.389072 0.03084,0.251071 0.413499,1.280795 0.557795,1.501019 0.04943,0.07544 0.171297,0.180173 0.270822,0.232743 0.253426,0.133869 1.654686,0.567523 1.850253,0.572611 l 0.161634,0.0042 z m 8.944628,-1.48703 c 0.05608,-0.03551 0.06924,-0.123946 0.04767,-0.320222 -0.03765,-0.342554 -0.720159,-5.293945 -0.7312,-5.304632 -0.0045,-0.0044 -1.277128,-0.535778 -2.828071,-1.180943 -5.631849,-2.342751 -6.344674,-2.623675 -6.433082,-2.53527 -0.0998,0.0998 1.00619,1.570043 3.89363,5.175957 2.179447,2.72175 2.063051,2.599804 2.84657,2.98233 0.766628,0.37428 1.903008,0.843717 2.596536,1.072624 0.547741,0.180787 0.507834,0.173556 0.607949,0.110156 z M 73.71321,63.670184 c 0.242919,-0.146336 0.730154,-0.479279 1.082746,-0.739873 1.639472,-1.211707 2.545191,-1.912741 2.582683,-1.999019 0.0679,-0.156266 1.186288,-6.011823 1.524426,-7.981469 0.02238,-0.130321 0.0099,-0.181478 -0.04404,-0.181478 -0.07846,0 -2.279777,1.63966 -4.749868,3.537964 l -1.44171,1.107977 0.03268,0.343365 c 0.01797,0.188852 0.08264,1.222839 0.143701,2.297751 0.143219,2.521003 0.22057,3.661325 0.256624,3.783126 0.04336,0.146473 0.129405,0.122833 0.61276,-0.168344 z M 59.299294,61.465848 c -0.085,-0.503119 -0.419971,-1.434206 -0.601681,-1.672442 -0.339066,-0.444548 -1.414063,-1.308698 -1.755222,-1.410962 -0.195533,-0.05861 -0.237361,0.146973 -0.237361,1.166585 v 0.910262 l 1.226156,0.621689 c 0.674386,0.341929 1.267098,0.621688 1.317136,0.621688 0.07607,0 0.08442,-0.03881 0.05097,-0.23682 z M 77.642886,48.528212 c 0.03179,-0.0594 0.0578,-0.445103 0.0578,-0.85711 0,-0.725707 -0.0048,-0.756092 -0.153559,-0.97296 -0.240687,-0.350875 -1.230689,-1.188934 -1.404491,-1.188934 -0.032,0 -0.0951,0.131921 -0.140221,0.293155 -0.100899,0.360535 -0.327798,1.498349 -0.302472,1.516785 0.01013,0.0074 0.257154,0.214876 0.548916,0.461097 1.044844,0.881759 1.260493,0.997466 1.394023,0.747967 z"
     id="path134" /><path
     style="fill:#ffffff;stroke:none;stroke-width:0.22696;stroke-dasharray:none"
     d="m 78.913801,89.177611 c -0.121848,-0.12809 -0.236929,-0.357555 -0.279971,-0.558252 -0.02601,-0.121304 -0.02302,-0.156533 0.0208,-0.245766 0.06654,-0.135459 0.237392,-0.262491 0.444191,-0.330272 0.127979,-0.04194 0.244289,-0.0542 0.514371,-0.0542 0.323916,0 0.361034,0.0056 0.516514,0.07829 0.311626,0.14564 0.415674,0.310507 0.303758,0.481315 -0.06279,0.09583 -0.391126,0.310049 -0.721659,0.470844 -0.282464,0.137411 -0.604795,0.267819 -0.661969,0.267819 -0.01738,0 -0.0786,-0.0494 -0.136036,-0.109778 z"
     id="path135" /><path
     style="fill:#ffffff;stroke:none;stroke-width:0.453919;stroke-dasharray:none"
     d="m 80.616525,115.49965 c -0.738227,-0.36787 -1.111102,-1.3761 -0.765453,-2.06973 0.209481,-0.42037 0.705996,-0.94184 1.005787,-1.05633 0.677791,-0.25885 1.594446,0.19313 1.932176,0.95271 0.404963,0.9108 -0.128776,1.9225 -1.175756,2.22865 -0.424828,0.12423 -0.663009,0.11102 -0.996754,-0.0553 z"
     id="path136" /><path
     style="fill:#ffffff;stroke:none;stroke-width:0.453919;stroke-dasharray:none"
     d="m 92.012349,105.9371 c -0.779912,-0.2744 -1.352883,-0.9868 -1.355667,-1.68555 -0.0021,-0.55831 0.365623,-1.04226 1.049769,-1.38112 0.694775,-0.34412 1.268262,-0.26305 1.773595,0.25073 0.266316,0.27076 0.512572,0.79622 0.55858,1.19189 0.09017,0.77548 -0.439288,1.52877 -1.149588,1.63557 -0.138203,0.0208 -0.326663,0.0497 -0.418796,0.0642 -0.09214,0.0145 -0.298188,-0.0195 -0.457893,-0.0757 z"
     id="path137" /><path
     style="fill:#ffffff;stroke:none;stroke-width:0.453919;stroke-dasharray:none"
     d="m 120.27715,83.571789 c -0.94029,-0.43787 -1.11052,-1.446774 -0.3587,-2.125994 0.49359,-0.445931 1.18535,-0.568896 1.76358,-0.313491 0.93742,0.414065 1.13109,1.409724 0.41374,2.127075 -0.45123,0.451223 -1.23236,0.585409 -1.81862,0.31241 z"
     id="path138" /><path
     style="fill:#ffffff;stroke:none;stroke-width:0.453919;stroke-dasharray:none"
     d="m 113.82771,65.72097 c -0.0428,-0.08002 -0.0795,-0.49184 -0.0977,-1.09605 l -0.0291,-0.96787 h 1.12488 1.12489 v 1.024816 1.024814 l -0.65612,0.03582 c -0.36086,0.01971 -0.82311,0.05176 -1.02722,0.07124 -0.34768,0.03317 -0.37544,0.02732 -0.43971,-0.09277 z"
     id="path139" /><path
     style="fill:#ffffff;stroke:#ffffff;stroke-width:0.453919;stroke-dasharray:none"
     d="m 108.62095,34.448066 c -0.34557,-0.08142 -0.6255,-0.252715 -0.88544,-0.54183 -0.25462,-0.283197 -0.53002,-0.783426 -0.58633,-1.065014 -0.0469,-0.234537 0.11689,-0.540658 0.49061,-0.916903 1.00175,-1.008523 2.21987,-0.773253 2.87662,0.555598 0.36941,0.747446 0.31339,1.311191 -0.17271,1.737988 -0.10846,0.09523 -0.29211,0.199503 -0.40812,0.231719 -0.25006,0.06944 -1.01713,0.06853 -1.31463,-0.0016 z"
     id="path140" /><path
     style="fill:#ffffff;stroke:#ffffff;stroke-width:2.1508;stroke-dasharray:none"
     d="m 28.254797,19.767189 9.157679,14.406596 6.142347,6.477384 -1.11679,-9.716077 z"
     id="path142" /><path
     style="fill:#ffffff;stroke:#ffffff;stroke-width:2.1508;stroke-dasharray:none"
     d="m 28.813192,33.280353 7.259137,3.908767 1.00511,6.142344 -5.137235,-3.797085 z"
     id="path143" /><path
     style="fill:#ffffff;stroke:#ffffff;stroke-width:2.1508;stroke-dasharray:none"
     d="m 49.585492,13.95988 -0.11168,5.025556 4.802201,0.893432 -0.33504,-6.030668 z"
     id="path144" /><path
     style="fill:#ffffff;stroke:#ffffff;stroke-width:2.1508;stroke-dasharray:none"
     d="M 90.46002,19.543831 89.789944,27.91976 96.714045,20.772301 102.63303,6.9241002 Z"
     id="path145" /><path
     style="fill:#ffffff;stroke:#ffffff;stroke-width:2.1508;stroke-dasharray:none"
     d="m 113.80094,44.671613 v 3.238694 l 2.79197,0.558395 1.11679,-2.791976 z"
     id="path146" /><path
     style="fill:#ffffff;stroke:#ffffff;stroke-width:2.1508;stroke-dasharray:none"
     d="m 101.18121,83.089202 1.00511,2.791976 2.23358,-0.335037 -0.78175,-3.350371 z"
     id="path147" /><path
     style="fill:#ffffff;stroke:#ffffff;stroke-width:2.1508;stroke-dasharray:none"
     d="m 107.65859,125.52724 -2.1219,3.57372 c 0,0 1.56351,1.89855 2.01022,1.89855 0.44672,0 3.90877,0 3.90877,0 l 1.11679,-2.45694 -0.33504,-2.45694 -2.45694,-1.11679 0.89344,-5.24891 2.56861,-0.11168 -0.22336,0.78175 h 4.02045 v -5.24891 h -4.8022 l -0.11168,0.55839 -6.25403,0.11168 c 0,0 -1.11679,-9.82775 -0.55839,-9.82775 0.55839,0 8.15257,0 8.15257,0 0,0 -3.79709,-1.56351 0.5584,0 4.35548,1.5635 6.47738,1.5635 4.57884,1.5635 -1.89855,0 0.78175,-3.68541 0.78175,-3.68541 v -2.23358 l -3.68541,-1.45183 -1.89854,2.01023 -6.47739,0.44671 h -2.56862 l -1.89854,2.34526 -0.11168,13.40149 -1.78686,1.78686 H 89.789944 l -0.781754,2.23358 -0.670073,4.46716 v 3.46206 l 3.238693,-0.22336 0.670074,-6.70075 9.492716,-0.44671 3.12701,-3.01533 3.01534,-0.11169 z"
     id="path148" /><path
     style="fill:#ffffff;stroke:#ffffff;stroke-width:2.1508;stroke-dasharray:none"
     d="m 72.591374,121.61847 h 2.568617 l 0.558395,3.79709 -3.462049,0.55839 z"
     id="path149" /><path
     style="fill:#ffffff;stroke:#ffffff;stroke-width:2.1508;stroke-dasharray:none"
     d="m 64.438804,116.92795 -2.233581,-0.11168 -2.121902,1.22847 -0.111678,2.23358 2.456939,0.67007 2.345259,-1.0051 z"
     id="path150" /><path
     style="fill:#ffffff;stroke:#ffffff;stroke-width:2.1508;stroke-dasharray:none"
     d="m 67.900853,107.32355 v 2.79198 l 5.025557,0.11168 c 0,0 -1.228468,-2.90366 -1.675185,-2.90366 -0.446718,0 -3.350372,0 -3.350372,0 z"
     id="path151" /><path
     style="fill:#ffffff;stroke:#ffffff;stroke-width:2.1508;stroke-dasharray:none"
     d="m 16.305139,107.65859 -0.111679,3.79709 3.797087,0.33504 0.558396,-3.79709 z"
     id="path152" /><path
     style="fill:#ffffff;stroke:#ffffff;stroke-width:2.1508;stroke-dasharray:none"
     d="m 39.981096,115.5878 v 3.79709 l 4.802198,0.11168 -0.893434,-3.01534 z"
     id="path153" /><path
     style="fill:#ffffff;stroke:#ffffff;stroke-width:2.1508;stroke-dasharray:none"
     d="m 26.80297,130.88783 0.558395,3.68541 3.462049,-1.11679 -0.670073,-2.56862 z"
     id="path154" /><path
     style="fill:#ffffff;stroke:#ffffff;stroke-width:2.1508;stroke-dasharray:none"
     d="m 24.681067,75.941745 4.020444,-1.675186 3.350371,1.340149 -1.898541,1.675186 z"
     id="path155" /><path
     style="fill:#000000;stroke-width:0.566944"
     d="m 28.403172,134.63644 c -1.351002,-0.0485 -1.374272,-0.0557 -1.476361,-0.45637 -0.09688,-0.3802 -0.121112,-3.0371 -0.02855,-3.12968 0.02313,-0.0231 0.815036,0.007 1.759804,0.0653 l 1.717758,0.10728 0.04684,1.12503 c 0.0657,1.57776 -0.0723,2.4084 -0.393548,2.36893 -0.139323,-0.0172 -0.871001,-0.0532 -1.625951,-0.0804 z m 51.801824,-3.01877 c -0.689148,-0.45439 -1.201092,-1.34356 -1.273032,-2.21109 -0.08422,-1.01547 0.18157,-1.80445 0.839762,-2.49285 l 0.534566,-0.55909 0.05966,-3.81445 0.05966,-3.81445 -0.826099,-0.24016 c -0.667083,-0.19392 -0.95911,-0.39154 -1.517032,-1.02658 -1.464064,-1.66645 -1.858861,-3.19128 -1.301419,-5.02653 0.491971,-1.61971 1.939388,-3.02014 3.133507,-3.0318 l 0.337508,-0.003 0.02778,-4.01259 c 0.01525,-2.20694 0.0079,-4.68853 -0.01645,-5.514655 l -0.04417,-1.502037 2.528981,-2.492686 c 2.694575,-2.655907 3.990631,-3.811697 6.091575,-5.432347 0.721895,-0.556861 1.312531,-1.085728 1.312531,-1.175247 0,-0.177162 -0.867769,-1.278482 -3.272987,-4.153877 -1.541123,-1.842375 -1.657375,-2.107471 -0.927492,-2.11493 0.725445,-0.0079 3.529082,-1.192827 7.166658,-3.030147 2.287452,-1.155375 4.182915,-2.123827 4.212141,-2.152123 0.193078,-0.186901 -7.983793,-3.670258 -8.615607,-3.670258 -0.09681,0 -0.255782,-0.09605 -0.353268,-0.213569 -0.139162,-0.167681 -0.109604,-0.34619 0.13758,-0.830697 0.377585,-0.740133 3.40517,-4.947335 10.174542,-14.138786 0.850512,-1.154824 1.525529,-2.119322 1.500039,-2.143328 -0.0999,-0.09414 -4.205158,0.854748 -6.121506,1.414878 -3.183132,0.930393 -5.623687,1.511147 -6.350441,1.511147 H 87.03414 l 0.14126,-0.637517 c 0.07769,-0.350638 0.444092,-1.676839 0.814233,-2.947109 0.370134,-1.27027 0.653775,-2.356953 0.630316,-2.41485 -0.03878,-0.09571 -4.208994,1.206026 -5.300229,1.654463 -0.29848,0.122657 -0.707545,0.150482 -1.177094,0.08009 l -0.719639,-0.107953 0.102089,-0.544178 c 0.0929,-0.495179 1.108981,-3.218474 4.014027,-10.75836 0.572171,-1.485041 1.202368,-3.121957 1.400442,-3.637592 0.198072,-0.515634 0.290167,-0.937525 0.204644,-0.937525 -0.08552,0 -0.64385,0.329541 -1.240733,0.732314 -0.596884,0.402773 -1.926996,1.154263 -2.9558,1.669965 -1.028804,0.515702 -2.258691,1.201196 -2.733075,1.523324 l -0.862525,0.585686 -0.03747,-3.643175 c -0.02064,-2.003752 -0.01321,-4.706335 0.0165,-6.005743 0.02971,-1.299408 0.01928,-2.36256 -0.02313,-2.36256 -0.103583,0 -1.791733,2.856885 -3.855765,6.525165 -2.461634,4.374905 -2.708351,4.799729 -3.745908,6.450159 -0.985483,1.567606 -1.299616,1.979871 -1.41822,1.861257 -0.140308,-0.140304 -0.690668,-2.967205 -1.136268,-5.836355 -0.249853,-1.608789 -0.624828,-3.836345 -0.833277,-4.950124 -0.367725,-1.964799 -2.703623,-13.945375 -2.866193,-14.70037 -0.129683,-0.602266 -0.835137,2.402301 -1.928232,8.212412 -0.539413,2.86711 -1.143718,6.056698 -1.342901,7.087974 -0.736097,3.811074 -1.671032,9.082414 -1.956006,11.028349 -0.04858,0.331688 -0.146748,0.697615 -0.21816,0.813161 -0.213534,0.345505 -0.705414,-0.08706 -2.492794,-2.191889 -1.45451,-1.712899 -5.329843,-5.782515 -5.420304,-5.692052 -0.04485,0.04482 -0.875698,6.872443 -1.088233,8.942754 -0.241878,2.356133 -0.600295,4.539497 -0.780921,4.757143 -0.08809,0.106156 -0.236276,0.192675 -0.329301,0.192293 -0.09302,-3.82e-4 -1.164788,-0.46878 -2.381694,-1.040896 l -2.212556,-1.04021 v 0.409164 c 0,0.225039 0.135003,0.673969 0.300008,0.997614 0.165004,0.323645 0.300007,0.606984 0.300007,0.629631 0,0.02269 -0.354383,-0.08897 -0.78752,-0.247921 -0.433135,-0.159008 -1.732543,-0.567398 -2.887572,-0.907533 -1.155057,-0.340023 -3.517617,-1.079999 -5.250162,-1.644285 -3.837,-1.249679 -4.725119,-1.513709 -4.725119,-1.404678 0,0.27168 5.957252,8.825377 7.324167,10.516382 0.285127,0.352728 0.489171,0.670565 0.453431,0.70631 -0.03574,0.03572 -0.647748,0.166602 -1.360016,0.29081 -1.278611,0.222971 -1.322286,0.22023 -3.443797,-0.216265 -1.18182,-0.243147 -2.268085,-0.443236 -2.413922,-0.444629 -0.309984,-0.0034 1.672227,3.046143 3.508976,5.397603 0.612207,0.783775 1.606786,2.091216 2.210174,2.905445 0.603388,0.814217 2.137519,2.793336 3.40918,4.398035 1.27166,1.604687 2.312111,2.990706 2.312111,3.080034 0,0.343572 -2.853059,2.787191 -5.675649,4.861141 -0.222953,0.163817 -0.204593,0.200471 0.172553,0.344449 0.376602,0.143776 6.561026,0.882505 9.590699,1.145613 0.97875,0.08504 1.162529,0.143338 1.162529,0.369062 0,0.297718 -1.932006,2.510816 -3.581687,4.102799 -0.587637,0.567083 -1.068431,1.122483 -1.068431,1.234233 0,0.236126 1.431293,1.444421 3.041048,2.567242 1.101423,0.768261 1.126544,0.777147 1.385818,0.490651 0.44246,-0.48891 1.840775,-0.931898 2.998322,-0.949883 1.361082,-0.02112 2.092353,0.349628 2.932431,1.486805 1.483629,2.008302 1.560926,3.205353 0.317869,4.922734 l -0.530262,0.732596 0.621721,0.579945 c 0.341952,0.318961 0.67943,0.579934 0.749963,0.579934 0.07053,0 0.206907,-0.658141 0.303049,-1.46254 0.09615,-0.804388 0.375969,-2.17131 0.621836,-3.037572 0.24586,-0.866273 0.587789,-2.418815 0.759834,-3.450084 0.17205,-1.03128 0.779932,-4.271367 1.35085,-7.200188 1.210413,-6.209473 2.023557,-10.650969 2.773708,-15.150385 0.295729,-1.773795 0.766099,-4.47386 1.045262,-6.00015 0.279169,-1.52629 0.551739,-3.078832 0.605723,-3.450084 0.217111,-1.493196 1.303499,-6.833104 1.413208,-6.946303 0.06456,-0.06661 0.2567,0.574644 0.426971,1.425033 0.17027,0.850388 0.418484,2.086183 0.551591,2.7462 0.133106,0.660017 0.409509,2.178803 0.61422,3.375079 0.745548,4.356752 1.278185,7.333124 1.795715,10.034447 0.290745,1.517584 0.735149,4.116403 0.987569,5.775145 0.252414,1.658732 0.887459,5.175946 1.411208,7.816014 1.100091,5.545209 1.636521,8.652091 1.877721,10.875266 0.09399,0.866272 0.183782,1.588062 0.199542,1.603968 0.04683,0.04729 3.194489,-4.95676 3.290165,-5.230585 0.0491,-0.140529 -0.01775,-0.339135 -0.151441,-0.45002 -0.667191,-0.553289 -0.86532,-2.546089 -0.36276,-3.648555 0.617935,-1.355543 1.943359,-2.26658 3.536815,-2.431037 1.440863,-0.148719 2.873128,0.78218 3.676242,2.389372 0.769195,1.539287 0.527762,3.10513 -0.687119,4.45637 -0.866584,0.963846 -1.060869,1.065497 -2.268623,1.186896 l -0.980256,0.09852 -1.932966,3.215161 c -2.743881,4.563975 -5.155448,8.116785 -5.726361,8.436285 -0.189716,0.10615 -0.281141,0.0579 -0.39076,-0.20628 -0.253735,-0.61151 -1.32163,-6.380318 -1.95207,-10.545148 -0.732108,-4.836809 -1.963594,-12.142165 -2.50337,-14.850745 -0.213737,-1.072528 -0.608732,-3.266339 -0.877776,-4.875127 -0.269037,-1.608787 -0.529269,-2.823823 -0.578293,-2.700065 -0.04904,0.123747 -0.294487,1.44004 -0.545473,2.92507 -0.250981,1.485041 -0.68658,3.780098 -0.967999,5.100131 -1.256047,5.891692 -2.090882,10.517899 -2.639264,14.625371 -0.170723,1.278774 -0.545178,3.708845 -0.832114,5.40013 -0.286941,1.691303 -0.755877,4.661373 -1.042088,6.600173 -0.286209,1.93881 -0.819012,5.21264 -1.183999,7.27519 -0.364987,2.06254 -1.18769,6.80454 -1.828228,10.53776 l -1.164609,6.78767 -10.583924,-0.004 c -8.563014,-0.005 -10.634049,-0.0428 -10.846432,-0.20405 -0.231628,-0.17582 -0.262506,-0.49484 -0.262506,-2.71198 v -2.51273 l -0.487513,0.0832 c -0.268132,0.0457 -2.883823,0.12267 -5.812647,0.17088 -2.928824,0.0482 -5.662643,0.12362 -6.075152,0.16755 -0.69836,0.0744 -0.768984,0.12066 -1.025349,0.67182 -0.625773,1.34537 -2.315953,2.53778 -3.767809,2.65818 -1.016742,0.0844 -1.798806,-0.1475 -2.901018,-0.85989 -1.708203,-1.10406 -2.579861,-3.09708 -2.13186,-4.87442 0.619715,-2.45858 2.298094,-3.84128 4.650905,-3.83153 1.332191,0.006 2.092779,0.38195 3.413678,1.68954 l 1.088621,1.07764 3.936507,0.003 c 2.165077,0.002 5.151536,-0.0311 6.636574,-0.0724 l 2.700068,-0.075 1.57504,1.05003 1.575039,1.05003 0.07501,1.57503 0.07501,1.57505 5.488304,0.0393 5.488303,0.0393 0.09627,-5.3713 c 0.105144,-5.86648 0.0038,-7.54043 -0.509051,-8.41252 -0.500166,-0.85045 -2.415266,-3.32026 -2.57454,-3.32026 -0.0786,0 -0.519502,0.10952 -0.979776,0.24329 -0.63249,0.18386 -1.096038,0.21605 -1.898133,0.13179 -1.469832,-0.1544 -1.911338,-0.15492 -7.448627,-0.009 -2.688026,0.0709 -5.064815,0.0845 -5.281757,0.03 -0.407069,-0.10211 -0.387574,-0.073 -2.470744,-3.69632 -1.516926,-2.63844 -4.374649,-7.104747 -4.774937,-7.462698 -0.327624,-0.292978 -0.539604,-0.336844 -1.606589,-0.332463 -0.676042,0.0034 -1.937934,0.06819 -2.804207,0.145326 -1.387539,0.123548 -1.601836,0.180737 -1.800054,0.480343 -1.639848,2.478642 -3.43475,3.257172 -5.9153085,2.565732 C 9.093019,101.8875 8.7714221,101.687 8.0906594,101.00682 7.6316154,100.54817 7.0661329,99.783401 6.8340312,99.307341 6.4545869,98.529048 6.4188153,98.324534 6.4793228,97.279313 6.5558448,95.957358 7.004364,94.80214 7.7872942,93.910435 c 0.572746,-0.652322 2.0120513,-1.406699 2.9531538,-1.547824 0.91134,-0.136665 2.411634,0.173016 3.092875,0.638415 0.490075,0.334811 1.236496,1.307599 1.692128,2.205303 0.202022,0.398032 0.839772,0.557849 2.100053,0.526261 0.577515,-0.01449 2.233379,-0.01696 3.6797,-0.0056 l 2.629673,0.02078 0.573461,1.16253 c 0.315402,0.639393 1.297031,2.276309 2.181396,3.6376 0.884366,1.36129 2.02824,3.15008 2.541941,3.97509 0.513702,0.82503 1.153949,1.74942 1.422772,2.05422 l 0.488769,0.55416 3.329054,0.0458 3.329053,0.0458 -1.55e-4,-1.2319 c -1.9e-4,-1.50842 0.346759,-2.52596 1.199362,-3.51752 1.735137,-2.01794 5.131249,-2.04305 6.880392,-0.0509 1.100052,1.25288 1.580423,2.95687 1.244032,4.41286 l -0.153083,0.66258 1.65635,1.81248 c 2.361717,2.58435 2.336011,2.50575 2.383543,7.28763 0.01695,1.70556 0.07515,2.7062 0.139585,2.40006 0.06078,-0.28876 0.119397,1.37403 0.130258,3.69509 0.01911,4.08479 0.02936,4.22263 0.319604,4.29853 0.164922,0.0431 0.328433,0.0322 0.363356,-0.0243 0.05526,-0.0894 1.200433,-6.30077 2.630828,-14.26946 0.787902,-4.38937 0.909467,-5.14449 1.12291,-6.97518 0.201247,-1.72605 0.197914,-1.81546 -0.08116,-2.17505 -0.160071,-0.20624 -0.75763,-0.99226 -1.327909,-1.7467 -1.337514,-1.7694 -1.438158,-1.836477 -2.614027,-1.74209 -1.398602,0.11222 -2.445317,-0.237309 -3.216865,-1.074341 -0.829896,-0.900322 -1.102428,-1.597487 -1.133566,-2.899761 l -0.02601,-1.087739 -0.78856,-0.51933 C 46.0965,94.192287 45.231402,93.534247 44.607767,93.015602 41.05094,90.057551 40.351073,89.421765 40.351073,89.148693 c 0,-0.160379 0.603549,-0.921148 1.35131,-1.703317 l 1.351311,-1.413496 -2.363836,-0.557972 c -5.929871,-1.400117 -7.930873,-1.898283 -8.138332,-2.026501 -0.293647,-0.181487 0.379556,-0.886111 2.699416,-2.825419 0.948774,-0.793132 2.369786,-2.091351 3.157805,-2.88491 l 1.432764,-1.442753 -1.000458,-1.336232 C 38.290801,74.22316 37.01878,72.793455 36.014341,71.78098 l -1.826253,-1.84087 -2.506148,0.148921 c -1.378382,0.08189 -3.470468,0.157335 -4.64908,0.167613 l -2.142933,0.01865 -1.382156,-1.173877 c -3.299506,-2.80229 -4.221649,-3.684425 -7.319726,-7.002134 l -0.394278,-0.422229 -0.959179,0.251009 C 12.833694,62.451685 10.917853,61.950533 9.6021571,60.5594 8.2405598,59.119709 7.8618805,57.847484 8.3109425,56.221352 c 0.5137606,-1.860404 1.2292131,-2.87744 2.4413115,-3.470405 0.762438,-0.372993 1.044201,-0.427194 2.223129,-0.427655 1.09017,-4.15e-4 1.494404,0.06572 2.100054,0.343405 1.025665,0.47033 1.922498,1.392388 2.409246,2.477004 0.384566,0.856926 0.401861,0.990873 0.309639,2.398134 l -0.09767,1.490512 1.764476,1.750317 c 1.742842,1.72885 5.583203,5.246109 6.198866,5.677336 0.360334,0.25238 0.704805,0.270061 4.317399,0.221556 l 2.601637,-0.03494 -0.563191,-0.787527 C 31.061102,64.52407 29.535287,62.618957 28.200777,61.095655 27.49951,60.295176 26.288628,58.911528 25.50993,58.020878 l -1.415816,-1.619358 1.340813,0.08672 c 0.800368,0.05179 2.486444,0.363107 4.183044,0.772429 3.251619,0.784494 3.380759,0.8024 3.051432,0.423217 -0.125395,-0.144382 -0.616467,-0.971271 -1.091271,-1.837544 -0.474804,-0.866273 -1.406248,-2.418815 -2.069874,-3.450095 -0.663627,-1.031269 -1.627091,-2.561164 -2.141033,-3.399758 -1.422948,-2.321815 -1.730319,-2.728396 -3.202332,-4.23587 -0.749531,-0.767587 -1.321633,-1.462203 -1.271337,-1.543578 0.05235,-0.0847 0.322008,-0.104695 0.630658,-0.04684 0.565371,0.106043 5.715089,1.90035 9.551686,3.328045 3.472833,1.292332 8.394685,2.888033 8.448934,2.739224 0.0268,-0.07347 -0.165085,-0.71415 -0.426407,-1.423628 -0.261321,-0.709488 -0.443313,-1.321797 -0.404426,-1.360676 0.151151,-0.151156 5.696327,2.294394 6.291937,2.774879 0.210026,0.169433 0.303264,0.173343 0.487513,0.02045 0.270541,-0.224533 0.321607,-1.128033 0.05443,-0.962902 -0.242612,0.149943 -0.06231,-1.283031 0.388725,-3.089538 0.195689,-0.783763 0.466299,-2.268804 0.601356,-3.300084 0.542358,-4.141363 0.675004,-5.255785 0.848082,-7.125178 0.0993,-1.072527 0.225846,-2.038315 0.281213,-2.146195 0.06607,-0.128733 0.91733,0.74767 2.4769,2.550065 3.675088,4.247292 5.085404,5.794992 5.293081,5.808697 0.285508,0.01887 0.436162,-0.484046 0.715228,-2.38747 0.139099,-0.948775 0.477117,-2.64096 0.751143,-3.760414 0.274033,-1.119453 0.669544,-2.941999 0.878911,-4.050102 0.449704,-2.380124 2.103756,-11.489439 2.340539,-12.890006 0.09067,-0.536264 0.528392,-2.831322 0.97274,-5.10013 0.444342,-2.268806 1.086581,-5.6101399 1.427194,-7.425187 0.34062,-1.8150448 0.703776,-3.5542857 0.807011,-3.8649795 l 0.187695,-0.56489917 0.164293,1.01490837 c 0.09036,0.5581999 0.406646,2.3986928 0.702852,4.0899863 0.296205,1.6912923 0.809958,4.661368 1.141671,6.600166 0.331712,1.938799 0.864905,4.908874 1.184871,6.600166 0.687811,3.635698 1.150573,6.398945 1.519817,9.075229 0.261288,1.893796 0.371926,2.465541 1.334886,6.89819 0.250685,1.153939 0.455794,2.149589 0.455794,2.212556 0,0.06296 0.09545,0.114487 0.212115,0.114487 0.21659,0 1.799989,-2.92863 6.163702,-11.400287 4.245481,-8.242118 4.897643,-9.452087 5.174435,-9.600222 0.251571,-0.134636 0.282151,-0.04157 0.382636,1.164355 0.0663,0.795685 0.04309,1.752739 -0.05913,2.435715 -0.0926,0.618765 -0.208579,1.732543 -0.257732,2.475063 -0.04916,0.742518 -0.184506,2.15152 -0.30077,3.131115 -0.118996,1.002629 -0.255617,4.202768 -0.312584,7.321851 l -0.101201,5.540768 0.886932,-0.584787 c 0.487809,-0.321631 1.831952,-1.149658 2.98698,-1.840057 1.155029,-0.690398 2.842569,-1.723154 3.750092,-2.295013 1.736401,-1.094158 3.354525,-1.969206 3.45522,-1.86851 0.03288,0.03286 -0.446876,1.30518 -1.066085,2.827379 -0.619205,1.522197 -1.326008,3.320006 -1.570672,3.99513 -0.244664,0.675124 -0.823269,2.092659 -1.285788,3.150079 -0.462518,1.05742 -1.173624,2.833854 -1.580241,3.947632 -0.406618,1.113778 -0.90118,2.330195 -1.099031,2.703143 -0.197852,0.372937 -0.431642,0.867205 -0.519525,1.098366 l -0.159793,0.420285 0.862933,-0.107279 c 0.99726,-0.123982 2.349386,-0.60531 3.779569,-1.345421 0.551629,-0.285474 1.176537,-0.519038 1.388688,-0.519038 0.633729,0 0.67117,0.908634 0.120543,2.925081 -0.737457,2.700616 -0.967313,3.818909 -0.815304,3.966606 0.0833,0.08088 0.472071,0.05684 0.964551,-0.05976 0.45376,-0.107391 1.921922,-0.455614 3.262579,-0.773699 l 2.437561,-0.578339 v -4.815208 -4.81522 L 99.4661,42.783295 c 0.7349,-1.214957 1.29273,-1.985858 4.08117,-5.63998 l 1.28017,-1.677613 -0.30004,-0.947452 c -0.35634,-1.125188 -0.29935,-2.184933 0.18926,-3.51868 0.39233,-1.070945 1.14368,-1.887606 2.22216,-2.415302 0.69027,-0.337747 0.99701,-0.394818 2.05966,-0.383217 1.69943,0.01855 2.92604,0.567028 3.62373,1.620351 1.23922,1.870878 1.50476,3.788698 0.74016,5.345661 -0.487,0.991689 -1.49538,1.975785 -2.48315,2.423369 -0.57317,0.259723 -1.00069,0.318966 -2.3391,0.324141 l -1.63775,0.0063 -0.6626,0.900022 c -1.93362,2.626435 -2.76321,3.882225 -3.39199,5.134634 l -0.69513,1.384536 v 3.678088 c 0,3.04594 0.0359,3.678087 0.20921,3.678087 0.11507,0 0.63821,-0.129689 1.16254,-0.288192 1.36866,-0.413759 5.07325,-1.235469 5.32923,-1.182066 0.1515,0.03157 0.0222,0.277633 -0.42955,0.817397 -0.35546,0.4247 -1.11879,1.385996 -1.69631,2.136206 -0.57751,0.75021 -1.22632,1.494758 -1.44179,1.654541 -0.21548,0.159784 -0.81607,0.919789 -1.33466,1.688893 -2.96367,4.395361 -3.54918,5.214094 -7.275432,10.173607 -2.49361,3.3189 -3.311369,4.477499 -3.207907,4.544978 0.486154,0.317051 3.04266,1.364911 3.434537,1.407744 0.49285,0.05392 0.580154,-0.009 1.425035,-1.02864 1.516177,-1.829524 2.798537,-3.471023 3.171007,-4.05909 0.19511,-0.30803 0.78973,-1.021159 1.32137,-1.584737 l 0.96664,-1.024686 1.3956,-0.18653 c 0.76758,-0.102561 2.22248,-0.199494 3.23311,-0.215322 l 1.83751,-0.02876 3e-5,-2.578374 4e-5,-2.578374 0.64066,-0.09605 c 1.17555,-0.176286 8.17483,-0.01752 8.38221,0.190102 0.22448,0.224757 0.27503,5.272654 0.0758,7.575282 l -0.1265,1.462541 -2.49857,-0.0034 c -1.37421,-0.0022 -3.67985,-0.06527 -5.12363,-0.140564 -1.44379,-0.07537 -3.4292,-0.15311 -4.41203,-0.172825 -1.71434,-0.03437 -1.79188,-0.02258 -1.90777,0.290709 -0.0664,0.17961 -0.729,1.004735 -1.47235,1.833601 -1.538,1.714943 -2.5551,3.005141 -2.90396,3.683704 l -0.23954,0.465915 0.6302,0.197169 c 0.34662,0.108402 1.80494,0.767644 3.24071,1.464888 l 2.6105,1.267709 -0.73545,0.271072 c -0.90018,0.331789 -3.56408,1.183571 -5.38558,1.722043 -0.74252,0.2195 -2.28254,0.833629 -3.422271,1.36472 -1.139727,0.531103 -2.490645,1.123124 -3.00204,1.315608 -1.219432,0.458996 -2.696898,1.209127 -2.926561,1.48585 -0.196588,0.236878 -0.158194,0.294718 1.637616,2.467017 0.46033,0.556838 0.992865,1.271854 1.183414,1.588938 l 0.346449,0.576497 -4.858506,4.801279 c -2.672175,2.640697 -5.204224,5.066039 -5.626773,5.389627 l -0.768265,0.588359 -0.01701,3.109104 c -0.0093,1.71 -0.06096,3.80102 -0.114728,4.64673 l -0.09775,1.53764 0.976396,0.95266 c 0.73545,0.71758 1.059492,1.171 1.31312,1.83744 0.494675,1.29984 0.530296,1.94376 0.171744,3.10461 -0.415915,1.34659 -0.533466,1.55424 -1.375723,2.43029 l -0.721083,0.75002 -0.14436,3.97511 -0.144367,3.97509 0.395126,0.33211 c 0.363472,0.30551 0.554334,0.33255 2.382675,0.33752 l 1.987551,0.006 v -2.25304 c 0,-2.58135 0.02625,-2.65446 1.522838,-4.23705 l 0.813337,-0.8601 h 5.33962 5.339631 l 0.53398,-0.59106 c 0.2937,-0.32509 0.57243,-0.81447 0.6194,-1.08753 0.14212,-0.82607 0.16525,-9.05979 0.0313,-11.16771 l -0.12518,-1.97104 1.02521,-0.8156 c 1.90592,-1.51625 1.36138,-1.39248 6.1268,-1.39248 h 4.21478 l 0.29272,-0.45001 c 0.50128,-0.77065 1.14785,-0.99544 2.7169,-0.9446 1.22576,0.0398 1.42006,0.0855 1.78234,0.41959 0.65385,0.60303 0.96045,1.44105 0.96045,2.62506 0,2.23894 -1.14359,3.38706 -3.35338,3.36662 -1.49061,-0.0138 -1.91285,-0.22969 -2.24213,-1.14641 l -0.28012,-0.77988 -3.59842,0.0571 c -3.14424,0.0499 -3.63445,0.0898 -3.88406,0.31561 -0.26486,0.23971 -0.28564,0.50605 -0.28564,3.662 0,1.87193 0.0435,4.11319 0.0965,4.98056 l 0.0965,1.57705 2.11606,-0.029 c 4.79008,-0.0656 4.59112,-0.0498 4.59112,-0.36647 0,-0.35718 0.28188,-0.41726 2.56363,-0.54647 l 1.7386,-0.0984 0.099,1.84009 c 0.0545,1.01205 0.099,2.22489 0.099,2.69519 v 0.8551 l -0.92202,0.0964 c -0.50712,0.053 -1.48589,0.0964 -2.17506,0.0964 h -1.25302 v -0.52501 c 0,-0.58281 0.0721,-0.55559 -1.50005,-0.56552 l -0.97502,-0.006 -0.0408,2.61718 -0.0408,2.61717 0.67114,0.47306 c 0.99608,0.7021 1.32778,1.46028 1.26291,2.88676 -0.0447,0.98454 -0.11314,1.23083 -0.4726,1.7021 -0.48458,0.63532 -0.98817,0.92847 -1.9749,1.1496 -1.85373,0.41542 -3.43825,-1.01074 -3.42427,-3.08204 0.007,-1.00738 0.27625,-1.67656 0.96952,-2.40783 0.43654,-0.46045 0.44209,-0.4881 0.48151,-2.40005 0.0219,-1.06384 0.0117,-2.28862 -0.0229,-2.72176 l -0.0628,-0.78753 h -1.15939 c -1.31875,0 -1.25781,-0.0416 -2.4603,1.6766 -1.16504,1.66463 -0.48243,1.50957 -6.401352,1.45411 -4.748678,-0.0445 -5.233839,-0.026 -5.599756,0.21381 l -0.400631,0.2625 v 3.52489 3.52489 l -3.611339,-0.0238 -3.611333,-0.0238 -0.452267,0.54869 c -0.64203,0.77889 -1.144325,0.99259 -2.330364,0.99143 -0.740525,-5.6e-4 -1.135622,-0.0773 -1.442073,-0.27929 z m -63.696214,-6.32434 c 0.408501,-0.21862 0.741711,-0.93402 0.741711,-1.59244 0,-0.83201 -0.595508,-1.40318 -1.462961,-1.40318 -0.361249,0 -0.786683,0.0695 -0.945408,0.15444 -0.346359,0.18536 -0.74171,0.90629 -0.74171,1.3525 0,1.06999 1.480608,1.9852 2.408368,1.48868 z m 65.489779,-9.84103 c 1.255247,-0.59565 1.285669,-2.34269 0.05193,-2.98071 -0.669147,-0.34603 -1.238181,-0.28211 -1.676996,0.18838 -0.794123,0.85143 -0.906803,1.45661 -0.419889,2.25523 0.47321,0.77615 1.160714,0.95671 2.044976,0.5371 z m -38.154394,-8.73133 c 0.730233,-0.73024 0.244891,-2.16739 -0.856484,-2.53616 -0.697766,-0.23363 -1.163887,-0.12253 -1.738697,0.41441 -0.728766,0.68078 -0.595291,1.83599 0.268389,2.3229 0.593871,0.3348 1.904115,0.22153 2.326792,-0.20115 z M 12.21811,98.834798 c 0.891293,-0.372397 1.07439,-1.191108 0.496383,-2.219535 -0.576535,-1.025809 -1.561148,-1.297702 -2.465099,-0.680731 -0.6278279,0.428508 -0.8481357,1.02336 -0.6506417,1.756799 0.3128146,1.161699 1.4194817,1.644813 2.6193577,1.143467 z m 39.950744,-2.421859 c 0.417961,-0.292753 0.782539,-0.98228 0.782539,-1.48002 0,-0.471251 -0.599235,-0.904005 -1.052538,-0.760128 -0.929346,0.294954 -1.901089,1.762988 -1.492709,2.255055 0.242358,0.292022 1.337727,0.282755 1.762708,-0.01494 z m 27.629014,-7.413937 c 0.739215,-0.377116 0.872997,-0.594336 0.523465,-0.849917 -0.535479,-0.391551 -1.719295,-0.158896 -1.719295,0.3379 0,0.318949 0.27961,0.809881 0.461264,0.809881 0.08289,0 0.413444,-0.134037 0.734566,-0.297864 z m 35.667602,-23.251086 0.48752,-0.0011 v -1.050029 -1.050028 h -1.12504 -1.12502 v 1.025034 c 0,0.563758 0.0507,1.075955 0.1125,1.138211 0.0619,0.06223 0.34875,0.07425 0.63751,0.02662 0.28876,-0.04763 0.7444,-0.08728 1.01253,-0.08818 z M 13.965728,58.502985 c 0.280332,-0.188709 0.602064,-0.535203 0.714959,-0.769992 0.393005,-0.817329 -0.279482,-2.030477 -1.262304,-2.277151 -0.748148,-0.187765 -2.165808,0.979832 -2.167481,1.785163 -9.64e-4,0.451706 0.429612,1.134661 0.863846,1.370281 0.595531,0.323128 1.268583,0.283744 1.85098,-0.10829 z M 110.39903,34.249289 c 0.45594,-0.455942 0.52674,-0.993196 0.22038,-1.672548 -0.53253,-1.180953 -1.48876,-1.612015 -2.46082,-1.109334 -0.49261,0.254733 -1.05583,0.915185 -1.05583,1.238088 0,0.450069 0.51613,1.284618 0.96302,1.557129 0.64562,0.3937 1.93357,0.38634 2.33325,-0.01333 z M 72.483862,125.32071 c -0.141957,-0.0901 -0.181649,-0.536 -0.150008,-1.68524 l 0.04304,-1.56278 1.68754,-0.0423 1.687542,-0.0425 v 1.49424 c 0,1.92654 -0.03606,1.96643 -1.773258,1.96338 -0.716004,-0.001 -1.388682,-0.0574 -1.494847,-0.12478 z m -11.056921,-4.45935 c -1.295999,-0.67575 -1.748363,-1.85037 -1.209393,-3.14031 0.348409,-0.83385 1.007566,-1.14804 2.289403,-1.09126 0.946364,0.042 1.135066,0.10032 1.52163,0.47066 0.833832,0.79886 0.936398,2.22354 0.232214,3.22555 -0.508145,0.72305 -1.95109,0.99564 -2.833854,0.53536 z m -21.406023,-0.83164 c -0.09566,-0.0595 -0.110379,-0.7951 -0.04101,-2.04934 l 0.108199,-1.9564 0.468993,-0.0838 c 0.637875,-0.11394 3.083204,-0.15354 3.185149,-0.0516 0.149205,0.1492 0.30968,2.57016 0.220996,3.33399 l -0.08708,0.75002 -1.853016,0.075 c -1.019159,0.0412 -1.920163,0.0331 -2.00223,-0.018 z m 11.188711,-3.80717 c 2.63e-4,-1.07253 0.02415,-1.49161 0.05309,-0.93129 0.02894,0.56032 0.02872,1.43785 -4.76e-4,1.95004 -0.02921,0.51222 -0.05288,0.0537 -0.05262,-1.01875 z M 15.921167,111.2474 c -0.09389,-0.46752 -0.170712,-1.4041 -0.170712,-2.08129 v -1.23127 l 0.468762,-0.0938 c 0.257819,-0.0516 1.2285,-0.0938 2.157069,-0.0938 h 1.688307 l 0.107144,1.71484 c 0.05893,0.94317 0.06166,1.92194 0.0061,2.17505 l -0.101078,0.46022 h -1.992458 -1.992424 z m 52.132644,-0.60624 c -0.04814,-0.0778 -0.07492,-0.85642 -0.05953,-1.73007 l 0.02801,-1.58848 1.577281,-0.0553 c 0.867509,-0.0304 1.589824,-0.0517 1.605141,-0.0473 0.09964,0.0285 0.456538,2.82528 0.392031,3.07197 -0.07038,0.26911 -0.200058,0.3054 -1.091462,0.3054 -0.556376,0 -1.315871,0.0417 -1.687769,0.0927 -0.372515,0.0511 -0.715477,0.0291 -0.763695,-0.049 z m 23.22355,-1.52575 c -1.34009,-0.35386 -2.621547,-1.4049 -3.236646,-2.65467 -0.494289,-1.00431 -0.511678,-2.80577 -0.03708,-3.83988 0.433155,-0.94379 1.446363,-2.01338 2.367663,-2.49941 0.679816,-0.358651 0.922819,-0.40017 2.410315,-0.411785 l 1.654278,-0.01292 1.510575,-1.562337 c 2.53794,-2.624914 4.062234,-4.364863 4.737064,-5.40732 0.48165,-0.74402 0.75281,-1.01826 1.07533,-1.087537 0.23719,-0.05089 2.02599,-0.09279 3.9751,-0.09301 l 3.54384,-4.27e-4 0.30001,-0.450312 c 0.165,-0.247674 1.21127,-1.288569 2.32505,-2.313109 1.11378,-1.024529 2.64527,-2.495887 3.40331,-3.269687 l 1.37825,-1.40689 -0.15416,-0.667184 c -0.37498,-1.622785 0.21117,-3.668124 1.33365,-4.653673 0.89221,-0.783382 1.7586,-1.098085 3.04006,-1.104263 1.39246,-0.0067 2.49793,0.476014 3.44638,1.504958 1.85665,2.014222 1.89315,4.404628 0.0966,6.325288 -1.13588,1.21435 -2.81928,1.813325 -4.29585,1.528503 -1.59725,-0.308098 -1.47364,-0.376307 -4.03832,2.228578 -1.28419,1.304307 -3.1432,3.126855 -4.13114,4.050103 l -1.79628,1.678637 h -3.54829 -3.54829 l -0.57381,0.71251 c -0.31559,0.391888 -1.58953,1.758799 -2.830973,3.037584 -3.406548,3.509013 -3.112366,3.100033 -2.852054,3.964993 0.121297,0.40304 0.22049,1.24522 0.220427,1.87149 -9.7e-5,0.94184 -0.07444,1.29579 -0.430021,2.04742 -0.454354,0.96041 -1.295023,1.80423 -2.248209,2.25664 -0.602694,0.28606 -2.380777,0.41682 -3.096797,0.22775 z m 1.815642,-3.16607 c 0.09108,-0.001 0.344209,-0.16758 0.562516,-0.36989 0.831927,-0.77102 0.371869,-2.5066 -0.767013,-2.89355 -0.922831,-0.31354 -2.286165,0.60003 -2.286165,1.53196 0,0.9832 1.144579,2.0015 2.025054,1.80163 0.165003,-0.0375 0.374528,-0.0691 0.465608,-0.0702 z M 122.11468,83.308253 c 0.74626,-0.746256 0.55112,-1.804484 -0.40653,-2.204606 -1.4173,-0.59219 -2.88658,0.846075 -2.06402,2.020457 0.53015,0.756894 1.80294,0.85176 2.47055,0.184149 z M 19.165727,99.088403 c 0.26961,-0.03336 0.674619,-0.03269 0.900022,0.0022 0.225403,0.03426 0.0048,0.06156 -0.490198,0.06066 -0.495013,-5.73e-4 -0.679433,-0.02887 -0.409824,-0.06223 z m 13.265732,-0.351099 c -1.004812,-0.197898 -2.232849,-1.121226 -2.863265,-2.152786 -0.51825,-0.84803 -0.542404,-0.948232 -0.542404,-2.250057 0,-1.146276 0.0539,-1.453711 0.339634,-1.937195 l 0.339634,-0.574688 -1.329789,-1.450364 c -0.731384,-0.797693 -1.790013,-2.057875 -2.35251,-2.800401 l -1.022721,-1.350027 -6.969494,-0.07504 -6.969494,-0.07504 0.02638,-4.800122 0.02638,-4.800122 -0.664423,-0.719632 C 9.4927711,74.71573 9.4403124,74.1361 10.17315,72.699621 c 0.600037,-1.176168 1.521983,-2.003495 2.232277,-2.003192 0.470176,2.14e-4 2.04525,0.835842 2.717144,1.441545 1.151932,1.038447 1.127135,2.332588 -0.06568,3.427775 l -0.662644,0.60841 0.04059,3.223732 0.04059,3.22372 0.750018,0.08852 c 0.412511,0.04875 2.786729,0.02033 5.276041,-0.06291 4.133061,-0.138283 4.610184,-0.128656 5.495372,0.110986 l 0.96935,0.262389 1.098494,1.52556 c 0.604172,0.839054 1.441285,1.964312 1.860253,2.500582 0.418967,0.536259 1.083355,1.43066 1.476416,1.987544 l 0.714658,1.012531 1.229951,0.0022 c 2.088304,0.0022 3.206564,0.725036 4.10332,2.651278 0.644137,1.383615 0.661687,2.184296 0.07502,3.422416 -0.480883,1.014857 -1.306189,1.833939 -2.412995,2.39481 -0.787262,0.398931 -1.483096,0.456176 -2.679855,0.220466 z m 1.89759,-3.342727 c 0.324902,-0.256289 0.499389,-0.878955 0.397902,-1.419921 -0.174379,-0.929528 -1.606988,-1.168124 -2.338496,-0.389472 -0.590324,0.628373 -0.308387,1.684894 0.537433,2.013964 0.350585,0.136385 1.111558,0.0255 1.403161,-0.204571 z m 67.987921,-9.605534 c -0.0882,-0.106156 -0.39279,-0.693549 -0.67699,-1.305206 l -0.51674,-1.112127 1.07721,-0.548245 c 0.9356,-0.476171 1.10821,-0.520667 1.31302,-0.338416 0.32293,0.287349 0.9832,2.427869 0.80399,2.606423 -0.0768,0.07661 -0.52238,0.308312 -0.99001,0.51495 -0.68153,0.301155 -0.88203,0.337394 -1.01048,0.182621 z M 53.907307,81.681402 c -0.75303,-0.720374 -1.481045,-1.530379 -1.617812,-1.800025 -0.242569,-0.478227 -1.588159,-5.662306 -1.588159,-6.118605 0,-0.130184 1.007118,0.633562 2.326958,1.764639 l 2.32696,1.99416 -0.02869,2.737562 c -0.01576,1.505665 -0.03351,2.736327 -0.03941,2.734799 -0.0058,-0.0011 -0.626817,-0.592156 -1.379846,-1.31253 z m 25.724408,-1.042648 c -0.03067,-0.229419 -0.03266,-1.136447 -0.0045,-2.015627 0.0457,-1.423606 0.08267,-1.60671 0.33791,-1.673458 0.157638,-0.04123 0.321656,-0.0182 0.364482,0.051 0.04281,0.06931 0.679294,0.08706 1.414353,0.03943 l 1.336484,-0.08661 0.09357,0.509018 c 0.05148,0.279958 0.07322,1.184031 0.04836,2.009055 l -0.04524,1.500038 -1.744842,0.04213 -1.744847,0.04212 z M 27.525751,77.055307 c -0.907523,-0.291888 -1.944479,-0.639078 -2.304347,-0.77153 l -0.654305,-0.240833 1.078619,-0.414286 c 0.593239,-0.227858 1.612323,-0.664735 2.264629,-0.970845 l 1.186011,-0.556557 1.464753,0.676586 c 0.805615,0.372128 1.7241,0.760847 2.041078,0.863824 0.316978,0.10301 0.519483,0.237058 0.450012,0.297943 -0.243056,0.213007 -3.440252,1.656911 -3.657301,1.651688 -0.120509,-0.0034 -0.961626,-0.244102 -1.869149,-0.53599 z m 49.579754,-5.421395 c 2.002852,-5.216161 1.433692,-4.488115 4.741359,-6.064921 4.287164,-2.043744 4.649571,-2.199978 4.835914,-2.084813 0.118479,0.07324 -0.300741,1.207183 -1.339007,3.621909 -0.83132,1.933421 -1.61352,3.67282 -1.73822,3.865337 -0.124699,0.192529 -0.464128,0.449234 -0.754284,0.570476 -0.290157,0.12123 -1.44045,0.726294 -2.556212,1.34459 -2.588568,1.434434 -4.030559,2.160009 -4.292731,2.160009 -0.143862,0 0.193152,-1.042524 1.103181,-3.412587 z M 45.277544,70.818336 c -0.994045,-0.306964 -1.000139,-0.312198 -1.312535,-1.128539 -0.415199,-1.084987 -0.40258,-1.243815 0.09866,-1.241804 1.201887,0.0045 1.539554,0.162299 1.908353,0.890087 0.386399,0.762522 0.639835,1.814213 0.433399,1.798486 -0.07106,-0.0056 -0.578603,-0.148618 -1.127877,-0.31823 z m 8.210219,-2.162346 c -0.901277,-0.363265 -1.770155,-0.778428 -1.930842,-0.922586 -0.285749,-0.256346 -1.932733,-2.287576 -4.165417,-5.137213 -1.621686,-2.069806 -1.978243,-2.562119 -1.90712,-2.633249 0.03491,-0.03494 0.936126,0.296538 2.002698,0.736561 2.846021,1.174146 7.185378,2.980461 7.215121,3.003389 0.01418,0.01123 0.166858,1.099545 0.339304,2.419152 0.172448,1.319618 0.351845,2.584923 0.398664,2.811803 0.110694,0.536405 0.04439,0.526969 -1.952408,-0.277857 z m 19.647426,-4.745753 c -0.03215,-0.104021 -0.09779,-0.914666 -0.145874,-1.801563 -0.04808,-0.886898 -0.129973,-2.304426 -0.181989,-3.150074 l -0.09456,-1.537546 3.05714,-2.343563 c 1.681429,-1.288973 3.082092,-2.321556 3.112576,-2.29463 0.0305,0.02696 -0.299947,1.880377 -0.734293,4.118807 l -0.789724,4.069862 -2.082406,1.563855 c -1.267062,0.951545 -2.105293,1.48986 -2.140864,1.374852 z m -15.189021,-2.857343 -1.230386,-0.631754 -0.0072,-1.012531 c -0.0045,-0.671049 0.05143,-1.012521 0.1665,-1.012521 0.313213,0 1.803107,1.250983 1.956073,1.642398 0.299568,0.766566 0.538591,1.657541 0.443163,1.651924 -0.05381,-0.0034 -0.651491,-0.290046 -1.328201,-0.637516 z M 76.993352,48.357417 C 76.809838,48.204272 76.446734,47.899781 76.18645,47.680763 l -0.473239,-0.3982 0.169381,-0.843402 c 0.09316,-0.46386 0.200108,-0.874125 0.237673,-0.911689 0.03753,-0.03752 0.405784,0.226824 0.818269,0.587516 0.747703,0.653816 0.749993,0.658636 0.756729,1.593331 0.0074,1.020889 -0.117755,1.136581 -0.701911,0.649098 z m 38.687808,-0.09616 c -1.7288,-0.269163 -1.73146,-0.272465 -1.60502,-2.009167 0.0573,-0.787213 0.14865,-1.474583 0.20299,-1.527481 0.0544,-0.05291 0.82446,-0.02539 1.71135,0.06111 l 1.61254,0.157244 -0.002,1.438973 c -0.001,0.791436 -0.0427,1.590848 -0.0924,1.77648 -0.10077,0.376071 -0.0802,0.374902 -1.82733,0.102897 z M 34.875937,41.568123 c -2.239498,-1.626256 -2.25383,-1.64041 -3.053936,-3.015727 -0.442133,-0.759991 -1.319655,-2.253534 -1.950048,-3.318982 -0.630395,-1.065449 -1.171189,-2.001148 -1.201766,-2.079332 -0.03058,-0.07818 0.441935,0.192045 1.050026,0.600512 0.608092,0.408466 2.151898,1.403033 3.430681,2.210149 1.278781,0.807114 2.412447,1.54904 2.519255,1.648723 0.169858,0.158528 1.601618,5.476554 1.496239,5.557536 -0.02222,0.01707 -1.05292,-0.704232 -2.290451,-1.602879 z m 6.410092,-3.685012 c -1.316068,-1.38191 -2.593995,-2.748819 -2.839837,-3.037576 -1.569867,-1.843906 -9.764137,-13.742897 -10.02065,-14.551097 -0.09729,-0.306533 -0.08127,-0.342409 0.09109,-0.204044 0.115027,0.09234 2.841709,2.179725 6.05929,4.63864 6.547987,5.004056 7.772557,5.940833 7.8622,6.014471 0.07556,0.06206 0.498786,2.907419 0.90022,6.052078 0.163245,1.278783 0.342787,2.611942 0.398982,2.962574 0.0562,0.350638 0.06603,0.637516 0.02186,0.637516 -0.04417,0 -1.157095,-1.130653 -2.473163,-2.512562 z M 13.625836,37.433329 c -0.351101,-0.168493 -0.399771,-0.296098 -0.486307,-1.275032 -0.143834,-1.627084 -0.16948,-7.732613 -0.03306,-7.869193 0.37928,-0.379715 8.067227,-0.234962 8.461506,0.159317 0.171077,0.171079 0.181978,0.452727 0.05963,1.540664 -0.08473,0.753476 -0.106819,2.416119 -0.05086,3.83065 0.09028,2.282381 0.04097,3.458707 -0.153123,3.652802 -0.04052,0.04052 -1.723812,0.0904 -3.740652,0.110851 -2.688686,0.02725 -3.771068,-0.01277 -4.057129,-0.150055 z m 4.524679,-4.312882 v -1.275033 h -0.900022 -0.900022 v 1.17503 c 0,0.646266 0.045,1.220031 0.1,1.275032 0.055,0.055 0.460011,0.1 0.900023,0.1 h 0.80002 z m 71.701811,-4.647328 c 0,-0.332606 1.199,-8.355835 1.300591,-8.70301 0.09374,-0.320345 0.508015,-0.815127 4.01913,-4.800121 4.290894,-4.870013 6.784313,-7.6514327 7.059773,-7.8751981 0.24622,-0.2000047 0.26732,-0.2000047 0.18997,0 -0.39744,1.0277279 -2.36562,5.7769671 -2.89064,6.9751761 -0.3615,0.82502 -1.006688,2.343808 -1.433738,3.375085 -1.091711,2.636324 -1.863106,4.133972 -2.511565,4.876153 -2.425571,2.776141 -5.629754,6.37413 -5.676464,6.37413 -0.03141,0 -0.05706,-0.1 -0.05706,-0.222215 z M 49.799662,17.40755 c -9.06e-4,-1.01065 -0.04184,-2.080557 -0.09098,-2.37757 l -0.08933,-0.540024 2.211032,-0.107492 c 1.216068,-0.05912 2.261571,-0.05237 2.323341,0.01501 0.06177,0.06738 0.145743,1.185656 0.186608,2.485063 l 0.0743,2.362561 h -2.306658 -2.306661 z"
     id="path126" /></svg>
