<?xml version="1.0" encoding="UTF-8" standalone="no"?>
<!-- Created with Inkscape (http://www.inkscape.org/) -->

<svg
   width="512"
   height="512"
   viewBox="0 0 135.46667 135.46667"
   version="1.1"
   id="svg1"
   xml:space="preserve"
   xmlns="http://www.w3.org/2000/svg"
   xmlns:svg="http://www.w3.org/2000/svg"><defs
     id="defs1" /><path
     style="fill:#000000;stroke-width:0.611069"
     d="m 124.29407,131.11451 c -5.08036,-1.44631 -7.50063,-6.05987 -5.30624,-10.11487 0.28061,-0.51853 0.76919,-1.22253 1.08571,-1.56443 0.71119,-0.76821 2.38721,-1.80809 3.48773,-2.16397 l 0.82587,-0.26705 v -1.10718 -1.10717 l -9.69295,0.003 c -5.33114,0.001 -9.98252,0.0618 -10.33642,0.13284 -0.72796,0.14623 -2.98751,1.57657 -8.310585,5.26078 -1.960319,1.35677 -3.838058,2.60873 -4.172746,2.78213 l -0.60853,0.31528 H 70.749894 c -17.057684,0 -20.657158,-0.0355 -21.353233,-0.21023 -0.650553,-0.16334 -1.271426,-0.54881 -2.784925,-1.729 -1.966256,-1.53321 -5.785686,-4.41913 -11.091928,-8.38091 -13.399246,-10.00421 -15.403725,-11.56409 -15.562327,-12.1105 -0.156385,-0.53881 0.07137,-1.069383 0.58377,-1.359912 0.420133,-0.238214 1.15658,-0.272603 7.285754,-0.340185 l 6.818378,-0.07518 -1.884033,-1.892866 c -1.036202,-1.041076 -2.131347,-2.072839 -2.433642,-2.292795 l -0.549622,-0.399923 h -8.922091 c -7.975397,0 -8.933281,0.02523 -9.027617,0.237819 -0.05808,0.130798 -0.105551,2.423603 -0.105551,5.095118 v 4.857294 l 1.306684,0.53661 c 4.713188,1.93551 6.362157,6.58836 3.639361,10.26904 -1.738757,2.35046 -4.89089,3.69697 -8.1083515,3.46372 C 6.007424,118.76696 3.357935,117.18411 2.07936,115.08009 0.19641308,111.9815 0.88669149,108.6877 3.9157677,106.31732 c 0.8973595,-0.70222 2.1847344,-1.37573 3.1772272,-1.66224 0.3123769,-0.0902 0.3227478,-0.34673 0.2608037,-6.449254 -0.060167,-5.924221 -0.043306,-6.383478 0.2488392,-6.770065 0.1723446,-0.228095 0.5106466,-0.479584 0.751783,-0.558864 0.2411488,-0.07927 4.0903272,-0.185739 8.5537512,-0.236577 4.463413,-0.05084 8.371129,-0.135179 8.683818,-0.187425 l 0.568515,-0.095 -1.588631,-1.578644 C 23.698142,87.911391 22.386077,86.658569 21.656201,85.995597 19.245377,83.805793 11.44319,76.286512 10.976956,75.703576 10.373924,74.9496 10.837305,73.895275 11.771723,73.895275 c 0.40258,0 2.452108,0.512195 10.737296,2.683343 2.537703,0.665008 5.236953,1.352845 5.998333,1.528527 0.76138,0.175682 2.538188,0.630597 3.948458,1.010924 1.410281,0.380327 2.600109,0.660396 2.644073,0.622378 0.27406,-0.236992 -2.896111,-8.357661 -6.067576,-15.542566 -1.02201,-2.315345 -2.52097,-5.83347 -3.331048,-7.818052 -0.810068,-1.984583 -1.783587,-4.352552 -2.163382,-5.262151 -0.743608,-1.780906 -0.84455,-2.473976 -0.414498,-2.845859 0.543271,-0.469783 1.04744,-0.277583 2.804709,1.06921 3.141751,2.407875 15.008847,11.809488 17.661719,13.992357 1.130575,0.930272 2.123911,1.691405 2.207415,1.691405 0.180232,0 0.146927,-0.343154 -0.621382,-6.402622 -0.325923,-2.570497 -0.592592,-4.978721 -0.592592,-5.35161 0,-0.794808 0.371792,-1.175625 1.14778,-1.175625 0.524748,0 2.566367,1.468226 9.265844,6.663515 1.367116,1.060169 2.524931,1.893635 2.572902,1.852146 0.103934,-0.08991 1.520682,-6.023455 6.053742,-25.354545 4.352908,-18.562865 6.382504,-26.863601 6.689754,-27.3600551 0.231263,-0.3736651 0.726031,-0.3921564 1.089463,-0.04072 0.277248,0.2681022 0.547567,1.2912989 2.373246,8.9832451 0.569185,2.398037 1.232648,5.138115 1.474374,6.089061 0.538501,2.118466 3.406458,13.96277 4.696223,19.394787 3.861628,16.263841 4.383754,18.346735 4.596644,18.337127 0.06363,-0.0029 0.976452,-0.683184 2.028337,-1.5118 1.051885,-0.828613 2.811302,-2.196299 3.90983,-3.039301 1.098528,-0.843003 2.663023,-2.05996 3.476647,-2.704351 0.813625,-0.644391 1.64837,-1.208309 1.854977,-1.253149 0.51611,-0.112017 1.041782,0.161996 1.172091,0.610952 0.0597,0.205782 -0.284293,2.755085 -0.764487,5.665116 -0.480195,2.910034 -1.069808,6.955051 -1.310263,8.988929 -0.408932,3.458924 -0.672091,5.276994 -1.721238,11.891503 -0.229496,1.446882 -0.398908,2.646574 -0.376459,2.665982 0.0224,0.0194 0.564577,-0.09424 1.204725,-0.252541 2.527725,-0.625086 23.17539,-4.666786 24.40863,-4.777896 1.64373,-0.148089 2.3186,0.348842 2.06449,1.520151 -0.12464,0.574531 -2.06033,3.1303 -4.9668,6.557876 -5.16022,6.085409 -9.00251,10.87873 -9.17347,11.444081 -0.10037,0.331673 0.6571,0.359181 11.25618,0.408688 4.25534,0.01986 8.04784,0.09747 8.42777,0.172482 0.83505,0.164816 1.13477,0.483336 1.13477,1.205903 0,0.673672 -0.12205,0.776763 -3.67609,3.10438 -3.9565,2.59122 -10.87753,7.27347 -13.2757,8.98136 l -1.0432,0.74291 8.79009,-0.0952 c 8.09582,-0.0877 8.83731,-0.0749 9.38848,0.16306 0.95464,0.41218 1.09704,0.85453 1.10933,3.44618 l 0.0104,2.2857 1.46855,0.56585 c 3.89147,1.49944 5.84501,5.14308 4.62933,8.63444 -0.71923,2.0656 -2.19685,3.58631 -4.40344,4.53181 -1.43906,0.61663 -1.54563,0.63804 -3.32907,0.66931 -1.1624,0.0203 -2.10137,-0.0415 -2.54401,-0.16743 z m 4.38975,-4.08569 c 0.97632,-0.66991 1.61562,-1.85336 1.61089,-2.98201 -0.005,-1.15463 -0.42238,-1.96793 -1.37076,-2.66989 -2.73474,-2.02422 -6.82245,-0.0872 -6.39543,3.03058 0.27957,2.04118 1.92784,3.2027 4.41665,3.11234 0.89999,-0.0326 1.19003,-0.11455 1.73865,-0.49102 z m -38.548023,-7.86558 c 0.239059,-0.1167 1.295297,-0.83267 2.34717,-1.59106 1.951197,-1.40677 4.083514,-2.87741 11.118983,-7.66862 11.12414,-7.57564 13.48287,-9.22514 13.48287,-9.42883 0,-0.065 -4.08184,-0.11823 -9.07074,-0.11823 -8.19643,0 -9.101387,-0.024 -9.388693,-0.24881 -0.497344,-0.389224 -0.387325,-0.731937 0.609438,-1.898377 1.036435,-1.212878 1.335955,-1.57848 6.678175,-8.151588 4.2022,-5.170435 5.95588,-7.4414 5.95588,-7.712752 0,-0.256339 -0.0344,-0.251461 -3.44085,0.487305 -1.6935,0.367279 -4.7221,0.948026 -6.73024,1.290549 -2.008129,0.342522 -5.506924,1.023037 -7.775093,1.512254 -2.268158,0.489217 -4.366201,0.889485 -4.662306,0.889485 -0.720107,0 -1.191768,-0.237435 -1.396447,-0.702974 -0.162829,-0.370336 0.383629,-4.176984 2.100548,-14.632438 0.278369,-1.695165 0.74497,-4.604383 1.036884,-6.464929 0.291914,-1.860547 0.575536,-3.636522 0.630263,-3.946614 0.05474,-0.31009 0.03395,-0.563274 -0.04619,-0.562629 -0.16941,0.0014 -1.891064,1.308299 -4.84002,3.674132 -3.39857,2.726527 -3.715625,2.939972 -4.36709,2.939972 -0.412557,0 -0.651234,-0.09768 -0.826592,-0.338282 -0.13561,-0.186055 -0.688962,-2.232656 -1.229692,-4.548002 -0.54073,-2.315347 -1.802883,-7.727844 -2.8048,-12.027774 -2.771264,-11.89353 -6.085048,-25.133702 -6.356833,-25.398651 -0.07922,-0.07718 -0.184794,-0.105007 -0.234693,-0.06185 -0.103241,0.08928 -1.002921,3.619798 -2.541838,9.974745 -2.080153,8.590013 -2.76199,11.334772 -3.809522,15.335412 -0.584613,2.232655 -1.758678,6.890654 -2.609036,10.351109 -0.85037,3.460453 -1.637156,6.386587 -1.748411,6.502515 -0.111323,0.115929 -0.426969,0.210781 -0.701572,0.210781 -0.39281,0 -0.957549,-0.360626 -2.648739,-1.691406 -5.012491,-3.944307 -6.858958,-5.304602 -7.016059,-5.168749 -0.118588,0.102549 -0.01398,0.849711 0.718352,5.131162 0.616671,3.605121 1.179053,7.289779 1.190786,7.801748 0.0104,0.459911 -0.414925,0.843216 -0.935953,0.843216 -0.164953,0 -1.411841,-0.862618 -2.770872,-1.916927 -1.35903,-1.054311 -3.081701,-2.390521 -3.828172,-2.969358 -0.74646,-0.578836 -3.064056,-2.408097 -5.150204,-4.065022 -5.673138,-4.505887 -7.195067,-5.672369 -7.291735,-5.588764 -0.27592,0.238592 4.152663,11.077914 9.011923,22.057429 1.425548,3.221035 1.583006,3.903895 0.983889,4.266775 -0.221239,0.134003 -0.576737,0.243641 -0.790008,0.243641 -0.213259,0 -3.188498,-0.837502 -6.611631,-1.861115 -10.146528,-3.034093 -12.222202,-3.595427 -12.222202,-3.305291 0,0.05266 0.688696,0.779967 1.53044,1.616232 0.841743,0.836268 2.671938,2.704471 4.067115,4.151563 1.395177,1.447091 3.307929,3.341988 4.250557,4.210881 0.942641,0.868894 2.649582,2.492642 3.793217,3.608332 1.143635,1.11569 2.865612,2.772743 3.826613,3.682344 4.704608,4.45297 4.735903,4.49286 4.013971,5.11714 l -0.446624,0.38622 -7.082068,-0.10717 -7.082079,-0.10717 1.90289,1.41487 c 1.046584,0.77818 3.15129,2.36205 4.677111,3.51973 1.525832,1.15769 5.097047,3.76244 7.936041,5.78837 2.838994,2.02593 5.72798,4.10987 6.419967,4.63098 l 1.258159,0.9475 19.240546,-0.0454 c 16.173178,-0.0381 19.309848,-0.0792 19.675219,-0.25758 z M 11.784529,114.7354 c 1.470506,-0.7452 2.168602,-1.8917 1.958588,-3.21665 -0.131719,-0.83105 -0.51387,-1.47507 -1.300506,-2.19174 -0.872241,-0.79464 -1.743052,-1.15245 -2.8048106,-1.15245 -2.8686615,0 -4.6556662,2.20791 -3.7957572,4.6898 0.2841997,0.82027 1.3834671,1.85222 2.2759648,2.1366 1.0791959,0.34387 2.694873,0.22684 3.666521,-0.26556 z M 101.39571,76.666995 c -0.99542,-0.467055 -1.02812,-0.674085 -0.89533,-5.670168 0.13163,-4.952831 0.15454,-5.059824 1.14789,-5.359269 0.34826,-0.104984 3.00924,-0.161521 7.59512,-0.161381 l 7.05904,2.17e-4 -0.0519,-2.323688 -0.0519,-2.323688 -0.76142,-0.328833 c -4.3933,-1.897335 -6.18127,-6.492147 -3.98482,-10.240339 0.55367,-0.944816 2.31443,-2.509266 3.32679,-2.955874 1.62586,-0.717261 4.54432,-0.993996 6.45843,-0.612404 2.19819,0.438224 4.19329,1.854354 5.15801,3.661174 1.03312,1.934895 1.16415,3.718131 0.41231,5.611021 -0.71473,1.799511 -2.13095,3.150145 -4.52253,4.313105 l -1.27273,0.618894 -0.008,3.631364 c -0.007,3.429904 -0.0279,3.65496 -0.36805,4.05668 -0.19804,0.233922 -0.62835,0.546618 -0.95625,0.694879 -0.55626,0.251521 -1.07037,0.262636 -7.68115,0.166076 l -7.08498,-0.103483 -0.0315,0.360139 c -0.0173,0.198076 -0.0368,1.645605 -0.0434,3.216733 -0.013,3.103018 -0.0793,3.361177 -0.96479,3.757124 -0.64136,0.286798 -1.85865,0.282734 -2.47887,-0.0083 z m 18.95466,-19.843617 c 1.30286,-0.469903 2.45947,-1.809804 2.46817,-2.859275 0.013,-1.580668 -1.39953,-3.300581 -2.99645,-3.648299 -1.52257,-0.331526 -3.35478,0.262789 -4.37613,1.419474 -0.69712,0.789492 -0.88578,1.418503 -0.71714,2.39096 0.12295,0.709034 0.8698,1.697006 1.6706,2.209946 1.08435,0.694578 2.79208,0.905161 3.95095,0.487194 z m -69.140998,-4.9629 c -0.668244,-0.486227 -0.68492,-0.58876 -0.780781,-4.802047 l -0.07864,-3.457985 -6.168725,-0.01006 c -5.550024,-0.009 -6.214908,-0.03624 -6.629174,-0.27097 -0.253251,-0.143492 -0.53521,-0.4309 -0.626555,-0.638686 -0.09701,-0.220747 -0.166109,-3.331193 -0.166109,-7.482542 v -7.10475 L 35.8466,28.205859 c -0.502032,0.06183 -3.118147,0.117356 -5.813574,0.123394 l -4.900775,0.01097 -0.575964,1.01352 c -1.484409,2.61215 -4.647166,4.398978 -7.786365,4.398978 -2.358673,0 -4.301254,-0.724988 -5.951634,-2.221198 -3.1820428,-2.884793 -3.1966047,-7.248981 -0.03349,-10.028308 1.651442,-1.451057 3.656371,-2.183823 5.975179,-2.183823 3.519434,0 6.442544,1.576565 7.815433,4.215213 l 0.583828,1.122112 7.209086,-0.04934 c 7.734746,-0.05295 7.932207,-0.03662 8.510052,0.703525 0.281567,0.360652 0.325843,1.061739 0.468901,7.426047 l 0.157978,7.027796 5.6683,-0.09768 c 5.090245,-0.08773 5.725404,-0.07214 6.228211,0.152837 0.307942,0.137789 0.657273,0.402052 0.776265,0.58725 0.150091,0.233585 0.265688,1.856438 0.377393,5.298182 0.143486,4.420879 0.130633,5.023476 -0.118011,5.530669 -0.494917,1.00954 -2.235938,1.346365 -3.228016,0.624504 z M 18.65611,29.402041 c 0.927951,-0.409371 1.532068,-1.080369 1.865417,-2.071923 0.495472,-1.473832 0.08165,-2.712364 -1.167714,-3.494993 -1.0614,-0.664866 -2.287639,-0.854137 -3.522551,-0.5437 -1.059899,0.266443 -2.204816,1.029177 -2.641833,1.759966 -0.374159,0.62568 -0.317272,2.020445 0.113865,2.790488 0.950424,1.697753 3.413607,2.415679 5.352874,1.560162 z m 9.018806,-1.322692 c -0.454211,-0.03097 -1.197496,-0.03097 -1.651707,0 -0.454223,0.03097 -0.08257,0.05631 0.825854,0.05631 0.908446,0 1.280076,-0.02534 0.825853,-0.05631 z m 61.992443,21.848964 -0.487817,-0.362581 -0.14777,-6.891669 c -0.155831,-7.267941 -0.137445,-7.50371 0.618138,-7.925637 0.442027,-0.246836 3.541385,-0.373191 9.485732,-0.386714 l 3.349228,-0.0076 -0.0459,-4.986973 -0.0459,-4.986976 -0.71211,-0.325582 c -1.04899,-0.479602 -1.44306,-0.73893 -2.530375,-1.665134 -3.472821,-2.958264 -3.460303,-7.773197 0.0273,-10.484689 4.579025,-3.5600573 11.978115,-1.811582 13.761515,3.251968 0.28772,0.816941 0.34637,1.308835 0.28967,2.42973 -0.065,1.286237 -0.13289,1.513282 -0.79994,2.67735 -0.90924,1.586734 -2.40729,2.867708 -4.21008,3.600029 l -1.21166,0.49219 -0.003,6.164235 c -0.003,5.565725 -0.0332,6.21483 -0.30772,6.685334 -0.5974,1.024067 -0.66533,1.034172 -7.301775,1.086114 l -5.954621,0.04661 -0.0057,5.487673 c -0.0046,4.079826 -0.06017,5.547298 -0.217578,5.720092 -0.483024,0.530041 -1.07892,0.744837 -2.066378,0.744837 -0.800632,0 -1.090006,-0.07077 -1.482619,-0.362582 z M 106.09651,20.609719 c 0.74239,-0.337012 1.72333,-1.300861 2.12504,-2.088039 1.16494,-2.282686 -0.51122,-4.648695 -3.30726,-4.668407 -1.62552,-0.01143 -3.33282,0.907184 -3.93268,2.11605 -0.76862,1.548938 0.23449,3.754058 2.06392,4.537123 0.86867,0.371825 2.34902,0.421932 3.05098,0.103275 z"
     id="path120" /><path
     style="fill:#ffffff;stroke:none;stroke-width:1.28388;stroke-dasharray:none"
     d="m 50.287323,118.64016 c -0.555865,-0.41853 -3.320507,-2.41982 -6.143651,-4.44729 -4.752306,-3.41294 -14.245921,-10.41983 -14.609266,-10.78257 -0.105119,-0.10495 2.159313,-0.12159 6.771027,-0.0498 l 6.928961,0.10791 0.375671,-0.35293 c 0.835737,-0.78513 0.760654,-0.87644 -6.099789,-7.41768 -4.763706,-4.542062 -15.00411,-14.692426 -15.00411,-14.872187 0,-0.06562 0.114786,-0.119311 0.255081,-0.119311 0.283481,0 5.208339,1.377693 8.747385,2.44702 7.271047,2.196952 9.439929,2.761176 9.941671,2.586265 1.121294,-0.390885 1.028158,-0.855049 -1.184693,-5.904193 -4.404159,-10.049129 -8.647303,-20.450723 -8.342508,-20.450723 0.113866,0 1.293079,0.915315 8.351089,6.482196 8.441391,6.657997 10.105596,7.890161 10.656718,7.890161 0.320802,0 0.548688,-0.119131 0.71582,-0.374205 0.268256,-0.409414 0.153842,-1.343462 -1.095605,-8.944137 -0.790231,-4.807164 -0.757926,-4.452773 -0.387866,-4.254722 0.386892,0.207055 3.292893,2.398421 6.14164,4.631301 1.172692,0.919168 2.36042,1.781077 2.639397,1.915353 0.477951,0.230045 1.218565,0.193392 1.380307,-0.06831 0.14813,-0.23968 4.932259,-19.13549 8.212966,-32.438645 1.259821,-5.108532 2.337538,-9.364216 2.394932,-9.457077 0.06864,-0.111057 0.147851,-0.0911 0.23147,0.05832 0.337762,0.603546 3.795882,14.558108 6.861802,27.689462 2.046259,8.76413 3.128892,13.21141 3.370245,13.844429 0.204565,0.53653 0.897453,0.707742 1.623528,0.401171 0.291314,-0.122996 2.306463,-1.622454 4.47811,-3.33212 3.00949,-2.369275 3.959183,-3.041224 3.993581,-2.825628 0.02482,0.155575 -0.629523,4.476115 -1.454102,9.601203 -1.609733,10.005145 -2.300899,14.591348 -2.301928,15.274351 -0.0011,0.650285 0.554474,1.072235 1.411483,1.072235 0.396449,0 2.284228,-0.321096 4.195062,-0.713545 1.910836,-0.392448 5.215514,-1.033732 7.343729,-1.425075 2.12821,-0.391342 5.45626,-1.036137 7.39567,-1.432877 1.9394,-0.39674 3.56749,-0.68004 3.61797,-0.629555 0.16567,0.165666 -1.57192,2.358051 -12.553535,15.839342 -0.467331,0.573707 -0.829175,1.177166 -0.829175,1.382837 0,0.806844 -0.133496,0.794954 9.5004,0.846314 4.93809,0.0263 8.97611,0.0974 8.97338,0.15794 -0.003,0.0605 -0.16264,0.22277 -0.35536,0.36052 -1.93242,1.38121 -6.24657,4.35828 -11.87987,8.19794 -3.73523,2.54594 -8.532599,5.84429 -10.660815,7.32967 l -3.869481,2.70068 -6.791336,0.0996 c -3.735231,0.0548 -12.448733,0.10806 -19.363336,0.11845 l -12.572003,0.0189 z"
     id="path121" /><path
     style="fill:#ffffff;stroke:none;stroke-width:1.28388;stroke-dasharray:none"
     d="m 8.4486609,114.99929 c -1.6717381,-0.55097 -2.6839236,-1.81243 -2.6839236,-3.34489 0,-1.0193 0.3404248,-1.7487 1.1326477,-2.42681 1.0851436,-0.92884 3.089119,-1.23352 4.24592,-0.64553 2.015053,1.02422 2.959688,2.82363 2.304951,4.39064 -0.259245,0.62046 -1.168998,1.44502 -1.964146,1.78022 -0.686725,0.2895 -2.466348,0.43394 -3.0354491,0.24637 z"
     id="path122" /><path
     style="fill:#ffffff;stroke:none;stroke-width:1.28388;stroke-dasharray:none"
     d="m 15.556894,29.44966 c -1.423962,-0.442148 -2.515681,-1.784643 -2.52354,-3.103216 -0.0069,-1.165254 0.52039,-1.868659 1.970757,-2.628768 1.006872,-0.527683 2.83012,-0.588725 3.711543,-0.124263 1.812377,0.955025 2.348003,2.443421 1.495182,4.15481 -0.80296,1.611331 -2.704849,2.306643 -4.653942,1.701437 z"
     id="path123" /><path
     style="fill:#ffffff;stroke:none;stroke-width:1.28388;stroke-dasharray:none"
     d="m 103.05455,20.360731 c -0.93114,-0.422135 -1.36667,-0.844262 -1.8491,-1.792186 -0.31906,-0.626897 -0.38278,-0.943057 -0.32661,-1.620418 0.22831,-2.753041 4.54083,-4.007471 6.71474,-1.953189 0.90924,0.859205 1.13468,2.269112 0.547,3.421044 -0.36457,0.714621 -1.57112,1.890478 -2.17567,2.120329 -0.68798,0.261571 -2.13923,0.174018 -2.91036,-0.17558 z"
     id="path124" /><path
     style="fill:#ffffff;stroke:none;stroke-width:1.28388;stroke-dasharray:none"
     d="m 117.74279,56.761524 c -1.1019,-0.295952 -1.76011,-0.744524 -2.40817,-1.64116 -1.09121,-1.509755 -0.50983,-3.213298 1.44131,-4.223343 2.40942,-1.24728 5.07764,-0.203938 5.79575,2.266289 0.21472,0.738619 0.21246,0.876731 -0.024,1.467747 -0.34603,0.864812 -1.48884,1.851803 -2.48755,2.148388 -0.95876,0.28472 -1.1974,0.282876 -2.31733,-0.01791 z"
     id="path125" /><path
     style="fill:#ffffff;stroke:none;stroke-width:1.28388;stroke-dasharray:none"
     d="m 125.23153,127.23289 c -0.98261,-0.30763 -1.60855,-0.73388 -2.08296,-1.41845 -0.37226,-0.53717 -0.43074,-0.77702 -0.43074,-1.76651 0,-1.01784 0.0528,-1.22003 0.47526,-1.82116 0.97801,-1.39154 3.13793,-1.95294 4.78598,-1.24397 2.14121,0.92113 2.82885,3.12381 1.56055,4.99891 -0.9053,1.33844 -2.52594,1.80912 -4.30809,1.25118 z"
     id="path126" /></svg>
