<?xml version="1.0" encoding="UTF-8"?>
<svg id="Calque_1" data-name="Calque 1" xmlns="http://www.w3.org/2000/svg" width="512" height="512" version="1.1" viewBox="0 0 512 512">
  <defs>
    <style>
      .cls-1 {
        display: none;
        fill: #000;
      }

      .cls-1, .cls-2 {
        stroke-width: 0px;
      }

      .cls-2 {
        fill: #fff;
      }
    </style>
  </defs>
  <path class="cls-1" d="M0,0h512v512H0V0Z"/>
  <path class="cls-2" d="M233.6,33.1c-8.8,0-18.2.6-26.5,1.8l24.1,7.6,27.1-7.6-15.3,8.8,30.6,1.2-32.3,1.8,8.2,5.3c12.9-1.2,26.5-4.7,41.2-9.4-2.9-1.8-7.1-2.9-12.4-4.1-12.4-3.5-28.2-5.3-44.7-5.3h0ZM207.1,34.9c-6.5.6-12.4,1.8-17.1,2.9-5.3,1.2-9.4,2.9-12.4,4.1,2.9,1.2,6.5,2.4,9.4,3.5l33.5-1.8-13.5-8.8ZM188.3,46c7.6,2.4,15.9,4.7,24.7,5.9l8.8-4.7-33.5-1.2ZM230.6,48.4l-13.5,4.1c8.8,1.2,17.6,1.2,27.6,0l-14.1-4.1ZM295.3,60.1c-48.2,16.5-87.6,12.9-121.7.6v277.6c37.1,14.7,77.6,14.1,121.7-1.8V60.1h0ZM323,230.1s-.6,0,0,0c.6,1.2,1.8,2.4,2.9,4.1,8.2,11.2,15.3,25.3,20.6,40.6,2.4,6.5,4.1,12.9,5.9,19.4l3.5-18.2h0c.6-2.4.6-4.1,1.2-5.9-2.9-11.2-8.2-21.8-14.7-28.8-5.9-7.6-12.4-11.2-19.4-11.2h0ZM424.7,236c-25.9,0-44.7,14.1-50,42.9h0l-4.1,22.4c16.5-10,33.5-16.5,52.9-15.9,21.8.6,45.9,7.1,64.1,18.8l-3.5-26.5h0c-5.9-30.6-31.2-41.8-59.4-41.8h0ZM314.2,250.1v87l20.6-7.1h0c.6,0,0,.6,1.2-1.2.6-1.8,1.2-5.3,1.2-10.6,0-10-3.5-24.1-8.2-37.6-4.1-11.2-9.4-22.4-14.7-30.6h0ZM154.8,267.2c-28.2,6.5-57.1,12.9-78.2,17.6-3.5.6-5.9,1.2-8.8,1.8,2.4,1.8,4.7,4.1,7.1,5.9,13.5,12.9,22.9,30.6,27.6,49.4,5.3,18.8,6.5,38.8,1.8,56.5-.6,3.5-1.8,6.5-2.9,9.4l53.5-17.6v-122.9ZM34.2,294.2h-1.2c-2.4.6-4.7,1.2-3.5.6h0c-3.5.6-5.9,2.4-8.2,5.9s-4.1,8.8-5.3,15.3c-2.4,12.9-.6,30.6,4.1,47.1,4.7,16.5,12.9,32.3,22.4,42.3,8.2,8.8,17.1,13.5,27.1,11.8,8.8-4.7,14.1-12.9,17.1-24.7,3.5-13.5,2.9-30.6-1.8-46.5-4.1-15.9-12.4-31.2-22.9-40.6-8.8-7.1-17.6-11.2-27.6-11.2h0ZM422.4,304.2c-22.4,0-42.9,7.1-57.6,24.1l-3.5,17.6c15.9-17.1,38.8-27.6,64.1-27.6s52.3,12.4,68.2,32.3l-2.9-19.4c-16.5-15.9-41.8-25.9-65.9-27.1h-2.4ZM28.9,317.8l19.4,30,14.1-22.9-7.1,31.2,28.2,16.5-25.9-4.7,11.2,28.8-18.2-27.1-13.5,21.2,5.9-28.8-26.5-15.3,25.3,5.9-12.9-34.7ZM425.3,335.4c-40,0-71.8,32.3-71.8,71.8s32.3,71.8,71.8,71.8,71.8-32.3,71.8-71.8-32.3-71.8-71.8-71.8h0ZM295.3,356.6c-42.9,13.5-83.5,14.7-121.7,1.8v41.8c37.1,14.7,77.6,14.1,121.7-1.2v-42.3ZM425.3,381.9c14.1,0,25.9,11.2,25.9,25.9s-11.2,25.9-25.9,25.9-25.9-11.2-25.9-25.9,11.8-25.9,25.9-25.9h0ZM298.3,417.7c-44.7,14.7-87.6,15.9-127,1.8l-3.5,14.1c40.6,20,88.8,20,134.7,0l-4.1-15.9Z"/>
</svg>