<?xml version="1.0" encoding="UTF-8"?>
<svg id="Calque_1" data-name="Calque 1" xmlns="http://www.w3.org/2000/svg" width="512" height="512" version="1.1" viewBox="0 0 512 512">
  <defs>
    <style>
      .cls-1 {
        display: none;
        fill: #000;
      }

      .cls-1, .cls-2 {
        stroke-width: 0px;
      }

      .cls-2 {
        fill: #fff;
      }
    </style>
  </defs>
  <path class="cls-1" d="M0,0h512v512H0V0Z"/>
  <path class="cls-2" d="M352.7,14.8l-38.2,88.1,40.7,17.9,38.2-88.1-40.7-17.9h0ZM159.3,15.5l-41.3,16.6,36.3,88.7,41.3-16.6L159.3,15.5h0ZM191.3,21.6l-8.6,3.7,29.6,72.1,6.8,16.6-16.6,6.8-41.3,16.6-16.6,6.8-6.8-16.6-29.6-71.5-11.7,4.9c37,49.3,29,118.9-18.5,158.3v37.6h96.1v80.1h-95.5v14.8h96.1v80.1h-96.1v39.4c17.2,17.2,97.3,25.9,177.4,25.9s160.2-8.6,177.4-25.9v-39.4h-96.1v-80.1h96.1v-14.8h-96.1v-80.1h96.1v-37.6c-47.4-39.4-55.4-109-18.5-158.3l-11.7-4.9-30.8,71.5-6.8,16.6-16.6-6.8-40.7-17.2-16.6-6.8,6.8-16.6,30.2-70.8-8-3.1c-19.7,35.7-65.3,48.7-101,29-11.7-8-21.6-17.9-28.3-30.2h0ZM60.7,274.8v44.4h96.1v-44.4H60.7ZM355.2,274.8v44.4h96.1v-44.4h-96.1ZM60.7,369.7v44.4h96.1v-44.4H60.7ZM355.2,369.7v44.4h96.1v-44.4h-96.1Z"/>
</svg>