<?xml version="1.0" encoding="UTF-8"?>
<svg id="Calque_1" data-name="Calque 1" xmlns="http://www.w3.org/2000/svg" width="512" height="512" version="1.1" viewBox="0 0 512 512">
  <defs>
    <style>
      .cls-1 {
        display: none;
        fill: #000;
      }

      .cls-1, .cls-2 {
        stroke-width: 0px;
      }

      .cls-2 {
        fill: #fff;
      }
    </style>
  </defs>
  <path class="cls-1" d="M0,0h512v512H0V0Z"/>
  <path class="cls-2" d="M285,17c31,19.2,56.4,45.7,76.1,75.5C287.3,26,152.6,9.7,58.5,84.7c44.5-19.7,93-20.3,139.8-9-84.5,3.9-166.8,58.6-182.6,152.7,28.7-46.2,73.3-81.2,122.3-100.9C44.9,179.3-4.1,307.3,65.8,405.4c-11.8-51.3-5.6-104.8,13.5-152.2-18,101.5,41.7,208,146.5,241.8-98.6-81.7-126.8-177.5-112.7-253.1,5.6-72.7,66.5-130.2,140.9-130.2s141.5,63.1,141.5,141.5-63.1,141.5-141.5,141.5-64.8-11.8-89.1-32.1c11.3,18,25.4,32.1,41.1,43.4,43.4,42.8,123.4,81.7,186.6,69.3-25.4-9.6-47.3-20.3-63.7-34.9,52.4,2.8,111-9,147.7-40.6-20.9,3.4-40.6,5.1-58.1,3.4,39.5-26.5,69.3-67.1,77.8-119.5-28.7,46.2-73.3,81.2-122.3,100.9,93-51.9,142-179.8,72.1-277.9,11.8,51.3,5.6,104.8-13.5,152.2,24.8-102-31-222.6-147.7-241.8h0ZM253.5,130.9h-5.6l-1.7,19.2c-7.9.6-15.2,2.3-22.5,4.5l-8.5-17.5c-9.6,3.4-19.2,7.3-27.6,13l8.5,18c-6.2,3.9-11.8,9-17.5,14.7l-16.3-11.3c-6.8,7.3-12.4,15.8-17.5,24.8l16.3,11.3c-3.4,7.3-6.2,14.7-7.9,22l-20.3-1.7c-1.7,7.9-2.3,15.8-2.3,24.2v5.6l20.3,1.7c.6,7.9,2.3,15.2,4.5,23.1l-18,9c3.4,9.6,7.9,18.6,13,27.1l18-9c4.5,6.8,9.6,12.4,15.2,17.5l-11.3,16.3c7.3,6.8,15.8,12.4,24.8,16.9l11.3-16.3c7.3,3.4,14.7,6.2,22,7.9l-1.7,19.7c7.9,1.7,15.8,2.3,23.7,2.3h6.8l1.7-19.2c7.9-.6,15.8-2.3,23.7-4.5l8.5,17.5c9.6-3.4,18.6-7.9,27.1-13.5l-8.5-16.9c6.8-4.5,12.4-9.6,18-15.2l15.8,10.7c6.8-7.3,12.4-15.8,16.9-25.4l-14.7-9.6c3.4-7.3,6.2-14.7,7.9-22l18.6,1.1c1.7-7.9,2.3-15.8,2.3-23.7v-6.2l-18.6-1.1c-.6-7.9-2.3-15.8-4.5-23.1l16.9-7.9c-3.4-9.6-7.9-18.6-13-27.1l-16.9,7.9c-4.5-6.8-9.6-12.4-15.8-18l10.7-15.8c-7.3-6.8-15.8-12.4-24.8-16.9l-10.7,15.8c-7.3-3.4-14.7-6.2-22-7.9l1.7-19.2c-9-2.3-17.5-2.8-25.9-2.8h0ZM254.6,173.1c16.9,0,32.7,5.6,46.2,15.8l-33.8,29.3c-2.8-1.1-6.2-1.7-9-1.7-9-.6-18,2.3-25.4,8.5-9.6,8.5-13.5,20.9-11.3,32.7l-37.8,32.1c-3.9-6.8-6.2-14.7-7.9-22.5-8.5-42.8,20.3-84.5,63.1-93,5.1-.6,10.1-1.1,15.8-1.1h0ZM323.9,217.1c3.4,6.2,5.6,13.5,7.3,20.9,8.5,42.8-20.3,84.5-63.1,93-22,3.9-43.4-1.1-60.3-13l38.3-33.3c10.7,2.8,22.5.6,31.6-7.3,9-7.9,13-19.2,11.8-30.4l34.4-29.9h0ZM254.6,235.1h1.7c3.9.6,7.9,2.3,10.7,5.6,5.6,6.8,5.1,16.3-1.7,22.5-6.8,5.6-16.3,5.1-22.5-1.7-5.6-6.8-5.1-16.3,1.7-22.5,2.8-2.8,6.8-3.9,10.1-3.9h0Z"/>
</svg>