<?xml version="1.0" encoding="UTF-8"?>
<svg id="Calque_1" data-name="Calque 1" xmlns="http://www.w3.org/2000/svg" width="512" height="512" version="1.1" viewBox="0 0 512 512">
  <defs>
    <style>
      .cls-1 {
        display: none;
        fill: #000;
      }

      .cls-1, .cls-2 {
        stroke-width: 0px;
      }

      .cls-2 {
        fill: #fff;
      }
    </style>
  </defs>
  <path class="cls-1" d="M0,0h512v512H0V0Z"/>
  <path class="cls-2" d="M337.4,14.4c-37.6,1.1-84.7,62.6-118.5,151.1h0c31-67,73.1-109.1,99.7-101.9,28.8,7.8,38.2,70.9,25.5,151.7-1.1-.6-1.7-.6-2.8-1.1,1.1.6,1.7.6,2.8,1.1-3.3,19.9-7.2,40.4-13.3,61.5-2.8,10.5-6.1,21-9.4,31-25.5-3.9-53.7-10-82.5-17.7-108.5-28.8-190.4-73.6-183.2-99.7,4.4-16.1,43.2-24.4,98-20.5-76.4-8.9-131.8-2.2-138.4,21-9.4,34.3,91.3,91.3,224.2,126.8,24.9,6.6,49.3,12.2,72.5,16.6-29.9,77.5-69.8,129-99.1,121.2-22.1-6.1-37.1-46.5-37.1-102.4-5,77,9.4,135.1,41.5,143.4,39.9,10.5,93.6-56.5,130.7-156.7,81.9,11.1,142.3,4.4,148.9-19.9,6.6-24.4-42.1-59.8-117.9-91.3,21-111.3,8.9-203.2-32.7-214.2-2.8,0-6.1,0-8.9,0h0ZM378.9,232.5c45.9,23.3,72.5,48.2,68.6,63.7-3.9,15.5-38.8,21-89.1,16.6,3.3-11.1,6.6-22.1,10-33.2,3.9-16.1,7.2-32.1,10.5-47.1h0Z"/>
</svg>