<?xml version="1.0" encoding="UTF-8"?>
<svg id="Calque_1" data-name="Calque 1" xmlns="http://www.w3.org/2000/svg" width="512" height="512" version="1.1" viewBox="0 0 512 512">
  <defs>
    <style>
      .cls-1 {
        display: none;
        fill: #000;
      }

      .cls-1, .cls-2 {
        stroke-width: 0px;
      }

      .cls-2 {
        fill: #fff;
      }
    </style>
  </defs>
  <path class="cls-1" d="M0,0h512v512H0V0Z"/>
  <path class="cls-2" d="M420.6,19.5c-21.3,26.5-50.7,51.8-85.8,72-36.9,21.9-76,34.6-111.8,39.2,2.3,6.3,4.6,12.1,6.9,18.4,16.1,0,30-.6,36.9-1.7l9.8-1.7,8.6-1.2v10.4c0,6.3-.6,12.7-1.2,19l57.6,9.2h2.9c11.5,0,21.9,7.5,24.8,19,.6,2.3,1.2,5.2.6,7.5,6.3-2.3,12.1-4.6,17.9-6.9l9.8-4,2.3,10.4c3.5,15.6,6.3,31.7,7.5,49,33.4-16.7,63.9-39.2,88.7-68-3.5-37.4-16.7-79.5-39.8-119.8-.6-1.2-1.7-2.3-2.3-4l-28.2,72.6c5.2.6,10.4,3.5,14.4,7.5,9.8,9.8,9.8,25.9,0,36.3-9.8,9.8-25.9,9.8-36.3,0-9.2-9.2-9.8-23-2.3-32.8l39.8-102.5c-6.3-10.4-13.3-19-20.7-27.7h0ZM47.3,109.4c-8.6,17.9-16.1,36.9-21.3,57.6-14.4,53.6-14.4,105.4-2.9,145.8,13.3-2.9,27.1-4,39.8-4h5.8c21.3.6,41.5,4.6,61.1,11.5-1.2-11.5-1.7-23-1.7-34.6,0-28.2,3.5-55.3,9.2-80.1l2.3-10.4,9.8,4.6c30,14.4,67.4,23.6,108.3,25.9,5.2-20.2,8.1-40.3,9.8-59.9-36.3,4.6-77.2,2.3-118.7-9.2-39.2-10.4-73.7-27.1-101.4-47.2h0ZM282.3,192.9c-1.7,10.4-3.5,21.3-6.3,32.3,16.1,0,31.7-1.7,46.7-4-1.2-1.7-1.7-4-2.3-6.3-1.7-5.8-1.2-10.9,1.2-16.1l-39.2-5.8h0ZM101.4,193.5l4,18.4-21.9,5.2c8.6,5.2,13.8,16.1,10.9,26.5-3.5,12.7-16.1,20.2-28.8,16.7-12.7-3.5-20.2-16.1-16.7-28.8.6-2.3,1.7-5.2,3.5-6.9l-21.3,4.6-4-18.4,74.3-17.3h0ZM497.2,216.5c-25.9,25.9-56.5,46.1-88.7,61.6v7.5c0,9.2-.6,18.4-1.2,27.7,16.7,1.2,32.8-1.7,46.1-9.8,26.5-15,41.5-46.1,43.8-87h0ZM152.1,220c-4,20.2-6.3,42.1-6.3,64.5v-.6c31.1,10.4,63.9,17.9,96.8,21.9l7.5,1.2.6,7.5,5.8,61.1-19,1.7-2.3-27.1c-4.6,1.7-9.8,2.3-15,1.2-12.7-3.5-20.2-16.1-16.7-28.8.6-1.2.6-2.3,1.2-2.9-20.2-4-39.2-8.6-58.2-15,2.9,50.7,16.7,95.6,36.9,129,23,37.4,53,58.8,85.3,58.8s62.8-21.3,85.3-58.8c20.2-32.3,33.4-76.6,36.3-125.6-16.1,4.6-32.3,8.6-49,12.1,1.7,4.6,2.3,9.8,1.2,15-3.5,12.7-16.1,20.2-28.8,16.7-.6,0-1.7-.6-2.3-.6l-2.3,27.1-19-2.9,5.8-61.1.6-7.5,7.5-1.2c30-3.5,58.8-9.8,87-18.4v-1.7c0-21.9-2.3-43.2-6.3-62.8-32.3,12.7-70.9,20.2-112.3,20.2s-85.8-8.6-119.8-23h0ZM62.8,327.7c-10.9,0-22.5,1.2-34,3.5,12.7,32.3,34,54.2,59.9,61.1,17.3,4.6,35.7,2.3,53.6-5.2-4.6-14.4-8.1-29.4-10.4-44.9-21.3-9.8-44.4-15-69.1-14.4h0ZM202.8,409.5h133.1c-40.3,44.9-93.9,43.2-133.1,0h0Z"/>
</svg>