<?xml version="1.0" encoding="UTF-8"?>
<svg id="Calque_1" data-name="Calque 1" xmlns="http://www.w3.org/2000/svg" width="512" height="512" version="1.1" viewBox="0 0 512 512">
  <defs>
    <style>
      .cls-1 {
        display: none;
        fill: #000;
      }

      .cls-1, .cls-2 {
        stroke-width: 0px;
      }

      .cls-2 {
        fill: #fff;
      }
    </style>
  </defs>
  <path class="cls-1" d="M0,0h512v512H0V0Z"/>
  <path class="cls-2" d="M133.2,28.8v454.4h245V28.8h-245ZM88.7,29.4C44.7,70.6,15.2,146.3,15.2,234.3s30.1,165.4,74.6,206c-29.5-46.8-48.4-121.4-48.4-206-.6-83,17.8-157.6,47.3-204.9ZM422.8,29.4c29,47.3,47.9,121.9,47.9,205.5s-18.9,158.7-48.4,206c44-40.6,74.6-117.5,74.6-206s-30.1-164.3-74.1-205.5h0ZM234.6,48.9h41.8c4.5,0,7.8,3.3,7.8,7.8s-3.3,7.8-7.8,7.8h-41.8c-4.5,0-7.8-3.3-7.8-7.8s3.3-7.8,7.8-7.8h0ZM124.9,78.9c-37.9,25.1-65.1,85.7-65.1,155.9s27.3,131.4,65.7,155.9c-25.6-30.6-42.9-89.1-42.9-155.9-.6-67.4,16.7-125.8,42.3-155.9ZM386.6,78.9c25.6,30.1,42.9,89.1,42.9,155.9s-17.3,125.3-42.9,155.9c38.4-24.5,65.7-85.2,65.7-155.9-.6-70.2-27.8-130.8-65.7-155.9ZM148.3,82.3h212.7v345.2h-212.7V82.3ZM254.6,433.6c10.6-.6,19.5,7.8,20,18.4v.6c0,10.6-8.9,19.5-19.5,19.5s-19.5-8.9-19.5-19.5c.6-10,8.4-18.4,18.9-18.9h0Z"/>
</svg>