<?xml version="1.0" encoding="UTF-8"?>
<svg id="Calque_1" data-name="Calque 1" xmlns="http://www.w3.org/2000/svg" width="512" height="512" version="1.1" viewBox="0 0 512 512">
  <defs>
    <style>
      .cls-1 {
        display: none;
        fill: #000;
      }

      .cls-1, .cls-2 {
        stroke-width: 0px;
      }

      .cls-2 {
        fill: #fff;
      }
    </style>
  </defs>
  <path class="cls-1" d="M0,0h512v512H0V0Z"/>
  <path class="cls-2" d="M15.1,14.8v96.5c213.1,0,385.4,172.7,385.4,385.9h96.5C497.4,230.7,281.5,14.8,15.1,14.8ZM15.1,177.5v93.7c124.9,0,226,101.1,226,226h93.7c0-176.4-143.3-319.7-319.7-319.7h0ZM79.4,364.9c-35.8.9-64.3,30.3-64.3,66.1.9,36.3,31.2,65.2,67.5,64.8,35.4-.9,63.9-29.4,64.8-64.8,0-36.3-29.4-66.1-66.1-66.1h-1.8Z"/>
</svg>