<?xml version="1.0" encoding="UTF-8"?>
<svg id="Calque_1" data-name="Calque 1" xmlns="http://www.w3.org/2000/svg" width="512" height="512" version="1.1" viewBox="0 0 512 512">
  <defs>
    <style>
      .cls-1 {
        display: none;
        fill: #000;
      }

      .cls-1, .cls-2 {
        stroke-width: 0px;
      }

      .cls-2 {
        fill: #fff;
      }
    </style>
  </defs>
  <path class="cls-1" d="M0,0h512v512H0V0Z"/>
  <path class="cls-2" d="M256.6,34.2c-31.5,0-60.8,22.5-81.7,63.8,0,0,0,.4-.4.4L38.8,334.2l-.4.4c-25.1,39.6-30.2,76.6-14.9,103.8,15.3,27.2,50.2,41.3,96.2,39.1h272.7c46.4,2.1,80.8-11.9,96.2-39.1,15.3-27.2,10.2-64.2-14.9-103.8l-.4-.4-134-234.9v-.4c-21.7-41.7-51.1-64.7-82.5-64.7h0ZM256.6,53.4c14,0,27.2,7.2,39.1,18.7,11.9,11.5,23.4,28.1,34.5,49.8v.4l118.7,207.2h0v.4c13.2,20.8,22.1,39.1,26,55.3,3.8,16.6,3,31.5-3.8,43.8-7.2,11.9-19.6,20-35.7,24.7-15.7,4.3-35.3,6-59.1,4.7h-240.4c-25.5,1.3-45.9-.4-62.1-5.1-16.2-5.1-28.5-14-34.9-26.4-6.4-12.8-6-27.7-1.7-43.8,4.3-16.2,13.2-33.6,25.5-53.2l.4-.4,120-208.1s0-.4.4-.4c11.1-21.7,22.1-37.9,34-49.4,11.9-11.5,25.1-18.3,39.1-18.3h0ZM305.6,117.2l-29.4,230.6h-43l-28.5-225.5c-1.3,2.6-3,5.5-4.3,8.1v.9l-120.4,208.5h0c-11.9,18.7-20,34.9-23.4,48.1-3.8,13.2-3.4,23,.4,29.8,3.4,6.8,10.2,12.8,23,16.6,12.8,3.8,31.5,5.5,56.2,4.3h240.8c22.5,1.3,40.4-.4,53.2-3.8,12.8-3.8,20.4-8.9,24.3-15.7,3.8-6.8,5.1-16.2,1.7-29.4-3.4-13.2-11.1-30.2-23.8-50.2h0v-.4l-119.1-208.1h0c-2.6-4.7-5.1-9.4-7.7-13.6h0ZM232.4,370.3h45.1v45.1h-45.1v-45.1h0Z"/>
</svg>