<?xml version="1.0" encoding="UTF-8"?>
<svg id="Calque_1" data-name="Calque 1" xmlns="http://www.w3.org/2000/svg" width="512" height="512" version="1.1" viewBox="0 0 512 512">
  <defs>
    <style>
      .cls-1 {
        display: none;
        fill: #000;
      }

      .cls-1, .cls-2 {
        stroke-width: 0px;
      }

      .cls-2 {
        fill: #fff;
      }
    </style>
  </defs>
  <path class="cls-1" d="M0,0h512v512H0V0Z"/>
  <path class="cls-2" d="M257.5,15c-47.6,0-95.2,15.1-135.8,44.1,91.7-38.9,202-19.7,276.3,55.2,74.3,74.3,92.9,184,54.6,275.8,66.2-92.3,57.5-221.8-25.5-304.8-47-47.6-108.6-70.8-169.5-70.2h0ZM452.5,389.5h0ZM90.8,65.5c-14.5,0-25.5,11.6-25.5,25.5s11.6,25.5,25.5,25.5,25.5-11.6,25.5-25.5c.6-13.9-11-25.5-25.5-25.5h0ZM255.7,80.6c-45.3,0-90.6,17.4-124.8,51.7-69.1,69.1-68.5,180.6,0,249.6,69.1,69.1,180.6,69.1,249.6,0s69.1-180.6,0-249.6c-34.8-34.8-79.5-51.7-124.8-51.7ZM251.1,102.1l22.1,62.7c-15.1-2.9-30.8-1.7-45.3,3.5l23.2-66.2h0ZM59.5,122.4h0ZM59.5,122.4C-6.7,215.3,2,344.2,85,427.2c83,83,213.1,92.3,305.4,26.1-91.7,38.3-202,19.7-276.3-55.2C39.7,323.9,21.2,214.1,59.5,122.4h0ZM143.7,146.2l64.4,30.8c-5.8,3.5-11,8.1-16.3,12.8h0c-6.4,6.4-11.6,13.4-15.7,20.9l-1.2,1.2-31.3-65.6h0ZM359,146.8l-26.7,55.7c-2.9-4.1-6.4-8.1-9.9-12.2-6.4-6.4-13.4-11.6-21.5-15.7l58.1-27.9h0ZM258,193.2c16.3,0,31.9,6.4,44.7,18.6,24.4,24.4,24.4,64.4,0,88.8-24.4,24.4-64.4,24.4-88.8,0-24.4-24.4-24.4-64.4,0-88.8,11.6-12.8,27.9-18.6,44.1-18.6h0ZM168,229.8v2.9c-3.5,14.5-3.5,30.2,0,44.7v.6l-69.1-24.4,69.1-23.8ZM346.3,234.5l56.9,19.7-56.3,19.7c2.9-12.8,2.9-26.7-.6-39.5h0ZM175,296.6c4.1,8.7,9.9,16.3,16.8,23.8,4.1,4.1,9.3,8.1,13.9,11.6l-62.1,30.2,31.3-65.6ZM332.9,308.2l26.1,54-55.2-26.7c7-4.1,13.4-8.7,19.2-14.5,3.5-4.1,7-8.7,9.9-12.8ZM229,342.4c13.9,4.6,29,5.8,43.5,3.5l-20.9,60.4-22.6-63.9h0ZM427.6,402.8c-14.5,0-25.5,11.6-25.5,25.5s11.6,25.5,25.5,25.5,25.5-11.6,25.5-25.5-11.6-25.5-25.5-25.5h0Z"/>
</svg>