<?xml version="1.0" encoding="UTF-8"?>
<svg id="Calque_1" data-name="Calque 1" xmlns="http://www.w3.org/2000/svg" width="512" height="512" version="1.1" viewBox="0 0 512 512">
  <defs>
    <style>
      .cls-1 {
        display: none;
        fill: #000;
      }

      .cls-1, .cls-2 {
        stroke-width: 0px;
      }

      .cls-2 {
        fill: #fff;
      }
    </style>
  </defs>
  <path class="cls-1" d="M0,0h512v512H0V0Z"/>
  <path class="cls-2" d="M192.6,55.1c-4.7,0-10,2.3-12.9,5.9s-4.1,7-4.7,10.6c-1.2,6.5-.6,12.3.6,18.2.6,2.3,1.2,4.7,1.2,7h24.7c-1.2-3.5-1.8-7-2.3-11.2-.6-2.9-.6-5.3-.6-7h115.1c0,1.8,0,4.7-.6,7-.6,4.1-1.8,7.6-2.3,11.2h24.7c.6-2.3,1.2-4.7,1.2-7,1.2-5.9,1.8-11.7.6-18.2-.6-3.5-1.8-7-4.7-10.6-2.9-3.5-8.2-5.9-12.9-5.9h-126.9ZM54,76.3v23.5h66.4v-23.5H54ZM391.7,76.3v23.5h65.8v-23.5h-65.8ZM44.6,121.5c-6.5,0-14.7,3.5-20.6,10-5.9,5.9-10,14.1-10,20.6v274.3c0,6.5,3.5,14.7,10,20.6,5.9,5.9,14.1,10,20.6,10h30.5V121.5h-30.5ZM99.2,121.5v335.3h314.2V121.5H99.2ZM436.9,121.5v335.3h30.5c6.5,0,14.7-3.5,20.6-10,5.9-5.9,10-14.1,10-20.6V152c0-6.5-3.5-14.7-10-20.6-5.9-5.9-14.1-10-20.6-10,0,0-30.5,0-30.5,0Z"/>
</svg>