<?xml version="1.0" encoding="UTF-8"?>
<svg id="Calque_1" data-name="Calque 1" xmlns="http://www.w3.org/2000/svg" width="512" height="512" version="1.1" viewBox="0 0 512 512">
  <defs>
    <style>
      .cls-1 {
        display: none;
        fill: #000;
      }

      .cls-1, .cls-2 {
        stroke-width: 0px;
      }

      .cls-2 {
        fill: #fff;
      }
    </style>
  </defs>
  <path class="cls-1" d="M0,0h512v512H0V0Z"/>
  <g>
    <path class="cls-2" d="M14.5,270.1v-26.9c.6-3.9,1.7-8.4,1.7-12.3C26.9,118.3,119.9,21.4,243.7,15.2c120.5-6.2,219.6,75.6,245.9,181,3.4,14.6,4.5,29.1,7.8,43.7v31.9c-3.4,19-5.6,38.1-11.2,56.6-32.5,103.1-130,172-237.5,168.6-109.2-3.4-201.7-79-227.5-184.9-2.8-13.4-3.9-28-6.7-42ZM380.4,438.7h2.2c3.4-2.2,6.2-4.5,9.5-6.7,57.7-47.1,86.8-107,85.7-181.5-1.1-119.3-105.3-219.6-224.7-216.8-68.3,2.2-116,70.6-93.6,134.5,14.6,42,51.5,67.8,98.6,69.5,85.7,2.2,147.9,76.8,134.5,161.3-2.2,14-7.3,26.9-12.3,39.8ZM256,362c-18.5,0-34.2,15.7-34.2,34.2s15.7,33.6,34.2,33.6,33.6-15.1,33.6-33.6c.6-19-15.1-34.2-33.6-34.2Z"/>
    <path class="cls-2" d="M212.9,123.9c0-19,16.2-34.7,35.3-34.7s34.7,16.2,34.2,35.3c-.6,19.6-15.7,34.2-35.9,34.2-18.5-.6-33.6-15.7-33.6-34.7Z"/>
  </g>
</svg>