<?xml version="1.0" encoding="UTF-8"?>
<svg id="Calque_1" data-name="Calque 1" xmlns="http://www.w3.org/2000/svg" width="512" height="512" version="1.1" viewBox="0 0 512 512">
  <defs>
    <style>
      .cls-1 {
        display: none;
        fill: #000;
      }

      .cls-1, .cls-2 {
        stroke-width: 0px;
      }

      .cls-2 {
        fill: #fff;
      }
    </style>
  </defs>
  <path class="cls-1" d="M0,0h512v512H0V0Z"/>
  <g>
    <path class="cls-2" d="M496.7,257.9c-1.8,4-4.9,5.8-9.8,5.4-4.5-.4-8.5,0-12.9,0s-2.7.4-2.7,2.7c-3.1,58.4-25.9,107.9-68.7,147.6-33.9,31.7-74.5,50.4-120.4,56.2-4.9.4-9.8.9-14.7,1.8h-23.2c-4.9-.4-10.3-.9-15.2-1.8-43.7-5.4-82.1-22.7-115.1-51.7-3.1-2.7-6.2-5.8-9.4-8.5-1.3-.9-1.3-1.8,0-2.7,2.7-2.2,4.9-4.9,7.6-7.6,1.3-1.8,2.2-1.8,4,0,12.5,12,26.3,22.7,41.5,31.2,35.2,19.6,72.7,28.1,112.8,25.4,78.9-5.8,146.7-56.6,174.4-130.7,8-21,12-42.8,12.5-65.6v-3.6c.4-4.9,3.1-7.6,7.6-7.6h10.3s.4,0,.9-.4c-10.7-17.8-21.4-36.1-32.1-54-1.3.4-1.3,1.3-1.8,1.8-9.8,16.5-19.6,33-29.9,50q-2.2,2.7.9,2.7h7.1c4,.4,6.7,3.6,6.7,7.6-.4,19.2-2.7,37.9-9.8,55.8-23.6,62-67.8,99.5-132.5,112.8-8.9,1.8-17.8,2.2-26.8,2.7-2.2,0-3.1-.9-2.7-3.1v-8.9c0-2.7.4-3.1,3.1-3.1,18.7,0,37-3.6,54-10.7,54.9-23.2,87.4-63.8,97.7-121.8.9-4.5.9-8.9,1.8-13.4.4-1.8-.4-2.7-2.2-2.7h-12c-6.7,0-10.3-5.8-6.7-11.6,15.2-25.4,30.3-50.8,45.5-76.3,3.1-5.4,9.8-5.4,13.4,0,15.2,25.4,30.3,50.8,45.5,76.3.4.9.9,1.3,1.3,2.2,0,.9,0,2.2,0,3.6Z"/>
    <path class="cls-2" d="M36,263.7c11.2,18.7,21.9,36.6,32.6,54.4,1.3-.4,1.3-1.3,1.8-1.8,9.8-16.5,19.6-33,29.4-50,.4-.9,1.3-1.3.9-2.2-.4-.9-1.8-.4-2.7-.4h-6.7c-4.5,0-7.1-3.1-7.1-7.6.9-87,63.3-154.3,140.1-168.2,9.8-1.8,19.2-2.7,29.4-3.1,1.8,0,2.7.4,2.2,2.2v9.8c0,2.2-.4,3.1-3.1,3.1-23.2.4-45,5.4-65.6,15.6-47.7,24.5-76.7,63.3-86.1,116.4-.9,4.5-.9,8.9-1.8,13.4-.4,2.2,0,3.1,2.7,3.1h11.6c7.1,0,10.3,5.8,6.7,12-15.2,25.4-29.9,50.4-45,75.8-3.6,5.8-10.3,5.8-13.8,0-14.7-25.4-29.4-50.4-44.6-75.8-3.6-6.2-.4-12,6.7-12h12c1.8,0,2.7-.4,2.7-2.7,3.1-58,25.9-107,68.2-147.2,31.7-29.9,69.6-49.1,112.8-55.3,70.9-10.7,132.5,8.9,185.1,58,1.8,1.8,2.2,3.1,0,4.5-2.2,1.8-4.5,4-6.2,6.2-1.3,1.8-2.2,1.8-4,0-9.4-9.4-20.1-17.8-31.2-25-26.8-16.9-55.8-27.2-87-30.3-92.3-8.9-176.6,42.8-209.6,128.9-8.5,22.3-12.5,45.5-12.9,69.6,0,5.8-2.7,8.5-8.9,8.5h-8.5Z"/>
    <path class="cls-2" d="M255.8,143.7h19.2c5.4,0,8,3.1,8,8v13.8c0,1.8.4,2.7,2.2,3.1,4,1.3,8,2.7,11.6,4.9,1.3.9,2.2.4,3.6-.4,3.1-3.1,6.2-6.7,9.8-9.8,4-4,8-4,12,0l26.8,26.8c4,4,4,8,0,12-3.1,3.1-6.2,6.7-9.8,9.8-1.3.9-1.3,1.8-.4,3.6,1.8,3.6,3.6,7.6,4.9,11.6s1.3,1.8,2.7,1.8h13.8c5.8,0,8.5,2.7,8.5,8.5v37.9c0,5.4-2.7,8.5-8,8.5h-13.8c-1.8,0-2.7.4-3.1,2.2-1.3,4-2.7,7.6-4.5,11.2-.9,1.3-.4,2.2.4,3.6,3.6,3.1,6.7,6.7,9.8,9.8,3.6,3.6,3.6,8,0,11.6-8.9,8.9-18.3,18.3-27.2,27.2-3.6,3.6-8,3.6-11.6,0l-9.8-9.8c-.9-.9-1.8-1.3-3.1-.4-3.6,1.8-7.6,3.6-11.6,4.9-1.8.4-2.2,1.3-2.2,3.1v13.8c0,5.4-3.1,8-8,8h-38.8c-4.9,0-8-3.1-8-8v-14.3c0-1.3-.4-2.2-1.8-2.7-4-1.3-8-2.7-11.6-4.9-1.3-.9-2.2-.4-3.1.4-3.1,3.1-6.7,6.7-9.8,9.8-3.6,3.6-8,3.6-11.6,0-9.4-8.9-18.3-18.3-27.2-27.2-3.6-3.6-3.6-8,0-11.2,3.1-3.6,6.7-6.7,10.3-10.3.9-.9,1.3-1.8.4-3.1-1.8-3.6-3.6-7.6-4.9-11.6-.4-1.8-1.3-2.2-3.1-2.2h-13.8c-5.4,0-8.5-3.1-8.5-8.5v-37.9c0-5.4,2.7-8.5,8.5-8.5h13.4c1.8,0,2.7-.4,3.6-2.2,1.3-4,2.7-7.6,4.5-11.2.9-1.3.4-2.2-.4-3.1-3.6-3.1-6.7-6.7-9.8-9.8s-3.6-8,0-11.6c8.9-8.9,17.8-17.8,27.2-26.8,4-4,8-4,12,0s6.7,6.2,9.8,9.8c1.3,1.3,2.2,1.3,3.6.4,3.6-1.8,7.6-3.6,11.2-4.5,1.8-.4,2.2-1.3,2.2-3.1v-13.8c0-4.9,3.1-8,8-8,4.9-1.3,11.6-1.3,17.8-1.3ZM255.8,353.3h9.8c2.2,0,2.7-.9,2.7-2.7v-11.6c0-4.5,1.8-7.1,6.2-8,7.6-1.8,14.7-4.9,21.4-8.9,3.6-2.2,7.1-1.8,9.8,1.3,3.1,2.7,5.8,5.8,8.5,8.5,1.3,1.3,1.8,1.3,3.1,0,4.9-4.9,9.8-9.8,14.7-14.7s.9-1.8,0-3.1c-3.1-2.7-5.8-5.8-8.5-8.5-3.1-3.1-3.6-6.2-1.3-9.8,4-6.7,6.7-13.8,8.9-21.4.9-4,3.6-5.8,8-5.8h12c1.8,0,2.2-.4,2.2-2.2v-20.5c0-1.8-.9-2.2-2.2-2.2h-12c-4.5,0-7.1-1.8-8-6.2-1.8-7.6-4.9-14.3-8.5-21-2.2-4-1.8-7.1,1.3-10.3,2.7-3.1,5.8-5.8,8.5-8.5,1.3-1.3,1.3-1.8,0-3.1-4.9-4.9-9.8-9.8-14.7-14.7-1.3-1.3-1.8-.9-3.1,0-2.7,2.7-5.8,5.8-8.5,8.5-3.1,3.1-6.7,3.6-10.7,1.3-6.7-4-13.4-6.7-20.5-8.5-4.9-1.3-6.7-3.6-6.7-8.5v-12c0-1.3-.4-1.8-2.2-1.8h-20.5c-1.8,0-2.2.9-2.2,2.2v12c0,4.5-1.8,7.1-6.2,8-7.6,1.8-14.7,4.9-21,8.9-3.6,2.2-7.1,1.8-10.3-1.3-3.1-2.7-5.8-5.8-8.5-8.5s-1.8-1.3-3.1,0c-4.9,4.9-9.4,9.8-14.3,14.3-1.3,1.3-1.3,1.8,0,3.1,3.1,3.1,6.2,5.8,8.9,8.9,2.7,2.7,3.1,5.8,1.3,9.4-4,6.7-7.1,14.3-8.9,21.9-.9,4-3.6,5.8-7.6,5.8h-12.5c-1.8,0-2.2.4-2.2,2.2v20.5c0,2.2.9,2.2,2.7,2.2h12c4.5,0,6.7,1.8,8,6.2,1.8,7.6,4.9,14.7,8.9,21,2.2,3.6,1.8,6.7-1.3,10.3-3.1,3.1-5.8,5.8-8.9,8.9-.9.9-1.3,1.8,0,2.7,4.9,4.9,9.8,9.8,14.7,14.7,1.3,1.3,1.8.9,2.7,0,2.7-3.1,5.8-5.8,8.5-8.5,3.1-3.1,6.2-3.6,10.3-1.3,6.7,4,13.4,6.7,21,8.5,4.9,1.3,6.7,3.6,6.7,8.5v11.6c0,1.8.4,2.2,2.2,2.2,2.7-.4,5.8,0,9.4,0Z"/>
    <path class="cls-2" d="M300.5,256.1c0,24.5-20.1,44.6-44.2,44.6s-44.6-19.6-44.6-44.2,19.6-44.6,44.2-44.6c24.5-.4,44.6,19.6,44.6,44.2ZM285.3,256.1c0-16.1-13.4-29.4-29.4-29.4s-29.4,13.4-29.4,29.4,13.4,29.4,29.4,29.4,29.4-13.4,29.4-29.4Z"/>
  </g>
</svg>