<?xml version="1.0" encoding="UTF-8"?>
<svg id="Calque_1" data-name="Calque 1" xmlns="http://www.w3.org/2000/svg" width="512" height="512" version="1.1" viewBox="0 0 512 512">
  <defs>
    <style>
      .cls-1 {
        display: none;
        fill: #000;
      }

      .cls-1, .cls-2 {
        stroke-width: 0px;
      }

      .cls-2 {
        fill: #fff;
      }
    </style>
  </defs>
  <path class="cls-1" d="M0,0h512v512H0V0Z"/>
  <g>
    <path class="cls-2" d="M36.9,321.7v-184.7c8.4-24.9,25.8-34.2,51.5-32.9,21.8,1.3,43.5,0,64.8.4,7.5,0,9.8-2.7,9.8-9.8-.4-11.5-.4-22.6,0-34.2,0-29.3,16-45.3,44.8-45.3h159.4c31.5,0,46.6,15.1,46.6,46.6v123c0,16.9,0,18.2,16.4,16.9,28-1.8,45.3,20.9,44.8,45.7-.9,53.7-.4,107-.4,160.7s-17.3,46.2-47.1,45.7c-27.5-.4-54.6.4-82.1,0-6.7,0-11.5,2.2-16,6.2-12,11.1-24.4,21.8-36.9,32.4-2.7,2.7-5.8,4.9-10.2,3.6-4.9-1.8-4.9-6.2-5.3-10.7,0-7.1-.4-14.7,0-21.8.9-8-2.2-10.2-10.2-10.2-28.9-.4-44-16-44.4-44.8,0-14.7-.4-28.9,0-43.5.4-8-2.2-10.2-10.2-10.2-42.2.4-84.4.4-126.5.4-27.5.4-38.2-6.7-48.8-33.7ZM294.8,470c10.7-8.9,20.4-17.8,30.2-26.2,4.4-4,9.3-5.8,15.5-5.8,31.1.4,62.2.4,93.2,0,15.5,0,24.9-9.3,25.3-24.9.4-56.8,0-113.2,0-170.1s-9.8-24.9-24-24.9c-56.4-.4-113.2-.4-169.6,0-16.9,0-25.3,10.2-25.3,27.1v166.5c0,16.4,8.9,25.3,24.9,26.2,6.2.4,12,.4,18.2.4s10.2,3.1,10.2,10.2-1.8,13.3,1.3,21.3ZM289.1,30.5c-27.5,0-55.5-.4-83,0-17.3,0-27.1,10.7-27.1,27.1s.4,23.5-.4,35.5c-.4,8.4,1.3,12,11.1,11.5,18.6-.9,37.3-.4,55.9-.4,26.6,0,42.6,16,42.6,42.2s.4,31.1,0,46.6c0,7.1,2.2,9.3,9.3,8.9,9.3-.4,19.1-.9,28.4,0,7.5.4,9.8-2.2,9.8-9.3-.4-30.2,0-59.9,0-90.1s-5.3-20.9-21.3-20.9h-77.7c-5.8,0-12.4,0-12.4-8,.4-8,6.7-8,12.4-8h77.7c24.9,0,36.9,12.4,36.9,37.3v90.1c0,6.7,1.3,9.8,8.9,9.3,8.9-.9,17.8-.9,26.2,0,9.3.9,12.4-1.8,12.4-11.5-.4-43.5,0-87.5-.4-131,0-19.1-9.3-28.9-28.4-29.3h-80.8ZM222.5,308c4-10.7-.4-16-9.8-19.5-12-4.9-22.6-12.4-32.9-20.4-6.2-4.4-7.5-8-1.8-14.2,12.9-13.8,22.2-29.8,27.5-48,3.1-11.5,8-16.9,20-14.2.9.4,2.2,0,3.6,0,5.3,0,12,.4,12-6.7s-7.1-7.1-12.9-7.1h-40q-17.8,0-19.1-18.2c0-1.3,0-2.2-.4-3.6-.9-3.6-3.1-6.2-7.1-6.2-3.6.4-6.2,2.7-6.7,6.7,0,2.7-.9,5.3,0,8,2.2,10.7-3.1,13.3-12.4,12.9h-51.1c-4.4,0-8.9,2.2-8.4,7.1s4,7.1,8.9,6.7h94.6c7.5,0,8.9,1.8,6.2,8.9-5.8,17.3-15.5,32-26.6,45.7-4,5.3-6.7,4.4-10.2,0-5.3-7.1-11.1-14.2-16.4-21.8-3.1-4-6.7-7.1-11.5-4-4.9,3.6-3.1,8-.4,12,5.8,7.5,11.1,15.5,17.8,22.2s4.9,8.9-1.3,12.9c-14.2,10.7-29.8,19.5-46.2,26.2-4.9,1.8-9.8,4-7.5,10.2s7.5,4.9,12.4,2.7c18.2-7.5,36-16.9,50.6-29.8,6.2-5.3,9.8-5.3,16,0,16.4,14.7,34.2,24,53.3,31.5Z"/>
    <path class="cls-2" d="M408.1,390.6c-.9,3.6-2.2,6.7-5.8,7.5-4.4.9-7.5-1.3-8.9-4.9-3.6-8.9-7.5-17.3-10.7-26.2-2.2-6.7-5.8-9.8-13.3-9.3-14.2.9-28,.4-42.2,0-5.3,0-8,1.8-10.2,6.7-3.1,8.9-7.1,17.3-10.7,26.2-2.2,4.9-4.4,9.3-10.7,7.1-7.1-2.7-5.3-8-3.6-13.3,16-40,32.4-79.9,48.4-119.9,1.3-3.6,2.7-7.5,7.5-7.1,4.4,0,7.1,1.8,8.9,5.8,16.4,41.3,33.3,82.6,50.2,123.9.4,1.3.9,2.7.9,3.6ZM349.5,285.3c-8.4,20.4-15.1,37.7-22.6,56.4h45.3c-7.5-18.2-14.2-35.5-22.6-56.4Z"/>
  </g>
</svg>