<?xml version="1.0" encoding="UTF-8"?>
<svg id="Calque_1" data-name="Calque 1" xmlns="http://www.w3.org/2000/svg" width="512" height="512" version="1.1" viewBox="0 0 512 512">
  <defs>
    <style>
      .cls-1 {
        display: none;
        fill: #000;
      }

      .cls-1, .cls-2 {
        stroke-width: 0px;
      }

      .cls-2 {
        fill: #fff;
      }
    </style>
  </defs>
  <path class="cls-1" d="M0,0h512v512H0V0Z"/>
  <g>
    <path class="cls-2" d="M323.6,346.1c-1.4,17.3-2.9,34.1-4.8,51.3,13.9,3.4,27.3,6.7,40.8,10.1,15.3,3.8,30.7,7.7,46.5,11,11.5,2.4,20.1,7.2,22.1,19.7,1.9,13.4-2.4,25.4-14.4,31.7-9.1,4.8-19.2,6.7-29.3,8.6-31.7,5.3-63.3,10.1-95,14.9-1,0-1.4-.5-2.9-.5,6.7-12,9.6-24,4.3-37.4-5.3-12-13.9-20.6-26.9-22.1-19.7-2.4-39.3-10.6-60,0,5.8,1,10.6,1.9,15.3,2.9,13.4,1.9,26.9,3.8,40.3,5.8,14.9,1.9,25.9,14.9,24.9,29.3-1.4,16.3-13,27.3-28.8,25.4-28.8-2.9-58-7.2-86.8-11.5-20.1-2.9-40.3-6.7-60-9.6-16.3-2.4-25.9-11-27.8-24.9-1.9-13.4,6.2-26.9,21.6-31.7,17.3-5.8,35-9.6,52.8-14.4,11-2.9,21.6-5.3,33.6-8.2-1.4-16.3-2.9-33.1-4.3-48-17.7,11-35.5,22.5-53.2,33.1-10.6,6.2-21.1,11.5-32.1,16.8-12,5.8-24.9,1.4-30.7-10.1-5.8-12-1.4-24.5,11-31.2,21.1-12,41.7-24.5,62.8-36.5,6.2-3.4,8.6-8.6,10.1-15.3,6.2-28.8,13.4-58,19.7-86.8,2.9-12,9.6-19.7,22.1-22.1,40.3-7.7,80.1-7.7,120.4,0,12.5,2.4,19.2,9.6,21.6,21.6,7.2,30.2,13.9,60.9,21.6,91.1,1,3.8,4.3,8.2,7.7,10.6,22.1,13.4,44.1,25.9,66.2,38.9,8.6,4.8,12.5,13,11,22.5-1.4,9.6-7.2,17.3-17.3,19.2-5.3,1-11.5.5-16.3-1.9-25.9-14.4-51.8-29.3-77.2-44.6-3.4-1.4-5.3-4.3-8.6-7.7ZM252.1,288.5c15.8-10.6,29.7-19.2,38.4-33.6,8.6-14.9,1.4-33.6-14.9-36-7.2-1-14.9,3.4-24,5.3-4.3-4.3-11.5-8.2-20.1-5.3-17.3,5.3-23.5,24.5-11.5,38.9,8.6,11.5,21.1,20.6,32.1,30.7Z"/>
    <path class="cls-2" d="M443.5,348.9c-1.9-1.4-3.8-2.9-5.8-3.4-5.8-2.4-6.2-5.8-4.8-11.5,23-88.3-16.8-175.1-98.8-215.4-6.7-3.4-7.7-5.3-6.7-18.7,102.2,37.4,151.1,154,116.1,248.9Z"/>
    <path class="cls-2" d="M185,100c.5,9.6-1.9,16.3-12,21.1-67.2,33.1-106.5,105-99.8,179.9,1.4,13,3.8,25.4,6.2,39.3-2.9,1.4-7.2,3.4-11.5,5.8-33.6-90.2,13.4-208.7,117-246.1Z"/>
    <path class="cls-2" d="M242.5,170v-41.7h-36.9v-12h36.9v-17.3h-36.9v-12h31.2L197,15.1h22.1l24.9,48.9c3.8,8.2,6.7,14.4,9.6,21.6h.5c2.4-6.7,5.3-13.9,9.6-22.1l25.9-48.4h22.1l-42.7,72h31.2v12h-37.9v17.3h36.9v12h-36.9v41.7s-19.7,0-19.7,0Z"/>
  </g>
</svg>