<?xml version="1.0" encoding="UTF-8"?>
<svg id="Calque_1" data-name="Calque 1" xmlns="http://www.w3.org/2000/svg" width="512" height="512" version="1.1" viewBox="0 0 512 512">
  <defs>
    <style>
      .cls-1 {
        display: none;
        fill: #000;
      }

      .cls-1, .cls-2 {
        stroke-width: 0px;
      }

      .cls-2 {
        fill: #fff;
      }
    </style>
  </defs>
  <path class="cls-1" d="M0,0h512v512H0V0Z"/>
  <path class="cls-2" d="M255.7,25.8l-43.4,112.8-120.7,36.8,108-4.2-36.8,96,104.4-150.3,50.7,65.2L255.7,25.8h0ZM307,90.3l36.8,103.8-103.8-6.6,174.4,54.9-47.1,68.2,130.3-105.6-118.9-7.8-71.8-106.8h0ZM182.1,191.1l-167.8,10.9,89.3,72.4-.6,129.1,28.4-106.2,83.3,67.6-110.4-146,77.8-27.8h0ZM253.9,209.8c-22.9,0-45.3,26.6-68.2,79.1,44.1,78.5,89.3,87.5,136.4,0-22.3-52.5-45.3-79.1-68.2-79.1h0ZM254.5,226.1c11.5,8.4,19.3,30.8,19.3,57.3s-7.8,48.3-19.3,57.3c-11.5-8.4-19.3-30.8-19.3-57.3s7.8-48.9,19.3-57.3h0ZM338.4,237l5.4,182.8-79.7-22.3,142.4,88.7-31.4-113.5,74.8-105-83.9,70.6-27.8-101.4h0ZM148.3,322.1l-44.1,161.7,100.2-62.2,122.5,39.8-91.7-59.1,88.1-54.9-173.8,57.3-1.2-82.7h0Z"/>
</svg>