<?xml version="1.0" encoding="UTF-8"?>
<svg id="Calque_1" data-name="Calque 1" xmlns="http://www.w3.org/2000/svg" width="512" height="512" version="1.1" viewBox="0 0 512 512">
  <defs>
    <style>
      .cls-1 {
        display: none;
        fill: #000;
      }

      .cls-1, .cls-2 {
        stroke-width: 0px;
      }

      .cls-2 {
        fill: #fff;
      }
    </style>
  </defs>
  <path class="cls-1" d="M0,0h512v512H0V0Z"/>
  <path class="cls-2" d="M223.3,42.8l-1.7,150.4c-11,2.3-21.4,5.2-31.2,9.3l-34.7-54.4,10.4,66c-11,6.4-22,13.9-31.2,22l-86.2-72.9,61.3,98.3c-11,13.3-19.7,27.8-26.6,44l-38.2-9.8,32.4,24.3c-5.2,15-8.7,30.7-9.8,46.9l-52.6,1.7,151.6,58.4c-5.8-13.3-9.3-27.8-9.3-42.8,0-57.9,46.9-104.7,104.7-104.7s104.7,46.9,104.7,104.7-2.9,28.9-8.7,41.7v1.7l138.8-59.6-40.5-4c-2.3-20.8-7.5-41.1-16.2-59.6l30.1-34.7-41.7,13.3c-9.3-15-20.2-28.3-33-40.5l57.9-133.1-93.1,107c-13.3-8.1-27.2-13.9-42.2-18.5l2.3-66.5-24.9,60.7c-11-1.7-22.6-2.9-34.7-2.9h-6.9l-30.7-146.4ZM261.5,207.7c9.3,0,18.5.6,27.2,2.3l-19.7,48.6-11-50.9c1.2,0,2.3,0,3.5,0h0ZM221,212.3l-.6,38.8-20.2-32.4c6.9-2.3,13.9-4.6,20.8-6.4h0ZM317.6,216.9c11,3.5,20.8,8.1,30.7,13.9l-32.4,37,1.7-50.9h0ZM168.9,233.7l5.8,37-26-22c6.4-5.8,13.3-10.4,20.2-15h0ZM386.5,259.8c8.7,8.7,16.2,17.9,22.6,28.3l-40.5,12.7,17.9-41.1h0ZM120.3,278.3l26.6,43.4-45.7-11.6c5.2-11,11.6-22,19.1-31.8h0ZM261.5,297.9c-47.4,0-85.6,38.2-85.6,85.6s38.2,85.6,85.6,85.6,85.6-38.2,85.6-85.6-38.2-85.6-85.6-85.6h0ZM425.8,319.3c5.2,13.3,8.7,27.2,11,42.2l-43.4-4,32.4-38.2ZM93.1,332.1l44,33-50.9,1.7c1.2-12.1,3.5-23.7,6.9-34.7h0Z"/>
</svg>