<?xml version="1.0" encoding="UTF-8"?>
<svg id="Calque_1" data-name="Calque 1" xmlns="http://www.w3.org/2000/svg" width="512" height="512" version="1.1" viewBox="0 0 512 512">
  <defs>
    <style>
      .cls-1 {
        display: none;
        fill: #000;
      }

      .cls-1, .cls-2 {
        stroke-width: 0px;
      }

      .cls-2 {
        fill: #fff;
      }
    </style>
  </defs>
  <path class="cls-1" d="M0,0h512v512H0V0Z"/>
  <path class="cls-2" d="M194.5,15l-28.5,86c-22.5,13-42,31-56.5,52l-67.5-23.5,40.5,81c-6,24-7.5,50.5-3,76.5l-64.5,30.5,85.5,28.5c13,23,31,42,52,57l-23.5,67,81-40.5c24.5,6.5,51,8,77.5,3.5l30.5,64,28-85.5c23-13.5,42.5-31.5,57-52.5l67,23.5-40.5-80.5c6.5-24.5,8-51,3.5-77.5l64-30.5-85.5-27.5c-13.5-23-31.5-42-52.5-57l24-67-81,40.5c-12.5-3.5-25.5-5.5-39-6-12.5-.5-25.5.5-38,2.5l-30.5-64.5h0ZM257,95.5h6c17.5.5,34,4,50,10l-32,36,33.5,26.5-15,19c5.5,3.5,10.5,7,14.5,11.5l26.5-33.5-32.5-25.5,22.5-25.5c31,16,56.5,42.5,72,76l-48,3,5,42.5-23.5,2.5c1.5,6.5,2,12.5,2,18.5l42.5-4.5-4.5-41.5,34-2c.5,2,1.5,4.5,2,6.5,9,34,6.5,68-5,98l-36-32-26.5,33.5-18.5-15c-3.5,5.5-7,10.5-11.5,14.5l33.5,26.5,26-32.5,25.5,23c-16.5,31-42.5,56.5-76,72l-4-48.5-42.5,5-2.5-23.5c-6.5,1.5-12.5,2-18.5,2l4.5,42.5,41.5-4.5,2,34c-2,.5-4,1-6,2-34,9-68,6.5-98.5-5l32-36-33.5-26.5,15-18.5c-5.5-3.5-10.5-7.5-14.5-12l-27,33,32.5,26-22.5,25.5c-31-16.5-56.5-42.5-71.5-76l48-3-5-42.5,24-2.5c-1.5-6.5-2-12.5-2-18.5l-42.5,5,4.5,41.5-34,2c-.5-2-1-4-2-6-9-34-6.5-68,5-98l36,32,26.5-33.5,19,15c3.5-5.5,7.5-10.5,12-14.5l-33.5-27-26,32.5-25.5-22.5c16.5-31,42.5-56.5,76-71.5l3,48,42.5-5,2.5,24c6.5-1.5,12.5-2,18.5-2l-5-42.5-41.5,4.5-2-34c2-.5,4-1.5,6.5-2,14-4.5,28-6.5,42-6.5h0ZM264.5,191v28c16,4,28.5,18.5,28.5,36s-12,32-28.5,36v30c3-.5,5.5-1,8.5-1.5,35-9.5,56-45,46.5-80.5-7-26-29.5-44.5-55-48h0ZM246,191.5c-2,.5-4.5,1-6.5,1.5-35,9.5-56,45-46.5,80.5,7,26,28,44,53,48v-30c-15.5-4.5-27-19-27-36s11.5-31.5,27-36v-28h0ZM256,237c-10,0-18.5,8-18.5,18.5s8,18.5,18.5,18.5,18.5-8,18.5-18.5c-.5-10.5-8.5-18.5-18.5-18.5h0Z"/>
</svg>