<?xml version="1.0" encoding="UTF-8"?>
<svg id="Calque_1" data-name="Calque 1" xmlns="http://www.w3.org/2000/svg" width="512" height="512" version="1.1" viewBox="0 0 512 512">
  <defs>
    <style>
      .cls-1 {
        display: none;
        fill: #000;
      }

      .cls-1, .cls-2 {
        stroke-width: 0px;
      }

      .cls-2 {
        fill: #fff;
      }
    </style>
  </defs>
  <path class="cls-1" d="M0,0h512v512H0V0Z"/>
  <path class="cls-2" d="M256.3,18.5l-55.5,92.9-102.2-35.6,17.5,106.9L15,221.2l81.8,70.7-53.2,94.1,108.1,1.2,19.9,106.3,83.5-68.4,84.7,67.8,19.9-106.3,108.7-1.2-53.2-94.1,81.8-70.7-101.1-38.6,17.5-106.9-102.2,35.6c.6.6-54.9-92.3-54.9-92.3ZM262.1,117.2c38,0,71.9,14.6,98.2,38-8.8-3.5-18.1-5.8-28-7h-11.7c-7,0-13.4.6-20.4,1.8-1.8-8.8-9.3-15.8-18.7-15.8s-18.7,8.8-18.7,18.7.6,6.4,2.3,9.3c-8.2,4.1-15.2,9.9-22.2,15.8h1.2c13.4,0,24,10.5,24,24s-10.5,24-24,24-22.8-9.3-24-21c-5.3-12.3-17.5-20.4-31.5-20.4s-35.1,15.8-35.1,35.1,15.8,35.1,35.1,35.1,10.5-1.2,15.2-3.5h0c3.5-4.1,8.8-7,14.6-7,10.5,0,18.7,8.8,18.7,18.7s-8.8,18.7-18.7,18.7-8.2-1.2-11.1-3.5c-3.5-3.5-8.2-5.8-14-5.8-10.5,0-18.7,8.8-18.7,18.7s8.8,18.7,18.7,18.7,14-4.1,16.9-10.5c6.4,19.3,17.5,36.2,32.1,49.1.6-9.3,8.2-17.5,17.5-18.1-.6-2.3-.6-4.7-.6-7.6,0-19.3,15.8-35.1,35.1-35.1s35.1,15.8,35.1,35.1-15.8,35.1-35.1,35.1-9.9-1.2-14.6-2.9c-1.8,5.3-5.3,9.9-10.5,11.7,15.2,7.6,32.7,11.7,50.8,11.7s28.6-2.9,41.5-8.2c-26.3,24-60.8,39.1-99.3,39.1-80.6,0-146.1-65.4-146.1-146.1,0-80,65.4-145.5,146.1-145.5h0ZM322.3,180.3c10.5,0,18.7,8.8,18.7,18.7s-8.8,18.7-18.7,18.7-18.7-8.8-18.7-18.7,8.2-18.7,18.7-18.7ZM188.5,203.1c8.8,0,15.8,7,15.8,15.8s-7,15.8-15.8,15.8-15.8-7-15.8-15.8,7-15.8,15.8-15.8h0ZM294.3,307.1c-8.8,0-15.8,7-15.8,15.8s7,15.8,15.8,15.8,15.8-7,15.8-15.8-7-15.8-15.8-15.8h0ZM196.1,325.8c-8.8,0-15.8,7-15.8,15.8s7,15.8,15.8,15.8,15.8-7,15.8-15.8c0-8.2-7-15.8-15.8-15.8h0Z"/>
</svg>