<?xml version="1.0" encoding="UTF-8"?>
<svg id="Calque_1" data-name="Calque 1" xmlns="http://www.w3.org/2000/svg" width="512" height="512" version="1.1" viewBox="0 0 512 512">
  <defs>
    <style>
      .cls-1 {
        display: none;
        fill: #000;
      }

      .cls-1, .cls-2 {
        stroke-width: 0px;
      }

      .cls-2 {
        fill: #fff;
      }
    </style>
  </defs>
  <path class="cls-1" d="M0,0h512v512H0V0Z"/>
  <path class="cls-2" d="M218.8,16l-18.3,18.3-6.3-5.7-6.9-6.9-6.9,6.9L44.9,164.2l-6.9,6.9,6.9,6.9,6.3,6.3-18.3,18.3-2.9,2.9v40h18.9v-32l15.4-15.4,36.6,36.6-18.3,18.3-2.9,2.9v40h18.9v-32.6l15.4-15.4,36,36-18.3,18.3-2.3,2.3v40h18.9v-32l15.4-15.4,37.8,37.8-18.3,18.3-2.9,2.9v40h18.9v-32l15.4-15.4,36.6,36.6-18.3,18.3-2.9,2.9v40h19.5v-32l15.4-15.4,36,36-18.3,18.3-2.9,2.9v40h18.9v-32.6l15.4-15.4,5.7,5.7,6.9,6.9,6.9-6.9,135.6-135.6,6.9-6.9-6.9-6.9-5.7-5.7,18.3-18.3-13.7-13.7-18.3,18.3-36-36,18.3-18.3-13.7-13.7-18.3,18.3-36-36,18.3-18.3-13.7-13.7-18.3,18.3-37.8-37.8,18.3-18.3-12.6-13.7-18.3,18.3-36-36,18.3-18.3-13.7-13.7-18.3,18.3-36.6-36.6,18.3-18.3-13.2-13.2h0ZM188.5,84.7l214.5,214.5-74.9,75.5L113.5,160.2l74.9-75.5h0ZM155.3,151.6l-13.7,13.7,177.9,176.8,6.9,6.9,6.9-6.9,35.5-34.9-13.7-13.7-28.6,28.6-171.1-170.5h0ZM95.2,169.3l223.7,223.7v31.5L66.1,171.6l29.2-2.3ZM422.5,307.2l26.3,3.4.6.6-111.6,111.6v-30.9l84.7-84.7h0Z"/>
</svg>