<?xml version="1.0" encoding="UTF-8"?>
<svg id="Calque_1" data-name="Calque 1" xmlns="http://www.w3.org/2000/svg" width="512" height="512" version="1.1" viewBox="0 0 512 512">
  <defs>
    <style>
      .cls-1 {
        display: none;
        fill: #000;
      }

      .cls-1, .cls-2 {
        stroke-width: 0px;
      }

      .cls-2 {
        fill: #fff;
      }
    </style>
  </defs>
  <path class="cls-1" d="M0,0h512v512H0V0Z"/>
  <path class="cls-2" d="M17.2,52l-1.2,48.2,147.4,49.3,9.3,2.9-3.5,9.3c-15.1,44.1-18,94.6-3.5,140.5,4.1,18,11.6,33.7,22.1,47l-9.3,11-5.8,6.4,5.8,6.4,70.2,78.9,7,8.1,7-8.1,70.2-80.1,5.2-6.4-5.2-6.4-9.9-11c9.9-13.3,17.4-29,21.5-46.4,14.5-45.9,11.6-96.3-3.5-140.5l-2.9-8.7,9.3-2.9,147.4-49.3-1.2-48.2-203.7,81.3c15.7,20.9,26.1,55.7,26.1,94.6s-8.1,66.7-21.5,88.2l-31.9-36.6-7-8.1-7,8.1-32.5,36.6c-13.3-20.9-21.5-52.8-21.5-88.2s10.4-73.7,26.1-94.6L17.2,52h0ZM496,119.9l-134.1,44.7c2.3,8.7,4.6,17.4,6.4,26.1l125.4-12.8c1.7-19.2,2.3-38.9,2.3-58ZM16,120.5c0,19.7.6,38.9,2.3,58l123.6,12.2c1.7-8.7,4.1-17.4,6.4-26.1L16,120.5h0ZM20.6,197.7c2.3,18,5.2,34.8,9.3,51.7l107.4-9.9c0-9.9.6-19.7,1.7-29.6l-118.4-12.2h0ZM491.9,197.7l-120.1,12.2c1.2,9.9,1.7,19.7,1.7,29l109.1,9.9c4.1-16.3,7-33.7,9.3-51.1h0ZM373,258c-.6,7.5-1.7,14.5-2.9,22.1l88.8,30.8c7-13.3,13.3-27.3,18-43l-103.9-9.9h0ZM137.9,258l-102.7,9.3c4.6,15.1,11,29.6,18,43l87.6-30.2c-1.2-7.5-2.3-14.5-2.9-22.1h0ZM366,298.1c-2.3,7.5-4.6,15.1-7.5,22.6l55.7,41.8c13.3-9.9,25-22.1,34.8-36l-83-28.4h0ZM144.9,298.7l-81.8,27.9c9.9,13.9,21.5,26.1,34.8,36l54.6-41.2c-2.9-7-5.2-15.1-7.5-22.6h0ZM254.5,301v67.3h56.3l-55.1,62.7-58-65.6,56.9-64.4h0Z"/>
</svg>