<?xml version="1.0" encoding="UTF-8"?>
<svg id="Calque_1" data-name="Calque 1" xmlns="http://www.w3.org/2000/svg" width="512" height="512" version="1.1" viewBox="0 0 512 512">
  <defs>
    <style>
      .cls-1 {
        display: none;
        fill: #000;
      }

      .cls-1, .cls-2 {
        stroke-width: 0px;
      }

      .cls-2 {
        fill: #fff;
      }
    </style>
  </defs>
  <path class="cls-1" d="M0,0h512v512H0V0Z"/>
  <path class="cls-2" d="M217.1,16l-15,48.6c-93.3,22.1-163.3,100.2-163.3,194.3s1.7,29.1,5,43l-23.4,5,7.8,36.4,27.8-6c10.4,22.7,25.3,43.2,43.5,60.6l-26.8,87.1,35.6,10.9,22.5-73.2c35.5,23.2,78.7,36.7,125.1,36.7s116.5-23.4,156.1-61.3l43.2,69.1,31.6-19.7-49.2-78.8c22.4-31.5,35.5-69.2,35.5-109.9s-.1-7.3-.3-10.9l18.7-4-7.8-36.4-16.8,3.6c-23.3-88.1-109.6-152.9-210.9-152.9s-8.2.1-12.2.3l-26.7-42.7h0ZM267,95.9c80,4.3,144.8,55.7,163.5,123.2l-76.3,16.3-87.2-139.5h0ZM228.7,104.8l86.8,138.9-138.7,29.7,51.9-168.6h0ZM189,107.2l-53.9,175.1-54.9,11.8c-2.8-11.5-4.2-23.3-4.2-35.2,0-68.4,46.3-127.6,113-151.7h0ZM435.9,256c0,1,0,2,0,3,0,27-7.2,52.5-20.1,75.1l-40.6-65,60.7-13h0ZM336.5,277.3l55.5,88.7c-32.8,34.4-81.3,56.3-136,56.3s-82.8-13.8-113.7-36.7l22-71.5,172.2-36.9h0ZM122.6,323.1l-10.5,34c-7.2-8.7-13.4-18-18.6-27.8l29-6.2h0Z"/>
</svg>