<?xml version="1.0" encoding="UTF-8"?>
<svg id="Calque_1" data-name="Calque 1" xmlns="http://www.w3.org/2000/svg" width="512" height="512" version="1.1" viewBox="0 0 512 512">
  <defs>
    <style>
      .cls-1 {
        display: none;
        fill: #000;
      }

      .cls-1, .cls-2 {
        stroke-width: 0px;
      }

      .cls-2 {
        fill: #fff;
      }
    </style>
  </defs>
  <path class="cls-1" d="M0,0h512v512H0V0Z"/>
  <path class="cls-2" d="M194.5,16l-28.4,85.6c-22.5,13.1-41.9,31.1-56.3,51.8l-66.7-23.9,40.6,80.7c-6.3,24.3-8.1,50.5-3.6,76.6l-64,30.2,85.2,28.4c13.1,22.5,31.1,41.9,51.8,56.8l-23.4,66.7,80.2-40.1c24.3,6.8,50.5,8.1,77.1,3.6l30.6,63.5,27.9-84.7c23-13.1,42.4-31.1,56.8-52.3l66.7,23.4-40.1-80.2c6.8-24.3,8.1-50.9,3.2-77.1l64-30.6-85.2-27.9c-13.1-23-31.1-41.9-52.3-56.8l23.4-66.7-80.2,40.6c-12.6-3.2-25.2-5.4-38.8-5.9-12.6-.5-25.2.5-37.9,2.7l-30.6-64.5h0ZM256.2,95.8h5.9c17.1.9,33.8,4.1,49.6,9.9l-31.5,35.6,33.4,26.6-14.9,19.4c5.4,3.2,10.4,7.2,14.9,11.7l26.6-33.4-32.5-26.1,22.5-25.2c31.1,16.2,56.3,42.4,71.7,75.7l-47.8,2.7,5,42.4-24.3,2.3c1.4,6.3,2.3,12.6,2.3,18.5l42.4-4.5-4.5-41,33.8-2.3c.5,2.3,1.4,4.1,1.8,6.3,9,33.8,6.8,67.6-5,97.8l-36.1-32-26.6,33.4-18-14.9c-3.2,5.4-7.2,10.4-11.7,14.9l33.4,26.6,25.7-32.5,25.7,22.5c-16.2,31.1-42.4,56.3-75.7,71.2l-2.7-47.8-42.4,5-2.7-23.4c-6.3,1.4-12.6,2.3-18.5,2.3l4.5,42.4,41-4.5,2.3,34.3c-1.8.5-4.1,1.4-6.3,1.8-33.8,9-67.6,6.8-97.8-5l32-36.1-33.4-26.6,14.9-18.5c-5.4-3.2-10.4-7.2-14.4-11.7l-26.6,33.4,32.5,25.7-22.5,25.7c-30.6-16.2-56.3-42.4-71.2-75.7l47.8-2.7-5-42.4,23.4-2.7c-1.4-6.3-2.3-12.6-2.3-18.5l-42.4,5,4.5,41-33.8,2.3c-.5-1.8-1.4-4.1-1.8-6.3-9-33.8-6.8-67.6,5-97.8l35.6,31.5,26.6-33.4,18.9,14.9c3.2-5.4,7.2-10.4,11.7-14.4l-33.4-26.6-26.1,31.5-25.2-22.5c16.2-30.6,42.4-56.3,75.7-71.2l2.7,47.8,42.4-5,2.7,23.9c6.3-1.4,12.6-2.3,18.5-2.3l-5-42.4-41,4.5-2.3-33.8c2.3-.5,4.1-1.4,6.3-1.8,14.4-3.6,28.4-5.4,41.9-5.4h0ZM264.3,191.3v27.9c16.2,4.1,27.9,18.5,27.9,36.1s-12.2,32-27.9,36.1v29.7c2.7-.5,5.9-.9,8.6-1.8,34.7-9.5,55.4-45.1,46-79.8-7.2-27-29.3-45.1-54.5-48.2h0ZM245.4,191.3c-2.3.5-4.5.9-6.8,1.4-34.7,9.5-55.4,45.1-46,79.8,6.8,25.7,27.9,43.7,52.7,47.8v-30.2c-15.8-4.5-27-18.9-27-35.6s11.7-31.1,27-35.6v-27.5h0ZM255.3,236.4c-10.4,0-18,8.1-18,18s8.1,18,18,18,18-8.1,18-18c.5-9.9-7.7-18-18-18h0Z"/>
</svg>