<?xml version="1.0" encoding="UTF-8"?>
<svg id="Calque_1" data-name="Calque 1" xmlns="http://www.w3.org/2000/svg" width="512" height="512" version="1.1" viewBox="0 0 512 512">
  <defs>
    <style>
      .cls-1 {
        display: none;
        fill: #000;
      }

      .cls-1, .cls-2 {
        stroke-width: 0px;
      }

      .cls-2 {
        fill: #fff;
      }
    </style>
  </defs>
  <path class="cls-1" d="M0,0h512v512H0V0Z"/>
  <path class="cls-2" d="M35.4,76c-10.6,0-19.4,8.8-19.4,19.4v321.2c0,10.6,8.8,19.4,19.4,19.4h441.2c10.6,0,19.4-8.8,19.4-19.4V95.4c0-10.6-8.8-19.4-19.4-19.4H35.4ZM40.7,100.7h430.6v19.4H40.7v-19.4ZM40.7,135.4h224.7v276.5H40.7V135.4ZM60.1,154.2v238.2h7.6c.6-25.9,19.4-79.4,50.6-104.7,10,8.2,21.8,12.9,35.3,12.9s25.3-4.7,35.3-12.9c30.6,25.3,50,78.8,50.6,104.7h7.6v-238.2H60.1ZM297.8,169.5h156.5v19.4h-156.5v-19.4ZM153.1,180.1c22.4,0,41.8,21.8,41.8,50.6s-19.4,50-41.8,50-41.8-21.8-41.8-50.6,19.4-50,41.8-50ZM297.8,203.6h122.4v19.4h-122.4v-19.4ZM297.8,237.8h53.5v19.4h-53.5v-19.4ZM383.6,237.8h70.6v19.4h-70.6v-19.4ZM366,340.7h104.7v19.4h-104.7v-19.4ZM331.9,374.8h139.4v19.4h-139.4v-19.4Z"/>
</svg>