<?xml version="1.0" encoding="UTF-8"?>
<svg id="Calque_1" data-name="Calque 1" xmlns="http://www.w3.org/2000/svg" width="512" height="512" version="1.1" viewBox="0 0 512 512">
  <defs>
    <style>
      .cls-1 {
        display: none;
        fill: #000;
      }

      .cls-1, .cls-2 {
        stroke-width: 0px;
      }

      .cls-2 {
        fill: #fff;
      }
    </style>
  </defs>
  <path class="cls-1" d="M0,0h512v512H0V0Z"/>
  <path class="cls-2" d="M153.3,16l14.7,130.2-46.4-25.5,37.9,73c18.7-27.2,49.8-44.7,85.5-44.7,57.2,0,103.6,46.4,103.6,104.2s-13.6,58.9-35.1,77.5l68.5,29.4-26.6-60.6,138.7-15.8-127.4-44.7,82.1-53.8h-94L460.1,17.7l-130.8,107.5-2.8-73-70.2,84.9-19.2-85.5-22.6,69.1-61.1-104.7h0ZM18,141.1l48.7,54.9,72.5,26-52.1-58.3-69.1-22.6ZM140.8,254.9l-49.8,27.7,44.2,4.5-77,95.7,91.1-48.7-83.2,161.3,125.7-128.5,6.2,71.9,27.2-84.3c-47.5-9.1-83.2-49.8-84.3-99.6h0ZM297.6,342.6c-11.9,7.4-26,11.9-40.8,13.6l75.3,137-34.5-150.6h0ZM244.4,374.9h0l-11.3,60,19.2,61.1,12.5-64-20.4-57.2h0ZM376.3,388.5l34.5,48.7,52.6,12.5h0l-32.8-45.3-54.3-15.8h0Z"/>
</svg>