<?xml version="1.0" encoding="UTF-8"?>
<svg id="Calque_1" data-name="Calque 1" xmlns="http://www.w3.org/2000/svg" width="512" height="512" version="1.1" viewBox="0 0 512 512">
  <defs>
    <style>
      .cls-1 {
        display: none;
        fill: #000;
      }

      .cls-1, .cls-2 {
        stroke-width: 0px;
      }

      .cls-2 {
        fill: #fff;
      }
    </style>
  </defs>
  <path class="cls-1" d="M0,0h512v512H0V0Z"/>
  <path class="cls-2" d="M409.2,16c38.4,50.3,19.8,89.2-40.1,92,15.8-23.7,18.6-51.4-1.7-72.8,15.8,37.8-14.7,63.8-50.8,67.8-4.5-1.1-9-2.3-13.6-3.4-61-15.8-115.8,23.2-138.9,79.6-.6-35,9.6-69.5,29.9-103.3-50.8,35.6-76.8,90.4-73.4,168.3l-60.4-66.1,14.1,197.1,166.6,120.8,140-105.6,53.1-199.3-94.3,73.4c-23.7-26-13-55.9,33.9-50.8-38.4-22.6-65.5-2.3-76.8,24.8-5.6-28.2,18.6-63.8,50.8-59.3,77.9,10.2,154.2-109.6,61.6-163.2h0ZM104.9,271.2l96,74-104.5-21.5,29.4-2.8-20.9-49.7h0ZM363.5,283.7l-10.7,25.4,28.2-.6-12.4,23.7-97.7,14.7,92.6-63.2h0ZM190.7,360.5l42.9,63.2,11.3-44.6,18.1,32.8,57-49.1-7.3,24.8,52.5-21.5-55.3,62.7,9.6-30.5-76.8,72.3-48-55.9,3.4,27.7-76.2-77.9,62.1,30.5,6.8-34.4h0Z"/>
</svg>