<?xml version="1.0" encoding="UTF-8"?>
<svg id="Calque_1" data-name="Calque 1" xmlns="http://www.w3.org/2000/svg" width="512" height="512" version="1.1" viewBox="0 0 512 512">
  <defs>
    <style>
      .cls-1 {
        display: none;
        fill: #000;
      }

      .cls-1, .cls-2 {
        stroke-width: 0px;
      }

      .cls-2 {
        fill: #fff;
      }
    </style>
  </defs>
  <path class="cls-1" d="M0,0h512v512H0V0Z"/>
  <path class="cls-2" d="M67.6,16.1c-9.8,0-19.9.7-30.4,2.2,38,18.6,79.6,41,106.6,79.2-43.4-18.8-93.4-16.1-127.7,7,39.7,4.3,84.7,11.2,116.1,46.5-44.7,3.2-85.9,26.3-106.1,60.2,38.6-13.3,83.5-26.6,128-6-35.3,20.6-58.5,57.8-59.1,93.5,24.3-27.7,45.6-43.6,90.3-52.6-13.7,33-15,68.7,1.3,98.1,5.1-26.1,11.9-55.3,33.7-76.2,16.1,35.8,18.4,64.4,10.2,96h0c-1,6.3-3.1,12.3-5.9,17.9h0c-.1.4-.2.6-.4.9-10.4,21.7-40,46.4-64.4,38.3-31.2-10.3-11.2-63.6,35.5-31.6,5.4-5.3,9.8-11.3,12.6-17.6-39.5-33.5-87.9-12.5-93.6,18.5-14.9,79.8,102.3,86.4,147.7-6.1,19.6-40.3,28.4-74.2,30.3-115.8,21.3,20.9,28.1,49.8,33.1,75.6,16.4-29.5,15-65.1,1.3-98.1,44.7,9,66.2,24.9,90.3,52.6-.5-35.8-23.7-73-59.1-93.5,44.5-20.7,89.5-7.2,128,6-20.2-33.9-61.4-57-106.1-60.2,31.4-35.3,76.5-42.2,116.1-46.5-34.2-23.1-84.4-25.9-127.6-7,26.9-38.2,68.4-60.6,106.6-79.2-10.5-1.4-20.7-2.1-30.4-2.2-68.5-.2-120.3,31.8-152.5,69.4-26.8,31.2-20.4,67.8,3.3,74,32.6,8,33,39.9,5.2,69.3h0c-7.9,17.7-23.7,30.1-42.9,30.1s-31-9.7-39.7-23.9c-34-30.9-36-66.9-1.1-75.5,23.7-6.1,30-42.6,3.2-74C187.9,47.9,136.2,16,67.6,16.1h0ZM257.6,165.7c-15.2,0-29.2,15.5-29.2,37s14,37,29.2,37,29.2-15.5,29.2-37-14-37-29.2-37h0ZM374.1,338.7c-4,0-7.9.4-11.7,1.3l39.3,29.4c-19.1.9-39.8,9.4-56.9,25.7,27.5-6.6,69.5-9.9,88.4,23.9,1.1,3.9,1.6,7.8,1.6,11.6.2,13.6-6,26.8-14.7,35.6s-35.6,13.9-65.3,4.8c-29.1-8.8-62.2-28-90.3-53.7-3.9,5-8,10-12.4,14.7,30,27.4,64.8,47.7,97.1,57.4,33.1,10.1,64.9,9.9,84.5-9.6,12.3-12.3,20.7-30,20.3-49.4,0-3.2-.3-6.3-.9-9.6.6-46.4-41.6-82.3-78.9-82.2h0Z"/>
</svg>