<?xml version="1.0" encoding="UTF-8"?>
<svg id="Calque_1" data-name="Calque 1" xmlns="http://www.w3.org/2000/svg" width="512" height="512" version="1.1" viewBox="0 0 512 512">
  <defs>
    <style>
      .cls-1 {
        display: none;
        fill: #000;
      }

      .cls-1, .cls-2 {
        stroke-width: 0px;
      }

      .cls-2 {
        fill: #fff;
      }
    </style>
  </defs>
  <path class="cls-1" d="M0,0h512v512H0V0Z"/>
  <path class="cls-2" d="M255.8,16.5l-17.6,65.2c-1,2.4-1.9,5.2-1.9,8.1,0,10.9,8.6,19.5,19.5,19.5s19.5-8.6,19.5-19.5v-2.4h0c0-1.9-1-3.8-1.4-5.7l-18.1-65.2h0ZM375.6,48.8l-47.1,46.6c-6.2,3.3-10.5,10-10.5,17.1,0,10.9,8.6,19.5,19.5,19.5h1.9c7.6,5.2,15.2,11.4,21.9,18.1,58.5,58.5,58.5,153.7,0,212.6-6.7,6.7-14.3,12.8-21.9,18.1h-1.9c-10.9,0-19.5,8.6-19.5,19.5s3.8,13.3,9.5,16.7l47.6,47.1-19-71.8c6.7-4.8,12.8-10.5,19-16.2l6.7-6.7v-1c3.3-3.8,6.2-7.6,9.5-11.4l72.3,19-52.3-52.8c6.7-15.2,10.9-31.4,12.8-47.6l71.8-19.5-71.8-19.5c-1.9-16.2-6.2-31.9-12.4-47.1l51.9-52.3-71.4,18.6c-4.8-6.7-10.5-12.8-16.2-19-5.7-5.7-11.9-11.4-18.6-16.2l18.1-71.8h0ZM135.9,48.8l17.6,66.1c0,1.9.5,3.3,1.4,5.2v.5c-6.7,4.8-12.8,10-18.6,16.2-6.2,6.2-11.4,12.4-16.2,19l-71.4-18.6,51.9,52.8c-6.7,15.2-10.5,30.9-12.4,47.1l-72.3,19,71.8,19.5c1.9,16.2,6.2,32.3,12.8,47.6l-52.3,52.8,71.8-19c4.8,6.2,10,12.4,15.7,18.6,5.7,5.7,12.4,11.4,18.6,16.2-1,2.4-1.4,4.8-1.9,7.1l-17.1,64.2,49.5-49h0c3.8-3.8,6.2-8.6,6.2-14.3,0-10.9-8.6-19.5-19.5-19.5h-1.4c-7.6-5.2-15.2-11.4-21.9-18.1-58.5-58.5-58.5-153.7,0-212.6,6.7-6.7,14.3-12.8,21.9-18.1h1.4c10.9,0,19.5-8.6,19.5-19.5s-2.9-11.9-7.6-15.7l-47.6-47.6h0ZM265.3,139.7v50l34.3,19.5,47.1-25.2-81.3-44.2h0ZM246.2,140.2l-80.9,43.8,47.1,25.2,33.8-19.5v-49.5h0ZM155.9,200.1v115.6l47.1-25.2v-65.2l-47.1-25.2ZM355.7,200.1l-47.1,25.7v64.7l47.1,25.7v-116.1h0ZM255.8,206.3l-34.3,19.5v65.2l34.3,19.5,33.8-19.5v-65.6l-33.8-19h0ZM299.5,307.1l-34.3,19.5v47.6l79.4-43.3-45.2-23.8h0ZM212,307.1l-45.2,24.3,79.4,42.8v-47.6l-34.3-19.5h0ZM255.8,402.8c-10.9,0-19.5,8.6-19.5,19.5s.5,5.2,1.4,7.6l18.1,65.6,18.1-65.6c.5-1.4,1-2.9,1.4-4.3h0v-2.9c0-11.4-8.6-20-19.5-20h0Z"/>
</svg>