<?xml version="1.0" encoding="UTF-8"?>
<svg id="Calque_1" data-name="Calque 1" xmlns="http://www.w3.org/2000/svg" width="512" height="512" version="1.1" viewBox="0 0 512 512">
  <defs>
    <style>
      .cls-1 {
        display: none;
        fill: #000;
      }

      .cls-1, .cls-2 {
        stroke-width: 0px;
      }

      .cls-2 {
        fill: #fff;
      }
    </style>
  </defs>
  <path class="cls-1" d="M0,0h512v512H0V0Z"/>
  <g>
    <path class="cls-2" d="M382.4,230.6c-13.1,17.3-27.3,20.6-44,9.8-12.5-8.1-23.6-18.5-36.3-26.4-9.4-5.8-20-10.8-30.6-13.4-33.6-8.3-59.3,15.2-55.2,49.6.3,2.6.8,5.1,1.3,8.3-18-1.9-30.2,9.1-42.6,19.2-21.8,17.9-43.4,36.1-65,54.4-1.1.9-1.9,1.9-3.4,3.4,7.8,10,17.3,16.3,29.5,18.5,16.1,2.9,31.9.8,46.4-6.3,17.7-8.7,35-18.5,52.8-28.1-24.5,19.8-47.8,41-79.2,48.6-7.8,1.9-16.6.5-24.6-.9-6.7-1.2-13.1-4.3-19.6-6.8-32.9-12.7-52-7.3-73.3,20.4,12.7-32.9,39.7-52.2,68.3-71.7.2,3.3.4,5.8.7,11.1,9.3-6.9,17.3-12.2,24.6-18.3,13.9-11.7,27.2-24,41-36,16.9-14.5,29.3-32.5,40.5-51.4,21.1-35.6,51.6-60.4,90.1-74.6,22.1-8.2,45-14.3,67.5-21.3,1.6-.5,3.2-.4,5.5,1-17.3,12.4-34.5,24.9-51.8,37-8.1,5.7-17.3,7.6-27.2,4.9-12.7-3.5-23.4,1.4-32.9,8.8-2.7,2.1-5.1,6.6-4.9,9.7,0,1.9,5.5,4.6,8.7,4.9,38.2,4.9,72.8-2.7,101.6-30,22.8-21.6,45.6-43.1,69.3-65.5-4.5,6.6-8.2,12.5-12.3,18.2-4.4,6.1-8.7,12.2-13.5,18-7.6,9.1-15.9,17.5-23.2,26.8-2.8,3.6-6,11-4.4,13,4.2,4.9,11.2,8.1,17.8,4.1,8.5-5.2,16.7-11.3,24.5-17.5,4.9-3.9,8.9-8.9,14.1-12.8-10.5,15.6-22.1,29.9-37.7,40.8-12,8.3-25.7,7.6-39.2,7.2-10.3-.3-24.4,7.5-27.8,16.8-1.3,3.4-.5,8.9,1.6,11.8,11.7,16.3,22.6,19.9,43,14.5Z"/>
    <path class="cls-2" d="M210.4,151.8c-20.2,16.6-39.5,33.6-54.4,55.3-1.6,2.4-3,4.9-4.7,7.3-4,6.1-1.6,10.2,4.7,11.5,8.4,1.8,17.1,2.5,25.6,3.8,3.4.5,6.7,1,11.9,1.6-7.2,17.4-21.6,26.9-34.1,41,.8-8.3,11.7-12.2,3.7-20.8-5.5,4.7-11,9.4-16.6,14.1-1.6-7.8,3.7-18.2,11.1-21.8,5.5-2.6,8.1-1.6,14.1,5.9,5.7-7,4.7-10.8-3.4-13.5-21-7.1-35-3.4-49.5,13.3-9.9,11.3-17.3,24.2-19.3,39.1-1.8,13.9-7.7,23.6-20.9,29.6.2-1.9.2-4,.6-6,6.3-30.3,20.6-56.8,40.1-80.4,24.7-29.9,52.5-56.6,85.7-77.2,1.6-1,3.5-1.7,5.3-2.6Z"/>
    <path class="cls-2" d="M229.4,229.4c.6,6.6,1.2,13.2,1.7,19.8,3.2-12.8,7-24.1,21.2-28.3-13.9,12.6-13.6,27.5-6.2,42.5,9.1,18.6,22.2,33.5,45.2,33.4,24.1,0,37.6-14.3,44.6-37.4,4.2,26.7-16.4,49.3-44.2,50.5-30.8,1.3-64.8-28.6-66.9-59.5-.5-7,1.6-14.1,2.5-21.3.7,0,1.4.2,2,.3Z"/>
    <path class="cls-2" d="M53,385.6c13.2-8.1,27.2-8.4,40.7-3.3,13.3,5.1,26,12.2,38.5,19.3,11.4,6.5,11.4,6.9,22.7-1.6,31.1-23.3,62.2-46.4,94.3-68.4-12.4,10.9-24.9,21.6-37.3,32.5-21.7,18.9-43.6,37.6-65.1,56.7-4.7,4.2-7.4,4.8-12.7.3-11.5-9.9-23.5-19.4-36.3-27.5-13.6-8.5-28.6-12.3-44.7-7.9Z"/>
    <path class="cls-2" d="M315.8,97.6c20.4-5.7,38.6-10.8,56.8-15.8.2.7.4,1.4.5,1.9-15.9,6.5-32.3,12-47.6,19.7-15.3,7.8-29.6,17.6-43.9,26.4,36.1-49.3,83.5-77.8,145.9-78.8.3.8.7,1.5,1,2.2-12.7,2.8-25.7,4.8-38.1,8.6-12.9,3.9-25.7,8.5-37.9,14.4-12.2,5.8-23.5,13.5-36.6,21.3Z"/>
    <path class="cls-2" d="M47.2,413.9c3.1-5.9,6.1-11.6,9-17.3.8.4,1.5.8,2.2,1.2-3.2,21.3,6.7,37.7,29.5,48.6,17.8,8.5,28.7,6.3,42.6-9.1.3,9.1-5.3,16.8-15.5,20.8-11,4.5-22.1,3.4-32.9-.9-17.3-6.9-30.3-18.8-37.9-35.9-2.6-5.9-2.7-12.9-4-19.4.8-.2,1.6-.3,2.4-.5,1.6,4.4,3.1,8.7,4.5,12.4Z"/>
    <path class="cls-2" d="M79.4,290.1c-11.4,13.9-22.8,27.8-34.2,41.7.4.9.9,1.7,1.3,2.7,6-1.4,11.9-2.7,20.4-4.7-13.7,11-20.8,26.7-38.4,29.5-4,.6-8.2,0-12.4,0,1.5-4.1,2.1-8.8,4.7-12.1,4.8-6.4,10.7-12.1,16.3-17.8,13.5-13.8,27-27.4,40.6-41.2.6.7,1.3,1.4,1.8,2Z"/>
    <path class="cls-2" d="M455.5,54.6c9.4,11.3,21,19.2,34.9,23.8,6.5,2.1,6.7,8.1,4,13-7.8,14.1-15.7,28-24.6,41.3-4.6,6.8-11.4,11.9-17.8,17.5,4.9-7.1,10.5-13.9,14.7-21.2,7-11.9,13.2-24.2,19.6-36.4,2.7-5.1,1.6-8.1-4.3-10.4-12.8-5-21.6-14.4-26.5-27.6Z"/>
  </g>
</svg>