<?xml version="1.0" encoding="UTF-8" standalone="no"?>
<!-- Created with Inkscape (http://www.inkscape.org/) -->

<svg
   width="512"
   height="512"
   viewBox="0 0 512 512"
   version="1.1"
   id="svg1"
   xml:space="preserve"
   xmlns="http://www.w3.org/2000/svg"
   xmlns:svg="http://www.w3.org/2000/svg"><defs
     id="defs1" /><path
     style="fill:none;stroke:#ffffff;stroke-width:26.8;stroke-linecap:round;stroke-dasharray:none"
     d="m 229.66922,226.98303 c 1.6913,8.90422 3.38261,17.80844 1.61663,26.663 -1.76597,8.85457 -6.98901,17.65913 -9.52596,22.03662 -2.53694,4.37749 -2.38773,4.32775 -2.2385,4.27801"
     id="path26" /><path
     style="fill:#000000"
     d="m 343.34158,458.17335 c -6.55303,-2.85043 -8.54299,-11.24391 -4.54001,-19.14941 2.97231,-5.87002 3.41763,-9.39876 1.8454,-14.62289 -0.78136,-2.59624 -8.3296,-20.58109 -16.77387,-39.96633 -14.38554,-33.02443 -15.65788,-35.53128 -20.18711,-39.77406 -6.88332,-6.44798 -7.99224,-9.04213 -8.134,-19.02818 -0.11251,-7.92516 -0.43442,-9.15938 -4.76002,-18.25 l -4.63935,-9.75 h -56.94253 c -51.89738,0 -57.33023,-0.15505 -61.31826,-1.75 -3.98047,-1.59193 -10.83424,-1.79517 -75.875726,-2.25 l -71.5,-0.5 -3.758848,-2.33703 c -2.067366,-1.28536 -4.992366,-4.43536 -6.5,-7 l -2.7411523,-4.66297 -0.304834,-81 c -0.210659,-55.97619 0.02927,-82.14459 0.77664,-84.70494 2.3054393,-7.89802 8.9590953,-12.79506 17.3847843,-12.79506 4.253498,0 4.445472,-0.13136 5.07191,-3.470565 0.887039,-4.728321 4.939673,-9.259731 9.385776,-10.494599 6.126898,-1.701696 28.469322,-1.305287 33.203905,0.589118 4.489516,1.796348 6.981819,5.482563 6.981819,10.326391 v 3.049655 h 168.499996 168.5 l 0.004,-2.749995 c 0.005,-4.045958 3.55119,-9.166093 7.48604,-10.810178 3.60323,-1.505527 22.29416,-2.033036 28.44532,-0.802805 4.43487,0.886975 8.93319,5.687107 9.67462,10.323736 0.59388,3.713932 0.7252,3.816962 5.44258,4.270242 2.65871,0.25547 5.9374,1.18745 7.28599,2.07108 2.64668,1.73417 2.5043,1.39302 16.3594,39.19792 l 8.79575,24 0.31065,19.64987 0.31064,19.64987 -3.04777,3.47122 c -3.57348,4.06997 -12.22027,8.78977 -27.74286,15.14329 -17.39662,7.12058 -20.22183,7.5541 -49.3397,7.57097 -28.97033,0.0168 -30.02445,0.25143 -35.43832,7.88881 -2.33697,3.2968 -3.03825,5.4916 -3.35772,10.5088 -0.67624,10.62008 4.97791,20.02952 15.05253,25.04992 4.26682,2.12624 6.55476,2.56725 13.31897,2.56725 16.13923,0 26.83866,3.84538 37.07914,13.32626 8.53322,7.90025 8.61634,8.06893 36.99634,75.07405 9.01002,21.27263 14.76097,36.2116 15.43901,40.10523 2.85809,16.41236 -6.06517,32.93139 -22.03919,40.79966 l -6.48603,3.1948 -44.52457,0.58653 -44.52456,0.58654 -13.83335,4.16346 c -14.56021,4.38223 -20.11977,4.97553 -25.34117,2.70434 z m 23.74047,-15.21809 15.43405,-4.67723 43.5,-0.57277 c 42.20647,-0.55575 43.62098,-0.63753 47.56822,-2.75036 5.40992,-2.89576 10.74116,-8.94719 12.92872,-14.67524 3.41747,-8.9485 2.56995,-11.74685 -18.51916,-61.14718 -22.57926,-52.89095 -22.80169,-53.35283 -28.26203,-58.68717 -7.05941,-6.89651 -13.09554,-9.03566 -27.80626,-9.85427 -10.65876,-0.59313 -13.59958,-1.12788 -18.47329,-3.35914 -7.63592,-3.49584 -13.41821,-8.3459 -17.67037,-14.82151 -8.16577,-12.43567 -8.84882,-23.96831 -2.31152,-39.02791 0.7179,-1.65378 -2.05643,-1.75 -50.45573,-1.75 h -51.21539 l 0.57292,2.28272 c 0.31511,1.25549 8.45857,20.04299 18.09658,41.75 l 17.52366,39.46728 0.0118,8.65688 0.0118,8.65688 4.80113,4.01974 c 2.64062,2.21085 5.96492,6.19025 7.38733,8.84311 1.42241,2.65287 9.4994,20.79839 17.94887,40.32339 15.29577,35.3454 15.36267,35.53266 15.36267,43 0,5.84273 -0.49718,8.44592 -2.25,11.78079 -2.54995,4.85147 -2.85629,7.21921 -0.93405,7.21921 0.72378,0 8.26128,-2.10475 16.75,-4.67722 z M 281.01506,285.38248 c -5.8e-4,-0.1375 -5.356,-12.175 -11.90095,-26.75 l -11.89989,-26.5 -9.18701,-0.28869 -9.18701,-0.28869 0.83795,3.28869 c 0.46087,1.80878 0.82085,8.01369 0.79996,13.78869 -0.0351,9.71123 -0.27664,10.99349 -3.21481,17.06923 -4.35674,9.00915 -10.55277,15.93077 -14.26076,15.93077 -3.48356,0 -5.98644,-2.32819 -5.98644,-5.56862 0,-1.33417 2.02801,-5.18062 4.50669,-8.54766 7.58054,-10.29744 9.25905,-20.95971 4.97994,-31.63372 l -1.70379,-4.25 h -33.46933 -33.46934 l 0.32792,18.75 c 0.32219,18.42286 0.37636,18.83241 3.10449,23.47342 2.89893,4.93156 9.12453,9.40464 15.0554,10.81728 2.78075,0.66233 104.66967,1.3528 104.66698,0.7093 z m -132.5558,-7 c -0.38039,-1.2375 -0.78909,-2.36588 -0.90823,-2.50752 -0.11914,-0.14163 -28.66407,-0.14163 -63.43317,0 l -63.216548,0.25752 2.096351,2.25 2.096351,2.25 h 62.028433 62.028433 z m -2.44316,-17.75751 v -3.00752 l -62.749996,0.25752 -62.75,0.25751 -0.316423,2.75 -0.316422,2.75 H 82.949681 146.0161 Z m 0,-17.49249 v -2.5 h -62.999996 -63 v 2.5 2.5 h 63 62.999996 z m 0,-17.5 v -3 h -62.999996 -63 v 3 3 h 63 62.999996 z m 297,-6.48393 c 9.7823,-0.77227 42.72174,-14.2591 44.93755,-18.39937 0.70603,-1.31923 1.01968,-6.65974 0.8433,-14.35859 l -0.28085,-12.25811 -39,-0.5 c -27.16207,-0.34823 -39.61909,-0.85592 -41.03958,-1.67257 -2.84712,-1.63684 -3.30583,-2.65771 -14.30099,-31.82743 l -9.80037,-26 -21.92953,-0.25172 -21.92953,-0.25171 -14,27.09411 c -9.5277,18.43891 -15.04933,28.02295 -17.28479,30.00172 l -3.2848,2.9076 h -98.15378 -98.15379 l -18.389519,-18.25 c -10.114238,-10.0375 -19.366877,-19.59907 -20.56142,-21.24793 -1.686436,-2.32783 -2.283657,-4.89831 -2.671897,-11.5 l -0.5,-8.50207 -10.75,-0.28383 -10.75,-0.28384 v 26.51806 26.51806 l -2.914067,3.26577 c -2.8391,3.18176 -3.167102,3.27864 -12.75,3.76578 l -9.835933,0.5 -0.273075,17.75 -0.273074,17.75 h 52.023074 c 49.899701,0 52.023071,-0.0753 52.023071,-1.84501 0,-3.56835 3.55014,-5.42649 11.32048,-5.92516 6.96939,-0.44727 7.38524,-0.61183 8.41058,-3.32828 2.30019,-6.09391 10.24068,-6.08598 12.54261,0.0125 l 1.08341,2.87027 25.57146,0.46847 c 14.0643,0.25766 45.81392,0.53971 70.5547,0.62678 34.15137,0.12018 45.26243,0.45474 46.14268,1.38935 2.33653,2.48085 2.45237,5.36181 0.32435,8.06714 l -2.08476,2.65035 -69.68276,0.25678 -69.68275,0.25678 -0.30847,2.16541 c -0.20168,1.41585 0.31755,2.33001 1.5,2.64089 2.21116,0.58135 275.59391,-0.1812 283.30847,-0.79023 z m -122,-21.51607 c -3.30275,-3.30275 -2.45702,-6.64398 4.15357,-16.40956 8.02712,-11.85817 9.66242,-13.59044 12.82962,-13.59044 3.72232,0 4.95197,1.23861 12.40191,12.49236 7.09683,10.72036 7.99495,14.12759 4.6149,17.50764 -1.82222,1.82222 -3.33333,2 -17,2 -13.66666,0 -15.17778,-0.17778 -17,-2 z m 19.89193,-12.25 c -1.23434,-1.7875 -2.32723,-3.37475 -2.42864,-3.52722 -0.10142,-0.15247 -1.39504,1.31003 -2.87473,3.25 l -2.69034,3.52722 h 5.11898 5.11899 z m 6.37065,-25.86552 c -5.08034,-1.46748 -6.26258,-4.91421 -6.26258,-18.2581 0,-10.88389 0.13292,-11.6309 2.5889,-14.54966 l 2.58889,-3.07672 h 13.32221 13.32221 l 2.5889,3.07672 c 2.47842,2.94544 2.58889,3.60211 2.58889,15.38922 0,14.97354 -0.75439,16.4362 -9.0875,17.61949 -7.30784,1.0377 -17.69557,0.94128 -21.64992,-0.20095 z m 18.23742,-17.88448 v -5.5 l -5.75,-0.29991 -5.75,-0.2999 v 6.09981 6.09981 l 5.75,-0.29991 5.75,-0.2999 z m -331.499996,11.5 v -8.5 h -7 -7 v 8.5 8.5 h 7 7 z m 267.464606,6.1263 c 2.05715,-2.05715 7.53539,-11.57582 7.53539,-13.09306 0,-0.29328 -46.8,-0.53324 -104,-0.53324 -57.2,0 -104,0.37395 -104,0.831 0,0.45705 3.32704,4.05705 7.39342,8 l 7.39342,7.169 h 91.65204 91.65203 z m 120.53539,1.96341 c 0,-0.44825 -11.50821,-32.58111 -14.98466,-41.83971 -2.05088,-5.46195 -2.33078,-5.75 -5.58719,-5.75 -1.88548,0 -3.42815,0.29366 -3.42815,0.65258 0,0.35892 3.89314,11.15892 8.65143,24 l 8.65142,23.34742 h 3.34858 c 1.84171,0 3.34857,-0.18463 3.34857,-0.41029 z m 11.48862,-22.50337 c -4.54512,-12.60251 -8.56599,-23.40251 -8.93525,-24 -0.617,-0.99832 -6.55337,-1.61179 -6.55337,-0.67723 0,0.22501 3.825,10.89352 8.5,23.7078 4.675,12.81427 8.5,23.43017 8.5,23.59088 0,0.16072 1.51931,0.29221 3.37624,0.29221 h 3.37624 z m 27.46449,22.16366 c -0.0258,-0.4125 -3.75959,-11.1 -8.29735,-23.75 l -8.25046,-23 -3.68005,-0.30902 -3.68005,-0.30902 2.34773,6.30902 c 1.29126,3.46996 5.17455,14.29652 8.62954,24.05902 l 6.28181,17.75 h 3.34786 c 1.84132,0 3.32676,-0.3375 3.30097,-0.75 z m 24.0224,0 c -0.0135,-0.4125 -3.77894,-11.1 -8.36772,-23.75 l -8.34322,-23 -5.58925,-0.29862 -5.58925,-0.29862 2.35399,6.79862 c 3.4615,9.9973 13.25254,37.51958 14.0694,39.54862 0.54882,1.36325 1.89638,1.75 6.09753,1.75 2.96616,0 5.38199,-0.3375 5.36852,-0.75 z m -451.18798,-37.5 -0.287526,-9.25 -5.331176,-0.30508 c -7.511724,-0.42985 -8.168824,0.40894 -8.168824,10.42752 v 8.37756 h 7.037526 7.037525 z m 284.02012,0.83557 c 1.75579,-3.52794 3.19235,-6.67794 3.19235,-7 0,-0.32207 -53.55,-0.58557 -119,-0.58557 H 83.016104 v 3.56574 c 0,4.52577 1.336102,7.00916 4.775141,8.87546 2.357312,1.27926 17.839925,1.48412 114.782505,1.51876 l 112.05764,0.04 z M 67.766104,99.382485 c -0.302035,-0.90611 -3.672223,-1.25 -12.25,-1.25 -8.577778,0 -11.947966,0.34389 -12.25,1.25 -0.318714,0.956135 2.561111,1.249995 12.25,1.249995 9.688889,0 12.568713,-0.29386 12.25,-1.249995 z m 383.644266,-0.16493 c -1.02153,-2.662075 -22.39427,-2.651156 -22.39427,0.0114 0,1.123055 2.29147,1.403485 11.46862,1.403485 9.47701,0 11.37432,-0.24572 10.92565,-1.414925 z"
     id="path3" /><path
     style="fill:#ffffff;stroke:none;stroke-width:2.82803;stroke-linecap:round;stroke-dasharray:none"
     d="m 20.051479,127.28772 c 0.0034,-8.74887 0.234957,-10.86883 1.326732,-12.14432 0.876487,-1.02398 1.915665,-1.32175 4.580569,-1.31255 1.692015,0.006 7.379049,0.3028 7.466107,0.38986 0.02903,0.029 0.362599,10.03849 0.57613,17.28818 l 0.03031,1.02909 -6.990931,-2.3e-4 -6.990932,-2.4e-4 z"
     id="path5" /><path
     style="fill:#ffffff;stroke:none;stroke-width:2.82803;stroke-linecap:round;stroke-dasharray:none"
     d="m 20.049464,153.11459 v -8.44188 h 6.964551 6.964551 v 8.44188 8.44188 h -6.964551 -6.964551 z"
     id="path6" /><path
     style="fill:#ffffff;stroke:none;stroke-width:2.82803;stroke-linecap:round;stroke-dasharray:none"
     d="m 48.540808,100.49929 c -2.987956,-0.13018 -4.722581,-0.39506 -5.111234,-0.780488 -0.202173,-0.200497 -0.202173,-0.205186 0,-0.432032 0.604326,-0.678078 2.399796,-0.909319 8.094626,-1.042517 6.936011,-0.162228 13.615101,0.09228 15.251606,0.581176 0.524033,0.15655 0.970278,0.463255 0.970278,0.666872 0,0.364059 -1.008333,0.683039 -2.743611,0.867929 -1.02797,0.10953 -14.522939,0.22352 -16.461665,0.13906 z"
     id="path7" /><path
     style="fill:#ffffff;stroke:none;stroke-width:2.82803;stroke-linecap:round;stroke-dasharray:none"
     d="m 20.05108,208.33731 c 0.0042,-3.22509 0.52616,-34.04783 0.57747,-34.09914 0.03207,-0.0321 3.060818,-0.2123 6.730545,-0.40051 9.272079,-0.47554 10.701875,-0.60899 12.234166,-1.14187 1.35858,-0.47247 2.087856,-1.11406 5.031143,-4.42622 l 1.489364,-1.67603 V 140.12117 113.6488 h 0.677559 c 1.613827,0 20.579084,0.53887 20.626278,0.58606 0.02871,0.0287 0.135545,1.48748 0.23742,3.24173 0.468859,8.07357 0.647637,10.06543 1.091325,12.15902 0.515905,2.43437 1.238679,3.85752 2.920766,5.75103 3.050877,3.43436 10.663095,11.18724 24.51755,24.9706 l 13.401484,13.33271 55.00412,8.6e-4 55.00412,8.6e-4 v 14.30719 14.30718 l -2.6117,-0.0608 c -1.43644,-0.0334 -5.91196,-0.0861 -9.94559,-0.11699 -14.29391,-0.10958 -49.35262,-0.69176 -49.56508,-0.82307 -0.0562,-0.0348 -0.40257,-0.85437 -0.76963,-1.82136 -0.77376,-2.03843 -1.34167,-2.98421 -2.32777,-3.87658 -1.21058,-1.09551 -2.68905,-1.65508 -4.37297,-1.65508 -1.85057,0 -3.30141,0.60377 -4.60934,1.91815 -0.82204,0.8261 -1.0662,1.23569 -2.0651,3.46426 -0.78511,1.75159 -1.67329,2.04656 -7.30742,2.42683 -3.56632,0.2407 -5.82469,0.59988 -7.70322,1.22515 -2.76673,0.9209 -4.0844,2.24397 -4.31223,4.32988 -0.0516,0.47285 -0.1227,0.90632 -0.15789,0.96326 -0.23368,0.3781 -1.62441,0.69259 -3.81347,0.86235 -4.10178,0.31809 -8.20692,0.3483 -53.685082,0.39507 l -46.298434,0.0476 z"
     id="path8" /><path
     style="fill:#ffffff;stroke:none;stroke-width:2.82803;stroke-linecap:round;stroke-dasharray:none"
     d="m 132.16818,130.41898 c -30.4057,-0.13926 -41.249809,-0.43502 -43.77098,-1.19378 -1.241951,-0.37377 -3.037738,-1.80794 -3.885093,-3.10275 -1.086119,-1.65966 -1.355251,-2.90603 -1.434538,-6.64347 l -0.05876,-2.76999 h 68.287791 68.28779 v 6.91179 6.91178 l -35.27122,-0.0181 c -19.39918,-0.01 -42.86892,-0.0529 -52.15499,-0.0955 z"
     id="path9" /><path
     style="fill:#ffffff;stroke:none;stroke-width:7.99888;stroke-linecap:round;stroke-dasharray:none"
     d="m 108.65308,154.36717 c -3.94614,-3.90647 -7.1748,-7.24439 -7.1748,-7.4176 0,-0.181 1.11064,-0.40391 2.61157,-0.52415 7.92093,-0.63456 181.91397,-0.82437 199.3798,-0.21751 l 5.45182,0.18943 -1.06654,2.22383 c -1.87886,3.91761 -4.94289,8.69126 -6.932,10.79981 l -1.93279,2.04886 h -91.58112 -91.58113 z"
     id="path10" /><path
     style="fill:#ffffff;stroke:none;stroke-width:7.99888;stroke-linecap:round;stroke-dasharray:none"
     d="m 20.295655,225.63993 v -2.98465 h 62.826991 62.826994 v 2.98465 2.98466 H 83.122646 20.295655 Z"
     id="path11" /><path
     style="fill:#ffffff;stroke:none;stroke-width:7.99888;stroke-linecap:round;stroke-dasharray:none"
     d="m 20.295655,243.2494 v -2.38773 h 62.826991 62.826994 v 2.38773 2.38772 H 83.122646 20.295655 Z"
     id="path12" /><path
     style="fill:#ffffff;stroke:none;stroke-width:7.99888;stroke-linecap:round;stroke-dasharray:none"
     d="m 20.107006,262.72427 c 0.08649,-0.45143 0.242078,-1.63802 0.345762,-2.63687 l 0.188516,-1.8161 45.417793,-0.19844 c 24.979785,-0.10914 53.174163,-0.19849 62.654173,-0.19855 l 17.23639,-10e-5 v 2.83542 2.83542 H 82.949698 19.94976 Z"
     id="path13" /><path
     style="fill:#ffffff;stroke:none;stroke-width:7.99888;stroke-linecap:round;stroke-dasharray:none"
     d="m 23.366182,278.49974 -1.854153,-2.05206 9.912722,-0.17897 c 12.89599,-0.23283 108.614899,-0.39813 112.855959,-0.19489 l 3.25576,0.15602 0.50601,1.49232 c 0.27831,0.82078 0.60187,1.79453 0.71903,2.16388 l 0.21301,0.67155 -61.877092,-0.003 -61.877092,-0.003 z"
     id="path14" /><path
     style="fill:#ffffff;stroke:none;stroke-width:7.99888;stroke-linecap:round;stroke-dasharray:none"
     d="m 159.67905,219.70286 c -1.01746,-0.28188 -1.46742,-1.38083 -1.23523,-3.01689 l 0.1906,-1.3431 34.77123,-0.18095 c 19.12418,-0.0995 50.44449,-0.20025 69.60069,-0.22385 l 34.82945,-0.0429 1.37725,-1.69071 c 1.58708,-1.94832 2.07537,-2.83235 2.34436,-4.2444 0.37339,-1.96012 -0.9,-4.85691 -2.38286,-5.4207 -1.6982,-0.64565 -12.86578,-0.89971 -51.29893,-1.167 -43.09455,-0.29972 -84.82764,-0.81147 -88.3548,-1.08344 l -2.09827,-0.16179 -0.67761,-1.7475 c -1.43847,-3.70971 -3.61837,-5.46909 -6.74148,-5.44103 -2.90056,0.0261 -4.92335,1.44899 -6.39259,4.49685 -1.2145,2.51943 -1.56644,2.67829 -7.0706,3.19156 -5.98491,0.55809 -7.45115,0.85361 -9.62509,1.93995 -1.85604,0.92747 -3.05198,2.47634 -3.05198,3.95263 0,0.57712 -0.22454,0.83121 -0.97001,1.09768 -1.88522,0.67388 -15.77642,0.88413 -59.116686,0.89477 l -43.820328,0.0107 0.163576,-2.3131 c 0.08997,-1.27221 0.245613,-9.1629 0.34588,-17.53485 0.100267,-8.37196 0.215974,-15.25633 0.257127,-15.2986 0.04115,-0.0423 3.621825,-0.27814 7.95705,-0.52417 11.684668,-0.6631 11.574484,-0.62896 15.310645,-4.74427 l 2.271711,-2.50224 v -26.47187 -26.47187 l 6.342392,0.18155 c 3.488316,0.0999 8.241024,0.2594 10.561573,0.35456 l 4.21918,0.17303 0.19596,3.47763 c 0.550496,9.76944 1.080816,13.14391 2.431145,15.4696 1.023188,1.76225 4.884389,5.78312 23.236072,24.19699 l 16.137083,16.19175 h 98.4584 98.45841 l 2.44351,-2.46234 c 4.09846,-4.13004 7.24742,-9.71335 26.3444,-46.71038 l 5.58498,-10.81991 12.24866,0.1571 c 6.73676,0.0864 16.55529,0.2359 21.819,0.33221 l 9.57032,0.17511 0.84329,2.27989 c 2.89547,7.82821 15.99145,42.31864 17.24146,45.40817 2.85929,7.06716 4.28309,9.36869 6.25703,10.11426 2.09881,0.79275 17.49258,1.28203 57.3742,1.8236 12.13397,0.16478 22.14002,0.37781 22.23568,0.47341 0.3304,0.33022 0.39287,21.76299 0.0696,23.88322 -0.28691,1.88167 -0.42588,2.16078 -1.61941,3.25219 -4.2874,3.92059 -26.5409,13.35942 -38.77494,16.4464 -2.85945,0.72152 -3.77454,0.79435 -12.92666,1.02887 -23.96699,0.61414 -273.32679,1.17034 -275.33444,0.61413 z M 353.22988,198.9841 c 2.63348,-1.17979 3.86074,-3.20167 3.67871,-6.06051 -0.16747,-2.62994 -2.18408,-6.55525 -7.39422,-14.39269 -6.26977,-9.43146 -8.36703,-11.36856 -11.93716,-11.02552 -3.00292,0.28854 -4.91017,2.33231 -11.93098,12.78504 -4.88749,7.27657 -6.3001,10.02024 -6.51084,12.64576 -0.28011,3.48967 1.73492,5.88236 5.43431,6.45277 0.82714,0.12753 7.34634,0.20855 14.48713,0.18003 11.75235,-0.0469 13.09604,-0.10239 14.17305,-0.58488 z m 15.77945,-39.13485 c 3.9904,-0.62878 5.07246,-0.99154 6.43414,-2.15707 1.46801,-1.25658 2.03796,-2.87397 2.45509,-6.96709 0.42973,-4.21698 0.16977,-19.43981 -0.35831,-20.98055 -0.21349,-0.62292 -1.28023,-2.23463 -2.37053,-3.58158 l -1.98235,-2.449 -13.60784,-0.0776 -13.60782,-0.0776 -1.68842,2.01763 c -2.30013,2.74862 -2.81015,3.85035 -3.1849,6.87996 -0.38854,3.14094 -0.1521,16.95291 0.33792,19.74151 0.94665,5.38715 3.15198,7.33626 9.11144,8.05293 3.40006,0.40887 14.9068,0.15862 18.46158,-0.40152 z"
     id="path16" /><path
     style="fill:#ffffff;stroke:none;stroke-width:7.99888;stroke-linecap:round;stroke-dasharray:none"
     d="m 108.79068,130.10904 c -19.427574,-0.29763 -20.955724,-0.49494 -23.321512,-3.01119 -1.734584,-1.84491 -2.017347,-2.73969 -2.144688,-6.78668 l -0.116462,-3.70126 113.523442,0.19339 c 62.4379,0.10635 115.89264,0.27996 118.78831,0.38579 l 5.26487,0.19241 -0.40741,0.97508 c -0.22408,0.53629 -1.60983,3.47208 -3.07946,6.52396 l -2.67204,5.54889 -95.75435,-0.0504 c -52.6649,-0.0278 -102.20121,-0.14923 -110.0807,-0.26994 z"
     id="path17" /><path
     style="fill:#ffffff;stroke:none;stroke-width:7.99888;stroke-linecap:round;stroke-dasharray:none"
     d="m 354.27857,141.63608 v -5.89843 l 5.29776,0.21613 c 2.91377,0.11887 5.3985,0.27554 5.52161,0.34816 0.12312,0.0726 0.22385,2.54167 0.22385,5.4868 v 5.35476 h -1.44513 c -0.79483,0 -3.27955,0.088 -5.52162,0.1955 l -4.07647,0.19551 z"
     id="path18" /><path
     style="fill:#ffffff;stroke:none;stroke-width:2.82803;stroke-linecap:round;stroke-dasharray:none"
     d="m 333.13768,188.51068 c 0,-0.24054 4.9185,-6.40443 5.19372,-6.50881 0.0846,-0.0321 0.96453,1.15172 2.35121,3.16322 1.21879,1.76797 2.23182,3.25745 2.25116,3.30995 0.0207,0.056 -1.99359,0.0954 -4.88046,0.0954 -2.7036,0 -4.91563,-0.0269 -4.91563,-0.0598 z"
     id="path19" /><path
     style="fill:#ffffff;stroke:none;stroke-width:5.65606;stroke-linecap:round;stroke-dasharray:none"
     d="m 415.17683,160.88538 c -0.1184,-0.32736 -2.60862,-7.05323 -5.53382,-14.94639 -5.3208,-14.35724 -9.77812,-26.54319 -10.90094,-29.80226 -0.46784,-1.35795 -0.54167,-1.78841 -0.34113,-1.98894 0.15712,-0.15713 1.13389,-0.28768 2.53013,-0.33817 1.89388,-0.0685 2.39774,-0.0182 3.01287,0.30057 1.29761,0.67247 1.68593,1.61412 8.87105,21.51197 5.68709,15.74932 9.08423,25.46075 8.95263,25.59295 -0.0713,0.0717 -1.53502,0.16072 -3.25262,0.19788 l -3.12291,0.0676 z"
     id="path20" /><path
     style="fill:#ffffff;stroke:none;stroke-width:5.65606;stroke-linecap:round;stroke-dasharray:none"
     d="m 435.21394,161.1766 c -0.12523,-0.15089 -0.74496,-1.74166 -1.37717,-3.53504 -0.63221,-1.79338 -4.0938,-11.38072 -7.69241,-21.3052 -7.68869,-21.20434 -8.07089,-22.29002 -7.90522,-22.45569 0.20191,-0.20191 3.0263,-0.13598 4.06589,0.0949 2.17958,0.48408 1.99889,0.2586 3.62797,4.52732 2.25045,5.89692 15.57731,42.56466 15.57731,42.85968 0,0.0486 -1.36546,0.0884 -3.03434,0.0884 -2.23217,0 -3.09454,-0.0725 -3.26203,-0.27435 z"
     id="path21" /><path
     style="fill:#ffffff;stroke:none;stroke-width:5.65606;stroke-linecap:round;stroke-dasharray:none"
     d="m 454.27761,161.18714 c -0.0513,-0.1451 -1.65394,-4.67997 -3.56137,-10.07749 -5.4134,-15.31847 -8.76831,-24.69688 -11.19381,-31.29156 -1.22819,-3.33929 -2.23306,-6.0953 -2.23306,-6.12447 0,-0.11584 6.86847,0.53342 7.00149,0.66183 0.22346,0.21574 12.59723,34.8081 15.16428,42.39355 l 1.44421,4.26755 -0.77779,0.21602 c -1.15655,0.32122 -5.72682,0.28569 -5.84395,-0.0454 z"
     id="path22" /><path
     style="fill:#ffffff;stroke:none;stroke-width:5.65606;stroke-linecap:round;stroke-dasharray:none"
     d="m 475.2259,161.11354 c -0.56057,-0.17238 -1.13293,-0.51441 -1.29981,-0.77673 -0.66815,-1.05026 -16.69647,-46.33257 -16.47756,-46.55148 0.15362,-0.15362 10.51769,0.39528 10.69314,0.56633 0.23319,0.22734 12.92572,35.33933 15.81818,43.75865 0.5053,1.47082 0.85169,2.74125 0.76975,2.82318 -0.5706,0.5706 -7.78895,0.70735 -9.5037,0.18005 z"
     id="path23" /><path
     style="fill:#ffffff;stroke:none;stroke-width:5.65606;stroke-linecap:round;stroke-dasharray:none"
     d="m 431.41177,100.23105 c -1.46133,-0.18953 -2.40351,-0.662394 -2.2285,-1.11846 0.13588,-0.354094 1.34048,-0.896848 2.61887,-1.179985 2.24695,-0.497648 7.96386,-0.72429 11.67973,-0.463033 4.94047,0.347355 7.46913,0.932149 7.804,1.804801 0.18506,0.482253 -0.34648,0.773377 -1.79429,0.982717 -1.63201,0.23598 -16.22149,0.21496 -18.07981,-0.026 z"
     id="path24" /><path
     style="fill:#ffffff;stroke:none;stroke-width:7.99888;stroke-linecap:round;stroke-dasharray:none"
     d="m 349.37344,446.8645 c -0.28646,-0.90258 0.0345,-1.96545 1.64098,-5.434 1.98806,-4.29242 2.38107,-5.97722 2.57602,-11.04322 0.27639,-7.18215 -0.42063,-9.87618 -5.99377,-23.16639 -6.43309,-15.3409 -22.07732,-51.08279 -25.98594,-59.36927 -2.4492,-5.19244 -5.28461,-8.71131 -10.68428,-13.25971 l -2.91004,-2.45126 v -8.69913 -8.69913 l -10.34006,-23.28556 c -18.33177,-41.28269 -25.00314,-56.67553 -25.3386,-58.46368 l -0.20799,-1.10866 49.50606,0.0976 c 38.79104,0.0764 49.7483,0.17889 50.6253,0.47334 0.61558,0.20667 1.11924,0.41255 1.11924,0.4575 0,0.045 -0.55333,1.54963 -1.22962,3.34371 -4.47581,11.8736 -4.27589,21.29449 0.66334,31.25869 4.15791,8.38801 10.60603,14.90549 18.84545,19.0482 5.27412,2.65177 9.1662,3.48305 19.32749,4.12799 16.44118,1.04352 21.98421,3.08315 29.41501,10.82364 3.10347,3.23281 4.63887,5.70641 7.92329,12.76478 5.21758,11.21277 28.89277,66.60222 33.61748,78.64995 4.9453,12.61024 6.40317,18.29536 5.74618,22.40789 -1.22282,7.65455 -7.56109,16.08485 -14.899,19.8166 -0.72737,0.36991 -2.37642,0.85655 -3.66455,1.08143 -2.83314,0.4946 -14.33716,0.92644 -30.82882,1.15726 -6.7304,0.0942 -22.09878,0.30978 -34.15197,0.47905 l -21.91488,0.30777 -9.72246,2.95146 c -12.11805,3.67871 -20.09359,5.94571 -21.70409,6.16927 -1.06408,0.14772 -1.26381,0.0868 -1.42977,-0.43608 z"
     id="path25" /></svg>
