<?xml version="1.0" encoding="UTF-8" standalone="no"?>
<!-- Created with Inkscape (http://www.inkscape.org/) -->

<svg
   width="512"
   height="512"
   viewBox="0 0 512 512"
   version="1.1"
   id="svg1"
   xml:space="preserve"
   xmlns="http://www.w3.org/2000/svg"
   xmlns:svg="http://www.w3.org/2000/svg"><defs
     id="defs1" /><g
     id="g166"><path
       style="fill:#d0d0d0;fill-opacity:1"
       d="m 76.560241,493.66817 c 0.6875,-0.27741 1.8125,-0.27741 2.5,0 0.6875,0.27741 0.125,0.50438 -1.25,0.50438 -1.375,0 -1.9375,-0.22697 -1.25,-0.50438 z M 5.8891886,417.74711 c 0.047984,-1.16494 0.2849403,-1.40189 0.6041667,-0.60416 0.2888706,0.72187 0.2533443,1.58437 -0.078947,1.91666 -0.3322917,0.3323 -0.5686404,-0.25833 -0.5252197,-1.3125 z M 201.81024,326.95289 c 0,-0.20765 0.7875,-0.99515 1.75,-1.75 1.58606,-1.24387 1.62143,-1.2085 0.37756,0.37756 -1.30637,1.66575 -2.12756,2.19548 -2.12756,1.37244 z m 149,-3.00894 c 0,-0.21258 1.32624,-0.58115 2.94719,-0.81906 1.62095,-0.2379 2.71939,-0.064 2.44098,0.3865 -0.49551,0.80176 -5.38817,1.19454 -5.38817,0.43256 z m 57,-178.99106 c 0,-0.20765 0.7875,-0.99515 1.75,-1.75 1.58606,-1.24387 1.62143,-1.2085 0.37756,0.37756 -1.30637,1.66575 -2.12756,2.19548 -2.12756,1.37244 z m 26.8125,-34.30556 c 0.72188,-0.28887 1.58438,-0.25334 1.91667,0.079 0.33229,0.33229 -0.25834,0.56864 -1.3125,0.52522 -1.16495,-0.048 -1.4019,-0.28494 -0.60417,-0.60417 z M 381.88919,71.747115 c 0.048,-1.164943 0.28494,-1.4019 0.60417,-0.604167 0.28887,0.721875 0.25334,1.584375 -0.079,1.916667 -0.33229,0.332291 -0.56864,-0.258334 -0.52522,-1.3125 z M 474.62274,8.6473341 c 0.72188,-0.2888706 1.58438,-0.2533443 1.91667,0.078947 0.33229,0.3322917 -0.25834,0.5686403 -1.3125,0.5252193 -1.16495,-0.047984 -1.4019,-0.2849403 -0.60417,-0.6041663 z"
       id="path173" /><path
       style="fill:#b9b9b9;fill-opacity:1"
       d="m 223.88919,362.74711 c 0.048,-1.16494 0.28494,-1.40189 0.60417,-0.60416 0.28887,0.72187 0.25334,1.58437 -0.0789,1.91666 -0.33229,0.3323 -0.56864,-0.25833 -0.52522,-1.3125 z m -59.82677,-5.91666 c 0.0111,-2.2 0.21589,-2.98226 0.45508,-1.73834 0.2392,1.24391 0.23011,3.04391 -0.0202,4 -0.25029,0.95608 -0.44599,-0.0617 -0.4349,-2.26166 z m 185.49782,-4.16228 c 0.6875,-0.27741 1.8125,-0.27741 2.5,0 0.6875,0.27741 0.125,0.50438 -1.25,0.50438 -1.375,0 -1.9375,-0.22697 -1.25,-0.50438 z M 450.88919,234.74711 c 0.048,-1.16494 0.28494,-1.40189 0.60417,-0.60416 0.28887,0.72187 0.25334,1.58437 -0.079,1.91666 -0.33229,0.3323 -0.56864,-0.25833 -0.52522,-1.3125 z M 190.62274,157.64733 c 0.72188,-0.28887 1.58438,-0.25334 1.91667,0.0789 0.33229,0.33229 -0.25834,0.56864 -1.3125,0.52522 -1.16495,-0.048 -1.4019,-0.28494 -0.60417,-0.60417 z m 235.05995,-51.06688 c -1.24387,-1.58606 -1.2085,-1.62143 0.37755,-0.37756 0.9625,0.75485 1.75,1.54235 1.75,1.75 0,0.82304 -0.82118,0.29331 -2.12755,-1.37244 z m -54.7935,-38.833335 c 0.048,-1.164943 0.28494,-1.4019 0.60417,-0.604167 0.28887,0.721875 0.25334,1.584375 -0.079,1.916667 -0.33229,0.332291 -0.56864,-0.258334 -0.52522,-1.3125 z"
       id="path172" /><path
       style="fill:#a3a3a3;fill-opacity:1"
       d="m 79.968136,449.33045 c 0,-1.375 0.226974,-1.9375 0.504386,-1.25 0.277412,0.6875 0.277412,1.8125 0,2.5 -0.277412,0.6875 -0.504386,0.125 -0.504386,-1.25 z M 223.88919,365.74711 c 0.048,-1.16494 0.28494,-1.40189 0.60417,-0.60416 0.28887,0.72187 0.25334,1.58437 -0.0789,1.91666 -0.33229,0.3323 -0.56864,-0.25833 -0.52522,-1.3125 z m 129.73355,-13.09978 c 0.72188,-0.28887 1.58438,-0.25334 1.91667,0.0789 0.33229,0.33229 -0.25834,0.56864 -1.3125,0.52522 -1.16495,-0.048 -1.4019,-0.28494 -0.60417,-0.60417 z m 4,-47 c 0.72188,-0.28887 1.58438,-0.25334 1.91667,0.0789 0.33229,0.33229 -0.25834,0.56864 -1.3125,0.52522 -1.16495,-0.048 -1.4019,-0.28494 -0.60417,-0.60417 z m 44.3035,-233.066882 c -0.0638,-3.4375 0.22474,-6.25 0.64121,-6.25 0.41646,0 0.6195,2.1375 0.4512,4.75 -0.48954,7.598979 -0.96704,8.254645 -1.09241,1.5 z"
       id="path171" /><path
       style="fill:#8c8c8c;fill-opacity:1"
       d="m 80.096255,442.83045 c 0.0075,-2.75 0.201713,-3.75631 0.431567,-2.23625 0.229855,1.52006 0.223712,3.77006 -0.01365,5 -0.237361,1.22994 -0.425424,-0.0138 -0.417917,-2.76375 z M 17.810241,397.95289 c 0,-0.20765 0.7875,-0.99515 1.75,-1.75 1.586056,-1.24387 1.621426,-1.2085 0.377556,0.37756 -1.30637,1.66575 -2.127556,2.19548 -2.127556,1.37244 z M 421.88919,115.74711 c 0.048,-1.16494 0.28494,-1.40189 0.60417,-0.60416 0.28887,0.72187 0.25334,1.58437 -0.079,1.91666 -0.33229,0.3323 -0.56864,-0.25833 -0.52522,-1.3125 z"
       id="path170" /><path
       style="fill:#767676;fill-opacity:1"
       d="m 245.81024,333.95289 c 0,-0.20765 0.7875,-0.99515 1.75,-1.75 1.58606,-1.24387 1.62143,-1.2085 0.37756,0.37756 -1.30637,1.66575 -2.12756,2.19548 -2.12756,1.37244 z m 1,-48 c 0,-0.20765 0.7875,-0.99515 1.75,-1.75 1.58606,-1.24387 1.62143,-1.2085 0.37756,0.37756 -1.30637,1.66575 -2.12756,2.19548 -2.12756,1.37244 z m 103,-103 c 0,-0.20765 0.7875,-0.99515 1.75,-1.75 1.58606,-1.24387 1.62143,-1.2085 0.37756,0.37756 -1.30637,1.66575 -2.12756,2.19548 -2.12756,1.37244 z M 370.88919,60.747115 c 0.048,-1.164943 0.28494,-1.4019 0.60417,-0.604167 0.28887,0.721875 0.25334,1.584375 -0.079,1.916667 -0.33229,0.332291 -0.56864,-0.258334 -0.52522,-1.3125 z"
       id="path169" /><path
       style="fill:#606060;fill-opacity:1"
       d="m 94.622741,438.64733 c 0.721875,-0.28887 1.584375,-0.25334 1.916667,0.0789 0.332292,0.33229 -0.258333,0.56864 -1.3125,0.52522 -1.164943,-0.048 -1.401899,-0.28494 -0.604167,-0.60417 z m 9.187499,-49.69444 c 0,-0.20765 0.7875,-0.99515 1.75,-1.75 1.58606,-1.24387 1.62143,-1.2085 0.37756,0.37756 -1.30637,1.66575 -2.12756,2.19548 -2.12756,1.37244 z"
       id="path168" /><path
       style="fill:#494949;fill-opacity:1"
       d="m 61.682686,486.58045 c -1.243871,-1.58606 -1.2085,-1.62143 0.377555,-0.37756 0.9625,0.75485 1.75,1.54235 1.75,1.75 0,0.82304 -0.821185,0.29331 -2.127555,-1.37244 z m 29.940055,-47.93312 c 0.721875,-0.28887 1.584375,-0.25334 1.916667,0.0789 0.332292,0.33229 -0.258333,0.56864 -1.3125,0.52522 -1.164943,-0.048 -1.401899,-0.28494 -0.604167,-0.60417 z m 10.345399,-19.31688 c 0,-1.375 0.22697,-1.9375 0.50438,-1.25 0.27741,0.6875 0.27741,1.8125 0,2.5 -0.27741,0.6875 -0.50438,0.125 -0.50438,-1.25 z m 49.8421,-128.37756 c 0,-0.20765 0.7875,-0.99515 1.75,-1.75 1.58606,-1.24387 1.62143,-1.2085 0.37756,0.37756 -1.30637,1.66575 -2.12756,2.19548 -2.12756,1.37244 z m 151.87245,-73.37244 c -1.24387,-1.58606 -1.2085,-1.62143 0.37755,-0.37756 1.66575,1.30637 2.19548,2.12756 1.37245,2.12756 -0.20766,0 -0.99516,-0.7875 -1.75,-1.75 z M 371.44861,82.830448 c 0.31659,-0.825 0.75246,-1.5 0.96862,-1.5 0.21616,0 0.39301,0.675 0.39301,1.5 0,0.825 -0.43588,1.5 -0.96861,1.5 -0.53274,0 -0.7096,-0.675 -0.39302,-1.5 z"
       id="path167" /><path
       style="fill:#333333;fill-opacity:1"
       d="M 69.286796,491.45881 C 65.098985,489.55643 58.340468,482.59962 27.38776,448.33045 18.197464,438.15545 9.9951164,428.54231 9.1603205,426.96793 c -0.8347958,-1.57439 -1.7478219,-5.17439 -2.0289468,-8 -0.4315861,-4.33792 -0.068358,-5.94636 2.3338657,-10.33479 2.8083736,-5.13039 8.1053806,-10.05681 92.6149206,-86.13543 12.72639,-11.45676 12.76346,-11.50306 10.87496,-13.58161 -1.04222,-1.14711 -2.44399,-3.14855 -3.11504,-4.44765 -1.81453,-3.5128 -1.45136,-11.78457 0.66341,-15.11006 2.56493,-4.03339 22.98814,-22.02794 25.00095,-22.02794 0.92208,0 4.22939,2.75874 7.34957,6.13053 3.12019,3.37179 6.12636,5.95929 6.6804,5.75 0.55403,-0.20929 3.58934,-2.75247 6.74513,-5.65152 l 5.73779,-5.27098 -4.68062,-5.47872 c -4.12785,-4.83171 -4.99628,-5.39613 -7.35354,-4.77935 -4.55532,1.19191 -9.94549,0.64275 -12.96096,-1.32048 -5.00298,-3.2572 -19.16464,-19.62921 -20.35588,-23.53302 -1.3815,-4.52734 -0.46886,-9.79773 2.30789,-13.3278 1.90563,-2.42261 43.42462,-40.55452 59.61694,-54.75344 10.55501,-9.25561 15.69228,-9.09037 25.39634,0.81686 6.85603,6.99957 9.82274,11.58565 9.82274,15.18444 0,3.53946 -2.44102,8.43967 -5.75596,11.55476 -2.85566,2.6835 -2.97777,3.12673 -2.50028,9.07525 0.47663,5.93786 0.33972,6.4388 -2.70881,9.91088 l -3.21082,3.65692 4.87965,5.11529 4.87964,5.11529 18.95497,-17.09745 c 19.57042,-17.65261 21.73503,-18.96997 25.52881,-15.53665 1.58049,1.43033 2.02798,1.29452 5.3525,-1.62445 l 3.62783,-3.18527 -2.52377,-3.30883 c -1.38807,-1.81985 -2.52376,-4.16585 -2.52376,-5.21333 0,-2.51662 105.17631,-97.605119 108.43344,-98.033223 1.27332,-0.16736 3.06812,0.448712 3.98846,1.369048 0.92034,0.920336 1.79922,1.507267 1.95307,1.304291 0.15385,-0.202976 -0.0781,-8.919048 -0.51537,-19.369048 -1.04619,-25.000255 -0.51926,-26.819661 10.58039,-36.532715 6.37324,-5.577076 9.09832,-6.967285 13.65723,-6.967285 5.98773,0 9.55953,2.689258 22.46891,16.917168 7.0477,7.767534 13.22297,13.986465 13.72283,13.819847 0.49985,-0.166619 3.95129,-2.988109 7.66986,-6.269979 6.076,-5.362443 6.81508,-6.422986 7.29439,-10.467036 0.49225,-4.153182 1.29302,-5.220341 10.39007,-13.846501 11.66375,-11.059989 14.18802,-12.5708293 19.76947,-11.8325232 3.45938,0.4576022 5.12877,1.6304712 10.86729,7.6350672 14.34057,15.005502 14.35757,18.745513 0.14338,31.543957 -11.63151,10.473005 -13.24049,11.5 -18.01687,11.5 -3.73806,0 -4.96545,0.680871 -11.05572,6.132956 -3.76795,3.373126 -7.19248,6.437277 -7.61005,6.809225 -0.41758,0.371947 0.87826,2.58931 2.87965,4.927473 4.4682,5.220096 5.45474,10.992173 2.69028,15.740431 -0.99589,1.710547 -4.87705,5.858067 -8.62481,9.216717 -10.0165,8.97653 -15.21246,9.41609 -23.29024,1.97026 -3.92703,-3.61981 -4.66755,-3.95375 -5.94185,-2.67944 -1.27431,1.2743 -1.20635,1.94486 0.54523,5.38049 3.67024,7.19897 2.33659,14.00034 -3.90976,19.93898 -2.25758,2.14636 -3.08928,3.84237 -3.08928,6.29966 0,5.20304 -2.07097,8.12278 -11.89018,16.76325 -5.00025,4.4 -9.07957,8.45 -9.06515,9 0.0624,2.38202 3.904,6.98247 28.90663,34.61686 14.53898,16.06936 27.24771,30.81204 28.24161,32.76152 3.8944,7.63864 1.70554,15.5687 -6.42634,23.28206 -5.99456,5.68604 -11.79338,8.78562 -16.49633,8.8176 -7.82737,0.0532 -9.97478,-1.8009 -38.16136,-32.94925 -14.8192,-16.37636 -28.29895,-30.74001 -29.955,-31.91922 l -3.01101,-2.14403 -14.63091,13.26723 c -16.26398,14.74809 -19.2519,16.76723 -24.8121,16.76723 -4.53252,0 -7.0725,-1.17336 -11.39689,-5.26483 l -3.19704,-3.02483 -5.80296,5.03277 c -10.52899,9.13153 -10.27231,8.38489 -4.9267,14.3305 2.54305,2.82848 4.62373,5.99055 4.62373,7.02683 0,1.03627 -1.35,3.08699 -3,4.55714 -1.65,1.47016 -3,2.9588 -3,3.3081 0,0.3493 2.3625,3.28575 5.25,6.52545 3.8247,4.29121 5.25,6.69412 5.25,8.8509 0,2.66614 0.84437,3.44453 8.49122,7.82773 15.12467,8.66951 33.06807,14.77576 54.00878,18.3795 10.32729,1.77726 12.00756,2.59363 11.98541,5.82318 -0.0237,3.45522 -13.81258,53.71439 -15.19328,55.37802 -1.04132,1.25472 -3.03482,1.42302 -11.27851,0.9522 -26.69375,-1.52456 -58.62411,-13.13044 -83.20372,-30.24246 -6.792,-4.72851 -6.31852,-4.84529 -10.57323,2.60785 -4.05132,7.09687 -15.84205,17.6664 -27.37621,24.54078 -1.65419,0.9859 -1.86046,2.48264 -1.86046,13.5 0,15.7633 2.09417,22.56638 9.66304,31.39117 5.03359,5.86881 9.80773,14.41663 9.82719,17.59501 0.0175,2.85412 -3.19339,4.62267 -23.47339,12.92911 -18.06307,7.39842 -20.4823,8.14347 -25.17787,7.75408 -10.02891,-0.83167 -13.7863,-5.7818 -21.74574,-28.64868 -4.76825,-13.69883 -7.60027,-27.99617 -8.4212,-42.51411 l -0.67203,-11.88459 -3.4844,-1.86541 c -3.9535,-2.11655 -11.42078,-2.41177 -14.66995,-0.57998 -2.13487,1.20359 -24.34565,20.78132 -24.34565,21.45953 0,0.19402 1.87373,3.0097 4.16385,6.25708 3.32062,4.70864 4.25425,6.9945 4.61026,11.28758 0.58361,7.0375 -1.09788,10.29238 -9.99973,19.35664 l -7.01822,7.14625 -1.32887,8.29936 c -0.75824,4.73547 -2.14097,9.39625 -3.22003,10.85374 -3.38986,4.5787 -8.07676,7.05439 -13.355142,7.05439 h -4.852117 l 0.0076,8.75 c 0.0122,14.12841 1.502167,20.96492 5.544263,25.43903 4.740896,5.2476 4.491186,7.71443 -1.301817,12.8607 -8.818698,7.83417 -17.435271,9.86638 -25.773445,6.07863 z m 16.139068,-11.30367 2.31046,-2.32469 -31.596426,-35 c -17.378034,-19.25 -31.92487,-35.12949 -32.326301,-35.28776 -0.401432,-0.15826 -2.190986,1.37636 -3.976787,3.41028 -2.814396,3.20542 -3.176147,4.22562 -2.715674,7.65871 0.331773,2.47355 1.629035,5.13555 3.455001,7.08972 1.60807,1.72098 13.622215,14.97589 26.698101,29.45536 13.075886,14.47946 24.733213,26.73647 25.905171,27.23778 3.440526,1.47171 9.694706,0.32807 12.246455,-2.2394 z m -2.665951,-65.12921 c 0.701044,-3.74248 1.111659,-6.95492 0.912477,-7.13875 -0.418718,-0.38645 -24.23432,21.12155 -24.616634,22.23141 -0.139967,0.40632 4.585033,6.11464 10.5,12.68515 l 10.754485,11.94639 0.587523,-16.45984 c 0.323138,-9.05291 1.161105,-19.52187 1.862149,-23.26436 z m 18.298777,9.27893 c 0.96164,-1.91093 1.75903,-5.27441 1.77196,-7.47441 0.0364,-6.18553 3.15328,-11.68387 10.88806,-19.20691 5.70718,-5.55094 7.09153,-7.48819 7.09153,-9.9238 0,-2.91327 -5.33063,-12.36929 -6.97291,-12.36929 -0.43145,0 -1.37709,1.4625 -2.10143,3.25 -0.72434,1.7875 -4.18829,6.24661 -7.69766,9.90914 -5.718769,5.96833 -6.580355,7.42066 -8.305428,14 -3.080976,11.75067 -5.0596,25.13814 -3.827848,25.8994 0.584404,0.36118 2.489665,0.37175 4.233915,0.0235 2.302822,-0.4598 3.650209,-1.58475 4.919811,-4.10762 z M 76.310241,400.56263 C 104.6253,374.91844 105.24445,374.06261 104.44608,361.671 c -0.51582,-8.00601 -4.39785,-21.97785 -6.030654,-21.70491 -1.202415,0.201 -66.605185,59.34886 -66.605185,60.23528 0,0.98725 18.970989,22.13398 19.838059,22.11325 0.364068,-0.009 11.461941,-9.79711 24.661941,-21.75199 z M 215.35749,415.6467 c 9.04901,-3.67607 16.45275,-7.18304 16.45275,-7.79328 0,-0.61025 -2.30161,-3.79006 -5.11469,-7.06625 -2.81308,-3.2762 -6.22671,-8.33154 -7.58584,-11.23408 -3.51737,-7.5117 -5.55656,-19.96718 -4.95508,-30.26591 l 0.49895,-8.54327 -4.67167,-2.43114 c -2.56942,-1.33712 -7.27448,-5.05727 -10.4557,-8.26699 l -5.78403,-5.83585 -2.92092,2.45779 c -1.60651,1.35179 -5.86594,5.0914 -9.46541,8.31026 l -6.5445,5.85247 0.003,7 c 0.007,14.25447 4.11822,33.09791 11.12692,51 4.09692,10.46464 6.46372,13.5 10.52653,13.5 1.34005,0 9.8402,-3.00769 18.88922,-6.68375 z m -83.2726,-70.456 3.13092,-2.63974 -2.66332,-3.36026 c -1.46483,-1.84814 -5.49359,-6.40918 -8.95279,-10.13564 l -6.28946,-6.77539 -5.40148,4.81829 -5.40148,4.81828 2.63751,6.59274 c 1.45063,3.626 3.11456,9.0067 3.69762,11.9571 2.20962,11.18108 1.1922,10.76804 9.07642,3.68479 3.86933,-3.47623 8.44406,-7.50831 10.16606,-8.96017 z m 220.46385,-6.72814 0.98177,-3.86789 -8.11013,-0.67571 c -22.4918,-1.87395 -47.02989,-10.49457 -69.36663,-24.36959 l -8.2565,-5.12873 -1.5797,2.41093 c -0.86884,1.32601 -1.30019,2.86319 -0.95856,3.41596 0.93553,1.51371 17.18118,11.37321 26.14777,15.86911 18.1419,9.09644 40.55168,15.57903 55.53184,16.06398 4.57645,0.14815 4.63938,0.10645 5.61014,-3.71806 z M 189.29149,324.40862 c 8.26031,-7.38201 17.34905,-15.65983 20.19718,-18.39516 l 5.17844,-4.97333 -3.66363,-4.38287 c -2.01499,-2.41058 -4.2303,-4.25776 -4.9229,-4.10484 -1.74079,0.38434 -47.27034,41.62277 -47.27034,42.81515 0,0.52958 0.7875,0.96518 1.75,0.968 0.9625,0.003 3.55,1.0951 5.75,2.4273 3.77475,2.28577 4.11157,2.32772 5.98125,0.74487 1.08968,-0.92251 8.73968,-7.71712 17,-15.09912 z m 37.09731,12.67368 c 7.96968,-5.25999 17.42144,-15.50643 17.42144,-18.88619 0,-3.88612 -6.09043,-10.51286 -11.01923,-11.98957 -5.09523,-1.52657 -7.56119,-0.69907 -13.48077,4.52369 l -5,4.41143 2.42432,2.59439 c 1.77993,1.90481 3.4261,2.5944 6.19329,2.5944 2.76114,0 4.18525,0.59431 5.32569,2.2225 2.00333,2.86016 1.96421,3.36999 -0.4433,5.7775 -1.34411,1.34411 -3.33333,2 -6.06574,2 -4.78332,0 -7.26034,-1.12873 -11.70005,-5.33147 l -3.2658,-3.09149 -2.61142,2.61142 -2.61141,2.61142 2.87721,3.77776 c 3.52708,4.63104 10.85034,9.42236 14.40155,9.42236 1.44802,0 4.84742,-1.46167 7.55422,-3.24815 z m -50.86724,-31.22512 11.06231,-9.97327 -3.34525,-3.90818 c -4.37005,-5.10541 -5.38053,-11.0343 -2.78447,-16.3376 2.60836,-5.32845 45.52517,-43.95707 50.50963,-45.46279 11.31832,-3.41906 22.1618,7.28401 18.85981,18.6156 -0.85473,2.93319 -3.1386,5.88623 -8.33914,10.78244 l -7.16203,6.74293 4.5634,4.5634 4.5634,4.5634 19.65488,-17.66789 19.65488,-17.66789 -12.22437,-13.50954 c -6.7234,-7.43025 -14.26253,-15.77054 -16.75362,-18.53399 l -4.52925,-5.02445 -47.97075,43.32189 c -26.38391,23.82705 -52.47075,47.44518 -57.97075,52.48474 -5.5,5.03956 -11.8,10.78789 -14,12.77407 l -4,3.61123 9.41229,9.48134 9.41229,9.48135 10.16222,-9.18176 c 5.58922,-5.04997 15.14025,-13.66973 21.22452,-19.15503 z m -33.17485,10.51356 c -3.59744,-3.97512 0.81291,-9.9291 5.96353,-8.05079 1.1,0.40115 2.41958,1.90399 2.93239,3.33965 1.87438,5.24742 -5.07837,8.92949 -8.89592,4.71114 z m 16.03496,-13.61172 c -2.36244,-2.36244 -1.94689,-6.13646 0.87961,-7.98845 3.11812,-2.04307 6.35692,-1.07543 7.63281,2.28043 2.02418,5.32399 -4.51296,9.70748 -8.51242,5.70802 z m 199.06895,17.62426 1.05355,-3.94716 -5.59696,-0.61999 c -23.72998,-2.62864 -46.61098,-10.529 -64.88071,-22.40204 -3.45606,-2.246 -6.69566,-4.08364 -7.19911,-4.08364 -0.50345,0 -2.1556,1.62602 -3.67143,3.61339 -3.27061,4.28798 -3.74095,3.74101 9.80379,11.40117 21.58085,12.20496 44.82727,19.48886 63.3939,19.8635 l 6.04341,0.12194 z m -87.18935,-34.83476 17.5919,-22.28192 -3.18883,-3.96808 c -1.75385,-2.18244 -3.38878,-3.96807 -3.63317,-3.96807 -0.38021,0 -36.20189,32.04775 -43.10797,38.5664 l -2.38703,2.25313 3.88703,2.0055 c 2.13787,1.10302 5.67107,3.84895 7.85154,6.10207 2.18048,2.25311 4.28628,3.97874 4.67957,3.83473 0.39328,-0.14401 8.63142,-10.2887 18.30696,-22.54376 z m 91.6017,18.14324 c 0.55178,-1.45128 0.87814,-2.76325 0.72525,-2.91548 -0.15289,-0.15224 -5.62541,-1.47585 -12.16116,-2.94136 -19.94259,-4.47172 -36.43702,-10.8961 -51.9327,-20.22716 l -5.81588,-3.50216 -2.43412,2.28674 c -1.33876,1.2577 -2.43412,2.88888 -2.43412,3.62484 0,2.68064 19.99729,13.72447 33.88872,18.71561 7.84158,2.81745 21.96543,6.20634 28.61128,6.86501 9.90164,0.98136 10.49197,0.88396 11.55273,-1.90604 z m -229.55273,-8.7802 9,-8.41677 -3.17508,-3.23802 -3.17507,-3.23802 -4.9426,4.13818 c -8.44781,7.07291 -12.39732,11.98884 -11.63405,14.48085 0.86633,2.82853 2.37613,4.69295 3.79925,4.69161 0.62015,-5.8e-4 5.17755,-3.7886 10.12755,-8.41783 z m 96.5,-7.59339 6.5,-5.92527 -4.15861,-4.17514 -4.15862,-4.17513 -6.49952,5.81335 -6.49951,5.81336 3.61989,4.33055 c 1.99094,2.38181 3.8621,4.31098 4.15813,4.28706 0.29603,-0.0239 3.46324,-2.70988 7.03824,-5.96878 z m -11.31165,-19.51279 c 11.99641,-10.73879 22.23123,-20.62516 22.74404,-21.96972 1.12538,-2.95063 -1.52272,-6.50521 -4.84626,-6.50521 -1.32999,0 -10.28514,7.38385 -24.34501,20.07336 -23.4907,21.20115 -24.84712,22.98792 -20.01861,26.36993 1.22238,0.85619 2.76963,1.55671 3.43834,1.55671 0.66872,0 11.03109,-8.78628 23.0275,-19.52507 z m -31.27348,-21.24255 15.69337,-14.26761 -4.93405,-5.17232 -4.93404,-5.17231 -2.89425,2.43993 c -1.59184,1.34196 -8.81873,7.79015 -16.05975,14.3293 l -13.1655,11.88938 4.68968,5.34706 c 2.57932,2.94089 4.96451,5.24067 5.30042,5.11063 0.33592,-0.13004 7.67277,-6.65687 16.30412,-14.50406 z m -39.3172,1.71535 c 1.0814,-0.57875 12.41432,-10.51229 25.18426,-22.07454 14.91631,-13.50563 23.21807,-21.70818 23.21807,-22.94062 0,-1.05509 -4.24281,-6.66142 -9.42847,-12.45851 l -9.42848,-10.54016 -4.07152,3.87377 c -2.23934,2.13057 -13.63403,12.52652 -25.32153,23.10211 -13.50292,12.2183 -21.25,19.92295 -21.25,21.13361 0,2.8167 16.1368,20.95661 18.64247,20.95661 0.26896,0 1.3738,-0.47352 2.4552,-1.05227 z m -1.44268,-18.77647 c -3.29838,-3.64467 -0.87132,-8.17126 4.38126,-8.17126 4.46753,0 6.57778,5.24311 3.39232,8.42857 -2.10733,2.10733 -5.7425,1.98701 -7.77358,-0.25731 z m 289.50501,13.98874 c 6.77861,-6.77861 7.22204,-8.97824 2.97553,-14.75996 -3.97169,-5.40756 -8.3053,-9.19199 -8.83443,-7.71488 -1.78665,4.98766 -12.54291,15.31484 -15.95114,15.31484 -2.30676,0 -1.53179,1.43992 3.93837,7.31765 7.31511,7.86015 9.87647,7.83755 17.87167,-0.15765 z m -24.54391,-17.07312 c 4.50201,-2.04445 8.47217,-6.68868 10.24539,-11.98492 1.2796,-3.82188 1.18115,-4.02582 -5.21317,-10.79994 l -3.96261,-4.19798 -2.6749,4.19798 c -3.342,5.24491 -10.1506,11.44398 -13.48972,12.28204 -2.52658,0.63413 -2.52377,0.64126 2.57373,6.52538 2.8067,3.23981 5.84606,5.88068 6.75414,5.8686 0.90808,-0.0121 3.50329,-0.8631 5.76714,-1.89116 z M 284.76209,214.88847 c 1.07851,-1.29953 0.35086,-2.57385 -4.73752,-8.29668 -3.30645,-3.71874 -7.09632,-7.77149 -8.42193,-9.00612 l -2.41019,-2.24478 -3.34755,3.4538 c -3.84696,3.96905 -4.33933,2.77984 5.89096,14.22824 l 6.4272,7.19248 2.6624,-1.8958 c 1.46433,-1.04269 3.23581,-2.58671 3.93663,-3.43114 z m 53.22025,-20.80802 c 11.08383,-10.0375 30.0919,-27.1818 42.24016,-38.09844 12.14826,-10.91664 22.21372,-20.3778 22.3677,-21.0248 0.15397,-0.647 -1.19603,-2.59855 -3,-4.33678 l -3.27996,-3.16041 -41.5,37.47868 c -22.825,20.61328 -42.60248,38.57184 -43.94997,39.90791 l -2.44996,2.42923 2.37428,2.5273 c 1.30585,1.39002 3.42527,2.52731 4.70981,2.52731 1.6259,0 8.45868,-5.54512 22.48794,-18.25 z m 55.46207,11.3314 c 4.24712,-2.58977 8.34376,-8.17052 9.00959,-12.27355 0.48202,-2.97037 -0.0177,-4.00744 -4.14046,-8.59296 -2.57875,-2.86819 -4.98444,-5.21321 -5.34597,-5.21114 -0.36153,0.002 -1.50681,2.06913 -2.54505,4.59349 -2.16379,5.26095 -7.6961,9.8207 -13.15877,10.8455 l -3.5562,0.66715 5.15029,5.94505 c 5.79021,6.68372 8.8456,7.52713 14.58657,4.02646 z m -93.21598,-4.48017 5.9182,-5.32079 -11.8422,-13.11826 c -13.21199,-14.63565 -11.5109,-14.08766 -19.66472,-6.33479 l -4.67053,4.44087 11.61436,12.86587 c 6.3879,7.07623 11.86464,12.84833 12.17053,12.82688 0.3059,-0.0214 3.21936,-2.43334 6.47436,-5.35978 z m -99.22291,-15.28832 c 1.5426,-1.4779 2.80472,-3.25225 2.80472,-3.943 0,-1.56295 -10.82973,-13.36991 -12.26332,-13.36991 -0.57634,0 -2.56473,1.15695 -4.41864,2.57099 l -3.37075,2.571 6.64892,7.429 c 3.65691,4.08596 6.90665,7.42901 7.22164,7.42901 0.31499,0 1.83484,-1.20919 3.37743,-2.68709 z m 119.7126,-3.22762 6.40787,-5.82771 -11.80798,-13.08036 c -13.30514,-14.73883 -11.47796,-14.22032 -20.47032,-5.80902 l -5.12434,4.79322 3.72679,4.16929 c 11.98147,13.40411 19.7159,21.66391 20.25027,21.62579 0.33541,-0.0239 3.49338,-2.66598 7.01771,-5.87121 z m 50.63825,3.54713 c 2.77537,-0.73911 6.00485,-1.85693 7.17662,-2.48404 3.41736,-1.82892 8.09918,-16.14838 5.27979,-16.14838 -0.5486,0 -5.5267,4.11857 -11.06244,9.15239 -7.25363,6.59593 -9.6984,9.38486 -8.75255,9.98468 1.67195,1.06028 1.41646,1.0778 7.35858,-0.50465 z m -29.61492,-22.51104 6.43121,-5.81211 -11.83662,-13.11207 -11.83661,-13.11207 -2.5946,1.87614 c -1.42702,1.03187 -4.4823,3.82522 -6.78951,6.20743 l -4.19493,4.3313 11.55521,12.75 c 6.35536,7.0125 11.84307,12.73503 12.19492,12.71675 0.35185,-0.0183 3.53376,-2.64871 7.07093,-5.84537 z m 21.01881,-19.01683 6.45003,-5.82894 -11.85477,-13.09928 -11.85476,-13.09928 -3.59526,2.87326 c -1.97739,1.58029 -5.02048,4.37545 -6.76242,6.21147 l -3.16717,3.33822 11.52096,12.75 c 6.33653,7.0125 11.81176,12.73503 12.16717,12.71675 0.35541,-0.0183 3.54871,-2.65628 7.09622,-5.8622 z m 20.89862,-18.90931 6.34863,-5.73826 -10.22018,-11.47849 c -5.6211,-6.31317 -10.98894,-12.28945 -11.92854,-13.280622 -1.63413,-1.723817 -1.99771,-1.528265 -8.36681,4.5 l -6.65845,6.302132 11.59215,12.75 c 6.37569,7.0125 11.88295,12.73503 12.23836,12.71675 0.35541,-0.0183 3.50309,-2.61547 6.99484,-5.77151 z m 25.83691,-5.36956 c 3.90984,-3.6731 2.99974,-6.12414 -5.9803,-16.10577 -12.72636,-14.145809 -11.70525,-11.143212 -11.70525,-34.419365 0,-20.17865 0.009,-20.260225 2.3591,-21.800179 1.2975,-0.850157 3.09699,-1.262579 3.99888,-0.916494 0.90188,0.346084 7.41673,6.993792 14.47745,14.772685 23.75158,26.167434 23.22023,25.315052 18.63732,29.897966 l -2.52725,2.527251 2.61614,3.109112 c 1.43888,1.710012 3.2255,3.109114 3.97026,3.109114 1.69579,0 13.46965,-10.806634 13.46376,-12.357715 -0.002,-0.628258 -11.2746,-13.629787 -25.04936,-28.892287 -20.33545,-22.531771 -25.52457,-27.75 -27.59522,-27.75 -1.75908,0 -4.45816,1.846451 -8.70064,5.95215 l -6.15044,5.952149 0.34093,17.297851 c 0.18751,9.513817 0.63751,21.620372 1,26.903454 l 0.65907,9.605604 11.4802,12.644394 c 6.3141,6.95442 11.6851,12.6444 11.93555,12.6444 0.25044,0 1.49685,-0.97844 2.7698,-2.17432 z m 7.04853,-28.867926 5.02008,-4.542245 -2.32911,-2.707755 c -1.28102,-1.489266 -2.61643,-2.707756 -2.96759,-2.707756 -0.35116,0 -3.09024,2.094613 -6.08685,4.654694 l -5.44838,4.654694 2.7412,2.8612 c 1.50767,1.57366 3.03582,2.741548 3.39589,2.595306 0.36008,-0.146242 2.91372,-2.309904 5.67476,-4.808138 z m -7.97405,-17.737848 c 0.20315,-0.609447 -1.22257,-2.820746 -3.16827,-4.913997 l -3.53764,-3.805911 -0.0271,7.37816 -0.0271,7.378159 3.19534,-2.464162 c 1.75743,-1.355289 3.36154,-2.962801 3.56469,-3.572249 z m 46.20145,-16.647486 3.46147,-3.604014 -2.59761,-2.597614 c -3.04954,-3.049539 -3.29545,-2.953371 -11.33084,4.431103 l -5.76924,5.301897 2.78952,2.911629 2.78952,2.91163 3.59785,-2.875308 c 1.97882,-1.58142 5.15552,-4.497115 7.05933,-6.479323 z M 479.8472,42.797548 c 4.65467,-4.143095 8.46304,-8.156205 8.46304,-8.918022 0,-2.042442 -11.49978,-14.704049 -13.03426,-14.351113 -1.71294,0.393981 -18.46574,15.680299 -18.46574,16.849308 0,1.624559 11.46656,13.853338 13.03696,13.903568 0.84533,0.02704 5.34533,-3.340646 10,-7.483741 z"
       id="path166" /></g><path
     style="fill:#ffffff;stroke:none;stroke-width:11.3121;stroke-linecap:round;stroke-dasharray:none"
     d="m 74.288541,482.60138 c -1.281988,-0.25521 -6.887198,-5.95864 -21.508859,-21.8858 -22.681366,-24.70646 -33.413869,-36.77887 -34.275207,-38.5543 -0.488863,-1.00767 -0.981908,-2.65779 -1.095654,-3.66695 -0.376988,-3.34463 0.129259,-4.5632 3.273043,-7.87843 l 2.924661,-3.08416 1.387175,1.54492 c 0.762945,0.8497 8.893305,9.77699 18.067465,19.83842 9.17416,10.06142 22.918165,25.19441 30.542233,33.62887 l 13.861942,15.33538 -1.193838,1.2461 c -2.505951,2.61565 -8.121658,4.24462 -11.982961,3.47595 z"
     id="path174" /><path
     style="fill:#ffffff;stroke:none;stroke-width:11.3121;stroke-linecap:round;stroke-dasharray:none"
     d="m 48.279402,418.60032 c -3.824387,-3.92049 -9.199506,-9.87597 -13.391562,-14.83749 l -2.827771,-3.34682 1.381342,-1.44229 c 5.17973,-5.40826 62.605775,-57.28416 64.727101,-58.47131 0.775129,-0.43379 1.755805,1.64899 3.339248,7.09198 1.85767,6.38561 2.85505,13.30703 2.67571,18.56824 -0.14693,4.31014 -0.26026,4.83611 -1.56365,7.25721 -2.39384,4.44666 -7.890488,10.06427 -25.376621,25.93513 -6.808619,6.17968 -20.482078,18.33336 -24.924195,22.15392 -0.565407,0.48629 -1.111511,0.0931 -4.039602,-2.90857 z"
     id="path175" /><path
     style="fill:#ffffff;stroke:none;stroke-width:11.3121;stroke-linecap:round;stroke-dasharray:none"
     d="m 73.022259,446.30684 c -8.888045,-9.96359 -13.471605,-15.42376 -13.491385,-16.07163 -0.02335,-0.76472 23.552788,-22.27988 23.963763,-21.8689 0.07366,0.0737 -0.162235,1.91041 -0.524217,4.08166 -0.901122,5.40517 -1.381288,10.17311 -1.949102,19.35417 -0.265618,4.29481 -0.658885,8.0234 -0.873928,8.28575 -0.223361,0.2725 -0.303513,3.3941 -0.186954,7.28112 0.112218,3.74226 0.16406,6.79085 0.115203,6.77464 -0.04886,-0.0162 -3.222877,-3.54278 -7.05338,-7.83681 z"
     id="path176" /><path
     style="fill:#ffffff;stroke:none;stroke-width:11.3121;stroke-linecap:round;stroke-dasharray:none"
     d="m 91.810419,427.59689 c -0.906267,-2.8554 3.828022,-26.35453 6.26722,-31.10799 1.243641,-2.42359 5.203051,-7.15951 5.838941,-6.98407 0.67441,0.18607 2.0749,-1.22259 2.7122,-2.72803 0.31168,-0.73623 1.53,-2.61132 2.70738,-4.16686 1.17738,-1.55554 2.53272,-3.66226 3.01187,-4.68161 0.47915,-1.01934 1.07278,-1.97795 1.31918,-2.13023 0.97978,-0.60554 5.40736,6.51542 6.63657,10.67374 0.76198,2.57769 -0.16255,4.09106 -6.59756,10.79954 -7.79453,8.12579 -10.24725,12.08944 -10.96323,17.71686 -0.15756,1.23841 -0.45363,2.46405 -0.65792,2.72365 -0.2043,0.25959 -0.34864,1.30427 -0.32077,2.32151 0.0937,3.41876 -2.29292,7.196 -5.026385,7.9552 -2.602589,0.72284 -4.624771,0.56209 -4.927496,-0.39171 z"
     id="path177" /><path
     style="fill:#ffffff;stroke:none;stroke-width:11.3121;stroke-linecap:round;stroke-dasharray:none"
     d="m 114.63676,357.83017 c -0.14919,-0.52234 -0.72768,-3.13404 -1.28553,-5.80379 -1.20134,-5.74932 -2.53532,-10.08436 -4.86429,-15.80748 -1.3661,-3.357 -1.60202,-4.3003 -1.17552,-4.70022 2.54942,-2.39048 9.76923,-8.61678 9.99174,-8.61678 0.62567,0 17.33281,18.76538 17.3415,19.47788 0.002,0.14994 -1.91931,1.93746 -4.2692,3.97227 -2.34989,2.03481 -6.46692,5.6635 -9.14896,8.06375 -2.68205,2.40025 -5.2009,4.36408 -5.59746,4.36408 -0.39656,0 -0.84309,-0.42737 -0.99228,-0.94971 z"
     id="path178" /><path
     style="fill:#ffffff;stroke:none;stroke-width:11.3121;stroke-linecap:round;stroke-dasharray:none"
     d="m 121.03248,302.60591 c -0.94614,-0.55098 -2.42407,-3.42821 -2.42407,-4.71915 0,-2.39998 4.5103,-7.56932 12.49169,-14.31696 l 3.83602,-3.24305 3.04803,3.06851 3.04803,3.06851 -6.67437,6.16142 c -6.61048,6.10244 -11.73798,10.45023 -12.29508,10.42545 -0.15874,-0.007 -0.62235,-0.20718 -1.03025,-0.44473 z"
     id="path179" /><path
     style="fill:#ffffff;stroke:none;stroke-width:11.3121;stroke-linecap:round;stroke-dasharray:none"
     d="m 134.85966,324.59091 c -5.73045,-5.7349 -9.10577,-9.41269 -8.85226,-9.64554 0.22536,-0.207 6.01305,-5.43133 12.86152,-11.60963 6.84847,-6.1783 13.40148,-12.11651 14.56224,-13.19601 6.15246,-5.7218 92.08551,-83.44665 95.20212,-86.10855 0.56733,-0.48456 2.29099,1.25546 13.12917,13.25374 6.86186,7.59635 14.30733,15.83604 16.54549,18.31043 l 4.06937,4.49889 -18.46483,16.56694 c -10.15566,9.11182 -18.89902,16.95634 -19.42969,17.43228 l -0.96485,0.86533 -4.31119,-4.31118 -4.31118,-4.31118 6.38904,-6.28568 c 5.30576,-5.21993 6.62972,-6.77459 7.8086,-9.16923 1.25713,-2.5536 1.41872,-3.27096 1.4122,-6.26918 -0.006,-2.8958 -0.19529,-3.78257 -1.30619,-6.12924 -3.90947,-8.25831 -13.99479,-11.7127 -20.75267,-7.10813 -7.57914,5.16416 -35.24011,29.72963 -43.94961,39.03128 -4.83539,5.16415 -5.30596,6.15002 -5.31265,11.13044 -0.005,3.51416 0.13604,4.29689 1.13866,6.33141 0.62923,1.27683 2.21848,3.61306 3.53165,5.19162 1.31318,1.57856 2.31789,2.92138 2.2327,2.98404 -0.27869,0.20499 -39.3755,35.39456 -40.68764,36.62141 l -1.27799,1.19492 z m 14.94832,-7.42228 c 4.20998,-3.54247 0.4832,-10.61948 -4.88301,-9.27264 -0.61881,0.15531 -1.75971,0.91698 -2.53534,1.69261 -1.1458,1.1458 -1.41024,1.73869 -1.41024,3.16179 0,3.51765 1.96748,5.46079 5.56036,5.49157 1.52079,0.013 2.2693,-0.23279 3.26823,-1.07333 z m 15.87283,-14.2407 c 1.88878,-1.88878 2.22587,-3.83863 1.10261,-6.37795 -1.46228,-3.30572 -4.82112,-4.01495 -7.93629,-1.67577 -2.72687,2.04761 -2.87993,5.91208 -0.32307,8.15703 1.23507,1.08441 1.83147,1.29852 3.61693,1.29852 1.85869,0 2.32112,-0.18313 3.53982,-1.40183 z"
     id="path180" /><path
     style="fill:#ffffff;stroke:none;stroke-width:11.3121;stroke-linecap:round;stroke-dasharray:none"
     d="m 191.48966,285.71631 c -3.8246,-2.53331 -3.22342,-4.20929 4.14887,-11.56627 8.10667,-8.08983 29.17737,-26.86195 35.80048,-31.89502 3.98463,-3.02803 5.16646,-3.20141 7.29735,-1.07052 1.117,1.117 1.43512,1.7827 1.43512,3.00313 0,1.38334 -0.38527,1.96652 -3.27123,4.95165 -9.89027,10.23012 -41.14536,37.88463 -42.81716,37.88463 -0.34062,0 -1.50767,-0.58842 -2.59343,-1.3076 z"
     id="path181" /><path
     style="fill:#ffffff;stroke:none;stroke-width:11.3121;stroke-linecap:round;stroke-dasharray:none"
     d="m 166.93817,338.84415 c -1.16076,-0.71435 -3.3077,-1.72288 -4.77097,-2.24119 -1.46328,-0.51831 -2.7499,-1.03177 -2.85916,-1.14103 -0.41535,-0.41535 16.83934,-16.52575 34.22205,-31.95252 10.27604,-9.11976 12.27904,-10.6879 13.25579,-10.37789 0.83874,0.26621 4.16529,3.69075 6.2861,6.47127 l 1.12684,1.47736 -4.6361,4.43075 c -4.18652,4.00109 -19.24097,17.62689 -33.12744,29.98368 -3.81735,3.39685 -5.56793,4.68854 -6.33141,4.67168 -0.58037,-0.0128 -2.00494,-0.60777 -3.1657,-1.32211 z"
     id="path182" /><path
     style="fill:#ffffff;stroke:none;stroke-width:11.3121;stroke-linecap:round;stroke-dasharray:none"
     d="m 221.17359,292.39218 c -0.61027,-0.49278 -5.17818,-5.68997 -6.2434,-7.1035 -0.4399,-0.58375 0.3541,-1.45005 5.60955,-6.12036 3.36709,-2.99221 6.26506,-5.43906 6.43993,-5.43745 0.17486,0.002 2.00312,1.74713 4.06277,3.87895 l 3.74484,3.87603 -2.47855,2.28678 c -3.17358,2.92802 -10.26159,9.16473 -10.39576,9.14717 -0.0564,-0.007 -0.38914,-0.24481 -0.73938,-0.52762 z"
     id="path183" /><path
     style="fill:#ffffff;stroke:none;stroke-width:11.3121;stroke-linecap:round;stroke-dasharray:none"
     d="m 216.38333,339.56706 c -3.80939,-1.43373 -8.54853,-5.00873 -11.70244,-8.82781 l -2.41641,-2.92604 1.33108,-1.64891 c 0.73209,-0.90691 1.73376,-2.14484 2.22593,-2.75096 l 0.89487,-1.10203 3.04766,2.78154 c 4.32636,3.94858 6.60051,5.08999 10.60297,5.32169 3.66037,0.2119 5.68543,-0.29864 7.61082,-1.91875 1.84281,-1.55062 2.22281,-2.80888 1.38286,-4.57896 -1.09728,-2.31233 -2.77462,-3.44871 -5.54098,-3.75393 -1.33727,-0.14754 -2.94877,-0.3654 -3.58111,-0.48412 -1.12562,-0.21134 -5.39274,-3.68308 -5.39274,-4.38755 0,-0.57152 8.32506,-7.50941 10.04353,-8.37002 2.3896,-1.19672 3.62942,-1.37068 6.07471,-0.85237 3.30095,0.69968 5.28992,1.86297 8.25514,4.8282 2.5807,2.58069 4.305,5.43768 4.31578,7.15078 0.0103,1.63178 -2.58741,5.33505 -6.83757,9.74772 -4.85906,5.04485 -9.89322,9.02915 -13.62076,10.7802 -3.26569,1.53408 -4.69052,1.74511 -6.69334,0.99132 z"
     id="path184" /><path
     style="fill:#ffffff;stroke:none;stroke-width:11.3121;stroke-linecap:round;stroke-dasharray:none"
     d="m 193.86234,421.4061 c -2.35828,-1.16278 -4.5034,-4.71875 -7.65412,-12.68826 C 179.15418,390.8752 175.169,372.39472 175.169,357.52562 v -6.69824 l 8.12531,-7.17617 c 4.46892,-3.94689 8.66073,-7.59501 9.31513,-8.10692 l 1.18983,-0.93076 4.71949,4.62 c 5.4136,5.29948 8.5539,7.76645 12.73928,10.00778 l 2.95466,1.58226 v 10.83718 c 0,11.38319 0.28378,13.94782 2.39012,21.60059 1.66213,6.03881 4.67555,11.3735 10.25246,18.15004 3.17399,3.85673 4.45222,5.67129 4.45222,6.32031 0,1.41615 -31.80792,14.3889 -35.19136,14.35268 -0.49372,-0.005 -1.50793,-0.31051 -2.2538,-0.67827 z"
     id="path185" /><path
     style="fill:#ffffff;stroke:none;stroke-width:11.3121;stroke-linecap:round;stroke-dasharray:none"
     d="m 247.55776,304.22235 c -4.36295,-4.00191 -5.78252,-5.0658 -9.18536,-6.8839 l -2.45011,-1.30908 5.09064,-4.60825 c 2.79986,-2.53454 5.54105,-4.7601 6.09154,-4.94569 0.55049,-0.18558 1.49696,-1.05326 2.10327,-1.92817 1.21532,-1.75369 2.27731,-2.73664 19.5883,-18.13025 6.57353,-5.84543 12.08763,-10.62806 12.25357,-10.62806 0.25083,0 3.91407,4.236 5.89987,6.82233 0.4689,0.6107 -1.03644,2.69615 -11.57782,16.03957 -18.60727,23.55335 -23.11077,29.05566 -23.78128,29.05566 -0.12878,0 -1.94345,-1.56787 -4.03262,-3.48416 z"
     id="path186" /><path
     style="fill:#ffffff;stroke:none;stroke-width:11.3121;stroke-linecap:round;stroke-dasharray:none"
     d="m 337.82861,341.04563 c -14.04261,-2.12617 -31.31458,-7.78592 -45.73957,-14.98813 -10.5171,-5.25105 -25.89063,-14.59969 -26.46344,-16.09241 -0.15881,-0.41385 0.22104,-1.6522 0.91102,-2.97005 l 1.18339,-2.26024 1.31559,0.79868 c 0.72358,0.43928 4.29099,2.60605 7.92757,4.81506 23.93837,14.54108 46.56398,22.05052 72.84722,24.17798 1.91525,0.15503 3.48227,0.31019 3.48227,0.34481 0,0.63835 -1.78828,6.00344 -2.14387,6.4319 -0.69419,0.83645 -6.88514,0.71672 -13.32018,-0.2576 z"
     id="path187" /><path
     style="fill:#ffffff;stroke:none;stroke-width:11.3121;stroke-linecap:round;stroke-dasharray:none"
     d="m 345.44891,323.71995 c -17.58457,-1.3555 -38.48295,-8.47684 -59.48024,-20.26852 -8.15876,-4.5818 -10.10476,-5.91548 -10.26445,-7.03471 -0.14389,-1.00841 3.15233,-5.68148 4.52611,-6.41671 0.80702,-0.4319 2.63276,0.50888 11.01452,5.67568 5.29236,3.26239 17.08285,8.94999 23.48763,11.33018 12.1556,4.51733 26.63939,7.82994 40.90236,9.35483 l 2.55323,0.27298 -0.83209,3.23963 -0.83208,3.23963 -1.80664,-0.14643 c -1.08532,-0.088 -2.34608,0.12269 -3.15779,0.52762 -0.74314,0.37073 -1.46444,0.64701 -1.60289,0.61397 -0.13844,-0.0331 -2.1669,-0.20772 -4.50767,-0.38815 z"
     id="path188" /><path
     style="fill:#ffffff;stroke:none;stroke-width:11.3121;stroke-linecap:round;stroke-dasharray:none"
     d="m 351.60429,305.54816 c -8.13787,-0.8819 -23.45355,-4.62196 -31.45645,-7.68162 -11.41628,-4.36466 -26.68119,-12.49474 -30.88664,-16.45022 -1.2624,-1.18736 -1.3128,-1.34189 -0.77252,-2.36883 0.3179,-0.60423 1.40048,-1.89478 2.40574,-2.86788 l 1.82776,-1.76928 4.22094,2.56744 c 16.38494,9.96635 31.5,15.88528 54.25555,21.24601 5.4465,1.28308 10.22079,2.43031 10.60953,2.54938 0.64932,0.1989 0.65469,0.36945 0.066,2.09711 -0.72537,2.12885 -1.09609,2.46039 -2.88328,2.57852 -0.69645,0.046 -1.83611,0.17471 -2.53256,0.28594 -0.69646,0.11123 -2.88079,0.0273 -4.85408,-0.18657 z"
     id="path189" /><path
     style="fill:#ffffff;stroke:none;stroke-width:11.3121;stroke-linecap:round;stroke-dasharray:none"
     d="m 166.84224,257.78675 c -1.62014,-1.67917 -3.76622,-3.96463 -4.76908,-5.07881 -1.78904,-1.98764 -1.80809,-2.04018 -1.01175,-2.79014 1.77209,-1.66887 22.59618,-20.3377 26.54518,-23.79779 2.31372,-2.02727 4.32837,-3.63632 4.477,-3.57569 0.14863,0.0606 2.33564,2.27112 4.86002,4.91218 l 4.58978,4.80192 -2.31327,2.12728 c -4.88962,4.49647 -26.85946,24.31119 -28.11345,25.35568 l -1.31872,1.09841 z"
     id="path190" /><path
     style="fill:#ffffff;stroke:none;stroke-width:11.3121;stroke-linecap:round;stroke-dasharray:none"
     d="m 141.75675,247.18931 c -4.92442,-4.03212 -15.55065,-16.79912 -15.55065,-18.68349 0,-1.46502 6.61193,-7.91196 29.1401,-28.41295 7.76849,-7.06946 15.66551,-14.34301 17.54891,-16.16346 l 3.42439,-3.30991 3.56621,3.92273 c 9.40978,10.35049 15.12171,17.44391 15.12171,18.77908 0,1.37337 -18.9991,19.331 -39.06962,36.92795 -7.512,6.58619 -10.36758,8.7793 -11.43744,8.78403 -0.26891,0.001 -1.50354,-0.82861 -2.74361,-1.84398 z m 10.63299,-16.52209 c 3.30206,-1.70756 3.30206,-7.14213 0,-8.84969 -2.42422,-1.25361 -6.36499,-0.48269 -7.76739,1.51952 -0.38288,0.54664 -0.6883,1.80588 -0.6883,2.83785 0,1.5922 0.23228,2.08745 1.63872,3.49389 1.43542,1.43541 1.88311,1.63871 3.60876,1.63871 1.08352,0 2.52722,-0.28813 3.20821,-0.64028 z"
     id="path191" /><path
     style="fill:#ffffff;stroke:none;stroke-width:11.3121;stroke-linecap:round;stroke-dasharray:none"
     d="m 194.96259,185.40478 c -4.04592,-4.19655 -10.50752,-11.47574 -10.50752,-11.83704 0,-0.37594 4.64103,-3.85835 6.29367,-4.72248 0.96991,-0.50713 1.23643,-0.30686 5.69827,4.28192 5.56504,5.72337 7.19721,7.93832 6.79153,9.21651 -0.33729,1.06273 -4.72521,5.48813 -5.44164,5.48813 -0.27192,0 -1.54736,-1.09217 -2.83431,-2.42704 z"
     id="path192" /><path
     style="fill:#ffffff;stroke:none;stroke-width:5.65606;stroke-linecap:round;stroke-dasharray:none"
     d="m 271.85636,212.95903 c -7.96707,-8.93281 -8.68505,-9.88931 -8.36886,-11.1491 0.0723,-0.2883 1.40688,-1.82936 2.96561,-3.42456 l 2.83405,-2.90038 3.64496,3.72173 c 5.89288,6.01698 10.8428,11.71066 11.78284,13.55328 0.26364,0.51679 0.39401,1.06369 0.32197,1.3507 -0.15617,0.62223 -2.6979,2.97465 -4.9272,4.56021 -0.95894,0.68203 -1.81368,1.23947 -1.89942,1.23877 -0.0858,-7.1e-4 -2.94502,-3.1285 -6.35395,-6.95065 z"
     id="path193" /><path
     style="fill:#ffffff;stroke:none;stroke-width:5.65606;stroke-linecap:round;stroke-dasharray:none"
     d="m 289.17695,201.49711 c -3.44969,-3.67793 -9.89983,-10.75806 -17.81071,-19.55028 l -1.20094,-1.33474 2.46723,-2.36342 c 7.05007,-6.75345 7.73322,-7.30061 9.1152,-7.30061 1.58389,0 3.26645,1.43886 8.60038,7.35473 2.05665,2.28103 6.37628,7.06312 9.59918,10.62686 3.22289,3.56374 5.8598,6.55916 5.8598,6.65649 0,0.18579 -7.34115,6.78617 -10.08494,9.06731 -0.87881,0.73063 -1.76455,1.32841 -1.9683,1.32841 -0.20967,0 -2.19626,-1.94659 -4.5769,-4.48475 z"
     id="path194" /><path
     style="fill:#ffffff;stroke:none;stroke-width:5.65606;stroke-linecap:round;stroke-dasharray:none"
     d="m 310.21647,184.71888 c -4.51575,-4.60996 -20.13238,-21.8265 -20.13238,-22.19493 0,-0.15713 6.7842,-6.62337 9.17026,-8.74046 2.21243,-1.96304 3.40492,-2.2391 5.20715,-1.20543 1.46846,0.84224 4.07363,3.55401 13.9984,14.57116 l 8.46038,9.39159 -1.12004,1.05523 c -4.90798,4.62402 -11.64179,10.44683 -12.08127,10.44683 -0.13554,0 -1.71166,-1.4958 -3.5025,-3.32399 z"
     id="path195" /><path
     style="fill:#ffffff;stroke:none;stroke-width:5.65606;stroke-linecap:round;stroke-dasharray:none"
     d="m 330.86759,165.40808 c -3.34797,-3.51024 -7.88945,-8.454 -15.94231,-17.35447 l -3.81523,-4.2168 2.35866,-2.43118 c 3.48294,-3.59004 6.98174,-6.83504 9.01109,-8.35743 0.98665,-0.74017 1.86035,-1.34781 1.94157,-1.35032 0.20206,-0.006 23.26291,25.53343 23.34072,25.84962 0.0342,0.13895 -2.0235,2.1263 -4.57265,4.41632 -5.1156,4.59559 -8.12405,7.08482 -8.5626,7.08482 -0.15784,0 -1.8495,-1.63825 -3.75925,-3.64056 z"
     id="path196" /><path
     style="fill:#ffffff;stroke:none;stroke-width:5.65606;stroke-linecap:round;stroke-dasharray:none"
     d="m 352.6408,147.15251 c -3.44666,-3.51141 -5.5933,-5.83303 -13.9811,-15.12083 l -6.4606,-7.15382 1.47077,-1.6315 c 2.64793,-2.93729 6.70619,-6.64337 10.50384,-9.59229 1.30689,-1.01483 1.33405,-1.02468 1.71872,-0.62371 2.29734,2.39464 23.02201,25.50008 22.97503,25.61431 -0.24832,0.6039 -12.68788,11.40974 -13.13476,11.40974 -0.13393,0 -1.52528,-1.30585 -3.0919,-2.9019 z"
     id="path197" /><path
     style="fill:#ffffff;stroke:none;stroke-width:5.65606;stroke-linecap:round;stroke-dasharray:none"
     d="m 372.76865,127.3141 c -4.74267,-4.97968 -18.36872,-19.83956 -19.42902,-21.1883 -0.23509,-0.29905 0.35258,-0.93052 4.59,-4.93216 7.01351,-6.623254 8.03121,-7.388283 8.99146,-6.759101 0.59114,0.387325 3.5919,3.679044 14.53381,15.943041 l 8.37917,9.39159 -0.93513,0.84419 c -8.53349,7.70365 -11.75792,10.44682 -12.27958,10.44682 -0.15561,0 -1.88843,-1.68574 -3.85071,-3.74608 z"
     id="path198" /><path
     style="fill:#ffffff;stroke:none;stroke-width:5.65606;stroke-linecap:round;stroke-dasharray:none"
     d="m 314.56554,212.00275 c -0.4643,-0.13842 -1.16318,-0.41788 -1.55306,-0.62102 -0.851,-0.44338 -4.25073,-3.6628 -4.25073,-4.02527 0,-0.14058 0.92597,-1.15161 2.05771,-2.24673 2.97293,-2.87672 30.88033,-28.18144 67.79884,-61.47584 8.99588,-8.1128 16.67165,-15.04426 17.05726,-15.40326 l 0.70112,-0.65272 2.57089,2.63808 c 1.41399,1.45095 2.80721,3.08808 3.09604,3.63807 l 0.52515,0.99998 -2.00326,2.02656 c -2.42436,2.45256 -8.99936,8.61875 -15.29922,14.34796 -13.47557,12.25494 -32.37127,29.17071 -32.47225,29.06973 -0.20839,-0.20839 -2.8765,2.07189 -2.99999,2.56394 -0.11343,0.45191 -11.22952,10.6424 -20.21163,18.52865 -7.02865,6.17113 -12.07162,10.13129 -13.56363,10.65128 -0.42736,0.14895 -0.86089,0.13719 -1.45324,-0.0394 z"
     id="path199" /><path
     style="fill:#ffffff;stroke:none;stroke-width:5.65606;stroke-linecap:round;stroke-dasharray:none"
     d="m 365.19965,186.96657 c -0.35767,-0.10098 -0.80791,-0.35776 -1.00054,-0.57061 -0.3288,-0.36331 -0.31085,-0.44912 0.29311,-1.40146 1.17751,-1.85674 9.93002,-10.0984 15.89419,-14.96651 3.22047,-2.62863 3.40419,-2.74145 3.80744,-2.33821 1.4357,1.4357 -1.90704,11.7738 -4.79824,14.83954 -0.36948,0.39178 -1.14664,0.92578 -1.72702,1.18667 -1.49207,0.67071 -5.25785,1.86174 -8.23083,2.60323 -3.37871,0.84267 -3.48745,0.85928 -4.23811,0.64735 z"
     id="path200" /><path
     style="fill:#ffffff;stroke:none;stroke-width:5.65606;stroke-linecap:round;stroke-dasharray:none"
     d="m 385.51688,206.84436 c -2.06676,-0.83356 -4.43448,-3.03528 -9.09799,-8.46019 l -2.44926,-2.84913 2.27157,-0.45639 c 4.2194,-0.84772 7.05557,-2.28001 9.93965,-5.0196 2.11341,-2.00753 3.09918,-3.45697 4.85256,-7.13503 0.81645,-1.71264 1.64204,-3.17437 1.83465,-3.24828 0.40604,-0.15581 3.27282,2.58856 6.09481,5.83457 3.51147,4.03909 3.97731,5.26257 3.17722,8.34477 -0.7067,2.72247 -2.39746,5.52382 -4.94685,8.19619 -1.8874,1.97846 -3.56761,3.21771 -5.80007,4.2779 -2.07602,0.9859 -4.23901,1.17553 -5.87629,0.51519 z"
     id="path201" /><path
     style="fill:#ffffff;stroke:none;stroke-width:5.65606;stroke-linecap:round;stroke-dasharray:none"
     d="m 402.63872,226.90963 c -2.3065,-1.84077 -7.67692,-7.74637 -8.54088,-9.39199 -0.43765,-0.83363 -0.26544,-1.09628 0.91139,-1.39004 2.10479,-0.52539 5.16363,-2.63184 8.3171,-5.72751 2.42255,-2.37816 4.24818,-4.63695 6.25038,-7.73344 0.9976,-1.54283 1.89117,-2.80515 1.98571,-2.80515 0.0945,0 1.83666,1.78071 3.87138,3.95713 5.93363,6.34688 6.2021,6.81774 5.42331,9.51206 -1.66294,5.7532 -5.64143,10.6602 -10.47624,12.92123 -2.07125,0.96863 -4.80247,1.88988 -5.60293,1.88988 -0.40876,0 -1.07908,-0.3861 -2.13922,-1.23217 z"
     id="path202" /><path
     style="fill:#ffffff;stroke:none;stroke-width:5.65606;stroke-linecap:round;stroke-dasharray:none"
     d="m 424.09893,249.08768 c -0.58038,-0.20738 -1.53009,-0.69749 -2.11047,-1.08914 -2.24015,-1.51167 -9.2782,-9.1253 -9.78843,-10.58893 -0.25298,-0.72571 -0.0103,-0.91442 1.40794,-1.09492 3.27284,-0.41654 12.33686,-8.91874 15.12524,-14.18773 0.30714,-0.58038 0.64216,-1.13917 0.74448,-1.24176 0.56252,-0.56397 4.14201,2.60905 6.99577,6.20136 5.8307,7.33967 5.57319,9.25835 -2.26755,16.89532 -4.96426,4.83525 -7.40852,6.07003 -10.10698,5.1058 z"
     id="path203" /><path
     style="fill:#ffffff;stroke:none;stroke-width:5.65606;stroke-linecap:round;stroke-dasharray:none"
     d="m 404.33244,119.70399 c -2.96752,-3.01409 -17.24458,-18.57451 -20.52178,-22.366486 -0.34578,-0.400099 -0.45214,-1.204644 -0.7799,-5.899565 -0.20873,-2.98996 -0.49858,-8.216853 -0.6441,-11.615318 -0.25006,-5.839748 -0.24377,-6.214282 0.1147,-6.821112 0.4264,-0.721838 0.32228,-1.959367 -0.18891,-2.245447 -0.24604,-0.137687 -0.33675,-1.899071 -0.51389,-9.977709 -0.11831,-5.395777 -0.26545,-11.528195 -0.32697,-13.627593 l -0.11186,-3.817089 4.22564,-4.044743 c 2.32411,-2.224609 4.96005,-4.629591 5.85765,-5.344404 2.06496,-1.644453 4.01668,-2.593895 4.96147,-2.413587 1.15259,0.219961 3.23729,2.002334 7.96154,6.80694 9.74054,9.906204 38.81546,42.375749 43.76678,48.876745 0.59377,0.77961 0.597,0.799155 0.22667,1.371806 -1.57587,2.436763 -9.68084,9.885749 -12.26943,11.276393 l -0.88274,0.474229 -1.18456,-0.815841 c -0.96432,-0.664146 -3.16475,-3.001871 -4.73377,-5.029119 -0.26018,-0.336168 -0.0677,-0.600534 1.92408,-2.643044 1.47668,-1.51428 2.30106,-2.535808 2.47727,-3.069738 0.85865,-2.601722 -1.18525,-5.373985 -16.12948,-21.877412 -11.42437,-12.616328 -18.49759,-19.889191 -19.6163,-20.169968 -0.87909,-0.220637 -2.73041,0.273744 -3.86527,1.032188 -1.57188,1.050519 -1.93495,1.996856 -2.17137,5.659629 -0.26727,4.140666 -0.2578,29.261009 0.0121,32.15581 0.54431,5.837524 1.53144,7.551158 9.30995,16.161825 8.09368,8.95956 10.02289,11.6145 10.26415,14.12539 0.14155,1.47317 -0.48743,2.62218 -2.42693,4.43346 -0.87911,0.82099 -1.75747,1.57785 -1.95193,1.68192 -0.28241,0.15114 -0.84243,-0.30731 -2.78283,-2.27816 z"
     id="path204" /><path
     style="fill:#ffffff;stroke:none;stroke-width:5.65606;stroke-linecap:round;stroke-dasharray:none"
     d="m 410.11175,95.60229 c -0.80636,-0.490381 -3.64787,-3.169005 -4.49107,-4.23364 l -0.61639,-0.778253 3.32143,-2.842282 c 3.52819,-3.019207 7.6357,-6.283976 7.90608,-6.283976 0.42007,0 5.01799,4.823329 5.01799,5.263993 0,0.223445 -8.70262,8.00987 -9.92591,8.880931 -0.54048,0.384856 -0.5684,0.3847 -1.21213,-0.0068 z"
     id="path205" /><path
     style="fill:#ffffff;stroke:none;stroke-width:5.65606;stroke-linecap:round;stroke-dasharray:none"
     d="m 441.42212,63.267197 -2.6689,-2.802234 1.53683,-1.444924 c 4.13078,-3.883759 9.16689,-8.345866 10.22182,-9.056775 2.23912,-1.508914 2.68738,-1.399259 5.4515,1.333567 l 2.11412,2.09019 -4.00989,3.961665 c -3.19311,3.154707 -6.90071,6.406723 -9.73685,8.540389 -0.15787,0.118771 -1.15105,-0.776495 -2.90863,-2.621878 z"
     id="path206" /><path
     style="fill:#ffffff;stroke:none;stroke-width:5.65606;stroke-linecap:round;stroke-dasharray:none"
     d="m 469.1599,49.777721 c -0.90673,-0.55142 -5.15296,-4.686867 -7.77107,-7.568323 -1.99344,-2.193964 -4.47209,-5.355694 -4.47209,-5.704534 0,-1.055885 15.30899,-15.202437 18.02415,-16.655549 0.4532,-0.242545 0.60888,-0.20032 1.48573,0.402963 1.9015,1.308271 7.25588,6.990187 9.85236,10.455059 1.53697,2.051019 1.93082,2.799911 1.78275,3.389864 -0.17547,0.699126 -5.57033,6.208216 -8.98625,9.17652 -3.3924,2.94786 -6.91382,5.691315 -8.21243,6.398109 l -0.99066,0.539183 z"
     id="path207" /></svg>
