<?xml version="1.0" encoding="UTF-8" standalone="no"?>
<!-- Created with Inkscape (http://www.inkscape.org/) -->

<svg
   width="512"
   height="512"
   viewBox="0 0 512 512"
   version="1.1"
   id="svg1"
   xml:space="preserve"
   xmlns="http://www.w3.org/2000/svg"
   xmlns:svg="http://www.w3.org/2000/svg"><defs
     id="defs1" /><g
     id="g75"
     transform="translate(2.9846552,2.3877241)"><path
       style="fill:#d0d0d0;fill-opacity:1"
       d="m 265.27661,392.35741 -1.90499,-2.25 2.25,1.90499 c 2.11444,1.79022 2.70524,2.59501 1.90499,2.59501 -0.18976,0 -1.20226,-1.0125 -2.25,-2.25 z m -3.40499,-68.0629 c 0,-0.1721 1.4625,-1.6346 3.25,-3.25 l 3.25,-2.9371 -2.93709,3.25 c -2.73778,3.02946 -3.56291,3.70966 -3.56291,2.9371 z m 12.87244,-12.4371 c -1.24387,-1.58605 -1.2085,-1.62142 0.37756,-0.37755 1.66575,1.30637 2.19548,2.12755 1.37244,2.12755 -0.20765,0 -0.99515,-0.7875 -1.75,-1.75 z m -30.12244,-7.91228 c 0.6875,-0.27741 1.8125,-0.27741 2.5,0 0.6875,0.27742 0.125,0.50439 -1.25,0.50439 -1.375,0 -1.9375,-0.22697 -1.25,-0.50439 z m 53.25,-158.71527 c 0,-0.20766 0.7875,-0.99516 1.75,-1.75 1.58606,-1.24387 1.62143,-1.2085 0.37756,0.37755 -1.30637,1.66575 -2.12756,2.19548 -2.12756,1.37245 z"
       id="path82" /><path
       style="fill:#b9b9b9;fill-opacity:1"
       d="m 148.87162,339.22986 c 0,-0.20766 0.7875,-0.99516 1.75,-1.75 1.58606,-1.24387 1.62143,-1.2085 0.37756,0.37755 -1.30637,1.66575 -2.12756,2.19548 -2.12756,1.37245 z M 271.02951,174.60741 c 0,-1.375 0.22698,-1.9375 0.50439,-1.25 0.27741,0.6875 0.27741,1.8125 0,2.5 -0.27741,0.6875 -0.50439,0.125 -0.50439,-1.25 z M 410.62162,21.945134 c 0.6875,-0.277413 1.8125,-0.277413 2.5,0 0.6875,0.277412 0.125,0.504386 -1.25,0.504386 -1.375,0 -1.9375,-0.226974 -1.25,-0.504386 z"
       id="path81" /><path
       style="fill:#a3a3a3;fill-opacity:1"
       d="m 42.308711,452.35741 -2.937091,-3.25 3.25,2.9371 c 3.029456,2.73778 3.709652,3.5629 2.937091,3.5629 -0.172099,0 -1.634599,-1.4625 -3.25,-3.25 z m 6.435354,-8.5 c -1.243871,-1.58605 -1.2085,-1.62142 0.377555,-0.37755 0.9625,0.75484 1.75,1.54234 1.75,1.75 0,0.82303 -0.821185,0.2933 -2.127555,-1.37245 z M 173.68412,336.9243 c 0.72188,-0.28887 1.58438,-0.25334 1.91667,0.0789 0.33229,0.33229 -0.25834,0.56864 -1.3125,0.52522 -1.16495,-0.048 -1.4019,-0.28494 -0.60417,-0.60417 z m 91.11181,-46.06689 -2.42431,-2.75 2.75,2.42432 c 2.57029,2.26588 3.20859,3.07568 2.42431,3.07568 -0.17912,0 -1.41662,-1.2375 -2.75,-2.75 z"
       id="path80" /><path
       style="fill:#8c8c8c;fill-opacity:1"
       d="m 306.74406,253.85741 c -1.24387,-1.58605 -1.2085,-1.62142 0.37756,-0.37755 0.9625,0.75484 1.75,1.54234 1.75,1.75 0,0.82303 -0.82119,0.2933 -2.12756,-1.37245 z M 413.3305,70.540883 c -0.36253,-0.586592 -0.44468,-1.281 -0.18255,-1.543128 0.26212,-0.262128 0.74306,0.217811 1.06875,1.066531 0.67618,1.762108 0.0999,2.072058 -0.8862,0.476597 z"
       id="path79" /><path
       style="fill:#767676;fill-opacity:1"
       d="m 125.87162,280.22986 c 0,-0.20766 0.7875,-0.99516 1.75,-1.75 1.58606,-1.24387 1.62143,-1.2085 0.37756,0.37755 -1.30637,1.66575 -2.12756,2.19548 -2.12756,1.37245 z m 16.07895,-24.20578 c 0.048,-1.16494 0.28494,-1.4019 0.60416,-0.60417 0.28887,0.72188 0.25335,1.58438 -0.0789,1.91667 -0.33229,0.33229 -0.56864,-0.25833 -0.52522,-1.3125 z m 80.73355,-97.09978 c 0.72188,-0.28887 1.58438,-0.25334 1.91667,0.079 0.33229,0.33229 -0.25834,0.56864 -1.3125,0.52522 -1.16495,-0.048 -1.4019,-0.28494 -0.60417,-0.60417 z m 82.1875,-5.69444 c 0,-0.20766 0.7875,-0.99516 1.75,-1.75 1.58606,-1.24387 1.62143,-1.2085 0.37756,0.37755 -1.30637,1.66575 -2.12756,2.19548 -2.12756,1.37245 z"
       id="path78" /><path
       style="fill:#606060;fill-opacity:1"
       d="m 380.62162,306.94513 c 0.6875,-0.27741 1.8125,-0.27741 2.5,0 0.6875,0.27742 0.125,0.50439 -1.25,0.50439 -1.375,0 -1.9375,-0.22697 -1.25,-0.50439 z"
       id="path77" /><path
       style="fill:#494949;fill-opacity:1"
       d="m 269.95057,403.02408 c 0.048,-1.16494 0.28494,-1.4019 0.60416,-0.60417 0.28887,0.72188 0.25335,1.58438 -0.0789,1.91667 -0.33229,0.33229 -0.56864,-0.25833 -0.52522,-1.3125 z m -12.20651,-3.16667 c -1.24387,-1.58605 -1.2085,-1.62142 0.37756,-0.37755 0.9625,0.75484 1.75,1.54234 1.75,1.75 0,0.82303 -0.82119,0.2933 -2.12756,-1.37245 z M 377.68412,306.9243 c 0.72188,-0.28887 1.58438,-0.25334 1.91667,0.0789 0.33229,0.33229 -0.25834,0.56864 -1.3125,0.52522 -1.16495,-0.048 -1.4019,-0.28494 -0.60417,-0.60417 z m -13.8125,-205.69444 c 0,-0.20766 0.7875,-0.99516 1.75,-1.750001 1.58606,-1.243871 1.62143,-1.2085 0.37756,0.377555 -1.30637,1.665746 -2.12756,2.195476 -2.12756,1.372446 z m 3,-20.000001 c 0,-0.207655 0.7875,-0.995155 1.75,-1.75 1.58606,-1.243871 1.62143,-1.2085 0.37756,0.377555 -1.30637,1.665748 -2.12756,2.195479 -2.12756,1.372445 z"
       id="path76" /><path
       style="fill:#333333;fill-opacity:1"
       d="M 81.87162,480.24619 C 69.839773,476.96755 46.308605,457.67572 30.750535,438.33501 20.525025,425.62337 18.550994,421.72024 18.49729,414.10741 18.4161,402.59875 12.942226,408.20118 93.149968,337.70155 l 37.778352,-33.20577 -2.07491,-2.91394 c -1.1412,-1.60267 -2.49173,-3.17155 -3.00118,-3.48641 -0.50944,-0.31485 -1.40583,-2.35346 -1.99198,-4.53024 -1.74661,-6.48642 0.05,-10.85226 7.18361,-17.45675 l 6.14683,-5.69088 -1.74186,-2.94873 c -3.33309,-5.64247 -3.52439,-8.59264 -2.05009,-31.61544 1.56302,-24.40807 2.44192,-27.98828 8.22034,-33.48553 2.57393,-2.44869 62.96916,-36.86186 71.75254,-40.88456 5.81766,-2.66443 14.72742,-2.44891 21.08179,0.50995 3.91671,1.82378 7.4363,5.03127 15.35152,13.99023 5.64835,6.39316 10.48097,11.62393 10.73916,11.62393 0.25819,0 2.90683,-2.1375 5.88586,-4.75 4.6376,-4.06699 5.41825,-5.26098 5.42905,-8.30365 0.0287,-8.08348 8.61423,-19.18855 18.38623,-23.78193 5.97408,-2.80815 9.92927,-6.35271 14.73775,-13.20766 3.97602,-5.66821 8.85273,-9.58535 19.1243,-15.36128 3.1253,-1.75743 6.07286,-4.6321 8.66805,-8.45368 4.90381,-7.22118 9.52417,-11.3194 17.03751,-15.112125 3.64243,-1.83869 7.31018,-4.742317 9.70671,-7.684456 7.72588,-9.484776 14.90974,-16.01087 19.59373,-17.799705 5.25345,-2.006309 4.56179,0.371219 6.63036,-22.791319 1.11535,-12.488841 2.66041,-15.757182 10.30596,-21.800641 8.13981,-6.434148 16.66113,-7.638743 25.36507,-3.585669 3.74213,1.742562 7.08118,4.706596 12.94398,11.490231 4.34552,5.028039 8.28293,9.141888 8.7498,9.141888 1.60616,0 10.76317,-9.275504 10.76317,-10.902443 0,-3.455354 3.82932,-8.330405 12.12685,-15.438532 13.39908,-11.4783842 18.76614,-11.195238 29.72399,1.568127 10.96631,12.773202 10.65406,17.528878 -1.9027,28.979321 -8.21282,7.489224 -13.55966,10.703761 -17.94814,10.790483 -1.55623,0.03075 -4.294,1.760997 -7.25221,4.583315 l -4.75222,4.533911 3.50222,4.586711 c 3.8599,5.055163 4.51374,9.461257 2.09218,14.098767 -1.43432,2.746843 -17.29267,16.945076 -21.27423,19.047156 -4.91634,2.5956 -11.28118,0.56765 -15.62049,-4.97696 l -2.48073,-3.16979 -5.19977,4.38451 c -2.85988,2.41148 -9.42018,9.79147 -14.57845,16.39997 -34.25919,43.89101 -81.63045,102.39323 -84.50771,104.36471 -3.00786,2.06097 -4.22622,2.28205 -9.92859,1.80163 -6.43924,-0.54251 -6.53993,-0.51161 -10.77176,3.30593 -3.97204,3.58317 -4.18807,4.03723 -3.07899,6.47142 1.02885,2.25806 0.88449,3.03485 -1.05031,5.65181 l -2.2431,3.03395 5.61483,6.39537 c 13.57287,15.45971 39.87854,29.9715 64.49789,35.5809 18.40651,4.19384 19.76992,4.70031 22.58356,8.38918 1.44548,1.89513 2.8573,5.1541 3.13737,7.24217 0.67451,5.02886 -6.35165,40.19372 -8.85269,44.30635 -1.11173,1.82809 -3.76628,3.938 -6.44577,5.12326 -4.18012,1.84907 -5.35847,1.92783 -14.29592,0.95554 -31.98243,-3.47932 -60.18031,-15.57283 -83.70514,-35.89948 l -7.11004,-6.14343 -6.62237,7.37008 c -5.6651,6.30473 -15.42235,14.65617 -20.33591,17.40593 -1.17725,0.65883 -0.35804,5.04124 4.78888,25.61834 l 6.20907,24.82356 4.41499,4.10912 c 5.62782,5.23792 7.26541,8.39902 7.26541,14.02466 0,6.93976 -3.67043,10.42069 -16.78381,15.91727 -17.10284,7.1688 -29.56502,10.38713 -35.73757,9.22915 -4.44998,-0.83482 -10.05055,-5.69359 -11.3676,-9.86195 -0.5561,-1.76001 -1.49734,-8.60002 -2.09165,-15.20002 -1.39498,-15.49155 -2.70282,-25.18604 -4.65425,-34.5 -4.0547,-19.35263 -14.20674,-33.04398 -24.45298,-32.97803 -7.80393,0.0502 -17.14861,6.87044 -23.71778,17.31042 -5.75955,9.15331 -8.71265,17.27286 -28.75784,79.0698 l -11.64565,35.90219 -4.7726,4.77259 c -3.42715,3.42716 -6.267936,5.21666 -10.076932,6.34781 -6.194727,1.83964 -7.880654,1.86552 -13.941338,0.214 z m 12.598931,-10.54421 c 2.254412,-1.02383 4.990588,-3.15145 6.080389,-4.72804 1.08981,-1.57659 8.17386,-21.99153 15.74234,-45.36653 20.91461,-64.59402 22.29464,-67.87327 33.92509,-80.61327 l 5.84675,-6.40453 -8.70125,-9.9911 c -4.78569,-5.4951 -9.08866,-9.9911 -9.56216,-9.9911 -0.47349,0 -24.90958,21.12882 -54.302403,46.95292 -58.025751,50.98057 -57.142915,50.04634 -54.77181,57.96038 1.369905,4.57234 15.686853,22.55874 24.573625,30.87188 12.902012,12.06919 29.731078,23.24593 34.922044,23.19286 1.18165,-0.0121 3.992973,-0.85964 6.247385,-1.88347 z M 237.4052,415.16521 c 12.08188,-4.04285 21.9681,-8.81681 22.81187,-11.01564 0.3936,-1.02572 -1.24457,-3.3978 -4.80631,-6.95954 -6.25508,-6.25507 -6.43791,-6.75107 -14.54176,-39.4504 l -5.29557,-21.36778 -8.99376,-10.3861 c -7.72717,-8.92342 -9.2201,-10.21256 -10.60091,-9.15382 -1.67493,1.28426 -16.20105,13.86142 -19.50424,16.88737 -1.85222,1.69676 -1.81402,1.86384 1.61492,7.06299 4.91992,7.45986 6.27661,10.3296 8.66333,18.32512 2.81342,9.42496 4.80627,21.57115 6.70923,40.89211 1.86317,18.91705 2.45672,20.14742 9.26904,19.21369 2.40062,-0.32905 9.004,-2.15065 14.67416,-4.048 z M 375.47192,342.8421 c 1.31071,-0.87518 3.3997,-4.66577 3.3997,-6.16894 0,-0.64572 -2.57835,-1.06575 -6.54216,-1.06575 -22.82698,0 -55.73606,-13.95013 -80.95784,-34.31796 -6.42305,-5.18694 -7.10907,-5.50982 -8.32327,-3.91744 -3.60956,4.73374 -3.58365,4.79521 5.0675,12.02142 18.51259,15.46337 35.76584,24.34413 58.64251,30.18507 12.04243,3.0747 26.5303,4.7214 28.71356,3.2636 z M 218.20523,301.34766 c 9.80848,-8.57544 19.32649,-16.30013 21.15113,-17.16598 4.22213,-2.00353 11.51362,-2.01698 16.29738,-0.03 2.04483,0.84932 6.30115,4.09355 9.45848,7.2094 3.51435,3.46817 6.08007,5.29312 6.61595,4.70578 0.48143,-0.52767 6.56188,-9.01599 13.51211,-18.86294 l 12.63677,-17.90354 -3.5287,-4.09646 c -1.94079,-2.25305 -4.71353,-5.80168 -6.16166,-7.88583 l -2.63296,-3.78938 2.23247,-3.01957 c 1.89931,-2.56897 2.03495,-3.2705 0.90894,-4.70102 -8.32183,-10.57235 -56.34574,-64.11757 -58.30794,-65.0116 -1.43533,-0.65398 -4.72601,-1.17446 -7.31263,-1.15661 -4.23686,0.0292 -8.16788,1.98657 -39.66475,19.75 -28.92886,16.31513 -35.29695,20.29667 -36.904,23.07362 -1.61191,2.78534 -2.15902,6.92993 -3.21719,24.37166 -0.72018,11.87067 -0.90842,21.97976 -0.43259,23.23129 0.46332,1.21863 4.97096,6.90138 10.01698,12.62834 13.39208,15.19928 13.25151,13.55894 2.05384,23.96559 l -9.40717,8.74264 9.77741,11.11966 9.77741,11.11967 6.14856,-0.57996 c 3.99939,-0.37724 7.72148,-0.092 10.64855,0.81591 l 4.5,1.39586 7,-6.16738 c 3.85,-3.39207 15.02512,-13.18366 24.83361,-21.7591 z m -41.35383,15.22198 c -0.59982,-1.12077 -0.845,-2.81151 -0.54485,-3.7572 0.30014,-0.94568 8.44029,-8.64627 18.0892,-17.11242 9.64892,-8.46615 17.76785,-15.75602 18.04206,-16.19971 0.5674,-0.91807 -13.2042,-16.8929 -14.56305,-16.8929 -0.48768,0 -5.27803,3.84679 -10.64523,8.54842 -8.15403,7.14288 -10.24224,8.49935 -12.70034,8.25 -4.69976,-0.47675 -5.32179,-3.97232 -1.48455,-8.34269 4.7903,-5.45586 23.67746,-21.45573 25.32756,-21.45573 1.81732,0 5.14422,3.1549 14.49967,13.75 4.0066,4.5375 7.64551,8.25 8.08647,8.25 0.44097,0 2.04182,-1.06666 3.55747,-2.37036 l 2.75571,-2.37037 -1.94995,-2.72156 c -5.81007,-8.10916 -6.74344,-12.71419 -3.69995,-18.25468 2.52765,-4.60144 23.99475,-23.05341 28.40354,-24.41416 6.21078,-1.91692 10.35035,-0.42684 16.50585,5.94144 5.92502,6.12983 7.43397,8.76977 6.46053,11.30288 -0.56051,1.45858 -15.19049,14.56734 -71.06481,63.67552 -19.41413,17.06316 -22.5732,18.84879 -25.07533,14.17352 z m 73.33346,-69.88871 c 5.87772,-5.18457 10.68676,-9.68917 10.68676,-10.01022 0,-1.69284 -5.42764,-6.14049 -7.16409,-5.87058 -2.84829,0.44273 -22.64999,17.87205 -23.42936,20.62236 -0.48946,1.72725 0.0476,3.04951 2.11505,5.20747 3.2607,3.40344 1.60329,4.33026 17.79164,-9.94903 z m -92.91324,11.52648 c -2.27393,-2.27393 -3.40067,-4.3439 -3.40203,-6.25 -0.004,-5.45073 3.17205,-20.10044 5.01439,-23.12992 2.69178,-4.42628 48.29716,-44.38543 53.14378,-46.56425 15.22484,-6.84439 29.60967,13.40337 18.17399,25.58128 -4.26214,4.53877 -57.76963,51.39256 -60.13885,52.66052 -4.18482,2.23965 -9.14497,1.34868 -12.79128,-2.29763 z m 37.51239,-31.92866 c 15.5112,-13.65577 28.70455,-25.93127 29.31857,-27.2789 0.92267,-2.02503 0.76542,-2.92242 -0.90618,-5.17133 -4.22745,-5.68747 -5.1656,-5.15182 -31.52422,17.99933 -26.65045,23.40747 -25.31204,21.67061 -27.39308,35.54795 -0.54307,3.62147 -0.39388,4.36429 0.81939,4.07964 0.81584,-0.19142 14.17433,-11.52093 29.68552,-25.17669 z m 58.83761,90.81189 c 5.48045,-5.32196 6.25,-6.53181 6.25,-9.8259 0,-7.24354 -6.28551,-14.65733 -12.42669,-14.65733 -3.31778,0 -11.57331,5.00823 -11.57331,7.02098 0,1.68632 6.3055,4.97131 9.55,4.97529 3.78523,0.005 5.45,1.58343 5.45,5.16855 0,6.1079 -9.71455,6.29976 -18.64799,0.36829 -3.89543,-2.58642 -5.42798,-3.14227 -6.16845,-2.23728 -0.70181,0.85775 1.32479,3.85844 7.04452,10.43046 l 8.02978,9.22629 3.12107,-2.20004 c 1.71659,-1.21003 5.93357,-4.93121 9.37107,-8.26931 z m 128.3851,4.52355 c 0.39149,-1.92127 0.60118,-3.60383 0.46598,-3.73903 -0.13519,-0.13519 -4.71324,-0.70457 -10.17344,-1.26528 -24.18476,-2.48354 -46.15372,-11.66447 -69.07381,-28.86627 l -8.60332,-6.4569 -1.85302,2.41035 c -1.01916,1.3257 -1.85934,2.86035 -1.86707,3.41035 -0.008,0.55 2.6301,3.10829 5.86184,5.68509 25.71538,20.50392 55.18031,33.01188 76.5694,32.50397 l 7.96166,-0.18906 z m 2.40003,-15.06361 c 0.35923,-0.58126 0.38599,-2.1213 0.0595,-3.4223 -0.66057,-2.63195 -2.53238,-3.3835 -15.09459,-6.06063 -18.51135,-3.94495 -39.01896,-12.87779 -55.20424,-24.04625 l -9.20423,-6.35127 -2.1922,3.07866 -2.1922,3.07867 3.29948,2.63998 c 21.83017,17.46673 45.67776,28.60491 66.49339,31.05618 10.23189,1.20491 13.30346,1.21082 14.03513,0.027 z M 144.9386,292.38496 c 3.26316,-2.87236 5.93302,-5.70908 5.93302,-6.30384 0,-0.59475 -1.55595,-2.58946 -3.45768,-4.43268 l -3.45767,-3.35131 -4.54348,3.72303 c -6.24275,5.11547 -7.15725,7.05169 -4.86224,10.29458 3.18704,4.50336 3.80341,5.29267 4.13294,5.29267 0.17715,0 2.99195,-2.3501 6.25511,-5.22245 z m 154.01468,-70.62796 4.33888,-3.85042 -13.31818,-15.18247 c -14.5245,-16.55766 -13.15553,-15.83403 -19.35236,-10.22962 -1.5125,1.36791 -2.75,2.8677 -2.75,3.33286 0,1.06693 25.1203,29.78006 26.05373,29.78006 0.37898,0 2.64155,-1.73268 5.02793,-3.85041 z m 66.04638,-60.64959 c 26.39581,-33.12516 43.83577,-55.84693 43.84937,-57.12945 0.0229,-2.15992 -12.8826,-17.789875 -17.16645,-20.790401 -5.51229,-3.860956 -13.329,-0.205609 -20.60207,9.634193 -5.34632,7.233088 -11.02633,12.159918 -18.18489,15.773548 -4.89784,2.47242 -7.07204,4.44861 -11.53739,10.48666 -5.43588,7.3504 -10.04067,11.24916 -18.14296,15.36116 -2.28599,1.16016 -5.88599,4.19578 -8,6.74581 -9.07281,10.94413 -12.64188,14.24484 -19.42156,17.96119 -10.28001,5.6351 -15.02617,11.92216 -13.5226,17.91285 0.55844,2.22502 28.51566,35.25479 32.44924,38.33683 4.2607,3.33835 4.94527,2.59914 50.27931,-54.29239 z m 87.22533,-69.66834 c 4.48065,-3.94259 8.27736,-7.690906 8.43714,-8.329593 0.35767,-1.429738 -38.77341,-46.302533 -42.56113,-48.806122 -4.19307,-2.771528 -10.94353,-1.82352 -16.01057,2.248462 -5.00078,4.018731 -5.95935,6.385688 -6.70471,16.555597 -0.32248,4.4 -0.82769,10.487796 -1.12269,13.528435 l -0.53635,5.528435 4.46189,3.20429 4.46189,3.204289 0.72018,-13.232724 c 0.39609,-7.277999 1.2905,-14.617703 1.98757,-16.310454 1.4625,-3.551502 6.23542,-5.959841 9.95918,-5.025237 3.58429,0.899598 32.55423,33.862576 32.55423,37.041296 0,1.644924 -1.61713,3.821203 -5.10962,6.876347 l -5.10962,4.469771 2.29768,3.107776 c 1.26372,1.709277 2.70957,3.107776 3.21299,3.107776 0.50342,0 4.5813,-3.225755 9.06194,-7.168344 z m -24.0242,-3.831656 c 4.13601,-3.575 7.53706,-6.725 7.55788,-7 0.0208,-0.275 -1.47897,-2.272397 -3.33286,-4.43866 l -3.37072,-3.93866 -3.34173,2.616618 c -1.83796,1.43914 -6.01568,5.04286 -9.28383,8.008266 l -5.94209,5.391648 3.36514,4.187467 c 3.87523,4.822212 2.74543,5.202272 14.34821,-4.826679 z m -6.9523,-22.174097 c 0.48228,-0.373806 -0.86772,-2.812944 -3,-5.420307 l -3.87687,-4.74066 -0.6511,5.417532 c -0.35811,2.979643 -0.69561,6.968307 -0.75,8.863699 l -0.0989,3.446167 3.75,-3.443392 c 2.0625,-1.893865 4.14459,-3.749233 4.62687,-4.123039 z m 40.20652,-7.22035 3.91661,-3.394446 -3.11025,-3.855554 c -1.71064,-2.120554 -3.54811,-3.855553 -4.08325,-3.855553 -0.53515,0 -2.65176,1.473974 -4.70359,3.275497 l -3.73058,3.275497 3.14786,3.974503 c 1.73133,2.185977 3.48508,3.974503 3.89723,3.974503 0.41215,0 2.51183,-1.527501 4.66597,-3.394447 z m 25.01705,-15.228122 c 4.06976,-3.642413 7.39956,-7.058935 7.39956,-7.592271 0,-1.934298 -11.35406,-14.78516 -13.06307,-14.78516 -1.75199,0 -15.43693,12.625556 -15.43693,14.241918 0,1.826212 11.09781,14.758082 12.66502,14.758082 0.56973,0 4.36567,-2.980156 8.43542,-6.622569 z"
       id="path75" /></g><path
     style="fill:#ffffff;stroke:none;stroke-width:11.3121;stroke-linecap:round;stroke-dasharray:none"
     d="m 85.474031,471.76343 c -3.975868,-1.94258 -9.245956,-5.28541 -14.751241,-9.35676 -7.411584,-5.48113 -16.69476,-13.74072 -16.69476,-14.85395 0,-0.31492 -0.838257,-1.16345 -1.862793,-1.88561 -4.716321,-3.32437 -19.253628,-22.25798 -20.495562,-26.69374 -1.236246,-4.41543 0.03501,-6.71868 8.183031,-14.82591 7.892513,-7.85301 58.889634,-52.95354 90.117464,-79.69756 l 10.72863,-9.18816 2.30068,2.23723 c 1.26537,1.23047 5.30033,5.64223 8.96656,9.8039 l 6.66589,7.56668 -1.71674,2.03596 c -0.94422,1.11978 -1.92445,2.03684 -2.1783,2.03791 -0.70847,0.003 -3.2514,2.5364 -2.98256,2.97139 0.13058,0.21128 -0.78903,1.5941 -2.04357,3.07294 -3.43813,4.05284 -5.63043,7.4748 -8.16308,12.74178 -3.55432,7.39166 -6.17224,14.68593 -16.20761,45.15918 -14.26931,43.32991 -19.98256,60.07871 -21.55259,63.183 -1.14199,2.25795 -3.12061,3.96225 -6.634471,5.71462 -4.702085,2.34494 -6.841312,2.34075 -11.678978,-0.0229 z"
     id="path83" /><path
     style="fill:#ffffff;stroke:none;stroke-width:5.65606;stroke-linecap:round;stroke-dasharray:none"
     d="m 141.13437,299.30842 c -0.838,-0.88684 -3.97838,-5.34561 -4.29957,-6.10461 -1.02387,-2.41945 0.37896,-4.36678 7.17197,-9.9557 l 2.92185,-2.40394 2.63125,2.61501 c 2.92254,2.90451 4.08234,4.33672 4.08234,5.0412 0,0.78522 -7.00854,7.50645 -11.41841,10.95032 l -0.5495,0.42912 z"
     id="path84" /><path
     style="fill:#ffffff;stroke:none;stroke-width:5.65606;stroke-linecap:round;stroke-dasharray:none"
     d="m 187.3042,330.89583 c -5.19726,-1.68158 -8.56515,-1.97953 -15.27443,-1.35128 -3.75402,0.35152 -3.88968,0.35066 -4.24687,-0.0268 -1.00569,-1.06284 -18.99477,-21.6065 -18.99477,-21.69216 0,-0.0546 3.30097,-3.17329 7.3355,-6.93046 4.03452,-3.75716 7.74814,-7.29929 8.25249,-7.8714 2.54029,-2.88162 2.41693,-4.90324 -0.53997,-8.84894 -0.6959,-0.9286 -3.10802,-3.77901 -5.36027,-6.33424 -6.61671,-7.5068 -10.99724,-12.8415 -12.11441,-14.75319 -0.44224,-0.75676 -0.51701,-1.20771 -0.6152,-3.71059 -0.23842,-6.07763 0.88689,-27.72455 1.89803,-36.51113 0.65371,-5.68068 1.35662,-7.61587 3.48791,-9.60264 3.01007,-2.80595 10.61201,-7.41271 34.3781,-20.83308 18.64795,-10.53024 26.6884,-14.93086 31.76085,-17.38304 5.44787,-2.63367 5.75404,-2.72249 9.39331,-2.72494 2.22055,-0.001 3.52342,0.1042 4.74856,0.38522 l 1.68837,0.38727 3.17758,3.20053 c 8.70745,8.77035 46.09453,50.60998 54.39325,60.87112 0.77537,0.95873 1.46851,1.97719 1.54031,2.26325 0.17745,0.70702 -0.43357,1.8901 -2.23323,4.324 -0.81294,1.09944 -1.47807,2.0815 -1.47807,2.18235 0,0.62442 6.20018,8.81352 10.0641,13.29251 1.08107,1.25314 1.96558,2.37464 1.96558,2.4922 0,0.31276 -24.06428,34.33891 -25.51136,36.07227 -0.44407,0.53193 -0.67307,0.65162 -1.02999,0.53833 -0.81515,-0.25872 -3.00523,-2.00421 -3.00523,-2.39517 0,-0.36567 -1.79465,-2.22262 -4.3056,-4.45507 -0.82828,-0.73642 -1.29643,-1.02475 -1.39771,-0.86087 -0.10172,0.16458 -0.71626,-0.19887 -1.85045,-1.09439 -4.42188,-3.49137 -7.30589,-4.47389 -13.12885,-4.47272 -2.63132,5.3e-4 -3.63217,0.0893 -5.11639,0.45398 -2.48941,0.61159 -3.39646,1.10954 -6.80915,3.73805 -6.15583,4.74132 -10.95678,8.84416 -33.2062,28.37764 -8.39772,7.37263 -15.42559,13.5135 -15.61748,13.64638 -0.27407,0.18979 -0.75617,0.10982 -2.24831,-0.37297 z m -2.63513,-10.08611 c 2.39745,-0.91096 7.36609,-4.68057 15.71919,-11.92583 12.86811,-11.16147 56.47997,-49.69696 65.00333,-57.43703 10.7562,-9.7677 10.86892,-9.88946 10.86892,-11.74025 0,-2.14003 -1.23251,-4.13622 -5.22203,-8.45764 -2.66553,-2.88729 -4.78869,-4.79931 -6.75373,-6.0821 -2.3442,-1.53031 -3.5669,-1.93317 -6.19804,-2.04215 -2.97868,-0.12336 -5.09357,0.39037 -7.32021,1.77817 -5.96452,3.71752 -19.47573,15.28274 -24.30466,20.80411 -4.14385,4.73807 -4.69523,9.38695 -1.79762,15.15643 0.75261,1.49855 3.25165,5.40299 5.11864,7.99726 0.23764,0.33021 0.11369,0.50962 -1.05523,1.52754 -1.85174,1.61251 -3.5028,2.88729 -4.21963,3.25798 -0.60815,0.31449 -0.61194,0.31238 -2.21197,-1.22619 -0.88153,-0.84766 -4.12848,-4.34286 -7.21545,-7.76709 -6.54153,-7.25624 -10.01059,-10.80233 -11.62846,-11.88671 -1.57588,-1.05623 -2.30186,-1.03821 -3.92496,0.0974 -5.06806,3.546 -15.68236,12.61173 -21.21098,18.1164 -2.79963,2.78751 -3.4049,3.50769 -4.06265,4.83395 -1.77766,3.58439 -0.3649,5.97879 3.55356,6.02269 2.59299,0.0291 3.96957,-0.87732 12.67858,-8.3479 3.02664,-2.59625 6.57145,-5.55098 7.87734,-6.56606 2.11089,-1.64082 2.42529,-1.81945 2.83338,-1.60981 1.05247,0.54068 7.52745,7.6411 11.28123,12.37093 1.93613,2.43957 2.88671,3.94821 2.68914,4.26788 -0.18533,0.29986 -7.45087,6.84034 -14.89252,13.40633 -10.85621,9.57875 -18.38876,16.5288 -20.15571,18.59703 -0.96376,1.12809 -1.00681,1.23358 -0.99545,2.43907 0.0151,1.60627 1.02359,3.79928 2.02906,4.41237 0.85047,0.51859 2.15737,0.51977 3.51693,0.003 z m -12.95144,-57.21478 c 1.46733,-0.50148 3.12608,-1.7985 11.57603,-9.05159 21.26871,-18.2562 46.48937,-40.62956 49.96505,-44.32424 5.87012,-6.23997 5.42934,-15.79036 -1.02729,-22.25811 -4.49111,-4.49884 -10.45833,-5.89816 -16.25408,-3.8116 -1.12435,0.40478 -2.22202,1.08238 -4.32647,2.67073 -10.02808,7.5688 -35.79116,30.09003 -45.69124,39.94178 -4.24306,4.22234 -4.25081,4.23174 -4.90209,5.95101 -1.98624,5.24334 -4.39916,17.64277 -4.2031,21.5987 0.1,2.01763 0.45572,2.89551 1.97449,4.87284 1.92959,2.51218 4.87759,4.39854 7.68715,4.91883 1.08797,0.20148 3.94024,-0.0773 5.20155,-0.50835 z"
     id="path85" /><path
     style="fill:#ffffff;stroke:none;stroke-width:5.65606;stroke-linecap:round;stroke-dasharray:none"
     d="m 235.88525,259.34591 c -2.49766,-2.60807 -3.11714,-4.15129 -2.33122,-5.80749 1.3112,-2.76315 18.08567,-17.6919 22.27069,-19.82021 0.85104,-0.4328 1.08138,-0.46895 1.68838,-0.26497 1.84203,0.61901 5.82126,4.0001 6.13936,5.21652 0.0961,0.36748 -0.44591,0.98238 -2.97605,3.37621 -3.76208,3.55939 -15.55506,14.03799 -18.74569,16.6564 -1.43875,1.1807 -3.42017,2.36254 -3.96282,2.36364 -0.26906,5.5e-4 -1.06209,-0.65443 -2.08265,-1.7201 z"
     id="path86" /><path
     style="fill:#ffffff;stroke:none;stroke-width:5.65606;stroke-linecap:round;stroke-dasharray:none"
     d="m 221.27231,421.38993 c -0.35398,-0.16238 -0.90358,-0.6042 -1.22134,-0.98183 -1.52957,-1.8178 -2.10984,-4.74897 -3.40553,-17.20282 -2.46632,-23.70556 -4.31227,-34.30444 -7.84237,-45.02838 -1.73267,-5.26363 -3.45471,-8.67446 -7.58178,-15.0172 -2.76544,-4.2501 -3.10429,-5.01304 -2.62461,-5.90935 0.22644,-0.42309 5.85405,-5.4338 13.2945,-11.83714 7.21724,-6.21124 7.34174,-6.31016 7.94159,-6.31016 1.31194,0 2.90721,1.61682 12.49405,12.66282 l 6.13613,7.07007 3.83772,15.51196 c 9.26376,37.4439 9.74309,38.86577 14.86972,44.10882 2.57975,2.63833 5.52513,6.2549 5.81883,7.14483 0.19994,0.60582 0.17375,0.79186 -0.1784,1.26736 -1.51277,2.04262 -9.85386,6.10431 -19.74821,9.61637 -4.21002,1.49437 -10.14783,3.30674 -13.9711,4.26432 -3.44427,0.86265 -6.74525,1.13298 -7.8192,0.64033 z"
     id="path87" /><path
     style="fill:#ffffff;stroke:none;stroke-width:5.65606;stroke-linecap:round;stroke-dasharray:none"
     d="m 239.41257,324.34229 c -8.96264,-10.30102 -10.98366,-13.07216 -10.21188,-14.0021 0.59627,-0.71846 2.35766,-0.0481 5.80013,2.20743 5.12879,3.36042 10.90653,5.01331 14.71014,4.20825 2.937,-0.62163 4.17857,-2.07284 4.17857,-4.8841 0,-2.5823 -1.25189,-4.40606 -3.24669,-4.72977 -0.68814,-0.11167 -0.72904,-0.15273 -0.39598,-0.39739 0.34202,-0.25123 0.32438,-0.29081 -0.22268,-0.49966 -0.84352,-0.32203 -1.76007,-0.28118 -2.59645,0.1157 -0.69287,0.32879 -0.78721,0.31942 -2.35341,-0.23372 -2.72742,-0.96324 -5.385,-2.62579 -5.98279,-3.74276 -0.62557,-1.1689 3.41155,-4.41788 7.82128,-6.29439 3.05884,-1.30165 4.71835,-1.2689 7.60986,0.15021 1.86357,0.91461 4.72546,3.64401 5.87863,5.60649 2.34091,3.98376 2.98075,8.44572 1.61625,11.271 -1.0828,2.24203 -10.88671,11.66121 -15.8113,15.19083 -1.03372,0.7409 -1.94505,1.34709 -2.02519,1.34709 -0.0801,0 -2.22596,-2.3909 -4.76849,-5.31311 z"
     id="path88" /><path
     style="fill:#ffffff;stroke:none;stroke-width:5.65606;stroke-linecap:round;stroke-dasharray:none"
     d="m 370.41791,345.47008 c -6.33472,-0.55926 -16.11453,-2.37788 -23.24561,-4.32268 -21.53896,-5.87414 -38.08925,-14.58807 -55.94317,-29.45478 -4.80233,-3.99883 -6.21818,-5.32741 -6.87896,-6.45494 -0.70642,-1.20541 -0.58444,-1.98954 0.57777,-3.71442 1.18489,-1.75853 1.8767,-2.47007 2.39926,-2.46769 0.75101,0.003 2.40652,1.12407 6.85705,4.64167 5.38748,4.25817 8.5487,6.55493 13.5203,9.82312 19.91291,13.09015 41.58798,21.82863 59.68097,24.06087 1.47696,0.18222 4.86972,0.41477 7.53946,0.51676 3.00343,0.11475 5.21616,0.29641 5.80379,0.47648 0.85258,0.26126 0.94522,0.35202 0.90577,0.8874 -0.0554,0.75199 -1.27879,3.31389 -2.14142,4.48439 -0.99768,1.35376 -1.64111,1.59307 -4.4619,1.65955 -1.33527,0.0315 -3.41126,-0.0296 -4.61331,-0.13573 z"
     id="path89" /><path
     style="fill:#ffffff;stroke:none;stroke-width:5.65606;stroke-linecap:round;stroke-dasharray:none"
     d="m 369.22671,327.30744 c -16.82053,-1.59792 -38.28777,-10.4156 -57.93089,-23.79512 -3.84548,-2.61927 -9.87001,-7.10015 -12.56568,-9.34601 -2.08258,-1.73508 -4.74168,-4.33899 -4.74168,-4.64328 0,-0.89847 3.46704,-5.81097 3.87327,-5.48809 2.74361,2.18073 13.98514,10.35618 16.94914,12.32633 13.47002,8.95346 25.68681,14.76414 39.19305,18.64141 7.10363,2.03926 13.50383,3.24585 22.29287,4.20277 5.06159,0.55108 7.75328,0.88569 8.60016,1.06909 0.61273,0.13269 0.60791,0.36163 -0.0847,4.02457 l -0.56351,2.98007 -1.39064,0.13138 c -1.95466,0.18465 -11.3503,0.11358 -13.63136,-0.10312 z"
     id="path90" /><path
     style="fill:#ffffff;stroke:none;stroke-width:5.65606;stroke-linecap:round;stroke-dasharray:none"
     d="m 375.68983,309.04554 c -5.18438,-0.57781 -8.42887,-1.12212 -12.47796,-2.09333 -18.21145,-4.36818 -37.22184,-14.22084 -56.08574,-29.06796 -1.77015,-1.39323 -3.21846,-2.62036 -3.21846,-2.72696 0,-0.1066 0.9072,-1.47153 2.01601,-3.03319 1.29955,-1.8303 2.10583,-2.78721 2.26876,-2.69258 0.139,0.0807 2.76947,1.87571 5.84548,3.98883 3.07601,2.11313 6.75485,4.56861 8.17519,5.45662 11.40664,7.13153 24.8236,13.33223 37.41096,17.28961 4.787,1.50499 8.08478,2.36332 15.19539,3.95498 6.31517,1.41361 9.64212,2.40185 10.90957,3.24062 1.2189,0.80662 1.60818,1.62578 1.7113,3.60103 0.0787,1.50682 0.0405,1.73627 -0.34731,2.08635 -0.36944,0.33352 -0.53821,0.35759 -1.10994,0.15828 -0.90816,-0.31658 -1.65422,-0.2939 -2.35488,0.0716 -0.51761,0.27001 -0.65277,0.26395 -1.20746,-0.0541 -0.57361,-0.32886 -0.69915,-0.33134 -1.53733,-0.0304 -0.8437,0.30292 -1.23638,0.29162 -5.19358,-0.14942 z"
     id="path91" /><path
     style="fill:#ffffff;stroke:none;stroke-width:5.65606;stroke-linecap:round;stroke-dasharray:none"
     d="m 292.80388,223.65705 c -6.98987,-7.61319 -19.63368,-22.2518 -21.32766,-24.6925 l -0.54929,-0.79143 0.60908,-0.88025 c 0.72602,-1.04925 5.11042,-5.10142 6.03952,-5.58188 1.48936,-0.77018 2.89466,-0.0395 6.00315,3.12128 1.99474,2.02831 22.45031,25.27748 22.42566,25.48832 -0.0202,0.17239 -5.0525,4.54113 -7.00363,6.08007 -0.91978,0.72547 -1.85108,1.31904 -2.06956,1.31904 -0.24601,0 -1.81721,-1.5466 -4.12727,-4.06265 z"
     id="path92" /><path
     style="fill:#ffffff;stroke:none;stroke-width:5.65606;stroke-linecap:round;stroke-dasharray:none"
     d="m 319.20857,218.55734 c -1.45978,-0.64988 -3.59401,-2.7918 -9.79653,-9.83187 -12.02125,-13.64453 -23.59002,-27.85029 -24.08446,-29.57432 -0.76447,-2.66554 0.37658,-6.28669 2.96511,-9.40985 2.27796,-2.74845 5.20114,-4.99012 10.54985,-8.09026 3.33856,-1.93505 5.2888,-3.24847 7.19844,-4.84789 1.33841,-1.121 1.53959,-1.2258 1.76399,-0.91892 0.23437,0.32052 0.29423,0.31954 0.80204,-0.0132 0.54006,-0.35386 2.26521,-2.43862 2.26521,-2.7374 0,-0.0842 -0.207,-0.0873 -0.45999,-0.007 -0.29545,0.0938 0.24058,-0.63717 1.49859,-2.04349 1.07722,-1.20421 3.17026,-3.61405 4.65119,-5.35518 4.43617,-5.21561 6.46031,-6.95893 10.96357,-9.44258 1.46159,-0.8061 3.27475,-1.85137 4.02924,-2.32283 4.42103,-2.76256 8.65126,-6.83448 12.87387,-12.39208 4.67326,-6.15073 6.4854,-7.7727 12.02968,-10.76722 3.35509,-1.81212 6.46094,-3.88074 8.71779,-5.80639 0.89293,-0.76189 1.62351,-1.28747 1.62351,-1.16797 0,0.11951 0.18785,0.21729 0.41745,0.21729 0.25828,0 0.86182,-0.53872 1.58286,-1.41287 1.18096,-1.43174 1.35191,-1.75284 0.93317,-1.75284 -0.12772,0 0.25827,-0.53668 0.85777,-1.192626 0.5995,-0.655946 2.17771,-2.590462 3.50714,-4.298925 3.90035,-5.012374 6.8778,-7.795084 10.2727,-9.600795 3.91956,-2.084775 7.26379,-2.110537 10.21695,-0.07871 2.9094,2.00172 11.74882,12.05772 15.37631,17.492576 2.08101,3.11785 2.06386,2.87208 0.37465,5.37016 -4.54194,6.7168 -20.89334,27.76304 -48.05162,61.84831 -30.21052,37.91599 -37.07438,45.98135 -40.65366,47.76994 -1.4992,0.74915 -1.54928,0.75673 -2.42482,0.36695 z"
     id="path93" /><path
     style="fill:#ffffff;stroke:none;stroke-width:5.65606;stroke-linecap:round;stroke-dasharray:none"
     d="m 445.11102,100.12836 c -0.84312,-0.761707 -3.94908,-4.68307 -4.11498,-5.19527 -0.051,-0.157492 0.84355,-1.073737 2.05869,-2.108598 6.53171,-5.562652 8.40415,-7.981132 7.73917,-9.996059 -0.99319,-3.009374 -16.11203,-21.008574 -26.06183,-31.026975 -4.26194,-4.291325 -5.76013,-5.466583 -7.21163,-5.657184 -3.33758,-0.438268 -7.68814,1.878753 -9.057,4.823574 -1.07665,2.316179 -1.79955,8.790044 -2.53342,22.687552 -0.19921,3.772465 -0.38898,6.892402 -0.42171,6.933193 -0.0327,0.04079 -2.00781,-1.324632 -4.38909,-3.034273 -3.9838,-2.860189 -4.32206,-3.152647 -4.23545,-3.661965 0.10538,-0.619611 0.91633,-9.830442 1.57239,-17.859379 0.74527,-9.120583 1.42374,-11.577898 4.0056,-14.507765 3.97567,-4.511533 10.40707,-7.062193 15.24261,-6.045133 2.25972,0.475288 3.28059,1.13481 5.97246,3.85847 9.97538,10.093146 39.78236,44.652918 39.78236,46.125746 0,1.040341 -16.15907,15.416166 -17.32846,15.416166 -0.10297,0 -0.56184,-0.33844 -1.01971,-0.7521 z"
     id="path94" /><path
     style="fill:#ffffff;stroke:none;stroke-width:5.65606;stroke-linecap:round;stroke-dasharray:none"
     d="m 419.5004,97.693232 c -0.20767,-0.120856 -1.61242,-1.756219 -3.12165,-3.634143 l -2.74407,-3.414406 0.71153,-0.633141 c 0.39135,-0.348228 2.46089,-2.21337 4.59899,-4.144759 5.81562,-5.253377 12.60015,-10.945101 13.04654,-10.945101 0.33924,0 6.56391,7.590705 6.56391,8.004398 0,0.549624 -13.51591,12.436778 -16.11192,14.170326 -1.27112,0.848818 -2.19011,1.035162 -2.94333,0.596826 z"
     id="path95" /><path
     style="fill:#ffffff;stroke:none;stroke-width:5.65606;stroke-linecap:round;stroke-dasharray:none"
     d="m 458.5162,62.793915 c -0.63789,-0.637888 -2.16959,-2.41736 -3.40377,-3.95438 l -2.24397,-2.794583 0.52355,-0.428082 c 0.28795,-0.235445 1.45998,-1.245673 2.60452,-2.24495 2.08414,-1.819638 4.76525,-3.775877 5.17501,-3.775877 0.59138,0 6.82516,6.917526 6.82516,7.573774 0,0.376248 -6.67047,5.900718 -7.95453,6.587926 -0.29148,0.155997 -0.60274,-0.0406 -1.52597,-0.963828 z"
     id="path96" /><path
     style="fill:#ffffff;stroke:none;stroke-width:5.65606;stroke-linecap:round;stroke-dasharray:none"
     d="m 479.51452,50.770448 c -3.41898,-2.960838 -10.9902,-12.19732 -10.9902,-13.407449 0,-0.807564 2.59416,-3.692522 6.70378,-7.455242 4.96326,-4.544317 7.72023,-6.692588 8.58888,-6.692588 1.38291,0 10.83676,10.329354 12.57841,13.74328 l 0.40269,0.789331 -0.80916,1.023659 c -2.24834,2.844366 -14.02228,13.146121 -15.02478,13.146121 -0.0687,0 -0.72108,-0.5162 -1.44962,-1.147112 z"
     id="path97" /></svg>
