<?xml version="1.0" encoding="UTF-8" standalone="no"?>
<!-- Created with Inkscape (http://www.inkscape.org/) -->

<svg
   width="512"
   height="512"
   viewBox="0 0 512 512"
   version="1.1"
   id="svg1"
   xml:space="preserve"
   xmlns="http://www.w3.org/2000/svg"
   xmlns:svg="http://www.w3.org/2000/svg"><defs
     id="defs1" /><g
     id="g150"
     transform="translate(21.104702)"><path
       style="fill:#d0d0d0;fill-opacity:1"
       d="m 34.943275,391.23351 -2.424314,-2.75 2.75,2.42432 c 2.570289,2.26588 3.208588,3.07568 2.424314,3.07568 -0.179127,0 -1.416627,-1.2375 -2.75,-2.75 z m 108.552225,-14.5 -7.97654,-8.25 8.25,7.97654 c 7.66235,7.40837 8.70589,8.52346 7.97654,8.52346 -0.1504,0 -3.8629,-3.7125 -8.25,-8.25 z m 12.02346,-147.75 c 67.64832,-67.65 123.22195,-123 123.49695,-123 0.275,0 -54.84863,55.35 -122.49695,123 -67.648322,67.65 -123.22195,123 -123.49695,123 -0.275,0 54.848628,-55.35 122.49695,-123 z m -71.999999,119 c 0.995486,-1.1 2.034975,-2 2.309975,-2 0.275,0 -0.314489,0.9 -1.309975,2 -0.995486,1.1 -2.034975,2 -2.309975,2 -0.275,0 0.314489,-0.9 1.309975,-2 z m 15.5,-15.5 c 1.291749,-1.375 2.573629,-2.5 2.848629,-2.5 0.275,0 -0.55688,1.125 -1.84863,2.5 -1.291744,1.375 -2.573627,2.5 -2.848627,2.5 -0.275,0 0.556883,-1.125 1.848628,-2.5 z m 223.749999,-6.16228 c 0.6875,-0.27741 1.8125,-0.27741 2.5,0 0.6875,0.27741 0.125,0.50439 -1.25,0.50439 -1.375,0 -1.9375,-0.22698 -1.25,-0.50439 z m 6.5,-0.027 c 0.9625,-0.25153 2.5375,-0.25153 3.5,0 0.9625,0.25152 0.175,0.45732 -1.75,0.45732 -1.925,0 -2.7125,-0.2058 -1.75,-0.45732 z m -6.4375,-17.99379 c 0.72188,-0.28887 1.58438,-0.25335 1.91667,0.0789 0.33229,0.33229 -0.25834,0.56864 -1.3125,0.52521 -1.16495,-0.048 -1.4019,-0.28494 -0.60417,-0.60416 z m 18.6875,-226.316888 c 10.98969,-11 20.20625,-20 20.48125,-20 0.275,0 -8.49156,9 -19.48125,20 -10.98968,11 -20.20625,19.999998 -20.48125,19.999998 -0.275,0 8.49157,-8.999998 19.48125,-19.999998 z m 42.9687,-56.25 -5.9687,-6.25 6.25,5.968696 c 5.80572,5.54441 6.7076,6.531304 5.9687,6.531304 -0.15472,0 -2.96722,-2.8125 -6.25,-6.25 z m -10.9687,-1.75 c 2.14824,-2.2 4.1309,-4 4.4059,-4 0.275,0 -1.25766,1.8 -3.4059,4 -2.14824,2.2 -4.13089,4 -4.40589,4 -0.275,0 1.25765,-1.8 3.40589,-4 z m 34,-8 c 2.14824,-2.2 4.1309,-4 4.4059,-4 0.275,0 -1.25766,1.8 -3.4059,4 -2.14824,2.2 -4.13089,4 -4.40589,4 -0.275,0 1.25765,-1.8 3.40589,-4 z"
       id="path157" /><path
       style="fill:#b9b9b9;fill-opacity:1"
       d="m 91.018961,340.48351 c 2.987424,-3.025 5.65668,-5.5 5.93168,-5.5 0.275,0 -1.944256,2.475 -4.93168,5.5 -2.987424,3.025 -5.65668,5.5 -5.93168,5.5 -0.275,0 1.944256,-2.475 4.93168,-5.5 z m 20.999999,4.12245 c 0,-0.20766 0.7875,-0.99516 1.75,-1.75 1.58606,-1.24387 1.62143,-1.2085 0.37756,0.37755 -1.30637,1.66575 -2.12756,2.19548 -2.12756,1.37245 z m 226,-197.12245 C 395.49199,90.008512 442.74037,42.983512 443.01537,42.983512 c 0.275,0 -46.52338,47.025 -103.99641,104.499998 -57.47303,57.475 -104.72141,104.5 -104.99641,104.5 -0.275,0 46.52338,-47.025 103.99641,-104.5 z"
       id="path156" /><path
       style="fill:#a3a3a3;fill-opacity:1"
       d="m 182.51896,378.98351 c 11.54018,-11.55 21.20714,-21 21.48214,-21 0.275,0 -8.94196,9.45 -20.48214,21 -11.54018,11.55 -21.20714,21 -21.48214,21 -0.275,0 8.94196,-9.45 20.48214,-21 z M 96.018961,360.6706 c 0,-0.1721 1.4625,-1.6346 3.25,-3.25 l 3.249999,-2.93709 -2.93709,3.25 c -2.737781,3.02946 -3.562909,3.70965 -3.562909,2.93709 z m 70.999999,-7.18709 c -4.09747,-4.125 -7.22494,-7.5 -6.94994,-7.5 0.275,0 3.85247,3.375 7.94994,7.5 4.09747,4.125 7.22495,7.5 6.94995,7.5 -0.275,0 -3.85248,-3.375 -7.94995,-7.5 z m -58,-6 c 1.29175,-1.375 2.57363,-2.5 2.84863,-2.5 0.275,0 -0.55688,1.125 -1.84863,2.5 -1.29174,1.375 -2.57363,2.5 -2.84863,2.5 -0.275,0 0.55689,-1.125 1.84863,-2.5 z M 293.83146,103.3004 c 0.72188,-0.28887 1.58438,-0.25335 1.91667,0.079 0.33229,0.33229 -0.25834,0.56864 -1.3125,0.52521 -1.16495,-0.048 -1.4019,-0.28494 -0.60417,-0.60416 z"
       id="path155" /><path
       style="fill:#8c8c8c;fill-opacity:1"
       d="m 321.28799,393.29052 c 0.97297,-0.25354 2.32297,-0.23687 3,0.0371 0.67704,0.27392 -0.11903,0.48136 -1.76903,0.46098 -1.65,-0.0204 -2.20393,-0.2445 -1.23097,-0.49804 z m 11,0 c 0.97297,-0.25354 2.32297,-0.23687 3,0.0371 0.67704,0.27392 -0.11903,0.48136 -1.76903,0.46098 -1.65,-0.0204 -2.20393,-0.2445 -1.23097,-0.49804 z M 157.01896,379.48351 c 2.98742,-3.025 5.65668,-5.5 5.93168,-5.5 0.275,0 -1.94426,2.475 -4.93168,5.5 -2.98742,3.025 -5.65668,5.5 -5.93168,5.5 -0.275,0 1.94426,-2.475 4.93168,-5.5 z m 25,-25 c 3.54322,-3.575 6.66722,-6.5 6.94222,-6.5 0.275,0 -2.399,2.925 -5.94222,6.5 -3.54322,3.575 -6.66722,6.5 -6.94222,6.5 -0.275,0 2.399,-2.925 5.94222,-6.5 z m -78,-1.87755 c 0,-0.20766 0.7875,-0.99516 1.75,-1.75 1.58606,-1.24387 1.62143,-1.2085 0.37756,0.37755 -1.30637,1.66575 -2.12756,2.19548 -2.12756,1.37245 z"
       id="path154" /><path
       style="fill:#767676;fill-opacity:1"
       d="m 326.26896,393.29419 c 0.9625,-0.25153 2.5375,-0.25153 3.5,0 0.9625,0.25152 0.175,0.45732 -1.75,0.45732 -1.925,0 -2.7125,-0.2058 -1.75,-0.45732 z M 48.373916,370.48351 c -0.003,-4.95 0.166052,-7.10108 0.375776,-4.78017 0.209724,2.3209 0.212217,6.3709 0.0055,9 -0.206677,2.62909 -0.378269,0.73017 -0.381317,-4.21983 z m 109.645044,-1 c -2.42903,-2.475 -4.19141,-4.5 -3.91641,-4.5 0.275,0 2.48738,2.025 4.91641,4.5 2.42903,2.475 4.19142,4.5 3.91642,4.5 -0.275,0 -2.48739,-2.025 -4.91642,-4.5 z m -7.59501,-7.75 -1.90499,-2.25 2.25,1.90499 c 2.11445,1.79022 2.70524,2.59501 1.90499,2.59501 -0.18976,0 -1.20226,-1.0125 -2.25,-2.25 z m 81.09501,-132.75 c 3.26557,-3.3 6.16239,-6 6.43739,-6 0.275,0 -2.17182,2.7 -5.43739,6 -3.26557,3.3 -6.16239,6 -6.43739,6 -0.275,0 2.17182,-2.7 5.43739,-6 z m 12.5,-12.5 c 2.98742,-3.025 5.65668,-5.5 5.93168,-5.5 0.275,0 -1.94426,2.475 -4.93168,5.5 -2.98742,3.025 -5.65668,5.5 -5.93168,5.5 -0.275,0 1.94426,-2.475 4.93168,-5.5 z m 13,-13 c 3.54322,-3.575 6.66722,-6.5 6.94222,-6.5 0.275,0 -2.399,2.925 -5.94222,6.5 -3.54322,3.575 -6.66722,6.5 -6.94222,6.5 -0.275,0 2.399,-2.925 5.94222,-6.5 z m 70.98213,-70.75 c 9.73603,-9.98483 11.01787,-11.20434 11.01787,-10.48213 0,0.14733 -4.8375,4.98483 -10.75,10.75 l -10.75,10.48213 z m 53.51787,-53.749998 c 22.54497,-22.55 41.21585,-41 41.49085,-41 0.275,0 -17.94588,18.45 -40.49085,41 -22.54497,22.549998 -41.21585,40.999998 -41.49085,40.999998 -0.275,0 17.94588,-18.45 40.49085,-40.999998 z m 11.98124,-69.2500001 -9.98124,-10.24999998 10.25,9.98123838 c 9.52025,9.2706177 10.70461,10.5187617 9.98124,10.5187617 -0.14782,0 -4.76032,-4.6125 -10.25,-10.2500001 z"
       id="path153" /><path
       style="fill:#606060;fill-opacity:1"
       d="m 61.003955,392.23351 -12.484994,-12.75 12.75,12.485 c 7.0125,6.86674 12.75,12.60424 12.75,12.75 0,0.71844 -1.417731,-0.64156 -13.015006,-12.485 z m 56.515005,-100.25 c 37.94701,-37.95 69.21957,-69 69.49457,-69 0.275,0 -30.54756,31.05 -68.49457,69 -37.94701,37.95 -69.219564,69 -69.494564,69 -0.275,0 30.547554,-31.05 68.494564,-69 z m 101,-101 c 10.43914,-10.45 19.20526,-19 19.48026,-19 0.275,0 -8.04112,8.55 -18.48026,19 -10.43914,10.45 -19.20526,19 -19.48026,19 -0.275,0 8.04112,-8.55 18.48026,-19 z m 54.42431,-9.75 -2.42431,-2.75 2.75,2.42432 c 2.57029,2.26588 3.20859,3.07568 2.42431,3.07568 -0.17912,0 -1.41662,-1.2375 -2.75,-2.75 z m 24.07569,-17.75 c 11.26494,-11.275 20.70671,-20.5 20.98171,-20.5 0.275,0 -8.71677,9.225 -19.98171,20.5 -11.26494,11.275 -20.7067,20.5 -20.9817,20.5 -0.275,0 8.71676,-9.225 19.9817,-20.5 z m 21,-33 c 26.12066,-26.125 47.71711,-47.499998 47.99211,-47.499998 0.275,0 -20.87145,21.374998 -46.99211,47.499998 -26.12066,26.125 -47.7171,47.5 -47.9921,47.5 -0.275,0 20.87144,-21.375 46.9921,-47.5 z m -64.0249,31.97431 -3.41723,-3.52568 19.46775,-19.22432 19.46775,-19.22431 -18.9645,19.22767 -18.9645,19.22766 3.41398,3.52234 c 1.87769,1.93728 3.18898,3.52233 2.91398,3.52233 -0.275,0 -2.03775,-1.58656 -3.91723,-3.52569 z m 45.8374,-59.15742 c 0.72188,-0.28887 1.58438,-0.25335 1.91667,0.079 0.33229,0.33229 -0.25834,0.56864 -1.3125,0.52521 -1.16495,-0.048 -1.4019,-0.28494 -0.60417,-0.60416 z m 62.6875,-93.3168881 c 5.47936,-5.5 10.18748,-9.99999998 10.46248,-9.99999998 0.275,0 -3.98312,4.49999998 -9.46248,9.99999998 -5.47936,5.5000001 -10.18748,10.0000001 -10.46248,10.0000001 -0.275,0 3.98312,-4.5 9.46248,-10.0000001 z"
       id="path152" /><path
       style="fill:#494949;fill-opacity:1"
       d="m 106.01896,398.48351 c 9.0625,-9.075 16.70227,-16.5 16.97727,-16.5 0.275,0 -6.91477,7.425 -15.97727,16.5 -9.062496,9.075 -16.702267,16.5 -16.977267,16.5 -0.275,0 6.914771,-7.425 15.977267,-16.5 z m 27.48124,-6.75 -9.98124,-10.25 10.25,9.98124 c 5.6375,5.48968 10.25,10.10218 10.25,10.25 0,0.72337 -1.24814,-0.46099 -10.51876,-9.98124 z m 4.01876,-24.75 c 0.99549,-1.1 2.03498,-2 2.30998,-2 0.275,0 -0.31449,0.9 -1.30998,2 -0.99549,1.1 -2.03497,2 -2.30997,2 -0.275,0 0.31448,-0.9 1.30997,-2 z m 5,-5 c 0.99549,-1.1 2.03498,-2 2.30998,-2 0.275,0 -0.31449,0.9 -1.30998,2 -0.99549,1.1 -2.03497,2 -2.30997,2 -0.275,0 0.31448,-0.9 1.30997,-2 z m 56.5,-56.5 c 1.86578,-1.925 3.61733,-3.5 3.89233,-3.5 0.275,0 -1.02655,1.575 -2.89233,3.5 -1.86578,1.925 -3.61733,3.5 -3.89233,3.5 -0.275,0 1.02655,-1.575 2.89233,-3.5 z m 2.4866,-68.75 -13.9866,-14.25 14.25,13.9866 c 13.2376,12.99292 14.70289,14.5134 13.9866,14.5134 -0.14486,0 -6.55736,-6.4125 -14.25,-14.25 z m 190.25498,-179.741609 26.24157,-26.486777 3.25843,3.466382 3.25842,3.466382 -3.27845,-2.941539 -3.27845,-2.941539 -26.22155,25.961934 -26.22155,25.961934 z"
       id="path151" /><path
       style="fill:#333333;fill-opacity:1"
       d="m 132.32726,508.99545 c -3.28159,-1.35408 -4.26287,-3.27349 -16.36576,-32.01194 -6.13811,-14.575 -11.97309,-28.075 -12.96663,-30 -3.224524,-6.24755 -8.961834,-10.65591 -21.475909,-16.50135 l -12,-5.60531 -17.817486,-17.69667 c -9.799617,-9.73317 -18.462117,-18.91182 -19.25,-20.39701 -1.773914,-3.34389 -2.03415,-28.74019 -0.329086,-32.1154 1.510528,-2.99012 245.770291,-247.48151 248.896571,-249.1326 1.64976,-0.87128 9.00244,-1.56731 21.61939,-2.04655 l 19.1194,-0.72622 20.73765,-20.755305 20.73765,-20.755301 -6.19528,-17.714509 c -3.72706,-10.656979 -5.97456,-18.578898 -5.64127,-19.884141 0.30471,-1.193297 5.72921,-7.322132 12.05445,-13.619632 15.37209,-15.3046653 14.77812,-15.2940355 29.58855,-0.5295199 l 10.95445,10.9204799 4.26251,-4.103688 c 9.08398,-8.7455266 11.45907,-8.2295433 24.92342,5.41457 10.72092,10.864054 12.29875,13.236488 11.36685,17.091299 -0.42432,1.755181 -36.41344,38.461155 -106.04461,108.156857 l -105.40232,105.5 -1.93858,8.7803 -1.93858,8.78029 5.37894,4.64384 c 34.11076,29.44908 83.84933,41.17839 127.93357,30.16918 8.93252,-2.23073 12.29069,-1.70219 14.81527,2.33176 1.46216,2.33634 12.66854,64.90434 12.66854,70.73161 0,6.71292 -1.87429,7.8899 -17.5,10.98926 -16.78036,3.32838 -31.30328,4.3872 -51.89249,3.78333 -19.94115,-0.58487 -31.30618,-2.07124 -48.10751,-6.29171 -20.65144,-5.18761 -43.04195,-14.28637 -59.5,-24.17881 l -8.5,-5.1091 -21.25,21.1763 c -11.6875,11.64697 -21.25,21.78557 -21.25,22.53022 0,0.74466 5.175,19.2297 11.5,41.07787 6.325,21.84818 11.5,40.88049 11.5,42.29403 0,1.41353 -0.7875,3.51327 -1.75,4.66608 -1.58107,1.89369 -41.44711,19.50707 -46.60631,20.59133 -1.17903,0.24778 -3.12996,0.0436 -4.33539,-0.45384 z m 31.4417,-29.06903 c 1.2375,-0.49137 2.25,-1.27264 2.25,-1.73614 0,-0.4635 -4.9175,-17.87146 -10.92777,-38.68436 l -10.92778,-37.84163 -9.80346,-9.84039 c -5.39191,-5.41221 -10.26702,-9.84039 -10.83359,-9.84039 -1.24289,0 -34.105579,32.75014 -33.460074,33.34547 0.248971,0.22962 3.350563,1.87041 6.892425,3.64619 8.162059,4.09222 16.952549,12.44096 20.845199,19.79765 2.46449,4.65763 10.53371,23.28625 20.5517,47.44569 l 1.54876,3.73501 10.8073,-4.56685 c 5.94401,-2.51176 11.81979,-4.96887 13.05729,-5.46025 z m 50.36359,-220.4538 1.97698,-8.87248 -13.78189,-13.80831 c -7.58003,-7.59458 -14.23671,-13.80832 -14.7926,-13.80832 -0.5559,0 -32.17443,31.16129 -70.2634,69.2473 l -69.252679,69.24731 v 8.98929 8.98929 l 13.242595,13.26991 13.242595,13.26991 68.825709,-68.82572 68.82571,-68.82571 z M 86.288886,364.18557 c -3.061689,-0.46121 -6.269925,-4.8333 -6.269925,-8.54446 0,-2.60346 1.953551,-5.02624 12.792453,-15.86515 11.845146,-11.84514 13.070366,-12.79245 16.545456,-12.79245 4.85735,0 8.66209,3.56602 8.66209,8.11861 0,2.76918 -1.72942,4.95737 -12.60513,15.94898 -12.21815,12.34835 -14.399361,13.84634 -19.124944,13.13447 z m 71.743284,15.28457 5.44489,-5.51338 -8.14958,-8.14958 -8.14958,-8.14958 -5.80308,5.6659 -5.80308,5.6659 7.95015,7.99706 c 4.37258,4.39838 8.20108,7.99705 8.50777,7.99705 0.30669,0 3.00782,-2.48102 6.00251,-5.51337 z M 361.97282,373.549 c 5.19963,-0.90194 9.60525,-1.79127 9.79028,-1.97629 0.37756,-0.37756 -7.67917,-47.67506 -8.28917,-48.66206 -0.21446,-0.34701 -3.66707,0.0568 -7.67245,0.89726 -5.14042,1.07868 -13.31244,1.53475 -27.78252,1.55051 -17.55883,0.0191 -22.00645,-0.30123 -31,-2.23287 -26.64816,-5.72351 -50.29692,-16.76439 -70.23527,-32.79068 l -6.73527,-5.41376 -17.58054,17.59944 c -14.59617,14.61187 -17.37505,17.84705 -16.37001,19.05804 2.29528,2.76564 18.44231,15.16534 26.96345,20.7059 25.11992,16.33329 56.18526,27.85836 86.45764,32.07533 14.32721,1.99579 48.8583,1.54748 62.45386,-0.81082 z m -179.11985,-18.89838 7.28395,-7.33289 -8.64628,-7.24309 c -8.50611,-7.12566 -8.67981,-7.21348 -10.71425,-5.41711 -3.95205,3.48961 -10.75743,10.55324 -10.75743,11.16566 0,0.43793 15.08149,16.16032 15.50157,16.16032 0.0267,0 3.32626,-3.2998 7.33244,-7.33289 z m 68.65488,-170.66878 -13.00323,-13.00323 -19.4808,19.50004 -19.48081,19.50004 12.97917,13.00805 12.97918,13.00805 19.50486,-19.50486 19.50486,-19.50487 z m 99.50277,-73.48999 73.48656,-73.491658 -3.24745,-3.247449 -3.24745,-3.24745 -73.49166,73.486557 c -40.42041,40.41761 -73.49166,73.9087 -73.49166,74.42466 0,1.32729 4.13299,5.567 5.42687,5.567 0.59303,0 34.14718,-33.07125 74.56479,-73.49166 z m -69.99166,32.99166 22.48333,-22.5 h -7.50153 -7.50154 l -18.95795,18.97767 -18.95794,18.97766 3.41398,3.52234 c 1.87769,1.93728 3.66696,3.52233 3.97615,3.52233 0.30919,0 10.67967,-10.125 23.0455,-22.5 z m 103.77668,-103.775178 7.22663,-7.275179 -6.78521,-6.733214 -6.78521,-6.733214 -4.33077,4.41274 -4.33078,4.412739 3.19679,9.595654 c 1.75824,5.27761 3.50845,9.595654 3.88936,9.595654 0.38091,0 3.94455,-3.273831 7.91919,-7.27518 z"
       id="path150" /></g><path
     style="fill:#ffffff;stroke:none;stroke-width:11.3121;stroke-linecap:round;stroke-dasharray:none"
     d="m 95.39324,405.19884 c 0,-0.57259 -16.667172,-17.41073 -23.53174,-23.77312 -2.38635,-2.21178 -2.638087,-2.60574 -2.638087,-4.1285 0,-1.01478 0.167648,-1.57978 0.422094,-1.42253 0.273469,0.16902 0.422094,-1.75434 0.422094,-5.46231 0,-3.75127 -0.154211,-5.72318 -0.447574,-5.72318 -0.250431,0 -0.389871,-0.60424 -0.31657,-1.37181 0.11355,-1.18904 2.577124,-3.76851 18.492091,-19.36197 10.098599,-9.89459 41.393542,-41.10202 69.544332,-69.34983 46.41035,-46.57032 51.25534,-51.30851 51.95653,-50.81115 0.42531,0.30168 6.78403,6.65004 14.13048,14.10746 l 13.35718,13.55894 -1.8682,8.36389 -1.86821,8.36389 -68.82721,68.82721 c -37.85497,37.85497 -68.82721,68.53732 -68.82721,68.18301 z m 15.69206,-40.94538 c 0.85355,-0.23707 2.49492,-1.07972 3.6475,-1.87255 1.15257,-0.79283 2.21515,-1.32193 2.3613,-1.17579 0.34494,0.34493 3.62164,-2.867 5.81134,-5.69646 0.94322,-1.2188 1.92927,-2.2206 2.19123,-2.22622 0.82187,-0.0176 10.82723,-10.34049 11.02679,-11.37668 0.10443,-0.54228 0.55272,-1.38359 0.9962,-1.8696 1.58654,-1.73868 2.27499,-3.66651 2.07025,-5.79725 -0.62274,-6.48105 -8.81632,-9.79102 -13.81824,-5.58218 -0.6793,0.57159 -1.65085,1.11932 -2.159,1.21718 -1.14934,0.22135 -19.92091,18.94292 -19.99856,19.9453 -0.0311,0.40141 -0.56888,1.60127 -1.19509,2.66635 -1.43384,2.43873 -1.44294,4.25147 -0.0355,7.07578 2.0266,4.06686 5.29207,5.75025 9.10181,4.69212 z"
     id="path158" /><path
     style="fill:#ffffff;stroke:none;stroke-width:11.3121;stroke-linecap:round;stroke-dasharray:none"
     d="m 161.09921,489.31933 c -0.10947,-0.1779 -2.67021,-6.22198 -5.69055,-13.4313 -11.85561,-28.2984 -16.0906,-37.53123 -19.04013,-41.50992 -4.88062,-6.5836 -12.34996,-12.67198 -20.96008,-17.08491 l -3.8331,-1.96457 16.45644,-16.4689 c 9.05105,-9.05789 16.61228,-16.41549 16.80274,-16.35022 0.19047,0.0653 4.88367,4.64255 10.42935,10.17172 l 10.08305,10.05303 9.54469,33.2116 c 13.29545,46.26268 12.15213,41.94162 11.31863,42.77761 -0.38497,0.38612 -6.01833,2.92273 -12.51858,5.63693 -6.50024,2.71419 -11.94796,5.01307 -12.10603,5.10864 -0.15808,0.0956 -0.37697,0.0282 -0.48643,-0.14971 z"
     id="path159" /><path
     style="fill:#ffffff;stroke:none;stroke-width:11.3121;stroke-linecap:round;stroke-dasharray:none"
     d="m 165.39106,376.6981 -7.73896,-7.62145 1.22564,-1.01328 c 0.6741,-0.5573 1.59509,-1.63945 2.04664,-2.40477 0.45155,-0.76532 1.06296,-1.39149 1.35869,-1.39149 0.52119,0 2.73294,-2.32813 4.84147,-5.09621 l 1.03056,-1.35292 0.86887,1.14092 c 1.98635,2.60832 4.61126,5.30821 5.16081,5.30821 0.32374,0 0.70333,0.3324 0.84353,0.73866 0.14019,0.40627 2.07448,2.5875 4.29841,4.84718 l 4.04352,4.10851 -5.12011,5.17904 -5.12011,5.17904 z"
     id="path160" /><path
     style="fill:#ffffff;stroke:none;stroke-width:11.3121;stroke-linecap:round;stroke-dasharray:none"
     d="m 195.00742,359.36937 c -0.81253,-1.05112 -4.19346,-4.56638 -7.51318,-7.81169 l -6.03585,-5.90055 2.79192,-3.11948 c 1.53556,-1.71572 4.2174,-4.39528 5.95966,-5.95459 l 3.16773,-2.8351 1.40685,0.67088 c 1.51603,0.72294 15.84035,12.4916 15.84035,13.01421 0,0.17352 -0.34148,0.42389 -0.75885,0.55635 -0.96385,0.30592 -12.74816,12.16416 -12.74816,12.82814 0,0.90615 -0.61874,0.48158 -2.11047,-1.44817 z"
     id="path161" /><path
     style="fill:#ffffff;stroke:none;stroke-width:11.3121;stroke-linecap:round;stroke-dasharray:none"
     d="m 326.70074,374.77152 c -12.27559,-0.97652 -31.66216,-5.31755 -46.00824,-10.30214 -16.61989,-5.77464 -33.54044,-14.00141 -46.85243,-22.77967 -9.70546,-6.40002 -26.59192,-19.54146 -26.59192,-20.69446 0,-1.14529 3.96102,-5.44407 18.70668,-20.3018 l 15.20046,-15.31598 1.09095,0.81455 c 0.60002,0.44801 3.27528,2.5363 5.94502,4.64066 20.51304,16.16887 43.81259,26.97707 70.03887,32.48963 8.43511,1.773 13.30699,2.11289 30.17624,2.10528 16.53089,-0.007 22.05129,-0.32035 30.33502,-1.71939 2.96959,-0.50153 5.48386,-0.82727 5.58727,-0.72387 0.61938,0.61938 8.53541,47.86031 8.09382,48.3019 -0.41363,0.41363 -9.48942,2.14457 -14.01523,2.67299 -10.57766,1.23503 -40.48607,1.70488 -51.70651,0.8123 z m 20.04182,-48.0584 c 0.31327,-0.50689 -1.64785,-1.04049 -2.55073,-0.69402 -0.36346,0.13947 -0.54261,0.44487 -0.39813,0.67866 0.33603,0.5437 2.61499,0.55557 2.94886,0.0154 z m 6.90235,0.13435 c 0.73599,-0.19707 0.84282,-0.35422 0.4221,-0.62092 -0.75647,-0.47952 -3.61874,-0.4678 -3.91777,0.0161 -0.45353,0.73382 1.65285,1.09829 3.49567,0.60487 z"
     id="path162" /><path
     style="fill:#ffffff;stroke:none;stroke-width:11.3121;stroke-linecap:round;stroke-dasharray:none"
     d="m 234.09587,222.91039 -12.59466,-12.5999 16.44948,-16.40999 c 9.04722,-9.02549 17.68746,-17.76496 19.20055,-19.42105 l 2.75107,-3.01107 12.5118,12.51702 12.5118,12.51702 -6.52909,6.65874 c -3.59101,3.66231 -6.68038,6.81558 -6.86527,7.00727 -0.18489,0.19169 -2.679,2.60464 -5.54246,5.3621 -2.86347,2.75747 -5.48005,5.53592 -5.81464,6.17433 -0.33458,0.63842 -0.84352,1.16076 -1.13097,1.16076 -0.57245,0 -11.36238,10.7367 -11.97417,11.91509 -0.31538,0.60747 -2.48701,-1.37951 -12.97344,-11.87032 z"
     id="path163" /><path
     style="fill:#ffffff;stroke:none;stroke-width:11.3121;stroke-linecap:round;stroke-dasharray:none"
     d="m 276.15531,162.14349 -2.98005,-3.28434 18.56754,-18.85909 18.56754,-18.85909 h 6.8218 6.82179 l -20.89205,20.9209 c -11.49063,11.50649 -21.57481,21.47104 -22.40929,22.14344 l -1.51724,1.22253 z"
     id="path164" /><path
     style="fill:#ffffff;stroke:none;stroke-width:11.3121;stroke-linecap:round;stroke-dasharray:none"
     d="m 294.85167,181.09754 -2.49368,-2.51997 52.95089,-53.09423 c 29.12298,-29.20182 62.10461,-62.183904 73.29249,-73.293514 l 20.34162,-20.199293 1.13906,0.895989 c 0.62649,0.492793 1.99172,1.681938 3.03385,2.642544 l 1.8948,1.746557 -1.22258,0.844344 c -1.93091,1.333537 -78.03515,77.397243 -80.84808,80.805013 -1.3893,1.6831 -2.73094,3.06018 -2.98141,3.06018 -0.25048,0 -14.29579,13.8183 -31.21181,30.70734 -16.91602,16.88903 -30.90155,30.75631 -31.07894,30.81617 -0.1774,0.0599 -1.44469,-1.02515 -2.81621,-2.41113 z"
     id="path165" /><path
     style="fill:#ffffff;stroke:none;stroke-width:11.3121;stroke-linecap:round;stroke-dasharray:none"
     d="m 396.7807,44.003298 c -0.52194,-1.334873 -1.95649,-5.410722 -3.18789,-9.057443 l -2.23891,-6.630403 3.75636,-3.675799 c 2.066,-2.02169 3.86155,-4.007186 3.9901,-4.412214 0.1804,-0.568386 1.53969,0.627465 5.9574,5.241075 3.14802,3.287618 6.17805,6.176296 6.73341,6.419283 0.97007,0.424442 0.73107,0.718721 -6.08495,7.492168 -3.90207,3.877705 -7.29309,7.050373 -7.5356,7.050373 -0.24251,0 -0.86798,-1.092168 -1.38992,-2.42704 z"
     id="path166" /></svg>
