<?xml version="1.0" encoding="UTF-8" standalone="no"?>
<!-- Created with Inkscape (http://www.inkscape.org/) -->

<svg
   width="512"
   height="512"
   viewBox="0 0 512 512"
   version="1.1"
   id="svg1"
   xml:space="preserve"
   xmlns="http://www.w3.org/2000/svg"
   xmlns:svg="http://www.w3.org/2000/svg"><defs
     id="defs1" /><g
     id="g98"
     transform="translate(-79.391829,-126.54938)"><path
       style="fill:#d0d0d0;fill-opacity:1"
       d="m 177.28365,511.66089 c -2.42903,-2.475 -4.19141,-4.5 -3.91641,-4.5 0.275,0 2.48738,2.025 4.91641,4.5 2.42903,2.475 4.19142,4.5 3.91642,4.5 -0.275,0 -2.48739,-2.025 -4.91642,-4.5 z m 202.87245,-239.25 c -1.24387,-1.58606 -1.2085,-1.62143 0.37755,-0.37756 1.66575,1.30637 2.19548,2.12756 1.37245,2.12756 -0.20766,0 -0.99516,-0.7875 -1.75,-1.75 z m -91.12245,-11.91228 c 0.6875,-0.27741 1.8125,-0.27741 2.5,0 0.6875,0.27741 0.125,0.50438 -1.25,0.50438 -1.375,0 -1.9375,-0.22697 -1.25,-0.50438 z"
       id="path105" /><path
       style="fill:#b9b9b9;fill-opacity:1"
       d="m 180.3626,599.57756 c 0.048,-1.16495 0.28494,-1.4019 0.60417,-0.60417 0.28887,0.72187 0.25334,1.58437 -0.0789,1.91667 -0.33229,0.33229 -0.56864,-0.25834 -0.52522,-1.3125 z m -68.64186,-49.66667 -2.93709,-3.25 3.25,2.93709 c 3.02946,2.73778 3.70965,3.56291 2.93709,3.56291 -0.1721,0 -1.6346,-1.4625 -3.25,-3.25 z m -6.0321,-6 -1.90499,-2.25 2.25,1.90499 c 2.11445,1.79021 2.70524,2.59501 1.90499,2.59501 -0.18976,0 -1.20226,-1.0125 -2.25,-2.25 z"
       id="path104" /><path
       style="fill:#a3a3a3;fill-opacity:1"
       d="m 102.1561,555.41089 c -1.24387,-1.58606 -1.2085,-1.62143 0.37755,-0.37756 0.9625,0.75485 1.75,1.54235 1.75,1.75 0,0.82304 -0.82118,0.29331 -2.12755,-1.37244 z m 186.2065,-54.83333 c 0.048,-1.16495 0.28494,-1.4019 0.60417,-0.60417 0.28887,0.72187 0.25334,1.58437 -0.079,1.91667 -0.33229,0.33229 -0.56864,-0.25834 -0.52522,-1.3125 z M 530.09615,205.47777 c 0.72188,-0.28887 1.58438,-0.25334 1.91667,0.079 0.33229,0.33229 -0.25833,0.56864 -1.3125,0.52522 -1.16494,-0.048 -1.4019,-0.28494 -0.60417,-0.60417 z"
       id="path103" /><path
       style="fill:#8c8c8c;fill-opacity:1"
       d="m 169.24949,518.41089 -5.46584,-5.75 5.75,5.46584 c 5.34194,5.07794 6.2081,6.03416 5.46584,6.03416 -0.15628,0 -2.74378,-2.5875 -5.75,-5.75 z m 119.11311,0.16667 c 0.048,-1.16495 0.28494,-1.4019 0.60417,-0.60417 0.28887,0.72187 0.25334,1.58437 -0.079,1.91667 -0.33229,0.33229 -0.56864,-0.25834 -0.52522,-1.3125 z"
       id="path102" /><path
       style="fill:#767676;fill-opacity:1"
       d="m 97.156098,550.41089 c -1.243871,-1.58606 -1.2085,-1.62143 0.377555,-0.37756 0.9625,0.75485 1.75,1.54235 1.75,1.75 0,0.82304 -0.821185,0.29331 -2.127555,-1.37244 z M 288.3626,515.57756 c 0.048,-1.16495 0.28494,-1.4019 0.60417,-0.60417 0.28887,0.72187 0.25334,1.58437 -0.079,1.91667 -0.33229,0.33229 -0.56864,-0.25834 -0.52522,-1.3125 z m 0,-10 c 0.048,-1.16495 0.28494,-1.4019 0.60417,-0.60417 0.28887,0.72187 0.25334,1.58437 -0.079,1.91667 -0.33229,0.33229 -0.56864,-0.25834 -0.52522,-1.3125 z m -107,-112 c 0.048,-1.16495 0.28494,-1.4019 0.60417,-0.60417 0.28887,0.72187 0.25334,1.58437 -0.0789,1.91667 -0.33229,0.33229 -0.56864,-0.25834 -0.52522,-1.3125 z"
       id="path101" /><path
       style="fill:#606060;fill-opacity:1"
       d="m 317.3626,517.57756 c 0.048,-1.16495 0.28494,-1.4019 0.60417,-0.60417 0.28887,0.72187 0.25334,1.58437 -0.079,1.91667 -0.33229,0.33229 -0.56864,-0.25834 -0.52522,-1.3125 z m -28.82676,-6.91667 c 0.0111,-2.2 0.21588,-2.98225 0.45507,-1.73834 0.2392,1.24391 0.23012,3.04391 -0.0202,4 -0.25029,0.95609 -0.44599,-0.0617 -0.43489,-2.26166 z m -10.02018,-0.5 c 0,-1.925 0.20579,-2.7125 0.45732,-1.75 0.25153,0.9625 0.25153,2.5375 0,3.5 -0.25153,0.9625 -0.45732,0.175 -0.45732,-1.75 z M 217.09615,361.47777 c 0.72188,-0.28887 1.58438,-0.25334 1.91667,0.0789 0.33229,0.33229 -0.25833,0.56864 -1.3125,0.52522 -1.16494,-0.048 -1.4019,-0.28494 -0.60417,-0.60417 z M 474.4786,246.66089 c 0.0204,-1.65 0.2445,-2.20394 0.49804,-1.23097 0.25355,0.97297 0.23687,2.32297 -0.037,3 -0.27392,0.67703 -0.48137,-0.11903 -0.46099,-1.76903 z"
       id="path100" /><path
       style="fill:#494949;fill-opacity:1"
       d="m 278.3626,514.57756 c 0.048,-1.16495 0.28494,-1.4019 0.60417,-0.60417 0.28887,0.72187 0.25334,1.58437 -0.079,1.91667 -0.33229,0.33229 -0.56864,-0.25834 -0.52522,-1.3125 z m 0.079,-9.41667 c 0,-1.375 0.22697,-1.9375 0.50438,-1.25 0.27742,0.6875 0.27742,1.8125 0,2.5 -0.27741,0.6875 -0.50438,0.125 -0.50438,-1.25 z"
       id="path99" /><path
       style="fill:#333333;fill-opacity:1"
       d="m 159.07501,623.17248 c -4.90044,-1.47721 -8.41131,-4.8202 -11.77447,-11.21145 -7.79619,-14.81567 -23.56527,-35.12057 -42.27129,-54.43021 -11.969243,-12.35548 -13.607212,-15.45642 -11.769428,-22.28143 1.22324,-4.54276 4.791256,-7.88263 34.523828,-32.31624 l 19,-15.6138 16.25,-30.02601 c 9.14748,-16.90229 16.25,-31.16368 16.25,-32.62889 0,-3.86824 2.42494,-7.86001 7.16843,-11.80022 l 4.22876,-3.51264 -3.83034,-4.67443 c -4.32624,-5.2796 -5.66798,-11.44368 -3.58538,-16.47152 1.18046,-2.8499 23.49735,-22.15172 28.91434,-25.00795 1.45957,-0.76959 4.38666,-1.07194 7.49032,-0.77372 4.63341,0.44521 5.51976,0.9643 9.79287,5.7352 l 4.69836,5.24568 12.4332,-10.32539 12.43321,-10.3254 -4.82421,-6.29415 c -7.44052,-9.70767 -8.07928,-13.44254 -4.92272,-28.78367 l 1.99685,-9.7048 -3.49685,-4.08528 c -1.92326,-2.2469 -3.49684,-5.07153 -3.49684,-6.27695 0,-3.1359 38.62997,-35.10068 43.53089,-36.02009 5.31632,-0.99735 8.54704,0.3102 13.14759,5.32114 4.54979,4.95566 7.98115,6.01008 20.10364,6.17763 6.76673,0.0935 11.70355,2.17958 16.71788,7.06417 l 4,3.8965 6.9984,-5.69384 c 17.25769,-14.04072 32.02886,-26.51595 32.3302,-27.30499 0.18073,-0.47323 -1.27223,-2.81401 -3.22879,-5.20173 -3.82862,-4.67233 -6.59981,-10.39741 -6.59981,-13.63476 0,-1.10653 0.72953,-3.83516 1.62118,-6.06361 1.31587,-3.28867 5.35672,-7.15476 21.45632,-20.52838 10.90933,-9.06216 21.00909,-16.92298 22.44392,-17.4685 3.86542,-1.46964 9.22562,-1.20574 13.12862,0.64636 2.18892,1.03871 7.48203,6.52802 14.46387,15 6.05637,7.34898 11.23954,13.36178 11.51816,13.36178 0.27862,0 11.05701,-8.78279 23.95197,-19.5173 21.09613,-17.56164 23.38428,-19.76075 22.83559,-21.94689 -1.00407,-4.00056 1.42321,-9.2275 6.26365,-13.48822 5.06181,-4.45559 9.70888,-5.80374 14.38567,-4.1734 3.04818,1.0626 3.46413,0.80082 18.27511,-11.50163 18.73459,-15.5615 19.21292,-15.88819 21.61178,-14.76006 2.39993,1.12863 18.04416,20.06032 18.04416,21.83595 0,2.13268 -2.60006,4.62331 -18.8371,18.04424 -13.1612,10.87855 -15.25699,12.99627 -14.77242,14.92696 0.87802,3.49833 -1.03937,8.61999 -4.62377,12.35083 -4.90405,5.10439 -8.08824,6.41264 -14.72012,6.04788 l -5.78835,-0.31836 -24.12912,19.9233 c -23.92924,19.75826 -24.12912,19.9554 -24.12912,23.79966 0,2.132 -0.69021,5.21108 -1.5338,6.84241 -1.48646,2.8745 -1.42547,3.10794 1.97569,7.56231 7.56218,9.90389 6.08105,15.31176 -7.27871,26.57591 -5.31475,4.48108 -9.61213,8.67469 -9.54975,9.31915 0.0624,0.64445 11.0355,14.36749 24.3847,30.49564 13.3492,16.12815 25.1475,30.80898 26.21843,32.62408 1.2634,2.14131 1.9644,5.22004 1.99628,8.7675 0.16115,17.93369 -20.88776,26.03042 -33.35847,12.83174 -1.94444,-2.05793 -14.00352,-16.47079 -26.79796,-32.02857 -15.8049,-19.21842 -23.63031,-28.0059 -24.40952,-27.41044 -0.63079,0.48203 -4.84279,3.90028 -9.36001,7.5961 -12.68604,10.37923 -18.23755,10.89921 -26.32362,2.4656 l -4.63903,-4.83842 -2.31108,2.46004 -2.31108,2.46003 2.67073,3.27698 c 9.36817,11.49471 10.09373,14.6004 5.73249,24.5371 -1.70791,3.89131 -3.0954,8.57468 -3.08332,10.40749 0.0298,4.52778 2.8809,10.25079 8.38197,16.8253 2.74217,3.27725 4.60389,6.50418 4.61546,8 0.0134,1.73331 3.90551,7.13664 12.6106,17.50709 6.92516,8.25 13.41935,16.8 14.43153,19 1.01219,2.2 4.80184,7.55079 8.42145,11.89064 3.61962,4.33985 7.53738,9.23358 8.70614,10.87495 2.66397,3.74121 2.94143,10.35897 0.58511,13.95578 -1.93352,2.95143 -23.58771,21.47552 -28.86572,24.6932 -1.87468,1.14287 -4.66835,2.07963 -6.20817,2.08169 -6.21081,0.008 -8.27719,-2.00052 -32.14162,-31.24626 -11.77618,-14.43165 -13.1224,-15.75 -16.08289,-15.75 -1.77702,0 -3.78994,-0.67356 -4.47318,-1.49681 -1.06787,-1.28671 -2.03994,-0.76037 -6.92555,3.75 -3.12582,2.88575 -9.6082,8.39681 -14.40529,12.24681 -8.26793,6.6356 -8.82478,7.33084 -10.69689,13.35533 -2.67475,8.60741 -2.52084,10.43706 1.42945,16.99394 4.22667,7.01562 4.96291,11.17319 3.17126,17.90831 -1.61495,6.07089 -1.19947,8.08401 2.92437,14.16939 3.76615,5.55753 4.18742,13.27589 0.96879,17.7497 -3.10039,4.30947 -33.26476,19.32333 -38.82253,19.32333 -5.14265,0 -12.27018,-3.45927 -15.08771,-7.32266 -2.44913,-3.35822 -2.51556,-6.03049 -0.76459,-30.75278 0.91712,-12.94897 0.96997,-20.71035 0.20078,-29.48466 -1.61128,-18.38001 -3.45661,-23.77717 -8.72397,-25.51555 -3.97623,-1.31228 -9.84132,0.44039 -14.45395,4.31928 -5.59852,4.70795 -23.03804,19.20265 -42.31682,35.17126 -15.30306,12.67552 -20.85479,16.71154 -23.63981,17.18574 -4.52532,0.77052 -4.07912,-1.97057 -6.90198,42.39937 -1.21553,19.10586 -2.82331,36.8406 -3.60321,39.74554 -1.73536,6.46387 -6.30816,11.86942 -11.18726,13.22459 -4.1773,1.16024 -4.65708,1.16262 -8.37638,0.0415 z m 6.18732,-10.00018 c 2.06409,-1.10466 5.39841,-8.91539 4.86561,-11.39778 -0.38728,-1.80438 -57.68913,-71.61363 -58.78294,-71.61363 -1.49198,0 -9.06135,7.23519 -9.06135,8.66131 0,0.828 4.85191,6.53043 10.78201,12.67207 18.2735,18.92535 35.1615,40.59049 41.56139,53.31797 1.42467,2.83324 3.79092,6.09574 5.25832,7.25 3.08807,2.42908 2.96127,2.4029 5.37696,1.11006 z m 8.07847,-58.88914 2.19473,-30.34865 -5.45433,-5.45434 -5.45434,-5.45433 -3.61508,2.13295 c -2.75351,1.62461 -4.06823,1.89045 -5.5164,1.11541 -2.13129,-1.14063 -6.90441,-6.98975 -9.26913,-11.35864 l -1.5574,-2.87737 -12.61431,10.31135 c -6.93786,5.67124 -12.53703,10.59931 -12.44259,10.95126 0.30339,1.13069 50.85243,62.01269 51.19959,61.66553 0.18399,-0.18399 1.32216,-13.99142 2.52926,-30.68317 z m 136.40018,-7.23675 c 17.05452,-8.33221 17.65104,-9.12413 12.3891,-16.44738 -3.49841,-4.86887 -3.8085,-7.4479 -2.75799,-22.93814 0.21025,-3.10035 -0.47023,-5.16902 -3.02552,-9.19766 -4.06533,-6.40932 -4.84435,-12.10248 -2.67646,-19.55977 0.88745,-3.05271 1.61354,-6.33103 1.61354,-7.28516 0,-1.48193 -9.89837,-14.65854 -11.97636,-15.94281 -0.39199,-0.24225 -4.87432,2.97434 -9.96075,7.14798 -8.25658,6.77489 -9.18706,7.86981 -8.67908,10.21293 3.5025,16.15594 3.83964,20.87037 3.22693,45.12449 -0.3404,13.475 -0.88616,26.14341 -1.21279,28.15203 -0.7008,4.30953 2.02685,7.84797 6.0497,7.84797 1.34621,0 9.00057,-3.20152 17.00968,-7.11448 z M 205.82309,503.21136 c 9.87831,-8.22225 17.96056,-15.48878 17.96056,-16.14786 0,-1.84912 -9.84841,-13.85089 -11.17065,-13.61312 -0.64387,0.11578 -10.03845,7.56477 -20.87686,16.55331 l -19.70621,16.34281 5.84556,5.90719 c 3.39009,3.42584 6.71538,5.9072 7.91629,5.9072 1.20103,0 9.61416,-6.27879 20.03131,-14.94953 z m -23.21322,-18.64834 c 20.93369,-17.2694 23.60337,-19.79416 22.46965,-21.25 -9.48691,-12.18248 -20.17979,-24.1682 -20.90993,-23.43807 -2.42029,2.4203 -29.88594,55.06909 -29.88594,57.28825 0,2.53683 2.449,6.99769 3.84171,6.99769 0.40056,0 11.41859,-8.81904 24.48451,-19.59787 z m 240.48273,-8.42976 c 7.25508,-6.0652 13.19105,-11.40784 13.19105,-11.87254 0,-0.69872 -8.40224,-11.78526 -10.87247,-14.34595 -0.39587,-0.41037 -3.39901,5.85101 -6.67365,13.91417 -4.12944,10.16798 -6.96484,15.68735 -9.25308,18.012 -3.16221,3.21252 -3.49212,5.31995 -0.83283,5.31995 0.68747,0 7.18591,-4.96244 14.44098,-11.02763 z m -184.86328,0.18862 4.44567,-3.8336 -9.50152,-11.4137 c -5.22583,-6.27753 -15.50538,-18.71133 -22.84345,-27.63067 l -13.34193,-16.21699 -3.85222,3.05102 c -2.62546,2.0794 -3.85222,3.84572 -3.85222,5.54654 0,1.77142 6.16594,9.99632 21.25,28.34592 11.6875,14.21771 21.7,25.88069 22.25,25.91773 0.55,0.037 3.00055,-1.65777 5.44567,-3.76625 z m 165.35741,-2.50953 c 0.33074,-0.86275 -24.84586,-32.5884 -29.56341,-37.25357 -0.87318,-0.86348 -3.66029,2.45281 -3.70786,4.41187 -0.0323,1.33038 22.22187,28.88944 26.53253,32.85726 2.39977,2.20891 5.88905,2.20085 6.73874,-0.0156 z M 265.79527,461.0196 c 3.06481,-0.0366 6.86443,0.46863 8.44361,1.12274 2.81195,1.16475 3.40464,0.74835 28.708,-20.1692 14.21023,-11.74717 27.6268,-22.81059 29.81462,-24.58537 2.18781,-1.77479 4.9326,-3.22688 6.09952,-3.22688 1.482,0 5.01391,3.46146 11.71463,11.48095 l 9.59295,11.48096 13.94034,-20.20567 13.94035,-20.20566 -3.26224,-4.02529 c -6.06662,-7.48564 -7.89843,-12.24639 -7.89757,-20.52529 6.4e-4,-6.09463 0.50609,-8.54868 2.69748,-13.09649 1.48318,-3.07807 2.69669,-5.92858 2.69669,-6.33446 0,-0.40588 -2.09138,-3.39996 -4.64752,-6.65352 -3.00568,-3.82574 -5.037,-5.61343 -5.75,-5.06034 -7.3371,5.69155 -131.34695,108.63094 -132.01679,109.58589 -0.64287,0.91647 0.80214,3.38991 4.8671,8.3311 l 5.78142,7.02765 4.85252,-2.43728 c 3.31546,-1.66526 6.61758,-2.45836 10.42489,-2.50384 z m 5.05981,-14.43014 c -3.20204,-3.20204 -1.91675,-5.82083 6.17857,-12.58888 11.93408,-9.97742 12.73582,-10.40662 15.75,-8.43165 4.66461,3.05637 3.42191,5.58561 -7,14.24694 -10.72027,8.9093 -12.14597,9.55618 -14.92857,6.77359 z m 49.42857,-41.42857 c -2.40751,-2.40751 -2.44662,-2.91734 -0.44329,-5.7775 1.69356,-2.4179 5.33399,-2.9318 7.24329,-1.0225 1.90147,1.90147 1.45797,6.59157 -0.73426,7.76481 -2.74787,1.47062 -3.79721,1.30371 -6.06574,-0.96481 z m 45.2,-45.2 c -2.22098,-2.22098 -1.44604,-6.73077 1.37766,-8.01734 2.98753,-1.36121 5.30709,-0.32651 6.50056,2.89975 1.61596,4.36833 -4.59373,8.40207 -7.87822,5.11759 z m -31.2,92.3526 c 13.88304,-11.7454 14.33969,-12.95282 7.9391,-20.99162 -3.58239,-4.49929 -4.38631,-5.04917 -5.79902,-3.96651 -0.90204,0.69129 -4.34008,3.49856 -7.64008,6.23837 -3.3,2.7398 -6.17662,5.10237 -6.3925,5.25014 -1.27284,0.87131 2.64598,3.31702 5.31495,3.31702 3.9073,0 5.57755,1.54665 5.57755,5.16481 0,5.54022 -8.86847,6.38273 -15.73784,1.4951 -3.33067,-2.36981 -6.26216,-2.5943 -6.26216,-0.47954 0,1.06885 10.20302,13.82003 11,13.74721 0.275,-0.0251 5.675,-4.42387 12,-9.77498 z m 75.85435,6.26772 c 1.10899,-2.43396 0.56731,-3.31464 -9.58948,-15.59065 -5.92068,-7.15604 -12.11487,-14.75335 -13.76487,-16.88291 -1.65,-2.12956 -3.28574,-3.88877 -3.63499,-3.90935 -0.34924,-0.0206 -1.35194,1.05679 -2.22821,2.39416 -1.57135,2.39817 -1.39954,2.66599 12.50958,19.5 7.75654,9.38763 14.42451,17.06843 14.8177,17.06843 0.39319,0 1.24381,-1.16086 1.89027,-2.57968 z m 6.53866,-16.00211 c 1.43468,-3.73869 0.0352,-6.30408 -10.14301,-18.59329 -5.9125,-7.13877 -11.34168,-13.73228 -12.06484,-14.65225 -1.20788,-1.53661 -1.47493,-1.47733 -3.28287,0.72871 -1.08242,1.32076 -1.84074,2.78151 -1.68516,3.24611 0.5256,1.56957 25.00285,30.85251 25.78924,30.85251 0.42881,0 1.0528,-0.71181 1.38664,-1.58179 z m -173.17824,-8.41425 c 99.12468,-81.88117 215.02062,-177.9544 217.53523,-180.32824 4.83989,-4.56894 4.51309,-8.65012 -1.25581,-15.68281 -2.4782,-3.0211 -4.9497,-5.49291 -5.49222,-5.49291 -0.9468,0 -15.84355,12.21599 -88.47183,72.55082 -18.24042,15.15296 -42.1342,34.92788 -53.09727,43.94428 -58.57261,48.17205 -93.43287,77.26953 -93.43287,77.98738 0,1.31083 12.30783,16.08265 13.15425,15.78769 0.42641,-0.14859 5.40364,-4.09339 11.06052,-8.76621 z m -3.58905,-11.5211 c -2.13867,-2.13867 -2.06014,-4.77974 0.20302,-6.82787 2.43254,-2.20142 4.47009,-2.08727 6.69867,0.37529 4.0945,4.52437 -2.58502,10.76925 -6.90169,6.45258 z m 15.94571,-13.05429 c -3.03271,-3.03271 -0.83778,-8.42857 3.42857,-8.42857 2.38604,0 5,2.61396 5,5 0,2.38604 -2.61396,5 -5,5 -1.02143,0 -2.56428,-0.70714 -3.42857,-1.57143 z m 30,-25 c -3.36389,-3.36389 -1.88793,-5.12299 18.67857,-22.26179 11.1375,-9.28128 21.2299,-17.38908 22.42756,-18.01733 4.4707,-2.34519 8.66411,2.15397 5.91629,6.34766 -2.40769,3.67461 -41.47709,35.50289 -43.57999,35.50289 -1.02905,0 -2.57814,-0.70714 -3.44243,-1.57143 z m 56.62857,-46.62857 c -2.54011,-2.54011 -1.24846,-5.59684 4.54811,-10.76323 3.16146,-2.81777 6.7673,-5.37901 8.01299,-5.69166 3.01621,-0.75702 5.2389,1.25058 5.2389,4.73193 0,2.26732 -1.24359,3.8384 -6.23552,7.87756 -6.25346,5.05991 -9.32772,6.08215 -11.56448,3.8454 z m -93.17147,50.59575 c 20.33431,-16.83234 36.93338,-30.89484 36.88683,-31.25 -0.0466,-0.35516 -1.85626,-2.16921 -4.02157,-4.03122 -3.54452,-3.04803 -4.1092,-3.23835 -5.66536,-1.90948 -0.95063,0.8118 -17.37324,14.40389 -36.49469,30.20465 -22.15661,18.30884 -34.51098,29.15694 -34.06242,29.90948 0.99916,1.67628 5.77349,7.68075 6.10721,7.68079 0.15319,2e-5 16.91569,-13.77188 37.25,-30.60422 z m -36.45927,2.47344 13.3916,-11.13081 -3.06446,-3.86919 c -1.70026,-2.14675 -3.94178,-3.86919 -5.03522,-3.86919 -2.75277,0 -25.82715,19.03072 -25.84611,21.31672 -0.0171,2.05528 4.70969,8.68328 6.19245,8.68328 0.53358,0 6.99636,-5.00887 14.36174,-11.13081 z m 283.39711,-12.3518 c 3.16811,-1.63829 5.51506,-7.03954 4.39507,-10.11477 -0.76741,-2.10712 -10.21911,-14.40262 -11.07147,-14.40262 -0.2958,0 -2.26661,1.96401 -4.37958,4.36446 -2.11297,2.40046 -5.20084,4.92742 -6.86194,5.61547 l -3.02019,1.25101 1.87881,2.63453 c 1.03334,1.44899 3.87094,4.77203 6.30576,7.38453 4.83988,5.19307 7.64163,5.91086 12.75354,3.26739 z m -20.58125,-24.60569 c 2.75295,-2.16546 5.61488,-6.82653 5.61488,-9.14462 0,-0.73273 -2.52063,-4.36899 -5.6014,-8.08059 l -5.60141,-6.74835 -2.64859,3.45789 c -1.45673,1.90184 -4.56172,4.6814 -6.89997,6.17681 -4.76224,3.04563 -4.98455,2.09255 2.6071,11.17716 4.9624,5.93829 8.01898,6.7096 12.52939,3.1617 z M 308.50522,339.24464 c 34.62434,-27.96313 51.27785,-42.57866 51.58929,-45.27606 0.3038,-2.63125 -2.24608,-7.80769 -3.84602,-7.80769 -1.07439,0 -67.18517,54.65427 -68.46484,56.60038 -0.76015,1.15604 -0.32704,2.10589 1.80577,3.96021 1.54317,1.34168 3.66787,2.43941 4.72156,2.43941 1.05369,0 7.4411,-4.46231 14.19424,-9.91625 z m -35.98959,2.47963 c 2.05258,-1.68486 3.74008,-3.41412 3.75,-3.8428 0.01,-0.42868 -1.76662,-3.03716 -3.94784,-5.79662 -3.79306,-4.79857 -6.0188,-10.1256 -6.02663,-14.42396 -0.002,-1.1 1.04414,-6.33028 2.32476,-11.62285 2.30321,-9.5187 2.30769,-9.65129 0.41466,-12.25 -1.05256,-1.44493 -2.36297,-2.62715 -2.91204,-2.62715 -0.54906,0 -2.97518,1.61991 -5.39137,3.59979 l -4.39307,3.59979 2.66023,3.48774 2.66023,3.48774 -2.27926,12.47065 c -1.28256,7.01737 -1.98567,13.64775 -1.60787,15.16247 0.94519,3.78956 8.48395,13.32368 9.8794,12.49427 0.62525,-0.37163 2.81621,-2.05421 4.8688,-3.73907 z m 184.11,-11.55878 c 4.55683,-4.00095 6.3247,-8.22834 4.50533,-10.77327 -5.05699,-7.07371 -11.54676,-14.05455 -12.70504,-13.6664 -1.95731,0.6559 -13.01802,9.77508 -13.08547,10.78852 -0.0312,0.4694 2.90703,4.4069 6.52949,8.75 7.51761,9.01314 9.37118,9.62881 14.75569,4.90115 z M 310.03365,310.2533 c 12.7875,-10.57191 23.25,-19.59596 23.25,-20.05344 0,-0.45748 -1.51623,-2.16306 -3.3694,-3.79016 -3.13649,-2.75388 -4.12007,-3.00866 -14.22889,-3.68581 -12.86801,-0.86197 -15.85975,-1.94364 -20.55833,-7.43288 -1.94438,-2.27157 -4.10596,-4.13012 -4.80352,-4.13012 -1.03862,0 -7.80289,5.25829 -14.90861,11.58939 -1.1378,1.01377 -0.75816,2.01921 2.25,5.95888 1.99031,2.60663 3.61817,5.23712 3.61746,5.84553 -7.1e-4,0.60841 -1.1528,5.8312 -2.56019,11.6062 -1.44794,5.94141 -2.31316,11.76082 -1.99288,13.40411 0.76563,3.92833 7.38823,11.95579 8.90393,10.79273 0.63274,-0.48552 11.61293,-9.53252 24.40043,-20.10443 z m 100.48525,13.15759 c 27.35576,-22.1289 58.76475,-48.68826 58.76475,-49.69132 0,-1.40905 -4.78468,-8.05868 -5.79855,-8.05868 -1.03068,0 -69.20145,56.48715 -69.20145,57.34119 0,1.14341 5.78875,7.15881 6.88908,7.15881 0.55099,0 4.75677,-3.0375 9.34617,-6.75 z m -32.38155,-41.4794 6.95221,-5.7294 -4.02263,-4.02263 -4.02264,-4.02264 -6.4001,5.19269 c -3.52005,2.85598 -6.2787,5.4444 -6.13032,5.75204 1.65987,3.44144 5.42367,8.98953 5.97053,8.80097 0.38541,-0.1329 3.82924,-2.81986 7.65295,-5.97103 z m 25.81515,-21.72734 c 4.49287,-3.82609 8.46286,-7.88286 8.8222,-9.01504 0.5779,-1.82081 -2.70871,-9.02822 -4.1169,-9.02822 -0.75347,0 -23.37415,19.14896 -23.37415,19.78679 0,0.32137 0.97844,1.62581 2.17432,2.89876 3.88115,4.1313 7.33266,3.15989 16.49453,-4.64229 z m 39.08115,-31.95261 c 2.3375,-1.9328 4.23311,-3.98138 4.21246,-4.55241 -0.0206,-0.57103 -1.48315,-2.70854 -3.25,-4.75002 l -3.21246,-3.71177 -12.16078,10.10334 -12.16078,10.10334 3.16078,4.70391 3.16078,4.70392 8,-6.54307 c 4.4,-3.59869 9.9125,-8.12445 12.25,-10.05724 z m -30.43651,-2.54881 c 11.92758,-9.87699 21.68171,-18.20199 21.67585,-18.5 -0.006,-0.29801 -1.98208,-2.67934 -4.39157,-5.29184 -6.99054,-7.57949 -5.61224,-8.23135 -36.09777,17.07213 -10.63416,8.82653 -12.5,10.79668 -12.5,13.19886 0,2.01808 7.72686,12.27138 8.88403,11.78883 0.40862,-0.1704 10.50188,-8.39099 22.42946,-18.26798 z m 80.36685,-9.58694 c 12.00082,-9.92481 22.23099,-18.64214 22.73371,-19.37185 0.63508,-0.92182 -0.12794,-2.5812 -2.5,-5.43688 -1.87772,-2.26056 -3.76324,-4.11823 -4.19004,-4.12815 -0.42679,-0.01 -11.13909,8.58164 -23.80511,19.09234 -22.86928,18.97771 -23.01678,19.12521 -21.25037,21.25 4.27056,5.13698 5.72716,6.63964 6.43613,6.63964 0.41581,0 10.57487,-8.1203 22.57568,-18.0451 z M 535.20693,192.572 c 1.6922,-1.4239 3.07672,-2.9603 3.07672,-3.41423 0,-1.57297 -17.19216,-21.99688 -18.51623,-21.99688 -1.79093,0 -7.48377,4.86841 -7.48377,6.39997 0,1.85755 16.87108,21.60003 18.45846,21.60003 0.76345,0 2.77262,-1.165 4.46482,-2.58889 z m 20.16002,-28.13276 c 7.10419,-5.8969 12.9167,-10.9901 12.9167,-11.31821 0,-1.04827 -6.39582,-8.96014 -7.24322,-8.96014 -0.44838,0 -6.88582,5.01741 -14.30542,11.1498 -13.28053,10.9765 -13.46311,11.18244 -11.74713,13.25 4.31946,5.20447 5.70529,6.6002 6.55338,6.6002 0.49994,0 6.7215,-4.82474 13.82569,-10.72165 z"
       id="path98" /></g><path
     style="fill:#ffffff;stroke:none;stroke-width:5.65606;stroke-linecap:round;stroke-dasharray:none"
     d="m 82.186223,486.63049 c -2.422781,-1.57922 -4.67062,-4.41774 -7.151817,-9.03115 -6.876578,-12.78595 -20.364464,-30.36579 -37.134138,-48.39986 -1.599162,-1.71973 -2.110153,-2.40557 -2.062609,-2.76839 0.0497,-0.37926 -0.469852,-0.98185 -2.432202,-2.82092 -1.372472,-1.28624 -2.944642,-2.68862 -3.493711,-3.1164 -0.54907,-0.42777 -0.998308,-0.93543 -0.998308,-1.12813 0,-0.1927 -0.881432,-1.20093 -1.958737,-2.24052 -1.077305,-1.03959 -2.422794,-2.54181 -2.989976,-3.33827 l -1.031241,-1.4481 0.366693,-0.68091 c 0.890073,-1.65276 6.157843,-6.68949 7.984024,-7.63384 l 0.674469,-0.34878 0.940255,1.03131 c 7.296133,8.00271 47.515928,56.93457 55.751317,67.82768 1.960169,2.59276 1.993755,2.65684 1.954561,3.72927 -0.07425,2.03151 -2.001346,6.85405 -3.631302,9.08728 -0.685624,0.93938 -2.375467,1.95674 -3.25017,1.95674 -0.274148,0 -0.965846,-0.30465 -1.537108,-0.67701 z"
     id="path106" /><path
     style="fill:#ffffff;stroke:none;stroke-width:5.65606;stroke-linecap:round;stroke-dasharray:none"
     d="M 89.673024,456.32379 C 80.982783,446.32927 47.721972,406.23365 41.495108,398.24573 l -1.233843,-1.58279 1.237875,-1.13386 c 3.839005,-3.51642 23.266463,-19.65473 23.659867,-19.65415 0.08802,1.3e-4 0.674099,0.92609 1.302396,2.0577 2.142674,3.85912 5.267056,8.04964 7.794407,10.45411 2.662454,2.53301 3.813747,2.46957 8.817437,-0.48589 l 1.833688,-1.08308 0.569152,0.59606 c 8.672875,9.08292 9.784727,10.1987 10.162776,10.1987 0.389449,0 0.411541,0.0992 0.293796,1.31904 -0.07003,0.72548 -0.696356,9.24914 -1.391844,18.94147 -1.738371,24.22594 -2.998739,40.01055 -3.21177,40.22358 -0.0337,0.0337 -0.778909,-0.76407 -1.656021,-1.77283 z"
     id="path107" /><path
     style="fill:#ffffff;stroke:none;stroke-width:5.65606;stroke-linecap:round;stroke-dasharray:none"
     d="m 77.659572,376.73833 c -0.951164,-0.99988 -2.177851,-3.44947 -2.491486,-4.97528 -0.196575,-0.95633 -0.156603,-1.20456 0.441793,-2.74361 0.859798,-2.21137 10.788723,-21.95121 15.964498,-31.73926 7.323425,-13.84952 12.440463,-23.02532 13.185093,-23.6433 0.27172,-0.22551 0.61856,0.0197 2.25965,1.59741 4.59883,4.42131 18.76489,21.20194 18.76489,22.22827 0,0.8296 -2.49014,3.44022 -7.07008,7.41215 -9.13786,7.92477 -37.799028,31.28558 -39.953758,32.56504 -0.182113,0.10814 -0.558932,-0.13201 -1.1006,-0.70142 z"
     id="path108" /><path
     style="fill:#ffffff;stroke:none;stroke-width:5.65606;stroke-linecap:round;stroke-dasharray:none"
     d="m 104.99588,390.92442 c -0.61197,-0.31786 -1.62865,-1.17811 -2.4203,-2.04789 -2.861178,-3.14356 -8.272917,-8.3904 -8.546004,-8.28561 -0.153879,0.0591 -0.477106,-0.10268 -0.718284,-0.35941 l -0.438506,-0.46676 7.749924,-6.42448 c 18.00949,-14.92938 25.88799,-21.34114 30.29652,-24.65624 1.99408,-1.49948 2.34184,-1.68924 2.72248,-1.48552 1.64611,0.88097 8.42901,9.04323 10.18919,12.26126 l 0.54503,0.99645 -0.90684,0.98549 c -3.06783,3.33388 -17.8265,15.93348 -27.48675,23.46568 -4.13614,3.22498 -9.03094,6.58934 -9.56589,6.57495 -0.20094,-0.005 -0.84019,-0.25647 -1.42057,-0.55792 z"
     id="path109" /><path
     style="fill:#ffffff;stroke:none;stroke-width:5.65606;stroke-linecap:round;stroke-dasharray:none"
     d="m 151.66888,351.59708 c -2.1227,-2.25644 -7.72783,-8.79766 -14.19016,-16.55998 -18.98182,-22.80029 -27.54249,-33.97526 -27.5186,-35.92234 0.007,-0.58197 0.76529,-2.12267 1.50267,-3.05368 0.67811,-0.85618 5.70015,-5.02728 6.05289,-5.02728 0.10692,0 2.36427,2.63545 5.01633,5.85655 13.40421,16.28028 22.56577,27.36951 30.95011,37.46227 5.0872,6.12379 9.29912,11.26359 9.35983,11.4218 0.0691,0.18012 -0.90003,1.15043 -2.59249,2.59559 -3.83628,3.27573 -6.07229,4.92265 -6.68342,4.92265 -0.16614,0 -1.01987,-0.76301 -1.89716,-1.69558 z"
     id="path110" /><path
     style="fill:#ffffff;stroke:none;stroke-width:5.65606;stroke-linecap:round;stroke-dasharray:none"
     d="m 130.90652,290.45274 c -0.92263,-1.13136 -2.26198,-2.84781 -2.97634,-3.81431 l -1.29883,-1.75729 0.54947,-0.7204 c 1.53411,-2.01132 12.83618,-11.84498 29.95534,-26.06342 26.443,-21.96244 40.67889,-33.67295 41.15066,-33.85074 0.40896,-0.15411 0.71203,-0.10695 1.28072,0.19931 0.95998,0.51699 4.2633,3.29272 5.86905,4.93169 1.11655,1.13965 1.21711,1.31243 0.95067,1.63347 -0.66715,0.80387 -13.61823,11.80246 -28.58017,24.27146 -10.80655,9.00597 -41.56663,34.3492 -44.35253,36.54204 l -0.87055,0.68522 z"
     id="path111" /><path
     style="fill:#ffffff;stroke:none;stroke-width:5.65606;stroke-linecap:round;stroke-dasharray:none"
     d="m 117.58903,274.41385 c -1.98241,-1.98875 -4.46784,-6.00782 -4.46784,-7.22474 0,-1.08271 2.06377,-3.28342 7.68592,-8.19591 6.56368,-5.73517 14.04105,-11.41452 17.00214,-12.91378 l 0.94527,-0.47861 1.07027,0.56036 c 0.58865,0.3082 1.544,1.01219 2.12299,1.56444 1.45654,1.38924 4.78456,5.56447 4.58053,5.74659 -0.092,0.0821 -3.25378,2.70454 -7.02625,5.82767 -15.03597,12.44787 -19.71886,16.11645 -20.57239,16.11645 -0.18775,0 -0.79104,-0.45111 -1.34064,-1.00247 z"
     id="path112" /><path
     style="fill:#ffffff;stroke:none;stroke-width:5.65606;stroke-linecap:round;stroke-dasharray:none"
     d="m 151.29349,314.71901 c -3.84395,-4.08631 -10.13231,-11.84895 -11.17138,-13.79047 -0.15331,-0.28645 0.39998,-0.87019 2.91939,-3.08004 8.94886,-7.84933 39.42557,-33.20927 84.11983,-69.99685 17.21853,-14.17248 40.30106,-33.27792 75.48006,-62.47496 37.3434,-30.9934 41.475,-34.41329 53.07831,-43.93505 9.6767,-7.94077 14.94471,-12.17938 17.37782,-13.98212 l 1.76035,-1.30427 0.57322,0.40816 c 0.90596,0.6451 3.45623,3.41019 5.42098,5.87761 2.00456,2.51741 3.54848,5.38463 3.91899,7.27804 0.47344,2.41936 -0.66632,5.0589 -3.19557,7.40053 -1.29927,1.20291 -18.34792,15.42505 -46.96049,39.1749 -24.44538,20.29087 -75.25292,62.38014 -105.1014,87.06662 -75.50732,62.44908 -75.90786,62.77767 -76.53173,62.78387 -0.18907,0.002 -0.94884,-0.63981 -1.68838,-1.42597 z M 166.102,296.99563 c 0.74144,-0.38734 1.34264,-0.9161 1.80589,-1.58833 1.33889,-1.94286 1.1612,-4.02299 -0.50166,-5.87249 -2.15618,-2.39819 -4.36708,-2.518 -6.71306,-0.36376 -1.88221,1.72837 -2.29097,3.80496 -1.14297,5.80662 1.03541,1.80536 2.28132,2.56306 4.25093,2.58521 0.90553,0.0102 1.45469,-0.1252 2.30087,-0.56725 z m 15.7794,-12.8399 c 1.80524,-0.89959 3.04447,-2.73023 3.04447,-4.49741 0,-1.86381 -1.18727,-3.63828 -3.074,-4.59436 -0.88456,-0.44824 -1.27682,-0.52239 -2.38893,-0.45158 -1.61557,0.10288 -2.8145,0.84531 -3.71367,2.29969 -1.61023,2.60449 -0.56675,5.97441 2.25713,7.28936 1.39425,0.64923 2.50678,0.63612 3.875,-0.0457 z m 29.48216,-25.16157 c 6.30214,-3.97138 33.62104,-26.2321 40.44874,-32.95953 1.8266,-1.79976 2.07573,-2.13799 2.39977,-3.25794 0.30949,-1.06965 0.32446,-1.41554 0.10394,-2.40093 -0.33612,-1.50196 -1.58006,-2.81259 -3.01159,-3.17305 -2.20835,-0.55607 -3.14935,-0.17499 -7.01753,2.84187 -4.37518,3.41228 -10.77362,8.6215 -18.99423,15.46395 -14.91921,12.41806 -18.62193,15.87063 -19.88846,18.54485 -0.6234,1.31628 -0.599,1.88356 0.13048,3.03382 0.72347,1.1408 1.63979,1.83375 3.08086,2.32984 1.17591,0.40481 1.51813,0.35215 2.74802,-0.42288 z m 57.51731,-47.34287 c 3.01997,-1.51154 9.16099,-6.41838 10.87293,-8.68776 1.03661,-1.37415 1.23804,-2.10089 1.10961,-4.00335 -0.10879,-1.61157 -0.62853,-2.74217 -1.60189,-3.48458 -1.10157,-0.84021 -3.16754,-0.9254 -4.60065,-0.1897 -2.38994,1.22688 -6.99327,4.92348 -9.66347,7.76003 -3.33804,3.54598 -4.06191,6.12141 -2.2712,8.08056 0.97638,1.06823 1.70782,1.39618 3.11581,1.39704 1.09659,6.7e-4 1.5614,-0.13274 3.03886,-0.87224 z"
     id="path113" /><path
     style="fill:#ffffff;stroke:none;stroke-width:5.65606;stroke-linecap:round;stroke-dasharray:none"
     d="m 167.57131,334.89762 c -4.07901,-4.97605 -5.73249,-7.18472 -6.56854,-8.77408 -0.75011,-1.42599 -0.75244,-1.62748 -0.0267,-2.31134 3.16787,-2.98498 110.6411,-92.24649 128.86248,-107.02627 l 2.92019,-2.36864 0.85223,0.47808 c 1.3678,0.7673 4.526,4.45225 7.69325,8.9764 l 1.53313,2.18994 -0.49422,1.30385 c -0.27181,0.71712 -1.07028,2.54502 -1.77437,4.06199 -2.51224,5.41267 -2.91856,6.97466 -3.12551,12.01515 -0.40057,9.75652 1.38959,14.73801 8.44956,23.51266 1.34575,1.6726 2.44682,3.13026 2.44682,3.23923 0,0.26201 -27.4507,40.04793 -27.62098,40.03272 -0.0724,-0.006 -1.98363,-2.25081 -4.24711,-4.98743 -8.73548,-10.56146 -13.25659,-15.56746 -15.3993,-17.05089 -1.25809,-0.871 -2.14212,-0.81183 -4.3053,0.28819 -2.01872,1.02656 -1.8867,0.92117 -23.56003,18.80615 -26.69338,22.02756 -29.6092,24.38537 -32.99718,26.68242 -2.97214,2.01511 -3.31026,2.07791 -6.52473,1.21189 -2.01587,-0.5431 -6.43928,-0.94496 -8.46405,-0.76893 -4.17303,0.36278 -6.468,1.0533 -10.9461,3.29351 -1.5945,0.79766 -2.97158,1.44876 -3.06019,1.44689 -0.0886,-0.002 -1.72812,-1.91504 -3.64337,-4.25149 z m 28.75583,-13.92091 c 1.46222,-0.74352 3.23469,-2.01401 6.70007,-4.80256 10.79424,-8.68601 13.68732,-11.95615 12.9006,-14.58197 -0.43434,-1.44969 -3.30984,-3.59383 -4.81968,-3.59383 -1.89173,0 -4.33627,1.66397 -12.82948,8.73283 -3.24615,2.70176 -7.05759,6.50113 -7.78464,7.75998 -0.79141,1.37031 -0.93384,2.81604 -0.38367,3.89447 0.54526,1.0688 1.98865,2.56169 2.85568,2.95361 0.84715,0.38295 2.17719,0.23949 3.36112,-0.36253 z m 50.17575,-41.0813 c 1.37498,-0.68079 1.99084,-1.51443 2.33167,-3.15623 0.43222,-2.08195 -0.15745,-4.33184 -1.38926,-5.30078 -1.36025,-1.06998 -3.78621,-1.14123 -5.45992,-0.16037 -1.40229,0.82179 -3.08019,3.28305 -3.08019,4.51824 0,0.73615 0.81314,1.89668 2.29271,3.27222 1.92218,1.78702 3.0202,1.95818 5.30499,0.82692 z m 44.90958,-45.85592 c 2.31044,-1.15454 3.35321,-3.30179 2.698,-5.55565 -0.40388,-1.38927 -1.43278,-2.79246 -2.44024,-3.32794 -1.65493,-0.87961 -4.60287,-0.19452 -5.77488,1.34206 -1.96611,2.57772 -1.42086,6.36143 1.10899,7.69572 1.35178,0.71295 2.77227,0.66327 4.40813,-0.15419 z"
     id="path114" /><path
     style="fill:#ffffff;stroke:none;stroke-width:5.65606;stroke-linecap:round;stroke-dasharray:none"
     d="m 211.84965,427.2925 c -2.70312,-0.74579 -4.47099,-3.08563 -4.48584,-5.93718 -0.004,-0.69646 0.11252,-2.92828 0.25812,-4.95961 0.39057,-5.44911 0.87053,-18.70333 1.04701,-28.91343 0.0853,-4.93323 0.2041,-8.54213 0.26407,-8.01979 0.14741,1.284 0.71481,1.32678 0.80668,0.0608 0.0682,-0.93919 -0.26552,-1.84553 -0.60271,-1.63714 -0.11799,0.0729 -0.20046,-0.39206 -0.20046,-1.13023 0,-1.07663 0.0597,-1.26975 0.4221,-1.3645 0.33361,-0.0872 0.42209,-0.28787 0.42209,-0.95707 0,-0.46568 -0.0576,-0.99691 -0.1281,-1.18051 -0.17186,-0.44785 -0.66564,-0.42491 -0.7642,0.0355 -0.0435,0.20313 -0.14285,-1.5301 -0.22082,-3.85161 -0.21387,-6.36824 -0.92765,-11.79146 -2.59272,-19.69925 -0.39938,-1.89675 -0.72615,-3.80363 -0.72615,-4.23752 0,-1.73648 2.10075,-3.83941 10.73721,-10.74833 4.75357,-3.80272 7.47183,-5.61558 7.99796,-5.334 1.17052,0.62644 8.41811,9.96278 10.92863,14.07824 0.69993,1.14739 0.75169,1.34224 0.63997,2.40912 -0.0669,0.63842 -0.45603,2.44287 -0.86483,4.00989 -1.63111,6.2525 -1.65882,6.4186 -1.65465,9.91921 0.003,2.67448 0.0858,3.57009 0.45304,4.90949 0.64321,2.34608 1.63326,4.51373 3.48325,7.62632 2.76114,4.64557 3.01294,5.68084 2.6488,10.89041 -0.14198,2.03132 -0.26116,5.87765 -0.26484,8.5474 -0.009,6.86233 0.32111,8.10109 3.34279,12.52653 2.8444,4.16582 3.25608,5.67543 2.01495,7.38877 -1.2917,1.78314 -3.97162,3.41699 -12.66703,7.72264 -8.48389,4.20091 -16.57116,7.68601 -18.57202,8.00336 -0.40208,0.0638 -1.17712,-0.007 -1.7223,-0.15754 z m -2.10947,-34.83075 c 0.0635,-0.97983 -0.2418,-1.71401 -0.61652,-1.48242 -0.21906,0.13539 -0.25521,2.27384 -0.042,2.48701 0.33485,0.33485 0.59771,-0.0661 0.65856,-1.00459 z m 29.0216,-0.36731 c 0.21985,-0.34854 0.0547,-1.56733 -0.28178,-2.0796 -0.18484,-0.2814 -0.23104,-0.2814 -0.41576,0 -0.23351,0.3557 -0.28333,1.68496 -0.0828,2.20765 0.1512,0.39405 0.48557,0.33918 0.78029,-0.12805 z m -29.01828,-2.47986 c 0.0935,-0.976 -0.11881,-1.71021 -0.49443,-1.71021 -0.24173,0 -0.31255,0.29044 -0.31255,1.28176 0,1.10667 0.0505,1.2722 0.36933,1.21179 0.24718,-0.0468 0.39193,-0.3059 0.43765,-0.78334 z m -0.0909,-3.09928 c 0.16651,-0.43392 0.16651,-3.96354 0,-4.39746 -0.33271,-0.86702 -0.50504,-0.11674 -0.50504,2.19873 0,2.31548 0.17233,3.06575 0.50504,2.19873 z"
     id="path115" /><path
     style="fill:#ffffff;stroke:none;stroke-width:5.65606;stroke-linecap:round;stroke-dasharray:none"
     d="m 241.50929,334.03463 c -2.32376,-2.37963 -7.78629,-9.28921 -9.05415,-11.45265 -0.4447,-0.75884 -0.49901,-1.00304 -0.30407,-1.3673 0.63956,-1.19503 2.51577,-0.92141 5.22044,0.76134 4.19171,2.60791 6.76518,3.50698 10.08109,3.52191 2.2041,0.01 3.2115,-0.23241 4.58367,-1.10261 1.48602,-0.94241 1.9115,-1.93128 1.82036,-4.23072 -0.063,-1.58859 -0.1518,-1.95164 -0.66834,-2.73175 -0.79485,-1.2004 -1.9709,-1.70353 -4.48558,-1.91898 -1.40681,-0.12054 -2.3124,-0.32688 -3.18221,-0.72509 -1.46378,-0.67015 -2.60541,-1.50808 -2.60541,-1.91232 0,-0.30621 1.32729,-1.44296 9.68739,-8.29664 3.84498,-3.15216 5.07183,-4.0489 5.53937,-4.0489 0.83326,0 1.93976,1.0478 4.49114,4.2529 5.41921,6.80773 5.39723,8.42231 -0.19071,14.00584 -2.72644,2.7243 -8.63633,7.83029 -15.71437,13.57682 -2.02364,1.64295 -3.73587,2.98719 -3.80495,2.98719 -0.0691,0 -0.70523,-0.59357 -1.41367,-1.31904 z"
     id="path116" /><path
     style="fill:#ffffff;stroke:none;stroke-width:5.65606;stroke-linecap:round;stroke-dasharray:none"
     d="m 319.88449,348.55628 c -1.37834,-0.49167 -2.36572,-1.29141 -4.46569,-3.61704 -7.81827,-8.65844 -24.38977,-29.49337 -24.38294,-30.65606 0.007,-1.17862 2.26718,-4.25515 3.12616,-4.25515 0.54553,0 4.32028,4.35311 11.98696,13.82358 6.6453,8.20878 14.10642,17.81741 16.84203,21.68959 1.22618,1.73562 1.19998,2.22226 -0.15495,2.87817 -1.04661,0.50665 -1.81509,0.5423 -2.95157,0.13691 z"
     id="path117" /><path
     style="fill:#ffffff;stroke:none;stroke-width:5.65606;stroke-linecap:round;stroke-dasharray:none"
     d="m 327.52261,333.08865 c -4.13953,-4.39009 -21.65565,-25.45297 -24.70599,-29.7086 -1.2587,-1.75605 -1.91748,-3.23742 -1.77255,-3.98584 0.15452,-0.79794 1.72212,-2.96344 2.41509,-3.33623 0.4671,-0.25128 0.56623,-0.19803 1.45704,0.78261 0.52572,0.57873 2.10117,2.47681 3.50101,4.21794 1.39984,1.74114 6.00391,7.37875 10.23127,12.52803 11.09208,13.51107 12.33076,15.21197 12.33076,16.93203 0,0.79936 -1.07501,3.06714 -1.73862,3.6677 -0.34202,0.30953 -0.46562,0.23056 -1.71801,-1.09764 z"
     id="path118" /><path
     style="fill:#ffffff;stroke:none;stroke-width:5.65606;stroke-linecap:round;stroke-dasharray:none"
     d="m 334.47838,315.99011 c -3.5413,-3.69143 -19.99293,-23.41769 -23.68366,-28.3978 -0.71366,-0.96299 -0.65232,-1.40507 0.41888,-3.0189 1.05725,-1.59282 2.32238,-2.84307 2.72179,-2.6898 0.1811,0.0695 1.39188,1.42069 2.69061,3.00266 1.29873,1.58197 4.80136,5.832 7.78361,9.44452 7.04713,8.53647 9.22198,11.30904 10.98877,14.00886 2.22644,3.40221 2.73635,5.6618 1.72728,7.65409 -0.38235,0.7549 -0.91526,1.42093 -1.13694,1.42093 -0.079,0 -0.75869,-0.64105 -1.51034,-1.42456 z"
     id="path119" /><path
     style="fill:#ffffff;stroke:none;stroke-width:5.65606;stroke-linecap:round;stroke-dasharray:none"
     d="m 328.01398,360.13972 c -0.25798,-0.18069 -0.46905,-0.48311 -0.46905,-0.67203 0,-0.69838 0.8828,-2.1304 2.24724,-3.64535 0.77158,-0.85668 1.81066,-2.18798 2.30906,-2.95843 1.28833,-1.99156 3.75627,-7.03001 5.73405,-11.70645 0.93274,-2.20544 2.3369,-5.52943 3.12036,-7.38664 1.77496,-4.20761 4.11857,-9.12689 4.65824,-9.77775 l 0.40769,-0.49168 1.37854,1.65244 c 3.48845,4.18157 9.26039,11.9571 9.26622,12.48278 0.0114,1.02796 -19.99357,17.96233 -25.8913,21.91718 -1.46589,0.98299 -2.02482,1.1016 -2.76105,0.58593 z"
     id="path120" /><path
     style="fill:#ffffff;stroke:none;stroke-width:5.65606;stroke-linecap:round;stroke-dasharray:none"
     d="m 185.62892,216.90355 c -2.97494,-3.0055 -5.85385,-7.11533 -6.89013,-9.83609 -0.43538,-1.1431 -0.44388,-1.31588 -0.21084,-4.28558 0.32269,-4.11199 0.79252,-7.23725 2.46308,-16.38413 l 1.39899,-7.65997 -2.57067,-3.37382 c -1.41387,-1.85559 -2.54,-3.4584 -2.50251,-3.56178 0.11378,-0.31378 5.44173,-4.5993 7.24375,-5.82649 0.92861,-0.63239 1.91029,-1.14939 2.18152,-1.14889 0.99853,0.002 3.66141,3.26251 4.04182,4.9492 0.22617,1.00279 -0.17904,3.422 -1.5396,9.19185 -1.93454,8.20398 -2.35545,10.45798 -2.34492,12.55729 0.022,4.38162 1.89717,8.66398 6.51522,14.87882 1.33691,1.79917 2.64469,3.673 2.90618,4.16407 l 0.47543,0.89284 -1.26374,1.29118 c -2.04652,2.09096 -7.1106,6.10368 -7.70288,6.10368 -0.14761,0 -1.13792,-0.87848 -2.2007,-1.95218 z"
     id="path121" /><path
     style="fill:#ffffff;stroke:none;stroke-width:5.65606;stroke-linecap:round;stroke-dasharray:none"
     d="m 204.92663,203.42181 c -1.88842,-1.14533 -5.39781,-5.55938 -6.82133,-8.57977 -0.60529,-1.28428 -0.66574,-1.59595 -0.64333,-3.3169 0.0385,-2.95647 0.53922,-5.60578 3.35061,-17.72794 0.53841,-2.32152 0.99508,-4.74328 1.01481,-5.3817 0.032,-1.03633 -0.0633,-1.31913 -0.8889,-2.63809 -0.50864,-0.81253 -1.59579,-2.37955 -2.41591,-3.48227 -2.83495,-3.81186 -3.31973,-4.94255 -2.51269,-5.8606 0.59426,-0.67599 5.17743,-4.56921 8.4928,-7.21428 4.11639,-3.28415 5.99485,-4.51975 6.62926,-4.36052 0.78717,0.19757 2.64008,1.84517 4.64585,4.13109 4.66313,5.31443 7.57531,6.34094 20.70035,7.29663 8.26895,0.6021 10.19616,0.96852 12.24073,2.32734 1.19911,0.79693 4.0735,3.52016 4.65942,4.4144 l 0.39008,0.59533 -1.74551,1.65649 c -3.11128,2.95262 -13.39272,11.66273 -27.99649,23.71773 -13.52987,11.16854 -18.06653,14.87265 -18.21446,14.87185 -0.0806,-4.3e-4 -0.47903,-0.20239 -0.88529,-0.44879 z"
     id="path122" /><path
     style="fill:#ffffff;stroke:none;stroke-width:5.65606;stroke-linecap:round;stroke-dasharray:none"
     d="m 212.80807,221.71245 c -1.60431,-0.8026 -3.91076,-2.75644 -4.42282,-3.74665 -0.52179,-1.00903 -0.0951,-1.61869 3.05843,-4.37025 9.11057,-7.94921 35.47217,-29.83589 56.48048,-46.89282 4.64574,-3.77194 8.78686,-6.94016 9.07136,-6.94016 0.40475,0 1.71294,1.5338 2.28859,2.68327 0.56927,1.13672 1.09696,2.73103 1.29497,3.91246 0.20786,1.24013 -0.35265,2.10596 -3.36305,5.19503 -5.59827,5.74455 -15.48855,14.31551 -34.60553,29.98932 -18.3583,15.05178 -26.14037,20.90088 -27.80803,20.90088 -0.29318,0 -1.19066,-0.32899 -1.9944,-0.73108 z"
     id="path123" /><path
     style="fill:#ffffff;stroke:none;stroke-width:5.65606;stroke-linecap:round;stroke-dasharray:none"
     d="m 289.67722,159.66817 c -1.40637,-1.86863 -3.06759,-4.51217 -3.86911,-6.15703 l -0.5781,-1.18636 1.68837,-1.57747 c 0.92861,-0.86761 3.71718,-3.24082 6.19682,-5.27379 l 4.50843,-3.69632 1.34417,1.33222 c 0.86327,0.8556 1.25717,1.38599 1.101,1.48251 -0.30406,0.18791 0.036,0.73358 1.36559,2.19125 0.84286,0.92406 1.01341,1.02449 1.37205,0.80792 0.35863,-0.21657 0.55094,-0.10337 1.54682,0.91049 1.12297,1.14326 1.13185,1.16228 0.7067,1.5136 -7.91491,6.54046 -13.78038,11.22471 -14.05521,11.22471 -0.0795,0 -0.67693,-0.70728 -1.32753,-1.57173 z"
     id="path124" /><path
     style="fill:#ffffff;stroke:none;stroke-width:5.65606;stroke-linecap:round;stroke-dasharray:none"
     d="m 310.71066,140.15279 c -1.06357,-0.49854 -2.93471,-2.21703 -4.01222,-3.68489 l -0.7676,-1.04568 1.36269,-1.26047 c 3.53831,-3.27288 14.24259,-12.36434 19.29416,-16.3871 l 2.73609,-2.17885 0.81399,0.91726 c 1.42885,1.6101 3.10543,5.62638 3.10543,7.4391 0,0.70285 -0.18992,1.06729 -1.19895,2.30062 -2.1071,2.5755 -7.64074,7.56528 -12.09701,10.90807 -4.01231,3.00976 -7.0792,4.00319 -9.23658,2.99194 z"
     id="path125" /><path
     style="fill:#ffffff;stroke:none;stroke-width:5.65606;stroke-linecap:round;stroke-dasharray:none"
     d="m 309.65792,116.59899 c -1.7316,-1.48218 -5.72142,-6.82151 -7.0207,-9.39537 -0.74806,-1.4819 -0.77848,-2.03644 -0.17658,-3.21862 1.094,-2.1487 3.05496,-3.97466 14.42642,-13.433248 16.84264,-14.009435 20.5304,-16.861871 24.16326,-18.690016 2.23868,-1.126559 3.70037,-1.218263 5.21992,-0.32749 1.05209,0.616745 5.50181,5.248512 7.63728,7.949716 l 0.8538,1.080005 -1.20918,1.146273 c -4.05522,3.844223 -42.35418,35.63189 -42.93063,35.63189 -0.0525,0 -0.48609,-0.33441 -0.96359,-0.74314 z"
     id="path126" /><path
     style="fill:#ffffff;stroke:none;stroke-width:5.65606;stroke-linecap:round;stroke-dasharray:none"
     d="m 340.26557,113.4404 -3.00236,-4.5235 11.76484,-9.769248 c 6.47067,-5.373088 11.90686,-9.881029 12.08044,-10.017646 0.26281,-0.206856 0.70161,0.208674 2.62386,2.484743 2.98728,3.537124 4.00373,5.070697 3.82716,5.774227 -0.18244,0.726891 -2.43293,2.926954 -5.93854,5.805484 -13.88482,11.40111 -18.04402,14.78002 -18.18708,14.77512 -0.0913,-0.003 -1.51702,-2.04126 -3.16832,-4.52918 z"
     id="path127" /><path
     style="fill:#ffffff;stroke:none;stroke-width:5.65606;stroke-linecap:round;stroke-dasharray:none"
     d="m 320.75486,202.88497 c -2.11645,-1.70114 -5.6617,-5.63352 -5.6617,-6.27995 0,-0.47204 7.23044,-6.66834 26.4864,-22.69816 24.30056,-20.22924 41.99305,-34.61585 42.5702,-34.61585 0.7608,0 5.02848,5.79652 5.53286,7.51494 0.10429,0.3553 -0.16348,0.72225 -1.3301,1.82278 -4.69253,4.4267 -22.92359,19.91725 -39.70289,33.73474 -19.04876,15.68634 -25.9457,21.08583 -26.93362,21.08583 -0.14248,0 -0.575,-0.25395 -0.96115,-0.56433 z"
     id="path128" /><path
     style="fill:#ffffff;stroke:none;stroke-width:5.65606;stroke-linecap:round;stroke-dasharray:none"
     d="m 369.95405,205.83469 c -2.0457,-1.01316 -6.51664,-5.83364 -11.43419,-12.32812 -2.77888,-3.66998 -2.67188,-3.36944 -1.60977,-4.52169 1.6949,-1.83875 8.44975,-7.39381 10.93337,-8.9914 0.51605,-0.33194 1.16378,-0.60354 1.43941,-0.60354 1.01878,0 6.69212,6.02162 10.83681,11.50206 2.05037,2.71118 2.15677,2.92711 2.15677,4.37696 0,1.00473 -0.15587,1.52763 -0.90754,3.04456 -0.75601,1.5257 -1.264,2.18816 -3.04259,3.9678 -2.89955,2.90125 -4.84217,4.12264 -6.5571,4.12264 -0.36615,0 -1.18298,-0.25618 -1.81517,-0.56927 z"
     id="path129" /><path
     style="fill:#ffffff;stroke:none;stroke-width:5.65606;stroke-linecap:round;stroke-dasharray:none"
     d="m 389.86707,229.23443 c -1.53056,-0.54042 -2.5204,-1.27844 -4.54074,-3.38554 -2.26468,-2.36194 -6.57653,-7.66071 -7.10802,-8.73496 -0.2707,-0.54713 -0.35889,-0.9926 -0.25506,-1.28838 0.0873,-0.24865 1.25779,-1.19481 2.60112,-2.10258 3.48019,-2.35177 6.0445,-4.69461 8.16795,-7.46251 0.99558,-1.29772 1.87075,-2.36615 1.94483,-2.37428 0.19799,-0.0217 7.24429,8.58292 8.77452,10.71509 0.72134,1.00508 1.55879,2.2795 1.86101,2.83205 0.54847,1.00278 0.54884,1.00687 0.20181,2.216 -0.71385,2.48714 -3.31408,6.24058 -5.42482,7.83072 -2.50648,1.88827 -4.36188,2.41137 -6.2226,1.75439 z"
     id="path130" /><path
     style="fill:#ffffff;stroke:none;stroke-width:5.65606;stroke-linecap:round;stroke-dasharray:none"
     d="m 410.03142,253.1733 c -1.6159,-0.57721 -2.89504,-1.52866 -5.24518,-3.90148 -2.5319,-2.55632 -6.20485,-6.85138 -7.76557,-9.08087 l -0.90843,-1.2977 0.80291,-0.32047 c 3.52262,-1.40602 6.36632,-3.54571 9.7724,-7.35305 1.10272,-1.23263 2.35248,-2.52195 2.77725,-2.86516 l 0.7723,-0.62402 1.2644,1.35165 c 2.30799,2.46725 8.41625,10.57191 9.35586,12.41369 1.60329,3.14272 -0.77075,8.8424 -4.45822,10.7034 -2.40547,1.214 -4.70933,1.56641 -6.36772,0.97401 z"
     id="path131" /><path
     style="fill:#ffffff;stroke:none;stroke-width:5.65606;stroke-linecap:round;stroke-dasharray:none"
     d="m 389.66083,106.52597 c -0.53775,-0.49332 -2.00768,-2.11189 -3.26651,-3.59682 -1.7512,-2.06572 -2.2888,-2.84201 -2.2888,-3.305036 0,-1.276803 2.32635,-3.527351 12.24073,-11.841876 15.79576,-13.246852 32.77574,-27.000705 33.33403,-27.000705 0.25334,0 3.29889,3.179438 4.5486,4.748558 1.43497,1.801719 2.30948,3.504362 2.14222,4.170799 -0.17614,0.701785 -9.78741,8.969499 -24.93644,21.45059 -11.99484,9.88239 -20.06246,16.27144 -20.54637,16.27144 -0.13736,0 -0.68971,-0.40363 -1.22746,-0.89695 z"
     id="path132" /><path
     style="fill:#ffffff;stroke:none;stroke-width:5.65606;stroke-linecap:round;stroke-dasharray:none"
     d="m 449.1787,66.638087 c -2.76194,-2.643982 -9.76048,-10.646449 -13.0046,-14.870073 -1.89539,-2.467677 -3.10567,-4.357708 -3.10567,-4.849951 0,-1.088194 5.18221,-5.678476 6.89646,-6.108726 0.44161,-0.110835 0.7344,0.07005 1.79455,1.108664 4.27099,4.18422 15.43399,17.603976 16.73275,20.115514 0.27756,0.536743 0.25986,0.643801 -0.22426,1.356243 -1.18127,1.738402 -5.62518,4.989467 -6.82015,4.989467 -0.27629,0 -1.153,-0.672727 -2.26908,-1.741138 z"
     id="path133" /><path
     style="fill:#ffffff;stroke:none;stroke-width:5.65606;stroke-linecap:round;stroke-dasharray:none"
     d="m 460.12419,46.928605 c -0.90326,-0.912464 -2.42183,-2.600603 -3.37459,-3.751419 -2.32177,-2.80442 -2.32327,-2.779643 0.32542,-5.39202 3.00921,-2.967954 18.29656,-15.584961 23.00306,-18.984957 1.52021,-1.098213 1.53186,-1.102344 2.02152,-0.717174 1.25696,0.988725 5.55473,6.279223 6.3271,7.788579 l 0.33339,0.651499 -1.30667,1.267013 c -4.85135,4.704099 -23.59706,19.995541 -25.32557,20.658836 -0.26524,0.10178 -0.79826,-0.302668 -2.00366,-1.520357 z"
     id="path134" /></svg>
