<?xml version="1.0" encoding="UTF-8" standalone="no"?>
<!-- Created with Inkscape (http://www.inkscape.org/) -->

<svg
   width="512"
   height="512"
   viewBox="0 0 512 512"
   version="1.1"
   id="svg1"
   xml:space="preserve"
   xmlns="http://www.w3.org/2000/svg"
   xmlns:svg="http://www.w3.org/2000/svg"><defs
     id="defs1" /><g
     id="g26"
     transform="translate(11.839116,-18.380837)"><g
       id="g2">
	<g
   id="g1">
		<polygon
   points="210.165,328.178 201.333,336.301 208.104,343.663 216.136,362.831 227.204,358.193 218.36,337.087 "
   id="polygon1" />
	</g>
</g><g
       id="g4">
	<g
   id="g3">
		<path
   d="m 497.07,35.335 -8.123,-8.833 -8.864,8.151 -10.979,-11.938 -19.657,-21.373 -12.999,11.956 4.702,35.126 -45.085,41.464 -4.416,4.061 c -5.721,5.265 -13.959,0.166 -14.274,-0.032 l -3.903,-2.538 -40.35,37.108 -7.992,-8.69 -56.229,51.714 6.221,6.765 -15.896,14.62 -6.222,-6.766 -108.05,99.371 1.792,23.6 -1.201,1.104 -17.093,15.719 c -9.563,8.796 -21.525,15.145 -34.591,18.359 -8.245,2.029 -15.813,6.055 -21.886,11.639 L 4.54,417.94 c -6.116,5.625 -6.043,15.692 0.163,22.441 l 45.618,49.603 c 3.384,3.681 7.939,5.744 12.611,5.744 0.279,0 0.561,-0.007 0.84,-0.022 4.285,-0.227 8.164,-2.277 10.643,-5.625 l 102.236,-138.029 6.929,-6.373 10.241,11.137 21.868,60.626 46.481,-19.492 -24.079,-64.534 c 0.083,10e-4 0.167,0.006 0.25,0.006 6.181,0 12.049,-2.285 16.626,-6.494 l 13.935,-12.815 4.435,4.821 8.832,-8.123 -4.435,-4.821 9.5,-8.736 c 21.01,12.224 45.089,18.847 69.616,18.847 4.533,0 9.084,-0.227 13.631,-0.685 l 21.638,-2.181 -5.055,-50.157 -21.637,2.181 c -25.227,2.539 -50.521,-6.196 -68.835,-23.514 l 76.22,-70.098 -10.977,-11.94 31.649,-29.107 5.643,6.136 8.832,-8.123 -5.643,-6.136 4.02,-3.696 v 10e-4 l 7.711,-7.092 5.643,6.136 8.832,-8.123 -5.643,-6.136 60.911,-56.019 z m -172.649,101.417 10.163,11.051 -15.214,13.992 -23.352,21.476 -10.163,-11.051 z m -41.177,50.355 3.942,4.286 -15.896,14.619 -3.942,-4.286 z m -30.95,15.977 10.164,11.051 -7.327,6.739 -5.708,-6.206 -91.429,84.086 -0.635,-8.361 z M 64.771,482.937 c -0.133,0.179 -0.537,0.726 -1.636,0.785 -1.352,0.068 -2.843,-0.625 -3.981,-1.861 L 13.535,432.257 c -1.847,-2.008 -1.942,-4.502 -0.873,-5.485 l 2.261,-2.079 51.507,56.006 z m 8.931,-12.058 -49.946,-54.31 56.342,-51.815 c 4.655,-4.282 10.251,-7.249 16.63,-8.819 15.021,-3.695 28.8,-11.02 39.847,-21.178 l 8.261,-7.598 19.563,21.272 z m 98.822,-131.338 -5.367,-5.835 31.523,-28.991 -8.123,-8.833 -31.523,28.991 -5.367,-5.836 95.047,-87.412 18.857,20.504 -16.367,15.052 -4.961,4.563 v -0.001 l -20.209,18.586 -11.831,10.881 -6.455,5.938 z m 74.374,51.8 -24.205,10.149 -18.403,-51.022 -11.877,-12.914 21.081,-19.388 6.718,7.305 c 0.001,10e-4 0.003,0.003 0.004,0.004 l 3.543,3.853 z m -0.053,-73.248 c -2.479,2.278 -5.703,3.455 -9.055,3.314 -3.36,-0.141 -6.466,-1.581 -8.743,-4.057 l -6.722,-7.307 4.994,-4.593 c 4.429,5.495 11.11,8.71 18.188,8.71 1.3,0 2.613,-0.108 3.928,-0.33 l -2.001,-11.832 c -4.389,0.741 -8.739,-1.13 -11.243,-4.707 l 9.343,-8.592 15.246,16.577 z m 22.766,-20.939 -15.245,-16.577 5.066,-4.66 c 5.401,5.375 11.211,10.267 17.364,14.629 z m 97.02,-19.96 9.697,-0.978 2.648,26.278 -9.698,0.978 c -37.203,3.749 -74.511,-9.53 -101.012,-35.681 l 7.428,-6.83 12.041,-11.074 c 20.873,20.075 49.927,30.225 78.896,27.307 z m -90.228,-33.189 -7.571,-8.232 -5.579,-6.066 24.213,-22.268 10.892,11.843 45.219,-41.587 -8.123,-8.833 -36.387,33.464 -2.768,-3.01 25.557,-23.505 20.852,-19.176 4.856,5.281 5.438,5.913 2.855,3.105 z m 77.308,-93.131 -5.74,-6.242 -6.726,-7.313 33.865,-31.145 c 5.273,2.146 12.767,3.417 19.67,0.041 l 3.433,3.732 z M 460.271,30.838 451.93,38.51 449.307,18.916 Z m -53.226,70.987 -1.428,-1.553 -1.429,-1.553 64.207,-59.049 2.855,3.105 z"
   id="path2" />
	</g>
</g><g
       id="g5">
</g><g
       id="g6">
</g><g
       id="g7">
</g><g
       id="g8">
</g><g
       id="g9">
</g><g
       id="g10">
</g><g
       id="g11">
</g><g
       id="g12">
</g><g
       id="g13">
</g><g
       id="g14">
</g><g
       id="g15">
</g><g
       id="g16">
</g><g
       id="g17">
</g><g
       id="g18">
</g><g
       id="g19">
</g></g><path
     style="fill:#ffffff;stroke:none;stroke-width:2.82803;stroke-linecap:round;stroke-dasharray:none"
     d="m 73.461485,465.04284 c -0.824406,-0.29658 -1.425345,-0.67838 -2.130623,-1.35366 -1.277814,-1.22347 -46.151077,-50.11307 -46.541902,-50.70759 -0.632293,-0.96185 -0.868267,-1.6747 -0.878377,-2.65348 -0.0064,-0.62363 0.04242,-0.94727 0.18703,-1.23875 0.107663,-0.21701 0.748708,-0.91183 1.424545,-1.54403 l 1.228795,-1.14946 25.325266,27.53016 c 13.928895,15.14159 25.498455,27.73178 25.710132,27.97819 l 0.384868,0.44802 -0.912485,1.21162 c -1.110726,1.47484 -1.424699,1.68669 -2.495337,1.68369 -0.457721,-10e-4 -0.952891,-0.0791 -1.301912,-0.20471 z"
     id="path26" /><path
     style="fill:#ffffff;stroke:none;stroke-width:2.82803;stroke-linecap:round;stroke-dasharray:none"
     d="M 60.656454,425.33883 C 46.979798,410.46661 35.783389,398.26008 35.775547,398.21321 c -0.01062,-0.0634 51.363329,-47.38959 56.404216,-51.96008 2.891692,-2.62185 6.305176,-4.83792 9.861457,-6.40215 2.14743,-0.94455 3.95053,-1.54884 7.13773,-2.39214 7.04014,-1.86275 12.43052,-3.8469 18.34619,-6.75306 6.89785,-3.38868 13.77973,-7.96526 19.36357,-12.87715 1.02953,-0.90564 8.42934,-7.67912 9.29348,-8.50687 l 0.48228,-0.46196 9.70074,10.55068 c 5.3354,5.80287 9.70074,10.59824 9.70074,10.65638 0,0.0804 -90.470632,122.31237 -90.530119,122.31237 -0.007,0 -11.20272,-12.16818 -24.879377,-27.0404 z"
     id="path27" /><path
     style="fill:#ffffff;stroke:none;stroke-width:7.99888;stroke-linecap:round;stroke-dasharray:none"
     d="m 182.03408,318.36723 c -1.23401,-1.34281 -2.33632,-2.59625 -2.44957,-2.78541 -0.12638,-0.21107 5.41423,-5.50266 14.34386,-13.69919 8.00239,-7.3454 15.06433,-13.8518 15.69321,-14.45867 l 1.14341,-1.10341 -3.79477,-4.14996 c -2.08712,-2.28248 -3.96347,-4.33177 -4.16966,-4.55398 -0.30881,-0.33279 -3.15527,2.15345 -16.14673,14.10336 l -15.77184,14.50739 -2.45738,-2.61244 c -1.35156,-1.43685 -2.42839,-2.75694 -2.39296,-2.93355 0.0354,-0.17661 13.56251,-12.73253 30.06019,-27.90206 16.49769,-15.16953 37.7011,-34.66779 47.1187,-43.32948 9.41759,-8.66169 17.21344,-15.74852 17.32409,-15.74852 0.26922,0 18.3814,19.72242 18.3814,20.01557 0,0.12621 -8.73602,8.26585 -19.41338,18.08809 -62.19848,57.2172 -74.63345,68.63933 -74.91409,68.81224 -0.17096,0.10532 -1.32047,-0.90717 -2.55448,-2.24998 z"
     id="path28" /><path
     style="fill:#ffffff;stroke:none;stroke-width:7.99888;stroke-linecap:round;stroke-dasharray:none"
     d="m 234.35212,382.08369 c -0.15482,-0.4367 -4.27973,-11.87452 -9.16647,-25.4174 l -8.88497,-24.6234 -1.49048,-1.64156 c -0.81976,-0.90286 -3.47037,-3.79549 -5.89024,-6.42806 l -4.39976,-4.7865 10.29012,-9.46523 c 5.65957,-5.20588 10.38678,-9.46523 10.5049,-9.46523 0.25547,0 9.47263,9.99966 10.0296,10.88107 0.44359,0.70198 23.21565,61.67061 23.07203,61.77175 -0.0522,0.0368 -3.98992,1.69379 -8.75045,3.68225 -4.76052,1.98846 -10.09039,4.21633 -11.84414,4.95084 l -3.18865,1.33545 z m 0.0545,-40.13312 c 2.4414,-1.01281 4.49471,-1.98691 4.56292,-2.16466 0.0682,-0.17776 -1.86214,-5.03767 -4.28967,-10.79982 l -4.41368,-10.47661 -3.98504,-4.35114 c -2.19177,-2.39312 -4.11586,-4.35113 -4.27574,-4.35113 -0.33583,0 -8.89449,7.80558 -8.8984,8.11542 -0.001,0.11334 1.51532,1.85936 3.37054,3.88005 l 3.37314,3.67397 4.01389,9.59739 4.01388,9.5974 1.04463,-0.4397 c 0.57455,-0.24184 3.04214,-1.26837 5.48353,-2.28117 z"
     id="path29" /><path
     style="fill:#ffffff;stroke:none;stroke-width:7.99888;stroke-linecap:round;stroke-dasharray:none"
     d="m 169.64646,276.04777 -0.26728,-3.94135 27.61298,-25.39712 c 59.98464,-55.17106 66.90211,-61.51145 67.10998,-61.51145 0.11852,0 2.39299,2.35042 5.05438,5.22315 l 4.83887,5.22315 -3.48531,3.30688 -3.48531,3.30688 -2.82884,-3.08277 c -2.42656,-2.64439 -2.89624,-3.02976 -3.30284,-2.70995 -0.2607,0.20505 -7.92996,7.22567 -17.0428,15.60138 -58.83085,54.07206 -71.63258,65.83416 -73.1592,67.21794 l -0.77736,0.70461 z"
     id="path30" /><path
     style="fill:#ffffff;stroke:none;stroke-width:7.99888;stroke-linecap:round;stroke-dasharray:none"
     d="m 360.69558,285.30633 c -25.49681,-1.69988 -50.27634,-11.23334 -70.19714,-27.00703 -3.51102,-2.78009 -9.94085,-8.48398 -9.94085,-8.8185 0,-0.1812 17.23334,-16.16511 18.57196,-17.22548 0.44228,-0.35035 0.8026,-0.13222 2.97883,1.80326 10.34543,9.20099 22.67396,16.25304 35.87018,20.51812 13.89215,4.49001 27.91936,5.76101 44.41633,4.02453 2.90603,-0.30589 5.37321,-0.46665 5.48262,-0.35725 0.28641,0.28642 2.79869,25.4111 2.56306,25.63256 -0.1083,0.1018 -2.48017,0.4059 -5.27082,0.67581 -11.15879,1.07924 -16.92919,1.25701 -24.47417,0.75398 z"
     id="path31" /><path
     style="fill:#ffffff;stroke:none;stroke-width:7.99888;stroke-linecap:round;stroke-dasharray:none"
     d="m 281.90068,218.45131 c -3.44728,-3.75622 -6.26778,-6.9488 -6.26778,-7.09462 0,-0.30364 23.33349,-21.83137 23.66171,-21.83054 0.11854,2.9e-4 2.62048,2.62537 5.55986,5.8335 l 5.34432,5.83295 0.92345,-0.87952 c 0.5079,-0.48375 10.59374,-9.75983 22.41298,-20.61352 11.81923,-10.8537 21.61252,-19.91595 21.76288,-20.13834 0.20019,-0.29613 -0.78971,-1.55274 -3.6984,-4.69486 -2.18446,-2.35978 -4.13113,-4.29051 -4.32592,-4.29051 -0.27242,0 -25.18257,22.68094 -34.71476,31.60813 l -1.57593,1.4759 -1.19347,-1.16539 c -0.65641,-0.64097 -1.15603,-1.32826 -1.11026,-1.52732 0.0458,-0.19906 7.20162,-6.90284 15.90189,-14.8973 8.70027,-7.99445 18.99613,-17.46658 22.87968,-21.04917 l 7.06101,-6.51379 6.48058,7.02815 c 3.56432,3.86549 6.36364,7.13267 6.22071,7.26041 -0.14294,0.12774 -17.8677,16.41523 -39.38838,36.19441 -21.52067,19.77918 -39.24952,36.03612 -39.39744,36.12654 -0.14793,0.0904 -3.08945,-2.90889 -6.53673,-6.66511 z"
     id="path32" /><path
     style="fill:#ffffff;stroke:none;stroke-width:7.99888;stroke-linecap:round;stroke-dasharray:none"
     d="m 281.24313,185.34587 -1.85142,-1.95355 4.18752,-3.83565 c 2.30314,-2.10962 5.83989,-5.35948 7.85945,-7.22192 l 3.67193,-3.38625 1.81575,2.04305 1.81576,2.04305 -6.62841,6.08163 c -3.64562,3.34489 -7.16632,6.55448 -7.82378,7.13241 l -1.19539,1.05078 z"
     id="path33" /><path
     style="fill:#ffffff;stroke:none;stroke-width:7.99888;stroke-linecap:round;stroke-dasharray:none"
     d="m 303.05174,159.39076 c -2.6485,-2.87833 -4.83524,-5.33864 -4.85944,-5.46736 -0.0528,-0.28109 37.78595,-35.14494 38.10511,-35.10924 0.33963,0.038 9.67449,10.34631 9.6217,10.62508 -0.0254,0.13421 -3.82951,3.7233 -8.45354,7.97574 -4.62404,4.25244 -13.17532,12.11413 -19.00286,17.47041 l -10.59553,9.73869 z"
     id="path34" /><path
     style="fill:#ffffff;stroke:none;stroke-width:3.99944;stroke-linecap:round;stroke-dasharray:none"
     d="m 359.4271,125.69928 c -3.3652,-3.65818 -6.12894,-6.69267 -6.14164,-6.74331 -0.0127,-0.0506 1.19608,-1.20525 2.68619,-2.56579 1.49011,-1.36054 9.07108,-8.32451 16.8466,-15.47548 l 14.13732,-13.001778 1.24552,0.431567 c 6.09727,2.112665 12.0888,2.153318 17.1617,0.116444 l 1.2466,-0.500535 1.65668,1.79695 1.65669,1.796949 -0.32596,0.316516 c -0.23449,0.227701 -30.14218,27.710847 -43.67808,40.137207 l -0.37308,0.3425 z"
     id="path35" /><path
     style="fill:#ffffff;stroke:none;stroke-width:3.99944;stroke-linecap:round;stroke-dasharray:none"
     d="m 417.78722,82.130456 c -0.56898,-0.619277 -1.15771,-1.282584 -1.30829,-1.474014 l -0.27378,-0.348057 17.57466,-16.16418 c 9.66607,-8.890299 23.85364,-21.933467 31.52793,-28.984817 7.6743,-7.051349 14.17222,-13.025571 14.43984,-13.276047 l 0.48657,-0.455412 1.22961,1.320764 c 0.67628,0.72642 1.27857,1.403368 1.33842,1.50433 0.0717,0.121004 -10.77813,10.196724 -31.83538,29.563903 -17.56931,16.159185 -31.98939,29.393645 -32.04463,29.409913 -0.0552,0.01627 -0.56596,-0.477106 -1.13495,-1.096383 z"
     id="path36" /><path
     style="fill:#ffffff;stroke:none;stroke-width:3.99944;stroke-linecap:round;stroke-dasharray:none"
     d="m 247.67024,302.70826 c -2.03779,-0.45714 -3.5599,-1.17334 -5.26989,-2.47963 -0.6334,-0.48386 -3.1414,-3.1336 -7.5416,-7.9678 l -0.55593,-0.61076 2.4021,-2.20079 2.40209,-2.20078 1.28772,1.3272 c 3.73446,3.84896 8.17703,6.16786 13.38004,6.98402 1.27365,0.19978 2.25912,0.24191 4.43887,0.18977 1.74984,-0.0419 2.86339,-0.12863 2.96587,-0.23111 0.11929,-0.1193 -0.10576,-1.75063 -0.82445,-5.97607 -0.54369,-3.19659 -0.98853,-5.84892 -0.98853,-5.89407 0,-0.0451 -0.62118,-0.0457 -1.3804,-10e-4 -2.26285,0.13247 -4.44484,-0.41171 -6.4906,-1.61876 -0.84418,-0.49809 -3.33307,-2.79358 -3.30865,-3.05156 0.014,-0.14817 9.10004,-8.50793 9.20266,-8.46708 0.0348,0.0139 3.44687,3.7068 7.58233,8.20654 5.81258,6.32459 7.4776,8.22036 7.33654,8.35332 -3.86793,3.64553 -14.45293,13.23538 -15.08756,13.66909 -1.07724,0.7362 -2.70548,1.49843 -3.89824,1.82488 -1.30047,0.35594 -4.36172,0.43439 -5.65237,0.14485 z"
     id="path37" /></svg>
