<?xml version="1.0" encoding="UTF-8" standalone="no"?>
<!-- Created with Inkscape (http://www.inkscape.org/) -->

<svg
   width="512"
   height="512"
   viewBox="0 0 512 512"
   version="1.1"
   id="svg1"
   xml:space="preserve"
   xmlns="http://www.w3.org/2000/svg"
   xmlns:svg="http://www.w3.org/2000/svg"><defs
     id="defs1" /><path
     style="fill:#ffffff;stroke:none;stroke-width:10.943;stroke-linecap:round;stroke-dasharray:none"
     d="m 143.98836,245.31039 c -3.17105,-3.01218 -3.62417,-3.68055 -2.49523,-3.68055 0.79998,0 33.82864,-33.00302 34.82537,-34.79833 0.40857,-0.73591 1.24932,-1.58486 1.86833,-1.88655 0.61901,-0.30168 17.74718,-17.1763 38.06261,-37.49914 31.08045,-31.09182 37.03315,-36.87092 37.54279,-36.44796 0.33312,0.27646 1.54825,1.59069 2.70029,2.9205 l 2.09462,2.41785 -19.33675,19.33962 c -10.63522,10.6368 -19.47754,19.7202 -19.6496,20.18534 -0.17207,0.46515 -0.56367,0.84572 -0.87022,0.84572 -0.59441,0 -8.55148,7.84777 -8.80918,8.68818 -0.2312,0.75395 -2.18369,2.7448 -2.69194,2.7448 -0.24552,0 -5.49378,5.06923 -11.66282,11.26497 -6.16902,6.19574 -11.47381,11.47838 -11.78842,11.73921 -1.46034,1.21073 -3.71535,3.71864 -3.71535,4.13204 0,0.56285 -3.34317,3.89612 -3.90769,3.89612 -0.62083,0 -4.30426,3.75769 -4.70296,4.79777 -0.19371,0.50529 -0.59836,0.91871 -0.89923,0.91871 -0.30088,0 -1.45383,0.92684 -2.56211,2.05963 -1.10829,1.13279 -3.46467,3.47553 -5.23642,5.20609 -1.77174,1.73055 -4.61977,4.61544 -6.32896,6.41086 -1.70919,1.79542 -4.5038,4.7153 -6.21025,6.48863 l -3.10263,3.22423 z"
     id="path142" /><path
     style="fill:#ffffff;stroke:none;stroke-width:10.943;stroke-linecap:round;stroke-dasharray:none"
     d="m 128.58097,492.63936 c -5.64424,-2.85159 -9.40787,-5.24887 -34.673716,-22.08575 -23.227767,-15.47873 -39.983207,-26.96779 -47.313027,-32.44213 -3.832263,-2.86217 -4.790607,-3.79628 -5.485291,-5.3466 -1.089603,-2.43168 -1.173153,-6.79934 -0.159654,-8.34615 1.296287,-1.97837 49.413461,-50.58915 124.331788,-125.6072 l 74.43623,-74.53531 1.53282,1.74733 c 0.84305,0.96104 2.10391,2.06351 2.80191,2.44992 0.698,0.38643 2.22006,1.48298 3.38237,2.43677 2.96675,2.43456 5.54293,3.1087 10.99463,2.87713 2.8551,-0.12128 4.73385,-0.40373 5.54367,-0.83342 1.41574,-0.7512 5.99108,-4.92579 17.21642,-15.70843 4.39104,-4.21786 8.14545,-7.6236 8.34314,-7.56832 0.45741,0.12793 23.91646,-22.99805 29.93012,-29.50516 5.05659,-5.47152 32.46707,-32.35199 34.57792,-33.90932 1.61222,-1.18947 2.00866,-1.24064 2.00866,-0.25931 0,1.56858 -7.93885,10.08131 -30.2937,32.48353 -5.34694,5.35826 -9.7217,10.05563 -9.7217,10.43858 0,1.18318 1.62299,18.12791 1.86068,19.4262 0.20413,1.11503 0.0666,1.30588 -1.53278,2.1266 -0.96636,0.4959 -2.30826,1.02749 -2.98198,1.18129 -1.67856,0.38322 -4.93445,2.03609 -7.14561,3.62752 -1.01059,0.72734 -2.09079,1.23273 -2.40041,1.12309 -0.33494,-0.1186 -2.02203,1.35139 -4.16513,3.62916 -1.98119,2.10568 -4.1648,4.37975 -4.85247,5.05348 -0.68767,0.67373 -3.93224,3.84245 -7.21018,7.04163 -3.77552,3.68479 -5.87885,6.02777 -5.73883,6.39268 0.12157,0.3168 -0.15585,0.91483 -0.61649,1.32894 -1.50276,1.35094 -4.51104,5.86818 -5.48514,8.23648 -1.47727,3.59166 -1.30089,5.89003 1.04582,13.62836 3.57753,11.79697 12.54269,36.96265 17.22273,48.34514 1.73789,4.22676 2.51128,5.57567 4.31194,7.52058 1.20681,1.30351 3.10786,2.9563 4.22454,3.67288 1.11669,0.71658 2.03033,1.42354 2.03033,1.57104 0,0.1475 -3.12006,3.3842 -6.93348,7.19267 -4.29877,4.29319 -7.07244,6.77405 -7.29916,6.52861 -1.25513,-1.35877 -6.81972,-9.23545 -8.54416,-12.09423 -5.93914,-9.84601 -10.05876,-19.79313 -12.99583,-31.37943 -2.1939,-8.6546 -3.79649,-12.23093 -6.97323,-15.56141 -3.74972,-3.93118 -9.90775,-6.42064 -14.77359,-5.9724 -9.69971,0.89355 -13.13771,4.53829 -25.70458,27.2503 -12.74722,23.03795 -16.57675,29.25336 -19.49968,31.64849 -0.99874,0.81839 -1.70499,1.66738 -1.56946,1.88666 0.13552,0.21928 -1.20447,1.99673 -2.97777,3.94987 -23.77509,26.1864 -37.956,51.17926 -45.57087,80.31541 l -1.70746,6.53312 -0.0201,27.35747 c -0.0226,30.70283 0.23449,28.01698 -3.26247,34.07968 -3.64368,6.31707 -8.24062,10.21143 -12.0629,10.21926 -1.45134,0.003 -2.82504,-0.47819 -6.12481,-2.1453 z m 20.44954,-50.11588 c 0,-1.36107 -0.18148,-2.44993 -0.40832,-2.44993 -0.22684,0 -0.40832,1.08886 -0.40832,2.44993 0,1.36107 0.18148,2.44992 0.40832,2.44992 0.22684,0 0.40832,-1.08885 0.40832,-2.44992 z"
     id="path143" /><path
     style="fill:#ffffff;stroke:none;stroke-width:10.943;stroke-linecap:round;stroke-dasharray:none"
     d="m 256.03853,217.91752 c -0.68917,-0.5778 -1.25303,-1.34729 -1.25303,-1.70999 0,-0.36271 -0.82685,-1.25325 -1.83744,-1.979 -1.0106,-0.72576 -1.83745,-1.33686 -1.83745,-1.358 0,-0.0212 25.49071,-25.52892 56.64601,-56.68396 l 56.646,-56.645532 2.30565,2.281582 c 1.2681,1.25487 2.72735,2.49364 3.24276,2.75281 1.0742,0.54015 1.53862,1.49121 0.72941,1.4937 -0.29943,9.2e-4 -14.7846,14.31064 -32.18926,31.79937 -17.40466,17.48874 -31.99063,32.14158 -32.41327,32.56188 -0.42265,0.4203 -11.57247,11.51322 -24.77739,24.65093 l -24.00896,23.88674 z"
     id="path144" /><path
     style="fill:#ffffff;stroke:none;stroke-width:10.943;stroke-linecap:round;stroke-dasharray:none"
     d="m 252.53973,414.1868 c -0.8983,-0.52705 -10.82049,-6.19523 -22.0493,-12.59594 -21.54932,-12.28365 -42.944,-24.65283 -43.78037,-25.31131 -0.3744,-0.29476 -0.0781,-1.01745 1.19083,-2.90435 6.14613,-9.1394 24.59216,-31.57556 25.8597,-31.45352 0.84848,0.0817 44.63119,27.19435 53.76665,33.29525 l 4.77949,3.19188 -0.52605,1.73954 c -1.70405,5.63506 -15.87388,34.73738 -16.99518,34.90512 -0.33687,0.0504 -1.34746,-0.3396 -2.24577,-0.86667 z"
     id="path145" /><path
     style="fill:none;stroke:#ffffff;stroke-width:5.47149;stroke-linecap:round;stroke-dasharray:none"
     d="m 415.10699,202.88442 c -1.65883,-1.56387 -8.93317,-8.71371 -16.16522,-15.88854 -10.81248,-10.72696 -13.06766,-13.05718 -12.69054,-13.11281 0.91052,-0.13431 7.71313,-7.11819 7.49277,-7.69243 -0.0561,-0.14623 0.0561,-0.40898 0.24938,-0.58389 0.32549,-0.29457 1.53986,0.87051 16.47072,15.80228 l 16.11933,16.12029 -3.26513,3.28145 c -1.79581,1.8048 -3.6994,3.64945 -4.23019,4.09924 l -0.96507,0.8178 z"
     id="path146" /><path
     style="fill:#ffffff;stroke:none;stroke-width:26.8;stroke-linecap:round;stroke-dasharray:none"
     d="m 195.19645,206.8366 c 0,0 45.66522,-0.89539 45.66522,-0.89539 0,0 22.68338,-25.36957 22.68338,-25.36957 0,0 -41.78517,0 -41.78517,0 z"
     id="path147"
     transform="matrix(0.96736847,0,0,0.96736847,5.7100455,14.195365)" /><path
     style="fill:#ffffff;stroke:none;stroke-width:26.8;stroke-linecap:round;stroke-dasharray:none"
     d="m 258.47114,139.68186 c 0,0 48.64988,1.7908 48.64988,1.7908 0,0 28.05576,-29.54809 28.05576,-29.54809 0,0 -57.30538,-0.29847 -57.30538,-0.29847 z"
     id="path148"
     transform="matrix(0.96736847,0,0,0.96736847,5.7100455,14.195365)" /><path
     style="fill:#ffffff;stroke:none;stroke-width:26.8;stroke-linecap:round;stroke-dasharray:none"
     d="m 373.0819,74.317914 c 0,0 82.07801,-79.0933623 82.07801,-79.0933623 0,0 11.04323,5.9693104 11.04323,5.9693104 0,0 3.88005,10.1478279 3.88005,10.1478279 0,0 -78.7949,81.779551 -78.7949,81.779551 z"
     id="path149"
     transform="matrix(0.96736847,0,0,0.96736847,5.7100455,14.195365)" /><g
     id="g134"
     transform="matrix(0.96736847,0,0,0.96736847,10.60989,37.061306)"><path
       style="fill:#d0d0d0;fill-opacity:1"
       d="m 161.36688,446.42292 c 0,-1.375 0.22697,-1.9375 0.50439,-1.25 0.27741,0.6875 0.27741,1.8125 0,2.5 -0.27742,0.6875 -0.50439,0.125 -0.50439,-1.25 z m -18.90571,-27.5 c 0.0111,-2.2 0.21588,-2.98226 0.45508,-1.73834 0.23919,1.24391 0.23011,3.04391 -0.0202,4 -0.2503,0.95608 -0.446,-0.0617 -0.4349,-2.26166 z m 53.74782,-113.87756 c 0,-0.20765 0.7875,-0.99515 1.75,-1.75 1.58605,-1.24387 1.62142,-1.2085 0.37755,0.37756 -1.30637,1.66575 -2.12755,2.19548 -2.12755,1.37244 z m -22,-97.12244 c 15.66776,-15.675 28.71184,-28.5 28.98684,-28.5 0.275,0 -12.31908,12.825 -27.98684,28.5 -15.66777,15.675 -28.71184,28.5 -28.98684,28.5 -0.275,0 12.31907,-12.825 27.98684,-28.5 z m 75.87244,-24.25 c -1.24387,-1.58606 -1.2085,-1.62143 0.37756,-0.37756 0.9625,0.75485 1.75,1.54235 1.75,1.75 0,0.82304 -0.82119,0.29331 -2.12756,-1.37244 z m 55.12756,-22.75 c 9.61321,-9.625 17.70356,-17.5 17.97856,-17.5 0.275,0 -7.36535,7.875 -16.97856,17.5 -9.61322,9.625 -17.70357,17.5 -17.97857,17.5 -0.275,0 7.36535,-7.875 16.97857,-17.5 z m 32.9861,-32.75 c 12.52773,-12.77286 14.0139,-14.20306 14.0139,-13.48611 0,0.14514 -6.1875,6.33264 -13.75,13.75 l -13.75,13.48611 z m -74.50956,-42.000002 -7.97654,-8.25 8.25,7.97654 c 7.66234,7.408366 8.70589,8.52346 7.97654,8.52346 -0.15041,0 -3.86291,-3.7125 -8.25,-8.25 z m 86.52346,-30.25 c 5.20327,-5.225 9.6855,-9.5 9.9605,-9.5 0.275,0 -3.75723,4.275 -8.9605,9.5 -5.20328,5.225 -9.6855,9.5 -9.9605,9.5 -0.275,0 3.75722,-4.275 8.9605,-9.5 z"
       id="path141" /><path
       style="fill:#b9b9b9;fill-opacity:1"
       d="m 22.081431,424.67292 c -1.243871,-1.58606 -1.2085,-1.62143 0.377555,-0.37756 0.9625,0.75485 1.75,1.54235 1.75,1.75 0,0.82304 -0.821185,0.29331 -2.127555,-1.37244 z m 149.627559,-273.25 c 30.24625,-30.25 55.21818,-55.000002 55.49318,-55.000002 0.275,0 -24.24693,24.750002 -54.49318,55.000002 -30.24625,30.25 -55.21819,55 -55.49319,55 -0.275,0 24.24694,-24.75 54.49319,-55 z m 143.5,28.60699 c 0,-0.21616 0.69837,-0.661 1.55193,-0.98855 0.88993,-0.34149 1.29133,-0.17385 0.94099,0.39301 -0.58726,0.95021 -2.49292,1.40545 -2.49292,0.59554 z m -88.75,-17.34598 c 3.1625,-0.19845 8.3375,-0.19845 11.5,0 3.1625,0.19845 0.575,0.36082 -5.75,0.36082 -6.325,0 -8.9125,-0.16237 -5.75,-0.36082 z m 145.75,-28.76101 c 1.29174,-1.375 2.57362,-2.5 2.84862,-2.5 0.275,0 -0.55688,1.125 -1.84862,2.5 -1.29175,1.375 -2.57363,2.5 -2.84863,2.5 -0.275,0 0.55688,-1.125 1.84863,-2.5 z m 16.5,-16.5 c 0.99548,-1.1 2.03497,-2 2.30997,-2 0.275,0 -0.31449,0.9 -1.30997,2 -0.99549,1.1 -2.03498,2 -2.30998,2 -0.275,0 0.31449,-0.9 1.30998,-2 z m -141.5,-18.377557 c 0,-0.207655 0.7875,-0.995155 1.75,-1.75 1.58605,-1.243871 1.62142,-1.2085 0.37755,0.377555 -1.30637,1.665748 -2.12755,2.195479 -2.12755,1.372445 z m 131,-11.122445 c 6.30705,-6.325 11.69237,-11.5 11.96737,-11.5 0.275,0 -4.66032,5.175 -10.96737,11.5 -6.30706,6.325 -11.69238,11.5 -11.96738,11.5 -0.275,0 4.66032,-5.175 10.96738,-11.5 z m -141.5,-1.5 c 3.82049,-3.85 7.17136,-7 7.44636,-7 0.275,0 -2.62587,3.15 -6.44636,7 -3.8205,3.85 -7.17136,7 -7.44636,7 -0.275,0 2.62586,-3.15 6.44636,-7 z m 131.42431,-19.75 -2.42431,-2.75 2.75,2.424314 c 2.57029,2.265887 3.20858,3.075686 2.42431,3.075686 -0.17913,0 -1.41663,-1.2375 -2.75,-2.75 z"
       id="path140" /><path
       style="fill:#a3a3a3;fill-opacity:1"
       d="m 238.61397,195.17292 -1.90498,-2.25 2.25,1.90499 c 2.11444,1.79021 2.70524,2.59501 1.90498,2.59501 -0.18975,0 -1.20225,-1.0125 -2.25,-2.25 z m 41.59502,-32.25 c 13.46658,-13.475 24.70969,-24.5 24.98469,-24.5 0.275,0 -10.51811,11.025 -23.98469,24.5 -13.46658,13.475 -24.7097,24.5 -24.9847,24.5 -0.275,0 10.51812,-11.025 23.9847,-24.5 z m -114.5,17.5 c 0.99548,-1.1 2.03497,-2 2.30997,-2 0.275,0 -0.31449,0.9 -1.30997,2 -0.99549,1.1 -2.03498,2 -2.30998,2 -0.275,0 0.31449,-0.9 1.30998,-2 z m 42.5,-42.5 c 19.51919,-19.525 35.71443,-35.5 35.98943,-35.5 0.275,0 -15.47024,15.975 -34.98943,35.5 -19.51919,19.525 -35.71444,35.5 -35.98944,35.5 -0.275,0 15.47025,-15.975 34.98944,-35.5 z m 183.5,-0.5 c 2.14824,-2.2 4.13089,-4 4.40589,-4 0.275,0 -1.25765,1.8 -3.40589,4 -2.14825,2.2 -4.1309,4 -4.4059,4 -0.275,0 1.25765,-1.8 3.4059,-4 z m -57,-29 c 15.94288,-15.950002 29.21206,-29.000002 29.48706,-29.000002 0.275,0 -12.54418,13.05 -28.48706,29.000002 -15.94289,15.95 -29.21207,29 -29.48707,29 -0.275,0 12.54418,-13.05 28.48707,-29 z m 37.42431,19.25 -2.42431,-2.75 2.75,2.42431 c 1.5125,1.33338 2.75,2.57088 2.75,2.75 0,0.78428 -0.8098,0.14598 -3.07569,-2.42431 z m 15.94813,-64.000002 c -1.24387,-1.586055 -1.2085,-1.621426 0.37756,-0.377555 1.66574,1.30637 2.19548,2.127555 1.37244,2.127555 -0.20765,0 -0.99515,-0.7875 -1.75,-1.75 z m -15.46746,-15.5 -1.90498,-2.25 2.25,1.904988 c 2.11444,1.790218 2.70524,2.595012 1.90498,2.595012 -0.18975,0 -1.20225,-1.0125 -2.25,-2.25 z"
       id="path139" /><path
       style="fill:#8c8c8c;fill-opacity:1"
       d="m 149.20899,196.92292 c 7.96077,-7.975 14.69913,-14.5 14.97413,-14.5 0.275,0 -6.01336,6.525 -13.97413,14.5 -7.96078,7.975 -14.69913,14.5 -14.97413,14.5 -0.275,0 6.01335,-6.525 13.97413,-14.5 z m 19,-18.87756 c 0,-0.20765 0.7875,-0.99515 1.75,-1.75 1.58605,-1.24387 1.62142,-1.2085 0.37755,0.37756 -1.30637,1.66575 -2.12755,2.19548 -2.12755,1.37244 z m 208.48123,-68.87244 -9.98123,-10.250002 10.25,9.981242 c 9.52024,9.27061 10.7046,10.51876 9.98123,10.51876 -0.14781,0 -4.76031,-4.6125 -10.25,-10.25 z m -8.98123,-33.750002 c 2.14824,-2.2 4.13089,-4 4.40589,-4 0.275,0 -1.25765,1.8 -3.40589,4 -2.14825,2.2 -4.1309,4 -4.4059,4 -0.275,0 1.25765,-1.8 3.4059,-4 z"
       id="path138" /><path
       style="fill:#767676;fill-opacity:1"
       d="m 158.40394,418.92292 c 0.0204,-1.65 0.24449,-2.20394 0.49804,-1.23097 0.25354,0.97297 0.23687,2.32297 -0.0371,3 -0.27392,0.67703 -0.48136,-0.11903 -0.46098,-1.76903 z m 3.80505,-222 c 1.29174,-1.375 2.57362,-2.5 2.84862,-2.5 0.275,0 -0.55688,1.125 -1.84862,2.5 -1.29175,1.375 -2.57363,2.5 -2.84863,2.5 -0.275,0 0.55688,-1.125 1.84863,-2.5 z m 6,-6 c 1.29174,-1.375 2.57362,-2.5 2.84862,-2.5 0.275,0 -0.55688,1.125 -1.84862,2.5 -1.29175,1.375 -2.57363,2.5 -2.84863,2.5 -0.275,0 0.55688,-1.125 1.84863,-2.5 z m 22.5,-22.5 c 6.5828,-6.6 12.19373,-12 12.46873,-12 0.275,0 -4.88593,5.4 -11.46873,12 -6.58281,6.6 -12.19374,12 -12.46874,12 -0.275,0 4.88593,-5.4 11.46874,-12 z m 15.5,-15.31291 c 0,-0.1721 1.4625,-1.6346 3.25,-3.25 l 3.25,-2.93709 -2.93709,3.25 c -2.73779,3.02945 -3.56291,3.70965 -3.56291,2.93709 z m 47.43709,-53.937092 -2.93709,-3.25 3.25,2.937092 c 3.02945,2.73778 3.70965,3.56291 2.93709,3.56291 -0.1721,0 -1.6346,-1.4625 -3.25,-3.250002 z"
       id="path137" /><path
       style="fill:#606060;fill-opacity:1"
       d="m 344.28793,274.83958 c 0.048,-1.16494 0.28494,-1.40189 0.60417,-0.60416 0.28887,0.72187 0.25334,1.58437 -0.079,1.91666 -0.33229,0.3323 -0.56864,-0.25833 -0.52522,-1.3125 z m -218.59979,-48.66666 -8.97915,-9.25 9.25,8.97915 c 5.0875,4.93853 9.25,9.10103 9.25,9.25 0,0.72605 -1.18122,-0.38796 -9.52085,-8.97915 z m 27.52085,-20.25 c 3.54322,-3.575 6.66722,-6.5 6.94222,-6.5 0.275,0 -2.399,2.925 -5.94222,6.5 -3.54323,3.575 -6.66723,6.5 -6.94223,6.5 -0.275,0 2.399,-2.925 5.94223,-6.5 z m 131.5,-2.5 c 2.70865,-2.75 5.14981,-5 5.42481,-5 0.275,0 -1.71616,2.25 -4.42481,5 -2.70865,2.75 -5.14982,5 -5.42482,5 -0.275,0 1.71617,-2.25 4.42482,-5 z m 14,-14 c 2.14824,-2.2 4.13089,-4 4.40589,-4 0.275,0 -1.25765,1.8 -3.40589,4 -2.14825,2.2 -4.1309,4 -4.4059,4 -0.275,0 1.25765,-1.8 3.4059,-4 z m 114.90498,0.75 -1.90498,-2.25 2.25,1.90499 c 2.11444,1.79021 2.70524,2.59501 1.90498,2.59501 -0.18975,0 -1.20225,-1.0125 -2.25,-2.25 z m 22.57715,-8 c 9.73603,-9.98483 11.01787,-11.20434 11.01787,-10.48213 0,0.14732 -4.8375,4.98482 -10.75,10.75 l -10.75,10.48213 z m -259.48213,0.25 c 0.99548,-1.1 2.03497,-2 2.30997,-2 0.275,0 -0.31449,0.9 -1.30997,2 -0.99549,1.1 -2.03498,2 -2.30998,2 -0.275,0 0.31449,-0.9 1.30998,-2 z m 32.25,-3.7404 c 3.4375,-0.19527 9.0625,-0.19527 12.5,0 3.4375,0.19527 0.625,0.35504 -6.25,0.35504 -6.875,0 -9.6875,-0.15977 -6.25,-0.35504 z m 191.12244,-2.0096 c -1.24387,-1.58606 -1.2085,-1.62143 0.37756,-0.37756 0.9625,0.75485 1.75,1.54235 1.75,1.75 0,0.82304 -0.82119,0.29331 -2.12756,-1.37244 z m -21.89452,-22 -8.47792,-8.75 8.75,8.47792 c 4.8125,4.66286 8.75,8.60036 8.75,8.75 0,0.72761 -1.14804,-0.35118 -9.02208,-8.47792 z m -165.97792,-7.62756 c 0,-0.20765 0.7875,-0.99515 1.75,-1.75 1.58605,-1.24387 1.62142,-1.2085 0.37755,0.37756 -1.30637,1.66575 -2.12755,2.19548 -2.12755,1.37244 z m 219.87244,-1.37244 c -1.24387,-1.58606 -1.2085,-1.62143 0.37756,-0.37756 1.66574,1.30637 2.19548,2.12756 1.37244,2.12756 -0.20765,0 -0.99515,-0.7875 -1.75,-1.75 z m -195.87244,-22.75 c 11.26493,-11.275 20.7067,-20.5 20.9817,-20.5 0.275,0 -8.71677,9.225 -19.9817,20.5 -11.26494,11.275 -20.70671,20.5 -20.98171,20.5 -0.275,0 8.71677,-9.225 19.98171,-20.5 z m 110.5,-40.500002 c 9.88854,-9.9 18.20416,-18 18.47916,-18 0.275,0 -7.59062,8.1 -17.47916,18 -9.88854,9.9 -18.20417,18.000002 -18.47917,18.000002 -0.275,0 7.59063,-8.100002 17.47917,-18.000002 z"
       id="path136" /><path
       style="fill:#494949;fill-opacity:1"
       d="m 46.708986,360.42292 c 13.741749,-13.75 25.209999,-25 25.484999,-25 0.275,0 -10.74325,11.25 -24.484999,25 -13.741749,13.75 -25.209998,25 -25.484998,25 -0.275,0 10.743249,-11.25 24.484998,-25 z m 26.5,-26.37756 c 0,-0.20765 0.7875,-0.99515 1.75,-1.75 1.586056,-1.24387 1.621426,-1.2085 0.377556,0.37756 -1.30637,1.66575 -2.127556,2.19548 -2.127556,1.37244 z M 335.20899,286.92292 c 1.86578,-1.925 3.61733,-3.5 3.89233,-3.5 0.275,0 -1.02655,1.575 -2.89233,3.5 -1.86579,1.925 -3.61734,3.5 -3.89234,3.5 -0.275,0 1.02655,-1.575 2.89234,-3.5 z m 5,-4.87756 c 0,-0.20765 0.7875,-0.99515 1.75,-1.75 1.58605,-1.24387 1.62142,-1.2085 0.37755,0.37756 -1.30637,1.66575 -2.12755,2.19548 -2.12755,1.37244 z m -129.5,-63.62244 c 0.99548,-1.1 2.03497,-2 2.30997,-2 0.275,0 -0.31449,0.9 -1.30997,2 -0.99549,1.1 -2.03498,2 -2.30998,2 -0.275,0 0.31449,-0.9 1.30998,-2 z m 8.5,-8.5 c 1.29174,-1.375 2.57362,-2.5 2.84862,-2.5 0.275,0 -0.55688,1.125 -1.84862,2.5 -1.29175,1.375 -2.57363,2.5 -2.84863,2.5 -0.275,0 0.55688,-1.125 1.84863,-2.5 z m 11,-11 c 2.98742,-3.025 5.65668,-5.5 5.93168,-5.5 0.275,0 -1.94426,2.475 -4.93168,5.5 -2.98743,3.025 -5.65668,5.5 -5.93168,5.5 -0.275,0 1.94425,-2.475 4.93168,-5.5 z m 60,-0.87756 c 0,-0.20765 0.7875,-0.99515 1.75,-1.75 1.58605,-1.24387 1.62142,-1.2085 0.37755,0.37756 -1.30637,1.66575 -2.12755,2.19548 -2.12755,1.37244 z m 114.43709,-16.87244 -2.93709,-3.25 3.25,2.93709 c 1.7875,1.6154 3.25,3.0779 3.25,3.25 0,0.77256 -0.82513,0.0924 -3.56291,-2.93709 z m -116.43709,-40.25 c 22.2699,-22.275 40.71574,-40.5 40.99074,-40.5 0.275,0 -17.72084,18.225 -39.99074,40.5 -22.26991,22.275 -40.71574,40.5 -40.99074,40.5 -0.275,0 17.72083,-18.225 39.99074,-40.5 z m 62,3 c 10.16385,-10.175 18.70472,-18.5 18.97972,-18.5 0.275,0 -7.81587,8.325 -17.97972,18.5 -10.16385,10.175 -18.70473,18.5 -18.97973,18.5 -0.275,0 7.81588,-8.325 17.97973,-18.5 z m -32,10.12244 c 0,-0.20765 0.7875,-0.99515 1.75,-1.75 1.58605,-1.24387 1.62142,-1.2085 0.37755,0.37756 -1.30637,1.66575 -2.12755,2.19548 -2.12755,1.37244 z m 118.43709,-3.87244 -2.93709,-3.25 3.25,2.93709 c 3.02945,2.73778 3.70965,3.56291 2.93709,3.56291 -0.1721,0 -1.6346,-1.4625 -3.25,-3.25 z m -21.95152,-22 -12.98557,-13.25 13.25,12.98557 c 7.2875,7.14206 13.25,13.10456 13.25,13.25 0,0.71767 -1.45192,-0.67743 -13.51443,-12.98557 z M 393.20899,31.922918 c 10.16385,-10.175 18.70472,-18.5 18.97972,-18.5 0.275,0 -7.81587,8.325 -17.97972,18.5 -10.16385,10.175 -18.70473,18.5 -18.97973,18.5 -0.275,0 7.81588,-8.325 17.97973,-18.5 z"
       id="path135" /><path
       style="fill:#333333;fill-opacity:1"
       d="m 120.3667,488.28611 c -5.67046,-1.32858 -95.748619,-61.14922 -99.51565,-66.08805 -6.405779,-8.39841 -8.004228,-20.27439 -3.874201,-28.78412 1.597474,-3.29152 30.056418,-32.53532 106.552451,-109.49102 l 104.37282,-105 -12.04234,-0.28235 -12.04234,-0.28235 -29.59272,29.53235 c -27.55797,27.50175 -29.83454,29.53235 -33.10955,29.53235 -3.16041,0 -4.66447,-1.16321 -14.84097,-11.47767 -10.78328,-10.92948 -11.29325,-11.63397 -10.67726,-14.75 0.52404,-2.65089 13.02275,-15.65205 65.81469,-68.46041 35.86108,-35.87224 66.21266,-65.450325 67.49121,-65.771219 3.4103,-0.855931 6.91938,1.414236 15.28112,9.885985 l 7.47497,7.573312 h 20.53301 20.53301 l 23.49202,-23.566526 c 12.92061,-12.96159 24.75201,-24.234776 26.29199,-25.051526 3.37254,-1.788657 6.19422,-1.09153 10.03963,2.480397 l 2.83961,2.637655 35.66039,-36.224174 c 24.36495,-24.750149 36.53377,-36.425648 38.41768,-36.860237 5.65113,-1.303625 11.05443,5.003444 8.84864,10.328682 -0.64572,1.558914 -17.12283,18.77843 -36.61579,38.265592 l -35.44175,35.431203 2.67581,2.792941 c 1.8658,1.947476 2.67581,3.858983 2.67581,6.314545 0,3.171802 -1.23562,4.760195 -12.43945,15.990986 l -12.43944,12.469381 10.16473,10.164733 10.16473,10.16473 3.60951,-3.16919 c 6.52111,-5.72561 6.29303,-5.87152 33.76764,21.60309 20.97188,20.97187 24.77228,25.21711 24.77228,27.67186 0,2.37091 -2.25847,5.1778 -12.38658,15.39439 -10.69834,10.79182 -12.82124,12.4948 -15.57573,12.4948 -2.83134,0 -5.9294,-2.73854 -27.61342,-24.40901 -27.68277,-27.66547 -27.5549,-27.45333 -20.9525,-34.7614 l 3.47177,-3.84283 -2.77649,-2.66005 c -1.52707,-1.46302 -3.20643,-2.66004 -3.73191,-2.66004 -0.52548,0 -9.24855,8.30223 -19.38459,18.44939 l -18.42918,18.44939 6.21174,54.30061 c 3.41645,29.86534 6.20164,55.93927 6.18931,57.94208 -0.021,3.40618 -1.65394,5.29743 -25.27242,29.26977 -24.10873,24.46991 -25.41869,25.6274 -28.98202,25.60852 -3.20418,-0.017 -4.45402,-0.78152 -8.83699,-5.40575 -13.29125,-14.02285 -23.82382,-33.1366 -28.82443,-52.30845 -1.60592,-6.15694 -3.21342,-11.66944 -3.57222,-12.25 -1.02198,-1.6536 -5.06645,-1.23723 -6.74558,0.69444 -3.05795,3.51785 -22.97532,41.4602 -22.14487,42.1857 0.47086,0.41136 15.48111,9.66535 33.35611,20.56443 17.875,10.89908 33.25912,20.53276 34.18695,21.40819 3.97761,3.75299 3.46337,5.4188 -10.65833,34.52623 -7.45398,15.364 -14.29201,28.7515 -15.19564,29.75 -3.49066,3.85713 -6.56618,2.55552 -41.34132,-17.49631 -18.42042,-10.62146 -36.53821,-21.01525 -40.26177,-23.09731 l -6.77011,-3.78555 -3.38917,7.34731 c -10.06076,21.81049 -13.03841,41.91183 -9.6428,65.09596 2.37527,16.21749 -0.97094,29.14057 -10.71979,41.39997 -6.80792,8.56111 -18.52432,12.68079 -29.05031,10.21457 z m 13.0189,-16.64163 c 3.30738,-2.18126 5.84408,-5.3773 8.90655,-11.22156 2.0186,-3.85221 2.33541,-5.79559 2.20073,-13.5 -0.81419,-46.57722 -0.89299,-44.31247 1.93294,-55.56037 7.28004,-28.97641 22.55334,-55.38145 48.44212,-83.74848 6.45588,-7.07387 9.49833,-11.83015 20.46947,-32 13.70952,-25.20419 17.48965,-30.1585 24.49499,-32.10362 4.94158,-1.37209 7.25875,-1.36188 11.47736,0.0506 8.20979,2.74874 12.66394,8.49829 14.87212,19.19735 2.8783,13.9459 10.47632,30.72289 19.06681,42.10091 l 4.29173,5.68436 7.33428,-7.28533 c 4.03386,-4.00694 7.33429,-7.53708 7.33429,-7.84476 0,-0.30768 -1.36716,-1.36702 -3.03814,-2.35409 -1.67097,-0.98706 -4.12904,-3.44659 -5.46239,-5.4656 -3.33322,-5.04735 -22.49947,-59.29989 -22.49947,-63.68767 0,-6.62694 2.74108,-10.64443 17.28826,-25.33869 14.21225,-14.35595 19.36716,-18.07897 25.09258,-18.12262 2.77115,-0.0211 2.85698,-0.16474 2.25428,-3.77196 -0.34461,-2.0625 -0.91613,-7.41378 -1.27005,-11.89174 l -0.64349,-8.14174 21.27333,-21.5942 c 18.45975,-18.7382 21.10035,-21.80261 19.96549,-23.17003 -1.14088,-1.37467 -7.12565,4.23327 -46.88411,43.93202 -25.06696,25.02932 -46.84309,45.98211 -48.39139,46.56177 -3.97899,1.48966 -11.30057,1.3073 -14.48456,-0.36076 -1.48519,-0.77808 -4.25112,-3.02808 -6.14651,-5 -1.89539,-1.97193 -3.78335,-3.58532 -4.19546,-3.58532 -1.13347,0 -205.255593,204.90598 -206.038088,206.8293 -1.241824,3.05232 -0.83175,7.63566 0.934979,10.45015 1.050149,1.67294 19.58925,14.71084 46.568494,32.75 48.345865,32.32554 48.480515,32.39474 54.852855,28.19211 z m 128.99064,-98.95902 c 5.84919,-12.14668 8.72569,-19.19001 8.17785,-20.02406 -0.46481,-0.70763 -14.3451,-9.60395 -30.8451,-19.7696 l -30,-18.483 -3.83339,4.25706 c -5.79322,6.4335 -17.93688,21.64896 -21.55774,27.01089 l -3.21022,4.75382 3.77327,2.24618 c 14.61017,8.69721 66.98567,38.6565 67.65023,38.69658 0.45219,0.0273 4.88248,-8.38227 9.8451,-18.68787 z m 61.08275,-96.08122 c 3.21007,-3.11285 4.74968,-5.42881 4.74902,-7.14373 -5.3e-4,-1.39568 -1.79291,-18.06259 -3.98306,-37.03759 -4.16829,-36.1132 -4.7163,-38.33137 -8.9041,-36.04094 -0.88653,0.48487 -7.35023,6.69448 -14.36378,13.79913 l -12.75192,12.91756 1.89856,5.41212 c 3.31243,9.44255 16.89874,47.33485 17.66698,49.27333 0.92589,2.33627 6.28638,4.72626 8.9383,3.98517 1.1,-0.30739 4.1375,-2.63167 6.75,-5.16505 z M 199.67851,160.4534 l 57.96306,-57.96952 -2.90338,-3.030483 c -1.59686,-1.666763 -3.38025,-3.030479 -3.96309,-3.030479 -0.58284,0 -27.03882,25.976222 -58.79107,57.724932 l -57.73136,57.72492 3.17432,3.27508 c 1.74588,1.80129 3.42501,3.27507 3.7314,3.27507 0.30638,0 26.64044,-26.08629 58.52012,-57.96952 z m 114.75546,-30.75544 58.73128,-58.724953 -3.1743,-3.275044 c -1.74586,-1.801275 -3.64996,-3.275045 -4.23134,-3.275045 -0.58137,0 -27.36758,26.31343 -59.52492,58.474292 l -58.46788,58.47429 3.41726,3.52571 c 1.87949,1.93914 3.66506,3.52571 3.96793,3.52571 0.30288,0 26.97976,-26.42623 59.28197,-58.72496 z m 111.55352,40.45065 4.19491,-4.27431 -16.76312,-16.74136 -16.76312,-16.74136 -4.44687,4.53103 -4.44688,4.53104 16.46192,16.48463 c 9.05406,9.06655 16.71085,16.48464 17.01508,16.48464 0.30424,0 2.44087,-1.92344 4.74808,-4.27431 z m -155.7785,-33.22569 26.48584,-26.5 h -12.5 -12.5 l -26.48584,26.5 -26.48585,26.5 h 12.5 12.5 z"
       id="path134" /></g><path
     style="fill:#ffffff;stroke:none;stroke-width:7.73786;stroke-linecap:round;stroke-dasharray:none"
     d="m 406.57827,198.10691 c -13.25949,-12.95999 -21.6546,-21.45465 -22.39245,-22.658 -0.79931,-1.30357 -0.68346,-2.37091 0.36344,-3.34887 0.49319,-0.46071 1.09952,-0.83766 1.34739,-0.83766 0.24787,0 0.39096,-0.0597 0.31797,-0.1327 -0.0729,-0.0729 0.88483,-1.18356 2.12847,-2.46793 1.24364,-1.28438 2.65213,-2.97065 3.12999,-3.74726 1.17249,-1.90555 2.31926,-2.31396 4.03687,-1.4377 0.78379,0.39986 7.15874,6.53757 17.99287,17.32327 l 16.779,16.70401 -2.59854,2.64562 c -3.00106,3.05544 -9.36215,8.93581 -9.66631,8.93581 -0.11351,0 -5.26093,-4.94037 -11.4387,-10.97859 z m -9.93304,-32.45764 c 0,-0.07 -0.12993,-0.20763 -0.28873,-0.30577 -0.1588,-0.0982 -0.28872,-0.0408 -0.28872,0.12732 0,0.16817 0.12992,0.30577 0.28872,0.30577 0.1588,0 0.28873,-0.0573 0.28873,-0.12732 z"
     id="path150" /></svg>
