<?xml version="1.0" encoding="UTF-8" standalone="no"?>
<!-- Created with Inkscape (http://www.inkscape.org/) -->

<svg
   width="512"
   height="512"
   viewBox="0 0 512 512"
   version="1.1"
   id="svg1"
   xml:space="preserve"
   xmlns="http://www.w3.org/2000/svg"
   xmlns:svg="http://www.w3.org/2000/svg"><defs
     id="defs1" /><g
     id="g37"
     transform="translate(21.961313,12.390712)"
     style="fill:#000000"><path
       style="fill:#000000;fill-opacity:1"
       d="m 160.732,373.5 c 0,-1.925 0.2058,-2.7125 0.45733,-1.75 0.25152,0.9625 0.25152,2.5375 0,3.5 -0.25153,0.9625 -0.45733,0.175 -0.45733,-1.75 z m 11.02018,-0.5 c 0.0111,-2.2 0.21589,-2.98225 0.45508,-1.73834 0.23919,1.24391 0.23011,3.04391 -0.0202,4 -0.25029,0.95609 -0.446,-0.0617 -0.4349,-2.26166 z M 169.5,262.12244 c 0,-0.20765 0.7875,-0.99515 1.75,-1.75 1.58606,-1.24387 1.62143,-1.2085 0.37756,0.37756 -1.30637,1.66575 -2.12756,2.19548 -2.12756,1.37244 z m 113.8125,-20.30555 c 0.72187,-0.28887 1.58438,-0.25335 1.91667,0.0789 0.33229,0.33229 -0.25834,0.56864 -1.3125,0.52522 -1.16495,-0.048 -1.4019,-0.28494 -0.60417,-0.60416 z m -138,-21 c 0.72187,-0.28887 1.58437,-0.25335 1.91667,0.0789 0.33229,0.33229 -0.25834,0.56864 -1.3125,0.52522 -1.16495,-0.048 -1.4019,-0.28494 -0.60417,-0.60416 z"
       id="path44" /><path
       style="fill:#000000;fill-opacity:1"
       d="m 171.57895,367.91667 c 0.048,-1.16495 0.28494,-1.4019 0.60416,-0.60417 0.28887,0.72187 0.25335,1.58438 -0.0789,1.91667 -0.3323,0.33229 -0.56864,-0.25834 -0.52522,-1.3125 z M 367.3125,316.81689 c 0.72187,-0.28887 1.58438,-0.25335 1.91667,0.0789 0.33229,0.33229 -0.25834,0.56864 -1.3125,0.52522 -1.16495,-0.048 -1.4019,-0.28494 -0.60417,-0.60416 z M 149.75,315.81067 c 0.9625,-0.25152 2.5375,-0.25152 3.5,0 0.9625,0.25153 0.175,0.45733 -1.75,0.45733 -1.925,0 -2.7125,-0.2058 -1.75,-0.45733 z m -53.171053,-19.894 c 0.04798,-1.16495 0.284941,-1.4019 0.604167,-0.60417 0.288871,0.72187 0.253344,1.58438 -0.07895,1.91667 -0.332292,0.33229 -0.568641,-0.25834 -0.52522,-1.3125 z"
       id="path43" /><path
       style="fill:#000000;fill-opacity:1"
       d="m 87.5,475.12244 c 0,-0.20765 0.7875,-0.99515 1.75,-1.75 1.586056,-1.24387 1.621426,-1.2085 0.377555,0.37756 C 88.321186,475.41575 87.5,475.94548 87.5,475.12244 Z m 74.07895,-118.20577 c 0.048,-1.16495 0.28494,-1.4019 0.60416,-0.60417 0.28887,0.72187 0.25335,1.58438 -0.0789,1.91667 -0.3323,0.33229 -0.56864,-0.25834 -0.52522,-1.3125 z m 209.68271,-40.12393 c 1.24391,-0.23919 3.04391,-0.23011 4,0.0202 0.95609,0.25029 -0.0617,0.446 -2.26166,0.4349 -2.2,-0.0111 -2.98225,-0.21589 -1.73834,-0.45508 z M 169.3125,292.81689 c 0.72187,-0.28887 1.58437,-0.25335 1.91667,0.0789 0.33229,0.33229 -0.25834,0.56864 -1.3125,0.52522 -1.16495,-0.048 -1.4019,-0.28494 -0.60417,-0.60416 z m 216,-269.000004 c 0.72187,-0.288871 1.58438,-0.253344 1.91667,0.07895 0.33229,0.332292 -0.25834,0.568641 -1.3125,0.52522 -1.16495,-0.04798 -1.4019,-0.284941 -0.60417,-0.604167 z"
       id="path42" /><path
       style="fill:#000000;fill-opacity:1"
       d="m 218.69495,375 c 0.0204,-1.65 0.2445,-2.20394 0.49804,-1.23097 0.25354,0.97297 0.23687,2.32297 -0.0371,3 C 218.88196,377.44606 218.67452,376.65 218.6949,375 Z m 141.0688,-13.21758 c 1.52006,-0.22986 3.77006,-0.22371 5,0.0136 1.22994,0.23736 -0.0138,0.42542 -2.76375,0.41792 -2.75,-0.008 -3.75631,-0.20172 -2.23625,-0.43157 z M 65.25,319.83772 c 0.6875,-0.27741 1.8125,-0.27741 2.5,0 0.6875,0.27741 0.125,0.50439 -1.25,0.50439 -1.375,0 -1.9375,-0.22698 -1.25,-0.50439 z"
       id="path41" /><path
       style="fill:#000000;fill-opacity:1"
       d="m 83.578947,459.91667 c 0.04798,-1.16495 0.284941,-1.4019 0.604167,-0.60417 0.288871,0.72187 0.253344,1.58438 -0.07895,1.91667 -0.332292,0.33229 -0.568641,-0.25834 -0.52522,-1.3125 z M -0.2679973,393.5 c 0,-1.925 0.20579527,-2.7125 0.45732281,-1.75 0.25152755,0.9625 0.25152755,2.5375 0,3.5 -0.25152754,0.9625 -0.45732281,0.175 -0.45732281,-1.75 z M 125.37244,318.75 c -1.24387,-1.58606 -1.2085,-1.62143 0.37756,-0.37756 0.9625,0.75485 1.75,1.54235 1.75,1.75 0,0.82304 -0.82119,0.29331 -2.12756,-1.37244 z m -16.79349,-63.83333 c 0.048,-1.16495 0.28494,-1.4019 0.60416,-0.60417 0.28887,0.72187 0.25335,1.58438 -0.0789,1.91667 -0.3323,0.33229 -0.56864,-0.25834 -0.52522,-1.3125 z M 329.5,142.12244 c 0,-0.20765 0.7875,-0.99515 1.75,-1.75 1.58606,-1.24387 1.62143,-1.2085 0.37756,0.37756 -1.30637,1.66575 -2.12756,2.19548 -2.12756,1.37244 z"
       id="path40" /><path
       style="fill:#000000;fill-opacity:1"
       d="m 83.578947,456.91667 c 0.04798,-1.16495 0.284941,-1.4019 0.604167,-0.60417 0.288871,0.72187 0.253344,1.58438 -0.07895,1.91667 -0.332292,0.33229 -0.568641,-0.25834 -0.52522,-1.3125 z M -0.30505128,399 c 0.0203797,-1.65 0.24449859,-2.20394 0.498042,-1.23097 0.25354341,0.97297 0.23686912,2.32297 -0.037054,3 C -0.11798636,401.44606 -0.32543097,400.65 -0.30505128,399 Z M 237.3125,297.81689 c 0.72187,-0.28887 1.58437,-0.25335 1.91667,0.0789 0.33229,0.33229 -0.25834,0.56864 -1.3125,0.52522 -1.16495,-0.048 -1.4019,-0.28494 -0.60417,-0.60416 z m 59.26645,-42.90022 c 0.048,-1.16495 0.28494,-1.4019 0.60416,-0.60417 0.28887,0.72187 0.25335,1.58438 -0.0789,1.91667 -0.33229,0.33229 -0.56864,-0.25834 -0.52522,-1.3125 z m 144,-179.000003 c 0.048,-1.164943 0.28494,-1.4019 0.60416,-0.604167 0.28887,0.721875 0.25335,1.584375 -0.0789,1.916667 -0.33229,0.332291 -0.56864,-0.258334 -0.52522,-1.3125 z"
       id="path39" /><path
       style="fill:#000000;fill-opacity:1"
       d="M 54.937091,478.25 52,475 l 3.25,2.93709 c 1.7875,1.6154 3.25,3.0779 3.25,3.25 0,0.77256 -0.825128,0.0924 -3.562909,-2.93709 z M 23.491666,446.75 1,424 23.75,446.49167 C 44.889325,467.39095 46.951019,469.5 46.241666,469.5 c -0.142084,0 -10.379584,-10.2375 -22.75,-22.75 z M -2.0950124,421.25 -4,419 l 2.25,1.90499 c 2.11444476,1.79022 2.70524077,2.59501 1.90498756,2.59501 -0.18975684,0 -1.20225686,-1.0125 -2.24999996,-2.25 z m 1.67395977,-18.33333 c 0.0479839,-1.16495 0.2849403,-1.4019 0.60416667,-0.60417 0.28887061,0.72187 0.25334429,1.58438 -0.0789474,1.91667 -0.33229167,0.33229 -0.56864035,-0.25834 -0.52521927,-1.3125 z m 96.99999963,-49 c 0.04798,-1.16495 0.284941,-1.4019 0.604167,-0.60417 0.288871,0.72187 0.253344,1.58438 -0.07895,1.91667 -0.332292,0.33229 -0.568641,-0.25834 -0.52522,-1.3125 z M 218.37244,322.75 c -1.24387,-1.58606 -1.2085,-1.62143 0.37756,-0.37756 1.66575,1.30637 2.19548,2.12756 1.37244,2.12756 -0.20765,0 -0.99515,-0.7875 -1.75,-1.75 z"
       id="path38" /><path
       style="fill:#000000;fill-opacity:1"
       d="m 63.88953,484.46099 c -3.825848,-1.1634 -68.9036966,-66.16875 -71.834349,-71.75433 -1.600691,-3.05078 -1.954583,-5.83001 -2,-15.70666 -0.050438,-10.96866 0.1559969,-12.36878 2.401936,-16.29088 1.7479491,-3.05246 11.4166471,-11.87175 33.5,-30.55699 17.073586,-14.44636 32.155511,-27.02796 33.515389,-27.95912 2.992285,-2.04892 9.547086,-2.1922 13.195965,-0.28845 2.602486,1.35781 2.953112,1.15366 14.179582,-8.25616 L 98.359165,304 97.795517,298.78077 c -0.346392,-3.2075 -0.07604,-6.39643 0.701412,-8.27336 0.696577,-1.68168 5.484881,-6.66355 10.655531,-11.08628 l 9.39046,-8.03215 -3.38927,-4.19449 c -4.59538,-5.68715 -5.65365,-7.94865 -5.65365,-12.0817 0,-5.82715 1.81738,-8.21402 14.43647,-18.9602 14.33693,-12.20907 16.65983,-13.8117 21.124,-14.574 2.66706,-0.45543 27.56552,-21.1201 116.9681,-97.07859 62.46888,-53.075 115.01089,-97.2875 116.76001,-98.25 6.17422,-3.39753 16.29097,-1.093024 19.99087,4.553745 1.0685,1.630732 2.91451,2.63156 5.66515,3.071406 2.59823,0.415473 5.43772,1.878877 7.81779,4.029095 L 416,41.280893 l 3.22622,-2.69342 c 3.03552,-2.534212 3.19258,-2.98584 2.65711,-7.640447 -0.4748,-4.127173 -0.18084,-5.511685 1.77378,-8.354201 5.63576,-8.195868 13.74782,-11.783331 19.80828,-8.759979 l 3.13963,1.566254 9.27437,-7.7976911 c 10.06869,-8.46554326 13.03344,-9.7803252 18.20521,-8.0734882 3.95992,1.30689085 9.88168,7.824867 11.46342,12.6175733 1.92278,5.8261 -0.0366,9.226332 -10.07797,17.489 L 466.51896,37 l 0.53915,4.16572 c 0.70971,5.483483 -1.2314,9.913001 -6.38003,14.5589 -5.63802,5.087502 -9.05259,5.753939 -16.8149,3.281837 -1.56557,-0.498596 -3.02186,0.110262 -5.44743,2.277515 l -3.31062,2.958038 2.69743,3.20572 c 3.50047,4.160073 3.77484,11.412858 0.58514,15.467902 -1.16176,1.476942 -40.53676,35.324898 -87.5,75.217678 -46.96323,39.89278 -85.3877,73.07448 -85.3877,73.7371 0,0.66263 2.25102,3.42195 5.00228,6.13183 4.88786,4.81437 5.12941,4.92174 10.56102,4.69445 10.13355,-0.42404 15.4367,4.20246 15.4367,13.46706 0,5.58737 -0.607,5.0469 13.77373,12.26418 17.13117,8.59764 35.99099,14.24763 58.59494,17.55376 12.35979,1.80778 15.87327,3.27339 18.73916,7.81686 2.68197,4.25191 2.25574,9.24914 -3.16095,37.05919 -4.63359,23.78955 -5.76502,26.41485 -12.61807,29.27823 -8.34938,3.4886 -35.28345,0.34497 -56.55851,-6.60126 -13.55687,-4.42627 -34.924,-14.44965 -45.79781,-21.48389 -3.86917,-2.50295 -7.35832,-4.543 -7.75367,-4.53344 -0.39535,0.01 -3.69753,2.59706 -7.33818,5.75 -3.64064,3.15294 -12.29841,10.4432 -19.23948,16.20058 -7.69429,6.38214 -13.30729,11.84657 -14.38065,14 -2.65757,5.33178 -2.34207,19.44839 0.6421,28.72917 2.5034,7.78557 4.09664,9.73964 10.43878,12.80287 4.82076,2.32841 8.65861,7.53505 8.65861,11.74675 0,3.87788 -2.62456,9.28997 -5.33615,11.00363 -4.7209,2.98351 -35.38423,16.02012 -38.76662,16.48175 -5.32742,0.7271 -12.07662,-2.62106 -15.91533,-7.8953 -4.71681,-6.48072 -11.5704,-21.22992 -14.33223,-30.84354 -3.49001,-12.14835 -5.05155,-26.31013 -4.31689,-39.15035 0.35036,-6.12341 0.2062,-11.92532 -0.33144,-13.33942 -1.19545,-3.14427 -5.93788,-6.07785 -11.18078,-6.91622 -4.76715,-0.7623 -9.57077,-5.08833 -10.43208,-9.39489 -0.53231,-2.66156 -1.04757,-2.99189 -5.48699,-3.51767 -4.62501,-0.54777 -11.435,-3.18187 -15.0116,-5.80648 -1.35221,-0.99229 -3.46726,0.38927 -13.20475,8.62539 -9.740659,8.2388 -11.441979,10.09218 -10.639892,11.5909 1.221338,2.28209 1.230737,9.05936 0.01699,12.25175 -0.515768,1.35657 -4.087906,5.09837 -7.938083,8.3151 -5.015582,4.1904 -7.27986,6.84092 -7.986273,9.3486 -0.542273,1.925 -2.902667,16.24743 -5.245321,31.82763 -4.760488,31.66039 -4.914889,30.12958 3.041714,30.15706 5.649012,0.0195 12.113537,3.13338 14.344043,6.90932 2.349324,3.97709 3.227124,13.53567 1.754576,19.10599 -0.911605,3.4484 -2.631852,5.86605 -7.361249,10.34559 -3.394405,3.21507 -7.361908,6.4647 -8.816673,7.22139 -3.644514,1.8957 -9.740356,2.52677 -13.465442,1.39401 z M 77.749594,470.19765 C 83.231232,465.58109 84.5,463.2241 84.5,457.65741 c 0,-6.32648 -1.848629,-7.8157 -10.722615,-8.63792 -9.515261,-0.88164 -12.4274,-2.05738 -18.543189,-7.48654 -5.429654,-4.82007 -9.218249,-10.86064 -10.148652,-16.18112 -0.647996,-3.70554 2.561249,-27.53709 4.52837,-33.62723 1.546845,-4.78899 4.69928,-8.12141 19.804966,-20.93574 C 87.112159,355.77945 87.831126,354.98912 86.337944,352.19041 83.69016,347.2276 68.327223,330.5 66.417073,330.5 63.841419,330.5 3.5607184,381.6784 1.25,385.82694 -0.72633588,389.37515 -1.1438046,400.644 0.48414097,406.5 1.2340229,409.19745 9.0094329,417.53929 34.393599,442.87973 71.67175,480.09367 68.426862,478.04912 77.749594,470.19765 Z M 23.170194,415.75 c -16.73747,-17.46228 -16.7389184,-21.72467 -0.01178,-34.67574 5.412874,-4.19095 10.892175,-7.89298 12.176225,-8.22673 3.534897,-0.91881 5.608949,1.76153 5.308129,6.85979 -0.541184,9.17193 -5.169514,39.11998 -6.246328,40.41747 -2.305315,2.77773 -5.601957,1.49305 -11.226243,-4.37479 z m 4.686015,-14 c 1.192893,-6.36834 1.720547,-12.25 1.098968,-12.25 -1.185807,0 -8.455177,6.13646 -8.455177,7.13746 0,1.18734 5.238681,7.86247 6.170545,7.86251 0.368799,2e-5 0.902348,-1.23747 1.185664,-2.74997 z m 184.192081,25.64694 c 8.77344,-3.90668 16.51421,-7.56178 17.20171,-8.12244 2.39488,-1.95305 1.20945,-3.61711 -5,-7.01886 -5.29674,-2.90174 -6.66798,-4.25 -8.99044,-8.8398 -4.11907,-8.14037 -6.07505,-17.14638 -6.17153,-28.41584 -0.0773,-9.03328 0.18626,-10.55389 2.72674,-15.72959 1.5468,-3.15128 4.41717,-7.05241 6.37861,-8.66919 l 3.56625,-2.93961 -7.27593,-8.54486 -7.27593,-8.54485 -2.92282,2.21405 c -6.03136,4.56879 -10.39218,6.68165 -13.82351,6.6976 -3.48978,0.0162 -4.80212,-0.54449 -16.26688,-6.95016 -6.48328,-3.62239 -14.33569,-6.00363 -19.85666,-6.02152 -3.51013,-0.0114 -3.69082,0.15811 -4.3541,4.08403 -0.3806,2.25274 -0.30766,4.41453 0.1621,4.80397 0.46975,0.38944 3.1041,1.26836 5.8541,1.95315 5.72163,1.42478 11.12525,5.36579 13.93605,10.16395 1.7193,2.93493 1.95356,5.49801 2.09242,22.89398 0.14087,17.64683 0.41475,20.55809 2.76236,29.36275 4.49814,16.87015 14.47802,34.7263 19.40867,34.7263 1.0434,0 9.07536,-3.19638 17.84879,-7.10306 z M 64.337508,410 c 4.038437,-26.75681 4.058059,-25.75392 -0.419585,-21.44617 -1.970143,1.89539 -3.981453,4.17851 -4.469577,5.07358 -1.586557,2.90928 -5.115268,28.87878 -4.257261,31.33125 1.131492,3.23417 4.627451,7.64631 5.364222,6.77001 C 60.892262,431.3279 62.594253,421.55 64.337508,410 Z M 369.86489,349.25 c 1.16192,-1.85283 6.63511,-27.74597 6.63511,-31.39008 0,-0.67039 -4.56747,-1.27471 -12.25,-1.62082 -22.57569,-1.01705 -42.49256,-6.56829 -67.60614,-18.84321 -7.89587,-3.85932 -14.45077,-6.87721 -14.56643,-6.70642 -1.77764,2.62494 -12.58982,28.33128 -12.26605,29.16296 0.47623,1.22333 15.84311,10.64757 17.3616,10.64757 0.49595,0 2.37459,-4.49352 4.17477,-9.9856 3.37701,-10.30276 5.58676,-13.23655 9.24861,-12.27895 4.13101,1.08028 4.12166,3.55865 -0.0595,15.77948 l -3.97627,11.62191 5.71972,2.53651 c 6.8688,3.04608 25.36802,9.32665 27.47137,9.32665 1.68877,0 2.0397,-1.40085 3.84508,-15.34866 1.09045,-8.42451 1.60943,-10.06793 3.58903,-11.36501 2.08122,-1.36367 2.56596,-1.35142 4.81424,0.12171 2.90784,1.90529 2.91258,1.97595 1.01227,15.09196 -2.11924,14.62704 -2.16715,14.31077 2.23773,14.77153 2.0625,0.21575 8.12713,0.46791 13.47695,0.56037 9.09427,0.15717 9.81872,0.0217 11.13794,-2.0819 z M 235.01833,336.38983 c 8.01385,-6.61189 13.30516,-11.6915 14.49538,-13.91544 2.41145,-4.50584 -2.48879,-12.10307 -9.0135,-13.97433 -3.78673,-1.08602 -10.14277,1.17935 -13.30238,4.74115 -1.75082,1.97368 -1.72561,2.09178 0.88486,4.14517 1.47787,1.16249 3.87621,2.11362 5.32966,2.11362 3.40662,0 7.08765,2.58915 7.08765,4.98528 0,7.09456 -12.34807,6.60717 -20.26389,-0.79984 -2.40932,-2.25446 -2.94622,-2.40017 -4.18524,-1.13584 -1.23343,1.25864 -0.48919,2.54113 5.62928,9.7004 3.87785,4.5375 7.34445,8.25 7.70357,8.25 0.35912,0 2.89469,-1.84957 5.63461,-4.11017 z m -134.48349,-8.73537 11.07412,-9.34555 -2.46522,-3.15445 c -1.35587,-1.73496 -3.12823,-3.10065 -3.93858,-3.03489 -1.73683,0.14096 -22.546538,17.44418 -22.640719,18.82571 -0.0863,1.26596 5.132572,6.65746 6.118238,6.32061 0.427923,-0.14624 5.761395,-4.47139 11.852161,-9.61143 z m 101.70454,-6.3658 c 5.36834,-4.51624 12.87243,-10.87025 16.67575,-14.12002 3.80332,-3.24978 8.40136,-6.52967 10.21788,-7.28866 4.24334,-1.77298 13.49101,-1.77283 17.7347,3e-4 4.06961,1.70039 9.99702,7.67183 11.70265,11.78959 l 1.27186,3.07054 2.2001,-4.3702 c 6.99733,-13.89931 24.55315,-54.13494 24.26682,-55.61634 -0.26653,-1.37893 -1.41097,-1.7723 -5.35335,-1.84006 -8.1482,-0.14007 -10.4167,-1.18833 -17.61923,-8.14179 l -6.84732,-6.61054 -2.74462,2.41926 c -1.50954,1.33059 -2.91895,2.51859 -3.13202,2.64 -0.21307,0.1214 2.14943,3.32149 5.25,7.11131 3.56475,4.3572 5.6374,7.82532 5.6374,9.43296 0,2.06308 -3.40605,5.43554 -18.06681,17.88868 -12.3631,10.50146 -18.95129,15.44214 -20.86843,15.64986 -2.36022,0.25572 -3.70811,-0.72897 -8.55531,-6.25 -3.16453,-3.60445 -6.05554,-6.55355 -6.42447,-6.55355 -0.36893,0 -5.50999,4.05158 -11.42458,9.0035 -14.02667,11.74367 -17.21921,13.3757 -26.1604,13.37318 -10.80966,-0.003 -15.18305,-2.7362 -27.68161,-17.2996 -9.1588,-10.67189 -10.40875,-11.77698 -12.03354,-10.63894 -0.99722,0.69848 -6.53176,5.26366 -12.29899,10.14484 -7.02951,5.94953 -10.47556,9.54106 -10.4546,10.89595 0.0323,2.08654 16.72232,22.25931 20.75096,25.08108 1.24842,0.87443 4.62947,1.8334 7.51345,2.13106 5.1824,0.53487 5.26088,0.5019 6.72396,-2.82494 1.46195,-3.32425 1.56984,-3.36977 8.67154,-3.65875 4.32322,-0.17592 9.6727,0.35041 13.41342,1.31972 6.11768,1.58525 17.46768,6.81552 21.39541,9.85937 3.7084,2.87387 6.16892,1.8742 16.23938,-6.59781 z m -10.62458,-7.4208 c -3.47568,-2.43447 -2.64028,-5.7326 2.6352,-10.40372 7.57576,-6.70787 8.94983,-7.42194 11.79096,-6.12743 1.79552,0.81809 2.45904,1.90898 2.45904,4.04291 0,2.31958 -1.18623,3.93951 -5.75,7.85228 -6.93945,5.94957 -8.39474,6.55545 -11.1352,4.63596 z m -61.6422,-7.39814 c -1.45585,-1.60869 -1.63877,-2.59504 -0.88091,-4.75 C 129.88284,299.47009 130.6448,299 133.5,299 c 2.8552,0 3.61716,0.47009 4.40831,2.71972 0.75786,2.15496 0.57494,3.14131 -0.88091,4.75 -1.01055,1.11665 -2.59789,2.03028 -3.5274,2.03028 -0.92951,0 -2.51685,-0.91363 -3.5274,-2.03028 z m 249.3314,-3.59429 c 0.43719,-4.49345 -1.67123,-6.00279 -9.4899,-6.79346 -3.74776,-0.379 -9.7391,-1.31104 -13.3141,-2.07121 -3.575,-0.76017 -6.7816,-1.07357 -7.12577,-0.69644 -0.34418,0.37712 -0.92058,3.03612 -1.28089,5.90888 -0.61123,4.8733 -0.50232,5.25686 1.62577,5.72579 4.71907,1.03986 8.57627,1.27951 18.78089,1.16689 L 379,306 Z M 337.948,299.25 c 1.54876,-9.3451 2.29346,-8.43349 -10.448,-12.7898 -6.325,-2.16252 -11.80133,-3.93823 -12.16963,-3.94603 -1.34052,-0.0284 -4.08989,10.12631 -3.02894,11.18726 0.9243,0.9243 22.72116,8.77761 24.40326,8.79238 0.38757,0.003 0.94706,-1.45631 1.24331,-3.24381 z m -161.91809,-7.19805 c 5.10906,-2.1347 25.03021,-19.40581 24.68999,-21.40557 -1.26599,-7.44141 -1.30882,-9.34691 -0.28015,-12.46382 0.6445,-1.95284 2.91167,-5.12248 5.03817,-7.04364 4.90803,-4.43411 10.53554,-5.46323 17.30133,-3.16393 5.58922,1.89944 2.37323,3.90435 26.1168,-16.28173 10.05542,-8.54882 15.39084,-13.7334 14.92188,-14.5 -0.40149,-0.65629 -2.20815,-3.13483 -4.0148,-5.50786 -6.91369,-9.08111 -8.12061,-22.69185 -2.92191,-32.951 2.39927,-4.73472 6.66916,-9.36762 16.58175,-17.99143 3.22848,-2.80874 3.37847,-3.19817 2.21518,-5.75133 -1.12731,-2.47416 -1.4134,-2.59559 -2.96297,-1.25758 -0.94335,0.81456 -22.86518,19.39033 -48.71518,41.27949 -25.85,21.88916 -47.41075,40.16152 -47.91278,40.60524 -0.52352,0.46272 0.65289,2.81636 2.75863,5.51917 6.09129,7.81844 7.01437,15.95184 2.62884,23.16326 -1.04812,1.7235 -7.06655,7.52541 -13.37429,12.89314 -12.62293,10.7418 -12.70765,10.98169 -5.1004,14.44216 4.86425,2.2127 8.45449,2.32716 13.02991,0.41543 z M 204.25,240.4199 c -2.24235,-1.30605 -2.39756,-9.76698 -0.25516,-13.90992 1.92487,-3.72229 16.73749,-16.79128 21.09523,-18.61206 3.93877,-1.64572 10.73649,-1.8287 13.47567,-0.36274 2.19222,1.17324 2.63573,5.86335 0.73426,7.76482 -0.66,0.66 -3.29343,1.2 -5.85208,1.2 -4.31948,0 -5.22593,0.4967 -12.67857,6.9474 -7.29977,6.31837 -8.08826,7.35935 -8.7088,11.4974 -0.86249,5.75152 -3.80028,7.81087 -7.81055,5.4751 z m 99.656,43.40196 c 0.8767,-2.57298 1.594,-5.00907 1.594,-5.41355 0,-0.40448 -3.08563,-2.51442 -6.85697,-4.68875 l -6.85696,-3.95334 -2.62626,5.35483 -2.62625,5.35483 2.23322,1.44497 c 4.86545,3.1481 11.29406,6.55569 12.38922,6.5671 0.6358,0.007 1.8733,-2.09311 2.75,-4.66609 z m -75.0751,-6.74196 4.8309,-4.33049 -6.64793,-7.62247 c -7.45925,-8.55274 -10.299,-9.91976 -14.35092,-6.90833 -4.80217,3.56902 -4.13721,6.98912 3.03308,15.60011 3.46719,4.16383 6.75397,7.57533 7.30397,7.58112 0.55,0.006 3.1739,-1.93818 5.8309,-4.31994 z m -65.66409,-8.86455 c 12.81468,-10.94237 13.77477,-14.00605 6.9381,-22.13966 l -2.45802,-2.92431 -11.69367,9.92431 C 149.5217,258.53406 143.19322,263.9 141.88993,265 l -2.36963,2 5.23225,6.18562 c 4.39578,5.19671 5.47328,5.98781 6.73985,4.94836 0.82918,-0.68049 6.08267,-5.14388 11.67441,-9.91863 z m 82.79839,-5.81894 c 1.94414,-1.70698 3.5179,-3.39448 3.49725,-3.75 -0.0206,-0.35553 -1.54711,-2.41017 -3.39214,-4.56587 l -3.35459,-3.91945 -4.10786,3.25348 c -2.25932,1.78942 -4.10786,3.75675 -4.10786,4.37185 0,1.268 5.98415,7.71358 7.16137,7.71358 0.42297,0 2.3597,-1.39662 4.30383,-3.10359 z M 140.82361,252.5 c 7.45544,-6.325 13.58258,-11.86389 13.61586,-12.30864 0.12052,-1.61011 -6.31468,-8.69136 -7.89842,-8.69136 -2.33323,0 -26.47859,20.74234 -26.86266,23.07667 -0.3305,2.00875 5.45287,10.24349 6.82444,9.7171 0.421,-0.16157 6.86535,-5.46877 14.32078,-11.79377 z M 279.37306,135 392.35889,39 390.25513,36.75 c -1.15707,-1.2375 -3.14017,-2.25 -4.4069,-2.25 -1.52898,0 -9.11736,5.780292 -22.57568,17.196566 C 254.33752,144.10273 158.48645,225.7129 158.03767,226.43904 c -0.30307,0.49039 0.63226,2.29789 2.07852,4.01667 2.29307,2.72517 2.86255,2.95994 4.4503,1.83468 C 165.56789,231.58067 217.23085,187.8 279.37306,135 Z m 20.46872,53.37974 3.10998,-2.62026 -5.22588,-3.21551 c -8.23526,-5.06721 -7.70246,-6.69626 6.02412,-18.41907 6.70352,-5.72495 12.13033,-9.61121 13.42833,-9.61632 1.19808,-0.005 4.91031,1.61886 8.24941,3.60794 l 6.07108,3.61653 3.91594,-3.36653 c 2.15377,-1.85158 3.95404,-3.63676 4.00059,-3.96704 0.0466,-0.33029 -2.19524,-2.01779 -4.98177,-3.74999 -7.64764,-4.75404 -7.02691,-6.38994 6.9995,-18.44676 12.79203,-10.99578 12.45411,-10.90723 21.16616,-5.54665 5.55248,3.41647 7.38422,3.15156 11.97148,-1.73136 l 2.13333,-2.27082 -4.35203,-2.72644 c -8.75937,-5.48754 -8.33318,-6.99566 5.23223,-18.51503 6.09634,-5.176835 12.10685,-9.548597 13.35669,-9.715023 1.26439,-0.168364 5.01446,1.304464 8.45378,3.320196 l 6.18135,3.622789 3.71197,-3.259147 C 411.32962,93.588714 413,91.798298 413,91.402544 c 0,-0.395755 -2.25,-2.223226 -5,-4.061049 -7.88496,-5.269513 -7.52103,-6.991059 3.44466,-16.294542 4.98044,-4.225492 9.05534,-7.93026 9.05534,-8.232818 0,-0.302558 -1.30233,-2.033381 -2.89407,-3.846273 l -2.89408,-3.296168 -8.17407,6.915438 c -4.49573,3.80349 -9.07358,7.396842 -10.17298,7.985225 -3.08447,1.650757 -6.39299,-1.135783 -8.35223,-7.034516 C 387.09225,60.767028 386.00041,58.5 385.58624,58.5 c -0.41416,0 -2.48423,1.496509 -4.60014,3.325576 l -3.84713,3.325575 2.65431,7.160932 c 1.45987,3.938512 2.40158,7.819531 2.09269,8.624486 -0.30889,0.804955 -5.74167,5.786484 -12.07285,11.070064 -8.06432,6.729955 -12.1553,9.514707 -13.66217,9.299937 -1.49931,-0.21369 -2.99707,-2.052376 -4.94386,-6.069207 l -2.79292,-5.762638 -3.95708,3.180002 c -2.1764,1.749001 -3.95709,3.726111 -3.95709,4.393578 0,0.667467 1.0642,4.079655 2.36489,7.582635 1.30068,3.50298 2.15177,6.9658 1.8913,7.69514 -0.26047,0.72934 -5.46136,5.58889 -11.55753,10.79899 -9.40181,8.03526 -11.54357,9.42753 -14.11241,9.17392 -2.63878,-0.26052 -3.28863,-0.97451 -5.05043,-5.54899 -1.11209,-2.8875 -2.49932,-5.25 -3.08273,-5.25 -0.58342,0 -2.59366,1.58156 -4.46722,3.51458 l -3.40646,3.51458 1.86244,4.73542 c 1.02435,2.60448 2.04713,6.31042 2.27285,8.23542 0.40332,3.43958 0.1074,3.7568 -17.14107,18.37529 -9.65331,8.1814 -18.74587,16.0564 -20.20567,17.5 -5.80244,5.73797 -8.02974,16.21174 -4.99306,23.47956 0.7562,1.80983 2.81829,4.93452 4.58241,6.94375 l 3.20751,3.65315 12.03349,-10.22588 c 6.61843,-5.62423 13.43299,-11.40499 15.14347,-12.84613 z m 17.65053,-14.88561 c 5.31199,-4.75778 5.42689,-4.96872 3.5,-6.42491 -2.894,-2.18704 -3.43584,-1.98707 -9.49231,3.50314 -5.26651,4.7741 -5.41759,5.04821 -3.55887,6.4567 2.82227,2.13865 3.49447,1.88986 9.55118,-3.53493 z m -26.09023,-27.85194 c 4.71542,-4.18476 5.31678,-5.13406 4.73095,-7.46817 -0.36912,-1.47071 -1.03971,-2.67402 -1.49019,-2.67402 -0.45048,0 -3.34425,2.3625 -6.43059,5.25 -4.86665,4.55312 -5.48974,5.54866 -4.69411,7.5 0.50458,1.2375 1.26941,2.23568 1.69964,2.21817 0.43022,-0.0175 3.21316,-2.1892 6.1843,-4.82598 z m 64.7611,-5.15132 3.71761,-3.26411 -2.3014,-1.86356 c -2.28748,-1.85228 -2.33008,-1.83954 -7.04239,2.10582 -7.18606,6.01651 -7.51767,6.5809 -4.93106,8.39263 2.44146,1.71007 2.56305,1.64821 10.55724,-5.37078 z m -26.68343,-27.21658 c 4.01776,-3.46225 4.2596,-3.94852 3.4199,-6.8764 l -0.9036,-3.15067 -6.16548,5.21396 c -5.86692,4.96149 -6.11647,5.35454 -5.15351,8.1169 1.14486,3.28414 1.16764,3.27559 8.80269,-3.30379 z m 61.61076,-2.39576 c 2.97522,-2.54181 5.40949,-4.90857 5.40949,-5.25946 0,-0.35089 -0.93746,-1.22343 -2.08325,-1.93899 -2.34409,-1.46391 -3.23965,-1.01265 -10.41496,5.24793 -3.89688,3.40009 -3.94757,3.52678 -2,4.99845 2.84924,2.15301 3.09899,2.06925 9.08872,-3.04793 z M 365.40877,82.68964 c 4.74358,-4.199412 5.32542,-5.120435 4.73095,-7.488968 -0.3728,-1.48537 -1.00675,-2.694307 -1.40877,-2.686527 -0.40202,0.0078 -3.29942,2.278367 -6.43867,5.045749 -5.27012,4.645845 -5.62198,5.219766 -4.58948,7.485855 0.61503,1.349838 1.3835,2.449287 1.70772,2.443219 0.32421,-0.0061 3.02343,-2.165765 5.99825,-4.799328 z M 427.75,79.61292 c 3.14973,-2.848615 3.43601,-4.697409 1.12313,-7.253112 -1.54904,-1.711664 -1.88395,-1.578047 -7,2.792733 -2.95522,2.524724 -5.37313,4.881516 -5.37313,5.237316 0,0.3558 1.2306,1.393595 2.73467,2.30621 2.95105,1.790588 3.2435,1.684698 8.51533,-3.083147 z M 403.84717,51.780551 c 4.2021,-3.703551 4.36172,-4.329036 1.71584,-6.723525 -2.07938,-1.881815 -2.61325,-1.71915 -7.81298,2.380552 -3.38716,2.670591 -3.97374,4.841643 -2.20237,8.151482 1.18364,2.211649 1.77887,1.938511 8.29951,-3.808509 z m 28.97737,-4.921698 c -1.40905,-1.847369 -2.84601,-3.346748 -3.19323,-3.331952 -0.34722,0.01479 -2.14927,1.285969 -4.00456,2.82483 l -3.37325,2.79793 3.27227,3.726904 3.27226,3.726905 3.29422,-3.192882 3.29422,-3.192881 z m 22.13265,0.685827 c 2.66427,-2.780897 2.73965,-3.090752 1.2771,-5.25 -2.67705,-3.952286 -16.1789,-19.129695 -17.3584,-19.512547 -1.59215,-0.516794 -7.53339,4.706185 -7.17426,6.306929 0.56915,2.536792 17.1081,21.410938 18.76189,21.410938 0.91426,0 2.93642,-1.329894 4.49367,-2.95532 z m 13.47864,-24.774333 c 3.78306,-3.173691 7.11033,-6.279009 7.39394,-6.900708 0.2836,-0.621698 -0.73922,-2.63348 -2.27294,-4.470625 l -2.78857,-3.3402651 -8.65258,7.2862701 c -5.25421,4.424535 -8.39052,7.751435 -7.98536,8.470626 1.6406,2.91219 4.88879,5.699133 6.10045,5.234175 0.72972,-0.280019 4.42199,-3.105782 8.20506,-6.279473 z"
       id="path37" /></g><path
     style="fill:#ffffff;stroke:none;stroke-width:3.99944;stroke-linecap:round;stroke-dasharray:none"
     d="m 74.075133,472.79294 c -7.444564,-7.27351 -29.780422,-29.68679 -37.065408,-37.19389 -7.964194,-8.20701 -11.91698,-12.59258 -13.516211,-14.99608 -0.956437,-1.43743 -1.571338,-3.39125 -1.273213,-4.04556 0.339201,-0.74447 0.03632,-2.4365 -0.43615,-2.4365 -0.07997,0 -0.140099,-0.21825 -0.133619,-0.48501 0.0065,-0.26675 0.04565,-0.40106 0.08705,-0.29846 0.254009,0.6295 0.647668,-0.38363 0.646498,-1.66383 -9.93e-4,-1.08612 -0.245527,-2.07164 -0.493742,-1.98988 -0.104374,0.0344 -0.211858,0.51261 -0.262012,1.1658 -0.06067,0.79011 -0.08819,0.44461 -0.09605,-1.2056 -0.0086,-1.80873 0.02435,-2.22363 0.151155,-1.90272 0.08919,0.22571 0.2132,0.41039 0.275576,0.41039 0.432065,0 0.570303,-2.99661 0.189923,-4.11699 -0.263878,-0.77724 -0.168269,-1.68288 0.399887,-3.78785 0.489313,-1.81287 0.880782,-2.35655 3.635391,-5.04885 11.511884,-11.25152 54.816606,-47.8208 61.273,-51.74285 0.850218,-0.51648 0.889593,-0.52532 1.328768,-0.29821 2.717754,1.4054 14.839384,14.52654 18.615334,20.1503 1.73526,2.58442 1.72452,3.28318 -0.0847,5.50956 -1.22666,1.50954 -3.9835,4.00348 -12.180762,11.01921 -13.455264,11.51585 -16.986645,14.68475 -19.355297,17.36855 -2.38681,2.70438 -3.246314,4.0468 -4.072806,6.36112 -2.060664,5.77023 -5.399493,30.12459 -4.701725,34.29571 0.555513,3.32076 2.528837,7.39128 5.347569,11.03084 2.220489,2.86711 6.488891,6.82028 9.480706,8.78054 3.344821,2.19156 5.910543,2.91438 13.301553,3.74731 2.13402,0.2405 4.41494,0.54778 5.068702,0.68285 4.27585,0.88342 5.72289,2.34838 6.11386,6.18956 0.0829,0.81499 0.082,0.81736 -0.13262,0.33577 -0.40667,-0.91246 -0.67827,-0.54142 -0.67827,0.92664 0,0.68118 0.066,0.99431 0.24,1.13872 0.20391,0.16923 0.27123,0.15647 0.4477,-0.0849 0.18662,-0.25522 0.20709,-0.20164 0.20172,0.52795 -0.006,0.80481 -0.008,0.80836 -0.22861,0.4016 -0.42871,-0.79023 -0.66081,-0.4351 -0.66081,1.01107 0,0.76328 0.0555,0.98824 0.28335,1.1478 0.2771,0.19409 0.27594,0.2218 -0.0523,1.25706 -0.39837,1.25648 -1.04838,2.43353 -1.96593,3.55992 l -0.66925,0.82156 H 91.937557 80.771676 Z M 54.992272,433.68535 c 1.079168,-0.50072 1.547576,-1.15615 1.943676,-2.71975 1.394789,-5.50591 4.616669,-26.63406 5.527076,-36.24495 0.534154,-5.6389 -0.06349,-8.1738 -2.193535,-9.30392 -0.722394,-0.38327 -0.909104,-0.41831 -1.91948,-0.36021 -0.836982,0.0481 -1.326239,0.16888 -1.940026,0.47877 -2.351189,1.18708 -10.593875,7.1069 -14.997892,10.77135 -2.373605,1.97501 -5.419987,4.99156 -6.461238,6.39796 -0.956872,1.29244 -1.897422,3.1452 -2.193952,4.3218 -0.312676,1.24066 -0.284014,3.08192 0.06949,4.46411 0.916459,3.58332 3.708899,7.55949 10.252667,14.59884 4.577861,4.92456 7.050693,6.98018 9.227024,7.67027 0.871894,0.27647 1.99732,0.24535 2.68619,-0.0743 z"
     id="path45" /><path
     style="fill:#ffffff;stroke:none;stroke-width:3.99944;stroke-linecap:round;stroke-dasharray:none"
     d="m 47.647587,416.02363 c -1.475701,-1.38432 -4.731753,-5.70182 -5.045475,-6.69027 -0.147664,-0.46525 0.539017,-1.34109 2.295732,-2.92814 2.558632,-2.31152 5.360311,-4.37216 5.94444,-4.37216 0.300101,0 0.249267,2.79024 -0.102561,5.62954 -0.698231,5.63481 -1.505219,9.1445 -2.102609,9.1445 -0.08488,0 -0.530171,-0.35256 -0.989527,-0.78347 z"
     id="path46" /><path
     style="fill:#ffffff;stroke:none;stroke-width:3.99944;stroke-linecap:round;stroke-dasharray:none"
     d="m 80.883202,443.10937 c -1.104626,-1.13272 -2.284279,-2.84815 -3.104355,-4.51429 -0.516416,-1.04919 -0.554189,-1.22198 -0.603535,-2.7608 -0.166429,-5.18989 2.48842,-24.35259 4.012238,-28.96034 0.401959,-1.21545 1.597582,-2.67634 4.673456,-5.71032 1.928399,-1.90213 2.543335,-2.42571 2.804358,-2.38772 0.537841,0.0783 0.636333,0.8028 0.432632,3.18254 -0.4646,5.42771 -5.07686,35.19108 -6.365363,41.07632 -0.310467,1.41805 -0.530654,1.42694 -1.849431,0.0746 z"
     id="path47" /><path
     style="fill:#ffffff;stroke:none;stroke-width:3.99944;stroke-linecap:round;stroke-dasharray:none"
     d="m 109.58065,349.06097 c -1.67828,-1.12071 -4.96848,-4.85768 -4.96848,-5.64314 0,-1.24804 20.31715,-18.23759 22.44969,-18.77283 0.48157,-0.12086 1.35983,0.35739 2.40499,1.30963 0.98093,0.89374 3.96714,4.59224 3.8547,4.77417 -0.0703,0.11372 -8.36105,7.12852 -14.00996,11.85379 -3.12768,2.61628 -8.24578,6.73997 -8.60438,6.93262 -0.18136,0.0974 -0.48195,-0.0238 -1.12656,-0.45424 z"
     id="path48" /><path
     style="fill:#ffffff;stroke:none;stroke-width:3.99944;stroke-linecap:round;stroke-dasharray:none"
     d="m 209.68322,341.22319 c -0.44527,-0.21232 -1.25113,-0.71327 -1.79079,-1.11323 -3.56617,-2.64298 -12.58621,-6.96105 -18.89019,-9.04311 -2.1172,-0.69927 -4.70971,-1.27746 -7.38597,-1.64724 -2.24993,-0.31087 -8.99212,-0.44538 -11.67086,-0.23283 -3.79026,0.30075 -4.08617,0.49364 -5.61773,3.66175 -1.35782,2.80873 -1.42109,2.85651 -3.75323,2.834 -4.90138,-0.0473 -10.43703,-1.66018 -11.09391,-3.2323 -0.20158,-0.48246 -1.15748,-1.38709 -2.41844,-2.28875 -2.44622,-1.74919 -15.63182,-17.89924 -17.15422,-21.0109 -0.36526,-0.74656 -0.37757,-0.83591 -0.17965,-1.3036 0.80998,-1.91404 4.6962,-5.63776 13.98292,-13.39824 8.48549,-7.09094 8.7904,-7.32491 9.54591,-7.32491 1.19814,0 3.02097,1.76667 9.32541,9.03805 9.88109,11.3966 13.62196,14.90942 18.19912,17.08968 2.91695,1.38943 5.42762,1.90612 9.87989,2.03326 7.02055,0.20048 10.4733,-0.70267 15.65281,-4.09438 2.81847,-1.84562 5.43274,-3.8979 14.40356,-11.30721 3.89267,-3.21509 7.749,-6.25175 8.49216,-6.68716 l 0.46111,-0.27016 1.60673,1.61325 c 0.8837,0.88729 2.81259,2.95635 4.28643,4.59791 5.20564,5.79804 6.27358,6.64104 8.41274,6.64074 1.39982,-2e-4 3.23613,-1.05217 7.56844,-4.33578 5.89922,-4.47124 18.44559,-15.00371 25.04064,-21.02121 1.22191,-1.11491 2.42008,-2.1879 2.6626,-2.38443 1.00159,-0.81167 3.4235,-3.68683 3.87053,-4.59487 0.39602,-0.80445 0.44968,-1.04532 0.36781,-1.65103 -0.19733,-1.45985 -1.91186,-4.42034 -4.38631,-7.57389 -0.64403,-0.82078 -1.99273,-2.53322 -2.99711,-3.80543 -1.76167,-2.23144 -3.24038,-4.2622 -3.33513,-4.58024 -0.0251,-0.0842 1.06243,-1.11196 2.41672,-2.28383 1.35429,-1.17187 2.64279,-2.29791 2.86335,-2.5023 l 0.40101,-0.37163 4.36969,4.22092 c 4.76689,4.6046 6.82975,6.44055 8.50898,7.57303 3.08527,2.08072 5.11825,2.62183 10.78298,2.87007 4.05516,0.17771 4.91547,0.32894 5.56942,0.97901 0.29438,0.29263 0.48501,0.63172 0.48501,0.86273 0,1.6133 -11.27795,27.95228 -19.88221,46.43372 -2.65638,5.70576 -6.38264,13.25697 -6.48922,13.15037 -0.045,-0.045 -0.42706,-0.90691 -0.84894,-1.91529 -0.4219,-1.00838 -1.13947,-2.40424 -1.59463,-3.1019 -1.748,-2.67935 -4.44382,-5.51166 -7.20147,-7.56611 -2.90306,-2.16279 -4.9102,-2.8165 -10.02184,-3.26404 -0.65662,-0.0575 -1.10992,-0.13454 -1.00732,-0.17123 0.29226,-0.10452 0.21884,-0.46176 -0.13368,-0.65042 -0.72818,-0.38971 -2.71945,0.19943 -2.0675,0.61169 0.18473,0.11681 0.17168,0.14204 -0.0746,0.14434 -2.18059,0.0204 -6.12425,0.69162 -7.64819,1.3017 -2.16823,0.868 -6.49848,4.04936 -12.87131,9.45635 -19.10415,16.20877 -20.97484,17.70628 -23.98594,19.20107 -1.24784,0.61946 -1.51239,0.69472 -2.61707,0.74458 -1.08078,0.0488 -1.32648,0.009 -2.03849,-0.33057 z m -34.72864,-12.55832 c 0.79746,-0.1093 0.92276,-0.41865 0.22603,-0.55799 -0.59191,-0.11838 -3.07883,-0.0948 -3.53443,0.0335 -0.49608,0.13971 -0.47365,0.37717 0.0461,0.48831 0.61391,0.13128 2.42208,0.15132 3.26229,0.0361 z m 43.1491,-1.95895 c 1.26265,-0.64311 2.62267,-1.6366 5.37238,-3.9245 3.45599,-2.87557 5.84109,-5.31366 6.48769,-6.63182 0.46562,-0.9492 0.51306,-1.16732 0.51934,-2.38772 0.0117,-2.26975 -0.57072,-3.20893 -2.57009,-4.14455 -0.74748,-0.34978 -1.15569,-0.44436 -1.91796,-0.44436 -1.72191,0 -3.40132,1.04373 -7.89015,4.9036 -4.94004,4.24786 -6.63457,6.49229 -6.63525,8.78851 -3.5e-4,1.18101 0.34575,1.89953 1.3863,2.87807 1.72802,1.62504 3.35971,1.92439 5.24774,0.96277 z m -61.06922,-6.24964 c 0.93551,-0.47406 2.39137,-1.83803 2.91463,-2.73066 0.68604,-1.17031 0.42712,-3.19561 -0.6417,-5.01942 -0.25588,-0.43661 -0.58995,-0.74 -1.08125,-0.98194 -0.64356,-0.31692 -0.90901,-0.35004 -2.80022,-0.34946 -1.94961,6e-4 -2.13376,0.0255 -2.75503,0.37308 -1.22515,0.68536 -1.99616,2.32438 -2.0111,4.27521 -0.009,1.18177 0.008,1.24138 0.58761,2.08373 0.71864,1.04396 2.1001,2.18985 3.12817,2.59475 0.90994,0.35838 1.59171,0.29549 2.65889,-0.24529 z"
     id="path49" /><path
     style="fill:#ffffff;stroke:none;stroke-width:3.99944;stroke-linecap:round;stroke-dasharray:none"
     d="m 171.76691,290.59453 c -0.99367,-0.48192 -2.53964,-2.17786 -9.50467,-10.42665 l -0.64408,-0.76279 3.76751,-3.19188 c 12.57972,-10.65766 23.65878,-20.05626 23.91609,-20.28852 0.29298,-0.26446 0.32724,-0.23486 1.86541,1.61194 4.74444,5.69641 5.73023,8.11296 4.58171,11.23157 -0.45645,1.23945 -1.43542,2.78507 -2.25499,3.56026 -0.4029,0.38108 -1.06377,1.00838 -1.4686,1.394 -0.40484,0.38562 -0.69634,0.7654 -0.64778,0.84397 0.1873,0.30306 -4.15955,4.18026 -14.68592,13.09922 -1.84676,1.56474 -3.50442,2.92239 -3.6837,3.017 -0.43056,0.2272 -0.61834,0.21386 -1.24098,-0.0881 z"
     id="path50" /><path
     style="fill:#ffffff;stroke:none;stroke-width:3.99944;stroke-linecap:round;stroke-dasharray:none"
     d="m 147.81505,276.39961 c -1.99914,-1.23606 -6.04393,-7.35729 -6.04393,-9.14665 0,-0.67548 0.68716,-1.51145 3.60815,-4.38954 6.72661,-6.6278 18.83941,-16.71299 22.16264,-18.45275 l 0.92354,-0.48349 0.67857,0.32968 c 1.28892,0.6262 5.08106,4.56948 6.45608,6.71339 0.78251,1.22008 0.79901,1.58243 0.1048,2.30228 -0.89625,0.92936 -4.74729,4.42298 -7.96728,7.22782 -6.26527,5.45749 -19.11549,16.17147 -19.40026,16.17512 -0.041,5.2e-4 -0.27608,-0.12361 -0.52231,-0.27586 z"
     id="path51" /><path
     style="fill:#ffffff;stroke:none;stroke-width:3.99944;stroke-linecap:round;stroke-dasharray:none"
     d="m 184.13408,244.82511 c -1.14769,-0.77987 -3.67501,-4.1094 -4.01073,-5.28378 -0.1522,-0.53242 -0.13929,-0.5603 0.55663,-1.20164 2.28298,-2.10396 37.55846,-32.22782 80.92505,-69.10679 8.82339,-7.50342 19.38131,-16.48394 23.46205,-19.95672 l 7.41953,-6.31415 6.9157,0.0388 6.91569,0.0388 -3.88893,3.30116 c -2.13891,1.81563 -6.6087,5.61129 -9.93286,8.43478 -50.09301,42.54833 -93.74334,79.54679 -103.34369,87.59515 -3.67358,3.07971 -3.92052,3.20048 -5.01844,2.45442 z"
     id="path52" /><path
     style="fill:#ffffff;stroke:none;stroke-width:3.99944;stroke-linecap:round;stroke-dasharray:none"
     d="m 188.70483,305.26423 c -1.66164,-0.43274 -3.19569,-1.04016 -5.54259,-2.19466 -2.05295,-1.00989 -2.93962,-1.689 -3.18806,-2.44177 -0.14979,-0.45386 -0.12518,-0.61768 0.19578,-1.30339 0.71881,-1.53564 2.14731,-2.95339 8.38563,-8.32247 6.04815,-5.20539 7.66788,-6.68146 11.20711,-10.213 3.53222,-3.52456 4.02052,-4.16585 5.07664,-6.66719 0.29019,-0.68731 0.70504,-1.95477 0.92188,-2.81659 0.34978,-1.3902 0.39327,-1.84469 0.3855,-4.02929 -0.01,-2.67762 -0.1631,-3.63848 -0.96407,-6.03126 -0.88045,-2.63019 -2.27981,-5.08761 -4.89351,-8.59355 -1.20663,-1.61852 -2.2613,-3.56624 -2.24871,-4.15281 0.007,-0.3356 0.71059,-0.99099 4.43967,-4.13667 2.43712,-2.05583 13.06051,-11.0519 23.60753,-19.99125 10.54703,-8.93936 22.46699,-19.04106 26.48882,-22.44821 22.17025,-18.78191 40.73653,-34.51626 41.78517,-35.41164 1.29004,-1.10151 1.73062,-1.30769 2.11693,-0.9907 0.35757,0.29339 1.55767,2.88947 1.64839,3.56579 0.17181,1.28096 -0.03,1.52674 -4.5861,5.58637 -10.75137,9.57973 -14.21083,13.86698 -16.33083,20.23853 -1.17934,3.54443 -1.60105,6.29488 -1.58829,10.35919 0.0164,5.22074 1.04209,9.75 3.21062,14.17712 1.00195,2.04549 1.51555,2.83774 4.25683,6.56624 3.0366,4.13016 2.78028,3.62033 2.23444,4.4444 -1.1611,1.75294 -5.92566,6.16545 -15.66001,14.5029 -15.22977,13.04427 -17.47793,14.86814 -19.72477,16.00222 -1.18322,0.59722 -1.93135,0.55369 -4.00324,-0.23292 -5.3567,-2.03371 -9.96804,-2.13628 -13.99307,-0.31125 -4.21976,1.91333 -8.5797,6.70857 -9.83068,10.81217 -0.5889,1.93179 -0.59099,4.99368 -0.006,8.80474 0.22677,1.4774 0.44376,2.7913 0.48219,2.91978 0.41359,1.3825 -13.23291,13.83516 -21.12378,19.27581 -2.6929,1.85672 -4.39106,2.65408 -6.76383,3.17591 -1.1451,0.25184 -1.1716,0.25108 -1.37505,-0.0394 -0.39289,-0.56093 -1.93699,-0.5355 -2.51389,0.0414 -0.28737,0.28737 -0.50566,0.27239 -2.10663,-0.14456 z m 41.79064,-51.6681 c 0.46008,-0.15677 0.98056,-0.5018 1.40699,-0.93271 1.14818,-1.16023 1.54397,-2.22389 2.47571,-6.65321 0.30591,-1.45424 0.76769,-2.47289 1.65782,-3.65703 1.52544,-2.02928 10.34114,-9.77794 13.38543,-11.76528 1.95609,-1.27695 3.39243,-1.65064 6.38129,-1.66024 1.88036,-0.006 3.88459,-0.35993 4.90692,-0.86643 0.70508,-0.34933 0.88213,-0.52794 1.25598,-1.26707 0.73272,-1.44859 0.70188,-3.9825 -0.0667,-5.48197 -0.94687,-1.84729 -3.12485,-2.49068 -7.93862,-2.34511 -4.14447,0.12533 -6.4385,0.74075 -9.0104,2.41719 -6.13555,3.99936 -17.55189,14.48146 -19.06551,17.50531 -0.97625,1.95032 -1.45764,4.43768 -1.46473,7.56832 -0.006,2.54531 0.23817,4.00695 0.88415,5.29777 0.47313,0.94544 1.02868,1.36934 2.33925,1.78491 1.1328,0.35921 1.91644,0.37447 2.85242,0.0556 z"
     id="path53" /><path
     style="fill:#ffffff;stroke:none;stroke-width:3.99944;stroke-linecap:round;stroke-dasharray:none"
     d="m 243.53687,292.53352 c -1.56744,-1.4743 -4.45851,-4.7135 -6.7099,-7.51788 -5.51873,-6.87425 -6.41906,-10.01872 -3.69643,-12.91001 2.26751,-2.40799 4.4791,-3.28934 6.52035,-2.59847 2.44923,0.82895 4.73163,2.9334 11.17562,10.30427 2.26034,2.58545 4.23498,4.84102 4.38809,5.01237 0.27693,0.30992 0.26497,0.32355 -2.29913,2.62017 -1.41763,1.26974 -3.24174,2.86632 -4.05357,3.54794 -1.54049,1.29343 -3.57254,2.69816 -3.90309,2.69816 -0.10577,0 -0.74565,-0.52045 -1.42194,-1.15655 z"
     id="path54" /><path
     style="fill:#ffffff;stroke:none;stroke-width:3.99944;stroke-linecap:round;stroke-dasharray:none"
     d="m 262.86871,277.40542 c -1.48537,-0.942 -5.43295,-5.28114 -6.12516,-6.73273 -0.26084,-0.54698 -0.26033,-0.55086 0.15272,-1.14689 0.65817,-0.94973 2.79829,-2.92275 5.33179,-4.91546 1.28656,-1.01194 2.36927,-1.85029 2.40603,-1.86298 0.0367,-0.0127 0.95635,1.01781 2.04356,2.29002 2.97568,3.48203 4.62751,5.64246 4.62751,6.05237 0,0.48938 -3.69189,3.9865 -5.96931,5.6544 -1.61588,1.18341 -1.63551,1.18867 -2.46714,0.66127 z"
     id="path55" /><path
     style="fill:#ffffff;stroke:none;stroke-width:3.99944;stroke-linecap:round;stroke-dasharray:none"
     d="m 214.96979,446.44821 c -3.72917,-1.75801 -9.43671,-10.75353 -14.02624,-22.10647 -2.95009,-7.2975 -5.39602,-16.01257 -6.11447,-21.78637 -0.55655,-4.47268 -0.84045,-12.65682 -0.53209,-15.33867 0.15382,-1.33776 0.15574,-1.91359 0.01,-2.86773 -0.34491,-2.25134 -0.34605,-2.29607 -0.0733,-2.87082 0.23176,-0.48841 0.23992,-0.64078 0.0698,-1.30346 -0.10594,-0.41272 -0.21588,-1.69056 -0.24432,-2.83966 -0.12009,-4.85268 -0.36875,-10.69434 -0.51137,-12.01323 -0.43571,-4.02941 -1.7393,-6.54034 -5.06226,-9.75074 -2.73966,-2.64686 -6.17635,-4.63347 -9.85351,-5.6959 -2.94028,-0.84954 -5.70868,-1.73045 -6.15036,-1.95707 -0.57614,-0.29561 -0.77062,-1.14106 -0.66521,-2.89195 0.10793,-1.79298 0.6034,-4.36371 0.95809,-4.97102 0.53039,-0.90815 1.03893,-1.06446 3.38885,-1.04163 3.29619,0.032 6.63167,0.64901 10.74764,1.98807 3.83111,1.2464 6.18891,2.33685 11.98086,5.54102 4.93853,2.73204 8.15694,4.34033 9.6934,4.84394 1.21775,0.39915 1.47552,0.42957 3.62411,0.42767 2.227,-0.002 2.36587,-0.0203 3.73081,-0.49364 2.91545,-1.01092 6.23841,-2.98459 10.81938,-6.42614 2.22559,-1.67202 2.40387,-1.77658 2.6255,-1.5399 0.27064,0.289 13.68845,16.09207 13.98066,16.46596 0.1665,0.21305 -0.0595,0.45132 -1.79079,1.88773 -1.08975,0.90415 -2.29147,1.96957 -2.67049,2.36759 -3.35109,3.51911 -6.73927,9.74094 -7.5367,13.83991 -0.3184,1.63668 -0.45456,10.7675 -0.21493,14.41337 0.58071,8.8352 2.32796,15.88414 5.62098,22.67673 1.51786,3.13092 2.52563,4.68385 3.88722,5.99005 1.27252,1.22075 2.08855,1.77091 5.63798,3.80105 3.96012,2.26504 5.4546,3.43637 5.90887,4.63119 0.20133,0.52953 -0.25396,1.54086 -0.91909,2.04158 -0.97057,0.73065 -7.64455,3.90787 -16.69449,7.9476 -9.32094,4.1607 -17.41866,7.3887 -18.52376,7.38416 -0.1948,-8.1e-4 -0.68996,-0.15975 -1.10035,-0.35322 z"
     id="path56" /><path
     style="fill:#ffffff;stroke:none;stroke-width:3.99944;stroke-linecap:round;stroke-dasharray:none"
     d="m 249.57135,351.09911 c -3.03254,-3.15604 -8.96876,-10.06626 -10.53723,-12.26613 -0.86148,-1.20828 -1.45202,-2.38292 -1.45411,-2.89236 -0.002,-0.4774 1.17992,-1.65959 1.65778,-1.65822 0.23477,6.8e-4 0.47014,0.16955 0.69342,0.49751 0.66742,0.98034 1.90471,2.18766 2.24197,2.18766 0.20247,0 0.33006,-0.0919 0.33006,-0.23774 0,-0.16852 0.20642,-0.0669 0.70885,0.34907 5.68689,4.70779 13.98678,6.35043 17.60978,3.48516 1.00307,-0.79329 1.55984,-1.88128 1.64546,-3.21539 0.0857,-1.33493 -0.25751,-2.13767 -1.35858,-3.17792 -1.45204,-1.37183 -3.01249,-2.05528 -5.23785,-2.29408 -1.73197,-0.18586 -2.70045,-0.4639 -4.10544,-1.17864 -1.27829,-0.65028 -3.29054,-2.19691 -3.59258,-2.76128 -0.1723,-0.32194 -0.16633,-0.44839 0.0417,-0.88472 0.61554,-1.29081 3.2305,-3.51281 5.42873,-4.61295 2.86392,-1.43329 6.25546,-2.04895 8.4437,-1.53277 4.68739,1.1057 9.18876,5.84657 9.84841,10.37241 0.34256,2.35027 -0.34409,3.78825 -3.28806,6.88585 -4.08563,4.29884 -16.30173,14.62168 -17.30336,14.62168 -0.0834,0 -0.88108,-0.75922 -1.77269,-1.68714 z"
     id="path57" /><path
     style="fill:#ffffff;stroke:none;stroke-width:3.99944;stroke-linecap:round;stroke-dasharray:none"
     d="m 375.39501,363.51742 c -4.23249,-0.14341 -8.20227,-0.39109 -9.48158,-0.59156 -1.74886,-0.27405 -2.2326,-0.93599 -2.23296,-3.05551 -2.8e-4,-1.62333 0.18496,-3.18516 1.34464,-11.33724 1.3946,-9.8034 1.5186,-11.15236 1.17563,-12.78936 -0.13697,-0.65375 -0.29921,-0.92015 -0.93609,-1.53698 -1.12213,-1.08683 -2.93277,-2.07204 -3.80802,-2.07204 -1.26084,0 -3.28614,1.39493 -3.96213,2.72894 -0.82378,1.62564 -1.16434,3.35845 -2.24659,11.43095 -1.42313,10.61508 -1.85907,12.65615 -2.84047,13.29919 -0.50521,0.33102 -1.31708,0.20984 -4.23024,-0.63141 -7.61373,-2.19865 -19.21634,-6.40639 -26.15599,-9.4856 l -3.38353,-1.50131 1.79348,-5.2428 c 0.98641,-2.88354 2.12536,-6.21655 2.53099,-7.40668 1.89758,-5.56753 2.95102,-10.05988 2.72588,-11.62445 -0.19999,-1.38983 -0.63595,-2.08328 -1.62909,-2.5913 -1.54842,-0.79206 -3.18535,-0.91296 -4.36976,-0.32274 -2.18189,1.08728 -3.6623,3.88376 -6.55091,12.37462 -1.85624,5.45628 -3.50104,9.37907 -4.01532,9.57642 -0.55701,0.21375 -7.74539,-3.86423 -13.19439,-7.4852 -3.10023,-2.06016 -4.02928,-2.80327 -4.02928,-3.22283 0,-1.20705 8.94926,-22.67067 11.52159,-27.63301 0.32974,-0.6361 0.68976,-1.15655 0.80005,-1.15655 0.3675,0 6.33816,2.73999 12.52561,5.74812 11.70945,5.69274 19.28137,8.88668 28.35423,11.96018 13.52077,4.58028 26.66926,7.07076 40.81516,7.73088 1.02597,0.0479 2.33425,0.12733 2.90728,0.17657 1.0242,0.088 1.03305,0.0924 0.52231,0.25744 -0.28576,0.0924 -0.51956,0.2668 -0.51956,0.38764 0,0.28532 1.10915,0.48116 1.84251,0.32533 0.43193,-0.0918 0.54276,-0.1837 0.53337,-0.44237 -0.0107,-0.29567 0.0617,-0.32652 0.76689,-0.32652 0.65006,0 0.77532,0.0432 0.75801,0.26115 -0.0187,0.23552 0.21374,0.26942 2.367,0.34529 2.19149,0.0772 3.06024,0.22169 3.25245,0.54091 0.50202,0.83371 -4.80458,26.65353 -6.29745,30.64089 -0.37729,1.00771 -1.05835,1.85588 -1.78992,2.2291 -0.30411,0.15515 -1.07475,0.35466 -1.71254,0.44337 -1.28869,0.17924 -7.83882,0.17848 -13.15126,-0.002 z"
     id="path58" /><path
     style="fill:#ffffff;stroke:none;stroke-width:3.99944;stroke-linecap:round;stroke-dasharray:none"
     d="m 321.77966,300.3392 c -2.29742,-0.94636 -7.1811,-3.66342 -11.19845,-6.23031 -1.04128,-0.66534 -1.91057,-1.22256 -1.93175,-1.23828 -0.0396,-0.0294 5.015,-10.39993 5.12028,-10.50522 0.0607,-0.0607 0.70736,0.3028 5.88683,3.30922 3.19326,1.85353 7.05452,4.34336 7.49313,4.83175 0.23545,0.26217 0.23778,0.35367 0.03,1.1744 -0.44658,1.76347 -1.75166,5.54113 -2.32419,6.72751 -0.53184,1.10206 -1.49196,2.44902 -1.74086,2.44224 -0.0552,-0.002 -0.65588,-0.23159 -1.33494,-0.51131 z"
     id="path59" /><path
     style="fill:#ffffff;stroke:none;stroke-width:3.99944;stroke-linecap:round;stroke-dasharray:none"
     d="m 357.93477,314.65815 c -0.0821,-0.0276 -0.88793,-0.26855 -1.79079,-0.53544 -3.33945,-0.98715 -13.75183,-4.70406 -18.28101,-6.52577 -2.53407,-1.01924 -3.22963,-1.33914 -3.50038,-1.60989 -0.8308,-0.8308 0.94284,-8.53385 2.41353,-10.48216 0.33392,-0.44237 0.43269,-0.48768 0.88007,-0.40375 0.69134,0.1297 6.78973,2.12491 13.33926,4.36422 8.33574,2.85001 9.37899,3.47151 9.63521,5.74009 0.1518,1.344 -0.84966,7.40419 -1.45677,8.81546 -0.25723,0.59794 -0.36818,0.70911 -0.69787,0.6992 -0.21561,-0.006 -0.45917,-0.0344 -0.54125,-0.062 z"
     id="path60" /><path
     style="fill:#ffffff;stroke:none;stroke-width:3.99944;stroke-linecap:round;stroke-dasharray:none"
     d="m 380.54354,318.377 c -3.85741,-0.25583 -7.70826,-0.76898 -9.41275,-1.25429 -0.74969,-0.21346 -1.20287,-0.75145 -1.2909,-1.53249 -0.19078,-1.69259 1.00191,-9.19244 1.54884,-9.73936 0.41403,-0.41404 3.12141,-0.1762 6.97925,0.61312 3.05794,0.62566 8.65679,1.51354 12.09954,1.91879 6.22794,0.73309 8.10537,1.24481 9.52588,2.59643 1.14071,1.08539 1.37685,2.14933 1.12027,5.0475 -0.0962,1.08712 -0.21956,2.04869 -0.27403,2.13683 -0.0955,0.15447 -18.29884,0.34593 -20.2961,0.21347 z"
     id="path61" /><path
     style="fill:#ffffff;stroke:none;stroke-width:3.99944;stroke-linecap:round;stroke-dasharray:none"
     d="m 292.50613,221.28103 c -1.997,-2.29353 -3.84407,-4.81524 -4.90741,-6.69984 -2.00005,-3.54476 -2.55039,-8.82865 -1.43857,-13.81193 0.9253,-4.14731 2.75792,-7.7532 5.28833,-10.40537 1.68892,-1.77019 7.14361,-6.53285 20.44799,-17.85377 11.90982,-10.13427 14.19718,-12.16532 15.74969,-13.98486 1.36132,-1.59546 1.63788,-2.22354 1.62755,-3.69627 -0.0157,-2.24234 -0.96626,-5.76618 -2.89884,-10.74669 l -1.19784,-3.08697 1.15713,-1.27468 c 2.52453,-2.78099 5.8745,-5.70963 6.53106,-5.70963 0.58267,0 1.91707,2.37012 3.48845,6.19603 1.48724,3.62105 2.25794,4.3582 4.71699,4.51161 1.43509,0.0895 2.38373,-0.17278 3.95486,-1.0936 2.99995,-1.75822 14.32465,-11.31927 19.80337,-16.71928 1.91884,-1.89128 1.98523,-1.97758 1.98523,-2.58056 0,-1.4106 -0.62782,-3.65086 -2.74333,-9.78908 -1.46867,-4.26138 -1.62935,-4.94978 -1.3095,-5.61021 0.3774,-0.77922 2.5751,-2.9045 5.04955,-4.88312 1.24585,-0.99621 2.33318,-1.82968 2.41628,-1.85214 0.0831,-0.0225 1.12533,1.90664 2.31607,4.2869 2.30656,4.61076 3.20623,6.00536 4.37241,6.77781 1.03504,0.68558 1.76625,0.64002 3.43237,-0.21383 3.44806,-1.76705 15.4235,-11.49084 21.50009,-17.457586 2.0849,-2.047212 2.12807,-2.102646 2.12656,-2.730171 -0.004,-1.663773 -0.94787,-4.936084 -3.12234,-10.824936 l -1.64373,-4.451527 0.40493,-0.356514 0.40493,-0.356513 5.09502,-0.0047 5.09502,-0.0047 0.24005,0.599951 c 0.21467,0.536506 0.23904,2.0318 0.23045,14.139804 l -0.01,13.539852 -2.2662,1.59741 c -5.3543,3.77418 -14.72136,11.74217 -17.5955,14.96743 -2.98438,3.34896 -3.1838,5.49538 -0.71708,7.71816 0.87118,0.78502 4.08496,2.97001 6.7564,4.59354 0.87786,0.53351 1.59799,1.02005 1.6003,1.0812 0.002,0.0611 -1.08707,1.20652 -2.42083,2.54525 -2.10135,2.10919 -2.57763,2.51015 -3.56829,3.00399 -0.95276,0.47495 -1.30087,0.57114 -2.08926,0.57734 -1.65443,0.013 -2.90887,-0.53165 -7.24309,-3.14474 -3.74217,-2.25614 -4.33018,-2.48832 -6.31308,-2.49266 -1.51593,-0.003 -1.60493,0.0151 -2.73378,0.56674 -1.5858,0.77491 -4.48663,2.99652 -9.20484,7.04957 -5.06273,4.349 -7.40663,6.45301 -9.46622,8.49739 -4.35812,4.32597 -4.98383,6.60488 -2.45603,8.94518 0.48053,0.44488 2.23477,1.71059 3.89832,2.8127 1.66354,1.1021 3.35868,2.30647 3.76697,2.67636 l 0.74233,0.67254 -1.0408,1.08044 c -0.80173,0.83225 -4.61584,4.23196 -6.64466,5.92272 -0.19681,0.16401 -0.77797,-0.13218 -3.88005,-1.97756 -5.30968,-3.15865 -9.1869,-4.98525 -10.58186,-4.98525 -1.43889,0 -6.50294,3.60567 -13.81007,9.83296 -10.12279,8.62685 -12.23528,11.42846 -10.7186,14.21511 0.72511,1.33226 1.92147,2.24873 7.10317,5.44137 l 2.95082,1.81811 -0.93617,0.80899 c -0.5149,0.44494 -2.6822,2.28618 -4.81623,4.09165 -3.52992,2.98645 -23.54588,19.95987 -24.11963,20.45332 -0.21598,0.18575 -0.4731,-0.0565 -2.35926,-2.22271 z m 59.95432,-66.75041 c 0.58603,-0.49311 2.18729,-2.59071 2.06843,-2.70957 -0.10513,-0.10513 -1.4934,0.90893 -2.45149,1.7907 -1.05577,0.97165 -0.69841,1.82887 0.38306,0.91887 z"
     id="path62" /><path
     style="fill:#ffffff;stroke:none;stroke-width:3.99944;stroke-linecap:round;stroke-dasharray:none"
     d="m 306.77364,162.50804 c -0.60535,-0.47617 -1.44459,-2.29238 -1.43716,-3.11019 0.008,-0.8519 0.27428,-1.36229 1.41389,-2.70739 1.66958,-1.97064 8.09845,-7.74116 9.39606,-8.43386 l 0.54758,-0.29232 0.34857,0.40306 c 0.49494,0.57232 0.99165,1.97598 1.08335,3.06148 0.11323,1.3405 -0.37207,2.25661 -2.11524,3.99297 -2.28797,2.27902 -7.11786,6.37218 -8.411,7.12803 -0.42666,0.24938 -0.4579,0.2478 -0.82605,-0.0418 z"
     id="path63" /><path
     style="fill:#ffffff;stroke:none;stroke-width:3.99944;stroke-linecap:round;stroke-dasharray:none"
     d="m 331.16668,190.12297 c -1.10549,-0.60939 -2.09049,-1.44388 -2.19478,-1.85941 -0.0479,-0.19105 0.0132,-0.53928 0.13585,-0.77383 0.45092,-0.8622 6.08058,-6.12814 8.45675,-7.91037 1.46925,-1.10199 2.44353,-1.47229 3.28064,-1.24688 0.56307,0.15162 2.00393,1.08204 2.72598,1.76028 0.94206,0.88489 0.49465,1.50646 -3.99198,5.54591 -4.14442,3.73135 -5.87209,4.93493 -7.07508,4.92886 -0.30946,-0.002 -0.87439,-0.18935 -1.33738,-0.44456 z"
     id="path64" /><path
     style="fill:#ffffff;stroke:none;stroke-width:3.99944;stroke-linecap:round;stroke-dasharray:none"
     d="m 368.22306,158.55046 c -1.99476,-1.19615 -2.40459,-2.00912 -1.58265,-3.13946 1.02622,-1.41127 8.33077,-7.70689 9.82912,-8.47148 1.07311,-0.5476 1.50847,-0.36374 4.01543,1.69572 l 1.20991,0.99394 -3.65378,3.19684 c -5.88765,5.15133 -7.38463,6.2561 -8.47708,6.2561 -0.25536,0 -0.84263,-0.23283 -1.34095,-0.53166 z"
     id="path65" /><path
     style="fill:#ffffff;stroke:none;stroke-width:3.99944;stroke-linecap:round;stroke-dasharray:none"
     d="m 343.54605,130.70666 c -0.44384,-0.47641 -1.2061,-2.71302 -1.2061,-3.53893 0,-1.38471 0.94968,-2.39424 7.23779,-7.69394 2.13403,-1.79859 3.98507,-3.35903 4.11343,-3.46765 0.20671,-0.17492 0.29768,0.0282 0.79623,1.77783 1.02171,3.58561 0.96234,3.89097 -1.16779,6.00615 -1.66825,1.65653 -6.28977,5.56794 -7.71242,6.52739 -1.1602,0.78245 -1.61477,0.86827 -2.06114,0.38915 z"
     id="path66" /><path
     style="fill:#ffffff;stroke:none;stroke-width:3.99944;stroke-linecap:round;stroke-dasharray:none"
     d="m 184.13408,244.82512 c -1.14769,-0.77988 -3.67501,-4.10941 -4.01073,-5.2838 -0.15219,-0.53235 -0.13923,-0.56036 0.55663,-1.20257 2.32431,-2.1451 36.66501,-31.46939 82.86507,-70.76029 35.20684,-29.94171 41.04464,-34.90427 51.41069,-43.70299 5.17091,-4.38907 11.14769,-9.46432 13.28171,-11.27832 2.13403,-1.814 11.46854,-9.73876 20.74336,-17.61058 9.27481,-7.871814 21.49698,-18.247596 27.16036,-23.057292 19.25789,-16.355 25.87781,-21.708805 29.76,-24.06818 1.13678,-0.690868 1.37336,-0.778163 2.10894,-0.778163 1.38928,0 2.78838,0.800944 4.57225,2.617476 0.80517,0.819899 1.4822,1.544548 1.50452,1.610331 0.0223,0.06578 -2.99965,2.70371 -6.71547,5.862061 -3.71584,3.15835 -13.27008,11.276748 -21.23164,18.040882 -7.96157,6.764134 -18.23625,15.494034 -22.83262,19.399777 -4.59637,3.905743 -14.83746,12.607678 -22.75799,19.337638 -7.92053,6.72997 -21.55294,18.3139 -30.29425,25.74207 -36.76703,31.24382 -77.51341,65.81728 -99.98595,84.83849 -26.15172,22.13532 -24.35508,20.65777 -25.11898,20.65777 -0.26387,0 -0.72103,-0.16395 -1.0159,-0.36431 z"
     id="path67" /><path
     style="fill:#ffffff;stroke:none;stroke-width:3.99944;stroke-linecap:round;stroke-dasharray:none"
     d="m 380.9075,99.35211 c -0.71525,-0.848046 -1.55783,-2.772257 -1.55783,-3.557676 0,-0.592429 0.0998,-0.835072 0.64781,-1.574838 1.40107,-1.891361 9.89437,-9.156923 10.70427,-9.156923 0.31364,0 0.94331,1.198108 1.26514,2.407268 0.60019,2.254978 0.0231,3.304534 -3.63448,6.609897 -2.24455,2.028408 -5.95812,5.133071 -6.57732,5.498839 -0.4373,0.258319 -0.43901,0.257861 -0.84759,-0.226567 z"
     id="path68" /><path
     style="fill:#ffffff;stroke:none;stroke-width:3.99944;stroke-linecap:round;stroke-dasharray:none"
     d="m 405.53768,127.2342 c -0.81172,-0.41014 -2.4097,-1.64562 -2.66831,-2.06299 -0.28092,-0.4534 0.319,-1.24829 2.21764,-2.93835 1.83237,-1.63107 5.02317,-4.33202 6.15569,-5.21066 1.06288,-0.82462 2.53266,-1.51604 3.22268,-1.51604 0.81628,0 1.98084,0.59773 3.04018,1.56044 0.68173,0.61954 0.81659,0.81905 0.73259,1.08373 -0.12224,0.38514 -2.32932,2.50795 -5.06163,4.86836 -5.17397,4.46974 -6.11161,4.98718 -7.63884,4.21551 z"
     id="path69" /><path
     style="fill:#ffffff;stroke:none;stroke-width:3.99944;stroke-linecap:round;stroke-dasharray:none"
     d="m 293.15317,222.03032 c -3.51341,-3.98169 -5.4822,-6.83984 -6.41069,-9.30661 -2.33841,-6.21259 -1.02576,-14.71045 3.17311,-20.54217 1.52415,-2.11686 4.47764,-4.76359 21.45856,-19.22978 11.00525,-9.37547 13.03711,-11.15089 15.01124,-13.11675 2.81048,-2.7987 3.21291,-3.74825 2.76184,-6.51663 -0.38008,-2.33265 -1.37319,-5.64131 -2.76388,-9.20816 l -1.21174,-3.10789 1.00527,-1.12321 c 2.39857,-2.67998 6.03232,-5.8681 6.68834,-5.8681 0.55412,0 1.94778,2.41899 3.26715,5.67085 1.43118,3.52742 2.24458,4.5729 3.82079,4.91094 2.42969,0.52107 4.13374,-0.0893 7.60497,-2.72384 4.35552,-3.30573 13.51067,-11.24805 17.42391,-15.11567 1.7593,-1.7388 1.83208,-1.83539 1.83208,-2.43133 0,-1.39817 -0.61944,-3.60618 -2.74538,-9.78583 -1.46999,-4.27296 -1.62721,-4.94934 -1.30546,-5.61622 0.36454,-0.75554 2.66372,-2.97622 5.11003,-4.93554 1.19814,-0.95963 2.25311,-1.76498 2.34437,-1.78966 0.0913,-0.0247 1.06999,1.76828 2.17493,3.98439 2.08288,4.17748 2.81838,5.42894 3.76131,6.39984 1.66829,1.71779 2.79402,1.55251 6.45265,-0.94733 4.60567,-3.14694 14.67437,-11.55279 19.31456,-16.124748 2.03036,-2.00051 2.05193,-2.028796 2.0506,-2.688712 -0.003,-1.648634 -0.90436,-4.751281 -3.15869,-10.87687 -0.88855,-2.414424 -1.59873,-4.399788 -1.57817,-4.41192 0.0206,-0.01213 1.01112,-0.863411 2.20125,-1.89173 2.47874,-2.141728 4.89584,-4.055397 5.54861,-4.392959 0.2462,-0.127316 0.54007,-0.196015 0.65304,-0.152664 0.3178,0.12195 1.28728,2.18203 2.15018,4.568992 1.55362,4.297607 3.12569,6.55945 5.21103,7.497468 0.83249,0.374467 2.11631,0.388232 2.98873,0.03204 1.24459,-0.508135 5.45748,-3.826242 13.71957,-10.805651 4.14942,-3.505223 5.00484,-4.167105 5.14854,-3.983685 0.0948,0.120983 0.97817,1.138739 1.96311,2.261682 1.87988,2.143295 3.50625,4.220746 3.5067,4.479328 5.8e-4,0.328154 -2.81132,2.913885 -8.35677,7.684604 -6.11527,5.260945 -8.01774,7.181461 -8.96741,9.052465 -1.26217,2.486671 -0.32187,4.23549 3.85354,7.16699 4.24623,2.98122 6.00927,4.39046 6.00927,4.80334 0,0.29038 -2.58728,2.88441 -5.02983,5.04293 -2.10941,1.86412 -2.29311,1.99256 -2.61157,1.8259 -0.1884,-0.0986 -1.71922,-0.98897 -3.40182,-1.97859 -3.83173,-2.25365 -6.36142,-3.51985 -8.38506,-4.197 -2.43701,-0.81547 -2.69204,-0.76843 -5.3003,0.97777 -4.15133,2.77927 -10.7975,8.1536 -16.29162,13.17398 -4.07613,3.72465 -5.79444,6.23014 -5.46759,7.97237 0.35688,1.90235 2.08058,3.39901 8.38933,7.28432 0.91963,0.56637 1.67512,1.0798 1.67887,1.14095 0.004,0.0611 -1.08447,1.20652 -2.41823,2.54525 -2.10135,2.10919 -2.57763,2.51015 -3.56829,3.00399 -2.2894,1.14126 -3.9219,0.73646 -8.61509,-2.13627 -4.04743,-2.47745 -5.27539,-3.00184 -7.02936,-3.00184 -2.48379,0 -4.31306,1.18819 -12.17681,7.90934 -10.02376,8.56731 -12.89791,11.65233 -13.15231,14.1173 -0.0684,0.66303 -0.0158,0.92999 0.31796,1.61213 0.55636,1.13716 1.49109,1.93473 5.0272,4.28954 1.67876,1.11793 3.38643,2.33818 3.79483,2.71167 l 0.74256,0.67907 -1.56695,1.54634 c -1.25429,1.23779 -3.48868,3.22003 -6.12617,5.43482 -0.19733,0.16571 -0.76983,-0.12533 -3.88005,-1.97245 -5.20187,-3.08931 -9.21507,-4.98913 -10.53835,-4.98876 -1.58797,4.4e-4 -7.17837,4.06044 -15.49543,11.2535 -7.23231,6.25489 -9.47776,8.9107 -9.47447,11.20591 0.003,2.09788 1.16571,3.15049 8.32452,7.53632 l 2.13288,1.3067 -0.93901,0.81423 c -0.51647,0.44782 -7.18442,6.1063 -14.81767,12.5744 -7.63326,6.46809 -13.98594,11.85275 -14.11708,11.9659 -0.21048,0.1816 -0.41166,0.009 -1.71618,-1.46899 z m 59.30728,-67.4997 c 0.59017,-0.49659 2.18691,-2.59109 2.06684,-2.71116 -0.12006,-0.12006 -2.21456,1.47668 -2.71116,2.06685 -0.45187,0.53703 -0.49246,1.0173 -0.086,1.0173 0.15786,0 0.48649,-0.16785 0.73029,-0.37299 z"
     id="path70" /><path
     style="fill:#ffffff;stroke:none;stroke-width:3.99944;stroke-linecap:round;stroke-dasharray:none"
     d="m 418.51024,69.071233 c -0.79126,-0.380121 -1.85238,-2.888231 -1.85238,-4.378359 0,-1.892332 1.15996,-3.348539 4.92351,-6.180939 2.69099,-2.025206 3.86088,-2.477944 4.78073,-1.850109 1.57623,1.075842 2.83132,2.553483 2.83132,3.333375 0,0.893208 -1.17919,2.169981 -5.22607,5.658559 -3.52874,3.041925 -4.70522,3.778683 -5.45711,3.417473 z"
     id="path71" /><path
     style="fill:#ffffff;stroke:none;stroke-width:3.99944;stroke-linecap:round;stroke-dasharray:none"
     d="m 442.92283,95.898381 c -1.37499,-0.526204 -4.32775,-2.665167 -4.32775,-3.134998 0,-0.580363 8.15339,-7.80702 9.69619,-8.594097 1.01653,-0.518594 1.44755,-0.419194 2.35823,0.543833 2.24426,2.373267 2.11918,4.125802 -0.47774,6.693647 -1.4866,1.469963 -4.11656,3.688758 -4.95423,4.179693 -0.77508,0.454256 -1.62197,0.569374 -2.2947,0.311922 z"
     id="path72" /><path
     style="fill:#ffffff;stroke:none;stroke-width:3.99944;stroke-linecap:round;stroke-dasharray:none"
     d="m 447.56262,65.212634 c -1.73111,-1.97082 -3.14746,-3.61209 -3.14746,-3.647268 0,-0.246713 6.43486,-5.298268 7.04965,-5.534187 0.34257,-0.131456 1.77983,1.401537 3.98535,4.250807 l 1.78427,2.30506 -3.07159,2.992703 c -1.68937,1.645987 -3.15735,3.042989 -3.26217,3.104448 -0.12932,0.07582 -1.20236,-1.040133 -3.33805,-3.471563 z"
     id="path73" /><path
     style="fill:#ffffff;stroke:none;stroke-width:3.99944;stroke-linecap:round;stroke-dasharray:none"
     d="m 471.92313,62.537359 c -2.60587,-1.588933 -16.222,-17.176965 -17.90478,-20.497767 l -0.36683,-0.723915 0.33677,-0.695681 c 0.39769,-0.821527 2.34948,-2.900214 3.62692,-3.862745 1.25788,-0.947787 2.62837,-1.605685 3.09886,-1.487598 1.15894,0.290875 14.85023,15.658709 17.4958,19.638216 0.89674,1.348885 1.01544,2.02389 0.49438,2.811269 -1.06364,1.607265 -3.88096,4.135592 -5.35198,4.802993 -0.81392,0.369271 -0.84791,0.369633 -1.42914,0.01523 z"
     id="path74" /><path
     style="fill:#ffffff;stroke:none;stroke-width:3.99944;stroke-linecap:round;stroke-dasharray:none"
     d="m 480.6041,40.90174 c -1.08651,-0.630407 -2.32314,-1.796791 -3.35044,-3.160117 -1.1934,-1.583761 -1.2248,-1.746778 -0.53071,-2.754579 0.94501,-1.372102 4.84571,-5.013511 10.22238,-9.542859 2.82554,-2.380262 5.28467,-4.444985 5.46472,-4.588272 0.32444,-0.258194 0.33987,-0.245522 1.72556,1.417711 2.03143,2.438293 2.27549,2.769635 2.94534,3.998586 0.7111,1.304638 0.75154,1.767523 0.21578,2.469944 -1.1334,1.485955 -9.97709,9.012036 -13.70968,11.667085 -1.51733,1.079304 -1.87096,1.137689 -2.98295,0.492501 z"
     id="path75" /></svg>
