<?xml version="1.0" encoding="UTF-8" standalone="no"?>
<!-- Created with Inkscape (http://www.inkscape.org/) -->

<svg
   width="512"
   height="512"
   viewBox="0 0 512 512"
   version="1.1"
   id="svg1"
   xml:space="preserve"
   xmlns="http://www.w3.org/2000/svg"
   xmlns:svg="http://www.w3.org/2000/svg"><defs
     id="defs1" /><g
     id="g207"
     transform="translate(-16.883761,31.234954)"><path
       style="fill:#d0d0d0;fill-opacity:1"
       d="m 55.68178,427.33718 c -2.429029,-2.475 -4.191416,-4.5 -3.916416,-4.5 0.275,0 2.487387,2.025 4.916416,4.5 2.429029,2.475 4.191416,4.5 3.916416,4.5 -0.275,0 -2.487387,-2.025 -4.916416,-4.5 z m -20.075686,-20.25 -2.424314,-2.75 2.75,2.42432 c 2.570289,2.26588 3.208588,3.07568 2.424314,3.07568 -0.179127,0 -1.416627,-1.2375 -2.75,-2.75 z m 252.075686,-165.75 c -2.42903,-2.475 -4.19142,-4.5 -3.91642,-4.5 0.275,0 2.48739,2.025 4.91642,4.5 2.42903,2.475 4.19142,4.5 3.91642,4.5 -0.275,0 -2.48739,-2.025 -4.91642,-4.5 z m 35.5,-147.499999 c 11.54018,-11.55 21.20714,-21 21.48214,-21 0.275,0 -8.94196,9.45 -20.48214,21 -11.54018,11.549999 -21.20714,20.999999 -21.48214,20.999999 -0.275,0 8.94196,-9.45 20.48214,-20.999999 z"
       id="path214" /><path
       style="fill:#b9b9b9;fill-opacity:1"
       d="m 189.18178,329.83718 c 41.79729,-41.8 76.22007,-76 76.49507,-76 0.275,0 -33.69778,34.2 -75.49507,76 -41.79729,41.8 -76.22007,76 -76.49507,76 -0.275,0 33.69778,-34.2 75.49507,-76 z m 78.5,-78.27503 c 0,-0.15126 3.4875,-3.63876 7.75,-7.75 l 7.75,-7.47497 -7.47497,7.75 c -6.94259,7.19803 -8.02503,8.20628 -8.02503,7.47497 z m 44.5,-17.72497 c 6.5828,-6.6 12.19374,-12 12.46874,-12 0.275,0 -4.88594,5.4 -11.46874,12 -6.58281,6.6 -12.19374,12 -12.46874,12 -0.275,0 4.88593,-5.4 11.46874,-12 z m 134,7 c 0.99549,-1.1 2.03497,-2 2.30997,-2 0.275,0 -0.31448,0.9 -1.30997,2 -0.99549,1.1 -2.03498,2 -2.30998,2 -0.275,0 0.31449,-0.9 1.30998,-2 z m -203.01042,-19.25 -17.98958,-18.25 18.25,17.98958 c 16.95584,16.71389 18.70182,18.51042 17.98958,18.51042 -0.14323,0 -8.35573,-8.2125 -18.25,-18.25 z m 209.01042,13.25 c 0.99549,-1.1 2.03497,-2 2.30997,-2 0.275,0 -0.31448,0.9 -1.30997,2 -0.99549,1.1 -2.03498,2 -2.30998,2 -0.275,0 0.31449,-0.9 1.30998,-2 z m -202.5,-83.5 c 9.0625,-9.075 16.70227,-16.5 16.97727,-16.5 0.275,0 -6.91477,7.425 -15.97727,16.5 -9.0625,9.075 -16.70227,16.5 -16.97727,16.5 -0.275,0 6.91477,-7.425 15.97727,-16.5 z"
       id="path213" /><path
       style="fill:#a3a3a3;fill-opacity:1"
       d="m 84.639988,434.58718 c 4.143965,-4.41519 5.041792,-5.20909 5.041792,-4.45821 0,0.16049 -2.1375,2.29799 -4.75,4.75 l -4.75,4.45821 z m 13.541792,-13.75 c 3.8205,-3.85 7.17136,-7 7.44636,-7 0.275,0 -2.62586,3.15 -6.44636,7 -3.820499,3.85 -7.171361,7 -7.446361,7 -0.275,0 2.625862,-3.15 6.446361,-7 z m -68,-40 c 2.708649,-2.75 5.149816,-5 5.424816,-5 0.275,0 -1.716167,2.25 -4.424816,5 -2.708649,2.75 -5.149816,5 -5.424816,5 -0.275,0 1.716167,-2.25 4.424816,-5 z m 15,-15 c 4.374194,-4.4 8.178079,-8 8.453079,-8 0.275,0 -3.078885,3.6 -7.453079,8 -4.374194,4.4 -8.17808,8 -8.45308,8 -0.275,0 3.078886,-3.6 7.45308,-8 z m 151.7482,-134.49827 19.74821,-19.99181 9.25179,9.48796 9.2518,9.48796 -9.25563,-8.97768 -9.25563,-8.97767 -19.74437,19.48153 -19.74437,19.48152 z m 44.72291,5.74827 -6.47111,-6.75 6.75,6.47111 c 6.26969,6.01065 7.20713,7.02889 6.47111,7.02889 -0.15339,0 -3.19089,-3.0375 -6.75,-6.75 z m -10.47111,-40.25 c 3.26557,-3.3 6.16239,-6 6.43739,-6 0.275,0 -2.17182,2.7 -5.43739,6 -3.26557,3.3 -6.16239,6 -6.43739,6 -0.275,0 2.17182,-2.7 5.43739,-6 z"
       id="path212" /><path
       style="fill:#8c8c8c;fill-opacity:1"
       d="m 75.18178,426.83718 c 0.995486,-1.1 2.034975,-2 2.309975,-2 0.275,0 -0.314489,0.9 -1.309975,2 -0.995486,1.1 -2.034975,2 -2.309975,2 -0.275,0 0.314489,-0.9 1.309975,-2 z m -37.5,-36.5 c 1.291745,-1.375 2.573628,-2.5 2.848628,-2.5 0.275,0 -0.556883,1.125 -1.848628,2.5 -1.291746,1.375 -2.573628,2.5 -2.848628,2.5 -0.275,0 0.556882,-1.125 1.848628,-2.5 z m 17,-17 c 2.987424,-3.025 5.65668,-5.5 5.93168,-5.5 0.275,0 -1.944256,2.475 -4.93168,5.5 -2.987424,3.025 -5.65668,5.5 -5.93168,5.5 -0.275,0 1.944256,-2.475 4.93168,-5.5 z m 195.92431,-127.25 -2.42431,-2.75 2.75,2.42432 c 2.57029,2.26588 3.20859,3.07568 2.42431,3.07568 -0.17912,0 -1.41662,-1.2375 -2.75,-2.75 z m -61.92431,-23.75 c 11.81541,-11.825 21.70756,-21.5 21.98256,-21.5 0.275,0 -9.16715,9.675 -20.98256,21.5 -11.81541,11.825 -21.70756,21.5 -21.98256,21.5 -0.275,0 9.16715,-9.675 20.98256,-21.5 z m 25,-24.77503 c 0,-0.15126 3.4875,-3.63876 7.75,-7.75 l 7.75,-7.47497 -7.47497,7.75 c -6.94259,7.19803 -8.02503,8.20628 -8.02503,7.47497 z"
       id="path211" /><path
       style="fill:#767676;fill-opacity:1"
       d="m 144.18178,357.83718 c 31.89644,-31.9 58.21853,-58 58.49353,-58 0.275,0 -25.59709,26.1 -57.49353,58 -31.89644,31.9 -58.218535,58 -58.493535,58 -0.275,0 25.597095,-26.1 57.493535,-58 z m 294.5,-126.31291 c 0,-0.1721 1.4625,-1.6346 3.25,-3.25 l 3.25,-2.93709 -2.93709,3.25 c -2.73778,3.02946 -3.56291,3.70965 -3.56291,2.93709 z M 237.69487,146.33718 c 10.1678,-10.45 18.69241,-18.8695 18.94358,-18.71 0.25116,0.1595 -8.06795,8.7095 -18.48692,19 l -18.94358,18.71 z m 38.85935,-3.25 c -1.24387,-1.58605 -1.2085,-1.62142 0.37756,-0.37755 1.66575,1.30637 2.19548,2.12755 1.37244,2.12755 -0.20765,0 -0.99515,-0.7875 -1.75,-1.75 z"
       id="path210" /><path
       style="fill:#606060;fill-opacity:1"
       d="m 47.606094,436.08718 -2.424314,-2.75 2.75,2.42432 c 2.570289,2.26588 3.208588,3.07568 2.424314,3.07568 -0.179127,0 -1.416627,-1.2375 -2.75,-2.75 z m -14.944065,-15 -9.480249,-9.75 9.75,9.48025 c 9.055697,8.80516 10.204893,10.01975 9.480249,10.01975 -0.148362,0 -4.535862,-4.3875 -9.75,-9.75 z m 195.019751,-146.75 c 14.01691,-14.025 25.71029,-25.5 25.98529,-25.5 0.275,0 -10.96838,11.475 -24.98529,25.5 -14.01691,14.025 -25.71029,25.5 -25.98529,25.5 -0.275,0 10.96838,-11.475 24.98529,-25.5 z m 40.5,-40.5 c 3.26557,-3.3 6.16239,-6 6.43739,-6 0.275,0 -2.17182,2.7 -5.43739,6 -3.26557,3.3 -6.16239,6 -6.43739,6 -0.275,0 2.17182,-2.7 5.43739,-6 z m 168,0 c 0.99549,-1.1 2.03497,-2 2.30997,-2 0.275,0 -0.31448,0.9 -1.30997,2 -0.99549,1.1 -2.03498,2 -2.30998,2 -0.275,0 0.31449,-0.9 1.30998,-2 z m -128.5,-12.5 c 6.30706,-6.325 11.69238,-11.5 11.96738,-11.5 0.275,0 -4.66032,5.175 -10.96738,11.5 -6.30706,6.325 -11.69238,11.5 -11.96738,11.5 -0.275,0 4.66032,-5.175 10.96738,-11.5 z m 15,-110 c 16.76824,-16.774999 30.7127,-30.499999 30.9877,-30.499999 0.275,0 -13.21946,13.725 -29.9877,30.499999 -16.76824,16.775 -30.7127,30.5 -30.9877,30.5 -0.275,0 13.21946,-13.725 29.9877,-30.5 z"
       id="path209" /><path
       style="fill:#494949;fill-opacity:1"
       d="m 43.554225,432.08718 c -1.243871,-1.58605 -1.208501,-1.62142 0.377555,-0.37755 0.9625,0.75484 1.75,1.54234 1.75,1.75 0,0.82303 -0.821186,0.2933 -2.127555,-1.37245 z m 192.999995,-259 c -1.24387,-1.58605 -1.2085,-1.62142 0.37756,-0.37755 0.9625,0.75484 1.75,1.54234 1.75,1.75 0,0.82303 -0.82119,0.2933 -2.12756,-1.37245 z m 116,-109.999999 c -1.24387,-1.586056 -1.2085,-1.621426 0.37756,-0.377555 1.66575,1.30637 2.19548,2.127555 1.37244,2.127555 -0.20765,0 -0.99515,-0.7875 -1.75,-1.75 z"
       id="path208" /><path
       style="fill:#333333;fill-opacity:1"
       d="M 59.247313,444.39294 C 56.461829,443.36857 50.544643,438.18465 38.98505,426.6416 21.26934,408.95126 18.819114,405.24912 20.145884,398.17683 c 1.265265,-6.74444 4.197738,-10.64389 19.294197,-25.65638 16.80017,-16.70673 15.722406,-16.14898 33.381661,-17.27534 l 10.639963,-0.67866 40.077165,-40.11463 40.07716,-40.11464 1.01116,-12.62778 c 0.55614,-6.94528 1.43565,-13.69528 1.95446,-15 0.51882,-1.30472 14.91006,-16.30097 31.98053,-33.32499 l 31.03721,-30.95278 -5.4588,-5.72299 c -3.41801,-3.58341 -5.45881,-6.5956 -5.45881,-8.05709 0,-1.69761 5.18124,-7.50996 19,-21.31437 10.45,-10.43914 19,-19.26994 19,-19.62399 0,-0.35405 -2.5875,-1.62364 -5.75,-2.82131 -9.98181,-3.78023 -10.72069,-4.31292 -11.07441,-7.98402 -0.31102,-3.22809 1.42095,-5.1168 42,-45.800805 23.27843,-23.338629 43.39765,-42.858928 44.70939,-43.378441 3.31185,-1.311656 6.62202,1.054279 8.14715,5.823147 10.70185,33.463279 56.45077,66.879079 120.85459,88.274259 24.43003,8.11574 52.07141,13.93822 66.42902,13.99284 6.33057,0.0241 8.45865,1.29881 9.25501,5.54379 0.79778,4.25252 -1.74751,20.00124 -4.63112,28.65452 -8.59508,25.79258 -30.70805,58.55506 -57.93963,85.8431 -38.53649,38.61639 -80.41227,62.60205 -110.5472,63.31937 -9.02366,0.21479 -9.94468,-0.9862 -10.7444,-14.01053 -1.29974,-21.16759 -9.06571,-51.90701 -20.65239,-81.7467 l -1.1318,-2.91477 -13.29503,13.16477 c -9.10525,9.01604 -14.00135,13.16477 -15.53634,13.16477 -1.34899,0 -4.51891,-2.17246 -7.96215,-5.45675 l -5.72084,-5.45676 -102.45492,102.52324 C 124.07047,395.05086 76.543288,441.82428 74.523546,442.87717 c -5.140654,2.67981 -10.629895,3.22447 -15.276233,1.51577 z m 14.08772,-14.99555 4.846747,-4.43979 -18.786071,-18.81021 -18.786071,-18.81021 -4.463929,4.69179 c -7.478337,7.86007 -7.201006,8.5434 10.773971,26.54648 17.907105,17.93511 18.420551,18.14546 26.415353,10.82194 z m 97.346207,-97.05966 83.49496,-83.49946 -18.74733,-18.74734 -18.74734,-18.74733 -19.91833,19.99679 -19.91833,19.99679 -1.0866,13.45354 c -0.94016,11.64043 -1.41858,13.9326 -3.54998,17.00821 -1.35487,1.95507 -20.3651,21.37494 -42.24495,43.15526 -32.190487,32.04405 -40.412459,39.72032 -43.087829,40.22804 -1.818448,0.3451 -8.568448,1.12359 -15,1.72997 l -11.693731,1.10251 -5.489497,5.4116 -5.489497,5.4116 18.47936,18.49964 c 10.163648,10.1748 18.709932,18.49963 18.991742,18.49963 0.281811,0 38.085122,-37.57475 84.007352,-83.49945 z M 371.18178,305.9023 c 54.50654,-13.08752 133.48886,-92.0129 146.53554,-146.4299 3.00135,-12.51847 2.97037,-12.63522 -3.35292,-12.63522 h -5.31738 l -1.78777,5.75 c -2.36499,7.60648 -9.20731,21.76372 -15.49632,32.06295 -29.07126,47.60872 -83.07497,95.0282 -125.14305,109.88539 l -7.9329,2.80166 -0.003,4.58333 c -0.004,6.86554 0.20716,6.93278 12.4974,3.98179 z m -6.77283,-22.61213 c 48.89467,-18.38747 112.39501,-82.05427 130.92776,-131.27098 2.44824,-6.50169 2.37769,-8.18201 -0.34354,-8.18201 -7.16477,0 -43.5449,-10.54101 -62.75784,-18.18385 -27.37976,-10.89158 -55.70774,-26.854717 -72.69233,-40.96295 -2.55133,-2.119259 -5.0291,-3.853199 -5.50615,-3.853199 -0.47705,0 -14.54507,13.683219 -31.26226,30.407149 l -30.39489,30.40716 1.90104,2.43539 c 14.55932,18.6517 23.56379,32.95555 32.89231,52.2503 11.16341,23.08998 22.27823,54.89215 26.91141,77 0.92211,4.4 1.89231,9.0125 2.156,10.25 0.26368,1.2375 0.68558,2.25 0.93754,2.25 0.25197,0 3.5059,-1.14615 7.23095,-2.54701 z m -95.21326,-49.46705 5.95131,-6.01406 -18.71978,-18.71977 -18.71977,-18.71977 -6.52238,6.4644 -6.52238,6.4644 18.24941,18.26943 c 10.03717,10.04819 18.71805,18.26943 19.29085,18.26943 0.57279,0 3.71952,-2.70633 6.99274,-6.01406 z m 39.76111,-12.76037 11.74376,-11.77444 -6.3403,-12.47556 c -7.47338,-14.70511 -14.72369,-26.49554 -22.94468,-37.31258 -6.60416,-8.68965 -22.185,-24.66299 -24.05697,-24.66299 -0.65939,0 -8.7525,7.56342 -17.98469,16.80761 l -16.78579,16.8076 31.79683,32.01684 c 17.48825,17.60925 32.02885,32.09583 32.31245,32.19239 0.2836,0.0966 5.80032,-5.12293 12.25939,-11.59887 z M 344.40773,70.715408 c -0.67427,-0.92507 -2.92624,-3.700562 -5.00437,-6.167761 -2.07813,-2.4672 -5.94732,-8.094535 -8.59821,-12.505191 l -4.81978,-8.019373 -35.14081,35.157049 -35.14082,35.157048 7.39429,3.79934 c 4.06687,2.08963 10.47442,6.42685 14.23902,9.63826 l 6.84473,5.83892 30.72595,-30.60817 c 26.77897,-26.676319 30.56847,-30.824237 29.5,-32.290122 z"
       id="path207" /></g><path
     style="fill:#ffffff;stroke:none;stroke-width:22.6242;stroke-linecap:round;stroke-dasharray:none"
     d="m 36.442927,455.08044 c -10.187045,-9.43691 -18.480312,-18.35591 -20.344584,-21.8796 -1.537758,-2.90654 -0.607578,-5.15027 3.97289,-9.58318 l 4.095473,-3.96354 17.937545,17.95211 17.937546,17.95211 -4.105139,4.37252 c -6.286971,6.69646 -7.301482,6.44403 -19.493731,-4.85042 z"
     id="path215" /><path
     style="fill:#ffffff;stroke:none;stroke-width:22.6242;stroke-linecap:round;stroke-dasharray:none"
     d="m 51.420198,428.35006 -17.923874,-17.93842 5.411772,-5.42576 5.411772,-5.42575 13.392538,-1.37334 c 13.337976,-1.36775 13.408482,-1.38603 17.305853,-4.48911 2.152323,-1.71367 21.444027,-20.62308 42.870451,-42.0209 l 38.95713,-38.90514 0.90457,-4.64303 c 0.49751,-2.55367 1.30677,-9.20165 1.79835,-14.77329 l 0.89378,-10.13026 17.49349,-17.57308 c 9.62141,-9.66519 18.56545,-18.35286 19.87562,-19.30593 l 2.38215,-1.73284 8.61701,8.47959 c 4.73936,4.66378 12.70446,12.62751 17.70021,17.69716 l 9.08319,9.21756 -83.12507,83.14049 -83.125069,83.14048 z"
     id="path216" /><path
     style="fill:#ffffff;stroke:none;stroke-width:22.6242;stroke-linecap:round;stroke-dasharray:none"
     d="m 227.08656,252.47672 -18.15004,-17.61272 6.14944,-6.17382 6.14944,-6.17381 17.96449,17.9499 17.96448,17.94991 -5.75826,5.86199 c -3.16705,3.22409 -5.8508,5.85057 -5.96389,5.83663 -0.11309,-0.014 -8.37314,-7.95108 -18.35566,-17.63808 z"
     id="path217" /><path
     style="fill:#ffffff;stroke:none;stroke-width:22.6242;stroke-linecap:round;stroke-dasharray:none"
     d="m 247.63655,231.16362 c -17.54484,-17.56439 -31.51339,-31.93526 -31.04122,-31.93526 0.47216,0 8.05931,-7.21347 16.86034,-16.02993 8.80103,-8.81646 16.51367,-16.03426 17.13919,-16.03957 1.58475,-0.0134 11.76952,9.94763 19.18484,18.76345 10.11076,12.02034 16.2703,21.61408 26.57542,41.3923 l 6.49664,12.46876 -11.65775,11.65776 -11.65776,11.65776 z"
     id="path218" /><path
     style="fill:#ffffff;stroke:none;stroke-width:22.6242;stroke-linecap:round;stroke-dasharray:none"
     d="m 261.98314,159.71016 c -6.71701,-5.53714 -9.86748,-7.66875 -16.50426,-11.16679 l -5.66978,-2.98837 34.5486,-34.54089 c 19.00173,-18.997495 34.6902,-34.36765 34.86328,-34.155904 0.17307,0.211746 2.51582,3.803954 5.20611,7.982684 2.69029,4.178731 6.76503,9.959335 9.05498,12.845787 l 4.16355,5.248093 -29.80676,30.41885 c -16.39372,16.73036 -30.059,30.41884 -30.36729,30.41884 -0.30829,0 -2.77809,-1.82803 -5.48843,-4.0623 z"
     id="path219" /><path
     style="fill:#ffffff;stroke:none;stroke-width:22.6242;stroke-linecap:round;stroke-dasharray:none"
     d="m 339.80724,314.67106 c -0.23797,-1.04468 -1.20852,-5.50832 -2.15677,-9.91921 -5.38405,-25.04429 -16.02628,-54.94296 -28.69614,-80.61995 -7.42282,-15.04325 -14.48986,-26.66035 -24.25466,-39.87089 -3.59685,-4.86609 -6.86234,-9.28959 -7.25664,-9.83001 -0.47889,-0.65636 9.36595,-11.08879 29.65368,-31.42355 l 30.37058,-30.44097 7.0685,5.46895 c 23.30378,18.03033 55.20875,34.46041 88.11054,45.37424 16.72038,5.54631 35.89936,10.82676 42.93519,11.82111 4.09839,0.57922 4.10207,0.58267 3.64353,3.40831 -0.25244,1.55567 -2.06908,6.49973 -4.03695,10.98679 -18.72881,42.70466 -70.94433,96.46945 -115.43812,118.86322 -4.93659,2.48459 -18.3,8.08139 -19.29584,8.08139 -0.11783,0 -0.40893,-0.85474 -0.6469,-1.89943 z"
     id="path220" /><path
     style="fill:#ffffff;stroke:none;stroke-width:22.6242;stroke-linecap:round;stroke-dasharray:none"
     d="m 342.72119,336.79525 c -0.5075,-0.94826 -0.80578,-3.09763 -0.66285,-4.77639 0.25665,-3.0143 0.35215,-3.08638 7.67666,-5.79416 21.66484,-8.0092 43.94191,-22.09017 68.1257,-43.0611 15.94999,-13.83101 24.81219,-23.16348 39.62234,-41.72491 14.40374,-18.05207 28.5541,-42.50223 33.18452,-57.33892 l 1.91612,-6.1396 4.431,0.36216 c 2.43707,0.1992 4.69523,0.62638 5.01816,0.94931 0.84559,0.84559 -1.09562,9.83266 -4.10349,18.99765 -15.6948,47.82212 -79.54217,113.54509 -129.95922,133.77693 -7.12979,2.86112 -19.86803,6.47315 -22.82828,6.47315 -0.82387,0 -1.91317,-0.77585 -2.42066,-1.72412 z"
     id="path221" /></svg>
