<?xml version="1.0" encoding="UTF-8" standalone="no"?>
<!-- Created with Inkscape (http://www.inkscape.org/) -->

<svg
   width="512"
   height="512"
   viewBox="0 0 512 512"
   version="1.1"
   id="svg1"
   xml:space="preserve"
   xmlns="http://www.w3.org/2000/svg"
   xmlns:svg="http://www.w3.org/2000/svg"><defs
     id="defs1" /><g
     id="g229"
     transform="translate(4.2209387,2.5325687)"><path
       style="fill:#d0d0d0;fill-opacity:1"
       d="m 473.98207,326.03607 -1.90499,-2.25 2.25,1.90499 c 2.11445,1.79021 2.70524,2.59501 1.90499,2.59501 -0.18976,0 -1.20226,-1.0125 -2.25,-2.25 z m 0,-32 -1.90499,-2.25 2.25,1.90499 c 2.11445,1.79021 2.70524,2.59501 1.90499,2.59501 -0.18976,0 -1.20226,-1.0125 -2.25,-2.25 z m -235,-16 -1.90499,-2.25 2.25,1.90499 c 2.11445,1.79021 2.70524,2.59501 1.90499,2.59501 -0.18976,0 -1.20226,-1.0125 -2.25,-2.25 z m 16.51933,-6.5 -2.42432,-2.75 2.75,2.42431 c 2.57029,2.26589 3.20859,3.07569 2.42432,3.07569 -0.17913,0 -1.41663,-1.2375 -2.75,-2.75 z m -43.05187,-21 c -1.24387,-1.58606 -1.2085,-1.62143 0.37755,-0.37756 0.9625,0.75485 1.75,1.54235 1.75,1.75 0,0.82304 -0.82118,0.29331 -2.12755,-1.37244 z m 61.53254,-7.5 -1.90499,-2.25 2.25,1.90499 c 1.2375,1.04774 2.25,2.06024 2.25,2.25 0,0.80025 -0.80479,0.20945 -2.59501,-1.90499 z m -46.53254,-0.5 c -1.24387,-1.58606 -1.2085,-1.62143 0.37755,-0.37756 0.9625,0.75485 1.75,1.54235 1.75,1.75 0,0.82304 -0.82118,0.29331 -2.12755,-1.37244 z m -42,-20 c -1.24387,-1.58606 -1.2085,-1.62143 0.37755,-0.37756 0.9625,0.75485 1.75,1.54235 1.75,1.75 0,0.82304 -0.82118,0.29331 -2.12755,-1.37244 z m 60.53254,-6.5 -1.90499,-2.25 2.25,1.90499 c 2.11445,1.79021 2.70524,2.59501 1.90499,2.59501 -0.18976,0 -1.20226,-1.0125 -2.25,-2.25 z m -87.53254,-21.5 c -1.24387,-1.58606 -1.2085,-1.62143 0.37755,-0.37756 0.9625,0.75485 1.75,1.54235 1.75,1.75 0,0.82304 -0.82118,0.29331 -2.12755,-1.37244 z m 59.53254,-5.5 -1.90499,-2.25 2.25,1.90499 c 2.11445,1.79021 2.70524,2.59501 1.90499,2.59501 -0.18976,0 -1.20226,-1.0125 -2.25,-2.25 z m -44.53254,-2.5 c -1.24387,-1.58606 -1.2085,-1.62143 0.37755,-0.37756 1.66575,1.30637 2.19548,2.12756 1.37245,2.12756 -0.20766,0 -0.99516,-0.7875 -1.75,-1.75 z m 8,-10 c -1.24387,-1.58606 -1.2085,-1.62143 0.37755,-0.37756 0.9625,0.75485 1.75,1.54235 1.75,1.75 0,0.82304 -0.82118,0.29331 -2.12755,-1.37244 z m -50,-10 c -1.24387,-1.58606 -1.2085,-1.62143 0.37755,-0.37756 0.9625,0.75485 1.75,1.54235 1.75,1.75 0,0.82304 -0.82118,0.29331 -2.12755,-1.37244 z m 58.53254,-4.5 -1.90499,-2.25 2.25,1.90499 c 2.11445,1.79021 2.70524,2.59501 1.90499,2.59501 -0.18976,0 -1.20226,-1.0125 -2.25,-2.25 z m -43.53254,-3.5 c -1.24387,-1.58606 -1.2085,-1.62143 0.37755,-0.37756 0.9625,0.75485 1.75,1.54235 1.75,1.75 0,0.82304 -0.82118,0.29331 -2.12755,-1.37244 z m 7,-9 c -1.24387,-1.58606 -1.2085,-1.62143 0.37755,-0.37756 1.66575,1.30637 2.19548,2.12756 1.37245,2.12756 -0.20766,0 -0.99516,-0.7875 -1.75,-1.75 z m -49,-11 c -1.24387,-1.58606 -1.2085,-1.62143 0.37755,-0.37756 0.9625,0.75485 1.75,1.54235 1.75,1.75 0,0.82304 -0.82118,0.29331 -2.12755,-1.37244 z m 57.53254,-3.5 -1.90499,-2.25 2.25,1.90499 c 2.11445,1.79021 2.70524,2.59501 1.90499,2.59501 -0.18976,0 -1.20226,-1.0125 -2.25,-2.25 z m -42.53254,-4.5 c -1.24387,-1.58606 -1.2085,-1.62143 0.37755,-0.37756 1.66575,1.30637 2.19548,2.12756 1.37245,2.12756 -0.20766,0 -0.99516,-0.7875 -1.75,-1.75 z m 6,-8 c -1.24387,-1.58606 -1.2085,-1.62143 0.37755,-0.37756 1.66575,1.30637 2.19548,2.12756 1.37245,2.12756 -0.20766,0 -0.99516,-0.7875 -1.75,-1.75 z m -48.000004,-12 c -1.24387,-1.58606 -1.2085,-1.62143 0.377556,-0.37756 0.9625,0.75485 1.75,1.54235 1.75,1.75 0,0.82304 -0.821186,0.29331 -2.127556,-1.37244 z m 56.000004,-3 c -1.24387,-1.58606 -1.2085,-1.62143 0.37755,-0.37756 0.9625,0.75485 1.75,1.54235 1.75,1.75 0,0.82304 -0.82118,0.29331 -2.12755,-1.37244 z m -41.000004,-5 c -1.24387,-1.58606 -1.2085,-1.62143 0.377556,-0.37756 0.9625,0.75485 1.75,1.54235 1.75,1.75 0,0.82304 -0.821186,0.29331 -2.127556,-1.37244 z m 5,-7.000002 c -1.24387,-1.586056 -1.2085,-1.621426 0.377556,-0.377555 0.9625,0.754844 1.75,1.542344 1.75,1.75 0,0.823034 -0.821186,0.293303 -2.127556,-1.372445 z m -47,-13 c -1.24387,-1.586056 -1.2085,-1.621426 0.377556,-0.377555 0.9625,0.754844 1.75,1.542344 1.75,1.75 0,0.823034 -0.821186,0.293303 -2.127556,-1.372445 z m 55.000004,-2 c -1.24387,-1.586056 -1.2085,-1.621426 0.37755,-0.377555 0.9625,0.754844 1.75,1.542344 1.75,1.75 0,0.823034 -0.82118,0.293303 -2.12755,-1.372445 z m -40.000004,-6 c -1.24387,-1.586056 -1.2085,-1.621426 0.377556,-0.377555 1.665748,1.306369 2.195479,2.127555 1.372444,2.127555 -0.207655,0 -0.995155,-0.7875 -1.75,-1.75 z m 4,-6 c -1.24387,-1.586056 -1.2085,-1.621426 0.377556,-0.377555 1.665748,1.306369 2.195479,2.127555 1.372444,2.127555 -0.207655,0 -0.995155,-0.7875 -1.75,-1.75 z m 8.532543,-14.5 -1.904987,-2.25 2.25,1.904988 c 2.114444,1.790218 2.70524,2.595012 1.904987,2.595012 -0.189757,0 -1.202257,-1.0125 -2.25,-2.25 z"
       id="path236" /><path
       style="fill:#b9b9b9;fill-opacity:1"
       d="m 242.44953,281.53607 c -1.24387,-1.58606 -1.2085,-1.62143 0.37755,-0.37756 1.66575,1.30637 2.19548,2.12756 1.37245,2.12756 -0.20766,0 -0.99516,-0.7875 -1.75,-1.75 z m 21,-26 c -1.24387,-1.58606 -1.2085,-1.62143 0.37755,-0.37756 1.66575,1.30637 2.19548,2.12756 1.37245,2.12756 -0.20766,0 -0.99516,-0.7875 -1.75,-1.75 z m -48,-2 c -1.24387,-1.58606 -1.2085,-1.62143 0.37755,-0.37756 0.9625,0.75485 1.75,1.54235 1.75,1.75 0,0.82304 -0.82118,0.29331 -2.12755,-1.37244 z m 20,-25 c -1.24387,-1.58606 -1.2085,-1.62143 0.37755,-0.37756 0.9625,0.75485 1.75,1.54235 1.75,1.75 0,0.82304 -0.82118,0.29331 -2.12755,-1.37244 z m -47,-3 c -1.24387,-1.58606 -1.2085,-1.62143 0.37755,-0.37756 0.9625,0.75485 1.75,1.54235 1.75,1.75 0,0.82304 -0.82118,0.29331 -2.12755,-1.37244 z m -27,-28 c -1.24387,-1.58606 -1.2085,-1.62143 0.37755,-0.37756 0.9625,0.75485 1.75,1.54235 1.75,1.75 0,0.82304 -0.82118,0.29331 -2.12755,-1.37244 z m -27,-28 c -1.24387,-1.58606 -1.2085,-1.62143 0.37755,-0.37756 0.9625,0.75485 1.75,1.54235 1.75,1.75 0,0.82304 -0.82118,0.29331 -2.12755,-1.37244 z m -27,-28 c -1.24387,-1.58606 -1.2085,-1.62143 0.37755,-0.37756 0.9625,0.75485 1.75,1.54235 1.75,1.75 0,0.82304 -0.82118,0.29331 -2.12755,-1.37244 z m -27.000004,-28 c -1.24387,-1.58606 -1.2085,-1.62143 0.377556,-0.37756 0.9625,0.75485 1.75,1.54235 1.75,1.75 0,0.82304 -0.821186,0.29331 -2.127556,-1.37244 z m 56.000004,-3 c -1.24387,-1.58606 -1.2085,-1.62143 0.37755,-0.37756 1.66575,1.30637 2.19548,2.12756 1.37245,2.12756 -0.20766,0 -0.99516,-0.7875 -1.75,-1.75 z M 53.449526,85.536068 c -1.24387,-1.586056 -1.2085,-1.621426 0.377556,-0.377555 1.665748,1.306369 2.195479,2.127555 1.372444,2.127555 -0.207655,0 -0.995155,-0.7875 -1.75,-1.75 z m 55.000004,-2 c -1.24387,-1.586056 -1.2085,-1.621426 0.37755,-0.377555 0.9625,0.754844 1.75,1.542344 1.75,1.75 0,0.823034 -0.82118,0.293303 -2.12755,-1.372445 z m -46.000004,-12 c -1.24387,-1.586056 -1.2085,-1.621426 0.377556,-0.377555 0.9625,0.754844 1.75,1.542344 1.75,1.75 0,0.823034 -0.821186,0.293303 -2.127556,-1.372445 z"
       id="path235" /><path
       style="fill:#a3a3a3;fill-opacity:1"
       d="m 245.44953,284.53607 c -1.24387,-1.58606 -1.2085,-1.62143 0.37755,-0.37756 1.66575,1.30637 2.19548,2.12756 1.37245,2.12756 -0.20766,0 -0.99516,-0.7875 -1.75,-1.75 z m 4,-19 c -1.24387,-1.58606 -1.2085,-1.62143 0.37755,-0.37756 0.9625,0.75485 1.75,1.54235 1.75,1.75 0,0.82304 -0.82118,0.29331 -2.12755,-1.37244 z m -31,-9 c -1.24387,-1.58606 -1.2085,-1.62143 0.37755,-0.37756 0.9625,0.75485 1.75,1.54235 1.75,1.75 0,0.82304 -0.82118,0.29331 -2.12755,-1.37244 z m 61.53254,-7.5 -1.90499,-2.25 2.25,1.90499 c 1.2375,1.04774 2.25,2.06024 2.25,2.25 0,0.80025 -0.80479,0.20945 -2.59501,-1.90499 z m -57.53254,-11.5 c -1.24387,-1.58606 -1.2085,-1.62143 0.37755,-0.37756 0.9625,0.75485 1.75,1.54235 1.75,1.75 0,0.82304 -0.82118,0.29331 -2.12755,-1.37244 z m -31,-9 c -1.24387,-1.58606 -1.2085,-1.62143 0.37755,-0.37756 0.9625,0.75485 1.75,1.54235 1.75,1.75 0,0.82304 -0.82118,0.29331 -2.12755,-1.37244 z m 60,-7 c -1.24387,-1.58606 -1.2085,-1.62143 0.37755,-0.37756 1.66575,1.30637 2.19548,2.12756 1.37245,2.12756 -0.20766,0 -0.99516,-0.7875 -1.75,-1.75 z m -44.87245,-0.62756 c 0,-0.20765 0.7875,-0.99515 1.75,-1.75 1.58606,-1.24387 1.62143,-1.2085 0.37756,0.37756 -1.30637,1.66575 -2.12756,2.19548 -2.12756,1.37244 z m -42.12755,-20.37244 c -1.24387,-1.58606 -1.2085,-1.62143 0.37755,-0.37756 0.9625,0.75485 1.75,1.54235 1.75,1.75 0,0.82304 -0.82118,0.29331 -2.12755,-1.37244 z m 59,-6 c -1.24387,-1.58606 -1.2085,-1.62143 0.37755,-0.37756 0.9625,0.75485 1.75,1.54235 1.75,1.75 0,0.82304 -0.82118,0.29331 -2.12755,-1.37244 z m -86,-22 c -1.24387,-1.58606 -1.2085,-1.62143 0.37755,-0.37756 1.66575,1.30637 2.19548,2.12756 1.37245,2.12756 -0.20766,0 -0.99516,-0.7875 -1.75,-1.75 z m 58,-5 c -1.24387,-1.58606 -1.2085,-1.62143 0.37755,-0.37756 0.9625,0.75485 1.75,1.54235 1.75,1.75 0,0.82304 -0.82118,0.29331 -2.12755,-1.37244 z m -85,-23 c -1.24387,-1.58606 -1.2085,-1.62143 0.37755,-0.37756 0.9625,0.75485 1.75,1.54235 1.75,1.75 0,0.82304 -0.82118,0.29331 -2.12755,-1.37244 z m 57,-4 c -1.24387,-1.58606 -1.2085,-1.62143 0.37755,-0.37756 0.9625,0.75485 1.75,1.54235 1.75,1.75 0,0.82304 -0.82118,0.29331 -2.12755,-1.37244 z m -84.000004,-24 c -1.24387,-1.58606 -1.2085,-1.62143 0.377556,-0.37756 0.9625,0.75485 1.75,1.54235 1.75,1.75 0,0.82304 -0.821186,0.29331 -2.127556,-1.37244 z m 56.000004,-3 c -1.24387,-1.58606 -1.2085,-1.62143 0.37755,-0.37756 1.66575,1.30637 2.19548,2.12756 1.37245,2.12756 -0.20766,0 -0.99516,-0.7875 -1.75,-1.75 z M 56.449526,88.536068 c -1.24387,-1.586056 -1.2085,-1.621426 0.377556,-0.377555 0.9625,0.754844 1.75,1.542344 1.75,1.75 0,0.823034 -0.821186,0.293303 -2.127556,-1.372445 z m 55.000004,-2 c -1.24387,-1.586056 -1.2085,-1.621426 0.37755,-0.377555 0.9625,0.754844 1.75,1.542344 1.75,1.75 0,0.823034 -0.82118,0.293303 -2.12755,-1.372445 z m -28.000004,-27 c -1.24387,-1.586056 -1.2085,-1.621426 0.377556,-0.377555 1.665748,1.306369 2.195479,2.127555 1.372444,2.127555 -0.207655,0 -0.995155,-0.7875 -1.75,-1.75 z"
       id="path234" /><path
       style="fill:#8c8c8c;fill-opacity:1"
       d="m 461.98207,305.03607 -1.90499,-2.25 2.25,1.90499 c 1.2375,1.04774 2.25,2.06024 2.25,2.25 0,0.80025 -0.80479,0.20945 -2.59501,-1.90499 z m -203.53254,-54.5 c -1.24387,-1.58606 -1.2085,-1.62143 0.37755,-0.37756 0.9625,0.75485 1.75,1.54235 1.75,1.75 0,0.82304 -0.82118,0.29331 -2.12755,-1.37244 z m -4,-26 c -1.24387,-1.58606 -1.2085,-1.62143 0.37755,-0.37756 1.66575,1.30637 2.19548,2.12756 1.37245,2.12756 -0.20766,0 -0.99516,-0.7875 -1.75,-1.75 z m -24,-1 c -1.24387,-1.58606 -1.2085,-1.62143 0.37755,-0.37756 0.9625,0.75485 1.75,1.54235 1.75,1.75 0,0.82304 -0.82118,0.29331 -2.12755,-1.37244 z m -4,-26 c -1.24387,-1.58606 -1.2085,-1.62143 0.37755,-0.37756 0.9625,0.75485 1.75,1.54235 1.75,1.75 0,0.82304 -0.82118,0.29331 -2.12755,-1.37244 z m -24,-1 c -1.24387,-1.58606 -1.2085,-1.62143 0.37755,-0.37756 0.9625,0.75485 1.75,1.54235 1.75,1.75 0,0.82304 -0.82118,0.29331 -2.12755,-1.37244 z m -4,-26 c -1.24387,-1.58606 -1.2085,-1.62143 0.37755,-0.37756 0.9625,0.75485 1.75,1.54235 1.75,1.75 0,0.82304 -0.82118,0.29331 -2.12755,-1.37244 z m -28,-27 c -1.24387,-1.58606 -1.2085,-1.62143 0.37755,-0.37756 0.9625,0.75485 1.75,1.54235 1.75,1.75 0,0.82304 -0.82118,0.29331 -2.12755,-1.37244 z m -28,-27 c -1.24387,-1.58606 -1.2085,-1.62143 0.37755,-0.37756 1.66575,1.30637 2.19548,2.12756 1.37245,2.12756 -0.20766,0 -0.99516,-0.7875 -1.75,-1.75 z m -28,-27.000002 c -1.24387,-1.586056 -1.2085,-1.621426 0.37755,-0.377555 0.9625,0.754844 1.75,1.542344 1.75,1.75 0,0.823034 -0.82118,0.293303 -2.12755,-1.372445 z m -24.000004,-1 c -1.24387,-1.586056 -1.2085,-1.621426 0.377556,-0.377555 0.9625,0.754844 1.75,1.542344 1.75,1.75 0,0.823034 -0.821186,0.293303 -2.127556,-1.372445 z m -4,-26 c -1.24387,-1.586056 -1.2085,-1.621426 0.377556,-0.377555 1.665748,1.306369 2.195479,2.127555 1.372444,2.127555 -0.207655,0 -0.995155,-0.7875 -1.75,-1.75 z"
       id="path233" /><path
       style="fill:#767676;fill-opacity:1"
       d="m 223.44953,261.53607 c -1.24387,-1.58606 -1.2085,-1.62143 0.37755,-0.37756 0.9625,0.75485 1.75,1.54235 1.75,1.75 0,0.82304 -0.82118,0.29331 -2.12755,-1.37244 z m -27,-28 c -1.24387,-1.58606 -1.2085,-1.62143 0.37755,-0.37756 0.9625,0.75485 1.75,1.54235 1.75,1.75 0,0.82304 -0.82118,0.29331 -2.12755,-1.37244 z m 22,0 c -1.24387,-1.58606 -1.2085,-1.62143 0.37755,-0.37756 0.9625,0.75485 1.75,1.54235 1.75,1.75 0,0.82304 -0.82118,0.29331 -2.12755,-1.37244 z m -7.87245,-16.62756 c 0,-0.20765 0.7875,-0.99515 1.75,-1.75 1.58606,-1.24387 1.62143,-1.2085 0.37756,0.37756 -1.30637,1.66575 -2.12756,2.19548 -2.12756,1.37244 z m -41.12755,-11.37244 c -1.24387,-1.58606 -1.2085,-1.62143 0.37755,-0.37756 0.9625,0.75485 1.75,1.54235 1.75,1.75 0,0.82304 -0.82118,0.29331 -2.12755,-1.37244 z m 22,0 c -1.24387,-1.58606 -1.2085,-1.62143 0.37755,-0.37756 0.9625,0.75485 1.75,1.54235 1.75,1.75 0,0.82304 -0.82118,0.29331 -2.12755,-1.37244 z m -49,-28 c -1.24387,-1.58606 -1.2085,-1.62143 0.37755,-0.37756 1.66575,1.30637 2.19548,2.12756 1.37245,2.12756 -0.20766,0 -0.99516,-0.7875 -1.75,-1.75 z m 22,0 c -1.24387,-1.58606 -1.2085,-1.62143 0.37755,-0.37756 1.66575,1.30637 2.19548,2.12756 1.37245,2.12756 -0.20766,0 -0.99516,-0.7875 -1.75,-1.75 z m 8,-10 c -1.24387,-1.58606 -1.2085,-1.62143 0.37755,-0.37756 0.9625,0.75485 1.75,1.54235 1.75,1.75 0,0.82304 -0.82118,0.29331 -2.12755,-1.37244 z m -57,-18 c -1.24387,-1.58606 -1.2085,-1.62143 0.37755,-0.37756 1.66575,1.30637 2.19548,2.12756 1.37245,2.12756 -0.20766,0 -0.99516,-0.7875 -1.75,-1.75 z m 22,0 c -1.24387,-1.58606 -1.2085,-1.62143 0.37755,-0.37756 1.66575,1.30637 2.19548,2.12756 1.37245,2.12756 -0.20766,0 -0.99516,-0.7875 -1.75,-1.75 z m 7,-9 c -1.24387,-1.58606 -1.2085,-1.62143 0.37755,-0.37756 0.9625,0.75485 1.75,1.54235 1.75,1.75 0,0.82304 -0.82118,0.29331 -2.12755,-1.37244 z m -56.000004,-19 c -1.24387,-1.58606 -1.2085,-1.62143 0.377556,-0.37756 0.9625,0.75485 1.75,1.54235 1.75,1.75 0,0.82304 -0.821186,0.29331 -2.127556,-1.37244 z m 22.000004,0 c -1.24387,-1.58606 -1.2085,-1.62143 0.37755,-0.37756 0.9625,0.75485 1.75,1.54235 1.75,1.75 0,0.82304 -0.82118,0.29331 -2.12755,-1.37244 z m 6,-8 c -1.24387,-1.58606 -1.2085,-1.62143 0.37755,-0.37756 0.9625,0.75485 1.75,1.54235 1.75,1.75 0,0.82304 -0.82118,0.29331 -2.12755,-1.37244 z M 61.449526,93.536068 c -1.24387,-1.586056 -1.2085,-1.621426 0.377556,-0.377555 0.9625,0.754844 1.75,1.542344 1.75,1.75 0,0.823034 -0.821186,0.293303 -2.127556,-1.372445 z m 22,0 c -1.24387,-1.586056 -1.2085,-1.621426 0.377556,-0.377555 0.9625,0.754844 1.75,1.542344 1.75,1.75 0,0.823034 -0.821186,0.293303 -2.127556,-1.372445 z m 4,-8 c -1.24387,-1.586056 -1.2085,-1.621426 0.377556,-0.377555 0.9625,0.754844 1.75,1.542344 1.75,1.75 0,0.823034 -0.821186,0.293303 -2.127556,-1.372445 z m 2,-20 c -1.24387,-1.586056 -1.2085,-1.621426 0.377556,-0.377555 1.665748,1.306369 2.195479,2.127555 1.372444,2.127555 -0.207655,0 -0.995155,-0.7875 -1.75,-1.75 z"
       id="path232" /><path
       style="fill:#606060;fill-opacity:1"
       d="m 452.57708,448.78607 c 1.29175,-1.375 2.57363,-2.5 2.84863,-2.5 0.275,0 -0.55688,1.125 -1.84863,2.5 -1.29174,1.375 -2.57363,2.5 -2.84863,2.5 -0.275,0 0.55689,-1.125 1.84863,-2.5 z m 4,-3.87756 c 0,-0.20765 0.7875,-0.99515 1.75,-1.75 1.58606,-1.24387 1.62143,-1.2085 0.37756,0.37756 -1.30637,1.66575 -2.12756,2.19548 -2.12756,1.37244 z M 226.44953,264.53607 c -1.24387,-1.58606 -1.2085,-1.62143 0.37755,-0.37756 0.9625,0.75485 1.75,1.54235 1.75,1.75 0,0.82304 -0.82118,0.29331 -2.12755,-1.37244 z m 16,-6 c -1.24387,-1.58606 -1.2085,-1.62143 0.37755,-0.37756 0.9625,0.75485 1.75,1.54235 1.75,1.75 0,0.82304 -0.82118,0.29331 -2.12755,-1.37244 z m 11,-13 c -1.24387,-1.58606 -1.2085,-1.62143 0.37755,-0.37756 0.9625,0.75485 1.75,1.54235 1.75,1.75 0,0.82304 -0.82118,0.29331 -2.12755,-1.37244 z m -54,-9 c -1.24387,-1.58606 -1.2085,-1.62143 0.37755,-0.37756 0.9625,0.75485 1.75,1.54235 1.75,1.75 0,0.82304 -0.82118,0.29331 -2.12755,-1.37244 z m 16,-6 c -1.24387,-1.58606 -1.2085,-1.62143 0.37755,-0.37756 0.9625,0.75485 1.75,1.54235 1.75,1.75 0,0.82304 -0.82118,0.29331 -2.12755,-1.37244 z m 44,-1 c -1.24387,-1.58606 -1.2085,-1.62143 0.37755,-0.37756 0.9625,0.75485 1.75,1.54235 1.75,1.75 0,0.82304 -0.82118,0.29331 -2.12755,-1.37244 z m -34,-11 c -1.24387,-1.58606 -1.2085,-1.62143 0.37755,-0.37756 1.66575,1.30637 2.19548,2.12756 1.37245,2.12756 -0.20766,0 -0.99516,-0.7875 -1.75,-1.75 z m -11.87245,-4.62756 c 0,-0.20765 0.7875,-0.99515 1.75,-1.75 1.58606,-1.24387 1.62143,-1.2085 0.37756,0.37756 -1.30637,1.66575 -2.12756,2.19548 -2.12756,1.37244 z m -41.12755,-5.37244 c -1.24387,-1.58606 -1.2085,-1.62143 0.37755,-0.37756 0.9625,0.75485 1.75,1.54235 1.75,1.75 0,0.82304 -0.82118,0.29331 -2.12755,-1.37244 z m 28.12755,0.37244 c 0,-0.20765 0.7875,-0.99515 1.75,-1.75 1.58606,-1.24387 1.62143,-1.2085 0.37756,0.37756 -1.30637,1.66575 -2.12756,2.19548 -2.12756,1.37244 z m -12.12755,-6.37244 c -1.24387,-1.58606 -1.2085,-1.62143 0.37755,-0.37756 0.9625,0.75485 1.75,1.54235 1.75,1.75 0,0.82304 -0.82118,0.29331 -2.12755,-1.37244 z m 43,0 c -1.24387,-1.58606 -1.2085,-1.62143 0.37755,-0.37756 0.9625,0.75485 1.75,1.54235 1.75,1.75 0,0.82304 -0.82118,0.29331 -2.12755,-1.37244 z m -34,-11 c -1.24387,-1.58606 -1.2085,-1.62143 0.37755,-0.37756 0.9625,0.75485 1.75,1.54235 1.75,1.75 0,0.82304 -0.82118,0.29331 -2.12755,-1.37244 z m -52,-11 c -1.24387,-1.58606 -1.2085,-1.62143 0.37755,-0.37756 1.66575,1.30637 2.19548,2.12756 1.37245,2.12756 -0.20766,0 -0.99516,-0.7875 -1.75,-1.75 z m 58,-5 c -1.24387,-1.58606 -1.2085,-1.62143 0.37755,-0.37756 0.9625,0.75485 1.75,1.54235 1.75,1.75 0,0.82304 -0.82118,0.29331 -2.12755,-1.37244 z m -42,-1 c -1.24387,-1.58606 -1.2085,-1.62143 0.37755,-0.37756 1.66575,1.30637 2.19548,2.12756 1.37245,2.12756 -0.20766,0 -0.99516,-0.7875 -1.75,-1.75 z m 8,-10 c -1.24387,-1.58606 -1.2085,-1.62143 0.37755,-0.37756 0.9625,0.75485 1.75,1.54235 1.75,1.75 0,0.82304 -0.82118,0.29331 -2.12755,-1.37244 z m -51,-12 c -1.24387,-1.58606 -1.2085,-1.62143 0.37755,-0.37756 0.9625,0.75485 1.75,1.54235 1.75,1.75 0,0.82304 -0.82118,0.29331 -2.12755,-1.37244 z m 57,-4 c -1.24387,-1.58606 -1.2085,-1.62143 0.37755,-0.37756 1.66575,1.30637 2.19548,2.12756 1.37245,2.12756 -0.20766,0 -0.99516,-0.7875 -1.75,-1.75 z m -41,-2 c -1.24387,-1.58606 -1.2085,-1.62143 0.37755,-0.37756 0.9625,0.75485 1.75,1.54235 1.75,1.75 0,0.82304 -0.82118,0.29331 -2.12755,-1.37244 z m 7,-9 c -1.24387,-1.58606 -1.2085,-1.62143 0.37755,-0.37756 1.66575,1.30637 2.19548,2.12756 1.37245,2.12756 -0.20766,0 -0.99516,-0.7875 -1.75,-1.75 z m -50.000004,-13 c -1.24387,-1.58606 -1.2085,-1.62143 0.377556,-0.37756 0.9625,0.75485 1.75,1.54235 1.75,1.75 0,0.82304 -0.821186,0.29331 -2.127556,-1.37244 z m 56.000004,-3 c -1.24387,-1.58606 -1.2085,-1.62143 0.37755,-0.37756 0.9625,0.75485 1.75,1.54235 1.75,1.75 0,0.82304 -0.82118,0.29331 -2.12755,-1.37244 z m -34,-11 c -1.24387,-1.58606 -1.2085,-1.62143 0.37755,-0.37756 0.9625,0.75485 1.75,1.54235 1.75,1.75 0,0.82304 -0.82118,0.29331 -2.12755,-1.37244 z M 64.449526,96.536068 c -1.24387,-1.586056 -1.2085,-1.621426 0.377556,-0.377555 0.9625,0.754844 1.75,1.542344 1.75,1.75 0,0.823034 -0.821186,0.293303 -2.127556,-1.372445 z m 55.000004,-2 c -1.24387,-1.586056 -1.2085,-1.621426 0.37755,-0.377555 0.9625,0.754844 1.75,1.542344 1.75,1.75 0,0.823034 -0.82118,0.293303 -2.12755,-1.372445 z m -59.000004,-75 c -1.24387,-1.586056 -1.2085,-1.621426 0.377556,-0.377555 1.665748,1.306369 2.195479,2.127555 1.372444,2.127555 -0.207655,0 -0.995155,-0.7875 -1.75,-1.75 z"
       id="path231" /><path
       style="fill:#494949;fill-opacity:1"
       d="m 432.555,495.53607 -8.47792,-8.75 8.75,8.47792 c 4.8125,4.66286 8.75,8.60036 8.75,8.75 0,0.72761 -1.14803,-0.35118 -9.02208,-8.47792 z m 43.02208,-15.75 c 13.46658,-13.475 24.70969,-24.5 24.98469,-24.5 0.275,0 -10.51811,11.025 -23.98469,24.5 -13.46658,13.475 -24.70969,24.5 -24.98469,24.5 -0.275,0 10.51811,-11.025 23.98469,-24.5 z m -32.03505,4.96269 -2.38367,-2.5373 18.69966,-18.69967 18.69967,-18.69966 2.74327,2.74327 2.74326,2.74327 -18.47343,18.4937 c -10.16039,10.17153 -18.73705,18.4937 -19.05926,18.4937 -0.3222,0 -1.65847,-1.14179 -2.9695,-2.53731 z m 21.52638,-16.45401 17.97049,-17.99131 -2.24309,-2.24309 -2.24308,-2.24308 -18.18632,18.18632 c -18.00012,18.00012 -18.16735,18.20729 -16.33284,20.2344 1.01942,1.12644 2.12593,2.04808 2.45892,2.04808 0.33299,0 8.69215,-8.09609 18.57592,-17.99132 z m -39.50721,7.67276 c 1.25726,-1.66336 -6.25778,-9.47249 -88.05407,-91.5 l -89.42865,-89.68144 89.9811,89.73249 c 87.52809,87.28627 89.92856,89.78067 88.05406,91.5 -1.84804,1.69506 -1.87068,1.69297 -0.55244,-0.051 z m -41.98293,-67.18026 -54.49193,-54.49881 10.74771,-10.74771 10.7477,-10.74771 54.74767,54.99538 54.74766,54.99537 -54.74867,-54.49408 -54.74867,-54.49408 -10.2477,10.2477 -10.24771,10.2477 54.22802,54.22802 54.22802,54.22802 5.26835,-4.98049 5.26836,-4.98049 -4.96241,5.25 c -2.72932,2.8875 -5.20587,5.25 -5.50344,5.25 -0.29756,0 -25.0624,-24.52447 -55.03296,-54.49882 z m -3.00328,-67.25118 -89.49791,-89.75 89.68144,89.42934 c 82.67294,82.44056 89.82356,89.31765 91.5,88 1.66326,-1.30728 1.70136,-1.2799 0.44612,0.32066 -0.75485,0.9625 -1.65579,1.75 -2.0021,1.75 -0.34631,0 -40.90371,-40.3875 -90.12755,-89.75 z m 103.87454,88 c -1.24387,-1.58606 -1.2085,-1.62143 0.37755,-0.37756 1.66575,1.30637 2.19548,2.12756 1.37245,2.12756 -0.20766,0 -0.99516,-0.7875 -1.75,-1.75 z m -192.87308,-112.75063 -26.48648,-26.50063 10.7453,-10.7453 10.74529,-10.74529 26.73815,26.73814 26.73814,26.73815 -10.47202,10.50778 c -5.75961,5.77928 -10.70824,10.50778 -10.99696,10.50778 -0.28872,0 -12.44386,-11.92529 -27.01142,-26.50063 z m 37.50881,15.49242 9.97065,-10.0082 -26.23756,-26.23756 -26.23755,-26.23755 -10.2452,10.2452 -10.24521,10.2452 25.98613,26.00056 c 14.29238,14.30031 26.22283,26.00056 26.51211,26.00056 0.28929,0 5.01277,-4.50369 10.49663,-10.00821 z m -64.50818,-63.49179 c 3.54322,-3.575 6.66723,-6.5 6.94223,-6.5 0.275,0 -2.39901,2.925 -5.94223,6.5 -3.54322,3.575 -6.66722,6.5 -6.94222,6.5 -0.275,0 2.399,-2.925 5.94222,-6.5 z m -35.12755,-1.25 c -1.24387,-1.58606 -1.2085,-1.62143 0.37755,-0.37756 0.9625,0.75485 1.75,1.54235 1.75,1.75 0,0.82304 -0.82118,0.29331 -2.12755,-1.37244 z m 10,-12 c -1.24387,-1.58606 -1.2085,-1.62143 0.37755,-0.37756 0.9625,0.75485 1.75,1.54235 1.75,1.75 0,0.82304 -0.82118,0.29331 -2.12755,-1.37244 z m -37,-16 c -1.24387,-1.58606 -1.2085,-1.62143 0.37755,-0.37756 0.9625,0.75485 1.75,1.54235 1.75,1.75 0,0.82304 -0.82118,0.29331 -2.12755,-1.37244 z m 60,-7 c -1.24387,-1.58606 -1.2085,-1.62143 0.37755,-0.37756 1.66575,1.30637 2.19548,2.12756 1.37245,2.12756 -0.20766,0 -0.99516,-0.7875 -1.75,-1.75 z m -50,-5 c -1.24387,-1.58606 -1.2085,-1.62143 0.37755,-0.37756 0.9625,0.75485 1.75,1.54235 1.75,1.75 0,0.82304 -0.82118,0.29331 -2.12755,-1.37244 z m -37,-16 c -1.24387,-1.58606 -1.2085,-1.62143 0.37755,-0.37756 0.9625,0.75485 1.75,1.54235 1.75,1.75 0,0.82304 -0.82118,0.29331 -2.12755,-1.37244 z m 59,-6 c -1.24387,-1.58606 -1.2085,-1.62143 0.37755,-0.37756 0.9625,0.75485 1.75,1.54235 1.75,1.75 0,0.82304 -0.82118,0.29331 -2.12755,-1.37244 z m -40,-17 c -1.24387,-1.58606 -1.2085,-1.62143 0.37755,-0.37756 0.9625,0.75485 1.75,1.54235 1.75,1.75 0,0.82304 -0.82118,0.29331 -2.12755,-1.37244 z m -46,-5 c -1.24387,-1.58606 -1.2085,-1.62143 0.37755,-0.37756 1.66575,1.30637 2.19548,2.12756 1.37245,2.12756 -0.20766,0 -0.99516,-0.7875 -1.75,-1.75 z m 58,-5 c -1.24387,-1.58606 -1.2085,-1.62143 0.37755,-0.37756 0.9625,0.75485 1.75,1.54235 1.75,1.75 0,0.82304 -0.82118,0.29331 -2.12755,-1.37244 z m -85,-23 c -1.24387,-1.58606 -1.2085,-1.62143 0.37755,-0.37756 0.9625,0.75485 1.75,1.54235 1.75,1.75 0,0.82304 -0.82118,0.29331 -2.12755,-1.37244 z m 57,-4 c -1.24387,-1.58606 -1.2085,-1.62143 0.37755,-0.37756 0.9625,0.75485 1.75,1.54235 1.75,1.75 0,0.82304 -0.82118,0.29331 -2.12755,-1.37244 z m -84.000004,-24 c -1.24387,-1.58606 -1.2085,-1.62143 0.377556,-0.37756 0.9625,0.75485 1.75,1.54235 1.75,1.75 0,0.82304 -0.821186,0.29331 -2.127556,-1.37244 z m 56.000004,-3 c -1.24387,-1.58606 -1.2085,-1.62143 0.37755,-0.37756 0.9625,0.75485 1.75,1.54235 1.75,1.75 0,0.82304 -0.82118,0.29331 -2.12755,-1.37244 z m -45,-8 c -1.24387,-1.58606 -1.2085,-1.62143 0.37755,-0.37756 0.9625,0.75485 1.75,1.54235 1.75,1.75 0,0.82304 -0.82118,0.29331 -2.12755,-1.37244 z M 67.449526,99.536068 c -1.24387,-1.586056 -1.2085,-1.621426 0.377556,-0.377555 0.9625,0.754844 1.75,1.542347 1.75,1.749997 0,0.82304 -0.821186,0.29331 -2.127556,-1.372442 z m 55.000004,-2 c -1.24387,-1.586056 -1.2085,-1.621426 0.37755,-0.377555 1.66575,1.306369 2.19548,2.127555 1.37245,2.127555 -0.20766,0 -0.99516,-0.7875 -1.75,-1.75 z m -44.000004,-9 c -1.24387,-1.586056 -1.2085,-1.621426 0.377556,-0.377555 0.9625,0.754844 1.75,1.542344 1.75,1.75 0,0.823034 -0.821186,0.293303 -2.127556,-1.372445 z m 16.532543,-17.5 -1.904987,-2.25 2.25,1.904988 c 2.114444,1.790218 2.70524,2.595012 1.904987,2.595012 -0.189757,0 -1.202257,-1.0125 -2.25,-2.25 z"
       id="path230" /><path
       style="fill:#333333;fill-opacity:1"
       d="m 433.37708,495.48607 c -6.95135,-6.95136 -10.8,-11.55664 -10.8,-12.92328 0,-1.1678 1.19771,-3.54666 2.66157,-5.28636 l 2.66156,-3.16309 -90.31882,-90.32296 c -89.32466,-89.32875 -90.31984,-90.36758 -90.41156,-94.37682 -0.0912,-3.98662 -1.78516,-5.80834 -102.13664,-109.84067 L 42.9893,73.786068 36.61926,73.573214 C 25.209515,73.19196 14.301401,65.564615 9.2873192,54.461738 6.0314616,47.252166 6.2756861,36.466313 9.8607076,29.138793 13.092691,22.532857 19.818137,15.969326 26.401412,12.996306 c 7.209572,-3.2558581 17.995424,-3.0116336 25.322944,0.573388 10.823513,5.295451 17.779303,15.61109 18.149642,26.916448 l 0.203084,6.199521 105.809588,102.050207 c 103.84149,100.15202 105.88458,102.05192 109.84068,102.14294 3.97886,0.0916 5.2013,1.26291 94.35404,90.41157 l 90.32296,90.31882 3.16309,-2.66157 c 3.9794,-3.34844 6.04012,-3.34824 10.02045,9.9e-4 l 3.16426,2.66254 -0.40324,-26.41254 c -0.36889,-24.16308 -0.59777,-27.00872 -2.68736,-33.41255 -7.06303,-21.64561 -21.0752,-38.57014 -40.08447,-48.4158 -10.50004,-5.4384 -19.66979,-8.00661 -32.17713,-9.01201 -16.68371,-1.34111 -24.02304,-6.07319 -27.3917,-17.66097 -3.69608,-12.71406 3.32538,-25.24962 16.24695,-29.00603 9.39682,-2.73173 28.05853,0.0969 43.75779,6.63251 26.22664,10.91817 47.83173,35.8567 55.04036,63.53248 2.94925,11.32294 3.52373,22.47159 3.52373,68.38294 v 46.50559 l -26.77064,26.77065 c -20.33467,20.33467 -27.35469,26.77064 -29.2,26.77064 -1.75585,0 -5.42352,-2.99416 -13.22936,-10.8 z m 32.19371,-26.6937 18.47343,-18.4937 -2.74326,-2.74327 -2.74327,-2.74327 -18.69967,18.69966 -18.69966,18.69967 2.38367,2.5373 c 1.31103,1.39552 2.6473,2.53731 2.9695,2.53731 0.32221,0 8.89887,-8.32217 19.05926,-18.4937 z m -15.98536,-16.01468 10.47261,-10.50838 -54.73814,-54.73814 -54.73815,-54.73815 -10.7477,10.74771 -10.74771,10.74771 54.49193,54.49881 c 29.97056,29.97435 54.72652,54.49882 55.01324,54.49882 0.28672,0 5.23398,-4.72877 10.99392,-10.50838 z m -120.0006,-119.9994 10.47202,-10.50778 -26.73814,-26.73815 -26.73815,-26.73814 -10.74529,10.74529 -10.7453,10.7453 26.48648,26.50063 c 14.56756,14.57534 26.7227,26.50063 27.01142,26.50063 0.28872,0 5.23735,-4.7285 10.99696,-10.50778 z m 148.09821,-7.16589 c -12.92612,-24.82732 -37.80173,-41.35922 -64.7602,-43.03852 -8.87516,-0.55285 -9.23338,-0.4911 -11.75,2.02552 -3.3318,3.3318 -3.44542,7.92792 -0.27437,11.09897 1.9308,1.93079 3.82371,2.44533 11.25,3.05802 24.88377,2.05295 50.54886,14.18881 64.66572,30.57747 2.30301,2.67363 4.35745,4.69099 4.56542,4.48301 0.20798,-0.20798 -1.45548,-3.89999 -3.69657,-8.20447 z M 249.8932,241.5314 c -11.99886,-11.69007 -24.32758,-23.48122 -27.39714,-26.20256 l -5.58101,-4.94788 -5.23218,5.29799 -5.23217,5.29798 26.23157,27.2088 26.23156,27.2088 6.39775,-6.30423 6.39775,-6.30423 z m -46.02985,-35.02834 4.71109,-4.78301 -60.66434,-58.46699 C 114.54471,111.09621 81.902755,79.661614 75.37242,73.398391 L 63.499084,62.010715 61.01887,64.340755 c -1.364117,1.281521 -2.359067,2.651432 -2.211001,3.044246 0.60691,1.610102 138.350891,143.892279 139.306801,143.896499 0.57068,0.003 3.15758,-2.14779 5.74868,-4.77844 z M 46.655402,56.012271 c 10.639994,-7.170291 10.639994,-20.282115 0,-27.452406 -9.81276,-6.612818 -24.07832,1.519476 -24.07832,13.726203 0,12.206727 14.26556,20.339021 24.07832,13.726203 z"
       id="path229" /></g><path
     style="fill:#ffffff;stroke:none;stroke-width:11.3121;stroke-linecap:round;stroke-dasharray:none"
     d="M 39.264974,60.129918 C 34.546878,58.810937 30.673767,55.54122 28.537127,51.073372 27.38641,48.66715 27.225062,47.887468 27.225062,44.733087 c 0,-3.20281 0.149821,-3.901004 1.368124,-6.375731 2.73938,-5.564471 7.784757,-8.883769 13.925851,-9.161664 3.166516,-0.14329 3.719415,-0.04305 6.221982,1.128043 3.57607,1.673445 6.638079,4.748657 8.371195,8.407291 1.172287,2.474716 1.34707,3.289275 1.342179,6.255104 -0.005,3.032682 -0.163569,3.721053 -1.433489,6.222997 -3.576448,7.046169 -11.042988,10.797448 -17.75593,8.920791 z"
     id="path237" /><path
     style="fill:#ffffff;stroke:none;stroke-width:11.3121;stroke-linecap:round;stroke-dasharray:none"
     d="m 192.66759,203.7366 c -26.32908,-26.71018 -39.67101,-40.54573 -39.79227,-41.26451 -0.0736,-0.43604 -0.73836,-1.21444 -1.47733,-1.72977 -1.78105,-1.24204 -7.46394,-6.71936 -7.46394,-7.19395 0,-0.20529 -4.08376,-4.37679 -9.07502,-9.26999 -5.1366,-5.03567 -9.07502,-9.22517 -9.07502,-9.65355 0,-0.41626 -0.59087,-1.19865 -1.31304,-1.73864 -2.28703,-1.71011 -7.55094,-6.80298 -7.55094,-7.30559 0,-0.62721 -2.21744,-2.75125 -2.87223,-2.75125 -0.27748,0 -0.50452,-0.15399 -0.50452,-0.3422 0,-0.18821 -3.32399,-3.71385 -7.38664,-7.83475 -4.06266,-4.12089 -7.386648,-7.70787 -7.386648,-7.97105 0,-0.64763 -2.142951,-2.84623 -2.774186,-2.84623 -0.604666,0 -5.609658,-5.26724 -6.016213,-6.331447 -0.156542,-0.409768 -1.37679,-1.63251 -2.711662,-2.717205 -1.334872,-1.084695 -2.427041,-2.216315 -2.427041,-2.51471 0,-0.298396 -0.617764,-1.000243 -1.372809,-1.559662 C 81.485437,89.24314 71.755977,79.071853 71.755977,78.468131 c 0,-0.280258 -1.187139,-1.627003 -2.638087,-2.992765 -4.586689,-4.317405 -5.803793,-5.563078 -5.803793,-5.940026 0,-0.201704 0.962402,-1.304143 2.13867,-2.449865 l 2.13867,-2.083129 2.504364,2.204432 c 1.3774,1.212437 2.504364,2.409831 2.504364,2.660874 0,0.606133 2.64857,3.154607 3.278511,3.154607 0.272091,0 4.975895,4.463644 10.452899,9.919208 5.477003,5.455565 10.108802,9.919209 10.292886,9.919209 0.364197,0 3.870139,3.778969 5.448859,5.87319 0.54,0.716324 1.29977,1.304254 1.68838,1.306504 0.38861,0.002 3.58804,2.89887 7.10986,6.43693 10.19228,10.2393 11.33045,11.34257 14.68888,14.23848 1.74803,1.50729 3.17822,2.89704 3.17822,3.08835 0,0.77103 2.26045,3.24616 2.96461,3.24616 0.41778,0 4.76757,3.99916 9.7559,8.9695 4.95108,4.93322 9.12362,8.93009 9.27231,8.88194 0.2925,-0.0947 5.32144,5.1918 7.27876,7.65159 0.66129,0.83104 1.51464,1.51098 1.89634,1.51098 0.38171,0 4.62611,3.98879 9.432,8.86398 4.80589,4.87518 8.90558,8.86397 9.11043,8.86397 0.42159,0 6.11921,5.96031 7.62876,7.98048 0.54426,0.72836 1.23907,1.2726 1.54403,1.20942 0.5513,-0.11422 7.82416,6.82989 12.66179,12.08946 1.39291,1.5144 2.77019,2.75942 3.06062,2.76672 0.29044,0.007 1.41309,1.15293 2.49478,2.54584 1.08169,1.39291 2.27757,2.53257 2.65751,2.53257 0.37993,0 1.43358,0.76068 2.34143,1.69041 l 1.65064,1.69041 -2.07672,2.10843 c -1.14221,1.15964 -2.2464,2.10844 -2.45376,2.10844 -0.584,0 -2.95206,2.10975 -3.43936,3.06419 -0.23996,0.47 -0.82441,1.10959 -1.29879,1.42131 -0.80574,0.52948 -1.50009,-0.08 -10.55235,-9.26333 z"
     id="path238" /><path
     style="fill:#ffffff;stroke:none;stroke-width:11.3121;stroke-linecap:round;stroke-dasharray:none"
     d="m 262.15083,275.4985 c -0.56362,-0.68263 -2.22561,-2.18485 -3.69332,-3.33827 -1.46771,-1.15343 -2.66856,-2.32918 -2.66856,-2.61278 0,-0.60584 -2.01989,-2.55508 -3.00312,-2.89808 -0.37489,-0.13078 -1.41935,-1.15583 -2.32103,-2.27787 -0.90168,-1.12205 -5.01112,-5.43042 -9.13208,-9.57415 -4.12096,-4.14373 -7.49265,-7.85937 -7.49265,-8.25698 0,-0.6728 -1.97138,-2.48903 -2.60409,-2.39914 -0.57217,0.0813 -2.46104,-2.02999 -2.46104,-2.75082 0,-0.40941 -0.85474,-1.35821 -1.89942,-2.10845 -1.04469,-0.75023 -1.89943,-1.54494 -1.89943,-1.76601 0,-0.22107 -3.05107,-3.37759 -6.78016,-7.0145 l -6.78016,-6.61255 0.91406,-0.82721 c 0.50273,-0.45497 1.1844,-1.35001 1.51482,-1.98897 0.33043,-0.63897 0.83332,-1.16263 1.11755,-1.16371 0.66299,-0.002 5.79295,-5.16327 5.79295,-5.82775 0,-0.27594 0.1588,-0.50171 0.35288,-0.50171 0.54484,0 6.95719,5.73502 8.02068,7.17346 0.51987,0.70317 1.7067,1.75919 2.6374,2.34671 0.93071,0.58753 1.80639,1.39252 1.94597,1.78887 0.3799,1.07877 1.90517,2.6624 2.95505,3.0681 0.5102,0.19716 1.25708,0.88929 1.65973,1.53807 1.14587,1.8463 2.78633,3.50112 3.47073,3.50112 0.70651,0 14.09956,12.96974 15.60431,15.11111 0.53888,0.76688 1.4369,1.56812 1.99558,1.78053 0.55868,0.21241 1.71396,1.358 2.56727,2.54576 0.85333,1.18776 1.98403,2.32401 2.51268,2.525 0.52865,0.201 1.74011,1.41983 2.69213,2.70853 0.95201,1.2887 1.96644,2.34308 2.25428,2.34308 0.28784,0 1.67557,1.09217 3.08385,2.42704 l 2.56051,2.42704 -5.9463,5.93783 -5.9463,5.93783 z"
     id="path239" /><path
     style="fill:#ffffff;stroke:none;stroke-width:11.3121;stroke-linecap:round;stroke-dasharray:none"
     d="m 296.50988,318.60773 -25.9872,-25.88555 10.04677,-10.02376 10.04676,-10.02375 26.06818,26.07071 26.06817,26.07072 -9.70702,9.69835 c -5.33887,5.33409 -9.89636,9.76146 -10.12775,9.83859 -0.23139,0.0771 -12.11496,-11.50826 -26.40791,-25.74531 z"
     id="path240" /><path
     style="fill:#ffffff;stroke:none;stroke-width:11.3121;stroke-linecap:round;stroke-dasharray:none"
     d="m 388.64123,410.80117 -53.92339,-53.92462 10.09988,-10.0933 10.09987,-10.0933 49.31585,49.13895 c 27.12372,27.02642 51.54939,51.30833 54.27927,53.9598 l 4.96341,4.82086 -1.48579,1.22471 c -0.81719,0.67359 -1.4858,1.5005 -1.4858,1.83757 0,0.33708 -0.42737,0.78022 -0.94971,0.98478 -0.96703,0.37869 -3.32138,2.71126 -4.78361,4.73934 -0.75891,1.0526 -11.32491,10.99451 -11.92872,11.22415 -0.15283,0.0581 -24.5434,-24.16041 -54.20126,-53.81894 z"
     id="path241" /><path
     style="fill:#ffffff;stroke:none;stroke-width:11.3121;stroke-linecap:round;stroke-dasharray:none"
     d="m 482.71475,333.37604 c -1.07234,-1.22585 -1.9497,-2.53474 -1.9497,-2.90865 0,-0.60626 -3.77762,-4.18874 -4.4169,-4.18874 -0.14055,0 -1.73475,-1.22378 -3.54267,-2.7195 -9.56329,-7.9119 -23.0406,-14.88142 -35.98558,-18.60919 -6.43068,-1.85185 -12.5798,-3.01606 -20.15975,-3.81683 -3.39556,-0.35871 -7.04285,-0.93014 -8.10508,-1.26982 -3.14375,-1.00533 -5.45532,-3.95919 -5.45532,-6.97112 0,-3.07856 2.77334,-6.82588 5.61878,-7.59208 2.15933,-0.58145 12.46913,0.17315 18.20085,1.33217 11.23724,2.27229 23.08178,7.71776 32.31887,14.85844 4.02842,3.11414 12.53847,11.8022 15.57947,15.90536 4.15916,5.61185 10.70149,17.35401 10.03848,18.01703 -0.10546,0.10545 -1.06911,-0.81123 -2.14145,-2.03707 z"
     id="path242" /></svg>
