<?xml version="1.0" encoding="UTF-8" standalone="no"?>
<!-- Created with Inkscape (http://www.inkscape.org/) -->

<svg
   width="512"
   height="512"
   viewBox="0 0 512 512"
   version="1.1"
   id="svg1"
   xml:space="preserve"
   xmlns="http://www.w3.org/2000/svg"
   xmlns:svg="http://www.w3.org/2000/svg"><defs
     id="defs1" /><path
     style="fill:#000000;stroke-width:0.638463"
     d="m 215.2599,494.04118 c -2.83398,-0.70086 -6.4961,-1.92336 -8.13804,-2.71667 -4.44054,-2.14546 -10.53576,-6.87574 -14.21209,-11.02947 l -3.25491,-3.67756 -2.8071,2.39355 c -10.45323,8.91331 -25.42897,10.43156 -37.56178,3.80808 -4.9896,-2.7239 -11.50278,-9.09826 -14.73144,-14.41745 -2.25519,-3.71544 -1.97571,-3.68397 -7.79957,-0.8778 -3.42567,1.65063 -4.69243,1.89609 -9.69918,1.87941 -13.69358,-0.0455 -24.63905,-8.5883 -32.065749,-25.0266 l -1.898799,-4.2028 h -3.344478 c -6.736522,0 -15.296424,-4.69662 -19.621044,-10.7656 -3.108166,-4.36184 -6.698998,-12.67027 -8.541545,-19.76335 l -1.554616,-5.98457 -2.533819,-0.82992 c -11.141339,-3.64917 -16.886789,-15.76122 -17.584262,-37.06958 -0.796336,-24.32866 5.639531,-46.77338 17.163077,-59.8554 9.086358,-10.31519 20.201057,-12.84532 31.184567,-7.09873 4.044777,2.11623 8.998267,7.64744 10.965977,12.24497 1.37504,3.21277 1.560719,3.37578 3.877441,3.40379 1.338275,0.0161 3.797164,0.54575 5.464214,1.17679 l 3.030986,1.14734 2.67218,-4.03468 c 6.04965,-9.13434 14.61443,-16.35638 21.19437,-17.87166 10.20494,-2.35005 19.89077,3.76568 23.14523,14.61413 1.26026,4.20097 1.34078,5.55589 1.2358,20.78933 -0.0619,8.96253 0.067,17.7946 0.28608,19.62683 l 0.39839,3.33135 5.54078,0.43253 c 9.86487,0.77012 20.74197,3.99431 29.13781,8.63706 l 4.80486,2.657 8.75137,-1.14481 c 10.88044,-1.42334 32.50396,-1.06386 40.96966,0.68109 6.10697,1.25879 14.13636,3.93455 17.50801,5.8345 2.14418,1.20829 2.38859,1.21841 4.20791,0.1748 3.42034,-1.962 10.25331,-4.27458 17.12553,-5.79594 5.85119,-1.29537 8.69695,-1.48642 22.46122,-1.50793 9.96874,-0.0161 17.98901,0.30926 21.82313,0.8839 l 6.06199,0.90854 4.84957,-2.67895 c 8.66956,-4.78909 19.4405,-7.95988 29.55216,-8.69965 2.91733,-0.21343 5.34449,-0.41892 5.39366,-0.45664 0.0493,-0.0378 0.2586,-9.44922 0.46537,-20.91447 l 0.37599,-20.8459 1.75418,-3.99282 c 2.13861,-4.86793 5.6986,-8.93752 9.74211,-11.13674 2.48471,-1.3514 3.96195,-1.6515 8.19641,-1.66508 7.44161,-0.0238 11.62034,2.34768 19.42259,11.02281 3.18773,3.54436 6.46619,7.4603 7.28549,8.70207 l 1.48958,2.25777 3.28147,-1.08099 c 1.80481,-0.59455 4.25493,-1.09275 5.4447,-1.10713 1.99434,-0.024 2.28151,-0.29545 3.67871,-3.47597 4.66961,-10.6298 15.85491,-16.92008 26.26751,-14.77204 14.74202,3.04118 26.03598,19.19005 31.35663,44.83585 1.80261,8.68867 2.28401,27.26874 0.92984,35.8875 -1.27292,8.10147 -3.88284,15.00172 -7.32532,19.36706 -2.75021,3.48751 -7.89192,6.94691 -10.32519,6.94691 -1.06334,0 -1.42017,0.62562 -2.01349,3.53035 -1.14694,5.61502 -4.79398,15.50785 -7.29144,19.77858 -5.02077,8.58565 -12.10518,13.15317 -21.53133,13.88188 -2.90028,0.2242 -3.00581,0.31017 -4.76009,3.87815 -3.10101,6.30701 -5.65568,10.25159 -9.11343,14.07179 -10.19585,11.26452 -24.10561,14.44177 -35.74348,8.16444 l -3.48098,-1.87761 -3.05315,4.55457 c -7.13772,10.64785 -16.67653,16.68719 -28.05964,17.76549 -7.73338,0.73258 -17.06852,-2.42199 -23.58101,-7.96857 l -2.85454,-2.43117 -1.22753,1.91229 c -1.69758,2.6446 -9.26876,8.90648 -13.79584,11.41012 -6.72344,3.7183 -12.27297,5.07097 -20.79211,5.068 -13.0584,-0.005 -21.99924,-3.85271 -30.87516,-13.28872 l -2.89499,-3.07766 -1.75551,2.05693 c -2.31573,2.7133 -8.25316,7.37875 -12.15871,9.55396 -8.25748,4.59901 -21.02036,6.21726 -30.51519,3.86914 z m 17.04539,-22.54696 c 4.8116,-1.61999 7.9835,-3.79686 11.77652,-8.08221 6.1679,-6.96849 11.72771,-20.68887 13.98082,-34.50165 1.0841,-6.64613 2.05592,-8.98452 2.05592,-4.94698 0,2.9163 3.22766,16.46523 5.41696,22.739 5.46391,15.6578 14.9248,24.89242 26.24726,25.6195 11.17744,0.71776 19.94435,-5.04986 27.73509,-18.24655 3.99817,-6.77243 9.68696,-24.70369 9.70305,-30.58424 0.007,-3.16792 1.05911,-0.69411 1.43651,3.38302 1.02116,11.03158 5.69563,24.25526 10.73701,30.37419 3.94545,4.78874 7.67479,6.77806 12.68486,6.76645 4.92996,-0.0108 7.65753,-1.41531 11.77283,-6.0595 6.39847,-7.2208 10.69962,-18.20015 13.4222,-34.26229 0.8771,-5.1746 1.73562,-10.16485 1.90783,-11.08946 0.21783,-1.16967 0.654,0.16011 1.43369,4.3709 1.96107,10.59101 4.5199,17.10366 9.16167,23.31792 2.45796,3.29063 7.52114,6.60603 10.08855,6.60603 12.12403,0 21.91636,-22.48635 21.21978,-48.72743 -0.11172,-4.20739 -0.14774,-7.58768 -0.0803,-7.51177 0.0675,0.0759 0.98268,2.85059 2.03363,6.16593 4.5915,14.48409 9.00381,21.158 13.98815,21.158 2.15977,0 2.86679,-0.39018 4.80707,-2.65274 6.31058,-7.35879 8.32425,-26.67051 5.10636,-48.97158 -0.31396,-2.17572 -0.024,-1.81146 2.18905,2.751 2.91193,6.00303 7.94171,12.25502 10.39808,12.9248 4.59323,1.25245 6.66501,-2.04843 7.71033,-12.28454 2.18739,-21.41964 -7.33604,-51.92889 -16.21843,-51.9573 -5.10691,-0.0161 -7.946,8.88485 -7.99208,25.05686 l -0.0187,6.56899 -4.09184,-4.81511 c -6.42847,-7.56477 -10.0499,-9.62254 -13.47589,-7.65729 -3.71826,2.13293 -6.09232,11.18392 -7.02268,26.77358 l -0.43361,7.26569 -2.25015,-6.59324 c -2.68877,-7.87851 -7.47249,-18.57945 -11.62892,-26.01342 -5.79656,-10.36738 -13.78815,-20.59049 -16.09595,-20.59049 -0.59789,0 -0.77235,2.98413 -0.77637,13.28085 -0.007,21.56451 -1.73157,38.3801 -5.72277,55.84606 -0.85053,3.72199 -1.57425,7.4689 -1.60832,8.3265 -0.0471,1.19051 -0.20464,1.00267 -0.66559,-0.79431 -0.33204,-1.29447 -1.12489,-4.376 -1.7619,-6.84785 -1.84391,-7.15522 -5.30215,-10.55918 -12.20228,-12.01077 -6.27147,-1.31934 -20.65789,2.70078 -27.24791,7.6141 -4.79243,3.5731 -6.00315,5.60501 -7.75987,13.02327 -1.91745,8.09701 -2.17948,8.52589 -3.00391,4.91693 -1.98887,-8.70621 -4.38254,-12.57445 -9.00554,-14.55331 -2.49442,-1.06769 -4.78559,-1.21662 -18.30925,-1.19007 -13.72122,0.0269 -16.17323,0.20152 -21.82314,1.55401 -7.32167,1.75266 -14.34056,5.21726 -16.59758,8.1927 -0.85759,1.13059 -2.03903,3.55402 -2.6254,5.38543 -0.58637,1.8314 -1.21088,3.32983 -1.38776,3.32983 -0.17689,0 -0.81213,-1.53196 -1.41161,-3.40434 -1.54213,-4.8165 -4.91858,-8.19806 -10.62168,-10.63776 -8.57415,-3.66792 -13.84371,-4.43005 -30.70368,-4.44067 -17.05647,-0.0108 -19.29037,0.45159 -22.64204,4.68612 -1.71575,2.1677 -4.05143,8.02778 -4.75498,11.93004 -0.18511,1.02665 -0.52536,1.86661 -0.75615,1.86661 -0.23075,0 -0.90049,-2.34516 -1.48831,-5.21148 -1.41066,-6.8788 -3.55116,-11.73067 -6.14258,-13.92323 -5.37537,-4.54808 -18.17578,-9.10128 -26.04816,-9.26555 -4.77451,-0.0996 -9.04239,1.57769 -11.9949,4.71412 -1.5374,1.63317 -3.23787,6.55486 -5.04719,14.6081 -0.44161,1.96557 -0.45934,1.97421 -0.69074,0.33622 -0.13061,-0.92462 -0.92101,-5.00974 -1.75642,-9.07805 -3.94151,-19.19447 -5.65872,-36.26726 -5.66451,-56.31755 -0.001,-6.56477 -0.15339,-11.93595 -0.33666,-11.93595 -4.52748,0 -18.56891,22.25455 -25.45675,40.3469 -0.9152,2.404 -2.40031,6.75587 -3.30022,9.67081 l -1.636196,5.29991 -0.42485,-8.92696 c -0.48088,-10.10445 -1.59427,-17.46943 -3.279959,-21.69669 -1.31031,-3.28593 -4.458421,-6.53786 -6.329078,-6.53786 -2.020379,0 -6.743416,3.75351 -10.955725,8.70677 l -3.896347,4.58171 -0.304529,-10.1746 c -0.247776,-8.27876 -0.551223,-10.88986 -1.62858,-14.01328 -3.610386,-10.46707 -10.013623,-9.36887 -15.437331,2.64765 -4.590527,10.17059 -6.442374,18.77555 -6.84084,31.78743 -0.482152,15.74396 1.426222,22.86705 6.124653,22.86074 3.934468,-0.005 8.471455,-5.14533 12.838103,-14.54444 1.179932,-2.5398 1.982273,-4.04218 1.782967,-3.33858 -0.690643,2.43812 -2.148108,18.2373 -2.145816,23.26099 0.0049,11.80246 2.78615,22.72219 6.979132,27.40639 2.186407,2.44254 2.921953,2.8579 5.06102,2.8579 4.918824,0 9.429931,-6.8879 13.693728,-20.90874 l 2.128092,-6.99786 0.0145,9.07804 c 0.0355,23.10642 5.886626,40.84896 15.196736,46.08235 3.59535,2.02102 6.04725,2.09612 9.41367,0.28837 6.21299,-3.33635 11.60531,-13.14372 14.77817,-26.878 0.98151,-4.24868 1.79699,-7.06402 1.81215,-6.25634 0.061,3.24877 3.28997,19.10407 5.13968,25.23762 3.16263,10.48706 9.92297,21.54926 14.92151,24.4166 5.214,2.99093 11.58855,2.54754 16.63,-1.15672 6.84738,-5.03121 13.16219,-20.34592 14.78001,-35.84462 l 0.42115,-4.0347 1.0835,5.93425 c 3.42023,18.73231 11.22261,34.2577 20.5605,40.91175 5.9454,4.23663 14.81711,5.76456 21.12999,3.63914 z m -97.7642,-188.93797 c -11.02969,-4.37048 -36.605996,-30.83486 -50.025676,-51.76267 -2.056271,-3.20674 -3.842387,-6.17557 -3.969149,-6.59742 -0.164237,-0.54658 -1.068799,-0.45017 -3.147271,0.33544 -5.256679,1.98686 -12.501685,2.76461 -17.47061,1.87544 -4.163596,-0.74506 -4.636947,-0.69892 -7.454791,0.7267 -2.440514,1.23474 -4.096719,1.52541 -8.767767,1.53873 -5.119631,0.0143 -6.149018,-0.19607 -9.273378,-1.89792 -13.514426,-7.36134 -22.746163,-30.14953 -23.87848,-58.94325 -0.473222,-12.0335 0.464858,-19.42581 3.248328,-25.59769 2.213485,-4.90804 5.713077,-8.83766 8.926337,-10.02323 1.825303,-0.67346 1.920515,-0.91186 3.163514,-7.92114 4.730433,-26.674698 18.327251,-41.372712 34.120938,-36.884349 2.132948,0.606146 3.927236,1.021151 3.987298,0.922214 0.06007,-0.09887 0.740149,-2.298119 1.511313,-4.887034 4.044534,-13.578174 10.105718,-23.883807 17.889388,-30.416783 9.749538,-8.182929 18.704646,-9.319549 28.865996,-3.663779 l 4.60735,2.564431 1.64938,-3.254864 c 2.78413,-5.49411 8.47344,-12.890517 12.54279,-16.306272 7.15135,-6.002733 13.4665,-8.413868 22.07016,-8.426423 8.88553,-0.01254 16.07121,2.695714 23.7073,8.936605 l 3.71495,3.036176 3.69649,-4.579903 c 9.75076,-12.081015 21.38879,-18.144662 35.02557,-18.249009 15.22344,-0.11642 27.37271,6.419136 37.8203,20.345168 l 2.90342,3.870127 1.67911,-2.687745 c 3.13151,-5.012639 11.36012,-12.982201 16.41807,-15.901224 7.69973,-4.443622 13.3853,-5.762804 23.21428,-5.386307 7.54344,0.288951 8.65749,0.504092 13.76999,2.659266 8.03629,3.387689 11.8237,6.128699 18.44199,13.346771 l 5.87421,6.406581 2.3373,-2.19508 c 3.2438,-3.046457 9.3877,-6.517985 14.66318,-8.285217 3.80537,-1.274765 5.41988,-1.442533 11.21468,-1.165331 8.0233,0.383805 11.58668,1.680671 18.29633,6.658815 6.07806,4.509533 9.10688,8.319247 16.37609,20.598209 0.0592,0.09994 2.19191,-0.916303 4.73941,-2.258321 10.27138,-5.410935 20.06847,-3.796139 29.77529,4.90772 7.14356,6.405451 12.56313,15.678811 16.42315,28.101487 0.91936,2.958767 1.83312,5.586816 2.03059,5.840107 0.19746,0.253272 1.99576,0.03098 3.99621,-0.49383 4.93013,-1.293606 7.35255,-1.216358 12.02134,0.383268 4.63541,1.588217 8.94588,5.115339 12.12803,9.924049 4.65986,7.041777 9.08394,19.088747 10.79664,29.399807 0.67823,4.08308 0.906,4.534 2.71357,5.37179 3.41786,1.58414 7.17951,6.05128 9.19968,10.92507 6.61665,15.96305 1.7939,52.51101 -9.41378,71.33972 -7.4434,12.50481 -17.49384,16.84948 -29.0355,12.55165 -4.1466,-1.54409 -4.88081,-1.62658 -8.59365,-0.96552 -5.23838,0.93265 -13.76035,-0.16084 -19.15721,-2.45812 -0.59975,-0.25529 -1.28925,0.48717 -2.1102,2.27223 -3.57494,7.77325 -18.14908,26.6705 -28.57488,37.05099 -17.36778,17.29226 -26.97294,22.48265 -35.67336,19.27702 -4.09402,-1.50842 -8.67072,-6.1616 -10.80723,-10.9878 -2.48605,-5.61583 -2.2786,-10.69255 0.89857,-21.9908 5.95718,-21.18416 9.07132,-37.39384 11.32595,-58.95375 l 0.39874,-3.81298 -3.52323,-0.40792 c -12.26675,-1.4203 -26.54642,-8.21417 -36.9438,-17.57687 l -2.50447,-2.25522 -8.4071,1.44454 c -10.91189,1.87493 -30.6481,2.0083 -39.91762,0.26979 -8.16387,-1.53116 -15.6092,-3.59534 -20.07918,-5.56686 l -3.70005,-1.63193 -4.48363,1.96292 c -9.8185,4.29857 -20.22465,6.20255 -36.3775,6.65585 -12.61724,0.35409 -20.30595,-0.22824 -28.64952,-2.16988 l -4.16697,-0.96971 -5.2291,4.37287 c -2.876,2.40506 -8.50258,6.17956 -12.50348,8.38779 -7.66,4.2278 -13.75069,6.30441 -20.72763,7.06703 l -4.20864,0.46003 0.79604,7.49023 c 1.64249,15.45463 5.96292,37.25305 10.83809,54.68296 2.9555,10.56667 3.41059,13.68805 2.60863,17.89216 -0.84601,4.43488 -1.84267,6.5877 -4.64728,10.03828 -3.18861,3.92302 -8.53576,6.58602 -13.15051,6.54926 -2.00045,-0.0161 -4.63447,-0.42416 -5.85334,-0.90714 z m 248.0295,-23.78765 c 0,-0.2842 0.65899,-0.96505 1.46442,-1.51302 3.32344,-2.26106 14.36926,-13.66783 21.15105,-21.8422 17.62429,-21.24333 28.89893,-40.84562 34.56058,-60.08774 l 2.04916,-6.96433 0.41397,6.96433 c 0.84981,14.29661 2.79984,22.01277 6.70591,26.5349 2.31455,2.6796 2.82281,2.95644 5.42781,2.95644 4.74227,0 8.43009,-3.43337 13.27935,-12.3631 l 2.0609,-3.79511 0.38516,5.05444 c 0.61685,8.09481 2.93088,12.89805 5.82969,12.10068 2.44763,-0.67326 4.29589,-2.9946 6.41549,-8.05761 3.8084,-9.09697 6.35016,-22.52932 6.39186,-33.77893 0.0306,-8.26015 -0.68945,-10.5069 -3.4637,-10.80703 -1.57002,-0.1698 -2.19642,0.2277 -3.70854,2.35358 -1.00068,1.40686 -2.74018,4.55579 -3.86556,6.99762 l -2.04613,4.43968 -0.0145,-14.52641 c -0.0169,-16.15565 -0.75516,-22.08131 -3.98421,-31.98048 -2.34877,-7.20056 -5.23942,-11.12499 -8.19438,-11.12499 -5.75239,0 -13.74989,16.77371 -19.0158,39.88318 l -1.65646,7.26945 -0.34788,-14.33016 c -0.76785,-31.62955 -7.8957,-61.137576 -16.94935,-70.167172 -2.75574,-2.748444 -3.27885,-3.002182 -6.18905,-3.002182 -4.12394,0 -6.51464,1.75543 -9.82058,7.211051 -4.70268,7.760563 -7.44494,17.398599 -10.28892,36.161853 l -1.73273,11.43161 -0.42554,-5.7158 c -1.39671,-18.760842 -3.37248,-30.108669 -7.38276,-42.403213 -3.2676,-10.017631 -7.04284,-17.35341 -11.59503,-22.530559 -4.66085,-5.30073 -7.66503,-7.020123 -12.25135,-7.011885 -11.62787,0.02095 -22.33791,17.867945 -27.46252,45.763122 -0.66248,3.606107 -1.2045,7.341203 -1.2045,8.300175 0,3.30567 -1.0405,1.73496 -1.40634,-2.122975 -1.33558,-14.084649 -6.28009,-33.102987 -11.03332,-42.438102 -9.42232,-18.504987 -24.77574,-25.12576 -37.41018,-16.132216 -6.88797,4.903044 -13.70911,16.153996 -17.96273,29.628128 -3.704,11.733048 -9.16581,40.379445 -9.17224,48.106975 -0.001,1.57184 -0.27516,2.8579 -0.60856,2.8579 -0.3334,0 -0.609,-1.13475 -0.61241,-2.52168 -0.0171,-6.91654 -3.82817,-28.913457 -7.36178,-42.490127 -8.30525,-31.910253 -24.64952,-46.156795 -42.09245,-36.690109 -3.60217,1.954988 -9.60172,8.375665 -12.78172,13.678903 -5.10749,8.517714 -9.79859,24.205086 -12.3745,41.381273 l -1.38977,9.26702 -1.69312,-9.300621 C 177.7281,74.301077 173.09341,61.676083 166.7273,53.96934 156.79218,41.941932 146.03009,43.943255 136.61984,59.568157 129.38617,71.579034 124.27656,91.543425 122.33522,115.38137 l -0.79409,9.75049 -0.40248,-5.51485 c -0.50288,-6.89072 -2.95933,-20.485142 -5.03725,-27.87707 -3.08747,-10.983297 -7.63999,-19.376801 -11.80583,-21.766478 -2.21407,-1.270054 -6.211226,-1.270054 -8.42529,0 -5.0818,2.915101 -10.176697,13.731346 -13.945344,29.605366 -3.186796,13.423162 -6.050771,41.603542 -5.296447,52.114732 0.351304,4.89526 0.48044,5.23719 -3.428292,-9.07805 -4.657387,-17.05708 -9.723123,-28.56891 -14.003228,-31.8222 -4.999586,-3.80017 -8.727159,-0.14328 -12.109629,11.88012 -2.661421,9.46028 -3.536502,17.27972 -3.531803,31.55888 l 0.0049,12.96169 -2.199889,-4.73144 c -4.182486,-8.99549 -6.880188,-11.26152 -9.531874,-8.00659 -1.015324,1.24632 -1.151741,2.48482 -1.129428,10.25485 0.02776,9.65451 0.972278,16.06149 3.930013,26.6572 3.12184,11.18361 6.492571,16.01003 9.958014,14.25851 2.186377,-1.10505 3.375431,-4.24725 4.135744,-10.92916 l 0.676582,-5.94596 2.307163,4.27341 c 2.671061,4.94744 7.042342,10.17724 9.303748,11.13098 2.444533,1.03099 5.857503,0.7764 7.873408,-0.5873 2.462714,-1.66595 5.493831,-8.15057 6.680721,-14.29237 0.52812,-2.73285 1.146139,-8.75134 1.373361,-13.37442 l 0.413143,-8.40561 2.348077,7.93031 c 4.50812,15.22555 10.900667,27.63517 23.43449,45.49252 6.68955,9.53085 22.24649,27.50098 29.34785,33.90029 3.85184,3.47107 5.77222,4.71688 4.92394,3.19431 -0.57013,-1.02329 -5.73986,-22.15697 -7.61777,-31.14121 -2.23775,-10.70575 -4.01754,-21.97051 -5.18457,-32.81451 -1.14271,-10.61815 -2.24378,-42.33524 -1.71335,-49.35466 l 0.40122,-5.30929 1.63975,4.97308 c 2.36597,7.17557 4.59608,11.75043 7.33444,15.04587 3.39253,4.08267 4.94653,4.62984 11.93547,4.20249 9.55559,-0.5843 20.39995,-5.31287 26.70902,-11.6462 4.65251,-4.67042 6.86912,-9.49063 9.67327,-21.03528 l 2.30361,-9.4838 1.69508,7.7096 c 3.00597,13.67169 4.79246,15.70291 15.12329,17.19502 8.6077,1.24325 31.40559,0.46339 38.76654,-1.32608 11.21389,-2.72617 17.17499,-6.19729 19.65006,-11.44214 1.8661,-3.95443 1.78736,-3.92806 2.90103,-0.97138 1.34537,3.57183 3.06599,5.43954 7.10116,7.70818 9.15346,5.14623 20.98185,7.02894 40.73161,6.48322 14.98575,-0.41409 18.19446,-1.18132 21.62307,-5.17034 2.42308,-2.81914 3.91149,-7.31565 5.07522,-15.33232 l 0.75581,-5.2066 0.73112,3.02601 c 3.19574,13.22659 4.48327,17.91432 5.5685,20.27404 2.73801,5.95348 9.89013,12.5073 16.7845,15.3804 9.68752,4.03707 19.77612,5.3893 23.57213,3.15947 3.80636,-2.2359 7.87425,-9.21934 12.81672,-22.0027 0.49592,-1.28266 0.65762,1.18779 0.68221,10.42295 0.0805,30.20986 -2.3744,53.75846 -8.447,81.03 -2.22574,9.99563 -5.5102,23.20457 -6.43381,25.87452 -0.19471,0.56289 -0.052,1.02343 0.31703,1.02343 0.36909,0 0.67106,-0.23252 0.67106,-0.5167 z"
     id="path26" /><path
     style="fill:#ffffff;stroke:none;stroke-width:17.9079;stroke-linecap:round;stroke-dasharray:none"
     d="M 125.37484,246.28122 C 102.2224,221.57919 86.066468,195.81095 80.040724,173.97464 c -2.187126,-7.92579 -3.633552,-8.14769 -3.633552,-0.55744 0,15.14591 -4.688673,28.87281 -10.347128,30.29298 -4.202112,1.05467 -6.090384,-0.2904 -11.65314,-8.30078 -2.579098,-3.71392 -4.858565,-6.58328 -5.065483,-6.37636 -0.206917,0.20692 -0.927026,3.28064 -1.600243,6.83049 -0.673216,3.54985 -2.054764,7.26955 -3.070106,8.26598 -1.653385,1.62259 -2.086063,1.519 -4.145273,-0.99254 -4.420198,-5.39114 -9.457419,-26.21844 -9.476367,-39.18176 -0.01772,-12.12399 2.918447,-13.17191 8.636275,-3.0823 l 3.890258,6.86471 0.802278,-17.90793 c 0.82193,-18.34661 3.29202,-30.67152 7.405082,-36.94884 2.642676,-4.03324 4.640717,-3.8407 8.567102,0.82554 4.175795,4.96265 6.983506,11.58558 11.517696,27.16834 2.006301,6.8951 4.116965,13.04692 4.690365,13.67071 0.600589,0.65337 1.042546,-3.66953 1.042546,-10.19741 0,-6.23237 0.821872,-17.5985 1.826382,-25.25805 7.622373,-58.121883 28.014804,-66.976759 38.285094,-16.6243 1.56336,7.66473 2.85635,16.08482 2.8733,18.71132 0.0228,3.5259 0.33364,4.30687 1.18812,2.98465 0.63652,-0.98493 1.16553,-4.28928 1.17558,-7.343 0.0259,-7.86827 4.21808,-31.231655 7.24655,-40.385711 7.13938,-21.57997 17.70612,-32.691196 27.3072,-28.714297 3.91936,1.623447 9.43087,7.244594 12.91151,13.168323 3.1595,5.377183 7.96188,20.862576 9.92066,31.989445 0.84325,4.790023 1.90061,8.93622 2.34969,9.21377 0.44909,0.27755 1.70799,-4.863142 2.79755,-11.423763 6.31915,-38.049488 21.69067,-58.92138 39.51316,-53.652098 9.00756,2.663118 18.20076,14.831968 23.8976,31.63275 2.9262,8.629766 7.6841,32.006441 8.57348,42.123531 0.42043,4.78247 1.1531,8.93563 1.62819,9.22924 0.47507,0.29362 1.81473,-5.76826 2.97699,-13.47084 6.16677,-40.86828 16.30597,-63.366061 31.10461,-69.017709 4.61584,-1.762809 5.96996,-1.815032 10.945,-0.422105 7.45751,2.087973 15.52084,10.152304 20.42453,20.427066 3.7356,7.827227 8.86666,27.087754 10.35992,38.88811 0.83806,6.622688 2.95681,8.657218 2.95681,2.839272 0,-6.26383 5.88532,-26.892741 10.1431,-35.553151 4.41943,-8.989153 10.43913,-15.363155 15.77368,-16.702041 8.33518,-2.091995 19.16346,10.675477 25.29916,29.829882 3.49934,10.924206 7.28331,33.185326 7.28331,42.847706 0,8.34057 1.92449,3.50056 4.14626,-10.42765 2.61745,-16.40878 5.49885,-25.860726 10.08882,-33.094773 6.64331,-10.470194 12.9422,-8.757917 19.62469,5.334742 6.89291,14.536376 11.50698,40.249571 11.50698,64.125771 0,11.15119 1.51059,14.36875 2.84069,6.05072 2.02457,-12.66091 10.27791,-33.68195 15.36467,-39.13334 3.08377,-3.30482 3.78632,-3.32881 6.67529,-0.22786 4.65545,4.99704 7.64736,18.32654 8.42146,37.51916 l 0.72296,17.92482 3.58159,-6.55473 c 1.96987,-3.60512 4.45229,-6.72025 5.51649,-6.92253 7.69343,-1.46234 1.13771,41.65051 -7.52551,49.49061 -2.30184,2.08314 -2.44152,2.08145 -3.99889,-0.0484 -0.88756,-1.2138 -1.97542,-5.10164 -2.41746,-8.63964 -0.44204,-3.538 -1.14567,-6.43273 -1.5636,-6.43273 -0.41794,0 -2.06037,2.45143 -3.64984,5.44762 -5.33417,10.05499 -12.28086,12.90638 -16.54077,6.78946 -3.55845,-5.10966 -5.04129,-10.70358 -5.84729,-22.05858 -0.40891,-5.76079 -1.07692,-10.47416 -1.48447,-10.47416 -0.40756,0 -1.9944,4.0378 -3.52633,8.97288 -6.86816,22.1257 -26.33506,51.80995 -47.35509,72.20974 -6.63098,6.43532 -7.89388,7.25058 -7.39761,4.77545 0.32912,-1.64156 2.25501,-10.23737 4.27974,-19.10179 2.02473,-8.86443 4.51826,-21.70662 5.54116,-28.53821 2.39292,-15.98142 4.56133,-53.8964 3.51824,-61.5169 l -0.80593,-5.88783 -4.62604,9.6753 c -6.88893,14.40811 -10.44302,16.40629 -23.14597,13.01304 -9.1069,-2.43268 -15.34432,-6.08672 -20.61918,-12.07929 -4.00524,-4.55019 -5.23192,-7.25596 -7.46474,-16.46552 -1.46955,-6.06131 -3.08155,-11.47363 -3.58225,-12.02737 -0.50068,-0.55375 -1.28447,1.7135 -1.74176,5.03834 -1.11567,8.11192 -5.19973,15.88933 -9.38732,17.87656 -4.56064,2.16427 -34.84832,2.32797 -43.75975,0.23652 -9.22661,-2.16542 -17.56107,-6.88984 -19.37205,-10.98113 -1.89398,-4.27881 -2.66837,-4.26331 -5.24881,0.10505 -2.51275,4.25373 -10.68587,8.79954 -19.51866,10.85608 -8.07477,1.88004 -38.80227,2.0189 -43.24844,0.19543 -4.42881,-1.81636 -6.53992,-5.46448 -9.1648,-15.83734 -2.45316,-9.69427 -2.44281,-9.7019 -6.18526,4.56279 -1.4847,5.6591 -4.05029,11.8749 -6.02864,14.60593 -5.67677,7.83654 -15.78165,13.1869 -28.10686,14.88204 -5.69145,0.78278 -6.38138,0.58935 -10.36106,-2.90487 -2.96148,-2.60021 -5.34184,-6.53618 -7.79415,-12.88779 l -3.53055,-9.14432 -0.78101,5.33425 c -1.20098,8.2026 1.43426,52.5629 4.07575,68.60893 1.29712,7.87949 3.9626,21.02521 5.9233,29.2127 1.9607,8.18751 3.39277,15.05852 3.18237,15.26891 -0.2104,0.2104 -4.80838,-4.33951 -10.21774,-10.11091 z"
     id="path27" /><path
     style="fill:#ffffff;stroke:none;stroke-width:17.9079;stroke-linecap:round;stroke-dasharray:none"
     d="m 215.48186,469.34899 c -9.69655,-4.40506 -17.93024,-17.75894 -22.80961,-36.99396 -1.58365,-6.24298 -3.06537,-11.53687 -3.2927,-11.76419 -0.22733,-0.22733 -0.75438,2.4886 -1.17124,6.03539 -1.78628,15.19847 -9.20282,31.13541 -16.16484,34.73561 -7.47254,3.8642 -13.85352,1.87693 -19.76328,-6.15503 -5.37794,-7.30916 -8.58071,-15.70405 -11.97412,-31.38578 -2.86908,-13.25866 -3.57647,-13.54605 -5.99444,-2.43533 -2.35891,10.83934 -8.90126,21.42956 -14.73014,23.84397 -11.20783,4.64242 -20.867329,-14.23426 -22.562573,-44.09202 l -0.711735,-12.53555 -3.493813,10.47798 c -4.215375,12.64195 -9.87491,19.79535 -13.940133,17.61971 -6.797808,-3.63808 -10.23495,-16.90335 -9.188165,-35.46072 0.413629,-7.33279 1.078317,-14.18257 1.477083,-15.22174 0.398767,-1.03917 0.264623,-1.88107 -0.298096,-1.8709 -0.56272,0.0102 -2.654986,3.05636 -4.64948,6.76929 -1.994493,3.71293 -5.128074,7.8682 -6.963514,9.23393 l -3.337163,2.48314 -2.195732,-2.70337 c -8.823293,-10.86319 1.59933,-62.46811 12.308862,-60.94415 3.743623,0.53272 6.791761,7.37938 6.809839,15.29611 0.0082,3.61143 0.347851,8.58 0.754676,11.04127 l 0.739684,4.47503 6.394307,-6.65492 c 3.971086,-4.13293 7.192144,-6.50746 8.499609,-6.26582 4.205065,0.77716 7.539171,10.45282 8.313468,24.1259 0.394809,6.97179 1.174127,12.67599 1.731817,12.67599 0.557691,0 1.013979,-0.81406 1.013979,-1.80902 0,-0.99496 2.15416,-7.24339 4.78702,-13.88541 5.23003,-13.19398 13.92317,-28.66481 19.93592,-35.47916 l 3.83036,-4.341 0.0899,11.34169 c 0.0495,6.23793 0.58608,16.98269 1.19253,23.87724 1.27147,14.45509 6.1317,42.97904 7.32325,42.97904 0.44355,0 1.4584,-2.71761 2.25522,-6.03914 3.60477,-15.02637 14.83438,-17.95039 34.28471,-8.92722 7.17754,3.32972 10.32388,7.64303 12.42552,17.03415 0.7741,3.45908 1.74779,6.28924 2.16373,6.28924 0.41595,0 1.39876,-2.40218 2.18401,-5.33818 0.78527,-2.936 3.00246,-7.09959 4.92709,-9.25243 l 3.49936,-3.91425 17.70543,0.0519 c 25.51768,0.0748 36.14852,3.94182 40.68502,14.7992 l 1.76234,4.21785 2.92434,-5.75416 c 2.42301,-4.7677 4.03265,-6.26156 9.38915,-8.71385 8.59634,-3.93554 19.82402,-5.55076 34.74484,-4.99844 14.47857,0.53596 17.89287,2.29221 20.72406,10.66008 0.98493,2.91109 2.28914,5.44855 2.89825,5.63881 0.60911,0.19026 2.09653,-2.87593 3.30538,-6.81377 2.72162,-8.8657 7.89005,-13.53328 18.69477,-16.88311 15.77559,-4.89099 22.9617,-2.03088 27.1836,10.81923 2.80283,8.5309 2.96287,8.37807 5.66693,-5.41149 2.90152,-14.79652 4.31904,-27.21892 4.47143,-39.18536 0.0768,-6.02627 0.47968,-14.44889 0.8954,-18.71695 l 0.75586,-7.7601 6.27774,8.35704 c 6.66188,8.86839 16.58704,28.03291 19.97998,38.57939 1.12272,3.48981 2.28124,6.10519 2.57448,5.81194 0.29324,-0.29325 1.03925,-5.56612 1.65779,-11.7175 1.24134,-12.34508 3.83082,-20.73205 6.74649,-21.85089 2.3984,-0.92036 6.16857,1.53581 12.07204,7.86464 l 4.62845,4.96195 0.7764,-10.93803 c 1.60509,-22.61262 7.76157,-26.75502 15.68158,-10.55138 8.85206,18.11051 10.12993,50.46099 2.09669,53.07916 -2.03897,0.66453 -8.98882,-7.05625 -11.63608,-12.92681 -2.42841,-5.38527 -4.61951,-6.3226 -3.3257,-1.4227 0.4768,1.80572 0.87504,9.72998 0.88497,17.60947 0.0206,16.30677 -2.17538,25.83699 -6.99702,30.36668 -2.8436,2.67143 -3.1135,2.70827 -5.99743,0.81865 -3.32269,-2.17711 -7.46941,-9.72093 -10.90774,-19.84364 l -2.23031,-6.56625 -0.80988,12.67588 c -1.27598,19.97098 -5.30452,32.63111 -12.55979,39.47044 -5.52356,5.2069 -8.92653,5.39544 -14.17698,0.78548 -4.27164,-3.75055 -11.2912,-16.22861 -11.30764,-20.10059 -0.0123,-2.90391 -2.50157,-11.02314 -3.17354,-10.35118 -0.33961,0.33961 -1.59112,5.62806 -2.78114,11.7521 -6.08603,31.31996 -18.76959,45.60862 -32.36511,36.46092 -5.67614,-3.81917 -11.506,-15.80759 -13.92943,-28.64423 -1.94373,-10.29575 -3.85658,-13.71184 -3.85658,-6.88733 0,5.28086 -6.29473,22.97702 -10.88291,30.59473 -10.77712,17.89316 -28.08147,21.37429 -40.85743,8.2193 -6.02335,-6.20206 -9.86672,-14.60023 -13.61626,-29.75307 -3.48348,-14.07764 -3.5951,-14.0688 -6.90932,0.54738 -3.89946,17.19723 -12.12657,30.71358 -21.36227,35.09622 -5.30321,2.51654 -13.25897,2.38684 -19.20202,-0.31302 z"
     id="path28" /></svg>
