<?xml version="1.0" encoding="UTF-8" standalone="no"?>
<!-- Created with Inkscape (http://www.inkscape.org/) -->

<svg
   width="512"
   height="512"
   viewBox="0 0 512 512"
   version="1.1"
   id="svg1"
   xml:space="preserve"
   xmlns="http://www.w3.org/2000/svg"
   xmlns:svg="http://www.w3.org/2000/svg"><defs
     id="defs1" /><g
     id="g221"
     transform="translate(-59.937347,57.404783)"><path
       style="fill:#d0d0d0;fill-opacity:1"
       d="m 158.75,416.33772 c 0.6875,-0.27741 1.8125,-0.27741 2.5,0 0.6875,0.27741 0.125,0.50439 -1.25,0.50439 -1.375,0 -1.9375,-0.22698 -1.25,-0.50439 z M 91.924314,388.25 89.5,385.5 l 2.75,2.42431 C 94.820289,390.1902 95.458588,391 94.674314,391 c -0.179127,0 -1.416627,-1.2375 -2.75,-2.75 z M 127,290.62244 c 0,-0.20765 0.7875,-0.99515 1.75,-1.75 1.58606,-1.24387 1.62143,-1.2085 0.37756,0.37756 C 127.82119,290.91575 127,291.44548 127,290.62244 Z M 156.40499,226.75 154.5,224.5 l 2.25,1.90499 c 1.2375,1.04774 2.25,2.06024 2.25,2.25 0,0.80025 -0.80479,0.20945 -2.59501,-1.90499 z M 104.15789,177 c 0,-1.375 0.22698,-1.9375 0.50439,-1.25 0.27741,0.6875 0.27741,1.8125 0,2.5 -0.27741,0.6875 -0.50439,0.125 -0.50439,-1.25 z m 355,-22 c 0,-1.375 0.22698,-1.9375 0.50439,-1.25 0.27741,0.6875 0.27741,1.8125 0,2.5 -0.27741,0.6875 -0.50439,0.125 -0.50439,-1.25 z M 199.25,100.31067 c 0.9625,-0.25152 2.5375,-0.25152 3.5,0 0.9625,0.25153 0.175,0.45733 -1.75,0.45733 -1.925,0 -2.7125,-0.2058 -1.75,-0.45733 z M 222.232,79 c 0,-1.925 0.2058,-2.7125 0.45733,-1.75 0.25152,0.9625 0.25152,2.5375 0,3.5 C 222.4378,81.7125 222.232,80.925 222.232,79 Z M 538.07895,38.416667 c 0.048,-1.164943 0.28494,-1.4019 0.60416,-0.604167 0.28887,0.721875 0.25335,1.584375 -0.0789,1.916667 -0.33229,0.332291 -0.56864,-0.258334 -0.52522,-1.3125 z M 410,7.6224447 c 0,-0.2076554 0.7875,-0.9951554 1.75,-1.75 C 413.33606,4.6285741 413.37143,4.6639444 412.12756,6.25 410.82119,7.915748 410,8.4454789 410,7.6224447 Z M 297.75,-17.662281 c 0.6875,-0.277412 1.8125,-0.277412 2.5,0 0.6875,0.277413 0.125,0.504386 -1.25,0.504386 -1.375,0 -1.9375,-0.226973 -1.25,-0.504386 z M 509.92431,-29.75 507.5,-32.5 l 2.75,2.424314 c 1.5125,1.333373 2.75,2.570873 2.75,2.75 0,0.784274 -0.8098,0.145975 -3.07569,-2.424314 z"
       id="path228" /><path
       style="fill:#b9b9b9;fill-opacity:1"
       d="m 210.07895,323.41667 c 0.048,-1.16495 0.28494,-1.4019 0.60416,-0.60417 0.28887,0.72187 0.25335,1.58438 -0.0789,1.91667 -0.3323,0.33229 -0.56864,-0.25834 -0.52522,-1.3125 z M 350.75,311.33772 c 0.6875,-0.27741 1.8125,-0.27741 2.5,0 0.6875,0.27741 0.125,0.50439 -1.25,0.50439 -1.375,0 -1.9375,-0.22698 -1.25,-0.50439 z M 246.40499,282.75 244.5,280.5 l 2.25,1.90499 c 2.11444,1.79022 2.70524,2.59501 1.90499,2.59501 -0.18976,0 -1.20226,-1.0125 -2.25,-2.25 z M 433.15789,230 c 0,-1.375 0.22698,-1.9375 0.50439,-1.25 0.27741,0.6875 0.27741,1.8125 0,2.5 -0.27741,0.6875 -0.50439,0.125 -0.50439,-1.25 z m -329,-49 c 0,-1.375 0.22698,-1.9375 0.50439,-1.25 0.27741,0.6875 0.27741,1.8125 0,2.5 -0.27741,0.6875 -0.50439,0.125 -0.50439,-1.25 z M 444.8125,88.316886 c 0.72187,-0.288871 1.58438,-0.253344 1.91667,0.07895 0.33229,0.332292 -0.25834,0.568641 -1.3125,0.52522 -1.16495,-0.04798 -1.4019,-0.284941 -0.60417,-0.604167 z m -77.73355,-9.900219 c 0.048,-1.164943 0.28494,-1.4019 0.60416,-0.604167 0.28887,0.721875 0.25335,1.584375 -0.0789,1.916667 -0.33229,0.332291 -0.56864,-0.258334 -0.52522,-1.3125 z M 498.87244,-17.75 c -1.24387,-1.586056 -1.2085,-1.621426 0.37756,-0.377555 1.66575,1.306369 2.19548,2.127555 1.37244,2.127555 -0.20765,0 -0.99515,-0.7875 -1.75,-1.75 z M 301.75,-17.662281 c 0.6875,-0.277412 1.8125,-0.277412 2.5,0 0.6875,0.277413 0.125,0.504386 -1.25,0.504386 -1.375,0 -1.9375,-0.226973 -1.25,-0.504386 z"
       id="path227" /><path
       style="fill:#a3a3a3;fill-opacity:1"
       d="m 226.15789,323 c 0,-1.375 0.22698,-1.9375 0.50439,-1.25 0.27741,0.6875 0.27741,1.8125 0,2.5 -0.27741,0.6875 -0.50439,0.125 -0.50439,-1.25 z M 385,315.68709 c 0,-0.1721 1.4625,-1.6346 3.25,-3.25 l 3.25,-2.93709 -2.93709,3.25 C 385.82513,315.77946 385,316.45965 385,315.68709 Z m 46,-46 c 0,-0.1721 1.4625,-1.6346 3.25,-3.25 l 3.25,-2.93709 -2.93709,3.25 C 431.82513,269.77946 431,270.45965 431,269.68709 Z M 257,239.62244 c 0,-0.20765 0.7875,-0.99515 1.75,-1.75 1.58606,-1.24387 1.62143,-1.2085 0.37756,0.37756 C 257.82119,239.91575 257,240.44548 257,239.62244 Z m -56.25,-10.28472 c 0.6875,-0.27741 1.8125,-0.27741 2.5,0 0.6875,0.27741 0.125,0.50439 -1.25,0.50439 -1.375,0 -1.9375,-0.22698 -1.25,-0.50439 z M 155,137.62244 c 0,-0.20765 0.7875,-0.99515 1.75,-1.75 1.58606,-1.24387 1.62143,-1.2085 0.37756,0.37756 C 155.82119,137.91575 155,138.44548 155,137.62244 Z m 287.8125,-33.30555 c 0.72187,-0.28887 1.58438,-0.25335 1.91667,0.0789 0.33229,0.3323 -0.25834,0.56864 -1.3125,0.52522 -1.16495,-0.048 -1.4019,-0.28494 -0.60417,-0.60416 z M 351.15789,80 c 0,-1.375 0.22698,-1.9375 0.50439,-1.25 0.27741,0.6875 0.27741,1.8125 0,2.5 -0.27741,0.6875 -0.50439,0.125 -0.50439,-1.25 z M 257,35.622445 c 0,-0.207656 0.7875,-0.995156 1.75,-1.75 1.58606,-1.243871 1.62143,-1.208501 0.37756,0.377555 C 257.82119,35.915748 257,36.445479 257,35.622445 Z m -13,-12 c 0,-0.207656 0.7875,-0.995156 1.75,-1.75 1.58606,-1.243871 1.62143,-1.208501 0.37756,0.377555 C 244.82119,23.915748 244,24.445479 244,23.622445 Z"
       id="path226" /><path
       style="fill:#8c8c8c;fill-opacity:1"
       d="m 349.76166,327.29274 c 1.24391,-0.23919 3.04391,-0.23011 4,0.0202 0.95609,0.25029 -0.0617,0.446 -2.26166,0.4349 -2.2,-0.0111 -2.98225,-0.21589 -1.73834,-0.45508 z M 437,319.68709 c 0,-0.1721 1.4625,-1.6346 3.25,-3.25 l 3.25,-2.93709 -2.93709,3.25 C 437.82513,319.77946 437,320.45965 437,319.68709 Z M 410.5,290 c 10.98969,-11 20.20625,-20 20.48125,-20 0.275,0 -8.49156,9 -19.48125,20 -10.98969,11 -20.20625,20 -20.48125,20 -0.275,0 8.49156,-9 19.48125,-20 z m 38.69495,-60.5 c 0.0204,-1.65 0.2445,-2.20394 0.49804,-1.23097 0.25354,0.97297 0.23687,2.32297 -0.0371,3 -0.27393,0.67703 -0.48137,-0.11903 -0.46099,-1.76903 z"
       id="path225" /><path
       style="fill:#767676;fill-opacity:1"
       d="m 207.5,368 c 0.99549,-1.1 2.03498,-2 2.30998,-2 0.275,0 -0.31449,0.9 -1.30998,2 -0.99549,1.1 -2.03498,2 -2.30998,2 -0.275,0 0.31449,-0.9 1.30998,-2 z m 68.3125,-14.68311 c 0.72187,-0.28887 1.58438,-0.25335 1.91667,0.0789 0.33229,0.33229 -0.25834,0.56864 -1.3125,0.52522 -1.16495,-0.048 -1.4019,-0.28494 -0.60417,-0.60416 z M 434,322.62244 c 0,-0.20765 0.7875,-0.99515 1.75,-1.75 1.58606,-1.24387 1.62143,-1.2085 0.37756,0.37756 C 434.82119,322.91575 434,323.44548 434,322.62244 Z m 41.07895,-168.20577 c 0.048,-1.16495 0.28494,-1.4019 0.60416,-0.60417 0.28887,0.72187 0.25335,1.58437 -0.0789,1.91667 -0.33229,0.33229 -0.56864,-0.25834 -0.52522,-1.3125 z M 196.8125,84.316886 c 0.72187,-0.288871 1.58437,-0.253344 1.91667,0.07895 0.33229,0.332292 -0.25834,0.568641 -1.3125,0.52522 -1.16495,-0.04798 -1.4019,-0.284941 -0.60417,-0.604167 z m 9.26645,-1.900219 c 0.048,-1.164943 0.28494,-1.4019 0.60416,-0.604167 0.28887,0.721875 0.25335,1.584375 -0.0789,1.916667 -0.3323,0.332291 -0.56864,-0.258334 -0.52522,-1.3125 z m 0,-7 c 0.048,-1.164943 0.28494,-1.4019 0.60416,-0.604167 0.28887,0.721875 0.25335,1.584375 -0.0789,1.916667 -0.3323,0.332291 -0.56864,-0.258334 -0.52522,-1.3125 z M 301.8125,-1.683114 c 0.72187,-0.2888706 1.58438,-0.2533443 1.91667,0.078947 0.33229,0.3322917 -0.25834,0.5686404 -1.3125,0.5252193 -1.16495,-0.047984 -1.4019,-0.2849403 -0.60417,-0.6041663 z"
       id="path224" /><path
       style="fill:#606060;fill-opacity:1"
       d="m 431,325.62244 c 0,-0.20765 0.7875,-0.99515 1.75,-1.75 1.58606,-1.24387 1.62143,-1.2085 0.37756,0.37756 C 431.82119,325.91575 431,326.44548 431,325.62244 Z m 14,-14 c 0,-0.20765 0.7875,-0.99515 1.75,-1.75 1.58606,-1.24387 1.62143,-1.2085 0.37756,0.37756 C 445.82119,311.91575 445,312.44548 445,311.62244 Z M 239.07895,265.41667 c 0.048,-1.16495 0.28494,-1.4019 0.60416,-0.60417 0.28887,0.72187 0.25335,1.58438 -0.0789,1.91667 -0.3323,0.33229 -0.56864,-0.25834 -0.52522,-1.3125 z m -119,-86 c 0.048,-1.16495 0.28494,-1.4019 0.60416,-0.60417 0.28887,0.72187 0.25335,1.58437 -0.0789,1.91667 -0.3323,0.33229 -0.56864,-0.25834 -0.52522,-1.3125 z M 200.75,133.33772 c 0.6875,-0.27741 1.8125,-0.27741 2.5,0 0.6875,0.27741 0.125,0.50439 -1.25,0.50439 -1.375,0 -1.9375,-0.22698 -1.25,-0.50439 z M 489,86.622445 c 0,-0.207656 0.7875,-0.995156 1.75,-1.75 1.58606,-1.243871 1.62143,-1.208501 0.37756,0.377555 C 489.82119,86.915748 489,87.445479 489,86.622445 Z M 199.75,84.337719 c 0.6875,-0.277412 1.8125,-0.277412 2.5,0 0.6875,0.277413 0.125,0.504386 -1.25,0.504386 -1.375,0 -1.9375,-0.226973 -1.25,-0.504386 z M 255.15789,80 c 0,-1.375 0.22698,-1.9375 0.50439,-1.25 0.27741,0.6875 0.27741,1.8125 0,2.5 -0.27741,0.6875 -0.50439,0.125 -0.50439,-1.25 z m -49,-1 c 0,-1.375 0.22698,-1.9375 0.50439,-1.25 0.27741,0.6875 0.27741,1.8125 0,2.5 -0.27741,0.6875 -0.50439,0.125 -0.50439,-1.25 z"
       id="path223" /><path
       style="fill:#494949;fill-opacity:1"
       d="m 441.5,337 c 0.99549,-1.1 2.03498,-2 2.30998,-2 0.275,0 -0.31449,0.9 -1.30998,2 -0.99549,1.1 -2.03498,2 -2.30998,2 -0.275,0 0.31449,-0.9 1.30998,-2 z M 114.07895,322.41667 c 0.048,-1.16495 0.28494,-1.4019 0.60416,-0.60417 0.28887,0.72187 0.25335,1.58438 -0.0789,1.91667 -0.3323,0.33229 -0.56864,-0.25834 -0.52522,-1.3125 z M 458,320.62244 c 0,-0.20765 0.7875,-0.99515 1.75,-1.75 1.58606,-1.24387 1.62143,-1.2085 0.37756,0.37756 C 458.82119,320.91575 458,321.44548 458,320.62244 Z M 120.07895,176.41667 c 0.048,-1.16495 0.28494,-1.4019 0.60416,-0.60417 0.28887,0.72187 0.25335,1.58437 -0.0789,1.91667 -0.3323,0.33229 -0.56864,-0.25834 -0.52522,-1.3125 z M 522.15789,38 c 0,-1.375 0.22698,-1.9375 0.50439,-1.25 0.27741,0.6875 0.27741,1.8125 0,2.5 -0.27741,0.6875 -0.50439,0.125 -0.50439,-1.25 z M 443.8125,-7.683114 c 0.72187,-0.2888706 1.58438,-0.2533443 1.91667,0.078947 0.33229,0.3322917 -0.25834,0.5686404 -1.3125,0.5252193 -1.16495,-0.047984 -1.4019,-0.2849403 -0.60417,-0.6041663 z"
       id="path222" /><path
       style="fill:#333333;fill-opacity:1"
       d="m 281.70728,453.43939 c -9.65105,-3.07052 -16.98194,-14.76336 -15.21854,-24.27371 0.37383,-2.01613 6.06905,-17.62719 12.65605,-34.69126 10.45817,-27.09262 11.84507,-31.37089 10.94071,-33.74954 -2.00863,-5.28308 -10.89425,-8.66785 -17.82068,-6.78837 -3.56173,0.96648 -24.14718,16.7598 -46.26482,35.49474 -11.13459,9.43165 -16.40903,12.95293 -26.4497,17.65815 -13.0247,6.10358 -23.55963,8.31967 -39.5503,8.31967 -16.79303,0 -27.12126,-2.33146 -41.63796,-9.39924 C 88.802411,391.61808 69.982864,364.88793 66.018845,331.66469 61.546543,294.18144 81.13908,256.11936 114.51325,237.45547 118.08096,235.46029 121,233.69612 121,233.53509 c 0,-0.16103 -1.54636,-2.86077 -3.43636,-5.99942 -15.06135,-25.01185 -16.34383,-60.34498 -3.19384,-87.99212 15.2371,-32.03516 45.8521,-52.606407 80.74836,-54.257517 l 11.61816,-0.549711 0.54971,-11.618161 c 1.65111,-34.896258 22.22236,-65.5112652 54.25752,-80.7483593 23.00479,-10.9419227 49.4265,-12.1322877 73.77063,-3.3235517 4.68317,1.6945679 11.08284,4.6273941 14.22149,6.5173914 C 352.67432,-2.5463614 355.37406,-1 355.53509,-1 c 0.16103,0 1.9252,-2.9190388 3.92038,-6.4867528 18.66389,-33.3741672 56.72597,-52.9667042 94.20922,-48.4944022 39.50435,4.713449 70.54612,31.390463 81.03162,69.637847 3.6721,13.394503 3.88654,33.225809 0.5052,46.720301 -3.78341,15.099092 -10.9654,28.694441 -21.72396,41.123007 -15.57149,17.98858 -36.61409,45.31932 -37.54521,48.76482 -1.26091,4.66586 -0.36316,9.8057 2.43344,13.93201 4.13033,6.09418 4.32974,6.05639 38.74578,-7.34412 26.27079,-10.229 32.28517,-12.22793 36.88844,-12.26017 10.97617,-0.0769 19.62491,6.90383 22.06559,17.80994 2.39342,10.69492 3.08605,9.63224 -48.62088,74.59752 -25.60861,32.175 -50.46952,63 -55.24647,68.5 -10.91969,12.57251 -32.77333,34.35281 -45.76316,45.60956 -16.79001,14.54992 -124.73037,100.02691 -128.20542,101.52471 -5.06187,2.18174 -11.24797,2.48319 -16.52238,0.80512 z m 64.48843,-57.57186 c 68.46259,-54.37804 73.82205,-58.8792 93.30733,-78.36449 19.48529,-19.48528 23.98645,-24.84474 78.36449,-93.30733 C 563.74235,166.43876 563.6215,166.6215 559,162 c -1.1,-1.1 -3.13622,-2 -4.52494,-2 -1.38872,0 -16.12622,5.24938 -32.75,11.66528 -34.80827,13.43416 -37.69969,14.0496 -46.28143,9.85094 -13.05698,-6.38818 -19.06983,-24.08657 -13.10719,-38.58007 1.57014,-3.81655 8.0791,-12.709 20.72627,-28.31591 26.44145,-32.629399 27.736,-34.363936 31.52673,-42.242085 C 522.33092,56.289333 524.44011,35.432498 520.03797,18.5 512.57011,-10.224637 490.16825,-32.25996 461.5,-39.080178 c -7.50541,-1.785548 -11.07582,-2.064058 -21.5,-1.677105 -10.66872,0.39603 -13.89178,0.933671 -22,3.669834 -15.71164,5.301977 -29.06098,14.776035 -38.59113,27.3882263 C 374.9841,-3.843491 367,11.08882 367,13.508541 c 0,0.612885 -0.91753,2.099189 -2.03896,3.302898 -3.25267,3.491332 -7.69088,2.878915 -14.03043,-1.936023 C 343.95195,9.5750769 329.44855,2.6978097 320.5,0.44573319 310.4314,-2.0882257 292.95693,-1.889896 282.62184,0.87563831 259.74058,6.9983682 240.51114,22.714289 230.46821,43.5 c -6.75301,13.976614 -7.90852,19.464673 -7.94059,37.713648 -0.0241,13.729353 -0.25315,15.939226 -1.81356,17.5 -1.55992,1.560282 -3.83793,1.797352 -18,1.873282 -13.56983,0.0727 -17.35564,0.43676 -23.21406,2.23208 -28.35825,8.6904 -49.16638,29.93159 -56.62436,57.80283 -2.76947,10.34981 -2.96471,27.81757 -0.42336,37.87816 2.29394,9.08117 8.54051,22.48422 13.60536,29.19257 2.20356,2.9186 4.38024,6.31691 4.83706,7.5518 1.2707,3.43504 -0.62728,7.48242 -4.20064,8.95772 -23.95071,9.88832 -37.5727,21.79466 -47.248736,41.29791 -6.088397,12.27192 -8.447077,22.16972 -8.438318,35.40996 0.02443,36.93416 23.984614,68.01997 59.402954,77.0691 16.94265,4.32872 38.17838,2.20799 53.9682,-5.38962 7.80421,-3.75516 8.94298,-4.60452 42.64532,-31.80757 25.29594,-20.41777 29.48795,-22.81509 39.76403,-22.74028 16.50084,0.12013 30.20577,12.51293 28.99584,26.21973 -0.30531,3.45876 -4.42424,15.5026 -12.12289,35.44759 -6.41325,16.6149 -11.66046,31.3524 -11.66046,32.75 0,1.3976 0.9,3.44109 2,4.54109 4.6215,4.6215 4.43876,4.74235 62.19571,-41.13247 z M 155,386.04587 C 129.8586,382.4799 110.76441,366.67618 102.37591,342.4904 99.977308,335.57475 99.602433,332.95319 99.588847,323 c -0.01124,-8.23444 0.496313,-13.20377 1.787423,-17.5 6.2605,-20.83226 22.27303,-36.98945 43.12373,-43.51331 10.49737,-3.28446 26.20112,-3.1175 37,0.39339 14.58131,4.74062 25.2759,12.74911 33.92042,25.4008 12.58639,18.42082 14.10042,43.81237 3.84434,64.4727 -4.79059,9.65039 -16.92501,21.87247 -26.76476,26.95812 -11.47095,5.92873 -25.65662,8.51399 -37.5,6.83417 z m 20.46504,-16.57878 c 19.13478,-4.98398 33.58411,-22.40367 35.22467,-42.46585 1.17757,-14.40041 -4.38459,-28.75434 -14.97033,-38.63303 -10.91549,-10.18641 -21.61793,-13.99351 -36.89032,-13.12272 -33.57082,1.91412 -54.19678,38.11625 -39.1725,68.75451 6.10662,12.45291 17.44991,21.92208 30.44807,25.41748 7.14903,1.92248 18.08781,1.94388 25.36041,0.0496 z M 337.5,326.29146 C 317.75457,323.60034 286.10686,310.6004 264.8495,296.4488 245.8464,283.79792 240,276.51653 240,265.5 c 0,-8.49235 2.71894,-13.38022 11.29079,-20.29759 12.91152,-10.41942 22.44858,-24.3789 27.80772,-40.70241 2.01522,-6.13821 2.31099,-9.12577 2.40241,-24.26688 0.0891,-14.74806 0.34942,-17.51203 1.78479,-18.94741 1.43538,-1.43537 4.19935,-1.69573 18.94741,-1.78479 15.14111,-0.0914 18.12867,-0.38719 24.26688,-2.40241 16.38015,-5.37774 29.32151,-14.11756 39.97888,-26.99935 7.66862,-9.26924 12.6967,-12.24718 20.75619,-12.29313 7.65003,-0.0436 12.90918,2.50234 19.19587,9.29273 15.39361,16.62693 32.22102,49.22479 39.18113,75.90124 3.08914,11.83994 4.22483,30.06876 2.43889,39.14652 -2.34875,11.93845 -4.11973,14.20804 -36.3057,46.52731 -31.02947,31.15798 -34.69884,34.16304 -45.09545,36.93124 -4.79778,1.27746 -21.86441,1.67933 -29.14981,0.68639 z m 29,-16.69092 c 5.72571,-2.39403 61.94225,-58.4092 64.71012,-64.47832 2.80896,-6.15922 3.37263,-17.55414 1.4222,-28.75055 -4.46335,-25.62175 -20.92328,-60.56773 -36.56063,-77.62167 -7.97328,-8.69558 -9.88403,-8.24097 -21.01537,5 -15.07391,17.93076 -40.18928,29.89728 -66.68603,31.77336 l -10.1297,0.71723 -0.71723,10.1297 c -1.87608,26.49675 -13.8426,51.61212 -31.77336,66.68603 -13.24097,11.13134 -13.69558,13.04209 -5,21.01537 16.4085,15.04553 51.27888,31.72628 76.1747,36.43926 9.53568,1.80519 24.15698,1.3551 29.5753,-0.91041 z M 187,243.42901 c -8.21715,-2.15046 -20.8175,-8.72648 -26.7628,-13.96731 -19.48351,-17.17483 -26.75949,-45.40203 -17.95524,-69.65744 3.57765,-9.85632 7.29174,-15.5693 15.23656,-23.43673 34.60526,-34.26821 93.8221,-17.76734 105.96921,29.5285 1.93564,7.53657 2.17642,23.45901 0.46354,30.65215 -0.64854,2.7235 -2.9859,8.77682 -5.19412,13.45182 -3.27534,6.93416 -5.511,9.97453 -12.13606,16.50433 -9.30464,9.17086 -16.92454,13.63207 -28.2171,16.52023 -9.19998,2.35296 -23.26628,2.53412 -31.40399,0.40445 z m 24.11351,-14.4278 c 12.70169,-2.35521 26.41577,-12.14097 32.81253,-23.41357 8.76548,-15.44683 8.08463,-34.97789 -1.74974,-50.19357 -4.94489,-7.65071 -10.90637,-12.79576 -19.6763,-16.9816 -24.20455,-11.55273 -51.68441,-1.98949 -63.64562,22.14924 -3.72733,7.52206 -4.17485,9.23702 -4.61718,17.69347 -0.7559,14.4514 3.14612,25.55343 12.60203,35.85532 11.35623,12.37221 27.8819,17.93027 44.27428,14.89071 z m 83.09145,-86.10595 c -16.05482,-2.41357 -31.05772,-11.32603 -40.86886,-24.27807 -19.37645,-25.579603 -17.25657,-60.591456 5.03143,-83.098674 3.92286,-3.961445 9.32866,-8.475859 12.0129,-10.03203 26.70293,-15.480883 60.88533,-10.106352 81.09542,12.750712 5.39282,6.09914 12.87002,20.888947 14.43993,28.562023 1.70006,8.309208 1.31915,20.96227 -0.89122,29.604768 -2.88816,11.292561 -7.34937,18.912461 -16.52023,28.217101 -6.51764,6.61272 -9.58308,8.86898 -16.50433,12.14768 -12.66381,5.99903 -25.16423,8.02533 -37.79504,6.12649 z M 317.0685,126.40654 C 340.04335,119.66633 355.08918,95.960816 351.17465,72.670486 349.48528,62.61924 344.8787,53.73198 337.54698,46.379274 326.99504,35.797115 315.50444,31.439567 300.25518,32.237201 c -8.45645,0.442328 -10.17141,0.889851 -17.69347,4.61718 -24.1318,11.95778 -33.68647,39.393916 -22.16466,63.645619 5.90509,12.42934 15.2538,20.68039 28.57986,25.22418 7.98031,2.72106 20.13599,3.01632 28.09159,0.68236 z M 430,102.48412 C 408.25178,97.148847 390.88522,80.548149 383.98669,58.5 c -3.08314,-9.853944 -3.08314,-26.146056 0,-36 6.5233,-20.8489028 22.66476,-36.847476 43.51331,-43.128121 4.33969,-1.307335 9.18226,-1.795295 17.5,-1.763379 9.86538,0.03786 12.63576,0.434633 19.4904,2.791446 27.05495,9.302232 43.80077,32.470729 43.80077,60.600054 0,18.053533 -5.6363,31.445408 -18.74429,44.536524 -9.19959,9.187752 -16.63768,13.545495 -28.14289,16.488036 -9.04143,2.3124 -23.0175,2.51693 -31.40399,0.45956 z M 461.5,85.957047 C 485.02024,77.130369 497.76412,52.710899 491.46709,28.534962 485.42981,5.3562825 462.21575,-10.181774 438.5,-6.9179289 421.60015,-4.5921124 408.74726,4.9463912 401.1912,20.770017 397.56681,28.36008 397.5,28.718576 397.5,40.575391 v 12.075391 l 4.24088,8.558452 c 6.72682,13.575291 19.54299,23.858359 33.36745,26.772404 7.02855,1.481541 19.62359,0.515334 26.39167,-2.024591 z"
       id="path221" /></g><path
     style="fill:#ffffff;stroke:none;stroke-width:22.6242;stroke-linecap:round;stroke-dasharray:none"
     d="m 224.04356,493.41151 c -0.90392,-1.37956 -1.23643,-3.09499 -0.94637,-4.88244 0.24596,-1.51561 4.62519,-13.94947 9.73165,-27.63082 9.9704,-26.71295 13.67405,-37.76509 13.67405,-40.8051 0,-4.47726 -2.65829,-10.61922 -6.39479,-14.7751 -5.32839,-5.92645 -12.49936,-9.35691 -20.8853,-9.99114 -12.19679,-0.92244 -15.64467,1.00804 -47.82099,26.77513 -26.93357,21.56866 -32.21294,25.34568 -39.86931,28.5237 -29.90385,12.41252 -62.498726,6.71382 -85.263064,-14.90694 -18.195159,-17.28111 -26.608775,-39.94776 -24.226424,-65.26705 0.940373,-9.99417 3.102805,-17.24552 8.220088,-27.56468 8.144934,-16.42453 19.532164,-27.40955 37.969245,-36.62815 15.885856,-7.94296 16.604641,-9.84393 8.188938,-21.65725 -3.608069,-5.06472 -8.921016,-15.75645 -11.770261,-23.68636 -4.976559,-13.85056 -4.457769,-34.40169 1.267881,-50.2253 7.262882,-20.07195 24.588183,-38.07614 44.872767,-46.6311 9.99804,-4.21663 15.66199,-5.319 27.65516,-5.38244 12.86913,-0.0681 21.59842,-0.96965 23.00591,-2.37604 0.73205,-0.73148 1.21156,-6.12662 1.57172,-17.68395 0.58149,-18.66026 1.51496,-23.53156 6.59231,-34.40185 4.39675,-9.413159 8.67929,-15.862436 14.73586,-22.191401 13.01754,-13.603021 29.09174,-22.180875 46.27276,-24.693074 9.56188,-1.398132 24.8097,-0.558127 32.33916,1.781569 7.34856,2.283484 19.73378,8.155695 25.32775,12.008655 11.99509,8.261869 15.94344,7.700251 20.24799,-2.880097 2.7964,-6.87339 8.47902,-16.36652 13.71853,-22.917575 8.70152,-10.879663 23.35418,-20.45142 39.05363,-25.511534 6.6166,-2.132608 8.29359,-2.317936 21.52679,-2.378991 13.34106,-0.06155 14.87339,0.09548 21.77019,2.230923 14.35045,4.443321 25.82583,11.428523 35.33523,21.508985 9.23815,9.792926 14.60252,18.973574 18.85711,32.272263 3.23846,10.122544 3.85636,25.683222 1.47542,37.155527 -1.94317,9.36302 -5.71978,19.25974 -9.74119,25.5271 -1.56348,2.43667 -11.51036,15.25703 -22.10418,28.48967 -22.10999,27.61738 -26.15468,33.39653 -27.47344,39.25474 -0.52261,2.32152 -1.25128,5.22589 -1.61927,6.45417 -0.36799,1.22826 -0.34301,2.7478 0.0555,3.37675 0.39853,0.62893 0.73042,2.17396 0.73753,3.43338 0.0422,7.46944 7.92239,18.73061 15.61328,22.31204 7.89317,3.67561 12.67182,2.78031 39.4896,-7.39854 9.86277,-3.74347 22.82477,-8.55032 28.80446,-10.68188 10.01727,-3.57085 11.03958,-3.78048 13.00151,-2.66597 5.34977,3.03901 4.64487,5.41219 -5.74525,19.34229 -12.45162,16.694 -70.78049,90.00919 -85.98218,108.07343 -17.64051,20.96231 -41.1373,43.71823 -66.79422,64.68814 -11.26888,9.21029 -74.76757,59.72573 -88.63973,70.51603 -18.30014,14.23455 -22.99237,16.43033 -25.83608,12.09028 z M 118.13744,442.32065 c 18.23608,-4.28133 33.58482,-16.49619 41.85805,-33.31158 7.38227,-15.0045 8.54686,-33.65686 3.08463,-49.40397 -5.59596,-16.13266 -17.39456,-29.42008 -32.5571,-36.66537 -9.95948,-4.75904 -15.46195,-5.88213 -28.79837,-5.87793 -11.027857,0.003 -12.309698,0.17703 -19.157929,2.59397 -10.126184,3.57383 -18.636508,9.11565 -26.081921,16.98422 -7.489882,7.91557 -11.096124,13.77079 -14.419078,23.41134 -2.305712,6.68932 -2.482199,8.08134 -2.489672,19.63684 -0.0071,11.03414 0.235665,13.19898 2.152357,19.19064 5.862704,18.32707 19.783365,33.67626 36.828913,40.60826 11.946283,4.85827 26.51384,5.90117 39.58012,2.83358 z M 294.6216,385.05818 c 0,-0.40465 2.9441,-0.91005 6.54246,-1.12312 7.54298,-0.44663 12.69071,-2.43461 19.37784,-7.48344 2.45876,-1.85638 4.47047,-3.08031 4.47047,-2.71985 0,0.36046 11.77642,-11.11644 26.16982,-25.50424 14.39341,-14.38779 26.16983,-26.46059 26.16983,-26.82847 0,-0.36787 1.89296,-3.1386 4.20658,-6.15719 4.70694,-6.14115 6.41121,-10.9356 7.6036,-21.3904 0.98749,-8.6582 -0.73045,-24.75568 -3.8819,-36.37414 -8.39525,-30.95088 -31.83002,-71.31767 -46.33968,-79.82089 -4.83488,-2.83343 -12.21019,-3.52879 -18.38588,-1.73347 -4.36734,1.26962 -5.8003,2.4189 -17.24753,13.83311 -13.13984,13.10195 -18.59057,16.9553 -31.24889,22.09114 -8.65779,3.51272 -12.70511,4.13533 -30.79449,4.73724 -11.59092,0.38567 -17.09276,0.88781 -18.14318,1.6559 -1.33791,0.9783 -1.56608,3.17707 -2.02735,19.53653 -0.57857,20.51972 -1.11717,23.07881 -7.59138,36.06921 -4.98074,9.99379 -9.92188,16.36393 -20.10587,25.92058 -5.06546,4.75343 -10.00923,10.06477 -10.98617,11.80301 -3.97058,7.06469 -3.75537,15.51347 0.60846,23.88688 3.89495,7.47374 21.99911,20.3764 43.38435,30.91963 20.9924,10.34954 38.67606,16.25741 53.40567,17.84207 4.665,0.50189 8.64011,1.06171 8.83358,1.24407 0.70674,0.66619 5.97966,0.3098 5.97966,-0.40416 z M 159.29536,300.46951 c 8.40029,-2.12221 14.50957,-5.18725 21.65134,-10.86256 11.32471,-8.99933 17.39918,-17.68209 22.03792,-31.50069 1.92926,-5.74718 2.19905,-7.9298 2.20921,-17.87248 0.0138,-13.50255 -1.30385,-20.07305 -5.93774,-29.60888 -8.1014,-16.67145 -24.54091,-29.59955 -42.82587,-33.67843 -7.74467,-1.72762 -22.5358,-1.74827 -29.80203,-0.0416 -6.94162,1.63042 -17.73958,6.88386 -23.21516,11.29465 -2.32152,1.87008 -5.08542,3.7813 -6.142,4.24717 -1.056581,0.46585 -2.168043,1.49065 -2.469917,2.27733 -0.301873,0.78666 -2.290204,3.73647 -4.418513,6.55512 -14.643371,19.39311 -15.887064,49.98906 -2.877575,70.79089 3.298841,5.27476 10.56707,14.95388 11.229144,14.95388 0.316921,0 3.650491,2.02258 7.407921,4.49461 8.34349,5.48924 18.97413,9.80408 26.36159,10.69986 7.44028,0.90218 19.38415,0.12252 26.79168,-1.74887 z m 98.95486,-101.00114 c 6.6144,-1.58182 15.32851,-5.11224 20.37251,-8.25368 5.49856,-3.42453 16.7769,-15.32674 20.4572,-21.58882 8.74492,-14.87956 10.92716,-36.85307 5.17794,-52.13771 -6.84837,-18.206724 -17.67663,-30.431889 -33.28027,-37.573563 -9.96684,-4.561748 -16.64823,-5.949828 -28.27356,-5.873915 -15.22952,0.09945 -27.73537,4.180476 -37.73668,12.314583 -2.46,2.000724 -5.14614,3.894419 -5.96919,4.208211 -0.82307,0.313791 -1.74459,1.217083 -2.04783,2.007316 -0.30324,0.790232 -2.33613,3.794811 -4.51752,6.676841 -8.82953,11.665407 -12.11371,22.048937 -12.13121,38.355007 -0.0115,10.69245 0.15799,11.88918 2.74304,19.37056 6.00503,17.37915 16.61403,29.75144 32.27329,37.63731 13.13813,6.61625 28.37182,8.33998 42.93228,4.85786 z m 134.85864,-38.27225 c 11.71036,-1.20711 23.06637,-5.80121 30.78357,-12.45354 2.02883,-1.74887 4.73346,-3.83991 6.01029,-4.64675 1.27683,-0.80684 2.32152,-1.87479 2.32152,-2.37322 0,-0.49843 1.53807,-2.65358 3.41794,-4.78922 4.1864,-4.756 9.59942,-15.58953 11.47607,-22.96801 2.01371,-7.91743 1.78973,-23.73293 -0.45775,-32.321191 -5.11238,-19.535813 -19.08295,-35.092069 -38.49611,-42.865474 -9.0489,-3.623357 -14.47061,-4.412311 -27.01352,-3.930947 -12.11083,0.464783 -16.13065,1.526014 -26.80607,7.0768 -8.93879,4.647804 -21.00215,16.900466 -25.80763,26.212613 -5.07632,9.836981 -6.90156,17.715097 -6.90156,29.788623 0,15.811556 3.58665,26.637106 12.96407,39.129396 10.24899,13.65335 29.19449,24.1847 43.50733,24.1847 2.61076,0 4.31014,0.37166 4.31014,0.94265 0,0.59529 0.69991,0.71813 1.89942,0.33337 1.04468,-0.3351 5.00121,-0.92902 8.79229,-1.3198 z"
     id="path229" /></svg>
