<?xml version="1.0" encoding="UTF-8" standalone="no"?>
<!-- Created with Inkscape (http://www.inkscape.org/) -->

<svg
   width="501.55487"
   height="503.64981"
   viewBox="0 0 132.70306 133.25735"
   version="1.1"
   id="svg1"
   xml:space="preserve"
   xmlns="http://www.w3.org/2000/svg"
   xmlns:svg="http://www.w3.org/2000/svg"><defs
     id="defs1" /><g
     id="layer1"
     transform="translate(-1.4109759,-0.95584728)"><path
       style="fill:#000000;stroke-width:0.629728"
       d="m 16.871675,134.11466 c -1.32279,-0.17094 -2.748218,-0.67703 -3.972126,-1.41032 -0.599449,-0.35913 -2.30586,-1.96598 -4.8812416,-4.59642 -3.3553801,-3.4271 -4.0679295,-4.2432 -4.6695179,-5.34805 -2.2633583,-4.15677 -2.57156241,-9.44631 -0.7793595,-13.3757 0.53501,-1.17299 1.5753823,-2.71521 2.454604,-3.63863 2.8185781,-2.96026 87.351873,-85.328755 89.101704,-86.819919 7.838092,-6.67942 14.310762,-10.8201378 20.846412,-13.3359438 4.43709,-1.707994 13.93899,-4.3910085 16.34695,-4.61582356 1.14583,-0.106978 2.04178,0.26560326 2.50283,1.04079446 0.38977,0.6553785 0.38951,2.2066912 -9.2e-4,4.798082 -1.30914,8.6914799 -4.783,19.3330459 -9.08096,27.8180559 -5.40734,10.675177 -15.86329,24.889015 -28.539829,38.797105 -6.069453,6.659102 -24.504841,25.835562 -25.367621,26.387357 -0.473017,0.302522 -1.743823,0.333442 -2.266632,0.0552 -0.22518,-0.11987 -2.300244,-2.136633 -4.611255,-4.481722 -4.52124,-4.587916 -5.000657,-4.952923 -6.526802,-4.969236 -3.581429,-0.03847 -8.688927,5.184625 -15.951509,16.31206 -2.372699,3.63534 -7.285818,11.64068 -10.91923,17.79158 -2.267915,3.8393 -3.155613,5.09538 -4.569494,6.46579 -2.589921,2.51032 -5.679789,3.56977 -9.116033,3.12577 z m 3.680018,-5.5416 c 1.830599,-0.79304 3.311108,-2.59604 6.300869,-7.67334 C 40.49191,97.736982 46.909693,89.354753 53.3554,86.284517 53.919511,86.01581 54.36637,85.742298 54.348419,85.676704 54.301799,85.506372 43.98666,74.933769 43.865786,74.932434 43.810616,74.931824 35.759199,82.772152 25.973742,92.355379 8.7205621,109.25201 8.1631232,109.8172 7.558379,111.02688 c -1.1699801,2.34033 -1.3546947,4.87321 -0.534952,7.3355 0.6994649,2.10101 1.4533685,3.09735 5.141458,6.79482 1.936082,1.941 2.951611,2.83128 3.612708,3.16714 1.71733,0.87246 3.160734,0.94766 4.7741,0.24872 z M 74.040756,89.637315 c 19.005572,-19.53426 27.154154,-28.701953 34.502274,-38.817423 9.07523,-12.493032 13.60011,-20.925343 16.97963,-31.642336 1.51331,-4.798947 3.28069,-11.9550771 3.01873,-12.2228891 -0.16631,-0.1700233 -6.55437,1.5739434 -9.66646,2.6389796 -7.30381,2.4995605 -13.9677,6.6653095 -22.384609,13.9931515 -2.056646,1.790516 -48.930577,47.588075 -48.933022,47.809342 -0.0016,0.146584 21.8407,22.813734 21.985107,22.81533 0.02612,2.88e-4 2.050372,-2.058078 4.49835,-4.574155 z m -8.308144,-11.88936 c -0.273339,-0.144187 -1.963297,-1.755754 -3.755462,-3.581262 -3.464064,-3.528501 -3.73486,-3.927136 -3.493013,-5.142056 0.151765,-0.762391 0.964311,-1.675877 1.698174,-1.909108 1.179178,-0.374769 1.5455,-0.117411 5.234545,3.677481 1.870618,1.924282 3.482249,3.663377 3.581403,3.864643 0.09915,0.201266 0.176783,0.682428 0.172508,1.069244 -0.01828,1.65438 -1.964521,2.798439 -3.438155,2.021058 z m 6.992452,-7.013026 c -0.502169,-0.202925 -7.01387,-6.789675 -7.343915,-7.428556 -0.302924,-0.586378 -0.286559,-1.690688 0.03405,-2.294138 0.482372,-0.908067 1.564963,-1.425434 2.571621,-1.22896 0.512888,0.100063 1.187688,0.707581 4.274082,3.847708 3.821672,3.888202 4.128329,4.311922 3.910952,5.403923 -0.293301,1.473394 -1.965965,2.298403 -3.446735,1.700023 z"
       id="path78" /><path
       style="fill:#ffffff;stroke-width:8.60629"
       d="m 229.9113,321.34787 c -18.00644,-18.70481 -36.48238,-37.87022 -41.05764,-42.58981 l -8.31866,-8.58106 8.28843,-8.38837 C 200.087,250.38926 307.64216,145.07692 339.16197,114.58508 c 28.21464,-27.294481 33.1904,-31.714492 49.97202,-44.390682 19.94727,-15.067401 40.48572,-26.487336 59.58656,-33.131756 11.16859,-3.885104 35.7242,-10.540527 36.39926,-9.865463 1.32533,1.325321 -9.42107,41.021835 -16.06103,59.328452 -20.31043,55.996609 -61.24331,115.316119 -132.5031,192.022119 -11.96373,12.8781 -73.29522,76.80885 -73.68599,76.80885 -0.12067,0 -14.95194,-15.30393 -32.95839,-34.00873 z m 28.66918,-28.53855 c 2.44889,-2.06061 2.84723,-3.0153 2.84723,-6.82389 0,-4.41901 -0.0247,-4.45384 -12.07208,-16.98813 -16.85529,-17.53657 -19.70216,-19.0119 -25.49948,-13.21458 -2.53604,2.53604 -3.14639,3.86898 -3.14639,6.87144 0,3.40687 0.7559,4.56218 8.84972,13.52577 16.80801,18.61422 22.67013,21.97329 29.021,16.62939 z m 26.97901,-27.14609 c 1.95549,-1.95548 2.70505,-3.59923 2.70505,-5.93205 0,-4.12401 -3.58704,-8.65588 -18.25085,-23.05813 -10.50158,-10.31426 -11.26624,-10.87354 -14.86664,-10.87354 -2.67818,0 -4.56003,0.65752 -6.39209,2.2334 -2.19713,1.88988 -2.59648,2.94074 -2.59648,6.83242 0,4.49112 0.17447,4.7807 7.43579,12.34178 4.08968,4.25851 10.62678,10.76189 14.52689,14.45195 6.44777,6.10053 7.43776,6.70921 10.9122,6.70921 2.98944,0 4.40985,-0.58875 6.52613,-2.70504 z"
       id="path79"
       transform="scale(0.26458333)" /><path
       style="fill:#ffffff;stroke-width:8.60629"
       d="m 65.075191,486.36262 c -2.381718,-0.62131 -5.921403,-2.33629 -7.865967,-3.81106 -4.984224,-3.78009 -22.120311,-21.38412 -25.415761,-26.10981 -6.984502,-10.0158 -8.303175,-24.02629 -3.286543,-34.91849 2.869499,-6.23031 7.649432,-11.08683 91.35951,-92.82352 l 45.78157,-44.70231 19.20221,19.41497 c 10.56122,10.67823 19.20122,19.75878 19.20001,20.179 -0.001,0.42022 -2.3951,2.01334 -5.31977,3.54026 -21.59578,11.27482 -43.3887,39.30603 -87.68151,112.78065 -11.975263,19.86503 -21.341362,34.34618 -24.404574,37.7325 -7.509684,8.30182 -13.650046,10.78362 -21.569175,8.71781 z"
       id="path80"
       transform="scale(0.26458333)" /></g></svg>
