<?xml version="1.0" encoding="UTF-8" standalone="no"?>
<!-- Created with Inkscape (http://www.inkscape.org/) -->

<svg
   width="512"
   height="512"
   viewBox="0 0 512 512"
   version="1.1"
   id="svg1"
   xml:space="preserve"
   xmlns="http://www.w3.org/2000/svg"
   xmlns:svg="http://www.w3.org/2000/svg"><defs
     id="defs1" /><g
     id="g373"
     transform="translate(-2.9846554,-4.1785176)"><path
       style="fill:#d0d0d0;fill-opacity:1"
       d="m 82.893219,387.38248 -5.465839,-5.75 5.75,5.46584 c 5.341932,5.07794 6.208093,6.03416 5.465839,6.03416 -0.156288,0 -2.743788,-2.5875 -5.75,-5.75 z m 177.016291,-16.5 c 5.76518,-5.9125 10.60268,-10.75 10.75,-10.75 0.72221,0 -0.4973,1.28184 -10.48213,11.01787 l -10.75,10.48213 z m 59.01787,-158.25 c -4.09747,-4.125 -7.22495,-7.5 -6.94995,-7.5 0.275,0 3.85248,3.375 7.94995,7.5 4.09747,4.125 7.22494,7.5 6.94994,7.5 -0.275,0 -3.85247,-3.375 -7.94994,-7.5 z m -24,-18 c 13.46658,-13.475 24.70969,-24.5 24.98469,-24.5 0.275,0 -10.51811,11.025 -23.98469,24.5 -13.46658,13.475 -24.70969,24.5 -24.98469,24.5 -0.275,0 10.51811,-11.025 23.98469,-24.5 z m 127.8125,8.81689 c 0.72187,-0.28887 1.58437,-0.25335 1.91667,0.079 0.33229,0.33229 -0.25834,0.56864 -1.3125,0.52522 -1.16495,-0.048 -1.4019,-0.28495 -0.60417,-0.60417 z m -20.8125,-24.69444 c 0,-0.20766 0.7875,-0.99516 1.75,-1.75 1.58606,-1.24387 1.62143,-1.2085 0.37755,0.37755 -1.30636,1.66575 -2.12755,2.19548 -2.12755,1.37245 z"
       id="path380" /><path
       style="fill:#b9b9b9;fill-opacity:1"
       d="m 491.12233,79.632483 c 0.0204,-1.65 0.2445,-2.203936 0.49804,-1.230969 0.25354,0.972968 0.23687,2.322968 -0.037,3 -0.27393,0.677033 -0.48137,-0.119031 -0.46099,-1.769031 z M 413.73988,40.449368 c 0.72187,-0.28887 1.58437,-0.253344 1.91667,0.07895 0.33229,0.332292 -0.25834,0.56864 -1.3125,0.525219 -1.16495,-0.04798 -1.4019,-0.28494 -0.60417,-0.604167 z"
       id="path379" /><path
       style="fill:#a3a3a3;fill-opacity:1"
       d="m 108.41696,386.88248 -17.98958,-18.25 18.25,17.98958 c 10.0375,9.89427 18.25,18.10677 18.25,18.25 0,0.71224 -1.79653,-1.03374 -18.51042,-17.98958 z m 198.97912,-160 -5.9687,-6.25 6.25,5.9687 c 5.80572,5.54441 6.7076,6.5313 5.9687,6.5313 -0.15472,0 -2.96722,-2.8125 -6.25,-6.25 z m -23.4687,4.87245 c 0,-0.20766 0.7875,-0.99516 1.75,-1.75 1.58606,-1.24387 1.62143,-1.2085 0.37755,0.37755 -1.30636,1.66575 -2.12755,2.19548 -2.12755,1.37245 z m 133.26903,-28.31544 c 0.97297,-0.25354 2.32297,-0.23687 3,0.0371 0.67703,0.27392 -0.11903,0.48136 -1.76903,0.46098 -1.65,-0.0204 -2.20394,-0.24449 -1.23097,-0.49804 z M 491.08527,75.132483 c 0,-1.375 0.22698,-1.9375 0.50439,-1.25 0.27741,0.6875 0.27741,1.8125 0,2.5 -0.27741,0.6875 -0.50439,0.125 -0.50439,-1.25 z M 392.19113,58.414901 c 1.52006,-0.229854 3.77006,-0.223712 5,0.01365 1.22994,0.237362 -0.0137,0.425425 -2.76375,0.417917 -2.75,-0.0075 -3.75631,-0.201712 -2.23625,-0.431567 z m 18.54875,-17.965533 c 0.72187,-0.28887 1.58437,-0.253344 1.91667,0.07895 0.33229,0.332292 -0.25834,0.56864 -1.3125,0.525219 -1.16495,-0.04798 -1.4019,-0.28494 -0.60417,-0.604167 z m 5.9375,0.02083 c 0.6875,-0.277412 1.8125,-0.277412 2.5,0 0.6875,0.277412 0.125,0.504386 -1.25,0.504386 -1.375,0 -1.9375,-0.226974 -1.25,-0.504386 z"
       id="path378" /><path
       style="fill:#8c8c8c;fill-opacity:1"
       d="m 144.41696,422.88248 -17.98958,-18.25 18.25,17.98958 c 10.0375,9.89427 18.25,18.10677 18.25,18.25 0,0.71224 -1.79653,-1.03374 -18.51042,-17.98958 z m 147.51042,-199.25 c 2.98742,-3.025 5.65668,-5.5 5.93168,-5.5 0.275,0 -1.94426,2.475 -4.93168,5.5 -2.98742,3.025 -5.65668,5.5 -5.93168,5.5 -0.275,0 1.94426,-2.475 4.93168,-5.5 z m 25.5,-25.5 c 3.26557,-3.3 6.16239,-6 6.43739,-6 0.275,0 -2.17182,2.7 -5.43739,6 -3.26557,3.3 -6.16239,6 -6.43739,6 -0.275,0 2.17182,-2.7 5.43739,-6 z m 21.57895,-89.58333 c 0.048,-1.16494 0.28494,-1.4019 0.60416,-0.60417 0.28887,0.72188 0.25335,1.58438 -0.0789,1.91667 -0.3323,0.33229 -0.56864,-0.25833 -0.52522,-1.3125 z m 152,-23.000001 c 0.048,-1.164943 0.28494,-1.401899 0.60416,-0.604166 0.28887,0.721875 0.25335,1.584375 -0.0789,1.916666 -0.3323,0.332292 -0.56864,-0.258333 -0.52522,-1.3125 z m 0,-14 c 0.048,-1.164943 0.28494,-1.401899 0.60416,-0.604166 0.28887,0.721875 0.25335,1.584375 -0.0789,1.916666 -0.3323,0.332292 -0.56864,-0.258333 -0.52522,-1.3125 z M 406.67738,40.470202 c 0.6875,-0.277412 1.8125,-0.277412 2.5,0 0.6875,0.277412 0.125,0.504386 -1.25,0.504386 -1.375,0 -1.9375,-0.226974 -1.25,-0.504386 z m 14.0625,-0.02083 c 0.72187,-0.28887 1.58437,-0.253344 1.91667,0.07895 0.33229,0.332292 -0.25834,0.56864 -1.3125,0.525219 -1.16495,-0.04798 -1.4019,-0.28494 -0.60417,-0.604167 z"
       id="path377" /><path
       style="fill:#767676;fill-opacity:1"
       d="m 191.92738,412.63248 c 7.96077,-7.975 14.69913,-14.5 14.97413,-14.5 0.275,0 -6.01336,6.525 -13.97413,14.5 -7.96077,7.975 -14.69913,14.5 -14.97413,14.5 -0.275,0 6.01336,-6.525 13.97413,-14.5 z m 45.5,-45.5 c 7.68526,-7.7 14.19821,-14 14.47321,-14 0.275,0 -5.78795,6.3 -13.47321,14 -7.68526,7.7 -14.19821,14 -14.47321,14 -0.275,0 5.78795,-6.3 13.47321,-14 z m -82.02346,-47.25 -7.97654,-8.25 8.25,7.97654 c 4.5375,4.3871 8.25,8.0996 8.25,8.25 0,0.72935 -1.1151,-0.31419 -8.52346,-7.97654 z M 402.19641,58.439492 c 0.97297,-0.253544 2.32297,-0.236869 3,0.03705 0.67703,0.273923 -0.11903,0.481367 -1.76903,0.460988 -1.65,-0.02038 -2.20394,-0.244499 -1.23097,-0.498042 z m 1.54347,-17.990124 c 0.72187,-0.28887 1.58437,-0.253344 1.91667,0.07895 0.33229,0.332292 -0.25834,0.56864 -1.3125,0.525219 -1.16495,-0.04798 -1.4019,-0.28494 -0.60417,-0.604167 z"
       id="path376" /><path
       style="fill:#606060;fill-opacity:1"
       d="m 130.92738,473.63248 c 10.16385,-10.175 18.70473,-18.5 18.97973,-18.5 0.275,0 -7.81588,8.325 -17.97973,18.5 -10.16385,10.175 -18.70473,18.5 -18.97973,18.5 -0.275,0 7.81588,-8.325 17.97973,-18.5 z m 39.5,-39.5 c 3.8205,-3.85 7.17136,-7 7.44636,-7 0.275,0 -2.62586,3.15 -6.44636,7 -3.8205,3.85 -7.17136,7 -7.44636,7 -0.275,0 2.62586,-3.15 6.44636,-7 z m 50.5,-50.37755 c 0,-0.20766 0.7875,-0.99516 1.75,-1.75 1.58606,-1.24387 1.62143,-1.2085 0.37755,0.37755 -1.30636,1.66575 -2.12755,2.19548 -2.12755,1.37245 z m -33.00765,-31.37245 -24.49235,-24.75 24.75,24.49235 c 22.99874,22.75931 25.20075,25.00765 24.49235,25.00765 -0.14171,0 -11.27921,-11.1375 -24.75,-24.75 z m 67.50765,-3.25 c 0.99549,-1.1 2.03497,-2 2.30997,-2 0.275,0 -0.31448,0.9 -1.30997,2 -0.99549,1.1 -2.03498,2 -2.30998,2 -0.275,0 0.31449,-0.9 1.30998,-2 z m 69.5,-100.5 c 6.85849,-6.875 12.69499,-12.5 12.96999,-12.5 0.275,0 -5.1115,5.625 -11.96999,12.5 -6.85849,6.875 -12.69499,12.5 -12.96999,12.5 -0.275,0 5.1115,-5.625 11.96999,-12.5 z m 15.5,-15.5 c 0.99549,-1.1 2.03497,-2 2.30997,-2 0.275,0 -0.31448,0.9 -1.30997,2 -0.99549,1.1 -2.03498,2 -2.30998,2 -0.275,0 0.31449,-0.9 1.30998,-2 z m 6.48706,-48.75 -14.48706,-14.75 14.75,14.48707 c 8.1125,7.96788 14.75,14.60538 14.75,14.75 0,0.71566 -1.55485,-0.78472 -15.01294,-14.48707 z m 26.01294,-64.62755 c 0,-0.20766 0.7875,-0.99516 1.75,-1.75 1.58606,-1.24387 1.62143,-1.2085 0.37755,0.37755 -1.30636,1.66575 -2.12755,2.19548 -2.12755,1.37245 z m -51.768,-11.62245 c 0,-1.925 0.2058,-2.7125 0.45733,-1.75 0.25152,0.9625 0.25152,2.5375 0,3.5 -0.25153,0.9625 -0.45733,0.175 -0.45733,-1.75 z m 85.5805,-49.683112 c 0.72187,-0.28887 1.58437,-0.253344 1.91667,0.07895 0.33229,0.332292 -0.25834,0.56864 -1.3125,0.525219 -1.16495,-0.04798 -1.4019,-0.28494 -0.60417,-0.604167 z m -6,-18 c 0.72187,-0.28887 1.58437,-0.253344 1.91667,0.07895 0.33229,0.332292 -0.25834,0.56864 -1.3125,0.525219 -1.16495,-0.04798 -1.4019,-0.28494 -0.60417,-0.604167 z"
       id="path375" /><path
       style="fill:#494949;fill-opacity:1"
       d="m 64.421331,466.88248 -30.993951,-31.25 31.25,30.99395 c 29.042043,28.80409 31.700089,31.50605 30.993951,31.50605 -0.140827,0 -14.203327,-14.0625 -31.25,-31.25 z m 42.506049,30.93709 c 0,-0.1721 1.4625,-1.6346 3.25,-3.25 l 3.25,-2.93709 -2.93709,3.25 c -2.73778,3.02946 -3.56291,3.70965 -3.56291,2.93709 z m -45.5,-100.68709 c 4.374193,-4.4 8.178079,-8 8.453079,-8 0.275,0 -3.078886,3.6 -7.453079,8 -4.374194,4.4 -8.17808,8 -8.45308,8 -0.275,0 3.078886,-3.6 7.45308,-8 z m -17,-8 c 2.148242,-2.2 4.130895,-4 4.405895,-4 0.275,0 -1.257653,1.8 -3.405895,4 -2.148243,2.2 -4.130896,4 -4.405896,4 -0.275,0 1.257653,-1.8 3.405896,-4 z m 14,-14 c 3.265566,-3.3 6.162393,-6 6.437393,-6 0.275,0 -2.171827,2.7 -5.437393,6 -3.265567,3.3 -6.162393,6 -6.437393,6 -0.275,0 2.171826,-2.7 5.437393,-6 z m 155.90499,3.75 -1.90499,-2.25 2.25,1.90499 c 2.11444,1.79022 2.70524,2.59501 1.90499,2.59501 -0.18976,0 -1.20226,-1.0125 -2.25,-2.25 z m -95.90499,-63.75 c 29.14611,-29.15 53.21792,-53 53.49292,-53 0.275,0 -23.34681,23.85 -52.49292,53 -29.146109,29.15 -53.217925,53 -53.492925,53 -0.275,0 23.346816,-23.85 52.492925,-53 z m 229.5,-89.37755 c 0,-0.20766 0.7875,-0.99516 1.75,-1.75 1.58606,-1.24387 1.62143,-1.2085 0.37755,0.37755 -1.30636,1.66575 -2.12755,2.19548 -2.12755,1.37245 z m 8,-7.93536 c 0,-0.1721 1.4625,-1.6346 3.25,-3.25 l 3.25,-2.93709 -2.93709,3.25 c -2.73778,3.02946 -3.56291,3.70965 -3.56291,2.93709 z m 0,-69.06464 c 0,-0.20766 0.7875,-0.99516 1.75,-1.75 1.58606,-1.24387 1.62143,-1.2085 0.37755,0.37755 -1.30636,1.66575 -2.12755,2.19548 -2.12755,1.37245 z m -2,-75.000003 c 0,-0.207655 0.7875,-0.995155 1.75,-1.75 1.58606,-1.24387 1.62143,-1.2085 0.37755,0.377556 -1.30636,1.665748 -2.12755,2.195478 -2.12755,1.372444 z m 62.75,-15.284725 c 0.6875,-0.277412 1.8125,-0.277412 2.5,0 0.6875,0.277412 0.125,0.504386 -1.25,0.504386 -1.375,0 -1.9375,-0.226974 -1.25,-0.504386 z m -26.48097,-18.03071 c 0.97297,-0.253544 2.32297,-0.236869 3,0.03705 0.67703,0.273923 -0.11903,0.481367 -1.76903,0.460988 -1.65,-0.02038 -2.20394,-0.244499 -1.23097,-0.498042 z"
       id="path374" /><path
       style="fill:#333333;fill-opacity:1"
       d="m 93.330941,516.36268 c -2.803042,-1.00039 -6.853042,-3.22589 -9,-4.94554 -2.146959,-1.71966 -17.9042,-17.2247 -35.016092,-34.45565 -34.128326,-34.36579 -34.95027,-35.47094 -34.828508,-46.82901 0.117462,-10.95699 -2.199077,-8.35763 83.884743,-94.12606 84.376796,-84.06766 86.577346,-86.05714 101.513566,-91.77687 8.94863,-3.42681 15.01033,-4.70341 28.79168,-6.06358 5.63692,-0.55634 13.06192,-1.95066 16.5,-3.09849 13.87362,-4.63182 17.48222,-7.47584 48.32126,-38.08319 28.21575,-28.00376 29.18605,-28.85181 33.01104,-28.85181 3.76705,0 4.68769,0.74785 20.87978,16.96098 15.52339,15.54357 16.93897,17.25631 16.93897,20.49486 0,3.28742 -1.91984,5.46956 -27.52804,31.28902 -15.14042,15.26533 -28.89489,29.78014 -30.56548,32.25514 -7.73695,11.4624 -10.82861,20.48936 -12.29753,35.90606 -0.54452,5.71492 -1.71596,13.36148 -2.60321,16.99235 -2.42836,9.93765 -9.34167,23.69696 -16.12931,32.10159 -3.33138,4.125 -40.19392,41.56743 -81.91675,83.2054 -61.28749,61.16284 -76.77232,76.10722 -80.61067,77.79723 -6.82542,3.0052 -13.226533,3.41138 -19.345449,1.22757 z m 11.912179,-17.33626 c 1.20134,-0.60834 11.97254,-10.84278 23.93599,-22.74321 l 21.75173,-21.63713 -36.24659,-36.2568 c -19.93563,-19.94124 -36.514429,-36.2568 -36.841779,-36.2568 -0.905891,0 -20.225678,18.94261 -33.814949,33.15479 -10.431245,10.90939 -12.100142,13.10681 -12.100142,15.9321 0,2.96143 2.963882,6.25872 30.75,34.20909 16.9125,17.01247 32.1,31.77884 33.75,32.81416 3.435274,2.15551 5.70787,2.35756 8.81574,0.7838 z m 80.94118,-79.65067 21.73988,-21.75674 -36.49956,-36.48929 -36.49957,-36.48929 -22.24483,22.24483 -22.244822,22.24482 35.990782,36.0012 c 19.79493,19.80066 36.44696,36.0012 37.00451,36.0012 0.55756,0 10.79668,-9.79053 22.75361,-21.75673 z m 54.34549,-54.49327 c 10.46923,-10.5875 20.39685,-21.05 22.06139,-23.25 8.47557,-11.20208 11.67272,-20.17797 13.8362,-38.84472 3.03667,-26.20064 9.2198,-38.99231 28.54746,-59.05896 l 9.85913,-10.2361 -7.72542,-7.68011 c -4.24898,-4.22406 -8.11542,-7.68011 -8.59208,-7.68011 -0.47667,0 -5.88917,4.8375 -12.02779,10.75 -20.10557,19.365 -30.08395,23.66395 -65.27929,28.12405 -10.01446,1.26908 -21.24642,5.761 -29.07057,11.626 -3.14129,2.35472 -14.4831,13.1065 -25.20403,23.89284 l -19.49258,19.61152 35.98737,35.9978 c 19.79306,19.79879 36.4549,35.99779 37.02632,35.99779 0.57142,0 9.60467,-8.6625 20.07389,-19.25 z m 94.17098,-167.47779 -8.22919,-8.27216 -7.77339,7.72779 -7.77338,7.7278 8.22918,8.27216 8.22919,8.27216 7.77339,-7.7278 7.77338,-7.7278 z m 72.22661,5.03518 c -1.375,-0.23114 -5.86904,-1.32271 -9.98675,-2.42571 -12.02153,-3.22018 -17.01325,-8.33443 -17.01325,-17.43089 0,-6.34727 2.12075,-10.31025 8.43437,-15.76103 7.4894,-6.46588 9.40392,-11.00163 11.13905,-26.38991 1.63502,-14.50045 2.88643,-20.70504 5.56403,-27.58687 1.0244,-2.63286 1.86255,-5.05582 1.86255,-5.38437 0,-0.88346 -12.90686,0.34892 -17.25766,1.64781 -10.96742,3.27423 -21.77513,14.71605 -27.12499,28.71648 -3.90983,10.2319 -9.15609,14.53787 -17.71248,14.53787 -5.73023,0 -10.92905,-2.85727 -13.70301,-7.53117 -8.06946,-13.5964 -11.53694,-37.23367 -7.66331,-52.239499 3.63548,-14.083243 12.25131,-27.090383 24.2718,-36.64263 15.98413,-12.702003 24.20994,-14.954259 54.37586,-14.888313 24.91489,0.05447 34.9577,-1.265983 46.65048,-6.133699 9.38637,-3.907552 22.43473,-12.602395 31.7621,-21.164829 8.00095,-7.3447926 10.81281,-8.5033833 15.16955,-6.2504211 3.68051,1.9032657 5.33795,5.8676991 8.16817,19.5374661 8.26861,39.936902 7.39038,76.820075 -2.54035,106.686385 -9.7761,29.40131 -31.35455,54.3411 -55.43147,64.0662 -11.21035,4.52806 -27.8402,6.50715 -38.96469,4.63713 z m 30.5,-20.12961 c 12.60201,-4.59267 26.82153,-16.88324 36.06563,-31.17316 16.28219,-25.16968 22.04409,-63.03877 15.88481,-104.400046 -2.3508,-15.786246 -1.87822,-15.251558 -8.83018,-9.990701 -13.34414,10.098091 -27.90192,16.892288 -42.62026,19.891119 -6.61058,1.346891 -13.26921,1.712087 -29.95538,1.642916 -14.98166,-0.06211 -23.51001,0.339462 -28.26492,1.330889 -19.83729,4.136194 -36.90134,22.170005 -40.01558,42.289693 -0.90554,5.8503 -0.80836,8.59703 0.54849,15.50274 0.90696,4.61599 2.3789,10.13955 3.27098,12.27459 l 1.62196,3.8819 2.17134,-4.96386 c 8.39117,-19.18293 19.9855,-30.502713 37.04556,-36.168349 7.20221,-2.39185 9.59468,-2.684638 22.07755,-2.701825 8.27843,-0.0114 15.72194,0.488098 18.21339,1.222206 8.33177,2.454969 9.63086,9.126788 3.403,17.477018 -7.18559,9.63434 -9.06629,15.59256 -11.10687,35.18745 -1.78694,17.15937 -4.66219,24.16732 -13.84021,33.73327 -3.89815,4.06291 -4.27614,4.80815 -2.73814,5.39833 4.75989,1.82655 8.98335,2.26204 19.56883,2.0178 8.83918,-0.20395 12.88825,-0.77128 17.5,-2.45198 z"
       id="path373" /></g><path
     style="fill:#ffffff;stroke:none;stroke-width:15.9978;stroke-linecap:round;stroke-dasharray:none"
     d="m 95.2105,494.59835 c -2.830337,-1.27653 -65.188093,-64.15418 -65.710102,-66.25794 -0.320109,-1.29008 -0.07294,-2.4287 0.942907,-4.34359 1.530299,-2.88464 13.1197,-15.09931 31.866034,-33.58526 l 12.390521,-12.21841 5.181406,5.10389 c 2.849773,2.80714 19.177959,19.00793 36.284854,36.00175 l 31.10345,30.89786 -9.13542,8.80216 c -5.02447,4.84118 -14.18589,13.99352 -20.35868,20.33852 -16.04418,16.49175 -17.56127,17.51778 -22.56497,15.26102 z"
     id="path381" /><path
     style="fill:#ffffff;stroke:none;stroke-width:15.9978;stroke-linecap:round;stroke-dasharray:none"
     d="m 124.23306,400.46475 -36.042932,-35.88066 21.866012,-21.86601 21.86602,-21.86602 36.14935,36.14935 36.14935,36.14935 -5.80661,5.63501 c -3.19364,3.09925 -12.95496,12.82056 -21.69183,21.60291 -8.73686,8.78235 -16.01149,15.96539 -16.16583,15.96232 -0.15433,-0.003 -16.49992,-16.15188 -36.32353,-35.88625 z"
     id="path382" /><path
     style="fill:#ffffff;stroke:none;stroke-width:15.9978;stroke-linecap:round;stroke-dasharray:none"
     d="m 181.33161,343.53678 -36.20436,-36.03085 18.33904,-18.10039 c 21.54119,-21.26086 24.64951,-24.05292 31.08016,-27.91785 8.6715,-5.21173 14.78676,-6.98982 33.96175,-9.87486 17.09841,-2.5726 26.74195,-5.52609 35.78028,-10.95829 4.6241,-2.77916 12.42585,-8.79921 14.72006,-11.3584 0.62543,-0.69767 1.52123,-1.26849 1.99068,-1.26849 0.46944,0 3.96164,-3.13707 7.76044,-6.97127 l 6.90691,-6.97127 7.56486,7.82588 7.56485,7.82588 -8.04517,8.54705 c -9.28466,9.86386 -13.16701,14.55735 -17.11314,20.68858 -6.80108,10.56705 -10.08046,20.97665 -12.53566,39.79148 -2.31684,17.75452 -5.20543,26.35938 -12.1233,36.11433 -1.51339,2.13403 -11.90717,13.06213 -23.09732,24.28469 l -20.34571,20.40463 z"
     id="path383" /><path
     style="fill:#ffffff;stroke:none;stroke-width:15.9978;stroke-linecap:round;stroke-dasharray:none"
     d="m 323.42563,215.05208 c -0.53592,-0.90708 -4.03802,-4.64276 -7.78244,-8.30152 l -6.80804,-6.65228 1.54548,-0.91294 c 1.62682,-0.96099 6.38055,-5.833 10.59008,-10.8536 l 2.50249,-2.98465 8.09323,8.06423 8.09323,8.06424 -7.62981,7.61288 -7.62982,7.61288 z"
     id="path384" /><path
     style="fill:#ffffff;stroke:none;stroke-width:15.9978;stroke-linecap:round;stroke-dasharray:none"
     d="m 401.5711,179.47311 c -5.22173,-1.18244 -5.4535,-1.76972 -1.92577,-4.8798 1.64156,-1.44721 2.76036,-2.64163 2.48622,-2.65424 -0.27413,-0.0126 0.56563,-1.23177 1.86614,-2.70922 3.22357,-3.66217 6.49283,-10.07786 7.86064,-15.42596 0.625,-2.44371 1.69769,-8.97128 2.38377,-14.50571 2.3662,-19.08766 3.84886,-24.04854 9.8625,-32.99941 5.87403,-8.743071 6.55082,-13.633811 2.39197,-17.285328 -3.39695,-2.982557 -5.62157,-3.314142 -22.37426,-3.33494 -17.20849,-0.02136 -19.80561,0.422101 -29.74231,5.078594 -12.80051,5.998524 -22.79937,16.796894 -29.66259,32.034444 l -2.58256,5.73373 -0.9626,-2.30382 c -3.97375,-9.51051 -5.44859,-23.83987 -3.31467,-32.204812 4.89973,-19.206894 21.60633,-35.084888 40.48363,-38.475747 1.8679,-0.335525 12.52923,-0.735014 23.69184,-0.887754 11.16261,-0.15274 22.96264,-0.578735 26.22229,-0.946655 15.82204,-1.785855 32.17024,-8.471675 47.48847,-19.42106 3.44166,-2.460076 6.66509,-4.396087 7.16318,-4.302246 1.0859,0.204587 2.36716,6.140783 3.9238,18.179277 1.47568,11.412376 1.47695,41.039775 0.002,50.629633 -4.15411,27.012434 -13.31875,47.166924 -28.37252,62.395594 -8.32079,8.41745 -18.9922,15.26389 -27.5311,17.66309 -4.50434,1.26559 -24.63326,1.69229 -29.35825,0.62234 z"
     id="path385" /></svg>
