<?xml version="1.0" encoding="UTF-8" standalone="no"?>
<!-- Generator: Adobe Illustrator 19.0.0, SVG Export Plug-In . SVG Version: 6.00 Build 0)  -->

<svg
   version="1.1"
   id="Layer_1"
   x="0px"
   y="0px"
   viewBox="0 0 278.67581 510.26031"
   xml:space="preserve"
   width="278.67581"
   height="510.26031"
   xmlns="http://www.w3.org/2000/svg"
   xmlns:svg="http://www.w3.org/2000/svg"><defs
   id="defs23" />
<g
   id="g2"
   transform="matrix(0.90647717,-5.0292373e-4,5.0292373e-4,0.90647717,-92.849005,46.22125)">
	<g
   id="g1">
		<path
   d="m 302.933,42.667 h -51.2 c -7.074,0 -12.8,5.726 -12.8,12.8 0,7.074 5.726,12.8 12.8,12.8 h 51.2 c 7.074,0 12.8,-5.726 12.8,-12.8 0,-7.074 -5.726,-12.8 -12.8,-12.8 z"
   id="path1"
   style="color:#000000;font-style:normal;font-variant:normal;font-weight:normal;font-stretch:normal;font-size:medium;line-height:normal;font-family:sans-serif;font-variant-ligatures:normal;font-variant-position:normal;font-variant-caps:normal;font-variant-numeric:normal;font-variant-alternates:normal;font-variant-east-asian:normal;font-feature-settings:normal;font-variation-settings:normal;text-indent:0;text-align:start;text-decoration-line:none;text-decoration-style:solid;text-decoration-color:#000000;letter-spacing:normal;word-spacing:normal;text-transform:none;writing-mode:lr-tb;direction:ltr;text-orientation:mixed;dominant-baseline:auto;baseline-shift:baseline;text-anchor:start;white-space:normal;shape-padding:0;shape-margin:0;inline-size:0;clip-rule:nonzero;display:inline;overflow:visible;visibility:visible;isolation:auto;mix-blend-mode:normal;color-interpolation:sRGB;color-interpolation-filters:linearRGB;solid-color:#000000;solid-opacity:1;vector-effect:none;fill:#000000;fill-opacity:1;fill-rule:nonzero;stroke:none;stroke-linecap:butt;stroke-linejoin:miter;stroke-miterlimit:4;stroke-dasharray:none;stroke-dashoffset:0;stroke-opacity:1;-inkscape-stroke:none;color-rendering:auto;image-rendering:auto;shape-rendering:auto;text-rendering:auto;enable-background:accumulate;stop-color:#000000;stop-opacity:1" />
	</g>
</g>
<g
   id="g4"
   transform="matrix(0.90647717,-5.0292373e-4,5.0292373e-4,0.90647717,-92.849005,46.22125)">
	<g
   id="g3">
		<path
   d="M 358.4,0 H 153.6 c -28.228,0 -51.2,22.972 -51.2,51.2 v 409.6 c 0,28.228 22.972,51.2 51.2,51.2 h 204.8 c 28.228,0 51.2,-22.972 51.2,-51.2 V 51.2 C 409.6,22.972 386.628,0 358.4,0 Z M 384,460.8 c 0,14.14 -11.46,25.6 -25.6,25.6 H 153.6 C 139.46,486.4 128,474.94 128,460.8 V 51.2 c 0,-14.14 11.46,-25.6 25.6,-25.6 h 204.8 c 14.14,0 25.6,11.46 25.6,25.6 z"
   id="path2"
   style="color:#000000;font-style:normal;font-variant:normal;font-weight:normal;font-stretch:normal;font-size:medium;line-height:normal;font-family:sans-serif;font-variant-ligatures:normal;font-variant-position:normal;font-variant-caps:normal;font-variant-numeric:normal;font-variant-alternates:normal;font-variant-east-asian:normal;font-feature-settings:normal;font-variation-settings:normal;text-indent:0;text-align:start;text-decoration-line:none;text-decoration-style:solid;text-decoration-color:#000000;letter-spacing:normal;word-spacing:normal;text-transform:none;writing-mode:lr-tb;direction:ltr;text-orientation:mixed;dominant-baseline:auto;baseline-shift:baseline;text-anchor:start;white-space:normal;shape-padding:0;shape-margin:0;inline-size:0;clip-rule:nonzero;display:inline;overflow:visible;visibility:visible;isolation:auto;mix-blend-mode:normal;color-interpolation:sRGB;color-interpolation-filters:linearRGB;solid-color:#000000;solid-opacity:1;vector-effect:none;fill:#000000;fill-opacity:1;fill-rule:nonzero;stroke:none;stroke-linecap:butt;stroke-linejoin:miter;stroke-miterlimit:4;stroke-dasharray:none;stroke-dashoffset:0;stroke-opacity:1;-inkscape-stroke:none;color-rendering:auto;image-rendering:auto;shape-rendering:auto;text-rendering:auto;enable-background:accumulate;stop-color:#000000;stop-opacity:1" />
	</g>
</g>
<g
   id="g6"
   transform="matrix(0.90647717,-5.0292373e-4,5.0292373e-4,0.90647717,-92.849005,46.22125)">
	<g
   id="g5">
		<path
   id="circle4"
   d="m 281.6,443.733 a 25.6,25.6 0 0 1 -25.6,25.6 25.6,25.6 0 0 1 -25.6,-25.6 25.6,25.6 0 0 1 25.6,-25.6 25.6,25.6 0 0 1 25.6,25.6 z"
   style="color:#000000;font-style:normal;font-variant:normal;font-weight:normal;font-stretch:normal;font-size:medium;line-height:normal;font-family:sans-serif;font-variant-ligatures:normal;font-variant-position:normal;font-variant-caps:normal;font-variant-numeric:normal;font-variant-alternates:normal;font-variant-east-asian:normal;font-feature-settings:normal;font-variation-settings:normal;text-indent:0;text-align:start;text-decoration-line:none;text-decoration-style:solid;text-decoration-color:#000000;letter-spacing:normal;word-spacing:normal;text-transform:none;writing-mode:lr-tb;direction:ltr;text-orientation:mixed;dominant-baseline:auto;baseline-shift:baseline;text-anchor:start;white-space:normal;shape-padding:0;shape-margin:0;inline-size:0;clip-rule:nonzero;display:inline;overflow:visible;visibility:visible;isolation:auto;mix-blend-mode:normal;color-interpolation:sRGB;color-interpolation-filters:linearRGB;solid-color:#000000;solid-opacity:1;vector-effect:none;fill:#000000;fill-opacity:1;fill-rule:nonzero;stroke:none;stroke-linecap:butt;stroke-linejoin:miter;stroke-miterlimit:4;stroke-dasharray:none;stroke-dashoffset:0;stroke-opacity:1;-inkscape-stroke:none;color-rendering:auto;image-rendering:auto;shape-rendering:auto;text-rendering:auto;enable-background:accumulate;stop-color:#000000;stop-opacity:1" />
	</g>
</g>
<g
   id="g8"
   transform="matrix(0.90647717,-5.0292373e-4,5.0292373e-4,0.90647717,-92.849005,46.22125)">
	<g
   id="g7">
		<path
   id="circle6"
   d="m 221.867,55.466999 a 12.8,12.8 0 0 1 -12.8,12.8 12.8,12.8 0 0 1 -12.8,-12.8 12.8,12.8 0 0 1 12.8,-12.8 12.8,12.8 0 0 1 12.8,12.8 z"
   style="color:#000000;font-style:normal;font-variant:normal;font-weight:normal;font-stretch:normal;font-size:medium;line-height:normal;font-family:sans-serif;font-variant-ligatures:normal;font-variant-position:normal;font-variant-caps:normal;font-variant-numeric:normal;font-variant-alternates:normal;font-variant-east-asian:normal;font-feature-settings:normal;font-variation-settings:normal;text-indent:0;text-align:start;text-decoration-line:none;text-decoration-style:solid;text-decoration-color:#000000;letter-spacing:normal;word-spacing:normal;text-transform:none;writing-mode:lr-tb;direction:ltr;text-orientation:mixed;dominant-baseline:auto;baseline-shift:baseline;text-anchor:start;white-space:normal;shape-padding:0;shape-margin:0;inline-size:0;clip-rule:nonzero;display:inline;overflow:visible;visibility:visible;isolation:auto;mix-blend-mode:normal;color-interpolation:sRGB;color-interpolation-filters:linearRGB;solid-color:#000000;solid-opacity:1;vector-effect:none;fill:#000000;fill-opacity:1;fill-rule:nonzero;stroke:none;stroke-linecap:butt;stroke-linejoin:miter;stroke-miterlimit:4;stroke-dasharray:none;stroke-dashoffset:0;stroke-opacity:1;-inkscape-stroke:none;color-rendering:auto;image-rendering:auto;shape-rendering:auto;text-rendering:auto;enable-background:accumulate;stop-color:#000000;stop-opacity:1" />
	</g>
</g>















<path
   style="color:#000000;font-style:normal;font-variant:normal;font-weight:normal;font-stretch:normal;font-size:medium;line-height:normal;font-family:sans-serif;font-variant-ligatures:normal;font-variant-position:normal;font-variant-caps:normal;font-variant-numeric:normal;font-variant-alternates:normal;font-variant-east-asian:normal;font-feature-settings:normal;font-variation-settings:normal;text-indent:0;text-align:start;text-decoration-line:none;text-decoration-style:solid;text-decoration-color:#000000;letter-spacing:normal;word-spacing:normal;text-transform:none;writing-mode:lr-tb;direction:ltr;text-orientation:mixed;dominant-baseline:auto;baseline-shift:baseline;text-anchor:start;white-space:normal;shape-padding:0;shape-margin:0;inline-size:0;clip-rule:nonzero;display:inline;overflow:visible;visibility:visible;isolation:auto;mix-blend-mode:normal;color-interpolation:sRGB;color-interpolation-filters:linearRGB;solid-color:#000000;solid-opacity:1;vector-effect:none;fill:#ffffff;fill-opacity:1;fill-rule:nonzero;stroke:none;stroke-linecap:butt;stroke-linejoin:miter;stroke-miterlimit:4;stroke-dasharray:none;stroke-dashoffset:0;stroke-opacity:1;-inkscape-stroke:none;color-rendering:auto;image-rendering:auto;shape-rendering:auto;text-rendering:auto;enable-background:accumulate;stop-color:#000000;stop-opacity:1"
   d="m 41.935711,486.33358 c -8.23225,-1.7815 -14.94348,-8.07668 -17.53027,-16.44353 -0.67988,-2.19911 -0.70828,-8.91785 -0.80965,-191.67519 l -0.10509,-189.396166 0.84713,-2.678809 c 2.31121,-7.308496 7.99927,-13.072772 15.40402,-15.610376 l 2.48655,-0.85215 95.753409,-0.15322 c 106.6341,-0.170639 98.55124,-0.365079 104.3947,2.511541 5.40946,2.66297 9.82394,7.914765 11.74832,13.976722 l 0.8501,2.677855 0.10507,189.396183 0.10507,189.39619 -0.84713,2.6788 c -2.56588,8.11378 -9.38355,14.3753 -17.50817,16.07993 -3.90141,0.81859 -191.128279,0.90714 -194.894089,0.0922 z M 145.28709,470.96051 c 5.44458,-1.41409 11.21834,-5.65229 14.00126,-10.27771 2.55855,-4.25243 3.23552,-6.75956 3.26417,-12.08841 0.0314,-5.83995 -0.85148,-8.99986 -3.70529,-13.26155 -2.3772,-3.54992 -5.05267,-5.89407 -8.90445,-7.80166 -6.99142,-3.46253 -14.05644,-3.45862 -21.04402,0.0116 -3.84964,1.91189 -6.52252,4.259 -8.89577,7.81156 -2.84907,4.26485 -3.72845,7.42573 -3.69057,13.26566 0.027,4.15385 0.15941,5.1218 1.00762,7.36163 2.7963,7.38414 8.48035,12.72675 15.81155,14.86172 2.98799,0.87012 9.03185,0.92837 12.1555,0.1171 z M 100.73545,107.48355 c 2.49104,-0.85033 5.66109,-3.83716 6.75474,-6.36432 1.24659,-2.880608 1.21476,-6.683377 -0.0796,-9.495094 -2.07656,-4.511198 -5.08314,-6.529854 -10.114779,-6.791147 -2.77049,-0.143873 -3.36435,-0.04649 -5.46108,0.895896 -9.6255,4.326086 -8.9881,18.265895 0.99781,21.821725 1.98763,0.70775 5.72591,0.67605 7.902819,-0.0671 z m 86.22853,-0.48787 c 2.53294,-1.35529 4.1929,-3.02589 5.34897,-5.38344 0.89963,-1.834556 1.06517,-2.652982 1.0589,-5.235435 -0.012,-4.997142 -2.19048,-8.541541 -6.50117,-10.57793 l -2.29979,-1.086443 -26.05261,0.01416 -26.05259,0.01416 -2.3323,1.167072 c -2.6218,1.311944 -4.40348,3.132266 -5.58366,5.705009 -1.13223,2.468082 -1.11572,7.166789 0.034,9.668877 1.1119,2.41993 3.89557,5.04921 6.34982,5.99765 1.94151,0.7503 2.72317,0.76901 28.20618,0.67608 l 26.20932,-0.0956 z"
   id="path23" /><path
   id="rect23"
   style="color:#000000;font-style:normal;font-variant:normal;font-weight:normal;font-stretch:normal;font-size:medium;line-height:normal;font-family:sans-serif;font-variant-ligatures:normal;font-variant-position:normal;font-variant-caps:normal;font-variant-numeric:normal;font-variant-alternates:normal;font-variant-east-asian:normal;font-feature-settings:normal;font-variation-settings:normal;text-indent:0;text-align:start;text-decoration-line:none;text-decoration-style:solid;text-decoration-color:#000000;letter-spacing:normal;word-spacing:normal;text-transform:none;writing-mode:lr-tb;direction:ltr;text-orientation:mixed;dominant-baseline:auto;baseline-shift:baseline;text-anchor:start;white-space:normal;shape-padding:0;shape-margin:0;inline-size:0;clip-rule:nonzero;display:inline;overflow:visible;visibility:visible;isolation:auto;mix-blend-mode:normal;color-interpolation:sRGB;color-interpolation-filters:linearRGB;solid-color:#000000;solid-opacity:1;vector-effect:none;fill:#000000;fill-opacity:1;fill-rule:nonzero;stroke:none;stroke-linecap:butt;stroke-linejoin:miter;stroke-miterlimit:4;stroke-dasharray:none;stroke-dashoffset:0;stroke-opacity:1;-inkscape-stroke:none;color-rendering:auto;image-rendering:auto;shape-rendering:auto;text-rendering:auto;enable-background:accumulate;stop-color:#000000;stop-opacity:1"
   d="m 50.064231,0 c 7.72931,0 13.95182,6.9030994 13.95182,15.477802 v 31.938333 c 0,8.574702 -6.22251,15.477801 -13.95182,15.477801 -7.72931,0 -13.95182,-6.903099 -13.95182,-15.477801 V 15.477802 C 36.112411,6.9030994 42.334921,0 50.064231,0 Z" /><path
   id="rect23-5"
   style="color:#000000;font-style:normal;font-variant:normal;font-weight:normal;font-stretch:normal;font-size:medium;line-height:normal;font-family:sans-serif;font-variant-ligatures:normal;font-variant-position:normal;font-variant-caps:normal;font-variant-numeric:normal;font-variant-alternates:normal;font-variant-east-asian:normal;font-feature-settings:normal;font-variation-settings:normal;text-indent:0;text-align:start;text-decoration-line:none;text-decoration-style:solid;text-decoration-color:#000000;letter-spacing:normal;word-spacing:normal;text-transform:none;writing-mode:lr-tb;direction:ltr;text-orientation:mixed;dominant-baseline:auto;baseline-shift:baseline;text-anchor:start;white-space:normal;shape-padding:0;shape-margin:0;inline-size:0;clip-rule:nonzero;display:inline;overflow:visible;visibility:visible;isolation:auto;mix-blend-mode:normal;color-interpolation:sRGB;color-interpolation-filters:linearRGB;solid-color:#000000;solid-opacity:1;vector-effect:none;fill:#000000;fill-opacity:1;fill-rule:nonzero;stroke:none;stroke-linecap:butt;stroke-linejoin:miter;stroke-miterlimit:4;stroke-dasharray:none;stroke-dashoffset:0;stroke-opacity:1;-inkscape-stroke:none;color-rendering:auto;image-rendering:auto;shape-rendering:auto;text-rendering:auto;enable-background:accumulate;stop-color:#000000;stop-opacity:1"
   d="m 221.17913,0.52336719 c 7.72931,0 13.95182,6.90309941 13.95182,15.47780181 v 31.938333 c 0,8.574702 -6.22251,15.477802 -13.95182,15.477802 -7.72931,0 -13.95182,-6.9031 -13.95182,-15.477802 V 16.001169 c 0,-8.5747024 6.22251,-15.47780181 13.95182,-15.47780181 z" /><path
   style="color:#000000;font-style:normal;font-variant:normal;font-weight:normal;font-stretch:normal;font-size:medium;line-height:normal;font-family:sans-serif;font-variant-ligatures:normal;font-variant-position:normal;font-variant-caps:normal;font-variant-numeric:normal;font-variant-alternates:normal;font-variant-east-asian:normal;font-feature-settings:normal;font-variation-settings:normal;text-indent:0;text-align:start;text-decoration-line:none;text-decoration-style:solid;text-decoration-color:#000000;letter-spacing:normal;word-spacing:normal;text-transform:none;writing-mode:lr-tb;direction:ltr;text-orientation:mixed;dominant-baseline:auto;baseline-shift:baseline;text-anchor:start;white-space:normal;shape-padding:0;shape-margin:0;inline-size:0;clip-rule:nonzero;display:inline;overflow:visible;visibility:visible;isolation:auto;mix-blend-mode:normal;color-interpolation:sRGB;color-interpolation-filters:linearRGB;solid-color:#000000;solid-opacity:1;vector-effect:none;fill:#000000;fill-opacity:1;fill-rule:nonzero;stroke:none;stroke-linecap:butt;stroke-linejoin:miter;stroke-miterlimit:4;stroke-dasharray:none;stroke-dashoffset:0;stroke-opacity:1;-inkscape-stroke:none;color-rendering:auto;image-rendering:auto;shape-rendering:auto;text-rendering:auto;enable-background:accumulate;stop-color:#000000;stop-opacity:1"
   d="M 67.116451,23.054731 117.60878,6.6668732 116.28003,22.168902 157.91404,5.3381278 l -0.4429,13.2874522 47.83483,3.543322 -57.57897,9.301215 0.88583,-11.515791 -40.74819,15.059112 1.77167,-17.273687 z"
   id="path28" /></svg>
