<?xml version="1.0" encoding="UTF-8" standalone="no"?>
<!-- Created with Inkscape (http://www.inkscape.org/) -->

<svg
   width="512"
   height="512"
   viewBox="0 0 135.46667 135.46667"
   version="1.1"
   id="svg1"
   xml:space="preserve"
   xmlns="http://www.w3.org/2000/svg"
   xmlns:svg="http://www.w3.org/2000/svg"><defs
     id="defs1" /><path
     style="fill:#000000;stroke-width:1.37526"
     d="m 43.569519,128.17939 c -1.812957,0.23838 -2.525018,0.0998 -4.012879,-0.78173 -1.876559,-1.11172 -1.934761,-1.21441 -2.810396,-4.95851 -0.403293,-1.72446 -0.922259,-3.86217 -1.15324,-4.75048 l -0.419974,-1.61511 -1.605965,1.42541 c -0.883281,0.78398 -2.617336,2.40387 -3.853459,3.59972 l -2.247492,2.17433 0.214368,0.9066 c 0.403371,1.70574 0.285248,1.90571 -2.538683,4.29759 -1.360163,1.15207 -2.850151,2.33739 -3.311083,2.63405 -0.46093,0.29666 -1.899927,0.94856 -3.197766,1.44867 -1.29784,0.50012 -3.195835,1.25863 -4.217767,1.68558 -2.371942,0.99097 -3.168179,1.18659 -3.895228,0.95715 -0.9426226,-0.29767 -0.9583633,-0.81431 -0.144208,-4.73287 0.725564,-3.49219 1.455934,-5.8134 2.56173,-8.14147 0.476846,-1.00394 1.005783,-1.74525 2.195229,-3.07665 2.160332,-2.41814 2.428823,-2.639 3.323242,-2.73387 0.676732,-0.0718 0.805758,-0.15365 1.765609,-1.12078 2.166505,-2.18287 3.07945,-3.16536 3.092516,-3.3281 0.0074,-0.0926 -1.408346,-0.66556 -3.146186,-1.27317 -3.156356,-1.10354 -3.161462,-1.10464 -4.816197,-1.03213 -0.911073,0.04 -1.720699,0.0519 -1.799181,0.0266 -0.07848,-0.0254 -0.38858,0.30778 -0.689117,0.7402 -0.799447,1.15026 -2.431294,2.67701 -3.3273451,3.11306 -1.3276033,0.64607 -3.2895831,0.81936 -4.4389174,0.39193 C 3.757758,113.53739 3.8067287,113.63893 2.4121084,108.46801 1.415552,104.773 1.1193854,103.46294 0.96963578,102.08739 0.5627985,98.350305 0.6742345,96.408761 1.5015929,92.819527 2.4108505,88.874997 3.6913927,85.782108 5.9605941,82.049751 8.7077927,77.531186 11.148041,74.755052 16.989844,69.502389 c 2.178958,-1.959213 6.217413,-5.111281 7.792067,-6.081814 0.424328,-0.261535 1.245323,-0.80322 1.824435,-1.203748 1.025818,-0.709486 1.053507,-0.746698 1.07542,-1.445356 0.0234,-0.745779 0.325494,-1.356395 0.81029,-1.63778 0.32393,-0.188019 4.728996,-2.129613 6.272976,-2.764905 0.568002,-0.233709 3.583083,-1.276282 6.700185,-2.316822 8.585493,-2.865982 15.753225,-5.559779 15.534548,-5.838237 -1.405245,-1.789393 -1.436836,-1.852166 -1.920486,-3.815882 -1.007647,-4.091252 -0.311415,-5.586705 4.651681,-9.991486 2.446694,-2.171456 4.654926,-3.945564 5.860717,-4.708537 1.0795,-0.683065 2.647838,-2.355085 2.771309,-2.954524 0.04821,-0.234055 0.09152,-0.719139 0.09621,-1.077963 0.01118,-0.852683 0.949355,-2.447023 1.936234,-3.290475 1.296899,-1.10842 3.216926,-1.821616 5.222041,-1.939733 1.162735,-0.06852 1.802129,-0.544787 2.879362,-2.144856 0.473706,-0.703623 1.249323,-1.570759 1.900168,-2.124376 0.604854,-0.5145 1.436135,-1.270723 1.847287,-1.680501 1.667707,-1.662122 3.249339,-2.371142 5.076932,-2.275901 1.116723,0.05818 1.311079,0.130233 2.728842,1.011452 0.839566,0.521838 1.798805,1.24886 2.13164,1.615606 0.682509,0.75204 1.771818,2.760992 2.003865,3.695613 0.472308,1.902063 -0.312067,3.756467 -2.133491,5.044319 l -1.018902,0.720423 0.597485,0.261768 c 0.328615,0.143972 1.765963,0.841181 3.194107,1.549354 1.428142,0.708171 2.724524,1.350041 2.880851,1.426373 0.238943,0.116682 0.470832,-0.02387 1.455432,-0.882162 1.649351,-1.437737 3.196491,-3.116616 3.611841,-3.91936 0.44694,-0.863799 0.5657,-1.377233 0.60093,-2.598283 0.0155,-0.537039 0.0702,-1.159913 0.12166,-1.384163 0.092,-0.401137 1.42781,-1.985494 2.34095,-2.776445 0.25632,-0.22203 1.16112,-1.123801 2.01065,-2.003937 2.11584,-2.192076 8.68024,-8.762085 9.33201,-9.3399867 0.41063,-0.3640932 0.80562,-0.5381242 1.74906,-0.7706366 1.60343,-0.3951681 2.74419,-0.1555887 4.60172,0.9664594 2.03619,1.2299688 2.85216,2.293291 4.27523,5.5712049 0.69867,1.609321 6.37662,17.000622 6.58789,17.857879 0.24295,0.985784 0.17032,2.029556 -0.1818,2.611961 -0.80568,1.332661 -2.50721,2.112572 -3.93622,1.804185 -0.4016,-0.08666 -1.59809,-0.522865 -2.6589,-0.969328 -1.67333,-0.704272 -1.9658,-0.883882 -2.20887,-1.356486 -0.76538,-1.488161 -1.98091,-3.948176 -2.33436,-4.724345 -0.21828,-0.479419 -0.61235,-1.306701 -0.8756,-1.838421 l -0.47865,-0.966762 -0.57626,0.401159 c -1.44117,1.003258 -2.89263,2.283643 -4.79808,4.232591 -2.66839,2.729303 -3.6374,3.369592 -4.65882,3.07844 -0.85124,-0.242638 -1.10837,-0.0422 -2.19776,1.713105 -0.72094,1.161672 -1.32512,2.452739 -1.98726,4.246534 -0.52323,1.417569 -1.29266,3.279563 -1.70982,4.137767 -1.15694,2.38012 -1.28971,2.910576 -1.01995,4.074712 l 0.22808,0.984226 1.1552,0.636227 c 4.04872,2.229841 4.90587,2.736392 5.92351,3.500608 3.31159,2.48695 6.18079,6.065319 6.76545,8.437623 0.36504,1.481158 0.21532,2.058508 -1.28605,4.959041 -1.60073,3.092519 -3.10138,5.431331 -3.88658,6.057303 -0.79212,0.631507 -2.63163,1.11183 -3.99998,1.044461 -1.52706,-0.07519 -2.66943,-1.143943 -3.11108,-2.910569 -0.35503,-1.419831 -0.92677,-2.295842 -2.34055,-3.585772 -1.72579,-1.574609 -4.21744,-2.783671 -5.077961,-2.46406 -0.378397,0.140554 -0.468616,0.376325 -0.909623,2.377234 -0.427723,1.940639 -0.599651,2.402456 -1.3611,3.656054 -0.760261,1.251641 -1.02062,1.539884 -2.039158,2.257535 -1.073292,0.756233 -1.275876,0.843948 -2.507705,1.08579 -1.160201,0.227775 -1.453897,0.22588 -2.187917,-0.01417 -1.17406,-0.383967 -4.582056,-1.988793 -4.629146,-2.179865 -0.0468,-0.189852 -0.204197,-0.03801 -4.136012,3.98941 l -3.119775,3.195646 -0.344861,1.884137 c -0.529746,2.894239 -0.627876,2.657439 1.305,3.149097 0.905775,0.230398 2.066035,0.564123 2.578359,0.741613 0.842504,0.291874 1.071959,0.29757 2.401689,0.05964 0.808604,-0.144689 1.741203,-0.255234 2.072439,-0.245652 0.699092,0.02023 1.740169,0.697564 2.603418,1.693809 0.54847,0.632966 0.592727,0.75046 0.921138,2.445294 0.197951,1.021526 0.315564,2.129333 0.275954,2.599087 -0.170456,2.021747 -3.965414,10.599134 -6.646585,15.02268 -5.513167,9.09589 -14.92036,16.78269 -26.272874,21.46806 -1.636285,0.67531 -2.901743,1.05475 -7.155096,2.14536 -2.841976,0.72874 -5.730542,1.39957 -6.419287,1.48971 z m 7.853774,-5.97498 c 0.676448,-0.38063 1.269071,-1.19579 1.377726,-1.89511 0.192052,-1.23606 -0.564722,-2.7771 -1.470563,-2.99458 -0.24823,-0.0596 -0.902425,-0.087 -1.453765,-0.0608 -1.356983,0.0644 -2.612745,0.73767 -3.337557,1.78956 -0.473313,0.68692 -0.490028,0.77697 -0.318724,1.71705 0.09943,0.54565 0.298243,1.16014 0.441843,1.36551 0.363078,0.51931 1.48976,0.74423 2.816018,0.56215 0.606573,-0.0832 1.173607,-0.15929 1.260077,-0.16902 0.08649,-0.009 0.394695,-0.15135 0.684947,-0.31466 z m 8.863956,-2.90023 c 5.849266,-2.75979 13.119861,-8.3411 17.414165,-13.3681 1.990648,-2.33029 4.390792,-6.039409 4.675528,-7.225434 0.13468,-0.56102 0.07844,-0.535036 -0.597624,0.275927 -1.192491,1.430457 -7.831159,7.231047 -10.510049,9.183267 -1.92501,1.4028 -7.006242,4.46246 -8.873121,5.34293 -1.403305,0.66184 -4.003596,1.72295 -5.64874,2.30515 l -0.830788,0.294 0.398066,0.73661 c 0.47071,0.87103 1.000378,2.90044 0.922731,3.53539 -0.05093,0.41647 -0.03227,0.43494 0.267165,0.2645 0.177059,-0.10071 1.429256,-0.70569 2.782667,-1.34424 z m -45.954828,11.06746 c 1.247873,-0.88147 4.690629,-3.72832 6.429559,-5.31667 l 1.663628,-1.51956 -0.146659,-0.59508 c -0.08066,-0.32727 -0.06914,-0.856 0.02561,-1.17491 0.161639,-0.54409 0.223343,-0.59245 1.000302,-0.78392 0.756701,-0.1865 0.968106,-0.34176 2.45395,-1.80218 1.578455,-1.55145 4.303771,-4.55054 5.000857,-5.5032 l 0.343654,-0.46965 -1.127583,-0.30997 c -0.620169,-0.17047 -1.203601,-0.29121 -1.296514,-0.26833 -0.0929,0.0229 -0.514788,0.48445 -0.937508,1.02563 -0.808893,1.03561 -4.558668,4.92539 -5.679144,5.89118 -0.837031,0.72148 -1.825228,0.90292 -2.87539,0.52792 l -0.723358,-0.25829 -1.117664,1.1636 c -0.614715,0.63999 -1.351621,1.57073 -1.637568,2.0683 -0.580355,1.0099 -1.754228,3.65235 -2.039804,4.59171 -0.228071,0.75021 -0.383816,3.32624 -0.198339,3.28052 0.07387,-0.0184 0.461777,-0.26441 0.861966,-0.5471 z m 41.833634,-17.81952 c 3.685125,-1.34546 6.341235,-2.7277 11.271899,-5.86594 4.807043,-3.05954 10.557773,-7.96764 13.58411,-11.593684 1.458709,-1.747765 3.753934,-5.674807 4.66074,-7.974348 1.04345,-2.646067 1.036434,-2.655212 -1.884977,-2.456691 -0.915035,0.06186 -1.12187,0.123913 -1.529048,0.456366 -0.653784,0.533789 -0.80342,0.869858 -1.06052,2.381784 -0.353826,2.080765 -0.617006,2.571462 -2.495989,4.653853 -2.167122,2.401731 -3.464744,3.663911 -6.443958,6.267972 -2.742069,2.396778 -3.872068,3.249198 -7.357573,5.550118 -4.364226,2.881 -8.18908,4.96807 -11.821524,6.45053 -1.950817,0.79616 -8.324812,2.52797 -9.087391,2.46903 -0.317347,-0.0246 -0.842339,-0.25832 -1.196575,-0.53285 -0.432234,-0.33496 -0.701749,-0.44071 -0.855152,-0.33554 -0.123201,0.0845 -0.940641,0.85362 -1.816542,1.70921 l -1.592542,1.55561 0.153282,0.63573 c 0.293528,1.21803 -0.412217,1.28627 7.911339,-0.76508 5.691387,-1.40265 7.952516,-2.01902 9.560472,-2.60608 z M 38.82357,110.88916 c 0.630617,-0.68658 1.18689,-1.30696 1.23616,-1.37863 0.117848,-0.17143 -1.179558,-2.19471 -2.685481,-4.18801 -1.342977,-1.77759 -1.640346,-2.5305 -1.29816,-3.2868 0.115059,-0.25433 0.194447,-0.52227 0.176409,-0.59548 -0.01801,-0.0731 -0.539705,-0.43589 -1.159262,-0.80603 l -1.126465,-0.672973 -0.844004,0.709103 c -0.464203,0.39 -1.515939,1.20749 -2.337194,1.81663 -0.821252,0.60913 -1.517845,1.1483 -1.547983,1.19815 -0.09927,0.16422 1.054176,0.73266 2.595529,1.27916 0.834084,0.29572 1.734421,0.69644 2.000752,0.89048 0.782624,0.57021 1.934964,2.2707 2.623513,3.87149 0.600015,1.39493 0.632838,1.5275 0.517128,2.08852 -0.06792,0.32948 -0.06816,0.65331 -5.18e-4,0.71966 0.154392,0.15139 0.400065,-0.0673 1.849538,-1.64525 z m 11.206553,-2.4284 c 0.109582,-0.18125 -0.71721,-1.24102 -1.743681,-2.235 -0.58462,-0.56613 -1.490762,-1.52959 -2.013646,-2.14099 -1.490506,-1.74285 -1.916734,-2.10661 -2.344781,-2.00111 -0.205584,0.0506 -0.9603,0.70597 -1.67715,1.45625 -0.716847,0.75028 -1.374872,1.40934 -1.462278,1.46458 -0.181774,0.11481 1.31521,2.7249 2.227719,3.88407 0.949058,1.20559 1.241187,1.2311 4.342873,0.37907 1.43985,-0.39552 2.641774,-0.75859 2.670944,-0.80687 z m 4.007234,-1.44695 c 2.541491,-1.13457 7.83114,-4.2116 11.790956,-6.85889 2.15903,-1.443403 8.219175,-6.91149 10.558934,-9.527373 1.604208,-1.793525 1.962143,-2.476633 2.091143,-3.990882 0.05543,-0.650856 0.26133,-1.49375 0.46247,-1.893368 0.199393,-0.396149 0.354856,-0.751412 0.345471,-0.789498 -0.03809,-0.154579 -2.081967,-0.43302 -2.261477,-0.308089 -0.106482,0.07408 -0.316523,0.672128 -0.466758,1.328904 l -0.273162,1.194146 -2.680402,2.74364 c -1.474221,1.508998 -2.914779,2.972768 -3.201241,3.25282 -1.057967,1.03427 -4.133735,4.309814 -4.735614,5.04319 -0.758773,0.92455 -1.328578,1.299138 -2.364478,1.554436 -0.696536,0.171718 -1.140616,0.112828 -3.650852,-0.483722 l -2.857856,-0.679146 -0.516367,0.68735 c -0.739905,0.984908 -3.138747,3.448422 -4.57682,4.700192 -0.676847,0.58916 -1.210757,1.15184 -1.18647,1.25039 0.02428,0.0986 0.186027,0.30313 0.359435,0.45466 0.173401,0.15151 0.584796,0.66616 0.914211,1.14368 0.329414,0.47752 0.718175,1.03878 0.863913,1.24725 0.304018,0.4349 0.248391,0.4377 1.384963,-0.0697 z m -28.086181,2.49443 c 0.211288,-0.1849 0.399538,-0.56232 0.427214,-0.85649 0.05767,-0.61313 -0.444109,-2.76211 -0.702826,-3.01002 -0.10887,-0.10436 -0.387976,-0.0976 -0.725424,0.0173 l -0.548483,0.18674 0.44347,2.03166 c 0.261218,1.1967 0.50197,2.01725 0.585893,1.99657 0.07833,-0.0193 0.312402,-0.18385 0.520155,-0.36566 z M 51.377004,98.229562 c 1.223847,-1.164285 2.267604,-2.18233 2.319459,-2.262338 0.130434,-0.201235 -0.26686,-0.911134 -0.480379,-0.858361 -0.413201,0.102187 -1.913043,1.496402 -3.504983,3.258249 -0.944015,1.044788 -1.926535,1.998288 -2.183377,2.118888 l -0.46699,0.2193 0.473009,0.50403 0.473007,0.50401 0.572538,-0.68344 c 0.314895,-0.3759 1.573866,-1.636063 2.797716,-2.800338 z m -41.196881,9.787998 c 0.195672,-0.89954 -0.3713352,-3.24806 -0.9037067,-3.74315 -0.2044226,-0.19009 -0.4386447,-0.32912 -0.5204945,-0.30895 -0.090466,0.0223 0.079335,0.9624 0.4330809,2.39777 0.3200427,1.29861 0.64264,2.34614 0.7168695,2.32785 0.074224,-0.0184 0.1976458,-0.3214 0.2742508,-0.67352 z M 64.882086,93.692989 c 0.384826,-0.421826 2.126848,-2.21922 3.871157,-3.994225 3.556771,-3.619368 4.934405,-5.369787 5.087479,-6.46414 0.0931,-0.665628 0.07949,-0.719373 -0.236171,-0.932424 -0.184263,-0.124332 -1.350181,-0.56151 -2.590924,-0.971497 l -2.255904,-0.745432 -0.752629,0.70874 c -0.413946,0.389808 -2.381913,2.358737 -4.373262,4.375391 -1.991348,2.016652 -3.807201,3.847459 -4.035226,4.068465 -0.228029,0.221008 -0.417739,0.553593 -0.421578,0.739082 -0.0038,0.185479 0.222301,1.271612 0.502536,2.413636 0.423798,1.727073 0.559363,2.100531 0.805794,2.219894 0.162952,0.07897 0.881366,0.117391 1.596478,0.08545 1.469495,-0.06567 1.511691,-0.08754 2.802299,-1.502955 z M 17.815744,105.73178 c 0.159979,-0.23937 0.315506,-0.84123 0.345615,-1.33742 0.0301,-0.4962 0.135425,-1.16221 0.234037,-1.48002 0.09861,-0.31781 0.149397,-0.59175 0.112853,-0.60873 -0.03655,-0.017 -0.73746,0.0495 -1.557637,0.14689 -0.820151,0.098 -2.304364,0.27126 -3.298243,0.38537 -0.993876,0.11413 -1.824336,0.21114 -1.845477,0.21541 -0.02113,0.004 0.181198,0.89913 0.449622,1.9883 l 0.488043,1.98028 0.575676,-0.12281 c 0.316607,-0.0677 0.794218,-0.12109 1.061321,-0.1191 0.267105,0.002 1.083625,-0.13503 1.814475,-0.30473 1.178761,-0.27354 1.361678,-0.35752 1.619702,-0.74361 z m 7.488625,-3.57257 c 3.556119,-1.92735 6.689396,-4.405501 5.063528,-4.004808 -0.191778,0.04724 -1.121296,0.569164 -2.065604,1.159764 -0.944308,0.590596 -2.117029,1.217974 -2.606052,1.394134 -0.818659,0.29493 -0.890366,0.29629 -0.904709,0.0174 -0.01877,-0.36477 0.937825,-1.456827 4.2673,-4.87163 1.383306,-1.418771 2.85824,-2.957465 3.277631,-3.419339 0.419388,-0.461871 3.200107,-3.192978 6.179374,-6.069133 8.001824,-7.724871 12.233557,-11.85645 14.261581,-13.924046 0.994336,-1.013741 2.222504,-2.226065 2.729256,-2.694054 1.398643,-1.291647 6.108437,-5.96299 8.569627,-8.499665 1.204765,-1.241716 3.438672,-3.452211 4.964239,-4.912217 1.525569,-1.460002 3.311586,-3.211619 3.968931,-3.892481 0.657343,-0.680863 2.698184,-2.662688 4.535203,-4.404058 1.837017,-1.741365 4.623441,-4.449335 6.192049,-6.017708 1.56861,-1.56837 3.904991,-3.889662 5.19196,-5.158426 5.519039,-5.440968 6.294479,-6.257732 6.221654,-6.553217 -0.09379,-0.380497 -1.917637,0.921206 -4.017979,2.867658 -2.72093,2.521564 -6.074657,5.724147 -8.702652,8.310439 -1.378608,1.356731 -3.096831,2.940885 -3.818271,3.520341 -0.721442,0.579455 -1.737591,1.394301 -2.258106,1.810769 -0.520518,0.416466 -1.899273,1.75535 -3.063902,2.975301 -2.237518,2.343804 -6.475714,6.492729 -11.258605,11.021461 -1.585218,1.500982 -4.020953,3.886788 -5.412743,5.301791 -1.391792,1.415005 -3.147064,3.143861 -3.900604,3.841906 -0.753541,0.69804 -2.040745,1.940756 -2.860455,2.761586 -0.819708,0.820828 -2.672086,2.598219 -4.116394,3.949759 -2.723316,2.548394 -9.925003,9.5655 -11.726417,11.425867 -1.182077,1.220758 -2.718201,2.718575 -4.012604,3.912547 -1.448464,1.336074 -4.491692,5.107618 -6.597895,8.176919 -0.333859,0.48652 -0.841277,1.18953 -1.127597,1.56224 -0.509494,0.66323 -0.800381,1.60296 -0.567022,1.83179 0.190219,0.18652 1.812489,-0.45462 3.59528,-1.42084 z M 44.600364,92.026822 c 3.243415,-3.239076 6.725391,-6.764676 7.737733,-7.834662 1.012339,-1.069987 2.940098,-2.98406 4.283909,-4.253497 1.343811,-1.269435 2.46201,-2.335119 2.484884,-2.36818 0.02287,-0.03306 -0.823167,-0.368103 -1.880099,-0.744535 -1.056928,-0.376432 -2.071508,-0.763427 -2.254619,-0.85999 -0.307532,-0.162173 -0.401409,-0.117973 -1.230645,0.57942 -1.36481,1.147815 -4.885458,4.562409 -8.047251,7.804843 -1.560694,1.6005 -3.424482,3.479092 -4.141758,4.174666 -0.717272,0.695572 -2.228852,2.233103 -3.359065,3.416718 -1.130213,1.183615 -2.480675,2.568866 -3.001031,3.078319 -0.520351,0.509452 -0.969507,0.998883 -0.998122,1.087616 -0.07653,0.237307 0.311991,0.478309 1.828323,1.13411 1.520013,0.657389 2.325363,0.900161 2.537954,0.765068 0.07848,-0.04989 2.796374,-2.740822 6.039787,-5.979896 z M 7.4927881,100.98497 c 0.027247,-0.0451 0.06394,-1.332384 0.081536,-2.860689 0.017594,-1.528307 0.1191728,-3.461942 0.2257244,-4.296969 C 7.99717,92.282525 7.9256153,91.915308 7.3491387,91.513328 6.9251034,91.217636 6.9791771,90.726998 7.6325233,88.942041 9.3440406,84.266151 12.811571,79.496495 18.983203,73.328966 c 2.148874,-2.147446 6.765927,-5.915559 9.214886,-7.520541 3.612151,-2.367307 7.525499,-5.852178 7.353849,-6.548664 -0.07757,-0.314714 -1.134369,0.296777 -1.920971,1.111528 -1.24419,1.2887 -3.246599,2.84833 -4.334768,3.376254 -2.074113,1.006251 -5.293295,3.356394 -9.235331,6.742195 C 13.94122,75.745883 11.322037,78.622532 8.3258416,83.378336 6.8326672,85.748425 6.2083826,87.069134 4.9862251,90.443477 3.43417,94.728644 3.0043218,98.313645 3.7026387,101.14876 l 0.2116027,0.8591 1.7644998,-0.47045 c 0.9704762,-0.25876 1.7867924,-0.50736 1.8140419,-0.55244 z M 22.026282,96.872031 c 0.307156,-0.351511 1.085843,-1.714624 1.115714,-1.953069 0.02162,-0.172573 -1.402856,-0.595562 -2.292372,-0.680718 -0.37855,-0.03621 -1.842176,0.12028 -3.252524,0.347365 -2.221459,0.358027 -4.101056,0.578509 -6.294244,0.73834 l -0.568248,0.04185 -0.02465,1.355805 c -0.01357,0.745693 0.01189,1.562894 0.05655,1.815987 l 0.08119,0.46018 1.229872,-0.254732 c 0.676426,-0.140166 2.120089,-0.330525 3.208128,-0.423183 2.507916,-0.213519 2.720226,-0.245465 4.756204,-0.716067 1.35145,-0.312343 1.745041,-0.457387 1.984407,-0.731328 z m 33.78687,-8.458856 c 0.676635,-0.293229 1.503551,-0.773399 1.837591,-1.06703 1.0929,-0.960694 7.650376,-7.688067 7.618798,-7.816199 -0.01691,-0.06873 -0.623253,-0.31082 -1.347371,-0.537992 l -1.316576,-0.413038 -3.830847,3.949188 c -2.106966,2.172051 -3.983942,4.178992 -4.171059,4.459869 -0.339438,0.509503 -0.905632,1.973963 -0.850178,2.198971 0.01614,0.06527 0.209283,0.03782 0.429322,-0.06101 0.220042,-0.09884 0.953685,-0.419578 1.630318,-0.712806 z M 32.031676,86.142857 c 3.094146,-3.055365 7.26032,-7.109876 9.258164,-9.010021 1.997845,-1.900144 3.6209,-3.501658 3.60679,-3.558915 -0.01414,-0.05726 -1.716319,-0.547115 -3.782682,-1.088574 -2.066362,-0.541457 -4.829821,-1.354483 -6.141018,-1.80672 -3.509591,-1.210476 -4.276384,-1.400048 -4.717304,-1.166258 -0.204607,0.108485 -0.396689,0.273784 -0.426851,0.367325 -0.03015,0.09354 0.371221,0.550077 0.891967,1.014529 2.024293,1.805461 2.931124,3.449642 2.551655,4.626418 -0.40607,1.259264 -2.555978,3.035714 -4.637093,3.83159 -1.876071,0.717463 -4.150072,0.978825 -5.604525,0.644145 -0.751051,-0.172818 -1.786918,-0.772766 -1.862289,-1.07859 -0.0192,-0.07792 -0.659841,0.494251 -1.423645,1.271471 -2.796464,2.845591 -4.594514,5.192755 -5.716959,7.462902 -0.839624,1.698128 -1.756292,3.83037 -1.669314,3.882954 0.02929,0.01777 2.145622,-0.115152 4.702969,-0.295082 6.18823,-0.435693 7.504913,-0.421137 8.462345,0.09336 0.408489,0.219502 0.774064,0.391371 0.812391,0.381929 0.03834,-0.0092 2.601258,-2.517028 5.695402,-5.572393 z m 42.699689,-7.797083 c 0.150404,-0.572767 0.160249,-0.8716 0.03008,-0.913568 -0.26306,-0.08483 -1.926619,0.537961 -2.429045,0.909375 l -0.40684,0.300744 1.124357,0.315934 c 0.618394,0.173763 1.199407,0.298556 1.291135,0.27732 0.09172,-0.02123 0.267363,-0.421651 0.390299,-0.889805 z M 112.3151,66.472935 c 1.14295,-1.279234 1.72476,-2.188759 3.20363,-5.008164 l 1.13786,-2.169286 -0.71832,-1.305131 c -0.90018,-1.635607 -2.15067,-3.269574 -3.32337,-4.342524 -1.62252,-1.484516 -4.19219,-3.218903 -6.2738,-4.234477 -3.50418,-1.709625 -4.18749,-2.438696 -4.44435,-4.742 -0.15907,-1.426013 0.0311,-2.759166 0.66466,-4.660395 0.21196,-0.636041 0.28649,-1.083277 0.17577,-1.05468 -0.10575,0.02732 -0.60753,0.429803 -1.11511,0.894435 -0.84978,0.777871 -7.403633,7.590093 -10.869291,11.297781 -0.808763,0.865243 -2.136134,2.191342 -2.949714,2.946888 -0.81358,0.755544 -1.471154,1.406514 -1.461276,1.446595 0.0099,0.04008 0.128089,0.195185 0.262684,0.344674 0.749095,0.831963 0.498956,2.14594 -0.844067,4.433804 -1.211489,2.0638 -1.917905,2.837771 -9.747366,10.679484 -2.232668,2.236164 -2.551096,2.961018 -1.148956,2.61546 1.091677,-0.269046 1.866171,-0.844175 3.65535,-2.71442 0.942495,-0.985194 2.505529,-2.561001 3.473413,-3.501791 1.637853,-1.592011 1.883065,-1.914447 3.538993,-4.653534 1.767072,-2.922929 1.794542,-2.957634 4.027625,-5.088565 1.23663,-1.180058 2.551041,-2.465989 2.920912,-2.857624 0.797913,-0.844861 2.252965,-1.797654 2.864891,-1.875981 0.405811,-0.05194 0.459106,0.0038 0.763269,0.799411 0.179851,0.470389 0.683869,1.409121 1.120047,2.086073 0.498151,0.773134 0.868244,1.535619 0.995261,2.050503 l 0.202213,0.819685 1.333584,-0.324839 c 2.010538,-0.489694 2.972188,-0.176233 5.357428,1.745832 2.12904,1.715654 5.03417,5.218883 5.61963,6.776549 0.15788,0.420058 0.35494,0.718784 0.45749,0.693511 0.0991,-0.02442 0.6035,-0.518214 1.1209,-1.097319 z m -1.15313,-1.979265 c -0.25924,-0.299555 -0.77727,-0.808114 -1.15116,-1.130133 -0.37391,-0.322021 -0.90974,-0.856032 -1.19075,-1.186691 -1.59562,-1.877526 -4.43925,-4.096878 -6.27227,-4.895277 -2.676489,-1.16578 -3.457099,-1.804677 -3.773475,-3.088398 -0.249584,-1.012714 -0.170736,-2.844674 0.147374,-3.422672 0.60305,-1.095836 1.849691,-1.587868 2.683441,-1.059115 0.28749,0.182326 0.91852,0.4011 1.4023,0.486165 2.49864,0.439356 2.70702,0.516753 5.03238,1.869207 1.28993,0.750226 2.65413,1.623889 3.03158,1.941474 0.96177,0.809206 4.30045,5.085024 4.29441,5.499792 -0.003,0.181325 -0.50461,1.18454 -1.1155,2.229364 -1.12236,1.919629 -2.04318,3.159511 -2.41444,3.251006 -0.11141,0.02745 -0.41464,-0.195172 -0.67389,-0.494722 z M 69.149223,76.324687 c 0.622419,-0.534031 0.928137,-0.991493 1.518982,-2.272939 1.015293,-2.201998 2.038626,-3.758924 3.200353,-4.869103 4.287412,-4.097161 9.025036,-9.151917 9.624233,-10.268467 0.396308,-0.738484 0.539458,-1.525849 0.303363,-1.66858 -0.166207,-0.100477 -2.760347,2.363307 -5.322085,5.054676 -1.23536,1.297873 -2.772612,2.87874 -3.416117,3.513039 -2.140745,2.110119 -3.322759,3.515587 -4.18624,4.977625 -0.779466,1.319793 -1.034461,1.599317 -2.884538,3.162015 -2.300109,1.942826 -2.47049,2.161102 -1.933354,2.476815 0.38037,0.22357 1.952104,0.653231 2.18216,0.596535 0.0737,-0.01817 0.484653,-0.333888 0.913243,-0.701616 z m -5.931564,-2.876292 c 0.774781,-0.795015 2.264417,-2.430357 3.3103,-3.634098 3.019737,-3.475512 8.477144,-9.000411 17.572029,-17.789347 4.449602,-4.299918 9.801067,-9.551983 10.865547,-10.663724 0.530084,-0.55362 2.058338,-2.023484 3.396121,-3.266366 1.337783,-1.242881 3.969554,-3.758302 5.848374,-5.589825 1.87882,-1.831521 3.93822,-3.760149 4.57644,-4.285838 1.11797,-0.920871 1.18519,-0.954368 1.83905,-0.916594 1.70879,0.09872 1.86897,0.02045 3.54806,-1.733638 1.99541,-2.08455 3.13238,-3.04383 5.82389,-4.913759 1.21404,-0.843461 2.92112,-2.034998 3.7935,-2.647865 1.66073,-1.166697 2.00141,-1.333254 2.24286,-1.09651 0.0805,0.07896 0.32352,0.800717 0.54015,1.603879 0.57483,2.131838 2.72256,7.277912 4.04416,9.690031 0.27884,0.508933 0.53266,0.948855 0.56404,0.977607 0.0314,0.02875 0.16392,-0.106074 0.29449,-0.299601 0.31371,-0.464875 0.23096,-0.762167 -1.3839,-4.973246 -0.7425,-1.936216 -1.83102,-4.865896 -2.41891,-6.510404 -1.97745,-5.531334 -3.36319,-8.5681462 -4.39248,-9.6259661 -0.30385,-0.3122849 -1.05192,-0.8105625 -1.66238,-1.1072818 -1.20238,-0.5844428 -1.38399,-0.5672105 -2.68066,0.2543551 -0.51039,0.3233934 -3.64246,3.3439058 -6.7097,6.4707128 -0.92332,0.941267 -2.49535,2.528529 -3.4934,3.527251 -0.99803,0.998719 -1.93509,2.005617 -2.08236,2.23755 -0.1963,0.309216 -0.24381,0.768658 -0.17809,1.722462 0.11277,1.636966 0.007,2.064747 -0.79671,3.235933 -0.86619,1.261475 -2.96315,3.39695 -10.798661,10.996997 -3.622085,3.513236 -7.156074,6.980934 -7.853309,7.705993 -0.697235,0.725062 -2.626011,2.596805 -4.286168,4.159433 -1.660158,1.562627 -4.105229,3.92785 -5.433496,5.256052 -4.773935,4.77371 -7.633924,7.624976 -9.48573,9.456804 -1.036036,1.024858 -3.033098,3.142502 -4.437913,4.705876 -1.404818,1.563372 -3.344404,3.651606 -4.310194,4.640517 l -1.755984,1.798019 0.624455,0.401032 c 0.825937,0.530422 3.486159,1.753119 3.699742,1.70048 0.09249,-0.0228 0.802054,-0.691904 1.576837,-1.486919 z M 111.11689,25.557302 c -0.24181,-0.24001 -0.49071,-0.642446 -0.5531,-0.8943 -0.12743,-0.51436 -0.0893,-3.030854 0.0544,-3.594467 0.19344,-0.758317 1.24324,-1.980295 4.18795,-4.874855 1.66851,-1.640087 3.85619,-3.828937 4.8615,-4.864114 1.00531,-1.035178 1.9233,-1.905668 2.04,-1.9344271 0.88199,-0.2173682 2.89014,2.7500461 3.48879,5.1553721 0.26266,1.054295 0.19577,1.145398 -1.6264,2.222349 -3.4576,2.04355 -6.52124,4.371735 -9.07748,6.898381 -1.04827,1.03613 -2.13773,1.982554 -2.421,2.103158 -0.46629,0.198527 -0.55667,0.177971 -0.95469,-0.217097 z M 94.326119,66.339526 c 1.029789,-1.117538 1.499851,-3.355794 1.163906,-5.542063 -0.182516,-1.187744 -0.546805,-1.825491 -0.981551,-1.718347 -0.452155,0.111437 -0.535256,0.466791 -0.40408,1.727891 0.336882,3.238714 0.176681,4.143399 -0.880522,4.97287 -1.151369,0.903343 -1.495325,0.211938 -1.608191,-3.232711 -0.04155,-1.267821 -0.103845,-2.32225 -0.138427,-2.343178 -0.140694,-0.08506 -1.505357,0.822596 -1.795157,1.193962 -0.455386,0.583569 -0.593156,2.862279 -0.227419,3.761503 0.503536,1.238025 1.33717,1.933109 2.55218,2.128012 0.663908,0.106498 1.760752,-0.341804 2.319295,-0.947941 z m -44.674033,2.715137 c 0.94535,-0.915509 2.300379,-2.255168 3.011176,-2.97702 0.710796,-0.721854 3.554823,-3.491124 6.320059,-6.153932 2.765234,-2.66281 6.079744,-5.883328 7.365575,-7.156708 1.285831,-1.27338 2.987091,-2.926358 3.780581,-3.673279 0.793486,-0.746925 1.464159,-1.392597 1.490377,-1.434827 0.02623,-0.04222 -0.196844,-0.0998 -0.495699,-0.127899 -0.298855,-0.02811 -0.945086,-0.153069 -1.436067,-0.277682 l -0.892695,-0.226565 -0.96337,0.974268 c -1.155478,1.168548 -2.229728,1.965328 -3.154988,2.340072 -0.853288,0.34559 -2.551025,0.387273 -3.68164,0.09039 l -0.822718,-0.21604 -2.485724,0.950933 c -3.983963,1.5241 -9.866659,3.60164 -17.589656,6.211979 -1.517671,0.512969 -2.971008,1.022261 -3.229636,1.131762 l -0.470234,0.199092 0.495339,0.558416 c 0.699578,0.788658 1.001074,2.158616 0.831592,3.778629 -0.07102,0.678891 -0.238343,1.428423 -0.371821,1.665627 -0.365855,0.650163 -1.21867,1.271989 -2.44184,1.780461 -0.604585,0.251323 -1.187565,0.512348 -1.295512,0.58005 -0.35911,0.225229 13.379513,3.854678 14.038658,3.708716 0.153679,-0.03405 1.052892,-0.81093 1.99824,-1.726437 z M 63.845479,46.930637 c 0.844348,-0.730719 0.997918,-1.256808 0.708047,-2.425565 C 64.242829,43.25244 63.54622,42.336 62.159859,41.356129 61.106115,40.61135 60.151198,40.334308 59.005331,40.440936 c -0.654929,0.06094 -0.740627,0.111092 -0.938962,0.549464 -0.822809,1.818603 0.736652,5.100991 3.034758,6.387624 0.881046,0.493272 0.95649,0.505736 1.575015,0.260228 0.357303,-0.141817 0.883504,-0.46025 1.169337,-0.707615 z m 12.218604,-2.948548 c 0.07951,-0.650097 0.01261,-0.776414 -0.800357,-1.5111 -1.107758,-1.001108 -1.225947,-1.062826 -1.451326,-0.757857 -0.250706,0.339242 -0.111467,0.82863 0.478716,1.682547 0.834809,1.207867 1.663457,1.481943 1.77297,0.58641 z M 68.2839,43.253956 c -0.0098,-1.591895 0.317186,-2.149927 2.267828,-3.869635 0.969287,-0.854535 1.773128,-1.639698 1.786308,-1.744812 0.01319,-0.105116 -0.282184,-0.69199 -0.656364,-1.304174 -1.496866,-2.448958 -4.224255,-4.268986 -5.499702,-3.670039 -0.489647,0.229936 -4.46629,3.509218 -4.784329,3.945328 -0.173416,0.237795 -0.181486,0.3404 -0.02862,0.363805 0.552083,0.08454 2.273606,1.040278 3.136676,1.741406 1.518267,1.233389 2.488622,2.601524 3.222729,4.543827 0.176677,0.467457 0.375047,0.83666 0.440818,0.820451 0.06578,-0.01617 0.117365,-0.38798 0.114652,-0.826155 z m 12.715308,-3.95426 c 0.98989,-0.956369 1.882572,-1.822479 1.983738,-1.924692 0.157949,-0.159591 0.118318,-0.300757 -0.280495,-0.999277 -0.255437,-0.447388 -0.50681,-0.839051 -0.558602,-0.870362 -0.0518,-0.03131 -0.266713,0.179895 -0.477607,0.469354 -0.621072,0.852436 -1.385691,1.425906 -2.632693,1.974533 -0.64416,0.283398 -1.213807,0.585751 -1.26588,0.671888 -0.152097,0.251586 1.106341,2.497604 1.363843,2.434142 0.03736,-0.0092 0.877812,-0.799218 1.867701,-1.755587 z M 75.695041,36.67218 c 0.0917,-0.189312 -0.02581,-0.547357 -0.478223,-1.457563 -0.32988,-0.663631 -0.775354,-1.590333 -0.989939,-2.059335 -0.481739,-1.052904 -1.638951,-2.028539 -3.151325,-2.656853 -1.246244,-0.517751 -1.531794,-0.54959 -2.003562,-0.22339 -0.357937,0.247491 -0.351009,0.254001 1.39965,1.315377 1.973393,1.196414 2.669342,1.888918 3.711519,3.693137 1.012394,1.75266 1.236039,1.958072 1.511876,1.388627 z m 10.939108,-3.266576 c 1.102934,-0.922497 5.62916,-5.081365 5.752814,-5.285903 0.147054,-0.243244 -0.981545,-0.753723 -1.424837,-0.644473 -0.204707,0.05045 -1.365124,0.960906 -2.578704,2.023235 -2.027473,1.774788 -2.268376,1.94232 -2.969022,2.064767 -0.67894,0.11866 -0.762674,0.17241 -0.763971,0.490407 -8.6e-4,0.196435 0.261213,0.731728 0.582245,1.189552 0.321037,0.457825 0.589041,0.831092 0.595565,0.829485 0.0066,-0.0016 0.369186,-0.301791 0.80591,-0.66707 z m -7.805335,0.577327 c -0.281282,-1.248287 -0.292522,-1.5366 -0.08696,-2.229407 0.26737,-0.901052 0.812023,-1.741552 1.806447,-2.78768 0.375424,-0.394943 0.663993,-0.793542 0.641262,-0.885772 -0.02273,-0.09222 -0.424234,-0.39918 -0.892231,-0.68211 -0.720954,-0.435857 -0.9117,-0.483903 -1.249003,-0.314611 -0.660637,0.331578 -3.147036,2.547481 -3.235171,2.883216 -0.0621,0.236575 0.274062,0.866049 1.37494,2.574615 0.801425,1.243816 1.49181,2.402168 1.534187,2.574119 0.07851,0.318551 0.290056,0.532108 0.379896,0.383506 0.02733,-0.04521 -0.09569,-0.727346 -0.273378,-1.515876 z M 84.10579,25.551909 C 83.570582,24.582397 82.537479,23.360522 81.844865,22.877855 81.014368,22.2991 79.572017,21.883574 78.93324,22.039046 c -0.272482,0.06633 -0.479832,0.171271 -0.460776,0.233232 0.01909,0.06194 0.443698,0.29307 0.943652,0.51359 0.892924,0.393849 3.516672,2.511528 4.465708,3.604361 0.444939,0.512358 0.462209,0.517163 0.504836,0.140462 0.02693,-0.238021 -0.08254,-0.619514 -0.280867,-0.978782 z m -9.51937,0.691162 c 1.05968,-0.553172 1.717952,-1.191397 1.827024,-1.771382 0.118236,-0.628712 -2.33e-4,-0.828007 -0.605879,-1.019277 -0.872561,-0.275559 -2.509368,0.170904 -3.400531,0.927542 -1.483512,1.259567 -0.972061,2.848366 0.790042,2.454231 0.247307,-0.05528 0.872502,-0.321316 1.389344,-0.591114 z m 14.464027,-4.617169 2.209684,-1.856018 -0.135733,-0.553694 c -0.117373,-0.478767 -1.059055,-2.201993 -1.800952,-3.295635 -0.129612,-0.191056 -0.643219,-0.499473 -1.141361,-0.685371 -0.78902,-0.29445 -1.026272,-0.308648 -1.841461,-0.110207 -0.861657,0.209807 -1.091684,0.360916 -2.905386,1.909413 -1.083299,0.924894 -2.017898,1.781261 -2.076884,1.903037 -0.07744,0.15986 0.09657,0.29915 0.625953,0.501059 1.259516,0.48039 2.709467,1.580598 3.769143,2.85999 0.5491,0.662954 1.018378,1.200434 1.042839,1.194406 0.02446,-0.0061 1.038834,-0.84617 2.254162,-1.866981 z"
     id="path90" /><path
     style="fill:#ffffff;stroke:#000000;stroke-width:2.95791;stroke-dasharray:none"
     d="M 88.761992,84.675116 82.952548,39.601041"
     id="path91" /><path
     style="fill:#ffffff;stroke:none;stroke-width:0.907838;stroke-dasharray:none"
     d="M 3.9160417,101.75767 C 3.8844919,101.6556 3.7854915,101.22029 3.6960406,100.79033 3.0741922,97.80129 3.5910455,94.342029 5.3660978,89.612753 6.5031476,86.583308 7.3185366,85.011638 9.2719996,82.084092 11.803132,78.290824 14.339526,75.55989 19.487992,71.084537 c 4.073643,-3.541054 7.219802,-5.864606 9.974567,-7.36658 1.024252,-0.55845 2.48667,-1.674413 3.917429,-2.989371 1.673704,-1.538237 2.621793,-1.971172 1.755484,-0.801621 -0.955159,1.289502 -3.645189,3.523279 -7.28685,6.050928 -5.478281,3.802436 -10.809289,8.778579 -14.921736,13.928456 -2.804273,3.511695 -5.053275,7.527996 -5.7749303,10.312956 -0.2042787,0.788336 -0.1454645,1.16436 0.2195259,1.403511 0.4332306,0.283864 0.532148,0.801423 0.3903202,2.04225 -0.068812,0.602028 -0.1692154,2.476625 -0.2231181,4.16577 -0.053903,1.689145 -0.10116,3.082124 -0.1050163,3.095504 -0.00851,0.0295 -1.5475096,0.49052 -2.6549893,0.7953 -0.7414425,0.20405 -0.8098206,0.20691 -0.8626364,0.036 z"
     id="path92" /><path
     style="fill:#ffffff;stroke:none;stroke-width:0.907838;stroke-dasharray:none"
     d="m 10.848236,98.699479 c -0.03749,-0.139925 -0.06884,-0.938538 -0.06968,-1.774696 l -0.0015,-1.520285 1.088871,-0.0756 c 1.343318,-0.09326 3.415688,-0.335476 5.332674,-0.623268 2.884547,-0.433049 3.436017,-0.467384 4.378896,-0.272627 0.818967,0.169164 1.484253,0.422706 1.484253,0.565655 0,0.19635 -1.090139,1.857087 -1.316298,2.005272 -0.651687,0.427001 -3.367742,0.961237 -6.457777,1.270212 -1.996042,0.199588 -3.612334,0.438872 -4.178753,0.618646 -0.134222,0.0426 -0.213132,-0.01593 -0.260657,-0.193312 z"
     id="path93" /><path
     style="fill:#ffffff;stroke:none;stroke-width:0.453919;stroke-dasharray:none"
     d="m 9.6913509,108.06957 c -0.2251228,-0.7202 -0.6390148,-2.36572 -0.7775382,-3.09128 -0.1770012,-0.92709 -0.1794015,-0.94927 -0.1027353,-0.94927 0.1411946,0 0.4865333,0.2878 0.6213187,0.51779 0.3480879,0.59397 0.6763929,1.8069 0.7380829,2.72686 0.03074,0.45839 0.01835,0.59447 -0.08518,0.93531 -0.06663,0.21939 -0.1446743,0.39888 -0.1734194,0.39888 -0.028745,0 -0.1279814,-0.24223 -0.2205247,-0.53829 z"
     id="path94" /><path
     style="fill:#ffffff;stroke:none;stroke-width:0.453919;stroke-dasharray:none"
     d="m 12.347458,105.26758 c -0.231629,-0.94641 -0.43752,-1.82316 -0.457537,-1.94833 l -0.03639,-0.22759 0.215583,-0.0345 c 0.665714,-0.10658 6.055449,-0.70551 6.225173,-0.69176 l 0.20228,0.0164 -0.127806,0.51823 c -0.07029,0.28502 -0.167599,0.86296 -0.216235,1.28431 -0.167445,1.45063 -0.363196,1.79869 -1.151693,2.04778 -0.66197,0.20911 -2.027417,0.47081 -2.77544,0.53192 -0.597927,0.0488 -0.838177,0.0843 -1.335786,0.19693 -0.115515,0.0262 -0.140107,-0.0507 -0.542146,-1.69335 z"
     id="path95" /><path
     style="fill:#ffffff;stroke:none;stroke-width:0.453919;stroke-dasharray:none"
     d="m 25.387919,109.74018 c -0.163229,-0.30819 -0.985547,-3.80493 -0.911786,-3.87719 0.06075,-0.0595 0.791351,-0.27046 0.93673,-0.27046 0.07354,0 0.182374,0.0487 0.241844,0.10813 0.229271,0.22927 0.673626,2.05155 0.673626,2.76252 0,0.46391 -0.171068,0.83209 -0.514885,1.10814 -0.334535,0.2686 -0.366072,0.28111 -0.425529,0.16886 z"
     id="path96" /><path
     style="fill:#ffffff;stroke:none;stroke-width:0.453919;stroke-dasharray:none"
     d="m 13.447781,130.79934 c -0.05738,-0.14953 0.027,-1.84834 0.12282,-2.47262 0.13542,-0.8823 0.677026,-2.26252 1.701117,-4.33507 0.648095,-1.31161 1.02326,-1.82929 2.349755,-3.24235 l 0.842136,-0.8971 0.540111,0.19606 c 0.504019,0.18296 0.584888,0.19612 1.210186,0.19694 1.167565,0.002 1.372531,-0.13247 3.575005,-2.33712 1.798141,-1.79993 3.185234,-3.27623 3.963884,-4.21882 0.266385,-0.32247 0.584536,-0.68981 0.706998,-0.8163 l 0.22266,-0.22999 0.390814,0.0745 c 0.361394,0.0689 1.893075,0.46532 1.937006,0.50138 0.0629,0.0516 -0.996963,1.35143 -2.113801,2.59234 -2.109057,2.34337 -4.306279,4.53287 -4.874578,4.85744 -0.153163,0.0875 -0.523672,0.22629 -0.823354,0.30848 -0.650233,0.17833 -0.790277,0.29744 -0.915646,0.77876 -0.10783,0.41399 -0.109204,0.85102 -0.004,1.28654 0.04449,0.18427 0.08179,0.37418 0.08289,0.42203 0.006,0.26317 -5.929498,5.34555 -7.899303,6.7639 -0.830297,0.59785 -0.973447,0.67841 -1.014654,0.57103 z"
     id="path97" /><path
     style="fill:#ffffff;stroke:none;stroke-width:0.453919;stroke-dasharray:none"
     d="m 36.968841,112.42076 c -0.02024,-0.0527 -0.0057,-0.31526 0.03221,-0.58339 0.08765,-0.61929 0.0531,-0.77345 -0.426881,-1.90438 -0.6238,-1.46983 -1.536078,-2.93939 -2.320348,-3.73779 -0.317614,-0.32333 -0.470096,-0.42614 -1.008854,-0.68017 -0.349081,-0.16459 -1.02417,-0.44375 -1.500203,-0.62035 -1.156962,-0.42922 -2.065375,-0.83782 -2.296012,-1.03275 -0.170429,-0.14404 -0.179914,-0.16682 -0.09727,-0.23358 0.05037,-0.0407 0.741381,-0.56818 1.535586,-1.17222 0.794205,-0.60404 1.815238,-1.4031 2.268961,-1.77568 l 0.82495,-0.67741 0.626877,0.37575 c 1.051219,0.6301 1.604068,1.01931 1.604068,1.12927 0,0.0553 -0.06565,0.26199 -0.145896,0.45923 -0.123106,0.30261 -0.14192,0.41968 -0.120444,0.7495 0.04389,0.67401 0.302498,1.13302 1.736368,3.0819 1.189821,1.61718 2.240582,3.24816 2.302677,3.57419 0.02638,0.13845 -0.05421,0.24896 -0.704361,0.96601 -1.058407,1.1673 -2.069737,2.17774 -2.179674,2.17774 -0.05223,0 -0.111522,-0.0431 -0.131755,-0.0959 z"
     id="path98" /><path
     style="fill:#ffffff;stroke:none;stroke-width:0.453919;stroke-dasharray:none"
     d="m 21.695579,103.47423 c -0.09171,-0.17137 0.01491,-0.63789 0.253037,-1.10714 0.105003,-0.20692 0.437999,-0.71544 0.73999,-1.13005 0.301992,-0.4146 0.923124,-1.280399 1.380294,-1.92399 1.406154,-1.979528 3.178578,-4.234712 4.588042,-5.837698 0.337553,-0.383897 1.164119,-1.224523 1.836817,-1.868062 0.672698,-0.64354 2.768447,-2.706221 4.657217,-4.583739 2.991745,-2.973917 5.162513,-5.100003 8.179988,-8.011608 0.430239,-0.415147 1.69885,-1.621279 2.819136,-2.680298 1.120283,-1.059018 2.715898,-2.591445 3.545808,-3.405391 0.829911,-0.813948 2.036612,-1.981438 2.68156,-2.594425 0.644946,-0.612984 2.705423,-2.636787 4.57884,-4.49734 1.873417,-1.860552 4.473795,-4.39941 5.778616,-5.641906 4.282091,-4.077547 5.566974,-5.331794 9.437654,-9.212604 3.785044,-3.794959 3.839882,-3.846915 5.248913,-4.97327 1.435422,-1.147453 2.273773,-1.873687 3.596719,-3.115707 0.396539,-0.372285 0.728372,-0.669491 0.737404,-0.660458 0.009,0.009 0.0592,0.35388 0.111467,0.766328 l 0.09504,0.749904 -0.703228,0.671816 c -3.462306,3.307676 -6.203964,5.961373 -8.249241,7.984578 -1.336243,1.321824 -3.396723,3.338872 -4.578839,4.48233 -1.182119,1.143458 -3.795176,3.742206 -5.806795,5.775 -2.011619,2.032791 -4.737984,4.742754 -6.058588,6.022139 -1.320604,1.279385 -3.456967,3.379528 -4.747469,4.666991 -2.326275,2.320785 -5.749161,5.663213 -10.859675,10.604407 -4.909021,4.746377 -8.064048,7.837155 -8.819486,8.639885 -0.412872,0.438719 -1.733349,1.815346 -2.934394,3.059173 -3.230486,3.345551 -3.836312,4.005406 -4.224716,4.601455 -0.226732,0.34795 -0.278646,0.62649 -0.12757,0.68446 0.301281,0.11561 1.690496,-0.52936 3.568286,-1.656654 0.674611,-0.404987 1.396408,-0.821876 1.603992,-0.926412 0.371477,-0.187074 0.771096,-0.253371 0.771096,-0.127929 0,0.113043 -0.800116,0.858382 -1.395989,1.300424 -2.352874,1.745441 -6.198581,3.836051 -7.413998,4.030401 -0.194025,0.031 -0.234338,0.0193 -0.289929,-0.0846 z"
     id="path99" /><path
     style="fill:#ffffff;stroke:none;stroke-width:0.453919;stroke-dasharray:none"
     d="m 37.579994,97.81042 c -0.655473,-0.216238 -1.723488,-0.660074 -2.51982,-1.04717 -0.556885,-0.270698 -0.85847,-0.485056 -0.85847,-0.610166 0,-0.03506 0.534125,-0.607915 1.186942,-1.273017 0.652817,-0.665101 1.927188,-1.975673 2.831934,-2.912382 1.819817,-1.884109 7.280116,-7.400187 10.273749,-10.378703 2.85336,-2.838952 5.213062,-5.04576 5.861056,-5.481296 0.298397,-0.200559 0.404632,-0.20502 0.793149,-0.03329 0.165061,0.07296 1.016249,0.397433 1.891533,0.721064 0.875284,0.323627 1.689553,0.630256 1.809486,0.681394 l 0.218059,0.09298 -0.190138,0.182848 c -0.104579,0.100565 -0.981665,0.936299 -1.949085,1.857182 -0.96742,0.920882 -3.163424,3.104417 -4.880009,4.852299 -1.716588,1.747883 -5.455431,5.50857 -8.308544,8.357082 -5.941756,5.932178 -5.179545,5.314575 -6.159842,4.991182 z"
     id="path100" /><path
     style="fill:#ffffff;stroke:none;stroke-width:0.453919;stroke-dasharray:none"
     d="m 44.058817,109.74334 c -0.213606,-0.0655 -0.363601,-0.1726 -0.649438,-0.46358 -0.581951,-0.59244 -1.924566,-2.6803 -2.437524,-3.79053 l -0.194548,-0.42107 1.360839,-1.34749 c 0.748461,-0.74112 1.479717,-1.41677 1.62501,-1.50144 0.240472,-0.14014 0.282295,-0.14798 0.466127,-0.0873 0.273198,0.0902 0.826127,0.6224 1.8258,1.75749 0.459814,0.5221 1.322919,1.44778 1.918015,2.05706 1.104484,1.13082 1.731777,1.85685 1.923634,2.2264 0.136319,0.26257 0.136824,0.25894 -0.046,0.32942 -0.598326,0.23064 -3.912354,1.12733 -4.614074,1.24844 -0.604348,0.10431 -0.818092,0.10296 -1.177838,-0.007 z"
     id="path101" /><path
     style="fill:#ffffff;stroke:none;stroke-width:0.453919;stroke-dasharray:none"
     d="m 39.07325,116.70268 c -0.159586,-0.0641 -0.208931,-0.17755 -0.370555,-0.85176 l -0.131019,-0.54656 1.458542,-1.41269 c 1.818302,-1.76113 1.947659,-1.8776 2.085346,-1.8776 0.06147,0 0.336171,0.1491 0.610457,0.33132 0.861415,0.57231 1.155549,0.64079 2.035307,0.4739 1.778707,-0.33741 6.370731,-1.62489 8.007017,-2.24494 1.595462,-0.60459 4.427199,-1.96042 6.449463,-3.08799 3.501583,-1.95241 8.154355,-5.00342 10.569173,-6.93063 1.999808,-1.596007 4.555545,-3.885248 6.467919,-5.793484 2.498408,-2.493005 3.875294,-4.085101 4.350811,-5.030862 0.26933,-0.53567 0.379831,-0.929839 0.661213,-2.358618 0.256907,-1.304504 0.410263,-1.675582 0.860753,-2.082797 0.437891,-0.395825 0.73637,-0.510654 1.520505,-0.584967 0.368218,-0.0349 1.008716,-0.06722 1.423323,-0.07183 0.82804,-0.0092 1.018286,0.04045 1.166215,0.304366 0.07203,0.128513 0.07043,0.19037 -0.01392,0.537408 -0.322742,1.327878 -1.494087,3.80232 -2.954568,6.241463 -1.578668,2.636528 -2.441324,3.712898 -4.990743,6.227149 -2.98526,2.944072 -7.049387,6.243352 -10.22345,8.299442 -4.518332,2.92688 -7.506153,4.55502 -10.624101,5.78935 -2.403962,0.95167 -3.818736,1.35297 -11.335422,3.21526 -6.038168,1.49597 -6.620306,1.6166 -7.022272,1.45507 z"
     id="path102" /><path
     style="fill:#ffffff;stroke:none;stroke-width:0.453919;stroke-dasharray:none"
     d="m 47.966147,122.68312 c -0.750258,-0.12301 -1.172562,-0.35367 -1.361294,-0.74354 -0.20025,-0.41366 -0.407805,-1.31048 -0.4171,-1.80225 -0.0079,-0.4193 0.0041,-0.46934 0.186968,-0.77836 0.107489,-0.18164 0.368723,-0.51446 0.580519,-0.7396 0.907251,-0.96444 2.1175,-1.40819 3.650409,-1.33846 0.96997,0.0441 1.263272,0.20745 1.710134,0.95227 0.333698,0.5562 0.449951,0.98299 0.451345,1.65697 0.0011,0.5696 -0.0057,0.60303 -0.209055,1.01466 -0.285681,0.57831 -0.774512,1.07904 -1.322396,1.35461 -0.340256,0.17113 -0.543327,0.22809 -1.11679,0.31323 -0.84427,0.12534 -1.771732,0.17293 -2.15274,0.11047 z"
     id="path103" /><path
     style="fill:#ffffff;stroke:none;stroke-width:0.453919;stroke-dasharray:none"
     d="m 57.248276,120.11686 c -0.05136,-1.00695 -0.515845,-2.57969 -1.048483,-3.55019 -0.128585,-0.23428 -0.224557,-0.43263 -0.213273,-0.44077 0.0113,-0.008 0.397433,-0.14886 0.85811,-0.31272 1.59081,-0.56582 4.324398,-1.6852 5.593895,-2.29065 2.185646,-1.04239 7.29242,-4.15438 9.287336,-5.65955 2.89166,-2.18178 8.735459,-7.32182 10.106747,-8.889613 0.573371,-0.655531 0.643311,-0.667178 0.445773,-0.07423 -0.415684,1.247743 -2.601611,4.608303 -4.403958,6.770483 -3.440785,4.12772 -9.361882,8.99077 -14.692009,12.06668 -1.126159,0.64988 -1.898901,1.04738 -3.99924,2.05719 l -1.904683,0.91575 z"
     id="path104" /><path
     style="fill:#ffffff;stroke:none;stroke-width:0.453919;stroke-dasharray:none"
     d="m 61.060511,95.148188 c -0.261048,-0.01664 -0.527645,-0.05962 -0.592439,-0.09549 -0.06479,-0.03587 -0.17254,-0.192456 -0.23944,-0.34797 -0.23341,-0.542578 -1.011145,-3.776792 -1.010584,-4.202528 1.38e-4,-0.105058 0.06495,-0.27846 0.153559,-0.410855 0.162521,-0.242827 7.438769,-7.610883 8.670785,-8.780191 l 0.726141,-0.689181 1.82766,0.612759 c 2.105885,0.706041 2.815365,0.975503 3.07009,1.166024 0.156681,0.11719 0.18148,0.16931 0.18148,0.381426 0,0.679217 -0.333396,1.417048 -1.101526,2.437768 -0.900308,1.196361 -1.864392,2.242836 -5.738815,6.229255 -0.952064,0.979585 -2.070251,2.134685 -2.484859,2.566892 -0.436721,0.455256 -0.850199,0.834372 -0.982911,0.901227 -0.407088,0.205073 -1.41373,0.298815 -2.479141,0.230867 z"
     id="path105" /><path
     style="fill:#ffffff;stroke:none;stroke-width:0.453919;stroke-dasharray:none"
     d="m 47.551595,101.17831 c -0.224372,-0.24728 -0.398782,-0.45778 -0.387577,-0.46777 0.01122,-0.01 0.126645,-0.0717 0.256529,-0.13725 0.397383,-0.20038 0.999614,-0.772758 2.48616,-2.362912 1.767049,-1.890205 3.043203,-3.05984 3.338507,-3.05984 0.117467,0 0.374738,0.363225 0.420958,0.594328 0.03295,0.164745 -0.01426,0.22031 -1.017953,1.198046 -2.29443,2.235105 -4.005974,3.949498 -4.300945,4.308098 -0.170521,0.2073 -0.32752,0.37691 -0.348882,0.37691 -0.02135,0 -0.222422,-0.20232 -0.446797,-0.44961 z"
     id="path106" /><path
     style="fill:#ffffff;stroke:none;stroke-width:0.453919;stroke-dasharray:none"
     d="m 53.801376,89.069381 c 0,-0.253519 0.521084,-1.571244 0.777357,-1.965789 0.270044,-0.41575 1.632088,-1.87121 5.167627,-5.522058 1.323507,-1.36667 2.507975,-2.595107 2.632152,-2.729854 l 0.225777,-0.244999 1.056857,0.341969 c 0.581271,0.188084 1.176727,0.398846 1.323237,0.468357 l 0.266385,0.126386 -0.651931,0.697995 c -0.814289,0.871826 -5.77469,5.964733 -5.949963,6.108904 -0.07098,0.05839 -0.368446,0.336949 -0.66103,0.619032 -0.364667,0.351576 -0.707112,0.616159 -1.088869,0.841291 -0.574357,0.338709 -2.826387,1.362903 -2.99988,1.364305 -0.05913,5.29e-4 -0.09772,-0.0412 -0.09772,-0.105539 z"
     id="path107" /><path
     style="fill:#ffffff;stroke:none;stroke-width:0.453919;stroke-dasharray:none"
     d="m 67.454139,76.866202 c -0.960641,-0.25041 -1.541587,-0.490673 -1.608585,-0.665266 -0.05171,-0.134744 0.138464,-0.422265 0.512831,-0.775367 0.203706,-0.192135 0.97332,-0.867185 1.710254,-1.500108 1.826715,-1.568895 2.007648,-1.768028 2.852698,-3.139702 0.930124,-1.50976 1.725549,-2.463612 3.872542,-4.64385 0.756084,-0.767795 2.381184,-2.438792 3.611332,-3.713327 2.42914,-2.516794 4.21566,-4.260183 5.055897,-4.933842 l 0.260228,-0.208637 0.0378,0.407458 c 0.07015,0.756121 -0.218122,1.268048 -1.642414,2.916698 -1.399336,1.619769 -4.38781,4.743665 -7.072829,7.393335 -2.568366,2.534552 -2.861963,2.931565 -4.301228,5.816248 -0.822777,1.649076 -1.078433,2.028918 -1.731272,2.572232 -0.834255,0.694295 -0.778158,0.677216 -1.557254,0.474128 z"
     id="path108" /><path
     style="fill:#ffffff;stroke:none;stroke-width:0.453919;stroke-dasharray:none"
     d="M 60.948833,74.677912 C 60.261851,74.39865 58.193545,73.363647 57.748574,73.076469 l -0.380363,-0.245483 1.162116,-1.195195 c 1.510644,-1.553639 2.569475,-2.682253 4.316381,-4.600842 3.408543,-3.743532 3.767101,-4.110675 11.978246,-12.265041 5.437379,-5.399781 7.575246,-7.47788 7.601977,-7.389445 0.0296,0.09793 0.690192,5.276416 0.690192,5.41052 0,0.09748 -0.708654,0.821743 -2.861775,2.924813 -3.337875,3.260278 -8.861193,8.796041 -10.460118,10.483681 -1.210339,1.277498 -2.373447,2.547175 -3.37449,3.68368 -2.70831,3.074797 -4.591011,5.003892 -4.872599,4.992666 -0.06857,-0.0027 -0.338256,-0.09179 -0.599308,-0.197911 z"
     id="path109" /><path
     style="fill:#ffffff;stroke:none;stroke-width:0.453919;stroke-dasharray:none"
     d="m 74.108346,73.615097 c -0.130341,-0.130342 0.08316,-0.556811 0.568407,-1.135404 0.141666,-0.168913 1.791849,-1.86504 3.667072,-3.769167 3.917294,-3.977669 4.569273,-4.652637 5.415453,-5.606402 l 0.614232,-0.692333 0.113917,0.887868 0.113916,0.887868 -0.249272,0.390877 c -0.610491,0.957294 -1.106418,1.500219 -4.287554,4.69388 -1.776138,1.783128 -3.405235,3.372247 -3.620217,3.531375 -0.476555,0.35274 -1.056953,0.644211 -1.515727,0.761185 -0.355349,0.0906 -0.755369,0.115113 -0.820227,0.05025 z"
     id="path110" /><path
     style="fill:#ffffff;stroke:none;stroke-width:0.453919;stroke-dasharray:none"
     d="m 111.0402,67.402958 c -0.0638,-0.08965 -0.19221,-0.341919 -0.28526,-0.560591 -0.54954,-1.291392 -2.03462,-3.253741 -3.90429,-5.159018 -1.69352,-1.725777 -3.24187,-2.896103 -4.42746,-3.346498 -0.43594,-0.165611 -0.5015,-0.174847 -1.24198,-0.174988 -0.73011,-1.37e-4 -0.84587,0.01551 -1.752222,0.236813 -0.533757,0.130329 -0.975395,0.229748 -0.981417,0.22093 -0.006,-0.0088 -0.07759,-0.274979 -0.159043,-0.591468 -0.184214,-0.715791 -0.438796,-1.263222 -1.084027,-2.330995 -0.515099,-0.852419 -0.959506,-1.703846 -1.182944,-2.266363 -0.191392,-0.481841 -0.298432,-0.571299 -0.635757,-0.53135 -0.502685,0.05954 -1.487387,0.615315 -2.258235,1.274578 -0.685255,0.586057 -5.31703,5.135229 -5.650391,5.549622 -0.192741,0.239591 -0.35006,0.391094 -0.362869,0.349448 -0.01243,-0.04043 -0.07515,-0.500689 -0.139361,-1.022789 -0.106841,-0.868696 -0.109691,-0.975339 -0.03356,-1.256387 0.10672,-0.39401 0.107857,-1.092412 0.0024,-1.391685 -0.04523,-0.128203 -0.160149,-0.341585 -0.255373,-0.474178 -0.314375,-0.437761 -0.323403,-0.424037 1.28293,-1.950207 0.780974,-0.741997 2.073918,-2.040101 2.873214,-2.884672 7.721436,-8.158827 11.250795,-11.758563 11.835485,-12.07148 0.0965,-0.05166 0.10132,-0.03843 0.0647,0.178371 -0.0217,0.128789 -0.15013,0.589643 -0.28525,1.024118 -0.50839,1.634619 -0.66743,2.63045 -0.61663,3.86113 0.051,1.235507 0.27686,2.158172 0.67153,2.743145 0.25766,0.381902 0.83008,0.913979 1.37518,1.278255 0.29176,0.194977 1.19636,0.696878 2.01022,1.115338 1.68003,0.863812 2.80032,1.522277 3.98005,2.339337 3.0086,2.083687 4.47465,3.683535 6.20564,6.771971 l 0.53707,0.958242 -0.84619,1.610378 c -1.38959,2.644511 -1.99569,3.674507 -2.70956,4.6046 -0.4605,0.599966 -1.32867,1.568886 -1.64401,1.834785 l -0.26638,0.224612 z m 1.28682,-2.79091 c 0.63937,-0.665231 1.9897,-2.799432 2.73964,-4.330007 0.3915,-0.799002 0.39065,-0.767371 0.0361,-1.352415 -0.48204,-0.795359 -2.62049,-3.502753 -3.53193,-4.471625 -0.49932,-0.530775 -1.29172,-1.086784 -3.0473,-2.138196 -1.487,-0.890558 -2.47267,-1.402652 -3.10877,-1.615115 -0.28206,-0.09421 -1.02333,-0.27184 -1.64727,-0.394734 -1.29273,-0.254622 -1.53894,-0.32616 -2.08371,-0.605425 -0.35134,-0.180112 -0.43606,-0.200501 -0.83759,-0.201589 -0.38897,-0.0011 -0.49591,0.02209 -0.82727,0.179036 -0.455874,0.215924 -0.912349,0.658918 -1.119743,1.086675 -0.20307,0.418849 -0.283871,0.999657 -0.278194,1.999692 0.01302,2.292477 0.57303,3.001262 3.411647,4.317992 1.22525,0.568347 1.57229,0.760601 2.49897,1.384406 1.37238,0.923835 2.98246,2.303174 3.94051,3.375811 0.28517,0.319268 1.11607,1.158772 1.84645,1.865567 1.08433,1.049308 1.35643,1.285078 1.48313,1.285078 0.11888,0 0.24172,-0.09006 0.52535,-0.385151 z"
     id="path111" /><path
     style="fill:#ffffff;stroke:none;stroke-width:0.453919;stroke-dasharray:none"
     d="M 85.828163,50.081155 C 85.810119,49.977454 85.645672,48.73673 85.462726,47.32399 l -0.332629,-2.568617 2.413778,-2.401099 c 1.327579,-1.320605 3.393721,-3.356042 4.591426,-4.523193 1.197705,-1.167151 3.534545,-3.444597 5.19298,-5.06099 3.683579,-3.590208 6.852279,-6.781781 7.587519,-7.642308 0.60143,-0.703911 1.11376,-1.436493 1.33178,-1.904294 0.24693,-0.529856 0.27402,-0.769361 0.25559,-2.260031 -0.021,-1.69598 -0.064,-1.575063 0.94611,-2.656028 1.21585,-1.301075 7.15799,-7.280863 8.8912,-8.94752 2.05851,-1.9794763 2.37733,-2.2621801 2.93273,-2.6005319 0.63898,-0.3892646 0.86148,-0.4672664 1.25226,-0.4389996 0.58382,0.04223 2.15028,0.8952074 2.72435,1.4834814 1.04323,1.069039 2.25545,3.7398221 4.53023,9.9810271 0.49252,1.351316 1.31369,3.562561 1.82482,4.913877 1.74079,4.602273 1.98095,5.295601 1.98095,5.718865 0,0.13479 -0.0601,0.301011 -0.17369,0.480063 -0.20724,0.326792 -0.16276,0.364969 -0.69791,-0.598903 -0.78319,-1.410639 -1.88536,-3.838378 -2.90268,-6.393709 -0.54994,-1.381383 -0.84872,-2.241476 -1.44328,-4.154808 -0.13952,-0.449003 -0.29184,-0.848042 -0.33849,-0.886754 -0.13797,-0.114506 -0.5026,-0.02927 -0.90965,0.212649 -0.45925,0.272933 -5.72683,3.94509 -6.76826,4.718316 -1.5638,1.161065 -2.31276,1.828728 -4.27173,3.808041 -1.13864,1.150474 -1.32851,1.319056 -1.67402,1.486365 l -0.38971,0.188717 -0.97836,0.0039 c -0.81006,0.0032 -1.01337,0.02066 -1.18194,0.101325 -0.53281,0.254995 -1.94715,1.518658 -5.12485,4.578898 -1.08794,1.047723 -2.40715,2.317678 -2.93157,2.822128 -0.52443,0.504446 -2.008877,1.9138 -3.298771,3.131891 -1.289892,1.218094 -2.659356,2.531288 -3.043254,2.918214 -0.623501,0.628417 -7.390709,7.286313 -8.972346,8.827411 L 85.860972,50.2697 Z M 112.06991,25.803544 c 0.31496,-0.145999 1.11144,-0.830353 2.34526,-2.015097 2.91272,-2.796853 5.46794,-4.751176 9.00751,-6.889264 0.65392,-0.395001 1.31271,-0.816017 1.46398,-0.935591 0.48788,-0.385648 0.53729,-0.631694 0.30578,-1.522714 -0.45198,-1.73958 -1.7037,-3.924617 -2.73519,-4.7746329 -0.29349,-0.2418537 -0.54222,-0.3226924 -0.79651,-0.2588694 -0.10321,0.025903 -1.48495,1.3661103 -4.19457,4.0684703 -5.33054,5.316279 -6.22748,6.274072 -6.67762,7.130704 -0.25281,0.481098 -0.31006,0.955486 -0.31006,2.56921 0,1.444829 0.0355,1.637796 0.39313,2.137238 0.40476,0.565241 0.74059,0.702718 1.19829,0.490546 z"
     id="path112" /><path
     style="fill:#ffffff;stroke:none;stroke-width:0.453919;stroke-dasharray:none"
     d="m 84.553573,40.274252 -0.09448,-0.711954 0.577765,-0.558396 c 2.32745,-2.249429 5.816126,-5.536737 6.863998,-6.467803 1.543016,-1.371015 3.037322,-2.418294 3.207592,-2.248024 0.07747,0.07747 -0.176189,0.442193 -0.725408,1.04304 -0.624647,0.683366 -9.63625,9.655091 -9.698006,9.655091 -0.02035,0 -0.0795,-0.320379 -0.131461,-0.711954 z"
     id="path113" /><path
     style="fill:#ffffff;stroke:none;stroke-width:0.453919;stroke-dasharray:none"
     d="m 68.030737,43.847981 c -0.0493,-0.08446 -0.203959,-0.433713 -0.343688,-0.776123 -0.637167,-1.561386 -1.24914,-2.517365 -2.269017,-3.544493 -0.385016,-0.387755 -0.891368,-0.84481 -1.125222,-1.015675 -0.833258,-0.60882 -1.938915,-1.229183 -2.617118,-1.468414 -0.19911,-0.07023 -0.371002,-0.154654 -0.381985,-0.187603 -0.04432,-0.132963 1.208897,-1.262792 3.033417,-2.734754 1.479248,-1.193409 1.825683,-1.43591 2.150999,-1.505678 0.409969,-0.08792 0.954275,0.03777 1.646089,0.380103 1.5264,0.755325 3.028762,2.317891 3.940461,4.098359 0.23042,0.449993 0.239368,0.484585 0.16252,0.628179 -0.04473,0.08358 -0.63441,0.661437 -1.310402,1.284129 -2.447248,2.254298 -2.559201,2.427266 -2.655043,4.102098 -0.02724,0.47603 -0.05048,0.871794 -0.05165,0.879472 -0.0094,0.06149 -0.105791,-0.01357 -0.179359,-0.1396 z"
     id="path114" /><path
     style="fill:#ffffff;stroke:none;stroke-width:0.453919;stroke-dasharray:none"
     d="m 61.356435,47.46791 c -0.282562,-0.150003 -0.672042,-0.394221 -0.865513,-0.542705 -1.891462,-1.451661 -3.0503,-4.186222 -2.44928,-5.779683 0.22466,-0.595635 0.43669,-0.693052 1.483283,-0.681501 0.639144,0.0071 1.098397,0.111276 1.686608,0.382744 0.873892,0.403315 2.050992,1.353608 2.559682,2.066473 0.754058,1.056719 1.07491,2.483884 0.718992,3.198119 -0.344733,0.69179 -1.722495,1.628267 -2.396664,1.629034 -0.160303,1.83e-4 -0.36839,-0.07674 -0.737108,-0.272481 z"
     id="path115" /><path
     style="fill:#ffffff;stroke:none;stroke-width:0.453919;stroke-dasharray:none"
     d="m 75.12115,36.691288 c -0.102928,-0.120248 -0.462957,-0.678484 -0.800063,-1.240526 -1.33156,-2.220039 -1.711298,-2.584839 -4.43793,-4.263342 -0.718786,-0.442481 -0.94978,-0.61848 -0.948582,-0.722736 0.0013,-0.106188 0.406149,-0.326861 0.650264,-0.354378 0.303115,-0.03417 0.945626,0.171731 1.788435,0.573109 0.897432,0.427395 1.368621,0.751456 1.981049,1.362477 l 0.539589,0.538353 0.765019,1.562563 c 0.776835,1.586699 1.031536,2.173235 1.031536,2.375475 0,0.162258 -0.163536,0.387638 -0.28127,0.387638 -0.0555,0 -0.185119,-0.09839 -0.288047,-0.218633 z"
     id="path116" /><path
     style="fill:#ffffff;stroke:none;stroke-width:0.453919;stroke-dasharray:none"
     d="m 78.919747,35.417533 c -0.04672,-0.05447 -0.160512,-0.262368 -0.252871,-0.461994 -0.184755,-0.399346 -0.574529,-1.049599 -1.690296,-2.819897 -0.836543,-1.327277 -1.118594,-1.85252 -1.118594,-2.083078 0,-0.357685 2.828266,-2.865261 3.39099,-3.006495 0.07536,-0.01892 0.231111,-0.0062 0.346114,0.02826 0.212948,0.0638 1.067806,0.584618 1.4033,0.854953 l 0.185063,0.14912 -0.148251,0.224022 c -0.08154,0.123214 -0.377728,0.48328 -0.658196,0.800151 -0.738246,0.834056 -1.023282,1.231519 -1.334194,1.860439 -0.535498,1.083212 -0.559832,1.481042 -0.19839,3.243214 0.137666,0.671174 0.230045,1.240571 0.205288,1.265331 -0.02477,0.02477 -0.08324,5.29e-4 -0.129963,-0.05403 z"
     id="path117" /><path
     style="fill:#ffffff;stroke:none;stroke-width:0.453919;stroke-dasharray:none"
     d="m 72.142347,26.75385 c -0.431406,-0.195961 -0.642652,-0.595167 -0.557589,-1.053712 0.214289,-1.155159 1.913647,-2.250806 3.519393,-2.269099 1.201753,-0.01369 1.592297,0.448365 1.141492,1.350507 -0.27373,0.547784 -0.912305,1.055549 -1.979084,1.573678 -1.049422,0.509698 -1.636958,0.619952 -2.124212,0.398626 z"
     id="path118" /><path
     style="fill:#ffffff;stroke:none;stroke-width:0.453919;stroke-dasharray:none"
     d="m 83.872996,26.328575 c -0.711362,-0.794823 -2.453709,-2.276095 -3.57577,-3.039971 -0.307118,-0.209079 -0.828519,-0.513948 -1.158669,-0.677487 -0.330152,-0.163539 -0.600276,-0.318795 -0.600276,-0.345015 0,-0.10003 0.402873,-0.209493 0.771028,-0.209493 0.67715,0 1.721223,0.339773 2.407933,0.783615 0.697643,0.45091 1.87185,1.823998 2.357176,2.756425 0.175286,0.336768 0.236238,0.524762 0.257987,0.795713 0.01775,0.221346 0.0072,0.354767 -0.02816,0.354767 -0.03115,0 -0.225214,-0.188349 -0.431247,-0.418554 z"
     id="path119" /><path
     style="fill:#ffffff;stroke:none;stroke-width:0.453919;stroke-dasharray:none"
     d="m 86.104536,22.663721 c -1.400468,-1.660105 -2.537645,-2.570609 -4.021169,-3.219636 -0.330898,-0.144766 -0.629436,-0.308954 -0.663414,-0.364863 -0.05328,-0.08767 0.01135,-0.172144 0.469935,-0.614235 0.890701,-0.858655 2.794095,-2.466399 3.377057,-2.852503 0.469019,-0.310639 1.388472,-0.591654 1.935834,-0.591654 0.315648,0 1.175409,0.298378 1.623285,0.563357 0.414269,0.245096 0.525947,0.386239 1.177783,1.488554 0.748276,1.265401 1.295172,2.511471 1.182378,2.693975 -0.07548,0.122128 -4.320694,3.629802 -4.39033,3.627578 -0.04242,-0.0013 -0.353531,-0.330113 -0.691359,-0.730573 z"
     id="path120" /></svg>
