<?xml version="1.0" encoding="UTF-8" standalone="no"?>
<!-- Created with Inkscape (http://www.inkscape.org/) -->

<svg
   width="512"
   height="512"
   viewBox="0 0 512 512"
   version="1.1"
   id="svg1"
   xml:space="preserve"
   xmlns="http://www.w3.org/2000/svg"
   xmlns:svg="http://www.w3.org/2000/svg"><defs
     id="defs1" /><g
     id="g256"><path
       style="fill:#d0d0d0;fill-opacity:1"
       d="m 357.75941,463.33418 c -1.24387,-1.58606 -1.2085,-1.62143 0.37756,-0.37756 1.66574,1.30637 2.19547,2.12756 1.37244,2.12756 -0.20766,0 -0.99516,-0.7875 -1.75,-1.75 z m 100,0 c -1.24387,-1.58606 -1.2085,-1.62143 0.37756,-0.37756 1.66574,1.30637 2.19547,2.12756 1.37244,2.12756 -0.20766,0 -0.99516,-0.7875 -1.75,-1.75 z m -433,-90 c -1.243871,-1.58606 -1.2085,-1.62143 0.377555,-0.37756 0.9625,0.75484 1.75,1.54234 1.75,1.75 0,0.82303 -0.821185,0.2933 -2.127555,-1.37244 z m 47,-16 c -1.243871,-1.58606 -1.2085,-1.62143 0.377555,-0.37756 0.9625,0.75484 1.75,1.54234 1.75,1.75 0,0.82303 -0.821185,0.2933 -2.127555,-1.37244 z m 232.62756,-8.25 c 0.99548,-1.1 2.03497,-2 2.30997,-2 0.275,0 -0.31449,0.9 -1.30997,2 -0.99549,1.1 -2.03498,2 -2.30998,2 -0.275,0 0.31449,-0.9 1.30998,-2 z m 191.90498,-0.25 -1.90498,-2.25 2.25,1.90498 c 2.11444,1.79022 2.70524,2.59502 1.90498,2.59502 -0.18975,0 -1.20225,-1.0125 -2.25,-2.25 z m -100.53254,-0.5 c -1.24387,-1.58606 -1.2085,-1.62143 0.37756,-0.37756 1.66574,1.30637 2.19547,2.12756 1.37244,2.12756 -0.20766,0 -0.99516,-0.7875 -1.75,-1.75 z m 8.12756,1.37244 c 0,-0.20766 0.7875,-0.99516 1.75,-1.75 1.58605,-1.24387 1.62142,-1.2085 0.37755,0.37756 -1.30637,1.66574 -2.12755,2.19547 -2.12755,1.37244 z M 71.386965,343.08418 c 0.995487,-1.1 2.034976,-2 2.309976,-2 0.275,0 -0.314489,0.9 -1.309976,2 -0.995486,1.1 -2.034975,2 -2.309975,2 -0.275,0 0.314489,-0.9 1.309975,-2 z m 153.000005,-82 c 0.99548,-1.1 2.03497,-2 2.30997,-2 0.275,0 -0.31449,0.9 -1.30997,2 -0.99549,1.1 -2.03498,2 -2.30998,2 -0.275,0 0.31449,-0.9 1.30998,-2 z m 25.37244,-113.75 c -1.24387,-1.58606 -1.2085,-1.62143 0.37756,-0.37756 1.66574,1.30637 2.19547,2.12756 1.37244,2.12756 -0.20766,0 -0.99516,-0.7875 -1.75,-1.75 z M 110.88697,108.70662 c 0,-0.20766 0.7875,-0.99516 1.75,-1.75 1.58605,-1.24387 1.62142,-1.2085 0.37755,0.37756 -1.30637,1.66574 -2.12755,2.19547 -2.12755,1.37244 z"
       id="path261" /><path
       style="fill:#8c8c8c;fill-opacity:1"
       d="m 355.34937,298.83418 -4.9624,-5.25 5.25,4.9624 c 2.8875,2.72933 5.25,5.09183 5.25,5.25 0,0.74619 -0.92644,-0.084 -5.5376,-4.9624 z m 100,0 -4.9624,-5.25 5.25,4.9624 c 2.8875,2.72933 5.25,5.09183 5.25,5.25 0,0.74619 -0.92644,-0.084 -5.5376,-4.9624 z m 11.0376,-128.75 c 2.70864,-2.75 5.14981,-5 5.42481,-5 0.275,0 -1.71617,2.25 -4.42481,5 -2.70865,2.75 -5.14982,5 -5.42482,5 -0.275,0 1.71617,-2.25 4.42482,-5 z"
       id="path260" /><path
       style="fill:#767676;fill-opacity:1"
       d="m 345.38697,299.08418 c 2.70864,-2.75 5.14981,-5 5.42481,-5 0.275,0 -1.71617,2.25 -4.42481,5 -2.70865,2.75 -5.14982,5 -5.42482,5 -0.275,0 1.71617,-2.25 4.42482,-5 z m 100,0 c 2.70864,-2.75 5.14981,-5 5.42481,-5 0.275,0 -1.71617,2.25 -4.42481,5 -2.70865,2.75 -5.14982,5 -5.42482,5 -0.275,0 1.71617,-2.25 4.42482,-5 z m 20.9624,-139.25 -4.9624,-5.25 5.25,4.9624 c 2.8875,2.72933 5.25,5.09183 5.25,5.25 0,0.74619 -0.92644,-0.084 -5.5376,-4.9624 z"
       id="path259" /><path
       style="fill:#606060;fill-opacity:1"
       d="m 331.88697,284.58418 c 4.65071,-4.675 8.68084,-8.5 8.95584,-8.5 0.275,0 -3.30513,3.825 -7.95584,8.5 -4.65072,4.675 -8.68085,8.5 -8.95585,8.5 -0.275,0 3.30513,-3.825 7.95585,-8.5 z m 36.97792,-0.25 -8.47792,-8.75 8.75,8.47792 c 4.8125,4.66285 8.75,8.60035 8.75,8.75 0,0.72761 -1.14804,-0.35119 -9.02208,-8.47792 z m 63.02208,0.25 c 4.65071,-4.675 8.68084,-8.5 8.95584,-8.5 0.275,0 -3.30513,3.825 -7.95584,8.5 -4.65072,4.675 -8.68085,8.5 -8.95585,8.5 -0.275,0 3.30513,-3.825 7.95585,-8.5 z m 36.97792,-0.25 -8.47792,-8.75 8.75,8.47792 c 4.8125,4.66285 8.75,8.60035 8.75,8.75 0,0.72761 -1.14804,-0.35119 -9.02208,-8.47792 z m 12.02208,-100.75 c 4.65071,-4.675 8.68084,-8.5 8.95584,-8.5 0.275,0 -3.30513,3.825 -7.95584,8.5 -4.65072,4.675 -8.68085,8.5 -8.95585,8.5 -0.275,0 3.30513,-3.825 7.95585,-8.5 z m -0.0221,-37.25 -8.47792,-8.75 8.75,8.47792 c 4.8125,4.66285 8.75,8.60035 8.75,8.75 0,0.72761 -1.14804,-0.35119 -9.02208,-8.47792 z"
       id="path258" /><path
       style="fill:#494949;fill-opacity:1"
       d="m 396.29195,73.834175 -1.90498,-2.25 2.25,1.904988 c 1.2375,1.047743 2.25,2.060243 2.25,2.25 0,0.800253 -0.8048,0.209457 -2.59502,-1.904988 z"
       id="path257" /><path
       style="fill:#333333;fill-opacity:1"
       d="m 297.38697,519.14612 c -1.1,-0.45424 -2.9,-1.82601 -4,-3.04839 -1.94742,-2.16408 -2.00718,-3.82997 -2.27281,-63.36227 l -0.27281,-61.13977 3.65653,-15.50576 c 3.799,-16.10998 5.53367,-20.64727 9.85892,-25.78754 2.82873,-3.36175 9.7036,-7.72167 13.79502,-8.74855 l 2.6302,-0.66014 0.30247,-22.38796 0.30248,-22.38796 9.66292,-9.7668 9.66292,-9.7668 0.35633,-7.74654 c 0.31545,-6.85751 0.66973,-8.05991 3.08708,-10.47727 3.80951,-3.80951 9.65198,-3.80951 13.46149,0 2.41735,2.41736 2.77163,3.61976 3.08708,10.47727 l 0.35633,7.74654 9.66292,9.7668 9.66293,9.7668 0.30157,22.26679 0.30157,22.2668 5.08605,1.80641 c 3.24817,1.15364 6.8431,3.56345 9.94843,6.66878 l 4.86238,4.86238 4.86237,-4.86238 c 3.10533,-3.10533 6.70026,-5.51514 9.94843,-6.66878 l 5.08605,-1.80641 0.30157,-22.2668 0.30158,-22.26679 9.66292,-9.7668 9.66292,-9.7668 0.35633,-7.74654 c 0.31545,-6.85751 0.66973,-8.05991 3.08708,-10.47727 3.80951,-3.80951 9.65198,-3.80951 13.46149,0 2.41735,2.41736 2.77163,3.61976 3.08708,10.47727 l 0.35633,7.74654 9.66292,9.7668 9.66293,9.7668 0.30157,22.26679 0.30157,22.2668 4.72289,1.67742 c 6.19551,2.20045 12.11229,7.3687 15.33683,13.39658 1.42954,2.67234 4.23797,11.8364 6.24096,20.36456 l 3.64179,15.50576 -0.27281,61.22198 -0.2728,61.22197 -2.77255,2.77227 -2.77255,2.77227 -102.72745,0.19391 c -56.5001,0.10665 -103.62745,-0.17774 -104.72745,-0.63197 z m 43.66571,-36.04119 0.33429,-16.97924 2.75,-2.74803 c 3.83755,-3.83481 9.66244,-3.83481 13.5,0 l 2.75,2.74803 0.33428,16.97924 0.33429,16.97925 h 14.91571 14.91572 v -50 -50 h -40 -40 v 50 50 h 14.91571 14.91571 z m 100.01844,-6.5e-4 0.31585,-16.97989 2.75,-2.74738 c 3.83775,-3.8341 9.66278,-3.83382 13.5,6.5e-4 l 2.75,2.74803 0.33428,16.97924 0.33429,16.97925 h 14.91571 14.91572 v -50 -50 h -40 -40 v 50 50 h 14.93415 14.93415 z M 387.88697,379.03969 c 0,-0.57447 -0.73163,-3.95711 -1.62585,-7.517 -1.19402,-4.75342 -2.40959,-7.13199 -4.57672,-8.95551 l -2.95089,-2.483 h -27.84654 -27.84655 l -2.95089,2.483 c -2.16713,1.82352 -3.3827,4.20209 -4.57672,8.95551 -0.89422,3.55989 -1.62584,6.94253 -1.62584,7.517 0,0.70716 11.94945,1.04449 37,1.04449 25.05054,0 37,-0.33733 37,-1.04449 z m 100,0 c 0,-0.57447 -0.73163,-3.95711 -1.62585,-7.517 -1.19402,-4.75342 -2.40959,-7.13199 -4.57672,-8.95551 l -2.95089,-2.483 h -27.84654 -27.84655 l -2.95089,2.483 c -2.16713,1.82352 -3.3827,4.20209 -4.57672,8.95551 -0.89422,3.55989 -1.62584,6.94253 -1.62584,7.517 0,0.70716 11.94945,1.04449 37,1.04449 25.05054,0 37,-0.33733 37,-1.04449 z m -127,-57.24311 v -18.28759 l -5,-4.92481 -5,-4.92482 -5,4.92482 -5,4.92481 v 18.28759 18.2876 h 10 10 z m 100,0 v -18.28759 l -5,-4.92481 -5,-4.92482 -5,4.92482 -5,4.92481 v 18.28759 18.2876 h 10 10 z M 31.886965,398.72707 C 15.367803,394.94173 2.9316796,381.87476 -0.10863566,365.10843 -1.4829589,357.5295 -0.71345773,350.53894 2.3157321,343.08418 c 1.2291876,-3.025 16.2596879,-30.7 33.4011119,-61.5 l 31.166225,-56 -30.976948,-0.5 -30.9769476,-0.5 -2.771104,-2.77273 -2.77110401,-2.77273 V 145.08418 71.12963 L 2.1600006,68.356902 4.9330358,65.584175 H 69.160001 133.38697 l 5.66054,2.779782 c 7.87865,3.869049 11.80435,8.683116 19.33379,23.708902 l 6.51998,13.011321 h 77.85188 77.85189 l 0.5244,-8.40554 c 0.88099,-14.121063 6.54694,-23.21501 17.75752,-28.501077 5.30094,-2.49953 6.16953,-2.593388 24,-2.593388 21.50891,0 25.36526,0.955365 33.11427,8.203663 6.47976,6.061057 9.05125,12.469518 9.66922,24.096875 l 0.49431,9.300537 3.74555,1.91084 c 7.65227,3.9039 12.99829,11.32773 15.05149,20.90148 l 1.0679,4.97945 21.91188,0.30358 21.91188,0.30358 9.76675,9.66292 9.76675,9.66292 7.74653,0.35633 c 6.85751,0.31545 8.05991,0.66973 10.47727,3.08708 3.80951,3.80951 3.80951,9.65198 0,13.46149 -2.41736,2.41735 -3.61976,2.77163 -10.47727,3.08708 l -7.74653,0.35633 -9.76675,9.66292 -9.76675,9.66293 -21.91188,0.30357 -21.91188,0.30358 -1.0679,4.97945 c -2.23525,10.42262 -7.72898,17.44892 -17.06876,21.83039 -5.3685,2.51846 -6.10999,2.59118 -29.67407,2.91028 l -24.16799,0.32728 -31.1597,54.83783 c -17.13783,30.16081 -31.71662,55.59947 -32.3973,56.53036 -1.14088,1.56025 -1.71471,1.45169 -7.34248,-1.3892 l -6.10487,-3.08173 -2.53399,4.32394 c -3.41992,5.83565 -13.33862,14.84744 -19.84554,18.03098 -10.76496,5.26681 -14.61335,5.55706 -73.93106,5.5759 l -54.65092,0.0174 -8.54609,13.75 c -9.52643,15.32728 -13.80676,20.07276 -21.152075,23.45064 -4.783665,2.19987 -6.168206,2.30808 -32,2.50096 -18.808719,0.14045 -28.668594,-0.18075 -32.5,-1.05871 z M 90.78765,378.33418 c 1.167238,-0.9625 4.345355,-5.35 7.062481,-9.75 l 4.940229,-8 -13.929457,-0.5 c -13.561501,-0.4868 -14.002087,-0.57265 -16.67897,-3.25 -3.83712,-3.8378 -3.837178,-9.6621 -1.33e-4,-13.5 l 2.749381,-2.75 83.227889,-0.5 83.2279,-0.5 4.11647,-2.20221 c 5.99067,-3.20485 10.10113,-6.94749 12.79844,-11.65319 14.72834,-25.69491 56.58509,-99.78096 56.58509,-100.15508 0,-0.26924 -5.17418,-0.48952 -11.49817,-0.48952 h -11.49816 l -2.75184,4.51028 c -1.51351,2.48066 -13.55183,23.24802 -26.75183,46.14971 -20.94191,36.33371 -24.41003,41.81147 -27.21789,42.98971 -2.54613,1.06842 -12.95226,1.3503 -49.84887,1.3503 -50.73414,0 -51.79514,-0.10935 -54.29469,-5.59525 -2.50615,-5.50041 -4.39345,-1.50576 24.01414,-50.82816 12.01602,-20.8627 21.84731,-38.02613 21.84731,-38.14097 0,-0.11483 -4.77368,-0.38549 -10.60818,-0.60147 -10.49522,-0.38851 -10.63897,-0.42715 -13.5,-3.6292 -3.79738,-4.25001 -3.78922,-8.16897 0.0259,-12.43918 l 2.91775,-3.26577 122.66905,-0.5 122.66905,-0.5 2.4132,-2.80577 2.4132,-2.80576 V 165.08418 131.1957 l -2.41328,-2.80576 -2.41328,-2.80576 -143.06415,-0.5 -143.06416,-0.5 -2.75549,-2.75565 c -3.75131,-3.75153 -3.70418,-9.78378 0.10623,-13.59611 2.56958,-2.57088 3.05423,-2.65833 16.58888,-2.99331 l 13.94197,-0.34507 -4.05925,-8.154932 c -2.23259,-4.485213 -5.0286,-8.932427 -6.21336,-9.882697 -1.98233,-1.589978 -6.60008,-1.729537 -57.904115,-1.75 l -55.75,-0.02224 v 60.000009 60 l 38.25,0.006 c 23.236176,0.003 39.710371,0.41116 41.970517,1.03887 2.046288,0.5683 4.408788,2.01592 5.249998,3.21692 1.77872,2.53949 2.00326,7.98487 0.44899,10.88903 -1.3831,2.58437 -6.790007,4.84506 -11.637386,4.86574 l -3.782119,0.0161 -27,48.64154 c -45.742949,82.40769 -43.5,78.07093 -43.5,84.10746 0,9.23818 4.555532,16.64469 12.5,20.32286 3.572764,1.65414 6.845309,1.85429 30.639216,1.8739 23.915506,0.0197 26.856205,-0.15696 28.761469,-1.72803 z M 46.760036,184.42794 c -1.444812,-0.24907 -3.694812,-1.58979 -5,-2.97937 l -2.373071,-2.52651 v -33.8966 -33.8966 l 2.772728,-2.77234 2.772727,-2.77234 h 18.954545 18.954546 l 2.75,2.75 c 3.837919,3.83791 3.837962,9.66199 1.01e-4,13.5 -2.643653,2.64374 -3.212662,2.76372 -14.727273,3.10532 l -11.977374,0.35533 v 19.81092 19.81093 l 11.980018,0.33375 c 11.531923,0.32126 12.082774,0.4366 14.727272,3.08375 3.834625,3.83845 3.833742,9.66323 -0.002,13.5 l -2.749302,2.75 -16.727971,0.14831 c -9.200384,0.0816 -17.910089,-0.0555 -19.3549,-0.30455 z m 130.500374,-0.0394 c -7.52118,-0.99268 -10.55364,-10.57727 -5.07943,-16.05435 l 2.74856,-2.75 29.34736,-0.29208 29.34735,-0.29208 0.50506,-7.0589 c 0.4174,-5.83361 0.94516,-7.499 3.04045,-9.59429 3.60257,-3.60256 9.8892,-3.5452 13.55811,0.12371 2.62472,2.62471 2.6591,2.83948 2.6591,16.61364 0,13.91582 -0.008,13.96223 -2.77156,16.72727 l -2.77155,2.77273 -33.72845,0.1085 c -18.55064,0.0597 -35.1354,-0.0772 -36.855,-0.30415 z m 70.2692,78.28783 c 11.74655,-20.2993 21.35736,-37.0618 21.35736,-37.25 0,-0.1882 -5.09729,-0.34218 -11.3273,-0.34218 h -11.3273 l -8.9227,15.58942 c -10.72117,18.73163 -13.72872,22.43469 -21.18313,26.08179 -5.45991,2.67128 -6.5139,2.8157 -24.16481,3.31095 l -18.4559,0.51784 -8.30943,14.40913 c -4.57019,7.92503 -8.30943,14.56836 -8.30943,14.76296 0,0.1946 15.58919,0.23549 34.64264,0.0909 l 34.64264,-0.26295 z M 209.17888,248.0692 c 1.4089,-1.10824 5.27678,-6.74694 8.5953,-12.53046 l 6.03366,-10.51548 -12.1461,0.28046 -12.14609,0.28047 -6.77246,11.5 c -3.72485,6.325 -6.79131,11.8375 -6.81434,12.25 -0.023,0.4125 4.62243,0.75 10.32326,0.75 8.87663,0 10.73301,-0.28937 12.92677,-2.01499 z m 258.20809,-77.98501 4.92481,-5 -4.92481,-5 -4.92482,-5 h -18.28759 -18.28759 v 10 10 h 18.28759 18.28759 z m -81.5,-72.076928 c 0,-6.488529 -0.24304,-7.319955 -2.92308,-10 l -2.92308,-2.923077 h -16.65384 -16.65385 l -2.92308,2.923077 c -2.68004,2.680045 -2.92307,3.511471 -2.92307,10 v 7.076928 h 22.5 22.5 z"
       id="path256" /></g><path
     style="fill:#ffffff;stroke:none;stroke-width:15.9978;stroke-linecap:round;stroke-dasharray:none"
     d="m 35.757935,379.05841 c -4.064737,-0.70959 -6.396113,-2.11909 -10.486665,-6.34003 -4.485734,-4.62871 -5.828008,-7.99865 -5.853472,-14.69583 -0.01738,-4.5722 0.02161,-4.68964 4.401847,-13.25873 2.430663,-4.75513 18.155036,-33.42412 34.943051,-63.70887 l 30.523663,-55.06319 4.832623,-0.69049 c 8.703298,-1.24354 11.836278,-3.81205 11.836278,-9.70371 0,-4.68964 -1.13204,-7.05624 -4.11474,-8.60214 -3.352666,-1.73766 -12.886299,-2.14244 -51.847546,-2.20136 l -30.891181,-0.0467 v -59.6931 -59.693102 l 49.992974,0.03355 c 27.496136,0.01845 52.795063,0.243039 56.219843,0.499085 6.12816,0.458157 6.25393,0.497843 7.93383,2.503409 2.44325,2.916917 9.05045,16.056548 8.09801,16.104388 -0.42306,0.0213 -6.41019,0.27381 -13.30474,0.56122 -6.89456,0.28742 -12.9403,0.61197 -13.435,0.72122 -1.38805,0.30654 -3.64625,2.04341 -3.82793,2.94421 -0.0897,0.44475 -0.47299,1.56481 -0.85175,2.48905 -1.2195,2.97577 -0.84474,6.49606 1.00019,9.39516 0.92886,1.45961 2.10596,2.99619 2.61576,3.41463 0.74101,0.60821 29.64497,0.87495 144.11157,1.3299 l 143.18464,0.56909 2.22068,2.55016 2.22068,2.55015 0.0162,34.02507 0.0162,34.02507 -2.23687,2.58904 -2.23688,2.58904 -122.64235,0.56298 c -114.65667,0.52631 -122.71802,0.62981 -123.80429,1.58947 -0.63906,0.56458 -1.92714,2.22072 -2.8624,3.68033 -2.86326,4.46853 -2.14185,8.69356 2.12391,12.43895 2.3632,2.07492 3.42847,2.2807 14.67512,2.83493 4.10095,0.20209 7.53752,0.44869 7.63683,0.548 0.0993,0.0993 -8.74396,15.7264 -19.65171,34.72686 -22.7699,39.66341 -26.7844,47.14818 -26.77045,49.91179 0.0146,2.88882 2.31553,6.53909 4.92856,7.81878 3.08094,1.50883 17.8041,2.14461 49.08388,2.11956 34.17783,-0.0274 50.47875,-0.62465 52.45885,-1.92206 2.86839,-1.87943 7.14564,-8.82971 33.49181,-54.42219 9.10651,-15.75898 17.88821,-30.86879 19.51488,-33.57737 l 2.95758,-4.92468 h 11.06702 c 10.20587,0 11.03647,0.0796 10.67444,1.02306 -0.93603,2.43927 -54.53591,97.10475 -57.06636,100.78783 -2.33947,3.4051 -5.67359,6.26982 -10.79059,9.27144 l -4.40532,2.58415 -75.51177,0.45252 c -98.969104,0.5931 -92.136229,0.42549 -94.014855,2.30621 -4.286799,4.29159 -2.759837,16.86482 2.087473,17.18857 0.492468,0.0329 3.850205,0.32352 7.461638,0.64583 3.611433,0.32231 9.722514,0.59969 13.580181,0.61641 3.857667,0.0167 7.013943,0.14594 7.013943,0.28715 0,0.86528 -8.252521,13.30422 -10.402219,15.67916 l -2.595462,2.86741 -25.287738,0.0939 c -13.908256,0.0516 -26.522592,-0.12168 -28.031856,-0.38515 z M 85.50861,182.16363 c 3.995205,-4.27119 4.323046,-8.63051 1.000008,-13.29728 -2.121224,-2.97899 -4.135974,-3.46023 -16.330897,-3.90076 l -11.081549,-0.40031 v -19.51302 -19.51303 l 10.954354,-0.34518 c 11.906493,-0.37518 14.172634,-0.88972 16.402226,-3.72418 3.368553,-4.28242 2.929009,-9.29282 -1.20906,-13.78209 l -2.422329,-2.62792 H 63.963599 45.105835 l -3.152659,3.1135 -3.152659,3.1135 v 33.77194 33.77194 l 2.584421,2.53642 c 1.421432,1.39502 3.368919,2.77096 4.32775,3.05763 0.958831,0.28667 9.697985,0.5443 19.420342,0.57252 l 17.677016,0.0513 z m 165.08033,0.26212 c 3.06715,-3.32747 3.26339,-4.61038 2.97917,-19.47663 -0.18358,-9.60286 -0.40183,-11.95392 -1.2536,-13.50432 -1.53325,-2.79083 -2.51282,-3.36442 -6.21359,-3.63838 -4.74669,-0.3514 -6.83812,0.18383 -9.00797,2.30525 -2.20638,2.15716 -2.84767,4.30067 -3.38953,11.32973 l -0.39583,5.13473 -29.35263,0.42853 -29.35263,0.42852 -1.93264,1.85909 c -3.84012,3.69397 -4.60636,8.96283 -1.9312,13.27937 1.4038,2.26512 3.22257,3.40594 6.25156,3.9213 1.31325,0.22343 17.86626,0.43987 36.78447,0.48096 l 34.39674,0.0747 z"
     id="path262" /><path
     style="fill:#ffffff;stroke:none;stroke-width:15.9978;stroke-linecap:round;stroke-dasharray:none"
     d="m 341.44455,98.169582 v -6.89028 l 2.76788,-2.959082 2.76787,-2.959082 h 16.56292 16.56293 l 2.18536,2.41893 c 2.97377,3.291607 3.32594,4.49335 3.32594,11.349344 v 5.930448 H 363.531 341.44455 Z"
     id="path263" /><path
     style="fill:#ffffff;stroke:none;stroke-width:15.9978;stroke-linecap:round;stroke-dasharray:none"
     d="m 188.38973,245.48789 c 1.23749,-2.21611 4.29125,-7.52133 6.78611,-11.78939 l 4.53612,-7.7601 11.47166,-0.16213 c 6.30941,-0.0892 11.47166,-0.008 11.47166,0.18069 0,0.67973 -7.40233,13.20932 -10.27563,17.3931 -4.07514,5.93377 -4.70242,6.16711 -16.57863,6.16711 h -9.66129 z"
     id="path264" /><path
     style="fill:#ffffff;stroke:none;stroke-width:15.9978;stroke-linecap:round;stroke-dasharray:none"
     d="m 316.88707,379.22983 -2.76949,-0.23865 0.90333,-3.99927 c 1.51121,-6.69047 3.00835,-10.00618 5.5583,-12.30991 l 2.36392,-2.13566 h 27.8189 27.81891 l 2.24562,1.77857 c 1.28741,1.01964 2.77426,3.0074 3.48449,4.65838 1.51304,3.51716 3.36371,11.40326 2.80689,11.96076 -0.4284,0.4289 -65.49729,0.69368 -70.23087,0.28578 z"
     id="path265" /><path
     style="fill:#ffffff;stroke:none;stroke-width:15.9978;stroke-linecap:round;stroke-dasharray:none"
     d="m 341.44455,322.09155 v -17.56221 l 4.83087,-4.88965 4.83086,-4.88966 4.69081,4.99163 4.69081,4.99163 0.0292,17.46024 0.0292,17.46023 h -9.55089 -9.5509 z"
     id="path266" /><path
     style="fill:#ffffff;stroke:none;stroke-width:15.9978;stroke-linecap:round;stroke-dasharray:none"
     d="m 311.00107,450.086 v -49.54528 h 39.69591 39.69592 v 49.54528 49.54528 h -14.53393 -14.53392 l -0.33827,-16.56484 c -0.19454,-9.52615 -0.61139,-17.273 -0.98103,-18.23142 -0.80217,-2.07995 -5.88511,-4.58797 -9.30877,-4.59313 -2.52081,-0.004 -5.42215,1.42588 -8.2078,4.04453 l -1.64156,1.54315 v 12.3338 c 0,6.7836 -0.17373,14.38898 -0.38606,16.90086 l -0.38605,4.56705 h -14.53722 -14.53722 z"
     id="path267" /><path
     style="fill:#ffffff;stroke:none;stroke-width:15.9978;stroke-linecap:round;stroke-dasharray:none"
     d="m 411.28548,450.086 v -49.54528 h 39.69592 39.69591 v 49.54528 49.54528 h -14.53227 -14.53226 l -0.39101,-8.15295 c -0.21506,-4.48413 -0.39101,-12.10355 -0.39101,-16.93204 0,-10.09862 -0.34225,-10.96406 -5.18254,-13.10515 -4.82059,-2.13238 -8.96823,-1.32123 -12.53955,2.45233 l -1.90342,2.0112 -0.42533,16.8633 -0.42532,16.86331 h -14.53456 -14.53456 z"
     id="path268" /><path
     style="fill:#ffffff;stroke:none;stroke-width:15.9978;stroke-linecap:round;stroke-dasharray:none"
     d="m 416.80709,379.22871 c -1.39532,-0.13538 -2.53695,-0.44818 -2.53695,-0.69511 0,-1.25106 2.64787,-10.75341 3.41399,-12.25169 0.48542,-0.94935 1.86335,-2.62693 3.06205,-3.72797 l 2.17946,-2.00189 28.12896,-0.003 28.12897,-0.003 2.33299,2.53696 c 1.28315,1.39533 2.65838,3.34281 3.05608,4.32775 1.09533,2.71271 3.11406,11.24809 2.74722,11.61548 -0.37637,0.37693 -66.75019,0.56724 -70.51277,0.20218 z"
     id="path269" /><path
     style="fill:#ffffff;stroke:none;stroke-width:15.9978;stroke-linecap:round;stroke-dasharray:none"
     d="m 441.13203,322.18035 v -17.47342 l 4.93751,-4.91185 4.93751,-4.91186 4.91185,4.9375 4.91186,4.93751 v 17.44776 17.44777 h -9.84936 -9.84937 z"
     id="path270" /><path
     style="fill:#ffffff;stroke:none;stroke-width:15.9978;stroke-linecap:round;stroke-dasharray:none"
     d="m 426.20876,165.05143 v -9.84936 l 17.7587,0.0555 17.75869,0.0555 4.5826,4.88649 4.5826,4.88648 -4.80963,4.90738 -4.80963,4.90738 h -17.53167 -17.53166 z"
     id="path271" /></svg>
