<?xml version="1.0" encoding="UTF-8" standalone="no"?>
<!-- Created with Inkscape (http://www.inkscape.org/) -->

<svg
   width="512"
   height="512"
   viewBox="0 0 135.46667 135.46667"
   version="1.1"
   id="svg1"
   xml:space="preserve"
   xmlns="http://www.w3.org/2000/svg"
   xmlns:svg="http://www.w3.org/2000/svg"><defs
     id="defs1" /><g
     id="layer1"><path
       style="fill:#000000;stroke-width:0.721642"
       d="m 0.3446461,134.332 c 0.007831,-0.68902 0.32946118,-1.34663 2.5910133,-5.29763 8.0446156,-14.05421 16.1595056,-25.1502 24.0183006,-32.84175 0.938186,-0.918114 4.353895,-3.938372 7.590568,-6.711544 4.900454,-4.198702 6.937475,-6.067187 12.177264,-11.169722 7.519094,-7.322186 11.047281,-11.30915 13.142971,-14.852069 0.991135,-1.675586 1.172537,-2.443503 0.829587,-3.511984 -0.720843,-2.245905 0.206412,-2.915305 3.153705,-2.276767 0.537509,0.116483 1.385046,0.07796 2.045149,-0.09299 2.501945,-0.647776 3.571753,-2.967668 2.677847,-5.806934 -0.355354,-1.128702 -1.664851,-3.027182 -2.519166,-3.652221 -1.7438,-1.275831 -4.171586,-2.107317 -4.973396,-1.703346 -1.365462,0.687961 -4.402693,-2.346777 -5.430897,-5.426429 -0.727605,-2.179293 -0.435396,-5.361132 0.672629,-7.324235 1.17526,-2.082229 3.618137,-3.855466 5.830059,-4.231929 1.967147,-0.334801 3.009139,-0.05658 3.301006,0.881391 0.230034,0.739275 0.05432,1.223093 -0.718623,1.978671 -0.813844,0.795549 -1.059761,1.742619 -0.802149,3.089257 0.372242,1.94589 1.921849,3.717311 4.767647,5.450103 1.581538,0.96299 3.929717,2.442148 4.734001,2.982033 0.536781,0.360319 0.600897,0.350736 1.210835,-0.181012 3.311435,-2.886905 7.202123,-5.063532 11.396497,-6.37572 3.475736,-1.087377 6.385756,-1.535895 11.472965,-1.76834 4.350031,-0.198764 7.271391,-0.791876 9.125461,-1.852741 2.35319,-1.346436 3.25287,-3.068385 2.33806,-4.474963 -0.317,-0.487422 -0.35707,-0.490973 -0.94653,-0.08382 -1.16987,0.808068 -1.88454,1.043958 -3.139,1.036107 -1.33692,-0.0084 -2.33894,-0.458315 -4.65291,-2.089336 -2.720684,-1.917704 -5.678477,-1.725437 -8.475449,0.55094 -1.066943,0.868356 -1.380282,1.037104 -1.828602,0.98482 -0.911229,-0.106274 -1.931233,-0.795259 -3.396583,-2.29429 -1.262479,-1.291497 -1.444932,-1.556123 -1.840339,-2.669167 -1.058444,-2.979438 -0.02559,-5.461118 2.153552,-5.174408 2.037231,0.268042 4.507056,0.347382 6.040881,0.194039 0.962793,-0.09624 2.62708,-0.182782 3.698413,-0.192303 l 1.947871,-0.01731 -0.757628,-0.594406 c -0.972406,-0.76291 -2.319836,-1.484387 -3.264823,-1.748146 -0.409032,-0.114134 -2.148657,-0.2159 -3.865864,-0.22609 -3.324376,-0.01972 -4.348347,-0.247898 -5.844232,-1.302248 -1.793476,-1.264106 -2.333793,-2.974519 -1.598118,-5.058926 0.408635,-1.1577305 0.628784,-1.4941333 1.79791,-2.7469612 0.732755,-0.7852135 1.348586,-1.5595857 1.368516,-1.7208298 0.103513,-0.8374558 2.382867,-1.2646438 3.874152,-0.7260736 0.465923,0.1682745 1.667009,0.8261775 2.669073,1.4620218 2.494687,1.5829763 2.511904,1.5846865 3.8934,0.3867433 0.833321,-0.7225909 1.432865,-1.0830339 2.288412,-1.3757527 1.206938,-0.4129463 4.000398,-0.6040991 4.550018,-0.3113446 0.23205,0.1235878 0.59199,-0.023576 1.34596,-0.5503426 2.75319,-1.9235351 5.66736,-2.0200196 8.82464,-0.2921629 0.81863,0.448004 1.75432,0.9039576 2.07929,1.0132216 0.91215,0.3066976 3.067,0.3488331 4.35345,0.085126 1.2673,-0.2597549 1.76869,-0.1787251 2.30803,0.3729924 0.46176,0.4723959 0.44117,1.6972703 -0.0432,2.5721441 -0.61161,1.1045672 -2.12649,2.7316642 -2.79151,2.9983082 -0.32213,0.129168 -0.58629,0.286671 -0.58701,0.350006 -0.003,0.249833 4.07237,2.057337 5.16553,2.291059 1.35798,0.290334 2.47473,0.210257 4.79909,-0.344154 1.95925,-0.467315 2.7512,-0.322977 2.98421,0.543915 0.31012,1.153834 -0.84782,3.377782 -2.53365,4.866177 l -1.015,0.896115 1.25899,0.640739 c 1.10601,0.562887 1.42268,0.82454 2.60629,2.153409 1.63903,1.840155 1.88715,2.442688 1.35806,3.298027 -0.45676,0.738417 -1.04141,0.843776 -2.03104,0.365994 -0.33757,-0.162973 -0.65491,-0.256078 -0.70524,-0.206851 -0.0502,0.04919 0.21391,0.481774 0.58717,0.961327 0.93543,1.201886 2.24447,4.062166 2.72978,5.964655 0.83452,3.271457 0.35141,7.614544 -1.14371,10.28179 -1.01999,1.819628 -1.73155,2.097453 -3.13972,1.225849 -0.4599,-0.284673 -0.85811,-0.525396 -0.88487,-0.534934 -0.0269,-0.0095 -0.18785,0.367784 -0.3579,0.838509 -0.9422,2.607975 -3.86706,7.22796 -5.72696,9.046053 -1.14195,1.116306 -3.2508,2.499139 -3.84614,2.522052 -0.8498,0.0327 -1.33384,-0.713793 -1.39381,-2.149556 -0.0294,-0.706187 -0.0806,-1.311685 -0.11379,-1.345555 -0.033,-0.03384 -0.76428,0.613193 -1.62482,1.43791 -2.9015,2.78073 -6.50037,4.657769 -10.13715,5.28728 -1.31748,0.228055 -1.84441,0.03146 -2.09279,-0.780683 -0.15193,-0.496806 -0.0613,-0.848981 0.47868,-1.858641 0.36637,-0.685134 0.61778,-1.295157 0.55868,-1.355612 -0.059,-0.06044 -0.33699,0.03939 -0.61754,0.221843 -0.98665,0.641685 -1.71623,1.517622 -2.35165,2.823301 -1.0675,2.19356 -1.22535,2.428782 -1.73538,2.585905 -0.953769,0.293819 -1.898804,0.170669 -2.852603,-0.371753 -1.279492,-0.727633 -2.410686,-0.757882 -3.465013,-0.09283 -1.73961,1.097376 -1.824052,1.468556 -0.665462,2.925139 0.441522,0.555095 1.485863,2.216537 2.320745,3.692097 1.321797,2.336148 1.706436,2.878144 2.976511,4.194139 1.577182,1.634216 2.116552,1.931304 3.640702,2.005292 1.02866,0.04989 1.75758,-0.206638 2.41625,-0.850497 0.44067,-0.430786 0.73535,-0.548814 1.35268,-0.541798 0.88618,0.01005 1.10966,0.173864 1.4682,1.076133 0.32712,0.823126 0.19961,2.013444 -0.38591,3.602923 -0.4492,1.219195 -0.56447,1.376923 -2.11633,2.893905 -1.59243,1.556635 -1.68332,1.618246 -3.0513,2.068276 -1.65039,0.542944 -4.142733,0.576696 -5.719676,0.07748 -2.018365,-0.638918 -4.14441,-2.266351 -5.00612,-3.831954 -0.27614,-0.501718 -0.29645,-0.836545 -0.0882,-1.454543 0.642429,-1.906446 -0.826655,-4.836709 -3.235586,-6.45381 -2.694219,-1.808616 -6.303273,-1.458644 -7.569718,0.734043 -0.600467,1.039641 -0.714021,2.604803 -0.24929,3.433796 0.460792,0.821827 0.422132,1.250018 -0.167896,1.860441 -0.541882,0.560595 -1.125731,0.623921 -2.440582,0.264741 -1.174125,-0.320783 -2.070087,-0.04841 -4.508637,1.370526 -6.013985,3.499376 -13.494141,10.477744 -23.40018,21.83043 -7.370701,8.44711 -13.440339,14.04155 -22.078119,20.34957 -5.56439,4.06361 -13.070906,8.68319 -19.8938945,12.24292 -5.1954245,2.71057 -6.2085488,3.06698 -6.85077335,2.40998 -0.1669007,-0.17073 -0.30108759,-0.51825 -0.29820284,-0.77222 z M 6.51468,129.98044 c 0.518524,-0.33337 2.0789918,-1.22605 3.4677072,-1.98371 7.1857448,-3.92053 14.4777708,-8.78828 21.1659688,-14.12927 3.161235,-2.52446 10.667787,-9.63216 13.242203,-12.53857 10.24321,-11.564233 17.134822,-18.460361 22.810966,-22.82592 1.774223,-1.364555 4.195381,-2.923159 5.098318,-3.281975 0.391013,-0.155392 0.711617,-0.341564 0.71245,-0.413732 0.004,-0.345894 -1.831698,-0.348876 -2.790876,-0.0045 -1.210733,0.434693 -1.600731,0.232921 -1.470561,-0.760829 0.138999,-1.061171 1.177903,-1.721092 3.01131,-1.912791 1.457891,-0.152449 2.603837,0.152759 4.923741,1.311437 0.182273,0.09101 0.250005,-0.0626 0.255924,-0.580315 0.0045,-0.387263 0.18777,-1.211877 0.407469,-1.832464 0.346479,-0.978427 0.562692,-1.287873 1.628304,-2.329536 1.060233,-1.036415 1.381446,-1.251199 2.341373,-1.565386 0.611895,-0.200297 1.579732,-0.365395 2.150735,-0.366882 l 1.03821,-0.0027 -1.003121,-0.888468 c -2.522517,-2.23419 -5.482494,-2.246371 -6.952995,-0.02862 -0.29439,0.444012 -0.771596,1.530621 -1.060436,2.414686 -0.632741,1.936829 -0.756709,2.022132 -2.965134,2.041827 -3.099458,0.02763 -2.93996,-0.09745 -15.562892,12.203288 -5.640751,5.496748 -15.906819,15.569886 -22.813534,22.38469 l -12.557647,12.39053 -0.559268,-0.0653 c -1.168731,-0.13627 -1.567616,-1.27321 -0.84375,-2.40482 0.24988,-0.39065 9.511907,-9.54907 22.673683,-22.420069 14.916087,-14.586963 22.497169,-22.092763 22.997289,-22.770215 1.054814,-1.428855 1.361119,-2.350931 1.354861,-4.078512 -0.0086,-2.377077 0.436909,-2.926742 2.561326,-3.159999 1.252744,-0.137544 2.144531,-0.536729 2.943143,-1.317405 1.721043,-1.68237 1.56301,-4.394366 -0.393774,-6.757503 l -0.641517,-0.774731 -0.117503,1.061086 c -0.184129,1.662706 -0.703449,2.776683 -1.800397,3.861887 -1.30083,1.286937 -2.540026,1.838303 -4.261403,1.896106 -0.764764,0.0257 -1.420102,0.07565 -1.456294,0.111033 -0.03617,0.03535 0.121178,0.332118 0.349717,0.659418 0.608591,0.871595 1.123999,2.492998 1.170832,3.683238 0.07958,2.022406 -1.022116,3.836814 -2.296688,3.782526 -0.923541,-0.03934 -1.076309,-0.466225 -0.617284,-1.724844 0.360596,-0.988766 0.46808,-2.710736 0.169403,-2.71413 -0.06308,-7.73e-4 -0.359461,0.478593 -0.658749,1.065121 -0.765659,1.500521 -3.397857,4.873936 -6.188926,7.931697 -4.962133,5.436281 -15.179421,15.036786 -21.651597,20.344566 -8.841463,7.25084 -18.264542,19.02134 -26.7195082,33.37573 -1.0083689,1.71196 -1.9248117,3.202 -2.0365369,3.31121 -0.487745,0.47678 0.082229,0.35806 0.9454905,-0.19695 z M 71.208989,67.858682 c 0.897396,-0.130362 1.675517,-0.279931 1.729156,-0.332361 0.05363,-0.05241 0.1852,-0.420355 0.292552,-0.817562 0.349912,-1.295989 1.215125,-2.79225 2.133982,-3.690464 0.696321,-0.680678 1.143577,-0.9506 2.136111,-1.289171 1.562501,-0.533022 2.948716,-0.459326 4.898997,0.260452 1.473931,0.544034 1.5406,0.591207 3.103262,2.198895 1.08655,1.117819 1.702011,1.881679 1.92557,2.389794 0.282713,0.64252 0.438309,0.807327 1.114331,1.180251 1.318791,0.727514 3.385819,2.719287 4.088688,3.93984 0.737023,1.279853 1.318659,3.047441 1.506426,4.578027 0.184163,1.501223 0.496822,1.93023 2.013152,2.76231 1.069921,0.587097 1.494558,0.694874 2.796107,0.709673 1.114877,0.01268 1.807897,-0.113144 2.533837,-0.45996 1.05387,-0.503513 2.57073,-1.876102 2.75159,-2.489903 0.0868,-0.293178 -0.076,-0.311184 -0.98955,-0.108947 -1.42168,0.314725 -3.06319,0.03564 -4.563799,-0.775911 -1.879122,-1.016249 -3.323429,-2.754437 -5.527809,-6.652574 -1.576326,-2.78753 -1.924718,-3.286069 -3.505297,-5.015998 -1.342529,-1.469384 -2.039902,-2.105517 -2.9672,-2.70659 -1.631528,-1.057541 -4.12578,-1.920703 -5.698898,-1.972169 -1.204674,-0.03941 -1.319491,-0.08371 -1.794027,-0.692939 -0.365999,-0.46982 -0.534532,-0.983088 -0.605991,-1.845498 -0.20856,-2.517325 -1.185681,-4.873429 -3.010206,-7.258385 -1.483633,-1.939315 -3.15319,-3.275157 -7.376571,-5.902106 -2.66745,-1.659159 -3.654923,-2.36815 -4.494391,-3.226914 -2.228829,-2.280069 -3.01935,-4.582591 -2.442331,-7.113727 l 0.221998,-0.973853 -0.545818,0.232874 c -0.751631,0.32068 -2.007374,1.799564 -2.415079,2.844229 -0.84377,2.161982 -0.37929,4.74636 1.183471,6.584827 l 0.837841,0.985658 1.567035,0.251183 c 3.600257,0.577086 6.607252,2.629531 8.268403,5.643645 0.66833,1.21267 0.682756,1.227432 1.777658,1.818531 3.505875,1.892699 5.366754,6.17805 4.163351,9.587652 -0.372343,1.054999 -0.621001,1.447348 -1.438476,2.269795 -1.214343,1.221774 -2.10744,1.71359 -3.614163,1.990396 l -1.160117,0.213138 -0.152631,1.34224 c -0.08396,0.738232 -0.25265,1.439999 -0.374865,1.559496 -0.274201,0.268043 -0.339364,0.268779 1.633723,-0.01788 z M 82.441417,56.792177 c 0.556673,0.109396 1.587577,0.414949 2.290792,0.679382 l 1.278836,0.479949 1.045794,-1.021276 c 1.350954,-1.318596 4.743168,-3.778831 6.868355,-4.980608 4.156131,-2.350262 8.931716,-4.033604 14.833536,-5.228653 3.70006,-0.74923 7.41378,-2.269974 9.7966,-4.011645 1.61194,-1.178232 2.9735,-2.865322 4.12021,-5.105396 1.11893,-2.185751 1.40194,-3.330189 1.43335,-5.796062 0.0439,-3.446779 -0.86465,-5.748962 -3.67369,-9.308855 -1.25249,-1.587297 -1.82484,-1.975322 -4.36093,-2.956538 -1.87024,-0.723606 -3.13258,-0.936848 -3.0428,-0.514035 0.0348,0.164343 0.24679,0.488277 0.4709,0.719829 0.74203,0.766737 1.40744,2.282925 1.39722,3.183723 -0.0171,1.504684 -1.46376,2.898216 -3.41328,3.287936 -0.45805,0.09156 -0.8605,0.193537 -0.89433,0.226611 -0.0339,0.03308 0.21092,0.484689 0.54392,1.003595 1.12371,1.751168 1.29404,3.087373 0.61876,4.854453 -0.30573,0.80002 -0.60372,1.203427 -1.60891,2.178116 -2.49417,2.418545 -5.72755,3.371665 -13.043129,3.844834 -8.844536,0.572064 -14.813502,2.629122 -19.737414,6.802018 l -1.277755,1.082871 1.050884,1.081543 c 0.577957,0.594867 1.216263,1.353982 1.418405,1.686952 l 0.367539,0.605403 1.237854,-1.036982 c 4.706831,-3.942991 10.403451,-5.978308 19.12901,-6.834508 5.534576,-0.543076 8.877766,-1.412921 11.673266,-3.037163 1.82393,-1.059755 3.62023,-2.953964 4.37715,-4.615742 0.73172,-1.606472 0.74351,-3.998671 0.0276,-5.583222 -0.29274,-0.647866 -0.52125,-1.413385 -0.50779,-1.701151 0.0347,-0.745781 0.67005,-1.287345 1.49878,-1.277928 0.59386,0.0067 0.75813,0.09833 1.13657,0.633529 0.84347,1.192858 1.37501,3.198643 1.34287,5.067465 -0.0892,5.190814 -3.85345,9.400324 -10.43749,11.672211 -2.38768,0.823881 -4.76489,1.28272 -8.817034,1.7018 -8.653085,0.894919 -13.12654,2.538605 -18.410838,6.764686 l -0.931965,0.74532 0.443249,1.247828 c 0.243786,0.686298 0.493344,1.679455 0.554579,2.207016 0.06122,0.527556 0.128828,0.980529 0.150218,1.00659 0.02147,0.026 0.494233,0.137247 1.050972,0.246414 z m 7.603731,3.833934 c 0.03887,0.0042 0.572444,-0.447761 1.185634,-1.004204 1.285967,-1.166955 2.33379,-1.621938 3.949354,-1.71484 1.003854,-0.05775 2.960125,0.485185 3.411308,0.946684 0.269622,0.275821 0.271216,0.273832 1.003938,-1.261651 1.161908,-2.434804 3.371668,-4.185243 6.003028,-4.755215 2.68817,-0.582291 3.77397,0.736366 2.37618,2.885773 -0.3342,0.51391 -0.59252,1.001878 -0.57403,1.084384 0.0471,0.210289 2.36126,-0.793997 3.76206,-1.632681 0.8841,-0.529319 1.86956,-1.379145 4.03123,-3.476319 2.75007,-2.66799 2.87942,-2.771817 3.3327,-2.674965 0.25937,0.05542 0.69816,0.31577 0.97509,0.578552 0.42225,0.400671 0.51792,0.725099 0.59274,2.01012 0.0491,0.842791 0.16159,1.533165 0.24999,1.534168 0.29239,0.0032 2.73533,-3.182114 3.90296,-5.089206 1.50124,-2.452003 2.45921,-4.574307 2.80557,-6.215623 0.32984,-1.562713 0.23104,-2.237768 -0.50478,-3.450329 -0.49636,-0.817924 -0.55848,-0.870974 -0.70901,-0.605591 -0.0907,0.15996 -0.54928,1.003971 -1.01896,1.875568 -0.7916,1.469043 -1.01848,1.745377 -3.10807,3.785648 -1.87424,1.830118 -2.47801,2.324347 -3.5828,2.933432 -2.34321,1.291831 -5.162,2.282769 -9.18934,3.230492 -8.18299,1.925656 -12.438867,3.667753 -17.013391,6.964289 -0.851477,0.613588 -1.955673,1.513297 -2.453769,1.999338 l -0.905858,0.883479 0.703635,0.580451 c 0.387003,0.319254 0.735471,0.583834 0.774387,0.587972 z m 0.809137,-35.020352 c 1.559569,-1.084193 3.331203,-1.665196 5.235188,-1.716877 2.51748,-0.06832 4.243187,0.621627 6.962587,2.783715 1.01849,0.809748 2.33871,0.853158 3.10699,0.102155 0.48166,-0.470853 0.53147,-0.636697 0.38608,-1.285452 -0.31884,-1.422762 0.23162,-1.890555 2.10292,-1.787123 1.39619,0.07719 2.74595,-0.175714 3.17467,-0.594814 0.3427,-0.335002 -0.007,-1.075283 -1.14972,-2.428871 -1.31414,-1.557624 -1.42185,-2.238198 -0.52763,-3.333852 1.39083,-1.704084 4.14148,-1.60341 8.75974,0.320617 3.3909,1.412689 6.28351,1.553509 8.16533,0.397499 1.37003,-0.84162 1.76356,-1.506767 0.65453,-1.106329 -0.77708,0.28059 -2.69791,0.270697 -4.06094,-0.02092 -0.77273,-0.165315 -2.48978,-0.881144 -4.50926,-1.87988 -1.79372,-0.887088 -3.89696,-1.784957 -4.67385,-1.995263 -1.61386,-0.436873 -2.41797,-0.838845 -5.07901,-2.538899 -3.45979,-2.2103762 -7.17976,-3.0156977 -9.551768,-2.067821 -0.55264,0.2208399 -0.986408,0.4203433 -0.963924,0.4433423 0.0225,0.023006 0.600683,0.262155 1.284912,0.5314542 1.20615,0.4747256 2.21079,1.0598875 3.497,2.0368615 0.60167,0.457019 0.63448,0.455922 1.03144,-0.03443 0.32176,-0.397454 0.56607,-0.504691 1.13505,-0.498227 0.67101,0.0076 0.77432,0.07215 1.38652,0.865786 0.97622,1.265562 1.10953,2.020884 0.48229,2.732447 -0.62672,0.710933 -1.50413,0.851924 -2.40324,0.386133 -0.45248,-0.234408 -0.67517,-0.245905 -0.79364,-0.04097 -1.01832,1.761702 -2.45286,2.268072 -3.73794,1.319462 -1.135461,-0.838165 -0.864198,-2.037198 0.5387,-2.381215 0.3404,-0.08347 0.61964,-0.216415 0.62054,-0.295438 0.002,-0.21973 -2.451687,-1.662964 -3.332509,-1.959773 -0.428942,-0.14459 -1.499407,-0.312009 -2.378796,-0.372099 C 94.15364,11.046013 93.736133,10.891478 92.424693,9.7834702 90.944977,8.5332827 89.530359,7.888648 88.774122,8.119921 c -0.697161,0.2132078 -2.125493,1.5536762 -2.633878,2.471871 -0.623052,1.125296 -0.608583,1.718481 0.05782,2.371257 0.886603,0.86846 1.818813,1.076199 5.123824,1.141814 2.457209,0.04878 3.293732,0.16169 4.50529,0.608064 2.128693,0.784276 3.033852,1.438645 5.062672,3.659973 1.92251,2.104931 2.31569,2.915383 1.86109,3.836186 -0.38077,0.771268 -1.09165,0.900422 -2.36382,0.429464 -1.429116,-0.529052 -3.416199,-0.625645 -7.516105,-0.365334 -1.797534,0.114127 -3.821031,0.13366 -4.496663,0.04341 -0.675643,-0.09026 -1.303354,-0.09568 -1.394918,-0.01207 -0.340914,0.311321 0.621623,2.074772 1.700684,3.115815 l 1.022209,0.986189 z M 89.12922,10.937443 c -0.207772,-0.510853 0.05314,-1.0345803 0.642815,-1.2900488 0.782978,-0.3392514 1.48632,-0.1701794 2.32869,0.5597708 0.742201,0.643155 0.777219,0.714932 0.587701,1.204669 -0.136985,0.353985 -0.357637,0.593474 -0.688997,0.747795 -0.828516,0.385869 -2.506842,-0.328792 -2.870209,-1.222186 z m 41.73869,31.467493 c 0.33446,-0.326945 1.08113,-3.086867 1.15821,-4.281029 0.093,-1.433715 -0.20032,-3.580902 -0.70368,-5.15938 -0.47008,-1.474108 -1.82386,-3.936947 -2.84285,-5.171818 -0.867,-1.050722 -2.68488,-2.446352 -2.76513,-2.12288 -0.0232,0.09363 0.17238,0.654963 0.43466,1.247478 0.89016,2.010903 1.13575,4.934673 0.63731,7.587133 -0.0732,0.389854 0.005,0.503952 0.64061,0.925989 1.55989,1.036826 2.71886,3.306252 2.79392,5.47087 0.0388,1.121525 0.33465,1.808922 0.64695,1.503637 z M 110.67697,8.2048517 c 2.56277,1.5433352 3.36269,1.8646823 4.88024,1.9605073 1.28528,0.08118 2.42897,-0.3057556 3.2484,-1.0989876 l 0.61511,-0.5952151 -1.29398,0.071671 c -1.74189,0.096479 -3.06934,-0.2468771 -5.11538,-1.3231489 -0.94275,-0.4959119 -2.12882,-0.9727848 -2.63576,-1.059722 -1.43931,-0.2468429 -3.16353,0.146044 -2.30765,0.5258315 0.18081,0.080237 1.35492,0.7638604 2.60914,1.5191594 z m 14.49152,14.6982773 c 1.25416,0.282043 2.06746,0.557948 4.34033,1.472443 0.48293,0.194298 0.54787,0.180369 0.3864,-0.08289 -0.26742,-0.435962 -1.9224,-1.551942 -2.89628,-1.952998 -0.86744,-0.357224 -3.53815,-0.729665 -3.74967,-0.522897 -0.29435,0.287733 0.5874,0.786828 1.91922,1.086339 z"
       id="path97" /><path
       style="fill:#ffffff;stroke:#ffffff;stroke-width:0.350604;stroke-dasharray:none"
       d="m 5.8294453,129.84765 c 0.2253692,-0.33707 0.9980727,-1.60081 1.7171188,-2.8083 5.7292109,-9.62108 10.9588079,-16.9885 16.7981929,-23.6652 1.67462,-1.91474 2.550555,-2.84726 4.583497,-4.879556 2.073564,-2.072912 3.320285,-3.218285 5.267224,-4.839034 8.123803,-6.762751 18.183606,-16.313171 23.054109,-21.88675 1.981978,-2.268088 3.944649,-4.819386 4.669829,-6.070369 0.76572,-1.320917 0.858728,-1.471198 0.910536,-1.471198 0.228522,0 0.143251,1.396182 -0.144429,2.364846 -0.305371,1.028222 -0.347216,1.263228 -0.273612,1.536582 0.09052,0.33618 0.339786,0.468649 0.887174,0.471485 0.34581,0.0019 0.468267,-0.02947 0.760878,-0.194247 0.669705,-0.377133 1.209949,-1.262828 1.435478,-2.353365 0.27601,-1.334639 -0.14208,-3.454757 -0.929894,-4.715464 -0.32369,-0.517983 -0.473077,-0.809358 -0.43466,-0.847774 0.01664,-0.01664 0.532799,-0.06031 1.14703,-0.09706 1.195563,-0.07152 1.776386,-0.186072 2.513268,-0.495677 1.192606,-0.501082 2.597981,-1.831789 3.194206,-3.02449 0.32825,-0.656649 0.563881,-1.620668 0.654793,-2.678927 0.02472,-0.287708 0.06265,-0.521752 0.08431,-0.520097 0.0694,0.0053 0.86709,1.027222 1.18284,1.51534 0.353482,0.54644 0.659423,1.24116 0.825243,1.873902 0.158289,0.604027 0.16049,1.69873 0.0044,2.219229 -0.463753,1.547 -1.819735,2.702787 -3.503128,2.985943 -0.291912,0.0491 -0.773808,0.130224 -1.070872,0.180272 -0.885703,0.149217 -1.410503,0.457679 -1.677671,0.986083 -0.189026,0.373861 -0.260128,0.865063 -0.316762,2.188359 -0.07672,1.792719 -0.233611,2.318226 -1.069529,3.582468 -0.519729,0.786037 -5.489832,5.753183 -18.651616,18.640522 -14.873045,14.562917 -19.433775,19.048547 -23.818304,23.426067 -3.691536,3.68564 -3.735983,3.73755 -3.80943,4.44918 -0.0958,0.92819 0.44956,1.48892 1.515955,1.55867 l 0.297049,0.0194 1.573444,-1.55483 c 3.630079,-3.58714 11.23695,-11.08591 15.015633,-14.80223 2.231911,-2.195087 4.842674,-4.764214 5.801698,-5.709173 3.530034,-3.47827 11.651822,-11.42202 16.044076,-15.692371 7.322621,-7.119389 8.862207,-8.444094 10.43455,-8.978187 0.460377,-0.156379 0.618748,-0.174259 1.959212,-0.221193 1.719313,-0.0602 1.993059,-0.119456 2.343432,-0.507276 0.250297,-0.277052 0.374656,-0.530555 0.603877,-1.230973 0.483544,-1.477553 1.048788,-2.637665 1.553523,-3.188499 0.736145,-0.803369 1.581088,-1.174394 2.66411,-1.169833 1.431655,0.006 2.797026,0.66133 4.311645,2.06936 l 0.443845,0.412609 -0.643614,0.0029 c -1.230146,0.0056 -2.665816,0.348238 -3.48655,0.832083 -0.218371,0.128734 -0.772381,0.61698 -1.361471,1.199861 -0.939722,0.929806 -1.00893,1.015283 -1.283463,1.585164 -0.345306,0.716802 -0.590258,1.586066 -0.676286,2.399954 -0.03447,0.326077 -0.07666,0.615503 -0.09375,0.643167 -0.0171,0.02766 -0.424457,-0.129103 -0.905244,-0.348372 -2.019287,-0.920929 -3.021587,-1.118435 -4.516256,-0.88994 -1.360699,0.208016 -2.115363,0.598277 -2.4908,1.288081 -0.308786,0.567335 -0.2971,1.367182 0.02247,1.53821 0.198863,0.106427 0.578249,0.06594 1.263604,-0.134859 1.059852,-0.310512 2.80513,-0.333658 2.709521,-0.03593 -0.01294,0.04029 -0.421006,0.274028 -0.906822,0.519417 -1.605295,0.81084 -3.690795,2.217601 -5.82742,3.930846 -5.29775,4.247984 -11.458367,10.435052 -20.747525,20.836604 -2.119986,2.37386 -3.736241,4.03943 -6.250693,6.44142 -5.3228,5.08473 -7.396104,6.87696 -11.628784,10.05227 -5.760722,4.32164 -10.871114,7.62865 -17.466438,11.30282 -1.2331993,0.68699 -2.6131096,1.47029 -3.0664663,1.74064 -1.6452328,0.98113 -1.7155374,0.9939 -1.1963256,0.21734 z"
       id="path98" /><path
       style="fill:#ffffff;stroke:#ffffff;stroke-width:0.495828;stroke-dasharray:none"
       d="m 97.683549,79.614237 c -0.481267,-0.09802 -1.848981,-0.775886 -2.437831,-1.208236 -0.644225,-0.473011 -0.83452,-0.882921 -1.103706,-2.377491 -0.406472,-2.256783 -1.088525,-3.958769 -2.088153,-5.210736 -0.940944,-1.178472 -2.515186,-2.5509 -3.801269,-3.313957 -0.297281,-0.17638 -0.471518,-0.383349 -0.745511,-0.88556 -0.413543,-0.758 -1.150138,-1.648874 -2.420259,-2.927187 -0.970676,-0.976932 -1.374213,-1.252912 -2.421937,-1.656354 -1.254878,-0.483212 -2.068525,-0.653442 -3.139592,-0.656863 -1.116677,-0.0036 -1.762218,0.139403 -2.807331,0.621747 -1.470027,0.678454 -2.792972,2.425023 -3.511871,4.636417 l -0.280535,0.862949 -0.466288,0.09517 c -0.464101,0.09472 -2.726853,0.450946 -2.87595,0.452757 -0.04303,5.49e-4 -0.03689,-0.04949 0.01365,-0.111138 0.144349,-0.176092 0.279595,-0.771377 0.423999,-1.866228 0.07328,-0.555588 0.143443,-1.019481 0.155918,-1.030871 0.01247,-0.0114 0.365678,-0.08798 0.784886,-0.170187 1.805991,-0.354174 2.589216,-0.759014 3.823807,-1.976478 0.984584,-0.970924 1.282525,-1.44629 1.660075,-2.648633 0.18022,-0.573927 0.210096,-0.854761 0.209546,-1.969588 -5.49e-4,-1.085256 -0.03444,-1.417269 -0.205051,-2.008172 -0.693599,-2.402207 -2.278007,-4.33488 -4.561259,-5.56386 -0.620214,-0.333836 -0.915911,-0.660473 -1.465821,-1.619185 -0.617536,-1.076617 -1.059715,-1.658521 -1.879342,-2.473204 -1.741142,-1.730638 -3.877019,-2.761227 -6.741727,-3.25298 -1.203722,-0.206626 -1.228906,-0.215736 -1.524397,-0.551483 -1.759588,-1.999291 -2.422332,-3.994603 -2.011307,-6.055407 0.25292,-1.268104 0.888961,-2.372097 1.924887,-3.341084 0.441252,-0.412741 1.037918,-0.768848 1.131472,-0.675294 0.02615,0.02615 -0.01921,0.346103 -0.100817,0.711016 -0.222062,0.993094 -0.204414,2.465492 0.03997,3.334893 0.507738,1.806273 1.903836,3.687325 3.755861,5.060521 0.40251,0.298443 1.826348,1.237512 3.164082,2.086821 4.889943,3.10456 6.355366,4.351755 7.99598,6.805246 1.389207,2.077519 2.123516,4.047567 2.360019,6.33162 0.08887,0.858219 0.28947,1.431137 0.669396,1.911781 0.30299,0.383308 0.419606,0.461769 0.811189,0.545746 0.25153,0.05394 0.6588,0.09808 0.905046,0.09808 1.037302,0 3.094162,0.601169 4.60983,1.34734 1.239965,0.610441 2.264964,1.413364 3.578448,2.803143 1.830412,1.936736 2.326325,2.614702 3.81833,5.220074 0.508375,0.887739 1.348113,2.257574 1.866083,3.04408 2.077324,3.154287 4.246416,4.65199 6.922651,4.779915 0.67357,0.0322 1.14183,0.0035 1.6453,-0.100759 0.38707,-0.08017 0.74107,-0.122712 0.78667,-0.09453 0.14883,0.09198 -0.31224,0.765068 -0.90206,1.31688 -0.7152,0.669103 -1.63961,1.274298 -2.31613,1.516329 -0.58529,0.209392 -2.539645,0.307407 -3.248951,0.162942 z"
       id="path99" /><path
       style="fill:#ffffff;stroke:#ffffff;stroke-width:0.495828;stroke-dasharray:none"
       d="m 85.309033,57.634616 c -0.909218,-0.357924 -2.510964,-0.837631 -3.251434,-0.973775 -0.500928,-0.0921 -0.61285,-0.144685 -0.644708,-0.302888 -0.02121,-0.10529 -0.105722,-0.594954 -0.18782,-1.088142 -0.08209,-0.493188 -0.321944,-1.408693 -0.532994,-2.03446 l -0.38373,-1.137756 0.953529,-0.748896 c 4.274149,-3.356887 7.555695,-4.87409 12.834857,-5.934123 1.462735,-0.293712 3.082328,-0.52463 6.049217,-0.862481 2.63543,-0.300109 4.4162,-0.585492 5.87695,-0.941826 5.0516,-1.232294 8.99121,-3.631982 11.05688,-6.734955 0.70258,-1.055377 1.12788,-1.987775 1.47245,-3.228072 0.22683,-0.816451 0.2459,-1.012679 0.24724,-2.543605 0.001,-1.294217 -0.034,-1.804861 -0.15968,-2.322844 -0.35784,-1.474386 -1.12637,-2.989903 -1.63334,-3.220892 -0.55096,-0.251031 -1.428,-0.06463 -1.82537,0.387949 -0.50587,0.576149 -0.47511,0.941654 0.24199,2.875741 0.71005,1.915092 0.50282,4.234275 -0.53032,5.934858 -0.74557,1.227224 -1.97227,2.515853 -3.2504,3.414489 -0.30419,0.21387 -0.98763,0.60802 -1.51874,0.875893 -2.78807,1.40617 -5.21613,1.98948 -10.982438,2.638381 -4.835003,0.544102 -7.239065,1.023053 -10.334994,2.059001 -3.722768,1.245698 -6.277845,2.711554 -9.519848,5.461572 l -0.328634,0.278762 -0.491536,-0.695186 c -0.270348,-0.382349 -0.895942,-1.121904 -1.390213,-1.643453 l -0.898674,-0.948273 0.91181,-0.765589 c 2.908858,-2.442386 5.413273,-3.873799 8.802808,-5.031305 3.160368,-1.079245 6.336282,-1.65093 11.298469,-2.033802 8.09983,-0.624964 10.90422,-1.547666 13.60987,-4.477926 0.7953,-0.861319 1.27815,-1.980123 1.37713,-3.190891 0.0867,-1.060384 -0.22967,-2.029484 -1.16913,-3.581543 -0.17736,-0.29301 -0.32247,-0.560431 -0.32247,-0.594265 0,-0.03383 0.35307,-0.148472 0.78461,-0.25475 1.54613,-0.380776 2.63229,-1.130741 3.15628,-2.179328 0.45,-0.900533 0.38106,-1.820015 -0.23052,-3.074519 -0.1683,-0.345231 -0.52724,-0.902771 -0.79764,-1.238977 -0.7179,-0.892623 -0.65992,-1.021705 0.36941,-0.822396 1.43646,0.278139 3.98526,1.334468 4.91954,2.038861 0.7224,0.544645 1.87393,1.923769 2.914,3.489942 1.10092,1.657801 1.68169,2.962745 2.0367,4.576358 0.20311,0.923193 0.2327,4.263935 0.0455,5.137762 -0.45096,2.104981 -1.89725,4.891768 -3.4903,6.72528 -2.30268,2.650243 -6.48609,4.661544 -12.21836,5.874351 -5.28579,1.118344 -9.939433,2.735558 -13.525966,4.700487 -2.891528,1.584163 -6.004219,3.823126 -7.994924,5.750759 l -0.672529,0.651223 z"
       id="path100" /><path
       style="fill:#ffffff;stroke:#ffffff;stroke-width:0.495828;stroke-dasharray:none"
       d="m 89.321782,60.008895 c -0.332901,-0.275983 -0.605274,-0.532986 -0.605274,-0.571118 0,-0.11023 1.392038,-1.389949 2.188183,-2.011624 2.326224,-1.816449 4.735534,-3.275067 7.228094,-4.375947 2.683505,-1.18522 5.164645,-1.974872 10.087035,-3.210323 1.77547,-0.445618 3.77054,-0.972975 4.43348,-1.1719 2.6103,-0.783261 5.40882,-2.052683 6.74511,-3.059607 0.91799,-0.691722 4.04293,-3.743698 4.5622,-4.455668 0.21994,-0.301553 0.74766,-1.181087 1.17271,-1.954522 0.42506,-0.773433 0.80906,-1.418325 0.85335,-1.433086 0.0934,-0.03113 0.75327,1.01676 0.97191,1.543379 0.79478,1.914234 -0.90933,6.283801 -4.25164,10.901803 -1.06407,1.4702 -2.23076,2.883293 -2.32993,2.822002 -0.0896,-0.05536 -0.15279,-0.466927 -0.27267,-1.775291 -0.0486,-0.530213 -0.14881,-1.080997 -0.22275,-1.223968 -0.19001,-0.36744 -0.83058,-0.890677 -1.24092,-1.013619 -0.29775,-0.08921 -0.39218,-0.08023 -0.65715,0.06246 -0.17019,0.09165 -1.24627,1.06099 -2.39129,2.154083 -3.38182,3.228461 -3.76209,3.5393 -5.35482,4.377233 -1.11283,0.585454 -2.47176,1.157801 -2.65666,1.118925 -0.0984,-0.02069 -0.0362,-0.18415 0.24946,-0.655265 1.03207,-1.702165 1.04949,-2.681128 0.0569,-3.196368 -0.31159,-0.161742 -0.52931,-0.199004 -1.14681,-0.196272 -1.79976,0.008 -3.8997,0.934188 -5.36677,2.367137 -0.79415,0.775677 -1.29335,1.483649 -1.903654,2.699772 -0.288869,0.575621 -0.564074,1.070596 -0.611564,1.099946 -0.04749,0.02935 -0.236048,-0.04822 -0.419015,-0.17239 -0.796665,-0.54063 -2.618952,-0.908056 -3.7772,-0.761596 -1.42861,0.180651 -2.21186,0.575796 -3.696726,1.864981 -0.464644,0.403412 -0.888336,0.732383 -0.941541,0.731048 -0.0532,-0.0014 -0.369106,-0.228228 -0.702008,-0.504208 z"
       id="path101" /><path
       style="fill:#ffffff;stroke:#ffffff;stroke-width:0.495828;stroke-dasharray:none"
       d="m 130.4755,42.060802 c -0.0751,-0.187721 -0.16375,-0.682028 -0.19697,-1.098463 -0.19883,-2.492611 -1.30465,-4.587866 -3.0263,-5.734077 -0.18502,-0.123178 -0.35926,-0.294669 -0.38721,-0.381086 -0.0279,-0.08642 8.2e-4,-0.46976 0.0642,-0.851868 0.0661,-0.399676 0.11281,-1.39931 0.10988,-2.353648 -0.007,-2.198068 -0.14328,-2.882494 -1.06223,-5.325022 -0.12774,-0.339531 -0.21732,-0.632265 -0.19906,-0.650521 0.0183,-0.01825 0.28333,0.128473 0.58904,0.326066 0.86485,0.558979 2.10986,1.817575 2.75003,2.780023 0.71483,1.074712 1.67036,2.90106 2.02588,3.872133 0.53703,1.466903 0.96471,4.237336 0.84179,5.453054 -0.0777,0.76831 -0.44748,2.430814 -0.71156,3.198977 -0.41921,1.219401 -0.56104,1.355345 -0.79747,0.764432 z"
       id="path102" /><path
       style="fill:#ffffff;stroke:#ffffff;stroke-width:0.247914;stroke-dasharray:none"
       d="m 129.29237,24.261658 c -1.68708,-0.68239 -2.86119,-1.083858 -3.85583,-1.318445 -1.35427,-0.319403 -2.21934,-0.714198 -2.21934,-1.012844 0,-0.208968 0.69296,-0.197945 2.10725,0.03352 0.94343,0.154403 1.52992,0.323012 2.06351,0.593235 0.90374,0.457677 2.01226,1.217828 2.3721,1.626623 0.31063,0.352897 0.24088,0.364515 -0.46769,0.07791 z"
       id="path103" /><path
       style="fill:#ffffff;stroke:#ffffff;stroke-width:0.247914;stroke-dasharray:none"
       d="m 104.2519,27.225628 c -0.44442,-0.100263 -0.85786,-0.329127 -1.54681,-0.856251 -1.48593,-1.136904 -2.705768,-1.826743 -3.832959,-2.1676 -0.742613,-0.224562 -1.139916,-0.278721 -2.219791,-0.302587 -1.202922,-0.02659 -1.778414,0.03145 -2.72975,0.275273 -1.267013,0.324728 -2.156082,0.758981 -3.558414,1.738054 l -0.638928,0.446084 -0.169372,-0.134147 C 89.207292,25.94837 88.123147,24.787104 87.842223,24.388895 87.10472,23.3435 86.765096,22.460486 87.04326,22.311618 c 0.106046,-0.05675 0.612055,-0.04179 1.718083,0.05082 0.762856,0.06387 2.297065,0.03164 4.595608,-0.09655 1.854873,-0.103444 4.049941,-0.122497 4.887037,-0.04242 0.780035,0.07462 1.394839,0.200438 2.128752,0.435645 0.34574,0.110801 0.77993,0.223076 0.96488,0.249499 0.63911,0.09131 1.08202,-0.09826 1.37674,-0.589283 0.45231,-0.753539 0.24254,-1.500691 -0.78226,-2.786306 -0.76901,-0.964736 -2.382312,-2.648091 -3.061493,-3.194437 -0.978165,-0.786859 -2.023286,-1.325437 -3.488103,-1.797509 -0.917265,-0.295611 -1.83949,-0.402467 -3.908631,-0.452882 -3.491905,-0.08508 -4.385153,-0.284195 -5.277315,-1.176356 -0.448767,-0.448768 -0.577561,-0.933508 -0.396119,-1.490852 0.117955,-0.362324 0.439178,-0.96445 0.705604,-1.322639 0.474749,-0.6382662 1.450694,-1.5264089 2.031124,-1.8483914 0.195996,-0.1087257 0.27208,-0.1243062 0.605275,-0.1239505 0.838012,9.044e-4 1.798072,0.5011029 3.340224,1.7403135 1.252005,1.0060624 1.660182,1.1659544 3.33648,1.3069754 1.042539,0.0877 2.041885,0.222701 2.499411,0.337633 0.791971,0.198945 3.557083,1.756465 3.557083,2.003617 0,0.07015 -0.18278,0.155551 -0.62435,0.291701 -0.55773,0.171967 -0.92968,0.428406 -1.11176,0.766503 -0.12545,0.232937 -0.10518,0.717025 0.0418,0.998922 0.16309,0.312759 0.5915,0.696075 1.00803,0.90194 0.34222,0.169134 0.35023,0.170676 0.88569,0.170676 0.51647,0 0.55393,-0.0064 0.84758,-0.145507 0.56639,-0.268251 0.99166,-0.673943 1.50082,-1.431758 0.10238,-0.152374 0.22594,-0.289675 0.27458,-0.305113 0.052,-0.0165 0.20465,0.02147 0.37038,0.09212 0.70793,0.301792 0.88139,0.343877 1.33537,0.323985 0.53368,-0.02338 0.83791,-0.15606 1.20917,-0.527322 0.71673,-0.716726 0.65338,-1.454964 -0.22991,-2.679185 -0.37594,-0.521054 -0.70278,-0.865305 -0.91161,-0.960174 -0.1371,-0.06229 -0.29082,-0.08157 -0.65031,-0.08157 -0.6507,0 -0.72694,0.03706 -1.27094,0.617879 -0.11952,0.127611 -0.25442,0.23202 -0.29977,0.23202 -0.0833,0 -0.2696,-0.122321 -1.06336,-0.698307 -1.07426,-0.779524 -1.91733,-1.2365038 -3.345365,-1.8133187 L 98.906234,8.8901811 99.191595,8.7617485 c 1.158865,-0.5215726 1.760505,-0.6561458 2.940305,-0.6576817 1.32142,-0.00173 2.66272,0.2776863 4.17281,0.8692355 1.22175,0.4786005 1.92771,0.8497456 3.5516,1.8671887 2.11985,1.328194 2.93784,1.740742 4.2145,2.125576 0.38223,0.115215 0.86645,0.271543 1.07605,0.347396 0.63409,0.229467 2.16629,0.895012 3.2316,1.403714 2.0141,0.961775 2.58652,1.228407 3.20225,1.491612 1.81757,0.776949 2.62071,0.9511 4.38621,0.9511 0.88001,0 1.41854,-0.05889 1.81382,-0.198354 0.29483,-0.104021 0.5187,-0.10959 0.5384,-0.01339 0.023,0.112562 -0.42389,0.534568 -0.91218,0.861288 -1.10533,0.739588 -1.97324,0.985119 -3.4724,0.982332 -1.60428,-0.003 -2.84699,-0.29443 -5.16244,-1.210723 -1.82718,-0.723073 -3.03505,-1.101723 -4.23054,-1.32622 -0.44739,-0.08401 -0.68907,-0.100784 -1.43472,-0.09955 -0.77904,0.0013 -0.94378,0.01431 -1.25539,0.09927 -0.82705,0.225492 -1.48914,0.695191 -1.9489,1.382591 -0.62701,0.937451 -0.44936,1.631949 0.79888,3.123129 0.50906,0.608138 0.8615,1.109694 1.04426,1.486054 0.28482,0.58655 0.22588,0.802064 -0.28825,1.054071 -0.57167,0.280215 -1.67296,0.429295 -2.81171,0.38062 -1.28846,-0.05508 -1.87698,0.120489 -2.11218,0.6301 -0.10198,0.220955 -0.10967,0.724191 -0.0175,1.143298 0.0353,0.160287 0.0648,0.395134 0.0657,0.521881 10e-4,0.202381 -0.022,0.262457 -0.19184,0.493193 -0.47186,0.640973 -1.31959,0.940794 -2.13801,0.756153 z M 91.933524,12.208884 c 0.221314,-0.07898 0.458482,-0.263178 0.612351,-0.475589 0.159404,-0.220049 0.291347,-0.635308 0.25276,-0.795506 -0.04021,-0.166967 -0.713463,-0.815837 -1.125727,-1.0849654 -0.689129,-0.4498672 -1.328314,-0.5124124 -1.970026,-0.1927704 -0.449721,0.22401 -0.650381,0.5146118 -0.649688,0.9409018 2.74e-4,0.204731 0.02826,0.308136 0.132181,0.489315 0.259226,0.451966 0.910755,0.904211 1.576887,1.094561 0.340397,0.09727 0.932048,0.109419 1.171262,0.02405 z"
       id="path104" /><path
       style="fill:#ffffff;stroke:#ffffff;stroke-width:0.247914;stroke-dasharray:none"
       d="m 115.39345,10.138396 c -0.47658,-0.04786 -1.1106,-0.173402 -1.47171,-0.2914057 -0.77466,-0.2531452 -1.43865,-0.6026989 -3.75159,-1.9749958 -0.72745,-0.431606 -1.5308,-0.9010453 -1.78523,-1.043199 -0.25442,-0.1421533 -0.47459,-0.2897418 -0.48926,-0.3279736 -0.0956,-0.249046 1.02135,-0.4548025 2.00179,-0.3687652 0.77881,0.068344 1.57226,0.3511499 3.00765,1.0720101 2.34046,1.175391 3.48325,1.4596215 5.41711,1.3473171 1.15155,-0.066873 1.08227,-0.1043164 0.62358,0.3370325 -0.65654,0.6317155 -1.16527,0.9252956 -1.94706,1.1236116 -0.4069,0.10322 -1.2079,0.166275 -1.60528,0.126368 z"
       id="path105" /></g></svg>
