<?xml version="1.0" encoding="UTF-8" standalone="no"?>
<!-- Created with Inkscape (http://www.inkscape.org/) -->

<svg
   width="512"
   height="512"
   viewBox="0 0 135.46667 135.46667"
   version="1.1"
   id="svg1"
   xml:space="preserve"
   xmlns="http://www.w3.org/2000/svg"
   xmlns:svg="http://www.w3.org/2000/svg"><defs
     id="defs1" /><path
     style="fill:none;stroke:#ffffff;stroke-width:10.1535;stroke-dasharray:none"
     d="M 16.195467,78.056928 C -11.4514,114.65606 24.138437,183.32156 94.268542,57.173185"
     id="path73" /><path
     id="path69"
     style="fill:#000000;stroke-width:0.689016"
     d="m 109.11812,1.6478974 c -1.75562,0.3897381 -2.88716,0.8830633 -4.73952,1.940593 -3.81365,2.1772706 -6.299834,4.543185 -9.015349,8.5788286 -2.06529,3.069306 -3.142528,5.294964 -4.282755,8.849171 -1.341534,4.18168 -1.639813,5.857177 -2.375662,13.342364 -0.07677,0.78089 -0.06462,2.99276 0.02681,4.915578 0.183007,3.848912 0.109734,4.34113 -0.984303,6.630695 -1.032813,2.161441 -1.194454,3.145927 -0.828995,5.048225 0.279315,1.45423 0.37928,1.695084 1.026256,2.467322 0.493373,0.588903 1.149235,1.069683 2.103537,1.542057 0.762593,0.37748 1.405799,0.772506 1.429712,0.87819 0.06922,0.306297 -2.608757,5.275562 -4.517395,8.382203 C 80.63417,74.520246 74.408004,83.520603 65.144703,95.758346 54.678511,109.58522 48.680069,116.01438 41.193426,121.42963 c -5.893297,4.26268 -11.860827,5.88996 -17.846805,4.86761 -5.157934,-0.88093 -9.808911,-4.72206 -12.080183,-9.97779 -0.844391,-1.95392 -1.9148052,-6.46135 -2.0368023,-8.57594 -0.2935186,-5.0875 0.9656103,-12.067935 3.0719813,-17.03135 1.195985,-2.818199 2.960465,-6.109256 4.446341,-8.292982 l 1.576149,-2.316767 1.491405,0.600481 c 2.211802,0.890649 3.373688,1.075721 4.913452,0.782402 2.173689,-0.414135 3.480472,-1.441252 5.261302,-4.135819 0.945381,-1.430451 1.075673,-1.548632 2.920741,-2.65566 9.010397,-5.406171 15.229484,-12.160615 18.726931,-20.338921 1.451655,-3.394501 2.193334,-6.343686 2.453963,-9.756002 0.332027,-4.347106 -1.065135,-10.458797 -3.111865,-13.611766 -0.881322,-1.357669 -3.405435,-3.893297 -5.144629,-5.167633 -2.573205,-1.885432 -6.467574,-3.183171 -10.007714,-3.334934 -1.413837,-0.06061 -1.999358,0.01747 -4.728183,0.628676 -2.646773,0.592829 -3.355947,0.81849 -4.722698,1.501663 -6.340695,3.169405 -10.844671,8.415909 -13.715672,15.975646 -2.317843,6.103194 -3.2845437,12.677732 -3.0002963,20.408308 0.1417357,3.854215 0.029355,4.761132 -0.7488917,6.05015 -0.6813834,1.128576 -1.2615082,3.494588 -1.1646016,4.751042 0.1586435,2.056866 1.6562041,3.947103 3.8049466,4.802801 0.566692,0.225674 1.038238,0.45064 1.047733,0.499605 0.0095,0.04896 -0.697224,1.200649 -1.570509,2.559669 -4.7405494,7.377317 -7.7909277,17.163683 -7.9247072,25.426251 -0.079527,4.91185 0.6590254,8.74452 2.5952951,13.46795 1.3194387,3.21869 2.4971882,4.97146 5.1133041,7.61029 4.197925,4.23438 9.94951,6.44385 16.360463,6.28573 3.569205,-0.088 6.610851,-0.90242 11.089423,-2.96871 3.350378,-1.54578 8.075923,-4.58865 11.060768,-7.12269 5.743616,-4.87616 12.54645,-12.18026 19.212135,-20.62673 10.09341,-12.789929 22.452226,-31.036781 27.402553,-40.459179 0.597458,-1.137195 1.133726,-2.149202 1.191682,-2.249008 0.05793,-0.0998 0.856315,0.09423 1.774652,0.431368 1.991091,0.730957 3.069091,0.82266 4.611631,0.393033 1.69166,-0.471163 2.93821,-1.501499 4.58773,-3.79247 0.92747,-1.288134 1.60611,-2.038199 2.1083,-2.33092 3.43721,-2.003558 4.4876,-2.675034 6.18604,-3.951517 2.55619,-1.92113 5.8249,-4.877943 7.42577,-6.716874 3.10435,-3.565976 5.90568,-8.21889 7.5724,-12.578192 0.61986,-1.621254 1.33573,-4.7633 1.49356,-6.556132 0.48707,-5.532719 -0.9547,-11.616647 -3.54584,-14.9630645 -2.92731,-3.7805774 -7.36598,-6.6860496 -11.61269,-7.6019345 -2.47117,-0.53294947 -3.69685,-0.54861218 -6.60012,-0.083563 -0.7736,0.1239219 -1.42852,0.2422207 -2.01375,0.3721404 z m 2.70837,4.6681373 c 1.64939,-0.2659969 3.35084,-0.2870621 4.80757,-0.016058 2.7404,0.5098003 5.84577,2.3218033 7.542,4.4009803 2.10034,2.57457 3.54966,6.74901 3.52701,10.158765 -0.0284,4.278553 -1.2244,8.746273 -3.45999,12.92734 -0.99202,1.855283 -3.48206,5.380044 -4.87209,6.896586 -2.76267,3.014101 -7.46563,6.671971 -11.77947,9.161044 -1.88305,1.086511 -1.9435,1.140959 -3.07811,2.801036 -0.63648,0.931269 -1.36752,1.822217 -1.62454,1.979523 -1.00441,0.614737 -1.54547,0.553879 -4.179629,-0.467968 -2.919894,-1.132701 -5.575185,-2.40676 -6.280007,-3.013821 -0.856138,-0.737384 -0.805391,-1.763977 0.205255,-4.14294 0.819158,-1.928224 0.856115,-2.101422 0.796232,-3.745069 -0.181806,-4.99015 -0.170376,-6.585904 0.06528,-9.175905 0.583519,-6.412697 1.65151,-10.823559 3.620909,-14.950639 2.377443,-4.982174 5.895,-8.883186 10.21389,-11.3287203 1.24931,-0.7074028 2.84631,-1.2181589 4.49569,-1.4841498 z m 0.33771,4.1810603 c -3.72838,0.722984 -6.97278,3.211111 -9.69223,7.432992 -1.65096,2.5631 -2.4682,4.425517 -3.505391,7.98954 -1.285187,4.416185 -2.027748,12.045357 -1.460199,14.999939 l 0.206788,1.077951 1.863431,1.229075 c 2.510861,1.656332 4.007741,2.460142 5.041271,2.706897 0.47424,0.113228 1.12726,0.156385 1.4513,0.09578 1.27885,-0.239162 6.14143,-3.737157 8.80263,-6.332064 4.34787,-4.239579 7.37688,-9.558662 8.4727,-14.878766 1.12701,-5.471514 -0.36411,-10.287465 -3.97264,-12.83179 -2.19724,-1.549263 -4.47431,-2.0195896 -7.20783,-1.489525 z M 33.432334,27.867104 c 3.74856,-0.539829 7.14141,0.34187 10.018216,2.614494 1.597736,1.262183 2.551103,2.362685 3.531399,4.075592 1.02223,1.786184 1.8824,5.347118 1.867705,7.731959 -0.05055,8.204997 -4.490201,17.137803 -11.608795,23.356737 -2.447806,2.138448 -3.832858,3.176263 -6.429809,4.818464 -3.08141,1.948549 -3.570955,2.358127 -4.781012,3.994428 -0.581631,0.786509 -1.24477,1.545989 -1.473798,1.687937 -0.769767,0.477109 -1.527755,0.488694 -2.755333,0.04222 C 18.4,74.952007 13.716747,72.689099 13.196885,72.031279 12.511368,71.16384 12.61746,70.55824 13.903774,67.990206 c 0.311641,-0.622168 0.623818,-1.329287 0.693727,-1.571334 0.06991,-0.242048 0.0166,-1.646106 -0.118468,-3.12048 -0.271004,-2.958161 -0.243812,-4.465782 0.157416,-8.819954 0.462374,-5.0177 1.32097,-8.869748 2.706494,-12.14098 2.241859,-5.293036 4.569319,-8.46933 8.172651,-11.151071 2.103823,-1.565744 3.858809,-2.402806 6.289481,-3.001013 0.549564,-0.135259 1.091744,-0.241143 1.627238,-0.318335 z M 113.88332,15.068879 c 0.98314,-0.03244 2.27264,0.434524 3.27053,1.184586 l 0.80439,0.604563 0.3543,2.363822 c 0.40917,2.730097 0.36338,3.978735 -0.22861,6.269377 -1.1533,4.462822 -3.77058,8.182782 -9.18707,13.055782 -1.20359,1.082798 -2.40187,2.137207 -2.66257,2.343244 -0.26072,0.206044 -0.53869,0.386471 -0.61752,0.401126 -0.32863,0.06104 -1.37778,-0.355847 -2.12227,-0.843123 -0.97921,-0.640902 -1.06539,-0.981295 -1.03742,-4.091595 0.064,-7.118436 2.4202,-14.388539 5.82632,-17.975981 1.75874,-1.852374 4.14557,-3.263817 5.59985,-3.311785 z M 32.681385,32.034983 c -0.653377,0.158014 -1.306004,0.379527 -1.950295,0.667724 -2.517475,1.126113 -5.793088,4.176216 -7.480351,6.96466 -1.680097,2.7766 -3.358283,6.919453 -3.898522,9.624924 -0.787947,3.945976 -1.187995,8.570725 -0.999034,11.556367 0.15408,2.43447 0.405927,2.873433 2.33406,4.073286 1.818063,1.131357 4.006571,2.152636 5.35577,2.499104 1.189307,0.305413 1.296473,0.287252 2.832077,-0.477131 2.839286,-1.413328 7.423378,-5.492387 10.38434,-9.240537 0.85728,-1.085192 2.651172,-4.138386 3.396796,-5.780638 2.388827,-5.261451 2.810637,-10.957127 1.09325,-14.771781 -1.893254,-4.205288 -6.494438,-6.222047 -11.068091,-5.115978 z m 2.924762,4.697537 c 0.337819,7.85e-4 0.616112,0.100808 1.149389,0.301819 1.792439,0.675618 1.957673,0.910753 2.436334,3.458067 0.498428,2.652491 0.476855,4.303631 -0.08635,6.540172 -1.191106,4.729993 -3.867228,8.601015 -9.381836,13.572707 -1.512057,1.363193 -2.337279,1.985191 -2.737338,2.062768 -1.047708,0.203166 -3.263465,-0.975618 -3.423956,-1.821583 -0.170405,-0.898356 -0.0022,-5.943045 0.259149,-7.780086 0.605008,-4.251464 1.981132,-7.91708 4.214237,-11.224905 1.177202,-1.743753 1.606142,-2.215064 2.935861,-3.226115 1.410212,-1.072248 1.705075,-1.221512 3.127382,-1.586515 0.771513,-0.197998 1.16931,-0.297115 1.507116,-0.296383 z" /><path
     style="fill:#ffffff;stroke:none;stroke-width:0.858542"
     d="m 21.269092,75.890375 c -3.715444,-1.46314 -7.414514,-3.322699 -8.004615,-4.023991 -0.575916,-0.684438 -0.468618,-1.312557 0.624943,-3.658418 l 0.890885,-1.911091 -0.171484,-2.226232 c -0.431436,-5.600972 0.0548,-11.856285 1.322131,-17.008759 1.327003,-5.395091 3.995985,-10.461234 7.191916,-13.651383 3.469515,-3.463238 7.413682,-5.330368 11.735141,-5.555308 3.872831,-0.201586 6.988946,1.067014 9.941712,4.047365 1.214516,1.225865 1.513252,1.639266 2.202912,3.048488 1.538758,3.144232 2.063508,6.715583 1.528526,10.402899 -1.084328,7.473644 -5.161662,14.730642 -11.319383,20.146681 -2.411948,2.121434 -3.405609,2.877472 -6.08322,4.628492 -3.324508,2.174059 -3.870679,2.61568 -4.969227,4.018017 -1.499023,1.913554 -1.789955,2.147169 -2.751879,2.209727 -0.646189,0.04203 -1.096537,-0.05622 -2.138358,-0.466487 z m 7.300373,-8.733181 c 2.822618,-1.352706 6.93723,-4.840805 9.96806,-8.450272 1.961945,-2.336511 4.243617,-6.410102 5.149264,-9.193253 0.855025,-2.627588 1.101801,-4.202888 1.089454,-6.954533 -0.01044,-2.325159 -0.05058,-2.690726 -0.434403,-3.955902 -0.592408,-1.952719 -1.077138,-2.778926 -2.419056,-4.123214 -1.342672,-1.345045 -2.532203,-2.033826 -4.287915,-2.482861 -3.448471,-0.881972 -6.925762,0.0653 -10.155091,2.766429 -2.78114,2.326243 -4.390944,4.525746 -6.069408,8.292747 -1.916778,4.301847 -2.71846,7.885882 -3.085478,13.794061 -0.159658,2.570132 -0.0062,5.612388 0.31457,6.236738 0.669562,1.303195 3.81055,3.240038 6.899477,4.254456 1.451359,0.476634 1.680246,0.462704 3.030526,-0.184396 z"
     id="path71" /><path
     style="fill:#ffffff;stroke:none;stroke-width:0.858542"
     d="m 100.88399,54.817938 c -0.78988,-0.193761 -3.832348,-1.405786 -5.673452,-2.260137 -1.93318,-0.89708 -2.888686,-1.513663 -3.114824,-2.009983 -0.35244,-0.773525 -0.299402,-1.005552 1.071966,-4.689495 0.278839,-0.749052 0.302507,-1.216465 0.290893,-5.744885 -0.01319,-5.144268 0.146809,-7.402457 0.798377,-11.267797 1.068457,-6.338509 3.324157,-11.510434 6.85517,-15.717687 2.66313,-3.173165 6.23181,-5.6336349 9.35796,-6.4519634 1.77743,-0.4652776 4.77611,-0.5719848 6.38534,-0.2272214 2.57217,0.5510636 5.8709,2.5647102 7.40641,4.5211158 1.94261,2.475067 3.36526,6.677995 3.36526,9.941871 0,2.90237 -0.75539,6.489066 -2.05167,9.741513 -1.69284,4.247441 -4.9198,8.864984 -8.43809,12.074296 -2.64026,2.408399 -5.68571,4.663966 -8.9989,6.66492 -2.42895,1.466931 -2.39913,1.441 -3.77937,3.285091 -0.6526,0.871917 -1.36122,1.711025 -1.57471,1.86469 -0.49778,0.358282 -1.16751,0.455435 -1.90036,0.275672 z m 6.67095,-9.408959 c 2.84455,-1.606584 6.9713,-5.016712 9.21253,-7.612759 3.18805,-3.69275 5.30727,-7.663692 6.45674,-12.098455 0.39469,-1.522738 0.43908,-1.950774 0.4412,-4.254961 0.002,-2.217792 -0.0457,-2.727813 -0.35523,-3.797048 -0.73738,-2.546862 -2.23897,-4.6417 -4.28069,-5.971938 -1.47019,-0.957861 -2.54786,-1.296454 -4.3672,-1.372129 -4.75251,-0.197678 -8.9449,2.405518 -12.31629,7.647604 -2.879079,4.476601 -4.488996,10.250865 -5.007874,17.961644 -0.165315,2.456646 -0.04799,5.130588 0.260382,5.934182 0.111555,0.290708 2.992722,2.217697 4.793692,3.206125 2.42247,1.329526 3.3307,1.392462 5.16274,0.357735 z"
     id="path72" /></svg>
