<?xml version="1.0" encoding="UTF-8" standalone="no"?>
<!-- Created with Inkscape (http://www.inkscape.org/) -->

<svg
   version="1.1"
   id="svg1"
   width="505.31604"
   height="466.08347"
   viewBox="0 0 505.31604 466.08347"
   xml:space="preserve"
   xmlns="http://www.w3.org/2000/svg"
   xmlns:svg="http://www.w3.org/2000/svg"><defs
     id="defs1" /><g
     id="g1"
     transform="translate(-4.8331208,-30.78228)"><path
       style="fill:#000000;stroke-width:1.09988"
       d="m 334.42717,433.40932 c -5.95512,4.87974 -15.81422,7.23504 -23.19064,5.54015 -7.5597,-1.73699 -7.12221,-1.43191 -34.97575,-24.38905 l -25.66829,-21.15608 -8.10553,9.70726 -8.10553,9.70727 1.67657,3.99112 c 4.09836,9.75621 1.04321,21.23694 -7.843,29.47291 -3.88609,3.60176 -6.01386,4.92521 -10.1721,6.32707 -3.99602,1.34712 -8.60857,1.40239 -13.70351,0.16424 -3.88816,-0.94491 -4.07399,-0.91775 -6.09216,0.88932 -6.64234,5.94748 -14.61641,9.45155 -24.66022,10.83654 -10.8091,1.4905 -12.45764,2.36251 -19.95635,10.55605 -4.84766,5.2968 -6.67819,6.96203 -8.80714,8.01166 -3.16302,1.55943 -6.5443,1.45706 -9.30185,-0.28166 l -1.98025,-1.24855 -6.63312,7.64852 -6.63314,7.64855 -2.17602,0.0305 c -2.50512,0.0351 -6.08244,-1.40516 -12.89803,-5.19288 -7.001968,-3.89129 -29.217976,-22.47056 -34.812337,-29.11361 -7.601561,-9.02649 -7.535656,-10.38277 1.025261,-21.09634 l 5.979386,-7.48292 -1.541252,-2.60871 c -2.977947,-5.04049 -5.269341,-5.61803 -10.269985,-2.58849 -8.116251,4.91705 -14.084552,3.2859 -20.161547,-5.51026 -6.156972,-8.91188 -9.927006,-21.69911 -11.964903,-40.58257 -1.35102,-12.51868 -2.055225,-14.43341 -6.059391,-16.47539 -2.724695,-1.38949 -4.738024,-1.27775 -8.334271,0.46248 -4.934314,2.38775 -8.00619,2.25255 -11.2982639,-0.4973 -3.2821247,-2.74154 -3.7078107,-6.17385 -1.7746775,-14.3094 2.4172384,-10.17296 6.9641754,-18.76855 14.9734714,-28.30603 13.417823,-15.978 29.115809,-24.19336 49.494516,-25.90234 13.312091,-1.11644 18.7701,0.39432 22.355877,6.18787 3.154271,5.09632 3.680078,10.65645 1.279557,13.53031 -0.539831,0.64712 -2.449377,1.78062 -4.242505,2.51969 -4.501816,1.85544 -8.19623,6.22393 -9.528726,11.26696 -1.154526,4.37004 -0.863376,11.64535 0.68252,17.05491 3.183781,11.14105 11.845054,25.97392 22.373,38.31493 l 1.47298,1.72664 7.47584,-8.94991 7.47586,-8.94992 -3.31771,-2.77556 c -6.21726,-5.20182 -7.92371,-9.32089 -6.34479,-15.3184 l 0.94067,-3.57309 33.05405,-39.82926 33.05406,-39.82929 -1.25539,-1.04826 c -1.93109,-1.61299 -2.82359,-5.84124 -1.99273,-9.44043 0.93453,-4.04833 3.76094,-8.64755 9.69327,-15.77311 l 4.66011,-5.59741 -18.31883,-15.52908 -18.31883,-15.52912 -1.54338,-3.47063 c -1.89167,-4.25391 -2.11806,-9.62744 -0.57795,-13.71663 0.95766,-2.54272 2.40764,-4.56129 8.61009,-11.9868 7.19139,-8.60952 7.56785,-8.97684 10.51316,-10.2595 1.93509,-0.8427 4.20375,-1.22708 6.18994,-1.04872 l 3.13528,0.28153 30.74417,25.46991 30.74415,25.46992 20.9776,-25.11408 20.9776,-25.1141 -1.8862,-3.25446 c -1.42739,-2.46282 -1.93335,-4.31166 -2.08006,-7.60074 -0.55687,-12.48573 10.80556,-20.86741 23.08496,-17.02897 l 3.30878,1.03429 21.47025,-25.70388 21.47025,-25.703892 -1.79113,-2.797257 c -5.37184,-8.389278 -1.80086,-19.977952 7.42512,-24.096818 4.13749,-1.84716 9.50363,-2.099058 13.50818,-0.634106 l 2.95036,1.079266 11.87968,-14.222153 c 6.5819,-7.879811 12.65952,-14.75071 13.62844,-15.407336 2.02734,-1.373932 4.85049,-1.843009 7.6943,-1.278465 1.65278,0.328087 3.89927,1.935013 12.92485,9.245245 7.45934,6.041648 11.42016,9.554655 12.48745,11.075695 1.96305,2.797496 2.46421,7.641362 1.10199,10.650525 -0.63572,1.404264 -5.27188,7.341046 -12.39212,15.868553 l -11.37647,13.624839 6.15827,5.143887 6.15829,5.143927 12.50198,-14.686758 12.50201,-14.686748 2.75536,-0.822355 c 5.09815,-1.521539 6.09069,-1.000252 19.63524,10.313408 13.32772,11.132489 13.6074,11.482704 13.37543,16.745746 l -0.12134,2.752747 -12.56626,15.32292 -12.5663,15.3229 1.36205,2.43444 c 3.43292,6.13594 2.61231,13.57881 -2.12429,19.26647 -4.493,5.39441 -10.83292,7.31821 -17.89456,5.42877 l -3.33579,-0.89256 -21.74564,26.03361 -21.74565,26.0336 1.50914,3.15984 c 3.1395,6.57341 2.36658,13.03399 -2.21566,18.51977 -4.59767,5.50427 -10.42788,7.30494 -17.61237,5.43968 l -3.56135,-0.9246 -22.6494,27.11903 -22.64942,27.11901 1.32479,2.51525 c 1.6152,3.06664 2.15069,7.5305 1.34667,11.22655 -0.51493,2.36717 -1.3473,3.70759 -5.86263,9.44103 l -5.26247,6.68218 32.85667,27.44491 32.85668,27.44493 0.43285,2.04683 c 0.86833,4.10637 0.89105,4.07367 -20.87724,30.02138 -11.02663,13.1437 -21.10331,24.76201 -22.39268,25.81852 z m -11.32299,-84.46875 -37.77734,-31.5551 -16.75999,20.06481 c -19.67959,23.56014 -19.72398,23.63146 -19.01466,30.55909 0.2976,2.90694 0.94986,5.03822 2.01265,6.57707 1.19226,1.72623 8.46234,7.9757 30.07652,25.85428 26.30454,21.75832 28.69874,23.63213 31.02546,24.28211 4.18313,1.16855 8.44213,0.47245 12.21318,-1.99613 0.71931,-0.47089 9.11393,-10.16547 18.65471,-21.54355 l 17.34681,-20.68752 z m -99.86291,79.50283 c 0.33448,-1.29461 0.34427,-3.51652 0.0218,-4.93759 l -0.58638,-2.58373 -16.95908,-14.16582 -16.95912,-14.16579 -7.32086,9.04199 c -5.03019,6.21278 -7.24304,9.28636 -7.0722,9.823 0.13665,0.42957 7.23846,6.6249 15.78158,13.76742 14.78246,12.35914 15.6658,13.01961 18.28393,13.67438 2.72803,0.68223 5.93991,0.0415 8.78468,-1.75237 2.10321,-1.32628 5.32064,-5.97248 6.02568,-8.70149 z M 375.89342,219.87016 c 0.0277,-0.74112 -8.52412,-8.09187 -40.05407,-34.42855 -36.66091,-30.62256 -40.21505,-33.48122 -41.55967,-33.42786 -1.91586,0.0762 -2.91884,1.33526 -2.73094,3.42882 0.14849,1.65499 0.7614,2.19076 39.90127,34.88402 31.11018,25.98605 40.01126,33.2098 40.95027,33.23365 2.09817,0.0532 3.40484,-1.32704 3.49314,-3.69008 z m 64.98086,-77.12323 0.13724,-1.6131 -40.11937,-33.51136 C 364.20322,76.976533 360.64701,74.116088 359.30238,74.169432 c -1.89626,0.07515 -2.53574,0.884289 -2.34846,2.970946 0.14849,1.655026 0.7614,2.19074 39.98879,34.957082 39.22743,32.76637 39.86368,33.27403 41.51877,33.12549 2.02323,-0.18184 2.23617,-0.40005 2.4128,-2.47602 z M 238.58202,381.02587 c -3.20779,-5.37149 -4.38193,-14.29238 -2.78519,-21.16092 1.76301,-7.58376 1.96931,-7.877 24.63849,-35.01622 l 20.74382,-24.83422 2.17722,-0.36257 2.17721,-0.36257 7.27523,5.82757 7.27529,5.82753 4.33837,-5.4555 4.33841,-5.4555 -45.34986,-38.07848 -45.34985,-38.07846 -15.10043,18.07804 -15.10043,18.07804 24.58853,20.75254 c 24.13519,20.36985 24.59745,20.79029 25.08089,22.79001 0.27069,1.12065 0.38689,3.106 0.25812,4.41193 l -0.2342,2.3744 -20.3254,24.3333 c -20.31803,24.32446 -20.32642,24.33375 -23.06075,25.51396 -1.8023,0.77798 -3.65206,1.00831 -5.42283,0.67537 -2.52548,-0.47484 -3.22877,-0.95663 -11.66546,-7.99171 -8.49559,-7.08488 -9.03758,-7.63263 -10.09115,-10.20643 -0.76087,-1.85912 -0.9198,-3.62984 -0.50213,-5.59473 l 0.61111,-2.87474 18.10795,-21.67858 18.10793,-21.67859 -7.55548,-6.31104 -7.55547,-6.31103 -32.12885,38.46423 -32.12886,38.46424 5.14304,4.31305 c 5.95358,4.99275 7.59147,7.60384 7.28475,11.61334 l -0.1882,2.45992 -22.34259,27.0094 -22.342587,27.00942 24.255117,20.26008 24.25509,20.26007 2.78058,-3.31352 c 6.99562,-8.33445 17.53858,-13.55409 28.48666,-14.10334 4.97161,-0.24944 13.82047,-4.06734 16.37361,-7.06451 l 0.84324,-0.99069 -12.81368,-10.9516 c -12.25253,-10.47202 -12.87533,-11.08145 -14.22298,-13.91774 -1.92264,-4.0465 -2.19457,-7.72692 -0.85303,-11.54535 1.00057,-2.84791 2.06729,-4.33405 9.48382,-13.21303 9.41633,-11.27305 11.55236,-13.04704 16.76872,-13.92611 1.64507,-0.27728 4.4935,-0.0859 6.32981,0.42534 3.23729,0.9012 3.74961,1.2651 16.85414,11.9717 l 13.51531,11.04223 8.12074,-9.72199 8.12073,-9.72201 z m -7.91015,-105.40626 c -1.32422,0.39038 -3.7303,0.41183 -5.3468,0.0478 -2.73744,-0.61657 -3.38639,-1.05199 -9.46151,-6.34834 -5.59313,-4.87617 -6.63758,-6.00796 -7.33044,-7.94353 -1.38819,-3.87827 -0.58946,-6.30736 3.80321,-11.56624 4.3229,-5.1753 6.21451,-6.28038 10.22544,-5.97364 2.21961,0.16973 2.90495,0.59904 9.8357,6.16105 7.14327,5.73253 7.47754,6.07573 8.12213,8.33912 1.29614,4.55118 0.85661,6.00091 -3.50445,11.55866 -3.61862,4.61159 -4.12936,5.07264 -6.34328,5.72517 z m 116.79549,-54.0338 -6.86861,-5.73731 -22.56671,27.01658 -22.56669,27.01653 6.86861,5.73731 6.86859,5.73731 22.5667,-27.01651 22.56671,-27.0166 z m 65.40517,-78.30221 -6.86861,-5.7373 -21.61047,25.87177 -21.61049,25.8718 6.86861,5.7373 6.8686,5.73731 21.61049,-25.87179 21.61048,-25.87179 z m 42.45598,-50.827722 -6.86859,-5.737309 -10.13594,12.134524 -10.13585,12.134567 6.8686,5.73732 6.86861,5.7373 10.13592,-12.13448 10.13586,-12.134617 z M 105.64429,458.044 88.701705,443.892 84.91831,448.42144 c -3.612428,4.3248 -3.746363,4.58035 -2.963303,5.65656 2.041591,2.80601 13.260773,13.23453 18.044721,16.77305 5.840992,4.3204 14.038172,9.79439 14.846272,9.91422 0.28533,0.0421 2.14375,-1.86847 4.12984,-4.24618 l 3.6111,-4.32306 z m 217.81289,-256.34191 -6.17401,-4.94017 -22.58923,26.80338 -22.58922,26.80337 6.18537,5.16668 6.18544,5.16656 22.57781,-27.02982 22.57779,-27.02986 z m 65.37522,-78.499 -6.18175,-5.16359 -21.6105,25.87179 -21.61046,25.87179 6.18172,5.16358 6.18173,5.16359 21.61049,-25.87178 21.61045,-25.87177 z m -170.63747,180.08701 -3.89219,-3.25118 -16.25567,19.4611 -16.25566,19.46105 3.58692,2.99617 c 1.97287,1.64785 3.83905,2.97352 4.14721,2.94587 0.30813,-0.0276 7.76058,-8.67041 16.56095,-19.2061 l 16.00069,-19.15581 z m 81.11441,-121.75617 -6.77097,-5.87033 -22.57667,27.02847 -22.57665,27.02849 6.79231,5.67353 c 3.73578,3.12042 6.94986,5.65941 7.14245,5.64213 0.19256,-0.0174 10.34247,-12.09157 22.55531,-26.83175 l 22.20517,-26.80023 z m 65.48323,-78.4111 -6.8686,-5.737307 -21.61047,25.871787 -21.61049,25.87178 6.8686,5.73729 6.86861,5.73732 21.61047,-25.87176 21.61048,-25.87179 z m 42.45599,-50.827753 -6.8686,-5.737309 -10.13586,12.134595 -10.13591,12.134513 6.86859,5.737314 6.86862,5.737301 10.13585,-12.134583 10.13584,-12.134588 z M 93.349548,397.61008 C 82.238561,385.40906 70.813315,365.79807 66.907763,352.22377 c -4.071107,-14.14969 -2.177435,-26.8328 5.39138,-36.10953 1.917486,-2.35009 3.350227,-4.38924 3.183973,-4.53136 -0.763738,-0.65282 -12.779132,1.49313 -17.556115,3.13556 -5.867448,2.01738 -14.21376,6.81604 -18.795126,10.80616 -6.136118,5.34423 -13.193948,14.8092 -16.370437,21.95371 l -1.343281,3.02125 2.596342,0.11507 c 1.42799,0.0633 4.240846,0.54836 6.25078,1.07793 3.202872,0.84391 4.220276,1.43553 8.233454,4.78786 6.631963,5.53982 7.453576,7.67201 9.132092,23.69866 0.727012,6.94172 1.958481,15.25821 2.736579,18.48113 1.451814,6.01347 4.497364,13.48781 6.520448,16.00237 1.074438,1.33545 1.291935,1.33187 3.784355,-0.0626 5.534514,-3.09647 12.306008,-2.82913 20.529728,0.81048 0.53274,0.23578 2.37399,-1.67877 7.391547,-7.68572 l 6.682085,-7.99968 z m 98.690652,-201.68029 -18.08734,-15.10823 -4.94102,5.9154 c -2.71755,3.25343 -5.09164,6.3558 -5.27573,6.89418 -0.876,2.56171 0.32103,3.80134 17.64451,18.27141 l 16.50742,13.78851 6.11978,-7.32651 6.11978,-7.3265 z"
       id="path12" /><path
       id="rect13"
       style="fill:#ffffff;stroke:#000000;stroke-width:7.13711"
       transform="rotate(-49.790876)"
       d="m 161.80778,366.49176 h 42.96069 c 2.49707,0 4.50735,5.23289 4.50735,11.73293 v 45.25561 c 0,6.50005 -2.01028,11.73293 -4.50735,11.73293 h -42.96069 c -2.49707,0 -4.50735,-5.23288 -4.50735,-11.73293 v -45.25561 c 0,-6.50004 2.01028,-11.73293 4.50735,-11.73293 z" /><path
       style="fill:#ffffff;stroke:#000000;stroke-width:10.9394"
       d="m 400.89327,72.672145 11.65386,37.455825 65.2968,16.49175 22.42798,-26.947977 -67.0964,-15.612679 -9.82125,-39.207153 z"
       id="path13-9" /><path
       style="fill:#ffffff;stroke:#000000;stroke-width:10.9394"
       d="m 361.52654,121.71576 11.65387,37.45582 65.29676,16.49177 22.42801,-26.94799 -67.0964,-15.61268 -9.82123,-39.207132 z"
       id="path13-9-2" /><path
       style="fill:#ffffff;stroke:#000000;stroke-width:7.59131"
       d="m 76.853811,336.95344 c 0,0 -1.815298,0.8154 7.392647,8.23772 9.207939,7.42228 -3.902492,12.60845 -3.902492,12.60845 z"
       id="path14" /><path
       style="fill:#ffffff;stroke:none;stroke-width:3.05297"
       d="m 81.827419,414.94706 c -0.276427,0.19275 -1.445021,-0.0571 -2.961233,-0.6331 -4.375821,-1.66247 -7.252403,-2.12061 -11.275112,-1.79572 -3.170731,0.25645 -4.13623,0.50405 -6.538327,1.67928 -2.672348,1.30745 -2.858177,1.34469 -3.5895,0.71902 -1.008745,-0.86296 -3.202601,-5.12202 -4.535583,-8.805 -2.388983,-6.60069 -3.198447,-10.54299 -4.67222,-22.75503 -1.885456,-15.62329 -2.279828,-17.63527 -4.115895,-20.99852 -0.804934,-1.47444 -1.605448,-2.34468 -4.766116,-5.18126 -2.374915,-2.13136 -4.413627,-3.7428 -5.43942,-4.29928 -1.939643,-1.05232 -6.263766,-2.11834 -9.757169,-2.40543 l -2.497405,-0.20524 1.182998,-2.53628 c 2.712718,-5.81592 4.51842,-8.53759 9.999315,-15.07169 4.674376,-5.5725 5.43319,-6.36249 7.932825,-8.25749 6.917343,-5.24425 15.06666,-9.18524 22.441512,-10.85265 6.371111,-1.44046 11.892577,-2.15579 11.753375,-1.52268 -0.05905,0.26854 -1.286423,2.02732 -2.727516,3.90836 -3.323175,4.33774 -5.237,8.19954 -6.457041,13.02933 -2.396069,9.48534 -0.931726,20.40073 4.374044,32.60462 5.024581,11.55714 13.166915,24.64365 20.959895,33.68719 1.579041,1.83243 3.081132,3.59795 3.337976,3.92337 l 0.466993,0.59169 -6.329886,7.42906 c -3.481414,4.08598 -6.535395,7.5723 -6.786493,7.74747 z"
       id="path15" /><path
       style="fill:#ffffff;stroke:none;stroke-width:3.05297"
       d="m 114.61633,480.35955 c -0.34637,-0.0798 -1.81137,-0.92095 -3.25557,-1.86941 -1.4442,-0.94846 -3.62486,-2.37327 -4.84589,-3.16623 -3.77132,-2.44911 -13.940115,-10.79433 -18.290528,-15.01047 -5.162902,-5.00354 -6.372797,-6.41115 -6.307418,-7.33816 0.03805,-0.53956 0.97246,-1.82448 3.508173,-4.82412 l 3.456307,-4.08866 16.671686,14.09324 16.6717,14.0932 -3.48936,4.12776 c -3.10916,3.67799 -3.55798,4.11197 -4.1191,3.98285 z"
       id="path16" /><path
       style="fill:#ffffff;stroke:none;stroke-width:3.05297"
       d="m 221.43967,400.52567 c -7.17692,-6.0207 -23.56717,-19.02438 -25.02478,-19.85424 -3.5415,-2.01624 -8.95858,-2.42056 -12.62817,-0.94254 -3.50847,1.41315 -4.4097,2.28319 -13.48427,13.01801 -7.24809,8.5742 -8.37746,10.02076 -9.17759,11.75493 -1.96699,4.26327 -1.96416,8.43798 0.008,12.78953 1.50881,3.32796 3.08708,4.88315 16.37169,16.13218 l 10.70994,9.06887 -0.91656,1.08424 c -1.68061,1.98807 -6.97493,4.73821 -11.63129,6.04186 -1.20894,0.33845 -4.08061,0.8322 -6.3815,1.09714 -10.89385,1.25459 -19.66693,5.90759 -26.59811,14.1069 l -2.58971,3.06352 -24.11818,-20.07249 c -13.26496,-11.03988 -24.123175,-20.1415 -24.129329,-20.22581 -0.0062,-0.0843 10.008169,-12.28113 22.254059,-27.10398 l 22.26524,-26.95067 0.16525,-1.66124 c 0.0909,-0.9137 0.0388,-2.35796 -0.11591,-3.20948 -0.51537,-2.83774 -1.32436,-3.85981 -7.05483,-8.91235 l -5.20357,-4.58799 25.62769,-30.62857 c 14.09524,-16.84572 28.5169,-34.13433 32.04811,-38.41914 l 6.42042,-7.79056 7.32979,6.19615 7.32979,6.19616 -0.95454,1.44982 c -0.52499,0.7974 -8.61729,10.51655 -17.9829,21.59809 l -17.02804,20.14856 -0.47878,2.21901 c -0.61186,2.83571 -0.43091,4.90925 0.63002,7.21954 l 0.84534,1.84072 8.89994,7.52345 8.89992,7.52345 1.9278,0.51932 c 2.44568,0.65886 4.59633,0.47859 6.89822,-0.57809 l 1.81447,-0.83297 20.66299,-24.44345 20.66299,-24.44347 0.19207,-1.34214 c 0.10564,-0.73815 0.0901,-2.44777 -0.0346,-3.79914 -0.20082,-2.17567 -0.37384,-2.62933 -1.51148,-3.96179 -0.76825,-0.89977 -10.71753,-9.47964 -24.7461,-21.34002 l -23.46111,-19.83548 8.45168,-10.33496 c 4.64843,-5.68422 11.37728,-13.79578 14.95299,-18.02567 l 6.50127,-7.69075 45.18028,37.88419 c 24.84914,20.83632 45.18129,37.94469 45.18254,38.01861 4.8e-4,0.074 -1.88069,2.52488 -4.18209,5.44661 l -4.1844,5.31219 -7.24233,-5.84366 -7.24234,-5.84372 -2.08919,0.28212 -2.08921,0.28213 -19.36367,23.17762 c -18.49688,22.14016 -22.73293,27.47673 -24.34962,30.67563 -1.09239,2.16152 -2.57208,8.12876 -2.72455,10.98753 -0.30794,5.77321 1.10413,12.48056 3.50794,16.66296 l 1.07838,1.87628 -8.01116,9.6101 -8.01116,9.61012 z m 18.96884,-135.24482 c 1.00765,-1.91799 1.14787,-3.78499 0.47093,-6.27061 -0.74936,-2.75148 -1.74605,-3.79811 -9.45624,-9.92975 -6.58709,-5.23847 -7.49494,-5.70121 -10.6646,-5.43555 -3.05562,0.25606 -3.64256,0.68954 -8.16758,6.03122 -4.00735,4.73028 -4.03471,4.77163 -4.5474,6.81935 -0.65733,2.62538 0.0232,5.29727 1.91301,7.51064 0.7042,0.82481 3.81915,3.64498 6.92203,6.26705 5.48905,4.63867 5.69229,4.78123 7.5162,5.2783 3.3436,0.91137 6.18368,0.67061 8.4328,-0.71489 0.98709,-0.60805 6.59122,-7.67208 7.58084,-9.55585 z"
       id="path17" /><path
       style="fill:#ffffff;stroke:none;stroke-width:3.05297"
       d="m 215.47094,437.80722 c -2.5259,1.11182 -5.0562,1.33511 -7.5219,0.66378 -1.9052,-0.51869 -1.99954,-0.58599 -10.85984,-7.74746 -4.91587,-3.97333 -12.00384,-9.93594 -15.75106,-13.25026 -5.92639,-5.24171 -6.78937,-6.09544 -6.63054,-6.55945 0.27629,-0.80715 6.69239,-9.14314 10.6934,-13.89316 l 3.54224,-4.20565 16.92401,14.30653 16.92404,14.30654 0.28292,3.14066 c 0.35931,3.98812 -0.10971,5.3327 -3.27093,9.37832 -2.24906,2.87826 -2.39265,3.0062 -4.33247,3.86003 z"
       id="path18" /><path
       style="fill:#ffffff;stroke:none;stroke-width:3.05297"
       d="m 188.93353,344.39235 c -0.38055,-0.1791 -2.05673,-1.4768 -3.72485,-2.8837 l -3.03295,-2.55809 11.11908,-13.49029 c 6.1155,-7.41967 13.33625,-16.11338 16.04614,-19.31933 l 4.92706,-5.82905 3.76053,3.17894 3.76054,3.17889 -16.08181,19.02412 -16.08183,19.02413 z"
       id="path19" /><path
       style="fill:#ffffff;stroke:none;stroke-width:3.05297"
       d="m 328.44869,418.54089 c -3.76959,4.15368 -4.07232,4.42165 -5.89896,5.22139 -2.76595,1.21097 -6.32627,1.57523 -8.96558,0.91726 -2.01083,-0.50129 -2.5733,-0.81867 -6.30703,-3.55906 -2.40946,-1.76841 -14.70547,-11.94782 -29.8282,-24.69357 l -25.72883,-21.68491 -0.71192,-1.52787 c -0.80371,-1.72487 -1.63057,-8.33737 -1.2507,-10.00226 0.80458,-3.52637 4.24176,-8.10773 22.22859,-29.62833 l 13.39047,-16.02117 37.48575,31.37074 c 20.61716,17.25391 37.49259,31.45259 37.501,31.5526 0.0274,0.33252 -27.87411,33.60298 -31.91457,38.05516 z"
       id="path20" /><path
       style="fill:#ffffff;stroke:none;stroke-width:3.05297"
       d="m 185.18814,214.83372 c -12.4754,-10.27286 -20.05567,-17.01287 -20.92041,-18.60149 -0.23153,-0.42531 -0.43493,-1.21438 -0.45204,-1.75351 -0.0289,-0.91229 0.31881,-1.40647 5.01643,-7.12934 l 5.04751,-6.14911 9.60823,7.83675 c 5.28453,4.31021 13.3512,11.00084 17.92595,14.86804 l 8.31769,7.03126 -4.12708,5.21577 c -2.26987,2.86868 -4.89819,6.12859 -5.8407,7.24427 l -1.71363,2.0285 z"
       id="path21" /><path
       style="fill:#ffffff;stroke:none;stroke-width:3.05297"
       d="m 261.7035,240.31339 c -0.70404,0.47419 -1.76963,-0.26452 -8.09585,-5.61232 l -5.83129,-4.92939 6.46307,-7.96946 c 3.55471,-4.38316 13.61378,-16.48061 22.35351,-26.88318 l 15.89045,-18.91376 6.67666,5.64416 6.67666,5.64418 -9.01604,10.96954 c -13.98634,17.01677 -34.60345,41.70423 -35.11716,42.05024 z"
       id="path22" /><path
       style="fill:#ffffff;stroke:none;stroke-width:3.05297"
       d="m 302.51085,275.61098 -6.67349,-5.64134 0.56176,-0.92216 c 0.30893,-0.5072 10.35397,-12.59082 22.32223,-26.85253 l 21.7605,-25.93037 2.0101,1.42732 c 1.10555,0.78501 4.19297,3.27258 6.86096,5.52792 l 4.85084,4.10062 -6.30466,7.45853 c -3.46757,4.1022 -13.59692,16.23689 -22.50972,26.96596 l -16.20503,19.50742 z"
       id="path23" /><path
       style="fill:#ffffff;stroke:none;stroke-width:3.05297"
       d="m 369.81329,194.95135 -6.60412,-5.58274 3.4917,-4.46327 c 1.92045,-2.45479 6.02094,-7.45594 9.11221,-11.11365 l 5.62045,-6.65034 3.47743,0.84423 c 1.91258,0.46431 6.21555,1.55236 9.56212,2.41787 l 6.08468,1.57367 -12.07015,14.27849 -12.07016,14.27849 z"
       id="path24" /><path
       style="fill:#ffffff;stroke:none;stroke-width:3.05297"
       d="m 373.03636,223.20089 c -0.9347,0.0784 -1.41398,-0.17713 -4.07463,-2.17172 -4.53783,-3.40185 -67.28006,-55.62645 -72.0261,-59.9522 -4.72108,-4.30296 -5.42939,-5.23324 -5.09602,-6.69292 0.33246,-1.45571 0.86482,-1.96458 2.12439,-2.03065 1.00031,-0.0525 1.45958,0.2176 5.38371,3.16564 2.35956,1.77266 20.4799,16.86994 40.26742,33.5495 l 35.97732,30.32647 -0.0205,0.99745 c -0.0285,1.38563 -1.21295,2.69756 -2.5356,2.80842 z"
       id="path25" /><path
       style="fill:#ffffff;stroke:none;stroke-width:3.05297"
       d="m 321.71853,154.72485 -6.6029,-5.58168 7.94054,-9.72943 c 4.3673,-5.35119 14.02008,-16.9216 21.45062,-25.71201 l 13.51006,-15.982537 4.59945,3.888087 4.59947,3.8881 -2.41253,3.18631 c -1.32691,1.75248 -4.04096,5.1161 -6.03128,7.47474 l -3.61914,4.2881 0.94651,2.94073 0.94649,2.94073 -14.3624,16.9901 -14.36236,16.9901 z"
       id="path26" /><path
       style="fill:#ffffff;stroke:none;stroke-width:3.05297"
       d="m 366.97938,86.735499 c -9.89535,-8.555866 -10.10831,-8.792563 -9.76489,-10.853284 0.16096,-0.965996 0.23531,-1.04093 1.27032,-1.280741 0.62209,-0.144135 1.54112,-0.0248 2.1169,0.274916 0.55965,0.291256 5.11382,3.864338 10.12038,7.940157 l 9.10284,7.410527 -1.85954,2.199749 -1.85952,2.199748 z"
       id="path27" /><path
       style="fill:#ffffff;stroke:none;stroke-width:3.05297"
       d="m 387.21141,76.404188 -6.76897,-5.722039 7.68156,-9.088696 c 4.2247,-4.998868 8.68102,-10.419878 9.90294,-12.046672 l 2.22167,-2.957775 4.26111,3.602069 4.2611,3.602059 -3.04812,3.939471 c -1.67648,2.16667 -4.58145,5.755791 -6.45551,7.975806 -4.96627,5.883405 -4.79713,5.445341 -3.59829,9.306167 1.08579,3.496773 1.02926,3.897274 -0.86702,6.140458 l -0.82121,0.971484 z"
       id="path28" /><path
       style="fill:#ffffff;stroke:none;stroke-width:3.05297"
       d="m 468.50165,118.42562 c -3.93589,-1.00741 -17.0402,-4.32632 -29.12071,-7.37539 -12.08049,-3.04908 -22.07801,-5.63834 -22.21672,-5.75394 -0.1386,-0.11573 -2.44226,-7.251387 -5.11902,-15.85732 l -4.86684,-15.647138 6.60484,-8.159353 c 3.63266,-4.487686 6.665,-8.16443 6.73854,-8.170604 0.0734,-0.0064 1.87848,6.959913 4.01101,15.480184 2.13255,8.520262 3.99648,15.595522 4.14209,15.722844 0.14556,0.127367 11.65293,2.875584 25.57182,6.107248 13.91888,3.231652 27.67751,6.446749 30.57471,7.144659 l 5.26765,1.26895 -7.21562,8.53575 -7.21559,8.53574 z"
       id="path29" /><path
       style="fill:#ffffff;stroke:none;stroke-width:3.05297"
       d="m 434.70179,136.79825 c -6.664,-1.55575 -16.63763,-3.87996 -22.16357,-5.16494 l -10.04717,-2.33632 -2.39755,-2.02674 -2.39756,-2.02675 -2.13744,-8.51535 -2.13743,-8.51534 4.53388,-5.3634 c 2.49364,-2.949887 4.58681,-5.318687 4.65141,-5.264067 0.0647,0.0548 1.2668,3.786897 2.67146,8.293887 1.40465,4.50702 2.6541,8.37682 2.77657,8.59958 0.12243,0.22278 11.17445,3.1742 24.56001,6.55873 13.38555,3.3845 24.38709,6.19568 24.44785,6.24704 0.0608,0.0514 -2.21932,2.84936 -5.0668,6.21784 l -5.17726,6.12447 z"
       id="path30" /><path
       style="fill:#ffffff;stroke:none;stroke-width:3.05297"
       d="m 407.30591,161.9524 c -15.9686,-4.04209 -29.19742,-7.44035 -29.39742,-7.55167 -0.2,-0.11132 -2.54369,-7.23413 -5.20822,-15.82839 l -4.84459,-15.62599 6.50857,-8.13613 c 3.57971,-4.47485 6.61325,-8.14488 6.74121,-8.15561 0.12801,-0.0107 1.98636,6.99342 4.12974,15.5648 l 3.89706,15.58432 3.99478,0.94017 c 9.45371,2.22496 51.31907,11.98355 54.36431,12.67201 l 3.33817,0.75469 -7.24502,8.56544 -7.24502,8.56545 z"
       id="path31" /></g></svg>
