<?xml version="1.0" encoding="UTF-8" standalone="no"?>
<!-- Created with Inkscape (http://www.inkscape.org/) -->

<svg
   width="512"
   height="512"
   viewBox="0 0 135.46667 135.46667"
   version="1.1"
   id="svg1"
   xml:space="preserve"
   xmlns="http://www.w3.org/2000/svg"
   xmlns:svg="http://www.w3.org/2000/svg"><defs
     id="defs1" /><g
     id="g25"
     transform="matrix(0.87353188,0,0,0.87353188,11.121607,15.769588)"><path
       style="fill:#000000;stroke:none;stroke-width:0.571926"
       d="m 58.523883,135.08596 c -3.428658,-0.1623 -9.298327,-0.84818 -12.820947,-1.49814 -6.014735,-1.10978 -11.00418,-2.67835 -14.717451,-4.62685 -3.785856,-1.98659 -5.30214,-3.60748 -5.794202,-6.19391 -0.224849,-1.18186 -0.209281,-11.23605 0.02299,-14.86583 l 0.153059,-2.39166 -0.719928,-1.10281 c -1.147948,-1.75848 -1.5517,-3.39792 -1.457198,-5.916996 0.05484,-1.461767 0.44939,-3.481295 0.908616,-4.650776 L 24.320717,93.27391 23.28015,91.266513 c -1.665768,-3.213491 -2.26724,-5.507043 -2.371711,-9.04387 l -0.06031,-2.042848 -1.420641,-1.967187 c -1.668036,-2.30975 -2.410019,-3.50141 -3.36878,-5.410415 -1.953906,-3.890461 -2.912453,-7.824746 -2.734094,-11.221894 0.312542,-5.952897 2.37103,-12.937686 5.845963,-19.836311 l 1.448236,-2.87512 -0.20256,-1.286236 c -0.322587,-2.048388 -0.27974,-5.144698 0.09008,-6.510113 0.380531,-1.404932 1.407424,-3.597664 2.167846,-4.629014 1.06218,-1.440622 2.877852,-2.698433 4.871693,-3.374872 0.730144,-0.247713 0.79788,-0.31205 0.904564,-0.859122 0.06343,-0.325248 0.591808,-3.996105 1.174196,-8.157462 0.582383,-4.1613566 1.132164,-7.7475237 1.221728,-7.9692576 0.08957,-0.2217352 0.362537,-0.4858625 0.60658,-0.5869503 0.83234,-0.3447677 1.401137,0.035831 3.086383,2.0651628 1.50899,1.8170967 8.932774,10.9547411 9.242461,11.3761881 0.13774,0.187451 0.302612,0.127534 1.059261,-0.384971 2.165186,-1.466561 4.248461,-2.14204 6.686967,-2.168176 0.759047,-0.0081 1.443605,0.02447 1.521256,0.07246 0.07767,0.04799 1.371883,-2.073613 2.876089,-4.714671 C 62.174864,0.76898196 62.470615,0.32709856 63.407755,0.56230699 64.218943,0.7659 64.725826,1.570352 66.043861,4.7459289 c 2.192474,5.2823661 5.216982,12.4706911 5.363622,12.7476791 0.129376,0.244374 0.181088,0.236771 0.702336,-0.103257 0.70292,-0.458535 2.099681,-0.928754 3.372018,-1.135191 1.2516,-0.203071 4.300173,-0.20609 4.984743,-0.0049 0.494557,0.145317 0.555981,0.123369 0.952913,-0.340474 0.659489,-0.770653 8.895931,-11.2798197 9.639156,-12.2989266 1.040122,-1.4262165 1.6694,-2.0301444 2.223723,-2.1341351 0.586384,-0.1100103 1.197597,0.2201816 1.401796,0.7572776 0.07266,0.1911351 0.275742,2.0772078 0.451269,4.1912726 0.363881,4.3825305 1.293397,13.1573095 1.520767,14.3562055 0.08364,0.441294 0.152165,0.820926 0.152165,0.843627 0,0.02271 0.256961,-0.08288 0.571027,-0.234617 1.212786,-0.585952 2.467906,-0.820389 4.422604,-0.826066 2.25944,-0.0066 3.56133,0.272159 5.44762,1.166281 2.38451,1.130277 4.62797,3.849538 5.8459,7.085757 1.68196,4.469193 2.98473,11.081157 2.97948,15.12173 -0.004,2.907465 -0.92905,7.865156 -2.10155,11.260471 -0.36256,1.049888 -0.39517,1.311236 -0.31006,2.484687 0.26544,3.660111 0.26803,3.67395 1.16489,6.250101 1.43129,4.11126 2.48387,8.718073 2.65749,11.631054 0.14968,2.511379 -0.59817,5.561244 -1.84073,7.506723 -0.31322,0.490409 -1.22377,1.53871 -2.02345,2.329552 -2.4297,2.402851 -5.51888,4.580443 -11.09763,7.822857 -1.49175,0.867021 -2.23519,1.384572 -2.23519,1.556053 0,0.495373 -0.602785,2.607435 -0.99115,3.472824 -0.389785,0.86857 -0.390763,0.880618 -0.161519,1.993126 0.679415,3.29721 1.616519,12.46244 1.839589,17.99169 0.0937,2.32095 0.0779,2.55699 -0.22241,3.35114 -2.314778,6.12013 -13.751994,11.33831 -28.469974,12.98934 -4.19064,0.4701 -10.017654,0.68531 -13.759423,0.50818 z m 7.3786,-5.34508 c 9.96995,-0.51571 18.637138,-2.40236 24.440228,-5.32009 2.193524,-1.10288 4.963326,-3.14652 5.58091,-4.11774 0.285466,-0.44893 0.297732,-0.64535 0.209283,-3.35199 -0.09581,-2.93058 -0.604556,-10.96357 -0.770275,-12.16167 l -0.0914,-0.66119 -0.479822,0.45419 c -0.637689,0.60364 -3.499711,2.70697 -4.541265,3.33744 -1.308919,0.79229 -4.540501,2.20822 -6.605044,2.89399 -8.782042,2.91713 -19.146729,3.98748 -30.795745,3.18025 -2.801062,-0.1941 -4.205745,-0.36618 -8.095742,-0.99181 -6.306895,-1.01433 -9.224776,-1.78262 -12.990841,-3.42052 -0.944548,-0.41079 -1.758884,-0.70537 -1.809641,-0.65461 -0.05076,0.0508 -0.0951,2.97766 -0.09851,6.50423 l -0.0062,6.41193 0.360657,0.38457 c 1.07888,1.15044 4.001046,2.67238 7.315654,3.81021 5.904918,2.02705 13.501128,3.32696 21.463451,3.67299 1.295675,0.0563 2.675338,0.12257 3.065934,0.14726 0.390584,0.0247 2.122387,-0.0282 3.848439,-0.11741 z m 0.470622,-20.90641 c 5.182439,-0.27307 9.685606,-0.93101 13.392177,-1.95668 5.181449,-1.4338 9.323014,-3.50727 12.114602,-6.06517 0.91892,-0.841997 2.305527,-2.65076 2.150749,-2.805541 -0.03043,-0.03044 -1.137282,0.506928 -2.459684,1.194121 -4.947492,2.57101 -9.35412,4.536 -12.446566,5.55014 -4.265357,1.39879 -10.79115,1.13348 -16.309932,-0.66309 -2.028938,-0.6605 -4.956477,-2.07844 -6.232512,-3.0187 l -0.958355,-0.70616 -1.76545,0.45499 c -3.133074,0.80745 -6.079357,1.25748 -10.088146,1.54091 -6.689493,0.47295 -10.58857,-0.41803 -14.435201,-3.298605 l -1.118846,-0.837863 0.07504,1.041405 c 0.103531,1.436873 0.607576,2.378643 1.81509,3.391453 2.451926,2.05655 5.40851,3.34362 10.032183,4.36725 2.510585,0.55582 9.808216,1.52362 13.694645,1.81616 2.157801,0.16242 9.420639,0.15974 12.540207,-0.005 z m 10.422663,-8.845629 c 2.190827,-0.5847 5.201017,-1.857878 9.798349,-4.144254 4.228678,-2.103027 5.922013,-3.001113 11.349172,-6.019188 7.345141,-4.084676 9.953061,-5.743018 11.875481,-7.551478 3.58452,-3.372036 3.78092,-6.456887 0.99079,-15.56179 -0.98215,-3.20499 -1.39308,-5.437569 -1.59063,-8.641949 l -0.16897,-2.740389 0.53103,-1.647951 c 1.95463,-6.06586 2.35912,-9.96701 1.53588,-14.812974 -1.42067,-8.36254 -2.92689,-11.630605 -6.0783,-13.188109 -1.83099,-0.904913 -4.24663,-0.928353 -6.034899,-0.05856 -1.503144,0.73111 -1.486869,0.705788 -1.434238,2.231981 0.07875,2.284256 0.05154,2.555994 -0.324793,3.237392 -0.719661,1.303156 -2.743027,2.368997 -5.59382,2.946642 -1.917914,0.388619 -5.957332,0.239417 -7.704825,-0.28459 -3.810771,-1.142693 -6.526414,-3.187184 -7.890804,-5.940632 -0.614996,-1.241114 -0.658701,-1.41114 -0.655981,-2.551702 0.0036,-1.415818 0.334458,-2.204969 1.607701,-3.83229 l 0.739981,-0.945763 h -0.421726 c -0.655695,0 -2.606493,0.584584 -3.409794,1.021797 -0.687946,0.374431 -0.719136,0.418668 -0.605785,0.859225 0.239493,0.93072 0.127455,2.69303 -0.2123,3.33959 -0.828275,1.576196 -2.953061,3.234707 -5.515847,4.305417 -3.636162,1.51916 -8.031359,1.640807 -11.226383,0.310715 -3.264012,-1.35881 -5.326729,-3.185253 -6.055517,-5.361868 -0.383222,-1.144534 -0.328014,-1.893177 0.282161,-3.82581 0.09999,-0.316702 0.07863,-0.326801 -0.399987,-0.189524 -0.725208,0.207991 -1.952623,0.829167 -2.681125,1.356893 l -0.627285,0.454405 0.528419,0.735511 c 1.758172,2.447252 1.485426,4.172741 -1.080308,6.834281 -2.06002,2.136943 -4.262934,3.486987 -6.955657,4.262744 -1.706889,0.49174 -4.725198,0.487375 -6.566633,-0.0095 -1.742167,-0.470087 -3.608572,-1.367084 -4.440912,-2.13431 -0.990787,-0.913276 -1.253778,-1.779778 -1.026964,-3.383644 0.09426,-0.666498 0.13658,-1.246614 0.09405,-1.289147 -0.157866,-0.157863 -1.554469,1.469047 -1.939963,2.259875 -0.949823,1.948511 -1.232099,4.366499 -0.770586,6.600827 0.302773,1.465825 0.451006,1.847956 1.904601,4.909929 1.458478,3.072273 1.727114,4.135399 1.5426,6.104904 -0.264987,2.828513 -0.157703,4.81471 0.375995,6.960815 0.696348,2.800138 1.503886,5.444221 1.951424,6.389442 0.475391,1.004039 1.472343,2.131438 2.422875,2.73989 2.838968,1.817276 8.795389,2.836495 12.537982,2.145407 0.573951,-0.105977 1.088279,-0.21781 1.142938,-0.248505 0.05465,-0.03069 -0.129841,-0.599314 -0.409997,-1.263599 -1.72548,-4.091258 -2.692675,-9.349924 -2.700132,-14.680602 -0.0036,-2.906087 0.02148,-3.19772 0.405296,-4.615324 0.903074,-3.33596 3.945801,-8.168289 5.721394,-9.086481 1.112034,-0.575055 2.104668,-0.144894 2.104668,0.912064 0,0.271191 -0.607502,2.306956 -1.350012,4.523922 -0.742498,2.216968 -1.461514,4.521174 -1.597822,5.120456 -0.679105,2.985803 0.133659,10.247172 1.681666,15.024146 0.471051,1.453608 1.548293,3.65974 2.261391,4.631163 1.177027,1.603442 3.021942,2.719153 5.087749,3.07681 0.607646,0.105202 1.118931,0.181658 1.136173,0.169894 0.0173,-0.01181 -0.391324,-0.471276 -0.907931,-1.021141 -4.170643,-4.439134 -3.793911,-10.382422 0.846256,-13.350707 1.56637,-1.001989 3.083187,-1.497165 7.046433,-2.300352 0.310737,-0.06298 0.345566,-0.134412 0.264108,-0.541726 -0.05154,-0.258052 -0.135174,-1.122993 -0.185693,-1.922091 -0.285824,-4.520793 2.596434,-11.693678 5.982257,-14.887697 1.430074,-1.349059 2.258086,-1.501121 3.228181,-0.59285 0.644503,0.603434 0.574261,1.324364 -0.259371,2.66186 -1.247066,2.000832 -3.131224,6.30821 -3.614757,8.26368 -0.133766,0.540976 -0.318624,1.527849 -0.410796,2.193051 -0.20229,1.460028 -0.05632,3.859831 0.234852,3.859831 0.351877,0 6.780081,-1.660959 8.77888,-2.268339 3.410904,-1.036481 4.546432,-1.267023 6.204198,-1.259613 1.224145,0.0055 1.737865,0.08293 2.689155,0.405459 0.64677,0.219283 1.205472,0.398697 1.241553,0.398697 0.216621,0 0.247941,-1.403578 0.07398,-3.317982 -0.23169,-2.550598 -0.214401,-3.374314 0.08293,-3.949248 0.429231,-0.830062 1.051708,-0.705396 2.031826,0.406927 0.875739,0.993877 1.768481,2.530941 2.243792,3.86324 0.325819,0.913253 0.396073,1.381886 0.403912,2.694417 0.0048,0.873887 -0.04594,1.868822 -0.113709,2.21097 -0.117408,0.592493 -0.09975,0.636959 0.370503,0.934707 l 0.493758,0.31262 0.755599,-0.632063 c 1.253652,-1.048683 3.314877,-3.145298 4.081245,-4.151323 1.62484,-2.13291 2.67101,-4.782865 2.6676,-6.757015 -0.001,-0.506858 -0.1697,-1.738698 -0.37517,-2.737423 -0.20548,-0.998725 -0.375,-1.900983 -0.37672,-2.005017 -0.007,-0.412456 0.59388,-0.794474 1.24529,-0.791952 1.88839,0.0073 3.3233,2.135003 3.75115,5.562212 0.35299,2.82768 -0.40242,5.679955 -2.25339,8.508251 -0.71848,1.097854 -3.4364,3.886889 -4.82197,4.948138 -0.606093,0.46423 -1.101987,0.862337 -1.101987,0.884681 0,0.02235 0.902267,0.78594 2.005037,1.696877 3.2137,2.654676 4.36078,4.026282 5.63697,6.740349 1.16281,2.472955 1.62839,3.971001 1.64741,5.300716 0.016,1.120444 -0.006,1.2051 -0.40764,1.551052 -0.55152,0.47533 -1.30394,0.486427 -1.72572,0.02545 -0.17133,-0.187261 -0.86466,-1.247403 -1.54071,-2.35587 -2.35853,-3.867075 -3.70378,-5.375893 -7.698849,-8.634927 -6.418312,-5.23583 -8.183989,-6.231882 -11.055162,-6.236447 -2.061297,-0.0032 -3.046331,0.24217 -7.668123,1.910716 -1.780102,0.642652 -4.232461,1.18016 -9.267042,2.03115 -6.914767,1.168796 -8.666818,1.878066 -9.238203,3.739837 -0.216107,0.704128 0.119818,1.630651 1.078077,2.973534 2.545831,3.567669 8.422719,6.409667 13.871784,6.708239 2.170209,0.118911 3.811999,-0.174882 5.446917,-0.974713 1.195699,-0.584962 2.789095,-2.041258 5.042754,-4.608874 1.291082,-1.470953 1.458209,-1.567187 1.992177,-1.147166 0.385847,0.303504 0.4031,0.369994 0.303387,1.169414 -0.256603,2.057301 -1.613381,5.22478 -2.833039,6.613885 l -0.465885,0.530623 0.666266,0.685312 c 0.783376,0.805761 3.008292,2.497226 4.298002,3.267499 0.499365,0.298242 1.88065,1.027104 3.069513,1.619693 2.390027,1.191296 2.707673,1.503626 2.293894,2.255474 -0.918013,1.668034 -4.77286,1.343945 -8.955911,-0.752953 -1.994623,-0.999869 -4.233786,-2.599501 -5.528578,-3.949547 l -0.495715,-0.516876 -1.017499,0.231668 c -0.694258,0.15807 -1.81072,0.231116 -3.514316,0.22993 -2.179337,-0.0016 -2.720165,-0.05396 -4.253329,-0.412333 -0.966086,-0.225828 -2.443911,-0.642086 -3.284058,-0.925019 l -1.527532,-0.514422 -1.482586,1.543211 c -2.347848,2.44383 -3.743189,4.698504 -4.761596,7.694012 -0.463522,1.363396 -0.480119,1.502632 -0.546412,4.583868 -0.03758,1.747771 -0.130974,3.296932 -0.207492,3.44258 -0.09951,0.189356 -0.323862,0.264817 -0.787492,0.264817 -0.971396,0 -1.734273,-0.724864 -2.601565,-2.471949 -0.60267,-1.21401 -0.707657,-1.572415 -0.824015,-2.812797 -0.332047,-3.539792 0.626391,-6.943986 2.914306,-10.350924 0.325676,-0.484971 0.569011,-0.899125 0.540745,-0.920345 -0.02828,-0.02121 -0.630185,-0.124045 -1.337615,-0.228503 -2.497162,-0.368723 -4.633331,-1.461415 -6.616892,-3.384646 l -1.093624,-1.060367 -0.949227,0.428306 c -1.536039,0.693091 -3.005058,0.986124 -5.430606,1.083281 -6.209009,0.248747 -12.236992,-1.798003 -15.213041,-5.165422 -1.247532,-1.411589 -2.344974,-4.109294 -3.455782,-8.494911 -0.979327,-3.866524 -1.222959,-6.010616 -1.010942,-8.89689 0.145599,-1.982092 0.136832,-2.454011 -0.0596,-3.208149 -0.126668,-0.486312 -0.25065,-0.904548 -0.275516,-0.929414 -0.05331,-0.05331 -1.414602,2.81009 -1.960349,4.123503 -2.244242,5.401067 -3.499176,11.91549 -2.988855,15.515284 0.427561,3.016024 1.41907,5.656349 3.07887,8.198846 0.847912,1.298837 5.020244,6.965121 7.026134,9.541913 2.09808,2.695235 5.000832,5.123186 8.943938,7.481001 1.677538,1.003093 1.861227,1.24897 1.32998,1.780223 -0.468093,0.468091 -1.125636,0.487743 -3.039195,0.09082 -2.511898,-0.52102 -5.361763,-1.734489 -7.614134,-3.242083 -0.681017,-0.455827 -1.238208,-0.803649 -1.238208,-0.772938 0,0.260981 0.887556,1.912011 1.639103,3.049053 2.62229,3.967372 6.192613,6.401044 10.391009,7.082911 3.343549,0.543033 10.241217,-0.05652 15.105581,-1.312912 2.084779,-0.538482 2.386496,-0.505787 4.32455,0.468651 6.866527,3.452422 14.137014,4.818372 18.891928,3.549339 z M 38.934356,29.877884 c 1.464389,-0.492179 2.560316,-1.197297 3.774057,-2.428216 0.675871,-0.68545 0.867816,-0.970648 0.756601,-1.124248 -4.234728,-5.849088 -9.360265,-12.797159 -9.406355,-12.751071 -0.03387,0.03386 -0.462876,3.287558 -0.953377,7.230445 -0.490496,3.942887 -0.940089,7.46523 -0.999094,7.827427 -0.122663,0.752953 -0.110726,0.765938 1.146901,1.247892 0.940456,0.360402 2.580968,0.56933 3.707398,0.472159 0.416135,-0.0359 1.304369,-0.249373 1.973869,-0.474388 z m 52.234876,-0.474588 c 0.370193,-0.08296 0.905211,-0.24783 1.188923,-0.366371 0.610795,-0.255209 0.612514,-0.27185 0.297063,-2.883629 C 92.426917,24.263065 92.190204,21.72109 91.662202,15.489609 91.489431,13.450544 91.299861,11.488856 91.24093,11.130302 l -0.107147,-0.651916 -2.522373,3.375713 c -5.263348,7.044003 -8.439293,11.40254 -8.443803,11.587959 -0.0084,0.364061 2.176426,2.385537 3.097434,2.865253 1.127295,0.587166 2.592818,1.065422 3.783053,1.234556 1.053569,0.149713 3.149182,0.07925 4.121138,-0.138571 z M 65.092105,26.073122 c 1.655202,-0.550389 3.772935,-1.767174 3.666863,-2.106857 -0.316,-1.011816 -5.788164,-15.739008 -5.846749,-15.7352531 -0.04164,0.00262 -0.843416,1.4526178 -1.781773,3.2221121 -0.938368,1.769494 -2.75991,5.177243 -4.047877,7.572774 -1.287956,2.395531 -2.339592,4.401396 -2.336967,4.457476 0.0084,0.188608 0.709137,0.903639 1.405829,1.435444 0.703529,0.537013 2.306481,1.147917 4.052173,1.544336 1.40281,0.318555 3.185239,0.176343 4.888501,-0.390032 z"
       id="path73" /><path
       style="fill:#ffffff;stroke:none;stroke-width:5.95884;stroke-dasharray:none"
       d="m 58.989845,129.64687 c -12.472948,-0.67114 -23.622728,-3.45535 -28.188637,-7.03898 l -0.871956,-0.68437 v -6.32017 c 0,-5.26347 0.03687,-6.33431 0.22052,-6.40478 0.121285,-0.0466 0.991917,0.22972 1.934739,0.61391 3.729837,1.5199 6.142932,2.15553 11.822256,3.11409 4.643112,0.78368 7.045634,1.05214 11.450505,1.27947 11.401002,0.58841 23.053279,-1.03308 30.904099,-4.3005 3.220752,-1.34044 5.105717,-2.45643 7.754639,-4.59108 0.737811,-0.59457 1.17344,-0.85346 1.218318,-0.72404 0.117301,0.33825 0.530749,6.44381 0.736661,10.87855 l 0.194646,4.19206 -0.360711,0.58364 c -0.770726,1.24707 -4.414534,3.69092 -7.315087,4.90615 -5.975993,2.50372 -13.643626,4.02186 -22.787626,4.51181 -3.268224,0.17511 -3.160424,0.17537 -6.712366,-0.0158 z"
       id="path74" /><path
       style="fill:#ffffff;stroke:none;stroke-width:5.95884;stroke-dasharray:none"
       d="m 51.679979,108.57178 c -10.629673,-1.10535 -16.158147,-2.43082 -19.716414,-4.7271 -2.490539,-1.60723 -3.3932,-2.72683 -3.568595,-4.426228 -0.04911,-0.475824 -0.04813,-0.865137 0.0021,-0.865137 0.05031,0 0.640194,0.393695 1.31086,0.874874 2.136444,1.532831 4.659587,2.523451 7.397051,2.904201 3.78519,0.52647 11.123727,-0.0669 16.262912,-1.31497 l 2.19606,-0.53332 1.04167,0.71836 c 3.073799,2.11976 7.851701,3.76173 12.555844,4.31491 1.981526,0.23302 6.888975,0.0937 8.307047,-0.23577 2.649463,-0.61564 6.650895,-2.26628 12.379457,-5.10668 2.161376,-1.071682 3.95505,-1.923235 3.985943,-1.89234 0.10155,0.10155 -1.605296,2.07587 -2.399636,2.77567 -1.134869,0.99981 -3.081295,2.25565 -4.884327,3.15139 -4.93004,2.44923 -10.954727,3.88684 -18.636687,4.4471 -3.14039,0.22904 -13.747674,0.17352 -16.233363,-0.085 z"
       id="path75" /><path
       style="fill:#ffffff;stroke:none;stroke-width:5.95884;stroke-dasharray:none"
       d="m 70.993134,100.27835 c -3.779218,-0.310483 -8.122663,-1.581078 -12.477102,-3.649945 -1.110178,-0.527466 -2.285283,-0.973627 -2.684947,-1.019419 -0.480425,-0.05504 -1.426932,0.08034 -2.921034,0.417793 -4.765906,1.076431 -10.179458,1.596187 -13.314601,1.27834 -4.565224,-0.46283 -8.200081,-2.631795 -11.009887,-6.569734 -0.739341,-1.036185 -1.888337,-3.059173 -1.792147,-3.15536 0.03317,-0.03317 0.450238,0.188799 0.926832,0.493252 1.256171,0.80246 3.372152,1.846853 4.736013,2.337575 2.793818,1.005229 5.36905,1.331127 5.898195,0.746427 0.498888,-0.551265 0.32743,-0.895556 -0.804696,-1.615855 -4.039327,-2.569972 -6.33182,-4.343776 -8.080785,-6.252464 -2.336393,-2.549761 -8.49034,-11.055811 -9.530118,-13.172629 -1.79559,-3.655531 -2.323103,-6.87546 -1.784012,-10.889578 0.588736,-4.383786 1.865611,-8.580509 3.96441,-13.029885 0.728885,-1.545212 0.748308,-1.56913 0.897745,-1.105567 0.08401,0.260599 0.166019,2.250617 0.182247,4.422264 0.02754,3.685951 0.05878,4.078992 0.469831,5.912004 0.936393,4.175678 2.133999,7.73453 3.200008,9.509271 1.036162,1.725046 3.337381,3.496056 5.953014,4.581422 4.704885,1.952305 11.795999,2.25907 15.408128,0.666564 0.466857,-0.205824 0.920567,-0.374226 1.008253,-0.374226 0.08768,0 0.674603,0.48937 1.304266,1.08749 1.917554,1.82149 4.233868,2.966347 6.593414,3.258852 0.500626,0.06206 0.941594,0.163587 0.979927,0.22561 0.03833,0.06203 -0.186399,0.493051 -0.499404,0.95784 -2.220203,3.296814 -3.236804,7.276258 -2.738834,10.721067 0.180583,1.249212 1.184743,3.396491 1.942888,4.154636 0.841822,0.841825 2.204604,0.974183 2.380618,0.231212 0.04452,-0.187921 0.130291,-1.692045 0.1906,-3.342495 0.09257,-2.533266 0.169392,-3.191849 0.493028,-4.226843 0.905742,-2.896563 2.469332,-5.46466 4.826174,-7.926695 l 1.464866,-1.530247 0.710721,0.259109 c 0.390898,0.14251 1.599123,0.512935 2.684947,0.823164 1.877211,0.536337 2.121686,0.567719 4.975048,0.638625 1.975212,0.04908 3.36664,0.0093 4.07117,-0.116475 l 1.070348,-0.191048 1.07474,1.013857 c 1.31422,1.239769 3.557839,2.759647 5.28642,3.581136 4.476949,2.127623 8.792356,2.123223 8.792356,-0.009 0,-0.512966 -0.342662,-0.778544 -2.211133,-1.713732 -3.181046,-1.592152 -5.046637,-2.804819 -7.226163,-4.697146 l -0.987613,-0.857472 0.566838,-0.657442 c 1.20649,-1.399334 2.75086,-5.271281 2.75086,-6.896777 0,-0.714955 -0.444476,-1.18603 -0.989894,-1.04914 -0.203975,0.0512 -1.136846,0.944923 -2.073045,1.986061 -2.799794,3.113627 -4.27845,4.146029 -6.717231,4.689983 -1.37097,0.305787 -4.11194,0.227436 -5.934662,-0.169643 -4.094891,-0.892064 -7.970449,-2.959468 -10.228993,-5.456619 -0.960012,-1.061436 -1.853264,-2.637104 -1.853264,-3.269107 0,-0.619225 0.569794,-1.543933 1.212702,-1.968063 1.302168,-0.859049 2.688439,-1.217435 9.369145,-2.422155 5.001482,-0.901909 5.985481,-1.143135 9.443043,-2.314937 3.213013,-1.088925 4.539268,-1.397133 6.012024,-1.397133 2.76656,0 5.041794,1.2749 10.975348,6.149907 4.162414,3.41984 5.067564,4.420132 7.590794,8.388736 0.85313,1.341832 1.693,2.564069 1.86637,2.716083 0.42513,0.372772 1.25107,0.348853 1.75934,-0.05094 0.37556,-0.295418 0.41614,-0.430499 0.41614,-1.385134 0,-1.309116 -0.41837,-2.85383 -1.32953,-4.908875 -1.35242,-3.050273 -2.51585,-4.506693 -5.91638,-7.40635 l -1.954991,-1.667031 0.612516,-0.476599 c 1.155185,-0.898853 4.354475,-4.123722 5.031115,-5.071335 2.39727,-3.357338 3.1206,-7.344302 1.99092,-10.973964 -0.74691,-2.399819 -2.33716,-3.807722 -3.82041,-3.382333 -0.84396,0.242046 -0.93389,0.569404 -0.60297,2.19507 0.50818,2.496508 0.5524,3.927087 0.16501,5.338176 -0.36975,1.346888 -1.00923,2.716141 -1.89267,4.052647 -0.63918,0.966972 -2.905368,3.390717 -4.299762,4.598701 -0.892787,0.773436 -0.928608,0.78834 -1.303743,0.542544 -0.382328,-0.250512 -0.385005,-0.269753 -0.303461,-2.180449 0.119229,-2.793707 -0.379214,-4.412785 -2.109719,-6.85296 -1.106154,-1.55978 -1.91227,-1.973464 -2.52277,-1.294636 -0.28045,0.311841 -0.29745,0.57589 -0.250447,3.890579 0.04105,2.894452 0.01167,3.541406 -0.157937,3.477403 -1.374349,-0.518649 -2.238815,-0.663747 -3.919906,-0.657934 -1.939269,0.0067 -2.070878,0.03344 -6.791336,1.379866 -4.822012,1.375389 -7.868065,2.091462 -8.063852,1.895676 -0.280498,-0.280498 -0.224887,-3.3947 0.08699,-4.87127 0.414295,-1.961505 1.277855,-4.149313 2.958595,-7.495501 0.849,-1.69028 1.543637,-3.197217 1.543637,-3.348752 0,-0.878345 -1.167662,-1.818391 -2.004981,-1.614141 -2.678578,0.653397 -6.555557,7.224043 -7.559868,12.812358 -0.16891,0.939864 -0.232537,2.061687 -0.198475,3.499237 l 0.05014,2.115883 -1.895255,0.436417 c -1.042392,0.24003 -2.250618,0.556832 -2.684947,0.704001 -4.238546,1.436222 -6.635531,4.65464 -6.350185,8.52636 0.153998,2.089512 1.164391,4.300495 2.796812,6.120098 0.448099,0.499478 0.755735,0.907092 0.683639,0.905809 -0.584222,-0.0104 -2.348405,-0.581996 -3.23622,-1.048531 -2.552213,-1.341149 -4.447775,-4.636137 -5.597715,-9.730311 -0.86159,-3.816789 -1.323282,-8.71297 -1.031158,-10.935298 0.102052,-0.776354 0.689874,-2.877193 1.524611,-5.448861 0.747188,-2.301947 1.398627,-4.583732 1.447638,-5.070634 0.08073,-0.801979 0.05422,-0.90972 -0.281765,-1.145051 -0.45434,-0.318233 -1.276069,-0.335161 -1.850488,-0.03812 -1.174459,0.607337 -3.255354,3.447727 -4.609441,6.291823 -1.448687,3.04278 -1.746036,5.074627 -1.439029,9.833105 0.331605,5.139701 1.128389,8.725596 2.936674,13.216377 0.150495,0.373748 -0.698633,0.591907 -2.761398,0.709467 -4.40589,0.25109 -9.619065,-1.158856 -11.660016,-3.153553 -1.097973,-1.073092 -1.461093,-1.724099 -2.132402,-3.82302 -1.522531,-4.76037 -1.931265,-7.340235 -1.68239,-10.61897 0.217321,-2.863033 0.04182,-3.571553 -1.954448,-7.890188 -1.365596,-2.954274 -1.583176,-3.787076 -1.580687,-6.050201 0.0026,-2.373717 0.463153,-3.883308 1.656166,-5.428681 0.444456,-0.575728 0.85541,-1.046779 0.913229,-1.046779 0.05782,0 0.07773,0.692954 0.04423,1.539896 -0.0605,1.529787 -0.05742,1.544979 0.468231,2.314303 0.800364,1.171376 2.678512,2.20612 5.267269,2.901934 0.667975,0.179541 1.623455,0.254222 3.237728,0.253063 2.212668,-0.0016 2.344907,-0.02064 3.910936,-0.563081 2.385639,-0.826357 3.914545,-1.804365 5.879761,-3.761168 1.865763,-1.857772 2.397115,-2.736292 2.499083,-4.131906 0.05286,-0.723525 -0.01466,-1.068886 -0.353775,-1.809623 -0.230507,-0.503496 -0.589751,-1.139173 -0.798316,-1.412617 l -0.379212,-0.497171 0.462918,-0.342249 c 0.54715,-0.404527 2.576959,-1.440653 2.822292,-1.440653 0.218575,0 0.217868,0.01005 -0.08162,1.161738 -0.342225,1.316047 -0.229412,2.379889 0.384646,3.627218 0.873792,1.774924 3.081883,3.536012 5.763308,4.596594 4.567965,1.806766 10.745663,0.810644 14.818895,-2.389468 1.847328,-1.451343 2.46017,-2.75219 2.299213,-4.880412 -0.08283,-1.095249 -0.06449,-1.192348 0.266226,-1.409041 0.692,-0.453415 3.727464,-1.352446 3.727464,-1.103984 0,0.04992 -0.295045,0.46181 -0.655659,0.9153 -1.074486,1.351228 -1.456925,2.351285 -1.462889,3.825351 -0.0048,1.193453 0.03385,1.337934 0.697568,2.605976 1.573795,3.006746 5.102503,5.409952 8.921489,6.075929 1.791845,0.31247 5.537795,0.318534 6.998208,0.01132 2.816524,-0.592476 5.025485,-1.903645 5.549723,-3.294139 0.09219,-0.244536 0.167624,-1.287693 0.167624,-2.318123 0,-1.82635 0.01027,-1.88159 0.407953,-2.194407 1.230067,-0.96757 3.870776,-1.380216 5.686806,-0.88864 3.52531,0.954255 5.32548,3.8935 6.77243,11.057734 0.73335,3.631057 0.93609,5.596679 0.82264,7.97587 -0.13616,2.855376 -0.63416,5.285047 -1.9585,9.55525 -0.42409,1.367444 -0.43627,1.499439 -0.32052,3.474636 0.22459,3.832505 0.6139,5.878711 2.07005,10.8801 1.68809,5.798024 1.87314,8.726216 0.70478,11.152252 -0.7324,1.520785 -2.83042,3.555315 -5.42007,5.25607 -5.14927,3.381777 -18.445618,10.563016 -24.564615,13.267132 -4.733489,2.091832 -7.200853,2.615622 -10.892476,2.312332 z"
       id="path76" /><path
       style="fill:#ffffff;stroke:none;stroke-width:5.95884;stroke-dasharray:none"
       d="m 70.993134,100.27835 c -3.769797,-0.309707 -7.948031,-1.530156 -12.514157,-3.65534 -1.129181,-0.525547 -2.346807,-0.98674 -2.705836,-1.024871 -0.397663,-0.04224 -1.516589,0.125526 -2.86309,0.429267 -4.771385,1.076318 -10.180802,1.595422 -13.314601,1.277713 -4.565224,-0.46283 -8.200081,-2.631795 -11.009887,-6.569734 -0.752671,-1.054865 -1.887704,-3.059806 -1.788419,-3.159088 0.03522,-0.03522 0.513418,0.22011 1.062672,0.567394 1.36402,0.862451 3.176135,1.756291 4.596445,2.267238 2.794249,1.005205 5.369076,1.331021 5.898195,0.74635 0.559308,-0.618027 0.281522,-0.969499 -1.766374,-2.234922 -2.865335,-1.770528 -5.360422,-3.73742 -7.033665,-5.544677 -2.333845,-2.520765 -8.552692,-11.097523 -9.61556,-13.261349 -1.79559,-3.655531 -2.323103,-6.87546 -1.784012,-10.889578 0.586757,-4.369046 1.860656,-8.563999 3.956839,-13.029885 0.699507,-1.490287 0.75113,-1.557108 0.91515,-1.184537 0.112879,0.256405 0.160019,1.557745 0.134447,3.711543 -0.0416,3.503605 0.06218,4.617546 0.691558,7.423087 1.073827,4.786736 2.537914,8.460256 4.013359,10.069864 2.582286,2.817101 7.513008,4.704626 12.960776,4.961502 3.121848,0.1472 5.529247,-0.22152 8.000847,-1.225429 0.494064,-0.200678 0.510373,-0.19178 1.721051,0.938858 1.976832,1.846141 4.274175,2.985038 6.587289,3.265615 0.500626,0.06073 0.941594,0.161158 0.979927,0.223181 0.03833,0.06203 -0.186227,0.492797 -0.49902,0.957271 -0.90905,1.349859 -2.061033,3.913804 -2.412072,5.368499 -0.868619,3.599513 -0.502658,6.438752 1.145511,8.887267 0.861314,1.279562 2.623818,1.809044 2.849748,0.856104 0.04512,-0.190333 0.131392,-1.696431 0.191701,-3.346881 0.09257,-2.533266 0.169392,-3.191849 0.493028,-4.226843 0.908237,-2.904543 2.47978,-5.482149 4.826174,-7.915773 l 1.464866,-1.519327 1.984854,0.619553 c 3.092484,0.96529 4.05769,1.118069 7.063581,1.118069 1.465898,0 3.066963,-0.08067 3.557929,-0.179271 l 0.892665,-0.179274 1.08187,1.020582 c 1.30442,1.230525 3.274545,2.564541 5.177603,3.505875 4.426733,2.18965 8.907248,2.235412 8.907248,0.09098 0,-0.515351 -0.42546,-0.835211 -2.487065,-1.869771 -3.014183,-1.512589 -4.71307,-2.628001 -6.950231,-4.563214 l -0.987613,-0.854313 0.541306,-0.632391 c 1.124024,-1.313172 2.536589,-4.670039 2.725436,-6.476818 0.07905,-0.756282 0.04531,-0.978373 -0.187725,-1.235876 -0.572299,-0.632384 -0.887783,-0.422857 -3.168602,2.104411 -3.331663,3.691655 -5.414243,4.679294 -9.455391,4.484108 -5.962468,-0.287986 -12.478346,-3.775175 -14.458593,-7.738002 -0.556504,-1.113663 -0.584579,-1.490845 -0.171265,-2.301007 0.639178,-1.252889 2.284082,-1.9129 6.96059,-2.792904 8.249769,-1.552404 9.373076,-1.809491 12.477104,-2.85559 3.574251,-1.204571 4.714148,-1.474386 6.244852,-1.478161 2.817855,-0.007 5.03999,1.234117 11.128328,6.2152 3.599565,2.944932 4.903335,4.369697 7.194935,7.862665 1.10258,1.680618 2.11607,3.144507 2.25218,3.25309 0.41911,0.334338 1.26508,0.239371 1.69469,-0.190244 1.36706,-1.367054 -0.99157,-7.856114 -4.00878,-11.028971 -0.49196,-0.51734 -1.77506,-1.690867 -2.85134,-2.607845 l -1.956873,-1.667226 0.614397,-0.478362 c 1.077226,-0.838716 4.168456,-3.93305 4.909636,-4.914577 0.95535,-1.265142 1.69576,-2.770429 2.19167,-4.455774 0.72401,-2.460541 0.48377,-5.888175 -0.55547,-7.925263 -0.7561,-1.482069 -2.08923,-2.388685 -3.18901,-2.168729 -1.0483,0.209658 -1.10697,0.504576 -0.60979,3.065298 0.17347,0.893456 0.3154,2.032037 0.3154,2.530184 0,1.68338 -0.83118,3.970857 -2.18956,6.025865 -0.63918,0.966973 -2.905368,3.390717 -4.299762,4.598702 -0.900896,0.78046 -0.925394,0.790445 -1.314196,0.535694 -0.39379,-0.258022 -0.395634,-0.270256 -0.305028,-2.022512 0.05452,-1.054442 0.01953,-2.143753 -0.08711,-2.710551 -0.21966,-1.167627 -1.057728,-2.964222 -1.996276,-4.279479 -1.124363,-1.575652 -1.925289,-1.98881 -2.537082,-1.308754 -0.280435,0.311722 -0.297373,0.574564 -0.249394,3.869481 0.02831,1.944272 0.02831,3.534498 0,3.533833 -0.02831,-7.93e-4 -0.513445,-0.144134 -1.078074,-0.318822 -1.348726,-0.41728 -3.129944,-0.54994 -4.501234,-0.335236 -0.60806,0.09521 -2.623625,0.600234 -4.479028,1.122292 -5.80752,1.634061 -8.673712,2.316178 -8.877227,2.112663 -0.278288,-0.278289 -0.2223,-3.397652 0.08741,-4.869791 0.407715,-1.937996 1.206958,-3.965128 2.92949,-7.430114 0.865587,-1.741186 1.573795,-3.312954 1.573795,-3.492823 0,-0.778566 -1.278922,-1.719294 -2.067793,-1.520994 -1.499955,0.377047 -3.853204,3.219974 -5.442003,6.574398 -1.645989,3.475175 -2.349955,6.53233 -2.259727,9.813457 l 0.05633,2.048666 -1.658347,0.360606 c -3.290213,0.715449 -5.283841,1.592615 -6.779898,2.983053 -3.377602,3.139141 -3.350011,8.02975 0.06829,12.103836 0.564849,0.673211 0.973431,1.222968 0.907966,1.221684 -0.576115,-0.0113 -2.345077,-0.586584 -3.224163,-1.04853 -1.465066,-0.769872 -2.565445,-1.990019 -3.585384,-3.97563 -1.882442,-3.66473 -3.062132,-9.31491 -3.072469,-14.715757 -0.0049,-2.55583 0.0057,-2.639407 0.552754,-4.343294 2.728204,-8.498055 2.808441,-8.84599 2.146848,-9.309386 -0.440365,-0.308444 -1.266418,-0.315968 -1.844937,-0.0168 -1.147514,0.593402 -3.263204,3.486875 -4.59513,6.28442 -1.440281,3.025127 -1.742469,5.091319 -1.438127,9.833105 0.329573,5.134906 1.126794,8.723876 2.935772,13.216377 0.150495,0.373748 -0.698633,0.591907 -2.761398,0.709467 -4.40589,0.25109 -9.619065,-1.158856 -11.660016,-3.153553 -1.097973,-1.073092 -1.461093,-1.724099 -2.132402,-3.82302 -1.511273,-4.725168 -1.929857,-7.341839 -1.687832,-10.55101 0.21917,-2.906104 0.03087,-3.674972 -1.949006,-7.958148 -1.365596,-2.954274 -1.583176,-3.787076 -1.580687,-6.050201 0.0026,-2.373717 0.463153,-3.883308 1.656166,-5.428681 0.444456,-0.575728 0.856183,-1.046779 0.914946,-1.046779 0.05877,0 0.07744,0.672449 0.04149,1.49433 -0.06067,1.38725 -0.03585,1.544674 0.346416,2.196965 0.698072,1.19117 3.195519,2.572604 5.664761,3.133402 1.261642,0.286533 4.736812,0.240419 5.926871,-0.07865 2.62165,-0.702892 4.758367,-1.979695 6.917354,-4.133491 2.358231,-2.352563 2.929871,-3.997489 2.047703,-5.892349 -0.212979,-0.457464 -0.57072,-1.072316 -0.79498,-1.366338 l -0.40775,-0.534587 0.450223,-0.320587 c 0.561676,-0.399948 2.63702,-1.44797 2.867343,-1.44797 0.218681,0 0.21794,0.01042 -0.08251,1.161738 -0.768697,2.945652 0.999995,5.692681 4.901147,7.61217 2.219973,1.092297 3.180601,1.341662 5.580312,1.448572 2.182394,0.09723 3.700788,-0.09169 5.644552,-0.702283 2.997147,-0.941494 5.807892,-2.891491 6.756125,-4.687161 0.283048,-0.536013 0.344712,-0.930379 0.357656,-2.287394 0.01328,-1.393594 0.05889,-1.671341 0.303786,-1.850414 0.526939,-0.385308 3.717063,-1.327631 3.717063,-1.097975 0,0.05289 -0.295045,0.467202 -0.655659,0.920692 -1.082913,1.361827 -1.459532,2.351643 -1.455523,3.825351 0.0031,1.133726 0.06159,1.377875 0.5696,2.377016 1.09161,2.146951 2.739718,3.741124 5.095111,4.928376 2.630619,1.325977 4.560493,1.694407 8.256418,1.576226 1.899565,-0.06074 2.757964,-0.159589 3.651089,-0.420429 2.29739,-0.670959 3.94372,-1.745204 4.512932,-2.944727 0.175516,-0.369872 0.242096,-1.028986 0.242096,-2.396578 0,-2.07631 0.0075,-2.09433 1.105567,-2.651627 2.03168,-1.031142 4.7596,-0.921328 6.74427,0.271493 2.41948,1.454156 3.89954,4.530617 5.08225,10.56402 0.7019,3.580625 0.85898,5.151625 0.75686,7.569822 -0.12486,2.956972 -0.55533,5.16233 -1.77484,9.092806 -0.60367,1.945611 -0.6527,2.688566 -0.3797,5.753367 0.23388,2.625643 0.65931,4.704218 1.71682,8.388035 1.94451,6.773739 2.15351,9.454571 0.93441,11.985967 -0.7324,1.520785 -2.83042,3.555315 -5.42007,5.25607 -5.14927,3.381777 -18.445616,10.563016 -24.564613,13.267132 -4.733489,2.091825 -7.200853,2.615615 -10.892476,2.312325 z"
       id="path77" /><path
       style="fill:#ffffff;stroke:none;stroke-width:5.95884;stroke-dasharray:none"
       d="m 34.78796,30.160977 c -1.032791,-0.173903 -2.271956,-0.601187 -2.483811,-0.856457 -0.131884,-0.158911 0.0644,-2.095026 0.777537,-7.669606 0.524674,-4.101369 0.953955,-7.570634 0.953955,-7.709478 0,-0.138843 0.977241,1.061369 2.171647,2.667139 3.944551,5.30309 7.146695,9.739453 7.146695,9.901287 0,0.324337 -2.24422,2.263011 -3.147526,2.718999 -1.878338,0.948182 -3.614234,1.251926 -5.418497,0.948116 z"
       id="path78" /><path
       style="fill:#ffffff;stroke:none;stroke-width:5.95884;stroke-dasharray:none"
       d="m 59.305721,26.121861 c -0.73836,-0.217202 -1.71028,-0.562412 -2.159826,-0.767135 -0.810091,-0.368914 -2.262439,-1.561867 -2.262439,-1.858358 0,-0.160534 7.464666,-14.1866563 7.832733,-14.7177195 0.199692,-0.2881255 0.21839,-0.2804777 0.386141,0.157938 0.566812,1.4813545 3.746463,10.0452515 4.59064,12.3641665 l 0.998572,2.743038 -0.389099,0.32135 c -0.665488,0.549611 -3.177476,1.65124 -4.368728,1.915896 -1.612162,0.358171 -3.035761,0.309208 -4.627994,-0.159176 z"
       id="path79" /><path
       style="fill:#ffffff;stroke:none;stroke-width:5.95884;stroke-dasharray:none"
       d="m 86.032445,29.238957 c -1.772904,-0.451194 -3.312062,-1.290812 -4.594291,-2.506205 -0.619673,-0.587374 -1.126678,-1.149613 -1.126678,-1.249421 0,-0.331956 10.511309,-14.585609 10.756109,-14.585609 0.07789,0 0.141613,0.126148 0.141613,0.280327 0,0.534058 1.1038,12.601515 1.352458,14.785945 0.137382,1.206879 0.208388,2.359258 0.157792,2.560847 -0.138113,0.550286 -1.367846,0.869021 -3.642413,0.944076 -1.483548,0.04895 -2.144924,-0.0011 -3.04459,-0.22996 z"
       id="path80" /></g><path
     style="fill:#000000;stroke:#ffffff;stroke-width:1.32292;stroke-linecap:round;stroke-dasharray:none"
     d="m 34.173786,13.8482 8.040889,-2.903655 7.817533,-9.6043966 11.614621,9.1576806 7.81753,-7.594174 6.03067,12.508052 L 87.109647,1.5635065 V 12.954768 l 6.924101,1.11679 -9.827755,7.147458 -1.340149,-8.04089 L 74.601597,24.122671 69.464359,9.3810391 54.722728,20.548942 56.509592,14.741632 50.92564,6.9241002 44.001541,20.325584 42.214675,15.635065 Z"
     id="path25" /><path
     style="fill:#000000;stroke:#ffffff;stroke-width:1.32292;stroke-linecap:round;stroke-dasharray:none"
     d="m 27.91976,18.538719 -6.254027,-3.35037 4.243803,9.827755 -8.934323,-0.893433 -8.04089,8.710965 9.381039,-6.030668 13.178125,2.010223 -3.797086,-6.254026 4.913877,0.893432 -0.670074,-9.157681 z"
     id="path26" /><path
     style="fill:#000000;stroke:#ffffff;stroke-width:1.32292;stroke-linecap:round;stroke-dasharray:none"
     d="m 99.394341,17.868645 5.360589,4.020446 5.13724,-6.924101 -0.67007,17.421929 6.25402,-8.934322 5.80731,8.710966 -2.45694,-16.30514 -6.25402,6.477384 0.67007,-14.2949164 -9.15768,9.3810384 z"
     id="path27" /></svg>
