<?xml version="1.0" encoding="UTF-8" standalone="no"?>
<!-- Created with Inkscape (http://www.inkscape.org/) -->

<svg
   version="1.1"
   id="svg1"
   width="307.43387"
   height="508.99554"
   viewBox="0 0 307.43387 508.99554"
   xml:space="preserve"
   xmlns="http://www.w3.org/2000/svg"
   xmlns:svg="http://www.w3.org/2000/svg"><defs
     id="defs1" /><g
     id="g1"
     transform="translate(-122.60233,-1.4054328)"><path
       style="fill:#000000;stroke-width:1.37157"
       d="m 146.41751,509.51678 c -4.80251,-1.41779 -7.01826,-2.48175 -10.82418,-5.19762 -4.13242,-2.94881 -7.22792,-6.71222 -9.63491,-11.71374 -3.83066,-7.95982 -3.57624,6.00113 -3.07564,-168.77179 l 0.45033,-157.23057 2.34291,-4.7276 c 3.60142,-7.26707 9.16169,-12.37923 16.85209,-15.49399 2.59123,-1.04949 4.11683,-1.16298 19.13639,-1.4237 l 16.32068,-0.28331 21.7954,-22.08863 c 14.48318,-14.67806 22.55368,-22.46772 24.0556,-23.218603 2.64427,-1.32197 5.8647,-1.450668 8.5216,-0.34053 1.03915,0.434185 4.0313,2.849983 6.64923,5.368453 2.61792,2.51848 5.04979,4.57905 5.40417,4.57905 1.05999,0 3.58385,-2.39038 26.28622,-24.895934 38.08048,-37.750309 56.69464,-55.649674 61.85764,-59.482222 8.91919,-6.620841 24.26552,-13.409945 39.06946,-17.2840243 12.29326,-3.2170666 31.34598,-5.6761907 45.5406,-5.8779067 6.51136,-0.092525 6.96813,-0.028565 8.81904,1.2353077 3.84333,2.6243679 5.08218,6.7966891 3.15728,10.6333263 -0.54964,1.095472 -2.03271,5.132329 -3.29572,8.970777 -6.12258,18.6073 -16.30289,40.89522 -24.03074,52.610934 -6.7016,10.159889 -10.46555,14.248809 -49.6295,53.914422 -14.70137,14.88966 -26.72974,27.38331 -26.72974,27.76367 0,0.38038 0.97385,2.1983 2.1641,4.03987 4.41315,6.828 4.00963,-9.96527 4.00963,166.86819 0,152.57068 -0.0318,157.65794 -1.00511,160.51701 -1.74502,5.12634 -4.25718,9.2894 -7.61289,12.61581 -3.80865,3.77541 -7.56661,6.11509 -13.13058,8.175 l -4.02004,1.48831 -78.11113,0.10053 c -73.35148,0.0944 -78.30738,0.0425 -81.33219,-0.85044 z m 159.00698,-14.63386 c 4.14525,-1.55095 8.26312,-5.49096 10.511,-10.05706 l 1.73594,-3.52624 V 327.21347 c 0,-176.00659 0.59056,-157.20409 -5.10814,-162.63973 -1.7503,-1.66951 -4.33674,-3.56847 -5.74767,-4.21993 l -2.56532,-1.18449 -76.85401,0.14556 -76.854,0.14557 -3.4045,1.55314 c -4.13963,1.88851 -6.35674,4.10948 -8.34127,8.35581 l -1.5054,3.22107 v 154.34329 c 0,150.15452 0.0276,154.42268 1.01823,157.26891 1.18638,3.40881 4.8713,7.63684 8.09493,9.28806 4.81617,2.46695 3.52659,2.42766 81.72793,2.49022 l 74.19884,0.0594 z m -84.65378,-6.6479 c -6.45352,-1.80171 -11.46991,-6.09831 -14.63715,-12.53684 -1.65786,-3.37017 -1.73581,-3.81084 -1.71796,-9.71266 0.0155,-5.15489 0.22281,-6.69551 1.24689,-9.2703 2.36457,-5.9451 6.99062,-10.32274 13.22925,-12.51889 4.18805,-1.47427 13.03856,-1.34825 17.06221,0.24296 15.38674,6.08489 19.25108,26.63652 7.15888,38.07282 -4.40474,4.16581 -8.8967,6.10174 -14.73295,6.34953 -3.10501,0.13181 -5.6403,-0.077 -7.60917,-0.62662 z m 10.24213,-14.35238 c 4.38277,-2.95357 5.54827,-8.01648 2.88972,-12.55296 -3.82887,-6.53347 -13.37493,-5.16536 -15.8283,2.26845 -2.29223,6.9455 6.96928,14.30721 12.93858,10.28451 z m -76.2083,-39.04098 c -2.46209,-0.58528 -4.44177,-2.12653 -5.56776,-4.33474 -0.88477,-1.73516 -0.93869,-8.29361 -0.93949,-114.2748 l -8.2e-4,-112.434 1.13873,-2.3523 c 0.68591,-1.41692 2.00449,-2.92526 3.31597,-3.79321 l 2.17727,-1.4409 71.8862,-0.14 c 69.51576,-0.13537 71.96193,-0.10647 74.18232,0.87569 1.26286,0.55861 2.99464,1.93151 3.84842,3.05084 l 1.5523,2.03517 V 315.8866 429.73982 l -1.19734,1.67855 c -0.65851,0.92322 -2.10801,2.13112 -3.22106,2.68423 -1.94512,0.96661 -4.80861,1.00887 -73.69273,1.08787 -39.41793,0.0453 -72.48484,-0.11182 -73.48201,-0.34881 z M 292.43968,315.92841 V 210.70655 h -64.9584 -64.95839 l -0.13769,104.68502 c -0.0758,57.57675 -0.0225,104.98796 0.11823,105.35823 0.20359,0.53563 13.50669,0.64533 65.09609,0.53685 l 64.8402,-0.13635 z M 208.59421,184.00369 c -3.85044,-2.73544 -4.85577,-8.44477 -1.85467,-10.53274 3.11791,-2.16927 4.74834,-2.37584 20.74174,-2.62794 18.94197,-0.29859 19.35187,-0.22537 22.01141,3.93216 1.81899,2.84356 1.85769,3.00844 1.06523,4.54089 -0.45228,0.87459 -2.04633,2.55769 -3.54235,3.74024 l -2.72004,2.15006 H 227.2913 c -16.75035,0 -17.0295,-0.0179 -18.69709,-1.20267 z m 111.76921,-44.02663 c 3.81352,-3.91228 14.32296,-14.60221 23.35431,-23.75545 32.90939,-33.353522 37.64794,-38.387003 42.45287,-45.095075 5.17272,-7.221532 7.39371,-10.924317 12.42492,-20.714469 5.59233,-10.882073 14.52523,-34.312264 13.08173,-34.312264 -1.89669,0 -13.06563,1.212398 -17.77364,1.929359 -15.75579,2.399341 -30.32299,6.751673 -41.87401,12.510949 -8.90385,4.439413 -15.30903,9.120182 -21.02195,15.362373 -2.2726,2.483129 -7.41084,7.579512 -11.41833,11.325295 -8.56461,8.00533 -19.78849,18.945968 -45.04066,43.904072 l -18.42788,18.21328 2.05406,1.98081 c 18.22888,17.57881 24.30779,23.02345 26.00799,23.2943 0.99807,0.159 6.52552,0.39309 12.28319,0.5202 7.48024,0.16513 11.1581,0.46615 12.88431,1.05456 1.3287,0.45289 2.79013,0.8396 3.2476,0.85937 0.4575,0.0198 3.95195,-3.16503 7.76549,-7.07731 z m -38.66285,-9.9797 c -0.88699,-0.54092 -2.08587,-1.86207 -2.66417,-2.9359 -1.85327,-3.44135 -2.11007,-3.1092 22.39,-28.959571 4.68043,-4.938387 8.57445,-8.596966 9.36009,-8.794154 2.05836,-0.516616 5.34833,0.706352 6.58957,2.449511 1.66412,2.337055 1.49964,6.584637 -0.38005,9.814534 -1.31967,2.26758 -9.95012,11.9582 -21.03919,23.62369 -2.1993,2.31363 -4.71261,4.56271 -5.58515,4.99799 -2.22804,1.1115 -6.69251,1.01053 -8.6711,-0.1961 z m -21.58003,14.60652 c 0.66483,-0.66483 -0.71383,-2.23145 -6.17034,-7.01162 -3.04256,-2.66541 -9.63879,-8.64732 -14.65829,-13.29314 -5.01953,-4.64581 -9.65507,-8.69779 -10.30119,-9.00437 -1.0719,-0.5086 -2.41898,0.70676 -15.37789,13.8743 -10.54169,10.7114 -14.06228,14.60472 -13.65695,15.10278 0.42495,0.52214 7.12326,0.67106 30.1859,0.67106 16.30185,0 29.79231,-0.15256 29.97876,-0.33901 z"
       id="path37" /><path
       style="fill:#ffffff;stroke:none;stroke-width:5.55146"
       d="m 220.26755,495.46688 -69.244,-0.31259 -3.12019,-1.41071 c -3.45985,-1.56428 -7.48107,-5.54499 -9.01318,-8.9224 -0.92459,-2.03818 -1.01146,-13.76938 -1.16464,-157.29038 l -0.16553,-155.08794 1.91995,-3.60218 c 2.01455,-3.77969 3.81268,-5.45355 8.26002,-7.68916 l 2.68575,-1.35008 76.72084,-0.2953 c 72.63535,-0.27957 76.8313,-0.23888 78.79534,0.76422 2.76785,1.41362 9.37113,6.77527 9.84161,7.99107 1.20431,3.11209 1.46101,31.92668 1.47255,165.29363 l 0.0128,147.61104 -1.52967,3.01867 c -2.25331,4.44669 -5.87765,8.05399 -10.13214,10.08446 -3.4835,1.66252 -4.14012,1.77151 -9.91305,1.64534 -3.40034,-0.0743 -37.34223,-0.27577 -75.42643,-0.44769 z m 15.53783,-7.83209 c 4.75435,-1.77883 10.3371,-7.13084 12.53458,-12.01652 5.7671,-12.82208 -0.90655,-28.09318 -13.93183,-31.87973 -5.13585,-1.49303 -13.77555,-0.9111 -18.03902,1.21503 -4.47306,2.23065 -8.51738,6.35466 -10.44569,10.6515 -1.40317,3.12668 -1.60693,4.37393 -1.66857,10.21372 -0.066,6.25481 0.0357,6.8638 1.70346,10.19606 2.38763,4.77063 6.56044,8.92254 11.14927,11.09342 3.36468,1.59175 4.36218,1.77735 9.55459,1.77778 4.4263,3.5e-4 6.58903,-0.29562 9.14321,-1.25126 z m 64.11648,-52.83631 c 1.92992,-0.24745 3.18727,-0.87686 4.62622,-2.31581 l 1.97601,-1.97601 V 316.11368 c 0,-127.32415 0.39457,-115.87882 -4.09105,-118.66823 l -2.17673,-1.35361 -72.82559,-0.16047 -72.82558,-0.16047 -2.25582,1.85977 c -1.2407,1.02287 -2.82256,2.9707 -3.51526,4.32849 l -1.25944,2.46872 0.29715,111.93507 c 0.32621,122.88294 0.068,114.95024 3.82132,117.41025 1.55005,1.01595 4.05001,1.1116 36.31342,1.38952 40.40648,0.34807 108.07769,0.12782 111.91535,-0.36424 z M 247.07497,183.44256 c 1.5552,-1.21164 3.23236,-2.98564 3.72702,-3.94222 0.85085,-1.64534 0.80708,-1.88854 -0.8108,-4.5054 -0.94061,-1.5214 -2.37222,-3.11267 -3.18137,-3.53617 -1.12538,-0.58901 -5.53992,-0.73098 -18.78217,-0.60401 -15.92456,0.15269 -17.50223,0.2616 -19.69872,1.35984 -3.13738,1.56869 -4.14484,3.66453 -3.28912,6.84242 0.90365,3.3559 2.90516,5.45816 5.71073,5.99817 1.29461,0.24919 9.361,0.48396 17.92532,0.52172 l 15.57147,0.0686 z"
       id="path38" /><path
       style="fill:#ffffff;stroke:none;stroke-width:5.55146"
       d="M 162.66371,315.77652 V 210.71665 h 64.76701 64.76702 v 105.05987 105.05986 h -64.76702 -64.76701 z"
       id="path39" /><path
       style="fill:#ffffff;stroke:none;stroke-width:5.55146"
       d="m 200.86729,143.618 c 0,-1.15858 26.34881,-27.85695 27.45883,-27.82311 0.49247,0.015 3.22209,2.10514 6.06582,4.64473 16.17954,14.44911 24.96712,22.54028 25.23308,23.23337 0.24609,0.64129 -5.08394,0.78432 -29.22838,0.78432 -24.97331,0 -29.52935,-0.1295 -29.52935,-0.83931 z"
       id="path40" /><path
       style="fill:#ffffff;stroke:none;stroke-width:5.55146"
       d="m 223.25221,473.44349 c -6.58329,-4.08872 -6.69975,-11.43986 -0.23559,-14.87068 4.23804,-2.24932 8.48488,-0.85466 10.71627,3.51921 2.07513,4.06759 1.23648,7.80572 -2.44647,10.90472 -2.24697,1.8907 -5.42478,2.0674 -8.03421,0.44675 z"
       id="path41" /><path
       style="fill:#ffffff;stroke:none;stroke-width:5.55146"
       d="m 309.1877,145.94101 c -1.65398,-0.38616 -7.95755,-0.89753 -14.00794,-1.13635 -10.9347,-0.43162 -11.01502,-0.44476 -13.38664,-2.18887 -2.99405,-2.20185 -24.81431,-22.63691 -24.81431,-23.23904 0,-0.24435 12.55794,-12.75196 27.90653,-27.794666 15.34859,-15.042715 33.54752,-32.885459 40.44207,-39.650541 12.87999,-12.638117 17.9915,-16.642576 26.8619,-21.044151 9.37541,-4.652166 21.62164,-8.660352 34.02507,-11.136391 7.87367,-1.571784 20.49065,-3.166823 23.16411,-2.928409 l 2.12992,0.189942 -1.95784,5.969311 c -2.65349,8.090319 -6.88243,18.233419 -11.19948,26.861896 -6.78247,13.556088 -12.74426,22.377274 -21.42362,31.698823 -8.71654,9.361484 -62.74785,64.124126 -63.75823,64.621226 -0.53587,0.26364 -2.32756,0.16339 -3.98154,-0.22278 z m -19.20928,-15.43293 c 2.5991,-1.10513 20.47702,-19.68335 26.22475,-27.25201 4.65469,-6.129332 2.42798,-14.302721 -3.89883,-14.311113 -2.46904,-0.0033 -4.44344,1.750619 -16.97566,15.079853 -17.83911,18.97364 -18.51624,19.95627 -16.2647,23.60295 2.06228,3.34016 6.85708,4.60551 10.91444,2.88032 z"
       id="path42" /></g></svg>
