<?xml version="1.0" encoding="UTF-8" standalone="no"?>
<!-- Created with Inkscape (http://www.inkscape.org/) -->

<svg
   width="512"
   height="512"
   viewBox="0 0 135.46667 135.46667"
   version="1.1"
   id="svg1"
   xml:space="preserve"
   xmlns="http://www.w3.org/2000/svg"
   xmlns:svg="http://www.w3.org/2000/svg"><defs
     id="defs1" /><g
     id="layer1"><path
       style="fill:#000000;stroke-width:0.568849"
       d="m 37.690793,133.86596 c -0.476328,-0.20717 -0.828412,-0.71488 -0.995366,-1.43529 -0.04792,-0.20696 -0.102876,-3.33177 -0.122047,-6.94405 l -0.03477,-6.56776 -0.654235,-0.0897 c -1.416601,-0.19418 -1.964536,-0.85167 -1.805592,-2.16669 0.06722,-0.5567 -0.09138,-1.43624 -0.72565,-4.0236 C 31.3491,104.46422 29.958864,97.415265 29.301228,92.094516 28.580564,86.26384 28.546915,85.630652 28.545483,77.871532 28.544179,69.768585 28.694457,66.923573 29.46017,60.577476 l 0.379637,-3.146346 -0.302843,-0.992618 c -0.427075,-1.399847 -0.616036,-8.761884 -0.252388,-9.832997 0.231967,-0.683223 0.230433,-0.692155 -0.603793,-3.522937 -0.724806,-2.459537 -2.072894,-6.848142 -3.916047,-12.748467 -0.625723,-2.003062 -0.757151,-2.905976 -0.525262,-3.608602 0.364455,-1.104304 2.085611,-2.189238 4.330763,-2.729894 l 1.086078,-0.261537 -0.09048,-2.882314 c -0.118341,-3.768236 -0.02799,-4.02865 1.455285,-4.194748 l 0.376262,-0.04213 -0.05278,-5.136449 c -0.06109,-5.9475088 -0.03859,-6.068412 1.130743,-6.0740747 0.525466,-0.00255 0.531358,-0.018825 0.735592,-2.0341588 0.146468,-1.4452586 0.333143,-1.8818008 0.907237,-2.1216749 0.63559,-0.26556526 8.414072,-0.30884536 8.982222,-0.049982 0.603155,0.2748192 0.758302,0.7249463 0.851416,2.4703586 l 0.08818,1.6536509 0.592701,0.095912 c 1.092621,0.1768045 1.13597,0.3280328 1.154129,4.026343 0.0089,1.7912789 0.03105,3.3584629 0.04946,3.4826319 0.0184,0.124168 0.04511,0.978899 0.0593,1.899401 l 0.02581,1.673638 0.694148,0.07823 c 0.427483,0.04819 0.817753,0.201735 1.015916,0.39972 0.304798,0.304505 0.324351,0.488039 0.370281,3.475391 l 0.04843,3.153911 0.628791,0.161685 c 2.935747,0.754887 4.311019,1.833363 4.31144,3.380998 2.04e-4,0.710813 0.01534,0.64977 -2.641109,10.68605 l -2.071489,7.826403 0.03591,4.966758 c 0.02876,3.973497 -0.01021,5.179449 -0.192042,6.030276 -0.179543,0.837421 -0.198815,1.381393 -0.09074,2.558641 0.984069,10.714817 1.107943,12.865682 1.117579,19.40552 0.0089,6.263976 -0.09495,7.804004 -0.911365,13.470447 -1.013973,7.037718 -2.264949,13.390488 -3.852914,19.566008 -0.585366,2.27645 -1.105477,4.58576 -1.155843,5.13181 -0.12588,1.36562 -0.468379,1.73054 -1.803061,1.92131 l -0.696601,0.0995 -0.07527,6.99684 c -0.05802,5.39 -0.120641,7.07644 -0.273002,7.34351 -0.470846,0.82555 -1.688248,1.14794 -2.689787,0.71234 z m 1.622969,-19.15759 c 0.157179,-0.41221 1.839945,-7.34143 2.319877,-9.55262 0.138686,-0.639 0.225218,-1.24267 0.192284,-1.34147 -0.09074,-0.27241 -3.429953,9.80934 -3.429953,10.3559 0,0.67313 0.138097,0.95209 0.471343,0.95209 0.176285,0 0.350076,-0.16112 0.446449,-0.4139 z m -0.350063,-14.41111 c 4.187961,-11.42875 5.777972,-15.921509 5.992353,-16.932122 0.146852,-0.692269 0.203364,-2.05646 0.193306,-4.665748 -0.0115,-3.106012 -0.174725,-7.101293 -0.257218,-6.315055 -0.03413,0.324696 -3.351589,9.098046 -8.221493,21.7421 l -2.202801,5.719295 0.33037,1.42982 c 0.18169,0.7864 0.514438,2.10712 0.739439,2.93491 0.224988,0.8278 0.495893,1.8305 0.602004,2.22823 0.106069,0.39773 0.238919,0.66864 0.295137,0.60203 0.05623,-0.0666 1.194219,-3.10117 2.528903,-6.74346 z M 35.092343,86.751551 c 0.811247,-2.152257 2.704087,-7.130303 4.2063,-11.062312 5.000668,-13.089149 4.731551,-12.333799 4.718745,-13.244691 -0.0064,-0.455281 -0.131247,-1.725195 -0.277436,-2.82202 l -0.26578,-1.994223 h -0.958779 c -0.535524,0 -0.958765,0.06607 -0.958765,0.149728 0,0.137831 -2.753265,7.34103 -5.724348,14.976302 -1.918515,4.930289 -3.00251,7.762494 -3.270067,8.543915 -0.228285,0.666721 -0.226777,0.938369 0.02134,3.837948 0.26228,3.064453 0.457223,4.860308 0.64097,5.904825 l 0.09265,0.526783 0.150036,-0.451523 c 0.08256,-0.248336 0.813791,-2.212462 1.625039,-4.364732 z M 34.101577,65.906234 c 1.193594,-3.097386 3.090319,-8.144418 3.090319,-8.223064 0,-0.03016 -0.745011,-0.05482 -1.655584,-0.05482 -1.476499,0 -1.655557,0.0285 -1.655352,0.263391 2.55e-4,0.28182 -0.653546,7.026442 -0.903391,9.319507 -0.08269,0.759119 -0.144564,1.537996 -0.137459,1.730843 0.01291,0.348173 0.0138,0.347994 0.129715,-0.02568 0.06428,-0.206943 0.573518,-1.561511 1.131752,-3.010151 z m 9.991967,-12.572383 c 0.02952,-0.02856 0.0051,-0.970385 -0.05584,-2.092952 L 43.928428,49.19987 h -5.249629 -5.249618 l -3.8e-5,2.144735 -3.9e-5,2.144736 5.30544,-0.05178 c 2.917996,-0.02849 5.32953,-0.07515 5.358974,-0.103712 z m -7.133679,-8.385825 c 0.116041,-0.366722 2.179172,-7.910506 3.015097,-11.024693 0.46663,-1.738364 1.047267,-3.887632 1.290286,-4.776148 0.243034,-0.888519 0.441887,-1.650464 0.441887,-1.693214 0,-0.04275 -1.337634,-0.07779 -2.972527,-0.07788 l -2.972528,-1.58e-4 0.09303,6.058095 c 0.05125,3.331951 0.101985,7.328004 0.112847,8.880116 l 0.01981,2.82202 h 0.456238 c 0.250931,0 0.483038,-0.08467 0.51578,-0.188134 z m 7.652883,-1.439414 c 0.350269,-1.327422 1.52928,-5.830713 3.1203,-11.918149 0.836208,-3.199438 0.874994,-3.533065 0.437849,-3.767015 -0.190228,-0.101799 -0.766865,-0.218892 -1.281443,-0.260196 -0.82206,-0.06598 -0.94573,-0.04081 -1.019315,0.20759 -0.04613,0.155478 -0.294396,1.09543 -0.551858,2.088782 -0.25746,0.99335 -0.799221,3.025205 -1.203919,4.515231 -1.24948,4.600389 -2.858736,10.588255 -2.859082,10.638383 -1.79e-4,0.02623 0.668626,0.02643 1.486226,4.51e-4 l 1.486545,-0.04722 z M 31.90597,37.686027 C 31.85089,36.278779 31.798619,33.41645 31.789674,31.325295 l -0.0161,-3.802099 -0.60203,0.07704 c -0.331124,0.04236 -0.888106,0.114123 -1.237761,0.159453 -0.747412,0.0969 -1.17036,0.428183 -1.17036,0.916697 0,0.351729 0.279251,1.427784 1.674178,6.451015 0.857626,3.08838 1.499069,5.240196 1.540309,5.167133 0.01546,-0.02742 -0.01687,-1.201252 -0.07194,-2.6085 z m 7.355408,-14.521944 4.552863,-0.0021 V 21.58167 20.001339 h -4.891502 -4.891502 v 1.673139 c 0,1.661659 0.0026,1.672517 0.338651,1.582387 0.186253,-0.0499 2.387418,-0.09168 4.89149,-0.0928 z m 2.391941,-8.452567 c -0.05316,-0.508818 -0.09674,-1.863389 -0.09674,-3.010155 V 9.6163301 h -3.010151 -3.010165 v 3.0101549 3.010155 h 3.106857 3.106856 z m -1.11262,-9.1522106 c 0.06211,-0.0037 0.112846,-0.1082835 0.112846,-0.2324465 0,-0.1895281 -0.326103,-0.2257613 -2.031859,-0.2257613 -1.663916,0 -2.031858,0.039067 -2.031858,0.2157649 0,0.1199256 0.183861,0.2434677 0.413898,0.2781304 0.314958,0.047464 2.506398,0.025355 3.536934,-0.035694 z M 43.57016,133.87832 c -1.269901,-0.57524 -1.28502,-1.61015 -0.07234,-4.94887 0.846866,-2.3315 3.568117,-9.43391 6.155143,-16.0648 4.481411,-11.48647 11.210353,-28.812024 12.070841,-31.079848 0.565365,-1.490034 2.05577,-5.384419 3.311998,-8.654204 2.353589,-6.12603 5.398207,-14.123468 8.680671,-22.801919 1.03322,-2.731715 2.355787,-6.219734 2.939019,-7.75115 0.583243,-1.531417 1.821157,-4.816248 2.750925,-7.299627 l 1.690489,-4.515232 -0.618043,-0.349831 c -1.324587,-0.749761 -1.897352,-1.636927 -1.897352,-2.938829 0,-0.80115 1.297928,-4.781673 3.786179,-11.611607 1.318849,-3.620054 2.488646,-5.576755 4.708751,-7.8762364 3.661218,-3.7921145 7.760692,-5.5954883 12.715557,-5.5936032 7.003072,0.00268 13.184842,3.829236 16.126722,9.9825826 0.79336,1.659411 1.30306,3.438844 1.57142,5.486024 0.2812,2.14515 0.28097,3.267339 -10e-4,5.531114 -0.72428,5.812328 -3.09063,10.132373 -6.24096,11.393522 -0.6903,0.276351 -1.13398,0.334598 -2.5728,0.337763 -1.71043,0.0037 -1.75727,-0.0053 -2.88548,-0.562968 -2.1314,-1.053394 -3.42842,-3.002674 -3.55091,-5.336644 -0.0854,-1.625155 0.11885,-2.60299 1.05233,-5.039969 0.5398,-1.409226 0.78793,-2.29266 0.83975,-2.989842 0.15013,-2.019719 -0.77902,-3.721896 -2.5264,-4.628345 -0.8855,-0.459344 -1.06905,-0.500044 -2.027202,-0.449477 -1.866348,0.0985 -3.138218,1.033507 -4.100485,3.014443 -0.252695,0.520219 -1.34892,3.441728 -2.436044,6.492245 -2.155095,6.047292 -2.31874,6.43299 -3.006779,7.086643 -0.38292,0.363778 -0.624995,0.453471 -1.3692,0.507302 -0.747362,0.05406 -1.140149,-0.01973 -2.26633,-0.425824 -0.77356,-0.278932 -0.850249,-0.498048 -0.916794,-0.421718 -0.06441,0.07393 -0.456796,1.028125 -0.766055,1.855917 -3.462052,9.346481 -10.361713,26.768963 -12.234118,31.648925 -0.508189,1.324472 -1.310553,3.327284 -1.544973,3.948127 -2.613096,6.920511 -14.535937,37.735256 -17.874017,46.236866 -4.359813,11.10384 -5.958451,15.49542 -6.416908,16.6078 -0.364944,0.88548 -0.860457,1.30818 -1.81434,1.37155 -0.470642,0.0312 -0.981731,-0.0337 -1.261175,-0.16028 z M 110.02472,30.694016 c 1.18109,-0.602546 1.98115,-2.018393 2.70805,-4.79237 1.15861,-4.42138 0.96328,-8.270264 -0.58771,-11.579996 -0.79616,-1.698947 -1.69038,-2.918979 -3.12646,-4.265621 -2.546,-2.3874631 -5.62014,-3.5858647 -9.215468,-3.5924974 -3.446224,-0.00639 -6.667088,1.3895821 -9.345438,4.0503724 -2.337231,2.321902 -3.095635,3.749642 -5.239444,9.863731 -0.841741,2.400598 -1.697284,4.825766 -1.901211,5.389263 -0.203928,0.563495 -0.37078,1.092798 -0.37078,1.176228 0,0.259085 4.426764,2.123238 4.563049,1.921545 0.02173,-0.03224 0.184515,-0.498837 0.361642,-1.036902 0.833344,-2.531585 3.412932,-9.519867 3.861221,-10.460289 1.454659,-3.051649 3.864634,-4.923904 6.903655,-5.363301 4.236644,-0.612554 8.095614,1.963096 9.388544,6.266347 0.19372,0.644792 0.26883,1.376516 0.26259,2.558633 -0.009,1.771022 -0.0336,1.867172 -1.48109,5.869802 -0.78184,2.161927 -0.6281,3.066243 0.67163,3.950828 0.63867,0.43469 1.74421,0.453885 2.54722,0.04423 z"
       id="path83" /><path
       style="fill:#ffffff;stroke-width:0.537893"
       d="m 140.66199,21.165205 c -1.21726,-0.06049 -1.91638,-0.305683 -2.23058,-0.782302 -0.34387,-0.521631 0.13487,-0.793585 1.68112,-0.954975 0.34942,-0.03647 2.4247,-0.07593 4.88731,-0.09293 5.78049,-0.03991 7.68979,0.05293 8.32274,0.404654 0.28357,0.157577 0.34382,0.344331 0.2401,0.744201 -0.1314,0.506547 -0.0878,0.492801 -1.7958,0.565844 -3.60627,0.154222 -9.16277,0.212019 -11.10489,0.11551 z"
       id="path84"
       transform="scale(0.26458333)" /><path
       style="fill:#ffffff;stroke-width:0.537893"
       d="M 134.32873,47.716341 V 36.380095 h 11.35906 11.35906 l 0.0299,7.070694 c 0.0355,8.378025 0.0878,9.868944 0.47741,13.605087 0.1094,1.049044 0.19891,1.927458 0.19891,1.952032 0,0.02457 -5.27048,0.04468 -11.71219,0.04468 h -11.71219 z"
       id="path85"
       transform="scale(0.26458333)" /><path
       style="fill:#ffffff;stroke-width:2.15157"
       d="m 128.98193,87.34382 c -0.1348,-0.354561 -0.23457,-2.972052 -0.23457,-6.154345 v -5.537386 h 18.39248 18.39248 v 5.873408 5.873408 l -17.75626,0.104777 c -9.76594,0.05763 -17.937,0.184049 -18.15791,0.280937 -0.30477,0.133669 -0.45823,0.02734 -0.63622,-0.440799 z"
       id="path86"
       transform="scale(0.26458333)" /><path
       style="fill:#ffffff;stroke-width:2.15157"
       d="m 136.06135,158.79077 c -0.0843,-6.47163 -0.25233,-19.36651 -0.37333,-28.6553 -0.12101,-9.28878 -0.28062,-19.05189 -0.3547,-21.6958 l -0.13469,-4.80711 10.98339,0.0644 c 6.04087,0.0354 11.05253,0.1336 11.13702,0.21818 0.15897,0.15914 -0.84252,3.9357 -9.37666,35.35875 -7.31572,26.93681 -8.2819,30.36667 -8.66086,30.74564 -0.19282,0.19282 -0.93221,0.38345 -1.70375,0.43925 l -1.36309,0.0986 z"
       id="path87"
       transform="scale(0.26458333)" /><path
       style="fill:#ffffff;stroke-width:2.15157"
       d="m 119.44368,147.60255 c -2.19865,-7.22865 -8.48856,-29.89217 -9.89793,-35.66375 -0.81214,-3.32587 -0.84623,-3.99305 -0.25369,-4.96478 0.69349,-1.13728 2.09457,-1.65866 5.82439,-2.1674 1.83466,-0.25024 3.6573,-0.50045 4.05031,-0.55601 l 0.71455,-0.10102 0.15369,14.61241 c 0.0845,8.03682 0.26582,18.04798 0.40286,22.24702 0.13703,4.19903 0.21481,8.20721 0.17283,8.90705 l -0.0763,1.27243 z"
       id="path88"
       transform="scale(0.26458333)" /><path
       style="fill:#ffffff;stroke-width:2.15157"
       d="m 156.99925,166.54956 c 0.51462,-1.95916 3.15687,-11.78667 5.87167,-21.83891 2.7148,-10.05224 5.94422,-22.07676 7.17649,-26.72115 3.57818,-13.48606 3.51128,-13.2568 3.96702,-13.59393 0.49727,-0.36785 3.33138,-0.22042 5.97739,0.31094 3.52426,0.70773 3.61382,1.36924 1.39111,10.27541 -1.43748,5.75987 -14.25799,54.6977 -14.35585,54.79847 -0.0447,0.046 -2.5298,0.13943 -5.5224,0.2075 l -5.4411,0.12378 z"
       id="path89"
       transform="scale(0.26458333)" /><path
       style="fill:#ffffff;stroke-width:2.15157"
       d="m 124.36373,259.40589 c -0.007,-0.66665 0.56141,-6.91315 1.2623,-13.88112 0.70089,-6.96796 1.56896,-15.87433 1.92904,-19.79192 0.40787,-4.43757 0.76022,-7.22859 0.93462,-7.40326 0.35003,-0.35057 11.30552,-0.54563 11.64383,-0.20732 0.22661,0.2266 -2.38647,7.36212 -10.52122,28.73027 -2.34939,6.17131 -4.48872,11.79316 -4.75407,12.493 l -0.48244,1.27244 z"
       id="path90"
       transform="scale(0.26458333)" /><path
       style="fill:#ffffff;stroke-width:2.15157"
       d="m 125.88844,344.94577 c -0.44504,-1.13083 -1.74382,-12.78472 -2.68147,-24.06061 -0.70694,-8.50146 -0.77954,-10.17082 -0.50599,-11.63473 0.31675,-1.6951 2.01219,-6.21055 12.57056,-33.4789 10.93786,-28.24845 16.68595,-43.22729 19.48735,-50.78175 1.22683,-3.30834 2.31594,-6.17132 2.42025,-6.36218 0.27097,-0.49578 1.16073,-0.63561 4.24228,-0.66669 2.63451,-0.0266 2.71755,-0.0121 2.8361,0.49317 0.33797,1.44054 1.77383,13.84991 1.89393,16.36815 0.11927,2.50113 0.0723,3.13025 -0.3476,4.65581 -0.78314,2.84521 -3.14505,9.16361 -17.84798,47.74541 -11.2186,29.43861 -21.05515,55.46715 -21.81408,57.72232 -0.1038,0.30846 -0.13195,0.30846 -0.25335,0 z"
       id="path91"
       transform="scale(0.26458333)" /><path
       style="fill:#ffffff;stroke-width:2.15157"
       d="m 137.20802,403.66822 c -0.50075,-1.19848 -3.66102,-13.08057 -5.34243,-20.08668 l -1.47134,-6.13083 9.91638,-25.79574 c 14.94578,-38.87884 26.09293,-68.2529 28.57748,-75.30506 0.35863,-1.01795 0.72308,-1.93347 0.80988,-2.0345 0.49022,-0.57056 1.02918,24.3213 0.70555,32.58585 -0.26165,6.68196 -0.42199,7.78178 -1.76148,12.08276 -2.6408,8.47935 -30.2866,84.60818 -31.01145,85.39688 -0.0472,0.0514 -0.23735,-0.26936 -0.42259,-0.71268 z"
       id="path92"
       transform="scale(0.26458333)" /><path
       style="fill:#ffffff;stroke-width:1.07579"
       d="m 146.31717,434.94398 c -0.6679,-0.26986 -1.08598,-1.38475 -1.08598,-2.89594 0,-0.81225 0.089,-1.32595 0.47239,-2.72631 2.24734,-8.20884 12.0849,-37.50786 12.33842,-36.7473 0.0641,0.19239 -0.26348,2.4214 -0.60932,4.14572 -1.01029,5.03721 -7.39234,31.51294 -8.6821,36.01745 -0.521,1.81957 -1.40561,2.62166 -2.43341,2.20638 z"
       id="path93"
       transform="scale(0.26458333)" /><path
       style="fill:#ffffff;stroke-width:4.30315"
       d="m 409.03026,116.64432 c -2.00095,-0.49723 -3.0323,-1.14031 -4.83668,-3.01582 -1.41411,-1.46986 -1.61933,-1.99981 -1.7856,-4.61096 -0.1671,-2.62434 0.0771,-3.71009 2.21072,-9.82917 4.6226,-13.257327 4.68939,-13.553573 4.68014,-20.760057 -0.01,-7.403985 -0.57486,-10.179285 -3.09768,-15.206162 -2.15926,-4.302489 -4.20596,-7.048303 -7.51737,-10.085194 -5.69991,-5.227378 -11.71693,-7.730229 -19.54292,-8.129109 -13.40698,-0.683336 -24.81157,5.968433 -31.57298,18.415062 -1.70732,3.14289 -7.87807,19.262473 -13.00647,33.976263 -4.32609,12.411897 -3.84403,11.435127 -5.46759,11.078537 -3.53286,-0.77595 -15.14923,-6.12918 -15.14923,-6.9813 0,-0.33837 2.51774,-7.749285 5.59497,-16.468695 10.76167,-30.493471 12.97395,-35.038531 21.2045,-43.563993 14.12697,-14.633181 31.20741,-19.83983 49.62785,-15.128116 8.42704,2.155529 15.98677,6.544129 22.6678,13.15919 15.64252,15.488053 19.65084,38.001918 11.24218,63.144884 -1.82159,5.44679 -3.29572,8.31129 -5.47949,10.64765 -2.57028,2.74986 -6.61874,4.14061 -9.77215,3.35699 z"
       id="path94"
       transform="scale(0.26458333)" /><path
       style="fill:#ffffff;stroke-width:2.46062"
       d="M 82.574814,31.401689 44.19497,131.66674"
       id="path95" /><path
       style="fill:#ffffff;stroke-width:2.46062"
       d="M 44.684666,131.97279 83.554204,31.891385"
       id="path96" /><path
       style="fill:#ffffff;stroke:#ffffff;stroke-width:1.463;stroke-dasharray:none"
       d="M 83.202952,31.646843 44.746678,131.60522"
       id="path97" /></g></svg>
