<?xml version="1.0" encoding="UTF-8" standalone="no"?>
<!-- Created with Inkscape (http://www.inkscape.org/) -->

<svg
   width="497.1134"
   height="510.18195"
   viewBox="0 0 131.52792 134.98564"
   version="1.1"
   id="svg1"
   xml:space="preserve"
   xmlns="http://www.w3.org/2000/svg"
   xmlns:svg="http://www.w3.org/2000/svg"><defs
     id="defs1" /><g
     id="layer1"
     transform="translate(-0.96224231,-0.32991997)"><path
       style="fill:#000000"
       d="m 10.085281,135.03516 c -3.8616362,-1.18311 -8.215649,-6.1472 -8.9817584,-10.24026 -0.49490977,-2.64414 0.3317897,-5.45895 2.1450169,-7.30349 0.3593759,-0.36559 3.4592511,-2.82165 6.8886095,-5.45791 7.223645,-5.55306 12.075333,-9.34076 17.144503,-13.384688 1.983967,-1.582708 4.57055,-3.639824 5.747962,-4.571381 1.177414,-0.931557 2.129679,-1.726766 2.116147,-1.767129 -0.01353,-0.04036 -1.459408,-1.776646 -3.213054,-3.858407 -2.744132,-3.257566 -3.207728,-3.889929 -3.326801,-4.53787 -0.268886,-1.46314 0.0046,-1.881033 3.022189,-4.617317 4.05779,-3.679568 4.761624,-4.073368 6.278037,-3.512609 0.557672,0.206223 1.318174,0.97149 4.162702,4.188795 l 3.480373,3.936467 2.444657,-2.013082 C 53.306083,77.521872 54.907447,76.158445 59.805556,71.839645 67.145655,65.367675 74.646803,58.315551 80.067476,52.790622 82.835272,49.969588 90.52633,41.852833 92.980605,39.162762 103.27233,27.882206 112.97971,15.449136 120.75129,3.5944634 c 1.71836,-2.62117135 2.23665,-3.15746255 3.13503,-3.24392368 1.09487,-0.10537043 1.72178,0.17696932 2.71269,1.22169948 4.38163,4.6196142 6.64563,11.4257138 5.66471,17.0294498 -0.42621,2.43478 -1.15777,4.285902 -2.84586,7.201087 -2.04891,3.53825 -4.2397,6.679677 -8.81008,12.632946 -11.34385,14.776236 -18.67072,22.8407 -33.252659,36.600209 -5.507362,5.196743 -23.901994,21.484289 -26.909427,23.82698 -0.414209,0.322655 -0.758923,0.676093 -0.766031,0.785412 -0.0071,0.109319 1.429649,1.894827 3.192793,3.967797 1.763144,2.07297 3.267413,3.96963 3.34282,4.2148 0.203644,0.66209 0.09452,1.6418 -0.22762,2.04349 -0.156118,0.19466 -0.735486,0.72267 -1.287486,1.17335 -0.551999,0.45068 -1.967853,1.61903 -3.146342,2.59632 -2.852969,2.36592 -3.333212,2.66151 -4.229444,2.60323 -0.394786,-0.0257 -0.925054,-0.13661 -1.178371,-0.24656 -0.253995,-0.11022 -1.980677,-1.97684 -3.84963,-4.16158 l -3.389053,-3.96168 -1.749853,1.49738 c -3.474715,2.97337 -15.617605,12.87504 -22.263061,18.15394 -3.791099,3.01151 -8.017211,6.16215 -9.096688,6.78173 -1.74617,1.00225 -3.910267,1.27676 -5.712447,0.72462 z m 3.539627,-5.15133 c 0.41927,-0.15829 1.282694,-0.68717 1.918721,-1.1753 1.820269,-1.39701 12.353093,-9.76269 16.087569,-12.77752 8.664866,-6.99514 14.107312,-11.44126 14.113047,-11.52947 0.0035,-0.0531 -1.64427,-1.97536 -3.661605,-4.2717 l -3.667881,-4.175181 -1.123852,0.899194 c -5.707654,4.566687 -24.261523,19.102967 -28.7415727,22.517977 -2.3940974,1.82494 -2.9842324,3.62456 -2.0053305,6.11527 0.6176559,1.57156 2.628493,3.63594 4.2052642,4.31723 0.876552,0.37874 2.000656,0.40983 2.87564,0.0795 z m 45.483815,-20.6427 1.387873,-1.12846 L 48.73229,94.772435 36.967985,81.432194 l -1.316541,1.045229 -1.316541,1.04523 6.129929,7.133228 c 9.128706,10.622829 17.04167,19.716369 17.15545,19.714949 0.05529,-4.1e-4 0.725112,-0.50905 1.488441,-1.1297 z m -0.272658,-15.348622 0.935539,-0.777517 -2.107708,-2.41208 c -1.159239,-1.326642 -2.173017,-2.629436 -2.252837,-2.895084 -0.333741,-1.110746 0.04837,-1.969973 1.205235,-2.71013 0.835441,-0.534509 1.870664,-0.579715 2.637445,-0.115184 0.24038,0.145624 1.304009,1.312846 2.363624,2.593818 l 1.92657,2.329042 2.094856,-1.673072 c 1.15217,-0.920191 2.106733,-1.749051 2.12125,-1.841915 0.01456,-0.09285 -0.919423,-1.243987 -2.075426,-2.558043 -2.283476,-2.595672 -2.68805,-3.313876 -2.431619,-4.31657 0.213236,-0.833791 1.272056,-1.761226 2.129244,-1.865033 1.225243,-0.14838 1.705126,0.191589 3.961891,2.806807 l 2.097796,2.430987 4.2017,-3.743964 C 82.640778,72.909682 89.914251,65.974949 95.112839,60.582071 105.16949,50.149555 116.24702,36.560819 123.16333,26.172721 c 2.92186,-4.388543 3.571,-5.922537 3.92549,-9.276455 0.26856,-2.540838 0.064,-4.138047 -0.8137,-6.354118 -0.82948,-2.0942902 -1.84448,-3.7846758 -1.8863,-3.141475 -0.0284,0.4368545 -6.76394,9.794247 -11.15646,15.499207 -12.8181,16.648016 -30.007829,34.898735 -47.458053,50.38729 -3.967587,3.521571 -15.03834,12.958965 -16.654136,14.197014 -0.103643,0.07944 1.286621,1.794263 3.500519,4.317808 l 3.672433,4.186094 0.803701,-0.659031 c 0.442037,-0.362472 1.224695,-1.008912 1.739241,-1.436547 z"
       id="path80" /><path
       style="fill:#ffffff;stroke-width:6.08557"
       d="m 202.18008,350.084 c -12.3066,-14.07009 -16.23597,-19.03642 -15.54607,-19.64869 0.28246,-0.25068 4.34158,-3.64481 9.02027,-7.54251 12.2714,-10.22303 43.01931,-36.58991 53.33052,-45.73186 50.43399,-44.71497 103.61086,-99.17641 147.94946,-151.52341 20.77105,-24.5227 52.29023,-65.786835 68.93364,-90.246212 l 4.93241,-7.248731 1.70418,2.699598 c 2.89332,4.583315 6.68001,14.983414 7.47725,20.536182 1.22898,8.559854 -0.57317,21.03498 -4.23476,29.314489 -5.64369,12.761366 -31.93082,49.525734 -60.20899,84.206404 -38.07446,46.69496 -76.95874,86.63533 -133.59472,137.22316 l -11.86533,10.59823 -7.0492,-8.12872 c -8.11534,-9.35815 -10.72416,-11.43769 -14.34881,-11.43769 -3.38955,0 -7.74344,2.62005 -9.09824,5.47506 -2.26899,4.78156 -1.29601,6.93213 8.34442,18.44373 4.18127,4.99283 7.59273,9.23605 7.58102,9.42936 -0.0251,0.4149 -14.11701,12.04413 -14.9183,12.31123 -0.30159,0.10053 -3.06045,-2.84375 -6.13081,-6.54284 -3.07035,-3.69908 -6.94057,-7.97708 -8.60047,-9.50665 -2.72341,-2.50959 -3.34196,-2.78104 -6.33693,-2.78104 -3.85118,0 -6.35518,1.12097 -8.68263,3.88699 -4.07747,4.8458 -2.95509,7.86113 7.36564,19.78815 l 7.18013,8.29764 -6.09562,4.9532 c -3.35259,2.72426 -6.25546,4.9532 -6.45082,4.9532 -0.19536,0 -4.99112,-5.30023 -10.65724,-11.77827 z"
       id="path81"
       transform="scale(0.26458333)" /><path
       style="fill:#ffffff;stroke-width:6.08557"
       d="m 203.07646,399.94402 c -20.28094,-23.20179 -71.44105,-82.56069 -72.03981,-83.58473 -0.70013,-1.19742 7.90025,-7.90329 9.11021,-7.10339 0.48634,0.32151 20.4736,22.80684 44.41612,49.96738 41.64375,47.24091 43.47601,49.42631 42.24391,50.38589 -0.70837,0.55169 -3.03042,2.3861 -5.16011,4.07646 l -3.87215,3.07338 z"
       id="path82"
       transform="scale(0.26458333)" /><path
       style="fill:#ffffff;stroke-width:6.08557"
       d="m 39.752227,489.44119 c -5.009623,-2.50333 -12.089301,-9.83992 -14.439455,-14.96343 -1.245235,-2.71471 -1.685557,-4.76635 -1.699263,-7.91755 -0.03342,-7.68213 1.132583,-8.99545 23.119871,-26.04087 15.087516,-11.69644 68.52745,-53.59188 90.98653,-71.33093 l 7.50184,-5.92524 2.07604,2.40777 c 1.14182,1.32427 7.23553,8.29703 13.54158,15.49501 8.75454,9.99279 11.29982,13.2881 10.76466,13.9367 -1.53827,1.86438 -64.6156,52.74447 -105.655553,85.22499 -14.585474,11.54347 -18.563828,12.92752 -26.19625,9.11355 z"
       id="path83"
       transform="scale(0.26458333)" /></g></svg>
