<?xml version="1.0" encoding="UTF-8" standalone="no"?>
<!-- Created with Inkscape (http://www.inkscape.org/) -->

<svg
   width="501.6499"
   height="507.72089"
   viewBox="0 0 132.72821 134.33449"
   version="1.1"
   id="svg1"
   xml:space="preserve"
   xmlns="http://www.w3.org/2000/svg"
   xmlns:svg="http://www.w3.org/2000/svg"><defs
     id="defs1" /><g
     id="layer1"
     transform="translate(-0.95150454,-0.61138127)"><path
       style="fill:#000000;stroke-width:0.696766"
       d="M 8.286586,67.365877 C 4.8375295,64.204186 2.3842183,59.771539 1.3874698,54.900545 -0.42399579,46.048169 3.5170474,36.689237 11.211444,31.571216 c 1.780332,-1.184205 2.455761,-1.507854 6.025752,-2.887367 1.476485,-0.570542 4.450656,-1.770005 6.609274,-2.665475 2.158616,-0.895468 4.966104,-2.060365 6.238862,-2.588655 C 31.35809,22.90143 38.216697,20.028408 45.326683,17.045227 74.708946,4.7171252 78.479129,3.2283436 83.570041,1.9435763 90.036808,0.31159024 98.06691,0.17254514 105.59184,1.5622543 c 3.25888,0.6018605 6.30252,1.3563561 7.06121,1.7504387 0.96294,0.5001799 1.51296,1.4060991 1.39082,2.2908894 -0.22728,1.6467153 -4.62184,8.6887586 -7.60853,12.1922886 -4.25169,4.987379 -9.379132,9.155667 -14.854681,12.075903 -1.808445,0.964482 -7.346143,3.315875 -19.133899,8.124545 -3.854424,1.57236 -9.278024,3.794116 -12.052449,4.937229 l -5.044407,2.078389 35.355832,25.119022 c 38.074534,27.050558 35.867304,25.418567 38.000524,28.096851 3.31937,4.16743 5.14481,9.82781 4.96076,15.38239 -0.11624,3.50696 -0.7003,5.94195 -2.18456,9.1074 -1.01671,2.16825 -3.39464,5.32044 -5.16344,6.84465 -6.37692,5.49507 -15.80739,6.91648 -24.20752,3.64875 L 100.20579,132.46967 54.725663,100.3573 C 28.833354,82.075413 8.8325331,67.866321 8.2865795,67.365888 Z m 93.581244,59.611233 c 6.20013,3.42134 13.4558,3.22792 18.96675,-0.50554 5.61016,-3.80065 8.13884,-10.39337 6.71498,-17.50714 -0.64683,-3.23274 -1.98942,-5.9417 -4.1977,-8.47108 C 122.47465,99.488517 120.14952,97.820375 78.202224,68.100727 45.411203,44.868282 33.575957,36.551586 32.425351,35.931254 29.71814,34.472667 26.690593,33.630217 24.035313,33.596641 c -1.410694,-0.01784 -4.261665,0.477271 -5.923788,1.02874 -5.071935,1.682805 -9.0048233,5.668936 -10.618588,10.76234 -2.095704,6.614518 -0.1675222,13.640109 5.070188,18.473926 1.320769,1.218918 87.462095,62.098683 89.304495,63.115783 z m 3.19041,-9.88899 c -0.86541,-1.16975 -1.20289,-2.0045 -1.40538,-3.47612 -0.65267,-4.74319 2.88189,-8.6846 7.67411,-8.55749 3.72374,0.0988 6.92654,2.98622 7.46235,6.72759 0.74069,5.17193 -3.43282,9.12168 -8.75275,8.28356 -1.35598,-0.21364 -1.65604,-0.33354 -2.91792,-1.1659 -1.05561,-0.69636 -1.56964,-1.14837 -2.06041,-1.81164 z m 5.71006,-2.17256 c 0.85581,0.19094 1.60109,-0.13416 2.17757,-0.9497 0.58975,-0.83441 0.55171,-1.88282 -0.0985,-2.71292 -0.87484,-1.11699 -2.70854,-0.97758 -3.59449,0.27336 -0.33691,0.47569 -0.38085,0.76388 -0.24076,1.57943 0.18944,1.10325 0.63179,1.55902 1.75611,1.80986 z M 32.495448,30.080795 c 2.670773,1.017872 5.088484,2.487291 11.290007,6.861764 l 5.876079,4.144933 6.227101,-2.532157 c 3.424912,-1.392693 10.888024,-4.418813 16.584705,-6.724715 12.648554,-5.11989 14.950451,-6.099366 16.753497,-7.12875 3.416993,-1.950809 6.420338,-4.171731 9.204504,-6.806562 2.838549,-2.686277 6.451449,-7.17127 7.794289,-9.6756462 l 0.46193,-0.8615123 -2.84065,-0.4526131 C 97.877845,5.954468 93.671707,5.9505737 88.147094,6.8910316 82.425989,7.8649385 80.782057,8.462165 59.868145,17.164443 c -11.571803,4.815032 -13.848324,5.759554 -14.792499,6.137366 -0.56083,0.224424 -2.241048,0.91622 -3.73381,1.537336 -1.492763,0.621117 -4.435821,1.842573 -6.540125,2.714351 -4.842788,2.006282 -4.452525,1.818535 -4.008064,1.928199 0.202366,0.04993 0.968166,0.31954 1.70178,0.599131 z"
       id="path75" /><path
       style="fill:#ffffff;stroke-width:3.28616"
       d="m 110.91362,129.22828 c -0.88002,0.002 -2.8895,-0.32128 -4.46553,-0.71849 -2.45716,-0.61927 -3.6089,-1.22583 -8.082425,-4.25666 C 90.449939,118.89021 21.591496,70.214192 14.398813,64.896984 8.2705047,60.366617 5.6541498,53.341872 7.5076796,46.394736 8.9787471,40.881087 12.826212,36.736504 18.226775,34.84786 c 5.395814,-1.886985 10.711755,-1.036423 16.019056,2.563081 7.82378,5.306228 82.362969,58.130984 86.981179,61.642197 6.7177,5.107472 8.52358,15.263682 3.9941,22.462752 -2.99645,4.76251 -8.44388,7.69891 -14.30749,7.71239 z m 5.45771,-10.69954 c 4.93024,-3.96527 2.5621,-12.21872 -3.87902,-13.51916 -6.67126,-1.3469 -11.68118,6.45736 -7.67229,11.9516 2.76873,3.79458 7.91416,4.49284 11.55131,1.56756 z"
       id="path76" /><path
       style="fill:#ffffff;stroke-width:3.28616"
       d="m 42.664232,35.975649 c -3.99598,-2.6823 -8.213305,-5.286257 -9.371833,-5.78657 l -2.106416,-0.90966 18.584931,-7.725024 C 81.317593,8.4416839 80.852648,8.6174953 87.249899,7.3823377 91.046861,6.6492339 93.658566,6.3291743 95.514604,6.3695112 98.822568,6.4414022 106.1516,7.326382 106.2182,7.6619698 c 0.0637,0.3211293 -2.52069,4.0056822 -4.35223,6.2048952 -2.174798,2.611335 -5.579696,5.809701 -8.135652,7.642139 -4.691814,3.363697 -5.609535,3.781717 -29.622574,13.493067 -7.252565,2.933078 -13.409595,5.449336 -13.682289,5.591681 -0.31451,0.164172 -3.152459,-1.52447 -7.761223,-4.618103 z"
       id="path77" /><path
       style="fill:#ffffff;stroke-width:0.580917"
       d="m 111.06795,114.92511 c -0.75716,-0.0772 -1.48814,-0.49331 -1.75417,-0.9986 -0.20262,-0.38487 -0.36726,-1.20258 -0.32771,-1.62773 0.0377,-0.40677 0.42995,-0.98903 0.89782,-1.33316 0.2769,-0.20368 0.39754,-0.25058 0.90175,-0.35062 0.4671,-0.0928 0.6438,-0.10051 0.8948,-0.0399 0.46666,0.11264 0.91959,0.4186 1.20894,0.8166 0.21936,0.30174 0.26723,0.42057 0.36222,0.89911 0.10153,0.51178 0.0999,0.58227 -0.0238,0.98039 -0.24904,0.80252 -0.93223,1.47481 -1.62884,1.60281 -0.20276,0.0373 -0.44177,0.0603 -0.53115,0.0512 z"
       id="path78" /></g></svg>
