<?xml version="1.0" encoding="UTF-8" standalone="no"?>
<!-- Created with Inkscape (http://www.inkscape.org/) -->

<svg
   width="512"
   height="512"
   viewBox="0 0 512 512"
   version="1.1"
   id="svg1"
   xml:space="preserve"
   xmlns="http://www.w3.org/2000/svg"
   xmlns:svg="http://www.w3.org/2000/svg"><defs
     id="defs1" /><g
     id="g242"
     transform="translate(-34.025069,96.105898)"><path
       style="fill:#d0d0d0;fill-opacity:1"
       d="m 71.958208,315.25 c 2.452014,-2.6125 4.589514,-4.75 4.75,-4.75 0.750886,0 -0.04302,0.89783 -4.458208,5.04179 L 67.5,320 Z M 158,227 c 7.96077,-7.975 14.69913,-14.5 14.97413,-14.5 0.275,0 -6.01336,6.525 -13.97413,14.5 -7.96077,7.975 -14.69913,14.5 -14.97413,14.5 -0.275,0 6.01336,-6.525 13.97413,-14.5 z M 246.98213,220.75 236.5,210 l 10.75,10.48213 c 9.98483,9.73603 11.20434,11.01787 10.48213,11.01787 -0.14732,0 -4.98482,-4.8375 -10.75,-10.75 z M 183,204.12244 c 0,-0.20765 0.7875,-0.99515 1.75,-1.75 1.58606,-1.24387 1.62143,-1.2085 0.37756,0.37756 C 183.82119,204.41575 183,204.94548 183,204.12244 Z M 300.40499,173.25 298.5,171 l 2.25,1.90499 c 2.11444,1.79022 2.70524,2.59501 1.90499,2.59501 -0.18976,0 -1.20226,-1.0125 -2.25,-2.25 z M 242.5,131.5 c 2.14824,-2.2 4.1309,-4 4.4059,-4 0.275,0 -1.25766,1.8 -3.4059,4 -2.14824,2.2 -4.1309,4 -4.4059,4 -0.275,0 1.25766,-1.8 3.4059,-4 z M 355,128.12244 c 0,-0.20765 0.7875,-0.99515 1.75,-1.75 1.58606,-1.24387 1.62143,-1.2085 0.37756,0.37756 C 355.82119,128.41575 355,128.94548 355,128.12244 Z M 382,101 c 12.91622,-12.925 23.70904,-23.5 23.98404,-23.5 0.275,0 -10.06782,10.575 -22.98404,23.5 -12.91622,12.925 -23.70904,23.5 -23.98404,23.5 -0.275,0 10.06782,-10.575 22.98404,-23.5 z"
       id="path249" /><path
       style="fill:#b9b9b9;fill-opacity:1"
       d="M 87.404988,371.25 85.5,369 l 2.25,1.90499 c 2.114445,1.79022 2.705241,2.59501 1.904988,2.59501 -0.189757,0 -1.202257,-1.0125 -2.25,-2.25 z m -8.94258,-9 L 73.5,357 l 5.25,4.96241 c 4.878394,4.61116 5.7086,5.53759 4.962408,5.53759 -0.158175,0 -2.520675,-2.3625 -5.25,-5.25 z M 112,359 c 4.65071,-4.675 8.68084,-8.5 8.95584,-8.5 0.275,0 -3.30513,3.825 -7.95584,8.5 -4.65071,4.675 -8.68084,8.5 -8.95584,8.5 -0.275,0 3.30513,-3.825 7.95584,-8.5 z M 61.479151,345.25 52.5,336 l 9.25,8.97915 c 5.0875,4.93853 9.25,9.10103 9.25,9.25 0,0.72605 -1.181215,-0.38796 -9.520849,-8.97915 z M 109.98611,318.75 96.5,305 l 13.75,13.48611 c 12.77286,12.52772 14.20306,14.01389 13.48611,14.01389 -0.14515,0 -6.33265,-6.1875 -13.75,-13.75 z M 64,323 c 1.865783,-1.925 3.617334,-3.5 3.892334,-3.5 0.275,0 -1.026551,1.575 -2.892334,3.5 -1.865783,1.925 -3.617334,3.5 -3.892334,3.5 -0.275,0 1.026551,-1.575 2.892334,-3.5 z m 13,-12.87756 c 0,-0.20765 0.7875,-0.99515 1.75,-1.75 1.586056,-1.24387 1.621426,-1.2085 0.377555,0.37756 C 77.821186,310.41575 77,310.94548 77,310.12244 Z M 133.4866,295.25 119.5,281 l 14.25,13.9866 c 7.8375,7.69263 14.25,14.10513 14.25,14.25 0,0.71629 -1.52048,-0.749 -14.5134,-13.9866 z M 262,236 c -2.42903,-2.475 -4.19142,-4.5 -3.91642,-4.5 0.275,0 2.48739,2.025 4.91642,4.5 2.42903,2.475 4.19142,4.5 3.91642,4.5 -0.275,0 -2.48739,-2.025 -4.91642,-4.5 z M 217.49013,191.25 198.5,172 l 19.25,18.99013 c 10.5875,10.44457 19.25,19.10707 19.25,19.25 0,0.71148 -1.86585,-1.10466 -19.50987,-18.99013 z M 185.5,144.5 c 2.70865,-2.75 5.14982,-5 5.42482,-5 0.275,0 -1.71617,2.25 -4.42482,5 -2.70865,2.75 -5.14982,5 -5.42482,5 -0.275,0 1.71617,-2.25 4.42482,-5 z M 415.98213,67.25 C 425.71816,57.265171 427,56.04566 427,56.767867 c 0,0.147327 -4.8375,4.984827 -10.75,10.75 L 405.5,78 Z"
       id="path248" /><path
       style="fill:#a3a3a3;fill-opacity:1"
       d="M 100.98928,324.75 83.5,307 l 17.75,17.48928 c 16.49103,16.24881 18.20193,18.01072 17.48928,18.01072 -0.14339,0 -8.13089,-7.9875 -17.75,-17.75 z M 236,250 c 1.86578,-1.925 3.61733,-3.5 3.89233,-3.5 0.275,0 -1.02655,1.575 -2.89233,3.5 -1.86578,1.925 -3.61733,3.5 -3.89233,3.5 -0.275,0 1.02655,-1.575 2.89233,-3.5 z m 8.5,-8.5 c 2.14824,-2.2 4.1309,-4 4.4059,-4 0.275,0 -1.25766,1.8 -3.4059,4 -2.14824,2.2 -4.1309,4 -4.4059,4 -0.275,0 1.25766,-1.8 3.4059,-4 z M 235,236 c 2.98742,-3.025 5.65668,-5.5 5.93168,-5.5 0.275,0 -1.94426,2.475 -4.93168,5.5 -2.98742,3.025 -5.65668,5.5 -5.93168,5.5 -0.275,0 1.94426,-2.475 4.93168,-5.5 z M 216.98928,205.75 199.5,188 l 17.75,17.48928 c 16.49103,16.24881 18.20193,18.01072 17.48928,18.01072 -0.14339,0 -8.13089,-7.9875 -17.75,-17.75 z M 193.46241,167.25 188.5,162 l 5.25,4.96241 c 2.8875,2.72932 5.25,5.09182 5.25,5.25 0,0.74619 -0.92643,-0.084 -5.53759,-4.96241 z M 427,56.122445 c 0,-0.207656 0.7875,-0.995156 1.75,-1.75 1.58606,-1.243871 1.62143,-1.208501 0.37756,0.377555 C 427.82119,56.415748 427,56.945479 427,56.122445 Z"
       id="path247" /><path
       style="fill:#8c8c8c;fill-opacity:1"
       d="m 120,366 c 5.20327,-5.225 9.6855,-9.5 9.9605,-9.5 0.275,0 -3.75723,4.275 -8.9605,9.5 -5.20327,5.225 -9.6855,9.5 -9.9605,9.5 -0.275,0 3.75723,-4.275 8.9605,-9.5 z M 86.872445,355.75 c -1.243871,-1.58606 -1.208501,-1.62143 0.377555,-0.37756 0.9625,0.75485 1.75,1.54235 1.75,1.75 0,0.82304 -0.821186,0.29331 -2.127555,-1.37244 z m -6.926278,-7 L 76.5,345 l 3.75,3.44617 c 2.0625,1.89539 3.75,3.58289 3.75,3.75 0,0.76362 -0.846216,0.0442 -4.053833,-3.44617 z m 39.926273,-5 c -1.24387,-1.58606 -1.2085,-1.62143 0.37756,-0.37756 0.9625,0.75485 1.75,1.54235 1.75,1.75 0,0.82304 -0.82119,0.29331 -2.12756,-1.37244 z M 140.4866,287.25 126.5,273 l 14.25,13.9866 c 7.8375,7.69263 14.25,14.10513 14.25,14.25 0,0.71629 -1.52048,-0.749 -14.5134,-13.9866 z M 255.92431,244.75 253.5,242 l 2.75,2.42431 c 2.57029,2.26589 3.20859,3.07569 2.42431,3.07569 -0.17912,0 -1.41662,-1.2375 -2.75,-2.75 z M 227,244 c 1.29175,-1.375 2.57363,-2.5 2.84863,-2.5 0.275,0 -0.55688,1.125 -1.84863,2.5 -1.29175,1.375 -2.57363,2.5 -2.84863,2.5 -0.275,0 0.55688,-1.125 1.84863,-2.5 z M 292.40499,180.25 290.5,178 l 2.25,1.90499 c 2.11444,1.79022 2.70524,2.59501 1.90499,2.59501 -0.18976,0 -1.20226,-1.0125 -2.25,-2.25 z M 185.96584,174.75 180.5,169 l 5.75,5.46584 c 3.1625,3.00621 5.75,5.59371 5.75,5.75 0,0.74225 -0.95622,-0.12391 -6.03416,-5.46584 z M 193,152 c 1.86578,-1.925 3.61733,-3.5 3.89233,-3.5 0.275,0 -1.02655,1.575 -2.89233,3.5 -1.86578,1.925 -3.61733,3.5 -3.89233,3.5 -0.275,0 1.02655,-1.575 2.89233,-3.5 z m 90,-61 c 7.96077,-7.975 14.69913,-14.5 14.97413,-14.5 0.275,0 -6.01336,6.525 -13.97413,14.5 -7.96077,7.975 -14.69913,14.5 -14.97413,14.5 -0.275,0 6.01336,-6.525 13.97413,-14.5 z M 436,62.122445 c 0,-0.207656 0.7875,-0.995156 1.75,-1.75 1.58606,-1.243871 1.62143,-1.208501 0.37756,0.377555 C 436.82119,62.415748 436,62.945479 436,62.122445 Z"
       id="path246" /><path
       style="fill:#767676;fill-opacity:1"
       d="M 93.96584,362.75 88.5,357 l 5.75,5.46584 c 3.1625,3.00621 5.75,5.59371 5.75,5.75 0,0.74225 -0.956222,-0.12391 -6.03416,-5.46584 z M 68.47654,337.25 60.5,329 l 8.25,7.97654 c 7.662347,7.40837 8.70589,8.52346 7.97654,8.52346 -0.150403,0 -3.862903,-3.7125 -8.25,-8.25 z M 63,309 c 5.203275,-5.225 9.685499,-9.5 9.960499,-9.5 0.275,0 -3.757224,4.275 -8.960499,9.5 -5.203275,5.225 -9.685499,9.5 -9.960499,9.5 -0.275,0 3.757224,-4.275 8.960499,-9.5 z M 163.4866,264.25 149.5,250 l 14.25,13.9866 c 7.8375,7.69263 14.25,14.10513 14.25,14.25 0,0.71629 -1.52048,-0.749 -14.5134,-13.9866 z m 132.38584,-80.5 c -1.24387,-1.58606 -1.2085,-1.62143 0.37756,-0.37756 0.9625,0.75485 1.75,1.54235 1.75,1.75 0,0.82304 -0.82119,0.29331 -2.12756,-1.37244 z M 221,138 c 2.98742,-3.025 5.65668,-5.5 5.93168,-5.5 0.275,0 -1.94426,2.475 -4.93168,5.5 -2.98742,3.025 -5.65668,5.5 -5.93168,5.5 -0.275,0 1.94426,-2.475 4.93168,-5.5 z M 418.5,79.5 c 9.33787,-9.35 17.20294,-17 17.47794,-17 0.275,0 -7.14007,7.65 -16.47794,17 -9.33787,9.35 -17.20294,17 -17.47794,17 -0.275,0 7.14007,-7.65 16.47794,-17 z m -90,-34 c 17.04335,-17.05 31.2129,-31 31.4879,-31 0.275,0 -13.44455,13.95 -30.4879,31 -17.04335,17.05 -31.2129,31 -31.4879,31 -0.275,0 13.44455,-13.95 30.4879,-31 z"
       id="path245" /><path
       style="fill:#606060;fill-opacity:1"
       d="m 173,227 c 3.54322,-3.575 6.66722,-6.5 6.94222,-6.5 0.275,0 -2.399,2.925 -5.94222,6.5 -3.54322,3.575 -6.66722,6.5 -6.94222,6.5 -0.275,0 2.399,-2.925 5.94222,-6.5 z m 10,-38 c 4.65071,-4.675 8.68084,-8.5 8.95584,-8.5 0.275,0 -3.30513,3.825 -7.95584,8.5 -4.65071,4.675 -8.68084,8.5 -8.95584,8.5 -0.275,0 3.30513,-3.825 7.95584,-8.5 z m 184,-58 c 18.96902,-18.975 34.71413,-34.5 34.98913,-34.5 0.275,0 -15.02011,15.525 -33.98913,34.5 -18.96902,18.975 -34.71413,34.5 -34.98913,34.5 -0.275,0 15.02011,-15.525 33.98913,-34.5 z m -70.5,9.5 c 2.14824,-2.2 4.1309,-4 4.4059,-4 0.275,0 -1.25766,1.8 -3.4059,4 -2.14824,2.2 -4.1309,4 -4.4059,4 -0.275,0 1.25766,-1.8 3.4059,-4 z m -64,-14 c 3.26557,-3.3 6.16239,-6 6.43739,-6 0.275,0 -2.17182,2.7 -5.43739,6 -3.26557,3.3 -6.16239,6 -6.43739,6 -0.275,0 2.17182,-2.7 5.43739,-6 z"
       id="path244" /><path
       style="fill:#494949;fill-opacity:1"
       d="m 107,293 c 6.30706,-6.325 11.69238,-11.5 11.96738,-11.5 0.275,0 -4.66032,5.175 -10.96738,11.5 -6.30706,6.325 -11.692376,11.5 -11.967376,11.5 -0.275,0 4.660316,-5.175 10.967376,-11.5 z m 97,-25 c 6.30706,-6.325 11.69238,-11.5 11.96738,-11.5 0.275,0 -4.66032,5.175 -10.96738,11.5 -6.30706,6.325 -11.69238,11.5 -11.96738,11.5 -0.275,0 4.66032,-5.175 10.96738,-11.5 z m -66,-6 c 6.30706,-6.325 11.69238,-11.5 11.96738,-11.5 0.275,0 -4.66032,5.175 -10.96738,11.5 -6.30706,6.325 -11.69238,11.5 -11.96738,11.5 -0.275,0 4.66032,-5.175 10.96738,-11.5 z m 146.5,-18.5 c 2.70865,-2.75 5.14982,-5 5.42482,-5 0.275,0 -1.71617,2.25 -4.42482,5 -2.70865,2.75 -5.14982,5 -5.42482,5 -0.275,0 1.71617,-2.25 4.42482,-5 z m -122.54179,-5.25 c 2.45201,-2.6125 4.58951,-4.75 4.75,-4.75 0.75088,0 -0.043,0.89783 -4.45821,5.04179 L 157.5,243 Z M 296,202 c 6.30706,-6.325 11.69238,-11.5 11.96738,-11.5 0.275,0 -4.66032,5.175 -10.96738,11.5 -6.30706,6.325 -11.69238,11.5 -11.96738,11.5 -0.275,0 4.66032,-5.175 10.96738,-11.5 z M 234.99405,178.75 203.5,147 l 31.75,31.49405 c 17.4625,17.32172 31.75,31.60922 31.75,31.75 0,0.706 -2.7369,-1.98713 -32.00595,-31.49405 z M 314.5,183.5 c 2.14824,-2.2 4.1309,-4 4.4059,-4 0.275,0 -1.25766,1.8 -3.4059,4 -2.14824,2.2 -4.1309,4 -4.4059,4 -0.275,0 1.25766,-1.8 3.4059,-4 z m -0.51389,-60.25 C 326.51383,110.47714 328,109.04694 328,109.76389 c 0,0.14515 -6.1875,6.33265 -13.75,13.75 L 300.5,137 Z M 374,63 c 1.86578,-1.925 3.61733,-3.5 3.89233,-3.5 0.275,0 -1.02655,1.575 -2.89233,3.5 -1.86578,1.925 -3.61733,3.5 -3.89233,3.5 -0.275,0 1.02655,-1.575 2.89233,-3.5 z m 26,-11.877555 c 0,-0.207656 0.7875,-0.995156 1.75,-1.75 1.58606,-1.243871 1.62143,-1.208501 0.37756,0.377555 C 400.82119,51.415748 400,51.945479 400,51.122445 Z"
       id="path243" /><path
       style="fill:#333333;fill-opacity:1"
       d="M 97.538459,378.44396 C 95.664904,377.88462 86.748144,369.74219 73.266678,356.27991 44.395235,327.44956 44.575884,328.37321 64.016463,308.98407 L 76.032319,297 l 6.510516,-0.0311 6.510515,-0.0311 41.97498,-41.96605 41.97497,-41.96605 -0.61188,-4.61259 c -0.81008,-6.10673 0.0757,-7.6152 10.9453,-18.63948 l 9.1167,-9.24645 -6.73417,-6.78617 c -11.05834,-11.14373 -11.23198,-16.45977 -0.89552,-27.41696 7.66019,-8.12021 10.48994,-9.80398 16.47657,-9.80398 3.27949,0 5.4308,0.74698 8.44982,2.93395 2.22761,1.61367 4.37224,3.45502 4.76585,4.09189 0.45339,0.7336 6.07847,-4.13801 15.34984,-13.29375 15.38166,-15.18984 15.8723,-15.50869 29.63419,-19.25875 l 6,-1.63498 47.80294,-47.66918 c 26.29162,-26.218049 48.67608,-49.06738 49.74325,-50.776291 1.06717,-1.7089105 2.84132,-7.4861055 3.94256,-12.8382109 1.10124,-5.3521053 2.23384,-10.1058171 2.51689,-10.5638031 0.28305,-0.457987 4.89758,-2.277982 10.2545,-4.044435 33.93801,-11.191103 68.22922,-24.301565 91.39407,-34.942437 15.93718,-7.320813 17.30582,-7.232111 18.33824,1.1885 1.18896,9.697423 -2.3216,29.343471 -7.88072,44.102689 C 475.48941,10.049681 463.24782,30.595147 450.50658,46 c -3.63921,4.4 -42.43128,43.853317 -86.2046,87.67404 l -79.58787,79.67404 3.65743,4.27287 c 7.97931,9.32204 7.03448,15.21767 -4.18921,26.13996 -11.96464,11.64333 -16.29557,11.71456 -27.90358,0.4589 l -7.34108,-7.11824 -9.21883,9.14774 c -10.18841,10.10984 -13.10806,11.71258 -19.57663,10.74659 l -4.35779,-0.65077 -41.64221,42.25736 -41.64221,42.25737 0.33217,4.71084 c 0.45793,6.49449 -0.96867,8.72525 -13.51206,21.1287 -12.6724,12.53103 -14.97981,13.77518 -21.781651,11.74456 z M 112.73293,359.26787 C 118.37982,353.64019 123,348.35681 123,347.52702 123,345.54419 83.973444,306.5 81.991509,306.5 c -0.839984,0 -6.178501,4.66714 -11.863371,10.37142 -8.847891,8.87811 -10.187732,10.64191 -9.305485,12.25 C 62.215394,331.66 100.3741,369.5 101.54132,369.5 c 0.50849,0 5.54471,-4.60446 11.19161,-10.23213 z m 21.77121,-63.76372 C 126.8166,287.80187 120.06343,281.5 119.49709,281.5 c -0.56634,0 -6.19079,5.17576 -12.49878,11.50169 l -11.469061,11.50169 14.476351,14.50223 14.47636,14.50223 11.99976,-11.99977 11.99977,-11.99977 z m 30.00211,-30.98943 -14.50517,-14.50516 -11.74141,11.74141 -11.74141,11.74141 14.4769,14.50277 14.47689,14.50277 11.76968,-11.73902 11.76968,-11.73902 z m 33.25871,-4.27901 11.23233,-11.26429 -14.49658,-14.47071 -14.49658,-14.47072 -11.00207,10.96795 C 162.95093,237.03031 158,242.41774 158,242.97 c 0,1.00933 27.01223,28.53 28.00291,28.53 0.29134,0 5.58426,-5.06893 11.76205,-11.26429 z m 35.47143,-21.47101 8.77596,-8.73529 -21.24194,-21.25919 -21.24194,-21.25918 -8.76423,8.72363 c -4.82033,4.798 -8.76424,9.17899 -8.76424,9.73555 0,1.30831 40.1646,41.52978 41.47107,41.52978 0.54415,0 4.93854,-3.93088 9.76532,-8.7353 z m 44.4867,-2.48581 c 3.4523,-3.42161 6.27691,-6.75668 6.27691,-7.41126 0,-0.65458 -18.1125,-19.47199 -40.25,-41.81646 -32.7524,-33.05861 -40.7339,-40.61931 -42.84778,-40.58874 -1.8423,0.0266 -4.24155,1.76089 -8.25,5.96333 -3.10872,3.25917 -5.65222,6.5089 -5.65222,7.22163 0,1.81896 81.13542,82.85261 82.95667,82.85261 0.81923,0 4.31413,-2.7995 7.76642,-6.22111 z m 16.11263,-55.51288 c -7.83946,-8.08611 -10.28212,-15.90924 -7.80642,-25.00171 1.15414,-4.23882 3.61734,-7.10806 22.33292,-26.0143 21.94058,-22.1641 23.90982,-23.5551 27.03352,-19.09539 1.15348,1.64682 1.25511,2.64843 0.43124,4.25 -0.59284,1.15246 -9.5195,10.64539 -19.83702,21.09539 -10.31752,10.45 -19.26107,19.98292 -19.87454,21.18426 -2.73814,5.36194 -0.83551,11.3427 5.58528,17.55691 l 3.86554,3.74117 66.558,-66.74117 C 410.20135,73.559275 441.47665,41.362757 445.21258,36.5 459.2845,18.183737 468.06381,2.37774 473.98934,-15.308783 c 2.81604,-8.405328 6.40314,-27.103757 5.39649,-28.13024 -0.2368,-0.241463 -2.78298,0.588682 -5.65819,1.844766 -2.8752,1.256084 -10.24224,4.378644 -16.37121,6.939023 L 446.21287,-30 l -1.1233,6.794752 C 441.04283,1.2731893 425.53685,25.471562 391.92744,59.758699 375.16994,76.854108 372.54742,78.647421 369.2,75.3 c -2.86693,-2.866927 -0.93229,-5.60795 17.55,-24.865119 10.3125,-10.744855 21.305,-22.888326 24.42778,-26.985491 12.60286,-16.5352497 21.67228,-33.905847 23.42476,-44.865274 l 0.66054,-4.130812 -8.38154,3.11796 c -4.60985,1.714878 -17.36595,6.243124 -28.34689,10.062769 -10.98094,3.8196446 -20.24412,7.3958783 -20.58485,7.9471856 -0.34072,0.5513073 -1.16647,3.97090123 -1.83499,7.5990976 -0.66852,3.6281964 -2.14817,8.4468878 -3.28811,10.7082018 -2.437,4.834308 -94.87171,98.097542 -101.77909,102.691362 -4.28192,2.84774 -6.21264,3.57175 -16.01204,6.00441 -3.80386,0.94429 -6.54117,3.16081 -18.5,14.98025 L 222.5,151.43652 l 27.49368,27.53224 27.49369,27.53225 10.48449,-10.4845 10.48449,-10.48449 z m 55.50222,-83.29638 c -2.67599,-1.039819 -3.79486,-4.247342 -2.3944,-6.864133 2.56803,-4.798408 9.39531,-3.183047 8.86486,2.09746 -0.37491,3.732215 -3.39914,5.960106 -6.47046,4.766673 z"
       id="path242" /></g><path
     style="fill:#ffffff;stroke:none;stroke-width:15.9978;stroke-linecap:round;stroke-dasharray:none"
     d="m 216.08461,274.83648 -27.15594,-27.20668 12.53555,-12.23055 c 6.89456,-6.7268 13.69258,-13.04111 15.10672,-14.0318 1.54701,-1.08377 4.75691,-2.37939 8.05857,-3.25269 9.90031,-2.61868 11.5383,-3.72969 26.23662,-17.79569 15.92241,-15.23743 59.39344,-59.06161 75.76351,-76.379 6.46169,-6.83562 12.20694,-13.39442 12.76721,-14.57511 0.56027,-1.18069 1.86641,-5.62184 2.90251,-9.869215 l 1.88383,-7.722501 4.45076,-1.781598 c 2.44792,-0.979879 13.71811,-5.077884 25.04488,-9.106677 11.32676,-4.028794 22.0372,-7.879896 23.80098,-8.558006 l 3.20686,-1.232927 -0.39053,2.943964 c -1.66811,12.574822 -14.83999,35.84397 -29.90511,52.82969 -7.96891,8.98485 -24.10423,25.97496 -29.37414,30.9303 -2.39129,2.24854 -4.34779,4.45272 -4.34779,4.89817 0,0.44546 -0.67154,1.7995 -1.49232,3.00899 -0.82078,1.20949 -1.49233,2.71103 -1.49233,3.33676 0,1.60796 2.65523,4.06809 4.3907,4.06809 2.31579,0 7.60467,-4.46385 19.58857,-16.53287 32.8602,-33.09362 49.12549,-58.38458 53.63821,-83.402256 0.64639,-3.583481 1.27489,-6.615053 1.39667,-6.73683 0.41137,-0.411367 29.90738,-12.761801 31.333,-13.11961 1.39064,-0.349028 1.40679,-0.302915 1.00204,2.860729 -3.14334,24.569196 -13.27412,48.033217 -31.15886,72.167397 -5.58991,7.54319 -12.80891,15.08775 -56.54141,59.09128 -20.39393,20.52032 -48.06361,48.39723 -61.48819,61.94866 -23.34358,23.56417 -24.45675,24.59513 -25.5188,23.63399 -0.61076,-0.55273 -1.11048,-1.30939 -1.11048,-1.68145 0,-0.37205 -1.17941,-1.66233 -2.62091,-2.86727 -4.77013,-3.98734 -6.61442,-10.88932 -4.02808,-15.07455 0.60866,-0.98493 8.62194,-9.58074 17.8073,-19.10179 20.45851,-21.20621 22.26982,-23.24043 22.26982,-25.01053 0,-2.32747 -2.18452,-4.53756 -4.48507,-4.53756 -1.10589,0 -2.18348,0.27955 -2.39464,0.62122 -0.21116,0.34166 -0.83701,0.47741 -1.39077,0.30165 -0.72657,-0.2306 -5.78069,4.4651 -18.15616,16.86858 -9.43213,9.45347 -17.14932,17.45951 -17.14932,17.79119 0,0.33167 -1.25106,2.0644 -2.78012,3.85049 -4.25021,4.96462 -5.24493,7.62502 -5.23172,13.9922 0.0117,5.65339 0.55299,7.53141 3.69887,12.83402 0.8765,1.4774 1.54582,2.852 1.48738,3.05466 -0.0584,0.20265 1.0235,1.56555 2.4043,3.02866 5.20808,5.5185 5.86153,3.71299 -5.42243,14.9823 l -9.98381,9.97085 z m 104.6763,-82.77772 c 2.73508,-3.67754 0.90703,-8.204 -3.31325,-8.204 -4.65213,0 -7.08145,5.43811 -3.92855,8.79421 1.88168,2.00296 5.53462,1.70524 7.2418,-0.59021 z"
     id="path250" /><path
     style="fill:#ffffff;stroke:none;stroke-width:7.99888;stroke-linecap:round;stroke-dasharray:none"
     d="m 233.86087,336.65913 c -1.09289,-0.99043 -3.35634,-3.17296 -5.02988,-4.85007 -1.67355,-1.67711 -18.46761,-18.41731 -37.32014,-37.20044 -18.85254,-18.78314 -35.20874,-35.20814 -36.34712,-36.50001 l -2.06978,-2.34886 0.53174,-0.95741 c 0.29246,-0.52658 1.40118,-1.76327 2.46382,-2.74821 2.87783,-2.6674 6.55508,-6.50444 6.72185,-7.01394 0.23901,-0.73026 2.85027,-2.20865 3.9011,-2.20865 2.13492,0 3.39241,1.19758 41.49796,39.52101 27.49261,27.64981 34.23427,34.53623 40.81676,41.69323 l 0.88005,0.95685 -1.30275,1.72934 c -2.51449,3.33786 -11.4838,11.70908 -12.56278,11.72506 -0.10656,0.002 -1.08794,-0.80748 -2.18083,-1.7979 z"
     id="path251" /><path
     style="fill:#ffffff;stroke:none;stroke-width:7.99888;stroke-linecap:round;stroke-dasharray:none"
     d="m 183.67734,338.20395 c -5.93616,-5.5887 -29.40869,-29.19048 -33.02687,-33.20871 -1.27221,-1.41288 -2.31311,-2.72248 -2.31311,-2.91022 0,-0.18775 0.87301,-1.19736 1.94003,-2.24357 1.06701,-1.04621 1.94002,-2.08711 1.94002,-2.3131 0,-0.66862 13.3543,-13.84732 13.47557,-13.29838 0.16193,0.73301 34.61449,35.47622 35.02371,35.31919 0.19893,-0.0763 1.87579,1.37962 3.72637,3.23546 l 3.36467,3.37425 -1.04225,0.49458 c -0.57323,0.27202 -4.61958,4.11422 -8.99186,8.53823 -4.37229,4.42402 -8.13017,8.04366 -8.35085,8.04366 -0.22067,0 -2.80612,-2.26412 -5.74543,-5.03139 z"
     id="path252" /><path
     style="fill:#ffffff;stroke:none;stroke-width:7.99888;stroke-linecap:round;stroke-dasharray:none"
     d="m 145.63932,361.47835 c -5.55711,-5.39878 -18.76431,-19.06623 -20.74406,-21.46694 l -0.81264,-0.98545 10.76761,-10.65828 c 5.92219,-5.86205 10.87815,-10.95709 11.01325,-11.3223 0.2216,-0.59903 1.64711,0.73889 14.56686,13.67185 l 14.32122,14.33587 -11.25053,11.17898 c -6.18779,6.14843 -11.36404,11.17897 -11.50278,11.17897 -0.13873,0 -3.00025,-2.66972 -6.35893,-5.9327 z"
     id="path253" /><path
     style="fill:#ffffff;stroke:none;stroke-width:7.99888;stroke-linecap:round;stroke-dasharray:none"
     d="m 121.14166,397.92915 c -0.0194,-0.12312 -0.01,-0.35285 0.0209,-0.51052 0.031,-0.15768 -6.19785,-6.45146 -13.84178,-13.98619 l -13.898074,-13.69952 8.430134,-8.30989 c 4.63657,-4.57044 9.70607,-9.70068 11.26555,-11.40053 l 2.83542,-3.09065 13.68443,13.82119 c 7.57882,7.65455 13.91535,13.82118 14.20199,13.82118 0.28465,0 0.61237,0.0948 0.72825,0.21071 0.21174,0.21173 -22.74459,23.36807 -23.16624,23.36807 -0.1239,0 -0.24119,-0.10073 -0.26062,-0.22385 z"
     id="path254" /><path
     style="fill:#ffffff;stroke:none;stroke-width:7.99888;stroke-linecap:round;stroke-dasharray:none"
     d="m 89.739091,428.2229 c -0.437208,-1.04639 -26.092402,-26.47882 -27.086976,-26.85178 -0.314208,-0.11783 -0.560587,-0.31929 -0.547508,-0.4477 0.01308,-0.1284 1.228467,-1.30794 2.700862,-2.62119 1.472395,-1.31325 6.695058,-6.46911 11.605919,-11.45748 8.836737,-8.97621 8.93614,-9.06498 9.636789,-8.60589 0.389374,0.25512 6.314523,6.14969 13.167002,13.09904 6.852471,6.94935 12.975431,13.03811 13.606571,13.53057 l 1.14753,0.8954 -11.69108,11.71477 c -6.430097,6.44313 -11.790649,11.71477 -11.912343,11.71477 -0.121693,0 -0.403738,-0.43673 -0.626766,-0.97051 z"
     id="path255" /><path
     style="fill:#ffffff;stroke:none;stroke-width:7.99888;stroke-linecap:round;stroke-dasharray:none"
     d="m 61.185431,459.23603 c -3.365199,-3.3246 -6.437566,-6.41048 -6.827483,-6.85752 -0.826698,-0.94779 -2.424948,-2.13849 -2.424948,-1.80659 0,0.12546 -0.464857,-0.22245 -1.033015,-0.77313 -0.568159,-0.55068 -0.952522,-1.13148 -0.85414,-1.29066 0.09838,-0.15919 -5.077759,-5.49002 -11.502536,-11.8463 -9.734723,-9.63093 -11.681412,-11.69345 -11.681412,-12.37648 0,-0.64208 0.786903,-1.63774 3.632899,-4.59663 5.79898,-6.02903 16.464013,-16.42997 17.050451,-16.62824 0.629357,-0.21278 1.261557,0.17528 3.497399,2.14683 3.267641,2.88137 37.240198,37.34546 37.443142,37.98488 0.129018,0.4065 0.03092,0.92548 -0.258408,1.36705 -0.25651,0.39148 -4.132157,4.38061 -8.612545,8.86474 -4.480391,4.48412 -8.938442,8.99238 -9.906778,10.01835 -0.968338,1.02598 -1.905395,1.85934 -2.082349,1.85192 -0.176954,-0.007 -3.075078,-2.73361 -6.440277,-6.05822 z"
     id="path256" /></svg>
