<?xml version="1.0" encoding="UTF-8" standalone="no"?>
<!-- Created with Inkscape (http://www.inkscape.org/) -->

<svg
   width="512"
   height="512"
   viewBox="0 0 512 512"
   version="1.1"
   id="svg1"
   xml:space="preserve"
   xmlns="http://www.w3.org/2000/svg"
   xmlns:svg="http://www.w3.org/2000/svg"><defs
     id="defs1" /><g
     id="g301"
     transform="translate(0.59693129,-20.295655)"><path
       style="fill:#d0d0d0;fill-opacity:1"
       d="m 65.970052,380.51227 c 0.721875,-0.28888 1.584375,-0.25335 1.916666,0.0789 0.332292,0.33229 -0.258333,0.56864 -1.3125,0.52522 -1.164943,-0.048 -1.401899,-0.28494 -0.604166,-0.60416 z M 369.03,334.44538 c -1.24387,-1.58606 -1.2085,-1.62143 0.37755,-0.37756 1.66575,1.30637 2.19548,2.12756 1.37245,2.12756 -0.20766,0 -0.99516,-0.7875 -1.75,-1.75 z m -21.88876,-22 -11.48369,-11.75 11.75,11.48369 c 6.4625,6.31603 11.75,11.60353 11.75,11.75 0,0.72017 -1.34959,-0.5696 -12.01631,-11.48369 z m -2.98369,-38.75 c 9.61321,-9.625 17.70357,-17.5 17.97857,-17.5 0.275,0 -7.36536,7.875 -16.97857,17.5 -9.61321,9.625 -17.70357,17.5 -17.97857,17.5 -0.275,0 7.36536,-7.875 16.97857,-17.5 z m -207,11.22497 c 0,-0.15126 3.4875,-3.63876 7.75,-7.75 l 7.75,-7.47497 -7.47497,7.75 c -6.94259,7.19803 -8.02503,8.20627 -8.02503,7.47497 z M 68.907552,281.5331 c 0.6875,-0.27741 1.8125,-0.27741 2.5,0 0.6875,0.27741 0.125,0.50438 -1.25,0.50438 -1.375,0 -1.9375,-0.22697 -1.25,-0.50438 z m 50.179408,-61.52218 c 22.24953,-22.48654 24.30211,-24.84611 23.0522,-26.5 -1.31541,-1.74057 -1.29253,-1.74259 0.55404,-0.0489 1.87477,1.71951 1.26027,2.42591 -23.0522,26.5 l -24.978317,24.73341 z m 45.57059,-3.81554 c -6.5828,-6.6 -11.74373,-12 -11.46873,-12 0.275,0 5.88593,5.4 12.46873,12 6.58281,6.6 11.74374,12 11.46874,12 -0.275,0 -5.88593,-5.4 -12.46874,-12 z m 317.57895,3.41667 c 0.048,-1.16495 0.28494,-1.4019 0.60417,-0.60417 0.28887,0.72187 0.25334,1.58437 -0.0789,1.91667 -0.33229,0.33229 -0.56864,-0.25834 -0.52522,-1.3125 z m -99,-1 c 0.048,-1.16495 0.28494,-1.4019 0.60417,-0.60417 0.28887,0.72187 0.25334,1.58437 -0.0789,1.91667 -0.33229,0.33229 -0.56864,-0.25834 -0.52522,-1.3125 z"
       id="path308" /><path
       style="fill:#b9b9b9;fill-opacity:1"
       d="m 273.65755,377.19538 c 23.09509,-23.1 42.21607,-42 42.49107,-42 0.275,0 -18.39598,18.9 -41.49107,42 -23.09509,23.1 -42.21607,42 -42.49107,42 -0.275,0 18.39598,-18.9 41.49107,-42 z m -201.687498,3.31689 c 0.721875,-0.28888 1.584375,-0.25335 1.916666,0.0789 0.332292,0.33229 -0.258333,0.56864 -1.3125,0.52522 -1.164943,-0.048 -1.401899,-0.28494 -0.604166,-0.60416 z M 366.15755,348.81782 c 0,-0.20765 0.7875,-0.99515 1.75,-1.75 1.58606,-1.24387 1.62143,-1.2085 0.37756,0.37756 -1.30637,1.66575 -2.12756,2.19548 -2.12756,1.37244 z m 26,-40.12244 c 13.46658,-13.475 24.70969,-24.5 24.98469,-24.5 0.275,0 -10.51811,11.025 -23.98469,24.5 -13.46658,13.475 -24.70969,24.5 -24.98469,24.5 -0.275,0 10.51811,-11.025 23.98469,-24.5 z m -263.92105,3.91667 c 0.048,-1.16495 0.28494,-1.4019 0.60417,-0.60417 0.28887,0.72187 0.25334,1.58437 -0.0789,1.91667 -0.33229,0.33229 -0.56864,-0.25834 -0.52522,-1.3125 z m -98.884,-2.91667 c 0.02038,-1.65 0.244499,-2.20394 0.498042,-1.23097 0.253544,0.97297 0.236869,2.32297 -0.03705,3 -0.273923,0.67703 -0.481367,-0.11903 -0.460988,-1.76903 z m 98.884,-2.08333 c 0.048,-1.16495 0.28494,-1.4019 0.60417,-0.60417 0.28887,0.72187 0.25334,1.58437 -0.0789,1.91667 -0.33229,0.33229 -0.56864,-0.25834 -0.52522,-1.3125 z m 42.90716,-56.66667 c 12.52772,-12.77286 14.01389,-14.20306 14.01389,-13.48611 0,0.14514 -6.1875,6.33264 -13.75,13.75 l -13.75,13.48611 z m 39.01389,-25.12756 c 0,-0.20765 0.7875,-0.99515 1.75,-1.75 1.58606,-1.24387 1.62143,-1.2085 0.37756,0.37756 -1.30637,1.66575 -2.12756,2.19548 -2.12756,1.37244 z m -18.02208,-18.37244 -8.47792,-8.75 8.75,8.47792 c 4.8125,4.66286 8.75,8.60036 8.75,8.75 0,0.72761 -1.14803,-0.35118 -9.02208,-8.47792 z m -17.00681,-17 -6.47111,-6.75 6.75,6.47111 c 6.26969,6.01064 7.20713,7.02889 6.47111,7.02889 -0.15339,0 -3.19089,-3.0375 -6.75,-6.75 z m 76.52889,-70.25 c 35.74683,-35.750001 65.21923,-65.000001 65.49423,-65.000001 0.275,0 -28.7474,29.25 -64.49423,65.000001 -35.74683,35.75 -65.21923,65 -65.49423,65 -0.275,0 28.7474,-29.25 64.49423,-65 z m -86.09501,60.75 -1.90499,-2.25 2.25,1.90499 c 2.11445,1.79022 2.70524,2.59501 1.90499,2.59501 -0.18976,0 -1.20226,-1.0125 -2.25,-2.25 z m 274.35667,-33.45726 c 1.24391,-0.23919 3.04391,-0.23011 4,0.0202 0.95609,0.25029 -0.0617,0.446 -2.26166,0.4349 -2.2,-0.0111 -2.98225,-0.21589 -1.73834,-0.45508 z"
       id="path307" /><path
       style="fill:#a3a3a3;fill-opacity:1"
       d="m 195.15755,473.51703 c 0,-0.55642 1.0125,-1.86892 2.25,-2.91666 l 2.25,-1.90499 -1.98934,2.5 c -1.09414,1.375 -2.10664,2.6875 -2.25,2.91667 -0.14336,0.22916 -0.26066,-0.0386 -0.26066,-0.59502 z m 21.5,-39.32165 c 8.23625,-8.25 15.19999,-15 15.47499,-15 0.275,0 -6.23874,6.75 -14.47499,15 -8.23624,8.25 -15.19999,15 -15.47499,15 -0.275,0 6.23875,-6.75 14.47499,-15 z m 37.5,-20.31291 c 0,-0.1721 1.4625,-1.6346 3.25,-3.25 l 3.25,-2.93709 -2.93709,3.25 c -2.73778,3.02945 -3.56291,3.70965 -3.56291,2.93709 z m 76.48897,-81.93709 -16.98897,-17.25 17.25,16.98897 c 16.02623,15.78372 17.70205,17.51103 16.98897,17.51103 -0.14357,0 -7.90607,-7.7625 -17.25,-17.25 z m -125.48897,-148.25 c 5.20328,-5.225 9.6855,-9.5 9.9605,-9.5 0.275,0 -3.75722,4.275 -8.9605,9.5 -5.20327,5.225 -9.6855,9.5 -9.9605,9.5 -0.275,0 3.75723,-4.275 8.9605,-9.5 z"
       id="path306" /><path
       style="fill:#8c8c8c;fill-opacity:1"
       d="m 226.15755,441.69538 c 15.1175,-15.125 27.71136,-27.5 27.98636,-27.5 0.275,0 -11.86886,12.375 -26.98636,27.5 -15.1175,15.125 -27.71136,27.5 -27.98636,27.5 -0.275,0 11.86886,-12.375 26.98636,-27.5 z m -32.5,15.5 c 4.3742,-4.4 8.17808,-8 8.45308,-8 0.275,0 -3.07888,3.6 -7.45308,8 -4.37419,4.4 -8.17808,8 -8.45308,8 -0.275,0 3.07889,-3.6 7.45308,-8 z m 98.5,-81.5 c 17.86866,-17.875 32.71346,-32.5 32.98846,-32.5 0.275,0 -14.1198,14.625 -31.98846,32.5 -17.86865,17.875 -32.71346,32.5 -32.98846,32.5 -0.275,0 14.11981,-14.625 31.98846,-32.5 z M 68.907552,368.5331 c 0.6875,-0.27741 1.8125,-0.27741 2.5,0 0.6875,0.27741 0.125,0.50438 -1.25,0.50438 -1.375,0 -1.9375,-0.22697 -1.25,-0.50438 z M 361.15755,353.81782 c 0,-0.20765 0.7875,-0.99515 1.75,-1.75 1.58606,-1.24387 1.62143,-1.2085 0.37756,0.37756 -1.30637,1.66575 -2.12756,2.19548 -2.12756,1.37244 z M 99.029996,281.44538 c -1.24387,-1.58606 -1.2085,-1.62143 0.377556,-0.37756 0.962498,0.75485 1.749998,1.54235 1.749998,1.75 0,0.82304 -0.82118,0.29331 -2.127554,-1.37244 z M 206.15755,229.81782 c 0,-0.20765 0.7875,-0.99515 1.75,-1.75 1.58606,-1.24387 1.62143,-1.2085 0.37756,0.37756 -1.30637,1.66575 -2.12756,2.19548 -2.12756,1.37244 z m 52.5,-99.62244 c 24.19531,-24.2 44.21648,-44.000001 44.49148,-44.000001 0.275,0 -19.29617,19.800001 -43.49148,44.000001 -24.19531,24.2 -44.21648,44 -44.49148,44 -0.275,0 19.29617,-19.8 43.49148,-44 z"
       id="path305" /><path
       style="fill:#767676;fill-opacity:1"
       d="m 358.15755,356.81782 c 0,-0.20765 0.7875,-0.99515 1.75,-1.75 1.58606,-1.24387 1.62143,-1.2085 0.37756,0.37756 -1.30637,1.66575 -2.12756,2.19548 -2.12756,1.37244 z m 24.5,-55.62244 c 12.09063,-12.1 22.20795,-22 22.48295,-22 0.275,0 -9.39232,9.9 -21.48295,22 -12.09062,12.1 -22.20795,22 -22.48295,22 -0.275,0 9.39233,-9.9 21.48295,-22 z m -223.5,-55.31291 c 0,-0.1721 1.4625,-1.6346 3.25,-3.25 l 3.25,-2.93709 -2.93709,3.25 c -2.73778,3.02945 -3.56291,3.70965 -3.56291,2.93709 z m 12,-12.18709 c 2.98743,-3.025 5.65668,-5.5 5.93168,-5.5 0.275,0 -1.94425,2.475 -4.93168,5.5 -2.98742,3.025 -5.65668,5.5 -5.93168,5.5 -0.275,0 1.94426,-2.475 4.93168,-5.5 z m 32.5,-1.5 c 0.99549,-1.1 2.03498,-2 2.30998,-2 0.275,0 -0.31449,0.9 -1.30998,2 -0.99548,1.1 -2.03497,2 -2.30997,2 -0.275,0 0.31449,-0.9 1.30997,-2 z m 107,-154.000001 c 4.3742,-4.4 8.17808,-8 8.45308,-8 0.275,0 -3.07888,3.6 -7.45308,8 -4.37419,4.4 -8.17808,8 -8.45308,8 -0.275,0 3.07889,-3.6 7.45308,-8 z"
       id="path304" /><path
       style="fill:#606060;fill-opacity:1"
       d="m 21.029996,360.44538 c -1.24387,-1.58606 -1.2085,-1.62143 0.377556,-0.37756 1.665748,1.30637 2.195479,2.12756 1.372444,2.12756 -0.207655,0 -0.995155,-0.7875 -1.75,-1.75 z m 119.322504,-49.75 c 0.0204,-1.65 0.2445,-2.20394 0.49804,-1.23097 0.25355,0.97297 0.23687,2.32297 -0.037,3 -0.27392,0.67703 -0.48137,-0.11903 -0.46099,-1.76903 z m -10.0774,-36.75 c 0.24798,-0.1375 6.51048,-6.1 13.91666,-13.25 l 13.46579,-13 -12.98557,13.25 c -7.14206,7.2875 -13.40456,13.25 -13.91667,13.25 -0.5121,0 -0.7282,-0.1125 -0.48021,-0.25 z m 66.84066,-52 c 4.14396,-4.41519 5.04179,-5.20909 5.04179,-4.45821 0,0.16049 -2.1375,2.29799 -4.75,4.75 l -4.75,4.45821 z m 174.23674,-4.25 c 0.0204,-1.65 0.2445,-2.20394 0.49804,-1.23097 0.25355,0.97297 0.23687,2.32297 -0.0371,3 -0.27392,0.67703 -0.48137,-0.11903 -0.46099,-1.76903 z M 322.65755,66.195379 c 2.14824,-2.2 4.1309,-4 4.4059,-4 0.275,0 -1.25766,1.8 -3.4059,4 -2.14824,2.2 -4.13089,4 -4.40589,4 -0.275,0 1.25765,-1.8 3.40589,-4 z"
       id="path303" /><path
       style="fill:#494949;fill-opacity:1"
       d="m 333.13547,351.44538 -8.47792,-8.75 8.75,8.47792 c 4.8125,4.66286 8.75,8.60036 8.75,8.75 0,0.72761 -1.14803,-0.35118 -9.02208,-8.47792 z m 19.98029,-6.5 c 2.45201,-2.6125 4.58951,-4.75 4.75,-4.75 0.75089,0 -0.043,0.89783 -4.45821,5.04179 l -4.75,4.45821 z m -41.01204,-14.5 -3.44617,-3.75 3.75,3.44617 c 2.0625,1.89539 3.75,3.58289 3.75,3.75 0,0.76362 -0.84621,0.0442 -4.05383,-3.44617 z m 45.55383,-53.25 c 12.64103,-12.65 23.2087,-23 23.4837,-23 0.275,0 -9.84267,10.35 -22.4837,23 -12.64103,12.65 -23.20869,23 -23.48369,23 -0.275,0 9.84266,-10.35 22.48369,-23 z m -228.5,-50.5 c 12.36583,-12.375 22.70833,-22.5 22.98333,-22.5 0.275,0 -9.6175,10.125 -21.98333,22.5 -12.36583,12.375 -22.70833,22.5 -22.98333,22.5 -0.275,0 9.6175,-10.125 21.98333,-22.5 z m 71,-28 c -2.42903,-2.475 -4.19141,-4.5 -3.91641,-4.5 0.275,0 2.48738,2.025 4.91641,4.5 2.42903,2.475 4.19142,4.5 3.91642,4.5 -0.275,0 -2.48739,-2.025 -4.91642,-4.5 z m -20.02889,-20.25 -6.47111,-6.75 6.75,6.47111 c 3.7125,3.55911 6.75,6.59661 6.75,6.75 0,0.73602 -1.01824,-0.20142 -7.02889,-6.47111 z"
       id="path302" /><path
       style="fill:#333333;fill-opacity:1"
       d="m 160.81254,499.36664 c -0.91024,-1.00581 -1.65499,-2.78846 -1.65499,-3.96144 0,-2.25021 83.36484,-177.71199 85.56832,-180.09956 0.82071,-0.88927 10.74379,-2.78352 27.55532,-5.26013 l 26.27274,-3.8704 9.16711,-8.98987 c 9.87197,-9.68109 12.09083,-10.62281 16.62527,-7.05602 l 2.45848,1.93384 24.68693,-24.70175 24.68692,-24.70175 -2.12736,-8.41258 c -3.11673,-12.32501 -2.38374,-28.34267 1.81154,-39.58641 10.99825,-29.47635 38.27696,-47.78135 68.79473,-46.16376 18.93761,1.00379 33.20959,7.34552 46.51796,20.67018 12.13923,12.1541 17.78486,23.5918 20.05123,40.62261 1.92262,14.44759 -1.56543,31.13292 -9.2484,44.24038 -4.97451,8.48672 -17.9581,20.98565 -26.32079,25.33829 -11.90195,6.19477 -20.31032,8.27051 -33.5,8.27001 -7.99689,-3e-4 -13.59611,-0.56019 -18.38113,-1.83801 l -6.88112,-1.83759 -24.51846,24.51846 -24.51845,24.51845 2.14958,2.73276 c 1.18227,1.50301 2.14958,3.63509 2.14958,4.73796 0,1.1782 -3.85353,5.96868 -9.34341,11.61515 l -9.34341,9.60992 -3.65552,25.96321 c -2.07158,14.71334 -4.1976,26.50302 -4.90659,27.20902 -2.61067,2.59967 -178.39484,86.32777 -181.24209,86.32777 -0.65945,0 -1.94375,-0.82293 -2.85399,-1.82874 z m 103.84501,-58.24349 c 38.5,-18.34485 70.225,-33.66666 70.5,-34.04845 0.275,-0.3818 2.01212,-11.1455 3.86027,-23.91934 l 3.36026,-23.22517 -8.61336,-8.61336 -8.61337,-8.61336 -66.2469,66.37261 c -36.43579,36.50494 -65.7969,66.15408 -65.2469,65.88699 0.55,-0.2671 32.5,-15.49506 71,-33.83992 z m 51.5,-106.51268 c 0,-0.59984 -3.89408,-4.63544 -8.6535,-8.96799 l -8.65351,-7.87737 -23.09649,3.3098 c -12.70308,1.82039 -23.16205,3.3797 -23.24217,3.46513 -0.34416,0.367 -66.60792,139.29863 -67.08588,140.65534 -0.29065,0.825 29.00505,-27.97371 65.10155,-63.99714 36.0965,-36.02342 65.63,-65.98792 65.63,-66.58777 z m 37.81147,10.277 4.22789,-4.3079 -19.2492,-19.17844 -19.2492,-19.17843 -4.78456,4.71262 -4.78457,4.71262 18.75422,18.77372 c 10.31482,10.32555 19.22746,18.77372 19.80587,18.77372 0.57842,0 2.95422,-1.93856 5.27955,-4.30791 z M 405.15755,279.114 c 0,-0.32873 -2.65252,-2.65756 -5.89448,-5.17517 -5.36142,-4.16352 -14.45571,-14.0446 -16.99899,-18.46966 -0.88067,-1.53228 -4.1898,1.39097 -24.30415,21.47004 l -23.28467,23.24384 12.47965,12.50968 12.47964,12.50968 22.7615,-22.74536 c 12.51883,-12.50995 22.7615,-23.01432 22.7615,-23.34305 z m 49.79418,-4.06622 c 5.47235,-1.04662 18.96792,-7.384 23,-10.80057 l 2.29418,-1.94396 -2.56103,-5.05394 -2.56102,-5.05393 h -5.36231 c -3.66316,0 -7.17667,0.83064 -11.08819,2.62139 -23.03433,10.54547 -49.52092,-2.18393 -56.12088,-26.97158 -2.50502,-9.40817 -0.93433,-21.8049 3.71609,-29.32944 1.67808,-2.71519 1.91835,-4.23712 1.36639,-8.6549 -0.64304,-5.14669 -0.85011,-5.44801 -5.19435,-7.55861 -4.16632,-2.02415 -4.66476,-2.0714 -6.29427,-0.59671 -0.97331,0.88083 -3.18928,4.265 -4.92438,7.52038 -10.0232,18.80546 -10.56202,37.10261 -1.61573,54.86756 6.22678,12.36473 20.48422,24.94671 33.58263,29.63618 8.62614,3.08832 20.03229,3.56166 31.76287,1.31813 z m 39.08196,-30.3946 c 13.2527,-26.33172 4.45028,-59.27668 -20.15056,-75.41786 -17.96201,-11.78529 -43.4442,-12.51083 -61.47558,-1.75037 -2.8875,1.72315 -5.25,3.39825 -5.25,3.72245 0,0.3242 2.0669,1.59363 4.59311,2.82095 3.54137,1.72053 4.94549,3.12859 6.13203,6.14921 l 1.53892,3.9177 4.76412,-2.41416 c 19.42189,-9.84182 44.75405,-0.83118 54.29743,19.31357 2.93887,6.20355 3.17439,7.47976 3.17439,17.20071 0,9.36464 -0.29735,11.13481 -2.75,16.37084 -3.26723,6.97506 -3.22106,6.62916 -0.88486,6.62916 2.86952,0 6.57003,3.42103 8.6215,7.97036 2.20775,4.89592 2.85235,4.50229 7.3895,-4.51256 z m -42.88874,0.9533 c 7.51551,-2.23187 16.19184,-10.90819 18.4237,-18.4237 3.18076,-10.71077 1.19389,-19.87372 -6.05842,-27.94004 -5.95171,-6.61973 -11.10968,-9.22191 -19.46891,-9.82199 -9.33863,-0.6704 -15.87737,1.67299 -22.13847,7.93409 -6.42163,6.42163 -8.83774,12.02775 -8.9193,20.6955 -0.19073,20.26991 18.13552,33.50319 38.1614,27.55614 z M 55.657552,378.72772 C 37.73804,374.81932 21.295436,363.25481 11.356486,347.56965 3.305473,334.86394 -0.86126545,315.93998 1.152988,301.22871 6.9163403,259.13557 47.624359,231.94783 88.556136,242.8546 l 6.661979,1.77517 24.619305,-24.61931 24.6193,-24.6193 -2.14959,-2.73275 c -1.18227,-1.50301 -2.14958,-3.6351 -2.14958,-4.73797 0,-1.17742 3.85354,-5.97237 9.3347,-11.61514 l 9.33471,-9.60992 3.73992,-26 c 2.05696,-14.3 4.26885,-26.52437 4.9153,-27.16526 0.64646,-0.64089 40.55037,-19.930388 88.67537,-42.865553 48.125,-22.935164 88.03773,-42.132843 88.69496,-42.661507 1.94805,-1.566989 5.46649,-0.493107 7.54609,2.303185 l 1.9417,2.610867 -5.45466,11.389133 c -3.00007,6.264024 -22.20161,46.489134 -42.67011,89.389135 -20.46849,42.9 -38.02458,78.70225 -39.01354,79.56055 -1.22698,1.0649 -9.98097,2.72873 -27.56127,5.23848 l -25.76318,3.67792 -9.31511,9.01153 c -10.05332,9.72566 -12.79741,10.87028 -16.87551,7.03911 l -2.09953,-1.9724 -24.63472,24.7224 -24.63473,24.72241 1.86216,7 c 2.5798,9.69767 2.58369,24.8097 0.009,34.87676 -7.99826,31.27289 -36.25896,52.87512 -68.73936,52.54374 -4.285687,-0.0437 -10.492158,-0.6684 -13.792158,-1.38816 z m 30.607183,-12.14018 c 5.720269,-1.68109 18.892815,-8.17698 18.892815,-9.31676 0,-0.37228 -2.0669,-1.68105 -4.59311,-2.90837 -3.541371,-1.72054 -4.94549,-3.12859 -6.132024,-6.14921 l -1.538918,-3.91771 -4.76412,2.41417 c -2.620266,1.32778 -7.739567,2.88949 -11.376226,3.47045 -17.876019,2.8557 -34.54709,-5.98607 -42.768351,-22.68289 -3.130721,-6.35828 -3.327249,-7.37892 -3.327249,-17.27963 0,-9.38887 0.296199,-11.15455 2.75,-16.39305 3.257181,-6.9536 3.209585,-6.62916 0.972506,-6.62916 -2.81055,0 -6.078023,-2.79647 -8.256219,-7.06608 -1.103814,-2.16366 -2.386132,-3.93392 -2.849596,-3.93392 -1.451437,0 -8.03313,14.19622 -9.733142,20.99366 -2.359683,9.43512 -1.496934,24.29823 1.928961,33.23139 7.544511,19.6726 24.77866,34.11598 45.034176,37.74166 6.652219,1.19073 18.897981,0.44223 25.760497,-1.57455 z m 32.553185,-23.14409 c 4.6905,-7.04692 6.24535,-10.55951 8.39545,-18.96631 5.18728,-20.28208 -0.41357,-39.58414 -16.05582,-55.33276 -8.25155,-8.30766 -17.869115,-13.77455 -28.145442,-15.99863 -8.835489,-1.91225 -24.886046,-0.78027 -32.984238,2.32624 -5.739733,2.2018 -17.870318,9.26023 -17.870318,10.39821 0,0.21542 1.151444,2.66393 2.558766,5.44115 l 2.558766,5.04948 6.191234,-0.42398 c 3.729327,-0.25539 8.745061,-1.52471 12.61363,-3.19211 5.873237,-2.53143 7.241347,-2.73226 16,-2.34872 7.950599,0.34815 10.596859,0.90744 15.577604,3.29234 7.362467,3.52532 16.260388,12.23303 19.422218,19.00702 5.28627,11.32548 5.11319,24.97191 -0.45635,35.97991 -2.27923,4.50482 -2.58089,6.04836 -2.00309,10.24942 0.62634,4.55407 1.01127,5.1123 4.85873,7.04625 2.29817,1.15519 4.62849,2.1274 5.17849,2.16045 0.55,0.0331 2.42217,-2.07653 4.16037,-4.68796 z m -38.393977,-5.82317 c 6.30619,-2.14874 13.072972,-8.37527 16.324517,-15.02118 8.75764,-17.89998 -3.524543,-39.31788 -23.590402,-41.13739 -20.162276,-1.82825 -36.254457,17.58877 -30.625199,36.95274 2.060712,7.0886 9.129841,15.17574 16.104416,18.4236 6.033358,2.80955 14.902255,3.12798 21.786668,0.78223 z m 74.229867,-86.42116 22.97995,-22.99625 -11.97247,-12.00375 c -6.58486,-6.60206 -12.42584,-12.00374 -12.97995,-12.00374 -1.33941,0 -45.52379,44.18658 -45.52379,45.52606 0,0.5735 1.32617,1.82611 2.94705,2.78359 4.83996,2.85903 13.52244,11.27566 17.15421,16.62896 1.86931,2.7554 3.62741,5.02142 3.90689,5.0356 0.27949,0.0142 10.84914,-10.32253 23.48811,-22.97047 z m 43.52283,-29.52319 4.43551,-4.51946 -19.21,-19.20999 -19.20999,-19.21 -4.82621,4.75363 -4.8262,4.75363 18.5589,18.80728 c 10.2074,10.344 19.02771,18.88312 19.60069,18.97582 0.57299,0.0927 3.03777,-1.86521 5.4773,-4.35091 z m 61.66769,-17.84198 c 0.52772,-0.50516 67.31322,-140.82016 67.31322,-141.42374 0,-1.098282 -130.99576,130.14753 -131.03219,131.28231 -0.0177,0.55157 3.87567,4.63585 8.65196,9.07617 l 8.68415,8.07332 23.09804,-3.41464 c 12.70392,-1.87805 23.18209,-3.49509 23.28482,-3.59342 z m -6.18394,-84.76601 c 36.29844,-36.37009 65.53252,-65.879015 64.96463,-65.575388 -0.56788,0.303627 -32.29288,15.45739 -70.5,33.675029 -38.20711,18.217639 -69.9655,33.664059 -70.57419,34.325389 -0.6087,0.66132 -2.34352,10.20241 -3.85515,21.20241 -1.51163,11 -2.96154,21.13347 -3.22204,22.51882 -0.38942,2.07104 0.97862,4.07101 7.69534,11.25 4.49293,4.80215 8.46715,8.73118 8.83161,8.73118 0.36445,0 30.36137,-29.75735 66.6598,-66.12744 z"
       id="path301" /></g><path
     style="fill:#ffffff;stroke:none;stroke-width:15.9978;stroke-linecap:round;stroke-dasharray:none"
     d="m 179.88925,156.26942 c -4.28893,-4.36263 -7.98523,-8.52186 -8.21399,-9.24273 -0.39662,-1.24985 3.31213,-28.70225 5.36808,-39.73485 0.81882,-4.39394 1.2263,-5.4055 2.54989,-6.33007 2.88353,-2.014231 136.10862,-66.016482 136.53348,-65.591622 0.10892,0.108915 -28.74539,29.140519 -64.12068,64.514674 l -64.31872,64.316648 z"
     id="path309" /><path
     style="fill:#ffffff;stroke:none;stroke-width:15.9978;stroke-linecap:round;stroke-dasharray:none"
     d="m 205.56429,181.90624 -8.64706,-8.4257 64.32894,-64.331 c 35.38091,-35.382053 64.41989,-64.240038 64.53107,-64.128858 0.21428,0.214271 -16.91919,36.519363 -42.84235,90.781128 -8.62668,18.05716 -17.23346,36.08671 -19.12618,40.06566 -2.68809,5.65101 -3.74682,7.30801 -4.83714,7.5705 -0.76771,0.18482 -10.66318,1.70101 -21.98995,3.36932 -11.32677,1.66831 -21.08375,3.14385 -21.68219,3.27897 -0.76381,0.17248 -3.66508,-2.26534 -9.73514,-8.18002 z"
     id="path310" /><path
     style="fill:#ffffff;stroke:none;stroke-width:15.9978;stroke-linecap:round;stroke-dasharray:none"
     d="m 185.62422,198.002 c -4.11564,-4.00539 -12.50324,-12.39972 -18.63911,-18.65405 l -11.15614,-11.37151 4.34358,-4.31459 4.34357,-4.31459 18.77252,18.72935 18.77251,18.72935 -4.17851,4.2763 c -2.29819,2.35197 -4.31283,4.25966 -4.47699,4.2393 -0.16415,-0.0204 -3.6658,-3.31416 -7.78143,-7.31956 z"
     id="path311" /><path
     style="fill:#ffffff;stroke:none;stroke-width:15.9978;stroke-linecap:round;stroke-dasharray:none"
     d="m 128.05444,248.54717 c -3.94717,-5.37578 -9.86737,-11.27494 -15.48265,-15.42764 l -4.67071,-3.45416 22.72581,-22.72581 22.72581,-22.72581 11.74921,11.76984 11.74921,11.76984 -5.8388,6.01716 c -3.21134,3.30944 -7.14221,7.23635 -8.73527,8.72647 -1.59305,1.49012 -2.89646,3.06603 -2.89646,3.50202 0,0.43599 -0.50764,1.06439 -1.12808,1.39644 -0.62044,0.33205 -6.86583,6.11632 -13.87865,12.85393 -7.01281,6.73762 -12.90022,12.2507 -13.08314,12.2513 -0.18291,5.9e-4 -1.63924,-1.77852 -3.23628,-3.95358 z"
     id="path312" /><path
     style="fill:#ffffff;stroke:none;stroke-width:15.9978;stroke-linecap:round;stroke-dasharray:none"
     d="m 110.3696,325.33292 c -3.90173,-2.01499 -4.79496,-3.61744 -4.88954,-8.77186 -0.0516,-2.81069 0.35314,-4.38574 2.12811,-8.28217 3.29873,-7.24139 4.18524,-11.82654 3.85935,-19.9612 -0.33001,-8.2376 -2.19874,-14.7244 -5.64713,-19.6025 -1.23907,-1.75279 -2.69809,-3.98744 -3.24227,-4.96589 -1.381,-2.48311 -2.922842,-4.0843 -3.932891,-4.0843 -0.471474,0 -1.919509,-0.90928 -3.217864,-2.02062 -6.489862,-5.55508 -13.352461,-7.65498 -25.287969,-7.7379 -8.168924,-0.0568 -8.464526,-0.0135 -13.132482,1.92357 -5.630912,2.33661 -11.256162,3.63169 -15.837007,3.64607 l -3.301455,0.0104 -2.220157,-4.48686 c -1.221087,-2.46777 -2.220157,-4.83853 -2.220157,-5.26835 0,-0.95233 11.13175,-7.66594 15.971641,-9.63256 6.213332,-2.52471 12.732787,-3.5443 22.828876,-3.57027 7.88084,-0.0203 9.941898,0.17604 13.903411,1.32426 9.411766,2.72795 17.787154,7.86008 25.498844,15.62477 5.67897,5.718 9.77248,11.50702 12.85601,18.18092 2.71231,5.87044 4.67629,14.11191 4.24354,17.80725 -0.18155,1.55033 -0.075,2.97644 0.23673,3.16911 0.68328,0.42229 0.76292,2.66759 0.0946,2.66759 -0.25972,0 -0.47133,1.94749 -0.47025,4.32775 0.003,5.69031 -1.9716,13.07178 -5.33334,19.94145 -3.04437,6.22112 -6.99023,11.56035 -8.51213,11.51795 -0.56691,-0.0158 -2.53634,-0.80625 -4.37651,-1.75657 z"
     id="path313" /><path
     style="fill:#ffffff;stroke:none;stroke-width:15.9978;stroke-linecap:round;stroke-dasharray:none"
     d="m 57.90231,346.80847 c -17.052257,-4.25028 -31.281719,-15.86853 -39.103054,-31.92735 -4.41253,-9.05984 -5.377916,-13.70874 -5.330203,-25.66803 0.03649,-9.14743 0.119668,-9.79084 1.968893,-15.2307 2.169271,-6.38133 7.183469,-16.8324 8.228991,-17.15164 0.3768,-0.11505 1.662853,1.40039 2.857895,3.36764 2.591905,4.26674 5.021846,6.44669 7.758167,6.96003 l 2.01358,0.37775 -2.401508,5.41035 c -1.981445,4.464 -2.45568,6.27868 -2.711217,10.37461 -0.170339,2.73034 -0.540917,4.82136 -0.823505,4.64671 -0.282589,-0.17465 -0.513797,0.50417 -0.513797,1.50848 0,1.00431 0.230755,1.82602 0.512789,1.82602 0.282034,0 0.657625,2.32155 0.834648,5.159 0.286858,4.59799 0.617473,5.75017 3.040366,10.59552 6.069402,12.13773 16.013136,20.16724 28.162063,22.74071 9.712803,2.05743 17.694523,0.79264 30.450008,-4.82512 0.341319,-0.15032 0.985677,0.74106 1.431906,1.98085 1.334834,3.70866 2.389933,4.86751 6.750408,7.41416 3.47227,2.02791 4.02552,2.55917 3.34909,3.21591 -1.20727,1.17211 -12.22302,6.50566 -16.330503,7.90681 -7.901737,2.69545 -22.124368,3.31743 -30.145017,1.31829 z"
     id="path314" /><path
     style="fill:#ffffff;stroke:none;stroke-width:15.9978;stroke-linecap:round;stroke-dasharray:none"
     d="m 188.29167,441.30061 c 0.34484,-1.12238 35.80442,-75.76711 58.25355,-122.62752 6.75009,-14.09017 6.76634,-14.1166 8.89648,-14.46817 1.17372,-0.19373 11.47694,-1.71795 22.89605,-3.38718 l 20.76201,-3.03496 3.4137,2.98421 c 1.87753,1.64132 5.76059,5.35591 8.62903,8.25467 l 5.21534,5.27045 -63.71458,63.71773 c -35.04302,35.04475 -63.94941,63.9195 -64.23643,64.16612 -0.29123,0.25024 -0.34212,-0.1366 -0.11515,-0.87535 z"
     id="path315" /><path
     style="fill:#ffffff;stroke:none;stroke-width:15.9978;stroke-linecap:round;stroke-dasharray:none"
     d="m 198.47957,451.31375 c 0.65662,-0.74933 29.58571,-29.75657 64.28686,-64.46052 l 63.093,-63.09811 8.36491,8.39702 8.36491,8.39701 -3.20745,21.48952 c -1.7641,11.81924 -3.38085,22.17634 -3.59278,23.01579 -0.29903,1.18442 -1.54719,2.10655 -5.5727,4.11704 -10.14298,5.06576 -129.88691,62.35091 -132.03522,63.16525 -0.61588,0.23346 -0.52271,-0.0859 0.29847,-1.023 z"
     id="path316" /><path
     style="fill:#ffffff;stroke:none;stroke-width:15.9978;stroke-linecap:round;stroke-dasharray:none"
     d="m 330.19306,309.70391 -18.71312,-18.57234 4.39096,-4.39097 4.39097,-4.39096 18.78934,18.79644 18.78934,18.79645 -4.15271,4.18477 c -2.28398,2.30162 -4.29421,4.17671 -4.46718,4.16686 -0.17296,-0.01 -8.73538,-8.37547 -19.0276,-18.59025 z"
     id="path317" /><path
     style="fill:#ffffff;stroke:none;stroke-width:15.9978;stroke-linecap:round;stroke-dasharray:none"
     d="m 348.3063,292.09162 -11.94157,-12.04474 22.48129,-22.42803 c 12.36471,-12.33541 22.73933,-22.42802 23.05471,-22.42802 0.31538,0 1.27839,1.06529 2.14004,2.36732 2.18557,3.30263 12.17661,13.60444 17.10242,17.63439 l 4.10781,3.36073 -18.39337,18.31456 c -10.11635,10.07301 -20.24205,20.32921 -22.50156,22.79155 l -4.10819,4.47698 z"
     id="path318" /><path
     style="fill:#ffffff;stroke:none;stroke-width:15.9978;stroke-linecap:round;stroke-dasharray:none"
     d="m 434.37396,255.45323 c -8.96186,-1.04164 -16.77144,-4.39816 -25.52078,-10.96873 -11.55164,-8.67503 -19.00079,-19.26197 -22.75366,-32.33817 -1.16306,-4.05248 -1.34733,-6.05099 -1.31513,-14.26369 0.0338,-8.61172 0.19627,-10.07334 1.65252,-14.86382 2.75843,-9.07413 9.1231,-21.18282 11.64246,-22.14958 1.39173,-0.53406 8.37049,3.05002 8.95721,4.60015 0.28578,0.75506 0.70889,3.01175 0.94023,5.01488 0.39657,3.43374 0.28364,3.92878 -1.97458,8.6555 -8.05719,16.86466 -4.38294,36.34322 9.20386,48.79306 11.38226,10.42977 27.04616,13.23414 42.30619,7.57423 7.58564,-2.8135 9.63819,-3.29377 14.09295,-3.29756 l 3.90976,-0.003 2.35802,4.83978 2.35801,4.83977 -2.08926,1.74899 c -2.83273,2.37137 -13.6847,7.86437 -19.13552,9.68592 -2.69922,0.90202 -7.13775,1.73485 -11.30796,2.12177 -7.4997,0.69585 -7.43119,0.69579 -13.32432,0.0108 z"
     id="path319" /><path
     style="fill:#ffffff;stroke:none;stroke-width:15.9978;stroke-linecap:round;stroke-dasharray:none"
     d="m 487.15777,228.0537 c -2.21131,-4.14883 -5.57688,-7.18922 -7.95815,-7.18922 -2.16287,0 -2.10857,-0.64551 0.53262,-6.33294 1.7474,-3.76279 2.24284,-5.63582 2.46297,-9.31141 0.17686,-2.9532 0.51585,-4.55667 0.94647,-4.47699 0.36901,0.0683 0.67092,-0.41309 0.67092,-1.06971 0,-0.65662 -0.33577,-1.12671 -0.74616,-1.04463 -0.55193,0.11039 -0.74616,-1.22491 -0.74616,-5.1297 0,-7.71252 -2.47515,-14.05387 -8.38031,-21.47044 -4.5481,-5.71217 -14.61075,-11.94218 -22.27017,-13.78795 -8.76708,-2.11269 -18.28625,-1.15337 -26.58023,2.67869 -2.43173,1.12352 -4.52119,2.04277 -4.64325,2.04277 -0.12206,0 -0.87318,-1.4726 -1.66916,-3.27244 -1.44938,-3.27732 -2.53837,-4.23046 -8.76212,-7.66916 l -1.97686,-1.09223 1.47442,-1.13449 c 3.26351,-2.51109 12.55587,-6.65048 18.18849,-8.10227 4.95535,-1.27723 7.33815,-1.54078 14.02787,-1.55157 8.70229,-0.014 13.31838,0.74633 20.90188,3.44295 13.04852,4.63994 24.23614,14.42181 30.82643,26.95301 2.94527,5.60034 4.55185,10.19054 5.90633,16.87518 1.26108,6.2237 0.92503,19.17737 -0.65107,25.0963 -1.86227,6.99364 -7.66439,19.10179 -9.1534,19.10179 -0.27845,0 -1.35907,-1.59999 -2.40136,-3.55554 z"
     id="path320" /></svg>
