<?xml version="1.0" encoding="UTF-8" standalone="no"?>
<!-- Created with Inkscape (http://www.inkscape.org/) -->

<svg
   width="512"
   height="512"
   viewBox="0 0 512 512"
   version="1.1"
   id="svg1"
   xml:space="preserve"
   xmlns="http://www.w3.org/2000/svg"
   xmlns:svg="http://www.w3.org/2000/svg"><defs
     id="defs1" /><g
     id="g320"
     transform="translate(1.1938618,34.025069)"><path
       style="fill:#d0d0d0;fill-opacity:1"
       d="m 101.5,438 c 5.47936,-5.5 10.18748,-10 10.46248,-10 0.275,0 -3.98312,4.5 -9.46248,10 -5.479362,5.5 -10.187477,10 -10.462477,10 -0.275,0 3.983115,-4.5 9.462477,-10 z m -84,-40 c 3.820499,-3.85 7.171361,-7 7.446361,-7 0.275,0 -2.625862,3.15 -6.446361,7 -3.820499,3.85 -7.171361,7 -7.446361,7 -0.275,0 2.625862,-3.15 6.446361,-7 z M 312,333.5 c 4.65071,-4.675 8.68084,-8.5 8.95584,-8.5 0.275,0 -3.30513,3.825 -7.95584,8.5 -4.65071,4.675 -8.68084,8.5 -8.95584,8.5 -0.275,0 3.30513,-3.825 7.95584,-8.5 z M 101.98213,317.25 91.5,306.5 l 10.7485,10.48064 10.74851,10.48064 9.25149,-8.98064 9.2515,-8.98064 -8.97915,9.25 c -4.93853,5.0875 -9.22157,9.25 -9.51787,9.25 -0.29629,0 -5.25567,-4.8375 -11.02085,-10.75 z M 169,321.5 c 3.54322,-3.575 6.66722,-6.5 6.94222,-6.5 0.275,0 -2.399,2.925 -5.94222,6.5 -3.54322,3.575 -6.66722,6.5 -6.94222,6.5 -0.275,0 2.399,-2.925 5.94222,-6.5 z M 145.5,295 c 3.8205,-3.85 7.17136,-7 7.44636,-7 0.275,0 -2.62586,3.15 -6.44636,7 -3.8205,3.85 -7.17136,7 -7.44636,7 -0.275,0 2.62586,-3.15 6.44636,-7 z M 94.958208,293.75 C 99.102173,289.33481 100,288.54091 100,289.29179 c 0,0.16049 -2.1375,2.29799 -4.75,4.75 L 90.5,298.5 Z m 119.446782,2 -1.90499,-2.25 2.25,1.90499 c 2.11444,1.79022 2.70524,2.59501 1.90499,2.59501 -0.18976,0 -1.20226,-1.0125 -2.25,-2.25 z m -18.42707,-18.5 -8.47792,-8.75 8.75,8.47792 c 8.12674,7.87404 9.20553,9.02208 8.47792,9.02208 -0.14964,0 -4.08714,-3.9375 -8.75,-8.75 z m -26.01975,-6.4711 9.44476,-9.72109 -2.42326,-2.77891 -2.42326,-2.7789 2.95722,2.75816 2.95723,2.75816 -9.97873,9.74184 L 160.5134,280.5 Z M 206,259.5 c 3.54322,-3.575 6.66722,-6.5 6.94222,-6.5 0.275,0 -2.399,2.925 -5.94222,6.5 -3.54322,3.575 -6.66722,6.5 -6.94222,6.5 -0.275,0 2.399,-2.925 5.94222,-6.5 z m 29.5,-4.5 c 5.47936,-5.5 10.18748,-10 10.46248,-10 0.275,0 -3.98312,4.5 -9.46248,10 -5.47936,5.5 -10.18748,10 -10.46248,10 -0.275,0 3.98312,-4.5 9.46248,-10 z M 157,231.5 C 172.1175,216.375 184.71136,204 184.98636,204 185.26136,204 173.1175,216.375 158,231.5 142.8825,246.625 130.28864,259 130.01364,259 129.73864,259 141.8825,246.625 157,231.5 Z m 71,6.18709 c 0,-0.1721 1.4625,-1.6346 3.25,-3.25 l 3.25,-2.93709 -2.93709,3.25 C 228.82513,237.77946 228,238.45965 228,237.68709 Z m 21.47254,-23.47072 1.8983,-2.28362 -5.92465,-6.21638 -5.92466,-6.21637 6.47035,6.24111 6.47034,6.24111 -2.44399,2.25889 -2.44399,2.25889 z M 203.94617,202.25 200.5,198.5 l 3.75,3.44617 c 3.49042,3.20761 4.20979,4.05383 3.44617,4.05383 -0.16711,0 -1.85461,-1.6875 -3.75,-3.75 z m 231.50678,-1.5 -3.95295,-4.25 4.25,3.95295 c 3.95246,3.6762 4.70953,4.54705 3.95295,4.54705 -0.16338,0 -2.07588,-1.9125 -4.25,-4.25 z M 294,169.5 c 18.96902,-18.975 34.71413,-34.5 34.98913,-34.5 0.275,0 -15.02011,15.525 -33.98913,34.5 -18.96902,18.975 -34.71413,34.5 -34.98913,34.5 -0.275,0 15.02011,-15.525 33.98913,-34.5 z m 32.87244,18.75 c -1.24387,-1.58606 -1.2085,-1.62143 0.37756,-0.37756 1.66575,1.30637 2.19548,2.12756 1.37244,2.12756 -0.20765,0 -0.99515,-0.7875 -1.75,-1.75 z M 220,185.5 c 1.29175,-1.375 2.57363,-2.5 2.84863,-2.5 0.275,0 -0.55688,1.125 -1.84863,2.5 -1.29175,1.375 -2.57363,2.5 -2.84863,2.5 -0.275,0 0.55688,-1.125 1.84863,-2.5 z m 221,-9.77503 c 0,-0.15126 3.4875,-3.63876 7.75,-7.75 l 7.75,-7.47497 -7.47497,7.75 C 442.08244,175.44803 441,176.45627 441,175.72497 Z M 409.99085,149.25 389.5,128.5 410.25,148.99085 C 429.52996,168.03002 431.45134,170 430.74085,170 c -0.14253,0 -9.48003,-9.3375 -20.75,-20.75 z M 250.5,155 c 2.14824,-2.2 4.1309,-4 4.4059,-4 0.275,0 -1.25766,1.8 -3.4059,4 -2.14824,2.2 -4.1309,4 -4.4059,4 -0.275,0 1.25766,-1.8 3.4059,-4 z m -14.09501,-5.25 -1.90499,-2.25 2.25,1.90499 c 2.11444,1.79022 2.70524,2.59501 1.90499,2.59501 -0.18976,0 -1.20226,-1.0125 -2.25,-2.25 z M 267,138.5 c 1.86578,-1.925 3.61733,-3.5 3.89233,-3.5 0.275,0 -1.02655,1.575 -2.89233,3.5 -1.86578,1.925 -3.61733,3.5 -3.89233,3.5 -0.275,0 1.02655,-1.575 2.89233,-3.5 z M 341.5,122 c 5.47936,-5.5 10.18748,-10 10.46248,-10 0.275,0 -3.98312,4.5 -9.46248,10 -5.47936,5.5 -10.18748,10 -10.46248,10 -0.275,0 3.98312,-4.5 9.46248,-10 z m -58.5,0.5 c 1.86578,-1.925 3.61733,-3.5 3.89233,-3.5 0.275,0 -1.02655,1.575 -2.89233,3.5 -1.86578,1.925 -3.61733,3.5 -3.89233,3.5 -0.275,0 1.02655,-1.575 2.89233,-3.5 z M 399.5,118 c 0.99549,-1.1 2.03498,-2 2.30998,-2 0.275,0 -0.31449,0.9 -1.30998,2 -0.99549,1.1 -2.03498,2 -2.30998,2 -0.275,0 0.31449,-0.9 1.30998,-2 z m -35.94113,-1.5318 C 362.49125,115.66069 362.09865,115 362.68643,115 c 0.58777,0 1.62888,0.675 2.31357,1.5 1.5572,1.87632 1.06734,1.86551 -1.44113,-0.0318 z M 298.5,107 c 2.14824,-2.2 4.1309,-4 4.4059,-4 0.275,0 -1.25766,1.8 -3.4059,4 -2.14824,2.2 -4.1309,4 -4.4059,4 -0.275,0 1.25766,-1.8 3.4059,-4 z M 316,89.5 c 2.98742,-3.025 5.65668,-5.5 5.93168,-5.5 0.275,0 -1.94426,2.475 -4.93168,5.5 -2.98742,3.025 -5.65668,5.5 -5.93168,5.5 -0.275,0 1.94426,-2.475 4.93168,-5.5 z m 13.87244,-5.25 c -1.24387,-1.586056 -1.2085,-1.621426 0.37756,-0.377555 0.9625,0.754844 1.75,1.542344 1.75,1.75 0,0.823034 -0.82119,0.293303 -2.12756,-1.372445 z M 338,64.5 c -2.42903,-2.475 -4.19142,-4.5 -3.91642,-4.5 0.275,0 2.48739,2.025 4.91642,4.5 2.42903,2.475 4.19142,4.5 3.91642,4.5 -0.275,0 -2.48739,-2.025 -4.91642,-4.5 z M 318.43709,45.75 315.5,42.5 l 3.25,2.937091 C 321.77946,48.174872 322.45965,49 321.68709,49 c -0.1721,0 -1.6346,-1.4625 -3.25,-3.25 z M 308,27.622445 c 0,-0.207656 0.7875,-0.995156 1.75,-1.75 1.58606,-1.243871 1.62143,-1.208501 0.37756,0.377555 C 308.82119,27.915748 308,28.445479 308,27.622445 Z"
       id="path327" /><path
       style="fill:#b9b9b9;fill-opacity:1"
       d="m 87.5,452 c 2.148243,-2.2 4.130896,-4 4.405896,-4 0.275,0 -1.257653,1.8 -3.405896,4 -2.148243,2.2 -4.130896,4 -4.405896,4 -0.275,0 1.257653,-1.8 3.405896,-4 z M 53.75,398.33772 c 0.6875,-0.27741 1.8125,-0.27741 2.5,0 0.6875,0.27741 0.125,0.50439 -1.25,0.50439 -1.375,0 -1.9375,-0.22698 -1.25,-0.50439 z m 62.32895,-2.92105 c 0.048,-1.16495 0.28494,-1.4019 0.60416,-0.60417 0.28887,0.72187 0.25335,1.58438 -0.0789,1.91667 -0.3323,0.33229 -0.56864,-0.25834 -0.52522,-1.3125 z M 215.87244,380.25 c -1.24387,-1.58606 -1.2085,-1.62143 0.37756,-0.37756 1.66575,1.30637 2.19548,2.12756 1.37244,2.12756 -0.20765,0 -0.99515,-0.7875 -1.75,-1.75 z M 253.49148,334.75 231.5,312.5 l 22.25,21.99148 c 12.2375,12.09531 22.25,22.10781 22.25,22.25 0,0.70961 -2.07426,-1.317 -22.50852,-21.99148 z M 298,347.68709 c 0,-0.1721 1.4625,-1.6346 3.25,-3.25 l 3.25,-2.93709 -2.93709,3.25 C 298.82513,347.77946 298,348.45965 298,347.68709 Z M 158.5,332 c 0.99549,-1.1 2.03498,-2 2.30998,-2 0.275,0 -0.31449,0.9 -1.30998,2 -0.99549,1.1 -2.03498,2 -2.30998,2 -0.275,0 0.31449,-0.9 1.30998,-2 z m 164,-9 c 0.99549,-1.1 2.03498,-2 2.30998,-2 0.275,0 -0.31449,0.9 -1.30998,2 -0.99549,1.1 -2.03498,2 -2.30998,2 -0.275,0 0.31449,-0.9 1.30998,-2 z M 219,271.5 c 3.54322,-3.575 6.66722,-6.5 6.94222,-6.5 0.275,0 -2.399,2.925 -5.94222,6.5 -3.54322,3.575 -6.66722,6.5 -6.94222,6.5 -0.275,0 2.399,-2.925 5.94222,-6.5 z m -127,-22 c 3.543223,-3.575 6.667223,-6.5 6.942223,-6.5 0.275,0 -2.399,2.925 -5.942223,6.5 -3.543223,3.575 -6.667223,6.5 -6.942223,6.5 -0.275,0 2.399,-2.925 5.942223,-6.5 z m 112,-13 c 9.0625,-9.075 16.70227,-16.5 16.97727,-16.5 0.275,0 -6.91477,7.425 -15.97727,16.5 -9.0625,9.075 -16.70227,16.5 -16.97727,16.5 -0.275,0 6.91477,-7.425 15.97727,-16.5 z m 39.40499,5.25 -1.90499,-2.25 2.25,1.90499 c 2.11444,1.79022 2.70524,2.59501 1.90499,2.59501 -0.18976,0 -1.20226,-1.0125 -2.25,-2.25 z m -12,-12 -1.90499,-2.25 2.25,1.90499 c 2.11444,1.79022 2.70524,2.59501 1.90499,2.59501 -0.18976,0 -1.20226,-1.0125 -2.25,-2.25 z m -13.48068,-13.5 -2.42431,-2.75 2.75,2.42431 c 2.57029,2.26589 3.20859,3.07569 2.42431,3.07569 -0.17912,0 -1.41662,-1.2375 -2.75,-2.75 z M 187,201.5 c 1.29175,-1.375 2.57363,-2.5 2.84863,-2.5 0.275,0 -0.55688,1.125 -1.84863,2.5 -1.29175,1.375 -2.57363,2.5 -2.84863,2.5 -0.275,0 0.55688,-1.125 1.84863,-2.5 z m 43.97792,-10.25 -8.47792,-8.75 8.75,8.47792 c 4.8125,4.66286 8.75,8.60036 8.75,8.75 0,0.72761 -1.14804,-0.35118 -9.02208,-8.47792 z m -19.05361,-19 -2.42431,-2.75 2.75,2.42431 c 2.57029,2.26589 3.20859,3.07569 2.42431,3.07569 -0.17912,0 -1.41662,-1.2375 -2.75,-2.75 z M 341.48124,95.75 331.5,85.5 341.75,95.481238 C 351.27024,104.75186 352.45461,106 351.73124,106 c -0.14782,0 -4.76032,-4.6125 -10.25,-10.25 z m 94.97171,-82 L 432.5,9.5 l 4.25,3.952948 c 2.3375,2.174121 4.25,4.086621 4.25,4.25 0,0.756577 -0.87085,-4.9e-4 -4.54705,-3.952948 z M 428.92431,6.25 426.5,3.5 l 2.75,2.424314 c 1.5125,1.3333727 2.75,2.5708727 2.75,2.75 0,0.7842744 -0.8098,0.1459751 -3.07569,-2.424314 z"
       id="path326" /><path
       style="fill:#a3a3a3;fill-opacity:1"
       d="m 154,336.62244 c 0,-0.20765 0.7875,-0.99515 1.75,-1.75 1.58606,-1.24387 1.62143,-1.2085 0.37756,0.37756 C 154.82119,336.91575 154,337.44548 154,336.62244 Z M 115,273.5 c 7.96077,-7.975 14.69913,-14.5 14.97413,-14.5 0.275,0 -6.01336,6.525 -13.97413,14.5 -7.96077,7.975 -14.69913,14.5 -14.97413,14.5 -0.275,0 6.01336,-6.525 13.97413,-14.5 z m 80.87244,-11.25 c -1.24387,-1.58606 -1.2085,-1.62143 0.37756,-0.37756 0.9625,0.75485 1.75,1.54235 1.75,1.75 0,0.82304 -0.82119,0.29331 -2.12756,-1.37244 z m -11.94813,-12 -2.42431,-2.75 2.75,2.42431 c 2.57029,2.26589 3.20859,3.07569 2.42431,3.07569 -0.17912,0 -1.41662,-1.2375 -2.75,-2.75 z M 447,204.74038 c 0,-0.14279 8.8875,-9.03029 19.75,-19.75 L 486.5,165.5 467.00962,185.25 C 448.90054,203.6003 447,205.45152 447,204.74038 Z M 453,183.5 c 4.65071,-4.675 8.68084,-8.5 8.95584,-8.5 0.275,0 -3.30513,3.825 -7.95584,8.5 -4.65071,4.675 -8.68084,8.5 -8.95584,8.5 -0.275,0 3.30513,-3.825 7.95584,-8.5 z M 471.5,165 c 0.99549,-1.1 2.03498,-2 2.30998,-2 0.275,0 -0.31449,0.9 -1.30998,2 -0.99549,1.1 -2.03498,2 -2.30998,2 -0.275,0 0.31449,-0.9 1.30998,-2 z m -266.42105,-6.58333 c 0.048,-1.16495 0.28494,-1.4019 0.60416,-0.60417 0.28887,0.72187 0.25335,1.58437 -0.0789,1.91667 -0.3323,0.33229 -0.56864,-0.25834 -0.52522,-1.3125 z M 243,138.5 c 4.65071,-4.675 8.68084,-8.5 8.95584,-8.5 0.275,0 -3.30513,3.825 -7.95584,8.5 -4.65071,4.675 -8.68084,8.5 -8.95584,8.5 -0.275,0 3.30513,-3.825 7.95584,-8.5 z m 139,-3 c 3.54322,-3.575 6.66722,-6.5 6.94222,-6.5 0.275,0 -2.399,2.925 -5.94222,6.5 -3.54322,3.575 -6.66722,6.5 -6.94222,6.5 -0.275,0 2.399,-2.925 5.94222,-6.5 z"
       id="path325" /><path
       style="fill:#8c8c8c;fill-opacity:1"
       d="m 310.5,350 c 0.99549,-1.1 2.03498,-2 2.30998,-2 0.275,0 -0.31449,0.9 -1.30998,2 -0.99549,1.1 -2.03498,2 -2.30998,2 -0.275,0 0.31449,-0.9 1.30998,-2 z m -142.62756,-4.75 c -1.24387,-1.58606 -1.2085,-1.62143 0.37756,-0.37756 0.9625,0.75485 1.75,1.54235 1.75,1.75 0,0.82304 -0.82119,0.29331 -2.12756,-1.37244 z m -62,-9 c -1.24387,-1.58606 -1.2085,-1.62143 0.37756,-0.37756 0.9625,0.75485 1.75,1.54235 1.75,1.75 0,0.82304 -0.82119,0.29331 -2.12756,-1.37244 z M 155,300.5 c 17.31845,-17.325 31.71309,-31.5 31.98809,-31.5 0.275,0 -13.66964,14.175 -30.98809,31.5 -17.31845,17.325 -31.71309,31.5 -31.98809,31.5 -0.275,0 13.66964,-14.175 30.98809,-31.5 z m -39.07569,-6.25 -2.42431,-2.75 2.75,2.42431 c 2.57029,2.26589 3.20859,3.07569 2.42431,3.07569 -0.17912,0 -1.41662,-1.2375 -2.75,-2.75 z m 105.94813,-6 c -1.24387,-1.58606 -1.2085,-1.62143 0.37756,-0.37756 1.66575,1.30637 2.19548,2.12756 1.37244,2.12756 -0.20765,0 -0.99515,-0.7875 -1.75,-1.75 z m -7.43535,-90.5 -2.93709,-3.25 3.25,2.93709 c 3.02946,2.73778 3.70965,3.56291 2.93709,3.56291 -0.1721,0 -1.6346,-1.4625 -3.25,-3.25 z M 440.5,161 c 0.99549,-1.1 2.03498,-2 2.30998,-2 0.275,0 -0.31449,0.9 -1.30998,2 -0.99549,1.1 -2.03498,2 -2.30998,2 -0.275,0 0.31449,-0.9 1.30998,-2 z M 230,136.5 c 2.98742,-3.025 5.65668,-5.5 5.93168,-5.5 0.275,0 -1.94426,2.475 -4.93168,5.5 -2.98742,3.025 -5.65668,5.5 -5.93168,5.5 -0.275,0 1.94426,-2.475 4.93168,-5.5 z m 142,-6 c 1.86578,-1.925 3.61733,-3.5 3.89233,-3.5 0.275,0 -1.02655,1.575 -2.89233,3.5 -1.86578,1.925 -3.61733,3.5 -3.89233,3.5 -0.275,0 1.02655,-1.575 2.89233,-3.5 z M 238.5,128 c 0.99549,-1.1 2.03498,-2 2.30998,-2 0.275,0 -0.31449,0.9 -1.30998,2 -0.99549,1.1 -2.03498,2 -2.30998,2 -0.275,0 0.31449,-0.9 1.30998,-2 z m 17.57895,-9.58333 c 0.048,-1.16495 0.28494,-1.4019 0.60416,-0.60417 0.28887,0.72188 0.25335,1.58437 -0.0789,1.91667 -0.33229,0.33229 -0.56864,-0.25834 -0.52522,-1.3125 z M 390,112.68709 c 0,-0.1721 1.4625,-1.6346 3.25,-3.25 l 3.25,-2.93709 -2.93709,3.25 C 390.82513,112.77946 390,113.45965 390,112.68709 Z M 423.43709,19.75 420.5,16.5 l 3.25,2.937091 c 1.7875,1.6154 3.25,3.0779 3.25,3.25 0,0.772561 -0.82513,0.09236 -3.56291,-2.937091 z M 324.75,19.337719 c 0.6875,-0.277412 1.8125,-0.277412 2.5,0 0.6875,0.277413 0.125,0.504386 -1.25,0.504386 -1.375,0 -1.9375,-0.226973 -1.25,-0.504386 z"
       id="path324" /><path
       style="fill:#767676;fill-opacity:1"
       d="m 105.5,449 c 8.23625,-8.25 15.19999,-15 15.47499,-15 0.275,0 -6.23874,6.75 -14.47499,15 -8.236246,8.25 -15.199993,15 -15.474993,15 -0.275,0 6.238747,-6.75 14.474993,-15 z m 201,-95 c 0.99549,-1.1 2.03498,-2 2.30998,-2 0.275,0 -0.31449,0.9 -1.30998,2 -0.99549,1.1 -2.03498,2 -2.30998,2 -0.275,0 0.31449,-0.9 1.30998,-2 z M 258.49219,324.75 234.5,300.5 258.75,324.49219 C 281.28388,346.7865 283.45081,349 282.74219,349 c -0.1418,0 -11.0543,-10.9125 -24.25,-24.25 z M 322,338.5 c 5.20327,-5.225 9.6855,-9.5 9.9605,-9.5 0.275,0 -3.75723,4.275 -8.9605,9.5 -5.20327,5.225 -9.6855,9.5 -9.9605,9.5 -0.275,0 3.75723,-4.275 8.9605,-9.5 z m -230.747817,-12 c 0.0111,-2.2 0.215885,-2.98225 0.455078,-1.73834 0.239193,1.24391 0.230112,3.04391 -0.02018,4 C 91.436788,329.71775 91.241084,328.7 91.252183,326.5 Z M 124.4687,302.75 118.5,296.5 l 6.25,5.9687 c 3.4375,3.28278 6.25,6.09528 6.25,6.25 0,0.7389 -0.98689,-0.16298 -6.5313,-5.9687 z m 100.40374,-11.5 c -1.24387,-1.58606 -1.2085,-1.62143 0.37756,-0.37756 0.9625,0.75485 1.75,1.54235 1.75,1.75 0,0.82304 -0.82119,0.29331 -2.12756,-1.37244 z M 99.5,257 c 2.70865,-2.75 5.14982,-5 5.42482,-5 0.275,0 -1.71617,2.25 -4.42482,5 -2.708649,2.75 -5.149816,5 -5.424816,5 -0.275,0 1.716167,-2.25 4.424816,-5 z m 60.5,-3.5 c 2.98742,-3.025 5.65668,-5.5 5.93168,-5.5 0.275,0 -1.94426,2.475 -4.93168,5.5 -2.98742,3.025 -5.65668,5.5 -5.93168,5.5 -0.275,0 1.94426,-2.475 4.93168,-5.5 z m 15,-14.87756 c 0,-0.20765 0.7875,-0.99515 1.75,-1.75 1.58606,-1.24387 1.62143,-1.2085 0.37756,0.37756 C 175.82119,238.91575 175,239.44548 175,238.62244 Z M 254.5,224 c 3.8205,-3.85 7.17136,-7 7.44636,-7 0.275,0 -2.62586,3.15 -6.44636,7 -3.8205,3.85 -7.17136,7 -7.44636,7 -0.275,0 2.62586,-3.15 6.44636,-7 z m 39,-39 c 15.94289,-15.95 29.21207,-29 29.48707,-29 0.275,0 -12.54418,13.05 -28.48707,29 -15.94289,15.95 -29.21207,29 -29.48707,29 -0.275,0 12.54418,-13.05 28.48707,-29 z m -37.09501,16.75 -1.90499,-2.25 2.25,1.90499 c 2.11444,1.79022 2.70524,2.59501 1.90499,2.59501 -0.18976,0 -1.20226,-1.0125 -2.25,-2.25 z m -5,-5 -1.90499,-2.25 2.25,1.90499 c 2.11444,1.79022 2.70524,2.59501 1.90499,2.59501 -0.18976,0 -1.20226,-1.0125 -2.25,-2.25 z m 189.46745,-5.5 c -1.24387,-1.58606 -1.2085,-1.62143 0.37756,-0.37756 0.9625,0.75485 1.75,1.54235 1.75,1.75 0,0.82304 -0.82119,0.29331 -2.12756,-1.37244 z M 221.43709,166.75 218.5,163.5 l 3.25,2.93709 c 3.02946,2.73778 3.70965,3.56291 2.93709,3.56291 -0.1721,0 -1.6346,-1.4625 -3.25,-3.25 z m 177.48722,-43.5 -2.42431,-2.75 2.75,2.42431 c 2.57029,2.26589 3.20859,3.07569 2.42431,3.07569 -0.17912,0 -1.41662,-1.2375 -2.75,-2.75 z M 356,122.5 c 1.29175,-1.375 2.57363,-2.5 2.84863,-2.5 0.275,0 -0.55688,1.125 -1.84863,2.5 -1.29175,1.375 -2.57363,2.5 -2.84863,2.5 -0.275,0 0.55688,-1.125 1.84863,-2.5 z m 14.46241,-14.75 -4.96241,-5.25 5.25,4.96241 c 2.8875,2.72932 5.25,5.09182 5.25,5.25 0,0.74619 -0.92643,-0.084 -5.53759,-4.96241 z m -58.05742,-53 -1.90499,-2.25 2.25,1.904988 C 314.86444,56.195206 315.45524,57 314.65499,57 c -0.18976,0 -1.20226,-1.0125 -2.25,-2.25 z"
       id="path323" /><path
       style="fill:#606060;fill-opacity:1"
       d="m 25,405.5 c 2.987424,-3.025 5.65668,-5.5 5.93168,-5.5 0.275,0 -1.944256,2.475 -4.93168,5.5 -2.987424,3.025 -5.65668,5.5 -5.93168,5.5 -0.275,0 1.944256,-2.475 4.93168,-5.5 z M 86.946167,317.25 83.5,313.5 l 3.75,3.44617 C 90.740419,320.15378 91.459787,321 90.696167,321 c -0.167108,0 -1.854608,-1.6875 -3.75,-3.75 z M 188.5,317 c 0.99549,-1.1 2.03498,-2 2.30998,-2 0.275,0 -0.31449,0.9 -1.30998,2 -0.99549,1.1 -2.03498,2 -2.30998,2 -0.275,0 0.31449,-0.9 1.30998,-2 z m 17,-17 c 3.26557,-3.3 6.16239,-6 6.43739,-6 0.275,0 -2.17182,2.7 -5.43739,6 -3.26557,3.3 -6.16239,6 -6.43739,6 -0.275,0 2.17182,-2.7 5.43739,-6 z M 84,289.68709 c 0,-0.1721 1.4625,-1.6346 3.25,-3.25 L 90.5,283.5 87.562909,286.75 C 84.825128,289.77946 84,290.45965 84,289.68709 Z M 224,256.5 c 9.0625,-9.075 16.70227,-16.5 16.97727,-16.5 0.275,0 -6.91477,7.425 -15.97727,16.5 -9.0625,9.075 -16.70227,16.5 -16.97727,16.5 -0.275,0 6.91477,-7.425 15.97727,-16.5 z m -108.12756,-3.25 c -1.24387,-1.58606 -1.2085,-1.62143 0.37756,-0.37756 0.9625,0.75485 1.75,1.54235 1.75,1.75 0,0.82304 -0.82119,0.29331 -2.12756,-1.37244 z M 154,219.5 c 15.66776,-15.675 28.71184,-28.5 28.98684,-28.5 0.275,0 -12.31908,12.825 -27.98684,28.5 -15.66776,15.675 -28.71184,28.5 -28.98684,28.5 -0.275,0 12.31908,-12.825 27.98684,-28.5 z m 18,22.12244 c 0,-0.20765 0.7875,-0.99515 1.75,-1.75 1.58606,-1.24387 1.62143,-1.2085 0.37756,0.37756 C 172.82119,241.91575 172,242.44548 172,241.62244 Z M 192.5,221 c 8.23625,-8.25 15.19999,-15 15.47499,-15 0.275,0 -6.23874,6.75 -14.47499,15 -8.23625,8.25 -15.19999,15 -15.47499,15 -0.275,0 6.23874,-6.75 14.47499,-15 z m 103,-11 c 14.29207,-14.3 26.21058,-26 26.48558,-26 0.275,0 -11.19351,11.7 -25.48558,26 -14.29207,14.3 -26.21058,26 -26.48558,26 -0.275,0 11.19351,-11.7 25.48558,-26 z m -59.06291,9.75 -2.93709,-3.25 3.25,2.93709 c 3.02946,2.73778 3.70965,3.56291 2.93709,3.56291 -0.1721,0 -1.6346,-1.4625 -3.25,-3.25 z m -12.46598,-12.5 -6.47111,-6.75 6.75,6.47111 c 6.26969,6.01065 7.20713,7.02889 6.47111,7.02889 -0.15339,0 -3.19089,-3.0375 -6.75,-6.75 z M 208.5,182 c 3.26557,-3.3 6.16239,-6 6.43739,-6 0.275,0 -2.17182,2.7 -5.43739,6 -3.26557,3.3 -6.16239,6 -6.43739,6 -0.275,0 2.17182,-2.7 5.43739,-6 z m 123.93709,-3.25 -2.93709,-3.25 3.25,2.93709 c 3.02946,2.73778 3.70965,3.56291 2.93709,3.56291 -0.1721,0 -1.6346,-1.4625 -3.25,-3.25 z m -95.56465,-13.5 c -1.24387,-1.58606 -1.2085,-1.62143 0.37756,-0.37756 0.9625,0.75485 1.75,1.54235 1.75,1.75 0,0.82304 -0.82119,0.29331 -2.12756,-1.37244 z m 183.11742,-21 L 401.5,125.5 420.25,143.98986 C 437.67066,161.16882 439.45171,163 438.73986,163 c -0.14307,0 -8.58057,-8.4375 -18.75,-18.75 z M 276.5,114 c 20.89457,-20.9 38.21513,-38 38.49013,-38 0.275,0 -16.59556,17.1 -37.49013,38 -20.89457,20.9 -38.21513,38 -38.49013,38 -0.275,0 16.59556,-17.1 37.49013,-38 z m 64,24 c 0.99549,-1.1 2.03498,-2 2.30998,-2 0.275,0 -0.31449,0.9 -1.30998,2 -0.99549,1.1 -2.03498,2 -2.30998,2 -0.275,0 0.31449,-0.9 1.30998,-2 z M 351,127.62244 c 0,-0.20765 0.7875,-0.99515 1.75,-1.75 1.58606,-1.24387 1.62143,-1.2085 0.37756,0.37756 C 351.82119,127.91575 351,128.44548 351,127.62244 Z M 297.43709,113.75 294.5,110.5 l 3.25,2.93709 c 3.02946,2.73778 3.70965,3.56291 2.93709,3.56291 -0.1721,0 -1.6346,-1.4625 -3.25,-3.25 z m 16,-16 -2.93709,-3.25 3.25,2.937091 C 316.77946,100.17487 317.45965,101 316.68709,101 c -0.1721,0 -1.6346,-1.4625 -3.25,-3.25 z m 31.03161,-42 -5.9687,-6.25 6.25,5.968697 C 350.55572,61.013106 351.4576,62 350.7187,62 c -0.15472,0 -2.96722,-2.8125 -6.25,-6.25 z m 120.93629,-72 -1.90499,-2.25 2.25,1.904988 c 1.2375,1.047743 2.25,2.060243 2.25,2.25 0,0.800253 -0.80479,0.209457 -2.59501,-1.904988 z"
       id="path322" /><path
       style="fill:#494949;fill-opacity:1"
       d="m 31,399.62244 c 0,-0.20765 0.7875,-0.99515 1.75,-1.75 1.586056,-1.24387 1.621426,-1.2085 0.377555,0.37756 C 31.821186,399.91575 31,400.44548 31,399.62244 Z m 6.75,-14.28472 c 0.6875,-0.27741 1.8125,-0.27741 2.5,0 0.6875,0.27741 0.125,0.50439 -1.25,0.50439 -1.375,0 -1.9375,-0.22698 -1.25,-0.50439 z M 293.49395,274.75 262.5,243.5 l 31.25,30.99395 c 17.1875,17.04667 31.25,31.10917 31.25,31.25 0,0.70614 -2.70196,-1.95191 -31.50605,-30.99395 z M 211.5,244 c 9.33787,-9.35 17.20294,-17 17.47794,-17 0.275,0 -7.14007,7.65 -16.47794,17 -9.33787,9.35 -17.20294,17 -17.47794,17 -0.275,0 7.14007,-7.65 16.47794,-17 z m 38.93709,-10.25 -2.93709,-3.25 3.25,2.93709 c 3.02946,2.73778 3.70965,3.56291 2.93709,3.56291 -0.1721,0 -1.6346,-1.4625 -3.25,-3.25 z m -18.56465,-18.5 c -1.24387,-1.58606 -1.2085,-1.62143 0.37756,-0.37756 0.9625,0.75485 1.75,1.54235 1.75,1.75 0,0.82304 -0.82119,0.29331 -2.12756,-1.37244 z M 252.5,192 c 0.99549,-1.1 2.03498,-2 2.30998,-2 0.275,0 -0.31449,0.9 -1.30998,2 -0.99549,1.1 -2.03498,2 -2.30998,2 -0.275,0 0.31449,-0.9 1.30998,-2 z m -12.57569,-6.75 -2.42431,-2.75 2.75,2.42431 c 2.57029,2.26589 3.20859,3.07569 2.42431,3.07569 -0.17912,0 -1.41662,-1.2375 -2.75,-2.75 z m -8.95847,-9 -5.46584,-5.75 5.75,5.46584 c 5.34193,5.07794 6.20809,6.03416 5.46584,6.03416 -0.15629,0 -2.74379,-2.5875 -5.75,-5.75 z M 243,171.5 c -2.42903,-2.475 -4.19142,-4.5 -3.91642,-4.5 0.275,0 2.48739,2.025 4.91642,4.5 2.42903,2.475 4.19142,4.5 3.91642,4.5 -0.275,0 -2.48739,-2.025 -4.91642,-4.5 z M 230.46241,158.75 225.5,153.5 l 5.25,4.96241 c 4.87839,4.61116 5.7086,5.53759 4.96241,5.53759 -0.15818,0 -2.52068,-2.3625 -5.25,-5.25 z m 114.97468,-20 -2.93709,-3.25 3.25,2.93709 c 1.7875,1.6154 3.25,3.0779 3.25,3.25 0,0.77256 -0.82513,0.0924 -3.56291,-2.93709 z m -62.56465,-7.5 c -1.24387,-1.58606 -1.2085,-1.62143 0.37756,-0.37756 1.66575,1.30637 2.19548,2.12756 1.37244,2.12756 -0.20765,0 -0.99515,-0.7875 -1.75,-1.75 z m -112.79349,-6.83333 c 0.048,-1.16495 0.28494,-1.4019 0.60416,-0.60417 0.28887,0.72188 0.25335,1.58437 -0.0789,1.91667 -0.3323,0.33229 -0.56864,-0.25834 -0.52522,-1.3125 z M 404.5,45 c 12.09062,-12.1 22.20795,-22 22.48295,-22 0.275,0 -9.39233,9.9 -21.48295,22 -12.09062,12.1 -22.20795,22 -22.48295,22 -0.275,0 9.39233,-9.9 21.48295,-22 z m -6,-6 c 12.09062,-12.1 22.20795,-22 22.48295,-22 0.275,0 -9.39233,9.9 -21.48295,22 -12.09062,12.1 -22.20795,22 -22.48295,22 -0.275,0 9.39233,-9.9 21.48295,-22 z m 53,-30 c 4.37419,-4.4 8.17808,-8 8.45308,-8 0.275,0 -3.07889,3.6 -7.45308,8 -4.37419,4.4 -8.17808,8 -8.45308,8 -0.275,0 3.07889,-3.6 7.45308,-8 z m -20,-14 c 2.70865,-2.75 5.14982,-5 5.42482,-5 0.275,0 -1.71617,2.25 -4.42482,5 -2.70865,2.75 -5.14982,5 -5.42482,5 -0.275,0 1.71617,-2.25 4.42482,-5 z m 6.5,-6.377555 c 0,-0.207656 0.7875,-0.995156 1.75,-1.75 1.58606,-1.243871 1.62143,-1.208501 0.37756,0.377555 C 438.82119,-11.084252 438,-10.554521 438,-11.377555 Z M 460.92431,-20.75 458.5,-23.5 l 2.75,2.424314 c 2.57029,2.265887 3.20859,3.075686 2.42431,3.075686 -0.17912,0 -1.41662,-1.2375 -2.75,-2.75 z"
       id="path321" /><path
       style="fill:#333333;fill-opacity:1"
       d="M 69.557825,468.50788 C 65.423836,467.03521 65.105204,466.80992 54.696175,458 45.384254,450.11864 33.888363,443.49369 22.44124,439.41186 11.360778,435.46078 7.4772412,432.48605 5.9383103,426.7709 4.8292414,422.65213 5.954695,413.85257 8.1157127,409.74648 10.186397,405.81203 26.350995,389.89009 30.37219,387.82411 c 4.020165,-2.06546 3.877014,-2.06368 21.786534,-0.26973 8.287987,0.83019 14.798068,-1.11361 20.727317,-6.18883 8.468729,-7.24892 17.107884,-30.42416 18.639411,-50.00175 l 0.713539,-9.12121 -5.556086,-6.04364 c -9.497427,-10.33082 -9.833193,-17.83806 -1.21095,-27.07512 L 89.788026,284.5 86.395483,280.58509 C 83.113099,276.7973 80.993696,271.63097 81.027539,267.5 c 0.03524,-4.30116 4.071836,-10.34637 12.120294,-18.15134 12.252967,-11.88228 19.059037,-12.99922 28.736237,-4.71589 l 4.27791,3.66172 30.16901,-30.06517 c 26.64419,-26.55248 30.68412,-30.20109 34.57786,-31.22856 3.17268,-0.8372 5.55594,-0.87064 8.5,-0.11929 l 4.09115,1.04411 6.21368,-6.14791 6.21369,-6.14791 -4.39695,-4.70069 c -2.7731,-2.96467 -4.64736,-6.03547 -5.07498,-8.31488 -1.89538,-10.10328 4.64964,-18.73998 15.19238,-20.0476 3.27962,-0.40678 5.30448,-1.97025 14.15942,-10.93302 9.41012,-9.52471 10.30399,-10.75354 10.01265,-13.76477 -0.22684,-2.34466 -1.08985,-3.7365 -2.96695,-4.78502 -2.37846,-1.32856 -3.20822,-1.28786 -8.1772,0.40115 -5.18494,1.76241 -5.59669,2.14404 -6.59628,6.11379 -1.45779,5.78942 -6.90057,10.25985 -20.83488,17.11275 -12.08956,5.94566 -17.83687,7.23825 -23.6514,5.31928 C 175.60219,139.39349 171,132.98685 171,124.5 c 0,-10.1952 5.27519,-15.76032 18.80833,-19.84202 20.97111,-6.325049 29.66376,-6.307355 34.86234,0.071 1.00761,1.23627 2.01683,1.12781 7.24535,-0.7786 11.77736,-4.294243 21.9937,0.55618 23.73186,11.26722 1.27554,7.86024 -0.0941,10.5194 -11.24918,21.83944 l -10.42011,10.57425 2.54729,2.39305 2.54728,2.39305 39.21342,-39.10402 c 21.56738,-21.50721 40.19634,-39.601117 41.39768,-40.20868 3.41294,-1.726049 10.4593,-1.314532 13.95128,0.814774 l 3.13555,1.911959 3.33126,-3.436988 3.33126,-3.436988 -4.96681,-4.927538 -4.9668,-4.927538 -4.14098,1.126322 c -3.43008,0.932962 -4.91427,0.831 -8.64538,-0.593921 -5.80577,-2.217247 -14.11032,-10.889012 -15.78692,-16.485001 -3.27471,-10.930007 7.66201,-23.185538 20.639,-23.127779 8.28481,0.03688 12.45694,2.778538 28.84827,18.957243 l 15.15986,14.96321 22.89383,-22.910076 c 22.68705,-22.7031457 22.89554,-22.9505608 23.0827,-27.392224 0.25463,-6.0426643 2.69666,-9.650355 13.80916,-20.400688 10.18583,-9.853858 14.33825,-11.920982 21.40528,-10.655797 5.37074,0.961506 19.69004,15.280808 20.65155,20.6515541 1.26519,7.06702681 -0.80194,11.2194474 -10.6558,21.4052729 -10.75033,11.112501 -14.35802,13.554535 -20.40068,13.809158 -4.44165,0.18716 -4.68914,0.39571 -27.38962,23.080093 l -22.90747,22.891227 7.32288,7.539532 c 8.60837,8.863058 10.87132,12.80833 11.10698,19.364113 l 0.17344,4.82458 21.84308,21.86002 21.84308,21.86002 3.07387,-1.5936 c 5.04539,-2.6157 13.3046,-2.20948 18.6391,0.91674 C 479.45703,152.35214 487,160.22989 487,162.70119 487,165.1368 445.96254,206 443.51655,206 c -1.06179,0 -4.67322,-2.8125 -8.02541,-6.25 -8.86875,-9.09444 -10.64712,-17.57664 -5.52859,-26.36941 l 1.8159,-3.11941 -21.15603,-21.13886 -21.15604,-21.13887 -7.48319,7.58392 C 373.30725,144.36009 368.83261,147 362.60494,147 c -6.28128,0 -9.38697,-1.41576 -14.93202,-6.8069 l -4.82709,-4.6931 -3.0277,3.5 c -5.29034,6.1156 -6.07001,9.12826 -5.29708,20.4681 0.68411,10.03683 0.66571,10.1565 -2.05936,13.39506 l -2.74963,3.26775 4.02718,4.18454 c 2.21495,2.3015 4.52973,5.16747 5.14397,6.36881 1.41277,2.76314 1.43934,9.33716 0.0525,12.98487 -0.58537,1.53963 -12.50277,14.29261 -26.48311,28.33996 l -25.41881,25.54063 23.50584,23.47514 c 14.43591,14.41706 24.26878,25.04393 25.48311,27.54086 2.49702,5.13444 2.5266,12.66043 0.0705,17.93428 -1.14178,2.45167 -8.39109,10.44552 -18.72804,20.65148 -17.18864,16.97084 -19.87097,18.82568 -27.24916,18.84294 -7.68301,0.018 -9.91522,-1.66271 -34.34736,-25.86093 -13.05224,-12.92727 -23.85224,-23.30824 -24,-23.06881 -0.14777,0.23943 -1.34403,2.57346 -2.65838,5.18675 -2.90893,5.78377 -9.71737,12.24488 -15.68461,14.88447 -5.28457,2.33762 -5.13688,0.78586 -2.41415,25.3641 1.62276,14.64877 2.371,18.46545 4.01895,20.5 8.37777,10.34321 9.81938,15.92693 5.70633,22.10212 -3.81362,5.72564 -7.28197,6.73275 -24.40119,7.08545 -14.02502,0.28896 -15.3728,0.15752 -17.93821,-1.74936 -5.94317,-4.41757 -6.46557,-5.97887 -8.03667,-24.01926 -1.58875,-18.24302 -2.78953,-22.42092 -8.22247,-28.6087 -3.90382,-4.44621 -8.03066,-6.43674 -15.13826,-7.30178 l -5.5,-0.66939 -5.1051,6.83046 c -10.65621,14.25767 -15.89473,23.53459 -18.78246,33.26196 -2.84998,9.60017 -1.5417,17.38456 3.87699,23.0685 4.63116,4.85786 5.91084,13.24689 2.96702,19.45053 -0.84895,1.78903 -9.73645,11.34905 -19.75,21.24448 -16.222083,16.03075 -18.717932,18.11777 -22.89927,19.14835 -5.880249,1.44931 -7.352376,1.40899 -12.249355,-0.33548 z m 10.724294,-9.89502 C 82.051953,457.84993 90.8125,449.83159 99.75,440.79433 c 17.89914,-18.09893 18.74714,-19.65412 13.88666,-25.4676 -6.94028,-8.30106 -9.11366,-18.97307 -6.16435,-30.26888 2.50305,-9.58664 6.3296,-17.28345 14.85983,-29.88939 C 126.54946,348.93611 130,343.70545 130,343.54477 c 0,-0.16069 -4.25757,-0.8767 -9.46127,-1.59115 -9.17248,-1.25934 -9.5909,-1.43107 -13.70821,-5.6263 C 104.49471,333.94729 102.2919,332 101.93539,332 c -0.3565,0 -0.93555,3.09185 -1.28676,6.87078 -1.427441,15.35867 -10.665577,38.8528 -18.70815,47.57797 -8.882557,9.63643 -23.906433,13.74366 -37.350065,10.21077 -7.849886,-2.0629 -9.988254,-1.08824 -19.744374,8.99939 -5.750081,5.94546 -7.94745,9.00398 -8.833851,12.29582 -1.783723,6.62424 -0.575619,8.23171 8.641752,11.49848 14.639207,5.18835 28.669892,13.5064 39.540296,23.44134 7.793609,7.12292 10.553672,8.10396 16.087881,5.71831 z M 211.75,396.74376 c 2.14284,-1.69481 1.39721,-4.10236 -2.86851,-9.26209 -2.26518,-2.73992 -4.47869,-5.92749 -4.91891,-7.08348 -0.44022,-1.156 -1.80746,-11.60708 -3.03832,-23.22463 l -2.23791,-21.12282 -5.09318,-1.48515 c -2.80124,-0.81683 -7.1746,-2.80777 -9.71857,-4.42432 l -4.6254,-2.93918 -7.29894,7.34798 -7.29895,7.34799 4.26394,4.62582 c 6.64042,7.20401 9.23133,13.96154 10.71825,27.95497 0.70255,6.61163 1.29741,13.83352 1.32193,16.04864 0.0245,2.21513 0.75535,5.04227 1.62408,6.28256 1.54655,2.20801 1.85426,2.24116 14.75,1.58871 7.24377,-0.36649 13.73299,-1.11124 14.42049,-1.655 z m 83.04966,-46.16385 c 1.48519,-0.78105 9.56284,-8.35128 17.95034,-16.82273 14.59243,-14.7385 15.25,-15.5763 15.25,-19.42987 0,-2.87938 -0.82601,-5.13884 -2.89803,-7.92727 -1.59392,-2.14502 -16.21839,-17.17165 -32.49882,-33.3925 l -29.60078,-29.49246 -21.50257,21.48512 -21.50257,21.48512 30.75139,30.85877 c 16.91326,16.97233 32.10138,31.71145 33.75138,32.7536 3.58145,2.26208 6.64267,2.40541 10.29966,0.48222 z m -114.80642,-39.07314 25.47853,-25.49324 -8.97256,-9.01432 -8.97255,-9.01432 -31.76333,31.75169 C 138.2935,317.20002 124,331.74267 124,332.05358 c 0,0.63162 22.8089,4.63112 27.50735,4.82337 2.65676,0.1087 5.97762,-2.84892 28.48589,-25.37018 z M 152.40804,317.5 c -1.51741,-2.31587 -1.51741,-2.68413 0,-5 1.94751,-2.97228 5.5768,-3.27922 7.93697,-0.67126 2.15105,2.37688 2.09544,4.46269 -0.17375,6.51627 -2.64083,2.38992 -5.87422,2.03797 -7.76322,-0.84501 z m -29.6383,1.23122 9.23023,-9.26877 -9.99998,-9.96246 C 112.12145,289.65852 110.52213,286.87787 113.2,284.2 c 2.99775,-2.99775 6.13691,-1.32683 16.03719,8.5363 l 9.77297,9.7363 7.20172,-7.20172 7.20172,-7.20172 -2.14019,-2.28458 c -4.49109,-4.79409 -5.58905,-12.87235 -2.52341,-18.56592 0.9625,-1.78757 14.7954,-16.29173 30.73978,-32.23146 l 28.98978,-28.98133 -4.70294,-4.70293 c -3.85969,-3.8597 -5.34754,-4.70294 -8.29799,-4.70294 -3.41388,0 -6.18754,2.59391 -55.03685,51.47019 C 101.26007,287.27354 89,300.10931 89,301.92752 c 0,1.70515 3.3417,5.77051 11.6968,14.22981 C 107.13004,322.6708 112.65143,328 112.96655,328 c 0.31512,0 4.72656,-4.17095 9.80319,-9.26878 z m 89.08916,3.98085 c 5.9711,-3.95148 9.363,-8.96602 9.90911,-14.64946 0.44085,-4.58811 0.23457,-5.1045 -3.77821,-9.45785 C 215.65532,296.07214 213.22709,294 212.59375,294 c -0.63334,0 -4.0056,2.87967 -7.49391,6.39927 -7.3581,7.42409 -7.361,9.15835 -0.0137,8.18369 4.3809,-0.58115 4.97985,-0.41185 6.44294,1.82111 4.46009,6.80696 -7.62886,11.47799 -16.62307,6.42296 -3.75314,-2.10938 -3.92539,-2.11948 -5.88616,-0.34501 -3.08775,2.79437 -2.48294,4.1046 3.23013,6.99754 6.73976,3.41282 13.70391,3.14025 19.6089,-0.76749 z M 177.20634,257.75657 173.938,254.5 l -8.469,8.61087 c -8.97391,9.12424 -9.93728,11.34786 -6.83519,15.77671 l 1.63382,2.3326 10.10352,-10.10352 10.10352,-10.10353 z m 67.5933,-15.46984 C 243.61809,241.02903 242.1622,240 241.56432,240 240.24828,240 208,272.13516 208,273.44659 c 0,0.50848 0.99266,1.98114 2.20591,3.27259 l 2.2059,2.34808 17.26805,-17.2469 17.26805,-17.2469 z m -136.85949,23.27332 c 9.1476,-9.17884 10.24141,-10.63636 9.05497,-12.06593 -2.05834,-2.48015 -6.88067,-4.66522 -8.88907,-4.02778 C 105.28506,250.36169 91,265.55721 91,267.66266 c 0,2.71776 4.009647,8.26265 6.017867,8.32203 0.284827,0.008 5.199853,-4.68267 10.922283,-10.42464 z m 109.55401,-16.5542 16.97209,-16.99415 -2.74268,-2.74267 -2.74267,-2.74268 -17.19967,17.19967 -17.19967,17.19967 2.38353,2.53715 c 1.31095,1.39544 2.64756,2.53716 2.97026,2.53716 0.32269,0 8.22416,-7.64737 17.55881,-16.99415 z m 1.27015,-32.74902 -3.19935,-3.30089 -17.26431,17.24317 -17.26431,17.24317 3.19935,3.30089 3.19935,3.30089 17.26431,-17.24317 17.26431,-17.24317 z M 330,192.9603 c 0,-1.63704 -1.3555,-3.87801 -3.77441,-6.24001 l -3.7744,-3.68561 -26.45315,26.46728 -26.45315,26.46728 4.95503,5.03068 4.95504,5.03068 25.27252,-25.25795 C 324.56971,200.94186 330,194.96584 330,192.9603 Z m -40.11511,8.65484 35.37433,-35.38485 -0.72116,-5.77196 -0.72116,-5.77196 -38.12552,38.12552 -38.12552,38.12552 2.90416,3.0313 c 1.59729,1.66721 3.15985,3.03129 3.47235,3.03129 0.31251,0 16.48664,-15.92319 35.94252,-35.38486 z m -42.87002,15.86981 5.44655,-5.51506 -14.71711,-14.7171 -14.7171,-14.71711 -6.02304,5.9602 -6.02304,5.96019 14.2465,14.27197 C 233.0632,216.57762 239.94532,223 240.52123,223 c 0.5759,0 3.49804,-2.48177 6.49364,-5.51505 z M 353,109.01843 C 353,105.41094 329.593,82 325.98612,82 c -1.80156,0 -4.40964,1.882472 -8.93754,6.450989 l -6.39365,6.450989 4.17253,4.526668 c 4.70687,5.106344 4.76253,5.284014 2.61584,8.348844 -2.25684,3.22209 -4.91765,2.74823 -9.7907,-1.74359 l -4.30272,-3.96611 -4.34146,4.42363 -4.34145,4.42362 4.16651,4.52014 c 4.70048,5.09941 4.75629,5.2778 2.60982,8.34231 -2.25684,3.22209 -4.91765,2.74823 -9.7907,-1.74359 l -4.30272,-3.96611 -4.15363,4.23224 -4.15362,4.23224 3.93605,4.48387 c 4.39073,5.00182 4.77601,6.49245 2.36633,9.15512 -2.50562,2.76868 -4.95626,2.22827 -9.69241,-2.13736 l -4.30272,-3.96611 -4.09739,4.21611 -4.0974,4.2161 3.92245,4.37861 c 4.31943,4.82174 4.74292,6.55731 2.26747,9.29265 -2.42222,2.67652 -4.17833,2.28236 -9.38259,-2.10593 l -4.66629,-3.93468 -4.65788,4.72899 -4.65789,4.72899 3.63397,3.45569 c 6.71469,6.38525 9.38567,10.84505 9.38567,15.67146 0,5.13463 -1.00657,7.35083 -5.74458,12.64808 l -3.45594,3.86386 4.82936,4.90309 4.82936,4.90309 46.7709,-46.76296 C 342.87656,121.6297 353,110.96912 353,109.01843 Z m 106.47428,69.00733 14.94927,-14.97423 -2.85232,-2.97718 c -3.35312,-3.4999 -7.53213,-4.67703 -10.76258,-3.03155 -1.26976,0.64677 -6.92017,5.73021 -12.55648,11.29654 -10.82021,10.68587 -12.66342,14.07906 -10.21521,18.80536 1.69793,3.27788 4.06636,5.8553 5.38053,5.8553 0.60913,0 7.83469,-6.73841 16.05679,-14.97424 z M 249,179.15439 c 0,-1.77397 -2.97663,-5.48163 -10.75,-13.39008 -5.9125,-6.01525 -12.04788,-11.61578 -13.63418,-12.44563 -2.65105,-1.38685 -3.09563,-1.35168 -5.5,0.43515 -1.45427,1.08075 -2.76023,3.16164 -2.94103,4.68619 -0.27886,2.3513 1.56756,4.65372 12.95234,16.15115 l 13.27756,13.40893 3.29765,-3.19622 C 247.66787,182.89882 249,180.61664 249,179.15439 Z m 193.29039,-18.93561 2.66458,-2.78122 -21.2638,-21.24654 -21.26379,-21.24654 -2.92721,3.05534 -2.9272,3.05534 20.95459,20.97242 C 429.05258,153.56241 438.73947,163 439.05398,163 c 0.31451,0 1.7709,-1.25155 3.23641,-2.78122 z m -70.63799,-28.45136 5.53268,-5.23258 -2.34254,-1.50867 c -1.2884,-0.82977 -4.70504,-3.71538 -7.59254,-6.41248 -2.8875,-2.69709 -5.25,-4.34958 -5.25,-3.67219 0,0.67738 -2.70864,4.05238 -6.01921,7.49999 l -6.01921,6.26838 4.49687,4.14506 c 6.52573,6.01521 9.91021,5.80115 17.19395,-1.08751 z M 203.55945,127.4963 c 14.97538,-7.43209 18.52532,-12.17548 12.44055,-16.62294 -2.42282,-1.77088 -2.76241,-1.76926 -11,0.0522 -11.85305,2.62094 -20.19018,5.6853 -22.25,8.17811 -0.99105,1.19938 -1.75,3.77309 -1.75,5.9345 0,2.97141 0.60901,4.29672 2.75,5.98444 3.81842,3.01002 8.21645,2.22711 19.80945,-3.52634 z m 183.24021,-11.91388 c 3.17936,-1.66905 9.45331,-8.08818 11.16714,-11.42556 1.88542,-3.67152 0.62974,-6.140985 -6.93242,-13.633569 l -7.04149,-6.976709 -9.49062,9.45116 -9.49062,9.451158 5.24417,5.38897 c 5.45368,5.60425 10.31284,9.15198 12.54384,9.15839 0.71481,0.002 2.51481,-0.63417 4,-1.41384 z M 367.01975,85.460203 376.5,75.920407 370.83794,70.460203 C 367.72381,67.457091 364.62121,65 363.94329,65 c -0.67793,0 -5.33,4.033711 -10.33794,8.963803 l -9.10535,8.963803 5.9687,6.036197 C 353.75148,92.283711 356.68537,95 356.98845,95 c 0.30308,0 4.81716,-4.292909 10.0313,-9.539797 z m 38.4749,-40.454847 21.9776,-21.994645 -3.24434,-3.244336 -3.24433,-3.244335 -22.20829,22.208286 -22.20828,22.208287 2.90358,3.030693 C 381.06757,65.636188 382.63133,67 382.94562,67 c 0.31428,0 10.46135,-9.89759 22.54903,-21.994644 z m -49.06584,12.109831 c 0.26911,-0.43543 -5.4921,-6.714477 -12.80268,-13.953439 C 331.36868,31.024389 330.04488,30 326.61742,30 320.28509,30 314,34.60512 314,39.244849 c 0,2.403848 7.68291,10.637463 10.61195,11.372605 1.47748,0.370822 3.59991,-0.203304 5.81694,-1.573506 4.29443,-2.654104 4.94056,-2.350822 13.4903,6.3321 l 6.4192,6.519186 2.80056,-1.994178 c 1.54031,-1.096798 3.02075,-2.350439 3.28986,-2.785869 z M 451.20894,10.25 C 459.75229,1.9521295 462.44796,-2.0132458 461.52417,-4.9238522 460.81881,-7.1462321 449.60022,-18 448.0085,-18 c -0.62699,0 -2.11592,0.522307 -3.30874,1.160682 -3.306,1.769318 -17.59632,15.93803637 -18.29497,18.1392954 -0.47041,1.4821488 1.11554,3.68354 6.71464,9.3202506 C 437.15121,14.679103 441.07538,18 441.83981,18 c 0.76442,0 4.98053,-3.4875 9.36913,-7.75 z"
       id="path320" /></g><path
     style="fill:#ffffff;stroke:none;stroke-width:15.9978;stroke-linecap:round;stroke-dasharray:none"
     d="m 73.720983,492.5411 c -1.313249,-0.60206 -5.342533,-3.58085 -8.953966,-6.61953 -12.024094,-10.11715 -22.530365,-16.37038 -37.16412,-22.11974 -5.749914,-2.25904 -8.321232,-3.59284 -9.401663,-4.87686 -1.74799,-2.07737 -1.801507,-2.78833 -0.531746,-7.06408 0.845584,-2.84739 1.892084,-4.17006 9.103198,-11.50555 4.481279,-4.55857 8.873142,-8.66625 9.759696,-9.12819 0.886554,-0.46193 2.609405,-0.83987 3.828558,-0.83987 2.849784,0 12.658272,1.74225 14.407482,2.55915 0.950016,0.44366 1.736174,0.43426 2.68619,-0.0322 0.738702,-0.36267 3.492047,-1.07279 6.118543,-1.57805 5.915493,-1.13797 13.411494,-4.74962 17.514745,-8.43879 9.533269,-8.57123 18.476454,-30.44112 21.41887,-52.37823 0.25511,-1.90195 0.73245,-3.49777 1.06076,-3.54626 0.32832,-0.0485 1.40279,1.00411 2.38773,2.33912 2.785,3.77486 7.49593,5.84014 16.11714,7.06578 3.93974,0.56009 7.41154,1.2496 7.7151,1.53224 0.32766,0.30507 -2.05011,4.419 -5.85143,10.12393 -10.6908,16.0445 -15.01218,25.48413 -16.43644,35.90373 -1.09333,7.99859 0.66399,16.38543 4.65971,22.23858 0.90763,1.32954 2.36773,3.46215 3.24469,4.73913 0.87695,1.27699 1.59445,2.9098 1.59445,3.62848 0,2.52531 -3.64449,6.7255 -19.21168,22.141 -12.989541,12.86296 -16.134096,15.67873 -18.165763,16.26637 -3.097511,0.89592 -3.042713,0.89973 -5.900054,-0.41021 z"
     id="path328" /><path
     style="fill:#ffffff;stroke:none;stroke-width:5.65606;stroke-linecap:round;stroke-dasharray:none"
     d="m 104.00527,351.43136 c -5.536094,-5.41849 -10.600631,-10.5166 -11.254526,-11.32913 -1.439849,-1.78916 -2.417975,-3.42553 -2.420651,-4.04967 -0.0052,-1.20217 4.745122,-6.51541 13.729387,-15.35649 8.57964,-8.44291 23.76249,-23.72798 25.73442,-25.90769 0.87057,-0.9623 2.85298,-2.93677 4.40537,-4.38772 3.95206,-3.69383 44.8004,-44.57103 48.77847,-48.81293 1.79918,-1.91851 3.3959,-3.49686 3.54828,-3.50746 0.15238,-0.0106 1.24395,-0.98414 2.42572,-2.16343 2.13567,-2.13119 4.48347,-4.03516 5.78823,-4.694 1.0709,-0.54075 2.36253,-0.6309 3.79211,-0.26465 1.77574,0.45492 2.32499,0.83711 4.31469,3.00233 0.95245,1.03647 2.66992,2.84097 3.8166,4.00999 l 2.08487,2.1255 -1.96356,1.87818 c -2.67188,2.55569 -22.47658,22.35697 -25.63783,25.63339 -1.39994,1.45095 -3.12772,3.14335 -3.8395,3.76089 -0.71179,0.61753 -1.29416,1.25859 -1.29416,1.42456 0,0.16598 -0.0788,0.30178 -0.17508,0.30178 -0.0963,0 -0.76109,0.53031 -1.47733,1.17846 -1.23406,1.11677 -1.62057,1.77619 -1.04108,1.77619 0.14365,0 -1.15829,1.42184 -2.89319,3.15964 -1.97263,1.97592 -3.21042,3.06893 -3.30399,2.91753 -0.0971,-0.15705 -0.66564,0.21538 -1.6184,1.06006 -1.77147,1.57053 -8.57497,8.52111 -9.04911,9.24475 -0.48815,0.74501 -0.16387,0.88251 0.52494,0.22259 0.32435,-0.31075 0.66634,-0.56499 0.75998,-0.56499 0.0936,0 -0.81378,1.05751 -2.01649,2.35002 -5.89919,6.33966 -6.57703,7.34173 -7.26588,10.74132 -0.42548,2.09987 -0.31841,5.90182 0.2227,7.90783 0.6243,2.31436 2.07477,4.91357 3.91597,7.01731 1.14237,1.30527 1.58989,1.95219 1.35047,1.95219 -0.42034,0 -12.91244,12.44743 -13.49958,13.4513 l -0.39945,0.68296 -7.18459,-7.13193 c -3.95153,-3.92256 -7.99185,-7.80296 -8.9785,-8.62311 -4.86643,-4.04524 -7.24278,-4.61058 -9.55282,-2.27265 -1.87238,1.89499 -1.51346,3.92721 1.31218,7.42953 0.58578,0.72606 1.06505,1.37921 1.06505,1.45145 0,0.0722 -0.42525,-0.26065 -0.945,-0.73973 -1.09715,-1.01132 -1.36599,-1.11155 -0.77966,-0.29069 0.58111,0.81355 4.68336,5.11789 4.87761,5.11789 0.0879,0 1.24156,1.11591 2.56364,2.4798 6.91774,7.13649 9.41464,9.56125 9.7236,9.44269 0.17639,-0.0677 0.44252,0.0237 0.59141,0.20311 0.14888,0.17939 0.21158,0.33804 0.13933,0.35255 -0.0722,0.0145 -0.21507,0.0383 -0.31737,0.0528 -0.10231,0.0145 -4.2467,3.96769 -9.20976,8.78484 -4.96306,4.81714 -9.08183,8.7756 -9.15282,8.79657 -0.071,0.021 -4.6586,-4.39519 -10.1947,-9.81369 z"
     id="path329" /><path
     style="fill:#ffffff;stroke:none;stroke-width:5.65606;stroke-linecap:round;stroke-dasharray:none"
     d="m 97.187139,309.42654 c -1.319317,-0.81029 -3.339527,-3.38957 -4.203362,-5.36659 -0.816904,-1.8696 -0.822788,-2.2826 -0.05079,-3.56463 1.089003,-1.80846 2.820635,-3.85053 4.245485,-5.00657 1.746353,-1.4169 8.202128,-8.03582 8.870658,-9.09484 0.58844,-0.93216 2.2303,-2.31476 3.25072,-2.73744 0.52429,-0.21717 0.92569,-0.22555 1.87489,-0.0392 1.45336,0.28537 4.66615,1.82186 4.84125,2.3153 0.12866,0.36257 1.35262,1.95504 2.01561,2.62248 0.34046,0.34274 0.34511,0.42917 0.0534,0.99324 -0.62105,1.20098 -2.57273,3.34533 -8.43143,9.26381 -6.66421,6.7322 -11.153157,11.00525 -11.560066,11.00407 -0.150278,-4.3e-4 -0.558146,-0.17577 -0.906374,-0.38965 z"
     id="path330" /><path
     style="fill:#ffffff;stroke:none;stroke-width:5.65606;stroke-linecap:round;stroke-dasharray:none"
     d="m 160.25095,313.2465 c -1.59246,-2.39686 -1.83764,-2.96606 -1.84585,-4.28529 -0.009,-1.49557 0.83676,-3.26893 2.61242,-5.47564 0.70052,-0.87057 4.14743,-4.54835 7.65981,-8.17285 l 6.38615,-6.59 0.42209,0.52857 c 0.23215,0.29072 1.44541,1.7222 2.69613,3.18108 l 2.27403,2.65251 -5.88387,6.04701 c -10.79249,11.09171 -12.42083,12.79737 -12.6736,13.27536 -0.13811,0.26118 -0.32075,0.47486 -0.40587,0.47486 -0.0851,0 -0.64376,-0.73603 -1.24144,-1.63561 z"
     id="path331" /><path
     style="fill:#ffffff;stroke:none;stroke-width:5.65606;stroke-linecap:round;stroke-dasharray:none"
     d="m 150.8986,370.65939 c -4.65606,-0.52076 -19.12399,-3.00004 -23.24972,-3.98415 l -2.25053,-0.53682 4.25548,-4.14402 c 7.76246,-7.55912 41.83088,-41.59317 50.28784,-50.23709 4.57738,-4.67857 8.27495,-8.58344 8.21683,-8.67748 -0.13167,-0.21304 0.61023,-0.90851 0.7839,-0.73484 0.0696,0.0696 0.0844,0.23661 0.0328,0.37104 -0.0516,0.13443 3.77754,4.16794 8.50918,8.96335 l 8.60298,8.71892 -14.28461,14.26955 c -7.85654,7.84825 -14.43515,14.29164 -14.61914,14.31864 -0.184,0.027 -0.97373,0.61592 -1.75497,1.30869 -2.21022,1.95996 -10.52574,10.4858 -11.09783,11.37853 -0.65185,1.01718 -1.92267,2.2358 -2.4038,2.30506 -0.20381,0.0293 -1.36777,1.08489 -2.58656,2.34567 -3.79263,3.92328 -5.28248,4.68833 -8.44188,4.33495 z m 8.81113,-17.06296 c 1.92945,-0.79381 3.42959,-2.7056 3.42959,-4.37071 0,-2.63811 -2.66475,-5.21905 -5.38169,-5.21243 -1.91808,0.005 -3.51212,1.09631 -4.76701,3.26453 -0.73402,1.26826 -0.76652,1.97129 -0.14834,3.20908 1.53959,3.08273 4.10697,4.24522 6.86745,3.10953 z"
     id="path332" /><path
     style="fill:#ffffff;stroke:none;stroke-width:5.65606;stroke-linecap:round;stroke-dasharray:none"
     d="m 200.56257,359.62326 c -2.37227,-0.32992 -4.76369,-1.1076 -7.18967,-2.33808 -2.77798,-1.409 -4.10625,-2.35353 -4.6148,-3.28156 l -0.36214,-0.66085 1.37672,-1.28785 c 0.75719,-0.70832 1.60371,-1.62117 1.88116,-2.02856 0.27744,-0.40739 0.63635,-0.74135 0.79758,-0.74215 0.16122,-7.9e-4 1.63327,0.65899 3.27122,1.46617 3.46093,1.70556 4.72932,2.08139 7.62497,2.25935 3.55482,0.21847 6.87713,-0.6858 8.76123,-2.38464 2.09602,-1.88992 2.20404,-4.24928 0.31253,-6.82604 -1.20212,-1.63761 -1.22891,-1.64135 -8.23341,-1.1501 -2.64635,0.1856 -3.50698,-0.20686 -3.1934,-1.45626 0.14007,-0.55809 12.45411,-13.01462 12.86575,-13.01462 0.14722,0 0.8269,0.67136 1.51042,1.49192 1.45387,1.74537 2.3809,2.57308 2.67692,2.39014 0.26078,-0.16118 1.32693,0.85079 2.80284,2.6604 2.06629,2.53346 2.38264,3.6247 2.01621,6.95476 -0.53746,4.88431 -2.29643,8.2849 -6.18935,11.96576 -2.96289,2.80149 -6.23659,4.72193 -9.44136,5.53855 -1.93223,0.49236 -4.90307,0.68987 -6.67342,0.44366 z"
     id="path333" /><path
     style="fill:#ffffff;stroke:none;stroke-width:5.65606;stroke-linecap:round;stroke-dasharray:none"
     d="m 185.86567,432.34056 c -2.35376,-0.83945 -3.31532,-3.35512 -3.71487,-9.71896 -1.45513,-23.17701 -3.6725,-32.02506 -9.99446,-39.88121 -0.81191,-1.00895 -1.11995,-1.54718 -0.98118,-1.71439 0.11125,-0.13405 0.14304,-0.39809 0.0707,-0.58675 -0.18175,-0.47363 -2.7777,-2.51152 -3.01357,-2.36574 -0.10524,0.065 -0.64406,-0.41164 -1.19738,-1.05931 l -1.00603,-1.17757 7.15425,-7.15657 c 3.93483,-3.93611 7.2271,-7.15656 7.31614,-7.15656 0.089,0 1.46665,0.82492 3.06135,1.83315 4.73854,2.99591 8.36765,4.56835 14.77084,6.39997 1.18511,0.33899 1.53009,0.52506 1.53009,0.82526 0,0.7891 2.77746,26.49811 3.49026,32.30683 0.96114,7.8326 1.53229,11.3301 1.99891,12.24072 0.49646,0.96882 3.1006,4.58069 5.40183,7.49217 1.93586,2.44922 3.24968,4.83686 3.24836,5.90336 -9e-4,0.72863 -0.63693,1.88613 -1.20144,2.18647 -2.09776,1.11609 -24.56232,2.47489 -26.93375,1.62913 z"
     id="path334" /><path
     style="fill:#ffffff;stroke:none;stroke-width:5.65606;stroke-linecap:round;stroke-dasharray:none"
     d="m 288.49636,385.31359 c -2.17573,-0.74186 -3.29172,-1.60809 -6.79045,-5.27077 -4.43729,-4.64522 -45.38459,-45.11163 -45.64985,-45.11373 -0.11608,-9.3e-4 -1.94364,-1.73237 -4.06125,-3.84767 -2.75376,-2.75074 -3.818,-3.94748 -3.7371,-4.20238 0.11797,-0.37169 -1.08722,-1.67658 -2.34358,-2.53745 -0.35823,-0.24546 -0.76107,-0.69355 -0.8952,-0.99576 -0.27295,-0.61498 -2.3752,-2.34336 -2.85026,-2.34336 -1.27661,0 -0.77242,-0.53636 20.50198,-21.80997 l 21.2631,-21.26232 27.68183,27.92032 c 15.22501,15.35617 29.17505,29.34488 31.00009,31.08602 3.48987,3.32942 4.91245,5.15972 5.78919,7.44843 0.57675,1.50559 0.80517,5.05115 0.40538,6.29222 -0.44413,1.37867 -2.07192,3.62965 -3.25888,4.50651 -1.15973,0.85675 -2.77388,2.56183 -3.10837,3.2835 -0.10859,0.23428 -0.51339,0.64246 -0.89956,0.90707 -0.84807,0.5811 -10.8552,10.46255 -15.23112,15.03983 -1.72882,1.80837 -3.95056,4.05641 -4.93721,4.99566 -0.98664,0.93924 -2.3457,2.29077 -3.02012,3.00341 -1.49773,1.58257 -2.78311,2.42108 -4.54704,2.96623 -1.76564,0.54567 -3.58435,0.52315 -5.31158,-0.0658 z"
     id="path335" /><path
     style="fill:#ffffff;stroke:none;stroke-width:5.65606;stroke-linecap:round;stroke-dasharray:none"
     d="m 211.96115,311.14184 c -2.0031,-2.22458 -2.71698,-3.33151 -2.47481,-3.83738 0.10387,-0.21695 3.94021,-4.04803 8.5252,-8.5135 4.585,-4.46548 11.40949,-11.29038 15.16554,-15.16646 7.36516,-7.60053 9.27537,-9.47446 9.65789,-9.47446 0.13502,0 0.9342,0.81121 1.77595,1.80269 1.52318,1.79411 2.15725,2.32903 2.50556,2.11376 0.10052,-0.0621 0.30013,0.0285 0.44357,0.20129 0.20704,0.24947 0.20704,0.37903 0,0.6285 -0.14344,0.17283 -0.3427,0.26363 -0.44279,0.20177 -0.30404,-0.18791 -4.56154,3.89119 -12.26135,11.74753 -4.02629,4.10814 -7.52118,7.65928 -7.76643,7.89144 -4.44144,4.20416 -12.48937,12.42444 -12.79924,13.07335 -0.21676,0.45391 -0.49693,0.8585 -0.6226,0.89909 -0.12567,0.0406 -0.89359,-0.66483 -1.70649,-1.56762 z"
     id="path336" /><path
     style="fill:#ffffff;stroke:none;stroke-width:5.65606;stroke-linecap:round;stroke-dasharray:none"
     d="m 200.0359,299.07013 c -0.67912,-0.59779 -0.94772,-0.98064 -0.87719,-1.25031 0.0969,-0.37042 -0.2728,-0.79514 -2.07611,-2.38528 l -0.5629,-0.49637 2.94577,-2.74361 c 3.94733,-3.67644 28.98497,-28.83094 30.09382,-30.23428 0.84334,-1.06731 1.12382,-1.13817 1.24865,-0.31544 0.0506,0.3336 3.37416,4.20861 3.72233,4.33997 0.14577,0.055 -0.97,1.27589 -2.54575,2.7856 -1.92943,1.84857 -2.78602,2.81055 -2.74362,3.08119 0.0757,0.48286 -14.7418,15.39903 -15.14385,15.24474 -0.47097,-0.18072 -7.49446,6.65853 -12.35098,12.02699 l -0.73132,0.80841 z"
     id="path337" /><path
     style="fill:#ffffff;stroke:none;stroke-width:5.65606;stroke-linecap:round;stroke-dasharray:none"
     d="m 188.14994,287.44771 c -0.21699,-0.23977 -0.27769,-0.4238 -0.13978,-0.4238 0.54503,0 0.16974,-0.61079 -1.18081,-1.92179 -2.18901,-2.1249 -3.89913,-3.56097 -4.09579,-3.43943 -0.0979,0.0605 -0.17791,0.0333 -0.17791,-0.0603 0,-0.22325 34.0311,-34.25532 34.25434,-34.25532 0.0942,0 0.11049,0.0983 0.0362,0.21841 -0.12903,0.20877 3.46471,4.31856 4.48649,5.13073 0.26954,0.21424 0.62828,0.33649 0.79721,0.27167 0.44906,-0.17232 0.84194,0.64484 0.50515,1.05065 -0.1863,0.22448 -0.30215,0.2446 -0.40937,0.0711 -0.20129,-0.3257 -6.67022,5.89795 -18.47339,17.77297 -11.16747,11.23545 -14.70222,14.9129 -14.5582,15.14593 0.0578,0.0935 -0.0672,0.32592 -0.27779,0.51649 -0.3565,0.32262 -0.40928,0.31729 -0.7664,-0.0773 z"
     id="path338" /><path
     style="fill:#ffffff;stroke:none;stroke-width:5.65606;stroke-linecap:round;stroke-dasharray:none"
     d="m 238.43034,253.81697 c -1.71212,-1.65298 -3.11294,-3.11667 -3.11294,-3.25263 0,-0.13597 -0.59357,-0.73317 -1.31905,-1.32711 -0.72547,-0.59395 -1.42335,-1.19098 -1.55083,-1.32674 -0.87544,-0.93229 -8.27541,-8.32292 -10.47885,-10.46562 -1.47996,-1.43918 -2.69085,-2.67468 -2.69085,-2.74558 0,-0.1399 -3.16183,-3.25912 -5.11821,-5.04923 -0.66761,-0.61087 -1.30211,-1.05613 -1.40998,-0.98946 -0.10788,0.0667 -0.24881,0.036 -0.31319,-0.0682 -0.1685,-0.27264 6.58946,-6.64631 7.08582,-6.68288 0.45792,-0.0337 3.26073,-2.7169 4.09892,-3.92395 l 0.53094,-0.76459 3.5216,3.61373 c 8.19682,8.41127 12.01627,12.24316 12.73318,12.77468 0.6123,0.45397 5.01868,4.992 11.29173,11.62911 l 0.69998,0.7406 -1.78711,2.15902 c -0.9829,1.18746 -1.7871,2.23296 -1.7871,2.32335 0,0.24605 -4.14648,4.28669 -5.54819,5.40658 -0.67196,0.53686 -1.33676,0.97119 -1.47733,0.9652 -0.14058,-0.006 -1.65642,-1.36334 -3.36854,-3.01632 z"
     id="path339" /><path
     style="fill:#ffffff;stroke:none;stroke-width:5.65606;stroke-linecap:round;stroke-dasharray:none"
     d="m 243.74853,221.00498 c -0.55473,-0.78423 -4.83376,-4.50159 -5.0371,-4.37593 -0.24308,0.15024 -0.51392,-0.25389 -0.55611,-0.82979 -0.0344,-0.46991 -10.36716,-10.68616 -11.33257,-11.20481 -0.33441,-0.17966 -0.58038,-0.48989 -0.58038,-0.73202 0,-0.25678 -0.75923,-1.13531 -1.95218,-2.25889 -5.39818,-5.08431 -6.78191,-6.85656 -6.78191,-8.6861 0,-1.85504 1.64519,-4.28468 3.86649,-5.71008 1.28317,-0.82341 2.19233,-0.8291 3.76563,-0.0236 1.74399,0.89291 3.15048,2.15839 7.34666,6.61012 2.05149,2.17642 3.80442,3.95713 3.89541,3.95713 0.091,0 0.39835,0.26117 0.68304,0.58038 1.90897,2.14045 2.5601,2.79637 2.77592,2.79637 0.13493,0 0.7814,0.64106 1.43659,1.42457 0.6552,0.78351 2.62662,2.84855 4.38094,4.58897 2.53823,2.51813 3.32437,3.43803 3.84925,4.50423 0.62678,1.27315 0.64657,1.38874 0.39777,2.32282 -0.42199,1.58429 -1.22698,2.73853 -3.60963,5.17569 -2.1569,2.20623 -2.25359,2.27686 -2.54782,1.86092 z"
     id="path340" /><path
     style="fill:#ffffff;stroke:none;stroke-width:5.65606;stroke-linecap:round;stroke-dasharray:none"
     d="m 188.20029,166.51082 c -2.43077,-0.61223 -4.95459,-2.73528 -5.52168,-4.64488 -0.62173,-2.09361 -0.29503,-5.59857 0.70449,-7.55778 0.67794,-1.32887 1.89704,-2.31259 4.3432,-3.50461 4.57596,-2.22987 12.66515,-4.60444 22.29197,-6.54376 4.44058,-0.89456 5.50707,-0.7048 7.86865,1.40004 3.89157,3.4685 2.13095,6.86539 -6.19145,11.94562 -2.80439,1.71188 -11.42078,6.00094 -14.4029,7.16947 -3.99786,1.56653 -7.27816,2.19281 -9.09228,1.7359 z"
     id="path341" /><path
     style="fill:#ffffff;stroke:none;stroke-width:5.65606;stroke-linecap:round;stroke-dasharray:none"
     d="m 260.24861,238.41092 c -0.12928,-0.15577 -0.17972,-0.33856 -0.11209,-0.40619 0.31613,-0.31613 -0.29819,-1.08688 -2.13678,-2.6809 -1.09865,-0.95251 -2.16424,-1.75862 -2.36797,-1.79136 -0.23726,-0.0381 -0.3527,-0.21926 -0.3211,-0.50382 0.053,-0.47705 -0.74263,-1.38324 -2.65539,-3.02447 -1.00771,-0.86465 -1.10307,-1.01641 -0.88952,-1.41544 0.13156,-0.24582 0.38653,-0.44694 0.56661,-0.44694 0.71491,0 4.09627,-3.69813 3.80793,-4.16466 -0.0552,-0.0894 0.36514,-0.77964 0.93413,-1.53394 2.36083,-3.12973 3.13832,-5.40246 3.14339,-9.18864 0.004,-2.73453 -0.31203,-4.15827 -1.44882,-6.53403 -1.25907,-2.63132 -3.12238,-4.9484 -7.41482,-9.22051 -3.5758,-3.55888 -3.92915,-3.97384 -3.61577,-4.24616 0.19103,-0.16601 0.46105,-0.26049 0.60005,-0.20996 0.28901,0.10507 4.78098,-4.17825 6.65089,-6.34197 0.73863,-0.85468 1.20254,-1.57029 1.13391,-1.74912 -0.0639,-0.16647 0.017,-0.35377 0.17976,-0.41622 0.17659,-0.0678 1.62369,1.00142 3.58913,2.65183 5.86889,4.92819 7.65502,5.6615 9.74475,4.00078 1.96393,-1.56073 2.76484,-3.31594 2.31116,-5.06494 -0.36827,-1.4197 -1.32304,-2.75066 -4.6587,-6.49424 -2.5667,-2.88059 -2.78363,-3.186 -2.46178,-3.46587 0.19413,-0.16881 0.46876,-0.26489 0.6103,-0.21352 0.29766,0.10806 3.74913,-3.15932 5.60769,-5.30858 0.74354,-0.85985 1.16261,-1.50203 1.01276,-1.55198 -0.18136,-0.0605 -0.15137,-0.20039 0.10323,-0.48171 0.34606,-0.3824 0.44603,-0.31532 2.80927,1.88522 3.30923,3.0814 4.73307,4.20292 6.24234,4.91693 2.11113,0.99875 3.49096,0.74739 5.17859,-0.94334 2.09387,-2.09772 2.20792,-3.77118 0.43284,-6.35117 -0.35468,-0.51552 -0.64488,-1.12089 -0.64488,-1.34526 0,-0.36663 -1.32619,-1.77798 -2.42769,-2.58358 -0.2325,-0.17004 -1.07513,-1.04519 -1.87251,-1.94477 -1.1833,-1.33497 -1.4034,-1.69148 -1.19745,-1.93964 0.13879,-0.16722 0.37856,-0.2556 0.53284,-0.1964 0.58957,0.22624 7.37967,-6.77872 6.87384,-7.09134 -0.17066,-0.10548 -0.14663,-0.22674 0.0826,-0.41701 0.37634,-0.31235 0.45255,-0.25523 4.14405,3.10599 4.40364,4.00965 6.49495,4.94062 8.64013,3.84623 0.81571,-0.41614 2.15067,-1.98299 2.82201,-3.3122 0.64877,-1.28452 0.37204,-2.1955 -1.279,-4.21038 -0.43523,-0.53114 -0.62099,-0.90962 -0.47098,-0.95962 0.56345,-0.18782 -0.17703,-1.11953 -2.75265,-3.46351 l -2.71008,-2.46635 2.54329,-2.44872 c 3.07393,-2.95963 5.07694,-5.24253 4.93175,-5.62088 -0.0589,-0.15359 0.0297,-0.39282 0.19696,-0.53164 0.24906,-0.2067 0.67296,0.0866 2.3417,1.62019 3.9204,3.60289 5.07788,4.51683 6.64351,5.24566 1.36188,0.63398 2.74887,0.68539 3.77379,0.13988 0.88648,-0.47182 2.38063,-2.33024 2.8668,-3.56573 0.32711,-0.83125 0.32784,-0.96274 0.01,-1.79503 -0.18864,-0.49395 -0.73257,-1.36954 -1.20873,-1.94576 -0.47616,-0.57622 -0.76209,-1.08222 -0.6354,-1.12445 0.5479,-0.18263 0.0677,-0.79821 -2.59002,-3.32045 l -2.82036,-2.67656 4.46377,-4.46171 c 2.45508,-2.45393 5.07758,-5.13276 5.82778,-5.95294 1.33958,-1.46452 2.59094,-2.27422 3.90164,-2.52456 0.85001,-0.16236 2.96289,1.08384 4.57225,2.69676 0.66596,0.66743 1.34472,1.21352 1.50835,1.21352 0.16363,0 0.70587,0.45111 1.20497,1.00247 0.49911,0.55136 4.77319,4.94619 9.49797,9.76629 7.93032,8.09033 9.99815,10.43228 10.43979,11.82377 0.3456,1.08889 -1.8229,3.61158 -11.70391,13.61556 -4.70796,4.76656 -8.69702,8.94529 -8.86458,9.28607 -0.37692,0.76659 -2.96483,3.46874 -3.3221,3.46874 -0.39157,0 -16.78621,16.1482 -38.38868,37.81162 -21.89411,21.95589 -30.76392,30.98639 -30.59798,31.15233 0.13395,0.13395 -0.27933,0.68156 -0.51438,0.68156 -0.0876,0 -0.26514,-0.12745 -0.39442,-0.28323 z"
     id="path342" /><path
     style="fill:#ffffff;stroke:none;stroke-width:5.65606;stroke-linecap:round;stroke-dasharray:none"
     d="m 252.46326,267.90622 -2.79808,-2.76155 6.62024,-6.63484 c 3.64113,-3.64916 6.69078,-6.87011 6.777,-7.15766 0.18165,-0.60579 2.84867,-3.40189 3.09792,-3.24784 0.23224,0.14353 5.56965,-5.0767 25.57748,-25.01597 19.48019,-19.41343 32.43036,-32.59573 32.43036,-33.01167 0,-0.15401 0.18994,-0.45192 0.42209,-0.66202 0.23215,-0.21009 0.42038,-0.29604 0.41829,-0.19099 -0.002,0.10505 0.29688,2.60585 0.66439,5.55733 l 0.66821,5.36634 -33.64049,33.57183 c -18.50227,18.46451 -34.49523,34.3316 -35.53991,35.26021 l -1.89942,1.68838 z"
     id="path343" /><path
     style="fill:#ffffff;stroke:none;stroke-width:5.65606;stroke-linecap:round;stroke-dasharray:none"
     d="m 275.896,275.03487 -4.67408,-4.82944 1.83033,-1.66826 c 2.9176,-2.65924 33.94916,-33.59549 42.52144,-42.39084 4.29394,-4.40567 7.69359,-8.04817 7.55478,-8.09444 -0.17511,-0.0584 -0.13919,-0.2092 0.11733,-0.49264 0.36068,-0.39855 0.41482,-0.36362 2.2181,1.43131 1.01662,1.0119 1.79904,1.91969 1.73871,2.0173 -0.15813,0.25586 1.97052,2.86545 2.4655,3.02256 0.57149,0.18138 1.31456,1.71182 1.33897,2.75776 0.0529,2.26778 -4.19892,6.87458 -31.78937,34.44323 l -18.64762,18.6329 z"
     id="path344" /><path
     style="fill:#ffffff;stroke:none;stroke-width:5.65606;stroke-linecap:round;stroke-dasharray:none"
     d="m 362.68425,171.02579 c -2.62129,-0.59956 -4.33894,-1.80543 -9.78844,-6.8719 -1.48585,-1.38142 -1.54121,-1.46625 -1.20153,-1.84159 0.19585,-0.21641 0.52186,-0.35012 0.72448,-0.29713 0.24374,0.0637 0.68605,-0.25104 1.30706,-0.93018 1.46328,-1.60027 1.66538,-1.80414 3.62097,-3.65286 2.02684,-1.91607 3.17598,-3.38452 2.7578,-3.5241 -0.15439,-0.0515 0.33502,-0.82214 1.21757,-1.91714 0.81164,-1.00702 1.59205,-2.09213 1.73423,-2.41134 0.14219,-0.3192 0.33591,-0.58037 0.4305,-0.58037 0.0946,0 0.12009,0.084 0.0567,0.1866 -0.25686,0.41561 2.97338,2.90263 3.52032,2.71037 0.14488,-0.0509 1.11816,0.6849 2.16284,1.63516 2.89894,2.63694 5.75583,4.97119 7.33388,5.99224 0.78352,0.50696 1.42457,0.99084 1.42457,1.07529 0,0.0845 -0.18009,0.31653 -0.40021,0.51573 -0.2815,0.25476 -0.42534,0.28678 -0.48494,0.10797 -0.0623,-0.1868 -0.19399,-0.19468 -0.49674,-0.0297 -0.37359,0.20356 -4.02448,3.89534 -6.78129,6.85724 -1.76749,1.89897 -5.33778,3.38743 -7.13773,2.97573 z"
     id="path345" /><path
     style="fill:#ffffff;stroke:none;stroke-width:5.65606;stroke-linecap:round;stroke-dasharray:none"
     d="m 381.77974,150.12594 c -2.03834,-1.04053 -4.37081,-2.7876 -4.52404,-3.38861 -0.12792,-0.50176 -9.87697,-9.91646 -10.53065,-10.16951 -0.32071,-0.12414 1.31434,-1.83381 9.07424,-9.48836 l 9.46544,-9.33694 5.39654,5.44531 c 5.73072,5.78252 7.37914,7.67121 8.41654,9.64335 1.50487,2.8608 0.44931,5.84341 -3.25918,9.20915 -2.92488,2.65456 -4.74856,4.52848 -4.74856,4.87938 0,0.53197 -2.62417,2.4053 -4.43198,3.16388 -2.38497,1.00076 -2.97086,1.00587 -4.85835,0.0424 z"
     id="path346" /><path
     style="fill:#ffffff;stroke:none;stroke-width:5.65606;stroke-linecap:round;stroke-dasharray:none"
     d="m 351.79116,122.88211 -5.92244,-5.85655 5.98072,-5.9168 c 6.35964,-6.29165 10.34749,-9.97364 12.15281,-11.220726 0.94917,-0.655672 1.17812,-0.732227 1.60635,-0.537114 0.98036,0.446682 4.73089,3.67008 8.26114,7.10006 l 3.5878,3.48588 -9.42265,9.4009 c -6.51461,6.49958 -9.56131,9.4009 -9.87197,9.4009 -0.30532,0 -2.34733,-1.87689 -6.37176,-5.85655 z"
     id="path347" /><path
     style="fill:#ffffff;stroke:none;stroke-width:5.65606;stroke-linecap:round;stroke-dasharray:none"
     d="m 351.58329,94.831741 c -1.75115,-1.903878 -11.69184,-11.257956 -11.75681,-11.06303 -0.0457,0.137107 -0.3806,-0.02661 -0.79035,-0.386371 -1.40969,-1.23773 -2.63513,-1.805643 -3.8962,-1.805643 -1.03288,0 -1.415,0.139444 -3.27418,1.194811 -2.42004,1.373741 -4.18582,1.952234 -5.50508,1.803535 -1.03645,-0.116823 -2.95211,-1.245704 -3.14495,-1.853287 -0.0695,-0.219133 -1.52571,-1.727128 -3.2359,-3.3511 -3.3158,-3.148624 -4.67562,-4.975893 -4.67562,-6.282917 0,-2.669682 3.12027,-6.15066 6.96316,-7.768109 2.61171,-1.099255 5.71277,-1.45479 7.63724,-0.875609 1.19202,0.358743 2.98475,1.579072 5.02697,3.421904 5.97967,5.395833 18.53055,18.087846 21.3502,21.590263 1.21979,1.515166 1.24221,1.565914 0.87256,1.975297 -0.4173,0.462165 -2.31114,1.970803 -3.98819,3.176998 l -1.07623,0.774067 z"
     id="path348" /><path
     style="fill:#ffffff;stroke:none;stroke-width:5.65606;stroke-linecap:round;stroke-dasharray:none"
     d="m 421.74494,178.22918 c -10.11645,-10.09859 -18.49526,-18.56405 -18.61958,-18.81213 -0.12431,-0.24807 -1.27554,-1.379 -2.55828,-2.51318 l -2.33227,-2.06214 0.44999,-0.47899 c 0.25407,-0.27044 0.58737,-0.42628 0.76552,-0.35792 0.41692,0.15999 3.38177,-2.90283 3.5691,-3.68702 0.0762,-0.31898 0.23745,-0.7052 0.35835,-0.85827 0.16909,-0.21407 5.10535,4.60704 21.38797,20.88906 l 21.16815,21.16736 -0.76092,0.77925 c -0.4185,0.42859 -0.88111,0.73312 -1.02802,0.67675 -0.28292,-0.10857 -1.4299,0.80765 -2.54812,2.03547 -0.37,0.40627 -0.84949,0.92861 -1.06553,1.16076 -0.38821,0.41716 -0.60795,0.20732 -18.78636,-17.939 z"
     id="path349" /><path
     style="fill:#ffffff;stroke:none;stroke-width:5.65606;stroke-linecap:round;stroke-dasharray:none"
     d="m 444.25392,226.56664 c 0,-0.16988 -0.59357,-0.78662 -1.31905,-1.37054 -2.25024,-1.81115 -2.63421,-2.25743 -3.57346,-4.15337 -0.82497,-1.66527 -0.91049,-1.98354 -0.90289,-3.36023 0.007,-1.32101 0.1105,-1.72494 0.78585,-3.07564 1.07426,-2.14852 2.34287,-3.75587 4.45456,-5.644 0.98985,-0.88506 4.53499,-4.44712 7.8781,-7.9157 5.64595,-5.85786 9.25775,-9.23189 10.6739,-9.97121 1.02511,-0.53518 2.78042,-0.75407 4.11016,-0.51253 2.18859,0.39754 4.07819,1.51775 6.50822,3.8583 1.20861,1.1641 2.19682,2.17573 2.19603,2.24807 -8e-4,0.0723 -0.35044,0.36896 -0.777,0.65915 -0.92264,0.62768 -3.02041,3.10999 -3.02041,3.57407 0,0.44962 -7.80907,8.23118 -8.13483,8.10618 -0.2849,-0.10933 -6.72512,6.10591 -12.41113,11.97754 -5.52195,5.70223 -6.46805,6.51842 -6.46805,5.57991 z"
     id="path350" /><path
     style="fill:#ffffff;stroke:none;stroke-width:5.65606;stroke-linecap:round;stroke-dasharray:none"
     d="m 381.04531,98.113642 -2.83286,-2.76682 4.58215,-4.449119 c 7.765,-7.539555 26.09494,-25.860409 32.92018,-32.903845 l 6.48473,-6.692046 1.67631,1.837965 c 0.92197,1.01088 2.16419,2.322874 2.76048,2.915542 l 1.08417,1.077577 -9.46568,9.263725 c -7.86818,7.700302 -23.96469,23.903211 -32.22496,32.437979 -1.08904,1.125224 -2.01867,2.04586 -2.06586,2.04586 -0.0472,0 -1.36059,-1.245068 -2.91866,-2.766818 z"
     id="path351" /><path
     style="fill:#ffffff;stroke:none;stroke-width:5.65606;stroke-linecap:round;stroke-dasharray:none"
     d="m 439.12992,48.468005 c -4.29202,-4.073667 -5.42835,-5.096367 -5.42835,-4.885518 0,0.08576 -0.13682,0.04238 -0.30403,-0.0964 -0.16721,-0.138776 -0.24658,-0.402019 -0.17637,-0.584986 0.0898,-0.233931 -0.65917,-1.090643 -2.52335,-2.886467 -3.73385,-3.596945 -3.87749,-4.275709 -1.39375,-6.586184 3.30189,-3.071555 4.45096,-4.213264 6.53698,-6.495099 1.26088,-1.379235 2.2925,-2.622884 2.2925,-2.763663 0,-0.385447 0.79785,-1.029423 1.32335,-1.068138 0.27629,-0.02035 0.84883,-0.49237 1.41682,-1.168071 2.45407,-2.919451 4.64229,-4.626557 6.90769,-5.388934 1.64942,-0.55508 1.69343,-0.541211 3.87765,1.221899 3.94409,3.183687 9.92156,9.34068 10.77012,11.093577 0.57043,1.178346 0.42313,2.26597 -0.57788,4.266874 -0.63388,1.267047 -1.32432,2.055089 -4.85696,5.543564 -5.16892,5.104292 -9.7429,9.738384 -10.62078,10.760374 -0.65301,0.760204 -3.02478,2.486723 -3.41608,2.486723 -0.10621,0 -1.82861,-1.552299 -3.82756,-3.449555 z"
     id="path352" /></svg>
