<?xml version="1.0" encoding="UTF-8" standalone="no"?>
<!-- Created with Inkscape (http://www.inkscape.org/) -->

<svg
   width="512"
   height="512"
   viewBox="0 0 512 512"
   version="1.1"
   id="svg1"
   xml:space="preserve"
   xmlns="http://www.w3.org/2000/svg"
   xmlns:svg="http://www.w3.org/2000/svg"><defs
     id="defs1" /><g
     id="g352"
     transform="translate(2.9846553,52.529931)"><path
       style="fill:#d0d0d0;fill-opacity:1"
       d="m 64.5,383.5 c 5.479362,-5.5 10.187477,-10 10.462477,-10 0.275,0 -3.983115,4.5 -9.462477,10 -5.479362,5.5 -10.187477,10 -10.462477,10 -0.275,0 3.983115,-4.5 9.462477,-10 z m 153,-52 c 17.04335,-17.05 31.2129,-31 31.4879,-31 0.275,0 -13.44455,13.95 -30.4879,31 -17.04335,17.05 -31.2129,31 -31.4879,31 -0.275,0 13.44455,-13.95 30.4879,-31 z M 72.404988,348.25 70.5,346 l 2.25,1.90499 c 2.114445,1.79022 2.705241,2.59501 1.904988,2.59501 -0.189757,0 -1.202257,-1.0125 -2.25,-2.25 z M 15.078947,304.91667 c 0.04798,-1.16495 0.284941,-1.4019 0.604167,-0.60417 0.288871,0.72187 0.253344,1.58438 -0.07895,1.91667 -0.332292,0.33229 -0.568641,-0.25834 -0.52522,-1.3125 z M 145,219 c 40.97223,-40.975 74.71997,-74.5 74.99497,-74.5 0.275,0 -33.02274,33.525 -73.99497,74.5 -40.97223,40.975 -74.719966,74.5 -74.994966,74.5 -0.275,0 33.022736,-33.525 73.994966,-74.5 z M 17.75,286.79427 c 1.2375,-0.23836 3.2625,-0.23836 4.5,0 1.2375,0.23835 0.225,0.43337 -2.25,0.43337 -2.475,0 -3.4875,-0.19502 -2.25,-0.43337 z M 133,264 c 9.0625,-9.075 16.70227,-16.5 16.97727,-16.5 0.275,0 -6.91477,7.425 -15.97727,16.5 -9.0625,9.075 -16.70227,16.5 -16.97727,16.5 -0.275,0 6.91477,-7.425 15.97727,-16.5 z m 19.5,-19.5 c 0.99549,-1.1 2.03498,-2 2.30998,-2 0.275,0 -0.31449,0.9 -1.30998,2 -0.99549,1.1 -2.03498,2 -2.30998,2 -0.275,0 0.31449,-0.9 1.30998,-2 z M 257.99235,210.75 233.5,186 l 24.75,24.49235 c 13.6125,13.47079 24.75,24.60829 24.75,24.75 0,0.7084 -2.24834,-1.49361 -25.00765,-24.49235 z m 40.4606,-11.5 L 294.5,195 l 4.25,3.95295 c 3.95246,3.6762 4.70953,4.54705 3.95295,4.54705 -0.16338,0 -2.07588,-1.9125 -4.25,-4.25 z m -20,-20 L 274.5,175 l 4.25,3.95295 c 2.3375,2.17412 4.25,4.08662 4.25,4.25 0,0.75658 -0.87085,-4.9e-4 -4.54705,-3.95295 z m -59.04796,-7 L 217.5,170 l 2.25,1.90499 c 2.11444,1.79022 2.70524,2.59501 1.90499,2.59501 -0.18976,0 -1.20226,-1.0125 -2.25,-2.25 z M 480.94617,16.75 477.5,13 l 3.75,3.446167 c 2.0625,1.895392 3.75,3.582892 3.75,3.75 0,0.76362 -0.84622,0.04425 -4.05383,-3.446167 z m -20,-20 L 457.5,-7 l 3.75,3.4461668 c 2.0625,1.8953917 3.75,3.58289171 3.75,3.74999998 0,0.76362068 -0.84622,0.0442518 -4.05383,-3.44616678 z"
       id="path359" /><path
       style="fill:#b9b9b9;fill-opacity:1"
       d="M 88.924314,364.75 86.5,362 l 2.75,2.42431 c 2.570289,2.26589 3.208588,3.07569 2.424314,3.07569 -0.179127,0 -1.416627,-1.2375 -2.75,-2.75 z M 237.48295,289.25 226.5,278 l 11.25,10.98295 c 6.1875,6.04062 11.25,11.10312 11.25,11.25 0,0.72114 -1.31566,-0.53351 -11.51705,-10.98295 z M 12.269032,286.80701 c 0.972967,-0.25354 2.322967,-0.23687 3,0.0371 0.677032,0.27393 -0.119032,0.48137 -1.769032,0.46099 -1.65,-0.0204 -2.203936,-0.2445 -1.230968,-0.49804 z M 198.98707,250.75 184.5,236 l 14.75,14.48707 c 13.70235,13.45808 15.20273,15.01293 14.48707,15.01293 -0.14462,0 -6.78212,-6.6375 -14.75,-14.75 z m 100.97877,2 L 294.5,247 l 5.75,5.46584 c 5.34193,5.07794 6.20809,6.03416 5.46584,6.03416 -0.15629,0 -2.74379,-2.5875 -5.75,-5.75 z M 192.5,204.5 c 15.94289,-15.95 29.21207,-29 29.48707,-29 0.275,0 -12.54418,13.05 -28.48707,29 -15.94289,15.95 -29.21207,29 -29.48707,29 -0.275,0 12.54418,-13.05 28.48707,-29 z M 322.97792,223.75 314.5,215 l 8.75,8.47792 c 4.8125,4.66286 8.75,8.60036 8.75,8.75 0,0.72761 -1.14804,-0.35118 -9.02208,-8.47792 z m -93.16542,-1.93311 c 0.72187,-0.28887 1.58437,-0.25335 1.91667,0.0789 0.33229,0.33229 -0.25834,0.56864 -1.3125,0.52522 -1.16495,-0.048 -1.4019,-0.28494 -0.60417,-0.60416 z m 20.9375,0.0208 c 0.6875,-0.27741 1.8125,-0.27741 2.5,0 0.6875,0.27741 0.125,0.50439 -1.25,0.50439 -1.375,0 -1.9375,-0.22698 -1.25,-0.50439 z M 243,144 c -10.71442,-10.725 -19.25577,-19.5 -18.98077,-19.5 0.275,0 9.26635,8.775 19.98077,19.5 10.71442,10.725 19.25577,19.5 18.98077,19.5 -0.275,0 -9.26635,-8.775 -19.98077,-19.5 z M 380.94617,116.75 377.5,113 l 3.75,3.44617 c 2.0625,1.89539 3.75,3.58289 3.75,3.75 0,0.76362 -0.84622,0.0443 -4.05383,-3.44617 z m -18.07373,-18 c -1.24387,-1.586056 -1.2085,-1.621426 0.37756,-0.377555 0.9625,0.754844 1.75,1.542344 1.75,1.749995 0,0.82304 -0.82119,0.29331 -2.12756,-1.37244 z m -4,-4 c -1.24387,-1.586056 -1.2085,-1.621426 0.37756,-0.377555 0.9625,0.754844 1.75,1.542344 1.75,1.75 0,0.823034 -0.82119,0.293303 -2.12756,-1.372445 z"
       id="path358" /><path
       style="fill:#a3a3a3;fill-opacity:1"
       d="M 107.92431,383.75 105.5,381 l 2.75,2.42431 c 2.57029,2.26589 3.20859,3.07569 2.42431,3.07569 -0.17912,0 -1.41662,-1.2375 -2.75,-2.75 z M 7.75,286.83772 c 0.6875,-0.27741 1.8125,-0.27741 2.5,0 0.6875,0.27741 0.125,0.50439 -1.25,0.50439 -1.375,0 -1.9375,-0.22698 -1.25,-0.50439 z M 213.48958,242.25 195.5,224 l 18.25,17.98958 c 10.0375,9.89427 18.25,18.10677 18.25,18.25 0,0.71224 -1.79653,-1.03374 -18.51042,-17.98958 z M 392.45295,105.25 388.5,101 l 4.25,3.95295 c 3.95246,3.6762 4.70953,4.54705 3.95295,4.54705 -0.16338,0 -2.07588,-1.9125 -4.25,-4.25 z m -20,-20 L 368.5,81 l 4.25,3.952948 c 2.3375,2.174121 4.25,4.086621 4.25,4.25 0,0.756577 -0.87085,-4.9e-4 -4.54705,-3.952948 z"
       id="path357" /><path
       style="fill:#8c8c8c;fill-opacity:1"
       d="m 152.5,267.5 c 17.04335,-17.05 31.2129,-31 31.4879,-31 0.275,0 -13.44455,13.95 -30.4879,31 -17.04335,17.05 -31.2129,31 -31.4879,31 -0.275,0 13.44455,-13.95 30.4879,-31 z M 237.97111,266.75 231.5,260 l 6.75,6.47111 c 6.26969,6.01065 7.20713,7.02889 6.47111,7.02889 -0.15339,0 -3.19089,-3.0375 -6.75,-6.75 z M 214.5,205.5 c 10.43914,-10.45 19.20526,-19 19.48026,-19 0.275,0 -8.04112,8.55 -18.48026,19 -10.43914,10.45 -19.20526,19 -19.48026,19 -0.275,0 8.04112,-8.55 18.48026,-19 z"
       id="path356" /><path
       style="fill:#767676;fill-opacity:1"
       d="M 95.924314,394.75 93.5,392 l 2.75,2.42431 c 2.570289,2.26589 3.208588,3.07569 2.424314,3.07569 -0.179127,0 -1.416627,-1.2375 -2.75,-2.75 z M 77.946167,376.75 74.5,373 l 3.75,3.44617 c 3.490419,3.20761 4.209787,4.05383 3.446167,4.05383 -0.167108,0 -1.854608,-1.6875 -3.75,-3.75 z M 261,290 c -2.42903,-2.475 -4.19142,-4.5 -3.91642,-4.5 0.275,0 2.48739,2.025 4.91642,4.5 2.42903,2.475 4.19142,4.5 3.91642,4.5 -0.275,0 -2.48739,-2.025 -4.91642,-4.5 z m -30.1875,-52.18311 c 0.72187,-0.28887 1.58437,-0.25335 1.91667,0.0789 0.33229,0.33229 -0.25834,0.56864 -1.3125,0.52522 -1.16495,-0.048 -1.4019,-0.28494 -0.60417,-0.60416 z m 19.9375,0.0208 c 0.6875,-0.27741 1.8125,-0.27741 2.5,0 0.6875,0.27741 0.125,0.50439 -1.25,0.50439 -1.375,0 -1.9375,-0.22698 -1.25,-0.50439 z M 272.49543,196.25 231.5,155 l 41.25,40.99543 c 38.33978,38.10316 41.69946,41.50457 40.99543,41.50457 -0.14002,0 -18.70252,-18.5625 -41.25,-41.25 z m -11.00111,-5 L 228.5,158 l 33.25,32.99432 c 18.2875,18.14687 33.25,33.10937 33.25,33.25 0,0.70561 -2.84174,-2.09275 -33.50568,-32.99432 z"
       id="path355" /><path
       style="fill:#606060;fill-opacity:1"
       d="M 302.47654,232.25 294.5,224 l 8.25,7.97654 c 7.66235,7.40837 8.70589,8.52346 7.97654,8.52346 -0.1504,0 -3.8629,-3.7125 -8.25,-8.25 z m -87.02359,-93 L 211.5,135 l 4.25,3.95295 c 3.95246,3.6762 4.70953,4.54705 3.95295,4.54705 -0.16338,0 -2.07588,-1.9125 -4.25,-4.25 z m 277,-134 L 488.5,1 l 4.25,3.9529478 c 2.3375,2.1741212 4.25,4.0866212 4.25,4.25 0,0.7565773 -0.87085,-4.901e-4 -4.54705,-3.9529478 z m -20,-20 L 468.5,-19 l 4.25,3.952948 c 3.95246,3.676202 4.70953,4.547052 3.95295,4.547052 -0.16338,0 -2.07588,-1.9125 -4.25,-4.25 z"
       id="path354" /><path
       style="fill:#494949;fill-opacity:1"
       d="m 228.5,343.5 c 20.34443,-20.35 37.21486,-37 37.48986,-37 0.275,0 -16.14543,16.65 -36.48986,37 -20.34443,20.35 -37.21486,37 -37.48986,37 -0.275,0 16.14543,-16.65 36.48986,-37 z M 56,369 c 3.543223,-3.575 6.667223,-6.5 6.942223,-6.5 0.275,0 -2.399,2.925 -5.942223,6.5 -3.543223,3.575 -6.667223,6.5 -6.942223,6.5 -0.275,0 2.399,-2.925 5.942223,-6.5 z m 117.87244,-17.25 c -1.24387,-1.58606 -1.2085,-1.62143 0.37756,-0.37756 1.66575,1.30637 2.19548,2.12756 1.37244,2.12756 -0.20765,0 -0.99515,-0.7875 -1.75,-1.75 z M 82.5,342.5 c 4.374194,-4.4 8.17808,-8 8.45308,-8 0.275,0 -3.078886,3.6 -7.45308,8 -4.374194,4.4 -8.17808,8 -8.45308,8 -0.275,0 3.078886,-3.6 7.45308,-8 z m 111,-55 c 11.54018,-11.55 21.20714,-21 21.48214,-21 0.275,0 -8.94196,9.45 -20.48214,21 -11.54018,11.55 -21.20714,21 -21.48214,21 -0.275,0 8.94196,-9.45 20.48214,-21 z m -100,6 c 3.820499,-3.85 7.17136,-7 7.44636,-7 0.275,0 -2.625861,3.15 -6.44636,7 -3.820499,3.85 -7.171361,7 -7.446361,7 -0.275,0 2.625862,-3.15 6.446361,-7 z M 264,255 c 10.16385,-10.175 18.70473,-18.5 18.97973,-18.5 0.275,0 -7.81588,8.325 -17.97973,18.5 -10.16385,10.175 -18.70473,18.5 -18.97973,18.5 -0.275,0 7.81588,-8.325 17.97973,-18.5 z m -137,5.12244 c 0,-0.20765 0.7875,-0.99515 1.75,-1.75 1.58606,-1.24387 1.62143,-1.2085 0.37756,0.37756 C 127.82119,260.41575 127,260.94548 127,260.12244 Z M 323.5,250.5 c 3.8205,-3.85 7.17136,-7 7.44636,-7 0.275,0 -2.62586,3.15 -6.44636,7 -3.8205,3.85 -7.17136,7 -7.44636,7 -0.275,0 2.62586,-3.15 6.44636,-7 z M 305,122 c 22.82003,-22.825 41.71596,-41.5 41.99096,-41.5 0.275,0 -18.17093,18.675 -40.99096,41.5 -22.82003,22.825 -41.71596,41.5 -41.99096,41.5 -0.275,0 18.17093,-18.675 40.99096,-41.5 z m 88,14.12244 c 0,-0.20765 0.7875,-0.99515 1.75,-1.75 1.58606,-1.24387 1.62143,-1.2085 0.37756,0.37756 C 393.82119,136.41575 393,136.94548 393,136.12244 Z m 22,-21.88206 c 0,-0.14279 8.8875,-9.03029 19.75,-19.749997 L 454.5,75 435.00962,94.75 C 416.90054,113.1003 415,114.95152 415,114.24038 Z M 379.5,47.5 c 12.64103,-12.65 23.20869,-23 23.48369,-23 0.275,0 -9.84266,10.35 -22.48369,23 -12.64103,12.65 -23.20869,23 -23.48369,23 -0.275,0 9.84266,-10.35 22.48369,-23 z M 470,59 c 3.54322,-3.575 6.66722,-6.5 6.94222,-6.5 0.275,0 -2.399,2.925 -5.94222,6.5 -3.54322,3.575 -6.66722,6.5 -6.94222,6.5 -0.275,0 2.399,-2.925 5.94222,-6.5 z m -19.12756,-8.25 c -1.24387,-1.586056 -1.2085,-1.621426 0.37756,-0.377555 0.9625,0.754844 1.75,1.542344 1.75,1.75 0,0.823034 -0.82119,0.293303 -2.12756,-1.372445 z M 497.5,31.5 c 6.03124,-6.05 11.19089,-11 11.46589,-11 0.275,0 -4.43465,4.95 -10.46589,11 -6.03124,6.05 -11.19089,11 -11.46589,11 -0.275,0 4.43465,-4.95 10.46589,-11 z m -65.62756,0.25 c -1.24387,-1.586056 -1.2085,-1.621426 0.37756,-0.377555 0.9625,0.754844 1.75,1.542344 1.75,1.75 0,0.823034 -0.82119,0.293303 -2.12756,-1.372445 z m -4.94813,-5 L 424.5,24 l 2.75,2.424314 c 1.5125,1.333373 2.75,2.570873 2.75,2.75 0,0.784274 -0.8098,0.145975 -3.07569,-2.424314 z m 44.02186,-1 L 467.5,22 l 3.75,3.446167 c 2.0625,1.895392 3.75,3.582892 3.75,3.75 0,0.76362 -0.84622,0.04425 -4.05383,-3.446167 z M 419,8 c 3.54322,-3.575 6.66722,-6.5 6.94222,-6.5 0.275,0 -2.399,2.925 -5.94222,6.5 -3.54322,3.575 -6.66722,6.5 -6.94222,6.5 -0.275,0 2.399,-2.925 5.94222,-6.5 z M 451.45295,6.25 447.5,2 l 4.25,3.9529478 c 2.3375,2.1741212 4.25,4.0866212 4.25,4.2500002 0,0.756577 -0.87085,-4.9e-4 -4.54705,-3.952948 z M 446.5,-19.5 c 6.03124,-6.05 11.19089,-11 11.46589,-11 0.275,0 -4.43465,4.95 -10.46589,11 -6.03124,6.05 -11.19089,11 -11.46589,11 -0.275,0 4.43465,-4.95 10.46589,-11 z"
       id="path353" /><path
       style="fill:#333333;fill-opacity:1"
       d="m 70.923077,403.57692 c -4.735465,-4.73546 -3.915292,-7.28407 5.41709,-16.83306 l 6.114223,-6.25614 -3.706572,-3.70657 -3.706572,-3.70657 -10.87118,10.71271 C 48.713124,399.01891 48.058386,398.91795 31.252259,378.71118 11.009267,354.37211 -0.17045211,327.68761 -0.39900887,303.1638 c -0.10017104,-10.74821 -0.0776468,-10.85628 2.77377147,-13.30935 2.8693368,-2.46848 2.9103392,-2.47257 21.7246244,-2.1638 23.105792,0.3792 22.739356,0.18086 23.960157,12.96878 1.505323,15.76831 8.926313,31.05585 21.833937,44.97878 L 74.864266,351 l 8.082386,-7.99097 c 5.018473,-4.96172 7.875425,-8.53031 7.536438,-9.41369 -0.300271,-0.7825 -5.256804,-8.04528 -11.014518,-16.13952 C 71.182948,305.80782 69,302.03959 69,299.38486 c 0,-3.10925 5.550343,-8.90627 76.0145,-79.39282 l 76.01449,-76.03867 -5.01449,-4.93909 C 211.78136,134.8448 211,133.49631 211,130.36017 c 0,-2.82232 0.63314,-4.21304 2.63486,-5.78759 5.31865,-4.18365 6.23456,-3.58813 28.34128,18.42742 11.32169,11.275 21.0232,20.5 21.5589,20.5 0.5357,0 19.53446,-18.56451 42.21948,-41.25446 C 340.37557,87.616944 347,80.54281 347,78.200081 347,74.548697 351.05533,70.5 354.7127,70.5 c 2.32333,0 6.70773,-3.906893 25.59376,-22.806325 19.08025,-19.093783 22.8588,-23.348684 23.21181,-26.138071 C 404.08447,17.081798 406.61504,14.5 410.43388,14.5 414.70007,14.5 426,3.3770306 426,-0.82235984 426,-4.4195573 430.06873,-8.5 433.6556,-8.5 c 2.16842,0 5.30135,-2.525767 14.88463,-12 6.67597,-6.6 12.86432,-12 13.75189,-12 5.82823,0 9.73729,5.608282 7.79419,11.182245 -1.07071,3.071446 -0.92132,3.453333 2.81085,7.185503 3.77306,3.773064 4.07342,3.887079 7.02225,2.665634 6.56647,-2.719922 12.76713,3.4807367 10.04721,10.0472096 -1.22145,2.9488281 -1.10743,3.2491848 2.66563,7.0222486 3.73217,3.73217 4.11406,3.8815578 7.18551,2.8108461 C 505.39172,6.4705924 511,10.379649 511,16.207878 c 0,0.887575 -5.4,7.075926 -12,13.751892 -9.47423,9.58328 -12,12.716206 -12,14.884629 C 487,48.46166 482.9206,52.5 479.26657,52.5 475.08292,52.5 464,63.840893 464,68.121918 c 0,3.780374 -2.61909,6.303459 -7.11193,6.851223 -2.88566,0.351818 -6.76163,3.828218 -26.13807,23.443547 C 412.95029,116.43584 408,122.00679 408,124.01904 c 0,3.25755 -4.15292,7.48096 -7.35609,7.48096 -1.89303,0 -11.80787,9.40271 -43.79546,41.53329 -22.74165,22.84332 -41.53994,41.74731 -41.77398,42.00887 -0.23404,0.26156 3.70346,4.68596 8.75,9.832 12.38568,12.62988 12.38443,12.96978 -0.0933,25.39559 -11.86665,11.81731 -13.04411,11.97677 -22.36278,3.02851 l -6.45847,-6.20173 -19.18763,19.18763 -19.18763,19.18764 5.73265,5.7931 c 9.82108,9.92463 12.12075,6.35803 -33.52204,51.98985 C 192.29681,379.69449 189.24483,382.5 186.0523,382.5 c -3.13186,0 -5.20473,-1.75839 -23.25687,-19.72858 l -19.81855,-19.72859 -18.97248,18.95277 -18.97248,18.95277 3.68404,3.7728 c 4.54156,4.65097 5.09902,9.89073 1.37326,12.90767 -3.75257,3.03865 -7.95268,2.41038 -12.306289,-1.8408 l -3.801394,-3.71196 -6.240769,6.09899 c -9.532567,9.316 -12.084014,10.13553 -16.817691,5.40185 z M 56.723095,369.27889 C 60.175393,365.85728 63,362.56647 63,361.96598 63,361.36549 61.588451,359.55249 59.863225,357.93709 49.706196,348.42665 37.639307,327.33001 34.446026,313.5 c -0.952442,-4.125 -1.87831,-8.0625 -2.057484,-8.75 -0.229005,-0.8787 -2.898294,-1.25 -8.986323,-1.25 h -8.660552 l 0.669128,5.9143 c 2.113153,18.67781 12.709609,40.90871 28.60156,60.00482 2.783307,3.34449 5.369545,6.08088 5.747196,6.08088 0.377651,0 3.511246,-2.7995 6.963544,-6.22111 z m 60.488735,-52.13338 c -7.81651,-7.93339 -14.26365,-15.2616 -14.32698,-16.28492 -0.0633,-1.02333 -0.0316,-2.76059 0.0705,-3.86059 0.10853,-1.16901 25.10166,-26.94656 60.1526,-62.04052 l 59.96692,-60.04051 -2.53744,-2.3838 -2.53744,-2.3838 -2.25,2.14108 c -1.2375,1.1776 -30.73438,30.51361 -65.54862,65.19113 -40.83684,40.67647 -63.035189,63.47631 -62.556242,64.25126 0.408312,0.66066 5.380192,7.72701 11.048623,15.70299 C 106.85269,328.91817 109,332.64056 109,335.30384 c 0,2.94236 -1.43802,4.83322 -11.46781,15.07905 l -11.467811,11.71482 3.707854,3.70786 3.707854,3.70785 18.971783,-18.97178 18.97178,-18.97179 z m 120.79011,-28.14356 -11.47975,-11.51241 -31.2611,31.24928 C 178.06749,325.92592 164,340.35974 164,340.81396 c 0,0.45423 5.0625,5.74345 11.25,11.75381 l 11.25,10.92795 31.49085,-31.49068 31.49085,-31.49068 z m -53.98644,8.58034 31.4845,-30.91772 -15.50496,-15.58328 -15.50496,-15.58327 -31.48581,31.49771 -31.48581,31.49771 14.97827,15.00328 c 8.23804,8.2518 15.21586,15.00328 15.50627,15.00328 0.2904,0 14.69602,-13.91297 32.0125,-30.91771 z m 80.72463,-42.32215 C 274.78306,245.22821 283,236.56227 283,236.00248 283,235.4427 271.97401,223.96559 258.4978,210.4978 l -24.50221,-24.4869 -19.24234,19.24235 -19.24235,19.24234 24.4869,24.50221 c 13.46779,13.47621 24.93589,24.5022 25.48467,24.5022 0.54878,0 9.21473,-8.20794 19.25766,-18.23986 z m -28.66755,-8.395 c -1.16418,-1.48002 -2.07258,-4.10977 -2.07258,-6 0,-3.24897 -0.13559,-3.36514 -3.92742,-3.36514 -7.13989,0 -10.54953,-7.61396 -5.61803,-12.54545 1.68298,-1.68299 3.56902,-2.45455 6,-2.45455 3.39393,0 3.54545,-0.15152 3.54545,-3.54545 0,-6.93527 8.29762,-11.15693 12.89423,-6.56032 1.04183,1.04183 2.20639,3.74183 2.5879,6 0.65383,3.86997 0.88963,4.10577 4.10577,4.10577 4.50606,0 7.4121,2.9405 7.4121,7.5 0,4.5595 -2.90604,7.5 -7.4121,7.5 -3.21614,0 -3.45194,0.2358 -4.10577,4.10577 -0.89015,5.26876 -3.52072,7.89423 -7.90955,7.89423 -2.51163,0 -3.9812,-0.70402 -5.5,-2.63486 z m 76.98458,-7.93402 c 1.1294,-1.36084 -4.14663,-7.01756 -39.78902,-42.65995 -39.10717,-39.10717 -41.17543,-41.00674 -42.83805,-39.34412 -1.66262,1.66262 0.22791,3.72228 39.1569,42.65996 22.49712,22.50214 41.18832,40.91299 41.53599,40.91299 0.34767,0 1.21805,-0.70599 1.93418,-1.56888 z m 31.71619,-76.70443 41.26432,-41.2733 -4.28986,-4.21018 -4.28986,-4.21019 -41.45294,41.46197 -41.45294,41.46196 3.92691,4.02153 c 2.15981,2.21183 4.17512,4.02152 4.47849,4.02152 0.30336,0 19.12051,-18.57299 41.81588,-41.27331 z m -20,-20 41.26432,-41.2733 -4.28986,-4.210183 -4.28986,-4.210183 -41.45294,41.461966 -41.45294,41.46196 3.92691,4.02153 c 2.15981,2.21183 4.17512,4.02152 4.47849,4.02152 0.30336,0 19.12051,-18.57299 41.81588,-41.27331 z m 95.22347,-55.223503 22.48014,-22.496813 -4.24446,-4.24446 -4.24446,-4.244461 -22.71886,22.718857 -22.71885,22.71886 3.92778,4.02241 c 2.16028,2.21233 4.17771,4.02242 4.48317,4.02242 0.30546,0 10.67145,-10.123566 23.03554,-22.496813 z m -20,-20 22.48014,-22.496813 -4.24446,-4.24446 -4.24446,-4.244461 -22.71886,22.718857 -22.71885,22.718858 3.92778,4.022416 c 2.16028,2.212329 4.17771,4.022416 4.48317,4.022416 0.30546,0 10.67145,-10.123566 23.03554,-22.496813 z m 59.71989,-19.71721 5.27961,-5.214023 -4.21267,-4.2924 -4.21267,-4.2924 -5.7801,5.719783 -5.78009,5.719783 3.69755,3.78664 c 2.03366,2.082652 4.15458,3.78664 4.71316,3.78664 0.55859,0 3.39143,-2.34631 6.29521,-5.214023 z m -18.93448,-29.50787 -4.21125,-4.290953 -5.78223,5.721893 -5.78223,5.721894 4.21125,4.290952 4.21125,4.290953 5.78223,-5.721893 5.78223,-5.721894 z m 40.50909,7.933759 4.71614,-4.788133 -4.29145,-4.211737 -4.29145,-4.211737 -4.91994,4.995047 -4.91993,4.995048 3.9106,4.004823 c 2.15083,2.202653 4.1737,4.004823 4.49525,4.004823 0.32155,0 2.7069,-2.15466 5.30078,-4.788134 z m -20,-19.9999997 4.71614,-4.78813363 -4.29145,-4.21173677 -4.29145,-4.2117367 -4.91994,4.9950472 -4.91993,4.9950472 3.9106,4.0048232 C 453.64612,8.6978296 455.66899,10.5 455.99054,10.5 c 0.32155,0 2.7069,-2.1546601 5.30078,-4.7881337 z"
       id="path352" /></g><path
     style="fill:#ffffff;stroke:none;stroke-width:15.9978;stroke-linecap:round;stroke-dasharray:none"
     d="M 49.545276,424.30489 C 37.545762,410.46961 27.748669,393.82602 22.731436,378.75274 19.974259,370.46935 18.302832,361.82513 18.835967,358.60632 l 0.370764,-2.23849 h 6.851481 c 3.768314,0 7.339626,0.26124 7.936247,0.58055 0.762757,0.40821 1.564299,2.55151 2.700185,7.2202 3.794228,15.59497 13.319513,33.14638 24.548401,45.23319 l 4.607062,4.95906 -6.500675,6.5209 c -3.575371,3.58648 -6.639566,6.52076 -6.809321,6.5206 -0.169755,-1.6e-4 -1.517431,-1.39401 -2.994835,-3.09744 z"
     id="path360" /><path
     style="fill:#ffffff;stroke:none;stroke-width:15.9978;stroke-linecap:round;stroke-dasharray:none"
     d="m 95.28839,419.97608 c -0.558702,-0.85268 -2.005463,-2.45728 -3.215022,-3.56575 l -2.1992,-2.01542 8.679402,-8.93417 c 11.28612,-11.6174 13.10617,-13.87469 13.4891,-16.72964 0.43717,-3.25936 -1.32348,-6.45097 -11.83531,-21.45445 -4.882303,-6.96848 -8.876912,-12.93211 -8.876912,-13.25254 0,-0.32042 3.138263,-3.8863 6.973918,-7.92417 C 109.1332,334.70022 218.63632,225.04761 219.88373,224.3546 c 0.89654,-0.49808 1.47267,-0.26287 3.01299,1.23006 l 1.90448,1.8459 -26.79536,26.71274 c -14.73745,14.69202 -29.61079,29.86902 -33.05186,33.72669 -3.44107,3.85767 -6.58978,7.01394 -6.99713,7.01394 -0.88817,0 -3.62501,2.86036 -4.14087,4.32775 -0.20198,0.57455 -0.71331,1.04463 -1.13628,1.04463 -1.02608,0 -33.05382,32.076 -32.54039,32.58942 0.22041,0.22042 -2.94798,3.89398 -7.04088,8.16348 -7.27646,7.59042 -7.44164,7.82248 -7.44164,10.45457 0,3.2891 0.97446,4.57094 12.80386,16.84267 4.58894,4.76052 9.89511,10.27161 11.79149,12.24686 l 3.44796,3.59137 -18.69794,18.69087 -18.697946,18.69087 z"
     id="path361" /><path
     style="fill:#ffffff;stroke:none;stroke-width:15.9978;stroke-linecap:round;stroke-dasharray:none"
     d="m 139.80799,365.76949 -14.4956,-14.47558 21.40539,-21.19105 c 11.77297,-11.65508 25.75444,-25.64528 31.06994,-31.08933 l 9.66455,-9.89828 14.90164,14.96568 14.90164,14.96567 -30.73367,30.59923 c -16.90352,16.82959 -31.06772,30.59924 -31.47598,30.59924 -0.40827,0 -7.26533,-6.51401 -15.23791,-14.47558 z"
     id="path362" /><path
     style="fill:#ffffff;stroke:none;stroke-width:15.9978;stroke-linecap:round;stroke-dasharray:none"
     d="m 223.84914,301.21829 -24.17571,-24.10498 18.72714,-18.72275 18.72714,-18.72275 23.95343,24.04995 c 13.17439,13.22748 23.95343,24.31228 23.95343,24.6329 0,0.62461 -36.027,36.97816 -36.64256,36.97468 -0.20194,-10e-4 -11.24623,-10.84931 -24.54287,-24.10705 z m 25.96466,-1.13922 c 1.82233,-1.82233 3.27369,-5.242 3.28163,-7.7321 0.002,-0.762 0.48783,-1.04463 1.79412,-1.04463 0.98494,0 1.79079,-0.26861 1.79079,-0.59693 0,-0.32831 0.5246,-0.59693 1.16578,-0.59693 4.74305,0 7.88886,-5.89405 5.80618,-10.8786 -1.09701,-2.62552 -2.69814,-3.73922 -6.93435,-4.82335 l -3.22964,-0.82652 -1.0139,-3.70396 c -1.18011,-4.31112 -2.94553,-6.46118 -5.73497,-6.98449 -2.92779,-0.54925 -4.93305,0.16457 -7.39445,2.63223 -1.83292,1.83759 -2.26434,2.76501 -2.62027,5.63271 -0.4084,3.29048 -0.48802,3.41738 -1.91884,3.05826 -2.03206,-0.51001 -7.42226,2.26621 -8.74388,4.50353 -1.26173,2.13593 -1.31069,5.51304 -0.1135,7.82815 0.96328,1.86278 3.63278,3.56204 5.59587,3.56204 0.65355,0 1.36992,0.29392 1.59194,0.65315 0.22202,0.35923 1.03316,0.53281 1.80253,0.38573 1.26227,-0.2413 1.43788,9.5e-4 1.79834,2.48074 0.86897,5.9781 3.13617,8.38587 7.915,8.40573 2.82507,0.0117 3.42068,-0.21382 5.16162,-1.95476 z"
     id="path363" /><path
     style="fill:#ffffff;stroke:none;stroke-width:15.9978;stroke-linecap:round;stroke-dasharray:none"
     d="m 178.5011,404.73753 c -5.91992,-5.78543 -10.76348,-10.88883 -10.76348,-11.34088 0,-0.45204 13.84244,-14.69568 30.76098,-31.65253 l 30.76098,-30.83064 11.03322,11.08561 11.03323,11.08562 -15.38001,15.26885 c -8.459,8.39788 -22.42283,22.38653 -31.03073,31.0859 l -15.65072,15.81705 z"
     id="path364" /><path
     style="fill:#ffffff;stroke:none;stroke-width:5.65606;stroke-linecap:round;stroke-dasharray:none"
     d="m 313.11635,291.69882 c -0.56491,-0.65595 -3.31907,-3.43479 -6.12036,-6.17521 -2.8013,-2.74041 -19.96524,-19.83522 -38.1421,-37.98846 -33.4782,-33.4347 -35.64696,-35.69228 -35.64696,-37.10687 0,-0.61606 0.5622,-1.28071 1.08329,-1.28071 0.44944,0 2.16805,1.13216 3.87521,2.55286 1.8311,1.52384 74.77994,74.75173 76.14807,76.43936 0.5446,0.67177 1.18792,1.60903 1.42962,2.08279 l 0.43945,0.86139 -0.70299,0.7309 c -1.16254,1.20869 -1.225,1.20562 -2.36323,-0.11605 z"
     id="path365" /><path
     style="fill:#ffffff;stroke:none;stroke-width:5.65606;stroke-linecap:round;stroke-dasharray:none"
     d="m 284.17477,233.72304 c -1.04468,-1.05101 -2.87089,-2.81004 -4.05825,-3.90897 l -2.15883,-1.99805 41.24068,-41.24028 c 35.68966,-35.68931 41.28495,-41.20355 41.56954,-40.96736 0.18086,0.1501 0.28222,0.34836 0.22523,0.44057 -0.1302,0.21067 1.35391,2.10421 2.12401,2.70997 0.40189,0.31612 0.65363,0.38944 0.83119,0.24208 0.30707,-0.25485 1.01602,0.43849 1.06009,1.03675 0.0342,0.46359 1.12504,1.88421 2.03452,2.64948 0.47066,0.39604 0.72068,0.48516 0.91309,0.32548 0.18988,-0.15759 0.3457,-0.1226 0.54995,0.1235 0.25228,0.30398 -4.31629,4.93662 -39.80712,40.36534 -22.05066,22.01207 -40.66194,40.4968 -41.35839,41.07718 l -1.26628,1.05524 z"
     id="path366" /><path
     style="fill:#ffffff;stroke:none;stroke-width:5.65606;stroke-linecap:round;stroke-dasharray:none"
     d="m 304.22424,253.77019 c -1.04469,-1.05384 -2.89532,-2.8364 -4.11252,-3.96125 l -2.21309,-2.04517 41.25469,-41.2551 c 26.30776,-26.30801 41.29368,-41.14785 41.36231,-40.95912 0.15152,0.41671 6.09464,6.84789 6.68669,7.23581 0.26826,0.17577 0.62399,0.2673 0.79051,0.2034 0.16653,-0.0639 0.42644,0.0328 0.5776,0.21496 0.23872,0.28765 -4.60474,5.19935 -36.87602,37.39553 -20.43296,20.38542 -39.04532,38.86949 -41.36079,41.07571 l -4.20996,4.01131 z"
     id="path367" /><path
     style="fill:#ffffff;stroke:none;stroke-width:5.65606;stroke-linecap:round;stroke-dasharray:none"
     d="m 378.40725,139.93457 c -0.87056,-0.88762 -2.67458,-2.63054 -4.00893,-3.87315 l -2.42608,-2.25929 22.52735,-22.52736 22.52736,-22.527356 4.11714,4.113086 4.11715,4.113085 -17.35939,17.376625 c -17.75207,17.7697 -27.4497,27.28726 -27.74545,27.23028 -0.0915,-0.0176 -0.87858,-0.75829 -1.74915,-1.64592 z"
     id="path368" /><path
     style="fill:#ffffff;stroke:none;stroke-width:5.65606;stroke-linecap:round;stroke-dasharray:none"
     d="m 399.83255,161.46362 c -0.0743,-0.23393 -1.88797,-2.06381 -4.03048,-4.0664 l -3.89549,-3.64107 22.53196,-22.5327 22.53195,-22.53269 4.18143,4.1674 4.18143,4.1674 -20.33459,20.26051 c -11.18402,11.14328 -21.39133,21.23754 -22.6829,22.43169 -2.04949,1.89491 -2.3655,2.11707 -2.48331,1.74586 z"
     id="path369" /><path
     style="fill:#ffffff;stroke:none;stroke-width:5.65606;stroke-linecap:round;stroke-dasharray:none"
     d="m 435.60739,84.063292 c -0.75098,-0.62227 -1.47808,-1.088165 -1.61579,-1.035322 -0.34734,0.133287 -1.04204,-0.684322 -0.96712,-1.138228 0.0403,-0.243921 -0.73705,-1.131081 -2.24528,-2.562574 l -2.30686,-2.189493 5.57613,-5.462772 c 3.06688,-3.004525 5.59679,-5.422799 5.62204,-5.373942 0.0252,0.04886 1.8789,1.942981 4.11923,4.209164 l 4.07334,4.120332 -5.44514,5.282118 -5.44515,5.282117 z"
     id="path370" /><path
     style="fill:#ffffff;stroke:none;stroke-width:5.65606;stroke-linecap:round;stroke-dasharray:none"
     d="m 455.09214,58.776587 -4.04058,-4.009893 4.72649,-4.837346 c 2.59956,-2.660541 4.73773,-4.749906 4.75148,-4.643034 0.0137,0.106872 0.017,0.25587 0.007,0.331107 -0.0234,0.179412 5.89127,6.53669 6.60092,7.094901 0.30115,0.23688 0.72563,0.384118 0.94331,0.327196 1.17604,-0.307541 0.49129,0.620744 -3.17012,4.297587 -2.13326,2.142254 -4.30602,4.24474 -4.82836,4.672191 l -0.94971,0.777184 z"
     id="path371" /><path
     style="fill:#ffffff;stroke:none;stroke-width:5.65606;stroke-linecap:round;stroke-dasharray:none"
     d="m 478.47699,82.603475 c -0.25056,-0.175496 -0.45556,-0.497112 -0.45556,-0.714703 0,-0.355038 -1.8777,-2.285321 -5.80004,-5.962458 l -1.26253,-1.183607 4.726,-4.756064 c 2.5993,-2.615835 4.80724,-4.705854 4.90654,-4.644487 0.0993,0.06137 0.13359,0.18753 0.0762,0.280361 -0.0574,0.09283 1.16328,1.534579 2.71256,3.203884 3.6968,3.983191 4.01844,4.276451 4.54051,4.139925 0.24277,-0.06349 0.54036,0.02562 0.69074,0.206821 0.22395,0.269838 -0.39406,0.967229 -4.05489,4.575709 -2.37551,2.341542 -4.61271,4.463529 -4.97155,4.715526 -0.59533,0.418069 -0.69232,0.430245 -1.108,0.139093 z"
     id="path372" /><path
     style="fill:#ffffff;stroke:none;stroke-width:5.65606;stroke-linecap:round;stroke-dasharray:none"
     d="m 456.07255,104.57843 c 0,-0.39287 -2.75304,-2.68427 -3.07611,-2.5603 -0.13149,0.0505 -1.27272,-0.94512 -2.53607,-2.212394 l -2.29699,-2.304136 5.5902,-5.5957 c 3.07461,-3.077635 5.68517,-5.569223 5.80124,-5.536862 0.11608,0.03236 2.0155,1.890861 4.22094,4.129998 l 4.0099,4.071159 -3.90437,3.855269 c -3.90085,3.851796 -6.93476,6.464886 -7.506,6.464886 -0.16651,0 -0.30274,-0.14036 -0.30274,-0.31192 z"
     id="path373" /></svg>
