<?xml version="1.0" encoding="UTF-8" standalone="no"?>
<!-- Created with Inkscape (http://www.inkscape.org/) -->

<svg
   version="1.1"
   id="svg1"
   width="503.86786"
   height="496.80859"
   viewBox="0 0 503.86786 496.80859"
   xmlns="http://www.w3.org/2000/svg"
   xmlns:svg="http://www.w3.org/2000/svg">
  <defs
     id="defs1" />
  <g
     id="g1"
     transform="translate(-3.3633306,-8.4532491)">
    <path
       style="fill:#000000;stroke-width:0.653869"
       d="m 247.33748,459.95597 c -16.33288,4.65288 -21.73954,5.59671 -29.7672,5.1964 -12.24188,-0.61044 -20.82237,-6.06401 -27.69575,-17.60281 -5.45087,-9.15074 -6.57916,-19.31041 -5.09676,-45.89341 0.79132,-14.19011 -0.46447,-18.35058 -6.4123,-21.24443 -5.68014,-2.76359 -13.32767,-1.17722 -19.89556,4.12704 -8.182,6.60782 -12.31796,15.93596 -12.67963,28.59744 -0.31863,11.15463 1.52239,17.44383 9.13624,31.21081 8.677,15.68926 9.91992,18.38763 9.76318,21.19554 -0.18286,3.27637 -1.41054,5.67451 -3.64622,7.12248 -2.33359,1.51138 -10.66683,4.12714 -21.29469,6.68432 -9.68485,2.33025 -11.89524,3.82942 -15.11849,10.25393 -1.43483,2.85987 -2.95237,4.73117 -6.82028,8.41018 -4.42744,4.21115 -5.39946,4.87014 -8.83379,5.98859 -5.14858,1.67672 -10.011182,1.67972 -14.919636,0.009 -3.314765,-1.12808 -6.417332,-3.12214 -17.16782,-11.03398 C 69.671745,487.66617 53.372462,475.7223 40.668149,466.43563 27.963828,457.14895 15.64023,447.72941 13.282377,445.50332 3.7681286,436.52069 1.0067252,425.39996 5.3950008,413.73919 l 1.725298,-4.58458 9.4638612,-9.17489 c 8.055231,-7.80928 9.797383,-9.2693 11.704301,-9.80926 3.009764,-0.85221 6.535589,0.21543 8.85017,2.67984 l 1.884284,2.00561 31.017025,-28.81829 31.01705,-28.81828 5.31536,-12.49476 c 2.92345,-6.87211 7.21494,-17.13684 9.53662,-22.81048 l 4.22127,-10.31571 8.78593,-8.55397 8.78591,-8.55394 -3.51378,-3.7479 c -1.93257,-2.06136 -3.82059,-4.49466 -4.19559,-5.40735 -0.96537,-2.34955 0.25202,-6.11361 2.72996,-8.44074 1.72346,-1.61899 2.60334,-1.93009 5.21573,-1.84587 3.11328,0.10034 3.18009,0.14152 7.21207,4.44215 l 4.06966,4.34083 107.56679,-100.8472 107.5669,-100.847345 -5.81381,-6.201189 -5.81382,-6.201191 5.48568,-5.14299 5.48566,-5.142989 5.77793,6.162903 5.77792,6.162905 13.86187,-12.699935 13.86191,-12.699935 4.06478,-1.325309 c 8.83862,-2.881813 16.81428,-2.264402 23.2572,1.800368 2.21541,1.39767 5.44821,4.364162 9.71155,8.911582 l 6.39068,6.816498 17.67326,-16.569216 c 19.3948,-18.1832401 19.79238,-18.4669799 23.86409,-17.0249116 1.60552,0.5686377 3.79385,2.5964746 10.36057,9.6007256 4.85462,5.178104 8.47905,9.45435 8.69438,10.258009 0.90961,3.395159 0.11332,4.325609 -19.19288,22.425746 -15.22133,14.270476 -18.08525,17.160893 -17.8688,18.034134 0.70763,2.855 -0.86277,4.893839 -11.3388,14.721154 l -10.13421,9.505886 10.17249,10.85368 c 9.37809,10.00634 10.21237,11.04549 10.68455,13.30893 0.28167,1.35034 0.15732,3.1806 -0.27517,4.06722 -1.07586,2.20291 -17.73302,17.74572 -20.18379,18.83359 -3.203,1.42161 -5.03196,0.57434 -9.8473,-4.56186 l -4.26399,-4.54811 -12.04563,11.29314 -12.04558,11.29315 -1.28369,12.49105 c -0.70602,6.87008 -1.69137,13.44055 -2.18969,14.60103 -0.59852,1.39386 -2.69204,3.78442 -6.16851,7.04371 l -5.2625,4.93374 1.14026,1.21622 c 1.66234,1.7731 2.35093,4.86344 1.52903,6.86228 -2.05996,5.00995 -7.81485,6.92893 -11.71634,3.90683 l -2.04622,-1.58503 -3.51664,3.29695 -3.51664,3.29698 1.38636,1.47874 c 2.14556,2.28852 1.75923,7.22398 -0.74957,9.57607 -3.5512,3.32936 -7.60358,3.50256 -10.4679,0.44743 -1.12082,-1.1955 -1.20112,-1.15915 -4.71784,2.1379 -3.47984,3.26244 -3.54761,3.38613 -2.48061,4.52423 2.80021,2.98681 2.4878,7.12086 -0.76887,10.17408 -3.34102,3.13231 -7.22262,3.29032 -9.92843,0.4043 l -1.37105,-1.46241 -3.75516,3.52058 -3.75515,3.52056 1.44991,2.14408 c 2.05281,3.03561 1.53319,6.71099 -1.32802,9.39348 -1.8178,1.70423 -2.65263,2.00691 -5.30005,1.92155 -2.22212,-0.0716 -3.54838,-0.53437 -4.52875,-1.58006 l -1.38637,-1.47875 -9.54031,8.94433 -9.5403,8.94434 21.73472,23.18292 21.73473,23.18294 -0.10129,3.14238 -0.10129,3.14241 -26.69,25.02271 -26.68999,25.02271 -2.64258,0.42978 c -4.10942,0.66835 -5.61199,-0.46165 -17.75273,-13.3511 l -10.87193,-11.54235 -15.99902,14.99957 c -15.1098,14.16591 -16.05377,15.15151 -16.98427,17.73357 -0.54189,1.5037 -0.74624,4.13854 -0.45409,5.8552 0.45708,2.68579 1.15833,3.89512 5.02727,8.66942 5.38044,6.63953 5.86672,8.01814 8.2773,23.46653 0.9161,5.87087 2.13069,12.55471 2.69909,14.85293 l 1.03348,4.17862 3.35478,0.62272 c 3.67235,0.68166 6.56404,3.08787 7.44698,6.19671 0.55987,1.97129 -0.68854,6.11881 -2.29515,7.62505 -0.61194,0.57372 -7.0153,2.72466 -14.22964,4.77988 z m -8.38663,-15.66583 c -1.55094,-2.29347 -3.2454,-9.67543 -5.0802,-22.13213 -0.65771,-4.4654 -1.34906,-8.69071 -1.5363,-9.38957 -0.18725,-0.69888 -2.15019,-3.6468 -4.36208,-6.55094 -4.57292,-6.00408 -6.5895,-10.85027 -6.98616,-16.78895 -0.31197,-4.66939 1.08653,-12.50541 2.63418,-14.76073 0.89608,-1.30578 0.91497,-1.80115 0.0826,-2.16472 -5.70511,-2.49183 -11.30264,-7.849 -13.31454,-12.7428 l -1.33268,-3.24166 -8.30193,7.78333 -8.30195,7.78333 1.48409,1.58296 c 2.26961,2.42084 4.45255,7.23807 5.19562,11.46548 0.36859,2.09694 0.35313,11.16818 -0.0344,20.15828 -0.38749,8.99012 -0.4657,18.5391 -0.17385,21.21995 1.84706,16.96527 10.27253,25.49982 23.75172,24.05925 3.68881,-0.39424 16.26311,-3.27375 17.33929,-3.97069 0.19079,-0.12364 -0.28771,-1.16327 -1.06344,-2.31039 z m 60.72045,-162.19504 -36.88516,-39.58739 -19.79888,18.56208 -19.79888,18.56207 37.12393,39.59754 37.12393,39.59754 19.5601,-18.57223 19.56012,-18.57223 z M 141.50501,451.02295 c -8.1914,-14.86517 -10.99934,-24.92289 -10.58092,-37.89994 0.5003,-15.51767 5.86959,-28.29346 15.80597,-37.60914 8.19796,-7.68584 16.00377,-11.00035 26.17977,-11.11648 l 5.82461,-0.0665 27.76403,-26.02965 c 25.12119,-23.5519 27.66911,-26.07566 26.76709,-26.51272 -0.54831,-0.26569 -5.50854,-5.29531 -11.02274,-11.17691 l -10.02579,-10.69382 -28.51399,26.73275 -28.51402,26.73277 0.93744,2.88716 c 0.51555,1.58793 0.75049,3.85602 0.52206,5.04018 -0.404,2.09433 -1.53972,3.21611 -41.64967,41.13857 l -41.234372,38.98553 20.854269,22.49213 20.854263,22.49214 3.04893,-3.37971 c 3.88926,-4.31124 6.31365,-5.44825 18.41699,-8.6373 5.13904,-1.35405 9.48507,-2.71098 9.65785,-3.01539 0.17282,-0.30434 -2.11852,-4.96808 -5.09177,-10.36372 z m -73.614495,-3.38714 -38.013406,-40.54628 -4.546967,4.26292 c -6.547029,6.13804 -8.198435,10.70404 -6.131019,16.9517 1.651557,4.99095 5.644554,8.4978 28.38277,24.92721 5.196652,3.75482 17.499935,12.79008 27.34063,20.07833 9.840697,7.28827 19.244028,14.06657 20.896282,15.06292 3.198308,1.92863 7.490395,2.24212 9.167685,0.6696 0.89804,-0.84193 0.11381,-1.7173 -37.095975,-41.4064 z M 253.75692,334.43597 c -6.49297,-7.22264 -7.51793,-7.81574 -11.92002,-6.89763 -2.12666,0.44356 -3.30676,1.35376 -10.50505,8.10238 -9.04423,8.47925 -9.95168,9.98028 -8.9423,14.79181 1.13518,5.41119 6.87826,10.23441 12.2555,10.29256 3.62062,0.0391 5.5939,-1.35492 16.19785,-11.44339 l 8.76423,-8.33812 z m 65.16331,-91.31582 c -1.23466,-1.31695 -1.58636,-2.44978 -1.50867,-4.85963 0.0857,-2.65973 0.4372,-3.45729 2.28805,-5.19254 2.95485,-2.77024 6.66823,-2.92509 9.75504,-0.40671 l 2.17253,1.77243 3.75331,-3.51886 3.75332,-3.51885 -1.59466,-1.70091 c -2.06229,-2.19969 -2.50433,-3.97401 -1.61541,-6.48398 2.03662,-5.75047 9.10795,-7.5126 13.09248,-3.26257 1.05697,1.12739 1.19393,1.06304 4.66655,-2.19265 l 3.5776,-3.35412 -1.32061,-1.4086 c -4.09992,-4.37309 -1.71021,-10.98099 4.4348,-12.26281 2.5555,-0.53306 4.90821,0.23998 6.76824,2.22395 1.05695,1.1274 1.19392,1.06304 4.66652,-2.19264 l 3.57764,-3.35412 -1.61,-1.71725 c -1.24584,-1.32887 -1.58622,-2.45408 -1.50494,-4.97502 0.0985,-3.05303 0.27053,-3.38553 2.73834,-5.29045 3.31819,-2.56133 6.33787,-2.61066 9.35076,-0.15279 l 2.12278,1.73176 3.26717,-3.06308 3.26718,-3.06308 1.04314,-9.18281 c 0.57372,-5.05054 1.07646,-9.54364 1.11719,-9.98463 0.0427,-0.46195 -0.94858,-0.70877 -2.33853,-0.58231 -1.32692,0.1207 -6.19588,0.439 -10.81996,0.70725 l -8.40739,0.48773 -45.24951,42.42283 -45.24946,42.42279 9.16794,9.77883 9.16794,9.7788 9.54029,-8.94433 9.54031,-8.94434 z m 132.7991,-123.62616 c 0.047,-1.45761 -1.3515,-3.13943 -1.90869,-2.29543 -0.15275,0.23143 -1.02906,1.12513 -1.94732,1.98602 -1.2897,1.20914 -1.4864,1.76061 -0.86456,2.42389 1.77568,1.89397 4.63259,0.61428 4.72057,-2.11448 z m -12.94372,-15.26074 -2.76697,-2.95133 -0.16554,2.78767 c -0.17611,2.96577 0.61593,5.70585 1.73691,6.00893 0.37388,0.10108 1.41838,-0.50871 2.32117,-1.35508 l 1.64138,-1.53886 z m -13.28524,14.51001 c -0.46604,-0.49708 -1.74764,-2.75058 -2.84801,-5.00776 -2.34213,-4.80438 -2.38778,-7.12874 -0.46579,-23.712805 1.72991,-14.92661 1.539,-14.524659 11.20005,-23.582181 l 7.92056,-7.425778 -9.50054,-9.840893 -9.50053,-9.840916 -3.3717,-0.72239 c -2.20622,-0.472696 -4.69103,-0.337519 -7.18847,0.391072 l -3.81676,1.113513 -136.94743,128.371738 -136.9475,128.37161 -8.99039,21.22184 c -4.94472,11.672 -8.76641,21.41517 -8.49262,21.65145 0.27375,0.23631 5.28332,0.48051 11.13233,0.5427 l 10.63457,0.11308 60.44973,-56.6735 c 65.49993,-61.40824 62.33528,-58.66514 66.51755,-57.65701 0.94121,0.22688 3.23013,1.81189 5.08649,3.52224 l 3.37517,3.10973 47.72488,-44.29541 47.72489,-44.29543 6.17847,-0.4147 c 3.39816,-0.22815 10.93976,-0.75362 16.75912,-1.16783 l 10.58061,-0.75308 11.81635,-11.0577 c 11.28288,-10.55855 11.77809,-11.0985 10.96898,-11.96153 z m 26.03924,-48.706977 c -0.27684,-0.2953 -2.99128,1.908132 -7.12543,5.784018 -4.13413,3.875881 -6.50785,6.442752 -6.23099,6.738049 0.27684,0.295298 2.9913,-1.908129 7.12542,-5.78402 4.13414,-3.875866 6.50784,-6.442759 6.231,-6.738047 z m 35.55646,-42.074157 -2.14729,-2.692392 -14.57303,13.662661 -14.57303,13.662686 2.16154,2.305572 c 1.18885,1.268069 2.44488,2.314707 2.7912,2.325873 0.3463,0.01111 6.89776,-5.962973 14.55878,-13.275855 L 489.23333,30.654543 Z M 117.635,354.79627 l -15.41375,-0.29464 -26.885061,25.20559 -26.885055,25.20559 7.37908,7.87074 7.379072,7.87074 34.919663,-32.78175 34.919661,-32.78172 z"
       id="path1" />
    <path
       style="fill:#ffffff;stroke-width:5.55146"
       d="m 121.66032,339.80716 -4.88906,-0.20054 1.50662,-4.00571 c 0.82864,-2.20315 4.76121,-11.7537 8.73904,-21.22346 l 7.23243,-17.21773 136.6453,-128.13497 C 383.73184,63.215105 408.02226,40.706035 410.30812,39.835208 c 1.98384,-0.755771 3.97142,-0.994059 7.01493,-0.841011 l 4.24677,0.213556 9.5935,9.794977 9.59349,9.794977 -7.96128,7.760103 c -9.46373,9.224582 -9.23908,8.712868 -11.11193,25.310678 -1.65644,14.679822 -1.46153,17.821652 1.45433,23.443942 l 2.26756,4.37224 -8.55233,8.24696 c -4.70379,4.53583 -9.92709,9.44044 -11.60736,10.89913 l -3.05503,2.65217 -16.62824,1.19821 -16.62824,1.1982 -2.10472,1.9815 c -1.15759,1.08983 -11.37206,10.56007 -22.69883,21.04498 -11.32677,10.48491 -31.80696,29.47415 -45.51154,42.19831 l -24.91741,23.13484 -2.54141,-2.30004 c -7.18055,-6.49857 -8.14866,-6.24622 -21.14718,5.51228 -4.88483,4.41883 -28.49394,26.48151 -104.63577,97.78195 l -7.48636,7.01036 -5.67085,-0.11792 c -3.11896,-0.0649 -7.87092,-0.20815 -10.5599,-0.31844 z"
       id="path2" />
    <path
       style="fill:#ffffff;stroke-width:2.77573"
       d="m 458.26444,54.887887 c -1.14939,-1.165464 -2.04949,-2.216994 -2.00023,-2.336733 0.0493,-0.119739 5.73056,-5.497872 12.62512,-11.951407 6.89455,-6.453535 13.31677,-12.486831 14.27159,-13.407323 l 1.73603,-1.673622 0.7317,0.895396 c 0.40244,0.492468 1.32446,1.644608 2.04893,2.56031 l 1.31723,1.664913 -7.36655,7.020021 c -14.41846,13.740197 -20.50674,19.347472 -21.00714,19.347472 -0.14678,0 -1.20729,-0.953562 -2.35668,-2.119027 z"
       id="path3" />
    <path
       style="fill:#ffffff;stroke-width:0.490684"
       d="m 438.19172,82.52812 c -0.0457,-0.07395 0.16201,-0.438347 0.47133,-0.826887 1.57242,-1.975105 7.83825,-7.953621 10.97257,-10.469426 0.66996,-0.537758 1.38249,-1.027926 1.67696,-1.153629 0.12261,-0.05234 0.15201,-0.04931 0.17797,0.01833 0.12332,0.321365 -2.01088,2.657233 -5.17892,5.668312 -3.87688,3.684789 -6.77384,6.173809 -7.76522,6.671752 -0.29916,0.15026 -0.31575,0.154542 -0.35469,0.09154 z"
       id="path4" />
    <path
       style="fill:#ffffff;stroke-width:0.490684"
       d="m 437.39489,109.9637 c -0.77399,-0.47385 -1.34446,-2.02587 -1.51035,-4.10899 -0.0543,-0.68251 -0.0497,-1.07088 0.0311,-2.58532 0.0523,-0.98019 0.11115,-1.80023 0.13083,-1.8223 0.03,-0.0337 4.96048,5.16495 5.31823,5.60748 l 0.1182,0.14621 -0.93682,0.87352 c -1.27132,1.18542 -1.95933,1.70113 -2.54524,1.90785 -0.29176,0.10294 -0.41374,0.0992 -0.60594,-0.0185 z"
       id="path5" />
    <path
       style="fill:#ffffff;stroke-width:0.490684"
       d="m 448.22675,122.36101 c -0.81219,-0.26743 -1.51941,-0.94581 -1.51941,-1.45744 0,-0.4502 0.18969,-0.70136 1.55415,-2.05773 0.7006,-0.69646 1.38245,-1.39093 1.51523,-1.54328 0.25635,-0.29416 0.4348,-0.35028 0.69336,-0.21808 0.20051,0.10252 0.56409,0.48451 0.74791,0.78577 0.7293,1.19527 0.56517,2.73688 -0.40139,3.77014 -0.2487,0.26586 -0.4284,0.39812 -0.77276,0.56876 -0.42688,0.21153 -0.47467,0.22304 -0.98246,0.23664 -0.4098,0.011 -0.60364,-0.009 -0.83463,-0.0848 z"
       id="path6" />
    <path
       style="fill:#ffffff;stroke-width:1.96274"
       d="m 293.88294,254.4819 c -4.1207,-4.40164 -8.18167,-8.75007 -9.02438,-9.66317 l -1.53221,-1.66019 43.63609,-40.89838 c 23.99984,-22.49412 44.32329,-41.55789 45.16322,-42.36394 l 1.52715,-1.46556 4.69874,-0.27187 c 2.58431,-0.14953 7.13594,-0.43206 10.11475,-0.62784 2.97881,-0.19578 5.66174,-0.29429 5.96208,-0.21891 0.44781,0.1124 0.54526,0.25975 0.54162,0.81894 -0.002,0.37503 -0.46284,4.71446 -1.02311,9.64318 l -1.01867,8.96129 -3.14507,3.00825 c -1.72978,1.65454 -3.19255,3.0109 -3.25059,3.01414 -0.058,0.003 -0.8178,-0.56376 -1.68837,-1.26 -2.6142,-2.09071 -4.81058,-2.59203 -7.29072,-1.66409 -1.23821,0.46327 -3.66535,2.1562 -4.4653,3.11454 -0.67616,0.81002 -0.97347,2.41858 -0.86757,4.69381 0.10779,2.31589 0.36924,2.93857 1.93351,4.60494 l 1.0739,1.14399 -1.89265,1.77596 c -3.06379,2.87489 -4.72971,4.27242 -5.09294,4.27242 -0.18717,0 -0.74599,-0.37395 -1.24182,-0.83099 -0.49584,-0.45704 -1.40868,-1.09809 -2.02855,-1.42457 -1.00724,-0.53049 -1.34014,-0.59341 -3.13198,-0.59203 -1.80626,10e-4 -2.14348,0.067 -3.40279,0.66231 -1.81592,0.85838 -2.90754,1.86552 -3.79411,3.50045 -0.66466,1.22572 -0.71737,1.46247 -0.71737,3.22234 0,1.64048 0.0781,2.05766 0.57303,3.06018 0.31516,0.63842 1.01713,1.66628 1.55992,2.28415 0.83492,0.95038 0.94168,1.16631 0.69326,1.40213 -4.01135,3.80779 -6.34158,5.81083 -6.76001,5.81083 -0.0974,0 -0.68936,-0.46387 -1.31541,-1.03082 -1.63479,-1.48047 -3.10187,-1.98799 -5.43543,-1.88033 -2.2925,0.10577 -4.05857,0.89936 -5.55014,2.49396 -2.1028,2.24807 -2.82303,5.38491 -1.73112,7.53968 0.29881,0.58969 1.06817,1.63908 1.70967,2.33198 0.64151,0.6929 1.16637,1.31095 1.16637,1.37344 0,0.0625 -1.62048,1.63983 -3.60106,3.5052 l -3.60107,3.39159 -1.42326,-1.14994 c -2.1213,-1.71393 -3.35126,-2.21902 -5.40923,-2.22133 -1.42218,-0.002 -1.88802,0.093 -2.95466,0.59999 -1.62533,0.77254 -3.31995,2.30596 -3.92138,3.54833 -0.35558,0.73453 -0.49664,1.48208 -0.57098,3.02593 -0.13002,2.7001 0.20475,3.72463 1.78911,5.4754 l 1.18526,1.30976 -0.61281,0.58894 c -1.74286,1.67496 -17.75831,16.61272 -18.02692,16.81387 -0.25749,0.19283 -1.65896,-1.2018 -7.806,-7.76796 z"
       id="path7" />
    <path
       style="fill:#ffffff;stroke-width:3.92547"
       d="m 262.52977,321.15059 c -19.21352,-20.51081 -35.8453,-38.2421 -36.9595,-39.40286 l -2.02582,-2.11047 19.38732,-18.14798 c 10.66302,-9.9814 19.53935,-18.19867 19.72517,-18.26061 0.18581,-0.0619 16.80233,17.55655 36.92559,39.1522 l 36.58774,39.26481 -17.18653,16.31122 c -9.4526,8.97117 -18.16163,17.25057 -19.35342,18.39865 l -2.16687,2.08743 z"
       id="path8" />
    <path
       style="fill:#ffffff;stroke-width:3.92547"
       d="M 105.49059,465.25546 C 100.1692,459.51101 90.933909,449.55898 84.967722,443.13985 L 74.120111,431.46869 88.343826,418.02289 C 126.5149,381.93943 150.57308,359.01312 153.53669,355.89714 l 3.27122,-3.43941 v -2.462 c 0,-1.3541 -0.30937,-3.36995 -0.68749,-4.47967 l -0.68749,-2.01767 1.21511,-1.16178 c 0.66831,-0.63898 13.44176,-12.61308 28.38545,-26.60911 l 27.17034,-25.44732 4.6769,5.01984 c 2.57229,2.76092 7.33298,7.72247 10.57929,11.02567 l 5.9024,6.00583 -4.8263,4.70736 c -2.65447,2.58906 -14.9631,14.22708 -27.35252,25.86228 l -22.52621,21.1549 -6.17618,0.27374 c -8.75924,0.38822 -13.3118,1.77148 -19.53901,5.93679 -7.19673,4.81382 -13.26987,11.91275 -17.08944,19.97593 -4.69905,9.91978 -6.37783,24.69479 -4.14663,36.4945 1.25511,6.63763 3.51067,12.43551 9.17456,23.58301 2.99264,5.89003 5.2838,10.86629 5.09145,11.05835 -0.19234,0.19207 -3.78925,1.30303 -7.99312,2.46879 -13.46689,3.73448 -15.33235,4.59902 -19.637,9.10059 -1.44747,1.51369 -2.75425,2.75216 -2.90397,2.75216 -0.14971,0 -4.62607,-4.70001 -9.94746,-10.44446 z"
       id="path9" />
    <path
       style="fill:#ffffff;stroke-width:3.92547"
       d="m 213.75216,449.57383 c -6.50795,-2.08219 -11.0995,-7.81552 -13.55641,-16.9275 -0.95883,-3.55604 -0.96618,-3.77969 -0.83099,-25.26688 0.0993,-15.78494 -10e-4,-22.26886 -0.36934,-23.84831 -0.73658,-3.15929 -3.01823,-7.9113 -4.70914,-9.80773 l -1.46901,-1.64756 8.0271,-7.50606 8.02709,-7.50605 1.65025,3.36794 c 1.29309,2.63902 2.35356,4.03988 4.89978,6.47253 1.78723,1.70751 4.38325,3.74314 5.76892,4.52361 1.38567,0.78048 2.58524,1.4697 2.66572,1.5316 0.0805,0.0619 -0.33182,1.31299 -0.9162,2.78019 -1.42981,3.58981 -2.05716,7.34561 -2.03194,12.16476 0.0365,6.97582 1.5874,11.03684 7.26472,19.02271 1.88684,2.65408 3.58103,5.21152 3.76486,5.68321 0.18383,0.47169 1.04088,5.31521 1.90455,10.7634 1.8264,11.52125 3.52934,18.72328 5.03446,21.29157 l 1.06778,1.82203 -3.2632,0.87914 c -10.99868,2.96318 -18.35367,3.67125 -22.929,2.2074 z"
       id="path10" />
    <path
       style="fill:#ffffff;stroke-width:3.92547"
       d="M 97.081616,488.62233 C 95.920857,488.07319 89.272877,483.45554 82.308327,478.36091 30.990176,440.82117 28.315215,438.81109 24.01294,434.55524 c -4.009088,-3.96583 -5.229758,-6.51753 -5.229758,-10.93234 0,-4.0473 1.697792,-7.08104 6.698302,-11.96905 2.200591,-2.15109 4.145912,-3.91106 4.322935,-3.91106 0.177023,0 14.071052,14.67304 30.875618,32.60676 45.069613,48.09797 44.639703,47.62036 43.787803,48.64683 -0.84536,1.01861 -4.873697,0.8146 -7.386224,-0.37405 z"
       id="path11" />
    <path
       style="fill:#ffffff;stroke-width:3.92547"
       d="m 61.342042,418.34942 c -0.772583,-0.89875 -3.910906,-4.28356 -6.97405,-7.5218 l -5.569354,-5.88771 26.773835,-25.08496 26.773837,-25.08496 10.87466,0.11657 c 5.98106,0.0641 12.70063,0.2292 14.93236,0.36685 l 4.0577,0.25029 -17.35366,16.2946 c -9.54451,8.96203 -24.98727,23.46999 -34.317237,32.23991 -9.329967,8.76992 -17.150286,15.9453 -17.378486,15.9453 -0.2282,0 -1.047022,-0.73534 -1.819605,-1.63409 z"
       id="path12" />
  </g>
</svg>
