<?xml version="1.0" encoding="UTF-8" standalone="no"?>
<!-- Created with Inkscape (http://www.inkscape.org/) -->

<svg
   version="1.1"
   id="svg1"
   width="508.96503"
   height="321.25928"
   viewBox="0 0 508.96503 321.25928"
   xml:space="preserve"
   xmlns="http://www.w3.org/2000/svg"
   xmlns:svg="http://www.w3.org/2000/svg"><defs
     id="defs1" /><g
     id="g1"
     transform="translate(-1.216419,-108.0963)"><g
       id="g280"
       transform="matrix(1.0106226,0,0,1.0106226,-3.7404778,9.9427535)"><path
         style="fill:#d0d0d0;fill-opacity:1"
         d="m 454.05157,414.68842 c 0.49651,-0.12939 1.18542,-0.12088 1.53091,0.0189 0.3455,0.13978 -0.0607,0.24564 -0.90274,0.23524 -0.84201,-0.0104 -1.12468,-0.12477 -0.62817,-0.25415 z m 5.85879,-0.007 c 0.63151,-0.12163 1.66487,-0.12163 2.29638,0 0.6315,0.12164 0.11481,0.22115 -1.14819,0.22115 -1.26301,0 -1.77969,-0.0995 -1.14819,-0.22115 z M 76.671272,405.00829 c 0.350835,-0.14156 0.924928,-0.14156 1.275763,0 0.350835,0.14157 0.06379,0.25739 -0.637881,0.25739 -0.70167,0 -0.988716,-0.11582 -0.637882,-0.25739 z m 381.462738,-0.0157 c 0.49651,-0.12938 1.18542,-0.12087 1.53091,0.0189 0.3455,0.13978 -0.0607,0.24564 -0.90274,0.23524 -0.84201,-0.0104 -1.12468,-0.12476 -0.62817,-0.25415 z m 26.27694,-0.007 c 0.63478,-0.12206 1.55333,-0.11743 2.04122,0.0103 0.4879,0.12772 -0.0315,0.22759 -1.15413,0.22193 -1.12267,-0.006 -1.52186,-0.11017 -0.88709,-0.23223 z M 79.254692,397.34308 c 0.368376,-0.14741 0.808514,-0.12928 0.978084,0.0403 0.169571,0.16957 -0.131828,0.29018 -0.669775,0.26802 -0.594476,-0.0245 -0.715396,-0.1454 -0.308309,-0.30831 z m 17.446054,-54.44671 c 0,-0.10596 0.401865,-0.50783 0.893033,-0.89303 0.809373,-0.63475 0.827422,-0.6167 0.192669,0.19267 -0.666647,0.85004 -1.085702,1.12036 -1.085702,0.70036 z M 377.4961,198.81751 c 0.77183,-0.11692 2.03484,-0.11692 2.80668,0 0.77183,0.11692 0.14033,0.21259 -1.40334,0.21259 -1.54368,0 -2.17518,-0.0957 -1.40334,-0.21259 z M 268.85751,170.09563 c 0,-2.66634 0.086,-3.75712 0.19113,-2.42395 0.10512,1.33317 0.10512,3.51473 0,4.8479 -0.10512,1.33317 -0.19113,0.24239 -0.19113,-2.42395 z m 69.63215,0.67201 c 0.36837,-0.14741 0.80851,-0.12928 0.97808,0.0403 0.16957,0.16957 -0.13183,0.29018 -0.66978,0.26802 -0.59447,-0.0245 -0.71539,-0.1454 -0.3083,-0.30831 z m 51.51486,-0.0123 c 0.63478,-0.12206 1.55333,-0.11743 2.04122,0.0103 0.4879,0.12773 -0.0315,0.22759 -1.15413,0.22193 -1.12268,-0.006 -1.52186,-0.11017 -0.88709,-0.23223 z M 100.67984,152.87551 c 2.32884,-0.0948 6.00303,-0.0942 8.16488,0.001 2.16185,0.0954 0.25644,0.17295 -4.23425,0.17231 -4.49068,-6.5e-4 -6.259466,-0.0787 -3.93063,-0.17349 z m -53.948702,-2.46915 c 0.02449,-0.59448 0.145407,-0.7154 0.30831,-0.30831 0.147412,0.36838 0.129282,0.80852 -0.04029,0.97809 -0.16957,0.16957 -0.29018,-0.13183 -0.268022,-0.66978 z M 182.83895,138.07667 c 2.32884,-0.0948 6.00303,-0.0943 8.16488,0.001 2.16185,0.0954 0.25644,0.17296 -4.23424,0.17231 -4.49069,-6.4e-4 -6.25947,-0.0787 -3.93064,-0.17348 z m 13.50857,0.0264 c 0.49651,-0.12938 1.18542,-0.12087 1.53091,0.0189 0.3455,0.13978 -0.0607,0.24564 -0.90274,0.23524 -0.84201,-0.0104 -1.12468,-0.12476 -0.62817,-0.25415 z M 79.254692,137.08751 c 0.368376,-0.14741 0.808514,-0.12928 0.978084,0.0403 0.169571,0.16957 -0.131828,0.29018 -0.669775,0.26802 -0.594476,-0.0245 -0.715396,-0.14541 -0.308309,-0.30831 z m 7.877834,-0.0298 c 1.894507,-0.0982 4.994611,-0.0982 6.889118,0 1.894508,0.0982 0.344456,0.17852 -3.444559,0.17852 -3.789015,0 -5.339067,-0.0803 -3.444559,-0.17852 z m 11.003453,0.0298 c 0.368376,-0.14741 0.808514,-0.12928 0.978084,0.0403 0.16957,0.16957 -0.131829,0.29018 -0.669775,0.26802 -0.594476,-0.0245 -0.715396,-0.14541 -0.308309,-0.30831 z M 290.75565,126.7197 c 0,-1.263 0.0995,-1.77969 0.22115,-1.14818 0.12164,0.6315 0.12164,1.66487 0,2.29637 -0.12163,0.6315 -0.22115,0.11482 -0.22115,-1.14819 z m 0.78594,-2.90012 c 0.36838,-0.14741 0.80852,-0.12928 0.97809,0.0403 0.16957,0.16957 -0.13183,0.29018 -0.66978,0.26802 -0.59448,-0.0245 -0.7154,-0.14541 -0.30831,-0.30831 z m 41.04766,-0.003 c 0.49117,-0.12836 1.2949,-0.12836 1.78607,0 0.49117,0.12836 0.0893,0.23337 -0.89303,0.23337 -0.98234,0 -1.38421,-0.10501 -0.89304,-0.23337 z m 12.50248,-9.70417 c 0.6315,-0.12163 1.66487,-0.12163 2.29637,0 0.6315,0.12163 0.11482,0.22115 -1.14819,0.22115 -1.263,0 -1.77969,-0.0995 -1.14818,-0.22115 z m -76.7998,-4.48776 c 0.006,-1.12267 0.11017,-1.52186 0.23223,-0.88708 0.12206,0.63477 0.11743,1.55332 -0.0103,2.04122 -0.12772,0.48789 -0.22759,-0.0315 -0.22193,-1.15414 z m 8.41892,-8.28594 c 1.47351,-0.10309 3.8847,-0.10309 5.3582,0 1.47351,0.10308 0.26791,0.18742 -2.6791,0.18742 -2.94701,0 -4.1526,-0.0843 -2.6791,-0.18742 z"
         id="path287" /><path
         style="fill:#b9b9b9;fill-opacity:1"
         d="m 451.50004,414.68842 c 0.49651,-0.12939 1.18542,-0.12088 1.53092,0.0189 0.34549,0.13978 -0.0607,0.24564 -0.90275,0.23524 -0.842,-0.0104 -1.12468,-0.12477 -0.62817,-0.25415 z m -372.522683,-9.6958 c 0.496511,-0.12938 1.185422,-0.12087 1.530915,0.0189 0.345493,0.13978 -0.06074,0.24564 -0.902745,0.23524 -0.842004,-0.0104 -1.12468,-0.12476 -0.62817,-0.25415 z m 408.754343,0 c 0.49651,-0.12938 1.18542,-0.12087 1.53092,0.0189 0.34549,0.13978 -0.0608,0.24564 -0.90275,0.23524 -0.842,-0.0104 -1.12468,-0.12476 -0.62817,-0.25415 z M 334.37532,190.68017 c 0.35084,-0.14156 0.92493,-0.14156 1.27576,0 0.35084,0.14157 0.0638,0.25739 -0.63788,0.25739 -0.70167,0 -0.98871,-0.11582 -0.63788,-0.25739 z m 58.71698,-19.91253 c 0.36837,-0.14741 0.80851,-0.12928 0.97808,0.0403 0.16957,0.16957 -0.13183,0.29018 -0.66977,0.26802 -0.59448,-0.0245 -0.7154,-0.1454 -0.30831,-0.30831 z m -124.33818,-6.28536 c 0,-0.70167 0.11583,-0.98872 0.25739,-0.63789 0.14157,0.35084 0.14157,0.92493 0,1.27577 -0.14156,0.35083 -0.25739,0.0638 -0.25739,-0.63788 z M 116.70789,152.87766 c 1.88223,-0.0979 5.09715,-0.0986 7.14427,-0.001 2.04712,0.0971 0.50712,0.17721 -3.42223,0.17801 -3.92935,8e-4 -5.60427,-0.0787 -3.72204,-0.17656 z m -69.976752,-4.00221 c 0.02449,-0.59448 0.145407,-0.7154 0.30831,-0.30831 0.147412,0.36837 0.129282,0.80851 -0.04029,0.97808 -0.16957,0.16957 -0.29018,-0.13183 -0.268022,-0.66977 z m 355.037602,-7.73902 c 5.14042,-0.0833 13.40736,-0.0832 18.37098,3e-4 4.96362,0.0835 0.75782,0.15164 -9.34622,0.15147 -10.10404,-1.7e-4 -14.16518,-0.0685 -9.02476,-0.15177 z M 191.0115,139.63904 c 0.36837,-0.14742 0.80851,-0.12929 0.97808,0.0403 0.16957,0.16957 -0.13183,0.29018 -0.66977,0.26803 -0.59448,-0.0245 -0.7154,-0.14541 -0.30831,-0.30831 z m -86.0183,-2.58289 c 2.45585,-0.0935 6.4745,-0.0935 8.93034,0 2.45584,0.0935 0.44652,0.17008 -4.46517,0.17008 -4.91168,0 -6.92101,-0.0765 -4.46517,-0.17008 z m 14.06529,0.0314 c 0.36837,-0.14741 0.80851,-0.12928 0.97808,0.0403 0.16957,0.16957 -0.13183,0.29018 -0.66978,0.26802 -0.59447,-0.0245 -0.71539,-0.14541 -0.3083,-0.30831 z m 216.59259,-13.2711 c 0.49117,-0.12836 1.2949,-0.12836 1.78607,0 0.49117,0.12836 0.0893,0.23337 -0.89303,0.23337 -0.98234,0 -1.3842,-0.10501 -0.89304,-0.23337 z m 13.01278,-9.68199 c 0.35084,-0.14157 0.92493,-0.14157 1.27577,0 0.35083,0.14156 0.0638,0.25739 -0.63789,0.25739 -0.70167,0 -0.98871,-0.11583 -0.63788,-0.25739 z"
         id="path286" /><path
         style="fill:#a3a3a3;fill-opacity:1"
         d="m 449.73616,414.69346 c 0.36837,-0.14742 0.80851,-0.12929 0.97808,0.0403 0.16957,0.16957 -0.13183,0.29018 -0.66977,0.26803 -0.59448,-0.0245 -0.7154,-0.14541 -0.30831,-0.30831 z M 84.581001,404.96694 c 2.175175,-0.0957 5.734553,-0.0957 7.909728,0 2.175175,0.0957 0.395486,0.17393 -3.954864,0.17393 -4.350351,0 -6.13004,-0.0783 -3.954864,-0.17393 z m 405.437359,0.0413 c 0.35084,-0.14156 0.92493,-0.14156 1.27576,0 0.35084,0.14157 0.0638,0.25739 -0.63788,0.25739 -0.70167,0 -0.98871,-0.11582 -0.63788,-0.25739 z M 99.124695,387.14762 c 0.350834,-0.14157 0.924925,-0.14157 1.275765,0 0.35083,0.14156 0.0638,0.25739 -0.637884,0.25739 -0.70167,0 -0.988716,-0.11583 -0.637881,-0.25739 z M 372.13789,198.84505 c 0.35084,-0.14156 0.92493,-0.14156 1.27577,0 0.35083,0.14157 0.0638,0.25739 -0.63788,0.25739 -0.70167,0 -0.98872,-0.11582 -0.63789,-0.25739 z m -47.69229,-8.20581 c 1.90618,-0.0985 4.89146,-0.0977 6.63396,0.002 1.7425,0.0993 0.1829,0.1799 -3.46578,0.179 -3.64868,-8.9e-4 -5.07436,-0.0822 -3.16818,-0.18062 z m 14.01216,0.0188 c 0.6315,-0.12163 1.66487,-0.12163 2.29637,0 0.63151,0.12163 0.11482,0.22115 -1.14818,0.22115 -1.26301,0 -1.77969,-0.0995 -1.14819,-0.22115 z m 56.13356,-19.87972 c 0.35083,-0.14157 0.92492,-0.14157 1.27576,0 0.35083,0.14156 0.0638,0.25739 -0.63788,0.25739 -0.70167,0 -0.98872,-0.11583 -0.63788,-0.25739 z M 268.77303,162.1859 c 0.0104,-0.842 0.12477,-1.12468 0.25415,-0.62817 0.12939,0.49651 0.12088,1.18543 -0.0189,1.53092 -0.13978,0.34549 -0.24564,-0.0607 -0.23524,-0.90275 z m 182.6703,-9.44064 c 0,-0.70167 0.11582,-0.98872 0.25739,-0.63788 0.14156,0.35083 0.14156,0.92493 0,1.27576 -0.14157,0.35083 -0.25739,0.0638 -0.25739,-0.63788 z m -321.68323,0.13349 c 1.48292,-0.10341 3.77929,-0.10232 5.10305,0.002 1.32377,0.10474 0.11047,0.18934 -2.6962,0.18801 -2.80668,-0.001 -3.88976,-0.087 -2.40685,-0.19043 z m 257.43179,-11.73194 c 1.05251,-0.1101 2.77479,-0.1101 3.82729,0 1.05251,0.11009 0.19137,0.20017 -1.91364,0.20017 -2.10501,0 -2.96615,-0.0901 -1.91365,-0.20017 z m 43.12992,0.002 c 0.9172,-0.11357 2.29502,-0.11123 3.06183,0.005 0.76681,0.11644 0.0164,0.20936 -1.66763,0.2065 -1.68401,-0.003 -2.3114,-0.0981 -1.3942,-0.21171 z M 124.63995,137.0559 c 2.59617,-0.0926 6.84446,-0.0926 9.44064,0 2.59618,0.0926 0.47203,0.16839 -4.72032,0.16839 -5.19236,0 -7.3165,-0.0758 -4.72032,-0.16839 z m 218.18191,-13.26848 c 2.75109,-0.0919 7.1142,-0.0915 9.6958,9e-4 2.58159,0.0924 0.3307,0.16764 -5.00198,0.16714 -5.33269,-4.9e-4 -7.44491,-0.0761 -4.69382,-0.16804 z"
         id="path285" /><path
         style="fill:#8c8c8c;fill-opacity:1"
         d="m 98.117573,404.97195 c 1.200257,-0.1078 3.037357,-0.10628 4.082437,0.003 1.04509,0.10965 0.0631,0.19785 -2.18228,0.196 -2.245344,-0.002 -3.100414,-0.0916 -1.900157,-0.19937 z m 8.406547,0.0225 c 0.49117,-0.12835 1.2949,-0.12835 1.78607,0 0.49116,0.12836 0.0893,0.23338 -0.89304,0.23338 -0.98234,0 -1.3842,-0.10502 -0.89303,-0.23338 z m 386.30793,-0.0144 c 0.7757,-0.11729 1.92389,-0.11416 2.55153,0.007 0.62764,0.12112 -0.007,0.21709 -1.41036,0.21326 -1.40333,-0.004 -1.91686,-0.10293 -1.14117,-0.22023 z M 97.083474,387.14762 c 0.350835,-0.14157 0.924928,-0.14157 1.275763,0 0.350835,0.14156 0.06379,0.25739 -0.637881,0.25739 -0.70167,0 -0.988716,-0.11583 -0.637882,-0.25739 z M 366.02337,198.81318 c 0.9172,-0.11357 2.29502,-0.11123 3.06183,0.005 0.76681,0.11644 0.0164,0.20936 -1.66763,0.2065 -1.684,-0.003 -2.31139,-0.0981 -1.3942,-0.21171 z m -46.4469,-8.13301 c 0.35084,-0.14156 0.92493,-0.14156 1.27577,0 0.35083,0.14157 0.0638,0.25739 -0.63788,0.25739 -0.70167,0 -0.98872,-0.11582 -0.63789,-0.25739 z m 55.14484,-1.54154 c 0.36838,-0.14742 0.80852,-0.12929 0.97809,0.0403 0.16957,0.16957 -0.13183,0.29018 -0.66978,0.26803 -0.59447,-0.0245 -0.71539,-0.14541 -0.30831,-0.30831 z m 21.91123,-18.36035 c 0.35083,-0.14157 0.92492,-0.14157 1.27576,0 0.35083,0.14156 0.0638,0.25739 -0.63788,0.25739 -0.70167,0 -0.98872,-0.11583 -0.63788,-0.25739 z M 138.42732,152.88573 c 0.9172,-0.11357 2.29502,-0.11123 3.06183,0.005 0.76681,0.11644 0.0164,0.20936 -1.66763,0.2065 -1.684,-0.003 -2.31139,-0.0981 -1.3942,-0.21171 z m 312.97572,-1.96906 c 0.0245,-0.59448 0.14541,-0.7154 0.30831,-0.30831 0.14741,0.36837 0.12928,0.80851 -0.0403,0.97808 -0.16957,0.16957 -0.29018,-0.13183 -0.26802,-0.66977 z M 295.85431,144.7245 c 0.77569,-0.1173 1.92388,-0.11416 2.55152,0.007 0.62765,0.12113 -0.007,0.2171 -1.41035,0.21327 -1.40334,-0.004 -1.91687,-0.10294 -1.14117,-0.22023 z m 7.14696,0.0126 c 0.49651,-0.12939 1.18542,-0.12088 1.53092,0.0189 0.34549,0.13978 -0.0607,0.24564 -0.90275,0.23524 -0.842,-0.0104 -1.12468,-0.12477 -0.62817,-0.25415 z m 80.6282,-3.57214 c 0.49651,-0.12938 1.18542,-0.12087 1.53092,0.0189 0.34549,0.13978 -0.0607,0.24564 -0.90275,0.23524 -0.842,-0.0104 -1.12468,-0.12476 -0.62817,-0.25415 z m 51.27595,0.0157 c 0.35083,-0.14156 0.92492,-0.14156 1.27576,0 0.35083,0.14157 0.0638,0.25739 -0.63788,0.25739 -0.70167,0 -0.98872,-0.11582 -0.63788,-0.25739 z m -292.65995,-4.12379 c 2.17518,-0.0957 5.73455,-0.0957 7.90973,0 2.17517,0.0957 0.39549,0.17393 -3.95486,0.17393 -4.35036,0 -6.13004,-0.0783 -3.95487,-0.17393 z m 309.15757,-0.93897 c 0.0245,-0.59448 0.14541,-0.7154 0.30831,-0.30831 0.14741,0.36838 0.12928,0.80851 -0.0403,0.97808 -0.16957,0.16957 -0.29018,-0.13182 -0.26802,-0.66977 z m -93.79913,-12.30328 c 0.49651,-0.12938 1.18543,-0.12088 1.53092,0.0189 0.34549,0.13978 -0.0607,0.24564 -0.90275,0.23524 -0.842,-0.0104 -1.12468,-0.12477 -0.62817,-0.25415 z m 15.81946,-7.14427 c 0.49651,-0.12939 1.18542,-0.12088 1.53091,0.0189 0.3455,0.13978 -0.0607,0.24564 -0.90274,0.23524 -0.842,-0.0104 -1.12468,-0.12477 -0.62817,-0.25415 z m -108.70469,-3.05996 c 0.49117,-0.12836 1.2949,-0.12836 1.78607,0 0.49117,0.12835 0.0893,0.23337 -0.89303,0.23337 -0.98234,0 -1.38421,-0.10502 -0.89304,-0.23337 z"
         id="path284" /><path
         style="fill:#767676;fill-opacity:1"
         d="m 104.22775,405.00829 c 0.35083,-0.14156 0.92492,-0.14156 1.27576,0 0.35083,0.14157 0.0638,0.25739 -0.63788,0.25739 -0.70167,0 -0.98872,-0.11582 -0.63788,-0.25739 z m -8.643297,-17.87131 c 0.368377,-0.14741 0.808515,-0.12928 0.978085,0.0403 0.16957,0.16957 -0.131829,0.29018 -0.669775,0.26802 -0.594477,-0.0245 -0.715397,-0.1454 -0.30831,-0.30831 z m 33.472177,-63.56711 -0.97212,-1.14818 1.14818,0.97212 c 1.07901,0.91356 1.3805,1.32425 0.97213,1.32425 -0.0968,0 -0.61352,-0.51668 -1.14819,-1.14819 z M 235.91834,201.38595 c 0.36838,-0.14742 0.80852,-0.12929 0.97809,0.0403 0.16957,0.16957 -0.13183,0.29018 -0.66978,0.26803 -0.59448,-0.0245 -0.7154,-0.14541 -0.30831,-0.30831 z m 80.85146,-10.71958 c 0.49117,-0.12835 1.2949,-0.12835 1.78606,0 0.49117,0.12836 0.0893,0.23338 -0.89303,0.23338 -0.98234,0 -1.3842,-0.10502 -0.89303,-0.23338 z m 52.81657,-1.51711 c 0.35083,-0.14157 0.92493,-0.14157 1.27576,0 0.35084,0.14156 0.0638,0.25739 -0.63788,0.25739 -0.70167,0 -0.98872,-0.11583 -0.63788,-0.25739 z m 3.06183,0 c 0.35083,-0.14157 0.92493,-0.14157 1.27576,0 0.35084,0.14156 0.0638,0.25739 -0.63788,0.25739 -0.70167,0 -0.98871,-0.11583 -0.63788,-0.25739 z m 3.60403,-0.0106 c 0.36838,-0.14742 0.80851,-0.12929 0.97808,0.0403 0.16957,0.16957 -0.13182,0.29018 -0.66977,0.26803 -0.59448,-0.0245 -0.7154,-0.14541 -0.30831,-0.30831 z m 2.51963,-0.0115 c 0.6315,-0.12163 1.66487,-0.12163 2.29637,0 0.63151,0.12164 0.11482,0.22115 -1.14818,0.22115 -1.26301,0 -1.77969,-0.0995 -1.14819,-0.22115 z m 6.14077,-0.0167 c 1.48291,-0.10341 3.77928,-0.10232 5.10305,0.002 1.32376,0.10473 0.11047,0.18934 -2.69621,0.18801 -2.80668,-10e-4 -3.88976,-0.087 -2.40684,-0.19043 z M 274.79721,187.7012 c 0.65918,-0.70166 1.31333,-1.27576 1.45367,-1.27576 0.14033,0 -0.28418,0.5741 -0.94337,1.27576 -0.65918,0.70167 -1.31333,1.27577 -1.45367,1.27577 -0.14033,0 0.28418,-0.5741 0.94337,-1.27577 z m 123.87655,-16.92287 c 0.35083,-0.14157 0.92493,-0.14157 1.27576,0 0.35083,0.14156 0.0638,0.25739 -0.63788,0.25739 -0.70167,0 -0.98872,-0.11583 -0.63788,-0.25739 z M 251.53918,150.44889 c 4.1e-4,-5.89403 0.0747,-8.23533 0.16507,-5.20289 0.0904,3.03243 0.09,7.85481 -7.5e-4,10.7164 -0.0908,2.86159 -0.16474,0.38051 -0.16432,-5.51351 z m 17.27336,7.90972 c 0,-1.263 0.0995,-1.77968 0.22115,-1.14818 0.12163,0.6315 0.12163,1.66487 0,2.29637 -0.12164,0.6315 -0.22115,0.11482 -0.22115,-1.14819 z m -124.52585,-5.47479 c 1.05251,-0.11009 2.77478,-0.11009 3.82729,0 1.0525,0.1101 0.19136,0.20018 -1.91364,0.20018 -2.10501,0 -2.96615,-0.0901 -1.91365,-0.20018 z m 307.15664,-3.7107 c 0,-0.70167 0.11582,-0.98871 0.25739,-0.63788 0.14156,0.35084 0.14156,0.92493 0,1.27576 -0.14157,0.35084 -0.25739,0.0638 -0.25739,-0.63788 z m -151.5136,-4.4342 c 0.49117,-0.12836 1.2949,-0.12836 1.78607,0 0.49117,0.12835 0.0893,0.23337 -0.89304,0.23337 -0.98233,0 -1.3842,-0.10502 -0.89303,-0.23337 z m 7.41653,-0.0251 c 1.48291,-0.10341 3.77929,-0.10232 5.10305,0.002 1.32376,0.10474 0.11047,0.18934 -2.69621,0.18801 -2.80668,-0.001 -3.88975,-0.087 -2.40684,-0.19043 z m 20.17982,-2.94017 c 0.002,-1.96467 0.0945,-2.70587 0.20497,-1.64711 0.11047,1.05877 0.10861,2.66623 -0.004,3.57214 -0.11273,0.90591 -0.20312,0.0396 -0.20085,-1.92503 z m -58.81225,-0.55283 c 0.0245,-0.59448 0.14541,-0.7154 0.30831,-0.30831 0.14742,0.36838 0.12929,0.80852 -0.0403,0.97809 -0.16957,0.16957 -0.29018,-0.13183 -0.26803,-0.66978 z m 182.76732,-2.76415 c 0,-0.98234 0.10501,-1.3842 0.23337,-0.89304 0.12836,0.49117 0.12836,1.2949 0,1.78607 -0.12836,0.49117 -0.23337,0.0893 -0.23337,-0.89303 z m -294.69199,-1.39844 c 1.75418,-0.0996 4.62464,-0.0996 6.37882,0 1.75417,0.0996 0.31894,0.18118 -3.18941,0.18118 -3.50835,0 -4.94358,-0.0815 -3.18941,-0.18118 z m 123.30408,-6.76644 c 0,-3.22768 0.0829,-4.5481 0.18413,-2.93426 0.10127,1.61384 0.10127,4.25467 0,5.86851 -0.10127,1.61384 -0.18413,0.29343 -0.18413,-2.93425 z m 79.79733,-6.46163 c 0.35084,-0.14156 0.92493,-0.14156 1.27577,0 0.35083,0.14157 0.0638,0.25739 -0.63789,0.25739 -0.70166,0 -0.98871,-0.11582 -0.63788,-0.25739 z m 20.15705,-7.18674 c 2.73651,-0.0917 7.21444,-0.0917 9.95095,0 2.73651,0.0918 0.49755,0.16683 -4.97547,0.16683 -5.47302,0 -7.71199,-0.0751 -4.97548,-0.16683 z m 18.37098,0.009 c 1.05251,-0.11009 2.77479,-0.11009 3.82729,0 1.05251,0.1101 0.19137,0.20018 -1.91364,0.20018 -2.10501,0 -2.96615,-0.0901 -1.91365,-0.20018 z"
         id="path283" /><path
         style="fill:#606060;fill-opacity:1"
         d="m 95.561698,396.81154 c 0.917197,-0.11357 2.295021,-0.11123 3.061831,0.005 0.766809,0.11644 0.01638,0.20936 -1.667631,0.2065 -1.684007,-0.003 -2.311396,-0.0981 -1.3942,-0.21171 z m 3.180268,-29.93083 c 0,-0.10597 0.401865,-0.50783 0.893034,-0.89303 0.80937,-0.63476 0.82742,-0.61671 0.192668,0.19266 -0.666647,0.85004 -1.085702,1.12037 -1.085702,0.70037 z M 315.01562,190.66954 c 0.36838,-0.14741 0.80852,-0.12928 0.97809,0.0403 0.16957,0.16957 -0.13183,0.29018 -0.66978,0.26802 -0.59447,-0.0245 -0.71539,-0.14541 -0.30831,-0.30831 z m -36.74196,-15.30915 c 0.36838,-0.14741 0.80851,-0.12928 0.97808,0.0403 0.16957,0.16957 -0.13182,0.29018 -0.66977,0.26802 -0.59448,-0.0245 -0.7154,-0.14541 -0.30831,-0.30831 z m 18.37098,-2.04122 c 0.36838,-0.14741 0.80852,-0.12928 0.97809,0.0403 0.16957,0.16957 -0.13183,0.29018 -0.66978,0.26802 -0.59448,-0.0245 -0.7154,-0.14541 -0.30831,-0.30831 z m 104.07034,-2.54089 c 0.35083,-0.14157 0.92493,-0.14157 1.27576,0 0.35083,0.14156 0.0638,0.25739 -0.63788,0.25739 -0.70167,0 -0.98872,-0.11583 -0.63788,-0.25739 z M 16.717446,155.95121 c 0.775696,-0.1173 1.923882,-0.11416 2.551525,0.007 0.627644,0.12113 -0.007,0.2171 -1.410355,0.21327 -1.403339,-0.004 -1.916865,-0.10294 -1.14117,-0.22023 z m 252.158894,-6.77809 c 0,-4.06968 0.0792,-5.73455 0.17611,-3.69971 0.0969,2.03484 0.0969,5.36458 0,7.39943 -0.0969,2.03484 -0.17611,0.36997 -0.17611,-3.69972 z m -116.91968,3.70672 c 1.34165,-0.10547 3.40838,-0.10419 4.59275,0.003 1.18437,0.10702 0.0867,0.19331 -2.43935,0.19176 -2.52601,-0.002 -3.49504,-0.0891 -2.1534,-0.19459 z m 218.26759,0.18306 c 0,-0.10597 0.40187,-0.50784 0.89303,-0.89304 0.80938,-0.63475 0.82743,-0.6167 0.19267,0.19267 -0.66664,0.85004 -1.0857,1.12036 -1.0857,0.70037 z m -42.73693,-6.18615 c 0.006,-1.12267 0.11016,-1.52186 0.23223,-0.88708 0.12206,0.63477 0.11742,1.55332 -0.0103,2.04122 -0.12773,0.48789 -0.2276,-0.0315 -0.22193,-1.15414 z m 124.05374,-2.80668 c 0,-2.38567 0.0879,-3.36163 0.19534,-2.16879 0.10744,1.19283 0.10744,3.14475 0,4.33759 -0.10744,1.19284 -0.19534,0.21688 -0.19534,-2.1688 z m -136.55733,0.68265 c 0.35083,-0.14157 0.92493,-0.14157 1.27576,0 0.35084,0.14156 0.0638,0.25739 -0.63788,0.25739 -0.70167,0 -0.98872,-0.11583 -0.63788,-0.25739 z m 122.5051,-3.58277 c 0.36838,-0.14741 0.80852,-0.12928 0.97809,0.0403 0.16957,0.16957 -0.13183,0.29018 -0.66978,0.26802 -0.59447,-0.0245 -0.71539,-0.14541 -0.30831,-0.30831 z m -168.65195,-3.73384 c 0,-1.82434 0.0926,-2.57066 0.20582,-1.65849 0.1132,0.91217 0.1132,2.40481 0,3.31698 -0.1132,0.91217 -0.20582,0.16585 -0.20582,-1.65849 z m 58.56203,0.21262 c 0.0245,-0.59447 0.14541,-0.71539 0.30831,-0.3083 0.14742,0.36837 0.12929,0.80851 -0.0403,0.97808 -0.16957,0.16957 -0.29018,-0.13183 -0.26803,-0.66978 z m -47.41808,-0.72293 c 0,-0.70167 0.11583,-0.98871 0.25739,-0.63788 0.14157,0.35084 0.14157,0.92493 0,1.27576 -0.14156,0.35084 -0.25739,0.0638 -0.25739,-0.63788 z m 164.23765,-10.90907 c 0,-0.10597 0.40187,-0.50783 0.89304,-0.89304 0.80937,-0.63475 0.82742,-0.6167 0.19266,0.19267 -0.66664,0.85004 -1.0857,1.12037 -1.0857,0.70037 z m -37.61636,-9.37049 c 1.62409,-0.10158 4.1501,-0.10063 5.61335,0.002 1.46326,0.10273 0.13446,0.18584 -2.95288,0.18469 -3.08735,-0.001 -4.28456,-0.0852 -2.66047,-0.18678 z"
         id="path282" /><path
         style="fill:#494949;fill-opacity:1"
         d="m 92.245288,396.82774 c 0.496511,-0.12938 1.185423,-0.12088 1.530916,0.0189 0.345493,0.13978 -0.06074,0.24564 -0.902746,0.23524 -0.842004,-0.0104 -1.12468,-0.12477 -0.62817,-0.25415 z m 8.027592,-31.47794 c 0,-0.10597 0.40187,-0.50784 0.89303,-0.89304 0.80938,-0.63475 0.82743,-0.6167 0.19267,0.19267 -0.66664,0.85004 -1.0857,1.12036 -1.0857,0.70037 z M 238.70284,201.38091 c 0.49651,-0.12939 1.18542,-0.12088 1.53091,0.0189 0.3455,0.13978 -0.0607,0.24564 -0.90274,0.23524 -0.84201,-0.0104 -1.12468,-0.12477 -0.62817,-0.25415 z m 32.66521,-26.04765 c 1.34164,-0.10547 3.40837,-0.10419 4.59274,0.003 1.18437,0.10702 0.0867,0.19332 -2.43935,0.19176 -2.52601,-0.002 -3.49504,-0.0891 -2.15339,-0.19459 z m -27.28483,-13.2408 c 0.36838,-0.14741 0.80852,-0.12928 0.97809,0.0403 0.16957,0.16957 -0.13183,0.29018 -0.66978,0.26802 -0.59448,-0.0245 -0.7154,-0.14541 -0.30831,-0.30831 z M 20.79287,155.96563 c 0.491168,-0.12836 1.294899,-0.12836 1.786068,0 0.491168,0.12835 0.0893,0.23337 -0.893034,0.23337 -0.982338,0 -1.384203,-0.10502 -0.893034,-0.23337 z m 139.04674,-3.07837 c 0.90591,-0.11273 2.51337,-0.11458 3.57214,-0.004 1.05876,0.11047 0.31756,0.20271 -1.64711,0.20497 -1.96468,0.002 -2.83094,-0.0881 -1.92503,-0.20085 z m 7.41192,-2.94868 c 0.006,-1.12267 0.11017,-1.52186 0.23223,-0.88708 0.12206,0.63477 0.11743,1.55332 -0.0103,2.04122 -0.12772,0.48789 -0.22759,-0.0315 -0.22193,-1.15414 z m 71.35431,-2.08374 c 0.0245,-0.59448 0.1454,-0.7154 0.30831,-0.30831 0.14741,0.36837 0.12928,0.80851 -0.0403,0.97808 -0.16957,0.16957 -0.29018,-0.13183 -0.26802,-0.66977 z m -16.32977,-0.51031 c 0.0245,-0.59448 0.14541,-0.7154 0.30831,-0.30831 0.14742,0.36838 0.12929,0.80852 -0.0403,0.97809 -0.16957,0.16957 -0.29018,-0.13183 -0.26803,-0.66978 z M 352.256,145.73295 c 1.76517,-0.0999 4.52082,-0.0991 6.12366,0.002 1.60284,0.10094 0.15861,0.18271 -3.20941,0.1817 -3.36801,-0.001 -4.67943,-0.0836 -2.91425,-0.18353 z m -83.54217,-12.16666 c 0.0245,-0.59447 0.14541,-0.71539 0.30831,-0.30831 0.14742,0.36838 0.12929,0.80852 -0.0403,0.97809 -0.16957,0.16957 -0.29018,-0.13183 -0.26803,-0.66978 z m 109.81259,-1.58687 c 0.49651,-0.12938 1.18542,-0.12088 1.53092,0.0189 0.34549,0.13978 -0.0607,0.24564 -0.90275,0.23524 -0.842,-0.0104 -1.12468,-0.12477 -0.62817,-0.25415 z m 64.16115,-4.49426 c 0.65918,-0.70167 1.31333,-1.27576 1.45367,-1.27576 0.14033,0 -0.28418,0.57409 -0.94337,1.27576 -0.65918,0.70167 -1.31333,1.27576 -1.45367,1.27576 -0.14033,0 0.28418,-0.57409 0.94337,-1.27576 z m -26.91158,-10.82744 c 0.7757,-0.1173 1.92388,-0.11416 2.55153,0.007 0.62764,0.12112 -0.007,0.21709 -1.41036,0.21326 -1.40334,-0.004 -1.91686,-0.10293 -1.14117,-0.22023 z"
         id="path281" /><path
         style="fill:#333333;fill-opacity:1"
         d="m 50.745433,413.78181 c -0.716991,-0.38999 -1.732771,-1.50596 -2.25729,-2.47993 -1.390292,-2.58162 -0.644294,-4.73949 2.301873,-6.65838 3.144145,-2.04784 15.481461,-11.24564 18.706243,-13.94601 3.304443,-2.76708 5.549893,-3.72221 8.750634,-3.72221 h 2.501435 l 5.794134,-6.50639 c 3.186774,-3.57852 8.312874,-9.09702 11.391335,-12.26335 5.302253,-5.45358 5.599363,-5.8718 5.638163,-7.93643 0.0475,-2.52787 -0.63984,-1.53893 10.73431,-15.44405 4.77135,-5.83306 8.86806,-10.92281 9.1038,-11.31054 0.27068,-0.44518 0.11662,-1.04971 -0.41806,-1.64053 -0.80761,-0.8924 -1.13269,-0.63758 -7.04515,5.52247 -15.949926,16.61784 -18.960476,19.47091 -20.543541,19.46891 -3.350539,-0.004 -6.61145,-3.72732 -5.54582,-6.33184 0.255439,-0.62432 7.269361,-7.83639 15.586491,-16.02683 13.43251,-13.22787 15.30351,-14.89169 16.74604,-14.89169 2.10849,0 3.36435,0.67304 6.06249,3.24901 l 2.20923,2.10919 2.32823,-2.55152 c 9.27306,-10.16241 57.50857,-68.45044 57.16542,-69.07898 -1.87228,-3.42938 -2.33499,-5.07235 -1.93189,-6.85965 0.49541,-2.19656 0.15541,-1.6789 6.99261,-10.64678 2.85159,-3.74023 5.6241,-7.06409 6.16113,-7.38635 0.53704,-0.32226 2.79666,-1.0942 5.0214,-1.71542 5.4334,-1.51717 5.83104,-1.76807 5.83104,-3.67921 0,-7.7112 8.19797,-17.67258 16.70702,-20.30076 2.98753,-0.92275 5.27754,-1.10112 17.70445,-1.37904 l 14.27309,-0.3192 5.12736,-4.63635 c 2.82006,-2.55 6.50541,-6.01418 8.18967,-7.69819 l 3.0623,-3.06183 -6.63397,-0.12462 c -8.20179,-0.15408 -8.72216,-0.27487 -9.96487,-2.31302 -0.80564,-1.32133 -1.00324,-2.57309 -1.00478,-6.36512 l -0.002,-4.72032 -41.46229,-0.003 c -27.61631,-0.002 -42.11239,-0.18337 -43.40906,-0.54344 -2.52085,-0.7 -5.73635,-3.93716 -6.52479,-6.56873 l -0.62032,-2.07047 H 107.11551 46.759628 l -0.333208,1.04984 c -0.183263,0.57742 -0.902599,1.26633 -1.598524,1.53092 -0.703317,0.2674 -9.066601,0.48107 -18.829569,0.48107 H 8.4340741 L 6.7675319,164.52493 5.1009896,163.03682 4.9460139,151.79601 c -0.1781362,-12.9207 0.1388227,-14.919 2.6048608,-16.42264 1.5323203,-0.93431 2.6758843,-0.99554 18.6255403,-0.99734 17.745782,-0.002 19.378064,0.18206 20.181428,2.2756 0.268403,0.69944 6.824798,0.78433 60.580767,0.78433 h 60.27978 l 0.2836,-1.08449 c 0.6493,-2.48292 2.64289,-5.39083 4.67921,-6.82524 l 2.17332,-1.53092 42.56677,-0.13893 42.56677,-0.13894 v -5.31839 c 0,-4.88407 0.10041,-5.43512 1.22967,-6.74796 1.04227,-1.21171 1.72275,-1.4688 4.46516,-1.68695 l 3.2355,-0.25737 0.27076,-4.52097 c 0.25777,-4.30413 0.34995,-4.59173 1.9217,-5.99608 1.64815,-1.47263 1.66257,-1.47512 8.55734,-1.47512 9.96424,0 11.10306,0.86288 11.78493,8.92932 l 0.32361,3.82831 h 30.33946 30.33945 l 4.92429,-2.74032 c 2.70836,-1.50717 7.1887,-3.91836 9.95632,-5.3582 l 5.03204,-2.61789 h 22.9135 22.91351 l 1.78611,-2.79213 c 0.98236,-1.535679 2.22741,-3.028321 2.76679,-3.316986 0.59571,-0.318816 5.91168,-0.524845 13.54204,-0.524845 9.97955,0 12.85569,0.152203 13.99337,0.740518 1.45469,0.75225 2.00709,1.804107 4.92163,9.371563 0.88114,2.28785 2.0094,4.21421 2.91411,4.97547 1.47491,1.24105 1.4878,1.24221 13.81203,1.243 14.08785,9.1e-4 15.39582,0.28372 16.51696,3.57135 0.83218,2.44028 0.92899,61.12319 0.10382,62.93423 -0.30957,0.67944 -1.43161,1.72361 -2.49343,2.32038 -1.84352,1.03612 -2.58762,1.08504 -16.5039,1.08504 H 454.4815 l -1.41185,-1.21442 c -1.10889,-0.95383 -1.47088,-1.79379 -1.68695,-3.91447 -0.1513,-1.48503 -0.55494,-2.79238 -0.89696,-2.90521 -0.34436,-0.1136 -2.08423,2.05559 -3.89886,4.86092 -2.18799,3.38253 -3.67717,5.1732 -4.48119,5.38842 -0.6623,0.17729 -6.72566,0.32549 -13.47411,0.32932 l -12.26992,0.007 -2.27378,4.67628 c -1.25057,2.57195 -2.98979,5.44242 -3.86494,6.37881 l -1.59117,1.70253 h -23.25298 c -13.8707,0 -23.78104,-0.20077 -24.56173,-0.49758 -2.42108,-0.9205 -3.3464,-3.28601 -3.34853,-8.56033 l -0.002,-4.72032 h -4.03203 -4.03203 l -1.05108,1.78144 c -0.57809,0.97979 -1.80637,2.24194 -2.72951,2.80477 -1.57109,0.95789 -2.62482,1.02731 -16.47728,1.08561 -8.13936,0.0343 -15.48107,0.20844 -16.31491,0.38708 -1.31609,0.28195 -2.67306,2.10783 -10.28715,13.84187 -4.8241,7.43439 -8.66365,13.69091 -8.53234,13.90337 0.13131,0.21246 0.85669,0.38715 1.61196,0.3882 2.09321,0.003 4.52701,1.76009 5.74523,4.14799 0.99224,1.94495 1.0631,2.63641 0.74724,7.29186 l -0.34894,5.14316 2.73376,2.35691 c 1.50357,1.2963 3.30071,3.18924 3.99366,4.20653 0.69295,1.01729 1.65934,1.85119 2.14753,1.85311 0.4882,0.002 2.09566,1.09702 3.57214,2.43357 1.47648,1.33655 5.66979,4.48344 9.31847,6.99309 3.64868,2.50965 9.50443,6.62098 13.01278,9.13629 3.50834,2.5153 9.01964,6.4431 12.24732,8.72843 6.29749,4.45889 44.7343,31.87502 88.52457,63.14261 14.86804,10.61624 27.31773,19.81508 27.66596,20.44186 0.9705,1.74677 0.79276,3.56212 -0.60644,6.19364 -0.70167,1.31966 -1.2649,2.67427 -1.25162,3.01026 0.0133,0.33598 1.21888,1.57355 2.67911,2.75015 1.46022,1.1766 7.36252,6.27572 13.11621,11.33137 l 10.46125,9.1921 3.4699,0.0229 c 5.42044,0.0358 5.66786,0.27004 10.98772,10.40258 4.85274,9.24282 5.37225,11.01412 4.06916,13.87408 -1.2832,2.81634 -1.01081,2.79242 -31.80292,2.79242 -19.89754,0 -28.71399,-0.17039 -29.49546,-0.57003 -3.04568,-1.55758 -3.70943,-4.8834 -1.68211,-8.4285 1.56486,-2.73642 9.08803,-12.92587 10.46082,-14.16822 l 1.06046,-0.9597 -2.20731,-1.94295 c -5.85181,-5.15097 -7.92705,-6.59012 -9.50288,-6.59012 -2.88726,0 -3.51473,-0.44607 -26.54493,-18.87065 -6.87637,-5.50121 -17.09522,-13.53683 -22.70858,-17.85692 -5.61335,-4.32009 -13.42102,-10.40566 -17.35037,-13.52349 -3.92935,-3.11783 -11.27774,-8.86864 -16.32976,-12.77957 -5.05202,-3.91094 -15.50052,-12.03482 -23.21888,-18.05307 -7.71837,-6.01825 -15.52603,-12.09449 -17.35037,-13.50275 -24.13736,-18.63234 -24.49465,-18.9534 -24.49465,-22.01087 0,-1.14598 -0.12951,-1.24975 -0.98706,-0.7908 -1.51976,0.81335 -3.69904,0.63081 -5.90678,-0.49476 -1.70155,-0.8675 -2.27214,-0.93537 -3.75347,-0.44649 -2.11421,0.69775 -6.55711,0.31001 -8.55928,-0.74698 -0.80342,-0.42414 -3.64231,-2.6511 -6.30866,-4.94878 -4.86304,-4.19066 -6.1479,-4.97672 -9.97018,-6.09954 -4.78027,-1.40424 -8.82674,-5.76723 -10.69421,-11.53072 l -1.05058,-3.24234 -3.3131,1.72855 c -3.81108,1.98836 -6.47222,3.06194 -9.53642,3.84725 -1.18806,0.30449 -2.37431,0.95384 -2.6361,1.443 -0.26179,0.48917 -0.73051,2.71938 -1.0416,4.95604 -0.45984,3.30611 -0.85107,4.40108 -2.09193,5.85483 -0.83947,0.98349 -3.9243,4.92466 -6.85518,8.75815 -5.80288,7.58997 -7.03569,8.47439 -11.06018,7.93459 l -1.99694,-0.26784 -6.51603,7.99078 c -6.25367,7.66904 -15.58456,19.22705 -30.96348,38.35394 -38.19469,47.50302 -47.64557,59.00175 -49.00188,59.61972 -0.71977,0.32795 -1.94785,0.59627 -2.72907,0.59627 -1.11006,0 -1.80063,0.52961 -3.16066,2.42395 -0.95715,1.33318 -3.43172,4.4565 -5.49904,6.94072 l -3.75877,4.51677 7.45375,7.51369 c 8.07589,8.14084 8.30273,8.55559 6.61948,12.10279 -1.59899,3.36962 -0.1616,3.24619 -37.540845,3.22362 -27.883592,-0.0168 -34.06229,-0.14512 -35.136672,-0.72951 z M 106.3818,402.00113 c -5.58083,-5.6533 -4.67982,-5.40451 -18.114382,-5.00182 l -11.598433,0.34766 -4.400237,3.29126 c -2.420131,1.81019 -4.687284,3.40496 -5.038119,3.54393 -2.375603,0.94103 1.630896,1.1641 20.907765,1.1641 h 21.545646 z m 390.12989,2.85595 c 0.16628,-0.26904 -0.51366,-2.1095 -1.51097,-4.0899 l -1.8133,-3.60074 -15.40275,0.13505 -15.40275,0.13504 -2.69285,3.31698 c -1.48107,1.82434 -2.69738,3.60403 -2.70291,3.95487 -0.0126,0.79729 39.03389,0.94419 39.52553,0.1487 z M 102.38446,385.57194 c 0.94602,-1.05251 3.75594,-4.51316 6.24426,-7.69033 l 4.52423,-5.77669 -1.43246,-1.49516 c -1.73823,-1.81433 -2.40466,-1.86448 -3.62289,-0.27263 -1.68438,2.20096 -10.509808,12.25446 -12.543682,14.28916 -2.371337,2.3723 -2.004683,2.83995 2.235634,2.85148 2.680298,0.007 2.991288,-0.12171 4.594908,-1.90583 z m 371.36662,1.05942 c -1.10954,-1.35329 -16.32748,-14.96524 -16.73089,-14.96524 -0.19989,0 -1.03326,0.69914 -1.85192,1.55365 l -1.48849,1.55364 4.58242,4.18623 c 2.52033,2.30243 5.61578,5.15734 6.87879,6.34426 2.23583,2.10113 2.38884,2.15833 5.80342,2.16985 3.21874,0.0109 3.44946,-0.0584 2.80667,-0.84239 z M 453.01984,361.0461 c 1.71276,-2.15523 1.73642,-2.11915 -4.16494,-6.35344 -2.4097,-1.72899 -11.95929,-8.64909 -21.22133,-15.378 -9.26204,-6.72891 -28.43675,-20.53452 -42.61047,-30.67915 -14.17373,-10.14462 -30.70761,-21.99398 -36.74197,-26.3319 -6.03435,-4.33792 -16.13839,-11.52894 -22.45342,-15.98004 -6.31502,-4.4511 -11.75461,-8.30555 -12.08796,-8.56545 -0.42004,-0.32748 -0.85971,0.0179 -1.43221,1.12496 -0.45436,0.87863 -1.6443,2.50315 -2.6443,3.61004 -1.47039,1.62754 -1.70146,2.15319 -1.20792,2.74787 0.33565,0.40444 4.32435,3.55104 8.86376,6.99244 16.24486,12.3155 64.41043,49.73593 77.39981,60.13288 5.47302,4.38071 13.51033,10.74592 17.86068,14.14491 4.35035,3.39899 13.18285,10.3201 19.62777,15.38025 l 11.71804,9.20027 3.84278,-4.13639 c 2.11353,-2.27501 4.47679,-4.93417 5.25168,-5.90925 z m -321.78279,-6.22004 c 10.22011,-12.39303 45.86857,-56.78155 61.26905,-76.29061 l 10.87656,-13.77823 -2.43803,-2.18144 c -1.34091,-1.1998 -2.69257,-2.11835 -3.00368,-2.04122 -0.31111,0.0771 -4.77737,5.19224 -9.92503,11.36693 -5.14766,6.17469 -17.64108,20.98629 -27.76316,32.91467 -39.01283,45.97475 -46.00619,54.45789 -45.39667,55.06741 1.84665,1.84666 6.73102,5.60226 7.17418,5.51626 0.31886,-0.0619 4.46191,-4.82008 9.20678,-10.57377 z m 87.42881,-100.05332 c 2.29003,-2.82512 4.0468,-5.4412 3.90393,-5.81351 -0.35048,-0.91333 -14.61253,-12.01364 -15.43554,-12.01364 -1.04075,0 -8.4522,10.15573 -7.9973,10.95851 0.48731,0.85996 14.35604,12.00522 14.93884,12.00522 0.23451,0 2.30004,-2.31146 4.59007,-5.13658 z m 65.33479,-5.09317 c 0.77383,-2.092 3.11463,-7.82229 5.2018,-12.73398 l 3.79484,-8.93034 -8.1515,-0.14056 c -4.48332,-0.0773 -8.22588,-0.0662 -8.3168,0.0247 -0.0909,0.0909 0.38214,1.532 1.05124,3.2024 0.6691,1.67039 1.37135,4.09635 1.56057,5.39102 0.43715,2.99099 -0.84569,8.20472 -2.57739,10.47509 l -1.26616,1.66003 3.18931,2.58059 c 1.75412,1.41932 3.39582,2.51175 3.64822,2.42761 0.25241,-0.0841 1.09205,-1.86461 1.86587,-3.9566 z m -15.87445,-8.4652 c 0.74859,-0.95168 1.05765,-2.08761 1.05765,-3.88733 0,-2.27328 -0.20995,-2.75269 -1.98118,-4.52392 -1.08965,-1.08966 -2.26486,-1.98119 -2.61156,-1.98119 -0.34671,0 -1.52191,0.89153 -2.61157,1.98119 -1.67505,1.67506 -1.98118,2.31374 -1.98118,4.13347 0,1.76729 0.31036,2.46264 1.73504,3.88732 2.24959,2.24959 4.80752,2.40582 6.3928,0.39046 z m -32.31576,-9.15728 c 2.84411,-1.49759 6.06737,-4.40718 7.13476,-6.44044 0.8546,-1.62792 0.94595,-5.36597 0.18063,-7.39155 -0.67956,-1.79859 -2.8235,-4.09369 -4.77638,-5.11313 -3.49208,-1.82294 -10.06504,-0.15753 -13.12268,3.32492 -3.99906,4.55468 -4.4935,9.48079 -1.39825,13.93071 2.2204,3.19219 7.66905,3.96046 11.98192,1.68949 z m 54.45583,-25.76711 c 4.52202,-6.41495 5.3752,-7.90198 4.6084,-8.03211 -3.23164,-0.54841 -6.547,-1.87518 -8.59822,-3.44091 l -2.36493,-1.80519 -5.45019,5.08424 c -2.9976,2.79633 -6.46832,6.13103 -7.71271,7.41045 l -2.26252,2.32622 2.26252,0.99462 c 8.8346,3.88374 13.04657,5.59519 13.47357,5.47469 0.27206,-0.0768 2.99189,-3.68218 6.04408,-8.01201 z m 102.8156,-21.01277 0.14904,-3.95487 h -13.03425 -13.03424 v 3.74224 c 0,2.05823 0.15701,3.89925 0.34891,4.09115 0.19191,0.1919 5.99025,0.28758 12.88521,0.21263 l 12.53629,-0.13629 z m -92.74489,2.03948 c 6.3189,-4.25831 3.84117,-13.91755 -3.54148,-13.80618 -6.11256,0.0922 -9.64387,6.00744 -6.77729,11.3525 1.86657,3.48041 6.98807,4.69824 10.31877,2.45368 z m 143.13909,-19.38986 c 8.91011,-13.38041 8.39699,-11.91941 8.39699,-23.90858 0,-5.58485 -0.20067,-10.15428 -0.44592,-10.15428 -0.24526,0 -1.86306,1.26449 -3.59512,2.80997 -1.73206,1.54549 -3.69364,3.16671 -4.35909,3.60273 -1.06153,0.69554 -4.90899,0.78724 -31.377,0.74778 l -30.16711,-0.045 -6.80973,7.03107 -6.80972,7.03107 -8.70987,0.25515 -8.70986,0.25516 -7.69468,7.10943 c -4.23208,3.91018 -7.61285,7.35474 -7.51284,7.65457 0.12617,0.37827 10.94713,0.57706 35.35017,0.64941 19.34259,0.0573 35.62765,0.2285 36.18902,0.38035 0.56136,0.15185 2.14646,1.31053 3.52243,2.57484 l 2.50177,2.29875 h 12.35427 12.35428 z m -162.61627,5.61336 c 2.09841,-4.33187 6.50785,-7.91089 11.50625,-9.33929 7.29213,-2.08389 14.99159,1.09716 18.74258,7.74354 l 1.54858,2.74394 h 5.77368 5.77369 l 0.59285,-3.44456 c 0.32607,-1.89451 0.8635,-4.05556 1.19429,-4.80233 0.3308,-0.74677 5.2578,-5.62656 10.94891,-10.84398 l 10.34745,-9.48622 6.49261,-0.0378 c 10.62555,-0.0619 9.93353,0.22988 16.24898,-6.85129 3.00382,-3.36802 5.82648,-6.3533 6.27259,-6.63397 0.5101,-0.32092 12.21189,-0.5684 31.53166,-0.66686 l 30.72056,-0.15655 6.1585,-5.96711 c 3.38717,-3.28191 6.15421,-6.21026 6.14898,-6.50745 -0.005,-0.29719 -0.29656,-0.92115 -0.64739,-1.38658 -0.58009,-0.76956 -4.15191,-0.87805 -39.42107,-1.19743 l -38.78318,-0.3512 -2.47458,2.89904 c -1.36102,1.59447 -3.12931,3.23761 -3.92952,3.65142 -1.24255,0.64255 -6.82232,0.75238 -38.22225,0.75238 h -36.76731 v 3.57214 3.57213 h 16.091 c 17.09773,0 18.89346,0.2211 20.09959,2.47478 0.33346,0.62308 0.55138,4.48768 0.55138,9.77825 v 8.74799 l -1.44796,1.44795 c -1.99705,1.99706 -3.4741,2.13168 -21.37731,1.94842 l -15.42585,-0.1579 -1.22532,-1.27576 c -0.67393,-0.70167 -2.63074,-4.00693 -4.34847,-7.34503 l -3.12316,-6.06927 v -8.34685 -8.34685 h -5.53424 -5.53424 l -0.33427,6.9698 c -0.43745,9.12144 -0.43279,44.30239 0.006,44.74111 0.18711,0.18711 2.69264,0.34021 5.56783,0.34021 h 5.22763 z m 194.76564,-3.67652 1.25257,-1.25256 v -20.65352 -20.65351 l -1.34459,-1.05765 c -2.291,-1.8021 -10.74392,-0.99197 -13.17695,1.26289 l -1.29792,1.20287 v 19.3875 19.3875 l 1.15626,1.34423 c 1.38723,1.61275 3.46564,2.16286 8.43515,2.23259 3.30971,0.0464 3.86193,-0.0868 4.97548,-1.20034 z m -226.72621,-7.92595 2.93425,-0.007 v -11.99217 -11.99217 h -36.99712 -36.99711 v 11.98845 11.98845 l 33.04225,0.14363 c 18.17324,0.079 33.50153,0.0838 34.06286,0.0107 0.56134,-0.0731 2.34103,-0.13608 3.95487,-0.13991 z m -61.87968,-6.76851 c -2.89767,-1.97214 -3.8221,-3.66922 -3.8221,-7.0167 0,-2.2314 0.27004,-3.35144 1.06753,-4.42774 3.75545,-5.06843 10.85746,-4.99512 13.88026,0.14327 3.15413,5.36164 -0.85281,12.44935 -7.03806,12.44935 -1.64944,0 -2.92847,-0.35927 -4.08763,-1.14818 z m 20.67368,0.34425 c -2.34328,-1.22182 -3.2055,-2.18404 -4.13277,-4.61206 -3.66683,-9.60145 9.96526,-15.90223 14.62858,-6.76136 3.50692,6.87413 -3.84529,14.8411 -10.49581,11.37342 z m 20.15617,0.25791 c -1.66491,-0.6995 -3.48958,-2.42542 -4.38634,-4.14896 -1.01397,-1.94882 -0.89981,-5.95157 0.22982,-8.05788 1.33236,-2.48434 4.75546,-4.23999 7.65912,-3.92824 7.58866,0.81476 9.87903,10.6164 3.57213,15.28696 -1.57943,1.16964 -5.25941,1.6108 -7.07473,0.84812 z m -195.861654,0.0378 4.433335,-0.002 0.159411,-5.6144 0.159411,-5.61439 -11.099135,10e-4 -11.099135,0.001 v 5.94726 5.94726 l 6.506389,-0.33184 c 3.578515,-0.18251 8.50139,-0.33276 10.939724,-0.3339 z m 133.755974,-2.88506 1.93786,-0.32024 -0.15179,-2.6084 -0.1518,-2.6084 -60.34357,-0.12967 -60.343569,-0.12967 v 3.06392 3.06392 l 58.557509,-0.006 c 32.20662,-0.003 59.42954,-0.14972 60.49536,-0.32585 z m 151.62222,-8.14317 c 0.54478,-0.20905 0.8072,-0.95558 0.8072,-2.29637 v -1.98662 H 304.9052 c -14.59272,0 -14.14325,-0.1111 -12.48936,3.08717 l 0.77856,1.50557 h 11.68217 c 6.4252,0 12.04542,-0.13938 12.48937,-0.30975 z"
         id="path280" /></g><path
       style="fill:#ffffff;stroke:none;stroke-width:3.92547"
       d="m 11.185491,162.08409 v -5.90932 h 11.025398 11.025399 l -0.175101,5.25963 c -0.0963,2.89279 -0.278504,5.36302 -0.404887,5.4894 -0.126382,0.12639 -4.644026,0.27104 -10.039209,0.32147 -5.395183,0.0504 -9.90071,0.23938 -10.012282,0.4199 -0.111572,0.18053 -0.476562,0.32823 -0.811088,0.32823 -0.500615,0 -0.60823,-1.04555 -0.60823,-5.90931 z"
       id="path288" /><path
       style="fill:#ffffff;stroke:none;stroke-width:1.96274"
       d="m 43.581204,163.78492 c 0,-0.57353 0.07962,-1.09199 0.176928,-1.15213 0.239164,-0.14781 0.249908,-2.63133 0.01202,-2.77835 -0.103922,-0.0642 -0.188949,-0.36431 -0.188949,-0.66685 v -0.55008 l 28.209771,0.14044 c 15.515375,0.0772 42.917966,0.14043 60.894636,0.14043 h 32.68487 l -0.14114,1.86965 c -0.0984,1.30347 -0.0687,1.91438 0.0979,2.0174 0.1315,0.0813 0.23908,0.41951 0.23908,0.75165 0,0.58681 -0.0373,0.6074 -1.31904,0.72817 -1.34301,0.12654 -5.36066,0.17379 -8.60016,0.10115 -0.98665,-0.0221 -2.55367,-0.0354 -3.48228,-0.0295 -3.14389,0.02 -6.53586,0.0265 -8.01979,0.0153 -0.81253,-0.006 -2.28458,-0.003 -3.27122,0.006 -2.24097,0.0214 -3.89941,0.0215 -6.85903,6.7e-4 -1.27683,-0.009 -3.12877,-0.0103 -4.11542,-0.003 -2.07226,0.0157 -8.74789,-0.005 -12.1352,-0.0383 -1.27683,-0.0124 -3.63399,0.0603 -5.23811,0.16157 -2.03301,0.12834 -4.01507,0.10112 -6.54246,-0.0898 -2.47952,-0.18734 -4.49327,-0.21738 -6.369471,-0.095 -2.155185,0.14055 -2.539925,0.20797 -1.7939,0.31435 0.522342,0.0745 -11.467765,0.14969 -26.644682,0.16712 l -27.594394,0.0317 z"
       id="path289" /><path
       style="fill:#ffffff;stroke:none;stroke-width:1.96274"
       d="m 187.46249,173.53522 -11.34378,-0.0583 v -12.06045 -12.06044 l 2.79638,0.1829 c 3.53418,0.23115 8.67737,0.2302 12.55729,-0.002 2.23544,-0.13397 3.00742,-0.11774 3.00742,0.0632 0,0.14786 0.37294,0.24347 0.94971,0.24347 0.52235,0 0.94972,-0.095 0.94972,-0.21104 0,-0.1396 9.16398,-0.21105 27.06987,-0.21105 h 27.06987 l -0.003,12.00869 -0.003,12.0087 -3.37675,0.0964 c -3.52491,0.10063 -40.09049,0.10073 -59.67354,1.6e-4 z m 5.33259,-6.30864 c 1.71076,-0.80217 3.1781,-2.26755 4.05578,-4.05039 0.5551,-1.12755 0.68192,-1.66439 0.75518,-3.19654 0.11204,-2.34357 -0.28114,-3.75599 -1.51045,-5.42589 -1.07217,-1.45644 -2.47691,-2.42159 -4.25388,-2.9227 -0.69645,-0.19641 -1.3565,-0.44156 -1.46677,-0.54478 -0.2609,-0.24422 -0.87061,-0.23932 -1.33246,0.0107 -0.20156,0.10912 -1.04532,0.39383 -1.87503,0.63268 -2.45289,0.70612 -4.82876,2.78864 -5.52854,4.84592 -0.30138,0.88602 -0.319,4.91349 -0.0261,5.968 0.34719,1.25004 1.47804,2.73433 2.90109,3.80782 1.73638,1.30986 2.84792,1.65247 5.11548,1.57673 1.48352,-0.0495 2.03657,-0.17212 3.16571,-0.70157 z m 19.87173,0.0955 c 2.16805,-1.00845 3.94586,-3.05043 4.70766,-5.40717 0.26124,-0.8082 0.34131,-1.6302 0.28833,-2.95999 -0.0625,-1.56826 -0.17609,-2.04962 -0.76673,-3.24862 -0.84121,-1.70766 -2.1488,-3.09817 -3.66352,-3.89586 -1.04172,-0.54858 -1.31266,-0.59524 -3.45628,-0.59524 -2.19218,0 -2.40517,0.039 -3.70342,0.67812 -3.45234,1.69958 -5.40341,5.40314 -4.66364,8.85259 0.76456,3.56501 2.60067,5.77505 5.73839,6.90705 1.45662,0.52551 4.00677,0.37263 5.51921,-0.33088 z m 19.87093,-0.0709 c 2.027,-0.72401 4.39312,-3.79174 4.7105,-6.10727 0.0705,-0.51412 0.25843,-0.98478 0.41768,-1.04589 0.36953,-0.1418 0.3715,-0.75512 0.004,-1.29092 -0.15698,-0.22896 -0.35004,-0.83239 -0.42902,-1.34095 -0.21567,-1.38861 -1.09744,-3.06987 -2.17541,-4.14785 -3.1596,-3.1596 -8.33179,-3.12687 -11.57777,0.0733 -1.1616,1.14518 -1.47804,1.72647 -1.8816,3.45638 -0.17029,0.72995 -0.40771,1.35989 -0.52761,1.39985 -0.25446,0.0848 -0.29987,1.51482 -0.0481,1.51482 0.0934,0 0.28669,0.69511 0.42944,1.54468 0.27474,1.63506 0.77809,2.58825 2.12009,4.01478 0.89996,0.95664 2.36746,2.01091 3.15642,2.26762 0.89281,0.29049 4.65479,0.071 5.80122,-0.33851 z"
       id="path290" /><path
       style="fill:#ffffff;stroke:none;stroke-width:1.96274"
       d="m 275.61112,187.17239 c -0.10253,-0.16591 -1.23371,-0.21354 -3.75854,-0.15828 l -3.61185,0.0791 -0.0171,-4.0099 c -0.009,-2.20544 -0.0914,-4.42175 -0.18219,-4.92514 -0.10847,-0.60136 -0.0845,-0.99582 0.0699,-1.1502 0.31113,-0.31113 0.30009,-1.26727 -0.0183,-1.58566 -0.19697,-0.19698 -0.19697,-0.30954 0,-0.50651 0.31696,-0.31696 0.33331,-1.78283 0.022,-1.97521 -0.14276,-0.0882 -0.17833,-0.43617 -0.093,-0.90941 0.31885,-1.76783 0.35874,-3.05123 0.10931,-3.51728 -0.18021,-0.33674 -0.21012,-0.94397 -0.1,-2.03051 0.20253,-1.99831 0.20327,-9.53912 0.001,-11.52209 -0.10971,-1.07624 -0.0863,-1.53009 0.0789,-1.53009 0.30234,0 0.2989,-0.5316 -0.009,-1.38299 -0.15016,-0.41526 -0.17271,-0.8264 -0.0587,-1.07022 0.10182,-0.21776 0.19426,-2.86517 0.20542,-5.88314 0.0112,-3.01798 0.0964,-6.50817 0.18943,-7.75598 l 0.16914,-2.26876 h 5.40925 5.40925 v 6.22583 c 0,3.42421 -0.0712,6.22586 -0.15829,6.22589 -0.0871,3e-5 -0.15828,0.37994 -0.15828,0.84424 0,0.46431 0.095,0.84419 0.21104,0.84419 0.11784,0 0.21105,0.5737 0.21105,1.29899 0,1.23528 0.10941,1.51212 2.23125,5.6455 2.69074,5.24162 4.49022,8.30364 5.65747,9.62679 l 0.86973,0.9859 16.46167,0.0326 c 19.5926,0.0388 18.86573,0.11508 21.35626,-2.24035 l 1.12024,-1.05948 v -1.8266 c 0,-1.0501 0.099,-1.92556 0.2328,-2.05939 0.22946,-0.22947 0.17009,-1.50608 -0.13865,-2.98174 -0.089,-0.42538 -0.047,-0.89012 0.10635,-1.17664 0.26266,-0.4908 0.20227,-3.57991 -0.0963,-4.92655 -0.10453,-0.47144 -0.0744,-0.68591 0.0963,-0.68591 0.15309,0 0.22301,-0.26315 0.18224,-0.6859 -0.0364,-0.37725 -0.17106,-0.66675 -0.29931,-0.64335 -0.1475,0.0269 -0.2799,-0.61942 -0.36032,-1.75896 -0.15513,-2.19821 -0.54642,-2.9666 -1.83708,-3.60753 -1.75343,-0.87074 -3.17267,-0.94758 -19.46555,-1.05387 l -15.56471,-0.10153 v -1.23263 c 0,-0.67794 0.095,-1.29131 0.21105,-1.36305 0.27498,-0.16995 0.27498,-2.57366 0,-2.74361 -0.26767,-0.16543 -0.27883,-1.58286 -0.0125,-1.58286 0.10923,0 0.25729,0.095 0.32903,0.21105 0.17108,0.27682 1.3718,0.27409 1.3718,-0.003 0,-0.14401 6.65381,-0.18382 20.31328,-0.12153 11.1723,0.051 20.66941,0.10176 21.10469,0.11291 0.90929,0.0233 1.64494,0.0269 3.06019,0.0151 0.55136,-0.005 4.65886,-0.0101 9.12778,-0.0122 4.87671,-0.002 7.91436,-0.0773 7.59769,-0.18749 -0.36023,-0.12537 0.25908,-0.1903 1.95218,-0.20467 1.85515,-0.0157 2.46652,0.0442 2.42704,0.23777 -0.064,0.31386 0.73712,0.46021 1.48779,0.27181 0.43187,-0.1084 0.48319,-0.17846 0.24235,-0.33083 -0.23791,-0.15051 -0.20042,-0.19403 0.16929,-0.19655 0.26855,-0.002 0.45193,0.11138 0.42209,0.26058 -0.0333,0.16632 0.25009,0.28863 0.76678,0.33098 0.66506,0.0545 0.79616,0.006 0.6955,-0.25604 -0.13848,-0.3609 0.24189,-0.45173 2.67081,-0.63779 0.91371,-0.07 1.69337,-0.26568 2.12751,-0.53399 0.73566,-0.45467 3.93352,-3.69539 5.26946,-5.3401 0.63663,-0.78377 0.94957,-1.00247 1.43445,-1.00247 0.3597,0 0.56539,0.0886 0.48974,0.21105 -0.0804,0.13007 0.2792,0.21104 0.93725,0.21104 0.58723,0 1.06769,-0.095 1.06769,-0.21104 0,-0.12507 0.77384,-0.21105 1.89943,-0.21105 1.04468,0 1.89942,0.0786 1.89942,0.17463 0,0.096 11.13537,0.18854 24.74526,0.20555 24.76828,0.0309 43.19707,0.29898 45.7115,0.66484 1.33035,0.19357 1.75555,0.47145 2.04975,1.33959 0.17596,0.51925 -0.16656,0.95691 -2.79855,3.5759 -1.25315,1.24696 -3.89296,3.88402 -5.86625,5.86014 l -3.58779,3.59294 -14.87882,0.004 c -8.18334,0.002 -21.33685,0.0911 -29.23001,0.19806 -10.36621,0.14042 -14.5328,0.12984 -15.00523,-0.0381 -0.71092,-0.25274 -1.86829,-0.0736 -1.66365,0.25751 0.0758,0.12262 -0.32312,0.20486 -0.99368,0.20486 h -1.12029 l -1.68854,1.74465 c -0.9287,0.95956 -3.28718,3.52118 -5.24107,5.69249 -4.76141,5.29124 -6.11234,6.15785 -9.47342,6.07719 -3.79042,-0.091 -8.35162,-0.0363 -10.53963,0.12633 l -2.46089,0.18292 -5.79321,5.3129 c -8.03849,7.37203 -13.75168,12.82343 -14.84199,14.16191 -0.52571,0.64536 -1.06138,1.60136 -1.24669,2.22492 -0.28372,0.95474 -1.37111,6.45191 -1.37111,6.93149 0,0.0972 -2.60023,0.17669 -5.77829,0.17669 h -5.77828 l -1.02798,-1.84032 c -2.56678,-4.59513 -5.99179,-7.44025 -10.53704,-8.75302 -1.38707,-0.40061 -2.16821,-0.48298 -4.52557,-0.4772 -3.23815,0.008 -4.48731,0.27946 -7.35362,1.59844 -4.05429,1.86565 -7.53511,5.33121 -9.31075,9.26994 -0.64924,1.44014 -0.60119,1.3821 -0.89826,1.08504 -0.30432,-0.30432 -1.14671,-0.3289 -1.32607,-0.0387 -0.17825,0.28841 -1.52295,0.26767 -1.70463,-0.0263 z"
       id="path291" /><path
       style="fill:#ffffff;stroke:none;stroke-width:1.96274"
       d="m 291.85715,154.85787 c -0.43103,-0.87109 -0.72663,-1.73248 -0.6569,-1.91421 0.28602,-0.74535 1.48082,-0.82408 14.15977,-0.9331 l 12.42679,-0.10685 -0.0947,1.80354 c -0.0555,1.0574 -0.21074,1.9434 -0.37524,2.1416 -0.28847,0.34759 -0.96457,0.39765 -4.12318,0.30527 -2.03191,-0.0594 -5.58973,-0.0596 -7.49216,-3.7e-4 -0.87057,0.0271 -1.91525,0.0349 -2.32152,0.0172 -0.40627,-0.0176 -1.02358,-0.0264 -1.37181,-0.0196 -1.07683,0.0212 -2.70396,0.0238 -3.58779,0.006 -2.29951,-0.047 -3.06577,-0.0254 -4.36714,0.1232 l -1.41248,0.16126 z"
       id="path292" /><path
       style="fill:#ffffff;stroke:none;stroke-width:1.96274"
       d="m 412.38582,186.4476 c -0.81253,-0.75509 -2.13328,-1.8447 -2.93499,-2.42137 l -1.45767,-1.04849 h -2.3536 c -1.74272,0 -2.45994,-0.0804 -2.76328,-0.30986 -0.48356,-0.36574 -1.60019,-0.42014 -1.92649,-0.0938 -0.16522,0.16521 -0.26913,0.16521 -0.37124,0 -0.19578,-0.31679 -1.53101,-0.2895 -1.68215,0.0344 -0.0985,0.21105 -0.14773,0.21105 -0.24622,0 -0.1513,-0.32421 -1.39544,-0.34921 -1.71028,-0.0344 -0.16522,0.16521 -0.26913,0.16521 -0.37124,0 -0.19107,-0.30917 -1.44704,-0.2922 -1.76305,0.0238 -0.19698,0.19697 -0.25326,0.19697 -0.25326,0 0,-0.33048 -0.72919,-0.32454 -1.29672,0.0105 -0.35744,0.21105 -0.46591,0.21105 -0.54234,0 -0.11478,-0.31694 -2.19627,-0.365 -2.50347,-0.0578 -0.22507,0.22507 -50.55815,-0.13918 -53.16778,-0.38476 l -1.47732,-0.13904 2.21599,-2.29322 c 1.2188,-1.26128 4.68524,-4.59142 7.70321,-7.40031 l 5.48723,-5.10708 8.75086,-0.2492 8.75085,-0.2492 0.96456,-0.95005 c 0.5305,-0.52253 1.06223,-0.95005 1.18162,-0.95005 0.25414,0 1.26256,-1.04133 1.37771,-1.42268 0.0435,-0.14405 2.3584,-2.63417 5.14422,-5.53359 4.52172,-4.70611 5.13738,-5.27236 5.73858,-5.27807 0.37039,-0.004 0.73214,0.0886 0.80388,0.20466 0.15092,0.24419 1.72108,0.28857 1.86681,0.0528 0.12329,-0.19949 49.71391,-0.15752 50.19121,0.0425 0.53127,0.22261 1.55564,0.0489 1.49515,-0.25352 -0.0341,-0.1703 0.19039,-0.25791 0.63314,-0.24715 0.37725,0.009 0.56719,0.0646 0.4221,0.12311 -0.52789,0.21301 -0.24522,0.49337 0.49743,0.49337 0.55331,0 0.73131,-0.078 0.65164,-0.28563 -0.0859,-0.22399 0.36628,-0.31475 2.09537,-0.42054 1.29895,-0.0795 2.45796,-0.26574 2.82064,-0.45328 0.33861,-0.17511 1.35618,-0.94542 2.26127,-1.71181 4.58138,-3.87932 5.62485,-4.70508 5.80491,-4.59379 0.11272,0.0697 0.13466,0.69573 0.0516,1.47163 -0.10301,0.96184 -0.0747,1.35038 0.0984,1.35038 0.18191,0 0.18308,0.11207 0.005,0.44548 -0.13527,0.25275 -0.1849,0.82341 -0.11473,1.31904 0.19013,1.34286 0.25353,9.65951 0.0745,9.77016 -0.25347,0.15664 -0.18248,1.44163 0.095,1.71908 0.16776,0.16775 0.1758,0.25325 0.0238,0.25325 -0.14679,0 -0.23583,0.67992 -0.2472,1.88746 -0.0319,3.39149 -0.69431,4.69021 -8.10607,15.89325 l -5.41048,8.17807 -12.5147,-0.006 -12.51471,-0.006 z"
       id="path293" /><path
       style="fill:#ffffff;stroke:none;stroke-width:1.96274"
       d="m 468.71509,182.56329 c -2.75501,-0.31246 -3.80887,-0.74284 -5.18249,-2.11646 l -1.23417,-1.23417 v -19.53589 -19.53589 l 0.79143,-0.75656 c 1.77637,-1.69812 5.05931,-2.6706 9.02226,-2.6726 2.67923,-0.001 3.90232,0.30847 5.1647,1.3083 l 0.85014,0.67332 v 20.74382 20.74381 l -1.04794,1.01658 c -0.57636,0.55912 -1.21742,1.11268 -1.42457,1.23014 -0.47832,0.27123 -4.96971,0.35899 -6.93936,0.1356 z"
       id="path294" /><path
       style="fill:#ffffff;stroke:none;stroke-width:1.96274"
       d="m 374.29184,201.14438 c 0,-0.11366 -1.35085,-0.16069 -3.25159,-0.11319 -2.55572,0.0639 -3.27446,0.0217 -3.35844,-0.19717 -0.0588,-0.15313 -0.17573,-1.90664 -0.25993,-3.8967 l -0.15309,-3.61828 h 13.11416 13.11417 v 1.33867 c 0,0.73627 -0.0609,2.47113 -0.13532,3.85524 l -0.13531,2.51657 -7.14737,-0.0337 c -4.00514,-0.0189 -7.19854,0.0491 -7.26378,0.15465 -0.15159,0.24527 -1.08741,0.24409 -1.23923,-0.002 -0.0646,-0.10447 -0.68775,-0.18995 -1.38485,-0.18995 -0.6971,0 -1.32028,0.0855 -1.38485,0.18995 -0.15341,0.24822 -0.51457,0.24506 -0.51457,-0.005 z"
       id="path295" /><path
       style="fill:#ffffff;stroke:none;stroke-width:1.96274"
       d="m 293.86802,200.00762 c -4.86911,-1.37648 -6.95333,-7.08126 -4.10141,-11.22609 1.46167,-2.12432 3.26844,-3.08938 6.04521,-3.22897 2.3864,-0.11996 3.59792,0.27238 5.11087,1.65514 1.61177,1.47306 2.33481,3.13295 2.34031,5.37268 0.004,1.46029 -0.0858,1.87942 -0.66211,3.10254 -1.63102,3.46191 -5.32095,5.28924 -8.73287,4.3247 z"
       id="path296" /><path
       style="fill:#ffffff;stroke:none;stroke-width:1.96274"
       d="m 281.60976,225.82149 c -0.88841,-0.33431 -4.06994,-1.66965 -7.07007,-2.96743 -3.00013,-1.29778 -5.71595,-2.46422 -6.03516,-2.59209 -0.3192,-0.12788 -0.58037,-0.28906 -0.58037,-0.35819 0,-0.19546 6.40607,-6.4496 11.05799,-10.79573 l 4.19897,-3.92296 1.70201,1.26196 c 2.53027,1.87608 5.31918,3.14881 8.20838,3.74593 0.94495,0.19529 1.21352,0.33644 1.21352,0.63779 0,0.83364 -10.39068,15.65851 -10.94139,15.61059 -0.0762,-0.007 -0.86546,-0.28557 -1.75388,-0.61987 z"
       id="path297" /><path
       style="fill:#ffffff;stroke:none;stroke-width:1.96274"
       d="m 226.7473,245.35279 c -1.18599,-0.32706 -2.9725,-1.2785 -3.53944,-1.88499 -0.74411,-0.79601 -1.90391,-2.90439 -2.24711,-4.08496 -0.39252,-1.35022 -0.43694,-3.86965 -0.0909,-5.15478 0.60296,-2.23923 2.6686,-5.33381 4.46631,-6.6911 2.55796,-1.93128 5.50036,-2.86519 8.59831,-2.72909 2.36224,0.10378 3.44257,0.55529 5.28206,2.20757 2.4399,2.19159 3.36032,4.54684 3.09935,7.93093 -0.16057,2.08233 -0.75021,3.41757 -2.23342,5.05764 -1.31166,1.45039 -4.04234,3.54416 -5.73976,4.40101 -2.3234,1.17285 -5.39114,1.55565 -7.59541,0.94777 z"
       id="path298" /><path
       style="fill:#ffffff;stroke:none;stroke-width:1.96274"
       d="m 210.28823,270.80579 c -5.08041,-3.83103 -12.64451,-10.09748 -12.64021,-10.47174 0.01,-0.8286 4.27815,-7.00146 6.47837,-9.36842 l 1.43338,-1.542 1.58285,1.09445 c 4.85559,3.35735 13.9291,10.64725 13.9291,11.19101 0,0.73181 -7.87581,10.75258 -8.45098,10.75258 -0.0751,0 -1.12476,-0.74515 -2.33251,-1.65588 z"
       id="path299" /><path
       style="fill:#ffffff;stroke:none;stroke-width:1.96274"
       d="m 262.43693,254.39959 c -2.13957,-1.21674 -3.26289,-2.87835 -3.26794,-4.83397 -0.002,-0.69786 0.0735,-1.54502 0.16739,-1.88257 0.19282,-0.69335 2.61509,-3.29766 3.67836,-3.95479 0.67672,-0.41824 0.71834,-0.42008 1.2744,-0.0564 1.03606,0.6777 2.82074,2.49028 3.36299,3.41557 0.49031,0.83664 0.52517,1.06682 0.44897,2.96413 -0.0711,1.76979 -0.16263,2.19355 -0.65553,3.03464 -1.10818,1.89095 -3.08257,2.40867 -5.00864,1.31334 z"
       id="path300" /><path
       style="fill:#ffffff;stroke:none;stroke-width:1.96274"
       d="m 279.71324,265.15131 c -0.73824,-0.53842 -2.16476,-1.63939 -3.17005,-2.4466 l -1.82779,-1.46765 1.10033,-1.61606 c 1.79931,-2.64266 2.79028,-6.39831 2.61294,-9.90274 -0.09,-1.77754 -0.25229,-2.48154 -1.20379,-5.22032 -0.60489,-1.74114 -1.15163,-3.37939 -1.21497,-3.64056 l -0.11518,-0.47486 h 8.1725 c 6.45643,0 8.1492,0.0554 8.0616,0.26381 -0.061,0.1451 -1.4581,3.44534 -3.10469,7.33388 -1.64659,3.88855 -3.84892,9.20693 -4.89407,11.81864 -2.04173,5.10205 -2.60307,6.33141 -2.89103,6.33141 -0.10094,0 -0.78755,-0.44053 -1.5258,-0.97895 z"
       id="path301" /><path
       style="fill:#ffffff;stroke:none;stroke-width:1.96274"
       d="m 117.0215,377.37467 c -1.21656,-0.91616 -2.76756,-2.17452 -3.44665,-2.79637 l -1.23472,-1.13065 0.85225,-1.26628 c 2.08348,-3.09567 9.69234,-12.23935 39.07581,-46.95796 12.13248,-14.33536 25.56699,-30.24303 29.85448,-35.35037 9.24914,-11.01775 11.16626,-13.25702 12.94909,-15.12507 l 1.34283,-1.40702 0.70252,0.4145 c 0.92895,0.54809 4.32724,3.53394 4.32724,3.80205 0,0.65432 -61.36352,77.34474 -74.19308,92.72445 -4.40458,5.28008 -7.49075,8.75845 -7.77091,8.75845 -0.1358,0 -1.24229,-0.74958 -2.45886,-1.66573 z"
       id="path302" /><path
       style="fill:#ffffff;stroke:none;stroke-width:1.96274"
       d="m 93.913225,401.19598 c -0.101004,-0.16342 -0.437704,-0.2071 -0.95676,-0.1241 -0.931137,0.1489 -1.467594,-0.005 -1.467594,-0.42207 0,-0.16187 1.318584,-1.74247 2.930187,-3.51245 3.402835,-3.73725 7.252732,-8.12778 10.085432,-11.50175 2.47618,-2.9493 2.63398,-2.98749 4.50266,-1.08958 0.6957,0.70659 1.2649,1.37325 1.2649,1.48147 0,0.35753 -8.93226,11.5989 -10.818872,13.6157 -1.159117,1.2391 -1.329405,1.34608 -2.142503,1.34608 -0.485818,0 -0.986551,0.10325 -1.112741,0.22944 -0.165216,0.16522 -0.269126,0.16522 -0.371235,0 -0.07799,-0.12619 -0.402113,-0.22944 -0.720275,-0.22944 -0.318162,0 -0.681723,0.10325 -0.807913,0.22944 -0.165216,0.16522 -0.273058,0.15885 -0.385286,-0.0227 z"
       id="path303" /><path
       style="fill:#ffffff;stroke:none;stroke-width:1.96274"
       d="m 75.238289,419.40313 c 2.1e-5,-0.087 -2.255544,-0.15828 -5.012366,-0.15828 -2.756821,0 -5.376939,-0.0771 -5.822483,-0.17135 l -0.810079,-0.17135 1.12665,-0.67897 c 0.619658,-0.37344 2.944073,-2.02956 5.165367,-3.68026 3.94609,-2.93245 4.06318,-3.00129 5.105434,-3.00129 0.586695,0 1.125413,0.095 1.197152,0.21105 0.172257,0.27872 1.016967,0.27042 1.30016,-0.0128 0.440206,-0.44021 16.843628,-0.69539 19.558171,-0.30426 1.648446,0.23752 2.854396,1.10744 6.345805,4.57756 2.33149,2.31728 3.30165,3.41376 3.09166,3.49424 -0.16831,0.0645 -0.34242,0.008 -0.38692,-0.12542 -0.10012,-0.30037 -2.36724,-0.33069 -2.36724,-0.0317 0,0.11608 -0.14246,0.21105 -0.31657,0.21105 -0.17412,0 -0.31657,-0.095 -0.31657,-0.21105 0,-0.11607 -0.37989,-0.21105 -0.84419,-0.21105 -0.46431,0 -0.84419,0.095 -0.84419,0.21105 0,0.11608 -0.38549,0.21105 -0.85664,0.21105 -0.51736,0 -0.804986,-0.0836 -0.726213,-0.21105 0.08422,-0.13626 -0.775798,-0.21105 -2.427041,-0.21105 -1.651242,0 -2.511256,0.0748 -2.42704,0.21105 0.08486,0.1373 -0.887959,0.20134 -2.783917,0.18327 -1.843641,-0.0176 -2.642973,-0.0849 -2.175687,-0.18327 0.406265,-0.0855 -1.540643,-0.15451 -4.326464,-0.15331 -2.78582,10e-4 -4.685243,0.0702 -4.220939,0.15331 0.607626,0.1088 0.208429,0.15954 -1.424568,0.1811 -1.391771,0.0184 -2.268755,-0.0516 -2.268755,-0.1811 0,-0.11607 -0.421765,-0.21105 -0.937256,-0.21105 -0.515491,0 -0.995951,0.095 -1.06769,0.21105 -0.152212,0.24628 -0.527635,0.28383 -0.527581,0.0528 z"
       id="path304" /><path
       style="fill:#ffffff;stroke:none;stroke-width:1.96274"
       d="m 442.32546,382.78523 c -1.37694,-1.08115 -9.57888,-7.5141 -18.22653,-14.29543 -8.64765,-6.78133 -20.51904,-16.13709 -26.38088,-20.79058 -10.48968,-8.32737 -16.2047,-12.81449 -32.29018,-25.35251 -12.57038,-9.79812 -33.42375,-25.92769 -42.52597,-32.8928 -14.09951,-10.78908 -15.08986,-11.58297 -15.08986,-12.0964 0,-0.12373 0.64935,-1.01474 1.443,-1.98002 0.79365,-0.96529 1.91785,-2.46735 2.49822,-3.33792 0.58037,-0.87057 1.1578,-1.56172 1.28318,-1.5359 0.64086,0.13199 74.52755,52.95027 112.0122,80.07249 31.70838,22.94276 29.86315,21.55599 29.86315,22.44356 0,0.26547 -0.41776,1.02066 -0.92835,1.6782 -0.91921,1.18375 -8.24786,9.30064 -8.84465,9.79593 -0.25572,0.21223 -0.74684,-0.086 -2.81333,-1.70862 z"
       id="path305" /><path
       style="fill:#ffffff;stroke:none;stroke-width:1.96274"
       d="m 469.01051,401.11431 c -0.90693,-0.32383 -1.08843,-0.47989 -8.48664,-7.29724 l -5.60754,-5.16726 1.31153,-1.32329 c 0.72134,-0.72781 1.48311,-1.37775 1.69282,-1.44431 0.27553,-0.0874 1.15506,0.55 3.17095,2.2982 7.76317,6.73228 14.16277,12.71635 13.95641,13.05023 -0.18106,0.29298 -5.15988,0.19704 -6.03753,-0.11633 z"
       id="path306" /><path
       style="fill:#ffffff;stroke:none;stroke-width:1.96274"
       d="m 465.10418,419.3413 c -5.01384,-0.14278 -6.81564,-0.28629 -6.81564,-0.54285 0,-0.24192 1.4304,-2.2101 3.29468,-4.53334 l 1.96372,-2.44717 5.02126,-0.13816 c 2.76168,-0.076 9.76981,-0.14678 15.5736,-0.15732 l 10.55235,-0.0192 1.31891,2.71002 c 1.3367,2.74657 2.08143,4.6562 1.89038,4.84725 -0.0577,0.0577 -2.10928,0.10922 -4.55901,0.11445 -2.46559,0.005 -4.45407,0.0936 -4.45407,0.19796 0,0.10364 -0.18995,0.18845 -0.4221,0.18845 -0.23215,0 -0.42209,-0.095 -0.42209,-0.21105 0,-0.11725 -0.5628,-0.21105 -1.26628,-0.21105 -0.70349,0 -1.26629,0.0938 -1.26629,0.21105 0,0.24012 -11.84402,0.23485 -20.40942,-0.009 z"
       id="path307" /></g></svg>
