<?xml version="1.0" encoding="UTF-8" standalone="no"?>
<!-- Created with Inkscape (http://www.inkscape.org/) -->

<svg
   width="505.08896"
   height="505.75937"
   viewBox="0 0 505.08896 505.75937"
   version="1.1"
   id="svg1"
   xml:space="preserve"
   sodipodi:docname="Template.svg"
   inkscape:version="1.4 (86a8ad7, 2024-10-11)"
   inkscape:export-filename="..\magic\Mage_Clairvoyance.svg"
   inkscape:export-xdpi="96"
   inkscape:export-ydpi="96"
   xmlns:inkscape="http://www.inkscape.org/namespaces/inkscape"
   xmlns:sodipodi="http://sodipodi.sourceforge.net/DTD/sodipodi-0.dtd"
   xmlns="http://www.w3.org/2000/svg"
   xmlns:svg="http://www.w3.org/2000/svg"><sodipodi:namedview
     id="namedview1"
     pagecolor="#ffffff"
     bordercolor="#000000"
     borderopacity="0.25"
     inkscape:showpageshadow="2"
     inkscape:pageopacity="0.0"
     inkscape:pagecheckerboard="true"
     inkscape:deskcolor="#d1d1d1"
     inkscape:zoom="1.6959064"
     inkscape:cx="131.19828"
     inkscape:cy="318.11897"
     inkscape:window-width="2560"
     inkscape:window-height="1494"
     inkscape:window-x="585"
     inkscape:window-y="2149"
     inkscape:window-maximized="1"
     inkscape:current-layer="svg1"><inkscape:page
       x="0"
       y="0"
       width="505.08896"
       height="505.75937"
       id="page2"
       margin="0"
       bleed="0" /></sodipodi:namedview><defs
     id="defs1" /><path
     style="fill:#000000;stroke-width:0.55158"
     d="m 176.24293,489.48181 c -7.36284,-1.57556 -11.69403,-3.74328 -15.3038,-7.65941 -2.65005,-2.87497 -3.19941,-4.96087 -2.69118,-10.21835 1.66487,-17.22287 3.6699,-33.21347 4.29185,-34.22865 0.40755,-0.66523 1.57907,-1.73148 2.60337,-2.36943 l 1.86238,-1.15992 -0.36052,-17.70038 c -0.19829,-9.7352 -0.59457,-33.9582 -0.88062,-53.82887 -0.55007,-38.21068 -0.67171,-46.02302 -1.95377,-125.4845 -1.9196,-118.97567 -1.83166,-116.63724 -4.65545,-123.80124 -3.05973,-7.76259 -8.73193,-12.6976 -16.44791,-14.310285 -5.96839,-1.247428 -5.41659,-1.580844 -16.38236,9.898775 -10.62129,11.11901 -11.62589,11.78661 -14.06529,9.3472 -1.37558,-1.37557 -1.37561,-2.02925 -2.8e-4,-5.64778 0.60658,-1.59595 1.103,-2.91392 1.10315,-2.92885 1.6e-4,-0.0149 -0.8646,0.0738 -1.92169,0.19725 -1.8102,0.21133 -2.31538,-0.15621 -8.68738,-6.32028 -5.06078,-4.895635 -7.738165,-7.038063 -10.626067,-8.502924 -6.440669,-3.266971 -6.343595,-2.957754 -6.343595,-20.205432 0,-11.458752 0.165916,-14.883531 0.778419,-16.067986 0.428124,-0.827904 2.972292,-3.512327 5.653699,-5.965363 2.681396,-2.453035 7.073105,-6.708207 9.759344,-9.455917 5.10355,-5.220366 7.16528,-6.5337 9.38299,-5.977092 0.72948,0.183088 4.76773,3.182749 8.97389,6.665901 4.20615,3.483161 7.77708,6.340009 7.93538,6.34856 0.15831,0.0081 5.69849,-5.07279 12.31148,-11.291851 6.61301,-6.219071 12.36682,-11.307398 12.78624,-11.307398 1.51779,0 3.60529,1.317895 3.89107,2.456529 0.23098,0.920318 -1.39866,8.580619 -4.2702,20.072476 -0.43494,1.740606 21.08275,0.239846 38.56477,-2.689713 5.23399,-0.877087 16.52759,-3.242869 25.0969,-5.25728 21.49298,-5.052428 28.72861,-6.278235 39.29852,-6.657675 13.37383,-0.480099 23.40335,1.560747 32.40265,6.593443 15.01815,8.398627 24.28271,25.143895 23.40032,42.294987 -0.89941,17.481865 -11.44851,29.927685 -21.72671,25.633175 -1.10923,-0.46346 -3.89363,-2.52702 -6.18756,-4.58569 -10.23181,-9.18248 -18.04958,-12.437387 -29.81923,-12.415147 -9.87298,0.01869 -18.70036,2.632635 -26.27574,7.780817 -10.64483,7.23416 -15.52154,17.08871 -16.44404,33.22907 -0.44025,7.70273 -1.66334,59.37028 -3.89102,164.37091 -0.93147,43.90398 -2.25888,102.73555 -2.77529,123.00239 l -0.33029,12.96213 1.82972,0.85915 c 1.07478,0.50468 2.19974,1.64258 2.72654,2.75791 0.57417,1.2156 1.65443,8.37974 3.00251,19.91213 2.09481,17.92046 2.10039,18.02509 1.08244,20.2825 -2.03888,4.52144 -7.53313,8.31768 -15.27501,10.55421 -5.2262,1.5098 -16.22661,1.92978 -21.42263,0.8179 z m 19.02952,-14.86064 c 4.58099,-1.46334 4.34793,-0.41101 3.01768,-13.62545 -0.6536,-6.49277 -1.24009,-11.85884 -1.3033,-11.92461 -0.25894,-0.26941 -21.97027,-0.21686 -22.24097,0.0538 -0.3287,0.3287 -1.74714,17.35845 -1.78686,21.45313 -0.0285,2.93692 0.18184,3.1047 5.76604,4.59972 3.5322,0.94566 12.82285,0.63313 16.54741,-0.55662 z m -4.4715,-49.01054 c 0.1839,-4.92975 0.58505,-22.49069 0.89145,-39.0243 0.30638,-16.53363 0.92497,-49.29748 1.37463,-72.80859 1.1915,-62.30022 1.85209,-97.47284 2.25835,-120.2445 0.19755,-11.07297 0.51467,-27.02079 0.7047,-35.4396 l 0.34553,-15.30692 -9.60387,5.5e-4 -9.60386,5.5e-4 0.37847,30.7506 c 0.7379,59.95618 2.01461,158.14309 2.54791,195.94887 0.2974,21.08416 0.54537,44.35395 0.55103,51.71065 l 0.0103,13.37587 h 4.9055 4.9055 z m 6.80299,-301.02333 c 4.83692,-28.906188 27.84582,-46.753942 58.83335,-45.636349 12.39264,0.446942 20.82294,3.359623 29.79577,10.294475 2.39938,1.854416 4.95355,3.520015 5.67592,3.701316 4.24561,1.065582 5.96995,-9.02103 2.99963,-17.546414 -3.12713,-8.975413 -11.46789,-17.075729 -21.23199,-20.619914 -6.61208,-2.400055 -11.63203,-3.159128 -20.76404,-3.139752 -10.78967,0.02285 -15.43504,0.746166 -38.02905,5.921178 -26.63661,6.100945 -29.9688,6.568685 -46.9143,6.585268 -8.57806,0.0081 -14.96923,-0.224725 -16.38233,-0.597564 -1.27436,-0.336239 -2.45829,-0.470075 -2.63096,-0.297406 -0.17265,0.172659 1.67788,2.191265 4.1123,4.485787 6.14687,5.793649 6.1223,6.179994 -0.84392,13.270434 l -5.26488,5.358761 2.85717,0.338393 c 4.2289,0.500855 9.43275,3.179906 13.27553,6.834538 9.09131,8.646179 12.79357,16.644099 13.53503,29.239439 l 0.33201,5.64011 8.60506,0.15148 c 4.73278,0.0834 9.22557,0.13103 9.984,0.10603 1.27674,-0.042 1.42911,-0.34524 2.0557,-4.08981 z M 116.75348,94.315488 c 0.43824,-0.42042 5.5781,-16.669088 5.3338,-16.861773 -0.0963,-0.07586 -2.09486,-1.421407 -4.44134,-2.989993 -4.48985,-3.001398 -6.25444,-5.321745 -5.63356,-7.407822 0.19864,-0.667411 1.95251,-2.83672 3.8975,-4.820676 l 3.53633,-3.607197 -1.80066,-1.676466 c -0.99037,-0.922054 -2.77452,-2.452396 -3.9648,-3.400762 l -2.16415,-1.724296 -3.16734,3.422687 c -1.74203,1.882474 -4.29578,4.291426 -5.67499,5.353216 l -2.50765,1.930529 -0.0208,10.485698 -0.0209,10.485698 3.72317,2.853274 c 2.04774,1.569307 5.07295,4.228037 6.72269,5.90829 2.51743,2.564016 3.22663,3.001747 4.41264,2.723535 0.77722,-0.182307 1.57376,-0.485583 1.77012,-0.673942 z m 16.60197,-7.650921 c 2.83688,-2.957842 6.61165,-6.930039 8.38837,-8.827096 l 3.23042,-3.449182 -3.39517,-3.535725 c -2.5604,-2.666377 -3.39517,-3.927666 -3.39517,-5.129822 0,-1.325643 2.52605,-9.569493 4.1868,-13.663685 0.24474,-0.603362 -3.57007,2.608411 -8.47737,7.137266 l -8.92235,8.234285 3.55244,2.515389 c 1.95385,1.383456 3.84119,3.201049 4.19411,4.039089 0.74416,1.76709 0.42511,3.163647 -2.79272,12.224648 -1.13927,3.208006 -1.99397,5.832746 -1.89935,5.832746 0.0947,0 2.49312,-2.420061 5.32999,-5.377913 z m 165.0625,361.638903 c -25.24066,-3.63726 -48.27806,-23.69485 -56.20665,-48.93652 -2.19466,-6.98697 -3.08822,-13.23137 -3.08822,-21.58096 0,-12.4311 2.11733,-21.8721 7.24869,-32.32132 11.29842,-23.00741 36.51286,-38.3059 63.13451,-38.3059 3.63345,0 13.10403,1.5073 18.97279,3.01964 9.25966,2.38615 20.83782,9.40421 29.02712,17.59467 13.64974,13.65168 20.28089,30.47071 20.25217,51.36691 -0.0127,9.2136 -1.25285,16.0372 -4.56996,25.14439 -5.84202,16.03932 -18.60395,29.71242 -35.60826,38.15058 -6.09334,3.02375 -8.80724,3.90738 -16.4375,5.35201 -6.34127,1.20059 -16.3922,1.42903 -22.72469,0.5165 z m 15.8363,-13.77527 c 6.54664,-0.68887 15.44644,-3.4146 20.65331,-6.32545 6.1533,-3.43995 12.69953,-9.06249 16.98571,-14.589 2.28885,-2.95117 5.81956,-8.77536 5.81956,-9.59984 0,-0.51211 -3.07545,1.22406 -19.15315,10.81249 -17.51471,10.44542 -19.75768,11.36641 -28.83434,11.83962 -11.29965,0.58912 -21.94308,-3.47996 -30.9752,-11.84211 -8.63842,-7.99765 -13.42621,-17.79923 -14.06269,-28.78916 -0.82155,-14.18564 5.37249,-24.95005 18.56205,-32.25831 10.19257,-5.64765 46.01942,-26.12154 47.08735,-26.90892 0.94614,-0.69756 0.76569,-0.85496 -2.20632,-1.92433 -7.81266,-2.81112 -9.96478,-3.14557 -20.05992,-3.11741 -8.89379,0.0248 -10.04293,0.14543 -14.61689,1.53434 -16.56266,5.02941 -29.41458,16.24147 -35.57259,31.03367 -6.80574,16.34811 -6.3745,34.53624 1.17378,49.50597 2.91019,5.77149 4.93293,8.68232 8.99451,12.94357 10.7644,11.29361 23.61559,17.2835 39.03428,18.19378 0.82237,0.0485 4.04911,-0.18045 7.17055,-0.50891 z m 33.88452,-37.58135 14.97129,-8.93466 0.33507,-2.44467 c 0.40278,-2.93855 0.44618,-10.0128 0.0614,-10.0128 -0.40767,0 -31.3341,18.80199 -32.10352,19.51762 -0.36371,0.33828 -1.03061,3.09805 -1.48199,6.13282 -0.45138,3.03477 -1.00193,5.99003 -1.22342,6.56725 -0.35198,0.91724 -0.0958,0.86423 2.03357,-0.42072 1.33997,-0.8086 9.17337,-5.49076 17.40757,-10.40484 z m -35.08589,8.65966 c 4.82949,-2.49743 4.25118,-11.3132 -0.97509,-14.86456 -1.53625,-1.04391 -2.75757,-1.39462 -4.8247,-1.38546 -4.40548,0.0195 -6.35303,2.21121 -6.35303,7.14941 0,4.31111 1.99802,7.29225 6.07132,9.05866 2.4733,1.07255 4.06725,1.08355 6.0815,0.0419 z m -22.63285,-3.72964 c 1.73996,-0.86939 3.31117,-3.95095 3.29651,-6.46526 -0.0468,-8.027 -10.16313,-13.17005 -14.18022,-7.20909 -4.39997,6.5291 4.01768,17.10509 10.88371,13.67435 z m 11.60524,-20.5505 c 2.47655,-2.24126 2.66162,-6.98083 0.41528,-10.63511 -2.76152,-4.49237 -9.42119,-6.18463 -12.26462,-3.11651 -3.68303,3.97404 -1.37512,11.46361 4.35813,14.14291 2.59471,1.21255 5.91034,1.03936 7.49121,-0.39129 z m 42.58752,-12.8351 c 8.72187,-5.25005 15.85793,-9.80539 15.85793,-10.12296 0,-1.13731 -4.31525,-9.7581 -6.47742,-12.94025 -3.36693,-4.95529 -7.32945,-9.1469 -8.29624,-8.77591 -0.4561,0.17503 -8.3538,4.82593 -17.55047,10.33536 -15.99353,9.58122 -16.66818,10.05223 -15.5028,10.8235 4.40964,2.91841 11.57811,12.1432 13.96248,17.96771 0.57499,1.40456 1.29365,2.48724 1.59701,2.40593 0.30337,-0.0813 7.68765,-4.44332 16.40951,-9.69338 z"
     id="path84" /><path
     style="fill:#ffffff;stroke:none;stroke-width:2.3035;stroke-linecap:round;stroke-linejoin:round;stroke-dasharray:none;stroke-dashoffset:0"
     d="m 113.46116,94.567557 c -0.36511,-0.243407 -2.14051,-1.812192 -3.94533,-3.48619 -1.80481,-1.673997 -4.62796,-4.085117 -6.27366,-5.358045 l -2.99217,-2.31441 0.006,-10.391956 0.006,-10.391956 1.68128,-1.239617 c 0.9247,-0.681789 3.48146,-3.056797 5.6817,-5.277795 l 4.00042,-4.038178 1.37458,1.114664 c 0.75601,0.613066 2.47047,2.071752 3.8099,3.241525 l 2.43533,2.126861 -3.00183,3.14038 c -3.36102,3.516146 -4.49383,5.055867 -4.49383,6.108051 0,2.031391 1.96237,4.186198 6.76182,7.424907 1.71225,1.155439 3.19623,2.172234 3.29773,2.259549 0.21474,0.184723 -1.14548,4.829348 -3.4563,11.801953 -1.46636,4.424512 -1.69505,4.93877 -2.30313,5.17889 -1.33401,0.526777 -1.91662,0.549587 -2.58896,0.101367 z"
     id="path85" /><path
     style="fill:#ffffff;stroke:none;stroke-width:2.3035;stroke-linecap:round;stroke-linejoin:round;stroke-dasharray:none;stroke-dashoffset:0"
     d="m 128.49809,91.109272 c -0.001,-0.12885 0.95484,-3.046772 2.12418,-6.484272 2.41916,-7.111525 2.7782,-8.637752 2.37996,-10.116723 -0.34094,-1.266132 -2.21869,-3.137881 -5.4355,-5.418106 l -2.3538,-1.668487 0.70604,-0.670826 C 127.6315,65.123729 136.11301,57.39037 138.5,55.279601 c 2.73858,-2.421674 3.66872,-3.099238 3.42011,-2.491378 -0.62025,1.516521 -3.20333,9.731007 -3.5389,11.254126 -0.407,1.847315 -0.4049,1.956896 0.0576,3 0.48451,1.092618 1.82958,2.71633 4.74091,5.723063 l 1.58837,1.640412 -7.35165,7.734588 c -7.88785,8.29872 -8.91544,9.332123 -8.9184,8.96886 z"
     id="path86" /><path
     style="fill:#ffffff;stroke:none;stroke-width:2.3035;stroke-linecap:round;stroke-linejoin:round;stroke-dasharray:none;stroke-dashoffset:0"
     d="m 179.22083,128.31434 -2.15417,-0.0828 -0.16986,-3.17825 c -0.75536,-14.13373 -3.93611,-21.86078 -12.52545,-30.42825 -2.8549,-2.847633 -5.44371,-4.722728 -8.49354,-6.151925 -2.27637,-1.066743 -5.41117,-1.970743 -6.8553,-1.976903 -0.49363,-0.0021 -1.03376,-0.09042 -1.20028,-0.196242 -0.20331,-0.129203 1.18427,-1.747025 4.22378,-4.92466 4.37781,-4.576748 5.69419,-6.353555 5.70155,-7.6958 0.006,-1.161246 -0.98844,-2.48472 -4.66645,-6.208183 -2.15526,-2.181892 -3.86643,-4.019297 -3.80261,-4.083122 0.0638,-0.06383 1.0679,0.06603 2.23127,0.28857 1.77286,0.339126 4.25985,0.408149 15.36523,0.426441 18.9936,0.03128 20.39288,-0.153536 47.37271,-6.257107 24.55389,-5.55476 29.82839,-6.320934 41.37729,-6.010476 7.63095,0.205135 11.47228,0.83386 17.13299,2.804223 11.10845,3.866601 20.05766,12.972009 22.64559,23.040846 0.76722,2.984995 1.03962,7.230693 0.6227,9.705415 -0.42048,2.495813 -1.54459,4.697005 -2.67186,5.231933 -0.87115,0.41339 -0.92067,0.408085 -2.19104,-0.234665 -0.71486,-0.361688 -2.36594,-1.452438 -3.66907,-2.423893 -9.17916,-6.84289 -15.39579,-9.464795 -25.49431,-10.75239 -3.65673,-0.466247 -13.49266,-0.393702 -17.25,0.127225 -13.29827,1.843708 -24.20177,7.026498 -32.54968,15.471923 -7.39409,7.48046 -12.22282,16.98257 -14.4544,28.44379 -0.44174,2.26875 -0.96163,4.37812 -1.15531,4.6875 l -0.35214,0.5625 -7.43173,-0.0514 c -4.08746,-0.0283 -8.40112,-0.0887 -9.58591,-0.13425 z"
     id="path87" /><path
     style="fill:#ffffff;stroke:none;stroke-width:2.3035;stroke-linecap:round;stroke-linejoin:round;stroke-dasharray:none;stroke-dashoffset:0"
     d="m 179.99885,355.1875 c -6.3e-4,-1.82188 -0.22408,-19.68125 -0.49656,-39.6875 -0.27248,-20.00625 -0.82849,-63.31875 -1.23558,-96.25 -0.40709,-32.93125 -0.80941,-63.55938 -0.89404,-68.0625 L 177.21881,143 h 9.54342 9.54343 l -0.16677,5.5625 c -0.24508,8.17494 -0.93721,44.10127 -2.51289,130.4375 -0.77165,42.28125 -1.46127,77.46562 -1.53249,78.1875 L 191.96402,358.5 H 185.98201 180 Z"
     id="path88" /><path
     style="fill:#ffffff;stroke:none;stroke-width:1.62882;stroke-linecap:round;stroke-linejoin:round;stroke-dasharray:none;stroke-dashoffset:0"
     d="m 181.67239,475.51359 c -2.53467,-0.20914 -6.619,-1.31869 -7.70761,-2.09385 -0.86807,-0.61811 -0.96715,-1.13582 -0.84231,-4.40109 0.18156,-4.7489 1.36253,-18.82583 1.64004,-19.54901 0.054,-0.14079 0.54989,-0.27427 1.27233,-0.34251 1.72645,-0.16307 20.41255,-0.13425 20.67422,0.0319 0.26816,0.17026 0.35465,0.8467 1.36338,10.66326 1.19556,11.63468 1.20771,12.53183 0.18258,13.48189 -0.53613,0.49687 -3.54902,1.44942 -5.63108,1.78031 -3.41663,0.543 -7.58965,0.70651 -10.95155,0.42912 z"
     id="path89" /><path
     style="fill:#ffffff;stroke:none;stroke-width:1.62882;stroke-linecap:round;stroke-linejoin:round;stroke-dasharray:none;stroke-dashoffset:0"
     d="m 180.6647,420.77273 c -0.001,-14.73925 -0.001,-14.72977 -1.06258,-94.22898 -0.38726,-29.00186 -0.7041,-54.04006 -0.7041,-55.64046 v -2.90982 h 7.47124 7.47124 l -0.0537,2.51907 c -0.0295,1.38548 -0.52737,27.85558 -1.10633,58.82244 -1.44135,77.09382 -1.73472,90.94809 -2.12058,100.144 -0.0938,2.23623 -0.17079,4.28463 -0.17101,4.552 l -4e-4,0.48614 h -4.86136 -4.86136 z"
     id="path90" /><path
     style="fill:#ffffff;stroke:none;stroke-width:1.62882;stroke-linecap:round;stroke-linejoin:round;stroke-dasharray:none;stroke-dashoffset:0"
     d="m 304.58625,434.75868 c -0.24307,-0.0351 -1.15789,-0.15047 -2.03294,-0.25636 -10.82663,-1.3101 -21.1607,-5.92038 -29.69848,-13.24919 -2.54769,-2.18694 -6.94153,-6.79863 -8.66845,-9.09827 -3.30221,-4.39732 -6.42397,-10.53852 -8.26722,-16.26345 -3.94299,-12.24653 -3.63441,-25.67155 0.88174,-38.36054 0.94201,-2.64675 2.41322,-5.96864 3.52312,-7.95496 7.12969,-12.75946 18.66691,-21.72769 33.84914,-26.31194 3.61019,-1.09009 4.67012,-1.20535 12.00408,-1.30533 10.38517,-0.14159 13.25324,0.18062 19.18027,2.15473 3.66681,1.22131 5.39169,1.92365 5.39169,2.1954 0,0.20571 -1.90678,1.36012 -9.01562,5.45825 -7.47557,4.30955 -26.75139,15.29185 -34.19452,19.48216 -8.68935,4.8919 -10.62181,6.22818 -14.06551,9.72614 -7.37355,7.48973 -10.26252,17.59929 -8.38655,29.34762 0.91296,5.71742 3.06074,11.16138 6.3466,16.08668 5.25004,7.86951 13.61344,14.64572 21.92732,17.76602 4.82508,1.81091 9.02519,2.5633 14.30924,2.5633 7.0574,0 10.66297,-0.78233 16.27313,-3.53094 3.37822,-1.65511 6.58339,-3.48553 18.70909,-10.68449 9.53318,-5.6598 14.35191,-8.41199 14.72832,-8.41199 0.45986,0 -0.87185,2.46937 -3.38435,6.27558 -2.19374,3.3233 -3.58055,5.01356 -6.53214,7.96146 -5.59975,5.59276 -11.07685,9.39595 -17.03717,11.83029 -5.69302,2.32516 -11.87141,3.84753 -17.95843,4.42499 -2.52672,0.23971 -6.72407,0.32216 -7.88236,0.15484 z"
     id="path91" /><path
     style="fill:#ffffff;stroke:none;stroke-width:1.62882;stroke-linecap:round;stroke-linejoin:round;stroke-dasharray:none;stroke-dashoffset:0"
     d="m 295.74741,382.03464 c -2.2519,-0.72806 -4.08904,-2.12861 -5.43828,-4.14589 -3.47208,-5.19119 -1.65889,-11.37451 3.44249,-11.73952 2.49439,-0.17847 5.08731,0.89089 7.13753,2.94364 2.17468,2.17736 3.10542,4.55842 2.9494,7.54528 -0.14164,2.71153 -1.31942,4.64635 -3.2734,5.37742 -1.21427,0.45432 -3.44419,0.46314 -4.81774,0.0191 z"
     id="path92" /><path
     style="fill:#ffffff;stroke:none;stroke-width:1.62882;stroke-linecap:round;stroke-linejoin:round;stroke-dasharray:none;stroke-dashoffset:0"
     d="m 286.37825,402.32759 c -3.33992,-0.64746 -6.80658,-4.23834 -7.68362,-7.95894 -0.87031,-3.69204 0.68398,-7.14243 3.73096,-8.28245 4.82728,-1.80612 11.18081,3.46033 11.19789,9.28193 0.007,2.50414 -1.56749,5.53279 -3.3497,6.44201 -0.57743,0.29458 -2.44832,0.73862 -2.91154,0.69103 -0.10367,-0.0107 -0.54647,-0.0888 -0.98399,-0.17358 z"
     id="path93" /><path
     style="fill:#ffffff;stroke:none;stroke-width:1.62882;stroke-linecap:round;stroke-linejoin:round;stroke-dasharray:none;stroke-dashoffset:0"
     d="m 307.91923,405.82132 c -1.76179,-0.63784 -3.12225,-1.47958 -4.3266,-2.67694 -1.81726,-1.80673 -2.54192,-3.73254 -2.54192,-6.75521 0,-3.49129 0.92043,-5.34853 3.17065,-6.39771 0.88611,-0.41316 1.19475,-0.45889 3.11372,-0.46132 2.12052,-0.003 2.13636,4e-4 3.51997,0.68403 4.68527,2.31496 6.80205,8.61687 4.38565,13.0566 -1.35356,2.48693 -4.4845,3.57765 -7.32147,2.55055 z"
     id="path94" /><path
     style="fill:#ffffff;stroke:none;stroke-width:1.62882;stroke-linecap:round;stroke-linejoin:round;stroke-dasharray:none;stroke-dashoffset:0"
     d="m 327.87121,377.8103 c -0.14896,-0.16702 -0.90912,-1.57808 -1.68923,-3.13569 -1.59588,-3.18639 -3.82525,-6.65627 -6.13091,-9.54235 -2.76936,-3.46652 -3.97535,-4.69583 -7.31066,-7.45208 l -0.46107,-0.38102 0.3519,-0.39283 c 0.82091,-0.9164 6.34158,-4.34462 21.38832,-13.28172 12.23731,-7.26841 11.67329,-6.95928 12.23268,-6.70441 1.74009,0.79284 6.21032,6.08445 8.73654,10.34185 2.07056,3.48946 5.28212,10.12529 5.28212,10.91406 0,0.46854 -4.34236,3.31158 -14.31891,9.37489 -4.16431,2.53089 -16.57166,9.90642 -17.43445,10.36388 -0.3028,0.16055 -0.42792,0.14031 -0.64633,-0.10458 z"
     id="path95" /><path
     style="fill:#ffffff;stroke:none;stroke-width:1.62882;stroke-linecap:round;stroke-linejoin:round;stroke-dasharray:none;stroke-dashoffset:0"
     d="m 328.70261,408.06127 c 0.20415,-0.53131 0.56833,-2.39317 1.25026,-6.39196 0.35342,-2.07242 0.81639,-4.37691 1.02881,-5.12109 l 0.38623,-1.35304 2.12998,-1.35017 c 7.52016,-4.76695 29.51603,-18.01776 29.90882,-18.01776 0.23489,0 0.2563,0.56131 0.17363,4.552 -0.0519,2.5036 -0.19336,5.22991 -0.31443,6.05845 l -0.22014,1.50645 -1.6084,0.95239 c -0.88463,0.52382 -8.32188,4.96119 -16.52725,9.86082 -8.20536,4.89964 -15.23696,9.07072 -15.62577,9.26908 -0.66519,0.33936 -0.69954,0.34141 -0.58174,0.0348 z"
     id="path96"
     inkscape:export-filename="..\weapons\Multi-fonctions_cane.svg"
     inkscape:export-xdpi="96"
     inkscape:export-ydpi="96" /></svg>
