<?xml version="1.0" encoding="UTF-8" standalone="no"?>
<!-- Created with Inkscape (http://www.inkscape.org/) -->

<svg
   width="512"
   height="512"
   viewBox="0 0 512 512"
   version="1.1"
   id="svg1"
   xml:space="preserve"
   xmlns="http://www.w3.org/2000/svg"
   xmlns:svg="http://www.w3.org/2000/svg"><defs
     id="defs1" /><g
     id="g385"
     transform="translate(63.27469,86.555)"><path
       style="fill:#d0d0d0;fill-opacity:1"
       d="m 102.15789,236 c 0,-1.375 0.22698,-1.9375 0.50439,-1.25 0.27741,0.6875 0.27741,1.8125 0,2.5 -0.27741,0.6875 -0.50439,0.125 -0.50439,-1.25 z M -40,164.62244 c 0,-0.20765 0.7875,-0.99515 1.75,-1.75 1.586056,-1.24387 1.621426,-1.2085 0.377555,0.37756 C -39.178814,164.91575 -40,165.44548 -40,164.62244 Z m 98.078947,-15.20577 c 0.04798,-1.16495 0.284941,-1.4019 0.604167,-0.60417 0.288871,0.72187 0.253344,1.58437 -0.07895,1.91667 -0.332292,0.33229 -0.568641,-0.25834 -0.52522,-1.3125 z m 4,-32 c 0.04798,-1.16495 0.284941,-1.4019 0.604167,-0.60417 0.288871,0.72188 0.253344,1.58437 -0.07895,1.91667 -0.332292,0.33229 -0.568641,-0.25834 -0.52522,-1.3125 z M 49.468697,94.75 43.5,88.5 49.75,94.468697 C 55.555717,100.01311 56.457599,101 55.718697,101 c -0.154717,0 -2.967217,-2.8125 -6.25,-6.25 z"
       id="path392" /><path
       style="fill:#b9b9b9;fill-opacity:1"
       d="m 42.078947,164.41667 c 0.04798,-1.16495 0.284941,-1.4019 0.604167,-0.60417 0.288871,0.72187 0.253344,1.58437 -0.07895,1.91667 -0.332292,0.33229 -0.568641,-0.25834 -0.52522,-1.3125 z"
       id="path391" /><path
       style="fill:#a3a3a3;fill-opacity:1"
       d="M -21.041792,168.75 C -16.897827,164.33481 -16,163.54091 -16,164.29179 c 0,0.16049 -2.1375,2.29799 -4.75,4.75 L -25.5,173.5 Z m 63.120739,-7.33333 c 0.04798,-1.16495 0.284941,-1.4019 0.604167,-0.60417 0.288871,0.72187 0.253344,1.58437 -0.07895,1.91667 -0.332292,0.33229 -0.568641,-0.25834 -0.52522,-1.3125 z m 16,-7 c 0.04798,-1.16495 0.284941,-1.4019 0.604167,-0.60417 0.288871,0.72187 0.253344,1.58437 -0.07895,1.91667 -0.332292,0.33229 -0.568641,-0.25834 -0.52522,-1.3125 z M -57,136.5 c 3.543223,-3.575 6.667223,-6.5 6.942223,-6.5 0.275,0 -2.399,2.925 -5.942223,6.5 -3.543223,3.575 -6.667223,6.5 -6.942223,6.5 -0.275,0 2.399,-2.925 5.942223,-6.5 z M 35.946167,104.25 32.5,100.5 l 3.75,3.44617 C 39.740419,107.15378 40.459787,108 39.696167,108 c -0.167108,0 -1.854608,-1.6875 -3.75,-3.75 z"
       id="path390" /><path
       style="fill:#8c8c8c;fill-opacity:1"
       d="m 42.078947,158.41667 c 0.04798,-1.16495 0.284941,-1.4019 0.604167,-0.60417 0.288871,0.72187 0.253344,1.58437 -0.07895,1.91667 -0.332292,0.33229 -0.568641,-0.25834 -0.52522,-1.3125 z m 16,-1 c 0.04798,-1.16495 0.284941,-1.4019 0.604167,-0.60417 0.288871,0.72187 0.253344,1.58437 -0.07895,1.91667 -0.332292,0.33229 -0.568641,-0.25834 -0.52522,-1.3125 z"
       id="path389" /><path
       style="fill:#767676;fill-opacity:1"
       d="m 58.078947,160.41667 c 0.04798,-1.16495 0.284941,-1.4019 0.604167,-0.60417 0.288871,0.72187 0.253344,1.58437 -0.07895,1.91667 -0.332292,0.33229 -0.568641,-0.25834 -0.52522,-1.3125 z m -16,-5 c 0.04798,-1.16495 0.284941,-1.4019 0.604167,-0.60417 0.288871,0.72187 0.253344,1.58437 -0.07895,1.91667 -0.332292,0.33229 -0.568641,-0.25834 -0.52522,-1.3125 z M 37.8125,141.31689 c 0.721875,-0.28887 1.584375,-0.25335 1.916667,0.0789 0.332291,0.33229 -0.258334,0.56864 -1.3125,0.52522 -1.164943,-0.048 -1.4019,-0.28494 -0.604167,-0.60416 z"
       id="path388" /><path
       style="fill:#606060;fill-opacity:1"
       d="m -12.127555,413.25 c -1.243871,-1.58606 -1.208501,-1.62143 0.377555,-0.37756 1.665748,1.30637 2.1954789,2.12756 1.372445,2.12756 -0.207656,0 -0.995156,-0.7875 -1.75,-1.75 z M 106.5,202 c 2.70865,-2.75 5.14982,-5 5.42482,-5 0.275,0 -1.71617,2.25 -4.42482,5 -2.70865,2.75 -5.14982,5 -5.42482,5 -0.275,0 1.71617,-2.25 4.42482,-5 z m 8.5,-8.5 c 1.29175,-1.375 2.57363,-2.5 2.84863,-2.5 0.275,0 -0.55688,1.125 -1.84863,2.5 -1.29175,1.375 -2.57363,2.5 -2.84863,2.5 -0.275,0 0.55688,-1.125 1.84863,-2.5 z M 185.48295,167.75 174.5,156.5 l 11.25,10.98295 c 6.1875,6.04062 11.25,11.10312 11.25,11.25 0,0.72114 -1.31566,-0.53351 -11.51705,-10.98295 z M 58.078947,163.41667 c 0.04798,-1.16495 0.284941,-1.4019 0.604167,-0.60417 0.288871,0.72187 0.253344,1.58437 -0.07895,1.91667 -0.332292,0.33229 -0.568641,-0.25834 -0.52522,-1.3125 z m -16,-11 c 0.04798,-1.16495 0.284941,-1.4019 0.604167,-0.60417 0.288871,0.72187 0.253344,1.58437 -0.07895,1.91667 -0.332292,0.33229 -0.568641,-0.25834 -0.52522,-1.3125 z M 233,75.5 c 3.54322,-3.575 6.66722,-6.5 6.94222,-6.5 0.275,0 -2.399,2.925 -5.94222,6.5 -3.54322,3.575 -6.66722,6.5 -6.94222,6.5 -0.275,0 2.399,-2.925 5.94222,-6.5 z m 13,-13 c 2.98742,-3.025 5.65668,-5.5 5.93168,-5.5 0.275,0 -1.94426,2.475 -4.93168,5.5 -2.98742,3.025 -5.65668,5.5 -5.93168,5.5 -0.275,0 1.94426,-2.475 4.93168,-5.5 z m 15,-15 c 2.98742,-3.025 5.65668,-5.5 5.93168,-5.5 0.275,0 -1.94426,2.475 -4.93168,5.5 -2.98742,3.025 -5.65668,5.5 -5.93168,5.5 -0.275,0 1.94426,-2.475 4.93168,-5.5 z M 273.5,35 c 3.26557,-3.3 6.16239,-6 6.43739,-6 0.275,0 -2.17182,2.7 -5.43739,6 -3.26557,3.3 -6.16239,6 -6.43739,6 -0.275,0 2.17182,-2.7 5.43739,-6 z m 7.5,-7.377555 c 0,-0.207656 0.7875,-0.995156 1.75,-1.75 1.58606,-1.243871 1.62143,-1.208501 0.37756,0.377555 C 281.82119,27.915748 281,28.445479 281,27.622445 Z M 290.5,18 c 3.26557,-3.3 6.16239,-6 6.43739,-6 0.275,0 -2.17182,2.7 -5.43739,6 -3.26557,3.3 -6.16239,6 -6.43739,6 -0.275,0 2.17182,-2.7 5.43739,-6 z M 303,5.5 c 2.98742,-3.025 5.65668,-5.5 5.93168,-5.5 0.275,0 -1.94426,2.475 -4.93168,5.5 -2.98742,3.025 -5.65668,5.5 -5.93168,5.5 -0.275,0 1.94426,-2.475 4.93168,-5.5 z m 15,-15 c 2.98742,-3.025 5.65668,-5.5 5.93168,-5.5 0.275,0 -1.94426,2.475 -4.93168,5.5 -2.98742,3.025 -5.65668,5.5 -5.93168,5.5 -0.275,0 1.94426,-2.475 4.93168,-5.5 z m 13,-13 c 2.98742,-3.025 5.65668,-5.5 5.93168,-5.5 0.275,0 -1.94426,2.475 -4.93168,5.5 -2.98742,3.025 -5.65668,5.5 -5.93168,5.5 -0.275,0 1.94426,-2.475 4.93168,-5.5 z m 13.95821,-13.75 C 349.10217,-40.66519 350,-41.459094 350,-40.708208 c 0,0.160486 -2.1375,2.297986 -4.75,4.75 L 340.5,-31.5 Z M 411.98369,-58.75 400.5,-70.5 412.25,-59.016312 C 423.16409,-48.349592 424.45386,-47 423.73369,-47 c -0.14647,0 -5.43397,-5.2875 -11.75,-11.75 z M 369.5,-61 c 4.37419,-4.4 8.17808,-8 8.45308,-8 0.275,0 -3.07889,3.6 -7.45308,8 -4.37419,4.4 -8.17808,8 -8.45308,8 -0.275,0 3.07889,-3.6 7.45308,-8 z M 387,-78.5 c 4.65071,-4.675 8.68084,-8.5 8.95584,-8.5 0.275,0 -3.30513,3.825 -7.95584,8.5 -4.65071,4.675 -8.68084,8.5 -8.95584,8.5 -0.275,0 3.30513,-3.825 7.95584,-8.5 z"
       id="path387" /><path
       style="fill:#494949;fill-opacity:1"
       d="M -35.013894,380.25 -48.5,366.5 l 13.75,13.48611 c 7.5625,7.41735 13.75,13.60485 13.75,13.75 0,0.71695 -1.486171,-0.71325 -14.013894,-13.48611 z m 10.487074,-11.5 -6.97318,-7.25 7.25,6.97318 c 3.9875,3.83525 7.25,7.09775 7.25,7.25 0,0.73351 -1.050128,-0.23938 -7.52682,-6.97318 z M 290,108.5 C 372.22362,26.275 439.72249,-41 439.99749,-41 440.27249,-41 373.22362,26.275 291,108.5 208.77638,190.725 141.27751,258 141.00251,258 140.72751,258 207.77638,190.725 290,108.5 Z M 160.5,216 c 13.74175,-13.75 25.21,-25 25.485,-25 0.275,0 -10.74325,11.25 -24.485,25 -13.74175,13.75 -25.21,25 -25.485,25 -0.275,0 10.74325,-11.25 24.485,-25 z m -24,-22 c 14.29207,-14.3 26.21058,-26 26.48558,-26 0.275,0 -11.19351,11.7 -25.48558,26 -14.29207,14.3 -26.21058,26 -26.48558,26 -0.275,0 11.19351,-11.7 25.48558,-26 z M 96,212.68709 c 0,-0.1721 1.4625,-1.6346 3.25,-3.25 L 102.5,206.5 99.562909,209.75 C 96.825128,212.77946 96,213.45965 96,212.68709 Z M 126.5,182 c 3.26557,-3.3 6.16239,-6 6.43739,-6 0.275,0 -2.17182,2.7 -5.43739,6 -3.26557,3.3 -6.16239,6 -6.43739,6 -0.275,0 2.17182,-2.7 5.43739,-6 z m 126,-58 c 30.24625,-30.25 55.21818,-55 55.49318,-55 0.275,0 -24.24693,24.75 -54.49318,55 -30.24625,30.25 -55.21818,55 -55.49318,55 -0.275,0 24.24693,-24.75 54.49318,-55 z M 142,166.5 c 3.54322,-3.575 6.66722,-6.5 6.94222,-6.5 0.275,0 -2.399,2.925 -5.94222,6.5 -3.54322,3.575 -6.66722,6.5 -6.94222,6.5 -0.275,0 2.399,-2.925 5.94222,-6.5 z m -83.921053,-0.0833 c 0.04798,-1.16495 0.284941,-1.4019 0.604167,-0.60417 0.288871,0.72187 0.253344,1.58438 -0.07895,1.91667 -0.332292,0.33229 -0.568641,-0.25834 -0.52522,-1.3125 z M 151,157.68709 c 0,-0.1721 1.4625,-1.6346 3.25,-3.25 l 3.25,-2.93709 -2.93709,3.25 C 151.82513,157.77946 151,158.45965 151,157.68709 Z M 226,104.5 C 254.321,76.175 277.71772,53 277.99272,53 278.26772,53 255.321,76.175 227,104.5 198.679,132.825 175.28228,156 175.00728,156 174.73228,156 197.679,132.825 226,104.5 Z M 42.078947,149.41667 c 0.04798,-1.16495 0.284941,-1.4019 0.604167,-0.60417 0.288871,0.72187 0.253344,1.58437 -0.07895,1.91667 -0.332292,0.33229 -0.568641,-0.25834 -0.52522,-1.3125 z M 166.5,142 c 3.26557,-3.3 6.16239,-6 6.43739,-6 0.275,0 -2.17182,2.7 -5.43739,6 -3.26557,3.3 -6.16239,6 -6.43739,6 -0.275,0 2.17182,-2.7 5.43739,-6 z m -170,-14 c 4.9270658,-4.95 9.1833014,-9 9.4583014,-9 0.275,0 -3.5312356,4.05 -8.4583014,9 -4.9270658,4.95 -9.183301,9 -9.458301,9 -0.275,0 3.5312352,-4.05 8.458301,-9 z m 60.578947,5.41667 c 0.04798,-1.16495 0.284941,-1.4019 0.604167,-0.60417 0.288871,0.72187 0.253344,1.58437 -0.07895,1.91667 -0.332292,0.33229 -0.568641,-0.25834 -0.52522,-1.3125 z M 16.872445,130.25 c -1.243871,-1.58606 -1.208501,-1.62143 0.377555,-0.37756 0.9625,0.75485 1.75,1.54235 1.75,1.75 0,0.82304 -0.821186,0.29331 -2.127555,-1.37244 z M 177,131.62244 c 0,-0.20765 0.7875,-0.99515 1.75,-1.75 1.58606,-1.24387 1.62143,-1.2085 0.37756,0.37756 C 177.82119,131.91575 177,132.44548 177,131.62244 Z M 11.924314,125.25 9.5,122.5 l 2.75,2.42431 C 14.820289,127.1902 15.458588,128 14.674314,128 c -0.179127,0 -1.416627,-1.2375 -2.75,-2.75 z M 181,127.72497 c 0,-0.15126 3.4875,-3.63876 7.75,-7.75 l 7.75,-7.47497 -7.47497,7.75 C 182.08244,127.44803 181,128.45627 181,127.72497 Z M -9.5,112 c 7.6852632,-7.7 14.1982058,-14 14.4732058,-14 0.275,0 -5.78794263,6.3 -13.4732058,14 -7.685263,7.7 -14.198206,14 -14.473206,14 -0.275,0 5.787943,-6.3 13.473206,-14 z m 35.372445,5.25 c -1.243871,-1.58606 -1.208501,-1.62143 0.377555,-0.37756 0.9625,0.75485 1.75,1.54235 1.75,1.75 0,0.82304 -0.821186,0.29331 -2.127555,-1.37244 z M 197,111.62244 c 0,-0.20765 0.7875,-0.99515 1.75,-1.75 1.58606,-1.24387 1.62143,-1.2085 0.37756,0.37756 C 197.82119,111.91575 197,112.44548 197,111.62244 Z M 205.5,103 c 2.70865,-2.75 5.14982,-5 5.42482,-5 0.275,0 -1.71617,2.25 -4.42482,5 -2.70865,2.75 -5.14982,5 -5.42482,5 -0.275,0 1.71617,-2.25 4.42482,-5 z M 221,87.687091 c 0,-0.1721 1.4625,-1.6346 3.25,-3.25 L 227.5,81.5 224.56291,84.75 C 221.82513,87.779455 221,88.459652 221,87.687091 Z M 328.5,48 c 4.37419,-4.4 8.17808,-8 8.45308,-8 0.275,0 -3.07889,3.6 -7.45308,8 -4.37419,4.4 -8.17808,8 -8.45308,8 -0.275,0 3.07889,-3.6 7.45308,-8 z m -31,-15 c 4.37419,-4.4 8.17808,-8 8.45308,-8 0.275,0 -3.07889,3.6 -7.45308,8 -4.37419,4.4 -8.17808,8 -8.45308,8 -0.275,0 3.07889,-3.6 7.45308,-8 z m 59,-13 c 4.37419,-4.4 8.17808,-8 8.45308,-8 0.275,0 -3.07889,3.6 -7.45308,8 -4.37419,4.4 -8.17808,8 -8.45308,8 -0.275,0 3.07889,-3.6 7.45308,-8 z m -31,-15 c 4.37419,-4.4 8.17808,-8 8.45308,-8 0.275,0 -3.07889,3.6 -7.45308,8 -4.37419,4.4 -8.17808,8 -8.45308,8 -0.275,0 3.07889,-3.6 7.45308,-8 z M 378,-1.2750275 c 0,-0.1512652 3.4875,-3.6387652 7.75,-7.75 L 393.5,-16.5 386.02503,-8.75 C 379.08244,-1.5519713 378,-0.54372596 378,-1.2750275 Z M 354.5,-24 c 4.37419,-4.4 8.17808,-8 8.45308,-8 0.275,0 -3.07889,3.6 -7.45308,8 -4.37419,4.4 -8.17808,8 -8.45308,8 -0.275,0 3.07889,-3.6 7.45308,-8 z m 60,-14 c 4.92707,-4.95 9.1833,-9 9.4583,-9 0.275,0 -3.53123,4.05 -8.4583,9 -4.92707,4.95 -9.1833,9 -9.4583,9 -0.275,0 3.53123,-4.05 8.4583,-9 z M 352,-43.5 c 1.29175,-1.375 2.57363,-2.5 2.84863,-2.5 0.275,0 -0.55688,1.125 -1.84863,2.5 -1.29175,1.375 -2.57363,2.5 -2.84863,2.5 -0.275,0 0.55688,-1.125 1.84863,-2.5 z m 37,-15 c 6.30706,-6.325 11.69238,-11.5 11.96738,-11.5 0.275,0 -4.66032,5.175 -10.96738,11.5 -6.30706,6.325 -11.69238,11.5 -11.96738,11.5 -0.275,0 4.66032,-5.175 10.96738,-11.5 z m -30,8.122445 c 0,-0.207656 0.7875,-0.995156 1.75,-1.75 1.58606,-1.243871 1.62143,-1.208501 0.37756,0.377555 C 359.82119,-50.084252 359,-49.554521 359,-50.377555 Z"
       id="path386" /><path
       style="fill:#333333;fill-opacity:1"
       d="m 4.1467653,421.92496 c -11.1944125,-2.201 -24.0393513,-15.42931 -24.1248033,-24.84484 -0.01592,-1.75461 -3.784333,-6.21692 -13.707168,-16.23115 -11.492693,-11.59856 -14.482179,-14.07598 -18.65974,-15.46354 -6.859907,-2.2785 -13.057629,-8.63459 -15.088833,-15.47439 -2.05381,-6.91593 -2.0663,-22.86409 -0.0233,-29.74363 1.893261,-6.37531 6.389224,-11.67275 12.321837,-14.51841 l 4.480224,-2.149 5.822425,-17.46309 c 5.336186,-16.00473 5.676703,-17.54177 4.077506,-18.40519 -0.959705,-0.51816 -3.415253,-2.67317 -5.456774,-4.78892 C -51.135065,257.74058 -53,251.19015 -53,239 c 0,-12.891 1.84701,-18.89964 7.568283,-24.62091 l 4.435841,-4.43585 -9.198795,-15.72162 c -5.059338,-8.64689 -10.65987,-17.38231 -12.445626,-19.41203 C -65.609199,171.43507 -69,163.00588 -69,159 c 0,-0.90035 0.724735,-4.07744 1.610521,-7.06021 1.337072,-4.50241 3.077415,-6.93198 10.25,-14.30931 12.226734,-12.57575 19.558113,-15.58549 30.538277,-12.53681 l 3.898799,1.08251 13.8512015,-13.82469 C -1.2330407,104.74791 5,98.025783 5,97.413436 5,96.801088 6.3087877,94.493348 7.9084171,92.285124 13.992182,83.88673 27.104438,80.59559 36.854329,85.019779 42.199021,87.44503 55.241204,99.887288 58.846146,106 c 3.417192,5.79435 3.705425,16.24895 0.620324,22.5 -1.783245,3.61322 -1.943421,5.71075 -1.656519,21.69236 l 0.317614,17.69235 4.402332,2.57994 C 71.588833,175.77354 75,183.57932 75,199 c 0,10.38912 -1.491568,17.07286 -4.868334,21.81509 -1.628683,2.28728 -1.82632,3.18013 -0.869664,3.92882 C 71.796748,226.72764 84.888175,234 85.924473,234 86.516013,234 87,232.95516 87,231.67814 c 0,-1.27702 0.729021,-4.53952 1.620047,-7.25 1.492541,-4.54027 13.711563,-17.03156 155.250003,-158.70932 84.49647,-84.579649 154.62855,-154.037444 155.84905,-154.350654 1.34675,-0.345606 3.50887,0.232949 5.5,1.471729 4.02868,2.506432 35.05439,33.757328 36.73661,37.003246 0.66789,1.288727 0.96512,3.313727 0.6605,4.5 -0.30462,1.186272 -69.75538,71.290338 -154.33503,155.786809 -141.67776,141.53844 -154.16905,153.75746 -158.70932,155.25 -5.56193,1.8284 -15.26985,2.10943 -20.70613,0.59942 -1.99885,-0.55521 -6.94885,-3.18246 -10.999998,-5.83834 -16.104746,-10.55805 -48.809089,-29.23201 -53.780714,-30.70842 -7.143124,-2.12128 -13.396817,-8.37609 -15.518797,-15.52157 -1.984629,-6.68298 -2.068079,-22.92563 -0.150519,-29.2972 1.812854,-6.02365 5.638781,-11.01468 10.626712,-13.86282 L 42.984596,168.5 42.983606,160 c -5.45e-4,-4.675 -0.28476,-10.8625 -0.631589,-13.75 L 41.721418,141 H 37.32859 c -7.043172,0 -11.212586,-2.46817 -21.584604,-12.77745 l -9.7560135,-9.69701 -9.0834506,9.08345 -9.0834509,9.08345 1.083888,3.90378 c 3.0229647,10.88765 0.01342,18.35461 -12.153431,30.15374 -4.678886,4.53747 -10.137069,8.93101 -12.129297,9.76342 C -37.369996,181.34578 -39,182.2306 -39,182.47964 c 0,0.24903 3.203126,5.87995 7.118057,12.51313 6.716418,11.37983 7.41789,12.20218 12.431872,14.57418 C -8.8421762,214.58528 -5,222.41133 -5,239 c 0,15.95371 -3.8672117,24.08774 -13.927101,29.29331 l -4.4271,2.29085 -5.829417,17.45574 c -4.172988,12.4957 -5.472378,17.56642 -4.5729,17.8452 0.691085,0.2142 3.147155,2.33776 5.457934,4.71903 C -22.841568,316.22761 -21,322.38314 -21,335 c 0,11.69233 -1.766741,18.19922 -6.416309,23.63119 l -3.461369,4.04383 6.688839,6.62989 6.688839,6.62989 4.745976,-5.39188 c 2.9660045,-3.36967 6.904013,-6.45159 10.4999996,-8.2174 L 3.5,359.5 l 216.81357,-0.26336 216.81356,-0.26335 2.93644,2.93643 L 443,364.84615 V 391 417.15385 l -2.92308,2.92307 L 437.15385,423 222.82692,422.89043 C 104.94712,422.83017 6.5410444,422.39571 4.1467653,421.92496 Z M 91,391 V 375 H 48.647883 6.2957664 l -3.3740866,2.2738 c -10.6399942,7.17029 -10.6399942,20.28211 0,27.4524 L 6.2957664,407 H 48.647883 91 Z m 172.74753,14.75 c -0.25655,-0.6875 -2.65558,-7.8875 -5.33118,-16 L 253.55161,375 H 180.27581 107 v 16 16 h 78.60699 c 62.4677,0 78.51122,-0.25665 78.14054,-1.25 z m 40,0 c -0.25655,-0.6875 -2.65558,-7.8875 -5.33118,-16 L 293.55161,375 h -11.88279 c -9.08834,0 -11.7731,0.29396 -11.41635,1.25 0.25655,0.6875 2.65558,7.8875 5.33118,16 l 4.86474,14.75 h 11.88279 c 9.08834,0 11.7731,-0.29396 11.41635,-1.25 z m 40,0 c -0.25655,-0.6875 -2.65558,-7.8875 -5.33118,-16 L 333.55161,375 h -11.88279 c -9.08834,0 -11.7731,0.29396 -11.41635,1.25 0.25655,0.6875 2.65558,7.8875 5.33118,16 l 4.86474,14.75 h 11.88279 c 9.08834,0 11.7731,-0.29396 11.41635,-1.25 z m 40,0 c -0.25655,-0.6875 -2.65558,-7.8875 -5.33118,-16 L 373.55161,375 h -11.88279 c -9.08834,0 -11.7731,0.29396 -11.41635,1.25 0.25655,0.6875 2.65558,7.8875 5.33118,16 l 4.86474,14.75 h 11.88279 c 9.08834,0 11.7731,-0.29396 11.41635,-1.25 z M 427,391 v -16 h -18.60699 c -14.4677,0 -18.50322,0.27807 -18.14054,1.25 0.25655,0.6875 2.65558,7.8875 5.33118,16 L 400.44839,407 H 413.72419 427 Z M -39.454545,348.54545 C -37.143567,346.23448 -37,345.4422 -37,335 -37,324.5578 -37.143567,323.76552 -39.454545,321.45455 -41.001783,319.90731 -43.051627,319 -45,319 c -1.948373,0 -3.998217,0.90731 -5.545455,2.45455 C -52.856433,323.76552 -53,324.5578 -53,335 c 0,10.4422 0.143567,11.23448 2.454545,13.54545 C -48.998217,350.09269 -46.948373,351 -45,351 c 1.948373,0 3.998217,-0.90731 5.545455,-2.45455 z m 16,-96 C -21.143567,250.23448 -21,249.4422 -21,239 -21,228.5578 -21.143567,227.76552 -23.454545,225.45455 -25.001783,223.90731 -27.051627,223 -29,223 c -1.948373,0 -3.998217,0.90731 -5.545455,2.45455 C -36.856433,227.76552 -37,228.5578 -37,239 c 0,10.4422 0.143567,11.23448 2.454545,13.54545 C -32.998217,254.09269 -30.948373,255 -29,255 c 1.948373,0 3.998217,-0.90731 5.545455,-2.45455 z M 124.5565,250.54084 c 2.14751,-0.89729 14.74611,-12.62562 32.71788,-30.45786 L 186.5,191.08429 174.71118,179.29215 162.92236,167.5 134.5611,196.06152 c -15.59869,15.70884 -29.30454,30.10884 -30.45744,32 -7.889287,12.94121 6.20532,28.43231 20.45284,22.47932 z M 56.545455,212.54545 C 58.856433,210.23448 59,209.4422 59,199 59,188.5578 58.856433,187.76552 56.545455,185.45455 54.998217,183.90731 52.948373,183 51,183 c -1.948373,0 -3.998217,0.90731 -5.545455,2.45455 C 43.143567,187.76552 43,188.5578 43,199 c 0,10.4422 0.143567,11.23448 2.454545,13.54545 C 47.001783,214.09269 49.051627,215 51,215 c 1.948373,0 3.998217,-0.90731 5.545455,-2.45455 z M 253.38408,124.11594 C 283.56657,93.929701 308.006,68.81872 307.69391,68.313757 307.38183,67.808793 300.55918,64.059604 292.53248,59.982225 L 277.93847,52.568808 226.46923,104.03076 C 198.16115,132.33484 175,155.93701 175,156.48003 175,157.79166 196.17668,179 197.48635,179 c 0.56126,0 25.71524,-24.69783 55.89773,-54.88406 z M -34.286558,159.75 c 4.125156,-3.9875 7.884656,-8.24566 8.354445,-9.46258 1.380835,-3.57686 -0.840088,-8.29429 -4.655379,-9.88842 -4.641371,-1.93929 -6.697477,-0.8697 -15.162508,7.88756 -8.244111,8.52871 -9.219295,11.83505 -4.795455,16.25889 4.423841,4.42385 7.730184,3.44866 16.258897,-4.79545 z m 77.12717,-35.35091 c 6.172831,-4.32362 4.592454,-9.857 -5.611938,-19.64909 -8.035529,-7.710859 -11.433439,-8.636144 -15.774129,-4.29545 -5.105459,5.10545 -2.588892,10.57505 9.798072,21.29545 5.271855,4.56257 7.974139,5.18033 11.587995,2.64909 z m 286.587038,-76.326312 7.88073,-7.927222 -15.65912,-7.810275 -15.65912,-7.810274 -8.19961,8.199618 c -4.50979,4.509789 -7.99508,8.39062 -7.74508,8.624069 1.31276,1.22584 28.68207,14.554361 29.97801,14.598922 0.8379,0.02881 5.06979,-3.514866 9.40419,-7.874838 z m 28.0425,-28.042753 c 4.35778,-4.383487 7.72222,-8.157537 7.47654,-8.386779 C 363.74047,10.517729 335.85542,-3 334.73987,-3 c -0.70774,0 -4.82984,3.56394801 -9.16022,7.9198845 l -7.87344,7.9198845 14.8969,7.527519 c 8.19329,4.140136 15.35745,7.551188 15.92035,7.580116 0.5629,0.02893 4.58891,-3.533893 8.94669,-7.917379 z M 385.11484,-7.6734139 C 389.45168,-11.893792 393,-15.715975 393,-16.167156 c 0,-0.45118 -6.81631,-4.234169 -15.14735,-8.406641 l -15.14735,-7.586314 -7.85265,7.806595 C 350.53369,-20.059888 347,-16.201805 347,-15.779998 c 0,0.596022 28.30643,15.50273686 29.86484,15.72740187 0.20066,0.02892787 3.91316,-3.40044017 8.25,-7.62081777 z M 415.50775,-38.007783 424.4738,-47.015566 412.69111,-58.757783 400.90843,-70.5 l -13.14302,13.39874 -13.14302,13.39874 14.4388,7.2988 c 7.94135,4.01434 15.12319,7.322407 15.95966,7.35126 0.83647,0.02885 5.55557,-4.001042 10.4869,-8.955323 z"
       id="path385" /></g><path
     style="fill:#ffffff;stroke:none;stroke-width:15.9978;stroke-linecap:round;stroke-dasharray:none"
     d="m 463.21848,54.991646 c -2.79065,-1.257023 -9.44129,-4.47684 -14.77919,-7.155148 l -9.70528,-4.869651 12.86366,-12.82056 12.86366,-12.820559 10.92248,11.15631 10.92248,11.156309 -8.84288,8.833516 c -4.86358,4.858434 -8.91671,8.827163 -9.00694,8.819398 -0.0902,-0.0078 -2.44734,-1.042592 -5.23799,-2.299615 z"
     id="path393" /><path
     style="fill:#ffffff;stroke:none;stroke-width:15.9978;stroke-linecap:round;stroke-dasharray:none"
     d="m 432.17807,82.317065 c -3.77559,-1.992935 -10.09505,-5.369718 -14.04324,-7.503962 l -7.17854,-3.880444 7.77547,-7.937734 7.77546,-7.937733 13.43095,6.823764 c 7.38702,3.753071 13.95928,7.218769 14.60501,7.701552 1.11878,0.836458 0.81004,1.242608 -6.55763,8.626673 -4.25243,4.261888 -8.00418,7.744953 -8.33723,7.740145 -0.33305,-0.0048 -3.69466,-1.639326 -7.47025,-3.632261 z"
     id="path394" /><path
     style="fill:#ffffff;stroke:none;stroke-width:15.9978;stroke-linecap:round;stroke-dasharray:none"
     d="m 396.57484,106.85423 -14.41217,-7.146274 7.77946,-7.86033 7.77946,-7.860331 2.15573,0.77461 c 3.07432,1.104685 27.5253,12.981505 27.5253,13.370142 0,0.549421 -15.361,15.882203 -15.90434,15.875113 -0.28119,-0.004 -6.99674,-3.22249 -14.92344,-7.15293 z"
     id="path395" /><path
     style="fill:#ffffff;stroke:none;stroke-width:15.9978;stroke-linecap:round;stroke-dasharray:none"
     d="m 368.33884,135.174 c -7.69752,-3.7777 -14.08077,-6.95381 -14.18499,-7.05803 -0.10422,-0.10422 3.38814,-3.81712 7.76079,-8.25089 l 7.95029,-8.0614 14.74022,7.37484 14.74021,7.37483 -7.73808,7.75812 c -4.25595,4.26696 -8.08343,7.75203 -8.50552,7.74459 -0.42209,-0.007 -7.0654,-3.10437 -14.76292,-6.88206 z"
     id="path396" /><path
     style="fill:#ffffff;stroke:none;stroke-width:15.9978;stroke-linecap:round;stroke-dasharray:none"
     d="m 249.6082,254.08529 -10.94009,-10.95209 51.62751,-51.65552 51.62751,-51.65551 12.4455,6.4079 c 6.84502,3.52435 13.34023,6.95482 14.4338,7.62327 l 1.98831,1.21537 -54.90884,54.98434 c -30.19986,30.24138 -55.00441,54.98433 -55.12122,54.98433 -0.11681,0 -5.13543,-4.92844 -11.15248,-10.95209 z"
     id="path397" /><path
     style="fill:#ffffff;stroke:none;stroke-width:15.9978;stroke-linecap:round;stroke-dasharray:none"
     d="m 175.58951,336.98556 c -3.33294,-1.5085 -6.33675,-4.25225 -7.97712,-7.28649 -1.72773,-3.19582 -2.07209,-4.75392 -1.39497,-6.31168 0.24974,-0.57455 0.24974,-1.51472 0,-2.08926 -0.67301,-1.54831 -0.33683,-3.14884 1.23036,-5.85766 0.77174,-1.33392 14.41604,-15.47057 30.32067,-31.41479 l 28.91749,-28.98949 11.06817,11.06817 11.06817,11.06816 -27.58115,27.5098 c -15.16962,15.13039 -29.13224,28.69681 -31.02804,30.14759 -3.2837,2.51291 -3.66418,2.64778 -8.0365,2.84875 -3.2103,0.14756 -5.1899,-0.0607 -6.58708,-0.6931 z"
     id="path398" /><path
     style="fill:#ffffff;stroke:none;stroke-width:15.9978;stroke-linecap:round;stroke-dasharray:none"
     d="m 111.30819,300.25767 c -4.09452,-2.0268 -4.45785,-3.2271 -4.4553,-14.71827 0.003,-11.43054 0.43986,-12.87649 4.47337,-14.79052 2.56122,-1.21537 4.92901,-0.94963 7.43442,0.83438 2.77928,1.97902 3.11175,3.67549 2.90428,14.8196 -0.18438,9.90439 -0.22976,10.22264 -1.68182,11.79471 -1.33387,1.44411 -4.56111,3.25338 -5.80091,3.25213 -0.25678,-2.6e-4 -1.5501,-0.53667 -2.87404,-1.19203 z"
     id="path399" /><path
     style="fill:#ffffff;stroke:none;stroke-width:15.9978;stroke-linecap:round;stroke-dasharray:none"
     d="m 97.822933,210.20126 c -4.088715,-2.59298 -12.649978,-11.3958 -14.202818,-14.60354 -1.613264,-3.33255 -1.378779,-4.89832 1.167943,-7.79888 4.193161,-4.77574 7.077206,-3.8688 16.104212,5.06429 9.15117,9.05595 10.37908,12.52287 5.93325,16.75209 -3.00224,2.85596 -5.19792,2.99889 -9.002587,0.58604 z"
     id="path400" /><path
     style="fill:#ffffff;stroke:none;stroke-width:15.9978;stroke-linecap:round;stroke-dasharray:none"
     d="m 13.696093,251.48679 c -2.49304,-2.09775 -3.557594,-4.63116 -2.903866,-6.91058 1.17744,-4.10549 12.956059,-16.41933 16.974107,-17.7454 1.81097,-0.59767 2.457979,-0.51758 4.739072,0.58668 3.048774,1.47589 5.493389,5.53273 4.858435,8.06259 -0.768705,3.06277 -10.890301,13.48072 -16.667843,17.15588 -1.615542,1.02766 -5.090957,0.45711 -6.999905,-1.14917 z"
     id="path401" /><path
     style="fill:#ffffff;stroke:none;stroke-width:15.9978;stroke-linecap:round;stroke-dasharray:none"
     d="m 31.319431,340.25205 c -4.094515,-2.0268 -4.457853,-3.2271 -4.455303,-14.71827 0.0025,-11.43054 0.439863,-12.87649 4.473377,-14.79052 2.561219,-1.21537 4.929002,-0.94964 7.434413,0.83438 2.779285,1.97902 3.111752,3.67549 2.904287,14.8196 -0.184385,9.90439 -0.229764,10.22264 -1.681826,11.79471 -1.333865,1.44411 -4.561104,3.25338 -5.800904,3.25213 -0.25678,-2.6e-4 -1.550099,-0.53667 -2.874044,-1.19203 z"
     id="path402" /><path
     style="fill:#ffffff;stroke:none;stroke-width:15.9978;stroke-linecap:round;stroke-dasharray:none"
     d="m 13.272949,434.91155 -2.229725,-2.04197 -0.189498,-10.27274 c -0.131003,-7.10172 0.03448,-10.81347 0.536081,-12.02445 0.924616,-2.23223 4.472544,-4.65995 6.805925,-4.65706 2.142247,0.003 5.27204,1.78711 6.489678,3.70009 0.889881,1.39806 1.253776,7.41363 1.071207,17.70819 -0.08798,4.96092 -0.104353,5.01068 -2.40608,7.31241 -2.024992,2.02499 -2.666506,2.3175 -5.082679,2.3175 -2.315511,0 -3.127779,-0.33207 -4.994909,-2.04197 z"
     id="path403" /><path
     style="fill:#ffffff;stroke:none;stroke-width:15.9978;stroke-linecap:round;stroke-dasharray:none"
     d="m 66.207288,490.72172 c -10.130683,-7.34725 -10.134318,-18.7105 -0.0084,-26.31896 l 3.165008,-2.37814 h 42.322164 42.32217 v 15.52021 15.5202 H 111.72328 69.43835 Z"
     id="path404" /><path
     style="fill:#ffffff;stroke:none;stroke-width:15.9978;stroke-linecap:round;stroke-dasharray:none"
     d="m 170.72228,477.56598 v -15.54136 h 73.0085 73.0085 l 4.86008,15.05368 c 2.67304,8.27953 4.71737,15.19647 4.54296,15.37098 -0.17441,0.17451 -35.21527,0.39396 -77.86858,0.48767 l -77.55146,0.17038 z"
     id="path405" /><path
     style="fill:#ffffff;stroke:none;stroke-width:7.99888;stroke-linecap:round;stroke-dasharray:none"
     d="m 338.75214,477.97386 c -2.82142,-8.4643 -5.06192,-15.45756 -4.97889,-15.54059 0.47885,-0.47886 5.35751,-0.70718 13.61703,-0.63726 l 9.37807,0.0794 5.04159,15.3274 c 2.77287,8.43007 4.98434,15.38465 4.91437,15.45461 -0.46567,0.46567 -4.92487,0.70287 -13.24166,0.70437 l -9.60065,0.002 z"
     id="path406" /><path
     style="fill:#ffffff;stroke:none;stroke-width:7.99888;stroke-linecap:round;stroke-dasharray:none"
     d="m 418.7409,477.97386 c -2.82142,-8.4643 -5.06193,-15.45756 -4.9789,-15.54059 0.47894,-0.47894 5.35845,-0.70718 13.62421,-0.63726 l 9.38525,0.0794 5.03554,15.32627 c 2.76954,8.42945 4.97779,15.38403 4.9072,15.45461 -0.46683,0.46682 -4.91884,0.704 -13.24279,0.7055 l -9.60065,0.002 z"
     id="path408" /><path
     style="fill:#ffffff;stroke:none;stroke-width:7.99888;stroke-linecap:round;stroke-dasharray:none"
     d="m 378.74652,477.97386 c -2.82142,-8.4643 -5.06193,-15.45756 -4.9789,-15.54059 0.47889,-0.47889 5.35786,-0.70718 13.61968,-0.63726 l 9.38072,0.0794 5.03913,15.32721 c 2.77152,8.42997 4.98179,15.38455 4.91173,15.45461 -0.46586,0.46587 -4.92388,0.70306 -13.24185,0.70456 l -9.60065,0.002 z"
     id="path409" /><path
     style="fill:#ffffff;stroke:none;stroke-width:7.99888;stroke-linecap:round;stroke-dasharray:none"
     d="m 458.76992,478.07887 c -2.81906,-8.45538 -4.98199,-15.39858 -4.8409,-15.53967 0.56618,-0.56619 6.59593,-0.79727 21.00423,-0.80496 l 15.14713,-0.008 v 15.81868 15.81867 h -13.10726 -13.10725 z"
     id="path410" /></svg>
