<?xml version="1.0" encoding="UTF-8" standalone="no"?>
<!-- Created with Inkscape (http://www.inkscape.org/) -->

<svg
   width="512"
   height="512"
   viewBox="0 0 512 512"
   version="1.1"
   id="svg1"
   xml:space="preserve"
   xmlns="http://www.w3.org/2000/svg"
   xmlns:svg="http://www.w3.org/2000/svg"><defs
     id="defs1" /><g
     id="g604"
     transform="matrix(0.58822745,-0.19185448,0.19185448,0.58822745,65.781826,260.61579)"><path
       style="fill:#d0d0d0;fill-opacity:1"
       d="m 4.2723641,257 c 0,-2.475 0.195016,-3.4875 0.4333689,-2.25 0.2383529,1.2375 0.2383529,3.2625 0,4.5 -0.2383529,1.2375 -0.4333689,0.225 -0.4333689,-2.25 z M 323.5,209 c 0.99549,-1.1 2.03498,-2 2.30998,-2 0.275,0 -0.31449,0.9 -1.30998,2 -0.99549,1.1 -2.03498,2 -2.30998,2 -0.275,0 0.31449,-0.9 1.30998,-2 z M 216.87244,177.25 c -1.24387,-1.58606 -1.2085,-1.62143 0.37756,-0.37756 0.9625,0.75485 1.75,1.54235 1.75,1.75 0,0.82304 -0.82119,0.29331 -2.12756,-1.37244 z M 225.75,56.337719 c 0.6875,-0.277412 1.8125,-0.277412 2.5,0 0.6875,0.277413 0.125,0.504386 -1.25,0.504386 -1.375,0 -1.9375,-0.226973 -1.25,-0.504386 z m 33.51903,-0.03071 c 0.97297,-0.253543 2.32297,-0.236869 3,0.03705 0.67703,0.273923 -0.11903,0.481368 -1.76903,0.460988 -1.65,-0.02038 -2.20394,-0.244498 -1.23097,-0.498042 z m 6.54347,0.0099 c 0.72187,-0.288871 1.58438,-0.253344 1.91667,0.07895 0.33229,0.332292 -0.25834,0.568641 -1.3125,0.52522 -1.16495,-0.04798 -1.4019,-0.284941 -0.60417,-0.604167 z m 7.94916,-0.02415 c 1.24391,-0.239193 3.04391,-0.230112 4,0.02018 0.95609,0.250292 -0.0617,0.445996 -2.26166,0.434897 -2.2,-0.0111 -2.98225,-0.215885 -1.73834,-0.455077 z m 15.50737,0.01427 c 0.97297,-0.253543 2.32297,-0.236869 3,0.03705 0.67703,0.273923 -0.11903,0.481368 -1.76903,0.460988 -1.65,-0.02038 -2.20394,-0.244498 -1.23097,-0.498042 z m 9.48097,-0.03041 c 1.7875,-0.221826 4.7125,-0.221826 6.5,0 1.7875,0.221827 0.325,0.403322 -3.25,0.403322 -3.575,0 -5.0375,-0.181495 -3.25,-0.403322 z m 25.9777,0.0017 c 1.77523,-0.220912 4.92523,-0.224542 7,-0.0081 2.07476,0.216475 0.6223,0.397221 -3.2277,0.401658 -3.85,0.0044 -5.54754,-0.17268 -3.7723,-0.393592 z M 175.37817,14 c 0,-6.325 0.16237,-8.9125 0.36082,-5.75 0.19845,3.1625 0.19845,8.3375 0,11.5 -0.19845,3.1625 -0.36082,0.575 -0.36082,-5.75 z m 167.97124,1 c 0,-4.675 0.17226,-6.5875 0.3828,-4.25 0.21053,2.3375 0.21053,6.1625 0,8.5 -0.21054,2.3375 -0.3828,0.425 -0.3828,-4.25 z M 128.19495,4.5 c 0.0204,-1.65 0.2445,-2.2039356 0.49804,-1.2309681 0.25354,0.9729675 0.23687,2.3229675 -0.0371,3 C 128.38201,6.9460644 128.17457,6.15 128.19495,4.5 Z m 47.05723,-6 c 0.0111,-2.2 0.21589,-2.9822534 0.45508,-1.7383408 0.23919,1.2439125 0.23011,3.04391251 -0.0202,3.99999997 C 175.43679,1.7177466 175.24108,0.7 175.25218,-1.5 Z m 94.01157,0.78241877 c 1.52006,-0.22985437 3.77006,-0.22371186 5,0.01365 1.22994,0.2373619 -0.0138,0.42542457 -2.76375,0.41791704 -2.75,-0.007508 -3.75631,-0.2017127 -2.23625,-0.43156704 z M 289.75,-0.74250656 c 3.9875,-0.1898119 10.5125,-0.1898119 14.5,0 3.9875,0.1898119 0.725,0.34511255 -7.25,0.34511255 -7.975,0 -11.2375,-0.15530065 -7.25,-0.34511255 z M 175.38176,-33.5 c 0.002,-6.6 0.16382,-9.169866 0.35965,-5.710812 0.19583,3.459053 0.19422,8.859053 -0.004,12 C 175.5396,-24.069866 175.37938,-26.9 175.38135,-33.5 Z m 167.69719,6.916667 c 0.048,-1.164943 0.28494,-1.4019 0.60416,-0.604167 0.28887,0.721875 0.25335,1.584375 -0.0789,1.916667 -0.33229,0.332291 -0.56864,-0.258334 -0.52522,-1.3125 z m 65.1848,-12.134248 c 1.52006,-0.229855 3.77006,-0.223712 5,0.01365 1.22994,0.237362 -0.0138,0.425424 -2.76375,0.417917 -2.75,-0.0075 -3.75631,-0.201713 -2.23625,-0.431567 z M 175.39172,-69 c 0,-7.425 0.15742,-10.4625 0.34983,-6.75 0.19241,3.7125 0.19241,9.7875 0,13.5 -0.19241,3.7125 -0.34983,0.675 -0.34983,-6.75 z M 370.232,-70 c 0,-1.925 0.2058,-2.7125 0.45733,-1.75 0.25152,0.9625 0.25152,2.5375 0,3.5 -0.25153,0.9625 -0.45733,0.175 -0.45733,-1.75 z M 175.07895,-87.583333 c 0.048,-1.164943 0.28494,-1.4019 0.60416,-0.604167 0.28887,0.721875 0.25335,1.584375 -0.0789,1.916667 -0.33229,0.332291 -0.56864,-0.258334 -0.52522,-1.3125 z m 13.68271,-4.123928 c 1.24391,-0.239193 3.04391,-0.230112 4,0.02018 0.95609,0.250292 -0.0617,0.445996 -2.26166,0.434897 -2.2,-0.0111 -2.98225,-0.215885 -1.73834,-0.455077 z M 240.25,-91.74875 c 10.8625,-0.161441 28.6375,-0.161441 39.5,0 10.8625,0.161441 1.975,0.29353 -19.75,0.29353 -21.725,0 -30.6125,-0.132089 -19.75,-0.29353 z m 64,0.01371 c 2.6125,-0.205999 6.8875,-0.205999 9.5,0 2.6125,0.205998 0.475,0.374543 -4.75,0.374543 -5.225,0 -7.3625,-0.168545 -4.75,-0.374543 z m 16.51166,0.02778 c 1.24391,-0.239193 3.04391,-0.230112 4,0.02018 0.95609,0.250292 -0.0617,0.445996 -2.26166,0.434897 -2.2,-0.0111 -2.98225,-0.215885 -1.73834,-0.455077 z m 6.98834,0.04498 c 0.6875,-0.277412 1.8125,-0.277412 2.5,0 0.6875,0.277413 0.125,0.504386 -1.25,0.504386 -1.375,0 -1.9375,-0.226973 -1.25,-0.504386 z m 119,-0.04345 c 1.2375,-0.238353 3.2625,-0.238353 4.5,0 1.2375,0.238353 0.225,0.433369 -2.25,0.433369 -2.475,0 -3.4875,-0.195016 -2.25,-0.433369 z m 12.02643,-0.02776 c 2.35204,-0.211245 5.95204,-0.208273 8,0.0066 2.04796,0.214878 0.12357,0.387715 -4.27643,0.384083 -4.4,-0.0036 -6.07561,-0.179441 -3.72357,-0.390687 z m 18.01276,-0.0079 c 3.45905,-0.19583 8.85905,-0.194213 12,0.0036 3.14094,0.197808 0.31081,0.358032 -6.28919,0.356055 -6.6,-0.002 -9.16987,-0.16382 -5.71081,-0.35965 z m 24.96081,-0.0011 c 3.9875,-0.189811 10.5125,-0.189811 14.5,0 3.9875,0.189812 0.725,0.345113 -7.25,0.345113 -7.975,0 -11.2375,-0.155301 -7.25,-0.345113 z m 56.01791,0.01778 c 1.79735,-0.222562 4.49735,-0.217969 6,0.0102 1.50265,0.228174 0.0321,0.41027 -3.26791,0.404657 -3.3,-0.0056 -4.52944,-0.192301 -2.73209,-0.414862 z m 10.50112,0.03174 c 0.97297,-0.253543 2.32297,-0.236869 3,0.03705 0.67703,0.273923 -0.11903,0.481368 -1.76903,0.460988 -1.65,-0.02038 -2.20394,-0.244498 -1.23097,-0.498042 z m 8.49263,-0.01427 c 1.24391,-0.239193 3.04391,-0.230112 4,0.02018 0.95609,0.250292 -0.0617,0.445996 -2.26166,0.434897 -2.2,-0.0111 -2.98225,-0.215885 -1.73834,-0.455077 z m 6.98834,0.04498 c 0.6875,-0.277412 1.8125,-0.277412 2.5,0 0.6875,0.277413 0.125,0.504386 -1.25,0.504386 -1.375,0 -1.9375,-0.226973 -1.25,-0.504386 z m 9.01166,-0.04498 c 1.24391,-0.239193 3.04391,-0.230112 4,0.02018 0.95609,0.250292 -0.0617,0.445996 -2.26166,0.434897 -2.2,-0.0111 -2.98225,-0.215885 -1.73834,-0.455077 z m 7.50737,0.01427 c 0.97297,-0.253543 2.32297,-0.236869 3,0.03705 0.67703,0.273923 -0.11903,0.481368 -1.76903,0.460988 -1.65,-0.02038 -2.20394,-0.244498 -1.23097,-0.498042 z m 10.48097,0.03071 c 0.6875,-0.277412 1.8125,-0.277412 2.5,0 0.6875,0.277413 0.125,0.504386 -1.25,0.504386 -1.375,0 -1.9375,-0.226973 -1.25,-0.504386 z m 33.0625,-0.02083 c 0.72187,-0.288871 1.58438,-0.253344 1.91667,0.07895 0.33229,0.332292 -0.25834,0.568641 -1.3125,0.52522 -1.16495,-0.04798 -1.4019,-0.284941 -0.60417,-0.604167 z m 9.4375,-0.05192 c 2.6125,-0.205999 6.8875,-0.205999 9.5,0 2.6125,0.205998 0.475,0.374543 -4.75,0.374543 -5.225,0 -7.3625,-0.168545 -4.75,-0.374543 z m 28.5,0.01164 c 1.7875,-0.221826 4.7125,-0.221826 6.5,0 1.7875,0.221827 0.325,0.403322 -3.25,0.403322 -3.575,0 -5.0375,-0.181495 -3.25,-0.403322 z m 17.0625,0.04028 c 0.72187,-0.288871 1.58438,-0.253344 1.91667,0.07895 0.33229,0.332292 -0.25834,0.568641 -1.3125,0.52522 -1.16495,-0.04798 -1.4019,-0.284941 -0.60417,-0.604167 z m 7.96393,-0.05038 c 2.35204,-0.211245 5.95204,-0.208273 8,0.0066 2.04796,0.214878 0.12357,0.387715 -4.27643,0.384083 -4.4,-0.0036 -6.07561,-0.179441 -3.72357,-0.390687 z m 17.97357,-0.0069 c 3.4375,-0.195271 9.0625,-0.195271 12.5,0 3.4375,0.195271 0.625,0.355038 -6.25,0.355038 -6.875,0 -9.6875,-0.159767 -6.25,-0.355038 z m -555,-28 c 3.4375,-0.19527 9.0625,-0.19527 12.5,0 3.4375,0.19527 0.625,0.35504 -6.25,0.35504 -6.875,0 -9.6875,-0.15977 -6.25,-0.35504 z m 26.5,-0.003 c 4.2625,-0.18745 11.2375,-0.18745 15.5,0 4.2625,0.18745 0.775,0.34082 -7.75,0.34082 -8.525,0 -12.0125,-0.15337 -7.75,-0.34082 z m 33.5,8e-4 c 3.9875,-0.18981 10.5125,-0.18981 14.5,0 3.9875,0.18982 0.725,0.34512 -7.25,0.34512 -7.975,0 -11.2375,-0.1553 -7.25,-0.34512 z m 26.9777,0.0208 c 1.77523,-0.22091 4.92523,-0.22454 7,-0.008 2.07476,0.21648 0.6223,0.39722 -3.2277,0.40166 -3.85,0.004 -5.54754,-0.17268 -3.7723,-0.39359 z m 15.5223,-0.007 c 2.0625,-0.21574 5.4375,-0.21574 7.5,0 2.0625,0.21575 0.375,0.39226 -3.75,0.39226 -4.125,0 -5.8125,-0.17651 -3.75,-0.39226 z m 14.5,0.0662 c 0.6875,-0.27741 1.8125,-0.27741 2.5,0 0.6875,0.27741 0.125,0.50439 -1.25,0.50439 -1.375,0 -1.9375,-0.22698 -1.25,-0.50439 z m 10,-0.0781 c 3.4375,-0.19527 9.0625,-0.19527 12.5,0 3.4375,0.19527 0.625,0.35504 -6.25,0.35504 -6.875,0 -9.6875,-0.15977 -6.25,-0.35504 z m 23.5,0.0119 c 2.0625,-0.21574 5.4375,-0.21574 7.5,0 2.0625,0.21575 0.375,0.39226 -3.75,0.39226 -4.125,0 -5.8125,-0.17651 -3.75,-0.39226 z m 14.5625,0.0454 c 0.72187,-0.28887 1.58438,-0.25335 1.91667,0.0789 0.33229,0.33229 -0.25834,0.56864 -1.3125,0.52522 -1.16495,-0.048 -1.4019,-0.28494 -0.60417,-0.60416 z m 7.9375,-0.0491 c 2.3375,-0.21053 6.1625,-0.21053 8.5,0 2.3375,0.21054 0.425,0.3828 -4.25,0.3828 -4.675,0 -6.5875,-0.17226 -4.25,-0.3828 z M 775.19495,-123.5 c 0.0204,-1.65 0.2445,-2.20394 0.49804,-1.23097 0.25354,0.97297 0.23687,2.32297 -0.0371,3 -0.27393,0.67703 -0.48137,-0.11903 -0.46099,-1.76903 z"
       id="path611" /><path
       style="fill:#b9b9b9;fill-opacity:1"
       d="m 4.0789474,251.41667 c 0.047984,-1.16495 0.2849403,-1.4019 0.6041666,-0.60417 0.2888706,0.72187 0.2533443,1.58438 -0.078947,1.91667 -0.3322917,0.33229 -0.5686404,-0.25834 -0.5252196,-1.3125 z M 170.87244,192.25 c -1.24387,-1.58606 -1.2085,-1.62143 0.37756,-0.37756 1.66575,1.30637 2.19548,2.12756 1.37244,2.12756 -0.20765,0 -0.99515,-0.7875 -1.75,-1.75 z M 413,114.62244 c 0,-0.20765 0.7875,-0.99515 1.75,-1.75 1.58606,-1.24387 1.62143,-1.2085 0.37756,0.37756 C 413.82119,114.91575 413,115.44548 413,114.62244 Z M 353.232,83 c 0,-1.925 0.2058,-2.7125 0.45733,-1.75 0.25152,0.9625 0.25152,2.5375 0,3.5 C 353.4378,85.7125 353.232,84.925 353.232,83 Z m -0.0371,-6.5 c 0.0204,-1.65 0.2445,-2.203936 0.49804,-1.230968 0.25354,0.972967 0.23687,2.322967 -0.0371,3 C 353.38201,78.946064 353.17457,78.15 353.19495,76.5 Z m 0,-8 c 0.0204,-1.65 0.2445,-2.203936 0.49804,-1.230968 0.25354,0.972967 0.23687,2.322967 -0.0371,3 C 353.38201,70.946064 353.17457,70.15 353.19495,68.5 Z m -0.116,-7.083333 c 0.048,-1.164943 0.28494,-1.4019 0.60416,-0.604167 0.28887,0.721875 0.25335,1.584375 -0.0789,1.916667 -0.33229,0.332291 -0.56864,-0.258334 -0.52522,-1.3125 z m -10,-56.0000003 c 0.048,-1.164943 0.28494,-1.4018994 0.60416,-0.6041667 0.28887,0.721875 0.25335,1.584375 -0.0789,1.9166667 -0.33229,0.3322916 -0.56864,-0.2583334 -0.52522,-1.3125 z M 343.39739,-11 c 0,-7.975 0.1553,-11.2375 0.34512,-7.25 0.18981,3.9875 0.18981,10.5125 0,14.5 -0.18982,3.9875 -0.34512,0.725 -0.34512,-7.25 z m -168.31844,4.4166667 c 0.048,-1.164943 0.28494,-1.4018994 0.60416,-0.6041667 0.28887,0.721875 0.25335,1.584375 -0.0789,1.9166667 -0.33229,0.3322916 -0.56864,-0.2583334 -0.52522,-1.3125 z M 175.19495,-11.5 c 0.0204,-1.65 0.2445,-2.203936 0.49804,-1.230968 0.25354,0.972967 0.23687,2.322967 -0.0371,2.9999999 C 175.38201,-9.0539356 175.17457,-9.85 175.19495,-11.5 Z m -0.0371,-5.5 c 0,-1.375 0.22698,-1.9375 0.50439,-1.25 0.27741,0.6875 0.27741,1.8125 0,2.5 -0.27741,0.6875 -0.50439,0.125 -0.50439,-1.25 z m 168.28436,-40 c 0,-16.225 0.13752,-22.8625 0.30561,-14.75 0.16808,8.1125 0.16808,21.3875 0,29.5 -0.16809,8.1125 -0.30561,1.475 -0.30561,-14.75 z m 72.37025,18.316886 c 0.72187,-0.288871 1.58438,-0.253344 1.91667,0.07895 0.33229,0.332292 -0.25834,0.568641 -1.3125,0.52522 -1.16495,-0.04798 -1.4019,-0.284941 -0.60417,-0.604167 z m -240.73355,-7.900219 c 0.048,-1.164943 0.28494,-1.4019 0.60416,-0.604167 0.28887,0.721875 0.25335,1.584375 -0.0789,1.916667 -0.33229,0.332291 -0.56864,-0.258334 -0.52522,-1.3125 z m 0,-4 c 0.048,-1.164943 0.28494,-1.4019 0.60416,-0.604167 0.28887,0.721875 0.25335,1.584375 -0.0789,1.916667 -0.33229,0.332291 -0.56864,-0.258334 -0.52522,-1.3125 z M 766,-49.377555 c 0,-0.207656 0.7875,-0.995156 1.75,-1.75 1.58606,-1.243871 1.62143,-1.208501 0.37756,0.377555 C 766.82119,-49.084252 766,-48.554521 766,-49.377555 Z m -590.92105,-5.205778 c 0.048,-1.164943 0.28494,-1.4019 0.60416,-0.604167 0.28887,0.721875 0.25335,1.584375 -0.0789,1.916667 -0.33229,0.332291 -0.56864,-0.258334 -0.52522,-1.3125 z m 157.68271,-37.123928 c 1.24391,-0.239193 3.04391,-0.230112 4,0.02018 0.95609,0.250292 -0.0617,0.445996 -2.26166,0.434897 -2.2,-0.0111 -2.98225,-0.215885 -1.73834,-0.455077 z m 190.98834,0.04498 c 0.6875,-0.277412 1.8125,-0.277412 2.5,0 0.6875,0.277413 0.125,0.504386 -1.25,0.504386 -1.375,0 -1.9375,-0.226973 -1.25,-0.504386 z m 9.0625,-0.02083 c 0.72187,-0.288871 1.58438,-0.253344 1.91667,0.07895 0.33229,0.332292 -0.25834,0.568641 -1.3125,0.52522 -1.16495,-0.04798 -1.4019,-0.284941 -0.60417,-0.604167 z m 8.45653,-0.0099 c 0.97297,-0.253543 2.32297,-0.236869 3,0.03705 0.67703,0.273923 -0.11903,0.481368 -1.76903,0.460988 -1.65,-0.02038 -2.20394,-0.244498 -1.23097,-0.498042 z m 6.48097,0.03071 c 0.6875,-0.277412 1.8125,-0.277412 2.5,0 0.6875,0.277413 0.125,0.504386 -1.25,0.504386 -1.375,0 -1.9375,-0.226973 -1.25,-0.504386 z m 5.0625,-0.02083 c 0.72187,-0.288871 1.58438,-0.253344 1.91667,0.07895 0.33229,0.332292 -0.25834,0.568641 -1.3125,0.52522 -1.16495,-0.04798 -1.4019,-0.284941 -0.60417,-0.604167 z m 20,0 c 0.72187,-0.288871 1.58438,-0.253344 1.91667,0.07895 0.33229,0.332292 -0.25834,0.568641 -1.3125,0.52522 -1.16495,-0.04798 -1.4019,-0.284941 -0.60417,-0.604167 z m 14.9375,0.02083 c 0.6875,-0.277412 1.8125,-0.277412 2.5,0 0.6875,0.277413 0.125,0.504386 -1.25,0.504386 -1.375,0 -1.9375,-0.226973 -1.25,-0.504386 z m 17.0625,-0.02083 c 0.72187,-0.288871 1.58438,-0.253344 1.91667,0.07895 0.33229,0.332292 -0.25834,0.568641 -1.3125,0.52522 -1.16495,-0.04798 -1.4019,-0.284941 -0.60417,-0.604167 z m 14.9375,0.02083 c 0.6875,-0.277412 1.8125,-0.277412 2.5,0 0.6875,0.277413 0.125,0.504386 -1.25,0.504386 -1.375,0 -1.9375,-0.226973 -1.25,-0.504386 z m 8.5,-0.06619 c 2.0625,-0.215745 5.4375,-0.215745 7.5,0 2.0625,0.215744 0.375,0.392262 -3.75,0.392262 -4.125,0 -5.8125,-0.176518 -3.75,-0.392262 z m 12.5625,0.04535 c 0.72187,-0.288871 1.58438,-0.253344 1.91667,0.07895 0.33229,0.332292 -0.25834,0.568641 -1.3125,0.52522 -1.16495,-0.04798 -1.4019,-0.284941 -0.60417,-0.604167 z m 26.9375,0.02083 c 0.6875,-0.277412 1.8125,-0.277412 2.5,0 0.6875,0.277413 0.125,0.504386 -1.25,0.504386 -1.375,0 -1.9375,-0.226973 -1.25,-0.504386 z m 5.0625,-0.02083 c 0.72187,-0.288871 1.58438,-0.253344 1.91667,0.07895 0.33229,0.332292 -0.25834,0.568641 -1.3125,0.52522 -1.16495,-0.04798 -1.4019,-0.284941 -0.60417,-0.604167 z m 4,0 c 0.72187,-0.288871 1.58438,-0.253344 1.91667,0.07895 0.33229,0.332292 -0.25834,0.568641 -1.3125,0.52522 -1.16495,-0.04798 -1.4019,-0.284941 -0.60417,-0.604167 z m 14.9375,0.02083 c 0.6875,-0.277412 1.8125,-0.277412 2.5,0 0.6875,0.277413 0.125,0.504386 -1.25,0.504386 -1.375,0 -1.9375,-0.226973 -1.25,-0.504386 z"
       id="path610" /><path
       style="fill:#a3a3a3;fill-opacity:1"
       d="m 4.1578947,265 c 0,-1.375 0.2269737,-1.9375 0.504386,-1.25 0.2774123,0.6875 0.2774123,1.8125 0,2.5 -0.2774123,0.6875 -0.504386,0.125 -0.504386,-1.25 z M 353.28601,90.5 c 0.008,-2.75 0.20172,-3.756313 0.43157,-2.23625 0.22986,1.520062 0.22371,3.770062 -0.0136,5 C 353.46657,94.493687 353.27851,93.25 353.28601,90.5 Z m -0.20706,-18.083333 c 0.048,-1.164943 0.28494,-1.4019 0.60416,-0.604167 0.28887,0.721875 0.25335,1.584375 -0.0789,1.916667 -0.33229,0.332291 -0.56864,-0.258334 -0.52522,-1.3125 z M 418.75,-38.662281 c 0.6875,-0.277412 1.8125,-0.277412 2.5,0 0.6875,0.277413 0.125,0.504386 -1.25,0.504386 -1.375,0 -1.9375,-0.226973 -1.25,-0.504386 z M 56,-83.377555 c 0,-0.207656 0.7875,-0.995156 1.75,-1.75 1.586056,-1.243871 1.621426,-1.208501 0.377555,0.377555 C 56.821186,-83.084252 56,-82.554521 56,-83.377555 Z M 775.30987,-114.5 c 0.006,-3.3 0.1923,-4.52944 0.41486,-2.73209 0.22256,1.79735 0.21797,4.49735 -0.0102,6 -0.22818,1.50265 -0.41027,0.0321 -0.40466,-3.26791 z"
       id="path609" /><path
       style="fill:#8c8c8c;fill-opacity:1"
       d="m 214.26903,101.30701 c 0.97297,-0.25354 2.32297,-0.23687 3,0.037 0.67703,0.27393 -0.11903,0.48137 -1.76903,0.46099 -1.65,-0.0204 -2.20394,-0.2445 -1.23097,-0.49804 z m 5.54347,0.01 c 0.72187,-0.28887 1.58438,-0.25335 1.91667,0.0789 0.33229,0.33229 -0.25834,0.56864 -1.3125,0.52522 -1.16495,-0.048 -1.4019,-0.28494 -0.60417,-0.60416 z M 229.25,26.310674 c 0.9625,-0.251527 2.5375,-0.251527 3.5,0 0.9625,0.251528 0.175,0.457323 -1.75,0.457323 -1.925,0 -2.7125,-0.205795 -1.75,-0.457323 z m 8,0 c 0.9625,-0.251527 2.5375,-0.251527 3.5,0 0.9625,0.251528 0.175,0.457323 -1.75,0.457323 -1.925,0 -2.7125,-0.205795 -1.75,-0.457323 z m 9.01903,-0.0037 c 0.97297,-0.253543 2.32297,-0.236869 3,0.03705 0.67703,0.273923 -0.11903,0.481368 -1.76903,0.460988 -1.65,-0.02038 -2.20394,-0.244498 -1.23097,-0.498042 z m 7,0 c 0.97297,-0.253543 2.32297,-0.236869 3,0.03705 0.67703,0.273923 -0.11903,0.481368 -1.76903,0.460988 -1.65,-0.02038 -2.20394,-0.244498 -1.23097,-0.498042 z m 8,0 c 0.97297,-0.253543 2.32297,-0.236869 3,0.03705 0.67703,0.273923 -0.11903,0.481368 -1.76903,0.460988 -1.65,-0.02038 -2.20394,-0.244498 -1.23097,-0.498042 z m 8.49263,-0.01427 c 1.24391,-0.239193 3.04391,-0.230112 4,0.02018 0.95609,0.250292 -0.0617,0.445996 -2.26166,0.434897 -2.2,-0.0111 -2.98225,-0.215885 -1.73834,-0.455078 z m 7.48834,0.01793 c 0.9625,-0.251527 2.5375,-0.251527 3.5,0 0.9625,0.251528 0.175,0.457323 -1.75,0.457323 -1.925,0 -2.7125,-0.205795 -1.75,-0.457323 z m 21.0491,-0.05596 c 4.83951,-0.183708 12.48951,-0.182767 17,0.0021 4.5105,0.184857 0.5509,0.335163 -8.7991,0.334013 -9.35,-0.0011 -13.0404,-0.152396 -8.2009,-0.336103 z m 28.4509,0.02189 c 1.7875,-0.221826 4.7125,-0.221826 6.5,0 1.7875,0.221827 0.325,0.403322 -3.25,0.403322 -3.575,0 -5.0375,-0.181495 -3.25,-0.403322 z m -82.93268,-76.02571 c 11.72452,-0.160084 30.62452,-0.159881 42,4.51e-4 11.37547,0.160331 1.78268,0.291309 -21.31732,0.291061 -23.1,-2.48e-4 -32.40721,-0.131428 -20.68268,-0.291512 z m 64.43268,0.05978 c 0.9625,-0.251527 2.5375,-0.251527 3.5,0 0.9625,0.251528 0.175,0.457323 -1.75,0.457323 -1.925,0 -2.7125,-0.205795 -1.75,-0.457323 z m -79.4375,-25.993788 c 0.72187,-0.288871 1.58438,-0.253344 1.91667,0.07895 0.33229,0.332292 -0.25834,0.568641 -1.3125,0.52522 -1.16495,-0.04798 -1.4019,-0.284941 -0.60417,-0.604167 z m 5.9375,0.02083 c 0.6875,-0.277412 1.8125,-0.277412 2.5,0 0.6875,0.277413 0.125,0.504386 -1.25,0.504386 -1.375,0 -1.9375,-0.226973 -1.25,-0.504386 z m 7.51903,-0.03071 c 0.97297,-0.253543 2.32297,-0.236869 3,0.03705 0.67703,0.273923 -0.11903,0.481368 -1.76903,0.460988 -1.65,-0.02038 -2.20394,-0.244498 -1.23097,-0.498042 z m 5.48097,0.03071 c 0.6875,-0.277412 1.8125,-0.277412 2.5,0 0.6875,0.277413 0.125,0.504386 -1.25,0.504386 -1.375,0 -1.9375,-0.226973 -1.25,-0.504386 z m 17,0 c 0.6875,-0.277412 1.8125,-0.277412 2.5,0 0.6875,0.277413 0.125,0.504386 -1.25,0.504386 -1.375,0 -1.9375,-0.226973 -1.25,-0.504386 z m 8.0625,-0.02083 c 0.72187,-0.288871 1.58438,-0.253344 1.91667,0.07895 0.33229,0.332292 -0.25834,0.568641 -1.3125,0.52522 -1.16495,-0.04798 -1.4019,-0.284941 -0.60417,-0.604167 z m 11.4375,-0.05192 c 2.6125,-0.205999 6.8875,-0.205999 9.5,0 2.6125,0.205998 0.475,0.374543 -4.75,0.374543 -5.225,0 -7.3625,-0.168545 -4.75,-0.374543 z m 19.03017,-0.0012 c 2.6291,-0.206676 6.6791,-0.204183 9,0.0055 2.32091,0.209724 0.16983,0.378823 -4.78017,0.375776 -4.95,-0.003 -6.84892,-0.17464 -4.21983,-0.381317 z m 471.79878,-31.847056 c 0.048,-1.16495 0.28494,-1.4019 0.60416,-0.60417 0.28887,0.72188 0.25335,1.58438 -0.0789,1.91667 -0.33229,0.33229 -0.56864,-0.25834 -0.52522,-1.3125 z M 626.19495,-123.5 c 0.0204,-1.65 0.2445,-2.20394 0.49804,-1.23097 0.25354,0.97297 0.23687,2.32297 -0.0371,3 -0.27393,0.67703 -0.48137,-0.11903 -0.46099,-1.76903 z m -153.99553,-37.24383 c 4.78468,-0.18291 12.88468,-0.18377 18,-0.002 5.11532,0.18186 1.20058,0.33151 -8.69942,0.33256 -9.9,0.001 -14.08526,-0.14774 -9.30058,-0.33065 z m 40.61308,0.0607 c 0.72187,-0.28887 1.58438,-0.25335 1.91667,0.0789 0.33229,0.33229 -0.25834,0.56864 -1.3125,0.52522 -1.16495,-0.048 -1.4019,-0.28494 -0.60417,-0.60416 z m 33.45653,-0.01 c 0.97297,-0.25354 2.32297,-0.23687 3,0.0371 0.67703,0.27393 -0.11903,0.48137 -1.76903,0.46099 -1.65,-0.0204 -2.20394,-0.2445 -1.23097,-0.49804 z m 69.48097,0.0307 c 0.6875,-0.27741 1.8125,-0.27741 2.5,0 0.6875,0.27741 0.125,0.50439 -1.25,0.50439 -1.375,0 -1.9375,-0.22698 -1.25,-0.50439 z"
       id="path608" /><path
       style="fill:#767676;fill-opacity:1"
       d="m 4.0789474,245.41667 c 0.047984,-1.16495 0.2849403,-1.4019 0.6041666,-0.60417 0.2888706,0.72187 0.2533443,1.58438 -0.078947,1.91667 -0.3322917,0.33229 -0.5686404,-0.25834 -0.5252196,-1.3125 z M 297,190.62244 c 0,-0.20765 0.7875,-0.99515 1.75,-1.75 1.58606,-1.24387 1.62143,-1.2085 0.37756,0.37756 C 297.82119,190.91575 297,191.44548 297,190.62244 Z M 242.8125,26.316886 c 0.72187,-0.288871 1.58438,-0.253344 1.91667,0.07895 0.33229,0.332292 -0.25834,0.568641 -1.3125,0.52522 -1.16495,-0.04798 -1.4019,-0.284941 -0.60417,-0.604167 z m 15,0 c 0.72187,-0.288871 1.58438,-0.253344 1.91667,0.07895 0.33229,0.332292 -0.25834,0.568641 -1.3125,0.52522 -1.16495,-0.04798 -1.4019,-0.284941 -0.60417,-0.604167 z m 81.9375,0.02083 c 0.6875,-0.277412 1.8125,-0.277412 2.5,0 0.6875,0.277413 0.125,0.504386 -1.25,0.504386 -1.375,0 -1.9375,-0.226973 -1.25,-0.504386 z m 85.0625,-65.020833 c 0.72187,-0.288871 1.58438,-0.253344 1.91667,0.07895 0.33229,0.332292 -0.25834,0.568641 -1.3125,0.52522 -1.16495,-0.04798 -1.4019,-0.284941 -0.60417,-0.604167 z M 597.75,-40.662281 c 0.6875,-0.277412 1.8125,-0.277412 2.5,0 0.6875,0.277413 0.125,0.504386 -1.25,0.504386 -1.375,0 -1.9375,-0.226973 -1.25,-0.504386 z M 223.8125,-75.683114 c 0.72187,-0.288871 1.58438,-0.253344 1.91667,0.07895 0.33229,0.332292 -0.25834,0.568641 -1.3125,0.52522 -1.16495,-0.04798 -1.4019,-0.284941 -0.60417,-0.604167 z m 8,0 c 0.72187,-0.288871 1.58438,-0.253344 1.91667,0.07895 0.33229,0.332292 -0.25834,0.568641 -1.3125,0.52522 -1.16495,-0.04798 -1.4019,-0.284941 -0.60417,-0.604167 z m 7,0 c 0.72187,-0.288871 1.58438,-0.253344 1.91667,0.07895 0.33229,0.332292 -0.25834,0.568641 -1.3125,0.52522 -1.16495,-0.04798 -1.4019,-0.284941 -0.60417,-0.604167 z m 21.45653,-0.0099 c 0.97297,-0.253543 2.32297,-0.236869 3,0.03705 0.67703,0.273923 -0.11903,0.481368 -1.76903,0.460988 -1.65,-0.02038 -2.20394,-0.244498 -1.23097,-0.498042 z m 8.48097,0.03071 c 0.6875,-0.277412 1.8125,-0.277412 2.5,0 0.6875,0.277413 0.125,0.504386 -1.25,0.504386 -1.375,0 -1.9375,-0.226973 -1.25,-0.504386 z m 7.51903,-0.03071 c 0.97297,-0.253543 2.32297,-0.236869 3,0.03705 0.67703,0.273923 -0.11903,0.481368 -1.76903,0.460988 -1.65,-0.02038 -2.20394,-0.244498 -1.23097,-0.498042 z M 748.232,-123 c 0,-1.925 0.2058,-2.7125 0.45733,-1.75 0.25152,0.9625 0.25152,2.5375 0,3.5 -0.25153,0.9625 -0.45733,0.175 -0.45733,-1.75 z m -122.07411,-5 c 0,-1.375 0.22698,-1.9375 0.50439,-1.25 0.27741,0.6875 0.27741,1.8125 0,2.5 -0.27741,0.6875 -0.50439,0.125 -0.50439,-1.25 z M 448.8125,-160.68311 c 0.72187,-0.28887 1.58438,-0.25335 1.91667,0.0789 0.33229,0.33229 -0.25834,0.56864 -1.3125,0.52522 -1.16495,-0.048 -1.4019,-0.28494 -0.60417,-0.60416 z m 11.45653,-0.01 c 0.97297,-0.25354 2.32297,-0.23687 3,0.0371 0.67703,0.27393 -0.11903,0.48137 -1.76903,0.46099 -1.65,-0.0204 -2.20394,-0.2445 -1.23097,-0.49804 z m 39.98097,0.004 c 0.9625,-0.25152 2.5375,-0.25152 3.5,0 0.9625,0.25153 0.175,0.45733 -1.75,0.45733 -1.925,0 -2.7125,-0.2058 -1.75,-0.45733 z m 8.01903,-0.004 c 0.97297,-0.25354 2.32297,-0.23687 3,0.0371 0.67703,0.27393 -0.11903,0.48137 -1.76903,0.46099 -1.65,-0.0204 -2.20394,-0.2445 -1.23097,-0.49804 z m 10.48097,-0.0392 c 2.3375,-0.21053 6.1625,-0.21053 8.5,0 2.3375,0.21054 0.425,0.3828 -4.25,0.3828 -4.675,0 -6.5875,-0.17226 -4.25,-0.3828 z m 15.9777,0.0105 c 1.77523,-0.22091 4.92523,-0.22454 7,-0.008 2.07476,0.21648 0.6223,0.39722 -3.2277,0.40166 -3.85,0.004 -5.54754,-0.17268 -3.7723,-0.39359 z m 16.0848,0.0386 c 0.72187,-0.28887 1.58438,-0.25335 1.91667,0.0789 0.33229,0.33229 -0.25834,0.56864 -1.3125,0.52522 -1.16495,-0.048 -1.4019,-0.28494 -0.60417,-0.60416 z m 9.9375,-0.0573 c 3.4375,-0.19527 9.0625,-0.19527 12.5,0 3.4375,0.19527 0.625,0.35504 -6.25,0.35504 -6.875,0 -9.6875,-0.15977 -6.25,-0.35504 z m 20.51903,0.0474 c 0.97297,-0.25354 2.32297,-0.23687 3,0.0371 0.67703,0.27393 -0.11903,0.48137 -1.76903,0.46099 -1.65,-0.0204 -2.20394,-0.2445 -1.23097,-0.49804 z m 7.49263,-0.0143 c 1.24391,-0.23919 3.04391,-0.23011 4,0.0202 0.95609,0.25029 -0.0617,0.446 -2.26166,0.4349 -2.2,-0.0111 -2.98225,-0.21589 -1.73834,-0.45508 z m 8,0 c 1.24391,-0.23919 3.04391,-0.23011 4,0.0202 0.95609,0.25029 -0.0617,0.446 -2.26166,0.4349 -2.2,-0.0111 -2.98225,-0.21589 -1.73834,-0.45508 z m 7.48834,0.0179 c 0.9625,-0.25152 2.5375,-0.25152 3.5,0 0.9625,0.25153 0.175,0.45733 -1.75,0.45733 -1.925,0 -2.7125,-0.2058 -1.75,-0.45733 z m 7.5,0.0271 c 0.6875,-0.27741 1.8125,-0.27741 2.5,0 0.6875,0.27741 0.125,0.50439 -1.25,0.50439 -1.375,0 -1.9375,-0.22698 -1.25,-0.50439 z m 21.5,-0.0856 c 8.1125,-0.16808 21.3875,-0.16808 29.5,0 8.1125,0.16809 1.475,0.30561 -14.75,0.30561 -16.225,0 -22.8625,-0.13752 -14.75,-0.30561 z m -449.98097,-7.94513 c 0.97297,-0.25354 2.32297,-0.23687 3,0.0371 0.67703,0.27393 -0.11903,0.48137 -1.76903,0.46099 -1.65,-0.0204 -2.20394,-0.2445 -1.23097,-0.49804 z"
       id="path607" /><path
       style="fill:#606060;fill-opacity:1"
       d="m 204.07895,127.41667 c 0.048,-1.16495 0.28494,-1.4019 0.60416,-0.60417 0.28887,0.72187 0.25335,1.58438 -0.0789,1.91667 -0.33229,0.33229 -0.56864,-0.25834 -0.52522,-1.3125 z M 556.25218,-29.5 c 0.0111,-2.2 0.21589,-2.982253 0.45508,-1.738341 0.23919,1.243913 0.23011,3.043913 -0.0202,4 -0.25029,0.956088 -0.446,-0.06166 -0.4349,-2.261659 z m 51.03941,-11.242498 c 3.73537,-0.192928 9.58537,-0.191497 13,0.0032 3.41462,0.194677 0.35841,0.352527 -6.79159,0.350778 -7.15,-0.0017 -9.94379,-0.161031 -6.20841,-0.353958 z m 49.02999,-0.007 c 16.40187,-0.154247 42.95187,-0.154137 59,2.43e-4 16.04813,0.15438 2.62842,0.280582 -29.82158,0.280448 -32.45,-1.34e-4 -45.58029,-0.126445 -29.17842,-0.280691 z M 461.76166,-117.70726 c 1.24391,-0.23919 3.04391,-0.23011 4,0.0202 0.95609,0.25029 -0.0617,0.446 -2.26166,0.4349 -2.2,-0.0111 -2.98225,-0.21589 -1.73834,-0.45508 z m 22.98834,0.045 c 0.6875,-0.27741 1.8125,-0.27741 2.5,0 0.6875,0.27741 0.125,0.50439 -1.25,0.50439 -1.375,0 -1.9375,-0.22698 -1.25,-0.50439 z m 24,-0.0435 c 1.2375,-0.23836 3.2625,-0.23836 4.5,0 1.2375,0.23835 0.225,0.43337 -2.25,0.43337 -2.475,0 -3.4875,-0.19502 -2.25,-0.43337 z m 39.51375,-0.0118 c 1.52006,-0.22986 3.77006,-0.22371 5,0.0136 1.22994,0.23736 -0.0137,0.42542 -2.76375,0.41792 -2.75,-0.008 -3.75631,-0.20172 -2.23625,-0.43157 z m 8.54875,0.0345 c 0.72187,-0.28887 1.58438,-0.25335 1.91667,0.0789 0.33229,0.33229 -0.25834,0.56864 -1.3125,0.52522 -1.16495,-0.048 -1.4019,-0.28494 -0.60417,-0.60416 z m 8.94916,-0.0242 c 1.24391,-0.23919 3.04391,-0.23011 4,0.0202 0.95609,0.25029 -0.0617,0.446 -2.26166,0.4349 -2.2,-0.0111 -2.98225,-0.21589 -1.73834,-0.45508 z m 15.05084,0.0242 c 0.72187,-0.28887 1.58438,-0.25335 1.91667,0.0789 0.33229,0.33229 -0.25834,0.56864 -1.3125,0.52522 -1.16495,-0.048 -1.4019,-0.28494 -0.60417,-0.60416 z m 25.97102,-0.0553 c 2.90594,-0.20265 7.40594,-0.20052 10,0.005 2.59406,0.20525 0.21648,0.37104 -5.28352,0.36844 -5.5,-0.003 -7.62242,-0.17053 -4.71648,-0.37317 z m 15.96648,0.0761 c 0.6875,-0.27741 1.8125,-0.27741 2.5,0 0.6875,0.27741 0.125,0.50439 -1.25,0.50439 -1.375,0 -1.9375,-0.22698 -1.25,-0.50439 z m 32.51903,-0.0307 c 0.97297,-0.25354 2.32297,-0.23687 3,0.037 0.67703,0.27393 -0.11903,0.48137 -1.76903,0.46099 -1.65,-0.0204 -2.20394,-0.2445 -1.23097,-0.49804 z m 12.99472,-0.0246 c 1.52006,-0.22986 3.77006,-0.22371 5,0.0136 1.22994,0.23736 -0.0137,0.42542 -2.76375,0.41792 -2.75,-0.008 -3.75631,-0.20172 -2.23625,-0.43157 z m 9.49791,0.0103 c 1.24391,-0.23919 3.04391,-0.23011 4,0.0202 0.95609,0.25029 -0.0617,0.446 -2.26166,0.4349 -2.2,-0.0111 -2.98225,-0.21589 -1.73834,-0.45508 z m 8,0 c 1.24391,-0.23919 3.04391,-0.23011 4,0.0202 0.95609,0.25029 -0.0617,0.446 -2.26166,0.4349 -2.2,-0.0111 -2.98225,-0.21589 -1.73834,-0.45508 z m 62.31729,-9.87607 c 0.048,-1.16495 0.28494,-1.4019 0.60416,-0.60417 0.28887,0.72188 0.25335,1.58438 -0.0789,1.91667 -0.33229,0.33229 -0.56864,-0.25834 -0.52522,-1.3125 z M 677.75,-160.66228 c 0.6875,-0.27741 1.8125,-0.27741 2.5,0 0.6875,0.27741 0.125,0.50439 -1.25,0.50439 -1.375,0 -1.9375,-0.22698 -1.25,-0.50439 z m 6.5,-0.0271 c 0.9625,-0.25152 2.5375,-0.25152 3.5,0 0.9625,0.25153 0.175,0.45733 -1.75,0.45733 -1.925,0 -2.7125,-0.2058 -1.75,-0.45733 z m -528.98097,-8.00366 c 0.97297,-0.25354 2.32297,-0.23687 3,0.0371 0.67703,0.27393 -0.11903,0.48137 -1.76903,0.46099 -1.65,-0.0204 -2.20394,-0.2445 -1.23097,-0.49804 z m 10.01114,-0.0433 c 2.6291,-0.20668 6.6791,-0.20418 9,0.006 2.32091,0.20972 0.16983,0.37882 -4.78017,0.37577 -4.95,-0.003 -6.84892,-0.17464 -4.21983,-0.38131 z m 14.53233,0.0532 c 0.72187,-0.28887 1.58438,-0.25335 1.91667,0.0789 0.33229,0.3323 -0.25834,0.56864 -1.3125,0.52522 -1.16495,-0.048 -1.4019,-0.28494 -0.60417,-0.60416 z"
       id="path606" /><path
       style="fill:#494949;fill-opacity:1"
       d="m -18.921053,328.41667 c 0.04798,-1.16495 0.284941,-1.4019 0.604167,-0.60417 0.288871,0.72187 0.253344,1.58438 -0.07895,1.91667 -0.332292,0.33229 -0.568641,-0.25834 -0.52522,-1.3125 z M 593.15789,-21 c 0,-1.375 0.22698,-1.9375 0.50439,-1.25 0.27741,0.6875 0.27741,1.8125 0,2.5 -0.27741,0.6875 -0.50439,0.125 -0.50439,-1.25 z m -0.34539,-19.683114 c 0.72187,-0.288871 1.58438,-0.253344 1.91667,0.07895 0.33229,0.332292 -0.25834,0.568641 -1.3125,0.52522 -1.16495,-0.04798 -1.4019,-0.284941 -0.60417,-0.604167 z M 457.50708,-117.98855 c -0.35034,-0.56686 0.0511,-0.7345 0.94098,-0.39301 1.73242,0.66479 2.04939,1.38156 0.61096,1.38156 -0.51754,0 -1.21592,-0.44485 -1.55194,-0.98855 z m 13.77309,0.25228 c 2.6291,-0.20668 6.6791,-0.20418 9,0.006 2.32091,0.20972 0.16983,0.37882 -4.78017,0.37577 -4.95,-0.003 -6.84892,-0.17464 -4.21983,-0.38131 z m 23.46983,0.074 c 0.6875,-0.27741 1.8125,-0.27741 2.5,0 0.6875,0.27741 0.125,0.50439 -1.25,0.50439 -1.375,0 -1.9375,-0.22698 -1.25,-0.50439 z m 6,-0.0435 c 1.2375,-0.23836 3.2625,-0.23836 4.5,0 1.2375,0.23835 0.225,0.43337 -2.25,0.43337 -2.475,0 -3.4875,-0.19502 -2.25,-0.43337 z m 59.0625,0.0226 c 0.72187,-0.28887 1.58438,-0.25335 1.91667,0.0789 0.33229,0.33229 -0.25834,0.56864 -1.3125,0.52522 -1.16495,-0.048 -1.4019,-0.28494 -0.60417,-0.60416 z m 24.94916,-0.0242 c 1.24391,-0.23919 3.04391,-0.23011 4,0.0202 0.95609,0.25029 -0.0617,0.446 -2.26166,0.4349 -2.2,-0.0111 -2.98225,-0.21589 -1.73834,-0.45508 z m 7.05084,0.0242 c 0.72187,-0.28887 1.58438,-0.25335 1.91667,0.0789 0.33229,0.33229 -0.25834,0.56864 -1.3125,0.52522 -1.16495,-0.048 -1.4019,-0.28494 -0.60417,-0.60416 z m 8,0 c 0.72187,-0.28887 1.58438,-0.25335 1.91667,0.0789 0.33229,0.33229 -0.25834,0.56864 -1.3125,0.52522 -1.16495,-0.048 -1.4019,-0.28494 -0.60417,-0.60416 z m 60.94916,-0.0242 c 1.24391,-0.23919 3.04391,-0.23011 4,0.0202 0.95609,0.25029 -0.0617,0.446 -2.26166,0.4349 -2.2,-0.0111 -2.98225,-0.21589 -1.73834,-0.45508 z m 32.50209,-0.0103 c 1.52006,-0.22986 3.77006,-0.22371 5,0.0136 1.22994,0.23736 -0.0137,0.42542 -2.76375,0.41792 -2.75,-0.008 -3.75631,-0.20172 -2.23625,-0.43157 z m 19.98625,-0.0292 c 6.4625,-0.17418 17.0375,-0.17418 23.5,0 6.4625,0.17419 1.175,0.3167 -11.75,0.3167 -12.925,0 -18.2125,-0.14251 -11.75,-0.3167 z"
       id="path605" /><path
       style="fill:#333333;fill-opacity:1"
       d="m -151.53584,371.99587 c -20.97722,-2.87686 -35.10936,-15.48531 -38.60188,-34.43993 -0.98401,-5.34041 -0.98459,-9.93958 -0.003,-22.38852 4.71458,-59.78085 15.27263,-105.54896 33.94941,-147.16742 15.85732,-35.33572 28.37508,-56.08413 69.984147,-116 20.05664,-28.880993 29.021374,-44.630993 34.622015,-60.8268744 4.07813,-11.7930966 7.603295,-17.2509186 14.577456,-22.5694816 4.685747,-3.573397 9.181671,-5.585373 31.507502,-14.09996 43.129775,-16.448758 72.289957,-41.028903 85.91691,-72.422394 4.37402,-10.07677 7.686434,-14.8016 14.538075,-20.73713 6.301295,-5.45876 25.090245,-17.24291 36.922415,-23.15719 L 143.25481,-167.5 H 170.3774 197.5 l 7.68833,3.75 7.68834,3.75 h 239.03237 239.03237 l 2.60218,-5.50056 c 2.01777,-4.26521 3.6474,-6.1131 7.25614,-8.22796 4.29643,-2.51787 5.65441,-2.75619 17.67711,-3.10224 15.72429,-0.4526 22.76546,0.70954 32.11369,5.30033 12.03883,5.91209 20.8924,17.8577 23.39641,31.56741 0.54878,3.00466 1.11372,21.21302 1.25542,40.46302 0.25702,34.916145 0.25198,35.012523 -2.10563,40.22705 -2.83073,6.260975 -9.33667,12.526614 -16.44215,15.834864 l -5.19458,2.418548 -79.86354,0.0098 -79.86355,0.0098 0.66355,4.424827 c 1.00894,6.728093 0.79267,21.010531 -0.38433,25.38159 -1.39281,5.1725003 -4.83807,10.1327113 -8.97381,12.9197864 C 578.9846,4.4849619 568.69645,4.8626454 562,2.5 558.41417,1.2348452 548.94356,1 501.50945,1 h -56.2391 l -5.5733,13.25 c -8.06857,19.182289 -12.27563,30.518086 -13.56455,36.549221 -0.62288,2.914572 -1.13953,13.039572 -1.14812,22.5 -0.022,24.24916 -2.39332,32.416869 -11.90677,41.011699 -7.04665,6.36623 -9.58438,7.00829 -28.07761,7.10383 -15.41586,0.0797 -16.74389,0.2369 -20.21193,2.39328 -8.79216,5.46686 -14.0244,16.18613 -18.7403,38.39326 -5.59856,26.36347 -8.66324,32.48625 -23.99325,47.93494 -16.22074,16.34631 -32.17053,26.00131 -55.9533,33.87062 -17.26448,5.71251 -28.31919,7.3412 -50.10122,7.38142 -15.53305,0.0287 -20.15705,-0.3262 -28.83232,-2.21277 -52.61623,-11.4422 -79.88393,-50.0303 -75.09009,-106.26433 1.10429,-12.95384 1.05997,-13.99379 -0.72874,-17.10186 C 108.1782,120.29997 103.205,118.55645 91,118.67533 c -22.470484,0.21888 -43.155446,10.14623 -56.559637,27.1447 -5.042898,6.39513 -12.939579,21.17405 -16.927251,31.67997 -3.887997,10.24331 -9.1275543,31.35811 -11.1789821,45.04999 -2.5931436,17.30745 -2.3361793,55.41184 0.541941,80.36261 3.4564921,29.96474 2.7975655,37.3028 -4.3629452,48.5874 -5.5953499,8.81799 -14.6644677,15.29394 -26.3902867,18.84443 -6.254211,1.89373 -9.823295,2.01853 -64.122839,2.24228 -31.625,0.13031 -60.21613,-0.13557 -63.53584,-0.59084 z m 121.811746,-29.3737 c 6.016388,-2.30259 10.343278,-6.57472 10.968092,-10.8293 0.26597,-1.81108 -0.640678,-12.29287 -2.014772,-23.29287 -2.902602,-23.23613 -3.517916,-57.43147 -1.36755,-76 6.527696,-56.36702 23.12588788,-95.83107 51.191699,-121.71399 10.307167,-9.50549 10.011778,-7.98188 4.764652,-24.575964 C 24.635948,57.171642 9.5195457,37.885493 -12.977524,26.506294 -19.255979,23.3306 -28.502484,20 -31.040476,20 c -1.139254,0 -4.631021,4.681475 -10.255699,13.75 -4.690578,7.5625 -15.149963,23.2 -23.243078,34.75 -8.093116,11.55 -19.563266,28.236331 -25.489224,37.08074 -48.444833,72.3032 -66.363643,123.14698 -73.034743,207.23265 -1.79363,22.60778 0.10316,27.52811 12.05675,31.27563 1.37856,0.43218 28.15647,0.69021 59.50647,0.57339 52.495451,-0.19562 57.377426,-0.35685 61.775906,-2.04024 z M -89.5,236.12032 c -16.13162,-4.25994 -24.65248,-20.53463 -19.18971,-36.652 2.35271,-6.94147 6.69852,-11.83442 13.46012,-15.15476 7.395041,-3.63139 17.453625,-3.86119 23.84606,-0.54479 12.945992,6.7164 18.927024,19.9701 15.042306,33.33306 -3.892604,13.39008 -19.838559,22.53602 -33.158776,19.01849 z m 304,-7.30514 c -28.84248,-3.76295 -40.14319,-8.27694 -53.11893,-21.21797 -6.84388,-6.82558 -8.86437,-9.65232 -12.86564,-17.99953 -2.92015,-6.09184 -5.70129,-13.98038 -7.22737,-20.5 -1.36436,-5.82872 -2.77349,-11.72268 -3.1314,-13.09768 -1.41651,-5.4418 -1.16922,13.61439 0.27712,21.35551 3.47478,18.5978 16.17134,35.43474 32.90445,43.63466 12.48809,6.11969 25.18188,8.75187 42.16177,8.74263 l 8,-0.004 z M 259,211.56569 c 26.00554,-6.43609 44.65194,-21.67915 49.57401,-40.52579 4.28597,-16.41096 -1.39026,-34.08882 -15.46005,-48.14825 -8.62525,-8.61889 -19.18174,-14.39298 -31.74305,-17.3625 -10.55561,-2.49536 -12.14378,-2.05361 -16.07319,4.47085 -5.52355,9.17139 -7.49807,15.56696 -8.04707,26.06486 -1.02272,19.55608 4.9593,29.90711 22.48876,38.91363 4.53168,2.32835 9.64448,5.83364 11.36178,7.78954 2.77856,3.1646 3.06551,4.06137 2.60601,8.14408 -1.10119,9.78404 -13.96607,16.36134 -32.18703,16.45594 -15.99079,0.083 -28.02741,-3.97046 -38.19095,-12.86127 -13.05069,-11.41643 -21.59309,-34.86089 -19.63059,-53.87577 0.34918,-3.38319 0.19256,-5.63101 -0.39234,-5.63101 -1.18072,0 -7.84218,-6.22932 -11.64814,-10.89251 l -2.76886,-3.39252 -3.3405,3.23774 c -6.67397,6.46867 -12.40227,23.72955 -10.96727,33.04729 1.99102,12.92819 5.57148,21.61781 12.74079,30.92136 9.30954,12.08093 24.39945,20.454 44.31051,24.58696 9.17985,1.90547 38.19206,1.32812 47.36718,-0.94263 z m -29.92312,-30.72577 c -4.71759,-4.9096 -10.17696,-14.94229 -12.70061,-23.33992 -4.02596,-13.39663 -1.59466,-37.2419 5.15543,-50.56256 1.35757,-2.67902 2.4683,-5.17949 2.4683,-5.5566 0,-0.8801 -20.53533,0.304 -28.88731,1.66569 -3.51301,0.57275 -8.01301,1.73098 -10,2.57383 l -3.61269,1.53246 3.37539,2.8511 c 1.85647,1.5681 6.13147,4.2976 9.5,6.06556 10.05422,5.27689 9.62254,4.41101 9.63939,19.33551 0.009,7.9992 0.58916,15.53114 1.49079,19.35528 1.69867,7.20465 6.12065,16.45364 10.16395,21.25882 C 219.42893,180.4869 226.74734,185 230.23291,185 h 2.84134 z m 102.73498,-57.09929 c 2.93267,-7.0756 10.89047,-16.69943 17.10713,-20.68864 L 354,99.791509 V 77.914744 56.037979 l -99.25,-0.26899 c -54.5875,-0.147944 -99.8125,-0.108344 -100.5,0.088 -0.6875,0.196344 -1.25,1.681191 -1.25,3.29966 0,5.030605 -2.52802,8.497684 -7.61171,10.439163 -4.51233,1.723275 -4.76215,1.718421 -8.19027,-0.15916 -1.94479,-1.065159 -4.47244,-3.206057 -5.617,-4.757553 C 129.5922,61.983176 129.47785,60.321771 129,27.179099 128.46548,-9.8939558 128.1734,-12 123.56636,-12 c -1.2998,0 -4.99646,1.394807 -8.21481,3.0995703 C 110.11857,-6.1285174 108.81288,-5.8484012 103,-6.2505943 95.166834,-6.792571 89.695637,-9.3807305 84.704514,-14.905308 79.702814,-20.441591 78,-25.023059 78,-32.943985 c 0,-8.602654 2.156657,-14.816347 7.086238,-20.416647 9.764087,-11.092588 25.276152,-12.96134 35.565592,-4.284619 3.28888,2.773401 5.63171,2.712139 6.96285,-0.182068 C 128.03781,-58.747293 128.6351,-67.825 128.942,-78 c 0.51366,-17.029777 0.73475,-18.747787 2.78205,-21.617932 2.54114,-3.562458 5.74339,-5.035188 12.53742,-5.766018 5.92071,-0.63689 6.43507,-0.9579 7.21347,-4.50194 0.73271,-3.33604 3.84985,-6.53561 7.84016,-8.0475 1.92458,-0.7292 33.96622,-1.06661 101.28984,-1.06661 95.7618,0 98.58036,0.0539 102.30869,1.95594 6.34445,3.2367 7.08637,6.48902 7.08637,31.064296 V -65 l 95.25,-0.01082 c 81.47279,-0.0093 95.96004,-0.226223 100.15893,-1.5 C 569.59567,-67.780914 583.17405,-68 657.70439,-68 h 87.38652 l 2.45454,-2.454545 C 749.72741,-72.636497 750,-73.766084 750,-80.625805 750,-93.451079 769.83903,-92 594.4929,-92 H 442.29577 l -3.29628,-2.25 C 433.03629,-98.32042 432,-101.72331 432,-117.2344 V -131 H 319.53495 c -123.8486,0 -117.54627,0.30691 -125.67885,-6.12024 L 190.21219,-140 l -18.85609,7.9e-4 c -21.54373,9e-4 -20.96109,-0.1639 -41.02176,11.60299 -14.29998,8.38787 -20.58225,15.10834 -27.4795,29.39622 -9.500814,19.681268 -23.836467,36.062526 -44.35484,50.683992 -18.69545,13.322444 -29.729991,18.678385 -72.75,35.31136 -5.9125,2.285971 -10.75,4.4984083 -10.75,4.9165282 0,0.41812 2.773712,1.5313788 6.163805,2.4739085 8.144468,2.2643638 20.4814357,8.263013 30.205152,14.6867621 24.487255,16.1769422 43.982911,46.3145472 50.45958,78.0035792 1.352274,6.616402 2.33501,9.373875 3.298766,9.25605 C 65.882287,96.239879 70.775,95.183634 76,93.984968 c 11.373182,-2.609119 26.98634,-2.329626 35.95664,0.643664 8.45906,2.803838 16.9292,9.157818 21.54336,16.161008 2.2,3.33908 4.225,6.08491 4.5,6.10185 0.275,0.0169 1.61539,-2.25805 2.97863,-5.05555 3.52936,-7.24253 13.90481,-17.99794 22.57528,-23.402006 C 176.89389,80.119493 190.99053,76.396057 213,75.373428 c 22.80249,-1.059475 49.01774,2.386606 66.44252,8.734091 20.16049,7.344049 36.67367,21.244651 45.51823,38.316711 1.87369,3.61668 3.69123,6.57577 4.03897,6.57577 0.34774,0 1.6132,-2.36672 2.81214,-5.25937 z m 64.32736,-28.650341 c 2.17791,-1.761785 2.38681,-2.761857 2.69689,-12.910861 l 0.33611,-11.00115 -6.83611,-0.340573 c -3.75986,-0.187316 -8.07361,-0.176354 -9.58611,0.02436 L 380,71.226999 V 84.113499 97 h 6.88922 c 5.28984,0 7.43728,-0.44335 9.25,-1.909711 z M 401,42.921112 c 0,-4.119472 19.76888,-53.195099 27.60923,-68.539047 l 6.19194,-12.117934 -6.04728,-0.632066 C 425.42789,-38.715571 411.07263,-39 396.85331,-39 H 371 V 2.5 44 h 15 c 10.06453,0 15,-0.354988 15,-1.078888 z M 196,-32.5 V -92 H 185.5 175 V -32.5 27 h 10.5 10.5 z m 147.73934,1.5 c 0.14629,-35.146636 -0.13097,-58.083131 -0.71321,-59 -0.82637,-1.301323 -8.97073,-1.53612 -61.48933,-1.772701 L 221,-92.045403 V -83.522701 -75 h 49.04966 c 53.8087,0 53.32095,-0.05157 56.43341,5.967267 2.18583,4.226921 1.92986,10.238063 -0.57137,13.417854 C 321.42717,-49.913724 322.29322,-50 269.54966,-50 H 221 v 12 12 l 48.75,0.0037 c 46.58712,0.0036 48.89204,0.09034 51.95145,1.955778 5.83653,3.558741 7.92115,11.002048 4.78162,17.073217 C 323.37061,-0.94842578 323.85836,-1 270.04966,-1 H 221 V 13.007687 27.015373 L 282.25,26.757687 343.5,26.5 Z m 213.06056,-0.25 0.29991,-5.75 h -47.34159 -47.34158 l -2.70832,5.522154 C 458.21874,-28.440661 457,-25.73646 457,-25.468511 c 0,0.26795 22.3875,0.370481 49.75,0.227846 L 556.5,-25.5 Z m -37.47657,-94 0.22343,-7.75 h -30.69437 -30.69438 l -0.32901,7.58778 c -0.18095,4.17328 -0.13511,7.77966 0.10186,8.01419 0.23697,0.23453 14.09694,0.30753 30.79994,0.16222 L 519.09989,-117.5 Z m 107.46873,0 0.29207,-7.75 h -40.96306 -40.96306 l -0.32901,7.58778 c -0.18095,4.17328 -0.13652,7.77826 0.0987,8.01107 0.23526,0.23281 18.68526,0.30581 41,0.16222 L 626.5,-117.5 Z m 121.64451,-1.91584 c -0.055,-8.37763 -0.36884,-10.11021 -2.35501,-13 -4.32884,-6.29833 -6.588,-7.29914 -17.33156,-7.67787 l -9.75,-0.3437 v 3.14336 c 0,1.72885 -0.70489,4.50647 -1.56642,6.17249 -2.82572,5.46433 -5.38504,5.87156 -36.90146,5.87156 H 652 v 8.0096 8.00961 l 48.25,-0.25961 48.25,-0.2596 z"
       id="path604" /></g><path
     style="fill:#ffffff;stroke:none;stroke-width:15.9978;stroke-linecap:round;stroke-dasharray:none"
     d="m 38.645628,491.03745 c -1.234282,-0.45115 -2.621377,-1.13335 -3.082434,-1.516 -2.480744,-2.05883 -5.313931,-11.75616 -8.992723,-30.77995 -5.779819,-29.88864 -6.355044,-52.76513 -2.003798,-79.69029 2.603425,-16.10979 5.463036,-27.61912 14.238108,-57.30538 3.251074,-10.99846 7.113046,-24.42941 8.582162,-29.84655 3.411447,-12.57922 3.588223,-13.01916 5.415691,-13.47783 2.181368,-0.54748 12.943369,0.82433 17.561861,2.23858 8.965073,2.74524 18.665948,9.16233 25.435815,16.82567 4.3159,4.88551 10.38361,13.32788 10.81534,15.04803 0.21239,0.84622 -1.10362,4.1925 -3.88256,9.87233 -7.190804,14.69719 -9.245769,24.26222 -9.284205,43.2142 -0.05579,27.51049 5.081053,49.04785 19.469595,81.63065 2.63698,5.9714 4.92025,11.67118 5.07396,12.66617 0.47997,3.10688 -2.54513,7.02479 -7.06592,9.15131 -5.44314,2.56039 -63.522315,21.72143 -68.129008,22.47661 -1.049255,0.172 -2.917603,-0.0564 -4.151884,-0.50755 z m 25.640783,-75.66868 c 10.386877,-4.86675 13.482482,-18.59497 6.087431,-26.99619 -6.59835,-7.49612 -17.325747,-8.29619 -24.852527,-1.85355 -6.948137,5.94735 -7.520181,17.31482 -1.23089,24.45983 5.143752,5.84361 13.144595,7.60011 19.995986,4.38991 z"
     id="path612" /><path
     style="fill:#ffffff;stroke:none;stroke-width:15.9978;stroke-linecap:round;stroke-dasharray:none"
     d="m 120.86663,302.24568 c -0.85975,-1.25831 -2.82049,-4.23154 -4.35722,-6.60717 -7.42429,-11.47725 -18.78356,-21.70005 -30.849807,-27.76337 -8.531808,-4.28725 -20.193122,-7.011 -30.031013,-7.01437 -3.632013,-10e-4 -5.426233,-0.21323 -5.179785,-0.612 0.207381,-0.33555 5.12553,-4.5414 10.92922,-9.34634 12.928099,-10.70331 24.784378,-22.53427 29.952423,-29.88846 9.930422,-14.13111 13.570472,-23.05019 16.992542,-41.63619 1.57986,-8.58057 5.23225,-14.63897 14.87207,-24.66909 4.22556,-4.39664 6.57907,-5.64011 17.75573,-9.38111 l 9.73402,-3.25813 2.56886,0.98105 c 4.95125,1.8909 9.85412,0.82242 37.76426,-8.22997 6.07377,-1.96996 31.60244,-10.27787 56.73037,-18.46201 25.12794,-8.18413 45.94715,-14.88024 46.26492,-14.88024 0.31777,0 1.63099,3.11935 2.91826,6.9319 3.54958,10.51281 5.73049,13.02265 11.316,13.02265 1.75191,0 4.22978,-0.42262 5.5064,-0.93914 1.2766,-0.51653 5.54453,-1.9436 9.48427,-3.17127 3.93975,-1.22766 8.64058,-2.76331 10.4463,-3.41255 1.80571,-0.64923 4.62621,-1.5963 6.26777,-2.10461 10.15159,-3.14341 16.36493,-5.17349 18.07742,-5.90642 1.07815,-0.46144 2.62271,-0.83898 3.43235,-0.83898 0.80965,0 1.47208,-0.25645 1.47208,-0.56988 0,-0.31344 1.00732,-0.73104 2.23849,-0.92801 1.23117,-0.19697 2.70493,-0.61207 3.27502,-0.92244 0.57009,-0.31038 1.53264,-0.56432 2.139,-0.56432 0.60636,0 1.28933,-0.18686 1.51771,-0.41524 0.22837,-0.22837 0.74323,-0.47546 1.14411,-0.54909 0.40089,-0.0736 2.34061,-0.70219 4.31048,-1.396813 1.96987,-0.694628 5.05899,-1.670286 6.86471,-2.168128 1.80571,-0.497841 4.01266,-1.268973 4.90432,-1.713627 0.89166,-0.444653 2.70483,-0.991539 4.02928,-1.215303 1.32445,-0.223764 2.40809,-0.667704 2.40809,-0.986535 0,-0.31883 0.22072,-0.443276 0.49049,-0.276546 0.26978,0.166729 1.24065,-0.08604 2.1575,-0.561702 0.91684,-0.475666 2.24068,-0.866502 2.94185,-0.868525 0.70118,-0.002 2.04427,-0.40495 2.98466,-0.895396 0.94038,-0.490445 2.0729,-0.891719 2.5167,-0.891719 0.4438,0 1.68903,-0.367846 2.76719,-0.817434 2.7865,-1.16197 5.64081,-2.110952 9.42192,-3.13254 1.80571,-0.487873 3.5383,-1.141808 3.8502,-1.453189 0.3119,-0.311381 1.25945,-0.566147 2.10567,-0.566147 0.84623,0 2.11008,-0.400294 2.80858,-0.889541 0.6985,-0.489248 2.69796,-1.195783 4.44324,-1.570079 1.74528,-0.374295 4.26851,-1.150026 5.60718,-1.723846 1.33866,-0.57382 3.56257,-1.23399 4.94201,-1.467046 1.37945,-0.233055 2.50808,-0.684597 2.50808,-1.003428 0,-0.31883 0.28039,-0.406403 0.62308,-0.194606 0.3427,0.211796 0.94709,0.135021 1.34309,-0.17061 0.39601,-0.305632 2.00288,-0.902843 3.57082,-1.327135 1.56794,-0.424293 2.99675,-1.007595 3.17514,-1.296226 0.17838,-0.288632 0.5665,-0.375116 0.86248,-0.192188 0.29599,0.182929 1.3519,-0.08821 2.34648,-0.602523 0.99458,-0.514316 1.80832,-0.787015 1.80832,-0.605996 0,0.181018 0.73871,-0.04835 1.64157,-0.509709 0.90285,-0.461358 2.58172,-1.033827 3.73081,-1.272154 1.1491,-0.238328 2.89512,-0.787906 3.88006,-1.221287 5.55878,-2.445915 19.71237,-5.871066 21.08544,-5.102653 0.48113,0.269252 1.3674,2.429352 1.96949,4.800221 1.76677,6.957094 2.20829,6.602202 -15.38873,12.36941 -66.93759,21.93798 -86.4598,28.50267 -90.34115,30.37881 -5.30449,2.56404 -17.03118,6.56175 -71.74954,24.45988 -22.55417,7.37737 -41.3918,13.56084 -41.86139,13.74104 -0.58002,0.22257 -0.95806,-0.21025 -1.17893,-1.34977 -0.44268,-2.28385 -7.12974,-20.93892 -8.30488,-23.16834 -1.63314,-3.09829 -3.28554,-4.17486 -6.34952,-4.13684 -5.76002,0.0715 -12.62533,1.57546 -12.62533,2.76584 0,0.26236 -0.64084,0.47702 -1.42409,0.47702 -0.78325,0 -2.1935,0.40127 -3.13389,0.89172 -0.94039,0.49044 -2.3917,0.89337 -3.22514,0.89539 -0.83344,0.002 -2.53754,0.52482 -3.7869,1.16179 -1.24935,0.63695 -4.0595,1.58701 -6.24476,2.11123 -2.18526,0.52423 -5.66918,1.65229 -7.74204,2.50681 -2.07287,0.85452 -4.22182,1.58841 -4.77545,1.63086 -0.55363,0.0424 -1.59183,0.40707 -2.3071,0.81027 -0.71527,0.4032 -2.26073,0.85603 -3.43435,1.00629 -1.17361,0.15027 -3.00596,0.68623 -4.07188,1.19104 -1.06592,0.50482 -3.53436,1.33292 -5.48542,1.84024 -1.95106,0.50731 -3.83139,1.14593 -4.17852,1.41914 -0.77706,0.61163 -4.43121,1.80884 -6.70418,2.19651 -2.49145,0.42493 -9.26612,2.70325 -10.64102,3.57857 -0.65662,0.41804 -4.36463,1.59566 -8.24002,2.61695 -3.87538,1.02128 -8.4419,2.48663 -10.14783,3.25633 -3.51212,1.58466 -5.33445,2.1918 -7.19038,2.39563 -2.05961,0.22619 -9.34224,2.77961 -9.34224,3.27556 0,0.24899 -1.0915,0.81295 -2.42556,1.25322 -3.20962,1.05928 -5.33188,3.62105 -5.34368,6.45033 -0.0119,2.84641 -0.31254,3.2379 -3.87091,5.03997 -6.96479,3.52719 -7.3114,5.31458 -3.62877,18.71298 1.52335,5.5424 2.8287,10.88294 2.90078,11.86787 0.14675,2.00515 0.7472,1.92161 -8.08167,1.1244 -3.57792,-0.32308 -4.40037,-0.18514 -7.27158,1.21961 -6.35418,3.10882 -9.58247,8.562 -9.56725,16.16086 0.0125,6.24823 2.3971,11.76644 6.30929,14.60041 6.85497,4.96571 15.85999,4.4982 21.72692,-1.128 1.31325,-1.25937 3.03406,-2.62165 3.82402,-3.02729 2.47619,-1.2715 2.39058,-1.45162 11.07742,23.30748 6.20419,17.68309 6.95245,19.36999 9.07272,20.45384 3.31086,1.69247 5.41402,1.80281 7.67916,0.40287 2.78183,-1.71926 4.00001,-4.18816 3.75862,-7.61766 l -0.19301,-2.74208 20.29566,-6.73223 c 11.16261,-3.70272 21.01197,-6.74194 21.88747,-6.75381 0.8755,-0.0119 1.68136,-0.25004 1.7908,-0.52926 0.23115,-0.58978 14.13367,-5.25904 17.1871,-5.77241 1.13566,-0.19094 2.39984,-0.62518 2.80927,-0.96498 0.40943,-0.3398 0.98524,-0.46899 1.27956,-0.28708 0.29433,0.1819 1.0448,-0.055 1.66771,-0.52656 0.62292,-0.47151 1.8115,-0.86583 2.64131,-0.87628 0.82981,-0.0104 2.0386,-0.38077 2.68619,-0.82295 1.5027,-1.02605 6.66042,-2.76651 7.04846,-2.37848 0.16198,0.16198 0.87387,-0.0155 1.58196,-0.3945 0.7081,-0.37896 2.79751,-1.08234 4.64314,-1.56306 1.84563,-0.48073 3.6397,-1.10367 3.98683,-1.38431 0.82383,-0.66606 10.2426,-3.62242 11.55594,-3.62719 0.5576,-0.002 1.719,-0.37163 2.5809,-0.82136 0.86191,-0.44972 4.18368,-1.6894 7.38172,-2.75483 4.64065,-1.54603 5.9132,-1.77764 6.30286,-1.14716 0.26853,0.43449 0.35608,1.00379 0.19457,1.26513 -0.16151,0.26134 0.12483,1.07263 0.63632,1.80288 0.51149,0.73026 0.92998,1.8755 0.92998,2.545 0,0.66949 1.22359,4.70616 2.71908,8.97037 1.4955,4.26422 2.86771,8.21471 3.04935,8.77888 0.20091,0.62405 -0.50532,2.16404 -1.80333,3.93228 -2.86525,3.90327 -4.48627,7.79191 -5.69708,13.66674 l -1.00894,4.89537 -4.15115,-3.60344 c -8.2893,-7.19558 -17.58006,-11.24015 -28.85969,-12.56355 -15.09075,-1.77055 -39.28649,3.38225 -55.64911,11.85121 -11.02167,5.70459 -17.0978,11.66141 -21.81526,21.38694 -1.43326,2.95481 -2.91414,7.03032 -3.29086,9.05669 l -0.68493,3.68432 -2.63346,-2.0108 c -6.09421,-4.65328 -13.71747,-6.74198 -20.66971,-5.6633 -7.2361,1.12272 -15.29665,4.30913 -22.28839,8.8108 -1.22979,0.79181 -1.41341,0.69977 -2.87679,-1.44205 z"
     id="path613" /><path
     style="fill:#ffffff;stroke:none;stroke-width:5.65606;stroke-linecap:round;stroke-dasharray:none"
     d="m 211.25804,357.911 c -13.52679,-1.3547 -25.76529,-10.01996 -31.05624,-21.98884 -1.57833,-3.5704 -3.73849,-9.74188 -3.49508,-9.98529 0.0547,-0.0547 1.35899,1.95413 2.89846,4.46403 4.3528,7.09668 6.82814,10.34579 11.18023,14.67506 1.60784,1.5994 3.21369,2.94713 4.65707,3.90849 4.62416,3.07991 11.28541,5.8732 16.13213,6.76476 1.67494,0.30811 3.11218,0.38541 6.96455,0.37457 5.22811,-0.0147 8.26498,-0.33069 15.27707,-1.58958 1.90214,-0.3415 3.49274,-0.58659 3.53467,-0.54466 0.0944,0.0944 -5.75066,1.87197 -8.04834,2.44766 -5.91148,1.48113 -12.55404,2.02367 -18.04452,1.4738 z"
     id="path614" /><path
     style="fill:#ffffff;stroke:none;stroke-width:5.65606;stroke-linecap:round;stroke-dasharray:none"
     d="m 233.20693,325.11687 c -2.08921,-0.39306 -3.87331,-1.02316 -4.40635,-1.55619 -0.23711,-0.23711 -0.9388,-0.5787 -1.55931,-0.75909 -2.94122,-0.85503 -9.16039,-7.39313 -11.54823,-12.14042 -1.89266,-3.76282 -5.21287,-13.06682 -4.80762,-13.47206 0.26865,-0.26865 -0.18009,-1.50838 -0.54994,-1.51933 -0.13101,-0.004 -0.52311,-0.49992 -0.87134,-1.10231 -1.06573,-1.84357 -1.65295,-2.11309 -6.54246,-3.00288 -3.14207,-0.57179 -6.38972,-1.45236 -8.40286,-2.27837 l -1.22727,-0.50355 1.43831,-1.17117 c 2.08903,-1.70103 3.82879,-2.77749 6.92554,-4.28513 3.45616,-1.68261 8.86984,-3.90015 9.52145,-3.90015 0.6892,0 2.21385,-0.63755 2.07231,-0.86656 -0.12592,-0.20374 0.31041,-0.27832 1.21827,-0.20822 0.64713,0.05 1.50123,-0.3335 1.33649,-0.60006 -0.0941,-0.15227 0.95815,-0.48528 1.0986,-0.34767 0.0285,0.0279 -0.1073,1.18289 -0.30169,2.56669 -1.22669,8.73252 0.61136,20.10122 4.56958,28.26373 2.92103,6.02367 8.64651,11.94313 14.88685,15.39124 l 2.00605,1.10845 -0.79258,0.23561 c -1.39459,0.41457 -2.44196,0.45257 -4.0638,0.14744 z"
     id="path615" /><path
     style="fill:#ffffff;stroke:none;stroke-width:5.65606;stroke-linecap:round;stroke-dasharray:none"
     d="m 173.41443,241.06843 c -0.27554,-0.89959 -0.4319,-1.66359 -0.34747,-1.69778 0.218,-0.0883 -0.11142,-1.42168 -1.07634,-4.35668 -0.89324,-2.71695 -1.6249,-4.43572 -1.66765,-3.91751 -0.0144,0.17411 -0.29275,-0.49069 -0.61863,-1.47733 -0.32589,-0.98665 -0.5235,-1.8724 -0.43913,-1.96834 0.3409,-0.38764 -0.65411,-3.24259 -1.04575,-3.00054 -0.0979,0.0605 -0.22746,-0.0788 -0.28783,-0.30967 -0.0604,-0.23085 -0.0237,-0.41972 0.0815,-0.41972 0.37806,0 0.18129,-0.87382 -0.29929,-1.32912 -0.60149,-0.56986 -0.83525,-1.14842 -0.50805,-1.25749 0.35582,-0.11861 -0.16741,-1.73555 -0.73175,-2.26131 -0.35084,-0.32686 -0.43957,-0.6391 -0.411,-1.44625 0.0293,-0.8289 -0.0608,-1.12803 -0.46294,-1.53579 -0.27466,-0.27852 -0.76468,-1.31365 -1.08895,-2.3003 -0.32426,-0.98664 -0.63927,-1.92819 -0.70001,-2.09233 -0.0701,-0.18934 -0.0202,-0.24265 0.13648,-0.14583 0.35779,0.22113 0.33097,0.0874 -0.58836,-2.93249 -0.999,-3.28164 -2.08172,-6.0734 -2.12811,-5.48722 -0.0184,0.23215 -0.25208,-0.24271 -0.51937,-1.05524 -0.3082,-0.93694 -0.41464,-1.56443 -0.29097,-1.71546 0.25196,-0.30771 -0.12154,-1.31398 -0.54852,-1.47782 -0.23864,-0.0916 -0.28735,-0.31831 -0.19391,-0.90261 0.10365,-0.64818 0.0363,-0.86549 -0.39781,-1.28329 -0.42426,-0.40833 -0.503,-0.64904 -0.41847,-1.27925 0.0833,-0.62121 0.0156,-0.83826 -0.33893,-1.08659 -0.57928,-0.40575 -1.10374,-1.8811 -1.1855,-3.33494 -0.0768,-1.36605 -2.53406,-8.96883 -3.0729,-9.50767 -0.55651,-0.55651 -1.84665,-4.63315 -1.72613,-5.45431 0.0815,-0.55554 -0.007,-0.80102 -0.43347,-1.19607 -0.46168,-0.4281 -0.96867,-1.69055 -0.75183,-1.87213 0.33287,-0.27874 7.249,-2.29415 7.98711,-2.32751 1.05641,-0.0477 2.62531,-0.63726 2.45015,-0.92066 -0.11649,-0.18848 1.35861,-0.73098 1.52773,-0.56185 0.0522,0.0522 5.20068,15.74313 11.44098,34.86866 l 11.346,34.77368 -5.94302,1.94795 c -3.26867,1.07137 -6.0114,1.94986 -6.09496,1.95218 -0.0836,0.002 -0.37738,-0.73179 -0.65293,-1.63137 z"
     id="path616" /><path
     style="fill:#ffffff;stroke:none;stroke-width:5.65606;stroke-linecap:round;stroke-dasharray:none"
     d="m 198.38804,225.82365 c -1.43743,-4.40903 -2.57243,-8.05539 -2.52221,-8.10301 0.27919,-0.26478 27.43608,-8.97647 27.68478,-8.88104 0.40529,0.15553 3.5089,-0.84761 3.81683,-1.23366 0.29011,-0.36371 7.42847,-2.76565 7.70724,-2.59336 0.2009,0.12416 4.75928,-1.25071 8.464,-2.55284 1.21355,-0.42654 2.0776,-0.81848 1.92012,-0.87097 -0.15749,-0.0525 0.98646,-0.55854 2.54211,-1.12453 5.17289,-1.88209 7.17972,-2.99832 8.01345,-4.45725 0.45512,-0.79639 0.51105,-1.14763 0.51209,-3.21556 10e-4,-2.16379 -0.0434,-2.41473 -0.65487,-3.69333 -0.83051,-1.73665 -2.13168,-3.03664 -3.88147,-3.87794 -2.00115,-0.96215 -3.51414,-0.88946 -7.91426,0.38024 -3.40253,0.98183 -16.5816,5.22103 -40.30998,12.96618 l -12.87387,4.20213 -2.25725,-6.88198 c -1.24149,-3.78509 -2.21659,-6.92265 -2.16688,-6.97236 0.22282,-0.22281 9.57364,-3.21611 10.28294,-3.29167 1.30824,-0.13937 29.977,-9.49195 30.40357,-9.91852 0.44088,-0.44088 9.92046,-3.50851 10.07405,-3.26001 0.14831,0.23998 1.60726,-0.0635 2.41543,-0.50235 0.40687,-0.22096 0.40339,-0.23376 -0.0965,-0.35507 -0.46383,-0.11255 -0.4081,-0.16733 0.52761,-0.51863 5.45308,-2.04732 7.20577,-4.087 7.01755,-8.16661 -0.0707,-1.53242 -0.19427,-2.04466 -0.78051,-3.23548 -0.82502,-1.67585 -2.60666,-3.54806 -3.72887,-3.91842 -1.01256,-0.33418 -2.91035,-0.15883 -5.7491,0.5312 -2.46188,0.59843 -3.00315,0.65396 -1.95957,0.20103 1.08994,-0.47304 0.64989,-0.5813 -0.8174,-0.20109 -2.78915,0.72274 -5.77188,1.97296 -4.81973,2.0202 0.15194,0.008 -0.72071,0.33584 -1.93924,0.72957 -1.24033,0.40077 -2.42216,0.66399 -2.68501,0.59802 -0.2625,-0.0659 -1.52243,0.21377 -2.8575,0.63424 -3.14917,0.99183 -4.09691,1.39418 -3.76588,1.59877 0.37721,0.23313 -1.60167,0.76352 -2.5428,0.68153 -0.80498,-0.0701 -2.175,0.48225 -1.97973,0.7982 0.0619,0.10009 -0.25949,0.13209 -0.7141,0.0711 -0.68002,-0.0912 -0.87529,-0.0329 -1.10134,0.32911 -0.19767,0.31652 -0.41105,0.40577 -0.76043,0.31808 -0.58991,-0.14806 -1.74374,0.29535 -1.74374,0.67011 0,0.19345 -0.23734,0.23905 -0.83025,0.15952 -0.70586,-0.0947 -0.9083,-0.0271 -1.35131,0.45089 -0.33993,0.36679 -0.55172,0.47029 -0.60924,0.29774 -0.11846,-0.35537 -1.70037,0.10662 -2.22111,0.64868 -0.51497,0.53604 -4.85291,1.91408 -5.64596,1.79356 -0.70409,-0.107 -1.71746,0.34156 -1.63562,0.72399 0.0533,0.24894 -0.39852,0.32476 -1.49601,0.25106 -0.75602,-0.0508 -1.82798,0.38299 -1.82798,0.73969 0,0.19324 -0.23691,0.2391 -0.82652,0.16002 -0.66601,-0.0893 -0.87658,-0.0307 -1.08426,0.30184 -0.17496,0.28014 -0.41841,0.38198 -0.75798,0.31707 -0.67046,-0.12817 -1.75916,0.34358 -1.77989,0.77124 -0.0106,0.21873 -0.0554,0.24779 -0.12311,0.0799 -0.15392,-0.38146 -0.85542,-0.32385 -1.28479,0.10552 -0.21673,0.21673 -0.60386,0.34225 -0.93693,0.30379 -0.36168,-0.0418 -0.72842,0.0953 -1.0109,0.37776 -0.56304,0.56304 -1.4231,0.90304 -1.59219,0.62943 -0.21841,-0.35339 -0.73495,-0.2209 -1.28558,0.32973 -0.29299,0.29298 -0.73407,0.55416 -0.98018,0.58038 -0.40497,0.0431 -0.59379,-0.40253 -1.98806,-4.69254 -0.84732,-2.60712 -1.47035,-4.80679 -1.3845,-4.88816 0.22941,-0.21746 7.64652,-2.56016 8.37864,-2.6464 0.92368,-0.1088 18.22692,-5.71273 30.82113,-9.98192 1.74114,-0.59021 4.59027,-1.50296 6.33141,-2.02833 1.74114,-0.52537 5.39753,-1.67262 8.12531,-2.54944 2.72778,-0.87683 5.86183,-1.86966 6.96455,-2.20631 1.10272,-0.33665 2.86147,-0.88766 3.90834,-1.22448 3.32564,-1.06999 6.63964,-1.81449 7.01707,-1.57641 0.44868,0.28301 1.99594,4.46596 4.04965,10.94801 1.59174,5.02394 4.9774,15.2447 7.2357,21.84336 0.58977,1.7233 1.03857,3.40656 1.02731,3.85307 -0.0134,0.53278 0.11925,0.93212 0.40444,1.21731 0.23344,0.23343 0.66773,1.3012 0.9651,2.37282 0.58888,2.12211 2.86513,9.19339 3.99003,12.39522 0.38743,1.10272 0.71194,2.34828 0.72115,2.76791 0.009,0.41963 0.1931,0.98945 0.40865,1.26628 0.21556,0.27682 0.65886,1.45303 0.98514,2.61379 0.32627,1.16075 1.1035,3.57515 1.72717,5.36533 0.62367,1.79017 1.08557,3.38093 1.02644,3.53503 -0.0591,0.1541 -0.37428,0.28018 -0.70032,0.28018 -0.32605,0 -0.78014,0.12876 -1.0091,0.28614 -0.52607,0.3616 -1.97173,0.83294 -4.54687,1.48246 -1.11106,0.28024 -2.63059,0.79156 -3.37675,1.13626 -1.55538,0.71855 -4.96616,1.8475 -6.21073,2.05573 -1.13251,0.18947 -11.66797,3.67095 -11.75221,3.88355 -0.10978,0.2771 -8.45373,2.97449 -9.2011,2.97449 -0.79822,0 -2.15633,0.51435 -2.15633,0.81665 0,0.23376 -1.1825,0.55435 -1.74851,0.47405 -0.52876,-0.075 -2.43726,0.58651 -2.62949,0.91145 -0.22479,0.37995 -2.34645,1.04647 -3.16489,0.99424 -0.71636,-0.0457 -1.95423,0.46968 -1.95423,0.81365 0,0.11045 -0.28666,0.14302 -0.63886,0.0726 -0.46033,-0.0921 -0.76098,-0.0173 -1.07582,0.26767 -0.24033,0.21749 -0.65506,0.36685 -0.92163,0.33192 -0.56479,-0.074 -2.00672,0.48026 -2.00672,0.77138 0,0.2568 -0.89085,0.48607 -2.18807,0.56312 -0.62305,0.037 -1.25643,0.23041 -1.60956,0.49149 -0.32819,0.24264 -0.76266,0.38329 -0.99573,0.32235 -0.25485,-0.0666 -0.65627,0.0962 -1.04636,0.42441 -0.42877,0.36079 -0.78232,0.49346 -1.09621,0.41138 -0.51666,-0.13511 -2.35014,0.48764 -2.35014,0.79823 0,0.32227 -1.0738,0.64963 -2.33443,0.71169 -1.16293,0.0572 -2.62575,0.61159 -2.43373,0.92228 0.0904,0.14622 -3.72303,1.50906 -4.22252,1.50906 -0.11581,0 -1.38665,-3.60739 -2.82408,-8.01642 z"
     id="path617" /><path
     style="fill:#ffffff;stroke:none;stroke-width:5.65606;stroke-linecap:round;stroke-dasharray:none"
     d="m 292.40487,214.79308 c -0.0512,-0.1451 -3.57465,-10.94807 -7.82999,-24.0066 -4.25534,-13.05853 -7.77978,-23.85549 -7.83208,-23.99324 -0.0571,-0.15049 0.31196,-0.37255 0.92483,-0.55638 0.56095,-0.16827 5.24698,-1.68432 10.41338,-3.36901 5.1664,-1.68469 9.72502,-3.06611 10.13026,-3.06983 0.81275,-0.007 3.04093,-0.72594 3.54261,-1.14233 0.17556,-0.14571 0.74159,-0.2676 1.25785,-0.27087 0.60039,-0.004 1.02602,-0.12455 1.1811,-0.33509 0.13335,-0.18103 0.36034,-0.28943 0.50442,-0.24089 0.34316,0.11561 1.74298,-0.34894 1.74298,-0.57843 0,-0.21315 1.21554,-0.52257 1.75278,-0.44619 0.20954,0.0298 0.73188,-0.12823 1.16076,-0.35116 0.42888,-0.22293 1.53955,-0.56876 2.46816,-0.76851 0.92861,-0.19975 1.85398,-0.41031 2.05638,-0.4679 0.24038,-0.0684 0.33496,-0.008 0.27271,0.1729 -0.20668,0.60208 -1.61931,10.25544 -2.00628,13.7101 -1.15485,10.30999 -2.28414,26.54078 -2.43539,35.00279 l -0.0886,4.9596 -1.32643,0.67935 c -1.16511,0.59673 -14.99827,5.33549 -15.57511,5.33549 -0.1217,0 -0.26313,-0.11871 -0.31429,-0.2638 z"
     id="path618" /><path
     style="fill:#ffffff;stroke:none;stroke-width:5.65606;stroke-linecap:round;stroke-dasharray:none"
     d="m 305.55801,237.16406 -2.4376,-7.43941 1.4369,-0.68554 c 1.21769,-0.58095 9.45119,-3.11701 9.59771,-2.95626 0.14679,0.16106 3.05275,10.58682 3.24033,11.62541 0.18077,1.00088 0.16186,1.3745 -0.10149,2.00495 -0.41682,0.99784 -1.24414,1.86203 -2.30623,2.40902 -0.59819,0.30807 -6.7031,2.48123 -6.97037,2.48123 -0.0119,0 -1.11856,-3.34773 -2.45925,-7.4394 z"
     id="path619" /><path
     style="fill:#ffffff;stroke:none;stroke-width:5.65606;stroke-linecap:round;stroke-dasharray:none"
     d="m 313.14623,103.04855 c -0.77901,-0.0817 -0.79083,-0.0973 -1.29752,-1.70566 -1.0772,-3.419343 -1.87462,-6.612702 -1.69215,-6.776433 0.24287,-0.217918 35.52956,-11.705268 35.63099,-11.599431 0.10666,0.111299 2.48944,8.243865 2.52036,8.602156 0.0294,0.340344 -1.75562,1.014472 -3.43876,1.298698 -0.62832,0.106101 -1.73824,0.480284 -2.46651,0.831518 -0.72826,0.351234 -1.56989,0.638607 -1.87029,0.638607 -0.63486,0 -2.8788,0.752663 -3.05433,1.024482 -0.16182,0.25059 -0.89071,0.463637 -1.9451,0.568533 -0.48156,0.04791 -1.03595,0.232254 -1.23198,0.409662 -0.48391,0.437934 -3.93041,1.585122 -4.76219,1.585122 -0.36884,0 -0.89711,0.173776 -1.17393,0.38617 -0.66693,0.511703 -1.16072,0.683429 -2.27258,0.790338 -1.16677,0.112189 -5.96822,1.698448 -6.25053,2.064988 -0.30073,0.39048 -2.11253,0.96698 -2.62104,0.834 -0.52383,-0.13698 -2.56318,0.56838 -2.70395,0.93524 -0.056,0.14599 -0.21042,0.24947 -0.34309,0.22996 -0.13268,-0.0195 -0.59501,-0.0726 -1.0274,-0.11795 z"
     id="path620" /><path
     style="fill:#ffffff;stroke:none;stroke-width:5.65606;stroke-linecap:round;stroke-dasharray:none"
     d="m 363.77248,86.780469 c -0.47066,-0.83762 -2.70166,-8.752158 -2.51192,-8.911126 0.20154,-0.168862 47.11878,-15.453763 47.52541,-15.483035 0.36191,-0.02605 0.90189,1.596929 0.59726,1.795148 -0.29877,0.194398 0.26761,1.876252 0.63184,1.876252 0.21748,0 0.26933,0.146265 0.17918,0.505454 -0.12372,0.492938 0.35405,2.21286 0.67797,2.440589 0.17025,0.119699 0.66941,1.678744 0.66941,2.090809 0,0.131628 -0.24331,0.239323 -0.54069,0.239323 -0.29737,0 -1.04209,0.237204 -1.65492,0.52712 -0.61283,0.289917 -2.05526,0.761124 -3.2054,1.047128 -2.50549,0.623039 -4.51064,1.29499 -6.59734,2.210848 -0.85033,0.373211 -1.9278,0.713508 -2.39439,0.756217 -0.46658,0.04271 -1.00425,0.212574 -1.19482,0.377478 -0.4608,0.398744 -2.91106,1.201572 -3.66724,1.201572 -0.33039,0 -0.85803,0.189757 -1.17254,0.421682 -0.32903,0.242637 -1.02288,0.45886 -1.63414,0.509243 -1.06737,0.08798 -2.63102,0.686799 -2.63102,1.007586 0,0.09458 -0.36707,0.171959 -0.81572,0.171959 -0.47188,0 -1.02788,0.164672 -1.31905,0.390664 -0.69181,0.536974 -5.14077,1.993054 -6.31943,2.068263 -1.0225,0.06524 -2.39861,0.550282 -2.63183,0.927645 -0.22394,0.362338 -1.18942,0.663546 -2.10164,0.655666 -0.46278,-0.004 -0.98512,0.119484 -1.16076,0.274405 -0.17563,0.154921 -0.58549,0.279865 -0.91079,0.277651 -0.3253,-0.0022 -0.81204,0.203205 -1.08164,0.45648 -0.34551,0.324595 -0.83466,0.486689 -1.65739,0.549233 -1.10305,0.08385 -3.29293,0.789187 -3.52655,1.135859 -0.16484,0.244614 -1.45915,0.644861 -1.55185,0.479887 z"
     id="path621" /><path
     style="fill:#ffffff;stroke:none;stroke-width:5.65606;stroke-linecap:round;stroke-dasharray:none"
     d="m 426.8068,66.146204 c -0.71105,-1.852977 -2.76671,-8.65907 -2.64845,-8.768785 0.0834,-0.07737 5.42391,-1.857201 11.86781,-3.955184 14.35236,-4.672794 18.27556,-6.054445 20.9961,-7.394291 2.29639,-1.130956 3.52783,-2.182117 3.95003,-3.371762 0.40897,-1.152359 0.33616,-4.544153 -0.12654,-5.894916 -0.21132,-0.616918 -0.3508,-1.150688 -0.30996,-1.186156 0.1703,-0.147882 8.62326,-2.442139 9.84134,-2.671085 2.46878,-0.464021 4.38886,0.08726 6.9666,2.000211 0.72999,0.541723 1.60542,1.423587 1.94541,1.959697 0.7158,1.128701 1.898,4.111555 1.898,4.78892 0,0.254445 0.13032,0.649958 0.2896,0.878918 0.15929,0.22896 0.36181,0.748691 0.45005,1.154956 0.0883,0.406266 0.43278,1.419284 0.76563,2.251151 0.33286,0.831868 0.60519,1.607527 0.60519,1.723689 0,0.20984 -4.04659,1.647566 -5.20054,1.84772 -1.68499,0.292259 -16.73312,5.218294 -16.95098,5.548935 -0.19342,0.293541 -6.61543,2.34656 -7.34024,2.34656 -0.80742,0 -2.68722,0.678123 -3.2224,1.162459 -0.20714,0.187456 -0.85824,0.376685 -1.4469,0.420513 -0.98226,0.07313 -1.83323,0.390374 -3.50258,1.305773 -0.3437,0.188467 -0.9954,0.328149 -1.44824,0.310404 -0.84284,-0.03303 -2.67542,0.635857 -2.67542,0.976517 0,0.251525 -1.63716,0.734979 -1.91256,0.564776 -0.3407,-0.210564 -3.1235,0.717705 -3.60999,1.2042 -0.32356,0.323555 -0.75404,0.45403 -1.62689,0.493091 -1.34223,0.06007 -2.7132,0.555925 -2.90275,1.049874 -0.0937,0.244194 -0.30118,0.298401 -0.79066,0.206575 -0.78654,-0.147556 -1.80023,0.189611 -2.24207,0.745741 -0.47377,0.596328 -1.43663,0.775682 -1.61859,0.301499 z"
     id="path622" /><path
     style="fill:#ffffff;stroke:none;stroke-width:5.65606;stroke-linecap:round;stroke-dasharray:none"
     d="m 329.88692,157.05463 c 0.0113,-0.42588 0.22495,-2.13887 0.47486,-3.80665 l 0.45438,-3.03231 27.74031,-9.0449 c 15.25718,-4.9747 27.75562,-9.02351 27.77431,-8.99737 0.1482,0.20727 0.58711,2.32613 0.6219,3.0022 0.0239,0.4643 0.29197,1.45689 0.59573,2.20576 0.30377,0.74886 0.53187,1.37692 0.50689,1.39568 -0.0601,0.0452 -22.358,7.4393 -34.86816,11.56254 -9.48715,3.12689 -17.8457,5.82247 -21.57956,6.95927 l -1.74113,0.53011 z"
     id="path623" /></svg>
