<?xml version="1.0" encoding="UTF-8" standalone="no"?>
<!-- Created with Inkscape (http://www.inkscape.org/) -->

<svg
   width="512"
   height="512"
   viewBox="0 0 512 512"
   version="1.1"
   id="svg1"
   xml:space="preserve"
   xmlns="http://www.w3.org/2000/svg"
   xmlns:svg="http://www.w3.org/2000/svg"><defs
     id="defs1" /><g
     id="g410"
     transform="translate(43.575963,-53.126862)"><path
       style="fill:#d0d0d0;fill-opacity:1"
       d="m 97.4791,428.15307 c -1.243871,-1.58606 -1.208501,-1.62143 0.377555,-0.37756 0.9625,0.75485 1.75,1.54235 1.75,1.75 0,0.82304 -0.821185,0.29331 -2.127555,-1.37244 z m 110.39659,-58.94299 c 0.97296,-0.25355 2.32296,-0.23687 3,0.0371 0.67703,0.27392 -0.11903,0.48137 -1.76903,0.46099 -1.65,-0.0204 -2.20394,-0.2445 -1.23097,-0.49804 z M 179.6856,350.31974 c 0.048,-1.16495 0.28494,-1.4019 0.60417,-0.60417 0.28887,0.72187 0.25334,1.58437 -0.0789,1.91667 -0.33229,0.33229 -0.56864,-0.25834 -0.52522,-1.3125 z m -150.999998,-27 c 0.04798,-1.16495 0.284941,-1.4019 0.604167,-0.60417 0.288871,0.72187 0.253344,1.58437 -0.07895,1.91667 -0.332292,0.33229 -0.568641,-0.25834 -0.52522,-1.3125 z m 50.733553,-11.09979 c 0.721875,-0.28887 1.584375,-0.25334 1.916667,0.079 0.332291,0.33229 -0.258334,0.56864 -1.3125,0.52522 -1.164943,-0.048 -1.4019,-0.28494 -0.604167,-0.60417 z"
       id="path417" /><path
       style="fill:#b9b9b9;fill-opacity:1"
       d="m 106.4791,417.15307 c -1.24387,-1.58606 -1.2085,-1.62143 0.37756,-0.37756 0.9625,0.75485 1.75,1.54235 1.75,1.75 0,0.82304 -0.82119,0.29331 -2.12756,-1.37244 z m -33.059945,0.0669 c 0.721875,-0.28887 1.584375,-0.25334 1.916667,0.079 0.332291,0.33229 -0.258334,0.56864 -1.3125,0.52522 -1.164943,-0.048 -1.4019,-0.28494 -0.604167,-0.60417 z M 28.76455,326.90307 c 0,-1.375 0.226974,-1.9375 0.504386,-1.25 0.277412,0.6875 0.277412,1.8125 0,2.5 -0.277412,0.6875 -0.504386,0.125 -0.504386,-1.25 z m 186.65461,-4.68312 c 0.72187,-0.28887 1.58437,-0.25334 1.91666,0.079 0.33229,0.33229 -0.25833,0.56864 -1.3125,0.52522 -1.16494,-0.048 -1.4019,-0.28494 -0.60416,-0.60417 z"
       id="path416" /><path
       style="fill:#a3a3a3;fill-opacity:1"
       d="m 73.685602,380.31974 c 0.04798,-1.16495 0.284941,-1.4019 0.604167,-0.60417 0.288871,0.72187 0.253344,1.58437 -0.07895,1.91667 -0.332292,0.33229 -0.568641,-0.25834 -0.52522,-1.3125 z"
       id="path415" /><path
       style="fill:#8c8c8c;fill-opacity:1"
       d="m 241.4791,322.15307 c -1.24387,-1.58606 -1.2085,-1.62143 0.37756,-0.37756 1.66574,1.30637 2.19547,2.12756 1.37244,2.12756 -0.20766,0 -0.99516,-0.7875 -1.75,-1.75 z"
       id="path414" /><path
       style="fill:#767676;fill-opacity:1"
       d="m 233.4791,475.15307 c -1.24387,-1.58606 -1.2085,-1.62143 0.37756,-0.37756 0.9625,0.75485 1.75,1.54235 1.75,1.75 0,0.82304 -0.82119,0.29331 -2.12756,-1.37244 z m -143,-39 c -1.243871,-1.58606 -1.208501,-1.62143 0.377555,-0.37756 0.9625,0.75485 1.75,1.54235 1.75,1.75 0,0.82304 -0.821185,0.29331 -2.127555,-1.37244 z m 21.3225,-37.75 c 0.0204,-1.65 0.2445,-2.20394 0.49805,-1.23097 0.25354,0.97297 0.23686,2.32297 -0.0371,3 -0.27392,0.67703 -0.48137,-0.11903 -0.46099,-1.76903 z m -51.03705,-13.5 c 0,-1.375 0.226974,-1.9375 0.504386,-1.25 0.277412,0.6875 0.277412,1.8125 0,2.5 -0.277412,0.6875 -0.504386,0.125 -0.504386,-1.25 z M 383.6856,101.31974 c 0.048,-1.16495 0.28494,-1.401904 0.60417,-0.60417 0.28887,0.72187 0.25334,1.58437 -0.0789,1.91667 -0.33229,0.33229 -0.56864,-0.25834 -0.52522,-1.3125 z"
       id="path413" /><path
       style="fill:#606060;fill-opacity:1"
       d="m 171.17095,272.60994 c 0.37553,-0.98622 0.93469,-1.54122 1.24258,-1.23333 0.30788,0.30788 6.3e-4,1.11479 -0.68279,1.79313 -0.98761,0.98026 -1.10248,0.8654 -0.55979,-0.5598 z M 315.6856,123.31974 c 0.048,-1.16495 0.28494,-1.4019 0.60417,-0.60417 0.28887,0.72187 0.25334,1.58437 -0.0789,1.91667 -0.33229,0.33229 -0.56864,-0.25834 -0.52522,-1.3125 z"
       id="path412" /><path
       style="fill:#494949;fill-opacity:1"
       d="m 207.4791,470.15307 c -1.24387,-1.58606 -1.2085,-1.62143 0.37756,-0.37756 0.9625,0.75485 1.75,1.54235 1.75,1.75 0,0.82304 -0.82119,0.29331 -2.12756,-1.37244 z m -86.87244,-95.62756 c 0,-0.20765 0.7875,-0.99515 1.75,-1.75 1.58605,-1.24387 1.62142,-1.2085 0.37755,0.37756 -1.30637,1.66575 -2.12755,2.19548 -2.12755,1.37244 z M 313.76455,108.90307 c 0,-1.375 0.22697,-1.9375 0.50439,-1.25 0.27741,0.6875 0.27741,1.8125 0,2.5 -0.27742,0.6875 -0.50439,0.125 -0.50439,-1.25 z"
       id="path411" /><path
       style="fill:#333333;fill-opacity:1"
       d="m 146.77182,556.04508 c -11.41093,-4.04714 -24.14779,-21.20778 -30.06677,-40.50963 -1.15829,-3.77719 -2.79807,-12.55219 -3.64396,-19.5 -3.40216,-27.94413 -10.48465,-47.55405 -21.350111,-59.114 -8.071899,-8.58782 -16.32329,-10.71422 -28.986873,-7.46996 -6.526606,1.67204 -11.914779,0.94093 -16.837657,-2.28466 -3.348589,-2.19408 -11.279794,-12.72138 -11.279794,-14.97197 0,-1.02306 2.511461,-4.31974 5.581024,-7.32595 11.219785,-10.98823 13.374574,-20.80327 6.855281,-31.22574 -3.02799,-4.84088 -4.192994,-5.85898 -7.75,-6.77279 -11.727107,-3.01272 -15.848862,-4.42531 -23.19565,-7.9495 -12.7889962,-6.13476 -19.9635638,-13.57308 -21.9444161,-22.75116 -1.1436844,-5.29915 1.787343,-13.43186 6.31506158,-17.52238 4.53973732,-4.10138 8.08203432,-5.3433 17.63869952,-6.18409 12.787847,-1.12507 13.090401,-1.24829 14.479029,-5.89664 2.063497,-6.90743 4.994054,-11.7838 10.637287,-17.70014 l 5.366086,-5.62578 -4.034585,-5.40756 c -5.823584,-7.80537 -5.427405,-8.89636 6.462179,-17.79545 5.450498,-4.07957 11.435158,-7.76138 13.299245,-8.1818 4.545255,-1.02512 9.608959,0.50966 13.788298,4.17917 2.159184,1.89579 3.920047,2.73022 4.722666,2.23795 0.703887,-0.43171 9.761924,-7.06436 20.12897,-14.73923 13.34998,-9.88317 20.64366,-14.60303 25,-16.1779 4.99238,-1.80481 22.29092,-14.23512 91.8473,-65.99926 l 85.69647,-63.77566 -2.94998,-4.107773 c -5.24188,-7.29919 -5.67028,-13.889832 -1.22325,-18.818994 1.97736,-2.191747 14.65956,-8.785671 20.61218,-10.71701 7.39763,-2.400174 13.56035,1.983769 22.79129,16.212923 0.34542,0.532455 2.95827,-0.645654 5.86221,-2.643208 6.24034,-4.292598 10.62108,-4.920945 15.69617,-2.25136 2.07464,1.091301 13.67971,15.699022 16.15254,20.331799 0.64124,1.201342 1.1659,4.058842 1.1659,6.350003 0,4.31656 -2.38725,7.55554 -9.21316,12.5003 l -2.71316,1.96544 7.40395,9.8422 c 13.01845,17.30566 13.09826,17.13376 -19.10865,41.1578 l -24.13101,18 -0.50986,4.37164 c -0.35827,3.0719 -1.35992,5.19062 -3.36899,7.12621 -1.57252,1.51501 -20.63412,15.91437 -42.35912,31.99857 -21.725,16.0842 -40.96739,30.63291 -42.76085,32.33047 -5.00039,4.73298 -7.23915,10.24776 -7.23915,17.83228 0,12.45424 4.65035,21.97721 23.6063,48.34083 5.06624,7.04604 4.56111,11.58269 -2.48459,22.31461 -7.40599,11.2807 -13.80106,17.1903 -25.58244,23.64044 -5.58856,3.05966 -14.7328,8.92261 -20.32053,13.02877 -8.34509,6.13243 -10.64369,8.40788 -12.87059,12.74097 -4.47153,8.70067 -3.93776,15.34154 3.0764,38.27521 3.19609,10.45 6.3903,20.125 7.09825,21.5 1.84642,3.58621 5.20979,6.39528 11.31741,9.45225 10.67754,5.3443 18.15979,14.55326 18.15979,22.35063 0,8.40541 -1.93741,10.28499 -39,37.83593 -18.975,14.1053 -35.88698,26.2314 -37.58217,26.94689 -5.67815,2.39657 -12.47958,2.60386 -18.25267,0.55631 z m 14.91536,-10.42585 c 4.45656,-2.303 62.06206,-44.78312 67.16948,-49.53291 3.85266,-3.58289 3.61062,-7.22488 -0.80499,-12.11244 -1.95525,-2.16422 -6.48038,-5.40495 -10.05585,-7.20163 -6.77723,-3.40556 -13.70604,-9.94223 -15.47751,-14.60154 -1.08699,-2.859 -29.06074,-94.60067 -34.08004,-111.76764 -1.6081,-5.5 -4.52535,-15.16435 -6.48278,-21.47633 -5.80763,-18.72747 -4.30288,-24.05943 9.43985,-33.44942 8.22932,-5.62285 13.11112,-6.64804 19.69099,-4.13516 6.59091,2.51709 12.52033,10.65469 12.52033,17.18303 0,1.30783 0.28968,2.37788 0.64374,2.37788 0.35406,0 6.36072,-4.27227 13.34813,-9.49393 l 12.70438,-9.49393 -0.45006,-9.75607 c -0.54063,-11.71921 1.49598,-18.40947 7.77589,-25.54382 2.17547,-2.47146 22.29796,-18.11006 44.71666,-34.75243 22.41869,-16.64238 40.91433,-30.38215 41.10141,-30.53284 0.56267,-0.45317 -8.0124,-11.42698 -8.92919,-11.42698 -0.64704,0 -252.648548,186.85946 -256.166521,189.94782 -0.415555,0.36481 -0.02848,2.79714 0.860166,5.40517 3.641103,10.68605 0.37685,23.44437 -8.406115,32.85528 l -4.394112,4.70827 2.114635,2.96973 c 3.076709,4.32084 7.492817,5.49887 13.632272,3.63652 19.294039,-5.85267 36.773532,4.26297 48.398905,28.00916 6.32958,12.92892 9.49668,25.23804 12.56608,48.83885 2.47809,19.05413 8.0206,32.35646 18.14137,43.54028 7.51972,8.30956 12.71746,9.78698 20.42288,5.80508 z m -9.45576,-18.12807 c -10.21945,-3.79355 -17.08746,-16.3833 -19.14139,-35.08809 -1.78389,-16.24563 -13.08737,-55.48976 -19.23724,-66.7891 -3.83201,-7.04067 -12.23801,-14.16231 -20.616719,-17.46668 -13.180707,-5.19816 -18.629416,-13.37749 -18.629416,-27.96556 0,-7.12859 2.028683,-12.12657 6.658417,-16.40404 5.364983,-4.95677 43.822238,-33.1775 47.049638,-34.526 6.6665,-2.78544 13.58793,-1.35201 19.0875,3.95303 3.83225,3.6967 1.36314,-3.86434 29.78149,91.19835 11.3449,37.95 20.65384,70.8 20.68653,73 0.0978,6.58454 -2.4538,9.87034 -14.70401,18.93471 -6.26052,4.63237 -12.79674,9.1537 -14.52493,10.04738 -4.48115,2.31729 -11.81516,2.81159 -16.40987,1.106 z m 11.94435,-9.87353 c 5.92251,-3.47649 23.39805,-17.04452 23.84687,-18.51474 0.48151,-1.5773 -37.49138,-130.60855 -38.83144,-131.94861 -0.71795,-0.71795 -14.65714,8.71911 -19.41986,13.14756 -6.96382,6.47506 -8.41948,12.52998 -6.97928,29.03081 0.90661,10.38737 1.81101,14.30075 6.48613,28.06581 7.28073,21.43678 10.90181,35.38041 13.27324,51.11099 1.0867,7.20851 2.89499,15.56306 4.01841,18.56567 3.63123,9.70533 11.25501,14.27048 17.60593,10.54251 z M 115.80688,382.40307 c 3.30709,-6.2839 8.78323,-11.48555 20.54978,-19.51974 5.0875,-3.47375 9.25,-6.95862 9.25,-7.74417 0,-3.87941 -3.41938,-12.97292 -5.63513,-14.98609 -4.64361,-4.21907 -6.40585,-3.38541 -30.12723,14.25213 -12.206883,9.07617 -22.938683,17.63816 -23.848449,19.02663 -2.137414,3.26211 -1.480159,15.15727 1.050942,19.02022 1.024832,1.56409 4.991833,4.1463 9.885789,6.43487 4.495738,2.10236 9.749078,4.93908 11.674078,6.30384 l 3.5,2.48138 0.53441,-10.13453 c 0.44084,-8.36003 0.99516,-11.01002 3.16581,-15.13454 z m 90.3712,-97.07143 c -2.06027,-2.06028 -1.98523,-3.74411 0.25732,-5.77358 3.47716,-3.1468 7.17126,-1.37579 7.17126,3.43802 0,3.90914 -4.45449,5.30964 -7.42858,2.33556 z m -12.57142,107.57143 c 0,-0.55 2.65556,-3.65557 5.90126,-6.90126 l 5.90126,-5.90127 -4.64993,-0.6973 c -2.55747,-0.38351 -6.78804,-1.50971 -9.40127,-2.50266 -2.61323,-0.99295 -4.75132,-1.59978 -4.75132,-1.34851 0,1.9158 5.53326,18.351 6.17826,18.351 0.45195,0 0.82174,-0.45 0.82174,-1 z m 32.46403,-26.3549 c 6.91997,-3.16807 18.10519,-10.97167 19.52279,-13.62048 2.07817,-3.88311 1.08652,-7.60653 -3.92726,-14.74589 -5.99634,-8.53847 -10.89996,-12.73284 -17.41629,-14.89722 -6.03019,-2.0029 -15.0373,-1.41101 -20.33068,1.33601 -5.87922,3.05104 -6.11841,4.20334 -2.42841,11.6988 3.24827,6.59816 6.72961,10.16856 13.74366,14.09526 4.98205,2.78911 6.06924,4.66307 4.58949,7.91076 -1.02776,2.2557 -1.7817,2.57766 -6.03617,2.57766 -9.55188,0 -20.98154,-7.95297 -26.32217,-18.31543 -1.08152,-2.09849 -2.46418,-3.64951 -3.07258,-3.44671 -1.80981,0.60327 -4.78641,6.99915 -4.78641,10.28465 0,7.75188 7.98398,16.37471 17.69872,19.1149 7.7891,2.19703 21.7225,1.23199 28.76531,-1.99231 z M 86.854263,336.31714 c 18.288817,-13.5578 33.595497,-24.96293 34.014837,-25.34475 0.78663,-0.71623 -4.00997,-20.90328 -5.32757,-22.4217 -0.4068,-0.46882 -2.46303,0.31868 -4.56939,1.75 -2.10637,1.43131 -4.55555,2.60238 -5.44263,2.60238 -2.52146,0 -5.20055,-3.54971 -4.4541,-5.90154 0.35695,-1.12468 13.07392,-11.33444 28.25992,-22.68836 l 27.61092,-20.64349 -7.4198,-3.51058 c -9.13921,-4.3241 -15.97201,-5.15321 -20.91979,-2.53846 -6.38819,3.37596 -74.417835,54.37522 -79.158609,59.34222 -7.080199,7.41807 -9.354187,14.9874 -9.29509,30.94021 0.03882,10.47945 0.402265,13.38904 2.248427,18 3.574372,8.92731 8.147542,16.23613 9.769586,15.61369 0.786994,-0.302 16.394473,-11.64183 34.683289,-25.19962 z m -25.247095,-3.48316 c -6.320956,-2.65799 -10.286227,-8.99199 -10.286227,-16.43091 0,-8.38553 5.142291,-15.25515 13.066769,-17.456 5.208901,-1.44665 6.698536,-1.32347 12.101065,1.00063 3.792069,1.63131 5.30832,1.83346 7.500481,1 5.884239,-2.23718 8.801098,-0.66056 10.559427,5.70758 2.152605,7.79609 -1.498322,13.18883 -15.420482,22.77739 -5.905435,4.06723 -12.768872,5.39961 -17.521033,3.40131 z m 15.431023,-14.20136 c 8.148561,-6.14775 8.947046,-7.48889 4.123426,-6.92576 -2.382204,0.27811 -4.593854,-0.28274 -7.014552,-1.77882 -6.178013,-3.81822 -12.94041,-0.4345 -12.94041,6.47503 0,4.17173 2.811574,7.50708 6.304988,7.47955 1.556408,-0.0123 5.369228,-2.11348 9.526548,-5.25 z m -44.158224,29.27045 c -1.7494,-5.14871 -2.701034,-10.49779 -3.035462,-17.06215 l -0.487152,-9.56215 -9.870046,1.1853 c -10.4138586,1.25061 -12.0994734,2.02769 -14.5100127,6.68915 -4.10435571,7.93695 4.744431,17.27773 22.5250067,23.77741 4.182395,1.52887 7.676719,2.71061 7.765164,2.6261 0.08845,-0.0845 -0.985928,-3.52866 -2.387498,-7.65366 z m -18.073312,-10.2 c -3.883999,-3.884 1.726738,-9.98625 5.795938,-6.30368 3.432924,3.10676 1.970382,7.50368 -2.495938,7.50368 -1.155,0 -2.64,-0.54 -3.3,-1.2 z M 256.60666,336.2681 c 0,-0.83432 -1.96258,-4.07026 -4.36129,-7.19099 -5.84132,-7.59959 -13.95828,-20.11711 -15.57351,-24.01661 -0.71931,-1.73659 -1.72318,-3.15743 -2.23081,-3.15743 -1.54507,0 -13.8185,9.68256 -13.13712,10.36394 0.34983,0.34983 1.57356,0.64045 2.71939,0.64583 3.32368,0.0156 12.01214,4.4794 16.3542,8.40219 2.19546,1.98346 6.36892,6.73317 9.27434,10.55489 5.0073,6.58647 6.9548,7.81806 6.9548,4.39818 z M 185.7595,324.96946 c 2.55906,-1.96151 5.37156,-4.76082 6.25,-6.22068 3.16509,-5.26003 1.27029,-15.34473 -3.34745,-17.81607 -3.65823,-1.95782 -6.75132,-1.03404 -13.40626,4.00388 -7.87966,5.96506 -8.02422,6.69328 -3.99429,20.12143 l 2.65484,8.84622 3.59516,-2.6842 c 1.97734,-1.4763 5.68893,-4.28906 8.248,-6.25058 z m -50.40191,-24.84329 3.25094,-2.7231 -2.95331,-10.86904 c -1.62432,-5.97797 -3.11282,-11.02855 -3.30778,-11.22351 -0.681,-0.681 -7.74085,4.67518 -7.74844,5.8786 -0.0203,3.2137 5.44558,21.71062 6.40853,21.68705 0.60452,-0.0148 2.56205,-1.2523 4.35006,-2.75 z m 16.44074,-12.22957 3.64737,-3.00647 -2.91952,-11.12789 c -1.60574,-6.12034 -2.91952,-11.32161 -2.91952,-11.55838 0,-0.23678 -1.7904,0.83618 -3.97865,2.38435 -2.18826,1.54817 -3.98826,3.42765 -4,4.17662 -0.0348,2.22121 5.31188,22.13824 5.94299,22.13824 0.31898,0 2.22128,-1.35291 4.22733,-3.00647 z m 17.02443,-12.64329 c 2.49163,-1.7267 3.65297,-3.20721 3.33377,-4.25 -0.26942,-0.88013 -1.61144,-5.82083 -2.98228,-10.97932 -1.37083,-5.1585 -2.72209,-9.60875 -3.00279,-9.88945 -0.76481,-0.76481 -7.56362,4.68452 -7.57246,6.06942 -0.0132,2.07287 5.28225,21.69911 5.85478,21.69911 0.29995,0 2.266,-1.19239 4.36898,-2.64976 z m -102.855886,-4.10024 7.757353,-5.75 -2.683358,-2.30919 c -3.174737,-2.73204 -3.799552,-2.55059 -12.032209,3.49424 l -6.321942,4.6419 1.675576,2.83652 c 0.921567,1.56009 2.164198,2.83653 2.761402,2.83653 0.597204,0 4.576634,-2.5875 8.843178,-5.75 z M 274.60666,196.56518 c 50.325,-37.39078 91.81503,-68.24853 92.20008,-68.57276 0.53545,-0.45089 -28.43185,-40.654452 -31.51011,-43.732711 -0.69684,-0.696842 -10.24531,6.101383 -15.48048,11.02164 -4.35685,4.094775 -6.75795,11.984751 -5.27374,17.329461 0.5792,2.08574 1.0556,6.9664 1.05867,10.84591 0.006,8.15146 -2.76216,14.92636 -8.22836,20.13512 -1.79634,1.71174 -30.04106,23.04686 -62.76606,47.41137 -32.725,24.36451 -61.63702,45.89678 -64.24893,47.84948 -2.6119,1.95271 -4.7494,4.16317 -4.75,4.91214 -0.003,3.76978 5.46232,21.97345 6.42776,21.40941 0.58914,-0.3442 42.24617,-31.21827 92.57117,-68.60906 z m -100.94118,34.04677 c 8.95324,-5.4154 124.1792,-91.49211 127.63084,-95.34346 1.82593,-2.03739 3.58394,-5.40769 4.11185,-7.88291 1.154,-5.41076 -0.41418,-15.84512 -2.2741,-15.13141 -2.92946,1.12414 -155.32914,115.21036 -154.70973,115.81552 0.37527,0.36664 2.88684,1.82914 5.58125,3.25 7.0237,3.70384 12.70437,3.49934 19.65989,-0.70774 z m 180.50042,-71.22144 23.53899,-17.51256 -1.7764,-3.00721 c -1.07225,-1.81517 -2.3306,-2.79455 -3.17449,-2.47072 -0.76895,0.29507 -11.69108,8.22284 -24.2714,17.61725 l -22.87331,17.08076 2.06678,2.90252 c 1.13672,1.59638 2.26569,2.90252 2.5088,2.90252 0.24312,0 11.03458,-7.88065 23.98103,-17.51256 z m 15.70862,-54.02349 c 2.05267,-1.39483 3.73214,-3.2214 3.73214,-4.05904 0,-1.42616 -10.99281,-16.664395 -12.84938,-17.811823 -0.46713,-0.288701 -2.7238,0.853595 -5.01483,2.538436 l -4.16551,3.063346 3.10233,4.152565 c 1.70628,2.28391 4.75047,6.49799 6.76486,9.364626 2.01439,2.86663 3.89556,5.22913 4.18039,5.25 0.28483,0.0209 2.19733,-1.10328 4.25,-2.49811 z M 320.6038,81.722587 c 6.75659,-5.174299 7.85171,-6.399239 6.72674,-7.524206 -1.12497,-1.124966 -2.7409,-0.688988 -9.92586,2.678001 -4.72018,2.211949 -8.82177,4.646181 -9.11465,5.409404 -0.57787,1.505905 1.86429,5.617283 3.33667,5.617283 0.49864,0 4.53834,-2.781217 8.9771,-6.180482 z"
       id="path410" /></g><path
     style="fill:#ffffff;stroke:none;stroke-width:7.99888;stroke-linecap:round;stroke-dasharray:none"
     d="m 72.825586,300.23703 c -9.506812,-3.44638 -16.166616,-7.17755 -20.458709,-11.46206 -3.051832,-3.04644 -4.340548,-5.38622 -4.54567,-8.25307 -0.132543,-1.85246 -0.05548,-2.2168 0.889933,-4.20758 1.673065,-3.52299 3.306818,-4.78217 7.452083,-5.74353 2.485618,-0.57645 16.422385,-2.29638 16.6437,-2.05399 0.09234,0.10114 9e-6,0.24385 -0.205186,0.31713 -0.552649,0.19738 -0.488756,2.66144 0.07462,2.87762 0.246234,0.0945 0.447699,0.30611 0.447699,0.47027 0,0.16415 -0.209083,0.21823 -0.464629,0.12017 -0.391393,-0.15019 -0.450199,0.0747 -0.373082,1.42708 0.05728,1.00443 0.219647,1.58129 0.433758,1.54104 0.225914,-0.0425 0.409981,0.87041 0.541632,2.68619 0.544967,7.51642 1.304026,11.44464 3.597227,18.61608 0.900609,2.81644 1.637473,5.20043 1.637473,5.29776 0,0.35906 -0.853346,0.11331 -5.670845,-1.63311 z m -8.644125,-14.97861 c 2.401823,-1.21117 2.697509,-4.10464 0.666157,-6.51876 -1.514868,-1.80032 -3.61307,-2.20978 -5.571142,-1.0872 -3.28384,1.88265 -2.940395,6.68754 0.56586,7.91653 1.455074,0.51002 2.919721,0.40519 4.339125,-0.31057 z"
     id="path418" /><path
     style="fill:#ffffff;stroke:none;stroke-width:7.99888;stroke-linecap:round;stroke-dasharray:none"
     d="m 99.478512,222.58066 c -0.969473,-1.01885 -2.775685,-3.8196 -2.775685,-4.30403 0,-0.28023 9.185253,-7.08997 11.490923,-8.51912 1.75426,-1.08737 3.20476,-1.50033 4.08897,-1.16416 0.40843,0.15528 1.64203,1.04538 2.74134,1.97799 l 1.99874,1.69565 -4.26529,3.16723 c -5.11436,3.79771 -11.4977,8.11645 -11.99657,8.11645 -0.19769,0 -0.774778,-0.4365 -1.282428,-0.97001 z"
     id="path419" /><path
     style="fill:#ffffff;stroke:none;stroke-width:7.99888;stroke-linecap:round;stroke-dasharray:none"
     d="m 94.694528,307.86045 c -1.720318,-1.20496 -6.259721,-9.29636 -8.566817,-15.27019 -1.901003,-4.92233 -2.102276,-6.57265 -2.104507,-17.25582 -0.0025,-11.95907 0.533991,-16.07459 2.852828,-21.88463 2.096616,-5.25325 4.932562,-8.58834 12.35105,-14.5249 14.356198,-11.4884 53.593858,-40.8878 67.316678,-50.43803 6.45771,-4.49417 7.68837,-5.04058 11.64015,-5.16819 4.89389,-0.15803 8.68093,0.96692 17.94064,5.32929 l 4.06199,1.91366 -18.53757,13.88294 c -21.73472,16.27732 -30.79539,23.33613 -35.62472,27.75378 -1.35124,1.23606 -1.56694,1.58584 -1.56694,2.5409 0,2.22897 1.94267,4.70602 3.99235,5.09055 1.22537,0.22988 2.7557,-0.39102 6.26722,-2.54278 1.33387,-0.81735 2.8469,-1.57004 3.36229,-1.67264 0.91531,-0.18221 0.95229,-0.14596 1.59199,1.56036 1.44453,3.85306 5.02238,19.34756 4.676,20.25022 -0.3435,0.89514 -68.03174,50.88991 -68.900177,50.88991 -0.05701,0 -0.395619,-0.20449 -0.752455,-0.45443 z m 20.314312,-27.76421 c 3.04691,-0.7694 6.95389,-2.92112 11.54054,-6.35583 7.15456,-5.35768 10.72461,-9.32389 11.83706,-13.1506 0.92435,-3.17966 -0.0276,-8.59856 -2.02175,-11.50887 -1.56026,-2.27705 -4.322,-2.82101 -8.21605,-1.61826 -2.67012,0.82472 -4.52201,0.64023 -8.01627,-0.79861 -5.12352,-2.10972 -6.74362,-2.30493 -10.88673,-1.31175 -4.05429,0.97188 -6.65729,2.38489 -9.259692,5.02651 -3.610109,3.66452 -5.132359,7.53683 -5.11313,13.00682 0.01233,3.50819 0.517756,5.70441 2.021366,8.78345 1.922078,3.93597 6.141636,7.34985 10.254936,8.29688 1.93398,0.44528 5.24989,0.28929 7.85972,-0.36974 z"
     id="path420" /><path
     style="fill:#ffffff;stroke:none;stroke-width:7.99888;stroke-linecap:round;stroke-dasharray:none"
     d="m 109.38761,270.26696 c -1.49094,-0.52698 -3.49837,-2.67985 -3.9716,-4.25936 -0.87396,-2.91702 -0.17797,-6.40793 1.65356,-8.2938 1.51778,-1.5628 3.11835,-2.21289 5.46772,-2.22076 1.69713,-0.006 2.28928,0.15734 4.47698,1.23256 1.38664,0.68152 3.32703,1.47781 4.31196,1.76953 0.98494,0.29173 1.62291,0.53998 1.41771,0.55168 -0.66617,0.038 -0.39404,0.54822 0.39847,0.74712 0.99219,0.24903 2.00091,-0.0705 1.80817,-0.57282 -0.0983,-0.25611 0.17606,-0.43822 0.79919,-0.53052 1.14336,-0.16937 1.69501,0.006 1.69501,0.53937 0,0.96407 -8.88202,7.85172 -12.77374,9.90553 -2.79918,1.47723 -3.73698,1.67807 -5.28343,1.13147 z"
     id="path421" /><path
     style="fill:#ffffff;stroke:none;stroke-width:7.99888;stroke-linecap:round;stroke-dasharray:none"
     d="m 195.86599,494.24141 c -2.68403,-0.5293 -5.40272,-2.31616 -9.04605,-5.94556 -7.46467,-7.43612 -12.53598,-15.94895 -16.05081,-26.94331 -1.74913,-5.47127 -2.83729,-10.82589 -4.38088,-21.55748 -1.62847,-11.32178 -2.72765,-17.3939 -4.33178,-23.92983 -3.4722,-14.14729 -9.78261,-27.54666 -17.09446,-36.29797 -1.28844,-1.54208 -1.8901,-2.50205 -1.79531,-2.86451 0.0985,-0.37649 -0.29304,-0.92857 -1.26546,-1.78453 -1.31473,-1.15727 -2.19399,-1.62424 -1.77168,-0.94093 0.38764,0.62721 -0.25978,0.25185 -1.59576,-0.92519 -4.63747,-4.08576 -10.98031,-7.10252 -16.9091,-8.04225 -1.31741,-0.20881 -2.49472,-0.5582 -2.62641,-0.77942 -0.27648,-0.46448 -1.50209,-0.52861 -2.26804,-0.11868 -0.2901,0.15526 -1.89648,0.42278 -3.56972,0.59448 -1.67325,0.17171 -4.68407,0.73405 -6.69071,1.24965 -6.06153,1.55748 -9.353496,1.19959 -12.360381,-1.34378 -1.118393,-0.94598 -3.761161,-4.55981 -3.621525,-4.95222 0.053,-0.14895 1.204074,-1.47691 2.557935,-2.95103 6.12969,-6.67417 9.211991,-12.20885 10.676571,-19.17124 0.24313,-1.15577 0.44205,-2.5627 0.44205,-3.12651 0,-0.71224 0.13664,-1.02512 0.44769,-1.02512 0.60396,0 0.60519,-2.31599 0.002,-3.47285 -0.24522,-0.47019 -0.4514,-1.32498 -0.45818,-1.89953 -0.0135,-1.14003 -0.41761,-3.0472 -1.60346,-7.56642 -0.43599,-1.66156 -0.66991,-3.12176 -0.53788,-3.35768 0.25535,-0.4563 20.80039,-15.87134 54.97838,-41.25057 51.90573,-38.54313 82.43753,-61.19395 107.74605,-79.93424 79.40103,-58.79434 92.93139,-68.75838 93.3683,-68.75838 0.59463,0 5.00526,5.23195 7.50437,8.90178 1.0885,1.59841 1.22203,1.94822 0.87099,2.28169 -0.22804,0.21663 -10.68929,8.0172 -23.24723,17.3346 -41.00716,30.42542 -58.14118,43.609 -62.09874,47.78119 -6.42603,6.77452 -8.43851,13.97624 -7.75433,27.74907 0.17034,3.42907 0.30991,6.52567 0.31016,6.88132 3.5e-4,0.50113 -2.06468,2.18527 -9.17737,7.48463 -12.7473,9.49747 -16.55094,12.13611 -16.80374,11.65703 -0.11262,-0.21343 -0.29561,-1.31668 -0.40665,-2.45167 -0.41225,-4.21399 -2.37715,-8.25206 -5.76063,-11.83873 -3.86517,-4.09728 -8.07262,-6.01768 -13.21792,-6.03305 -2.30901,-0.007 -3.24541,0.13628 -5.04377,0.77121 -6.00989,2.12186 -15.66599,9.27538 -18.58766,13.77029 -3.1919,4.91063 -3.22773,11.12412 -0.12493,21.66028 6.69176,22.72314 35.33244,117.01449 40.03053,131.78923 1.61968,5.09364 2.57815,6.99888 4.86446,9.66959 0.48534,0.56694 0.82488,1.18078 0.75454,1.36409 -0.0703,0.1833 0.48204,0.98824 1.2275,1.78875 0.99262,1.0659 1.44402,1.36685 1.68648,1.12438 0.24247,-0.24246 0.966,0.13968 2.70323,1.42776 1.30469,0.96737 3.53927,2.38958 4.96574,3.16048 6.5065,3.51628 11.59091,7.79006 13.26461,11.14986 1.43491,2.88043 0.96242,5.50412 -1.42032,7.88686 -2.58989,2.58988 -29.84702,23.06007 -52.08051,39.1126 -14.76826,10.66265 -16.56449,11.77515 -20.28606,12.56411 -2.16618,0.45925 -2.58032,0.46937 -4.41397,0.10775 z m 11.31744,-19.20545 c 1.20457,-0.23081 2.79452,-0.65087 3.53322,-0.93348 1.87469,-0.71728 9.58134,-5.88751 16.77071,-11.25108 7.44078,-5.55116 11.34631,-9.30478 12.80888,-12.31063 0.95578,-1.96432 1.01313,-2.26001 1.01313,-5.22315 0,-3.57502 -0.33311,-4.92035 -7.04672,-28.46005 -8.51991,-29.87305 -33.84145,-114.61685 -37.73898,-126.30139 -2.46028,-7.37573 -2.90151,-8.24992 -5.27144,-10.44412 -2.49112,-2.30639 -4.74505,-3.72744 -7.39747,-4.66392 -2.77951,-0.98135 -7.67063,-0.9922 -10.48635,-0.0233 -2.99223,1.02968 -13.14947,8.09087 -32.94038,22.89977 -11.66915,8.73165 -14.78345,11.2261 -17.07788,13.67886 -3.12898,3.34489 -5.10197,8.25288 -5.17619,12.8762 -0.0158,0.98493 -0.0965,1.6229 -0.17928,1.41771 -0.24529,-0.60789 -0.61934,-0.42759 -0.82667,0.39846 -0.24638,0.98169 0.0687,2.00162 0.56011,1.81306 0.28174,-0.10812 0.42446,0.62308 0.56377,2.88845 0.53265,8.66113 4.15971,15.3129 10.79445,19.79625 2.13733,1.44427 3.42514,2.11374 7.73147,4.01921 5.92778,2.62292 10.80497,5.89958 12.97683,8.71827 0.71943,0.93369 1.61141,1.77376 1.98217,1.86681 0.742,0.18623 3.02509,2.8731 4.76523,5.60799 3.82627,6.01356 10.81129,26.80398 15.83823,47.14131 1.91555,7.74971 3.26994,14.63743 4.29432,21.83863 1.63214,11.47376 4.09584,19.03276 8.17141,25.0711 3.46555,5.13457 8.83307,8.98987 13.63357,9.79254 1.75996,0.29428 6.68383,0.17347 8.70386,-0.21355 z m 47.8584,-241.46873 c 2.11104,-0.88205 2.8761,-3.95037 1.65541,-6.63903 -1.3055,-2.87546 -4.87205,-2.8682 -7.40359,0.0151 -1.68626,1.92054 -1.52762,3.46668 0.56567,5.51326 1.50426,1.4707 3.36598,1.86969 5.18251,1.1107 z"
     id="path422" /><path
     style="fill:#ffffff;stroke:none;stroke-width:7.99888;stroke-linecap:round;stroke-dasharray:none"
     d="m 152.5507,352.17409 c -1.37617,-0.97075 -5.47261,-3.26453 -9.10319,-5.09727 -10.47316,-5.28692 -12.68594,-6.9308 -13.68702,-10.16811 -1.60901,-5.20329 -1.7477,-13.12323 -0.27907,-15.93631 0.8836,-1.69248 10.00952,-9.07251 25.12372,-20.31727 17.72175,-13.18474 22.45454,-16.06588 25.46375,-15.50135 1.83975,0.34514 3.83036,2.20667 5.22382,4.88507 1.51566,2.9133 3.24489,7.98152 3.51902,10.314 0.19661,1.67283 0.17148,1.75924 -0.81009,2.78584 -1.3327,1.39384 -4.90858,4.18031 -9.51926,7.41779 -4.50065,3.16021 -6.76187,4.86177 -8.9945,6.76829 -0.92514,0.79002 -1.91863,1.4364 -2.20775,1.4364 -0.83178,0 -3.12338,2.03649 -3.12913,2.78079 -0.003,0.35836 -0.78482,1.6253 -1.73789,2.81541 -2.22102,2.77343 -4.37948,6.87241 -5.09773,9.68074 -0.4802,1.87756 -1.21791,7.47991 -1.21791,9.24907 0,0.2998 -0.16789,0.51152 -0.37309,0.47048 -0.4765,-0.0953 -0.69261,3.00836 -0.24092,3.46005 0.51908,0.51908 0.28858,6.80183 -0.24734,6.74189 -0.10081,-0.0113 -1.30924,-0.81475 -2.68542,-1.78551 z"
     id="path423" /><path
     style="fill:#ffffff;stroke:none;stroke-width:7.99888;stroke-linecap:round;stroke-dasharray:none"
     d="m 200.03819,465.03614 c -4.56107,-1.69433 -8.43254,-6.67464 -10.36062,-13.32802 -1.03021,-3.55505 -2.30367,-9.80969 -3.73486,-18.34397 -2.67767,-15.96711 -5.12224,-25.35696 -12.23622,-47.00054 -4.08404,-12.42529 -5.32284,-16.73959 -6.09263,-21.21846 -1.46462,-8.52156 -1.94596,-21.72172 -0.95675,-26.23756 1.06606,-4.86664 3.70786,-8.98796 8.18109,-12.76285 4.80947,-4.05863 16.36379,-11.86055 17.56498,-11.86055 0.53741,0 2.83239,7.18174 11.11143,34.77123 10.08768,33.61672 24.77101,84.25216 26.9465,92.92495 l 0.9989,3.98222 -1.79666,1.68862 c -4.86263,4.57022 -18.88444,15.05028 -22.82675,17.06096 -1.8789,0.95829 -4.72567,1.09395 -6.79841,0.32397 z"
     id="path424" /><path
     style="fill:#ffffff;stroke:none;stroke-width:7.99888;stroke-linecap:round;stroke-dasharray:none"
     d="m 235.97507,339.7274 c -1.35596,-2.62214 -5.82682,-16.62007 -5.43387,-17.01302 0.10401,-0.10401 2.09931,0.44306 4.43401,1.2157 4.58565,1.51755 8.27462,2.43362 11.10961,2.75879 0.98493,0.11298 1.90611,0.27273 2.04705,0.35502 0.14094,0.0823 -1.27931,1.7108 -3.1561,3.61893 -4.8988,4.98058 -7.25719,7.64532 -7.82453,8.84089 -0.27285,0.57499 -0.5535,1.04544 -0.62366,1.04544 -0.0702,0 -0.31879,-0.36979 -0.55251,-0.82175 z"
     id="path425" /><path
     style="fill:#ffffff;stroke:none;stroke-width:7.99888;stroke-linecap:round;stroke-dasharray:none"
     d="m 244.28401,315.95194 c -4.21189,-0.67278 -8.1076,-2.27689 -11.62464,-4.78659 -2.65548,-1.89492 -6.12777,-5.71131 -7.38358,-8.11531 -1.22482,-2.34465 -1.80895,-4.19902 -1.40195,-4.45056 0.43125,-0.26653 0.3194,-1.83649 -0.16538,-2.32126 -0.38655,-0.38655 -0.38521,-0.64827 0.0112,-2.1852 1.02739,-3.98289 3.60117,-8.19967 4.73844,-7.76326 0.25637,0.0984 0.99469,1.02241 1.64071,2.05341 0.64603,1.031 1.88812,3.00964 2.7602,4.39698 4.06667,6.46937 11.89046,12.32271 19.22641,14.38418 3.31462,0.93144 8.65283,0.97613 9.87845,0.0827 1.06268,-0.77465 2.17807,-2.94256 2.17807,-4.23337 0,-2.13241 -1.07972,-3.27799 -5.96931,-6.33339 -7.21614,-4.50922 -9.62744,-7.05027 -12.92747,-13.62306 -2.03906,-4.06128 -2.69775,-6.20176 -2.28931,-7.43935 0.45931,-1.39171 2.09103,-2.7224 5.02317,-4.09645 3.51761,-1.6484 10.49208,-2.98257 10.49208,-2.00706 0,0.16416 0.52931,0.29847 1.17624,0.29847 0.64694,0 1.25926,-0.13431 1.36071,-0.29847 0.26157,-0.42322 1.61617,-0.37056 4.2009,0.16333 2.857,0.59013 6.33524,2.0583 8.79275,3.71143 5.69369,3.83005 13.76618,14.27499 15.56581,20.14047 0.55994,1.82499 0.59592,2.27663 0.29545,3.70909 -0.47212,2.25089 -1.39562,3.50967 -4.28556,5.84151 -6.55619,5.29007 -15.55399,10.43222 -20.40983,11.664 -4.23152,1.07341 -9.60536,1.73306 -10.63706,1.30572 -0.48073,-0.19913 -1.34068,-0.25508 -2.0938,-0.13624 -2.528,0.39892 -5.79881,0.41427 -8.15274,0.0383 z"
     id="path426" /><path
     style="fill:#ffffff;stroke:none;stroke-width:7.99888;stroke-linecap:round;stroke-dasharray:none"
     d="m 217.42494,279.88604 c -0.0757,-0.2052 -0.88418,-2.85781 -1.79656,-5.8947 -4.00122,-13.31815 -4.06392,-15.49088 -0.54376,-18.84303 2.28784,-2.17863 6.90463,-5.50672 9.45928,-6.81886 1.92894,-0.99076 2.63152,-1.19886 4.02928,-1.19345 3.90491,0.0151 6.52204,2.56255 7.81121,7.60316 1.00537,3.93096 0.64311,7.89344 -0.97389,10.65264 -1.17809,2.01027 -4.85164,5.31398 -11.47053,10.31572 -3.31276,2.50338 -6.10289,4.5516 -6.20027,4.5516 -0.0974,0 -0.23903,-0.16789 -0.31476,-0.37308 z"
     id="path427" /><path
     style="fill:#ffffff;stroke:none;stroke-width:7.99888;stroke-linecap:round;stroke-dasharray:none"
     d="m 207.69827,223.62529 c -1.1465,-2.96457 -5.32717,-18.88946 -5.33489,-20.32151 -0.002,-0.45308 0.55809,-1.24594 1.6,-2.26317 1.80858,-1.76575 5.19355,-4.13025 5.57514,-3.89442 0.32697,0.20208 1.26552,3.31404 3.85509,12.78239 l 2.1109,7.71819 -0.75587,1.59779 c -0.66332,1.40212 -1.09081,1.81843 -3.49098,3.39965 -1.5043,0.99102 -2.84915,1.80186 -2.98853,1.80186 -0.13939,0 -0.39628,-0.36935 -0.57086,-0.82078 z"
     id="path428" /><path
     style="fill:#ffffff;stroke:none;stroke-width:7.99888;stroke-linecap:round;stroke-dasharray:none"
     d="m 190.14682,234.66851 c -1.88662,-6.12224 -4.79973,-17.63696 -4.79973,-18.97197 0,-0.70459 2.82893,-3.35068 5.36714,-5.02026 l 2.24373,-1.47587 0.35189,1.28044 c 2.20545,8.02503 5.45538,21.25696 5.26466,21.43478 -0.93528,0.87197 -7.10823,5.66292 -7.29646,5.66292 -0.12897,0 -0.63802,-1.30952 -1.13123,-2.91004 z"
     id="path429" /><path
     style="fill:#ffffff;stroke:none;stroke-width:7.99888;stroke-linecap:round;stroke-dasharray:none"
     d="m 174.33315,249.10477 c -0.92269,-1.11178 -5.9986,-18.53648 -5.9986,-20.59214 0,-1.41319 6.69505,-6.74533 7.48009,-5.95737 0.21731,0.21812 2.59482,8.47101 5.29641,18.38506 l 0.87542,3.21255 -1.67743,1.44892 c -1.79248,1.54831 -5.06989,3.91538 -5.42118,3.91538 -0.11684,0 -0.36646,-0.18558 -0.55471,-0.4124 z"
     id="path430" /><path
     style="fill:#ffffff;stroke:none;stroke-width:7.99888;stroke-linecap:round;stroke-dasharray:none"
     d="m 202.46145,180.00307 c -2.55671,-0.73165 -9.95119,-4.51888 -9.95119,-5.0967 0,-0.73737 57.83061,-44.43265 114.13215,-86.235235 32.23954,-23.937112 39.59648,-29.276497 40.33901,-29.276497 0.57611,0 1.50787,2.783976 1.88886,5.643686 0.74606,5.599928 0.25721,9.575235 -1.61582,13.139614 -1.4294,2.72016 -2.41909,3.842391 -5.76429,6.536268 -15.45841,12.448637 -100.69775,76.099664 -120.73976,90.160374 -4.05924,2.8478 -7.28879,4.54783 -9.9276,5.22586 -2.3743,0.61006 -6.03842,0.56739 -8.36136,-0.0974 z"
     id="path431" /><path
     style="fill:#ffffff;stroke:none;stroke-width:7.99888;stroke-linecap:round;stroke-dasharray:none"
     d="m 224.80733,210.48878 c -1.69657,-3.96972 -4.92086,-15.28268 -5.31438,-18.64641 l -0.18374,-1.5706 1.89688,-1.85013 c 1.04329,-1.01757 19.0885,-14.65254 40.10047,-30.29993 52.50455,-39.09958 82.21296,-61.413847 87.7744,-65.928174 5.85298,-4.750974 8.99716,-10.345522 9.96233,-17.726294 0.2247,-1.718302 0.50499,-2.772127 0.77792,-2.92487 0.54722,-0.306237 0.54765,-1.39589 8.8e-4,-2.176524 -0.24892,-0.355373 -0.56066,-2.057104 -0.75044,-4.096504 -0.17856,-1.918731 -0.5028,-4.394826 -0.72055,-5.502434 -0.50632,-2.57552 -0.3865,-6.714688 0.25871,-8.936827 0.63507,-2.187214 1.94247,-4.835611 3.30021,-6.685224 1.86425,-2.53962 11.27152,-10.042511 15.11378,-12.054188 l 1.66608,-0.872304 0.7711,0.91641 c 4.73046,5.621823 30.63064,41.545385 30.63064,42.484697 0,0.274663 -22.631,17.150539 -105.95526,79.010556 -13.87118,10.29798 -30.72702,22.81421 -37.45742,27.81385 -14.99759,11.14087 -40.46811,29.96563 -40.92937,30.25009 -0.21154,0.13046 -0.56418,-0.32058 -0.94224,-1.20519 z"
     id="path432" /><path
     style="fill:#ffffff;stroke:none;stroke-width:7.99888;stroke-linecap:round;stroke-dasharray:none"
     d="m 298.09187,284.10868 c -0.45174,-0.33938 -2.12473,-2.25095 -3.71776,-4.24795 -1.59303,-1.99699 -3.88773,-4.8 -5.09934,-6.22891 -1.23674,-1.45855 -2.11251,-2.74432 -1.99678,-2.93158 0.24809,-0.4014 -2.41055,-3.03271 -2.94188,-2.91164 -0.20323,0.0463 -1.30443,-0.60544 -2.4471,-1.44832 -4.78102,-3.52671 -10.3212,-6.13007 -14.22293,-6.68343 -1.19261,-0.16915 -2.27976,-0.41892 -2.41589,-0.55505 -0.47806,-0.47806 7.6836,-7.25701 11.51635,-9.5653 1.06821,-0.64333 1.16576,-0.65366 1.69029,-0.17897 0.30616,0.27708 1.09834,1.60155 1.76039,2.94328 2.31261,4.68677 8.66212,14.58906 13.71695,21.39207 4.54625,6.11855 6.06526,8.62164 5.96379,9.82736 -0.10726,1.27452 -0.65522,1.45305 -1.80609,0.58844 z"
     id="path433" /><path
     style="fill:#ffffff;stroke:none;stroke-width:7.99888;stroke-linecap:round;stroke-dasharray:none"
     d="m 373.01542,122.73333 c -0.41512,-0.44559 -1.38178,-1.67244 -2.14813,-2.72634 -1.12553,-1.54783 -1.31912,-1.98561 -1.00709,-2.27741 1.2576,-1.1761 41.03676,-30.557319 45.41058,-33.540631 l 1.44833,-0.98789 0.79016,0.575459 c 0.83923,0.611204 3.32711,4.162295 3.32711,4.748981 0,0.191584 -2.24968,2.018783 -4.9993,4.060442 -28.86224,21.430959 -40.59638,30.079009 -41.7395,30.761949 -0.18007,0.10759 -0.66705,-0.16897 -1.08216,-0.61456 z"
     id="path434" /><path
     style="fill:#ffffff;stroke:none;stroke-width:7.99888;stroke-linecap:round;stroke-dasharray:none"
     d="m 408.52447,53.785596 c -0.41739,-0.444382 -2.74135,-3.561311 -5.16436,-6.92651 -2.42301,-3.365199 -5.19023,-7.151512 -6.14939,-8.41403 -0.95915,-1.262518 -1.74391,-2.35254 -1.74391,-2.422271 0,-0.240505 6.41977,-4.62828 7.57279,-5.175838 l 1.15579,-0.548871 1.17799,1.341182 c 3.92476,4.468477 11.58295,15.507518 11.58295,16.696474 0,0.611022 -2.2568,2.79666 -4.32105,4.184807 -3.29782,2.217675 -3.2344,2.198157 -4.11081,1.265057 z"
     id="path435" /><path
     style="fill:#ffffff;stroke:none;stroke-width:7.99888;stroke-linecap:round;stroke-dasharray:none"
     d="m 354.19574,34.023979 c -0.81595,-0.641825 -2.3049,-3.364235 -2.3049,-4.2143 0,-0.925069 2.13681,-2.326552 7.90934,-5.187555 6.69136,-3.316395 9.35675,-4.280276 10.45384,-3.780406 1.80572,0.82274 0.60621,2.351788 -5.62111,7.165404 -3.2532,2.514672 -9.12166,6.614878 -9.46761,6.614878 -0.11511,0 -0.55142,-0.26911 -0.96956,-0.598021 z"
     id="path436" /></svg>
