<?xml version="1.0" encoding="UTF-8" standalone="no"?>
<!-- Created with Inkscape (http://www.inkscape.org/) -->

<svg
   width="512"
   height="512"
   viewBox="0 0 135.46667 135.46667"
   version="1.1"
   id="svg1"
   xml:space="preserve"
   xmlns="http://www.w3.org/2000/svg"
   xmlns:svg="http://www.w3.org/2000/svg"><defs
     id="defs1" /><path
     style="fill:#000000;stroke-width:0.576697"
     d="m 38.787462,130.15176 c 0.432342,-0.11843 1.006392,-0.3353 1.275682,-0.48179 0.754499,-0.41046 1.635697,-1.48308 1.941121,-2.36277 0.50443,-1.45289 0.137777,-2.72733 -1.521606,-5.28887 -1.430574,-2.20834 -1.84852,-3.42149 -1.957857,-5.68294 -0.166504,-3.44372 0.735333,-8.99817 2.185712,-13.46191 1.031415,-3.174242 1.764783,-4.565357 2.863572,-5.431639 1.085301,-0.85565 2.318461,-0.765584 4.72927,0.345445 1.750026,0.806512 2.536567,1.084363 3.979238,1.405719 1.069667,0.238259 1.270588,0.228539 7.555221,-0.365037 6.942772,-0.655759 7.96524,-0.83116 10.019956,-1.719392 3.925479,-1.69686 6.724801,-4.66789 8.248304,-8.754226 0.286184,-0.767604 0.556802,-1.399396 0.601362,-1.403979 0.04456,-0.0046 1.668221,0.663833 3.60813,1.485372 1.939909,0.821531 8.428413,3.512935 14.418892,5.98089 5.990481,2.467955 10.916791,4.502966 10.947361,4.522231 0.0306,0.01936 0.15193,0.322479 0.26971,0.673799 0.55062,1.642407 2.23525,2.449667 3.89505,1.866447 1.02641,-0.36067 1.72044,-1.21711 1.9337,-2.386219 0.13621,-0.746794 0.11073,-1.291012 -0.14118,-3.014917 -0.1691,-1.156994 -0.4462,-3.053743 -0.6158,-4.214998 -0.80787,-5.531108 0.13063,-11.385411 2.44216,-15.234016 0.98267,-1.636114 1.43193,-2.047427 4.23996,-3.881811 l 2.47567,-1.61726 2.16229,-0.224986 c 2.54741,-0.264992 3.77139,-0.620237 5.22231,-1.515473 2.11559,-1.305334 3.58464,-3.18629 4.57249,-5.854546 1.05666,-2.854176 1.07015,-3.160161 0.4601,-10.47775 -0.48706,-5.84282 -0.55899,-6.430284 -0.84326,-6.888222 -0.53935,-0.868816 -1.16044,-1.027731 -3.36852,-0.861884 l -1.93193,0.145108 -0.11773,-0.394541 c -0.0647,-0.216996 -0.24927,-0.898702 -0.41009,-1.514899 -0.99713,-3.821138 -3.00475,-8.1214 -5.50395,-11.789261 -0.85901,-1.260696 -2.47158,-3.264889 -4.98562,-6.196356 -0.65065,-0.758688 -1.45884,-1.849019 -1.79599,-2.422957 -1.13402,-1.930493 -1.282,-2.517257 -1.85579,-7.358078 -0.28653,-2.417093 -0.57875,-4.614582 -0.64948,-4.883297 -0.16575,-0.629758 -1.0367,-1.4340462 -1.84792,-1.7064525 -1.57247,-0.5280243 -3.52382,0.2445065 -4.16365,1.6483735 -0.26453,0.580412 -0.32979,1.010329 -0.29588,1.949236 l 0.0435,1.204587 -1.38003,0.750431 c -0.75902,0.412737 -4.12918,2.208484 -7.48924,3.990547 -3.360066,1.782066 -10.427368,5.550019 -15.705119,8.373229 -5.277752,2.823209 -9.955862,5.324592 -10.395801,5.558628 -0.439939,0.234035 -3.984103,2.13808 -7.875916,4.231212 -3.891815,2.093132 -7.163982,3.834957 -7.271481,3.870725 -0.107495,0.03576 -0.52441,-0.11339 -0.92647,-0.33147 -0.973251,-0.527892 -1.620234,-0.660514 -2.687134,-0.550823 -0.488429,0.05022 -0.894428,0.02932 -0.902219,-0.04648 -0.0078,-0.07578 0.135159,-0.515872 0.317667,-0.977991 0.636508,-1.611665 0.184906,-3.971307 -0.963995,-5.036927 -1.223936,-1.135216 -2.27436,-1.213241 -7.555527,-0.56122 -3.401593,0.419963 -3.933468,0.519879 -4.541342,0.853096 -1.431249,0.784563 -2.036022,2.272841 -1.801286,4.432757 0.131644,1.211449 0.461942,2.088512 0.952857,2.530306 0.291827,0.262624 0.232628,0.272724 -4.394931,0.749982 -4.610792,0.475492 -4.703047,0.491245 -5.412872,0.91969 -0.397168,0.239756 -0.874145,0.635726 -1.059948,0.879936 -0.185804,0.244207 -1.294773,2.213782 -2.464391,4.376828 l -2.126562,3.932809 -6.897087,0.798676 c -6.4357834,0.745257 -6.9798326,0.82956 -8.134407,1.26045 -4.0280965,1.503303 -6.5954078,4.737795 -7.37753834,9.294781 -0.19632559,1.143854 -0.18055538,1.58187 0.18709125,5.195989 0.33340929,3.27282 0.46257709,4.103397 0.75929069,4.863692 1.2319286,3.156889 3.7954998,5.271079 7.667188,6.323177 1.9817744,0.538519 2.9682574,1.010037 3.8819324,1.855323 0.940467,0.870109 1.347208,1.895948 1.225515,3.090994 -0.193266,1.898087 -0.432496,2.475023 -3.438107,8.291378 -4.6546816,9.007594 -6.2101714,12.907654 -7.553881,18.939814 -1.3777067,6.18479 -1.5990857,10.69111 -0.6759465,13.75938 1.3823527,4.59456 5.094859,7.11231 10.5675795,7.16671 1.698321,0.0168 24.261533,-2.31374 25.387592,-2.62233 z m -26.818517,-3.08988 c -2.5453174,-0.38859 -3.7779024,-1.66539 -4.0100593,-4.15387 -0.2677462,-2.871 0.5605066,-8.42605 1.9660297,-13.18477 1.0710586,-3.62628 2.4072396,-6.71856 6.1048046,-14.1281 1.235751,-2.476314 2.407742,-4.829549 2.604453,-5.229417 1.197036,-2.433469 1.770663,-5.082059 1.554984,-7.179807 -0.214996,-2.091137 -0.905943,-3.594901 -2.475614,-5.387941 -1.467506,-1.676333 -2.964803,-2.512002 -6.225889,-3.4748 C 8.304845,73.383492 7.3873785,72.665209 6.7965828,70.650522 6.6548226,70.167187 6.513812,69.528137 6.4831812,69.230416 L 6.4274863,68.689105 17.321982,67.607551 c 5.991974,-0.594861 13.901573,-1.373565 17.576889,-1.730456 l 6.682395,-0.648903 1.406873,0.517132 c 2.651571,0.974656 -0.128193,1.160971 34.796685,-2.332301 l 31.161286,-3.116825 3.50471,2.848786 3.5047,2.848786 -1.64446,2.177381 c -0.90446,1.197562 -1.95775,2.605494 -2.34064,3.128741 l -0.69618,0.951357 -3.12276,0.321062 -3.12277,0.321064 -0.1619,-1.574704 -0.16189,-1.574701 1.25711,-0.196298 c 0.96713,-0.151016 1.37857,-0.289776 1.78359,-0.601543 1.16184,-0.894331 1.26724,-2.76712 0.21577,-3.833497 -1.01086,-1.025201 -0.64873,-1.032333 -13.784285,0.271448 -10.647786,1.056858 -11.745761,1.189196 -12.654961,1.525395 -1.88845,0.698285 -3.268144,1.513405 -4.789421,2.829581 -0.820349,0.709748 -1.889632,1.632343 -2.376184,2.050214 l -0.88464,0.759761 -1.465959,-0.08524 c -1.218881,-0.07086 -3.269535,0.09986 -12.16696,1.013009 l -10.701001,1.09826 -1.178355,0.474227 c -2.07092,0.833435 -3.204815,1.65222 -4.498432,3.248311 -1.457929,1.79882 -2.190991,3.569629 -2.953659,7.134945 -1.21774,5.692698 -1.153304,5.48945 -4.272669,13.477346 -1.137301,2.912391 -2.413328,7.833401 -2.911268,11.227461 -0.436009,2.97196 -0.494009,4.98888 -0.219453,7.63138 0.303132,2.91838 0.630867,4.05365 1.650134,5.71768 0.661139,1.07935 0.70556,1.20481 0.48676,1.37441 -0.165632,0.12838 -3.70148,0.52146 -11.327889,1.25929 -8.947612,0.86569 -11.252506,1.04741 -11.944198,0.94182 z M 100.97164,90.871422 c -10.034382,-4.175921 -14.365266,-5.957425 -16.84945,-6.93101 -1.42427,-0.558186 -2.559595,-1.076784 -2.522948,-1.152434 0.10111,-0.208711 2.026765,-1.409837 2.937353,-1.832168 1.623303,-0.752888 3.260676,-1.066823 9.165937,-1.75739 3.131551,-0.366201 7.787118,-0.916119 10.345728,-1.222029 l 4.65199,-0.556202 -0.27505,0.84712 c -1.23505,3.803735 -1.78766,8.760781 -1.40089,12.564393 0.10382,1.01988 0.16356,2.009659 0.13304,2.199468 l -0.0556,0.345097 -0.74156,-0.285456 c -0.40787,-0.157008 -2.83276,-1.155734 -5.38867,-2.219404 z m -45.344143,2.901704 c -2.994693,0.05918 -5.019434,-0.536621 -7.040424,-2.071729 -0.802962,-0.609921 -1.254589,-1.10214 -1.759244,-1.917363 -0.611034,-0.987069 -0.691183,-1.218283 -0.801216,-2.311329 -0.301977,-3.000081 0.743508,-5.600592 2.720779,-6.76739 0.695389,-0.410351 1.085727,-0.520019 2.606793,-0.732394 l 1.788938,-0.249771 -0.04018,0.752071 c -0.0607,1.135845 0.259797,3.815568 0.586721,4.905815 0.672373,2.242259 2.001902,4.221052 3.857568,5.741388 1.378563,1.129441 2.325683,1.599103 3.070353,1.522543 1.71541,-0.176366 2.764603,-1.933401 2.074394,-3.473888 -0.129861,-0.28984 -0.754956,-0.948446 -1.441346,-1.518622 -2.465908,-2.048393 -3.454118,-4.548469 -3.010363,-7.615926 l 0.09669,-0.668385 6.01835,-0.573879 c 5.872079,-0.559939 6.034401,-0.567308 6.678768,-0.303385 1.434806,0.587677 2.07499,1.718457 2.319548,4.097095 0.28128,2.735817 -0.354229,4.911867 -2.0327,6.960181 -1.167233,1.424422 -2.2752,2.214185 -4.013455,2.860796 -0.970607,0.361057 -1.653924,0.469051 -5.509177,0.870699 -2.420604,0.25236 -5.197485,0.474255 -6.170798,0.493483 z m 23.14055,-17.35783 c 0.571159,-1.684638 2.763904,-3.80258 4.578602,-4.422417 l 0.407507,-0.139194 0.17752,1.7266 0.177519,1.726604 -0.977187,0.350507 c -0.934824,0.335312 -3.14226,1.601711 -4.040376,2.31795 l -0.425294,0.33917 -0.09979,-0.505299 c -0.06103,-0.3091 0.0172,-0.850338 0.201496,-1.393923 z m 17.892653,-4.348848 -0.156055,-1.517845 1.669628,-0.171661 1.669629,-0.171661 0.156055,1.517844 0.156053,1.517844 -1.669626,0.17166 -1.669629,0.171662 z m -8.044576,0.827095 -0.156055,-1.517844 1.593737,-0.163858 1.593736,-0.163858 0.156055,1.517842 0.156057,1.517844 -1.593737,0.163858 -1.593737,0.16386 z m 36.216616,-8.747066 c 1.27276,-2.035635 2.71885,-5.581344 3.23551,-7.93321 0.22422,-1.020617 0.38455,-2.313565 0.60595,-4.886244 0.019,-0.221579 0.13934,-0.359432 0.33063,-0.379122 0.29147,-0.02997 0.3123,0.0821 0.67974,3.655916 0.41355,4.022317 0.38052,4.915636 -0.23142,6.258593 -0.86515,1.898678 -2.74239,3.418421 -4.54965,3.683207 l -0.3526,0.05167 z m -11.57736,-7.466101 c -1.58217,-1.261032 -3.01257,-2.286496 -3.2291,-2.314954 -0.2138,-0.02811 -15.212546,1.452578 -33.330558,3.290396 l -32.941839,3.341488 -1.335857,-0.311734 -1.335856,-0.311736 -17.354716,1.740207 -17.3547095,1.740208 0.067101,-0.34766 c 0.1504963,-0.779586 0.6850261,-1.978462 1.1389543,-2.554538 0.579615,-0.735585 1.8438333,-1.495407 3.1141442,-1.87168 1.241941,-0.367866 38.848656,-4.170279 38.957289,-3.938968 0.180604,0.384551 1.115026,1.085485 1.568059,1.176243 0.749227,0.150092 11.325839,-0.847007 37.759889,-3.559781 22.542189,-2.313341 23.728909,-2.421697 23.651359,-2.158759 -0.124,0.420369 -0.0491,2.266713 0.10959,2.703801 0.0771,0.212387 0.37419,0.497753 0.66013,0.634149 0.79942,0.381331 1.56067,0.22827 2.64903,-0.532635 2.22804,-1.557668 7.51671,-5.637474 7.79456,-6.012905 0.39849,-0.538369 0.27826,-2.199493 -0.18238,-2.519509 -0.34376,-0.238861 -3.63856,-1.77469 -7.19542,-3.354052 -2.0804,-0.923769 -2.67314,-1.123568 -3.17792,-1.071205 -0.82155,0.08522 -1.51765,0.633048 -1.74161,1.370614 -0.17715,0.58341 -0.0436,1.324742 0.46544,2.58178 l 0.14401,0.355703 -21.398248,2.098563 C 78.987685,48.007618 67.611097,49.131361 65.475416,49.35061 l -3.883051,0.398653 -1.184597,-2.105886 c -0.65153,-1.158239 -1.160138,-2.13221 -1.130241,-2.164381 0.09304,-0.100124 26.838659,-14.417887 41.048163,-21.974367 2.95514,-1.571521 5.66812,-3.045661 6.02883,-3.275866 0.3607,-0.230201 0.8046,-0.48195 0.98646,-0.559439 0.30423,-0.129634 0.33555,-0.09317 0.39207,0.456594 0.0897,0.872725 0.73779,3.100264 1.22183,4.199698 0.86946,1.974894 1.76906,3.216206 4.60372,6.352475 3.0086,3.32871 5.11595,6.295493 6.90461,9.720555 l 0.91228,1.746874 1.61992,0.487334 c 3.12566,0.940326 3.76663,1.463826 3.94867,3.224942 0.12934,1.251261 -0.15464,2.205649 -0.8631,2.900807 -0.25685,0.252018 -1.09417,0.882345 -1.86075,1.400734 l -1.39377,0.942522 -0.13768,1.443559 c -0.30551,3.203435 -1.24712,6.01605 -2.65748,7.937915 l -0.73113,0.996296 -1.60222,-1.267684 c -0.88122,-0.697224 -2.8804,-2.28642 -4.4426,-3.531548 z M 29.962202,51.180861 c 0.02045,-0.0753 0.44063,-0.911092 0.933898,-1.857282 l 0.896848,-1.720344 10.412139,-1.073184 10.412138,-1.073186 0.493797,0.907911 c 0.271588,0.499352 0.66896,1.252283 0.883049,1.673181 l 0.389253,0.765272 -12.22908,1.257322 C 35.30468,50.764784 29.941459,51.257639 29.96221,51.180936 Z m 13.350863,-10.136086 -0.109239,-1.062492 2.124983,-0.218477 2.124982,-0.218478 0.109239,1.062492 0.109238,1.06249 -2.124981,0.218479 -2.124983,0.218478 z"
     id="path80" /><path
     style="fill:#ffffff;stroke:none;stroke-width:8.42709;stroke-dasharray:none"
     d="m 10.55889,126.561 c -0.9294264,-0.41222 -1.9193512,-1.46427 -2.2158502,-2.35491 -0.6387119,-1.91862 -0.1230688,-7.21959 1.2185476,-12.52705 1.0531316,-4.16622 2.5134406,-7.7327 6.3103816,-15.411712 3.539594,-7.158548 4.034127,-8.387559 4.333102,-10.7686 C 20.579985,82.512897 19.828984,80.026523 17.883377,77.81219 16.486246,76.222089 15.173587,75.450871 12.04141,74.379893 8.9005695,73.305952 8.085361,72.858936 7.4938336,71.886248 7.0437483,71.146143 6.4590823,69.073172 6.6473318,68.884923 6.7554371,68.776817 36.251418,65.804401 39.869415,65.537016 c 1.651283,-0.12204 2.058538,-0.07533 3.127013,0.358634 2.219415,0.90142 1.620456,0.944819 40.249063,-2.916415 13.476275,-1.347057 24.788739,-2.449197 25.138809,-2.449197 0.61866,0 1.23869,0.453244 6.11536,4.470336 l 1.25712,1.035537 -2.00306,2.663497 c -1.1017,1.464921 -2.12916,2.839395 -2.28327,3.054382 -0.22023,0.307224 -0.9211,0.458063 -3.2745,0.704731 -1.64686,0.172614 -3.01352,0.29578 -3.03701,0.273703 -0.0235,-0.02207 -0.0738,-0.680971 -0.11168,-1.464209 l -0.069,-1.42407 1.27611,-0.259431 c 1.48471,-0.30184 2.09984,-0.777807 2.39725,-1.85491 0.2908,-1.053184 0.0731,-1.949767 -0.66547,-2.740379 -0.58395,-0.625126 -0.7164,-0.662099 -2.37159,-0.662088 -1.73884,1e-5 -15.16173,1.244206 -20.738522,1.922298 -4.229008,0.51421 -5.90617,1.317033 -9.716077,4.650873 l -1.675186,1.46586 -1.855628,7.94e-4 c -1.697551,7.94e-4 -21.356691,1.860063 -22.564181,2.133957 -1.170458,0.265494 -3.562824,1.586069 -4.555538,2.514637 -2.279361,2.132074 -3.072505,3.889182 -4.440547,9.837421 -0.629756,2.73818 -1.387459,5.203793 -2.481228,8.074072 -3.252946,8.536431 -4.412554,13.283151 -4.588023,18.780551 -0.1494,4.68064 0.165473,6.84729 1.33454,9.18301 0.48841,0.97581 0.848076,1.81414 0.799261,1.86295 -0.104847,0.10485 -8.785491,1.03348 -15.581528,1.66688 -5.358972,0.49946 -8.087458,0.54207 -8.993043,0.14043 z"
     id="path81" /><path
     style="fill:#ffffff;stroke:none;stroke-width:5.95884;stroke-dasharray:none"
     d="m 6.5544273,63.572024 c 0,-0.12487 0.1507294,-0.629896 0.3349546,-1.122281 0.5472647,-1.462696 1.7189239,-2.5313 3.4419631,-3.139225 0.986625,-0.348102 18.371897,-2.233372 33.487138,-3.63137 5.664483,-0.523904 5.526868,-0.527161 6.416532,0.151937 0.632108,0.4825 0.838116,0.552577 1.620235,0.551151 1.745813,-0.0032 7.939553,-0.593836 38.011476,-3.624884 11.118834,-1.120706 20.759604,-2.083425 21.423924,-2.139379 l 1.20786,-0.101732 0.0556,1.447183 c 0.0522,1.357752 0.083,1.470732 0.49877,1.828248 0.55833,0.480112 1.4943,0.505571 2.38937,0.06498 0.67014,-0.329864 4.47988,-3.152886 7.07221,-5.240504 1.24601,-1.003427 1.5244,-1.308095 1.60944,-1.761374 0.10636,-0.566989 -0.0935,-1.777527 -0.33301,-2.017046 -0.16091,-0.160917 -6.49916,-3.090021 -8.3688,-3.867486 -0.75687,-0.314738 -1.56326,-0.538118 -1.94258,-0.538118 -1.76742,0 -2.46992,1.37305 -1.75753,3.435152 0.15754,0.456047 0.26831,0.829175 0.24613,0.829175 -0.0905,0 -28.241072,2.768873 -38.57576,3.794289 -6.107438,0.605984 -11.260167,1.101254 -11.450506,1.100598 -0.279686,-0.0011 -0.554551,-0.381764 -1.432859,-1.985105 -0.615029,-1.12273 -1.02638,-2.041578 -0.947629,-2.116751 0.224512,-0.214305 5.404652,-3.000238 28.489032,-15.321696 7.687633,-4.103331 15.197132,-8.127712 16.687772,-8.94307 1.49065,-0.815358 2.75218,-1.482469 2.8034,-1.482469 0.0512,0 0.0931,0.128758 0.0931,0.28613 0,0.484679 0.62833,2.715997 1.13419,4.027739 0.65379,1.695336 1.92811,3.531884 4.40394,6.346945 3.5243,4.007184 5.13435,6.247043 7.13424,9.92495 l 1.01688,1.870109 1.80248,0.58945 c 2.05548,0.672184 2.42366,0.84274 3.0205,1.399196 0.84778,0.790421 0.96883,2.913917 0.22871,4.012181 -0.19452,0.28865 -1.06038,1.035788 -1.92415,1.660311 -0.86376,0.624525 -1.61752,1.264198 -1.67502,1.421498 -0.0575,0.1573 -0.18591,1.008393 -0.28535,1.891318 -0.30502,2.708267 -1.04847,4.924158 -2.30328,6.865038 -0.3724,0.575998 -0.74759,1.090851 -0.83378,1.144117 -0.0862,0.05327 -1.60337,-1.053132 -3.37154,-2.458662 -1.76816,-1.40553 -3.78341,-2.977454 -4.47834,-3.493167 l -1.2635,-0.937662 -1.42144,0.104968 c -1.40874,0.104029 -27.201918,2.680526 -52.093265,5.20363 L 43.801388,60.910442 42.420441,60.600917 41.03949,60.291391 24.231288,61.971604 c -9.244511,0.924116 -17.0036501,1.713341 -17.2425313,1.753833 -0.3065274,0.05196 -0.4343294,0.0068 -0.4343294,-0.153413 z"
     id="path82" /><path
     style="fill:#ffffff;stroke:none;stroke-width:5.95884;stroke-dasharray:none"
     d="m 30.962857,49.420622 0.854009,-1.702842 0.675058,-0.09329 c 0.584552,-0.08078 18.344029,-1.907537 19.624289,-2.018567 0.446866,-0.03875 0.512027,0.03897 1.297996,1.548194 l 0.827511,1.588997 -5.009539,0.513734 c -4.782159,0.490418 -16.578443,1.648026 -18.304987,1.79633 l -0.818343,0.07029 z"
     id="path83" /><path
     style="fill:#ffffff;stroke:none;stroke-width:5.95884;stroke-dasharray:none"
     d="m 43.428471,41.325968 c -0.193251,-1.288709 -0.225295,-1.264328 1.96128,-1.492287 1.074129,-0.111985 1.972315,-0.183055 1.995969,-0.157938 0.02365,0.02511 0.0679,0.472099 0.09831,0.993293 l 0.05531,0.947629 -1.105567,0.105879 c -0.60806,0.05823 -1.509427,0.150058 -2.003036,0.204057 l -0.897472,0.09818 z"
     id="path84" /><path
     style="fill:#ffffff;stroke:none;stroke-width:5.95884;stroke-dasharray:none"
     d="m 6.5544273,63.572024 c 0,-0.12487 0.1507294,-0.629896 0.3349546,-1.122281 0.5472647,-1.462696 1.7189239,-2.5313 3.4419631,-3.139225 0.985849,-0.34783 18.800101,-2.280309 33.489474,-3.632923 5.689492,-0.523896 5.520886,-0.528468 6.441586,0.174739 l 0.75157,0.574032 1.895258,-0.106712 c 3.207676,-0.180599 8.01727,-0.648986 45.407177,-4.422 6.38464,-0.644276 12.18746,-1.220025 12.89516,-1.279448 l 1.28671,-0.10804 0.0558,1.432224 c 0.047,1.207812 0.10867,1.485106 0.39343,1.769724 0.44243,0.442203 1.54827,0.569071 2.27307,0.260776 0.59684,-0.253865 4.08413,-2.803258 6.90217,-5.045848 2.1465,-1.708179 2.31031,-2.049587 1.8286,-3.811082 -0.0807,-0.295084 -1.06777,-0.794763 -5.73471,-2.90303 -3.26267,-1.473893 -4.08576,-1.780802 -4.77593,-1.780802 -1.73163,0 -2.4234,1.37409 -1.71149,3.399613 0.16716,0.475594 0.278,0.864714 0.24631,0.864714 -0.0894,0 -27.691475,2.715493 -39.293481,3.865695 -5.71636,0.566714 -10.549263,1.029637 -10.739784,1.028721 -0.277643,-0.0013 -0.54587,-0.362127 -1.351285,-1.817624 -0.552689,-0.998778 -1.014656,-1.931807 -1.026597,-2.073399 -0.02482,-0.294354 1.331857,-1.035582 26.038057,-14.226003 9.034055,-4.823201 17.65694,-9.442385 19.16198,-10.264854 1.50503,-0.822469 2.75256,-1.471182 2.77229,-1.441584 0.0197,0.0296 0.19447,0.728998 0.38833,1.554224 0.73321,3.121261 1.77621,5.051088 4.30858,7.972042 4.50553,5.196893 6.0106,7.245564 8.00888,10.90155 l 1.12224,2.053193 1.30832,0.3829 c 1.75179,0.512686 2.95461,1.047533 3.47396,1.544738 0.82069,0.785688 0.96617,2.832682 0.28137,3.958757 -0.16932,0.278421 -0.89577,0.937533 -1.61434,1.464699 -0.71857,0.527164 -1.47051,1.078844 -1.67099,1.225957 -0.31453,0.23081 -0.39632,0.51647 -0.59664,2.083766 -0.26104,2.042332 -0.66428,3.662061 -1.27064,5.103868 -0.41464,0.985928 -1.62989,2.987832 -1.92417,3.169704 -0.0876,0.05413 -1.4271,-0.910691 -2.97669,-2.144049 -5.11353,-4.069964 -6.00519,-4.708081 -6.57869,-4.708081 -0.75707,0 -58.303867,5.746211 -64.704889,6.46097 -0.960104,0.107206 -1.455751,0.07235 -2.615999,-0.183952 L 41.043837,60.291476 24.233463,61.97189 c -9.245707,0.924227 -17.0058251,1.713434 -17.2447063,1.753791 -0.3064142,0.05176 -0.4343294,0.0065 -0.4343294,-0.153657 z"
     id="path85" /><path
     style="fill:#ffffff;stroke:none;stroke-width:2.10677;stroke-dasharray:none"
     d="m 78.629962,78.021767 c -0.05806,-0.351272 -0.03856,-0.805101 0.05091,-1.184709 0.337584,-1.432301 1.895842,-3.276473 3.650347,-4.320128 0.437386,-0.260175 1.32207,-0.636468 1.374082,-0.584456 0.04158,0.04158 0.369491,3.236759 0.340053,3.313475 -0.01349,0.03519 -0.259291,0.145203 -0.546192,0.244472 -1.210009,0.418672 -3.369136,1.619502 -4.438328,2.468438 -0.188624,0.149768 -0.354949,0.272304 -0.369609,0.272304 -0.01466,0 -0.04223,-0.09423 -0.06127,-0.209396 z"
     id="path86" /><path
     style="fill:#ffffff;stroke:none;stroke-width:2.10677;stroke-dasharray:none"
     d="m 88.808012,74.364278 c -0.02617,-0.07708 -0.30883,-2.92412 -0.292201,-2.943164 0.03481,-0.03987 3.048575,-0.340525 3.081666,-0.307433 0.03756,0.03756 0.337071,2.893362 0.306866,2.925942 -0.03088,0.03331 -3.08647,0.353695 -3.096331,0.324655 z"
     id="path87" /><path
     style="fill:#ffffff;stroke:none;stroke-width:2.10677;stroke-dasharray:none"
     d="m 96.849816,73.526686 c -0.01924,-0.07015 -0.310166,-2.922095 -0.2995,-2.935883 0.02445,-0.0316 3.219095,-0.351189 3.245596,-0.324688 0.01386,0.01386 0.09339,0.680201 0.17671,1.480738 l 0.151488,1.45552 -0.225283,0.03121 c -0.285075,0.0395 -2.875386,0.30706 -2.9727,0.30706 -0.03986,0 -0.0742,-0.0063 -0.07631,-0.01397 z"
     id="path88" /><path
     style="fill:#ffffff;stroke:none;stroke-width:2.10677;stroke-dasharray:none"
     d="m 105.87173,92.855851 c -0.61424,-0.248409 -3.46624,-1.426818 -6.33779,-2.618684 -9.459537,-3.926287 -11.601236,-4.807506 -14.797471,-6.088523 -1.770328,-0.709531 -2.740168,-1.124331 -2.949541,-1.261518 -0.124804,-0.08177 -0.126463,-0.09091 -0.03485,-0.19214 0.283784,-0.313576 2.293662,-1.497343 3.154032,-1.857642 1.785421,-0.747684 2.622775,-0.880529 14.125276,-2.240955 4.038594,-0.477653 7.845454,-0.928754 8.459684,-1.002443 0.61424,-0.07369 1.12505,-0.126008 1.13514,-0.116258 0.0101,0.0097 -0.0739,0.302625 -0.18659,0.650838 -0.76638,2.367674 -1.25719,4.966732 -1.47839,7.828801 -0.10007,1.294739 -0.0759,3.634876 0.0526,5.089007 0.14556,1.647762 0.14845,2.261968 0.0106,2.261336 -0.0197,-9e-5 -0.53846,-0.203409 -1.15269,-0.451819 z"
     id="path89" /><path
     style="fill:#ffffff;stroke:none;stroke-width:2.10677;stroke-dasharray:none"
     d="m 124.66172,64.525598 c 0,-0.01908 0.15529,-0.29142 0.34508,-0.605184 0.7709,-1.274461 1.89612,-3.805105 2.50063,-5.623957 0.61405,-1.847567 0.86665,-3.245374 1.12007,-6.198188 0.0752,-0.876265 0.12571,-1.048623 0.3217,-1.097814 0.27478,-0.06896 0.3278,0.132008 0.54005,2.047087 0.39085,3.526496 0.50678,5.540496 0.36832,6.398778 -0.28415,1.761443 -1.62583,3.565541 -3.35314,4.508828 -0.53869,0.29418 -1.84271,0.697865 -1.84271,0.57045 z"
     id="path90" /></svg>
