<?xml version="1.0" encoding="UTF-8" standalone="no"?>
<!-- Created with Inkscape (http://www.inkscape.org/) -->

<svg
   width="512"
   height="512"
   viewBox="0 0 512 512"
   version="1.1"
   id="svg1"
   xml:space="preserve"
   xmlns="http://www.w3.org/2000/svg"
   xmlns:svg="http://www.w3.org/2000/svg"><defs
     id="defs1" /><g
     id="g623"
     transform="matrix(0.8320455,-0.22180123,0.22180123,0.8320455,9.7314418,88.703111)"
     style="fill:#1a1a1a"><path
       id="path629"
       style="fill:#1a1a1a;fill-opacity:1"
       d="m 521.49449,46.459496 c -0.90556,-0.137457 -2.53253,-0.140238 -3.61568,-0.0061 -1.08315,0.134124 -0.34368,0.244983 1.64503,0.248383 1.98867,0.0034 2.8762,-0.104763 1.97065,-0.242269 z m -7.85756,0.06497 c -0.20025,-0.200255 -0.72126,-0.221761 -1.15629,-0.04768 -0.48075,0.192378 -0.33689,0.33602 0.36515,0.36494 0.63528,0.02617 0.99139,-0.117012 0.79114,-0.317264 z m -42.16495,-0.04776 c -0.57617,-0.150834 -1.66214,-0.157963 -2.41177,-0.01382 -0.74963,0.144147 -0.27704,0.26818 1.04877,0.27488 1.32576,0.0067 1.93917,-0.110229 1.363,-0.261064 z m -4.8212,-0.0012 c -0.57618,-0.150834 -1.66272,-0.155772 -2.41235,-0.01163 -0.74963,0.144147 -0.27644,0.265988 1.04936,0.272688 1.32577,0.0067 1.93916,-0.110228 1.36299,-0.261063 z m 46.19647,23.784038 c -0.0471,0.244261 -0.078,0.811855 -0.0805,1.640482 -0.005,1.657241 0.1084,2.404453 0.25145,1.663246 0.14282,-0.741207 0.1479,-2.095484 0.009,-3.011532 -0.0693,-0.458024 -0.13324,-0.536458 -0.18032,-0.292196 z M 422.03492,46.525573 c -0.20025,-0.200255 -0.71907,-0.221177 -1.1541,-0.04709 -0.48074,0.192378 -0.33907,0.335436 0.36296,0.364356 0.63529,0.02617 0.99139,-0.117012 0.79114,-0.317264 z m -3.30068,-0.06064 c -0.74576,-0.143641 -1.96771,-0.143989 -2.71348,-3.48e-4 -0.74576,0.14364 -0.13389,0.260972 1.35764,0.260972 1.49153,0 2.10161,-0.116984 1.35584,-0.260624 z m -14.43744,-0.02241 c -2.38787,-0.114047 -6.45552,-0.114495 -9.03942,-0.0013 -2.58389,0.113242 -0.63021,0.20581 4.34155,0.206654 4.97177,8.45e-4 7.08574,-0.09131 4.69787,-0.205396 z m 108.46499,28.998392 c -0.0634,0.06336 -0.1053,0.274323 -0.11975,0.625343 -0.0262,0.635281 0.117,0.991387 0.31726,0.791135 0.20028,-0.200252 0.22118,-0.719064 0.0471,-1.154093 -0.0962,-0.240372 -0.18124,-0.325747 -0.2446,-0.262385 z M 386.79377,46.490214 c -0.41432,-0.16718 -1.09262,-0.167487 -1.50693,-3.07e-4 -0.41431,0.167179 -0.0741,0.304419 0.75452,0.304419 0.8286,0 1.16672,-0.136933 0.75241,-0.304112 z m 125.96957,34.97683 c -0.0634,0.06336 -0.10808,0.275931 -0.12253,0.62695 -0.0262,0.635281 0.117,0.991386 0.31726,0.791135 0.20028,-0.200252 0.22177,-0.721255 0.0477,-1.156285 -0.0962,-0.240372 -0.17905,-0.325162 -0.24241,-0.2618 z M 363.58064,46.525109 c -0.20025,-0.200255 -0.72125,-0.221761 -1.15628,-0.04768 -0.48075,0.192378 -0.33689,0.33602 0.36515,0.36494 0.63528,0.02617 0.99139,-0.117012 0.79113,-0.317264 z m -21.38214,-0.03569 c -0.41432,-0.16718 -1.09261,-0.167488 -1.50693,-3.08e-4 -0.41431,0.167179 -0.0741,0.304419 0.75452,0.304419 0.8286,0 1.16672,-0.136932 0.75241,-0.304111 z m 170.63738,45.888793 c -0.0473,0.245763 -0.078,0.770966 -0.078,1.51673 0,1.49153 0.11918,2.102188 0.26282,1.356423 0.14364,-0.745765 0.1434,-1.96552 -2.4e-4,-2.711284 -0.0718,-0.372883 -0.13721,-0.407633 -0.18454,-0.161869 z M 337.06479,46.524641 c -0.20025,-0.200255 -0.72125,-0.221761 -1.15628,-0.04768 -0.48074,0.192378 -0.33689,0.33602 0.36515,0.36494 0.63528,0.02617 0.99138,-0.117012 0.79113,-0.317264 z m -31.92937,-0.05157 c -0.58004,-0.15158 -1.52826,-0.150227 -2.1083,0.0014 -0.58004,0.151581 -0.10693,0.276048 1.05315,0.276048 1.16008,0 1.63519,-0.12582 1.05515,-0.277401 z m -4.5189,0.01837 c -0.41431,-0.16718 -1.09262,-0.167487 -1.50693,-3.07e-4 -0.41432,0.167179 -0.0763,0.303834 0.75232,0.303834 0.8286,0 1.16893,-0.136348 0.75461,-0.303527 z m 212.14612,72.340989 c -0.0634,0.0634 -0.1053,0.27432 -0.11975,0.62534 -0.0262,0.63528 0.11481,0.9908 0.31507,0.79055 0.20028,-0.20026 0.22177,-0.72125 0.0477,-1.15628 -0.0962,-0.24037 -0.17963,-0.32297 -0.243,-0.25961 z M 240.36134,46.466287 c -0.74121,-0.143017 -2.09767,-0.148484 -3.01372,-0.01 -0.91605,0.138519 -0.30896,0.256328 1.34829,0.260828 1.65754,0.0045 2.40664,-0.10782 1.66543,-0.250863 z m -17.77449,-0.0082 c -0.90555,-0.137457 -2.5353,-0.13863 -3.61845,-0.0045 l 5.8e-4,-0.0022 c -1.08315,0.134124 -0.34208,0.247759 1.64663,0.251159 1.98866,0.0034 2.8768,-0.106955 1.97124,-0.244461 z m 290.17569,79.604263 c -0.0634,0.0634 -0.10588,0.27652 -0.12033,0.62754 -0.0262,0.63528 0.11481,0.9908 0.31507,0.79055 0.20028,-0.20025 0.22396,-0.72067 0.0499,-1.1557 -0.0962,-0.24038 -0.18124,-0.32575 -0.24461,-0.26239 z m 5.1e-4,2.41089 c -0.0634,0.0634 -0.10589,0.27652 -0.12034,0.62754 -0.0262,0.63528 0.11481,0.99081 0.31507,0.79055 0.20028,-0.20025 0.22177,-0.72126 0.0477,-1.15629 -0.0962,-0.24037 -0.17905,-0.32516 -0.24241,-0.2618 z M 200.26395,46.526028 c -0.20025,-0.200255 -0.71907,-0.221177 -1.1541,-0.04709 -0.48074,0.192378 -0.33849,0.333245 0.36355,0.362165 0.63528,0.02617 0.9908,-0.114821 0.79055,-0.315073 z m -38.85639,-0.03431 c -0.41432,-0.16718 -1.09261,-0.167487 -1.50693,-3.07e-4 -0.41431,0.167179 -0.0763,0.303834 0.75232,0.303834 0.8286,0 1.16892,-0.136348 0.75461,-0.303527 z m -88.901682,0.03316 c -0.200252,-0.200255 -0.721256,-0.22176 -1.156285,-0.04767 -0.480744,0.192378 -0.336889,0.33602 0.36515,0.36494 0.635281,0.02617 0.991387,-0.117013 0.791135,-0.317265 z m -17.16392,-0.03562 c -0.414314,-0.16718 -1.090429,-0.166903 -1.504743,2.77e-4 -0.414314,0.167179 -0.0763,0.303834 0.752325,0.303834 0.828628,0 1.166732,-0.136932 0.752418,-0.304111 z m -78.91095,72.476922 c -0.05509,0.13653 -0.08847,0.42828 -0.08847,0.8426 0,0.8286 0.136933,1.16673 0.304112,0.75242 0.16718,-0.41431 0.166902,-1.09043 -2.78e-4,-1.50475 -0.08359,-0.20715 -0.160274,-0.22681 -0.215367,-0.0903 z M 222.96585,224.3565 c -0.0473,0.24576 -0.0759,0.77155 -0.0759,1.51731 0,1.49153 0.11699,2.1016 0.26063,1.35584 0.14364,-0.74577 0.14399,-1.96771 3.5e-4,-2.71347 -0.0718,-0.37289 -0.1378,-0.40544 -0.18513,-0.15968 z m -86.41775,41.89414 c -0.0311,0.0311 0.14992,0.27463 0.52473,0.75254 0.45489,0.58004 0.93188,1.05406 1.05702,1.05406 0.496,0 0.17648,-0.4943 -0.82736,-1.28157 -0.47791,-0.3748 -0.72329,-0.55614 -0.75439,-0.52503 z M 71.30111,503.325 c -0.200252,-0.20028 -0.721255,-0.22176 -1.156285,-0.0477 -0.480744,0.19238 -0.336889,0.33604 0.36515,0.36494 0.635281,0.0262 0.991386,-0.11701 0.791135,-0.31726 z" /><path
       id="path628"
       style="fill:#1a1a1a;fill-opacity:1"
       d="m 472.4321,43.817207 c -0.0544,0.134457 -0.0908,0.465231 -0.0969,0.962407 -0.0123,0.994356 0.1116,1.4747 0.27667,1.066694 0.16505,-0.408006 0.17704,-1.221713 0.0242,-1.80806 -0.0764,-0.293174 -0.14958,-0.355497 -0.20398,-0.221041 z m -10.00611,2.656489 c -0.58004,-0.15158 -1.53046,-0.150812 -2.1105,7.68e-4 -0.58004,0.151581 -0.10473,0.276633 1.05535,0.276633 1.16007,0 1.63519,-0.12582 1.05515,-0.277401 z m -4.90316,0.06851 c -0.0406,-0.02826 -0.2116,-0.05979 -0.52233,-0.09229 -1.24294,-0.130015 -3.27625,-0.128161 -4.5192,0.0019 -1.24294,0.130016 -0.22721,0.23591 2.25867,0.23591 1.86441,0 2.90469,-0.0607 2.78286,-0.145471 z m -14.04997,-0.10222 c -3.04871,-0.109192 -8.20145,-0.109322 -11.45031,-7.56e-4 -3.24886,0.108566 -0.7543,0.197788 5.54327,0.198367 6.29757,5.8e-4 8.95574,-0.08846 5.90704,-0.197611 z m -28.94573,0.05366 c -0.40801,-0.165077 -1.2223,-0.174846 -1.80865,-0.02205 -0.58635,0.152795 -0.25298,0.288633 0.74137,0.300913 0.99439,0.01228 1.47528,-0.113786 1.06728,-0.278862 z m -30.14425,-0.0029 c -0.41431,-0.16718 -1.09262,-0.167487 -1.50693,-3.07e-4 -0.41432,0.167179 -0.0741,0.304419 0.75451,0.304419 0.82859,0 1.16674,-0.136933 0.75242,-0.304112 z m -6.31776,-0.03159 c -0.90556,-0.137457 -2.53253,-0.140238 -3.61568,-0.0061 -1.08315,0.134124 -0.34149,0.245567 1.64722,0.248967 1.98867,0.0034 2.87401,-0.105347 1.96846,-0.242853 z m -6.63101,0.01636 c -0.57617,-0.150834 -1.66272,-0.155772 -2.41235,-0.01162 -0.74963,0.144147 -0.27703,0.26818 1.04877,0.27488 1.32576,0.0067 1.93976,-0.11242 1.36358,-0.263255 z m -5.73362,0.01379 c -0.41431,-0.16718 -1.09102,-0.164711 -1.50533,0.0025 -0.41432,0.167179 -0.0757,0.301643 0.75291,0.301643 0.82859,0 1.16674,-0.136933 0.75242,-0.304112 z m -5.91012,0.04186 c -0.0389,-0.02624 -0.26376,-0.05421 -0.69576,-0.08454 -1.72802,-0.121342 -4.71059,-0.121716 -6.62853,-0.0018 -1.91795,0.119955 -0.50511,0.218508 3.14086,0.219908 2.73447,10e-4 4.30019,-0.05489 4.18343,-0.133612 z m -12.15673,-0.03649 c -0.40801,-0.165077 -1.22231,-0.174846 -1.80865,-0.02205 -0.58635,0.152795 -0.2524,0.286442 0.74195,0.298722 0.99439,0.01228 1.47471,-0.111595 1.0667,-0.276672 z m -7.55717,0.03002 c -0.20025,-0.200255 -0.71907,-0.221177 -1.1541,-0.04709 -0.48074,0.192378 -0.33908,0.335436 0.36296,0.364356 0.63528,0.02617 0.99139,-0.117012 0.79114,-0.317264 z m -7.81564,-0.04827 c -0.57618,-0.150834 -1.65995,-0.157379 -2.40958,-0.01323 -0.74962,0.144147 -0.27703,0.26818 1.04877,0.27488 1.32577,0.0067 1.93698,-0.110813 1.36081,-0.261648 z m -7.42275,0.05412 c -0.0389,-0.02624 -0.26376,-0.05421 -0.69576,-0.08453 -1.72802,-0.121342 -4.71277,-0.1223 -6.63072,-0.0023 -1.91794,0.119955 -0.50292,0.219092 3.14304,0.220492 2.73447,10e-4 4.3002,-0.05489 4.18344,-0.133613 z m -12.17003,-0.06586 c -0.74576,-0.143641 -1.96551,-0.143405 -2.71128,2.36e-4 -0.74576,0.14364 -0.13609,0.260389 1.35544,0.260389 1.49153,0 2.10161,-0.116985 1.35584,-0.260625 z m -4.81886,0.02526 c -0.41432,-0.16718 -1.09261,-0.167488 -1.50693,-3.08e-4 -0.41431,0.167179 -0.0763,0.303835 0.75232,0.303835 0.8286,0 1.16892,-0.136348 0.75461,-0.303527 z m -9.6326,0.0049 c -0.40801,-0.165077 -1.21952,-0.176453 -1.80587,-0.02366 -0.58634,0.152795 -0.25298,0.288633 0.74137,0.300913 0.99439,0.01228 1.4725,-0.112179 1.0645,-0.277255 z m -4.52987,-0.01977 c -0.58004,-0.15158 -1.52987,-0.153004 -2.10991,-0.0014 -0.58004,0.151581 -0.10473,0.276633 1.05535,0.276633 1.16008,0 1.6346,-0.123628 1.05456,-0.275209 z m -6.03898,0.04976 c -0.20025,-0.200255 -0.72125,-0.221761 -1.15628,-0.04768 -0.48074,0.192378 -0.33689,0.33602 0.36515,0.36494 0.63528,0.02617 0.99138,-0.117012 0.79113,-0.317264 z m -3.90643,-0.06015 c -0.74577,-0.143641 -1.96552,-0.143405 -2.71129,2.36e-4 -0.74576,0.14364 -0.13389,0.260973 1.35764,0.260973 1.49153,0 2.09941,-0.117569 1.35365,-0.261209 z m -12.31701,-0.02523 c -4.5374,-0.102246 -12.12965,-0.102226 -16.87288,-2.84e-4 -4.74323,0.101942 -1.03191,0.184532 8.24871,0.184836 9.28063,3.04e-4 13.16156,-0.08231 8.62417,-0.184552 z m -26.85335,0.05041 c -0.41431,-0.16718 -1.09263,-0.167487 -1.50694,-3.07e-4 -0.41432,0.167179 -0.0741,0.304419 0.75452,0.304419 0.8286,0 1.16674,-0.136933 0.75242,-0.304112 z m -9.9555,0.03622 c -0.20025,-0.200255 -0.72126,-0.22176 -1.15629,-0.04767 -0.48074,0.192378 -0.3363,0.333828 0.36574,0.362748 0.63528,0.02617 0.9908,-0.114821 0.79055,-0.315073 z m -3.59216,-0.06792 c -0.90556,-0.137457 -2.53253,-0.140238 -3.61568,-0.0061 -1.08315,0.134124 -0.34426,0.247174 1.64444,0.250574 1.98867,0.0034 2.87679,-0.106954 1.97124,-0.24446 z m -14.47601,0.0166 c -0.58004,-0.15158 -1.52768,-0.152419 -2.10772,-8.39e-4 -0.58004,0.151581 -0.10692,0.276048 1.05315,0.276048 1.16008,0 1.63461,-0.123628 1.05457,-0.275209 z m -4.21106,-5.1e-4 c -0.57617,-0.150834 -1.66053,-0.155188 -2.41016,-0.01104 -0.74963,0.144147 -0.27703,0.26818 1.04877,0.27488 1.32576,0.0067 1.93757,-0.113004 1.36139,-0.263839 z m -5.73217,-0.0093 c -0.74576,-0.143641 -1.96551,-0.143405 -2.71128,2.36e-4 -0.74576,0.14364 -0.13609,0.260388 1.35544,0.260388 1.49153,0 2.10161,-0.116984 1.35584,-0.260624 z m -4.53219,0.05942 c -0.20025,-0.200255 -0.71906,-0.221177 -1.15409,-0.04709 -0.48075,0.192378 -0.33909,0.335436 0.36295,0.364356 0.63528,0.02617 0.99139,-0.117012 0.79114,-0.317264 z m -7.79256,-0.08202 c -2.55301,-0.112695 -6.89218,-0.114294 -9.64239,-0.0024 -2.75021,0.111916 -0.66069,0.203966 4.64253,0.204729 5.30321,7.62e-4 7.55286,-0.08967 4.99986,-0.202354 z m 338.37031,91.674684 c -0.0634,0.0634 -0.10531,0.27432 -0.11976,0.62534 -0.0262,0.63528 0.11483,0.99081 0.31508,0.79055 0.20027,-0.20025 0.22175,-0.72125 0.0477,-1.15628 -0.0962,-0.24038 -0.17963,-0.32297 -0.24299,-0.25961 z M 176.76093,46.450784 c -1.25034,-0.130417 -3.14956,-0.128818 -4.21938,0.0043 -1.06982,0.13313 -0.0456,0.240508 2.27459,0.237808 2.32015,-0.0027 3.19512,-0.111663 1.94479,-0.24212 z m -7.67156,0.09812 c -0.0352,-0.02905 -0.18203,-0.06107 -0.45133,-0.09449 -1.07722,-0.133682 -2.84003,-0.135679 -3.91724,-0.002 -1.07722,0.133681 -0.1963,0.244995 1.95813,0.244995 1.61582,0 2.51601,-0.06135 2.41044,-0.148507 z m -11.07774,-0.0071 c -0.0406,-0.02826 -0.2116,-0.05979 -0.52234,-0.09229 -1.24294,-0.130015 -3.27625,-0.12816 -4.51919,0.0019 -1.24295,0.130016 -0.22721,0.23591 2.25867,0.23591 1.86441,0 2.90468,-0.0607 2.78286,-0.145471 z m -18.60102,-0.104162 c -6.21471,-0.09795 -16.3839,-0.09642 -22.59861,0.0015 -6.2147,0.09795 -1.12929,0.176681 11.30012,0.176681 12.42941,0 17.51319,-0.08026 11.29849,-0.17821 z m -34.64123,0.05649 c -0.40801,-0.165077 -1.22011,-0.174261 -1.80645,-0.02147 -0.58635,0.152795 -0.2524,0.286441 0.74195,0.298721 0.99439,0.01228 1.47251,-0.112179 1.0645,-0.277255 z m -5.145115,-0.04528 c -1.250333,-0.130417 -3.150149,-0.126626 -4.219972,0.0065 -1.069823,0.13313 -0.04717,0.237732 2.272988,0.235032 2.320157,-0.0027 3.197319,-0.111079 1.946984,-0.241536 z m -12.6155,-0.0062 c -2.553007,-0.112695 -6.889995,-0.11371 -9.640203,-0.0018 -2.750208,0.111916 -0.662879,0.203381 4.640336,0.204144 5.303215,7.62e-4 7.552874,-0.08967 4.999867,-0.202353 z m -17.354284,0.106122 c -0.03519,-0.02905 -0.182025,-0.06107 -0.451329,-0.09449 -1.077216,-0.133682 -2.840609,-0.133487 -3.917825,1.95e-4 -1.077215,0.133681 -0.195716,0.242803 1.958715,0.242803 1.615823,0 2.516018,-0.06135 2.410439,-0.148508 z m -7.374547,-0.07387 c -0.576175,-0.150834 -1.660532,-0.155188 -2.410161,-0.01104 -0.749629,0.144147 -0.279225,0.267596 1.046579,0.274296 1.325802,0.0067 1.939757,-0.11242 1.363582,-0.263256 z M 240.35203,263.41314 c -0.74577,-0.14364 -1.96551,-0.1434 -2.71128,2.4e-4 -0.74576,0.14364 -0.13667,0.26258 1.35486,0.26258 1.49153,0 2.10218,-0.11918 1.35642,-0.26282 z m -80.90285,8.26158 c -0.0311,0.0311 0.14993,0.27463 0.52473,0.75254 0.78727,1.00385 1.28172,1.32357 1.28172,0.82758 0,-0.12514 -0.47421,-0.60077 -1.05425,-1.05567 -0.47791,-0.3748 -0.72109,-0.55556 -0.7522,-0.52445 z m -60.079084,156.444 c -0.05509,0.13653 -0.09124,0.42989 -0.09124,0.8442 0,0.8286 0.136933,1.16673 0.304112,0.75242 0.167179,-0.41432 0.167486,-1.09261 3.07e-4,-1.50693 -0.08359,-0.20716 -0.158083,-0.22623 -0.213176,-0.0897 z" /><path
       id="path627"
       style="fill:#1a1a1a;fill-opacity:1"
       d="m 472.38531,41.694441 c -0.0634,0.06336 -0.1053,0.274324 -0.11975,0.625343 -0.0262,0.635281 0.11482,0.990803 0.31507,0.790551 0.20028,-0.200251 0.22396,-0.720672 0.0499,-1.155701 -0.0962,-0.240372 -0.18183,-0.323554 -0.24519,-0.260193 z M 527.8442,153.31702 c -0.0551,0.13654 -0.0885,0.42829 -0.0885,0.8426 0,0.8286 0.13693,1.16673 0.30411,0.75242 0.16718,-0.41431 0.16749,-1.09261 3.1e-4,-1.50693 -0.0836,-0.20716 -0.16086,-0.22462 -0.21595,-0.0881 z m -542.395095,1.05023 c -0.408006,-0.16505 -1.222298,-0.17485 -1.808645,-0.0221 -0.586348,0.15279 -0.252402,0.28642 0.741951,0.29872 0.994356,0.0123 1.474699,-0.1116 1.066694,-0.27667 z M 119.23972,426.17612 c -0.0634,0.0634 -0.10588,0.27651 -0.12033,0.62753 -0.0262,0.63528 0.11482,0.9908 0.31507,0.79055 0.20028,-0.20025 0.22396,-0.72067 0.0499,-1.1557 -0.0962,-0.24037 -0.18124,-0.32574 -0.24461,-0.26238 z" /><path
       id="path626"
       style="fill:#1a1a1a;fill-opacity:1"
       d="m 511.55693,41.092144 c -0.0634,0.06336 -0.1053,0.274324 -0.11975,0.625343 -0.0262,0.635281 0.11482,0.990803 0.31507,0.790551 0.20027,-0.200251 0.22174,-0.721256 0.0477,-1.156285 -0.0962,-0.240372 -0.17963,-0.32297 -0.243,-0.259609 z M 532.6663,135.2366 c -0.0551,0.13654 -0.089,0.43048 -0.089,0.8448 0,0.8286 0.13693,1.16672 0.30411,0.75241 0.16718,-0.41432 0.16749,-1.09261 3.1e-4,-1.50693 -0.0836,-0.20716 -0.16027,-0.22679 -0.21537,-0.0903 z M 330.74908,86.86849 c -0.41432,-0.167179 -1.09262,-0.167486 -1.50693,-3.07e-4 -0.41431,0.167179 -0.0763,0.303834 0.75232,0.303834 0.8286,0 1.16892,-0.136348 0.75461,-0.303527 z m -21.39397,-0.05293 c -10.52356,-0.09234 -27.74519,-0.09439 -38.26875,-0.0021 -10.52357,0.09235 -1.9118,0.169132 19.13534,0.169132 21.04713,0 29.65698,-0.07472 19.13341,-0.167057 z m 218.52576,63.1498 c -0.0499,0.19114 -0.08,0.6005 -0.08,1.18054 0,1.16008 0.12362,1.6346 0.2752,1.05456 0.15158,-0.58004 0.14988,-1.52827 -10e-4,-2.1083 -0.0758,-0.29002 -0.14394,-0.31795 -0.19389,-0.1268 z m 0.23132,15.49332 c -0.10077,-5.05463 -0.18461,-0.91919 -0.18461,9.19007 0,10.10925 0.0832,14.24436 0.18402,9.18974 0.10079,-5.05463 0.10138,-13.32519 5.9e-4,-18.37981 z M 388.61341,154.36781 c -0.40801,-0.16505 -1.22171,-0.17708 -1.80806,-0.0242 -0.58634,0.15279 -0.25298,0.28861 0.74137,0.30091 0.99439,0.0123 1.47469,-0.1116 1.06669,-0.27667 z m -172.6606,-0.0205 c -0.57617,-0.15088 -1.66053,-0.15523 -2.41016,-0.011 -0.74963,0.14414 -0.27864,0.26511 1.04717,0.27211 1.32576,0.007 1.93916,-0.11023 1.36299,-0.26107 z m -5.72106,0.0195 c -0.408,-0.16505 -1.2223,-0.17482 -1.80864,-0.0221 -0.58635,0.15279 -0.25022,0.28701 0.74414,0.29931 0.99438,0.0123 1.47251,-0.11218 1.0645,-0.27725 z m -9.03941,-10e-4 c -0.40801,-0.16505 -1.22012,-0.17424 -1.80646,-0.0215 -0.58635,0.15279 -0.25298,0.28861 0.74137,0.30091 0.99439,0.0123 1.4731,-0.11437 1.06509,-0.27944 z m -5.42257,4.7e-4 c -0.40801,-0.16505 -1.2223,-0.1748 -1.80865,-0.0221 -0.58634,0.15279 -0.25298,0.28861 0.74137,0.30091 0.99439,0.0123 1.47528,-0.11379 1.06728,-0.27886 z m -4.82178,0.001 c -0.408,-0.16505 -1.2223,-0.1748 -1.80865,-0.0221 -0.58635,0.15279 -0.25241,0.28642 0.74195,0.29872 0.99438,0.0123 1.47471,-0.1116 1.0667,-0.27667 z m -5.11765,-0.0427 c -1.23418,-0.12952 -3.40539,-0.13125 -4.82281,-0.004 -1.41743,0.1273 -0.40667,0.2326 2.24494,0.2346 2.65164,0.002 3.81205,-0.10114 2.57787,-0.23063 z m -8.46565,0.0742 c -0.20025,-0.20028 -0.72126,-0.22174 -1.15629,-0.0477 -0.48075,0.19238 -0.3363,0.33385 0.36574,0.36275 0.63528,0.0262 0.9908,-0.11482 0.79055,-0.31507 z m -5.41074,-0.0527 c -0.58003,-0.15158 -1.53046,-0.15081 -2.1105,7.7e-4 -0.58004,0.15158 -0.10415,0.27444 1.05593,0.27444 1.16008,0 1.63461,-0.12363 1.05457,-0.27521 z m -4.23224,0.0525 c -0.20025,-0.20028 -0.71906,-0.22116 -1.15409,-0.0471 -0.48075,0.19238 -0.3385,0.33326 0.36354,0.36216 0.63528,0.0262 0.9908,-0.11482 0.79055,-0.31507 z m -7.82061,-0.0824 c -1.90584,-0.1196 -5.02585,-0.12002 -6.93169,-4.2e-4 -1.90585,0.11964 -0.34618,0.21725 3.4655,0.21725 3.81169,0 5.37204,-0.0972 3.46619,-0.21683 z m -16.56225,0.0497 c -0.40801,-0.16505 -1.2201,-0.17422 -1.80645,-0.0215 -0.58635,0.15279 -0.25299,0.28861 0.74136,0.30091 0.99439,0.0123 1.47309,-0.11438 1.06509,-0.27945 z m -4.52329,-0.018 c -0.57618,-0.15088 -1.66054,-0.15523 -2.41016,-0.011 -0.74963,0.14414 -0.27865,0.2651 1.04716,0.2721 1.32576,0.007 1.93917,-0.11022 1.363,-0.26106 z m -5.43133,-0.002 c -0.58004,-0.15158 -1.52828,-0.14986 -2.10831,0.001 -0.58004,0.15158 -0.10634,0.27385 1.05374,0.27385 1.16008,0 1.63461,-0.12363 1.05457,-0.27521 z m -9.3401,0.0172 c -0.41432,-0.16717 -1.09262,-0.16748 -1.50694,-3.1e-4 -0.41431,0.16718 -0.0763,0.30384 0.75233,0.30384 0.8286,0 1.16892,-0.13635 0.75461,-0.30353 z m -5.10669,-0.0397 c -1.23418,-0.12952 -3.40319,-0.13107 -4.82062,-0.003 -1.41743,0.1273 -0.40885,0.23201 2.24275,0.23401 2.65164,0.002 3.81205,-0.10114 2.57787,-0.23063 z m -9.65876,0.0238 c -0.58004,-0.15158 -1.52987,-0.15344 -2.10991,-0.001 -0.58004,0.15158 -0.10474,0.27663 1.05534,0.27663 1.16008,0 1.63461,-0.12362 1.05457,-0.2752 z m -47.306407,-0.01 c -0.745765,-0.14364 -1.967711,-0.14399 -2.713476,-3.5e-4 -0.745764,0.14364 -0.133892,0.26097 1.357637,0.26097 1.491529,0 2.101603,-0.11698 1.355839,-0.26062 z m -25.300981,0.03 c -0.408005,-0.16505 -1.219522,-0.17642 -1.805869,-0.0237 -0.586347,0.15279 -0.252986,0.28861 0.741366,0.30091 0.994356,0.0123 1.472509,-0.11218 1.064503,-0.27725 z m -3.939739,0.0296 c -0.200252,-0.20028 -0.719063,-0.22116 -1.154093,-0.0471 -0.480744,0.19238 -0.339081,0.33546 0.362958,0.36436 0.635281,0.0262 0.991386,-0.11702 0.791135,-0.31727 z m -4.808344,-0.0494 c -0.580039,-0.15158 -1.529874,-0.15342 -2.109913,-10e-4 -0.580039,0.15158 -0.104732,0.27663 1.055346,0.27663 1.160079,0 1.634606,-0.12363 1.054567,-0.27521 z m -9.654224,0.0508 c -0.200252,-0.20028 -0.721256,-0.22174 -1.156285,-0.0477 -0.480744,0.19238 -0.336889,0.33604 0.36515,0.36494 0.63528,0.0262 0.991387,-0.11701 0.791135,-0.31726 z m -4.803377,-0.0504 c -0.576175,-0.15088 -1.660532,-0.15523 -2.410161,-0.011 -0.749629,0.14414 -0.27864,0.26511 1.047164,0.27211 1.325802,0.007 1.939171,-0.11023 1.362997,-0.26107 z m -15.6740795,-0.0328 c -2.2372938,-0.11595 -5.8987507,-0.11583 -8.1360435,1.2e-4 -2.237294,0.11592 -0.406548,0.21121 4.0680399,0.21121 4.4745876,0 6.30529737,-0.0954 4.0680036,-0.21133 z M 108.98995,471.35378 c -0.40801,-0.16505 -1.22229,-0.17489 -1.80864,-0.022 -0.58635,0.15279 -0.25298,0.28861 0.74137,0.30091 0.99439,0.0123 1.47527,-0.11378 1.06727,-0.27886 z m -8.75144,-0.0512 c -2.237293,-0.11596 -5.89656,-0.11525 -8.133854,7.1e-4 -2.237294,0.11592 -0.408739,0.21062 4.065849,0.21062 4.474595,0 6.305305,-0.0954 4.068005,-0.21133 z m -31.894884,-0.005 c -10.499559,-0.0923 -27.856421,-0.0924 -38.569722,-1.5e-4 -10.713301,0.0922 -2.122086,0.16892 19.090774,0.16899 21.21286,7e-5 29.978508,-0.0765 19.478948,-0.16884 z m 57.242514,23.95402 c -0.16573,0 -0.79207,0.54347 -1.39199,1.20637 -0.59992,0.66291 -0.95635,1.20471 -0.79062,1.20471 0.16572,0 0.79426,-0.54288 1.39418,-1.20579 0.59991,-0.6629 0.95415,-1.20529 0.78843,-1.20529 z M 2.045958,471.30026 c -4.537397,-0.10225 -12.131837,-0.10282 -16.875066,-8.7e-4 -4.743229,0.1019 -1.029727,0.18511 8.2508989,0.18542 9.2806263,3e-4 13.1615641,-0.0823 8.6241671,-0.18455 z" /><path
       style="fill:#1a1a1a;fill-opacity:1"
       d="m -24.631729,472.39364 c -0.190693,-0.30855 -0.116302,-0.7034 0.165314,-0.87745 0.281616,-0.17404 0.512029,0.0784 0.512029,0.561 0,1.01615 -0.190035,1.10493 -0.677343,0.31645 z M 177.57518,220.70039 c 0.0289,-0.70204 0.17172,-0.84484 0.3641,-0.3641 0.17408,0.43503 0.15267,0.95481 -0.0476,1.15506 -0.20025,0.20025 -0.34268,-0.15568 -0.31652,-0.79096 z M 3.8171844,154.36262 c 0.4143136,-0.16717 1.0922815,-0.16717 1.5065951,0 0.4143137,0.16718 0.07533,0.30397 -0.7532975,0.30397 -0.8286274,0 -1.1676113,-0.13679 -0.7532976,-0.30397 z m 4.8587694,-0.0126 c 0.4350293,-0.17408 0.9548047,-0.15268 1.1550563,0.0476 0.2002519,0.20025 -0.1556815,0.34268 -0.7909625,0.31651 -0.702039,-0.0289 -0.8448379,-0.17171 -0.3640938,-0.36409 z m 10.5199702,-0.006 c 0.586348,-0.1528 1.399909,-0.14275 1.807915,0.0223 0.408005,0.16507 -0.07173,0.29009 -1.066086,0.27781 -0.994353,-0.0123 -1.328176,-0.14735 -0.741829,-0.30014 z m 3.905678,0.0185 c 0.414314,-0.16717 1.092282,-0.16717 1.506596,0 0.414313,0.16718 0.07533,0.30397 -0.753298,0.30397 -0.828627,0 -1.167611,-0.13679 -0.753298,-0.30397 z m 6.026381,0 c 0.414314,-0.16717 1.092282,-0.16717 1.506595,0 0.414314,0.16718 0.07533,0.30397 -0.753297,0.30397 -0.828628,0 -1.167612,-0.13679 -0.753298,-0.30397 z m 12.35408,-0.0488 c 2.568745,-0.11296 6.772146,-0.11296 9.340891,0 2.568744,0.11297 0.467044,0.2054 -4.670446,0.2054 -5.137489,0 -7.239189,-0.0924 -4.670445,-0.2054 z m 15.404936,0.0363 c 0.435029,-0.17408 0.954805,-0.15268 1.155056,0.0476 0.200252,0.20025 -0.155681,0.34268 -0.790962,0.31651 -0.702039,-0.0289 -0.844838,-0.17171 -0.364094,-0.36409 z m 6.591354,0.0126 c 0.414314,-0.16717 1.092281,-0.16717 1.506595,0 0.414314,0.16718 0.07533,0.30397 -0.753298,0.30397 -0.828627,0 -1.167611,-0.13679 -0.753297,-0.30397 z m 3.01319,0 c 0.414314,-0.16717 1.092282,-0.16717 1.506595,0 0.414314,0.16718 0.07533,0.30397 -0.753297,0.30397 -0.828628,0 -1.167611,-0.13679 -0.753298,-0.30397 z m 32.542456,-0.0421 c 1.408671,-0.12688 3.713761,-0.12688 5.122421,0 1.40867,0.12687 0.25612,0.23068 -2.56121,0.23068 -2.817332,0 -3.969878,-0.10381 -2.561211,-0.23068 z m 11.487791,0.0296 c 0.43503,-0.17408 0.9548,-0.15268 1.15505,0.0476 0.20025,0.20025 -0.15568,0.34268 -0.79096,0.31651 -0.70204,-0.0289 -0.84484,-0.17171 -0.36409,-0.36409 z m 14.73843,-0.006 c 0.58635,-0.1528 1.39991,-0.14275 1.80792,0.0223 0.408,0.16507 -0.0717,0.29009 -1.06609,0.27781 -0.99435,-0.0123 -1.32817,-0.14735 -0.74183,-0.30014 z m 3.94335,0.006 c 0.43503,-0.17408 0.9548,-0.15268 1.15505,0.0476 0.20025,0.20025 -0.15568,0.34268 -0.79096,0.31651 -0.70204,-0.0289 -0.84484,-0.17171 -0.36409,-0.36409 z m 15.34107,-0.006 c 0.58635,-0.1528 1.39991,-0.14275 1.80792,0.0223 0.408,0.16507 -0.0717,0.29009 -1.06609,0.27781 -0.99435,-0.0123 -1.32818,-0.14735 -0.74183,-0.30014 z m 3.94335,0.006 c 0.43502,-0.17408 0.9548,-0.15268 1.15505,0.0476 0.20025,0.20025 -0.15568,0.34268 -0.79096,0.31651 -0.70204,-0.0289 -0.84484,-0.17171 -0.36409,-0.36409 z m 24.98328,-0.006 c 0.58635,-0.1528 1.39991,-0.14275 1.80791,0.0223 0.40801,0.16507 -0.0717,0.29009 -1.06608,0.27781 -0.99436,-0.0123 -1.32818,-0.14735 -0.74183,-0.30014 z m 18.40666,0.006 c 0.43503,-0.17408 0.9548,-0.15268 1.15505,0.0476 0.20025,0.20025 -0.15568,0.34268 -0.79096,0.31651 -0.70204,-0.0289 -0.84484,-0.17171 -0.36409,-0.36409 z m 10.24484,0 c 0.43503,-0.17408 0.95481,-0.15268 1.15506,0.0476 0.20025,0.20025 -0.15568,0.34268 -0.79096,0.31651 -0.70204,-0.0289 -0.84484,-0.17171 -0.3641,-0.36409 z m 4.21847,0 c 0.43503,-0.17408 0.9548,-0.15268 1.15506,0.0476 0.20025,0.20025 -0.15569,0.34268 -0.79097,0.31651 -0.70204,-0.0289 -0.84483,-0.17171 -0.36409,-0.36409 z m 4.8211,0 c 0.43503,-0.17408 0.95481,-0.15268 1.15506,0.0476 0.20025,0.20025 -0.15568,0.34268 -0.79096,0.31651 -0.70204,-0.0289 -0.84484,-0.17171 -0.3641,-0.36409 z m 7.194,-0.0243 c 1.07721,-0.13368 2.83993,-0.13368 3.91714,0 1.07722,0.13369 0.19586,0.24306 -1.95857,0.24306 -2.15443,0 -3.03579,-0.10937 -1.95857,-0.24306 z m 7.53297,0.0205 c 0.58004,-0.15158 1.5292,-0.15158 2.10923,0 0.58004,0.15158 0.10547,0.2756 -1.05461,0.2756 -1.16008,0 -1.63466,-0.12402 -1.05462,-0.2756 z m 4.51979,-0.01 c 0.74576,-0.14364 1.9661,-0.14364 2.71187,0 0.74576,0.14364 0.13559,0.26116 -1.35594,0.26116 -1.49153,0 -2.1017,-0.11752 -1.35593,-0.26116 z m 37.66488,-0.0266 c 18.47839,-0.0885 48.71575,-0.0885 67.19414,0 18.47839,0.0885 3.35971,0.16089 -33.59707,0.16089 -36.95678,0 -52.07546,-0.0724 -33.59707,-0.16089 z m 105.43529,0.006 c 2.22279,-0.11562 6.01941,-0.11639 8.43694,-0.002 2.41752,0.11468 0.59887,0.20927 -4.04145,0.21021 -4.64031,9.4e-4 -6.61828,-0.0929 -4.39549,-0.20851 z m 27.14508,-0.005 c 6.54616,-0.0973 17.25805,-0.0973 23.8042,0 6.54616,0.0973 1.19021,0.1769 -11.9021,0.1769 -13.09231,0 -18.44826,-0.0796 -11.9021,-0.1769 z m 50.6216,-2.2e-4 c 7.87196,-0.0952 20.75335,-0.0952 28.62531,0 7.87196,0.0952 1.43126,0.17301 -14.31266,0.17301 -15.74392,0 -22.18461,-0.0779 -14.31265,-0.17301 z m 45.19785,0.0198 c 0.91149,-0.13808 2.40302,-0.13808 3.31451,0 0.91149,0.13808 0.16573,0.25105 -1.65725,0.25105 -1.82298,0 -2.56875,-0.11297 -1.65726,-0.25105 z m 36.27693,-38.73983 c 0,-10.77216 0.0817,-15.17895 0.18159,-9.79287 0.0999,5.38607 0.0999,14.19966 0,19.58573 -0.0999,5.38608 -0.18159,0.97929 -0.18159,-9.79286 z M 532.529,94.146395 c 0.0289,-0.702039 0.17172,-0.844838 0.3641,-0.364094 0.17408,0.435029 0.15267,0.954804 -0.0476,1.155056 -0.20025,0.200252 -0.34268,-0.155681 -0.31652,-0.790962 z m 0.15902,-7.181437 c 0.002,-2.651608 0.10814,-3.661391 0.23544,-2.243964 0.12731,1.417428 0.12551,3.586925 -0.004,4.821105 -0.12949,1.23418 -0.23365,0.07447 -0.23146,-2.577141 z M 333.49787,86.854606 c 0.43503,-0.174084 0.95481,-0.152675 1.15506,0.04758 0.20025,0.200251 -0.15568,0.342684 -0.79096,0.316517 -0.70204,-0.02892 -0.84484,-0.171716 -0.3641,-0.364094 z M 532.73651,68.283178 c 4.9e-4,-6.96047 0.0882,-9.725399 0.19495,-6.144286 0.10672,3.581112 0.10632,9.276042 -9e-4,12.655399 -0.10722,3.379357 -0.19454,0.449356 -0.19405,-6.511113 z M 35.305023,54.496292 c 0,-0.125141 0.474578,-0.599719 1.054617,-1.054617 0.955817,-0.749604 0.977133,-0.728288 0.227529,0.227529 -0.787268,1.003844 -1.282146,1.32308 -1.282146,0.827088 z"
       id="path625" /><path
       id="path624"
       style="fill:#1a1a1a;fill-opacity:1"
       d="m 532.64937,91.711708 c -0.0634,0.06336 -0.10589,0.276515 -0.12034,0.627535 -0.0262,0.635281 0.11701,0.991386 0.31726,0.791135 0.20027,-0.200252 0.22176,-0.721256 0.0477,-1.156285 -0.0962,-0.240373 -0.18124,-0.325746 -0.2446,-0.262385 z m -302.99402,7.305799 1.14807,1.355323 c 1.07885,1.27425 1.56445,1.63169 1.56445,1.14942 0,-0.11435 -0.6108,-0.7255 -1.35656,-1.35691 z M 57.763942,68.188525 c -0.408006,-0.165076 -1.220105,-0.174261 -1.806453,-0.02147 -0.586347,0.152795 -0.252986,0.288633 0.741367,0.300913 0.994356,0.01228 1.473091,-0.11437 1.065086,-0.279447 z m 73.361598,43.785885 c -0.0311,-0.0311 -0.27741,0.15153 -0.75532,0.52634 -0.58004,0.45489 -1.05347,0.92969 -1.05347,1.05483 0,0.49599 0.49429,0.17649 1.28156,-0.82736 0.3748,-0.47791 0.55834,-0.7227 0.52723,-0.75381 z m 179.16709,98.59365 c -0.0551,0.13654 -0.0907,0.4277 -0.0907,0.84202 0,0.8286 0.13693,1.16672 0.30411,0.75241 0.16718,-0.41432 0.16749,-1.09262 3.1e-4,-1.50693 -0.0836,-0.20716 -0.15867,-0.22403 -0.21376,-0.0875 z M 70.094734,154.3967 c -0.200252,-0.20028 -0.719063,-0.22117 -1.154093,-0.0471 -0.480744,0.19238 -0.339081,0.33546 0.362958,0.36436 0.635281,0.0262 0.991386,-0.11702 0.791135,-0.31727 z M -31.679919,137.28489 c -0.165726,0 -0.937864,0.6786 -1.716319,1.50723 -0.778455,0.82863 -1.278481,1.50616 -1.112756,1.50616 0.165726,0 0.937864,-0.6786 1.716319,-1.50723 0.778455,-0.82863 1.278481,-1.50616 1.112756,-1.50616 z m 209.375399,80.9825 c -0.0634,0.0634 -0.1053,0.27433 -0.11975,0.62535 -0.0262,0.63529 0.11482,0.9908 0.31507,0.79055 0.20027,-0.20025 0.22175,-0.72126 0.0477,-1.15629 -0.0962,-0.24037 -0.17963,-0.32297 -0.24299,-0.25961 z M 18.013985,215.99094 c -0.05509,0.13653 -0.09066,0.4277 -0.09066,0.84201 0,0.8286 0.136348,1.16892 0.303527,0.75461 0.167179,-0.41432 0.167487,-1.09261 3.08e-4,-1.50693 -0.08359,-0.20716 -0.158083,-0.22623 -0.213177,-0.0897 z m 70.21232,267.36037 c -6.192888,-0.0978 -16.49895,-0.097 -22.901197,6.7e-4 -6.402247,0.0977 -1.33519,0.17754 11.259946,0.17771 12.595135,1.8e-4 17.83414,-0.0805 11.641251,-0.17838 z m -40.685187,0.002 c -3.379357,-0.10722 -9.073544,-0.10695 -12.654656,-2.2e-4 -3.581112,0.10674 -0.817437,0.19345 6.143033,0.19394 6.96047,4.9e-4 9.890981,-0.0865 6.511623,-0.19372 z m -19.918882,0.0492 c -0.414314,-0.16718 -1.093206,-0.1653 -1.507519,0.002 -0.414314,0.16718 -0.07572,0.30164 0.752909,0.30164 0.828628,0 1.168924,-0.13634 0.75461,-0.30352 z m -7.202725,-0.0492 c -2.718196,-0.11115 -7.327295,-0.11142 -10.243765,-7.1e-4 -2.9164707,0.11075 -0.6933527,0.20151 4.941313,0.20221 5.634666,6.9e-4 8.020648,-0.0901 5.302452,-0.2015 z m -18.8618026,0.10801 c -0.035193,-0.0291 -0.182025,-0.0611 -0.4513289,-0.0945 -1.07721555,-0.13368 -2.8406096,-0.13349 -3.9178252,1.9e-4 -1.0772155,0.13368 -0.1957165,0.24281 1.95871458,0.24281 1.61582328,0 2.51601882,-0.0614 2.41043952,-0.14851 z" /><path
       id="path623"
       style="fill:#1a1a1a;fill-opacity:1"
       d="m 503.18533,30.616507 c -1.54286,-0.462257 -5.83081,-0.636627 -12.29805,-0.501387 -11.43346,0.23909 -13.47312,0.859348 -16.1615,4.921664 -1.31815,1.991815 -1.64356,3.262335 -1.81971,7.134501 l -0.21349,4.710614 -212.51662,0.155252 -212.516034,0.153061 -3.372879,1.363752 c -5.865863,2.373459 -9.873562,6.660178 -15.198695,16.253248 l -4.669099,8.410107 -2.842024,-1.393748 c -3.388513,-1.660789 -5.86794,-1.778379 -9.213612,-0.439707 -2.035174,0.814316 -3.8991667,2.772975 -10.4669342,10.99829 -4.3949025,5.504071 -11.1524389,13.802276 -15.0170418,18.442476 -3.864597,4.64032 -7.615359,9.63891 -8.333927,11.10681 -1.761387,3.59819 -2.12792,10.45461 -0.851143,15.89959 1.223909,5.21948 1.223242,5.2356 -0.39286,5.2426 -2.415029,0.0105 -7.31299,2.79452 -10.200744,5.79939 -4.048836,4.21304 -10.316618,14.45128 -12.007599,19.61326 -1.347307,4.11284 -1.444763,5.30584 -1.444763,17.66854 0,15.10761 0.19759,15.86392 5.05153,19.27588 l 2.583454,1.81776 12.75535,0.31814 c 10.017931,0.25076 13.207061,0.53127 14.863742,1.3027 2.2661791,1.05525 5.4785594,3.91375 6.9896553,6.21998 2.5887305,3.9509 3.41640313,14.09894 1.7778127,21.79985 -2.2295066,10.47805 -4.6446954,15.15451 -20.984404,40.6518 -10.377637,16.19377 -11.428918,18.45292 -15.749446,33.8174 -5.65473,20.10911 -23.174758,91.35292 -26.913524,109.44094 -1.585693,7.67153 -1.72613,35.32579 -0.205114,40.50097 2.054901,6.9917 4.811408,11.00642 14.98928,21.83346 9.507276,10.11367 20.95025,21.19546 25.081018,24.28892 3.042868,2.27875 7.573151,4.47648 10.405797,5.04617 1.373847,0.2763 31.109741,0.45921 66.077815,0.40831 l 63.577319,-0.0916 3.98165,-1.94793 c 4.50207,-2.20289 8.48617,-6.13189 10.24172,-10.1006 1.8372,-4.15329 2.52248,-11.48607 2.19261,-23.45031 -0.35145,-12.74695 -0.82075,-14.6764 -5.62592,-23.17071 -7.00406,-12.38139 -7.14142,-18.27158 -0.92391,-39.61181 10.43057,-35.80063 25.9346,-83.99701 29.1069,-90.48567 2.87064,-5.87162 8.69968,-12.50359 14.01264,-15.94267 1.96271,-1.27047 5.75922,-3.0507 8.43682,-3.95509 l 4.86766,-1.64367 52.12962,-0.33108 c 47.32563,-0.30209 52.46046,-0.43067 55.74316,-1.39125 13.24346,-3.87528 23.6396,-13.05984 28.79771,-25.4401 0.82145,-1.9716 3.04912,-10.0939 4.94981,-18.04873 6.28024,-26.28428 6.8964,-28.59766 8.42536,-31.61494 2.01899,-3.98428 4.69834,-6.94796 8.07901,-8.93537 l 2.78069,-1.63428 89.49178,-0.30074 89.49178,-0.30073 2.48834,-1.62067 c 1.53538,-0.99884 2.9781,-2.6288 3.76608,-4.25654 1.23502,-2.55126 1.27833,-3.42618 1.27833,-26.32544 l -6e-4,-23.6852 1.77545,-2.01963 c 0.97627,-1.11192 2.05903,-3.04766 2.40671,-4.29966 0.41388,-1.49036 0.63341,-17.17508 0.63541,-45.426081 l 0.003,-43.151014 -1.35443,-1.990134 c -2.73527,-4.019092 -3.96558,-4.494096 -12.24524,-4.714935 l -7.49144,-0.198929 -3.5e-4,-3.978897 c 0,-6.570708 -2.66842,-10.537688 -8.20402,-12.196193 z m 10.01097,37.963827 7.6e-4,32.243786 7.6e-4,32.24378 -218.69106,-1.1e-4 -218.688291,-0.002 -3.495083,-4.36826 C 67.667919,122.87647 56.646345,109.487 47.610932,98.67598 c -4.034955,-4.827889 -7.665521,-9.307045 -8.069409,-9.953774 -0.640477,-1.025566 -0.09318,-2.248431 4.293069,-9.561971 2.765996,-4.611966 5.752329,-8.91192 6.63456,-9.5575 1.525147,-1.116038 2.649372,-1.168784 22.879773,-1.065056 11.702414,0.06 21.337926,0.170725 21.412986,0.245785 0.07506,0.07506 -4.078897,7.043881 -9.23385,15.48655 -11.329942,18.555936 -11.903484,19.723906 -11.37523,23.246556 1.092084,7.28254 10.554693,10.42119 15.586571,5.16904 1.481621,-1.54647 11.969748,-18.565651 22.534068,-36.567409 2.13963,-3.64596 4.0906,-6.841765 4.33624,-7.099801 0.24565,-0.258039 4.27992,-0.393192 8.96268,-0.300882 l 8.5136,0.168596 -9.89022,16.478227 c -11.00172,18.333459 -11.52793,19.698899 -9.44083,24.417139 2.7673,6.25594 10.85105,7.63716 15.56063,2.65981 1.0275,-1.08592 5.4686,-8.07513 9.87058,-15.532773 4.40198,-7.457646 9.92874,-16.813919 12.28174,-20.791331 l 4.27997,-7.232168 8.82799,-0.165429 8.83076,-0.167037 -10.19013,16.942869 c -9.54235,15.862789 -10.19089,17.130139 -10.19089,19.930879 0,3.49628 1.04359,5.79748 3.61096,7.95777 3.55986,2.99543 9.45169,2.63343 12.62215,-0.77604 0.84876,-0.91275 3.29492,-4.6145 5.43486,-8.2271 2.13995,-3.61261 6.22976,-10.500648 9.08966,-15.306686 2.85989,-4.806039 6.74623,-11.369938 8.63504,-14.58751 l 3.43327,-5.852271 11.21097,-0.175719 c 10.72962,-0.168679 11.23266,-0.123756 11.70885,1.029757 0.27365,0.662902 1.75249,5.816085 3.28546,11.450751 1.53297,5.634666 3.22169,11.438006 3.75428,12.897303 1.44741,3.965942 6.58828,9.178335 11.1113,11.266995 l 3.78502,1.74841 49.11536,0.18932 c 52.02084,0.20101 53.42548,0.13868 58.15585,-2.60487 6.97187,-4.04358 8.81523,-7.871865 11.41347,-23.689406 l 1.94816,-11.860741 75.42912,-0.152817 z m -170.98901,0.0049 -0.33438,2.258239 c -0.18393,1.242941 -0.64115,4.429933 -1.01453,7.081541 -0.71102,5.049333 -1.84728,7.322672 -4.29154,8.578826 -1.11164,0.571298 -11.18862,0.733326 -43.33184,0.692806 -23.03584,-0.02904 -42.80087,-0.270164 -43.92016,-0.53443 -3.60189,-0.850413 -4.86762,-2.805305 -6.988,-10.787547 l -1.93669,-7.2908 50.90748,3.9e-4 z M 505.20543,155.2303 c 2.44736,1.39833 3.17067,3.79701 3.17067,10.51641 0,6.83297 -0.503,8.19616 -3.62183,9.80898 -1.53483,0.7937 -24.53308,0.89632 -193.86324,0.85552 -145.17862,-0.035 -192.67636,-0.22115 -194.39389,-0.75539 -3.30205,-1.02711 -5.78321,-3.24732 -12.35786,-11.0641 -8.231656,-9.78685 -8.220309,-9.77088 -7.264967,-10.13603 0.441841,-0.16886 92.194647,-0.23705 203.893607,-0.15115 163.65006,0.1258 203.34991,0.30436 204.43751,0.92576 z M 18.897545,85.724012 c 0.182033,0.182033 -0.03247,1.839328 -0.474816,3.683221 -0.759374,3.165425 -2.50121,6.216575 -17.79325847,31.155237 -2.24940273,3.66838 -3.16385393,4.6702 -4.26602703,4.6702 -1.8381754,0 -3.2436525,-2.7049 -3.2436525,-6.24486 0,-3.08875 0.2117892,-3.38687 12.9354713,-18.46217 4.3360877,-5.137485 8.9236287,-10.644539 10.1962387,-12.237096 1.27261,-1.592558 2.464011,-2.746565 2.646044,-2.564532 z m 10.677758,20.827318 c 0.108895,0 5.103666,5.9649 11.099638,13.25682 l 10.902103,13.25814 -19.237012,9.5e-4 -19.234235,-6.7e-4 5.335911,-8.5868 c 2.935111,-4.72318 6.595642,-10.68961 8.135182,-13.25835 1.53954,-2.56874 2.889517,-4.67009 2.998413,-4.67009 z m 271.083937,91.64373 c 2.87363,0.79796 6.7296,4.22377 8.38288,7.44818 1.88507,3.67646 1.59394,7.56843 -1.62573,21.7376 -6.6086,29.08323 -7.53486,31.67078 -13.38236,37.4507 -3.6343,3.5923 -8.29846,6.05777 -13.62096,7.19981 -2.92069,0.62669 -12.50018,0.8012 -43.22487,0.7847 -35.82271,-0.0193 -39.95383,-0.1224 -44.67529,-1.11835 -9.36415,-1.97527 -16.72201,-5.93686 -23.36267,-12.57752 -3.69049,-3.69049 -8.75108,-11.05616 -9.18011,-13.36014 -0.0926,-0.49718 3.11723,-10.93764 7.1332,-23.20133 4.01596,-12.26368 7.47937,-22.90841 7.69757,-23.65417 0.36847,-1.25934 0.73998,-1.3547 5.19438,-1.3547 l 4.79592,-8.6e-4 -2.40131,4.37622 c -3.35674,6.11616 -4.45233,11.24682 -4.08243,19.12735 0.34658,7.38371 1.73927,11.97483 5.30107,17.48562 5.6645,8.76409 14.92196,15.03763 29.27212,19.83817 9.99473,3.34352 16.08485,4.45697 24.70555,4.51077 7.87556,0.0492 7.94815,0.0361 10.49229,-1.7593 4.89275,-3.45276 6.37447,-9.34312 3.67197,-14.59365 -0.71908,-1.39705 -2.73747,-4.65105 -4.48768,-7.23141 -4.03324,-5.94628 -5.2526,-9.70819 -5.2526,-16.2145 0,-5.28921 1.18313,-14.4174 2.77619,-21.42153 l 0.93545,-4.11676 26.31832,0.002 c 16.69382,0.002 27.15851,0.23771 28.6191,0.6433 z m -230.49425,-44.03549 2.633539,3.16208 c 29.658851,35.61908 29.739471,35.70713 35.320741,38.32353 l 3.42033,1.60189 21.15379,0.17904 21.1516,0.17846 -4.82312,14.88771 c -9.36056,28.88778 -13.76037,43.2423 -14.0914,45.97515 -1.14382,9.44274 9.96416,15.0119 16.63545,8.34061 l 1.82411,-1.82356 5.46821,5.5961 c 3.00769,3.07721 5.1836,5.68904 4.83499,5.80524 -1.04985,0.34995 -9.98402,6.86337 -14.42848,10.5197 -5.5542,4.56926 -11.21248,11.7104 -13.9577,17.61222 -1.23339,2.65161 -4.56159,12.41466 -7.3937,21.69529 -1.85922,6.09257 -4.90728,16.06174 -7.73774,25.31949 0.16218,0.23368 0.30852,0.516 0.43021,0.85176 0.003,-10e-4 0.009,0.003 0.0196,0.0146 0.0682,0.0911 0.12242,0.18903 0.17929,0.28723 l 0.002,0.003 c 0.10589,0.007 0.216,0.0228 0.32874,0.0524 0.51056,0.13416 1.07958,0.50791 1.60581,1.17923 0.0394,0.0503 0.16255,0.20874 0.16614,0.2133 0.17525,0.21615 0.25965,0.3174 0.45955,0.52156 0.0948,0.0968 0.5548,0.53626 0.63473,0.61285 0.36451,0.35006 0.73962,0.68871 1.10962,1.03287 0.062,0.0475 0.12052,0.1007 0.17519,0.16173 0.32242,0.29847 0.63863,0.60362 0.96482,0.89803 0.0478,0.0424 0.0969,0.0833 0.14495,0.12549 0.50491,-0.6143 1.1021,-0.82614 1.60023,-0.72833 0.5043,0.099 0.77992,0.59796 0.87309,1.24211 0.40102,-0.50729 0.93435,-0.69255 1.40695,-0.57563 0.6632,0.16408 1.16171,0.95963 1.04514,2.24336 0.22192,-0.0747 0.44698,-0.0877 0.65806,-0.0382 0.68971,0.1618 1.22808,0.97641 1.00395,2.38027 -0.0989,0.61948 -0.22458,1.23466 -0.35882,1.84798 0.0399,0.35648 -0.0202,0.66081 -0.19863,0.886 -0.0279,0.12153 -0.0553,0.24369 -0.0832,0.36512 -0.31882,1.3615 -0.65713,2.71811 -1.00134,4.07337 -0.18864,0.76174 -0.39482,1.51693 -0.60366,2.27331 -0.75875,2.74877 -3.41366,2.19346 -3.05743,-0.31269 -0.8648,0.73923 -1.94599,0.45562 -2.16156,-0.74992 -1.29688,1.13611 -2.9615,0.0557 -2.00447,-2.21975 0.0412,-0.0981 0.0638,-0.15368 0.0977,-0.23451 -0.54324,-0.1369 -0.99167,-0.59029 -1.01497,-1.38792 -0.67018,-0.1033 -1.22841,-0.75925 -1.14534,-1.8851 -0.34312,-0.13485 -0.63941,-0.37058 -0.76405,-0.78817 l 5.8e-4,-0.002 c -0.30264,-0.20111 -0.6123,-0.34467 -0.89102,-0.76098 -0.11611,-0.17344 -0.22858,-0.3495 -0.34398,-0.52362 -0.8304,0.2125 -1.57306,-0.34917 -1.59705,-1.35294 -0.2165,-0.12997 -0.39003,-0.29502 -0.49578,-0.49131 -0.42337,1.38624 -0.85101,2.78675 -1.23293,4.03511 -7.90652,25.84437 -14.16597,48.02815 -15.42649,54.67308 -1.777365,9.36984 -0.90585,18.40298 2.72353,28.24668 l 1.75588,4.76377 -70.94588,-0.0488 c -79.747627,-0.0535 -73.974039,0.29097 -79.083937,-4.69933 -5.647461,-5.51528 -6.835436,-13.81478 -3.960852,-27.68216 5.080315,-24.50811 24.013736,-100.44774 28.34981,-113.71057 3.81094,-11.65658 7.752995,-19.68138 16.7996211,-34.19941 7.8873467,-12.65761 12.0238091,-19.84897 14.1283329,-24.55722 3.670686,-8.2121 6.308261,-18.47536 7.363718,-28.65387 1.750349,-16.87984 -5.913012,-32.77234 -18.8656553,-39.12475 -5.2884854,-2.59365 -9.0112347,-3.33164 -16.8040567,-3.33164 -5.736022,0 -6.033845,-0.0675 -7.502965,-1.65268 -1.453327,-1.56817 -1.51789,-1.93924 -1.325388,-7.43536 0.184839,-5.27735 0.360925,-6.01216 2.008077,-8.38708 3.502988,-5.05073 0.794396,-4.79542 50.727493,-4.81042 z m 155.58655,43.77332 c 0.89137,0.54653 0.39806,1.78699 -0.31214,4.43784 -1.27457,4.75739 -2.31358,18.52371 -1.95468,25.91275 0.27551,5.67234 0.98685,8.93196 3.18185,14.61322 0.34593,0.89536 0.0549,1.05099 -1.91843,1.02379 -3.27188,-0.0452 -11.84911,-2.68913 -16.1365,-4.97291 -4.7602,-2.53562 -10.28356,-7.71049 -12.29463,-11.52142 -1.4361,-2.72136 -1.60965,-3.69222 -1.57125,-8.78491 0.0339,-4.49708 0.32114,-6.33894 1.33729,-8.59171 1.70894,-3.78864 6.29808,-8.62066 10.0567,-10.58653 2.77098,-1.44931 3.74868,-1.60174 11.61481,-1.80513 4.82998,-0.12488 7.1056,-0.27152 7.99698,0.27501 z M 78.182528,343.68094 c 0.01976,-0.0883 -0.218304,0.18451 -0.448942,0.46013 0.11925,-0.0326 0.19125,-0.0588 0.31558,-0.0919 0.07232,-0.19014 0.12117,-0.31376 0.133362,-0.3682 z m 32.451832,127.46567 -6.6e-4,4.18519 c 0,5.52016 -1.32766,7.25101 -6.07527,7.90851 -4.0737,0.56413 -107.5061522,0.52663 -112.0531634,-0.0399 -1.8294348,-0.2282 -4.3231876,-0.88943 -5.5427946,-1.46817 -2.67734,-1.27048 -11.979946,-9.39906 -11.550975,-10.09315 0.167453,-0.27094 30.6608546,-0.49199 67.763796,-0.49199 z" /><path
       style="fill:none;stroke:#1a1a1a;stroke-width:18.5;stroke-linecap:round;stroke-dasharray:none"
       d="m 197.53998,320.79143 c -15.89887,-7.87909 -31.79774,-15.75818 -43.124,-22.15999 -11.32626,-6.40181 -18.07962,-11.32614 -21.31567,-13.64765 -3.23605,-2.32151 -2.95467,-2.04013 -5.83903,0.91459 -2.88437,2.95471 -8.93427,8.58252 -14.98428,14.21044 10.69305,8.44188 21.38609,16.88376 41.43585,27.78799 20.04976,10.90423 49.45505,24.27027 64.43939,31.09413 14.98435,6.82385 15.54713,7.10524 13.92906,9.35645 -1.61806,2.25121 -5.41683,6.47207 -9.21568,10.69301 -0.98489,0.98488 -1.96977,1.96977 -5.76868,2.04011 -3.79891,0.0703 -10.41159,-0.77383 -26.31071,-7.52746 -15.89913,-6.75363 -41.08356,-19.4162 -54.16849,-24.83305 -13.08492,-5.41686 -14.06979,-3.58782 -15.75819,9.21594 -1.68839,12.80375 -4.08021,36.58124 -1.05512,50.15863 3.02509,13.57739 11.4668,16.95407 27.01416,20.82331 15.54735,3.86924 38.19927,8.23079 60.85165,12.59243"
       id="path638"
       transform="matrix(1.1221181,0.29912687,-0.29912687,1.1221181,15.613657,-102.4463)" /></g><path
     style="fill:#ffffff;stroke:none;stroke-width:5.52161;stroke-linecap:round;stroke-dasharray:none"
     d="m 33.121109,193.21943 c -1.739418,-1.08046 -3.123885,-4.54444 -2.653332,-6.63871 0.150029,-0.66773 0.932042,-2.72945 1.737805,-4.58158 1.523573,-3.50211 10.891302,-23.59008 11.729306,-25.1521 l 0.478542,-0.89199 0.216127,1.44124 c 0.430386,2.87002 -0.336101,6.22731 -5.078,22.24219 -3.503688,11.83305 -3.865991,12.88554 -4.662043,13.54333 -0.761933,0.62958 -0.813637,0.63068 -1.768405,0.0376 z"
     id="path665" /><path
     style="fill:#ffffff;stroke:none;stroke-width:5.52161;stroke-linecap:round;stroke-dasharray:none"
     d="m 50.589874,195.71876 c 0.07176,-0.20519 1.757686,-5.81261 3.74651,-12.46093 1.988823,-6.64832 3.646741,-12.11864 3.684261,-12.15626 0.03752,-0.0376 3.619022,2.45403 7.958894,5.53701 10.584005,7.51872 15.755762,11.23696 15.698322,11.28632 -0.125946,0.10823 -30.608744,8.16694 -30.892196,8.16694 -0.179442,0 -0.267548,-0.16788 -0.195791,-0.37308 z"
     id="path666" /><path
     style="fill:#ffffff;stroke:none;stroke-width:5.52161;stroke-linecap:round;stroke-dasharray:none"
     d="m 73.578194,472.0114 c -7.687144,-4.08729 -10.359816,-9.89558 -11.187631,-24.31312 -0.718484,-12.51339 -1.434834,-43.35652 -1.691416,-72.82559 -0.306891,-35.24674 -0.127913,-36.65077 8.256132,-64.76702 2.402925,-8.0583 3.992711,-14.31945 4.66073,-18.35563 0.688035,-4.15711 0.770782,-16.53952 0.142607,-21.34028 -0.225538,-1.72364 -0.449701,-3.67113 -0.498139,-4.32775 -0.155178,-2.10351 -2.391696,-8.33451 -4.18879,-11.67007 -2.43236,-4.51468 -5.424065,-8.07307 -9.144211,-10.87628 -2.957987,-2.22891 -5.672205,-3.61867 -9.102285,-4.66064 -2.332912,-0.70867 -3.134658,-0.79967 -7.249226,-0.82278 -4.404195,-0.0247 -4.838523,0.0277 -9.050071,1.09326 -2.433121,0.61558 -4.767684,1.11924 -5.187918,1.11924 -1.051983,0 -2.697858,-1.07521 -3.234544,-2.11305 -0.674172,-1.3037 -1.967875,-7.08979 -1.963317,-8.78094 0.0049,-1.80181 0.989327,-4.77778 1.9057,-5.76077 1.346394,-1.44427 4.659018,-2.70608 12.296165,-4.68371 2.292223,-0.59357 4.306865,-1.18676 4.476983,-1.31822 0.443027,-0.34233 3.091929,-0.97901 4.446952,-1.06885 0.634145,-0.042 1.259754,-0.24919 1.39024,-0.46032 0.130487,-0.21113 0.988313,-0.44616 1.90628,-0.52229 0.917966,-0.0761 1.66903,-0.25608 1.66903,-0.39991 0,-0.14383 0.410298,-0.26151 0.911771,-0.26151 0.501476,0 1.542374,-0.29194 2.313108,-0.64876 0.770736,-0.35682 1.901553,-0.6327 2.51293,-0.61305 0.611377,0.0196 1.190119,-0.0913 1.286094,-0.24663 0.09597,-0.1553 0.559906,-0.28235 1.030962,-0.28235 0.471054,0 1.057926,-0.20147 1.30416,-0.4477 0.249183,-0.24918 0.978717,-0.4477 1.645265,-0.4477 0.658662,0 1.280575,-0.13431 1.382029,-0.29846 0.101455,-0.16416 0.637024,-0.29847 1.190159,-0.29847 0.553131,0 1.183177,-0.1686 1.400095,-0.37466 0.216922,-0.20606 0.79733,-0.39453 1.289798,-0.41882 1.266162,-0.0624 2.652857,-0.43822 2.875172,-0.77914 0.103941,-0.15939 0.809078,-0.33126 1.566968,-0.38193 0.757894,-0.0507 1.581044,-0.29518 1.829227,-0.54336 0.24818,-0.24818 1.087605,-0.5376 1.865385,-0.64316 2.121075,-0.28785 9.266686,-2.16024 10.945208,-2.86801 0.809871,-0.34149 2.206947,-0.66521 3.104609,-0.71938 0.897662,-0.0542 1.712443,-0.21342 1.810626,-0.35387 0.09818,-0.14046 0.567887,-0.28342 1.043793,-0.31768 0.475904,-0.0343 1.268819,-0.26362 1.762033,-0.50966 0.493212,-0.24605 1.329754,-0.44736 1.858978,-0.44736 0.529227,0 1.113837,-0.18268 1.299137,-0.40595 0.185296,-0.22327 0.641363,-0.34775 1.013478,-0.27661 0.372115,0.0711 1.228,-0.0607 1.90196,-0.29285 l 1.22539,-0.42218 11.60171,8.18267 c 14.22673,10.03409 21.60527,14.98913 24.06006,16.15745 1.02739,0.48897 3.24619,1.15375 4.93066,1.47728 l 3.06267,0.58823 17.45623,-4.4958 c 9.60093,-2.47268 17.50844,-4.43956 17.57224,-4.37083 0.0638,0.0687 -0.19952,6.10173 -0.58517,13.40667 -1.10942,21.01505 -1.68541,35.39365 -1.56026,38.94975 0.13051,3.70864 0.64376,5.24332 2.34568,7.01394 0.55225,0.57455 1.00948,1.13865 1.01607,1.25356 0.028,0.48773 0.83433,0.96852 1.73245,1.03295 0.53114,0.0381 1.77157,0.15856 2.75651,0.26767 3.35659,0.37185 6.08252,-0.99304 8.04755,-4.02949 0.64346,-0.99429 1.20512,-1.80781 1.24814,-1.80781 0.3912,0 6.35212,3.8659 6.76849,4.38965 0.29919,0.37635 0.8415,0.68427 1.20514,0.68427 0.36363,0 1.11259,0.37687 1.66433,0.83748 l 1.00318,0.83749 -2.81785,3.42643 c -7.02824,8.54613 -9.89378,12.99464 -12.19071,18.92507 -0.38148,0.98494 -0.7906,1.90202 -0.90915,2.03796 -0.11856,0.13595 -4.49625,-1.90612 -9.72821,-4.53793 -19.71448,-9.91686 -29.31896,-15.41897 -40.08952,-22.96605 -6.6392,-4.65218 -8.82813,-5.51141 -12.47631,-4.89737 -3.14156,0.52876 -4.34314,1.32486 -9.32752,6.17986 -2.54442,2.47837 -8.43518,8.05472 -13.09058,12.39189 l -8.46437,7.88576 0.853495,0.69206 c 18.869175,15.30003 31.852845,24.37382 47.022805,32.86242 10.0858,5.64369 28.99458,15.06869 47.43424,23.64339 l 7.34701,3.41646 0.19371,2.95532 c 0.10654,1.62542 0.14325,3.00577 0.0816,3.06743 -0.34446,0.34446 -12.66484,-5.15291 -34.22035,-15.26915 -25.9822,-12.19374 -31.95417,-14.65684 -37.33635,-15.39915 -7.45328,-1.02796 -13.35526,2.78301 -15.75005,10.16997 -1.18576,3.65759 -2.76004,15.10801 -3.81626,27.75729 -0.63272,7.57738 -0.72546,24.0526 -0.16045,28.50346 1.45811,11.48628 4.17851,17.99578 9.80557,23.46317 7.4026,7.19255 16.70668,10.2567 54.25071,17.86663 4.09249,0.82952 7.47526,1.54261 7.51729,1.58463 0.042,0.042 -3.30637,0.97241 -7.44088,2.06753 -4.1345,1.09511 -22.49279,5.97166 -40.79618,10.83678 -44.397261,11.80096 -52.845895,13.87296 -56.567363,13.87296 -0.761093,0 -1.800863,-0.295 -2.671603,-0.75798 z"
     id="path667" /><path
     style="fill:#ffffff;stroke:none;stroke-width:5.52161;stroke-linecap:round;stroke-dasharray:none"
     d="m 175.88,328.64115 c -21.45886,-10.67702 -31.3236,-16.40995 -44.63843,-25.9418 l -4.41101,-3.15776 2.15035,-2.1648 c 1.18269,-1.19064 2.29463,-2.07771 2.47098,-1.97126 0.17635,0.10644 2.06666,1.35837 4.20069,2.78207 4.81751,3.21396 11.36211,7.14776 17.60946,10.58462 3.75806,2.06743 34.24309,17.79017 35.13088,18.11885 0.27413,0.1015 -0.0856,7.68877 -0.36457,7.68877 -0.11697,0 -5.58372,-2.6724 -12.14835,-5.93869 z"
     id="path668" /><path
     style="fill:#ffffff;stroke:none;stroke-width:5.52161;stroke-linecap:round;stroke-dasharray:none"
     d="m 183.55629,427.23284 c -2.70857,-0.55324 -7.61087,-1.55492 -10.89399,-2.22594 -3.28312,-0.67102 -8.9773,-1.88731 -12.65374,-2.70286 -21.9824,-4.87639 -27.16055,-6.99551 -29.60395,-12.1152 -3.32069,-6.95788 -3.50197,-23.75452 -0.52346,-48.5018 l 0.63504,-5.27631 1.37433,0.54662 c 3.18744,1.26775 13.66233,6.0511 27.49007,12.55331 8.12572,3.82095 17.52738,8.18235 20.89258,9.69198 l 6.11855,2.74479 v 17.7283 c 0,13.69026 0.0901,18.1022 0.39535,19.36986 0.21745,0.90285 0.43702,2.42992 0.48793,3.39348 0.0509,0.96356 0.24033,1.84325 0.42093,1.95487 0.25573,0.15805 1.53121,3.32471 1.53121,3.80157 0,0.17503 -0.59728,0.0736 -5.67085,-0.96267 z"
     id="path669" /><path
     style="fill:#ffffff;stroke:none;stroke-width:5.52161;stroke-linecap:round;stroke-dasharray:none"
     d="m 104.16447,491.69526 c -2.5883,-0.8711 -9.306104,-4.27964 -9.475554,-4.80779 -0.138999,-0.43324 1.938896,-1.06816 13.429104,-4.10337 4.71888,-1.24652 8.88247,-2.39794 9.25243,-2.55871 0.9,-0.39109 17.15378,-4.76982 17.70551,-4.76982 0.80992,0 36.38682,-9.47807 39.6756,-10.57001 1.88798,-0.62684 7.07773,-1.99482 19.10179,-5.03511 2.29819,-0.58109 4.98438,-1.34412 5.96931,-1.69562 0.98494,-0.3515 2.51723,-0.69753 3.4051,-0.76897 0.92934,-0.0748 1.84825,-0.34161 2.1657,-0.6289 0.30327,-0.27446 0.60866,-0.44176 0.67864,-0.37178 0.3339,0.3339 1.43472,5.32831 1.45385,6.59608 0.0526,3.48665 -1.44472,4.17206 -18.74651,8.5814 -9.48432,2.41706 -18.85574,4.97634 -19.69872,5.3796 -0.74105,0.35449 -10.3099,2.86525 -11.93863,3.13255 -1.78655,0.29321 -9.77757,2.45257 -12.7946,3.45741 -1.45573,0.48484 -3.20176,0.95817 -3.88005,1.05186 -0.6783,0.0937 -1.5019,0.28484 -1.83021,0.4248 -1.01644,0.43329 -2.63244,0.87305 -3.88005,1.05586 -1.58136,0.23171 -2.47702,0.46011 -9.84936,2.51163 -14.98005,4.16854 -16.80792,4.44337 -20.74335,3.11889 z"
     id="path670" /><path
     style="fill:#ffffff;stroke:none;stroke-width:5.52161;stroke-linecap:round;stroke-dasharray:none"
     d="m 211.46282,370.87578 c -1.47741,-0.37093 -3.87817,-1.06676 -5.33503,-1.54629 l -2.64883,-0.87189 0.20215,-2.67794 c 0.11119,-1.47286 0.24358,-2.71935 0.29419,-2.76997 0.11155,-0.11155 13.95336,6.16311 14.29442,6.47984 0.13237,0.12291 -0.11461,0.64571 -0.54884,1.16176 -0.68407,0.81297 -0.9753,0.93565 -2.18069,0.91859 -0.76515,-0.0108 -2.59997,-0.32317 -4.07737,-0.6941 z"
     id="path671" /><path
     style="fill:#ffffff;stroke:none;stroke-width:5.52161;stroke-linecap:round;stroke-dasharray:none"
     d="m 241.4586,241.84559 c -4.80545,-0.37801 -9.65689,-1.96298 -13.6889,-4.47217 -4.42951,-2.75656 -5.77019,-4.45554 -7.02156,-8.89807 -1.18208,-4.19653 -1.47109,-6.36465 -1.10931,-8.32172 0.93683,-5.06774 4.9669,-11.1678 8.47293,-12.82492 2.12187,-1.0029 11.40104,-3.77523 12.63595,-3.77523 1.19583,0 1.20496,0.0295 1.43166,4.62622 0.16416,3.3286 1.18614,9.79865 2.29693,14.54169 0.3353,1.43168 0.53722,2.72023 0.44872,2.86343 -0.21355,0.34553 0.37553,2.47369 0.84143,3.03977 0.20265,0.24623 0.67683,1.32071 1.05373,2.38772 0.93336,2.64237 2.38008,5.46869 4.04143,7.89533 0.77773,1.13599 1.27474,2.14043 1.13049,2.28468 -0.70838,0.70838 -5.81043,1.02481 -10.5335,0.65327 z"
     id="path672" /><path
     style="fill:#ffffff;stroke:none;stroke-width:5.52161;stroke-linecap:round;stroke-dasharray:none"
     d="m 143.73586,208.59171 c -1.96464,-0.46075 -5.4417,-2.50472 -11.52843,-6.77694 -7.42888,-5.21427 -7.79675,-5.49578 -7.52551,-5.75881 0.12424,-0.12048 1.30217,-0.49221 2.61762,-0.82607 1.31545,-0.33386 2.97763,-0.81374 3.69373,-1.0664 0.7161,-0.25265 1.61215,-0.45937 1.99121,-0.45937 0.37907,0 1.06731,-0.15585 1.52942,-0.34633 0.46212,-0.19048 1.00658,-0.31925 1.20992,-0.28616 0.20333,0.0331 0.65268,-0.0913 0.99854,-0.27637 0.34587,-0.1851 1.96816,-0.66084 3.60509,-1.05721 1.63694,-0.39636 3.21245,-0.84707 3.50115,-1.00158 0.28869,-0.1545 1.18064,-0.35963 1.9821,-0.45584 0.80146,-0.0962 1.52994,-0.27187 1.61885,-0.39036 0.0889,-0.11849 0.56458,-0.25813 1.05704,-0.31031 0.49247,-0.0522 1.023,-0.22007 1.17894,-0.37308 0.15595,-0.15302 0.786,-0.27821 1.4001,-0.27821 0.61411,0 1.19956,-0.13431 1.30102,-0.29846 0.10145,-0.16416 0.47873,-0.2993 0.83839,-0.30031 0.35966,-0.001 1.03735,-0.2018 1.50597,-0.44621 0.46862,-0.24441 1.65726,-0.57405 2.64142,-0.73255 0.98415,-0.15849 1.95021,-0.42165 2.14679,-0.5848 0.19657,-0.16314 1.08973,-0.43013 1.9848,-0.5933 2.75508,-0.50226 3.99022,-0.8067 4.61204,-1.13677 0.32831,-0.17427 0.98156,-0.3153 1.45166,-0.31341 0.47009,0.002 0.94075,-0.13576 1.0459,-0.3059 0.10516,-0.17013 1.05165,-0.46537 2.10332,-0.65607 1.05167,-0.19071 3.93875,-0.95889 6.41573,-1.70708 2.47698,-0.74818 4.89572,-1.35109 5.37499,-1.33978 0.47926,0.0113 1.14711,-0.17257 1.48412,-0.40861 0.337,-0.23605 0.97703,-0.42918 1.42229,-0.42918 0.44525,0 1.18765,-0.15395 1.64976,-0.34212 0.46212,-0.18817 1.04168,-0.36017 1.28791,-0.38223 1.065,-0.0954 2.88208,-0.58865 3.43235,-0.93171 0.32832,-0.20468 1.73236,-0.59698 3.1201,-0.87178 1.38775,-0.2748 2.99946,-0.70344 3.58159,-0.95254 0.58213,-0.2491 1.79712,-0.58178 2.69998,-0.73929 0.90286,-0.15751 2.07806,-0.36169 2.61157,-0.45373 0.53351,-0.0921 0.97001,-0.2584 0.97001,-0.36968 0,-0.11128 0.41196,-0.23372 0.91547,-0.27208 0.50351,-0.0384 1.21736,-0.26756 1.58634,-0.50933 0.36897,-0.24176 1.33368,-0.51896 2.1438,-0.61601 0.81011,-0.097 1.6744,-0.24995 1.92064,-0.33979 0.24623,-0.0898 0.77129,-0.20586 1.16679,-0.25782 0.39551,-0.052 0.80747,-0.23746 0.91547,-0.41222 0.10801,-0.17475 0.85154,-0.38403 1.65229,-0.46505 0.80076,-0.081 1.53043,-0.24713 1.62149,-0.36911 0.0911,-0.12198 0.63565,-0.25995 1.2102,-0.30661 0.57454,-0.0467 1.08464,-0.20028 1.13355,-0.3414 0.0489,-0.14111 0.35183,-0.18781 0.67314,-0.10379 0.32132,0.084 0.75138,0.0215 0.9557,-0.13891 0.20432,-0.16044 0.84158,-0.37824 1.41612,-0.48402 0.57455,-0.10577 1.44756,-0.38016 1.94003,-0.60976 0.49247,-0.22959 1.76289,-0.57593 2.82316,-0.76965 1.06027,-0.19372 2.28825,-0.53863 2.72885,-0.76648 0.4406,-0.22784 1.39653,-0.46988 2.12428,-0.53787 0.72776,-0.068 1.74279,-0.34059 2.25563,-0.60579 0.51283,-0.2652 1.35071,-0.48218 1.86193,-0.48218 0.51123,0 1.5588,-0.26245 2.32793,-0.58323 0.76914,-0.32077 6.0321,-1.79769 11.69549,-3.28203 26.92836,-7.05779 43.73352,-11.50388 60.5885,-16.02973 31.73591,-8.52162 42.5911,-11.41025 44.68231,-11.89024 1.11515,-0.25596 3.90787,-0.98204 6.20606,-1.61352 2.29818,-0.63147 4.78291,-1.30647 5.52161,-1.49999 0.7387,-0.19352 6.04393,-1.60589 11.78939,-3.13861 11.92828,-3.1821 50.93848,-13.4837 62.08083,-16.39397 15.35876,-4.01155 23.25658,-5.87858 24.09154,-5.69519 1.98733,0.43649 3.9187,4.37459 5.18936,10.58124 0.6054,2.95707 0.46575,3.80878 -0.86141,5.2533 -0.80251,0.87349 -1.52572,1.21697 -4.39302,2.08642 -8.39473,2.54553 -31.96058,8.91428 -110.87994,29.96568 -152.18627,40.59503 -206.94225,55.00861 -208.52438,54.89046 -0.22081,-0.0165 -0.9276,-0.15337 -1.57063,-0.30417 z"
     id="path673" /><path
     style="fill:#ffffff;stroke:none;stroke-width:5.52161;stroke-linecap:round;stroke-dasharray:none"
     d="M 99.136915,180.03653 C 97.438778,178.77136 88.440043,172.29668 79.139726,165.64836 64.503242,155.18549 62.217376,153.45029 62.135703,152.7406 c -0.169898,-1.47632 2.888118,-12.1034 4.59837,-15.98005 0.610484,-1.3838 0.890705,-1.66656 2.27464,-2.29526 2.432988,-1.10528 34.324047,-9.55323 34.488297,-9.13597 0.0433,0.10998 -1.54427,5.76829 -3.527904,12.57401 -5.692666,19.53121 -6.043226,21.28611 -4.797105,24.01421 0.794622,1.73965 2.960133,3.60035 4.839769,4.15854 4.58492,1.36157 8.59969,-0.59683 10.09862,-4.92609 1.4975,-4.32514 4.41007,-14.03208 8.12197,-27.06873 l 3.93164,-13.80841 2.41654,-0.72913 c 3.94847,-1.19134 11.22746,-2.937 11.4246,-2.73986 0.10064,0.10064 -1.37811,5.65871 -3.28611,12.35127 -1.908,6.69256 -3.80792,13.57854 -4.22205,15.30218 -0.93356,3.88552 -0.99949,7.00371 -0.18197,8.60619 0.69144,1.35531 2.98809,3.5299 4.29632,4.06796 2.68046,1.10245 5.87712,0.77155 7.98686,-0.82678 0.69214,-0.52436 1.53054,-1.1114 1.8631,-1.30454 0.73967,-0.42956 1.06926,-0.9893 1.23118,-2.09087 0.068,-0.4626 0.72549,-2.72709 1.46109,-5.0322 1.13177,-3.54658 2.84212,-9.53324 9.64218,-33.7501 l 0.76441,-2.72229 6.90952,-1.98329 c 3.80023,-1.09081 6.99269,-1.98115 7.09435,-1.97855 0.10166,0.003 -1.35078,5.34355 -3.22764,11.86875 -4.16479,14.47953 -5.46347,19.45366 -5.46347,20.92587 0,5.75508 5.40182,9.85859 10.88096,8.26577 1.34538,-0.39112 2.07837,-0.84986 3.27715,-2.05101 1.41832,-1.42113 1.6442,-1.85123 2.77193,-5.27803 0.67528,-2.05195 3.40793,-11.52077 6.07255,-21.04182 2.66462,-9.52105 4.99238,-17.46723 5.17282,-17.65819 0.35325,-0.37385 15.95382,-4.815335 17.19135,-4.894374 0.41039,-0.02621 0.90451,-0.03279 1.09804,-0.01462 0.39731,0.0373 1.21427,1.338083 7.35493,11.710734 2.39317,4.04248 4.80241,7.80314 5.35388,8.35704 2.68312,2.69492 5.11022,4.58883 5.54019,4.3231 0.13712,-0.0847 1.04463,0.16588 2.01668,0.55696 0.97205,0.39107 2.92268,0.92641 4.33474,1.18962 l 2.56738,0.47857 29.6669,-7.79031 c 42.8429,-11.25025 49.56378,-13.10173 54.43953,-14.99717 2.07596,-0.80703 2.70386,-1.24206 4.80898,-3.33188 5.31092,-5.272303 5.69353,-8.320493 3.60029,-28.682533 l -0.36962,-3.5955 62.50587,-16.798212 c 46.77936,-12.571771 62.56335,-16.705256 62.73423,-16.428755 0.12559,0.203201 0.16463,0.535446 0.0868,0.738321 -0.19111,0.498028 0.4776,2.918933 0.87456,3.166108 0.17464,0.108746 0.29602,0.746716 0.26973,1.417711 -0.0263,0.670995 0.0803,1.219992 0.23695,1.219992 0.41233,0 1.2246,2.944929 1.02815,3.727649 -0.097,0.386464 0.0167,0.846776 0.27235,1.102396 0.48886,0.488859 2.17411,6.679164 2.25646,8.288496 0.029,0.566879 0.31455,1.5742 0.63457,2.238492 0.79968,1.660101 5.14498,17.973169 5.13161,19.264967 -0.006,0.574546 0.16794,1.246093 0.38642,1.492327 0.54318,0.612144 1.361,3.896232 1.16085,4.66159 -0.0925,0.353771 0.0327,0.81713 0.29053,1.074944 0.27769,0.277681 0.38424,0.716688 0.27518,1.133754 -0.11494,0.439461 -0.0117,0.802237 0.29145,1.023874 0.25818,0.188795 0.55658,0.807872 0.66313,1.375733 l 0.19368,1.032469 -32.17936,8.571294 c -17.69868,4.714212 -99.45249,26.504733 -181.67517,48.423383 -82.22268,21.91864 -149.57888,39.84632 -149.68045,39.83929 -0.10158,-0.007 -1.57407,-1.04794 -3.272205,-2.31311 z"
     id="path674" /><path
     style="fill:#ffffff;stroke:none;stroke-width:5.52161;stroke-linecap:round;stroke-dasharray:none"
     d="m 233.63088,104.74466 c -0.61174,-0.323 -1.64837,-1.29737 -2.30363,-2.16525 -1.47547,-1.95425 -6.07229,-9.769622 -5.867,-9.974908 0.24823,-0.248233 83.83222,-22.482404 83.97613,-22.338486 0.19608,0.196074 1.24094,9.052152 1.25276,10.618139 0.0258,3.42065 -1.10411,4.923145 -4.46352,5.935263 -1.23117,0.370926 -2.64142,0.811358 -3.13389,0.978738 -2.24117,0.761731 -12.30377,3.516133 -12.8733,3.523766 -0.78469,0.01052 -17.93905,4.484906 -30.4042,7.93036 -13.38542,3.699818 -22.82755,6.091168 -24.02647,6.085018 -0.57455,-0.003 -1.54514,-0.26963 -2.15688,-0.59264 z"
     id="path675" /></svg>
