<?xml version="1.0" encoding="UTF-8" standalone="no"?>
<!-- Created with Inkscape (http://www.inkscape.org/) -->

<svg
   width="512"
   height="512"
   viewBox="0 0 135.46667 135.46667"
   version="1.1"
   id="svg1"
   xml:space="preserve"
   xmlns="http://www.w3.org/2000/svg"
   xmlns:svg="http://www.w3.org/2000/svg"><defs
     id="defs1" /><g
     id="layer1"><path
       style="fill:#000000;stroke-width:1.0148"
       d="m 29.891945,134.70379 c -5.81863,1.71229 -13.479197,0.30206 -18.518497,-3.40908 -4.2655225,-3.1413 -6.5442112,-7.56228 -5.9499051,-11.54365 l 0.127642,-0.85508 -0.6833808,-0.42864 C 3.2236237,117.43605 2.3300168,115.50902 1.7434708,111.72981 0.35887417,102.8086 0.79305054,94.413242 3.1112016,85.283041 3.8629137,82.322369 4.5640575,80.192609 5.9697943,76.599924 8.4603338,70.234775 10.820997,65.787687 15.867653,57.954039 16.87485,56.390623 18.538459,53.689961 19.564564,51.95257 27.470723,38.565915 29.955933,35.334534 33.988821,33.197504 c 0.63472,-0.336342 5.467703,-2.442219 10.739957,-4.679732 10.875718,-4.615579 10.456766,-4.483829 12.275149,-3.860551 0.728954,0.249861 1.357604,0.651071 2.450435,1.56389 l 1.469936,1.227808 0.764861,-0.325268 0.764863,-0.32527 -0.125055,-0.568162 c -0.180101,-0.818254 0.255827,-1.794742 1.002739,-2.246157 0.328091,-0.198291 12.576037,-5.43273 27.217646,-11.632092 l 26.621128,-11.2715636 0.85538,0.058475 c 0.49492,0.033832 1.21018,0.2518001 1.69731,0.517236 1.58527,0.8638007 1.21409,0.1128874 7.98679,16.1577816 l 6.07276,14.386778 -0.28987,2.649429 c -0.15942,1.457184 -0.46669,4.309038 -0.68281,6.33745 -0.40967,3.844981 -0.60584,4.655484 -1.33223,5.504081 -0.42598,0.497655 -1.25161,0.857384 -35.176555,15.326769 l -34.740335,14.817157 0.676141,1.611452 c 1.397836,3.331472 1.269422,6.738961 -0.399025,10.588358 -1.047859,2.417595 -2.326134,4.142784 -4.383393,5.91594 -5.300088,4.568135 -12.174354,5.605627 -17.661946,2.665614 -1.342374,-0.719184 -3.230642,-2.292488 -4.159761,-3.465909 -0.343902,-0.434329 -0.705489,-0.755578 -0.803526,-0.713886 -0.278335,0.118367 -1.066299,1.657913 -1.504327,2.939201 -0.532106,1.556473 -1.040521,4.318897 -1.125894,6.117417 -0.10015,2.11 0.242888,5.54995 0.783645,7.85817 0.60435,2.57966 2.068785,6.10728 3.516017,8.46958 1.317043,2.14981 1.983148,3.75555 2.11852,5.10704 0.348892,3.48303 -1.69612,7.0319 -5.346866,9.27881 -1.396006,0.8592 -1.758103,1.01959 -3.378593,1.49646 z m 2.073704,-6.1306 0.409222,-0.42777 -0.955762,-0.0631 c -2.598007,-0.17157 -6.05857,-1.50485 -9.012428,-3.47231 -4.225787,-2.81465 -7.214522,-4.15938 -11.03481,-4.96494 l -1.104278,-0.23285 -0.188376,0.46715 c -0.3111453,0.77161 -0.147343,2.29707 0.377384,3.51452 1.191395,2.76422 3.838851,4.96332 7.76257,6.44792 2.971267,1.12423 6.036212,1.44074 8.847642,0.91366 1.394718,-0.26148 4.298927,-1.55522 4.898821,-2.18233 z m 1.433523,-5.36648 c -0.0783,-0.18413 -0.526261,-0.88667 -0.995456,-1.56118 -1.456532,-2.09392 -2.333764,-3.76629 -3.356243,-6.3984 -3.157289,-8.12761 -3.078943,-17.148887 0.23825,-27.433289 2.270568,-7.039512 5.643896,-13.160562 10.973392,-19.911698 0.550112,-0.696853 0.970205,-1.330252 0.933539,-1.407551 -0.03663,-0.07732 -0.630356,-0.698858 -1.319314,-1.381238 l -1.252649,-1.240692 -4.029985,1.606978 c -5.020066,2.001783 -6.922673,2.433651 -10.446691,2.371272 -2.424266,-0.04292 -5.620143,-1.006721 -6.905234,-2.082473 -0.335999,-0.281265 -0.577351,-0.380007 -0.660543,-0.270245 -0.54194,0.715033 -3.270532,5.666284 -4.214728,7.647965 -1.218308,2.556986 -3.0179201,7.028008 -3.8309298,9.517704 -2.1660037,6.633005 -3.1599679,13.330407 -3.0098694,20.280717 0.074831,3.465 0.7190356,10.41079 1.0347153,11.15625 0.063019,0.14881 0.6110015,0.28807 1.467059,0.37282 4.3167739,0.4274 9.1928179,1.9884 13.2175469,4.23144 0.766216,0.42702 2.333495,1.40253 3.482847,2.1678 3.061521,2.03845 5.678328,3.02446 7.708407,2.90452 0.910415,-0.0538 1.130424,-0.1838 0.965882,-0.57071 z M 53.066031,92.530408 c 3.963687,-2.780624 6.014536,-6.779865 5.428682,-10.586177 -0.474654,-3.083836 -3.000083,-5.582022 -5.880199,-5.816763 -1.438351,-0.117232 -2.509219,0.101459 -4.399755,0.898518 -1.496488,0.630892 -1.691313,0.751822 -2.131886,1.322825 -0.684309,0.886908 -0.923271,2.025768 -0.762254,3.632795 0.122159,1.219182 0.217232,1.54008 0.853054,2.879256 0.796945,1.678527 1.455538,2.410018 3.03141,3.366925 1.866077,1.133125 1.920827,3.009303 0.11023,3.777429 -1.994935,0.846281 -5.587107,-1.583765 -7.440931,-5.033725 -0.630246,-1.172888 -1.174492,-3.370547 -1.19818,-4.83825 -0.0091,-0.566305 -0.03927,-1.082911 -0.06696,-1.148014 -0.191571,-0.450475 -1.727151,1.133279 -2.274437,2.34579 -1.826379,4.04634 0.357924,9.111004 4.67861,10.84812 2.303874,0.926268 4.787645,0.800263 7.633415,-0.387238 0.842896,-0.351838 1.931557,-0.919458 2.419198,-1.261492 z M 127.82161,43.799301 c -0.0251,-0.05903 0.0446,-0.77265 0.15466,-1.58583 l 0.20017,-1.478509 -34.033432,14.473227 c -33.414714,14.210112 -34.045462,14.472392 -34.69613,14.426993 -0.945557,-0.06596 -1.465068,-0.460155 -1.887339,-1.432057 -0.3742,-0.861251 -0.337854,-1.438519 0.142484,-2.263282 0.227606,-0.390809 0.731982,-0.621789 9.462679,-4.333458 l 9.222241,-3.920684 -1.212964,-0.410614 c -2.300801,-0.778839 -5.143827,-2.721206 -7.46228,-5.098235 -0.512323,-0.525267 -1.548654,-1.477309 -2.302957,-2.115649 l -1.371462,-1.160619 -0.64919,-1.52687 c -0.583536,-1.372453 -0.645598,-1.63088 -0.613667,-2.555346 0.07305,-2.114953 1.253258,-3.994933 2.965103,-4.723175 1.038516,-0.4418 1.0408,-0.493255 0.06901,-1.55602 l -0.607318,-0.66417 -13.991979,5.950301 -13.991978,5.9503 -0.490769,0.633157 c -0.556417,0.717851 -0.877917,2.058545 -0.736472,3.071183 0.140426,1.005355 0.773522,1.965453 2.43933,3.699264 0.830822,0.86474 2.701004,2.805125 4.155959,4.311965 l 2.645374,2.739711 1.100586,-0.08517 c 2.622093,-0.202912 4.696543,0.75522 6.148338,2.83975 0.743719,1.067854 1.198138,2.597238 1.132343,3.811039 l -0.04443,0.819745 1.252945,0.291041 c 0.724211,0.168222 1.719317,0.565262 2.358117,0.94087 l 1.105176,0.649829 34.791681,-14.795686 C 112.21088,50.564674 127.84665,43.858322 127.82161,43.799301 Z M 48.640401,71.759395 c 0.163429,-0.113952 0.335411,-0.468428 0.382182,-0.787726 0.172629,-1.178526 -0.719267,-2.320542 -1.953485,-2.501312 -1.056339,-0.154717 -1.478165,0.161617 -3.58042,2.685014 -1.063907,1.277038 -2.221454,2.719143 -2.572327,3.204678 -0.350872,0.485535 -0.714537,0.915555 -0.808139,0.955599 -0.09361,0.04004 -0.180414,0.13979 -0.192911,0.22166 -0.02324,0.15225 8.187055,-3.402757 8.7251,-3.777913 z M 128.46633,36.444466 c 0.0747,-0.837463 0.12318,-1.656099 0.10768,-1.819191 -0.0271,-0.285484 -0.45897,-0.113331 -11.58893,4.619859 l -11.56077,4.916389 -0.0108,1.658128 c -0.006,0.911972 0.008,1.70381 0.0324,1.75964 0.0238,0.05582 5.18249,-2.084067 11.46389,-4.755325 l 11.42073,-4.856838 z m -34.356344,15.739959 6.547994,-2.786948 0.0497,-1.583413 0.0497,-1.583413 -4.674772,1.941877 c -5.463021,2.269319 -5.151631,2.063085 -7.454527,4.937005 -1.604262,2.002052 -1.952158,2.529975 -1.385793,2.102905 0.17584,-0.132595 3.26631,-1.495209 6.867719,-3.028018 z M 83.253443,52.006422 c 0.435479,-0.405925 1.21767,-1.300227 1.738192,-1.987335 1.334172,-1.761141 1.970841,-2.487081 2.758158,-3.144894 0.625888,-0.522942 2.39018,-1.296288 20.324027,-8.908685 18.74099,-7.95501 19.63819,-8.349674 19.62933,-8.634234 -0.005,-0.164006 -0.21215,-0.78196 -0.46008,-1.373215 l -0.45058,-1.075097 -23.4219,9.876063 c -22.265991,9.38867 -23.446951,9.871681 -23.925684,9.785569 -0.876821,-0.157718 -1.42939,-0.654828 -1.75423,-1.578165 -0.338897,-0.963306 -0.223054,-1.748235 0.354033,-2.398775 0.355359,-0.400591 2.473496,-1.32587 23.515381,-10.272383 12.71865,-5.407695 23.16868,-9.894196 23.22227,-9.970042 0.11038,-0.156222 -0.43761,-1.511975 -0.9148,-2.263149 l -0.31671,-0.498669 -25.01128,10.636421 -25.011279,10.636424 0.377635,0.895 c 1.178131,2.791868 0.890562,5.510753 -0.781787,7.39147 -0.392285,0.441162 -0.793677,0.836378 -0.891983,0.878257 -0.252725,0.107663 -0.134462,0.304345 0.508751,0.846103 0.975101,0.821296 2.808076,1.909066 3.899778,2.314303 2.385923,0.885651 4.89337,0.44771 6.612721,-1.154951 z m -13.077686,-5.97911 c 0.701982,-0.952469 0.292748,-2.259143 -0.852122,-2.720809 -1.404056,-0.566182 -2.679433,0.831012 -2.056587,2.253021 0.263404,0.601495 0.714213,0.949242 1.390562,1.072822 0.663599,0.121251 1.115644,-0.05891 1.518147,-0.605034 z M 34.997941,60.244484 c -0.03692,-0.08682 -0.465439,-0.62661 -0.952265,-1.19954 l -0.885139,-1.041691 -5.864825,2.494105 c -6.687895,2.844129 -6.507405,2.701097 -3.633884,2.87962 1.755916,0.109088 3.678531,-0.133851 5.647767,-0.713646 1.700161,-0.500573 5.768436,-2.23052 5.688346,-2.418848 z M 72.432718,37.069168 c -0.01871,-0.04433 -0.322002,-0.333363 -0.673973,-0.642306 -0.351971,-0.308943 -1.82338,-1.692504 -3.269797,-3.074581 -3.507726,-3.351694 -3.267738,-3.170517 -3.863889,-2.916995 -0.27331,0.116229 -0.472586,0.268562 -0.442839,0.33851 0.02975,0.06996 0.66203,0.694097 1.405073,1.38699 0.743043,0.692895 2.355359,2.220646 3.582928,3.395003 l 2.23194,2.135195 0.532294,-0.270607 c 0.292759,-0.148838 0.516978,-0.306883 0.498265,-0.351205 z M 31.473415,52.695272 c 0.04978,-1.200588 0.19129,-1.816239 0.725391,-3.155732 0.715534,-1.794512 1.539578,-2.896624 2.844214,-3.803972 0.474438,-0.329961 4.696924,-2.184082 13.484736,-5.921231 7.557173,-3.213802 12.771434,-5.493936 12.738857,-5.570542 -0.03033,-0.07133 -0.442696,-0.484994 -0.916354,-0.919245 -0.47366,-0.434252 -1.674853,-1.545573 -2.66932,-2.4696 -0.994466,-0.924029 -1.912562,-1.73397 -2.040214,-1.79987 -0.186862,-0.09647 -2.18183,0.720131 -10.237183,4.190387 -11.317899,4.875766 -10.583822,4.477729 -12.661537,6.865361 -0.634096,0.728676 -2.018408,2.65635 -3.076247,4.283717 -1.057841,1.627369 -2.476489,3.802775 -3.152553,4.834238 -1.512083,2.306972 -5.645602,9.076662 -5.68009,9.302597 -0.01499,0.09822 2.117293,-0.746287 5.27665,-2.089853 l 5.301811,-2.254674 z M 119.78559,10.678299 117.91019,6.3941368 117.36217,6.2197948 116.81415,6.0454499 92.491976,16.388822 c -23.105062,9.825776 -24.312064,10.353859 -24.120083,10.552995 0.111148,0.115294 1.889918,1.828939 3.952814,3.808101 l 3.750722,3.59848 22.792793,-9.69298 22.792808,-9.692982 z M 96.207833,22.281948 c -0.837054,-0.05129 -1.746555,-0.815516 -2.016896,-1.694742 -0.216203,-0.703119 -0.121076,-1.351883 0.305656,-2.084776 0.264852,-0.454869 0.429746,-0.531767 9.585387,-4.470311 l 9.31588,-4.007486 0.61542,0.121836 c 1.04361,0.206605 1.51466,0.574741 1.90258,1.486908 0.25976,0.610843 0.31338,0.956279 0.21646,1.394792 -0.27115,1.226939 0.0595,1.05116 -10.11371,5.377164 -8.475934,3.604276 -9.251827,3.910857 -9.810777,3.876611 z M 77.195584,90.966289 c -2.037049,0.393989 -3.699884,0.215982 -5.520345,-0.590958 -3.611927,-1.601038 -5.795356,-5.238347 -5.610182,-9.345838 0.07349,-1.630146 0.968795,-3.976826 1.995523,-5.230458 0.802879,-0.980314 2.019161,-1.906861 3.125032,-2.380607 1.072104,-0.459236 3.007073,-0.737665 4.327938,-0.622674 1.055831,0.09192 3.209315,0.825034 4.325313,1.472476 l 0.560153,0.32497 0.157019,-0.923454 c 0.183598,-1.079791 0.912918,-2.753036 1.608162,-3.689534 1.617896,-2.179319 4.527548,-3.522486 7.263966,-3.353225 1.202017,0.07434 3.727936,0.916127 4.812225,1.603702 l 0.454232,0.288044 0.296554,-1.264608 c 0.820808,-3.50018 3.301872,-5.914796 6.776356,-6.594853 2.17907,-0.426511 4.645,0.07979 6.58812,1.352671 l 0.94185,0.61698 0.0507,-0.747385 c 0.0629,-0.926715 0.97655,-3.179825 1.66564,-4.107744 2.28655,-3.079037 6.26626,-4.208662 9.95453,-2.825559 1.64657,0.617462 2.71016,1.332266 3.87254,2.602596 0.68562,0.749301 0.9233,1.142937 1.4877,2.463965 0.57088,1.337229 0.68519,1.762919 0.76185,2.847586 0.40264,5.696155 -3.84412,10.263523 -9.23532,9.932531 -1.29842,-0.07971 -3.11047,-0.711894 -4.32954,-1.510477 l -0.9143,-0.598931 -0.14912,0.853815 c -0.22595,1.293862 -1.08001,3.258552 -1.80939,4.16235 -0.76512,0.948093 -2.3462,2.196643 -3.27842,2.588925 -1.0235,0.430848 -2.73262,0.711803 -3.93124,0.646552 -1.23032,-0.06698 -3.23113,-0.737194 -4.385049,-1.468877 l -0.770798,-0.488737 -0.249457,1.048558 c -0.712052,2.99311 -2.59665,5.326742 -5.206604,6.447197 -0.962046,0.413536 -2.959763,0.70786 -4.081496,0.602302 -1.165615,-0.109691 -2.97489,-0.760543 -3.937205,-1.416338 -0.417351,-0.284411 -0.802598,-0.498502 -0.856102,-0.475749 -0.0535,0.02275 -0.128969,0.28103 -0.1677,0.573949 -0.226077,1.709672 -1.717105,4.282915 -3.172144,5.474503 -0.83623,0.684833 -2.585854,1.57079 -3.421042,1.732334 z m 0.670868,-5.278626 c 0.922497,-0.762564 1.539159,-1.998525 1.666517,-3.340188 0.09816,-1.034119 0.06456,-1.226052 -0.410087,-2.342166 -0.602274,-1.416231 -1.26863,-2.083452 -2.628342,-2.631752 -1.172052,-0.472628 -2.043657,-0.48849 -3.268609,-0.05949 -0.894895,0.31341 -1.141052,0.468047 -1.672173,1.050462 -1.338089,1.467315 -1.688891,3.10527 -1.052701,4.915222 0.455207,1.295044 1.028419,2.05362 1.999547,2.646129 0.981279,0.598702 1.807438,0.821533 2.830669,0.763474 1.06492,-0.06043 1.700107,-0.311396 2.535175,-1.001701 z m -3.237308,-1.839284 c -1.339015,-0.283881 -2.065058,-2.16765 -1.226089,-3.181168 0.918592,-1.109707 2.636636,-0.909071 3.198508,0.373529 0.30772,0.702332 0.254064,1.562302 -0.126032,2.021475 -0.43275,0.522777 -1.31562,0.898692 -1.846387,0.786164 z m 18.30236,-4.914063 c 1.4204,-1.791859 1.418837,-4.553138 -0.003,-6.170136 -0.741004,-0.842422 -1.461915,-1.342582 -2.363572,-1.639817 -1.267334,-0.417787 -1.729334,-0.387578 -3.139453,0.20528 -1.076227,0.452498 -1.367962,0.639519 -1.763902,1.130893 -1.471852,1.826624 -1.470407,4.501897 0.0035,6.305889 1.913624,2.342332 5.478068,2.424686 7.267011,0.167891 z m -4.215745,-1.361897 c -1.857474,-0.656477 -1.803391,-3.139995 0.07968,-3.658696 0.995893,-0.274325 1.719148,0.113771 2.164755,1.161596 0.30518,0.717624 0.311289,0.869058 0.06018,1.491804 -0.237107,0.58797 -0.379604,0.735677 -0.939528,0.973791 -0.545272,0.231888 -0.782625,0.237327 -1.365072,0.03151 z m 18.458251,-4.673677 c 0.68438,-0.790312 1.10296,-1.903254 1.17043,-3.111943 0.067,-1.199593 -0.73781,-3.012105 -1.67894,-3.781268 -0.74559,-0.609358 -2.12577,-1.169815 -3.05267,-1.239604 -0.8674,-0.06531 -2.40264,0.506607 -3.1651,1.179085 -0.834049,0.735622 -1.492631,2.181364 -1.560338,3.425285 -0.04567,0.837981 0.0204,1.157255 0.440096,2.127149 0.418208,0.965239 0.612755,1.24277 1.266182,1.801016 2.04333,1.745528 4.8714,1.573744 6.58034,-0.39972 z m -3.78,-1.221808 c -0.50696,-0.03332 -1.35337,-0.729838 -1.6045,-1.320382 -0.43956,-1.033601 0.16046,-2.209035 1.28586,-2.518998 1.58869,-0.437571 2.93315,1.175669 2.25818,2.70965 -0.24422,0.555036 -1.30271,1.17157 -1.93954,1.12973 z m 18.26784,-4.926178 c 1.19538,-1.420136 1.45328,-3.437568 0.67377,-5.270569 -0.3401,-0.799746 -0.55844,-1.096122 -1.22612,-1.664595 -1.41137,-1.201596 -2.98008,-1.493088 -4.69669,-0.872722 -0.88375,0.319381 -1.14938,0.487692 -1.66912,1.05764 -0.84515,0.926762 -1.23714,1.810404 -1.34427,3.030315 -0.12568,1.431015 0.19722,2.460692 1.11572,3.55788 1.08837,1.300105 2.8152,1.992977 4.37805,1.756638 0.85289,-0.12897 2.17681,-0.89154 2.76866,-1.594587 z m -3.90334,-1.244573 c -1.35943,-0.129602 -2.17409,-2.096041 -1.30382,-3.147328 1.13664,-1.373104 3.41635,-0.65423 3.48373,1.098533 0.0447,1.163183 -1.01563,2.159761 -2.17986,2.048774 z"
       id="path18" /><path
       style="fill:#ffffff;stroke-width:4.30315"
       d="m 80.543151,218.51192 c 9.762448,-16.79734 32.196169,-51.73548 39.879479,-62.10805 2.17188,-2.93208 5.55017,-6.91784 7.50729,-8.85725 3.17048,-3.14178 4.28547,-3.88293 10.22741,-6.79832 9.74244,-4.78009 67.58671,-29.61051 70.82467,-30.40243 1.41865,-0.34697 0.94118,-0.73206 13.76926,11.10534 l 8.51936,7.86142 -4.35173,2.02666 c -2.39345,1.11467 -19.86535,8.67858 -38.82646,16.80869 -18.9611,8.13012 -39.26372,16.90148 -45.11692,19.4919 -10.1928,4.51097 -10.78248,4.8431 -13.96448,7.86497 -5.83156,5.53812 -9.68936,14.49765 -10.24287,23.78855 l -0.31596,5.30356 -12.82436,5.47378 c -12.909255,5.51002 -25.467095,10.63903 -26.048528,10.63903 -0.172439,0 0.261289,-0.98903 0.963839,-2.19785 z"
       id="path19"
       transform="scale(0.26458333)" /><path
       style="fill:#ffffff;stroke-width:4.30315"
       d="m 216.77678,275.43737 c -3.32925,-1.91818 -8.5106,-3.85106 -12.15704,-4.53514 l -1.72408,-0.32343 -0.007,-3.07176 c -0.0247,-11.07686 -7.13318,-21.06256 -17.24724,-24.22807 -2.76482,-0.86534 -4.30999,-1.03478 -9.02136,-0.98928 l -5.68511,0.0549 -14.30733,-14.86607 c -15.40075,-16.00219 -17.79093,-18.77899 -19.41595,-22.55644 -1.9927,-4.63215 -0.50573,-12.39451 3.00635,-15.69394 0.70622,-0.66346 22.53774,-10.2128 53.56617,-23.43041 l 52.37412,-22.31054 2.4292,2.54196 c 1.33605,1.39807 2.42919,2.83322 2.42919,3.1892 0,0.35599 -1.4649,1.41704 -3.25532,2.35788 -7.08572,3.72344 -11.02375,11.06531 -10.54299,19.65583 0.15739,2.81237 0.59409,4.38071 2.39774,8.61097 2.19915,5.15788 2.21712,5.18238 6.45325,8.79137 2.33638,1.99049 6.66231,5.93248 9.61319,8.75997 10.65657,10.21098 20.20173,16.66607 28.64881,19.37431 1.39968,0.44875 2.70044,0.95629 2.89057,1.12786 0.19013,0.17157 -11.3659,5.29115 -25.68007,11.37682 -29.25857,12.43931 -40.61616,17.4109 -42.30883,18.51998 -0.63519,0.41619 -1.57576,1.70815 -2.09015,2.87103 -1.15377,2.60829 -0.8943,5.28374 0.81303,8.38332 1.76903,3.2116 3.09366,4.00168 6.68665,3.98822 2.50927,-0.009 3.92752,-0.38298 8.56002,-2.25485 12.28526,-4.96415 56.93153,-23.88549 219.67542,-93.09964 16.99073,-7.22608 31.00734,-13.13831 31.14802,-13.13831 0.14069,0 0.15435,0.36438 0.0304,0.80973 -0.12399,0.44535 -0.47088,2.92044 -0.77089,5.50019 l -0.54546,4.69046 -1.68949,0.69347 c -0.92922,0.38142 -13.87017,5.94247 -28.75767,12.35789 -34.90845,15.043 -212.92048,90.89287 -229.03843,97.59192 l -3.00758,1.25002 z"
       id="path20"
       transform="scale(0.26458333)" /><path
       style="fill:#ffffff;stroke-width:4.30315"
       d="m 83.749408,238.80127 -1.388112,-0.30716 1.15676,-0.77058 c 0.636218,-0.42382 2.40606,-1.32756 3.932983,-2.00831 6.629641,-2.95571 37.315071,-15.93086 37.675511,-15.93086 0.44994,0 6.51271,7.29612 6.51271,7.83759 0,0.1933 -2.03011,1.2967 -4.51136,2.45199 -9.42039,4.38621 -17.70537,7.18752 -25.0404,8.46664 -3.940414,0.68715 -15.658052,0.85373 -18.338092,0.26069 z"
       id="path21"
       transform="scale(0.26458333)" /><path
       style="fill:#ffffff;stroke-width:4.30315"
       d="m 117.60071,467.30891 c -6.76629,-1.13566 -14.69537,-4.74143 -25.075128,-11.40297 -12.920803,-8.29235 -18.314473,-11.14254 -28.840986,-15.24054 -9.865742,-3.84076 -20.068648,-6.49508 -29.907211,-7.78043 -3.053845,-0.39897 -6.304658,-0.93208 -7.224028,-1.18469 -1.650609,-0.45354 -1.678228,-0.50139 -2.201285,-3.81437 -0.6554,-4.15121 -1.661011,-13.55674 -2.46123,-23.01999 -0.904606,-10.6977 -0.769908,-34.05619 0.250812,-43.49417 2.890508,-26.72676 8.695258,-47.59863 21.554611,-77.5029 3.565213,-8.29086 13.544267,-27.15764 18.932507,-35.79451 0.307739,-0.49328 0.986002,-0.22384 3.143157,1.24862 3.576722,2.44145 8.737939,4.48254 15.142089,5.98819 4.517517,1.06209 6.113485,1.20839 13.014876,1.19305 12.436286,-0.0276 18.978466,-1.67932 40.752286,-10.2886 5.87209,-2.3218 10.8732,-4.22146 11.11357,-4.22146 0.24038,0 2.49272,2.06343 5.00522,4.58538 2.99004,3.0013 4.47699,4.823 4.30423,5.2732 -0.14516,0.3783 -3.2101,4.59228 -6.81097,9.36441 -17.85591,23.66392 -28.99046,44.16074 -36.97096,68.05727 -11.03409,33.04012 -13.318514,62.74853 -6.89776,89.70399 3.6003,15.11469 9.23109,28.08683 17.72875,40.84323 2.22697,3.34306 3.93731,6.36945 3.80075,6.72532 -0.13785,0.35923 -1.22132,0.7804 -2.43584,0.94688 -2.49372,0.3418 -2.84466,0.33083 -5.91746,-0.18491 z"
       id="path22"
       transform="scale(0.26458333)" /><path
       style="fill:#ffffff;stroke-width:4.30315"
       d="m 153.64905,282.82776 c 4.57562,-6.11684 12.61962,-15.78758 16.16328,-19.43199 l 4.16434,-4.28272 2.54487,0.003 c 4.0363,0.005 7.20222,2.37887 8.25462,6.19035 0.5448,1.97311 0.32499,3.77882 -0.6163,5.0629 -0.34037,0.46432 -4.33246,2.51385 -8.8713,4.55452 -8.02442,3.60777 -22.22985,9.63914 -22.70268,9.63914 -0.12913,0 0.3493,-0.78081 1.06317,-1.73514 z"
       id="path23"
       transform="scale(0.26458333)" /><path
       style="fill:#ffffff;stroke-width:4.30315"
       d="m 86.29836,494.58905 c -7.924328,-0.76247 -16.610342,-3.37237 -24.756928,-7.43874 -13.976017,-6.97612 -22.728663,-17.61822 -23.66619,-28.77504 -0.354421,-4.2177 0.576264,-6.93875 2.246287,-6.56748 17.189456,3.82146 26.063058,7.62916 42.702471,18.32379 13.244492,8.51263 24.76101,13.13905 35.09775,14.09948 l 3.63388,0.33764 -1.32036,1.30098 c -1.70341,1.67841 -8.77461,5.17241 -13.93688,6.88644 -2.5306,0.84024 -5.92987,1.52769 -9.095255,1.83937 -5.497742,0.54134 -5.209903,0.54151 -10.904775,-0.006 z"
       id="path24"
       transform="scale(0.26458333)" /><path
       style="fill:#ffffff;stroke-width:4.30315"
       d="m 280.3315,327.13828 c -4.89182,-1.03166 -9.73766,-4.72107 -12.15305,-9.25282 -4.1097,-7.71057 -3.14862,-15.57377 2.64163,-21.61289 3.14027,-3.27523 6.40816,-4.51725 11.91601,-4.5289 3.92302,-0.008 4.41287,0.10212 7.73303,1.74303 4.11045,2.03149 6.04734,4.11323 8.31143,8.93298 1.34439,2.86191 1.49678,3.60766 1.45684,7.12924 -0.0513,4.52683 -1.18807,8.08521 -3.58797,11.23169 -1.8671,2.44793 -5.41086,5.15083 -7.61939,5.81148 -2.51487,0.75227 -6.52684,1.00419 -8.69853,0.54619 z m 6.14173,-10.96405 c 2.65836,-1.21623 3.58308,-2.64946 3.76183,-5.83053 0.19456,-3.46221 -0.72147,-5.56776 -3.12728,-7.18827 -1.37998,-0.92953 -2.05555,-1.06397 -4.56842,-0.90907 -2.76652,0.17052 -3.05991,0.30073 -4.74271,2.10478 -1.59457,1.70947 -1.79377,2.18357 -1.79377,4.26931 0,2.84977 0.82071,4.89813 2.65183,6.61858 2.31681,2.17678 4.52695,2.44114 7.81852,0.9352 z"
       id="path25"
       transform="scale(0.26458333)" /><path
       style="fill:#ffffff;stroke-width:4.30315"
       d="m 334.84785,303.98324 c -13.61199,-2.8091 -19.39113,-18.71236 -10.86811,-29.90726 1.41108,-1.85344 6.87027,-4.71664 10.94153,-5.73854 4.45413,-1.118 10.39412,1.18469 14.89363,5.77366 5.73203,5.846 6.80567,13.79084 2.8701,21.23863 -3.36772,6.37319 -10.96688,10.05133 -17.83715,8.63351 z m 6.44949,-11.11881 c 1.32214,-0.67451 2.12417,-1.51864 2.74763,-2.8919 1.15487,-2.54375 1.11731,-3.76847 -0.20251,-6.60288 -1.51067,-3.24425 -3.0497,-4.35937 -6.01533,-4.35847 -4.62982,10e-4 -7.68789,2.79827 -7.68789,7.03124 0,6.0247 5.78637,9.56246 11.1581,6.82201 z"
       id="path26"
       transform="scale(0.26458333)" /><path
       style="fill:#ffffff;stroke-width:4.30315"
       d="m 387.05182,280.48428 c -5.2061,-1.72981 -8.80276,-4.95629 -11.18507,-10.03384 -4.64639,-9.90316 0.41369,-21.4021 10.80204,-24.54744 7.36659,-2.23042 16.66135,1.95287 20.2368,9.10797 2.96259,5.92867 2.95174,11.5306 -0.0332,17.13088 -3.85182,7.22674 -12.37796,10.81537 -19.82059,8.34243 z m 7.19105,-10.20952 c 5.22508,-2.37342 6.33287,-8.53851 2.22963,-12.40837 -2.50307,-2.3607 -6.06204,-2.58652 -9.33191,-0.59211 -1.61208,0.98327 -3.29993,4.02255 -3.31753,5.97383 -0.0192,2.1296 1.86149,5.15376 4.08009,6.56075 2.44005,1.54743 3.74726,1.6435 6.33972,0.4659 z"
       id="path27"
       transform="scale(0.26458333)" /><path
       style="fill:#ffffff;stroke-width:4.30315"
       d="m 442.34494,257.56323 c -5.23887,-1.72694 -9.82606,-5.63097 -11.98937,-10.20383 -2.12388,-4.48952 -2.03753,-11.1776 0.20096,-15.56541 2.69397,-5.28062 6.3828,-8.12057 12.34337,-9.50292 10.99602,-2.55015 21.91472,7.68151 20.81096,19.50146 -0.61175,6.55106 -4.27728,11.8235 -10.26103,14.75929 -3.22958,1.58452 -8.03781,2.02245 -11.10489,1.01141 z m 7.23074,-10.74112 c 2.82642,-1.4616 4.50921,-5.31737 3.67211,-8.41392 -0.67459,-2.49537 -1.73855,-3.79747 -3.90793,-4.78262 -6.1164,-2.77757 -12.1644,2.05822 -10.46541,8.36779 0.63283,2.35016 2.8924,4.9564 4.78994,5.52483 1.69671,0.50828 4.13831,0.22077 5.91129,-0.69608 z"
       id="path28"
       transform="scale(0.26458333)" /><path
       style="fill:#ffffff;stroke-width:4.30315"
       d="m 398.61942,173.32507 v -6.175 l 2.42919,-1.04613 c 1.33606,-0.57537 17.83724,-7.59006 36.66929,-15.5882 34.93638,-14.8378 46.38665,-19.57053 47.34846,-19.57053 0.34781,0 0.53247,0.86861 0.51644,2.42919 -0.0321,3.12819 -0.70541,9.5603 -1.03525,9.89014 -0.59527,0.59527 -79.61593,33.96449 -85.1184,35.9442 -0.74528,0.26814 -0.80973,-0.2002 -0.80973,-5.88367 z"
       id="path29"
       transform="scale(0.26458333)" /><path
       style="fill:#ffffff;stroke-width:4.30315"
       d="m 330.86864,206.48162 c 4.65716,-6.20677 10.89548,-13.434 12.90616,-14.95208 1.29993,-0.98145 4.02119,-2.54307 6.04724,-3.47025 4.5931,-2.10195 30.0854,-12.69451 30.55089,-12.69451 0.4335,0 -0.1592,10.73179 -0.61646,11.16199 -0.1866,0.17555 -9.70902,4.32121 -21.16094,9.21257 -11.45192,4.89137 -22.56858,9.6998 -24.70369,10.68541 -2.13511,0.9856 -3.98172,1.79201 -4.10358,1.79201 -0.12186,0 0.36431,-0.78081 1.08038,-1.73514 z"
       id="path30"
       transform="scale(0.26458333)" /><path
       style="fill:#ffffff;stroke-width:4.30315"
       d="m 292.328,201.49037 c -4.52805,-1.21966 -14.36502,-6.83611 -18.05232,-10.30703 l -1.49585,-1.40807 2.54085,-2.64441 c 4.92437,-5.12506 6.71281,-9.69771 6.67068,-17.05548 -0.0276,-4.82208 -0.77488,-8.49357 -2.66875,-13.11209 l -0.99981,-2.43821 1.50059,-0.69099 c 8.73283,-4.02129 186.70618,-79.301395 187.11206,-79.145645 0.8007,0.307256 3.8744,6.745627 3.99439,8.366907 l 0.10274,1.388112 -47.6585,20.391306 c -26.21218,11.21522 -63.17065,27.01204 -82.12995,35.10404 -18.95929,8.092 -37.19667,16.01062 -40.52752,17.59694 -5.74503,2.73608 -6.10745,2.99034 -7.05623,4.95027 -0.55009,1.13632 -1.00016,2.69597 -1.00016,3.46588 0,2.01743 1.10973,5.40879 2.33119,7.12418 1.38063,1.93892 4.61442,3.38717 6.59869,2.95524 3.29457,-0.71717 17.01346,-6.41196 116.91567,-48.53242 32.95063,-13.89255 60.13703,-25.17215 60.41421,-25.06579 0.74671,0.28655 3.60785,7.98422 3.20807,8.63108 -0.59867,0.96866 -7.70921,4.07605 -68.2394,29.8214 -56.7429,24.13448 -72.01472,30.71137 -77.41827,33.34055 -5.31715,2.58714 -7.53339,4.60914 -14.0641,12.83156 -6.1242,7.7106 -7.78151,9.45121 -10.97317,11.52477 -3.8764,2.51843 -7.79307,3.62597 -12.6908,3.58869 -2.19996,-0.0167 -5.0864,-0.3231 -6.41431,-0.68079 z"
       id="path31"
       transform="scale(0.26458333)" /><path
       style="fill:#ffffff;stroke-width:4.30315"
       d="m 258.69976,175.8097 c -2.94874,-0.8824 -5.30626,-4.57778 -4.73683,-7.42492 0.63619,-3.18095 3.63806,-5.39377 6.57074,-4.84359 2.87049,0.53851 5.75243,3.81111 5.75243,6.5322 0,1.85531 -1.81131,4.7045 -3.50031,5.50598 -1.66027,0.78785 -2.13377,0.81454 -4.08603,0.23033 z"
       id="path32"
       transform="scale(0.26458333)" /><path
       style="fill:#ffffff;stroke-width:4.30315"
       d="m 265.8234,138.22581 c -2.16314,-2.09605 -8.14938,-7.83914 -13.30274,-12.76243 -5.15337,-4.92329 -9.36976,-9.11426 -9.36976,-9.31328 0,-0.19902 0.62451,-0.62053 1.38779,-0.93669 1.29308,-0.53561 1.52203,-0.46419 3.35461,1.04638 1.08175,0.89168 5.19417,4.69415 9.13872,8.44995 3.94455,3.7558 9.20203,8.70961 11.68328,11.00846 2.48125,2.29885 4.51136,4.31308 4.51136,4.47606 0,0.23655 -2.98575,1.87475 -3.3703,1.8492 -0.055,-0.004 -1.86982,-1.7216 -4.03296,-3.81765 z"
       id="path33"
       transform="scale(0.26458333)" /><path
       style="fill:#ffffff;stroke-width:4.30315"
       d="m 273.38407,115.84478 c -7.84843,-7.54344 -14.33747,-13.8893 -14.42009,-14.1019 -0.29103,-0.74896 10.20795,-5.303355 113.29342,-49.146004 l 69.18632,-29.425215 1.99253,0.588323 1.99253,0.588324 6.95223,15.86217 c 3.82372,8.724194 6.77365,16.031759 6.5554,16.239034 -0.21826,0.207275 -38.70872,16.660565 -85.53435,36.562867 -46.82564,19.902301 -85.27491,36.267391 -85.44282,36.366871 -0.16791,0.0995 -6.72674,-5.99103 -14.57517,-13.53447 z m 95.956,-32.952429 c 8.42469,-3.089109 57.75178,-24.193734 63.64061,-27.228667 2.22979,-1.149168 4.45756,-2.602235 4.9506,-3.229039 1.88779,-2.399941 1.63271,-7.11088 -0.55942,-10.331835 -1.45888,-2.143551 -2.94132,-3.10404 -5.99993,-3.887427 l -2.64434,-0.67728 -28.81953,12.401443 c -44.11661,18.983995 -42.79457,18.33116 -43.90175,21.679028 -1.46199,4.420752 0.15242,9.183007 3.86801,11.409964 2.58733,1.550729 4.95819,1.516619 9.46575,-0.136187 z"
       id="path34"
       transform="scale(0.26458333)" /></g></svg>
