<?xml version="1.0" encoding="UTF-8" standalone="no"?>
<!-- Created with Inkscape (http://www.inkscape.org/) -->

<svg
   width="512"
   height="512"
   viewBox="0 0 512 512"
   version="1.1"
   id="svg1"
   xml:space="preserve"
   xmlns="http://www.w3.org/2000/svg"
   xmlns:svg="http://www.w3.org/2000/svg"><defs
     id="defs1" /><path
     style="fill:none;stroke:#1a1a1a;stroke-width:27.7;stroke-linecap:round;stroke-dasharray:none"
     d="m -326.79048,-58.218333 c -11.47044,5.688402 -11.86839,16.43316 -12.26635,27.177919 0,0 35.81587,-1.193862 35.81587,-1.193862 8.64174,7.368007 17.28347,14.736012 21.53399,20.600879 4.25052,5.8648665 4.10983,10.226417 -0.0408,12.6886377 -4.15067,2.4622207 -12.31099,3.0250014 -18.07964,7.1053187 -5.76865,4.0803176 -9.14534,11.6778576 -12.52209,19.2755496 0,0 -36.72217,3.376752 -36.72217,3.376752 -3.23605,10.130255 -6.47211,20.260512 -23.49687,51.49599 -17.02477,31.235479 -47.83702,83.574079 -71.33374,143.723159 -23.49673,60.14907 -39.67667,128.10484 -49.80697,164.40497 -10.1303,36.30013 -14.21046,40.94307 -14.21042,45.7972 4e-5,4.85413 4.0802,9.91916 10.76345,14.98434 6.68325,5.06518 15.96913,10.1302 27.0844,13.29592 11.11527,3.16572 24.05923,4.43198 60.28956,5.48722 36.23033,1.05524 95.74439,1.89941 126.06482,2.32151 30.32043,0.42209 31.44599,0.42209 31.93843,-2.46228 0.49244,-2.88436 0.35175,-8.65287 0.21105,-12.24068 -0.1407,-3.58781 -0.2814,-4.99476 -1.75876,-7.45701 -1.47735,-2.46225 -4.29126,-5.97963 -11.81872,-9.56747 -7.52747,-3.58783 -19.76795,-7.24591 -25.46621,-8.93428 -5.69826,-1.68838 -4.85409,-1.40699 -0.84412,-6.89432 4.00996,-5.48733 11.18542,-16.74295 17.30583,-23.77788 6.12041,-7.03492 11.18544,-9.84883 12.38135,-20.19031 1.1959,-10.34148 -1.47731,-28.20977 1.61814,-41.99827 3.09544,-13.7885 11.95924,-23.49647 15.82842,-39.04381 3.86918,-15.54734 2.74362,-36.93301 3.65819,-48.89236 0.91457,-11.95936 3.86917,-14.49187 9.07507,-15.75815 5.2059,-1.26628 12.66274,-1.26628 20.11974,-1.26628 6.7535,-13.22561 13.50701,-26.45123 21.17513,-26.24004 7.66813,0.21118 16.25053,13.85861 24.48144,20.61211 8.23091,6.75351 16.10984,6.61281 23.98893,6.47211 12.80352,-13.7884 25.60703,-27.57681 37.21472,-28.42087 11.607691,-0.84407 22.019137,11.25572 54.59127,15.75803 32.572133,4.5023 87.302558,1.40701 115.231121,-0.35172 27.928563,-1.75873 29.054125,-2.18082 30.179709,-2.60291 0,0 0,-23.63727 0,-23.63727 0,0 -8.019786,-5.90931 -8.019786,-5.90931 0,0 1.688376,-59.51525 1.688376,-59.51525 2.954658,-8.72328 5.909315,-17.44655 16.88395,-21.24539 10.97463,-3.79883 29.96848,-2.67327 40.38015,-3.65819 10.41167,-0.98492 12.24071,-4.08021 14.06978,-7.175566 0,0 11.39654,0.422094 11.39654,0.422094 0,0 0,-40.943116 0,-40.943116 0,0 32.50124,-1.688376 32.50124,-1.688376 0,0 -0.4221,-15.617478 -0.4221,-15.617478 0,0 64.58038,-0.844188 64.58038,-0.844188 7.59769,-15.195383 15.19539,-30.3907677 23.28561,-30.601666 8.09022,-0.2108982 16.67262,14.562093 21.59707,22.08944 4.92444,7.527346 6.1907,7.808736 7.45698,8.090132 0,0 18.57213,-1.266282 18.57213,-1.266282 0,0 18.15004,-40.0989279 18.15004,-40.0989279 144.50845,-1.4030818 289.01691,-2.8061636 361.73933,-3.6013424 72.72241,-0.7951788 73.65876,-0.9824479 74.59512,-1.1697204 0,0 0,-24.7199673 0,-24.7199673 0,0 19.10179,-19.101793 19.10179,-19.101793 0,0 -5.05636,-148.319803 -5.05636,-148.319803 0,0 -103.37441,2.80909 -103.37441,2.80909 -7.4909,0.18727 -14.9818,0.37454 -19.66363,3.37096 -4.68183,2.99642 -6.55452,8.80175 -19.47656,11.70447 -12.92204,2.90272 -36.89243,2.90272 -60.86331,2.90272 0,0 -15.16907,11.23635 -15.16907,11.23635 0,0 -749.46447,1.68545 -749.46447,1.68545 0,0 -15.16907,21.91088 -15.16907,21.91088 0,0 -35.3945,0 -35.3945,0 0,0 -20.78725,35.3945 -20.78725,35.3945 0,0 -2.80908,19.101797 -2.80908,19.101797 0,0 -29.77633,8.427261 -29.77633,8.427261 0,0 -6.17999,15.730889 -6.17999,15.730889 -22.54292,0.632044 -45.08585,1.264089 -56.55629,6.95249 z"
     id="path675"
     transform="matrix(0.41653474,-0.16239992,0.16239992,0.41653474,160.34562,229.81296)" /><ellipse
     style="fill:none;stroke:#1a1a1a;stroke-width:12.3839;stroke-linecap:round;stroke-dasharray:none"
     id="path676"
     cx="192.50446"
     cy="243.47543"
     rx="18.084515"
     ry="17.833342"
     transform="rotate(-21.299977)" /><path
     style="fill:none;stroke:#1a1a1a;stroke-width:21.4;stroke-linecap:round;stroke-dasharray:none"
     d="m 241.5815,-59.552649 c 27.71633,-0.74909 55.43265,-1.49818 83.14898,-2.24727"
     id="path677"
     transform="matrix(0.41653474,-0.16239992,0.16239992,0.41653474,160.34562,229.81296)" /><path
     style="fill:none;stroke:#1a1a1a;stroke-width:21.4;stroke-linecap:round;stroke-dasharray:none"
     d="m -151.69071,-55.058109 c -5.61817,23.596332 -11.23635,47.1926655 -12.17267,70.227404 -0.93633,23.034739 2.80905,45.506989 4.86905,57.679719 2.06,12.17273 2.43454,14.045417 2.80908,15.918142 0,0 325.85412,-2.24727 325.85412,-2.24727 4.11999,-26.218147 8.23999,-52.436295 8.23995,-76.5946661 -5e-5,-24.1583709 -4.11996,-46.2560819 -7.11633,-57.3051579 -2.99638,-11.049076 -4.86907,-11.049076 -58.43005,-10.487247 -53.560986,0.561828 -158.806017,1.685441 -264.05315,2.809076 z"
     id="path678"
     transform="matrix(0.41653474,-0.16239992,0.16239992,0.41653474,160.34562,229.81296)" /><path
     style="fill:none;stroke:#1a1a1a;stroke-width:21.4;stroke-linecap:round;stroke-dasharray:none"
     d="m -64.047188,-52.249022 c 6.367264,7.116354 12.734528,14.232708 50.845177,16.854504 38.110648,2.621797 107.961886,0.749109 177.814521,-1.123616"
     id="path679"
     transform="matrix(0.41653474,-0.16239992,0.16239992,0.41653474,160.34562,229.81296)" /><path
     style="fill:none;stroke:#1a1a1a;stroke-width:21.4;stroke-linecap:round;stroke-dasharray:none"
     d="M -58.990831,45.507213 C -51.499932,37.267224 -44.009033,29.027234 -5.7111194,25.281792 32.586794,21.53635 101.68896,22.285425 170.7925,23.034515"
     id="path680"
     transform="matrix(0.41653474,-0.16239992,0.16239992,0.41653474,160.34562,229.81296)" /><path
     style="fill:none;stroke:#1a1a1a;stroke-width:21.4;stroke-linecap:round;stroke-dasharray:none"
     d="m -216.11212,156.52238 c -41.31555,-7.15077 -82.6311,-14.30154 -120.37161,-1.85358 -37.74051,12.44795 -71.90461,44.49335 -106.06939,76.53939"
     id="path681"
     transform="matrix(0.41653474,-0.16239992,0.16239992,0.41653474,160.34562,229.81296)" /><path
     style="fill:none;stroke:#1a1a1a;stroke-width:21.4;stroke-linecap:round;stroke-dasharray:none"
     d="m -475.12885,362.30561 c -2.91328,19.5984 -5.82655,39.19681 23.30682,49.92298 29.13338,10.72617 90.31095,12.58004 151.48975,14.43394"
     id="path682"
     transform="matrix(0.41653474,-0.16239992,0.16239992,0.41653474,160.34562,229.81296)" /><path
     style="fill:none;stroke:#1a1a1a;stroke-width:21.4;stroke-linecap:round;stroke-dasharray:none"
     d="m -185.96157,-134.83619 c -0.37455,11.79817 -0.74909,23.59634 -0.56181,29.21451 0.18728,5.61816 0.93635,5.05636 46.44447,4.58817 45.508113,-0.46818 135.7716429,-0.84272 186.709874,-1.02999 50.938231,-0.18727 62.548896,-0.18727 73.504436,3.1837 10.95554,3.370971 21.25532,10.112643 31.55531,16.854453"
     id="path683"
     transform="matrix(0.41653474,-0.16239992,0.16239992,0.41653474,160.34562,229.81296)" /><path
     style="fill:none;stroke:#1a1a1a;stroke-width:21.4;stroke-linecap:round;stroke-dasharray:none"
     d="M 807.89348,-43.82176 C 661.4464,-44.196305 514.99932,-44.57085 368.55224,-44.945395"
     id="path684"
     transform="matrix(0.41653474,-0.16239992,0.16239992,0.41653474,160.34562,229.81296)" /><path
     style="fill:none;stroke:#1a1a1a;stroke-width:21.4;stroke-linecap:round;stroke-dasharray:none"
     d="m -357.31589,75.283537 c 56.55629,0.374545 113.11258,0.74909 169.66886,1.123635"
     id="path685"
     transform="matrix(0.41653474,-0.16239992,0.16239992,0.41653474,160.34562,229.81296)" /><path
     style="fill:none;stroke:#1a1a1a;stroke-width:21.4;stroke-linecap:round;stroke-dasharray:none"
     d="m -241.53707,-70.315891 c 1.32422,8.474984 2.64843,16.949969 8.27645,22.246856 5.62802,5.296887 15.55944,7.41559 21.38601,8.541175 5.82657,1.125586 7.54802,1.258005 9.2695,1.390427 0,0 0,31.3839293 0,31.3839293 -2.38359,11.2558396 -4.76718,22.5116787 -12.18292,30.6556597 -7.41573,8.143981 -19.86312,13.175905 -40.52118,15.625703 -20.65807,2.449799 -49.52541,2.31738 -78.39333,2.184958"
     id="path686"
     transform="matrix(0.41653474,-0.16239992,0.16239992,0.41653474,160.34562,229.81296)" /><path
     style="fill:none;stroke:#1a1a1a;stroke-width:21.4;stroke-linecap:round;stroke-dasharray:none"
     d="m 45.685466,121.1658 c 0.662108,20.26051 1.324217,40.52102 1.589059,50.32021 0.264842,9.7992 0.132423,9.13711 1e-6,8.475 -5.296866,5.42929 -10.59373,10.85857 -23.571258,16.7514 -12.977529,5.89283 -33.6348911,12.24894 -54.292667,18.60518"
     id="path687"
     transform="matrix(0.41653474,-0.16239992,0.16239992,0.41653474,160.34562,229.81296)" /><path
     style="fill:none;stroke:#1a1a1a;stroke-width:21.4;stroke-linecap:round;stroke-dasharray:none"
     d="m 44.493671,119.17948 c -25.292533,0.13242 -50.5850665,0.26484 -69.653911,0.33105 -19.068845,0.0662 -31.913487,0.0662 -43.434272,0.66212 -11.520785,0.59591 -21.717047,1.78768 -29.794828,8.73995 -8.07778,6.95226 -14.03663,19.66448 -10.9246,33.50269 3.11202,13.83821 15.294573,28.80156 27.477366,43.76521"
     id="path688"
     transform="matrix(0.41653474,-0.16239992,0.16239992,0.41653474,160.34562,229.81296)" /><path
     style="fill:none;stroke:#1a1a1a;stroke-width:21.4;stroke-linecap:round;stroke-dasharray:none"
     d="m -27.808545,117.19315 c -2.913278,7.54804 -5.826553,15.09607 -7.614252,22.31312 -1.787698,7.21705 -2.449792,14.10283 -0.264786,21.78337 2.185007,7.68054 7.216932,16.15536 9.070819,20.72391 1.853888,4.56855 0.529701,5.23065 -6.952258,2.44973 -7.48196,-2.78091 -21.121119,-9.0046 -31.317651,-19.20121 -10.196533,-10.19661 -16.9499,-24.36544 -23.703405,-38.53456"
     id="path689"
     transform="matrix(0.41653474,-0.16239992,0.16239992,0.41653474,160.34562,229.81296)" /><path
     style="fill:none;stroke:#1a1a1a;stroke-width:21.4;stroke-linecap:round;stroke-dasharray:none"
     d="m -114.04894,160.67979 c -6.55454,1.68545 -13.10907,3.37091 -20.6937,2.76224 -7.58462,-0.60866 -16.19898,-3.51133 -24.62633,-7.06955 -8.42734,-3.55822 -16.66716,-7.77177 -26.82682,-7.25672 -10.15965,0.51506 -22.23848,5.75858 -34.3645,15.26279 -12.12601,9.50422 -24.29848,23.26848 -32.21078,36.65859 -7.9123,13.39011 -11.56404,26.40529 -12.96857,37.73537 -1.40454,11.33008 -0.56183,20.97442 -6.55467,31.32133 -5.99285,10.34692 -18.82076,21.39577 -24.71984,36.84595 -5.89907,15.45018 -4.86909,35.30067 -4.40091,46.63068 0.46818,11.33001 0.37455,14.13905 -4.44782,18.68047 -4.82236,4.54142 -14.37306,10.81492 -19.19533,18.72727 -4.82227,7.91236 -4.9159,17.46307 -5.00954,27.01397"
     id="path690"
     transform="matrix(0.41653474,-0.16239992,0.16239992,0.41653474,160.34562,229.81296)" /><path
     style="fill:#ffffff;stroke:none;stroke-width:12.0229;stroke-linecap:round;stroke-dasharray:none"
     d="m 33.158782,469.05237 c -3.142273,-1.25372 -4.697129,-3.68206 -6.253533,-9.76661 -0.769753,-3.00925 -1.41506,-4.2778 -2.748102,-5.40226 -1.693727,-1.42871 -1.763956,-1.67844 -2.527893,-8.98908 -1.037386,-9.92746 -2.370989,-27.49716 -2.832705,-37.31976 l -0.370842,-7.88934 4.240962,-8.68428 c 15.300941,-31.33194 25.883234,-42.30717 47.697589,-49.46867 5.762949,-1.89194 16.697349,-4.64927 17.047699,-4.29892 0.123369,0.12336 -0.389553,1.79067 -1.139821,3.70513 -4.976579,12.69869 -5.370784,23.32035 -1.40333,37.81199 1.489035,5.4389 1.643243,4.07435 -1.990295,17.61164 -2.548477,9.49473 -1.655473,16.50548 3.778818,29.66657 l 2.274462,5.50842 -2.608052,5.44702 c -3.096412,6.46696 -3.719558,10.40798 -2.460261,15.55973 0.45319,1.854 0.991681,3.76427 1.196643,4.24505 0.549126,1.28806 -24.190164,9.23038 -36.551165,11.7344 -6.01951,1.2194 -13.015481,1.46049 -15.350174,0.52897 z"
     id="path691" /><path
     style="fill:#ffffff;stroke:none;stroke-width:6.01145;stroke-linecap:round;stroke-dasharray:none"
     d="m 32.473631,493.22997 c -1.220227,-0.13925 -3.24277,-0.59675 -4.494539,-1.01667 l -2.275944,-0.76349 -0.323797,-6.32045 c -0.178088,-3.47624 -0.402073,-6.99826 -0.497744,-7.8267 l -0.173948,-1.50625 0.919108,0.61463 c 1.490211,0.99653 4.148313,2.14871 6.256373,2.71187 3.112163,0.8314 10.777974,0.70744 16.226373,-0.2624 10.346946,-1.8418 28.665846,-7.36394 50.816814,-15.31847 l 4.681453,-1.68114 1.21763,0.60856 c 1.40093,0.70018 2.59932,0.73833 10.92073,0.34764 5.38951,-0.25303 8.13461,0.0199 8.13461,0.80872 0,0.19322 -1.54851,0.92781 -3.44114,1.63242 -66.11229,24.61333 -73.514635,27.18205 -80.704626,28.00571 -2.868579,0.32862 -4.135802,0.32269 -7.261353,-0.034 z"
     id="path692" /><path
     style="fill:#ffffff;stroke:none;stroke-width:6.01145;stroke-linecap:round;stroke-dasharray:none"
     d="m 94.571744,453.58564 c -0.891268,-2.15261 -1.376978,-4.67026 -1.25886,-6.52526 0.108458,-1.70331 0.345739,-2.32241 2.456833,-6.41023 2.864652,-5.54699 3.134437,-6.29244 3.142764,-8.68388 0.0085,-2.43575 -0.39624,-3.77944 -2.953446,-9.80554 -3.34457,-7.88154 -4.498922,-12.15247 -4.467346,-16.52854 0.02198,-3.04615 0.419937,-5.06162 2.038932,-10.32628 1.840203,-5.98397 2.255104,-8.04537 2.257285,-11.2151 0.0022,-3.16761 -0.358899,-5.19762 -1.829485,-10.28552 -2.66015,-9.20353 -2.456401,-16.92984 0.695284,-26.36577 3.61744,-10.83036 9.334405,-18.79435 15.113335,-21.05356 1.51681,-0.59298 2.06675,-0.63359 9.1978,-0.67925 10.18607,-0.0652 13.51245,-0.68308 18.18496,-3.37775 l 2.17316,-1.25328 2.60656,2.17854 c 1.43361,1.19819 3.14188,2.54335 3.79615,2.98924 0.65428,0.44588 1.18959,0.85064 1.18959,0.89945 0,0.0488 -0.5486,0.46621 -1.21911,0.92753 -3.73531,2.56996 -6.85575,7.21068 -10.16734,15.12087 l -1.08409,2.58948 -1.21801,0.18265 c -1.75033,0.26248 -2.57747,0.0277 -6.67037,-1.89336 -6.33512,-2.97346 -6.91473,-3.1526 -10.26013,-3.17106 -2.67034,-0.0147 -3.0991,0.0572 -4.52952,0.75963 -1.87381,0.92021 -3.84042,2.92937 -4.88494,4.99065 -0.87993,1.73645 -2.01027,5.98345 -2.27174,8.53555 l -0.1828,1.78429 -2.8439,1.41825 c -3.500335,1.74561 -5.746318,3.68197 -6.829701,5.88818 -0.740068,1.50709 -0.78901,1.82848 -0.779585,5.1194 0.01123,3.91936 -0.467699,2.145 4.359381,16.151 2.726635,7.91146 3.190975,11.13415 2.509595,17.41759 -0.42148,3.88671 -0.35791,9.80122 0.13281,12.35704 0.56297,2.93208 1.46939,5.6379 3.95327,11.80111 1.12079,2.781 2.11948,5.44478 2.21931,5.91953 0.13576,0.64561 -0.13573,1.71123 -1.07717,4.22795 -1.29198,3.45384 -2.49419,7.55745 -3.54118,12.08752 -0.67152,2.90552 -0.17767,2.48245 -4.84516,4.15078 l -2.739988,0.97938 z"
     id="path693" /><path
     style="fill:#ffffff;stroke:none;stroke-width:6.01145;stroke-linecap:round;stroke-dasharray:none"
     d="m 19.21294,374.73223 c 0.07882,-0.54075 0.219773,-2.24727 0.313233,-3.79226 0.26769,-4.42523 1.442512,-15.84794 2.513549,-24.43906 1.124519,-9.02011 2.927297,-22.39509 3.031321,-22.48966 0.03866,-0.0351 16.187425,-6.21521 35.886149,-13.73348 19.698725,-7.51827 36.124075,-13.89154 36.500777,-14.16282 1.704293,-1.22733 2.42011,-3.62235 1.718251,-5.749 -0.684951,-2.07542 -3.502229,-3.61145 -5.608011,-3.05759 -0.554831,0.14593 -15.917078,5.96844 -34.138326,12.93892 -18.221245,6.97048 -33.155398,12.64457 -33.187004,12.60909 -0.03161,-0.0355 0.0097,-1.54981 0.09172,-3.36519 l 0.149186,-3.30067 h 1.481505 c 1.217586,0 2.899518,-0.55213 9.441487,-3.09937 21.493802,-8.369 30.955198,-13.25915 36.632367,-18.93353 2.905121,-2.90369 4.606374,-5.54475 5.661454,-8.78896 0.97841,-3.00845 1.183917,-8.22812 0.514155,-13.05914 -0.446706,-3.22214 -0.703774,-4.03227 -3.858624,-12.16029 -1.85902,-4.7895 -3.461301,-8.85153 -3.56063,-9.02674 -0.126926,-0.2239 -1.137332,-0.0369 -3.400035,0.62931 -4.014315,1.18191 -8.626932,1.89798 -10.640339,1.65184 -1.905573,-0.23296 -3.188744,-1.33733 -5.012035,-4.31363 -0.722214,-1.17892 -1.486524,-2.35001 -1.698473,-2.60242 -0.34122,-0.40635 -0.174621,-0.61366 1.45452,-1.80986 1.011935,-0.74301 1.839882,-1.40083 1.839882,-1.46181 0,-0.061 -0.574034,-2.59638 -1.275629,-5.63422 l -1.275629,-5.52335 1.051158,-6.66366 1.051157,-6.66366 1.102261,-0.44104 c 0.606243,-0.24257 1.130121,-0.40414 1.164176,-0.35906 0.03405,0.0451 0.791142,2.10453 1.682421,4.57653 2.09259,5.80388 3.049694,7.61864 4.581989,8.68788 1.518514,1.05963 3.888881,1.27959 6.521445,0.60516 0.981534,-0.25146 13.803627,-5.24661 28.493538,-11.10035 29.666734,-11.8218 74.991344,-29.71924 82.254184,-32.47991 6.33838,-2.40927 10.42977,-3.67793 13.13857,-4.07401 2.69181,-0.39359 6.68452,-0.0568 11.99918,1.01214 4.25482,0.85577 5.44499,0.86776 6.86592,0.0692 3.61766,-2.03324 3.02055,-7.61566 -0.95168,-8.8972 -1.65552,-0.53411 -8.59451,-1.70805 -12.01621,-2.03291 -6.76909,-0.64265 -11.20656,0.32484 -24.01746,5.23645 -8.57532,3.28771 -54.06795,21.25486 -81.134887,32.04393 -13.724228,5.47057 -25.101031,9.94582 -25.281785,9.94501 -0.180756,-8.2e-4 -0.909607,-1.64112 -1.619669,-3.64512 l -1.291023,-3.64363 1.291023,-0.47449 c 0.710062,-0.26097 1.396566,-0.56547 1.525565,-0.67665 0.128999,-0.11119 0.839777,-2.74988 1.579508,-5.86376 0.739731,-3.11387 1.392638,-5.69973 1.45091,-5.74635 0.05827,-0.0466 24.649712,-9.7119 54.647648,-21.47842 l 54.5417,-21.39366 h 31.71307 31.71307 l -0.66823,2.59841 c -0.59456,2.31195 -0.65447,3.04745 -0.54343,6.67158 0.098,3.19877 0.26011,4.49531 0.75511,6.03954 2.1235,6.62467 6.3767,11.61624 12.44185,14.6018 3.91549,1.92739 6.31953,2.47217 10.87717,2.46486 2.92978,-0.005 4.28411,-0.13785 5.95484,-0.5855 9.59122,-2.56983 16.7233,-10.39917 18.22809,-20.01015 0.41992,-2.68199 0.16325,-7.41498 -0.53603,-9.8844 l -0.53694,-1.89614 h 5.75096 c 5.3711,0 5.73687,0.0325 5.53765,0.49159 -0.77674,1.79002 -0.41991,3.95881 0.88989,5.40859 1.12726,1.24773 2.52542,1.81096 4.00129,1.61184 0.56137,-0.0757 5.31856,-1.79707 10.57155,-3.82519 l 9.5509,-3.68749 9.8318,0.0135 9.83181,0.0135 -21.77043,8.71775 c -11.97373,4.79476 -21.88557,8.82897 -22.02628,8.96491 -0.1407,0.13593 -0.48732,4.58162 -0.77028,9.8793 -0.28293,5.29768 -0.56842,9.77388 -0.6344,9.94713 -0.066,0.17324 -0.44097,0.39555 -0.83326,0.494 -0.58202,0.14608 -1.35646,-0.25733 -4.20896,-2.19252 -4.13631,-2.80615 -5.53867,-3.54779 -8.28687,-4.38253 -3.73,-1.13296 -7.23301,-0.52397 -9.97179,1.73356 -2.84425,2.34448 -4.85933,7.94493 -5.58095,15.51102 -0.075,0.78634 -0.39317,0.93224 -14.49576,6.64726 -7.93048,3.2138 -14.48673,5.91094 -14.56944,5.99365 -0.0827,0.0827 0.43306,1.53258 1.14614,3.22195 0.71307,1.68937 1.2965,3.21276 1.2965,3.38531 0,0.17255 -0.23406,0.31372 -0.52013,0.31372 -0.40427,0 -0.63418,-0.42232 -1.03222,-1.89613 -3.29289,-12.19251 -9.88847,-26.21229 -16.61092,-35.30873 -2.65448,-3.5919 -4.52545,-4.65105 -8.21384,-4.64983 -2.76544,9.2e-4 -5.81784,0.82437 -12.25391,3.30575 -8.15579,3.14441 -124.133422,49.81588 -124.385313,50.05487 -0.40909,0.38815 2.219252,17.6969 3.758556,24.7517 2.494025,11.43039 6.284377,20.69664 13.550487,33.12683 5.28942,9.04863 7.04586,11.66169 7.82001,11.63385 0.36485,-0.0131 24.55466,-9.53916 53.75512,-21.16897 29.20046,-11.62981 53.27065,-21.21609 53.48931,-21.30285 0.21867,-0.0867 -0.008,0.43134 -0.50308,1.15132 -1.96764,2.85986 -3.06914,7.71295 -2.75718,12.14786 0.14258,2.02687 0.70298,3.78385 5.32471,16.6939 l 5.16535,14.42862 2.20653,0.59423 c 1.92687,0.51892 2.23939,0.69282 2.4658,1.37205 0.1426,0.42779 0.2145,0.81477 0.15978,0.85994 -0.51021,0.4212 -22.94209,10.55728 -23.36403,10.55728 -0.14035,0 0.82136,-1.13127 2.13715,-2.51394 4.24963,-4.46563 7.49865,-10.0949 7.72598,-13.38605 0.11705,-1.69452 0.06,-1.85175 -4.9938,-13.76453 -2.8117,-6.62773 -5.41392,-12.57396 -5.7827,-13.21384 -0.36878,-0.63987 -1.26372,-1.55634 -1.98876,-2.03658 -2.4251,-1.60632 -2.44914,-1.60025 -18.13755,4.58374 -11.72515,4.62175 -14.06315,5.45513 -15.27656,5.4453 -1.62622,-0.0132 -2.36265,0.29696 -3.76414,1.58519 -0.68129,0.62623 -2.66513,1.57691 -6.4609,3.09612 -6.71674,2.6883 -12.78685,5.55547 -15.18994,7.17484 -4.19508,2.82694 -6.99405,6.83982 -8.15478,11.69151 -0.49099,2.05227 -0.57106,3.05711 -0.45581,5.72007 0.0769,1.77675 0.27417,3.5691 0.43838,3.983 0.28139,0.70927 0.21914,0.8035 -1.08267,1.63888 -3.45821,2.21912 -5.47687,2.57953 -14.8824,2.65709 -6.90665,0.057 -7.96038,0.12769 -9.94707,0.66784 -4.29712,1.16831 -7.45048,3.0766 -10.990422,6.65101 l -1.97616,1.99539 -3.922924,0.77887 c -18.924298,3.75729 -30.72531,7.56022 -40.292212,12.98437 -11.619053,6.58766 -21.041611,17.01232 -30.182986,33.39301 -1.444583,2.58859 -1.847902,3.14273 -1.737855,2.38772 z"
     id="path694" /><path
     style="fill:#ffffff;stroke:none;stroke-width:6.01145;stroke-linecap:round;stroke-dasharray:none"
     d="m 41.179113,289.40293 c 0.3888,-3.67419 0.605601,-4.01569 4.543292,-7.15656 3.147105,-2.51026 4.340153,-4.78436 4.309708,-8.21486 -0.0368,-4.14613 -2.699215,-7.40215 -8.271697,-10.11592 -3.143506,-1.53087 -12.188046,-4.91775 -13.13268,-4.91775 -0.276917,0 -2.118713,0.69658 -4.092881,1.54796 -1.974168,0.85138 -3.709207,1.50802 -3.855643,1.45921 -0.426273,-0.14209 3.203974,-2.32087 7.073816,-4.24551 1.962562,-0.97606 6.317689,-2.94845 9.678059,-4.38307 l 6.109765,-2.60842 v -4.31234 c 0,-2.3718 0.09481,-4.30988 0.210681,-4.30685 0.115875,0.003 0.900119,1.10911 1.742764,2.45795 3.570712,5.71574 7.081678,8.10773 12.667101,8.62999 1.845716,0.17259 6.18893,-0.14371 7.992606,-0.58205 0.496599,-0.12069 0.763428,0.39445 2.298578,4.43761 1.956824,5.15374 2.491062,8.0034 2.28699,12.19892 -0.09381,1.92863 -0.290884,2.85777 -0.876638,4.13301 -0.950657,2.06966 -3.982895,5.13834 -7.079835,7.16491 -3.811841,2.4944 -13.138651,7.01095 -20.438177,9.89728 l -1.336385,0.52843 z"
     id="path695" /><path
     style="fill:#ffffff;stroke:none;stroke-width:6.01145;stroke-linecap:round;stroke-dasharray:none"
     d="M 111.12928,285.05035 C 100.0765,266.11775 97.07632,257.92017 94.287382,239.03224 l -0.646025,-4.37517 14.593423,-5.85594 c 13.91689,-5.58448 14.63409,-5.83941 15.47083,-5.49929 3.84423,1.56264 4.84767,1.80035 8.1414,1.92863 4.1042,0.15986 7.20459,-0.23786 12.68053,-1.62664 11.39461,-2.88984 29.29169,-9.72619 67.9554,-25.95772 6.47551,-2.7185 11.86106,-4.94273 11.96789,-4.94273 0.48556,0 6.35723,11.93828 7.11529,14.4668 0.1492,0.49764 -0.20773,0.70237 -3.12467,1.79226 -17.25931,6.44876 -36.77534,14.03781 -47.30652,18.39571 -29.77618,12.32165 -38.65628,18.34678 -42.37186,28.74921 -0.80994,2.26756 -0.61105,3.89281 0.65248,5.3319 1.62522,1.85103 4.13559,2.30818 6.23562,1.13555 0.97076,-0.54206 1.32645,-1.04586 2.61433,-3.70287 1.24117,-2.56066 1.81009,-3.38486 3.39883,-4.92397 6.93872,-6.72195 22.62878,-13.83854 71.37719,-32.37475 6.10275,-2.32052 11.27104,-4.23515 11.48511,-4.25473 0.24887,-0.0228 0.57766,0.62278 0.91185,1.79031 0.28746,1.00425 0.52315,1.91026 0.52375,2.01336 6e-4,0.10309 -0.57187,0.40626 -1.27217,0.67371 -0.70029,0.26744 -1.32764,0.57425 -1.39411,0.6818 -0.0665,0.10755 1.00836,3.08847 2.38851,6.62426 1.38015,3.53579 2.41833,6.50977 2.30707,6.60884 -0.19069,0.16978 -125.99807,50.25632 -126.22433,50.25253 -0.0583,-9.7e-4 -0.34536,-0.4118 -0.63792,-0.91295 z"
     id="path696" /><path
     style="fill:#ffffff;stroke:none;stroke-width:6.01145;stroke-linecap:round;stroke-dasharray:none"
     d="m 165.59569,305.87936 c -2.74085,-0.76964 -6.63248,-2.75665 -9.15,-4.67186 -2.65144,-2.0171 -5.3168,-4.29455 -5.3168,-4.54301 0,-0.10329 0.97967,-0.61598 2.17704,-1.13933 3.39713,-1.48481 9.3936,-3.94191 9.6201,-3.94191 0.11245,0 0.29041,0.94867 0.39548,2.10816 0.38222,4.2179 1.87111,8.50572 3.96606,11.42174 0.5367,0.74705 0.81802,1.34929 0.62515,1.33831 -0.19287,-0.011 -1.23553,-0.26842 -2.31703,-0.5721 z"
     id="path697" /><path
     style="fill:#ffffff;stroke:none;stroke-width:6.01145;stroke-linecap:round;stroke-dasharray:none"
     d="m 19.234916,374.17042 c 0.08158,-0.84975 0.345367,-3.94677 0.586191,-6.88227 0.515526,-6.28395 1.233554,-12.94582 2.376738,-22.05133 1.121741,-8.93475 2.767842,-21.1276 2.864702,-21.21917 0.04333,-0.041 7.094479,-2.75223 15.669218,-6.02504 47.205098,-18.01724 56.119742,-21.4742 56.91471,-22.07058 2.339355,-1.755 2.408465,-5.59189 0.135185,-7.50473 -1.063506,-0.89488 -2.790896,-1.41404 -3.877394,-1.16534 -0.430664,0.0986 -3.058386,1.04051 -5.839382,2.09316 -9.269159,3.50854 -60.385277,23.03114 -61.06372,23.32185 -0.36759,0.1575 -0.701512,0.25004 -0.742049,0.20562 -0.04054,-0.0444 -0.0072,-1.55238 0.07414,-3.3511 l 0.147848,-3.27036 1.717836,-0.1224 c 1.299075,-0.0926 3.258581,-0.72103 8.038281,-2.57817 26.474529,-10.28661 36.097116,-15.74544 41.135276,-23.33575 2.256798,-3.40001 3.2359,-6.99105 3.243425,-11.89589 0.0096,-6.28939 -0.487859,-8.39912 -4.309544,-18.27513 -1.875813,-4.84747 -3.572805,-8.8761 -3.771096,-8.9525 -0.198287,-0.0764 -1.715194,0.25547 -3.370904,0.73749 -3.848812,1.12052 -8.445302,1.81616 -10.409258,1.57537 -1.90562,-0.23363 -3.189056,-1.33836 -5.012035,-4.31415 -0.722214,-1.17892 -1.486524,-2.35001 -1.698473,-2.60242 -0.34122,-0.40635 -0.174621,-0.61366 1.45452,-1.80986 1.011935,-0.74301 1.839882,-1.38064 1.839882,-1.41695 0,-0.0363 -0.575484,-2.57172 -1.278848,-5.63423 l -1.278851,-5.5682 1.05872,-6.6654 1.058719,-6.6654 1.097921,-0.4393 c 0.603855,-0.24161 1.128629,-0.4024 1.166164,-0.35732 0.03753,0.0451 0.732692,1.91492 1.54479,4.15516 2.661234,7.34126 3.342359,8.51659 5.531967,9.54583 1.122306,0.52754 1.671294,0.60952 3.315175,0.49504 1.083574,-0.0755 2.791791,-0.42078 3.79604,-0.76736 1.004249,-0.34658 10.864145,-4.22971 21.91088,-8.62916 25.69055,-10.23147 81.23119,-32.15597 87.32524,-34.47137 12.63044,-4.79886 15.08432,-5.09918 25.31916,-3.0987 5.34447,1.04462 6.30923,0.91204 8.08566,-1.1112 2.25264,-2.56561 0.93796,-6.79742 -2.40599,-7.74461 -2.02422,-0.57338 -8.42285,-1.66981 -11.59743,-1.98726 -7.10524,-0.71052 -11.4456,0.26968 -25.82493,5.83213 -10.2364,3.95981 -55.65494,21.90252 -81.698063,32.27503 -12.566227,5.0049 -22.994964,9.09915 -23.17497,9.09834 -0.180003,-8.2e-4 -0.908695,-1.6424 -1.619315,-3.64796 l -1.292031,-3.64647 1.432485,-0.52683 1.432489,-0.52683 1.446691,-5.81621 c 0.795679,-3.19892 1.490929,-5.85094 1.544998,-5.89338 0.05407,-0.0424 10.084612,-3.99148 22.290096,-8.77565 12.20549,-4.78417 82.08478,-32.20335 155.28735,-60.93152 l 133.09557,-52.233032 2.30244,-3.596755 2.30243,-3.596758 6.17999,-2.483432 c 16.78978,-6.746976 21.38291,-9.711304 24.60665,-15.880674 1.14527,-2.191718 1.35148,-2.423612 2.78195,-3.128027 1.95485,-0.962636 39.95359,-16.991583 40.04936,-16.893941 0.039,0.03981 5.13012,11.84682 11.31348,26.237808 7.28638,16.957999 11.18992,26.366607 11.09303,26.737123 -0.0822,0.314429 -0.29504,0.62987 -0.47294,0.700977 -0.1779,0.07111 -40.39509,15.636329 -89.37153,34.589381 -48.97643,18.95306 -89.4272,34.68018 -89.89062,34.94917 -1.79428,1.04146 -2.61711,3.91853 -1.72023,6.01472 0.74388,1.73855 2.62015,3.01075 4.4403,3.01075 0.99832,0 -1.43575,0.93244 97.11773,-37.20376 41.77837,-16.16654 76.0498,-29.293934 76.15868,-29.17198 0.24888,0.278731 1.67907,4.070002 1.67539,4.441324 -10e-4,0.151224 -1.6132,0.919737 -3.58158,1.70781 -1.96836,0.788075 -24.18352,9.716496 -49.36699,19.840946 -25.18346,10.12445 -63.67498,25.58206 -85.5367,34.35025 -21.86172,8.7682 -39.86025,16.0433 -39.99674,16.1669 -0.13649,0.1236 -0.48392,4.56265 -0.77205,9.86456 -0.28813,5.3019 -0.57707,9.78156 -0.6421,9.95481 -0.065,0.17324 -0.4392,0.39555 -0.83149,0.494 -0.58285,0.1463 -1.3702,-0.26665 -4.30655,-2.25873 -1.9763,-1.34077 -4.35173,-2.79129 -5.27873,-3.22339 -4.17705,-1.94704 -7.72569,-2.13465 -10.89206,-0.57584 -2.74994,1.35378 -4.48411,3.60757 -5.8657,7.62323 -0.49753,1.44608 -1.52297,6.84843 -1.70209,8.96713 l -0.0801,0.94777 -14.44084,5.86172 c -7.94246,3.22395 -14.49177,5.91265 -14.55402,5.9749 -0.0623,0.0623 0.4633,1.51196 1.1679,3.22158 0.7046,1.70961 1.28109,3.23994 1.28109,3.40072 0,0.16078 -0.23209,0.29233 -0.51576,0.29233 -0.39419,0 -0.62893,-0.41384 -0.99584,-1.75568 -3.18438,-11.64556 -8.88471,-24.12345 -15.36738,-33.63882 -2.4459,-3.59013 -3.45842,-4.64718 -5.36313,-5.59897 -2.84411,-1.42122 -6.25323,-1.17664 -12.16921,0.87306 -3.115,1.07924 -13.24518,5.12211 -65.31128,26.06512 -28.50521,11.46591 -54.355829,21.86377 -57.445825,23.10634 -3.089996,1.24258 -5.722903,2.35365 -5.850904,2.46904 -0.252068,0.22725 1.60616,13.52169 2.773206,19.84052 2.270333,12.29246 5.556942,21.69626 11.252496,32.19619 2.67065,4.92342 9.090437,15.55276 10.084267,16.69667 l 0.84272,0.96998 2.52818,-0.97287 c 1.3905,-0.53507 19.27736,-7.63698 39.74859,-15.78202 20.47122,-8.14504 43.41444,-17.27345 50.98493,-20.28535 7.57049,-3.0119 13.93192,-5.54338 14.13652,-5.62551 0.20459,-0.0821 -0.061,0.53146 -0.59014,1.36351 -1.34031,2.10749 -2.08571,4.27051 -2.47231,7.17419 -0.66582,5.00086 -0.55966,5.44194 5.16693,21.46932 l 5.14589,14.40212 2.20904,0.59491 c 1.92937,0.51959 2.24185,0.69338 2.4683,1.37272 0.14259,0.42779 0.21449,0.81714 0.15978,0.86522 -0.46929,0.41235 -22.90437,10.552 -23.34744,10.552 -0.14341,0 0.83536,-1.16436 2.175,-2.58747 4.33563,-4.6057 7.71633,-10.56587 7.72543,-13.61986 0.005,-1.58325 -0.32023,-2.41511 -7.32436,-18.75014 -3.67305,-8.56627 -4.17069,-9.38223 -6.35394,-10.41825 -1.89178,-0.89771 -2.99382,-0.57402 -17.49822,5.13965 -11.49426,4.52789 -13.85279,5.36721 -15.08709,5.36896 -1.6658,0.002 -2.34282,0.28683 -3.7338,1.56882 -0.54075,0.49838 -1.42561,1.07449 -1.96636,1.28025 -0.54075,0.20575 -3.6942,1.49707 -7.00767,2.86959 -12.88399,5.33686 -16.53662,7.9445 -19.38479,13.83893 -1.87844,3.88749 -2.46755,8.56962 -1.59946,12.71224 l 0.36813,1.75678 -1.3484,0.86528 c -3.41375,2.19058 -5.47763,2.55956 -14.7091,2.62953 -5.94813,0.0451 -7.99145,0.15753 -9.4705,0.52111 -4.40389,1.08254 -7.85972,3.09329 -11.400549,6.63327 l -2.163475,2.16297 -3.932722,0.78056 c -28.552172,5.667 -42.519954,11.81921 -54.381693,23.95278 -5.635573,5.76472 -11.035307,13.30909 -16.252238,22.7072 l -1.715272,3.08999 z M 271.21737,180.79981 c 8.30653,-1.25623 15.15287,-6.39048 18.64714,-13.98399 1.80257,-3.91723 2.12592,-5.45207 2.12117,-10.06875 -0.003,-3.04912 -0.13134,-4.53208 -0.50993,-5.89842 -2.5541,-9.21778 -9.85567,-16.01449 -19.02547,-17.70997 -0.9871,-0.18251 -3.12202,-0.33049 -4.74427,-0.32884 -11.27848,0.0115 -20.98562,7.72631 -23.62345,18.77497 -0.79958,3.3491 -0.65576,9.30785 0.2975,12.32543 2.82872,8.95448 10.24114,15.39214 19.39323,16.84296 3.13956,0.49769 4.40881,0.50564 7.44408,0.0466 z"
     id="path698" /><path
     style="fill:#ffffff;stroke:none;stroke-width:2.12537;stroke-linecap:round;stroke-dasharray:none"
     d="m 256.00988,157.76786 c -0.23412,-3.09559 1.11388,-6.58925 3.44047,-8.91682 4.68189,-4.68386 12.20279,-4.72638 16.84051,-0.0952 0.7008,0.69981 0.81061,0.85105 0.67358,0.92773 -0.11345,0.0635 -18.50832,7.84109 -20.78834,8.78959 -0.0714,0.0297 -0.12917,-0.21541 -0.16622,-0.70528 z"
     id="path699" /><path
     style="fill:#ffffff;stroke:none;stroke-width:2.12537;stroke-linecap:round;stroke-dasharray:none"
     d="m 265.74892,168.39253 c -0.47602,-0.0779 -1.26721,-0.27624 -1.75818,-0.44073 -1.09628,-0.36729 -2.5478,-1.08438 -2.4291,-1.20004 0.15088,-0.147 17.62294,-7.47497 17.68193,-7.41599 0.091,0.091 -0.35077,1.44194 -0.75538,2.30966 -1.51837,3.25629 -4.48163,5.65566 -8.09975,6.55842 -1.26474,0.31556 -3.34688,0.40024 -4.63952,0.18868 z"
     id="path700" /></svg>
