<?xml version="1.0" encoding="UTF-8" standalone="no"?>
<!-- Created with Inkscape (http://www.inkscape.org/) -->

<svg
   width="512"
   height="512"
   viewBox="0 0 512 512"
   version="1.1"
   id="svg1"
   xml:space="preserve"
   xmlns="http://www.w3.org/2000/svg"
   xmlns:svg="http://www.w3.org/2000/svg"><defs
     id="defs1" /><g
     id="g436"
     transform="translate(-4.7754488,2.3877242)"><path
       style="fill:#d0d0d0;fill-opacity:1"
       d="m 24.729479,388.20472 c -1.243871,-1.58605 -1.2085,-1.62142 0.377555,-0.37755 0.9625,0.75484 1.75,1.54234 1.75,1.75 0,0.82303 -0.821185,0.2933 -2.127555,-1.37245 z m 22.322504,-4.75 c 0.02038,-1.65 0.244499,-2.20393 0.498042,-1.23096 0.253543,0.97296 0.236869,2.32296 -0.03705,3 -0.273923,0.67703 -0.481368,-0.11904 -0.460988,-1.76904 z m -14.322504,-4.25 c -1.243871,-1.58605 -1.2085,-1.62142 0.377555,-0.37755 0.9625,0.75484 1.75,1.54234 1.75,1.75 0,0.82303 -0.821185,0.2933 -2.127555,-1.37245 z m 49.889214,-55.95726 c 1.243913,-0.23919 3.043913,-0.23011 4,0.0202 0.956088,0.2503 -0.06166,0.446 -2.261659,0.4349 -2.2,-0.0111 -2.982253,-0.21588 -1.738341,-0.45508 z m 328.238337,-9.67029 c 0,-0.20766 0.7875,-0.99516 1.75,-1.75 1.58606,-1.24387 1.62143,-1.2085 0.37756,0.37755 -1.30637,1.66575 -2.12756,2.19548 -2.12756,1.37245 z m 44,-9 c 0,-0.20766 0.7875,-0.99516 1.75,-1.75 1.58606,-1.24387 1.62143,-1.2085 0.37756,0.37755 -1.30637,1.66575 -2.12756,2.19548 -2.12756,1.37245 z m -45.55775,-41.62245 c 0,-16.225 0.13753,-22.8625 0.30561,-14.75 0.16809,8.1125 0.16809,21.3875 0,29.5 -0.16808,8.1125 -0.30561,1.475 -0.30561,-14.75 z m -233.03726,19.75 -1.90499,-2.25 2.25,1.90499 c 2.11445,1.79022 2.70524,2.59501 1.90499,2.59501 -0.18976,0 -1.20226,-1.0125 -2.25,-2.25 z m 309.75291,-6.75 c 0,-1.375 0.22697,-1.9375 0.50438,-1.25 0.27742,0.6875 0.27742,1.8125 0,2.5 -0.27741,0.6875 -0.50438,0.125 -0.50438,-1.25 z m -417.962947,-28.5 c 0.02038,-1.65 0.244499,-2.20393 0.498042,-1.23096 0.253543,0.97296 0.236869,2.32296 -0.03705,3 -0.273923,0.67703 -0.481368,-0.11904 -0.460988,-1.76904 z m 52.962947,-26.5 c 0,-1.375 0.22697,-1.9375 0.50438,-1.25 0.27742,0.6875 0.27742,1.8125 0,2.5 -0.27741,0.6875 -0.50438,0.125 -0.50438,-1.25 z m 248.11114,-16.69299 c 0.97296,-0.25354 2.32296,-0.23687 3,0.0371 0.67703,0.27392 -0.11904,0.48136 -1.76904,0.46098 -1.65,-0.0204 -2.20393,-0.24449 -1.23096,-0.49804 z m 10.98096,0.004 c 0.9625,-0.25153 2.5375,-0.25153 3.5,0 0.9625,0.25153 0.175,0.45732 -1.75,0.45732 -1.925,0 -2.7125,-0.20579 -1.75,-0.45732 z m 6.5,0.027 c 0.6875,-0.27741 1.8125,-0.27741 2.5,0 0.6875,0.27741 0.125,0.50439 -1.25,0.50439 -1.375,0 -1.9375,-0.22698 -1.25,-0.50439 z m 22.01166,-0.045 c 1.24392,-0.23919 3.04392,-0.23011 4,0.0202 0.95609,0.2503 -0.0617,0.446 -2.26166,0.4349 -2.2,-0.0111 -2.98225,-0.21588 -1.73834,-0.45508 z M 123.10703,185.2654 c 0.9625,-0.25153 2.5375,-0.25153 3.5,0 0.9625,0.25153 0.175,0.45732 -1.75,0.45732 -1.925,0 -2.7125,-0.20579 -1.75,-0.45732 z m 163.5,-10.97296 c 0.6875,-0.27741 1.8125,-0.27741 2.5,0 0.6875,0.27741 0.125,0.50439 -1.25,0.50439 -1.375,0 -1.9375,-0.22698 -1.25,-0.50439 z m 5.5,-0.027 c 0.9625,-0.25153 2.5375,-0.25153 3.5,0 0.9625,0.25153 0.175,0.45732 -1.75,0.45732 -1.925,0 -2.7125,-0.20579 -1.75,-0.45732 z m 210.9079,-1.31068 c 0,-1.375 0.22697,-1.9375 0.50438,-1.25 0.27742,0.6875 0.27742,1.8125 0,2.5 -0.27741,0.6875 -0.50438,0.125 -0.50438,-1.25 z m 0,-5 c 0,-1.375 0.22697,-1.9375 0.50438,-1.25 0.27742,0.6875 0.27742,1.8125 0,2.5 -0.27741,0.6875 -0.50438,0.125 -0.50438,-1.25 z M 135.10703,157.2654 c 0.9625,-0.25153 2.5375,-0.25153 3.5,0 0.9625,0.25153 0.175,0.45732 -1.75,0.45732 -1.925,0 -2.7125,-0.20579 -1.75,-0.45732 z m 8,0 c 0.9625,-0.25153 2.5375,-0.25153 3.5,0 0.9625,0.25153 0.175,0.45732 -1.75,0.45732 -1.925,0 -2.7125,-0.20579 -1.75,-0.45732 z m 162.51166,-0.0179 c 1.24392,-0.23919 3.04392,-0.23011 4,0.0202 0.95609,0.2503 -0.0617,0.446 -2.26166,0.4349 -2.2,-0.0111 -2.98225,-0.21588 -1.73834,-0.45508 z M 140.60703,146.24899 c 1.2375,-0.23835 3.2625,-0.23835 4.5,0 1.2375,0.23835 0.225,0.43337 -2.25,0.43337 -2.475,0 -3.4875,-0.19502 -2.25,-0.43337 z m 10,0 c 1.2375,-0.23835 3.2625,-0.23835 4.5,0 1.2375,0.23835 0.225,0.43337 -2.25,0.43337 -2.475,0 -3.4875,-0.19502 -2.25,-0.43337 z m 14.54571,-0.0384 c 4.28764,-0.1879 11.03764,-0.18676 15,0.003 3.96236,0.1893 0.45429,0.34304 -7.79571,0.34164 -8.25,-0.001 -11.49193,-0.15628 -7.20429,-0.34419 z m 337.89924,-19.75587 c 0.0204,-1.65 0.2445,-2.20393 0.49804,-1.23096 0.25355,0.97296 0.23687,2.32296 -0.0371,3 -0.27392,0.67703 -0.48137,-0.11904 -0.46099,-1.76904 z m -33.44495,-16.16228 c 0.6875,-0.27741 1.8125,-0.27741 2.5,0 0.6875,0.27741 0.125,0.50439 -1.25,0.50439 -1.375,0 -1.9375,-0.22698 -1.25,-0.50439 z m -343.5,-13.079267 c 3.7125,-0.192406 9.7875,-0.192406 13.5,0 3.7125,0.192406 0.675,0.34983 -6.75,0.34983 -7.425,0 -10.4625,-0.157424 -6.75,-0.34983 z m 341.9079,-2.25845 c 0,-1.375 0.22697,-1.9375 0.50438,-1.25 0.27742,0.6875 0.27742,1.8125 0,2.5 -0.27741,0.6875 -0.50438,0.125 -0.50438,-1.25 z m -21.4302,-1.721732 c 1.77523,-0.220912 4.92523,-0.224541 7,-0.0081 2.07477,0.216476 0.6223,0.397222 -3.2277,0.401658 -3.85,0.0044 -5.54753,-0.17268 -3.7723,-0.393592 z"
       id="path443" /><path
       style="fill:#b9b9b9;fill-opacity:1"
       d="m 109.10703,402.23847 c 1.5125,-0.22913 3.9875,-0.22913 5.5,0 1.5125,0.22912 0.275,0.41659 -2.75,0.41659 -3.025,0 -4.2625,-0.18747 -2.75,-0.41659 z m 339.75,-91.78375 c 2.98743,-3.025 5.65668,-5.5 5.93168,-5.5 0.275,0 -1.94425,2.475 -4.93168,5.5 -2.98742,3.025 -5.65668,5.5 -5.93168,5.5 -0.275,0 1.94426,-2.475 4.93168,-5.5 z m -154.12755,-17.25 c -1.24387,-1.58605 -1.2085,-1.62142 0.37755,-0.37755 1.66575,1.30637 2.19548,2.12755 1.37245,2.12755 -0.20766,0 -0.99516,-0.7875 -1.75,-1.75 z m 40.32697,-78.99383 c 4.78468,-0.1829 12.88468,-0.18376 18,-0.002 5.11532,0.18186 1.20058,0.33151 -8.69942,0.33256 -9.9,0.001 -14.08526,-0.14775 -9.30058,-0.33066 z M 13.729479,206.20472 c -1.243871,-1.58605 -1.2085,-1.62142 0.377555,-0.37755 0.9625,0.75484 1.75,1.54234 1.75,1.75 0,0.82303 -0.821185,0.2933 -2.127555,-1.37245 z m 312.877551,-1.91228 c 0.6875,-0.27741 1.8125,-0.27741 2.5,0 0.6875,0.27741 0.125,0.50439 -1.25,0.50439 -1.375,0 -1.9375,-0.22698 -1.25,-0.50439 z m 13.55195,-0.0838 c 5.39106,-0.18016 13.94106,-0.17937 19,0.002 5.05893,0.18112 0.64805,0.32851 -9.80195,0.32755 -10.45,-9.6e-4 -14.58912,-0.14914 -9.19805,-0.32929 z m 33.94805,0.0568 c 0.9625,-0.25153 2.5375,-0.25153 3.5,0 0.9625,0.25153 0.175,0.45732 -1.75,0.45732 -1.925,0 -2.7125,-0.20579 -1.75,-0.45732 z m 18.5625,0.006 c 0.72188,-0.28887 1.58438,-0.25334 1.91667,0.0789 0.33229,0.33229 -0.25833,0.56864 -1.3125,0.52522 -1.16494,-0.048 -1.4019,-0.28494 -0.60417,-0.60417 z m 9.4375,-0.006 c 0.9625,-0.25153 2.5375,-0.25153 3.5,0 0.9625,0.25153 0.175,0.45732 -1.75,0.45732 -1.925,0 -2.7125,-0.20579 -1.75,-0.45732 z m 17.01904,-0.004 c 0.97296,-0.25354 2.32296,-0.23687 3,0.0371 0.67703,0.27392 -0.11904,0.48136 -1.76904,0.46098 -1.65,-0.0204 -2.20393,-0.24449 -1.23096,-0.49804 z m 4.48096,-11.96929 c 0.6875,-0.27741 1.8125,-0.27741 2.5,0 0.6875,0.27741 0.125,0.50439 -1.25,0.50439 -1.375,0 -1.9375,-0.22698 -1.25,-0.50439 z M 76.169442,185.20631 c 8.696824,-0.16665 22.646824,-0.16631 30.999998,7.7e-4 8.35318,0.16707 1.23759,0.30342 -15.812406,0.303 -17.05,-4.2e-4 -23.884416,-0.13712 -15.187592,-0.30377 z M 274.62494,174.22999 c 1.79735,-0.22256 4.49735,-0.21797 6,0.0102 1.50265,0.22817 0.0321,0.41027 -3.26791,0.40465 -3.3,-0.006 -4.52944,-0.1923 -2.73209,-0.41486 z m 24.49584,0.007 c 1.52007,-0.22985 3.77007,-0.22371 5,0.0136 1.22994,0.23736 -0.0138,0.42543 -2.76375,0.41792 -2.75,-0.008 -3.75631,-0.20171 -2.23625,-0.43157 z M 503.1567,160.95472 c 0,-3.025 0.18746,-4.2625 0.41659,-2.75 0.22912,1.5125 0.22912,3.9875 0,5.5 -0.22913,1.5125 -0.41659,0.275 -0.41659,-2.75 z m -18.8884,-15 c 0,-9.625 0.14999,-13.5625 0.3333,-8.75 0.18332,4.8125 0.18332,12.6875 0,17.5 -0.18331,4.8125 -0.3333,0.875 -0.3333,-8.75 z m -333.66127,11.27661 c 1.7875,-0.22183 4.7125,-0.22183 6.5,0 1.7875,0.22182 0.325,0.40332 -3.25,0.40332 -3.575,0 -5.0375,-0.1815 -3.25,-0.40332 z m 91.5,-0.0255 c 11.4125,-0.16044 30.0875,-0.16044 41.5,0 11.4125,0.16045 2.075,0.29172 -20.75,0.29172 -22.825,0 -32.1625,-0.13127 -20.75,-0.29172 z m 260.82895,-3.83447 c 0.048,-1.16494 0.28494,-1.4019 0.60417,-0.60417 0.28887,0.72188 0.25334,1.58438 -0.0789,1.91667 -0.33229,0.33229 -0.56864,-0.25833 -0.52522,-1.3125 z m 0.15306,-9.41667 c 0,-1.925 0.20579,-2.7125 0.45732,-1.75 0.25153,0.9625 0.25153,2.5375 0,3.5 -0.25153,0.9625 -0.45732,0.175 -0.45732,-1.75 z m 0.0677,-10 c 0,-3.025 0.18746,-4.2625 0.41659,-2.75 0.22912,1.5125 0.22912,3.9875 0,5.5 -0.22913,1.5125 -0.41659,0.275 -0.41659,-2.75 z m -9.48717,-16.68311 c 0.72188,-0.28887 1.58438,-0.25334 1.91667,0.079 0.33229,0.33229 -0.25833,0.56864 -1.3125,0.52522 -1.16494,-0.048 -1.4019,-0.28494 -0.60417,-0.60417 z M 92.126066,110.26173 c 0.972968,-0.25354 2.322968,-0.23687 3,0.0371 0.677033,0.27392 -0.119032,0.48136 -1.769032,0.46098 -1.65,-0.0204 -2.203935,-0.24449 -1.230968,-0.49804 z m 373.480964,0.0307 c 0.6875,-0.27741 1.8125,-0.27741 2.5,0 0.6875,0.27741 0.125,0.50439 -1.25,0.50439 -1.375,0 -1.9375,-0.22698 -1.25,-0.50439 z M 437.12078,93.237142 c 1.52007,-0.229854 3.77007,-0.223712 5,0.01365 1.22994,0.237362 -0.0138,0.425425 -2.76375,0.417917 -2.75,-0.0075 -3.75631,-0.201712 -2.23625,-0.431567 z"
       id="path442" /><path
       style="fill:#a3a3a3;fill-opacity:1"
       d="m 21.014929,433.95472 c 0,-1.375 0.226974,-1.9375 0.504386,-1.25 0.277412,0.6875 0.277412,1.8125 0,2.5 -0.277412,0.6875 -0.504386,0.125 -0.504386,-1.25 z M 74.05161,402.20907 c 5.882017,-0.17649 15.782017,-0.1771 22,-10e-4 6.21798,0.17573 1.405424,0.32013 -10.694576,0.32089 -12.1,7.5e-4 -17.187441,-0.14303 -11.305424,-0.31952 z m -7.382076,-67.93746 c 0.721875,-0.28887 1.584375,-0.25334 1.916667,0.0789 0.332292,0.33229 -0.258333,0.56864 -1.3125,0.52522 -1.164943,-0.048 -1.401899,-0.28494 -0.604167,-0.60417 z m 5.9375,0.0208 c 0.6875,-0.27741 1.8125,-0.27741 2.5,0 0.6875,0.27741 0.125,0.50439 -1.25,0.50439 -1.375,0 -1.9375,-0.22698 -1.25,-0.50439 z m 369.249996,-0.71527 c 0,-0.20766 0.7875,-0.99516 1.75,-1.75 1.58606,-1.24387 1.62143,-1.2085 0.37756,0.37755 -1.30637,1.66575 -2.12756,2.19548 -2.12756,1.37245 z m -3.5,-12.62245 c 2.70865,-2.75 5.14982,-5 5.42482,-5 0.275,0 -1.71617,2.25 -4.42482,5 -2.70864,2.75 -5.14981,5 -5.42481,5 -0.275,0 1.71617,-2.25 4.42481,-5 z m -135.6875,0.31689 c 0.72188,-0.28887 1.58438,-0.25334 1.91667,0.0789 0.33229,0.33229 -0.25833,0.56864 -1.3125,0.52522 -1.16494,-0.048 -1.4019,-0.28494 -0.60417,-0.60417 z m 161.1875,-31.69444 c 0,-0.20766 0.7875,-0.99516 1.75,-1.75 1.58606,-1.24387 1.62143,-1.2085 0.37756,0.37755 -1.30637,1.66575 -2.12756,2.19548 -2.12756,1.37245 z m -14.1875,-35.30556 c 0.72188,-0.28887 1.58438,-0.25334 1.91667,0.0789 0.33229,0.33229 -0.25833,0.56864 -1.3125,0.52522 -1.16494,-0.048 -1.4019,-0.28494 -0.60417,-0.60417 z m -180.40751,-15.56689 -1.90499,-2.25 2.25,1.90499 c 1.2375,1.04774 2.25,2.06024 2.25,2.25 0,0.80025 -0.80479,0.20946 -2.59501,-1.90499 z m 215.02508,-33.75 c 0,-12.925 0.14252,-18.2125 0.3167,-11.75 0.17419,6.4625 0.17419,17.0375 0,23.5 -0.17418,6.4625 -0.3167,1.175 -0.3167,-11.75 z m -73.68007,-12.7322 c 2.3375,-0.21054 6.1625,-0.21054 8.5,0 2.3375,0.21053 0.425,0.38279 -4.25,0.38279 -4.675,0 -6.5875,-0.17226 -4.25,-0.38279 z m 73.50219,-25.7678 c 0.0111,-2.2 0.21588,-2.98225 0.45508,-1.73834 0.23919,1.24392 0.23011,3.04392 -0.0202,4 -0.25029,0.95609 -0.44599,-0.0617 -0.43489,-2.26166 z m -270.48428,-9.22473 c 1.79735,-0.22256 4.49735,-0.21797 6,0.0102 1.50265,0.22817 0.0321,0.41027 -3.26791,0.40465 -3.3,-0.006 -4.52944,-0.1923 -2.73209,-0.41486 z M 484.26256,116.5691 c -0.29244,-0.76208 -0.35693,-3.34958 -0.14332,-5.75 0.38823,-4.36273 0.38845,-4.36241 0.56309,0.8281 l 0.1747,5.1925 4.25,0.38279 4.25,0.38279 -4.28138,0.17471 c -2.85482,0.11649 -4.45855,-0.28698 -4.81309,-1.21089 z m -378.13649,-0.3074 c 0.97296,-0.25354 2.32296,-0.23687 3,0.0371 0.67703,0.27392 -0.11904,0.48136 -1.76904,0.46098 -1.65,-0.0204 -2.20393,-0.24449 -1.23096,-0.49804 z m 51.48096,0.0307 c 0.6875,-0.27741 1.8125,-0.27741 2.5,0 0.6875,0.27741 0.125,0.50439 -1.25,0.50439 -1.375,0 -1.9375,-0.22698 -1.25,-0.50439 z"
       id="path441" /><path
       style="fill:#8c8c8c;fill-opacity:1"
       d="m 55.014929,382.95472 c 0,-1.375 0.226974,-1.9375 0.504386,-1.25 0.277412,0.6875 0.277412,1.8125 0,2.5 -0.277412,0.6875 -0.504386,0.125 -0.504386,-1.25 z m 58.247091,-18.25 -1.90499,-2.25 2.25,1.90499 c 1.2375,1.04774 2.25,2.06024 2.25,2.25 0,0.80025 -0.80479,0.20946 -2.59501,-1.90499 z M 61.107034,334.2654 c 0.9625,-0.25153 2.5375,-0.25153 3.5,0 0.9625,0.25153 0.175,0.45732 -1.75,0.45732 -1.925,0 -2.7125,-0.20579 -1.75,-0.45732 z m 8.5625,0.006 c 0.721875,-0.28887 1.584375,-0.25334 1.916667,0.0789 0.332292,0.33229 -0.258333,0.56864 -1.3125,0.52522 -1.164943,-0.048 -1.401899,-0.28494 -0.604167,-0.60417 z m 8.45125,-0.0345 c 1.520062,-0.22985 3.770062,-0.22371 5,0.0136 1.229938,0.23736 -0.01375,0.42543 -2.76375,0.41792 -2.75,-0.008 -3.756312,-0.20171 -2.23625,-0.43157 z M 309.13721,321.21845 c 2.62909,-0.20667 6.67909,-0.20418 9,0.006 2.3209,0.20973 0.16982,0.37883 -4.78018,0.37578 -4.95,-0.003 -6.84892,-0.17464 -4.21982,-0.38132 z m 75.98886,0.0433 c 0.97296,-0.25354 2.32296,-0.23687 3,0.0371 0.67703,0.27392 -0.11904,0.48136 -1.76904,0.46098 -1.65,-0.0204 -2.20393,-0.24449 -1.23096,-0.49804 z m -64.01904,-11.05587 c 11.4125,-0.16044 30.0875,-0.16044 41.5,0 11.4125,0.16045 2.075,0.29172 -20.75,0.29172 -22.825,0 -32.1625,-0.13127 -20.75,-0.29172 z m 65.51166,0.0416 c 1.24392,-0.23919 3.04392,-0.23011 4,0.0202 0.95609,0.2503 -0.0617,0.446 -2.26166,0.4349 -2.2,-0.0111 -2.98225,-0.21588 -1.73834,-0.45508 z m 63.05084,-15.97585 c 0.72188,-0.28887 1.58438,-0.25334 1.91667,0.0789 0.33229,0.33229 -0.25833,0.56864 -1.3125,0.52522 -1.16494,-0.048 -1.4019,-0.28494 -0.60417,-0.60417 z m 10.26645,-19.90022 c 0.048,-1.16494 0.28494,-1.4019 0.60417,-0.60417 0.28887,0.72188 0.25334,1.58438 -0.0789,1.91667 -0.33229,0.33229 -0.56864,-0.25833 -0.52522,-1.3125 z M 279.08904,255.95472 c 0,-1.925 0.20579,-2.7125 0.45732,-1.75 0.25153,0.9625 0.25153,2.5375 0,3.5 -0.25153,0.9625 -0.45732,0.175 -0.45732,-1.75 z m -79.03706,-16.5 c 0.0204,-1.65 0.2445,-2.20393 0.49804,-1.23096 0.25355,0.97296 0.23687,2.32296 -0.037,3 -0.27392,0.67703 -0.48137,-0.11904 -0.46099,-1.76904 z m 6.61755,-46.18311 c 0.72188,-0.28887 1.58438,-0.25334 1.91667,0.0789 0.33229,0.33229 -0.25833,0.56864 -1.3125,0.52522 -1.16494,-0.048 -1.4019,-0.28494 -0.60417,-0.60417 z m 133.9375,-1.06589 c 12.2375,-0.15909 32.2625,-0.15909 44.5,0 12.2375,0.1591 2.225,0.28927 -22.25,0.28927 -24.475,0 -34.4875,-0.13017 -22.25,-0.28927 z m -131.9375,-34.93411 c 0.72188,-0.28887 1.58438,-0.25334 1.91667,0.0789 0.33229,0.33229 -0.25833,0.56864 -1.3125,0.52522 -1.16494,-0.048 -1.4019,-0.28494 -0.60417,-0.60417 z M 79.935982,143.37139 c 0.04798,-1.16494 0.28494,-1.4019 0.604166,-0.60417 0.288871,0.72188 0.253345,1.58438 -0.07895,1.91667 -0.332292,0.33229 -0.56864,-0.25833 -0.525219,-1.3125 z m 166.190088,0.89034 c 0.97296,-0.25354 2.32296,-0.23687 3,0.0371 0.67703,0.27392 -0.11904,0.48136 -1.76904,0.46098 -1.65,-0.0204 -2.20393,-0.24449 -1.23096,-0.49804 z m 19,0 c 0.97296,-0.25354 2.32296,-0.23687 3,0.0371 0.67703,0.27392 -0.11904,0.48136 -1.76904,0.46098 -1.65,-0.0204 -2.20393,-0.24449 -1.23096,-0.49804 z m 9.99471,-0.0246 c 1.52007,-0.22985 3.77007,-0.22371 5,0.0136 1.22994,0.23736 -0.0138,0.42543 -2.76375,0.41792 -2.75,-0.008 -3.75631,-0.20171 -2.23625,-0.43157 z m 15.00529,0.0246 c 0.97296,-0.25354 2.32296,-0.23687 3,0.0371 0.67703,0.27392 -0.11904,0.48136 -1.76904,0.46098 -1.65,-0.0204 -2.20393,-0.24449 -1.23096,-0.49804 z m 6.49262,-0.0143 c 1.24392,-0.23919 3.04392,-0.23011 4,0.0202 0.95609,0.2503 -0.0617,0.446 -2.26166,0.4349 -2.2,-0.0111 -2.98225,-0.21588 -1.73834,-0.45508 z m 7.50738,0.0143 c 0.97296,-0.25354 2.32296,-0.23687 3,0.0371 0.67703,0.27392 -0.11904,0.48136 -1.76904,0.46098 -1.65,-0.0204 -2.20393,-0.24449 -1.23096,-0.49804 z m 13.48096,-0.0443 c 2.8875,-0.202 7.6125,-0.202 10.5,0 2.8875,0.202 0.525,0.36728 -5.25,0.36728 -5.775,0 -8.1375,-0.16528 -5.25,-0.36728 z m 17.51904,0.0443 c 0.97296,-0.25354 2.32296,-0.23687 3,0.0371 0.67703,0.27392 -0.11904,0.48136 -1.76904,0.46098 -1.65,-0.0204 -2.20393,-0.24449 -1.23096,-0.49804 z m 11.02255,-0.0495 c 3.73538,-0.19293 9.58538,-0.1915 13,0.003 3.41463,0.19467 0.35841,0.35252 -6.79159,0.35077 -7.15,-0.002 -9.94378,-0.16103 -6.20841,-0.35395 z m 32.95841,-0.005 c 7.5625,-0.16988 19.9375,-0.16988 27.5,0 7.5625,0.16988 1.375,0.30887 -13.75,0.30887 -15.125,0 -21.3125,-0.13899 -13.75,-0.30887 z m 55,3.5e-4 c 7.0125,-0.1719 18.4875,-0.1719 25.5,0 7.0125,0.1719 1.275,0.31255 -12.75,0.31255 -14.025,0 -19.7625,-0.14065 -12.75,-0.31255 z m -321,-27.98126 c 2.0625,-0.21574 5.4375,-0.21574 7.5,0 2.0625,0.21575 0.375,0.39227 -3.75,0.39227 -4.125,0 -5.8125,-0.17652 -3.75,-0.39227 z m 33.4777,0.007 c 1.77523,-0.22091 4.92523,-0.22454 7,-0.008 2.07477,0.21647 0.6223,0.39722 -3.2277,0.40165 -3.85,0.004 -5.54753,-0.17268 -3.7723,-0.39359 z m 286.47855,-1.01882 c 3.68844,-0.19186 9.98844,-0.19313 14,-0.003 4.01157,0.1903 0.99375,0.34728 -6.70625,0.34884 -7.7,0.002 -10.98218,-0.15414 -7.29375,-0.346 z"
       id="path440" /><path
       style="fill:#767676;fill-opacity:1"
       d="m 172.66953,413.27161 c 0.72188,-0.28887 1.58438,-0.25334 1.91667,0.0789 0.33229,0.33229 -0.25833,0.56864 -1.3125,0.52522 -1.16494,-0.048 -1.4019,-0.28494 -0.60417,-0.60417 z m 5,0 c 0.72188,-0.28887 1.58438,-0.25334 1.91667,0.0789 0.33229,0.33229 -0.25833,0.56864 -1.3125,0.52522 -1.16494,-0.048 -1.4019,-0.28494 -0.60417,-0.60417 z m 269.1875,-84.69444 c 0,-0.20766 0.7875,-0.99516 1.75,-1.75 1.58606,-1.24387 1.62143,-1.2085 0.37756,0.37755 -1.30637,1.66575 -2.12756,2.19548 -2.12756,1.37245 z m -120.21647,-7.36085 c 2.90593,-0.20264 7.40593,-0.20051 10,0.005 2.59406,0.20525 0.21647,0.37105 -5.28353,0.36844 -5.5,-0.003 -7.62241,-0.17053 -4.71647,-0.37317 z m 15.96647,0.0761 c 0.6875,-0.27741 1.8125,-0.27741 2.5,0 0.6875,0.27741 0.125,0.50439 -1.25,0.50439 -1.375,0 -1.9375,-0.22698 -1.25,-0.50439 z m 12.5,-0.027 c 0.9625,-0.25153 2.5375,-0.25153 3.5,0 0.9625,0.25153 0.175,0.45732 -1.75,0.45732 -1.925,0 -2.7125,-0.20579 -1.75,-0.45732 z m 13.5,-0.0479 c 2.8875,-0.202 7.6125,-0.202 10.5,0 2.8875,0.202 0.525,0.36728 -5.25,0.36728 -5.775,0 -8.1375,-0.16528 -5.25,-0.36728 z m -78.55505,-64.76276 c 0.0204,-1.65 0.2445,-2.20393 0.49804,-1.23096 0.25355,0.97296 0.23687,2.32296 -0.0371,3 -0.27392,0.67703 -0.48137,-0.11904 -0.46099,-1.76904 z M 78.935982,245.37139 c 0.04798,-1.16494 0.28494,-1.4019 0.604166,-0.60417 0.288871,0.72188 0.253345,1.58438 -0.07895,1.91667 -0.332292,0.33229 -0.56864,-0.25833 -0.525219,-1.3125 z m 121.078948,-1.41667 c 0,-1.375 0.22697,-1.9375 0.50438,-1.25 0.27742,0.6875 0.27742,1.8125 0,2.5 -0.27741,0.6875 -0.50438,0.125 -0.50438,-1.25 z m 165.6546,-15.68311 c 0.72188,-0.28887 1.58438,-0.25334 1.91667,0.0789 0.33229,0.33229 -0.25833,0.56864 -1.3125,0.52522 -1.16494,-0.048 -1.4019,-0.28494 -0.60417,-0.60417 z m 6,0 c 0.72188,-0.28887 1.58438,-0.25334 1.91667,0.0789 0.33229,0.33229 -0.25833,0.56864 -1.3125,0.52522 -1.16494,-0.048 -1.4019,-0.28494 -0.60417,-0.60417 z m 4,0 c 0.72188,-0.28887 1.58438,-0.25334 1.91667,0.0789 0.33229,0.33229 -0.25833,0.56864 -1.3125,0.52522 -1.16494,-0.048 -1.4019,-0.28494 -0.60417,-0.60417 z m 8.9375,-0.0226 c 1.2375,-0.23835 3.2625,-0.23835 4.5,0 1.2375,0.23835 0.225,0.43337 -2.25,0.43337 -2.475,0 -3.4875,-0.19502 -2.25,-0.43337 z m 15.5,0.0164 c 0.9625,-0.25153 2.5375,-0.25153 3.5,0 0.9625,0.25153 0.175,0.45732 -1.75,0.45732 -1.925,0 -2.7125,-0.20579 -1.75,-0.45732 z M 179.72948,207.20472 c -1.24387,-1.58605 -1.2085,-1.62142 0.37755,-0.37755 0.9625,0.75484 1.75,1.54234 1.75,1.75 0,0.82303 -0.82118,0.2933 -2.12755,-1.37245 z M 43.607034,201.29244 c 0.6875,-0.27741 1.8125,-0.27741 2.5,0 0.6875,0.27741 0.125,0.50439 -1.25,0.50439 -1.375,0 -1.9375,-0.22698 -1.25,-0.50439 z m 262.536016,-9.83772 c 0.008,-2.75 0.20171,-3.75631 0.43157,-2.23625 0.22985,1.52007 0.22371,3.77007 -0.0136,5 -0.23737,1.22994 -0.42543,-0.0137 -0.41792,-2.76375 z m -91.07977,1.75945 c 3.68844,-0.19186 9.98844,-0.19313 14,-0.003 4.01157,0.1903 0.99375,0.34728 -6.70625,0.34884 -7.7,0.002 -10.98218,-0.15414 -7.29375,-0.346 z m 22.60625,0.0574 c 0.72188,-0.28887 1.58438,-0.25334 1.91667,0.0789 0.33229,0.33229 -0.25833,0.56864 -1.3125,0.52522 -1.16494,-0.048 -1.4019,-0.28494 -0.60417,-0.60417 z m 68.38245,-21.81689 c 0.0204,-1.65 0.2445,-2.20393 0.49804,-1.23096 0.25355,0.97296 0.23687,2.32296 -0.0371,3 -0.27392,0.67703 -0.48137,-0.11904 -0.46099,-1.76904 z m -81.94495,-4.24721 c 7.0125,-0.1719 18.4875,-0.1719 25.5,0 7.0125,0.1719 1.275,0.31255 -12.75,0.31255 -14.025,0 -19.7625,-0.14065 -12.75,-0.31255 z m 58.54749,0.002 c 4.56361,-0.18572 11.76361,-0.18468 16,0.002 4.23638,0.18698 0.50251,0.33893 -8.29749,0.33766 -8.8,-0.001 -12.26613,-0.15425 -7.70251,-0.33996 z m -58.04749,-22.91753 c 0.6875,-0.27741 1.8125,-0.27741 2.5,0 0.6875,0.27741 0.125,0.50439 -1.25,0.50439 -1.375,0 -1.9375,-0.22698 -1.25,-0.50439 z m 5.0625,-0.0208 c 0.72188,-0.28887 1.58438,-0.25334 1.91667,0.0789 0.33229,0.33229 -0.25833,0.56864 -1.3125,0.52522 -1.16494,-0.048 -1.4019,-0.28494 -0.60417,-0.60417 z m 6,0 c 0.72188,-0.28887 1.58438,-0.25334 1.91667,0.0789 0.33229,0.33229 -0.25833,0.56864 -1.3125,0.52522 -1.16494,-0.048 -1.4019,-0.28494 -0.60417,-0.60417 z m 4.4375,-0.006 c 0.9625,-0.25153 2.5375,-0.25153 3.5,0 0.9625,0.25153 0.175,0.45732 -1.75,0.45732 -1.925,0 -2.7125,-0.20579 -1.75,-0.45732 z m 13.5625,0.006 c 0.72188,-0.28887 1.58438,-0.25334 1.91667,0.0789 0.33229,0.33229 -0.25833,0.56864 -1.3125,0.52522 -1.16494,-0.048 -1.4019,-0.28494 -0.60417,-0.60417 z m 6.45654,-0.01 c 0.97296,-0.25354 2.32296,-0.23687 3,0.0371 0.67703,0.27392 -0.11904,0.48136 -1.76904,0.46098 -1.65,-0.0204 -2.20393,-0.24449 -1.23096,-0.49804 z m 9.48096,0.0307 c 0.6875,-0.27741 1.8125,-0.27741 2.5,0 0.6875,0.27741 0.125,0.50439 -1.25,0.50439 -1.375,0 -1.9375,-0.22698 -1.25,-0.50439 z m 14.01166,-0.045 c 1.24392,-0.23919 3.04392,-0.23011 4,0.0202 0.95609,0.2503 -0.0617,0.446 -2.26166,0.4349 -2.2,-0.0111 -2.98225,-0.21588 -1.73834,-0.45508 z M 33.857034,139.57717 c 0,-0.20766 0.7875,-0.99516 1.75,-1.75 1.586056,-1.24387 1.621426,-1.2085 0.377555,0.37755 -1.306369,1.66575 -2.127555,2.19548 -2.127555,1.37245 z m 94.749996,-23.35969 c 2.8875,-0.202 7.6125,-0.202 10.5,0 2.8875,0.202 0.525,0.36728 -5.25,0.36728 -5.775,0 -8.1375,-0.16528 -5.25,-0.36728 z"
       id="path439" /><path
       style="fill:#606060;fill-opacity:1"
       d="m 29.421327,419.6616 c 0.375531,-0.98623 0.934692,-1.54123 1.242579,-1.23334 0.307887,0.30789 6.34e-4,1.1148 -0.682784,1.79313 -0.987616,0.98027 -1.102479,0.8654 -0.559795,-0.55979 z m 122.185703,-6.43027 c 1.7875,-0.22183 4.7125,-0.22183 6.5,0 1.7875,0.22182 0.325,0.40332 -3.25,0.40332 -3.575,0 -5.0375,-0.1815 -3.25,-0.40332 z m 13.51375,0.006 c 1.52007,-0.22985 3.77007,-0.22371 5,0.0136 1.22994,0.23736 -0.0137,0.42543 -2.76375,0.41792 -2.75,-0.008 -3.75631,-0.20171 -2.23625,-0.43157 z M 66.669534,395.27161 c 0.721875,-0.28887 1.584375,-0.25334 1.916667,0.0789 0.332292,0.33229 -0.258333,0.56864 -1.3125,0.52522 -1.164943,-0.048 -1.401899,-0.28494 -0.604167,-0.60417 z m 43.345396,-62.31689 c 0,-1.375 0.22697,-1.9375 0.50438,-1.25 0.27742,0.6875 0.27742,1.8125 0,2.5 -0.27741,0.6875 -0.50438,0.125 -0.50438,-1.25 z m 236.5921,-11.66228 c 0.6875,-0.27741 1.8125,-0.27741 2.5,0 0.6875,0.27741 0.125,0.50439 -1.25,0.50439 -1.375,0 -1.9375,-0.22698 -1.25,-0.50439 z m 5.0625,-0.0208 c 0.72188,-0.28887 1.58438,-0.25334 1.91667,0.0789 0.33229,0.33229 -0.25833,0.56864 -1.3125,0.52522 -1.16494,-0.048 -1.4019,-0.28494 -0.60417,-0.60417 z m 8.9375,0.0208 c 0.6875,-0.27741 1.8125,-0.27741 2.5,0 0.6875,0.27741 0.125,0.50439 -1.25,0.50439 -1.375,0 -1.9375,-0.22698 -1.25,-0.50439 z m -60.5921,-78.33772 c 0,-1.375 0.22697,-1.9375 0.50438,-1.25 0.27742,0.6875 0.27742,1.8125 0,2.5 -0.27741,0.6875 -0.50438,0.125 -0.50438,-1.25 z M 188.93598,227.37139 c 0.048,-1.16494 0.28494,-1.4019 0.60417,-0.60417 0.28887,0.72188 0.25334,1.58438 -0.079,1.91667 -0.33229,0.33229 -0.56864,-0.25833 -0.52522,-1.3125 z m 179.73355,0.90022 c 0.72188,-0.28887 1.58438,-0.25334 1.91667,0.0789 0.33229,0.33229 -0.25833,0.56864 -1.3125,0.52522 -1.16494,-0.048 -1.4019,-0.28494 -0.60417,-0.60417 z m 104.64371,-43.31689 c 0,-22.275 0.13167,-31.3875 0.2926,-20.25 0.16093,11.1375 0.16093,29.3625 0,40.5 -0.16093,11.1375 -0.2926,2.025 -0.2926,-20.25 z m -148.17019,24.5 c 0.008,-2.75 0.20171,-3.75631 0.43157,-2.23625 0.22985,1.52007 0.22371,3.77007 -0.0136,5 -0.23737,1.22994 -0.42543,-0.0137 -0.41792,-2.76375 z m -84.01698,-16.19299 c 0.97296,-0.25354 2.32296,-0.23687 3,0.0371 0.67703,0.27392 -0.11904,0.48136 -1.76904,0.46098 -1.65,-0.0204 -2.20393,-0.24449 -1.23096,-0.49804 z M 473.2352,121.95472 c 0,-6.325 0.16237,-8.9125 0.36082,-5.75 0.19845,3.1625 0.19845,8.3375 0,11.5 -0.19845,3.1625 -0.36082,0.575 -0.36082,-5.75 z m -367.07622,3.25388 c 5.39106,-0.18016 13.94106,-0.17937 19,0.002 5.05893,0.18112 0.64805,0.32851 -9.80195,0.32755 -10.45,-9.6e-4 -14.58912,-0.14914 -9.19805,-0.32929 z"
       id="path438" /><path
       style="fill:#494949;fill-opacity:1"
       d="m 29.935982,416.37139 c 0.04798,-1.16494 0.28494,-1.4019 0.604166,-0.60417 0.288871,0.72188 0.253345,1.58438 -0.07895,1.91667 -0.332292,0.33229 -0.56864,-0.25833 -0.525219,-1.3125 z M 455.35703,319.95472 c 2.14825,-2.2 4.1309,-4 4.4059,-4 0.275,0 -1.25765,1.8 -3.4059,4 -2.14824,2.2 -4.13089,4 -4.40589,4 -0.275,0 1.25765,-1.8 3.40589,-4 z m -52.5,-14.37755 c 0,-0.20766 0.7875,-0.99516 1.75,-1.75 1.58606,-1.24387 1.62143,-1.2085 0.37756,0.37755 -1.30637,1.66575 -2.12756,2.19548 -2.12756,1.37245 z m 59,-6.93536 c 0,-0.1721 1.4625,-1.6346 3.25,-3.25 l 3.25,-2.93709 -2.93709,3.25 c -2.73778,3.02946 -3.56291,3.70965 -3.56291,2.93709 z m 8.1579,-23.68709 c 0,-1.375 0.22697,-1.9375 0.50438,-1.25 0.27742,0.6875 0.27742,1.8125 0,2.5 -0.27741,0.6875 -0.50438,0.125 -0.50438,-1.25 z m -372.885532,-30 c 0,-2.475 0.195016,-3.4875 0.433369,-2.25 0.238353,1.2375 0.238353,3.2625 0,4.5 -0.238353,1.2375 -0.433369,0.225 -0.433369,-2.25 z m 202.806582,1.41667 c 0.048,-1.16494 0.28494,-1.4019 0.60417,-0.60417 0.28887,0.72188 0.25334,1.58438 -0.0789,1.91667 -0.33229,0.33229 -0.56864,-0.25833 -0.52522,-1.3125 z M 97.014929,220.95472 c 0,-1.375 0.226974,-1.9375 0.504386,-1.25 0.277412,0.6875 0.277412,1.8125 0,2.5 -0.277412,0.6875 -0.504386,0.125 -0.504386,-1.25 z M 260.66953,209.27161 c 0.72188,-0.28887 1.58438,-0.25334 1.91667,0.0789 0.33229,0.33229 -0.25833,0.56864 -1.3125,0.52522 -1.16494,-0.048 -1.4019,-0.28494 -0.60417,-0.60417 z m 7.9375,-0.0491 c 2.3375,-0.21054 6.1625,-0.21054 8.5,0 2.3375,0.21053 0.425,0.38279 -4.25,0.38279 -4.675,0 -6.5875,-0.17226 -4.25,-0.38279 z m -61.55902,-5.01456 c 6.98003,-0.17166 18.68003,-0.17213 26,-0.001 7.31996,0.17108 1.60902,0.31153 -12.69098,0.3121 -14.3,5.7e-4 -20.28906,-0.13941 -13.30902,-0.31106 z m 233.68147,-5.00324 c -1.24387,-1.58605 -1.2085,-1.62142 0.37755,-0.37755 0.9625,0.75484 1.75,1.54234 1.75,1.75 0,0.82303 -0.82118,0.2933 -2.12755,-1.37245 z M 35.935982,183.37139 c 0.04798,-1.16494 0.28494,-1.4019 0.604166,-0.60417 0.288871,0.72188 0.253345,1.58438 -0.07895,1.91667 -0.332292,0.33229 -0.56864,-0.25833 -0.525219,-1.3125 z m 452.682708,-2.12393 c 1.24392,-0.23919 3.04392,-0.23011 4,0.0202 0.95609,0.2503 -0.0617,0.446 -2.26166,0.4349 -2.2,-0.0111 -2.98225,-0.21588 -1.73834,-0.45508 z m -333.50947,-5.79274 c 0.0111,-2.2 0.21588,-2.98225 0.45508,-1.73834 0.23919,1.24392 0.23011,3.04392 -0.0202,4 -0.25029,0.95609 -0.44599,-0.0617 -0.43489,-2.26166 z m 331.99781,-5.18932 c 0.9625,-0.25153 2.5375,-0.25153 3.5,0 0.9625,0.25153 0.175,0.45732 -1.75,0.45732 -1.925,0 -2.7125,-0.20579 -1.75,-0.45732 z M 98.607034,151.29244 c 0.6875,-0.27741 1.812496,-0.27741 2.499996,0 0.6875,0.27741 0.125,0.50439 -1.249996,0.50439 -1.375,0 -1.9375,-0.22698 -1.25,-0.50439 z m 11.999996,0 c 0.6875,-0.27741 1.8125,-0.27741 2.5,0 0.6875,0.27741 0.125,0.50439 -1.25,0.50439 -1.375,0 -1.9375,-0.22698 -1.25,-0.50439 z m 50.65499,-58.587717 -1.90499,-2.25 2.25,1.904988 c 2.11445,1.790218 2.70524,2.595012 1.90499,2.595012 -0.18976,0 -1.20226,-1.0125 -2.25,-2.25 z"
       id="path437" /><path
       style="fill:#333333;fill-opacity:1"
       d="m 29.928119,451.20317 c -5.354281,-2.73021 -7.417868,-6.33081 -7.891516,-13.76931 -0.487159,-7.65068 0.820423,-11.45932 5.200138,-15.14662 l 3.120293,-2.62698 -0.333505,-14.10277 c -0.318306,-13.46004 -0.441148,-14.18451 -2.695413,-15.89641 -1.29905,-0.9865 -3.397957,-3.4615 -4.664239,-5.5 -8.29095,-13.34701 7.608602,-62.16411 36.30453,-111.46741 3.777407,-6.49007 7.607326,-14.06045 8.510933,-16.82307 4.516634,-13.80881 -3.20337,-31.23052 -16.699395,-37.68547 -2.432601,-1.16347 -11.172911,-3.95921 -19.422911,-6.21275 -8.25,-2.25353 -15.770543,-4.86691 -16.712319,-5.80749 -2.545165,-2.54196 -6.1678517,-26.0846 -4.7971409,-31.17503 1.4711629,-5.46349 12.3894809,-20.4377 30.6495579,-42.03514 3.059404,-3.61856 9.475095,-8.75478 18.755005,-15.01472 7.757693,-5.23309 16.354897,-11.14903 19.104897,-13.14652 5.659453,-4.11079 10.85924,-5.825059 17.693464,-5.83318 4.159622,-0.0049 4.896562,-0.349387 6.479022,-3.02829 2.13311,-3.611068 7.70231,-7.650794 12.40795,-9.000356 1.8735,-0.537312 9.96516,-0.976931 17.98146,-0.976931 18.69684,0 22.94021,1.156684 29.33888,7.997374 l 4.67937,5.002626 h 123.87029 123.87028 l 4.02931,-6.379965 c 6.6563,-10.539494 6.8445,-10.620035 24.81695,-10.620035 17.86807,0 21.41346,0.923367 23.1977,6.041655 0.62443,1.791236 1.13532,4.935556 1.13532,6.987378 v 3.730586 l 6.14874,0.444759 c 8.27784,0.598765 9.85126,2.500429 9.85126,11.906409 v 6.88921 h 7.04546 c 6.14702,0 7.35845,0.313 9.5,2.45455 l 2.45454,2.45454 v 26.43467 c 0,31.92796 0.37273,30.87068 -11.15976,31.65624 l -7.34024,0.5 -0.5,25.83996 c -0.49674,25.67154 -0.51538,25.8524 -2.86078,27.75 -1.29843,1.05052 -3.59119,1.91004 -5.09501,1.91004 -1.50383,0 -3.55763,0.90985 -4.564,2.02188 -1.69106,1.8686 -1.7129,2.26658 -0.28804,5.25 0.84794,1.77547 3.24552,5.25312 5.32793,7.72812 11.02294,13.10102 12.25777,29.68171 3.198,42.94123 -3.70353,5.42034 -34.76855,36.28277 -42.95807,42.67793 -7.32995,5.72391 -14.56041,9.00265 -22.76003,10.32081 -8.53607,1.37224 -100.3511,1.39365 -108.78281,0.0254 -8.41492,-1.36557 -13.84051,-3.89121 -39.06072,-18.18304 -11.79049,-6.68145 -23.72215,-12.74079 -26.51479,-13.46519 -2.79264,-0.7244 -8.47934,-1.3171 -12.6371,-1.3171 -11.91667,0 -12.94741,1.24005 -18.33192,22.05442 -2.32336,8.98119 -4.98569,16.37571 -8.01823,22.27034 -5.00998,9.73834 -9.00077,21.05489 -10.588,30.02397 -0.95672,5.40622 -0.84971,6.16494 1.4144,10.02834 1.73824,2.96608 2.74596,6.79737 3.47076,13.19555 0.60251,5.31872 2.10138,11.66326 3.6551,15.47166 3.06913,7.52288 3.44509,15.42088 0.91769,19.27818 -3.83712,5.85618 -1.09569,5.67769 -87.1755,5.67599 -73.091559,-0.001 -79.099245,-0.12922 -82.277791,-1.75 z M 190.25005,440.37294 c 1.06282,-2.76968 0.65751,-5.70491 -1.048,-7.58948 -1.57586,-1.7413 -5.31353,-1.82874 -78.17126,-1.82874 -69.795877,0 -76.676892,0.14536 -78.345015,1.65499 -2.050984,1.85612 -2.336972,4.52686 -0.793557,7.41075 1.009935,1.88709 2.94638,1.93426 79.393012,1.93426 70.5296,0 78.41847,-0.15802 78.96482,-1.58178 z m -7.9748,-27.02521 c 2.19244,-0.84131 1.98248,-4.10819 -0.34405,-5.35331 -1.05921,-0.56688 -11.07171,-4.68048 -22.25,-9.14134 -32.41716,-12.93654 -52.17474,-23.86304 -60.91199,-33.68604 -5.49786,-6.18106 -9.912307,-15.70039 -11.265205,-24.29233 l -1.089629,-6.91999 H 73.100168 59.785959 l -1.90248,4.43831 c -4.463257,10.41236 -10.97959,36.84831 -11.009081,44.66247 -0.03006,7.96423 3.500716,14.75397 9.482636,18.23528 1.359929,0.79144 12.56118,1.32396 35,1.66394 l 32.999996,0.5 7.72002,4.2594 c 4.24601,2.34267 9.42101,4.65997 11.5,5.14955 4.29189,1.0107 36.28299,1.41087 38.6982,0.48406 z M 59.257034,391.55472 c -2.774207,-2.7742 -3.4,-4.16377 -3.4,-7.54966 0,-2.28231 0.682617,-5.46969 1.516927,-7.08307 3.141708,-6.07539 12.061305,-7.87593 17.276641,-3.48751 6.171143,5.19267 6.628926,12.9439 1.091496,18.48133 -2.57856,2.57856 -3.799832,3.03891 -8.061987,3.03891 -4.379185,0 -5.458911,-0.43583 -8.423077,-3.4 z m 11.6,-8.01274 c 0,-2.27813 -2.952252,-4.10715 -4.774303,-2.95783 -2.324164,1.46605 -2.537925,2.91549 -0.700894,4.75252 1.224123,1.22412 2.080514,1.36446 3.544643,0.58089 1.061805,-0.56826 1.930554,-1.63727 1.930554,-2.37558 z m 109.366566,2.95091 c 0.7767,-6.60846 4.81153,-19.71742 8.755,-28.44453 2.5932,-5.7389 2.76883,-6.75474 1.68572,-9.75002 -1.09941,-3.04038 -0.74442,-4.77218 3.91392,-19.09363 5.07622,-15.60615 7.83164,-27.3669 6.95005,-29.66429 -0.25144,-0.65525 -4.21784,-3.37233 -8.81421,-6.03794 -16.15809,-9.3707 -23.0699,-17.17487 -27.43788,-30.98034 -2.06274,-6.5195 -2.69737,-11.13737 -3.30758,-24.06742 -0.68432,-14.50051 -1.01878,-16.5855 -3.56877,-22.24747 -3.15682,-7.00939 -9.30511,-13.33363 -15.85251,-16.30618 -3.61991,-1.64346 -6.66685,-1.90541 -22.38369,-1.92438 l -18.19339,-0.022 -4.970056,5.25511 c -2.733532,2.8903 -5.902252,6.44019 -7.041601,7.88864 l -2.071544,2.63354 2.973922,5.86136 c 6.331305,12.47848 7.822117,28.23613 3.879531,41.00602 -2.331952,7.5531 -8.168978,19.63559 -15.311214,31.69381 -5.100383,8.61097 -13.903514,25.86365 -15.007139,29.41152 l -0.6999,2.25 h 12.426695 12.426695 l 2.148629,-6.54517 c 3.553166,-10.82369 8.544152,-20.33137 19.184832,-36.54654 5.56115,-8.47456 10.81919,-16.19579 11.68454,-17.15829 1.97969,-2.20194 5.06297,-2.24134 7.43464,-0.095 2.56335,2.3198 2.28731,5.1432 -1.11743,11.42937 -4.55767,8.41485 -11.53771,27.27027 -14.54996,39.30436 -3.28068,13.10643 -3.62926,22.91951 -1.08214,30.46384 3.47212,10.28408 18.28055,23.14797 40.09528,34.83025 10.45063,5.59655 24.48973,12.19656 26.09531,12.26782 0.61287,0.0272 1.40056,-2.40308 1.75425,-5.41246 z M 103.17086,231.0045 c -3.917457,-2.38865 -5.313826,-4.86376 -5.313826,-9.41894 0,-5.2092 1.567126,-8.39639 5.225076,-10.62664 8.09382,-4.9348 17.77492,0.50941 17.77492,9.9958 0,9.43231 -9.67892,14.93214 -17.68617,10.04978 z m 8.50631,-9.80425 c 0.40702,-2.86629 -2.41028,-4.08395 -4.53442,-1.95981 -2.12414,2.12414 -0.90648,4.94144 1.95981,4.53442 1.45196,-0.20618 2.36843,-1.12265 2.57461,-2.57461 z M 39.398524,366.45472 c 6.980361,-30.84961 16.435032,-53.82499 37.036181,-90 3.445389,-6.05 7.19989,-13.7983 8.343336,-17.21845 3.984297,-11.91739 2.072089,-26.38375 -4.929801,-37.29525 -7.163985,-11.1641 -20.972844,-19.5981 -33.85608,-20.67819 -7.673474,-0.64331 -10.133753,0.92201 -3.385126,2.15375 6.926473,1.2642 18.048871,7.38049 23.702649,13.03427 13.820865,13.82087 16.35118,33.07657 6.828009,51.96116 -1.398622,2.77349 -5.657168,10.31555 -9.463434,16.76013 -13.618993,23.059 -24.286494,47.81108 -29.966652,69.5324 -3.954058,15.12059 -4.167828,21.21139 -0.867901,24.72842 3.02335,3.22225 2.787549,3.68884 6.558819,-12.97824 z m 73.179486,-3.36721 c -10.95579,-11.71262 -14.37788,-28.50311 -9.30048,-45.63279 1.43924,-4.85559 1.42999,-4.93712 -0.32032,-2.82311 -0.9913,1.19729 -2.82809,5.36692 -4.081759,9.26584 -3.891947,12.10397 -2.107971,23.20586 5.363799,33.37952 1.9675,2.67899 11.24537,10.67775 12.38525,10.67775 0.27842,0 -1.5425,-2.19024 -4.04649,-4.86721 z m 309.67977,-28.53009 c 4.49773,-2.20841 10.56082,-7.41486 25.5,-21.89715 10.77959,-10.44992 21.05863,-21.07114 22.8423,-23.6027 5.84365,-8.29386 6.05251,-17.34204 0.59009,-25.56374 -1.55822,-2.34534 -4.63314,-7.00575 -6.83314,-10.35647 l -4,-6.09221 -5.93427,-0.0452 c -7.70839,-0.0587 -13.80222,-2.91647 -15.97276,-7.49054 -1.19066,-2.50912 -1.59297,-6.48262 -1.59297,-15.73329 0,-13.55711 -0.65627,-15.55803 -6.01104,-18.32709 -2.45413,-1.26908 -10.6667,-1.49429 -54.49156,-1.49429 h -51.60191 l 0.30225,5.25 0.30226,5.25 20.5,0.72605 c 11.275,0.39932 30.4,1.07432 42.5,1.5 20.38764,0.71723 22.26704,0.94001 25.64354,3.03972 6.90283,4.29257 7.01229,5.01527 6.66538,44.00953 -0.29216,32.84145 -0.42311,34.97151 -2.41457,39.27551 -3.07843,6.65318 -7.77583,11.49811 -14.21274,14.65911 l -5.68161,2.79008 -49.5,0.31895 c -33.82901,0.21797 -51.12669,-0.0343 -54.63824,-0.79671 -5.30967,-1.15287 -19.62367,-8.96034 -42.86176,-23.37863 -14.98209,-9.29579 -20.57648,-14.09743 -24.56835,-21.08692 l -2.84658,-4.98418 -2.62608,5.73612 c -2.36488,5.16557 -8.83663,28.64706 -8.0988,29.38489 0.16565,0.16565 2.85945,-0.17174 5.98623,-0.74976 6.71193,-1.24077 21.41977,0.0961 27.08092,2.46143 2.01833,0.84332 12.31036,6.4391 22.87118,12.43508 22.6794,12.87638 26.88125,15.06517 32.20148,16.77406 3.09274,0.99341 16.58827,1.23956 59.5,1.08525 l 55.5,-0.19958 z m 21.09925,-42.20816 c -10.37625,-5.66449 -14.22471,-16.63767 -9.25,-26.37468 1.2375,-2.42216 3.97927,-5.78001 6.09283,-7.46189 3.42701,-2.72708 4.57108,-3.05797 10.57326,-3.05797 5.47238,0 7.38784,0.45045 10.24736,2.40983 5.84414,4.00447 8.24033,8.44632 8.62096,15.98079 0.3921,7.76137 -1.38153,11.84875 -7.17686,16.5393 -3.04575,2.46513 -4.75541,3.0338 -9.89474,3.29119 -4.35401,0.21806 -7.11037,-0.17883 -9.21281,-1.32657 z m 13.82796,-10.43787 c 3.38685,-2.6641 4.35387,-7.73749 2.25019,-11.80554 -3.0536,-5.90501 -9.53223,-6.95096 -14.66237,-2.36718 -8.98426,8.02743 2.9299,21.63149 12.41218,14.17272 z m -56.82569,25.54333 c 3.17924,-1.9696 5.64192,-4.51374 7.17009,-7.40728 2.29661,-4.34852 2.32764,-4.83416 2.32764,-36.42126 0,-28.38602 -0.18755,-32.22122 -1.65498,-33.84272 -1.50161,-1.65925 -3.61007,-1.83202 -22.75,-1.86417 -16.40233,-0.0275 -21.65115,-0.35335 -23.59502,-1.46457 -1.97551,-1.1293 -7.63998,-1.43578 -27,-1.46082 -22.57155,-0.0292 -24.75199,0.12195 -27.70145,1.92034 -6.08289,3.70896 -8.15395,11.65561 -6.37363,24.45567 1.38297,9.94317 6.23457,24.61688 10.27763,31.08481 3.85849,6.17266 4.17057,10.9697 0.88667,13.62884 -5.02161,4.06626 -13.08102,1.35289 -19.28173,-6.4916 -8.98313,-11.36451 -13.38592,-24.29504 -12.53162,-36.80399 0.51486,-7.5388 0.48167,-7.67729 -1.98864,-8.29729 -4.13788,-1.03854 -12.71862,-10.41896 -14.61093,-15.97259 -0.92196,-2.7058 -1.6763,-5.74806 -1.6763,-6.76056 0,-1.49125 -0.52233,-1.72366 -2.75,-1.22362 -6.23622,1.39983 -10.04374,6.28103 -20.42128,26.1798 -6.06049,11.62091 -6.44688,16.88681 -1.8298,24.93727 2.44141,4.2569 4.74462,6.35688 12.74062,11.61645 16.09435,10.58646 41.45443,25.03356 46.26046,26.35361 3.33154,0.91506 16.85459,1.18377 52.07991,1.03484 l 47.5799,-0.20116 z M 207.81176,281.36211 c 1.04906,-3.78324 1.8259,-6.91751 1.72633,-6.96504 -4.74116,-2.26305 -10.19987,-6.30959 -12.60072,-9.34092 -5.39797,-6.81549 -6.27216,-10.23974 -7.04648,-27.60143 -0.98488,-22.08304 -3.73326,-27.87862 -16.64472,-35.09912 -12.35395,-6.90872 -17.3625,-14.70404 -17.37937,-27.04933 -0.008,-5.99132 0.46721,-8.05519 2.93682,-12.75 l 2.94658,-5.60155 h -13.40217 c -12.6466,0 -13.60987,0.14095 -17.08613,2.5 -3.55653,2.41353 -4.24122,2.49924 -19.79441,2.47804 -18.061643,-0.0246 -21.940161,-1.01586 -26.862035,-6.86518 -6.782163,-8.06014 -4.045916,-21.76722 5.405647,-27.07929 3.463955,-1.94685 5.010343,-2.0566 25.410168,-1.80329 l 21.72174,0.26972 2.07177,2.77613 c 2.03549,2.72751 2.04159,2.89388 0.34861,9.5 -0.94773,3.69813 -1.71937,7.03453 -1.71475,7.41423 0.005,0.37969 12.04589,0.82969 26.75839,1 25.5371,0.2956 26.94145,0.41194 30.9722,2.56578 2.32221,1.24088 5.75662,3.60338 7.63202,5.25 l 3.40981,2.99386 h 53.54541 53.5454 l 2.07258,2.63486 c 1.88566,2.39723 2.07258,3.97553 2.07258,17.5 v 14.86514 h 56.03212 c 61.76228,0 60.0681,-0.15979 66.8032,6.30068 5.79961,5.56313 6.53967,7.92 7.12763,22.69932 l 0.53705,13.5 6.05486,0.29266 c 6.01632,0.29078 6.07042,0.26871 8.5,-3.46842 2.28022,-3.50738 4.95974,-5.46972 9.20651,-6.74236 1.64962,-0.49434 1.74479,-3.0832 1.5,-40.80485 l -0.26137,-40.27703 -126.64515,-0.5 c -124.8796,-0.49303 -126.67608,-0.52788 -128.86392,-2.5 -1.22032,-1.1 -5.54532,-8.6375 -9.6111,-16.75 l -7.39234,-14.75 h -15.59253 -15.59254 l -2.80242,3 -2.80242,3 H 132.8789 101.70319 l -3.000002,-3 c -3.246652,-3.24665 -8.048873,-3.98898 -12.161895,-1.88 -3.490525,1.78979 -8.684259,7.12395 -8.684259,8.91907 0,0.9057 -4.05,15.53804 -9,32.51631 -4.95,16.97827 -9,31.42036 -9,32.09354 0,0.93859 9.034274,1.30006 38.75,1.55039 37.368646,0.3148 38.945246,0.40584 44.227186,2.55382 13.19253,5.36493 23.24576,15.79282 27.06565,28.07433 1.55044,4.98489 2.27688,11.03201 2.87219,23.90876 0.76109,16.46276 0.93552,17.51729 3.88725,23.5 1.69972,3.44508 5.02705,8.155 7.39406,10.46649 4.01573,3.92153 20.69303,14.74126 21.49135,13.94294 0.19781,-0.19781 1.21798,-3.45503 2.26704,-7.23826 z m 87.46136,-10.90739 c -1.85893,-5.5 -3.38803,-11.43594 -3.39798,-13.19098 -0.01,-1.75504 -0.53383,-3.50972 -1.16416,-3.89928 -1.50709,-0.93144 -0.30217,10.20014 1.76229,16.28088 1.46369,4.3112 5.37668,11.66718 5.90572,11.10208 0.15071,-0.16098 -1.24693,-4.7927 -3.10587,-10.2927 z m -75.62476,-11.25 c 1.64989,-2.6125 6.91152,-11.95 11.6925,-20.75 11.65907,-21.45998 12.78327,-22.99432 19.11896,-26.09409 4.90677,-2.40066 6.32675,-2.60709 17.3019,-2.51534 12.62869,0.10558 15.09531,-0.28999 15.09531,-2.42083 0,-2.14752 5.16836,-7.64213 8.49629,-9.03263 1.69932,-0.71002 5.88283,-1.60696 9.2967,-1.99319 l 6.20701,-0.70225 v -4.87083 -4.87084 l -20.75,0.003 -20.75,0.003 -3.5,6.74241 c -2.657,5.11846 -4.46342,7.28154 -7.5,8.98082 -3.88134,2.17201 -4.85283,2.2389 -32.75,2.25486 -15.8125,0.009 -28.75,0.25938 -28.75,0.55629 0,0.29691 0.93349,2.36962 2.07441,4.60602 3.02984,5.93897 4.88508,16.03914 4.93268,26.85414 0.0488,11.08246 1.25988,17.24528 4.10489,20.88813 2.38474,3.0535 8.66628,7.09938 11.03378,7.10675 0.90516,0.003 2.99567,-2.13238 4.64557,-4.74488 z m 71.08266,-26.66384 c 0.61128,-2.42762 2.60208,-6.36512 4.424,-8.75 l 3.31257,-4.33616 -13.30528,0.30412 c -7.3179,0.16726 -13.30528,0.51922 -13.30528,0.78212 0,1.58578 3.43882,8.25997 5.29773,10.28203 2.14643,2.33483 9.0673,6.06578 11.33356,6.10977 0.62221,0.0121 1.63142,-1.96427 2.2427,-4.39188 z M 33.607034,192.35717 c 2.505011,-0.38005 3.25,-0.98548 3.25,-2.6412 0,-5.98157 -2.266558,-30.36018 -2.882908,-31.00795 -0.681252,-0.71597 -11.54751,13.25388 -14.056724,18.07157 -1.244397,2.38924 -0.825441,7.75661 1.0869,13.92458 1.095136,3.5322 0.623833,3.47038 12.602732,1.653 z m 213.838496,0.12502 c 3.11757,-1.3026 4.15245,-2.80431 8.96788,-13.01328 2.994,-6.34741 5.44362,-11.75977 5.44362,-12.02747 0,-0.26769 -11.36842,-0.48672 -25.26315,-0.48672 h -25.26316 l -1.3e-4,7.75 c -1.1e-4,6.89327 -0.35887,8.38564 -3.24539,13.5 l -3.24526,5.75 h 19.54066 c 14.94525,0 20.36948,-0.34629 23.06493,-1.47253 z m -55.10888,-1.8143 c 11.34178,-6.42363 11.30954,-23.65015 -0.0567,-30.31122 -12.03803,-7.05476 -26.42289,1.54038 -26.42289,15.78803 0,6.35379 2.44944,10.84848 7.92168,14.53623 4.63431,3.12306 13.03116,3.11716 18.55794,-0.013 z m -16.07043,-8.10398 c -3.0025,-3.0025 -3.34387,-3.87815 -2.98091,-7.64635 0.58923,-6.11746 4.18691,-9.46284 10.17648,-9.46284 3.88601,0 4.99021,0.48227 7.47727,3.26578 6.36502,7.12369 1.59413,17.23422 -8.13237,17.23422 -2.24696,0 -4.12147,-0.97181 -6.54047,-3.39081 z m 130.40118,-11.35919 -0.31037,-3.75 -16.29059,-0.27496 -16.2906,-0.27497 -1.4594,3.49285 c -0.80267,1.92106 -1.45941,3.7323 -1.45941,4.02496 0,0.29267 8.12717,0.53212 18.06037,0.53212 h 18.06036 z m 185.9596,-21.39306 0.26996,-20.64306 -4.07192,-0.38832 c -2.23955,-0.21357 -4.27353,-0.1867 -4.51996,0.0597 -0.24642,0.24643 -0.44805,9.84892 -0.44805,21.33888 v 20.89083 l 4.25,-0.3075 4.25,-0.3075 z m -366.09307,-4.85694 c 1.19729,-3.575 2.20979,-7.0625 2.25,-7.75 0.0557,-0.95258 -3.86366,-1.25 -16.47235,-1.25 -16.233446,0 -16.591742,0.0463 -19,2.45455 -3.12601,3.12601 -3.213475,7.50636 -0.204546,10.24386 3.35961,3.05655 4.162319,3.18793 18.249996,2.987 l 13,-0.18541 z m -63.257153,-8.45676 c 1.419141,-4.92623 2.580257,-9.32756 2.580257,-9.78073 0,-1.13584 -11.092797,5.91742 -13.25,8.4249 -0.9625,1.11879 -1.75,2.50398 -1.75,3.07821 0,1.68482 8.169556,8.96773 9.042767,8.06136 0.438195,-0.45484 1.957834,-4.85752 3.376976,-9.78374 z M 473.85703,121.45472 v -11.5 h -5.45454 c -4.48485,0 -5.89899,0.44445 -7.95455,2.5 -2.4772,2.4772 -2.66045,2.5 -20.0932,2.5 -17.48157,0 -17.6079,-0.0159 -19.91013,-2.5 l -2.31692,-2.5 H 315.48325 212.8388 l 4.95547,9.87492 c 2.7255,5.43121 5.68675,10.60621 6.58054,11.5 1.48262,1.48263 12.48893,1.62508 125.55365,1.62508 H 473.85703 Z M 156.91476,104.06258 c -0.55695,-1.04067 -2.40731,-3.06567 -4.11191,-4.499995 -3.06533,-2.579309 -3.27946,-2.607862 -19.55772,-2.607862 -17.92501,0 -18.99854,0.276683 -23.2182,5.984077 l -2.22977,3.01592 h 25.06512 c 24.27896,0 25.03336,-0.0593 24.05248,-1.89214 z m 299.94227,-5.107857 v -6 h -12.46772 -12.46772 l -3.98531,6 -3.98531,5.999997 h 16.45303 16.45303 z"
       id="path436" /></g><path
     style="fill:#ffffff;stroke:none;stroke-width:3.99944;stroke-linecap:round;stroke-dasharray:none"
     d="m 18.281013,195.8121 c -1.139198,-0.29549 -1.369313,-0.66865 -2.220207,-3.60031 -1.638401,-5.64493 -1.985276,-10.45043 -0.922471,-12.7796 1.711919,-3.75171 13.311678,-18.85663 13.954132,-18.17072 0.221452,0.23643 0.434756,1.57686 0.891122,5.59993 0.521015,4.59297 0.935978,8.90635 1.346571,13.99709 0.258247,3.20189 0.267246,3.66413 0.07407,3.80543 -0.477843,0.34956 -0.396207,2.54858 0.09462,2.54858 0.300548,0 0.408427,0.9248 0.423887,3.63381 l 0.01307,2.29073 -0.492863,0.49286 c -0.685064,0.68506 -1.466837,0.88139 -6.219482,1.56189 -4.474412,0.64066 -6.251747,0.79947 -6.942452,0.62031 z"
     id="path444" /><path
     style="fill:#ffffff;stroke:none;stroke-width:5.65606;stroke-linecap:round;stroke-dasharray:none"
     d="m 53.463315,147.89669 c -2.57592,-1.63358 -6.863386,-5.85154 -7.163525,-7.04739 -0.287153,-1.14411 1.764584,-3.66769 4.768707,-5.86538 3.533377,-2.58486 8.921436,-5.82316 9.688895,-5.82316 0.288714,0 0.318827,-0.13718 -1.175315,5.35431 -2.210684,8.12505 -4.154352,13.90647 -4.710895,14.01252 -0.174683,0.0333 -0.808223,-0.25062 -1.407867,-0.6309 z"
     id="path445" /><path
     style="fill:#ffffff;stroke:none;stroke-width:5.65606;stroke-linecap:round;stroke-dasharray:none"
     d="m 30.11015,383.08248 c 0.104948,-0.40132 -1.287075,-1.79817 -2.51451,-2.52323 -1.464567,-0.86514 -2.058338,-5.5846 -1.333873,-10.602 1.038709,-7.19374 4.6943,-20.58735 8.486896,-31.09487 6.432237,-17.82073 13.746785,-33.15084 25.287843,-52.99923 8.024538,-13.80065 9.958081,-17.60741 11.791516,-23.21517 1.224689,-3.74584 2.249472,-9.37228 2.249472,-12.35043 0,-0.99348 0.06142,-1.22528 0.300385,-1.13359 0.442004,0.16962 0.808378,-0.66743 0.639006,-1.45993 -0.161113,-0.75386 -0.48468,-1.24621 -0.722429,-1.09928 -0.08652,0.0535 -0.222046,-0.77857 -0.301176,-1.84898 -0.563591,-7.62375 -3.802862,-15.6638 -8.940204,-22.19007 -5.947545,-7.55552 -17.442759,-14.67152 -27.292007,-16.89486 -2.575715,-0.58143 -3.872051,-1.06172 -3.684543,-1.36512 0.398354,-0.64455 3.909608,-0.88889 4.486305,-0.3122 0.266599,0.2666 0.611512,0.30662 1.726063,0.20029 3.262637,-0.31128 6.043244,0.13713 10.678954,1.72212 2.852028,0.97513 7.966921,3.52355 10.592151,5.27739 10.810329,7.22203 17.200849,16.70699 19.62052,29.12121 0.518762,2.66153 0.569837,3.37017 0.582926,8.08778 0.01549,5.58232 -0.260174,7.84022 -1.430029,11.71311 -1.286994,4.26069 -4.720446,11.40498 -9.990489,20.78813 -16.712263,29.75563 -25.306821,49.24209 -31.80431,72.10997 -1.697381,5.97393 -2.370336,8.65761 -4.674195,18.64023 -1.957701,8.48272 -2.595064,10.77551 -3.172945,11.41406 -0.463307,0.51195 -0.713016,0.51825 -0.581327,0.0147 z"
     id="path446" /><path
     style="fill:#ffffff;stroke:none;stroke-width:5.65606;stroke-linecap:round;stroke-dasharray:none"
     d="m 97.081616,153.79898 c -0.406266,-0.12217 -1.64089,-0.23742 -2.743611,-0.25612 -1.736332,-0.0294 -2.166719,-0.11409 -3.212424,-0.63175 -1.67774,-0.83055 -3.628973,-2.74774 -4.309578,-4.23437 -0.480688,-1.04996 -0.537298,-1.4018 -0.452623,-2.81309 0.112308,-1.87185 0.669013,-3.14732 2.0642,-4.72931 1.099455,-1.24666 2.263079,-1.93159 3.905479,-2.29884 1.760551,-0.39367 26.837701,-0.40287 29.332831,-0.0108 2.36215,0.37121 2.37671,0.3963 1.69074,2.91428 -0.7963,2.92295 -3.64189,11.48181 -3.93469,11.83461 -0.23515,0.28333 -2.22682,0.2914 -12.31559,0.0499 -0.69646,-0.0167 -1.78863,0.0687 -2.42704,0.18981 -1.49631,0.28376 -6.638587,0.27403 -7.597694,-0.0144 z"
     id="path447" /><path
     style="fill:#ffffff;stroke:none;stroke-width:5.65606;stroke-linecap:round;stroke-dasharray:none"
     d="m 103.41303,108.15878 c 0,-0.32619 3.60217,-4.91629 4.52756,-5.76929 1.99578,-1.83965 4.72057,-2.618346 9.08497,-2.596335 1.50898,0.0076 6.21005,0.07021 10.44682,0.139106 4.23677,0.0689 8.03562,0.05417 8.44188,-0.03273 l 0.73867,-0.158 -0.94971,-0.151442 c -0.52235,-0.08329 0.75976,-0.10443 2.84913,-0.04697 3.98541,0.109603 6.10701,0.414873 7.35201,1.057861 1.65229,0.85332 5.92114,5.07639 6.18199,6.11567 0.17548,0.6992 -0.0576,0.88935 -1.41653,1.15572 -1.2938,0.2536 -47.25679,0.53217 -47.25679,0.28641 z"
     id="path448" /><path
     style="fill:#ffffff;stroke:none;stroke-width:11.3121;stroke-linecap:round;stroke-dasharray:none"
     d="m 168.8111,392.17417 c -6.37467,-2.82947 -19.86114,-9.61696 -25.29915,-12.7326 -19.80204,-11.34534 -32.97322,-23.38621 -35.88156,-32.80233 -1.77913,-5.76012 -2.04366,-10.3386 -1.04711,-18.12298 1.62624,-12.70307 8.29246,-33.26812 16.0266,-49.4415 4.31948,-9.03274 4.50265,-11.26086 1.13356,-13.78869 -1.70642,-1.28032 -5.13664,-1.17108 -6.62693,0.21104 -1.26666,1.17474 -15.06751,21.78941 -19.215321,28.7024 -5.821405,9.70231 -9.812759,18.26787 -13.030445,27.96372 -0.872145,2.62803 -1.581998,4.11542 -1.964084,4.11542 -0.329084,0 -0.598334,-0.18994 -0.598334,-0.4221 0,-0.23449 -1.125584,-0.42209 -2.532563,-0.42209 -1.40698,0 -2.532564,0.1876 -2.532564,0.42209 0,0.26827 -3.297863,0.4221 -9.049401,0.4221 h -9.0494 l 0.670826,-2.00495 c 0.98315,-2.93841 10.743484,-21.97909 15.524341,-30.28524 10.300632,-17.89607 15.741653,-30.79382 16.508389,-39.13254 0.134256,-1.46012 0.534219,-3.57789 0.888807,-4.70616 0.678848,-2.16002 0.523614,-5.41306 -0.27095,-5.67792 -0.247128,-0.0824 -0.449323,-1.00633 -0.449323,-2.05324 0,-2.32081 -1.343987,-9.06827 -2.549449,-12.79947 -0.487518,-1.50899 -2.040842,-5.15811 -3.451831,-8.10916 l -2.565436,-5.36555 1.064438,-1.38795 c 1.363385,-1.77777 5.019851,-5.87988 9.420359,-10.56851 l 3.466367,-3.69332 13.874964,0.007 c 16.20187,0.008 22.24208,0.40423 25.45225,1.66956 7.358,2.90025 14.66675,10.80584 17.67429,19.11757 1.34559,3.71874 1.97674,8.00561 2.4072,16.35027 0.84401,16.36135 1.65508,22.16301 4.05319,28.99297 1.7675,5.03389 4.58162,10.39304 7.09587,13.51321 1.14427,1.42002 1.97946,2.6829 1.85597,2.80638 -0.44225,0.44226 3.38874,4.52298 4.13302,4.40243 0.40391,-0.0654 2.03108,0.86432 3.61594,2.06608 1.58485,1.20177 5.67139,3.88764 9.08121,5.96861 8.23989,5.02872 9.58755,6.01066 9.90779,7.21904 0.64272,2.42522 -2.21608,13.9501 -7.72668,31.14911 -3.47241,10.83768 -3.38468,10.25822 -3.02156,19.95802 0.0744,1.98863 -0.25392,3.118 -2.29005,7.87627 -3.07215,7.17939 -6.43558,17.59571 -7.52152,23.29369 -1.45822,7.65141 -1.78514,8.70764 -2.72551,8.80581 -0.46306,0.0483 -2.46835,-0.63402 -4.45621,-1.51636 z M 107.87727,234.90929 c 3.18511,-0.94587 5.42214,-2.82352 6.90906,-5.7991 0.70923,-1.41931 1.28952,-2.91428 1.28952,-3.32215 0,-0.40788 0.21991,-0.8149 0.48869,-0.9045 0.60747,-0.20249 0.57156,-3.00113 -0.0411,-3.20536 -0.24616,-0.0821 -0.44942,-0.46576 -0.45169,-0.85268 -0.0166,-2.82701 -4.32114,-7.90401 -7.51203,-8.86003 -2.30242,-0.68981 -5.90081,-0.61965 -8.18797,0.15967 -3.602837,1.22761 -7.051428,5.18083 -7.07968,8.11564 -0.0051,0.52963 -0.294183,1.07229 -0.642411,1.20592 -0.68823,0.2641 -0.926945,3.52939 -0.258022,3.52939 0.206315,0 0.507086,0.70345 0.668381,1.56322 0.630136,3.35892 2.454661,5.62044 6.012857,7.45299 2.938575,1.51343 5.794405,1.81087 8.804425,0.91699 z"
     id="path449" /><path
     style="fill:#ffffff;stroke:none;stroke-width:11.3121;stroke-linecap:round;stroke-dasharray:none"
     d="m 155.11954,415.74453 c -0.92861,-0.18868 -4.72745,-0.34296 -8.44188,-0.34285 -5.71435,1.7e-4 -7.13083,-0.13225 -9.20574,-0.86062 -2.55053,-0.89533 -10.36432,-4.74103 -14.99969,-7.38239 l -2.67864,-1.52635 -7.45162,-0.0827 c -4.09839,-0.0455 -6.16951,-0.14912 -4.60248,-0.23034 1.56702,-0.0812 2.84913,-0.32892 2.84913,-0.55047 0,-0.53828 -6.6313,-0.51992 -6.96455,0.0193 -0.1512,0.24465 -2.4241,0.41937 -5.406608,0.41563 -3.520876,-0.004 -4.945814,-0.13747 -4.512598,-0.42134 0.419663,-0.27499 -5.628885,-0.41099 -17.938994,-0.40336 -10.214675,0.006 -19.77995,-0.17243 -21.256169,-0.39728 -3.336177,-0.50813 -5.491009,-1.92858 -7.917488,-5.21914 -2.80538,-3.80439 -3.717604,-6.56013 -3.629308,-10.96379 0.04073,-2.03133 -0.08071,-3.69333 -0.269867,-3.69333 -0.772829,0 1.210624,-10.88986 3.959276,-21.73784 2.94045,-11.60493 8.382199,-27.20524 8.944597,-25.64221 0.229448,0.63769 4.762528,0.73813 4.762528,0.10553 0,-0.23215 0.296124,-0.4221 0.658052,-0.4221 0.361928,0 0.540661,0.18995 0.397183,0.4221 -0.164389,0.26599 0.82808,0.42209 2.683526,0.42209 1.960574,0 3.015531,-0.17629 3.157292,-0.52762 0.170319,-0.42209 0.219563,-0.42209 0.246222,0 0.02084,0.32997 0.675149,0.52762 1.74661,0.52762 1.034707,0 1.609965,-0.16718 1.452418,-0.42209 -0.147954,-0.2394 0.206664,-0.4221 0.819277,-0.4221 0.59408,0 1.080146,0.18995 1.080146,0.4221 0,0.24387 1.336631,0.42209 3.165705,0.42209 1.829074,0 3.165705,-0.17822 3.165705,-0.42209 0,-0.23215 0.569826,-0.4221 1.266282,-0.4221 0.696455,0 1.266281,0.12136 1.266281,0.26968 0,1.71278 2.024357,11.3524 2.993018,14.25222 6.923747,20.72711 21.595414,30.86967 76.993794,53.22599 15.78801,6.37134 16.50335,6.71381 17.00018,8.13901 0.83306,2.38972 -0.63147,3.76473 -3.44721,3.2365 -0.82685,-0.15512 -2.1629,-0.0462 -3.05835,0.24932 -1.17901,0.38911 -1.63169,0.39992 -1.75106,0.0418 -0.21365,-0.64096 -1.98818,-0.61544 -3.10617,0.0447 -0.71489,0.42209 -0.93182,0.42209 -1.08468,0 -0.23514,-0.6493 -6.45213,-0.75098 -6.45213,-0.10553 0,0.4866 -1.98817,0.47851 -4.43199,-0.018 z m -90.961255,-17.6728 c 0,-0.21175 0.807255,-0.51415 1.7939,-0.672 2.416488,-0.38661 4.695044,-2.01519 6.661412,-4.76119 3.086458,-4.31019 3.163443,-9.42584 0.208819,-13.87583 -5.815624,-8.75896 -18.673037,-6.87228 -21.308724,3.12682 -0.260073,0.98664 -0.65548,1.7939 -0.878683,1.7939 -0.223204,0 -0.405825,0.75977 -0.405825,1.68838 0,0.9286 0.189942,1.68837 0.422094,1.68837 0.232152,0 0.422094,0.63223 0.422094,1.40497 0,3.00611 4.579458,7.84989 8.309521,8.78913 1.001404,0.25216 1.820734,0.62586 1.820734,0.83045 0,0.20459 0.664798,0.37199 1.477329,0.37199 0.812531,0 1.477329,-0.17325 1.477329,-0.38499 z"
     id="path450" /><path
     style="fill:#ffffff;stroke:none;stroke-width:3.99944;stroke-linecap:round;stroke-dasharray:none"
     d="m 110.18677,369.2588 c -2.48637,-1.77838 -7.68259,-6.35676 -9.63412,-8.48861 -3.053969,-3.33615 -6.065333,-9.19595 -7.36233,-14.32634 -0.775027,-3.06569 -1.016652,-5.42661 -0.924017,-9.02858 0.08301,-3.22754 0.342854,-5.17286 1.095649,-8.20244 1.196363,-4.81469 3.735805,-10.86317 5.265275,-12.54092 0.955916,-1.04858 0.96088,-0.90999 0.07761,2.16707 -1.251635,4.36037 -1.90261,7.49185 -2.326033,11.18927 -0.282958,2.47083 -0.237938,8.36158 0.08326,10.89399 1.122146,8.84739 4.346896,16.40183 9.778186,22.90679 1.10905,1.32828 1.4446,1.88879 0.75964,1.26891 -0.16516,-0.14947 -0.33031,-0.24175 -0.36699,-0.20506 -0.092,0.092 2.72206,3.37595 3.40465,3.97319 0.30487,0.26675 0.67856,0.48501 0.83042,0.48501 0.15186,0 0.38611,0.16788 0.52056,0.37308 0.37073,0.5658 0.0855,0.45534 -1.20176,-0.46536 z"
     id="path451" /><path
     style="fill:#ffffff;stroke:none;stroke-width:3.99944;stroke-linecap:round;stroke-dasharray:none"
     d="m 45.590608,444.11129 c -13.557723,-0.15785 -17.067301,-0.42337 -18.085728,-1.36832 -0.179866,-0.16689 -0.513854,-0.74872 -0.742196,-1.29296 -0.359574,-0.85702 -0.415467,-1.18935 -0.417413,-2.48185 -0.0026,-1.73618 0.273482,-2.47892 1.322833,-3.55862 1.02051,-1.05003 2.44257,-1.3027 8.968538,-1.59352 12.793052,-0.5701 127.871878,-0.56732 139.905708,0.003 3.48938,0.16548 6.15041,0.47789 6.93219,0.81383 0.68447,0.29413 1.35141,1.08188 1.90129,2.24568 0.46944,0.99355 0.49357,1.12855 0.49357,2.76081 0,2.25411 -0.28266,3.15482 -1.09164,3.47851 -1.51299,0.60538 -6.30563,0.82155 -22.11405,0.99746 -14.24932,0.15856 -103.364783,0.15522 -117.073102,-0.004 z"
     id="path452" /><path
     style="fill:#ffffff;stroke:none;stroke-width:3.99944;stroke-linecap:round;stroke-dasharray:none"
     d="m 199.13874,290.3547 c -5.03663,-2.45138 -16.9299,-10.54183 -19.97738,-13.58971 -3.36823,-3.36866 -7.79537,-10.51541 -9.15991,-14.78688 -1.06473,-3.33297 -1.22047,-4.92779 -2.04023,-20.89259 -0.81252,-15.82352 -1.87174,-21.38467 -5.39156,-28.30675 -4.81016,-9.45966 -13.9322,-17.54103 -24.62811,-21.81847 -4.62152,-1.8482 -7.47224,-2.07222 -29.60894,-2.32678 -30.725,-0.35332 -38.781848,-0.46716 -42.744813,-0.60395 -6.152334,-0.21237 -9.615475,-0.51593 -10.230057,-0.89674 -0.184229,-0.11415 -0.144524,-0.41638 0.268237,-2.0418 0.766224,-3.01734 3.80233,-13.79088 7.245494,-25.71044 l 3.168465,-10.96861 5.013608,-0.0393 5.013609,-0.0393 0.100519,0.85526 c 0.384831,3.27432 1.934125,6.54437 4.319449,9.11694 2.652352,2.86057 4.534465,4.00125 8.028172,4.86561 3.75632,0.92933 7.937565,1.17361 20.126157,1.1758 13.9591,0.003 14.28216,-0.0452 18.33967,-2.70952 2.02154,-1.32742 2.62039,-1.51078 4.93403,-1.51078 1.05722,0 2.02845,-0.0408 2.15828,-0.0906 0.3124,-0.11988 0.30004,-0.31851 -0.0251,-0.40348 -0.14364,-0.0375 0.27608,-0.0764 0.9327,-0.0863 0.65662,-0.01 1.86541,-0.0493 2.68619,-0.0873 0.96415,-0.0447 1.29368,-0.0263 0.93106,0.0522 -1.47017,0.31805 -0.73598,0.611 1.53128,0.611 2.29352,0 2.89231,-0.25149 1.43074,-0.6009 -0.2534,-0.0606 0.84879,-0.10821 2.44931,-0.10585 1.95758,0.003 2.6273,0.0405 2.04619,0.11485 -0.89424,0.11445 -1.13139,0.21794 -0.93935,0.40993 0.0616,0.0616 1.84678,0.11192 3.96712,0.11192 2.12034,0 3.90553,-0.0504 3.96708,-0.11192 0.19197,-0.192 -0.0452,-0.29548 -0.93939,-0.40993 -0.607,-0.0777 -0.028,-0.11638 1.94714,-0.13013 l 2.81099,-0.0196 -0.74096,1.3804 c -1.97344,3.67653 -3.34674,6.42937 -3.82036,7.65808 -0.69376,1.79982 -1.09912,3.88126 -1.23323,6.33249 -0.076,1.38821 -0.14025,1.84012 -0.20677,1.45337 -0.10589,-0.61565 -0.23216,-0.81712 -0.40414,-0.64481 -0.0616,0.0617 -0.11193,1.17539 -0.11193,2.47491 0,2.17395 0.0715,2.73871 0.31577,2.49444 0.0506,-0.0506 0.14085,-0.31358 0.20065,-0.5845 0.11977,-0.54253 0.0753,-0.79719 0.47121,2.70053 0.33717,2.97903 1.48395,6.65556 2.85542,9.15437 2.05617,3.74632 5.3157,7.16185 9.81848,10.28839 0.77604,0.53885 2.65335,1.70319 4.17179,2.58743 4.05161,2.35938 5.5279,3.37443 6.12321,4.21008 0.61841,0.86809 1.90301,2.25077 2.27714,2.451 0.18573,0.0994 0.33864,0.0933 0.47383,-0.0189 0.15591,-0.12939 0.38394,0.0404 1.0416,0.77572 2.2543,2.52039 3.88421,5.82461 4.91599,9.96592 0.62815,2.52122 1.13613,5.84889 1.13613,7.44249 0,0.83873 0.0679,1.51852 0.16099,1.61161 0.2157,0.21569 0.37205,2.14896 0.73407,9.07651 0.88357,16.90794 1.63695,20.07584 6.24622,26.26497 2.48091,3.33126 6.74533,6.79085 11.76269,9.54269 l 1.66758,0.91461 -0.718,2.82992 c -1.35501,5.34066 -3.15427,11.26157 -3.42219,11.26157 -0.0616,0 -0.71224,-0.29213 -1.44584,-0.64918 z M 122.23208,187.93331 c 0.27301,-0.27305 -0.77615,-0.49756 -2.24894,-0.48126 -1.38622,0.0153 -1.96176,0.12411 -2.04949,0.38729 -0.0849,0.25472 0.44389,0.31986 2.37782,0.2929 1.10316,-0.0154 1.81032,-0.0886 1.92061,-0.19893 z m -16.3829,-0.19355 c 0.21373,-0.1927 -6.65979,-0.30272 -18.934241,-0.30307 -12.639172,-3.6e-4 -19.312499,0.11043 -19.312499,0.32062 0,0.24227 37.9779,0.22484 38.24674,-0.0175 z"
     id="path453" /><path
     style="fill:#ffffff;stroke:none;stroke-width:3.99944;stroke-linecap:round;stroke-dasharray:none"
     d="m 198.67718,290.11879 c -4.26138,-2.13744 -14.11385,-8.71158 -18.211,-12.15144 -4.29229,-3.60367 -9.68965,-12.2899 -10.9347,-17.5977 -0.64454,-2.74772 -0.86351,-5.26433 -1.42474,-16.37409 -0.70226,-13.90122 -1.29405,-19.19953 -2.68501,-24.03866 -3.29365,-11.45856 -11.97996,-21.43391 -23.77043,-27.29796 -3.53517,-1.75824 -5.95536,-2.642 -8.33399,-3.04327 -4.22875,-0.71339 -9.86962,-0.88141 -38.256043,-1.13953 -27.356179,-0.24876 -36.823932,-0.53624 -39.259504,-1.19207 -0.615219,-0.16566 -0.619683,-0.17187 -0.529399,-0.73647 0.148563,-0.92906 2.87084,-10.74422 5.837886,-21.04847 8.873358,-30.81628 11.282972,-39.39215 11.858738,-42.20552 0.156498,-0.7647 0.430928,-1.67129 0.609843,-2.01464 0.494411,-0.94883 1.593703,-2.2556 3.299951,-3.92279 3.623706,-3.54076 6.537498,-5.00979 9.854911,-4.96849 1.112733,0.0138 1.18198,0.0306 0.679395,0.16406 -0.307792,0.0817 -0.559623,0.23487 -0.559623,0.34027 0,0.25198 1.661594,0.43191 2.741969,0.29692 0.748689,-0.0935 0.896919,-0.057 1.907629,0.47085 0.855123,0.44654 1.557906,1.02365 3.199101,2.62702 l 2.103237,2.05477 2.821444,0.0175 c 2.010185,0.0125 2.611755,0.0527 2.092195,0.13978 -0.80242,0.13449 -1.12387,0.33735 -0.82613,0.52136 0.27683,0.17109 2.24878,0.2697 3.03519,0.15177 0.88184,-0.13224 0.90705,-0.4645 0.0498,-0.65647 -0.46183,-0.10342 0.31907,-0.14059 2.87274,-0.13674 2.75896,0.004 3.21024,0.0296 2.11576,0.11917 -1.38753,0.1136 -1.66849,0.19136 -1.45665,0.4032 0.0616,0.0616 2.11537,0.11192 4.56403,0.11192 2.44866,0 4.50248,-0.0504 4.56404,-0.11192 0.22008,-0.22008 -0.10647,-0.3119 -1.46722,-0.41254 -0.75935,-0.0562 1.50701,-0.10046 5.03637,-0.0984 4.02291,0.002 5.74889,0.042 4.62621,0.10652 -0.98493,0.0566 -1.92174,0.11195 -2.08179,0.12308 -0.23281,0.0162 -0.2537,0.0575 -0.10447,0.20677 0.27072,0.27072 12.60807,0.27072 12.87879,0 0.14923,-0.14923 0.12834,-0.19058 -0.10446,-0.20677 -0.16006,-0.0111 -1.09686,-0.0665 -2.0818,-0.12308 -1.14685,-0.0659 0.40935,-0.10435 4.32775,-0.10702 3.45566,-0.002 5.54919,0.0414 4.81034,0.10062 -1.29734,0.10393 -1.60612,0.19517 -1.39042,0.41087 0.14622,0.14623 8.53414,0.14623 8.68037,0 0.21606,-0.21606 -0.083,-0.29506 -1.53367,-0.40515 -1.16066,-0.0881 -0.73787,-0.11224 2.04355,-0.11678 2.55277,-0.004 3.3344,0.0329 2.87273,0.1363 -0.6403,0.1434 -0.84077,0.46098 -0.39819,0.63082 0.30648,0.11761 2.35531,0.11761 2.66178,0 0.44259,-0.16984 0.24212,-0.48742 -0.39818,-0.63082 -0.49738,-0.11138 -0.0868,-0.14685 1.90272,-0.16439 l 2.53695,-0.0224 2.7571,-2.97827 2.75709,-2.97827 15.52392,10e-4 15.52392,0.001 5.03087,10.03476 c 6.37764,12.7211 9.97023,19.21584 11.68314,21.12101 0.80611,0.89658 1.44226,1.17217 3.34099,1.44733 4.85581,0.7037 21.68167,0.97791 75.00627,1.22238 13.13248,0.0602 23.57504,0.15783 23.20569,0.21694 -0.36935,0.0591 -1.0409,0.11347 -1.49233,0.12081 -0.94794,0.0154 -1.42283,0.21128 -0.8707,0.35912 0.19162,0.0513 0.93599,0.0942 1.65417,0.0953 l 1.30579,0.002 v 24.1757 24.17571 h -0.8954 -0.89539 l -3.6e-4,-12.19978 c -4.5e-4,-15.02713 -0.12127,-16.98277 -1.16866,-18.91656 -0.22746,-0.41997 -0.97382,-1.48128 -1.65857,-2.35847 l -1.24502,-1.59489 h -51.60819 c -47.82945,0 -51.60129,-0.018 -51.514,-0.24543 0.12817,-0.33402 -0.33734,-0.64996 -0.95764,-0.64996 -0.72298,0 -1.58709,0.39162 -1.47998,0.67073 0.0703,0.18331 -0.0651,0.22466 -0.73607,0.22466 h -0.82227 l -1.97116,-1.74138 c -2.85198,-2.51953 -5.46613,-4.42671 -8.43696,-6.15527 -4.07809,-2.37281 -5.88408,-2.56412 -26.88772,-2.84826 -6.27897,-0.0849 -13.83387,-0.22028 -16.78868,-0.30075 -2.95481,-0.0805 -5.80889,-0.14744 -6.34239,-0.14883 -0.65688,-0.002 -0.89915,-0.0473 -0.75049,-0.14137 0.35112,-0.22205 0.1279,-0.30397 -1.28135,-0.47023 -0.97494,-0.11502 -1.68142,-0.10896 -2.669,0.0229 -1.33574,0.17832 -2.90131,0.20373 -3.38964,0.055 -0.31956,-0.0973 -0.36777,0.1571 1.08701,-5.73648 1.41855,-5.74683 1.68886,-7.1417 1.58333,-8.17039 -0.10013,-0.97614 -0.43141,-1.57487 -2.18285,-3.94504 l -1.38494,-1.87421 -4.94501,-0.0963 c -10.9951,-0.21411 -30.37448,-0.34524 -33.597698,-0.22734 -4.948139,0.181 -6.393186,0.48526 -8.785439,1.84983 -3.84213,2.1916 -6.814597,5.93553 -8.203713,10.33285 -0.438932,1.38947 -0.840141,3.4 -0.853707,4.27808 l -0.0095,0.61776 -0.24138,-0.48501 c -0.132759,-0.26675 -0.325814,-0.48501 -0.42901,-0.48501 -0.234816,0 -0.42229,1.17002 -0.304138,1.89811 0.11162,0.68783 0.310376,0.89626 0.614209,0.6441 0.188752,-0.15665 0.230174,-0.15347 0.230174,0.0177 0,0.64624 0.350308,2.91109 0.619664,4.00633 0.706859,2.87419 1.991218,5.1014 4.369713,7.57753 3.596117,3.74373 6.935076,4.92543 15.231662,5.39065 4.382713,0.24576 13.966473,0.33527 19.325643,0.1805 7.07095,-0.2042 7.95548,-0.39721 11.04135,-2.40936 2.48524,-1.62051 2.95451,-1.77754 5.32473,-1.78181 1.08083,-0.002 2.07136,-0.0443 2.20119,-0.0941 0.3124,-0.11988 0.30004,-0.31851 -0.0251,-0.40348 -0.14364,-0.0375 0.27608,-0.0764 0.9327,-0.0863 0.65662,-0.01 1.86541,-0.0493 2.68619,-0.0873 0.96415,-0.0447 1.29368,-0.0263 0.93106,0.0522 -1.4565,0.31509 -0.73698,0.61284 1.45666,0.6028 2.35343,-0.0108 2.95264,-0.24671 1.50536,-0.5927 -0.2534,-0.0606 0.84879,-0.10821 2.44931,-0.10585 1.95758,0.003 2.6273,0.0405 2.04619,0.11485 -0.89422,0.11445 -1.13137,0.21794 -0.93938,0.40993 0.0616,0.0616 1.84676,0.11192 3.96711,0.11192 2.12034,0 3.90554,-0.0504 3.9671,-0.11192 0.19199,-0.19199 -0.0452,-0.29548 -0.93937,-0.40993 -0.60754,-0.0778 -0.0318,-0.11637 1.94033,-0.13013 l 2.80418,-0.0196 -1.28571,2.42503 c -3.70195,6.9824 -4.22866,8.50969 -4.49215,13.02578 -0.0796,1.36338 -0.14146,1.76904 -0.20963,1.37353 -0.10611,-0.61562 -0.23236,-0.81701 -0.40435,-0.64503 -0.0616,0.0616 -0.11193,1.17521 -0.11193,2.47478 0,2.17404 0.0715,2.73904 0.31577,2.49479 0.0506,-0.0506 0.14085,-0.31358 0.20065,-0.5845 0.1,-0.45299 0.11692,-0.42061 0.21051,0.40282 0.48073,4.22978 0.98203,6.51801 1.96159,8.95396 1.27644,3.17422 2.93712,5.62495 5.66764,8.36393 2.78974,2.79838 4.91998,4.35062 10.22332,7.44943 3.5118,2.05198 4.78614,2.94212 5.36407,3.74687 0.62762,0.87395 1.92341,2.27853 2.27626,2.46737 0.20139,0.10778 0.34759,0.1048 0.4858,-0.01 0.38877,-0.32265 2.46593,2.29504 3.78474,4.76959 1.70419,3.19767 3.31087,9.70787 3.31087,13.41548 0,0.86618 0.0669,1.51499 0.16643,1.61454 0.19075,0.19075 0.48093,3.74193 0.72294,8.84723 0.71512,15.08566 1.56019,19.41757 4.74534,24.32494 2.2809,3.51417 4.31091,5.63731 7.94548,8.30998 1.83844,1.3519 2.795,1.9629 5.10004,3.25769 l 1.89154,1.06252 -0.8062,3.16456 c -1.51818,5.95923 -3.042,10.91791 -3.35509,10.91791 -0.0671,0 -0.91601,-0.39829 -1.88652,-0.88509 z m -76.50726,-102.1333 c 0.0585,-0.0585 0.0267,-0.18615 -0.0708,-0.2836 -0.2207,-0.22069 -2.7205,-0.33432 -3.52277,-0.16012 -0.6728,0.14608 -0.86103,0.43365 -0.35535,0.54288 0.50442,0.10895 3.82412,0.0256 3.94887,-0.0992 z m -16.46995,-0.24479 c 0.21439,-0.19506 -6.500013,-0.30436 -18.697224,-0.30436 -12.585443,0 -19.251074,0.11114 -19.251074,0.32097 0,0.23964 37.684788,0.22315 37.948298,-0.0166 z m 109.7512,-27.82174 c 0.21557,-0.21557 -0.34474,-0.36783 -1.73938,-0.47268 -1.42722,-0.1073 -4.71145,2.3e-4 -5.34555,0.17502 -0.53034,0.1462 -0.39295,0.33304 0.29846,0.40585 0.97837,0.10304 6.66592,0.0124 6.78647,-0.10819 z m 89.57626,0.0644 c 0.74209,-0.46931 -2.0662,-0.7967 -3.88127,-0.45248 -0.9065,0.17192 -1.04517,0.25713 -0.73629,0.45248 0.28604,0.18089 4.33153,0.18089 4.61756,0 z M 278.332,159.87393 c 3.98156,-0.0759 5.25459,-0.14095 4.76254,-0.24337 -0.92067,-0.19165 -48.2419,-0.21207 -49.61989,-0.0214 -0.91032,0.12595 -0.57455,0.15464 2.61157,0.22315 5.82787,0.12532 36.28113,0.15534 42.24578,0.0416 z M 150.72076,148.94012 c 0.12074,-0.0764 0.18204,-0.17632 0.13622,-0.22215 -0.19849,-0.19848 -2.55115,-0.38366 -3.71348,-0.29228 -1.48258,0.11656 -2.1234,0.30133 -1.78574,0.51489 0.28567,0.18067 5.07724,0.18026 5.363,-4.6e-4 z m 26.17255,-0.15487 c 0.25177,-0.23789 -2.63031,-0.34978 -9.00646,-0.34967 -6.54237,1.1e-4 -9.54461,0.11699 -9.29954,0.36206 0.25438,0.25438 18.0364,0.24235 18.306,-0.0124 z m 45.20234,-1.5883 c 0.68246,-0.1128 0.72498,-0.41431 0.0897,-0.63578 -0.93833,-0.32711 -2.66392,-0.0919 -2.66392,0.36317 0,0.30131 1.46317,0.45626 2.57426,0.27261 z m 4.65132,0.005 c 0.12983,-0.0498 0.23606,-0.18177 0.23606,-0.29322 0,-0.51049 -1.25774,-0.67597 -2.18694,-0.28773 -0.4511,0.18848 -0.50642,0.25924 -0.35001,0.4477 0.19053,0.22956 1.80609,0.32312 2.30089,0.13325 z m 5.96931,0 c 0.33488,-0.1285 0.29233,-0.46573 -0.0842,-0.66723 -0.69757,-0.37332 -2.44977,0.11077 -2.15096,0.59426 0.1065,0.17233 1.8296,0.22859 2.23513,0.073 z m 18.15739,-0.14941 c 0.46959,-0.56583 -0.98012,-0.87902 -2.03284,-0.43917 -0.53153,0.22209 -0.66011,0.44752 -0.33098,0.58033 0.1026,0.0414 0.63161,0.0806 1.1756,0.087 0.7373,0.009 1.03973,-0.0493 1.18822,-0.22821 z m 16.71493,-0.013 c 0.32252,-0.32251 -0.33583,-0.56774 -1.5242,-0.56774 -0.90159,0 -1.2235,0.0579 -1.42126,0.25568 -0.21126,0.21125 -0.21867,0.26753 -0.0426,0.32395 0.11716,0.0376 0.31376,0.10593 0.43688,0.15196 0.35099,0.13122 2.38692,4.6e-4 2.55122,-0.16385 z m -28.55503,0.01 c 0.18468,-0.0495 0.33577,-0.14212 0.33577,-0.20584 0,-0.47752 -3.6218,-0.59595 -4.32903,-0.14156 -0.19711,0.12664 -0.19696,0.1598 0.001,0.28994 0.24208,0.15892 3.44157,0.20497 3.99198,0.0575 z m 5.49235,-0.0682 c 0.16483,-0.26671 -0.13568,-0.43736 -0.93742,-0.53231 -0.82033,-0.0972 -2.23182,0.0332 -2.56069,0.2364 -0.11241,0.0695 -0.15823,0.20098 -0.10183,0.29223 0.13817,0.22357 3.46193,0.22697 3.59994,0.004 z m 14.02788,0 c 0.22306,-0.36091 -0.27062,-0.50931 -1.69438,-0.50931 -1.48962,0 -2.40318,0.2508 -1.95272,0.53607 0.30561,0.19355 3.52553,0.16993 3.6471,-0.0268 z m 4.90443,0.0717 c 1.07247,-0.41155 -1.47499,-0.85746 -2.94696,-0.51584 -0.66007,0.15319 -0.76442,0.22744 -0.62855,0.44726 0.10507,0.17002 3.15854,0.22859 3.57551,0.0686 z m 12.34159,-0.16587 c 0.29818,-0.29819 -0.52637,-0.4151 -2.92772,-0.4151 -2.27259,0 -3.50425,0.14032 -3.26526,0.37201 0.22837,0.22138 0.95742,0.27199 3.52251,0.24453 1.6747,-0.0179 2.55322,-0.0842 2.67047,-0.20144 z m 7.10818,0.16239 c 0.40214,-0.10777 0.43233,-0.28172 0.0746,-0.42986 -0.50171,-0.20777 -3.08884,-0.2605 -3.95534,-0.0806 -0.85682,0.17788 -1.08871,0.37298 -0.59626,0.50167 0.39763,0.10391 4.09496,0.11119 4.47698,0.009 z m 5.64158,-0.0682 c 0.2237,-0.36196 -0.26999,-0.50925 -1.69458,-0.50557 -1.48699,0.004 -2.39577,0.25161 -1.95252,0.53233 0.30562,0.19355 3.52554,0.16993 3.6471,-0.0268 z m 7.34167,0.0682 c 0.51162,-0.13711 0.40341,-0.32373 -0.29846,-0.51476 -0.63793,-0.17363 -3.41822,-0.10874 -4.1039,0.0958 -0.40105,0.11962 -0.43669,0.31555 -0.0746,0.41017 0.39763,0.10391 4.09496,0.11119 4.47698,0.009 z m 6.71007,-0.15013 c 0.14677,-0.44231 -1.89324,-0.65761 -3.17433,-0.33503 -0.66186,0.16667 -0.82906,0.33605 -0.47647,0.48271 0.37525,0.15609 3.59322,0.0259 3.6508,-0.14768 z M 122.48424,127.82884 c 0.0471,-0.0471 0.0353,-0.13596 -0.0263,-0.19752 -0.15229,-0.15233 -17.39877,-0.24511 -20.79313,-0.11186 -1.49793,0.0588 -2.723501,0.16516 -2.723501,0.23635 0,0.0712 1.124841,0.15482 2.499651,0.18583 3.61119,0.0814 20.94192,-0.0115 21.04327,-0.1128 z"
     id="path454" /><path
     style="fill:#ffffff;stroke:none;stroke-width:3.99944;stroke-linecap:round;stroke-dasharray:none"
     d="m 243.54786,135.04477 c -16.50855,-0.18051 -22.52379,-0.50374 -23.69851,-1.27344 -0.87866,-0.57573 -3.91283,-5.95435 -8.47265,-15.01936 l -3.20907,-6.3797 102.56625,0.008 102.56624,0.008 1.49233,1.64171 c 1.62474,1.78738 2.43205,2.41167 3.54677,2.74271 1.00241,0.29768 3.18738,0.49322 7.04876,0.63082 1.80571,0.0643 2.88019,0.13754 2.38772,0.16267 -1.44632,0.0738 -1.35381,0.32776 0.11939,0.32776 h 1.29832 v 8.6555 8.6555 l -87.78617,-0.025 c -48.28239,-0.0137 -92.31911,-0.0745 -97.85938,-0.13512 z"
     id="path455" /><path
     style="fill:#ffffff;stroke:none;stroke-width:3.99944;stroke-linecap:round;stroke-dasharray:none"
     d="m 200.43641,195.9053 c 0.0971,-0.18467 0.90538,-1.62984 1.79618,-3.21148 2.78892,-4.95182 3.48662,-6.4739 3.94912,-8.61521 0.30541,-1.41399 0.49591,-5.39853 0.50124,-10.4836 l 0.004,-4.21583 8.54358,0.029 c 6.20502,0.0211 7.53592,0.0517 4.86226,0.11192 -2.02471,0.0456 -3.72109,0.12281 -3.76971,0.17156 -0.19438,0.19489 4.71734,0.28335 15.73344,0.28335 11.2987,0 16.36641,-0.10172 15.44559,-0.31002 -0.25013,-0.0566 0.34255,-0.107 1.34309,-0.11426 2.04057,-0.0148 7.97931,0.22175 8.07936,0.3218 0.0836,0.0836 -1.16919,2.9176 -3.64798,8.25236 -5.08088,10.93489 -6.75444,13.97292 -8.49896,15.42821 -1.25725,1.04881 -3.99376,2.01486 -5.48331,1.93574 -1.6476,-0.0875 -2.76833,-0.0121 -3.2283,0.21742 -0.53632,0.26755 -1.17407,0.31286 -1.17407,0.0834 0,-0.0841 -0.18467,-0.2243 -0.41039,-0.31152 -0.52914,-0.20448 -1.91576,0.0824 -2.11439,0.43747 -0.12961,0.23168 -1.22177,0.25434 -14.31287,0.297 -13.42571,0.0438 -14.17139,0.0324 -14.15035,-0.21512 0.0333,-0.39128 -0.62252,-0.67658 -1.32089,-0.57465 -0.67964,0.0992 -1.32097,0.46332 -1.18981,0.67553 0.0506,0.0819 -0.1722,0.14268 -0.52281,0.14268 -0.58644,0 -0.6039,-0.0135 -0.43444,-0.33578 z m 25.55431,-0.10455 c 0.25713,-0.25713 -2.3506,-0.36713 -8.70782,-0.36731 -6.36224,-1.9e-4 -8.67474,0.10193 -8.40549,0.37118 0.25655,0.25655 16.85665,0.25279 17.11331,-0.004 z"
     id="path456" /><path
     style="fill:#ffffff;stroke:none;stroke-width:3.99944;stroke-linecap:round;stroke-dasharray:none"
     d="m 175.42311,195.1764 c -2.62053,-0.32995 -4.9697,-1.19801 -6.81837,-2.51947 -4.00156,-2.86041 -6.15943,-5.98294 -7.09964,-10.27348 -0.36224,-1.65304 -0.35522,-5.91465 0.0126,-7.63189 1.56635,-7.31332 6.72874,-12.63957 13.68159,-14.11585 1.51647,-0.32198 4.8029,-0.36213 6.26118,-0.0765 3.46288,0.67832 6.89361,2.45277 9.26226,4.79066 4.57228,4.51291 6.3383,11.44834 4.52201,17.75869 -1.35385,4.7037 -4.9587,8.80015 -9.36855,10.64615 -3.17835,1.33048 -7.02363,1.85345 -10.45305,1.42166 z m 5.67084,-7.15701 c 3.92036,-0.9459 6.89156,-3.80156 7.75146,-7.45002 0.4937,-2.09475 0.18252,-4.89564 -0.74841,-6.73621 -1.09631,-2.16753 -3.26584,-4.5495 -4.85627,-5.33179 -1.93697,-0.95273 -6.0855,-0.98483 -8.68849,-0.0672 -3.85328,1.35837 -5.90617,4.67781 -6.17561,9.98569 -0.10225,2.01428 0.0785,2.8787 0.84754,4.05434 0.66342,1.01411 2.95831,3.36543 4.12808,4.22959 2.28872,1.69077 4.5759,2.07945 7.7417,1.31561 z"
     id="path457" /><path
     style="fill:#ffffff;stroke:none;stroke-width:3.99944;stroke-linecap:round;stroke-dasharray:none"
     d="m 208.81007,265.92965 c -3.02809,-1.07607 -7.81034,-4.48217 -9.56175,-6.81024 -1.67463,-2.22603 -2.72492,-5.12824 -3.37968,-9.33885 -0.18605,-1.19647 -0.20977,-1.72537 -0.0937,-2.08926 0.33528,-1.05133 0.27244,-2.39713 -0.13077,-2.80034 -0.34647,-0.34647 -0.40426,-1.04463 -0.0865,-1.04463 0.27753,0 0.43746,-0.73479 0.42226,-1.94003 -0.0126,-0.99975 -0.22063,-1.79079 -0.47094,-1.79079 -0.0784,0 -0.17165,0.1511 -0.20722,0.33577 -0.0356,0.18468 -0.0745,-0.47008 -0.0864,-1.45502 -0.1007,-8.29149 -1.13216,-16.32946 -2.80484,-21.85757 -0.72432,-2.39382 -1.34586,-3.94943 -2.79389,-6.99264 -0.69034,-1.45085 -1.29679,-2.77902 -1.34766,-2.9515 -0.0886,-0.30031 -0.0275,-0.31759 1.44018,-0.40783 2.65743,-0.16339 10.20305,-0.25971 9.89649,-0.12633 -0.49741,0.21643 4.79336,0.32458 15.89987,0.32502 10.61418,4.3e-4 16.3465,-0.11338 15.65605,-0.31083 -0.20519,-0.0587 -1.81691,-0.12431 -3.58158,-0.14585 -2.13606,-0.0261 -0.71443,-0.0771 4.25313,-0.15273 10.71125,-0.16305 13.75175,-0.41721 15.95292,-1.33356 1.95552,-0.81408 3.36932,-1.75283 4.80369,-3.18961 1.97565,-1.97896 2.7132,-3.15067 6.18609,-9.82758 l 1.8435,-3.54428 h 20.71391 20.7139 l -0.0186,2.05195 c -0.0146,1.60659 -0.0437,1.87979 -0.13412,1.25872 -0.0635,-0.43628 -0.15589,-0.83361 -0.20524,-0.88296 -0.24935,-0.24935 -0.31357,0.38439 -0.31357,3.09413 0,1.62786 0.0504,3.01007 0.11192,3.07158 0.17874,0.17858 0.30885,-0.0461 0.41935,-0.72416 0.0866,-0.53139 0.10588,-0.44818 0.12159,0.52509 0.0103,0.6361 -0.0379,1.15655 -0.10705,1.15655 -0.5862,0 -8.23147,0.96474 -9.5744,1.20817 -5.50078,0.99714 -7.33337,1.84626 -10.4255,4.83062 -2.23693,2.15897 -3.8956,4.56062 -3.89938,5.64608 -0.005,1.37298 -1.39209,2.05616 -4.55306,2.24221 -0.57455,0.0338 -0.82638,0.0327 -0.55962,-0.002 0.26675,-0.0352 0.485,-0.1184 0.485,-0.18492 0,-0.21808 -1.76077,-0.32664 -5.29776,-0.32664 -3.58314,0 -5.29776,0.10863 -5.29776,0.33565 0,0.17476 -0.23373,0.15839 3.88005,0.27177 3.52531,0.0972 3.43283,0.10177 -2.58307,0.12871 -4.30281,0.0193 -6.2094,-0.0204 -6.14301,-0.12783 0.20434,-0.33063 -0.26201,-0.59039 -1.05992,-0.59039 -0.86138,0 -1.55569,0.23673 -1.55569,0.53042 0,0.12528 -0.44086,0.21675 -1.3804,0.28642 -3.11875,0.23128 -5.39687,0.91449 -8.76743,2.62937 -4.26328,2.16907 -5.88018,3.78092 -9.4469,9.4174 -1.18985,1.8803 -4.17112,7.16695 -8.31476,14.74445 -10.14322,18.54897 -12.91336,23.28245 -14.8238,25.33019 -1.74507,1.87048 -2.25434,2.07567 -3.79389,1.52858 z"
     id="path458" /><path
     style="fill:#ffffff;stroke:none;stroke-width:3.99944;stroke-linecap:round;stroke-dasharray:none"
     d="m 275.55829,177.13928 -0.74617,-0.10234 0.77467,-0.0234 c 0.42607,-0.0129 0.81495,-0.0886 0.86419,-0.16831 0.17217,-0.27857 -0.76544,-0.37745 -3.57888,-0.37745 -2.94674,0 -4.03982,0.11457 -3.86054,0.40464 0.0739,0.11956 -0.28526,0.13821 -1.28936,0.0669 -0.76547,-0.0543 -1.42987,-0.13689 -1.47643,-0.18345 -0.11446,-0.11446 0.52178,-1.87236 1.75163,-4.83972 l 1.02055,-2.46234 1.70322,-0.0479 c 2.11676,-0.0596 5.8733,0.13142 5.35943,0.27246 -0.97059,0.2664 2.53233,0.33705 13.2071,0.26636 6.32001,-0.0419 11.65881,-0.0324 11.86401,0.021 0.33853,0.0881 0.37999,0.18633 0.4477,1.06107 0.0577,0.74559 0.0239,1.00356 -0.14924,1.13853 -0.1749,0.13635 -0.22385,0.53446 -0.22385,1.82064 0,1.78535 0.17079,2.28409 0.59163,1.72764 0.20106,-0.26584 0.22006,-0.21144 0.22441,0.64226 l 0.005,0.93271 -9.06589,-0.0118 c -4.98624,-0.006 -8.96515,-0.0454 -8.84204,-0.0864 0.12312,-0.0411 0.31972,-0.10539 0.43689,-0.14294 0.17602,-0.0564 0.16861,-0.1127 -0.0426,-0.32395 -0.36811,-0.36811 -2.50965,-0.36811 -2.87775,0 -0.21125,0.21125 -0.21866,0.26754 -0.0426,0.32395 0.11717,0.0376 0.31377,0.10187 0.43688,0.14294 0.33946,0.11321 -5.63666,0.0662 -6.49162,-0.051 z m 15.5905,-0.1434 c 0.73452,-0.46452 -1.92723,-0.79345 -3.56992,-0.44116 -0.76608,0.16429 -0.96441,0.35833 -0.49235,0.48169 0.50012,0.1307 3.84428,0.0973 4.06227,-0.0405 z m 8.60826,-0.0538 c 0.38179,-0.38179 -1.54266,-0.62889 -3.89645,-0.5003 -1.71599,0.0937 -2.31976,0.19966 -2.31976,0.40694 0,0.0673 0.21825,0.15309 0.485,0.19063 0.79392,0.11174 5.60383,0.0301 5.73121,-0.0973 z"
     id="path459" /><path
     style="fill:#ffffff;stroke:none;stroke-width:3.99944;stroke-linecap:round;stroke-dasharray:none"
     d="m 282.01268,238.83726 c -2.48351,-0.80697 -7.1642,-3.49481 -8.98683,-5.16059 -1.12843,-1.03133 -2.67722,-3.40197 -4.12538,-6.31449 -1.07736,-2.16676 -1.87716,-4.20562 -1.71384,-4.36894 0.26697,-0.26698 5.79469,-0.57332 14.0425,-0.77823 3.28312,-0.0816 7.40036,-0.19046 9.14942,-0.24198 l 3.18011,-0.0937 -1.70667,2.21998 c -3.25704,4.23663 -4.67732,6.81807 -6.00453,10.91359 -0.44546,1.37458 -1.02905,2.86674 -1.29686,3.3159 -0.59378,0.99585 -0.8685,1.05088 -2.53792,0.50843 z"
     id="path460" /><path
     style="fill:#ffffff;stroke:none;stroke-width:1.99972;stroke-linecap:round;stroke-dasharray:none"
     d="m 293.16212,282.81557 c -1.31588,-1.4987 -4.27131,-7.42177 -5.44549,-10.91348 -0.84998,-2.52759 -1.55112,-5.75719 -2.04545,-9.42172 -0.22156,-1.64252 -0.22053,-1.62151 -0.0799,-1.62151 0.14697,0 0.32556,-0.62413 0.38204,-1.3351 0.0485,-0.60985 -0.0487,-1.57664 -0.20695,-2.05892 -0.10386,-0.31659 -0.32233,-0.43724 -0.3811,-0.21048 -0.0192,0.0742 -0.0388,-0.006 -0.0436,-0.17861 -0.0122,-0.44018 0.12748,-1.03441 0.28996,-1.23398 l 0.13739,-0.16875 0.23666,0.22385 c 0.59642,0.56416 0.92021,1.6805 1.04557,3.60482 0.16619,2.55086 1.31685,7.00515 3.57923,13.85542 1.25924,3.81285 2.14181,6.61807 2.5809,8.20325 0.44273,1.59832 0.43457,1.80628 -0.0493,1.25521 z"
     id="path461" /><path
     style="fill:#ffffff;stroke:none;stroke-width:15.9978;stroke-linecap:round;stroke-dasharray:none"
     d="m 299.65938,339.04843 c -5.29025,-0.72315 -9.49368,-2.74913 -31.9183,-15.38409 -20.00304,-11.27054 -25.74665,-14.22081 -29.86406,-15.34002 -4.36752,-1.18719 -20.60814,-1.85625 -25.5188,-1.05128 -3.30178,0.54123 -3.43236,0.51308 -3.43236,-0.73993 0,-3.13919 7.06592,-26.49423 9.3698,-30.97005 l 0.88093,-1.71141 2.10003,3.5022 c 3.22305,5.37502 5.78206,8.2208 11.18897,12.44282 8.485,6.62557 36.44129,23.56123 48.68893,29.4953 6.32382,3.06394 7.288,3.35458 12.23708,3.68877 2.95481,0.19952 5.03661,0.40622 4.62622,0.45932 -0.41039,0.0531 -0.74617,0.36518 -0.74617,0.69349 0,0.6664 1.96727,0.81841 2.58587,0.19981 0.58022,-0.58022 36.92103,-0.62801 38.15468,-0.0502 0.58433,0.2737 1.53039,0.22933 2.14704,-0.1007 0.75383,-0.40344 1.31496,-0.37745 1.7746,0.0822 0.4983,0.49829 1.09691,0.47866 2.31397,-0.0759 1.13899,-0.51897 1.70761,-0.55057 1.85673,-0.1032 0.2328,0.69841 2.06809,0.88097 2.68226,0.2668 0.51904,-0.51904 5.82684,-0.47717 7.51709,0.0593 0.75789,0.24055 1.63605,0.17928 1.95147,-0.13614 0.34138,-0.34138 3.94106,-0.45239 8.89388,-0.27427 6.0046,0.21594 8.32038,0.10984 8.32038,-0.3812 0,-0.41506 1.1058,-0.67686 2.83542,-0.67128 2.05074,0.007 2.58763,0.16928 1.94003,0.58779 -0.65976,0.42637 -0.26703,0.57865 1.49233,0.57865 1.75935,0 2.15208,-0.15228 1.49232,-0.57865 -0.61248,-0.39581 0.91959,-0.58154 4.8488,-0.58779 6.30306,-0.01 8.73444,-0.76567 14.71229,-4.57234 1.73001,-1.10168 3.36206,-2.00304 3.62676,-2.00304 0.26471,0 1.11217,-0.67155 1.88326,-1.49233 0.77108,-0.82078 1.20716,-1.49233 0.96907,-1.49233 -0.2381,0 0.24162,-0.88434 1.06604,-1.96521 5.36766,-7.03737 5.86651,-11.68129 5.60109,-52.14232 -0.2063,-31.44656 -0.22976,-31.71383 -3.04975,-34.74276 -4.33438,-4.65553 -6.89972,-5.04687 -40.21626,-6.13506 -15.41661,-0.50354 -22.7594,-0.95034 -22.68338,-1.38025 0.077,-0.43527 -4.45726,-0.63569 -14.38125,-0.63569 h -14.49367 l -0.1764,-4.89004 c -0.16509,-4.57644 -0.10651,-4.85263 0.91349,-4.30674 0.61815,0.33082 1.54202,0.36749 2.13451,0.0847 0.76618,-0.36568 38.61728,-0.41556 59.2454,-0.0781 0.49247,0.008 1.6341,-0.16828 2.53696,-0.39187 1.0534,-0.26087 1.64156,-0.16771 1.64156,0.26 0,0.79354 2.17307,0.89984 2.64911,0.12959 0.43416,-0.7025 31.57323,-0.17152 34.48271,0.58799 3.4399,0.89798 5.63485,3.10106 6.34614,6.36966 0.33892,1.55744 0.75825,7.70361 0.93185,13.65815 0.36158,12.40275 0.93532,14.60354 4.63194,17.76771 2.99219,2.56121 7.8878,3.93859 13.99885,3.93859 h 4.7615 l 6.40103,9.77014 c 7.52716,11.48898 8.3789,13.5902 8.08503,19.94555 -0.30198,6.53093 -2.10268,9.85885 -9.91535,18.32482 -3.49055,3.78243 -6.61748,6.87715 -6.94872,6.87715 -0.33124,0 -6.3899,5.76385 -13.46368,12.80856 -14.06504,14.00721 -17.98593,17.33219 -24.03898,20.38545 l -4.01438,2.02492 -54.1864,-0.0783 c -29.80252,-0.043 -55.66379,-0.28022 -57.46951,-0.52706 z m 147.44196,-42.37371 c 0,-0.32831 1.21742,-0.59693 2.70537,-0.59693 1.48794,0 3.56974,-0.41239 4.62621,-0.91644 3.76328,-1.79545 6.5844,-3.5924 7.01024,-4.46526 0.23775,-0.48734 1.00434,-1.99935 1.70352,-3.36002 0.69918,-1.36068 1.44181,-3.71843 1.65028,-5.23945 0.20848,-1.52102 0.61016,-2.90832 0.89262,-3.08289 0.67284,-0.41584 0.6672,-3.23159 -0.006,-3.23159 -0.28601,0 -0.69202,-1.29652 -0.90223,-2.88116 -1.06976,-8.0643 -8.13263,-15.02677 -15.24344,-15.02677 -2.41747,0 -2.92925,-0.1728 -2.65196,-0.8954 0.23649,-0.61628 -0.0375,-0.8954 -0.8789,-0.8954 -1.43899,0 -2.22793,0.95861 -1.14745,1.39422 0.41244,0.16628 -0.55261,0.32353 -2.14455,0.34945 -3.88527,0.0633 -6.4308,1.38132 -9.74253,5.04465 -4.18628,4.63072 -5.85922,8.65813 -5.86398,14.11682 -0.003,3.87509 0.26503,5.03585 1.96118,8.48121 2.93852,5.96898 8.89578,10.56277 13.73958,10.59492 1.16212,0.008 1.82338,0.25885 1.60632,0.61004 -0.20923,0.33856 0.29227,0.59693 1.15864,0.59693 0.84015,0 1.52755,-0.26861 1.52755,-0.59693 z"
     id="path462" /><path
     style="fill:#ffffff;stroke:none;stroke-width:15.9978;stroke-linecap:round;stroke-dasharray:none"
     d="m 194.0082,287.22141 c -12.69535,-7.97531 -16.91234,-11.88259 -21.39292,-19.82175 -2.70385,-4.79094 -3.5497,-9.11285 -4.25921,-21.76254 -0.88187,-15.72264 -1.66439,-21.92618 -3.45136,-27.36141 -4.74478,-14.4316 -20.04898,-27.42894 -34.21483,-29.0575 -2.76974,-0.31842 -11.61706,-0.62735 -19.66071,-0.6865 -9.23173,-0.0679 -13.19399,-0.25797 -10.74476,-0.51544 2.13403,-0.22432 -6.798113,-0.39342 -19.849207,-0.37576 -17.059324,0.0231 -23.921296,-0.15993 -24.412449,-0.65109 -0.512963,-0.51296 1.495946,-8.3137 8.062628,-31.30778 4.810198,-16.84352 8.918068,-31.52575 9.1286,-32.62716 0.463443,-2.42453 5.454295,-7.71687 8.717585,-9.24418 1.755782,-0.82176 3.021746,-0.96069 5.844326,-0.64135 3.179907,0.35977 3.96299,0.73126 6.667894,3.16322 l 3.064842,2.75557 h 30.616831 30.61683 l 3.17334,-3.13389 3.17334,-3.13388 h 15.51037 15.51036 l 4.66474,9.40166 c 6.62903,13.36065 10.98468,20.9151 12.71122,22.04637 1.16367,0.76246 3.67633,1.05705 11.40223,1.33682 7.07976,0.25637 9.98002,0.56992 10.15604,1.09799 0.29214,0.87642 4.32541,1.00904 4.32541,0.14222 0,-0.32831 0.40293,-0.59693 0.8954,-0.59693 0.49247,0 0.8954,0.26862 0.8954,0.59693 0,0.32832 0.80585,0.59694 1.79079,0.59694 0.98494,0 1.79079,-0.26862 1.79079,-0.59694 0,-0.32831 0.80586,-0.59693 1.7908,-0.59693 0.98493,0 1.79079,0.26862 1.79079,0.59693 0,0.32832 0.53724,0.59694 1.19386,0.59694 0.65663,0 1.19386,-0.26862 1.19386,-0.59694 0,-0.32831 0.94017,-0.59693 2.08926,-0.59693 1.14909,0 2.08926,0.26862 2.08926,0.59693 0,0.86689 3.41827,0.73371 3.83031,-0.14923 0.27856,-0.59693 0.41785,-0.59693 0.69642,0 0.19152,0.41039 1.24361,0.74617 2.33798,0.74617 1.09437,0 2.12526,-0.33578 2.29085,-0.74617 0.24087,-0.59693 0.31051,-0.59693 0.34821,0 0.0555,0.87902 3.03178,1.02552 3.03178,0.14923 0,-0.32831 0.53724,-0.59693 1.19387,-0.59693 0.65662,0 1.19386,0.26862 1.19386,0.59693 0,0.32832 1.34309,0.59694 2.98465,0.59694 1.64156,0 2.98466,-0.26862 2.98466,-0.59694 0,-0.32831 0.53724,-0.59693 1.19386,-0.59693 0.65662,0 1.19386,0.26862 1.19386,0.59693 0,0.32832 1.07448,0.59694 2.38773,0.59694 1.31324,0 2.38772,-0.26862 2.38772,-0.59694 0,-0.32831 0.40293,-0.59693 0.8954,-0.59693 0.49246,0 0.89539,0.26862 0.89539,0.59693 0,0.32832 0.80586,0.59694 1.7908,0.59694 0.98493,0 1.79079,-0.26862 1.79079,-0.59694 0,-0.32831 0.67155,-0.59693 1.49233,-0.59693 0.82078,0 1.49232,0.26862 1.49232,0.59693 0,0.32832 1.07448,0.59694 2.38773,0.59694 1.31325,0 2.38772,-0.26862 2.38772,-0.59694 0,-0.32831 0.67155,-0.59693 1.49233,-0.59693 0.82078,0 1.49233,0.26862 1.49233,0.59693 0,0.32832 0.80585,0.59694 1.79079,0.59694 0.98494,0 1.79079,-0.28908 1.79079,-0.64239 0,-0.43113 1.52143,-0.53601 4.62622,-0.31894 13.63266,0.95315 16.42724,1.03923 16.94452,0.52195 0.30728,-0.30728 1.69065,-0.39695 3.07416,-0.19926 1.38351,0.19769 33.5975,0.31155 71.58665,0.25302 63.93804,-0.0985 69.09153,-0.0327 69.34489,0.88576 0.37145,1.34653 0.14963,78.72958 -0.22654,79.03308 -0.16416,0.13245 -1.85288,0.98525 -3.75272,1.89512 -2.53418,1.21366 -4.10938,2.52202 -5.91381,4.91197 -1.35276,1.79172 -2.92546,3.507 -3.49487,3.81175 -0.56942,0.30475 -3.2184,0.38573 -5.88662,0.17997 -4.29893,-0.33151 -4.87984,-0.51686 -5.10186,-1.62787 -0.1378,-0.68957 -0.40938,-5.82029 -0.60351,-11.4016 -0.41768,-12.00844 -1.21186,-15.91665 -4.12637,-20.30623 -3.72988,-5.6176 -9.39189,-8.50129 -17.08393,-8.70095 -2.64449,-0.0686 -2.93477,-0.16495 -1.49233,-0.49512 1.72642,-0.39517 1.74148,-0.42659 0.41905,-0.87409 -0.85737,-0.29013 -1.70454,-0.18799 -2.25928,0.27241 -0.70429,0.58451 -1.53578,0.58109 -4.02712,-0.0166 -2.04198,-0.48987 -4.27809,-0.59227 -6.39621,-0.29291 -1.79115,0.25315 -9.30057,0.36854 -16.68759,0.25644 -24.27744,-0.36844 -53.81271,-0.24423 -66.05561,0.27778 l -12.03335,0.51308 -0.20373,-14.91713 -0.20374,-14.91715 -1.74086,-2.51096 c -0.95747,-1.38103 -2.03195,-2.70066 -2.38773,-2.93252 -0.35577,-0.23186 -24.7249,-0.43902 -54.1536,-0.46037 l -53.50675,-0.0388 -2.89345,-2.54692 c -1.5914,-1.4008 -4.59784,-3.50007 -6.68099,-4.66503 -3.36334,-1.88089 -4.40069,-2.15224 -9.26222,-2.42281 -3.0199,-0.16808 -5.66566,-0.60168 -5.90061,-0.96701 -0.28872,-0.44896 -3.17301,-0.60298 -8.95396,-0.47814 -8.74647,0.18889 -15.46915,0.22209 -19.42203,0.0959 -5.65311,-0.18046 -8.43659,-0.20881 -11.34169,-0.1155 -3.67206,0.11794 -3.59966,0.3616 -1.94421,-6.54376 1.61775,-6.7481 1.53664,-8.14694 -0.64439,-11.11268 l -1.84243,-2.50532 h -5.35597 c -3.41864,0 -5.22252,-0.21592 -4.98704,-0.59693 0.24102,-0.38998 -3.57539,-0.59693 -11.008,-0.59693 -6.2573,0 -11.376917,0.23738 -11.376917,0.5275 0,0.29013 -2.619035,0.64184 -5.820078,0.78158 -4.393245,0.19179 -6.412023,0.56233 -8.234633,1.51144 -3.370562,1.75521 -7.057046,5.95843 -8.289608,9.45158 -0.572432,1.6223 -1.38194,3.7555 -1.798906,4.74043 -0.452066,1.06785 -0.564856,2.27276 -0.279392,2.98466 0.2633,0.65662 0.916038,2.7793 1.450529,4.71705 0.79446,2.88025 1.59031,4.13645 4.361075,6.88372 2.087343,2.06963 4.306473,3.6484 5.776995,4.10995 3.890437,1.2211 17.257385,2.04866 26.830175,1.66109 7.54987,-0.30567 9.29438,-0.55924 11.34168,-1.64855 1.3307,-0.70803 3.17771,-1.67718 4.10447,-2.15368 1.29743,-0.66708 4.62704,-0.88978 14.47557,-0.9682 7.03482,-0.056 12.79057,-0.0206 12.79057,0.0787 0,0.0993 -1.07553,2.31962 -2.39008,4.93411 -3.26176,6.48734 -4.05898,11.80571 -2.73858,18.26968 1.95884,9.58941 6.37585,15.41668 16.21225,21.38851 6.19748,3.76257 11.40258,8.41163 13.08057,11.6832 2.58652,5.04294 3.39058,9.80307 4.48524,26.55344 0.36475,5.5813 1.07055,11.94814 1.56844,14.14853 1.5806,6.98525 7.29684,14.06247 14.8475,18.38252 l 3.19309,1.8269 -1.48504,5.41943 c -1.83423,6.69373 -2.42545,8.27556 -3.09306,8.27556 -0.28716,0 -3.01779,-1.56779 -6.06806,-3.484 z m -72.37654,-99.59827 c -0.57072,-0.14941 -1.6452,-0.15483 -2.38773,-0.0121 -0.74252,0.14278 -0.27558,0.26503 1.03767,0.27165 1.31325,0.007 1.92078,-0.1102 1.35006,-0.2596 z m 101.02362,-40.77811 c 0,-0.32831 -0.67155,-0.59693 -1.49233,-0.59693 -0.82078,0 -1.49233,0.26862 -1.49233,0.59693 0,0.32832 0.67155,0.59694 1.49233,0.59694 0.82078,0 1.49233,-0.26862 1.49233,-0.59694 z m 4.17851,0 c 0,-0.32831 -0.53724,-0.59693 -1.19386,-0.59693 -0.65662,0 -1.19386,0.26862 -1.19386,0.59693 0,0.32832 0.53724,0.59694 1.19386,0.59694 0.65662,0 1.19386,-0.26862 1.19386,-0.59694 z m 5.96931,0 c 0,-0.32831 -0.53723,-0.59693 -1.19386,-0.59693 -0.65662,0 -1.19386,0.26862 -1.19386,0.59693 0,0.32832 0.53724,0.59694 1.19386,0.59694 0.65663,0 1.19386,-0.26862 1.19386,-0.59694 z"
     id="path463" /><path
     style="fill:#ffffff;stroke:none;stroke-width:7.99888;stroke-linecap:round;stroke-dasharray:none"
     d="m 239.66781,134.8874 c -13.58387,-0.20571 -18.42702,-0.49425 -19.6961,-1.17344 -0.83382,-0.44625 -3.09226,-4.37206 -7.68443,-13.35774 L 208.2833,112.5215 H 310.76375 413.2442 l 1.78144,1.81344 c 2.49133,2.53605 2.91147,2.70468 7.44105,2.98659 2.14022,0.1332 4.83147,0.37672 5.98056,0.54117 2.67814,0.38327 11.31377,0.38673 14.02788,0.006 1.14909,-0.16135 3.90244,-0.40144 6.11854,-0.53353 4.44006,-0.26464 5.65496,-0.66751 7.31241,-2.42489 1.55949,-1.6535 4.15411,-2.66261 4.87151,-1.89463 0.60283,0.64533 3.2776,0.43411 2.86926,-0.22659 -0.27314,-0.44195 0.47619,-0.30067 0.95737,0.18051 0.57735,0.57735 2.32202,0.57735 2.89937,0 0.24624,-0.24624 0.66899,-0.4477 0.93945,-0.4477 0.43257,0 0.46848,0.29631 0.2984,2.46234 -0.25525,3.25082 -0.25653,15.65016 -0.002,18.2064 l 0.2007,2.01464 -107.54767,-0.0514 c -59.15122,-0.0283 -113.92737,-0.14801 -121.72478,-0.26609 z"
     id="path464" /><path
     style="fill:#ffffff;stroke:none;stroke-width:7.99888;stroke-linecap:round;stroke-dasharray:none"
     d="m 420.13552,106.2896 c 0.3034,-0.47274 2.02903,-3.08883 3.83475,-5.81353 l 3.28312,-4.953996 2.16387,-0.0066 c 1.24798,-0.0038 2.16388,0.119776 2.16388,0.291911 0,0.180027 1.2436,0.298465 3.13389,0.298465 1.89028,0 3.13388,-0.118438 3.13388,-0.298465 0,-0.164156 0.73871,-0.298466 1.64156,-0.298466 0.90286,0 1.64156,0.13431 1.64156,0.298466 0,0.185254 1.64156,0.298465 4.32775,0.298465 2.68619,0 4.32775,-0.113211 4.32775,-0.298465 0,-0.164156 0.47009,-0.298466 1.04463,-0.298466 h 1.04463 v 5.820071 5.82008 H 435.73035 419.5839 Z"
     id="path465" /><path
     style="fill:#ffffff;stroke:none;stroke-width:2.82803;stroke-linecap:round;stroke-dasharray:none"
     d="m 479.21409,154.42253 c 0.0522,-19.48565 0.11675,-22.81777 0.44859,-23.14919 0.24085,-0.24055 3.15633,-0.19423 6.00877,0.0954 1.2766,0.12965 2.33876,0.2534 2.36036,0.275 0.0438,0.0438 -0.36588,33.1365 -0.47124,38.06437 l -0.0671,3.13933 h -0.61436 c -0.3379,0 -0.64032,-0.042 -0.67205,-0.0933 -0.20176,-0.32646 -3.24459,-0.42381 -3.99962,-0.12797 -0.38473,0.15075 -0.31214,0.36373 0.14887,0.43677 0.37148,0.0589 -0.0297,0.10738 -2.26024,0.27331 l -0.93279,0.0694 z m 0.61611,16.60468 c 0.23878,-0.83324 0.15325,-3.96286 -0.12041,-4.40564 -0.079,-0.12788 -0.12163,-0.13158 -0.23301,-0.0202 -0.10261,0.1026 -0.1363,0.6763 -0.1363,2.32063 0,1.20139 0.0341,2.26744 0.0758,2.369 0.12595,0.30673 0.2782,0.20969 0.41389,-0.2638 z m 0.0865,-15.64553 c 0.18515,-6.11222 0.0631,-17.29276 -0.19379,-17.7518 -0.19122,-0.34168 -0.234,1.61001 -0.23416,10.68169 -1.6e-4,9.00393 0.0415,10.93409 0.23171,10.74385 0.0482,-0.0482 0.13649,-1.70137 0.19624,-3.67374 z"
     id="path466" /><path
     style="fill:#ffffff;stroke:none;stroke-width:5.65606;stroke-linecap:round;stroke-dasharray:none"
     d="m 444.57049,286.09763 c -4.6897,-1.14324 -8.37606,-6.34099 -7.52313,-10.60756 0.51746,-2.58842 1.97508,-4.65329 4.41903,-6.26 2.10219,-1.38203 3.1885,-1.72801 5.42561,-1.72801 1.71459,0 2.03583,0.0667 3.30115,0.68578 1.73712,0.84987 3.45996,2.6447 4.42998,4.61511 0.70423,1.43048 0.76803,1.93522 0.49282,3.89877 -0.10188,0.72687 -0.0551,1.04953 0.18739,1.292 0.27933,0.27933 0.28616,0.46286 0.0503,1.35269 -0.7014,2.64667 -2.37541,4.72493 -4.7828,5.93777 -2.10862,1.06233 -3.95351,1.31243 -6.00039,0.81345 z"
     id="path467" /></svg>
