<?xml version="1.0" encoding="UTF-8" standalone="no"?>
<!-- Created with Inkscape (http://www.inkscape.org/) -->

<svg
   width="512"
   height="512"
   viewBox="0 0 512 512"
   version="1.1"
   id="svg1"
   xml:space="preserve"
   xmlns="http://www.w3.org/2000/svg"
   xmlns:svg="http://www.w3.org/2000/svg"><defs
     id="defs1" /><g
     id="g271"><path
       style="fill:#d0d0d0;fill-opacity:1"
       d="m 7.412377,419.84579 c 0,-1.375 0.2269737,-1.9375 0.504386,-1.25 0.2774123,0.6875 0.2774123,1.8125 0,2.5 -0.2774123,0.6875 -0.504386,0.125 -0.504386,-1.25 z m 172.000003,-113 c 0,-1.375 0.22697,-1.9375 0.50438,-1.25 0.27742,0.6875 0.27742,1.8125 0,2.5 -0.27741,0.6875 -0.50438,0.125 -0.50438,-1.25 z m 97.5921,-21.73221 c 2.3375,-0.21053 6.1625,-0.21053 8.5,0 2.3375,0.21054 0.425,0.38279 -4.25,0.38279 -4.675,0 -6.5875,-0.17225 -4.25,-0.38279 z m -101,-20.99119 c 1.7875,-0.22182 4.7125,-0.22182 6.5,0 1.7875,0.22183 0.325,0.40332 -3.25,0.40332 -3.575,0 -5.0375,-0.18149 -3.25,-0.40332 z m 133.25,-3.65416 c 0,-0.20765 0.7875,-0.99515 1.75,-1.75 1.58606,-1.24387 1.62143,-1.2085 0.37756,0.37756 -1.30637,1.66575 -2.12756,2.19548 -2.12756,1.37244 z m 15.19495,-37.12244 c 0.0204,-1.65 0.2445,-2.20394 0.49804,-1.23097 0.25355,0.97297 0.23687,2.32297 -0.0371,3 -0.27392,0.67703 -0.48137,-0.11903 -0.46099,-1.76903 z m 13,-2 c 0.0204,-1.65 0.2445,-2.20394 0.49804,-1.23097 0.25355,0.97297 0.23687,2.32297 -0.0371,3 -0.27392,0.67703 -0.48137,-0.11903 -0.46099,-1.76903 z m 21.80505,0.12244 c 0,-0.20765 0.7875,-0.99515 1.75,-1.75 1.58606,-1.24387 1.62143,-1.2085 0.37756,0.37756 -1.30637,1.66575 -2.12756,2.19548 -2.12756,1.37244 z M 37.004482,174.18351 c 0.6875,-0.27741 1.8125,-0.27741 2.5,0 0.6875,0.27741 0.125,0.50438 -1.25,0.50438 -1.375,0 -1.9375,-0.22697 -1.25,-0.50438 z m 17.039188,-0.0791 c 3.459053,-0.19583 8.859053,-0.19421 12,0.004 3.140947,0.19781 0.310812,0.35803 -6.289188,0.35605 -6.6,-0.002 -9.169865,-0.16382 -5.710812,-0.35965 z m 19.460812,0.0521 c 0.9625,-0.25152 2.5375,-0.25152 3.5,0 0.9625,0.25153 0.175,0.45733 -1.75,0.45733 -1.925,0 -2.7125,-0.2058 -1.75,-0.45733 z m 17,-0.0574 c 6.4625,-0.17419 17.037498,-0.17419 23.499998,0 6.4625,0.17419 1.175,0.3167 -11.75,0.3167 -12.924998,0 -18.212498,-0.14251 -11.749998,-0.3167 z m 37.999998,0.0305 c 1.5125,-0.22912 3.9875,-0.22912 5.5,0 1.5125,0.22913 0.275,0.41659 -2.75,0.41659 -3.025,0 -4.2625,-0.18746 -2.75,-0.41659 z m 14.5625,0.0331 c 0.72188,-0.28887 1.58438,-0.25334 1.91667,0.079 0.33229,0.33229 -0.25833,0.56864 -1.3125,0.52522 -1.16494,-0.048 -1.4019,-0.28494 -0.60417,-0.60417 z m 4.9375,-0.0226 c 1.2375,-0.23836 3.2625,-0.23836 4.5,0 1.2375,0.23835 0.225,0.43336 -2.25,0.43336 -2.475,0 -3.4875,-0.19501 -2.25,-0.43336 z m 18.5,0.0164 c 0.9625,-0.25152 2.5375,-0.25152 3.5,0 0.9625,0.25153 0.175,0.45733 -1.75,0.45733 -1.925,0 -2.7125,-0.2058 -1.75,-0.45733 z m 9.51166,-0.0179 c 1.24391,-0.2392 3.04391,-0.23011 4,0.0202 0.95609,0.25029 -0.0617,0.44599 -2.26166,0.4349 -2.2,-0.0111 -2.98225,-0.21589 -1.73834,-0.45508 z m 51.06376,-0.0425 c 24.92899,-0.14887 65.42899,-0.14883 90,1.2e-4 24.57102,0.14894 4.17458,0.27075 -45.32542,0.27069 -49.5,-7e-5 -69.60356,-0.12193 -44.67458,-0.27081 z m 277.33248,-26.2502 c 0,-1.375 0.22697,-1.9375 0.50438,-1.25 0.27742,0.6875 0.27742,1.8125 0,2.5 -0.27741,0.6875 -0.50438,0.125 -0.50438,-1.25 z m 0.0371,-8.5 c 0.0204,-1.65 0.2445,-2.20394 0.49804,-1.23097 0.25355,0.97297 0.23687,2.32297 -0.0371,3 -0.27392,0.67703 -0.48137,-0.11903 -0.46099,-1.76903 z m -300.87016,-2.24976 c 23.00364,-0.14977 60.35364,-0.14971 83,1.3e-4 22.64637,0.14984 3.82521,0.27237 -41.82479,0.2723 -45.65,-7e-5 -64.17884,-0.12266 -41.17521,-0.27243 z m 126.43687,0.0425 c 1.24391,-0.2392 3.04391,-0.23011 4,0.0202 0.95609,0.25029 -0.0617,0.44599 -2.26166,0.4349 -2.2,-0.0111 -2.98225,-0.21589 -1.73834,-0.45508 z m 9.98834,0.045 c 0.6875,-0.27741 1.8125,-0.27741 2.5,0 0.6875,0.27741 0.125,0.50438 -1.25,0.50438 -1.375,0 -1.9375,-0.22697 -1.25,-0.50438 z M 504.5644,123.34593 c 0.006,-3.3 0.1923,-4.52944 0.41486,-2.73209 0.22256,1.79735 0.21797,4.49735 -0.0102,6 -0.22818,1.50265 -0.41027,0.0321 -0.40466,-3.26791 z M 28.254482,96.345789 c 1.291746,-1.375 2.573628,-2.5 2.848628,-2.5 0.275,0 -0.556882,1.125 -1.848628,2.5 -1.291745,1.375 -2.573628,2.5 -2.848628,2.5 -0.275,0 0.556883,-1.125 1.848628,-2.5 z M 453.00448,93.183508 c 0.6875,-0.277412 1.8125,-0.277412 2.5,0 0.6875,0.277413 0.125,0.504386 -1.25,0.504386 -1.375,0 -1.9375,-0.226973 -1.25,-0.504386 z m -81.54375,-8.078272 c 3.68844,-0.191858 9.98844,-0.193134 14,-0.0028 4.01156,0.190298 0.99375,0.347272 -6.70625,0.348833 -7.7,0.0016 -10.98219,-0.154138 -7.29375,-0.345996 z m 24.54375,0.07827 c 0.6875,-0.277412 1.8125,-0.277412 2.5,0 0.6875,0.277413 0.125,0.504386 -1.25,0.504386 -1.375,0 -1.9375,-0.226973 -1.25,-0.504386 z m 18,0 c 0.6875,-0.277412 1.8125,-0.277412 2.5,0 0.6875,0.277413 0.125,0.504386 -1.25,0.504386 -1.375,0 -1.9375,-0.226973 -1.25,-0.504386 z"
       id="path278" /><path
       style="fill:#b9b9b9;fill-opacity:1"
       d="m 116.06698,458.16267 c 0.72188,-0.28887 1.58438,-0.25334 1.91667,0.079 0.33229,0.33229 -0.25833,0.56864 -1.3125,0.52522 -1.16494,-0.048 -1.4019,-0.28494 -0.60417,-0.60417 z M 7.3334296,399.26246 c 0.047984,-1.16495 0.2849403,-1.4019 0.6041667,-0.60417 0.2888706,0.72187 0.2533443,1.58437 -0.078947,1.91667 -0.3322916,0.33229 -0.5686403,-0.25834 -0.5252197,-1.3125 z M 295.04367,285.10437 c 3.45905,-0.19583 8.85905,-0.19421 12,0.004 3.14095,0.19781 0.31081,0.35803 -6.28919,0.35605 -6.6,-0.002 -9.16986,-0.16382 -5.71081,-0.35965 z m 35.21081,-6.63614 c 0,-0.20765 0.7875,-0.99515 1.75,-1.75 1.58606,-1.24387 1.62143,-1.2085 0.37756,0.37756 -1.30637,1.66575 -2.12756,2.19548 -2.12756,1.37244 z M 88.412377,236.84579 c 0,-1.375 0.226974,-1.9375 0.504386,-1.25 0.277412,0.6875 0.277412,1.8125 0,2.5 -0.277412,0.6875 -0.504386,0.125 -0.504386,-1.25 z M 30.004482,174.14006 c 1.2375,-0.23836 3.2625,-0.23836 4.5,0 1.2375,0.23835 0.225,0.43336 -2.25,0.43336 -2.475,0 -3.4875,-0.19501 -2.25,-0.43336 z m 11,0.0435 c 0.6875,-0.27741 1.8125,-0.27741 2.5,0 0.6875,0.27741 0.125,0.50438 -1.25,0.50438 -1.375,0 -1.9375,-0.22697 -1.25,-0.50438 z m 96.062498,-0.0208 c 0.72188,-0.28887 1.58438,-0.25334 1.91667,0.079 0.33229,0.33229 -0.25833,0.56864 -1.3125,0.52522 -1.16494,-0.048 -1.4019,-0.28494 -0.60417,-0.60417 z m 18,0 c 0.72188,-0.28887 1.58438,-0.25334 1.91667,0.079 0.33229,0.33229 -0.25833,0.56864 -1.3125,0.52522 -1.16494,-0.048 -1.4019,-0.28494 -0.60417,-0.60417 z m 4.94916,-0.0241 c 1.24391,-0.2392 3.04391,-0.23011 4,0.0202 0.95609,0.25029 -0.0617,0.44599 -2.26166,0.4349 -2.2,-0.0111 -2.98225,-0.21589 -1.73834,-0.45508 z m 245.05799,-0.0421 c 13.92581,-0.1569 36.42581,-0.15675 50,3.3e-4 13.5742,0.15708 2.18035,0.28546 -25.31965,0.28528 -27.5,-1.9e-4 -38.60615,-0.12871 -24.68035,-0.28561 z M 94.583122,150.09586 c 42.805748,-0.14431 112.555748,-0.14429 154.999998,4e-5 42.44425,0.14433 7.42136,0.26239 -77.82864,0.26237 -85.249998,-2e-5 -119.97711,-0.11811 -77.171358,-0.26241 z m 328.421358,0.001 c 10.0375,-0.16311 26.4625,-0.16311 36.5,0 10.0375,0.16311 1.825,0.29656 -18.25,0.29656 -20.075,0 -28.2875,-0.13345 -18.25,-0.29656 z m -87,-12.91373 c 0.6875,-0.27741 1.8125,-0.27741 2.5,0 0.6875,0.27741 0.125,0.50438 -1.25,0.50438 -1.375,0 -1.9375,-0.22697 -1.25,-0.50438 z m 22,-0.0842 c 6.1875,-0.17545 16.3125,-0.17545 22.5,0 6.1875,0.17545 1.125,0.319 -11.25,0.319 -12.375,0 -17.4375,-0.14355 -11.25,-0.319 z m 37.01166,0.0393 c 1.24391,-0.2392 3.04391,-0.23011 4,0.0202 0.95609,0.25029 -0.0617,0.44599 -2.26166,0.4349 -2.2,-0.0111 -2.98225,-0.21589 -1.73834,-0.45508 z m 9.96604,-0.0145 c 1.77523,-0.22091 4.92523,-0.22454 7,-0.008 2.07477,0.21648 0.6223,0.39722 -3.2277,0.40166 -3.85,0.004 -5.54753,-0.17268 -3.7723,-0.39359 z m 17.06149,-0.0197 c 3.45905,-0.19583 8.85905,-0.19421 12,0.004 3.14095,0.19781 0.31081,0.35803 -6.28919,0.35605 -6.6,-0.002 -9.16986,-0.16382 -5.71081,-0.35965 z m 26.47984,0.0484 c 0.97297,-0.25355 2.32297,-0.23687 3,0.037 0.67704,0.27393 -0.11903,0.48137 -1.76903,0.46099 -1.65,-0.0204 -2.20393,-0.2445 -1.23097,-0.49804 z m 43.06718,-8.30701 c 0,-4.125 0.17652,-5.8125 0.39226,-3.75 0.21574,2.0625 0.21574,5.4375 0,7.5 -0.21574,2.0625 -0.39226,0.375 -0.39226,-3.75 z M 263.08161,99.095914 c 32.07992,-0.146468 84.27992,-0.146437 116,6.8e-5 31.72008,0.146506 5.47287,0.266343 -58.32713,0.266306 -63.8,-3.8e-5 -89.75279,-0.119906 -57.67287,-0.266374 z m 194.4419,-5.943116 c 0.97297,-0.253543 2.32297,-0.236869 3,0.03705 0.67704,0.273923 -0.11903,0.481368 -1.76903,0.460988 -1.65,-0.02038 -2.20393,-0.244498 -1.23097,-0.498042 z m -55.01903,-8.035477 c 2.0625,-0.215745 5.4375,-0.215745 7.5,0 2.0625,0.215744 0.375,0.392262 -3.75,0.392262 -4.125,0 -5.8125,-0.176518 -3.75,-0.392262 z"
       id="path277" /><path
       style="fill:#a3a3a3;fill-opacity:1"
       d="m 131.06698,441.16267 c 0.72188,-0.28887 1.58438,-0.25334 1.91667,0.079 0.33229,0.33229 -0.25833,0.56864 -1.3125,0.52522 -1.16494,-0.048 -1.4019,-0.28494 -0.60417,-0.60417 z m 14.3454,-24.31688 c 0,-1.375 0.22697,-1.9375 0.50438,-1.25 0.27742,0.6875 0.27742,1.8125 0,2.5 -0.27741,0.6875 -0.50438,0.125 -0.50438,-1.25 z m -0.079,-4.58333 c 0.048,-1.16495 0.28494,-1.4019 0.60417,-0.60417 0.28887,0.72187 0.25334,1.58437 -0.0789,1.91667 -0.33229,0.33229 -0.56864,-0.25834 -0.52522,-1.3125 z m -55.921053,-8.41667 c 0,-1.375 0.226974,-1.9375 0.504386,-1.25 0.277412,0.6875 0.277412,1.8125 0,2.5 -0.277412,0.6875 -0.504386,0.125 -0.504386,-1.25 z m 30.842103,-79.5 c 1.29175,-1.375 2.57363,-2.5 2.84863,-2.5 0.275,0 -0.55688,1.125 -1.84863,2.5 -1.29174,1.375 -2.57363,2.5 -2.84863,2.5 -0.275,0 0.55689,-1.125 1.84863,-2.5 z m 47.07895,-13.08333 c 0.048,-1.16495 0.28494,-1.4019 0.60417,-0.60417 0.28887,0.72187 0.25334,1.58437 -0.0789,1.91667 -0.33229,0.33229 -0.56864,-0.25834 -0.52522,-1.3125 z M 258.0703,197.09687 c 10.62371,-0.1621 27.72371,-0.16186 38,5.4e-4 10.2763,0.16239 1.58418,0.29502 -19.31582,0.29473 -20.9,-3e-4 -29.30788,-0.13317 -18.68418,-0.29527 z m 233.18418,-44.5406 c 0,-1.31618 -1.37006,-1.68808 -7.25,-1.96797 l -7.25,-0.34512 7.28139,-0.19869 c 5.76741,-0.15739 7.4045,0.12215 7.87354,1.34443 0.32568,0.84872 0.31156,1.82372 -0.0314,2.16666 -0.34295,0.34295 -0.62354,-0.10674 -0.62354,-0.99931 z m -153.19265,-2.45794 c 6.76904,-0.17326 17.56904,-0.17273 24,0.001 6.43096,0.17391 0.89265,0.31567 -12.30735,0.31501 -13.2,-6.5e-4 -18.46169,-0.14294 -11.69265,-0.3162 z m 56.44265,0.019 c 2.0625,-0.21574 5.4375,-0.21574 7.5,0 2.0625,0.21574 0.375,0.39226 -3.75,0.39226 -4.125,0 -5.8125,-0.17652 -3.75,-0.39226 z m 46.5,-12.97726 c 1.2375,-0.23836 3.2625,-0.23836 4.5,0 1.2375,0.23835 0.225,0.43336 -2.25,0.43336 -2.475,0 -3.4875,-0.19501 -2.25,-0.43336 z m 12.0625,0.0226 c 0.72188,-0.28887 1.58438,-0.25334 1.91667,0.079 0.33229,0.33229 -0.25833,0.56864 -1.3125,0.52522 -1.16494,-0.048 -1.4019,-0.28494 -0.60417,-0.60417 z m 11.48321,-0.061 c 4.28764,-0.18791 11.03764,-0.18676 15,0.003 3.96236,0.18931 0.45429,0.34305 -7.79571,0.34165 -8.25,-10e-4 -11.49193,-0.15629 -7.20429,-0.34419 z m 26.86219,-17.25587 c 0,-1.375 0.22697,-1.9375 0.50438,-1.25 0.27742,0.6875 0.27742,1.8125 0,2.5 -0.27741,0.6875 -0.50438,0.125 -0.50438,-1.25 z M 182.50448,99.10248 c 4.2625,-0.187451 11.2375,-0.187451 15.5,0 4.2625,0.187451 0.775,0.340821 -7.75,0.340821 -8.525,0 -12.0125,-0.15337 -7.75,-0.340821 z m 263.5,-0.0026 c 5.6375,-0.178247 14.8625,-0.178247 20.5,0 5.6375,0.178248 1.025,0.324086 -10.25,0.324086 -11.275,0 -15.8875,-0.145838 -10.25,-0.324086 z"
       id="path276" /><path
       style="fill:#8c8c8c;fill-opacity:1"
       d="m 134.00448,441.18351 c 0.6875,-0.27741 1.8125,-0.27741 2.5,0 0.6875,0.27741 0.125,0.50438 -1.25,0.50438 -1.375,0 -1.9375,-0.22697 -1.25,-0.50438 z m -0.49781,-23.83772 c 0.0111,-2.2 0.21588,-2.98225 0.45507,-1.73834 0.2392,1.24391 0.23012,3.04391 -0.0202,4 -0.25029,0.95609 -0.44599,-0.0617 -0.43489,-2.26166 z m 45.82676,-105.08333 c 0.048,-1.16495 0.28494,-1.4019 0.60417,-0.60417 0.28887,0.72187 0.25334,1.58437 -0.0789,1.91667 -0.33229,0.33229 -0.56864,-0.25834 -0.52522,-1.3125 z m -23.32895,-0.0789 c 0.6875,-0.27741 1.8125,-0.27741 2.5,0 0.6875,0.27741 0.125,0.50438 -1.25,0.50438 -1.375,0 -1.9375,-0.22697 -1.25,-0.50438 z m 316.5,-96.05398 c 1.5125,-0.22912 3.9875,-0.22912 5.5,0 1.5125,0.22913 0.275,0.41659 -2.75,0.41659 -3.025,0 -4.2625,-0.18746 -2.75,-0.41659 z m -224.5,-6.98947 c 1.2375,-0.23836 3.2625,-0.23836 4.5,0 1.2375,0.23835 0.225,0.43336 -2.25,0.43336 -2.475,0 -3.4875,-0.19501 -2.25,-0.43336 z m 20.5,-0.0418 c 7.5625,-0.16988 19.9375,-0.16988 27.5,0 7.5625,0.16988 1.375,0.30888 -13.75,0.30888 -15.125,0 -21.3125,-0.139 -13.75,-0.30888 z m 111,-10.96869 c 1.5125,-0.22912 3.9875,-0.22912 5.5,0 1.5125,0.22913 0.275,0.41659 -2.75,0.41659 -3.025,0 -4.2625,-0.18746 -2.75,-0.41659 z m 34.5,0.054 c 0.6875,-0.27741 1.8125,-0.27741 2.5,0 0.6875,0.27741 0.125,0.50438 -1.25,0.50438 -1.375,0 -1.9375,-0.22697 -1.25,-0.50438 z m 27.5,-0.0271 c 0.9625,-0.25152 2.5375,-0.25152 3.5,0 0.9625,0.25153 0.175,0.45733 -1.75,0.45733 -1.925,0 -2.7125,-0.2058 -1.75,-0.45733 z m -44.5,-36.05866 c 8.3875,-0.16725 22.1125,-0.16725 30.5,0 8.3875,0.16726 1.525,0.30411 -15.25,0.30411 -16.775,0 -23.6375,-0.13685 -15.25,-0.30411 z m 90,-24.91429 c 0.6875,-0.27741 1.8125,-0.27741 2.5,0 0.6875,0.27741 0.125,0.50438 -1.25,0.50438 -1.375,0 -1.9375,-0.22697 -1.25,-0.50438 z m 4.32895,-20.92105 c 0.048,-1.16495 0.28494,-1.4019 0.60417,-0.60417 0.28887,0.72187 0.25334,1.58437 -0.0789,1.91667 -0.33229,0.33229 -0.56864,-0.25834 -0.52522,-1.3125 z"
       id="path275" /><path
       style="fill:#767676;fill-opacity:1"
       d="m 146.25448,453.46823 c 0,-0.20765 0.7875,-0.99515 1.75,-1.75 1.58606,-1.24387 1.62143,-1.2085 0.37756,0.37756 -1.30637,1.66575 -2.12756,2.19548 -2.12756,1.37244 z m 3.76166,-141.3297 c 1.24391,-0.2392 3.04391,-0.23011 4,0.0202 0.95609,0.25029 -0.0617,0.44599 -2.26166,0.4349 -2.2,-0.0111 -2.98225,-0.21589 -1.73834,-0.45508 z m -44.76166,-29.6703 c 0,-0.20765 0.7875,-0.99515 1.75,-1.75 1.58606,-1.24387 1.62143,-1.2085 0.37756,0.37756 -1.30637,1.66575 -2.12756,2.19548 -2.12756,1.37244 z M 368.52351,216.1528 c 0.97297,-0.25355 2.32297,-0.23687 3,0.037 0.67704,0.27393 -0.11903,0.48137 -1.76903,0.46099 -1.65,-0.0204 -2.20393,-0.2445 -1.23097,-0.49804 z m 11.02256,-0.0495 c 3.73537,-0.19293 9.58537,-0.1915 13,0.003 3.41463,0.19468 0.35841,0.35253 -6.79159,0.35078 -7.15,-0.002 -9.94378,-0.16103 -6.20841,-0.35396 z m 31.01483,-0.005 c 6.49353,-0.17445 16.84353,-0.17388 23,0.001 6.15647,0.17516 0.84358,0.31789 -11.80642,0.31719 -12.65,-7e-4 -17.68711,-0.14401 -11.19358,-0.31847 z m 40.98517,0.005 c 3.73537,-0.19293 9.58537,-0.1915 13,0.003 3.41463,0.19468 0.35841,0.35253 -6.79159,0.35078 -7.15,-0.002 -9.94378,-0.16103 -6.20841,-0.35396 z m -141.54159,-6.91978 c 0.6875,-0.27741 1.8125,-0.27741 2.5,0 0.6875,0.27741 0.125,0.50438 -1.25,0.50438 -1.375,0 -1.9375,-0.22697 -1.25,-0.50438 z M 72.126927,200.09579 c -1.243871,-1.58606 -1.2085,-1.62143 0.377555,-0.37756 1.665748,1.30637 2.195479,2.12756 1.372445,2.12756 -0.207655,0 -0.995155,-0.7875 -1.75,-1.75 z m 315.877553,-1.91228 c 0.6875,-0.27741 1.8125,-0.27741 2.5,0 0.6875,0.27741 0.125,0.50438 -1.25,0.50438 -1.375,0 -1.9375,-0.22697 -1.25,-0.50438 z m 21.51903,-0.0307 c 0.97297,-0.25355 2.32297,-0.23687 3,0.037 0.67704,0.27393 -0.11903,0.48137 -1.76903,0.46099 -1.65,-0.0204 -2.20393,-0.2445 -1.23097,-0.49804 z m 8.54347,0.01 c 0.72188,-0.28887 1.58438,-0.25334 1.91667,0.079 0.33229,0.33229 -0.25833,0.56864 -1.3125,0.52522 -1.16494,-0.048 -1.4019,-0.28494 -0.60417,-0.60417 z m 18.9375,0.0208 c 0.6875,-0.27741 1.8125,-0.27741 2.5,0 0.6875,0.27741 0.125,0.50438 -1.25,0.50438 -1.375,0 -1.9375,-0.22697 -1.25,-0.50438 z m 10.0625,-0.0208 c 0.72188,-0.28887 1.58438,-0.25334 1.91667,0.079 0.33229,0.33229 -0.25833,0.56864 -1.3125,0.52522 -1.16494,-0.048 -1.4019,-0.28494 -0.60417,-0.60417 z m 5.9375,-36.06339 c 6.1875,-0.17545 16.3125,-0.17545 22.5,0 6.1875,0.17545 1.125,0.319 -11.25,0.319 -12.375,0 -17.4375,-0.14355 -11.25,-0.319 z M 140.71336,137.77926 c -0.36253,-0.58659 -0.44468,-1.281 -0.18255,-1.54313 0.26213,-0.26213 0.74306,0.21781 1.06875,1.06653 0.67618,1.76211 0.0999,2.07206 -0.8862,0.4766 z"
       id="path274" /><path
       style="fill:#606060;fill-opacity:1"
       d="m 19.33343,397.26246 c 0.04798,-1.16495 0.28494,-1.4019 0.604166,-0.60417 0.288871,0.72187 0.253345,1.58437 -0.07895,1.91667 -0.332292,0.33229 -0.56864,-0.25834 -0.525219,-1.3125 z m 365.67105,-211.1224 c 1.2375,-0.23836 3.2625,-0.23836 4.5,0 1.2375,0.23835 0.225,0.43336 -2.25,0.43336 -2.475,0 -3.4875,-0.19501 -2.25,-0.43336 z m 10.0625,0.0226 c 0.72188,-0.28887 1.58438,-0.25334 1.91667,0.079 0.33229,0.33229 -0.25833,0.56864 -1.3125,0.52522 -1.16494,-0.048 -1.4019,-0.28494 -0.60417,-0.60417 z m 39,-114.999995 c 0.72188,-0.288871 1.58438,-0.253344 1.91667,0.07895 0.33229,0.332292 -0.25833,0.568641 -1.3125,0.52522 -1.16494,-0.04798 -1.4019,-0.284941 -0.60417,-0.604167 z"
       id="path273" /><path
       style="fill:#494949;fill-opacity:1"
       d="m 124.50448,458.12953 c 1.5125,-0.22912 3.9875,-0.22912 5.5,0 1.5125,0.22913 0.275,0.41659 -2.75,0.41659 -3.025,0 -4.2625,-0.18746 -2.75,-0.41659 z m 52.75,-178.6613 c 0,-0.20765 0.7875,-0.99515 1.75,-1.75 1.58606,-1.24387 1.62143,-1.2085 0.37756,0.37756 -1.30637,1.66575 -2.12756,2.19548 -2.12756,1.37244 z m 43,-65 c 0,-0.20765 0.7875,-0.99515 1.75,-1.75 1.58606,-1.24387 1.62143,-1.2085 0.37756,0.37756 -1.30637,1.66575 -2.12756,2.19548 -2.12756,1.37244 z m 183.75,-28.28472 c 0.6875,-0.27741 1.8125,-0.27741 2.5,0 0.6875,0.27741 0.125,0.50438 -1.25,0.50438 -1.375,0 -1.9375,-0.22697 -1.25,-0.50438 z m 6.01166,-0.045 c 1.24391,-0.2392 3.04391,-0.23011 4,0.0202 0.95609,0.25029 -0.0617,0.44599 -2.26166,0.4349 -2.2,-0.0111 -2.98225,-0.21589 -1.73834,-0.45508 z m 12.05084,0.0241 c 0.72188,-0.28887 1.58438,-0.25334 1.91667,0.079 0.33229,0.33229 -0.25833,0.56864 -1.3125,0.52522 -1.16494,-0.048 -1.4019,-0.28494 -0.60417,-0.60417 z m 9.45125,-0.0345 c 1.52006,-0.22986 3.77006,-0.22371 5,0.0137 1.22994,0.23736 -0.0138,0.42542 -2.76375,0.41791 -2.75,-0.007 -3.75631,-0.20171 -2.23625,-0.43156 z m 13.00528,0.0246 c 0.97297,-0.25355 2.32297,-0.23687 3,0.037 0.67704,0.27393 -0.11903,0.48137 -1.76903,0.46099 -1.65,-0.0204 -2.20393,-0.2445 -1.23097,-0.49804 z m 7.45867,-0.0287 c 1.77523,-0.22091 4.92523,-0.22454 7,-0.008 2.07477,0.21648 0.6223,0.39722 -3.2277,0.40166 -3.85,0.004 -5.54753,-0.17268 -3.7723,-0.39359 z m 14.5223,-0.007 c 2.0625,-0.21574 5.4375,-0.21574 7.5,0 2.0625,0.21574 0.375,0.39226 -3.75,0.39226 -4.125,0 -5.8125,-0.17652 -3.75,-0.39226 z m -450.84501,-4.52153 -1.904988,-2.25 2.25,1.90499 c 1.2375,1.04774 2.25,2.06024 2.25,2.25 0,0.80025 -0.804794,0.20945 -2.595012,-1.90499 z"
       id="path272" /><path
       style="fill:#333333;fill-opacity:1"
       d="M 98.52388,455.77118 C 69.698296,451.95247 43.440263,444.82726 23.929005,435.5296 10.067119,428.92403 6.8868134,424.63864 9.2722173,415.77993 c 0.8730657,-3.24232 0.8446977,-5.71832 -0.121191,-10.57769 -1.681068,-8.45742 0.4451449,-20.66706 7.0277597,-40.35645 8.969646,-26.82928 22.98396,-54.00545 48.408849,-93.87309 9.814401,-15.38952 11.11075,-19.24397 11.141432,-33.12691 0.02325,-10.51888 -0.206145,-11.96923 -2.688771,-17 C 67.188231,208.98722 60.428593,203.72547 40.413237,195.44864 26.061484,189.51384 20.694096,186.21612 14.566408,179.56836 9.246439,173.79688 7.4425908,170.22395 5.7015763,162.00956 3.0054533,149.28882 4.6334902,136.89728 10.67129,124.18339 20.73276,102.99679 35.426057,87.820497 47.416921,86.229853 c 3.80615,-0.504904 5.403232,-1.299624 7.121978,-3.543951 1.218571,-1.591202 3.189121,-4.118674 4.379,-5.616604 l 2.163416,-2.723509 h 16.481596 c 18.715873,0 20.193177,0.531017 21.334539,7.668707 l 0.612649,3.831293 H 260.25985 c 147.74159,0 160.8608,-0.132669 162.12219,-1.639468 0.75484,-0.901707 2.49744,-3.704896 3.87244,-6.229309 4.53564,-8.327149 7.35141,-8.154469 39.51053,2.423017 16.2802,5.354736 20.50743,7.130982 22.78079,9.57228 1.53523,1.648637 5.04762,4.130798 7.80533,5.515913 3.04325,1.528539 5.47406,3.567671 6.1845,5.187978 0.80373,1.83308 1.17807,11.75666 1.19468,31.66959 0.0206,24.69197 -0.21339,29.44566 -1.57503,32 -0.87956,1.65 -2.32022,4.35 -3.20146,6 -0.88124,1.65 -3.52903,11.30939 -5.88397,21.46532 -3.04216,13.11962 -4.9127,19.1991 -6.4613,21 l -2.17959,2.53468 -60.20221,0.5 -60.20221,0.5 -3.75317,4.23003 c -2.79235,3.14712 -5.23378,8.13922 -9.53666,19.5 -10.39006,27.43258 -16.10351,36.47396 -26.17335,41.41859 l -5.80688,2.85138 -41,-0.0151 c -33.8528,-0.0125 -42.96711,-0.31755 -52.28438,-1.75 -15.08588,-2.31933 -27.46339,-2.25971 -32.78636,0.15793 -8.80594,3.99957 -13.42028,13.45347 -13.4413,27.53869 -0.0102,6.86017 -0.40199,8.74241 -2.61582,12.5685 -9.4748,16.3749 -18.05984,37.0444 -24.42439,58.80459 -6.85344,23.4317 -8.2222,34.17663 -5.31143,41.69541 4.10236,10.59681 5.64609,17.1811 4.92695,21.01442 -0.93002,4.95745 -6.71578,10.87935 -12.08581,12.37019 -5.87608,1.63133 -25.01637,1.18579 -41.20806,-0.95922 z m 39.5081,-10.4821 c 4.66245,-3.2657 2.84391,-4.12312 -10.0275,-4.72785 -14.8751,-0.69887 -57.799199,-6.05417 -70.174526,-8.75513 -4.940008,-1.07817 -9.565401,-1.96031 -10.278652,-1.96031 -2.316174,0 -1.368695,3.02217 1.260918,4.02195 6.155908,2.34047 23.574066,6.17262 40.563251,8.92426 22.593629,3.65937 22.936879,3.69659 35.906509,3.89375 8.10697,0.12324 11.0385,-0.19788 12.75,-1.39667 z m -3.26669,-28.19329 c 0.009,-9.93234 0.51485,-13.74638 3.26913,-24.65527 6.2219,-24.64313 12.97781,-44.19061 20.31982,-58.79314 2.14513,-4.26646 3.90024,-7.99218 3.90024,-8.27939 0,-0.28721 -4.6125,-0.51781 -10.25,-0.51243 -8.63984,0.008 -11.03544,0.37715 -15.25,2.34847 -9.10735,4.25989 -14.59031,11.91999 -23.0065,32.14176 -10.6521,25.59405 -14.511532,42.85527 -11.57288,51.75947 3.69985,11.21065 13.35395,17.27243 28.07938,17.63096 l 4.5,0.10957 z m -36.510808,9.15773 c 0,-0.32575 -0.881641,-1.7131 -1.959203,-3.083 -3.617058,-4.59834 -6.040797,-12.91706 -6.040797,-20.73312 0,-10.73842 5.955413,-30.19425 16.982288,-55.47968 7.28067,-16.69512 14.83847,-25.69985 26.01771,-30.99876 4.99942,-2.36971 6.83172,-2.63815 20.13195,-2.94943 l 14.63196,-0.34244 0.43031,-8.66065 c 0.75854,-15.26671 8.33115,-26.9914 21.05578,-32.6007 3.1625,-1.3941 5.75,-2.74222 5.75,-2.99581 0,-0.25359 1.77161,-7.34676 3.9369,-15.76261 2.16529,-8.41584 4.64943,-20.02653 5.5203,-25.80153 2.11518,-14.02642 6.34403,-22.77471 15.52897,-32.1251 l 6.75327,-6.8749 H 139.48984 51.985769 l 7.384356,3.6759 c 8.876273,4.41856 19.351589,14.36581 23.268554,22.09557 6.646528,13.11629 7.303202,28.05045 1.879919,42.7533 -2.934025,7.95432 -5.207503,11.95863 -23.26401,40.97523 -17.831571,28.65513 -30.711301,55.99144 -37.457092,79.5 -4.649075,16.20167 -5.187162,21.75537 -2.661116,27.46591 1.909641,4.31707 1.93072,4.78129 0.404125,8.90025 -0.88583,2.39009 -1.327682,5.08289 -0.981893,5.98401 0.935528,2.43794 6.764142,5.64183 10.271556,5.64609 5.002071,0.006 6.984208,-3.20414 10.815353,-17.51626 9.023402,-33.709 29.196032,-77.21872 49.162356,-106.03676 23.108563,-33.35334 52.085223,-49.41369 89.196603,-49.43735 7.92145,-0.005 9.53726,0.28136 11.25,1.99411 2.54626,2.54625 2.54626,5.45374 0,8 -1.7585,1.7585 -3.33333,2 -13.04216,2 -26.14678,0 -44.72835,7.83474 -64.03566,27 -12.89085,12.79601 -22.881412,27.46798 -35.167927,51.647 -10.561382,20.78408 -16.664415,34.96405 -22.317434,51.853 -5.957044,17.79725 -6.344621,20.6831 -3.200107,23.82762 2.860138,2.86014 7.131267,3.87242 27.76329,6.58007 17.331276,2.27448 17,2.24525 17,1.50004 z M 322.75791,269.70864 c 5.76768,-5.0641 9.56788,-12.74907 19.44832,-39.32948 4.68705,-12.60914 7.78048,-17.54554 13.46116,-21.48086 3.80651,-2.63699 4.15648,-3.31445 6.15995,-11.92417 l 2.12416,-9.12834 h -57.78341 c -38.47236,0 -58.72004,0.35611 -60.58605,1.06556 -3.13174,1.19069 -11.24867,7.04292 -11.29664,8.14477 -0.017,0.39068 19.65658,0.84068 43.71908,1 48.42544,0.32063 46.67918,0.0896 53.19509,7.03864 6.96465,7.42766 7.64229,19.2332 2.06034,35.89422 -5.2808,15.76213 -11.39783,25.68528 -18.5054,30.01978 l -3.00003,1.82955 3.71521,0.004 c 2.74147,0.003 4.65167,-0.81849 7.28822,-3.13341 z m -102.41478,-4.49949 c -2.24474,-2.55015 -5.38223,-6.88987 -6.97222,-9.64383 l -2.89088,-5.00719 -1.71484,5.89383 c -0.94316,3.2416 -1.94842,7.32945 -2.23392,9.08409 -0.51791,3.18307 -0.5081,3.19112 4.35206,3.56975 2.67914,0.20872 6.8219,0.4606 9.20614,0.55974 l 4.33499,0.18025 z m 84.48673,-0.96615 c 7.2537,-3.44211 13.16669,-12.47321 17.80804,-27.19883 3.17447,-10.07164 3.386,-17.21737 0.64114,-21.65864 -3.67422,-5.94502 -4.1211,-6.01105 -42.89489,-6.33791 l -35.37032,-0.29817 0.71064,3.78804 c 1.58214,8.43353 7.86477,27.11685 10.69615,31.8083 1.65969,2.75 4.55127,6.43956 6.42574,8.19902 3.70459,3.47729 4.29288,6.27336 1.83669,8.72955 -3.16227,3.16227 -8.44672,1.31913 -14.61112,-5.09615 -5.03696,-5.24196 -8.37509,-12.21292 -14.28563,-29.83242 -5.02378,-14.97603 -5.03698,-15.0005 -8.26516,-15.31212 -6.94155,-0.67007 -10.78611,7.5336 -10.06011,21.46665 0.48681,9.34264 3.90359,17.61024 10.42744,25.2313 6.7765,7.91621 7.57343,8.06719 42.71488,8.09221 26.26041,0.0187 31.35126,-0.21644 34.22651,-1.58083 z m 87.81763,-61.979 c 1.57796,-4.11208 0.96918,-4.41821 -8.78602,-4.41821 -9.6822,0 -10.60699,0.39947 -10.60699,4.58179 0,2.205 18.54413,2.04858 19.39301,-0.16358 z m 29.42341,-1.66821 0.31643,-2.75 h -7.59118 c -7.22849,0 -7.63776,0.12255 -8.56642,2.5651 -0.53639,1.4108 -0.97525,2.779 -0.97525,3.04044 0,0.26144 3.7125,0.34464 8.25,0.1849 8.17477,-0.28779 8.25289,-0.31552 8.56642,-3.04044 z m 28.18358,0.25 v -3 h -7.52475 c -7.15719,0 -7.57239,0.12529 -8.5,2.5651 -0.53639,1.4108 -0.97525,2.7608 -0.97525,3 0,0.23919 3.825,0.4349 8.5,0.4349 h 8.5 z m 26.68744,2.21433 c 1.37883,-0.87673 3.41539,-5.77817 2.69865,-6.49491 -0.26742,-0.26742 -2.15119,-0.0994 -4.18615,0.37332 -2.03497,0.47275 -5.39858,0.87028 -7.47469,0.8834 -3.12102,0.0197 -3.94365,0.4681 -4.75,2.58896 -0.53639,1.4108 -0.97525,2.7608 -0.97525,3 0,0.75884 13.44745,0.43769 14.68744,-0.35077 z m 1.97711,-17.27689 c 1.53711,-0.58441 3.13452,-1.59691 3.54979,-2.25 1.17597,-1.84944 0.91691,-7.15619 -0.41434,-8.48744 -0.90178,-0.90179 -13.80381,-1.2 -51.91713,-1.2 h -50.71714 l -1.08286,5.04922 c -0.59558,2.77707 -1.08287,5.70207 -1.08287,6.5 0,1.24814 6.90486,1.45078 49.4349,1.45078 32.47688,0 50.39361,-0.3645 52.22965,-1.06256 z M 366.25585,174.59579 c 7.5e-4,-0.1375 0.63929,-3.85 1.41897,-8.25 1.56279,-8.81928 2.90415,-12.96448 4.51798,-13.96188 0.58392,-0.36088 1.06168,-1.0796 1.06168,-1.59714 0,-0.58446 -67.63016,-0.94098 -178.5,-0.94098 H 16.254482 v 4.46249 c 0,6.14651 3.477589,14.92014 7.133046,17.99601 l 3.020405,2.5415 H 196.33121 c 93.4578,0 169.92389,-0.1125 169.92464,-0.25 z M 489.2428,161.05633 c 1.51077,-1.22334 2.37879,-3.28793 2.74377,-6.52603 l 0.53388,-4.73656 -52.52865,0.27603 c -50.90984,0.26751 -52.59776,0.33765 -54.771,2.27602 -2.593,2.31275 -5.30486,8.14321 -4.43911,9.54402 0.36368,0.58845 20.9013,0.95598 53.42103,0.95598 49.26831,0 52.97919,-0.12065 55.04008,-1.78946 z M 52.320028,136.59579 c 0.562467,-1.2375 3.866977,-10.125 7.343355,-19.75 5.956635,-16.49206 6.856397,-21.69387 3.103213,-17.940686 -1.883224,1.883226 -14.733916,37.772786 -13.968469,39.011306 0.978542,1.58331 2.453365,1.03029 3.521901,-1.32062 z m 14.736844,0.98811 c 0.576003,-0.69405 4.008518,-9.55663 7.62781,-19.69464 4.441221,-12.44031 6.251369,-18.761903 5.568024,-19.445248 -0.683346,-0.683345 -1.45289,-0.538796 -2.367121,0.444634 -1.553915,1.671534 -13.652861,35.562594 -13.639767,38.207144 0.01015,2.05053 1.324892,2.27882 2.811054,0.48811 z m 17.062864,-2.98811 c 4.124623,-9.77029 12.562896,-35.655184 11.854306,-36.363775 -0.421948,-0.421948 -1.447783,-0.08657 -2.279632,0.745275 -1.919791,1.91979 -14.583964,36.94212 -13.964559,38.6185 0.885727,2.39717 2.608412,1.2199 4.389885,-3 z m 13.957825,2.96318 c 1.605999,-1.93511 14.168889,-37.917153 13.574379,-38.879094 -1.11434,-1.80304 -2.59319,-0.645833 -4.40288,3.445264 -3.45602,7.81292 -12.85541,35.52648 -12.253407,36.12849 0.9272,0.9272 1.921971,0.70298 3.081908,-0.69466 z m 15.564919,-0.96318 c 2.51954,-3.95297 13.70837,-36.05649 13.10999,-37.615829 -1.21819,-3.174573 -4.25749,2.571539 -10.34089,19.550559 -3.3864,9.4516 -6.1571,17.8891 -6.1571,18.75 0,2.26868 1.72818,1.91941 3.388,-0.68473 z m 16.77218,-2.81778 c 4.39135,-11.09957 11.83878,-32.60171 11.83928,-34.182221 6.3e-4,-2.044032 -1.32366,-2.283594 -2.76401,-0.5 -1.85779,2.300531 -14.37287,37.718631 -13.70807,38.794301 1.17175,1.89593 2.84257,0.41291 4.6328,-4.11208 z m 16.53259,-4.0154 c 11.54164,-30.426274 12.3601,-33.421628 8.4763,-31.02131 -1.67279,1.033839 -15.39079,37.93672 -14.58623,39.23852 1.3256,2.14486 3.06835,-0.19896 6.10993,-8.21721 z m -108.558016,3.08318 c 3.614495,-9.14312 11.864172,-32.5367 11.864701,-33.64469 7.32e-4,-1.53096 -5.741775,-0.225479 -9.319326,2.11862 -5.791514,3.79475 -16.940284,20.30439 -22.157987,32.81263 l -1.57953,3.78656 9.706592,-0.28656 9.706593,-0.28656 z m 453.794966,-8.25 c -0.0387,-7.2875 -0.37637,-14.02131 -0.75047,-14.96402 -0.37409,-0.9427 -3.48537,-3.7552 -6.91395,-6.25 l -6.23377,-4.535981 h -152.96 -152.96 l -2.53059,2.250001 c -1.77381,1.57713 -4.33242,7.30344 -8.55576,19.14824 -3.31385,9.29404 -6.02518,17.05654 -6.02518,17.25 0,0.19347 75.825,0.35176 168.5,0.35176 h 168.5 z M 464.25448,93.381272 c 0,-0.829986 -22.25053,-7.535483 -25.00463,-7.535483 -1.89538,0 -3.01236,0.741882 -3.83485,2.547053 -2.47233,5.426165 -2.40436,5.452947 13.83948,5.452947 8.25,0 15,-0.209033 15,-0.464517 z"
       id="path271" /></g><path
     style="fill:#ffffff;stroke:none;stroke-width:3.99944;stroke-linecap:round;stroke-dasharray:none"
     d="m 17.6021,137.1715 c 4.209204,-10.5592 11.223349,-22.45018 18.019601,-30.54837 3.867851,-4.6088 6.532127,-6.46701 10.917949,-7.614756 2.143626,-0.560977 3.602557,-0.463832 3.602557,0.239881 0,1.155005 -8.345006,24.712885 -12.380236,34.949305 l -1.220683,3.09658 -0.474637,-1.6e-4 c -0.796972,-2.7e-4 -15.439958,0.43206 -17.144999,0.50619 l -1.597853,0.0695 z"
     id="path279" /><path
     style="fill:#ffffff;stroke:none;stroke-width:3.99944;stroke-linecap:round;stroke-dasharray:none"
     d="m 49.326699,138.31459 -0.541318,-0.49814 0.221026,-1.04463 c 1.125289,-5.31842 9.726876,-29.42689 12.822791,-35.93964 0.626186,-1.317276 0.943621,-1.800074 1.513057,-2.301251 3.532248,-3.108839 1.280427,5.043011 -8.97635,32.495431 -1.997736,5.34697 -2.481748,6.41695 -3.227111,7.13398 -0.739379,0.71128 -1.16721,0.74769 -1.812095,0.15425 z"
     id="path280" /><path
     style="fill:#ffffff;stroke:none;stroke-width:3.99944;stroke-linecap:round;stroke-dasharray:none"
     d="m 64.966677,138.62668 c -0.336298,-0.1244 -0.647358,-0.83489 -0.647358,-1.47861 0,-2.24268 10.45413,-31.98685 13.061308,-37.162122 0.782413,-1.553098 1.633015,-2.143258 2.467286,-1.711839 0.382127,0.197605 0.43889,0.309236 0.436082,0.857583 -0.0092,1.795238 -1.694041,7.418718 -5.174196,17.269858 -2.218235,6.27908 -5.583929,15.27335 -6.9076,18.45945 -0.90445,2.17703 -1.129896,2.58887 -1.70947,3.12283 -0.73715,0.67913 -1.060158,0.8152 -1.526052,0.64285 z"
     id="path281" /><path
     style="fill:#ffffff;stroke:none;stroke-width:3.99944;stroke-linecap:round;stroke-dasharray:none"
     d="m 80.548378,138.62406 c -0.35627,-0.20585 -0.708852,-0.92524 -0.708852,-1.44631 0,-2.53305 9.524303,-29.26566 12.905114,-36.22179 0.827312,-1.702221 1.021599,-1.990329 1.585013,-2.350415 0.701333,-0.448231 1.438318,-0.537632 1.571474,-0.190631 0.453312,1.181309 -7.683228,26.058246 -11.618069,35.521486 -1.461514,3.51492 -2.817864,5.21737 -3.73468,4.68766 z"
     id="path282" /><path
     style="fill:#ffffff;stroke:none;stroke-width:3.99944;stroke-linecap:round;stroke-dasharray:none"
     d="m 95.727634,138.64447 c -0.601467,-0.2438 -0.708137,-0.52472 -0.524458,-1.38119 0.857173,-3.99686 7.433184,-23.37501 10.850654,-31.97466 1.77199,-4.45899 2.87713,-6.488432 3.86617,-7.099693 0.60883,-0.376275 0.69599,-0.3695 1.25065,0.09722 0.41071,0.345592 0.45182,0.450636 0.36506,0.932705 -0.5885,3.269628 -8.03905,25.050628 -11.696038,34.192288 -1.539158,3.84756 -2.014389,4.64424 -3.068797,5.14459 -0.543038,0.25769 -0.61196,0.26355 -1.043241,0.0887 z"
     id="path283" /><path
     style="fill:#ffffff;stroke:none;stroke-width:3.99944;stroke-linecap:round;stroke-dasharray:none"
     d="m 110.48575,138.08742 c -0.20882,-0.49977 -0.20663,-0.64579 0.024,-1.60425 0.35994,-1.49574 2.62353,-8.35867 4.78099,-14.4954 5.09324,-14.48731 8.16168,-21.66606 9.95327,-23.286169 0.30803,-0.278545 0.62214,-0.506446 0.69803,-0.506446 0.0759,0 0.28242,0.183635 0.45896,0.408077 0.26382,0.335394 0.30353,0.524572 0.22291,1.062131 -0.63861,4.258587 -9.46116,29.574767 -12.42723,35.659767 -0.89423,1.83453 -2.23034,3.3121 -2.99501,3.3121 -0.41923,0 -0.51784,-0.0757 -0.71593,-0.54981 z"
     id="path284" /><path
     style="fill:#ffffff;stroke:none;stroke-width:3.99944;stroke-linecap:round;stroke-dasharray:none"
     d="m 126.26236,138.25089 c -0.25253,-0.2125 -0.45914,-0.46993 -0.45914,-0.57209 0,-0.10215 0.27245,-1.17942 0.60546,-2.39392 2.02725,-7.39358 9.82188,-29.18448 12.42854,-34.7456 0.97388,-2.077693 2.25522,-3.041122 2.96878,-2.2322 0.44352,0.502793 0.4525,1.147348 0.0373,2.67931 -1.19054,4.39302 -6.72086,20.27899 -10.40575,29.89074 -1.89158,4.93405 -2.89763,6.8637 -3.89579,7.47235 -0.61079,0.37243 -0.7306,0.3632 -1.27942,-0.0986 z"
     id="path285" /><path
     style="fill:#ffffff;stroke:none;stroke-width:3.99944;stroke-linecap:round;stroke-dasharray:none"
     d="m 141.9189,138.22684 c -8.1e-4,-0.22571 -0.16871,-0.76966 -0.37313,-1.20876 l -0.37166,-0.79838 0.44173,-1.51473 c 2.26782,-7.77666 9.82299,-27.88557 12.68132,-33.75273 1.0146,-2.082621 1.02347,-2.094771 1.7931,-2.455244 1.71148,-0.801616 1.75481,0.344527 0.20296,5.369004 -1.15069,3.72563 -7.04421,19.8171 -10.00217,27.30959 -1.57235,3.98274 -3.01166,6.67583 -3.86763,7.23668 -0.46353,0.30372 -0.50284,0.28927 -0.50452,-0.18543 z"
     id="path286" /><path
     style="fill:#ffffff;stroke:none;stroke-width:7.99888;stroke-linecap:round;stroke-dasharray:none"
     d="m 24.538905,173.02583 c -4.700984,-3.91766 -7.726235,-11.01674 -8.040708,-18.86839 l -0.155404,-3.88005 168.445577,0.0332 c 155.8346,0.0307 188.29353,0.15048 188.29353,0.69495 0,0.11266 -0.41523,0.59931 -0.92274,1.08145 -0.50751,0.48214 -1.17004,1.35727 -1.4723,1.94473 -1.14856,2.23226 -2.6293,8.59479 -4.04063,17.36213 l -0.51646,3.20851 -26.44512,-0.0665 c -14.54479,-0.0365 -23.22166,-0.13728 -19.28192,-0.22385 4.19297,-0.0921 -4.28447,-0.22564 -20.44489,-0.32199 -15.18443,-0.0905 -40.23315,-0.0905 -55.66381,0 -16.01339,0.094 -25.04517,0.23222 -21.04182,0.32214 3.85766,0.0866 -4.14047,0.18739 -17.77362,0.22385 -19.04848,0.051 -24.87106,-0.0172 -25.14817,-0.29429 -0.46125,-0.46126 -4.44432,-0.44563 -4.90921,0.0193 -0.46876,0.46877 -4.90907,0.45708 -5.06588,-0.0133 -0.15603,-0.46811 -4.18998,-0.45013 -4.34648,0.0194 -0.14775,0.44324 -1.47214,0.43269 -1.62068,-0.0129 -0.15945,-0.47837 -4.7818,-0.47837 -4.94126,0 -0.16141,0.48422 -1.74202,0.43588 -2.53916,-0.0777 -0.67766,-0.43655 -2.30261,-0.3221 -2.30261,0.16219 0,0.40106 -1.42553,0.31482 -1.56197,-0.0945 -0.16628,-0.49882 -5.36529,-0.49882 -5.53156,0 -0.17,0.50999 -2.11566,0.44404 -2.64951,-0.0898 -0.4541,-0.4541 -1.74289,-0.35009 -2.32989,0.18804 -0.38156,0.34978 -3.44728,0.3334 -3.44728,-0.0184 0,-0.54377 -1.2122,-0.65161 -2.13725,-0.19013 -1.11915,0.5583 -2.24328,0.6086 -2.4102,0.10784 -0.16924,-0.5077 -6.55454,-0.5077 -6.72377,0 -0.0892,0.26768 -1.71034,0.35298 -6.2885,0.3309 -3.39256,-0.0164 -5.83251,-0.12598 -5.42212,-0.24358 0.41039,-0.1176 -2.53598,-0.31088 -6.54749,-0.42951 -7.74071,-0.2289 -22.464911,0.0691 -21.209807,0.42922 0.41039,0.11777 -1.812432,0.2275 -4.939604,0.24387 -3.969956,0.0208 -5.790849,-0.0753 -6.033979,-0.31846 -0.461577,-0.46158 -4.027974,-0.46158 -4.181833,0 -0.07809,0.23427 -1.090277,0.34821 -3.093467,0.34821 -1.63757,0 -2.906016,-0.1155 -2.818771,-0.25667 0.08725,-0.14116 -1.45587,-0.3511 -3.429145,-0.46652 -4.027918,-0.2356 -11.387582,0.0724 -11.144094,0.46636 0.0873,0.14126 -1.85265,0.25683 -4.311,0.25683 -3.128511,0 -4.504395,-0.10401 -4.585266,-0.34663 -0.158347,-0.47504 -2.934932,-0.40876 -3.235291,0.0772 -0.189426,0.3065 -0.327213,0.30372 -0.710455,-0.0143 -0.581408,-0.48253 -2.93189,-0.52471 -3.088319,-0.0554 -0.147601,0.44281 -1.472189,0.44028 -1.619978,-0.003 -0.159685,-0.47905 -5.188484,-0.49361 -5.665693,-0.0164 -0.197265,0.19727 -0.969772,0.35559 -1.716682,0.35183 -1.195461,-0.006 -1.582492,-0.19391 -3.233311,-1.56966 z"
     id="path287" /><path
     style="fill:#ffffff;stroke:none;stroke-width:7.99888;stroke-linecap:round;stroke-dasharray:none"
     d="m 93.270474,426.16897 c -24.017822,-3.02044 -33.014321,-4.54399 -36.711259,-6.21702 -2.135753,-0.96653 -4.128255,-3.00667 -4.655659,-4.76699 -0.678048,-2.26313 0.420213,-7.06318 4.306679,-18.82275 5.427885,-16.42358 10.823735,-29.29825 20.201814,-48.20218 12.958576,-26.12135 22.057503,-40.28319 34.412441,-53.56055 13.58662,-14.60099 27.90671,-23.77039 43.38609,-27.78086 6.51526,-1.688 16.22762,-2.93579 19.85775,-2.55121 5.64732,0.59827 9.93183,0.52739 8.86682,-0.14671 -0.27333,-0.173 0.33853,-0.26966 1.7257,-0.27261 3.59483,-0.008 5.10662,-0.47198 6.69871,-2.05747 1.49219,-1.486 2.24331,-3.37583 1.89874,-4.77727 -0.3854,-1.56752 -1.65991,-3.30215 -3.00575,-4.09086 -1.98577,-1.16374 -6.94645,-1.5069 -15.35679,-1.0623 -11.67235,0.61704 -19.78972,2.05883 -29.09535,5.16785 -12.7486,4.25931 -23.75751,10.81056 -35.08751,20.88006 -1.15955,1.03055 -2.30784,1.90301 -2.55175,1.93881 -0.80524,0.11819 -3.13236,2.24109 -3.04191,2.77498 0.051,0.3012 -1.20588,1.97617 -3.07099,4.09243 -11.486377,13.03313 -22.181931,29.79191 -33.97676,53.2379 -12.331025,24.51186 -20.400009,45.12139 -27.285495,69.6917 -2.517303,8.9828 -4.268995,12.72485 -6.649273,14.2045 -1.648041,1.02447 -4.624712,0.98793 -7.180961,-0.0882 -2.487558,-1.04717 -5.114558,-2.82921 -5.819113,-3.94744 -0.747007,-1.18561 -0.561754,-3.10361 0.656966,-6.8018 1.202281,-3.64831 1.156299,-4.7204 -0.360103,-8.39607 -1.098144,-2.66183 -1.260699,-3.35568 -1.339097,-5.71579 -0.192881,-5.8066 0.0064,-7.25649 2.133486,-15.5202 4.329818,-16.82153 10.489238,-32.76609 20.001528,-51.77689 6.512421,-13.0154 10.698337,-20.33125 24.168384,-42.23975 13.085988,-21.28385 14.971451,-24.6172 17.465763,-30.87804 2.290839,-5.75012 3.564052,-10.88366 4.183356,-16.86712 0.214546,-2.07285 0.442373,-3.05056 0.751109,-3.22334 0.586121,-0.32801 0.582136,-2.42444 -0.0057,-3.0123 -0.289908,-0.28991 -0.55976,-1.53943 -0.761976,-3.52829 -1.126155,-11.07598 -5.004255,-19.98845 -11.989939,-27.55471 -1.060346,-1.14847 -1.872179,-2.25096 -1.804069,-2.44997 0.18387,-0.53726 -0.232003,-1.12303 -1.526397,-2.14997 -1.295911,-1.02815 -1.748599,-1.1608 -1.468266,-0.43027 0.103475,0.26965 -0.777836,-0.32079 -1.958471,-1.31209 -3.436905,-2.88575 -6.383652,-4.78907 -11.508991,-7.43372 l -4.796574,-2.47501 86.828063,-0.007 86.82806,-0.007 -4.91719,4.99929 c -10.77896,10.95894 -14.36926,17.91032 -16.99549,32.90583 -1.7961,10.25557 -3.68087,18.69578 -8.09794,36.26356 l -1.57591,6.26777 -5.33324,2.68619 c -2.93328,1.47741 -6.21982,3.3542 -7.30341,4.17065 -1.0836,0.81645 -2.13366,1.50845 -2.33346,1.53778 -0.51871,0.0761 -2.78174,1.93971 -2.82394,2.32548 -0.0194,0.17772 -0.0196,0.42334 -3.8e-4,0.54582 0.0192,0.12248 -0.75234,1.28453 -1.7146,2.58233 -4.40605,5.94244 -6.57331,12.6915 -7.24591,22.56455 -0.24842,3.64642 -0.45903,5.14106 -0.74863,5.31259 -0.22163,0.13127 -0.40296,0.68589 -0.40296,1.23248 v 0.9938 l -4.04791,0.21681 c -3.59726,0.19266 -4.08858,0.16119 -4.41319,-0.28275 -0.44626,-0.6103 -3.07865,-0.5539 -2.95521,0.0633 0.0482,0.24083 -0.26924,0.36473 -0.89539,0.34952 -0.53351,-0.013 -0.80129,-0.0916 -0.59507,-0.17473 0.20621,-0.0831 0.29902,-0.274 0.20623,-0.42413 -0.19221,-0.311 -4.00101,-0.37358 -4.7703,-0.0784 -0.44593,0.17112 -0.4272,0.23739 0.15521,0.54908 0.54503,0.29169 -0.20211,0.38852 -4.21811,0.54667 -5.86793,0.23106 -8.71581,0.84762 -12.6607,2.74098 -2.81928,1.35312 -7.07464,4.06195 -8.53649,5.43407 -0.43809,0.4112 -0.94267,0.65731 -1.12128,0.54692 -0.17862,-0.11039 -0.73343,0.0903 -1.23293,0.44596 -1.24063,0.88341 -4.01777,4.26424 -3.6135,4.39899 0.17971,0.0599 -0.45711,1.14016 -1.41514,2.40057 -4.32292,5.68726 -7.61388,11.97063 -12.76824,24.37809 -8.430151,20.29289 -13.248627,36.17447 -14.010537,46.17838 -0.109012,1.43132 -0.309079,2.53389 -0.444592,2.45013 -0.340689,-0.21055 -0.626201,1.07391 -0.509728,2.29318 0.05643,0.59068 0.246491,0.98204 0.45696,0.94094 0.199127,-0.0389 0.428226,0.36173 0.512053,0.8954 0.08343,0.53117 0.306617,1.97309 0.49596,3.20426 0.774856,5.03833 2.895038,10.48014 5.349111,13.72941 0.681898,0.90286 1.433942,2.01091 1.671201,2.46234 l 0.431384,0.82078 -1.425376,-0.0378 c -0.783955,-0.0208 -2.365542,-0.15599 -3.514634,-0.3005 z"
     id="path288" /><path
     style="fill:#ffffff;stroke:none;stroke-width:7.99888;stroke-linecap:round;stroke-dasharray:none"
     d="m 125.50475,428.25995 c -3.13156,-0.39124 -7.69504,-1.63564 -10.13874,-2.7647 -5.1482,-2.37861 -9.0555,-6.10137 -11.47369,-10.93178 -2.09309,-4.18103 -2.52975,-6.43394 -2.33508,-12.04762 0.29407,-8.47963 3.15405,-19.4861 9.05277,-34.83897 6.70215,-17.44399 12.51681,-28.61251 17.78266,-34.15608 3.45677,-3.63909 8.43829,-6.65707 12.83177,-7.77396 2.16942,-0.5515 16.16029,-0.9247 19.13445,-0.51041 l 1.72446,0.24022 -2.88133,5.96931 c -8.81569,18.26361 -14.49371,34.37628 -20.72003,58.7977 -3.48109,13.65386 -3.86747,16.63998 -3.87149,29.92117 l -0.003,8.43165 -3.50697,-0.0377 c -1.92884,-0.0208 -4.44714,-0.15522 -5.59623,-0.29878 z m 8.62357,-8.79108 c 0.23473,-0.6117 0.23199,-2.48227 -0.005,-3.6691 -0.34994,-1.7497 -0.70885,-0.93742 -0.70885,1.60426 0,2.35905 0.28507,3.1832 0.71423,2.06484 z"
     id="path289" /><path
     style="fill:#ffffff;stroke:none;stroke-width:7.99888;stroke-linecap:round;stroke-dasharray:none"
     d="m 115.80462,446.2975 c -7.27265,-0.42749 -29.996826,-4.02778 -45.814456,-7.25859 -11.35885,-2.32008 -20.597524,-4.8082 -22.280884,-6.00058 -0.958934,-0.67925 -1.548231,-2.1321 -1.062023,-2.6183 0.525123,-0.52513 1.48487,-0.41289 8.453029,0.98858 17.372856,3.49409 53.539704,8.11807 72.748684,9.301 1.88576,0.11613 3.07431,0.30167 2.84407,0.44397 -0.5137,0.31748 -0.28201,0.52694 0.82854,0.74905 0.63973,0.12794 1.05058,0.0287 1.42304,-0.34377 0.38056,-0.38056 0.58329,-0.42712 0.74195,-0.1704 0.14497,0.23457 1.02348,0.32987 2.61505,0.28368 1.88131,-0.0546 2.57145,0.0449 3.20914,0.46275 0.74465,0.48791 0.77736,0.58652 0.39219,1.18244 -0.7886,1.2201 -3.07698,2.50645 -5.07918,2.85512 -1.72254,0.29997 -14.60268,0.38465 -19.01915,0.12505 z"
     id="path290" /><path
     style="fill:#ffffff;stroke:none;stroke-width:7.99888;stroke-linecap:round;stroke-dasharray:none"
     d="m 219.07369,269.48158 c -6.93627,-0.36454 -11.69725,-0.83691 -12.1402,-1.20452 -0.80194,-0.66555 -0.3376,-3.3678 2.03155,-11.8226 l 1.52689,-5.44903 2.3062,3.87106 c 2.62767,4.41067 5.39793,8.18538 8.9356,12.17553 1.34625,1.51844 2.33938,2.74098 2.20695,2.71675 -0.13242,-0.0242 -2.32257,-0.15347 -4.86699,-0.28719 z"
     id="path291" /><path
     style="fill:#ffffff;stroke:none;stroke-width:7.99888;stroke-linecap:round;stroke-dasharray:none"
     d="m 245.52015,265.31478 c -9.81051,-0.58865 -12.22893,-1.6543 -17.39197,-7.66357 -5.56992,-6.48283 -8.63091,-12.85554 -9.99987,-20.81882 -0.52145,-3.03332 -0.59124,-4.38115 -0.4559,-8.80474 0.22974,-7.50925 1.24257,-11.21839 3.73802,-13.68923 0.60259,-0.59665 1.38482,-1.44024 1.7383,-1.87467 1.26229,-1.55135 5.28237,-1.69831 6.82457,-0.24948 0.96952,0.91081 2.00259,3.48083 5.48086,13.63504 6.73364,19.65767 9.59439,25.50132 15.24324,31.13735 4.1741,4.16462 7.86059,6.16958 10.82394,5.88679 3.66345,-0.3496 5.73163,-3.91568 4.11207,-7.09027 -0.36502,-0.7155 -1.63164,-2.31732 -2.81471,-3.5596 -2.83493,-2.97683 -5.63132,-6.78181 -7.03305,-9.56971 -2.93773,-5.84287 -8.14618,-21.69443 -9.84265,-29.95543 -0.80337,-3.91207 -0.82582,-3.77258 0.60713,-3.77258 0.66631,0 1.13858,0.11796 1.04948,0.26213 -0.18453,0.29857 1.22331,0.63327 2.66373,0.63327 1.44041,0 2.84826,-0.3347 2.66373,-0.63327 -0.0911,-0.14736 2.59004,-0.26213 6.12338,-0.26213 3.65084,0 6.28539,0.1157 6.28539,0.27604 0,0.16566 9.27936,0.32497 23.2057,0.39842 19.5362,0.10302 23.65569,0.19828 26.05145,0.60241 4.64939,0.78427 6.19644,1.68524 8.13991,4.74049 1.374,2.16001 2.70463,6.51819 1.99012,6.51819 -0.16005,0 -0.291,0.87302 -0.291,1.94003 0,1.10948 0.12928,1.94003 0.30199,1.94003 0.18497,0 0.23119,0.49152 0.11926,1.26847 -1.44052,9.99966 -6.55835,23.26341 -11.57035,29.98656 -0.51632,0.69259 -1.05923,1.2634 -1.20648,1.26848 -0.57604,0.0199 -2.86616,2.16948 -2.86616,2.69032 0,0.57381 -1.42663,1.81549 -3.36352,2.92748 -1.91345,1.09853 -4.12587,1.55907 -8.90187,1.85299 -5.39499,0.33202 -45.81651,0.31552 -51.42474,-0.021 z"
     id="path292" /><path
     style="fill:#ffffff;stroke:none;stroke-width:7.99888;stroke-linecap:round;stroke-dasharray:none"
     d="m 312.49674,272.71072 c 0.0839,-0.0928 1.22555,-0.86657 2.53696,-1.71959 7.24066,-4.70976 13.02083,-14.13162 18.20935,-29.68176 2.19257,-6.57119 3.40244,-11.90881 3.64431,-16.07761 0.15147,-2.61058 0.21413,-2.86486 0.55166,-2.23849 0.31951,0.59293 0.41114,0.62849 0.56945,0.22101 0.28363,-0.73005 0.0476,-3.4028 -0.29474,-3.33743 -0.16415,0.0314 -0.38581,0.36713 -0.49256,0.74617 -0.11613,0.41234 -0.20813,-0.0901 -0.22903,-1.25087 -0.0774,-4.29946 -1.74676,-9.29656 -4.19696,-12.56339 -1.95416,-2.60548 -5.23222,-5.66667 -6.9153,-6.45781 -3.74984,-1.76263 -10.12593,-2.13629 -41.59148,-2.4374 l -24.1757,-0.23135 18.65409,-0.0516 c 10.25975,-0.0284 19.3928,-0.15117 20.29566,-0.27286 2.27811,-0.30705 -18.21345,-0.54899 -33.46398,-0.39509 -6.8945,0.0696 -11.889,0.22706 -11.30585,0.35649 1.24717,0.27683 -16.94116,-0.003 -18.63037,-0.28706 l -1.17013,-0.19647 1.52643,-1.37239 c 1.88424,-1.6941 6.2342,-4.68713 8.39944,-5.77932 1.40269,-0.70754 2.17187,-0.85351 5.82008,-1.10446 2.32919,-0.16022 28.57783,-0.35936 58.86269,-0.44657 l 54.65891,-0.15741 -1.45981,6.22207 c -2.48088,10.57419 -2.91543,11.64417 -5.53064,13.61807 -7.73523,5.83836 -9.55781,8.76072 -15.77009,25.28598 -8.97104,23.86384 -13.14366,32.10113 -18.55285,36.62575 -2.51287,2.10194 -4.20162,2.78707 -7.34971,2.9818 -1.51382,0.0936 -2.68375,0.0944 -2.59983,0.002 z"
     id="path293" /><path
     style="fill:#ffffff;stroke:none;stroke-width:7.99888;stroke-linecap:round;stroke-dasharray:none"
     d="m 427.25339,162.37813 4.17851,-0.16212 -7.16317,-0.26612 c -4.16188,-0.15461 -12.10279,-0.15636 -18.95256,-0.004 -12.53447,0.27851 -21.88648,0.26424 -23.5419,-0.0359 -1.00086,-0.18147 -1.00652,-0.19175 -0.82702,-1.50137 0.21293,-1.55344 1.62737,-4.49425 3.09699,-6.439 1.41856,-1.87719 2.77521,-2.57029 5.77991,-2.9529 2.2525,-0.28683 86.45127,-0.97682 87.27298,-0.71518 0.16415,0.0523 2.89365,0.2384 6.06554,0.41363 6.42719,0.35507 7.60965,0.65117 7.94559,1.98962 0.11732,0.46745 0.35705,0.93875 0.53273,1.04732 0.42437,0.26228 -0.22212,3.57813 -0.99175,5.08674 -1.76654,3.4627 -2.94254,3.63252 -21.46145,3.09929 -9.0833,-0.26155 -21.81767,0.0835 -16.4156,0.44485 1.39533,0.0933 -4.71576,0.16692 -13.58018,0.16355 -8.86443,-0.003 -14.23681,-0.0791 -11.93862,-0.16824 z"
     id="path294" /><path
     style="fill:#ffffff;stroke:none;stroke-width:7.99888;stroke-linecap:round;stroke-dasharray:none"
     d="m 158.70904,137.36989 c -1.76468,-0.0528 -3.20851,-0.13032 -3.20851,-0.17234 0,-0.32182 7.76111,-21.9168 9.08875,-25.2891 2.68226,-6.81309 3.92826,-9.13549 5.97905,-11.14421 l 1.79551,-1.758663 5.82007,0.252397 c 3.20105,0.138818 8.70774,0.242332 12.23709,0.23003 10.64973,-0.03712 258.38973,-0.02368 265.78354,0.01442 3.77559,0.01945 10.2896,-0.08059 14.47558,-0.222318 l 7.61087,-0.25769 4.32775,3.210284 c 5.74024,4.25805 8.2481,6.49835 8.61034,7.69167 0.44782,1.4753 0.69701,5.28332 0.34572,5.28332 -0.40484,0 -0.38467,2.18422 0.0239,2.59281 0.23367,0.23365 0.23367,0.3806 0,0.525 -0.38597,0.23856 -0.43683,2.60946 -0.0647,3.01566 0.38317,0.41822 0.69479,3.19077 0.33353,2.9675 -0.1895,-0.11713 -0.29485,1.53649 -0.29485,4.62844 0,3.13112 0.10419,4.74628 0.29846,4.62622 0.18821,-0.11632 0.29847,0.59383 0.29847,1.92241 v 2.10687 h -1.169 c -0.64293,0 -1.21986,-0.15262 -1.28203,-0.33916 -0.14697,-0.44088 -2.55916,-0.44088 -3.00003,0 -0.39403,0.39401 -6.01202,0.47855 -5.7699,0.0868 0.0858,-0.13879 -1.82151,-0.33793 -4.23836,-0.44254 -5.0612,-0.21907 -14.14133,0.0699 -13.91091,0.44273 0.0857,0.13868 -1.58691,0.25214 -3.71694,0.25214 -2.66846,0 -3.90862,-0.10746 -3.98801,-0.34556 -0.15114,-0.45346 -1.93962,-0.39433 -2.51494,0.0831 -0.36131,0.29985 -0.49758,0.29589 -0.69292,-0.0202 -0.29846,-0.48292 -3.67276,-0.51795 -3.83214,-0.0398 -0.14389,0.43165 -1.76825,0.41394 -1.91318,-0.0209 -0.15515,-0.46547 -5.21532,-0.46547 -5.68079,0 -0.39621,0.3962 -5.41976,0.48362 -5.17654,0.0901 0.0861,-0.13924 -1.4665,-0.34043 -3.45012,-0.44709 -4.08568,-0.21968 -11.29592,0.0661 -11.29592,0.44775 0,0.40273 -7.39102,0.3151 -7.5258,-0.0892 -0.16262,-0.48786 -8.65989,-0.49723 -8.82239,-0.01 -0.15873,0.47618 -4.7487,0.48469 -4.90723,0.009 -0.15251,-0.45753 -4.32904,-0.45753 -4.78657,0 -0.2362,0.2362 -2.19789,0.33585 -6.32659,0.32137 -3.29133,-0.0115 -5.71899,-0.12462 -5.39479,-0.2513 0.86676,-0.33868 -12.46845,-0.59729 -20.65377,-0.40054 -3.89459,0.0936 -6.81582,0.27386 -6.49162,0.40054 0.3242,0.12668 -2.37208,0.23977 -5.99172,0.2513 -4.48226,0.0143 -6.68768,-0.0855 -6.91515,-0.313 -0.44918,-0.44918 -2.80325,-0.3937 -3.09161,0.0729 -0.18278,0.29575 -0.32448,0.29346 -0.69159,-0.0112 -0.62008,-0.51462 -2.36241,-0.53574 -3.28896,-0.0399 -0.61469,0.32898 -0.83589,0.3321 -1.21538,0.0172 -0.57168,-0.47446 -4.55199,-0.49964 -5.01987,-0.0318 -0.23189,0.23188 -6.57192,0.3083 -21.83123,0.26314 -11.82744,-0.035 -19.22118,-0.13883 -16.43053,-0.23074 2.79065,-0.0919 -6.34239,-0.23115 -20.29565,-0.30944 -28.79398,-0.16156 -79.91822,0.058 -72.22866,0.31014 2.79065,0.0915 -4.32775,0.16651 -15.81867,0.16665 -11.49092,1.4e-4 -22.33641,-0.0429 -24.10109,-0.0957 z"
     id="path295" /><path
     style="fill:#ffffff;stroke:none;stroke-width:7.99888;stroke-linecap:round;stroke-dasharray:none"
     d="m 437.54308,93.427062 c -1.80893,-0.233494 -2.9584,-0.724454 -3.01166,-1.286335 -0.12431,-1.311436 0.9095,-3.868191 2.04587,-5.059696 1.51199,-1.585353 2.6878,-1.454354 12.79157,1.425123 5.76274,1.642321 13.2881,4.114596 14.135,4.643709 0.31009,0.193728 -0.12489,0.230348 -1.33001,0.111971 -3.40029,-0.334008 -5.01824,-0.307844 -5.14857,0.08326 -0.14309,0.429428 -1.26844,0.51347 -1.26844,0.09473 0,-0.153094 -0.28029,-0.367315 -0.62287,-0.476047 -0.8104,-0.257209 -2.72856,0.10394 -2.50169,0.471014 0.20381,0.329772 -12.52503,0.323255 -15.0892,-0.0077 z"
     id="path296" /><path
     style="fill:#ffffff;stroke:none;stroke-width:7.99888;stroke-linecap:round;stroke-dasharray:none"
     d="m 416.95668,186.6163 c -1.23098,-0.0575 -2.3659,-0.23225 -2.52204,-0.38839 -0.37854,-0.37854 -4.85414,-0.36573 -5.08918,0.0146 -0.10146,0.16416 -0.71378,0.29847 -1.36071,0.29847 -0.64694,0 -1.17625,-0.13431 -1.17625,-0.29847 0,-0.16415 -0.66362,-0.29846 -1.47471,-0.29846 -0.8111,0 -1.55772,0.13431 -1.65918,0.29846 -0.10381,0.16797 -1.5393,0.29847 -3.28312,0.29847 -1.74382,0 -3.17931,-0.1305 -3.28312,-0.29847 -0.23974,-0.3879 -2.14799,-0.3879 -2.38772,0 -0.24574,0.39762 -4.62622,0.39214 -4.62622,-0.006 0,-0.19873 -1.94081,-0.27637 -5.59623,-0.22385 -3.07792,0.0442 -5.89842,-0.0294 -6.26777,-0.16355 -0.92123,-0.33467 -0.87449,-1.38092 0.31577,-7.06845 l 0.96816,-4.62621 9.84163,0.0517 c 5.4129,0.0285 21.66087,0.13981 36.1066,0.24748 16.08538,0.11988 28.28932,0.0822 31.48812,-0.0973 5.32682,-0.2988 21.79551,0.0347 23.87724,0.48349 1.64502,0.35467 2.13769,1.61424 2.02837,5.18587 -0.10114,3.30451 -0.36792,3.77633 -2.85353,5.04657 -1.34684,0.68828 -1.71875,0.72653 -7.90496,0.81304 -3.81714,0.0534 -6.49162,0.20708 -6.49162,0.37308 0,0.15762 -1.25229,0.28231 -2.83543,0.28231 -1.6913,0 -2.83542,-0.12044 -2.83542,-0.29847 0,-0.18525 -1.64156,-0.29846 -4.32775,-0.29846 -2.68619,0 -4.32775,0.11321 -4.32775,0.29846 0,0.38953 -3.19161,0.38953 -3.43235,0 -0.24035,-0.38889 -3.63971,-0.38889 -3.88005,0 -0.24303,0.39323 -6.62168,0.39323 -6.86471,0 -0.2326,-0.37635 -6.02225,-0.39726 -6.25382,-0.0226 -0.0938,0.15174 0.0662,0.33762 0.35547,0.41308 0.28928,0.0755 -1.18648,0.15278 -3.27947,0.17182 -3.19901,0.0291 -3.80543,-0.0367 -3.80543,-0.41307 0,-0.32392 -0.33267,-0.4477 -1.20323,-0.4477 -0.79421,0 -1.26163,0.15219 -1.37503,0.4477 -0.11574,0.30162 -0.52657,0.42834 -1.25911,0.38839 -0.59802,-0.0326 -2.09447,-0.10633 -3.32545,-0.16381 z"
     id="path297" /><path
     style="fill:#ffffff;stroke:none;stroke-width:7.99888;stroke-linecap:round;stroke-dasharray:none"
     d="m 376.65985,203.53669 c -0.90486,-0.13336 -2.03002,-0.38878 -2.50036,-0.56761 -0.81016,-0.30802 -0.84686,-0.39885 -0.69728,-1.72592 0.11405,-1.0118 0.3717,-1.58471 0.92783,-2.06307 0.97831,-0.84151 3.08953,-1.16498 4.79717,-0.73499 2.17981,0.54889 7.33577,0.3046 6.37863,-0.30221 -0.25058,-0.15886 0.0699,-0.25279 0.87239,-0.25568 0.93059,-0.003 1.26848,0.11468 1.26848,0.44313 0,0.34285 0.37861,0.44769 1.61668,0.44769 0.88918,0 1.66146,-0.12407 1.71618,-0.27571 0.0553,-0.1533 0.53014,-0.0934 1.0695,0.13483 1.10491,0.46763 1.25462,1.2697 0.5512,2.95321 -0.49751,1.19073 -1.29933,1.5073 -4.94573,1.95268 -2.89683,0.35382 -8.63322,0.35052 -11.05469,-0.006 z"
     id="path298" /><path
     style="fill:#ffffff;stroke:none;stroke-width:7.99888;stroke-linecap:round;stroke-dasharray:none"
     d="m 405.71983,202.65446 c 0.55435,-2.77178 2.37599,-5.09621 3.28303,-4.18918 0.17201,0.17201 1.10611,0.31275 2.07578,0.31275 1.44452,0 1.732,-0.0809 1.59124,-0.44769 -0.12375,-0.32249 0.0317,-0.4477 0.55563,-0.4477 0.52398,0 0.67938,0.12521 0.55563,0.4477 -0.14036,0.36576 0.14032,0.44769 1.53363,0.44769 1.39331,0 1.67398,-0.0819 1.53362,-0.44769 -0.11627,-0.30301 0.0151,-0.4477 0.4064,-0.4477 0.39133,0 0.52268,0.14469 0.4064,0.4477 -0.13774,0.35893 0.10715,0.44769 1.23516,0.44769 1.12801,0 1.3729,-0.0888 1.23516,-0.44769 -0.13408,-0.34942 0.0765,-0.4477 0.95935,-0.4477 h 1.13114 l -0.24106,2.00229 c -0.3372,2.80096 -0.6646,3.05794 -4.31089,3.38359 -1.62372,0.14502 -5.01722,0.26846 -7.54112,0.27432 l -4.58891,0.0106 z"
     id="path299" /><path
     style="fill:#ffffff;stroke:none;stroke-width:7.99888;stroke-linecap:round;stroke-dasharray:none"
     d="m 438.14738,203.64013 c -1.8878,-0.0463 -3.72708,-0.15261 -4.0873,-0.23619 l -0.65495,-0.15196 0.54968,-1.56543 c 0.30233,-0.86098 0.64691,-1.80543 0.76573,-2.09877 0.24793,-0.61205 1.93451,-1.58491 1.93451,-1.11588 0,0.1728 0.72888,0.30613 1.67349,0.30613 1.36493,0 1.64182,-0.0825 1.5017,-0.44769 -0.13097,-0.34129 0.0565,-0.44662 0.78885,-0.44313 0.63955,0.003 0.82758,0.0889 0.56254,0.25693 -0.61294,0.38854 0.29469,0.63389 2.34492,0.63389 1.64891,0 2.53998,-0.36299 1.71124,-0.6971 -0.20621,-0.0831 0.0573,-0.16177 0.58571,-0.17473 0.73663,-0.0181 0.92058,0.0808 0.78885,0.42414 -0.13774,0.35893 0.10715,0.44769 1.23516,0.44769 1.12801,0 1.3729,-0.0888 1.23516,-0.44769 -0.11686,-0.30453 0.0161,-0.4477 0.41577,-0.4477 0.54527,0 0.58756,0.21484 0.58756,2.98465 v 2.98466 l -4.25313,-0.0638 c -2.33923,-0.0351 -5.7977,-0.1017 -7.68549,-0.14802 z"
     id="path300" /><path
     style="fill:#ffffff;stroke:none;stroke-width:7.99888;stroke-linecap:round;stroke-dasharray:none"
     d="m 462.7241,202.66767 c 0.33119,-1.65598 1.30343,-3.52083 2.11166,-4.05041 0.55473,-0.36347 1.83346,-0.58308 4.45973,-0.76594 2.0251,-0.14099 4.65128,-0.46024 5.83595,-0.70945 1.18467,-0.2492 2.69735,-0.45309 3.36151,-0.45309 h 1.20757 l -0.20651,1.10081 c -0.30896,1.64685 -1.84427,4.48753 -2.74403,5.07707 -0.67771,0.44406 -1.76387,0.5366 -7.505,0.63943 l -6.71261,0.12024 z"
     id="path301" /></svg>
