<?xml version="1.0" encoding="UTF-8" standalone="no"?>
<!-- Created with Inkscape (http://www.inkscape.org/) -->

<svg
   width="512"
   height="512"
   viewBox="0 0 512 512"
   version="1.1"
   id="svg1"
   xml:space="preserve"
   xmlns="http://www.w3.org/2000/svg"
   xmlns:svg="http://www.w3.org/2000/svg"><defs
     id="defs1" /><g
     id="layer1"><path
       style="fill:#000000;stroke-width:0.613465"
       d="m 215.90637,507.76632 c 1.419,-0.72647 3.1407,-2.10595 3.82597,-3.06548 1.96572,-2.75246 20.04269,-24.49837 32.87855,-39.55164 11.06659,-12.97839 11.73468,-13.89458 12.1594,-16.67525 0.50305,-3.29327 -0.80685,-7.18245 -3.09795,-9.19811 -0.7683,-0.67594 -2.92069,-1.95991 -4.78309,-2.85323 -4.5726,-2.19334 -10.84034,-6.68768 -12.84887,-9.21341 -2.0919,-2.63053 -5.05997,-9.4666 -6.05024,-13.93486 -0.84777,-3.82523 -0.5241,-11.20566 0.71276,-16.25234 0.55389,-2.25998 0.5736,-4.01899 0.0636,-5.66727 -0.9102,-2.94156 -1.4486,-3.62402 -5.60523,-7.10528 -4.15023,-3.47587 -7.99403,-9.46271 -8.9311,-13.91043 -1.38765,-6.58637 1.10774,-17.81717 4.69072,-21.1111 0.72033,-0.66223 2.53485,-1.18945 4.35228,-1.26455 4.87106,-0.20132 6.94374,-0.89498 10.92525,-3.65627 2.03493,-1.41129 7.09891,-4.1872 11.2533,-6.16871 13.27742,-6.33288 23.01621,-11.41946 25.48762,-13.31225 1.32147,-1.01208 3.46044,-3.15706 4.7533,-4.76663 2.21978,-2.76363 9.04074,-14.74566 9.59389,-16.85315 0.7353,-2.80154 1.65503,-2.33028 5.53627,2.83687 12.61776,16.79828 41.06976,44.64078 59.15771,57.89043 15.96322,11.69325 40.09077,26.38562 45.62526,27.7833 2.58233,0.65214 5.45754,-0.0226 7.44793,-1.74773 2.0773,-1.8005 10.97493,-15.32722 11.5314,-17.53074 0.24114,-0.95481 0.59138,-3.70494 0.77836,-6.11143 l 0.33992,-4.37543 9.05639,-10.28294 c 9.75691,-11.07838 10.80776,-12.937 9.56915,-16.92506 -0.85673,-2.75855 -1.84605,-3.51466 -10.99695,-8.40445 -16.82053,-8.9881 -31.79335,-19.40606 -48.1249,-33.48487 -20.883,-18.00243 -31.22467,-29.58836 -48.92164,-54.80759 -3.50443,-4.994 -6.47288,-9.40008 -6.59657,-9.79128 -0.12366,-0.39121 1.92768,-2.09406 4.55856,-3.7841 4.11339,-2.64239 5.41073,-3.92868 9.26193,-9.18306 2.46319,-3.36065 8.29648,-11.12531 12.9629,-17.25483 4.66639,-6.12952 12.19621,-16.04408 16.73288,-22.03237 12.50943,-16.51209 17.51843,-22.20328 22.08194,-25.08937 3.60814,-2.28189 4.34958,-2.48815 8.99802,-2.50299 8.52955,-0.0272 10.6435,-2.6818 10.27203,-12.89898 -0.0379,-1.04447 1.05183,-1.69154 5.98118,-3.55132 3.78935,-1.42968 9.36826,-4.39373 15.024,-7.98217 l 8.99636,-5.70802 4.23281,0.66007 c 5.45946,0.85133 15.45321,0.21874 19.01981,-1.20393 3.58195,-1.42879 13.81111,-8.36947 17.77946,-12.0637 4.22765,-3.9356 6.73285,-8.162799 7.59469,-12.81502 0.89479,-4.830068 0.0449,-8.827185 -3.15656,-14.845422 -1.39537,-2.623111 -2.45085,-5.110641 -2.34548,-5.527862 0.10527,-0.417231 4.14537,-2.879182 8.9778,-5.471023 15.47632,-8.300626 17.05104,-10.842638 12.27964,-19.822618 -1.72895,-3.253958 -1.94513,-3.434644 -5.01918,-4.195113 -1.84509,-0.456181 -4.07777,-0.567461 -5.24539,-0.260835 -1.11815,0.293615 -6.40675,3.068952 -11.75247,6.167398 l -9.71946,5.63355 -3.4528,-4.835921 c -4.61613,-6.46527 -7.12866,-8.552919 -10.78475,-8.960966 -3.53025,-0.39401 -6.16464,0.721826 -12.27607,5.199703 -2.65095,1.942356 -5.09736,3.461476 -5.43653,3.375826 -0.33916,-0.08565 -0.9463,-0.630373 -1.34917,-1.210496 -0.70106,-1.009437 -24.04599,-27.776237 -32.08518,-36.788157 -2.82618,-3.1681553 -4.40589,-4.4590823 -5.92651,-4.8430969 -4.68683,-1.1836021 -9.34532,1.8863298 -9.98331,6.5789539 -0.19436,1.429794 -0.0727,3.412141 0.27042,4.405213 0.34313,0.993074 6.55381,8.412524 13.80154,16.487661 7.24773,8.07514 15.54187,17.375498 18.43145,20.667455 l 5.25375,5.985384 -4.50114,1.056235 c -3.07811,0.722314 -6.58915,2.30297 -11.10575,4.999772 -4.11341,2.456072 -6.89293,3.740411 -7.36901,3.404995 C 408.99839,68.853572 396.77225,55.114426 388.09472,44.653355 373.322,26.844372 366.95881,22.10609 356.34756,21.013189 c -3.03938,-0.313044 -6.74711,-0.13974 -9.97806,0.46639 -5.66418,1.062615 -2.25311,-0.864432 -80.79646,45.645134 -29.28485,17.341066 -29.53119,17.470969 -31.50965,16.61522 -1.97692,-0.855096 -2.19123,-0.74291 -24.95493,13.06346 -12.62853,7.659287 -42.80396,25.856047 -67.05657,40.437247 -82.587953,49.65368 -102.363737,61.77813 -107.447764,65.87582 -7.932699,6.3937 -14.692405,15.4195 -16.292029,21.7537 -0.765845,3.0326 -0.246373,7.77519 1.311618,11.97442 l 1.190742,3.20943 -3.791057,3.28061 c -7.6904984,6.65504 -10.7634223,13.48589 -13.5520572,30.12505 -2.3664376,14.12001 -1.9667829,19.1707 1.9853227,25.08969 2.7870008,4.174 6.7789315,7.08854 21.0965565,15.40272 7.004553,4.06751 14.180768,8.34742 15.947134,9.51091 1.766359,1.1635 4.988293,2.73248 7.159843,3.48665 4.488149,1.5587 4.208461,1.13055 7.0765,10.83183 1.846643,6.24631 4.25696,10.71869 6.686717,12.4073 4.216809,2.93055 9.748,2.32838 14.751863,-1.60602 6.05111,-4.75783 14.436802,-9.04482 19.732139,-10.08761 6.327302,-1.24601 10.397412,-1.12862 16.783462,0.48409 5.74102,1.44982 12.09949,4.71273 16.28425,8.35641 3.69114,3.21384 9.85874,11.11944 12.614,16.16849 2.79179,5.11599 4.30256,10.31688 6.24036,21.48286 1.27236,7.33156 3.36266,17.91642 9.24324,46.80601 1.9837,9.74531 5.07697,19.16477 6.40356,19.49978 0.27573,0.0697 -0.12227,3.31465 -0.88446,7.21115 -2.41101,12.32558 -2.42181,12.82356 -0.35316,16.26789 1.33287,2.21923 2.88588,3.72387 5.65536,5.47936 2.09986,1.33101 11.00647,7.77861 19.79245,14.32796 13.31542,9.92575 16.6125,12.12433 19.8072,13.20798 3.65708,1.2405 3.95087,1.23954 6.41271,-0.0208 z m -10.44218,-20.80007 c -3.18669,-2.39841 -10.36934,-7.66492 -15.96146,-11.70332 -5.5921,-4.03842 -10.37071,-7.78268 -10.61909,-8.32064 -0.2484,-0.53797 0.25013,-4.3667 1.10782,-8.50828 1.1263,-5.43867 1.3976,-7.99855 0.9768,-9.21646 -0.32045,-0.92747 -0.35504,-1.75441 -0.0768,-1.83767 0.27815,-0.0833 3.44396,-0.84242 7.03511,-1.68703 11.47761,-2.69943 17.97972,-5.50665 21.44623,-9.25922 1.84924,-2.00181 2.40596,-3.04243 2.46549,-4.60849 0.14087,-3.70625 -2.39905,-6.76077 -6.47841,-7.79096 -3.61889,-0.91392 -5.4144,-0.45571 -11.56302,2.95088 -5.57906,3.09106 -15.22574,6.10341 -17.60932,5.49887 -1.6124,-0.40937 -3.33398,-5.64221 -5.00406,-15.21194 -0.79117,-4.53355 -2.76709,-14.8423 -4.39093,-22.90834 -1.62386,-8.06606 -3.31718,-17.17782 -3.76298,-20.24838 -0.44577,-3.07056 -1.52873,-7.63177 -2.40656,-10.13604 -1.98474,-5.66202 -8.4655,-16.18083 -13.15515,-21.35192 -1.94637,-2.14619 -3.33436,-4.02 -3.08442,-4.16405 0.24994,-0.14406 12.24512,-7.46327 26.65594,-16.26494 14.41082,-8.80165 26.49852,-15.91097 26.8616,-15.79849 0.36306,0.11254 1.60697,4.91105 2.76427,10.66348 1.65765,8.23964 2.57669,11.26252 4.33103,14.24583 2.22763,3.78809 5.64191,6.74035 10.26603,8.87682 l 2.05928,0.95146 -1.75439,2.00387 c -3.75481,4.28878 -7.43007,17.01541 -7.36686,25.50982 0.0621,8.3457 3.07625,15.09817 10.21125,22.87579 l 4.46789,4.87025 -0.42049,4.69363 c -0.64873,7.24115 -0.40931,11.18966 1.05535,17.40447 2.82276,11.9773 9.36886,21.63443 18.42545,27.18207 2.54169,1.55689 4.60336,2.9016 4.58149,2.98817 -0.0218,0.0865 -2.45835,3.06799 -5.41439,6.62532 -7.83204,9.42517 -22.53107,27.30733 -26.32274,32.02301 -1.80248,2.24179 -3.33321,4.06186 -3.40156,4.0446 -0.0684,-0.0172 -2.73156,-1.99374 -5.91826,-4.39217 z m 12.44983,-15.69426 c 4.2887,-1.13741 7.20393,-7.33652 5.10454,-10.85451 -0.91507,-1.5334 -1.66495,-1.97353 -4.64469,-2.72601 -3.21758,-0.81257 -3.80201,-0.75875 -6.18346,0.56951 -2.97973,1.66192 -4.0931,4.32056 -3.27438,7.81903 0.83345,3.5615 5.34037,6.16204 8.99799,5.19198 z M 182.13298,357.90155 c 3.59252,-1.31226 5.38899,-3.11355 6.532,-6.54959 3.18783,-9.58291 -6.76105,-16.21446 -14.6449,-9.76176 -2.25603,1.84648 -3.8183,6.79313 -3.10393,9.8279 1.20785,5.13105 6.51741,8.20002 11.21683,6.48345 z M 68.201366,327.25188 c -1.479656,-3.49502 -2.949665,-7.10526 -3.266682,-8.02277 -1.040768,-3.01223 0.984909,-1.57212 4.777187,3.39622 4.201859,5.50492 5.087367,6.35385 7.455635,7.14766 0.998218,0.33461 1.77747,0.75674 1.731662,0.93814 -0.04581,0.18137 -1.706522,1.4516 -3.690477,2.82271 -3.196314,2.20898 -3.647619,2.35509 -3.962113,1.28278 -0.195197,-0.66561 -1.565545,-4.06974 -3.045212,-7.56474 z m 27.045214,-5.21235 c 6.59831,-5.55288 8.96127,-13.89307 6.38591,-22.53935 l -0.79916,-2.68305 7.66134,-4.82956 c 4.21373,-2.65625 21.47483,-12.95745 38.35795,-22.89156 l 30.6966,-18.06199 2.33166,3.78062 c 1.28242,2.07934 3.37911,5.07471 4.65932,6.65641 2.01043,2.48391 2.76994,2.9875 5.57322,3.69544 6.23074,1.5735 6.42314,1.47839 53.6842,-26.53428 44.51822,-26.38691 97.51125,-57.55966 108.409,-63.77079 l 6.09284,-3.47257 -1.74627,2.98844 c -0.96045,1.64364 -4.96176,6.87439 -8.8918,11.62389 -3.93001,4.74948 -7.97817,9.99114 -8.99589,11.64811 -6.15513,10.0214 -15.17167,16.55581 -55.33061,40.0989 -10.82452,6.34584 -21.11849,12.44909 -22.87551,13.56276 -16.86814,10.69177 -126.48275,75.9487 -128.27839,76.36803 -2.20975,0.51604 -2.66591,0.41174 -7.4773,-1.70964 -7.10807,-3.13399 -15.0976,-4.23734 -23.23767,-3.20909 -7.132734,0.90098 -8.023767,0.79773 -6.21944,-0.72072 z M 33.19892,300.25654 c -6.916153,-4.1463 -13.146139,-8.22696 -13.844408,-9.06815 -2.142637,-2.58112 -2.390177,-5.64148 -1.089347,-13.4675 1.726647,-10.38774 3.431322,-16.77891 5.052213,-18.94171 1.489383,-1.98732 6.257117,-5.81867 6.739604,-5.41597 0.162445,0.1356 2.047567,3.30373 4.189163,7.04031 l 3.893813,6.79379 -1.613412,1.3748 c -2.135256,1.81943 -6.51043,7.66543 -6.904399,9.22547 -0.478366,1.89423 0.430838,4.91019 2.056716,6.82236 1.54834,1.82099 2.951154,3.79523 10.899308,15.33921 4.776606,6.93756 5.512313,8.43757 3.937823,8.02882 -0.408143,-0.10629 -6.400921,-3.58512 -13.317074,-7.73143 z m 45.989678,0.89405 c -3.006183,-5.15957 -6.140618,-10.69036 -6.965415,-12.29064 -0.824804,-1.6003 -5.211094,-8.68724 -9.747324,-15.74878 l -8.247695,-12.83917 2.238332,-1.17472 c 1.231075,-0.64611 2.839582,-1.02288 3.57446,-0.83731 1.424147,0.35965 8.76247,11.45665 21.290633,32.19561 5.938744,9.83094 6.834034,11.69041 6.951842,14.4386 0.163226,3.80779 -0.34995,6.08945 -1.527692,6.79225 -1.09902,0.65585 -0.820174,1.0441 -7.567141,-10.53584 z M 392.02879,366.86766 C 384.88456,362.3301 375.54802,356.09408 371.28093,353.00982 349.09195,336.97163 321.6678,309.25611 306.2554,287.29338 295.0848,271.37525 284.62328,255.19563 284.86991,254.219 c 0.17314,-0.68557 7.06966,-5.09736 7.71389,-4.93467 0.33915,0.0856 3.03171,3.69429 5.98347,8.01922 2.95173,4.32492 9.17708,13.06985 13.83406,19.43322 4.65699,6.36336 9.52514,13.01794 10.81814,14.78797 6.31354,8.64285 14.91443,18.19621 22.97662,25.52109 2.12291,1.92876 6.29321,5.70945 9.26734,8.40152 11.38325,10.30375 26.01389,20.78753 46.62531,33.41002 5.46491,3.34673 6.46951,4.20733 7.4609,6.39138 0.81468,1.7948 0.94279,2.9012 0.44345,3.83 -0.94991,1.76698 -4.35648,6.19518 -4.69928,6.10862 -0.1515,-0.0382 -6.12077,-3.78212 -13.26502,-8.31971 z M 220.06488,325.24388 c -1.08724,-0.6201 -2.38659,-1.87199 -2.88744,-2.78199 -1.37796,-2.50361 -5.57292,-22.13793 -4.82219,-22.5699 0.88512,-0.50929 8.04627,-0.50221 10.07435,0.0103 1.17791,0.29748 2.04514,1.22814 3.07097,3.29565 1.99841,4.02762 8.54258,9.47687 15.30866,12.74728 7.7151,3.72915 10.19204,4.23933 13.72998,2.8281 3.31707,-1.32312 4.44376,-2.94945 4.2191,-6.09002 -0.24649,-3.44582 -1.79415,-5.2845 -5.92001,-7.03311 -2.01266,-0.85303 -5.2685,-2.50763 -7.2352,-3.67691 -4.17674,-2.48325 -6.22635,-5.59732 -8.79709,-13.36585 l -1.61969,-4.89455 17.91025,-10.74697 17.91024,-10.74696 6.44606,10.16201 c 7.23167,11.40052 7.30528,11.6778 5.57291,20.99517 -1.01288,5.44769 -4.55607,12.94883 -7.94463,16.8193 -2.66821,3.04765 -8.84503,6.49625 -19.91493,11.11878 -5.18711,2.166 -11.68407,4.96735 -14.43772,6.22524 l -5.00664,2.28701 -6.84009,-1.72738 c -3.76205,-0.95007 -7.72964,-2.23476 -8.81689,-2.85486 z M 90.594053,278.84799 c -5.855301,-8.53881 -14.330293,-22.8875 -14.088179,-23.85218 0.278648,-1.11199 39.627616,-24.54122 115.431096,-68.73118 24.68848,-14.39229 72.79859,-42.65038 106.91135,-62.79581 66.23308,-39.114229 63.26892,-37.57238 69.31278,-36.05393 2.24458,0.563586 2.93377,1.067491 3.97868,2.906885 0.69513,1.223646 2.6759,3.752792 4.40172,5.620315 1.82355,1.973266 4.44381,5.98109 6.25579,9.56849 l 3.11793,6.17299 -6.72518,3.26326 c -6.91877,3.35718 -131.26849,77.14197 -173.1126,102.71899 -12.91423,7.89377 -26.24977,15.73494 -29.63453,17.42485 -3.38473,1.68991 -23.2594,13.09806 -44.16593,25.35144 -20.90651,12.25338 -38.288128,22.20908 -38.625809,22.12381 -0.337685,-0.0852 -1.713377,-1.75834 -3.057118,-3.71793 z M 189.69799,216.427 c 2.73664,-0.86796 23.58553,-13.64854 25.78416,-15.80596 2.86882,-2.81503 3.08997,-5.33251 0.86575,-9.85584 -2.39859,-4.87806 -4.20033,-6.84398 -6.89635,-7.52483 -2.81748,-0.71154 -3.51087,-0.4183 -16.21475,6.85733 -12.5352,7.17902 -15.3713,9.29412 -16.0463,11.967 -0.57271,2.26782 0.0193,4.03725 3.19555,9.5528 2.18747,3.79842 2.71028,4.32236 4.85011,4.86063 1.31903,0.33201 3.32688,0.30876 4.46178,-0.0511 z m 39.48915,-26.08523 c 1.88693,-0.5925 79.62477,-47.43345 86.68283,-52.23074 4.75835,-3.23422 5.7385,-4.31497 6.44289,-7.10418 0.81651,-3.23322 -0.9185,-6.6861 -3.71446,-7.39218 -1.88195,-0.47525 2.46096,-3.01222 -71.8404,41.96638 -12.37213,7.48951 -22.97124,14.15264 -23.55356,14.80693 -1.19084,1.33802 -2.41581,5.32835 -2.02003,6.58024 0.3165,1.00109 3.42137,3.39021 4.88051,3.75544 0.58326,0.14626 1.98831,-0.0259 3.12222,-0.38189 z m 178.21157,156.02457 c -3.95019,-2.17755 -9.16118,-5.32815 -11.58002,-7.00132 -9.56173,-6.6141 -22.02696,-15.98369 -25.43777,-19.12052 -21.24239,-19.53594 -32.49505,-31.31 -42.04018,-43.98813 -5.22744,-6.94324 -21.07465,-30.12114 -22.59899,-33.05301 -0.81208,-1.56187 -0.80621,-1.56833 4.38475,-4.83546 2.85884,-1.79933 5.41846,-3.30983 5.68806,-3.35668 0.26959,-0.0468 2.79502,3.48246 5.61206,7.84286 2.81707,4.36041 6.3834,9.69758 7.9252,11.86038 4.98498,6.99276 22.0712,28.01609 25.78936,31.7319 7.35258,7.34792 27.26997,24.82524 34.48268,30.25824 8.81042,6.63647 23.12605,16.07727 29.01802,19.13664 2.30742,1.19809 4.36561,2.43412 4.57373,2.7467 0.38369,0.57622 -7.80461,11.94726 -8.48036,11.77661 -0.0849,-0.0214 -3.38636,-1.82064 -7.33654,-3.99821 z M 41.537461,240.6163 c -5.215256,-10.57703 -5.564132,-11.5129 -4.647606,-12.4674 1.067261,-1.1115 125.311675,-76.85543 181.107475,-110.40973 22.4597,-13.50672 28.61051,-17.47501 28.55367,-18.421882 -0.10339,-1.722048 99.60955,-61.138062 103.90379,-61.913203 3.49293,-0.630513 8.43595,0.467325 11.10264,2.46587 1.04913,0.786253 7.52951,8.067138 14.40087,16.179732 6.87135,8.1126 13.5468,15.934249 14.83432,17.38144 1.28752,1.447183 2.29085,2.829642 2.22961,3.072122 -0.0614,0.242487 -1.72567,0.894619 -3.69874,1.44918 l -3.5874,1.0083 -2.09082,-1.699258 c -1.84311,-1.497958 -3.07174,-1.899743 -10.37151,-3.39169 l -8.28071,-1.692434 -2.026,-3.845027 c -4.11175,-7.803521 -7.47059,-10.246448 -11.68117,-8.495874 -3.61024,1.500979 -24.00924,13.712141 -25.30903,15.150388 -1.50208,1.662099 -2.62671,5.710542 -2.15411,7.754437 0.18665,0.80726 0.80104,2.308586 1.3653,3.336281 l 1.02592,1.868517 -129.02645,76.430141 C 124.43282,207.47318 67.535986,241.563 66.727861,242.54128 c -0.788251,0.95424 -1.507453,2.02908 -1.598234,2.38857 -0.09381,0.37149 -1.256741,0.38056 -2.694392,0.0211 -3.44175,-0.86049 -8.490934,0.25414 -12.54306,2.76953 -1.84413,1.14474 -3.516204,1.96597 -3.715721,1.82494 -0.199515,-0.14105 -2.287065,-4.15911 -4.638993,-8.92904 z m 150.763599,6.30289 c -1.17582,-1.93685 -2.05482,-3.85033 -1.95334,-4.25219 0.10143,-0.40184 19.72011,-12.41337 43.59697,-26.69225 47.64993,-28.49574 66.94709,-39.76646 98.51595,-57.53951 11.5213,-6.48636 29.61024,-16.86258 40.19766,-23.05821 l 19.24985,-11.26479 1.24289,2.52005 c 2.42779,4.92249 2.52874,5.51785 1.15039,6.78501 -1.52985,1.40644 -44.27999,26.67463 -73.3608,43.36112 -11.96494,6.86547 -44.95428,26.3411 -73.30962,43.27918 -28.35536,16.93809 -51.92352,30.70351 -52.37364,30.58982 -0.45014,-0.11371 -1.78051,-1.79138 -2.95631,-3.72823 z m 215.1487,-128.70607 c -3.99618,-8.78433 -10.87527,-21.980643 -12.89537,-24.737467 l -1.73902,-2.373224 1.94709,-0.929835 c 1.0709,-0.511406 3.30795,-1.280354 4.97124,-1.708747 l 3.02414,-0.778917 2.13124,2.397206 c 3.59867,4.047774 10.55845,16.245394 12.99326,22.771754 l 2.31049,6.19321 -4.71698,3.13848 c -2.59436,1.72618 -4.83961,2.90568 -4.98947,2.62113 -0.14983,-0.28455 -1.51631,-3.25166 -3.03662,-6.59359 z m 28.28566,-12.94579 c -0.89381,-2.5747 -4.58229,-9.604025 -8.19664,-15.620715 l -6.57155,-10.939417 2.47896,-1.269136 c 3.028,-1.550207 4.77694,-1.705892 6.05782,-0.539249 4.61331,4.201912 15.3549,24.843967 14.562,27.983717 -0.24922,0.98688 -5.58788,5.27694 -6.38063,5.12738 -0.17869,-0.0337 -1.05616,-2.16786 -1.94996,-4.74258 z m 27.61529,-12.007823 c -0.60191,-1.109006 -2.19592,-4.644268 -3.54225,-7.85615 -2.59881,-6.199936 -6.17933,-11.606479 -10.75972,-16.247105 -1.53905,-1.559304 -2.69118,-3.01194 -2.56031,-3.228104 0.64644,-1.067703 12.21945,-8.166414 12.99455,-7.970674 1.99037,0.502648 5.56603,5.766389 10.39327,15.300019 2.80095,5.531815 5.47428,11.092538 5.94075,12.357157 l 0.84809,2.299332 -5.76607,3.729358 c -3.17132,2.051142 -5.92082,3.707564 -6.11,3.680946 -0.18917,-0.02662 -0.83641,-0.955785 -1.43831,-2.064779 z"
       id="path1" /><path
       style="fill:none;stroke:#000000;stroke-width:16.2;stroke-linecap:round;stroke-dasharray:none"
       d="m 404.12231,76.407171 c 0,0 37.41023,69.804339 62.67776,55.216119 C 495.37103,115.12784 440.5351,55.813052 440.5351,55.813052"
       id="path2" /><path
       style="fill:#ffffff;stroke:none;stroke-width:9.67028;stroke-linecap:round;stroke-dasharray:none"
       d="m 91.1778,278.91603 c -2.674432,-3.70793 -9.300828,-14.36513 -12.113216,-19.48164 -1.886247,-3.43161 -2.097001,-4.1636 -1.395038,-4.84521 1.848053,-1.7945 40.678824,-24.88218 112.452984,-66.86137 26.26497,-15.36183 69.64693,-40.83469 96.40437,-56.60636 56.16244,-33.103902 66.7355,-39.2127 72.63723,-41.967604 7.33891,-3.425775 9.40323,-2.722199 15.70856,5.353883 2.46234,3.153851 5.85894,8.221361 7.54799,11.261121 l 3.07101,5.52685 -5.84706,3.10413 c -11.42066,6.06308 -71.60897,41.61287 -145.3492,85.84945 -28.56315,17.13496 -55.96228,33.39434 -60.88696,36.13195 -4.92469,2.73762 -17.28116,9.80944 -27.45883,15.71516 -39.97779,23.19763 -51.300756,29.65506 -51.999467,29.65506 -0.399988,0 -1.647556,-1.27594 -2.772373,-2.83542 z m 103.85428,-64.92389 c 7.21723,-3.96708 18.3491,-11.2408 20.60926,-13.46636 1.87805,-1.84931 2.23849,-2.60594 2.23849,-4.69914 0,-3.0129 -2.37276,-8.28349 -4.83972,-10.75045 -2.26269,-2.2627 -5.17312,-2.83778 -8.2107,-1.62238 -1.27114,0.50861 -5.90606,2.98533 -10.29981,5.50382 -15.07029,8.63826 -17.83801,10.9322 -17.83801,14.78447 0,1.52767 3.4133,8.68939 5.28256,11.08377 1.26466,1.61994 4.85823,2.47586 7.45209,1.77495 0.9303,-0.25138 3.45292,-1.42529 5.60584,-2.60868 z m 42.22031,-27.86715 c 4.6116,-2.69112 19.80104,-11.77587 33.7543,-20.18833 51.95029,-31.32099 50.90942,-30.60374 51.63524,-35.58079 0.39312,-2.69568 -0.47168,-4.64705 -2.83807,-6.40391 l -1.64351,-1.22017 -2.83348,1.37644 c -4.72855,2.29704 -83.46123,49.88742 -90.1942,54.51837 -4.60852,3.16974 -5.51415,7.5921 -2.15816,10.5387 3.2617,2.86381 4.67668,2.5625 14.27788,-3.04031 z"
       id="path3" /><path
       style="fill:#ffffff;stroke:none;stroke-width:3.41896;stroke-linecap:round;stroke-dasharray:none"
       d="m 85.843032,311.65227 c -0.172537,-0.13884 -0.69339,-0.82226 -1.157451,-1.51872 -1.044419,-1.56744 -8.323183,-14.07832 -11.246505,-19.33069 -2.978203,-5.35098 -7.068144,-11.93148 -16.43728,-26.44669 -1.942892,-3.01005 -2.507757,-4.0352 -2.299766,-4.17378 0.950572,-0.63333 3.426969,-1.67038 4.262052,-1.78485 0.854941,-0.11718 1.062612,-0.0674 1.538858,0.36911 2.15167,1.97202 9.884835,13.82772 20.496368,31.42296 4.737743,7.85577 6.599707,11.38798 6.986476,13.25359 0.449021,2.16589 0.184172,5.88176 -0.515681,7.23514 -0.418717,0.8097 -1.228665,1.29452 -1.627071,0.97393 z"
       id="path4" /><path
       style="fill:#ffffff;stroke:none;stroke-width:3.41896;stroke-linecap:round;stroke-dasharray:none"
       d="m 71.121394,334.14015 c -0.249624,-0.66744 -1.728174,-4.31032 -3.285666,-8.0953 -2.940531,-7.14601 -3.304897,-8.20808 -2.815952,-8.20808 0.451266,0 2.671126,2.41354 5.046886,5.48722 1.21121,1.56702 2.870312,3.52009 3.686895,4.34014 1.25607,1.2614 1.752809,1.59817 3.225833,2.18695 0.957626,0.38277 1.741048,0.75651 1.740939,0.83052 -5.68e-4,0.38528 -6.314965,4.67207 -6.881922,4.67207 -0.144733,0 -0.467388,-0.54609 -0.717013,-1.21352 z"
       id="path5" /><path
       style="fill:#ffffff;stroke:none;stroke-width:3.41896;stroke-linecap:round;stroke-dasharray:none"
       d="m 128.94971,327.56863 c -0.29019,-0.0951 -1.9047,-0.74818 -3.5878,-1.45129 -8.10642,-3.38647 -14.79242,-4.40279 -23.16841,-3.52179 -5.63372,0.59257 -6.475149,0.6553 -7.093557,0.52882 l -0.612253,-0.12522 1.326537,-1.26215 c 3.155117,-3.00196 5.438693,-6.78461 6.367943,-10.54821 0.37799,-1.53092 0.46779,-2.49312 0.46287,-4.95961 -0.006,-3.11823 -0.235,-4.63751 -1.13945,-7.56716 -0.22774,-0.7377 -0.41408,-1.46089 -0.41408,-1.60709 0,-0.3093 8.4994,-5.6558 18.46661,-11.61632 16.97094,-10.14885 57.60972,-34.08222 57.86865,-34.08055 0.0931,6e-4 0.92446,1.21148 1.84746,2.69085 3.46807,5.55854 6.29179,9.1926 7.85432,10.1083 1.4311,0.83868 4.28309,1.54938 6.22102,1.55024 2.72252,0.001 5.6884,-1.14621 12.51222,-4.84063 6.51903,-3.5294 10.93649,-6.10911 47.18355,-27.55427 65.09078,-38.51021 104.34448,-61.50339 104.58584,-61.26203 0.19629,0.19629 -2.01227,3.5693 -4.3088,6.58055 -1.31111,1.71916 -4.03267,5.15576 -6.04789,7.63691 -4.6244,5.69354 -7.26922,9.14351 -8.96496,11.6941 -4.45782,6.7051 -9.12745,10.96018 -20.09089,18.30742 -7.64206,5.12137 -14.9428,9.57357 -37.63167,22.94884 -8.70568,5.13207 -17.34806,10.26284 -19.20527,11.4017 -15.55137,9.53626 -30.84503,18.77269 -52.19645,31.52345 -35.433,21.16006 -67.92177,40.35412 -74.72874,44.14902 -2.13072,1.18788 -2.55527,1.34831 -3.69332,1.3956 -0.70722,0.0294 -1.52329,-0.0244 -1.81348,-0.11948 z"
       id="path6" /><path
       style="fill:#ffffff;stroke:none;stroke-width:3.41896;stroke-linecap:round;stroke-dasharray:none"
       d="m 190.51301,475.81817 c -3.56337,-2.6047 -7.6315,-5.66343 -9.04028,-6.79717 l -2.56141,-2.06133 0.12294,-1.69748 c 0.0676,-0.93361 0.46186,-3.50193 0.87609,-5.70737 1.44441,-7.69023 1.48428,-8.11716 1.04475,-11.18549 l -0.12093,-0.84419 6.71729,-1.64987 c 12.70312,-3.1201 18.1637,-5.47601 21.92768,-9.46048 2.08542,-2.20759 2.48949,-3.11405 2.36826,-5.31279 -0.11427,-2.07258 -0.7035,-3.38948 -2.15826,-4.8237 -2.36283,-2.32945 -6.58297,-3.30432 -9.88677,-2.28388 -0.75342,0.23271 -2.49665,1.00818 -3.87383,1.72327 -6.18608,3.21204 -9.31502,4.50707 -13.97624,5.78457 -3.37142,0.924 -5.29307,1.12831 -6.0357,0.64172 -1.06088,-0.69512 -2.43631,-4.27589 -3.45931,-9.00595 -0.23716,-1.09657 -1.0508,-5.31775 -1.80808,-9.3804 -0.75729,-4.06266 -2.2828,-11.98711 -3.39003,-17.6099 -1.10723,-5.62278 -2.48871,-12.88808 -3.06995,-16.14509 -2.4831,-13.91418 -2.80842,-15.13158 -5.47384,-20.48409 -3.09499,-6.21513 -6.96386,-12.076 -11.42392,-17.30585 -2.72112,-3.19077 -2.87668,-3.42869 -2.48107,-3.79454 0.74333,-0.68741 42.00152,-25.66553 49.02596,-29.6808 l 3.99959,-2.28622 0.24111,0.57493 c 0.43353,1.03374 1.32664,4.69035 2.62043,10.72863 0.69915,3.26303 1.51428,6.77166 1.8114,7.79695 1.99763,6.89342 5.56387,11.14318 12.09398,14.41195 l 2.46519,1.234 -1.32783,1.56279 c -2.95677,3.47994 -5.65315,10.70791 -7.04877,18.89502 -0.66528,3.90269 -0.66717,9.8292 -0.004,12.89679 1.39502,6.4541 4.32264,11.34203 11.32977,18.91605 l 2.7068,2.9258 -0.29847,3.61666 c -0.40951,4.9621 -0.36609,11.46492 0.0946,14.16901 1.81756,10.66824 5.82467,19.14301 12.16169,25.72111 2.46934,2.56329 4.48074,4.15254 8.4444,6.67214 1.6831,1.06989 3.09692,1.98015 3.14181,2.02279 0.10527,0.1 -0.36556,0.67967 -12.35903,15.21661 -5.55147,6.72877 -10.92615,13.24832 -11.94374,14.48788 L 220.115,480.554 h -11.56156 -11.56156 z m 28.50874,-4.86275 c 1.47129,-0.68496 3.0304,-2.31782 3.88866,-4.07259 0.64467,-1.31809 0.69388,-1.56946 0.69388,-3.54487 0,-2.00019 -0.038,-2.18777 -0.64179,-3.1657 -0.78928,-1.27843 -1.69567,-1.8038 -4.32925,-2.50934 -2.75412,-0.73784 -4.0846,-0.70945 -5.74562,0.12259 -1.93781,0.9707 -2.99487,1.92093 -3.67293,3.30176 -0.51424,1.04721 -0.59352,1.45401 -0.58569,3.00506 0.0134,2.65838 0.96571,4.54482 3.00469,5.95217 2.20586,1.52253 5.26432,1.89963 7.38805,0.91092 z M 181.18384,358.2525 c 0.46431,-0.0736 1.61506,-0.50392 2.55724,-0.95637 3.5209,-1.6908 5.56807,-5.18829 5.56807,-9.5128 0,-8.16759 -9.24222,-11.78047 -15.50896,-6.06262 -1.98491,1.81107 -3.1526,5.00983 -3.02903,8.29774 0.0606,1.6134 0.17387,2.11852 0.74534,3.32502 1.22233,2.5806 3.87534,4.60058 6.56638,4.99961 1.19059,0.17654 1.46549,0.16851 3.10096,-0.0906 z"
       id="path7" /><path
       style="fill:#ffffff;stroke:none;stroke-width:3.41896;stroke-linecap:round;stroke-dasharray:none"
       d="m 194.13509,249.29926 c -1.21935,-1.58325 -1.88811,-2.63471 -2.70492,-4.25281 -1.25381,-2.48378 -1.45696,-2.05803 2.05651,-4.30991 7.7656,-4.97722 35.0322,-21.43665 65.78455,-39.71071 30.50731,-18.12846 43.03876,-25.38848 77.13767,-44.68924 14.27192,-8.07823 28.22471,-16.11679 44.0033,-25.35144 l 11.39654,-6.66998 1.52409,3.10869 c 0.83825,1.70979 1.58685,3.51507 1.66356,4.01175 0.13186,0.85372 0.0938,0.94592 -0.69741,1.68837 -1.85614,1.7418 -30.17173,18.5353 -74.45727,44.15935 -14.80663,8.56727 -37.66434,22.04887 -66.90189,39.4591 -38.75738,23.07906 -57.04368,33.77035 -57.76054,33.77035 -0.0603,0 -0.53016,-0.54609 -1.04419,-1.21352 z"
       id="path8" /><path
       style="fill:#ffffff;stroke:none;stroke-width:3.41896;stroke-linecap:round;stroke-dasharray:none"
       d="m 400.33483,371.94854 c -14.15905,-8.86091 -25.44494,-16.37043 -31.95231,-21.26072 -19.76328,-14.85215 -43.35562,-38.53652 -58.75185,-58.98103 -5.74898,-7.63403 -20.43569,-29.61604 -23.72911,-35.51602 -0.86945,-1.55757 -0.94533,-2.01312 -0.40774,-2.44785 1.67136,-1.35156 6.46541,-4.28538 7.00258,-4.28538 0.29422,0 2.72482,3.26024 6.76568,9.07502 5.98409,8.61108 20.38579,28.51664 25.4997,35.24485 6.85846,9.02346 15.41712,18.0714 26.84251,28.37706 15.1802,13.69248 26.18804,21.76557 49.07872,35.99405 5.35617,3.32931 6.71991,4.28352 7.58631,5.30813 0.91792,1.08553 1.83102,3.20382 1.84737,4.28569 0.0157,1.03725 -0.47974,1.91511 -2.80294,4.96665 -2.06564,2.71322 -1.2939,2.79731 -6.97892,-0.76045 z"
       id="path9" /><path
       style="fill:#ffffff;stroke:none;stroke-width:3.41896;stroke-linecap:round;stroke-dasharray:none"
       d="m 411.54163,348.51555 c -5.14867,-2.84458 -9.55721,-5.39619 -12.45177,-7.20694 -6.74296,-4.21819 -24.18271,-17.14117 -28.70239,-21.26868 -20.89461,-19.08156 -33.79511,-32.71882 -43.51053,-45.99541 -6.231,-8.51498 -20.68184,-29.87037 -21.28335,-31.45245 -0.19822,-0.52136 -0.14209,-0.64947 0.58726,-1.34024 0.74685,-0.70735 5.76196,-3.93915 8.51836,-5.48935 l 1.18891,-0.66864 1.05801,1.43082 c 0.58191,0.78695 3.53188,5.15243 6.5555,9.70106 5.81049,8.74112 8.35913,12.23095 14.92699,20.43938 10.42102,13.02405 15.33467,18.73573 19.42814,22.58352 11.75978,11.05397 26.55438,23.78549 33.89607,29.16932 8.83916,6.48196 20.66897,14.20286 27.06992,17.66758 2.03495,1.10148 4.32647,2.50602 4.32647,2.65182 0,0.28532 -3.16996,4.96305 -5.07253,7.48525 -2.32233,3.07867 -3.05885,3.91288 -3.43066,3.88572 -0.14039,-0.0103 -1.53737,-0.727 -3.1044,-1.59276 z"
       id="path10" /><path
       style="fill:#ffffff;stroke:none;stroke-width:3.41896;stroke-linecap:round;stroke-dasharray:none"
       d="m 408.28849,119.71526 c -4.73013,-10.3296 -11.69669,-23.665514 -14.0414,-26.879104 -0.5866,-0.803977 -1.06655,-1.542014 -1.06655,-1.640083 0,-0.432818 6.12258,-2.697273 7.62289,-2.819346 0.63205,-0.05143 0.7252,0.05572 2.33873,2.69005 2.73158,4.459715 8.78747,13.454983 11.5798,17.200333 2.51989,3.37991 2.63139,3.57533 3.79333,6.64798 0.65842,1.74113 1.26297,3.37447 1.34343,3.62963 0.12979,0.41159 -0.17039,0.67538 -2.66083,2.33826 -2.99827,2.00196 -5.49343,3.49885 -6.18822,3.71242 -0.3815,0.11727 -0.66826,-0.397 -2.72118,-4.88014 z"
       id="path11" /><path
       style="fill:#ffffff;stroke:none;stroke-width:3.41896;stroke-linecap:round;stroke-dasharray:none"
       d="m 437.31969,109.07281 c -0.21395,-0.50117 -0.70162,-1.76597 -1.0837,-2.81065 -1.59619,-4.36426 -4.52915,-9.892321 -10.90071,-20.545767 -2.24702,-3.757084 -4.08549,-6.867189 -4.08549,-6.911345 0,-0.194872 3.84072,-1.984323 4.95294,-2.307657 1.73154,-0.503369 2.48358,-0.240274 4.00236,1.400192 4.02606,4.348624 12.47506,20.171895 13.63496,25.535537 0.22881,1.05803 0.2145,1.24321 -0.13751,1.78044 -0.47893,0.73095 -3.91951,3.60693 -5.12183,4.28135 l -0.87201,0.48913 z"
       id="path12" /><path
       style="fill:#ffffff;stroke:none;stroke-width:3.41896;stroke-linecap:round;stroke-dasharray:none"
       d="m 474.09323,87.954315 c -1.02519,-2.032758 -4.96174,-8.453013 -7.34387,-11.977398 -2.86942,-4.245332 -5.9366,-8.468685 -9.13203,-12.574361 -2.74662,-3.529028 -2.75357,-3.067453 0.0678,-4.498808 l 1.78533,-0.905754 0.72993,0.49482 c 1.3811,0.936248 3.44076,3.770899 6.11584,8.417052 2.98876,5.190959 10.55574,20.798277 10.17371,20.983834 -0.0282,0.01371 -0.45325,0.282366 -0.94448,0.59701 l -0.89315,0.57208 z"
       id="path13" /></g></svg>
