<?xml version="1.0" encoding="UTF-8" standalone="no"?>
<!-- Created with Inkscape (http://www.inkscape.org/) -->

<svg
   version="1.1"
   id="svg1"
   width="512"
   height="512"
   viewBox="0 0 512 512"
   xml:space="preserve"
   xmlns="http://www.w3.org/2000/svg"
   xmlns:svg="http://www.w3.org/2000/svg"><defs
     id="defs1" /><g
     id="g1"><g
       id="g224"
       transform="translate(-2.9846556,-2.9846548)"><path
         style="fill:#d0d0d0;fill-opacity:1"
         d="m 177.37506,431.77431 -1.90499,-2.25 2.25,1.90499 c 2.11444,1.79022 2.70524,2.59501 1.90499,2.59501 -0.18976,0 -1.20226,-1.0125 -2.25,-2.25 z M 82.049017,394.44098 c 0.04798,-1.16494 0.284941,-1.4019 0.604167,-0.60417 0.288871,0.72188 0.253344,1.58438 -0.07895,1.91667 -0.332292,0.33229 -0.568641,-0.25833 -0.52522,-1.3125 z m 72.793493,-12.16667 c -1.24387,-1.58605 -1.2085,-1.62142 0.37756,-0.37755 0.9625,0.75484 1.75,1.54234 1.75,1.75 0,0.82303 -0.82119,0.2933 -2.12756,-1.37245 z M 82.049017,371.44098 c 0.04798,-1.16494 0.284941,-1.4019 0.604167,-0.60417 0.288871,0.72188 0.253344,1.58438 -0.07895,1.91667 -0.332292,0.33229 -0.568641,-0.25833 -0.52522,-1.3125 z m -9,-7 c 0.04798,-1.16494 0.284941,-1.4019 0.604167,-0.60417 0.288871,0.72188 0.253344,1.58438 -0.07895,1.91667 -0.332292,0.33229 -0.568641,-0.25833 -0.52522,-1.3125 z m 68.000003,-10 c 0.048,-1.16494 0.28494,-1.4019 0.60416,-0.60417 0.28887,0.72188 0.25335,1.58438 -0.0789,1.91667 -0.3323,0.33229 -0.56864,-0.25833 -0.52522,-1.3125 z m 35.07894,-23.41667 c 0,-1.375 0.22698,-1.9375 0.50439,-1.25 0.27741,0.6875 0.27741,1.8125 0,2.5 -0.27741,0.6875 -0.50439,0.125 -0.50439,-1.25 z M 33.239102,315.33132 c 0.972967,-0.25354 2.322967,-0.23686 3,0.0371 0.677032,0.27392 -0.119032,0.48137 -1.769032,0.46099 -1.65,-0.0204 -2.203936,-0.2445 -1.230968,-0.49805 z m 143.135958,-29.55701 -1.90499,-2.25 2.25,1.90499 c 2.11444,1.79022 2.70524,2.59501 1.90499,2.59501 -0.18976,0 -1.20226,-1.0125 -2.25,-2.25 z m 5.46745,-7.5 c -1.24387,-1.58605 -1.2085,-1.62142 0.37756,-0.37755 1.66575,1.30637 2.19548,2.12755 1.37244,2.12755 -0.20765,0 -0.99515,-0.7875 -1.75,-1.75 z m 96.12756,-6.62755 c 0,-0.20766 0.7875,-0.99516 1.75,-1.75 1.58606,-1.24387 1.62143,-1.2085 0.37756,0.37755 -1.30637,1.66575 -2.12756,2.19548 -2.12756,1.37245 z M 74.202073,243.02431 c 0,-1.925 0.205795,-2.7125 0.457322,-1.75 0.251528,0.9625 0.251528,2.5375 0,3.5 -0.251527,0.9625 -0.457322,0.175 -0.457322,-1.75 z m -22.037054,-3.5 c 0.02038,-1.65 0.244498,-2.20393 0.498042,-1.23096 0.253543,0.97296 0.236869,2.32296 -0.03705,3 -0.273923,0.67703 -0.481368,-0.11904 -0.460988,-1.76904 z m -9.037054,-4.5 c 0,-1.375 0.226973,-1.9375 0.504386,-1.25 0.277412,0.6875 0.277412,1.8125 0,2.5 -0.277413,0.6875 -0.504386,0.125 -0.504386,-1.25 z m 21.921052,-2.58333 c 0.04798,-1.16494 0.284941,-1.4019 0.604167,-0.60417 0.288871,0.72188 0.253344,1.58438 -0.07895,1.91667 -0.332292,0.33229 -0.568641,-0.25833 -0.52522,-1.3125 z m 44.078943,-4.41667 c 0,-1.375 0.22698,-1.9375 0.50439,-1.25 0.27741,0.6875 0.27741,1.8125 0,2.5 -0.27741,0.6875 -0.50439,0.125 -0.50439,-1.25 z m -29.078943,-8.58333 c 0.04798,-1.16494 0.284941,-1.4019 0.604167,-0.60417 0.288871,0.72188 0.253344,1.58438 -0.07895,1.91667 -0.332292,0.33229 -0.568641,-0.25833 -0.52522,-1.3125 z m 9.116002,-0.91667 c 0.02038,-1.65 0.244498,-2.20393 0.498042,-1.23096 0.253543,0.97296 0.236869,2.32296 -0.03705,3 -0.273923,0.67703 -0.481368,-0.11904 -0.460988,-1.76904 z m 34.962941,-3.5 c 0,-1.375 0.22698,-1.9375 0.50439,-1.25 0.27741,0.6875 0.27741,1.8125 0,2.5 -0.27741,0.6875 -0.50439,0.125 -0.50439,-1.25 z m 9,0 c 0,-1.375 0.22698,-1.9375 0.50439,-1.25 0.27741,0.6875 0.27741,1.8125 0,2.5 -0.27741,0.6875 -0.50439,0.125 -0.50439,-1.25 z m 6,-4 c 0,-1.375 0.22698,-1.9375 0.50439,-1.25 0.27741,0.6875 0.27741,1.8125 0,2.5 -0.27741,0.6875 -0.50439,0.125 -0.50439,-1.25 z m 8.92106,-1.58333 c 0.048,-1.16494 0.28494,-1.4019 0.60416,-0.60417 0.28887,0.72188 0.25335,1.58438 -0.0789,1.91667 -0.3323,0.33229 -0.56864,-0.25833 -0.52522,-1.3125 z m -8.884,-3.91667 c 0.0204,-1.65 0.2445,-2.20393 0.49804,-1.23096 0.25354,0.97296 0.23687,2.32296 -0.037,3 -0.27393,0.67703 -0.48137,-0.11904 -0.46099,-1.76904 z m -35.116,-10.08333 c 0.048,-1.16494 0.28494,-1.4019 0.60416,-0.60417 0.28887,0.72188 0.25335,1.58438 -0.0789,1.91667 -0.3323,0.33229 -0.56864,-0.25833 -0.52522,-1.3125 z m 391.19341,-73.41667 c 0,-2.475 0.19502,-3.4875 0.43337,-2.25 0.23836,1.2375 0.23836,3.2625 0,4.5 -0.23835,1.2375 -0.43337,0.225 -0.43337,-2.25 z M 386.04902,39.440982 c 0.048,-1.164943 0.28494,-1.4019 0.60416,-0.604167 0.28887,0.721875 0.25335,1.584375 -0.0789,1.916667 -0.3323,0.332291 -0.56864,-0.258334 -0.52522,-1.3125 z"
         id="path231" /><path
         style="fill:#b9b9b9;fill-opacity:1"
         d="m 151.84251,379.27431 c -1.24387,-1.58605 -1.2085,-1.62142 0.37756,-0.37755 0.9625,0.75484 1.75,1.54234 1.75,1.75 0,0.82303 -0.82119,0.2933 -2.12756,-1.37245 z m -64.640437,-49.25 c 0,-1.925 0.205795,-2.7125 0.457322,-1.75 0.251528,0.9625 0.251528,2.5375 0,3.5 -0.251527,0.9625 -0.457322,0.175 -0.457322,-1.75 z m -55.732003,-24 c 0.339919,-0.55 0.816476,-1 1.059017,-1 0.242541,0 0.440983,0.45 0.440983,1 0,0.55 -0.476558,1 -1.059017,1 -0.582459,0 -0.780902,-0.45 -0.440983,-1 z m 243.65789,-52 c 0,-1.375 0.22698,-1.9375 0.50439,-1.25 0.27741,0.6875 0.27741,1.8125 0,2.5 -0.27741,0.6875 -0.50439,0.125 -0.50439,-1.25 z m -78,-8 c 0,-1.375 0.22698,-1.9375 0.50439,-1.25 0.27741,0.6875 0.27741,1.8125 0,2.5 -0.27741,0.6875 -0.50439,0.125 -0.50439,-1.25 z m -131.962941,-5.5 c 0.02038,-1.65 0.244498,-2.20393 0.498042,-1.23096 0.253543,0.97296 0.236869,2.32296 -0.03705,3 -0.273923,0.67703 -0.481368,-0.11904 -0.460988,-1.76904 z m 52.962941,-21.5 c 0,-1.375 0.22698,-1.9375 0.50439,-1.25 0.27741,0.6875 0.27741,1.8125 0,2.5 -0.27741,0.6875 -0.50439,0.125 -0.50439,-1.25 z m 15,-8 c 0,-1.375 0.22698,-1.9375 0.50439,-1.25 0.27741,0.6875 0.27741,1.8125 0,2.5 -0.27741,0.6875 -0.50439,0.125 -0.50439,-1.25 z m 15,-5 c 0,-1.375 0.22698,-1.9375 0.50439,-1.25 0.27741,0.6875 0.27741,1.8125 0,2.5 -0.27741,0.6875 -0.50439,0.125 -0.50439,-1.25 z M 465.84251,35.274315 c -1.24387,-1.586056 -1.2085,-1.621426 0.37756,-0.377555 1.66575,1.306369 2.19548,2.127555 1.37244,2.127555 -0.20765,0 -0.99515,-0.7875 -1.75,-1.75 z"
         id="path230" /><path
         style="fill:#a3a3a3;fill-opacity:1"
         d="m 117.84251,451.27431 c -1.24387,-1.58605 -1.2085,-1.62142 0.37756,-0.37755 0.9625,0.75484 1.75,1.54234 1.75,1.75 0,0.82303 -0.82119,0.2933 -2.12756,-1.37245 z m 102,-2 c -1.24387,-1.58605 -1.2085,-1.62142 0.37756,-0.37755 1.66575,1.30637 2.19548,2.12755 1.37244,2.12755 -0.20765,0 -0.99515,-0.7875 -1.75,-1.75 z m -5.46745,-5.5 -1.90499,-2.25 2.25,1.90499 c 2.11444,1.79022 2.70524,2.59501 1.90499,2.59501 -0.18976,0 -1.20226,-1.0125 -2.25,-2.25 z M 73.049017,395.44098 c 0.04798,-1.16494 0.284941,-1.4019 0.604167,-0.60417 0.288871,0.72188 0.253344,1.58438 -0.07895,1.91667 -0.332292,0.33229 -0.568641,-0.25833 -0.52522,-1.3125 z m 0,-27 c 0.04798,-1.16494 0.284941,-1.4019 0.604167,-0.60417 0.288871,0.72188 0.253344,1.58438 -0.07895,1.91667 -0.332292,0.33229 -0.568641,-0.25833 -0.52522,-1.3125 z m 77.000003,-15 c 0.048,-1.16494 0.28494,-1.4019 0.60416,-0.60417 0.28887,0.72188 0.25335,1.58438 -0.0789,1.91667 -0.3323,0.33229 -0.56864,-0.25833 -0.52522,-1.3125 z M 87.242434,337.02431 c 0,-2.475 0.195016,-3.4875 0.433369,-2.25 0.238353,1.2375 0.238353,3.2625 0,4.5 -0.238353,1.2375 -0.433369,0.225 -0.433369,-2.25 z M 256.97007,262.64676 c 0,-0.20766 0.7875,-0.99516 1.75,-1.75 1.58606,-1.24387 1.62143,-1.2085 0.37756,0.37755 -1.30637,1.66575 -2.12756,2.19548 -2.12756,1.37245 z M 65.222253,246.52431 c 0.0111,-2.2 0.215885,-2.98225 0.455078,-1.73834 0.239193,1.24392 0.230112,3.04392 -0.02018,4 -0.250293,0.95609 -0.445996,-0.0617 -0.434898,-2.26166 z m 8.826764,-9.08333 c 0.04798,-1.16494 0.284941,-1.4019 0.604167,-0.60417 0.288871,0.72188 0.253344,1.58438 -0.07895,1.91667 -0.332292,0.33229 -0.568641,-0.25833 -0.52522,-1.3125 z m 6.116002,-11.91667 c 0.02038,-1.65 0.244498,-2.20393 0.498042,-1.23096 0.253543,0.97296 0.236869,2.32296 -0.03705,3 -0.273923,0.67703 -0.481368,-0.11904 -0.460988,-1.76904 z m 43.962941,-4.5 c 0,-1.375 0.22698,-1.9375 0.50439,-1.25 0.27741,0.6875 0.27741,1.8125 0,2.5 -0.27741,0.6875 -0.50439,0.125 -0.50439,-1.25 z m -6.07894,-5.58333 c 0.048,-1.16494 0.28494,-1.4019 0.60416,-0.60417 0.28887,0.72188 0.25335,1.58438 -0.0789,1.91667 -0.3323,0.33229 -0.56864,-0.25833 -0.52522,-1.3125 z m -28.921055,-3.41667 c 0,-1.375 0.226973,-1.9375 0.504386,-1.25 0.277412,0.6875 0.277412,1.8125 0,2.5 -0.277413,0.6875 -0.504386,0.125 -0.504386,-1.25 z m 43.921055,-4.58333 c 0.048,-1.16494 0.28494,-1.4019 0.60416,-0.60417 0.28887,0.72188 0.25335,1.58438 -0.0789,1.91667 -0.3323,0.33229 -0.56864,-0.25833 -0.52522,-1.3125 z m 15.15305,-6.41667 c 0,-1.925 0.2058,-2.7125 0.45733,-1.75 0.25152,0.9625 0.25152,2.5375 0,3.5 -0.25153,0.9625 -0.45733,0.175 -0.45733,-1.75 z M 431.84251,13.274315 c -1.24387,-1.586056 -1.2085,-1.621426 0.37756,-0.377555 0.9625,0.754844 1.75,1.542344 1.75,1.75 0,0.823034 -0.82119,0.293303 -2.12756,-1.372445 z"
         id="path229" /><path
         style="fill:#8c8c8c;fill-opacity:1"
         d="m 73.049017,371.44098 c 0.04798,-1.16494 0.284941,-1.4019 0.604167,-0.60417 0.288871,0.72188 0.253344,1.58438 -0.07895,1.91667 -0.332292,0.33229 -0.568641,-0.25833 -0.52522,-1.3125 z m 125.000003,-14 c 0.048,-1.16494 0.28494,-1.4019 0.60416,-0.60417 0.28887,0.72188 0.25335,1.58438 -0.0789,1.91667 -0.3323,0.33229 -0.56864,-0.25833 -0.52522,-1.3125 z m -2.07895,-50.79422 c 0,-0.20766 0.7875,-0.99516 1.75,-1.75 1.58606,-1.24387 1.62143,-1.2085 0.37756,0.37755 -1.30637,1.66575 -2.12756,2.19548 -2.12756,1.37245 z m -69.25,-31.28473 c 0.6875,-0.27741 1.8125,-0.27741 2.5,0 0.6875,0.27742 0.125,0.50439 -1.25,0.50439 -1.375,0 -1.9375,-0.22697 -1.25,-0.50439 z m 134.40789,-22.33772 c 0,-1.375 0.22698,-1.9375 0.50439,-1.25 0.27741,0.6875 0.27741,1.8125 0,2.5 -0.27741,0.6875 -0.50439,0.125 -0.50439,-1.25 z m -186.925887,-20 c 0,-1.925 0.205795,-2.7125 0.457322,-1.75 0.251528,0.9625 0.251528,2.5375 0,3.5 -0.251527,0.9625 -0.457322,0.175 -0.457322,-1.75 z m -22.153056,-1.58333 c 0.04798,-1.16494 0.284941,-1.4019 0.604167,-0.60417 0.288871,0.72188 0.253344,1.58438 -0.07895,1.91667 -0.332292,0.33229 -0.568641,-0.25833 -0.52522,-1.3125 z m 28,-2 c 0.04798,-1.16494 0.284941,-1.4019 0.604167,-0.60417 0.288871,0.72188 0.253344,1.58438 -0.07895,1.91667 -0.332292,0.33229 -0.568641,-0.25833 -0.52522,-1.3125 z m 23.116003,-2.91667 c 0.0204,-1.65 0.2445,-2.20393 0.49804,-1.23096 0.25354,0.97296 0.23687,2.32296 -0.0371,3 -0.27393,0.67703 -0.48137,-0.11904 -0.46099,-1.76904 z m -14.000001,-19 c 0.02038,-1.65 0.244498,-2.20393 0.498042,-1.23096 0.253543,0.97296 0.236869,2.32296 -0.03705,3 -0.273923,0.67703 -0.481368,-0.11904 -0.460988,-1.76904 z m 43.884001,-3.08333 c 0.048,-1.16494 0.28494,-1.4019 0.60416,-0.60417 0.28887,0.72188 0.25335,1.58438 -0.0789,1.91667 -0.3323,0.33229 -0.56864,-0.25833 -0.52522,-1.3125 z m -37.884001,-1.91667 c 0.02038,-1.65 0.244498,-2.20393 0.498042,-1.23096 0.253543,0.97296 0.236869,2.32296 -0.03705,3 -0.273923,0.67703 -0.481368,-0.11904 -0.460988,-1.76904 z m 52.962941,-6.5 c 0,-1.375 0.22698,-1.9375 0.50439,-1.25 0.27741,0.6875 0.27741,1.8125 0,2.5 -0.27741,0.6875 -0.50439,0.125 -0.50439,-1.25 z m 337.92106,-69.58333 c 0.048,-1.16494 0.28494,-1.4019 0.60416,-0.60417 0.28887,0.72188 0.25335,1.58438 -0.0789,1.91667 -0.3323,0.33229 -0.56864,-0.25833 -0.52522,-1.3125 z"
         id="path228" /><path
         style="fill:#767676;fill-opacity:1"
         d="m 73.127965,390.02431 c 0,-1.375 0.226973,-1.9375 0.504386,-1.25 0.277412,0.6875 0.277412,1.8125 0,2.5 -0.277413,0.6875 -0.504386,0.125 -0.504386,-1.25 z m -0.07895,-15.58333 c 0.04798,-1.16494 0.284941,-1.4019 0.604167,-0.60417 0.288871,0.72188 0.253344,1.58438 -0.07895,1.91667 -0.332292,0.33229 -0.568641,-0.25833 -0.52522,-1.3125 z M 198.97007,303.64676 c 0,-0.20766 0.7875,-0.99516 1.75,-1.75 1.58606,-1.24387 1.62143,-1.2085 0.37756,0.37755 -1.30637,1.66575 -2.12756,2.19548 -2.12756,1.37245 z M 20.78257,298.3412 c 0.721875,-0.28887 1.584375,-0.25334 1.916667,0.0789 0.332291,0.33229 -0.258334,0.56864 -1.3125,0.52522 -1.164943,-0.048 -1.4019,-0.28494 -0.604167,-0.60417 z m 247,-24 c 0.72187,-0.28887 1.58437,-0.25334 1.91667,0.0789 0.33229,0.33229 -0.25834,0.56864 -1.3125,0.52522 -1.16495,-0.048 -1.4019,-0.28494 -0.60417,-0.60417 z m -141,-8 c 0.72187,-0.28887 1.58437,-0.25334 1.91667,0.0789 0.33229,0.33229 -0.25834,0.56864 -1.3125,0.52522 -1.16495,-0.048 -1.4019,-0.28494 -0.60417,-0.60417 z m 157.26645,-8.90022 c 0.048,-1.16494 0.28494,-1.4019 0.60416,-0.60417 0.28887,0.72188 0.25335,1.58438 -0.0789,1.91667 -0.3323,0.33229 -0.56864,-0.25833 -0.52522,-1.3125 z M 80.165019,233.52431 c 0.02038,-1.65 0.244498,-2.20393 0.498042,-1.23096 0.253543,0.97296 0.236869,2.32296 -0.03705,3 -0.273923,0.67703 -0.481368,-0.11904 -0.460988,-1.76904 z m -55.925917,0.80701 c 0.972967,-0.25354 2.322967,-0.23686 3,0.0371 0.677032,0.27392 -0.119032,0.48137 -1.769032,0.46099 -1.65,-0.0204 -2.203936,-0.2445 -1.230968,-0.49805 z m 78.809918,-11.89034 c 0.048,-1.16494 0.28494,-1.4019 0.60416,-0.60417 0.28887,0.72188 0.25335,1.58438 -0.0789,1.91667 -0.3323,0.33229 -0.56864,-0.25833 -0.52522,-1.3125 z m 15,-12 c 0.048,-1.16494 0.28494,-1.4019 0.60416,-0.60417 0.28887,0.72188 0.25335,1.58438 -0.0789,1.91667 -0.3323,0.33229 -0.56864,-0.25833 -0.52522,-1.3125 z m -22.884001,-2.91667 c 0.02038,-1.65 0.244498,-2.20393 0.498042,-1.23096 0.253543,0.97296 0.236869,2.32296 -0.03705,3 -0.273923,0.67703 -0.481368,-0.11904 -0.460988,-1.76904 z m 210.305051,-2.5 c -0.33992,-0.55 -0.14148,-1 0.44098,-1 0.58246,0 1.05902,0.45 1.05902,1 0,0.55 -0.19844,1 -0.44098,1 -0.24254,0 -0.7191,-0.45 -1.05902,-1 z m -172.42105,-3.58333 c 0.048,-1.16494 0.28494,-1.4019 0.60416,-0.60417 0.28887,0.72188 0.25335,1.58438 -0.0789,1.91667 -0.3323,0.33229 -0.56864,-0.25833 -0.52522,-1.3125 z m 15.116,-9.91667 c 0.0204,-1.65 0.2445,-2.20393 0.49804,-1.23096 0.25354,0.97296 0.23687,2.32296 -0.037,3 -0.27393,0.67703 -0.48137,-0.11904 -0.46099,-1.76904 z m 338,-61 c 0.0204,-1.65 0.2445,-2.20393 0.49804,-1.23096 0.25354,0.97296 0.23687,2.32296 -0.037,3 -0.27393,0.67703 -0.48137,-0.11904 -0.46099,-1.76904 z"
         id="path227" /><path
         style="fill:#606060;fill-opacity:1"
         d="m 125.78257,508.3412 c 0.72187,-0.28887 1.58437,-0.25334 1.91667,0.0789 0.33229,0.33229 -0.25834,0.56864 -1.3125,0.52522 -1.16495,-0.048 -1.4019,-0.28494 -0.60417,-0.60417 z m -8.73355,-88.90022 c 0.048,-1.16494 0.28494,-1.4019 0.60416,-0.60417 0.28887,0.72188 0.25335,1.58438 -0.0789,1.91667 -0.3323,0.33229 -0.56864,-0.25833 -0.52522,-1.3125 z m 0.0789,-8.41667 c 0,-1.375 0.22698,-1.9375 0.50439,-1.25 0.27741,0.6875 0.27741,1.8125 0,2.5 -0.27741,0.6875 -0.50439,0.125 -0.50439,-1.25 z m -43.837816,-29 c 0,-3.575 0.181495,-5.0375 0.403321,-3.25 0.221827,1.7875 0.221827,4.7125 0,6.5 -0.221826,1.7875 -0.403321,0.325 -0.403321,-3.25 z m 84.604236,-8.75 -2.42431,-2.75 2.75,2.42432 c 2.57029,2.26589 3.20859,3.07568 2.42431,3.07568 -0.17912,0 -1.41662,-1.2375 -2.75,-2.75 z m 26.94813,-22 c -1.24387,-1.58605 -1.2085,-1.62142 0.37756,-0.37755 1.66575,1.30637 2.19548,2.12755 1.37244,2.12755 -0.20765,0 -0.99515,-0.7875 -1.75,-1.75 z m -133.714545,-86.25 c 0,-1.375 0.226973,-1.9375 0.504386,-1.25 0.277412,0.6875 0.277412,1.8125 0,2.5 -0.277413,0.6875 -0.504386,0.125 -0.504386,-1.25 z m 28.921052,-27.58333 c 0.04798,-1.16494 0.284941,-1.4019 0.604167,-0.60417 0.288871,0.72188 0.253344,1.58438 -0.07895,1.91667 -0.332292,0.33229 -0.568641,-0.25833 -0.52522,-1.3125 z M 52.165019,225.52431 c 0.02038,-1.65 0.244498,-2.20393 0.498042,-1.23096 0.253543,0.97296 0.236869,2.32296 -0.03705,3 -0.273923,0.67703 -0.481368,-0.11904 -0.460988,-1.76904 z m 21.883998,0.91667 c 0.04798,-1.16494 0.284941,-1.4019 0.604167,-0.60417 0.288871,0.72188 0.253344,1.58438 -0.07895,1.91667 -0.332292,0.33229 -0.568641,-0.25833 -0.52522,-1.3125 z m 0.116002,-4.91667 c 0.02038,-1.65 0.244498,-2.20393 0.498042,-1.23096 0.253543,0.97296 0.236869,2.32296 -0.03705,3 -0.273923,0.67703 -0.481368,-0.11904 -0.460988,-1.76904 z m 21,-9 c 0.02038,-1.65 0.244498,-2.20393 0.498042,-1.23096 0.253543,0.97296 0.236869,2.32296 -0.03705,3 -0.273923,0.67703 -0.481368,-0.11904 -0.460988,-1.76904 z m 22.962941,-5.5 c 0,-1.375 0.22698,-1.9375 0.50439,-1.25 0.27741,0.6875 0.27741,1.8125 0,2.5 -0.27741,0.6875 -0.50439,0.125 -0.50439,-1.25 z m -29.078943,-5.58333 c 0.04798,-1.16494 0.284941,-1.4019 0.604167,-0.60417 0.288871,0.72188 0.253344,1.58438 -0.07895,1.91667 -0.332292,0.33229 -0.568641,-0.25833 -0.52522,-1.3125 z m 44.153053,-4.41667 c 0,-1.925 0.2058,-2.7125 0.45733,-1.75 0.25152,0.9625 0.25152,2.5375 0,3.5 -0.25153,0.9625 -0.45733,0.175 -0.45733,-1.75 z m -23,-4 c 0,-1.925 0.2058,-2.7125 0.45733,-1.75 0.25152,0.9625 0.25152,2.5375 0,3.5 -0.25153,0.9625 -0.45733,0.175 -0.45733,-1.75 z m 115.84695,1.41667 c 0.048,-1.16494 0.28494,-1.4019 0.60416,-0.60417 0.28887,0.72188 0.25335,1.58438 -0.0789,1.91667 -0.3323,0.33229 -0.56864,-0.25833 -0.52522,-1.3125 z m 20,0 c 0.048,-1.16494 0.28494,-1.4019 0.60416,-0.60417 0.28887,0.72188 0.25335,1.58438 -0.0789,1.91667 -0.3323,0.33229 -0.56864,-0.25833 -0.52522,-1.3125 z m -72.20651,-2.16667 c -1.24387,-1.58605 -1.2085,-1.62142 0.37756,-0.37755 1.66575,1.30637 2.19548,2.12755 1.37244,2.12755 -0.20765,0 -0.99515,-0.7875 -1.75,-1.75 z m -25.67749,-9.75 c 0.0204,-1.65 0.2445,-2.20393 0.49804,-1.23096 0.25354,0.97296 0.23687,2.32296 -0.037,3 -0.27393,0.67703 -0.48137,-0.11904 -0.46099,-1.76904 z m 0,-8 c 0.0204,-1.65 0.2445,-2.20393 0.49804,-1.23096 0.25354,0.97296 0.23687,2.32296 -0.037,3 -0.27393,0.67703 -0.48137,-0.11904 -0.46099,-1.76904 z M 409.12796,82.024315 c 0,-1.375 0.22698,-1.9375 0.50439,-1.25 0.27741,0.6875 0.27741,1.8125 0,2.5 -0.27741,0.6875 -0.50439,0.125 -0.50439,-1.25 z m 37.2471,-52.25 -1.90499,-2.25 2.25,1.904987 c 2.11444,1.790219 2.70524,2.595013 1.90499,2.595013 -0.18976,0 -1.20226,-1.0125 -2.25,-2.25 z m 10.46745,-1.5 c -1.24387,-1.586056 -1.2085,-1.621426 0.37756,-0.377555 1.66575,1.306369 2.19548,2.127555 1.37244,2.127555 -0.20765,0 -0.99515,-0.7875 -1.75,-1.75 z"
         id="path226" /><path
         style="fill:#494949;fill-opacity:1"
         d="m 170.84251,437.27431 c -1.24387,-1.58605 -1.2085,-1.62142 0.37756,-0.37755 1.66575,1.30637 2.19548,2.12755 1.37244,2.12755 -0.20765,0 -0.99515,-0.7875 -1.75,-1.75 z m -61.79349,-12.83333 c 0.048,-1.16494 0.28494,-1.4019 0.60416,-0.60417 0.28887,0.72188 0.25335,1.58438 -0.0789,1.91667 -0.3323,0.33229 -0.56864,-0.25833 -0.52522,-1.3125 z m 8,-2 c 0.048,-1.16494 0.28494,-1.4019 0.60416,-0.60417 0.28887,0.72188 0.25335,1.58438 -0.0789,1.91667 -0.3323,0.33229 -0.56864,-0.25833 -0.52522,-1.3125 z m -8,-13 c 0.048,-1.16494 0.28494,-1.4019 0.60416,-0.60417 0.28887,0.72188 0.25335,1.58438 -0.0789,1.91667 -0.3323,0.33229 -0.56864,-0.25833 -0.52522,-1.3125 z m -35.000003,-3 c 0.04798,-1.16494 0.284941,-1.4019 0.604167,-0.60417 0.288871,0.72188 0.253344,1.58438 -0.07895,1.91667 -0.332292,0.33229 -0.568641,-0.25833 -0.52522,-1.3125 z m 82.153053,-2.41667 c 0,-1.925 0.2058,-2.7125 0.45733,-1.75 0.25152,0.9625 0.25152,2.5375 0,3.5 -0.25153,0.9625 -0.45733,0.175 -0.45733,-1.75 z m 26.96295,-13.5 c 0.0204,-1.65 0.2445,-2.20393 0.49804,-1.23096 0.25354,0.97296 0.23687,2.32296 -0.037,3 -0.27393,0.67703 -0.48137,-0.11904 -0.46099,-1.76904 z m -56.19495,-80.87755 c 0,-0.20766 0.7875,-0.99516 1.75,-1.75 1.58606,-1.24387 1.62143,-1.2085 0.37756,0.37755 -1.30637,1.66575 -2.12756,2.19548 -2.12756,1.37245 z M 84.127965,287.02431 c 0,-1.375 0.226973,-1.9375 0.504386,-1.25 0.277412,0.6875 0.277412,1.8125 0,2.5 -0.277413,0.6875 -0.504386,0.125 -0.504386,-1.25 z m 81.921055,-25.58333 c 0.048,-1.16494 0.28494,-1.4019 0.60416,-0.60417 0.28887,0.72188 0.25335,1.58438 -0.0789,1.91667 -0.3323,0.33229 -0.56864,-0.25833 -0.52522,-1.3125 z M 40.842515,249.27431 c -1.243871,-1.58605 -1.208501,-1.62142 0.377555,-0.37755 0.9625,0.75484 1.75,1.54234 1.75,1.75 0,0.82303 -0.821186,0.2933 -2.127555,-1.37245 z m 39.206502,-8.83333 c 0.04798,-1.16494 0.284941,-1.4019 0.604167,-0.60417 0.288871,0.72188 0.253344,1.58438 -0.07895,1.91667 -0.332292,0.33229 -0.568641,-0.25833 -0.52522,-1.3125 z m 15.173236,-21.91667 c 0.0111,-2.2 0.215885,-2.98225 0.455078,-1.73834 0.239193,1.24392 0.230112,3.04392 -0.02018,4 -0.250293,0.95609 -0.445996,-0.0617 -0.434898,-2.26166 z m -21.057234,-2 c 0.02038,-1.65 0.244498,-2.20393 0.498042,-1.23096 0.253543,0.97296 0.236869,2.32296 -0.03705,3 -0.273923,0.67703 -0.481368,-0.11904 -0.460988,-1.76904 z m 29.000001,0 c 0.0204,-1.65 0.2445,-2.20393 0.49804,-1.23096 0.25354,0.97296 0.23687,2.32296 -0.0371,3 -0.27393,0.67703 -0.48137,-0.11904 -0.46099,-1.76904 z m 7.03705,-17.5 c 0,-1.925 0.2058,-2.7125 0.45733,-1.75 0.25152,0.9625 0.25152,2.5375 0,3.5 -0.25153,0.9625 -0.45733,0.175 -0.45733,-1.75 z m 23,-8 c 0,-1.925 0.2058,-2.7125 0.45733,-1.75 0.25152,0.9625 0.25152,2.5375 0,3.5 -0.25153,0.9625 -0.45733,0.175 -0.45733,-1.75 z m -8,-2 c 0,-1.925 0.2058,-2.7125 0.45733,-1.75 0.25152,0.9625 0.25152,2.5375 0,3.5 -0.25153,0.9625 -0.45733,0.175 -0.45733,-1.75 z m 14.96295,-10.5 c 0.0204,-1.65 0.2445,-2.20393 0.49804,-1.23096 0.25354,0.97296 0.23687,2.32296 -0.037,3 -0.27393,0.67703 -0.48137,-0.11904 -0.46099,-1.76904 z m 7.884,-0.0833 c 0.048,-1.16494 0.28494,-1.4019 0.60416,-0.60417 0.28887,0.72188 0.25335,1.58438 -0.0789,1.91667 -0.3323,0.33229 -0.56864,-0.25833 -0.52522,-1.3125 z m 107,-46 c 0.048,-1.16494 0.28494,-1.4019 0.60416,-0.60417 0.28887,0.72188 0.25335,1.58438 -0.0789,1.91667 -0.3323,0.33229 -0.56864,-0.25833 -0.52522,-1.3125 z m 8,-15 c 0.048,-1.16494 0.28494,-1.4019 0.60416,-0.60417 0.28887,0.72188 0.25335,1.58438 -0.0789,1.91667 -0.3323,0.33229 -0.56864,-0.25833 -0.52522,-1.3125 z m 59.79349,-41.166665 c -1.24387,-1.586056 -1.2085,-1.621426 0.37756,-0.377555 0.9625,0.754844 1.75,1.542344 1.75,1.75 0,0.823034 -0.82119,0.293303 -2.12756,-1.372445 z M 422.78257,9.3412008 c 0.72187,-0.2888706 1.58437,-0.2533443 1.91667,0.078947 0.33229,0.3322917 -0.25834,0.5686404 -1.3125,0.5252193 -1.16495,-0.047984 -1.4019,-0.2849403 -0.60417,-0.6041663 z"
         id="path225" /><path
         style="fill:#333333;fill-opacity:1"
         d="m 118.26862,506.0648 c -3.83708,-2.33961 -5.58421,-5.49152 -7.80728,-14.08483 -1.97467,-7.63308 -2.59818,-8.52704 -6.49028,-9.30546 -4.69136,-0.93827 -10.685068,-5.47819 -13.877202,-10.51126 -6.328149,-9.97765 -12.070469,-32.54763 -14.765557,-58.03548 -2.164579,-20.47075 -1.509861,-60.66896 1.089257,-66.87803 5.862381,-14.00473 -5.526871,-33.5663 -21.295281,-36.57563 -2.346435,-0.44781 -5.616488,0.14414 -10.932614,1.97902 -6.288159,2.17038 -8.622069,2.50996 -13.652207,1.98638 -12.951108,-1.34807 -23.9259488,-10.11378 -18.924525,-15.1152 1.353837,-1.35384 2.719138,-1.57698 6.544148,-1.06958 9.187235,1.21873 18.388998,-3.43804 23.277919,-11.78036 2.87995,-4.91426 2.86203,-4.67843 1.794257,-23.61133 L 42.47007,249.60176 37.711793,246.664 c -3.789956,-2.33992 -6.422928,-3.08412 -12.938294,-3.65697 -7.278324,-0.63993 -8.446135,-1.02859 -10.594186,-3.52584 -1.846518,-2.14671 -2.290375,-3.56949 -1.887684,-6.05098 1.02701,-6.32873 3.472698,-8.44733 17.379994,-15.05564 l 13.235097,-6.28889 -3.989497,-8.6763 c -2.440259,-5.30703 -3.753576,-9.41961 -3.381968,-10.59045 0.385453,-1.21445 4.505517,-3.74816 11.271172,-6.93141 8.990862,-4.23021 12.546055,-5.3116 22.663643,-6.89367 14.062438,-2.19893 15.313866,-2.61436 48,-15.93432 13.75,-5.60328 26.575,-10.59216 28.5,-11.08642 4.32481,-1.11041 9.40265,-0.30653 14,2.21638 l 3.5,1.9207 45.5,-21.31051 45.5,-21.3105 0.53506,-3.98244 c 0.29428,-2.19033 0.91765,-4.60045 1.38527,-5.35581 0.88991,-1.43751 25.98966,-13.689444 30.21963,-14.751099 1.61345,-0.404949 3.09978,-0.01604 4.38547,1.147497 1.84781,1.672247 2.17009,1.674034 6.4597,0.03581 3.891,-1.485986 4.51487,-2.117326 4.51487,-4.568955 0,-3.586458 2.89647,-5.935092 11.63258,-9.432394 l 6.63392,-2.655742 2.12556,1.996861 c 2.10152,1.974271 2.17354,1.97538 6.36675,0.09802 3.33602,-1.49358 4.24119,-2.427587 4.24119,-4.376301 0,-3.358341 2.24759,-5.366382 9.79863,-8.754308 7.35553,-3.300201 9.41217,-3.512352 11.71598,-1.208546 1.54329,1.543287 1.9658,1.507665 6.13339,-0.517106 3.48992,-1.695535 4.34702,-2.580678 3.89081,-4.01809 -0.90567,-2.853494 2.15629,-5.421702 11.46119,-9.613053 4.675,-2.105832 9.0625,-4.261983 9.75,-4.791446 0.77106,-0.593818 1.25,-3.431406 1.25,-7.405957 0,-3.543813 0.49056,-7.359911 1.09013,-8.480218 1.62577,-3.037781 31.06718,-16.831596 35.92523,-16.831596 4.50808,0 9.04855,3.325855 11.0121,8.066285 1.38737,3.349411 2.28342,3.43082 8.77238,0.796997 l 3.29984,-1.339381 8.2045,8.738049 c 4.51248,4.805928 8.78894,8.73805 9.50324,8.73805 0.7143,0 4.90731,7.5375 9.3178,16.75 6.14827,12.842347 7.90695,17.449878 7.53851,19.75 -0.34682,2.165168 0.85194,5.921912 4.30779,13.5 6.2892,13.791115 9.34738,28.837493 8.86538,43.618023 -0.28583,8.76508 -0.64005,10.61842 -2.3369,12.22721 -1.92063,1.82094 -118.78491,56.50003 -127,59.42144 -2.2,0.78235 -15.475,6.70205 -29.5,13.15489 -14.025,6.45283 -30.45,13.97716 -36.5,16.72072 -15.21511,6.89977 -15.5,7.28598 -15.5,21.01235 0,12.51174 -1.25149,16.46165 -6.37329,20.11506 -2.69692,1.92373 -4.43256,2.23483 -12.62671,2.26322 l -9.5,0.0329 -22.74363,10.62724 c -24.18784,11.30206 -30.12836,14.98001 -37.13824,22.99336 -12.4417,14.22272 -13.78951,28.68695 -3.66334,39.31356 7.01549,7.36221 7.42111,9.92714 3.38806,21.42482 -2.05339,5.85396 -2.76182,10.08403 -3.11785,18.61669 -0.72081,17.27511 2.99063,28.41338 14.82028,44.4766 2.64012,3.58496 5.0978,7.70377 5.46151,9.15292 0.36398,1.45022 4.69442,6.555 9.63187,11.3542 12.76406,12.40663 13.11197,11.6637 -10.63866,22.71797 -12.94566,6.0253 -20.43392,8.95017 -23.5,9.17893 -4.10129,0.30601 -17.56406,5.92247 -50.3054,20.98664 -8.98739,4.13506 -14.52623,4.60103 -19.39605,1.63172 z m 12.32933,-7.60843 c 9.36212,-3.791 43.37212,-19.74227 43.37212,-20.34226 0,-0.68363 -8.85786,-7.65043 -12.46564,-9.80436 -3.73255,-2.22842 -7.65226,-1.33363 -24.40177,5.57043 -9.14793,3.77073 -17.42009,7.13161 -18.38259,7.46862 -0.9625,0.33701 -1.74466,1.41437 -1.73813,2.39413 0.0234,3.50771 2.89215,12.51784 4.57913,14.38194 2.08981,2.30921 3.98144,2.3786 9.03688,0.3315 z m 1.87212,-31.34221 c 17.89523,-7.65187 25.05451,-9.34544 30.30771,-7.16949 2.50221,1.03644 3.6535,0.84278 8.78591,-1.47792 3.24851,-1.46887 11.53138,-5.11802 18.40638,-8.10923 6.875,-2.9912 13.12107,-6.05199 13.88015,-6.80174 1.1709,-1.15651 0.52273,-2.53725 -4.27518,-9.1071 -16.1858,-22.16347 -19.99644,-46.50152 -11.16354,-71.30009 2.17174,-6.09721 2.06043,-6.62451 -2.42567,-11.49135 -2.19133,-2.37732 -5.17229,-6.91744 -6.62435,-10.08916 -5.43284,-11.86687 -1.3431,-27.10822 10.74002,-40.02511 l 5.99414,-6.40775 -4.31279,-1.13987 c -5.92595,-1.56622 -13.19727,-6.3833 -17.42672,-11.54478 -5.00804,-6.11165 -7.38606,-13.02386 -7.38606,-21.4691 0,-7.52715 1.50273,-12.30535 5.53094,-17.58661 1.35798,-1.7804 2.46906,-3.46154 2.46906,-3.73586 0,-0.27432 -6.33388,2.49148 -14.07529,6.14621 -13.40273,6.32745 -14.2031,6.57506 -16.75,5.18204 -1.50885,-0.82527 -3.76442,-3.73153 -5.17471,-6.66754 -1.375,-2.86253 -2.84509,-5.22503 -3.26687,-5.25 -0.82213,-0.0487 -45.779618,20.66776 -46.572461,21.4606 -0.408927,0.40893 2.78244,8.494 3.35278,8.494 0.115336,0 4.050801,-1.8 8.745481,-4 9.52979,-4.4658 12.37696,-4.85104 15.85621,-2.14542 3.46278,2.69281 9.60233,4.45193 13.09783,3.75283 1.66867,-0.33373 6.59403,-2.21421 10.94525,-4.17884 9.03766,-4.08062 12.12192,-3.84402 15.01329,1.15171 1.87639,3.24203 5.18047,33.27187 4.12635,37.50308 -0.72011,2.89046 -3.03234,6.34002 -9.76471,14.56771 -17.41808,21.28682 -29.05818,52.83967 -32.59265,88.34893 -1.91383,19.22744 0.32,33.81029 6.20602,40.5141 3.52443,4.01411 7.03736,4.47026 15.24674,1.9798 5.98399,-1.81536 15.89749,-2.27469 24.68699,-1.14386 5.56405,0.71586 6.83812,0.58874 8.25,-0.82315 2.5662,-2.56619 2.07324,-4.06016 -3.29608,-9.98915 -5.42962,-5.99557 -7.83209,-10.20239 -10.52403,-18.42797 -1.44999,-4.43065 -1.63974,-7.18999 -1.06584,-15.5 0.384,-5.56037 0.73164,-11.32886 0.77253,-12.81885 0.0537,-1.95606 -1.45904,-4.36534 -5.44211,-8.66752 -3.03405,-3.27714 -6.5287,-8.04946 -7.7659,-10.60517 -5.624,-11.61765 -2.69552,-29.12778 7.55592,-45.17872 3.49052,-5.46521 6.58447,-7.29049 8.98325,-5.29968 2.20154,1.82712 1.809,3.47782 -2.5429,10.69337 -5.35029,8.87091 -8.04937,16.40695 -8.71351,24.32886 -0.71292,8.50372 1.44437,13.55471 9.47716,22.18935 6.71703,7.22032 7.90975,10.76179 6.19645,18.39882 -2.81009,12.52594 -0.23977,24.20281 7.35744,33.4246 7.59155,9.21493 8.67737,11.08419 8.67737,14.9382 0,3.94773 -2.55473,8.08344 -6.32755,10.2433 -1.45772,0.8345 -6.94295,1.24367 -16.67245,1.24367 -11.24502,0 -15.95913,0.42346 -21,1.88638 -5.61742,1.63024 -7.11102,1.71797 -11,0.6461 -13.31592,-3.67007 -19.47938,-22.26424 -17.01263,-51.32438 3.18389,-37.50864 14.21113,-68.16366 33.52888,-93.2081 8.1426,-10.55646 8.48502,-11.31126 8.47616,-18.68425 -0.008,-6.99347 -1.60138,-22.37402 -2.46142,-23.7656 -0.30233,-0.48919 -4.10069,0.64941 -8.44079,2.53021 -9.96302,4.31753 -16.48009,4.57188 -23.67072,0.92383 -2.70572,-1.3727 -5.48781,-2.4977 -6.18244,-2.5 -0.69463,-0.002 -6.8126,2.63065 -13.595499,5.85099 -8.701199,4.13112 -12.489717,6.45625 -12.866346,7.89648 -0.293595,1.12271 0.06915,9.40038 0.806092,18.39482 0.736946,8.99444 1.357634,22.33395 1.379307,29.64336 0.03475,11.7201 -0.216747,13.78713 -2.129254,17.5 -1.975994,3.83613 -2.20859,6.12025 -2.618113,25.71016 -0.653407,31.2563 2.333273,58.11056 8.786229,79 3.256373,10.5415 6.564126,16.12345 11.329004,19.11809 5.2857,3.32196 10.95221,2.1898 30.17154,-6.02824 z m -2.19038,-44.16714 c -4.54773,-2.91306 -7.0088,-9.64569 -5.43999,-14.88192 2.32545,-7.76164 10.9385,-11.77268 17.92285,-8.34654 6.94069,3.40472 10.15827,11.89229 6.92821,18.27574 -3.28438,6.49078 -13.10006,8.99525 -19.41107,4.95272 z m 10.69038,-7.92271 c 2.43272,-2.43272 2.50811,-3.78106 0.34501,-6.17125 -3.33938,-3.68998 -8.34501,-1.69759 -8.34501,3.32156 0,4.59756 4.61,6.23969 8,2.84969 z M 113.2263,310.43547 c -9.69901,-4.94829 -9.59537,-20.08175 0.16791,-24.51605 5.20232,-2.3628 6.77013,-2.34681 11.60224,0.11835 5.17137,2.63824 8.4101,8.69571 7.65586,14.31894 -1.17148,8.73407 -11.52886,14.10776 -19.42601,10.07876 z m 9.54377,-8.61116 c 0.66,-0.66 1.2,-2.37 1.2,-3.8 0,-3.35149 -1.70284,-5 -5.16482,-5 -2.76766,0 -4.83518,2.29314 -4.83518,5.36283 0,3.72892 6.11846,6.11872 8.8,3.43717 z m 81.75481,166.55882 c 8.21986,-3.65265 15.13036,-6.80032 15.35668,-6.99483 0.50707,-0.43578 -9.76058,-10.36399 -10.71833,-10.36399 -1.58073,0 -35.19316,15.42911 -35.19316,16.15472 0,1.52856 10.50049,7.84528 13.04147,7.84528 1.41249,0 9.29349,-2.98853 17.51334,-6.64118 z M 77.376191,300.52431 c -0.778292,-8.8 -1.156939,-17.2164 -0.841438,-18.70312 0.315501,-1.48673 2.209602,-4.29214 4.209114,-6.23426 l 3.635476,-3.53113 -1.954637,-3.88014 -1.954636,-3.88014 -13.381483,6.17509 -13.381483,6.1751 -1.697141,5.4393 c -0.933428,2.99162 -2.412819,6.7893 -3.287537,8.4393 -2.539698,4.7907 -9.097346,10.96498 -14.377078,13.53658 -4.193361,2.04247 -4.546059,2.42742 -2.521571,2.75216 1.29454,0.20765 5.11954,-0.66661 8.5,-1.94279 9.046894,-3.41538 16.654463,-3.10107 25.056418,1.03519 3.794795,1.86818 7.950056,4.87351 9.823394,7.10486 1.785667,2.12694 3.323394,3.78769 3.417172,3.69058 0.09378,-0.0971 -0.466279,-7.37658 -1.24457,-16.17658 z M 232.39056,275.2038 c 13.15628,-6.13316 24.96189,-12.12953 26.23469,-13.32527 1.27281,-1.19574 2.59595,-3.67595 2.94032,-5.51157 0.78604,-4.18995 -2.18436,-22.51206 -4.51387,-27.84265 -2.25181,-5.15275 -7.93678,-10.11463 -13.21794,-11.5367 -4.85154,-1.30638 -7.93378,-0.37354 -22.10239,6.68931 -10.03516,5.00238 -13.06779,8.56058 -14.84703,17.42009 -2.39831,11.94206 3.10334,20.63417 16.33573,25.80898 2.00132,0.78266 2.75,1.77068 2.75,3.62911 0,3.04088 -3.17282,4.58683 -7.10139,3.46014 -10.35695,-2.97034 -19.15867,-13.82387 -20.50583,-25.28604 l -0.64013,-5.44657 -5.35134,1.88084 c -2.94324,1.03446 -6.86784,1.88084 -8.72134,1.88084 -5.50831,0 -8.75613,5.05204 -8.86584,13.79095 -0.0872,6.94909 1.76853,11.63161 6.8387,17.25554 5.71809,6.34261 12.27377,9.1338 20.34717,8.66314 5.80021,-0.33814 9.07527,-1.57947 30.42049,-11.53014 z M 112.72975,240.35765 c 34.5262,-16.03943 60.76558,-27.66667 62.43584,-27.66667 3.8167,0 7.86858,3.08469 10.18885,7.75674 1.5752,3.1718 1.70358,4.38338 0.78248,7.38461 -0.60604,1.97465 -0.96201,3.73016 -0.79105,3.90112 0.3675,0.36749 90.7701,-41.56146 91.89119,-42.61935 0.76619,-0.72301 -9.73982,-24.08979 -10.83108,-24.08979 -0.31715,0 -16.63247,7.47794 -36.25627,16.61764 -32.25716,15.02362 -36.20721,16.62184 -41.17964,16.6615 -10.27858,0.082 -14.54146,-3.83144 -22.37964,-20.54507 l -5.51787,-11.76593 -6.55125,3.23056 -6.55124,3.23057 v 22.08537 c 0,23.35214 -0.21664,24.48536 -4.68095,24.48536 -3.27897,0 -3.58541,-2.31695 -3.17549,-24.00945 0.3139,-16.61082 0.16956,-18.93476 -1.14213,-18.3887 -0.82579,0.34379 -2.24559,0.84016 -3.15512,1.10305 -2.1135,0.6109 -2.46563,4.03961 -2.7443,26.72131 -0.12114,9.85942 -0.67391,18.77388 -1.22839,19.80993 -0.68478,1.27954 -1.86861,1.78432 -3.69088,1.5738 l -2.68274,-0.30994 0.0884,-21.29496 c 0.0792,-19.08624 -0.0764,-21.22668 -1.5,-20.63655 -0.87361,0.36213 -2.37588,0.88485 -3.33838,1.1616 -0.9625,0.27675 -1.75213,1.23819 -1.75473,2.13655 -0.0396,13.70237 -1.4924,43.07131 -2.19842,44.4433 -0.62455,1.21369 -1.81514,1.70783 -3.61411,1.5 l -2.68274,-0.30994 0.17233,-21.32718 c 0.15824,-19.58209 0.0355,-21.27067 -1.5,-20.63655 -0.91978,0.37985 -2.40729,0.90333 -3.30558,1.16329 -1.41678,0.41 -1.74813,3.52888 -2.5,23.53177 -0.76298,20.29855 -1.07626,23.19078 -2.61675,24.15879 -1.27485,0.80108 -2.225151,0.79734 -3.5,-0.0138 -1.595187,-1.01493 -1.716195,-2.93858 -1.367863,-21.74489 0.210176,-11.3473 0.07533,-20.63146 -0.29966,-20.63146 -0.374988,0 -2.00945,0.68656 -3.632137,1.52569 L 88.97007,200.07568 88.851587,219.8 c -0.06516,10.84837 -0.03713,20.32301 0.06231,21.05475 0.24979,1.8382 -2.720353,6.17293 -4.216878,6.15425 -3.673288,-0.0458 -3.87576,-1.25019 -3.768605,-22.41642 l 0.104912,-20.72312 -2.281627,0.68982 c -1.254895,0.3794 -2.706659,1.08678 -3.226141,1.57194 -0.519483,0.48517 -1.102433,10.22209 -1.295444,21.63761 -0.402481,23.80444 -0.542295,24.89291 -3.310354,25.77145 -4.546497,1.44301 -4.949688,-0.36034 -4.949688,-22.13841 0,-13.35546 -0.356056,-20.37756 -1.033244,-20.37756 -1.556647,0 -11.368193,5.10801 -12.143876,6.32225 -0.372416,0.58297 -0.717119,10.08645 -0.766006,21.11885 -0.04889,11.0324 -0.364657,22.1964 -0.701711,24.8089 -0.442088,3.42663 -0.269783,4.75 0.618454,4.75 0.677203,0 28.030932,-12.45 60.786061,-27.66666 z m 89.53935,-24.83644 c -3.20996,-2.24834 -4.79432,-7.88694 -3.25817,-11.59553 4.00097,-9.6592 18.95914,-6.81999 18.95914,3.59863 0,7.47381 -9.523,12.32412 -15.70097,7.9969 z m 7.5106,-8.2469 c -0.18536,-0.9625 -0.99969,-1.75 -1.80963,-1.75 -0.80994,0 -1.62427,0.7875 -1.80963,1.75 -0.23646,1.22785 0.30348,1.75 1.80963,1.75 1.50615,0 2.04609,-0.52215 1.80963,-1.75 z m 20.2671,-5.83889 c -2.58811,-2.17774 -3.07673,-3.29665 -3.07673,-7.04545 0,-6.22777 3.18366,-9.36566 9.50229,-9.36566 6.14746,0 9.49771,3.37122 9.49771,9.55713 0,3.53499 -0.52667,4.70825 -3.07673,6.85398 -1.96868,1.65654 -4.28193,2.58889 -6.42327,2.58889 -2.14134,0 -4.45459,-0.93235 -6.42327,-2.58889 z m 7.92327,-6.85209 c 0,-2.0541 -2.07025,-3.06338 -3.04582,-1.48488 -0.45222,0.73171 -0.60035,1.68936 -0.32918,2.12812 0.84042,1.35983 3.375,0.87677 3.375,-0.64324 z m 36.00602,68.7062 c 1.72941,-2.19859 1.99616,-4.07606 2.01043,-14.15007 0.0233,-16.4348 0.90642,-17.8495 15.67831,-25.11515 6.15017,-3.025 11.48554,-5.81321 11.85638,-6.19602 0.76921,-0.79406 3.46919,-13.11698 2.98094,-13.60523 -0.1762,-0.1762 -8.24038,3.36171 -17.92041,7.86203 l -17.60006,8.18238 -1.21289,4.12842 c -1.40583,4.78513 -1.55506,13.9558 -0.40075,24.62842 0.79078,7.31146 0.43378,9.45974 -2.86374,17.23301 -0.65742,1.54973 -0.40665,1.61848 2.37132,0.65007 1.70857,-0.59561 4.00378,-2.22364 5.10047,-3.61786 z M 162.1077,235.9084 c 7.34931,-3.36376 13.94762,-6.58774 14.66293,-7.16441 1.72467,-1.3904 1.12771,-5.7499 -0.96688,-7.06091 -1.30176,-0.81479 -4.87115,0.46497 -16.31478,5.84944 -8.05665,3.79083 -14.8627,7.23906 -15.12455,7.66274 -0.61595,0.99663 2.38945,6.82905 3.51896,6.82905 0.47408,0 6.87502,-2.75216 14.22432,-6.11591 z M 43.97007,230.52431 c 0,-5.225 -0.3375,-9.47837 -0.75,-9.45194 -0.4125,0.0264 -5.475,2.38892 -11.25,5.25 -12.624048,6.25425 -13.394503,7.94514 -4,8.77864 3.704555,0.32868 8.220274,1.49236 10.5,2.7058 2.2,1.17101 4.3375,2.149 4.75,2.17331 0.4125,0.0243 0.75,-4.23081 0.75,-9.45581 z m 219.85827,-19.43419 c 0.60867,-3.5388 1.00207,-6.53378 0.8742,-6.6555 -0.12786,-0.12172 -3.08703,1.07751 -6.57594,2.66495 l -6.34346,2.88626 4.84346,4.77705 c 2.66786,2.63128 5.12457,4.32436 5.46927,3.76924 0.34419,-0.55429 1.1238,-3.90319 1.73247,-7.442 z m 72.89173,-7.54436 c 11.6875,-5.40744 21.25,-10.15695 21.25,-10.55446 0,-1.70985 -3.10911,-7.96699 -3.95872,-7.96699 -0.51253,0 -9.25591,3.87958 -19.42972,8.62127 l -18.49785,8.62127 -1.05685,4.92796 c -1.25359,5.84526 -1.31117,7.07722 -0.30686,6.5651 0.4125,-0.21034 10.3125,-4.80671 22,-10.21415 z M 319.4898,188.22211 c 44.99009,-20.97339 60.13204,-28.05711 128.48027,-60.10575 l 36.5,-17.11493 -0.1203,-3.55886 c -0.0662,-1.95736 -0.51616,-3.91962 -1,-4.36056 -0.48383,-0.44095 -10.7797,3.82707 -22.8797,9.48449 -12.1,5.65741 -58.86475,27.42707 -103.92167,48.37702 -45.05692,20.94994 -82.04008,38.20922 -82.1848,38.35393 -0.80811,0.80811 -1.55688,10.94586 -0.77267,10.46118 0.50523,-0.31224 21.15972,-10.00368 45.89887,-21.53652 z m -216.18789,-4.37076 c 33.84346,-15.84264 49.04484,-23.42456 47.37898,-23.63101 -1.34907,-0.16719 -10.94839,3.05886 -21.33184,7.169 -42.809604,16.94558 -45.222268,17.7502 -60.082137,20.03716 -7.014845,1.0796 -12.327054,2.58714 -17,4.82438 -3.738264,1.78975 -6.923058,3.30966 -7.077321,3.37757 -0.154262,0.0679 0.93151,2.91809 2.412828,6.33373 1.988256,4.58453 3.108793,6.08013 4.280478,5.71323 0.872944,-0.27336 24.011498,-10.99418 51.419012,-23.82406 z m 123.30742,-9.97552 c 19.17341,-8.88166 35.23274,-16.47616 35.6874,-16.87666 0.45466,-0.40049 -0.55003,-3.45536 -2.23264,-6.7886 l -3.05929,-6.06042 -13.76736,6.36778 c -49.66429,22.97109 -64.66058,30.186 -65.02703,31.28537 -0.22844,0.68531 1.15403,2.81539 3.07216,4.73351 2.65067,2.65068 4.32475,3.4875 6.97676,3.4875 2.40245,0 14.3474,-5.0298 38.35,-16.14848 z M 425.9315,163.3438 c 31.64622,-14.67428 58.32607,-27.34402 59.28857,-28.15499 1.32787,-1.1188 1.75,-3.00499 1.75,-7.81948 0,-5.61574 -0.22326,-6.34502 -1.9425,-6.34502 -1.5704,0 -2.00141,0.81414 -2.25,4.25 l -0.3075,4.25 -10.5,5.22299 c -11.4952,5.71802 -14.34797,6.29395 -16.23207,3.27701 -1.45353,-2.32746 -3.2835,-2.47455 -6.76793,-0.54399 -1.9903,1.10274 -2.5,2.16588 -2.5,5.21457 0,3.71535 -0.19363,3.9256 -6.5,7.05789 -3.575,1.77565 -9.65,4.57631 -13.5,6.22368 l -7,2.99522 -2.20203,-2.47368 c -2.61093,-2.93302 -3.15239,-2.98762 -7.77374,-0.78385 -3.19184,1.52208 -3.48605,1.99675 -2.96365,4.78141 0.42246,2.25191 0.0856,3.53561 -1.2403,4.72649 -2.13526,1.91783 -27.78266,13.80226 -29.7862,13.80226 -0.752,0 -2.22361,-1.17556 -3.27025,-2.61237 l -1.90298,-2.61237 -4.18042,2.1327 c -2.29924,1.17298 -4.18043,2.45235 -4.18043,2.84304 0,1.8794 4.49402,11.249 5.39545,11.249 0.56508,0 26.91977,-12.00623 58.56598,-26.68051 z m -130.82113,17.03612 c 4.04784,-2.00442 46.9597,-22.05587 95.3597,-44.55878 48.4,-22.50291 88.42299,-41.333427 88.93999,-41.845591 0.58576,-0.580296 0.31004,-2.252207 -0.73168,-4.436716 l -1.67166,-3.505508 -5.26832,2.357909 c -5.98498,2.678654 -189.18818,87.789436 -189.41732,87.997676 -0.66521,0.60454 3.15276,7.6354 4.14625,7.6354 0.70584,0 4.59521,-1.63997 8.64304,-3.64439 z m -80.01884,-26.17112 40.37854,-18.81552 -0.34974,-5.93448 c -0.19236,-3.26397 -0.48309,-6.07522 -0.64607,-6.24722 -0.26132,-0.27579 -84.51771,38.54483 -85.32142,39.31132 -0.36459,0.34771 4.66859,10.50141 5.20553,10.50141 0.19504,0 18.52496,-8.46698 40.73316,-18.81551 z m 161.87854,-31.20447 c 52.525,-24.384632 95.69315,-44.486316 95.92922,-44.670411 0.72107,-0.562308 -2.83157,-7.309604 -3.84872,-7.309604 -1.29119,0 -192.24015,88.759645 -193.36165,89.881155 -1.42836,1.42836 2.13415,7.39075 4.1069,6.87352 0.92084,-0.24144 44.64925,-20.39003 97.17425,-44.77466 z m -5.5,-16.45161 c 51.7,-24.03878 94.30062,-44.00422 94.66804,-44.36764 0.92768,-0.91758 -4.79001,-13.160765 -6.14621,-13.160765 -0.60583,0 -2.842,0.887934 -4.96927,1.973187 l -3.86777,1.973186 0.52645,5.805739 c 0.58582,6.46051 -0.74821,8.666852 -4.88221,8.074652 -1.83597,-0.263004 -2.42651,-1.182992 -3.02648,-4.71486 -0.40997,-2.413452 -0.92511,-4.567801 -1.14475,-4.78744 -0.21964,-0.21964 -1.59598,0.145876 -3.05853,0.812258 -2.54863,1.161236 -2.63262,1.446289 -2.02044,6.857233 0.5142,4.544988 0.31116,5.973196 -1.04148,7.325838 -3.42208,3.422084 -5.90703,1.631136 -7.00911,-5.051608 l -0.69789,-4.231815 -3.04212,1.573142 c -2.96451,1.533004 -3.02593,1.710945 -2.40736,6.973998 0.54157,4.607936 0.33662,5.698996 -1.39597,7.431591 -3.00084,3.000842 -5.575,1.203992 -6.42846,-4.487286 -0.76339,-5.090671 -0.57674,-4.93132 -3.96692,-3.386652 -2.24674,1.023686 -2.53468,1.81077 -2.79705,7.645606 -0.21992,4.89104 -0.72655,6.777115 -2.04247,7.603722 -2.86762,1.801321 -5.20169,-0.437548 -5.56203,-5.335174 -0.27985,-3.803466 -0.53776,-4.183986 -2.5,-3.688415 -2.44701,0.617999 -131.73997,60.522233 -132.97104,61.608363 -0.43069,0.37998 0.56824,3.7027 2.21985,7.38382 l 3.00292,6.69295 3.28015,-1.40837 c 1.80408,-0.77461 45.58015,-21.07647 97.28015,-45.11526 z m -40,-7.541432 c 35.75,-16.61318 65.12604,-30.320086 65.28008,-30.45979 0.15404,-0.139705 -1.55007,-4.027972 -3.78692,-8.640596 -4.57111,-9.426093 -4.23876,-9.305793 -13.20479,-4.779756 -4.55959,2.301675 -5.78837,3.416711 -5.78837,5.252577 0,3.124476 -2.08653,4.83047 -11.20311,9.159915 -7.60261,3.610461 -7.72999,3.633269 -10.65193,1.907234 -2.54576,-1.503816 -3.38786,-1.568586 -6.05114,-0.465421 -2.12503,0.880217 -3.09382,1.96651 -3.09382,3.469055 0,3.502058 -2.00666,5.283185 -10.18446,9.039809 -8.58958,3.945786 -10.39346,4.221955 -12.87978,1.971864 -1.53498,-1.389139 -2.10542,-1.397815 -5.25942,-0.07999 -2.90974,1.215771 -3.59437,2.069222 -3.85702,4.808136 -0.29904,3.118507 -0.89003,3.606271 -9.30549,7.680209 l -8.98617,4.350216 -3.24624,-1.74821 -3.24623,-1.748214 -10.63174,4.863664 c -5.84746,2.67502 -10.86186,5.46335 -11.14312,6.19629 -0.58382,1.52142 -0.72679,6.1443 -0.45131,14.59302 0.13816,4.23698 0.53672,5.71576 1.44098,5.34638 0.6875,-0.28083 30.5,-14.10321 66.25,-30.71639 z m 79.5,-37.493719 c 0,-0.369121 -5.89442,-13.002654 -6.70826,-14.377856 -0.28688,-0.484746 -6.29174,1.969471 -6.29174,2.571463 0,0.244321 1.55568,3.811276 3.45706,7.926566 l 3.45705,7.482347 3.04295,-1.573567 c 1.67362,-0.865462 3.04294,-1.778491 3.04294,-2.028953 z m 11.46731,-4.660314 c 2.96073,-1.348996 2.83529,-2.215756 -1.60063,-11.060178 -2.7445,-5.472054 -2.98375,-5.676544 -5.36958,-4.589485 -1.37341,0.625764 -2.4971,1.592131 -2.4971,2.147482 0,1.101826 6.10518,14.669241 6.60099,14.669241 0.1677,0 1.45754,-0.525177 2.86632,-1.16706 z m 14.99106,-7.178841 c 1.76021,-1.287099 1.69656,-1.658459 -1.45691,-8.5 -3.42344,-7.427251 -4.31628,-8.106815 -7.54717,-5.744331 -1.87593,1.371707 -1.83537,1.601187 1.50206,8.5 3.5567,7.352067 4.40989,8.005355 7.50202,5.744331 z m 18.50265,-9.424423 c -0.0214,-0.401322 -2.41581,-3.373094 -5.32081,-6.603939 -4.3367,-4.823136 -5.67176,-5.7505 -7.46101,-5.182612 -2.86037,0.907846 -2.7935,1.386973 1.33894,9.592906 l 3.51815,6.986103 3.98185,-2.031391 c 2.19003,-1.117265 3.96432,-2.359745 3.94288,-2.761067 z m -43.39895,-6.944565 c 8.06609,-3.693189 14.88887,-7.296663 15.16173,-8.00772 0.73603,-1.918066 -2.4862,-6.277391 -4.63998,-6.277391 -1.02853,0 -7.54316,2.677303 -14.47694,5.949561 l -12.60688,5.949562 v 4.550438 c 0,2.502742 0.4267,4.550439 0.94822,4.550439 0.52152,0 7.54775,-3.0217 15.61385,-6.714889 z"
         id="path224" /></g><path
       style="fill:#ffffff;stroke:none;stroke-width:2.77573"
       d="m 47.206832,203.47887 c -0.399994,-0.53351 -1.013308,-1.53957 -1.362919,-2.23569 -0.943119,-1.87787 -3.312577,-7.74107 -3.312577,-8.19694 0,-0.44466 7.27657,-3.95448 11.064485,-5.3369 3.581244,-1.30699 7.344617,-2.18987 14.525245,-3.40757 13.139959,-2.22829 18.812305,-4.10514 51.414374,-17.01181 11.17895,-4.42558 16.96563,-6.58552 22.29175,-8.32064 8.06914,-2.62873 6.98057,-1.76184 -5.72691,4.56063 -11.4472,5.69543 -20.93361,10.20382 -50.142211,23.82998 -30.277337,14.12473 -36.772529,17.08895 -37.445292,17.08895 -0.318276,0 -0.905951,-0.43651 -1.305945,-0.97001 z"
       id="path232" /><path
       style="fill:#ffffff;stroke:none;stroke-width:2.77573"
       d="m 36.86521,235.32651 c -3.116013,-1.5166 -6.49603,-2.58302 -9.807902,-3.09448 -1.205772,-0.18621 -2.406879,-0.55313 -2.669127,-0.81538 -0.371754,-0.37175 -0.867545,-0.44138 -2.250148,-0.31601 -3.456567,0.31343 -4.105485,-0.88666 -1.543912,-2.85528 1.608736,-1.23634 18.433923,-9.7686 19.263195,-9.7686 0.382245,0 0.546403,0.37288 0.689827,1.56694 0.308324,2.56693 0.229262,10.37168 -0.105065,10.37168 -0.3642,0 -0.403014,3.19305 -0.04051,3.33286 0.350869,0.13533 -0.03004,2.71101 -0.420042,2.84029 -0.171227,0.0568 -1.573568,-0.51115 -3.116312,-1.26202 z"
       id="path233" /><path
       style="fill:#ffffff;stroke:none;stroke-width:2.77573"
       d="m 48.430178,264.37827 c -0.06612,-0.19835 0.07397,-0.74989 0.311312,-1.22565 0.338046,-0.67763 0.362083,-1.10058 0.110963,-1.95247 -0.221943,-0.7529 -0.236689,-2.78617 -0.04793,-6.60906 0.149948,-3.03689 0.277228,-7.91354 0.282844,-10.83699 0.0059,-3.05 0.124088,-5.245 0.277403,-5.15025 0.352296,0.21773 0.629196,-0.54592 0.624131,-1.72126 -0.0056,-1.29519 -0.307543,-2.31579 -0.626788,-2.11849 -0.145494,0.0899 -0.264533,-0.83531 -0.264533,-2.05607 0,-1.66274 0.118806,-2.31816 0.473578,-2.61259 0.352459,-0.29252 0.421575,-0.66445 0.270244,-1.45426 -0.111833,-0.58367 -0.190634,-1.76635 -0.175112,-2.62817 0.03241,-1.79963 0.04489,-3.8178 0.04842,-7.83472 0.0014,-1.55948 0.0771,-3.0815 0.168283,-3.38228 0.09118,-0.30077 0.987715,-1.07809 1.992295,-1.72738 2.558678,-1.65376 8.352942,-4.46015 9.355384,-4.53119 0.772706,-0.0548 0.853324,0.0432 1.056241,1.28382 0.120826,0.7387 0.312872,5.27553 0.426769,10.08184 0.191096,8.06404 0.168899,8.72408 -0.287502,8.54895 -0.411371,-0.15786 -0.494586,0.018 -0.494586,1.04537 0,0.82259 0.149541,1.29254 0.447698,1.40696 0.588142,0.22569 0.656442,4.76405 0.07462,4.95799 -0.241615,0.0805 -0.373081,0.73788 -0.373081,1.86541 0,1.12754 0.131466,1.78488 0.373081,1.86541 0.441175,0.14706 0.508789,1.56695 0.07462,1.56695 -0.175568,0 -0.298466,1.04463 -0.298466,2.53695 0,2.45062 0.458749,3.54729 0.655468,1.56695 0.06798,-0.68438 0.207432,-0.27152 0.473563,1.40204 0.207463,1.30464 0.618679,2.78204 0.913812,3.28312 0.49844,0.84627 0.656265,0.91057 2.218926,0.90414 3.194207,-0.0131 3.952442,-1.30822 4.364545,-7.45471 0.132073,-1.96987 0.259825,-3.01077 0.283893,-2.31311 0.05472,1.58618 0.523408,1.6521 0.7839,0.11027 0.219568,-1.29962 -0.06936,-3.31877 -0.474892,-3.31877 -0.450096,0 -0.292611,-1.50761 0.209986,-2.0102 0.505917,-0.50592 0.375275,-2.22646 -0.183528,-2.41704 -0.422114,-0.14397 -0.358706,-1.17145 0.08137,-1.31865 0.263108,-0.088 0.345357,-0.73318 0.279026,-2.18875 -0.08509,-1.8673 -0.103148,-3.54052 -0.06575,-6.09324 0.0072,-0.49247 0.01583,-1.56695 0.01915,-2.38773 0.0033,-0.82078 0.01495,-2.02956 0.02586,-2.68619 0.02711,-1.63211 0.03543,-3.44441 0.02398,-5.22314 -0.02426,-3.7685 0.592478,-9.85837 1.049735,-10.36542 0.409864,-0.45451 2.145336,-1.22238 4.189615,-1.85373 l 0.671547,-0.2074 v 7.2009 c 0,4.16269 -0.112733,7.13123 -0.267192,7.03577 -0.146954,-0.0908 -0.348418,0.0465 -0.447697,0.30526 -0.326026,0.84961 -0.188929,1.9294 0.267191,2.10443 0.514008,0.19725 0.653723,3.09259 0.149233,3.09259 -0.451176,0 -0.380136,3.79599 0.07462,3.98709 0.267171,0.11228 0.224807,0.25064 -0.149233,0.4874 -0.675439,0.42755 -0.676961,1.89447 -0.0027,2.56876 0.373646,0.37365 0.415574,0.55435 0.149233,0.64313 -0.513658,0.17122 -0.51123,4.14332 0.0027,4.35928 0.267171,0.11228 0.224807,0.25064 -0.149233,0.4874 -0.824277,0.52176 -0.618132,2.68868 0.255782,2.68868 0.22867,0 0.413709,0.23505 0.411196,0.52232 -0.0036,0.41309 -0.05905,0.4363 -0.265097,0.11099 -0.14329,-0.22622 -0.409851,-0.31903 -0.59236,-0.20623 -0.409135,0.25286 -0.426978,1.65256 -0.0288,2.25911 0.26124,0.39796 0.32655,0.39796 0.587791,0 0.2397,-0.36514 0.294737,-0.32657 0.298465,0.20916 0.0025,0.36127 0.154713,1.35696 0.338224,2.21263 0.433677,2.02216 1.345522,2.95059 2.897889,2.95059 1.005852,0 1.344867,-0.19034 2.423859,-1.36091 2.410154,-2.61471 2.389201,-2.48879 2.396612,-14.40446 0.0058,-9.28686 0.06377,-10.59944 0.487027,-11.0227 0.360263,-0.36027 0.44441,-0.85583 0.336323,-1.98071 -0.07928,-0.82513 -0.295498,-1.55068 -0.480475,-1.61234 -0.502694,-0.16756 -0.415187,-2.71232 0.111378,-3.23889 0.246234,-0.24623 0.447698,-0.89859 0.447698,-1.44969 0,-0.55109 -0.201464,-1.20345 -0.447698,-1.44968 -0.579459,-0.57946 -0.567422,-0.97746 0.03657,-1.20924 0.392673,-0.15068 0.457661,-0.50671 0.343587,-1.8823 -0.07738,-0.93306 -0.295298,-1.74801 -0.484272,-1.811 -0.526621,-0.17554 -0.436455,-2.65147 0.104114,-2.85891 0.513164,-0.19692 0.591968,-1.45253 0.143726,-2.29008 -0.271678,-0.50763 -0.0086,-0.71165 2.476106,-1.9204 1.529042,-0.74384 2.941768,-1.35243 3.139394,-1.35243 0.44458,0 0.500614,3.16057 0.06085,3.43236 -0.425779,0.26314 -0.369775,3.31967 0.07462,4.07232 0.298465,0.50551 0.298465,0.6589 0,0.76699 -0.455384,0.16492 -0.526896,3.96542 -0.07462,3.96542 0.164156,0 0.298465,0.26862 0.298465,0.59693 0,0.32831 -0.134309,0.59693 -0.298465,0.59693 -0.168365,0 -0.298466,0.84565 -0.298466,1.94003 0,1.09437 0.130101,1.94002 0.298466,1.94002 0.164156,0 0.298465,0.32785 0.298465,0.72855 0,0.4007 -0.134309,0.81156 -0.298465,0.91301 -0.377288,0.23318 -0.394393,4.40929 -0.01962,4.79037 0.154065,0.15667 0.323513,3.95634 0.378673,8.49135 0.110566,9.09045 0.183219,9.47214 1.963733,10.31705 0.877864,0.41658 1.235507,0.43975 2.222592,0.14401 0.960032,-0.28763 1.276328,-0.58213 1.719836,-1.60132 0.549624,-1.26305 1.162484,-5.84291 1.237071,-9.24453 0.02236,-1.01954 0.09885,-1.55151 0.169992,-1.18216 0.1732,0.8992 0.62825,0.8514 0.86473,-0.0908 0.23974,-0.95519 -0.0639,-2.92975 -0.4714,-3.06559 -0.461355,-0.15379 -0.36616,-0.86034 0.1422,-1.05542 0.58099,-0.22295 0.57334,-1.37066 -0.0147,-2.21023 -0.41864,-0.5977 -0.41547,-0.8474 0.0335,-2.63761 0.32405,-1.29214 0.41907,-2.35341 0.27419,-3.06241 -0.41028,-2.00772 0.25139,-18.39016 0.7679,-19.01251 0.15053,-0.18139 0.2629,-0.98989 0.24969,-1.79667 -0.038,-2.32578 0.27603,-2.79569 2.40305,-3.59531 1.03437,-0.38885 2.05476,-0.707 2.26754,-0.707 0.37244,0 0.75347,2.78996 0.72352,5.29776 -0.006,0.53351 0.009,1.87661 0.0337,2.98466 0.0249,1.10805 0.0213,9.14653 -0.008,17.86328 l -0.0533,15.84864 2.11225,0.19632 c 2.45488,0.22815 4.03939,-0.25848 4.46215,-1.37041 0.29861,-0.78541 0.9257,-7.16895 0.9257,-9.42331 0,-1.22976 0.10119,-1.50723 0.59693,-1.63687 0.45398,-0.11872 0.59693,-0.40711 0.59693,-1.20426 0,-1.27186 -0.26701,-2.04705 -0.6282,-1.82382 -0.14696,0.0908 -0.26719,0.0373 -0.26719,-0.11901 0,-0.15628 0.216,-0.36704 0.48,-0.46834 0.37523,-0.14399 0.43735,-0.42783 0.28464,-1.30041 -0.46638,-2.66477 -0.51989,-3.65318 -0.19776,-3.65318 0.42049,0 0.42682,-1.64634 0.009,-2.42642 -0.23295,-0.43528 -0.22196,-0.71353 0.0407,-1.03002 0.24207,-0.29168 0.30208,-1.04265 0.18332,-2.29403 -0.0971,-1.02322 -0.0657,-5.92702 0.0698,-10.89733 0.21646,-7.93926 0.30929,-9.10644 0.7642,-9.60911 0.69915,-0.77255 4.85302,-2.16805 5.12819,-1.72282 0.49451,0.80015 0.74133,11.40949 0.60331,25.93311 l -0.14932,15.71208 0.90607,0.18121 c 1.60117,0.32023 3.82112,0.19394 4.71485,-0.26822 1.10358,-0.57069 1.4487,-1.73491 1.72479,-5.81834 0.16852,-2.49253 0.3035,-3.13389 0.65958,-3.13389 0.33826,0 0.4477,-0.36479 0.4477,-1.49233 0,-1.03468 -0.11441,-1.46944 -0.37309,-1.41771 -0.20519,0.041 -0.37308,-0.194 -0.37308,-0.52232 0,-0.32831 0.16789,-0.56335 0.37308,-0.52231 0.26229,0.0525 0.37309,-0.41288 0.37309,-1.56694 0,-1.15407 -0.1108,-1.61941 -0.37309,-1.56695 -0.20519,0.041 -0.37308,-0.0597 -0.37308,-0.22385 0,-0.16415 0.20147,-0.29846 0.4477,-0.29846 0.55601,0 0.62722,-2.08882 0.0895,-2.6265 -0.27857,-0.27857 -0.27857,-0.35816 0,-0.35816 0.47219,0 0.47219,-2.15431 0,-2.62649 -0.27857,-0.27857 -0.27857,-0.35816 0,-0.35816 0.47632,0 0.47022,-2.15628 -0.007,-2.63395 -0.2885,-0.2885 -0.2885,-0.48908 0,-0.95104 0.46979,-0.75225 0.47448,-4.00889 0.007,-4.75768 -0.2831,-0.45331 -0.27391,-0.73299 0.0435,-1.32618 0.30227,-0.56479 0.35276,-1.47858 0.20305,-3.67463 -0.2296,-3.36792 0.22733,-8.57125 0.90039,-10.2534 0.38938,-0.97317 0.70265,-1.24307 2.0006,-1.72368 2.88323,-1.06761 2.83779,-1.06555 3.09592,-0.14059 0.12859,0.46076 0.20098,6.52115 0.16088,13.46753 -0.0623,10.7825 -0.13865,12.69551 -0.52232,13.07918 -0.66506,0.66507 -0.49629,3.93855 0.18147,3.51968 0.14549,-0.0899 0.26453,0.32245 0.26453,0.91637 0,0.59392 -0.12024,1.00555 -0.26719,0.91472 -0.34041,-0.21038 -0.62821,0.53281 -0.62821,1.62224 0,1.07927 0.28692,1.83316 0.61946,1.62764 0.28958,-0.17898 0.45324,0.46051 0.72207,2.8214 0.20747,1.82201 0.79187,3.1496 1.50727,3.42412 0.92299,0.35419 3.57929,0.18914 4.22403,-0.26246 0.83707,-0.5863 1.51357,-2.72742 1.76042,-5.57174 0.14278,-1.64513 0.30324,-2.24866 0.57056,-2.14607 0.51483,0.19755 0.83373,-1.25683 0.4378,-1.99664 -0.17636,-0.32954 -0.44823,-0.52032 -0.60415,-0.42396 -0.15592,0.0964 -0.28144,-0.20207 -0.27892,-0.66318 0.003,-0.63362 0.0724,-0.73116 0.28224,-0.39934 0.42603,0.67366 0.69744,0.15987 0.72911,-1.38025 0.018,-0.87397 -0.1109,-1.44314 -0.34437,-1.52104 -0.2052,-0.0685 -0.37309,-0.37071 -0.37309,-0.67166 0,-0.30095 0.16789,-0.60315 0.37309,-0.67154 0.51732,-0.17245 0.51732,-4.15531 0,-4.32775 -0.4842,-0.16141 -0.4842,-1.18167 0,-1.34321 0.52464,-0.17504 0.43753,-2.88866 -0.10393,-3.23739 -0.35653,-0.22963 -0.35377,-0.31101 0.0186,-0.55046 0.55539,-0.35708 0.6195,-3.64484 0.0746,-3.82646 -0.5047,-0.16824 -0.5047,-5.04781 0,-5.21604 0.49802,-0.16601 0.47423,-3.30975 -0.0296,-3.91688 -0.32708,-0.3941 -0.31294,-0.55152 0.0853,-0.94974 0.60892,-0.60892 0.6057,-1.31248 -0.01,-2.19156 -0.40078,-0.57219 -0.41593,-0.73998 -0.0853,-0.94434 0.56911,-0.35173 0.54707,-3.51193 -0.027,-3.86671 -0.30882,-0.19085 1.32535,-1.11239 5.83073,-3.28804 3.4429,-1.66257 6.36254,-3.04636 6.48809,-3.07508 0.12556,-0.0287 1.94237,3.57414 4.03735,8.00635 3.8329,8.10898 5.71435,11.74871 7.63463,14.76951 0.69139,1.08761 0.92898,1.70605 0.70793,1.84267 -0.3672,0.22694 -0.12467,0.62524 1.36557,2.24256 0.47996,0.52089 1.05722,0.87589 1.28324,0.78916 0.22596,-0.0867 0.87594,0.25071 1.44441,0.74983 2.93027,2.57282 5.74187,3.45299 11.05589,3.46105 6.36684,0.01 4.84172,0.63788 57.1541,-23.54276 10.91525,-5.04541 20.18071,-9.19429 20.58991,-9.21973 0.66952,-0.0416 0.95506,0.37205 2.85228,4.13226 2.45418,4.86409 5.40453,11.51244 7.08242,15.95963 l 1.17927,3.12562 -0.67761,0.45597 c -2.25285,1.51596 -76.5695,36.10575 -89.15947,41.4982 -0.86681,0.37127 -1.6503,0.60075 -1.74109,0.50997 -0.0908,-0.0908 0.12731,-1.21714 0.48466,-2.503 1.13052,-4.06804 0.77774,-6.39578 -1.50445,-9.92678 -2.23949,-3.46493 -5.34912,-5.75979 -8.35981,-6.1694 -1.20006,-0.16328 -1.89985,0.0366 -6.11855,1.74755 -9.39799,3.81149 -30.48901,13.33426 -69.232063,31.25888 -31.335774,14.49761 -48.15325,22.08928 -48.933332,22.08928 -0.227132,0 -0.467063,-0.16228 -0.53318,-0.36064 z m 58.518402,-38.87204 c 0.12991,-1.10628 -0.19154,-2.32363 -0.55437,-2.09938 -0.45132,0.27893 -0.37149,3.20507 0.0834,3.05571 0.2052,-0.0674 0.41715,-0.49772 0.47101,-0.95633 z m 14.82535,-7.47717 c 0,-0.88876 -0.14323,-1.49033 -0.37308,-1.56694 -0.2692,-0.0897 -0.37308,0.34655 -0.37308,1.56694 0,1.22039 0.10388,1.65668 0.37308,1.56694 0.22985,-0.0766 0.37308,-0.67818 0.37308,-1.56694 z m 86.06681,-4.29212 c 3.30693,-1.02924 6.14332,-3.78038 6.94211,-6.73344 0.18024,-0.66634 0.26742,-2.16071 0.19373,-3.32083 -0.22899,-3.60498 -2.08579,-6.21579 -5.5894,-7.85911 -1.40236,-0.65776 -2.06548,-0.77564 -4.34137,-0.77172 -3.44111,0.006 -5.21134,0.73795 -7.29328,3.01592 -1.93712,2.11952 -2.53985,3.9213 -2.32492,6.95001 0.49587,6.98757 5.86327,10.75771 12.41313,8.71917 z m -85.97305,-1.83729 c -0.13673,-1.87518 -0.83992,-1.92855 -0.83992,-0.0637 0,0.8071 0.0918,1.55924 0.20395,1.67141 0.41794,0.41794 0.72675,-0.36269 0.63597,-1.60766 z m 114.25372,-11.17537 c 3.1128,-0.9244 6.42405,-4.02325 6.82314,-6.38547 0.1101,-0.65167 0.39162,-1.25832 0.6256,-1.34811 0.60387,-0.23172 0.52668,-1.48752 -0.17152,-2.79021 -0.32831,-0.61256 -0.59693,-1.33437 -0.59693,-1.60403 0,-0.73721 -0.85789,-2.64309 -1.66753,-3.70459 -2.31253,-3.03188 -9.26251,-3.92513 -13.33363,-1.71371 -2.29756,1.24803 -3.79646,3.92107 -3.8005,6.77757 -0.002,1.06166 -0.041,1.12251 -0.40519,0.62445 -0.38041,-0.52025 -0.41492,-0.50643 -0.60262,0.24142 -0.27377,1.09079 0.0762,2.36272 0.59527,2.16353 0.2926,-0.11229 0.41087,0.10014 0.41087,0.73794 0,1.43342 0.70216,2.71616 2.30257,4.20649 3.14022,2.92422 6.32881,3.83163 9.82047,2.79472 z"
       id="path234" /><path
       style="fill:#ffffff;stroke:none;stroke-width:2.77573"
       d="m 72.587061,310.26506 c -4.271545,-4.6075 -10.409122,-8.27731 -16.624777,-9.94036 -2.372325,-0.63474 -3.493507,-0.75877 -6.864706,-0.75946 -4.604503,-9.3e-4 -6.258642,0.30807 -12.237087,2.28591 -2.216106,0.73315 -4.667254,1.42819 -5.446995,1.54453 -1.414521,0.21105 -1.417712,0.20958 -1.417712,-0.65558 0,-0.75938 0.213224,-0.97133 1.716177,-1.70596 2.570651,-1.2565 5.275688,-3.2836 8.39251,-6.28917 4.825687,-4.65343 6.316792,-7.24579 9.158632,-15.92273 l 1.653007,-5.04709 13.208018,-6.10131 13.208019,-6.10131 1.906974,3.65323 1.90697,3.65322 -2.996925,3.11152 c -3.987048,4.13949 -4.877696,5.86466 -4.871264,9.43554 0.0058,3.24019 0.386993,9.05799 1.356463,20.70435 0.420588,5.05257 0.72291,9.58721 0.671825,10.07698 -0.09073,0.86987 -0.153713,0.82488 -2.719129,-1.94231 z"
       id="path235" /><path
       style="fill:#ffffff;stroke:none;stroke-width:2.77573"
       d="m 103.11984,471.46586 c -2.52057,-0.54984 -4.608769,-1.86834 -7.022249,-4.43388 -1.773783,-1.88554 -2.535237,-3.02449 -3.998842,-5.9813 -6.463278,-13.05727 -11.717528,-40.60332 -12.481279,-65.43464 -0.332836,-10.82125 -0.392005,-25.32259 -0.104496,-25.6101 0.169996,-0.16999 0.218702,-1.75462 0.119963,-3.90288 -0.197956,-4.30692 0.338356,-13.25118 0.953644,-15.90425 0.24102,-1.03926 0.844545,-2.69449 1.341165,-3.67829 1.190418,-2.3582 1.740245,-4.56372 2.004395,-8.04021 0.119346,-1.57071 0.264254,-2.55165 0.322018,-2.17986 0.05777,0.37178 0.229734,0.5989 0.382154,0.5047 0.361644,-0.22351 0.362168,-5.50843 5.46e-4,-5.50843 -0.15212,0 -0.338004,0.23505 -0.413076,0.52232 -0.07507,0.28727 -0.141472,-0.3507 -0.147554,-1.41771 -0.0061,-1.06702 0.05696,-1.77131 0.140102,-1.56509 0.344945,0.85561 0.697109,-0.0877 0.697109,-1.86727 0,-1.77957 -0.352164,-2.72287 -0.697109,-1.86726 -0.08314,0.20621 -0.161765,-0.3389 -0.174725,-1.21136 -0.05573,-3.75159 -0.687043,-15.44918 -1.243307,-23.03711 -0.330939,-4.51429 -0.681283,-10.89915 -0.778542,-14.18857 l -0.176835,-5.98077 1.369384,-1.20538 c 1.653907,-1.45583 6.437357,-4.0817 12.925364,-7.09535 7.29615,-3.38904 11.23001,-5.03481 12.0632,-5.04675 0.4143,-0.006 1.8917,0.49796 3.28312,1.11978 5.34129,2.38701 7.38031,3.13064 9.54378,3.48063 1.23117,0.19917 2.34589,0.54145 2.47717,0.76062 0.24494,0.40895 1.88059,0.54004 2.71985,0.21799 0.25871,-0.0993 0.39852,-0.2968 0.31067,-0.43895 -0.0879,-0.14214 0.14796,-0.31466 0.52403,-0.38337 3.44343,-0.62917 6.93612,-1.67342 11.0387,-3.30035 5.36526,-2.12766 7.37981,-2.74911 8.06251,-2.48714 1.01411,0.38916 2.40988,13.29311 2.44778,22.62977 l 0.0274,6.73625 -1.25414,2.53268 c -0.76243,1.5397 -3.0932,4.98358 -5.94486,8.78395 -11.80836,15.73689 -18.9324,28.9298 -24.73075,45.79857 -4.94831,14.39577 -8.81113,33.67366 -9.89679,49.39113 -0.1344,1.94585 -0.35356,3.12806 -0.63137,3.40587 -0.2987,0.2987 -0.35853,0.70027 -0.20077,1.3474 0.31094,1.27544 0.33066,13.24702 0.0237,14.37859 -0.18343,0.67619 -0.13298,1.03807 0.18975,1.36079 0.25153,0.25153 0.58964,1.58138 0.79022,3.10813 1.07238,8.16234 3.44903,15.36398 6.47064,19.6071 1.03778,1.45731 1.23395,1.88908 0.71161,1.56625 -0.72301,-0.44685 -0.1942,0.57415 0.92785,1.79143 0.78634,0.85308 1.45562,1.31416 1.86541,1.28514 0.3515,-0.0249 1.2578,0.37727 2.01401,0.89369 1.86683,1.27489 3.6165,1.98961 6.37063,2.60235 2.77864,0.61818 4.33561,0.48638 8.99162,-0.76117 5.79734,-1.55336 8.26251,-1.7907 21.61565,-2.08109 16.11256,-0.35039 16.64565,-0.44446 19.58591,-3.45605 2.76657,-2.83369 4.06118,-6.6617 3.4221,-10.11877 -0.29621,-1.60238 -2.0507,-5.26681 -2.71962,-5.68023 -0.16016,-0.099 -0.2912,-0.3228 -0.2912,-0.49736 0,-0.20905 0.14376,-0.19809 0.42113,0.0321 0.32246,0.26762 0.4731,0.26541 0.64297,-0.009 0.2131,-0.34479 -0.11195,-0.68706 -4.22167,-4.44548 -1.74231,-1.59336 -4.33309,-5.00409 -6.00793,-7.90933 -4.45911,-7.73497 -5.76717,-16.94866 -3.83477,-27.01113 1.42174,-7.40332 0.89223,-10.61899 -2.50264,-15.19842 -0.8101,-1.09276 -1.73522,-2.22423 -2.05582,-2.51437 -0.3206,-0.29014 -0.52115,-0.76368 -0.44567,-1.05231 0.0964,-0.3687 -0.62759,-1.21915 -2.43413,-2.85925 -5.11477,-4.64355 -7.69541,-9.55875 -8.11698,-15.45999 -0.14486,-2.02779 -0.10064,-2.61158 0.19781,-2.61158 0.29431,0 0.33801,-0.45255 0.18651,-1.93133 -0.51394,-5.01634 2.77833,-14.58853 8.15046,-23.69728 3.78874,-6.42401 4.60162,-8.77916 3.58953,-10.39979 -0.92199,-1.47632 -3.33262,-2.02294 -5.03623,-1.14197 -2.44932,1.26659 -7.12108,8.15794 -10.17111,15.00351 -2.55971,5.74506 -4.47747,12.40973 -4.91851,17.09295 -0.3245,3.44563 -0.43169,3.86937 -0.93043,3.67799 -0.37384,-0.14346 -0.43895,0.0602 -0.3621,1.13282 0.0609,0.84984 0.22433,1.28161 0.46678,1.23312 0.20519,-0.041 0.37418,0.0261 0.37553,0.14923 0.0128,1.16953 0.70955,5.99167 1.08186,7.48736 0.9944,3.99487 2.9151,7.5638 6.60151,12.26654 0.82804,1.05633 1.43994,2.0915 1.35979,2.30038 -0.0802,0.20889 1.22864,1.76219 2.90844,3.45179 4.50773,4.53403 4.33781,3.89326 3.73529,14.08585 -0.59475,10.06099 -0.65662,10.76411 -0.7183,8.16256 -0.0263,-1.10805 -0.17599,-2.01464 -0.33271,-2.01464 -0.69928,0 -0.75008,4.01832 -0.0563,4.45283 0.15226,0.0954 0.42107,1.75655 0.59736,3.69152 0.24917,2.73501 0.59091,4.32684 1.53522,7.15122 2.24744,6.72189 4.61217,11.01896 8.84581,16.07414 1.29184,1.54253 2.54485,3.18529 2.78446,3.65058 0.23961,0.4653 0.86677,1.22451 1.39369,1.68715 1.88434,1.65447 2.322,3.33529 1.30345,5.00584 -1.3668,2.24174 -2.78918,2.49253 -9.70174,1.71061 -4.60086,-0.52043 -12.63139,-0.5757 -16.92621,-0.11651 -1.68904,0.18059 -5.08562,0.84015 -7.54796,1.4657 -5.61475,1.4264 -7.15127,1.62681 -9.20459,1.20054 -5.19059,-1.07756 -9.08464,-7.17141 -11.10434,-17.37732 -0.27,-1.36431 -0.52043,-3.82975 -0.55652,-5.47874 -0.0361,-1.649 -0.16225,-3.15452 -0.28034,-3.3456 -0.11809,-0.19108 -0.0506,-0.61018 0.14994,-0.93132 0.28866,-0.46222 0.2842,-0.82769 -0.0214,-1.75373 -0.27199,-0.82413 -0.32712,-2.00022 -0.18654,-3.97984 0.10974,-1.5455 0.18453,-3.84969 0.16618,-5.12042 -0.0397,-2.75139 0.65364,-9.55552 1.66134,-16.30305 3.97155,-26.5934 12.56512,-50.49154 24.69951,-68.6877 2.38673,-3.57903 4.15288,-5.94108 8.70358,-11.64016 5.48022,-6.86317 7.17062,-9.65169 7.64808,-12.61643 0.62248,-3.86526 -1.19073,-23.22927 -3.07489,-32.83789 -0.74199,-3.78392 -1.81635,-5.8391 -3.76713,-7.20626 -1.15891,-0.81219 -1.49399,-0.89631 -3.43236,-0.86172 -2.43979,0.0435 -4.0504,0.55185 -10.58976,3.34209 -4.88548,2.08455 -9.1017,3.61959 -9.94177,3.61959 -0.31746,0 -0.84114,-0.16483 -1.16373,-0.36629 -0.45101,-0.28166 -0.79733,-0.28673 -1.49884,-0.022 -1.65526,0.62479 -6.5155,-1.11735 -10.21313,-3.66088 -3.58524,-2.4662 -6.51512,-1.86478 -18.883046,3.87617 l -5.372379,2.49375 -0.717524,-1.38425 c -0.842373,-1.6251 -2.416364,-5.8353 -2.416364,-6.46342 0,-0.2446 1.014764,-0.94561 2.313108,-1.59792 5.131067,-2.57794 37.904365,-17.66338 42.257175,-19.45084 l 1.74048,-0.71472 0.56344,0.73654 c 0.30989,0.4051 1.33038,2.17852 2.26775,3.94094 2.16727,4.07487 4.13016,6.52229 5.92969,7.39343 2.34991,1.13757 2.83816,0.97557 17.75394,-5.89067 10.38422,-4.7802 12.24237,-5.57451 12.22781,-5.22705 -0.005,0.12178 -0.88525,1.43021 -1.95586,2.90762 -2.20158,3.03808 -4.03207,6.60797 -4.74427,9.25243 -0.26526,0.98494 -0.56232,3.16746 -0.66012,4.85006 -0.13174,2.26635 -0.28129,3.05928 -0.57698,3.05928 -0.49879,0 -0.83022,1.2371 -0.55974,2.0893 0.11173,0.35203 0.37334,0.57475 0.58136,0.49492 0.27802,-0.10668 0.42573,0.50038 0.5576,2.29152 0.42948,5.83366 2.97905,12.27568 6.6346,16.76372 0.71674,0.87996 1.17028,1.64422 1.00787,1.69835 -0.4962,0.1654 3.30815,4.41948 3.95228,4.41948 0.32077,0 0.50021,-0.13431 0.39876,-0.29847 -0.28806,-0.46607 0.33178,-0.35005 0.73676,0.13791 0.62315,0.75086 5.07633,3.47938 7.59637,4.65441 1.32639,0.61846 3.67187,1.46756 5.21218,1.8869 1.5403,0.41933 2.83996,0.80184 2.88813,0.85001 0.0482,0.0482 -1.52759,1.83227 -3.50169,3.96467 -6.59665,7.12561 -10.19193,12.36781 -12.4427,18.14249 -1.42649,3.65989 -1.97855,5.74868 -2.46148,9.31336 -0.21395,1.57923 -0.52825,2.78455 -0.76269,2.92487 -0.40917,0.24491 -0.54041,1.88035 -0.21827,2.71985 0.0993,0.25872 0.29396,0.40028 0.43262,0.31459 0.13866,-0.0857 0.33012,0.35158 0.42546,0.97172 0.76559,4.97981 2.25363,8.79401 5.12534,13.13754 0.95083,1.43815 1.74762,2.84705 1.77066,3.13091 0.0609,0.75045 2.16577,3.21312 2.75554,3.22395 0.56937,0.0105 2.23026,2.08391 2.745,3.42684 0.46357,1.20943 0.23349,2.39429 -1.52065,7.83124 -2.54838,7.89865 -3.73143,13.85912 -4.05792,20.44465 -0.10376,2.09299 -0.30222,3.80544 -0.44102,3.80544 -0.34478,0 -0.32134,3.69032 0.0257,4.04421 0.15293,0.15594 0.42853,1.69379 0.61244,3.41743 1.48206,13.89034 6.46117,26.03837 16.26863,39.69223 1.40236,1.95235 2.90071,4.22619 3.32966,5.05297 0.74698,1.43977 0.75876,1.53552 0.27896,2.26778 -0.6462,0.98622 -6.17576,3.67408 -21.21544,10.31258 -17.40959,7.68458 -16.76664,7.48583 -20.26776,6.26525 -1.28034,-0.44636 -2.50583,-0.61449 -4.47699,-0.6142 -4.92743,7e-4 -10.97309,1.86219 -24.89337,7.66479 -13.39483,5.58356 -18.07612,7.20824 -22.57093,7.83341 -1.26571,0.17605 -2.3923,0.30883 -2.50354,0.29507 -0.11124,-0.0138 -0.94096,-0.18615 -1.84381,-0.38311 z m 35.05729,-49.89263 c 6.86246,-1.78744 10.87947,-7.64583 9.71821,-14.17301 -0.94086,-5.28841 -4.90277,-9.92938 -9.81132,-11.49293 -2.5805,-0.82199 -6.50563,-0.52773 -9.0877,0.68129 -2.64747,1.23964 -5.13786,3.71673 -6.47759,6.44298 -1.73286,3.52624 -1.60472,8.07082 0.33889,12.01884 1.6163,3.28317 4.36863,5.59855 7.72828,6.50137 2.15552,0.57925 5.41439,0.58846 7.59123,0.0215 z M 119.20361,308.59528 c 0.72035,-0.16607 1.99948,-0.62825 2.8425,-1.02706 0.84329,-0.39894 1.80777,-0.65319 2.14413,-0.56523 0.46181,0.12076 0.87994,-0.16786 1.70911,-1.17976 0.60375,-0.7368 1.09773,-1.54414 1.09773,-1.7941 0,-0.24996 0.13731,-0.53933 0.30514,-0.64306 0.63131,-0.39017 2.06773,-3.72648 2.41436,-5.60773 1.08398,-5.88297 -2.46966,-12.34717 -8.36369,-15.21387 -3.55769,-1.73038 -5.74712,-1.85865 -9.17317,-0.53742 -3.07544,1.18601 -5.38478,2.84198 -6.76917,4.85398 -4.48678,6.5209 -2.71651,16.04339 3.74298,20.13394 2.68012,1.69722 6.7601,2.33877 10.05008,1.58031 z"
       id="path236" /><path
       style="fill:#ffffff;stroke:none;stroke-width:2.77573"
       d="m 103.11984,471.47182 c -2.5282,-0.56067 -4.613002,-1.87879 -7.022249,-4.43984 -3.49508,-3.71529 -6.369444,-10.09995 -9.248311,-20.54275 -5.05133,-18.32318 -7.60389,-41.07454 -7.606007,-67.79349 -3.97e-4,-5.00826 0.115507,-8.63508 0.279186,-8.73623 0.164566,-0.10171 0.210731,-1.67674 0.112056,-3.82306 -0.199302,-4.33508 0.334805,-13.27606 0.952066,-15.93764 0.24102,-1.03926 0.844545,-2.69449 1.341165,-3.67829 1.190418,-2.3582 1.740245,-4.56372 2.004395,-8.04021 0.119346,-1.57071 0.264254,-2.55165 0.322018,-2.17986 0.239113,1.53898 0.659281,0.1571 0.659281,-2.1683 0,-2.31531 -0.36722,-3.55017 -0.688953,-2.31676 -0.07546,0.28928 -0.142176,-0.34705 -0.148258,-1.41406 -0.0061,-1.06702 0.05696,-1.77131 0.140102,-1.56509 0.344945,0.85561 0.697109,-0.0877 0.697109,-1.86727 0,-1.77957 -0.352164,-2.72287 -0.697109,-1.86726 -0.08314,0.20621 -0.162647,-0.29661 -0.176684,-1.11739 -0.06601,-3.85993 -0.689138,-15.43346 -1.237353,-22.98185 -0.33382,-4.59636 -0.686376,-11.05344 -0.783459,-14.34905 l -0.176515,-5.99203 0.71478,-0.67705 c 1.248501,-1.1826 3.008695,-2.28965 6.837923,-4.30059 3.858883,-2.02653 12.853417,-6.18428 16.635527,-7.68983 l 2.16455,-0.86164 1.86473,0.72095 c 1.02561,0.39653 3.20783,1.32852 4.84939,2.0711 1.76681,0.79923 4.08073,1.56868 5.67085,1.88574 1.4774,0.29458 2.86367,0.70442 3.08059,0.91074 0.64654,0.61496 3.26816,0.39215 2.8748,-0.24432 -0.0879,-0.14214 0.21512,-0.3296 0.67326,-0.41657 3.4518,-0.65527 6.88347,-1.68946 10.98081,-3.30926 5.26109,-2.07986 7.29311,-2.70522 7.95943,-2.44953 1.0931,0.41946 2.82319,17.38328 2.58927,25.38812 -0.1173,4.01426 -0.1179,4.01712 -1.36188,6.52757 -0.73421,1.48171 -3.12637,5.03135 -5.83393,8.65678 -11.04192,14.78511 -16.5242,24.42869 -22.45287,39.49563 -6.32163,16.0656 -11.04,37.51767 -12.27604,55.81305 -0.1109,1.64156 -0.34266,3.07634 -0.51502,3.1884 -0.17236,0.11206 -0.2693,0.68287 -0.21541,1.26848 0.21582,2.34548 0.15157,13.80882 -0.0822,14.67068 -0.18619,0.68634 -0.13285,1.03819 0.20925,1.3803 0.27439,0.27438 0.59784,1.52505 0.80383,3.10812 1.06253,8.16567 3.24215,14.82573 6.37115,19.46767 1.1254,1.66955 1.27472,1.99318 0.77799,1.68618 -0.67835,-0.41924 -0.22025,0.45252 0.9163,1.7437 0.80467,0.91416 1.43441,1.36562 1.86541,1.33731 0.35785,-0.0235 1.38935,0.45243 2.2922,1.05764 0.90286,0.6052 2.71604,1.45501 4.02929,1.88845 3.44845,1.13817 6.38581,1.09781 10.91709,-0.14999 5.8395,-1.60807 8.29089,-1.85195 21.61565,-2.15046 14.41205,-0.32288 15.79204,-0.47602 18.01225,-1.99891 3.79159,-2.60074 5.91893,-7.38559 5.14499,-11.57221 -0.29621,-1.60238 -2.0507,-5.26681 -2.71962,-5.68023 -0.16016,-0.099 -0.2912,-0.3228 -0.2912,-0.49736 0,-0.20905 0.14376,-0.19809 0.42113,0.0321 0.32251,0.26766 0.47317,0.2653 0.64337,-0.0101 0.13783,-0.22302 -0.28541,-0.82364 -1.11443,-1.58144 -0.73516,-0.67201 -2.08168,-1.90464 -2.99227,-2.73917 -3.1007,-2.84174 -6.39289,-7.8301 -8.27716,-12.54162 -2.82921,-7.07428 -3.3202,-14.77261 -1.50488,-23.59522 1.37196,-6.66783 0.31929,-10.77132 -4.07546,-15.88683 -0.61877,-0.72024 -1.14402,-1.5672 -1.16722,-1.88214 -0.0232,-0.31492 -1.32466,-1.80743 -2.89214,-3.31668 -5.0097,-4.82358 -7.18044,-9.08324 -7.59645,-14.90654 -0.14333,-2.00637 -0.099,-2.61158 0.19136,-2.61158 0.28628,0 0.32906,-0.45636 0.17641,-1.88178 -0.51099,-4.77159 2.61213,-14.16051 7.49429,-22.52975 5.00855,-8.58591 5.54069,-10.40471 3.57206,-12.20882 -1.21143,-1.1102 -2.84872,-1.32432 -4.31773,-0.56466 -2.81104,1.45365 -8.10541,9.66118 -11.18347,17.33706 -2.15038,5.36248 -3.53264,10.60897 -3.93173,14.92327 -0.29421,3.18045 -0.43515,3.71986 -0.92307,3.53263 -0.32854,-0.12608 -0.42773,0.12013 -0.42773,1.06166 0,0.89061 0.12242,1.22579 0.4477,1.22579 0.24623,0 0.4477,0.0725 0.4477,0.161 0,0.0885 0.14358,1.44859 0.31905,3.02232 0.66361,5.95122 2.45564,10.24923 6.50727,15.60703 1.29804,1.7165 2.29869,3.28086 2.22367,3.47635 -0.075,0.1955 1.28138,1.80448 3.01422,3.57552 4.41009,4.50734 4.23557,3.83055 3.62565,14.05988 -0.59443,9.9695 -0.65721,10.67487 -0.71882,8.07623 -0.0263,-1.10805 -0.17599,-2.01464 -0.33271,-2.01464 -0.69659,0 -0.75086,4.01409 -0.0602,4.45283 0.15011,0.0954 0.42893,1.7851 0.6196,3.75497 0.26461,2.73381 0.62893,4.42654 1.53913,7.15122 2.24276,6.71371 4.63743,11.02082 9.00062,16.18878 1.27505,1.51024 2.31828,2.86848 2.31828,3.01833 0,0.14985 0.73783,1.06315 1.63964,2.02957 1.95836,2.09868 2.31657,3.28955 1.46419,4.86764 -0.31178,0.57723 -1.02324,1.35587 -1.58103,1.7303 -1.22556,0.82271 -2.64894,0.86249 -8.23828,0.23025 -5.07391,-0.57394 -13.21095,-0.56701 -17.66879,0.015 -1.93724,0.25294 -5.33544,0.94545 -7.55154,1.53891 -5.33909,1.42976 -8.04713,1.50635 -10.5103,0.29723 -5.10161,-2.50428 -9.34159,-12.27705 -9.62717,-22.18976 -0.048,-1.66673 -0.17496,-3.17225 -0.28209,-3.3456 -0.10713,-0.17334 -0.027,-0.58385 0.17809,-0.91224 0.29975,-0.47997 0.29534,-0.81149 -0.0225,-1.69045 -0.7129,-1.97151 -0.0594,-13.41235 1.34545,-23.55403 3.73697,-26.9777 12.61685,-52.08329 24.96673,-70.58709 2.36098,-3.53745 4.33642,-6.18084 8.81036,-11.78939 3.99203,-5.00443 6.42032,-8.63321 7.11852,-10.63776 0.6906,-1.98275 0.68,-7.00347 -0.031,-14.66622 -1.20479,-12.98492 -2.6327,-21.78713 -3.9532,-24.36917 -0.99937,-1.95411 -2.80886,-3.43723 -4.52927,-3.71233 -1.65812,-0.26515 -4.80969,0.42701 -8.01558,1.76041 -12.02353,5.00083 -13.67113,5.54598 -14.85187,4.91407 -0.60779,-0.32529 -0.97049,-0.3427 -1.6664,-0.08 -0.71773,0.27092 -1.2955,0.22326 -2.99169,-0.24678 -2.29225,-0.63522 -5.22847,-2.00532 -6.75618,-3.15258 -1.52269,-1.14349 -2.89229,-1.59338 -4.85078,-1.59338 -2.45895,0 -5.05662,0.91128 -13.129852,4.60602 l -6.713676,3.07254 -0.484214,-0.79623 c -0.722529,-1.1881 -2.653271,-6.19263 -2.653271,-6.87734 0,-0.45029 0.638231,-0.91636 2.611573,-1.9071 5.53124,-2.77701 36.98914,-17.24817 41.81811,-19.23702 l 1.89836,-0.78185 0.59811,0.73805 c 0.32896,0.40592 1.1747,1.87967 1.87942,3.275 1.74873,3.46242 3.98523,6.55063 5.50848,7.60625 1.01575,0.70392 1.57294,0.87525 2.80119,0.86137 1.82952,-0.0207 3.548,-0.68988 12.57646,-4.89738 8.16255,-3.80396 15.15281,-6.87254 15.30623,-6.71912 0.0639,0.0639 -0.90795,1.59742 -2.1597,3.40781 -3.65388,5.28456 -4.81301,8.37312 -5.13946,13.69433 -0.1382,2.25285 -0.29234,3.05928 -0.58472,3.05928 -0.21837,0 -0.47888,0.32608 -0.57891,0.72462 -0.24912,0.99258 0.11926,2.04509 0.64516,1.84329 0.32642,-0.12526 0.42073,0.16358 0.42073,1.28853 0,5.10669 2.98387,13.12923 6.51144,17.5069 0.79247,0.98345 1.38964,1.94175 1.32703,2.12956 -0.0626,0.18781 0.76455,1.2577 1.83811,2.37754 1.44533,1.50764 2.01921,1.93424 2.21116,1.64368 0.1978,-0.29942 0.78741,-0.0135 2.48824,1.20685 3.82374,2.7434 7.11009,4.25059 12.58834,5.77327 l 1.74398,0.48474 -0.73024,0.79152 c -0.40163,0.43534 -2.10494,2.26893 -3.78513,4.07464 -8.72069,9.3722 -13.14735,17.9516 -14.19509,27.5118 -0.12727,1.16133 -0.35785,1.90353 -0.62297,2.00527 -0.24967,0.0958 -0.4209,0.58037 -0.4209,1.1911 0,1.23632 0.26755,2.02814 0.61312,1.81457 0.13866,-0.0857 0.33031,0.35158 0.42589,0.97172 0.76261,4.94811 2.34662,8.93798 5.35681,13.49295 0.91451,1.38382 1.66275,2.71309 1.66275,2.95391 0,0.65672 2.05495,3.03495 2.63155,3.04554 0.55994,0.0103 2.22996,2.07945 2.72126,3.37166 0.51304,1.34939 0.40327,1.95341 -1.34528,7.40305 -2.72506,8.49309 -3.87699,14.21994 -4.20955,20.92802 -0.10376,2.09299 -0.30222,3.80544 -0.44102,3.80544 -0.34478,0 -0.32134,3.69032 0.0257,4.04421 0.15293,0.15594 0.43068,1.69379 0.61723,3.41743 1.4886,13.7545 6.20933,25.43077 15.69397,38.81757 3.4086,4.81096 4.76455,7.1869 4.49799,7.88155 -0.41433,1.07972 -4.85018,3.26632 -22.13187,10.90965 -16.44007,7.2711 -15.98645,7.13269 -19.65829,5.99857 -5.69027,-1.75754 -11.72876,-0.28223 -30.28271,7.39862 -16.66051,6.89703 -21.73302,8.33713 -26.01847,7.38677 z m 34.85156,-49.89156 c 8.45887,-1.99435 12.41909,-10.19355 8.71079,-18.03474 -1.00739,-2.13013 -3.37714,-4.77072 -5.52212,-6.15328 -8.01543,-5.16635 -19.21903,0.56668 -19.77724,10.12028 -0.24234,4.14742 0.93697,7.59991 3.58606,10.49844 0.8309,0.90913 2.06691,1.97891 2.7467,2.3773 2.67318,1.56658 6.68792,2.03321 10.25581,1.192 z M 120.37327,308.14437 c 1.2574,-0.4221 2.44984,-0.90328 2.64988,-1.06929 0.20003,-0.16602 0.64247,-0.21337 0.9832,-0.10522 0.72251,0.22931 2.08955,-1.06558 2.96531,-2.80881 0.29546,-0.58813 0.88755,-1.67854 1.31575,-2.42314 3.85314,-6.70027 0.54787,-15.55014 -7.20989,-19.30457 -3.16514,-1.53179 -5.45728,-1.67253 -8.59595,-0.52779 -1.23668,0.45104 -3.00955,1.32948 -3.93971,1.95209 -5.43243,3.63624 -7.22572,11.51957 -4.05993,17.84759 2.98888,5.97443 9.4621,8.59736 15.89134,6.43914 z"
       id="path237" /><path
       style="fill:#ffffff;stroke:none;stroke-width:2.77573"
       d="m 115.45847,299.67495 c -1.44901,-0.34974 -2.86534,-1.28766 -3.6075,-2.38895 -1.43306,-2.12651 -0.40048,-5.30362 2.13154,-6.5585 1.34972,-0.66893 1.58609,-0.69784 3.10314,-0.37964 2.56081,0.53713 3.64365,1.879 3.64365,4.51521 0,1.95049 -0.75586,3.8148 -1.75317,4.32413 -1.11601,0.56995 -2.42506,0.75146 -3.51766,0.48775 z"
       id="path238" /><path
       style="fill:#ffffff;stroke:none;stroke-width:2.77573"
       d="m 132.1601,413.08836 c -1.28099,-0.78106 -1.8799,-2.04159 -1.8799,-3.95659 0,-2.78639 1.49216,-4.65704 3.92057,-4.91501 1.07799,-0.11451 1.54251,0.0158 2.69413,0.75583 1.68521,1.08289 3.05139,3.21304 2.77275,4.32325 -0.28796,1.14729 -2.07679,3.05886 -3.51317,3.7542 -1.60528,0.7771 -2.7645,0.78822 -3.99438,0.0383 z"
       id="path239" /><path
       style="fill:#ffffff;stroke:none;stroke-width:2.77573"
       d="m 144.09864,238.11648 c -0.71762,-0.76894 -2.10219,-3.41043 -2.48227,-4.73569 -0.31717,-1.10591 -0.0601,-1.29283 5.8256,-4.23639 8.87601,-4.43906 17.62732,-8.43047 21.19105,-9.66509 2.95193,-1.02268 3.95956,-1.01173 4.80795,0.0523 1.02289,1.28282 1.42785,3.31475 0.95144,4.77385 -0.37542,1.14977 -0.53902,1.26136 -5.46093,3.72492 -7.226,3.61682 -21.71292,10.15121 -23.49982,10.5997 -0.48907,0.12274 -0.8796,-0.0277 -1.33302,-0.51356 z"
       id="path240" /><path
       style="fill:#ffffff;stroke:none;stroke-width:0.981369"
       d="m 203.85353,205.77747 c -0.50257,-0.22818 -0.66804,-0.47252 -0.66804,-0.98644 0,-1.09914 0.89629,-2.18458 1.80468,-2.18552 0.82791,-8.6e-4 1.65826,0.92995 1.75011,1.96185 0.0471,0.52962 0.0214,0.66606 -0.17161,0.90963 -0.41516,0.52391 -1.86874,0.68478 -2.71514,0.30048 z"
       id="path241" /><path
       style="fill:#ffffff;stroke:none;stroke-width:0.981369"
       d="m 232.57046,192.89039 c -0.17594,-0.0512 -0.47273,-0.24247 -0.65952,-0.4251 -0.29618,-0.28957 -0.33933,-0.40132 -0.33731,-0.87352 0.004,-0.9764 0.64773,-2.00579 1.33451,-2.13463 0.50341,-0.0944 0.82738,0.0168 1.30476,0.44811 0.48665,0.43966 0.79935,1.29742 0.68846,1.8885 -0.16153,0.86102 -1.2998,1.39656 -2.3309,1.09664 z"
       id="path242" /><path
       style="fill:#ffffff;stroke:none;stroke-width:2.77573"
       d="m 182.00463,186.11115 c -1.84181,-0.85753 -5.14863,-4.05309 -6.07669,-5.87225 l -0.6507,-1.27547 0.66865,-0.54145 c 1.72393,-1.39595 15.75496,-8.1339 52.231,-25.08224 24.2186,-11.253 25.70714,-11.93313 25.82551,-11.79997 0.0402,0.0452 0.91243,1.76099 1.93841,3.81294 1.98761,3.97522 3.27649,7.12974 3.27649,8.01917 0,0.62264 -3.42231,2.3185 -24.92187,12.34952 -33.46891,15.61554 -46.37858,21.12244 -49.49954,21.1151 -0.68178,-0.002 -1.93784,-0.32801 -2.79126,-0.72535 z"
       id="path243" /><path
       style="fill:#ffffff;stroke:none;stroke-width:2.77573"
       d="m 169.86548,167.22748 c -0.77411,-1.44306 -1.8859,-3.67929 -2.47064,-4.96939 -0.88735,-1.95777 -0.99627,-2.40786 -0.65865,-2.72189 0.59713,-0.55542 27.09842,-12.9012 60.5453,-28.2054 19.81301,-9.06578 23.86365,-10.86381 24.05132,-10.67614 0.22003,0.22003 0.64654,5.04657 0.77033,8.71734 l 0.10022,2.97186 -24.1757,11.26705 c -24.55489,11.44377 -55.42688,25.73927 -56.28388,26.06265 -0.35502,0.13397 -0.81699,-0.46766 -1.8783,-2.44608 z"
       id="path244" /><path
       style="fill:#ffffff;stroke:none;stroke-width:2.77573"
       d="m 180.44705,470.52703 c -4.02266,-1.95786 -8.40639,-4.86334 -9.07489,-6.01472 -0.19099,-0.32894 1.16771,-1.10723 6.11854,-3.50481 11.54886,-5.59284 27.60261,-12.71229 28.66514,-12.71229 0.77341,0 10.98433,9.67196 10.59104,10.03202 -0.19758,0.18088 -16.11277,7.26621 -20.34636,9.05805 -5.61061,2.37466 -11.50997,4.4887 -12.52598,4.4887 -0.36302,0 -1.90539,-0.60612 -3.42749,-1.34695 z"
       id="path245" /><path
       style="fill:#ffffff;stroke:none;stroke-width:2.77573"
       d="m 120.88286,496.48064 c -1.45294,-0.49949 -2.15788,-1.18178 -3.06647,-2.96791 -1.55781,-3.06238 -3.65333,-10.25149 -3.65333,-12.53347 0,-1.49962 0.78091,-2.13283 4.42131,-3.58515 1.91842,-0.76534 7.45016,-3.00906 12.29276,-4.98605 11.71812,-4.78393 16.01073,-6.39553 19.35832,-7.26782 3.79668,-0.9893 5.4631,-0.95515 7.67975,0.15737 2.86481,1.43782 12.69586,9.03765 12.56109,9.71026 -0.11457,0.57181 -17.52126,8.98555 -32.88369,15.89473 -12.30953,5.53616 -14.6038,6.30203 -16.70974,5.57804 z"
       id="path246" /><path
       style="fill:#ffffff;stroke:none;stroke-width:2.77573"
       d="m 261.45524,126.02706 c -0.70504,-1.72366 -0.77466,-17.36707 -0.0837,-18.80893 0.2593,-0.54111 1.38044,-1.38542 3.33468,-2.51128 2.98929,-1.72218 17.63936,-8.608717 18.30308,-8.603696 0.19934,0.0015 1.735,0.752309 3.41257,1.668446 l 3.05013,1.665706 6.41746,-3.083417 c 7.41158,-3.561067 10.59329,-5.350535 11.22351,-6.312364 0.24556,-0.374771 0.62998,-1.651917 0.85427,-2.838106 0.49044,-2.593716 1.13128,-3.394138 3.63076,-4.534924 2.9986,-1.368586 3.43444,-1.378743 5.08546,-0.118484 0.79112,0.603873 1.88717,1.221867 2.43567,1.373314 1.78234,0.492128 5.56294,-0.751879 12.50005,-4.113147 6.25544,-3.030981 8.03465,-4.638339 8.44906,-7.632976 0.12102,-0.874559 0.37826,-1.881217 0.57165,-2.237018 0.45906,-0.844627 3.7624,-2.486977 5.00219,-2.486977 0.53256,0 2.12173,0.553458 3.53148,1.229906 2.47532,1.187742 2.61106,1.217852 3.95951,0.87831 1.54718,-0.389584 8.47995,-3.595139 12.18872,-5.635784 4.29582,-2.363653 5.82008,-4.047942 5.82008,-6.431132 0,-1.813434 1.2541,-2.859086 6.73691,-5.61715 5.52282,-2.778189 6.66187,-3.022729 8.05062,-1.728367 1.10434,1.029283 7.98236,14.959939 7.56902,15.330213 -0.2225,0.199331 -36.95253,17.321829 -86.94205,40.529927 -36.98172,17.16911 -44.30329,20.54025 -44.61014,20.54025 -0.15254,0 -0.37348,-0.23504 -0.49099,-0.52232 z"
       id="path247" /><path
       style="fill:#ffffff;stroke:none;stroke-width:2.77573"
       d="m 266.09615,145.57656 c -2.00846,-4.54094 -3.29726,-8.03687 -3.29726,-8.94395 0,-0.6152 -0.0309,-0.59974 19.99719,-9.99547 43.72832,-20.51414 110.08729,-51.074224 112.94428,-52.013867 1.04238,-0.342832 1.21071,-0.327339 1.5547,0.14309 0.21216,0.290151 0.45843,1.147383 0.54726,1.90496 0.68456,5.83821 1.91226,7.822716 4.57242,7.391033 2.38434,-0.386927 2.98624,-1.808943 3.51014,-8.292854 0.24672,-3.053441 0.57396,-5.329749 0.8402,-5.844608 0.48919,-0.945993 3.72172,-2.670237 4.46867,-2.383606 0.26729,0.102571 0.58149,0.875098 0.77583,1.90756 0.77365,4.110171 1.01922,5.079607 1.55356,6.133179 0.77395,1.525996 1.78275,2.140495 3.1498,1.918651 1.16635,-0.189269 2.83205,-1.56991 3.55197,-2.944093 0.50098,-0.956265 0.54722,-3.883826 0.11569,-7.325303 -0.43614,-3.478307 -0.14318,-4.045194 2.93666,-5.682427 l 2.40433,-1.278136 0.20154,1.427369 c 0.68174,4.828246 1.90832,8.389206 3.11148,9.033119 1.82304,0.975661 4.41137,-0.268167 5.4516,-2.619783 0.5926,-1.339674 0.6005,-1.548365 0.22845,-6.034941 -0.2881,-3.474249 -0.3003,-4.806243 -0.0483,-5.27705 0.34226,-0.639523 2.23063,-1.693231 3.88454,-2.167563 0.84751,-0.243064 0.93055,-0.196181 1.21147,0.683964 0.16588,0.519704 0.56691,2.264916 0.89119,3.878248 0.69689,3.467056 1.1367,4.243709 2.63956,4.661066 1.50095,0.416828 2.29297,0.394894 3.46794,-0.09604 2.00973,-0.839717 2.42995,-3.179157 1.88589,-10.499185 l -0.24522,-3.299294 3.54461,-1.695796 c 4.83564,-2.313445 5.13822,-2.357111 6.11417,-0.882347 1.70783,2.5807 4.51493,8.727197 4.88388,10.693832 l 0.18795,1.001879 -3.0908,1.458077 c -31.45076,14.836799 -60.43544,28.373587 -119.85619,55.976736 -56.10009,26.06059 -71.81066,33.31668 -72.13577,33.31668 -0.0397,0 -0.91876,-1.91391 -1.9534,-4.25313 z M 406.90642,79.556595 c 0.12398,-1.055681 -0.16913,-2.254026 -0.5513,-2.254026 -0.16103,0 -0.29278,0.749895 -0.29278,1.666431 0,1.199506 0.10453,1.632108 0.37308,1.543927 0.20519,-0.06738 0.41715,-0.497727 0.471,-0.956332 z"
       id="path248" /><path
       style="fill:#ffffff;stroke:none;stroke-width:2.77573"
       d="m 393.52243,35.953634 c -0.17346,-0.456234 -0.27477,-2.413041 -0.22834,-4.410457 l 0.0835,-3.590372 6.56624,-3.102812 c 14.28335,-6.749455 19.6233,-8.916972 20.83402,-8.456656 1.59821,0.607636 3.78939,3.615885 3.78939,5.202409 0,0.836135 -1.0654,1.577778 -5.82008,4.051485 -5.69912,2.965066 -22.23606,10.454645 -24.13752,10.93188 -0.6545,0.164268 -0.82399,0.06676 -1.08717,-0.625477 z"
       id="path249" /><path
       style="fill:#ffffff;stroke:none;stroke-width:1.96274"
       d="m 401.74568,61.447806 c -0.38453,-0.718504 -4.27401,-9.186898 -5.43356,-11.83025 -0.63129,-1.439116 -1.09631,-2.750778 -1.03336,-2.914804 0.13666,-0.356152 3.13954,-1.786875 4.72677,-2.252071 l 1.12672,-0.330228 2.06222,4.267886 c 1.13422,2.347337 2.65246,5.588233 3.37386,7.201992 l 1.31164,2.934108 -0.59621,0.477542 c -0.56854,0.455381 -4.93514,2.834787 -5.2023,2.834787 -0.0702,0 -0.22129,-0.175032 -0.33578,-0.388962 z"
       id="path250" /><path
       style="fill:#ffffff;stroke:none;stroke-width:1.96274"
       d="m 414.81636,51.442704 c -1.99224,-4.128287 -4.13684,-9.110761 -4.49018,-10.431857 -0.25661,-0.959441 -0.25537,-0.963617 0.46511,-1.565096 0.76814,-0.641272 2.13414,-1.346322 3.05738,-1.57804 0.97976,-0.245905 1.9058,1.032774 4.38249,6.051382 2.15755,4.371914 3.12416,6.71322 3.12416,7.567283 0,1.019673 -0.49308,1.513304 -2.4496,2.452342 -1.06974,0.513425 -2.05509,0.9335 -2.18966,0.9335 -0.13458,0 -0.98944,-1.543281 -1.8997,-3.429514 z"
       id="path251" /><path
       style="fill:#ffffff;stroke:none;stroke-width:1.96274"
       d="m 430.68122,46.968838 c -0.96403,-0.870944 -2.42961,-3.461899 -4.57118,-8.081254 -1.8674,-4.027969 -2.07833,-4.902186 -1.36578,-5.660655 0.90229,-0.960446 2.40078,-1.780927 3.25259,-1.780927 1.24692,0 1.98798,0.977638 4.23039,5.580886 2.11351,4.338644 3.02525,6.510603 3.20941,7.64547 0.13676,0.842712 -0.32454,1.453232 -1.82916,2.420858 -1.25272,0.805625 -1.92867,0.776894 -2.92627,-0.124378 z"
       id="path252" /><path
       style="fill:#ffffff;stroke:none;stroke-width:1.96274"
       d="m 441.96945,35.719703 c -3.1006,-6.257461 -3.86824,-8.149876 -3.6214,-8.927607 0.18703,-0.589276 1.65607,-1.244913 2.80252,-1.250775 0.67717,-0.0035 1.02426,0.119067 1.3718,0.484287 0.2559,0.268907 1.01372,1.076162 1.68406,1.793899 0.67034,0.717738 1.34865,1.304978 1.50736,1.304978 0.32317,0 1.77579,1.520729 4.14374,4.338033 2.45626,2.922371 2.95557,3.616525 2.83237,3.937596 -0.1706,0.444572 -2.43731,1.865009 -5.10848,3.201237 -1.30392,0.652274 -2.42356,1.185953 -2.4881,1.185953 -0.0645,0 -1.47028,-2.73042 -3.12387,-6.067601 z"
       id="path253" /><path
       style="fill:#ffffff;stroke:none;stroke-width:1.96274"
       d="m 274.99165,163.74756 c -1.22327,-1.12758 -2.42446,-3.48749 -2.42446,-4.76321 v -0.93256 l 3.53504,-1.69673 c 22.90926,-10.99589 122.90178,-57.561674 169.44461,-78.909111 17.26109,-7.917005 20.48671,-9.34207 20.76142,-9.172292 0.73923,0.456874 3.22489,4.965123 3.49667,6.341929 0.12183,0.617227 0.0765,0.665955 -1.1044,1.188461 -0.67729,0.299664 -5.83755,2.703293 -11.46722,5.341397 -19.58663,9.178422 -99.76011,46.414876 -134.96455,62.684096 -36.52659,16.88022 -45.13867,20.78711 -45.82164,20.78711 -0.30716,0 -0.89051,-0.34833 -1.45547,-0.86909 z"
       id="path254" /><path
       style="fill:#ffffff;stroke:none;stroke-width:1.96274"
       d="m 282.99099,180.49794 c -1.02048,-1.01935 -3.15096,-4.8907 -3.52767,-6.41022 -0.13563,-0.54707 -0.0363,-0.60076 8.3547,-4.51589 26.03729,-12.14866 140.24392,-65.20098 165.93301,-77.080754 17.569,-8.124679 19.77811,-9.127514 20.10666,-9.127514 0.26385,0 2.2858,4.333402 2.59511,5.561766 0.39458,1.56705 0.23056,1.820057 -1.85199,2.856618 -7.31022,3.638572 -46.40317,21.972174 -104.00229,48.774434 -35.47798,16.50876 -62.93964,29.34399 -75.77033,35.41408 -7.45217,3.52556 -10.5805,4.89681 -11.17145,4.89681 -0.1628,0 -0.46239,-0.1662 -0.66575,-0.36933 z"
       id="path255" /><path
       style="fill:#ffffff;stroke:none;stroke-width:1.96274"
       d="m 270.45672,204.34071 c 0,-2.38225 0.26574,-5.14563 0.66058,-6.86919 l 0.23324,-1.01817 2.24394,-1.05784 c 9.1996,-4.33687 56.5872,-26.42222 113.36018,-52.83237 13.40676,-6.23667 34.77527,-16.18474 47.48557,-22.10682 25.86889,-12.05303 29.46961,-13.71437 34.29514,-15.82349 4.60648,-2.01338 10.11017,-4.18062 10.97171,-4.32043 0.7008,-0.11372 0.71481,-0.10032 1.0643,1.01784 0.21713,0.69468 0.39645,2.1947 0.46348,3.87698 l 0.1093,2.7439 -13.58551,6.366 c -7.47204,3.5013 -30.4429,14.26734 -51.04637,23.92453 -20.60346,9.6572 -50.32943,23.56697 -66.0577,30.91062 -42.99971,20.07686 -70.04981,32.72684 -75.32122,35.22397 -2.59929,1.23132 -4.75989,2.23876 -4.80132,2.23876 -0.0414,0 -0.0753,-1.02343 -0.0753,-2.27429 z"
       id="path256" /><path
       style="fill:#ffffff;stroke:none;stroke-width:1.96274"
       d="m 257.14892,214.59336 c -1.60495,-1.07174 -8.09477,-7.34281 -7.8511,-7.58648 0.22802,-0.22802 9.52048,-4.42145 11.08141,-5.00073 l 1.21352,-0.45035 v 0.59069 c 0,0.84474 -1.17139,7.84043 -1.68694,10.07464 -0.5996,2.59843 -0.83328,3.25785 -1.15452,3.25785 -0.15188,0 -0.87295,-0.39853 -1.60237,-0.88562 z"
       id="path257" /><path
       style="fill:#ffffff;stroke:none;stroke-width:1.96274"
       d="m 263.28112,264.3633 c 0,-0.0691 0.46397,-1.29051 1.03105,-2.71434 2.61662,-6.56985 2.85141,-8.29348 2.14162,-15.7218 -0.66491,-6.95856 -0.82959,-16.53992 -0.3474,-20.2124 0.3439,-2.61929 1.66731,-7.83108 2.09959,-8.26852 0.36054,-0.36486 22.13341,-10.46176 29.99175,-13.90832 l 3.99823,-1.75357 0.31855,0.46314 c 0.17521,0.25473 0.43429,0.55812 0.57574,0.67419 0.46029,0.37771 -1.90833,10.86174 -2.64768,11.71921 -0.39965,0.4635 -4.10265,2.4409 -12.36343,6.60205 -9.23414,4.65147 -11.69178,6.44269 -13.27101,9.67244 -1.39534,2.85366 -1.81885,5.76175 -1.81885,12.48955 0,4.9403 -0.12172,6.28469 -0.554,6.11881 -0.23076,-0.0885 -0.29018,0.22205 -0.29018,1.51666 0,1.42161 0.0438,1.61118 0.34582,1.4953 0.31178,-0.11964 0.33112,0.0676 0.19648,1.90177 -0.1991,2.71239 -0.7626,4.46487 -1.87406,5.82833 -1.02607,1.2587 -3.3443,2.91324 -4.93471,3.52194 -1.21122,0.46356 -2.59751,0.77074 -2.59751,0.57556 z"
       id="path258" /><path
       style="fill:#ffffff;stroke:none;stroke-width:1.96274"
       d="m 311.26433,210.51733 c -0.20145,-0.52496 0.0811,-2.41044 1.04032,-6.94132 l 0.88908,-4.19975 6.75351,-3.15106 c 16.7726,-7.82578 25.91054,-11.9958 29.54658,-13.48334 l 1.47733,-0.6044 0.63314,0.71217 c 0.72223,0.81237 2.39795,4.10739 2.95533,5.81116 l 0.37475,1.14553 -0.50428,0.40935 c -1.17638,0.95492 -11.43101,5.90918 -31.63372,15.28302 -5.62968,2.61211 -10.49865,4.8849 -10.81995,5.05065 -0.51674,0.26658 -0.59893,0.26289 -0.71209,-0.032 z"
       id="path259" /><path
       style="fill:#ffffff;stroke:none;stroke-width:1.96274"
       d="m 363.75808,186.22466 c -1.13166,-1.43866 -4.66162,-9.23817 -4.66162,-10.29991 0,-0.43716 1.88778,-1.67244 5.30115,-3.46883 l 2.87411,-1.5126 1.45235,1.95014 c 1.55955,2.09406 2.87826,3.19345 3.81979,3.18449 0.32297,-0.003 1.50509,-0.35224 2.62694,-0.77592 4.63703,-1.75126 18.87522,-8.32782 24.22221,-11.18814 4.08826,-2.18697 4.69556,-3.13298 4.24633,-6.61472 -0.29759,-2.30654 -0.14628,-2.79098 1.14879,-3.67783 1.23252,-0.84403 4.7167,-2.33765 5.71606,-2.4504 1.24385,-0.14034 1.88042,0.2773 4.00968,2.63072 1.02886,1.13717 1.88086,2.0911 1.89333,2.11985 0.0952,0.21941 15.85558,-6.87636 21.09321,-9.49677 5.74737,-2.87544 5.81582,-2.94964 6.0425,-6.55137 0.18564,-2.94963 0.38722,-3.65471 1.29536,-4.5309 0.98483,-0.95018 3.72428,-2.19545 4.86777,-2.21274 1.10447,-0.0167 2.18446,0.57449 2.7239,1.49106 0.20201,0.34324 0.69858,0.91494 1.10349,1.27045 2.10714,1.8501 4.78377,1.03799 17.99831,-5.46086 6.20572,-3.05194 8.07332,-4.05917 8.07589,-4.35545 0.002,-0.21197 0.0954,-1.52505 0.20801,-2.91796 0.35607,-4.40573 0.70569,-5.17065 2.3633,-5.17065 1.1213,0 1.48033,0.62839 1.60675,2.81219 0.0911,1.57351 0.0701,1.69683 -0.24448,1.43576 -0.46164,-0.38313 -0.60719,7.5e-4 -0.52003,1.37161 0.0526,0.82775 0.13745,1.0227 0.43471,0.9991 0.27242,-0.0216 0.36934,0.12894 0.36934,0.57376 0,0.44935 -0.0807,0.5721 -0.31657,0.48159 -0.24433,-0.0938 -0.32516,0.0643 -0.3542,0.69252 -0.0563,1.21727 -0.0511,1.34871 0.10204,2.6225 0.20325,1.69007 -0.42503,2.6028 -2.576,3.74224 -10.54809,5.58769 -114.68737,53.859 -116.194,53.859 -0.16185,0 -0.48965,-0.24837 -0.72842,-0.55193 z"
       id="path260" /></g></svg>
