<?xml version="1.0" encoding="UTF-8" standalone="no"?>
<!-- Created with Inkscape (http://www.inkscape.org/) -->

<svg
   version="1.1"
   id="svg1"
   width="505.76028"
   height="471.07559"
   viewBox="0 0 505.76028 471.07559"
   xml:space="preserve"
   xmlns="http://www.w3.org/2000/svg"
   xmlns:svg="http://www.w3.org/2000/svg"><defs
     id="defs1" /><g
     id="g1"
     transform="translate(-2.3253362,-20.617628)"><g
       id="g205"
       transform="matrix(1.0464091,0,0,1.0464091,-10.726696,-72.165129)"><path
         style="fill:#d0d0d0;fill-opacity:1"
         d="m 106.20754,525.3824 c 0.47213,-0.12338 1.2447,-0.12338 1.71682,0 0.47213,0.12338 0.0858,0.22433 -0.85841,0.22433 -0.94425,0 -1.33053,-0.10095 -0.85841,-0.22433 z m -69.156484,-0.50438 c 0.74562,-0.11275 1.849289,-0.10973 2.452597,0.007 0.603308,0.11643 -0.0067,0.20868 -1.355673,0.20499 -1.348928,-0.004 -1.842544,-0.0989 -1.096924,-0.21169 z m 22.342545,-20.09439 c 0.354093,-0.14169 0.777166,-0.12427 0.940162,0.0387 0.162995,0.16299 -0.126718,0.27893 -0.643807,0.25763 -0.571427,-0.0235 -0.687659,-0.13977 -0.296355,-0.29636 z M 112.86021,390.49262 c 0.3541,-0.1417 0.77717,-0.12427 0.94016,0.0387 0.163,0.163 -0.12671,0.27893 -0.6438,0.25763 -0.57143,-0.0235 -0.68766,-0.13976 -0.29636,-0.29635 z m 27.20251,-12.26783 c 0.47726,-0.12437 1.13946,-0.11619 1.47155,0.0182 0.3321,0.13436 -0.0584,0.23612 -0.86774,0.22612 -0.80936,-0.01 -1.08107,-0.11993 -0.60381,-0.2443 z m -74.782887,-1.95723 c 0.354094,-0.1417 0.777167,-0.12427 0.940162,0.0387 0.162996,0.163 -0.126717,0.27893 -0.643806,0.25763 -0.571427,-0.0235 -0.687659,-0.13977 -0.296356,-0.29635 z M 251.18668,268.35329 c 0.35409,-0.14169 0.77716,-0.12427 0.94016,0.0387 0.16299,0.163 -0.12672,0.27893 -0.64381,0.25763 -0.57143,-0.0235 -0.68766,-0.13977 -0.29635,-0.29636 z m 49.35424,-26.39822 c 3.4e-4,-6.20507 0.0706,-8.67587 0.15621,-5.49067 0.0856,3.1852 0.0853,8.26208 -6.3e-4,11.28195 -0.0859,3.01986 -0.15593,0.41379 -0.15558,-5.79128 z m -50.85646,-23.15533 c 0.60702,-0.11691 1.60032,-0.11691 2.20734,0 0.60702,0.11692 0.11036,0.21258 -1.10367,0.21258 -1.21404,0 -1.71069,-0.0957 -1.10367,-0.21258 z m 94.43432,0.006 c 0.47726,-0.12436 1.13946,-0.11619 1.47155,0.0182 0.3321,0.13436 -0.0584,0.23612 -0.86774,0.22612 -0.80936,-0.01 -1.08107,-0.11993 -0.60381,-0.2443 z m 13.48566,-13.25102 c 0.61017,-0.11733 1.4931,-0.11287 1.96208,0.01 0.46898,0.12277 -0.0303,0.21877 -1.10939,0.21332 -1.07914,-0.005 -1.46285,-0.10589 -0.85269,-0.22322 z m -9.81039,-5.88623 c 0.61017,-0.11733 1.4931,-0.11288 1.96208,0.01 0.46898,0.12277 -0.0302,0.21877 -1.10939,0.21332 -1.07914,-0.005 -1.46285,-0.10589 -0.85269,-0.22322 z m 46.62428,-24.02361 c 0.3541,-0.14169 0.77717,-0.12427 0.94017,0.0387 0.16299,0.16299 -0.12672,0.27893 -0.64381,0.25763 -0.57143,-0.0235 -0.68766,-0.13977 -0.29636,-0.29636 z m 6.3461,-0.0198 c 0.8768,-0.10881 2.31157,-0.10881 3.18837,0 0.87681,0.10881 0.15942,0.19784 -1.59418,0.19784 -1.75361,0 -2.471,-0.089 -1.59419,-0.19784 z m 24.78056,0.0149 c 0.47726,-0.12437 1.13946,-0.11619 1.47156,0.0182 0.3321,0.13437 -0.0584,0.23612 -0.86774,0.22613 -0.80936,-0.01 -1.08108,-0.11993 -0.60382,-0.2443 z m 2.93378,0.002 c 0.47213,-0.12338 1.2447,-0.12338 1.71682,0 0.47213,0.12338 0.0858,0.22432 -0.85841,0.22432 -0.94425,0 -1.33053,-0.10094 -0.85841,-0.22432 z m 12.01773,-0.021 c 1.14659,-0.10327 3.02282,-0.10327 4.16941,0 1.14659,0.10327 0.20847,0.18777 -2.08471,0.18777 -2.29317,0 -3.23129,-0.0845 -2.0847,-0.18777 z m 25.7616,0.0192 c 0.47726,-0.12437 1.13946,-0.11619 1.47156,0.0182 0.3321,0.13437 -0.0584,0.23612 -0.86775,0.22613 -0.80935,-0.01 -1.08107,-0.11993 -0.60381,-0.2443 z m -54.21173,-12.77274 c 1.14659,-0.10327 3.02283,-0.10327 4.16942,0 1.14659,0.10327 0.20847,0.18777 -2.08471,0.18777 -2.29318,0 -3.2313,-0.0845 -2.08471,-0.18777 z m -190.81203,-0.49683 c 2.49551,-0.089 6.57909,-0.089 9.07461,0 2.49551,0.089 0.45373,0.16186 -4.53731,0.16186 -4.99103,0 -7.03282,-0.0728 -4.5373,-0.16186 z m -59.58714,-6.01128 c 0,-1.21404 0.0957,-1.71069 0.21258,-1.10367 0.11692,0.60702 0.11692,1.60032 0,2.20734 -0.11692,0.60701 -0.21258,0.11036 -0.21258,-1.10367 z m -57.89118,-6.62201 c 0.005,-1.07915 0.10589,-1.46286 0.22322,-0.85269 0.11733,0.61016 0.11288,1.4931 -0.01,1.96207 -0.12277,0.46898 -0.21877,-0.0302 -0.21332,-1.10938 z m 141.02897,0.38885 c 0.61016,-0.11733 1.49309,-0.11287 1.96207,0.01 0.46898,0.12277 -0.0302,0.21877 -1.10938,0.21333 -1.07915,-0.005 -1.46286,-0.1059 -0.85269,-0.22323 z m 8.5877,-13.23702 c 0.47726,-0.12437 1.13946,-0.11619 1.47156,0.0182 0.3321,0.13437 -0.0584,0.23612 -0.86774,0.22613 -0.80936,-0.01 -1.08108,-0.11993 -0.60382,-0.2443 z m -143.21162,-14.1304 c 0.003,-1.61871 0.0943,-2.22178 0.20349,-1.34014 0.10917,0.88163 0.10692,2.20604 -0.005,2.94311 -0.11193,0.73708 -0.20125,0.0157 -0.19849,-1.60297 z m 170.1876,-5.01192 c 0.74562,-0.11275 1.84928,-0.10974 2.45259,0.007 0.60331,0.11643 -0.007,0.20867 -1.35567,0.20499 -1.34893,-0.004 -1.84254,-0.0989 -1.09692,-0.21169 z m 30.65643,-1.95702 c 0.61016,-0.11732 1.4931,-0.11287 1.96208,0.01 0.46898,0.12278 -0.0302,0.21877 -1.10939,0.21333 -1.07914,-0.005 -1.46285,-0.1059 -0.85269,-0.22323 z m 88.05185,-13.72754 c 0.47726,-0.12437 1.13946,-0.11619 1.47155,0.0182 0.3321,0.13436 -0.0584,0.23612 -0.86774,0.22612 -0.80936,-0.01 -1.08107,-0.11993 -0.60381,-0.2443 z M 106.97398,101.5766 c 0.35409,-0.1417 0.77717,-0.12427 0.94016,0.0387 0.163,0.163 -0.12672,0.27893 -0.6438,0.25763 -0.57143,-0.0235 -0.68766,-0.13977 -0.29636,-0.29635 z"
         id="path212" /><path
         style="fill:#b9b9b9;fill-opacity:1"
         d="m 61.579616,538.13411 c 0.477259,-0.12437 1.139461,-0.11619 1.471558,0.0182 0.332098,0.13437 -0.05839,0.23612 -0.867744,0.22613 -0.809357,-0.01 -1.081073,-0.11994 -0.603814,-0.2443 z m 40.213254,-12.76492 c 0.74191,-0.11239 1.95595,-0.11239 2.69786,0 0.74191,0.11239 0.13489,0.20435 -1.34893,0.20435 -1.48382,0 -2.09084,-0.092 -1.34893,-0.20435 z m -67.682339,-0.47911 c 0.477259,-0.12437 1.139461,-0.11619 1.471558,0.0182 0.332098,0.13436 -0.05839,0.23612 -0.867744,0.22612 -0.809357,-0.01 -1.081073,-0.11993 -0.603814,-0.2443 z m 6.376752,-7.35779 c 0.477259,-0.12437 1.13946,-0.11619 1.471558,0.0182 0.332097,0.13436 -0.05839,0.23612 -0.867744,0.22612 -0.809357,-0.01 -1.081074,-0.11993 -0.603814,-0.2443 z m 4.895858,0.002 c 0.472125,-0.12338 1.244693,-0.12338 1.716818,0 0.472125,0.12338 0.08584,0.22433 -0.858409,0.22433 -0.94425,0 -1.330534,-0.10095 -0.858409,-0.22433 z m 10.307651,-12.76736 c 0.74562,-0.11275 1.849289,-0.10974 2.452597,0.007 0.603309,0.11643 -0.0067,0.20868 -1.355672,0.205 -1.348929,-0.004 -1.842545,-0.099 -1.096925,-0.21169 z M 131.95981,390.99336 c 0.33723,-0.13608 0.88907,-0.13608 1.2263,0 0.33723,0.13607 0.0613,0.24741 -0.61315,0.24741 -0.67446,0 -0.95038,-0.11134 -0.61315,-0.24741 z m 5.65031,-12.76857 c 0.47726,-0.12437 1.13946,-0.11619 1.47156,0.0182 0.33209,0.13436 -0.0584,0.23612 -0.86775,0.22612 -0.80935,-0.01 -1.08107,-0.11993 -0.60381,-0.2443 z m -21.31627,-0.48567 c 0.35409,-0.1417 0.77716,-0.12428 0.94016,0.0387 0.163,0.163 -0.12672,0.27893 -0.64381,0.25763 -0.57142,-0.0235 -0.68766,-0.13977 -0.29635,-0.29635 z m -35.317397,-0.98104 c 0.354094,-0.1417 0.777167,-0.12427 0.940162,0.0387 0.162996,0.163 -0.126717,0.27893 -0.643806,0.25763 -0.571427,-0.0235 -0.687659,-0.13977 -0.296356,-0.29635 z M 252.62758,268.36351 c 0.33723,-0.13607 0.88906,-0.13607 1.2263,0 0.33723,0.13608 0.0613,0.24741 -0.61315,0.24741 -0.67447,0 -0.95039,-0.11133 -0.61315,-0.24741 z m -4.87454,-49.55267 c 0.35409,-0.1417 0.77717,-0.12427 0.94016,0.0387 0.163,0.163 -0.12671,0.27893 -0.6438,0.25763 -0.57143,-0.0235 -0.68766,-0.13977 -0.29636,-0.29635 z m 93.91314,-0.005 c 0.47726,-0.12436 1.13946,-0.11619 1.47156,0.0182 0.33209,0.13436 -0.0584,0.23612 -0.86775,0.22612 -0.80935,-0.01 -1.08107,-0.11993 -0.60381,-0.2443 z m -56.14315,-0.48567 c 0.3541,-0.1417 0.77717,-0.12427 0.94016,0.0387 0.163,0.163 -0.12671,0.27893 -0.6438,0.25763 -0.57143,-0.0235 -0.68766,-0.13976 -0.29636,-0.29635 z m 76.00863,-12.77392 c 0.88164,-0.10917 2.20604,-0.10692 2.94312,0.005 0.73708,0.11192 0.0157,0.20124 -1.60297,0.19849 -1.61872,-0.003 -2.22178,-0.0943 -1.34015,-0.2035 z m -17.17124,-5.87766 c 0.61016,-0.11733 1.4931,-0.11288 1.96208,0.01 0.46898,0.12277 -0.0302,0.21877 -1.10939,0.21332 -1.07914,-0.005 -1.46285,-0.10589 -0.85269,-0.22322 z m 28.68966,-24.05522 c 3.70956,-0.0833 9.77973,-0.0833 13.48929,0 3.70955,0.0833 0.67446,0.15151 -6.74465,0.15151 -7.4191,0 -10.45419,-0.0682 -6.74464,-0.15151 z m 23.29967,0.0205 c 0.60702,-0.11692 1.60032,-0.11692 2.20734,0 0.60702,0.11691 0.11037,0.21257 -1.10367,0.21257 -1.21403,0 -1.71068,-0.0957 -1.10367,-0.21257 z m 9.31987,0.0213 c 0.33723,-0.13607 0.88907,-0.13607 1.2263,0 0.33723,0.13608 0.0613,0.24741 -0.61315,0.24741 -0.67446,0 -0.95038,-0.11133 -0.61315,-0.24741 z m 2.94884,-0.0221 c 0.61016,-0.11733 1.4931,-0.11288 1.96207,0.01 0.46898,0.12277 -0.0302,0.21877 -1.10938,0.21332 -1.07915,-0.005 -1.46286,-0.10589 -0.85269,-0.22322 z m 6.13251,-0.005 c 0.74562,-0.11275 1.84929,-0.10974 2.4526,0.007 0.60331,0.11643 -0.007,0.20868 -1.35567,0.205 -1.34893,-0.004 -1.84255,-0.099 -1.09693,-0.21169 z m 4.19333,0.0169 c 0.3541,-0.14169 0.77717,-0.12427 0.94016,0.0387 0.163,0.16299 -0.12671,0.27893 -0.6438,0.25763 -0.57143,-0.0235 -0.68766,-0.13977 -0.29636,-0.29636 z m 2.42766,-0.0118 c 0.61016,-0.11733 1.4931,-0.11288 1.96208,0.01 0.46898,0.12277 -0.0303,0.21877 -1.10939,0.21332 -1.07914,-0.005 -1.46285,-0.10589 -0.85269,-0.22322 z m 10.29519,7.5e-4 c 0.60702,-0.11692 1.60032,-0.11692 2.20734,0 0.60701,0.11691 0.11036,0.21257 -1.10367,0.21257 -1.21404,0 -1.71069,-0.0957 -1.10367,-0.21257 z m 4.42039,-7.5e-4 c 0.61017,-0.11733 1.4931,-0.11288 1.96208,0.01 0.46898,0.12277 -0.0303,0.21877 -1.10939,0.21332 -1.07914,-0.005 -1.46285,-0.10589 -0.85269,-0.22322 z m 12.99305,-0.004 c 0.74191,-0.11239 1.95594,-0.11239 2.69785,0 0.74191,0.11239 0.1349,0.20434 -1.34893,0.20434 -1.48382,0 -2.09083,-0.092 -1.34892,-0.20434 z m 7.60305,-0.0119 c 1.68616,-0.0958 4.44533,-0.0958 6.13149,0 1.68616,0.0958 0.30657,0.17416 -3.06575,0.17416 -3.37232,0 -4.7519,-0.0784 -3.06574,-0.17416 z M 63.532358,162.86616 c 1.281482,-0.10105 3.378452,-0.10105 4.659934,0 1.281482,0.10104 0.232997,0.18372 -2.329967,0.18372 -2.562964,0 -3.611449,-0.0827 -2.329967,-0.18372 z m 340.665702,0.001 c 1.14659,-0.10327 3.02283,-0.10327 4.16942,0 1.14659,0.10327 0.20847,0.18777 -2.08471,0.18777 -2.29318,0 -3.2313,-0.0845 -2.08471,-0.18777 z m -197.6793,-0.49557 c 1.95594,-0.0931 5.15658,-0.0931 7.11253,0 1.95594,0.0931 0.35562,0.16928 -3.55627,0.16928 -3.91189,0 -5.51221,-0.0762 -3.55626,-0.16928 z m -61.31493,-0.47248 c 0.60702,-0.11692 1.60032,-0.11692 2.20734,0 0.60702,0.11691 0.11037,0.21257 -1.10367,0.21257 -1.21403,0 -1.71068,-0.0957 -1.10367,-0.21257 z M 57.744318,143.85119 c 1.68e-4,-9.44249 0.06607,-13.23591 0.146448,-8.42981 0.08038,4.80609 0.08024,12.53177 -3.05e-4,17.16817 -0.08055,4.6364 -0.146311,0.70414 -0.146143,-8.73836 z m 103.864912,15.69662 c 0.01,-0.80935 0.11993,-1.08107 0.2443,-0.60381 0.12437,0.47726 0.11619,1.13946 -0.0182,1.47156 -0.13436,0.3321 -0.23612,-0.0584 -0.22612,-0.86775 z m -57.93819,-7.39866 c 0.0235,-0.57143 0.13977,-0.68766 0.29636,-0.29636 0.14169,0.3541 0.12427,0.77717 -0.0387,0.94016 -0.16299,0.163 -0.27893,-0.12671 -0.25763,-0.6438 z m 135.71251,-2.03078 c 0.87681,-0.10881 2.31158,-0.10881 3.18838,0 0.8768,0.10881 0.15942,0.19783 -1.59419,0.19783 -1.75361,0 -2.47099,-0.089 -1.59419,-0.19783 z m -90.58473,-13.66584 c 0.0235,-0.57143 0.13977,-0.68766 0.29636,-0.29636 0.1417,0.3541 0.12427,0.77717 -0.0387,0.94016 -0.16299,0.163 -0.27892,-0.12671 -0.25763,-0.6438 z m 106.77187,0.45179 c 0.33724,-0.13607 0.88907,-0.13607 1.2263,0 0.33723,0.13608 0.0613,0.24741 -0.61315,0.24741 -0.67446,0 -0.95038,-0.11133 -0.61315,-0.24741 z M 85.070031,122.02308 c 0,-0.67446 0.111335,-0.95038 0.247411,-0.61315 0.136076,0.33724 0.136076,0.88907 0,1.2263 -0.136076,0.33723 -0.247411,0.0613 -0.247411,-0.61315 z m 24.977759,-3.71977 c 0.0235,-0.57143 0.13977,-0.68766 0.29636,-0.29636 0.1417,0.3541 0.12427,0.77717 -0.0387,0.94017 -0.16299,0.16299 -0.27892,-0.12672 -0.25763,-0.64381 z m 167.59627,-0.52924 c 0.33724,-0.13608 0.88907,-0.13608 1.2263,0 0.33724,0.13607 0.0613,0.24741 -0.61315,0.24741 -0.67446,0 -0.95038,-0.11134 -0.61315,-0.24741 z m 26.25759,-1.99838 c 1.28962,-0.10137 3.27623,-0.10015 4.41468,0.003 1.13845,0.10288 0.0833,0.18582 -2.34477,0.18433 -2.42807,-0.001 -3.35953,-0.0857 -2.06991,-0.18705 z m 26.47325,-0.46749 c 0.47212,-0.12338 1.24469,-0.12338 1.71682,0 0.47212,0.12338 0.0858,0.22433 -0.85841,0.22433 -0.94425,0 -1.33054,-0.10095 -0.85841,-0.22433 z m 6.88969,-0.0269 c 2.10317,-0.0922 5.41417,-0.0916 7.35779,0.001 1.94361,0.0929 0.22284,0.16827 -3.82395,0.16758 -4.04678,-6.9e-4 -5.63701,-0.0767 -3.53384,-0.16883 z m 16.4157,0.0181 c 0.61016,-0.11733 1.4931,-0.11288 1.96207,0.01 0.46898,0.12278 -0.0302,0.21877 -1.10938,0.21333 -1.07915,-0.005 -1.46286,-0.1059 -0.85269,-0.22322 z m 3.91843,0.0221 c 0.33724,-0.13608 0.88907,-0.13608 1.2263,0 0.33723,0.13607 0.0613,0.24741 -0.61315,0.24741 -0.67446,0 -0.95038,-0.11134 -0.61315,-0.24741 z m 43.68688,-13.25424 c 0.3541,-0.1417 0.77717,-0.12427 0.94017,0.0387 0.16299,0.163 -0.12672,0.27893 -0.64381,0.25763 -0.57143,-0.0235 -0.68766,-0.13977 -0.29636,-0.29635 z m -297.27967,-0.50237 c 0.61016,-0.11733 1.49309,-0.11287 1.96207,0.01 0.46898,0.12278 -0.0302,0.21877 -1.10938,0.21333 -1.07915,-0.005 -1.46286,-0.1059 -0.85269,-0.22323 z"
         id="path211" /><path
         style="fill:#a3a3a3;fill-opacity:1"
         d="m 98.119693,525.3736 c 0.610163,-0.11733 1.493098,-0.11287 1.962077,0.01 0.46898,0.12277 -0.0302,0.21877 -1.109387,0.21333 -1.079143,-0.005 -1.462853,-0.1059 -0.85269,-0.22323 z m -66.461759,-0.48352 c 0.47726,-0.12437 1.139461,-0.11619 1.471558,0.0182 0.332098,0.13436 -0.05839,0.23612 -0.867744,0.22612 -0.809357,-0.01 -1.081073,-0.11993 -0.603814,-0.2443 z m 1.967543,-7.37902 c 1.289622,-0.10138 3.276225,-0.10015 4.414674,0.003 1.138449,0.10287 0.0833,0.18582 -2.344768,0.18433 -2.42807,-0.002 -3.359529,-0.0857 -2.069906,-0.18705 z m 9.314403,0.0212 c 0.477259,-0.12437 1.13946,-0.11619 1.471558,0.0182 0.332097,0.13436 -0.05839,0.23612 -0.867745,0.22612 -0.809357,-0.01 -1.081073,-0.11993 -0.603813,-0.2443 z m 5.637356,-0.007 c 0.610163,-0.11733 1.493098,-0.11287 1.962078,0.01 0.468979,0.12277 -0.03025,0.21877 -1.109388,0.21333 -1.079143,-0.005 -1.462853,-0.1059 -0.85269,-0.22323 z m 3.433636,-12.7535 c 0.610163,-0.11733 1.493098,-0.11288 1.962077,0.01 0.46898,0.12277 -0.03025,0.21877 -1.109387,0.21332 -1.079143,-0.005 -1.462854,-0.10589 -0.85269,-0.22322 z M 135.39345,378.23985 c 0.33723,-0.13607 0.88906,-0.13607 1.22629,0 0.33724,0.13608 0.0613,0.24741 -0.61314,0.24741 -0.67447,0 -0.95039,-0.11133 -0.61315,-0.24741 z M 97.163593,377.2486 c 0.354093,-0.1417 0.777166,-0.12427 0.940162,0.0387 0.162995,0.163 -0.126718,0.27893 -0.643807,0.25763 -0.571427,-0.0235 -0.687659,-0.13977 -0.296355,-0.29635 z m 65.860297,-20.06235 c 0.0235,-0.57143 0.13977,-0.68766 0.29635,-0.29636 0.1417,0.35409 0.12427,0.77717 -0.0387,0.94016 -0.163,0.163 -0.27893,-0.12672 -0.25763,-0.6438 z m 91.59642,-88.83296 c 0.3541,-0.14169 0.77717,-0.12427 0.94016,0.0387 0.163,0.163 -0.12671,0.27893 -0.6438,0.25763 -0.57143,-0.0235 -0.68766,-0.13977 -0.29636,-0.29636 z m -43.1657,-32.86479 c 0.35409,-0.1417 0.77716,-0.12427 0.94016,0.0387 0.16299,0.163 -0.12672,0.27893 -0.64381,0.25763 -0.57142,-0.0235 -0.68766,-0.13977 -0.29635,-0.29635 z m 34.82687,-16.67766 c 0.3541,-0.1417 0.77717,-0.12427 0.94016,0.0387 0.163,0.163 -0.12671,0.27893 -0.6438,0.25763 -0.57143,-0.0235 -0.68766,-0.13977 -0.29636,-0.29635 z m 93.16803,0.0102 c 0.33723,-0.13608 0.88906,-0.13608 1.22629,0 0.33724,0.13607 0.0613,0.24741 -0.61314,0.24741 -0.67447,0 -0.95039,-0.11134 -0.61315,-0.24741 z m -57.39077,-0.51184 c 0.60702,-0.11691 1.60032,-0.11691 2.20734,0 0.60701,0.11692 0.11036,0.21258 -1.10367,0.21258 -1.21404,0 -1.71069,-0.0957 -1.10367,-0.21258 z m 84.37505,-12.75425 c 0.61016,-0.11733 1.4931,-0.11287 1.96208,0.01 0.46898,0.12277 -0.0303,0.21877 -1.10939,0.21332 -1.07914,-0.005 -1.46285,-0.10589 -0.85269,-0.22322 z m -9.57085,-29.9385 c 1.82106,-0.0944 4.80096,-0.0944 6.62202,0 1.82105,0.0944 0.3311,0.1716 -3.31101,0.1716 -3.64211,0 -5.13206,-0.0772 -3.31101,-0.1716 z m 39.48681,-12.74892 c 1.14659,-0.10327 3.02283,-0.10327 4.16942,0 1.14659,0.10327 0.20847,0.18777 -2.08471,0.18777 -2.29318,0 -3.2313,-0.0845 -2.08471,-0.18777 z M 189.62132,162.3702 c 2.64442,-0.0884 6.83836,-0.088 9.31986,8.6e-4 2.48151,0.0888 0.31789,0.16114 -4.80804,0.16067 -5.12593,-4.8e-4 -7.15625,-0.0732 -4.51182,-0.16153 z m -65.30974,-1.59609 c 0,-0.67446 0.11134,-0.95038 0.24741,-0.61315 0.13608,0.33724 0.13608,0.88907 0,1.2263 -0.13607,0.33723 -0.24741,0.0613 -0.24741,-0.61315 z m -20.60181,-6.86727 c 0,-0.67446 0.11133,-0.95038 0.24741,-0.61315 0.13607,0.33723 0.13607,0.88907 0,1.2263 -0.13608,0.33723 -0.24741,0.0613 -0.24741,-0.61315 z m 154.0776,-17.01758 c 0.47726,-0.12437 1.13946,-0.11619 1.47155,0.0182 0.3321,0.13437 -0.0584,0.23612 -0.86774,0.22613 -0.80936,-0.01 -1.08107,-0.11993 -0.60381,-0.2443 z m 12.98942,-0.47546 c 0.33724,-0.13607 0.88907,-0.13607 1.2263,0 0.33723,0.13608 0.0613,0.24741 -0.61315,0.24741 -0.67446,0 -0.95038,-0.11133 -0.61315,-0.24741 z m -121.97797,-1.43283 c 0.0235,-0.57143 0.13977,-0.68766 0.29636,-0.29636 0.1417,0.3541 0.12427,0.77717 -0.0387,0.94017 -0.16299,0.16299 -0.27892,-0.12672 -0.25763,-0.64381 z M 57.675492,124.23042 c 0.0028,-1.61871 0.09433,-2.22178 0.203498,-1.34014 0.109171,0.88163 0.106918,2.20603 -0.005,2.94311 -0.111924,0.73708 -0.201246,0.0157 -0.198493,-1.60297 z M 85.070031,120.061 c 0,-0.67446 0.111335,-0.95038 0.247411,-0.61314 0.136076,0.33723 0.136076,0.88906 0,1.22629 -0.136076,0.33724 -0.247411,0.0613 -0.247411,-0.61315 z m 191.133129,-2.29715 c 0.3541,-0.1417 0.77717,-0.12427 0.94017,0.0387 0.16299,0.163 -0.12672,0.27893 -0.64381,0.25763 -0.57143,-0.0235 -0.68766,-0.13977 -0.29636,-0.29635 z m 49.51752,-2.46444 c 0.61017,-0.11733 1.4931,-0.11288 1.96208,0.01 0.46898,0.12278 -0.0302,0.21877 -1.10939,0.21333 -1.07914,-0.005 -1.46285,-0.1059 -0.85269,-0.22322 z m 23.29395,-0.004 c 0.74191,-0.11239 1.95595,-0.11239 2.69786,0 0.74191,0.11239 0.13489,0.20435 -1.34893,0.20435 -1.48382,0 -2.09084,-0.092 -1.34893,-0.20435 z m 37.52474,-0.0165 c 14.63587,-0.0721 38.58548,-0.0721 53.22135,0 14.63587,0.0721 2.66107,0.13117 -26.61068,0.13117 -29.27174,0 -41.24655,-0.059 -26.61067,-0.13117 z m 16.18714,-13.20108 c 0.33723,-0.13608 0.88906,-0.13608 1.22629,0 0.33724,0.13607 0.0613,0.24741 -0.61315,0.24741 -0.67446,0 -0.95038,-0.11134 -0.61314,-0.24741 z m -301.1789,-0.49052 c 0.33723,-0.13608 0.88907,-0.13608 1.2263,0 0.33723,0.13607 0.0613,0.24741 -0.61315,0.24741 -0.67447,0 -0.95038,-0.11134 -0.61315,-0.24741 z"
         id="path210" /><path
         style="fill:#8c8c8c;fill-opacity:1"
         d="m 101.54761,538.60034 c 1.95595,-0.0931 5.15658,-0.0931 7.11253,0 1.95595,0.0931 0.35563,0.16928 -3.55627,0.16928 -3.91189,0 -5.512207,-0.0762 -3.55626,-0.16928 z M 94.925598,525.3824 c 0.472125,-0.12338 1.244693,-0.12338 1.716818,0 0.472125,0.12338 0.08584,0.22433 -0.858409,0.22433 -0.94425,0 -1.330534,-0.10095 -0.858409,-0.22433 z m -43.165705,-7.84831 c 0.472125,-0.12338 1.244693,-0.12338 1.716818,0 0.472125,0.12338 0.08584,0.22433 -0.858409,0.22433 -0.94425,0 -1.330534,-0.10095 -0.858409,-0.22433 z m -3.678895,-12.76155 c 0.607017,-0.11692 1.600319,-0.11692 2.207337,0 0.607018,0.11691 0.110367,0.21257 -1.103669,0.21257 -1.214035,0 -1.710686,-0.0957 -1.103668,-0.21257 z M 116.29385,390.49262 c 0.35409,-0.1417 0.77716,-0.12427 0.94016,0.0387 0.163,0.163 -0.12672,0.27893 -0.64381,0.25763 -0.57142,-0.0235 -0.68766,-0.13976 -0.29635,-0.29635 z m 16.90159,-12.26783 c 0.47726,-0.12437 1.13947,-0.11619 1.47156,0.0182 0.3321,0.13436 -0.0584,0.23612 -0.86774,0.22612 -0.80936,-0.01 -1.08107,-0.11993 -0.60382,-0.2443 z m 116.74908,-96.65355 c 1.28962,-0.10138 3.27623,-0.10015 4.41468,0.003 1.13844,0.10287 0.0833,0.18582 -2.34477,0.18433 -2.42807,-0.001 -3.35953,-0.0857 -2.06991,-0.18705 z m 6.11669,-13.20773 c 0.33723,-0.13607 0.88907,-0.13607 1.2263,0 0.33723,0.13608 0.0613,0.24741 -0.61315,0.24741 -0.67446,0 -0.95038,-0.11133 -0.61315,-0.24741 z m -37.44871,-7.64607 -0.93443,-1.10367 1.10367,0.93443 c 1.03718,0.87814 1.32697,1.2729 0.93443,1.2729 -0.0931,0 -0.58973,-0.49665 -1.10367,-1.10366 z m 26.19742,-41.9066 c 0.3541,-0.1417 0.77717,-0.12427 0.94017,0.0387 0.16299,0.163 -0.12672,0.27893 -0.64381,0.25763 -0.57143,-0.0235 -0.68766,-0.13977 -0.29636,-0.29635 z m 33.8209,-0.50237 c 0.61017,-0.11733 1.4931,-0.11287 1.96208,0.01 0.46898,0.12278 -0.0302,0.21877 -1.10939,0.21333 -1.07914,-0.005 -1.46285,-0.1059 -0.85269,-0.22323 z m 91.48289,-12.75856 c 0.74562,-0.11275 1.84929,-0.10974 2.4526,0.007 0.60331,0.11643 -0.007,0.20868 -1.35567,0.205 -1.34893,-0.004 -1.84255,-0.0989 -1.09693,-0.21169 z m -31.8905,-29.93573 c 2.90019,-0.0867 7.64597,-0.0867 10.54616,0 2.9002,0.0867 0.52731,0.15768 -5.27308,0.15768 -5.80039,0 -8.17328,-0.071 -5.27308,-0.15768 z m 42.92616,-12.7344 c 0.61017,-0.11732 1.4931,-0.11287 1.96208,0.01 0.46898,0.12278 -0.0302,0.21877 -1.10939,0.21333 -1.07914,-0.005 -1.46285,-0.1059 -0.85269,-0.22323 z m 5.88052,-0.0147 c 1.41637,-0.0991 3.73407,-0.0991 5.15045,0 1.41637,0.0991 0.25752,0.18015 -2.57523,0.18015 -2.83275,0 -3.9916,-0.0811 -2.57522,-0.18015 z m -208.716,-0.48944 c 1.28148,-0.10105 3.37845,-0.10105 4.65994,0 1.28148,0.10105 0.23299,0.18372 -2.32997,0.18372 -2.56297,0 -3.61145,-0.0827 -2.32997,-0.18372 z m 291.95944,-18.52445 c 1.4e-4,-10.52164 0.0651,-14.75614 0.14434,-9.41001 0.0793,5.34613 0.0791,13.95475 -2.5e-4,19.13025 -0.0794,5.17551 -0.14423,0.8014 -0.14409,-9.72024 z M 72.768321,160.48798 c 0.02354,-0.57143 0.139769,-0.68766 0.296356,-0.29636 0.141696,0.35409 0.12427,0.77717 -0.03872,0.94016 -0.162996,0.163 -0.278929,-0.12671 -0.257631,-0.6438 z m 30.977799,-4.12854 c 0,-0.94425 0.10095,-1.33054 0.22432,-0.85841 0.12338,0.47212 0.12338,1.24469 0,1.71682 -0.12337,0.47212 -0.22432,0.0858 -0.22432,-0.85841 z m 127.32926,-6.22131 c 0.3541,-0.1417 0.77717,-0.12428 0.94016,0.0387 0.163,0.163 -0.12671,0.27893 -0.6438,0.25763 -0.57143,-0.0235 -0.68766,-0.13977 -0.29636,-0.29635 z m -88.47991,-22.22882 c 0,-6.60974 0.0694,-9.31373 0.1543,-6.00886 0.0849,3.30488 0.0849,8.71285 0,12.01773 -0.0849,3.30487 -0.1543,0.60088 -0.1543,-6.00887 z m 117.3899,8.99501 c 0.33723,-0.13607 0.88906,-0.13607 1.2263,0 0.33723,0.13608 0.0613,0.24741 -0.61315,0.24741 -0.67447,0 -0.95038,-0.11133 -0.61315,-0.24741 z m 13.49602,-0.51764 c 0.74562,-0.11275 1.84929,-0.10974 2.4526,0.007 0.60331,0.11643 -0.007,0.20868 -1.35567,0.205 -1.34893,-0.004 -1.84255,-0.099 -1.09693,-0.21169 z M 148.8739,132.81451 c 0,-0.94425 0.10095,-1.33054 0.22433,-0.85841 0.12338,0.47212 0.12338,1.24469 0,1.71682 -0.12338,0.47212 -0.22433,0.0858 -0.22433,-0.85841 z M 57.600946,120.55152 c 0,-0.67446 0.111335,-0.95038 0.247411,-0.61315 0.136076,0.33724 0.136076,0.88907 0,1.2263 -0.136076,0.33724 -0.247411,0.0613 -0.247411,-0.61315 z m 27.469085,-2.45259 c 0,-0.67447 0.111335,-0.95038 0.247411,-0.61315 0.136076,0.33723 0.136076,0.88906 0,1.2263 -0.136076,0.33723 -0.247411,0.0613 -0.247411,-0.61315 z M 273.23511,117.752 c 0.61016,-0.11733 1.4931,-0.11287 1.96208,0.01 0.46898,0.12277 -0.0302,0.21877 -1.10939,0.21333 -1.07914,-0.005 -1.46285,-0.1059 -0.85269,-0.22323 z m 193.25891,-2.43053 c 0.33724,-0.13608 0.88907,-0.13608 1.2263,0 0.33723,0.13607 0.0613,0.24741 -0.61315,0.24741 -0.67446,0 -0.95038,-0.11134 -0.61315,-0.24741 z m -61.77478,-13.25424 c 0.35409,-0.1417 0.77717,-0.12427 0.94016,0.0387 0.163,0.163 -0.12671,0.27893 -0.6438,0.25763 -0.57143,-0.0235 -0.68766,-0.13977 -0.29636,-0.29635 z M 98.610212,101.56486 c 0.610163,-0.11733 1.493098,-0.11287 1.962078,0.01 0.46898,0.12278 -0.0302,0.21877 -1.109388,0.21333 -1.079143,-0.005 -1.462853,-0.1059 -0.85269,-0.22323 z"
         id="path209" /><path
         style="fill:#767676;fill-opacity:1"
         d="m 112.5843,538.62642 c 0.47212,-0.12338 1.24469,-0.12338 1.71681,0 0.47213,0.12338 0.0858,0.22433 -0.85841,0.22433 -0.94425,0 -1.33053,-0.10095 -0.8584,-0.22433 z M 12.473164,529.64468 c 0,-0.67446 0.111335,-0.95038 0.247411,-0.61315 0.136076,0.33724 0.136076,0.88907 0,1.2263 -0.136076,0.33723 -0.247411,0.0613 -0.247411,-0.61315 z m 77.30198,-4.27899 c 0.876804,-0.10881 2.311573,-0.10881 3.188376,0 0.876804,0.10881 0.159419,0.19783 -1.594188,0.19783 -1.753606,0 -2.470991,-0.089 -1.594188,-0.19783 z m -35.317395,-7.81833 c 0.337233,-0.13608 0.889067,-0.13608 1.226299,0 0.337232,0.13607 0.06132,0.24741 -0.613149,0.24741 -0.674464,0 -0.950382,-0.11134 -0.61315,-0.24741 z M 44.156843,504.77254 c 0.607017,-0.11692 1.600319,-0.11692 2.207337,0 0.607018,0.11691 0.110367,0.21257 -1.103669,0.21257 -1.214035,0 -1.710686,-0.0957 -1.103668,-0.21257 z M 63.808275,389.02106 c 0.354094,-0.1417 0.777167,-0.12427 0.940162,0.0387 0.162996,0.16299 -0.126717,0.27893 -0.643806,0.25763 -0.571428,-0.0235 -0.687659,-0.13977 -0.296356,-0.29636 z m 67.691675,-10.79143 c 0.35409,-0.14169 0.77717,-0.12427 0.94016,0.0387 0.163,0.163 -0.12672,0.27893 -0.64381,0.25763 -0.57142,-0.0235 -0.68765,-0.13977 -0.29635,-0.29636 z M 77.021641,376.7683 c 0.337232,-0.13608 0.889066,-0.13608 1.226298,0 0.337232,0.13607 0.06131,0.24741 -0.613149,0.24741 -0.674464,0 -0.950381,-0.11134 -0.613149,-0.24741 z M 246.772,281.59732 c 0.3541,-0.1417 0.77717,-0.12427 0.94016,0.0387 0.163,0.163 -0.12671,0.27893 -0.6438,0.25763 -0.57143,-0.0235 -0.68766,-0.13977 -0.29636,-0.29635 z m 10.52226,-0.0169 c 0.74562,-0.11275 1.84928,-0.10973 2.45259,0.007 0.60331,0.11643 -0.007,0.20868 -1.35567,0.20499 -1.34893,-0.004 -1.84254,-0.0989 -1.09692,-0.21169 z m 0.72903,-13.2169 c 0.33723,-0.13607 0.88907,-0.13607 1.2263,0 0.33723,0.13608 0.0613,0.24741 -0.61315,0.24741 -0.67446,0 -0.95038,-0.11133 -0.61315,-0.24741 z M 281.0777,267.873 c 0.33723,-0.13607 0.88907,-0.13607 1.2263,0 0.33723,0.13608 0.0613,0.24742 -0.61315,0.24742 -0.67446,0 -0.95038,-0.11134 -0.61315,-0.24742 z m 33.13943,-34.25675 c 0.003,-1.61871 0.0943,-2.22178 0.20349,-1.34014 0.10917,0.88163 0.10692,2.20603 -0.005,2.94311 -0.11193,0.73708 -0.20125,0.0157 -0.19849,-1.60297 z M 242.58127,218.806 c 0.47725,-0.12436 1.13946,-0.11619 1.47155,0.0182 0.3321,0.13436 -0.0584,0.23612 -0.86774,0.22612 -0.80936,-0.01 -1.08107,-0.11993 -0.60381,-0.2443 z m 87.57903,0.005 c 0.35409,-0.1417 0.77716,-0.12427 0.94016,0.0387 0.16299,0.163 -0.12672,0.27893 -0.64381,0.25763 -0.57143,-0.0235 -0.68766,-0.13977 -0.29635,-0.29635 z m 6.86727,0 c 0.35409,-0.1417 0.77716,-0.12427 0.94016,0.0387 0.16299,0.163 -0.12672,0.27893 -0.64381,0.25763 -0.57142,-0.0235 -0.68766,-0.13977 -0.29635,-0.29635 z m -60.85506,-0.4803 c 0.33723,-0.13608 0.88906,-0.13608 1.2263,0 0.33723,0.13607 0.0613,0.24741 -0.61315,0.24741 -0.67447,0 -0.95039,-0.11134 -0.61315,-0.24741 z m 97.85861,-12.76677 c 0.47213,-0.12338 1.24469,-0.12338 1.71682,0 0.47212,0.12338 0.0858,0.22432 -0.85841,0.22432 -0.94425,0 -1.33053,-0.10094 -0.85841,-0.22432 z M 337.0202,187.87788 c 2.23854,-0.0911 5.77028,-0.0906 7.84831,0.001 2.07803,0.0917 0.24649,0.16625 -4.07008,0.16563 -4.31657,-6.2e-4 -6.01677,-0.0757 -3.77823,-0.16676 z m -12.77679,-12.26085 c 1.68616,-0.0958 4.44533,-0.0958 6.13149,0 1.68616,0.0958 0.30657,0.17416 -3.06575,0.17416 -3.37232,0 -4.7519,-0.0784 -3.06574,-0.17416 z m 49.80251,-12.75148 c 1.28962,-0.10137 3.27623,-0.10015 4.41468,0.003 1.13845,0.10288 0.0833,0.18582 -2.34477,0.18433 -2.42807,-0.002 -3.35953,-0.0857 -2.06991,-0.18705 z m -202.8555,-0.48338 c 0.87079,-0.10836 2.41592,-0.11015 3.43364,-0.004 1.01771,0.10619 0.30525,0.19485 -1.58325,0.19702 -1.8885,0.002 -2.72118,-0.0847 -1.85039,-0.19306 z m -67.4245,-2.5891 c 0,-1.21403 0.0957,-1.71068 0.21257,-1.10366 0.11692,0.60701 0.11692,1.60031 0,2.20733 -0.11691,0.60702 -0.21257,0.11037 -0.21257,-1.10367 z m -30.835613,-9.0746 c -5.64e-4,-4.58636 0.07316,-6.52862 0.16384,-4.31613 0.09068,2.21248 0.09114,5.96495 10e-4,8.33883 -0.09011,2.37387 -0.164302,0.56365 -0.164866,-4.0227 z m -29.102629,0.94016 c 0.02354,-0.57143 0.139769,-0.68766 0.296356,-0.29636 0.141696,0.3541 0.12427,0.77717 -0.03872,0.94016 -0.162996,0.163 -0.27893,-0.12671 -0.257631,-0.6438 z m 188.719262,-1.5205 c 0.35409,-0.1417 0.77717,-0.12428 0.94016,0.0387 0.163,0.163 -0.12672,0.27893 -0.6438,0.25763 -0.57143,-0.0235 -0.68766,-0.13977 -0.29636,-0.29635 z M 43.827678,148.71551 c 0.02354,-0.57143 0.139769,-0.68766 0.296356,-0.29635 0.141696,0.35409 0.12427,0.77716 -0.03872,0.94016 -0.162996,0.16299 -0.27893,-0.12672 -0.257631,-0.64381 z m 98.727062,-5.10958 c 0,-2.29317 0.0845,-3.23129 0.18777,-2.0847 0.10327,1.14659 0.10327,3.02282 0,4.16941 -0.10327,1.14659 -0.18777,0.20847 -0.18777,-2.08471 z m 119.3927,-6.70161 c 0.33724,-0.13607 0.88907,-0.13607 1.2263,0 0.33724,0.13608 0.0613,0.24741 -0.61315,0.24741 -0.67446,0 -0.95038,-0.11133 -0.61315,-0.24741 z m 15.20611,-0.49052 c 0.33723,-0.13607 0.88906,-0.13607 1.22629,0 0.33724,0.13608 0.0613,0.24741 -0.61315,0.24741 -0.67446,0 -0.95038,-0.11133 -0.61314,-0.24741 z m -128.29782,-6.29715 c 0.01,-0.80936 0.11993,-1.08107 0.24429,-0.60381 0.12437,0.47726 0.11619,1.13946 -0.0182,1.47156 -0.13437,0.33209 -0.23612,-0.0584 -0.22612,-0.86775 z m 321.23328,-5.92711 c 0.0235,-0.57142 0.13977,-0.68766 0.29636,-0.29635 0.1417,0.35409 0.12427,0.77716 -0.0387,0.94016 -0.163,0.16299 -0.27893,-0.12672 -0.25764,-0.64381 z m -309.0272,-3.92415 c 0.0235,-0.57143 0.13977,-0.68766 0.29635,-0.29636 0.1417,0.3541 0.12427,0.77717 -0.0387,0.94016 -0.163,0.163 -0.27893,-0.12671 -0.25763,-0.6438 z M 57.600946,118.58945 c 0,-0.67447 0.111335,-0.95038 0.247411,-0.61315 0.136076,0.33723 0.136076,0.88906 0,1.2263 -0.136076,0.33723 -0.247411,0.0613 -0.247411,-0.61315 z M 270.04101,117.7608 c 0.47213,-0.12338 1.2447,-0.12338 1.71682,0 0.47213,0.12338 0.0858,0.22433 -0.85841,0.22433 -0.94425,0 -1.33053,-0.10095 -0.85841,-0.22433 z m -42.92044,-13.23076 c 0.33723,-0.13607 0.88907,-0.13607 1.2263,0 0.33723,0.13608 0.0613,0.24741 -0.61315,0.24741 -0.67447,0 -0.95038,-0.11133 -0.61315,-0.24741 z m 59.3835,-0.0102 c 0.35409,-0.14169 0.77717,-0.12427 0.94016,0.0387 0.163,0.16299 -0.12671,0.27893 -0.6438,0.25763 -0.57143,-0.0235 -0.68766,-0.13977 -0.29636,-0.29636 z m 119.65607,-2.44237 c 0.33723,-0.13608 0.88907,-0.13608 1.2263,0 0.33723,0.13607 0.0613,0.24741 -0.61315,0.24741 -0.67446,0 -0.95038,-0.11134 -0.61315,-0.24741 z M 96.673073,101.57671 c 0.354094,-0.1417 0.777167,-0.12427 0.940162,0.0387 0.162996,0.163 -0.126717,0.27893 -0.643806,0.25763 -0.571427,-0.0235 -0.687659,-0.13977 -0.296356,-0.29635 z"
         id="path208" /><path
         style="fill:#606060;fill-opacity:1"
         d="m 86.096249,525.3824 c 0.472125,-0.12338 1.244693,-0.12338 1.716818,0 0.472125,0.12338 0.08584,0.22433 -0.858409,0.22433 -0.94425,0 -1.330534,-0.10095 -0.858409,-0.22433 z m -29.431162,-7.84831 c 0.472125,-0.12338 1.244693,-0.12338 1.716817,0 0.472125,0.12338 0.08584,0.22433 -0.858408,0.22433 -0.94425,0 -1.330534,-0.10095 -0.858409,-0.22433 z m -15.936161,-12.7623 c 0.610163,-0.11733 1.493098,-0.11288 1.962078,0.01 0.468979,0.12277 -0.03025,0.21877 -1.109388,0.21332 -1.079143,-0.005 -1.462853,-0.10589 -0.85269,-0.22322 z M 118.25593,390.49262 c 0.35409,-0.1417 0.77716,-0.12427 0.94016,0.0387 0.16299,0.163 -0.12672,0.27893 -0.64381,0.25763 -0.57143,-0.0235 -0.68766,-0.13976 -0.29635,-0.29635 z m -36.298438,-0.98104 c 0.354094,-0.1417 0.777167,-0.12427 0.940162,0.0387 0.162996,0.16299 -0.126717,0.27892 -0.643807,0.25763 -0.571427,-0.0235 -0.687658,-0.13977 -0.296355,-0.29636 z m 48.070898,-11.28195 c 0.35409,-0.14169 0.77717,-0.12427 0.94016,0.0387 0.163,0.163 -0.12671,0.27893 -0.6438,0.25763 -0.57143,-0.0235 -0.68766,-0.13977 -0.29636,-0.29636 z M 94.220476,377.2486 c 0.354094,-0.1417 0.777167,-0.12427 0.940162,0.0387 0.162996,0.163 -0.126717,0.27893 -0.643806,0.25763 -0.571427,-0.0235 -0.687659,-0.13977 -0.296356,-0.29635 z M 75.58074,376.75808 c 0.354094,-0.1417 0.777167,-0.12427 0.940162,0.0387 0.162996,0.163 -0.126717,0.27893 -0.643806,0.25763 -0.571428,-0.0235 -0.687659,-0.13977 -0.296356,-0.29635 z m 169.7197,-95.16076 c 0.3541,-0.1417 0.77717,-0.12427 0.94017,0.0387 0.16299,0.163 -0.12672,0.27893 -0.64381,0.25763 -0.57143,-0.0235 -0.68766,-0.13977 -0.29636,-0.29635 z m 15.91123,-0.003 c 0.47212,-0.12338 1.24469,-0.12338 1.71681,0 0.47213,0.12338 0.0858,0.22433 -0.85841,0.22433 -0.94424,0 -1.33053,-0.10095 -0.8584,-0.22433 z m -1.19565,-13.24098 c 0.3541,-0.14169 0.77717,-0.12427 0.94017,0.0387 0.16299,0.163 -0.12672,0.27893 -0.64381,0.25763 -0.57143,-0.0235 -0.68766,-0.13977 -0.29636,-0.29636 z m 54.16291,-30.56764 c 0,-0.94425 0.10095,-1.33053 0.22433,-0.8584 0.12338,0.47212 0.12338,1.24469 0,1.71681 -0.12338,0.47213 -0.22433,0.0858 -0.22433,-0.85841 z m -98.80017,-2.29715 c 0.3541,-0.1417 0.77717,-0.12427 0.94016,0.0387 0.163,0.163 -0.12671,0.27893 -0.6438,0.25763 -0.57143,-0.0235 -0.68766,-0.13977 -0.29636,-0.29635 z m 25.50701,-16.67766 c 0.35409,-0.1417 0.77717,-0.12427 0.94016,0.0387 0.163,0.163 -0.12672,0.27893 -0.64381,0.25763 -0.57142,-0.0235 -0.68765,-0.13977 -0.29635,-0.29635 z m 91.70525,-0.0204 c 0.88163,-0.10917 2.20604,-0.10691 2.94312,0.005 0.73707,0.11192 0.0157,0.20124 -1.60298,0.19849 -1.61871,-0.003 -2.22178,-0.0943 -1.34014,-0.2035 z m -58.61651,-0.47495 c 0.47725,-0.12436 1.13946,-0.11619 1.47155,0.0182 0.3321,0.13436 -0.0584,0.23612 -0.86774,0.22612 -0.80936,-0.01 -1.08107,-0.11993 -0.60381,-0.2443 z m 176.85355,0.005 c 0.3541,-0.1417 0.77717,-0.12427 0.94016,0.0387 0.163,0.163 -0.12671,0.27893 -0.6438,0.25763 -0.57143,-0.0235 -0.68766,-0.13976 -0.29636,-0.29635 z m -72.87278,-12.77575 c 1.01169,-0.10583 2.6672,-0.10583 3.67889,0 1.0117,0.10582 0.18395,0.19241 -1.83945,0.19241 -2.02339,0 -2.85114,-0.0866 -1.83944,-0.19241 z m -26.50951,-17.66463 c 1.80925,-0.0941 4.89952,-0.0947 6.86727,-10e-4 1.96775,0.0934 0.48746,0.17034 -3.28954,0.17111 -3.777,7.7e-4 -5.38698,-0.0756 -3.57773,-0.16972 z m 11.80067,0.0113 c 0.74562,-0.11275 1.84929,-0.10973 2.4526,0.007 0.60331,0.11643 -0.007,0.20867 -1.35568,0.20499 -1.34892,-0.004 -1.84254,-0.0989 -1.09692,-0.21169 z m 98.83291,-0.003 c 0.8768,-0.10881 2.31157,-0.10881 3.18838,0 0.8768,0.10881 0.15941,0.19784 -1.59419,0.19784 -1.75361,0 -2.47099,-0.089 -1.59419,-0.19784 z m -164.5381,-12.27535 c 4.53605,-0.081 11.82026,-0.0809 16.18714,3.4e-4 4.36689,0.0812 0.65558,0.14751 -8.24735,0.14733 -8.90293,-1.9e-4 -12.47583,-0.0666 -7.93979,-0.14767 z m 67.66052,-12.74685 c 1.28149,-0.10105 3.37846,-0.10105 4.65994,0 1.28148,0.10104 0.23299,0.18372 -2.32997,0.18372 -2.56296,0 -3.61145,-0.0827 -2.32997,-0.18372 z M 43.912654,161.01937 c 0.0054,-1.07914 0.105895,-1.46285 0.223224,-0.85269 0.117329,0.61017 0.112875,1.4931 -0.0099,1.96208 -0.122773,0.46898 -0.21877,-0.0302 -0.213324,-1.10939 z m 124.345586,1.39196 c 0.33724,-0.13608 0.88907,-0.13608 1.2263,0 0.33723,0.13607 0.0613,0.24741 -0.61315,0.24741 -0.67446,0 -0.95038,-0.11134 -0.61315,-0.24741 z m -18.89382,-2.61826 c 0,-0.94425 0.10095,-1.33053 0.22433,-0.8584 0.12338,0.47212 0.12338,1.24469 0,1.71681 -0.12338,0.47213 -0.22433,0.0858 -0.22433,-0.85841 z M 43.94095,156.11418 c 0.0028,-1.61872 0.09433,-2.22178 0.203498,-1.34014 0.109171,0.88163 0.106918,2.20603 -0.005,2.94311 -0.111924,0.73708 -0.201245,0.0157 -0.198492,-1.60297 z m 98.5994,-5.64097 c 0,-1.75361 0.089,-2.471 0.19784,-1.59419 0.10881,0.8768 0.10881,2.31157 0,3.18837 -0.10881,0.87681 -0.19784,0.15942 -0.19784,-1.59418 z m -98.712672,-0.28614 c 0.02354,-0.57143 0.139769,-0.68766 0.296356,-0.29636 0.141696,0.3541 0.12427,0.77717 -0.03872,0.94017 -0.162996,0.16299 -0.27893,-0.12672 -0.257631,-0.64381 z m 0.181471,-18.59886 c 1.77e-4,-9.17271 0.06634,-12.85587 0.14704,-8.1848 0.0807,4.67108 0.08055,12.17602 -3.21e-4,16.67766 -0.08087,4.50164 -0.146896,0.67985 -0.146719,-8.49286 z m 28.816073,9.81039 c 0.01,-0.80936 0.119932,-1.08108 0.2443,-0.60382 0.124368,0.47726 0.116188,1.13946 -0.01818,1.47156 -0.134365,0.3321 -0.23612,-0.0584 -0.226124,-0.86774 z m 51.107418,-18.885 c 0,-3.37232 0.0784,-4.7519 0.17415,-3.06574 0.0958,1.68616 0.0958,4.44533 0,6.13149 -0.0958,1.68616 -0.17415,0.30657 -0.17415,-3.06575 z m 84.70955,5.10958 c 0.0235,-0.57143 0.13977,-0.68766 0.29635,-0.29636 0.1417,0.3541 0.12427,0.77717 -0.0387,0.94017 -0.163,0.16299 -0.27893,-0.12672 -0.25763,-0.64381 z m -47.54166,-5.6001 c 0,-0.67446 0.11134,-0.95038 0.24742,-0.61315 0.13607,0.33724 0.13607,0.88907 0,1.2263 -0.13608,0.33723 -0.24742,0.0613 -0.24742,-0.61315 z m -57.86311,-5.15045 c 0.01,-0.80936 0.11993,-1.08107 0.2443,-0.60381 0.12437,0.47725 0.11619,1.13946 -0.0182,1.47155 -0.13437,0.3321 -0.23612,-0.0584 -0.22613,-0.86774 z m 163.62094,0.87937 c 0.61016,-0.11733 1.4931,-0.11287 1.96208,0.01 0.46897,0.12277 -0.0303,0.21877 -1.10939,0.21333 -1.07915,-0.005 -1.46286,-0.1059 -0.85269,-0.22323 z m 12.50252,-13.25765 c 1.28148,-0.10104 3.37845,-0.10104 4.65994,0 1.28148,0.10105 0.23299,0.18372 -2.32997,0.18372 -2.56296,0 -3.61145,-0.0827 -2.32997,-0.18372 z m 17.6587,-1.96613 c 2.09084,-0.092 5.51221,-0.092 7.60305,0 2.09084,0.0919 0.38015,0.16718 -3.80152,0.16718 -4.18168,0 -5.89237,-0.0752 -3.80153,-0.16718 z m 12.04838,0.0295 c 0.3541,-0.1417 0.77717,-0.12427 0.94016,0.0387 0.163,0.163 -0.12671,0.27893 -0.6438,0.25763 -0.57143,-0.0235 -0.68766,-0.13977 -0.29636,-0.29635 z m 99.05426,-0.4803 c 0.33723,-0.13608 0.88906,-0.13608 1.2263,0 0.33723,0.13607 0.0613,0.24741 -0.61315,0.24741 -0.67447,0 -0.95038,-0.11134 -0.61315,-0.24741 z M 95.201515,101.57671 c 0.354094,-0.1417 0.777167,-0.12427 0.940162,0.0387 0.162996,0.163 -0.126717,0.27893 -0.643806,0.25763 -0.571428,-0.0235 -0.687659,-0.13977 -0.296356,-0.29635 z"
         id="path207" /><path
         style="fill:#494949;fill-opacity:1"
         d="m 81.681575,525.36919 c 0.74191,-0.11239 1.955946,-0.11239 2.697856,0 0.741911,0.11239 0.134893,0.20435 -1.348928,0.20435 -1.483821,0 -2.090839,-0.092 -1.348928,-0.20435 z m -21.828112,-7.84315 c 0.607017,-0.11691 1.600319,-0.11691 2.207337,0 0.607018,0.11692 0.110367,0.21258 -1.103669,0.21258 -1.214035,0 -1.710686,-0.0957 -1.103668,-0.21258 z M 37.534831,504.78059 c 0.472125,-0.12338 1.244693,-0.12338 1.716818,0 0.472125,0.12338 0.08584,0.22432 -0.858409,0.22432 -0.94425,0 -1.330534,-0.10094 -0.858409,-0.22432 z M 83.398393,389.5218 c 0.337232,-0.13608 0.889066,-0.13608 1.226298,0 0.337232,0.13608 0.06132,0.24741 -0.613149,0.24741 -0.674464,0 -0.950381,-0.11133 -0.613149,-0.24741 z m -17.137521,-0.50074 c 0.354094,-0.1417 0.777167,-0.12427 0.940162,0.0387 0.162996,0.16299 -0.126717,0.27893 -0.643807,0.25763 -0.571427,-0.0235 -0.687658,-0.13977 -0.296355,-0.29636 z m 62.295958,-10.79143 c 0.3541,-0.14169 0.77717,-0.12427 0.94016,0.0387 0.163,0.163 -0.12671,0.27893 -0.6438,0.25763 -0.57143,-0.0235 -0.68766,-0.13977 -0.29636,-0.29636 z M 37.941446,366.01559 c 0.02354,-0.57142 0.139769,-0.68765 0.296355,-0.29635 0.141697,0.35409 0.124271,0.77717 -0.03872,0.94016 -0.162995,0.163 -0.278929,-0.12672 -0.25763,-0.64381 z M 264.89935,281.5769 c 0.88163,-0.10917 2.20603,-0.10691 2.94311,0.005 0.73708,0.11192 0.0157,0.20124 -1.60297,0.19849 -1.61871,-0.003 -2.22178,-0.0943 -1.34014,-0.2035 z m -2.6999,-13.24051 c 0.74562,-0.11275 1.84929,-0.10974 2.4526,0.007 0.6033,0.11643 -0.007,0.20868 -1.35568,0.205 -1.34893,-0.004 -1.84254,-0.0989 -1.09692,-0.21169 z m 51.97948,-27.60762 c 0,-0.94425 0.10095,-1.33053 0.22433,-0.85841 0.12338,0.47213 0.12338,1.24469 0,1.71682 -0.12338,0.47212 -0.22433,0.0858 -0.22433,-0.85841 z m -42.65702,-22.4133 c 0.47726,-0.12436 1.13946,-0.11619 1.47156,0.0182 0.33209,0.13436 -0.0584,0.23612 -0.86775,0.22612 -0.80935,-0.01 -1.08107,-0.11993 -0.60381,-0.2443 z m 175.84186,-0.006 c 0.60702,-0.11691 1.60032,-0.11691 2.20734,0 0.60701,0.11692 0.11036,0.21258 -1.10367,0.21258 -1.21404,0 -1.71069,-0.0957 -1.10367,-0.21258 z m -61.789,-12.76953 c 1.42542,-0.0994 3.63276,-0.0984 4.90519,0.002 1.27244,0.10067 0.10619,0.182 -2.59167,0.18072 -2.69785,-10e-4 -3.73894,-0.0836 -2.31352,-0.18305 z m 14.47796,-6.38012 c 2.37387,-0.0901 6.12635,-0.0897 8.33883,0.001 2.21249,0.0907 0.27023,0.16441 -4.31613,0.16384 -4.58635,-5.6e-4 -6.39657,-0.0747 -4.0227,-0.16486 z m 14.93676,0.004 c 1.41637,-0.0991 3.73408,-0.0991 5.15045,0 1.41638,0.0991 0.25753,0.18016 -2.57522,0.18016 -2.83275,0 -3.9916,-0.0811 -2.57523,-0.18016 z M 87.382609,197.6857 c -0.610143,-0.778 -0.592793,-0.79535 0.185198,-0.1852 0.817082,0.6408 1.076925,1.0436 0.673211,1.0436 -0.101859,0 -0.488143,-0.38628 -0.858409,-0.8584 z m 283.683941,-9.80576 c 1.80925,-0.0941 4.89952,-0.0947 6.86727,-0.001 1.96775,0.0934 0.48745,0.17034 -3.28955,0.17111 -3.777,7.7e-4 -5.38697,-0.0756 -3.57772,-0.16972 z m 82.91923,0.003 c 1.28148,-0.10105 3.37845,-0.10105 4.65993,0 1.28149,0.10104 0.233,0.18372 -2.32996,0.18372 -2.56297,0 -3.61145,-0.0827 -2.32997,-0.18372 z m 15.73891,-5.03517 c 0,-2.02339 0.0866,-2.85114 0.19241,-1.83944 0.10582,1.01169 0.10582,2.6672 0,3.67889 -0.10583,1.0117 -0.19241,0.18395 -0.19241,-1.83945 z m -225.19068,-7.23481 c 7.21676,-0.0765 19.02602,-0.0765 26.24278,0 7.21677,0.0764 1.31214,0.139 -13.12139,0.139 -14.43353,0 -20.33816,-0.0625 -13.12139,-0.139 z m 41.9394,0.0214 c 0.60702,-0.11692 1.60032,-0.11692 2.20734,0 0.60702,0.11691 0.11037,0.21257 -1.10367,0.21257 -1.21403,0 -1.71068,-0.0957 -1.10367,-0.21257 z m 68.42746,-12.76982 c 1.55126,-0.0973 4.0897,-0.0973 5.64097,0 1.55127,0.0974 0.28205,0.17699 -2.82049,0.17699 -3.10253,0 -4.37175,-0.0796 -2.82048,-0.17699 z m -189.34048,-0.46616 c 0.47212,-0.12338 1.24469,-0.12338 1.71682,0 0.47212,0.12338 0.0858,0.22433 -0.85841,0.22433 -0.94425,0 -1.33054,-0.10095 -0.85841,-0.22433 z m -16.21415,-5.30284 c 0.01,-0.80936 0.11994,-1.08108 0.2443,-0.60382 0.12437,0.47726 0.11619,1.13946 -0.0182,1.47156 -0.13437,0.3321 -0.23612,-0.0584 -0.22613,-0.86774 z m -6.86727,-2.4526 c 0.01,-0.80936 0.11993,-1.08107 0.2443,-0.60381 0.12437,0.47726 0.11619,1.13946 -0.0182,1.47156 -0.13437,0.33209 -0.23612,-0.0584 -0.22613,-0.86775 z m 92.52057,-4.50449 c 0.35409,-0.1417 0.77716,-0.12428 0.94016,0.0387 0.16299,0.163 -0.12672,0.27893 -0.64381,0.25763 -0.57142,-0.0235 -0.68766,-0.13977 -0.29635,-0.29635 z M 72.807047,139.19126 c 0,-0.67446 0.111335,-0.95038 0.247411,-0.61315 0.136076,0.33723 0.136076,0.88907 0,1.2263 -0.136076,0.33723 -0.247411,0.0613 -0.247411,-0.61315 z m 51.101483,-7.35779 c 0,-2.02339 0.0866,-2.85114 0.19241,-1.83945 0.10583,1.0117 0.10583,2.6672 0,3.6789 -0.10583,1.01169 -0.19241,0.18394 -0.19241,-1.83945 z m 37.26655,-6.13149 c 0.003,-1.61872 0.0943,-2.22178 0.2035,-1.34015 0.10917,0.88164 0.10692,2.20604 -0.005,2.94312 -0.11192,0.73708 -0.20124,0.0157 -0.19849,-1.60297 z m -57.85917,-3.43364 c -0.001,-2.42807 0.0815,-3.48321 0.18432,-2.34477 0.10288,1.13845 0.1041,3.12506 0.003,4.41468 -0.10138,1.28962 -0.18555,0.35816 -0.18704,-2.06991 z m 155.22856,-4.50449 c 0.35409,-0.1417 0.77716,-0.12427 0.94016,0.0387 0.16299,0.163 -0.12672,0.27893 -0.64381,0.25763 -0.57142,-0.0235 -0.68766,-0.13977 -0.29635,-0.29635 z m 3.41176,-0.0204 c 0.88163,-0.10917 2.20604,-0.10692 2.94312,0.005 0.73707,0.11192 0.0157,0.20124 -1.60298,0.19849 -1.61871,-0.003 -2.22178,-0.0943 -1.34014,-0.2035 z M 47.222589,107.1223 c 0,-0.10186 0.386284,-0.48814 0.858409,-0.85841 0.777991,-0.61014 0.79534,-0.59279 0.185198,0.1852 -0.6408,0.81708 -1.043607,1.07693 -1.043607,0.67321 z m 183.095691,-2.60732 c 0.47726,-0.12437 1.13946,-0.11619 1.47156,0.0182 0.3321,0.13437 -0.0584,0.23612 -0.86775,0.22613 -0.80935,-0.01 -1.08107,-0.11993 -0.60381,-0.2443 z m 35.81898,-0.0243 c 1.83227,-0.0946 4.70181,-0.0939 6.37675,0.002 1.67494,0.0955 0.17581,0.17293 -3.3314,0.17207 -3.50722,-8.6e-4 -4.87762,-0.079 -3.04535,-0.17363 z m 44.3716,-1.92272 c 0.33724,-0.13608 0.88907,-0.13608 1.2263,0 0.33723,0.13607 0.0613,0.24741 -0.61315,0.24741 -0.67446,0 -0.95038,-0.11134 -0.61315,-0.24741 z m 101.07765,-0.50074 c 0.3541,-0.1417 0.77717,-0.12427 0.94016,0.0387 0.163,0.163 -0.12671,0.27893 -0.6438,0.25763 -0.57143,-0.0235 -0.68766,-0.13977 -0.29636,-0.29635 z"
         id="path206" /><path
         style="fill:#333333;fill-opacity:1"
         d="m 43.053174,537.99662 c -27.40125,-0.28866 -26.44757,-0.16301 -28.926576,-3.81119 -1.808416,-2.66133 -1.63576,-5.54518 0.912266,-15.23747 1.183947,-4.50355 2.287551,-8.77828 2.452453,-9.4994 0.164903,-0.72111 0.889526,-2.01194 1.610274,-2.8685 0.829539,-0.98585 1.829168,-3.38488 2.723917,-6.53719 3.881381,-13.67455 19.754652,-76.57905 22.670067,-89.83966 1.245591,-5.66549 2.824951,-12.69582 3.50969,-15.62295 0.684739,-2.92713 1.14835,-5.41868 1.030248,-5.53678 -0.118103,-0.1181 -2.174645,-0.74077 -4.570094,-1.3837 -8.069549,-2.16586 -11.55844,-4.27322 -15.148572,-9.15007 -2.52923,-3.43572 -4.16763,-8.14492 -4.16763,-11.97889 0,-10.10631 4.360435,-24.78142 12.8641,-43.29432 5.303372,-11.5457 7.705633,-16.0786 14.581262,-27.51381 3.181598,-5.29148 8.657496,-15.02885 12.168662,-21.6386 3.511166,-6.60975 7.383202,-13.89396 8.604525,-16.18714 2.650672,-4.97695 4.782071,-10.89255 6.804292,-18.885 1.765863,-6.97924 2.424423,-17.7027 1.408861,-22.94076 -0.84242,-4.34503 -3.181417,-8.79193 -6.359476,-12.09063 -4.090631,-4.24592 -7.929862,-5.94724 -18.246421,-8.08572 -6.970965,-1.44499 -10.6181,-3.15842 -14.086156,-6.61769 -3.824534,-3.81485 -5.200155,-7.06408 -5.214163,-12.3159 -0.0095,-3.57991 0.181969,-4.56347 1.354559,-6.95648 0.751125,-1.53289 2.184517,-3.50581 3.185316,-4.38428 l 1.819635,-1.59722 0.245259,-26.27317 c 0.269995,-28.92283 0.04002,-26.9494 3.589354,-30.79998 2.899554,-3.14564 5.148954,-4.12681 10.376159,-4.526 6.482009,-0.49502 6.553753,-0.56021 8.045709,-7.311013 0.536075,-2.425634 2.501582,-4.774158 4.828959,-5.769976 1.059307,-0.453247 3.59457,-0.675366 7.708612,-0.675366 h 6.130179 l 1.720263,1.510411 c 0.946145,0.830725 2.642975,3.242155 3.770735,5.358732 1.127759,2.116578 2.577592,4.416798 3.22185,5.111602 l 1.171378,1.26328 h 60.57505 c 63.82091,0 62.29084,-0.0481 64.8033,2.03706 0.46306,0.38431 10.57749,0.58588 34.37398,0.68505 31.67988,0.13202 33.80681,0.0874 35.18942,-0.73824 1.30337,-0.77832 3.32158,-0.91414 17.6587,-1.18837 8.90292,-0.17029 35.9428,-0.35421 60.08862,-0.40871 24.14582,-0.0545 49.3677,-0.17481 56.04864,-0.26736 l 12.14716,-0.16826 1.92186,-3.822396 c 3.73831,-7.435134 5.38982,-8.569466 12.53485,-8.609521 4.49819,-0.02522 5.1494,0.0946 7.84831,1.444059 2.82174,1.410866 3.00381,1.617085 4.41468,5.000029 2.21681,5.315429 2.89638,5.849549 7.83431,6.157619 5.29087,0.33009 7.63661,1.55878 10.25856,5.37341 1.41356,2.05654 1.97315,3.42706 2.14975,5.26496 l 0.23875,2.48469 h 3.50151 c 4.39265,0 6.46259,1.00953 8.14614,3.97294 l 1.2263,2.15855 v 16.18714 16.18714 l -1.17948,1.89737 c -1.58487,2.54952 -4.25042,3.71898 -8.50828,3.73283 l -3.31101,0.0108 v 12.93451 c 0,9.35452 -0.20577,14.11451 -0.74346,17.19785 -0.92796,5.32133 -3.92375,16.03959 -5.16094,18.46467 -1.24692,2.44417 -4.40026,5.06348 -8.56592,7.11525 -7.03784,3.46644 -2.8545,3.27879 -77.99258,3.49849 -66.59387,0.19472 -67.72513,0.21392 -69.75482,1.18436 -2.83519,1.35557 -4.87361,3.84308 -5.82166,7.10425 -0.69269,2.38276 -0.75299,4.54215 -0.45534,16.30758 0.32615,12.89217 0.41632,13.84888 1.82797,19.39412 1.17067,4.59863 1.43167,6.49617 1.23334,8.96694 -0.4663,5.80905 -3.81418,9.08649 -10.17989,9.96569 -4.77809,0.65993 -77.19745,0.28041 -80.72848,-0.42307 -3.84685,-0.76639 -6.97059,-2.10369 -11.92692,-5.10602 -5.0184,-3.03993 -8.57719,-4.07324 -12.44913,-3.61466 -4.9979,0.59192 -10.66219,4.36446 -13.29282,8.8533 -1.30441,2.2258 -4.41173,10.88156 -6.18728,17.23526 -0.60063,2.14934 -2.63579,8.21219 -4.52257,13.47301 -8.18575,22.82385 -14.63508,42.00124 -14.90821,44.33021 -0.2459,2.09692 0.008,3.41026 1.53133,7.9101 3.07847,9.09573 2.30719,13.75948 -3.24668,19.63187 -2.39184,2.52902 -9.18783,6.61092 -11.00656,6.61092 -0.35526,0 -0.76588,0.38628 -0.91249,0.85841 -0.75579,2.43383 -27.75915,110.73486 -27.75915,111.33225 0,0.3859 1.20085,1.96059 2.66856,3.49933 1.46771,1.53873 2.90247,3.41295 3.18838,4.16493 0.73884,1.94331 0.64364,4.75683 -0.24534,7.25056 -0.42084,1.1805 -1.52634,5.10319 -2.45666,8.71706 -1.94167,7.54245 -2.91005,9.38939 -5.81595,11.09235 l -2.08511,1.22196 -24.728135,-0.10952 c -13.600473,-0.0602 -35.764818,-0.22578 -49.254101,-0.36789 z m 69.600526,-15.7699 c 0.43395,-1.92159 0.789,-3.6521 0.789,-3.84557 0,-0.44739 -81.858545,-1.15586 -83.581658,-0.72339 -1.034915,0.25975 -1.418476,0.80772 -1.990247,2.84334 -0.389547,1.38686 -0.774979,2.96304 -0.856514,3.50261 -0.159554,1.05587 1.3635,1.09103 69.329653,1.60048 l 15.520766,0.11634 z m -5.09575,-18.33819 c 0.25724,-0.6766 4.12622,-15.96241 8.59774,-33.96846 4.47151,-18.00606 10.65685,-42.90064 13.7452,-55.32129 3.08835,-12.42066 5.61519,-22.81852 5.61519,-23.10638 0,-0.35053 -4.49527,-0.6294 -13.61192,-0.84443 -7.48655,-0.17658 -17.25402,-0.44171 -21.70548,-0.58916 -28.449928,-0.94242 -37.047577,-1.07788 -37.350037,-0.58849 -0.429246,0.69453 -4.756164,18.21235 -17.297501,70.03009 -5.778665,23.87603 -10.653474,43.78092 -10.83291,44.23307 -0.250371,0.63091 -0.0036,0.8705 1.061231,1.03018 0.763113,0.11443 17.120219,0.24114 36.349125,0.28156 l 34.961642,0.0735 z m 40.22111,-126.35262 c 4.38479,-2.61824 4.5362,-5.07087 0.72497,-11.74362 -3.1038,-5.43417 -3.98163,-8.71312 -3.45512,-12.90586 0.19817,-1.57802 3.11598,-10.9592 6.48402,-20.84707 3.36805,-9.88787 8.54911,-25.15179 11.51348,-33.91982 7.75458,-22.93662 9.268,-25.67365 15.88063,-28.72016 1.8885,-0.87006 4.01732,-2.21372 4.73071,-2.98591 2.14664,-2.3236 4.20503,-7.04737 7.79437,-17.88724 3.1603,-9.54415 9.11239,-23.73412 12.10506,-28.85884 2.88813,-4.94571 8.53559,-9.45422 15.08103,-12.03957 5.05459,-1.99649 10.08854,-2.17121 63.24833,-2.19521 l 47.0403,-0.0212 -0.34121,-6.89345 -0.3412,-6.89344 1.69065,-1.69065 1.69064,-1.69064 15.37778,-0.0713 c 8.45778,-0.0392 39.31109,-0.12321 68.5629,-0.1867 51.2969,-0.11133 53.20989,-0.14798 53.88313,-1.0324 0.54153,-0.71139 0.63653,-1.99259 0.42373,-5.71466 -0.15086,-2.63873 -0.42734,-5.04533 -0.6144,-5.348 -0.44033,-0.71247 -414.42934,-0.0778 -415.765676,0.63738 -1.285704,0.68808 -1.066216,2.52376 0.474046,3.96467 1.021593,0.95569 2.589087,1.5234 6.459541,2.33951 10.482442,2.2103 16.506684,5.21301 24.07529,12.00006 5.886148,5.27833 9.14824,10.80045 10.575428,17.90226 0.944259,4.69871 0.794069,17.2697 -0.264139,22.10849 -1.907383,8.72174 -6.940765,23.09912 -11.284023,32.23173 -2.689338,5.6549 -9.557739,17.90334 -15.291603,27.26955 -12.436239,20.31448 -21.636983,40.03035 -27.323075,58.54943 -3.131627,10.19942 -3.457142,15.18836 -1.1892,18.22603 1.705298,2.28406 5.426274,3.93315 10.063667,4.46008 6.499205,0.73849 66.841884,2.74762 87.443774,2.91147 8.15193,0.0648 8.96107,-0.008 10.54617,-0.95492 z m 22.6193,-120.68139 c -3.61163,-1.08139 -7.07703,-2.30061 -7.7009,-2.70938 -1.54814,-1.01438 -2.34743,-3.55253 -1.67537,-5.32017 0.28543,-0.75074 0.43475,-1.4492 0.33183,-1.55212 -0.10292,-0.10292 -10.31803,-2.72471 -22.70025,-5.82618 -12.38221,-3.10148 -23.22052,-5.95824 -24.08513,-6.34835 -2.07467,-0.93608 -3.27568,-3.27053 -2.84999,-5.53963 0.43834,-2.33654 2.68266,-4.52654 4.63882,-4.52654 1.88389,0 12.80784,2.46079 30.44065,6.85722 15.6431,3.90033 17.6587,4.26802 17.6587,3.22129 0,-0.39848 0.68507,-1.50475 1.52237,-2.45839 1.95076,-2.22179 3.06724,-2.22745 11.60407,-0.0588 10.1448,2.57712 10.52015,3.02264 9.23225,10.95822 -0.88981,5.48274 -2.29102,10.34914 -3.53698,12.28398 -0.96929,1.5052 -3.57014,3.04502 -5.08717,3.01184 -0.67446,-0.0148 -4.18127,-0.9116 -7.7929,-1.99298 z m 70.77085,-56.31772 c -1.9784,-0.47869 -3.39998,-1.49696 -4.86826,-3.4871 -3.43919,-4.66156 -2.49081,-9.83472 2.24596,-12.25124 3.95198,-2.01615 8.28296,-0.66951 10.60835,3.29848 3.85494,6.57794 -0.99429,14.13158 -7.98605,12.43986 z m 33.31774,67.67265 c 10.4014,-0.33853 14.21985,-0.63558 16.07017,-1.25015 3.2621,-1.0835 7.34539,-4.86398 8.85041,-8.19408 1.11978,-2.47769 1.17463,-3.11843 1.32036,-15.4222 0.10081,-8.51143 -0.0358,-13.53467 -0.40538,-14.90721 -0.75264,-2.79512 -4.73348,-6.9471 -8.26051,-8.61565 -1.68635,-0.79778 -3.87314,-1.37236 -5.6958,-1.4966 -1.62719,-0.11091 -13.15971,-0.0264 -25.62781,0.18772 -20.81163,0.35747 -22.74103,0.46124 -23.54493,1.26628 -0.74123,0.74228 -0.87565,1.76293 -0.87565,6.64876 0,5.68378 0.0281,5.82879 1.84395,9.50154 2.28144,4.61455 4.99874,7.17726 12.78829,12.06075 4.51182,2.82859 5.97083,4.02281 6.9444,5.68407 2.2696,3.87279 1.27155,6.99956 -2.84619,8.91676 -3.06386,1.42652 -4.56902,1.47368 -8.42955,0.26413 -4.55949,-1.42855 -6.55171,-2.3905 -10.79142,-5.2107 -6.55215,-4.3584 -9.82195,-8.60329 -12.25528,-15.90993 -1.14335,-3.43317 -1.44961,-3.88797 -3.33126,-4.94711 -1.65269,-0.93025 -2.81194,-1.17053 -5.72662,-1.18694 l -3.65446,-0.0206 -0.47578,1.63776 c -0.60773,2.09196 0.23589,8.67265 1.6147,12.59563 3.20745,9.12576 10.94168,16.21167 19.79454,18.13527 3.69322,0.80249 22.5414,0.91836 42.69382,0.26247 z m 185.62814,-63.58509 c 2.64798,-0.73137 6.01104,-3.20107 6.01104,-4.41425 0,-0.57427 -3.5077,-0.70302 -21.70548,-0.79665 -28.33892,-0.14581 -42.4202,-0.14679 -75.53998,-0.005 l -27.34646,0.11689 v 3.23313 3.23313 l 58.00392,-0.32818 c 48.39364,-0.27381 58.43023,-0.44593 60.57696,-1.03886 z M 72.631492,162.63809 c 0.68951,-0.68951 0.734775,-5.83966 0.263196,-29.94621 l -0.323854,-16.55503 h -6.574878 c -3.616183,0 -7.001834,0.2285 -7.523669,0.50778 -0.916354,0.49042 -0.948791,1.25862 -0.948791,22.47014 0,22.68047 0.03315,23.08215 1.962077,23.77153 1.553163,0.55508 12.55026,0.34745 13.145919,-0.24821 z M 470.29555,140.66282 c 0,-18.95173 -0.11199,-22.54063 -0.74238,-23.79019 l -0.74238,-1.47156 -69.40189,-0.11495 c -38.17104,-0.0632 -76.0239,0.0471 -84.11747,0.24526 l -14.71558,0.36021 -0.33683,5.88623 c -0.44854,7.83829 -1.11616,11.06144 -3.19178,15.40925 -2.95402,6.18782 -7.09316,9.50479 -14.6735,11.75887 -3.35515,0.99768 -4.44558,1.03646 -28.94064,1.02922 -23.81529,-0.007 -25.70483,-0.0707 -29.34813,-0.98863 -6.58982,-1.66031 -10.03026,-4.44149 -12.74878,-10.30586 -1.73498,-3.74267 -2.20339,-6.46047 -2.61732,-15.18603 l -0.36067,-7.60305 -7.60305,-0.24526 c -4.18167,-0.13489 -14.8182,-0.18428 -23.63673,-0.10974 l -16.03367,0.13551 0.28108,23.16416 c 0.1546,12.74028 0.37983,23.27452 0.5005,23.40941 0.24756,0.27671 160.06145,0.752 249.56689,0.74222 l 58.86233,-0.006 z M 91.859852,139.19126 v -23.54493 h -3.433636 -3.433635 v 23.54493 23.54493 h 3.433635 3.433636 z M 110.49959,138.946 v -23.29967 h -3.62631 -3.6263 l 0.23052,22.68652 c 0.12679,12.47759 0.31693,22.96244 0.42254,23.29967 0.12787,0.40834 1.26218,0.61315 3.39578,0.61315 h 3.20377 z m 20.11129,0 v -23.29967 h -3.51273 -3.51274 l 0.32436,14.79548 c 0.1784,8.13752 0.32436,18.62237 0.32436,23.29967 v 8.50419 h 3.18838 3.18837 z m 18.75284,10.79143 c -0.0727,-6.74464 -0.26523,-17.17431 -0.42788,-23.17704 l -0.29573,-10.91406 h -3.12838 -3.12838 l 0.003,18.51711 c 0.001,10.18441 0.14566,20.67857 0.3206,23.32036 l 0.31806,4.80326 3.23566,-0.14332 3.23567,-0.14333 z m 336.77561,-4.75804 c 0.4061,-0.40611 0.58862,-2.89707 0.58862,-8.03351 0,-8.01176 -0.23412,-8.78912 -2.54823,-8.46107 -1.12,0.15877 -1.13195,0.23413 -1.26628,7.9889 -0.0746,4.30574 -0.0263,8.1134 0.10724,8.46146 0.30579,0.79687 2.33719,0.82567 3.11865,0.0442 z m -216.92797,-8.07686 11.22398,-0.32664 2.29182,-2.14373 c 3.25177,-3.04165 4.45023,-6.10106 4.74814,-12.12094 l 0.24062,-4.86231 -21.28438,0.32264 c -11.70641,0.17746 -26.52681,0.32371 -32.93422,0.32501 l -11.64983,0.002 v 6.15585 c 0,6.67795 0.32255,7.84682 2.77669,10.06223 3.28464,2.96511 2.59774,2.85854 18.60426,2.88644 8.11741,0.0142 19.80973,-0.12126 25.98292,-0.30092 z"
         id="path205" /></g><path
       style="fill:#ffffff;stroke:none;stroke-width:5.55146"
       d="m 110.13378,323.14771 c -2.13403,-0.0874 -13.416029,-0.45098 -25.071108,-0.808 -43.690444,-1.33829 -48.549476,-1.81313 -52.490842,-5.12957 -3.929502,-3.30646 -3.777157,-8.59103 0.641833,-22.26391 6.404097,-19.81503 13.870504,-35.49481 29.164996,-61.24773 12.306642,-20.72197 16.705258,-29.70417 21.777793,-44.47136 3.860331,-11.23823 5.017404,-16.50136 5.446138,-24.77264 0.825472,-15.92526 -2.577245,-25.15234 -12.399675,-33.62394 -7.284019,-6.28229 -12.930438,-9.11681 -23.180656,-11.63678 -3.118965,-0.76679 -6.269082,-1.71488 -7.00026,-2.10687 -1.479177,-0.79301 -2.774461,-2.82493 -2.295166,-3.60045 0.170874,-0.27648 11.263828,-0.6844 24.65101,-0.90649 29.028351,-0.48157 410.087947,-0.72421 410.550737,-0.26142 0.59574,0.59575 0.85294,9.7585 0.29909,10.65552 -0.6374,1.03235 -6.18292,1.11409 -91.16669,1.34373 l -52.66799,0.14232 -1.87745,1.87775 -1.87744,1.87775 0.10936,6.36952 c 0.0601,3.50324 0.25082,6.73817 0.42372,7.18874 0.26465,0.68969 -8.35245,0.85368 -54.50384,1.03727 -59.13767,0.23525 -57.63969,0.15613 -63.955,3.37796 -4.14181,2.11299 -9.49467,6.5868 -11.68339,9.76472 -2.69275,3.90975 -9.33787,19.26802 -13.49252,31.18405 -6.11913,17.55034 -6.77432,18.62924 -13.7601,22.65864 -7.54376,4.35123 -7.52118,4.30327 -21.78838,46.28689 -12.61985,37.13606 -12.99945,38.39392 -13.06023,43.2775 -0.048,3.85747 0.18879,4.68484 3.08189,10.76823 3.38274,7.11297 3.62776,8.25822 2.20226,10.29342 -2.03306,2.90258 -3.37359,3.12239 -18.28975,2.99904 -7.64956,-0.0633 -15.65432,-0.18651 -17.78834,-0.27389 z m 69.2918,-125.72769 c 1.30515,-0.87953 2.37333,-2.32267 3.03173,-4.09593 1.49037,-4.01401 2.88978,-11.32697 2.88978,-15.10125 0,-2.8879 -0.19125,-3.41984 -1.54955,-4.30983 -2.3719,-1.55412 -10.78513,-3.83022 -15.5594,-4.2094 l -4.27492,-0.33953 -1.69439,2.42698 c -1.22054,1.74825 -2.02825,2.36095 -2.88824,2.19092 -0.65663,-0.12983 -8.58089,-2.00795 -17.60947,-4.1736 -19.3898,-4.65096 -29.35444,-6.84621 -31.07619,-6.84621 -2.09724,0 -4.73967,3.15785 -4.73967,5.66417 0,2.9634 0.90581,4.42422 3.38586,5.46045 1.15275,0.48166 12.07735,3.41831 24.2769,6.5259 12.19953,3.1076 22.5911,5.77897 23.09235,5.93638 0.66393,0.2085 0.85196,0.90908 0.69258,2.58042 -0.33403,3.50263 1.42695,5.03159 8.24541,7.15899 9.50169,2.96459 10.88819,3.07846 13.77722,1.13154 z m 68.82915,-60.77552 c 3.53278,-2.77888 4.32131,-7.47686 1.99373,-11.87838 -2.38669,-4.51328 -7.13392,-5.95657 -11.78599,-3.58326 -2.78579,1.4212 -4.16704,3.79364 -4.16704,7.15731 0,3.04616 1.11142,5.24914 3.87033,7.67149 1.82816,1.60515 2.60484,1.87941 5.32237,1.87941 2.32282,0 3.6097,-0.33655 4.7666,-1.24657 z"
       id="path213" /><path
       style="fill:#ffffff;stroke:none;stroke-width:5.55146"
       d="m 26.975609,455.56384 c -0.55501,-0.10615 -1.009109,-0.26356 -1.009109,-0.34981 0,-0.28205 27.904466,-114.59637 28.609318,-117.20183 l 0.686319,-2.53696 5.797069,0.009 c 3.188389,0.005 14.795805,0.3094 25.794259,0.67666 10.998455,0.36726 22.683375,0.71555 25.966505,0.77397 18.50218,0.32924 17.60965,0.25949 17.60672,1.37589 -0.003,1.09743 -27.60063,112.40554 -28.72744,115.86441 l -0.65149,1.99982 -36.531521,-0.20902 c -20.092337,-0.11497 -36.98562,-0.29588 -37.54063,-0.40203 z"
       id="path214" /><path
       style="fill:#ffffff;stroke:none;stroke-width:2.77573"
       d="m 90.360232,477.60467 c -0.205305,-0.1345 -6.114922,-0.19746 -13.132482,-0.13989 -13.59246,0.11149 -54.167981,-0.39245 -57.331391,-0.71204 -1.093212,-0.11045 -1.952742,-0.35039 -2.036427,-0.56847 -0.220749,-0.57526 1.093082,-5.14011 1.69243,-5.88028 l 0.528489,-0.65265 25.327738,0.0429 c 27.957509,0.0474 56.821061,0.3586 60.204991,0.64917 l 2.18318,0.18746 -0.77252,3.58158 -0.77252,3.58159 -2.08826,-0.0655 c -1.14854,-0.036 -2.49118,-0.0675 -2.98365,-0.0698 -0.49247,-0.002 -1.365479,-0.0168 -1.940026,-0.0321 -0.574546,-0.0153 -1.514712,-0.0278 -2.089258,-0.0278 -0.574546,0 -1.514713,0.0125 -2.089259,0.0278 -0.574546,0.0153 -1.447558,0.001 -1.940026,-0.0316 -0.492468,-0.0326 -1.23117,0.0337 -1.64156,0.14741 -0.41039,0.11371 -0.91414,0.0967 -1.119449,-0.0378 z"
       id="path215" /><path
       style="fill:#ffffff;stroke:none;stroke-width:2.77573"
       d="M 52.205412,98.22148 C 50.923627,97.902184 50.599095,97.658374 50.244705,96.748451 50.042964,96.230464 49.92808,88.134447 49.91248,73.336114 c -0.022,-20.866483 0.0153,-22.659697 0.481002,-23.125398 0.439159,-0.439159 1.436242,-0.519751 7.663041,-0.619389 l 7.158192,-0.114542 0.06863,7.421267 c 0.03775,4.081697 0.08197,10.174611 0.09827,13.53981 0.0163,3.365199 0.05964,10.147828 0.09631,15.072509 0.07827,10.511191 0.0073,12.032398 -0.578597,12.403092 -0.448914,0.284026 -2.457386,0.393115 -4.758525,0.258454 -1.997292,-0.116882 -2.33606,-0.110301 -4.775449,0.09276 -1.23117,0.102487 -2.653143,0.08305 -3.159941,-0.0432 z"
       id="path216" /><path
       style="fill:#ffffff;stroke:none;stroke-width:2.77573"
       d="m 78.449097,74.840228 c 0.08152,-12.681053 0.168962,-23.19077 0.194307,-23.354926 0.02534,-0.164156 -0.04851,-0.802126 -0.164114,-1.417712 L 78.269094,48.948345 H 81.7405 85.211905 V 73.422517 97.89669 h -3.455517 -3.455517 z"
       id="path217" /><path
       style="fill:#ffffff;stroke:none;stroke-width:2.77573"
       d="m 100.28441,97.397046 c -2.275476,-0.28396 -2.093907,0.206521 -2.047571,-5.53118 0.02293,-2.839315 -0.08431,-5.317534 -0.238342,-5.508143 -0.17707,-0.219109 -0.164962,-0.417625 0.03293,-0.53993 0.392004,-0.24227 0.411696,-2.029327 0.02661,-2.414416 -0.174093,-0.174092 -0.320354,-6.984014 -0.373082,-17.370739 l -0.08673,-17.084384 3.457165,4.5e-5 3.45717,4.6e-5 0.0689,24.324939 0.0689,24.32494 -1.7353,-0.04472 c -0.95441,-0.0246 -2.13823,-0.095 -2.6307,-0.156459 z"
       id="path218" /><path
       style="fill:#ffffff;stroke:none;stroke-width:2.77573"
       d="m 119.66426,96.329746 c -0.003,-0.697663 -0.11484,-6.708013 -0.24958,-13.356332 -0.13474,-6.64832 -0.27821,-16.385757 -0.31882,-21.63875 -0.0406,-5.252993 -0.17725,-10.188867 -0.30364,-10.968608 l -0.22981,-1.417711 h 3.6204 3.62041 v 24.324939 24.32494 h -3.06718 -3.06717 z"
       id="path219" /><path
       style="fill:#ffffff;stroke:none;stroke-width:2.77573"
       d="m 138.88163,95.318992 c -0.12385,-5.376391 -0.26643,-20.214648 -0.22617,-23.538035 0.11534,-9.521667 0.0549,-16.998718 -0.15977,-19.773341 l -0.23673,-3.059271 h 3.14435 3.14435 l 0.17824,3.357737 c 0.098,1.846755 0.24024,7.521331 0.31601,12.610168 0.0758,5.088837 0.23066,14.449796 0.34421,20.802133 l 0.20644,11.549699 -2.35842,-0.03036 c -1.29713,-0.0167 -2.79492,0.07283 -3.32843,0.198945 l -0.97001,0.229311 z"
       id="path220" /><path
       style="fill:#ffffff;stroke:none;stroke-width:2.77573"
       d="m 286.3482,98.069328 c -0.0659,-0.06415 -28.72392,-0.206881 -63.68454,-0.317188 -34.96062,-0.110304 -63.65096,-0.253821 -63.7563,-0.318929 -0.10535,-0.06511 -0.15709,-1.296975 -0.11499,-2.737486 0.0421,-1.440511 -0.0426,-4.432291 -0.18821,-6.648397 -0.14562,-2.216107 -0.31167,-11.919967 -0.369,-21.564134 l -0.10422,-17.534849 h 20.94823 c 11.52153,0 22.56711,0.08705 24.54574,0.193435 l 3.59749,0.193436 0.19264,5.850491 c 0.24965,7.581692 1.0206,13.193324 2.25079,16.383334 1.16753,3.027496 3.34846,6.403276 5.1763,8.012208 3.01565,2.654477 8.15855,4.563138 13.55711,5.031379 1.35346,0.117393 2.38643,0.333831 2.29549,0.480977 -0.0909,0.147144 0.58128,0.267533 1.49383,0.267533 0.91254,0 1.65917,-0.13431 1.65917,-0.298466 0,-0.164156 0.20147,-0.298465 0.4477,-0.298465 0.24623,0 0.4477,0.134309 0.4477,0.298465 0,0.164156 0.33577,0.298466 0.74616,0.298466 0.41039,0 0.74617,-0.13431 0.74617,-0.298466 0,-0.164156 0.66362,-0.298465 1.47471,-0.298465 0.81109,0 1.55772,0.134309 1.65917,0.298465 0.2568,0.415503 3.23802,0.374213 4.18659,-0.05798 0.60639,-0.276289 0.91068,-0.276289 1.35309,0 0.69151,0.431856 2.66813,0.474811 2.66813,0.05798 0,-0.195217 5.65291,-0.302068 16.34098,-0.308879 17.85592,-0.01138 18.80568,-0.08218 23.30522,-1.737326 6.9316,-2.549782 11.19545,-6.72003 13.92505,-13.61936 1.1621,-2.937326 1.87762,-6.743528 2.24503,-11.942495 0.17402,-2.46234 0.38948,-5.316417 0.4788,-6.342392 l 0.16241,-1.86541 4.22938,-0.05746 c 2.32616,-0.0316 5.30385,-0.09243 6.6171,-0.135173 1.31325,-0.04274 38.9255,-0.157699 83.58279,-0.255459 l 81.19507,-0.177746 0.55544,1.133699 c 0.82836,1.690777 0.9596,5.289571 1.02335,28.061451 l 0.057,20.361509 -97.41343,0.0042 c -53.57738,0.0023 -97.46731,-0.04832 -97.53318,-0.112471 z"
       id="path221" /><path
       style="fill:#ffffff;stroke:none;stroke-width:2.77573"
       d="m 230.86308,71.027237 c -3.14269,-0.270166 -3.6447,-0.469381 -5.88867,-2.336836 -2.98563,-2.484661 -3.19245,-3.152478 -3.3179,-10.713474 l -0.10524,-6.342393 7.71518,-0.01591 c 4.24334,-0.0087 13.08755,-0.07677 19.65379,-0.151147 20.77279,-0.23531 28.96828,-0.248287 29.29496,-0.04639 0.17444,0.107808 1.04146,0.08105 1.9267,-0.05945 0.88525,-0.140509 2.01248,-0.195167 2.50494,-0.121463 0.49247,0.0737 2.37281,0.0064 4.17852,-0.149466 1.80572,-0.155911 3.31225,-0.258472 3.34786,-0.227914 0.0356,0.03056 -0.0642,1.973411 -0.22183,4.317452 -0.47949,7.130981 -1.41651,9.588254 -5.03258,13.197618 l -2.27197,2.267752 -5.14853,-0.09846 c -3.40609,-0.06513 -5.14853,0.0059 -5.14853,0.209816 0,0.207093 -2.55127,0.270653 -7.77329,0.193656 -4.27531,-0.06304 -7.83931,-0.0078 -7.92,0.122751 -0.0807,0.13055 -0.46068,0.0943 -0.84445,-0.08055 -0.49802,-0.226913 -0.87381,-0.223691 -1.31281,0.01125 -0.69682,0.372927 -19.35482,0.391202 -23.63615,0.02315 z"
       id="path222" /><path
       style="fill:#ffffff;stroke:none;stroke-width:3.92547"
       d="m 346.75021,139.89712 v -3.08563 l 64.75618,0.079 c 35.6159,0.0435 64.89942,0.22221 65.07448,0.39724 0.52454,0.52442 -1.52579,2.36901 -3.95348,3.55677 -2.20409,1.07836 -2.60618,1.12337 -12.8972,1.44369 -5.84221,0.18185 -33.6527,0.41252 -61.80109,0.5126 l -51.17889,0.18196 z"
       id="path223" /><path
       style="fill:#ffffff;stroke:none;stroke-width:1.96274"
       d="m 495.16532,79.723001 c -0.27719,-0.210026 -0.37427,-0.801637 -0.47617,-2.901896 -0.18094,-3.729589 0.18092,-13.610854 0.5131,-14.011113 0.32316,-0.389385 1.3457,-0.627545 1.91651,-0.446377 0.23603,0.07491 0.59431,0.438133 0.79617,0.807154 0.328,0.599623 0.36702,1.422511 0.36702,7.74102 0,3.888541 -0.0728,7.411691 -0.1618,7.829222 -0.11011,0.516641 -0.33239,0.836878 -0.69583,1.002474 -0.7025,0.320082 -1.82294,0.309923 -2.259,-0.02048 z"
       id="path224" /></g></svg>
