<?xml version="1.0" encoding="UTF-8" standalone="no"?>
<!-- Created with Inkscape (http://www.inkscape.org/) -->

<svg
   width="507.97821"
   height="504.71454"
   viewBox="0 0 134.40257 133.53906"
   version="1.1"
   id="svg1"
   xml:space="preserve"
   xmlns="http://www.w3.org/2000/svg"
   xmlns:svg="http://www.w3.org/2000/svg"><defs
     id="defs1" /><g
     id="layer1"
     transform="translate(-1.1083626,-1.5095894)"><path
       style="fill:#000000;stroke-width:1.29867"
       d="m 44.392526,132.16401 c -3.857358,1.20455 -8.904694,2.31161 -12.171347,2.66966 -5.115266,0.56066 -8.465424,0.0389 -11.129224,-1.73314 -1.744639,-1.16062 -3.144822,-3.00275 -4.108726,-5.4056 -1.791882,-4.46702 -4.073499,-15.41815 -4.612359,-22.13864 -0.763419,-9.521159 0.461567,-17.01524 4.194114,-25.658274 0.866734,-2.006993 1.570517,-3.877019 1.603637,-4.261018 0.03236,-0.376399 -0.02529,-1.018114 -0.128321,-1.426062 -0.103045,-0.407939 -0.206737,-0.968098 -0.230439,-1.244794 -0.04612,-0.538389 0.613804,-2.107188 0.941927,-2.239178 0.160598,-0.06459 -0.01307,-0.651097 -0.923114,-3.117614 -0.61651,-1.670921 -1.190676,-3.305515 -1.275934,-3.632427 -0.152133,-0.583322 -0.174735,-0.599045 -1.214688,-0.844522 -1.504378,-0.355105 -3.5476,-1.64616 -5.9191062,-3.740122 C 8.0043995,58.143283 7.1785362,57.532121 6.5003468,57.232428 5.5136007,56.796388 4.3751793,56.65388 3.7689931,56.89051 3.2099075,57.108691 2.2912058,56.877545 1.8206385,56.400188 1.2895466,55.861433 0.98582049,54.849828 1.1555018,54.18485 c 0.2316639,-0.907893 0.7392753,-1.334352 2.1936361,-1.842947 2.0072372,-0.701937 3.0051051,-0.593068 6.3885984,0.696983 2.1046657,0.802461 2.8646697,0.857326 4.0042977,0.289069 1.519121,-0.75749 2.575638,-2.420512 3.123246,-4.916196 0.128723,-0.586599 0.430058,-1.368568 0.669653,-1.737711 L 17.970561,46.002885 68.599834,25.59459 119.22911,5.1863006 119.41502,4.5123207 c 0.30269,-1.0973445 0.83429,-1.5329735 2.87833,-2.3586806 1.50424,-0.6076208 1.84864,-0.6992998 2.32782,-0.6194681 1.16361,0.1938706 1.22765,0.2881986 2.8673,4.2231792 l 1.48216,3.5571852 0.6637,-0.2633458 c 0.73863,-0.29306 1.80429,-0.2978661 2.38178,-0.010618 0.79556,0.3956752 1.14981,0.9949524 2.3686,4.0068184 1.34235,3.316053 1.39218,3.681121 0.63596,4.623539 -0.40473,0.504405 -0.61431,0.616506 -2.80359,1.499674 l -2.36617,0.954481 0.78381,1.948512 c 0.70018,1.740594 0.77678,2.029115 0.71821,2.703726 -0.039,0.44724 -0.22043,0.952932 -0.44523,1.240055 -0.36911,0.471404 -0.66459,0.601743 -10.66743,4.705344 l -10.28781,4.220511 -0.55467,0.633592 c -0.37946,0.43344 -0.69207,1.074624 -0.98957,2.029696 -1.17393,3.768614 -3.21082,9.613893 -4.00334,11.488421 -1.07813,2.550049 -1.63363,3.167595 -3.41043,3.791353 -2.091821,0.734355 -4.501321,0.147188 -7.764349,-1.892069 -1.188538,-0.742788 -1.877163,-1.065242 -2.462545,-1.153109 l -0.812627,-0.121964 -5.016795,2.018076 -5.016795,2.018076 -0.968323,0.858054 c -1.252031,1.109454 -1.432615,1.374399 -1.325776,1.945107 0.156045,0.83357 -0.02671,2.903181 -0.328973,3.725469 -0.16298,0.44336 -0.627001,1.170529 -1.04353,1.635293 l -0.750058,0.836915 -3.221231,1.389404 c -2.616724,1.128651 -3.308526,1.477745 -3.686372,1.860151 -0.613029,0.620428 -0.884426,1.217513 -0.925326,2.035773 -0.04138,0.828027 0.246712,1.570776 1.298661,3.348089 2.031965,3.433072 2.58272,7.444551 1.534991,11.180256 -0.815828,2.908855 -2.817608,5.581359 -5.560313,7.423364 -1.574445,1.057403 -4.632171,2.370758 -6.282382,2.698422 -4.325542,0.85883 -7.833628,-0.333157 -10.567341,-3.590613 -0.955626,-1.138723 -1.551785,-1.50937 -2.316971,-1.440554 -1.965609,0.176805 -3.999328,1.794906 -5.008156,3.984682 -1.421426,3.085365 -1.510397,6.992403 -0.287344,12.618063 1.227304,5.64521 3.34867,10.67345 5.431366,12.87386 0.305901,0.32319 0.945593,0.84993 1.42154,1.17051 1.446042,0.97405 1.900885,1.45002 2.572036,2.69151 0.735952,1.36136 1.134623,1.70021 2.405887,2.04486 1.047879,0.28409 1.798454,0.75378 2.193125,1.37236 1.214061,1.90288 -0.821243,3.97057 -6.129092,6.2266 -1.349524,0.57367 -3.142735,1.25861 -3.985309,1.52111 z m 4.012205,-6.3521 c -0.02641,-0.0657 -0.217168,-0.18176 -0.423886,-0.25795 -0.206715,-0.0763 -0.655831,-0.42417 -0.998023,-0.77328 l -0.622168,-0.63476 -2.836658,1.13829 c -6.375465,2.559 -11.504887,3.93116 -15.403232,4.12074 -2.191067,0.10661 -3.477318,-0.0456 -4.755658,-0.56257 -0.58591,-0.23693 -1.077136,-0.403 -1.091614,-0.36903 -0.01446,0.0339 0.383041,0.37156 0.883359,0.75023 2.721021,2.05941 7.707599,1.98338 16.102789,-0.24556 4.158209,-1.104 9.26355,-2.87171 9.145,-3.16643 z m -5.662236,-5.83384 c -2.317785,-2.50458 -4.841716,-8.39483 -6.142753,-14.33571 -0.256513,-1.17132 -0.501023,-2.32898 -0.543361,-2.57259 -0.166068,-0.95563 -0.194444,0.22491 -0.05555,2.31079 0.296697,4.45548 1.047219,8.44826 2.19298,11.66666 1.002209,2.8152 1.833706,3.91541 3.074502,4.06811 0.400109,0.0484 1.815426,-0.25822 1.979902,-0.4301 0.04158,-0.0435 -0.18599,-0.36167 -0.505727,-0.70716 z m -6.038605,3.20932 c 0.02313,-0.0542 -0.201221,-0.46272 -0.498538,-0.90771 -0.732441,-1.09624 -2.033478,-4.36634 -2.634331,-6.62127 -0.526178,-1.97469 -1.175627,-5.35341 -1.490991,-7.7568 l -0.192905,-1.47017 -0.521237,-0.27724 c -0.69598,-0.37018 -1.58381,-1.16083 -2.314365,-2.061 -0.804429,-0.99122 -2.465693,-5.106728 -2.986955,-7.399619 -0.529263,-2.32826 -0.854906,-2.313234 -1.995738,0.09198 -2.303434,4.856449 -3.264762,11.893679 -2.652375,19.416129 0.239484,2.94173 0.546945,4.42753 1.200181,5.7999 0.976674,2.05186 2.1739,2.80533 4.663736,2.93516 1.838874,0.0959 3.642734,-0.19322 7.714703,-1.23643 0.81864,-0.20977 1.528573,-0.38875 1.577598,-0.39784 0.04921,-0.009 0.108061,-0.0608 0.131144,-0.11511 z m -8.788666,-1.22117 c -3.243283,0.12992 -5.726392,-3.69342 -4.55464,-7.01299 0.451976,-1.28042 1.339937,-2.20173 2.594951,-2.6924 2.922761,-1.14269 5.856232,0.99574 6.17318,4.50011 0.09259,1.02366 0.04141,1.31032 -0.424014,2.37521 -0.771388,1.76489 -2.10742,2.76269 -3.789477,2.83007 z m 0.38947,-4.66348 c 0.185211,-0.50252 -0.12083,-0.96931 -0.682783,-1.04143 -0.423902,-0.0538 -0.480432,-0.0262 -0.650128,0.32256 -0.224244,0.46096 -0.07647,0.89367 0.381197,1.11633 0.435251,0.21173 0.780427,0.0666 0.951738,-0.3974 z m -10.955569,-9.3981 c 0.215997,-4.21693 1.499183,-9.840765 2.995477,-13.128364 1.355378,-2.977981 3.156309,-4.499751 5.196295,-4.390828 1.448018,0.07736 2.624127,0.900894 3.550793,2.486448 0.491198,0.840457 0.649556,1.315351 1.193697,3.579775 0.651305,2.710339 0.881011,3.409952 1.399901,4.263549 l 0.307632,0.50606 0.131879,-1.996355 c 0.209311,-3.168493 0.775439,-5.444904 2.255912,-9.070994 1.432082,-3.507562 1.577751,-4.264332 1.208547,-6.278539 -0.726147,-3.961549 -4.925753,-5.884568 -8.786626,-4.023427 -3.082493,1.48593 -6.08316,5.098699 -8.023266,9.659931 -0.556977,1.309472 -1.199651,3.15795 -1.428164,4.107747 -0.511957,2.127897 -0.894156,6.755857 -0.799434,9.680177 0.06968,2.15105 0.38692,5.61118 0.609757,6.65052 l 0.113419,0.52903 0.0049,-0.65872 c 0.0027,-0.36229 0.03388,-1.2245 0.0693,-1.91601 z M 28.889874,87.406208 c -0.976726,-0.155059 -1.723577,-0.794346 -2.144106,-1.83521 -0.341641,-0.845472 -0.346863,-1.332109 -0.0236,-2.179915 0.309068,-0.810574 0.78446,-1.291878 1.600011,-1.619952 2.636084,-1.0604 4.980223,1.861972 3.486544,4.346586 -0.3745,0.62295 -0.530675,0.750162 -1.298493,1.057659 -0.682808,0.273458 -1.035512,0.323696 -1.620359,0.230832 z m 33.932402,-1.225023 c 2.761802,-2.073974 4.195753,-5.246841 3.772829,-8.348055 -0.407908,-2.991104 -1.907276,-5.515608 -3.859951,-6.499047 -1.227752,-0.61834 -1.918266,-0.609522 -3.553669,0.04537 -0.738853,0.295872 -1.763989,0.755111 -2.278082,1.020536 l -0.934707,0.482594 -0.02348,0.690205 c -0.01291,0.37961 0.07185,1.417553 0.18837,2.306539 0.391027,2.983293 1.573509,4.825086 3.613888,5.628831 0.522438,0.205807 1.279016,0.503612 1.681283,0.661795 0.605989,0.238298 0.77004,0.383696 0.956798,0.847967 0.381536,0.948459 -0.161877,2.073904 -1.203743,2.493007 -2.306776,0.92793 -5.701485,-0.849026 -7.316147,-3.829637 -0.363988,-0.671912 -0.459809,-0.759103 -0.719419,-0.654676 -0.164725,0.06626 -0.937024,0.187387 -1.716217,0.269155 -0.779193,0.08177 -1.51319,0.173844 -1.631107,0.204628 -0.332003,0.08671 -0.166578,1.175952 0.395111,2.601926 1.367602,3.471966 3.882739,4.988404 7.350519,4.431833 1.351416,-0.216896 4.013923,-1.403935 5.27773,-2.352973 z M 41.67151,84.380264 c 0.535898,-0.391576 1.169865,-0.696298 2.140985,-1.029089 l 1.379648,-0.472807 -0.09078,-1.201231 c -0.220827,-2.922041 0.866863,-5.828002 3.124871,-8.348633 2.189248,-2.443875 4.517574,-3.850952 11.135088,-6.729262 l 3.396593,-1.477361 -0.69292,-0.06435 c -0.865852,-0.08031 -1.857899,-0.470003 -2.77591,-1.090289 -0.389347,-0.263073 -0.727561,-0.490843 -0.751591,-0.506156 -0.02403,-0.01531 -0.284488,0.327168 -0.578796,0.761069 -0.294307,0.433901 -0.743998,0.948828 -0.999315,1.144281 -0.299534,0.229299 -4.429274,1.950693 -11.641137,4.852359 l -11.17692,4.496996 -0.755154,-0.07835 c -1.265046,-0.131383 -2.053184,-0.873868 -3.287884,-3.09767 l -0.353954,-0.637499 -3.558947,1.433596 -3.558946,1.433596 -0.0025,1.142051 c -0.0015,0.675322 -0.148005,1.541003 -0.358657,2.118258 -0.275631,0.755441 -0.293251,0.913494 -0.07789,0.698887 0.153047,-0.152542 0.729351,-0.571675 1.280672,-0.931416 4.006955,-2.614578 9.058223,-2.555365 12.647657,0.148266 1.501396,1.130872 2.19031,2.025389 3.048891,3.958806 0.737629,1.66106 0.912414,2.313297 1.108386,4.136222 0.03691,0.343266 0.06882,0.356209 0.338939,0.137403 0.164009,-0.132831 0.640795,-0.491855 1.059532,-0.797811 z m 0.576741,-4.78676 c -0.791104,0.03146 -1.145334,-0.09089 -1.600761,-0.552748 -1.540516,-1.562265 -0.432678,-4.062943 1.741492,-3.931007 0.790368,0.04798 1.446488,0.56828 1.787286,1.417354 0.36337,0.905314 0.226465,1.704219 -0.405482,2.366178 -0.575191,0.602512 -0.718183,0.668275 -1.522537,0.700223 z m 9.969876,-3.488527 c -0.0089,-0.425347 -0.0366,-0.765159 -0.06151,-0.755141 -0.138317,0.05564 -1.228419,1.225807 -1.545669,1.659196 l -0.371597,0.50763 0.67119,-0.16816 c 1.236789,-0.309869 1.325391,-0.394132 1.307576,-1.243525 z m 20.34723,-16.853536 c 0.401638,-0.307457 0.891665,-1.36251 0.771534,-1.661152 -0.03876,-0.09635 -1.833353,1.495827 -2.311093,2.050418 -0.178535,0.207249 -0.312471,0.406986 -0.29764,0.443852 0.05009,0.124517 1.365352,-0.47192 1.837199,-0.833118 z M 100.06242,47.893027 c 0.47546,-0.637619 2.44944,-5.723608 3.18229,-8.199195 1.07979,-3.647562 1.11134,-4.989898 0.17217,-7.324603 l -0.55863,-1.388712 -15.925959,6.428587 c -15.600285,6.297133 -18.825896,7.669836 -20.329567,8.651535 -3.882953,2.535064 -5.946241,5.509803 -6.245171,9.003951 -0.288948,3.377531 1.062484,5.632003 3.200954,5.33984 0.953822,-0.130314 1.565214,-0.611056 3.633298,-2.856919 3.2092,-3.485058 5.180415,-5.102683 7.992177,-6.558569 2.31583,-1.1991 12.578887,-5.279006 13.832313,-5.498804 2.049007,-0.359309 3.218886,-0.05713 5.829963,1.505862 1.046747,0.626583 2.154315,1.236724 2.461262,1.355871 1.22809,0.476698 2.174872,0.319006 2.7549,-0.458844 z m -1.86885,-3.521613 c -1.191641,2.15e-4 -2.166889,-0.359504 -3.017476,-1.112975 -1.41155,-1.250384 -2.059957,-3.052022 -1.764637,-4.903145 0.57952,-3.632547 4.992376,-5.105866 7.666903,-2.559746 0.4317,0.410972 0.6702,0.816906 1.09632,1.865934 0.48698,1.198776 0.53473,1.43649 0.45152,2.245746 -0.25874,2.515906 -2.19282,4.463794 -4.43263,4.464186 z m 0.606232,-4.767221 c 0.02367,-0.524897 -0.22024,-0.778213 -0.773329,-0.803158 -0.392024,-0.01768 -0.457625,0.02963 -0.576261,0.415605 -0.243787,0.793146 0.201532,1.24937 0.932497,0.95533 0.285381,-0.114801 0.403943,-0.2762 0.417093,-0.567777 z M 66.03489,55.580367 c -1.08146,-0.03065 -2.075099,-0.899621 -2.294521,-2.00663 -0.227163,-1.146071 0.415841,-2.424832 1.423008,-2.82998 1.103683,-0.443971 2.529391,0.05807 3.146377,1.107948 0.96241,1.637661 -0.346648,3.783311 -2.274864,3.728662 z M 50.505399,61.647804 49.96535,60.305281 43.943239,62.72776 c -5.850617,2.353493 -6.040499,2.420078 -6.667747,2.338349 -1.181146,-0.153919 -1.882097,-1.044157 -1.751901,-2.225018 0.134297,-1.218075 0.10687,-1.202436 6.863327,-3.920295 l 6.043556,-2.431107 -0.682167,-1.695817 -0.682166,-1.695819 -6.043557,2.431106 c -5.589057,2.248278 -6.088436,2.426497 -6.64027,2.369893 -1.670094,-0.171275 -2.347652,-2.270994 -1.162623,-3.602795 0.396122,-0.445184 0.843065,-0.646703 6.326191,-2.852367 l 5.899957,-2.373341 -0.323093,-0.803413 c -0.432411,-1.075242 -0.754724,-1.393248 -1.38219,-1.363718 -0.35822,0.01686 -2.810366,0.946176 -7.917073,3.000423 l -7.398117,2.975996 3.325565,8.267113 3.325563,8.267114 7.984476,-3.211869 7.984477,-3.211869 z m -24.852619,-1.45464 -2.586088,-6.553303 0.07112,-0.959027 c 0.09183,-1.238314 0.732208,-2.19395 1.94016,-2.895336 0.461663,-0.268061 5.210905,-2.247372 10.55387,-4.398471 l 9.714461,-3.91114 -0.312659,-0.777251 -0.312659,-0.777249 -11.152909,4.486415 -11.152907,4.486415 0.08755,0.498388 c 0.155523,0.885391 -0.124038,2.678455 -0.716927,4.598269 -1.050749,3.402409 -1.359674,5.852137 -1.057834,8.388541 0.13055,1.097058 0.303221,1.693256 0.979563,3.38223 0.45155,1.127737 0.967577,2.268534 1.146645,2.535135 l 0.325565,0.484735 2.52956,-1.017552 2.529562,-1.017553 z m 30.971911,-8.518661 c 0.956741,-3.057726 3.086072,-5.887554 6.068513,-8.064894 3.145927,-2.296694 0.728848,-1.255766 36.010528,-15.50811 l 32.095738,-12.965343 -0.33932,-0.843541 -0.33933,-0.84354 -39.00383,15.689839 -39.003817,15.689839 1.948705,4.83947 1.948703,4.839469 0.107,-0.777249 c 0.05885,-0.427485 0.287034,-1.352653 0.507082,-2.055927 z m 61.353829,-24.63575 8.51326,-3.427937 -0.3695,-0.91857 -0.36952,-0.918569 -9.39765,3.780345 -9.39766,3.780335 0.44515,1.106599 0.44514,1.106597 0.80878,-0.54038 c 0.61413,-0.410317 2.85778,-1.365433 9.32203,-3.968367 z M 16.400346,57.714606 c 0.08304,-0.486273 0.141945,-0.906609 0.1309,-0.934085 -0.01105,-0.02746 -0.494259,0.102916 -1.073798,0.289734 -0.579539,0.186822 -1.198133,0.338532 -1.374653,0.337124 -0.292409,-0.0024 -0.273967,0.02866 0.207325,0.348608 0.643998,0.428092 1.719026,0.939383 1.857768,0.883572 0.05582,-0.02245 0.169419,-0.438678 0.252461,-0.924951 z m 46.055317,-23.367393 -0.621333,-1.473984 -6.323998,2.543892 -6.323998,2.543891 0.596896,1.48384 0.596896,1.483842 6.34843,-2.553747 6.348431,-2.553745 z m 16.580436,-6.669742 -0.596896,-1.48384 -6.217999,2.501278 -6.217999,2.501278 0.596895,1.483841 0.596896,1.483841 6.217999,-2.501278 6.218,-2.50128 z m 17.266936,-6.946214 -0.552594,-1.502009 -6.535845,2.629482 -6.535847,2.629483 0.596898,1.483842 0.596895,1.483839 6.491544,-2.611315 6.491543,-2.611316 z m 28.237515,-11.3585944 -0.59689,-1.4838409 -12.01205,4.8320143 -12.012041,4.832013 0.596901,1.48384 0.59689,1.483842 12.01204,-4.832012 12.01205,-4.832015 z"
       id="path1" /><path
       style="fill:#ffffff;stroke-width:1.52139"
       d="m 58.96917,220.8652 c -1.746604,-0.77138 -3.284827,-1.61895 -5.045422,-2.78008 l -1.369854,-0.90343 1.288059,-0.21707 c 0.708432,-0.11939 2.318678,-0.5206 3.578325,-0.89158 3.81392,-1.12323 4.989512,-1.42472 4.989512,-1.2796 0,0.42467 -0.858772,5.12335 -1.069068,5.8493 -0.307142,1.06025 -0.445227,1.07321 -2.371552,0.22246 z"
       id="path2"
       transform="scale(0.26458333)" /><path
       style="fill:#ffffff;stroke-width:4.30315"
       d="m 87.347914,259.01957 c -1.940862,-2.41004 -7.264953,-15.5227 -8.299436,-20.44061 -0.942282,-4.47958 -0.921282,-14.60431 0.04186,-20.18271 0.417416,-2.41763 1.783634,-8.14359 3.03604,-12.72436 2.763948,-10.10935 3.3333,-13.22705 3.194884,-17.49475 l -0.106457,-3.28233 41.142005,-16.56304 c 22.6281,-9.10967 41.47583,-16.6719 41.88384,-16.80494 0.55761,-0.18184 0.99096,0.40911 1.74508,2.37976 0.5518,1.44192 0.94673,2.6719 0.87764,2.73328 -0.0691,0.0614 -11.26522,4.59322 -24.88029,10.07072 -30.03984,12.0854 -50.166583,20.44597 -52.113754,21.64786 -4.132254,2.55062 -6.530233,6.92383 -6.702665,12.22369 -0.08512,2.61629 0.462065,4.17253 9.498256,27.01358 5.273723,13.33053 9.418253,24.38296 9.210073,24.56094 -0.28698,0.24535 -9.882402,4.21803 -17.540088,7.26191 -0.277336,0.11024 -0.721481,-0.0693 -0.986988,-0.399 z"
       id="path3"
       transform="scale(0.26458333)" /><path
       style="fill:#ffffff;stroke-width:4.30315"
       d="m 120.30132,231.1207 c -7.08592,-17.61343 -12.21959,-30.97833 -11.98185,-31.19336 0.52516,-0.47501 48.39873,-19.55013 52.95511,-21.09985 4.17804,-1.42105 5.55652,-1.44197 6.814,-0.10344 0.90825,0.96679 3.5539,6.33121 3.24714,6.58404 -0.0744,0.0613 -8.56805,3.50115 -18.87478,7.64404 -23.99889,9.64661 -25.8807,10.51512 -27.56352,12.72141 -1.09824,1.43987 -1.3592,2.28482 -1.48423,4.80568 -0.25857,5.2136 2.3422,8.37973 6.88343,8.37973 2.719,0 5.56976,-1.02205 28.41082,-10.18582 9.67051,-3.87978 17.9167,-7.1476 18.32485,-7.26182 0.57553,-0.16106 1.27658,1.11942 3.12336,5.70485 1.30968,3.25188 2.22504,6.06065 2.03412,6.2417 -0.19092,0.18106 -8.46759,3.60142 -18.39259,7.60082 -20.63498,8.3151 -26.81955,11.11995 -28.45446,12.90474 -0.99569,1.08699 -1.15518,1.69761 -1.15676,4.42885 -0.002,3.42693 0.647,4.78796 3.18559,6.68086 1.0014,0.7467 1.95037,0.94983 4.3671,0.93481 2.90875,-0.0181 4.34023,-0.52081 24.70251,-8.67569 11.88815,-4.76109 21.79536,-8.65652 22.01601,-8.65652 0.38777,0 3.79706,8.11257 3.79557,9.03174 -5.2e-4,0.32494 -51.02064,21.19549 -58.81111,24.05757 -0.60904,0.22375 -2.97095,-5.26644 -13.14031,-30.54434 z"
       id="path4"
       transform="scale(0.26458333)" /><path
       style="fill:#ffffff;stroke-width:4.30315"
       d="m 151.84888,317.36752 c -1.19053,-7.25276 -4.88351,-15.82551 -9.09697,-21.1174 -2.4207,-3.04027 -8.28866,-7.48431 -12.63137,-9.56624 -5.82126,-2.79075 -10.25648,-3.71136 -17.68349,-3.67054 -5.02309,0.0276 -7.27542,0.25133 -10.02931,0.99618 -5.259594,1.42259 -9.992102,3.52757 -14.294206,6.35795 -2.106046,1.38558 -3.888998,2.45941 -3.962113,2.3863 -0.07312,-0.0731 0.193054,-1.37338 0.591489,-2.88947 0.398435,-1.51609 0.858435,-4.60638 1.022222,-6.86731 l 0.297795,-4.11079 12.36808,-4.9935 c 6.802443,-2.74642 12.736623,-5.10715 13.187063,-5.24606 0.6368,-0.19638 1.19489,0.44308 2.50883,2.87461 2.19903,4.06946 5.06162,7.66055 7.27311,9.12404 1.00796,0.66704 2.99501,1.36745 4.62336,1.62969 l 2.85568,0.4599 28.10126,-11.30081 c 47.32016,-19.02961 57.4831,-23.30286 59.21977,-24.90038 0.63932,-0.5881 2.03515,-2.25794 3.10185,-3.71077 l 1.93945,-2.6415 2.4117,1.62413 c 3.08953,2.08061 6.08681,3.37215 9.43959,4.06754 l 2.66614,0.55298 -11.45751,5.03457 c -22.33996,9.81646 -31.12128,14.79503 -38.52792,21.84341 -7.15817,6.81192 -11.63185,13.81374 -14.15929,22.16092 -1.10551,3.65104 -1.2558,4.92741 -1.28226,10.88929 l -0.03,6.75348 -3.71503,1.30061 c -4.98011,1.74351 -7.82297,3.19918 -10.96748,5.61585 -1.44398,1.10975 -2.7104,2.01772 -2.81428,2.01772 -0.10389,0 -0.53416,-2.10348 -0.95618,-4.6744 z m 12.07316,-17.35801 c 0.57765,-0.3704 1.67079,-1.53005 2.4292,-2.57701 1.14429,-1.57965 1.3772,-2.34444 1.36877,-4.49467 -0.0246,-6.27907 -4.07221,-9.97279 -9.96059,-9.08978 -3.71421,0.55698 -7.12898,4.66718 -7.12898,8.58082 0,3.2845 2.87784,7.40957 5.81175,8.33052 1.74743,0.54852 6.14205,0.10794 7.47985,-0.74988 z"
       id="path5"
       transform="scale(0.26458333)" /><path
       style="fill:#ffffff;stroke-width:4.30315"
       d="m 64.169634,408.79529 c -1.315495,-12.0478 -1.651746,-21.7853 -1.09071,-31.58598 1.004059,-17.53981 2.901197,-26.38414 8.425799,-39.28052 8.458886,-19.74605 22.61488,-34.77332 35.652047,-37.84637 18.16137,-4.28091 32.33671,12.35342 26.20508,30.75088 -0.63613,1.90865 -2.63179,7.25983 -4.4348,11.89151 -5.0572,12.99124 -7.12226,21.79424 -7.76006,33.07976 -0.24346,4.30796 -0.43148,5.35969 -0.89011,4.97906 -1.16442,-0.96638 -3.04438,-6.43849 -5.53823,-16.12046 -3.0414,-11.8077 -4.49738,-14.94879 -8.79084,-18.96511 -3.31748,-3.10334 -5.959071,-4.22257 -9.96604,-4.22257 -11.466545,0 -19.716497,11.68176 -25.88912,36.65845 -2.364114,9.56607 -4.031535,19.79123 -4.617809,28.31787 -0.2612,3.79884 -0.542258,6.97433 -0.624572,7.05665 -0.08231,0.0823 -0.388601,-2.03862 -0.680635,-4.71317 z m 50.608896,-78.89702 c 3.19923,-1.1007 4.87963,-2.5744 6.26667,-5.49583 1.95837,-4.1248 1.20842,-9.29251 -1.83911,-12.6728 -2.23103,-2.47464 -4.6996,-3.54851 -8.15715,-3.54851 -4.67525,0 -8.19408,2.24907 -10.10328,6.45753 -2.774799,6.11654 0.97637,14.25448 7.26144,15.75325 2.43213,0.57997 3.73548,0.48207 6.57143,-0.49364 z"
       id="path6"
       transform="scale(0.26458333)" /><path
       style="fill:#ffffff;stroke-width:4.30315"
       d="m 97.750874,471.26782 c -3.795743,-0.9638 -5.860504,-2.14282 -8.277159,-4.72641 -5.473397,-5.85151 -7.824292,-15.42015 -8.696086,-35.39494 -1.119661,-25.65397 2.827087,-49.57376 10.881988,-65.95174 1.409861,-2.86666 2.958543,-5.4236 3.441514,-5.68208 1.167763,-0.62496 1.794473,0.63689 3.435979,6.91822 2.11144,8.07956 6.38772,19.19184 9.52411,24.74921 1.59852,2.83243 7.16484,8.37226 10.16585,10.11748 l 2.08839,1.21449 1.05765,7.53911 c 2.9934,21.33733 7.66065,37.82437 14.22484,50.24913 1.38554,2.62256 2.51917,4.94487 2.51917,5.16068 0,0.39321 -11.44672,3.32011 -20.12762,5.14658 -6.06329,1.27572 -16.47681,1.61545 -20.238626,0.66027 z m 13.690396,-11.4826 c 3.13499,-1.43899 6.29172,-4.71123 8.07681,-8.37234 2.23174,-4.57717 2.58595,-6.54107 1.98568,-11.00967 -0.97059,-7.22539 -4.92191,-13.18013 -10.59406,-15.96554 -2.30273,-1.1308 -3.16484,-1.29358 -6.80132,-1.28418 -3.52112,0.009 -4.572998,0.20065 -6.810106,1.24007 -9.482525,4.40588 -13.016101,15.8835 -8.019524,26.0487 2.578013,5.24479 7.121305,9.12802 12.1672,10.39951 2.66216,0.67083 7.30012,0.18058 9.99532,-1.05655 z"
       id="path7"
       transform="scale(0.26458333)" /><path
       style="fill:#ffffff;stroke-width:4.30315"
       d="m 154.03904,456.95558 c -3.7207,-1.61991 -6.79706,-6.90348 -10.38614,-17.8379 -4.14591,-12.63085 -6.5864,-27.23897 -7.57746,-45.35665 l -0.24045,-4.39569 1.59429,7.17191 c 5.32186,23.94043 13.34542,43.68399 22.48101,55.31894 1.75486,2.23497 3.09664,4.1576 2.98173,4.27251 -0.31955,0.31954 -5.45039,1.47245 -6.4981,1.46013 -0.50897,-0.006 -1.56867,-0.29095 -2.35488,-0.63325 z"
       id="path8"
       transform="scale(0.26458333)" /><path
       style="fill:#ffffff;stroke-width:4.30315"
       d="m 98.787285,492.79598 c -2.163141,-0.46419 -4.93205,-1.27931 -6.153133,-1.81138 -2.55024,-1.11123 -6.517553,-3.73394 -6.171584,-4.07991 0.128327,-0.12832 1.450277,0.18783 2.937667,0.70258 4.281308,1.48163 9.840371,2.06558 16.327605,1.71511 15.51903,-0.83839 33.67811,-5.64629 58.88033,-15.58949 l 10.62334,-4.1913 2.38016,2.3135 c 1.30908,1.27243 2.99202,2.62333 3.73987,3.002 l 1.35971,0.6885 -1.56,0.8067 c -7.65344,3.95775 -38.98294,13.06179 -53.21362,15.46336 -12.5076,2.11077 -22.34131,2.44148 -29.150345,0.98033 z"
       id="path9"
       transform="scale(0.26458333)" /><path
       style="fill:#ffffff;stroke-width:4.30315"
       d="m 204.37268,187.11082 c -3.86547,-9.59973 -6.97638,-17.49877 -6.91312,-17.55342 0.79491,-0.68684 293.94516,-118.135068 294.20302,-117.870011 0.41993,0.431651 2.36912,5.303423 2.17513,5.436472 -0.0729,0.05003 -6.37914,2.60748 -14.01376,5.68322 -34.49036,13.895054 -175.00907,70.678809 -188.32049,76.100509 -39.99705,16.29066 -45.81707,19.01889 -54.36771,25.48574 -11.00181,8.32069 -18.05815,17.11779 -22.26128,27.75301 -0.52616,1.33136 -1.52298,4.67018 -2.21515,7.41959 l -1.2585,4.99893 z"
       id="path10"
       transform="scale(0.26458333)" /><path
       style="fill:#ffffff;stroke-width:4.30315"
       d="m 188.37329,148.92072 c -1.18213,-2.83783 -2.09404,-5.20912 -2.02647,-5.26953 0.35235,-0.31503 46.40813,-18.72113 46.84406,-18.72113 0.61594,0 4.88085,9.80812 4.46551,10.26944 -0.30844,0.3426 -46.2726,18.8809 -46.81358,18.8809 -0.17612,0 -1.2874,-2.32186 -2.46952,-5.15968 z"
       id="path11"
       transform="scale(0.26458333)" /><path
       style="fill:#ffffff;stroke-width:4.30315"
       d="m 252.00158,123.50284 c -1.13539,-2.87541 -1.84589,-5.29249 -1.61946,-5.50937 0.49007,-0.46943 44.56999,-18.154225 45.43472,-18.228343 0.70527,-0.06045 4.90094,9.919403 4.36155,10.374423 -0.37302,0.31467 -45.53798,18.50163 -45.92259,18.49203 -0.12725,-0.003 -1.14164,-2.3111 -2.25422,-5.12874 z"
       id="path12"
       transform="scale(0.26458333)" /><path
       style="fill:#ffffff;stroke-width:4.30315"
       d="m 316.2009,100.98513 c -2.11036,-4.883706 -3.28419,-8.033392 -3.07271,-8.244869 0.35191,-0.35192 48.55207,-19.71583 48.6635,-19.550057 0.59144,0.879871 3.78937,10.407324 3.57222,10.642549 -0.2994,0.324307 -47.42753,19.350217 -47.93146,19.350217 -0.15499,0 -0.70919,-0.98903 -1.23155,-2.19784 z"
       id="path13"
       transform="scale(0.26458333)" /><path
       style="fill:#ffffff;stroke-width:4.30315"
       d="m 381.55174,75.287638 c -1.82358,-4.307095 -3.42911,-8.673854 -3.24985,-8.839017 0.13982,-0.128824 82.78524,-33.452746 89.07594,-35.916808 0.89382,-0.350106 1.14518,0.0526 3.11401,4.989013 1.17793,2.953422 2.09381,5.399267 2.03527,5.435209 -0.0585,0.03594 -17.38015,6.995456 -38.49249,15.465585 -21.11233,8.470129 -41.37217,16.618576 -45.02186,18.10766 l -6.6358,2.707427 z"
       id="path14"
       transform="scale(0.26458333)" /><path
       style="fill:#ffffff;stroke-width:4.30315"
       d="m 406.13986,114.86625 c -0.77742,-1.97228 -1.27799,-3.7192 -1.11237,-3.88206 0.30074,-0.29571 68.1381,-27.647861 69.50117,-28.023001 0.52491,-0.144464 1.05541,0.647592 1.95886,2.92468 0.68144,1.717539 1.19037,3.165034 1.13095,3.216656 -0.0594,0.05162 -10.20655,4.156286 -22.54917,9.121474 -34.50592,13.881031 -42.51785,17.289701 -45.30719,19.275881 -0.73558,0.52378 -1.53346,0.95232 -1.77308,0.95232 -0.23961,0 -1.07174,-1.61368 -1.84917,-3.58595 z"
       id="path15"
       transform="scale(0.26458333)" /><path
       style="fill:#ffffff;stroke-width:4.30315"
       d="m 235.74764,227.59553 c -1.73427,-0.68792 -4.11278,-3.15303 -5.3194,-5.51308 -1.63651,-3.20087 -2.24791,-7.21061 -1.95879,-12.84642 0.50701,-9.88328 4.57185,-18.34415 12.60482,-26.23663 7.45749,-7.32706 13.01296,-10.57499 31.53339,-18.43556 16.1632,-6.86011 115.85267,-47.19573 116.03763,-46.95029 0.63729,0.84567 3.53901,9.15856 3.98085,11.4044 1.50603,7.65499 -1.33197,19.48218 -9.78883,40.79438 -4.14847,10.4546 -4.77133,11.54327 -7.35499,12.85553 -3.44581,1.75015 -5.78393,1.04998 -15.99398,-4.78956 -10.82573,-6.19167 -15.27733,-7.45066 -22.12685,-6.25787 -7.21849,1.25705 -46.83206,17.14513 -56.73157,22.75372 -8.13192,4.60716 -15.56298,10.83945 -25.05663,21.01452 -7.33539,7.8619 -11.60013,11.65526 -13.78645,12.26263 -2.0464,0.56849 -4.52306,0.54562 -6.0392,-0.0558 z m 18.41092,-18.40833 c 5.97887,-3.06615 7.26439,-11.1056 2.46859,-15.43832 -2.28973,-2.06864 -4.56879,-2.80526 -7.92759,-2.5623 -4.85808,0.3514 -7.97901,3.99189 -8.05466,9.39556 -0.0494,3.52971 1.59154,6.57134 4.47885,8.30186 2.48443,1.48906 6.46213,1.62254 9.03481,0.3032 z m 123.28283,-42.7284 c 6.41284,-2.93589 10.58367,-9.68544 10.61922,-17.18481 0.0203,-4.28679 -2.72489,-10.84145 -5.84293,-13.95096 -2.75967,-2.75212 -5.7565,-4.26274 -9.40625,-4.74139 -10.14403,-1.33037 -18.36783,4.67368 -19.94482,14.56136 -1.55742,9.765 4.7824,20.10156 13.70338,22.3422 3.03492,0.76227 7.98533,0.29488 10.8714,-1.0264 z"
       id="path16"
       transform="scale(0.26458333)" /><path
       style="fill:#ffffff;stroke-width:1.07579"
       d="m 369.3534,151.90397 c -0.56985,-0.27105 -0.84259,-0.56843 -1.04701,-1.14159 -0.21178,-0.59382 -0.20608,-1.41562 0.0158,-2.27557 0.40518,-1.57053 0.83166,-1.89907 2.28935,-1.76359 1.84209,0.1712 2.73271,1.03858 2.73271,2.66141 0,1.22326 -0.40265,1.85637 -1.49153,2.34527 -0.86398,0.38792 -1.89825,0.45995 -2.49929,0.17407 z"
       id="path17"
       transform="scale(0.26458333)" /><path
       style="fill:#ffffff;stroke-width:0.537893"
       d="m 267.3568,227.05748 c 0.002,-0.23424 0.71746,-1.19115 1.6,-2.14071 1.9824,-2.13297 7.73304,-7.21458 8.16442,-7.21458 0.0301,0 0.0657,0.0942 0.0791,0.20934 0.10479,0.89755 -0.70357,3.02441 -1.73542,4.56606 -0.68834,1.02844 -1.0845,1.40221 -2.22564,2.09987 -1.51812,0.92813 -4.13954,2.14418 -5.27197,2.4456 -0.47091,0.12534 -0.61146,0.13327 -0.61051,0.0344 z"
       id="path18"
       transform="scale(0.26458333)" /></g></svg>
