<?xml version="1.0" encoding="UTF-8" standalone="no"?>
<!-- Created with Inkscape (http://www.inkscape.org/) -->

<svg
   version="1.1"
   id="svg1"
   width="505.79013"
   height="508.72675"
   viewBox="0 0 505.79013 508.72675"
   xml:space="preserve"
   xmlns="http://www.w3.org/2000/svg"
   xmlns:svg="http://www.w3.org/2000/svg"><defs
     id="defs1" /><g
     id="g1"
     transform="translate(-4.3850961,-2.0270886)"><g
       id="g260"
       transform="matrix(1.0837264,0.05905982,-0.05803764,1.0649696,-6.9229181,-14.491572)"><path
         style="fill:#d0d0d0;fill-opacity:1"
         d="m 142.51118,426.39009 c 0.048,-1.16495 0.28494,-1.4019 0.60417,-0.60417 0.28887,0.72187 0.25334,1.58437 -0.079,1.91667 -0.33229,0.33229 -0.56864,-0.25834 -0.52522,-1.3125 z M 44.71825,361.47342 c 0.0075,-2.75 0.201713,-3.75631 0.431567,-2.23625 0.229854,1.52006 0.223712,3.77006 -0.01365,5 -0.237362,1.22994 -0.425425,-0.0138 -0.417917,-2.76375 z m 154.71399,-32.87756 c 0,-0.20765 0.7875,-0.99515 1.75,-1.75 1.58605,-1.24387 1.62142,-1.2085 0.37755,0.37756 -1.30637,1.66575 -2.12755,2.19548 -2.12755,1.37244 z M 75.30468,314.22342 c -1.24387,-1.58606 -1.2085,-1.62143 0.377556,-0.37756 1.665748,1.30637 2.195479,2.12756 1.372444,2.12756 -0.207655,0 -0.995155,-0.7875 -1.75,-1.75 z M 49.432236,288.59586 c 0,-0.20765 0.7875,-0.99515 1.75,-1.75 1.586055,-1.24387 1.621426,-1.2085 0.377555,0.37756 -1.30637,1.66575 -2.127555,2.19548 -2.127555,1.37244 z M 214.24474,141.29031 c 0.72187,-0.28888 1.58437,-0.25335 1.91666,0.0789 0.33229,0.33229 -0.25833,0.56864 -1.3125,0.52522 -1.16494,-0.048 -1.4019,-0.28494 -0.60416,-0.60416 z"
         id="path267" /><path
         style="fill:#b9b9b9;fill-opacity:1"
         d="m 66.837223,482.72342 -1.904987,-2.25 2.25,1.90499 c 2.114444,1.79021 2.70524,2.59501 1.904987,2.59501 -0.189757,0 -1.202257,-1.0125 -2.25,-2.25 z m 72.673957,-43.33333 c 0.048,-1.16495 0.28494,-1.4019 0.60417,-0.60417 0.28887,0.72187 0.25334,1.58437 -0.079,1.91667 -0.33229,0.33229 -0.56864,-0.25834 -0.52522,-1.3125 z m -94.999997,-69 c 0.04798,-1.16495 0.28494,-1.4019 0.604167,-0.60417 0.28887,0.72187 0.253344,1.58437 -0.07895,1.91667 -0.332291,0.33229 -0.56864,-0.25834 -0.525219,-1.3125 z m 72.999997,-3 c 0.048,-1.16495 0.28494,-1.4019 0.60417,-0.60417 0.28887,0.72187 0.25334,1.58437 -0.079,1.91667 -0.33229,0.33229 -0.56864,-0.25834 -0.52522,-1.3125 z m -0.26644,-36.09978 c 0.72187,-0.28888 1.58437,-0.25335 1.91666,0.0789 0.33229,0.33229 -0.25833,0.56864 -1.3125,0.52522 -1.16494,-0.048 -1.4019,-0.28494 -0.60416,-0.60416 z m 100.26644,-21.90022 c 0.048,-1.16495 0.28494,-1.4019 0.60417,-0.60417 0.28887,0.72187 0.25334,1.58437 -0.079,1.91667 -0.33229,0.33229 -0.56864,-0.25834 -0.52522,-1.3125 z m 262,-250.000004 c 0.048,-1.164943 0.28494,-1.4019 0.60417,-0.604167 0.28887,0.721875 0.25334,1.584375 -0.0789,1.916667 -0.33229,0.332292 -0.56864,-0.258333 -0.52522,-1.3125 z"
         id="path266" /><path
         style="fill:#a3a3a3;fill-opacity:1"
         d="m 142.51118,452.39009 c 0.048,-1.16495 0.28494,-1.4019 0.60417,-0.60417 0.28887,0.72187 0.25334,1.58437 -0.079,1.91667 -0.33229,0.33229 -0.56864,-0.25834 -0.52522,-1.3125 z M 44.627184,349.47342 c 0.02038,-1.65 0.244499,-2.20394 0.498042,-1.23097 0.253544,0.97297 0.23687,2.32297 -0.03705,3 -0.273923,0.67703 -0.481367,-0.11903 -0.460988,-1.76903 z m 59.617556,-18.18311 c 0.72187,-0.28888 1.58437,-0.25335 1.91666,0.0789 0.33229,0.33229 -0.25833,0.56864 -1.3125,0.52522 -1.16494,-0.048 -1.4019,-0.28494 -0.60416,-0.60416 z m 86,-54 c 0.72187,-0.28888 1.58437,-0.25335 1.91666,0.0789 0.33229,0.33229 -0.25833,0.56864 -1.3125,0.52522 -1.16494,-0.048 -1.4019,-0.28494 -0.60416,-0.60416 z M 480.51118,77.390086 c 0.048,-1.164943 0.28494,-1.4019 0.60417,-0.604167 0.28887,0.721875 0.25334,1.584375 -0.0789,1.916667 -0.33229,0.332292 -0.56864,-0.258333 -0.52522,-1.3125 z"
         id="path265" /><path
         style="fill:#8c8c8c;fill-opacity:1"
         d="m 125.30468,385.22342 c -1.24387,-1.58606 -1.2085,-1.62143 0.37756,-0.37756 0.9625,0.75485 1.75,1.54235 1.75,1.75 0,0.82304 -0.82119,0.29331 -2.12756,-1.37244 z m -88.620261,-39.75 c 0.0111,-2.2 0.215884,-2.98225 0.455078,-1.73834 0.239193,1.24391 0.230111,3.04391 -0.02018,4 -0.250293,0.95609 -0.445996,-0.0617 -0.434898,-2.26166 z m 70.016851,-6.19299 c 0.97297,-0.25354 2.32297,-0.23687 3,0.037 0.67703,0.27393 -0.11903,0.48137 -1.76903,0.46099 -1.65,-0.0204 -2.20394,-0.2445 -1.23097,-0.49804 z m 5.48097,0.0307 c 0.6875,-0.27741 1.8125,-0.27741 2.5,0 0.6875,0.27741 0.125,0.50438 -1.25,0.50438 -1.375,0 -1.9375,-0.22697 -1.25,-0.50438 z m 93.75,-5.33772 c 0.99548,-1.1 2.03497,-2 2.30997,-2 0.275,0 -0.31449,0.9 -1.30997,2 -0.99549,1.1 -2.03498,2 -2.30998,2 -0.275,0 0.31449,-0.9 1.30998,-2 z m -96.25,-2.68933 c 0.9625,-0.25152 2.5375,-0.25152 3.5,0 0.9625,0.25153 0.175,0.45733 -1.75,0.45733 -1.925,0 -2.7125,-0.2058 -1.75,-0.45733 z m 60.82894,-23.894 c 0.048,-1.16495 0.28494,-1.4019 0.60417,-0.60417 0.28887,0.72187 0.25334,1.58437 -0.079,1.91667 -0.33229,0.33229 -0.56864,-0.25834 -0.52522,-1.3125 z m -66.2065,-17.16667 c -1.24387,-1.58606 -1.2085,-1.62143 0.37756,-0.37756 1.66574,1.30637 2.19547,2.12756 1.37244,2.12756 -0.20765,0 -0.99515,-0.7875 -1.75,-1.75 z M 78.511183,236.39009 c 0.04798,-1.16495 0.28494,-1.4019 0.604167,-0.60417 0.28887,0.72187 0.253344,1.58437 -0.07895,1.91667 -0.332291,0.33229 -0.56864,-0.25834 -0.525219,-1.3125 z M 472.59013,81.973419 c 0,-1.375 0.22697,-1.9375 0.50439,-1.25 0.27741,0.6875 0.27741,1.8125 0,2.5 -0.27742,0.6875 -0.50439,0.125 -0.50439,-1.25 z"
         id="path264" /><path
         style="fill:#767676;fill-opacity:1"
         d="m 118.30468,389.22342 c -1.24387,-1.58606 -1.2085,-1.62143 0.37756,-0.37756 1.66574,1.30637 2.19547,2.12756 1.37244,2.12756 -0.20765,0 -0.99515,-0.7875 -1.75,-1.75 z m -2.12244,-49.91228 c 0.6875,-0.27741 1.8125,-0.27741 2.5,0 0.6875,0.27741 0.125,0.50438 -1.25,0.50438 -1.375,0 -1.9375,-0.22697 -1.25,-0.50438 z m 38.0625,-24.02083 c 0.72187,-0.28888 1.58437,-0.25335 1.91666,0.0789 0.33229,0.33229 -0.25833,0.56864 -1.3125,0.52522 -1.16494,-0.048 -1.4019,-0.28494 -0.60416,-0.60416 z M 69.511183,253.39009 c 0.04798,-1.16495 0.28494,-1.4019 0.604167,-0.60417 0.28887,0.72187 0.253344,1.58437 -0.07895,1.91667 -0.332291,0.33229 -0.56864,-0.25834 -0.525219,-1.3125 z"
         id="path263" /><path
         style="fill:#606060;fill-opacity:1"
         d="m 36.59013,372.97342 c 0,-1.375 0.226974,-1.9375 0.504386,-1.25 0.277413,0.6875 0.277413,1.8125 0,2.5 -0.277412,0.6875 -0.504386,0.125 -0.504386,-1.25 z m 0.03705,-20.5 c 0.02038,-1.65 0.244499,-2.20394 0.498042,-1.23097 0.253544,0.97297 0.23687,2.32297 -0.03705,3 -0.273923,0.67703 -0.481367,-0.11903 -0.460988,-1.76903 z"
         id="path262" /><path
         style="fill:#494949;fill-opacity:1"
         d="m 99.244736,339.29031 c 0.721875,-0.28888 1.584374,-0.25335 1.916664,0.0789 0.33229,0.33229 -0.25833,0.56864 -1.312498,0.52522 -1.164943,-0.048 -1.401899,-0.28494 -0.604166,-0.60416 z m -9,-12 c 0.721875,-0.28888 1.584375,-0.25335 1.916666,0.0789 0.332292,0.33229 -0.258333,0.56864 -1.3125,0.52522 -1.164943,-0.048 -1.401899,-0.28494 -0.604166,-0.60416 z m 13.937504,-0.97917 c 0.6875,-0.27741 1.8125,-0.27741 2.5,0 0.6875,0.27741 0.125,0.50438 -1.25,0.50438 -1.375,0 -1.9375,-0.22697 -1.25,-0.50438 z M 69.59013,256.97342 c 0,-1.375 0.226974,-1.9375 0.504386,-1.25 0.277413,0.6875 0.277413,1.8125 0,2.5 -0.277412,0.6875 -0.504386,0.125 -0.504386,-1.25 z M 479.51118,67.390086 c 0.048,-1.164943 0.28494,-1.4019 0.60417,-0.604167 0.28887,0.721875 0.25334,1.584375 -0.0789,1.916667 -0.33229,0.332292 -0.56864,-0.258333 -0.52522,-1.3125 z M 395.43224,26.595864 c 0,-0.207656 0.7875,-0.995156 1.75,-1.75 1.58605,-1.243871 1.62142,-1.2085 0.37755,0.377555 -1.30637,1.665748 -2.12755,2.195479 -2.12755,1.372445 z"
         id="path261" /><path
         style="fill:#333333;fill-opacity:1"
         d="M 75.872934,487.96343 C 64.81548,484.53568 54.35881,462.77665 44.479945,422.63853 38.963789,400.22622 37.264334,385.18648 37.003447,356.47342 36.76405,330.12569 36.306851,327.59196 29.280216,313.67227 c -2.342892,-4.64124 -2.81308,-6.47906 -2.072565,-8.10099 0.526794,-1.15382 4.834816,-4.27235 9.573383,-6.93005 12.881169,-7.22461 19.775603,-15.04194 23.396318,-26.52817 l 1.702907,-5.40224 -3.436237,-2.8687 c -3.869503,-3.23041 -7.847601,-3.67761 -11.489153,-1.29157 -1.323851,0.86742 -3.445518,1.42992 -4.714817,1.25 -1.80864,-0.25637 -2.307816,-0.95852 -2.307816,-3.24618 0,-2.51185 0.773236,-3.33946 5.543002,-5.93281 l 5.543001,-3.01376 5.317281,1.73919 c 2.924504,0.95656 5.501986,1.55449 5.727738,1.32874 0.971879,-0.97188 -2.12137,-11.78921 -5.313936,-18.58324 l -3.468353,-7.38093 1.707159,-6.96622 c 0.938938,-3.83141 2.660473,-7.98634 3.825633,-9.23317 1.947517,-2.08403 27.836832,-17.39383 31.869135,-18.84601 1.144645,-0.41223 2.921164,0.39724 5.132015,2.33839 1.859745,1.63288 3.696992,2.96887 4.082771,2.96887 0.385778,0 13.826368,-7.60058 29.867988,-16.89017 16.04161,-9.28959 31.46688,-18.16122 34.27839,-19.71474 3.09064,-1.70777 5.50082,-3.85518 6.09567,-5.43112 0.74437,-1.97206 5.70721,-5.33659 20.38818,-13.82205 17.06198,-9.86166 19.80662,-11.14337 22.73702,-10.61789 4.21995,0.75673 7.691,-1.39248 8.46018,-5.23839 0.73164,-3.65821 6.73516,-6.87619 9.78413,-5.24443 2.73916,1.46595 10.19619,-2.6051 9.39509,-5.12912 -1.02287,-3.22281 7.35475,-8.13062 10.0544,-5.8901 2.12905,1.76695 7.87911,-1.82254 8.27495,-5.16566 0.42041,-3.55059 7.63299,-7.690627 10.39414,-5.966257 2.77842,1.735147 9.58635,-2.209084 10.00297,-5.795302 0.40065,-3.448745 6.88647,-7.166048 9.54039,-5.468012 2.75028,1.759685 9.26106,-1.869192 9.26106,-5.161782 0,-3.469218 5.33416,-6.738006 9.72214,-5.957753 4.51436,0.802726 9.27786,-1.788847 9.27786,-5.047603 0,-3.525123 5.30953,-6.689405 10,-5.959622 3.77172,0.586838 10.63703,-2.660235 9.50325,-4.494736 -1.09959,-1.779172 1.34046,-4.631039 5.60931,-6.556022 3.13724,-1.414698 4.34029,-1.590665 4.64409,-0.679274 0.22551,0.676518 0.86474,1.230032 1.42051,1.230032 1.7536,0 35.01847,-20.019208 42.07253,-25.319772 7.61787,-5.724217 11.18869,-10.301922 13.04957,-16.729228 1.25082,-4.3202211 1.59527,-4.594832 17.20968,-13.72030084 8.89353,-5.19760926 16.81324,-9.18346146 17.92485,-9.02127186 1.1929,0.1740493 3.17242,2.3631067 4.93629,5.4588144 2.31381,4.06088033 3.61237,5.2934855 6.0606,5.7527767 2.84726,0.5341487 4.22967,2.5022317 16.03735,22.8317586 l 12.92152,22.247223 0.75067,15 c 0.41288,8.25 0.96396,17.326095 1.22463,20.169101 0.2869,3.129092 0.0124,5.771301 -0.69546,6.694994 -0.64317,0.839242 -15.11939,9.574763 -32.16939,19.412266 -126.02201,72.71217 -181.3438,104.8111 -183.47815,106.4581 -3.9043,3.01281 -5.86907,6.62664 -8.57141,15.76554 -1.38238,4.675 -3.22238,9.92028 -4.08888,11.65619 -1.47003,2.94497 -1.43447,3.53303 0.53149,8.78751 4.31506,11.53303 1.93174,26.31123 -5.47285,33.9355 -5.01412,5.16287 -10.43731,7.61792 -18.21172,8.24433 -3.68966,0.29729 -7.86839,0.97606 -9.28605,1.50839 -2.54597,0.95601 -2.57661,1.09288 -2.5,11.16797 0.0709,9.319 -0.17464,10.71841 -2.84209,16.20011 -4.35351,8.94665 -13.02944,16.91229 -25.22562,23.16044 -15.88198,8.13641 -26.5715,8.15846 -38.10585,0.0786 l -5.57073,-3.90231 -6.28342,2.67049 c -9.35889,3.97758 -14.96714,7.88903 -18.09516,12.62038 -2.35503,3.56215 -2.79849,5.27759 -2.79282,10.80346 0.007,7.19213 1.73525,11.04191 8.27122,18.42871 2.94382,3.32704 3.33655,4.36224 2.8453,7.5 -1.80825,11.54976 -1.76988,14.60814 0.22286,17.76526 1.08488,1.71878 3.92329,4.20117 6.30758,5.51642 5.86458,3.23508 7.48727,6.74659 5.90081,12.76939 -2.17452,8.25532 -2.28782,10.95619 -0.65999,15.73361 2.12641,6.24068 2.02481,9.55272 -0.38712,12.61899 -1.66284,2.11396 -35.38851,22.40702 -46.919554,28.23195 -4.043027,2.04234 -13.340152,2.82975 -17.647152,1.4946 z m 36.559306,-20.40393 21.5,-12.35187 -0.26446,-4.3671 c -0.66493,-10.98043 -0.63367,-17.6767 0.0997,-21.36711 0.78086,-3.9292 0.71108,-4.06195 -3.94205,-7.5 -7.07541,-5.22778 -8.73517,-8.00619 -9.20672,-15.41186 -0.2238,-3.51467 0.12758,-8.00982 0.78084,-9.98922 1.1567,-3.50485 1.06874,-3.73496 -3.36577,-8.80427 -5.35075,-6.11671 -7.60158,-11.98648 -7.60158,-19.82357 0,-10.27018 4.06225,-17.67929 12.70194,-23.16696 2.86107,-1.81727 5.22357,-3.57894 5.25,-3.91483 0.0707,-0.89783 -9.32469,-1.87064 -18.16273,-1.8806 -19.178885,-0.0216 -39.415658,4.00995 -50.927734,10.14582 -6.779408,3.61339 -10.162022,3.26695 -9.669619,-0.99035 0.234278,-2.02557 1.506628,-3.32318 5.308139,-5.41352 12.15641,-6.68446 33.083748,-10.69667 55.972504,-10.73112 11.23243,-0.0169 12.70792,-0.20164 11,-1.37723 -5.19404,-3.57515 -11.01602,-4.26647 -30.571688,-3.63019 -8.312714,0.27047 -10.223846,0.01 -14.260191,-1.94403 -5.321984,-2.57632 -10.245529,-8.12617 -14.208072,-16.01542 -3.383392,-6.73618 -6.60208,-10.05265 -9.756264,-10.05265 -1.32804,0 -6.037058,2.05234 -10.464484,4.56076 l -8.049864,4.56075 2.896139,6.18925 c 5.639035,12.05099 6.94192,19.88551 6.94192,41.74325 0,27.75377 1.931088,44.94712 7.539505,67.12762 6.601745,26.10897 16.682891,51.27007 22.126377,55.22429 3.535528,2.56825 8.008769,3.39681 12.834118,2.37722 2.2,-0.46486 13.675004,-6.40354 25.500004,-13.19706 z M 74.932236,415.5709 c -9.888264,-4.36478 -9.673423,-17.6676 0.333754,-20.66582 5.162455,-1.54671 9.014258,-0.23975 11.916246,4.04332 4.29782,6.34318 2.338434,13.83664 -4.348574,16.63065 -3.998252,1.67058 -4.098568,1.67048 -7.901426,-0.008 z m 6.3,-7.79748 c 1.799869,-1.79987 1.446546,-4.59769 -0.727558,-5.76123 -3.736704,-1.99982 -7.033496,1.29697 -5.033672,5.03367 1.163545,2.17411 3.96136,2.52743 5.76123,0.72756 z m 96.939274,-65.60937 c 7.19089,-2.73299 18.28724,-9.52869 22.60871,-13.84618 10.71302,-10.70318 12.25525,-25.83332 3.6318,-35.63008 -4.87366,-5.53676 -8.49011,-7.08557 -15.23814,-6.52597 -3.8252,0.31722 -7.17321,1.55946 -12.34746,4.58139 l -7.09921,4.14615 0.44815,7.79203 c 0.81714,14.20779 6.79684,21.29203 17.97229,21.29203 5.5326,0 7.84982,1.64374 6.83311,4.84712 -1.2013,3.78494 -11.19006,3.84166 -18.54852,0.10531 -4.08054,-2.07195 -9.12048,-7.18135 -11.28735,-11.44294 -1.49127,-2.93288 -1.67179,-2.99108 -9.36662,-3.01989 -4.31532,-0.0162 -8.17664,0.42957 -8.58072,0.99051 -1.05398,1.46313 -0.9356,11.94181 0.1677,14.8437 1.51856,3.99413 7.25532,9.85636 11.55841,11.81121 5.14145,2.33571 13.1874,2.35895 19.24785,0.0556 z m -37.43684,-8.22895 c -0.10866,-0.80392 -0.7098,-3.48668 -1.33587,-5.96168 -1.46246,-5.78142 -0.68001,-12.48921 2.17319,-18.63058 2.87928,-6.19748 13.35226,-16.79111 19.01039,-19.22939 2.39242,-1.03097 6.82486,-3.34343 9.84986,-5.13879 7.31077,-4.33899 15.27825,-7.00344 20.90655,-6.99147 6.01228,0.0128 13.70884,3.64922 17.95195,8.48186 l 3.34395,3.80854 4.42552,-2.15008 c 3.03038,-1.47228 6.32425,-2.15009 10.44844,-2.15009 9.59581,0 15.39643,-4.06981 18.41117,-12.91758 3.16345,-9.28421 0.96047,-20.22502 -5.01954,-24.9289 -3.67533,-2.89101 -12.74222,-5.47185 -16.40061,-4.66833 -1.67289,0.36743 -3.72997,0.118 -4.86313,-0.58968 -1.65471,-1.03338 -2.67159,-0.81171 -6.45937,1.40808 -2.47252,1.44899 -4.71312,3.46673 -4.9791,4.48387 -0.28086,1.07399 -5.46899,4.72419 -12.37472,8.70644 -6.54011,3.77141 -22.12764,12.8225 -34.63896,20.11353 -12.51131,7.29104 -23.76131,13.56899 -25,13.95102 -1.23868,0.38203 -5.25567,2.43766 -8.92663,4.56807 -3.67096,2.13041 -7.43567,3.87348 -8.36602,3.87348 -2.36682,0 -10.10405,-5.87053 -16.05333,-12.18029 -13.417804,-14.23079 -23.406174,-35.32836 -23.406174,-49.43883 0,-6.62287 0.95294,-7.65067 14,-15.09987 5.775,-3.29722 24.507654,-14.15932 41.628114,-24.13798 17.12046,-9.97867 32.04546,-18.14303 33.16666,-18.14303 1.12121,0 2.24049,0.5625 2.48728,1.25 0.58722,1.6358 9.71795,-2.94363 9.71795,-4.87394 0,-1.99539 -5.99523,-11.37606 -7.2705,-11.37606 -1.10128,0 -5.65336,2.54888 -48.02164,26.88914 -12.53568,7.20165 -23.93437,13.38059 -25.330433,13.73098 -1.76895,0.44398 -3.410921,-0.008 -5.417368,-1.49153 -1.583493,-1.17072 -3.393226,-2.12859 -4.02163,-2.12859 -0.628403,0 -6.76601,3.23745 -13.639125,7.19432 -8.863144,5.10255 -12.78417,7.9374 -13.485713,9.75 -2.249142,5.8112 -2.003806,8.45523 1.489784,16.05568 4.086557,8.89047 4.797456,12.34184 4.794083,23.27498 -0.0031,10.0484 -2.600541,19.08604 -7.616384,26.50076 l -3.568888,5.27575 3.355207,3.22425 c 1.845364,1.77334 5.20001,6.59926 7.454769,10.72426 7.860736,14.38093 9.145477,15.013 29.924058,14.72201 l 15.85378,-0.22201 6.78745,3.21499 c 4.29062,2.03232 8.521,5.05162 11.5,8.20775 4.50327,4.77104 7.93676,6.15949 7.51498,3.03894 z m 79.69418,-56.81122 c -9.38051,-9.38051 1.22044,-24.74366 12.90455,-18.70157 3.9424,2.0387 6.09884,5.79228 6.09884,10.61593 0,3.36942 -0.62962,4.7648 -3.4,7.53518 -2.89737,2.89737 -4.09141,3.4 -8.07693,3.4 -3.80837,0 -5.20611,-0.52919 -7.52646,-2.84954 z m 11.39614,-6.40046 c 1.60856,-2.56604 -0.43725,-5.25 -4.00174,-5.25 -2.25737,0 -2.96263,0.50521 -3.21778,2.30504 -0.67072,4.7314 4.72097,6.93076 7.21952,2.94496 z m -106.58021,18.18466 c 3.05794,-1.75362 5.17991,-3.6332 5,-4.42886 -0.5587,-2.47099 -31.285853,-54.49198 -32.190818,-54.499 -0.48305,-0.004 -3.338046,1.40054 -6.344435,3.12062 l -5.466163,3.12742 0.647131,4.62258 c 1.900174,13.57331 11.826505,32.60569 22.392525,42.93462 3.69205,3.6092 9.25304,8.18751 9.93401,8.17858 0.39336,-0.005 3.10585,-1.38034 6.02775,-3.05596 z m 16.18746,-11.14966 c 1.925,-0.91455 4.68321,-1.91026 6.12936,-2.21268 1.44614,-0.30243 4.82114,-2.5163 7.5,-4.91971 2.67885,-2.40342 12.74564,-8.91535 22.37064,-14.47096 9.625,-5.55561 18.14328,-10.48577 18.92951,-10.9559 1.17493,-0.70257 0.84599,-1.87468 -1.84712,-6.58175 l -3.27663,-5.72695 -3.15288,1.83986 c -30.6624,17.89302 -35.83458,20.55534 -40.11315,20.64782 -3.59385,0.0777 -4.97767,-0.45089 -7.49594,-2.8632 -4.348,-4.16505 -5.67205,-9.10215 -3.70414,-13.81201 1.71704,-4.10947 3.74588,-5.53038 26.8389,-18.79694 l 14.67855,-8.43258 -3.09188,-5.5 c -1.70054,-3.025 -3.18525,-5.62936 -3.29936,-5.78747 -0.1141,-0.1581 -8.44268,4.51917 -18.50795,10.39395 -10.06526,5.87477 -19.85825,11.03274 -21.76219,11.46215 -3.89116,0.87759 -7.64934,-0.22188 -10.77979,-3.15367 -2.07513,-1.94345 -2.1125,-1.93566 -8.72026,1.81661 -3.64991,2.07264 -6.64958,4.24492 -6.66594,4.8273 -0.0557,1.98251 2.87829,5.01906 3.70126,3.83066 0.42295,-0.61076 2.17187,-1.82897 3.88648,-2.70715 6.67475,-3.41861 9.0027,3.90117 2.38253,7.49138 -1.925,1.04396 -3.35317,2.44443 -3.1737,3.11217 0.45653,1.69857 10.22976,18.71407 10.74885,18.71407 0.23366,0 1.35211,-0.92726 2.48542,-2.06058 2.45572,-2.45572 6.73561,-2.26521 8.33856,0.37117 0.90503,1.48851 0.60175,2.24454 -1.7049,4.25 -1.54317,1.34168 -3.50381,2.43941 -4.35699,2.43941 -1.06423,0 -1.34228,0.5494 -0.88568,1.75 1.32106,3.47364 9.804,17.3289 10.41881,17.01712 0.34629,-0.17561 2.20463,-1.06757 4.12963,-1.98212 z m 26.64499,-40.38208 c 10.09525,-5.82839 18.35501,-11.04642 18.35501,-11.59563 0,-1.36971 -3.94689,-6.80729 -4.9411,-6.80729 -0.87503,0 -34.76498,19.53354 -36.8089,21.21597 -2.90042,2.38744 -0.7547,7.78403 3.09499,7.78403 1.06975,0 10.20475,-4.76869 20.3,-10.59708 z m 46.17874,-1.95633 c 0.44176,-0.35578 -2.04206,-5.06182 -7.9572,-15.07637 l -4.97578,-8.42418 -4.95291,2.77698 c -3.10147,1.73892 -4.76164,3.27886 -4.44122,4.1196 0.28143,0.73844 3.29261,6.02018 6.69152,11.7372 l 6.17983,10.39457 4.56602,-2.63353 c 2.5113,-1.44845 4.71169,-2.75087 4.88974,-2.89427 z m 32.97293,-1.17534 c 1.13102,-3.17419 2.85247,-8.4427 3.82543,-11.70779 1.24461,-4.17667 2.97097,-7.15486 5.82347,-10.04624 2.88031,-2.91956 34.8234,-21.86521 110.30444,-65.42225 l 106.25,-61.312558 v -5.33219 c 0,-2.932704 -0.3375,-5.539572 -0.75,-5.793041 -0.4125,-0.253468 -11.1,5.567591 -23.75,12.935688 C 425.2512,101.3595 421.27421,102.87197 420.62678,98.331 c -0.38519,-2.701732 -0.18104,-2.840457 28.53989,-19.393501 l 23.23444,-13.390952 -0.15007,-3.829913 c -0.0825,-2.106453 -0.50951,-4.052061 -0.94883,-4.323574 -0.43932,-0.271514 -19.37728,10.158408 -42.08437,23.177604 -100.66666,57.717626 -218.4029,125.755176 -219.66786,126.941916 -1.17042,1.09805 -1.04758,1.83829 0.80154,4.83024 l 2.1838,3.53347 8.19846,-4.80284 c 44.04043,-25.79984 44.64995,-26.07171 45.51117,-20.30004 0.37088,2.48546 0.5109,2.39158 -28.61815,19.18542 -14.61918,8.42843 -21.14129,12.71105 -20.78237,13.64637 0.28769,0.7497 2.10704,3.83925 4.04302,6.86566 3.0755,4.80779 3.93187,5.50591 6.78236,5.52908 1.79434,0.0146 6.18743,1.06924 9.76243,2.34368 3.575,1.27444 6.77905,2.17207 7.12012,1.99473 0.34108,-0.17734 1.54551,-2.9195 2.67654,-6.09368 z m 43.40334,-58.47125 c -3.165,-3.16499 -2.17806,-3.9759 21.13488,-17.36523 19.60771,-11.2613 21.69307,-11.88265 22.46993,-6.69512 0.25329,1.69135 -3.07598,3.99826 -19.69616,13.64787 -11.00053,6.38686 -20.6102,11.61248 -21.35481,11.61248 -0.74461,0 -1.89384,-0.54 -2.55384,-1.2 z m 66.73043,-39.38382 c -0.89566,-1.0792 -1.00679,-2.07158 -0.3488,-3.11472 1.24417,-1.97241 39.36773,-24.17567 41.63318,-24.24727 2.4487,-0.0774 4.02792,3.24933 2.49644,5.2589 -1.53085,2.00875 -39.07338,23.68691 -41.0213,23.68691 -0.79478,0 -2.03657,-0.71272 -2.75952,-1.58382 z m -208.33393,67.9882 c 10.12192,-5.82759 18.3966,-10.89009 18.38818,-11.25 -0.008,-0.35991 -0.40404,-1.26796 -0.87917,-2.01789 -0.6753,-1.0659 -3.78221,0.32998 -14.23468,6.3954 -7.35396,4.2674 -16.41883,9.51946 -20.14417,11.67125 -6.5544,3.78588 -7.79326,5.79686 -3.57115,5.79686 1.12062,0 10.31906,-4.76803 20.44099,-10.59562 z m 43.97543,4.0006 c 2.43543,-1.42726 4.42807,-2.74163 4.42807,-2.92082 0,-0.35201 -11.04443,-19.71611 -11.63233,-20.39485 -0.38341,-0.44266 -5.88654,2.35449 -8.74635,4.44564 -1.61914,1.18394 -1.31,2.04772 4.0631,11.35285 3.19857,5.53928 6.18544,10.08059 6.63751,10.0918 0.45206,0.0112 2.81456,-1.14736 5.25,-2.57462 z M 336.0782,125.86988 c 72.51972,-41.856949 132.41167,-76.630651 133.09321,-77.274894 0.9749,-0.921536 0.0136,-3.298763 -4.50725,-11.14646 -3.16054,-5.486309 -6.19317,-9.906093 -6.73918,-9.821743 -2.05354,0.317241 -265.45275,152.887137 -265.4723,153.770697 -0.0168,0.75754 11.14712,20.49919 11.62552,20.558 0.0803,0.01 59.48028,-34.22865 132,-76.0856 z M 321.20815,97.327498 C 394.2064,55.172241 454.08834,20.553635 454.27914,20.397262 455.22253,19.624076 448.72841,9.9753283 447.26402,9.9744359 444.06053,9.9724835 442.33293,8.6990934 440.40393,4.9179331 439.33522,2.823084 437.98672,0.81611141 437.40728,0.45799406 436.82783,0.09987671 431.7589,2.3899587 426.14299,5.5470652 412.57658,13.173711 410.43224,14.748016 410.43224,17.081351 c 0,5.898758 -8.99849,15.949016 -21.5,24.012986 -3.85,2.483402 -43.9,25.859633 -89,51.947179 -73.98064,42.793194 -82.44009,47.439324 -86.5,47.507814 -3.77029,0.0636 -6.82937,1.44195 -18.86464,8.5 -7.90055,4.63325 -14.57519,8.9579 -14.83253,9.61034 -0.42003,1.06493 7.33724,15.31375 8.33704,15.31375 0.22657,0 60.13779,-34.49067 133.13604,-76.645922 z"
         id="path260" /></g><path
       style="fill:#ffffff;stroke:none;stroke-width:4.08858"
       d="m 122.04887,349.08931 c -1.1175,-0.9414 -3.24935,-3.00149 -4.73744,-4.57797 -3.51737,-3.72625 -5.56406,-5.25917 -11.9297,-8.93504 l -5.24974,-3.03147 -16.899641,-0.94226 c -14.720446,-0.82078 -17.230663,-1.05903 -19.46671,-1.84786 -3.144112,-1.10918 -5.419094,-2.62977 -5.077216,-3.39358 0.272821,-0.60953 -2.017489,-3.00923 -2.91894,-3.05835 -0.301558,-0.0164 -1.674523,-2.22115 -3.05103,-4.89934 -4.2624,-8.29313 -7.699228,-13.84883 -10.350324,-16.73146 l -2.545037,-2.76731 3.714284,-5.0556 c 5.494482,-7.47863 8.188987,-14.02402 9.568498,-23.24338 0.400431,-2.6761 0.889296,-5.7225 1.086368,-6.76975 0.255393,-1.35717 0.191966,-2.02266 -0.220798,-2.31679 -0.423047,-0.30148 -0.431137,-0.40644 -0.03002,-0.38951 0.643726,0.0268 0.832252,-1.83746 0.300148,-2.96829 -0.203064,-0.43156 -0.570984,-2.53268 -0.817597,-4.66916 -0.272947,-2.36461 -1.144811,-5.8576 -2.228258,-8.92715 -3.941191,-11.16596 -4.077861,-11.66811 -3.920813,-14.40529 0.217299,-3.78734 1.838156,-7.20738 4.249673,-8.96693 4.692787,-3.42405 25.747522,-13.83416 27.758334,-13.72458 0.414032,0.0226 2.006355,0.88837 3.538494,1.92399 1.532139,1.03564 3.470397,2.04371 4.30724,2.24016 2.399434,0.56327 5.926585,-1.02601 44.911245,-20.23646 31.6216,-15.58215 37.28615,-18.26807 38.55954,-18.28351 1.34285,-0.0163 3.80515,3.33085 6.09144,8.28042 1.19867,2.59496 1.40109,3.41495 0.99152,4.01659 -0.79018,1.16076 -4.50264,3.24207 -6.99554,3.92192 -2.17106,0.59208 -2.27123,0.58115 -3.34803,-0.36509 -0.6105,-0.53649 -1.51074,-0.99727 -2.00056,-1.02397 -1.00935,-0.055 -8.13383,3.01631 -18.126,7.81399 -7.37823,3.5426 -63.58421,31.53378 -71.242812,35.47968 -5.619057,2.89508 -9.415283,5.83704 -9.93116,7.69636 -0.200736,0.72348 -0.648468,1.40686 -0.994959,1.5186 -0.682026,0.21996 -1.059367,3.16757 -0.410029,3.20296 0.210264,0.0115 0.435437,1.65182 0.500382,3.6453 0.440567,13.52292 7.80025,31.40592 19.421978,47.19265 2.135778,2.90121 4.372923,5.94552 4.971443,6.76514 0.598514,0.81964 1.380665,1.50618 1.73811,1.52566 0.357442,0.0195 1.717561,1.06172 3.022487,2.3161 3.226666,3.10167 7.88774,6.53064 9.47637,6.97142 1.10173,0.30567 3.05348,-0.39409 12.41623,-4.45166 6.10998,-2.64788 15.68762,-7.02911 21.28368,-9.73605 15.87189,-7.67761 57.31561,-28.52854 61.10997,-30.74532 1.87824,-1.09731 4.87519,-3.34074 6.65993,-4.98539 3.2057,-2.95412 7.82278,-5.5661 9.6618,-5.46587 0.47995,0.0261 1.52564,0.36316 2.32375,0.74892 0.95105,0.45966 3.03831,0.7807 6.05693,0.9316 3.86394,0.19316 5.19624,0.45747 8.27136,1.64095 2.01606,0.7759 4.52996,1.9094 5.58645,2.5189 3.95404,2.28116 7.04737,7.16021 8.09209,12.76354 0.57275,3.07191 0.092,10.03013 -0.90934,13.15901 -1.95916,6.1224 -6.17056,11.32759 -10.687,13.2089 -2.80198,1.16717 -7.51253,1.85276 -11.35491,1.65266 -4.31449,-0.22469 -7.19562,0.28402 -11.61762,2.05126 l -3.75076,1.49901 -3.59321,-4.08416 c -3.08549,-3.5071 -4.18009,-4.41023 -7.74696,-6.39192 -2.60436,-1.44693 -5.25395,-2.5528 -7.10316,-2.96465 -1.62214,-0.36129 -3.09345,-0.92005 -3.26958,-1.24167 -0.41429,-0.75655 -1.36627,-0.79831 -2.15137,-0.0943 -0.3413,0.30601 -1.71099,0.63938 -3.04376,0.74083 -4.38011,0.33338 -11.74065,2.67423 -18.6624,5.93512 -3.68544,1.73623 -8.32138,3.80938 -10.3021,4.60699 -4.4089,1.77538 -9.14836,5.10589 -14.61218,10.26822 -6.93508,6.55243 -9.9825,11.67312 -11.43928,19.22192 -0.76976,3.98879 -0.71378,6.5894 0.26237,12.19071 1.12787,6.47173 0.55236,7.19948 -3.19613,4.04165 z m 107.34918,-52.45979 c 2.473,-1.03508 6.42146,-4.902 7.12009,-6.97307 0.77704,-2.30345 0.84984,-5.25549 0.19703,-7.99127 -0.74421,-3.119 -3.94902,-6.8008 -6.98333,-8.02276 -8.41501,-3.3888 -16.83811,1.89332 -17.32708,10.86582 -0.20479,3.75773 0.72563,6.42242 3.20988,9.19306 2.37336,2.64695 3.79181,3.25883 8.15257,3.51677 2.87324,0.16994 4.13326,0.0382 5.63084,-0.58855 z"
       id="path268" /><path
       style="fill:#ffffff;stroke:none;stroke-width:4.08858"
       d="M 101.24244,299.84 C 86.6583,286.71695 75.489089,265.35778 73.50701,246.80076 l -0.447053,-4.18548 1.039376,-0.69864 c 1.365128,-0.9176 11.694405,-5.61289 11.881505,-5.40087 1.231056,1.39502 23.913112,43.89969 28.937622,54.22722 1.60652,3.30209 2.36392,5.35928 2.16583,5.88274 -0.16754,0.44271 -1.17289,1.35016 -2.23411,2.01656 -2.62264,1.64691 -8.68174,4.5147 -9.42548,4.4611 -0.3321,-0.0244 -2.21414,-1.49246 -4.18226,-3.26339 z"
       id="path269" /><path
       style="fill:#ffffff;stroke:none;stroke-width:4.08858"
       d="m 123.82517,288.59148 c -3.63374,-5.91088 -8.34538,-15.49844 -8.27263,-16.83369 0.0221,-0.40476 0.4316,-0.64947 1.03213,-0.61674 1.06264,0.0579 3.80591,-1.39859 5.88616,-3.12517 2.49536,-2.07111 1.34874,-5.45048 -2.1057,-6.20599 -2.51775,-0.55066 -4.46827,-0.054 -6.7028,1.70665 l -2.0887,1.64576 -2.16579,-3.97955 c -2.35594,-4.32896 -6.55426,-12.5854 -7.62429,-14.99398 -0.63663,-1.433 -0.62779,-1.54931 0.17896,-2.35449 0.46677,-0.46588 1.93649,-1.46398 3.26604,-2.21801 5.1679,-2.93089 5.59968,-8.65349 0.67317,-8.92195 -1.7981,-0.098 -3.92432,0.63721 -6.642035,2.29672 -2.038285,1.24463 -2.104164,1.25397 -2.934467,0.41598 -0.467154,-0.47148 -1.095053,-1.40327 -1.39533,-2.07064 -0.475559,-1.05694 -0.452393,-1.29728 0.179669,-1.86402 1.982405,-1.7775 12.470893,-7.05199 13.871353,-6.97567 0.37614,0.0205 1.59574,0.87835 2.71023,1.90633 2.68955,2.4808 5.41669,3.52363 9.15113,3.49927 2.58454,-0.0168 3.70033,-0.35286 9.31684,-2.80552 3.50935,-1.53249 12.25477,-5.6778 19.43428,-9.2118 7.1795,-3.534 14.13454,-6.95708 15.45565,-7.60689 1.3211,-0.64981 2.46561,-1.10718 2.54336,-1.01642 0.45935,0.53627 5.78769,11.26673 5.76859,11.61705 -0.0127,0.23374 -6.08048,3.41605 -13.48388,7.0718 -26.75409,13.211 -30.87702,15.71596 -32.75441,19.90055 -2.22934,4.96909 -0.97943,10.38566 3.45245,14.96117 2.02408,2.08967 2.9071,2.66944 4.85027,3.18457 5.55011,1.4713 10.18974,-0.28159 39.53752,-14.93769 6.19194,-3.09222 11.41306,-5.61378 11.60249,-5.60345 0.59558,0.0325 5.35844,10.142 5.30669,11.26386 -0.0433,0.9455 -1.77202,1.93597 -14.958,8.57189 -16.20796,8.15679 -25.36219,13.15172 -30.58242,16.68706 -6.06313,4.1062 -7.53866,4.88079 -11.16774,5.86261 -1.97441,0.53414 -4.75086,1.47451 -6.16987,2.08969 -1.41903,0.61517 -2.83248,1.10242 -3.141,1.08271 -0.30853,-0.0199 -1.2211,-1.10957 -2.02792,-2.422 z"
       id="path270" /><path
       style="fill:#ffffff;stroke:none;stroke-width:2.0443"
       d="m 118.71593,221.79018 c -1.47326,-0.31511 -1.52648,-1.06889 -0.15532,-2.19952 1.75874,-1.45019 2.7686,-1.97461 28.14936,-14.6176 9.9053,-4.93417 14.29242,-6.74039 15.28871,-6.29446 0.37463,0.1677 1.14376,1.67059 1.11596,2.18065 -0.0572,1.04892 -31.45521,16.7231 -40.24994,20.09309 -2.44839,0.9382 -3.08162,1.06608 -4.14877,0.83784 z"
       id="path271" /><path
       style="fill:#ffffff;stroke:none;stroke-width:2.0443"
       d="m 137.4703,257.87506 c -1.8252,-0.78357 -3.05284,-2.81475 -2.94882,-4.87896 0.0878,-1.74444 0.75303,-2.63886 2.83432,-3.81142 4.74764,-2.67475 27.18253,-13.86605 37.41458,-18.6637 2.0894,-0.97968 2.23875,-1.0169 2.70465,-0.67398 1.11904,0.8236 4.04135,5.31568 4.28889,6.59268 0.097,0.50028 -0.0432,0.67563 -1.10754,1.38495 -2.85696,1.9041 -15.01003,8.26714 -25.00271,13.09078 -6.26892,3.02614 -15.76621,7.15158 -16.68556,7.24791 -0.36532,0.0383 -1.03934,-0.0915 -1.49781,-0.28826 z"
       id="path272" /><path
       style="fill:#ffffff;stroke:none;stroke-width:2.0443"
       d="m 183.57326,220.14934 c -2.13115,-2.93397 -9.31814,-16.64983 -10.19909,-19.46419 -0.5556,-1.77501 -0.36389,-2.14273 1.78098,-3.41596 2.01001,-1.19317 5.86169,-2.96261 7.44162,-3.41864 l 0.95338,-0.2752 0.46893,0.84232 c 1.99921,3.5911 10.87674,21.13062 10.85765,21.45162 -0.0281,0.47771 -8.40063,4.74119 -10.10956,5.14824 -0.38074,0.0907 -0.62806,-0.0891 -1.19391,-0.86819 z"
       id="path273" /><path
       style="fill:#ffffff;stroke:none;stroke-width:2.0443"
       d="m 195.6264,243.693 c -2.97458,-5.64091 -5.8196,-11.09644 -6.32229,-12.12341 -0.89201,-1.82238 -0.90491,-1.8826 -0.53657,-2.50881 0.48671,-0.82744 2.9361,-2.33141 6.93766,-4.25981 l 3.18729,-1.53601 0.46343,0.83461 c 1.1506,2.0722 8.75719,16.72369 9.84196,18.95714 1.66149,3.42091 2.48372,5.52408 2.24094,5.73211 -0.26162,0.22418 -10.1121,5.17628 -10.27837,5.16722 -0.0692,-0.004 -2.55947,-4.62214 -5.53405,-10.26304 z"
       id="path274" /><path
       style="fill:#ffffff;stroke:none;stroke-width:2.0443"
       d="m 223.2635,288.93412 c -1.56406,-0.78212 -2.3392,-2.2089 -2.23534,-4.11458 0.12954,-2.3771 0.93661,-3.09245 3.34113,-2.96142 1.61841,0.0882 2.58636,0.42209 3.55449,1.22615 1.31406,1.0913 1.58537,2.572 0.73748,4.02477 -1.17006,2.00477 -3.47795,2.78511 -5.39776,1.82508 z"
       id="path275" /><path
       style="fill:#ffffff;stroke:none;stroke-width:2.0443"
       d="m 51.482936,502.15974 c -2.874747,-0.7991 -5.517038,-2.4061 -7.014703,-4.26624 -6.004107,-7.45723 -14.752321,-34.19526 -19.901293,-60.82629 -2.859915,-14.79178 -4.191029,-26.9288 -4.505622,-41.08202 -0.162253,-7.29964 -0.05888,-11.86754 0.270973,-11.97379 0.40171,-0.12939 0.459626,-1.96683 0.0755,-2.39524 -0.239415,-0.26701 -0.280552,-0.91128 -0.178156,-2.7902 0.07533,-1.38217 0.215587,-2.38566 0.323012,-2.31088 0.104432,0.0727 0.262735,-0.0307 0.351789,-0.22962 0.249035,-0.55638 0.45919,-5.39963 0.260918,-6.01311 -0.284195,-0.87931 -0.448397,-0.17713 -0.689999,2.95063 -0.121072,1.56741 -0.0552,-0.36075 0.146368,-4.28482 0.201583,-3.92406 0.402264,-6.95935 0.445955,-6.74508 0.0989,0.48502 0.390064,0.51912 0.591421,0.0693 0.197331,-0.44088 0.337682,-3.01626 0.18943,-3.47595 -0.150743,-0.46743 -0.500969,-0.47408 -0.52626,-0.0104 -0.01097,0.2012 -0.06024,0.32085 -0.109516,0.26591 -0.04926,-0.055 -0.07863,-2.32677 -0.06524,-5.04849 0.07201,-14.63519 -1.181154,-21.10784 -6.618022,-34.18217 -0.909703,-2.1876 -1.652579,-4.00367 -1.650835,-4.03566 0.0083,-0.1503 11.747693,-5.74596 13.812297,-6.58365 3.58962,-1.45647 6.201445,-2.16478 7.1994,-1.95245 2.150429,0.45755 4.629967,2.72028 6.597466,6.0206 0.57191,0.95934 1.808952,3.34649 2.748984,5.30477 2.828933,5.89331 4.323298,8.29992 7.251031,11.67755 2.382751,2.7489 4.657533,4.66798 7.142397,6.02562 3.611035,1.97292 4.370832,2.17567 9.669716,2.58027 3.079121,0.23508 4.565972,0.42235 4.318183,0.54381 -0.744853,0.36512 -0.376681,0.60373 1.051641,0.68157 1.304871,0.0712 1.443758,0.0374 1.368252,-0.33261 -0.07807,-0.38259 0.150314,-0.40915 3.22182,-0.37479 9.998828,0.11187 18.855933,1.10166 23.126887,2.58447 2.20661,0.76609 6.00454,2.98345 5.97696,3.48955 -0.013,0.2393 -0.5133,0.3456 -2.09162,0.44442 -0.94294,0.0591 -1.25545,0.0155 -1.13473,-0.15791 0.48372,-0.69501 -2.09281,-0.96263 -2.72255,-0.28281 -0.20956,0.22624 -0.763026,0.28192 -2.069782,0.20823 -1.187075,-0.0668 -1.671939,-0.16309 -1.449522,-0.2873 0.572522,-0.31984 -0.328006,-0.5767 -2.421951,-0.69082 -2.055085,-0.112 -2.948092,0.18196 -1.954428,0.64333 0.383466,0.17806 -0.08393,0.20743 -1.784975,0.1122 -1.267446,-0.0712 -2.178289,-0.17211 -2.02407,-0.22477 0.486654,-0.1662 0.336714,-0.70219 -0.247002,-0.88299 -1.007893,-0.31216 -2.924466,0.38134 -2.056939,0.7443 0.147975,0.0619 -0.821119,0.12095 -2.153542,0.13119 -13.57587,0.10445 -23.328973,0.9264 -32.924137,2.77472 -12.274469,2.36441 -22.314181,6.37085 -24.229832,9.66912 -0.590276,1.01629 -0.75607,3.19294 -0.317454,4.16775 0.376992,0.83787 1.104477,1.17513 2.709577,1.25613 1.615346,0.0818 3.966106,-0.57418 7.692566,-2.14576 6.594055,-2.78095 12.71819,-4.49147 21.340167,-5.96048 7.696127,-1.31127 20.273363,-2.29671 22.02184,-1.72544 1.299321,0.4245 1.688036,0.41907 2.663513,-0.0373 0.686967,-0.32137 1.262308,-0.37149 3.108953,-0.27085 1.277941,0.0697 2.208364,0.2063 2.133838,0.31336 -0.214853,0.30872 0.444531,0.4878 2.118781,0.57546 1.774468,0.0925 2.443659,-0.10312 1.79825,-0.52666 -0.311525,-0.20443 -0.04156,-0.24142 1.248732,-0.17111 1.235526,0.0673 1.546134,0.1409 1.245124,0.29484 -0.723674,0.37012 -0.196123,0.62951 1.464349,0.72 1.305432,0.0712 1.636831,0.0229 1.651175,-0.24023 0.01116,-0.20486 0.225237,-0.31794 0.566672,-0.29933 0.321915,0.0174 0.519867,0.14207 0.478896,0.30128 -0.05001,0.19423 0.412727,0.31594 1.627731,0.42818 1.17883,0.10889 1.70181,0.0789 1.71145,-0.0979 0.0159,-0.29239 2.43524,-0.0166 6.01657,0.68566 2.51636,0.49349 3.80346,0.89961 3.78735,1.19503 -0.0139,0.25591 -2.37084,1.7935 -6.2954,4.107 -7.491315,4.41603 -11.538337,9.49886 -13.609322,17.09253 -0.878664,3.22179 -1.24663,9.97384 -0.723287,13.27203 0.842028,5.30658 2.403751,8.81014 6.457337,14.48634 0.413116,0.57848 0.46264,0.74389 0.18638,0.62246 -0.744259,-0.32714 -0.399554,0.4277 0.895228,1.96038 0.871722,1.03191 1.417164,1.50594 1.647354,1.43171 0.49045,-0.15817 1.46186,1.58977 1.52908,2.75135 0.0339,0.58485 -0.14452,1.48262 -0.47818,2.40697 -0.97596,2.70368 -1.23234,4.19933 -1.48908,8.68679 -0.568671,9.93911 0.74603,12.85192 8.91781,19.75854 1.90715,1.61189 3.67378,3.27855 3.92585,3.7037 0.54206,0.91431 0.53019,1.71855 -0.0603,4.09183 -0.99964,4.0174 -1.53425,13.21179 -1.39503,23.99255 0.0255,1.9788 0.0119,3.62372 -0.0305,3.65535 -0.0422,0.0316 -6.03264,3.00253 -13.311894,6.60194 -25.388846,12.55421 -36.267186,17.44356 -39.834891,17.904 -1.732953,0.22366 -5.404438,-0.0224 -7.01498,-0.47002 z m 4.996158,-68.32287 c 2.59061,-0.70985 4.609544,-1.68824 6.15236,-2.98146 2.588067,-2.16938 3.653803,-4.35838 3.841315,-7.89003 0.09211,-1.73403 0.02013,-2.41748 -0.412445,-3.91872 -1.00512,-3.48822 -3.216646,-6.43472 -5.949512,-7.92671 -1.203393,-0.65701 -1.734152,-0.80606 -3.527182,-0.99061 -6.225383,-0.64072 -11.599324,2.49537 -13.277697,7.7485 -1.734738,5.42955 0.842268,11.413 6.179185,14.34721 3.685457,2.02624 4.661035,2.25107 6.993976,1.61182 z"
       id="path276" /><path
       style="fill:#ffffff;stroke:none;stroke-width:2.0443"
       d="m 186.04931,180.80374 c -0.9255,-1.25629 -3.35478,-5.95522 -5.15793,-9.97693 -1.93045,-4.30562 -2.30293,-5.43262 -1.92894,-5.83638 1.28166,-1.38359 19.87626,-11.17127 27.64318,-14.55059 4.16768,-1.81332 6.09864,-2.34615 9.21204,-2.54203 3.10361,-0.19527 4.88663,-0.76226 11.4988,-3.65667 12.03231,-5.267 51.26606,-24.6127 131.63363,-64.90697 41.44683,-20.780392 51.94309,-26.138078 56.15586,-28.664076 7.71931,-4.628518 14.56469,-10.317306 18.35848,-15.256656 2.25243,-2.932541 2.92188,-4.368603 3.59281,-7.707195 0.0876,-0.43574 0.40104,-1.112106 0.69666,-1.503033 l 0.53748,-0.710775 21.53746,1.117618 21.53747,1.11762 1.04021,1.834126 c 1.10653,1.951017 1.78192,3.503355 1.76027,4.045845 -0.013,0.334807 -3.69615,2.192093 -56.9256,28.708679 C 277.44095,136.94024 187.34978,181.65701 186.85863,181.63025 c -0.11485,-0.006 -0.47904,-0.37818 -0.80932,-0.82651 z m 33.08762,-31.66884 c 0.0847,-0.18923 0.0212,-0.44441 -0.14111,-0.56708 -0.37696,-0.28491 -1.86317,-0.19438 -2.31528,0.14103 -0.50207,0.37247 -0.0387,0.63497 1.25312,0.70953 0.76186,0.0437 1.09146,-0.0337 1.20327,-0.28348 z"
       id="path277" /><path
       style="fill:#ffffff;stroke:none;stroke-width:2.0443"
       d="m 202.15125,211.91035 c -2.21292,-3.94445 -8.68829,-16.74853 -10.04772,-19.86788 l -0.84745,-1.94457 0.49189,-0.27774 c 7.40805,-4.18285 131.23191,-66.2714 226.59125,-113.618827 43.89696,-21.795532 67.79265,-33.528374 69.12893,-33.942464 0.24551,-0.07607 0.62499,0.22179 1.18008,0.926261 2.25213,2.858262 8.58718,14.858786 9.90352,18.760345 0.5893,1.74665 0.59993,2.439159 0.0442,2.87857 -0.84554,0.668492 -42.7447,21.70073 -106.43373,53.426835 -10.51663,5.23877 -23.55073,11.73227 -28.96466,14.43004 -14.87932,7.41434 -119.46292,59.38771 -137.00694,68.08631 -21.48754,10.65386 -23.08785,11.44284 -23.43956,11.55626 -0.17355,0.056 -0.43925,-0.12699 -0.59975,-0.41314 z"
       id="path278" /><path
       style="fill:#ffffff;stroke:none;stroke-width:2.0443"
       d="m 186.26712,181.10268 c -1.0594,-1.28597 -3.75804,-6.5011 -5.83138,-11.2692 -1.58823,-3.65248 -1.82765,-4.46051 -1.44425,-4.8744 1.29494,-1.39794 19.94934,-11.1975 27.83629,-14.62302 3.81911,-1.65872 5.9871,-2.26394 8.56284,-2.39036 1.10901,-0.0544 2.86421,-0.317 3.90042,-0.58348 3.807,-0.979 14.94504,-6.07832 37.60562,-17.2169 37.11674,-18.24436 137.68031,-68.553178 152.42164,-76.251802 10.71411,-5.595423 19.60411,-12.437197 24.28487,-18.689694 1.89077,-2.525696 2.90898,-4.574431 3.27397,-6.587599 0.34463,-1.900866 0.83593,-2.66251 2.47477,-3.836493 4.61961,-3.309281 25.10769,-12.940985 27.27606,-12.822816 0.6178,0.03368 1.62429,1.485454 3.17765,4.583601 2.15078,4.289634 3.4712,5.522851 6.41802,5.994133 1.31439,0.210209 1.43692,0.282853 2.43842,1.445716 1.99564,2.317156 5.22433,7.847253 5.42638,9.294377 l 0.0925,0.662391 -18.06134,9.015009 C 425.305,63.324112 302.17822,124.59697 252.89383,149.06192 c -50.87826,25.25617 -65.7333,32.58478 -66.01767,32.56928 -0.10002,-0.005 -0.37404,-0.24329 -0.60904,-0.52852 z m 32.86426,-31.95536 c 0.22159,-0.49508 -0.0397,-0.65539 -1.12596,-0.69093 -1.82604,-0.0598 -1.93524,0.86381 -0.11392,0.96307 0.78121,0.0426 1.13357,-0.0348 1.23982,-0.27214 z"
       id="path279" /><path
       style="fill:#ffffff;stroke:none;stroke-width:2.0443"
       d="m 242.12506,255.30538 c -0.84698,-0.26896 -3.17776,-1.12706 -5.1795,-1.90691 -4.67648,-1.82186 -7.62421,-2.70615 -10.46413,-3.13918 -1.25207,-0.19091 -2.59787,-0.52164 -2.99067,-0.73496 -1.40503,-0.76303 -3.82563,-4.41059 -7.01415,-10.56946 l -1.35077,-2.60914 0.74823,-0.69445 c 1.93735,-1.79806 8.25054,-5.19376 28.45176,-15.30349 20.95166,-10.48528 23.78105,-12.00198 25.57328,-13.70861 0.62763,-0.59763 0.69872,-0.79026 0.71829,-1.94611 0.0258,-1.5264 -0.4352,-3.03121 -1.04149,-3.39947 -0.24036,-0.146 -0.90302,-0.28032 -1.47255,-0.29851 -3.30724,-0.10566 -10.25977,3.09821 -47.11615,21.71162 -5.37926,2.71668 -9.86323,4.93491 -9.96437,4.92938 -0.33161,-0.0181 -3.45986,-5.94316 -3.56696,-6.75601 -0.21992,-1.66915 -2.00164,-0.66762 27.73418,-15.58956 43.63673,-21.89767 128.15453,-63.89843 202.28593,-100.52515 36.51294,-18.040253 50.43599,-24.765895 59.57392,-28.777703 2.92875,-1.285801 3.29811,-1.397454 3.51759,-1.063353 0.43707,0.665294 0.63206,2.807229 0.50693,5.568084 l -0.12243,2.700112 -13.80214,6.852069 c -37.18937,18.462681 -41.26392,20.586991 -43.11797,22.480091 -0.94213,0.96199 -1.07622,1.39748 -0.86334,2.80368 0.26392,1.74335 0.86318,2.28443 2.59379,2.342 3.08011,0.10249 8.14264,-2.02244 26.39667,-11.07955 21.04109,-10.43996 28.3815,-13.843391 28.8148,-13.360158 0.29171,0.325347 0.49712,2.606545 0.3991,4.432212 -0.0692,1.288745 -0.14284,1.558652 -0.39432,1.446078 -0.39168,-0.17531 -0.7264,1.072008 -0.62659,2.334778 0.0827,1.04543 0.24857,1.30221 0.56394,0.87281 0.15624,-0.2127 0.1861,0.12959 0.0943,1.08009 l -0.13446,1.39147 -4.86529,2.4262 c -2.6759,1.33441 -22.0733,10.98014 -43.10533,21.43498 -119.36828,59.33689 -145.30642,72.32236 -170.64328,85.42942 -16.95774,8.77244 -22.40593,11.87281 -24.3272,13.84375 -3.08115,3.16078 -4.15459,5.0952 -7.20019,12.97523 -3.54376,9.16904 -6.21325,15.00918 -6.82394,14.92899 -0.13507,-0.0179 -0.93858,-0.25232 -1.78557,-0.52127 z m 61.64105,-65.13005 c 7.90746,-3.43388 28.79032,-13.7879 36.90815,-18.29959 3.51593,-1.95408 5.84602,-3.82294 5.89536,-4.72845 0.0584,-1.07174 -0.3335,-2.55911 -0.83268,-3.16029 -0.40449,-0.48715 -0.68126,-0.59292 -1.69642,-0.64824 -2.84712,-0.15516 -7.30023,1.70891 -24.7965,10.37977 -20.24704,10.0341 -23.44188,12.07105 -22.68554,14.46371 0.45401,1.43626 2.43934,3.06551 3.84226,3.15315 0.33366,0.0214 1.84811,-0.50119 3.36537,-1.16006 z m 74.24514,-37.27296 c 7.12843,-2.90241 32.49542,-15.5176 40.59112,-20.18626 2.81231,-1.6218 3.26775,-2.13887 3.35901,-3.81348 0.10757,-1.97395 -1.19718,-3.65006 -2.91414,-3.74364 -1.40599,-0.0766 -5.98287,1.92739 -18.64415,8.16337 -15.92229,7.84212 -27.75842,14.21832 -28.42228,15.31127 -0.4368,0.71911 -0.37657,2.1293 0.12379,2.89891 0.72709,1.11836 2.21267,2.20336 3.1059,2.26839 0.27709,0.0203 1.53743,-0.38417 2.80075,-0.89856 z"
       id="path280" /></g></svg>
