<?xml version="1.0" encoding="UTF-8" standalone="no"?>
<!-- Created with Inkscape (http://www.inkscape.org/) -->

<svg
   version="1.1"
   id="svg1"
   width="512"
   height="512"
   viewBox="0 0 512 512"
   xml:space="preserve"
   xmlns="http://www.w3.org/2000/svg"
   xmlns:svg="http://www.w3.org/2000/svg"><defs
     id="defs1" /><g
     id="g1"><g
       id="g146"
       transform="matrix(1.1970113,-1.1088168,1.1088168,1.1970113,-305.30438,223.89018)"><path
         style="fill:#d0d0d0;fill-opacity:1"
         d="m 242.51025,298.09821 c 1.95065,-0.0766 5.25292,-0.077 7.33838,-8e-4 2.08545,0.0762 0.48946,0.13883 -3.54665,0.13927 -4.03611,4.4e-4 -5.74239,-0.0619 -3.79173,-0.13847 z M 102.10793,290.5853 c 0.2943,-0.12098 0.64593,-0.1061 0.7814,0.0331 0.13547,0.13917 -0.10532,0.23815 -0.53509,0.21996 -0.47493,-0.0201 -0.57154,-0.11933 -0.24631,-0.25302 z m 27.87868,-39.29017 c 0.008,-0.69101 0.0997,-0.923 0.20305,-0.51552 0.10337,0.40747 0.0966,0.97285 -0.0151,1.25638 -0.11167,0.28354 -0.19624,-0.0498 -0.18794,-0.74086 z M 379.8519,229.06402 c 0.0196,-0.48787 0.11616,-0.58711 0.24631,-0.25302 0.11777,0.30232 0.10328,0.66353 -0.0322,0.80269 -0.13547,0.13917 -0.23183,-0.10819 -0.21412,-0.54967 z m -276.34254,-5.09524 c 9.80998,-0.0625 25.86269,-0.0625 35.67267,0 9.80999,0.0625 1.78364,0.11362 -17.83634,0.11362 -19.61997,0 -27.646319,-0.0511 -17.83633,-0.11362 z m 63.29352,-7.64315 c 0.40584,-0.46067 0.82963,-0.83759 0.94174,-0.83759 0.11212,0 -0.12821,0.37692 -0.53406,0.83759 -0.40584,0.46068 -0.82963,0.8376 -0.94175,0.8376 -0.11211,0 0.12822,-0.37692 0.53407,-0.8376 z m 29.25159,-4.89544 c 0.3924,-0.10534 1.03451,-0.10534 1.42691,0 0.3924,0.10534 0.0713,0.19152 -0.71346,0.19152 -0.7848,0 -1.10585,-0.0862 -0.71345,-0.19152 z m -30.47466,-8.08724 c 0.40585,-0.46068 0.82964,-0.8376 0.94175,-0.8376 0.11211,0 -0.12821,0.37692 -0.53406,0.8376 -0.40585,0.46067 -0.82963,0.83759 -0.94175,0.83759 -0.11211,0 0.12821,-0.37692 0.53406,-0.83759 z m 76.1557,0.10667 c 1.97301,-0.0769 5.09182,-0.0765 6.93069,8.8e-4 1.83888,0.0774 0.2246,0.14036 -3.58728,0.13988 -3.81188,-4.8e-4 -5.31641,-0.0638 -3.34341,-0.14076 z m 12.43994,0.026 c 0.2943,-0.12098 0.64593,-0.1061 0.7814,0.0331 0.13547,0.13916 -0.10532,0.23814 -0.53509,0.21996 -0.47493,-0.0201 -0.57154,-0.11933 -0.24631,-0.25302 z m -46.09419,-2.10346 c 0.50451,-0.0998 1.33008,-0.0998 1.83459,0 0.50452,0.0998 0.0917,0.1815 -0.9173,0.1815 -1.00902,0 -1.42181,-0.0817 -0.91729,-0.1815 z m 6.523,-0.016 c 1.84988,-0.0776 4.87697,-0.0776 6.72685,0 1.84988,0.0776 0.33634,0.14109 -3.36343,0.14109 -3.69976,0 -5.2133,-0.0635 -3.36342,-0.14109 z m 10.80373,0.0229 c 0.3924,-0.10533 1.0345,-0.10533 1.4269,0 0.3924,0.10534 0.0713,0.19153 -0.71345,0.19153 -0.7848,0 -1.10585,-0.0862 -0.71345,-0.19153 z"
         id="path153" /><path
         style="fill:#b9b9b9;fill-opacity:1"
         d="m 224.96275,319.34954 c 0,-0.57585 0.0925,-0.81142 0.20563,-0.5235 0.1131,0.28793 0.1131,0.75907 0,1.04699 -0.1131,0.28793 -0.20563,0.0523 -0.20563,-0.52349 z m 77.49822,-63.97106 c 11.60381,-0.0618 30.59186,-0.0618 42.19567,0 11.60382,0.0618 2.10979,0.11232 -21.09783,0.11232 -23.20763,0 -32.70166,-0.0506 -21.09784,-0.11232 z m -90.30284,-2.50172 c 0.72875,-0.0929 1.92123,-0.0929 2.64997,0 0.72875,0.0929 0.1325,0.16891 -1.32498,0.16891 -1.45748,0 -2.05373,-0.076 -1.32499,-0.16891 z m 142.69071,-5.83756 c 0.28028,-0.11618 0.73893,-0.11618 1.01922,0 0.28028,0.11618 0.051,0.21124 -0.50961,0.21124 -0.56057,0 -0.7899,-0.0951 -0.50961,-0.21124 z m 6.95617,-0.009 c 0.2943,-0.12098 0.64593,-0.1061 0.7814,0.0331 0.13547,0.13916 -0.10532,0.23815 -0.53509,0.21996 -0.47493,-0.0201 -0.57154,-0.11933 -0.24631,-0.25302 z m 2.01771,-0.0101 c 0.50713,-0.10018 1.24097,-0.0964 1.63075,0.008 0.38979,0.10482 -0.0251,0.18678 -0.92205,0.18213 -0.89691,-0.005 -1.21583,-0.0904 -0.7087,-0.19058 z m 16.02918,-1.62329 c 0.0196,-0.48787 0.11616,-0.58711 0.24631,-0.25302 0.11777,0.30232 0.10328,0.66353 -0.0322,0.80269 -0.13547,0.13916 -0.23183,-0.10819 -0.21412,-0.54967 z M 167.82209,215.32992 c 0,-0.087 0.32106,-0.41677 0.71346,-0.73289 0.64661,-0.52093 0.66103,-0.50612 0.15392,0.15812 -0.53259,0.69761 -0.86738,0.91946 -0.86738,0.57477 z m 26.1242,-2.59895 c 0.0196,-0.48788 0.11617,-0.58712 0.24632,-0.25303 0.11777,0.30232 0.10328,0.66353 -0.0322,0.8027 -0.13547,0.13916 -0.23183,-0.10819 -0.21413,-0.54967 z m -30.60876,-7.08464 c 0.76066,-0.80619 1.47474,-1.46579 1.58686,-1.46579 0.11211,0 -0.41852,0.6596 -1.17917,1.46579 -0.76066,0.80618 -1.47474,1.46578 -1.58686,1.46578 -0.11211,0 0.41851,-0.6596 1.17917,-1.46578 z m 29.05336,-4.69789 c 0.61971,-0.0963 1.537,-0.0937 2.03843,0.006 0.50143,0.0994 -0.006,0.17817 -1.12674,0.17502 -1.12114,-0.003 -1.53141,-0.0845 -0.91169,-0.18074 z"
         id="path152" /><path
         style="fill:#a3a3a3;fill-opacity:1"
         d="m 224.96275,321.86232 c 0,-0.57585 0.0925,-0.81142 0.20563,-0.5235 0.1131,0.28792 0.1131,0.75907 0,1.04699 -0.1131,0.28792 -0.20563,0.0523 -0.20563,-0.52349 z m -26.4846,-3.14098 c 0.008,-0.69101 0.0997,-0.923 0.20305,-0.51552 0.10336,0.40747 0.0966,0.97285 -0.0151,1.25639 -0.11167,0.28354 -0.19625,-0.0499 -0.18794,-0.74087 z m 0.0233,-6.28194 c 0.005,-0.92135 0.088,-1.24896 0.18553,-0.72801 0.0975,0.52094 0.0938,1.27478 -0.008,1.67518 -0.10204,0.40041 -0.18183,-0.0258 -0.1773,-0.94717 z m 0.008,-16.54246 c 0,-1.03652 0.0795,-1.46055 0.17668,-0.94229 0.0972,0.51826 0.0972,1.36632 0,1.88458 -0.0972,0.51826 -0.17668,0.0942 -0.17668,-0.94229 z m -0.0789,-7.78263 c 0.0196,-0.48787 0.11617,-0.58711 0.24631,-0.25302 0.11777,0.30232 0.10329,0.66353 -0.0322,0.80269 -0.13548,0.13916 -0.23183,-0.10819 -0.21413,-0.54967 z m -45.99898,-13.46502 c 1.06509,-0.0863 2.80795,-0.0863 3.87304,0 1.06508,0.0863 0.19365,0.15686 -1.93652,0.15686 -2.13017,0 -3.0016,-0.0706 -1.93652,-0.15686 z m 7.33838,0.003 c 0.84086,-0.0904 2.2168,-0.0904 3.05766,0 0.84086,0.0904 0.15288,0.16428 -1.52883,0.16428 -1.68171,0 -2.36968,-0.0739 -1.52883,-0.16428 z m 14.47292,0.0277 c 0.28028,-0.11618 0.73893,-0.11618 1.01922,0 0.28028,0.11618 0.051,0.21124 -0.50961,0.21124 -0.56057,0 -0.7899,-0.0951 -0.50961,-0.21124 z m 100.29118,-0.86687 c 0.95297,-0.0882 2.51237,-0.0882 3.46534,0 0.95297,0.0882 0.17327,0.16031 -1.73267,0.16031 -1.90594,0 -2.68564,-0.0721 -1.73267,-0.16031 z m 25.68908,0.0104 c 0.50712,-0.10017 1.24096,-0.0964 1.63075,0.008 0.38978,0.10483 -0.0251,0.18679 -0.92205,0.18214 -0.89692,-0.005 -1.21583,-0.0904 -0.7087,-0.19059 z m 12.63356,6.4e-4 c 0.50452,-0.0998 1.33008,-0.0998 1.8346,0 0.50451,0.0998 0.0917,0.1815 -0.9173,0.1815 -1.00903,0 -1.42181,-0.0817 -0.9173,-0.1815 z m 5.71238,-6.4e-4 c 0.50713,-0.10017 1.24097,-0.0964 1.63075,0.008 0.38979,0.10483 -0.0251,0.18679 -0.92205,0.18214 -0.89691,-0.005 -1.21582,-0.0904 -0.7087,-0.19059 z m 2.84906,0.0188 c 0.28029,-0.11618 0.73894,-0.11618 1.01922,0 0.28029,0.11618 0.051,0.21124 -0.50961,0.21124 -0.56057,0 -0.78989,-0.0951 -0.50961,-0.21124 z m 8.3576,-0.0113 c 0.3924,-0.10533 1.03451,-0.10533 1.42691,0 0.3924,0.10534 0.0713,0.19153 -0.71345,0.19153 -0.7848,0 -1.10586,-0.0862 -0.71346,-0.19153 z m 4.3062,0.003 c 0.2943,-0.12098 0.64593,-0.1061 0.78141,0.0331 0.13547,0.13916 -0.10532,0.23814 -0.53509,0.21996 -0.47494,-0.0201 -0.57154,-0.11933 -0.24632,-0.25302 z m 2.01772,-0.0101 c 0.50712,-0.10017 1.24096,-0.0964 1.63075,0.008 0.38978,0.10483 -0.0251,0.18679 -0.92205,0.18214 -0.89692,-0.005 -1.21583,-0.0904 -0.7087,-0.19059 z m 3.0529,0.008 c 0.3924,-0.10533 1.03451,-0.10533 1.42691,0 0.3924,0.10534 0.0713,0.19153 -0.71346,0.19153 -0.78479,0 -1.10585,-0.0862 -0.71345,-0.19153 z m 5.3077,-0.002 c 0.39667,-0.10618 0.94705,-0.0992 1.22306,0.0155 0.27602,0.11472 -0.0485,0.20159 -0.72121,0.19306 -0.67268,-0.009 -0.89852,-0.1024 -0.50185,-0.20858 z m 2.26,0.004 c 0.2943,-0.12098 0.64593,-0.1061 0.78141,0.0331 0.13547,0.13916 -0.10532,0.23814 -0.53509,0.21996 -0.47494,-0.0201 -0.57154,-0.11933 -0.24632,-0.25302 z m 4.47845,-0.0258 c 1.86053,-0.0778 4.79588,-0.0773 6.523,9.6e-4 1.72712,0.0783 0.20487,0.14195 -3.38278,0.14142 -3.58765,-5.3e-4 -5.00075,-0.0646 -3.14022,-0.14238 z M 207.8771,252.88024 c 0.61663,-0.096 1.62566,-0.096 2.24229,0 0.61662,0.096 0.11211,0.17447 -1.12115,0.17447 -1.23325,0 -1.73776,-0.0785 -1.12114,-0.17447 z m 142.47777,-5.86544 c 0.72374,-0.0925 2.00796,-0.094 2.85381,-0.003 0.84586,0.0907 0.25371,0.16635 -1.31589,0.16821 -1.5696,0.002 -2.26166,-0.0723 -1.53792,-0.16483 z m 8.3723,0.002 c 0.61971,-0.0963 1.53701,-0.0937 2.03844,0.006 0.50143,0.0994 -0.006,0.17817 -1.12675,0.17502 -1.12114,-0.003 -1.5314,-0.0845 -0.91169,-0.18074 z m 83.09295,-19.20841 c 0.0196,-0.48787 0.11617,-0.58711 0.24631,-0.25302 0.11777,0.30232 0.10329,0.66353 -0.0322,0.80269 -0.13547,0.13917 -0.23183,-0.10818 -0.21413,-0.54967 z M 193.94629,213.98735 c 0.0196,-0.48787 0.11617,-0.58711 0.24632,-0.25302 0.11777,0.30232 0.10328,0.66353 -0.0322,0.80269 -0.13547,0.13917 -0.23183,-0.10818 -0.21413,-0.54967 z m -24.2896,-0.59329 c 0.40585,-0.46068 0.82963,-0.83759 0.94175,-0.83759 0.11211,0 -0.12822,0.37691 -0.53406,0.83759 -0.40585,0.46068 -0.82964,0.83759 -0.94175,0.83759 -0.11212,0 0.12821,-0.37691 0.53406,-0.83759 z m -10.19219,-3.76917 c 1.33133,-1.38203 2.51233,-2.51278 2.62444,-2.51278 0.11212,0 -0.88542,1.13075 -2.21676,2.51278 -1.33133,1.38203 -2.51233,2.51278 -2.62444,2.51278 -0.11212,0 0.88543,-1.13075 2.21676,-2.51278 z m 129.13508,-0.73282 c 12.94918,-0.0614 34.13875,-0.0614 47.08794,0 12.94918,0.0614 2.35439,0.11157 -23.54397,0.11157 -25.89836,0 -36.49315,-0.0502 -23.54397,-0.11157 z m 0.61153,-9.63233 c 14.40667,-0.061 37.98121,-0.061 52.38788,0 14.40666,0.061 2.61939,0.1109 -26.19394,0.1109 -28.81333,0 -40.6006,-0.0499 -26.19394,-0.1109 z"
         id="path151" /><path
         style="fill:#8c8c8c;fill-opacity:1"
         d="m 198.51528,315.78977 c 0.003,-1.15169 0.0822,-1.57313 0.17594,-0.93653 0.0937,0.63659 0.0912,1.57888 -0.006,2.09398 -0.0968,0.51509 -0.17344,-0.006 -0.17038,-1.15745 z m 0.006,-8.16653 c 0,-1.26686 0.0764,-1.78512 0.16984,-1.15169 0.0934,0.63343 0.0934,1.66995 0,2.30338 -0.0934,0.63343 -0.16984,0.11517 -0.16984,-1.15169 z m 0.0149,-7.11954 c 0,-1.72753 0.072,-2.43425 0.15992,-1.57048 0.088,0.86376 0.088,2.2772 0,3.14097 -0.088,0.86377 -0.15992,0.15705 -0.15992,-1.57049 z m -0.026,-7.95713 c 0,-1.03652 0.0795,-1.46055 0.17668,-0.94229 0.0972,0.51826 0.0972,1.36632 0,1.88458 -0.0972,0.51826 -0.17668,0.0942 -0.17668,-0.94229 z m -0.0467,-2.93157 c 0,-0.57585 0.0925,-0.81142 0.20563,-0.5235 0.1131,0.28792 0.1131,0.75907 0,1.04699 -0.1131,0.28792 -0.20563,0.0523 -0.20563,-0.52349 z m 0.11447,-13.40149 c 0,-6.33429 0.0567,-8.92559 0.12593,-5.75845 0.0693,3.16715 0.0693,8.34976 0,11.5169 -0.0693,3.16715 -0.12593,0.57585 -0.12593,-5.75845 z m -31.04631,-1.56633 c 1.2975,-0.0834 3.31556,-0.0826 4.48457,0.002 1.16901,0.0843 0.10742,0.15251 -2.35909,0.15157 -2.46651,-9.5e-4 -3.42297,-0.0699 -2.12548,-0.15329 z m 112.32857,-0.81373 c 0.2943,-0.12098 0.64593,-0.1061 0.7814,0.0331 0.13547,0.13916 -0.10532,0.23814 -0.53509,0.21996 -0.47493,-0.0201 -0.57154,-0.11933 -0.24631,-0.25302 z m 6.70136,-0.0264 c 2.41046,-0.074 6.35484,-0.074 8.76529,0 2.41045,0.074 0.43826,0.13462 -4.38264,0.13462 -4.82091,0 -6.7931,-0.0606 -4.38265,-0.13462 z m 20.39669,0.004 c 1.07185,-0.0865 2.72299,-0.0855 3.66919,0.002 0.94621,0.0878 0.0692,0.15865 -1.94882,0.15738 -2.01805,-0.001 -2.79222,-0.0731 -1.72037,-0.1597 z m 10.00153,0.0223 c 0.2943,-0.12098 0.64593,-0.1061 0.7814,0.0331 0.13547,0.13916 -0.10532,0.23814 -0.53509,0.21996 -0.47493,-0.0201 -0.57154,-0.11933 -0.24631,-0.25302 z m 6.91251,-0.0174 c 0.73276,-0.0932 1.83352,-0.0913 2.44613,0.004 0.61261,0.0956 0.0131,0.17182 -1.33229,0.16947 -1.34537,-0.002 -1.8466,-0.0805 -1.11384,-0.17374 z m 8.35806,0.0133 c 0.39667,-0.10618 0.94704,-0.0992 1.22306,0.0155 0.27602,0.11472 -0.0485,0.20159 -0.72121,0.19306 -0.67269,-0.009 -0.89852,-0.1024 -0.50185,-0.20858 z m 9.37682,0 c 0.39666,-0.10618 0.94704,-0.0992 1.22306,0.0155 0.27602,0.11472 -0.0485,0.20159 -0.72121,0.19306 -0.67269,-0.009 -0.89852,-0.1024 -0.50185,-0.20858 z m -177.1576,-25.55856 c 0.72374,-0.0925 2.00795,-0.094 2.85381,-0.003 0.84586,0.0907 0.25371,0.16635 -1.31589,0.16821 -1.5696,0.002 -2.26166,-0.0723 -1.53792,-0.16484 z m 277.50997,-11.63343 c -3.6e-4,-4.60676 0.0592,-6.54849 0.13237,-4.31494 0.0732,2.23354 0.0734,6.00271 6.5e-4,8.37592 -0.0728,2.37322 -0.13266,0.54578 -0.13302,-4.06098 z m -359.586769,-14.97197 -0.77664,-0.94229 0.917298,0.7978 c 0.862033,0.74973 1.102893,1.08678 0.77664,1.08678 -0.07736,0 -0.490146,-0.42403 -0.917298,-0.94229 z m 111.573509,-6.42155 c 0.0196,-0.48787 0.11617,-0.58711 0.24632,-0.25302 0.11777,0.30232 0.10328,0.66353 -0.0322,0.80269 -0.13547,0.13917 -0.23183,-0.10819 -0.21413,-0.54967 z m -37.94714,-2.0078 c 0,-0.087 0.32105,-0.41677 0.71345,-0.73289 0.64662,-0.52093 0.66104,-0.50612 0.15393,0.15812 -0.53259,0.6976 -0.86738,0.91945 -0.86738,0.57477 z m 14.67676,-0.83759 c 0,-0.087 0.32105,-0.41677 0.71345,-0.7329 0.64662,-0.52092 0.66104,-0.50611 0.15393,0.15812 -0.53259,0.69761 -0.86738,0.91946 -0.86738,0.57478 z m 188.68297,-3.47834 c 0.2943,-0.12098 0.64593,-0.1061 0.7814,0.0331 0.13548,0.13917 -0.10531,0.23815 -0.53509,0.21996 -0.47493,-0.0201 -0.57153,-0.11933 -0.24631,-0.25302 z m 18.34595,-5.86315 c 0.2943,-0.12098 0.64593,-0.1061 0.7814,0.0331 0.13547,0.13917 -0.10532,0.23815 -0.53509,0.21996 -0.47493,-0.0201 -0.57153,-0.11933 -0.24631,-0.25302 z m -9.80998,-3.76044 c 0.28028,-0.11618 0.73893,-0.11618 1.01921,0 0.28029,0.11618 0.051,0.21123 -0.50961,0.21123 -0.56057,0 -0.78989,-0.0951 -0.5096,-0.21123 z"
         id="path150" /><path
         style="fill:#767676;fill-opacity:1"
         d="m 246.0217,288.07252 c 0.2943,-0.12098 0.64593,-0.1061 0.7814,0.0331 0.13547,0.13916 -0.10532,0.23814 -0.53509,0.21996 -0.47494,-0.0201 -0.57154,-0.11934 -0.24631,-0.25303 z m 2.63225,-0.004 c 0.39666,-0.10619 0.94704,-0.0992 1.22306,0.0155 0.27602,0.11472 -0.0485,0.2016 -0.72121,0.19306 -0.67269,-0.009 -0.89852,-0.10239 -0.50185,-0.20857 z M 198.5495,259.46166 c 0,-2.41855 0.0674,-3.40796 0.14974,-2.19868 0.0823,1.20927 0.0823,3.18809 0,4.39736 -0.0824,1.20927 -0.14974,0.21987 -0.14974,-2.19868 z m -25.91539,-11.20132 c 2.31027,-0.0748 5.97946,-0.0745 8.15376,6.7e-4 2.17429,0.0752 0.28408,0.13634 -4.20049,0.13597 -4.48456,-3.7e-4 -6.26354,-0.0619 -3.95327,-0.13664 z m 216.5946,-13.33317 c 0.0196,-0.48787 0.11617,-0.58711 0.24632,-0.25302 0.11776,0.30232 0.10328,0.66353 -0.0322,0.80269 -0.13547,0.13916 -0.23183,-0.10819 -0.21413,-0.54967 z m 23.53727,-4.22975 c 0.29429,-0.12098 0.64593,-0.1061 0.7814,0.0331 0.13547,0.13917 -0.10532,0.23815 -0.53509,0.21996 -0.47494,-0.0201 -0.57154,-0.11933 -0.24631,-0.25302 z m 7.72058,-0.009 c 0.50452,-0.0998 1.33008,-0.0998 1.8346,0 0.50451,0.0998 0.0917,0.18149 -0.9173,0.18149 -1.00903,0 -1.42181,-0.0817 -0.9173,-0.18149 z m 4.90592,-0.0137 c 1.18472,-0.0849 3.01931,-0.084 4.07688,0.002 1.05757,0.0859 0.0883,0.15539 -2.15403,0.1543 -2.24228,-0.001 -3.10756,-0.0714 -1.92285,-0.15628 z M 80.932607,220.1995 c -0.507111,-0.66423 -0.492691,-0.67905 0.153925,-0.15812 0.392399,0.31613 0.713453,0.64593 0.713453,0.7329 0,0.34468 -0.334787,0.12283 -0.867378,-0.57478 z m 113.013683,-3.69937 c 0.0196,-0.48787 0.11617,-0.58711 0.24632,-0.25302 0.11777,0.30232 0.10328,0.66353 -0.0322,0.80269 -0.13547,0.13917 -0.23183,-0.10819 -0.21413,-0.54967 z M 71.932915,209.31299 c 1.86053,-0.0778 4.795882,-0.0773 6.523004,9.7e-4 1.727122,0.0783 0.204871,0.14194 -3.382781,0.14141 -3.587652,-5.3e-4 -5.000752,-0.0646 -3.140223,-0.14238 z m 288.649035,-0.39298 c 0.2943,-0.12098 0.64593,-0.1061 0.7814,0.0331 0.13547,0.13917 -0.10532,0.23815 -0.53509,0.21996 -0.47493,-0.0201 -0.57154,-0.11933 -0.24631,-0.25302 z"
         id="path149" /><path
         style="fill:#606060;fill-opacity:1"
         d="m 242.94416,288.05809 c 0.61971,-0.0963 1.53701,-0.0937 2.03844,0.006 0.50143,0.0994 -0.006,0.17817 -1.12674,0.17503 -1.12115,-0.003 -1.53141,-0.0845 -0.9117,-0.18074 z m -44.44267,-34.25018 c 0.005,-0.92135 0.088,-1.24896 0.18553,-0.72801 0.0975,0.52094 0.0938,1.27478 -0.008,1.67518 -0.10204,0.40041 -0.18183,-0.0258 -0.1773,-0.94717 z m 167.89671,-4.64166 c 0.0196,-0.48788 0.11617,-0.58711 0.24631,-0.25302 0.11777,0.30231 0.10329,0.66353 -0.0322,0.80269 -0.13547,0.13916 -0.23183,-0.10819 -0.21413,-0.54967 z m 23.94495,-8.83651 c 0.2943,-0.12098 0.64593,-0.1061 0.7814,0.0331 0.13547,0.13916 -0.10532,0.23814 -0.53509,0.21996 -0.47493,-0.0201 -0.57154,-0.11933 -0.24631,-0.25302 z m -1.02445,-2.64549 c 0,-1.26686 0.0764,-1.78512 0.16984,-1.15169 0.0934,0.63343 0.0934,1.66995 0,2.30338 -0.0934,0.63343 -0.16984,0.11517 -0.16984,-1.15169 z m -126.60729,-4.08321 c 13.95821,-0.0611 36.79892,-0.0611 50.75712,0 13.95821,0.0611 2.53786,0.1111 -25.37856,0.1111 -27.91641,0 -39.33677,-0.05 -25.37856,-0.1111 z m 148.8315,-2.90362 c 0.2943,-0.12098 0.64593,-0.1061 0.7814,0.0331 0.13547,0.13917 -0.10532,0.23815 -0.53509,0.21996 -0.47493,-0.0201 -0.57153,-0.11933 -0.24631,-0.25302 z m 3.22693,-0.0162 c 0.72374,-0.0925 2.00796,-0.094 2.85381,-0.003 0.84586,0.0907 0.25371,0.16635 -1.31589,0.16821 -1.5696,0.002 -2.26166,-0.0723 -1.53792,-0.16483 z M 201.12427,226.4822 c 3.85347,-0.0688 10.27455,-0.0689 14.26907,-2.6e-4 3.99451,0.0686 0.84167,0.1249 -7.00632,0.12504 -7.84799,1.4e-4 -11.11623,-0.056 -7.26275,-0.12478 z m 112.14042,-6.66479 c 0.28029,-0.11618 0.73893,-0.11618 1.01922,0 0.28028,0.11618 0.051,0.21124 -0.50961,0.21124 -0.56057,0 -0.7899,-0.0951 -0.50961,-0.21124 z m -119.28621,-1.81662 c 0,-0.57585 0.0925,-0.81142 0.20563,-0.5235 0.1131,0.28793 0.1131,0.75907 0,1.04699 -0.11309,0.28793 -0.20563,0.0523 -0.20563,-0.52349 z M 66.20593,209.34753 c 0.280285,-0.11618 0.738934,-0.11618 1.019219,0 0.280285,0.11618 0.05096,0.21124 -0.50961,0.21124 -0.56057,0 -0.789895,-0.0951 -0.509609,-0.21124 z m 295.59908,-0.42752 c 0.2943,-0.12098 0.64593,-0.1061 0.7814,0.0331 0.13547,0.13917 -0.10532,0.23815 -0.53509,0.21996 -0.47493,-0.0201 -0.57154,-0.11933 -0.24631,-0.25302 z M 181.994,201.79036 c 0.50712,-0.10017 1.24096,-0.0964 1.63075,0.008 0.38978,0.10482 -0.0251,0.18678 -0.92205,0.18213 -0.89692,-0.005 -1.21583,-0.0904 -0.7087,-0.19058 z m 6.95141,0.0101 c 0.2943,-0.12098 0.64594,-0.1061 0.78141,0.0331 0.13547,0.13917 -0.10532,0.23815 -0.53509,0.21996 -0.47494,-0.0201 -0.57154,-0.11933 -0.24632,-0.25302 z m 53.7893,-0.82887 c 0.28029,-0.11618 0.73894,-0.11618 1.01922,0 0.28029,0.11618 0.051,0.21124 -0.50961,0.21124 -0.56057,0 -0.78989,-0.0951 -0.50961,-0.21124 z m 3.88534,-0.031 c 1.07185,-0.0866 2.72298,-0.0855 3.66919,0.002 0.9462,0.0878 0.0692,0.15865 -1.94882,0.15737 -2.01805,-0.001 -2.79222,-0.0731 -1.72037,-0.15969 z"
         id="path148" /><path
         style="fill:#494949;fill-opacity:1"
         d="m 185.1355,295.26875 c -6e-5,-12.89893 0.0516,-18.23626 0.11493,-11.86073 0.0633,6.37552 0.0633,16.92919 1e-4,23.45259 -0.0632,6.5234 -0.11497,1.30707 -0.11503,-11.59186 z m 187.78571,-36.47019 c 0.0196,-0.48787 0.11616,-0.58711 0.24631,-0.25302 0.11777,0.30232 0.10328,0.66353 -0.0322,0.80269 -0.13547,0.13917 -0.23183,-0.10818 -0.21412,-0.54967 z m -6.49082,-8.13162 c 0,-0.57585 0.0925,-0.81142 0.20563,-0.5235 0.1131,0.28792 0.1131,0.75907 0,1.04699 -0.1131,0.28792 -0.20563,0.0524 -0.20563,-0.52349 z m -223.78301,-2.82408 c 1.73777,-0.0785 4.58139,-0.0785 6.31916,0 1.73777,0.0785 0.31596,0.14274 -3.15958,0.14274 -3.47554,0 -4.89735,-0.0642 -3.15958,-0.14274 z m 124.14091,-6.70348 c 13.73398,-0.0612 36.20777,-0.0612 49.94175,0 13.73398,0.0612 2.49708,0.1112 -24.97088,0.1112 -27.46796,0 -38.70485,-0.05 -24.97087,-0.1112 z M 236.64488,233.629 c 0.2943,-0.12098 0.64593,-0.1061 0.7814,0.0331 0.13547,0.13916 -0.10532,0.23814 -0.53509,0.21996 -0.47493,-0.0201 -0.57154,-0.11933 -0.24631,-0.25302 z m 102.91567,-0.0139 c 0.61663,-0.096 1.62565,-0.096 2.24228,0 0.61663,0.096 0.11211,0.17446 -1.12114,0.17446 -1.23326,0 -1.73777,-0.0785 -1.12114,-0.17446 z m 52.59171,-8.80532 c 1.51355,-0.0806 3.99025,-0.0806 5.50379,0 1.51354,0.0806 0.27519,0.14651 -2.75189,0.14651 -3.02708,0 -4.26544,-0.0659 -2.7519,-0.14651 z m 9.60615,0.0245 c 0.2943,-0.12098 0.64593,-0.1061 0.7814,0.0331 0.13547,0.13917 -0.10532,0.23815 -0.53509,0.21996 -0.47493,-0.0201 -0.57154,-0.11933 -0.24631,-0.25302 z m -127.63174,-5.05302 c 4.31639,-0.0678 11.37958,-0.0678 15.69598,0 4.31639,0.0678 0.78479,0.12334 -7.84799,0.12334 -8.63279,0 -12.16439,-0.0555 -7.84799,-0.12334 z m 28.3343,0.002 c 1.96199,-0.0768 5.17253,-0.0768 7.13453,0 1.962,0.0768 0.35673,0.13958 -3.56727,0.13958 -3.92399,0 -5.52926,-0.0628 -3.56726,-0.13958 z m -40.8707,-8.2735 c 0.52663,-0.57585 1.04924,-1.047 1.16135,-1.047 0.11212,0 -0.22703,0.47115 -0.75366,1.047 -0.52663,0.57584 -1.04924,1.04699 -1.16135,1.04699 -0.11212,0 0.22703,-0.47115 0.75366,-1.04699 z m 17.02096,0.73312 c 6.78291,-0.0645 17.88221,-0.0645 24.66511,0 6.78291,0.0645 1.23326,0.11722 -12.33255,0.11722 -13.56581,0 -19.11546,-0.0528 -12.33256,-0.11722 z m 96.23979,-9.18574 c 0.2943,-0.12098 0.64593,-0.1061 0.7814,0.0331 0.13547,0.13917 -0.10532,0.23815 -0.53509,0.21996 -0.47493,-0.0201 -0.57154,-0.11933 -0.24631,-0.25302 z M 172.79843,201.7767 c 1.50373,-0.0804 4.07217,-0.0809 5.70763,-0.001 1.63547,0.0797 0.40514,0.14544 -2.73405,0.14609 -3.1392,6.5e-4 -4.47731,-0.0645 -2.97358,-0.1449 z m 12.45962,0.007 c 0.73275,-0.0932 1.83351,-0.0913 2.44612,0.004 0.61261,0.0956 0.0131,0.17182 -1.33228,0.16947 -1.34537,-0.002 -1.8466,-0.0805 -1.11384,-0.17375 z m 54.01908,-0.8243 c 0.39666,-0.10618 0.94704,-0.0992 1.22306,0.0155 0.27602,0.11472 -0.0485,0.2016 -0.72121,0.19306 -0.67269,-0.009 -0.89852,-0.10239 -0.50185,-0.20858 z m 2.26,0.004 c 0.2943,-0.12098 0.64593,-0.1061 0.7814,0.0331 0.13547,0.13916 -0.10532,0.23815 -0.53509,0.21996 -0.47493,-0.0201 -0.57153,-0.11933 -0.24631,-0.25302 z m -63.89834,-7.07775 c 0.0196,-0.48787 0.11616,-0.58711 0.24631,-0.25302 0.11777,0.30231 0.10328,0.66353 -0.0322,0.80269 -0.13547,0.13916 -0.23183,-0.10819 -0.21412,-0.54967 z"
         id="path147" /><path
         style="fill:#333333;fill-opacity:1"
         d="m 186.27799,329.20801 c -2.92898,-1.32905 -4.0349,-6.39257 -1.95166,-8.93582 l 1.01211,-1.23559 6.4e-4,-24.17948 c 5e-4,-19.12671 -0.1045,-24.09119 -0.5025,-23.75697 -0.27672,0.23238 -1.69562,1.05392 -3.1531,1.82565 l -2.64997,1.40313 -15.7646,0.2094 c -8.67053,0.11517 -15.84623,0.30363 -15.94601,0.41879 -0.0998,0.11517 -1.88263,3.03628 -3.96191,6.49135 -2.07927,3.45507 -4.46648,7.32068 -5.30491,8.59025 l -1.52441,2.3083 1.37614,1.63534 c 1.15504,1.37259 1.37614,1.96165 1.37614,3.6663 0,1.80718 -0.16845,2.19242 -1.52882,3.49632 -1.3628,1.30622 -17.32183,12.09765 -24.11289,16.30504 -3.59526,2.22744 -5.72243,2.40961 -8.19637,0.70193 -1.00902,-0.69649 -9.723349,-7.57702 -19.365164,-15.29006 C 69.282732,289.42423 68.538299,288.8827 68.26694,289.90351 c -0.396316,1.49088 -2.254491,4.14634 -3.477415,4.96946 -1.29775,0.87349 -3.417149,0.94708 -4.834499,0.16787 -1.585045,-0.8714 -7.361833,-8.14415 -8.147454,-10.25732 -0.663027,-1.78342 -0.643777,-1.934 2.202081,-17.22497 1.579025,-8.48421 4.00658,-21.36227 5.394566,-28.61791 l 2.523612,-13.19209 -0.672316,-5.02555 c -0.369774,-2.76406 -0.668486,-5.374 -0.663804,-5.79986 0.01573,-1.43041 1.307297,-3.60282 2.648085,-4.45405 1.233055,-0.78284 2.016629,-0.8442 10.780567,-0.8442 10.52331,0 10.536084,0.003 13.264224,2.89706 l 1.611568,1.7097 h 33.251005 33.25101 l 5.90092,-6.07255 5.90093,-6.07254 h 14.17242 c 11.8428,0 14.17242,-0.0959 14.17242,-0.58345 0,-0.46635 -1.24779,-0.615 -6.21724,-0.7407 -7.04628,-0.17823 -8.74996,-0.70944 -10.39065,-3.23985 -1.57515,-2.42929 -1.28532,-4.2549 2.54048,-16.00237 1.90475,-5.84868 3.80289,-11.10511 4.2181,-11.68095 1.56619,-2.1721 0.17793,-2.10097 38.82523,-1.98911 l 36.11046,0.10452 1.49687,1.047 c 1.64041,1.14738 2.72366,3.06126 2.72366,4.81212 0,1.3473 -6.8074,23.05276 -7.64983,24.39155 -0.32356,0.5142 -1.1872,1.31515 -1.91921,1.77988 -1.21647,0.77231 -2.0192,0.84497 -9.33464,0.84497 -6.1282,0 -8.00501,0.12267 -8.00927,0.52349 -0.003,0.28793 -0.11619,0.94753 -0.2514,1.46579 l -0.24582,0.94229 h 9.43347 9.43348 l 1.72356,-1.61573 c 0.94796,-0.88866 2.12429,-1.83095 2.61406,-2.09399 0.65452,-0.35151 15.32579,-0.47824 55.36386,-0.47824 59.791,0 55.83338,-0.17195 57.68998,2.50646 0.85291,1.23044 0.9616,1.26271 4.25258,1.26271 2.84251,0 3.59665,0.15161 4.76257,0.95747 2.63689,1.82257 5.00024,8.27301 6.17045,16.84137 l 0.51476,3.76917 6.5723,0.0554 6.57229,0.0554 0.66831,-1.43966 c 1.19562,-2.57556 1.71355,-2.64975 18.4988,-2.64975 21.23305,0 20.07618,-0.87564 20.07618,15.19564 0,11.47267 -0.0935,11.97905 -2.5419,13.77299 l -1.33114,0.97531 -16.28518,0.12301 c -15.37021,0.1161 -16.34369,0.079 -17.32672,-0.66002 -0.94953,-0.71385 -1.68092,-0.76631 -8.27801,-0.59375 l -7.23646,0.18928 v 1.13897 c 0,2.33343 -2.0277,12.28856 -2.86478,14.06486 -0.94872,2.01319 -2.80881,3.84854 -4.19925,4.14339 -0.48724,0.10332 -2.10187,0.30427 -3.58809,0.44655 -2.69981,0.25845 -2.70288,0.26023 -3.46534,2.00705 -1.10259,2.52605 -4.27679,7.38918 -5.89461,9.03101 -0.76534,0.7767 -2.12537,1.76279 -3.02229,2.1913 -1.56178,0.74616 -3.66534,0.77817 -49.7379,0.75684 l -48.10715,-0.0223 -2.85381,3.72125 c -1.5696,2.04669 -3.71817,4.8778 -4.77461,6.29136 -3.12903,4.1868 -2.70653,4.05782 -13.75597,4.19926 -9.3262,0.11939 -9.65191,0.0955 -11.42514,-0.83759 -2.93583,-1.54487 -3.43867,-2.86886 -3.67852,-9.68544 l -0.20384,-5.79338 -3.15958,2.12046 -3.15958,2.12046 v 19.74715 c 0,19.06767 -0.0283,19.79415 -0.82181,21.11309 -1.72597,2.86877 -1.99944,2.90969 -20.17411,3.01866 -13.39199,0.0803 -16.54296,-0.009 -17.62447,-0.49981 z m 12.50385,-45.95881 -0.0667,-36.93793 0.90614,-0.75374 c 0.83121,-0.69141 2.00743,-0.75374 14.22396,-0.75374 14.56353,0 14.52178,-0.007 15.52102,2.47147 0.39052,0.96846 0.39612,1.58238 0.025,2.73755 -0.6339,1.97308 -1.81161,2.74811 -4.17592,2.74811 h -1.94772 v 12.5847 c 0,10.39749 0.0948,12.52649 0.54554,12.24979 0.30004,-0.1842 2.50156,-1.64758 4.89225,-3.25195 l 4.34671,-2.91705 v -17.31067 c 0,-18.2028 0.0972,-19.24843 1.85286,-19.94051 0.36298,-0.14308 25.12032,-0.26015 55.01631,-0.26015 h 54.35636 l 1.97313,1.61915 c 1.08522,0.89053 2.41789,2.11551 2.96149,2.72218 l 0.98836,1.10302 h 7.87884 7.87885 V 224.3411 209.32276 l -2.14036,-0.26409 c -1.1772,-0.14525 -23.95134,-0.26573 -50.6092,-0.26773 l -48.46884,-0.004 -2.62665,2.30338 -2.62666,2.30338 H 244.6989 c -14.71605,0 -14.79441,-0.005 -16.17298,-0.95483 -0.9294,-0.6406 -1.567,-1.54066 -1.93748,-2.73502 -0.51228,-1.65147 -0.47543,-1.99297 0.50961,-4.72288 0.584,-1.61848 1.06182,-3.12037 1.06182,-3.33753 0,-0.23779 -4.51296,-0.39484 -11.34645,-0.39484 h -11.34644 l -1.52999,3.97096 c -2.05118,5.3237 -2.92165,6.08016 -6.99651,6.08016 h -3.02638 v 3.75011 3.7501 l 15.25595,0.12376 15.25595,0.12376 1.05156,1.01529 c 1.43396,1.38452 1.4576,3.84063 0.0509,5.28569 l -1.00069,1.02796 -15.61259,0.0281 -15.61258,0.0281 -4.07688,5.69704 c -2.24228,3.13337 -4.13101,5.83174 -4.19717,5.99637 -0.0662,0.16464 0.9822,0.49883 2.3297,0.74265 2.89369,0.52361 4.4592,1.60088 5.78771,3.98269 l 0.97201,1.74269 0.11237,37.79637 0.11236,37.79637 h 2.25292 2.25292 z m 66.59346,-63.49575 c -1.10353,-0.16119 -2.96965,-2.34848 -2.96965,-3.48075 0,-1.17327 1.06913,-3.14715 1.87714,-3.46566 0.37634,-0.14835 12.52121,-0.26954 26.98861,-0.26932 l 26.30436,3.9e-4 0.95309,0.91978 c 1.20297,1.16092 1.2877,3.60673 0.17392,5.02003 l -0.77917,0.98869 -25.82246,0.20939 c -14.20235,0.11517 -26.22898,0.15002 -26.72584,0.0774 z m -49.44605,66.72057 v -33.7131 h -4.89226 -4.89225 v 33.7131 33.71311 h 4.89225 4.89226 z m -97.19621,16.32284 c 5.13673,-3.38799 9.39816,-6.21398 9.46986,-6.27997 0.0717,-0.066 -0.24935,-0.88457 -0.71345,-1.81907 -1.01395,-2.04166 -1.0647,-3.42925 -0.18904,-5.16873 1.66136,-3.30025 14.00479,-22.0278 15.1941,-23.05259 0.86651,-0.74666 1.81,-1.15169 2.68274,-1.15169 1.08816,0 1.43201,-0.22073 1.79407,-1.15169 0.61518,-1.58176 5.76633,-16.15192 5.76633,-16.3102 0,-0.0702 -3.02708,-0.12756 -6.72685,-0.12756 h -6.72685 v 4.96306 c 0,2.72969 -0.18859,5.51881 -0.4191,6.19806 -0.43247,1.27439 -9.14781,9.29787 -26.20254,24.12247 -8.06655,7.01174 -8.64706,7.43341 -10.22838,7.42955 -2.29646,-0.006 -4.222939,-1.00762 -15.694904,-8.16335 -6.872767,-4.28694 -10.144773,-6.56815 -10.59988,-7.39012 -0.362076,-0.65395 -0.762229,-1.19019 -0.889227,-1.19165 -0.281012,-0.003 -3.650561,5.37652 -3.621421,5.78187 0.01139,0.15842 1.34147,1.25776 2.955736,2.44299 1.614267,1.18522 9.896641,7.83434 18.405276,14.77583 8.50863,6.94148 15.68035,12.53805 15.93714,12.43683 0.25679,-0.10123 4.66967,-2.95604 9.80639,-6.34404 z m 133.4718,-15.1718 c 1.06273,-0.54867 4.1418,-4.4594 12.28213,-15.59951 5.97511,-8.177 11.16172,-15.19707 11.52579,-15.60016 0.62269,-0.68942 3.31858,-0.7329 45.44778,-0.7329 h 44.78583 l 0.26367,-3.20416 c 0.14501,-1.76229 0.26366,-3.7411 0.26366,-4.39736 v -1.1932 h -9.78327 -9.78328 l -3.00913,-2.93627 -3.00913,-2.93626 -50.39919,0.0143 -50.39919,0.0143 v 23.40811 c 0,18.33462 0.11045,23.45389 0.50961,23.61934 0.28028,0.11618 2.61939,0.22582 5.19802,0.24364 3.69722,0.0256 4.98825,-0.12239 6.1067,-0.69983 z M 68.858752,268.04698 c 3.916035,-7.37081 7.588875,-14.35343 8.161867,-15.51694 1.410253,-2.86362 2.230656,-3.17572 8.127989,-3.09216 l 4.8525,0.0688 3.481591,-4.9689 c 1.914874,-2.7329 3.850865,-5.29871 4.302202,-5.7018 0.769128,-0.68692 3.245689,-0.7329 39.474729,-0.7329 h 38.65412 l 3.22501,-4.29266 c 1.77376,-2.36096 4.26444,-5.78133 5.53484,-7.60081 l 2.30982,-3.30816 v -5.55132 -5.55133 l -7.64415,-0.16984 -7.64414,-0.16984 -5.50379,5.51636 c -3.02708,3.03399 -5.95739,5.82509 -6.51179,6.20244 -0.91519,0.62291 -4.40762,0.68609 -37.92772,0.68609 H 84.832119 l -2.420602,-2.51278 -2.420603,-2.51278 h -4.835485 -4.835486 l 0.219082,1.15169 c 0.952875,5.00917 0.853686,5.8302 -3.579575,29.62984 -2.359833,12.66859 -4.664315,24.89202 -5.121072,27.16317 -0.919911,4.57411 -1.020376,5.66786 -0.465078,5.06321 0.200964,-0.21882 3.569417,-6.42852 7.485452,-13.79934 z m 34.605838,11.2006 c 0.59201,-0.40188 3.16044,-2.63583 5.70763,-4.96434 2.54719,-2.32851 8.3533,-7.56854 12.90247,-11.64452 l 8.27123,-7.41086 -0.11747,-3.54965 -0.11747,-3.54966 -13.65754,-0.005 -13.65754,-0.005 -2.14069,2.8982 c -1.177388,1.59401 -5.057119,6.64238 -8.621629,11.21861 l -6.480927,8.32042 7.602405,4.67672 c 4.181323,2.5722 7.969321,4.69226 8.417781,4.71124 0.44846,0.019 1.29975,-0.29429 1.89175,-0.69617 z m 259.71205,-7.25976 c 2.05698,-2.25066 2.77568,-4.0548 2.77941,-6.97711 l 0.002,-1.77988 H 323.0122 280.06635 l -3.65847,4.92085 c -2.01216,2.70647 -3.79519,5.15643 -3.9623,5.44436 -0.24231,0.4175 8.71455,0.52349 44.23934,0.52349 h 44.54317 z m -184.99526,-8.3382 c 1.87706,-0.9818 2.14993,-1.34561 4.38264,-5.84319 2.09215,-4.21443 2.38096,-5.09072 2.38096,-7.22424 v -2.42803 h -11.17817 -11.17818 l -0.89969,2.82687 c -0.49483,1.55478 -1.794,5.2238 -2.88705,8.15337 -1.09305,2.92957 -1.98736,5.44159 -1.98736,5.58227 0,0.14068 4.35716,0.19372 9.68258,0.11786 9.39087,-0.13376 9.74289,-0.16946 11.68427,-1.18491 z m 199.5402,-4.40002 c 0.30351,-0.29305 0.92411,-1.82577 1.37911,-3.40605 0.72339,-2.51245 0.85067,-4.39826 1.01368,-15.01833 0.22211,-14.47019 -0.26047,-23.14324 -1.44015,-25.88276 -0.79497,-1.84615 -0.84978,-1.88378 -2.99174,-2.05404 -1.20006,-0.0954 -2.2207,-0.15357 -2.26809,-0.12929 -0.0676,0.0346 -0.1983,46.12557 -0.13383,47.17458 0.0284,0.46117 3.86733,-0.13019 4.44102,-0.68411 z m 55.17402,-22.92966 c -0.0837,-3.35833 -0.29332,-5.21831 -0.61153,-5.42615 -0.2663,-0.17394 -5.20826,-0.31914 -10.98213,-0.32267 l -10.49796,-0.006 -2.6e-4,5.54905 -2.7e-4,5.54905 11.10976,-0.11648 11.10975,-0.11648 z m -35.28457,3.87709 h 4.22382 v -2.93158 -2.93157 h -6.31916 -6.31916 v 2.86177 c 0,1.57398 0.13759,3.00541 0.30576,3.18096 0.16818,0.17555 1.11108,0.20696 2.09534,0.0698 0.98427,-0.13716 3.6903,-0.24938 6.0134,-0.24938 z m -177.0162,-55.32885 c 1.18164,-3.36615 2.27724,-6.33437 2.43467,-6.59604 0.21176,-0.35196 -3.72777,-0.47577 -15.13855,-0.47577 h -15.42479 l -1.98329,6.17725 c -1.09081,3.39748 -2.06973,6.41513 -2.17538,6.70588 -0.15295,0.42094 2.89761,0.50626 14.97341,0.4188 l 15.16549,-0.10985 z m 31.1771,-0.0574 c 1.13975,-3.51288 2.07227,-6.52821 2.07227,-6.70074 0,-0.17253 -5.03724,-0.31369 -11.19388,-0.31369 h -11.19388 l -1.67116,5.54905 c -0.91914,3.05198 -1.83479,6.06731 -2.03477,6.70074 l -0.36359,1.15169 h 11.15637 11.15636 z"
         id="path146" /></g><path
       style="fill:#ffffff;stroke:none;stroke-width:5.55146"
       d="M 63.898567,467.26561 C 33.838364,419.41963 30.787835,414.91692 25.361776,410.38357 c -1.473118,-1.23075 -2.678397,-2.40432 -2.678397,-2.60793 0,-0.20362 2.301781,-2.5337 5.115068,-5.17798 l 5.115067,-4.80776 5.781426,0.25286 5.781426,0.25286 6.344401,-5.89139 c 3.489421,-3.24026 8.954574,-8.21499 12.144784,-11.05496 7.539332,-6.71161 45.983439,-42.30568 49.854419,-46.15848 1.64156,-1.63385 6.11609,-5.96128 9.9434,-9.6165 11.43197,-10.91795 10.7884,-9.8819 11.40656,-18.36297 0.29078,-3.98941 0.61605,-8.32795 0.72282,-9.6412 0.10677,-1.31325 0.22069,-4.30767 0.25313,-6.65428 l 0.059,-4.26656 9.06479,-8.00749 9.0648,-8.00749 6.00771,6.5014 c 5.31669,5.75359 6.05709,6.82209 6.43701,9.28939 0.86636,5.62662 2.85383,23.28099 2.85383,25.35021 0,2.05222 -1.354,3.38681 -36.26356,35.74381 -44.049604,40.82872 -54.153115,50.35988 -55.397918,52.25969 -0.884709,1.35024 -0.856486,2.2742 0.371663,12.16727 l 1.329077,10.70608 -3.809386,3.41986 c -6.192045,5.55889 -8.261495,7.95286 -8.645847,10.00164 -0.263162,1.40277 1.199784,7.81101 5.329217,23.34393 7.17254,26.97961 8.245519,31.25372 8.017619,31.93742 -0.101174,0.30352 -7.150567,-10.5367 -15.665318,-24.08939 z"
       id="path154" /><path
       style="fill:#ffffff;stroke:none;stroke-width:5.55146"
       d="m 127.44449,233.54927 c -2.39989,-5.17092 -4.45187,-9.57068 -4.55996,-9.77725 -0.4293,-0.82046 35.62489,-33.59601 36.20945,-32.91669 1.09262,1.26973 8.37735,19.46414 7.94789,19.85075 -0.27396,0.24662 -5.47732,5.11788 -11.56302,10.82502 -12.36214,11.59314 -23.12141,21.41983 -23.45264,21.41983 -0.12005,0 -2.18182,-4.23075 -4.58172,-9.40166 z"
       id="path155" /><path
       style="fill:#ffffff;stroke:none;stroke-width:5.55146"
       d="m 174.42595,190.67801 c -2.52949,-5.07147 -4.59907,-9.58835 -4.59907,-10.03751 0,-0.7654 7.33574,-7.83608 20.16508,-19.43647 3.33468,-3.01524 5.75451,-4.79122 6.07841,-4.46113 0.46914,0.4781 8.97544,18.45078 8.97544,18.9639 0,0.16359 -13.81651,13.03392 -23.30745,21.71132 l -2.71334,2.48075 z"
       id="path156" /><path
       style="fill:#ffffff;stroke:none;stroke-width:5.55146"
       d="m 240.31319,345.99474 c -45.61845,-48.97375 -42.79333,-46.33536 -49.61471,-46.33536 -2.43391,0 -3.92012,0.42583 -6.42994,1.84228 -2.1469,1.21163 -3.40184,1.6198 -3.66601,1.19236 -0.22092,-0.35746 -1.01054,-5.40984 -1.7547,-11.2275 l -1.35303,-10.57758 3.51585,-3.29956 c 1.93372,-1.81476 6.0509,-5.55612 9.14929,-8.31413 3.09839,-2.75801 9.86419,-9.06642 15.0351,-14.01868 l 9.40167,-9.0041 -0.0133,-2.6954 c -0.0201,-4.07816 -2.55663,-6.57984 -6.66295,-6.57137 -1.7543,0.004 -4.0326,1.87476 -20.0443,16.46213 l -18.06503,16.45803 -4.12535,-4.23313 -4.12535,-4.23313 1.71735,-0.88808 c 0.94454,-0.48844 2.58064,-2.14282 3.63577,-3.67641 2.58294,-3.75418 2.51585,-6.23112 -0.37773,-13.94527 l -2.29614,-6.12144 1.45049,-1.08114 c 0.79778,-0.59463 3.33083,-2.83798 5.62902,-4.98523 14.03374,-13.11205 19.03793,-17.63765 19.50287,-17.63765 0.28862,0 1.50006,2.02625 2.69211,4.50278 2.57613,5.35205 4.5121,6.95801 8.79073,7.29227 3.88005,0.30312 3.22447,0.80039 23.23724,-17.62592 10.58962,-9.75015 16.30542,-15.43408 16.8633,-16.76928 0.46416,-1.1109 0.84469,-3.80019 0.84563,-5.9762 l 0.002,-3.95639 11.43619,-10.4463 c 20.06737,-18.33037 50.42048,-46.33622 67.58682,-62.36021 23.13636,-21.596728 40.16445,-37.081481 41.86338,-38.069105 0.51394,-0.298763 5.99052,5.20496 16.79134,16.874545 8.81575,9.524854 16.10669,17.547 16.20208,17.82699 0.0954,0.28 -3.92563,4.30422 -8.9356,8.94273 l -9.10904,8.43364 h -6.4902 c -7.53136,0 -7.26553,-0.13158 -14.64907,7.25124 -6.18952,6.1889 -21.11809,19.96637 -21.95804,20.26491 -1.21401,0.43148 -69.29596,63.5807 -76.32563,70.79562 -7.44479,7.64097 -20.15257,19.34076 -21.63875,19.92236 -0.7387,0.28908 -1.3431,0.90229 -1.3431,1.36267 0,0.4604 -0.40292,1.17149 -0.89539,1.5802 -2.14249,1.77812 -0.62868,4.83659 6.19158,12.50931 4.46306,5.02091 25.7336,28.12568 29.74525,32.31029 l 2.62288,2.73597 -1.87422,7.71032 c -1.03081,4.24069 -1.99372,8.09354 -2.1398,8.5619 -0.33768,1.08275 -3.1064,-1.59947 -16.92765,-16.39874 l -10.61735,-11.36865 2.31973,-2.48688 c 1.80203,-1.93187 2.31973,-2.96492 2.31973,-4.62889 0,-4.14141 -3.02777,-7.45511 -6.81183,-7.45511 -1.88944,0 -5.60439,2.99377 -18.55774,14.95517 -17.08879,15.78016 -18.05451,17.09652 -15.20242,20.72236 1.77881,2.26139 10.76958,12.06927 17.3563,18.93369 3.1545,3.28751 7.88249,8.39485 10.50664,11.34966 2.62417,2.95481 7.23239,7.92426 10.24052,11.04322 3.00812,3.11897 6.07008,6.54426 6.80434,7.61177 0.73428,1.06751 1.80512,2.09293 2.37967,2.27872 0.57454,0.18578 1.04463,0.60353 1.04463,0.92832 0,0.3248 1.81318,2.49229 4.02928,4.81665 10.11158,10.60553 11.98272,12.5925 14.90893,15.83174 1.71574,1.8993 4.87202,5.27274 7.01394,7.49655 2.14192,2.2238 3.8944,4.29225 3.8944,4.59655 0,0.3043 0.45739,0.80924 1.01643,1.1221 0.86991,0.48683 0.89907,0.71024 0.20225,1.54985 -0.4478,0.53957 -1.54274,1.49981 -2.4332,2.13387 l -1.61901,1.15284 z m 24.8322,-161.09535 c 11.33183,-10.2493 17.95151,-16.4551 27.05788,-25.36617 3.77255,-3.69164 7.06667,-6.7136 7.32028,-6.71547 0.73236,-0.005 10.24139,-9.05255 10.67751,-10.15886 0.21662,-0.54951 1.35825,-1.45673 2.53695,-2.01607 1.17871,-0.55933 2.14311,-1.3546 2.14311,-1.76726 0,-0.41266 0.94822,-1.66935 2.10716,-2.79263 1.7703,-1.71585 2.05103,-2.33099 1.75603,-3.84792 -0.54061,-2.77989 -1.41417,-4.19815 -3.25591,-5.28609 -3.30248,-1.95083 -4.86746,-1.39909 -10.2956,3.62974 -2.74646,2.54442 -6.59243,5.9686 -8.54661,7.60929 -6.46429,5.42729 -32.65297,29.95626 -41.66537,39.02483 -7.65939,7.70714 -8.80887,9.10788 -8.46624,10.31691 1.41627,4.99766 2.30625,5.77185 6.71128,5.83813 2.41488,0.0363 2.88857,-0.30021 11.91953,-8.46843 z"
       id="path157" /><path
       style="fill:#ffffff;stroke:none;stroke-width:5.55146"
       d="m 267.12664,346.43166 c -15.92314,-17.23396 -32.57025,-35.25337 -36.99359,-40.04313 -7.3626,-7.9725 -7.94329,-8.76375 -6.86952,-9.36046 0.64511,-0.3585 1.98094,-1.46454 2.96852,-2.45787 0.98758,-0.99333 3.03795,-2.94406 4.55637,-4.33496 l 2.76077,-2.5289 36.78591,39.69979 c 20.23226,21.83488 36.78592,39.95188 36.78592,40.26 0,0.56166 -9.8125,9.80166 -10.61575,9.99638 -0.23512,0.057 -13.4555,-13.99689 -29.37863,-31.23085 z"
       id="path158" /><path
       style="fill:#ffffff;stroke:none;stroke-width:5.55146"
       d="m 90.152788,477.39559 c -2.087995,-9.19439 -2.268502,-8.57363 2.520755,-8.66891 7.373847,-0.14669 38.361877,-6.29233 44.290647,-8.78384 2.77152,-1.16471 3.36896,-1.70537 4.04625,-3.66166 1.50062,-4.33443 7.32692,-61.34161 7.32692,-71.6899 v -5.35686 l -3.56348,-4.12089 c -1.95991,-2.26649 -4.57652,-5.30203 -5.81468,-6.74563 l -2.25121,-2.62474 2.38233,-1.85225 c 1.31029,-1.01873 4.80184,-4.18818 7.75902,-7.04322 l 5.37668,-5.19099 5.53586,12.95109 c 3.04473,7.1231 5.52752,13.38828 5.51731,13.92263 -0.0102,0.53434 -0.40774,1.29453 -0.88342,1.68931 -2.03452,1.6885 -2.21798,4.3105 -0.92624,13.23824 1.77875,12.29374 5.25064,31.92632 6.28404,35.53454 0.97924,3.41911 3.12116,5.63543 6.53513,6.76214 1.15743,0.38198 2.10442,0.94316 2.10442,1.24706 0,1.77529 -8.51383,34.9815 -9.11789,35.56217 -0.79169,0.76104 -12.99358,1.83936 -43.11357,3.81008 -10.17768,0.66592 -21.32537,1.47018 -24.772643,1.78725 -8.750974,0.80487 -8.882047,0.79401 -9.236229,-0.76562 z"
       id="path159" /><path
       style="fill:#ffffff;stroke:none;stroke-width:5.55146"
       d="m 293.92632,292.64544 c -10.13987,-10.3625 -43.21529,-46.10224 -43.21529,-46.6964 0,-0.43284 12.8282,-12.4659 24.19663,-22.69683 5.12378,-4.61111 23.73829,-21.77524 58.47832,-53.9219 7.05871,-6.53177 13.48041,-12.58418 14.27044,-13.44979 0.79003,-0.86562 6.29672,-6.09478 12.23708,-11.62037 l 10.80067,-10.04652 6.87971,0.3556 6.87971,0.3556 4.33328,-4.03849 c 2.3833,-2.22117 6.24983,-5.78452 8.59228,-7.91855 2.34245,-2.13403 5.59455,-5.15742 7.22689,-6.71864 2.3246,-2.22334 3.1437,-2.69268 3.77904,-2.1654 0.44613,0.37025 0.81114,0.94017 0.81114,1.26648 0,0.32631 1.47741,2.18906 3.28312,4.13945 1.80572,1.95039 3.28313,3.76623 3.28313,4.0352 0,0.56373 -13.94704,13.70933 -19.69022,18.55877 -7.70895,6.5093 -47.52587,43.40503 -61.79701,57.26324 -5.25637,5.10428 -12.86232,12.48706 -16.90211,16.4062 -4.03979,3.91912 -7.56607,7.54548 -7.83618,8.05857 -0.28441,0.54025 0.72509,11.73576 2.39861,26.60091 3.58658,31.85783 3.94926,36.62661 2.93042,38.53035 -0.42245,0.78933 -2.40503,2.96166 -4.40575,4.82739 -2.00072,1.86572 -4.45842,4.22263 -5.46155,5.23758 -1.00313,1.01494 -2.09771,1.84535 -2.43239,1.84535 -0.33468,0 -4.22267,-3.69351 -8.63997,-8.2078 z"
       id="path160" /><path
       style="fill:#ffffff;stroke:none;stroke-width:5.55146"
       d="m 324.40386,248.17408 c -0.0155,-0.0821 -0.53405,-4.44714 -1.15238,-9.70013 l -1.12423,-9.5509 1.60008,-1.6242 c 0.88005,-0.89331 23.89546,-22.28428 51.14536,-47.53549 l 49.54528,-45.91129 1.39989,1.27333 c 2.96631,2.69813 4.46119,6.2229 4.7492,11.19815 0.30053,5.19158 0.0614,5.74522 -3.45414,7.99699 -1.15391,0.7391 -5.00272,4.19462 -8.55291,7.67892 -3.55019,3.4843 -6.57791,6.33509 -6.72826,6.33509 -0.15036,0 -1.63068,1.3431 -3.28961,2.98466 -1.65892,1.64156 -3.24678,2.98465 -3.52857,2.98465 -0.28179,0 -0.68285,0.53724 -0.89126,1.19386 -0.20841,0.65663 -0.71432,1.19387 -1.12425,1.19387 -0.40994,0 -1.56901,0.87301 -2.57572,1.94002 -1.00671,1.06702 -4.02201,3.95467 -6.70066,6.41701 -2.67867,2.46234 -6.60301,6.15585 -8.72077,8.2078 -2.11777,2.05195 -4.10324,3.73082 -4.41217,3.73082 -0.30893,0 -0.7322,0.53724 -0.9406,1.19386 -0.20841,0.65663 -0.61936,1.19387 -0.91324,1.19387 -0.29388,0 -2.16618,1.61171 -4.16068,3.58158 -1.99449,1.96987 -3.84761,3.58159 -4.11804,3.58159 -0.27043,0 -2.23304,1.81318 -4.36137,4.02928 -3.69195,3.84424 -8.20093,8.02288 -15.39783,14.26976 -1.80571,1.56735 -6.37483,5.81405 -10.15358,9.43711 -9.92143,9.51262 -15.98243,14.73252 -16.13954,13.89979 z"
       id="path161" /><path
       style="fill:#ffffff;stroke:none;stroke-width:5.55146"
       d="M 410.5782,99.836715 C 400.06041,88.427871 388.47039,75.869934 384.82261,71.93019 l -6.63234,-7.163173 2.17148,-1.940026 c 2.71843,-2.428668 4.00292,-2.431199 7.69031,-0.01515 7.34476,4.812412 38.78185,38.352449 43.22237,46.113679 2.7048,4.72748 2.86973,6.42976 0.89854,9.27418 -0.90728,1.3092 -1.83453,2.38037 -2.06055,2.38037 -0.22603,0 -9.01643,-9.33451 -19.53422,-20.743355 z"
       id="path162" /><path
       style="fill:#ffffff;stroke:none;stroke-width:5.55146"
       d="m 424.33014,75.94666 -3.07247,-3.329807 4.5648,-4.266284 c 2.51064,-2.346456 5.74038,-5.316225 7.1772,-6.599488 l 2.61239,-2.333203 2.95055,3.208852 c 2.38623,2.595136 2.79993,3.343937 2.16306,3.915153 -0.43313,0.388465 -3.608,3.412664 -7.05527,6.720442 l -6.26778,6.014143 z"
       id="path163" /><path
       style="fill:#ffffff;stroke:none;stroke-width:5.55146"
       d="m 448.40843,50.614063 -5.71114,-6.142701 1.46039,-0.887171 c 0.80322,-0.487943 1.61077,-1.360955 1.79456,-1.940026 0.18379,-0.57907 0.58474,-1.052855 0.89101,-1.052855 0.30626,0 1.99983,-1.410249 3.76348,-3.133888 5.06736,-4.952393 15.23564,-14.319539 16.52324,-15.221406 1.48366,-1.039195 2.7046,-0.210882 8.81274,5.978756 l 4.36719,4.425462 -12.59267,11.884875 c -6.92597,6.53668 -12.8188,11.9629 -13.09517,12.058264 -0.27637,0.09537 -3.0725,-2.590824 -6.21363,-5.96931 z"
       id="path164" /></g></svg>
