<?xml version="1.0" encoding="UTF-8" standalone="no"?>
<!-- Created with Inkscape (http://www.inkscape.org/) -->

<svg
   width="512"
   height="512"
   viewBox="0 0 512 512"
   version="1.1"
   id="svg1"
   xml:space="preserve"
   xmlns="http://www.w3.org/2000/svg"
   xmlns:svg="http://www.w3.org/2000/svg"><defs
     id="defs1" /><g
     id="g786"><g
       id="g824"
       transform="matrix(0.46651449,-0.40834809,0.40834809,0.46651449,112.88862,218.2011)"><path
         style="fill:#d0d0d0;fill-opacity:1"
         d="m -132.73097,259.30701 c 0.97297,-0.25354 2.32297,-0.23687 3,0.0371 0.67703,0.27393 -0.11903,0.48137 -1.76903,0.46099 -1.65,-0.0204 -2.20394,-0.2445 -1.23097,-0.49804 z M 264.15789,202 c 0,-1.375 0.22698,-1.9375 0.50439,-1.25 0.27741,0.6875 0.27741,1.8125 0,2.5 -0.27741,0.6875 -0.50439,0.125 -0.50439,-1.25 z m 30.11114,-5.69299 c 0.97297,-0.25354 2.32297,-0.23687 3,0.0371 0.67703,0.27393 -0.11903,0.48137 -1.76903,0.46099 -1.65,-0.0204 -2.20394,-0.2445 -1.23097,-0.49804 z M -343.75,136.25845 c 3.7125,-0.19241 9.7875,-0.19241 13.5,0 3.7125,0.19241 0.675,0.34983 -6.75,0.34983 -7.425,0 -10.4625,-0.15742 -6.75,-0.34983 z m 76,-0.005 c 6.4625,-0.17418 17.0375,-0.17418 23.5,0 6.4625,0.17419 1.175,0.3167 -11.75,0.3167 -12.925,0 -18.2125,-0.14251 -11.75,-0.3167 z m 56.5,0.01 c 2.8875,-0.202 7.6125,-0.202 10.5,0 2.8875,0.202 0.525,0.36728 -5.25,0.36728 -5.775,0 -8.1375,-0.16528 -5.25,-0.36728 z m 31.04748,-0.008 c 4.56362,-0.18572 11.76362,-0.18468 16,0.002 4.23639,0.18698 0.50252,0.33893 -8.29748,0.33766 -8.8,-0.001 -12.26613,-0.15425 -7.70252,-0.33996 z m 26.47155,0.0518 c 0.97297,-0.25354 2.32297,-0.23687 3,0.0371 0.67703,0.27393 -0.11903,0.48137 -1.76903,0.46099 -1.65,-0.0204 -2.20394,-0.2445 -1.23097,-0.49804 z M 218.75,132.29427 c 1.2375,-0.23836 3.2625,-0.23836 4.5,0 1.2375,0.23835 0.225,0.43337 -2.25,0.43337 -2.475,0 -3.4875,-0.19502 -2.25,-0.43337 z m 16,0.0434 c 0.6875,-0.27741 1.8125,-0.27741 2.5,0 0.6875,0.27741 0.125,0.50439 -1.25,0.50439 -1.375,0 -1.9375,-0.22698 -1.25,-0.50439 z m 142.0625,-0.0208 c 0.72187,-0.28887 1.58438,-0.25335 1.91667,0.0789 0.33229,0.33229 -0.25834,0.56864 -1.3125,0.52522 -1.16495,-0.048 -1.4019,-0.28494 -0.60417,-0.60416 z M 600.75,127.33772 c 0.6875,-0.27741 1.8125,-0.27741 2.5,0 0.6875,0.27741 0.125,0.50439 -1.25,0.50439 -1.375,0 -1.9375,-0.22698 -1.25,-0.50439 z m -394.5,-24.07276 c 2.6125,-0.206 6.8875,-0.206 9.5,0 2.6125,0.206 0.475,0.37454 -4.75,0.37454 -5.225,0 -7.3625,-0.16854 -4.75,-0.37454 z m 61.01903,0.0421 c 0.97297,-0.25354 2.32297,-0.23687 3,0.037 0.67703,0.27393 -0.11903,0.48137 -1.76903,0.46099 -1.65,-0.0204 -2.20394,-0.2445 -1.23097,-0.49804 z m 163.49263,-0.0143 c 1.24391,-0.23919 3.04391,-0.23011 4,0.0202 0.95609,0.25029 -0.0617,0.446 -2.26166,0.4349 -2.2,-0.0111 -2.98225,-0.21589 -1.73834,-0.45508 z m 7.05084,0.0242 c 0.72187,-0.28887 1.58438,-0.25335 1.91667,0.0789 0.33229,0.33229 -0.25834,0.56864 -1.3125,0.52522 -1.16495,-0.048 -1.4019,-0.28494 -0.60417,-0.60416 z M 104.15789,94 c 0,-1.375 0.22698,-1.9375 0.50439,-1.25 0.27741,0.6875 0.27741,1.8125 0,2.5 -0.27741,0.6875 -0.50439,0.125 -0.50439,-1.25 z M 3.0789474,50.416667 c 0.047984,-1.164943 0.2849403,-1.4019 0.6041666,-0.604167 0.2888706,0.721875 0.2533443,1.584375 -0.078947,1.916667 -0.3322917,0.332291 -0.5686404,-0.258334 -0.5252196,-1.3125 z M -109.80505,36.5 c 0.0204,-1.65 0.2445,-2.203936 0.49804,-1.230968 0.25354,0.972967 0.23687,2.322967 -0.037,3 C -109.61799,38.946064 -109.82543,38.15 -109.80505,36.5 Z M -77.75,33.283746 c 1.5125,-0.229125 3.9875,-0.229125 5.5,0 1.5125,0.229124 0.275,0.41659 -2.75,0.41659 -3.025,0 -4.2625,-0.187466 -2.75,-0.41659 z"
         id="path831" /><path
         style="fill:#b9b9b9;fill-opacity:1"
         d="m 298.26903,168.30701 c 0.97297,-0.25354 2.32297,-0.23687 3,0.0371 0.67703,0.27393 -0.11903,0.48137 -1.76903,0.46099 -1.65,-0.0204 -2.20394,-0.2445 -1.23097,-0.49804 z m 9.54347,0.01 c 0.72187,-0.28887 1.58438,-0.25335 1.91667,0.0789 0.33229,0.33229 -0.25834,0.56864 -1.3125,0.52522 -1.16495,-0.048 -1.4019,-0.28494 -0.60417,-0.60416 z m 3.9375,0.0208 c 0.6875,-0.27741 1.8125,-0.27741 2.5,0 0.6875,0.27741 0.125,0.50439 -1.25,0.50439 -1.375,0 -1.9375,-0.22698 -1.25,-0.50439 z m -624.44358,-32.08498 c 6.49353,-0.17445 16.84353,-0.17388 23,0.001 6.15647,0.17516 0.84358,0.31789 -11.80642,0.31719 -12.65,-7e-4 -17.68711,-0.14401 -11.19358,-0.31847 z m 84.94358,0.031 c 1.5125,-0.22913 3.9875,-0.22913 5.5,0 1.5125,0.22912 0.275,0.41659 -2.75,0.41659 -3.025,0 -4.2625,-0.18747 -2.75,-0.41659 z m 37.5625,0.0331 c 0.72188,-0.28887 1.58438,-0.25335 1.91667,0.0789 0.33229,0.33229 -0.25834,0.56864 -1.3125,0.52522 -1.16495,-0.048 -1.4019,-0.28494 -0.60417,-0.60416 z M 209.25,132.28375 c 1.5125,-0.22913 3.9875,-0.22913 5.5,0 1.5125,0.22912 0.275,0.41659 -2.75,0.41659 -3.025,0 -4.2625,-0.18747 -2.75,-0.41659 z m 17,0.0269 c 0.9625,-0.25152 2.5375,-0.25152 3.5,0 0.9625,0.25153 0.175,0.45733 -1.75,0.45733 -1.925,0 -2.7125,-0.2058 -1.75,-0.45733 z m 16.53352,-0.0491 c 2.90594,-0.20265 7.40594,-0.20052 10,0.005 2.59406,0.20525 0.21648,0.37104 -5.28352,0.36844 -5.5,-0.003 -7.62242,-0.17053 -4.71648,-0.37317 z M 488.75,131.2766 c 1.7875,-0.22182 4.7125,-0.22182 6.5,0 1.7875,0.22183 0.325,0.40333 -3.25,0.40333 -3.575,0 -5.0375,-0.1815 -3.25,-0.40333 z M -51,115.62244 c 0,-0.20765 0.7875,-0.99515 1.75,-1.75 1.586056,-1.24387 1.621426,-1.2085 0.377555,0.37756 C -50.178814,115.91575 -51,116.44548 -51,115.62244 Z m 249.26903,-12.31543 c 0.97297,-0.25354 2.32297,-0.23687 3,0.037 0.67703,0.27393 -0.11903,0.48137 -1.76903,0.46099 -1.65,-0.0204 -2.20394,-0.2445 -1.23097,-0.49804 z M 578.75,97.337719 c 0.6875,-0.277412 1.8125,-0.277412 2.5,0 0.6875,0.277413 0.125,0.504386 -1.25,0.504386 -1.375,0 -1.9375,-0.226973 -1.25,-0.504386 z m 14.0625,-0.02083 c 0.72187,-0.288871 1.58438,-0.253344 1.91667,0.07895 0.33229,0.332292 -0.25834,0.568641 -1.3125,0.52522 -1.16495,-0.04798 -1.4019,-0.284941 -0.60417,-0.604167 z M -55.730968,87.307009 c 0.972967,-0.253543 2.322967,-0.236869 3,0.03705 0.677032,0.273923 -0.119032,0.481368 -1.769032,0.460988 -1.65,-0.02038 -2.203936,-0.244498 -1.230968,-0.498042 z m 9.011141,-0.04328 c 2.629095,-0.206676 6.679095,-0.204183 9,0.0055 2.320905,0.209724 0.169827,0.378823 -4.780173,0.375776 -4.95,-0.003 -6.848922,-0.17464 -4.219827,-0.381317 z M -109.768,53 c 0,-1.925 0.2058,-2.7125 0.45733,-1.75 0.25152,0.9625 0.25152,2.5375 0,3.5 -0.25153,0.9625 -0.45733,0.175 -0.45733,-1.75 z m 373.10421,-5 c 0,-4.125 0.17651,-5.8125 0.39226,-3.75 0.21574,2.0625 0.21574,5.4375 0,7.5 -0.21575,2.0625 -0.39226,0.375 -0.39226,-3.75 z m -373.03655,-4 c 0,-3.025 0.18747,-4.2625 0.41659,-2.75 0.22913,1.5125 0.22913,3.9875 0,5.5 -0.22912,1.5125 -0.41659,0.275 -0.41659,-2.75 z M -68.75,33.310674 c 0.9625,-0.251527 2.5375,-0.251527 3.5,0 0.9625,0.251528 0.175,0.457323 -1.75,0.457323 -1.925,0 -2.7125,-0.205795 -1.75,-0.457323 z"
         id="path830" /><path
         style="fill:#a3a3a3;fill-opacity:1"
         d="m -33.1875,279.31689 c 0.721875,-0.28887 1.584375,-0.25335 1.916667,0.0789 0.332291,0.33229 -0.258334,0.56864 -1.3125,0.52522 -1.164943,-0.048 -1.4019,-0.28494 -0.604167,-0.60416 z M 2,243.62244 c 0,-0.20765 0.7875,-0.99515 1.75,-1.75 1.5860556,-1.24387 1.6214259,-1.2085 0.3775553,0.37756 C 2.8211855,243.91575 2,244.44548 2,243.62244 Z M 39.320074,223 c 0,-3.575 0.181495,-5.0375 0.403322,-3.25 0.221826,1.7875 0.221826,4.7125 0,6.5 -0.221827,1.7875 -0.403322,0.325 -0.403322,-3.25 z M 301.26903,196.30701 c 0.97297,-0.25354 2.32297,-0.23687 3,0.0371 0.67703,0.27393 -0.11903,0.48137 -1.76903,0.46099 -1.65,-0.0204 -2.20394,-0.2445 -1.23097,-0.49804 z m 2,-28 c 0.97297,-0.25354 2.32297,-0.23687 3,0.0371 0.67703,0.27393 -0.11903,0.48137 -1.76903,0.46099 -1.65,-0.0204 -2.20394,-0.2445 -1.23097,-0.49804 z M 11.078947,142.41667 c 0.04798,-1.16495 0.284941,-1.4019 0.604167,-0.60417 0.288871,0.72187 0.253344,1.58438 -0.07895,1.91667 -0.332292,0.33229 -0.568641,-0.25834 -0.52522,-1.3125 z M 568.19495,136.5 c 0.0204,-1.65 0.2445,-2.20394 0.49804,-1.23097 0.25354,0.97297 0.23687,2.32297 -0.0371,3 -0.27393,0.67703 -0.48137,-0.11903 -0.46099,-1.76903 z M 259.25,132.28375 c 1.5125,-0.22913 3.9875,-0.22913 5.5,0 1.5125,0.22912 0.275,0.41659 -2.75,0.41659 -3.025,0 -4.2625,-0.18747 -2.75,-0.41659 z m 79.51166,0.009 c 1.24391,-0.23919 3.04391,-0.23011 4,0.0202 0.95609,0.25029 -0.0617,0.446 -2.26166,0.4349 -2.2,-0.0111 -2.98225,-0.21589 -1.73834,-0.45508 z m 229.31729,-1.87607 c 0.048,-1.16495 0.28494,-1.4019 0.60416,-0.60417 0.28887,0.72187 0.25335,1.58438 -0.0789,1.91667 -0.33229,0.33229 -0.56864,-0.25834 -0.52522,-1.3125 z M 84.75,103.33772 c 0.6875,-0.27741 1.8125,-0.27741 2.5,0 0.6875,0.27741 0.125,0.50439 -1.25,0.50439 -1.375,0 -1.9375,-0.22698 -1.25,-0.50439 z m 7.5,-0.0271 c 0.9625,-0.25152 2.5375,-0.25152 3.5,0 0.9625,0.25153 0.175,0.45733 -1.75,0.45733 -1.925,0 -2.7125,-0.2058 -1.75,-0.45733 z m 6.5,0.0271 c 0.6875,-0.27741 1.8125,-0.27741 2.5,0 0.6875,0.27741 0.125,0.50439 -1.25,0.50439 -1.375,0 -1.9375,-0.22698 -1.25,-0.50439 z m 95,0 c 0.6875,-0.27741 1.8125,-0.27741 2.5,0 0.6875,0.27741 0.125,0.50439 -1.25,0.50439 -1.375,0 -1.9375,-0.22698 -1.25,-0.50439 z M -1.8421053,97 c 0,-1.375 0.2269737,-1.9375 0.504386,-1.25 0.2774123,0.6875 0.2774123,1.8125 0,2.5 -0.2774123,0.6875 -0.504386,0.125 -0.504386,-1.25 z M 582.75,97.337719 c 0.6875,-0.277412 1.8125,-0.277412 2.5,0 0.6875,0.277413 0.125,0.504386 -1.25,0.504386 -1.375,0 -1.9375,-0.226973 -1.25,-0.504386 z m 5.51903,-0.03071 c 0.97297,-0.253543 2.32297,-0.236869 3,0.03705 0.67703,0.273923 -0.11903,0.481368 -1.76903,0.460988 -1.65,-0.02038 -2.20394,-0.244498 -1.23097,-0.498042 z m 10.54347,0.0099 c 0.72187,-0.288871 1.58438,-0.253344 1.91667,0.07895 0.33229,0.332292 -0.25834,0.568641 -1.3125,0.52522 -1.16495,-0.04798 -1.4019,-0.284941 -0.60417,-0.604167 z m 6,0 c 0.72187,-0.288871 1.58438,-0.253344 1.91667,0.07895 0.33229,0.332292 -0.25834,0.568641 -1.3125,0.52522 -1.16495,-0.04798 -1.4019,-0.284941 -0.60417,-0.604167 z m 5.9375,-0.02262 c 1.2375,-0.238353 3.2625,-0.238353 4.5,0 1.2375,0.238353 0.225,0.433369 -2.25,0.433369 -2.475,0 -3.4875,-0.195016 -2.25,-0.433369 z m 9.01166,-0.0015 c 1.24391,-0.239193 3.04391,-0.230112 4,0.02018 0.95609,0.250292 -0.0617,0.445996 -2.26166,0.434897 -2.2,-0.0111 -2.98225,-0.215885 -1.73834,-0.455077 z M -81.25,87.256012 c 4.5375,-0.185293 11.9625,-0.185293 16.5,0 4.5375,0.185294 0.825,0.336897 -8.25,0.336897 -9.075,0 -12.7875,-0.151603 -8.25,-0.336897 z M 263.34941,63 c 0,-4.675 0.17226,-6.5875 0.3828,-4.25 0.21053,2.3375 0.21053,6.1625 0,8.5 -0.21054,2.3375 -0.3828,0.425 -0.3828,-4.25 z M 111.75,56.337719 c 0.6875,-0.277412 1.8125,-0.277412 2.5,0 0.6875,0.277413 0.125,0.504386 -1.25,0.504386 -1.375,0 -1.9375,-0.226973 -1.25,-0.504386 z M 8.2690319,46.307009 C 9.2419994,46.053466 10.591999,46.07014 11.269032,46.344063 11.946064,46.617986 11.15,46.825431 9.5,46.805051 7.85,46.784672 7.2960644,46.560553 8.2690319,46.307009 Z M 263.19495,38.5 c 0.0204,-1.65 0.2445,-2.203936 0.49804,-1.230968 0.25354,0.972967 0.23687,2.322967 -0.0371,3 C 263.38201,40.946064 263.17457,40.15 263.19495,38.5 Z M -63.1875,33.316886 c 0.721875,-0.288871 1.584375,-0.253344 1.916667,0.07895 0.332291,0.332292 -0.258334,0.568641 -1.3125,0.52522 -1.164943,-0.04798 -1.4019,-0.284941 -0.604167,-0.604167 z m 246.47401,-2.056964 c 3.18258,-0.19905 8.13258,-0.197204 11,0.0041 2.86742,0.201306 0.26349,0.364165 -5.78651,0.361909 -6.05,-0.0023 -8.39607,-0.166961 -5.21349,-0.366011 z"
         id="path829" /><path
         style="fill:#8c8c8c;fill-opacity:1"
         d="m -29.25,279.29427 c 1.2375,-0.23836 3.2625,-0.23836 4.5,0 1.2375,0.23835 0.225,0.43337 -2.25,0.43337 -2.475,0 -3.4875,-0.19502 -2.25,-0.43337 z M -341.768,266 c 0,-1.925 0.2058,-2.7125 0.45733,-1.75 0.25152,0.9625 0.25152,2.5375 0,3.5 -0.25153,0.9625 -0.45733,0.175 -0.45733,-1.75 z M -24,239.62244 c 0,-0.20765 0.7875,-0.99515 1.75,-1.75 1.586056,-1.24387 1.621426,-1.2085 0.377555,0.37756 C -23.178814,239.91575 -24,240.44548 -24,239.62244 Z m 329.8125,-43.30555 c 0.72187,-0.28887 1.58438,-0.25335 1.91667,0.0789 0.33229,0.33229 -0.25834,0.56864 -1.3125,0.52522 -1.16495,-0.048 -1.4019,-0.28494 -0.60417,-0.60416 z M -368.84211,161 c 0,-1.375 0.22698,-1.9375 0.50439,-1.25 0.27741,0.6875 0.27741,1.8125 0,2.5 -0.27741,0.6875 -0.50439,0.125 -0.50439,-1.25 z m 237.65461,-9.68311 c 0.72188,-0.28887 1.58438,-0.25335 1.91667,0.0789 0.33229,0.33229 -0.25834,0.56864 -1.3125,0.52522 -1.16495,-0.048 -1.4019,-0.28494 -0.60417,-0.60416 z M 568.15789,141 c 0,-1.375 0.22698,-1.9375 0.50439,-1.25 0.27741,0.6875 0.27741,1.8125 0,2.5 -0.27741,0.6875 -0.50439,0.125 -0.50439,-1.25 z m -401.38146,-8.7335 c 2.35204,-0.21124 5.95204,-0.20827 8,0.007 2.04796,0.21487 0.12357,0.38771 -4.27643,0.38408 -4.4,-0.004 -6.07561,-0.17944 -3.72357,-0.39069 z m 21,0 c 2.35204,-0.21124 5.95204,-0.20827 8,0.007 2.04796,0.21487 0.12357,0.38771 -4.27643,0.38408 -4.4,-0.004 -6.07561,-0.17944 -3.72357,-0.39069 z m 83.50374,-0.003 c 2.6291,-0.20668 6.6791,-0.20418 9,0.006 2.32091,0.20972 0.16983,0.37882 -4.78017,0.37577 -4.95,-0.003 -6.84892,-0.17464 -4.21983,-0.38131 z m 14.53233,0.0532 c 0.72187,-0.28887 1.58438,-0.25335 1.91667,0.0789 0.33229,0.33229 -0.25834,0.56864 -1.3125,0.52522 -1.16495,-0.048 -1.4019,-0.28494 -0.60417,-0.60416 z m 215,-1 c 0.72187,-0.28887 1.58438,-0.25335 1.91667,0.0789 0.33229,0.33229 -0.25834,0.56864 -1.3125,0.52522 -1.16495,-0.048 -1.4019,-0.28494 -0.60417,-0.60416 z m 90,-4 c 0.72187,-0.28887 1.58438,-0.25335 1.91667,0.0789 0.33229,0.33229 -0.25834,0.56864 -1.3125,0.52522 -1.16495,-0.048 -1.4019,-0.28494 -0.60417,-0.60416 z m 20,0 c 0.72187,-0.28887 1.58438,-0.25335 1.91667,0.0789 0.33229,0.33229 -0.25834,0.56864 -1.3125,0.52522 -1.16495,-0.048 -1.4019,-0.28494 -0.60417,-0.60416 z m -522,-24 c 0.721875,-0.28887 1.584375,-0.25335 1.916667,0.0789 0.332291,0.33229 -0.258334,0.56864 -1.3125,0.52522 -1.164943,-0.048 -1.4019,-0.28494 -0.604167,-0.60416 z m 51.4375,-0.006 c 0.9625,-0.25152 2.5375,-0.25152 3.5,0 0.9625,0.25153 0.175,0.45733 -1.75,0.45733 -1.925,0 -2.7125,-0.2058 -1.75,-0.45733 z m 6.5,0.0271 c 0.6875,-0.27741 1.8125,-0.27741 2.5,0 0.6875,0.27741 0.125,0.50439 -1.25,0.50439 -1.375,0 -1.9375,-0.22698 -1.25,-0.50439 z m 24.54571,-0.0819 c 4.28763,-0.1879 11.03763,-0.18676 15,0.003 3.96236,0.1893 0.45429,0.34304 -7.79571,0.34164 -8.25,-10e-4 -11.49193,-0.15629 -7.20429,-0.34419 z M 525.75,103.3378 c 0.6875,-0.27741 1.8125,-0.27741 2.5,0 0.6875,0.27741 0.125,0.50439 -1.25,0.50439 -1.375,0 -1.9375,-0.22698 -1.25,-0.50439 z M 263.07895,72.416667 c 0.048,-1.164943 0.28494,-1.4019 0.60416,-0.604167 0.28887,0.721875 0.25335,1.584375 -0.0789,1.916667 -0.33229,0.332291 -0.56864,-0.258334 -0.52522,-1.3125 z M -83.645045,46.5 c -0.003,-4.95 0.166052,-7.101078 0.375776,-4.780173 0.209724,2.320905 0.212217,6.370905 0.0055,9 C -83.470405,53.348922 -83.641997,51.45 -83.645045,46.5 Z M 263.15789,34 c 0,-1.375 0.22698,-1.9375 0.50439,-1.25 0.27741,0.6875 0.27741,1.8125 0,2.5 -0.27741,0.6875 -0.50439,0.125 -0.50439,-1.25 z M 202.75,31.267795 c 2.3375,-0.210535 6.1625,-0.210535 8.5,0 2.3375,0.210535 0.425,0.382791 -4.25,0.382791 -4.675,0 -6.5875,-0.172256 -4.25,-0.382791 z m 14.51903,0.03921 c 0.97297,-0.253543 2.32297,-0.236869 3,0.03705 0.67703,0.273923 -0.11903,0.481368 -1.76903,0.460988 -1.65,-0.02038 -2.20394,-0.244498 -1.23097,-0.498042 z m 13.48097,0.03071 c 0.6875,-0.277412 1.8125,-0.277412 2.5,0 0.6875,0.277413 0.125,0.504386 -1.25,0.504386 -1.375,0 -1.9375,-0.226973 -1.25,-0.504386 z"
         id="path828" /><path
         style="fill:#767676;fill-opacity:1"
         d="m -341.70034,258 c 0,-3.025 0.18747,-4.2625 0.41659,-2.75 0.22913,1.5125 0.22913,3.9875 0,5.5 -0.22912,1.5125 -0.41659,0.275 -0.41659,-2.75 z m -0.0677,-11 c 0,-1.925 0.2058,-2.7125 0.45733,-1.75 0.25152,0.9625 0.25152,2.5375 0,3.5 -0.25153,0.9625 -0.45733,0.175 -0.45733,-1.75 z m -27.07411,0 c 0,-1.375 0.22698,-1.9375 0.50439,-1.25 0.27741,0.6875 0.27741,1.8125 0,2.5 -0.27741,0.6875 -0.50439,0.125 -0.50439,-1.25 z M 278.75,220.33772 c 0.6875,-0.27741 1.8125,-0.27741 2.5,0 0.6875,0.27741 0.125,0.50439 -1.25,0.50439 -1.375,0 -1.9375,-0.22698 -1.25,-0.50439 z m 292,-73 c 0.6875,-0.27741 1.8125,-0.27741 2.5,0 0.6875,0.27741 0.125,0.50439 -1.25,0.50439 -1.375,0 -1.9375,-0.22698 -1.25,-0.50439 z M 346,133 c -0.90129,-0.58246 -1.02463,-0.97549 -0.30902,-0.98469 0.65504,-0.008 1.4691,0.43469 1.80902,0.98469 0.7673,1.24153 0.42112,1.24153 -1.5,0 z m -196.25,-0.70573 c 1.2375,-0.23836 3.2625,-0.23836 4.5,0 1.2375,0.23835 0.225,0.43337 -2.25,0.43337 -2.475,0 -3.4875,-0.19502 -2.25,-0.43337 z m 139.5,0.0164 c 0.9625,-0.25152 2.5375,-0.25152 3.5,0 0.9625,0.25153 0.175,0.45733 -1.75,0.45733 -1.925,0 -2.7125,-0.2058 -1.75,-0.45733 z m 40.5,-0.0164 c 1.2375,-0.23836 3.2625,-0.23836 4.5,0 1.2375,0.23835 0.225,0.43337 -2.25,0.43337 -2.475,0 -3.4875,-0.19502 -2.25,-0.43337 z m 174.0625,-0.97738 c 0.72187,-0.28887 1.58438,-0.25335 1.91667,0.0789 0.33229,0.33229 -0.25834,0.56864 -1.3125,0.52522 -1.16495,-0.048 -1.4019,-0.28494 -0.60417,-0.60416 z M 159.25,103.31067 c 0.9625,-0.25152 2.5375,-0.25152 3.5,0 0.9625,0.25153 0.175,0.45733 -1.75,0.45733 -1.925,0 -2.7125,-0.2058 -1.75,-0.45733 z M 60.75,90.337719 c 0.6875,-0.277412 1.8125,-0.277412 2.5,0 0.6875,0.277413 0.125,0.504386 -1.25,0.504386 -1.375,0 -1.9375,-0.226973 -1.25,-0.504386 z m 13.519032,-0.03071 c 0.972967,-0.253543 2.322967,-0.236869 3,0.03705 C 77.946064,90.617986 77.15,90.825431 75.5,90.805051 73.85,90.784672 73.296064,90.560553 74.269032,90.307009 Z m -149,-29 c 0.972967,-0.253543 2.322967,-0.236869 3,0.03705 0.677032,0.273923 -0.119032,0.481368 -1.769032,0.460988 -1.65,-0.02038 -2.203936,-0.244498 -1.230968,-0.498042 z m 9.480968,0.03071 c 0.6875,-0.277412 1.8125,-0.277412 2.5,0 0.6875,0.277413 0.125,0.504386 -1.25,0.504386 -1.375,0 -1.9375,-0.226973 -1.25,-0.504386 z m 13.551941,-0.08385 c 5.391068,-0.180152 13.941068,-0.179366 19,0.0017 5.058933,0.181113 0.648059,0.32851 -9.801941,0.327549 -10.45,-9.61e-4 -14.589126,-0.149144 -9.198059,-0.329296 z M 223.26375,31.282419 c 1.52006,-0.229855 3.77006,-0.223712 5,0.01365 1.22994,0.237362 -0.0137,0.425424 -2.76375,0.417917 -2.75,-0.0075 -3.75631,-0.201713 -2.23625,-0.431567 z"
         id="path827" /><path
         style="fill:#606060;fill-opacity:1"
         d="m -368.92105,294.41667 c 0.048,-1.16495 0.28494,-1.4019 0.60416,-0.60417 0.28887,0.72187 0.25335,1.58438 -0.0789,1.91667 -0.33229,0.33229 -0.56864,-0.25834 -0.52522,-1.3125 z m 27,-23 c 0.048,-1.16495 0.28494,-1.4019 0.60416,-0.60417 0.28887,0.72187 0.25335,1.58438 -0.0789,1.91667 -0.33229,0.33229 -0.56864,-0.25834 -0.52522,-1.3125 z m 0,-20 c 0.048,-1.16495 0.28494,-1.4019 0.60416,-0.60417 0.28887,0.72187 0.25335,1.58438 -0.0789,1.91667 -0.33229,0.33229 -0.56864,-0.25834 -0.52522,-1.3125 z M -341.84211,242 c 0,-1.375 0.22698,-1.9375 0.50439,-1.25 0.27741,0.6875 0.27741,1.8125 0,2.5 -0.27741,0.6875 -0.50439,0.125 -0.50439,-1.25 z m -27.07894,-1.58333 c 0.048,-1.16495 0.28494,-1.4019 0.60416,-0.60417 0.28887,0.72187 0.25335,1.58438 -0.0789,1.91667 -0.33229,0.33229 -0.56864,-0.25834 -0.52522,-1.3125 z M 284.8125,196.31689 c 0.72187,-0.28887 1.58438,-0.25335 1.91667,0.0789 0.33229,0.33229 -0.25834,0.56864 -1.3125,0.52522 -1.16495,-0.048 -1.4019,-0.28494 -0.60417,-0.60416 z m 290,-49 c 0.72187,-0.28887 1.58438,-0.25335 1.91667,0.0789 0.33229,0.33229 -0.25834,0.56864 -1.3125,0.52522 -1.16495,-0.048 -1.4019,-0.28494 -0.60417,-0.60416 z m 5.9152,-0.0386 c 1.77523,-0.22091 4.92523,-0.22454 7,-0.008 2.07476,0.21648 0.6223,0.39722 -3.2277,0.40166 -3.85,0.004 -5.54754,-0.17268 -3.7723,-0.39359 z M 138.75,132.29427 c 1.2375,-0.23836 3.2625,-0.23836 4.5,0 1.2375,0.23835 0.225,0.43337 -2.25,0.43337 -2.475,0 -3.4875,-0.19502 -2.25,-0.43337 z m 156.0625,0.0226 c 0.72187,-0.28887 1.58438,-0.25335 1.91667,0.0789 0.33229,0.33229 -0.25834,0.56864 -1.3125,0.52522 -1.16495,-0.048 -1.4019,-0.28494 -0.60417,-0.60416 z m 28.4375,-0.006 c 0.9625,-0.25152 2.5375,-0.25152 3.5,0 0.9625,0.25153 0.175,0.45733 -1.75,0.45733 -1.925,0 -2.7125,-0.2058 -1.75,-0.45733 z m 262.5625,-4.99378 c 0.72187,-0.28887 1.58438,-0.25335 1.91667,0.0789 0.33229,0.33229 -0.25834,0.56864 -1.3125,0.52522 -1.16495,-0.048 -1.4019,-0.28494 -0.60417,-0.60416 z M -61,126.62244 c 0,-0.20765 0.7875,-0.99515 1.75,-1.75 1.586056,-1.24387 1.621426,-1.2085 0.377555,0.37756 C -60.178814,126.91575 -61,127.44548 -61,126.62244 Z m 592.8125,-23.30555 c 0.72187,-0.28887 1.58438,-0.25335 1.91667,0.0789 0.33229,0.33229 -0.25834,0.56864 -1.3125,0.52522 -1.16495,-0.048 -1.4019,-0.28494 -0.60417,-0.60416 z M 66.26375,90.282419 c 1.520062,-0.229855 3.770062,-0.223712 5,0.01365 1.229937,0.237362 -0.01375,0.425424 -2.76375,0.417917 -2.75,-0.0075 -3.756313,-0.201713 -2.23625,-0.431567 z M 237.34941,61 c 0,-4.675 0.17226,-6.5875 0.3828,-4.25 0.21053,2.3375 0.21053,6.1625 0,8.5 -0.21054,2.3375 -0.3828,0.425 -0.3828,-4.25 z m -307.080378,0.307009 c 0.972967,-0.253543 2.322967,-0.236869 3,0.03705 0.677032,0.273923 -0.119032,0.481368 -1.769032,0.460988 -1.65,-0.02038 -2.203936,-0.244498 -1.230968,-0.498042 z M 237.19495,35.5 c 0.0204,-1.65 0.2445,-2.203936 0.49804,-1.230968 0.25354,0.972967 0.23687,2.322967 -0.0371,3 C 237.38201,37.946064 237.17457,37.15 237.19495,35.5 Z m -288.9887,-2.240553 c 3.688437,-0.191858 9.988437,-0.193134 14,-0.0028 4.011562,0.190298 0.99375,0.347272 -6.70625,0.348833 -7.7,0.0016 -10.982188,-0.154138 -7.29375,-0.345996 z M -43.75,8.2566915 c 4.2625,-0.187451 11.2375,-0.187451 15.5,0 4.2625,0.187451 0.775,0.3408201 -7.75,0.3408201 -8.525,0 -12.0125,-0.1533691 -7.75,-0.3408201 z"
         id="path826" /><path
         style="fill:#494949;fill-opacity:1"
         d="m -368.58317,271.5 c 9.6e-4,-10.45 0.14915,-14.58913 0.3293,-9.19806 0.18015,5.39107 0.17936,13.94107 -0.002,19 -0.18111,5.05893 -0.32851,0.64806 -0.32755,-9.80194 z m 26.81517,7.5 c 0,-1.925 0.2058,-2.7125 0.45733,-1.75 0.25152,0.9625 0.25152,2.5375 0,3.5 -0.25153,0.9625 -0.45733,0.175 -0.45733,-1.75 z m -27.15305,-28.58333 c 0.048,-1.16495 0.28494,-1.4019 0.60416,-0.60417 0.28887,0.72187 0.25335,1.58438 -0.0789,1.91667 -0.33229,0.33229 -0.56864,-0.25834 -0.52522,-1.3125 z M 593.25,147.28375 c 1.5125,-0.22913 3.9875,-0.22913 5.5,0 1.5125,0.22912 0.275,0.41659 -2.75,0.41659 -3.025,0 -4.2625,-0.18747 -2.75,-0.41659 z m 12,-0.0122 c 2.0625,-0.21574 5.4375,-0.21574 7.5,0 2.0625,0.21575 0.375,0.39226 -3.75,0.39226 -4.125,0 -5.8125,-0.17651 -3.75,-0.39226 z m -477,-14.96086 c 0.9625,-0.25152 2.5375,-0.25152 3.5,0 0.9625,0.25153 0.175,0.45733 -1.75,0.45733 -1.925,0 -2.7125,-0.2058 -1.75,-0.45733 z m 73.5,0.0271 c 0.6875,-0.27741 1.8125,-0.27741 2.5,0 0.6875,0.27741 0.125,0.50439 -1.25,0.50439 -1.375,0 -1.9375,-0.22698 -1.25,-0.50439 z m 96.51903,-0.0307 c 0.97297,-0.25354 2.32297,-0.23687 3,0.0371 0.67703,0.27393 -0.11903,0.48137 -1.76903,0.46099 -1.65,-0.0204 -2.20394,-0.2445 -1.23097,-0.49804 z m 173.49888,-1.03174 c 1.79735,-0.22256 4.49735,-0.21797 6,0.0102 1.50265,0.22818 0.0321,0.41027 -3.26791,0.40466 -3.3,-0.006 -4.52944,-0.1923 -2.73209,-0.41486 z M 237.32814,46.5 c 0.004,-3.85 0.18518,-5.302463 0.40166,-3.227696 0.21647,2.074768 0.21284,5.224768 -0.008,7 C 237.50082,52.047537 237.3237,50.35 237.32814,46.5 Z M -30.1875,33.316886 c 0.721875,-0.288871 1.584375,-0.253344 1.916667,0.07895 0.332291,0.332292 -0.258334,0.568641 -1.3125,0.52522 -1.164943,-0.04798 -1.4019,-0.284941 -0.604167,-0.604167 z m 3.9375,0.02083 c 0.6875,-0.277412 1.8125,-0.277412 2.5,0 0.6875,0.277413 0.125,0.504386 -1.25,0.504386 -1.375,0 -1.9375,-0.226973 -1.25,-0.504386 z M -57.73625,8.2824188 c 1.520062,-0.2298544 3.770062,-0.2237119 5,0.01365 1.229937,0.2373619 -0.01375,0.4254246 -2.76375,0.4179171 -2.75,-0.00751 -3.756313,-0.2017128 -2.23625,-0.4315671 z"
         id="path825" /><path
         style="fill:#333333;fill-opacity:1"
         d="m 195.83608,402.10497 c -5.1002,-1.06092 -8.25624,-3.36327 -10.1866,-7.43121 -4.54752,-9.58319 1.20923,-19.04065 12.39655,-20.36562 4.32286,-0.51198 5.27015,-1.00955 6.10563,-3.20707 1.02481,-2.6955 8.48303,-19.29385 21.83816,-48.60107 4.26074,-9.35 12.15117,-26.675 17.53429,-38.5 5.38312,-11.825 11.27979,-24.75978 13.10369,-28.74396 l 3.3162,-7.24396 -4.222,-2.12255 c -5.84631,-2.93916 -7.55336,-4.63067 -10.46223,-10.36705 -4.18716,-8.25723 -6.27426,-15.53 -7.30353,-25.45012 -0.538,-5.1852 -1.15038,-9.59983 -1.36084,-9.8103 -0.21047,-0.21046 -9.31803,0.30457 -20.23903,1.14452 -10.92101,0.83996 -24.58137,1.7961 -30.35637,2.12476 -18.49436,1.05255 -51.64174,3.41714 -83,5.92084 -16.775,1.33935 -37.628302,2.90919 -46.340671,3.48852 -8.712369,0.57934 -16.249869,1.30624 -16.75,1.61534 C 39.409198,214.86514 39,218.89433 39,223.5098 c 0,16.54554 -4.8991,29.30601 -15.315731,39.89219 -5.235714,5.32093 -7.485482,6.7848 -14.6677528,9.54395 C -4.7805134,278.24622 -11.31453,279.21732 -30,278.74465 c -13.330668,-0.33721 -17.750776,-0.82655 -23.01172,-2.5476 -9.890848,-3.23565 -18.371736,-9.45128 -25.324988,-18.56065 l -5.977167,-7.8306 -3.227617,5.8471 c -16.816798,30.46505 -23.368578,34.931 -46.719628,31.8459 -14.03266,-1.85398 -28.33715,-5.61061 -36.49869,-9.58527 C -177.88931,274.44148 -182,269.45108 -182,264.26787 c 0,-3.28111 -0.7833,-4.01718 -2.55,-2.39626 -1.87911,1.72405 -22.91476,9.33132 -58.11289,21.01577 -19.71041,6.5431 -44.16211,14.91757 -54.33711,18.60993 -34.77814,12.62047 -44.02189,15.44928 -50.5,15.4542 -9.70708,0.007 -15.77281,-3.57351 -18.95526,-11.19019 -2.20483,-5.2769 -2.81223,-149.05081 -0.65593,-155.26132 2.0815,-5.99508 4.6516,-9.09911 9.46218,-11.42787 4.3317,-2.09694 4.46521,-2.09919 108.74302,-1.83582 L -144.5,137.5 l 3.12671,2.23031 c 1.7197,1.22666 3.83619,3.72541 4.70333,5.55277 3.04724,6.42158 4.40319,6.98572 13.72345,5.7096 18.08353,-2.47598 44.471681,-11.48892 55.815168,-19.06381 3.112873,-2.0787 8.752412,-7.22127 12.532307,-11.42794 11.7106,-13.03281 15.43254,-14.57743 37.099035,-15.39625 l 16,-0.60468 0.3363421,-4 c 0.1849881,-2.2 0.026871,-7.775179 -0.3513717,-12.389287 L -2.2027433,79.721425 -4.3513717,82.3291 C -8.4250556,87.273111 -9.5565497,87.383414 -53,87.071569 -97.066818,86.755249 -97.289859,86.727279 -102.63303,80.847318 -108.27164,74.642229 -108.5,73.34426 -108.5,47.5 c 0,-23.159552 0.0822,-24.166834 2.34605,-28.764134 1.68849,-3.428824 3.65048,-5.530954 6.999999,-7.5 L -94.5,8.5 -54,8.8184894 c 45.3292055,0.356466 45.200962,0.3371805 49.9175422,7.5066896 L -1.6649156,20 H 16.030632 33.726179 l 0.516744,-6.437532 C 34.880939,5.614123 37.674608,0.75439892 43.350772,-2.281086 47.218626,-4.3495277 48.788456,-4.5 66.5,-4.5 c 18.664616,0 19.098021,0.04814 24.553035,2.7271829 6.658398,3.2700437 9.571965,7.730834 10.564345,16.1744251 l 0.67331,5.728809 9.10466,-0.362527 c 6.71994,-0.267572 12.37868,-1.318214 21.60465,-4.011271 6.875,-2.00681 18.62865,-5.273684 26.11923,-7.2597205 l 13.61923,-3.6109756 36.88077,0.3070385 c 33.7378,0.2808728 37.17904,0.4661417 40.38077,2.1740118 4.91719,2.62293 7.85269,5.4976388 10.34732,10.1330268 2.03386,3.779221 2.16961,5.55553 2.45937,32.182596 0.20854,19.163075 -0.0647,29.564332 -0.85389,32.5 -1.50552,5.600536 -7.27466,11.159899 -13.09034,12.614357 -2.7374,0.684601 -18.56539,1.121598 -42.49004,1.173113 l -38.12758,0.0821 -15.6435,-4.026081 C 143.99742,89.811737 136.29233,88 135.47892,88 134.29694,88 134,89.606235 134,96 v 8 l 199.75,-0.0136 c 109.8625,-0.008 200.7625,-0.285 202,-0.61664 1.63803,-0.43897 2.25,-1.34698 2.25,-3.33846 0,-7.872735 9.32251,-13.553988 20.45702,-12.466764 7.62682,0.744717 11.20892,2.321082 15.48915,6.816272 L 577.39233,98 h 25.83596 c 28.99452,0 30.01324,0.191352 35.93044,6.74898 5.23245,5.79878 6.05205,11.00958 5.6636,36.0079 -0.2949,18.97766 -0.50555,21.08356 -2.47501,24.74312 -2.702,5.02071 -5.83886,7.97178 -10.57885,9.95227 -3.04339,1.27161 -8.687,1.54773 -31.63428,1.54773 -27.81729,0 -27.9475,0.01 -32.25335,2.45569 -5.32725,3.02593 -13.09344,4.1027 -18.70071,2.59281 -2.43127,-0.65467 -6.32865,-3.01598 -9.22789,-5.59092 L 534.93324,172 h -82.9197 -82.91971 l -1.74259,3.75 c -2.88821,6.2153 -13.0814,15.47843 -20.67082,18.78474 l -6.68973,2.91436 0.61835,4.66133 c 1.21822,9.18342 -4.02532,27.82046 -10.45768,37.16957 -2.84372,4.13321 -4.19624,5.04371 -11.37807,7.65961 l -2.72671,0.99318 3.88786,7.2836 c 2.13833,4.00599 6.60054,13.13361 9.91604,20.28361 13.7479,29.64785 33.76454,73.82184 38.71353,85.43545 l 5.29921,12.43545 4.46977,1.13492 c 6.11743,1.55328 9.57166,4.02174 11.25054,8.03984 2.88636,6.90804 0.55235,14.26426 -5.69663,17.95434 -3.05816,1.80588 -5.18253,2 -21.8869,2 -16.70151,0 -18.83009,-0.19443 -21.89547,-2 -4.90036,-2.88641 -7.2157,-6.47161 -7.282,-11.27588 -0.063,-4.56591 2.66292,-10.14035 5.73221,-11.72216 4.57912,-2.35991 4.57873,-2.27576 0.0513,-11.30173 C 336.20575,361.4151 329.85769,347.6 324.49919,335.5 c -5.3585,-12.1 -12.23554,-27.175 -15.28232,-33.5 -3.04678,-6.325 -8.81318,-18.4654 -12.81424,-26.97867 -4.00105,-8.51326 -7.69399,-15.61845 -8.20654,-15.7893 -0.51254,-0.17085 -1.959,2.29455 -3.21435,5.47867 -1.25535,3.18411 -8.2316,18.1643 -15.50277,33.2893 -31.3903,65.29594 -35.32243,73.58486 -35.64194,75.13301 -0.19528,0.9462 1.50307,3.26986 4.03813,5.52489 3.84862,3.4235 4.42698,4.49063 4.80567,8.86699 0.32804,3.79097 -0.0482,5.7371 -1.58094,8.17656 -3.69909,5.88753 -6.68591,6.71488 -25.09989,6.95263 -9.075,0.11717 -18.14877,-0.12993 -20.16392,-0.54911 z M -324.30324,283.08705 c 7.59178,-2.70213 25.49233,-9.22656 39.77899,-14.49874 14.28667,-5.27218 35.88667,-12.77719 48,-16.6778 12.11334,-3.9006 28.45581,-9.77463 36.3166,-13.05339 7.86079,-3.27876 16.41079,-6.21144 19,-6.51708 10.09174,-1.19123 18.29359,3.84005 21.73031,13.33008 2.20438,6.08708 4.87862,8.57973 12.1782,11.35122 6.03848,2.29268 21.8704,3.81024 23.84262,2.28542 0.57391,-0.44372 3.65357,-5.44877 6.84368,-11.12234 9.00769,-16.02003 22.785327,-36.25912 28.538006,-41.92177 5.86933,-5.77748 15.623043,-10.40855 25.574834,-12.14296 3.3,-0.57512 13.425,-1.52385 22.5,-2.10827 9.075,-0.58443 33.15,-2.16912 53.5,-3.52154 20.35,-1.35242 41.05,-2.71838 46,-3.03547 4.95,-0.31708 18.9,-1.44113 31,-2.49788 12.1,-1.05675 33.25,-2.62131 47,-3.47681 25.44606,-1.5832 73.1027,-5.07161 111,-8.12506 12.8882,-1.03843 33.67569,-1.76425 53.81509,-1.87901 l 32.81509,-0.187 4.3768,-4.2955 c 2.40724,-2.36253 5.36777,-6.58998 6.57895,-9.39433 2.49768,-5.78311 3.60755,-16.80597 2.0855,-20.71259 l -1.01834,-2.61377 -98.82655,-0.0531 C 193.97195,132.19013 118.45,132.46632 80.5,132.83311 L 11.5,133.5 10.868622,144 C 10.065515,157.35591 7.5023077,164.44802 1.0643762,171.12726 -2.8127746,175.14973 -4.2480897,176 -7.1611744,176 c -4.2425246,0 -5.8460006,-1.5897 -9.3719816,-9.29146 l -2.626581,-5.7372 1.713686,-6.73567 c 0.942528,-3.70462 1.765969,-10.33567 1.829869,-14.73567 0.114574,-7.88925 0.08048,-8.00415 -2.462866,-8.29993 -1.418476,-0.16496 -5.039001,0.62046 -8.045611,1.74538 -4.522492,1.69208 -6.97691,3.68131 -14.212099,11.51848 -9.630231,10.43148 -12.188183,11.98525 -32.163242,19.5368 -17.316875,6.54663 -28.37472,9.71603 -45.71208,13.10199 -14.42452,2.81709 -16.65258,3.02204 -21.37177,1.96593 -6.82629,-1.52766 -12.73922,-5.86231 -15.00633,-11.00084 L -156.3849,164 H -248.69245 -341 l 0.0429,8.75 c 0.0236,4.8125 -0.2051,30.55151 -0.5082,57.19781 -0.56613,49.77013 -0.27496,58.05219 2.04091,58.05219 0.72486,0 7.52938,-2.21083 15.12117,-4.91295 z M -5.8918561,248.79809 C 5.6066478,243.5127 11,235.56646 11,223.91064 c 0,-4.69781 -0.402761,-6.85122 -1.3493518,-7.21446 -2.2412232,-0.86004 -25.0954642,1.5316 -25.8853352,2.70883 -0.404078,0.60225 -0.744088,2.44499 -0.755577,4.09499 -0.03664,5.26163 -2.060051,10.58427 -5.415551,14.24576 -2.740216,2.99009 -3.959533,3.57263 -7.65153,3.65557 -4.269409,0.0959 -4.468603,-0.0408 -7.143902,-4.90133 -2.089557,-3.79639 -2.757658,-6.38416 -2.775394,-10.75 -0.02696,-6.63549 0.535112,-6.42767 -12.000588,-4.43724 -6.72623,1.068 -7.571479,1.45562 -8.415627,3.85929 -1.912301,5.44519 4.77824,16.81284 12.820859,21.78345 6.035436,3.73011 13.250209,5.07193 25.180141,4.68307 9.21141,-0.30024 12.028812,-0.78526 16.4999999,-2.84048 z M 313.51631,216.63314 C 314.33234,213.88526 315,208.35225 315,204.33755 c 0,-7.0581 -0.0874,-7.32139 -2.644,-7.96305 -2.91095,-0.7306 -35.97259,0.22404 -43.74337,1.26308 l -4.88737,0.65349 0.65652,9.33973 c 1.07158,15.24453 -1.41725,13.85834 25.01764,13.93384 l 22.63319,0.0646 z M 617.7847,137.8757 c 0.2748,-9.28994 0.20532,-9.64555 -2,-10.23634 -3.01412,-0.80745 -25.74015,-0.79751 -38.0347,0.0166 l -9.75,0.64565 0.0136,7.59917 c 0.008,4.17955 0.28693,8.61905 0.62092,9.86555 l 0.60726,2.26638 24.12908,-0.26638 L 617.5,147.5 Z m -80.98998,0.48962 0.29473,-6.13468 -28.59242,-0.73941 c -15.72583,-0.40668 -32.50845,-0.47245 -37.29472,-0.14616 -4.78627,0.32629 -28.38981,0.60713 -52.45231,0.62409 L 375,132 v 6.50591 6.50592 L 455.75,144.75591 536.5,144.5 Z M 103.8,102.8 c 1.44433,-1.44433 1.63184,-15.533973 0.25493,-19.155526 L 103.10986,81.15875 94.939062,85.329375 86.768265,89.5 66.134133,89.459852 C 43.216066,89.415259 40.380177,88.784744 32.676868,82.021149 30.687366,80.274342 28.596183,79.131539 28.029795,79.481585 27.416428,79.860667 27,84.946723 27,92.059017 V 104 h 37.8 c 28.066667,0 38.10899,-0.30899 39,-1.2 z M 238,50 V 31 h -32.30583 c -29.22085,0 -32.87345,0.184658 -38.25,1.933734 -19.64506,6.39085 -42.03084,12.56821 -48.94417,13.50615 l -8,1.08537 -0.30479,4.737373 L 109.89042,57 h 4.48941 c 4.80511,0 7.51368,0.534028 37.62017,7.4173 l 19.5,4.458301 33.25,0.0622 L 238,69 Z M 74.470429,64.718322 C 82.376895,60.240246 85.345126,52.138895 82.57307,42.603354 79.912872,33.452597 73.563058,28 65.566752,28 60.317974,28 56.015806,30.122632 51.803805,34.790454 40.122743,47.735637 48.019897,66.995669 65,66.974089 c 3.849198,-0.0049 6.691708,-0.681951 9.470429,-2.255767 z M -23,47.485337 V 32.970674 L -53.25,33.235337 -83.5,33.5 l -0.307437,10 c -0.169091,5.5 -0.02902,11.9125 0.311273,14.25 l 0.61871,4.25 H -52.938727 -23 Z m 42,4.575936 V 47.122546 L 14.723501,46.481245 C 12.371426,46.12853 8.883926,45.988457 6.9735006,46.169972 3.5367376,46.496509 3.4968031,46.555527 3.1977404,51.75 L 2.8954808,57 H 10.94774 19 Z"
         id="path824" /></g><path
       style="fill:#ffffff;stroke:none;stroke-width:5.12302;stroke-linecap:round;stroke-dasharray:none"
       d="m 70.64101,490.36423 c -1.275644,-0.94709 -6.041753,-6.31775 -31.389122,-35.37058 l -18.216207,-20.87921 42.951556,-37.59623 42.951553,-37.59623 1.52747,0.75506 c 3.52958,1.74472 7.83326,1.5179 12.14296,-0.63995 2.3865,-1.19491 3.01914,-1.74646 5.91955,-5.16074 10.29995,-12.12505 23.22642,-33.63698 25.7343,-42.82646 0.55625,-2.03825 1.07158,-6.36414 1.14518,-9.61307 0.1587,-7.00714 1.26021,-10.59549 4.03748,-13.15291 l 1.86444,-1.71686 3.32357,3.96468 c 1.92375,2.29489 4.0796,5.41698 5.11863,7.41299 l 1.79509,3.44834 3.49822,1.55389 c 4.69459,2.08533 6.57504,2.1751 8.59138,0.41016 1.4288,-1.25066 1.59301,-1.74156 1.78038,-5.32264 0.33278,-6.36017 -1.42737,-10.78731 -7.38544,-18.57582 -1.56724,-2.04874 -2.84291,-3.83478 -2.83481,-3.96901 0.008,-0.1342 34.87577,-30.88505 77.48374,-68.33516 l 77.46903,-68.09113 1.37362,0.16036 c 1.08514,0.1267 1.83373,0.70266 3.56451,2.74258 3.98949,4.70194 5.57999,9.47032 5.17761,15.52229 l -0.2031,3.05472 -4.643,4.0641 c -2.84822,2.49309 -4.76841,3.92081 -4.96743,3.69344 -0.46939,-0.53626 -1.78558,0.75683 -1.52775,1.50093 0.15414,0.44487 0.0248,0.5877 -0.44394,0.49004 -0.92066,-0.19187 -3.70306,2.17614 -3.57002,3.03837 0.0857,0.55535 0.0206,0.60909 -0.30206,0.24946 -0.48827,-0.54359 -2.26295,0.87313 -2.12543,1.69676 0.0534,0.31944 -1.56749,2.0307 -3.67751,3.88271 -6.09913,5.35333 -16.90091,15.96989 -33.32224,32.75088 -8.45748,8.64271 -22.43555,22.79534 -31.06237,31.45027 -8.62681,8.65492 -19.23609,19.42025 -23.57616,23.92295 -4.34005,4.50269 -19.75364,20.04431 -34.25239,34.53695 -14.49874,14.49265 -27.77412,27.91089 -29.50081,29.81832 -5.7258,6.32514 -8.87244,12.75114 -9.28541,18.96248 -0.36365,5.46961 1.38574,19.64064 4.02331,32.59116 0.57831,2.83943 0.89249,5.7331 0.69819,6.43039 -0.29527,1.05973 -1.02265,1.74242 -4.43179,4.15955 -4.5723,3.24181 -8.61361,5.07962 -11.61562,5.28228 -1.23011,0.083 -3.4499,-0.48501 -5.69642,-1.45772 -7.99162,-3.46026 -13.62353,-1.28208 -18.45775,7.13869 -1.20332,2.09607 -3.50418,6.34584 -5.11305,9.44397 -1.60887,3.09811 -6.73859,12.21444 -11.39939,20.25848 -4.660796,8.04406 -13.426702,23.60778 -19.479778,34.58605 -6.053061,10.97828 -11.359888,20.45458 -11.792925,21.05845 -0.682992,0.95243 -0.934796,0.98847 -1.899825,0.27198 z"
       id="path832" /><path
       style="fill:#ffffff;stroke:none;stroke-width:5.12302;stroke-linecap:round;stroke-dasharray:none"
       d="m 98.871614,280.06028 c -0.426305,-0.43698 -3.029124,-3.31406 -5.784046,-6.39352 l -5.008982,-5.599 2.756355,-2.48774 c 2.962412,-2.67377 22.972119,-20.16912 24.396249,-21.33068 0.85752,-0.69946 0.87181,-0.6868 6.56748,5.82018 l 5.70806,6.52113 -3.88249,2.85651 c -2.13539,1.57109 -5.40248,4.31731 -7.26023,6.10273 -3.30174,3.17317 -6.21227,5.72371 -9.56036,8.37801 -0.91525,0.72553 -1.67662,1.50752 -1.69189,1.73781 -0.0153,0.23024 -0.39587,0.42832 -0.84572,0.44012 -0.57674,0.0152 -0.93396,0.32951 -1.21163,1.0661 -0.21654,0.57457 -1.07185,1.63829 -1.9007,2.36378 -1.30236,1.13999 -1.612265,1.21122 -2.282106,0.52459 z"
       id="path833" /><path
       style="fill:#ffffff;stroke:none;stroke-width:1.81126;stroke-linecap:round;stroke-dasharray:none"
       d="m 136.61294,242.30891 c -0.4672,-0.62487 -0.85312,-1.27388 -0.85755,-1.44227 -0.005,-0.202 -0.27535,-0.54841 -0.79375,-1.01814 -1.04493,-0.94695 -1.13158,-1.4637 -0.39178,-2.3368 0.33756,-0.39845 0.66861,-0.65117 0.90251,-0.68909 0.49116,-0.0796 1.9886,-1.39029 1.81503,-1.5886 -0.13881,-0.15857 0.5613,-0.69186 2.60374,-1.98331 l 1.08019,-0.68302 1.93431,2.20985 1.93431,2.20983 -3.68877,3.22885 -3.68877,3.22884 z"
       id="path834" /><path
       style="fill:#ffffff;stroke:none;stroke-width:1.81126;stroke-linecap:round;stroke-dasharray:none"
       d="m 169.28359,223.79493 c -0.17341,0.0928 -0.69508,0.38921 -1.15934,0.65869 -2.61544,1.51813 -6.60329,1.71205 -9.49264,0.46164 -0.82721,-0.358 -1.86666,-0.90632 -2.30988,-1.2185 -1.13407,-0.79877 -2.96803,-2.96824 -3.59844,-4.25677 -2.06979,-4.23049 -1.70739,-9.94673 0.84677,-13.35564 0.94934,-1.26706 1.58286,-1.81745 3.05078,-2.6505 1.74296,-0.98912 3.50202,-1.35982 5.73447,-1.20846 1.54427,0.1047 2.21178,0.26551 3.74349,0.90186 2.63603,1.09511 3.92173,1.99779 5.70721,4.00692 1.2392,1.39439 1.52275,1.80708 1.98103,2.88343 1.33598,3.13768 1.00662,6.99049 -0.85589,10.01173 -0.64569,1.0474 -2.88146,3.35551 -3.64756,3.76557 z"
       id="path835" /><path
       style="fill:#ffffff;stroke:none;stroke-width:1.81126;stroke-linecap:round;stroke-dasharray:none"
       d="m 201.11479,348.10091 c -3.69405,2.88653 -7.00768,4.37583 -10.53533,4.73502 -1.6974,0.17285 -5.1969,-0.14533 -6.99345,-0.63587 -1.95917,-0.53492 -3.91947,-1.43115 -5.15026,-2.35464 -1.83084,-1.37373 -2.34518,-2.96201 -1.43079,-4.41824 0.57048,-0.90856 4.19695,-5.30116 5.36839,-6.50253 0.94386,-0.96799 1.02531,-1.01801 1.59492,-0.98018 0.567,0.0376 0.69963,0.14463 2.39364,1.92987 2.01968,2.12842 2.78079,2.68571 4.91645,3.59975 2.23146,0.95504 3.63308,1.28696 4.38167,1.03757 0.98626,-0.32855 3.08171,-2.41698 3.5571,-3.5452 0.19827,-0.47052 0.47062,-0.92416 0.60524,-1.0081 0.13989,-0.0871 0.24459,-0.67574 0.24438,-1.37346 -3.7e-4,-1.22754 -0.0677,-1.51705 -0.30457,-1.30971 -0.0706,0.0617 -0.21062,-0.45142 -0.31137,-1.14031 -0.32805,-2.24323 -1.21513,-4.18601 -3.03545,-6.6479 -0.67463,-0.91237 -1.26345,-1.81813 -1.30854,-2.01275 -0.11637,-0.5024 0.28023,-1.11892 2.05126,-3.18863 3.35497,-3.92077 7.82752,-8.45714 8.6197,-8.74267 0.69992,-0.25227 1.48268,0.33423 3.43984,2.57739 1.85191,2.12202 2.73057,3.54779 3.52194,5.71246 0.50708,1.38703 0.86645,3.41617 0.76867,4.34024 -0.0321,0.3029 -0.1152,1.32005 -0.18477,2.26036 -0.0696,0.9403 -0.281,2.24566 -0.46979,2.9008 -0.52739,1.83004 -1.79359,4.64914 -2.64629,5.89179 -1.38731,2.02174 -5.66275,6.19487 -9.09259,8.87494 z"
       id="path836" /><path
       style="fill:#ffffff;stroke:none;stroke-width:1.81126;stroke-linecap:round;stroke-dasharray:none"
       d="m 219.07649,181.2573 c -5.4583,2.89715 -21.73449,11.72551 -24.01205,13.02437 -1.44352,0.82322 -3.20822,1.94077 -3.92153,2.48345 -0.7991,0.60797 -1.42495,0.9782 -1.63043,0.96454 -0.55799,-0.0371 -1.2311,0.45383 -1.49076,1.08724 -0.45401,1.10752 -0.46487,1.10279 -2.01337,-0.87703 -0.76915,-0.98339 -1.52467,-2.00978 -1.6789,-2.28088 l -0.28045,-0.49292 2.19626,-2.54738 c 3.47809,-4.03415 9.4383,-12.84667 16.38171,-24.22133 1.49394,-2.44734 3.07304,-4.88674 3.50913,-5.42086 1.05511,-1.29232 4.19139,-4.34113 4.46732,-4.34273 0.32213,-0.002 6.31749,-5.28911 6.27646,-5.53507 -0.0449,-0.26907 2.79573,-2.75555 2.94856,-2.58094 0.0725,0.0828 1.03206,-0.6719 2.60464,-2.04841 1.57256,-1.3765 2.44763,-2.22775 2.37519,-2.31051 -0.067,-0.0766 0.3247,-0.51566 0.94141,-1.05548 0.58087,-0.50845 1.06958,-0.84389 1.086,-0.74545 0.0774,0.46322 1.70927,-0.83247 1.7461,-1.38635 0.0273,-0.41097 0.76496,-1.14704 0.94425,-0.94221 0.0698,0.0797 0.70441,-0.38514 1.62176,-1.1881 0.91733,-0.80295 1.46217,-1.37041 1.39233,-1.4502 -0.17623,-0.20134 0.38256,-0.60929 0.79683,-0.58177 0.5662,0.0376 1.80515,-1.17579 1.34494,-1.31724 -0.0975,-0.0299 0.29263,-0.46334 0.88093,-0.97828 l 1.05612,-0.92445 0.56994,0.65113 c 0.46743,0.53402 0.52121,0.66904 0.29884,0.75089 -0.23143,0.0852 -0.15008,0.22647 0.55672,0.96655 0.58336,0.61087 0.86773,0.81477 0.96295,0.69063 0.10078,-0.13137 0.41874,0.1489 1.25153,1.10333 0.64454,0.73793 1.00598,1.24687 0.85528,1.20249 -0.30521,-0.09 0.45941,1.0841 1.42284,2.18475 0.90968,1.03926 1.98556,1.97377 2.046,1.77714 0.0286,-0.0929 0.52262,0.36869 1.09786,1.02588 0.57526,0.6572 0.9686,1.20779 0.87401,1.22361 -0.25322,0.0422 1.6574,2.47278 3.00447,3.82199 0.64211,0.6431 1.19049,1.09433 1.21866,1.0027 0.0282,-0.0916 0.31236,0.13173 0.63153,0.49637 l 0.58031,0.66297 -15.50848,13.55053 -15.50849,13.55051 z"
       id="path837" /><path
       style="fill:#ffffff;stroke:none;stroke-width:2.56152;stroke-linecap:round;stroke-dasharray:none"
       d="m 328.97376,211.03731 c -1.14688,0.66101 -2.13207,0.8042 -2.96001,0.43023 -1.03757,-0.46865 -6.55757,-5.87123 -6.52344,-6.38466 0.0281,-0.42273 -0.81545,-1.24541 -1.58662,-1.54737 -0.39684,-0.15537 -0.73586,-0.36835 -0.75337,-0.47327 -0.0913,-0.54688 7.01012,-7.64156 11.82796,-11.81673 1.71475,-1.48602 3.05983,-2.76803 2.98898,-2.84894 -0.0709,-0.0809 0.20485,-0.43909 0.61259,-0.79598 0.40771,-0.35689 0.8143,-0.56549 0.90354,-0.46356 0.22981,0.26255 1.75036,-1.12423 1.78376,-1.62688 0.0215,-0.32439 0.0711,-0.36764 0.22239,-0.19467 0.11433,0.13062 0.46238,-0.0119 0.84333,-0.34537 0.35676,-0.31227 0.57565,-0.65118 0.48643,-0.7531 -0.44959,-0.51365 2.64146,-2.34502 3.44621,-2.04174 0.7448,0.28068 4.65201,4.86347 5.99635,7.03319 0.65091,1.05052 1.46375,2.54846 1.80634,3.32876 l 0.6229,1.41872 -9.40291,8.27794 c -5.17157,4.55289 -9.81311,8.5144 -10.31448,8.80336 z m 5.34714,-4.99383 c -0.0892,-0.10193 -0.49582,0.10668 -0.90355,0.46358 -0.40772,0.35688 -0.66831,0.73228 -0.5791,0.83421 0.0892,0.10193 0.49583,-0.10667 0.90355,-0.46356 0.40773,-0.35688 0.66831,-0.73229 0.5791,-0.83423 z"
       id="path838" /><path
       style="fill:#ffffff;stroke:none;stroke-width:2.56152;stroke-linecap:round;stroke-dasharray:none"
       d="m 344.43393,129.71854 c -2.17976,-2.49025 -2.53131,-2.97779 -2.2959,-3.18387 0.1529,-0.13382 0.351,-0.15993 0.44022,-0.058 0.0892,0.10194 0.45412,-0.0702 0.81088,-0.38245 0.35675,-0.31227 0.58768,-0.63742 0.51321,-0.7225 -0.18256,-0.20857 48.24517,-43.193101 56.78223,-50.399987 0.77035,-0.650384 1.02398,-0.876125 1.56359,-1.392267 0.96039,-0.918602 3.16948,-2.805817 9.11129,-7.783809 l 6.02416,-5.04697 2.23997,2.793626 c 1.232,1.536497 2.23495,2.869396 2.22879,2.961978 -0.006,0.09261 -13.26822,11.82777 -29.47125,26.078163 -16.20303,14.250396 -33.04052,29.097356 -37.41666,32.993226 l -7.95661,7.08344 z"
       id="path839" /><path
       style="fill:#ffffff;stroke:none;stroke-width:2.56152;stroke-linecap:round;stroke-dasharray:none"
       d="m 437.85605,53.916082 c -0.5432,-0.404895 -1.31638,-1.21549 -1.71813,-1.801332 -0.54423,-0.793598 -0.83712,-1.053479 -1.14882,-1.019246 -0.32173,0.03533 -0.38384,-0.02259 -0.26894,-0.250865 0.17944,-0.356509 -1.35557,-2.198162 -1.63112,-1.956963 -0.10194,0.08922 -0.44084,-0.129679 -0.75312,-0.486441 -0.31228,-0.356754 -0.48439,-0.721651 -0.38245,-0.810873 0.24147,-0.211365 -0.68234,-1.266768 -1.05445,-1.204643 -0.15708,0.02622 -0.34237,-0.0172 -0.41177,-0.09649 -0.18368,-0.209847 6.45363,-6.646969 9.07312,-8.799462 1.2941,-1.063356 2.1742,-1.910026 2.08697,-2.009687 -0.0826,-0.09431 0.6005,-0.828456 1.51788,-1.631459 0.98844,-0.865185 1.73409,-1.384478 1.8302,-1.274675 0.0892,0.10193 0.54243,-0.147484 1.00715,-0.554254 0.591,-0.517322 0.74896,-0.769067 0.52568,-0.837698 -0.23771,-0.07306 0.11034,-0.409899 1.3629,-1.319024 0.92515,-0.671492 2.32162,-1.754342 3.10322,-2.406306 0.78162,-0.651965 1.58821,-1.21331 1.79243,-1.247408 0.83965,-0.140187 1.61737,0.590162 4.9022,4.603604 l 3.28776,4.017019 -5.76222,4.966502 c -3.36551,2.900832 -5.74392,5.075995 -5.71824,5.229742 0.0593,0.355379 -1.50928,1.706721 -1.85699,1.599884 -0.15587,-0.04796 -1.12168,0.654496 -2.2118,1.608684 -1.16646,1.021026 -1.87055,1.767405 -1.77279,1.879096 0.0892,0.101929 -0.17138,0.477329 -0.5791,0.834213 -0.40772,0.356892 -0.81432,0.565497 -0.90354,0.463567 -0.21852,-0.249644 -1.19365,0.626604 -1.22521,1.100921 -0.0181,0.272087 -0.10934,0.351957 -0.326,0.285351 -0.37778,-0.11611 -1.63394,0.95809 -1.41406,1.209283 0.0892,0.10193 0.044,0.288777 -0.10038,0.415224 -0.16433,0.143839 -0.63233,-0.04567 -1.2503,-0.506274 z"
       id="path840" /></g></svg>
