<?xml version="1.0" encoding="UTF-8" standalone="no"?>
<!-- Created with Inkscape (http://www.inkscape.org/) -->

<svg
   width="512"
   height="512"
   viewBox="0 0 512 512"
   version="1.1"
   id="svg1"
   xml:space="preserve"
   xmlns="http://www.w3.org/2000/svg"
   xmlns:svg="http://www.w3.org/2000/svg"><defs
     id="defs1" /><g
     id="g786"><path
       style="fill:none;stroke:#1a1a1a;stroke-width:10.4;stroke-linecap:round;stroke-dasharray:none"
       d="m -130.29483,167.7025 c 22.51952,-2.52818 67.558549,-7.58453 90.780351,-9.73816 23.221803,-2.15362 24.626317,-1.40455 27.435447,0.84276 2.8091309,2.24731 7.022675,5.99268 13.1091104,6.83539 6.0864355,0.8427 14.0453556,-1.21725 25.2350306,-5.15003 11.189675,-3.93278 25.609367,-9.73811 34.270748,-13.81131 8.661381,-4.0732 11.564047,-6.41406 12.219486,-9.41046 0.65544,-2.99639 -0.936344,-6.64813 -1.310882,-8.47404 -0.374538,-1.82591 0.468172,-1.82591 2.66866,-1.17044 2.200488,0.65546 5.758594,1.96634 8.989073,2.3877 3.230478,0.42136 6.133143,-0.0468 7.584505,-1.07682 1.451362,-1.03002 1.451362,-2.6218 2.715477,-3.69862 1.264114,-1.07683 3.79224,-1.63863 5.05633,-3.32411 1.26409,-1.68548 1.26409,-4.49451 2.387744,-5.38405 1.12366,-0.88953 3.37089,0.14044 5.19681,2.38775 1.82592,2.2473 3.23044,5.71178 4.12472,7.59695 0.89428,1.88518 1.27828,2.19097 11.79939,2.24455 10.5211,0.0536 31.17846,-0.14504 41.98738,-0.59197 10.80893,-0.44693 11.76897,-1.14213 12.36487,-2.15186 0.5959,-1.00973 0.82763,-2.33392 20.09536,-2.97947 19.26773,-0.64556 57.56993,-0.61246 76.98625,-0.59591 19.41633,0.0166 19.94601,0.0166 20.21086,0.86075 0.26484,0.84421 0.26484,2.53255 36.49943,3.01257 36.2346,0.48003 108.70089,-0.24828 145.29893,-0.54623 36.59804,-0.29794 37.32634,-0.16552 37.59118,2.18501 0.26485,2.35053 0.0662,6.91898 -0.66211,9.50121 -0.72833,2.58223 -1.98632,3.17812 -2.64842,5.2969 -0.66211,2.11878 -0.72832,5.7603 -1.42355,7.61421 -0.69523,1.8539 -2.01942,1.92011 -34.39714,2.28428 -32.37773,0.36416 -95.80642,1.02625 -127.88557,1.48973 -32.07915,0.46348 -32.80746,0.72832 -33.6351,1.48975 -0.82765,0.76144 -1.75458,2.01942 -14.86457,3.21123 -13.11,1.19181 -38.40203,2.31737 -68.09793,3.01258 -29.69589,0.69522 -63.79378,0.96006 -81.20723,1.2249 -17.41345,0.26485 -18.14176,0.52969 -19.99569,2.71468 -1.85393,2.185 -4.83336,6.28999 -7.68046,8.54116 -2.84709,2.25118 -5.56168,2.64843 -7.11764,3.60851 -1.55595,0.96007 -1.95321,2.48289 -2.84707,5.59485 -0.89386,3.11195 -2.28426,7.81282 -14.599705,14.59952 -12.315444,6.7867 -35.554977,15.65877 -51.644296,19.79694 -16.089318,4.13817 -25.0276,3.54229 -29.298194,-0.16559 -4.270594,-3.70787 -3.873337,-10.52745 -4.601675,-13.50693 -0.7283371,-2.97948 -2.5822045,-2.11875 -27.643481,7.05162 -25.061277,9.17038 -73.328001,26.64968 -97.892229,35.22398 -24.56422,8.57429 -25.42494,8.24325 -24.76281,0.72817 0.66213,-7.51507 2.84704,-22.21358 1.0924,-35.88624 -1.75465,-13.67266 -7.44866,-26.31868 -10.43915,-33.00554 -2.99048,-6.68685 -3.27731,-7.41426 -3.42073,-7.77798 -0.14342,-0.36372 -0.14342,-0.36371 22.37609,-2.89189 z"
       id="path812"
       transform="matrix(0.77372518,-0.55975552,0.55975552,0.77372518,29.544515,226.96995)" /><path
       style="fill:none;stroke:#1a1a1a;stroke-width:10.4;stroke-linecap:round;stroke-dasharray:none"
       d="m 479.30013,119.17948 c 5.89276,-0.13242 11.78553,-0.26485 17.67829,-0.39727"
       id="path813"
       transform="matrix(0.77372518,-0.55975552,0.55975552,0.77372518,29.544515,226.96995)" /><rect
       style="fill:none;stroke:#1a1a1a;stroke-width:7.71643;stroke-linecap:butt;stroke-dasharray:none"
       id="rect816"
       width="0.12873518"
       height="3.5431371"
       x="70.172882"
       y="314.86374"
       transform="rotate(-35.884054)" /><rect
       style="fill:none;stroke:#1a1a1a;stroke-width:7.71643;stroke-linecap:butt;stroke-dasharray:none"
       id="rect816-5"
       width="0.12873518"
       height="3.5431371"
       x="84.392067"
       y="314.73285"
       transform="rotate(-35.884054)" /><rect
       style="fill:none;stroke:#1a1a1a;stroke-width:7.71643;stroke-linecap:butt;stroke-dasharray:none"
       id="rect816-5-9"
       width="0.12873518"
       height="3.5431371"
       x="98.28508"
       y="314.6937"
       transform="rotate(-35.884054)" /><rect
       style="fill:none;stroke:#1a1a1a;stroke-width:7.71643;stroke-linecap:butt;stroke-dasharray:none"
       id="rect816-5-9-2"
       width="0.12873518"
       height="3.5431371"
       x="111.4977"
       y="314.52359"
       transform="rotate(-35.884054)" /><rect
       style="fill:none;stroke:#1a1a1a;stroke-width:7.71643;stroke-linecap:butt;stroke-dasharray:none"
       id="rect816-6"
       width="0.12873518"
       height="3.5431371"
       x="125.289"
       y="314.28473"
       transform="rotate(-35.884054)" /><rect
       style="fill:none;stroke:#1a1a1a;stroke-width:7.71643;stroke-linecap:butt;stroke-dasharray:none"
       id="rect816-5-5"
       width="0.12873518"
       height="3.5431371"
       x="139.50818"
       y="314.15381"
       transform="rotate(-35.884054)" /><rect
       style="fill:none;stroke:#1a1a1a;stroke-width:7.71643;stroke-linecap:butt;stroke-dasharray:none"
       id="rect816-5-9-7"
       width="0.12873518"
       height="3.5431371"
       x="153.40121"
       y="314.11465"
       transform="rotate(-35.884054)" /><rect
       style="fill:none;stroke:#1a1a1a;stroke-width:7.71643;stroke-linecap:butt;stroke-dasharray:none"
       id="rect816-5-9-2-5"
       width="0.12873518"
       height="3.5431371"
       x="166.61383"
       y="313.94452"
       transform="rotate(-35.884054)" /><path
       style="fill:none;stroke:#1a1a1a;stroke-width:10.4;stroke-linecap:butt;stroke-dasharray:none"
       d="m 174.79657,128.11794 c 0.19863,11.78552 0.39726,23.57105 0.59589,35.35658"
       id="path816"
       transform="matrix(0.77372518,-0.55975552,0.55975552,0.77372518,29.544515,226.96995)" /><path
       style="fill:none;stroke:#1a1a1a;stroke-width:10.4;stroke-linecap:butt;stroke-dasharray:none"
       d="m 315.82561,136.65913 c 0,5.69413 0,11.38826 0,17.0824"
       id="path817"
       transform="matrix(0.77372518,-0.55975552,0.55975552,0.77372518,29.544515,226.96995)" /><path
       style="fill:none;stroke:#1a1a1a;stroke-width:10.4;stroke-linecap:butt;stroke-dasharray:none"
       d="m 177.57742,138.24819 c 46.01652,-0.39726 92.03304,-0.79453 138.04956,-1.19179"
       id="path818"
       transform="matrix(0.77372518,-0.55975552,0.55975552,0.77372518,33.135085,229.99132)" /><path
       style="fill:none;stroke:#1a1a1a;stroke-width:10.4;stroke-linecap:butt;stroke-dasharray:none"
       d="m 12.921801,203.79928 c 1.170453,-2.01318 2.340906,-4.02636 11.119467,-8.14642 8.77856,-4.12005 25.164576,-10.34674 33.591841,-13.08559 8.427266,-2.73886 8.89544,-1.98978 10.463873,0.77254 1.568433,2.76231 4.237017,7.53767 5.313827,11.47042 1.07681,3.93275 0.56182,7.02269 0.04682,10.11268"
       id="path819"
       transform="matrix(0.77372518,-0.55975552,0.55975552,0.77372518,29.544515,226.96995)" /><path
       style="fill:none;stroke:#1a1a1a;stroke-width:10.4;stroke-linecap:butt;stroke-dasharray:none"
       d="m 66.013549,180.76476 c 6.835447,-4.02636 13.67089,-8.05271 20.506405,-10.15953 6.835514,-2.10682 13.670826,-2.29409 17.299236,-0.91292 3.6284,1.38116 4.04976,4.33064 4.47112,7.28018"
       id="path820"
       transform="matrix(0.77372518,-0.55975552,0.55975552,0.77372518,29.544515,226.96995)" /><path
       style="fill:none;stroke:#1a1a1a;stroke-width:10.4;stroke-linecap:round;stroke-dasharray:none"
       d="m 86.660341,171.63523 c -0.608635,3.3709 -1.217272,6.74181 -0.725665,9.45728 0.491607,2.71547 2.083393,4.77543 3.675206,6.83542"
       id="path821"
       transform="matrix(0.77372518,-0.55975552,0.55975552,0.77372518,29.544515,226.96995)" /><path
       style="fill:none;stroke:#1a1a1a;stroke-width:10.4;stroke-linecap:round;stroke-dasharray:none"
       d="m 60.395375,148.60071 c -0.374545,5.99272 -0.74909,11.98544 1.357771,15.49681 2.106862,3.51137 6.694945,4.54135 9.738138,5.29044 3.043193,0.7491 4.541343,1.21727 5.149976,1.45136 0.608633,0.23409 0.32773,0.23409 0.04682,0.23409"
       id="path822"
       transform="matrix(0.77372518,-0.55975552,0.55975552,0.77372518,29.544515,226.96995)" /><path
       style="fill:none;stroke:#1a1a1a;stroke-width:10.4;stroke-linecap:round;stroke-dasharray:none"
       d="m 116.57712,142.42072 c 7.4909,0.0936 14.9818,0.18727 22.4727,0.28091"
       id="path823"
       transform="matrix(0.77372518,-0.55975552,0.55975552,0.77372518,29.544515,226.96995)" /></g></svg>
