<?xml version="1.0" encoding="UTF-8" standalone="no"?>
<!-- Created with Inkscape (http://www.inkscape.org/) -->

<svg
   version="1.1"
   id="svg1"
   width="500.20755"
   height="510.43021"
   viewBox="0 0 500.20755 510.43021"
   xml:space="preserve"
   xmlns="http://www.w3.org/2000/svg"
   xmlns:svg="http://www.w3.org/2000/svg"><defs
     id="defs1" /><g
     id="g1"
     transform="translate(-0.24366881,-0.37324294)"><path
       style="fill:#000000;stroke-width:1.02025"
       d="m 61.741336,509.21721 c -2.959984,-1.88029 -57.955922,-65.54709 -60.1079523,-69.5848 -1.92290292,-3.60781 -1.83555946,-10.62694 0.1703406,-13.68833 1.8458028,-2.81706 72.4863877,-64.02866 76.1612627,-65.9954 1.325188,-0.70922 5.152323,-1.25088 8.504746,-1.20368 3.352423,0.0471 7.079656,-0.43978 8.282742,-1.08215 1.203086,-0.64236 8.475465,-6.6041 16.160835,-13.2483 l 13.97341,-12.08036 -1.58192,-3.78606 c -1.04548,-2.50217 -1.43675,-5.79296 -1.15384,-9.70422 0.37819,-5.22829 0.89029,-6.3915 4.39312,-9.97872 3.08665,-3.16101 3.69347,-4.33213 2.73922,-5.28639 -0.67421,-0.6742 -1.22582,-2.90384 -1.22582,-4.95476 0,-4.11196 2.67359,-7.03057 18.61953,-20.32589 4.34881,-3.62592 7.89322,-6.8361 7.87648,-7.13374 -0.0167,-0.29762 -1.80207,-2.59102 -3.96739,-5.09641 -3.42279,-3.96035 -4.15164,-4.37707 -5.58092,-3.19088 -0.90419,0.7504 -1.64398,2.48612 -1.64398,3.85715 0,4.14605 -1.50174,5.86447 -16.33638,18.69333 -10.69769,9.25125 -14.27107,12.93393 -14.27107,14.70754 0,1.49536 -1.68114,3.91568 -4.56832,6.577 -3.75244,3.45888 -5.29108,4.21093 -8.615216,4.21093 -5.071108,0 -5.533854,-0.41985 -22.951612,-20.82407 -12.249372,-14.34967 -13.857018,-16.66106 -13.857018,-19.9229 0,-5.64211 3.95777,-10.58019 9.489624,-11.84012 1.571906,-0.35801 9.543554,-6.41044 17.714775,-13.44983 13.131597,-11.31269 15.371557,-12.85691 19.290017,-13.29858 2.51635,-0.28363 5.18236,-1.32743 6.16571,-2.41403 1.63111,-1.80236 1.62517,-2.11358 -0.10182,-5.32032 -2.7139,-5.0394 -1.47587,-9.80043 3.84566,-14.78903 7.88151,-7.38842 30.78489,-26.9351 33.88797,-28.92139 4.07733,-2.60991 9.99865,-1.89754 13.69953,1.64813 l 2.75924,2.64352 4.99621,-7.40788 c 11.12583,-16.49633 16.02746,-22.27009 27.68414,-32.60992 14.86944,-13.18964 19.0856,-16.11961 23.18582,-16.11267 4.90921,0.008 7.66074,2.40002 21.92658,19.05925 19.37701,22.62789 19.36647,23.64539 -0.42413,40.933 -12.51959,10.93617 -14.18364,12.024 -31.08211,20.31918 -9.81989,4.82042 -18.02049,8.89689 -18.22354,9.05882 -0.56009,0.44664 7.1267,9.58848 8.06235,9.58848 0.44867,0 3.72192,-2.45962 7.2739,-5.46582 7.51067,-6.35661 10.79542,-7.48843 15.16903,-5.22674 1.69505,0.87653 3.64021,1.24866 4.32257,0.82693 0.68238,-0.42172 9.35413,-7.77935 19.27057,-16.35029 14.60964,-12.62735 18.26079,-16.31221 19.24708,-19.42482 3.04447,-9.60787 -0.75595,-16.15872 24.47822,-37.90549 31.73757,-27.35138 36.98011,-22.5596 42.45559,-22.5596 4.31583,0 5.81079,0.61673 35.93508,-25.340513 28.70659,-24.735662 30.29514,-28.155045 30.95845,-31.882513 0.92502,-5.198185 1.92254,-6.516642 10.68683,-14.125165 7.03518,-6.107421 8.31353,-7.904109 12.01688,-16.889375 2.13931,-5.190493 3.47336,-6.589192 19.15757,-20.085925 13.6945,-11.784532 16.99468,-13.54416464 22.44649,-11.96828892 4.59786,1.32902652 4.90582,1.62213372 18.94089,18.02731892 12.43842,14.538886 12.45133,14.559434 12.45133,19.827334 0,6.424106 1.05512,5.333032 -35.48434,36.693222 -22.14843,19.009018 -26.35187,22.203804 -30.032,22.825553 -3.39693,0.57391 -6.34307,2.510222 -14.29134,9.392782 l -10.01229,8.66985 4.63656,5.42714 c 5.5329,6.47634 7.64453,11.13758 7.64453,16.87467 0,5.52756 -2.4529,9.36102 -11.12157,17.38115 -3.85984,3.57105 -28.05341,27.15285 -53.7635,52.40399 -25.71009,25.25115 -52.61876,51.65876 -59.79704,58.68358 -7.17828,7.02481 -13.05142,13.50213 -13.05142,14.39402 0,0.9282 6.32128,6.07489 14.78305,12.03614 8.13067,5.728 15.47646,11.40453 16.32397,12.61452 3.68229,5.25719 2.69384,7.14598 -18.60897,35.55926 -21.16735,28.2326 -22.66715,29.68435 -29.00831,28.07902 -1.30038,-0.3292 -9.39843,-5.66653 -17.99567,-11.86072 -8.59723,-6.19419 -15.94302,-11.25979 -16.32397,-11.25688 -0.38095,0.003 -0.79911,1.86915 -0.92924,4.1472 -0.78421,13.72804 -16.02477,28.31338 -33.09443,31.67164 -5.86107,1.15308 -6.07039,1.30165 -5.43503,3.85773 1.7669,7.10831 6.86598,15.45689 12.25001,20.05662 6.87201,5.87093 9.68195,10.27243 9.68195,15.1658 0,8.10056 -4.7188,12.92197 -19.39326,19.81499 -15.3483,7.20956 -29.65221,12.35105 -40.80139,14.66596 -11.84943,2.4603 -29.45188,2.12603 -39.92417,-0.75815 l -6.7661,-1.86346 -4.20157,3.32771 c -2.31087,1.83024 -4.20157,3.98475 -4.20157,4.7878 0,0.80305 1.37733,3.90061 3.06074,6.88344 3.65468,6.47573 3.85627,10.33052 0.76519,14.63152 -2.78132,3.86999 -26.19027,24.18321 -30.344147,26.33126 -3.835019,1.98317 -10.03213,1.91785 -13.271468,-0.1399 z m 13.540895,-16.7642 c 2.09183,-1.72427 3.803327,-3.58638 3.803327,-4.13803 0,-0.78421 -23.179915,-28.08139 -52.727507,-62.09306 l -2.225213,-2.5614 -4.151338,4.03299 c -5.002145,4.85953 -5.34502,8.13262 -1.359512,12.97788 5.835258,7.09405 33.608084,39.44192 40.360996,47.00971 8.154774,9.13882 10.255344,9.7538 16.299247,4.77191 z m 16.973895,-15.05632 c 0.703487,-1.31448 0.56308,-2.67379 -0.474228,-4.59112 -0.810484,-1.49806 -2.159448,-3.98631 -2.997695,-5.52944 -3.275738,-6.03029 -1.410203,-10.68119 7.294333,-18.18526 11.315964,-9.75535 13.132274,-10.22395 24.837204,-6.40788 8.97098,2.92474 23.68325,2.92284 35.92127,-0.005 9.66508,-2.312 31.98389,-10.8108 40.00092,-15.232 8.18264,-4.51252 8.21926,-5.32336 0.57373,-12.69846 -7.46205,-7.19808 -11.03741,-13.22159 -15.25625,-25.70256 -1.59679,-4.72394 -4.85639,-11.46508 -7.24356,-14.98035 -5.28688,-7.78529 -6.32854,-14.00523 -3.4241,-20.4461 2.12618,-4.71504 22.02239,-22.57045 27.95046,-25.08351 5.81747,-2.46619 15.11571,-1.347 21.43251,2.57975 2.8964,1.8005 5.6081,3.27364 6.02599,3.27364 0.4179,0 4.60339,-4.93546 9.30109,-10.96767 4.69771,-6.03222 14.6553,-18.61197 22.12799,-27.955 7.47268,-9.34303 13.58582,-17.60704 13.58473,-18.36447 -0.001,-0.75743 -2.29514,-2.94008 -5.0979,-4.85035 -3.90469,-2.66129 -5.55544,-3.25754 -7.06166,-2.55062 -1.08114,0.50742 -7.95878,6.37518 -15.28364,13.03946 -17.42096,15.84989 -18.65866,16.70997 -25.22757,17.5307 -6.91381,0.86383 -6.76663,0.75348 -40.50704,30.36935 -17.40311,15.27571 -28.45869,24.2658 -30.35239,24.68172 -6.01033,1.32009 -10.48047,-1.01935 -15.63019,-8.18002 -1.46399,-2.03565 -1.47311,-2.03542 -3.84524,0.0993 -12.88983,11.59967 -27.31525,23.36221 -30.054971,24.50694 -1.856167,0.77556 -6.1589,1.4101 -9.561629,1.4101 h -6.186779 l -24.458689,21.0319 -24.458689,21.03191 2.810932,3.43935 c 13.099565,16.02814 52.042959,60.49492 53.022266,60.54249 0.681678,0.0331 1.689136,-0.78012 2.238795,-1.80718 z M 132.64859,436.0634 c -9.10206,-2.3631 -15.93669,-7.3907 -19.63466,-14.44338 -2.40213,-4.58128 -2.13377,-13.42066 0.5644,-18.59033 2.22425,-4.26165 18.75537,-19.8716 27.41607,-25.88837 9.96899,-6.92565 19.35793,-1.80153 26.80889,14.63123 13.05822,28.7993 5.86096,43.29596 -22.40159,45.12111 -4.61609,0.29809 -9.67572,-0.0313 -12.75311,-0.83026 z m 20.48978,-13.04079 c 6.44071,-1.62179 8.95367,-5.07281 8.06761,-11.07914 -0.91057,-6.17242 -6.44534,-19.31657 -9.36202,-22.23326 -1.85607,-1.85606 -2.75539,-2.12938 -4.29513,-1.30533 -2.91462,1.55985 -19.52141,15.96992 -21.25223,18.44103 -3.59604,5.13406 -0.9817,13.16729 5.15369,15.83606 3.95315,1.71953 15.49224,1.90077 21.68808,0.34064 z m 51.45286,-56.08967 c 5.77565,-2.48461 10.50506,-7.13198 12.76051,-12.53916 5.05019,-12.10727 -9.72335,-20.07768 -18.97041,-10.23463 -1.27344,1.35551 -2.12224,2.62095 -1.88621,2.81207 0.23601,0.19114 3.06901,1.83353 6.29555,3.64978 3.22654,1.81624 5.86643,3.91641 5.86643,4.66706 0,1.50855 -5.66606,6.64743 -7.32936,6.64743 -0.57823,0 -4.22464,-1.72167 -8.10314,-3.82593 -6.01275,-3.26218 -7.20062,-3.60044 -8.06166,-2.29556 -3.31614,5.02548 -1.89804,10.45635 3.34496,12.81006 3.96799,1.78132 9.31946,1.21863 16.08333,-1.69112 z m 69.07322,-17.50132 3.23864,-4.50974 -12.28981,-8.90737 c -6.7594,-4.89906 -12.83385,-8.69861 -13.49878,-8.44345 -0.66494,0.25516 -2.5486,2.39702 -4.18594,4.75968 -2.46084,3.55101 -2.71995,4.44472 -1.49455,5.15497 0.81532,0.47257 6.52159,4.52318 12.68061,9.00135 6.15901,4.47819 11.44863,7.98739 11.7547,7.79823 0.30606,-0.18916 2.01386,-2.37331 3.79513,-4.85367 z M 154.59144,333.74575 c 3.64326,-3.15935 16.42174,-14.29281 28.39663,-24.74102 11.97488,-10.44821 22.764,-19.51772 23.97583,-20.15447 1.21182,-0.63673 4.605,-1.48207 7.54038,-1.87852 6.36289,-0.85935 5.621,-0.31345 31.60623,-23.25733 27.25218,-24.06257 25.99653,-22.44854 25.1704,-32.35441 -0.50015,-5.99731 -0.31597,-8.4383 0.74941,-9.93183 0.7769,-1.08911 18.39968,-16.58643 39.16174,-34.43848 20.76205,-17.85205 38.39892,-33.05833 39.19305,-33.79175 1.22594,-1.13221 0.53524,-2.38042 -4.57634,-8.27021 -6.61474,-7.6218 -7.54085,-8.81167 -9.32764,-8.45151 -14.73453,2.97006 -44.44815,24.5036 -48.48738,41.23043 -0.17148,0.7101 -1.9465,4.19375 -3.40541,7.98204 -2.55192,6.62636 -3.22032,7.37992 -17.61164,19.85546 -8.22748,7.13223 -20.9275,18.27235 -28.22228,24.75582 -7.29477,6.48346 -33.17207,28.94396 -57.5051,49.91222 l -44.24187,38.1241 0.5143,3.83434 c 0.59419,4.43008 7.47859,17.3194 9.25057,17.3194 0.65727,0 4.17587,-2.58492 7.81912,-5.74428 z m 139.62581,-10.66938 c 4.00534,-5.38011 7.26076,-10.20079 7.23425,-10.7126 -0.0594,-1.14704 -22.06437,-16.94912 -23.84933,-17.12655 -0.7082,-0.0704 -4.88578,4.41488 -9.2835,9.96728 l -7.99587,10.09529 3.92245,3.14669 c 8.98345,7.20678 21.48394,15.7701 22.06507,15.11542 0.34346,-0.38691 3.90158,-5.1054 7.90693,-10.48553 z M 109.05783,281.42585 c 4.55787,-3.87847 10.09926,-8.62569 12.31418,-10.54939 l 4.02716,-3.49763 -8.10815,-9.33557 c -4.45947,-5.13455 -8.40297,-9.34 -8.76332,-9.34545 -1.39759,-0.0211 -23.847485,20.11682 -24.144244,21.65777 -0.172855,0.89756 2.302367,4.7683 5.50049,8.60166 6.169654,7.39512 8.386704,9.52037 9.931596,9.52037 0.525388,0 4.684418,-3.17329 9.242288,-7.05176 z m 231.72143,-73.96499 c 28.61797,-28.09715 55.36123,-54.33727 59.42947,-58.31136 8.89641,-8.69054 9.34304,-10.87618 3.70214,-18.11654 -2.09436,-2.6882 -4.17963,-4.44253 -4.81432,-4.05026 -1.09875,0.67907 -43.78313,37.94797 -58.82741,51.36384 -4.20853,3.753 -16.37499,14.52253 -27.03658,23.93233 -10.6616,9.4098 -21.3179,18.88897 -23.68066,21.06484 l -4.29593,3.95613 0.60751,6.50581 c 0.33415,3.5782 0.30248,7.72121 -0.0704,9.20671 -0.37284,1.4855 -3.69111,5.58372 -7.37394,9.10716 l -6.69604,6.40624 4.88251,3.17603 4.88251,3.17604 3.62921,-3.16562 c 1.99607,-1.74109 27.04391,-26.15419 55.66188,-54.25135 z M 180.75701,249.6384 c 6.87015,-5.85357 12.51484,-11.23113 12.54377,-11.95017 0.15592,-3.87609 -3.75644,-1.76619 -15.73095,8.48356 -7.03087,6.01818 -12.78341,11.07474 -12.78341,11.23681 0,1.49068 1.49736,3.53331 2.37553,3.24058 0.60713,-0.20237 6.72491,-5.15723 13.59506,-11.01078 z m -45.76544,-1.87053 c -3.03397,-4.05273 -6.41042,-7.24193 -7.66712,-7.24193 -2.96711,0 -2.44979,3.21174 1.24323,7.71858 3.63041,4.43044 3.88291,4.55819 5.7213,2.89446 1.55138,-1.40398 1.68724,-2.05583 0.70259,-3.37111 z m 32.99241,-13.48091 13.20672,-11.34021 -2.33571,-2.9023 c -6.96952,-8.66015 -19.7849,-23.27501 -20.45566,-23.32796 -1.21769,-0.0961 -25.75074,21.45203 -25.75074,22.61768 0,0.91601 20.87385,26.05458 21.77695,26.22617 0.19345,0.0367 6.29475,-5.03626 13.55844,-11.27338 z m 38.01643,-39.0582 c 11.18465,-5.28542 12.02109,-5.87472 10.66068,-7.51077 -0.81193,-0.97644 -4.41188,-5.21868 -7.99988,-9.4272 -3.58801,-4.20853 -6.85545,-8.05026 -7.26097,-8.5372 -0.40552,-0.48693 -5.18102,5.78442 -10.61221,13.93633 l -9.87489,14.82165 2.26446,3.06285 2.26446,3.06285 4.21072,-1.83655 c 2.31589,-1.01009 9.67233,-4.41748 16.34763,-7.57196 z m 31.10065,-20.25378 c 2.85321,-2.38483 5.19588,-5.1624 5.20594,-6.17236 0.0192,-1.92745 -15.47021,-20.58038 -17.84751,-21.49263 -1.44882,-0.55597 -7.83412,3.66943 -11.0897,7.3385 -1.90655,2.14868 -1.87032,2.21907 5.61136,10.90429 4.14166,4.80791 8.42338,9.87038 9.51493,11.24995 1.09156,1.37957 2.307,2.5083 2.70099,2.5083 0.394,0 3.0508,-1.95122 5.90399,-4.33605 z m 154.69062,-59.00604 c 15.71182,-13.49674 28.66612,-24.852313 28.78733,-25.23459 0.1212,-0.382276 -1.9448,-3.100636 -4.59112,-6.040798 l -4.81149,-5.345755 -28.05683,24.364533 c -15.43126,13.40051 -28.20472,25.10022 -28.38546,25.99936 -0.30842,1.53423 6.45249,10.84932 7.84833,10.81336 0.35326,-0.009 13.49741,-11.05935 29.20924,-24.55611 z m 66.41145,-54.091468 c 22.14474,-19.175027 23.88053,-20.847602 23.88053,-23.010916 0,-0.715388 -3.47992,-5.44831 -7.73315,-10.517608 -6.00801,-7.160786 -8.31131,-9.216903 -10.3249,-9.216903 -4.10342,0 -22.57288,16.593268 -24.98296,22.445097 -3.28074,7.965824 -5.26616,10.816 -11.03215,15.837254 -6.65723,5.797367 -7.54215,7.094521 -6.32437,9.270558 2.62355,4.688021 11.12798,13.55303 13.05129,13.604655 1.35191,0.03632 9.96453,-6.721519 23.46571,-18.412137 z"
       id="path42" /><path
       style="fill:#ffffff;stroke:none;stroke-width:5.55146"
       d="m 94.84846,283.91206 c -4.683241,-4.8533 -9.785788,-11.66036 -9.785788,-13.05473 0,-1.64971 21.439258,-21.34016 23.235488,-21.34016 1.14815,0 16.38292,16.96427 16.06099,17.8843 -0.41176,1.17674 -23.86882,20.91622 -24.855427,20.91622 -0.222206,0 -2.317075,-1.98253 -4.655263,-4.40563 z"
       id="path43" /><path
       style="fill:#ffffff;stroke:none;stroke-width:5.55146"
       d="m 130.63833,249.96186 c -2.53447,-2.71193 -4.23879,-5.31553 -4.7109,-7.19657 -0.35684,-1.42173 -0.23229,-1.60515 1.08987,-1.60515 1.06113,0 2.46952,1.05503 4.87097,3.64889 3.5244,3.80677 3.84061,4.9158 1.78923,6.27538 -1.11056,0.73604 -1.40324,0.62794 -3.03917,-1.12255 z"
       id="path44" /><path
       style="fill:#ffffff;stroke:none;stroke-width:5.55146"
       d="m 148.20349,238.02524 c -11.84977,-13.93321 -15.33171,-18.58707 -14.58574,-19.49487 1.13397,-1.37997 17.38881,-15.7468 21.23497,-18.76851 l 3.5608,-2.79753 5.20872,5.83153 c 5.24687,5.87426 16.9494,19.73739 16.9494,20.07873 0,0.41689 -25.19686,21.58236 -25.87901,21.73847 -0.40809,0.0934 -3.3282,-2.87112 -6.48914,-6.58782 z"
       id="path45" /><path
       style="fill:#ffffff;stroke:none;stroke-width:5.55146"
       d="m 183.43673,201.34825 -2.06988,-2.86868 5.95143,-8.95397 c 3.27329,-4.92468 7.70185,-11.32311 9.84125,-14.21874 3.72115,-5.03651 3.93409,-5.21768 4.91121,-4.17852 0.56178,0.59745 4.17531,4.82455 8.03008,9.39356 l 7.00867,8.30731 -1.40562,1.06669 c -1.07737,0.8176 -26.1041,12.73558 -29.53086,14.0629 -0.36652,0.14197 -1.59785,-1.03278 -2.73628,-2.61055 z"
       id="path46" /><path
       style="fill:#ffffff;stroke:none;stroke-width:5.55146"
       d="m 228.23884,175.92251 c -10.20826,-11.92485 -15.43293,-18.4657 -15.43293,-19.32073 0,-1.32343 4.81185,-5.68034 8.47594,-7.67459 2.87568,-1.56514 2.97018,-1.57638 4.19124,-0.4986 2.10278,1.85603 12.09173,13.69444 14.47576,17.15595 l 2.24753,3.26331 -1.27363,1.78865 c -1.07914,1.51551 -7.2592,6.80692 -9.36867,8.02153 -0.35865,0.2065 -1.85051,-1.02448 -3.31524,-2.73552 z"
       id="path47" /><path
       style="fill:#ffffff;stroke:none;stroke-width:5.55146"
       d="m 87.089211,475.60992 c -6.158092,-6.40777 -30.565218,-34.30715 -44.678789,-51.07158 -6.599567,-7.83912 -7.568393,-9.24921 -6.842845,-9.95943 0.464869,-0.45505 11.321356,-9.83699 24.125526,-20.84875 l 23.280311,-20.02139 3.28312,-0.0334 c 6.56739,-0.0668 12.059947,-1.11252 14.592986,-2.77829 3.33969,-2.19623 11.85984,-9.08291 19.92471,-16.10479 3.71821,-3.23736 7.56532,-6.53979 8.54911,-7.33874 l 1.78872,-1.45264 3.30786,3.71348 c 4.06721,4.56594 6.80932,6.05651 11.1418,6.05651 2.88332,0 3.62751,-0.28466 6.73926,-2.57784 6.14823,-4.53088 16.23393,-13.09072 40.50405,-34.37623 9.96867,-8.74277 17.9521,-15.13733 20.59781,-16.49841 1.1491,-0.59115 4.10265,-1.42887 6.56345,-1.86162 5.65863,-0.99509 9.01663,-3.24135 20.89538,-13.97749 12.58319,-11.37282 18.99889,-16.66648 20.19907,-16.66648 2.03165,0 10.24441,5.88491 10.24441,7.3407 0,0.97652 -5.80662,8.59671 -23.97255,31.45981 -20.42248,25.70312 -19.90088,25.07111 -20.69129,25.07111 -0.32892,0 -2.44684,-1.06591 -4.70647,-2.36869 -5.51956,-3.18226 -10.48836,-4.40124 -16.62701,-4.07904 -3.90578,0.205 -5.38684,0.56972 -7.61418,1.87503 -7.85222,4.60171 -23.98741,19.63752 -26.42927,24.62852 -1.35554,2.7706 -1.53794,3.79643 -1.34129,7.54333 0.24049,4.58234 1.24314,7.10969 6.45674,16.27528 2.42578,4.26455 3.49225,6.67845 7.72054,17.47515 3.11227,7.94701 6.70058,13.41649 13.25438,20.203 3.14422,3.25586 5.30334,5.98725 5.30334,6.70898 0,2.29322 -6.09834,5.78995 -19.69873,11.29508 -28.87347,11.68733 -45.32278,13.95801 -63.08295,8.70806 -9.68944,-2.86422 -12.91248,-2.18181 -21.205865,4.48987 -8.548275,6.87673 -12.314549,12.28879 -11.603039,16.67332 0.188825,1.16359 1.484093,4.33392 2.878372,7.04519 2.145924,4.17287 2.446755,5.17943 1.959812,6.55735 -0.316383,0.89528 -0.850764,1.7192 -1.187514,1.83091 -0.33675,0.11172 -1.969784,-1.20942 -3.628965,-2.93587 z m 66.821219,-39.57399 c 6.20273,-1.09657 12.33542,-3.97276 15.27833,-7.16544 3.03622,-3.29391 3.9781,-5.20066 4.79542,-9.70791 2.32396,-12.81585 -8.69144,-38.60909 -18.72433,-43.84419 -3.3225,-1.73367 -8.13912,-1.73388 -11.69794,-5.2e-4 -4.31312,2.10076 -12.18784,8.6929 -21.53403,18.0267 -7.97518,7.96461 -8.78911,8.97808 -9.76942,12.1645 -1.63005,5.29834 -1.13928,13.54967 1.02563,17.2438 7.03988,12.01264 21.34889,16.69107 40.62634,13.28306 z"
       id="path49" /><path
       style="fill:#ffffff;stroke:none;stroke-width:5.55146"
       d="M 66.202057,493.97578 C 63.662474,492.4534 56.971323,485.03555 35.7657,460.23383 15.626799,436.67973 16.415603,437.71352 16.415603,434.87386 c 0,-0.85867 0.381854,-2.28658 0.848565,-3.17313 1.276122,-2.4241 6.816474,-7.62831 7.40762,-6.95818 9.020855,10.22602 47.574523,55.45785 51.988376,60.99366 1.776723,2.22835 1.913146,2.64183 1.176819,3.56676 -1.984634,2.49296 -7.004379,6.06756 -8.592983,6.11912 -0.328312,0.0106 -1.697187,-0.64019 -3.041943,-1.44631 z"
       id="path50" /><path
       style="fill:#ffffff;stroke:none;stroke-width:5.55146"
       d="m 268.59414,353.2329 c -1.98239,-1.07754 -22.95337,-16.07496 -23.33012,-16.68456 -0.37496,-0.6067 3.24572,-6.21577 5.08922,-7.88411 1.02287,-0.92569 1.4571,-0.73962 7.37283,3.1593 4.73455,3.12044 15.99947,11.10589 18.25366,12.93962 0.34326,0.27923 -0.89471,2.25172 -3.59866,5.73388 -2.27806,2.93369 -2.76964,3.28883 -3.78693,2.73587 z"
       id="path51" /><path
       style="fill:#ffffff;stroke:none;stroke-width:5.55146"
       d="m 279.01385,328.81907 c -5.27156,-3.6197 -11.81697,-8.48598 -16.86503,-12.53856 -0.89944,-0.72207 -1.06651,-1.20453 -0.62012,-1.7908 4.07492,-5.35183 12.50085,-15.56466 14.11887,-17.11306 l 2.07347,-1.98426 6.79065,4.58871 c 3.73486,2.5238 9.01126,6.32246 11.72533,8.44148 l 4.93468,3.85277 -1.05463,1.79871 c -1.82445,3.11169 -13.85258,19.01346 -14.38181,19.01346 -0.27777,0 -3.3024,-1.9208 -6.72141,-4.26845 z"
       id="path52" /><path
       style="fill:#ffffff;stroke:none;stroke-width:5.55146"
       d="m 277.29077,261.72494 c -2.12506,-1.4553 -4.1397,-2.74162 -4.47698,-2.85848 -0.33728,-0.11687 1.8277,-2.60404 4.81106,-5.52705 2.98337,-2.92301 6.17807,-6.46033 7.09935,-7.86071 1.66807,-2.53555 1.67374,-2.57817 1.36303,-10.23918 l -0.31202,-7.69304 3.06203,-2.96521 c 5.73432,-5.55301 96.76199,-85.8008 107.7325,-94.97437 l 3.12523,-2.61332 2.67753,2.91179 c 3.54962,3.86016 5.25537,7.40486 4.72509,9.81917 -0.24209,1.10223 -2.01129,3.55327 -4.37699,6.06385 -8.05292,8.5461 -120.5997,118.67885 -121.21731,118.6173 -0.19182,-0.0191 -2.08746,-1.22546 -4.21252,-2.68075 z"
       id="path53" /><path
       style="fill:#ffffff;stroke:none;stroke-width:5.55146"
       d="m 359.64317,137.14777 c -1.37589,-1.72521 -3.00908,-4.12866 -3.6293,-5.34098 l -1.12768,-2.20423 9.39632,-8.5856 c 5.16797,-4.72208 17.83996,-15.93156 28.15996,-24.909959 l 18.76365,-16.324356 2.31801,2.640014 c 5.78772,6.591708 6.64823,7.811152 6.08303,8.620341 -1.04919,1.502091 -51.85099,45.24494 -55.87387,48.11015 l -1.5885,1.13137 z"
       id="path54" /><path
       style="fill:#ffffff;stroke:none;stroke-width:5.55146"
       d="m 429.69718,75.680715 c -4.72251,-4.579159 -7.9654,-8.934613 -7.9654,-10.69813 0,-0.589643 2.93801,-3.929874 6.52892,-7.422735 6.00884,-5.844767 6.77887,-6.856776 9.66654,-12.704227 2.82391,-5.718344 3.76788,-6.983297 9.44165,-12.652109 7.20751,-7.20121 14.32286,-12.50479 16.77659,-12.50479 1.27196,0 2.63538,1.063228 6.13807,4.786614 6.9333,7.370137 11.86059,14.165089 11.18587,15.425808 -1.98576,3.710442 -44.46912,40.077613 -46.81782,40.077613 -0.28133,0 -2.51082,-1.93862 -4.95442,-4.308044 z"
       id="path55" /><path
       style="fill:#ffffff;stroke:none;stroke-width:7.85095"
       d="m 143.78142,334.93006 c -2.98449,-4.72948 -5.54408,-10.79233 -5.87066,-13.90573 -0.24684,-2.35326 2.25197,-4.67861 40.65755,-37.83518 46.79896,-40.4028 100.13926,-87.10662 102.36986,-89.63325 0.83158,-0.94193 3.56221,-6.52102 6.06806,-12.39796 2.50585,-5.87695 5.91647,-12.53855 7.57914,-14.80355 6.47615,-8.82229 20.30049,-19.77384 32.11537,-25.4416 10.71535,-5.1403 10.32153,-5.17646 16.19203,1.48692 2.78876,3.1654 5.67178,6.70499 6.40672,7.86575 l 1.33627,2.11047 -15.74099,13.507 c -33.35001,28.61694 -60.84179,52.77167 -62.64293,55.03911 -1.69373,2.13223 -1.83477,3.02977 -1.42928,9.09555 0.57931,8.66557 -0.18154,10.36538 -7.95983,17.78295 -7.87246,7.50738 -32.66023,29.34847 -38.52619,33.94636 -4.79594,3.75917 -4.98923,3.84248 -12.25949,5.28395 -5.71435,1.13297 -6.52221,1.73819 -32.66925,24.47451 -23.98225,20.85391 -31.38563,27.01431 -32.46281,27.0125 -0.49526,-8.2e-4 -1.91887,-1.61533 -3.16357,-3.5878 z"
       id="path56" /><path
       style="fill:#ffffff;stroke:none;stroke-width:0.981369"
       d="m 166.45509,260.40312 c -0.72194,-0.48651 -1.57463,-1.94919 -1.57463,-2.70106 0,-0.39801 0.76249,-1.11356 6.4897,-6.09027 13.63454,-11.84787 18.35619,-15.42699 20.62271,-15.63251 0.57146,-0.0518 0.6131,-0.0387 0.87752,0.2755 0.38927,0.46262 0.48756,1.194 0.22736,1.69177 -0.10875,0.20805 -1.14813,1.32953 -2.30973,2.49219 -3.23044,3.23338 -7.62026,7.12962 -14.56378,12.92627 -5.71277,4.76919 -8.91257,7.27802 -9.28249,7.27802 -0.0719,0 -0.29086,-0.10796 -0.48666,-0.23991 z"
       id="path57" /></g></svg>
