<?xml version="1.0" encoding="UTF-8" standalone="no"?>
<!-- Created with Inkscape (http://www.inkscape.org/) -->

<svg
   width="512"
   height="512"
   viewBox="0 0 512 512"
   version="1.1"
   id="svg1"
   xml:space="preserve"
   xmlns="http://www.w3.org/2000/svg"
   xmlns:svg="http://www.w3.org/2000/svg"><defs
     id="defs1" /><g
     id="g700"
     transform="matrix(1.0551023,0,0,1.0551023,-120.95576,-163.81142)"><path
       style="fill:#d0d0d0;fill-opacity:1"
       d="m 200.87244,610.25 c -1.24387,-1.58606 -1.2085,-1.62143 0.37756,-0.37756 0.9625,0.75485 1.75,1.54235 1.75,1.75 0,0.82304 -0.82119,0.29331 -2.12756,-1.37244 z m 12.60074,-18.5 -6.97318,-7.25 7.25,6.97318 c 3.9875,3.83525 7.25,7.09775 7.25,7.25 0,0.73351 -1.05013,-0.23938 -7.52682,-6.97318 z M 233.5,580 c 4.37419,-4.4 8.17808,-8 8.45308,-8 0.275,0 -3.07889,3.6 -7.45308,8 -4.37419,4.4 -8.17808,8 -8.45308,8 -0.275,0 3.07889,-3.6 7.45308,-8 z m -47,-15 c -6.58281,-6.6 -11.74374,-12 -11.46874,-12 0.275,0 5.88593,5.4 12.46874,12 6.58281,6.6 11.74374,12 11.46874,12 -0.275,0 -5.88593,-5.4 -12.46874,-12 z m 65.5,-3.5 c 4.65071,-4.675 8.68084,-8.5 8.95584,-8.5 0.275,0 -3.30513,3.825 -7.95584,8.5 -4.65071,4.675 -8.68084,8.5 -8.95584,8.5 -0.275,0 3.30513,-3.825 7.95584,-8.5 z M 266.5,547 c 2.70865,-2.75 5.14982,-5 5.42482,-5 0.275,0 -1.71617,2.25 -4.42482,5 -2.70865,2.75 -5.14982,5 -5.42482,5 -0.275,0 1.71617,-2.25 4.42482,-5 z m -101.62756,-3.75 c -1.24387,-1.58606 -1.2085,-1.62143 0.37756,-0.37756 0.9625,0.75485 1.75,1.54235 1.75,1.75 0,0.82304 -0.82119,0.29331 -2.12756,-1.37244 z m 109,0 c -1.24387,-1.58606 -1.2085,-1.62143 0.37756,-0.37756 0.9625,0.75485 1.75,1.54235 1.75,1.75 0,0.82304 -0.82119,0.29331 -2.12756,-1.37244 z m -116.92627,-8 -3.44617,-3.75 3.75,3.44617 c 3.49042,3.20761 4.20979,4.05383 3.44617,4.05383 -0.16711,0 -1.85461,-1.6875 -3.75,-3.75 z m 37.45882,-20.5 -1.90499,-2.25 2.25,1.90499 c 2.11444,1.79022 2.70524,2.59501 1.90499,2.59501 -0.18976,0 -1.20226,-1.0125 -2.25,-2.25 z M 343.5,470 c 20.34443,-20.35 37.21486,-37 37.48986,-37 0.275,0 -16.14543,16.65 -36.48986,37 -20.34443,20.35 -37.21486,37 -37.48986,37 -0.275,0 16.14543,-16.65 36.48986,-37 z m -125,1 c 3.26557,-3.3 6.16239,-6 6.43739,-6 0.275,0 -2.17182,2.7 -5.43739,6 -3.26557,3.3 -6.16239,6 -6.43739,6 -0.275,0 2.17182,-2.7 5.43739,-6 z M 242,447.5 c 5.20327,-5.225 9.6855,-9.5 9.9605,-9.5 0.275,0 -3.75723,4.275 -8.9605,9.5 -5.20327,5.225 -9.6855,9.5 -9.9605,9.5 -0.275,0 3.75723,-4.275 8.9605,-9.5 z m 65.98025,-45.25 -9.48025,-9.75 9.75,9.48025 C 317.3057,410.78541 318.45489,412 317.73025,412 c -0.14836,0 -4.53586,-4.3875 -9.75,-9.75 z m -28.57526,2.5 -1.90499,-2.25 2.25,1.90499 c 2.11444,1.79022 2.70524,2.59501 1.90499,2.59501 -0.18976,0 -1.20226,-1.0125 -2.25,-2.25 z M 286,403.5 c 1.86578,-1.925 3.61733,-3.5 3.89233,-3.5 0.275,0 -1.02655,1.575 -2.89233,3.5 -1.86578,1.925 -3.61733,3.5 -3.89233,3.5 -0.275,0 1.02655,-1.575 2.89233,-3.5 z m 125,-0.10308 c 0,-0.51503 4.3875,-5.20253 9.75,-10.41667 L 430.5,383.5 421,393.46866 c -5.225,5.48277 -9.6125,10.17027 -9.75,10.41667 -0.1375,0.2464 -0.25,0.0266 -0.25,-0.48841 z M 440.5,373 c 4.92707,-4.95 9.1833,-9 9.4583,-9 0.275,0 -3.53123,4.05 -8.4583,9 -4.92707,4.95 -9.1833,9 -9.4583,9 -0.275,0 3.53123,-4.05 8.4583,-9 z m -115,1 c 3.26557,-3.3 6.16239,-6 6.43739,-6 0.275,0 -2.17182,2.7 -5.43739,6 -3.26557,3.3 -6.16239,6 -6.43739,6 -0.275,0 2.17182,-2.7 5.43739,-6 z M 397.99085,357.25 377.5,336.5 l 20.75,20.49085 c 11.4125,11.26997 20.75,20.60747 20.75,20.75 0,0.71049 -1.96998,-1.21089 -21.00915,-20.49085 z M 460.5,353 c 5.47936,-5.5 10.18748,-10 10.46248,-10 0.275,0 -3.98312,4.5 -9.46248,10 -5.47936,5.5 -10.18748,10 -10.46248,10 -0.275,0 3.98312,-4.5 9.46248,-10 z m -299,-57 c -6.58281,-6.6 -11.74374,-12 -11.46874,-12 0.275,0 5.88593,5.4 12.46874,12 6.58281,6.6 11.74374,12 11.46874,12 -0.275,0 -5.88593,-5.4 -12.46874,-12 z m 49.47792,0.25 -8.47792,-8.75 8.75,8.47792 c 4.8125,4.66286 8.75,8.60036 8.75,8.75 0,0.72761 -1.14804,-0.35118 -9.02208,-8.47792 z m -43.10548,-9 c -1.24387,-1.58606 -1.2085,-1.62143 0.37756,-0.37756 0.9625,0.75485 1.75,1.54235 1.75,1.75 0,0.82304 -0.82119,0.29331 -2.12756,-1.37244 z M 205,282.5 c 1.29175,-1.375 2.57363,-2.5 2.84863,-2.5 0.275,0 -0.55688,1.125 -1.84863,2.5 -1.29175,1.375 -2.57363,2.5 -2.84863,2.5 -0.275,0 0.55688,-1.125 1.84863,-2.5 z m 345.87244,-4.25 c -1.24387,-1.58606 -1.2085,-1.62143 0.37756,-0.37756 1.66575,1.30637 2.19548,2.12756 1.37244,2.12756 -0.20765,0 -0.99515,-0.7875 -1.75,-1.75 z m -296.46745,-4.5 -1.90499,-2.25 2.25,1.90499 c 2.11444,1.79022 2.70524,2.59501 1.90499,2.59501 -0.18976,0 -1.20226,-1.0125 -2.25,-2.25 z M 440,274.62244 c 0,-0.20765 0.7875,-0.99515 1.75,-1.75 1.58606,-1.24387 1.62143,-1.2085 0.37756,0.37756 C 440.82119,274.91575 440,275.44548 440,274.62244 Z M 223,241.5 c 1.29175,-1.375 2.57363,-2.5 2.84863,-2.5 0.275,0 -0.55688,1.125 -1.84863,2.5 -1.29175,1.375 -2.57363,2.5 -2.84863,2.5 -0.275,0 0.55688,-1.125 1.84863,-2.5 z m 89.19495,-32 c 0.0204,-1.65 0.2445,-2.20394 0.49804,-1.23097 0.25354,0.97297 0.23687,2.32297 -0.0371,3 -0.27393,0.67703 -0.48137,-0.11903 -0.46099,-1.76903 z M 494,204.68709 c 0,-0.1721 1.4625,-1.6346 3.25,-3.25 l 3.25,-2.93709 -2.93709,3.25 C 494.82513,204.77946 494,205.45965 494,204.68709 Z M 472.92431,200.25 470.5,197.5 l 2.75,2.42431 c 1.5125,1.33338 2.75,2.57088 2.75,2.75 0,0.78428 -0.8098,0.14598 -3.07569,-2.42431 z"
       id="path707" /><path
       style="fill:#b9b9b9;fill-opacity:1"
       d="M 206.45295,615.75 202.5,611.5 l 4.25,3.95295 c 3.95246,3.6762 4.70953,4.54705 3.95295,4.54705 -0.16338,0 -2.07588,-1.9125 -4.25,-4.25 z M 195,604.5 c -2.42903,-2.475 -4.19142,-4.5 -3.91642,-4.5 0.275,0 2.48739,2.025 4.91642,4.5 2.42903,2.475 4.19142,4.5 3.91642,4.5 -0.275,0 -2.48739,-2.025 -4.91642,-4.5 z M 169.98213,579.25 159.5,568.5 170.25,578.98213 C 180.23483,588.71816 181.45434,590 180.73213,590 c -0.14732,0 -4.98482,-4.8375 -10.75,-10.75 z M 141.48124,550.75 131.5,540.5 l 10.25,9.98124 c 5.6375,5.48968 10.25,10.10218 10.25,10.25 0,0.72337 -1.24814,-0.461 -10.51876,-9.98124 z m 85.50245,-3.5 L 215.5,535.5 l 11.75,11.48369 c 6.4625,6.31603 11.75,11.60353 11.75,11.75 0,0.72017 -1.34959,-0.5696 -12.01631,-11.48369 z m 60.76631,2.08772 c 0.6875,-0.27741 1.8125,-0.27741 2.5,0 0.6875,0.27741 0.125,0.50439 -1.25,0.50439 -1.375,0 -1.9375,-0.22698 -1.25,-0.50439 z M 205.47915,525.75 196.5,516.5 l 9.25,8.97915 c 5.0875,4.93853 9.25,9.10103 9.25,9.25 0,0.72605 -1.18122,-0.38796 -9.52085,-8.97915 z M 452,520.5 c 1.29175,-1.375 2.57363,-2.5 2.84863,-2.5 0.275,0 -0.55688,1.125 -1.84863,2.5 -1.29175,1.375 -2.57363,2.5 -2.84863,2.5 -0.275,0 0.55688,-1.125 1.84863,-2.5 z M 370.40499,422.75 368.5,420.5 l 2.25,1.90499 c 2.11444,1.79022 2.70524,2.59501 1.90499,2.59501 -0.18976,0 -1.20226,-1.0125 -2.25,-2.25 z m 7.04796,-8 -3.95295,-4.25 4.25,3.95295 c 3.95246,3.6762 4.70953,4.54705 3.95295,4.54705 -0.16338,0 -2.07588,-1.9125 -4.25,-4.25 z m -20.50678,-5.5 -3.44617,-3.75 3.75,3.44617 c 3.49042,3.20761 4.20979,4.05383 3.44617,4.05383 -0.16711,0 -1.85461,-1.6875 -3.75,-3.75 z M 265.8125,398.31689 c 0.72187,-0.28887 1.58438,-0.25335 1.91667,0.0789 0.33229,0.33229 -0.25834,0.56864 -1.3125,0.52522 -1.16495,-0.048 -1.4019,-0.28494 -0.60417,-0.60416 z M 331,383.5 c 1.29175,-1.375 2.57363,-2.5 2.84863,-2.5 0.275,0 -0.55688,1.125 -1.84863,2.5 -1.29175,1.375 -2.57363,2.5 -2.84863,2.5 -0.275,0 0.55688,-1.125 1.84863,-2.5 z m 15,-15 c 1.29175,-1.375 2.57363,-2.5 2.84863,-2.5 0.275,0 -0.55688,1.125 -1.84863,2.5 -1.29175,1.375 -2.57363,2.5 -2.84863,2.5 -0.275,0 0.55688,-1.125 1.84863,-2.5 z m 6,-21 c 11.26494,-11.275 20.7067,-20.5 20.9817,-20.5 0.275,0 -8.71676,9.225 -19.9817,20.5 -11.26494,11.275 -20.7067,20.5 -20.9817,20.5 -0.275,0 8.71676,-9.225 19.9817,-20.5 z M 210.98499,345.25 198.5,332.5 l 12.75,12.48499 c 7.0125,6.86675 12.75,12.60425 12.75,12.75 0,0.71844 -1.41773,-0.64155 -13.01501,-12.48499 z M 367.5,347 c 5.47936,-5.5 10.18748,-10 10.46248,-10 0.275,0 -3.98312,4.5 -9.46248,10 -5.47936,5.5 -10.18748,10 -10.46248,10 -0.275,0 3.98312,-4.5 9.46248,-10 z m 140.3125,-3.68311 c 0.72187,-0.28887 1.58438,-0.25335 1.91667,0.0789 0.33229,0.33229 -0.25834,0.56864 -1.3125,0.52522 -1.16495,-0.048 -1.4019,-0.28494 -0.60417,-0.60416 z M 213.47318,332.75 206.5,325.5 l 7.25,6.97318 c 6.7338,6.47669 7.70669,7.52682 6.97318,7.52682 -0.15225,0 -3.41475,-3.2625 -7.25,-7.25 z M 223.5,303 c 0.99549,-1.1 2.03498,-2 2.30998,-2 0.275,0 -0.31449,0.9 -1.30998,2 -0.99549,1.1 -2.03498,2 -2.30998,2 -0.275,0 0.31449,-0.9 1.30998,-2 z M 411,288.5 c 2.98742,-3.025 5.65668,-5.5 5.93168,-5.5 0.275,0 -1.94426,2.475 -4.93168,5.5 -2.98742,3.025 -5.65668,5.5 -5.93168,5.5 -0.275,0 1.94426,-2.475 4.93168,-5.5 z m 21.5,-6.5 c 3.8205,-3.85 7.17136,-7 7.44636,-7 0.275,0 -2.62586,3.15 -6.44636,7 -3.8205,3.85 -7.17136,7 -7.44636,7 -0.275,0 2.62586,-3.15 6.44636,-7 z m 152.5,6.68709 c 0,-0.1721 1.4625,-1.6346 3.25,-3.25 l 3.25,-2.93709 -2.93709,3.25 C 585.82513,288.77946 585,289.45965 585,288.68709 Z M 257.98611,248.25 244.5,234.5 l 13.75,13.48611 c 7.5625,7.41735 13.75,13.60485 13.75,13.75 0,0.71695 -1.48617,-0.71325 -14.01389,-13.48611 z m 174.41888,3.5 -1.90499,-2.25 2.25,1.90499 c 2.11444,1.79022 2.70524,2.59501 1.90499,2.59501 -0.18976,0 -1.20226,-1.0125 -2.25,-2.25 z M 543,244.5 c 2.98742,-3.025 5.65668,-5.5 5.93168,-5.5 0.275,0 -1.94426,2.475 -4.93168,5.5 -2.98742,3.025 -5.65668,5.5 -5.93168,5.5 -0.275,0 1.94426,-2.475 4.93168,-5.5 z M 448.5,244 c 2.14824,-2.2 4.1309,-4 4.4059,-4 0.275,0 -1.25766,1.8 -3.4059,4 -2.14824,2.2 -4.1309,4 -4.4059,4 -0.275,0 1.25766,-1.8 3.4059,-4 z M 301.07895,211.41667 c 0.048,-1.16495 0.28494,-1.4019 0.60416,-0.60417 0.28887,0.72187 0.25335,1.58437 -0.0789,1.91667 -0.33229,0.33229 -0.56864,-0.25834 -0.52522,-1.3125 z M 463,166.68709 c 0,-0.1721 1.4625,-1.6346 3.25,-3.25 l 3.25,-2.93709 -2.93709,3.25 C 463.82513,166.77946 463,167.45965 463,166.68709 Z"
       id="path706" /><path
       style="fill:#a3a3a3;fill-opacity:1"
       d="M 207.99167,543.25 185.5,520.5 l 22.75,22.49167 c 12.5125,12.37041 22.75,22.60791 22.75,22.75 0,0.70935 -2.10905,-1.35235 -23.00833,-22.49167 z m 150.27736,6.05701 c 0.97297,-0.25354 2.32297,-0.23687 3,0.0371 0.67703,0.27393 -0.11903,0.48137 -1.76903,0.46099 -1.65,-0.0204 -2.20394,-0.2445 -1.23097,-0.49804 z M 399.5,422 c 2.14824,-2.2 4.1309,-4 4.4059,-4 0.275,0 -1.25766,1.8 -3.4059,4 -2.14824,2.2 -4.1309,4 -4.4059,4 -0.275,0 1.25766,-1.8 3.4059,-4 z m -34.62756,-19.75 c -1.24387,-1.58606 -1.2085,-1.62143 0.37756,-0.37756 0.9625,0.75485 1.75,1.54235 1.75,1.75 0,0.82304 -0.82119,0.29331 -2.12756,-1.37244 z m -6.43535,-6.5 -2.93709,-3.25 3.25,2.93709 c 3.02946,2.73778 3.70965,3.56291 2.93709,3.56291 -0.1721,0 -1.6346,-1.4625 -3.25,-3.25 z M 337,377.62244 c 0,-0.20765 0.7875,-0.99515 1.75,-1.75 1.58606,-1.24387 1.62143,-1.2085 0.37756,0.37756 C 337.82119,377.91575 337,378.44548 337,377.62244 Z M 350.5,364 c 0.99549,-1.1 2.03498,-2 2.30998,-2 0.275,0 -0.31449,0.9 -1.30998,2 -0.99549,1.1 -2.03498,2 -2.30998,2 -0.275,0 0.31449,-0.9 1.30998,-2 z m 5,-5 c 0.99549,-1.1 2.03498,-2 2.30998,-2 0.275,0 -0.31449,0.9 -1.30998,2 -0.99549,1.1 -2.03498,2 -2.30998,2 -0.275,0 0.31449,-0.9 1.30998,-2 z M 170.43709,335.75 167.5,332.5 l 3.25,2.93709 c 1.7875,1.6154 3.25,3.0779 3.25,3.25 0,0.77256 -0.82513,0.0924 -3.56291,-2.93709 z m 216.9679,-4 -1.90499,-2.25 2.25,1.90499 c 2.11444,1.79022 2.70524,2.59501 1.90499,2.59501 -0.18976,0 -1.20226,-1.0125 -2.25,-2.25 z M 238.07895,298.41667 c 0.048,-1.16495 0.28494,-1.4019 0.60416,-0.60417 0.28887,0.72187 0.25335,1.58438 -0.0789,1.91667 -0.3323,0.33229 -0.56864,-0.25834 -0.52522,-1.3125 z M 415,299.62244 c 0,-0.20765 0.7875,-0.99515 1.75,-1.75 1.58606,-1.24387 1.62143,-1.2085 0.37756,0.37756 C 415.82119,299.91575 415,300.44548 415,299.62244 Z M 217.97792,288.25 209.5,279.5 l 8.75,8.47792 c 8.12674,7.87404 9.20553,9.02208 8.47792,9.02208 -0.14964,0 -4.08714,-3.9375 -8.75,-8.75 z m 5.96825,-9 -3.44617,-3.75 3.75,3.44617 c 3.49042,3.20761 4.20979,4.05383 3.44617,4.05383 -0.16711,0 -1.85461,-1.6875 -3.75,-3.75 z m -68.13367,2.06689 c 0.72187,-0.28887 1.58437,-0.25335 1.91667,0.0789 0.33229,0.33229 -0.25834,0.56864 -1.3125,0.52522 -1.16495,-0.048 -1.4019,-0.28494 -0.60417,-0.60416 z M 420,279.72497 c 0,-0.15126 3.4875,-3.63876 7.75,-7.75 l 7.75,-7.47497 -7.47497,7.75 C 421.08244,279.44803 420,280.45627 420,279.72497 Z M 551.5,251 c 3.26557,-3.3 6.16239,-6 6.43739,-6 0.275,0 -2.17182,2.7 -5.43739,6 -3.26557,3.3 -6.16239,6 -6.43739,6 -0.275,0 2.17182,-2.7 5.43739,-6 z M 263.98369,239.25 252.5,227.5 l 11.75,11.48369 c 6.4625,6.31603 11.75,11.60353 11.75,11.75 0,0.72017 -1.34959,-0.5696 -12.01631,-11.48369 z M 312,202.68709 c 0,-0.1721 1.4625,-1.6346 3.25,-3.25 l 3.25,-2.93709 -2.93709,3.25 C 312.82513,202.77946 312,203.45965 312,202.68709 Z"
       id="path705" /><path
       style="fill:#8c8c8c;fill-opacity:1"
       d="M 163.49564,587.75 120.5,544.5 163.75,587.49564 C 203.94936,627.45858 207.44937,631 206.74564,631 c -0.1399,0 -19.6024,-19.4625 -43.25,-43.25 z m 189.77339,-38.44299 c 0.97297,-0.25354 2.32297,-0.23687 3,0.0371 0.67703,0.27393 -0.11903,0.48137 -1.76903,0.46099 -1.65,-0.0204 -2.20394,-0.2445 -1.23097,-0.49804 z M 177.45295,540.75 173.5,536.5 l 4.25,3.95295 c 2.3375,2.17412 4.25,4.08662 4.25,4.25 0,0.75658 -0.87085,-4.9e-4 -4.54705,-3.95295 z M 355.75,528.29427 c 1.2375,-0.23836 3.2625,-0.23836 4.5,0 1.2375,0.23835 0.225,0.43337 -2.25,0.43337 -2.475,0 -3.4875,-0.19502 -2.25,-0.43337 z M 406.5,430 c 2.14824,-2.2 4.1309,-4 4.4059,-4 0.275,0 -1.25766,1.8 -3.4059,4 -2.14824,2.2 -4.1309,4 -4.4059,4 -0.275,0 1.25766,-1.8 3.4059,-4 z m -67.6875,-8.68311 c 0.72187,-0.28887 1.58438,-0.25335 1.91667,0.0789 0.33229,0.33229 -0.25834,0.56864 -1.3125,0.52522 -1.16495,-0.048 -1.4019,-0.28494 -0.60417,-0.60416 z M 407.98986,352.25 389.5,333.5 408.25,351.98986 C 425.67066,369.16882 427.45171,371 426.73986,371 c -0.14307,0 -8.58057,-8.4375 -18.75,-18.75 z m -41.17736,14.06689 c 0.72187,-0.28887 1.58438,-0.25335 1.91667,0.0789 0.33229,0.33229 -0.25834,0.56864 -1.3125,0.52522 -1.16495,-0.048 -1.4019,-0.28494 -0.60417,-0.60416 z M 236.07895,351.41667 c 0.048,-1.16495 0.28494,-1.4019 0.60416,-0.60417 0.28887,0.72187 0.25335,1.58438 -0.0789,1.91667 -0.3323,0.33229 -0.56864,-0.25834 -0.52522,-1.3125 z M 373,326.62244 c 0,-0.20765 0.7875,-0.99515 1.75,-1.75 1.58606,-1.24387 1.62143,-1.2085 0.37756,0.37756 C 373.82119,326.91575 373,327.44548 373,326.62244 Z M 386.5,313 c 0.99549,-1.1 2.03498,-2 2.30998,-2 0.275,0 -0.31449,0.9 -1.30998,2 -0.99549,1.1 -2.03498,2 -2.30998,2 -0.275,0 0.31449,-0.9 1.30998,-2 z M 229,312.68709 c 0,-0.1721 1.4625,-1.6346 3.25,-3.25 l 3.25,-2.93709 -2.93709,3.25 C 229.82513,312.77946 229,313.45965 229,312.68709 Z m 162,-4.06465 c 0,-0.20765 0.7875,-0.99515 1.75,-1.75 1.58606,-1.24387 1.62143,-1.2085 0.37756,0.37756 C 391.82119,308.91575 391,309.44548 391,308.62244 Z M 203.45295,303.75 199.5,299.5 l 4.25,3.95295 c 3.95246,3.6762 4.70953,4.54705 3.95295,4.54705 -0.16338,0 -2.07588,-1.9125 -4.25,-4.25 z m 73.41949,-51.5 c -1.24387,-1.58606 -1.2085,-1.62143 0.37756,-0.37756 1.66575,1.30637 2.19548,2.12756 1.37244,2.12756 -0.20765,0 -0.99515,-0.7875 -1.75,-1.75 z M 442,235.5 c 2.98742,-3.025 5.65668,-5.5 5.93168,-5.5 0.275,0 -1.94426,2.475 -4.93168,5.5 -2.98742,3.025 -5.65668,5.5 -5.93168,5.5 -0.275,0 1.94426,-2.475 4.93168,-5.5 z M 305,194.68709 c 0,-0.1721 1.4625,-1.6346 3.25,-3.25 l 3.25,-2.93709 -2.93709,3.25 C 305.82513,194.77946 305,195.45965 305,194.68709 Z"
       id="path704" /><path
       style="fill:#767676;fill-opacity:1"
       d="m 226.87244,590.25 c -1.24387,-1.58606 -1.2085,-1.62143 0.37756,-0.37756 0.9625,0.75485 1.75,1.54235 1.75,1.75 0,0.82304 -0.82119,0.29331 -2.12756,-1.37244 z M 199.48958,562.75 181.5,544.5 l 18.25,17.98958 c 10.0375,9.89427 18.25,18.10677 18.25,18.25 0,0.71224 -1.79653,-1.03374 -18.51042,-17.98958 z m -27.61714,-27.5 c -1.24387,-1.58606 -1.2085,-1.62143 0.37756,-0.37756 0.9625,0.75485 1.75,1.54235 1.75,1.75 0,0.82304 -0.82119,0.29331 -2.12756,-1.37244 z M 444.5,513 c 0.99549,-1.1 2.03498,-2 2.30998,-2 0.275,0 -0.31449,0.9 -1.30998,2 -0.99549,1.1 -2.03498,2 -2.30998,2 -0.275,0 0.31449,-0.9 1.30998,-2 z M 304.94617,414.25 301.5,410.5 l 3.75,3.44617 c 3.49042,3.20761 4.20979,4.05383 3.44617,4.05383 -0.16711,0 -1.85461,-1.6875 -3.75,-3.75 z m -32.07373,-1 c -1.24387,-1.58606 -1.2085,-1.62143 0.37756,-0.37756 0.9625,0.75485 1.75,1.54235 1.75,1.75 0,0.82304 -0.82119,0.29331 -2.12756,-1.37244 z M 350,377.5 c 1.29175,-1.375 2.57363,-2.5 2.84863,-2.5 0.275,0 -0.55688,1.125 -1.84863,2.5 -1.29175,1.375 -2.57363,2.5 -2.84863,2.5 -0.275,0 0.55688,-1.125 1.84863,-2.5 z m 4,-3.87756 c 0,-0.20765 0.7875,-0.99515 1.75,-1.75 1.58606,-1.24387 1.62143,-1.2085 0.37756,0.37756 C 354.82119,373.91575 354,374.44548 354,373.62244 Z M 221,325.5 c -4.09747,-4.125 -7.22494,-7.5 -6.94994,-7.5 0.275,0 3.85247,3.375 7.94994,7.5 4.09747,4.125 7.22494,7.5 6.94994,7.5 -0.275,0 -3.85247,-3.375 -7.94994,-7.5 z m 170,-2 c 2.98742,-3.025 5.65668,-5.5 5.93168,-5.5 0.275,0 -1.94426,2.475 -4.93168,5.5 -2.98742,3.025 -5.65668,5.5 -5.93168,5.5 -0.275,0 1.94426,-2.475 4.93168,-5.5 z m 121,-12 c 3.54322,-3.575 6.66722,-6.5 6.94222,-6.5 0.275,0 -2.399,2.925 -5.94222,6.5 -3.54322,3.575 -6.66722,6.5 -6.94222,6.5 -0.275,0 2.399,-2.925 5.94222,-6.5 z m -331,-26 c -4.09747,-4.125 -7.22494,-7.5 -6.94994,-7.5 0.275,0 3.85247,3.375 7.94994,7.5 4.09747,4.125 7.22494,7.5 6.94994,7.5 -0.275,0 -3.85247,-3.375 -7.94994,-7.5 z m 399,-7 c 1.29175,-1.375 2.57363,-2.5 2.84863,-2.5 0.275,0 -0.55688,1.125 -1.84863,2.5 -1.29175,1.375 -2.57363,2.5 -2.84863,2.5 -0.275,0 0.55688,-1.125 1.84863,-2.5 z m -22.07569,-8.25 -2.42431,-2.75 2.75,2.42431 c 2.57029,2.26589 3.20859,3.07569 2.42431,3.07569 -0.17912,0 -1.41662,-1.2375 -2.75,-2.75 z m -306.9382,-15 L 237.5,241.5 l 13.75,13.48611 c 7.5625,7.41735 13.75,13.60485 13.75,13.75 0,0.71695 -1.48617,-0.71325 -14.01389,-13.48611 z m 299.41888,7.5 -1.90499,-2.25 2.25,1.90499 c 2.11444,1.79022 2.70524,2.59501 1.90499,2.59501 -0.18976,0 -1.20226,-1.0125 -2.25,-2.25 z m -115.53255,-23.5 c -1.24387,-1.58606 -1.2085,-1.62143 0.37756,-0.37756 1.66575,1.30637 2.19548,2.12756 1.37244,2.12756 -0.20765,0 -0.99515,-0.7875 -1.75,-1.75 z M 507,206.5 c 3.54322,-3.575 6.66722,-6.5 6.94222,-6.5 0.275,0 -2.399,2.925 -5.94222,6.5 -3.54322,3.575 -6.66722,6.5 -6.94222,6.5 -0.275,0 2.399,-2.925 5.94222,-6.5 z m -36,-32.87756 c 0,-0.20765 0.7875,-0.99515 1.75,-1.75 1.58606,-1.24387 1.62143,-1.2085 0.37756,0.37756 C 471.82119,173.91575 471,174.44548 471,173.62244 Z"
       id="path703" /><path
       style="fill:#606060;fill-opacity:1"
       d="m 224.5,574 c 3.8205,-3.85 7.17136,-7 7.44636,-7 0.275,0 -2.62586,3.15 -6.44636,7 -3.8205,3.85 -7.17136,7 -7.44636,7 -0.275,0 2.62586,-3.15 6.44636,-7 z m 20.45821,-20.25 c 2.45201,-2.6125 4.58951,-4.75 4.75,-4.75 0.75088,0 -0.043,0.89783 -4.45821,5.04179 L 240.5,558.5 Z m -18.46636,-29 L 203.5,501.5 l 23.25,22.99185 c 12.7875,12.64551 23.25,23.10801 23.25,23.25 0,0.7091 -2.14386,-1.38768 -23.50815,-22.99185 z M 315,483.5 c 31.62141,-31.625 57.71848,-57.5 57.99348,-57.5 0.275,0 -25.37207,25.875 -56.99348,57.5 -31.62141,31.625 -57.71848,57.5 -57.99348,57.5 -0.275,0 25.37207,-25.875 56.99348,-57.5 z M 177.5,527 c 3.8205,-3.85 7.17136,-7 7.44636,-7 0.275,0 -2.62586,3.15 -6.44636,7 -3.8205,3.85 -7.17136,7 -7.44636,7 -0.275,0 2.62586,-3.15 6.44636,-7 z m 20,-20 c 2.70865,-2.75 5.14982,-5 5.42482,-5 0.275,0 -1.71617,2.25 -4.42482,5 -2.70865,2.75 -5.14982,5 -5.42482,5 -0.275,0 1.71617,-2.25 4.42482,-5 z M 222,482.5 c 6.30706,-6.325 11.69238,-11.5 11.96738,-11.5 0.275,0 -4.66032,5.175 -10.96738,11.5 -6.30706,6.325 -11.69238,11.5 -11.96738,11.5 -0.275,0 4.66032,-5.175 10.96738,-11.5 z m 0.87244,-19.25 c -1.24387,-1.58606 -1.2085,-1.62143 0.37756,-0.37756 0.9625,0.75485 1.75,1.54235 1.75,1.75 0,0.82304 -0.82119,0.29331 -2.12756,-1.37244 z m 69.85851,-51.23209 c 4.34942,-4.53654 5.44482,-5.22584 6.5,-4.09025 1.0311,1.10966 1.01673,1.22233 -0.0766,0.60089 -0.88733,-0.50434 -3.10133,0.88887 -6.5,4.09025 L 287.5,417.47391 Z M 386.98863,394.25 370.5,377.5 387.25,393.98863 C 402.81144,409.30725 404.45217,411 403.73863,411 c -0.14375,0 -7.68125,-7.5375 -16.75,-16.75 z M 411.5,387 c 4.37419,-4.4 8.17808,-8 8.45308,-8 0.275,0 -3.07889,3.6 -7.45308,8 -4.37419,4.4 -8.17808,8 -8.45308,8 -0.275,0 3.07889,-3.6 7.45308,-8 z m -206,-32 c -8.23625,-8.25 -14.74999,-15 -14.47499,-15 0.275,0 7.23874,6.75 15.47499,15 8.23625,8.25 14.74999,15 14.47499,15 -0.275,0 -7.23874,-6.75 -15.47499,-15 z m 228,10 c 2.70865,-2.75 5.14982,-5 5.42482,-5 0.275,0 -1.71617,2.25 -4.42482,5 -2.70865,2.75 -5.14982,5 -5.42482,5 -0.275,0 1.71617,-2.25 4.42482,-5 z m 19.45821,-19.25 C 457.10217,341.33481 458,340.54091 458,341.29179 c 0,0.16049 -2.1375,2.29799 -4.75,4.75 L 448.5,350.5 Z M 419.9879,326.25 404.5,310.5 420.25,325.9879 C 434.88187,340.37628 436.45244,342 435.7379,342 c -0.14415,0 -7.23165,-7.0875 -15.75,-15.75 z M 487,336.62244 c 0,-0.20765 0.7875,-0.99515 1.75,-1.75 1.58606,-1.24387 1.62143,-1.2085 0.37756,0.37756 C 487.82119,336.91575 487,337.44548 487,336.62244 Z M 443.98499,323.25 431.5,310.5 l 12.75,12.48499 c 7.0125,6.86675 12.75,12.60425 12.75,12.75 0,0.71844 -1.41773,-0.64155 -13.01501,-12.48499 z M 501.5,322 c 2.14824,-2.2 4.1309,-4 4.4059,-4 0.275,0 -1.25766,1.8 -3.4059,4 -2.14824,2.2 -4.1309,4 -4.4059,4 -0.275,0 1.25766,-1.8 3.4059,-4 z m -316,-10 c 3.8205,-3.85 7.17136,-7 7.44636,-7 0.275,0 -2.62586,3.15 -6.44636,7 -3.8205,3.85 -7.17136,7 -7.44636,7 -0.275,0 2.62586,-3.15 6.44636,-7 z M 151.98707,301.25 137.5,286.5 152.25,300.98707 C 165.95235,314.44515 167.45273,316 166.73707,316 c -0.14462,0 -6.78212,-6.6375 -14.75,-14.75 z m 226.47534,9.5 -4.96241,-5.25 5.25,4.96241 c 2.8875,2.72932 5.25,5.09182 5.25,5.25 0,0.74619 -0.92643,-0.084 -5.53759,-4.96241 z M 572.8125,293.31689 c 0.72187,-0.28887 1.58438,-0.25335 1.91667,0.0789 0.33229,0.33229 -0.25834,0.56864 -1.3125,0.52522 -1.16495,-0.048 -1.4019,-0.28494 -0.60417,-0.60416 z M 197,275.5 c 1.29175,-1.375 2.57363,-2.5 2.84863,-2.5 0.275,0 -0.55688,1.125 -1.84863,2.5 -1.29175,1.375 -2.57363,2.5 -2.84863,2.5 -0.275,0 0.55688,-1.125 1.84863,-2.5 z m 365.92431,-0.25 -2.42431,-2.75 2.75,2.42431 c 1.5125,1.33338 2.75,2.57088 2.75,2.75 0,0.78428 -0.8098,0.14598 -3.07569,-2.42431 z m -16.05187,-16 c -1.24387,-1.58606 -1.2085,-1.62143 0.37756,-0.37756 0.9625,0.75485 1.75,1.54235 1.75,1.75 0,0.82304 -0.82119,0.29331 -2.12756,-1.37244 z m -27.88258,-28 L 500.5,212.5 519.25,230.98986 C 536.67066,248.16882 538.45171,250 537.73986,250 c -0.14307,0 -8.58057,-8.4375 -18.75,-18.75 z M 296.26903,205.30701 c 0.97297,-0.25354 2.32297,-0.23687 3,0.0371 0.67703,0.27393 -0.11903,0.48137 -1.76903,0.46099 -1.65,-0.0204 -2.20394,-0.2445 -1.23097,-0.49804 z M 480.98369,193.25 469.5,181.5 l 11.75,11.48369 c 6.4625,6.31603 11.75,11.60353 11.75,11.75 0,0.72017 -1.34959,-0.5696 -12.01631,-11.48369 z"
       id="path702" /><path
       style="fill:#494949;fill-opacity:1"
       d="m 191,599.72497 c 0,-0.15126 3.4875,-3.63876 7.75,-7.75 l 7.75,-7.47497 -7.47497,7.75 C 192.08244,599.44803 191,600.45627 191,599.72497 Z m -39,-39 c 0,-0.15126 3.4875,-3.63876 7.75,-7.75 l 7.75,-7.47497 -7.47497,7.75 C 153.08244,560.44803 152,561.45627 152,560.72497 Z M 156.5,501 c 6.03124,-6.05 11.19089,-11 11.46589,-11 0.275,0 -4.43465,4.95 -10.46589,11 -6.03124,6.05 -11.19089,11 -11.46589,11 -0.275,0 4.43465,-4.95 10.46589,-11 z M 178,479.62244 c 0,-0.20765 0.7875,-0.99515 1.75,-1.75 1.58606,-1.24387 1.62143,-1.2085 0.37756,0.37756 C 178.82119,479.91575 178,480.44548 178,479.62244 Z M 230,427.5 c 4.65071,-4.675 8.68084,-8.5 8.95584,-8.5 0.275,0 -3.30513,3.825 -7.95584,8.5 -4.65071,4.675 -8.68084,8.5 -8.95584,8.5 -0.275,0 3.30513,-3.825 7.95584,-8.5 z m 19,-18.81291 c 0,-0.1721 1.4625,-1.6346 3.25,-3.25 l 3.25,-2.93709 -2.93709,3.25 C 249.82513,408.77946 249,409.45965 249,408.68709 Z M 333,391.5 c -2.42903,-2.475 -4.19142,-4.5 -3.91642,-4.5 0.275,0 2.48739,2.025 4.91642,4.5 2.42903,2.475 4.19142,4.5 3.91642,4.5 -0.275,0 -2.48739,-2.025 -4.91642,-4.5 z M 331.5,347 c 18.69393,-18.7 34.21397,-34 34.48897,-34 0.275,0 -14.79504,15.3 -33.48897,34 -18.69393,18.7 -34.21397,34 -34.48897,34 -0.275,0 14.79504,-15.3 33.48897,-34 z m 108.96241,-0.25 -4.96241,-5.25 5.25,4.96241 c 2.8875,2.72932 5.25,5.09182 5.25,5.25 0,0.74619 -0.92643,-0.084 -5.53759,-4.96241 z M 176,321.62244 c 0,-0.20765 0.7875,-0.99515 1.75,-1.75 1.58606,-1.24387 1.62143,-1.2085 0.37756,0.37756 C 176.82119,321.91575 176,322.44548 176,321.62244 Z M 424.47318,303.75 417.5,296.5 l 7.25,6.97318 c 3.9875,3.83525 7.25,7.09775 7.25,7.25 0,0.73351 -1.05013,-0.23938 -7.52682,-6.97318 z M 379,299.5 c 2.98742,-3.025 5.65668,-5.5 5.93168,-5.5 0.275,0 -1.94426,2.475 -4.93168,5.5 -2.98742,3.025 -5.65668,5.5 -5.93168,5.5 -0.275,0 1.94426,-2.475 4.93168,-5.5 z m 11.46241,-0.75 -4.96241,-5.25 5.25,4.96241 c 2.8875,2.72932 5.25,5.09182 5.25,5.25 0,0.74619 -0.92643,-0.084 -5.53759,-4.96241 z M 196,301.62244 c 0,-0.20765 0.7875,-0.99515 1.75,-1.75 1.58606,-1.24387 1.62143,-1.2085 0.37756,0.37756 C 196.82119,301.91575 196,302.44548 196,301.62244 Z M 507.94617,293.25 504.5,289.5 l 3.75,3.44617 c 2.0625,1.89539 3.75,3.58289 3.75,3.75 0,0.76362 -0.84622,0.0442 -4.05383,-3.44617 z m -22.95631,-23 L 466.5,251.5 485.25,269.98986 C 502.67066,287.16882 504.45171,289 503.73986,289 c -0.14307,0 -8.58057,-8.4375 -18.75,-18.75 z M 411,267.5 c 10.16385,-10.175 18.70473,-18.5 18.97973,-18.5 0.275,0 -7.81588,8.325 -17.97973,18.5 -10.16385,10.175 -18.70473,18.5 -18.97973,18.5 -0.275,0 7.81588,-8.325 17.97973,-18.5 z m 47.45295,-23.75 -3.95295,-4.25 4.25,3.95295 c 2.3375,2.17412 4.25,4.08662 4.25,4.25 0,0.75658 -0.87085,-4.9e-4 -4.54705,-3.95295 z M 241,238.5 c 1.86578,-1.925 3.61733,-3.5 3.89233,-3.5 0.275,0 -1.02655,1.575 -2.89233,3.5 -1.86578,1.925 -3.61733,3.5 -3.89233,3.5 -0.275,0 1.02655,-1.575 2.89233,-3.5 z m 15,-15 c 1.86578,-1.925 3.61733,-3.5 3.89233,-3.5 0.275,0 -1.02655,1.575 -2.89233,3.5 -1.86578,1.925 -3.61733,3.5 -3.89233,3.5 -0.275,0 1.02655,-1.575 2.89233,-3.5 z m 260.87244,-35.25 c -1.24387,-1.58606 -1.2085,-1.62143 0.37756,-0.37756 0.9625,0.75485 1.75,1.54235 1.75,1.75 0,0.82304 -0.82119,0.29331 -2.12756,-1.37244 z m -11.40374,-11.5 -5.9687,-6.25 6.25,5.9687 c 5.80572,5.54441 6.7076,6.5313 5.9687,6.5313 -0.15472,0 -2.96722,-2.8125 -6.25,-6.25 z m -8.59626,-8.5 c -1.24387,-1.58606 -1.2085,-1.62143 0.37756,-0.37756 1.66575,1.30637 2.19548,2.12756 1.37244,2.12756 -0.20765,0 -0.99515,-0.7875 -1.75,-1.75 z"
       id="path701" /><path
       style="fill:#333333;fill-opacity:1"
       d="M 164.2623,587.7377 C 136.18129,559.6567 119,541.75051 119,540.56573 c 0,-1.18051 12.64885,-14.4439 33.12727,-34.73676 30.44522,-30.16933 33.53836,-32.94916 38.20475,-34.33493 7.17894,-2.13191 14.70609,-0.4169 20.21402,4.60563 2.02098,1.84288 2.12412,1.78694 8.42253,-4.56796 l 6.3765,-6.43369 -4.06029,-4.40489 c -2.74553,-2.97855 -4.28084,-5.71033 -4.7414,-8.43639 -1.3976,-8.27231 -0.0726,-10.28168 20.50768,-31.0994 19.22383,-19.44565 22.8239,-22.17782 29.16682,-22.13538 4.22955,0.0283 10.61468,2.98972 13.72458,6.36544 l 2.44247,2.65124 4.26035,-4.18122 4.26035,-4.18121 -2.11189,-2.96587 c -2.60599,-3.65977 -3.43388,-11.19424 -1.79587,-16.34376 C 288.74363,374.87832 426.19353,237 429.91897,237 c 1.34867,0 3.50398,0.98817 4.78959,2.19593 l 2.33746,2.19593 6.01969,-5.94593 6.0197,-5.94593 6.53885,-20.14195 c 6.35133,-19.56431 6.4935,-20.22965 4.9573,-23.20034 -1.96253,-3.7951 -2.04771,-11.35559 -0.16888,-14.98885 2.38717,-4.61628 11.00521,-11.93503 15.4693,-13.13708 8.91423,-2.40035 7.23651,-3.78446 64.54801,53.25152 46.79174,46.56679 52.58678,52.67655 53.55802,56.4667 1.59091,6.20835 -0.13519,11.42395 -5.77686,17.45534 -2.5565,2.73312 -5.87751,5.60501 -7.38001,6.38198 -4.01926,2.07844 -11.71204,1.78266 -15.62101,-0.60061 l -3.28987,-2.0058 -16.32085,5.16715 -16.32085,5.16716 3.11072,5.0041 c 2.61396,4.20499 3.10403,5.97635 3.0688,11.09239 -0.0486,7.0659 -1.72691,10.78608 -7.89268,17.49549 -4.17268,4.5406 -4.24073,4.73486 -5.98822,17.0928 -5.77708,40.8547 -13.90428,75.52992 -22.61773,96.5 -36.89239,88.78652 -98.44155,126.52774 -177.62831,108.91958 -6.14287,-1.36594 -14.41962,-3.58919 -18.39277,-4.94054 -5.12385,-1.74274 -8.33144,-2.27991 -11.03361,-1.84782 -5.69749,0.91107 -10.3583,-0.33103 -15.24827,-4.06363 l -4.38921,-3.35036 -23.58996,23.64139 -23.58997,23.64138 3.39615,3.66965 c 6.05523,6.54288 6.73071,14.13529 1.99143,22.38391 C 227.58209,619.58848 213.61132,633 211.25928,633 210.3052,633 189.15656,612.63197 164.2623,587.7377 Z m 53.69697,25.7262 c 5.7265,-5.96355 6.22007,-6.81763 5.63454,-9.75 -0.43807,-2.19389 -3.08635,-5.67356 -8.34432,-10.9639 -4.23641,-4.2625 -8.17439,-7.75 -8.75106,-7.75 -0.57667,0 -4.40237,3.37642 -8.50156,7.50315 l -7.45307,7.50315 9.95934,9.99685 c 5.47763,5.49827 10.23395,9.99685 10.56959,9.99685 0.33564,0 3.43458,-2.94125 6.88654,-6.5361 z m -30.7064,-48.70083 -12.23446,-12.23445 -8.01372,7.96672 -8.01373,7.96672 12.24323,12.27269 12.24322,12.27269 8.00496,-8.00496 8.00495,-8.00495 z m 38.25918,9.22479 6.95841,-7.01214 -23.73224,-23.73223 -23.73223,-23.73224 -7.2447,7.2447 -7.24469,7.24469 23.48372,23.49968 C 206.91637,570.42514 217.7247,581 218.01884,581 c 0.29414,0 3.66608,-3.15546 7.49321,-7.01214 z M 159.77503,553.72648 C 163.74876,549.72605 167,546.00299 167,545.45302 c 0,-0.54997 -3.4875,-4.4661 -7.75,-8.70251 -5.31558,-5.28305 -8.7659,-7.90543 -10.98413,-8.34837 -2.97329,-0.59371 -3.77984,-0.1146 -10,5.94018 l -6.76587,6.58597 9.98124,10.03585 C 146.97092,556.48387 151.70718,561 152.00627,561 c 0.29908,0 3.79502,-3.27308 7.76876,-7.27352 z m 85.44062,0.56111 C 247.84704,551.69577 250,549.11186 250,548.54557 250,547.23544 204.85015,502 203.5425,502 202.23164,502 193,511.15451 193,512.45443 193,513.76456 238.14985,559 239.4575,559 c 0.53559,0 3.12676,-2.12058 5.75815,-4.71241 z m 137.27151,-6.76889 c 43.96121,-9.52238 78.34829,-41.23505 102.78751,-94.79331 10.64636,-23.33136 17.27796,-47.58394 23.6969,-86.66249 3.86944,-23.55719 3.87422,-23.05935 -0.22157,-23.07655 -1.7875,-0.008 -4.16475,-0.25944 -5.28278,-0.55983 -1.90744,-0.5125 -2.17323,0.36701 -4.31044,14.26365 -5.25978,34.20024 -11.87481,62.27085 -18.79185,79.74237 -4.67586,11.81061 -15.18442,32.21718 -21.14807,41.06746 -4.84176,7.18536 -7.77404,8.94232 -10.7719,6.45432 -2.45382,-2.03649 -1.62435,-5.61441 2.93801,-12.67314 19.60762,-30.3362 29.51991,-60.83108 38.2155,-117.56888 3.04173,-19.84698 2.71267,-22.30017 -2.34188,-17.45876 -3.30091,3.16173 -9.13953,5.74646 -12.98062,5.74646 -2.32322,0 -7.83118,5.0453 -33.02399,30.25 l -30.23571,30.25 2.49186,4.91948 c 2.83638,5.59961 3.07077,8.28359 1.12331,12.86264 -2.00678,4.71853 -14.46213,16.30215 -18.47721,17.18401 -4.43377,0.97381 -9.36196,-0.0551 -12.6493,-2.64092 l -2.69797,-2.12222 -37.34409,37.33413 -37.34409,37.33413 2.8955,3.2978 c 1.59253,1.81378 3.42986,5.08131 4.08296,7.26118 l 1.18746,3.96338 10.60765,2.52849 c 32.04869,7.63929 59.62453,4.83442 81.96303,-8.33683 7.54177,-4.44679 12.14462,-3.85409 12.14462,1.56384 0,2.89465 -4.51209,6.33154 -14.1713,10.79437 -23.49544,10.85556 -50.37054,13.03391 -79.16604,6.41677 C 320.6232,533.70219 315.6,532.5804 314.5,532.36737 c -1.44581,-0.27999 -2.89813,0.84752 -5.24127,4.06904 -1.7827,2.45099 -2.9077,4.64638 -2.5,4.87864 0.4077,0.23226 5.24127,1.57571 10.74127,2.98545 8.71626,2.23412 13.20254,3.05506 28,5.12367 5.9134,0.82667 30.13455,-0.42114 36.98716,-1.90547 z M 430.2,502.8 c -0.66,-0.66 -1.2,-2.37 -1.2,-3.8 0,-1.43 0.54,-3.14 1.2,-3.8 0.66,-0.66 2.37,-1.2 3.8,-1.2 1.43,0 3.14,0.54 3.8,1.2 0.66,0.66 1.2,2.37 1.2,3.8 0,1.43 -0.54,3.14 -1.2,3.8 -0.66,0.66 -2.37,1.2 -3.8,1.2 -1.43,0 -3.14,-0.54 -3.8,-1.2 z M 315.74677,483.75326 C 347.23605,452.26755 373,426.0123 373,425.40825 c 0,-0.60405 -0.86979,-1.88542 -1.93286,-2.84749 -1.8542,-1.67803 -2.1221,-1.61903 -6.58215,1.44957 -9.68943,6.6665 -21.85956,9.1116 -32.75631,6.58106 -9.89563,-2.29805 -13.96156,-4.76243 -24.20151,-14.66866 l -9.19403,-8.89438 -43.82954,43.56493 -43.82955,43.56492 23.405,23.4209 C 246.95179,530.4606 257.71118,541 257.98879,541 c 0.27761,0 26.2687,-25.76103 57.75798,-57.24674 z M 298.16,533.16 c 4.95958,-4.95958 5.84,-6.38336 5.84,-9.44424 0,-2.39077 -0.82298,-4.54887 -2.4444,-6.41 l -2.4444,-2.80576 -9.5556,9.48025 c -5.25558,5.21414 -9.5556,9.83325 -9.5556,10.2647 0,1.47012 6.49098,4.74756 9.41,4.75131 2.21704,0.003 4.30069,-1.38695 8.75,-5.83626 z m -93.46223,-48.6533 c -0.16868,-0.55369 -1.96701,-1.82998 -3.99628,-2.83622 -3.0136,-1.49432 -4.28755,-1.63217 -6.95328,-0.7524 -4.2595,1.40577 -40.91098,38.05646 -38.83222,38.83139 0.7788,0.29032 3.0288,2.02058 5,3.84501 l 3.58401,3.31715 20.75223,-20.69912 c 11.41373,-11.38451 20.61422,-21.15213 20.44554,-21.70581 z m 67.53645,-72.55125 c -6.01763,-5.44581 -6.73906,-5.03018 -27.51879,15.85442 C 232.03514,440.55414 226,447.31477 226,448.77507 c 0,1.18544 1.42681,3.78039 3.1707,5.76656 l 3.1707,3.61123 21.5793,-21.62098 L 275.5,414.91089 Z M 400.16,422.16 c 3.212,-3.212 5.84,-6.67113 5.84,-7.68695 0,-2.23735 -34.36398,-37.07346 -37.33826,-37.85126 -1.58029,-0.41325 -3.5735,0.95664 -8.36807,5.75121 C 356.83215,385.83452 354,389.27653 354,390.02191 354,392.20753 390.1661,428 392.37454,428 c 1.07,0 4.57346,-2.628 7.78546,-5.84 z m -45.41,-4.22224 c 3.4375,-1.6847 6.25,-3.61856 6.25,-4.29747 0,-0.67892 -1.6875,-2.87138 -3.75,-4.87214 -3.52036,-3.41499 -3.90309,-3.55206 -6.25,-2.23839 -4.39141,2.45808 -12.01818,1.84689 -17.05422,-1.36667 C 328.42353,401.63927 316,388.55892 316,386.26854 c 0,-0.93168 13.72794,-15.44821 30.50654,-32.25895 l 30.50655,-30.56499 -5.53634,-5.46756 -5.53634,-5.46757 -34.9702,35.05176 C 296.88466,381.72626 296,382.71244 296,386.54413 c 0,3.72228 0.73058,4.6566 13.75,17.58465 12.80284,12.71299 14.19775,13.79905 20.25,15.76634 8.63587,2.80711 16.25848,2.20427 24.75,-1.95736 z M 345.38813,394.75 c -1.93617,-8.16392 -0.67472,-11.15113 8.46465,-20.04507 C 361.7397,367.0298 361.79118,367 367.16266,367 c 3.32294,0 6.34119,0.62877 7.86483,1.63842 1.35988,0.90114 8.3305,7.42809 15.49027,14.50435 l 13.01776,12.86591 8.4697,-8.51393 8.46971,-8.51394 -21.23511,-21.2351 -21.23511,-21.23511 -24.50235,24.48704 C 340.02606,374.46552 329,386.00548 329,386.642 c 0,0.63652 2.51126,3.45247 5.58059,6.25766 4.11333,3.75935 6.36905,5.10034 8.57945,5.10034 2.87478,0 2.96698,-0.13448 2.22809,-3.25 z m 88.62738,-29.26571 5.44719,-5.5157 -21.21564,-21.21565 -21.21565,-21.21564 -5.5157,5.44719 C 388.48207,325.98044 386,328.89303 386,329.45691 386,330.8085 426.17401,371 427.52501,371 c 0.57382,0 3.49455,-2.48207 6.4905,-5.51571 z m 19.99741,-19.99732 6.45513,-6.51303 -21.22099,-21.221 -21.221,-21.22099 -6.51303,6.45513 C 407.93086,306.53741 405,309.9012 405,310.46218 405,311.80689 445.17562,352 446.51974,352 c 0.57092,0 3.94285,-2.93086 7.49318,-6.51303 z m 61.62894,-15.69822 c 7.29408,-6.07109 9.85865,-9.77052 9.8524,-14.2122 -0.006,-4.1255 -2.59405,-8.92368 -5.43517,-10.07592 -1.80653,-0.73266 -22.22818,19.35151 -21.82488,21.4642 0.44595,2.33609 6.76243,6.03517 10.30553,6.03517 2.18422,0 4.50439,-1.04907 7.10212,-3.21125 z M 494.9429,314.51074 512.5,297.02149 l -29.26833,-29.2051 -29.26834,-29.20509 -4.9259,4.85184 c -4.67786,4.60751 -4.85925,4.98239 -3.60211,7.44435 2.23991,4.3866 2.73879,8.73179 1.52228,13.25883 -0.92584,3.44534 -3.29323,6.49476 -11.54912,14.87631 l -10.38457,10.54264 21.29121,21.20736 L 467.60632,332 h 4.88974 4.88974 z m -104.44605,-4.50756 5.93424,-5.99681 -4.92795,-5.00319 C 388.79276,296.25143 386.12242,294 385.56904,294 384.25394,294 374,304.13203 374,305.43149 374,306.47747 383.00462,316 383.99371,316 c 0.31289,0 3.23931,-2.69857 6.50314,-5.99682 z M 438,259.65418 c 0,-1.80705 -1.34079,-4.15703 -3.9613,-6.9429 l -3.96131,-4.21128 -18.76985,18.73449 -18.76985,18.73449 5.47482,5.54368 5.47481,5.54368 17.25634,-17.33527 C 434.64319,265.75797 438,261.85443 438,259.65418 Z m 100.72007,26.24203 15.56347,-5.10378 -41.86468,-41.87359 c -26.73231,-26.73799 -42.11017,-41.42994 -42.54384,-40.64621 -0.37354,0.67505 -2.83956,8.10829 -5.48004,16.51829 l -4.80087,15.29093 30.4468,30.45907 C 506.78665,277.29342 521.08821,291 521.82215,291 c 0.73395,0 8.33802,-2.2967 16.89792,-5.10379 z m 41.91151,-7.26463 C 583.03421,276.22895 585,273.45376 585,272.4645 c 0,-0.98926 -5.94567,-7.80315 -13.2126,-15.14198 l -13.2126,-13.34333 -6.2874,6.23152 c -3.45807,3.42733 -6.2874,6.71757 -6.2874,7.31163 0,0.59407 5.55263,6.56957 12.33917,13.27889 14.49999,14.33499 15.45301,14.66975 22.29241,7.83035 z m -35.61886,-35.14441 6.45494,-6.51284 -18.73086,-18.73087 -18.73087,-18.73087 -6.74327,6.74327 -6.74326,6.74326 18.48016,18.50044 C 529.16365,241.6748 537.72229,250 538.01875,250 c 0.29647,0 3.44375,-2.93078 6.99397,-6.51283 z M 494.20216,179.75 C 487.13308,172.7375 480.58565,167 479.6523,167 c -0.93334,0 -3.71193,1.85731 -6.17464,4.12736 -7.26408,6.69579 -6.81728,7.99851 7.75231,22.60317 l 12.22998,12.25941 6.79753,-6.74497 6.79754,-6.74497 z M 206.98867,355.48865 c -10.51942,-10.53586 -15.96853,-15.32004 -16.9879,-14.91492 -2.97388,1.18186 -7.94411,1.65731 -10.53287,1.00757 -3.79391,-0.95221 -12.17398,-9.16069 -13.52195,-13.24506 -0.86484,-2.62049 -0.86312,-4.60811 0.007,-8.06357 l 1.15472,-4.58584 -15.55382,-15.66398 C 142.99922,291.40766 136,283.75845 136,283.0246 c 0,-2.76004 7.95827,-8.9566 13.61499,-10.60105 10.96923,-3.18884 17.61381,-0.4635 30.91944,12.68194 C 190.64647,295.09579 192,295.27694 192,286.64 c 0,-4.70944 0.29276,-5.25276 5.79548,-10.75548 4.60766,-4.60766 6.65271,-5.93255 9.978,-6.46429 3.86132,-0.61745 4.2289,-0.94726 4.7863,-4.29452 2.36439,-14.19841 4.19438,-16.8146 28.06736,-40.12571 17.48762,-17.07603 23.45983,-21.4649 34.8196,-25.58827 7.25281,-2.63263 21.05232,-4.66192 25.56476,-3.75943 2.53025,0.50605 3.6843,-0.0389 7.46826,-3.52688 4.98122,-4.59153 6.44521,-4.9708 8.86525,-2.29668 2.50713,2.77034 2.00534,5.43936 -1.69734,9.02814 -3.26323,3.16284 -3.36832,3.52026 -3.95371,13.44616 -1.36472,23.14037 -7.68538,33.77887 -37.30971,62.79717 -7.63634,7.48012 -15.45925,14.42933 -17.38425,15.44268 -1.925,1.01336 -6.86782,2.57418 -10.98405,3.4685 l -7.48406,1.62603 -0.74666,4.37379 c -1.33945,7.84619 -12.29593,16.91408 -18.72948,15.50103 -1.8546,-0.40733 -3.15946,-0.0922 -4.04717,0.97742 -1.13255,1.36464 -0.0887,2.82755 7.70214,10.79446 4.95673,5.06873 9.80879,10.77055 10.78236,12.67069 2.78157,5.42894 3.14897,14.80924 0.78815,20.12276 -2.67933,6.0304 -6.9935,10.92243 -9.63222,10.92243 -1.47192,0 -7.1709,-5.00551 -17.66034,-15.51135 z m 18.40434,0.92956 c 1.08203,-2.81973 0.64397,-8.53802 -0.90397,-11.80006 -0.83103,-1.75126 -5.2339,-6.88771 -9.78416,-11.41433 l -8.2732,-8.23023 -3.93464,4.02944 -3.93464,4.02944 12.45379,12.48376 C 217.86578,352.38231 223.7661,358 224.12801,358 c 0.3619,0 0.93116,-0.7118 1.265,-1.58179 z m -28.89177,-36.41945 11.96997,-12.00124 -4.73403,-4.73402 -4.73402,-4.73403 -11.5115,11.47885 c -6.33133,6.31336 -11.77666,12.31427 -12.10074,13.33535 -0.68058,2.14433 5.01485,8.65633 7.57088,8.65633 0.8632,0 6.95595,-5.40056 13.53944,-12.00124 z M 174.4809,292.89485 c -10.58505,-10.76148 -16.6607,-13.59257 -22.98569,-10.71071 l -2.5989,1.18413 12.78728,12.81573 12.78728,12.81572 3.99547,-3.99547 3.99547,-3.99547 z m 50.22149,9.90898 C 226.51608,301.04594 228,299.12455 228,298.53408 c 0,-0.59047 -4.2672,-5.32303 -9.48266,-10.51681 l -9.48265,-9.44322 -3.51735,3.40914 C 203.5828,283.85822 202,285.8581 202,286.42738 202,287.42373 219.96887,306 220.93264,306 c 0.25968,0 1.95607,-1.43828 3.76975,-3.19617 z m 14.46684,-17.32422 c 11.70485,-2.81102 13.32004,-3.41877 16.18242,-6.08892 l 2.85166,-2.66015 -13.33776,-13.36527 C 237.52978,256.01437 230.978,250 230.30605,250 c -2.01269,0 -6.24325,8.29294 -7.38708,14.48052 -0.58818,3.18174 -1.50483,6.93022 -2.03701,8.32996 -0.87185,2.29312 -0.39743,3.12116 4.79391,8.36725 3.16884,3.20225 6.07676,5.82227 6.46206,5.82227 0.38529,0 3.54938,-0.68418 7.0313,-1.52039 z m 29.85503,-20.00464 3.41659,-3.52503 -13.71436,-13.71436 -13.71437,-13.71437 -3.74078,3.74078 -3.74078,3.74079 13.47083,13.49861 C 258.41034,262.92562 264.72769,269 265.03994,269 c 0.31225,0 2.10519,-1.58626 3.98432,-3.52503 z m 24.03772,-25.78453 c 5.29183,-8.05935 8.19074,-17.32427 8.32692,-26.61285 L 301.5,205.5 l -7.47305,0.31451 c -8.10118,0.34095 -17.05917,2.90344 -23.77268,6.80034 -5.39701,3.13272 -16.20735,12.09931 -16.96378,14.07053 -0.38553,1.00468 3.84745,5.93428 12.79263,14.89791 l 13.36881,13.39639 4.89772,-4.73984 c 2.69375,-2.60691 6.61429,-7.35414 8.71233,-10.5494 z"
       id="path700" /></g><path
     style="fill:none;stroke:#333333;stroke-width:10.4;stroke-linecap:round;stroke-dasharray:none"
     d="m 367.00724,337.93319 c 7.95908,-5.33726 15.91817,-10.67453 23.22186,-18.07189 7.30369,-7.39735 13.95173,-16.85443 20.5999,-26.31169"
     id="path708"
     transform="matrix(1.0551023,0,0,1.0551023,-72.348232,25.876531)" /><path
     style="fill:#ffffff;stroke:none;stroke-width:4.13156;stroke-linecap:round;stroke-dasharray:none"
     d="m 173.59563,104.21792 c -0.005,-0.42671 -5.18694,-5.810997 -12.46207,-12.949554 -6.84911,-6.720531 -12.92616,-12.902019 -13.50455,-13.736639 l -1.05162,-1.517492 4.27728,-4.380671 c 11.62007,-11.900949 23.07932,-17.154545 39.23546,-17.98785 3.7138,-0.191552 6.81078,-0.289864 6.88217,-0.218472 0.0714,0.07139 -0.0528,3.498314 -0.27598,7.615381 -0.30415,5.610737 -0.64985,8.439284 -1.38027,11.293397 -1.81531,7.093241 -4.71666,13.227414 -8.96887,18.962364 -4.50931,6.081717 -12.73285,14.413586 -12.75155,12.919536 z"
     id="path709" /><path
     style="fill:#ffffff;stroke:none;stroke-width:4.13156;stroke-linecap:round;stroke-dasharray:none"
     d="m 144.75581,105.52325 -13.95153,-13.953685 3.42401,-3.452176 3.42401,-3.452176 13.98239,14.178329 13.9824,14.178328 -3.24747,3.27744 c -1.78611,1.80259 -3.34081,3.25498 -3.45488,3.22753 -0.11407,-0.0274 -6.48559,-6.32906 -14.15893,-14.00359 z"
     id="path710" /><path
     style="fill:#ffffff;stroke:none;stroke-width:4.13156;stroke-linecap:round;stroke-dasharray:none"
     d="m 121.65556,136.82696 c -1.14335,-1.00018 -2.07882,-2.04733 -2.07882,-2.32702 0,-0.27968 -1.69831,-2.14068 -3.77401,-4.13554 -2.07571,-1.99487 -3.77402,-3.91837 -3.77402,-4.27446 0,-0.71783 2.42967,-11.03077 3.40634,-14.4585 0.90565,-3.17846 3.95642,-9.20821 5.31982,-10.51442 l 1.17568,-1.126375 1.9019,1.532215 c 2.4977,2.01221 21.27937,20.82568 23.50355,23.54336 0.951,1.16199 2.20028,2.2939 2.77619,2.51535 l 1.04711,0.40264 -2.41094,2.27356 c -1.32602,1.25046 -3.29248,2.68903 -4.36992,3.19683 -1.96947,0.92822 -18.23098,5.19086 -19.80256,5.19086 -0.46283,0 -1.77697,-0.81833 -2.92032,-1.8185 z"
     id="path711" /><path
     style="fill:#ffffff;stroke:none;stroke-width:4.13156;stroke-linecap:round;stroke-dasharray:none"
     d="m 102.35621,148.73652 c -8.119642,-8.23807 -9.825392,-10.15922 -9.613353,-10.82729 0.141777,-0.44671 0.587405,-0.91681 0.990284,-1.04468 0.75334,-0.2391 3.537531,-3.10509 5.040099,-5.18818 l 0.847437,-1.17484 0.908803,1.19179 c 0.49983,0.65549 4.94399,5.2627 9.87591,10.23824 l 8.96711,9.04645 -0.60752,1.08381 c -0.33414,0.59609 -1.08946,1.3155 -1.67849,1.59867 -0.58903,0.28318 -1.60833,1.17702 -2.2651,1.98633 -2.86426,3.52945 -1.34585,4.3712 -12.46518,-6.9103 z"
     id="path712" /><path
     style="fill:#ffffff;stroke:none;stroke-width:4.13156;stroke-linecap:round;stroke-dasharray:none"
     d="m 69.865936,185.13957 c -2.574645,-1.70537 -5.509018,-5.61137 -5.509018,-7.33315 0,-0.70509 1.980675,-2.91455 6.914405,-7.71308 5.78224,-5.62378 11.143168,-11.22075 11.419314,-11.92211 0.356554,-0.90558 2.749255,-3.09638 3.714484,-3.40105 0.436991,-0.13794 1.228846,-0.83773 1.759677,-1.55511 l 0.965147,-1.30431 1.39414,1.61059 c 0.766777,0.88583 2.799742,3.05374 4.517702,4.81758 l 3.123562,3.20698 -2.701995,2.91845 c -5.943573,6.4197 -22.558339,21.85289 -23.525967,21.85289 -0.161416,0 -1.093568,-0.52996 -2.071451,-1.17768 z"
     id="path713" /><path
     style="fill:#ffffff;stroke:none;stroke-width:4.13156;stroke-linecap:round;stroke-dasharray:none"
     d="M 62.582968,160.93559 C 62.238391,159.84993 38.582657,136.26151 37.369029,135.7934 l -1.019289,-0.39314 1.390428,-0.71725 c 2.325011,-1.19936 4.88282,-1.84823 5.070157,-1.28622 0.191417,0.57425 2.327811,0.64843 2.67124,0.0927 0.291482,-0.47163 3.386005,0.65049 6.061531,2.198 1.03897,0.60094 2.914405,2.15013 4.167634,3.44265 1.253228,1.29251 2.427065,2.25827 2.608525,2.14612 0.181461,-0.11215 3.175674,2.64602 6.653807,6.12925 l 6.323879,6.33316 -3.95914,3.97405 c -2.177526,2.18573 -4.084523,3.97405 -4.23777,3.97405 -0.153247,0 -0.385925,-0.33805 -0.517063,-0.75123 z"
     id="path714" /><path
     style="fill:#ffffff;stroke:none;stroke-width:4.13156;stroke-linecap:round;stroke-dasharray:none"
     d="m 102.24196,200.25775 -13.163508,-13.04354 3.745853,-3.74585 3.745853,-3.74586 8.618572,8.67586 c 8.82041,8.87903 10.48345,10.85763 11.23534,13.36721 0.79628,2.65771 0.93436,8.42055 0.24142,10.07595 -0.34297,0.81936 -0.76679,1.483 -0.94181,1.47476 -0.17502,-0.008 -6.2418,-5.88458 -13.48172,-13.05853 z"
     id="path715" /><path
     style="fill:#ffffff;stroke:none;stroke-width:4.13156;stroke-linecap:round;stroke-dasharray:none"
     d="m 48.069056,388.60656 c -1.857214,-1.63738 -3.880512,-3.28741 -4.496218,-3.66671 l -1.119466,-0.68966 3.075729,-3.72221 c 3.662335,-4.4321 25.237408,-26.11882 31.092515,-31.25341 5.553714,-4.87028 6.709743,-5.6229 9.026834,-5.87679 1.675529,-0.1836 2.338004,-0.0186 4.72932,1.17782 1.52947,0.76523 3.182954,1.71628 3.674411,2.11344 l 0.89356,0.72212 -2.837346,3.17663 c -4.52909,5.07066 -29.094737,30.09013 -35.142662,35.79187 l -5.519925,5.20397 z"
     id="path716" /><path
     style="fill:#ffffff;stroke:none;stroke-width:4.13156;stroke-linecap:round;stroke-dasharray:none"
     d="m 28.989355,417.07224 -10.516536,-10.24423 4.767179,-4.80729 c 5.920915,-5.97074 8.948972,-8.33118 10.687515,-8.33118 2.475142,0 5.230163,1.86003 10.051195,6.786 2.534022,2.58918 4.731793,4.63066 4.883936,4.53663 0.34859,-0.21544 1.812968,1.37856 3.7403,4.07138 0.821015,1.14711 1.656298,2.08565 1.856185,2.08565 1.134094,0 -0.401743,1.81107 -7.294904,8.60224 l -7.658335,7.54503 z"
     id="path717" /><path
     style="fill:#ffffff;stroke:none;stroke-width:4.13156;stroke-linecap:round;stroke-dasharray:none"
     d="m 71.057183,459.62596 c -3.37385,-4.03347 -5.52134,-6.24524 -14.283003,-14.71058 l -9.37043,-9.0535 8.005418,-7.99828 8.005416,-7.99827 3.586206,3.69655 c 1.972413,2.0331 4.374361,4.57071 5.337662,5.63913 0.963301,1.06841 5.075229,5.12048 9.137619,9.00459 l 7.386161,7.06201 -7.985607,7.97848 c -4.392085,4.38817 -8.097354,7.97849 -8.233931,7.97849 -0.136577,0 -0.850057,-0.71938 -1.585511,-1.59862 z"
     id="path718" /><path
     style="fill:#ffffff;stroke:none;stroke-width:4.13156;stroke-linecap:round;stroke-dasharray:none"
     d="m 91.493421,479.51544 -10.293403,-10.31221 7.770631,-7.76334 c 4.273847,-4.26984 7.867929,-7.76335 7.986849,-7.76335 0.618381,0 15.826872,15.77939 16.756342,17.38535 1.51576,2.61894 1.46795,4.62315 -0.16427,6.88752 -1.36953,1.89996 -11.01045,11.87824 -11.47663,11.87824 -0.15736,0 -4.918148,-4.64049 -10.579519,-10.31221 z"
     id="path719" /><path
     style="fill:#ffffff;stroke:none;stroke-width:4.13156;stroke-linecap:round;stroke-dasharray:none"
     d="M 85.678564,425.15975 C 72.824702,412.3303 61.830395,401.29716 61.246771,400.64167 l -1.061135,-1.19179 7.1727,-7.15077 7.172701,-7.15077 8.121999,8.43768 c 9.872566,10.25629 39.229434,39.47757 40.214844,40.02912 0.61276,0.34297 -0.2764,1.37848 -6.55487,7.63384 l -7.26379,7.23705 z"
     id="path720" /><path
     style="fill:#ffffff;stroke:none;stroke-width:4.13156;stroke-linecap:round;stroke-dasharray:none"
     d="m 121.85812,416.03285 c -5.40608,-5.40932 -11.15802,-10.99586 -12.7821,-12.41452 -1.62407,-1.41867 -2.96488,-2.77562 -2.97957,-3.01546 -0.0147,-0.23984 -4.41829,-4.79846 -9.785766,-10.13026 -11.928866,-11.84958 -13.282315,-13.22282 -13.282315,-13.47656 0,-0.10996 2.352107,-2.56957 5.226905,-5.4658 3.630483,-3.65756 5.426964,-5.20239 5.881929,-5.05799 0.360263,0.11435 11.391017,11.07125 24.512787,24.34868 l 23.85777,24.14079 -5.25811,5.45314 c -2.89196,2.99922 -5.32655,5.45313 -5.4102,5.45313 -0.0837,0 -4.57525,-4.42582 -9.98133,-9.83515 z"
     id="path721" /><path
     style="fill:#ffffff;stroke:none;stroke-width:4.13156;stroke-linecap:round;stroke-dasharray:none"
     d="m 126.40917,382.34683 -24.68024,-24.45613 44.03672,-44.00658 c 24.2202,-24.20362 44.90494,-44.58166 45.96609,-45.28454 2.4706,-1.63645 3.38101,-1.43519 5.70119,1.26035 3.35625,3.8992 6.89181,7.43099 7.43895,7.43099 0.30104,0 2.08381,1.34326 3.9617,2.98503 8.70339,7.60902 16.45347,10.77955 27.40575,11.21156 10.43321,0.41153 18.47616,-1.85757 27.65077,-7.80093 2.05719,-1.33266 4.00889,-2.42301 4.33711,-2.42301 0.32822,0 1.36414,0.91006 2.30205,2.02235 l 1.70528,2.02236 -60.53762,60.63885 c -33.29569,33.35136 -60.55334,60.68766 -60.57256,60.74733 -0.0192,0.0597 -11.14106,-10.89676 -24.71519,-24.34763 z"
     id="path722" /><path
     style="fill:#ffffff;stroke:none;stroke-width:4.13156;stroke-linecap:round;stroke-dasharray:none"
     d="m 122.34009,317.11672 c -1.94035,-2.18713 -4.16921,-5.48771 -4.52281,-6.69755 -0.52113,-1.78306 6.48022,-9.6214 24.65312,-27.60029 10.8968,-10.78047 14.59557,-13.94178 17.13126,-14.64191 2.03586,-0.56213 4.30224,0.5255 6.25581,3.00216 0.84186,1.06728 1.84806,2.23025 2.236,2.58438 0.66441,0.6065 0.0241,1.33877 -11.02977,12.61317 -6.45431,6.5831 -12.01133,11.96928 -12.34892,11.96928 -0.79306,0 -19.97359,19.25861 -19.97359,20.05489 0,1.02951 -0.66316,0.67485 -2.4011,-1.28413 z"
     id="path723" /><path
     style="fill:#ffffff;stroke:none;stroke-width:4.13156;stroke-linecap:round;stroke-dasharray:none"
     d="m 182.14597,404.25513 c -2.00521,-0.63685 -5.2731,-2.29702 -6.53865,-3.32181 -0.92154,-0.74621 -0.93784,-0.83305 -0.33041,-1.76011 0.35143,-0.53634 4.80783,-5.22909 9.90312,-10.42832 l 9.26415,-9.45315 1.75728,1.93514 c 2.36253,2.60165 3.20612,4.57331 3.21681,7.51839 0.007,2.01988 -0.19045,2.71984 -1.2347,4.36991 -1.84413,2.914 -8.61605,9.40647 -11.10506,10.64679 -2.35922,1.17565 -2.682,1.20792 -4.93254,0.49316 z"
     id="path724" /><path
     style="fill:#ffffff;stroke:none;stroke-width:4.13156;stroke-linecap:round;stroke-dasharray:none"
     d="m 241.73571,415.48495 c -11.87352,-1.82137 -20.68648,-3.48802 -27.21265,-5.14629 -9.40448,-2.38963 -11.52068,-3.06466 -11.52068,-3.67486 0,-0.67307 3.27835,-5.46534 4.73586,-6.92286 0.67882,-0.67881 1.56335,-1.33867 1.96562,-1.46634 0.40228,-0.12769 4.73494,0.648 9.62813,1.72374 16.13696,3.54762 23.98962,4.49502 37.10252,4.47634 13.27906,-0.0189 23.68484,-1.50477 35.43674,-5.06005 7.97652,-2.41313 18.80939,-7.14891 23.35847,-10.21158 23.75968,-15.99621 30.66057,-22.53862 45.4163,-43.05708 5.6857,-7.9062 6.0295,-8.45613 6.0295,-9.64453 0,-0.4558 1.62207,-3.73009 3.60459,-7.2762 4.46989,-7.99525 11.02835,-21.26459 14.28055,-28.89296 7.51061,-17.61691 14.50811,-45.6275 20.24562,-81.04204 3.34736,-20.66144 3.68289,-22.0999 5.06378,-21.70928 0.38678,0.10941 1.49728,0.32288 2.46778,0.47437 0.97049,0.15149 2.01118,0.52209 2.31265,0.82355 0.72224,0.72224 1.48155,0.69296 2.26175,-0.0872 0.53388,-0.53389 0.7371,-0.5509 1.27252,-0.10654 0.92579,0.76834 0.5144,6.47383 -1.22794,17.02975 -8.70843,52.76016 -15.64875,77.17482 -30.26521,106.467 -11.65437,23.35599 -22.82455,39.40378 -37.90335,54.45431 -11.78914,11.76704 -22.17798,19.39098 -35.62974,26.14721 -11.06165,5.55579 -24.13454,9.96234 -33.60131,11.3262 -8.92566,1.2859 -32.75561,2.15248 -37.8215,1.37538 z"
     id="path725" /><path
     style="fill:#ffffff;stroke:none;stroke-width:4.13156;stroke-linecap:round;stroke-dasharray:none"
     d="m 290.32197,285.57147 c -1.37694,-1.12658 -5.09867,-4.65727 -8.27051,-7.84598 -3.17184,-3.18871 -7.95391,-7.82212 -10.62684,-10.29648 -2.67292,-2.47436 -4.85986,-4.73286 -4.85986,-5.0189 0,-0.49377 -1.68203,-2.0868 -4.34893,-4.11881 -0.66703,-0.50823 -1.21278,-1.14822 -1.21278,-1.42219 0,-0.27397 -1.47904,-1.91399 -3.28675,-3.64449 -1.80772,-1.73049 -3.68725,-3.7137 -4.17673,-4.40712 l -0.88997,-1.26077 2.39816,-2.98109 c 2.97067,-3.69276 9.07627,-9.48591 10.91924,-10.36045 1.2787,-0.60679 1.46654,-0.60583 2.6749,0.0136 1.36404,0.69926 34.76169,34.22677 37.15781,37.3023 1.26728,1.62661 1.34542,1.87659 0.91299,2.92059 -0.81732,1.97317 -12.37537,13.15383 -13.60988,13.16549 -0.15253,0.001 -1.40391,-0.91914 -2.78085,-2.04572 z"
     id="path726" /><path
     style="fill:#ffffff;stroke:none;stroke-width:4.13156;stroke-linecap:round;stroke-dasharray:none"
     d="m 232.84228,280.37772 c -3.42395,-0.50407 -9.18145,-2.60406 -11.76435,-4.29093 -2.45462,-1.60309 -5.08404,-3.97804 -9.00292,-8.1316 -1.2369,-1.31097 -6.02176,-6.13197 -10.63302,-10.71333 -8.50399,-8.44885 -9.9603,-10.32964 -9.9603,-12.86348 0,-1.49656 0.8311,-3.6399 1.9965,-5.1488 0.45421,-0.58809 16.8409,-17.11045 36.41485,-36.71634 l 35.58902,-35.64708 2.62699,2.34646 c 1.44485,1.29055 3.95546,3.6927 5.57913,5.3381 2.89699,2.93577 2.93409,2.99891 1.98632,3.38074 -0.53119,0.21401 -14.10235,13.54857 -30.15812,29.63237 -21.9151,21.95335 -29.05279,29.3295 -28.63261,29.58919 0.43812,0.27078 0.10398,0.84457 -1.53815,2.64132 -3.06526,3.35388 -3.36087,3.88415 -2.78384,4.99353 1.68277,3.2352 11.81113,13.91272 16.66008,17.56338 3.16016,2.37921 5.12549,3.2844 8.85104,4.07659 3.68452,0.78346 7.39784,0.49563 10.71226,-0.83035 1.40099,-0.56048 2.73561,-1.01905 2.96584,-1.01905 0.23023,0 2.14818,1.83141 4.26212,4.06979 l 3.84353,4.0698 -0.89148,0.72187 c -2.85981,2.31573 -9.17984,5.29028 -13.66495,6.43145 -3.01172,0.76628 -9.03061,1.01093 -12.45794,0.50637 z"
     id="path727" /><path
     style="fill:#ffffff;stroke:none;stroke-width:4.13156;stroke-linecap:round;stroke-dasharray:none"
     d="m 308.11253,205.57081 -21.81599,-21.64844 3.85918,-3.62197 c 2.12255,-1.99208 4.80877,-4.74128 5.96937,-6.10933 l 2.11017,-2.48736 21.89725,21.90626 21.89724,21.90625 -5.76796,5.85966 c -3.17238,3.22281 -5.89516,5.85599 -6.05062,5.85152 -0.15546,-0.004 -10.09985,-9.74994 -22.09864,-21.65659 z"
     id="path728" /><path
     style="fill:#ffffff;stroke:none;stroke-width:4.13156;stroke-linecap:round;stroke-dasharray:none"
     d="m 279.17346,163.95165 c -2.78828,-2.66588 -5.06758,-5.02988 -5.06513,-5.25335 0.006,-0.58853 11.42954,-11.92706 11.90132,-11.81323 0.21811,0.0526 2.69045,2.43673 5.49408,5.29801 l 5.0975,5.20231 -1.12857,0.85961 c -2.68014,2.0414 -3.88021,3.15863 -3.88021,3.61236 0,0.56484 -1.65748,2.21305 -2.22549,2.21305 -0.55522,0 -4.13075,3.7084 -4.13075,4.28425 0,1.10531 -1.25416,0.19448 -6.06275,-4.40301 z"
     id="path729" /><path
     style="fill:#ffffff;stroke:none;stroke-width:4.13156;stroke-linecap:round;stroke-dasharray:none"
     d="m 299.22996,143.70093 -5.26257,-5.27342 19.66894,-19.6898 c 10.81792,-10.82939 19.67147,-19.495348 19.67456,-19.257689 0.008,0.632699 3.94926,5.000649 4.5119,5.000649 0.74686,0 3.03051,4.07215 3.03051,5.40393 0,2.12211 -2.31141,4.96923 -10.5706,13.02052 -4.45547,4.34331 -8.10085,8.10588 -8.10085,8.36126 0,0.56135 -2.84958,3.40643 -3.41182,3.40643 -0.42678,0 -10.19728,9.96753 -12.42554,12.67611 -0.73545,0.89398 -1.45301,1.62543 -1.59458,1.62543 -0.14156,0 -2.62554,-2.37304 -5.51995,-5.27342 z"
     id="path730" /><path
     style="fill:#ffffff;stroke:none;stroke-width:4.13156;stroke-linecap:round;stroke-dasharray:none"
     d="m 328.40078,185.74427 c -11.94174,-11.85581 -21.71226,-21.74197 -21.71226,-21.96924 0,-1.0247 9.40672,-10.82803 10.38996,-10.82803 0.37159,0 1.20771,-0.64553 1.85805,-1.43451 l 1.18245,-1.43451 20.19169,20.30459 c 11.10543,11.16753 20.38237,20.30459 20.61543,20.30459 0.23305,0 1.11938,0.71241 1.96961,1.58312 l 1.54588,1.58313 -0.93861,0.9991 c -0.51623,0.5495 -1.16241,0.9991 -1.43596,0.9991 -0.27355,0 -2.8766,2.49978 -5.78455,5.55507 -2.90796,3.05528 -5.4857,5.63124 -5.72832,5.72434 -0.24262,0.0931 -10.21163,-9.53093 -22.15337,-21.38675 z"
     id="path731" /><path
     style="fill:#ffffff;stroke:none;stroke-width:4.13156;stroke-linecap:round;stroke-dasharray:none"
     d="m 350.28702,164.16841 c -12.18041,-12.18186 -22.14619,-22.38225 -22.14619,-22.66755 0,-0.28528 0.15712,-0.42159 0.34917,-0.3029 0.42728,0.26407 9.74689,-8.67118 12.76057,-12.23431 1.20173,-1.42082 2.39932,-2.59458 2.66132,-2.60836 0.61347,-0.0322 2.63441,-2.66934 2.37158,-3.09462 -0.10981,-0.17767 0.58756,-1.37537 1.54972,-2.66155 4.2035,-5.61909 4.77674,-11.93896 1.72028,-18.96589 -0.63367,-1.45684 -1.15213,-2.726997 -1.15213,-2.822565 0,-0.09557 1.80296,-1.94268 4.00659,-4.104694 2.20362,-2.162015 4.26996,-4.433953 4.59185,-5.048752 0.32189,-0.614799 0.7166,-1.061722 0.87713,-0.993162 0.16053,0.06856 2.03681,2.00173 4.1695,4.295935 2.1327,2.294205 4.503,4.506514 5.26734,4.916242 0.76435,0.409728 2.14012,1.661113 3.05728,2.780856 2.52282,3.08005 40.10472,40.75364 40.44479,40.54346 0.16289,-0.10067 0.40111,0.1324 0.52937,0.51794 0.12825,0.38554 1.90934,2.43785 3.95797,4.56068 l 3.72479,3.85969 -18.22591,18.08919 -18.22591,18.0892 h -5.07146 -5.07147 z"
     id="path732" /><path
     style="fill:#ffffff;stroke:none;stroke-width:4.13156;stroke-linecap:round;stroke-dasharray:none"
     d="m 413.79819,187.05144 c -1.63073,-0.36621 -5.44472,-2.28708 -6.83034,-3.44002 -0.45353,-0.37737 -1.13828,-1.16487 -1.52166,-1.74999 l -0.69707,-1.06386 4.14569,-4.29161 c 8.65629,-8.96098 17.70416,-17.59999 18.43293,-17.59999 2.84803,0 6.57973,7.40275 5.87176,11.6481 -0.45004,2.6987 -2.01279,5.28153 -5.23837,8.65771 -6.18363,6.47233 -10.24381,8.71978 -14.16294,7.83966 z"
     id="path733" /><path
     style="fill:#ffffff;stroke:none;stroke-width:4.13156;stroke-linecap:round;stroke-dasharray:none"
     d="m 424.3955,138.35912 c -2.79531,-2.56094 -17.48321,-17.00552 -32.6398,-32.09908 l -27.55742,-27.442818 5.05264,-15.870664 c 2.77895,-8.728866 5.22347,-16.190562 5.43226,-16.581548 0.35037,-0.656084 0.49275,-0.620934 1.84701,0.45597 5.43107,4.318757 82.68392,80.57579 82.72421,81.65786 0.0271,0.72912 2.22867,3.06579 2.99435,3.17816 0.39625,0.0582 0.77158,0.26889 0.83408,0.4683 0.1349,0.43039 -31.80998,10.86611 -33.32426,10.88633 -0.15439,0.002 -2.56777,-2.09157 -5.36307,-4.65251 z"
     id="path734" /><path
     style="fill:#ffffff;stroke:none;stroke-width:4.13156;stroke-linecap:round;stroke-dasharray:none"
     d="m 399.25125,52.300614 c 0,-0.294589 -5.24825,-5.721926 -11.66278,-12.060749 -14.1163,-13.949688 -15.09993,-15.42677 -12.72133,-19.10324 0.32437,-0.501368 1.02337,-1.076436 1.55334,-1.277929 0.52997,-0.201492 1.60142,-1.254177 2.381,-2.339299 1.37779,-1.917779 5.1268,-4.806919 6.23757,-4.806919 1.18236,0 13.40353,11.162678 24.53288,22.408047 l 4.16307,4.20647 -3.16059,3.179235 c -1.73833,1.74858 -3.31367,3.179236 -3.50076,3.179236 -0.71118,0 -7.04741,6.129584 -6.85488,6.631309 0.10964,0.285705 -0.0632,0.51946 -0.38409,0.51946 -0.32089,0 -0.58343,-0.241029 -0.58343,-0.535621 z"
     id="path735" /><path
     style="fill:#ffffff;stroke:none;stroke-width:4.13156;stroke-linecap:round;stroke-dasharray:none"
     d="m 427.45706,80.247514 -19.26735,-19.267348 6.81661,-6.791218 6.81662,-6.791218 19.38663,19.389659 19.38663,19.389658 -0.94686,1.007885 c -0.52077,0.554335 -1.10689,1.007881 -1.30248,1.007881 -0.59725,0 -5.30632,4.374749 -8.55248,7.945298 l -3.06997,3.376752 z"
     id="path736" /><path
     style="fill:#ffffff;stroke:none;stroke-width:4.13156;stroke-linecap:round;stroke-dasharray:none"
     d="m 482.97402,134.10601 c -2.21574,-0.79072 -3.84653,-2.16532 -10.62603,-8.95674 -3.38668,-3.39263 -6.91737,-6.75952 -7.84598,-7.48197 -0.92861,-0.72245 -1.68837,-1.54077 -1.68837,-1.8185 0,-0.27772 -1.07507,-1.56371 -2.38903,-2.85774 -1.31396,-1.29403 -3.02421,-2.98804 -3.80055,-3.76446 l -1.41152,-1.41169 3.30396,-3.15456 c 4.22973,-4.03846 9.28361,-9.397814 9.55775,-10.135463 0.36433,-0.980317 22.22775,21.276233 26.54615,27.023483 1.46824,1.95403 1.52123,2.12219 0.9916,3.14639 -0.80304,1.55291 -8.37825,9.13211 -9.5864,9.59144 -1.24415,0.47303 -1.21658,0.47465 -3.05158,-0.18019 z"
     id="path737" /></svg>
