<?xml version="1.0" encoding="UTF-8" standalone="no"?>
<!-- Created with Inkscape (http://www.inkscape.org/) -->

<svg
   width="512"
   height="512"
   viewBox="0 0 512 512"
   version="1.1"
   id="svg1"
   xml:space="preserve"
   xmlns="http://www.w3.org/2000/svg"
   xmlns:svg="http://www.w3.org/2000/svg"><defs
     id="defs1" /><g
     id="g737"
     transform="translate(2.38359,-1.5890602)"><path
       style="fill:#d0d0d0;fill-opacity:1"
       d="m 252.1262,341.83519 c -11.03036,-11.04126 -19.82357,-20.07501 -19.54046,-20.07501 0.28311,0 9.53959,9.03375 20.56995,20.07501 11.03037,11.04125 19.82358,20.07501 19.54047,20.07501 -0.28311,0 -9.53959,-9.03376 -20.56996,-20.07501 z m 122.37773,-37.31893 c -1.28055,-1.63283 -1.24414,-1.66924 0.38868,-0.38869 1.71487,1.34489 2.26022,2.19029 1.41292,2.19029 -0.21378,0 -1.0245,-0.81072 -1.8016,-1.8016 z m -9.16382,-9.26539 -6.66193,-6.94905 6.94904,6.66193 c 6.45457,6.18789 7.41966,7.23616 6.66193,7.23616 -0.15791,0 -3.28498,-3.12707 -6.94904,-6.94904 z m -33.49337,-3.60321 -3.0237,-3.34584 3.34583,3.0237 c 3.11879,2.81852 3.81904,3.66797 3.0237,3.66797 -0.17717,0 -1.6828,-1.50562 -3.34583,-3.34583 z m -23.09871,-38.34842 c -4.2183,-4.24663 -7.43799,-7.72116 -7.15489,-7.72116 0.28311,0 3.96608,3.47453 8.18438,7.72116 4.21829,4.24664 7.43799,7.72116 7.15488,7.72116 -0.28311,0 -3.96608,-3.47452 -8.18437,-7.72116 z M 270.63859,242.74699 259.84736,231.68 l 11.06699,10.79123 c 6.08685,5.93517 11.067,10.91532 11.067,11.06699 0,0.7435 -1.31964,-0.51197 -11.34276,-10.79123 z m 88.97127,7.72116 -1.96117,-2.31635 2.31635,1.96116 c 1.27399,1.07864 2.31635,2.121 2.31635,2.31635 0,0.82385 -0.82853,0.21564 -2.67153,-1.96116 z m -75.07895,-21.61924 -8.21175,-8.49327 8.49328,8.21174 c 7.88829,7.62683 8.96261,8.7748 8.21175,8.7748 -0.15484,0 -3.97681,-3.82197 -8.49328,-8.49327 z m 76.16755,-32.94361 -5.10874,-5.40481 5.40481,5.10874 c 2.97265,2.80981 5.40481,5.24197 5.40481,5.40481 0,0.7682 -0.95375,-0.0865 -5.70088,-5.10874 z m -77.2707,-2.05897 -1.96116,-2.31635 2.31635,1.96116 c 1.27399,1.07864 2.31635,2.121 2.31635,2.31635 0,0.82385 -0.82853,0.21563 -2.67154,-1.96116 z m 181.8024,-76.43947 c 1.32984,-1.41554 2.64952,-2.57372 2.93263,-2.57372 0.28311,0 -0.5733,1.15818 -1.90314,2.57372 -1.32984,1.41555 -2.64952,2.57372 -2.93263,2.57372 -0.28311,0 0.57331,-1.15817 1.90314,-2.57372 z m -9.82857,-21.361867 -4.06951,-4.375323 4.37532,4.069511 c 2.40643,2.238231 4.37532,4.207127 4.37532,4.375319 0,0.77889 -0.89653,-5e-4 -4.68113,-4.069507 z m -38.61277,-38.60579 -3.54779,-3.860578 3.86058,3.547786 c 2.12332,1.951282 3.86058,3.688543 3.86058,3.860579 0,0.786138 -0.87117,0.04556 -4.17337,-3.547787 z m -20.53434,-9.008017 c 1.32984,-1.415546 2.64952,-2.573719 2.93263,-2.573719 0.28311,0 -0.5733,1.158173 -1.90314,2.573719 -1.32983,1.415546 -2.64952,2.573719 -2.93263,2.573719 -0.2831,0 0.57331,-1.158173 1.90314,-2.573719 z"
       id="path744" /><path
       style="fill:#b9b9b9;fill-opacity:1"
       d="m 83.804961,495.7436 c 1.024841,-1.13244 2.094982,-2.05898 2.378091,-2.05898 0.283109,0 -0.323762,0.92654 -1.348603,2.05898 -1.024841,1.13244 -2.094982,2.05898 -2.378091,2.05898 -0.283109,0 0.323762,-0.92654 1.348603,-2.05898 z M 17.917747,429.85639 c 1.024841,-1.13244 2.094982,-2.05898 2.378091,-2.05898 0.283109,0 -0.323762,0.92654 -1.348603,2.05898 -1.024841,1.13243 -2.094982,2.05897 -2.378091,2.05897 -0.283109,0 0.323762,-0.92654 1.348603,-2.05897 z M 164.105,349.55634 c -6.77691,-6.79461 -12.09003,-12.35385 -11.80692,-12.35385 0.28311,0 6.05949,5.55924 12.83641,12.35385 6.77692,6.79462 12.09003,12.35386 11.80692,12.35386 -0.2831,0 -6.05949,-5.55924 -12.83641,-12.35386 z m 136.92187,6.17693 c 3.36186,-3.39731 6.34411,-6.17693 6.62722,-6.17693 0.28311,0 -2.23587,2.77962 -5.59773,6.17693 -3.36186,3.39731 -6.34411,6.17693 -6.62722,6.17693 -0.28311,0 2.23587,-2.77962 5.59773,-6.17693 z m 101.91928,-42.209 c 3.36186,-3.39731 6.34411,-6.17692 6.62722,-6.17692 0.28311,0 -2.23587,2.77961 -5.59773,6.17692 -3.36186,3.39731 -6.34411,6.17693 -6.62721,6.17693 -0.28311,0 2.23586,-2.77962 5.59772,-6.17693 z m -24.27087,-4.89006 -2.49581,-2.83109 2.83109,2.4958 c 2.64609,2.3327 3.30321,3.16638 2.49581,3.16638 -0.18441,0 -1.4584,-1.27399 -2.83109,-2.83109 z m 9.83873,-29.3404 -10.27556,-10.55225 10.55225,10.27556 c 9.80097,9.54399 11.02026,10.82894 10.27556,10.82894 -0.15218,0 -4.90069,-4.74852 -10.55225,-10.55225 z m -22.67785,-22.64873 -4.06951,-4.37533 4.37532,4.06952 c 4.06901,3.7846 4.8484,4.68113 4.06951,4.68113 -0.1682,0 -2.13709,-1.9689 -4.37532,-4.37532 z m -121.9756,-40.66477 -6.66193,-6.94904 6.94904,6.66193 c 6.45457,6.18788 7.41965,7.23615 6.66193,7.23615 -0.15791,0 -3.28498,-3.12706 -6.94904,-6.94904 z m 123.9852,-12.86859 -1.96116,-2.31635 2.31634,1.96116 c 1.27399,1.07864 2.31635,2.12099 2.31635,2.31635 0,0.82385 -0.82852,0.21563 -2.67153,-1.96116 z m -145.76773,0.5836 c 0.74316,-0.29739 1.6311,-0.26082 1.97319,0.0813 0.34209,0.34209 -0.26596,0.58541 -1.35121,0.54071 -1.19929,-0.0494 -1.44324,-0.29334 -0.62198,-0.62198 z m 78.4341,-39.96151 c 1.32983,-1.41555 2.64951,-2.57372 2.93262,-2.57372 0.28311,0 -0.5733,1.15817 -1.90314,2.57372 -1.32983,1.41555 -2.64951,2.57372 -2.93262,2.57372 -0.28311,0 0.5733,-1.15817 1.90314,-2.57372 z"
       id="path743" /><path
       style="fill:#a3a3a3;fill-opacity:1"
       d="m 156.36545,357.02013 -10.79123,-11.06699 11.067,10.79122 c 10.27926,10.02312 11.53473,11.34276 10.79122,11.34276 -0.15167,0 -5.13181,-4.98014 -11.06699,-11.06699 z M 292.27622,172.16232 c 0,-0.17717 1.50563,-1.6828 3.34584,-3.34583 l 3.34583,-3.0237 -3.02369,3.34583 c -2.81852,3.11879 -3.66798,3.81904 -3.66798,3.0237 z m -0.0184,-15.37755 c 10.02312,-10.27926 11.34276,-11.53473 11.34276,-10.79123 0,0.15167 -4.98015,5.13182 -11.06699,11.06699 l -11.067,10.79123 z m 11.34276,4.05319 c 0,-0.17718 1.50563,-1.6828 3.34583,-3.34584 l 3.34584,-3.0237 -3.0237,3.34584 c -2.81851,3.11878 -3.66797,3.81904 -3.66797,3.0237 z"
       id="path742" /><path
       style="fill:#8c8c8c;fill-opacity:1"
       d="m 8.1376137,424.38681 c 0,-0.17717 1.5056258,-1.6828 3.3458353,-3.34583 l 3.345835,-3.0237 -3.023699,3.34583 c -2.818512,3.11879 -3.6679713,3.81904 -3.6679713,3.0237 z m 355.1564663,-115.7526 -11.82231,-12.09648 12.09648,11.82231 c 6.65306,6.50228 12.09648,11.94569 12.09648,12.09648 0,0.74141 -1.38939,-0.5864 -12.37065,-11.82231 z m 32.94496,-37.06156 -12.85315,-13.12597 13.12597,12.85315 c 12.19267,11.93925 13.59277,13.39879 12.85314,13.39879 -0.15005,0 -6.05673,-5.90669 -13.12596,-13.12597 z m -135.38151,-23.16347 -10.27556,-10.55225 10.55225,10.27556 c 9.80098,9.54399 11.02026,10.82893 10.27556,10.82893 -0.15217,0 -4.90069,-4.74851 -10.55225,-10.55224 z m 111.17984,-1.02949 -8.21175,-8.49328 8.49327,8.21175 c 7.8883,7.62683 8.96261,8.7748 8.21175,8.7748 -0.15483,0 -3.97681,-3.82197 -8.49327,-8.49327 z m -132.84453,-20.58976 -3.0237,-3.34583 3.34584,3.0237 c 3.11879,2.81851 3.81904,3.66797 3.0237,3.66797 -0.17718,0 -1.6828,-1.50563 -3.34584,-3.34584 z m 126.09909,-41.69425 -2.4958,-2.83109 2.83109,2.4958 c 1.5571,1.37269 2.8311,2.64668 2.8311,2.83109 0,0.8074 -0.83368,0.15028 -3.16639,-2.4958 z"
       id="path741" /><path
       style="fill:#767676;fill-opacity:1"
       d="m 90.496631,504.6203 c 0,-0.21378 0.810722,-1.0245 1.801604,-1.8016 1.632825,-1.28055 1.669238,-1.24414 0.388688,0.38869 -1.344891,1.71486 -2.190292,2.26021 -2.190292,1.41291 z M 395.225,305.80312 c 3.07551,-3.1142 5.82348,-5.66219 6.10659,-5.66219 0.28311,0 -2.00159,2.54799 -5.07711,5.66219 -3.07551,3.1142 -5.82348,5.66218 -6.10659,5.66218 -0.28311,0 2.00159,-2.54798 5.07711,-5.66218 z m -70.54752,-5.91956 -7.17881,-7.46378 7.46379,7.1788 c 6.93237,6.66767 7.93394,7.74877 7.1788,7.74877 -0.15674,0 -3.51544,-3.35871 -7.46378,-7.46379 z m -51.54459,-39.12053 -1.96116,-2.31635 2.31634,1.96116 c 2.1768,1.84301 2.78502,2.67154 1.96116,2.67154 -0.19535,0 -1.2377,-1.04236 -2.31634,-2.31635 z m -40.11697,-40.15002 -3.0237,-3.34584 3.34583,3.0237 c 3.11879,2.81851 3.81904,3.66797 3.0237,3.66797 -0.17717,0 -1.6828,-1.50562 -3.34583,-3.34583 z m 141.58958,-26.25194 -6.66193,-6.94904 6.94904,6.66193 c 6.45457,6.18788 7.41965,7.23615 6.66193,7.23615 -0.15791,0 -3.28498,-3.12707 -6.94904,-6.94904 z m -45.88028,-46.84169 -1.96116,-2.31635 2.31635,1.96116 c 2.1768,1.84301 2.78501,2.67154 1.96116,2.67154 -0.19535,0 -1.23771,-1.04236 -2.31635,-2.31635 z M 438.96337,64.130874 425.59488,50.490161 439.2356,63.858648 c 7.50239,7.352667 13.64071,13.490988 13.64071,13.640712 0,0.738834 -1.49473,-0.697405 -13.91294,-13.368486 z"
       id="path740" /><path
       style="fill:#606060;fill-opacity:1"
       d="M 65.788926,466.4032 C 54.758561,455.36194 45.965351,446.32819 46.24846,446.32819 c 0.28311,0 9.539589,9.03375 20.569954,20.07501 11.030365,11.04126 19.823574,20.07501 19.540465,20.07501 -0.283109,0 -9.539588,-9.03375 -20.569953,-20.07501 z M 293.30571,348.01211 c 3.07552,-3.1142 5.82348,-5.66218 6.10659,-5.66218 0.28311,0 -2.00158,2.54798 -5.0771,5.66218 -3.07552,3.1142 -5.82348,5.66218 -6.10659,5.66218 -0.28311,0 2.00159,-2.54798 5.0771,-5.66218 z M 165.64923,307.86209 c 12.73048,-12.73991 23.37795,-23.16347 23.66106,-23.16347 0.28311,0 -9.90109,10.42356 -22.63157,23.16347 -12.73047,12.73991 -23.37795,23.16348 -23.66105,23.16348 -0.28311,0 9.90109,-10.42357 22.63156,-23.16348 z m 34.98714,4.89007 -12.85315,-13.12597 13.12597,12.85315 c 12.19267,11.93925 13.59277,13.39879 12.85315,13.39879 -0.15005,0 -6.05674,-5.90669 -13.12597,-13.12597 z m 163.18925,-30.11252 c 2.78852,-2.83109 5.30167,-5.14744 5.58478,-5.14744 0.28311,0 -1.76677,2.31635 -4.55529,5.14744 -2.78852,2.83109 -5.30167,5.14744 -5.58478,5.14744 -0.28311,0 1.76677,-2.31635 4.55529,-5.14744 z M 201.68131,271.83002 c 1.9208,-1.98176 3.724,-3.60321 4.0071,-3.60321 0.28311,0 -1.05682,1.62145 -2.97762,3.60321 -1.9208,1.98177 -3.724,3.60321 -4.00711,3.60321 -0.28311,0 1.05682,-1.62144 2.97763,-3.60321 z m 19.00094,-18.76446 6.11017,-6.41062 -2.48902,-2.85477 -2.48901,-2.85478 3.04258,2.83764 3.04258,2.83764 -6.66374,6.42775 -6.66374,6.42775 z m 102.34729,-1.05318 c -1.28055,-1.63282 -1.24414,-1.66924 0.38869,-0.38869 1.71487,1.3449 2.26022,2.1903 1.41291,2.1903 -0.21378,0 -1.0245,-0.81073 -1.8016,-1.80161 z m -84.28668,-17.24392 c 1.9208,-1.98176 3.724,-3.6032 4.00711,-3.6032 0.28311,0 -1.05682,1.62144 -2.97762,3.6032 -1.9208,1.98177 -3.724,3.60321 -4.00711,3.60321 -0.28311,0 1.05682,-1.62144 2.97762,-3.60321 z m 52.37256,-48.64329 c -1.28055,-1.63283 -1.24414,-1.66924 0.38869,-0.38869 0.99088,0.7771 1.8016,1.58782 1.8016,1.8016 0,0.84731 -0.8454,0.30196 -2.19029,-1.41291 z m 100.99137,-65.88722 -6.66193,-6.94904 6.94905,6.66193 c 3.82197,3.66406 6.94904,6.79113 6.94904,6.94904 0,0.75773 -1.04827,-0.20736 -7.23616,-6.66193 z M 457.509,109.68571 c 1.02484,-1.13244 2.09499,-2.05898 2.37809,-2.05898 0.28311,0 -0.32376,0.92654 -1.3486,2.05898 -1.02484,1.13243 -2.09498,2.05897 -2.37809,2.05897 -0.28311,0 0.32376,-0.92654 1.3486,-2.05897 z m -0.0387,-27.024057 -5.10874,-5.404811 5.40482,5.108738 c 2.97264,2.809806 5.40481,5.241971 5.40481,5.404811 0,0.768195 -0.95376,-0.08649 -5.70089,-5.108738 z M 403.97564,56.152344 c 1.02484,-1.132437 2.09498,-2.058976 2.37809,-2.058976 0.28311,0 -0.32376,0.926539 -1.3486,2.058976 -1.02484,1.132436 -2.09498,2.058975 -2.37809,2.058975 -0.28311,0 0.32376,-0.926539 1.3486,-2.058975 z"
       id="path739" /><path
       style="fill:#494949;fill-opacity:1"
       d="m 66.205856,503.72213 -1.961162,-2.31635 2.316348,1.96116 c 2.176795,1.84301 2.785012,2.67154 1.961161,2.67154 -0.195352,0 -1.237709,-1.04236 -2.316347,-2.31635 z M 25.112094,462.54262 8.6523576,445.81345 25.381533,462.27318 c 15.541818,15.2915 17.194813,16.99862 16.459736,16.99862 -0.148191,0 -7.67632,-7.52813 -16.729175,-16.72918 z m 18.926273,-18.01603 c -1.280549,-1.63283 -1.244136,-1.66924 0.388689,-0.38869 0.990882,0.7771 1.801603,1.58782 1.801603,1.8016 0,0.8473 -0.8454,0.30195 -2.190292,-1.41291 z m -10.705914,-10.80962 -7.178804,-7.46379 7.463786,7.1788 c 4.105082,3.94834 7.463786,7.30705 7.463786,7.46379 0,0.75513 -1.081094,-0.24644 -7.748768,-7.1788 z m 91.652017,-28.56829 c 9.61322,-9.62571 17.71021,-17.50129 17.99332,-17.50129 0.28311,0 -7.35061,7.87558 -16.96383,17.50129 -9.61322,9.62571 -17.71021,17.50129 -17.99332,17.50129 -0.28311,0 7.35061,-7.87558 16.96383,-17.50129 z m -16.4718,-16.4718 c 9.61321,-9.62571 17.71021,-17.50129 17.99332,-17.50129 0.28311,0 -7.35062,7.87558 -16.96384,17.50129 -9.613213,9.62571 -17.710208,17.50129 -17.993317,17.50129 -0.283109,0 7.350616,-7.87558 16.963837,-17.50129 z m 31.88651,-18.78815 -7.17881,-7.46379 7.46379,7.1788 c 6.93236,6.66768 7.93394,7.74877 7.1788,7.74877 -0.15674,0 -3.51544,-3.3587 -7.46378,-7.46378 z m 66.42956,-22.90611 c 13.86368,-13.87234 25.43833,-25.22244 25.72144,-25.22244 0.28311,0 -10.82827,11.3501 -24.69195,25.22244 -13.86368,13.87235 -25.43832,25.22245 -25.72143,25.22245 -0.28311,0 10.82826,-11.3501 24.69194,-25.22245 z m 53.53337,-12.35385 c -11.03037,-11.04125 -19.82358,-20.07501 -19.54047,-20.07501 0.28311,0 9.53959,9.03376 20.56995,20.07501 11.03037,11.04126 19.82358,20.07501 19.54047,20.07501 -0.28311,0 -9.53959,-9.03375 -20.56995,-20.07501 z m 2.57371,-43.75323 c 12.44715,-12.4568 22.86282,-22.64873 23.14593,-22.64873 0.28311,0 -9.66929,10.19193 -22.11644,22.64873 -12.44715,12.45681 -22.86281,22.64873 -23.14592,22.64873 -0.28311,0 9.66929,-10.19192 22.11643,-22.64873 z m 81.84428,10.80963 c 3.07551,-3.11421 5.82348,-5.66219 6.10659,-5.66219 0.28311,0 -2.00159,2.54798 -5.0771,5.66219 -3.07552,3.1142 -5.82349,5.66218 -6.1066,5.66218 -0.2831,0 2.00159,-2.54798 5.07711,-5.66218 z m -154.4529,-32.1715 -6.66193,-6.94904 7.17942,6.69167 c 3.94868,3.68042 7.38459,6.80749 7.63536,6.94904 0.25078,0.14156 0.0179,0.25738 -0.51748,0.25738 -0.53539,0 -3.97131,-3.12707 -7.63537,-6.94905 z m 18.97745,-12.86859 -1.96116,-2.31635 2.31634,1.96116 c 2.1768,1.84301 2.78502,2.67153 1.96117,2.67153 -0.19536,0 -1.23771,-1.04235 -2.31635,-2.31634 z m -38.4267,-0.34317 c 0.0494,-1.19929 0.29334,-1.44323 0.62198,-0.62198 0.29739,0.74316 0.26082,1.6311 -0.0813,1.97319 -0.34209,0.34209 -0.58541,-0.26595 -0.54071,-1.35121 z m 144.01726,-12.52543 -6.66193,-6.94904 6.94905,6.66193 c 6.45456,6.18788 7.41965,7.23615 6.66193,7.23615 -0.15792,0 -3.28498,-3.12707 -6.94905,-6.94904 z M 206.82874,239.9159 c 4.78786,-4.81285 8.93683,-8.75064 9.21994,-8.75064 0.2831,0 -3.4026,3.93779 -8.19045,8.75064 -4.78785,4.81286 -8.93682,8.75065 -9.21993,8.75065 -0.28311,0 3.40259,-3.93779 8.19044,-8.75065 z m -14.41282,-14.41283 c 8.76268,-8.77638 16.16378,-15.95706 16.44689,-15.95706 0.2831,0 -6.65473,7.18068 -15.41741,15.95706 -8.76268,8.77639 -16.16378,15.95706 -16.44689,15.95706 -0.28311,0 6.65473,-7.18067 15.41741,-15.95706 z m 141.55456,-29.3404 c 18.11235,-18.11898 33.16317,-32.9436 33.44628,-32.9436 0.28311,0 -14.30445,14.82462 -32.4168,32.9436 -18.11234,18.11899 -33.16317,32.94361 -33.44628,32.94361 -0.28311,0 14.30445,-14.82462 32.4168,-32.94361 z m 38.60579,22.13399 c 4.78785,-4.81286 8.93682,-8.75065 9.21993,-8.75065 0.28311,0 -3.40259,3.93779 -8.19045,8.75065 -4.78785,4.81285 -8.93682,8.75065 -9.21993,8.75065 -0.28311,0 3.40259,-3.9378 8.19045,-8.75065 z m -55.0776,-38.60579 c 18.11235,-18.11898 33.16318,-32.94361 33.44629,-32.94361 0.28311,0 -14.30445,14.82463 -32.4168,32.94361 -18.11235,18.11898 -33.16318,32.94361 -33.44628,32.94361 -0.28311,0 14.30445,-14.82463 32.41679,-32.94361 z m 41.69426,-25.22245 c -4.2183,-4.24664 -7.438,-7.72116 -7.15489,-7.72116 0.28311,0 3.96608,3.47452 8.18437,7.72116 4.2183,4.24664 7.438,7.72116 7.15489,7.72116 -0.28311,0 -3.96608,-3.47452 -8.18437,-7.72116 z M 343.83189,131.7339 c 0.0494,-1.19929 0.29334,-1.44324 0.62198,-0.62198 0.29739,0.74316 0.26081,1.63109 -0.0813,1.97318 -0.34209,0.34209 -0.58541,-0.26595 -0.5407,-1.3512 z m 65.78754,-43.410065 -10.79123,-11.066993 11.067,10.791227 c 10.27925,10.023121 11.53473,11.342759 10.79122,11.342759 -0.15167,0 -5.13181,-4.980147 -11.06699,-11.066993 z"
       id="path738" /><path
       style="fill:#333333;fill-opacity:1"
       d="M 74.189679,508.98068 C 71.64816,508.24887 62.313633,499.47891 38.402327,475.35781 3.3716102,440.01973 2.7955413,439.25514 5.0087575,431.03588 6.3520859,426.04714 15.558222,417.04182 20.402619,415.97782 c 1.939294,-0.42594 5.284495,-0.21187 7.831114,0.50114 4.272404,1.1962 5.381738,0.94095 28.464215,-6.5492 l 24.01855,-7.79391 21.783222,-21.91443 c 18.36793,-18.47856 23.06507,-23.85134 29.95902,-34.26828 7.16829,-10.83149 11.23666,-15.39232 33.01454,-37.01072 l 24.83875,-24.65686 -7.7042,-7.91679 c -4.2373,-4.35424 -8.39662,-9.57402 -9.24293,-11.59952 -1.78654,-4.2758 -2.01493,-12.63102 -0.45944,-16.8078 1.57293,-4.22361 36.64172,-39.24556 41.64444,-41.58882 2.26487,-1.06086 5.7394,-1.93643 7.72116,-1.9457 7.57936,-0.0355 11.27502,1.91417 20.5177,10.82413 l 8.9525,8.63024 11.25947,-7.57637 c 6.1927,-4.167 14.01713,-10.39618 17.38763,-13.84261 l 6.12817,-6.26623 -2.72773,-2.8478 c -5.86465,-6.12282 -7.46075,-14.9026 -3.94071,-21.67696 2.78279,-5.35552 24.45511,-26.55342 29.12424,-28.4867 2.10514,-0.87164 5.11639,-1.57463 6.69167,-1.5622 3.89951,0.0308 10.56125,3.23888 13.62008,6.55903 l 2.52001,2.7353 6.48801,-6.43033 c 6.37268,-6.31604 6.488,-6.52934 6.488,-12.00074 0,-6.10425 2.61164,-11.60603 6.52631,-13.74854 1.22338,-0.66957 7.04291,-2.65092 12.93227,-4.40301 l 10.70794,-3.18561 3.406,-10.76892 c 1.8733,-5.922902 5.68902,-15.313958 8.47938,-20.869011 4.63514,-9.227632 4.97995,-10.404549 3.99169,-13.624598 -3.23154,-10.529331 10.64673,-25.533408 21.86452,-23.638174 3.43469,0.580286 5.54272,-0.123634 16.39619,-5.475064 14.07266,-6.93869 30.37594,-12.472809 47.30986,-16.059247 10.09092,-2.13716 12.02041,-2.896675 15.61979,-6.1485 4.69917,-4.245412 6.3578,-4.541541 9.24818,-1.651156 2.89082,2.890815 2.59426,4.549011 -1.65466,9.252054 -3.2834,3.634341 -4.00727,5.501729 -6.24834,16.119026 -3.57222,16.92373 -8.63376,31.777021 -15.86429,46.554373 -5.41992,11.076916 -6.14251,13.24023 -5.56475,16.659957 1.89335,11.20662 -13.11735,25.08265 -23.6401,21.85313 -3.22005,-0.98826 -4.39697,-0.64345 -13.6246,3.99169 -5.55505,2.79036 -14.94611,6.60608 -20.86901,8.47938 l -10.76892,3.406 -3.18561,10.70794 c -1.75209,5.88937 -3.73344,11.70889 -4.40301,12.93227 -2.14251,3.91467 -7.64429,6.52631 -13.74854,6.52631 -5.48794,0 -5.66835,0.0988 -12.18647,6.6754 l -6.61607,6.6754 10.50639,10.67665 c 5.77851,5.87216 10.50638,11.24264 10.50638,11.93441 0,0.69176 -4.7936,6.23067 -10.65244,12.30868 -10.74519,11.14714 -12.43681,14.09784 -10.74338,18.73977 0.49763,1.36406 11.96552,13.59858 25.4842,27.18782 26.50963,26.64798 26.95935,27.29329 25.27565,36.2682 -1.04007,5.54402 -17.92169,22.42565 -23.46571,23.46571 -8.29777,1.55667 -10.53509,0.29376 -25.21099,-14.23101 l -13.65049,-13.50992 -6.45222,6.39487 c -3.57926,3.54744 -7.3668,6.39487 -8.50622,6.39487 -2.98613,0 -18.9951,-16.36948 -18.9951,-19.42285 0,-1.31631 1.00023,-3.79799 2.22273,-5.51484 2.65262,-3.72526 3.61259,-11.55288 2.01172,-16.40358 -0.69219,-2.09735 -4.81508,-7.13647 -10.33088,-12.62672 l -9.179,-9.13647 -7.13095,10.7051 c -5.79332,8.69703 -11.50578,15.04445 -30.45333,33.8383 -12.82731,12.72325 -23.32238,23.62534 -23.32238,24.22685 0,0.60152 9.17597,10.22798 20.39105,21.39215 15.00278,14.93467 21.03591,20.29849 22.83138,20.29849 2.97809,0 17.51734,-14.10042 17.51734,-16.98862 0,-1.08683 -6.84941,-8.82775 -15.87505,-17.94132 -8.73128,-8.81633 -15.96684,-16.72461 -16.07904,-17.57393 -0.72454,-5.48506 2.56725,-8.04357 7.24639,-5.63218 1.41554,0.7295 9.36266,8.21954 17.66026,16.64454 12.60822,12.8018 15.28793,16.06606 16.31246,19.87089 2.00061,7.42969 0.17335,11.4675 -9.62239,21.26324 -9.85677,9.85677 -14.24415,11.83227 -21.51924,9.68946 -3.61737,-1.06546 -8.08118,-4.97227 -25.7675,-22.55215 l -21.39217,-21.26343 -26.47901,26.53252 c -23.0109,23.05742 -28.02963,27.55505 -38.31811,34.33952 -9.84355,6.49108 -15.53293,11.47569 -33.75354,29.57239 l -21.91443,21.76539 -7.7939,24.01855 c -7.490163,23.08248 -7.745404,24.19181 -6.549205,28.46422 0.71301,2.54662 0.92708,5.89182 0.50114,7.83111 -1.024893,4.66631 -10.044544,14.01964 -14.79086,15.33804 -4.30245,1.19511 -4.628958,1.19048 -9.217736,-0.13083 z m 10.251142,-13.11596 c 2.198259,-2.19826 3.996835,-4.85359 3.996835,-5.90073 0,-2.41468 -61.659836,-64.22555 -64.06862,-64.22555 -2.26262,0 -8.728823,5.68089 -9.603681,8.43732 -0.564584,1.77885 4.604034,7.41686 31.086525,33.90969 17.470035,17.47686 32.400092,31.7761 33.177904,31.7761 0.777811,0 3.212778,-1.79857 5.411037,-3.99683 z m 11.466185,-46.09139 5.635434,-17.65937 -9.898228,-9.75584 -9.898226,-9.75585 -20.497674,6.65183 -20.497674,6.65183 23.586137,23.61711 23.586137,23.61712 1.174331,-2.85374 c 0.645882,-1.56955 3.710275,-10.80045 6.809763,-20.51309 z m 30.108734,-44.62643 17.48035,-17.50307 -8.48573,-8.48573 -8.48573,-8.48573 -17.74266,17.74266 -17.742653,17.74266 8.197779,8.24614 c 4.508774,4.53538 8.445394,8.24614 8.748034,8.24614 0.30264,0 8.41641,-7.87638 18.03061,-17.50307 z m 35.12269,-30.9651 7.84949,-5.29678 -11.63581,-11.66891 c -6.39969,-6.4179 -11.94714,-11.47649 -12.32767,-11.24132 -0.38053,0.23518 -3.16801,4.19923 -6.19442,8.80901 l -5.50255,8.38141 8.6971,8.57822 c 4.7834,4.71803 9.27473,8.38854 9.98073,8.15669 0.706,-0.23185 4.81591,-2.80509 9.13313,-5.71832 z m 30.76701,-26.68871 14.38951,-14.4171 -12.60207,-12.60206 -12.60207,-12.60207 -14.65952,14.65952 -14.65952,14.65952 12.32745,12.35965 c 6.7801,6.7978 12.57253,12.35965 12.87208,12.35965 0.29955,0 7.01991,-6.4877 14.93414,-14.41711 z m 71.79937,-97.01757 -12.60702,-12.60701 -31.39565,31.38299 -31.39565,31.38299 12.59819,12.62851 12.59818,12.6285 31.40448,-31.40448 31.40448,-31.40448 z m 132.21758,55.51025 c 5.05991,-5.05992 7.53851,-8.32879 7.53851,-9.94211 0,-1.68659 -3.59211,-6.04049 -12.04172,-14.59548 -6.62294,-6.70553 -12.53928,-12.19188 -13.14743,-12.19188 -1.4141,0 -19.07882,17.70345 -19.07882,19.12066 0,0.58514 5.48634,6.48266 12.19188,13.1056 8.55498,8.44961 12.90889,12.04171 14.59548,12.04171 1.61331,0 4.88219,-2.47859 9.9421,-7.5385 z m -33.3867,-53.51678 c -9.29202,-9.51978 -10.54918,-11.82727 -10.54918,-19.3629 0,-6.82352 1.91214,-10.20102 11.17296,-19.73525 l 7.78446,-8.01428 -7.68545,-7.68545 -7.68546,-7.68545 -23.63453,23.65129 -23.63453,23.6513 10.36182,10.57922 c 12.34051,12.59942 14.30813,16.57167 13.53829,27.33121 -0.27463,3.83825 -1.23046,8.35665 -2.12408,10.04089 -1.59824,3.01227 -1.56337,3.12564 2.136,6.94545 l 3.76076,3.8832 17.48797,-17.48796 17.48797,-17.48797 z m -18.365,11.12513 c -1.56217,-2.38416 -1.56217,-2.76328 0,-5.14744 1.93896,-2.95923 5.80604,-3.40694 8.25703,-0.95595 2.03554,2.03553 2.03901,3.49961 0.0152,6.38907 -2.16916,3.0969 -6.14583,2.95957 -8.27219,-0.28568 z m -142.00492,8.78165 3.9908,-4.08695 -5.3261,-5.63156 c -3.23186,-3.41722 -5.32609,-6.5605 -5.32609,-7.99407 0,-2.91816 23.19507,-26.5864 26.0549,-26.5864 1.04176,0 4.55501,2.53806 7.80721,5.64014 l 5.9131,5.64014 3.79061,-3.88194 c 2.08484,-2.13507 3.79061,-4.33906 3.79061,-4.89776 0,-1.34064 -12.23652,-13.27027 -15.11726,-14.73813 -1.23677,-0.63018 -3.77047,-1.14579 -5.63045,-1.14579 -3.0096,0 -5.39637,2.01458 -21.68692,18.30514 l -18.30514,18.30514 v 4.85523 c 0,4.61064 0.36963,5.24436 7.33729,12.57949 4.03551,4.24835 7.64765,7.72427 8.02697,7.72427 0.37932,0 2.48554,-1.83913 4.68047,-4.08695 z m 19.08075,-19.08152 6.63714,-6.69666 -3.08739,-3.0874 -3.08739,-3.08739 -7.1827,7.27107 -7.18269,7.27106 2.8885,2.51299 c 1.58867,1.38215 3.2235,2.51299 3.63294,2.51299 0.40945,0 3.73116,-3.0135 7.38159,-6.69666 z m 66.69832,-5.91456 c 2.74821,-4.10508 5.28662,-7.9603 5.6409,-8.56715 0.35429,-0.60685 -3.3929,-5.12171 -8.32707,-10.03302 l -8.97123,-8.92966 -8.61093,5.76506 -8.61093,5.76507 11.69846,11.73174 c 6.43416,6.45246 11.80772,11.73174 11.94126,11.73174 0.13353,0 2.49133,-3.3587 5.23954,-7.46378 z m 46.79181,-50.95361 c 17.9807,-17.97411 32.69218,-33.13529 32.69218,-33.69152 0,-1.35407 -14.58748,-15.9873 -15.93733,-15.9873 -0.58371,0 -15.87639,14.82054 -33.98374,32.93452 l -32.92246,32.93452 8.19663,8.24499 c 4.50815,4.53475 8.43647,8.24499 8.72959,8.24499 0.29313,0 15.24444,-14.70609 33.22513,-32.6802 z M 321.34301,154.9367 c -5.7806,-5.23028 -7.41667,-4.52256 -21.04098,9.10175 -13.55599,13.55599 -14.2849,15.2246 -9.43078,21.58869 l 2.71298,3.5569 15.56043,-15.60267 15.56043,-15.60267 z m 64.85189,2.36281 c 0.87114,-0.99088 2.82746,-6.16749 4.34738,-11.50357 l 2.76347,-9.70196 -7.61182,-7.61182 -7.61182,-7.61182 -9.70196,2.76348 c -17.57035,5.00468 -17.66812,6.86907 -1.22479,23.35535 12.69215,12.7253 15.55395,14.27503 19.03954,10.31034 z m 23.28448,-30.73693 c 7.18672,-2.04207 26.05937,-10.74584 25.66767,-11.83754 -0.67022,-1.86797 -35.02601,-36.9196 -35.74882,-36.472876 -2.69047,1.662799 -13.43862,28.740266 -13.43862,33.855456 0,2.72017 13.10789,16.10886 15.771,16.10886 1.06048,0 4.54742,-0.74425 7.74877,-1.6539 z m 48.66548,-16.75576 c 2.19826,-2.19826 3.99684,-4.85153 3.99684,-5.89616 0,-2.4039 -49.3227,-51.876267 -51.71933,-51.876267 -2.50452,0 -8.92438,5.950473 -9.68365,8.975626 -0.5738,2.286201 2.12037,5.336248 24.45163,27.681466 14.93813,14.947465 25.87793,25.112175 27.02708,25.112175 1.06183,0 3.72917,-1.79858 5.92743,-3.99684 z m 9.48106,-27.753358 c 4.44059,-8.183856 10.72512,-25.639607 14.19577,-39.429841 1.71638,-6.819828 2.90322,-12.617154 2.63742,-12.882947 -0.72791,-0.727913 -17.42277,3.382838 -28.49434,7.01612 -11.22604,3.683976 -28.15535,11.301175 -29.32571,13.194859 -0.89291,1.444755 35.27512,38.34919 37.03882,37.792964 0.57065,-0.179966 2.34726,-2.740986 3.94804,-5.691155 z"
       id="path737" /></g><path
     style="fill:#ffffff;stroke:#333333;stroke-width:10.4;stroke-linecap:round;stroke-dasharray:none"
     d="m 278.3834,301.52408 c -4.73408,-5.19755 -9.46815,-10.3951 -14.20223,-15.59265"
     id="path745" /><path
     style="fill:#ffffff;stroke:none;stroke-width:5.8429;stroke-linecap:round;stroke-dasharray:none"
     d="M 69.001834,486.3254 C 54.213501,472.19456 24.293158,441.99239 20.340036,437.20526 c -3.193677,-3.86747 -3.410147,-4.52302 -1.940515,-5.87658 0.54075,-0.49804 2.278983,-2.18559 3.862742,-3.75011 1.659379,-1.63922 3.390224,-2.84458 4.084697,-2.84458 1.444315,0 8.163816,6.47843 40.64977,39.1914 12.900733,12.99089 23.455878,24.03944 23.455878,24.55233 0,1.42705 -7.416951,9.2346 -8.809882,9.27384 -0.364939,0.0103 -6.053341,-5.13149 -12.640892,-11.42616 z"
     id="path747" /><path
     style="fill:#ffffff;stroke:none;stroke-width:5.8429;stroke-linecap:round;stroke-dasharray:none"
     d="m 66.978506,447.61241 -23.193192,-23.2008 20.103196,-6.5237 20.103198,-6.5237 9.759215,9.70427 9.759217,9.70427 -5.655485,17.64167 c -3.110516,9.70292 -6.111665,18.71203 -6.669219,20.02024 l -1.013737,2.37856 z"
     id="path748" /><path
     style="fill:#ffffff;stroke:none;stroke-width:5.8429;stroke-linecap:round;stroke-dasharray:none"
     d="m 102.11956,412.54924 -7.690208,-7.69021 17.421768,-17.41621 17.42177,-17.4162 7.8401,7.82509 7.84009,7.82509 -17.27458,17.28132 c -9.50101,9.50473 -17.40826,17.28133 -17.57165,17.28133 -0.16339,0 -3.75767,-3.4606 -7.98729,-7.69021 z"
     id="path749" /><path
     style="fill:#ffffff;stroke:none;stroke-width:5.8429;stroke-linecap:round;stroke-dasharray:none"
     d="m 145.16795,369.58463 -8.66001,-8.61692 5.34994,-8.0059 c 2.94247,-4.40325 5.57178,-8.0059 5.8429,-8.0059 0.27112,0 4.59549,4.2347 9.60971,9.41044 5.01421,5.17574 10.09125,10.19786 11.28229,11.16026 l 2.16554,1.74982 -7.14608,4.75837 c -3.93035,2.6171 -7.73968,5.07525 -8.46518,5.46256 -1.25267,0.66873 -1.75528,0.27019 -9.97911,-7.91273 z"
     id="path750" /><path
     style="fill:#ffffff;stroke:none;stroke-width:5.8429;stroke-linecap:round;stroke-dasharray:none"
     d="m 166.99351,347.26364 -11.94535,-12.11797 14.18976,-14.19795 14.18976,-14.19795 12.36284,12.36667 12.36284,12.36667 -14.06829,14.04003 c -7.73756,7.72201 -14.31083,13.99917 -14.60725,13.94925 -0.29643,-0.0499 -5.91437,-5.54386 -12.48431,-12.20875 z"
     id="path751" /><path
     style="fill:#ffffff;stroke:none;stroke-width:5.8429;stroke-linecap:round;stroke-dasharray:none"
     d="m 203.74095,310.86877 -12.27786,-12.14233 30.81783,-30.82529 30.81784,-30.82528 12.34634,12.37723 12.34635,12.37724 -30.60348,30.60735 c -16.83191,16.83404 -30.73076,30.5997 -30.88632,30.59038 -0.15556,-0.009 -5.80788,-5.48101 -12.5607,-12.1593 z"
     id="path752" /><path
     style="fill:#ffffff;stroke:none;stroke-width:5.8429;stroke-linecap:round;stroke-dasharray:none"
     d="m 193.48686,267.44098 c -3.67541,-3.39026 -7.12499,-6.98897 -7.66574,-7.99713 -0.67296,-1.25465 -0.98318,-3.09655 -0.98318,-5.83745 v -4.00442 l 16.60351,-16.40156 c 9.13193,-9.02085 17.77723,-17.14591 19.21178,-18.05567 5.28819,-3.35367 8.28491,-2.16468 17.38914,6.89935 l 6.85449,6.82423 -3.76449,4.00635 -3.7645,4.00635 -3.82155,-3.56653 c -4.88381,-4.55792 -8.12826,-6.90207 -9.55288,-6.90207 -0.61972,0 -2.03549,0.69437 -3.14615,1.54304 -1.11067,0.84868 -2.23737,1.47127 -2.50379,1.38354 -0.68904,-0.2269 -17.88695,17.22448 -17.53519,17.79363 0.16002,0.25893 -0.45341,1.45441 -1.36318,2.65663 -0.90977,1.20222 -1.66116,2.70389 -1.66976,3.33706 -0.0204,1.50208 2.27102,4.91349 6.38504,9.50593 l 3.31068,3.69567 -3.31068,3.57274 c -1.82087,1.96501 -3.46375,3.60237 -3.65083,3.63858 -0.18709,0.0362 -3.34731,-2.70801 -7.02272,-6.09827 z"
     id="path753" /><path
     style="fill:#ffffff;stroke:none;stroke-width:5.8429;stroke-linecap:round;stroke-dasharray:none"
     d="m 283.94256,352.31662 c -1.20511,-0.89561 -10.78483,-10.24917 -21.28826,-20.7857 l -19.09714,-19.15732 9.54005,-9.55245 c 5.24703,-5.25384 9.69248,-9.55245 9.87879,-9.55245 0.18631,0 3.98136,3.97553 8.43346,8.8345 4.45209,4.85896 12.20401,13.08782 17.22648,18.28635 10.4077,10.77253 14.74548,15.80147 14.74548,17.09495 0,1.62433 -15.19131,16.46049 -16.85452,16.46049 -0.21628,0 -1.37923,-0.73277 -2.58434,-1.62837 z"
     id="path754" /><path
     style="fill:#ffffff;stroke:none;stroke-width:5.8429;stroke-linecap:round;stroke-dasharray:none"
     d="m 273.73471,241.07734 c -6.26321,-6.30278 -11.31957,-11.51277 -11.23635,-11.57776 0.80939,-0.63215 15.62116,-10.39078 15.77125,-10.39078 0.37199,0 16.36256,16.29912 16.85652,17.18178 0.35784,0.63943 -0.59843,2.52321 -3.53675,6.9671 -2.21496,3.34989 -4.57616,6.80813 -5.24711,7.68499 l -1.21992,1.59427 z"
     id="path755" /><path
     style="fill:#ffffff;stroke:none;stroke-width:5.8429;stroke-linecap:round;stroke-dasharray:none"
     d="m 298.87095,222.30069 c -2.63526,-2.52804 -6.14807,-6.05002 -7.80625,-7.82663 l -3.01488,-3.23021 32.87439,-32.87731 32.8744,-32.87731 7.65773,7.70657 c 4.21174,4.23862 7.65772,7.84692 7.65772,8.01845 0,0.17153 -14.72664,15.02034 -32.72587,32.99737 l -32.72586,32.6855 z"
     id="path756" /><path
     style="fill:#ffffff;stroke:none;stroke-width:5.8429;stroke-linecap:round;stroke-dasharray:none"
     d="m 294.67325,184.60492 c -3.89995,-3.96873 -4.54913,-6.43482 -2.55489,-9.70544 1.70561,-2.79728 22.14057,-22.92382 24.09855,-23.73484 2.43202,-1.00737 3.8564,-0.49731 7.28983,2.61045 l 2.97308,2.69107 -15.06056,14.92697 -15.06056,14.92697 z"
     id="path757" /><path
     style="fill:#ffffff;stroke:none;stroke-width:5.8429;stroke-linecap:round;stroke-dasharray:none"
     d="m 335.18847,290.09514 -3.30654,-3.53319 1.34018,-4.0907 c 1.13385,-3.46093 1.34018,-5.21513 1.34018,-11.39433 0,-8.19774 -0.52478,-9.97165 -4.47158,-15.11527 -1.1628,-1.5154 -2.16611,-3.10909 -2.22958,-3.54151 -0.0635,-0.43243 -3.76261,-4.43997 -8.22031,-8.90565 l -8.10492,-8.1194 23.08957,-23.08958 23.08957,-23.08957 7.32172,7.48673 7.32173,7.48673 -6.3782,6.65744 c -7.72232,8.06041 -10.59928,12.19731 -11.50008,16.53642 -0.90474,4.35814 -0.2916,9.72246 1.48549,12.99626 1.9209,3.53875 5.45149,8.50001 7.05579,9.91495 0.72442,0.63892 3.14139,3.05838 5.37106,5.37657 l 4.05393,4.2149 -16.97574,16.8712 -16.97573,16.87119 z m 18.63472,-26.35595 c 1.35205,-0.94702 2.93089,-3.6142 2.93089,-4.95125 0,-1.41144 -2.7534,-4.18313 -4.54684,-4.57703 -2.35735,-0.51777 -4.76434,0.61462 -6.18192,2.90831 -1.03799,1.6795 -1.09988,2.13416 -0.49074,3.60475 1.4495,3.4994 5.49582,4.97136 8.28861,3.01522 z"
     id="path758" /><path
     style="fill:#ffffff;stroke:none;stroke-width:5.8429;stroke-linecap:round;stroke-dasharray:none"
     d="m 387.20755,311.18929 c -1.37886,-0.52046 -5.40669,-4.31511 -17.61735,-16.59745 l -7.67021,-7.71524 8.51294,-8.93404 c 4.68211,-4.91372 8.93688,-9.1629 9.45503,-9.44262 0.76137,-0.41102 3.13161,1.70786 12.35598,11.04563 6.27764,6.35481 11.87286,12.27909 12.43382,13.16507 0.92424,1.45974 0.94146,1.75912 0.18352,3.19128 -0.95772,1.80966 -13.54508,14.37775 -15.24088,15.21754 -0.67167,0.33262 -1.6422,0.36071 -2.41285,0.0698 z"
     id="path759" /><path
     style="fill:#ffffff;stroke:none;stroke-width:5.8429;stroke-linecap:round;stroke-dasharray:none"
     d="m 381.149,155.48806 c -3.50603,-2.30885 -19.11909,-17.94674 -21.48609,-21.52026 -2.23494,-3.37415 -2.30383,-5.38386 -0.2402,-7.00732 2.1461,-1.68833 4.27409,-2.50694 13.28376,-5.1101 l 7.8383,-2.26471 7.4419,7.48481 7.4419,7.4848 -2.23504,7.57863 c -3.39715,11.5191 -5.34115,15.17497 -8.06929,15.17497 -0.66566,0 -2.45452,-0.81937 -3.97524,-1.82082 z"
     id="path760" /><path
     style="fill:#ffffff;stroke:none;stroke-width:5.8429;stroke-linecap:round;stroke-dasharray:none"
     d="m 396.08497,119.2141 c -8.23817,-8.11138 -8.08375,-7.74923 -6.12928,-14.37458 2.39819,-8.129491 10.2124,-26.643177 11.61008,-27.506992 0.44775,-0.276724 24.50639,23.587182 31.87885,31.620812 2.06506,2.25026 3.54135,4.29692 3.28064,4.54813 -0.89969,0.86692 -11.83271,6.11105 -17.52508,8.40608 -5.22835,2.10796 -13.23521,4.50137 -15.05873,4.50137 -0.41206,0 -4.03747,-3.23767 -8.05648,-7.19482 z"
     id="path761" /><path
     style="fill:#ffffff;stroke:none;stroke-width:5.8429;stroke-linecap:round;stroke-dasharray:none"
     d="m 447.99554,106.2861 c -7.89901,-7.111769 -37.68837,-36.931349 -41.60373,-41.645953 -1.65379,-1.991369 -3.00689,-4.076262 -3.00689,-4.633094 0,-1.099469 6.2549,-7.777324 8.25213,-8.810138 1.12751,-0.583065 2.24499,0.312718 13.48361,10.808659 16.35163,15.271052 38.94055,38.863236 38.94055,40.670046 0,1.14523 -7.94381,9.12605 -9.08373,9.12605 -0.47069,0 -3.61257,-2.48201 -6.98194,-5.51557 z"
     id="path762" /><path
     style="fill:#ffffff;stroke:none;stroke-width:5.8429;stroke-linecap:round;stroke-dasharray:none"
     d="m 448.80093,68.870152 c -9.46044,-9.413678 -17.7412,-17.874708 -18.40169,-18.802287 l -1.2009,-1.686508 2.40282,-1.406214 c 10.6926,-6.25769 35.75524,-15.099621 51.07344,-18.018375 l 3.93857,-0.75046 -0.37729,2.330006 c -0.77234,4.769819 -4.77123,19.448243 -7.44583,27.330883 -4.25911,12.552535 -8.86278,23.02041 -11.8043,26.840715 l -0.98403,1.278017 z"
     id="path763" /></svg>
