<?xml version="1.0" encoding="UTF-8" standalone="no"?>
<!-- Created with Inkscape (http://www.inkscape.org/) -->

<svg
   version="1.1"
   id="svg1"
   width="503.40671"
   height="497.50238"
   viewBox="0 0 503.40671 497.50238"
   xml:space="preserve"
   xmlns="http://www.w3.org/2000/svg"
   xmlns:svg="http://www.w3.org/2000/svg"><defs
     id="defs1" /><g
     id="g1"
     transform="translate(-1.6999542,-11.858815)"><g
       id="g164"
       transform="translate(37.606655,11.34169)"><path
         style="fill:#d0d0d0;fill-opacity:1"
         d="m 182.3125,423.81689 c 0.72187,-0.28887 1.58438,-0.25335 1.91667,0.0789 0.33229,0.33229 -0.25834,0.56864 -1.3125,0.52522 -1.16495,-0.048 -1.4019,-0.28494 -0.60417,-0.60416 z M 260.90499,334.25 259,332 l 2.25,1.90499 c 2.11444,1.79022 2.70524,2.59501 1.90499,2.59501 -0.18976,0 -1.20226,-1.0125 -2.25,-2.25 z m -24,-7 L 235,325 l 2.25,1.90499 c 2.11444,1.79022 2.70524,2.59501 1.90499,2.59501 -0.18976,0 -1.20226,-1.0125 -2.25,-2.25 z m 53.46745,-17.5 c -1.24387,-1.58606 -1.2085,-1.62143 0.37756,-0.37756 0.9625,0.75485 1.75,1.54235 1.75,1.75 0,0.82304 -0.82119,0.29331 -2.12756,-1.37244 z M 207.95295,278.25 204,274 l 4.25,3.95295 c 3.95246,3.6762 4.70953,4.54705 3.95295,4.54705 -0.16338,0 -2.07588,-1.9125 -4.25,-4.25 z m -89.374,-0.33333 c 0.048,-1.16495 0.28494,-1.4019 0.60416,-0.60417 0.28887,0.72187 0.25335,1.58438 -0.0789,1.91667 -0.33229,0.33229 -0.56864,-0.25834 -0.52522,-1.3125 z M 202.5,224.5 c -0.90129,-0.58246 -1.02463,-0.97549 -0.30902,-0.98469 0.65504,-0.008 1.4691,0.43469 1.80902,0.98469 0.7673,1.24153 0.42112,1.24153 -1.5,0 z m 151.15789,-74 c 0,-1.375 0.22698,-1.9375 0.50439,-1.25 0.27741,0.6875 0.27741,1.8125 0,2.5 -0.27741,0.6875 -0.50439,0.125 -0.50439,-1.25 z M 434,110.5 c 0.99549,-1.1 2.03498,-2 2.30998,-2 0.275,0 -0.31449,0.9 -1.30998,2 -0.99549,1.1 -2.03498,2 -2.30998,2 -0.275,0 0.31449,-0.9 1.30998,-2 z M 365.57895,93.916667 c 0.048,-1.164943 0.28494,-1.4019 0.60416,-0.604167 0.28887,0.721875 0.25335,1.584375 -0.0789,1.916667 -0.33229,0.332291 -0.56864,-0.258334 -0.52522,-1.3125 z M 448.5,79.122445 c 0,-0.207656 0.7875,-0.995156 1.75,-1.75 1.58606,-1.243871 1.62143,-1.208501 0.37756,0.377555 C 449.32119,79.415748 448.5,79.945479 448.5,79.122445 Z M 421.37244,73.75 c -1.24387,-1.586056 -1.2085,-1.621426 0.37756,-0.377555 0.9625,0.754844 1.75,1.542344 1.75,1.75 0,0.823034 -0.82119,0.293303 -2.12756,-1.372445 z M 456.5,72.122445 c 0,-0.207656 0.7875,-0.995156 1.75,-1.75 1.58606,-1.243871 1.62143,-1.208501 0.37756,0.377555 -1.30637,1.665748 -2.12756,2.195479 -2.12756,1.372445 z"
         id="path171" /><path
         style="fill:#b9b9b9;fill-opacity:1"
         d="m 287.37244,306.75 c -1.24387,-1.58606 -1.2085,-1.62143 0.37756,-0.37756 1.66575,1.30637 2.19548,2.12756 1.37244,2.12756 -0.20765,0 -0.99515,-0.7875 -1.75,-1.75 z M 448.57895,101.91667 c 0.048,-1.16495 0.28494,-1.4019 0.60416,-0.60417 0.28887,0.72188 0.25335,1.58438 -0.0789,1.91667 -0.33229,0.33229 -0.56864,-0.25834 -0.52522,-1.3125 z M 455.5,41.559017 c 0,-0.517541 0.44485,-1.215913 0.98855,-1.551938 0.56686,-0.350339 0.7345,0.05106 0.39301,0.940983 -0.66479,1.732417 -1.38156,2.049387 -1.38156,0.610955 z"
         id="path170" /><path
         style="fill:#a3a3a3;fill-opacity:1"
         d="m 150.37244,349.75 c -1.24387,-1.58606 -1.2085,-1.62143 0.37756,-0.37756 0.9625,0.75485 1.75,1.54235 1.75,1.75 0,0.82304 -0.82119,0.29331 -2.12756,-1.37244 z M 295.93709,332.25 293,329 l 3.25,2.93709 c 3.02946,2.73778 3.70965,3.56291 2.93709,3.56291 -0.1721,0 -1.6346,-1.4625 -3.25,-3.25 z m 11.43535,-5.5 c -1.24387,-1.58606 -1.2085,-1.62143 0.37756,-0.37756 0.9625,0.75485 1.75,1.54235 1.75,1.75 0,0.82304 -0.82119,0.29331 -2.12756,-1.37244 z m -21,-4 c -1.24387,-1.58606 -1.2085,-1.62143 0.37756,-0.37756 0.9625,0.75485 1.75,1.54235 1.75,1.75 0,0.82304 -0.82119,0.29331 -2.12756,-1.37244 z m 14,-3 c -1.24387,-1.58606 -1.2085,-1.62143 0.37756,-0.37756 0.9625,0.75485 1.75,1.54235 1.75,1.75 0,0.82304 -0.82119,0.29331 -2.12756,-1.37244 z M 107.5,290.12244 c 0,-0.20765 0.7875,-0.99515 1.75,-1.75 1.58606,-1.24387 1.62143,-1.2085 0.37756,0.37756 -1.30637,1.66575 -2.12756,2.19548 -2.12756,1.37244 z M 361.75,137.81067 c 0.9625,-0.25152 2.5375,-0.25152 3.5,0 0.9625,0.25153 0.175,0.45733 -1.75,0.45733 -1.925,0 -2.7125,-0.2058 -1.75,-0.45733 z M 320.65789,132.5 c 0,-1.375 0.22698,-1.9375 0.50439,-1.25 0.27741,0.6875 0.27741,1.8125 0,2.5 -0.27741,0.6875 -0.50439,0.125 -0.50439,-1.25 z m 116,-29 c 0,-1.375 0.22698,-1.9375 0.50439,-1.25 0.27741,0.6875 0.27741,1.8125 0,2.5 -0.27741,0.6875 -0.50439,0.125 -0.50439,-1.25 z m -5.28545,-12.75 c -1.24387,-1.586056 -1.2085,-1.621426 0.37756,-0.377555 1.66575,1.306369 2.19548,2.127555 1.37244,2.127555 -0.20765,0 -0.99515,-0.7875 -1.75,-1.75 z"
         id="path169" /><path
         style="fill:#8c8c8c;fill-opacity:1"
         d="m 277.37244,368.75 c -1.24387,-1.58606 -1.2085,-1.62143 0.37756,-0.37756 0.9625,0.75485 1.75,1.54235 1.75,1.75 0,0.82304 -0.82119,0.29331 -2.12756,-1.37244 z M 115.3125,355.81689 c 0.72188,-0.28887 1.58438,-0.25335 1.91667,0.0789 0.33229,0.33229 -0.25834,0.56864 -1.3125,0.52522 -1.16495,-0.048 -1.4019,-0.28494 -0.60417,-0.60416 z M 247.44617,337.75 244,334 l 3.75,3.44617 c 2.0625,1.89539 3.75,3.58289 3.75,3.75 0,0.76362 -0.84622,0.0442 -4.05383,-3.44617 z m 41.92627,-12 c -1.24387,-1.58606 -1.2085,-1.62143 0.37756,-0.37756 1.66575,1.30637 2.19548,2.12756 1.37244,2.12756 -0.20765,0 -0.99515,-0.7875 -1.75,-1.75 z m -39,-2 c -1.24387,-1.58606 -1.2085,-1.62143 0.37756,-0.37756 0.9625,0.75485 1.75,1.54235 1.75,1.75 0,0.82304 -0.82119,0.29331 -2.12756,-1.37244 z m -43.92627,-29 L 203,291 l 3.75,3.44617 c 2.0625,1.89539 3.75,3.58289 3.75,3.75 0,0.76362 -0.84622,0.0442 -4.05383,-3.44617 z M 254.732,240.5 c 0,-1.925 0.2058,-2.7125 0.45733,-1.75 0.25152,0.9625 0.25152,2.5375 0,3.5 -0.25153,0.9625 -0.45733,0.175 -0.45733,-1.75 z m 12.768,-3.37756 c 0,-0.20765 0.7875,-0.99515 1.75,-1.75 1.58606,-1.24387 1.62143,-1.2085 0.37756,0.37756 -1.30637,1.66575 -2.12756,2.19548 -2.12756,1.37244 z m 192,-199.999995 c 0,-0.207656 0.7875,-0.995156 1.75,-1.75 1.58606,-1.243871 1.62143,-1.208501 0.37756,0.377555 -1.30637,1.665748 -2.12756,2.195479 -2.12756,1.372445 z m -15,-7 c 0,-0.207656 0.7875,-0.995156 1.75,-1.75 1.58606,-1.243871 1.62143,-1.208501 0.37756,0.377555 -1.30637,1.665748 -2.12756,2.195479 -2.12756,1.372445 z"
         id="path168" /><path
         style="fill:#767676;fill-opacity:1"
         d="m 40,487.5 c 0.995486,-1.1 2.034975,-2 2.309975,-2 0.275,0 -0.314489,0.9 -1.309975,2 -0.995486,1.1 -2.034975,2 -2.309975,2 -0.275,0 0.314489,-0.9 1.309975,-2 z M 253.37244,326.75 c -1.24387,-1.58606 -1.2085,-1.62143 0.37756,-0.37756 0.9625,0.75485 1.75,1.54235 1.75,1.75 0,0.82304 -0.82119,0.29331 -2.12756,-1.37244 z m -25.92627,-10 L 224,313 l 3.75,3.44617 c 2.0625,1.89539 3.75,3.58289 3.75,3.75 0,0.76362 -0.84622,0.0442 -4.05383,-3.44617 z m -62.21284,-2.37409 c 0.67834,-0.68342 1.48524,-0.99067 1.79313,-0.68278 0.30789,0.30789 -0.24711,0.86705 -1.23333,1.24258 -1.4252,0.54268 -1.54006,0.42782 -0.5598,-0.5598 z M 267.37244,303.75 c -1.24387,-1.58606 -1.2085,-1.62143 0.37756,-0.37756 1.66575,1.30637 2.19548,2.12756 1.37244,2.12756 -0.20765,0 -0.99515,-0.7875 -1.75,-1.75 z M 116.5,282.12244 c 0,-0.20765 0.7875,-0.99515 1.75,-1.75 1.58606,-1.24387 1.62143,-1.2085 0.37756,0.37756 -1.30637,1.66575 -2.12756,2.19548 -2.12756,1.37244 z M 252.37244,272.75 c -1.24387,-1.58606 -1.2085,-1.62143 0.37756,-0.37756 1.66575,1.30637 2.19548,2.12756 1.37244,2.12756 -0.20765,0 -0.99515,-0.7875 -1.75,-1.75 z m 14.28545,-31.25 c 0,-1.375 0.22698,-1.9375 0.50439,-1.25 0.27741,0.6875 0.27741,1.8125 0,2.5 -0.27741,0.6875 -0.50439,0.125 -0.50439,-1.25 z m -33.07894,-26.58333 c 0.048,-1.16495 0.28494,-1.4019 0.60416,-0.60417 0.28887,0.72187 0.25335,1.58438 -0.0789,1.91667 -0.33229,0.33229 -0.56864,-0.25834 -0.52522,-1.3125 z M 389.3125,117.81689 c 0.72187,-0.28887 1.58438,-0.25335 1.91667,0.0789 0.33229,0.33229 -0.25834,0.56864 -1.3125,0.52522 -1.16495,-0.048 -1.4019,-0.28494 -0.60417,-0.60416 z m 59.26645,-11.90022 c 0.048,-1.16495 0.28494,-1.4019 0.60416,-0.60417 0.28887,0.72188 0.25335,1.58438 -0.0789,1.91667 -0.33229,0.33229 -0.56864,-0.25834 -0.52522,-1.3125 z M 373.3125,80.816886 c 0.72187,-0.288871 1.58438,-0.253344 1.91667,0.07895 0.33229,0.332292 -0.25834,0.568641 -1.3125,0.52522 -1.16495,-0.04798 -1.4019,-0.284941 -0.60417,-0.604167 z"
         id="path167" /><path
         style="fill:#606060;fill-opacity:1"
         d="m 170.37244,417.75 c -1.24387,-1.58606 -1.2085,-1.62143 0.37756,-0.37756 0.9625,0.75485 1.75,1.54235 1.75,1.75 0,0.82304 -0.82119,0.29331 -2.12756,-1.37244 z M 111.5,381.12244 c 0,-0.20765 0.7875,-0.99515 1.75,-1.75 1.58606,-1.24387 1.62143,-1.2085 0.37756,0.37756 -1.30637,1.66575 -2.12756,2.19548 -2.12756,1.37244 z M 271.44617,345.75 268,342 l 3.75,3.44617 c 2.0625,1.89539 3.75,3.58289 3.75,3.75 0,0.76362 -0.84622,0.0442 -4.05383,-3.44617 z M 313.5,345.12244 c 0,-0.20765 0.7875,-0.99515 1.75,-1.75 1.58606,-1.24387 1.62143,-1.2085 0.37756,0.37756 -1.30637,1.66575 -2.12756,2.19548 -2.12756,1.37244 z M 270.37244,306.75 c -1.24387,-1.58606 -1.2085,-1.62143 0.37756,-0.37756 1.66575,1.30637 2.19548,2.12756 1.37244,2.12756 -0.20765,0 -0.99515,-0.7875 -1.75,-1.75 z M 230.90499,303.25 229,301 l 2.25,1.90499 c 1.2375,1.04774 2.25,2.06024 2.25,2.25 0,0.80025 -0.80479,0.20945 -2.59501,-1.90499 z m 34.46745,-17.5 c -1.24387,-1.58606 -1.2085,-1.62143 0.37756,-0.37756 1.66575,1.30637 2.19548,2.12756 1.37244,2.12756 -0.20765,0 -0.99515,-0.7875 -1.75,-1.75 z M 304.3125,140.81689 c 0.72187,-0.28887 1.58438,-0.25335 1.91667,0.0789 0.33229,0.33229 -0.25834,0.56864 -1.3125,0.52522 -1.16495,-0.048 -1.4019,-0.28494 -0.60417,-0.60416 z m 102,-43.000004 c 0.72187,-0.288871 1.58438,-0.253344 1.91667,0.07895 0.33229,0.332292 -0.25834,0.568641 -1.3125,0.52522 -1.16495,-0.04798 -1.4019,-0.284941 -0.60417,-0.604167 z M 379.5,53.122445 c 0,-0.207656 0.7875,-0.995156 1.75,-1.75 1.58606,-1.243871 1.62143,-1.208501 0.37756,0.377555 -1.30637,1.665748 -2.12756,2.195479 -2.12756,1.372445 z m 36.8125,-7.305559 c 0.72187,-0.288871 1.58438,-0.253344 1.91667,0.07895 0.33229,0.332292 -0.25834,0.568641 -1.3125,0.52522 -1.16495,-0.04798 -1.4019,-0.284941 -0.60417,-0.604167 z"
         id="path166" /><path
         style="fill:#494949;fill-opacity:1"
         d="m 35.5,492.12244 c 0,-0.20765 0.7875,-0.99515 1.75,-1.75 1.586056,-1.24387 1.621426,-1.2085 0.377555,0.37756 C 36.321186,492.41575 35.5,492.94548 35.5,492.12244 Z m -48.1875,-54.30555 c 0.721875,-0.28887 1.584375,-0.25335 1.916667,0.0789 0.332291,0.33229 -0.258334,0.56864 -1.3125,0.52522 -1.164943,-0.048 -1.4019,-0.28494 -0.604167,-0.60416 z M 268.5,365.12244 c 0,-0.20765 0.7875,-0.99515 1.75,-1.75 1.58606,-1.24387 1.62143,-1.2085 0.37756,0.37756 -1.30637,1.66575 -2.12756,2.19548 -2.12756,1.37244 z M 258.37244,348.75 c -1.24387,-1.58606 -1.2085,-1.62143 0.37756,-0.37756 0.9625,0.75485 1.75,1.54235 1.75,1.75 0,0.82304 -0.82119,0.29331 -2.12756,-1.37244 z m -41,-43 c -1.24387,-1.58606 -1.2085,-1.62143 0.37756,-0.37756 1.66575,1.30637 2.19548,2.12756 1.37244,2.12756 -0.20765,0 -0.99515,-0.7875 -1.75,-1.75 z m 47,-5 c -1.24387,-1.58606 -1.2085,-1.62143 0.37756,-0.37756 1.66575,1.30637 2.19548,2.12756 1.37244,2.12756 -0.20765,0 -0.99515,-0.7875 -1.75,-1.75 z m 14,-2 c -1.24387,-1.58606 -1.2085,-1.62143 0.37756,-0.37756 1.66575,1.30637 2.19548,2.12756 1.37244,2.12756 -0.20765,0 -0.99515,-0.7875 -1.75,-1.75 z m -21,-5 c -1.24387,-1.58606 -1.2085,-1.62143 0.37756,-0.37756 0.9625,0.75485 1.75,1.54235 1.75,1.75 0,0.82304 -0.82119,0.29331 -2.12756,-1.37244 z m 14,-2 c -1.24387,-1.58606 -1.2085,-1.62143 0.37756,-0.37756 1.66575,1.30637 2.19548,2.12756 1.37244,2.12756 -0.20765,0 -0.99515,-0.7875 -1.75,-1.75 z M 112.5,286.12244 c 0,-0.20765 0.7875,-0.99515 1.75,-1.75 1.58606,-1.24387 1.62143,-1.2085 0.37756,0.37756 -1.30637,1.66575 -2.12756,2.19548 -2.12756,1.37244 z M 207.37244,278.75 c -1.24387,-1.58606 -1.2085,-1.62143 0.37756,-0.37756 0.9625,0.75485 1.75,1.54235 1.75,1.75 0,0.82304 -0.82119,0.29331 -2.12756,-1.37244 z m 48,-3 c -1.24387,-1.58606 -1.2085,-1.62143 0.37756,-0.37756 0.9625,0.75485 1.75,1.54235 1.75,1.75 0,0.82304 -0.82119,0.29331 -2.12756,-1.37244 z M 433.5,112.12244 c 0,-0.20765 0.7875,-0.99515 1.75,-1.75 1.58606,-1.24387 1.62143,-1.2085 0.37756,0.37756 -1.30637,1.66575 -2.12756,2.19548 -2.12756,1.37244 z m 15.07895,-3.20577 c 0.048,-1.16495 0.28494,-1.4019 0.60416,-0.60417 0.28887,0.72188 0.25335,1.58438 -0.0789,1.91667 -0.33229,0.33229 -0.56864,-0.25834 -0.52522,-1.3125 z m -23.26645,-5.09978 c 0.72187,-0.28887 1.58438,-0.25335 1.91667,0.0789 0.33229,0.33229 -0.25834,0.56864 -1.3125,0.52522 -1.16495,-0.048 -1.4019,-0.28494 -0.60417,-0.60416 z M 405.57895,57.916667 c 0.048,-1.164943 0.28494,-1.4019 0.60416,-0.604167 0.28887,0.721875 0.25335,1.584375 -0.0789,1.916667 -0.33229,0.332291 -0.56864,-0.258334 -0.52522,-1.3125 z m 7.73355,-12.099781 c 0.72187,-0.288871 1.58438,-0.253344 1.91667,0.07895 0.33229,0.332292 -0.25834,0.568641 -1.3125,0.52522 -1.16495,-0.04798 -1.4019,-0.284941 -0.60417,-0.604167 z"
         id="path165" /><path
         style="fill:#333333;fill-opacity:1"
         d="m 24.383903,497.59518 c -2.241112,-0.842 -58.735069,-65.57352 -59.897768,-68.63165 -0.82003,-2.15684 -0.489924,-3.0136 2.277412,-5.91081 C -31.456404,421.18913 -1.2,394.6112 34,363.99066 c 35.2,-30.62055 65.230119,-57.06919 66.7336,-58.77477 1.50348,-1.70557 3.47646,-5.37689 4.3844,-8.15847 1.23289,-3.77706 3.22312,-6.5764 7.86144,-11.05742 l 6.21063,-6 2.2589,-14.49027 c 2.29233,-14.70474 4.70134,-22.87402 7.82421,-26.53298 2.3945,-2.80554 49.34502,-43.85287 52.59605,-45.98302 3.96482,-2.59785 7.49592,-0.61384 15.24,8.56287 6.82675,8.08969 8.6553,9.46825 10.86994,8.19499 0.71901,-0.41337 6.95791,-5.65954 13.86421,-11.65815 11.52001,-10.00592 12.58168,-11.21835 12.85677,-14.68241 0.28992,-3.65079 2.59796,-5.78187 69.68633,-64.34344 C 352.87222,76.744293 374.46395,58.5 376.06693,58.5 c 1.61758,0 2.38819,-0.663421 2.61352,-2.25 C 378.89448,54.743004 389.07183,45.172202 409.5,27.267247 435.21188,4.7312063 440.48486,0.5317866 443.08855,0.51724709 445.76179,0.50231923 447.357,1.8524074 454.9514,10.557258 l 8.7743,10.057257 -0.41027,6.443116 c -0.37105,5.827232 -0.76419,6.805565 -4.11285,10.234905 -2.03642,2.085484 -3.70258,4.134793 -3.70258,4.55402 0,0.419226 2.7,3.899308 6,7.733514 3.76932,4.379503 6,7.873349 6,9.39763 0,1.845171 -2.99408,5.093559 -12.5,13.561692 -6.875,6.124441 -12.5,11.409343 -12.5,11.744227 0,0.334884 1.19971,2.340063 2.66602,4.455953 2.36239,3.408919 2.71846,5.025985 3.12639,14.198158 l 0.46036,10.35108 -44.1836,38.6056 C 368.49418,183.41508 359.8604,190.5 357.52389,190.5 c -2.30848,0 -4.25812,-1.54653 -10.08528,-8 -3.97297,-4.4 -7.60406,-8 -8.06909,-8 -0.46502,0 -17.05091,14.1951 -36.85751,31.54466 L 266.5,237.58931 v 6.49851 6.49851 l -5.2177,4.70683 C 258.41257,257.88192 254.12037,261.8 251.74409,264 l -4.32051,4 34.15465,33.49116 c 18.78506,18.42014 34.53963,34.50374 35.01016,35.74132 0.47053,1.23758 0.59897,2.91867 0.28543,3.73575 -0.54289,1.41474 -23.6814,22.65589 -29.75868,27.31846 -4.12975,3.16841 -6.47528,2.76699 -11.25775,-1.92665 l -4.21831,-4.13996 -9.81954,9.04588 c -12.04919,11.09987 -15.89007,14.06812 -34.5935,26.73404 -35.90098,24.31206 -39.89419,26.44144 -47.06332,25.09651 -8.69594,-1.63137 -14.3332,-10.58247 -28.71598,-45.59651 -3.95368,-9.625 -7.63921,-18.0625 -8.19007,-18.75 -2.08198,-2.59842 -5.04393,-0.9332 -17.78721,10 L 112.35692,380 77.01402,433 C 37.152501,492.77609 31.153721,500.13864 24.383903,497.59518 Z M 27.67312,480.4056 c -3.64675,-5.83937 -25.6740628,-29.81451 -27.90722826,-30.375 -1.37603914,-0.34537 -2.66230564,-0.46752 -2.85837004,-0.27146 -0.1960644,0.19607 6.4398579,8.12515 14.7464943,17.62018 10.954465,12.52167 15.404153,16.96251 16.199438,16.16723 0.795286,-0.79529 0.745752,-1.65805 -0.180334,-3.14095 z M 51.037257,441.25 c 27.973923,-46.60584 45.841685,-74.75404 50.788423,-80.01019 3.47322,-3.69046 6.5894,-4.73981 14.07553,-4.73981 6.02063,0 6.51764,-0.19792 12.44766,-4.95708 8.81196,-7.07206 13.86977,-7.64393 20.91571,-2.36484 3.64041,2.72753 6.70628,8.25297 10.6041,19.1112 6.65309,18.53361 17.74782,41.66752 20.75509,43.27696 2.43585,1.30363 6.63711,-0.5073 16.54625,-7.13218 4.30649,-2.87915 7.99157,-5.36624 8.18907,-5.52687 0.1975,-0.16062 -0.53558,-1.55545 -1.62907,-3.09961 C 196.78995,386.00721 180.5,354.80486 180.5,351.31197 c 0,-1.12182 0.97004,-3.76561 2.15564,-5.87511 2.04289,-3.63483 2.06752,-3.95578 0.47079,-6.13615 -4.18845,-5.71946 -12.87139,-19.24655 -14.36586,-22.38047 -0.90682,-1.90163 -1.97164,-3.33662 -2.36626,-3.18887 -0.39462,0.14774 -8.42047,7.01863 -17.83522,15.26863 -9.41476,8.25 -19.09889,16.05751 -21.5203,17.35003 -6.53495,3.48827 -9.41907,2.15953 -18.70798,-8.61896 -8.21251,-9.52948 -9.813928,-12.01989 -9.070682,-14.10607 0.269429,-0.75625 0.03421,-1.20625 -0.522721,-1 -0.825914,0.30587 -113.275834,98.01266 -119.615514,103.93291 -1.824528,1.70382 -1.748064,1.89289 2.6803,6.62716 l 4.558406,4.87331 7.3025636,0.22011 C 5.4115563,438.6326 6.1086715,439.07637 20.047377,455.0739 26.960608,463.00825 32.9463,469.5 33.348915,469.5 c 0.402614,0 8.362368,-12.7125 17.688342,-28.25 z M 220.26076,387.39962 c 2.60658,-1.70521 8.19616,-5.22649 12.42128,-7.82506 6.89644,-4.24151 30.58604,-23.65145 30.75142,-25.196 0.0366,-0.3418 -2.07096,-2.84841 -4.68346,-5.57026 -2.6125,-2.72184 -12.4,-12.97811 -21.75,-22.79169 -9.35,-9.81359 -21.11026,-22.12916 -26.13391,-27.36793 l -9.1339,-9.52503 -11.1161,9.77427 C 183.55397,305.10758 179.5,309.38829 179.5,310.63576 c 0,1.07996 0.72961,3.40371 1.62135,5.1639 1.96667,3.88198 10.80588,17.12106 14.03893,21.02707 3.10609,3.75261 2.97671,7.7628 -0.37911,11.75097 l -2.71883,3.23114 6.83567,13.24431 c 7.92089,15.34696 14.10753,25.44685 15.58734,25.44685 0.56989,0 3.16883,-1.39517 5.77541,-3.10038 z m 72.86961,-39.46441 c 5.08288,-4.36437 9.27041,-8.4107 9.30561,-8.99185 C 302.5033,337.8322 240.2259,275.5 239.0484,275.5 c -0.8784,0 -18.52588,15.31105 -18.53871,16.08428 -0.009,0.5674 10.71401,11.97273 44.8389,47.69024 9.07735,9.50099 16.96235,17.12183 17.52222,16.93521 0.55987,-0.18662 5.17667,-3.91016 10.25956,-8.27452 z M 153.07279,309.34213 C 196.54264,271.34733 196.35865,271.5 198.67561,271.5 c 1.27771,0 4.25474,2.23509 7.4703,5.60853 3.09697,3.24903 5.91872,5.38878 6.70728,5.08618 0.74867,-0.28729 10.65048,-8.67601 22.00402,-18.6416 L 255.5,245.43387 v -5.91117 c 0,-4.73141 0.44906,-6.40426 2.25,-8.38177 1.2375,-1.35884 18.57725,-16.6982 38.53277,-34.08749 l 36.28278,-31.61689 -4.20663,-4.98881 -4.20662,-4.9888 -2.57615,2.35236 c -1.41688,1.29379 -6.32737,5.60964 -10.9122,9.59076 -7.66104,6.65228 -8.67324,7.22522 -12.5,7.07544 -2.29017,-0.0896 -4.94051,-0.12124 -5.88963,-0.0702 -0.94913,0.051 -6.80534,4.52868 -13.0138,9.95038 -6.20846,5.42171 -12.18191,10.13196 -13.27432,10.46723 -1.09241,0.33527 -5.77536,-0.244 -10.40655,-1.28727 l -8.42035,-1.89684 -15.07965,13.11139 c -8.29381,7.21127 -15.47577,13.44822 -15.95993,13.8599 -0.48415,0.41168 0.52835,2.45741 2.25,4.54607 3.74551,4.54395 4.04652,8.5362 0.87742,11.63733 -4.60085,4.50219 -71.11753,62.26907 -73.63398,63.94796 -4.13202,2.75674 -6.61714,2.16832 -11.11651,-2.63215 -2.2624,-2.41381 -4.70097,-5.19221 -5.41903,-6.17422 -1.21308,-1.65898 -1.67003,-1.47817 -6.4497,2.55211 -4.54278,3.83053 -5.42044,5.22445 -7.50789,11.92422 -4.24863,13.63617 -4.96649,17.75911 -3.45879,19.86519 3.19039,4.45662 9.42684,11.15854 10.41155,11.18865 0.59004,0.018 14.54004,-11.73825 31,-26.12508 z m 91.44313,-81.9396 c -2.07175,-0.44341 -4.80796,-2.19029 -6.75,-4.30942 -3.92943,-4.28776 -4.43177,-10.16879 -1.3064,-15.29456 6.98428,-11.45461 24.0248,-6.16159 24.03674,7.46614 0.007,7.76238 -8.00194,13.84541 -15.98034,12.13784 z M 250.8877,216.25 c 1.41899,-2.25325 -0.24641,-5.12414 -3.23015,-5.56828 -1.51785,-0.22594 -2.49219,0.45863 -3.3583,2.35954 -1.06125,2.32919 -0.96738,2.86263 0.72098,4.09719 2.37579,1.73722 4.4077,1.42955 5.86747,-0.88845 z m -76.08644,42.11826 c 17.70931,-15.47246 32.35946,-28.55462 32.5559,-29.07148 0.39599,-1.04191 -3.72899,-5.79678 -5.02887,-5.79678 -0.93737,0 -64.22541,55.21551 -65.32228,56.99027 -0.71998,1.16496 3.08472,6.00973 4.71956,6.00973 0.48232,0 15.36638,-12.65928 33.07569,-28.13174 z m -10.42819,-17.75381 29.08028,-25.38555 -2.93889,-3.71064 c -5.46577,-6.9011 -3.67933,-7.74131 -27.60392,12.98291 -22.80361,19.7532 -25.79626,22.91566 -27.34806,28.89987 -1.71597,6.61728 -2.3926,13.37784 -1.29876,12.97652 0.56599,-0.20766 14.11519,-11.80106 30.10935,-25.76311 z M 274.07133,174.25 c 14.0766,-12.27914 13.41696,-11.89164 20.56889,-12.08276 L 300.89854,162 345.12772,123.5 C 369.45377,102.325 389.38169,84.55 389.412,84 c 0.0303,-0.55 -2.52499,-3.833416 -5.67845,-7.29648 L 378,70.407041 315.5,124.9796 c -34.375,30.0149 -62.62762,54.94369 -62.78361,55.3973 -0.2456,0.71423 5.88861,2.64977 9.51725,3.00301 0.67851,0.0661 6.00547,-4.04241 11.83769,-9.12991 z m 25.06015,-18.45185 c -1.25888,-1.25888 -0.59658,-9.90297 0.92522,-12.07564 1.30876,-1.86851 2.49396,-2.22251 7.44099,-2.22251 3.36507,0 6.18939,0.49368 6.59694,1.15312 0.427,0.69089 -1.65381,3.30118 -5.19098,6.51186 -6.67545,6.05931 -8.8619,7.54343 -9.77217,6.63317 z m 22.72887,-20.80148 c -1.00886,-2.62904 0.30411,-10.5897 2.03148,-12.31707 1.1451,-1.1451 3.12738,-1.54843 6.82041,-1.38775 7.96637,0.34662 8.16256,1.53179 1.28776,7.77932 -7.78819,7.07759 -9.34781,7.98901 -10.13965,5.9255 z m 22.43337,-19.61551 c -0.79779,-2.39337 0.89496,-12.07282 2.26713,-12.96384 C 348.72131,101.01443 360,101.72119 360,103.25947 360,104.52095 346.79582,116.5 345.40533,116.5 c -0.40627,0 -0.90649,-0.50348 -1.11161,-1.11884 z m 22.47595,-24.918518 c 0.7226,-7.968896 1.68146,-8.966162 8.60277,-8.947329 6.00599,0.01634 9.30958,1.244803 7.6192,2.833253 C 377.10888,89.876612 368.72942,96.5 367.61847,96.5 c -1.10127,0 -1.28059,-1.275481 -0.8488,-6.037358 z M 398,143.55188 c 19.8,-17.20061 36.7875,-32.17374 37.75,-33.27364 2.64582,-3.02351 2.36413,-11.571173 -0.52251,-15.854644 -2.77105,-4.111969 -5.13235,-5.315802 -14.46104,-7.372492 l -7.23356,-1.594777 -38.01644,33.186483 C 354.6074,136.89538 337.5,152.18454 337.5,152.61872 c 0,0.43418 4.77973,6.2303 10.62162,12.88027 9.43185,10.73651 10.80402,11.93604 12.25,10.70878 C 361.26723,175.44763 378.2,160.75248 398,143.55188 Z m -26.9625,14.00879 c -0.69355,-1.12217 0.39316,-8.8889 1.56409,-11.17857 1.57889,-3.08743 14.38922,-3.3623 13.69508,-0.29385 -0.31994,1.41426 -12.64776,12.41175 -13.91317,12.41175 -0.42101,0 -1.02671,-0.4227 -1.346,-0.93933 z m -16.06598,-5.10676 c -1.05004,-1.69899 0.59381,-10.87639 2.24371,-12.52628 1.08526,-1.08526 3.13236,-1.43558 7.15259,-1.22402 7.55667,0.39766 7.40783,2.12967 -0.79334,9.23189 -6.70394,5.80562 -7.53701,6.24316 -8.60296,4.51841 z m 39.12346,-14.80022 c -1.08207,-1.75083 1.18255,-11.51785 2.97437,-12.82806 3.14628,-2.30062 12.80844,-1.31023 12.22907,1.2535 C 408.9774,127.49967 396.65389,138.5 395.3835,138.5 c -0.42101,0 -1.00084,-0.38084 -1.28852,-0.84631 z M 378.0213,127.25 c 1.12153,-8.30504 1.57991,-8.75 9.01388,-8.75 5.55058,0 6.46482,0.25369 6.46482,1.7939 0,2.19928 -11.74374,12.2061 -14.32475,12.2061 -1.6707,0 -1.78977,-0.54171 -1.15395,-5.25 z m 38.78289,-14.40838 c 0.76131,-7.37635 2.28418,-8.83798 8.90805,-8.54977 2.86337,0.12459 5.58816,0.60855 6.05508,1.07547 1.02527,1.02527 -11.92956,13.13268 -14.05185,13.13268 -1.21967,0 -1.38763,-1.04294 -0.91128,-5.65838 z m -15.91537,-0.77074 c -0.83267,-2.16992 0.4126,-9.93764 1.9022,-11.86551 1.18669,-1.53583 3.9945,-2.0221 10.45898,-1.811333 5.05528,0.164822 4.07228,2.882463 -3.29373,9.105963 -7.53537,6.36658 -8.24173,6.72266 -9.06745,4.57088 z m 41.81862,-42.68444 c 5.11091,-4.462459 9.87957,-8.665543 10.59703,-9.340187 1.06068,-0.997378 0.61942,-2.050794 -2.36097,-5.63644 -2.016,-2.425397 -4.04807,-4.553996 -4.5157,-4.730221 -0.46764,-0.176224 -6.69846,4.773776 -13.84627,11 L 419.5855,72 l 2.97303,2.75 c 2.19684,2.032046 4.00209,2.75 6.91469,2.75 3.50147,0 4.97943,-0.906101 13.23422,-8.11356 z M 428.62283,49.432516 c 13.59486,-11.787884 24.75376,-21.83617 24.79755,-22.329524 0.0438,-0.493355 -1.60788,-2.909904 -3.67038,-5.370111 -2.0625,-2.460206 -4.4831,-5.393506 -5.3791,-6.518445 -1.59053,-1.996916 -2.23571,-1.514972 -27.25,20.355579 C 403.0294,47.890521 391.5,58.366371 391.5,58.849681 c 0,1.569884 10.23341,12.739184 11.33524,12.371905 0.58832,-0.196105 12.19273,-10.001186 25.78759,-21.78907 z m -21.93757,5.499025 c 0.27102,-4.256268 0.92805,-6.8994 1.86649,-7.508594 C 410.67077,46.047379 422,46.715234 422,48.215718 422,49.639766 408.90769,61.5 407.3357,61.5 c -0.69224,0 -0.92136,-2.313768 -0.65044,-6.568459 z M 430.5,35.5651 c 0,-4.41584 1.52282,-9.141422 3.31256,-10.279435 1.42885,-0.908539 8.89081,-1.028592 11.10565,-0.178676 2.76493,1.061001 1.74717,2.891758 -4.84511,8.715431 -7.78554,6.877812 -9.5731,7.203218 -9.5731,1.74268 z"
         id="path164" /></g><path
       style="fill:#ffffff;stroke:none;stroke-width:5.55146"
       d="M 58.902622,467.24777 C 43.55157,450.01849 43.807062,450.18772 32.040425,449.45588 l -8.062951,-0.50149 -3.631702,-3.99949 c -4.648955,-5.11976 -4.747359,-5.30555 -3.486189,-6.58195 2.161802,-2.18791 75.854008,-66.39549 110.399007,-96.18999 4.65812,-4.01756 8.62025,-7.30465 8.80473,-7.30465 0.18448,0 0.33542,0.50663 0.33542,1.12584 0,2.65238 12.6856,18.22597 17.73936,21.77789 2.93663,2.06394 6.55662,2.30383 9.79179,0.64889 3.05828,-1.56445 10.2059,-7.2877 24.8739,-19.91705 7.31326,-6.29681 13.89085,-11.66849 14.61688,-11.93706 1.17741,-0.43555 1.55585,-0.0618 3.50228,3.45889 1.20022,2.17096 5.00812,8.19356 8.46199,13.38356 l 6.27975,9.43635 -1.80289,3.85269 c -0.99159,2.11898 -1.80289,4.84064 -1.80289,6.04813 0,3.59803 15.55481,33.68241 23.61647,45.67636 l 1.09177,1.6243 -8.18846,5.3739 c -4.50366,2.95564 -9.6669,5.92704 -11.47387,6.60312 -2.97902,1.11459 -3.41374,1.14514 -4.66162,0.3275 -3.07432,-2.01438 -11.89063,-20.11032 -19.62231,-40.27586 -4.1753,-10.88988 -8.65177,-20.17508 -10.55849,-21.90063 -0.61848,-0.55973 -1.12452,-0.83721 -1.12452,-0.61664 0,0.22057 -1.33417,-0.27504 -2.96481,-1.10135 -3.96344,-2.00842 -8.38901,-2.03617 -12.07613,-0.0757 -1.47576,0.78467 -4.85067,3.03375 -7.4998,4.99796 -4.95423,3.67334 -8.82691,5.12543 -9.73797,3.65131 -0.3681,-0.5956 -0.79805,-0.6048 -2.03016,-0.0434 -0.85975,0.39173 -2.23743,0.71223 -3.06154,0.71223 -0.8241,0 -2.75783,0.31713 -4.29717,0.70474 -6.41729,1.61589 -12.4495,10.36763 -51.767146,75.1055 -19.551254,32.19182 -22.213143,36.41279 -22.963146,36.41279 -0.294476,0 -5.621299,-5.70815 -11.837386,-12.68478 z"
       id="path172" /><path
       style="fill:#ffffff;stroke:none;stroke-width:0.693932"
       d="m 64.663757,494.72525 c -0.72596,-0.39051 -1.621959,-1.179 -3.706579,-3.26185 -3.560519,-3.55748 -9.376675,-10.04759 -17.722369,-19.77596 -5.73015,-6.67949 -8.732555,-10.36446 -8.608371,-10.5654 0.07671,-0.12412 1.301775,-0.0355 2.159437,0.15617 0.530749,0.11862 0.773235,0.21968 1.156554,0.48202 3.787776,2.59231 22.796392,23.39203 26.9197,29.45624 1.184384,1.74189 1.369215,2.56678 0.762729,3.40401 -0.270875,0.37393 -0.428736,0.39114 -0.961101,0.10477 z"
       id="path173" /><path
       style="fill:#ffffff;stroke:none;stroke-width:3.92547"
       d="m 156.5064,343.72657 c -1.53803,-1.58712 -3.90383,-4.2752 -5.25734,-5.97351 -2.11874,-2.65847 -2.46052,-3.33343 -2.45797,-4.85408 0.006,-3.45942 4.17597,-18.39586 6.32415,-22.65139 1.23871,-2.45387 5.3054,-6.63308 8.53278,-8.76885 l 1.71318,-1.13373 2.98948,3.36418 c 6.32287,7.11539 8.57801,8.65517 11.7929,8.05205 2.02294,-0.3795 3.38736,-1.43525 17.15121,-13.27115 34.62612,-29.7759 59.52015,-51.71367 60.84984,-53.62369 0.74392,-1.0686 0.9845,-1.96803 0.96102,-3.59286 -0.0343,-2.37059 -0.79873,-4.0756 -3.52214,-7.85557 -0.91994,-1.27683 -1.67742,-2.53199 -1.6833,-2.78925 -0.0121,-0.53134 30.19168,-26.8973 31.04514,-27.10037 0.30512,-0.0726 3.2451,0.45728 6.53331,1.17752 3.2882,0.72023 7.43362,1.42172 9.21205,1.55886 l 3.23349,0.24935 4.11173,-3.21413 c 2.26145,-1.76777 6.24652,-5.03696 8.85571,-7.26487 2.60918,-2.22791 6.48596,-5.38076 8.61505,-7.00634 l 3.87107,-2.9556 4.29982,0.0347 c 6.5704,0.0531 6.32432,0.198 19.98357,-11.7686 4.3814,-3.83846 8.02307,-6.97902 8.09262,-6.97902 0.36128,0 7.83141,9.15184 7.71521,9.45208 -0.0752,0.19432 -11.53328,10.28901 -25.46238,22.43265 -43.46383,37.89252 -48.68516,42.58076 -49.91262,44.81658 -0.62044,1.13014 -0.94971,2.44724 -0.94971,3.7989 0,1.46173 -0.14366,1.9802 -0.48948,1.76647 -0.36495,-0.22555 -0.41731,0.63643 -0.20579,3.38816 l 0.28369,3.69068 -2.0102,1.80066 c -6.36072,5.69767 -28.29323,24.78461 -33.8091,29.42263 l -6.47326,5.44304 -4.24088,-4.03238 c -2.33248,-2.2178 -4.33115,-3.9421 -4.44149,-3.83176 -0.11033,0.11034 -1.15101,-0.45315 -2.31262,-1.2522 -2.66927,-1.83613 -4.25282,-1.88197 -6.58756,-0.19069 -2.74641,1.98949 -8.49105,6.90547 -31.09666,26.61101 -26.16819,22.81109 -39.76797,34.36857 -41.91166,35.61774 -0.36027,0.20994 -1.49921,-0.66475 -3.34286,-2.56726 z M 289.02805,238.48525 c 3.17066,-0.97932 6.07019,-3.29651 7.78375,-6.22048 1.61749,-2.76004 1.8463,-7.3735 0.53773,-10.84221 -1.14006,-3.02203 -3.63221,-5.83554 -6.50983,-7.34928 -1.84198,-0.96894 -2.63712,-1.11961 -5.92626,-1.12298 -3.42584,-0.004 -4.02081,0.11906 -6.05939,1.24821 -3.49752,1.93723 -6.19734,5.76986 -6.69897,9.50976 -0.12338,0.91987 -0.38978,1.57023 -0.59201,1.44525 -0.62021,-0.38332 -0.58514,2.36633 0.0354,2.77723 0.1753,0.11608 0.56366,0.97082 0.86302,1.89942 1.33278,4.13435 5.51527,8.14414 9.49726,9.10511 2.2421,0.54109 4.28054,0.41132 7.06927,-0.45003 z"
       id="path174" /><path
       style="fill:#ffffff;stroke:none;stroke-width:3.92547"
       d="m 177.6075,296.55468 c -1.5082,-1.26906 -2.86447,-3.71882 -2.53468,-4.57824 0.39688,-1.03427 38.97608,-35.07045 57.90582,-51.08695 6.05953,-5.12698 6.35258,-5.31728 7.26628,-4.7186 0.52365,0.34311 1.24099,0.62383 1.59409,0.62383 0.94836,0 3.02389,3.30612 2.52818,4.02714 -1.59511,2.32006 -64.15578,56.7544 -65.22709,56.7544 -0.17519,0 -0.86486,-0.45971 -1.5326,-1.02158 z"
       id="path175" /><path
       style="fill:#ffffff;stroke:none;stroke-width:3.92547"
       d="m 171.73955,273.96162 c 0.36943,-4.4298 2.07182,-11.03059 3.47442,-13.47163 1.63855,-2.85169 10.2197,-11.18023 22.8455,-22.173 20.09747,-17.49805 23.45441,-20.05012 25.64891,-19.49934 0.8057,0.20222 3.80165,3.48734 6.6248,7.26422 0.23188,0.31021 -6.27573,6.25773 -18.93555,17.30586 -25.47141,22.22868 -39.09765,33.91245 -39.56054,33.92103 -0.21357,0.004 -0.25589,-1.44832 -0.0975,-3.34714 z"
       id="path176" /><path
       style="fill:#ffffff;stroke:none;stroke-width:3.92547"
       d="m 310.5218,357.6953 c -5.26284,-5.23956 -9.51638,-9.78339 -9.45231,-10.0974 0.0641,-0.31401 -0.86694,-1.39297 -2.06891,-2.39769 -4.10978,-3.43535 -5.85631,-5.10001 -5.84795,-5.57384 0.005,-0.26062 -2.36221,-2.75316 -5.25957,-5.53898 -6.62356,-6.36857 -16.69768,-17.09881 -16.69768,-17.7852 0,-0.28513 -0.52234,-0.89206 -1.16075,-1.34875 -1.20937,-0.8651 -7.24346,-6.9487 -10.06971,-10.1523 l -1.63221,-1.85014 3.16011,-2.96211 c 2.57268,-2.41149 7.00102,-6.23371 14.41344,-12.44064 0.62556,-0.52382 1.59328,0.26493 8.99335,7.33013 4.5608,4.35441 8.81082,8.68969 9.4445,9.63396 0.63367,0.94426 1.64051,1.95164 2.23741,2.23862 0.59691,0.28697 1.82468,1.38552 2.72839,2.44122 2.85908,3.33995 10.13966,10.75506 10.55993,10.75506 0.22197,0 3.40154,3.08656 7.0657,6.85903 3.66417,3.77246 10.19694,10.46793 14.51726,14.87881 4.32033,4.41088 7.9203,8.22517 7.99992,8.4762 0.0796,0.25102 -1.52237,2.0632 -3.56,4.02705 -3.99383,3.84925 -14.87738,13.02801 -15.45172,13.03138 -0.19273,10e-4 -4.65637,-4.28485 -9.9192,-9.52441 z"
       id="path177" /><path
       style="fill:#ffffff;stroke:none;stroke-width:3.92547"
       d="m 394.7336,186.12192 c -2.81264,-2.47578 -17.86579,-19.67208 -18.90365,-21.595 -0.32207,-0.59673 1.13939,-2.10131 8.3747,-8.62176 6.39551,-5.76363 59.90941,-52.70427 66.43134,-58.271396 0.58687,-0.50095 1.39471,-0.425172 5.69827,0.534513 7.85518,1.751687 11.42741,2.996243 12.70016,4.424683 0.60873,0.68319 1.33446,1.24216 1.61274,1.24216 0.7069,0 2.56689,2.79731 3.36297,5.05771 0.49331,1.40073 0.59325,2.63374 0.38486,4.74856 -0.19349,1.9636 -0.13662,2.85655 0.1819,2.85655 0.25487,0 0.39025,0.23743 0.30085,0.52762 -0.0894,0.29019 -0.277,1.04996 -0.41689,1.68837 -0.13989,0.63842 -0.52084,1.16076 -0.84655,1.16076 -0.68284,0 -3.61265,3.27631 -3.61265,4.03991 0,0.28116 -7.36026,6.96111 -16.35614,14.84433 -26.20553,22.9643 -56.3598,49.07289 -56.67701,49.07289 -0.16079,0 -1.1665,-0.76945 -2.2349,-1.7099 z m 18.97905,-18.62578 c 1.80486,-1.43425 4.85637,-4.11962 6.78116,-5.96748 4.79517,-4.60356 4.7396,-5.62225 -0.34742,-6.36885 -2.2662,-0.3326 -7.12295,0.3506 -8.85329,1.24539 -1.52776,0.79004 -2.44434,3.65732 -2.78975,8.727 -0.2554,3.74858 0.0826,4.97167 1.37394,4.97167 0.30459,0 2.0305,-1.17348 3.83536,-2.60773 z m -16.31886,-4.72232 c 1.2726,-0.95973 4.09003,-3.46915 6.26095,-5.57648 3.44073,-3.33994 3.92909,-3.98979 3.80654,-5.06513 -0.11976,-1.05084 -0.42201,-1.32148 -2.04001,-1.82668 -1.04468,-0.32619 -1.99439,-0.72274 -2.11047,-0.88122 -0.60148,-0.82119 -4.9413,-0.82712 -4.43385,-0.006 0.10751,0.17396 -0.58824,0.42142 -1.54612,0.5499 -0.95788,0.12847 -2.11271,0.6047 -2.56629,1.05828 -0.87106,0.87106 -2.42818,5.82946 -2.42818,7.73214 0,0.6186 -0.28492,1.23406 -0.63314,1.36769 -0.40227,0.15436 -0.63315,0.80297 -0.63315,1.77869 0,1.19169 0.14185,1.48131 0.63315,1.29278 0.35774,-0.13728 0.63314,-0.0101 0.63314,0.29251 0,0.90109 0.96804,1.56537 1.87957,1.28978 0.47522,-0.14367 1.90526,-1.04646 3.17786,-2.0062 z m 41.21026,-16.87157 c 4.57218,-3.92186 8.61038,-7.96007 8.59806,-8.5981 -0.0264,-1.36795 -2.0125,-2.26111 -5.62479,-2.52953 -3.69819,-0.2748 -6.26849,0.36195 -7.43205,1.84118 -1.89114,2.40419 -3.68623,11.23038 -2.56005,12.58734 1.0725,1.29228 2.38197,0.67645 7.01883,-3.30089 z m -17.92997,-3.75646 c 1.4774,-0.98354 4.45893,-3.51498 6.62562,-5.62541 3.42744,-3.33846 3.92117,-3.99702 3.79885,-5.06717 -0.0943,-0.82481 -0.41522,-1.28217 -0.97426,-1.38838 -0.45851,-0.0871 -1.05343,-0.45892 -1.32203,-0.82626 -0.4126,-0.56426 -0.74165,-0.59265 -2.12099,-0.18294 -0.89795,0.26672 -3.0572,0.5809 -4.79833,0.69818 -2.83765,0.19115 -3.28142,0.342 -4.28233,1.45573 -0.61778,0.68742 -1.31078,2.15726 -1.55125,3.29017 -0.62037,2.92276 -1.06951,8.01362 -0.77475,8.78175 0.45485,1.18533 2.5865,0.73699 5.39947,-1.13567 z m 37.33105,-13.50968 c 1.14252,-0.75287 4.23221,-3.48566 6.86596,-6.07287 5.48787,-5.39089 5.7216,-6.04513 2.38367,-6.67222 -1.15896,-0.21773 -2.22658,-0.5715 -2.3725,-0.78616 -0.32328,-0.47557 -6.00975,0.44625 -7.59204,1.23072 -0.60711,0.301 -1.41168,1.19598 -1.78792,1.98886 -1.11789,2.35578 -2.03126,10.62667 -1.25882,11.39911 0.57864,0.57864 1.74489,0.2415 3.76165,-1.08744 z m -17.16581,-4.30986 c 2.88946,-1.4942 11.85811,-9.58971 12.93843,-11.67881 1.19085,-2.30286 -0.0218,-3.05527 -4.98414,-3.09262 -1.56582,-0.0118 -2.84793,-0.16389 -2.84913,-0.338 -10e-4,-0.17412 -0.57201,-0.31657 -1.26847,-0.31657 -0.69645,0 -1.26628,0.18632 -1.26628,0.41405 0,0.22773 -0.45685,0.52871 -1.01521,0.66885 -1.56152,0.39192 -2.64063,1.83881 -3.44219,4.61537 -0.91484,3.16894 -1.05115,8.65593 -0.23948,9.63939 0.70185,0.85039 0.65647,0.84851 2.12647,0.0883 z"
       id="path178" /><path
       style="fill:#ffffff;stroke:none;stroke-width:3.92547"
       d="m 295.97948,193.71676 c -6.54475,-1.6086 -7.06921,-0.52369 5.76929,-11.93463 6.17884,-5.4918 30.84572,-27.13101 54.81529,-48.08715 56.47375,-49.373927 58.5189,-51.154162 58.92595,-51.29307 0.18931,-0.06461 2.19818,1.96779 4.46415,4.516434 4.6423,5.221415 6.54286,7.627005 6.56007,8.303253 0.0203,0.798826 -18.31198,17.106253 -61.11346,54.363243 l -26.72455,23.26265 -5.3546,0.335 c -8.52224,0.53319 -7.85596,0.18441 -19.54255,10.23033 -9.11257,7.83327 -13.50025,11.25066 -14.30339,11.14037 -0.11608,-0.0159 -1.68937,-0.39233 -3.4962,-0.83643 z m 42.88421,-26.62715 c 1.54697,-0.80824 7.67819,-6.15257 10.41548,-9.07874 3.80297,-4.06539 3.32789,-5.07905 -2.42344,-5.17077 -1.45095,-0.0231 -2.63809,-0.23202 -2.63809,-0.46417 0,-0.4854 -2.81257,-0.58351 -3.02501,-0.10553 -0.0774,0.17412 -0.84439,0.64181 -1.70447,1.03931 -0.86008,0.39751 -1.85272,1.2815 -2.20588,1.96443 -1.31479,2.54252 -1.8772,10.25085 -0.86716,11.88513 0.33912,0.54872 1.31832,0.52087 2.44857,-0.0697 z m 24.63811,-21.09936 c 1.05564,-0.7263 3.98826,-3.33801 6.51692,-5.80379 3.61843,-3.52846 4.59673,-4.72622 4.59363,-5.62416 -0.003,-0.95761 -0.25825,-1.21155 -1.58679,-1.5805 -0.87057,-0.24177 -3.38731,-0.43993 -5.59275,-0.44036 -6.1143,-0.001 -7.24185,1.06267 -8.24972,7.78364 -0.15841,1.05632 -0.45638,1.92059 -0.66218,1.92059 -0.20579,0 -0.37417,0.75977 -0.37417,1.68838 0,0.9286 0.17715,1.68837 0.39365,1.68837 0.21651,0 0.51422,0.37989 0.66159,0.84419 0.39537,1.24572 2.06584,1.06066 4.29982,-0.47636 z m 23.42782,-20.58108 c 4.19994,-3.38327 10.89396,-10.00469 10.89396,-10.7758 0,-0.36599 -0.66084,-0.81306 -1.58285,-1.07081 -2.321,-0.64884 -8.04807,-0.96681 -10.23578,-0.56829 -1.65125,0.3008 -2.00473,0.5612 -2.7054,1.99297 -1.1149,2.27822 -2.17466,10.2067 -1.57009,11.74648 0.67939,1.73036 1.74469,1.45901 5.20016,-1.32455 z m 21.69668,-19.41054 c 1.60343,-1.13159 5.06369,-3.89878 7.68945,-6.149309 3.73553,-3.201707 4.74561,-4.292187 4.64304,-5.012644 -0.16531,-1.161118 -2.24807,-1.919581 -5.36073,-1.952177 -1.65462,-0.01733 -2.42584,-0.225249 -2.82819,-0.762488 -0.52686,-0.703491 -0.61613,-0.703491 -1.87464,0 -0.72679,0.406265 -1.60039,0.738664 -1.94133,0.738664 -1.40478,0 -3.03101,1.296617 -3.68912,2.941397 -0.37577,0.93915 -0.81087,3.368176 -0.96688,5.397837 -0.15602,2.02966 -0.36319,3.45171 -0.46039,3.16012 -0.2603,-0.7809 -0.9488,-0.19144 -0.9488,0.81231 0,0.92348 1.59293,2.86429 2.36084,2.87643 0.25378,0.004 1.77332,-0.91855 3.37675,-2.05014 z"
       id="path179" /><path
       style="fill:#ffffff;stroke:none;stroke-width:1.96274"
       d="m 438.5083,81.076027 c -2.21723,-1.910714 -7.3183,-7.596125 -8.53078,-9.508006 -0.33133,-0.522456 -0.60242,-1.110528 -0.60242,-1.306829 0,-0.63619 11.22127,-10.825896 29.86315,-27.117852 15.50114,-13.547123 20.04188,-17.18456 21.4521,-17.18456 0.52032,0 1.04695,0.540729 4.02994,4.137825 3.80744,4.591279 6.05879,7.608634 6.06524,8.128908 0.002,0.188417 -0.97019,1.280586 -2.16116,2.42704 -5.23646,5.04071 -28.56976,25.448654 -41.73237,36.500267 -4.88411,4.100808 -6.23701,5.155507 -6.61314,5.155507 -0.18731,0 -0.98406,-0.554535 -1.77056,-1.2323 z m 7.55096,-8.650136 c 3.45567,-2.196442 12.46387,-10.520222 13.48495,-12.460405 0.21311,-0.404931 0.20903,-0.552881 -0.0216,-0.781593 -0.45626,-0.452578 -2.65276,-0.939079 -4.87409,-1.079562 -1.72445,-0.109059 -2.01771,-0.17759 -1.8134,-0.423768 0.38176,-0.459985 -0.11524,-0.792739 -1.12394,-0.752513 -0.88456,0.03527 -1.33695,0.289423 -1.33695,0.751093 0,0.162827 -0.56518,0.300007 -1.58285,0.384185 -2.255,0.186528 -3.01504,0.55704 -3.46945,1.691306 -0.57402,1.432861 -0.96591,3.833316 -1.11515,6.830692 -0.0751,1.508986 -0.19452,2.506183 -0.26532,2.215993 -0.0708,-0.290189 -0.26689,-0.527617 -0.43577,-0.527617 -0.2314,0 -0.30706,0.285297 -0.30706,1.157867 0,0.934938 0.0711,1.171564 0.36933,1.228996 0.23615,0.04548 0.37932,-0.06764 0.39701,-0.313681 0.0152,-0.211642 0.0975,0.160016 0.18287,0.825907 0.14275,1.113534 0.47271,1.849468 0.82921,1.849468 0.0791,0 0.56611,-0.268365 1.08216,-0.596368 z m 9.85548,-14.96705 c 0.0476,-0.144379 -0.15047,-0.35264 -0.44022,-0.462803 -0.68004,-0.258551 -2.04006,0.09792 -2.04006,0.53472 0,0.252365 0.24458,0.304247 1.19685,0.253887 0.71797,-0.03797 1.23149,-0.168327 1.28343,-0.325804 z m 15.14214,-7.096465 c 1.7318,-0.813722 5.56822,-3.919439 9.10376,-7.369816 1.4831,-1.447381 1.74492,-1.626038 1.92124,-1.310989 0.2925,0.522683 0.87186,0.158811 2.05009,-1.287581 1.3565,-1.665246 1.28399,-2.09744 -0.15313,-0.912838 -0.89797,0.740179 -0.95689,0.695986 -0.36545,-0.274072 0.81315,-1.333684 0.48571,-2.262917 -0.99927,-2.835861 -0.86059,-0.332036 -1.64128,-0.387707 -5.43687,-0.387707 -4.93401,0 -5.64336,0.132567 -6.56878,1.227608 -2.2655,2.680746 -3.51548,11.500395 -1.86397,13.151904 0.62282,0.622827 0.9857,0.622723 2.31238,-6.48e-4 z"
       id="path180" /><path
       style="fill:#ffffff;stroke:#ffffff;stroke-width:1.96274"
       d="m 464.04718,88.342335 c -1.424,-0.459086 -2.74152,-1.324421 -2.88462,-1.894594 -0.1412,-0.562567 -2.51165,-2.563199 -3.19059,-2.69281 -0.23215,-0.04432 -0.42209,-0.184664 -0.42209,-0.311877 0,-0.23664 12.68877,-11.376712 18.35112,-16.111318 3.62619,-3.032059 7.69452,-6.128109 8.05256,-6.128109 0.34288,0 3.56772,3.426276 5.23744,5.564592 1.63468,2.093436 2.29847,3.413825 1.99824,3.974807 -0.35389,0.661253 -13.42384,12.149173 -17.04571,14.982445 -1.0012,0.783206 -2.43206,1.735576 -3.17968,2.116377 -1.26596,0.644816 -1.51961,0.695621 -3.69332,0.739785 -1.51356,0.03075 -2.64663,-0.05336 -3.22335,-0.239298 z"
       id="path181" /><path
       style="fill:#ffffff;stroke:#ffffff;stroke-width:9.3"
       d="m 219.62941,418.34282 c 3.58185,-0.29518 68.28803,-40.65752 72.25025,-51.728"
       id="path182" /><path
       style="fill:#ffffff;stroke:#000000;stroke-width:9.3"
       d="m 238.05543,396.90178 c 0,0 39.65763,-27.49708 45.65814,-33.74213 6.0005,-6.24506 16.12955,8.46561 16.12955,8.46561 v 0"
       id="path183" /><path
       style="fill:#000000;stroke:none;stroke-width:1.96274"
       d="M 62.626926,509.03247 C 61.342074,508.63813 54.036275,500.74938 37.132435,481.50371 21.861576,464.11726 8.4113148,448.36304 3.8426959,442.51166 c -1.4702296,-1.88302 -2.0444801,-3.00964 -2.0476195,-4.01717 -0.00257,-0.82412 0.9980311,-2.2447 2.93092,-4.16113 2.8344668,-2.81035 22.3286976,-19.9908 54.4738516,-48.00836 39.433852,-34.37036 56.540422,-49.34906 68.694632,-60.14977 9.40496,-8.35763 10.66185,-9.55413 11.73097,-11.16734 1.02906,-1.55276 2.74794,-5.07059 3.25823,-6.66824 1.16835,-3.65794 3.11946,-6.25399 9.19978,-12.24072 l 4.82278,-4.74856 1.16947,-7.49217 c 2.42166,-15.51423 3.34356,-20.14797 5.10158,-25.64221 1.07888,-3.37175 2.56543,-6.345 3.90588,-7.81217 2.295,-2.51194 19.67098,-17.94997 38.26555,-33.99777 9.80463,-8.46175 13.99803,-11.9038 15.16318,-12.4463 1.50631,-0.70136 2.8511,-0.67436 4.46419,0.0896 2.56916,1.21676 5.00129,3.53146 10.80719,10.28532 5.69964,6.63025 7.65438,8.01742 9.71658,6.89534 1.14422,-0.62258 11.75275,-9.59326 19.07606,-16.13089 6.11783,-5.46146 7.38466,-7.08672 7.7978,-10.00391 0.40378,-2.8513 1.61821,-4.22483 13.1667,-14.89174 0.58377,-0.53921 4.38538,-3.93258 8.44804,-7.54082 l 7.38664,-6.56044 8.75366,-0.004 8.75364,-0.004 -0.5228,0.49579 c -0.28756,0.27268 -2.9446,2.62129 -5.90453,5.21913 -5.6236,4.93566 -19.38897,17.15074 -21.21022,18.82145 -1.34745,1.23609 -1.21485,1.50634 1.18,2.40468 1.80954,0.67879 6.24516,1.76134 7.21684,1.76134 1.13668,0 5.07992,-3.03327 14.24795,-10.95997 11.31902,-9.78642 11.44928,-9.8642 17.0145,-10.15825 1.86686,-0.0986 4.35228,-0.18344 5.52315,-0.18843 l 2.12885,-0.009 4.20256,-3.68291 4.20255,-3.68291 14.77329,0.002 14.77329,0.002 2.00495,2.44939 c 5.20155,6.3546 14.42012,16.6681 16.28791,18.22248 1.36912,1.1394 2.07301,1.41605 2.78153,1.09323 0.25643,-0.11683 6.05756,-5.06738 12.89141,-11.00123 l 12.42522,-10.78882 h 7.89614 7.89615 l -5.02735,4.3869 c -23.61679,20.60817 -33.59777,28.85977 -37.11245,30.68203 -1.29017,0.66893 -1.37275,0.68389 -2.35393,0.42635 -1.64988,-0.43305 -3.07303,-1.59244 -6.89877,-5.62018 -5.30774,-5.58799 -9.95314,-10.24773 -10.21621,-10.24773 -0.75667,0 -14.64525,11.94419 -55.39405,47.639 l -17.67519,15.48296 v 6.49893 6.49894 l -5.00711,4.51882 c -7.47792,6.74865 -13.87421,12.68879 -13.93894,12.9449 -0.0315,0.12476 5.09493,5.26031 11.39213,11.41233 19.02715,18.58844 25.68087,25.15686 38.4723,37.97911 13.16769,13.19939 18.57011,18.87611 19.14699,20.11912 0.22107,0.47635 0.36596,1.3102 0.36933,2.12542 l 0.006,1.34154 -1.53009,1.58429 c -3.66331,3.79308 -16.98795,16.05301 -23.87999,21.97181 -5.67952,4.87755 -6.82074,5.59907 -8.88505,5.61756 -2.17811,0.0195 -3.42504,-0.80204 -8.2615,-5.44319 -1.40977,-1.35284 -2.62283,-2.45972 -2.69566,-2.45972 -0.0729,0 -3.00316,2.63775 -6.51179,5.86164 -15.70534,14.43079 -18.2883,16.46901 -36.87565,29.09872 -20.66235,14.03963 -31.63489,21.07773 -36.8277,23.62234 -3.60342,1.76577 -5.1218,2.22838 -7.70322,2.34703 -9.61418,0.44183 -14.99859,-6.06973 -26.21249,-31.69972 -0.81259,-1.85721 -3.12121,-7.31805 -5.13028,-12.1352 -9.13193,-21.89568 -9.13278,-21.89731 -11.33334,-21.68586 -2.6613,0.25572 -5.55511,2.41379 -21.11496,15.74662 l -7.54705,6.46686 -25.0945,37.56636 c -31.034163,46.45801 -36.670446,54.72812 -44.085092,64.68591 -8.491227,11.40362 -12.73245,15.51005 -16.254706,15.73806 -0.657939,0.0426 -1.505481,-0.0174 -1.883426,-0.13346 z m 3.295877,-14.63282 c 0.545499,-1.13815 -0.145201,-2.48202 -3.319702,-6.45901 -5.404552,-6.77078 -18.319299,-20.8427 -22.686612,-24.71934 -1.73335,-1.5386 -2.256209,-1.88535 -3.123331,-2.07132 -1.425829,-0.30579 -2.286975,-0.2851 -2.286975,0.0549 0,0.49397 4.950417,6.44499 13.813446,16.60547 10.763586,12.33926 15.824871,17.48172 16.985749,17.25815 0.179863,-0.0346 0.457702,-0.33564 0.617425,-0.66889 z m 7.520013,-16.90583 c 2.855802,-4.37657 8.783139,-14.01969 17.512813,-28.49135 30.262621,-50.16804 44.821661,-72.88158 49.481111,-77.19541 1.51054,-1.39849 2.72846,-2.152 4.54287,-2.8106 1.80186,-0.65403 3.89152,-0.90551 9.22076,-1.10965 l 4.56805,-0.17498 1.55231,-0.74157 c 0.88045,-0.42061 2.87681,-1.77014 4.61249,-3.11803 3.78492,-2.93927 5.56876,-4.15617 7.56907,-5.16348 1.78033,-0.89653 4.29441,-1.59867 5.70789,-1.59412 1.40816,0.005 3.41967,0.53 4.92801,1.28733 6.49178,3.25953 8.99358,7.16478 15.05948,23.50757 3.62783,9.77409 8.2317,20.42582 12.60092,29.15401 3.6387,7.2689 5.98635,11.05247 7.38821,11.90727 1.82872,1.11507 5.31055,0.0105 11.13218,-3.53138 3.90152,-2.37373 32.79455,-21.48353 37.76099,-24.97507 11.0727,-7.78439 18.21451,-13.43449 23.74278,-18.78369 3.29158,-3.18494 5.6365,-5.2732 5.92135,-5.2732 0.0912,0 0.33242,0.15081 0.5361,0.33514 0.34392,0.31125 0.63093,0.15114 4.0265,-2.24617 2.01092,-1.41972 3.74237,-2.65865 3.84771,-2.75318 0.27862,-0.25007 -2.68663,-3.80823 -5.12038,-6.14419 -3.0364,-2.91441 -6.37848,-5.01446 -8.80341,-5.53177 -0.6103,-0.1302 -5.29432,-4.95846 -34.47157,-35.53306 -17.94062,-18.79983 -17.36826,-18.22111 -17.72258,-17.91972 -0.18828,0.16015 -3.0934,2.70435 -6.45583,5.65377 -12.33525,10.82012 -15.52162,14.10509 -15.51693,15.99716 0.003,1.33796 1.32533,4.69463 2.84495,7.22355 3.14186,5.22857 9.37779,14.42822 12.74771,18.80623 1.69386,2.20055 2.19153,3.56678 2.09677,5.7561 -0.11232,2.59551 -0.73831,3.74595 -4.44632,8.17165 l -0.78963,0.94247 4.35422,8.42233 c 2.39483,4.63228 5.19568,9.98104 6.22409,11.88614 1.02843,1.9051 1.86673,3.51961 1.86287,3.5878 -0.004,0.0682 -1.06497,0.88485 -2.35803,1.81479 -1.29306,0.92993 -2.33374,1.78467 -2.31259,1.89942 0.0649,0.35249 5.19309,7.4667 5.39082,7.47858 0.10206,0.006 1.0298,-0.60615 2.06165,-1.36064 1.03183,-0.7545 1.96593,-1.37181 2.07575,-1.37181 0.10983,0 0.29007,0.1689 0.40055,0.37533 0.17363,0.32442 -0.41066,0.76804 -4.30842,3.27123 -2.4801,1.59275 -4.55547,2.8959 -4.61195,2.8959 -0.13308,0 -2.34437,-3.68879 -4.61781,-7.70322 -6.43415,-11.36146 -14.11185,-26.8253 -15.19359,-30.60181 -0.44332,-1.54773 -0.0291,-3.05709 1.86338,-6.79019 1.68223,-3.31832 1.85174,-4.06663 1.18961,-5.25134 -0.19828,-0.35475 -1.60719,-2.44411 -3.13091,-4.64304 -4.46706,-6.44651 -9.64453,-14.65992 -12.19132,-19.34003 -0.89641,-1.64728 -1.73361,-2.70252 -2.14411,-2.70252 -0.28688,0 -4.5045,3.49726 -10.43579,8.6534 -10.45363,9.08747 -13.27365,11.51342 -16.62548,14.30221 -6.66445,5.54497 -11.23282,9.01531 -13.12199,9.96804 -3.67199,1.85182 -6.47413,1.68303 -9.5547,-0.57556 -3.71903,-2.72668 -14.94959,-15.65154 -16.84565,-19.38706 -0.63022,-1.24164 -0.6654,-1.42434 -0.52561,-2.72969 l 0.14982,-1.39897 -0.53108,0.0686 c -0.67144,0.0867 -11.8193,9.64422 -54.589164,46.80163 -50.132896,43.55421 -66.176253,57.63889 -66.377818,58.27395 -0.354818,1.11794 0.232497,1.92963 5.385238,7.44258 l 2.849134,3.04832 4.643034,0.14216 c 10.891753,0.33352 12.913881,0.8135 16.915294,4.01502 2.20359,1.76309 4.553604,4.23806 11.233645,11.83094 6.61179,7.51532 13.44519,15.01607 13.924349,15.28423 0.505837,0.28308 0.741283,0.0165 2.878184,-3.25831 z M 322.09785,366.55199 c 6.48239,-4.92486 18.00438,-15.31371 18.00438,-16.23371 0,-0.18831 -1.73323,-2.18253 -3.85161,-4.4316 -4.13194,-4.38686 -34.52123,-35.20704 -36.58755,-37.10635 -0.68346,-0.6282 -4.66484,-4.52201 -8.84756,-8.65293 -9.16465,-9.05118 -13.70414,-13.31454 -14.17689,-13.31454 -1.02478,0 -18.63367,15.23722 -18.63367,16.12397 0,0.56629 9.76406,10.99527 37.5304,40.08617 15.1219,15.84326 23.9869,24.62086 24.86602,24.62086 0.14263,0 0.90605,-0.49134 1.69648,-1.09187 z M 161.37638,345.76457 c 4.87411,-3.75848 13.68744,-11.30421 40.38454,-34.57616 27.57855,-24.0403 30.74092,-26.71033 32.96561,-27.83342 1.84828,-0.93306 3.40703,-0.0439 8.65164,4.9352 4.14148,3.93183 5.87483,5.27617 6.80284,5.27617 0.99682,0 7.33429,-5.36863 34.57414,-29.28869 l 8.49464,-7.45938 10e-4,-4.36627 c 6.7e-4,-2.40146 0.0918,-4.91909 0.20241,-5.59474 0.30258,-1.84758 1.0721,-3.31214 2.46225,-4.68622 2.89603,-2.86255 22.47789,-20.10432 56.15236,-49.44201 9.88937,-8.61576 18.03228,-15.74853 18.09536,-15.85062 0.11582,-0.18738 -8.08327,-10.11178 -8.3751,-10.13746 -0.0865,-0.008 -1.13119,0.87383 -2.32152,1.95876 -3.2795,2.98915 -12.65355,11.16231 -15.03809,13.11161 -4.65648,3.80653 -4.9401,3.91001 -10.7168,3.91001 h -4.29041 l -1.0438,0.66001 c -2.16781,1.37075 -6.7755,5.04529 -12.01824,9.58434 -3.54116,3.06585 -8.31472,6.96929 -10.34516,8.45947 -2.33963,1.71708 -2.6711,1.84046 -4.51987,1.68232 -2.50097,-0.21394 -6.22905,-0.88645 -11.72147,-2.11446 l -5.0597,-1.13126 -2.3437,2.0349 c -27.52232,23.8962 -28.79658,25.02502 -28.79658,25.50962 0,0.73553 0.72159,2.03316 2.37892,4.27796 1.95516,2.64821 2.71681,4.28321 2.84774,6.11304 0.17348,2.42447 -0.25351,3.31916 -2.77457,5.81382 -2.76552,2.73658 -17.2387,15.45162 -42.86759,37.66027 -25.91075,22.45289 -29.90441,25.81166 -31.67687,26.6411 -2.46934,1.15554 -4.56373,0.73515 -7.05025,-1.41512 -1.36683,-1.182 -4.94236,-5.01956 -6.80941,-7.30842 -1.67391,-2.0521 -2.02605,-2.23374 -3.21484,-1.65826 -1.15247,0.5579 -5.75683,4.38309 -7.32934,6.08903 -2.0965,2.27442 -2.82221,3.83932 -4.90817,10.58392 -3.45558,11.17304 -4.28865,15.67098 -3.30296,17.83347 1.11275,2.44125 9.69256,11.92415 10.78857,11.92415 0.0937,0 0.86864,-0.5385 1.72219,-1.19668 z m 20.8067,-49.96875 c 6.67113,-5.39337 31.7033,-27.08546 49.32694,-42.74514 10.36653,-9.21131 13.62106,-12.23008 13.62106,-12.63436 0,-0.9318 -3.15576,-4.75337 -4.50083,-5.45043 -0.53505,-0.27728 -0.65456,-0.27144 -1.16076,0.0567 -2.68331,1.73926 -49.00332,41.99925 -61.71516,53.641 -2.72598,2.4965 -3.32399,3.14716 -3.32399,3.61658 0,1.50507 3.52049,5.71338 4.78296,5.71743 0.135,4.4e-4 1.4714,-0.99035 2.96978,-2.20174 z m -9.52234,-18.5241 c 2.97406,-2.27691 16.5552,-13.99475 44.66965,-38.54108 l 13.88109,-12.11939 -0.57686,-0.76482 c -2.31664,-3.07138 -5.40306,-6.73595 -5.93226,-7.04346 -1.50539,-0.87477 -3.59155,-0.2097 -6.79634,2.16667 -2.86627,2.12537 -10.2102,8.39331 -24.58698,20.98467 -14.89605,13.04614 -18.36378,16.81452 -19.91658,21.64338 -0.98238,3.05501 -2.13783,9.59057 -2.13783,12.09227 0,2.16587 0.25532,2.45514 1.39611,1.58176 z"
       id="path184" /><path
       style="fill:#000000;stroke:none;stroke-width:3.92547"
       d="m 302.44541,165.30993 c 0.33994,-0.31514 8.21576,-7.20511 17.50183,-15.31103 73.68487,-64.320402 92.10575,-79.931299 94.31902,-79.931299 0.83337,0 2.12945,-1.271921 2.12945,-2.089758 0,-1.371311 12.70053,-13.245811 35.0338,-32.755244 22.1552,-19.353874 26.82046,-22.981874 29.55247,-22.981874 1.87541,0 4.20566,1.703896 7.5918,5.551168 12.75923,14.49678 12.65708,14.365977 12.45856,15.954285 -0.10303,0.824268 -0.30207,3.197665 -0.44232,5.274215 -0.14024,2.07655 -0.49814,4.357482 -0.79531,5.068737 -0.29718,0.711254 -1.99376,2.960151 -3.77016,4.997547 -1.7764,2.037396 -3.22983,3.875266 -3.22983,4.084155 0,0.371974 2.3465,3.392585 7.5517,9.721171 3.01154,3.661488 4.71066,6.790657 4.37801,8.062709 -0.36213,1.38481 -4.22919,5.329645 -14.04018,14.322577 -4.99126,4.575085 -9.50079,8.780821 -10.02117,9.346085 l -0.94616,1.027757 2.16701,3.521273 c 1.19186,1.936706 2.4342,4.395416 2.76076,5.463796 0.76474,2.50196 1.72302,19.83348 1.11867,20.23255 -0.23498,0.15516 -10.74062,9.30437 -23.34588,20.33158 -12.60527,11.02721 -23.16939,20.19634 -23.47584,20.37586 -0.30645,0.17951 -3.87324,0.27448 -7.9262,0.21104 l -7.36901,-0.11534 23.42589,-20.47156 c 12.88424,-11.25936 24.33857,-21.43595 25.45407,-22.61464 1.65016,-1.74365 2.12219,-2.59598 2.53264,-4.5731 0.89679,-4.31982 -0.19931,-9.81388 -2.6357,-13.21111 -2.39993,-3.3464 -5.97538,-4.930532 -16.0464,-7.109512 l -5.39389,-1.167031 -1.14857,1.059148 c -0.63171,0.582528 -13.2099,11.587475 -27.95153,24.455425 -30.98971,27.05087 -46.85244,41.20081 -46.85244,41.79351 0,0.22937 0.19663,0.78443 0.43695,1.23348 0.42798,0.79968 0.14492,0.81643 -13.79403,0.81643 h -14.23098 l 1.85174,-1.58285 c 23.11058,-19.75479 76.98326,-67.354649 77.76107,-68.706725 0.38272,-0.665301 -1.49381,-3.232025 -5.97302,-8.169904 -1.76506,-1.945794 -3.69714,-4.113867 -4.29351,-4.817945 l -1.08433,-1.280144 -21.70875,18.942818 c -11.93981,10.41856 -33.71495,29.44401 -48.38919,42.27879 l -26.68044,23.33596 h -8.54933 c -7.22273,0 -8.45343,-0.0889 -7.93127,-0.573 z M 472.34624,88.437481 c 2.57494,-1.509015 17.63204,-14.399474 19.48535,-16.681504 1.28383,-1.580818 -0.13118,-4.360087 -4.64622,-9.125773 -2.65511,-2.802506 -2.7565,-2.863005 -3.91426,-2.335493 -1.69308,0.771419 -6.8832,4.905593 -15.16888,12.082723 -12.35937,10.705794 -12.88421,11.34067 -10.44683,12.637072 0.63842,0.339562 1.85314,1.365546 2.69939,2.279966 1.83556,1.98342 3.80188,2.628409 7.41407,2.431937 1.90771,-0.103764 3.15378,-0.454638 4.57738,-1.288928 z M 447.71077,76.960206 c 3.78645,-3.173619 11.06318,-9.393761 16.17052,-13.822544 19.92908,-17.281319 27.22506,-23.960623 27.22506,-24.923916 0,-0.666791 -1.82214,-3.184803 -6.04286,-8.350597 -3.70649,-4.536432 -4.37276,-4.850871 -6.76585,-3.193061 -3.42083,2.36978 -15.07819,12.352409 -33.41058,28.610717 -12.01866,10.658898 -15.82853,14.313333 -15.82853,15.182767 0,1.475737 9.81506,12.266848 11.15731,12.266848 0.33576,0 3.70848,-2.596595 7.49493,-5.770214 z"
       id="path185" /><path
       style="fill:#000000;stroke:none;stroke-width:1.38786"
       d="m 282.34838,238.70181 c -2.91965,-0.63944 -6.74257,-3.54637 -8.46271,-6.435 -2.40858,-4.04472 -2.31007,-8.86626 0.26656,-13.04688 1.42438,-2.31107 3.17439,-3.94151 5.36073,-4.99446 1.99622,-0.96139 3.0525,-1.18908 5.44699,-1.17416 1.73336,0.0108 2.20114,0.0686 3.35038,0.41392 4.90005,1.47238 8.38129,5.23087 9.41057,10.16006 0.33661,1.61204 0.33676,4.17424 3.2e-4,5.52161 -1.15902,4.64157 -5.12494,8.37485 -10.07508,9.48405 -1.4914,0.33419 -3.94556,0.36701 -5.29776,0.0709 z m 4.33981,-9.31574 c 2.02258,-0.9186 2.91935,-3.38936 1.9064,-5.25245 -0.86283,-1.58699 -3.16046,-2.60115 -4.72399,-2.08514 -0.99167,0.32728 -2.13371,2.00177 -2.63421,3.86232 -0.22655,0.84221 -0.013,1.50221 0.68429,2.1144 1.69578,1.48891 3.4089,1.97792 4.76751,1.36087 z"
       id="path186" /><path
       style="fill:#000000;stroke:none;stroke-width:0.693932"
       d="m 237.51047,391.07955 -0.21041,-0.34836 0.32579,-0.29179 c 0.17918,-0.16049 1.16522,-0.92295 2.19119,-1.69435 2.46652,-1.85451 2.2363,-1.65408 2.12938,-1.85386 -0.0492,-0.092 -0.0744,-0.18242 -0.0559,-0.20093 0.0185,-0.0185 0.19752,0.26129 0.39779,0.62178 l 0.36413,0.65544 -2.12657,1.48405 c -1.16961,0.81622 -2.27922,1.59482 -2.46579,1.73021 l -0.33922,0.24617 z"
       id="path187" /><path
       style="fill:#000000;stroke:none;stroke-width:0.693932"
       d="m 301.85117,366.53467 c -0.42574,-0.52138 -0.88627,-1.1167 -1.02338,-1.32292 -0.60968,-0.91699 -2.2815,-2.81765 -4.82563,-5.48619 -0.3717,-0.38987 -0.97869,-1.02784 -1.34888,-1.41771 -0.37018,-0.38987 -1.79621,-1.88406 -3.16896,-3.32043 -6.23211,-6.52092 -7.00937,-7.34061 -7.00937,-7.39201 0,-0.0301 1.40185,1.35431 3.11523,3.07641 2.25926,2.27077 3.20749,3.17518 3.45101,3.29153 0.18467,0.0882 0.62674,0.24868 0.98237,0.35652 1.50057,0.45507 3.6618,1.69845 5.62118,3.23395 1.91487,1.50061 4.448,4.0667 6.41601,6.49949 0.50936,0.62965 1.08293,1.46275 1.08293,1.57293 0,0.0475 -1.37419,1.06705 -2.28519,1.6955 l -0.23324,0.1609 z"
       id="path188" /></g></svg>
