<?xml version="1.0" encoding="UTF-8" standalone="no"?>
<!-- Created with Inkscape (http://www.inkscape.org/) -->

<svg
   width="512"
   height="512"
   viewBox="0 0 512 512"
   version="1.1"
   id="svg1"
   xml:space="preserve"
   xmlns="http://www.w3.org/2000/svg"
   xmlns:svg="http://www.w3.org/2000/svg"><defs
     id="defs1" /><g
     id="g786"><path
       style="fill:#d0d0d0;fill-opacity:1"
       d="m 137.85647,361.43429 c -1.1608,-1.64783 -1.12366,-1.68134 0.39644,-0.35768 1.59648,1.39018 2.08335,2.23748 1.2614,2.19522 -0.20738,-0.0107 -0.95341,-0.83756 -1.65784,-1.83754 z M 121.175,353.6344 c 0.73575,-0.25143 1.59529,-0.17166 1.91008,0.17725 0.3148,0.34891 -0.28719,0.55463 -1.33773,0.45714 -1.16095,-0.10773 -1.38542,-0.35654 -0.57235,-0.63439 z m 47.92667,-9.36852 c 0.10507,-1.64678 0.35734,-2.18848 0.56059,-1.20378 0.20325,0.98471 0.11729,2.33207 -0.19104,2.99415 -0.30832,0.66207 -0.47462,-0.14359 -0.36955,-1.79037 z"
       id="path793" /><path
       style="fill:#b9b9b9;fill-opacity:1"
       d="m 160.01081,435.73665 c 0.73575,-0.25142 1.59529,-0.17166 1.91008,0.17725 0.31479,0.34892 -0.28719,0.55463 -1.33773,0.45714 -1.16095,-0.10773 -1.38543,-0.35654 -0.57235,-0.63439 z m -39.40059,-71.11676 c 0.73575,-0.25143 1.59529,-0.17166 1.91008,0.17725 0.3148,0.34892 -0.28718,0.55463 -1.33773,0.45714 -1.16094,-0.10773 -1.38542,-0.35654 -0.57235,-0.63439 z m 59.47694,-19.78923 c 0.10507,-1.64678 0.35734,-2.18848 0.56059,-1.20378 0.20325,0.98471 0.11729,2.33207 -0.19103,2.99414 -0.30833,0.66208 -0.47463,-0.14359 -0.36956,-1.79036 z M 141.55131,210.49179 c 0.73576,-0.25142 1.59529,-0.17166 1.91009,0.17725 0.31479,0.34892 -0.28719,0.55463 -1.33774,0.45714 -1.16094,-0.10773 -1.38542,-0.35654 -0.57235,-0.63439 z M 400.04147,46.937842 c 0.42567,-0.965639 1.01259,-1.491197 1.30426,-1.167908 0.29167,0.323289 -0.0566,1.113357 -0.77395,1.755706 -1.03664,0.928267 -1.14546,0.807657 -0.53031,-0.587798 z"
       id="path792" /><path
       style="fill:#a3a3a3;fill-opacity:1"
       d="m 56.831486,396.40803 c 0.700836,-0.24175 1.824352,-0.18399 2.496702,0.12836 0.67235,0.31234 0.09894,0.51014 -1.274248,0.43954 -1.373187,-0.0706 -1.923291,-0.32615 -1.222454,-0.5679 z M 411.57977,22.107523 c 0.73575,-0.251426 1.59529,-0.171663 1.91008,0.177251 0.3148,0.348915 -0.28719,0.554627 -1.33773,0.457138 -1.16095,-0.107732 -1.38542,-0.356542 -0.57235,-0.634389 z"
       id="path791" /><path
       style="fill:#8c8c8c;fill-opacity:1"
       d="m 303.44033,216.81207 c 0.73575,-0.25142 1.59529,-0.17166 1.91008,0.17725 0.3148,0.34892 -0.28718,0.55463 -1.33773,0.45714 -1.16094,-0.10773 -1.38542,-0.35654 -0.57235,-0.63439 z"
       id="path790" /><path
       style="fill:#767676;fill-opacity:1"
       d="m 160.19189,316.52183 c -1.16079,-1.64783 -1.12365,-1.68134 0.39644,-0.35768 0.92248,0.80327 1.66851,1.63017 1.65785,1.83755 -0.0423,0.82195 -0.83517,0.25075 -2.05429,-1.47987 z M 115.28225,263.8966 c 0.18355,-3.57029 0.4399,-5.02154 0.56966,-3.22501 0.12975,1.79654 -0.0204,4.71768 -0.33374,6.49143 -0.31331,1.77375 -0.41947,0.30386 -0.23592,-3.26642 z"
       id="path789" /><path
       style="fill:#606060;fill-opacity:1"
       d="m 114.64851,276.38053 c 0.20211,-3.8447 0.45719,-5.28596 0.56685,-3.20282 0.10967,2.08315 -0.0557,5.22881 -0.36746,6.99035 -0.31177,1.76155 -0.40149,0.0572 -0.19939,-3.78753 z"
       id="path788" /><path
       style="fill:#494949;fill-opacity:1"
       d="m 77.590932,453.96208 -2.766351,-3.39651 3.094913,3.10008 c 2.884893,2.88971 3.521827,3.74868 2.750285,3.70901 -0.171872,-0.009 -1.557354,-1.54449 -3.078847,-3.41258 z M 172.74084,306.15246 c -1.16079,-1.64783 -1.12365,-1.68134 0.39645,-0.35768 0.92247,0.80327 1.6685,1.63017 1.65784,1.83755 -0.0423,0.82195 -0.83517,0.25075 -2.05429,-1.47987 z m 32.61756,-7.16809 c 0.10773,-1.16095 0.35654,-1.38542 0.63439,-0.57235 0.25143,0.73575 0.17166,1.59529 -0.17725,1.91008 -0.34892,0.3148 -0.55463,-0.28719 -0.45714,-1.33773 z m 39.67284,-44.68867 -1.78695,-2.34484 2.14922,2.018 c 2.01974,1.89642 2.56844,2.73048 1.76924,2.6894 -0.18951,-0.01 -1.14869,-1.0729 -2.13151,-2.36256 z"
       id="path787" /><path
       style="fill:#333333;fill-opacity:1;stroke-width:1.05511"
       d="m 76.894856,508.6623 c -1.166743,-0.31263 -3.327485,-1.68043 -4.80165,-3.03956 C 70.619042,504.26362 55.176043,483.40269 37.775431,459.2651 4.4312073,413.01104 3.1614888,410.80975 5.4896149,403.2918 6.1256968,401.23778 14.614983,387.84357 24.354694,373.5269 34.094406,359.2102 48.704632,337.71573 56.821863,325.76136 64.939095,313.807 72.77926,303.3259 74.244451,302.47003 c 4.175447,-2.43902 10.70832,-2.34558 14.862408,0.21258 4.232209,2.60629 6.972503,7.61938 10.371365,18.97336 1.368696,4.5722 2.750786,8.3278 3.071306,8.34579 0.79025,0.0444 6.03116,-17.96754 7.09515,-24.38453 0.87162,-5.25685 3.47677,-10.40688 7.63048,-15.08442 3.43022,-3.86285 4.57024,-9.1822 5.42831,-25.32874 0.42565,-8.00944 1.31379,-15.45215 1.97466,-16.54778 0.97579,-1.6177 0.615,-2.80256 -1.92346,-6.31664 -3.05296,-4.22634 -3.10366,-4.52521 -2.21357,-13.0465 0.63568,-6.08566 1.54227,-9.58292 3.00008,-11.57305 2.29164,-3.12845 6.99425,-5.66129 10.20464,-5.49623 1.12963,0.0581 4.60535,-1.42723 7.72382,-3.30066 3.40184,-2.04368 6.9984,-3.35528 8.99085,-3.27883 2.76647,0.10615 11.809,-6.02647 54.16131,-36.7321 37.98972,-27.54272 51.77739,-36.98592 54.54737,-37.35955 5.53579,-0.74671 10.10305,1.55663 15.29649,7.71428 3.11666,3.6953 5.0823,5.23565 5.93408,4.65016 8.35116,-5.74035 132.79218,-95.986452 135.43535,-98.219327 1.97423,-1.667783 3.64136,-4.00611 3.70472,-5.196285 0.0634,-1.190173 1.16493,-3.702087 2.44793,-5.58203 l 2.33273,-3.418078 -3.97863,-5.744378 c -2.18824,-3.159408 -3.93683,-6.557108 -3.88577,-7.550443 0.11494,-2.235719 5.92422,-7.199951 11.28272,-9.641476 5.0814,-2.3152716 9.59718,-2.077367 17.77476,0.9364202 6.29285,2.3191958 6.57382,2.3376058 9.30714,0.6098548 8.46183,-5.348781 15.25646,-2.5466977 24.16634,9.966124 3.52193,4.946123 7.03575,10.755432 7.80845,12.909576 0.77272,2.154144 2.35861,4.274171 3.52419,4.711171 2.93011,1.098544 18.79167,23.407088 19.95349,28.06364 1.4381,5.763889 -1.22214,10.194864 -10.05571,16.74912 -8.02662,5.95551 -12.50487,7.256541 -17.69752,5.141509 -1.78714,-0.727927 -3.8041,-1.030103 -4.48214,-0.671503 -0.67802,0.358599 -13.48874,9.524718 -28.46824,20.369155 l -27.23545,19.71716 0.43031,5.03176 c 0.8811,10.3028 0.67719,10.49765 -47.63157,45.5205 -23.94982,17.3631 -45.10901,32.13239 -47.02045,32.82061 -3.3443,1.20414 -11.01333,0.66249 -14.51507,-1.02517 -1.04167,-0.50203 -4.17178,1.04669 -8.95365,4.43013 -6.18139,4.37366 -7.10434,5.40464 -5.79616,6.47459 0.85578,0.69992 17.61309,11.2066 37.23852,23.34815 l 35.68256,22.07554 -12.79518,26.87297 c -7.03735,14.78014 -13.01928,27.07519 -13.2932,27.32232 -0.40516,0.36551 -79.45613,-48.8445 -87.4892,-54.46291 l -2.31373,-1.61823 3.58822,-4.0232 3.58823,-4.02321 -1.99926,-2.98915 c -1.09959,-1.64403 -2.71622,-3.16907 -3.59252,-3.38895 -1.74341,-0.43748 -30.88273,20.53981 -32.68725,23.53142 -1.81912,3.01582 -1.52856,6.63138 1.05602,13.1407 3.37209,8.49265 2.9825,16.53934 -1.16261,24.01316 -2.36466,4.2636 -5.02167,6.91716 -11.40705,11.39223 -19.33884,13.55324 -22.46453,17.10394 -22.924,26.04105 -0.60489,11.76567 5.2325,41.26189 9.307,47.02812 1.14773,1.62428 3.86518,3.22276 7.10153,4.1773 9.30993,2.74591 13.84517,10.71493 10.70443,18.80908 -0.75561,1.94735 -2.47561,4.43252 -3.82221,5.52263 -3.54538,2.87005 -19.45194,11.12539 -30.03265,15.58661 -10.5197,4.4355 -15.29347,4.63961 -22.02695,0.94178 -6.63975,-3.64636 -8.95902,-8.4324 -10.72062,-22.12316 -3.04418,-23.65857 -8.68059,-42.80409 -13.79717,-46.86566 -4.13638,-3.28348 -13.1912,-4.05041 -16.19985,-1.37212 -1.30365,1.16052 -6.50354,16.1859 -15.26587,44.11159 l -13.288773,42.35158 3.143987,5.23338 c 4.280496,7.12522 4.5419,10.71742 1.913707,26.29825 -2.327983,13.80108 -3.81411,17.30362 -8.476591,19.97785 -2.736042,1.56929 -8.777738,2.29204 -11.982174,1.43338 z m 6.235582,-10.49957 c 2.964865,-1.67178 6.792484,-25.28828 4.790419,-29.55701 -0.670489,-1.42958 -6.49002,-8.57533 -12.932291,-15.87944 C 61.39272,437.31161 51.902959,425.40707 36.89818,404.94335 24.699487,388.30662 26.365811,388.71524 18.894757,400.52856 c -3.545422,5.60606 -3.950191,6.82918 -3.030555,9.15757 1.088538,2.75602 61.666549,86.92101 63.64171,88.42158 1.399137,1.06295 1.825503,1.06943 3.624526,0.0549 z m 10.701463,-82.50168 c 4.978166,-16.01417 12.428909,-39.91618 16.557219,-53.11558 l 7.50602,-23.99893 -1.49404,-5.25436 c -0.82172,-2.8899 -1.72212,-4.67172 -2.00089,-3.95959 -0.27876,0.71214 -8.33878,26.19959 -17.911164,56.63879 l -17.40432,55.34398 2.044646,2.49624 c 1.124554,1.37293 2.406147,2.15197 2.847982,1.73118 0.441835,-0.42079 4.876382,-13.86757 9.854547,-29.88173 z m -17.444642,-0.63273 c 2.719351,-8.72158 5.180741,-16.43445 5.469755,-17.13971 0.334901,-0.81723 -1.347328,-0.56641 -4.638397,0.69158 -6.552066,2.50449 -16.651057,2.81148 -24.852565,0.75548 -3.511953,-0.88039 -6.595815,-1.41084 -6.85303,-1.17879 -0.597811,0.53935 24.087125,32.63413 25.141456,32.68833 0.433676,0.0223 3.013428,-7.09531 5.732781,-15.81689 z m 106.163491,12.60427 c 13.92988,-6.39826 24.50678,-12.15145 25.1966,-13.70543 0.90885,-2.04737 -1.2734,-4.39132 -5.03436,-5.40742 -5.6238,-1.51937 -10.71591,-5.01826 -12.73228,-8.74858 -2.24711,-4.15722 -6.93693,-21.47536 -8.75973,-32.34711 -0.69675,-4.15571 -1.07528,-12.53795 -0.84116,-18.6272 0.39473,-10.26639 0.65557,-11.43409 3.58753,-16.06025 3.70052,-5.83881 3.67732,-5.75274 1.57984,-5.86059 -2.75092,-0.14143 -9.74372,-4.67357 -14.13892,-9.16368 l -4.18548,-4.27585 -19.43375,13.96574 c -18.57175,13.34627 -19.51465,14.19588 -21.25762,19.15447 -3.94001,11.20895 -4.21802,10.34213 3.46008,10.7883 5.64382,0.32796 7.60827,0.96609 11.71214,3.80451 2.712,1.87575 5.89326,5.01001 7.06948,6.96501 4.38485,7.28812 10.66511,31.31508 12.64574,48.38002 1.05151,9.05971 2.20862,12.29551 4.93071,13.78859 3.93823,2.16015 6.71763,1.70544 16.20118,-2.65053 z M 72.493316,389.05254 c 3.153231,-0.8966 7.219217,-3.27349 10.382408,-6.06935 4.874522,-4.30846 5.409902,-5.2924 8.568555,-15.7476 1.853042,-6.13359 3.445814,-12.70766 3.539494,-14.60902 0.274477,-5.57087 -2.823237,-20.22067 -6.488908,-30.68754 -3.675308,-10.49438 -5.886894,-12.6949 -9.410211,-9.36312 -1.866055,1.76461 -45.64378,65.91683 -45.697708,66.96578 -0.0412,0.80128 12.403877,6.93956 17.511623,8.63724 6.687709,2.22283 15.583943,2.58273 21.594747,0.87361 z m -6.338674,-26.26595 c -0.659699,-0.73121 -1.136069,-2.56232 -1.058601,-4.06912 0.170346,-3.31341 2.030515,-5.17812 5.01258,-5.0248 2.982063,0.15331 4.641199,2.19893 4.470852,5.51234 -0.170346,3.31341 -2.030516,5.17811 -5.012581,5.02481 -1.217041,-0.0626 -2.752554,-0.71204 -3.41225,-1.44323 z M 173.34377,295.87425 c 25.23866,-18.31372 64.93046,-47.05688 88.204,-63.87367 23.27353,-16.81681 42.49961,-31.05301 42.7246,-31.63601 0.22501,-0.58299 -3.92276,-7.03545 -9.21728,-14.3388 -5.29449,-7.30332 -12.64357,-17.53518 -16.33127,-22.73744 -3.6877,-5.20226 -7.03382,-9.47292 -7.43583,-9.49035 -0.65379,-0.0284 -14.54236,9.5872 -17.11778,11.85123 -0.63203,0.5556 0.22501,2.86104 2.21282,5.95253 5.16674,8.03544 4.80238,18.63699 -0.84865,24.69235 -1.58056,1.69364 -10.35186,8.52919 -19.49177,15.19011 -45.79885,33.37689 -72.7532,52.64694 -74.3367,53.14436 -2.83798,0.89148 -6.23929,-2.4705 -5.70256,-5.63662 0.35683,-2.10493 4.15696,-5.45034 16.2591,-14.31357 8.6864,-6.36162 16.29201,-12.0164 16.90138,-12.56616 1.15603,-1.04298 -6.30946,-12.60937 -8.20147,-12.70664 -0.53267,-0.0273 -11.28023,7.40102 -23.88348,16.50755 l -22.91502,16.55734 -1.28397,17.06306 c -1.12557,14.95789 -1.61187,17.6963 -3.94174,22.19575 -1.46177,2.82298 -3.60042,6.041 -4.75255,7.15116 -4.57906,4.41223 -4.74993,6.76525 -1.37155,18.88907 1.73583,6.22934 3.49024,11.34326 3.89865,11.36426 0.40843,0.021 21.39241,-14.94578 46.63107,-33.25951 z m -18.26991,-9.77668 c -2.22231,-3.54742 0.37679,-8.31135 4.42107,-8.10342 3.0594,0.15729 4.72437,2.1748 4.55257,5.51655 -0.27165,5.28375 -6.21147,6.99604 -8.97364,2.58687 z m 19.1662,-11.78266 c -0.65969,-0.7312 -1.13059,-2.66888 -1.04642,-4.30595 0.28107,-5.46712 8.68837,-5.82413 9.8094,-0.41653 0.96578,4.65861 -5.61901,8.20723 -8.76298,4.72248 z m 28.93467,41.67222 c 14.55926,-9.79662 17.78916,-17.65381 11.3867,-27.69971 -3.55686,-5.58098 -5.13989,-5.37691 -15.36978,1.98133 l -9.31436,6.69968 2.06573,2.4385 c 1.13614,1.34118 3.41719,2.809 5.06899,3.26183 3.44576,0.94464 5.3468,4.12949 4.23501,7.09494 -1.96635,5.24472 -9.68904,3.96378 -16.35678,-2.71303 l -4.00386,-4.00931 -2.37299,2.14093 -2.37298,2.14092 2.33053,2.75112 c 6.0317,7.12019 18.4811,10.09993 24.70379,5.9128 z m 149.27558,-27.32831 c 5.39972,-11.4214 8.79284,-19.78281 8.25893,-20.35188 -0.49843,-0.53124 -14.69543,-9.51642 -31.54891,-19.96706 l -30.64267,-19.00116 -11.63375,12.7764 c -6.39856,7.02702 -13.297,14.48707 -15.32984,16.57787 -3.22285,3.31473 -3.48232,3.93722 -2.0265,4.86186 49.98896,31.74953 72.42097,45.60924 73.01446,45.11224 0.40872,-0.34227 4.86745,-9.34599 9.90828,-20.00827 z m -22.39167,7.5281 c -0.98384,-0.64286 -1.75733,-1.7807 -1.71887,-2.52856 0.12611,-2.45317 12.8618,-26.90002 14.50291,-27.83915 2.11092,-1.20799 6.93637,1.27318 6.8215,3.50748 -0.0996,1.93687 -10.04763,22.59582 -12.51457,25.98878 -1.78489,2.45492 -4.21128,2.7531 -7.09097,0.87145 z m -24.08187,-14.50815 c -2.64893,-1.27887 -0.8129,-5.93883 6.75716,-17.15003 6.33385,-9.38043 8.2968,-11.56964 10.50633,-11.71747 3.31502,-0.22178 6.18067,2.64408 5.10423,5.10461 -0.42788,0.97806 -4.18463,6.83284 -8.34832,13.01059 -6.09371,9.04139 -8.07362,11.24617 -10.15055,11.30337 -1.41911,0.039 -3.16009,-0.20889 -3.86885,-0.55107 z m -21.8134,-14.58782 c -1.44554,-0.82918 -2.38195,-2.30224 -2.27593,-3.58022 0.0991,-1.19427 4.43898,-7.00616 9.64424,-12.91531 7.57725,-8.6019 9.99988,-10.71759 12.1514,-10.61181 2.9641,0.1457 5.12746,1.98792 5.01033,4.26652 -0.0884,1.71872 -18.77949,23.17601 -20.74675,23.81713 -0.72999,0.2379 -2.43246,-0.20144 -3.78329,-0.97631 z m -7.56607,-27.54403 c 6.82335,-7.52797 9.57682,-11.74543 6.14519,-9.41251 -5.37507,3.65413 -17.28853,12.61711 -17.30938,13.02255 -0.0264,0.51425 3.07161,4.52053 3.51327,4.54323 0.13704,0.007 3.57995,-3.66192 7.65092,-8.15327 z m -127.00637,-11.26773 6.80458,-5.01122 -2.4468,-3.48086 c -1.34573,-1.91449 -2.93689,-3.50608 -3.53592,-3.53688 -0.59904,-0.0308 -2.9051,1.23629 -5.12461,2.81575 -2.2195,1.57946 -5.93286,3.12112 -8.25191,3.4259 -2.31905,0.30478 -4.59177,1.06057 -5.0505,1.67951 -1.61258,2.17577 -1.45829,11.42285 0.22501,13.48666 1.80811,2.21684 1.15922,2.56699 17.38015,-9.37886 z m 72.17858,-19.47039 c 26.94387,-19.38313 27.43102,-19.81146 27.66296,-24.32308 0.18504,-3.59895 -3.21753,-10.83084 -5.14943,-10.94476 -0.52526,-0.0311 -12.99288,8.64513 -27.70584,19.28023 -23.54319,17.01794 -26.5997,19.55282 -25.49043,21.14012 5.8687,8.39777 8.18576,10.97536 9.22056,10.25738 0.64147,-0.44509 10.29944,-7.37954 21.46218,-15.40989 z m 72.85346,13.01437 c -0.69316,-0.76832 -2.76862,0.61363 -2.83408,1.88709 -0.0359,0.69872 0.57279,0.64987 1.61695,-0.12976 0.92101,-0.68767 1.46872,-1.47847 1.21713,-1.75733 z m -78.44494,-41.75594 c 38.06445,-27.5763 48.71286,-35.78079 47.88248,-36.89292 -0.58733,-0.7866 -1.68882,-1.46212 -2.44779,-1.50114 -0.75895,-0.039 -23.26359,15.75831 -50.0103,35.10515 -26.74671,19.34685 -48.7935,35.28797 -48.99288,35.42472 -0.19938,0.13675 0.12122,1.27605 0.71244,2.53178 0.68763,1.4605 1.58491,2.01507 2.49033,1.53914 0.77845,-0.4092 23.44302,-16.70223 50.36572,-36.20673 z M 368.519,169.35587 c 27.30896,-19.77984 43.16562,-31.92734 43.62674,-33.42167 0.89315,-2.89431 0.13599,-4.20523 -12.38312,-21.43981 l -9.9829,-13.74311 -2.87893,1.87927 c -8.66468,5.65599 -89.47843,64.87516 -89.85904,65.84741 -0.40534,1.0355 5.38711,9.45351 18.20564,26.45771 3.65628,4.85017 4.89671,5.80158 7.38202,5.66202 2.07438,-0.11649 16.09815,-9.66392 45.88959,-31.24182 z m -29.21475,-45.43083 c 44.70657,-32.394811 50.12164,-36.022825 52.9384,-35.467935 2.74455,0.540658 5.26066,-0.941207 20.07935,-11.8257 9.31789,-6.844097 17.0987,-12.911162 17.29068,-13.482367 0.19199,-0.571204 -1.13096,-2.960387 -2.93988,-5.309296 l -3.28894,-4.270742 -69.20469,50.12731 -69.20469,50.12732 2.14259,3.029 c 1.17842,1.66595 2.19747,3.05813 2.26454,3.09373 0.0671,0.0356 22.53226,-16.17399 49.92264,-36.02132 z m 101.27566,-23.15717 c 13.06557,-9.454476 25.60318,-18.674967 27.86137,-20.489987 l 4.10578,-3.300034 -2.79952,-3.611864 -2.79953,-3.611864 -26.77367,19.353964 c -14.72551,10.644678 -27.46468,19.953155 -28.30926,20.685505 -1.3049,1.13152 -1.18205,1.82909 0.81777,4.64348 1.29436,1.82154 2.7557,3.3589 3.24743,3.41632 0.49173,0.0574 11.58407,-7.63106 24.64963,-17.08552 z M 423.31265,88.313399 c 10.01809,-7.256725 19.38169,-14.049331 20.808,-15.094681 l 2.59329,-1.900633 -4.06742,-0.250974 c -3.66244,-0.225985 -5.89684,1.060108 -22.44075,12.916616 -10.10534,7.242178 -18.40541,13.791346 -18.4446,14.553719 -0.0846,1.644484 0.85993,2.842664 2.29911,2.916654 0.57071,0.0293 9.23428,-5.883974 19.25237,-13.140701 z m 71.06613,-14.541207 c 3.40721,-2.495798 6.06289,-5.014156 5.90153,-5.596353 -0.58082,-2.095523 -15.04749,-21.644503 -16.07566,-21.723228 -1.55192,-0.118825 -13.80852,8.855439 -13.49727,9.882684 0.55305,1.825346 15.71579,21.88419 16.57598,21.928414 0.49527,0.02546 3.68822,-1.99572 7.09542,-4.491517 z M 462.90156,47.542861 c 7.61811,-5.646576 13.87542,-10.739687 13.90516,-11.318028 0.0568,-1.105151 -10.41238,-16.049927 -12.25231,-17.490163 -1.67876,-1.314088 -2.73405,-0.702779 -19.06667,11.045013 -8.8183,6.342865 -15.4443,11.838754 -15.49647,12.853439 -0.0922,1.794469 8.49529,14.59063 11.51101,17.152384 2.11739,1.798642 3.59907,0.95096 21.39928,-12.242645 z m -24.47226,-25.607335 3.82275,-2.851169 -3.97187,-0.958572 c -2.35757,-0.568978 -5.04659,-0.534093 -6.61615,0.08583 -2.54703,1.005993 -2.58558,1.144885 -1.04831,3.776601 2.02506,3.466756 3.10456,3.459477 7.81358,-0.0527 z"
       id="path786" /><path
       style="fill:#ffffff;stroke:none;stroke-width:2.92145;stroke-linecap:round;stroke-dasharray:none"
       d="m 79.582764,497.84048 c -2.698055,-2.55252 -59.4625,-81.25638 -63.177538,-87.59562 -1.418581,-2.42062 -0.985115,-3.83642 3.261313,-10.6522 3.840515,-6.16427 4.879572,-7.41733 6.16498,-7.43474 1.117429,-0.0151 3.603004,2.83673 9.417805,10.80564 14.718972,20.17167 23.829724,31.69618 37.641464,47.61403 10.190082,11.74393 14.193781,16.68228 14.905044,18.38457 1.515107,3.62616 -1.031701,22.25006 -3.779135,27.63547 -1.033269,2.02538 -3.018569,2.58187 -4.433933,1.24285 z"
       id="path794" /><path
       style="fill:#ffffff;stroke:none;stroke-width:2.92145;stroke-linecap:round;stroke-dasharray:none"
       d="m 68.373461,428.1104 c -4.464204,-5.24432 -17.055497,-21.59823 -20.875149,-27.1132 -1.695756,-2.4484 -1.729321,-2.53088 -1.063691,-2.61365 0.378025,-0.047 2.37815,0.29782 4.444722,0.7663 5.912466,1.34031 7.631094,1.54358 13.027391,1.54079 5.910773,-0.003 8.380143,-0.37909 13.868112,-2.11176 2.038002,-0.64345 3.760871,-1.11449 3.828595,-1.04676 0.148455,0.14845 -6.817601,22.13223 -8.708536,27.48278 -0.737124,2.08574 -1.556622,4.22214 -1.821106,4.74754 l -0.480881,0.95527 z"
       id="path795" /><path
       style="fill:#ffffff;stroke:none;stroke-width:2.92145;stroke-linecap:round;stroke-dasharray:none"
       d="m 57.683553,389.59993 c -4.944089,-0.75792 -9.996034,-2.57014 -17.373152,-6.23206 -4.170398,-2.07014 -6.601354,-3.52041 -6.601354,-3.93826 0,-0.90499 40.604493,-60.5363 44.664486,-65.59376 2.9523,-3.67763 4.824888,-3.29673 7.227849,1.47022 3.99057,7.9164 9.049778,27.76926 9.130708,35.82983 0.02435,2.42538 -0.126581,3.58282 -0.849311,6.51308 -2.073182,8.40559 -4.658203,16.53428 -6.186161,19.45261 -2.465184,4.70838 -10.47078,10.64127 -16.345803,12.11375 -2.173399,0.54472 -11.002026,0.79316 -13.667262,0.38459 z m 15.005354,-26.01115 c 1.415991,-1.05544 1.892358,-2.2456 1.892358,-4.72789 0,-2.63616 -0.484466,-3.68943 -2.119759,-4.60851 -1.489213,-0.83699 -4.05935,-0.8142 -5.353008,0.0474 -1.426882,0.95039 -2.079775,2.4839 -2.066983,4.85491 0.01341,2.48583 0.626694,3.66196 2.383005,4.57004 1.58362,0.8188 4.069575,0.75457 5.264387,-0.136 z"
       id="path796" /><path
       style="fill:#ffffff;stroke:none;stroke-width:2.92145;stroke-linecap:round;stroke-dasharray:none"
       d="m 81.794917,444.18692 c -0.730021,-0.73388 -1.592557,-1.71355 -1.916746,-2.17705 l -0.589435,-0.84272 5.039113,-16.0118 c 7.670231,-24.37218 25.468781,-80.86045 27.945391,-88.6919 1.20839,-3.8211 2.26846,-6.94972 2.35572,-6.95249 0.32454,-0.0103 1.07547,1.95849 2.07028,5.42786 l 1.02425,3.57203 -13.33801,42.76043 c -18.05385,57.879 -20.124277,64.24995 -20.879881,64.24995 -0.210854,0 -0.980661,-0.60044 -1.710682,-1.33431 z"
       id="path797" /><path
       style="fill:#ffffff;stroke:none;stroke-width:2.92145;stroke-linecap:round;stroke-dasharray:none"
       d="m 169.03246,431.17015 c -4.70221,-1.10783 -6.03056,-3.76377 -7.50403,-15.00388 -2.41096,-18.39148 -8.20001,-40.50927 -12.54177,-47.91735 -1.67342,-2.85527 -6.6279,-7.26621 -10.22975,-9.1075 -2.17137,-1.11002 -4.22588,-1.54704 -9.10152,-1.93601 -4.0544,-0.32346 -4.77799,-0.45347 -5.27172,-0.94719 -0.53241,-0.53241 -0.5474,-0.67695 -0.21524,-2.0748 0.6419,-2.70133 3.32229,-9.76775 4.17535,-11.00763 1.8249,-2.6524 5.5519,-5.587 22.89079,-18.02395 5.38487,-3.86249 9.87096,-7.00048 9.96908,-6.9733 0.0981,0.0272 0.41855,0.14277 0.71205,0.25687 0.45603,0.17729 0.50912,0.10883 0.36507,-0.47078 -0.14923,-0.60046 0.12272,-0.88412 2.37167,-2.47383 l 2.54022,-1.79559 3.27469,3.22257 c 3.85552,3.79416 5.23941,4.9434 8.53264,7.08584 2.92341,1.90186 4.61882,2.68595 6.34006,2.93217 0.70238,0.10047 1.32243,0.31878 1.37788,0.48513 0.0555,0.16635 -0.99606,2.113 -2.3367,4.32588 -2.60119,4.29357 -3.3499,6.18385 -3.64634,9.206 -0.10231,1.04296 -0.28838,2.02714 -0.4135,2.18706 -0.30801,0.39368 -0.0802,16.35192 0.2889,20.23311 0.59096,6.21516 2.42757,14.74294 5.53184,25.68561 1.93904,6.83521 3.43665,10.69985 4.82141,12.44185 2.36154,2.97077 5.98671,5.24072 11.2459,7.04179 3.14783,1.078 4.57174,1.9745 5.26481,3.31474 0.59473,1.1501 0.3316,1.9878 -0.9354,2.97792 -4.8224,3.76855 -28.23741,15.12882 -33.46749,16.23743 -2.08513,0.44198 -2.53221,0.45281 -4.0389,0.0978 z m 0.77583,-85.92723 c 0.19968,-1.18192 -0.0344,-2.81519 -0.40352,-2.81519 -0.12071,0 -0.29249,0.61657 -0.38174,1.37016 -0.27815,2.34853 0.41661,3.62703 0.78526,1.44503 z"
       id="path798" /><path
       style="fill:#ffffff;stroke:none;stroke-width:2.92145;stroke-linecap:round;stroke-dasharray:none"
       d="m 126.44823,328.45528 c -0.47717,-0.89244 -2.56225,-7.43635 -3.69299,-11.59024 -1.55768,-5.7223 -1.99666,-7.9708 -2.0311,-10.40336 -0.0381,-2.69251 0.73435,-4.44871 3.08466,-7.01298 2.14286,-2.33794 3.9576,-5.05294 5.52474,-8.26548 2.16888,-4.44603 2.53046,-6.77004 3.97095,-25.52265 0.65791,-8.56469 1.11215,-13.09004 1.33473,-13.29717 0.18558,-0.1727 6.91068,-5.04743 14.94467,-10.83274 21.83747,-15.72525 30.66472,-21.86004 31.45408,-21.86004 1.32952,0 8.01246,9.88423 8.01338,11.85197 2.6e-4,0.55907 -0.16526,0.68804 -13.60899,10.60422 -17.52004,12.92288 -19.53802,14.75174 -19.53802,17.70692 0,2.54693 2.41959,5.06319 4.86867,5.06319 1.13495,0 2.5303,-0.87771 11.98585,-7.53944 12.80404,-9.02083 60.69509,-43.6567 69.52491,-50.28196 7.37885,-5.53655 13.25891,-10.38982 14.29036,-11.79494 4.74543,-6.46456 4.74587,-15.65367 10e-4,-23.67717 -2.91993,-4.93769 -2.9593,-5.31338 -0.73765,-7.03894 2.36817,-1.83938 8.92382,-6.44334 12.35594,-8.67745 2.83153,-1.84315 3.01261,-1.91914 3.50705,-1.47168 1.14934,1.04014 5.1284,6.48726 23.39013,32.01981 5.30414,7.41594 8.59516,12.45862 8.78979,13.46816 0.18391,0.95392 -8.29975,7.25111 -66.93402,49.68332 -13.90499,10.0627 -36.53218,26.44898 -50.28266,36.41396 -33.55237,24.31542 -52.86956,38.17903 -58.20698,41.77412 -1.57676,1.06205 -1.76971,1.12742 -2.00864,0.68057 z m 34.42395,-39.97989 c 1.09042,-0.41199 2.32599,-1.62323 2.8093,-2.75399 0.53583,-1.25362 0.52197,-4.26427 -0.0245,-5.32103 -1.37474,-2.65846 -5.12263,-3.3661 -7.58199,-1.43158 -2.00665,1.57844 -2.46838,5.1976 -0.95488,7.48465 1.24641,1.88345 3.7704,2.77067 5.75207,2.02195 z m 19.34113,-13.36446 c 3.02068,-1.56759 3.89955,-5.40981 1.78764,-7.81514 -0.97687,-1.1126 -2.29164,-1.62097 -4.19224,-1.62097 -3.74496,0 -5.67306,3.39233 -4.26505,7.50401 0.37931,1.10769 0.71367,1.53496 1.60293,2.04835 1.36748,0.78948 3.41179,0.74258 5.06672,-0.11625 z"
       id="path799" /><path
       style="fill:#ffffff;stroke:none;stroke-width:2.92145;stroke-linecap:round;stroke-dasharray:none"
       d=""
       id="path800" /><path
       style="fill:#ffffff;stroke:none;stroke-width:2.92145;stroke-linecap:round;stroke-dasharray:none"
       d="m 132.64144,237.80614 c -1.31992,-1.50331 -1.9816,-5.9386 -1.48126,-9.92895 0.48977,-3.90596 0.84382,-4.21656 6.01597,-5.27758 2.9842,-0.61217 5.47973,-1.68679 8.74968,-3.76774 1.51104,-0.9616 3.17813,-1.92837 3.70465,-2.14836 l 0.9573,-0.39999 1.32396,1.36999 c 0.72818,0.75349 1.98104,2.31825 2.78413,3.47724 l 1.46017,2.10725 -8.62334,6.31849 c -4.74284,3.47517 -9.19218,6.7003 -9.88743,7.16695 -1.43174,0.96099 -3.49859,2.04897 -3.89243,2.04897 -0.14465,0 -0.64478,-0.43482 -1.1114,-0.96627 z"
       id="path801" /><path
       style="fill:#ffffff;stroke:none;stroke-width:2.92145;stroke-linecap:round;stroke-dasharray:none"
       d="m 164.24541,215.79786 c -0.24979,-0.27602 -0.72422,-1.11236 -1.05429,-1.85853 -0.50193,-1.13469 -0.53816,-1.41595 -0.22141,-1.71902 0.3494,-0.33429 21.1735,-15.40729 50.24001,-36.36493 31.08128,-22.41033 47.66526,-33.99648 48.66134,-33.99648 0.26885,0 0.88393,0.35303 1.36684,0.78452 l 0.87802,0.78451 -2.24163,2.10876 c -4.67971,4.40234 -18.85299,14.93431 -62.71001,46.59898 -27.84792,20.10613 -33.56548,24.16405 -34.04689,24.16405 -0.22979,0 -0.62218,-0.22584 -0.87198,-0.50186 z"
       id="path802" /><path
       style="fill:#ffffff;stroke:none;stroke-width:2.92145;stroke-linecap:round;stroke-dasharray:none"
       d="m 197.86001,222.54993 c -1.85566,-1.96882 -6.83422,-8.76061 -6.83879,-9.32951 -0.006,-0.7513 3.72447,-4.05201 9.40715,-8.32338 11.9232,-8.96204 37.65168,-27.343 42.75365,-30.5441 l 1.17915,-0.73983 0.81858,0.68879 c 0.97692,0.82202 2.58323,3.79906 3.3985,6.29857 0.7665,2.34999 0.78982,5.27024 0.0536,6.70661 -1.31759,2.5705 -6.52907,6.67922 -28.39937,22.38998 -6.41174,4.60595 -13.56443,9.74552 -15.89487,11.42127 -2.33044,1.67576 -4.39871,3.04683 -4.59617,3.04683 -0.19746,0 -1.04408,-0.72685 -1.88139,-1.61523 z"
       id="path803" /><path
       style="fill:#ffffff;stroke:none;stroke-width:2.92145;stroke-linecap:round;stroke-dasharray:none"
       d="m 268.11084,246.59236 c -1.45187,-1.58437 -2.42765,-3.05401 -2.28117,-3.43572 0.16797,-0.43772 7.61141,-6.17142 13.44087,-10.35354 5.45361,-3.91247 5.73977,-3.94996 3.08297,-0.40384 -1.67669,2.23795 -6.87148,8.18002 -11.05747,12.6481 l -2.32594,2.48269 z"
       id="path804" /><path
       style="fill:#ffffff;stroke:none;stroke-width:2.92145;stroke-linecap:round;stroke-dasharray:none"
       d="m 338.19555,306.23082 c -9.72048,-5.68477 -68.08826,-42.21409 -69.20378,-43.31101 -0.49291,-0.48468 0.37375,-1.64743 4.53685,-6.08691 3.93391,-4.19507 11.34797,-12.25435 20.68468,-22.4848 2.29129,-2.51062 4.28406,-4.56477 4.42838,-4.56477 0.51112,0 60.99446,37.6779 61.97896,38.60959 0.35917,0.33992 -3.15906,9.0612 -7.08874,17.57216 -3.76869,8.16226 -10.92649,22.4727 -11.2404,22.4727 -0.17723,0 -2.0204,-0.99314 -4.09595,-2.20696 z m -2.5901,-9.30099 c 1.52571,-0.93027 2.73407,-2.92243 7.07673,-11.66702 4.63607,-9.3354 7.04918,-14.80906 7.04918,-15.98966 0,-1.14691 -0.93771,-2.26696 -2.58525,-3.08796 -1.5936,-0.79413 -3.73428,-0.97274 -4.49814,-0.37531 -1.05669,0.82644 -5.21666,8.20576 -9.7786,17.34611 -4.28971,8.59491 -4.9215,10.18755 -4.47193,11.27293 1.02603,2.47704 4.99094,3.85272 7.20801,2.50091 z m -23.89879,-15.20214 c 1.7653,-1.09101 6.00874,-6.82374 12.66629,-17.11167 3.97643,-6.14481 4.29025,-6.72109 4.29025,-7.87838 0,-2.48049 -3.23483,-4.55235 -6.09907,-3.90636 -1.83531,0.41393 -5.03418,4.17707 -10.37581,12.2061 -7.64619,11.493 -9.11725,15.95241 -5.5993,16.97389 1.66341,0.48299 4.09536,0.34823 5.11764,-0.28358 z m -22.14704,-14.7258 c 3.04936,-2.74164 13.8965,-15.08389 17.50242,-19.91486 1.96777,-2.63629 2.15704,-3.7441 0.89577,-5.24304 -1.71786,-2.04156 -4.72329,-2.5311 -6.85806,-1.11709 -3.172,2.10104 -13.62126,13.81466 -17.80649,19.96107 -1.43752,2.11113 -1.58609,2.46398 -1.45357,3.45202 0.18468,1.37689 1.27296,2.57466 3.14221,3.45835 2.11326,0.99905 2.92006,0.89392 4.57772,-0.59645 z"
       id="path805" /><path
       style="fill:#ffffff;stroke:none;stroke-width:2.92145;stroke-linecap:round;stroke-dasharray:none"
       d="m 320.8752,200.25642 c -1.43881,-0.41578 -3.42207,-2.65228 -9.0405,-10.19487 -8.08924,-10.85958 -12.74847,-17.5141 -14.04727,-20.06295 -0.51931,-1.01912 -0.55991,-1.28787 -0.2515,-1.66508 1.39934,-1.7115 80.41998,-59.57809 90.05928,-65.95015 1.75051,-1.15717 2.10165,-1.29573 2.41742,-0.95389 0.48015,0.51979 13.66935,18.736 16.86571,23.29399 4.30447,6.13818 5.68001,8.80929 5.32208,10.33471 -0.0982,0.41865 -0.57341,1.18263 -1.05592,1.69774 -3.29313,3.51549 -26.96396,21.25083 -57.48042,43.06713 -19.89452,14.22264 -29.92789,20.82323 -31.49653,20.72044 -0.21263,-0.0139 -0.79419,-0.14311 -1.29235,-0.28707 z"
       id="path806" /><path
       style="fill:#ffffff;stroke:none;stroke-width:2.92145;stroke-linecap:round;stroke-dasharray:none"
       d="m 287.84622,157.51957 c -1.96575,-2.68005 -2.44296,-3.38656 -2.44296,-3.6168 0,-0.10511 1.04287,-0.93936 2.3175,-1.85389 1.27462,-0.91453 15.46402,-11.18764 31.532,-22.82913 16.06798,-11.64149 38.31595,-27.7591 49.43994,-35.816901 11.12398,-8.057799 27.87284,-20.190613 37.21969,-26.961804 9.34684,-6.771191 17.13538,-12.3236 17.30785,-12.338687 0.58822,-0.05145 5.71566,7.013357 6.13771,8.456803 0.156,0.533534 -0.31455,1.014275 -3.41538,3.489296 -9.41165,7.512213 -25.66063,19.246532 -29.28438,21.14793 -1.84718,0.969231 -2.34157,1.103609 -4.22871,1.149406 -1.88205,0.04567 -2.38649,0.181972 -4.22871,1.142588 -4.27399,2.228651 -14.79752,9.561773 -43.10441,30.036469 -51.17563,37.01594 -55.3633,40.0313 -55.59455,40.0313 -0.089,0 -0.83401,-0.91646 -1.65559,-2.03658 z"
       id="path807" /><path
       style="fill:#ffffff;stroke:none;stroke-width:2.92145;stroke-linecap:round;stroke-dasharray:none"
       d="m 403.47153,101.10927 c -0.81436,-0.30795 -1.55731,-1.477273 -1.44259,-2.270477 0.16605,-1.148101 7.85704,-7.264196 20.31732,-16.156902 11.38195,-8.123115 15.58622,-10.743812 18.11861,-11.294082 0.69525,-0.151073 2.27328,-0.189596 3.50673,-0.08561 l 2.24263,0.189069 -12.63626,9.161069 c -16.03703,11.626579 -19.52293,14.103839 -24.71533,17.564012 -5.17136,3.446161 -4.65741,3.170371 -5.39111,2.892921 z"
       id="path808" /><path
       style="fill:#ffffff;stroke:none;stroke-width:2.92145;stroke-linecap:round;stroke-dasharray:none"
       d="m 414.70726,116.50689 c -1.60959,-1.66429 -3.45689,-4.40004 -3.45689,-5.11946 0,-1.11113 -1.03948,-0.29731 18.53997,-14.515206 29.7435,-21.598667 36.85878,-26.682232 37.17583,-26.560568 0.37766,0.144922 5.38006,6.627467 5.21105,6.752938 -0.0606,0.04496 -1.05818,0.844302 -2.21693,1.776306 -8.35777,6.72232 -53.02384,38.85985 -54.00902,38.85985 -0.0492,0 -0.60897,-0.53723 -1.24401,-1.19386 z"
       id="path809" /><path
       style="fill:#ffffff;stroke:none;stroke-width:2.92145;stroke-linecap:round;stroke-dasharray:none"
       d="m 485.34536,75.915582 c -4.17835,-5.05685 -12.49317,-16.208559 -14.04335,-18.834739 -0.48413,-0.820162 -0.48406,-0.820402 0.56182,-1.877191 1.94033,-1.960594 8.49999,-6.732252 11.00916,-8.00834 l 1.25498,-0.638248 1.2732,1.387723 c 2.49598,2.720515 10.81215,13.91959 13.48317,18.157302 1.4574,2.312233 1.41051,2.50436 -1.15624,4.737414 -2.99076,2.601951 -9.65001,7.253121 -10.38454,7.253121 -0.10965,0 -1.00884,-0.979669 -1.9982,-2.177042 z"
       id="path810" /><path
       style="fill:#ffffff;stroke:none;stroke-width:2.92145;stroke-linecap:round;stroke-dasharray:none"
       d="M 441.9846,59.863974 C 440.22819,58.792931 433.18433,49.0448 430.922,44.554243 l -0.97515,-1.935612 2.25335,-2.137295 c 5.09922,-4.836583 27.0885,-20.770754 30.08579,-21.801174 0.89164,-0.306531 1.19066,-0.302019 1.82804,0.02759 1.13717,0.588051 9.23453,11.629373 11.84589,16.152702 l 0.7458,1.291857 -1.47658,1.386904 c -1.89398,1.77895 -5.41047,4.558735 -12.43202,9.827512 -12.48935,9.371657 -17.93252,13.00211 -19.52316,13.021434 -0.23175,0.0028 -0.81196,-0.233067 -1.28936,-0.524182 z"
       id="path811" /><path
       style="fill:#ffffff;stroke:none;stroke-width:2.92145;stroke-linecap:round;stroke-dasharray:none"
       d="m 431.93033,23.493303 c -1.32019,-1.425484 -2.3128,-3.49245 -1.95261,-4.065996 0.90563,-1.442043 5.24987,-1.838021 9.4211,-0.858733 l 2.51484,0.590416 -2.48007,1.829903 c -3.10986,2.294582 -5.09659,3.444135 -5.95826,3.44753 -0.40125,0.0016 -1.01975,-0.37597 -1.545,-0.94312 z"
       id="path812" /></g></svg>
