<?xml version="1.0" encoding="UTF-8" standalone="no"?>
<!-- Created with Inkscape (http://www.inkscape.org/) -->

<svg
   width="505.08896"
   height="505.75937"
   viewBox="0 0 505.08896 505.75937"
   version="1.1"
   id="svg1"
   xml:space="preserve"
   xmlns="http://www.w3.org/2000/svg"
   xmlns:svg="http://www.w3.org/2000/svg"><defs
     id="defs1" /><path
     style="fill:#333333;fill-opacity:1;stroke-width:1.0581"
     d="m 73.017527,505.41398 c -1.172083,-0.30579 -3.347893,-1.66323 -4.835142,-3.01647 C 66.695145,501.04427 51.071547,480.22625 33.463289,456.13526 -0.27883079,409.97047 -1.5665991,407.77135 0.71863451,400.21696 1.3429938,398.15299 9.7680614,384.6653 19.440994,370.24433 c 9.672934,-14.42098 24.182866,-36.07196 32.244303,-48.1133 8.061426,-12.04134 15.854706,-22.60346 17.318389,-23.47138 4.171141,-2.47334 10.722985,-2.4226 14.905574,0.11544 4.261232,2.58579 7.042195,7.59494 10.525288,18.95849 1.40261,4.57604 2.81327,8.3331 3.13481,8.34904 0.79275,0.0396 5.929952,-18.05769 6.954752,-24.4997 0.83949,-5.27737 3.4181,-10.45901 7.55271,-15.17702 3.41446,-3.89627 4.5227,-9.23807 5.27701,-25.43562 0.37409,-8.03477 1.21585,-15.50424 1.87139,-16.60727 0.96788,-1.62869 0.59829,-2.8145 -1.97042,-6.32176 -3.08932,-4.21814 -3.14215,-4.51751 -2.30558,-13.06861 0.59744,-6.10695 1.48358,-9.62 2.93239,-11.6253 2.27751,-3.15233 6.97669,-5.7232 10.19719,-5.5788 1.13318,0.0508 4.6089,-1.46152 7.72382,-3.36073 3.39796,-2.07179 6.99601,-3.41074 8.99456,-3.34717 2.77494,0.0882 11.80256,-6.12107 54.07198,-37.19151 37.91536,-27.86997 51.67969,-37.43038 54.455,-37.82329 5.54643,-0.78521 10.14167,1.49456 15.3902,7.63538 3.14974,3.68518 5.13103,5.21693 5.98135,4.6242 8.33688,-5.8114 132.53417,-97.129507 135.17007,-99.386045 1.96884,-1.685451 3.62527,-4.041321 3.68098,-5.235257 0.0555,-1.193933 1.14385,-3.720151 2.41811,-5.613814 l 2.31678,-3.443028 -4.02757,-5.734356 c -2.21516,-3.153893 -3.99103,-6.549647 -3.94635,-7.546111 0.10056,-2.2427586 5.89353,-7.2591419 11.25102,-9.7427674 5.08046,-2.3552015 9.6105,-2.1463193 17.83087,0.8221723 6.32581,2.2843242 6.60769,2.3009346 9.33733,0.5503548 8.45043,-5.4194562 15.28259,-2.6541843 24.2998,9.8352153 3.56436,4.936854 7.12625,10.739385 7.91529,12.894499 0.78906,2.155126 2.39336,4.270684 3.56509,4.701246 2.94557,1.082361 18.9984,23.349298 20.19413,28.011295 1.48003,5.770627 -1.15853,10.231555 -9.97384,16.86232 -8.01001,6.025045 -12.49229,7.359178 -17.71345,5.27235 -1.79695,-0.718217 -3.82157,-1.007982 -4.49915,-0.643922 -0.67757,0.36407 -13.46401,9.640206 -28.4143,20.613628 l -27.18234,19.95168 0.46461,5.04307 c 0.95133,10.32595 0.74814,10.5227 -47.46609,45.96168 -23.90294,17.56941 -45.02447,32.51934 -46.93678,33.22208 -2.30107,0.8456 -5.25498,0.96512 -8.73473,0.35343 -2.89183,-0.50834 -5.97417,-1.03633 -6.84964,-1.17333 -1.49329,-0.23362 -75.46529,53.32625 -84.51834,61.19601 -5.08804,4.42303 -5.46638,7.53119 -1.96883,16.17419 3.43743,8.49434 3.09965,16.5662 -1.00799,24.08829 -2.34327,4.29113 -4.9903,6.96964 -11.36422,11.49928 -19.30404,13.71852 -22.41516,17.29975 -22.81715,26.26499 -0.52921,11.80271 5.51854,41.34344 9.64242,47.09911 1.16164,1.62129 3.89722,3.20637 7.14896,4.14232 9.35415,2.69241 13.95456,10.65399 10.8582,18.79156 -0.74492,1.95778 -2.45341,4.46126 -3.79662,5.56328 -3.53646,2.90143 -19.43345,11.28458 -30.01457,15.82793 -10.52008,4.51714 -15.30593,4.75322 -22.08266,1.08928 -6.68239,-3.61294 -9.03965,-8.39719 -10.89624,-22.11483 -3.20833,-23.70506 -8.98647,-42.86732 -14.14415,-46.90666 -4.1696,-3.2655 -13.25492,-3.97505 -16.2544,-1.26942 -1.29969,1.17235 -6.41539,16.27415 -15.0187,44.33594 l -13.047592,42.558 3.187234,5.22745 c 4.339376,7.11706 4.625136,10.71765 2.092013,26.35956 -2.243756,13.85517 -3.71103,17.37728 -8.369026,20.08979 -2.733405,1.59168 -8.787323,2.3562 -12.006407,1.51621 z m 6.184046,-10.57004 c 2.938016,-1.68213 6.641609,-25.37298 4.638342,-29.67029 -0.665924,-1.42848 -6.515449,-8.55456 -12.998975,-15.8357 C 56.502436,433.23547 46.549935,420.95021 32.221302,401.66637 19.892027,385.07332 21.547891,385.47826 14.203725,397.26023 c -2.674944,4.29132 -3.806203,7.14068 -3.414184,8.59949 0.58298,2.16942 62.608219,87.36982 64.756348,88.95196 1.43586,1.05754 1.858428,1.06126 3.655684,0.0322 z m 10.188979,-82.80393 c 4.886846,-16.09192 12.201348,-40.11012 16.254468,-53.37377 l 7.36929,-24.11573 -1.5328,-5.25931 c -0.84303,-2.89263 -1.75768,-4.67353 -2.03255,-3.95756 -0.27486,0.71598 -8.18993,26.32807 -17.589042,56.91577 l -17.089268,55.61401 2.06681,2.4898 c 1.136744,1.36939 2.427055,2.14218 2.867366,1.7173 0.440311,-0.42489 4.798884,-13.93861 9.685726,-30.03051 z m -17.497824,-0.5198 c 2.669643,-8.76398 5.087219,-16.5147 5.372407,-17.22386 0.330468,-0.82171 -1.354838,-0.55912 -4.646878,0.72404 -6.554017,2.55461 -16.679365,2.92889 -24.917452,0.92104 -3.52761,-0.85977 -6.602883,-1.39041 -6.833939,-1.17918 -0.780577,0.71359 24.09213,32.59922 25.477821,32.66135 0.381781,0.0171 2.878398,-7.13941 5.548041,-15.90339 z m 106.544762,11.94153 c 13.92696,-6.50784 24.49576,-12.34676 25.1773,-13.90965 0.8981,-2.05952 -1.30635,-4.39564 -5.08417,-5.38782 -9.13539,-2.39925 -12.93238,-6.86924 -16.64424,-19.59443 -4.84419,-16.60713 -6.59545,-27.9952 -6.17465,-40.15249 0.35584,-10.2817 0.61797,-11.47792 3.53894,-16.15455 1.73504,-2.77784 3.0324,-5.13736 2.88302,-5.24338 -0.14939,-0.10602 -2.48034,-1.12561 -5.17991,-2.26574 -2.69955,-1.14012 -7.09851,-4.22722 -9.77541,-6.86018 l -4.86713,-4.78717 -19.13717,13.89267 c -20.26848,14.71392 -20.89615,15.42034 -23.86894,26.86397 -0.81642,3.14279 -0.78673,3.16977 3.26161,2.96611 9.41987,-0.47392 19.36228,5.65256 23.2625,14.33429 3.62874,8.07746 7.85231,24.23644 10.14763,38.82374 2.53989,16.14176 3.31688,18.66534 6.23132,20.23917 3.96353,2.14031 6.74774,1.66605 16.2293,-2.76454 z M 67.817018,385.49704 c 3.156196,-0.91986 7.217984,-3.33018 10.371683,-6.15469 4.859878,-4.35262 5.390282,-5.34285 8.489067,-15.84821 1.817906,-6.16303 3.371936,-12.76605 3.453382,-14.67337 0.23859,-5.58832 -2.964182,-20.25893 -6.708973,-30.7311 -3.754524,-10.49937 -5.987359,-12.69231 -9.497153,-9.32752 -1.791996,1.71796 -43.840634,64.08779 -45.001356,66.74952 -0.554619,1.27186 9.81974,6.84148 17.232162,9.25132 6.721125,2.18511 15.644729,2.4875 21.661188,0.73405 z m 92.452622,-88.12517 c 20.76002,-15.24274 47.84922,-35.14105 60.19824,-44.21841 12.34902,-9.07738 35.14372,-25.826 50.65489,-37.21916 15.51117,-11.39315 28.21179,-21.04857 28.22358,-21.4565 0.0357,-1.23106 -32.84914,-46.17059 -33.81734,-46.214 -0.74665,-0.0334 -13.48771,8.98904 -17.00678,12.04326 -0.64251,0.55764 -0.26665,2.05165 0.98441,3.91277 5.41679,8.05834 6.51872,16.03112 3.17272,22.95546 -2.37768,4.92046 -1.70645,4.39966 -72.30471,56.09929 -22.80318,16.69893 -26.20559,18.44573 -28.92658,14.85092 -2.71246,-3.58354 -0.40701,-6.28366 15.26672,-17.88006 8.55751,-6.3314 16.13963,-12.04358 16.84914,-12.69372 0.98421,-0.90187 0.26084,-2.62905 -3.05157,-7.28614 -2.38789,-3.35723 -4.59587,-6.11546 -4.90663,-6.12939 -0.31076,-0.0139 -11.0279,7.66556 -23.81583,17.06557 l -23.25079,17.09089 -0.4366,8.59074 c -0.24011,4.7249 -1.01069,13.14652 -1.71232,18.7147 -1.0749,8.53047 -1.79752,10.88441 -4.59098,14.95516 -7.96748,11.61058 -7.70632,10.11906 -4.02675,22.99665 1.80255,6.30849 3.6091,11.48486 4.01455,11.50304 0.40544,0.0182 17.72264,-12.4383 38.48265,-27.68106 z m 38.11559,13.99499 c 14.53575,-9.9199 17.72306,-17.82041 11.23654,-27.85245 -3.60356,-5.57326 -5.18969,-5.35822 -15.39996,2.08797 l -9.29645,6.77977 2.08754,2.43176 c 1.14817,1.3375 3.44528,2.79444 5.10471,3.23769 3.46164,0.9246 5.38897,4.10591 4.29357,7.087 -1.93738,5.2724 -9.69021,4.03866 -16.4206,-2.61307 l -4.04147,-3.99424 -2.36558,2.16253 -2.36559,2.16256 2.35517,2.74351 c 6.09549,7.10054 18.59947,10.00679 24.81212,5.76697 z m -53.15993,-88.32149 5.67405,-4.05681 -2.04022,-3.15538 c -2.92141,-4.51827 -4.14756,-4.68909 -9.30285,-1.29599 -2.52641,1.66286 -6.33532,3.26336 -8.46421,3.5567 -2.12887,0.29333 -4.24375,1.04363 -4.69971,1.66733 -1.60293,2.1927 -1.38725,11.46455 0.3146,13.52338 1.56885,1.89795 1.8934,1.80396 7.24337,-2.09773 3.08051,-2.24657 8.15424,-5.91025 11.27497,-8.1415 z m 71.10081,-19.2509 c 26.90178,-19.6526 27.37923,-20.0785 27.58209,-24.60282 0.16069,-3.58368 -3.29268,-10.83963 -5.2069,-10.94038 -0.51098,-0.027 -12.97072,8.73691 -27.68831,19.47513 -18.61391,13.58102 -26.4905,19.91769 -25.87624,20.81729 5.60031,8.2019 8.64503,11.6161 9.70908,10.88719 0.67226,-0.46052 10.3384,-7.49691 21.48028,-15.63641 z m -5.74283,-28.83666 c 42.71388,-31.37757 48.6951,-36.10926 47.41499,-37.50956 -1.03417,-1.13124 -2.09143,-1.34344 -3.59562,-0.72165 -1.17189,0.48442 -23.18352,16.38022 -48.91472,35.324 -25.73121,18.94377 -47.25321,34.71904 -47.82669,35.05614 -1.66314,0.97766 0.90743,5.41524 2.61424,4.51301 0.78536,-0.41515 23.42384,-16.91301 50.3078,-36.66194 z m 152.64665,-11.7217 c 27.25563,-20.01502 43.07697,-32.30094 43.52958,-33.80248 0.88369,-2.93185 -0.22733,-4.82504 -12.74965,-21.72562 l -9.92734,-13.398288 -2.86578,1.886362 c -8.38837,5.521546 -89.28236,65.612506 -89.6621,66.604246 -0.24624,0.64305 3.66879,6.77635 8.70007,13.62956 12.97586,17.67466 13.89094,18.65108 17.27633,18.43425 1.92641,-0.12337 17.06136,-10.5982 45.69889,-31.62803 z m -29.58861,-45.35938 c 44.56239,-32.737459 50.0212,-36.447422 52.84663,-35.916082 2.7526,0.51763 5.28818,-0.998998 20.05831,-11.997665 9.29908,-6.924609 17.06185,-13.059897 17.25062,-13.633971 0.18877,-0.574073 -1.15611,-2.964522 -2.98859,-5.312108 l -3.33182,-4.268341 -69.07424,50.716981 -69.07426,50.716956 2.17877,3.037 c 1.19832,1.67035 2.23729,3.06598 2.30883,3.10142 0.0714,0.0354 22.49312,-16.36446 49.82575,-36.44419 z M 435.07187,93.982862 c 13.02387,-9.567628 25.52279,-18.897084 27.77538,-20.732116 l 4.09564,-3.336406 -2.83785,-3.612391 -2.83784,-3.612392 -26.71478,19.58911 c -14.6931,10.774006 -27.40386,20.196363 -28.24609,20.938603 -1.30169,1.14712 -1.17415,1.84525 0.85042,4.65524 1.30998,1.81816 2.79884,3.35082 3.30857,3.40591 0.50974,0.055 11.58269,-7.72792 24.60655,-17.295558 z M 417.64462,81.605537 c 9.99852,-7.343005 19.34378,-14.216281 20.76723,-15.273946 l 2.58808,-1.923035 -4.08051,-0.224904 c -3.67421,-0.20256 -5.90645,1.10187 -22.41889,13.100499 -10.0861,7.328987 -18.36644,13.951147 -18.40073,14.715917 -0.074,1.649674 0.88106,2.844999 2.32475,2.909741 0.57251,0.02568 9.22155,-5.961244 19.22007,-13.304251 z m 71.17025,-15.049429 c 3.40037,-2.525222 6.04697,-5.068121 5.8813,-5.650893 -0.59624,-2.097599 -15.23211,-21.606389 -16.26369,-21.678572 -1.26955,-0.0888 -13.63972,8.748799 -13.65828,9.757906 -0.022,1.191181 15.98401,22.078826 16.95195,22.122228 0.49845,0.02235 3.68836,-2.025456 7.08872,-4.550669 z M 456.9241,40.574512 c 7.68511,-5.748672 13.9947,-10.937793 14.02131,-11.531359 0.0505,-1.126089 -10.52291,-16.033028 -12.40068,-17.483125 -1.69213,-1.306739 -2.74636,-0.686772 -19.04762,11.201441 -8.80138,6.418689 -15.40986,11.973597 -15.45549,12.991478 -0.0808,1.803277 8.61776,14.578283 11.66571,17.132559 2.13004,1.785046 3.21111,1.157755 21.21677,-12.310994 z"
     id="path58" /><path
     style="fill:#ffffff;stroke:none;stroke-width:0.145597;stroke-linecap:round;stroke-linejoin:round;stroke-dasharray:none"
     d="m 50.015312,385.57061 c -6.322538,-1.42415 -20.26956,-8.1368 -20.524674,-9.87845 -0.136865,-0.93435 33.846395,-51.92121 42.647326,-63.98602 4.315923,-5.91651 5.919425,-5.48021 9.384263,2.55332 3.541363,8.21097 7.431254,23.01323 8.192648,31.17577 0.27423,2.93979 0.154392,4.18882 -0.811396,8.45784 -2.147221,9.49111 -5.075001,18.3538 -6.964407,21.08197 -1.666014,2.40563 -7.757361,7.35503 -10.890286,8.84868 -1.565308,0.74629 -3.889213,1.59813 -5.164222,1.893 -2.876613,0.66529 -12.667212,0.57513 -15.869252,-0.14611 z"
     id="path59" /><path
     style="fill:#ffffff;stroke:none;stroke-width:0.145597;stroke-linecap:round;stroke-linejoin:round;stroke-dasharray:none"
     d="m 62.957293,423.39582 c -7.150688,-8.19153 -21.880206,-27.6832 -21.312144,-28.20249 0.154436,-0.14118 2.425739,0.21648 5.047341,0.79481 6.936363,1.53016 15.483519,1.75561 20.88331,0.55086 2.235319,-0.49875 5.187135,-1.27282 6.559557,-1.72018 1.372423,-0.44736 2.545237,-0.65379 2.606244,-0.45876 0.246481,0.78808 -9.999482,32.6702 -10.492123,32.64812 -0.0795,-0.003 -1.560947,-1.62911 -3.292185,-3.61236 z"
     id="path60" /><path
     style="fill:#ffffff;stroke:none;stroke-width:0.145597;stroke-linecap:round;stroke-linejoin:round;stroke-dasharray:none"
     d="m 75.796433,494.4906 c -1.882636,-1.62254 -30.57957,-40.4838 -51.55307,-69.81296 -12.398577,-17.33806 -13.203108,-18.57102 -13.13334,-20.12699 0.06299,-1.40497 4.00463,-8.68922 7.007744,-12.9505 3.016271,-4.27995 3.374878,-4.00497 14.784211,11.33605 13.626071,18.32168 20.78434,27.18921 36.320918,44.99379 11.510946,13.19129 14.179344,16.62976 14.703887,18.94733 0.527509,2.3305 -0.317019,12.26809 -1.536363,18.07881 -1.290984,6.15211 -2.226745,8.63903 -3.628505,9.64338 -1.493897,1.07037 -1.601728,1.06641 -2.965482,-0.1089 z"
     id="path61" /><path
     style="fill:#ffffff;stroke:none;stroke-width:0.0363993;stroke-linecap:round;stroke-linejoin:round;stroke-dasharray:none"
     d="m 78.458217,441.73597 c -0.603268,-0.3828 -1.601375,-1.42426 -2.903882,-3.02994 l -0.709322,-0.87444 7.653552,-24.90988 c 13.570163,-44.16648 24.897045,-80.91356 26.699655,-86.61988 0.19466,-0.61618 0.39112,-1.05806 0.45891,-1.03224 0.22713,0.0865 0.68504,0.95423 1.0992,2.08301 0.53348,1.45386 2.1388,6.91013 2.12481,7.22192 -0.006,0.13027 -0.8988,3.1421 -1.98438,6.69296 -5.02997,16.45282 -12.110552,39.67123 -16.712972,54.80463 -5.846945,19.22553 -6.679178,21.9463 -8.447963,27.61857 -2.824095,9.05653 -5.546104,17.31186 -5.970937,18.10863 -0.213783,0.401 -0.604806,0.38204 -1.3067,-0.0627 z"
     id="path62" /><path
     style="fill:#ffffff;stroke:none;stroke-width:0.0363993;stroke-linecap:round;stroke-linejoin:round;stroke-dasharray:none"
     d="m 164.28284,427.04057 c -0.4548,-0.13898 -1.32355,-0.52593 -1.93056,-0.85988 -2.9641,-1.63069 -3.65865,-3.76937 -6.07904,-18.71861 -1.37492,-8.49207 -2.49585,-14.0743 -4.21228,-20.97736 -2.35913,-9.48782 -5.21019,-17.92968 -7.19437,-21.30228 -3.71251,-6.31026 -10.30392,-10.84519 -17.61427,-12.11872 -1.36504,-0.2378 -3.65797,-0.34096 -5.64135,-0.25383 -2.53892,0.11155 -2.87371,-0.0999 -2.55569,-1.61431 0.27169,-1.29384 1.34688,-5.18425 1.82407,-6.60021 1.82248,-5.40764 4.47449,-8.30429 14.38674,-15.71384 3.67649,-2.74822 26.75938,-19.50542 26.96116,-19.57265 0.0783,-0.026 1.27102,1.06485 2.65065,2.42429 2.84116,2.79953 3.74898,3.62376 5.36271,4.86878 2.81265,2.16996 5.01888,3.49896 7.72669,4.65441 3.62847,1.5483 4.05672,1.75476 4.04703,1.95119 -0.0114,0.23092 -1.37328,2.65735 -2.75943,4.91645 -2.43476,3.96812 -2.86437,5.26166 -3.264,9.8276 -0.23524,2.68792 -0.4457,10.32171 -0.35326,12.81924 0.36239,9.7998 2.01051,19.09534 5.66971,31.97779 2.14295,7.54435 3.93236,11.78372 6.25404,14.81674 2.37048,3.09677 5.44642,5.05582 10.02504,6.38488 1.92416,0.55853 2.69827,0.85589 3.65742,1.40494 1.02615,0.5874 1.81603,1.33749 2.16474,2.05573 0.54801,1.12876 0.42766,1.95362 -0.39571,2.71186 -2.28868,2.10762 -12.47347,7.60553 -24.44297,13.19469 -6.76495,3.1589 -9.8217,4.15873 -12.32902,4.03265 -0.73551,-0.037 -1.42034,-0.14529 -1.95805,-0.30955 z"
     id="path63" /><path
     style="fill:#ffffff;stroke:none;stroke-width:0.0727982;stroke-linecap:round;stroke-linejoin:round;stroke-dasharray:none"
     d="m 121.05347,323.23943 c -0.82676,-2.0929 -1.46294,-4.06499 -3.27671,-10.15751 -2.51917,-8.46201 -2.76634,-10.4791 -1.62889,-13.29297 0.56807,-1.40533 1.51367,-2.92404 5.60157,-8.99653 2.26798,-3.36907 3.09557,-5.3877 3.86351,-9.42385 1.02558,-5.39034 2.4203,-19.39477 2.82814,-28.39742 l 0.20761,-4.58484 12.88419,-9.46949 c 23.74254,-17.45004 33.57719,-24.5242 34.06378,-24.50238 0.2997,0.0134 1.11276,1.00107 3.74272,4.54632 3.53302,4.76261 4.87282,7.24793 4.36651,8.09988 -0.3028,0.50953 -3.03846,2.61859 -13.43553,10.35813 -13.10788,9.75741 -16.87698,12.85812 -18.75532,15.42923 -0.66736,0.9135 -0.88176,1.43753 -0.99313,2.42713 -0.12459,1.10706 -0.0647,1.39604 0.49154,2.35274 0.93197,1.60429 1.73622,2.08425 3.41754,2.03949 2.36169,-0.0628 6.22249,-2.17284 14.18344,-7.75138 3.61782,-2.53513 23.79663,-17.25237 42.17379,-30.75911 35.01727,-25.73675 39.60958,-29.38152 41.4815,-32.92253 3.76015,-7.11299 3.1254,-14.60109 -1.9465,-22.96221 -1.73603,-2.8619 -2.09755,-3.71314 -1.87703,-4.41992 0.0857,-0.27517 1.26475,-1.35587 2.6198,-2.40161 3.26697,-2.52123 10.90095,-7.93149 12.84186,-9.10111 1.35957,-0.81929 1.59092,-0.89276 1.90948,-0.60622 1.96816,1.77038 28.83828,38.34475 32.47237,44.19991 l 0.97534,1.57149 -0.72469,0.56332 c -0.39857,0.30982 -2.37722,1.8494 -4.397,3.42128 -8.22524,6.40129 -9.66533,7.46557 -81.57773,60.28924 -10.80603,7.93763 -26.66841,19.59044 -35.24973,25.89509 -30.60637,22.48637 -54.69906,39.94368 -55.42209,40.15823 -0.10199,0.0304 -0.48028,-0.69078 -0.8404,-1.60241 z"
     id="path64" /><path
     style="fill:#ffffff;stroke:none;stroke-width:0.0727982;stroke-linecap:round;stroke-linejoin:round;stroke-dasharray:none"
     d="m 127.36425,233.77838 c -1.49965,-1.53229 -1.98184,-3.85878 -1.79114,-8.64204 0.17243,-4.32719 0.4123,-5.11719 1.77069,-5.83352 0.53688,-0.28312 1.93632,-0.71999 3.10988,-0.97083 3.86853,-0.82684 5.84306,-1.633 9.41473,-3.84382 3.67717,-2.2761 4.93297,-2.58393 6.41608,-1.5728 0.42627,0.29061 1.57791,1.73177 2.61051,3.26672 l 1.8477,2.74667 -4.90003,3.51648 c -2.69503,1.93406 -7.19098,5.17226 -9.99101,7.19599 -7.0857,5.12125 -7.38263,5.26599 -8.48741,4.13715 z"
     id="path65" /><path
     style="fill:#ffffff;stroke:none;stroke-width:0.0727982;stroke-linecap:round;stroke-linejoin:round;stroke-dasharray:none"
     d="m 159.3611,211.51681 c -0.96075,-0.40084 -2.13196,-2.3052 -2.08343,-3.38756 0.0211,-0.47012 1.17591,-1.40251 7.01583,-5.66432 3.84481,-2.80585 14.73986,-10.79703 24.21123,-17.75817 48.39391,-35.56795 64.48751,-47.20825 66.25763,-47.92328 1.13373,-0.45797 1.88628,-0.33143 2.80584,0.47174 l 0.62522,0.5461 -0.51226,0.75137 c -1.10557,1.62167 -6.36155,5.9559 -16.18113,13.34348 -20.22373,15.21497 -81.28538,59.8833 -81.71889,59.7797 -0.0501,-0.0115 -0.23901,-0.0834 -0.42004,-0.15906 z"
     id="path66" /><path
     style="fill:#ffffff;stroke:none;stroke-width:0.0727982;stroke-linecap:round;stroke-linejoin:round;stroke-dasharray:none"
     d="m 193.70064,219.01182 c -1.28868,-0.86714 -4.12445,-4.31621 -7.20596,-8.76444 l -1.31106,-1.89254 0.47831,-0.61176 c 1.17627,-1.50443 7.4594,-6.58819 16.02679,-12.96742 11.0761,-8.24727 30.74537,-22.3634 35.05382,-25.15729 1.92524,-1.24843 2.01453,-1.28115 2.54765,-0.9331 0.75347,0.4919 2.00557,2.39594 2.93102,4.45716 1.70598,3.79961 1.99477,7.0091 0.82082,9.12212 -1.58141,2.84648 -4.38068,5.05001 -32.26465,25.39847 -8.92956,6.5164 -16.26012,11.84653 -16.29009,11.84472 -0.03,-0.002 -0.38397,-0.22497 -0.78665,-0.49592 z"
     id="path67" /><path
     style="fill:#ffffff;stroke:none;stroke-width:0.0727982;stroke-linecap:round;stroke-linejoin:round;stroke-dasharray:none"
     d="m 281.66828,151.17826 c -1.19177,-1.64216 -2.12851,-3.01227 -2.08166,-3.04469 0.2239,-0.15492 130.27331,-95.612021 133.80635,-98.214707 l 4.05239,-2.985269 1.89562,2.441229 c 3.05098,3.929159 4.30946,5.937314 4.27015,6.813884 -0.0273,0.608261 -11.04156,9.221138 -22.49797,17.592808 -9.6412,7.045215 -11.45987,8.058567 -14.61693,8.144451 -1.70493,0.04638 -2.15861,0.153012 -3.48682,0.819523 -3.77648,1.895083 -13.52051,8.694387 -34.77195,24.263581 -4.5127,3.3061 -16.94168,12.41765 -27.61997,20.24791 -10.67828,7.83024 -23.3227,17.08761 -28.09871,20.57191 l -8.68367,6.33512 z"
     id="path68" /><path
     style="fill:#ffffff;stroke:none;stroke-width:0.0727982;stroke-linecap:round;stroke-linejoin:round;stroke-dasharray:none"
     d="m 314.90457,194.18047 c -1.94235,-1.09557 -5.05026,-4.89347 -13.86895,-16.94794 -4.24875,-5.8077 -7.39677,-10.47481 -8.62905,-12.79294 l -0.79123,-1.48844 1.11343,-0.93969 c 4.7086,-3.97388 59.43987,-44.73837 80.31315,-59.81819 5.36339,-3.874746 9.92469,-7.049392 10.7721,-7.497306 0.24572,-0.129893 5.33629,6.577406 14.55735,19.180616 5.76878,7.88469 8.05741,11.53161 8.3754,13.34612 0.2953,1.68522 0.0224,2.28146 -1.79459,3.92099 -8.10872,7.31672 -54.89434,42.0742 -76.47541,56.81431 -10.3698,7.08268 -11.29505,7.50688 -13.5722,6.22247 z"
     id="path69" /><path
     style="fill:#ffffff;stroke:none;stroke-width:0.0727982;stroke-linecap:round;stroke-linejoin:round;stroke-dasharray:none"
     d="m 408.69176,109.52895 c -1.69001,-1.90863 -3.1533,-4.23272 -3.12083,-4.95671 0.0349,-0.77866 0.7272,-1.31455 20.49391,-15.864217 13.28064,-9.775474 34.09374,-25.036037 34.92918,-25.610737 0.17015,-0.117053 1.14274,0.940281 2.83502,3.082073 1.41682,1.793139 2.62031,3.393193 2.67445,3.555677 0.16286,0.488853 -4.83641,4.389552 -20.63918,16.103762 -19.07496,14.139816 -34.80086,25.355762 -35.50697,25.324102 -0.1253,-0.005 -0.87481,-0.7409 -1.66558,-1.63395 z"
     id="path70" /><path
     style="fill:#ffffff;stroke:none;stroke-width:0.0363993;stroke-linecap:round;stroke-linejoin:round;stroke-dasharray:none"
     d="m 397.6478,94.670308 c -0.79217,-0.323095 -1.27076,-0.99444 -1.444,-2.025553 -0.0912,-0.543262 -0.0786,-0.599156 0.22967,-1.003831 1.13538,-1.490977 9.51801,-8.064517 19.68604,-15.437513 7.91135,-5.736634 11.14166,-7.975525 13.89978,-9.633796 3.73608,-2.246259 4.74074,-2.494628 8.84925,-2.187713 l 1.87128,0.139782 -0.78611,0.5846 c -2.21882,1.650076 -21.09334,15.517882 -24.59392,18.07006 -8.3558,6.092021 -15.3775,10.957095 -16.63344,11.524673 -0.43535,0.196732 -0.52725,0.194123 -1.07855,-0.03069 z"
     id="path71" /><path
     style="fill:#ffffff;stroke:none;stroke-width:0.0363993;stroke-linecap:round;stroke-linejoin:round;stroke-dasharray:none"
     d="m 436.61675,53.396855 c -1.27445,-0.536147 -4.32264,-4.206545 -8.01329,-9.648989 -2.50409,-3.692643 -4.50276,-7.217936 -4.47161,-7.887149 0.0192,-0.413297 0.44821,-0.932619 1.87226,-2.266443 2.98147,-2.792594 7.46836,-6.334594 14.90677,-11.767548 11.48587,-8.389197 14.71709,-10.511157 16.24957,-10.671174 0.68309,-0.07133 1.17126,0.228849 2.16359,1.330364 2.99653,3.326265 11.54067,15.560257 11.50004,16.466419 -0.0154,0.341403 -0.61524,0.944229 -2.68186,2.694728 -3.32599,2.817234 -6.92211,5.629071 -13.24831,10.358943 -8.07691,6.038817 -12.03563,8.859464 -14.38728,10.251182 -1.99763,1.182207 -3.05347,1.491545 -3.88988,1.139667 z"
     id="path72" /><path
     style="fill:#ffffff;stroke:none;stroke-width:0.0363993;stroke-linecap:round;stroke-linejoin:round;stroke-dasharray:none"
     d="m 480.42074,69.737719 c -3.02578,-3.39445 -11.08396,-13.86679 -14.20566,-18.461556 -1.18202,-1.739789 -1.36797,-2.094418 -1.26995,-2.422019 0.33111,-1.106675 12.25066,-9.57756 13.40401,-9.525846 0.43931,0.0197 3.09514,3.153034 6.8441,8.074617 4.51261,5.924092 8.55257,11.65821 9.2465,13.124017 l 0.25143,0.531081 -0.45079,0.595523 c -1.28912,1.703085 -6.99067,6.191198 -10.78968,8.493375 -1.22103,0.739934 -1.46888,0.862289 -1.72352,0.850871 -0.10497,-0.0047 -0.69286,-0.571735 -1.30644,-1.260063 z"
     id="path73" /><path
     style="fill:#ffffff;stroke:none;stroke-width:0.0514762;stroke-linecap:round;stroke-linejoin:round;stroke-dasharray:none"
     d="m 187.7331,313.01175 c -3.84476,-0.64036 -7.60036,-2.19487 -10.7087,-4.43258 -1.36843,-0.98513 -5.09098,-4.73861 -5.47086,-5.51631 -0.12767,-0.26136 0.15985,-0.58643 2.0506,-2.31849 1.2095,-1.10798 2.24375,-2.01251 2.29831,-2.01006 0.0546,0.002 1.2797,1.16138 2.72248,2.5754 3.00539,2.94549 4.66068,4.25067 6.92272,5.45852 2.2359,1.1939 3.75651,1.6262 5.77558,1.64194 1.35342,0.0105 1.73865,-0.0485 2.51239,-0.38492 3.02278,-1.31453 3.88708,-5.257 1.72122,-7.85118 -0.97765,-1.171 -1.47256,-1.49043 -3.46545,-2.23666 -2.32668,-0.87124 -3.71448,-1.83335 -5.54441,-3.84371 l -1.51806,-1.66777 6.19108,-4.5043 c 7.24841,-5.27356 9.2906,-6.63151 11.32385,-7.5297 1.77718,-0.78508 2.90006,-0.85168 3.98073,-0.23615 0.83676,0.4766 2.23577,2.13998 3.35875,3.99349 5.62673,9.28686 2.95929,16.57417 -9.35746,25.56409 -3.16875,2.31285 -4.42977,2.91524 -6.97697,3.3329 -1.42121,0.23305 -4.31242,0.21588 -5.8158,-0.0345 z"
     id="path74" /></svg>
