<svg id="stroke" height="512" viewBox="0 0 340 340" width="512" xmlns="http://www.w3.org/2000/svg"><path d="m63.907 219.088a3.5 3.5 0 0 1 -2.475-1.025l-19.855-19.855a3.5 3.5 0 0 1 0-4.949l7.2-7.2a18.562 18.562 0 0 1 9.223-5.034l3.967-.857a11.584 11.584 0 0 0 5.754-3.138l4.2-4.2a3.5 3.5 0 0 1 4.95 4.949l-4.2 4.2a18.567 18.567 0 0 1 -9.224 5.03l-3.966.857a11.578 11.578 0 0 0 -5.75 3.134l-4.731 4.733 14.9 14.905 4.728-4.729a11.587 11.587 0 0 0 3.138-5.754l.857-3.965a18.569 18.569 0 0 1 5.029-9.224l4.17-4.17a3.5 3.5 0 1 1 4.95 4.949l-4.17 4.17a11.586 11.586 0 0 0 -3.137 5.754l-.857 3.966a18.57 18.57 0 0 1 -5.03 9.224l-7.2 7.2a3.5 3.5 0 0 1 -2.471 1.029z"/><path d="m130.431 144.772a3.5 3.5 0 0 1 -2.474-5.974l4.591-4.591a21.774 21.774 0 0 1 10.829-5.9l4.815-1.041a14.824 14.824 0 0 0 7.359-4.013l6.272-6.272-19.16-19.161-6.273 6.273a14.823 14.823 0 0 0 -4.012 7.358l-1.041 4.817a21.8 21.8 0 0 1 -5.9 10.829l-4.534 4.532a3.5 3.5 0 0 1 -4.949-4.949l4.534-4.533a14.816 14.816 0 0 0 4.011-7.359l1.042-4.816a21.791 21.791 0 0 1 5.9-10.828l8.748-8.747a3.5 3.5 0 0 1 4.949 0l24.11 24.109a3.5 3.5 0 0 1 0 4.949l-8.748 8.745a21.816 21.816 0 0 1 -10.829 5.905l-4.817 1.041a14.8 14.8 0 0 0 -7.357 4.011l-4.592 4.591a3.486 3.486 0 0 1 -2.474 1.024z"/><path d="m86.89 161.856a3.486 3.486 0 0 1 -2.475-1.025l-7.389-7.389a9.482 9.482 0 0 1 0-13.41l7.616-7.616a9.5 9.5 0 0 1 13.41 0l7.274 7.274a3.5 3.5 0 0 1 -4.95 4.95l-7.276-7.275a2.485 2.485 0 0 0 -3.511 0l-7.616 7.616a2.481 2.481 0 0 0 0 3.51l7.389 7.39a3.5 3.5 0 0 1 -2.475 5.974z"/><path d="m100.231 200.681a3.487 3.487 0 0 1 -2.475-1.026l-11.248-11.247a3.5 3.5 0 1 1 4.949-4.949l8.774 8.772 3.345-3.345-8.715-8.715a3.5 3.5 0 0 1 4.95-4.949l11.189 11.189a3.5 3.5 0 0 1 0 4.949l-8.3 8.295a3.49 3.49 0 0 1 -2.469 1.026z"/><path d="m72.325 316.662a3.5 3.5 0 0 1 -2.5-5.949c14.671-14.975 9.528-31.308 6.636-37.635a3.5 3.5 0 1 1 6.366-2.91c2.726 5.963 10.2 26.861-8 45.443a3.483 3.483 0 0 1 -2.502 1.051z"/><path d="m82.1 327.908a3.5 3.5 0 0 1 -2.245-6.187 34.065 34.065 0 0 0 10.335-18.589 14.9 14.9 0 0 1 11.286-12.024l.2-.046a2.482 2.482 0 0 0 1.825-2.878l-.073-.411a2.6 2.6 0 0 0 -2.344-2.094l-.225-.028a10.054 10.054 0 0 1 -8.749-8.851 52.641 52.641 0 0 0 -4.092-15.013 3.5 3.5 0 1 1 6.41-2.812 59.584 59.584 0 0 1 4.634 17.006 3.123 3.123 0 0 0 2.678 2.726l.121.015a9.549 9.549 0 0 1 8.461 7.84l.073.41a9.483 9.483 0 0 1 -7.178 10.919l-.172.039a7.9 7.9 0 0 0 -5.957 6.374 40.66 40.66 0 0 1 -12.758 22.796 3.486 3.486 0 0 1 -2.23.808z"/><path d="m125.606 281.354a9.725 9.725 0 0 1 -9.728-9.425c-.083-2.646-.321-5.523-.708-8.552a11.222 11.222 0 0 0 -13.41-9.589 3.5 3.5 0 0 1 -1.536-6.83 18.222 18.222 0 0 1 21.89 15.534c.414 3.249.67 6.35.76 9.216a2.713 2.713 0 0 0 .935 1.976 2.674 2.674 0 0 0 2.071.655l9.629-1.009a.991.991 0 0 0 .719-1.541 13.291 13.291 0 0 1 -2.253-6.707l-.64-11.777a14.268 14.268 0 0 1 1.925-7.963c-5-.784-11.606-3.311-18.623-10.08a3.5 3.5 0 1 1 4.859-5.037c11.272 10.871 20.545 8.121 20.635 8.091a3.5 3.5 0 0 1 3.6 5.788l-3.3 3.3a7.26 7.26 0 0 0 -2.114 5.523l.64 11.777a6.277 6.277 0 0 0 1.066 3.17 7.991 7.991 0 0 1 -5.791 12.42l-9.629 1.01a9.661 9.661 0 0 1 -.997.05z"/><path d="m182.766 118.141a3.5 3.5 0 0 1 -3.477-3.14l-.952-9.206a10.987 10.987 0 0 1 3.171-8.932l9.6-9.6a3.5 3.5 0 0 1 2.475-1.026 3.5 3.5 0 0 1 2.475 1.026l6.651 6.651a3.5 3.5 0 1 1 -4.95 4.949l-4.176-4.176-7.123 7.124a4.01 4.01 0 0 0 -1.159 3.262l.952 9.2a3.5 3.5 0 0 1 -3.122 3.842 3.427 3.427 0 0 1 -.365.026z"/><path d="m259.151 79.939a3.5 3.5 0 0 1 -2.475-5.974l34.256-34.256a3.5 3.5 0 1 1 4.95 4.949l-34.256 34.256a3.489 3.489 0 0 1 -2.475 1.025z"/><path d="m250.065 70.938a3.5 3.5 0 0 1 -2.476-5.975l34.355-34.355a3.5 3.5 0 1 1 4.95 4.95l-34.354 34.354a3.49 3.49 0 0 1 -2.475 1.026z"/><path d="m46.024 290.568a3.5 3.5 0 0 1 -2.475-5.974l64.292-64.294-5.9-5.9a3.5 3.5 0 0 1 0-4.949l64.989-64.989a3.5 3.5 0 0 1 5.9 1.754l3.2 15.212a3.5 3.5 0 0 1 -6.85 1.441l-1.871-8.889-57.946 57.946 5.9 5.9a3.5 3.5 0 0 1 0 4.949l-66.763 66.768a3.486 3.486 0 0 1 -2.476 1.025z"/><path d="m54.648 299.42a3.5 3.5 0 0 1 -2.476-5.975l90.051-90.05a3.5 3.5 0 0 1 4.95 4.949l-90.05 90.056a3.493 3.493 0 0 1 -2.475 1.02z"/><path d="m33.077 278.393a3.5 3.5 0 0 1 -2.475-5.975l54.821-54.818a5.608 5.608 0 0 0 1.616-3.436l.48-5.122a12.629 12.629 0 0 1 3.635-7.731l146.046-146.049a3.5 3.5 0 0 1 4.95 0l24.576 24.575a9.948 9.948 0 0 1 0 14.052l-70.7 70.7a3.5 3.5 0 0 1 -4.95-4.949l70.7-70.7a2.94 2.94 0 0 0 0-4.153l-22.1-22.1-143.576 143.57a5.607 5.607 0 0 0 -1.615 3.436l-.481 5.121a12.625 12.625 0 0 1 -3.634 7.732l-54.818 54.821a3.487 3.487 0 0 1 -2.475 1.026z"/><path d="m186.5 242.306a3.5 3.5 0 0 1 -2.475-1.026l-23-23a3.5 3.5 0 0 1 4.95-4.949l20.23 20.229 20.832-26.06a5.866 5.866 0 0 0 -.435-7.815l-17.792-17.791a3.5 3.5 0 1 1 4.949-4.95l17.793 17.792a12.859 12.859 0 0 1 .953 17.134l-23.271 29.12a3.5 3.5 0 0 1 -2.54 1.31c-.065 0-.129.006-.194.006z"/><path d="m159.866 223.147a3.5 3.5 0 0 1 -2.475-1.025l-18.317-18.316a8.657 8.657 0 0 1 0-12.24l47.132-47.13a3.5 3.5 0 0 1 5.876 1.649l4.791 19.748a17.671 17.671 0 0 1 -3.106 14.905l-31.113 41.025a3.5 3.5 0 0 1 -2.549 1.377c-.08.005-.16.007-.239.007zm26.883-69.355-42.725 42.724a1.655 1.655 0 0 0 0 2.339l15.476 15.479 28.687-37.826a10.7 10.7 0 0 0 1.88-9.025z"/><path d="m297.569 46.283a10.062 10.062 0 0 1 -7.135-2.949l-7.221-7.222a10.1 10.1 0 0 1 0-14.27l11.971-11.971a10.09 10.09 0 0 1 14.271 0l7.221 7.221a10.09 10.09 0 0 1 0 14.27l-11.97 11.971a10.062 10.062 0 0 1 -7.137 2.95zm4.751-32.368a3.07 3.07 0 0 0 -2.186.905l-11.97 11.971a3.094 3.094 0 0 0 0 4.372l7.22 7.221a3.094 3.094 0 0 0 4.371 0l11.971-11.971a3.089 3.089 0 0 0 0-4.369l-7.221-7.222a3.07 3.07 0 0 0 -2.185-.907z"/><path d="m188.194 150.9a3.5 3.5 0 0 1 -2.475-1.025l-5.008-5.009a10.024 10.024 0 0 1 0-14.178l6.574-6.575a10.025 10.025 0 0 1 14.179 0l5.009 5.009a3.5 3.5 0 0 1 0 4.949l-15.8 15.8a3.5 3.5 0 0 1 -2.479 1.029zm6.181-22.724a3 3 0 0 0 -2.14.887l-6.574 6.574a3.025 3.025 0 0 0 0 4.28l2.533 2.533 10.854-10.853-2.534-2.534a3 3 0 0 0 -2.139-.891z"/><path d="m211.815 127.276a3.5 3.5 0 0 1 -2.476-1.025l-5.008-5.009a10.027 10.027 0 0 1 0-14.179l6.574-6.574a10.026 10.026 0 0 1 14.18 0l5.008 5.007a3.5 3.5 0 0 1 0 4.95l-15.8 15.805a3.5 3.5 0 0 1 -2.478 1.025zm6.185-22.724a3.006 3.006 0 0 0 -2.139.886l-6.575 6.575a3.027 3.027 0 0 0 0 4.28l2.534 2.533 10.854-10.854-2.534-2.533a3.005 3.005 0 0 0 -2.14-.887z"/><path d="m235.435 103.655a3.5 3.5 0 0 1 -2.475-1.025l-5.008-5.009a10.025 10.025 0 0 1 0-14.179l6.574-6.574a10.026 10.026 0 0 1 14.18 0l5.008 5.009a3.5 3.5 0 0 1 0 4.949l-15.8 15.8a3.5 3.5 0 0 1 -2.479 1.029zm6.181-22.724a3.008 3.008 0 0 0 -2.14.886l-6.576 6.575a3.025 3.025 0 0 0 0 4.28l2.533 2.533 10.857-10.853-2.535-2.535a3.006 3.006 0 0 0 -2.139-.886z"/><path d="m64.221 333.085q-1.034 0-2.1-.064a13.165 13.165 0 0 1 -12.248-12.285c-.35-4.178-3.017-7.9-7.925-11.077l-15.779-10.646a13.162 13.162 0 0 1 -1.945-20.213l6.129-6.13a3.6 3.6 0 0 1 4.95 0l49.267 49.264a3.5 3.5 0 0 1 -.477 5.347 37.466 37.466 0 0 1 -19.872 5.804zm-31.393-52.993-3.654 3.654a6.161 6.161 0 0 0 .91 9.464l15.721 10.608c8.442 5.455 10.67 11.9 11.043 16.332a6.22 6.22 0 0 0 5.694 5.885 30.644 30.644 0 0 0 13.724-2.506z"/><path d="m102.16 176.167a18.617 18.617 0 1 1 13.165-31.781 18.617 18.617 0 0 1 -13.165 31.781zm0-30.234a11.615 11.615 0 1 0 8.216 3.4 11.54 11.54 0 0 0 -8.216-3.4z"/><path d="m87.58 189.364a8.918 8.918 0 0 1 -6.323-2.614l-8.3-8.3a8.952 8.952 0 0 1 0-12.645l4.19-4.191a8.958 8.958 0 0 1 12.647 0l8.3 8.3a8.954 8.954 0 0 1 0 12.647l-4.19 4.19a8.915 8.915 0 0 1 -6.324 2.613zm-4.105-23.364a1.937 1.937 0 0 0 -1.374.568l-4.19 4.19a1.945 1.945 0 0 0 0 2.747l8.3 8.3a1.945 1.945 0 0 0 2.746 0l4.19-4.191a1.946 1.946 0 0 0 0-2.748l-8.3-8.295a1.937 1.937 0 0 0 -1.372-.571z"/><path d="m133.5 167.415a3.49 3.49 0 0 1 -2.475-1.025l-11.096-11.09a3.5 3.5 0 1 1 4.95-4.949l8.618 8.617 3.345-3.345-8.618-8.623a3.5 3.5 0 0 1 4.95-4.949l11.093 11.093a3.5 3.5 0 0 1 0 4.949l-8.295 8.295a3.493 3.493 0 0 1 -2.472 1.027z"/><path d="m120.846 156.1a8.915 8.915 0 0 1 -6.323-2.615l-8.3-8.3a8.953 8.953 0 0 1 0-12.646l4.191-4.19a8.939 8.939 0 0 1 12.647 0l8.294 8.294a8.941 8.941 0 0 1 0 12.647l-4.19 4.189a8.912 8.912 0 0 1 -6.319 2.621zm-4.105-23.367a1.929 1.929 0 0 0 -1.373.57l-4.191 4.19a1.944 1.944 0 0 0 0 2.747l8.294 8.295a1.947 1.947 0 0 0 2.747 0l4.19-4.19a1.94 1.94 0 0 0 0-2.745l-8.3-8.3a1.927 1.927 0 0 0 -1.367-.569z"/><path d="m195.586 229.631a3.491 3.491 0 0 1 -2.476-1.026l-22.342-22.342a3.5 3.5 0 0 1 4.95-4.95l22.343 22.343a3.5 3.5 0 0 1 -2.475 5.975z"/><path d="m204.726 218.121a3.491 3.491 0 0 1 -2.475-1.025l-22.343-22.344a3.5 3.5 0 1 1 4.95-4.949l22.342 22.343a3.5 3.5 0 0 1 -2.475 5.975z"/><path d="m143.263 245.13a3.5 3.5 0 0 1 -1.6-6.616c.144-.075 14.351-7.529 11.719-18.554a9.838 9.838 0 0 0 -2.72-4.564l-3.34-3.339a3.5 3.5 0 0 1 4.95-4.95l3.34 3.34a16.8 16.8 0 0 1 4.579 7.888c3.913 16.4-14.558 26.012-15.346 26.413a3.486 3.486 0 0 1 -1.582.382z"/><path d="m140.528 234.188a3.523 3.523 0 0 1 -.84-.1 16.343 16.343 0 0 1 -12.409-12.63 3.5 3.5 0 0 1 6.9-1.154 9.407 9.407 0 0 0 7.179 6.987 3.5 3.5 0 0 1 -.834 6.9z"/><path d="m204 135.093a3.5 3.5 0 0 1 -2.475-5.975l53.312-53.312a3.5 3.5 0 0 1 4.95 4.949l-53.312 53.312a3.487 3.487 0 0 1 -2.475 1.026z"/></svg>