<?xml version="1.0" encoding="UTF-8" standalone="no"?>
<!-- Created with Inkscape (http://www.inkscape.org/) -->

<svg
   width="498.97107"
   height="505.81586"
   viewBox="0 0 132.01943 133.83045"
   version="1.1"
   id="svg1"
   xml:space="preserve"
   xmlns="http://www.w3.org/2000/svg"
   xmlns:svg="http://www.w3.org/2000/svg"><defs
     id="defs1" /><g
     id="layer1"
     transform="translate(-1.6289861,-1.2991582)"><path
       style="fill:#000000;stroke-width:0.623904"
       d="m 15.688021,134.94634 c -0.38259,-0.12487 -1.051143,-0.43177 -1.485673,-0.68198 -0.974065,-0.56093 -10.7364598,-10.22194 -11.5057189,-11.38625 -0.8621013,-1.3048 -1.1379285,-2.35816 -1.052995,-4.02127 0.096857,-1.89664 0.7027307,-3.12414 2.315096,-4.69038 0.8392035,-0.81519 1.105892,-1.17305 0.9841517,-1.3206 -0.3324887,-0.40295 -0.857317,-2.27378 -0.857317,-3.05602 0,-1.04686 0.4072962,-2.40987 0.9970768,-3.33667 0.6609701,-1.03867 6.2073294,-6.494505 7.0090524,-6.894645 0.363166,-0.181268 1.081083,-0.423045 1.595374,-0.537291 0.928232,-0.206212 0.965655,-0.238665 5.114084,-4.435292 2.298455,-2.325171 6.644868,-6.716071 9.658694,-9.757576 l 5.479686,-5.530005 -0.147731,-0.897596 c -0.447841,-2.721034 0.95024,-5.42381 3.439648,-6.649529 0.96592,-0.475599 1.261096,-0.54155 2.424093,-0.54155 0.728337,0 1.623935,0.05959 1.990217,0.132307 l 0.665969,0.132295 8.152362,-8.220969 c 4.483799,-4.521522 10.378959,-10.46674 13.100356,-13.211575 l 4.947998,-4.990605 -0.4524,-1.008077 c -0.343609,-0.765673 -0.453692,-1.272493 -0.457766,-2.107612 -0.0093,-1.903489 0.621172,-2.884573 3.995088,-6.216847 1.195034,-1.180293 3.660588,-3.685834 5.479008,-5.567882 l 3.306216,-3.421918 -0.844281,-0.947266 c -1.495062,-1.677419 -1.852099,-3.003061 -1.169291,-4.341469 0.361566,-0.70873 5.217873,-5.900159 7.926468,-8.473459 0.939246,-0.892325 2.158575,-1.942723 2.709626,-2.334216 1.006035,-0.714737 4.29299,-2.5225189 6.449375,-3.5470676 0.63554,-0.3019586 1.935502,-0.9204724 2.88881,-1.374475 1.362047,-0.6486605 1.921563,-0.8292924 2.612303,-0.8433523 0.81135,-0.016516 0.92178,0.028735 1.43443,0.587827 0.99083,1.0805934 0.95377,1.4832889 -0.38266,4.1579399 -0.64158,1.284007 -1.36646,2.817402 -1.61085,3.407544 -0.950542,2.29532 -2.054178,5.336467 -1.96791,5.422731 0.04985,0.04984 0.515301,-0.0049 1.034369,-0.121705 2.349911,-0.528672 3.298481,-0.399953 4.143301,0.562244 0.60072,0.684188 0.63188,0.884254 0.90678,5.821719 0.12396,2.22666 0.28865,3.91858 0.39142,4.02135 0.11646,0.116457 1.76028,0.188231 4.78414,0.208888 4.24967,0.02902 4.65062,0.0567 5.17331,0.356911 1.16349,0.668263 1.50311,2.074375 1.15328,4.774909 -0.0705,0.544743 -0.10338,1.035977 -0.0729,1.091636 0.0758,0.138056 3.79441,-0.877164 6.43871,-1.757767 1.19096,-0.396618 3.39898,-1.249856 4.90673,-1.89608 3.09182,-1.325167 4.12483,-1.54174 5.11427,-1.072215 1.14467,0.543175 1.53555,1.759417 1.02789,3.198306 -0.66812,1.893652 -4.46834,8.147052 -6.83578,11.248523 -3.47934,4.558121 -9.98197,11.522916 -11.33073,12.136049 -1.66193,0.755498 -2.96011,0.430046 -4.69632,-1.177378 l -0.95492,-0.884087 -6.05638,6.180167 c -6.918694,7.060108 -6.986458,7.112491 -9.174335,7.091398 -1.054762,-0.01045 -1.39192,-0.09048 -2.277303,-0.542664 l -1.039167,-0.530736 -13.61753,13.501044 c -11.64221,11.542615 -13.604178,13.554937 -13.525442,13.872573 0.730449,2.946887 -0.665337,6.004405 -3.345115,7.327595 -0.654558,0.3232 -1.038073,0.38483 -2.408118,0.38698 l -1.629572,0.002 -9.182833,9.30533 -9.182831,9.30534 -0.09638,0.9293 c -0.05301,0.51112 -0.229772,1.18931 -0.392811,1.50707 -0.163039,0.31778 -1.976762,2.27186 -4.030495,4.34242 -4.470181,4.50682 -4.942529,4.81949 -7.279697,4.81886 -0.942948,-2.7e-4 -1.653463,-0.0956 -2.15549,-0.28909 l -0.748881,-0.2887 -1.070037,1.04406 c -1.52125,1.4843 -2.905866,2.13786 -4.669984,2.20431 -0.830857,0.0312 -1.612372,-0.0362 -2.041727,-0.17633 z m 3.112028,-5.66392 1.146246,-1.10662 -5.74224,-5.74398 c -3.158231,-3.1592 -5.8169207,-5.73699 -5.9081965,-5.72841 -0.09128,0.008 -0.593092,0.4894 -1.1151411,1.06849 -1.5508154,1.72027 -1.8197851,1.25851 4.2948256,7.37313 4.4111,4.41109 5.318199,5.24401 5.711133,5.24401 0.352338,0 0.748795,-0.27193 1.613373,-1.10662 z m 11.237107,-4.79482 3.270417,-3.26023 -9.092493,-9.07911 -9.092494,-9.07912 -3.124925,3.19392 c -2.4371148,2.49092 -3.1249252,3.28843 -3.1249252,3.62332 0,0.34635 1.6526362,2.09073 8.5426222,9.01689 4.698443,4.72311 8.616907,8.64416 8.707698,8.71349 0.09079,0.0693 0.272762,0.12714 0.404379,0.12854 0.131617,0.001 1.710993,-1.46458 3.509721,-3.2577 z m 7.372374,-9.84199 c 1.464291,-1.4693 1.681834,-1.75604 1.53416,-2.02218 -0.09464,-0.17055 -3.630356,-3.76351 -7.857144,-7.98434 l -7.685072,-7.674245 -1.81799,1.812358 -1.81799,1.812367 7.882769,7.88404 c 4.335524,4.33622 7.921528,7.88405 7.968901,7.88405 0.04737,0 0.853937,-0.77042 1.792366,-1.71205 z m 0.579014,-16.630723 -7.94227,-7.942279 -1.59019,1.528256 c -0.874605,0.840542 -1.590191,1.610245 -1.590191,1.71046 0,0.100238 3.546674,3.729449 7.881498,8.064976 l 7.881497,7.88278 1.650964,-1.65096 1.650964,-1.65097 z m 6.537772,-6.207497 c -4.31116,-4.334277 -7.902271,-7.909419 -7.980249,-7.944741 -0.07797,-0.03531 -0.76578,0.556533 -1.528451,1.315248 l -1.386675,1.379467 7.965462,7.966728 7.965464,7.966748 1.40146,-1.40147 1.401458,-1.401455 z m 13.836192,5.501027 c 0.668346,-0.345616 1.026043,-0.814885 1.135563,-1.489752 0.0983,-0.605768 0.0976,-0.606605 -3.932528,-4.683841 -2.216967,-2.242868 -6.368561,-6.445628 -9.225764,-9.339448 -2.857203,-2.89383 -5.397982,-5.38821 -5.646179,-5.543083 -1.471728,-0.918329 -2.889499,1.019761 -1.92639,2.633375 0.189666,0.317775 4.405112,4.644792 9.367659,9.615617 6.689692,6.700833 9.120901,9.037841 9.402151,9.037841 0.208633,0 0.580107,-0.103839 0.825488,-0.230709 z M 71.15785,80.107566 c 5.418928,-5.320169 9.852589,-9.721777 9.852589,-9.78134 0,-0.05958 -3.473024,-3.580741 -7.717835,-7.824827 l -7.717836,-7.716518 -9.820106,9.821144 -9.820112,9.821156 7.592183,7.650312 c 4.175703,4.207674 7.634113,7.662195 7.685361,7.676725 0.05123,0.01452 4.52683,-4.326482 9.945756,-9.646652 z m -12.538978,2.238153 c -1.029475,-0.203751 -2.310122,-0.915703 -3.140115,-1.7457 -1.998493,-1.998488 -2.249864,-5.250096 -0.577892,-7.475286 0.34827,-0.463508 2.452684,-2.831063 4.676474,-5.261235 3.397824,-3.713165 4.200202,-4.502148 5.026477,-4.942542 3.7215,-1.98354 8.096358,0.193053 8.836783,4.396486 0.221081,1.255117 -0.150978,3.130242 -0.816278,4.11394 -0.534625,0.790483 -4.797886,5.480073 -7.355141,8.090672 -1.929345,1.969591 -2.713768,2.494379 -4.199654,2.809657 -0.980679,0.208083 -1.456369,0.210801 -2.450654,0.01405 z m 2.014557,-4.827763 c 0.650614,-0.383794 7.97638,-8.317002 8.086937,-8.757489 0.0897,-0.357429 0.0037,-0.543165 -0.469102,-1.016243 -0.318378,-0.318379 -0.732283,-0.578869 -0.919786,-0.578869 -0.381206,0 -1.147267,0.628825 -2.41322,1.980903 -0.467541,0.499353 -1.963972,2.09645 -3.325388,3.549103 -2.75801,2.942847 -3.032609,3.290635 -3.032609,3.840953 0,0.890441 1.235812,1.475593 2.073168,0.981642 z m 25.586585,-12.300343 1.459294,-1.369978 -7.78984,-7.789844 -7.789839,-7.789832 -1.488687,1.481785 -1.488688,1.481795 7.718153,7.719456 c 4.244987,4.245713 7.763643,7.700826 7.819233,7.678038 0.05559,-0.02276 0.757763,-0.657932 1.560374,-1.41142 z M 98.2523,59.098587 98.573992,58.730566 87.77139,47.927024 76.968788,37.123472 l -2.189493,2.184991 -2.189502,2.18499 10.854585,10.861175 10.854586,10.861163 1.815826,-1.874592 c 0.998703,-1.031016 1.960584,-2.040198 2.13751,-2.242612 z m 5.74126,-5.702675 1.77101,-1.838155 L 94.956898,40.751011 84.14921,29.944276 82.331501,31.756343 80.51379,33.568422 91.285634,44.39747 c 5.924514,5.955975 10.808986,10.830743 10.854386,10.832811 0.0455,0.0023 0.87949,-0.823387 1.85354,-1.834369 z m 11.49096,-3.852288 c 3.41531,-3.631174 6.19912,-6.992067 8.36559,-10.099753 0.64829,-0.929956 0.86372,-1.346713 0.64892,-1.255454 -0.85556,0.363503 -6.03525,1.946766 -8.14552,2.489815 -3.23703,0.833015 -4.54744,0.68144 -5.52981,-0.639651 -0.45328,-0.609555 -0.4372,-2.001844 0.0445,-3.852265 0.58259,-2.237978 0.86641,-2.035924 -2.85991,-2.035924 -3.42282,0 -4.50759,-0.143201 -5.72356,-0.755555 -0.93828,-0.472522 -2.00441,-1.652826 -2.25352,-2.494902 -0.303579,-1.026174 -0.532392,-3.298804 -0.532392,-5.287839 0,-1.435477 -0.05004,-1.861421 -0.218767,-1.861421 -0.352174,0 -3.406369,0.943856 -4.524925,1.398368 -1.074751,0.43671 -2.154837,0.535939 -2.693816,0.247487 -0.529463,-0.283363 -0.865068,-1.121721 -0.758955,-1.895915 0.249488,-1.820194 2.098106,-7.040175 3.439783,-9.712963 0.35797,-0.713127 0.590413,-1.270255 0.51653,-1.238062 -0.23971,0.104454 -1.730682,1.191553 -2.927686,2.134642 -1.906761,1.50229 -4.513473,3.931424 -6.441776,6.002927 L 84.082447,22.6281 98.682508,37.129454 c 8.030032,7.975753 14.650092,14.5053 14.711242,14.51012 0.0611,0.0047 1.002,-0.938364 2.09077,-2.09595 z m -5.91613,-24.084767 c -1.36755,-0.450536 -1.86607,-1.647752 -1.21306,-2.913172 0.3435,-0.66563 3.57467,-5.525137 4.88732,-7.350277 0.54371,-0.75598 0.92369,-1.433358 0.84439,-1.505283 -0.0793,-0.07192 -0.93979,-0.660195 -1.91221,-1.307269 -2.24707,-1.495268 -2.91483,-2.086019 -3.28904,-2.9097398 -0.38614,-0.8499857 -0.38196,-1.1472635 0.0281,-1.994306 0.67398,-1.3922714 0.29842,-1.2646539 13.29366,-4.5171279 7.53281,-1.885327 7.60007,-1.8958734 8.61773,-1.3512473 0.88166,0.4718524 1.35319,2.2358352 0.85086,3.18305 -0.11266,0.2124488 -1.24194,1.6811922 -2.5095,3.2638742 l -2.30467,2.8776048 0.98158,0.919117 c 3.45139,3.231777 3.8734,3.669877 4.17477,4.333944 0.55581,1.224726 0.32616,2.666163 -0.49476,3.105508 -0.45903,0.245664 -1.63025,0.587242 -7.92382,2.310933 -5.63489,1.543293 -6.79597,1.878235 -11.11942,3.207721 -1.34917,0.414872 -2.50056,0.748446 -2.55868,0.741278 -0.0581,-0.0072 -0.21707,-0.04974 -0.35325,-0.0946 z m 11.27574,-8.581071 c 1.56098,-0.420815 3.00529,-0.800895 3.20957,-0.844617 0.20427,-0.04372 0.37142,-0.109181 0.37142,-0.145457 0,-0.03628 -0.56572,-0.631674 -1.25716,-1.323108 -2.09703,-2.097031 -2.54739,-3.736907 -1.47239,-5.3613356 0.37753,-0.5704824 0.40309,-0.6677383 0.14842,-0.5644728 -0.16923,0.068622 -1.01338,0.3474384 -1.87589,0.6195998 -0.86252,0.2721606 -1.58591,0.5110906 -1.60754,0.5309526 -0.0216,0.01986 0.32199,0.410966 0.76359,0.869116 0.90405,0.937925 1.42745,2.188329 1.24071,2.964019 -0.19564,0.81271 -0.68801,1.644729 -1.63121,2.756531 -0.87042,1.025995 -1.02468,1.263891 -0.81959,1.263891 0.0505,0 1.36911,-0.344303 2.93007,-0.765119 z"
       id="path62" /><path
       style="fill:#ffffff;stroke-width:4.30315"
       d="m 446.36736,65.334152 c 0.33254,-0.457879 1.78998,-2.288093 3.23875,-4.06714 1.44878,-1.779048 3.27067,-4.444706 4.04866,-5.923685 2.71057,-5.152882 1.62727,-9.993149 -3.46841,-15.497091 l -2.44707,-2.643131 6.44123,-2.135187 c 3.54267,-1.174353 6.44122,-2.044784 6.44122,-1.934291 0,0.110492 -0.51698,0.982108 -1.14885,1.936924 -1.70129,2.570823 -2.2086,5.923311 -1.37857,9.110014 0.91384,3.508485 3.01244,6.645641 7.83709,11.715524 2.22727,2.340481 3.93668,4.255419 3.79868,4.255419 -0.138,0 -5.3426,1.353409 -11.56578,3.007576 -6.22318,1.654166 -11.55938,3.007575 -11.85822,3.007575 -0.39329,0 -0.37637,-0.229911 0.0613,-0.832507 z"
       id="path63"
       transform="scale(0.26458333)" /><path
       style="fill:#ffffff;stroke-width:4.30315"
       d="m 419.66022,186.08194 c -4.81862,-4.74924 -29.63625,-29.32859 -55.15029,-54.62078 l -46.38915,-45.985792 6.58761,-6.95408 c 3.62318,-3.824744 9.29443,-9.45219 12.60276,-12.505435 8.37368,-7.728028 21.18637,-17.915542 21.78244,-17.319466 0.11093,0.110923 -0.81443,2.369324 -2.05635,5.018668 -2.78398,5.938968 -5.96206,13.980114 -8.35497,21.139659 -3.84587,11.506735 -4.52253,15.993941 -2.87746,19.081399 1.97166,3.700404 5.11001,3.710695 16.15609,0.05298 9.51264,-3.14994 12.91206,-4.06463 13.37724,-3.599447 0.18321,0.18321 0.48177,4.348915 0.66347,9.257126 0.38307,10.347968 1.3534,16.811898 2.92671,19.496548 1.26497,2.15851 5.47007,6.2744 7.45629,7.29811 3.85725,1.98804 6.13844,2.30135 19.17537,2.63363 6.99839,0.17838 13.08873,0.48619 13.53409,0.68403 1.07871,0.47921 1.02396,1.63102 -0.34643,7.28746 -1.30573,5.38956 -1.52576,11.09213 -0.52079,13.49736 0.89073,2.13182 3.71098,4.30255 6.44074,4.95741 3.33071,0.79902 7.92037,0.27188 16.12489,-1.85201 6.02335,-1.55927 26.07109,-7.56581 28.78307,-8.62376 0.80486,-0.31398 0.8147,-0.25328 0.16308,1.0068 -0.97,1.87578 -10.97663,15.2552 -15.36289,20.54106 -7.46192,8.9923 -22.31977,25.28454 -24.93319,27.34026 -1.01166,0.79576 -1.10309,0.72256 -9.78233,-7.83173 z"
       id="path64"
       transform="scale(0.26458333)" /><path
       style="fill:#ffffff;stroke-width:4.30315"
       d="m 345.2893,167.61101 -40.60378,-40.60576 6.71421,-6.70223 6.71421,-6.70223 40.48409,40.48211 c 22.26625,22.26516 40.48409,40.60508 40.48409,40.75537 0,0.38644 -12.51049,13.37849 -12.88261,13.37849 -0.16853,0 -18.57813,-18.27259 -40.91021,-40.60575 z"
       id="path65"
       transform="scale(0.26458333)" /><path
       style="fill:#ffffff;stroke-width:4.30315"
       d="m 315.56463,197.57514 -40.71589,-40.71787 8.09732,-8.09732 8.09731,-8.09732 40.63536,40.63732 40.63536,40.63733 -7.70393,8.06194 c -4.23716,4.43407 -7.84471,8.11411 -8.01678,8.17786 -0.17207,0.0638 -18.635,-18.20711 -41.02875,-40.60194 z"
       id="path66"
       transform="scale(0.26458333)" /><path
       style="fill:#ffffff;stroke-width:4.30315"
       d="m 290.52739,222.4449 -28.91487,-28.80331 5.4642,-5.43399 5.46419,-5.43398 29.26889,29.27161 29.26889,29.27161 -5.40089,4.9657 c -2.9705,2.73112 -5.5887,4.96568 -5.81823,4.96568 -0.22953,0 -13.42901,-12.96149 -29.33218,-28.80332 z"
       id="path67"
       transform="scale(0.26458333)" /><path
       style="fill:#ffffff;stroke-width:4.30315"
       d="m 202.63215,309.97946 -28.65372,-28.65652 36.89923,-36.89923 36.89923,-36.89923 28.48514,28.4554 c 15.66682,15.65047 28.67015,28.78655 28.89627,29.19128 0.32541,0.58244 -3.80498,4.93275 -19.80891,20.86367 -22.1307,22.02972 -51.73546,50.97051 -53.16204,51.96973 -0.83744,0.58657 -2.93664,-1.40395 -29.5552,-28.0251 z m 29.09307,1.19277 c 5.86978,-1.52888 9.2785,-4.15642 19.81382,-15.27308 8.90165,-9.39284 20.01725,-21.68845 22.20691,-24.56435 2.50718,-3.29294 3.69054,-6.93425 3.98123,-12.25062 0.37332,-6.82763 -1.53125,-12.20812 -5.99035,-16.92297 -8.21218,-8.68316 -20.89702,-9.80939 -30.3605,-2.69557 -3.63934,2.73575 -29.60794,30.81923 -34.14747,36.92845 -5.07779,6.8336 -5.34843,17.47555 -0.63138,24.82645 2.77475,4.32407 8.61371,8.53175 13.84013,9.97351 2.9418,0.81152 8.12669,0.8015 11.28761,-0.0218 z"
       id="path68"
       transform="scale(0.26458333)" /><path
       style="fill:#ffffff;stroke-width:4.30315"
       d="m 224.4114,292.91686 c -3.08951,-1.26451 -3.46636,-4.09059 -0.97256,-7.29334 2.38008,-3.05668 22.20832,-24.30853 26.14552,-28.02268 3.84949,-3.63141 4.66989,-3.96998 6.4861,-2.67673 1.52667,1.08708 3.73779,3.58307 3.73779,4.21935 0,0.9962 -14.79297,17.4913 -24.97647,27.85035 -5.73011,5.82888 -6.3922,6.36128 -7.87551,6.33285 -0.89071,-0.0171 -2.0359,-0.20148 -2.54487,-0.4098 z"
       id="path69"
       transform="scale(0.26458333)" /><path
       style="fill:#ffffff;stroke-width:4.30315"
       d="m 204.48015,356.37286 c -12.90418,-12.46531 -30.68172,-30.28473 -47.99307,-48.10612 -10.68106,-10.99575 -11.42788,-12.07772 -10.76725,-15.5992 0.17555,-0.93577 0.99074,-2.43419 1.81152,-3.32983 1.18104,-1.28873 1.84217,-1.62842 3.16937,-1.62842 2.20836,0 2.23994,0.0218 8.06912,5.58148 8.14961,7.77277 63.09197,63.52124 64.5429,65.48986 0.73151,0.99251 1.33001,2.30421 1.33001,2.91488 0,2.68001 -3.11823,5.96743 -6.12279,6.455 -1.54245,0.25031 -1.8915,-0.0425 -14.03981,-11.77765 z"
       id="path70"
       transform="scale(0.26458333)" /><path
       style="fill:#ffffff;stroke-width:4.30315"
       d="m 157.54872,356.96646 -29.84244,-29.85278 4.9008,-4.8494 c 2.69544,-2.66717 5.09054,-4.8494 5.32245,-4.8494 0.23191,0 13.74603,13.3256 30.03138,29.61244 l 29.60973,29.61245 -5.08973,5.08973 -5.08974,5.08974 z"
       id="path71"
       transform="scale(0.26458333)" /><path
       style="fill:#ffffff;stroke-width:4.30315"
       d="m 131.50221,382.72893 c -16.2118,-16.24714 -29.476,-29.74135 -29.476,-29.98714 0,-0.32655 7.99463,-8.55371 11.37813,-11.70906 0.12468,-0.11627 13.64715,13.20786 30.04994,29.60917 l 29.82325,29.82056 -5.89025,5.90336 c -3.23965,3.24685 -6.00699,5.90336 -6.14966,5.90336 -0.14267,0 -13.5236,-13.29311 -29.73541,-29.54025 z"
       id="path72"
       transform="scale(0.26458333)" /><path
       style="fill:#ffffff;stroke-width:4.30315"
       d="m 104.91578,409.84968 -29.731049,-29.74574 6.604676,-6.59289 6.604676,-6.5929 29.257207,29.2917 c 17.1769,17.19716 29.2572,29.63816 29.2572,30.13078 0,0.46149 -2.75887,3.63261 -6.13083,7.04694 l -6.13082,6.20786 z"
       id="path73"
       transform="scale(0.26458333)" /><path
       style="fill:#ffffff;stroke-width:4.30315"
       d="M 69.586476,452.6401 C 39.455133,422.3517 34.008737,416.60969 34.008737,415.13133 c 0,-1.05844 3.672296,-5.18283 14.458113,-16.23802 l 8.76137,-8.98019 34.082269,34.10276 34.082271,34.10276 -12.35634,12.24077 c -6.79598,6.73242 -12.64633,12.24077 -13.00078,12.24077 -0.354444,0 -14.056569,-13.48204 -30.449164,-29.96008 z"
       id="path74"
       transform="scale(0.26458333)" /><path
       style="fill:#ffffff;stroke-width:4.30315"
       d="m 61.928198,490.5435 c -3.867316,-3.06268 -33.693008,-33.01697 -35.948489,-36.10349 -1.182752,-1.61854 -2.150458,-3.41533 -2.150458,-3.99288 0,-1.08343 6.551533,-9.0276 7.445037,-9.0276 0.258834,0 10.193563,9.66457 22.077176,21.47683 l 21.606569,21.47683 -1.156759,1.2553 c -2.739245,2.97262 -7.478384,6.68847 -8.530354,6.68847 -0.606831,0 -2.111056,-0.79806 -3.342722,-1.77346 z"
       id="path75"
       transform="scale(0.26458333)" /></g></svg>
