<?xml version="1.0" encoding="UTF-8" standalone="no"?>
<!-- Created with Inkscape (http://www.inkscape.org/) -->

<svg
   width="512"
   height="512"
   viewBox="0 0 512 512"
   version="1.1"
   id="svg1"
   xml:space="preserve"
   xmlns="http://www.w3.org/2000/svg"
   xmlns:svg="http://www.w3.org/2000/svg"><defs
     id="defs1" /><g
     id="g786"><g
       id="g840"
       transform="matrix(0.77525716,0,0,0.77525716,299.24773,-41.879911)"><path
         style="fill:none;stroke:#ffffff;stroke-width:10.4;stroke-linecap:round;stroke-linejoin:round;stroke-dasharray:none"
         d="m 24.298604,201.55201 c 0.561818,-29.30815 1.123635,-58.61629 1.755687,-74.27697 0.632052,-15.66068 1.334309,-17.67382 3.207065,-18.98473 1.872755,-1.31092 4.915871,-1.91954 11.540738,-2.10681 6.624866,-0.18727 16.831012,0.0468 22.308739,0.16386 5.477728,0.11705 6.226803,0.11705 9.035937,1.89617 2.809134,1.77913 7.678123,5.33723 15.89482,7.18655 8.216696,1.84932 19.78054,1.98977 26.05418,2.64523 6.27364,0.65547 7.2568,1.8259 7.74839,3.5816 0.49159,1.7557 0.49159,4.09656 0.49159,6.43747"
         id="path859"
         transform="matrix(1.1884524,-0.88307202,0.88307202,1.1884524,-504.18691,338.07706)" /><path
         style="fill:#d0d0d0;fill-opacity:1;stroke-width:1.14786"
         d="m 42.611656,353.55954 c -0.08591,-0.11561 0.02676,-0.87986 0.250363,-1.69831 0.368465,-1.3487 0.402795,-1.34363 0.366402,0.0541 -0.03822,1.46787 -0.276275,2.10254 -0.616765,1.6443 z M -101.14618,456.38335 c -0.79637,-1.07178 -1.00758,-1.59537 -0.46936,-1.16354 0.53823,0.43183 1.18982,1.30873 1.44796,1.94868 0.258143,0.63993 -0.18222,0.28663 -0.9786,-0.78514 z m 0.33491,-12.95829 c 0.59361,-0.64778 1.599537,-1.38737 2.235407,-1.64356 0.635857,-0.25618 0.15014,0.27384 -1.0793,1.17778 -1.229667,0.90369 -1.749717,1.11356 -1.156107,0.46578 z m 2.886393,-26.33989 c 0.590403,-0.64466 1.717843,-1.4824 2.505437,-1.86164 0.787605,-0.37926 0.304562,0.1482 -1.073423,1.1721 -1.377995,1.0239 -2.022393,1.33419 -1.432014,0.68954 z m 27.913321,-27.63455 c 0.282408,-0.45947 0.777309,-0.7965 1.099777,-0.74898 0.32248,0.0475 0.09148,0.42347 -0.513461,0.8354 -0.668446,0.45522 -0.898397,0.42133 -0.586316,-0.0864 z m -94.305324,24.27248 c 0.28241,-0.45947 0.77731,-0.79651 1.09978,-0.74897 0.32248,0.0475 0.0915,0.42348 -0.51346,0.8354 -0.66846,0.45522 -0.89841,0.42133 -0.58632,-0.0864 z m 80.195137,-63.10293 c -1.348691,-0.36847 -1.34364,-0.4028 0.05395,-0.3664 1.467873,0.0382 2.102537,0.27627 1.644299,0.61676 -0.115612,0.0859 -0.879858,-0.0267 -1.698306,-0.25036 z m 16.434812,-29.4929 c 4.140244,-3.22318 11.030204,-8.34271 15.311003,-11.37674 4.280799,-3.03401 0.893334,-0.39686 -7.527723,5.86035 -8.421043,6.2572 -11.923523,8.73958 -7.78328,5.51639 z m 27.038287,-20.01697 c 0.268014,-0.43888 0.894368,-0.90429 1.391908,-1.03425 0.497552,-0.12996 0.278264,0.2291 -0.48729,0.79794 -0.765543,0.56884 -1.172621,0.67518 -0.904618,0.23631 z m 5.037044,-3.76076 c 0.282409,-0.45948 0.777321,-0.79652 1.099789,-0.74898 0.322478,0.0475 0.09137,0.42347 -0.513473,0.8354 -0.668445,0.45522 -0.898396,0.42132 -0.586316,-0.0864 z m -238.35899,152.04518 c 0.43183,-0.53823 1.30874,-1.1898 1.94868,-1.44794 0.63993,-0.25816 0.28662,0.18221 -0.78515,0.97859 -1.07177,0.79637 -1.59535,1.00757 -1.16353,0.46935 z m 4.46334,-3.31931 c 0.43682,-0.54368 1.19535,-1.09288 1.68563,-1.22047 0.49026,-0.12757 0.1329,0.31725 -0.79422,0.98852 -0.92709,0.67127 -1.32821,0.77564 -0.89141,0.23196 z m 137.23194,-101.98219 c 0.59362,-0.64778 1.59954,-1.38738 2.2354,-1.64355 0.63586,-0.25618 0.15014,0.27384 -1.07929,1.17778 -1.22967,0.90369 -1.74972,1.11355 -1.1561,0.46577 z M -31.245995,268.989 c 4.447209,-3.44973 11.838244,-8.94159 16.424524,-12.20414 4.586279,-3.26256 0.947652,-0.44006 -8.085836,6.27221 -9.033488,6.71228 -12.785894,9.38164 -8.338688,5.93193 z M -313.51459,472.89195 c -1.13307,-1.53453 -1.44168,-2.17483 -0.68485,-1.42362 0.75682,0.75123 1.68422,2.00649 2.06112,2.78929 0.37667,0.783 -0.24234,0.16864 -1.37604,-1.36585 z m 15.13085,-13.40329 c -1.47897,-1.99044 -1.98295,-2.87979 -1.11996,-1.97633 0.86299,0.90343 2.07307,2.53196 2.68904,3.61895 0.61599,1.08698 -0.0901,0.3478 -1.56908,-1.64262 z m -4.41349,-5.79427 c -0.67128,-0.92708 -0.77564,-1.32821 -0.23196,-0.89139 0.54367,0.43682 1.09289,1.19535 1.22045,1.68562 0.12758,0.49027 -0.31723,0.1329 -0.9885,-0.79422 z m -21.24772,4.98598 c -1.47899,-1.99043 -1.98297,-2.87979 -1.11997,-1.97633 0.86298,0.90345 2.07306,2.53197 2.68904,3.61896 0.61599,1.08698 -0.0901,0.34781 -1.56907,-1.64263 z M -90.575133,266.48242 c 0.268002,-0.43887 0.894367,-0.90428 1.391908,-1.03424 0.497529,-0.12997 0.278253,0.2291 -0.48729,0.79795 -0.765555,0.56883 -1.172632,0.67517 -0.904618,0.23629 z m 60.130458,-44.67955 c 0.268008,-0.43887 0.894367,-0.90429 1.391909,-1.03425 0.497536,-0.12997 0.278258,0.22911 -0.487293,0.79795 -0.765549,0.56883 -1.17263,0.67517 -0.904616,0.2363 z m -81.914645,51.34238 c 0.28241,-0.45946 0.77731,-0.7965 1.09977,-0.74896 0.32248,0.0475 0.0914,0.42346 -0.51346,0.83539 -0.66845,0.45521 -0.8984,0.42133 -0.58632,-0.0864 z m 36.151322,-26.88288 c 0.593605,-0.64779 1.599545,-1.38739 2.235403,-1.64357 0.635857,-0.25618 0.150174,0.27382 -1.079288,1.17779 -1.229681,0.90369 -1.749731,1.11355 -1.156115,0.46578 z m 3.935649,-2.90348 c 0.282408,-0.45948 0.777309,-0.79652 1.099777,-0.74898 0.32248,0.0475 0.09137,0.42347 -0.513461,0.8354 -0.668457,0.45522 -0.898408,0.42132 -0.586328,-0.0864 z m 6.636979,-4.95116 c 0.590391,-0.64467 1.717843,-1.4824 2.505437,-1.86165 0.787605,-0.37924 0.304562,0.1482 -1.073434,1.1721 -1.377984,1.02391 -2.022382,1.33421 -1.432003,0.68955 z m 7.796793,-5.8098 c 0.908624,-0.86748 2.413792,-1.98191 3.344684,-2.47667 0.931019,-0.49461 0.187595,0.21514 -1.652036,1.57723 -1.839379,1.36244 -2.60139,1.76675 -1.692763,0.89928 z m 9.736813,-7.22773 c 0.747315,-0.75329 2.125299,-1.7772 3.062195,-2.27534 0.936896,-0.49816 0.325453,0.11817 -1.358746,1.3696 -1.684211,1.25145 -2.450764,1.65902 -1.703449,0.90574 z m 6.676374,-4.97084 c 1.059074,-0.97338 2.938146,-2.36961 4.175724,-3.10275 1.237578,-0.73313 0.371069,0.0632 -1.925583,1.76977 -2.296652,1.70651 -3.309215,2.30635 -2.250141,1.33298 z m 9.24015,-6.82666 c 0.282409,-0.45947 0.777316,-0.79651 1.099786,-0.74897 0.322477,0.0475 0.09141,0.42346 -0.513471,0.8354 -0.668451,0.45522 -0.898402,0.42132 -0.586322,-0.0864 z m 4.122171,-3.10214 c 1.059071,-0.97337 2.938149,-2.36961 4.175726,-3.10275 1.237584,-0.73312 0.371065,0.0633 -1.925584,1.76978 -2.296649,1.70651 -3.309207,2.30636 -2.250142,1.33297 z"
         id="path847" /><path
         style="fill:#b9b9b9;fill-opacity:1;stroke-width:1.14786"
         d="m -14.911395,408.7262 c -0.227537,-0.30623 -0.148372,-0.75393 0.17592,-0.99489 0.324293,-0.24096 0.620944,-0.0725 0.659225,0.37433 0.03827,0.44684 -0.04089,0.89454 -0.175927,0.99487 -0.135038,0.10033 -0.431689,-0.0681 -0.659218,-0.37431 z m -31.451612,-1.47471 c -1.348679,-0.36846 -1.343629,-0.40279 0.05406,-0.36639 1.467874,0.0382 2.102526,0.27627 1.6443,0.61675 -0.115624,0.0859 -0.879858,-0.0267 -1.698318,-0.25036 z m -45.811005,29.72158 c 3.235235,-2.55697 8.496928,-6.46606 11.692653,-8.68687 3.195715,-2.2208 0.54869,-0.12873 -5.88226,4.64904 -6.430961,4.77777 -9.045663,6.59476 -5.810393,4.03783 z m 22.21349,-16.50274 c 2.588266,-2.08126 7.097685,-5.4327 10.021057,-7.44751 2.92325,-2.01495 0.805592,-0.3121 -4.705943,3.7841 -5.511525,4.09621 -7.903289,5.74479 -5.315011,3.66355 z m -181.161118,88.94882 c -0.45522,-0.66845 -0.42133,-0.89841 0.0864,-0.58632 0.45948,0.2824 0.79651,0.77731 0.74898,1.09979 -0.0475,0.32248 -0.42348,0.0914 -0.83541,-0.51347 z M 33.206675,275.6823 c -0.455218,-0.66844 -0.421322,-0.89841 0.08643,-0.58631 0.459472,0.2824 0.79651,0.7773 0.748969,1.09978 -0.04754,0.32248 -0.423473,0.0914 -0.835407,-0.51347 z M 16.51187,220.3227 c -2.161581,-2.90908 -2.95203,-4.1689 -1.756546,-2.79957 1.195482,1.36931 2.964051,3.74948 3.930149,5.28925 0.966098,1.53977 -0.01202,0.41942 -2.173603,-2.48968 z m -55.027363,26.19701 c -0.568834,-0.76555 -0.675172,-1.17264 -0.236299,-0.90462 0.438873,0.268 0.904285,0.89437 1.034257,1.39191 0.129961,0.49754 -0.229136,0.27823 -0.797958,-0.48729 z M 60.813599,135.7711 C 79.3797,121.8494 109.69547,99.323453 128.18201,85.713482 146.66851,72.103475 131.47808,83.493966 94.425456,111.02566 57.372824,138.55735 42.247478,149.69278 60.813599,135.7711 Z M -270.33147,379.24802 c 1.22214,-1.09066 3.22772,-2.57832 4.45686,-3.30592 1.22911,-0.72761 0.22922,0.16473 -2.22209,1.98301 -2.45112,1.81843 -3.4569,2.41357 -2.23476,1.32292 z"
         id="path846" /><path
         style="fill:#a3a3a3;fill-opacity:1;stroke-width:1.14786"
         d="m -22.034717,388.35961 c 0.436823,-0.54367 1.195348,-1.09289 1.685625,-1.22045 0.49027,-0.12758 0.132873,0.31726 -0.794221,0.98851 -0.927081,0.67127 -1.328222,0.77564 -0.891397,0.23196 z m 3.34058,-2.48219 c 0.436826,-0.54367 1.195349,-1.09289 1.685626,-1.22046 0.490271,-0.12757 0.132873,0.31726 -0.794221,0.98851 -0.92708,0.67127 -1.328222,0.77564 -0.891398,0.23196 z m -35.867468,23.20299 c 0.282408,-0.45947 0.77732,-0.79651 1.099788,-0.74897 0.322481,0.0475 0.09137,0.42346 -0.513472,0.8354 -0.668457,0.45522 -0.898408,0.42132 -0.586328,-0.0864 z m -48.886745,12.1285 c 0.28241,-0.45948 0.77732,-0.79651 1.09979,-0.74898 0.32247,0.0475 0.0914,0.42347 -0.51347,0.8354 -0.66846,0.45522 -0.89841,0.42131 -0.58632,-0.0864 z m 2.22706,-1.6548 c 0.28241,-0.45948 0.77732,-0.79651 1.09977,-0.74897 0.322473,0.0475 0.0915,0.42346 -0.51346,0.83539 -0.66845,0.45522 -0.89841,0.42132 -0.58632,-0.0864 z M -299.8627,553.05293 c -0.56883,-0.76555 -0.67517,-1.17264 -0.23629,-0.90463 0.43887,0.26802 0.90428,0.89438 1.03425,1.39191 0.12996,0.49754 -0.22914,0.27823 -0.79796,-0.48728 z m 51.73586,-39.73824 c -0.67128,-0.92708 -0.77564,-1.32822 -0.23196,-0.89139 0.54369,0.43682 1.09289,1.19535 1.22045,1.68562 0.12758,0.49027 -0.31722,0.1329 -0.9885,-0.79422 z M -35.746657,350.11452 c 1.689597,-1.42746 4.446336,-3.47424 6.125763,-4.54885 1.679757,-1.07416 0.297355,0.0938 -3.071994,2.59538 -3.369109,2.50195 -4.743708,3.38048 -3.054102,1.95304 z M 34.447772,277.3526 c -0.455216,-0.66846 -0.42132,-0.89841 0.08643,-0.58633 0.459473,0.28241 0.79651,0.77732 0.748968,1.0998 -0.04753,0.32247 -0.423471,0.0914 -0.835405,-0.51347 z m 1.109895,-31.07032 c -0.455217,-0.66844 -0.421322,-0.89841 0.08643,-0.58631 0.459472,0.28241 0.796508,0.77731 0.748967,1.09979 -0.04754,0.32248 -0.423472,0.0914 -0.835405,-0.51348 z m -172.663787,125.6095 c 0.43681,-0.54369 1.19535,-1.09289 1.68562,-1.22046 0.49027,-0.12758 0.13289,0.31723 -0.79421,0.98851 -0.9271,0.67127 -1.32823,0.77563 -0.89141,0.23196 z M 195.27848,87.491312 c -6.71228,-9.033495 -9.38164,-12.785899 -5.93193,-8.338684 3.44973,4.447205 8.94158,11.838237 12.20414,16.424516 3.26256,4.586296 0.44006,0.947652 -6.27221,-8.085832 z M 20.94976,226.53091 c -0.568834,-0.76554 -0.675168,-1.17262 -0.236302,-0.90462 0.438873,0.26802 0.904284,0.89437 1.034251,1.39192 0.129967,0.49754 -0.229135,0.27822 -0.797949,-0.4873 z M 182.01019,70.05716 c -0.45522,-0.668457 -0.42133,-0.898408 0.0864,-0.586327 0.45946,0.282419 0.7965,0.77732 0.74896,1.0998 -0.0475,0.322469 -0.42347,0.09137 -0.8354,-0.513484 z m -2.96058,-4.209345 c -1.02391,-1.377984 -1.33421,-2.022382 -0.68955,-1.432002 0.64466,0.590391 1.48241,1.717843 1.86165,2.505436 0.37924,0.787605 -0.1482,0.304562 -1.1721,-1.073434 z M -245.69628,381.81259 c -0.4552,-0.66844 -0.42132,-0.89839 0.0864,-0.58631 0.45946,0.28241 0.7965,0.77732 0.74896,1.09979 -0.0475,0.32248 -0.42346,0.0914 -0.8354,-0.51348 z M -3.9636218,192.76096 c -2.2738751,-3.0633 -3.0584474,-4.31444 -1.7434393,-2.78035 1.3150093,1.53408 3.1754707,4.0404 4.134325,5.56962 0.95889113,1.52919 -0.117029,0.27402 -2.3909225,-2.78925 z M -14.697792,178.26874 c -3.639855,-4.90005 -4.988618,-6.89316 -2.997253,-4.42914 1.991369,2.46404 4.969426,6.47316 6.617909,8.90919 1.6484851,2.43602 0.01918,0.42 -3.620664,-4.48005 z M -287.88757,392.286 c 1.9874,-1.64299 5.36973,-4.15621 7.51631,-5.58494 2.14658,-1.42873 0.52055,-0.0845 -3.61342,2.98724 -4.13398,3.07172 -5.89025,4.24073 -3.90289,2.5977 z m 13.67351,-10.0915 c 0.268,-0.43887 0.89437,-0.90429 1.39191,-1.03426 0.49754,-0.12995 0.27823,0.22915 -0.48729,0.79796 -0.76556,0.56885 -1.17264,0.67517 -0.90462,0.2363 z M -23.68853,166.36981 c -0.796377,-1.07178 -1.007582,-1.59537 -0.46936,-1.16354 0.53823,0.43183 1.189806,1.30873 1.447953,1.94867 0.258147,0.63995 -0.182223,0.28664 -0.978593,-0.78513 z m -31.141629,17.09046 c 0.09918,-1.02428 0.305595,-1.95541 0.458708,-2.06917 0.153114,-0.11376 0.197237,0.63119 0.09803,1.65546 -0.09918,1.02428 -0.305607,1.9554 -0.45872,2.06916 -0.153113,0.11376 -0.197237,-0.63118 -0.09803,-1.65545 z"
         id="path845" /><path
         style="fill:#8c8c8c;fill-opacity:1;stroke-width:1.14786"
         d="m -30.883727,580.89607 c -19.112892,-25.7225 -26.803183,-36.21456 -17.089442,-23.31578 9.713672,12.89884 25.351522,33.94451 34.750698,46.76818 9.3991545,12.82371 1.451615,2.27011 -17.661256,-23.4524 z m 14.723315,-196.89278 c 0.282409,-0.45947 0.777315,-0.7965 1.099786,-0.74897 0.322477,0.0475 0.09142,0.42347 -0.513472,0.8354 -0.668451,0.45522 -0.898409,0.42131 -0.586321,-0.0864 z m -159.620628,91.90234 c -0.45522,-0.66844 -0.42132,-0.89839 0.0864,-0.58631 0.45948,0.2824 0.79652,0.77732 0.74898,1.09978 -0.0475,0.32248 -0.42347,0.0914 -0.8354,-0.51347 z m -1.78323,-2.49168 c -0.56883,-0.76556 -0.67517,-1.17264 -0.23628,-0.90463 0.43886,0.26801 0.90427,0.89438 1.03424,1.39191 0.12996,0.49754 -0.22913,0.27823 -0.79796,-0.48728 z m 74.12787,-74.59586 c -0.45522,-0.66845 -0.42132,-0.89841 0.0864,-0.58632 0.45947,0.2824 0.7965,0.77731 0.74897,1.09978 -0.0475,0.32248 -0.42348,0.0914 -0.8354,-0.51346 z M 39.251824,250.95474 c -1.706515,-2.29665 -2.306353,-3.30921 -1.332979,-2.25014 0.973372,1.05908 2.369609,2.93815 3.102745,4.17573 0.733136,1.23757 -0.06326,0.37107 -1.769766,-1.92559 z M -291.32962,486.48657 c 0.43683,-0.5437 1.19534,-1.0929 1.68562,-1.22046 0.49028,-0.12759 0.1329,0.31723 -0.79422,0.98851 -0.92707,0.67127 -1.32822,0.77563 -0.89139,0.23196 z m 12.49365,-9.33124 c 5.21431,-4.01646 13.85806,-10.43914 19.20834,-14.27263 5.35028,-3.83349 1.08404,-0.54725 -9.48054,7.30269 -10.56459,7.84996 -14.94212,10.98639 -9.7278,6.96994 z m 251.802609,-187.9594 c 2.141569,-1.75531 5.774451,-4.4547 8.073071,-5.99864 2.298618,-1.54395 0.546422,-0.10778 -3.893768,3.19146 -4.440189,3.29926 -6.320846,4.56253 -4.179303,2.80718 z m 13.658699,-10.12741 c 0.751223,-0.75682 2.00648,-1.68423 2.789294,-2.06113 0.7829781,-0.37667 0.168343,0.24256 -1.365864,1.37605 -1.534523,1.13306 -2.174825,1.44168 -1.423601,0.68485 z m 7.2308179,-5.37167 c 0.7473139,-0.75329 2.125304,-1.7772 3.0621998,-2.27535 0.9368946,-0.49815 0.325453,0.11818 -1.3587566,1.36962 -1.6842096,1.25144 -2.4507571,1.65902 -1.7034432,0.90573 z m 6.13150594,-4.55712 c 0.75122348,-0.75683 2.00648086,-1.68423 2.78929466,-2.06113 0.7829779,-0.37667 0.168343,0.24255 -1.3658642,1.37604 -1.53452276,1.13307 -2.17482498,1.44168 -1.42360149,0.68485 z M 208.17234,105.13169 c -0.67127,-0.92708 -0.77565,-1.32821 -0.23196,-0.8914 0.54367,0.43682 1.09289,1.19536 1.22046,1.68563 0.12758,0.49026 -0.31724,0.1329 -0.9885,-0.79423 z M 0.67847913,199.2495 c -0.56883294,-0.76555 -0.67516735,-1.17262 -0.23629526,-0.90461 0.4388675,0.268 0.90428393,0.89437 1.03424363,1.3919 0.1299688,0.49755 -0.2291349,0.27823 -0.79794837,-0.48729 z M -292.56108,395.80913 c 0.2824,-0.45948 0.77732,-0.79651 1.09978,-0.74898 0.32248,0.0475 0.0914,0.42347 -0.51347,0.8354 -0.66844,0.45522 -0.89839,0.42133 -0.58631,-0.0864 z M -21.946575,168.89216 c -0.455218,-0.66845 -0.421323,-0.89841 0.08643,-0.58632 0.459473,0.2824 0.79651,0.77732 0.748969,1.0998 -0.04754,0.32246 -0.423473,0.0914 -0.835407,-0.51348 z"
         id="path844" /><path
         style="fill:#767676;fill-opacity:1;stroke-width:1.14786"
         d="m -63.485265,570.98611 c -1.023904,-1.378 -1.334205,-2.02239 -0.689543,-1.43201 0.644662,0.59039 1.482405,1.71784 1.861647,2.50543 0.379253,0.78762 -0.148189,0.30456 -1.172104,-1.07342 z m -7.795607,-10.26652 c -0.455219,-0.66844 -0.421323,-0.8984 0.08643,-0.58632 0.459478,0.28241 0.796513,0.77732 0.74898,1.09979 -0.04752,0.32248 -0.423469,0.0914 -0.835402,-0.51347 z m 37.829893,-145.63506 c -0.455218,-0.66846 -0.421322,-0.89841 0.08643,-0.58633 0.459472,0.28241 0.796511,0.77732 0.748969,1.0998 -0.04754,0.32248 -0.423473,0.0914 -0.835406,-0.51347 z m -9.701713,-54.83292 c -0.08586,-0.11562 0.02675,-0.87986 0.250372,-1.69832 0.368463,-1.34868 0.402796,-1.34363 0.366397,0.0541 -0.03822,1.46787 -0.276279,2.10254 -0.616769,1.6443 z m 27.27684,-38.73712 c -1.34869,-0.36846 -1.343628,-0.40278 0.05402,-0.36639 1.467872,0.0382 2.102537,0.27627 1.6443,0.61676 -0.115614,0.0859 -0.879856,-0.0267 -1.698316,-0.25037 z M 61.39286,227.86354 c 0.282408,-0.45946 0.777316,-0.7965 1.099786,-0.74898 0.322477,0.0475 0.09142,0.42347 -0.513472,0.8354 -0.668451,0.45522 -0.898401,0.42134 -0.586321,-0.0864 z M -130.1183,366.70805 c 0.28241,-0.45948 0.77731,-0.79651 1.09979,-0.74898 0.32247,0.0475 0.0914,0.42347 -0.51348,0.8354 -0.66845,0.45522 -0.8984,0.42132 -0.58632,-0.0864 z m -86.33431,60.65872 c 0.90345,-0.86301 2.53198,-2.07307 3.61897,-2.68906 1.08698,-0.61599 0.3478,0.0901 -1.64263,1.56908 -1.99043,1.47898 -2.87979,1.98296 -1.97634,1.11998 z m 54.29362,-50.59143 c -0.45521,-0.66845 -0.42131,-0.89841 0.0864,-0.58633 0.45948,0.28241 0.79652,0.77733 0.74898,1.09979 -0.0475,0.32248 -0.42347,0.0914 -0.83541,-0.51346 z M 99.383765,177.97303 c 16.221815,-12.18078 43.029975,-32.10042 59.573665,-44.2659 16.54363,-12.16552 3.27126,-2.19941 -29.49427,22.14683 -32.765506,24.34625 -46.301216,34.29987 -30.079395,22.11907 z m -32.949239,17.78528 c -0.903965,-1.22946 -1.113562,-1.74972 -0.465783,-1.1561 0.647781,0.5936 1.387387,1.59954 1.643559,2.2354 0.25618,0.63586 -0.273849,0.15014 -1.177781,-1.07929 z m -9.835255,-13.43182 c -4.551183,-6.12404 -6.387936,-8.76587 -4.081656,-5.87076 2.306274,2.89512 6.029972,7.90569 8.27488,11.1346 2.244916,3.22892 0.357968,0.86019 -4.193224,-5.26384 z M -248.04754,378.44675 c -0.90369,-1.22966 -1.11357,-1.74973 -0.46578,-1.15611 0.64778,0.59361 1.38738,1.59954 1.64355,2.2354 0.25618,0.63587 -0.27385,0.15015 -1.17777,-1.07929 z m -121.17276,77.8664 c -0.45522,-0.66845 -0.42133,-0.8984 0.0864,-0.58632 0.45948,0.28241 0.7965,0.77731 0.74897,1.09978 -0.0475,0.32248 -0.42347,0.0914 -0.83539,-0.51346 z M -31.199533,188.80193 c -0.903966,-1.22946 -1.113557,-1.74972 -0.465777,-1.1561 0.64778,0.5936 1.387379,1.59953 1.643561,2.23539 0.256179,0.63586 -0.273849,0.15014 -1.17778,-1.0793 z M -363.37527,428.50904 c 1.21433,-1.08424 3.34396,-2.66664 4.73249,-3.51643 1.38854,-0.84981 0.39498,0.0373 -2.20788,1.97133 -2.60287,1.93405 -3.73894,2.62935 -2.52461,1.5451 z m 7.84983,-5.79028 c 0.28241,-0.45948 0.77731,-0.7965 1.09978,-0.74897 0.32248,0.0475 0.0914,0.42346 -0.51346,0.83539 -0.66846,0.45522 -0.89841,0.42133 -0.58633,-0.0864 z m 6.64726,-4.99254 c 2.46403,-1.99137 6.47315,-4.96944 8.9089,-6.61828 2.43603,-1.64848 0.42,-0.0192 -4.48004,3.62067 -4.90004,3.63985 -6.89314,4.98862 -4.42913,2.99724 z"
         id="path843" /><path
         style="fill:#606060;fill-opacity:1;stroke-width:1.14786"
         d="m -48.94007,673.59943 c -1.348679,-0.36847 -1.343617,-0.40279 0.05406,-0.3664 1.467874,0.0382 2.102526,0.27627 1.6443,0.61676 -0.115613,0.0859 -0.879859,-0.0267 -1.698318,-0.25036 z m 10.176122,-69.56479 c -11.149106,-15.00487 -15.579013,-21.11641 -9.844138,-13.58131 5.734807,7.53517 14.856786,19.81186 20.271092,27.28155 5.414312,7.46969 0.722139,1.30461 -10.426954,-13.70024 z m -22.075371,-29.39755 c -0.671269,-0.92707 -0.775644,-1.32822 -0.23196,-0.8914 0.543673,0.43682 1.09289,1.19536 1.220464,1.68562 0.127585,0.49028 -0.317235,0.1329 -0.988504,-0.79422 z m -5.955528,-8.10511 c -1.023904,-1.378 -1.334205,-2.02238 -0.689544,-1.432 0.644662,0.59039 1.482406,1.71783 1.861659,2.50543 0.379242,0.78761 -0.1482,0.30456 -1.172115,-1.07343 z m -9.865856,-13.40908 c -2.844182,-3.82775 -3.918798,-5.45971 -2.387953,-3.62665 1.530811,1.83309 3.85787,4.96488 5.171241,6.95954 1.313371,1.99466 0.06084,0.49486 -2.783288,-3.33289 z m -56.826487,31.24345 c 0.59361,-0.64779 1.59955,-1.38739 2.2354,-1.64357 0.63587,-0.25618 0.15014,0.27386 -1.07928,1.17779 -1.22968,0.90368 -1.74973,1.11355 -1.15612,0.46578 z m 28.67165,-21.32932 c 1.37828,-1.20273 3.6342,-2.87682 5.012912,-3.72053 1.378971,-0.8434 0.251289,0.14066 -2.505952,2.18677 -2.75735,2.04597 -3.88549,2.73617 -2.50721,1.53344 z m 11.409517,-8.45131 c 0.59038,-0.64467 1.717832,-1.48242 2.505425,-1.86165 0.787605,-0.37925 0.304562,0.1482 -1.073422,1.17211 -1.377985,1.0239 -2.022394,1.33419 -1.432003,0.68954 z m 8.369446,-6.18126 c 0.268026,-0.43887 0.894379,-0.90428 1.39192,-1.03425 0.49754,-0.12996 0.27823,0.22914 -0.48729,0.79795 -0.765543,0.56884 -1.172621,0.67517 -0.90463,0.2363 z m 27.263417,-20.29551 c 0.590391,-0.64468 1.717832,-1.48241 2.505436,-1.86165 0.787605,-0.37925 0.304562,0.1482 -1.073433,1.1721 -1.377985,1.02391 -2.022397,1.3342 -1.432003,0.68955 z M 2.3595643,399.62369 c 0.2824071,-0.45948 0.7773155,-0.79651 1.0997853,-0.74898 0.3224767,0.0475 0.091416,0.42347 -0.5134716,0.8354 -0.6684512,0.45522 -0.8984022,0.42133 -0.5863206,-0.0864 z M -13.377926,406.988 c 0.436825,-0.54368 1.195348,-1.0929 1.685626,-1.22046 0.49027,-0.12758 0.132872,0.31726 -0.794221,0.9885 -0.92708,0.67128 -1.328222,0.77565 -0.891398,0.23196 z M 4.9154,333.93497 c -0.9039648,-1.22946 -1.1135631,-1.74972 -0.4657825,-1.15611 0.6477805,0.59361 1.3873853,1.59954 1.6435684,2.2354 0.2561785,0.63586 -0.2738509,0.15014 -1.1777824,-1.07929 z M -251.60261,506.2248 c 0.43683,-0.54368 1.19535,-1.0929 1.68562,-1.22046 0.49029,-0.12759 0.1329,0.31723 -0.79421,0.9885 -0.92707,0.67127 -1.32823,0.77565 -0.8914,0.23197 z m 8.03815,-5.99759 c 0.897,-0.85739 2.6493,-2.16258 3.89391,-2.90049 1.24472,-0.73781 0.51081,-0.0363 -1.63089,1.55891 -2.14149,1.59551 -3.16009,2.19888 -2.2631,1.34147 z m -74.82031,24.24453 c -1.25144,-1.68421 -1.65902,-2.45076 -0.90573,-1.70345 0.75328,0.74732 1.77719,2.1253 2.27535,3.06221 0.49815,0.93688 -0.11818,0.32545 -1.36962,-1.35876 z m -15.22571,-20.66057 c -7.16735,-9.64592 -10.02362,-13.64832 -6.34725,-8.89425 3.67636,4.7541 9.54055,12.64623 13.03154,17.53806 3.49098,4.89184 0.48304,1.00212 -6.68429,-8.64381 z M 58.859133,229.73763 c 0.436825,-0.54367 1.195356,-1.09289 1.685625,-1.22046 0.490271,-0.12757 0.132873,0.31726 -0.79422,0.98851 -0.927081,0.67127 -1.328215,0.77565 -0.891398,0.23196 z M -131.7886,367.94914 c 0.28241,-0.45947 0.77733,-0.7965 1.09979,-0.74898 0.32248,0.0475 0.0914,0.42348 -0.51347,0.83541 -0.66844,0.45521 -0.8984,0.42133 -0.58632,-0.0864 z m 3.58144,-2.66687 c 0.43182,-0.53822 1.30873,-1.18981 1.94866,-1.44795 0.63996,-0.25814 0.28663,0.18222 -0.78512,0.9786 -1.07177,0.79637 -1.59537,1.00758 -1.16354,0.46935 z m -82.6527,57.9813 c 0.268,-0.43888 0.89437,-0.9043 1.39191,-1.03426 0.49754,-0.12997 0.27823,0.22914 -0.48729,0.79795 -0.76555,0.56883 -1.17264,0.67517 -0.90462,0.23631 z m 4.72132,-3.53147 c 0.43184,-0.53823 1.30875,-1.1898 1.94868,-1.44794 0.63995,-0.25814 0.28663,0.18221 -0.78514,0.9786 -1.07176,0.79636 -1.59536,1.00758 -1.16354,0.46934 z m 5.00682,-3.74474 c 0.75123,-0.75683 2.00649,-1.68423 2.78931,-2.06113 0.78297,-0.37668 0.16863,0.24234 -1.36587,1.37604 -1.53453,1.13308 -2.17483,1.44168 -1.42361,0.68486 z m 5.83564,-4.34184 c 0.90343,-0.863 2.53197,-2.07307 3.61895,-2.68905 1.08698,-0.61599 0.3478,0.0901 -1.64262,1.56908 -1.99044,1.47897 -2.87979,1.98295 -1.97633,1.11997 z m 12.27078,-9.13848 c 3.69709,-2.89681 9.71036,-7.36446 13.36283,-9.92813 3.65246,-2.56365 0.62759,-0.19353 -6.72196,5.26694 -7.34954,5.46048 -10.33794,7.55799 -6.64087,4.66119 z m 22.54104,-16.69876 c 0.43182,-0.53823 1.30873,-1.18981 1.94866,-1.44795 0.63996,-0.25814 0.28664,0.18222 -0.78513,0.9786 -1.07177,0.79636 -1.59536,1.00758 -1.16353,0.46935 z m -0.43411,-7.36329 c -0.45522,-0.66846 -0.42131,-0.89841 0.0864,-0.58633 0.45948,0.28242 0.79652,0.77732 0.74898,1.09979 -0.0475,0.32248 -0.42347,0.0914 -0.83541,-0.51346 z M 12.107518,247.28672 c -0.455217,-0.66845 -0.421321,-0.89841 0.08643,-0.58632 0.459473,0.28241 0.79651,0.77732 0.748969,1.0998 -0.04754,0.32247 -0.423472,0.0914 -0.835406,-0.51347 z M -317.96695,487.29427 c 0.268,-0.43886 0.89437,-0.90428 1.3919,-1.03424 0.49755,-0.12997 0.27823,0.22913 -0.48729,0.79795 -0.76554,0.56883 -1.17262,0.67517 -0.90461,0.23629 z M 2.193983,233.55401 c -4.209394,-5.66508 -5.8487487,-8.04404 -3.6430037,-5.28659 2.20574493,2.75745 5.6497956,7.39251 7.6534447,10.30012 2.0036491,2.90763 0.198953,0.65153 -4.010441,-5.01353 z M 179.88365,99.362412 c -4.55118,-6.124046 -6.38797,-8.765837 -4.08164,-5.870759 2.30626,2.895112 6.02996,7.905687 8.27487,11.134597 2.24492,3.22892 0.35797,0.8602 -4.19323,-5.263838 z M -350.43062,481.31081 c -1.58997,-2.14559 -2.09052,-3.02883 -1.11166,-1.96322 0.97885,1.06559 2.27999,2.8209 2.89129,3.90076 0.61142,1.07977 -0.18943,0.20797 -1.77973,-1.93746 z M 17.185557,211.47237 c 0.268009,-0.43888 0.894367,-0.9043 1.391909,-1.03426 0.497536,-0.12997 0.278261,0.22912 -0.487292,0.79795 -0.76555,0.56884 -1.172631,0.67517 -0.904617,0.23631 z m 4.710172,-3.54649 c 0.747315,-0.75329 2.125304,-1.7772 3.062199,-2.27535 0.936896,-0.49814 0.325454,0.11818 -1.358756,1.36962 -1.68421,1.25144 -2.450757,1.65903 -1.703443,0.90573 z m -33.36367,7.26226 c -3.299256,-4.4402 -4.562477,-6.32087 -2.807176,-4.17931 1.755305,2.14157 4.4547,5.77445 5.9986433,8.07307 1.5439456,2.29861 0.1077841,0.54643 -3.1914673,-3.89376 z M -359.49203,469.03231 c -3.41225,-4.59388 -4.66723,-6.46291 -2.78878,-4.15348 1.87841,2.30946 4.67025,6.0681 6.20365,8.35281 1.53383,2.28443 -0.003,0.39487 -3.4153,-4.19902 z m 527.253,-385.722863 c -0.67127,-0.92707 -0.77564,-1.328213 -0.23197,-0.891395 0.54369,0.436819 1.0929,1.195349 1.22046,1.685623 0.12759,0.490275 -0.31722,0.132899 -0.9885,-0.794217 z M -241.7441,380.53607 c 0.26801,-0.43889 0.89437,-0.9043 1.39191,-1.03426 0.49754,-0.12996 0.27823,0.22914 -0.48729,0.79795 -0.76556,0.56884 -1.17263,0.67518 -0.90462,0.23631 z m 4.42521,-3.34848 c 1.21434,-1.08425 3.34396,-2.66665 4.7325,-3.51644 1.38853,-0.84981 0.39497,0.0373 -2.20789,1.97133 -2.60287,1.93405 -3.73894,2.62934 -2.52461,1.54511 z m 18.05089,-13.4269 c 5.9607,-4.56849 15.98238,-12.01517 22.27035,-16.54825 6.28796,-4.53309 1.41102,-0.79524 -10.83765,8.30632 -12.24869,9.10152 -17.39343,12.81038 -11.4327,8.24193 z m 38.74989,-28.75581 c 0.59038,-0.64466 1.71783,-1.48239 2.50543,-1.86165 0.7876,-0.37924 0.30455,0.1482 -1.07344,1.17211 -1.37799,1.02391 -2.02239,1.3342 -1.43199,0.68954 z M -18.634194,205.82222 c -0.568833,-0.76554 -0.675169,-1.17262 -0.236301,-0.90462 0.438873,0.26802 0.904283,0.89437 1.03425,1.39191 0.129968,0.49754 -0.229136,0.27823 -0.797949,-0.48729 z M -367.9792,457.98344 c -0.45522,-0.66845 -0.42134,-0.8984 0.0864,-0.58632 0.45947,0.28241 0.7965,0.77731 0.74897,1.09977 -0.0475,0.32248 -0.42347,0.0915 -0.8354,-0.51346 z"
         id="path842" /><path
         style="fill:#494949;fill-opacity:1;stroke-width:1.14786"
         d="m -31.522148,664.11508 c 5.960699,-4.5685 15.982369,-12.01518 22.2703389,-16.54827 6.2879594,-4.53308 1.4110267,-0.79522 -10.8376589,8.30632 -12.248687,9.10155 -17.393421,12.81038 -11.43268,8.24195 z m -9.313873,-17.26422 c 1.369318,-1.19549 3.749489,-2.96406 5.289253,-3.93015 1.539767,-0.9661 0.419405,0.0121 -2.489677,2.1736 -2.909082,2.16158 -4.168905,2.95203 -2.799576,1.75655 z m 11.690667,-8.68954 c 1.678669,-1.41882 4.559916,-3.5597 6.402781,-4.75754 1.842856,-1.19783 0.469406,-0.037 -3.052118,2.57967 -3.521535,2.61665 -5.029318,3.59671 -3.350663,2.17787 z m -97.791916,-58.05011 -3.88985,2.32448 3.37551,-2.65731 c 1.85651,-1.46155 3.71651,-2.52182 4.13331,-2.35622 0.41678,0.16561 0.64825,0.31537 0.51434,0.33284 -0.13393,0.0175 -1.99389,1.07775 -4.13331,2.35621 z m 37.723018,-28.6287 c 0.436819,-0.54368 1.195348,-1.09289 1.685623,-1.22045 0.490274,-0.12759 0.132899,0.31722 -0.794217,0.9885 -0.927081,0.67127 -1.328225,0.77565 -0.891406,0.23196 z m 26.71151,-19.86912 c 0.751229,-0.75683 2.006473,-1.68423 2.789291,-2.06112 0.782979,-0.37669 0.168621,0.24232 -1.365863,1.37603 -1.534518,1.13308 -2.174829,1.44168 -1.4236,0.68486 z m -60.004458,20.36204 c 7.22844,-5.50761 19.00406,-14.25727 26.168047,-19.44368 7.163974,-5.18643 1.24978,-0.68025 -13.142647,10.01378 -14.39241,10.69402 -20.25382,14.93751 -13.0254,9.4299 z m 39.80628,-29.50257 c 0.268002,-0.43888 0.894367,-0.90429 1.391896,-1.03425 0.497552,-0.12996 0.27823,0.22914 -0.487278,0.79794 -0.765555,0.56884 -1.172632,0.67518 -0.904618,0.23631 z m -56.6983,37.08458 c -0.90369,-1.22968 -1.11356,-1.74972 -0.46577,-1.15612 0.64778,0.59362 1.38737,1.59955 1.64355,2.23541 0.25618,0.63587 -0.27386,0.15014 -1.17778,-1.07929 z m -9.06923,-12.27269 c -1.36245,-1.83938 -1.76676,-2.60139 -0.89928,-1.69276 0.86747,0.90862 1.98189,2.41379 2.47667,3.34469 0.49461,0.93101 -0.21515,0.18761 -1.57723,-1.65205 z m -8.29397,-12.05661 c -0.45521,-0.66844 -0.42133,-0.89839 0.0864,-0.58631 0.45946,0.2824 0.7965,0.77732 0.74898,1.09978 -0.0475,0.32247 -0.42347,0.0914 -0.8354,-0.51347 z M -3.5350415,403.97491 c 0.7473139,-0.75329 2.1253029,-1.7772 3.06219865,-2.27535 0.93689577,-0.49816 0.32545308,0.11818 -1.35875655,1.36962 -1.6842096,1.25143 -2.4507571,1.65902 -1.7034421,0.90573 z m 8.0771777,-5.99312 c 0.5903841,-0.64466 1.7178305,-1.4824 2.5054355,-1.86165 0.7875992,-0.37925 0.3045574,0.1482 -1.0734316,1.17211 -1.3779901,1.02391 -2.0223948,1.33419 -1.4320039,0.68954 z m 7.2559308,-5.35386 c 0.268015,-0.43887 0.894374,-0.90428 1.39191,-1.03425 0.497542,-0.12996 0.278266,0.22911 -0.487286,0.79795 -0.765551,0.56884 -1.172631,0.67517 -0.904624,0.2363 z m -22.401549,12.30116 c 0.431824,-0.53823 1.3087268,-1.1898 1.9486721,-1.44794 0.6399383,-0.25816 0.2866255,0.18222 -0.785144,0.97858 -1.0717691,0.79638 -1.5953591,1.00758 -1.1635281,0.46936 z m 5.3267896,-3.95231 c 0.2824083,-0.45948 0.7773155,-0.79651 1.0997853,-0.74898 0.3224779,0.0475 0.091416,0.42347 -0.5134716,0.8354 -0.66845,0.45522 -0.8984079,0.42132 -0.5863206,-0.0864 z M 22.666468,350.5585 c 0.09918,-1.02427 0.305596,-1.9554 0.458706,-2.06917 0.153111,-0.11375 0.197235,0.6312 0.09806,1.65547 -0.09919,1.02427 -0.305603,1.9554 -0.458714,2.06916 -0.15311,0.11375 -0.197234,-0.63119 -0.09805,-1.65546 z m 6.180978,-21.33806 c -0.08591,-0.11561 0.02676,-0.87986 0.250363,-1.69831 0.368473,-1.34869 0.402795,-1.34362 0.366402,0.0541 -0.03822,1.46787 -0.276275,2.10254 -0.616765,1.6443 z M -193.16828,486.23263 c -0.45522,-0.66845 -0.42132,-0.8984 0.0864,-0.58632 0.45947,0.28241 0.79652,0.77732 0.74898,1.09979 -0.0475,0.32248 -0.42346,0.0914 -0.8354,-0.51347 z m -13.05508,-6.86257 c -1.34871,-0.36847 -1.34363,-0.4028 0.0541,-0.36641 0.84817,0.022 1.6124,0.13475 1.69832,0.25037 0.34048,0.45823 -0.33588,0.50302 -1.75233,0.11604 z M 16.25226,313.34083 c -0.455221,-0.66845 -0.421321,-0.89841 0.08643,-0.58633 0.459473,0.28241 0.79651,0.77732 0.748971,1.0998 -0.04754,0.32248 -0.423472,0.0914 -0.835405,-0.51347 z M -248.81878,504.1563 c 0.43682,-0.54368 1.19535,-1.0929 1.68562,-1.22047 0.49026,-0.12757 0.1329,0.31724 -0.79422,0.98852 -0.92709,0.67127 -1.32822,0.77563 -0.8914,0.23196 z m 14.42124,-10.75667 c 1.97421,-1.63271 5.48129,-4.23974 7.79333,-5.79363 2.31221,-1.55362 0.69696,-0.21776 -3.58949,2.9686 -4.28644,3.18635 -6.17821,4.45754 -4.20403,2.82478 z M 37.44276,281.24838 c -0.671251,-0.92709 -0.775639,-1.32821 -0.23196,-0.89139 0.543679,0.43682 1.092891,1.19535 1.220469,1.68561 0.127577,0.49028 -0.317231,0.1329 -0.988507,-0.79422 z m -351.51007,249.08908 c -0.9037,-1.22967 -1.11356,-1.74972 -0.46578,-1.1561 0.64779,0.5936 1.38738,1.59953 1.64356,2.23539 0.25618,0.63587 -0.27386,0.15015 -1.17778,-1.07929 z M -71.379026,348.14091 c 0.268014,-0.43886 0.894367,-0.90427 1.391908,-1.03424 0.49754,-0.12996 0.278264,0.22911 -0.48729,0.79794 -0.765543,0.56885 -1.172632,0.67518 -0.904618,0.2363 z m 2.783816,-2.06849 c 0.268014,-0.43887 0.894367,-0.90428 1.391908,-1.03426 0.49754,-0.12996 0.278264,0.22912 -0.48729,0.79796 -0.765543,0.56884 -1.172621,0.67517 -0.904618,0.2363 z m 12.805565,-9.51509 c 0.268015,-0.43887 0.894368,-0.90429 1.391908,-1.03426 0.497541,-0.12996 0.278265,0.22913 -0.48729,0.79796 -0.765543,0.56883 -1.172632,0.67517 -0.904618,0.2363 z M -216.85472,455.60987 c -0.0879,-0.11836 0.49798,-0.87223 1.30205,-1.67528 0.80406,-0.80304 1.48756,-1.16067 1.51894,-0.79464 0.0558,0.65138 -2.50576,2.89416 -2.82099,2.46992 z m -1.00546,-9.72091 c -0.67127,-0.92708 -0.77565,-1.32821 -0.23196,-0.8914 0.54368,0.43682 1.09289,1.19536 1.22046,1.68563 0.12758,0.49026 -0.31722,0.13289 -0.9885,-0.79423 z M 171.61657,149.41921 c 0.28241,-0.45946 0.77731,-0.7965 1.09979,-0.74896 0.32247,0.0475 0.0914,0.42347 -0.51348,0.8354 -0.66845,0.45521 -0.89841,0.42131 -0.58632,-0.0864 z m 2.20088,-1.61732 c 0.26801,-0.43889 0.89436,-0.90429 1.39192,-1.03426 0.49754,-0.12996 0.27822,0.22914 -0.4873,0.79795 -0.76555,0.56883 -1.17263,0.67517 -0.90462,0.23631 z m 33.43198,-24.85945 c 0.28241,-0.45948 0.77731,-0.7965 1.09979,-0.74897 0.32247,0.0475 0.0914,0.42346 -0.51347,0.83539 -0.66845,0.45522 -0.89841,0.42133 -0.58632,-0.0864 z m -332.11581,239.8579 c 0.43182,-0.53822 1.30873,-1.1898 1.94866,-1.44795 0.63996,-0.25814 0.28664,0.18223 -0.78513,0.9786 -1.07177,0.79636 -1.59536,1.00758 -1.16353,0.46935 z m 3.89734,-2.89591 c 0.43183,-0.53822 1.30873,-1.18979 1.94867,-1.44794 0.63995,-0.25814 0.28663,0.18223 -0.78514,0.9786 -1.07176,0.79637 -1.59535,1.00758 -1.16353,0.46934 z M 15.80218,251.95987 c -1.706515,-2.29665 -2.30635,-3.30922 -1.332979,-2.25014 0.973374,1.05906 2.369612,2.93814 3.102746,4.17572 0.733137,1.23757 -0.06326,0.37106 -1.769767,-1.92558 z m -5.249893,-6.90112 c -0.671251,-0.92708 -0.7756398,-1.32821 -0.231961,-0.89139 0.54368,0.43682 1.092892,1.19535 1.220469,1.68561 0.127577,0.49028 -0.317231,0.1329 -0.988508,-0.79422 z M -145.4922,354.79067 c 0.43682,-0.54368 1.19535,-1.09289 1.68562,-1.22047 0.49027,-0.12757 0.13289,0.31724 -0.79421,0.98852 -0.92708,0.67127 -1.32823,0.77563 -0.89141,0.23196 z m 20.90694,-15.52619 c 0.28241,-0.45948 0.77732,-0.79651 1.09979,-0.74898 0.32247,0.0475 0.0915,0.42348 -0.51346,0.83541 -0.66846,0.45522 -0.89841,0.42131 -0.58633,-0.0864 z M 37.908679,216.8823 c -0.455216,-0.66846 -0.42132,-0.89841 0.08643,-0.58633 0.459472,0.28241 0.79651,0.77732 0.748968,1.0998 -0.04753,0.32247 -0.423472,0.0914 -0.835405,-0.51347 z m -6.648338,-9.24664 c -1.706508,-2.29664 -2.306344,-3.30921 -1.332971,-2.25013 0.973372,1.05906 2.36961,2.93814 3.102745,4.17572 0.733136,1.23758 -0.06326,0.37107 -1.769774,-1.92559 z m -73.255059,59.02636 c 0.282408,-0.45948 0.77732,-0.79651 1.099789,-0.74898 0.32248,0.0475 0.09137,0.42348 -0.513461,0.83541 -0.668457,0.45522 -0.898408,0.42131 -0.586328,-0.0864 z m 28.925534,-21.47492 c 0.268007,-0.43888 0.894365,-0.90429 1.391908,-1.03425 0.497535,-0.12997 0.278257,0.22911 -0.487293,0.79795 -0.76555,0.56883 -1.17263,0.67517 -0.904615,0.2363 z M -301.28318,448.10853 c 0.26802,-0.43887 0.89437,-0.90428 1.39191,-1.03426 0.49754,-0.12997 0.27823,0.22914 -0.48729,0.79795 -0.76554,0.56884 -1.17263,0.67517 -0.90462,0.23631 z M 14.112199,213.73269 c 0.431832,-0.53822 1.308734,-1.18979 1.948672,-1.44794 0.639946,-0.25815 0.286633,0.18222 -0.785138,0.97859 -1.071769,0.79638 -1.595358,1.00759 -1.163534,0.46935 z m 5.32679,-3.95231 c 0.282408,-0.45947 0.777316,-0.7965 1.099786,-0.74898 0.32247,0.0475 0.09142,0.42347 -0.513471,0.8354 -0.668452,0.45522 -0.898409,0.42132 -0.586322,-0.0864 z M 170.65706,87.207067 c -0.67127,-0.927082 -0.77564,-1.328225 -0.23196,-0.891406 0.54369,0.436819 1.09289,1.195348 1.22046,1.685634 0.12757,0.490263 -0.31723,0.132888 -0.98851,-0.794228 z M -328.50058,449.56718 c -0.0859,-0.11562 0.0267,-0.87985 0.25037,-1.69831 0.36845,-1.34869 0.40278,-1.34363 0.3664,0.0541 -0.0382,1.46788 -0.27628,2.10253 -0.61677,1.64429 z m 22.72888,-21.45539 c 0.268,-0.43888 0.89435,-0.90429 1.3919,-1.03426 0.49754,-0.12996 0.27822,0.22914 -0.48729,0.79795 -0.76555,0.56884 -1.17262,0.67517 -0.90461,0.23631 z m 120.79967,-89.79705 c 0.5904,-0.64465 1.71784,-1.4824 2.50543,-1.86165 0.78762,-0.37924 0.30456,0.1482 -1.07342,1.17212 -1.378,1.0239 -2.02239,1.3342 -1.43201,0.68953 z m 8.91408,-6.62486 c 0.59362,-0.64778 1.59954,-1.38738 2.23541,-1.64356 0.63586,-0.25618 0.15014,0.27385 -1.07928,1.17778 -1.22969,0.9037 -1.74974,1.11356 -1.15612,0.46578 z m 45.84782,-68.61248 c 0.28241,-0.45948 0.77731,-0.79651 1.09979,-0.74898 0.32248,0.0475 0.0914,0.42347 -0.51346,0.83541 -0.66845,0.45522 -0.89841,0.42132 -0.58633,-0.0864 z m -37.88953,26.41989 c 0.43182,-0.53823 1.30873,-1.18981 1.94867,-1.44794 0.63994,-0.25816 0.28662,0.18221 -0.78515,0.97858 -1.07177,0.79638 -1.59535,1.00758 -1.16352,0.46936 z m 7.77238,-5.82183 c 2.29564,-1.86777 6.17906,-4.75332 8.62982,-6.41235 2.45076,-1.65903 0.57249,-0.13085 -4.17392,3.39593 -4.74641,3.52679 -6.75159,4.88416 -4.4559,3.01642 z m 34.55747,-25.68344 c 10.90715,-8.23548 28.695739,-21.45317 39.530286,-29.37258 10.834536,-7.9194 1.910546,-1.18125 -19.831106,14.97368 -21.74166,16.15491 -30.60629,22.63441 -19.69918,14.3989 z m 60.92387,-45.24493 c 0.896996,-0.85741 2.649298,-2.16258 3.893924,-2.9005 1.244706,-0.73781 0.51081,-0.0363 -1.630893,1.55893 -2.141484,1.5955 -3.160107,2.19887 -2.263111,1.34146 z"
         id="path841" /><path
         style="fill:#333333;fill-opacity:1;stroke-width:1.14786"
         d="m -47.724749,673.27344 c -1.805964,-0.1475 -4.149977,-0.97716 -5.317375,-1.88205 -1.350206,-1.0466 -14.212465,-17.94655 -36.410401,-47.84031 l -34.322695,-46.22204 -6.7918,4.61452 c -7.94498,5.39802 -9.66685,5.776 -13.9345,3.05887 -5.39786,-3.43669 -32.86857,-43.35872 -39.5658,-57.4993 -3.56057,-7.51783 -4.76828,-13.86085 -4.64719,-24.40744 0.16308,-14.20187 -5.28075,-21.87845 -16.8505,-23.7616 -7.54759,-1.22849 -8.29518,-0.85689 -28.81872,14.32401 l -18.12398,13.40598 3.51798,5.32909 c 3.77063,5.71182 4.22192,7.68959 2.82352,12.37369 -0.65544,2.19546 -1.48411,2.89476 -20.14967,17.0044 -19.3578,14.6329 -19.48511,14.71789 -22.87775,15.27085 -2.07196,0.3377 -4.39655,0.10021 -5.9199,-0.60475 -2.70143,-1.25021 -4.13078,-3.20173 -14.55042,-19.86609 -2.43491,-3.89423 -17.35412,-24.50167 -33.15381,-45.79435 -32.42277,-43.69491 -30.72626,-40.87714 -29.42473,-48.87352 1.13097,-6.94846 2.04836,-7.8567 24.27013,-24.02806 l 19.5087,-14.19699 4.8898,-0.97875 c 2.68938,-0.53831 7.63339,-0.94981 10.98668,-0.91445 3.3533,0.0353 7.81946,-0.21036 9.9248,-0.54605 l 3.82792,-0.61034 19.46686,-14.03266 c 17.29481,-12.46692 19.71334,-14.04707 21.67604,-14.16189 3.39043,-0.19834 5.17399,0.92175 9.29675,5.83848 l 3.79483,4.52565 35.1903,-25.90939 c 19.35464,-14.2502 35.63259,-26.44038 36.17311,-27.08945 0.70147,-0.84225 0.5469,-4.20069 -0.53998,-11.7323 -1.90771,-13.21947 -1.88129,-17.81735 0.12578,-21.90225 l 1.57993,-3.21556 57.17361,-42.44372 57.173623,-42.44374 1.881586,-13.91714 c 2.447481,-18.10236 3.171597,-19.63824 12.532313,-26.58115 7.231664,-5.36343 9.042564,-6.03603 13.884954,-5.15492 l 2.498159,0.45457 14.31229,18.6802 c 7.8717629,10.27412 14.4998267,18.54009 14.7290477,18.36884 0.2292118,-0.17126 3.6545225,-2.71691 7.6116351,-5.65721 l 7.1947472,-5.34601 -0.771019,-2.3246 c -1.334856,-4.02456 -0.443956,-6.34286 4.127321,-10.74022 3.794479,-3.65012 4.067796,-4.10564 3.724699,-6.2078 -0.217367,-1.33184 0.267105,-3.42001 1.173259,-5.05696 1.489065,-2.68997 3.949924,-4.57707 69.759178,-53.49453 l 68.215647,-50.706215 3.38245,-0.568937 c 1.86034,-0.31293 4.4236,-0.24508 5.69614,0.15076 2.24198,0.697417 2.8921,1.488087 20.97661,25.5118 l 18.66292,24.792092 0.1304,2.83022 c 0.0717,1.55663 -0.36326,3.9958 -0.96661,5.4204 -1.09067,2.57516 -1.49594,2.88658 -69.94948,53.75054 l -68.852455,51.16039 -2.878978,0.003 c -2.667467,0.003 -3.264428,0.30894 -8.129082,4.16219 -3.96613,3.14156 -5.824961,4.25241 -7.600089,4.54219 -1.834222,0.29936 -4.188639,1.74979 -10.728997,6.60956 l -8.379101,6.22603 4.117533,5.54145 c 6.651376,8.95153 6.43675,11.14572 -1.708948,17.47108 -2.86322,2.22332 -5.390746,4.1988 -5.616778,4.38988 -0.226018,0.19111 1.747706,3.19021 4.38608,6.6647 6.413886,8.44648 6.515961,9.35081 2.000196,17.72033 -2.810008,5.20806 -3.205327,6.41645 -2.279669,6.96844 4.072839,2.42872 6.935565,5.00044 9.863945,8.86126 3.046647,4.01676 3.421853,4.87688 4.099522,9.39788 0.768105,5.12432 0.105523,8.8668 -3.238684,18.29323 -4.146757,11.68862 -4.582113,17.17788 -2.127739,26.82819 2.864719,11.26373 2.318406,17.33725 -2.223238,24.71631 -2.112855,3.43286 -3.035581,4.21761 -20.993227,17.85393 -21.68131911,16.46396 -28.1337865,20.51897 -34.455199,21.65313 -6.107266,1.09575 -8.358466,-0.07 -12.836643,-6.64764 -9.05036,-13.29322 -11.783475,-15.89344 -18.434217,-17.53783 -5.603341,-1.38542 -5.253588,-1.58793 -33.473965,19.38104 l -25.524827,18.96606 -0.36122,2.87589 c -0.30264,2.40947 0.0221,3.46452 2.00244,6.50557 1.30002,1.99633 4.711456,5.96835 7.580959,8.82671 7.473713,7.44465 8.002969,8.81398 8.327653,21.54638 0.08391,3.29239 0.388482,4.01183 3.431944,8.10776 3.968363,5.34069 6.787338,7.02502 14.777519,8.8295 8.234779,1.85972 11.389828,3.46044 14.840907,7.52958 2.379379,2.80552 3.078128,4.10777 3.37322,6.28654 0.641115,4.7337 -0.621406,6.598 -8.614426,12.72045 l -7.049096,5.39943 35.092939,47.81012 c 26.9145743,36.66806 35.1410083,48.21192 35.2992387,49.53418 0.1134661,0.94822 -0.068654,2.73626 -0.4047244,3.97341 -0.5972826,2.19875 -1.1539,2.65274 -24.7357823,20.17511 l -24.124755,17.92575 z m -2.365627,-84.82304 -31.677781,-42.33444 -12.777566,9.26201 -12.777567,9.26203 31.639968,42.58157 31.639982,42.58159 12.815198,-9.50939 12.815197,-9.50938 z m -31.300157,-69.18796 c -10.443184,-3.73107 -19.914587,-13.6461 -23.329177,-24.42186 -2.46223,-7.77033 -5.39326,-14.06371 -11.49034,-24.67163 -3.34997,-5.82839 -6.71803,-12.17804 -7.48461,-14.11037 -2.89155,-7.28885 -2.42916,-14.90428 1.22494,-20.17434 l 2.21809,-3.19899 -4.00558,-6.80986 c -5.80443,-9.86805 -10.65112,-18.99709 -13.35197,-25.14926 l -2.36247,-5.38137 -29.71305,22.3016 -29.71304,22.30159 3.20085,6.26323 c 3.15631,6.17603 4.57106,11.19601 3.91453,13.89005 -0.43931,1.80268 0.22114,2.60536 3.4329,4.17224 9.07304,4.42637 17.46223,15.76038 19.21448,25.95924 0.30555,1.77844 0.53534,6.35952 0.51065,10.18016 -0.0744,11.50796 1.58847,16.59387 10.00188,30.59123 4.52609,7.53009 19.67044,28.93387 21.74063,30.72646 l 1.20846,1.04642 28.66765,-21.3013 28.667629,-21.30131 z M 24.082736,381.5837 c 1.526574,-2.69557 1.516925,-3.40876 -0.170864,-12.63435 -1.600853,-8.75039 -1.663,-10.64886 -0.591579,-18.07212 0.65845,-4.56204 2.362664,-11.72273 3.787144,-15.91263 1.424481,-4.1899 2.406792,-8.47109 2.182914,-9.51375 -0.334768,-1.55908 -1.257501,-2.5373 -5.196146,-5.50858 -11.699338,-8.8259 -13.847935,-16.63492 -7.477475,-27.17667 2.405966,-3.98136 2.420122,-4.08462 0.89068,-6.4949 l -1.554152,-2.44922 -2.390385,1.7926 c -29.06036,21.79255 -86.587599,63.86434 -88.163945,64.47759 -1.163599,0.45267 -4.818779,0.50529 -8.122633,0.11694 -13.513208,-1.58841 -22.717125,0.14065 -32.750365,6.1525 -6.41434,3.84342 -24.4285,17.3786 -22.54569,16.93998 0.60775,-0.14157 4.27464,-1.74849 8.14866,-3.57093 13.33543,-6.27335 26.98707,-10.9215 32.903413,-11.20306 1.709051,-0.0814 3.689467,0.50898 5.240526,1.56206 2.221892,1.50854 2.589885,2.0362 3.380807,4.84779 0.714888,2.54123 0.560305,3.901 -0.794561,6.98985 -2.000791,4.56143 -1.664123,8.89028 1.077945,13.86041 2.311655,4.18998 6.951206,7.62966 10.647365,7.89376 2.357764,0.16846 2.846099,-0.0903 7.950098,-4.21347 3.768968,-3.04467 5.775911,-5.10345 6.53886,-6.70782 1.299448,-2.73247 1.344226,-7.91555 0.147259,-17.04204 -2.101596,-16.02412 0.836228,-21.15171 19.66562,-34.32376 10.688691,-7.47726 14.507998,-9.30732 20.893274,-10.01124 4.90712,-0.54099 12.061621,1.01772 17.0809332,3.7213 6.11828712,3.29552 11.8665716,10.11491 14.3375402,17.00913 1.8853356,5.26024 2.7315896,15.99143 2.0506096,26.00322 -0.5162,7.58907 -1.5085528,11.68015 -4.3235653,17.82426 -3.180496,6.94186 -6.30723199,10.48813 -14.8241025,16.81316 -7.1252362,5.29151 -8.3083832,6.74004 -5.1178552,6.26555 3.5112616,-0.5222 7.282004,-2.94016 20.9980095,-13.46486 12.7656255,-9.79544 14.6757085,-11.45273 16.1016815,-13.97067 z m -35.550896,-3.401 c 1.6910736,-4.0172 3.4306457,-17.55061 3.0872562,-24.01805 -0.1268881,-2.38986 -0.7657118,-5.6937 -1.4196082,-7.34188 -1.083662,-2.73142 -1.486523,-3.14796 -4.551028,-4.70557 -5.219859,-2.65313 -7.448411,-2.09638 -16.214218,4.05067 -12.581263,8.82265 -13.529695,10.46862 -11.894957,20.64291 0.533836,3.32248 0.881546,8.56126 0.772683,11.64174 -0.24601,6.96176 1.170015,9.34942 6.808125,11.47964 6.364839,2.40479 9.351063,1.66469 16.746311,-4.15047 4.554291,-3.5812 5.361535,-4.50151 6.665436,-7.59899 z m -77.607717,32.24284 c 0.277851,-0.72565 -0.04993,-1.13182 -1.472591,-1.8246 -8.245236,-4.01531 -14.514542,-11.12408 -17.181952,-19.4826 -0.85822,-2.68934 -1.83889,-4.91147 -2.17926,-4.93811 -1.11136,-0.087 -11.31651,4.72913 -11.41341,5.38633 -0.13264,0.89982 8.4644,16.92892 15.38365,28.68265 l 2.21195,3.75743 7.147241,-5.32359 c 3.930954,-2.92801 7.307915,-5.74386 7.504509,-6.25724 z m -125.095433,41.8734 c -0.12161,-0.81769 -1.7031,-3.82295 -3.51441,-6.67836 -3.58314,-5.64857 -4.76651,-9.79249 -3.57402,-12.51561 0.55379,-1.2646 8.11087,-7.23555 32.7432,-25.87081 l 32.02326,-24.22675 -4.03463,-5.21163 c -5.03226,-6.5003 -6.94173,-11.55908 -7.84827,-20.79245 l -0.64769,-6.59692 -58.56525,43.47622 c -32.21088,23.91192 -62.79979,46.54357 -67.97532,50.29258 l -9.41006,6.81637 5.27482,7.09862 5.27482,7.09862 16.99917,-12.63112 c 18.72227,-13.91147 19.80982,-14.49104 24.40275,-13.00465 5.49098,1.77701 8.2127,7.60098 5.78975,12.38901 -1.10627,2.18611 -3.42721,4.05764 -23.88346,19.25874 l -22.65813,16.83731 5.62069,7.91647 5.62069,7.91646 32.95838,-24.26113 c 18.12709,-13.34366 33.55833,-24.61283 34.2916,-25.0427 0.80408,-0.47133 1.24545,-1.37166 1.11211,-2.26827 z M 0.21397759,230.48838 -19.477965,204.28879 l -67.790169,50.15158 -67.790166,50.15158 0.92329,6.87878 c 1.38274,10.30161 4.21563,33.92507 4.76763,39.75722 0.26698,2.82074 0.60603,5.29093 0.75342,5.4893 0.1474,0.19836 6.60669,-4.3232 14.35401,-10.04793 13.64914,-10.08571 14.27227,-10.47493 20.09175,-12.54679 3.30315,-1.17602 8.3559,-2.54772 11.22832,-3.04824 5.013878,-0.87367 16.20479,-0.89403 20.28236,-0.037 l 1.950928,0.4101 50.306262,-37.37974 50.306257,-37.37975 z M -34.360534,293.12429 c -6.064977,0.86194 -10.93029,-4.84415 -9.699129,-11.37524 l 0.473585,-2.5123 19.032802,-14.39048 c 21.0924656,-15.94776 21.4016638,-16.11538 26.171043,-14.18708 4.6162408,1.86638 6.6890566,6.55943 5.0063862,11.33495 -0.934173,2.65127 -1.0674914,2.76327 -19.9438412,16.75485 -15.308974,11.34734 -19.399479,14.14202 -21.040846,14.3753 z m -41.674091,-1.54874 c -10.229601,3.71457 -21.17541,-5.62803 -19.052452,-16.26187 1.948552,-9.76033 12.049214,-14.61477 21.272519,-10.22368 3.170726,1.50953 4.080176,2.29197 5.484733,4.71873 4.7483,8.20404 1.076132,18.57829 -7.7048,21.76682 z m 59.693741,-44.72435 c -5.751723,1.82918 -11.35462,0.44186 -15.141916,-3.74926 -7.53455,-8.33793 -3.279761,-21.58824 7.6417,-23.79791 10.817178,-2.18856 20.0228054,8.01718 16.5378002,18.33449 -1.2597811,3.72957 -5.5509062,8.10384 -9.0375842,9.21268 z m -31.032883,22.31314 c -1.241757,0.28852 -3.955415,0.13815 -6.030347,-0.33416 -10.161628,-2.3131 -14.477127,-13.52291 -8.504862,-22.09196 7.631432,-10.94965 25.600728,-5.64901 25.952226,7.65547 0.133737,5.06202 -1.675051,8.72877 -5.809314,11.77649 -1.842788,1.35784 -4.365947,2.70564 -5.607703,2.99416 z M 178.11131,96.57459 167.19312,81.570977 107.33196,126.05044 47.470785,170.5299 l 10.89409,14.66144 c 5.99175,8.0638 11.187195,14.70466 11.545436,14.75747 0.35824,0.0528 27.306603,-19.80897 59.885259,-44.13731 l 59.23392,-44.23331 z m -491.70648,387.1248 c 1.11661,-1.31177 2.36017,-3.40473 2.76351,-4.65102 l 0.73332,-2.26599 -9.12094,-12.62743 -9.12095,-12.62744 0.53998,-3.65447 0.53997,-3.65447 16.13671,-11.99028 c 8.87519,-6.59466 16.03151,-12.13176 15.90295,-12.30467 -0.12856,-0.17291 -1.45203,-0.075 -2.94106,0.21772 -1.48902,0.29264 -6.30501,0.68754 -10.70219,0.87753 -4.39717,0.19001 -9.09455,0.7553 -10.43859,1.25622 -1.51462,0.56448 -8.0063,5.14218 -17.07433,12.04016 l -14.63062,11.12941 15.88514,21.68286 15.88512,21.68288 1.80589,-1.36301 c 0.99334,-0.74954 2.71949,-2.43626 3.83607,-3.74803 z m 347.118063,-273.20924 -5.274123,-7.098 -7.794689,5.79179 -7.79469,5.7918 5.118846,7.21452 5.118846,7.21452 7.94996,-5.90832 7.949967,-5.90832 z m -65.038569,-22.96559 c -1.076091,-1.45804 -2.151733,-2.50594 -2.390295,-2.32867 -0.238562,0.17726 -0.70451,2.64318 -1.035438,5.47979 l -0.601686,5.15751 2.996636,-1.96814 c 1.648136,-1.08249 2.994517,-2.35548 2.991984,-2.82883 -0.0025,-0.47339 -0.885099,-2.05364 -1.961201,-3.51166 z m -97.594834,74.80363 c -0.32248,-0.0475 -0.81738,0.2895 -1.09979,0.74898 -0.31208,0.50775 -0.0822,0.54165 0.58633,0.0864 0.60485,-0.41197 0.83594,-0.78787 0.51346,-0.83541 z"
         id="path840" /></g><rect
       style="fill:none;stroke:#333333;stroke-width:11.9378;stroke-linecap:round;stroke-linejoin:round;stroke-dasharray:none"
       id="rect847"
       width="66.12072"
       height="27.360289"
       x="-82.222694"
       y="539.81439"
       transform="rotate(-36.61396)" /><path
       style="fill:#ffffff;stroke:none;stroke-width:4.74246;stroke-linecap:round;stroke-linejoin:round;stroke-dasharray:none"
       d="m 192.90703,393.48423 c -0.59393,-0.37681 -12.83126,-17.59755 -15.75679,-22.17346 -2.87467,-4.49635 -6.35134,-11.17917 -7.19169,-13.82379 -1.12462,-3.53919 -1.35575,-5.24076 -1.52533,-11.2291 -0.19985,-7.05694 -0.37528,-8.56105 -1.3281,-11.38658 -1.32024,-3.91514 -4.84959,-10.385 -5.87406,-10.76809 -0.30292,-0.11329 -1.55656,-1.16476 -2.78584,-2.33664 -1.22929,-1.17188 -3.36192,-2.74984 -4.73916,-3.50659 -2.98644,-1.64092 -3.51601,-2.26534 -3.21323,-3.78871 0.44016,-2.21459 -0.9256,-6.21388 -4.59561,-13.45715 -0.73494,-1.4505 -0.70691,-1.53805 1.01137,-3.15824 0.97199,-0.91651 11.20554,-8.67548 22.74124,-17.24214 l 20.97386,-15.57591 0.40483,0.9609 c 2.41312,5.72767 11.73694,23.17998 14.0389,26.27799 0.69406,0.93407 0.61315,1.2782 -0.80814,3.43755 -2.21257,3.3615 -2.97082,7.60699 -2.15715,12.07804 0.57559,3.16282 1.12675,4.45185 4.64021,10.85233 6.19913,11.29297 8.68411,16.36591 10.40528,21.24177 0.87379,2.47533 2.34454,5.84607 3.26835,7.49053 3.03059,5.39477 9.01202,10.83697 14.21451,12.93306 1.31328,0.52912 2.41024,0.99227 2.4377,1.02922 0.0274,0.037 -9.77132,7.36477 -21.77503,16.28406 -18.07144,13.42787 -21.9215,16.15562 -22.38625,15.86077 z"
       id="path849" /><path
       style="fill:#ffffff;stroke:none;stroke-width:4.74246;stroke-linecap:round;stroke-linejoin:round;stroke-dasharray:none"
       d="m 76.581449,343.36672 c -2.13265,-2.87593 -4.033791,-5.62415 -4.224725,-6.10719 -0.340918,-0.8625 -0.0369,-1.10885 16.927486,-13.71648 17.11406,-12.71936 17.28431,-12.8573 18.32473,-14.88225 0.57755,-1.12423 0.97426,-2.76039 0.88157,-3.63592 -0.25581,-2.41639 -2.40367,-5.07793 -4.98154,-6.17292 -3.666864,-1.55756 -4.798778,-0.96423 -20.115496,10.54434 l -12.054421,9.05735 -3.928856,-5.3371 -3.928863,-5.3371 52.225596,-38.80591 52.22562,-38.80591 0.53164,4.81746 c 0.7832,7.09692 3.49823,13.93649 7.0791,17.83326 l 1.91575,2.08476 -1.94782,1.5015 c -1.07126,0.82589 -9.90997,7.47265 -19.64145,14.77076 -9.73155,7.29803 -17.90372,13.64505 -18.16045,14.10441 -0.33361,0.59689 -0.48208,0.65689 -0.52034,0.21033 -0.0356,-0.41491 -0.36821,-0.39106 -0.99019,0.071 -0.51515,0.38279 -0.81427,0.86069 -0.66468,1.06201 0.14958,0.2013 -0.18958,0.691 -0.75371,1.08821 -0.90885,0.63999 -0.96893,0.62443 -0.52737,-0.13631 0.35803,-0.61684 -0.0684,-0.43742 -1.51482,0.63732 -1.36214,1.01213 -1.70672,1.41371 -1.06561,1.24188 0.64413,-0.17265 0.13991,0.42203 -1.57481,1.85735 -2.06709,1.73028 -2.57379,2.39809 -2.80746,3.70017 -0.34716,1.9344 0.72827,4.91831 3.46278,9.608 1.13452,1.9457 2.01733,3.84622 1.96179,4.22338 -0.0696,0.47294 -8.19357,6.74753 -26.17842,20.21908 l -26.077492,19.53334 z"
       id="path850" /><path
       style="fill:#ffffff;stroke:none;stroke-width:4.74246;stroke-linecap:round;stroke-linejoin:round;stroke-dasharray:none"
       d="m 233.41081,214.26752 c -7.59028,-0.79552 -14.2414,-0.0636 -21.66281,2.38397 -5.67526,1.87168 -8.82722,3.79464 -19.57013,11.93941 l -7.95553,6.03144 -0.21175,-2.0149 c -0.5999,-5.70844 -4.29092,-35.66711 -4.53349,-36.79686 l -0.28153,-1.31118 52.50662,-38.89487 52.5067,-38.89478 15.00983,20.30459 15.00984,20.3046 -38.78494,28.64444 -38.78493,28.64444 z m 70.65073,-51.86524 c 1.35463,-2.33033 1.23312,-5.39611 -0.29732,-7.50124 -1.57607,-2.16786 -4.22407,-3.56195 -6.1643,-3.24529 -2.53315,0.41344 -10.21655,5.52296 -21.55213,14.33234 -6.13807,4.77018 -10.76099,8.60377 -11.00841,9.12884 -0.77033,1.6347 -0.16586,5.74083 1.09491,7.43759 2.46532,3.31787 5.25575,3.91429 8.98687,1.92085 1.38525,-0.74012 8.26052,-5.66011 15.2784,-10.93333 10.61283,-7.97447 12.91154,-9.84882 13.66198,-11.13976 z m -57.42042,16.46726 c 3.17301,-5.86448 1.04563,-12.87984 -4.7061,-15.51903 -3.13677,-1.43933 -6.07337,-1.55376 -9.70173,-0.37806 -2.50273,0.81096 -2.94077,1.08832 -3.97574,2.51731 -3.87096,5.34471 -4.18636,10.1526 -0.95158,14.506 3.25527,4.38101 8.2613,6.12235 12.84339,4.46757 2.45932,-0.88816 5.24404,-3.28769 6.49176,-5.59379 z m 23.62891,-17.89131 c 1.3135,-2.28673 1.64354,-6.27991 0.71283,-8.62441 -0.41304,-1.04047 -0.81447,-2.29198 -0.89207,-2.78113 -0.0849,-0.53564 -0.463,-1.04556 -0.95006,-1.28245 -0.44516,-0.21601 -1.53868,-0.94029 -2.43002,-1.60949 -2.04423,-1.53475 -5.70408,-2.38552 -8.4406,-1.9621 -2.95319,0.45695 -6.86716,3.36521 -8.15685,6.06089 -1.14867,2.40092 -1.46473,6.47621 -0.66341,8.55409 3.67245,9.52293 15.74737,10.47653 20.82061,1.64428 z M 292.96,144.11144 c 2.10097,-3.68144 1.78981,-8.10553 -0.81649,-11.60916 -3.40816,-4.58097 -7.88398,-5.80328 -14.0169,-3.82699 -1.85535,0.59787 -2.25814,0.89017 -3.48772,2.53104 -2.77398,3.70181 -3.46568,6.40436 -2.62699,10.26405 0.58209,2.67884 2.95495,6.05776 5.18608,7.38491 5.39305,3.20797 12.4332,1.08914 15.76203,-4.74384 z"
       id="path851" /><path
       style="fill:#ffffff;stroke:none;stroke-width:4.74246;stroke-linecap:round;stroke-linejoin:round;stroke-dasharray:none"
       d="m 219.28108,284.14203 c -0.6058,0.29402 -0.89579,0.0646 -1.66649,-1.3182 -0.51319,-0.92078 -2.55661,-4.55816 -4.54094,-8.08309 -4.66837,-8.29277 -7.39948,-13.68524 -7.29894,-14.41143 0.079,-0.57052 6.51174,-3.79326 7.79016,-3.90277 0.45876,-0.0393 0.84717,0.57516 1.50401,2.37926 1.97583,5.42685 3.79577,8.44135 6.7336,11.15338 1.50024,1.38491 3.92537,3.2564 5.38916,4.15884 2.16795,1.33655 2.61159,1.76623 2.3926,2.3174 -0.24811,0.62447 -8.63228,6.89571 -10.30316,7.7066 z"
       id="path852" /><path
       style="fill:#ffffff;stroke:none;stroke-width:4.74246;stroke-linecap:round;stroke-linejoin:round;stroke-dasharray:none"
       d="m 291.24937,274.34179 c -2.08958,0.87204 -3.14634,0.61861 -1.80245,-0.43227 7.29277,-5.70264 8.1228,-6.44616 11.5798,-10.37286 1.70114,-1.93227 4.30626,-6.78025 5.45032,-10.14277 2.11082,-6.20392 2.53101,-20.53818 0.81327,-27.74347 -0.26464,-1.11002 -1.23261,-3.60211 -2.15106,-5.538 -1.52143,-3.20681 -1.91477,-3.74577 -4.42384,-6.06146 -3.26854,-3.01664 -6.43085,-4.93163 -9.69052,-5.86823 -1.30838,-0.37593 -2.4887,-0.83134 -2.62297,-1.01203 -0.31281,-0.421 -5.10324,-0.34777 -7.95429,0.12159 -3.97254,0.654 -6.61612,2.05909 -15.04693,7.99768 -14.56135,10.2569 -16.4195,13.49307 -15.08517,26.27279 0.75865,7.26588 0.72506,11.35162 -0.10732,13.05507 -0.74856,1.53191 -6.91498,7.26256 -8.65955,8.04756 -3.62685,1.63198 -9.79182,-2.77441 -11.4683,-8.19696 -0.8884,-2.87347 -0.78812,-5.01811 0.37838,-8.09228 2.44515,-6.44393 -1.48848,-11.30728 -8.31359,-10.2785 -3.90024,0.5879 -11.43401,3.1408 -19.3057,6.54196 -3.4296,1.48183 -7.00963,3.0288 -7.95564,3.43771 -1.27427,0.55081 0.27248,-0.76007 5.96865,-5.05841 8.48524,-6.40301 12.5712,-8.74523 17.93819,-10.28295 3.86314,-1.10683 11.59195,-1.5577 14.13916,-0.82479 1.04272,0.30002 2.03959,0.43868 2.21527,0.30815 0.17567,-0.13053 1.47325,-0.22241 2.88353,-0.20417 1.41027,0.0182 3.19538,-0.24872 3.96693,-0.59328 1.42206,-0.63506 8.68786,-5.92483 47.75714,-34.76894 l 21.7364,-16.04756 0.87838,1.19369 c 1.22115,1.65884 1.17738,1.9769 -0.79183,5.80375 -3.05826,5.94323 -3.02811,10.4541 0.0996,14.91407 0.67524,0.96284 3.22283,3.42908 5.66134,5.48051 l 4.43366,3.72987 -0.59107,3.07276 c -0.76313,3.96729 -3.77037,14.97559 -4.34798,15.9162 -0.24477,0.39859 -0.36482,1.25473 -0.26678,1.90254 0.098,0.64782 0.10274,2.43024 0.0103,3.96094 -0.0923,1.53069 0.34218,5.93364 0.96554,9.78428 1.03077,6.36716 1.04647,7.19518 0.17346,9.14303 l -0.95993,2.14184 -12.02753,9.04394 c -6.6151,4.97423 -12.67977,9.31624 -13.477,9.64892 z"
       id="path853" /><path
       style="fill:#ffffff;stroke:none;stroke-width:4.74246;stroke-linecap:round;stroke-linejoin:round;stroke-dasharray:none"
       d="m 265.56408,461.09351 c -0.65605,0.31676 -2.41603,-1.96088 -24.96419,-32.30655 l -24.2584,-32.64733 9.61405,-7.02382 c 5.28773,-3.86309 9.70053,-7.00951 9.8062,-6.99206 0.10561,0.0175 11.14136,14.64907 24.52373,32.51474 l 24.33161,32.48304 -9.17362,6.8156 c -5.04549,3.74857 -9.49126,6.96889 -9.87941,7.15635 z"
       id="path854" /><path
       style="fill:#ffffff;stroke:none;stroke-width:4.74246;stroke-linecap:round;stroke-linejoin:round;stroke-dasharray:none"
       d="m 269.24188,489.50635 -4.35153,-5.85637 21.41232,-15.91028 21.41231,-15.91029 4.35153,5.85636 4.35155,5.85636 -21.41233,15.91029 -21.41232,15.91028 z"
       id="path855" /><path
       style="fill:#ffffff;stroke:none;stroke-width:4.74246;stroke-linecap:round;stroke-linejoin:round;stroke-dasharray:none"
       d="m 357.08938,110.18922 -3.64657,2.54694 -1.58935,-2.06508 c -0.87413,-1.13581 -4.70489,-6.20527 -8.51274,-11.265467 l -6.92339,-9.200394 46.02734,-34.200294 46.02734,-34.200309 0.80329,0.965419 c 0.98951,1.189272 15.86004,21.557802 15.83872,21.694661 -0.0303,0.194563 -84.45836,63.233624 -88.02459,65.724484 z"
       id="path856" /><path
       style="fill:#ffffff;stroke:none;stroke-width:4.74246;stroke-linecap:round;stroke-linejoin:round;stroke-dasharray:none"
       d="m 315.63691,133.3413 c -0.88726,-1.29359 -2.60144,-3.72679 -3.80931,-5.40709 l -2.19612,-3.05507 5.81811,-4.32312 5.81812,-4.32312 3.32494,4.39757 c 1.82875,2.41864 3.52034,4.86861 3.75913,5.44438 l 0.43414,1.04685 -5.76793,4.28582 -5.76794,4.28583 z"
       id="path857" /><path
       style="fill:#ffffff;stroke:#ffffff;stroke-width:1.67672;stroke-linecap:round;stroke-linejoin:round;stroke-dasharray:none"
       d="m 272.84661,109.10322 -1.07666,0.67459 0.55302,-4.02634 c 0.42521,-3.09584 0.61098,-3.99978 0.80389,-3.91146 0.38993,0.17853 1.5693,1.4933 1.35591,1.51158 -0.28967,0.0248 0.26625,1.00019 1.08222,1.89876 0.66265,0.72975 0.73186,0.85967 0.60341,1.1323 -0.19565,0.41518 -1.99718,1.89066 -3.32178,2.72058 z"
       id="path858" /></g></svg>
