<?xml version="1.0" encoding="UTF-8" standalone="no"?>
<!-- Created with Inkscape (http://www.inkscape.org/) -->

<svg
   version="1.1"
   id="svg1"
   width="495.1713"
   height="505.72226"
   viewBox="0 0 495.1713 505.72226"
   xml:space="preserve"
   xmlns="http://www.w3.org/2000/svg"
   xmlns:svg="http://www.w3.org/2000/svg"><defs
     id="defs1" /><g
     id="g1"
     transform="translate(-2.287591,-3.3113494)"><path
       id="path57"
       style="fill:#000000;stroke-width:1.04053"
       d="m 481.17969,3.3222656 c -1.46419,0.091073 -2.93209,0.7513433 -4.50586,1.9609375 -2.3046,1.7713021 -2.76184,1.8070779 -4.93555,0.3828125 C 470.37836,4.7749671 468.30252,4.3580872 466.93555,4.7011719 465.61129,5.0335401 455.94534,12.592024 445.45508,21.5 l -19.07422,16.197266 -4.33008,-4.458985 c -4.65263,-4.790873 -22.13966,-13.304687 -27.32812,-13.304687 -2.87383,0 -13.19838,7.261607 -14.9336,10.503906 -1.43767,2.686316 -1.21014,6.857104 0.56055,10.28125 1.83356,3.545722 7.34013,-1.611361 -50.45117,47.271484 -21.46094,18.152756 -39.84152,34.262736 -40.84375,35.800786 -1.00223,1.53804 -2.60157,4.9032 -3.55469,7.47851 -2.21578,5.98695 -5.01963,9.15558 -10.23047,11.56055 -6.23152,2.87603 -11.33237,2.5808 -14,-0.81055 -1.20155,-1.52751 -2.05498,-3.10442 -1.89648,-3.50391 0.1585,-0.39948 11.11863,-9.90432 24.35547,-21.12304 19.54448,-16.56468 24.3846,-21.189129 25.7539,-24.61133 2.13841,-5.344434 2.09632,-8.905372 -0.16211,-13.71875 -2.38124,-5.075104 -17.20489,-22.303317 -21.38086,-24.849609 -4.96872,-3.02966 -11.91453,-2.687884 -17.02148,0.83789 -6.92413,4.780342 -51.27259,42.97692 -52.44727,45.171879 -0.60371,1.12804 -0.94717,3.59527 -0.76367,5.48437 0.31802,3.27401 -0.44505,4.09874 -16.31445,17.61328 -14.9856,12.76186 -17.04166,14.17955 -20.58399,14.18555 -5.63785,0.0105 -10.4958,2.35353 -17.55468,8.46875 -6.69546,5.80037 -9.20508,9.62289 -9.20508,14.01758 0,1.94794 -1.59987,4.50453 -5.20313,8.31445 -5.41662,5.72726 -6.00406,7.35924 -4.00976,11.15625 1.36329,2.59565 9.67215,12.64265 15.86328,19.18164 5.27587,5.57232 8.60093,5.78841 15.33594,1 6.07807,-4.32135 11.65798,-4.22229 15.97265,0.28125 l 2.78125,2.90234 -8.87695,7.47461 c -4.8826,4.11161 -9.19148,8.46205 -9.57422,9.66797 -0.38275,1.20592 -1.45761,6.96652 -2.38867,12.80078 l -1.69336,10.60743 -12.45703,10.5625 c -6.85147,5.809 -12.81168,11.19404 -13.24414,11.96679 -0.43245,0.77276 -1.79728,6.00998 -3.03516,11.63868 -1.81262,8.24198 -2.02364,10.83739 -1.08203,13.33203 0.64306,1.70364 1.06084,3.17663 0.92773,3.27343 -0.13313,0.0968 -22.08246,18.70345 -48.775386,41.34961 -26.692927,22.64614 -49.465952,41.75979 -50.607422,42.47266 -1.793343,1.11996 -2.685102,0.84612 -6.560547,-2.00391 -4.83241,-3.55379 -10.538685,-4.35858 -14.808594,-2.08984 -4.259391,2.26317 -17.8765236,14.67849 -19.3671872,17.6582 -1.0908611,2.18056 -1.2304081,3.9196 -0.5214844,6.54102 1.1874636,4.39085 38.6348786,48.78446 43.6445316,51.74023 1.874347,1.10589 13.402544,13.81697 25.617187,28.2461 12.214643,14.42911 23.245675,27.28655 24.513672,28.57421 3.55114,3.60621 8.53302,3.12339 14.00781,-1.35937 9.82516,-8.04483 10.00259,-9.25925 3.74024,-25.58984 -4.34102,-11.32024 -4.71443,-11.87814 -20.291019,-30.33399 L 78.089844,430.55664 v -8.05078 c 0,-7.17176 -0.299938,-8.40604 -2.732422,-11.29688 -1.50194,-1.78496 -2.420442,-3.55417 -2.042969,-3.93164 0.377474,-0.37747 16.472854,-14.15054 35.767577,-30.60546 l 35.08008,-29.91797 2.69922,3.10156 c 3.50451,4.02578 7.58588,5.10938 19.66601,5.2207 5.44056,0.0501 12.20071,0.40021 15.02149,0.7793 5.84363,0.78532 4.25029,-1.9435 14.36719,24.62305 5.28008,13.86526 6.24466,15.53498 19.95312,34.54296 10.40675,14.42987 15.35018,20.42233 17.81055,21.58985 7.53525,3.57571 8.00071,3.3832 61.88086,-25.39258 27.75615,-14.82373 52.03342,-28.27216 53.94922,-29.88672 3.17754,-2.67791 3.78623,-4.20062 6.94531,-17.33984 1.90467,-7.92191 3.70797,-14.64742 4.00781,-14.94727 0.24995,-0.24994 2.62387,1.03694 5.39844,2.7832 0.1737,-1.29235 0.36627,-2.58165 0.60547,-3.86523 0.42596,-2.19363 0.59873,-3.23184 1.15625,-5.44727 0.4846,-1.9257 1.06144,-3.82561 1.69336,-5.70703 -2.57994,-1.68697 -4.103,-2.60221 -8.72266,-5.80859 l -13.52734,-9.38867 -11.83008,-23.61328 -10.99024,-21.93555 c -0.22644,-0.30799 -0.45964,-0.61035 -0.71484,-0.89062 -0.30102,-0.33061 -0.62302,-0.64078 -0.91602,-0.97852 -0.49681,-0.57265 -0.96904,-1.16849 -1.45312,-1.75195 -0.47794,-0.74888 -1.00293,-1.46907 -1.43359,-2.2461 -1.57372,-2.83944 -2.3103,-6.07023 -2.63868,-9.27343 l -0.66601,0.54687 -4.96875,-10.0332 -4.96875,-10.03321 2.42187,-1.9707 1.00782,-0.82226 c 0.27779,-0.61425 0.52012,-1.35103 0.61523,-2.23633 0.0429,-0.39964 -0.0231,-0.0748 0.77148,-0.50196 1.04342,-0.561 2.03378,-1.19506 3.01172,-1.84765 1.16171,-2.75473 2.7705,-5.13907 5.4375,-7.14258 0.2772,-0.17571 0.55662,-0.34821 0.83203,-0.52734 -5.31334,-3.1638 -9.52504,-4.75506 -11.6289,-4.22461 -2.99932,0.7562 -14.39354,10.23418 -16.18946,13.46679 -0.71138,1.2805 -1.30977,3.21909 -1.33007,4.30664 -0.0203,1.08755 9.91302,21.87642 22.07422,46.19922 l 22.11132,44.22461 6.35157,4.66211 6.34961,4.66406 -3.91016,15.54493 c -2.15153,8.5499 -4.0743,15.67399 -4.27149,15.83203 -0.19715,0.15803 -5.27414,2.86993 -11.2832,6.02539 -12.49924,6.56357 -71.12473,37.75758 -80.9375,43.0664 -7.57766,4.09962 -7.72264,4.12485 -9.79101,1.7168 -3.13808,-3.65343 -23.50023,-33.12484 -24.98243,-36.1582 -0.83891,-1.71688 -3.98295,-9.96807 -6.98632,-18.33594 -8.23248,-22.93688 -9.30474,-24.18126 -22.59571,-26.20898 l -8.11914,-1.23829 15.33008,-13.00586 c 8.43233,-7.15363 15.78691,-13.00781 16.3418,-13.00781 1.08473,0 14.66448,22.70534 20.22656,33.81836 1.86181,3.71989 7.26011,15.55702 11.99609,26.30664 4.73597,10.74961 9.62083,21.04487 10.85547,22.87696 5.77315,8.56677 18.36612,10.64102 29.39063,4.84179 6.03291,-3.1735 26.9989,-19.47786 35.35156,-27.49218 6.93016,-6.64948 7.13298,-8.72301 3.45898,-35.37891 l -3.15625,-22.89063 -14.63671,-30.17578 c -8.05084,-16.59645 -15.52611,-31.42259 -16.61133,-32.94726 -4.47172,-6.28255 -16.13739,-8.98233 -22.25,-5.14844 -1.71688,1.07685 -26.04767,21.45868 -54.06836,45.29297 -28.0207,23.83427 -51.50124,43.20264 -52.17969,43.04101 -1.57136,-0.37439 -16.14301,-17.61309 -15.77148,-18.6582 0.15278,-0.42978 4.72729,-4.68531 10.16406,-9.45703 11.05484,-9.70259 12.43493,-12.70524 8.42969,-18.33008 -1.69574,-2.38146 -1.93055,-3.65011 -1.20703,-6.49805 0.49439,-1.94606 1.18121,-4.80544 1.52734,-6.35351 0.34614,-1.54807 2.2529,-4.05162 4.23633,-5.56445 l 3.60547,-2.75 6.03906,6.3457 c 3.41951,3.59357 6.92898,6.3438 8.0918,6.3418 3.42866,-0.007 6.93636,-2.74448 44.99218,-35.09961 l 36.69727,-31.19922 9.81445,0.51367 9.81445,0.51367 12.22071,-10.28515 c 23.38426,-19.6786 21.91018,-17.69674 31.63086,-42.54102 4.70228,-12.01813 9.07361,-22.50985 9.71484,-23.31445 1.75112,-2.19726 69.14386,-59.403878 70.67188,-59.990238 2.01013,-0.771355 33.5834,36.902128 32.3789,38.634768 -0.52366,0.75325 -14.53049,12.90875 -31.12695,27.01172 l -30.17578,25.64062 -5.08399,-0.57617 c -2.79599,-0.31749 -5.25081,-0.74499 -5.45508,-0.94922 -0.75243,-0.75243 6.89315,-21.83579 8.33008,-22.9707 0.81788,-0.64599 10.21965,-8.6056 20.89258,-17.6875 18.96376,-16.13679 19.39822,-16.59666 19.08984,-20.1875 -0.22066,-2.56984 -1.17106,-4.31122 -3.16406,-5.79297 -2.5985,-1.93193 -3.12118,-1.9863 -5.92968,-0.62305 -3.02903,1.47027 -37.93283,30.66799 -42.42579,35.49024 -1.26447,1.35714 -4.16772,7.88965 -6.45312,14.51757 -3.98684,11.56227 -11.55687,30.57758 -24.59375,61.78321 -1.9088,4.56895 -2.7471,6.46036 -3.67383,8.57812 1.50626,-0.63046 3.14567,-1.31558 4.70117,-1.67773 2.07513,-1.42126 4.14825,-2.84676 6.28711,-4.16992 2.35285,-1.54513 4.5608,-3.28406 6.71094,-5.09571 1.21783,-1.02817 2.50352,-1.96591 3.80078,-2.88867 5.85491,-13.30415 11.8149,-26.32939 12.39844,-26.10547 0.67888,0.26051 4.86622,1.08428 9.30469,1.83008 7.05766,1.18589 8.42379,1.15274 10.88476,-0.25977 2.85044,-1.63587 62.89217,-52.2046 70.07617,-59.01953 5.17282,-4.90709 5.08538,-7.76318 -0.45117,-14.71679 l -4.35351,-5.46875 5.43359,-4.67969 c 9.62457,-8.292083 11.01544,-15.011744 4.9668,-24.000001 l -3.50977,-5.214843 18.63281,-15.789063 c 10.24763,-8.683881 19.37377,-16.923607 20.28125,-18.308594 1.37456,-2.097845 1.43745,-3.029597 0.37696,-5.589843 -1.11505,-2.691969 -1.00215,-3.41889 0.91601,-5.857422 4.00267,-5.088579 3.00829,-7.921258 -6.27539,-17.8515628 -2.90466,-3.10693 -5.33703,-4.5365534 -7.77734,-4.3847656 z m -12.60547,17.1640624 4.53906,5.158203 c 2.49638,2.836935 4.53927,5.638601 4.53906,6.226563 -1.9e-4,0.587962 -7.01297,7.039219 -15.58398,14.335937 -8.57099,7.296719 -15.9885,13.265625 -16.48438,13.265625 -1.1092,0 -9.57956,-9.927277 -9.48046,-11.111328 0.0615,-0.735831 19.53532,-17.590864 29.2207,-25.291016 z m -73.32813,14.84961 c 0.39885,-0.399586 4.00373,0.815772 8.00977,2.701171 7.00659,3.297576 7.97571,4.24552 25.49219,24.927735 10.01511,11.825128 18.20898,22.110326 18.20898,22.855468 0,0.745145 -1.82222,2.953225 -4.04883,4.908204 l -4.04687,3.554687 -5.83789,-6.708984 C 413.52235,65.159417 412.52641,64.168791 408.5293,63.164062 c -3.05075,-0.766849 -4.58111,-0.629509 -6.73633,0.607422 -1.53411,0.880465 -19.86056,16.164078 -40.72461,33.962891 l -37.93359,32.361325 -9.63672,24.29883 -9.63672,24.29883 -13.54688,11.24414 -13.54687,11.24414 -8.27344,-1.11328 c -4.55017,-0.6124 -8.96818,-0.84774 -9.81836,-0.52148 -0.85018,0.32624 -18.3006,14.82566 -38.7793,32.2207 -20.47872,17.39506 -37.51299,31.63267 -37.85351,31.63867 -0.34052,0.006 -1.47886,-0.93888 -2.5293,-2.09961 -1.87238,-2.06896 -1.82158,-2.19958 2.5293,-6.63281 4.37258,-4.45533 4.46228,-4.69503 6.09961,-16.25195 l 1.66211,-11.72852 24.52343,-20.94531 c 49.15963,-41.98552 55.74467,-47.42383 57.42774,-47.42383 0.94264,0 4.11307,-0.77578 7.04492,-1.72266 7.65234,-2.47144 16.14531,-10.5835 19.13086,-18.27344 2.26715,-5.83949 3.18489,-6.69312 49.6543,-46.130854 26.10757,-22.157032 47.99487,-41.503863 48.79492,-43.132813 1.25831,-2.561973 1.23094,-3.621192 -0.20508,-7.978515 -0.91068,-2.763222 -1.32853,-5.350417 -0.92969,-5.75 z M 280.22656,66.757812 c 0.79107,0 4.83263,3.984237 8.98047,8.855469 4.17136,4.898848 7.39181,9.619012 7.20703,10.560547 -0.22398,1.141253 -2.92936,-1.34941 -8.20898,-7.55664 -9.24806,-10.872952 -9.9119,-11.859376 -7.97852,-11.859376 z m -10.45312,9.966797 c 3.12226,-0.308224 5.19882,3.224895 10.96875,10.134766 5.7738,6.914511 6.57681,8.348783 5.34375,9.542969 -0.79805,0.772895 -8.70956,7.526936 -17.58008,15.009766 -8.87052,7.48284 -16.45572,13.60737 -16.85547,13.60937 -1.1989,0.008 -17.35885,-19.12134 -16.84961,-19.94531 0.25885,-0.41881 8.23693,-7.363159 17.72852,-15.431639 9.95473,-8.46218 14.12188,-12.611697 17.24414,-12.919922 z m -42.81055,44.140621 c 0.95181,0 8.24609,8.36348 8.24609,9.45508 0,0.41665 -6.81013,6.53834 -15.13476,13.60157 -8.32464,7.06317 -15.70686,12.97173 -16.4043,13.13085 -0.69744,0.15912 -3.03675,-1.82705 -5.19922,-4.41406 l -3.93164,-4.70508 3.42578,-3.0039 c 11.95716,-10.48356 28.32236,-24.06446 28.99805,-24.06446 z m 15.79297,22.47071 c 0.29431,-0.0546 2.44528,2.21222 4.78125,5.03906 3.35392,4.0587 3.997,5.44385 3.05078,6.58398 -0.65903,0.79408 -10.35862,9.20497 -21.55469,18.69141 -11.19609,9.48642 -21.08447,17.86814 -21.97265,18.625 -1.36437,1.16263 -1.96326,1.02698 -3.86328,-0.87305 l -2.25,-2.24804 4.5957,-4.91407 c 3.65768,-3.91036 4.74086,-5.94045 5.30273,-9.95117 0.69708,-4.97584 0.89884,-5.20199 16.04102,-17.94726 8.4341,-7.09905 15.57482,-12.95126 15.86914,-13.00586 z m -63.6543,8.74414 c 0.85709,0 15.35606,16.6316 16.91992,19.4082 0.63095,1.12025 -0.35586,2.68554 -3.55468,5.63867 -2.43558,2.24852 -5.22667,4.08789 -6.20313,4.08789 -2.62312,0 -17.65253,-16.93105 -17.64453,-19.87695 0.004,-1.43355 8.86334,-9.25781 10.48242,-9.25781 z m 110.7168,6.92578 c -1.69063,-0.17532 -3.45551,0.004 -5.21484,0.58398 -4.59857,1.51554 -8.81446,6.838 -8.81446,11.13086 0,4.15828 3.40083,9.59257 7.36524,11.77149 9.33441,5.1304 20.39912,-3.40137 17.65039,-13.60938 -1.51823,-5.63825 -5.91445,-9.35099 -10.98633,-9.87695 z m -1.42578,9.88086 c 1.45673,-0.16816 3.00586,1.091 3.00586,2.93164 0,1.43092 -0.68433,2.11328 -2.11524,2.11328 -2.45419,0 -3.87436,-2.75065 -2.25586,-4.36914 0.40463,-0.40463 0.87966,-0.61973 1.36524,-0.67578 z m -126.94141,7.12695 c 1.21602,0 9.12933,8.27613 9.20313,9.625 0.11776,2.15342 -3.06091,0.27477 -6.50196,-3.84179 -4.12989,-4.94068 -4.52259,-5.78321 -2.70117,-5.78321 z m 108.15235,85.32227 c 0.97283,0 2.25227,0.58542 2.84179,1.30078 0.58952,0.71537 7.21623,13.59333 14.72657,28.61719 l 13.65429,27.3164 2.60547,16.67188 c 1.43282,9.16984 2.70668,19.09245 2.83008,22.04883 l 0.22461,5.375 -14.56836,12.3789 c -8.01209,6.80845 -16.43935,13.26395 -18.72852,14.3457 -9.01528,4.26023 -10.51456,2.61367 -22.27343,-24.45312 -5.2047,-11.98027 -9.46008,-22.04709 -9.45508,-22.37109 0.005,-0.324 6.0526,-5.73995 13.4375,-12.03516 7.38491,-6.29521 13.93656,-12.52135 14.55859,-13.83594 3.23979,-6.84697 0.0195,-12.34643 -9.19726,-15.70703 -3.44413,-1.2558 -6.99902,-3.01854 -7.89844,-3.91797 -1.81119,-1.81118 -7.78711,-13.22066 -7.78711,-14.86719 0,-1.64427 23.05691,-20.86718 25.0293,-20.86718 z m -95.78516,23.58594 c -2.46582,0 -4.14759,0.80791 -5.88867,2.83203 -3.20689,3.72823 -3.09693,7.40696 0.3164,10.57031 3.57868,3.317 8.02373,3.31666 11.3418,-0.002 3.21207,-3.21207 3.25309,-6.92266 0.11719,-10.56836 -1.74107,-2.02412 -3.42089,-2.83214 -5.88672,-2.83203 z m 57.97266,7.26757 c 0.83435,-0.49886 2.19866,1.1137 4.01757,4.7461 4.29984,8.58685 7.27771,11.9231 12.38868,13.875 2.58516,0.98729 4.70117,2.1494 4.70117,2.58203 0,0.43262 -3.92135,4.11367 -8.71289,8.18164 -4.79155,4.06795 -9.13719,7.39648 -9.65821,7.39648 -1.00409,0 -14.92578,-23.91943 -14.92578,-25.64453 0,-0.92962 9.24539,-9.37646 12.18946,-11.13672 z m -104.27735,34.75196 3.36719,3.87695 c 1.85144,2.13196 3.37286,4.13584 3.38086,4.45312 0.009,0.31729 -15.69111,13.89466 -34.888673,30.17383 -19.197544,16.27918 -35.468615,29.72558 -36.158203,29.87891 -1.70816,0.37979 -7.441042,-6.99394 -6.3125,-8.11914 0.493586,-0.49212 16.582135,-14.25383 35.753906,-30.58008 z m -99.503904,60.34375 c 3.116211,-0.0969 19.239981,13.26687 26.740234,22.16211 l 7.763672,9.20507 -0.148438,7.16797 c -0.179563,8.73561 -0.955869,7.4649 19.34375,31.65039 12.723875,15.15955 16.271473,20.10073 18.585936,25.88672 1.57317,3.9328 2.67623,7.33355 2.45117,7.5586 C 102.52105,491.14107 92.477211,479.7296 80.427734,465.55664 68.378256,451.38368 57.076897,438.94529 55.3125,437.91602 53.548102,436.88674 44.303134,426.89129 34.767578,415.70508 l -17.33789,-20.33789 4.576171,-4.01953 c 2.51722,-2.21049 5.219222,-4.038 6.003907,-4.0625 z" /><path
       style="fill:#000000;stroke:none;stroke-width:9.3"
       d="m 297.15416,236.79472 c 0.70349,0 1.40698,0 0,0 z"
       id="path79" /><path
       style="fill:#000000;stroke:#000000;stroke-width:9.3"
       d="m 347.38335,204.29349 -50.22919,33.76752"
       id="path80" /><path
       style="fill:#000000;stroke:#000000;stroke-width:9.3"
       d="m 299.26463,236.79472 47.69662,-34.18961"
       id="path81" /><path
       style="fill:#000000;stroke:#000000;stroke-width:9.3"
       d="m 300.53092,231.3075 46.85243,-35.87799"
       id="path82" /><path
       style="fill:#000000;stroke:#000000;stroke-width:9.3"
       d="m 335.14262,211.89118 35.87799,86.52927"
       id="path83" /><path
       style="fill:#000000;stroke:#000000;stroke-width:9.3"
       d="m 370.17642,295.46579 v 13.507"
       id="path84" /><path
       style="fill:#000000;stroke:#000000;stroke-width:9.3"
       d="m 369.75433,308.12861 13.50701,3.37675"
       id="path85" /><path
       style="fill:#000000;stroke:#000000;stroke-width:9.3"
       d="m 382.41715,310.66117 8.01978,2.95466"
       id="path86" /><path
       style="fill:#000000;stroke:#000000;stroke-width:9.3"
       d="m 371.8648,307.28442 c 0.56279,0 1.68837,0.56279 1.68837,0 0,-0.56279 -2.25116,0 -1.68837,0 10.31349,0 0.51906,-0.50338 4.22094,0.42209 0.27299,0.0683 0.61005,-0.15609 0.84419,0 0.26177,0.17452 0.16032,0.66968 0.42209,0.84419 0.46827,0.31218 1.14239,-0.1365 1.68838,0 0.30521,0.0763 0.53897,0.34579 0.84418,0.42209 2.92198,0.7305 6.15872,-0.95931 8.86398,0.84419 0.38172,0.25449 0.94479,2.31169 1.26628,2.95466"
       id="path87" /><path
       style="fill:#000000;stroke:#000000;stroke-width:9.3"
       d="m 390.01484,313.19373 -22.79308,33.76752"
       id="path88" /><path
       style="fill:#000000;stroke:#000000;stroke-width:9.3"
       d="m 300.70401,242.8017 34.47277,-26.71267"
       id="path89" /><path
       style="fill:#000000;stroke:#000000;stroke-width:9.3"
       d="m 299.36091,241.01091 41.18825,82.52571"
       id="path90" /><path
       style="fill:#000000;stroke:#000000;stroke-width:9.3"
       d="m 299.65938,238.02625 42.97903,87.59963"
       id="path91" /><path
       style="fill:#000000;stroke:#000000;stroke-width:9.3"
       d="m 299.95784,238.62318 42.53134,89.24119"
       id="path92" /><path
       style="fill:#000000;stroke:#000000;stroke-width:9.3"
       d="m 368.45568,309.21028 23.42954,2.83542"
       id="path93" /><path
       style="fill:#000000;stroke:#000000;stroke-width:9.3"
       d="m 365.17256,308.31488 28.20499,5.07391"
       id="path94" /><path
       style="fill:#000000;stroke:#000000;stroke-width:9.3"
       d="m 369.96538,294.41055 c 0.56279,0.56279 1.17884,1.07695 1.68837,1.68838 0.20141,0.24169 0.23923,0.58818 0.4221,0.84419 0.65328,0.91459 1.58574,1.90273 2.32151,2.74361 0.59813,0.68357 1.20352,0.9554 1.89943,1.47733 0.65732,0.49299 0.98975,1.28995 1.47732,1.89942 0.7946,0.99324 2.09597,1.57846 2.95466,2.53256 0.69918,0.77687 1.16607,2.01026 1.89942,2.74361 0.41751,0.41751 1.03702,0.61492 1.47733,1.05524"
       id="path95" /><path
       style="fill:#000000;stroke:#000000;stroke-width:9.3"
       d="m 368.277,290.40066 c 0.1407,0.42209 0.18039,0.89274 0.42209,1.26628 1.1283,1.74373 2.76669,3.19647 4.0099,4.85408 0.20684,0.2758 1.11701,1.75016 1.47733,2.11047 1.47095,1.47096 0.62171,0.30372 1.47732,1.26628 0.79523,0.89463 1.2556,1.56163 2.11047,2.32152 0.67335,0.59853 1.47344,1.05134 2.11047,1.68838 1.03266,1.03266 0.79882,1.36665 2.11047,2.53256 0.50338,0.44745 1.22704,0.80494 1.68838,1.26628 0.11123,0.11123 0.1407,0.2814 0.21105,0.4221 0.28139,0.28139 0.54204,0.5852 0.84418,0.84419 0.94782,0.81241 0.33681,0.0231 1.05524,0.84418 0.94902,1.08459 1.40349,1.87481 2.74361,2.32152"
       id="path96" /><path
       style="fill:#000000;stroke:#000000;stroke-width:9.3"
       d="m 357.30256,342.31822 c 1.61756,0.20841 2.77931,1.53382 4.22094,2.11047 0.13063,0.0522 0.30953,-0.0844 0.42209,0 0.20292,0.15219 0.2143,0.48768 0.42209,0.63314 0.51548,0.36083 1.16484,0.49516 1.68838,0.84419 0.33112,0.22074 0.53847,0.58942 0.84419,0.84419 0.0635,0.0529 2.73406,1.82589 2.95466,1.89942 0.13347,0.0445 0.28559,-0.0341 0.42209,0 0.58961,0.1474 0.48093,0.84419 1.05523,0.84419"
       id="path97" /><path
       style="fill:#000000;stroke:#000000;stroke-width:9.3"
       d="m 354.76999,350.7601 7.1756,8.23083"
       id="path98" /><path
       style="fill:#000000;stroke:#000000;stroke-width:9.3"
       d="m 390.64798,311.29431 -31.446,48.32976"
       id="path99" /><path
       style="fill:#ffffff;stroke:none;stroke-width:3.92547"
       d="m 442.71361,56.45507 c -3.27747,-3.433358 -6.16432,-7.300498 -5.98683,-8.019774 0.24706,-1.001185 15.01469,-13.997559 26.57088,-23.383922 l 5.24534,-4.260458 2.94532,3.385706 c 3.46472,3.982769 5.68893,7.001745 5.68893,7.72172 0,1.173229 -30.22712,27.194815 -31.58997,27.194815 -0.19545,0 -1.4886,-1.187139 -2.87367,-2.638087 z"
       id="path101" /><path
       style="fill:#ffffff;stroke:none;stroke-width:3.92547"
       d="m 180.10588,261.57265 c -1.33785,-1.38032 -1.75155,-2.95257 -0.91322,-3.47069 0.23973,-0.14816 1.85339,-1.89078 3.58592,-3.87249 3.8246,-4.37466 3.9938,-4.87267 5.70453,-16.79017 0.70072,-4.88148 1.36254,-9.28583 1.47072,-9.78746 0.26546,-1.23094 71.25369,-61.86106 78.5605,-67.09748 1.8744,-1.3433 3.27792,-1.98602 5.05376,-2.3143 3.51442,-0.64968 8.52573,-2.5649 11.21866,-4.28755 3.16591,-2.02521 7.64173,-6.28864 9.83191,-9.36536 0.99936,-1.40388 2.59966,-4.20322 3.55621,-6.22073 1.05545,-2.22613 2.60222,-4.61252 3.9345,-6.07025 3.08532,-3.37583 11.39632,-10.72606 30.92278,-27.34805 34.28324,-29.183764 52.73962,-45.23327 60.01527,-52.188755 5.04573,-4.823684 5.16527,-5.340207 3.04622,-13.162895 -0.5465,-2.01749 -0.86024,-3.801565 -0.6972,-3.964611 0.41974,-0.419737 4.92805,1.273927 9.39169,3.528228 3.22436,1.628421 4.46908,2.595108 8.23083,6.392296 6.17474,6.232909 30.02169,34.590027 33.07354,39.328737 0.68125,1.057797 0.6654,1.145428 -0.46102,2.548388 -1.41722,1.765176 -6.31039,6.28766 -6.75559,6.243826 -0.17614,-0.01734 -4.68892,-5.062655 -10.0284,-11.211808 -12.41511,-14.297695 -16.61029,-18.423395 -19.65226,-19.326763 -3.07206,-0.912305 -5.01779,-0.83402 -7.07987,0.284858 -2.59213,1.406477 -20.04806,16.027845 -66.76169,55.920659 l -12.45177,10.63364 -9.63177,24.28063 -9.63176,24.28062 -13.49113,11.19851 -13.49113,11.19852 -6.55844,-0.85192 c -3.60714,-0.46856 -7.66788,-0.85192 -9.02387,-0.85192 -2.25689,0 -2.65608,0.14998 -4.71933,1.77314 -4.33439,3.40988 -19.70278,16.23868 -37.07665,30.94982 -25.7914,21.83861 -36.84421,31.01323 -37.3621,31.01323 -0.25341,0 -1.06784,-0.62635 -1.80984,-1.3919 z m 114.09363,-78.54324 c 4.55129,-2.14645 7.10524,-6.10308 7.10524,-11.00758 0,-5.22731 -2.71857,-9.70559 -7.23964,-11.92577 -3.1404,-1.54217 -7.66553,-1.64711 -10.72168,-0.24865 -4.28355,1.9601 -7.7182,6.93383 -7.66565,11.10065 0.0584,4.63401 4.4047,10.86628 8.61399,12.35192 2.95993,1.0447 7.37449,0.92414 9.90774,-0.27057 z"
       id="path102" /><path
       style="fill:#ffffff;stroke:none;stroke-width:0.981369"
       d="m 295.94064,86.339786 c -0.95528,-0.319065 -3.63751,-3.040133 -7.82255,-7.935829 -6.73286,-7.876163 -8.91583,-10.722092 -8.68527,-11.322927 0.12272,-0.319817 0.72876,-0.337565 1.24268,-0.03639 1.93245,1.132493 8.11393,7.851391 12.14067,13.196176 1.95788,2.598751 3.54657,5.199822 3.54657,5.80662 0,0.264858 -0.16411,0.378521 -0.4221,0.29235 z"
       id="path103" /><path
       style="fill:#ffffff;stroke:none;stroke-width:0.981369"
       d="m 250.86174,124.37487 c -2.62201,-2.22574 -13.81442,-15.48133 -15.69214,-18.58479 l -0.35884,-0.59308 0.35884,-0.37433 c 0.46762,-0.48779 3.86792,-3.49837 7.32339,-6.484013 3.08952,-2.66945 18.37657,-15.759903 19.83842,-16.987839 4.24423,-3.565095 6.61765,-4.856365 8.34077,-4.537829 1.68476,0.311446 2.94202,1.431267 6.4938,5.783927 0.8887,1.089091 2.47648,3.024848 3.52839,4.301683 4.39048,5.329264 5.57985,7.01 5.80323,8.20071 0.15176,0.808914 0.22137,0.739955 -6.80757,6.743031 -14.94697,12.76545 -27.49264,23.09748 -28.04614,23.09748 -0.0642,0 -0.41611,-0.25423 -0.78215,-0.56495 z"
       id="path104" /><path
       style="fill:#ffffff;stroke:none;stroke-width:3.92547"
       d="m 201.42882,155.35297 c -0.7792,-0.68414 -2.56853,-2.63635 -3.97629,-4.33825 l -2.55956,-3.09436 6.34275,-5.47543 c 7.05303,-6.0886 15.33478,-13.03905 21.56792,-18.10087 l 4.1121,-3.33937 1.91375,1.86204 c 1.05256,1.02412 2.87428,3.0617 4.04826,4.52796 l 2.13453,2.66592 -1.64134,1.70017 c -1.69549,1.75626 -13.26554,11.84738 -19.58034,17.0775 -5.77058,4.77938 -9.75263,7.75859 -10.37023,7.75859 -0.31616,0 -1.21236,-0.55975 -1.99155,-1.2439 z"
       id="path105" /><path
       style="fill:#ffffff;stroke:none;stroke-width:3.92547"
       d="m 183.96536,179.4362 c -3.86424,-3.10621 -10.4376,-10.42605 -13.48652,-15.01806 -1.97064,-2.968 -1.79087,-3.65071 1.83928,-6.98527 3.88638,-3.56992 6.28492,-5.18494 7.05791,-4.75235 1.22673,0.68651 12.99413,14.15467 15.74401,18.01952 l 1.04213,1.46468 -0.92082,1.48993 c -1.33907,2.16666 -7.65663,7.42367 -8.92132,7.42367 -0.1715,0 -1.23111,-0.73895 -2.35467,-1.64212 z"
       id="path106" /><path
       style="fill:#ffffff;stroke:none;stroke-width:0.981369"
       d="m 169.2083,186.24062 c -1.08828,-0.49363 -2.99532,-2.1667 -4.61423,-4.04812 -2.31132,-2.68611 -3.80736,-4.68277 -4.0425,-5.39525 -0.11651,-0.35301 -0.10969,-0.41273 0.0614,-0.53782 0.33082,-0.24191 1.02212,-0.17303 1.50039,0.14947 1.82883,1.23324 6.50127,6.07696 7.94659,8.2379 0.36338,0.54329 0.5188,0.8814 0.5188,1.12862 0,0.68496 -0.50672,0.85696 -1.37043,0.4652 z"
       id="path107" /><path
       style="fill:#ffffff;stroke:none;stroke-width:3.92547"
       d="m 180.10588,261.57265 c -0.74199,-0.76554 -1.34908,-1.72442 -1.34908,-2.13083 0,-0.40641 1.5784,-2.51174 3.50755,-4.67852 4.29792,-4.82732 4.49276,-5.36966 6.19393,-17.241 0.70606,-4.92712 1.37483,-9.36552 1.48615,-9.8631 0.11324,-0.50617 3.31824,-3.56976 7.27573,-6.95471 47.28302,-40.44245 67.08142,-57.14828 71.28554,-60.15055 1.42257,-1.01589 3.22703,-1.96191 4.0099,-2.10228 7.58617,-1.36019 13.95972,-4.80099 19.17141,-10.34983 2.88252,-3.06898 4.44015,-5.42537 6.54056,-9.89457 2.79256,-5.94192 3.65054,-6.73327 51.91,-47.879148 29.80595,-25.412459 45.39083,-39.389521 46.66239,-41.848444 0.85725,-1.657746 0.77089,-2.940552 -0.54111,-8.037858 -0.63864,-2.48116 -1.02724,-4.64512 -0.86356,-4.8088 0.4268,-0.426797 4.97862,1.292991 9.33729,3.527857 4.38811,2.249957 7.06205,4.614088 13.4736,11.912505 9.52601,10.843677 27.03752,32.095587 28.13239,34.141375 0.33925,0.633897 0.18871,1.099386 -0.72254,2.234203 -1.40157,1.745439 -6.29603,6.267159 -6.74014,6.226844 -0.17614,-0.01598 -4.68892,-5.057344 -10.0284,-11.203011 -5.33949,-6.145673 -11.4451,-12.864416 -13.56803,-14.930541 -3.32098,-3.23213 -4.19882,-3.855128 -6.28771,-4.462387 -3.15244,-0.916439 -5.63724,-0.625466 -7.86957,0.921539 -3.35439,2.324598 -27.71965,22.831459 -65.97956,55.531276 l -12.24072,10.46185 -9.49712,24.11777 -9.49711,24.11776 -13.60439,11.35385 -13.60438,11.35386 -6.57984,-0.8547 c -3.6189,-0.47009 -7.69389,-0.8547 -9.05551,-0.8547 -2.38164,0 -2.59303,0.0932 -5.56509,2.45504 -4.22607,3.3583 -18.52049,15.31608 -37.69797,31.53565 -24.76809,20.94791 -35.38145,29.7455 -35.88477,29.7455 -0.25341,0 -1.06784,-0.62635 -1.80984,-1.3919 z m 114.09363,-78.53508 c 2.40998,-1.12725 5.33533,-4.10136 6.36221,-6.46827 0.42133,-0.97114 0.70781,-2.79299 0.72105,-4.58545 0.0382,-5.16687 -2.69352,-9.6661 -7.21766,-11.88779 -3.13384,-1.53894 -7.66629,-1.64688 -10.70738,-0.25497 -3.51423,1.60845 -6.93453,5.94736 -7.65265,9.70792 -0.86676,4.539 3.91434,12.09069 8.73787,13.80137 2.80554,0.99499 7.26634,0.85197 9.75656,-0.31281 z"
       id="path108" /><path
       style="fill:#ffffff;stroke:none;stroke-width:0.981369"
       d="m 288.36458,173.70925 c -1.92601,-0.68737 -2.56729,-2.87357 -1.21843,-4.15378 0.94582,-0.89767 2.4621,-0.7628 3.42426,0.30459 0.55727,0.61822 0.75902,1.23134 0.71194,2.1636 -0.0618,1.22299 -0.53925,1.72258 -1.74961,1.83061 -0.44196,0.0394 -0.76294,-4e-4 -1.16816,-0.14502 z"
       id="path109" /><path
       style="fill:#ffffff;stroke:none;stroke-width:2.77573"
       d="m 239.30489,422.77235 c -1.69686,-1.18852 -23.68878,-32.77328 -25.9805,-37.31315 -0.87688,-1.7371 -4.16968,-10.3705 -8.87571,-23.27129 -2.62024,-7.18297 -5.49826,-13.33615 -7.27997,-15.56452 -2.8951,-3.62091 -5.05952,-4.33764 -20.00349,-6.62401 l -1.31716,-0.20153 10.42036,-8.80765 c 12.57311,-10.62723 19.02777,-15.88931 20.61399,-16.80529 0.66285,-0.38277 8.51783,12.11353 15.54031,24.72268 4.79958,8.61786 6.67653,12.55644 16.64145,34.92047 5.96031,13.3766 10.84056,23.22486 12.37984,24.98234 1.75488,2.00363 5.27263,4.25286 8.15697,5.21551 2.24173,0.74816 2.84801,0.81928 7.07796,0.83042 3.63143,0.01 5.07372,-0.10912 6.70731,-0.55175 3.2163,-0.87149 6.00052,-2.15865 9.26059,-4.28128 8.6966,-5.6623 26.29931,-19.67684 32.70876,-26.04138 6.91273,-6.86428 6.95876,-7.8283 2.06708,-43.29156 l -2.05001,-14.86204 -8.14018,-16.81459 c -4.47709,-9.24802 -11.42672,-23.39575 -15.44363,-31.43939 -7.06216,-14.14165 -7.36546,-14.68597 -9.18058,-16.4758 -3.35619,-3.30946 -8.32537,-5.19262 -13.73126,-5.20371 -3.17631,-0.007 -5.29343,0.50783 -7.27199,1.76668 -0.73871,0.47 -5.79491,4.55953 -11.23602,9.08785 -10.71495,8.91744 -13.79232,11.51083 -41.89085,35.30277 -32.80545,27.77746 -52.13642,43.72158 -53.00891,43.72158 -0.79636,0 -11.7606,-12.54847 -14.45136,-16.53943 -1.14672,-1.70084 -1.17108,-1.78685 -0.6662,-2.35236 0.28822,-0.32283 3.14307,-2.94129 6.34411,-5.81881 7.73693,-6.95497 9.95902,-9.11839 11.5481,-11.24323 1.64456,-2.19901 2.18132,-3.44833 2.18132,-5.07709 0,-1.67475 -0.44217,-2.86686 -2.00337,-5.40114 -0.71487,-1.16045 -1.37655,-2.58305 -1.47039,-3.16131 -0.18846,-1.16135 1.63314,-9.1574 2.44291,-10.72333 0.70064,-1.35489 2.41819,-3.15373 4.83318,-5.06193 l 2.16078,-1.70734 3.6593,3.74954 c 6.70608,6.87146 9.01202,8.71724 10.89049,8.71724 3.42412,0 6.60484,-2.53816 58.76681,-46.89474 l 22.7205,-19.32066 9.81224,0.5221 9.81224,0.52211 9.40167,-7.91315 c 14.17481,-11.93059 16.88738,-14.3105 20.20229,-17.72476 4.97518,-5.12428 6.82982,-8.41515 11.7319,-20.81701 4.83644,-12.23579 7.72118,-19.3829 9.90578,-24.54216 l 2.12243,-5.01243 2.41836,-2.17645 c 13.31959,-11.98724 67.5973,-57.796931 68.49031,-57.804939 1.36873,-0.01227 15.68074,16.009391 25.192,28.201319 3.52515,4.51869 6.78196,9.23833 6.78196,9.82814 0,0.62428 -13.08393,11.98583 -44.17289,38.35794 -8.78235,7.44989 -16.20059,13.74329 -16.48498,13.98536 -0.44345,0.37745 -0.97463,0.38985 -3.73082,0.0871 -1.76756,-0.19416 -4.06917,-0.49803 -5.11468,-0.67527 l -1.90093,-0.32227 0.17184,-1.23165 c 0.3732,-2.67483 6.27911,-18.88413 7.58236,-20.81045 0.28856,-0.42651 5.4941,-4.9849 11.56787,-10.12977 26.08084,-22.09209 28.10357,-23.95871 28.81149,-26.58772 0.41386,-1.53694 -0.0525,-4.10221 -1.05756,-5.8172 -0.41617,-0.71015 -1.50671,-1.82461 -2.43804,-2.49152 -2.024,-1.44935 -3.17334,-1.54802 -5.35693,-0.45989 -2.93261,1.46138 -26.41646,20.79077 -39.26356,32.31755 -3.30916,2.96908 -3.93392,3.683 -4.97504,5.68509 -1.52101,2.92494 -3.37523,7.48673 -5.72267,14.07901 -3.55898,9.99462 -14.9821,38.95466 -15.96951,40.48612 -0.2273,0.35254 -9.85443,7.86206 -21.39362,16.68783 -11.5392,8.82576 -21.04393,16.09984 -21.12164,16.16463 -0.0777,0.0648 0.0684,0.47951 0.32474,0.92164 l 0.46603,0.80385 -2.89012,2.99312 c -2.99865,3.1055 -4.14617,5.12175 -4.23325,7.43797 -0.0708,1.88349 6.28109,15.18917 28.28997,59.26061 l 15.87392,31.78658 6.30602,4.59828 c 4.51722,3.29391 6.26735,4.7332 6.16973,5.07392 -0.075,0.26159 -1.35804,5.31077 -2.85132,11.22039 -1.49327,5.90961 -3.25813,12.70743 -3.92192,15.10626 l -1.20688,4.36151 -19.60049,10.38714 c -22.91228,12.14217 -57.03892,30.30687 -68.54883,36.48672 -10.82806,5.81375 -11.20657,5.96358 -12.60001,4.98757 z M 177.00957,300.28902 c 1.65878,-0.75342 3.27663,-2.23179 4.24502,-3.87908 1.0741,-1.82708 1.1227,-4.61837 0.11386,-6.53876 -2.10828,-4.01324 -5.64755,-5.7848 -9.64322,-4.82685 -1.32524,0.31772 -1.91133,0.69565 -3.41414,2.20155 -2.8564,2.86225 -3.5328,5.77584 -2.0375,8.77651 1.92774,3.86847 7.09305,5.92124 10.73598,4.26663 z"
       id="path110" /><path
       style="fill:#ffffff;stroke:none;stroke-width:2.77573"
       d="m 361.27598,331.21204 c -3.86676,-2.662 -8.60812,-5.91447 -10.53636,-7.22772 l -3.50589,-2.38773 -11.58979,-23.13107 c -6.37438,-12.7221 -11.88629,-23.39796 -12.24869,-23.72414 -0.91938,-0.8275 -5.68331,-10.75552 -5.9454,-12.39019 -0.12723,-0.7936 -0.3606,-1.31268 -0.5704,-1.26876 -0.50595,0.10592 -9.14839,-17.26348 -8.8213,-17.72887 0.56788,-0.80799 26.19948,-20.39362 26.41074,-20.181 0.12508,0.12588 7.15173,16.9317 15.61478,37.34625 l 15.38736,37.11737 v 4.08792 c 0,2.80593 -0.1872,5.10682 -0.59694,7.33694 -0.32831,1.78697 -0.59693,3.39857 -0.59693,3.58134 0,0.33493 4.54636,1.44933 7.31241,1.79242 1.80365,0.22371 9.81232,1.66135 9.9403,1.78438 0.15212,0.14624 -12.62821,19.65532 -12.93632,19.74722 -0.15791,0.0471 -3.45081,-2.09237 -7.31757,-4.75436 z"
       id="path111" /><path
       style="fill:#ffffff;stroke:none;stroke-width:2.77573"
       d="m 61.263627,393.98096 c -1.376214,-1.21139 -3.912348,-4.71838 -4.240811,-5.86423 -0.198026,-0.69082 0.933645,-1.67967 40.104295,-35.04291 9.918559,-8.44805 20.797629,-17.7308 24.175709,-20.62835 l 6.14196,-5.26826 0.97113,1.08975 c 0.53413,0.59935 2.00367,2.34347 3.26566,3.87581 1.85111,2.24766 2.23545,2.88212 1.98886,3.28312 -1.05764,1.71989 -59.896022,51.69095 -69.38856,58.93126 -0.584939,0.44616 -1.199825,0.81119 -1.366414,0.81119 -0.166588,0 -0.909912,-0.53432 -1.651829,-1.18738 z"
       id="path112" /><path
       style="fill:#ffffff;stroke:none;stroke-width:2.77573"
       d="M 96.943427,484.34649 C 93.996874,481.01596 87.50207,473.523 82.510533,467.69547 70.458516,453.62494 62.298487,444.49434 58.292264,440.59664 47.392871,429.99249 44.533484,426.86869 28.223002,407.74673 19.453297,397.46536 17.762061,395.3384 18.099611,395.01517 c 3.242495,-3.105 9.136933,-7.60693 9.959851,-7.60693 0.778612,0 3.832166,1.83444 7.090939,4.25992 7.849369,5.84223 15.811356,13.46496 22.75493,21.78534 l 4.175497,5.00345 0.149232,6.94301 0.149233,6.94302 0.994293,2.01813 c 1.417201,2.87652 4.097788,6.35825 14.404489,18.70954 19.146787,22.94505 20.588056,25.03031 23.903465,34.58419 0.47699,1.37453 0.81146,2.55494 0.74325,2.62314 -0.0682,0.0682 -2.534813,-2.60097 -5.481363,-5.93149 z"
       id="path113" /></g></svg>
