<?xml version="1.0" encoding="UTF-8" standalone="no"?>
<!-- Created with Inkscape (http://www.inkscape.org/) -->

<svg
   version="1.1"
   id="svg1"
   width="500.86646"
   height="510.78525"
   viewBox="0 0 500.86646 510.78525"
   xml:space="preserve"
   xmlns="http://www.w3.org/2000/svg"
   xmlns:svg="http://www.w3.org/2000/svg"><defs
     id="defs1" /><g
     id="g1"
     transform="translate(-7.4229006,-1.581455)"><g
       style="fill:none;stroke:#231f20;stroke-width:2;stroke-linecap:round;stroke-linejoin:round;stroke-miterlimit:10"
       id="g7"
       transform="matrix(8.4057467,0,0,8.4057467,-11.130306,-12.012361)"><path
         d="M 22.96,47.1 H 22.95 L 7.71,31.09 V 31.08 L 33.01,7.01 48.26,23.04 Z"
         id="path1" /><path
         d="m 46.06,42.36 14.18,14.88 c 0.77,0.81 0.74,2.1 -0.07,2.88 l -0.74,0.71 c -0.81,0.77 -2.1,0.74 -2.88,-0.07 L 42.37,45.88"
         id="path2" /><path
         d="m 17.21,15.74 c -1.02,0.97 -1.06,2.58 -0.09,3.6 l 1.39,1.46 3.69,-3.51 -1.39,-1.46 c -0.97,-1.02 -2.58,-1.06 -3.6,-0.09 z"
         id="path3" /><path
         d="m 23.16,49.94 -1.12,1.07 C 21.32,51.7 20.18,51.67 19.5,50.95 L 3.7,34.34 C 3.01,33.62 3.04,32.48 3.76,31.8 l 1.12,-1.07 c 0.72,-0.69 1.86,-0.66 2.54,0.06 l 15.79,16.6 c 0.7,0.72 0.67,1.86 -0.05,2.55 z"
         id="path4" /><path
         d="m 52.2,22.32 -1.12,1.07 c -0.72,0.69 -1.86,0.66 -2.54,-0.06 L 32.73,6.72 C 32.05,6 32.08,4.86 32.8,4.18 l 1.12,-1.07 c 0.72,-0.69 1.86,-0.66 2.54,0.06 l 15.79,16.6 c 0.69,0.72 0.67,1.86 -0.05,2.55 z"
         id="path5" /><path
         d="m 45.8,42.67 -3.12,2.97 c -0.67,0.63 -1.72,0.61 -2.35,-0.06 l -7.49,-7.88 5.53,-5.26 7.49,7.88 c 0.64,0.66 0.61,1.72 -0.06,2.35 z"
         id="path6" /><path
         d="M 40.35,24.15 24.45,39.27 C 23.7,39.98 22.51,39.95 21.8,39.2 l -6.63,-6.97 c -0.71,-0.75 -0.68,-1.94 0.07,-2.65 l 15.9,-15.12 c 0.75,-0.71 1.94,-0.68 2.65,0.07 l 6.63,6.97 c 0.71,0.75 0.69,1.93 -0.07,2.65 z"
         id="path7" /></g><path
       style="fill:#ffffff;stroke:none;stroke-width:7.85095"
       d="M 157.40311,407.95383 C 155.12976,405.74839 124.39,373.55317 89.09253,336.4089 33.186136,277.57743 24.914553,268.54476 24.909428,266.32017 c -0.0047,-2.05802 1.18207,-3.7207 6.11448,-8.56618 6.264495,-6.15409 8.566442,-7.49628 11.153799,-6.50342 1.332825,0.51145 129.394983,134.52217 134.890723,141.15647 3.60572,4.35273 3.11713,5.82683 -4.33504,13.07889 -8.17856,7.95892 -9.4579,8.16487 -15.33028,2.4679 z"
       id="path31" /><path
       style="fill:#ffffff;stroke:none;stroke-width:7.85095"
       d="M 124.63415,310.88829 C 92.930578,277.56568 66.923692,250.05464 66.84107,249.75264 66.655592,249.07467 265.41768,59.906587 266.20026,60.016283 c 0.30972,0.04341 11.95967,12.116146 25.88878,26.828291 13.9291,14.712146 39.84475,41.991206 57.59033,60.620136 l 32.2647,33.87079 -65.18803,61.96113 c -35.85342,34.07863 -77.72422,73.86445 -93.04623,88.41294 -15.32201,14.54848 -30.91248,29.44733 -34.6455,33.10854 l -6.7873,6.65675 z m 70.19502,17.50083 c 2.61347,-1.38008 27.81104,-24.75271 72.8082,-67.53504 77.29946,-73.49468 73.84454,-69.68599 73.82841,-81.38792 -0.014,-10.12667 -0.49438,-10.77739 -34.02446,-46.08446 -34.5373,-36.367679 -35.03056,-36.759982 -46.10756,-36.670658 -5.15838,0.0416 -7.20201,0.472524 -10.60993,2.237254 -2.97243,1.539214 -24.74189,21.698244 -73.59786,68.153354 -54.86373,52.16764 -69.7863,66.79878 -71.33388,69.94082 -1.58139,3.21066 -1.95697,5.35033 -1.95697,11.14879 0,6.44204 0.2589,7.62094 2.53256,11.53185 2.52125,4.3368 58.26709,63.6844 62.95481,67.02236 6.67037,4.74971 18.21577,5.4937 25.50668,1.64365 z"
       id="path32" /><path
       style="fill:#ffffff;stroke:none;stroke-width:7.85095"
       d="m 151.39006,282.76071 c -15.94054,-16.73817 -29.32229,-31.31038 -29.73722,-32.38269 -0.41492,-1.07231 -0.51721,-2.89475 -0.22729,-4.04985 0.32518,-1.29563 12.41821,-13.40671 31.56727,-31.61436 17.07209,-16.23279 47.69931,-45.35454 68.06049,-64.71499 20.3947,-19.39231 37.95316,-35.43494 39.09746,-35.72214 1.14242,-0.28673 2.80923,-0.18916 3.70402,0.21682 0.89479,0.40599 14.73638,14.5358 30.75909,31.39959 26.85034,28.25979 29.1322,30.89205 29.1322,33.60561 0,2.32631 -0.75294,3.71298 -3.58779,6.60752 -3.52026,3.59437 -121.03851,115.21041 -129.58592,123.07762 -7.8783,7.25135 -5.73788,8.69477 -39.18231,-26.42313 z"
       id="path33" /><path
       style="fill:#ffffff;stroke:none;stroke-width:7.85095"
       d="m 140.34874,145.34128 c -5.72456,-6.12001 -6.15582,-12.42885 -1.21254,-17.73806 5.94438,-6.38442 14.62263,-5.44508 20.7107,2.24173 l 2.5983,3.28062 -8.29314,8.14785 c -4.56122,4.48132 -8.67425,8.14785 -9.14005,8.14785 -0.46581,0 -2.56428,-1.83599 -4.66327,-4.07999 z"
       id="path34" /><path
       style="fill:#ffffff;stroke:none;stroke-width:7.85095"
       d="m 401.00679,175.38005 c -2.46237,-2.43759 -30.79766,-32.16356 -62.96729,-66.05771 -32.16963,-33.894145 -60.8922,-64.153004 -63.82794,-67.241908 -7.22585,-7.602859 -7.17564,-8.660088 0.78267,-16.478135 6.71354,-6.595223 8.84083,-7.676401 11.84576,-6.020525 1.09873,0.605458 32.26527,32.926889 69.25898,71.825401 71.89437,75.596197 69.5944,72.895737 65.78396,77.238857 -0.81253,0.92612 -3.8483,3.81733 -6.74616,6.42493 -6.78036,6.10119 -8.2466,6.13326 -14.12998,0.30909 z"
       id="path35" /><path
       style="fill:#ffffff;stroke:none;stroke-width:7.85095"
       d="m 307.02783,336.19786 c -15.77219,-16.59885 -28.62475,-30.5593 -28.56125,-31.02323 0.13644,-0.99688 31.71859,-31.23564 32.62331,-31.23564 0.34058,0 13.58444,13.65753 29.43079,30.35007 20.01772,21.08665 28.81155,30.91988 28.81155,32.21695 0,1.27074 -3.03266,4.80375 -9.49711,11.06401 -17.62767,17.07085 -19.65504,18.80756 -21.9553,18.80756 -1.76225,0 -7.62023,-5.73033 -30.85199,-30.17972 z"
       id="path36" /><path
       style="fill:#ffffff;stroke:none;stroke-width:7.85095"
       d="m 473.34027,494.0597 c -2.95178,-1.56624 -115.22563,-119.00477 -114.80656,-120.08774 0.3796,-0.98096 17.57599,-17.1489 17.8495,-16.782 0.21723,0.2914 94.78803,99.77961 108.75513,114.41009 4.96987,5.20591 5.75696,6.45356 5.75696,9.12555 0,2.57292 -0.74781,3.88995 -4.43199,7.80552 -2.43759,2.59069 -5.65441,5.22714 -7.14848,5.85878 -3.30483,1.39716 -2.65101,1.4333 -5.97456,-0.3302 z"
       id="path37" /></g></svg>
