<?xml version="1.0" encoding="UTF-8" standalone="no"?>
<!-- Created with Inkscape (http://www.inkscape.org/) -->

<svg
   width="512"
   height="512"
   viewBox="0 0 135.46667 135.46667"
   version="1.1"
   id="svg1"
   xml:space="preserve"
   xmlns="http://www.w3.org/2000/svg"
   xmlns:svg="http://www.w3.org/2000/svg"><defs
     id="defs1" /><path
     id="path56"
     style="fill:#ffffff;stroke-width:1.49459"
     d="M 70.243259,0.7896159 A 58.650146,57.200001 0 0 0 11.593091,57.989743 58.650146,57.200001 0 0 0 70.243259,115.18987 58.650146,57.200001 0 0 0 128.89343,57.989743 58.650146,57.200001 0 0 0 70.243259,0.7896159 Z M 69.576117,31.605307 A 27.026327,25.51866 0 0 1 96.602375,57.123646 27.026327,25.51866 0 0 1 69.576117,82.642503 27.026327,25.51866 0 0 1 42.549859,57.123646 27.026327,25.51866 0 0 1 69.576117,31.605307 Z" /><g
     id="g55"
     transform="matrix(0.2544616,0,0,0.2544616,8.3806739,4.529819)"><path
       d="m 16,480 c -4.421875,0 -8,-3.57422 -8,-8 V 320 c 0,-4.42578 3.578125,-8 8,-8 4.425781,0 8,3.57422 8,8 v 152 c 0,4.42578 -3.574219,8 -8,8 z m 0,0"
       id="path1" /><path
       d="m 48,480 c -4.421875,0 -8,-3.57422 -8,-8 V 320 c 0,-4.42578 3.578125,-8 8,-8 4.425781,0 8,3.57422 8,8 v 152 c 0,4.42578 -3.574219,8 -8,8 z m 0,0"
       id="path2" /><path
       d="M 48,512 H 16 c -3.671875,0 -6.863281,-2.50391 -7.757812,-6.0625 l -8,-32 C -0.359375,471.54297 0.175781,469.01562 1.695312,467.07812 3.207031,465.13672 5.535156,464 8,464 h 48 c 2.464844,0 4.792969,1.13672 6.304688,3.07812 1.511718,1.9375 2.054687,4.47266 1.457031,6.85938 l -8,32 C 54.863281,509.50391 51.671875,512 48,512 Z M 22.25,496 h 19.503906 l 4,-16 H 18.25 Z m 0,0"
       id="path3" /><path
       d="m 16,456 c -2.046875,0 -4.09375,-0.78516 -5.65625,-2.34375 -3.128906,-3.12891 -3.128906,-8.18359 0,-11.3125 l 16,-16 c 3.128906,-3.12891 8.183594,-3.12891 11.3125,0 3.128906,3.12891 3.128906,8.18359 0,11.3125 l -16,16 C 20.097656,455.21484 18.046875,456 16,456 Z m 0,0"
       id="path4" /><path
       d="m 48,456 c -2.046875,0 -4.09375,-0.78516 -5.65625,-2.34375 l -16,-16 c -3.128906,-3.12891 -3.128906,-8.18359 0,-11.3125 3.128906,-3.12891 8.183594,-3.12891 11.3125,0 l 16,16 c 3.128906,3.12891 3.128906,8.18359 0,11.3125 C 52.097656,455.21484 50.046875,456 48,456 Z m 0,0"
       id="path5" /><path
       d="m 16,416 c -2.046875,0 -4.09375,-0.78516 -5.65625,-2.34375 -3.128906,-3.12891 -3.128906,-8.18359 0,-11.3125 l 16,-16 c 3.128906,-3.12891 8.183594,-3.12891 11.3125,0 3.128906,3.12891 3.128906,8.18359 0,11.3125 l -16,16 C 20.097656,415.21484 18.046875,416 16,416 Z m 0,0"
       id="path6" /><path
       d="m 48,416 c -2.046875,0 -4.09375,-0.78516 -5.65625,-2.34375 l -16,-16 c -3.128906,-3.12891 -3.128906,-8.18359 0,-11.3125 3.128906,-3.12891 8.183594,-3.12891 11.3125,0 l 16,16 c 3.128906,3.12891 3.128906,8.18359 0,11.3125 C 52.097656,415.21484 50.046875,416 48,416 Z m 0,0"
       id="path7" /><path
       d="m 16,376 c -2.046875,0 -4.09375,-0.78516 -5.65625,-2.34375 -3.128906,-3.12891 -3.128906,-8.18359 0,-11.3125 l 16,-16 c 3.128906,-3.12891 8.183594,-3.12891 11.3125,0 3.128906,3.12891 3.128906,8.18359 0,11.3125 l -16,16 C 20.097656,375.21484 18.046875,376 16,376 Z m 0,0"
       id="path8" /><path
       d="m 48,376 c -2.046875,0 -4.09375,-0.78516 -5.65625,-2.34375 l -16,-16 c -3.128906,-3.12891 -3.128906,-8.18359 0,-11.3125 3.128906,-3.12891 8.183594,-3.12891 11.3125,0 l 16,16 c 3.128906,3.12891 3.128906,8.18359 0,11.3125 C 52.097656,375.21484 50.046875,376 48,376 Z m 0,0"
       id="path9" /><path
       d="M 56,328 H 8 c -4.421875,0 -8,-3.57422 -8,-8 0,-4.42578 3.578125,-8 8,-8 h 48 c 4.425781,0 8,3.57422 8,8 0,4.42578 -3.574219,8 -8,8 z m 0,0"
       id="path10" /><path
       d="m 448,224 c -4.42188,0 -8,-3.57422 -8,-8 C 440,105.71875 350.28125,16 240,16 129.71875,16 40,105.71875 40,216 c 0,4.42578 -3.574219,8 -8,8 -4.421875,0 -8,-3.57422 -8,-8 C 24,96.894531 120.89844,0 240,0 c 119.10547,0 216,96.894531 216,216 0,4.42578 -3.57422,8 -8,8 z m 0,0"
       id="path11" /><path
       d="M 256,416 C 145.71875,416 56,326.28125 56,216 c 0,-4.42578 3.578125,-8 8,-8 4.425781,0 8,3.57422 8,8 0,101.46484 82.53516,184 184,184 101.46484,0 184,-82.53516 184,-184 0,-4.42578 3.57812,-8 8,-8 4.42578,0 8,3.57422 8,8 0,110.28125 -89.71875,200 -200,200 z m 0,0"
       id="path12" /><path
       d="m 416,224 c -4.42188,0 -8,-3.57422 -8,-8 C 408,123.36719 332.63281,48 240,48 147.36719,48 72,123.36719 72,216 c 0,4.42578 -3.574219,8 -8,8 -4.421875,0 -8,-3.57422 -8,-8 0,-101.46484 82.53516,-184 184,-184 101.46484,0 184,82.53516 184,184 0,4.42578 -3.57422,8 -8,8 z m 0,0"
       id="path13" /><path
       d="M 256,384 C 163.36719,384 88,308.63281 88,216 c 0,-4.42578 3.578125,-8 8,-8 4.42578,0 8,3.57422 8,8 0,83.81641 68.18359,152 152,152 83.81641,0 152,-68.18359 152,-152 0,-4.42578 3.57812,-8 8,-8 4.42578,0 8,3.57422 8,8 0,92.63281 -75.36719,168 -168,168 z m 0,0"
       id="path14" /><path
       d="m 32,328 c -4.421875,0 -8,-3.57422 -8,-8 V 216 c 0,-4.42578 3.578125,-8 8,-8 4.425781,0 8,3.57422 8,8 v 104 c 0,4.42578 -3.574219,8 -8,8 z m 0,0"
       id="path15" /><path
       d="m 384,224 c -4.42188,0 -8,-3.57422 -8,-8 0,-74.99219 -61.00781,-136 -136,-136 -74.99219,0 -136,61.00781 -136,136 0,4.42578 -3.57422,8 -8,8 -4.421875,0 -8,-3.57422 -8,-8 0,-83.81641 68.18359,-152 152,-152 83.81641,0 152,68.18359 152,152 0,4.42578 -3.57422,8 -8,8 z m 0,0"
       id="path16" /><path
       d="m 256,352 c -4.42188,0 -8,-3.57422 -8,-8 0,-4.42578 3.57812,-8 8,-8 66.16797,0 120,-53.83203 120,-120 0,-4.42578 3.57812,-8 8,-8 4.42578,0 8,3.57422 8,8 0,74.99219 -61.00781,136 -136,136 z m 0,0"
       id="path17" /><path
       d="m 256,352 c -2.04688,0 -4.09375,-0.78516 -5.65625,-2.34375 l -24,-24 c -3.12891,-3.12891 -3.12891,-8.18359 0,-11.3125 3.12891,-3.12891 8.18359,-3.12891 11.3125,0 l 24,24 c 3.12891,3.12891 3.12891,8.18359 0,11.3125 C 260.09766,351.21484 258.04687,352 256,352 Z m 0,0"
       id="path18" /><path
       d="m 256,352 h -32 c -4.42188,0 -8,-3.57422 -8,-8 0,-4.42578 3.57812,-8 8,-8 h 32 c 4.42578,0 8,3.57422 8,8 0,4.42578 -3.57422,8 -8,8 z m 0,0"
       id="path19" /></g><path
     style="fill:#ffffff;stroke:none;stroke-width:0.890942"
     d="m 13.646132,128.72434 -0.484417,-1.93352 h 3.375539 c 3.138974,0 3.369727,0.0197 3.292606,0.28198 -0.04562,0.15508 -0.199903,0.75326 -0.342867,1.32929 -0.142963,0.57603 -0.330846,1.31922 -0.417516,1.65155 l -0.157581,0.60422 H 16.521223 14.13055 Z"
     id="path57" /><path
     style="fill:#ffffff;stroke:none;stroke-width:0.890942"
     d="m 14.573893,121.02549 v -1.57602 l 0.966761,-0.95668 0.966761,-0.95667 0.966761,0.95667 0.966761,0.95668 v 1.57602 1.57604 h -1.933522 -1.933522 z"
     id="path58" /><path
     style="fill:#ffffff;stroke:none;stroke-width:0.890942"
     d="m 14.573893,111.2949 v -1.97766 l 1.00238,-1.01137 1.002379,-1.01137 0.931142,0.92143 0.931143,0.92142 v 2.0875 2.0875 l -0.377017,-0.35419 c -0.813769,-0.7645 -2.011334,-0.79637 -2.966364,-0.079 l -0.523663,0.39337 z"
     id="path59" /><path
     style="fill:#ffffff;stroke:none;stroke-width:0.890942"
     d="m 14.573893,101.0601 v -2.073732 l 0.966761,-0.956674 0.966761,-0.956672 0.966761,0.956672 0.966761,0.956674 v 2.073732 2.07374 l -0.479521,-0.40349 c -0.886758,-0.74616 -2.021244,-0.74616 -2.908002,0 l -0.479521,0.40349 z"
     id="path60" /><path
     style="fill:#ffffff;stroke:none;stroke-width:0.890942"
     d="m 14.573893,90.565386 v -2.444988 h 1.933522 1.933522 v 2.444988 2.444989 L 18.078401,92.68017 c -1.029093,-0.937322 -2.112879,-0.937322 -3.141972,0 l -0.362536,0.330205 z"
     id="path61" /></svg>
