<?xml version="1.0" encoding="UTF-8" standalone="no"?>
<!-- Created with Inkscape (http://www.inkscape.org/) -->

<svg
   width="512"
   height="512"
   viewBox="0 0 135.46667 135.46667"
   version="1.1"
   id="svg1"
   xml:space="preserve"
   xmlns="http://www.w3.org/2000/svg"
   xmlns:svg="http://www.w3.org/2000/svg"><defs
     id="defs1" /><path
     style="fill:#ffffff;stroke:none;stroke-width:1.47505;stroke-dasharray:none"
     d="m 105.02878,2.6849462 22.42719,-0.1579381 0.47382,130.1409219 -23.21689,0.15793 z"
     id="path157" /><path
     id="path145"
     style="fill:#000000;stroke-width:0.640166"
     d="m 104.76053,1.1275798 c -0.38305,0.0034 -0.77561,0.1534247 -1.09347,0.4712891 -0.32405,0.3240912 -0.33486,0.5964168 -0.33486,8.8030801 0,4.657876 -0.0427,8.468734 -0.0951,8.468734 -0.0524,0 -0.47284,-0.123295 -0.93482,-0.274402 -1.82998,-0.598556 -3.771609,0.05126 -5.56814,1.864486 -1.1819,1.192889 -1.982075,2.27177 -2.841171,3.830257 -1.083469,1.965523 -1.219783,2.090921 -2.954858,2.711463 -2.177303,0.778705 -6.488563,2.538083 -10.731645,4.380094 -4.39448,1.907727 -4.479023,1.921323 -11.765691,1.868103 -9.485676,-0.06928 -9.981573,-0.05803 -11.517643,0.262 -0.79184,0.164976 -1.820894,0.443946 -2.286682,0.620117 -0.779456,0.294805 -1.439706,0.412384 -1.439706,0.256315 0,-0.03532 0.18619,-0.47325 0.413928,-0.973584 0.557188,-1.224126 1.181668,-3.440958 1.520321,-5.39812 0.603048,-3.485184 0.519769,-8.41726 -0.175183,-10.386963 -0.426733,-1.209492 0.137703,-0.415868 1.117761,1.571997 0.81457,1.652209 0.954991,1.847835 1.143083,1.590601 0.283057,-0.387103 0.271589,-1.463008 -0.03101,-2.885096 C 56.337941,13.923856 54.487272,11.057077 51.957037,9.8087039 51.26394,9.4667441 50.344979,9.1624137 49.820216,9.1007367 49.137784,9.0205324 48.660355,8.8247014 47.975884,8.3452273 46.238022,7.1278512 42.942501,6.1663791 40.513807,6.1680991 c -1.35454,9.7e-4 -3.777857,0.4263176 -5.32784,0.9353435 -0.72998,0.2397315 -2.886345,1.0773544 -4.791956,1.8613851 -3.598329,1.4804693 -6.142442,2.3652493 -7.363892,2.5605673 -0.664047,0.106186 -0.690246,0.129936 -0.38964,0.358634 0.499474,0.379998 1.75227,0.892282 2.778642,1.136365 l 0.931209,0.221692 -1.453658,0.691948 c -0.799619,0.380649 -2.161238,0.864568 -3.025655,1.075386 l -1.57148,0.383439 0.652156,0.564307 c 0.764632,0.660973 2.534958,1.541001 3.372404,1.6769 0.322564,0.05234 0.586528,0.152569 0.586528,0.222209 0,0.524245 -5.485458,3.896218 -7.720459,4.745964 l -0.460437,0.175183 0.575675,0.427364 c 1.631679,1.211065 3.926118,1.926946 6.674011,2.082043 l 1.862936,0.104903 -1.422136,1.054716 c -0.782086,0.580064 -2.001476,1.342443 -2.709912,1.693954 -0.708432,0.351511 -1.32086,0.658912 -1.36064,0.683162 -0.129108,0.07871 0.55884,0.526248 1.512052,0.98392 1.238891,0.594834 3.042112,0.955184 4.446757,0.888834 0.629022,-0.02972 1.143292,-0.003 1.143083,0.05891 -8.03e-4,0.236894 -1.58993,1.498263 -2.13682,1.696021 -0.315418,0.114058 -0.573609,0.257374 -0.573609,0.318844 0,0.200788 1.925731,1.139147 2.879411,1.403015 1.407199,0.389359 2.508326,0.479728 3.726388,0.306441 0.605523,-0.08614 1.127556,-0.132456 1.160136,-0.102836 0.137245,0.124765 -0.368841,1.288596 -0.848528,1.950785 l -0.518314,0.715202 0.867647,-0.115238 c 0.992388,-0.131645 3.085886,-0.732415 4.350122,-1.248503 l 0.86093,-0.3514 0.494026,0.393775 c 0.477481,0.380489 0.495798,0.449735 0.551388,2.08101 0.0563,1.651932 0.04944,1.689252 -0.338481,1.775602 -1.792136,0.398895 -6.680197,1.952817 -7.578865,2.409672 -1.253746,0.637363 -2.076555,1.277478 -6.190837,4.816244 -4.14023,3.561083 -7.749555,6.853843 -9.431466,8.603609 -1.247186,1.297504 -1.604167,1.807944 -2.41484,3.453536 -0.523144,1.061933 -1.60308,3.836061 -2.3998533,6.164999 C 5.876109,76.816904 6.1812949,76.02592 4.5728476,78.85927 c -1.9919825,3.508952 -2.798549,5.370728 -3.0210043,6.970118 -0.3043424,2.188138 0.2847236,5.340521 1.2671062,6.778397 0.5150376,0.753827 1.8664643,1.462527 2.7941447,1.465027 1.683481,0.0046 3.4116002,-1.085409 4.5614788,-2.877344 0.299043,-0.466031 0.572071,-0.847493 0.606681,-0.847493 0.03461,0 0.31252,0.151997 0.617534,0.337964 0.379468,0.231307 0.853996,0.338567 1.503267,0.338997 1.262827,8.48e-4 1.972886,-0.470413 2.429826,-1.612821 0.300201,-0.750557 0.337565,-1.2497 0.341065,-4.568714 0.0035,-3.31315 -0.03728,-3.87512 -0.365353,-5.065324 l -0.36897,-1.338419 0.520382,-1.032496 c 0.285986,-0.56797 1.069432,-1.947553 1.741496,-3.065446 2.133748,-3.549202 2.821109,-4.833576 4.349089,-8.129736 1.65247,-3.564716 1.803386,-3.756576 4.038513,-5.122685 1.800467,-1.100443 6.111893,-3.771892 6.554122,-4.061251 0.355624,-0.232692 0.390872,-0.20439 0.824756,0.659391 0.519604,1.03443 1.520361,2.487948 3.936194,5.717481 2.573861,3.440795 3.782322,5.730773 4.102075,7.772136 0.08295,0.529589 0.234339,1.953619 0.336414,3.164664 0.314781,3.734861 0.930574,6.740253 1.595768,7.791256 0.117921,0.186325 0.268553,0.75279 0.334863,1.258838 0.189507,1.446308 1.017204,3.803507 1.805058,5.140255 1.01301,1.718762 3.448209,4.10975 4.985742,4.894792 1.359024,0.693894 3.438701,1.396254 4.900993,1.655196 1.374635,0.243449 4.846446,0.213216 6.228044,-0.05426 l 1.135848,-0.220142 2.844788,1.598352 c 1.564561,0.878941 3.663903,2.010238 4.665348,2.514059 1.001442,0.50381 1.820561,0.952652 1.820561,0.997872 0,0.04522 -1.159014,0.663326 -2.57607,1.373046 -2.106107,1.0548 -2.995487,1.39552 -4.869987,1.86655 -3.568723,0.89675 -4.410212,1.43183 -4.739246,3.01377 -0.08903,0.42803 -0.250132,0.5465 -1.19941,0.88212 -1.353667,0.4786 -1.474141,0.4822 -2.441195,0.0677 -0.704465,-0.30197 -3.951274,-1.06658 -5.559351,-1.30896 -1.338058,-0.2017 -2.817703,0.81905 -3.924308,2.70733 -0.254362,0.43403 -1.140953,2.47347 -1.970422,4.53202 -0.829469,2.05856 -1.918881,4.44264 -2.421041,5.29787 -1.879319,3.20061 -2.966669,5.69126 -3.399793,7.78815 -0.526435,2.54862 -0.20294,4.17754 1.115694,5.62033 0.968574,1.05979 1.892816,1.48708 3.204973,1.48208 1.892817,-0.007 2.866287,-0.80876 5.90765,-4.8643 2.379761,-3.1733 3.565363,-4.36989 6.582027,-6.64507 1.084644,-0.81805 2.316329,-1.83694 2.737301,-2.26395 0.612754,-0.62155 1.121731,-0.91536 2.551265,-1.47329 0.982116,-0.3833 2.103108,-0.76805 2.491321,-0.85525 0.647875,-0.14557 0.765148,-0.11527 1.42782,0.37207 0.639462,0.47024 0.851664,0.53124 1.856217,0.53124 1.020888,0 1.215716,-0.0585 1.952336,-0.58291 1.817122,-1.29368 2.080596,-1.40759 4.906677,-2.12701 7.359365,-1.87342 17.256588,-5.21868 19.535759,-6.60321 1.070928,-0.65056 2.517755,-2.09583 2.965711,-2.96209 1.33547,-2.58252 1.439122,-5.986034 0.253214,-8.310608 -1.320049,-2.5875 -9.91507,-10.155167 -16.729211,-14.729334 -0.373492,-0.250719 -0.358283,-0.272039 1.178739,-1.609204 0.856653,-0.745259 2.196548,-1.945564 2.977596,-2.667538 0.781048,-0.721963 1.480971,-1.313098 1.555461,-1.313098 0.07448,0 0.349884,0.324007 0.611849,0.719853 0.816814,1.234291 2.128999,2.490437 3.629752,3.474206 2.263528,1.483805 3.881739,2.717358 5.203817,3.968234 0.940134,0.889488 1.333517,1.153418 1.719275,1.153418 0.430038,0 0.74466,0.286286 2.24069,2.039668 2.388293,2.799148 2.671873,3.2144 2.963123,4.332553 0.37682,1.446751 0.86868,2.473179 1.38855,2.899047 l 0.4625,0.378789 0.0868,19.099614 c 0.0479,10.50475 0.10522,19.12245 0.12712,19.15025 0.0219,0.0278 0.28739,0.15831 0.59015,0.2899 h 0.001 c 0.67995,0.29546 0.84774,0.30257 1.38131,0.0594 0.99141,-0.45171 0.95696,0.23125 0.90796,-17.92087 -0.0397,-14.71359 -0.0157,-16.59977 0.20929,-16.50287 1.15133,0.49574 1.76323,0.62794 2.90783,0.62994 1.11729,0.002 1.45024,-0.0727 2.38384,-0.53227 0.68895,-0.33916 1.43628,-0.902411 2.04638,-1.542025 l 0.96118,-1.00769 V 115.84252 133.859 l 0.40566,0.47129 c 0.53335,0.6201 1.60204,0.66443 2.17661,0.0899 l 0.38189,-0.3824 0.0445,-20.98735 0.0439,-20.987354 0.78652,-1.323434 c 1.54183,-2.595122 2.82116,-5.662959 3.48195,-8.350395 0.45905,-1.867 0.50004,-4.694289 0.0822,-5.648751 -0.6674,-1.524374 -2.0757,-2.649525 -3.6344,-2.903698 l -0.71986,-0.117306 V 38.067445 2.4153565 L 117.40472,1.9202963 C 116.81185,1.3274235 115.94486,1.2553915 115.3356,1.7487305 l -0.39998,0.3240113 -0.0434,36.7636482 -0.0434,36.763648 -1.44849,1.447974 c -0.79645,0.79645 -2.17571,2.033457 -3.06493,2.74867 l -1.61644,1.300179 -0.28887,-0.382923 c -0.1589,-0.210654 -0.68772,-1.089538 -1.17513,-1.953369 l -0.88625,-1.570963 0.004,-37.151739 c 0.003,-25.152756 -0.052,-37.3624406 -0.17105,-37.8044115 -0.1913,-0.7104397 -0.80283,-1.1115445 -1.44126,-1.1058757 z m 23.21616,0.2955892 c -0.42888,-0.054288 -0.8925,0.1064958 -1.28261,0.4966105 l -0.49506,0.495577 0.002,65.6042655 c 0.002,52.281918 0.0456,65.689608 0.21497,66.024398 0.11692,0.23105 0.40148,0.51902 0.63252,0.63975 h 5.2e-4 c 0.57324,0.29943 1.35833,0.13005 1.81746,-0.39171 l 0.38085,-0.43304 V 68.223744 c 0,-49.575825 -0.0481,-65.7258332 -0.19689,-66.0052747 -0.251,-0.4712669 -0.64495,-0.7410121 -1.07383,-0.7953003 z M 49.312237,14.975314 c 0.259104,0 1.361708,1.588465 1.939933,2.794661 1.733109,3.615326 1.884441,8.432463 0.409277,13.042099 -0.840923,2.627745 -1.897439,3.933311 -3.694348,4.566129 -1.438751,0.506684 -3.960305,0.241267 -5.982581,-0.629936 -1.594163,-0.686772 -4.417706,-2.906511 -4.849833,-3.812687 l -0.280086,-0.586527 -0.991671,0.08992 c -0.54557,0.04947 -1.232323,0.0096 -1.526005,-0.08837 -0.747731,-0.249543 -1.590436,-0.909363 -1.882056,-1.473295 l -0.246496,-0.476974 1.195276,-0.626318 c 0.657514,-0.34444 1.214537,-0.602065 1.238167,-0.572575 0.02363,0.0295 0.245636,0.404212 0.492993,0.833024 0.621104,1.076726 0.910689,1.299278 2.30942,1.772502 0.670177,0.226737 1.242557,0.411861 1.271757,0.411861 0.0292,0 -0.09238,-0.301028 -0.270268,-0.66921 -0.416459,-0.861974 -0.812776,-2.373295 -0.944645,-3.603914 l -0.10387,-0.971 1.590601,-1.660881 c 1.691607,-1.766339 2.885167,-3.387696 4.247803,-5.769157 l 0.840259,-1.468644 -0.08682,1.439705 c -0.04774,0.79184 -0.210312,2.038659 -0.361735,2.770374 -0.151429,0.731715 -0.251805,1.353281 -0.222725,1.381311 0.02907,0.02803 0.532616,-0.167367 1.118795,-0.434082 2.070021,-0.94187 4.151489,-3.525031 4.530989,-5.622913 0.06319,-0.349341 0.179346,-0.635103 0.257866,-0.635103 z m 51.397893,6.152079 c 0.9174,-0.115561 1.5167,0.543005 1.49707,1.90221 -0.0142,0.984674 -0.20938,1.338584 -1.67225,3.039607 -0.4807,0.558946 -1.382541,1.702514 -2.004011,2.540931 -1.988663,2.682874 -1.931851,2.634112 -5.562451,4.786271 -7.900123,4.683064 -12.134929,6.930969 -13.943852,7.402132 -1.288563,0.335629 -5.788307,0.844624 -11.345561,1.283643 -3.06733,0.242317 -4.517473,0.422897 -4.779037,0.594279 -0.206523,0.135319 -0.435346,0.241995 -0.508496,0.237195 -0.142997,-0.0094 -6.320388,-6.309332 -6.252848,-6.376872 0.02227,-0.02227 0.531714,-0.171038 1.13223,-0.330213 1.154007,-0.305889 0.967,-0.301829 11.508342,-0.242879 7.640924,0.04273 7.44741,0.08217 14.566553,-2.952274 3.677074,-1.567305 8.297181,-3.402378 9.787,-3.887102 1.229169,-0.399918 1.816015,-0.9478 2.52491,-2.357995 0.976759,-1.943051 2.222453,-3.770016 3.122291,-4.579049 0.714882,-0.642741 1.37968,-0.990547 1.93011,-1.059884 z m 2.60863,5.958293 0.007,22.230685 c 0.004,12.226924 -0.0505,22.229718 -0.12041,22.228618 -0.0699,-0.0011 -1.99438,-2.82817 -4.276742,-6.282304 -3.288898,-4.977454 -4.382105,-6.500387 -5.269963,-7.341154 -2.609068,-2.470685 -5.477616,-3.037691 -9.042342,-1.788005 -2.896562,1.01545 -11.128472,5.248964 -15.413013,7.926648 l -0.846977,0.529167 -1.488798,-1.525489 -1.488282,-1.525488 -0.329695,-2.321305 c -0.436627,-3.073667 -0.425005,-3.370702 0.198437,-5.087028 0.480826,-1.323688 0.534974,-1.668978 0.550354,-3.501079 0.01726,-2.056794 -0.264125,-3.406045 -1.012341,-4.852934 -0.132466,-0.256176 -0.240812,-0.531655 -0.240812,-0.612365 0,-0.08071 1.238477,-0.241364 2.752287,-0.357085 4.351368,-0.332626 9.390734,-0.842276 11.062891,-1.118794 2.064815,-0.341451 3.12093,-0.72762 5.736084,-2.096513 3.816139,-1.997545 13.535299,-7.641584 14.131954,-8.206735 0.31356,-0.296996 1.354405,-1.569076 2.312518,-2.826701 0.95811,-1.257626 1.97487,-2.553358 2.25981,-2.87941 z m -52.10173,9.738941 c 0.401578,0 2.371296,2.241573 2.989999,3.402376 1.078704,2.023858 0.671106,3.535771 -1.210263,4.489132 -0.471091,0.238721 -1.361989,0.541375 -1.979724,0.67231 -2.165327,0.458964 -4.999728,0.201665 -7.093107,-0.643888 -0.987982,-0.399063 -4.620205,-2.621865 -4.611605,-2.82205 0.0024,-0.05573 0.301023,-0.23762 0.663525,-0.404627 0.831822,-0.383227 1.025778,-0.907374 1.025778,-2.770373 0,-0.777938 0.04035,-1.414384 0.08992,-1.414384 0.04957,0 0.347627,0.107186 0.662492,0.238745 2.695073,1.126074 6.84585,0.935111 8.722982,-0.401526 0.26696,-0.190093 0.600084,-0.345715 0.740006,-0.345715 z m -15.591297,6.359818 0.810287,0.881083 c 1.100005,1.196305 2.303476,3.168961 2.840653,4.656047 0.385269,1.066517 0.445185,1.501428 0.449585,3.273702 0.005,1.944167 -0.02005,2.092661 -0.505395,3.042192 -0.639939,1.251983 -1.610707,1.990847 -2.645317,2.012797 -0.621243,0.01317 -0.752015,-0.05062 -1.011308,-0.492993 -0.163813,-0.279472 -0.346546,-0.706105 -0.406176,-0.948263 -0.09295,-0.377466 -0.03378,-0.471626 0.417028,-0.658358 0.641013,-0.265516 1.192176,-0.932109 1.192176,-1.442289 0,-0.207768 -0.158323,-0.578265 -0.3514,-0.823722 -0.818159,-1.040122 -1.987097,-0.554608 -7.948352,3.30109 -2.096044,1.355706 -4.344493,2.795869 -4.996595,3.200839 -2.19505,1.363179 -2.44812,1.625632 -3.261299,3.377571 -0.412299,0.888272 -1.366592,2.891544 -2.120284,4.451925 -0.753691,1.560395 -1.413628,2.826002 -1.466578,2.812232 -0.05296,-0.01381 -0.528393,-0.249221 -1.056783,-0.522966 -0.52839,-0.273745 -1.613524,-0.624343 -2.411222,-0.779281 -1.313057,-0.255034 -1.440592,-0.313942 -1.349272,-0.620633 0.395339,-1.327786 2.418393,-6.70054 2.965711,-7.876006 0.602304,-1.293555 0.880225,-1.646222 2.7373,-3.473173 2.999904,-2.95124 10.868432,-9.84511 13.08344,-11.462866 0.968117,-0.707077 1.975582,-1.130388 3.783748,-1.590601 z m 52.739418,14.991334 c 1.295282,0.06766 2.361593,0.651419 3.480408,1.814359 0.603486,0.627286 1.239342,1.369005 1.412834,1.648478 0.173497,0.279466 2.004867,3.061274 4.070036,6.182052 5.216631,7.883125 5.267701,8.000984 4.221961,9.734807 -0.94814,1.572 -2.352121,3.439813 -3.631817,4.831746 l -1.167887,1.270207 -0.731738,-0.690397 C 95.091053,82.09147 93.540132,80.900868 91.424913,79.440114 90.511848,78.809556 89.492977,78.021321 89.160451,77.6888 c -0.96464,-0.964641 -2.191038,-2.969314 -3.615283,-5.910234 -0.765142,-1.579943 -1.488087,-2.848228 -1.714107,-3.006535 -0.562137,-0.393732 -1.113752,-0.337832 -1.614889,0.163298 -0.381027,0.381019 -0.423886,0.532734 -0.334346,1.185974 0.05647,0.411987 0.375581,1.454113 0.709,2.315621 0.333422,0.861508 0.645605,1.688689 0.694015,1.838647 0.104768,0.324531 -2.872095,3.148984 -8.636166,8.194333 -7.490903,6.556876 -10.852215,8.943496 -13.818278,9.81077 -0.634501,0.185565 -1.527992,0.26184 -2.879411,0.24598 -2.223745,-0.02617 -2.340258,-0.0403 -4.069002,-0.503328 -4.384384,-1.17431 -7.267553,-4.597066 -8.046021,-9.551355 -0.09223,-0.586953 -0.02082,-0.817522 0.535885,-1.725993 1.917392,-3.128952 4.330073,-5.240377 8.730216,-7.639844 0.535655,-0.2921 0.974101,-0.495265 0.974101,-0.451135 0,0.0442 -0.438728,0.602509 -0.974617,1.240751 -1.300081,1.548395 -1.839088,2.624778 -1.589568,3.172416 0.312545,0.685965 0.967619,0.53108 2.309937,-0.545703 4.438357,-3.560377 11.622791,-8.325341 18.462439,-12.245248 3.809571,-2.183319 9.823007,-5.168582 11.441163,-5.679757 1.00286,-0.316803 1.862463,-0.462276 2.639632,-0.421679 z m 29.294339,18.367871 0.47594,0.03462 c 0.73799,0.05316 1.22679,0.472297 1.55598,1.334286 0.26747,0.700373 0.27911,0.945804 0.1018,2.166276 -0.40431,2.782885 -1.70198,6.062998 -3.62717,9.168433 -0.51977,0.83842 -1.51451,2.716433 -2.21072,4.173389 -1.37375,2.874865 -2.17719,3.945447 -3.40703,4.540808 -0.82894,0.401341 -1.32946,0.426372 -2.0717,0.103353 -0.8109,-0.352903 -0.81344,-0.546005 -0.0124,-1.015442 1.43484,-0.840867 3.7323,-3.503146 4.57595,-5.302519 0.20788,-0.443349 0.81757,-1.578967 1.35496,-2.52336 1.9041,-3.346158 2.6332,-5.834996 3.05821,-10.442774 z m -13.50047,2.441195 0.62838,0.981335 c 0.34549,0.539781 1.22115,2.048561 1.94614,3.352767 1.30089,2.340199 1.31663,2.381461 1.16685,3.17035 -0.28868,1.520526 -1.2113,2.888708 -2.42621,3.597713 -0.3861,0.225331 -0.90294,0.485042 -1.14876,0.577742 -0.50529,0.190454 -0.55346,0.149741 -1.84743,-1.57148 -0.41376,-0.550366 -1.30527,-1.633344 -1.98128,-2.406571 -0.676011,-0.773239 -1.229382,-1.47115 -1.229382,-1.55081 0,-0.07964 0.236625,-0.368213 0.526066,-0.641822 0.669246,-0.632635 2.181336,-2.490192 3.410646,-4.189408 z M 8.5829389,79.16933 c 0.9645984,0 3.2920381,0.329985 3.6400881,0.516247 0.153374,0.08209 0.371967,0.475741 0.485758,0.874882 0.261743,0.918047 0.433115,6.843037 0.214458,7.416085 l -0.161748,0.42323 -0.351916,-0.578776 c -0.23601,-0.388089 -0.319989,-0.736286 -0.255799,-1.0573 0.17207,-0.86034 -0.516989,-1.835546 -1.296561,-1.835546 -0.479766,0 -1.2133807,0.98779 -1.8541507,2.497005 -0.7354324,1.732164 -1.608555,3.084621 -2.2556764,3.49281 C 5.6355243,91.619312 4.9533966,91.249595 4.5356406,89.71959 3.7497918,86.841479 4.1004171,85.182839 6.2843711,81.44826 7.4981096,79.372757 7.7034016,79.16933 8.5829389,79.16933 Z m 68.0563131,5.357812 c 0.217618,-0.158232 2.221639,1.17892 5.745902,3.833875 4.870909,3.669434 10.302014,8.665539 11.218437,10.319784 0.457475,0.82586 0.497644,1.034818 0.497644,2.592089 0,1.50671 -0.05149,1.79888 -0.467671,2.64635 -0.570459,1.16162 -1.778174,2.32402 -3.109888,2.9931 -2.259683,1.13533 -11.205654,4.01692 -18.441252,5.93969 -2.284957,0.60721 -2.682637,0.7701 -3.949113,1.61954 -0.774511,0.51947 -1.537732,0.94413 -1.696021,0.94413 -0.343377,0 -1.399261,-1.32356 -2.36368,-2.96365 -0.738133,-1.25526 -1.629976,-3.7144 -1.817977,-5.01261 -0.109948,-0.75925 -0.09841,-0.7844 0.462504,-1.05058 0.316126,-0.15 1.332694,-0.43721 2.259294,-0.63769 2.037795,-0.44094 3.179693,-0.85919 5.43326,-1.99058 0.943665,-0.47377 2.488408,-1.20851 3.432866,-1.63297 1.637066,-0.73567 1.770162,-0.76735 2.85719,-0.67335 1.736119,0.14999 5.896525,-0.18037 6.396508,-0.50797 0.795647,-0.52133 0.746255,-1.612126 -0.0925,-2.045874 -0.384408,-0.198783 -1.083922,-0.242747 -3.33313,-0.209807 -3.185729,0.04669 -3.540721,-0.02827 -6.690548,-1.410766 -2.137089,-0.937988 -7.108271,-3.685254 -7.336503,-4.054533 -0.04234,-0.06851 0.512223,-0.501754 1.232482,-0.962732 1.579991,-1.011209 3.865684,-2.787636 7.128248,-5.53868 1.33727,-1.127605 2.522825,-2.115996 2.633948,-2.196766 z M 37.569801,100.93854 c 0.0447,-0.0281 -0.08759,0.0592 -0.131258,0.0889 -0.01332,0.01 -0.02642,0.0202 -0.03979,0.03 0.06114,-0.0312 0.11246,-0.0821 0.171049,-0.11886 z m 13.225033,7.42436 c 0.319458,0.0518 0.618762,0.13251 0.665592,0.17931 0.04682,0.0468 -0.224105,0.79286 -0.602547,1.6583 -0.378444,0.86546 -1.038597,2.52625 -1.467094,3.69073 -0.807297,2.19387 -2.12243,4.92335 -3.29644,6.84145 -1.524643,2.49099 -2.625515,5.33507 -3.189986,8.2429 -0.161591,0.83243 -0.378776,1.51381 -0.482658,1.51412 -0.382228,0.001 -1.062486,-0.69951 -1.259871,-1.29759 -0.266607,-0.80782 -0.111701,-2.19228 0.419612,-3.74913 0.390665,-1.14473 1.007817,-2.39277 3.292823,-6.65954 0.479802,-0.89594 1.257512,-2.64869 1.728576,-3.89537 1.21098,-3.2049 2.404045,-5.60437 3.062346,-6.15828 0.441449,-0.37226 0.662165,-0.4427 1.129647,-0.3669 z m 9.147762,1.12499 c 0.07516,0 0.274126,0.43792 0.44235,0.97359 0.168224,0.53564 0.64427,1.64891 1.057817,2.47375 0.413546,0.82485 0.727748,1.52379 0.698148,1.55339 -0.0296,0.0296 -0.975789,0.38862 -2.102714,0.79789 l -2.04897,0.74414 -0.113688,-2.38229 c -0.06259,-1.3103 -0.157157,-2.58116 -0.209807,-2.82411 -0.08914,-0.41129 -0.01873,-0.47214 1.02216,-0.88884 0.614832,-0.24614 1.179544,-0.44752 1.254704,-0.44752 z m -33.492013,5.14749 c -0.04348,0.0104 -0.0872,0.0225 -0.129708,0.0279 -0.01317,0.002 0.02538,0.0179 0.03772,0.0129 0.0312,-0.0123 0.0614,-0.027 0.09199,-0.0408 z" /><path
     style="fill:#ffffff;stroke:none;stroke-width:0.880504;stroke-dasharray:none"
     d="M 44.006401,35.301537 C 43.453141,35.176612 42.536775,34.85741 41.970035,34.5922 40.125789,33.729171 37.567141,31.697788 37.19611,30.802041 c -0.196776,-0.475059 -0.205515,-0.477943 -1.448604,-0.477943 -1.649294,0 -2.296367,-0.31854 -3.271732,-1.610596 -0.179943,-0.238368 -0.07653,-0.331512 0.931823,-0.839311 0.623827,-0.314156 1.150937,-0.54886 1.171361,-0.521568 0.02043,0.02729 0.299667,0.451252 0.620545,0.942134 0.366001,0.559903 0.790697,0.99087 1.139624,1.156448 0.816692,0.387546 2.316771,0.885482 2.404203,0.798053 0.04161,-0.04161 -0.07802,-0.445432 -0.265832,-0.897374 -0.428998,-1.032283 -0.759439,-2.327201 -0.880396,-3.450051 l -0.09357,-0.868659 1.679352,-1.816287 c 1.460574,-1.579668 3.174323,-3.929917 4.450017,-6.102785 l 0.357886,-0.60958 -0.09808,1.105566 c -0.05394,0.608061 -0.195911,1.674143 -0.315489,2.36907 -0.335187,1.947927 -0.367215,1.868428 0.599247,1.487485 1.055825,-0.416168 2.145607,-1.219684 3.051805,-2.250156 0.786408,-0.894251 1.742977,-2.660021 1.902944,-3.512719 0.05589,-0.297946 0.162142,-0.541719 0.236104,-0.541719 0.07396,0 0.411572,0.408664 0.750247,0.908143 1.658601,2.446109 2.243577,4.379914 2.352984,7.778447 0.08798,2.73293 -0.117848,4.363345 -0.840107,6.654828 -0.783717,2.486451 -1.674106,3.770852 -3.133453,4.520051 -0.987991,0.507215 -2.940267,0.628082 -4.49059,0.278019 z"
     id="path146" /><path
     style="fill:#ffffff;stroke:none;stroke-width:0.880504;stroke-dasharray:none"
     d="m 46.03893,45.255559 c -1.865598,-0.39729 -2.326653,-0.60924 -5.267206,-2.421342 l -1.397725,-0.861343 0.608034,-0.340953 c 0.807264,-0.452667 0.991372,-0.895762 1.107638,-2.665754 l 0.09769,-1.487178 1.201764,0.386991 c 2.515923,0.810167 5.760927,0.615338 7.891505,-0.473806 l 1.004795,-0.513648 1.131327,1.197877 c 1.264253,1.338625 2.104506,2.763366 2.248263,3.812167 0.188819,1.377598 -0.708996,2.420186 -2.703611,3.13957 -1.212313,0.437234 -4.368168,0.558416 -5.922473,0.227419 z"
     id="path147" /><path
     style="fill:#ffffff;stroke:none;stroke-width:0.880504;stroke-dasharray:none"
     d="m 15.581332,69.225379 c -0.464322,-0.219425 -1.477099,-0.55014 -2.250617,-0.734923 -0.827522,-0.197681 -1.406396,-0.416094 -1.406396,-0.53064 0,-0.235942 1.451943,-4.24034 2.355845,-6.49732 0.359864,-0.898555 0.890459,-2.000174 1.1791,-2.448039 0.817226,-1.26804 5.106402,-5.318668 10.916383,-10.309255 4.56412,-3.920432 5.100722,-4.269607 7.738962,-5.035862 l 1.421442,-0.412845 0.72128,0.778507 c 1.293773,1.396423 2.743574,3.881385 3.150288,5.399593 0.10472,0.390898 0.194403,1.563587 0.1993,2.605979 0.0074,1.572636 -0.04544,2.017604 -0.31035,2.613999 -0.453671,1.021358 -1.215269,1.823982 -2.023708,2.13273 -0.991413,0.378624 -1.390397,0.227544 -1.789309,-0.677532 -0.308872,-0.700783 -0.313177,-0.763355 -0.06263,-0.910437 0.556451,-0.32667 1.457582,-1.31641 1.457013,-1.600284 -0.0011,-0.495761 -0.596675,-1.306897 -1.041808,-1.418617 -0.645856,-0.1621 -1.861645,0.299612 -3.695739,1.403506 -3.233587,1.946212 -10.038097,6.359121 -10.647302,6.905065 -0.495508,0.44405 -1.034439,1.408403 -2.714819,4.857848 -1.15312,2.367094 -2.154211,4.297883 -2.224647,4.290644 -0.07044,-0.0072 -0.507965,-0.192693 -0.972286,-0.412117 z"
     id="path148" /><path
     style="fill:#ffffff;stroke:none;stroke-width:0.880504;stroke-dasharray:none"
     d="m 59.303321,39.702651 -3.063177,-3.109333 0.703615,-0.239091 c 0.579985,-0.197077 2.299266,-0.257966 9.785048,-0.34653 8.630757,-0.102111 9.141312,-0.12428 10.287985,-0.446714 1.257451,-0.353584 2.119675,-0.692002 8.481991,-3.329136 2.114659,-0.876512 4.815401,-1.956713 6.001645,-2.400451 1.186246,-0.443738 2.343793,-0.902753 2.572327,-1.020032 0.560726,-0.287759 1.169778,-1.03709 1.710034,-2.10389 0.801375,-1.582415 2.300062,-3.710532 3.152047,-4.475867 1.050057,-0.943264 1.878054,-1.227733 2.461254,-0.845602 0.47429,0.310768 0.71083,0.841184 0.71083,1.593975 0,0.855807 -0.24947,1.304685 -1.79605,3.231699 -0.80441,1.002273 -1.942618,2.445684 -2.529355,3.207578 -0.586735,0.761894 -1.434902,1.659948 -1.884813,1.995678 -2.284695,1.704861 -13.559528,8.0429 -16.014417,9.002353 -1.14177,0.446238 -4.252267,0.871363 -10.547501,1.441564 -5.015765,0.454311 -6.100001,0.591497 -6.721872,0.850506 -0.17689,0.07368 -1.110655,-0.774637 -3.309591,-3.006707 z"
     id="path149" /><path
     style="fill:#ffffff;stroke:none;stroke-width:0.880504;stroke-dasharray:none"
     d="M 5.1569621,90.803706 C 4.517052,90.116842 4.0850652,87.664652 4.3464669,86.202901 4.6353191,84.587643 7.072649,79.841679 7.8182533,79.442645 c 0.4933315,-0.264022 2.9383807,-0.112215 4.1599687,0.258287 0.642415,0.194839 0.788023,1.030586 0.849328,4.874871 l 0.05793,3.632573 -0.322642,-0.372856 c -0.220441,-0.254751 -0.322642,-0.594929 -0.322642,-1.073925 0,-0.905936 -0.334649,-1.537044 -0.950238,-1.792029 -0.77268,-0.320053 -1.182677,0.106114 -2.371572,2.465118 -1.1528462,2.287471 -1.7332416,3.132482 -2.381961,3.46795 -0.6082255,0.314523 -1.0219108,0.284858 -1.3794619,-0.09893 z"
     id="path150" /><path
     style="fill:#ffffff;stroke:none;stroke-width:0.880504;stroke-dasharray:none"
     d="m 54.464695,92.080246 c -3.623411,-0.94987 -5.966894,-2.830076 -7.424095,-5.956437 -0.631433,-1.35472 -1.224605,-3.714737 -1.079603,-4.295363 0.184195,-0.73756 1.855306,-3.069143 3.072892,-4.287395 0.654719,-0.655077 1.865582,-1.658536 2.690807,-2.229909 1.519838,-1.052311 3.79072,-2.396223 3.886753,-2.30019 0.02882,0.02883 -0.239191,0.403937 -0.595587,0.833584 -1.403099,1.691465 -1.86834,2.777474 -1.447345,3.378528 0.473792,0.676433 0.829064,0.50488 4.078856,-1.969596 4.585073,-3.49119 12.500378,-8.597966 18.188229,-11.734631 3.202183,-1.7659 8.797356,-4.457599 10.128959,-4.872791 1.046356,-0.326253 1.522844,-0.393097 2.369071,-0.332351 2.455154,0.176238 3.381868,1.139073 8.276615,8.599186 5.861373,8.933344 5.845563,8.898215 4.796323,10.659583 -1.05373,1.768902 -4.290805,5.823945 -4.643307,5.816617 -0.05786,-0.0013 -0.567171,-0.398071 -1.1318,-0.881926 -0.564629,-0.483854 -2.128213,-1.682384 -3.474636,-2.663396 -1.346422,-0.981014 -2.773291,-2.131494 -3.170819,-2.556626 -0.832202,-0.889985 -1.963301,-2.74954 -3.326199,-5.468348 -1.62868,-3.249015 -2.020075,-3.670999 -3.020539,-3.256592 -1.108562,0.459181 -1.128832,1.161732 -0.113147,3.921966 0.34553,0.939017 0.628238,1.778709 0.628238,1.865987 0,0.463706 -9.483188,8.997345 -14.183739,12.763522 -3.685339,2.952768 -6.048907,4.423717 -8.074964,5.025393 -1.251734,0.371723 -4.916472,0.338209 -6.430963,-0.05881 z"
     id="path151" /><path
     style="fill:#ffffff;stroke:none;stroke-width:0.880504;stroke-dasharray:none"
     d="m 65.655893,114.5651 c -1.3134,-1.53654 -2.745798,-4.47433 -3.199204,-6.56143 -0.315868,-1.45399 -0.362802,-1.41767 2.929646,-2.2669 2.399263,-0.61885 2.370032,-0.60723 6.475458,-2.57386 l 3.15876,-1.51314 3.15876,-0.11565 c 3.816535,-0.13974 4.758449,-0.29604 5.266029,-0.87387 0.284879,-0.32431 0.347622,-0.53277 0.272864,-0.906566 -0.20583,-1.029155 -0.783561,-1.183592 -4.464658,-1.19349 -2.276264,-0.0061 -2.694197,-0.0501 -3.790511,-0.398883 -1.816238,-0.577821 -7.232121,-3.287835 -9.186982,-4.597006 L 65.74433,93.20821 66.820163,92.445612 c 2.258861,-1.601187 4.193061,-3.102957 6.998023,-5.433473 l 2.904021,-2.41282 0.649584,0.346281 c 0.821489,0.437923 4.15666,2.865179 6.728871,4.897107 4.279251,3.380415 8.754829,7.644707 9.51266,9.063575 0.312684,0.585433 0.359309,0.9011 0.356113,2.410948 -0.0033,1.56363 -0.04501,1.81627 -0.417145,2.52701 -0.638535,1.21955 -1.905418,2.38006 -3.37444,3.0911 -1.61662,0.78249 -9.590363,3.43176 -14.446576,4.79985 -5.869308,1.65351 -6.1414,1.74852 -7.685588,2.68393 -0.795033,0.48159 -1.51765,0.87562 -1.605814,0.87562 -0.08817,0 -0.440957,-0.32833 -0.783979,-0.72964 z"
     id="path152" /><path
     style="fill:#ffffff;stroke:none;stroke-width:0.880504;stroke-dasharray:none"
     d="m 103.50947,90.222086 c -0.21663,-0.238882 -0.81327,-0.96737 -1.32586,-1.618864 -0.5126,-0.651494 -1.34366,-1.666097 -1.84681,-2.254671 -0.503156,-0.588576 -0.914824,-1.112105 -0.914824,-1.163397 0,-0.05129 0.417116,-0.564742 0.926924,-1.140997 0.50981,-0.576254 1.54637,-1.865064 2.30348,-2.864022 0.7571,-0.998958 1.42384,-1.833102 1.48163,-1.853652 0.14003,-0.0498 0.54951,0.596505 2.08999,3.298753 1.55394,2.725841 1.72283,3.160485 1.54158,3.967192 -0.35596,1.584267 -1.40479,2.954144 -2.8051,3.663733 -0.43442,0.220139 -0.85,0.400254 -0.9235,0.400254 -0.0735,0 -0.31088,-0.195448 -0.52751,-0.434329 z"
     id="path153" /><path
     style="fill:#ffffff;stroke:none;stroke-width:0.880504;stroke-dasharray:none"
     d="m 108.54289,97.981574 c -0.32574,-0.138454 -0.59226,-0.30339 -0.59226,-0.366527 0,-0.06314 0.39532,-0.387065 0.8785,-0.719842 1.06555,-0.733874 2.53696,-2.312622 3.45522,-3.707288 0.97972,-1.488022 3.34186,-6.087621 3.86896,-7.533717 0.62536,-1.715696 1.0593,-3.838745 1.34957,-6.602908 0.13593,-1.294315 0.27945,-2.385613 0.31895,-2.42511 0.0395,-0.03949 0.33992,0.02835 0.66762,0.150765 0.72967,0.272576 1.30653,1.285494 1.30653,2.294165 0,2.301571 -1.3006,5.896613 -3.57865,9.891903 -0.64998,1.139952 -1.74647,3.1891 -2.43664,4.553662 -0.77137,1.525112 -1.52669,2.783367 -1.96039,3.265744 -1.10414,1.228069 -2.23547,1.642007 -3.27741,1.199153 z"
     id="path154" /><path
     style="fill:#ffffff;stroke:none;stroke-width:0.880504;stroke-dasharray:none"
     d="m 57.977756,113.97789 c -0.05687,-1.05648 -0.143598,-2.28368 -0.192736,-2.72711 l -0.08935,-0.80625 1.051738,-0.42104 c 0.578453,-0.23157 1.11321,-0.38304 1.188344,-0.33661 0.07514,0.0464 0.222253,0.34997 0.32693,0.6745 0.104674,0.32454 0.536294,1.35213 0.959149,2.28353 0.422857,0.93141 0.768831,1.72402 0.768831,1.76135 0,0.0373 -0.195447,0.13838 -0.434329,0.22454 -0.238882,0.0862 -1.118523,0.40669 -1.95476,0.71231 l -1.520428,0.55565 z"
     id="path155" /><path
     style="fill:#ffffff;stroke:none;stroke-width:0.880504;stroke-dasharray:none"
     d="m 41.777715,129.90722 c -0.45774,-0.47226 -0.545172,-0.68638 -0.602195,-1.47474 -0.127989,-1.76944 0.344596,-2.9946 3.544613,-9.18929 0.605779,-1.17268 1.477266,-3.09163 1.936633,-4.26432 1.14345,-2.91905 2.430508,-5.52089 3.001757,-6.06818 0.453599,-0.43457 1.173133,-0.58741 1.580419,-0.33569 0.08452,0.0522 -0.179697,0.90308 -0.604086,1.94536 -0.414866,1.0189 -1.058494,2.63433 -1.43029,3.58985 -0.613857,1.57763 -1.452081,3.28198 -4.000322,8.13381 -1.012056,1.92694 -1.71431,3.83439 -2.26249,6.14532 -0.520393,2.19379 -0.515323,2.18718 -1.164039,1.51788 z"
     id="path156" /></svg>
