<?xml version="1.0" encoding="UTF-8" standalone="no"?>
<!-- Created with Inkscape (http://www.inkscape.org/) -->

<svg
   width="512"
   height="512"
   viewBox="0 0 135.46667 135.46667"
   version="1.1"
   id="svg1"
   xml:space="preserve"
   xmlns="http://www.w3.org/2000/svg"
   xmlns:svg="http://www.w3.org/2000/svg"><defs
     id="defs1" /><path
     style="fill:#000000;stroke-width:0.620365"
     d="M 47.366098,126.25936 C 39.002041,125.64824 30.608331,122.84505 23.401921,118.25622 19.737827,115.92303 14.924682,111.60066 11.943228,107.96589 5.5278451,100.14475 1.8050621,90.718037 0.82639214,79.81619 c -0.125419,-1.397097 -0.162116,-6.346102 -0.115015,-15.51106 0.07448,-14.492301 0.06525,-14.319165 1.01265896,-18.99825 1.976455,-9.761372 6.597105,-18.429507 13.5484189,-25.416233 7.062939,-7.098919 16.12702,-11.7191772 26.348806,-13.4308462 4.443588,-0.744093 4.720844,-0.752008 26.344181,-0.752008 h 20.599344 l 2.620411,0.376326 c 6.151769,0.883477 10.938023,2.336718 16.009273,4.8608702 5.45989,2.717589 10.88833,6.890503 14.55504,11.188651 3.30261,3.871346 5.0105,6.419959 7.08649,10.574887 2.92781,5.859812 4.68715,12.064022 5.27357,18.597012 0.22653,2.523532 0.22447,26.278834 -0.002,28.833664 -1.33253,14.999804 -8.5254,27.993837 -20.19386,36.480497 -5.71573,4.15716 -12.87672,7.31595 -19.858632,8.75987 -4.734194,0.97908 -3.782175,0.9421 -25.186383,0.97835 -10.83312,0.0184 -20.509068,-0.026 -21.502104,-0.0986 z m 43.332484,-3.2476 c 12.970098,-2.07036 23.679648,-8.37055 31.207648,-18.35877 5.76849,-7.653693 8.85678,-16.587022 9.4136,-27.230222 0.0893,-1.707864 0.13665,-8.127837 0.10512,-14.266605 -0.0525,-10.231285 -0.0855,-11.353348 -0.39527,-13.464805 -1.16161,-7.91731 -3.55943,-14.339469 -7.6463,-20.479357 -2.14467,-3.222026 -3.40492,-4.762942 -6.00027,-7.336595 C 110.16728,14.719934 101.08958,10.367417 90.452375,8.9628268 88.677022,8.7283998 85.869054,8.6827898 69.606824,8.6242318 46.548646,8.5412018 44.816447,8.6186318 39.077119,9.9877538 34.96068,10.969781 31.851562,12.130574 28.117979,14.079362 15.731951,20.544399 6.7866901,33.084727 4.2919661,47.480965 c -0.726942,4.194945 -0.750851,4.779271 -0.748819,18.301409 0.0017,11.436189 0.03651,13.247874 0.294735,15.346921 1.34718,10.950972 5.429434,19.846585 12.5961759,27.448235 7.883343,8.36174 18.945266,13.66877 30.685833,14.72174 0.857622,0.0769 10.496637,0.12622 21.420034,0.10958 19.687355,-0.03 19.880782,-0.0335 22.158657,-0.39709 z m -16.33175,-5.83706 c -1.489555,-0.57088 -4.480973,-1.75729 -6.647598,-2.63648 -2.166624,-0.87919 -4.094662,-1.63471 -4.284528,-1.67892 -0.195471,-0.0455 -0.765051,0.12955 -1.313106,0.4036 -2.535624,1.26791 -6.491075,1.95914 -7.193174,1.25704 -0.615864,-0.61586 -0.534644,-1.99777 0.185916,-3.16324 0.352204,-0.56968 0.704026,-0.87706 1.395795,-1.21949 1.077769,-0.5335 2.764659,-0.75553 3.580208,-0.47122 0.454544,0.15845 0.621909,0.13373 1.16634,-0.17225 0.349604,-0.19649 0.635643,-0.42452 0.635643,-0.50673 0,-0.0822 -0.152745,-0.65235 -0.339434,-1.26698 l -0.339434,-1.11751 -2.327812,0.079 c -1.280295,0.0434 -2.726237,0.14655 -3.213203,0.22911 -1.246558,0.21133 -2.530829,0.84139 -3.510622,1.72231 -0.937809,0.84317 -1.67082,1.25983 -2.707399,1.53896 -0.869307,0.23407 -1.4162,0.0124 -1.959095,-0.79408 -0.507758,-0.75429 -0.479699,-1.46511 0.08878,-2.24904 0.787495,-1.08594 3.383353,-3.04256 6.398887,-4.82314 0.956561,-0.56482 1.156565,-0.74805 0.984829,-0.90221 -0.118527,-0.1064 -0.868054,-0.70458 -1.665618,-1.3293 -0.797563,-0.624723 -1.654337,-1.302943 -1.903943,-1.507163 -0.445669,-0.36464 -0.46091,-0.36583 -0.84782,-0.0663 -1.037033,0.80287 -6.018583,4.042743 -7.698141,5.006673 -3.553552,2.03945 -6.813797,3.00129 -10.758536,3.17401 -1.785236,0.0782 -2.692599,0.0374 -4.021386,-0.18075 -3.256833,-0.53463 -7.232797,-2.12185 -9.504661,-3.79431 -1.236205,-0.91004 -1.649476,-1.73385 -1.648639,-3.286393 6.82e-4,-1.31356 0.326788,-2.00922 1.187888,-2.53424 0.942182,-0.57446 1.856164,-0.44633 4.046341,0.56723 3.068721,1.42014 4.132539,1.64952 7.650006,1.64952 3.506768,0 4.489309,-0.21861 7.386219,-1.64339 3.752361,-1.84552 6.190242,-3.75535 11.735881,-9.193882 4.263052,-4.180712 4.939815,-4.690372 6.989244,-5.26349 0.865818,-0.242124 2.736616,-0.279173 17.203584,-0.340702 l 16.232125,-0.06904 0.669117,-0.572739 c 2.232931,-1.911305 5.40977,-2.21663 8.28616,-0.796378 1.533616,0.757245 3.143854,2.321372 5.986864,5.815462 2.70973,3.330279 3.46314,4.465169 3.44272,5.185839 -0.0208,0.7331 -0.23319,0.96133 -2.34728,2.52209 -3.38031,2.49556 -3.98949,2.72867 -5.632282,2.15528 -0.525443,-0.1834 -1.404065,-0.60604 -1.952499,-0.9392 -1.158922,-0.70401 -2.128248,-0.85901 -3.439079,-0.54993 -1.582417,0.37311 -2.707495,1.07779 -4.587905,2.87356 -2.68872,2.567713 -4.768637,3.856803 -12.413826,7.693863 -2.460022,1.23467 -4.472469,2.29743 -4.472105,2.36169 3.64e-4,0.0643 1.057942,0.64977 2.350175,1.30113 3.986519,2.00941 5.637394,3.27233 6.361212,4.86634 0.637478,1.40387 0.236659,2.5335 -1.158223,3.26422 -0.725955,0.3803 -1.059018,0.45045 -2.114973,0.44545 -1.136806,-0.006 -1.505118,-0.10243 -3.961608,-1.0439 z m 4.050423,-2.20262 c -0.243498,-0.25416 -1.036887,-0.81554 -1.763086,-1.24752 -1.595591,-0.94912 -6.50497,-3.32307 -8.162773,-3.94713 -0.747383,-0.28135 -1.294343,-0.59859 -1.455149,-0.84401 -0.321101,-0.49007 -0.319231,-1.47008 0.0069,-3.59373 0.421422,-2.74452 0.607685,-5.722503 0.434362,-6.944593 -0.288443,-2.03378 -0.743096,-2.99218 -2.615335,-5.51304 -0.730631,-0.98376 -1.32842,-1.9255 -1.32842,-2.09277 0,-0.34677 0.554357,-0.962462 0.861725,-0.957062 0.580476,0.0102 1.766793,0.780102 2.73238,1.773272 1.196149,1.23033 1.977132,2.43951 2.58626,4.00427 0.778793,2.0006 0.582692,1.81364 1.828532,1.74325 1.339537,-0.0757 1.705513,-0.33061 3.669371,-2.55587 1.401008,-1.58749 2.859947,-2.74056 3.346517,-2.64492 1.669831,0.32821 -0.546148,3.92557 -6.106451,9.913043 -2.079888,2.23968 -2.171358,2.36801 -2.340708,3.28411 -0.09693,0.52435 -0.176236,1.0179 -0.176236,1.09678 0,0.0789 1.20026,-0.48102 2.667245,-1.24423 1.466985,-0.76322 4.351088,-2.24233 6.409117,-3.2869 5.160989,-2.619523 5.788009,-3.046093 10.538152,-7.169303 1.38668,-1.20367 2.702958,-1.87712 4.349662,-2.22544 1.996272,-0.42226 3.029483,-0.25494 5.13324,0.83133 l 1.76841,0.91311 0.52953,-0.27255 c 0.72249,-0.37187 2.86319,-1.82198 2.98815,-2.02418 0.0954,-0.15445 -2.71435,-3.75264 -4.737235,-6.066448 -2.729816,-3.122399 -5.773525,-3.566182 -8.193211,-1.194598 -0.978256,0.958809 -1.601061,1.922819 -2.175633,3.367557 -0.258204,0.649245 -0.6073,1.224814 -0.832292,1.372235 -0.479794,0.314373 -1.13337,0.17637 -1.38418,-0.29227 -0.224926,-0.420279 -0.22141,-2.158053 0.006,-2.93581 0.09219,-0.31537 0.167614,-0.592353 0.167614,-0.615518 0,-0.02316 -6.595147,-0.04212 -14.655884,-0.04212 -15.989706,0 -15.71708,-0.0148 -17.351065,0.941991 -0.406242,0.237878 -2.290815,1.951333 -4.187941,3.807681 -5.495204,5.37708 -8.774369,7.917 -12.609618,9.766973 -3.233529,1.55972 -5.337748,2.06132 -8.64723,2.06132 -2.948541,0 -5.647707,-0.63039 -8.74735,-2.04294 -2.22864,-1.015633 -1.247159,0.19867 1.158365,1.43313 4.011734,2.05874 7.722052,2.69135 12.227445,2.08478 1.809171,-0.24357 4.45052,-1.13967 6.362168,-2.15843 1.749687,-0.93244 5.95572,-3.655743 8.479665,-5.490363 0.917361,-0.66682 1.778523,-1.2124 1.913692,-1.2124 0.13517,0 1.068613,0.70233 2.07432,1.56073 2.679198,2.28678 3.823103,3.03095 6.552048,4.262433 l 2.45206,1.10653 0.649587,1.41827 c 0.982259,2.1446 1.780101,4.38222 2.104594,5.90255 0.249201,1.16756 0.354834,1.39842 0.728224,1.5915 0.32271,0.16689 10.050367,4.00169 11.976905,4.7215 0.135413,0.0506 0.463147,0.0978 0.728295,0.10494 l 0.48209,0.013 z m 31.347185,-10.08305 c -0.4711,-1.5823 -1.78734,-2.71009 -3.22652,-2.76459 -0.53539,-0.0203 -0.51658,-0.0359 0.27647,-0.22976 1.66396,-0.40676 2.77475,-1.48233 2.96042,-2.866583 0.10221,-0.76205 0.37415,-1.06913 0.37415,-0.4225 0,0.62875 0.44177,1.576283 1.00743,2.160763 0.49552,0.51202 1.17749,0.86451 2.27533,1.17608 l 0.57449,0.16304 -0.53872,0.0168 c -0.70134,0.0218 -1.46297,0.34803 -2.13442,0.9142 -0.64474,0.54363 -0.99784,1.18354 -1.16461,2.11062 l -0.12323,0.68505 z M 11.20883,93.920027 c -1.135765,-0.44972 -2.3724259,-1.68175 -2.7241209,-2.71392 -0.3615,-1.06095 -0.334337,-2.441096 0.06538,-3.321963 0.17806,-0.392392 0.864453,-1.389532 1.5253189,-2.215866 0.660866,-0.826335 1.633813,-2.093324 2.162105,-2.815531 0.528293,-0.722208 2.21407,-2.99846 3.746174,-5.058336 l 2.785641,-3.74523 1.632969,-3.887196 c 0.898133,-2.137958 2.594098,-6.324648 3.76881,-9.303757 1.174712,-2.979108 2.979644,-7.550683 4.01096,-10.159055 1.031315,-2.608372 1.854928,-4.758595 1.83025,-4.778273 -0.02468,-0.01968 -1.121989,-0.08025 -2.438468,-0.134604 l -2.393598,-0.09883 -0.573397,0.609506 c -0.664132,0.705954 -3.135556,3.688196 -4.92587,5.943998 -2.276895,2.868895 -3.360495,3.572225 -5.240923,3.401714 -2.974777,-0.269743 -4.8336479,-3.584455 -3.518497,-6.274133 0.220709,-0.45138 2.158869,-3.442799 4.307025,-6.647597 3.687489,-5.501305 3.949805,-5.848758 4.694373,-6.217959 0.873383,-0.433075 1.277713,-0.484719 10.372761,-1.324895 5.160738,-0.476734 5.482455,-0.488738 6.811736,-0.254159 0.767346,0.135414 1.433029,0.246308 1.479297,0.246432 0.04627,1.23e-4 -0.396906,-0.502598 -0.98483,-1.117158 -1.787009,-1.867974 -2.628264,-4.005846 -2.628264,-6.679182 0,-2.499814 0.732805,-4.558114 2.266967,-6.367446 3.516256,-4.14694 9.588892,-4.474476 13.588626,-0.732922 4.030111,3.769972 4.026793,9.981 -0.0074,13.89276 -1.862758,1.806216 -3.902443,2.637625 -6.492293,2.646367 l -1.395175,0.0047 1.35115,0.548 c 1.564801,0.634653 1.589133,0.65433 5.962667,4.822003 1.823653,1.737813 3.376269,3.159661 3.450259,3.159661 0.07399,0 1.620626,-1.787162 3.43697,-3.97147 1.816344,-2.184308 3.574303,-4.167651 3.906576,-4.407429 1.786409,-1.289124 4.338846,-1.027692 5.759084,0.58987 1.299385,1.479917 1.718572,3.496891 1.043301,5.019971 -0.312235,0.704258 -8.529879,10.952171 -10.029577,12.507516 -1.202391,1.247008 -1.808652,1.502455 -3.569127,1.503844 -1.440773,0.0011 -1.521681,-0.01898 -2.380003,-0.591658 -0.488691,-0.326059 -2.277344,-1.83018 -3.974785,-3.342489 -1.697442,-1.51231 -3.107917,-2.722779 -3.134391,-2.68993 -0.05998,0.07442 -3.709273,8.872802 -3.75702,9.058102 -0.01912,0.0742 2.1177,1.29873 4.748489,2.721173 2.630787,1.422442 5.141296,2.843443 5.578908,3.157779 2.363651,1.697813 3.426288,4.674159 2.524181,7.069998 -0.179732,0.477336 -0.930246,1.680368 -1.66781,2.673404 -2.22033,2.989391 -10.629101,13.561719 -11.514021,14.476551 -1.052124,1.087689 -2.163047,1.594609 -3.479688,1.587799 -1.66915,-0.009 -3.23728,-0.948057 -4.132524,-2.475674 -0.597959,-1.020341 -0.713367,-2.662605 -0.258002,-3.671379 0.180137,-0.399057 1.955227,-3.16301 3.944646,-6.142119 1.989418,-2.979108 3.568354,-5.466828 3.508746,-5.528266 -0.259089,-0.267042 -5.519469,-2.583986 -5.615078,-2.473171 -0.05827,0.06754 -1.495347,2.264807 -3.193496,4.882812 -2.70172,4.16519 -3.305323,4.985628 -4.830308,6.565528 -0.95852,0.993036 -3.792056,3.955072 -6.296748,6.582302 -5.039536,5.286087 -5.48504,5.640247 -7.233174,5.750057 -0.750478,0.0472 -1.228339,-0.0243 -1.874762,-0.28025 z m 2.309036,-2.83751 c 0.293671,-0.12418 1.475566,-1.235023 2.661974,-2.501943 1.173589,-1.253231 3.943421,-4.168906 6.155183,-6.479278 l 4.021386,-4.200675 2.838792,-4.396655 c 1.561336,-2.41816 2.816993,-4.406143 2.79035,-4.417741 -0.02664,-0.0116 -0.933025,-0.459394 -2.014179,-0.995102 -1.471682,-0.729214 -2.198344,-1.203627 -2.891231,-1.88759 -0.509023,-0.502465 -1.003818,-1.060683 -1.099545,-1.240482 -0.09573,-0.179801 -0.208897,-0.290594 -0.251488,-0.246208 -0.04259,0.04439 -0.939521,2.259636 -1.993176,4.922779 -1.053655,2.663142 -2.080903,5.137525 -2.282772,5.498629 -0.378455,0.676983 -8.334443,11.368361 -9.50166,12.768478 -1.571259,1.884778 -0.502927,4.050808 1.566366,3.175788 z m 24.471757,-3.47099 c 0.518092,-0.24585 1.103578,-0.950184 7.503283,-9.026373 4.301555,-5.428403 5.114747,-6.494193 5.436382,-7.125061 0.586946,-1.151261 0.230979,-2.861907 -0.795995,-3.825258 -0.455343,-0.427135 -2.452774,-1.544955 -8.512032,-4.763582 -3.222348,-1.711685 -3.779137,-2.089809 -3.923355,-2.664417 -0.07925,-0.315749 0.561873,-2.055088 2.619065,-7.105432 1.572998,-3.861661 2.865211,-6.808709 3.058193,-6.974579 0.473544,-0.407017 0.978853,-0.356984 1.657739,0.164138 0.323416,0.248259 2.199418,1.896673 4.168892,3.663143 1.969475,1.76647 3.785432,3.345484 4.035459,3.508921 0.61531,0.402213 1.791235,0.273172 2.3625,-0.259249 0.229158,-0.213577 1.941855,-2.260544 3.805993,-4.548817 6.159341,-7.560732 5.769345,-7.032265 5.769345,-7.817799 0,-1.265757 -1.044207,-2.01443 -2.163165,-1.550942 -0.301153,0.124742 -1.194672,1.034506 -2.246059,2.286898 -3.919258,4.668541 -6.323433,7.383178 -6.622998,7.478256 -0.174353,0.05534 -0.503073,0.05392 -0.730489,-0.0032 -0.234289,-0.0588 -2.308717,-1.947325 -4.786632,-4.357662 l -4.373148,-4.253883 -2.628775,-0.987581 c -4.02516,-1.512175 -5.001354,-1.816412 -5.828258,-1.816412 -1.205261,0 -12.687435,1.057751 -13.981032,1.287949 -0.581466,0.103473 -0.73801,0.310668 -4.472765,5.919946 -4.112704,6.176925 -4.250414,6.456269 -3.6238,7.350886 0.318556,0.454802 1.119172,0.628011 1.731143,0.374525 0.320209,-0.132636 1.733935,-1.767322 4.271265,-4.938852 2.085951,-2.607328 3.841503,-4.764719 3.901228,-4.794201 0.05972,-0.02948 2.12786,-0.01134 4.595857,0.04032 l 4.487267,0.09392 0.395845,0.460533 c 0.261669,0.304431 0.395844,0.663239 0.395844,1.05856 0,0.385776 -0.908624,2.894857 -2.560092,7.069452 -1.40805,3.559285 -2.700639,6.879932 -2.872418,7.379219 -0.818167,2.378044 0.01541,4.836408 2.040423,6.01758 0.376094,0.219372 3.527501,1.663158 7.003128,3.208413 4.025801,1.789862 6.453357,2.958586 6.688631,3.220179 0.510629,0.567749 0.463195,1.198375 -0.154203,2.050107 -0.287934,0.397218 -2.224533,3.233529 -4.303554,6.302913 -3.625076,5.351918 -3.780247,5.613213 -3.785113,6.373819 -0.0044,0.69152 0.06359,0.854476 0.530964,1.272071 0.599391,0.535556 1.129093,0.599916 1.905437,0.231516 z m 9.16716,-54.529175 c 1.379187,-0.645791 2.477858,-1.749546 3.149598,-3.164175 0.46313,-0.975312 0.506122,-1.207798 0.500828,-2.70828 -0.0046,-1.299722 -0.08129,-1.830828 -0.368508,-2.551511 -1.051294,-2.637902 -4.203205,-4.437977 -6.929864,-3.957685 -2.25905,0.397924 -4.007459,1.719958 -4.974501,3.761399 -0.485869,1.025677 -0.524115,1.23218 -0.524115,2.829867 0,1.523207 0.05074,1.83168 0.436674,2.654959 0.770503,1.643626 2.254377,2.961728 3.959938,3.51755 0.434271,0.141524 1.241417,0.208532 2.168916,0.180061 1.257485,-0.0386 1.641446,-0.122233 2.581034,-0.562185 z m 72.265987,53.237367 c -2.2384,-0.558554 -3.40439,-1.313417 -4.58557,-2.968693 -0.58647,-0.821865 -1.14386,-1.320691 -2.59449,-2.321923 -1.01615,-0.701351 -3.23557,-2.294323 -4.93205,-3.539937 -3.39865,-2.495418 -3.18901,-2.407041 -6.35344,-2.678351 -2.483814,-0.212956 -6.660178,-0.761341 -7.099465,-0.932209 -0.248527,-0.09667 -1.079046,-0.834818 -1.845598,-1.640332 l -1.39373,-1.464572 -1.273028,0.401229 c -3.396985,1.070651 -7.718318,1.756115 -11.12132,1.764101 -2.917492,0.0068 -5.441121,-0.417985 -8.44443,-1.421546 -2.592665,-0.866343 -4.419887,-1.804114 -8.402415,-4.312304 -3.299196,-2.077828 -5.887298,-3.481806 -7.195891,-3.903582 -0.494587,-0.159412 -1.491727,-0.636906 -2.215866,-1.061099 -0.724138,-0.424193 -1.704728,-0.907728 -2.179088,-1.074524 -0.47436,-0.166795 -0.838124,-0.378135 -0.808363,-0.469644 0.105767,-0.325217 1.199401,-0.558329 2.662214,-0.567463 3.112024,-0.01943 5.550113,1.023726 11.729332,5.01849 2.569833,1.661355 3.135337,1.968211 5.170353,2.80556 5.453832,2.244091 9.396704,2.648524 15.593129,1.599442 1.836451,-0.31092 4.351107,-0.916563 4.345381,-1.046566 -0.0024,-0.05346 -0.629927,-0.896351 -1.394606,-1.873078 -1.89634,-2.422202 -2.735097,-3.867257 -2.832388,-4.879789 -0.09018,-0.938513 0.181634,-1.173295 0.91855,-0.793407 0.707589,0.364769 3.501034,3.147541 5.829825,5.80755 1.185588,1.354212 2.636895,2.949778 3.225127,3.545701 l 1.069509,1.083498 1.64138,0.18517 c 0.902761,0.101843 2.601593,0.26305 3.775178,0.358236 4.19179,0.339986 11.82805,1.16075 12.39244,1.331971 0.31597,0.09586 2.27331,1.068655 4.34966,2.161774 3.70876,1.952524 3.79282,1.986987 4.77776,1.958883 0.55141,-0.01573 1.20746,-0.106503 1.45787,-0.201709 0.43817,-0.16659 0.44448,-0.185044 0.168,-0.490555 -0.27628,-0.305283 -3.08634,-2.295244 -7.52105,-5.326063 -2.44779,-1.672897 -2.06543,-1.542725 -9.92565,-3.379211 -3.83463,-0.895934 -5.59059,-1.376096 -5.79545,-1.584755 -0.35569,-0.362275 -3.629222,-6.32295 -4.851824,-8.834548 -1.017001,-2.08922 -1.16512,-2.653651 -0.818385,-3.118626 0.243276,-0.32624 0.248505,-0.326295 0.842536,-0.0089 0.328756,0.175651 1.011269,0.766549 1.516692,1.313106 l 0.918947,0.993742 1.490439,-1.497131 c 0.819735,-0.823421 2.044395,-1.857492 2.721465,-2.297934 l 1.23104,-0.800805 -0.37882,-0.738622 c -0.63972,-1.247315 -0.26267,-2.297935 0.82468,-2.297935 0.34223,0 0.74898,0.264014 1.53896,0.998934 1.42945,1.32981 2.09155,1.597102 4.62323,1.866418 1.57395,0.167434 2.47701,0.362442 3.65059,0.788311 2.26352,0.82139 2.66219,0.869393 3.57012,0.429872 0.70423,-0.340911 3.15955,-2.494382 3.15955,-2.771124 0,-0.06771 -0.63359,-0.698316 -1.40798,-1.401359 l -1.40798,-1.278259 -1.82166,-0.141584 c -2.09777,-0.163044 -2.63552,-0.403448 -3.21708,-1.438194 -0.8212,-1.461135 -0.14508,-2.129354 1.89308,-1.87094 0.66088,0.08379 1.20161,0.124038 1.20161,0.08944 0,-0.228773 -0.77767,-1.069591 -1.51155,-1.634294 -0.6808,-0.523864 -9.56703,-5.291029 -9.86274,-5.291029 -0.0386,0 0.21807,0.938509 0.5705,2.085575 0.63726,2.074142 0.63907,2.087863 0.33029,2.503107 -0.17077,0.229643 -0.46634,0.440752 -0.65682,0.46913 -0.5904,0.08796 -1.78855,-0.549461 -2.07537,-1.10411 -0.14414,-0.27874 -0.3334,-0.5068 -0.42056,-0.5068 -0.20512,0 -6.179366,2.385658 -8.204137,3.276105 -0.85762,0.377162 -3.202493,1.532059 -5.210826,2.566439 -3.617953,1.863403 -5.772564,2.718833 -8.248504,3.274848 -2.143246,0.481302 -15.100714,0.53088 -15.100714,0.05778 0,-0.08062 0.520959,-0.695014 1.157686,-1.365322 l 1.157686,-1.218742 5.777153,-0.06718 c 5.583065,-0.06492 5.832296,-0.08155 7.418535,-0.494757 2.00703,-0.522826 4.089051,-1.352315 5.782953,-2.303961 4.226318,-2.374376 7.858485,-4.080729 12.022492,-5.648035 1.307056,-0.491965 2.423996,-0.923863 2.482096,-0.959773 0.0581,-0.03591 -0.0456,-0.769946 -0.23045,-1.631192 -0.31904,-1.486397 -0.32205,-1.595365 -0.0594,-2.146169 0.3242,-0.679852 1.18444,-1.117202 1.8751,-0.953307 0.24749,0.05873 1.70565,0.789572 3.24034,1.624087 1.53469,0.834515 4.04601,2.166633 5.5807,2.960262 4.73696,2.449606 6.07105,3.582955 7.60366,6.459522 0.57535,1.079886 1.08083,1.697491 2.66775,3.259495 1.78145,1.753476 1.95786,1.980339 1.9574,2.51723 -6.2e-4,0.83939 -0.97123,2.250456 -2.65322,3.857694 -1.70238,1.626712 -3.14247,2.402482 -4.63543,2.497092 -1.02265,0.06481 -1.05911,0.05524 -3.95533,-1.03759 -0.77907,-0.293966 -1.6774,-0.475921 -2.79035,-0.565185 -0.90276,-0.07241 -2.1033,-0.261267 -2.66785,-0.419694 l -1.02648,-0.288049 -1.35353,0.782612 c -2.60829,1.508114 -4.33658,3.224997 -4.50416,4.474452 -0.0734,0.54747 0.0591,0.87325 1.07925,2.653978 0.63963,1.116446 1.1846,2.051539 1.21104,2.077984 0.0264,0.02645 2.15126,0.531061 4.7218,1.121368 5.74381,1.319024 7.51046,1.791512 8.4051,2.247923 1.45259,0.741051 10.33215,6.826547 10.84147,7.430065 0.99564,1.179761 1.23234,2.734404 0.5667,3.722141 -0.71573,1.06207 -2.31799,1.795189 -3.92345,1.795189 -0.25577,0 -0.46504,0.0355 -0.46504,0.07888 0,0.04339 0.27262,0.505024 0.60582,1.025863 0.71246,1.113693 1.1997,2.322427 1.1997,2.976197 0,0.256509 -0.16767,0.717355 -0.37258,1.024103 -0.7932,1.187337 -2.16357,1.399253 -4.79778,0.741931 z m 0.9294,-4.000421 c -1.89957,-2.82232 -1.94549,-2.861086 -6.01769,-5.080778 -1.8157,-0.989714 -2.29284,-1.178955 -3.20069,-1.269453 l -1.0669,-0.106353 0.49241,0.412719 c 0.27083,0.226996 1.36767,1.015058 2.43742,1.751251 2.5764,1.773058 3.65414,2.687757 4.66787,3.961731 0.77435,0.97313 0.93037,1.084905 1.95636,1.401508 1.80981,0.558472 1.81882,0.545282 0.73122,-1.070625 z"
     id="path112" /><path
     style="fill:#ffffff;stroke:none;stroke-width:3.92552;stroke-dasharray:none"
     d="m 41.770886,33.041758 c -3.168026,-1.580105 -4.573784,-5.332794 -3.146219,-8.398863 1.409041,-3.026281 4.773369,-4.543801 7.792728,-3.515002 1.302978,0.443969 3.216056,2.137831 3.755374,3.325053 0.544576,1.198792 0.574982,4.298564 0.05219,5.320609 -0.72299,1.413431 -1.673416,2.36955 -3.02862,3.046752 -1.148834,0.574079 -1.620951,0.681979 -2.951281,0.674505 -1.119005,-0.0063 -1.844956,-0.139222 -2.474177,-0.453054 z"
     id="path113" /><path
     style="fill:#ffffff;stroke:none;stroke-width:3.92552;stroke-dasharray:none"
     d="M 44.353275,122.83998 C 24.695562,119.82691 9.1712867,105.56477 4.9378456,86.629044 3.718314,81.174208 3.6448477,79.804318 3.7488599,64.458582 3.8388471,51.182049 3.872305,50.21872 4.327483,47.798626 7.5469559,30.681322 18.274908,17.503089 33.673408,11.750048 36.120285,10.835869 41.297551,9.5254746 44.00154,9.135941 46.456437,8.7822915 80.170014,8.6027307 86.551254,8.9093185 c 3.562299,0.1711513 5.507654,0.377403 7.534473,0.7988255 12.113673,2.518711 22.208933,9.231787 28.908123,19.223118 3.19617,4.766834 5.4056,9.712571 6.78229,15.181956 1.43655,5.707182 1.49362,6.636216 1.38584,22.559167 -0.0964,14.233242 -0.0993,14.308408 -0.67629,17.421929 -1.98384,10.704738 -6.25448,18.817906 -13.70855,26.042896 -6.46974,6.27092 -14.07399,10.19051 -24.083542,12.41383 l -2.680295,0.59535 -21.442376,0.0595 c -20.137415,0.0559 -21.611276,0.0336 -24.217652,-0.3659 z m 35.668879,-4.8059 c 1.768713,-0.73901 2.351953,-1.87712 1.728245,-3.37241 -0.691702,-1.65831 -2.748502,-3.29209 -6.534568,-5.19061 -1.013489,-0.50821 -1.842704,-1.01368 -1.842704,-1.12326 0,-0.10958 1.905461,-1.16618 4.234358,-2.34799 7.610462,-3.86198 9.245378,-4.88444 12.515943,-7.827313 1.939406,-1.745091 3.387944,-2.547649 4.927319,-2.729965 0.96755,-0.114591 1.313194,-0.02286 2.993332,0.79434 2.964841,1.44208 3.786841,1.301961 7.209021,-1.228868 3.55018,-2.625479 3.54396,-2.664124 -1.39668,-8.680109 -3.20292,-3.900046 -4.827294,-5.20314 -7.264213,-5.827448 -2.29422,-0.587753 -4.696367,-0.09074 -6.607797,1.367179 l -0.723556,0.551886 -16.710668,0.171426 -16.710668,0.171424 -1.249331,0.581766 c -0.889707,0.414303 -2.192086,1.473983 -4.524449,3.681309 -7.299908,6.908578 -9.212324,8.424056 -13.045565,10.337835 -2.604598,1.300371 -3.899517,1.584968 -7.192958,1.580864 -3.253282,-0.004 -4.456139,-0.250997 -7.42418,-1.524169 -2.291121,-0.9828 -3.378645,-1.13415 -4.390318,-0.610995 -0.817984,0.422998 -1.149359,1.220423 -1.148348,2.763396 0.0014,2.155042 0.969869,3.167902 4.743423,4.960902 5.372187,2.5526 11.250051,2.93388 16.795551,1.08951 2.625474,-0.87321 4.396058,-1.82416 8.789607,-4.72077 2.003076,-1.320606 3.696975,-2.401101 3.764214,-2.401101 0.06724,0 0.976606,0.677058 2.020811,1.504571 1.74095,1.37968 1.86436,1.52882 1.486617,1.79661 -0.226568,0.16062 -1.467305,0.98771 -2.7572,1.83797 -4.486812,2.95758 -5.471194,4.39662 -4.112268,6.01162 0.930392,1.1057 2.515654,0.83018 4.478743,-0.77843 0.527621,-0.43234 1.512075,-1.03915 2.187673,-1.34844 1.084524,-0.49652 1.56115,-0.56738 4.070387,-0.60517 l 2.842025,-0.0428 0.292028,0.99738 c 0.416745,1.42335 0.143119,1.62935 -2.204622,1.65981 -1.414727,0.0184 -2.071608,0.13526 -2.751767,0.48975 -1.516021,0.79013 -2.458408,2.73885 -1.977994,4.09021 0.201991,0.56818 0.248397,0.58005 2.208948,0.5646 1.956999,-0.0154 3.069982,-0.29148 5.837,-1.44775 0.674621,-0.28191 0.978257,-0.18876 6.560556,2.01259 8.506399,3.35445 9.143651,3.51784 10.884053,2.79065 z m 30.300766,-12.93753 c 0.2614,-1.3934 1.83393,-2.79855 3.13189,-2.79855 0.87958,0 0.67491,-0.31807 -0.41101,-0.6387 -1.27327,-0.37595 -2.29201,-1.39103 -2.69335,-2.683663 -0.28118,-0.9056 -0.33975,-0.969634 -0.4745,-0.518779 -0.56928,1.904712 -1.539,2.877362 -3.48988,3.500422 -0.4705,0.15026 -0.4477,0.17779 0.26741,0.32282 0.42996,0.0872 1.00382,0.27901 1.27523,0.42626 0.70383,0.38183 1.60051,1.6298 1.76617,2.4581 0.18532,0.92661 0.44677,0.89834 0.62804,-0.0679 z M 15.08878,93.625844 c 0.94668,-0.601813 10.399453,-10.185686 12.595538,-12.770223 0.574109,-0.675659 2.399657,-3.272684 4.056777,-5.771171 1.765263,-2.661531 3.124041,-4.498867 3.281214,-4.436846 0.147548,0.05822 1.346954,0.579625 2.665352,1.158677 2.272078,0.997915 2.383795,1.077873 2.142265,1.533189 -0.14015,0.264207 -1.731581,2.741872 -3.536513,5.505929 -1.804935,2.764057 -3.39715,5.2451 -3.538255,5.51343 -0.376438,0.715838 -0.315444,2.879812 0.104606,3.711183 0.873276,1.728399 2.414783,2.684103 4.329356,2.684103 1.819907,0 2.835127,-0.625155 4.745231,-2.922027 2.38761,-2.871068 8.992203,-11.263495 10.399943,-13.215165 1.557591,-2.159418 1.852064,-2.876428 1.85997,-4.528788 0.0079,-1.640404 -0.974354,-3.83879 -2.146935,-4.805331 -0.416181,-0.343054 -2.929705,-1.826501 -5.585608,-3.296558 -2.655906,-1.470051 -4.941541,-2.74243 -5.079191,-2.827501 -0.16873,-0.104281 0.317529,-1.525339 1.492383,-4.361408 0.958463,-2.313705 1.811067,-4.283086 1.894676,-4.376402 0.08361,-0.09332 1.653691,1.136624 3.489071,2.733199 1.83538,1.596575 3.653779,3.054954 4.040886,3.240842 0.808839,0.3884 2.498915,0.438528 3.684299,0.109275 1.056907,-0.293565 2.645579,-1.986748 7.205729,-7.679748 4.802209,-5.995194 5.046316,-6.373326 5.046316,-7.816885 0,-1.426546 -0.84849,-3.258103 -1.865794,-4.027514 -1.424758,-1.077579 -3.569304,-1.222242 -5.022051,-0.338772 -0.366737,0.223025 -2.208485,2.214756 -4.092771,4.426066 -1.884291,2.211311 -3.477665,4.027398 -3.540837,4.035748 -0.06317,0.0084 -1.771862,-1.543497 -3.797086,-3.44855 -2.607881,-2.453137 -4.062391,-3.649829 -4.985202,-4.101552 l -1.302975,-0.637821 1.650227,-0.105905 c 2.156489,-0.138395 3.81339,-0.900318 5.540687,-2.547882 4.550598,-4.340537 4.004154,-11.593438 -1.131869,-15.023143 -1.739106,-1.16133 -3.190814,-1.593005 -5.357214,-1.593005 -2.759689,0 -5.117307,1.037627 -6.935148,3.052274 -1.753637,1.943491 -2.440318,3.832005 -2.440318,6.711388 0,2.793783 0.748411,4.772345 2.548218,6.73667 l 0.690473,0.753592 -1.369714,-0.147474 c -1.373833,-0.147917 -12.174531,0.719437 -15.382141,1.235269 -1.355936,0.218056 -1.66907,0.361762 -2.358654,1.082437 -0.959738,1.003011 -7.644252,10.998748 -8.254757,12.34381 -0.591936,1.304152 -0.556275,2.538793 0.111769,3.869632 1.236821,2.463919 4.169166,3.231449 6.339427,1.659321 0.484034,-0.350634 2.186818,-2.227017 3.783966,-4.169746 1.597147,-1.942725 3.193455,-3.871283 3.54735,-4.285681 l 0.643446,-0.753449 2.295951,0.16433 c 1.569291,0.112318 2.264883,0.244745 2.197793,0.418415 -2.928205,7.579966 -9.72547,24.55349 -10.63665,26.560894 -0.370463,0.816163 -2.625742,4.048207 -5.465237,7.832238 -2.65897,3.543457 -4.9829274,6.729694 -5.1643501,7.080526 -0.3844295,0.743405 -0.433664,2.58876 -0.093203,3.493336 0.3096236,0.822645 1.7075541,2.275623 2.5553191,2.655946 0.368541,0.16533 1.228336,0.304538 1.910654,0.309348 0.987781,0.007 1.442929,-0.119893 2.233581,-0.62252 z m 108.53991,-7.396543 c 0.30712,-0.213564 0.69992,-0.677363 0.8729,-1.030666 0.27693,-0.565645 0.26732,-0.775187 -0.0804,-1.754354 -0.21722,-0.611593 -0.62503,-1.476471 -0.90625,-1.921955 l -0.51132,-0.809972 1.26183,-0.260654 c 1.53515,-0.317111 2.77329,-1.118494 3.15615,-2.042811 0.36779,-0.887915 0.17921,-2.264124 -0.42687,-3.115289 -0.7259,-1.019429 -9.38191,-7.011413 -11.49726,-7.958791 -0.62595,-0.280337 -3.75904,-1.138843 -6.96242,-1.907797 l -5.82432,-1.39809 -1.01173,-1.805281 c -0.55645,-0.992905 -1.07547,-1.986796 -1.15339,-2.208644 -0.37424,-1.06553 1.5826,-3.286305 4.30097,-4.881086 1.13983,-0.668706 1.50804,-0.784328 2.02529,-0.635979 0.34771,0.09972 1.57157,0.302657 2.71971,0.450974 1.14813,0.148315 2.88571,0.560144 3.86128,0.915175 2.28988,0.833329 3.85275,0.858846 5.39934,0.08815 2.13114,-1.061993 5.22326,-4.543385 5.22326,-5.880833 0,-0.379336 -0.56546,-1.124889 -1.87264,-2.469049 -1.02995,-1.059093 -2.34749,-2.679457 -2.92786,-3.600808 -1.29112,-2.049645 -2.09241,-2.921545 -3.68711,-4.011954 -1.13043,-0.772953 -11.6521,-6.446869 -12.57637,-6.781929 -0.22185,-0.08042 -0.73594,-0.0073 -1.14241,0.162568 -1.0306,0.430609 -1.26575,1.220446 -0.91657,3.078588 l 0.27602,1.468779 -3.262324,1.281255 c -3.393318,1.332701 -6.832174,2.943905 -11.162782,5.230088 -4.762643,2.514259 -6.639716,2.90059 -14.21199,2.925069 l -4.913879,0.01587 -1.205206,1.378829 -1.205207,1.378831 0.758492,0.199475 c 0.417168,0.109712 3.824079,0.152765 7.570909,0.09567 6.654052,-0.101391 6.856559,-0.117901 8.710965,-0.710237 1.044199,-0.333542 4.361066,-1.793761 7.370818,-3.244937 3.009749,-1.451177 7.063608,-3.269396 9.008571,-4.040487 l 3.536303,-1.401987 0.48414,0.573772 c 0.94028,1.114351 2.04273,1.361726 2.72227,0.610839 0.39712,-0.438812 0.39261,-0.509109 -0.1577,-2.45694 -0.31159,-1.102863 -0.51567,-2.005203 -0.45352,-2.005203 0.13639,0 3.96415,2.030743 7.20202,3.820891 1.29334,0.71506 2.64392,1.605295 3.00128,1.978302 l 0.64975,0.678191 h -1.25199 c -1.7157,0 -1.9586,0.127175 -1.9586,1.025483 0,1.561401 1.70485,2.548244 4.4023,2.548244 0.61539,0 1.05075,0.250148 2.19566,1.261576 0.9002,0.795239 1.3689,1.363033 1.26799,1.53606 -0.37506,0.643061 -2.89567,2.569548 -3.51047,2.683028 -0.4229,0.07806 -1.28802,-0.08885 -2.34526,-0.452482 -0.92135,-0.316889 -2.72999,-0.733648 -4.01921,-0.926129 -2.60164,-0.388427 -3.19816,-0.630153 -4.7561,-1.927305 -2.00139,-1.666377 -3.50625,-0.770935 -2.53454,1.508138 0.27762,0.651137 0.26133,0.682324 -0.66254,1.268225 -0.52094,0.330369 -1.69221,1.308389 -2.602812,2.173378 l -1.655651,1.572707 -0.763056,-0.789604 c -0.419682,-0.434279 -1.103826,-1.000911 -1.520317,-1.259173 -0.743879,-0.461275 -0.762807,-0.462003 -1.070912,-0.04111 -0.183393,0.250526 -0.258352,0.660366 -0.180496,0.986861 0.1772,0.743106 2.213068,4.795558 4.17685,8.314132 1.329684,2.382436 1.697884,2.878273 2.277574,3.067122 0.38031,0.123896 3.19769,0.83366 6.26084,1.577258 3.06315,0.743595 6.00839,1.546198 6.545,1.783564 0.90542,0.400513 7.10529,4.572778 9.0787,6.109608 0.76767,0.597842 0.81906,0.694571 0.44671,0.840787 -1.1972,0.470123 -2.06371,0.206293 -6.27741,-1.911291 l -4.19446,-2.107915 -5.58395,-0.574529 c -3.07117,-0.315992 -7.04136,-0.711581 -8.822641,-0.879092 l -3.238693,-0.304562 -2.229165,-2.429428 c -1.226039,-1.336185 -3.500406,-3.719541 -5.054145,-5.296349 -2.272583,-2.306323 -2.928578,-2.852267 -3.354787,-2.791976 -0.35334,0.04998 -0.553979,0.245403 -0.60239,0.586713 -0.112255,0.791506 1.087377,3.090085 2.705468,5.183862 1.706229,2.207832 1.877174,1.963682 -1.909501,2.727222 -2.068962,0.417185 -3.217018,0.504719 -6.530692,0.49793 -3.723129,-0.0076 -4.165187,-0.05284 -5.977697,-0.611433 -3.593655,-1.10752 -5.751867,-2.126742 -9.602327,-4.534715 -4.004652,-2.504403 -6.714424,-3.880763 -8.474038,-4.304168 -1.961597,-0.472009 -5.557991,-0.240334 -5.533896,0.356489 0.0069,0.171111 3.225951,1.786797 6.470396,3.247588 0.921354,0.414835 3.455607,1.832251 5.631675,3.149815 6.195986,3.75154 9.491192,5.127331 13.67413,5.709124 3.715626,0.516797 8.620041,0.101544 13.385705,-1.133354 l 2.64985,-0.686638 1.485773,1.474385 c 1.716979,1.703824 1.57725,1.661081 7.667398,2.345576 2.547127,0.286285 3.983107,0.552024 4.523747,0.837158 0.43563,0.229759 2.80073,1.864407 5.25577,3.632554 3.26793,2.353599 4.70385,3.532865 5.36008,4.402043 1.27812,1.692854 3.0378,2.618076 5.67624,2.984497 1.42563,0.197988 2.32099,0.07256 3.0372,-0.425476 z"
     id="path114" /><path
     style="fill:#ffffff;stroke:none;stroke-width:3.92552;stroke-dasharray:none"
     d="m 36.173855,87.231479 c -0.301532,-0.301535 -0.548243,-0.805852 -0.548243,-1.120709 0,-0.37324 1.515753,-2.82788 4.355484,-7.053355 2.395514,-3.564488 4.355481,-6.584667 4.355481,-6.711509 0,-0.969433 -0.716243,-1.376841 -9.046001,-5.145479 -6.107198,-2.763083 -6.793876,-3.275666 -7.276344,-5.43156 -0.332261,-1.484701 -0.25554,-1.741228 3.117551,-10.423718 1.365983,-3.516104 2.483607,-6.645939 2.483607,-6.955195 0,-0.309256 -0.175895,-0.770245 -0.390877,-1.024416 -0.368694,-0.435909 -0.656227,-0.465834 -5.066628,-0.527302 l -4.675749,-0.06517 -1.542401,1.898544 c -5.943342,7.315672 -6.395993,7.817533 -7.050958,7.817533 -0.352397,0 -0.816476,-0.199088 -1.040112,-0.446204 -0.38974,-0.430657 -0.389001,-0.479292 0.02122,-1.39597 0.531006,-1.186583 6.793365,-10.627083 7.42763,-11.197146 0.349724,-0.314323 1.126897,-0.491681 3.097827,-0.706954 5.467855,-0.597222 11.329019,-1.026549 12.08311,-0.885079 0.430472,0.08076 2.299272,0.696241 4.152882,1.36774 l 3.370204,1.220909 4.562721,4.346168 c 3.598228,3.42745 4.689118,4.346165 5.160675,4.346165 0.7029,0 1.355931,-0.662628 5.892202,-5.978816 3.041949,-3.564948 3.626361,-4.045744 4.558165,-3.750001 0.616347,0.195623 1.061511,1.344758 0.765937,1.977189 -0.126595,0.27087 -1.486868,2.050413 -3.022833,3.954542 -6.902641,8.55716 -7.125094,8.763659 -8.535919,7.923673 -0.407546,-0.242649 -2.528472,-2.024229 -4.713168,-3.959069 -4.02471,-3.564413 -4.765863,-4.008747 -5.402189,-3.23869 -0.32154,0.389117 -3.340582,7.514418 -4.626504,10.919108 -0.720032,1.906405 -1.021318,3.000359 -0.928346,3.370792 0.143242,0.570719 0.326567,0.681876 8.715639,5.284584 2.123083,1.164839 3.726088,2.195078 3.999548,2.570477 0.251002,0.344575 0.501168,1.093854 0.555927,1.665063 0.122454,1.277472 -0.128151,1.674527 -4.789906,7.589049 -8.531826,10.82461 -8.748583,11.035856 -10.019634,9.764803 z"
     id="path115" /><path
     style="fill:#ffffff;stroke:none;stroke-width:3.92552;stroke-dasharray:none"
     d="m 71.827514,112.90827 c -3.245605,-1.27941 -6.030918,-2.4563 -6.189586,-2.61531 -0.158668,-0.15901 -0.548286,-1.18614 -0.865815,-2.28252 -0.317532,-1.09637 -0.990613,-2.98925 -1.49574,-4.20639 -0.906682,-2.18472 -0.932942,-2.21944 -2.055733,-2.71746 -3.213145,-1.425229 -4.77008,-2.350678 -7.190306,-4.273943 -1.459553,-1.159854 -2.771299,-2.108824 -2.914984,-2.108824 -0.14369,0 -2.255377,1.331772 -4.692642,2.959494 -5.182979,3.461443 -6.400602,4.135913 -9.244772,5.120883 -2.038205,0.70586 -2.233496,0.73117 -5.684449,0.73662 -2.849253,0.004 -3.868047,-0.0796 -5.025557,-0.41494 -1.622887,-0.47014 -5.232046,-2.11414 -5.918987,-2.69615 l -0.446717,-0.37847 0.446717,0.12279 c 0.245693,0.0675 1.471553,0.47918 2.724133,0.91477 6.327455,2.20041 12.124397,1.34629 18.334332,-2.701396 2.658607,-1.732902 4.469193,-3.246133 8.982435,-7.507251 4.372739,-4.128466 4.969968,-4.600514 6.173943,-4.879869 0.47443,-0.110083 7.452488,-0.202547 15.506801,-0.205476 l 14.644207,-0.0053 -0.09635,1.332008 c -0.120256,1.662512 0.05586,2.395726 0.61832,2.574245 0.743517,0.235982 1.28505,-0.266814 2.101546,-1.95122 1.031484,-2.127927 1.895319,-3.128224 3.31047,-3.833424 2.769076,-1.379889 4.859758,-0.235542 8.94065,4.893726 0.78191,0.982774 1.64357,2.104181 1.9148,2.492013 l 0.49316,0.705149 -1.60346,1.025874 c -0.8819,0.564232 -1.6787,1.025877 -1.77067,1.025877 -0.092,0 -1.003916,-0.410144 -2.026538,-0.911434 -1.816357,-0.890373 -1.90222,-0.90899 -3.715854,-0.805606 -2.449639,0.139634 -3.92371,0.868598 -6.854431,3.389685 -3.271327,2.814082 -5.122807,3.968245 -12.003447,7.482629 l -6.196135,3.16476 0.139589,-0.74358 c 0.167397,-0.8917 0.599845,-1.49267 2.865602,-3.98228 4.928428,-5.415352 7.117154,-9.023308 5.784188,-9.534814 -0.631404,-0.242292 -1.878473,0.643102 -3.723174,2.643384 -0.981707,1.064503 -2.026309,2.045441 -2.321335,2.179865 -0.869881,0.396343 -2.29344,0.311232 -2.449846,-0.146471 -0.665578,-1.947743 -1.847326,-3.880861 -3.200543,-5.235493 -1.880375,-1.882338 -2.962982,-2.219751 -3.557559,-1.108774 -0.195016,0.364398 -0.02942,0.730605 0.99045,2.190359 0.673539,0.964044 1.546468,2.355874 1.93984,3.092955 0.654717,1.226773 0.72268,1.548006 0.803389,3.797089 0.05459,1.52113 -0.04767,3.43187 -0.268454,5.01659 -0.47066,3.37818 -0.458354,4.09147 0.07899,4.57776 0.239585,0.21682 1.77238,0.99063 3.406211,1.71958 4.700043,2.09697 8.71868,4.45837 7.528219,4.42367 -0.172601,-0.005 -2.96931,-1.05594 -6.214911,-2.33535 z"
     id="path116" /></svg>
