<?xml version="1.0" encoding="UTF-8" standalone="no"?>
<!-- Created with Inkscape (http://www.inkscape.org/) -->

<svg
   width="512"
   height="512"
   viewBox="0 0 135.46667 135.46667"
   version="1.1"
   id="svg1"
   xml:space="preserve"
   xmlns="http://www.w3.org/2000/svg"
   xmlns:svg="http://www.w3.org/2000/svg"><defs
     id="defs1" /><path
     style="fill:#000000;stroke-width:0.633667"
     d="m 29.794599,135.18518 c -0.447995,-0.2506 -0.795032,-0.62559 -1.045361,-1.1296 l -0.374731,-0.75445 -0.01387,-34.41066 -0.01387,-34.410664 -0.952661,-0.733987 c -2.172399,-1.673725 -3.237387,-3.268076 -3.601017,-5.390935 -0.172996,-1.009941 -0.153038,-1.166656 0.335047,-2.631015 0.285448,-0.856405 0.569434,-1.726861 0.631078,-1.934338 l 0.112077,-0.377228 -3.657851,-9.47e-4 C 19.093653,53.410813 17.279153,53.333706 16.898168,53.227895 15.553866,52.854662 14.710183,51.376063 15.099694,50.075996 15.338601,49.278591 12.56825,52.111409 40.357012,24.249202 53.08222,11.490377 63.829171,0.83665134 64.239122,0.57426848 c 1.032684,-0.66094996 2.06204,-0.6580993 2.959857,0.008154 0.359629,0.26689168 11.493173,11.33857652 24.741206,24.60374352 21.692195,21.720239 24.106065,24.189586 24.275565,24.833515 0.25542,0.970242 0.0776,1.74524 -0.57283,2.49777 -0.51906,0.60046 -0.60763,0.636022 -1.86902,0.750639 -0.72827,0.06618 -2.74682,0.12568 -4.48566,0.13224 -2.946,0.01067 -3.15271,0.03191 -3.03228,0.305335 0.77417,1.757567 1.35484,4.503365 1.13641,5.373692 -0.34541,1.376202 -2.71759,4.269686 -4.23558,5.16638 l -0.51264,0.302831 -0.0431,34.657378 -0.0431,34.657374 -0.34567,0.46298 c -0.19012,0.25464 -0.55401,0.61854 -0.80866,0.80866 l -0.46298,0.34567 -35.237715,0.0399 -35.237715,0.0399 z m 12.916643,-2.84808 c 0.06461,-0.29969 0.720149,-2.43105 1.456743,-4.73633 1.471876,-4.60647 1.306435,-3.6062 1.899482,-11.48454 0.473346,-6.28817 1.717702,-13.47695 3.766311,-21.758352 0.837647,-3.386146 1.638901,-6.911088 1.780565,-7.833206 0.317355,-2.065727 0.230094,-6.343023 -0.184699,-9.053507 -0.248526,-1.623992 -0.377849,-2.014421 -1.082909,-3.269317 -1.026702,-1.82738 -1.640862,-3.379679 -2.01408,-5.090611 -0.341973,-1.567699 -0.119998,-1.478504 -2.590635,-1.041048 -1.945868,0.344538 -6.103711,0.348616 -8.087469,0.0083 -1.943398,-0.333759 -4.208357,-0.984898 -5.564001,-1.599576 -0.596695,-0.270553 -1.093325,-0.491916 -1.103623,-0.491916 -0.08087,3.5e-5 -0.08395,61.764903 -0.0032,64.003263 l 0.104331,2.89209 h 5.752842 5.752843 z m 12.578455,-0.0837 c 0.47623,-2.71767 1.315258,-6.38677 1.680227,-7.34768 0.652348,-1.71755 2.583322,-7.42024 4.253472,-12.56165 2.188403,-6.73681 3.098168,-9.15386 3.612782,-9.5984 0.884109,-0.76373 1.716127,-0.36392 2.270862,1.09122 0.335057,0.8789 1.527482,4.355 6.081433,17.72833 1.153733,3.38811 1.767461,5.50228 2.205525,7.59757 0.333829,1.59674 0.676782,3.0868 0.762117,3.31124 l 0.155154,0.40808 h 4.782389 c 2.630314,0 4.781529,-0.0566 4.780477,-0.12575 -0.0026,-0.17208 -0.779206,-2.72753 -1.897917,-6.24523 -1.099278,-3.45662 -1.077373,-3.33166 -1.205076,-6.87397 -0.321598,-8.92072 -1.38196,-14.90149 -5.127542,-28.920913 l -0.895863,-3.353159 0.01275,-4.023786 c 0.01056,-3.327631 0.07466,-4.371846 0.370572,-6.035668 0.32892,-1.849398 0.465553,-2.228553 1.691668,-4.694413 1.404711,-2.82503 1.549985,-3.30514 2.375088,-7.849255 0.425152,-2.341457 0.798463,-2.964655 1.775894,-2.964655 0.445916,0 0.726893,0.138231 1.158699,0.570038 0.621216,0.621213 0.675006,0.876272 0.365386,1.732512 -0.260612,0.720703 -0.219489,0.746538 1.909762,1.199938 4.262402,0.907603 9.560441,-0.02671 14.046444,-2.477089 1.56116,-0.852741 3.51281,-2.562583 3.93106,-3.443996 0.59436,-1.252497 0.16558,-3.139891 -1.49281,-6.571065 -0.93136,-1.926977 -2.5258,-4.398746 -5.31246,-8.235612 -0.886763,-1.220959 -1.914505,-2.767601 -2.283872,-3.43698 -1.188837,-2.154453 -2.422413,-2.948869 -5.563748,-3.583023 -2.922429,-0.589962 -3.025852,-0.576396 -4.208997,0.552134 -0.549238,0.523883 -1.151061,1.199182 -1.337388,1.500664 -0.322172,0.521285 -0.325155,0.575262 -0.06086,1.101292 0.152857,0.304227 0.663398,0.949231 1.134534,1.433341 1.021704,1.049838 1.25799,1.07975 3.622874,0.458617 1.536271,-0.403499 1.598203,-0.406983 2.179548,-0.1226 1.07037,0.523605 3.182591,5.198736 4.621842,10.229863 0.06638,0.232024 0.426882,0.541816 0.923126,0.793282 1.358281,0.688296 1.708244,1.575229 0.929013,2.354469 -0.558746,0.55874 -0.905447,0.522315 -2.496959,-0.262351 -0.76115,-0.375266 -1.896717,-0.773579 -2.562724,-0.898905 -2.111324,-0.397296 -4.492882,-0.07411 -5.530536,0.750521 -0.337005,0.267812 -0.70076,0.486942 -0.808345,0.486942 -0.107586,0 -0.554335,-0.227498 -0.992777,-0.505556 -3.020319,-1.915429 -5.538838,-2.40302 -9.010481,-1.744459 -1.419158,0.269205 -3.260568,0.213126 -4.173575,-0.127111 -0.230525,-0.08592 -0.834092,-0.560665 -1.341255,-1.055017 l -0.922118,-0.898811 -1.257431,0.331195 c -1.56053,0.41103 -4.619701,0.364665 -5.951843,-0.09018 L 61.649529,51.55114 60.56808,52.560703 c -1.366259,1.275448 -2.122981,1.481435 -4.328087,1.178133 -0.805432,-0.110741 -2.33205,-0.236716 -3.392485,-0.279855 -2.722697,-0.110741 -4.0335,0.262363 -6.734825,1.91712 -0.914239,0.560039 -0.96881,0.572319 -1.425089,0.320652 -1.314727,-0.725135 -1.986617,-0.963552 -3.198318,-1.134912 -1.757808,-0.248594 -3.471152,0.08261 -5.295389,1.023544 -0.722126,0.372478 -1.495446,0.677234 -1.718491,0.677234 -0.644249,0 -1.076163,-0.560217 -1.076163,-1.395856 0,-0.776203 0.25915,-1.122999 1.271213,-1.701156 0.689744,-0.394012 0.752263,-0.510059 2.011362,-3.73339 0.599434,-1.534572 1.396798,-3.360416 1.771918,-4.057446 0.375121,-0.697026 0.824327,-1.54564 0.998237,-1.885809 0.62288,-1.218351 1.240467,-1.364011 3.419922,-0.806601 0.721088,0.184423 1.517627,0.335316 1.770086,0.335316 0.528223,0 1.698783,-0.969222 2.40995,-1.995436 0.446463,-0.644249 0.449646,-0.666802 0.170319,-1.206961 -0.357072,-0.690501 -1.858522,-2.29025 -2.423948,-2.582645 -0.359161,-0.185728 -0.692321,-0.171143 -2.1405,0.09371 -2.378827,0.435061 -2.994822,0.61588 -4.107799,1.205811 -1.051642,0.55742 -1.628904,1.236893 -2.763034,3.25227 -0.370722,0.658781 -1.370083,2.119533 -2.220803,3.246114 -4.374981,5.793657 -7.040882,10.837147 -7.040882,13.32031 0,0.847835 0.50492,1.621676 1.843247,2.824946 3.843554,3.455686 11.74191,5.356626 16.86106,4.058048 0.90543,-0.229684 1.708449,-0.479813 1.784489,-0.555854 0.07605,-0.07599 0.01867,-0.377986 -0.127496,-0.670971 -0.731949,-1.467229 1.427189,-3.042209 2.42739,-1.770662 0.432011,0.549214 0.590934,1.1362 1.112229,4.108089 0.512383,2.921068 0.959724,4.277036 2.157782,6.540643 1.570929,2.968095 2.03025,5.744858 1.9004,11.488581 l -0.07516,3.324747 -1.859097,7.376921 c -1.022503,4.057316 -2.125713,8.784812 -2.451579,10.505532 -0.827305,4.36856 -1.610124,11.63115 -1.610124,14.93791 0,2.15976 -0.292377,3.51527 -1.708408,7.92042 -0.741032,2.3053 -1.380977,4.24803 -1.422103,4.31717 -0.04113,0.0691 2.151917,0.12575 4.873424,0.12575 h 4.948196 z m 18.280775,0.33532 c -0.04904,-0.16138 -0.249365,-1.04787 -0.445157,-1.96999 -0.382025,-1.79919 -6.82179,-21.2102 -7.364075,-22.1971 -0.179649,-0.32694 -0.836854,1.43245 -3.298029,8.82906 -1.143417,3.43633 -2.412199,7.14353 -2.819512,8.23822 -0.603685,1.62246 -1.766461,6.35908 -1.766461,7.19577 0,0.14867 1.948865,0.19743 7.891202,0.19743 7.43763,0 7.886078,-0.0169 7.802032,-0.29339 z m 26.497548,-33.048048 -0.0249,-33.341427 -1.592744,0.579706 c -2.890065,1.051874 -4.773346,1.402652 -8.089647,1.50675 -2.375917,0.07458 -3.344451,0.03416 -4.802666,-0.200445 -1.004616,-0.161631 -1.923253,-0.261641 -2.04142,-0.222261 -0.118162,0.03935 -0.387095,0.773827 -0.597622,1.632076 -0.408284,1.664436 -1.022274,3.114257 -2.064347,4.874554 -0.70258,1.186819 -1.017796,2.556781 -1.344625,5.843862 -0.410394,4.127566 -0.20582,5.733287 1.679837,13.185268 1.743122,6.888705 2.137255,8.634675 2.914191,12.909635 0.686695,3.77842 1.188435,8.19038 1.429989,12.57432 0.09654,1.75202 0.211753,3.44954 0.256042,3.77229 0.1021,0.74409 1.746969,6.24494 2.544244,8.50862 l 0.605257,1.71849 h 5.576661 5.57667 z M 46.423192,52.260998 c 2.45568,-1.214629 4.321673,-1.626179 6.628553,-1.461947 0.855894,0.06099 2.152335,0.154234 2.880981,0.207324 1.536555,0.111922 2.378115,-0.08651 2.950588,-0.695872 l 0.399192,-0.424917 -0.676586,-0.709594 c -0.869106,-0.911491 -1.243457,-1.467076 -1.953158,-2.898754 -2.445617,-4.933499 -2.374697,-9.9172 0.197185,-13.85693 2.018288,-3.091705 4.972073,-4.663646 8.750249,-4.656694 2.879218,0.0053 4.839257,0.673267 6.825205,2.32599 1.267185,1.054562 2.59541,2.820075 3.137904,4.170985 1.022832,2.547044 1.162962,5.98978 0.356652,8.762268 -0.861455,2.962105 -1.524746,4.243758 -3.14307,6.073265 l -0.705331,0.79737 0.388256,0.413288 c 0.734516,0.781852 2.39498,1.001195 4.511355,0.595932 2.332844,-0.44671 5.031217,-0.0083 7.683379,1.247888 l 1.55945,0.738714 0.711228,-0.312119 c 1.007488,-0.442148 3.298445,-0.738148 4.758037,-0.614772 0.678922,0.05744 1.234403,0.08237 1.234403,0.05554 0,-0.34774 -1.36365,-3.942757 -1.970197,-5.194083 -0.687886,-1.419116 -0.84175,-1.628022 -1.131467,-1.536226 -0.184424,0.05838 -1.16522,0.145782 -2.179549,0.194121 -2.600962,0.123931 -2.977868,-0.0083 -4.414855,-1.546834 -1.30677,-1.39928 -2.040791,-2.692427 -2.038322,-3.59098 0.0028,-1.032647 0.72213,-2.254507 2.222368,-3.775142 1.807205,-1.831777 2.859686,-2.362255 4.37594,-2.205595 1.595779,0.164877 4.645636,1.027333 5.942645,1.680498 0.645372,0.325004 1.626733,1.010619 2.180803,1.523589 1.029487,0.953125 1.28072,1.306432 2.946429,4.143544 0.525502,0.895055 1.429741,2.215359 2.009411,2.934006 1.15676,1.434087 2.9743,4.040969 3.6872,5.2885 l 0.45508,0.796367 h 4.19712 4.1971 l -1.76928,-1.886143 C 109.82181,46.917999 67.31446,4.5782123 66.274483,3.6687676 65.752678,3.2124533 65.663712,3.1874249 65.26854,3.38578 65.030107,3.5054606 56.497619,11.962295 46.307455,22.178747 25.644873,42.894633 18.310058,50.33362 18.310058,50.573776 c 0,0.100935 1.526559,0.145003 4.050562,0.117004 l 4.050563,-0.0449 0.685763,-1.147499 c 0.377169,-0.631129 1.765582,-2.592721 3.085362,-4.359096 1.319779,-1.766375 2.751035,-3.889183 3.180568,-4.717348 1.573083,-3.033006 3.796186,-4.636394 7.695083,-5.549991 2.382265,-0.558215 3.913777,-0.611712 4.745678,-0.165765 0.999993,0.536054 3.250282,2.955901 3.832776,4.12157 0.615686,1.2321 0.655619,1.809527 0.19145,2.768371 -0.552748,1.141826 -2.415264,3.188329 -3.284767,3.609243 -0.690387,0.334209 -0.936272,0.362963 -2.30583,0.269608 -0.84317,-0.05744 -1.837536,-0.151303 -2.209701,-0.208494 l -0.676667,-0.103996 -0.870197,1.73575 c -0.85651,1.70846 -2.074109,4.847571 -1.938767,4.998378 0.03807,0.04243 0.612929,0.05826 1.277468,0.03522 1.34512,-0.04668 3.578538,0.298965 4.477574,0.692952 0.784821,0.343936 0.647958,0.36736 2.126216,-0.363826 z m 21.206934,-3.049809 c 1.236549,-0.416573 2.744267,-1.41141 3.529699,-2.329012 1.352303,-1.579862 2.274014,-4.291844 2.424591,-7.133959 0.209895,-3.961782 -0.845172,-6.5558 -3.309681,-8.137271 -2.560439,-1.643028 -6.474091,-1.627916 -9.084206,0.03507 -2.553059,1.626644 -3.636875,4.177469 -3.430073,8.072883 0.161426,3.040675 1.075875,5.64984 2.557811,7.29812 0.835762,0.929562 2.395133,1.95794 3.486673,2.299394 1.062664,0.332412 2.656171,0.288576 3.825186,-0.105182 z"
     id="path116" /><path
     style="fill:#ffffff;stroke:none;stroke-width:2.31972;stroke-dasharray:none"
     d="m 44.117619,52.507042 c -0.964743,-0.351703 -2.963027,-0.647301 -4.38235,-0.64826 l -1.148596,-6.25e-4 0.174472,-0.560958 c 0.355305,-1.142364 0.901381,-2.456781 1.759255,-4.234576 0.879118,-1.821823 0.881886,-1.825607 1.282192,-1.753413 1.047191,0.188847 3.993445,0.246266 4.47536,0.08721 0.923651,-0.304833 3.061223,-2.567495 3.649018,-3.862558 0.465722,-1.026095 0.288128,-1.990413 -0.621273,-3.373521 -0.615599,-0.936259 -2.84897,-3.211554 -3.472211,-3.53739 -1.03572,-0.541482 -4.247668,-0.143919 -7.033363,0.870567 -2.156765,0.785439 -4.054203,2.348045 -5.111959,4.209869 -0.882453,1.553259 -1.941172,3.13572 -3.894222,5.820665 -1.081953,1.487407 -2.284497,3.209234 -2.67232,3.826287 l -0.705136,1.121914 -1.081668,0.08589 c -1.396498,0.110893 -5.978728,0.106799 -6.493251,-0.0058 l -0.395969,-0.08665 1.705535,-1.778586 C 23.447808,45.249096 56.534677,12.012921 60.988645,7.6651789 l 4.505343,-4.3978914 0.410884,0.2402121 C 66.351054,3.7683466 111.48582,48.699761 112.53155,49.92411 l 0.63716,0.745983 h -4.093 c -3.87018,0 -4.09722,-0.01332 -4.17069,-0.244799 -0.13492,-0.425063 -2.08006,-3.303142 -3.72889,-5.517354 -0.87336,-1.172836 -2.115492,-3.014094 -2.760272,-4.091683 -1.912698,-3.196572 -3.49131,-4.557212 -6.386988,-5.50506 -2.124679,-0.695479 -3.96386,-1.052382 -5.030007,-0.976099 -1.169109,0.08365 -1.992392,0.569019 -3.490207,2.057661 -2.553737,2.538099 -2.938051,4.002616 -1.585082,6.040339 0.741214,1.116344 2.18353,2.571715 2.836487,2.862156 0.526069,0.234002 0.818504,0.254721 2.96977,0.210402 l 2.386242,-0.04916 0.425233,0.791937 c 0.552452,1.028857 1.260329,2.708141 1.827543,4.335441 0.249159,0.714823 0.453016,1.32114 0.453016,1.347376 0,0.02624 -0.579107,0.01466 -1.286902,-0.02567 -1.497176,-0.08536 -3.573104,0.186865 -4.64407,0.608998 l -0.695541,0.274155 -1.159804,-0.534255 c -1.574266,-0.725179 -2.888398,-1.159361 -4.20905,-1.390647 -1.421416,-0.248934 -2.438125,-0.244552 -4.20239,0.01811 -2.049889,0.305182 -3.490691,0.05813 -4.178351,-0.716457 -0.24525,-0.276248 -0.241266,-0.286399 0.409174,-1.042084 1.564491,-1.817643 2.24299,-3.101803 3.032911,-5.740229 0.483694,-1.615612 0.485755,-1.632842 0.493506,-4.130187 0.0069,-2.226072 -0.02652,-2.633401 -0.297636,-3.625791 -0.989716,-3.622858 -4.076924,-6.765108 -7.481981,-7.615377 -1.450846,-0.362291 -4.690532,-0.330821 -6.045027,0.05871 -3.666251,1.05437 -6.368194,3.99805 -7.380597,8.040918 -0.390888,1.560942 -0.416501,4.481352 -0.05302,6.045311 0.624242,2.685961 1.863206,5.311724 3.214016,6.811526 l 0.845859,0.939164 -0.293117,0.312011 c -0.616172,0.655885 -1.233841,0.765139 -3.589734,0.634955 -4.534326,-0.250559 -5.7288,-0.08906 -8.429173,1.139673 -0.824677,0.375246 -1.618204,0.703721 -1.763395,0.729938 -0.145187,0.0262 -0.590654,-0.07142 -0.989922,-0.216976 z"
     id="path117" /><path
     style="fill:#ffffff;stroke:none;stroke-width:2.31972;stroke-dasharray:none"
     d="m 31.136151,132.07482 c -0.04578,-0.38112 -0.08375,-15.37926 -0.08438,-33.329204 l -0.0013,-32.636255 0.494961,0.223148 c 1.033948,0.466142 3.849574,1.362082 5.180602,1.64848 1.232723,0.265243 1.765164,0.29884 4.817628,0.303974 2.776301,0.0046 3.690955,-0.04075 4.788972,-0.237766 0.984844,-0.176718 1.404513,-0.204308 1.529529,-0.100558 0.09476,0.07864 0.247938,0.485214 0.340395,0.903488 0.357156,1.615761 0.856138,2.950413 1.863416,4.984177 0.919379,1.85628 1.069942,2.263572 1.244217,3.365738 0.306405,1.937821 0.501018,5.435498 0.403436,7.250786 -0.106928,1.989184 -0.272663,2.835898 -1.874773,9.577919 -2.500656,10.523293 -3.336923,15.596393 -4.003401,24.286123 -0.150332,1.96005 -0.360258,4.08035 -0.466505,4.71178 -0.10625,0.63142 -0.694637,2.73997 -1.307528,4.68563 -0.61289,1.94567 -1.211596,3.87912 -1.330459,4.29654 l -0.216107,0.75893 H 36.86704 31.219231 Z"
     id="path118" /><path
     style="fill:#ffffff;stroke:none;stroke-width:2.31972;stroke-dasharray:none"
     d="m 58.121805,132.64677 c -0.154579,-0.0979 -0.15855,-0.25369 -0.02433,-0.95491 0.372333,-1.94527 1.285424,-5.20182 2.208067,-7.87511 0.543296,-1.57414 1.79111,-5.23789 2.772923,-8.14167 0.981815,-2.90378 1.96845,-5.72199 2.192527,-6.2627 l 0.407414,-0.98312 0.250349,0.58714 c 0.368523,0.8643 4.693627,13.77279 5.923786,17.67984 1.33921,4.25339 1.742253,5.89463 1.472947,5.99796 -0.321887,0.12352 -15.006031,0.0777 -15.203678,-0.0474 z"
     id="path119" /><path
     style="fill:#000000;stroke:none;stroke-width:2.31972;stroke-dasharray:none"
     d="m 88.85227,132.41175 c -0.244074,-0.64197 -1.55194,-4.69154 -2.037498,-6.30875 -0.897574,-2.98951 -0.972063,-3.4168 -1.185099,-6.7982 -0.566269,-8.98803 -1.331202,-13.65576 -4.01487,-24.499298 -2.153338,-8.700696 -2.376721,-10.100583 -2.129322,-13.343999 0.306022,-4.01205 0.685584,-5.718157 1.652257,-7.426773 0.808773,-1.429529 1.305329,-2.626329 1.824321,-4.396985 0.250966,-0.856219 0.495361,-1.595823 0.543098,-1.64356 0.04774,-0.04774 0.901374,0.01533 1.89697,0.140116 2.932616,0.367612 6.997921,0.25952 9.531573,-0.253434 0.54446,-0.110227 1.875377,-0.494251 2.957593,-0.85338 1.082217,-0.359129 1.980191,-0.637585 1.995486,-0.618785 0.01531,0.01879 0.0595,14.957274 0.0983,33.196621 l 0.0705,33.162437 h -5.533978 -5.53397 z"
     id="path120" /><path
     style="fill:#000000;stroke:none;stroke-width:2.31972;stroke-dasharray:none"
     d="m 45.502826,132.53679 c 0.188328,-0.465 2.023175,-6.1998 2.290986,-7.16045 0.544877,-1.95453 0.689224,-2.99845 0.811444,-5.86843 0.181998,-4.27363 0.804164,-9.82778 1.53085,-13.66607 0.474238,-2.50489 1.839725,-8.263392 3.192408,-13.462961 l 1.150307,-4.421661 v -4.421659 c 0,-6.11772 -0.193463,-7.21115 -1.916828,-10.833686 -1.187013,-2.495121 -1.556812,-3.657909 -2.113919,-6.646948 -0.499407,-2.679488 -0.705107,-3.388308 -1.129725,-3.892938 -0.279775,-0.332494 -0.438615,-0.404659 -0.889796,-0.404252 -0.711523,6.25e-4 -1.301702,0.36862 -1.600254,0.997767 -0.222926,0.469786 -0.224561,0.543377 -0.02583,1.164804 0.16455,0.514552 0.175886,0.685891 0.05054,0.76388 -0.421407,0.262203 -3.169564,0.79599 -4.43705,0.861829 -3.138295,0.163015 -7.240122,-0.677726 -10.376591,-2.126864 -2.362655,-1.091617 -4.801681,-3.10104 -5.278052,-4.348397 -0.211393,-0.55353 -0.220242,-0.727273 -0.07767,-1.52506 0.455332,-2.547877 2.733858,-6.692923 6.585283,-11.979802 0.960965,-1.319127 2.139185,-3.041595 2.618264,-3.827707 1.445664,-2.372155 1.966057,-2.882879 3.624115,-3.556781 0.820084,-0.333315 3.852828,-0.974271 4.609857,-0.974271 0.598327,0 1.282124,0.472678 2.116535,1.46307 0.821932,0.975581 1.047679,1.324081 1.047679,1.617378 0,0.369301 -0.873169,1.492935 -1.617142,2.081012 -0.765667,0.605224 -1.068801,0.632911 -2.738523,0.250122 -1.511759,-0.346578 -2.501622,-0.344664 -2.947035,0.0057 -0.452597,0.356014 -2.315438,4.102077 -3.377409,6.791778 -1.195871,3.028836 -1.325511,3.254151 -2.214065,3.848035 -0.546144,0.365027 -0.811296,0.64508 -0.943877,0.996923 -0.237773,0.630994 -0.105473,1.351961 0.327538,1.784978 0.430803,0.430802 0.798726,0.371278 2.502185,-0.404821 1.827484,-0.832602 2.668162,-1.048281 4.076212,-1.045758 1.49841,0.0028 2.217879,0.169631 3.655957,0.848342 l 1.145494,0.540625 0.966342,-0.550916 c 1.477112,-0.842111 2.776932,-1.439616 3.627623,-1.667567 1.002519,-0.268629 3.732987,-0.26807 6.162219,0.0013 2.681735,0.29733 3.172318,0.169138 4.831612,-1.26252 l 0.939674,-0.810763 0.819981,0.24429 c 1.179579,0.351424 4.91779,0.355311 6.203103,0.0065 l 0.895471,-0.243051 0.725788,0.639108 c 1.424726,1.254572 1.61929,1.359286 2.763205,1.487169 1.023851,0.114461 1.504293,0.08579 4.409111,-0.263105 2.643312,-0.317487 4.813983,0.228592 7.593857,1.910393 0.431295,0.260932 0.893041,0.47442 1.026101,0.47442 0.133062,0 0.537092,-0.203035 0.897848,-0.451192 0.823243,-0.566289 2.099225,-0.868707 3.665326,-0.868707 1.419463,0 2.692075,0.3033 4.322545,1.030183 1.76065,0.784915 1.949504,0.803602 2.50521,0.247898 0.349317,-0.349317 0.459742,-0.570363 0.459742,-0.920283 0,-0.579394 -0.246579,-0.876656 -1.31004,-1.579313 l -0.84807,-0.560348 -0.680622,-2.111835 c -1.412711,-4.383385 -3.083125,-7.828432 -4.0343,-8.320303 -0.510333,-0.263905 -0.906868,-0.240959 -2.366254,0.136932 -0.689649,0.178578 -1.550425,0.325873 -1.912842,0.327331 -0.646777,0.0025 -0.676127,-0.01517 -1.590852,-0.963111 -0.512553,-0.531166 -1.010553,-1.155604 -1.106666,-1.387642 -0.161889,-0.390838 -0.147773,-0.460817 0.191805,-0.950831 0.624492,-0.901143 2.113235,-2.215845 2.615973,-2.310162 0.543859,-0.102024 3.174264,0.370785 4.557676,0.819233 1.889548,0.612522 2.535191,1.171925 3.934869,3.409265 0.499564,0.798538 1.635012,2.475062 2.523218,3.725608 2.529183,3.560959 3.930263,5.765936 4.845193,7.625203 1.48708,3.021932 2.02639,5.058569 1.6453,6.213257 -0.21416,0.648917 -1.82528,2.258356 -3.13747,3.134207 -3.223174,2.151375 -8.502682,3.576203 -12.38589,3.342699 -1.445971,-0.08695 -3.872908,-0.550875 -4.223713,-0.807392 -0.190929,-0.139612 -0.197356,-0.239924 -0.05371,-0.838686 0.146138,-0.609169 0.136976,-0.724929 -0.08783,-1.109857 -0.492995,-0.844118 -1.583288,-1.266851 -2.290805,-0.888197 -0.475708,0.254591 -0.771083,1.144633 -1.365713,4.115224 -0.685084,3.422492 -0.787284,3.730457 -2.274484,6.854019 -1.649272,3.463958 -1.895131,4.883409 -1.895131,10.941431 V 87.5153 l 0.981495,3.718735 c 2.13209,8.078158 3.088684,12.230755 3.823213,16.596655 0.696635,4.14065 0.877327,6.01226 1.260679,13.05807 0.138768,2.55049 0.113783,2.44027 1.720476,7.58943 0.498336,1.59707 0.996323,3.21559 1.106638,3.59672 l 0.200571,0.69295 h -4.734289 -4.734284 l -0.136633,-0.42895 c -0.07514,-0.23593 -0.382919,-1.52778 -0.683946,-2.87077 -0.301023,-1.343 -0.804815,-3.30305 -1.119531,-4.35567 -0.527079,-1.7629 -6.507219,-19.37372 -7.193616,-21.18436 -0.741296,-1.95547 -2.033026,-2.17582 -2.88253,-0.4917 -0.530061,1.05082 -1.230509,3.03732 -3.780247,10.72091 -1.216537,3.66601 -2.58703,7.72305 -3.04554,9.01565 -0.819306,2.30972 -1.658997,5.57598 -2.11906,8.24281 l -0.233257,1.3521 h -4.869991 c -4.58573,0 -4.86453,-0.0135 -4.776438,-0.23098 z"
     id="path121" /><path
     style="fill:#000000;stroke:none;stroke-width:2.31972;stroke-dasharray:none"
     d="m 64.145023,49.347412 c -1.120391,-0.283883 -2.772182,-1.347594 -3.744277,-2.41122 -1.618057,-1.770413 -2.556186,-4.744394 -2.556186,-8.103419 0,-2.792877 0.612647,-4.50688 2.165654,-6.05886 3.036298,-3.034286 8.378407,-3.092245 11.373218,-0.123393 1.330042,1.31851 1.982367,2.982003 2.123267,5.414547 0.200274,3.457557 -0.948251,7.289363 -2.709873,9.040906 -0.85616,0.851261 -2.068182,1.62205 -3.14657,2.001074 -0.858304,0.30167 -2.751035,0.431461 -3.505233,0.240365 z"
     id="path122" /><path
     style="fill:#000000;stroke:none;stroke-width:2.31972;stroke-dasharray:none"
     d="m 30.192691,135.31901 c -0.615074,-0.32121 -1.117127,-0.84374 -1.464195,-1.52394 l -0.317665,-0.62255 V 98.808872 64.445237 l -1.12343,-0.903513 c -1.286802,-1.034902 -2.174918,-2.055887 -2.709574,-3.114936 -0.445732,-0.882918 -0.78664,-2.133153 -0.78664,-2.884899 0,-0.422458 0.681645,-2.828375 1.149357,-4.056736 0.04401,-0.115602 -0.952923,-0.165648 -3.943964,-0.197984 l -4.00287,-0.04328 -0.615465,-0.361805 C 15.320473,52.260276 14.84873,51.064767 15.212102,49.926803 15.345807,49.508085 19.725216,45.066972 39.546628,25.249416 52.840941,11.957693 63.927066,0.92844829 64.182463,0.73998721 64.437856,0.55152582 64.921326,0.32391032 65.256837,0.23417504 66.574102,-0.11814025 65.254681,-1.3329787 85.54525,18.915656 c 17.84019,17.803401 28.9812,29.059405 30.02519,30.335109 0.85449,1.044155 0.89052,1.937029 0.12287,3.044752 -0.60345,0.870783 -0.79375,0.906506 -5.34312,1.003044 -2.22861,0.04729 -4.08938,0.123336 -4.13503,0.168993 -0.0457,0.04566 0.0751,0.518871 0.26839,1.051591 0.46559,1.283303 0.8508,3.046147 0.85434,3.90974 0.003,0.813174 -0.31014,1.50979 -1.25885,2.797505 -0.78347,1.063448 -2.35762,2.626432 -2.97907,2.95794 l -0.46726,0.249259 -0.0901,34.718678 -0.0901,34.718673 -0.33142,0.43452 c -0.18229,0.239 -0.52276,0.57703 -0.75659,0.75121 l -0.42516,0.31667 -35.175285,0.0762 c -31.771138,0.0689 -35.213608,0.0562 -35.571258,-0.13055 z m 12.606993,-2.98021 c 0.07927,-0.30853 0.582653,-1.95675 1.118625,-3.66272 1.637801,-5.21301 1.657369,-5.30707 1.977033,-9.50327 0.724841,-9.51499 1.50803,-14.31992 4.103541,-25.17553 1.87049,-7.823254 1.824328,-7.542537 1.817984,-11.055674 -0.0057,-3.138019 -0.233111,-5.593578 -0.654055,-7.061457 -0.1145,-0.399268 -0.496853,-1.261482 -0.849675,-1.916028 -0.810532,-1.503667 -1.357589,-2.827939 -1.704867,-4.126978 -0.149743,-0.560147 -0.33178,-1.237594 -0.404521,-1.50544 -0.07764,-0.285888 -0.23634,-0.520025 -0.384306,-0.566989 -0.138629,-0.044 -0.775817,0.01783 -1.415981,0.137355 -1.525863,0.284937 -6.179661,0.406448 -7.8812,0.205773 -1.685106,-0.198738 -4.522888,-0.93746 -6.125159,-1.594488 -0.714144,-0.292842 -1.338952,-0.532439 -1.388455,-0.532439 -0.11429,0 -0.119415,65.014905 -0.0052,66.107535 l 0.0848,0.8113 h 5.783662 5.783664 z m 12.933299,-1.94685 c 0.679303,-3.3198 1.058095,-4.7465 1.857306,-6.99546 0.37407,-1.05262 1.822758,-5.35879 3.219303,-9.56927 3.388377,-10.21568 3.770754,-11.1402 4.69609,-11.35435 0.436549,-0.10103 0.965243,0.30943 1.337794,1.03863 0.292781,0.57305 1.318198,3.51876 4.946396,14.20942 2.406762,7.09165 2.98224,8.98335 3.665017,12.04759 0.255197,1.14529 0.527739,2.31909 0.605649,2.60842 l 0.141657,0.52608 4.845103,-0.0346 4.845099,-0.0346 -0.03676,-0.32998 c -0.0202,-0.18148 -0.626468,-2.23062 -1.347226,-4.55364 -0.720757,-2.32302 -1.368354,-4.58005 -1.439106,-5.01561 -0.07075,-0.43557 -0.164463,-1.68287 -0.208247,-2.77179 -0.377233,-9.3818 -1.276893,-14.687 -4.708921,-27.767892 L 76.82307,87.329256 76.88723,82.89163 c 0.0841,-5.817217 0.194229,-6.394512 1.923705,-10.084767 1.343767,-2.867237 1.663749,-3.854452 2.255232,-6.957886 0.508289,-2.666917 0.722977,-3.351564 1.158366,-3.694041 0.583318,-0.458838 1.17123,-0.355209 1.853078,0.326638 0.502613,0.502614 0.579525,0.647501 0.507965,0.956927 -0.250277,1.082229 -0.247665,1.32568 0.01573,1.466647 0.141933,0.07596 0.876562,0.271031 1.632508,0.433499 1.957163,0.420621 5.230077,0.421225 7.35805,0.0013 2.906742,-0.57353 6.295187,-1.931872 8.187376,-3.282118 1.29468,-0.923854 2.44698,-2.131392 2.72259,-2.853076 0.46264,-1.211377 0.004,-3.188111 -1.43002,-6.168024 -0.93567,-1.943859 -2.23267,-4.015988 -4.620702,-7.382249 -1.055727,-1.488185 -2.314171,-3.34211 -2.796539,-4.119832 -1.207807,-1.947339 -1.736815,-2.512727 -2.874327,-3.071986 -1.072065,-0.527083 -2.996214,-1.04872 -4.710095,-1.276908 -1.140079,-0.151789 -1.165036,-0.14905 -1.74635,0.191624 -0.681,0.399089 -2.011472,1.786263 -2.306356,2.404641 -0.184582,0.387072 -0.181086,0.465483 0.04169,0.934945 0.133743,0.281842 0.637747,0.914131 1.120012,1.405082 0.862228,0.877753 0.888417,0.892638 1.570595,0.892638 0.38156,0 1.369862,-0.159232 2.196226,-0.353848 1.428171,-0.336346 1.524696,-0.343257 1.951623,-0.139669 1.025985,0.48926 2.591252,3.690552 4.232452,8.656236 l 0.625718,1.893201 0.609554,0.350627 c 1.637642,0.942004 1.916735,1.846339 0.795052,2.576177 -0.395888,0.257589 -0.395475,0.257699 -2.622632,-0.685529 -1.587747,-0.672428 -2.68512,-0.86435 -4.470466,-0.781849 -1.544516,0.07137 -2.405496,0.310128 -3.274721,0.908104 -0.303455,0.208759 -0.595242,0.379564 -0.64841,0.379564 -0.05316,0 -0.725514,-0.352563 -1.494099,-0.78347 -2.554766,-1.432333 -4.698248,-1.911109 -7.184485,-1.604761 -0.737222,0.09083 -1.776985,0.217673 -2.310593,0.281848 -1.10249,0.132605 -2.729152,-0.02752 -3.286863,-0.323506 -0.199423,-0.105851 -0.767919,-0.561457 -1.263321,-1.012468 l -0.900733,-0.820022 -1.079115,0.250335 c -1.588631,0.368532 -4.959247,0.340533 -6.149831,-0.05108 l -0.847042,-0.278618 -0.736837,0.674868 c -1.821522,1.668333 -2.214561,1.789227 -4.866094,1.49676 -2.472342,-0.272706 -5.347693,-0.27091 -6.410876,0.004 -0.847695,0.219192 -2.035127,0.772822 -3.529629,1.645659 l -0.88375,0.516138 -1.102579,-0.512861 c -1.356068,-0.630774 -2.349465,-0.849628 -3.808375,-0.839021 -1.414816,0.01024 -2.443589,0.278999 -4.27984,1.117881 -1.655496,0.756301 -1.957111,0.752842 -2.358964,-0.02708 -0.446077,-0.865749 -0.09351,-1.664344 1.00812,-2.283498 0.655969,-0.368673 0.918949,-0.841679 2.068572,-3.720627 1.155675,-2.894099 2.69076,-6.023279 3.247723,-6.620299 0.362526,-0.388599 0.491641,-0.441155 1.083805,-0.441155 0.369737,0 1.181713,0.11879 1.804387,0.263977 1.652124,0.385228 2.084113,0.355262 2.83608,-0.196733 0.826555,-0.606749 1.717569,-1.767169 1.717569,-2.236892 0,-0.550094 -0.928611,-1.775797 -2.081147,-2.746972 -0.709407,-0.597778 -1.063276,-0.62276 -3.158749,-0.222998 -1.802139,0.343801 -2.455252,0.535197 -3.422629,1.002999 -1.056627,0.510969 -1.790752,1.306218 -2.916981,3.159862 -0.524878,0.863891 -1.369096,2.134967 -1.87604,2.824613 -2.897783,3.942143 -4.488431,6.393996 -5.750013,8.86317 -1.661818,3.252515 -2.098115,5.293415 -1.367636,6.397498 2.469512,3.732545 10.303905,6.62104 16.325229,6.01901 1.490174,-0.148991 3.598282,-0.646735 3.863833,-0.912285 0.07903,-0.07903 0.05034,-0.337641 -0.07774,-0.700632 -0.158681,-0.449753 -0.171724,-0.67013 -0.05974,-1.009444 0.345652,-1.047328 1.594876,-1.455733 2.26258,-0.739698 0.446831,0.479173 0.657811,1.195637 1.224018,4.156623 0.555404,2.904503 0.918745,4.024736 2.087336,6.43556 1.625518,3.353474 1.815528,4.363363 1.899773,10.097222 l 0.06401,4.355663 -1.64614,6.599492 c -2.439886,9.781694 -2.927595,12.084664 -3.511288,16.580354 -0.439189,3.38266 -0.670479,5.97896 -0.798537,8.96367 -0.160735,3.74643 -0.352884,4.63248 -2.307216,10.63928 -0.475616,1.46184 -0.864753,2.695 -0.864753,2.74038 0,0.0454 2.233755,0.0669 4.963904,0.0479 l 4.963905,-0.0346 z m 17.866993,2.37125 c 0.253829,-0.25407 -1.116573,-4.81203 -4.463102,-14.84429 -2.515926,-7.54227 -3.246071,-9.56926 -3.446941,-9.56926 -0.2794,0 -0.660116,1.02482 -3.358797,9.0413 -0.928654,2.75859 -2.027312,5.99159 -2.441465,7.18445 -0.77522,2.23281 -1.856505,6.28386 -1.998268,7.48654 -0.06981,0.5922 -0.04817,0.68847 0.167483,0.74519 0.334717,0.0881 15.451939,0.0453 15.54109,-0.044 z M 100.11227,99.539327 c -0.0351,-18.348235 -0.0739,-33.372913 -0.0861,-33.388177 -0.0123,-0.01526 -0.673044,0.2115 -1.468415,0.503914 -3.09034,1.136143 -4.700852,1.422484 -8.573587,1.524349 -2.152876,0.05662 -3.10436,0.02561 -4.261209,-0.138868 -0.819184,-0.116474 -1.686999,-0.211774 -1.928474,-0.211774 -0.430385,0 -0.444766,0.01888 -0.728844,0.956926 -0.691673,2.283944 -1.140009,3.430255 -1.922967,4.916621 -1.027787,1.951163 -1.198403,2.517326 -1.511484,5.015613 -0.684747,5.464034 -0.601522,6.168769 1.965631,16.644579 2.605991,10.63429 3.331961,15.10545 3.908879,24.07428 0.214507,3.33475 0.222387,3.38652 0.855931,5.62119 0.574422,2.02612 2.309937,7.49431 2.457435,7.74279 0.03232,0.0544 2.600913,0.099 5.70798,0.099 h 5.649214 z M 46.324082,52.396198 c 1.552843,-0.750939 2.807952,-1.175138 4.177183,-1.411795 1.052634,-0.181933 1.511047,-0.187596 3.60953,-0.04458 2.868688,0.195507 3.84387,0.133718 4.450585,-0.282011 0.848212,-0.581202 0.841792,-0.678045 -0.119296,-1.799937 -0.997858,-1.164817 -2.122896,-3.256599 -2.697925,-5.016251 -1.177465,-3.603185 -1.024666,-7.02724 0.447021,-10.017219 1.150507,-2.337449 2.629943,-3.897809 4.623152,-4.876036 1.497414,-0.734897 2.428235,-0.97889 4.092269,-1.072685 3.30245,-0.186145 5.642259,0.620339 7.875611,2.714564 2.478111,2.323735 3.540924,4.903164 3.540924,8.593764 0,1.844706 -0.238339,3.220272 -0.874758,5.048659 -0.753012,2.16335 -1.32865,3.168937 -2.725776,4.76168 l -0.787761,0.898054 0.313294,0.340779 c 0.774905,0.842896 2.293932,1.107877 4.461223,0.77822 2.927517,-0.445291 4.848282,-0.141939 8.00568,1.264359 l 1.462437,0.651365 0.979375,-0.327984 c 1.331709,-0.445976 3.087271,-0.661175 4.592098,-0.562905 l 1.23691,0.08078 -0.08031,-0.401543 c -0.133662,-0.668315 -1.610909,-4.39342 -2.151303,-5.424835 l -0.506181,-0.966126 -2.447487,0.04962 c -2.931814,0.05945 -3.005424,0.03486 -4.450179,-1.48609 -1.062134,-1.118152 -1.547529,-1.82315 -1.911509,-2.77631 -0.213382,-0.558787 -0.226574,-0.737746 -0.09488,-1.286749 0.222444,-0.927247 1.056941,-2.128021 2.383259,-3.429317 1.444904,-1.417646 2.434144,-1.960313 3.573498,-1.960313 1.56687,0 5.343018,1.073323 6.838712,1.943821 1.471655,0.856507 2.829357,2.338927 4.143085,4.523682 0.632959,1.052619 1.499026,2.389015 1.924577,2.96977 2.14584,2.928361 3.58712,4.980734 4.12473,5.873549 l 0.59607,0.989922 4.24217,0.03483 c 3.34696,0.02749 4.24315,-3.13e-4 4.24686,-0.131988 0.005,-0.178248 -44.203252,-44.3368586 -46.363433,-46.3113485 -0.706319,-0.6456036 -1.375559,-1.173825 -1.4872,-1.173825 -0.319939,0 -10.811885,10.3846505 -28.905972,28.6103675 -16.195219,16.313033 -18.526747,18.703978 -18.381156,18.849569 0.153867,0.153866 2.962021,0.21811 5.522341,0.126335 l 2.716155,-0.09736 0.439916,-0.745226 c 0.241954,-0.409878 1.068826,-1.62074 1.837496,-2.690807 3.101199,-4.317196 3.736391,-5.244693 4.588321,-6.699757 1.252523,-2.139275 2.684891,-3.568048 4.412078,-4.401006 1.492657,-0.719853 3.100105,-1.196396 4.986858,-1.478407 2.370011,-0.354241 2.962852,-0.137882 4.773724,1.742172 1.678793,1.742931 2.501066,3.096661 2.501066,4.117572 0,0.695534 -0.775464,1.968616 -1.952589,3.205572 -1.602259,1.6837 -1.771819,1.754039 -3.984704,1.652983 -0.981261,-0.04481 -2.024261,-0.118646 -2.31778,-0.164078 l -0.533667,-0.0826 -0.871598,1.828582 c -0.808258,1.695698 -1.684822,3.868917 -1.887783,4.680274 l -0.08603,0.343891 1.758384,0.07339 c 1.789506,0.07469 3.236824,0.315677 4.068207,0.677383 0.679358,0.295566 0.895776,0.263598 2.074474,-0.306405 z M 67.8641,49.177521 c 2.088362,-0.843528 3.512874,-2.089432 4.35166,-3.806043 1.042213,-2.132922 1.576987,-4.907362 1.425539,-7.395775 -0.147633,-2.425786 -0.816309,-4.133958 -2.135698,-5.455742 -2.82719,-2.832327 -8.276349,-2.91758 -11.337747,-0.177375 -0.961575,0.860689 -1.548734,1.761926 -2.023185,3.105408 -0.351042,0.994031 -0.364552,1.128249 -0.356393,3.541002 0.0078,2.28764 0.03945,2.623074 0.361366,3.82078 0.514013,1.912457 1.284159,3.378684 2.330633,4.437141 0.978837,0.990047 2.367717,1.864946 3.435818,2.164323 1.066513,0.298935 2.897668,0.190534 3.948007,-0.233719 z"
     id="path123" /><path
     style="fill:#000000;stroke:none;stroke-width:2.31972;stroke-dasharray:none"
     d="m 30.192691,135.31901 c -0.615074,-0.32121 -1.117127,-0.84374 -1.464195,-1.52394 l -0.317665,-0.62255 V 98.808872 64.445237 l -1.140044,-0.915033 c -1.809366,-1.452243 -2.828272,-2.891528 -3.283058,-4.637566 -0.306001,-1.174819 -0.240327,-1.799126 0.390282,-3.710114 0.39515,-1.197459 0.530659,-1.773852 0.425466,-1.809725 -0.0849,-0.02895 -1.876825,-0.06979 -3.982062,-0.09077 L 16.99371,53.243892 16.378245,52.882087 C 15.320473,52.260276 14.84873,51.064767 15.212102,49.926803 15.345807,49.508085 19.725216,45.066972 39.546628,25.249416 52.840941,11.957693 63.927066,0.92844829 64.182463,0.73998721 64.437856,0.55152582 64.921326,0.32391032 65.256837,0.23417504 66.57468,-0.11829441 65.234791,-1.3530476 85.743851,19.113572 c 19.276839,19.236936 29.441269,29.529897 30.092429,30.472932 0.53502,0.774833 0.53765,1.627873 0.008,2.492674 -0.67381,1.099527 -0.77725,1.122577 -5.47675,1.220542 -2.23798,0.04665 -4.1064,0.122177 -4.15206,0.167834 -0.0456,0.04566 0.0751,0.518871 0.2684,1.051591 0.46559,1.283303 0.85079,3.046147 0.85433,3.90974 0.003,0.813174 -0.31013,1.50979 -1.25884,2.797505 -0.78347,1.06343 -2.35763,2.626428 -2.97906,2.957925 l -0.46723,0.249245 -0.0897,34.718066 -0.0897,34.718074 -0.3319,0.43514 c -0.18256,0.23934 -0.52323,0.57765 -0.75707,0.75183 l -0.42516,0.31667 -35.175284,0.0762 c -31.771138,0.0689 -35.213608,0.0562 -35.571258,-0.13055 z m 12.606993,-2.98021 c 0.07927,-0.30853 0.582653,-1.95675 1.118625,-3.66272 1.637801,-5.21301 1.657369,-5.30707 1.977033,-9.50327 0.73394,-9.63442 1.484052,-14.18315 4.280947,-25.959938 0.652012,-2.745419 1.289919,-5.526231 1.417567,-6.17958 0.444742,-2.276377 0.231851,-8.675976 -0.364436,-10.955158 -0.07597,-0.290375 -0.606639,-1.478285 -1.179263,-2.639794 -0.947407,-1.921716 -1.156596,-2.499365 -1.849282,-5.106637 -0.07645,-0.287727 -0.232513,-0.519721 -0.381432,-0.566989 -0.138629,-0.044 -0.775817,0.01783 -1.415981,0.137355 -1.525863,0.284937 -6.179661,0.406448 -7.8812,0.205773 -1.685106,-0.198738 -4.522888,-0.93746 -6.125159,-1.594488 -0.714144,-0.292842 -1.338952,-0.532439 -1.388455,-0.532439 -0.11429,0 -0.119415,65.014905 -0.0052,66.107535 l 0.0848,0.8113 h 5.783662 5.783664 z m 12.933393,-1.94685 c 0.714406,-3.49071 0.990332,-4.52721 1.878807,-7.05759 0.434068,-1.23623 1.901703,-5.60353 3.261409,-9.70512 3.307003,-9.97565 3.708485,-10.94255 4.632389,-11.15637 0.436336,-0.10098 0.9648,0.30907 1.338573,1.03863 0.302146,0.58976 1.328514,3.53799 4.946719,14.20942 2.487691,7.33714 2.948064,8.85153 3.662455,12.04759 0.256001,1.14529 0.529001,2.31835 0.606674,2.6068 l 0.141219,0.52444 h 4.804751 c 2.642612,0 4.836082,-0.0507 4.874376,-0.11265 0.07179,-0.11615 -0.338763,-1.52822 -1.817086,-6.24978 -1.013734,-3.23775 -1.096489,-3.73683 -1.27583,-7.69448 -0.383041,-8.45275 -1.348995,-13.96258 -4.593245,-26.199982 l -1.277199,-4.817627 9.38e-4,-4.487657 c 9.38e-4,-5.989434 0.16177,-6.89988 1.837461,-10.411474 1.36141,-2.852989 1.576421,-3.504382 2.252941,-6.825363 0.641249,-3.147872 0.808064,-3.672865 1.26979,-3.996271 0.571696,-0.400432 1.141395,-0.281061 1.799509,0.377055 0.502613,0.502614 0.579525,0.647501 0.507967,0.956927 -0.24717,1.068785 -0.246413,1.326367 0.0043,1.459541 0.13564,0.07206 0.840572,0.253489 1.566514,0.403193 4.257481,0.877965 8.815608,0.224079 13.248239,-1.900525 1.713592,-0.821344 2.766722,-1.533865 3.945112,-2.669156 1.36056,-1.310795 1.59444,-2.204759 1.0914,-4.171648 -0.7352,-2.874595 -2.49451,-5.990822 -6.864711,-12.159276 -0.720038,-1.01632 -1.653754,-2.411195 -2.074927,-3.099719 -0.963483,-1.575066 -1.785654,-2.414203 -2.856253,-2.9152 -0.998634,-0.467314 -2.984372,-0.988114 -4.57509,-1.199904 -1.140079,-0.151789 -1.165036,-0.14905 -1.74635,0.191623 -0.681,0.39909 -2.01147,1.786263 -2.306355,2.404642 -0.184582,0.387073 -0.181086,0.465483 0.04169,0.934946 0.133743,0.281842 0.637747,0.914129 1.120013,1.405082 0.862227,0.877753 0.888415,0.892636 1.570595,0.892636 0.381559,0 1.369861,-0.15923 2.196225,-0.353847 1.428172,-0.336346 1.524696,-0.343257 1.951622,-0.139669 1.013716,0.483407 2.590819,3.680402 4.163881,8.440728 l 0.685244,2.073661 0.836544,0.528323 c 0.934718,0.59033 1.256226,0.965394 1.250025,1.458251 -0.0049,0.388508 -0.192534,0.662729 -0.662854,0.968687 -0.398223,0.259051 -0.575022,0.217962 -2.302719,-0.535191 -1.81566,-0.791497 -2.298263,-0.89183 -4.289671,-0.89183 -1.977869,0 -2.626629,0.151304 -3.775569,0.880541 l -0.646091,0.410076 -0.659949,-0.363717 c -3.495434,-1.926438 -5.419427,-2.413682 -8.117374,-2.0557 -2.690057,0.356937 -3.212452,0.390706 -4.168608,0.269477 C 72.001886,53.551225 71.73668,53.416324 70.606076,52.37964 L 69.7065,51.554791 68.626232,51.805388 c -1.597031,0.370477 -4.959549,0.341008 -6.161189,-0.05399 L 61.6078,51.469604 61.013156,52.044297 c -1.777895,1.718251 -2.314395,1.888448 -5.047928,1.601387 -2.53633,-0.266354 -5.212972,-0.266666 -6.24316,-6.25e-4 -0.935948,0.241606 -2.131706,0.783151 -3.507509,1.588503 l -1.00497,0.588278 -0.974878,-0.460448 C 42.882665,54.7228 41.7595,54.463417 40.356056,54.465655 c -1.479057,0.0025 -2.467378,0.255666 -4.345835,1.113828 -1.655497,0.756302 -1.957111,0.752844 -2.358965,-0.02708 -0.445081,-0.863819 -0.09331,-1.664456 1.001702,-2.279885 0.669806,-0.376454 0.819187,-0.645283 2.069468,-3.72424 1.280341,-3.152987 2.685726,-6.013133 3.253247,-6.620792 0.362375,-0.388007 0.491881,-0.440661 1.083805,-0.440661 0.369736,0 1.181711,0.11879 1.804387,0.263978 1.806581,0.421241 2.23105,0.349539 3.254476,-0.549766 0.563861,-0.495477 1.299172,-1.557439 1.299172,-1.876314 0,-0.453265 -0.659896,-1.377448 -1.684078,-2.35855 -0.86947,-0.832898 -0.96914,-0.890932 -1.530137,-0.890932 -0.70583,0 -3.166719,0.449078 -4.111221,0.750238 -1.095514,0.349317 -2.155383,0.942198 -2.714799,1.518637 -0.291038,0.299898 -0.858247,1.085143 -1.26046,1.744995 -0.897681,1.472691 -1.758379,2.735752 -3.156062,4.631464 -2.969332,4.027371 -5.150147,7.786157 -5.996901,10.336074 -0.801463,2.413509 -0.705998,3.00209 0.730851,4.50602 1.163741,1.218076 2.328467,2.029001 4.179612,2.910003 3.526649,1.678409 7.809841,2.491115 11.287374,2.141708 1.462553,-0.146951 3.616557,-0.657175 3.877961,-0.918579 0.07067,-0.07067 0.03654,-0.352678 -0.08401,-0.694358 -0.158681,-0.449754 -0.171724,-0.670132 -0.05974,-1.009444 0.345652,-1.047329 1.594877,-1.455734 2.262581,-0.739698 0.448709,0.481189 0.663917,1.20916 1.220809,4.129573 0.554081,2.90566 0.841664,3.796649 2.043336,6.330621 1.688008,3.55952 1.86227,4.474822 1.947495,10.22921 l 0.06451,4.355664 -1.58395,6.335511 c -2.404078,9.61587 -3.001547,12.43134 -3.574502,16.84433 -0.43782,3.37217 -0.669818,5.97166 -0.805509,9.02568 -0.08499,1.91297 -0.215614,3.3091 -0.382811,4.09169 -0.241637,1.13102 -1.524173,5.3932 -2.378185,7.90329 -0.21928,0.6445 -0.366238,1.22432 -0.326574,1.2885 0.0403,0.0652 2.229049,0.10143 4.961249,0.0821 l 4.889134,-0.0346 z m 17.871827,2.36633 c 0.281788,-0.28204 -3.076542,-11.06162 -6.457315,-20.72668 -1.133868,-3.24155 -1.314542,-3.68195 -1.510497,-3.68195 -0.19486,0 -1.029463,2.31204 -3.898686,10.80023 -2.54719,7.5355 -3.610801,11.10903 -3.830993,12.87138 -0.07932,0.63491 -0.06072,0.72966 0.154459,0.78645 0.343938,0.0908 15.450966,0.0427 15.543032,-0.0495 z m 26.564216,-10.25273 c -0.0482,-5.7168 -0.0876,-20.73707 -0.0877,-33.378371 l -8e-5,-22.984178 -2.078846,0.699951 c -2.290715,0.77129 -3.503775,1.043381 -5.557557,1.246563 -1.946377,0.192556 -5.27131,0.162734 -6.816489,-0.06114 -2.010254,-0.291254 -2.147765,-0.27795 -2.370125,0.229364 -0.103414,0.23593 -0.40493,1.138831 -0.670037,2.006443 -0.306658,1.003587 -0.816992,2.22125 -1.40278,3.347044 -0.517804,0.995142 -1.026073,2.182095 -1.161402,2.712191 -0.37599,1.47281 -0.705351,4.708642 -0.700503,6.882168 0.0057,2.561849 0.207387,3.676915 1.945584,10.757172 2.953975,12.032503 3.650138,16.211813 4.232316,25.408043 l 0.217249,3.43173 0.705272,2.44182 c 0.733301,2.53886 1.752539,5.76645 2.198665,6.96246 l 0.258477,0.69294 h 5.6878 5.687806 z M 46.625499,52.259797 c 2.897814,-1.346615 4.100809,-1.524262 8.64526,-1.276651 2.446658,0.133308 2.963774,0.04405 3.61045,-0.623144 l 0.433421,-0.447181 -0.87078,-1.040254 c -1.560516,-1.864229 -2.877537,-4.862648 -3.321885,-7.562825 -0.840247,-5.105937 1.564927,-10.337455 5.680635,-12.356009 1.509718,-0.740441 2.437744,-0.984193 4.103415,-1.077779 2.365735,-0.13292 4.412082,0.301827 6.100288,1.296011 0.949346,0.559069 2.989732,2.567234 3.670367,3.612404 1.108267,1.701834 1.641929,3.763834 1.64473,6.355031 0.0022,1.890364 -0.230311,3.246811 -0.871943,5.09017 -0.78552,2.256742 -1.470417,3.425139 -2.988675,5.098529 l -0.518842,0.571859 0.309744,0.337001 c 0.764292,0.831555 2.302826,1.098328 4.457674,0.772932 2.932552,-0.442833 4.850062,-0.139637 8.00568,1.26587 l 1.462437,0.651365 0.979375,-0.327984 c 1.331709,-0.445976 3.087271,-0.661175 4.592098,-0.562905 l 1.23691,0.08078 -0.07655,-0.382763 C 92.77361,51.055768 91.500805,47.83456 90.865196,46.561023 l -0.61713,-1.23651 -2.447488,0.04962 c -2.941811,0.05964 -2.994439,0.04168 -4.502224,-1.536498 -1.043748,-1.092479 -1.604818,-1.921641 -1.920672,-2.838419 -0.396253,-1.150129 0.380077,-2.671188 2.349593,-4.603549 1.444904,-1.417646 2.434144,-1.960313 3.573498,-1.960313 1.565045,0 5.338487,1.071982 6.840992,1.943427 1.463641,0.848902 2.820613,2.333373 4.146275,4.535839 0.637463,1.05909 1.57395,2.484578 2.08107,3.167758 1.58995,2.141908 3.33597,4.633575 3.99199,5.696794 l 0.63115,1.022923 h 4.21001 c 3.27778,0 4.21095,-0.03653 4.21422,-0.164988 0.004,-0.17477 -43.460692,-43.5905823 -46.096643,-46.044325 -0.850231,-0.7914603 -1.604438,-1.4390185 -1.676016,-1.4390185 -0.07158,0 -0.474751,0.2924513 -0.895936,0.649892 C 63.052753,5.2422218 21.772908,46.606209 19.251565,49.3927 c -0.573041,0.633304 -1.0136,1.179752 -0.979021,1.214333 0.152832,0.152831 3.039138,0.222263 5.529003,0.133009 l 2.716155,-0.09737 0.440745,-0.745226 c 0.435773,-0.736824 1.208642,-1.843809 4.067136,-5.825402 0.807254,-1.124425 1.867206,-2.728101 2.35545,-3.563727 1.11444,-1.907356 2.652039,-3.509484 4.087449,-4.258995 1.852154,-0.967114 4.690619,-1.70693 6.649137,-1.733028 0.991676,-0.01323 1.191102,0.02574 1.717941,0.335465 0.677888,0.398539 2.630634,2.373199 3.276005,3.312769 1.060486,1.543919 1.175113,2.336576 0.516629,3.572514 -0.517189,0.970737 -2.447423,3.038832 -3.1897,3.417512 -0.48998,0.249968 -0.683165,0.2659 -2.318626,0.191214 -0.981261,-0.04481 -2.024621,-0.118692 -2.318576,-0.164184 l -0.534469,-0.08271 -0.868253,1.828684 c -0.810937,1.707974 -1.691767,3.889799 -1.88953,4.680384 l -0.08603,0.343891 1.758384,0.07339 c 1.771204,0.07392 3.28822,0.324642 4.093939,0.676604 0.668983,0.292236 0.838811,0.260293 2.350159,-0.442027 z m 20.44474,-2.848547 c 1.781957,-0.420044 3.630385,-1.697039 4.646924,-3.210351 1.543105,-2.297195 2.31423,-6.415024 1.783088,-9.521726 -0.677397,-3.962188 -3.589679,-6.335512 -7.774238,-6.335512 -3.135556,0 -5.977411,1.632386 -7.153585,4.109073 -0.723938,1.524409 -0.898376,2.589552 -0.818562,4.998224 0.154835,4.67249 1.619921,7.541086 4.787253,9.373281 1.316546,0.76158 2.911548,0.968305 4.52912,0.587011 z"
     id="path124" /><path
     style="fill:none;stroke:#000000;stroke-width:5.49574;stroke-dasharray:none"
     d="m 34.394705,56.870519 c 0.07175,-0.541833 -0.248451,-0.993802 -0.373326,-1.493293 -0.02999,-0.119904 -0.02915,-0.834332 0,-0.979976 0.02514,-0.125781 0.02967,-0.261953 0.09334,-0.373324 0.06548,-0.114593 0.197542,-0.176925 0.279994,-0.279993 0.105107,-0.131385 0.195214,-0.274652 0.27999,-0.419988 0.0437,-0.0749 0.138557,-0.30918 0.186663,-0.373326 0.02086,-0.02783 0.07544,-0.01686 0.09334,-0.04666 0.109453,-0.182418 0.100709,-0.452759 0.186661,-0.653317 -0.03302,-0.1593 0.136498,-0.179664 0.186663,-0.279991 0.120458,-0.240918 0.01372,-0.142768 0.186661,-0.373327 0.101798,-0.135731 0.08873,-0.319759 0.186661,-0.466651 0.09172,-0.137582 0.231835,-0.237864 0.326659,-0.373326 0.04956,-0.07081 0.29424,-0.448482 0.326658,-0.51332 0.05207,-0.104158 0.04745,-0.280773 0.139998,-0.373323 0.02858,-0.02858 0.122128,-0.03972 0.139996,-0.09334 0.04702,-0.141056 0.0355,-0.341246 0.139997,-0.466656 0.05633,-0.06761 0.141388,-0.111213 0.18666,-0.18666 0.06001,-0.100008 0.0836,-0.363596 0.186663,-0.466656 0.03965,-0.03964 0.100342,-0.05367 0.139996,-0.09334 0.149603,-0.149603 0.272011,-0.327582 0.373323,-0.513321 0.09131,-0.167388 0.06905,-0.403172 0.186662,-0.559984 0.178963,-0.238617 0.409753,-0.437074 0.559984,-0.699981 0.06903,-0.120797 0.137812,-0.243054 0.186662,-0.373324 0.02252,-0.06005 0.01798,-0.129298 0.04667,-0.18666 0.05015,-0.100332 0.132184,-0.18194 0.18666,-0.279994 0.07743,-0.139366 0.06584,-0.330695 0.139997,-0.466655 0.06408,-0.117466 0.169251,-0.209187 0.233327,-0.326659 0.04914,-0.09008 0.213254,-0.739603 0.233326,-0.839978 0.0122,-0.06101 0,-0.12444 0,-0.18666 0.03112,-0.06223 0.07134,-0.120667 0.09334,-0.186663 0.0098,-0.02952 -0.0151,-0.06614 0,-0.09334 0.398962,-0.718134 0.05511,0.01617 0.466655,-0.559988 0.01807,-0.02533 -0.01392,-0.0655 0,-0.09334 0.03936,-0.0787 0.141389,-0.111214 0.186662,-0.186662 0.05712,-0.0952 -0.0019,-0.253999 0.04666,-0.326658 0.01928,-0.02892 0.06874,-0.02208 0.09334,-0.04667 0.04918,-0.04918 0.03901,-0.143205 0.09334,-0.186661 0.0848,-0.06784 0.349173,-0.203958 0.466656,-0.233326 0.346355,-0.0866 0.716004,0.129781 1.02664,0.233326 0.299913,0.09998 0.627668,0.110256 0.93331,0.186661 0.09544,0.02387 0.182949,0.07717 0.27999,0.09334 0.332861,0.05548 0.734399,0 1.073308,0 0.378564,0 0.897315,0.06044 1.259966,0 0.323947,-0.05398 0.626128,-0.224264 0.93331,-0.326657 0.02952,-0.0098 0.06549,0.01392 0.09334,0 0.170814,-0.0854 0.424832,-0.284835 0.559985,-0.419988 0.02461,-0.02461 0.02645,-0.06503 0.04667,-0.09334 0.331829,-0.464566 0.05904,-0.0838 0.18666,-0.466655 0.02202,-0.066 0.07646,-0.119174 0.09334,-0.186661 0.0151,-0.06037 -0.01967,-0.127634 0,-0.186662 0.01391,-0.04175 0.07365,-0.05397 0.09334,-0.09334 0.06653,-0.133052 0.09006,-0.943129 0.04666,-1.073305 -0.05499,-0.164987 -0.132241,-0.325135 -0.233326,-0.466654 -0.04043,-0.05661 -0.137473,-0.04414 -0.186661,-0.09334 -0.134684,-0.134685 -0.175045,-0.402564 -0.279994,-0.559988 -0.202891,-0.304334 -0.465117,-0.558135 -0.699982,-0.839974 -0.04453,-0.05344 -0.04414,-0.137473 -0.09334,-0.186666 -0.213793,-0.213793 -0.714396,-0.240533 -0.979971,-0.373322 -0.03935,-0.01967 -0.06223,-0.06223 -0.09334,-0.09334 -0.04666,-0.03112 -0.08845,-0.07124 -0.139998,-0.09334 -0.01844,-0.0079 -0.643889,-0.231981 -0.653317,-0.233325 -0.258032,-0.03686 -0.623787,0.06571 -0.886642,0 -0.177287,-0.04432 -0.122985,-0.06423 -0.326658,-0.09334 -0.39411,-0.05631 -0.873216,-0.01779 -1.259967,0.04666 -0.135167,0.02252 -0.287313,-0.03317 -0.419991,0 -0.06749,0.01689 -0.120665,0.07134 -0.18666,0.09334 -0.02952,0.0098 -0.06314,-0.0075 -0.09334,0 -0.09545,0.02387 -0.183526,0.07404 -0.279994,0.09334 -0.122026,0.02439 -0.252598,-0.03017 -0.373322,0 -0.06749,0.01689 -0.12153,0.0689 -0.186663,0.09334 -0.279947,0.104988 -0.491962,0.214145 -0.746649,0.373324 -0.06223,0.03112 -0.124439,0.06223 -0.18666,0.09334 -0.03112,0 -0.06551,-0.01391 -0.09334,0 -0.211781,0.105894 -0.137365,0.119226 -0.279991,0.233325 -0.162655,0.130125 -0.347041,0.248614 -0.51332,0.373324 -0.107058,0.08028 -0.206975,0.173487 -0.326659,0.23333 -0.05737,0.02867 -0.137391,0.0056 -0.186662,0.04666 -0.08961,0.179217 -0.07568,0.200532 -0.233328,0.326658 -0.104083,0.08328 -0.279782,0.09312 -0.373323,0.186662 -0.07931,0.07931 -0.116591,0.192403 -0.186661,0.279994 -0.22085,0.276062 -0.593,0.444781 -0.839979,0.746646 -0.218617,0.267201 -0.439638,0.526216 -0.653316,0.793313 -0.169598,0.212 -0.40848,0.426057 -0.559986,0.653317 -0.03859,0.05787 -0.05343,0.129671 -0.09334,0.186661 -0.06968,0.09952 -0.168937,0.176972 -0.233325,0.279994 -0.09217,0.147477 -0.145699,0.316433 -0.233327,0.466652 -0.07226,0.123878 -0.240612,0.165264 -0.326658,0.279993 -0.14611,0.194812 -0.204745,0.514543 -0.373326,0.699983 -0.07545,0.083 -0.20992,0.09907 -0.27999,0.186661 -0.06146,0.07682 -0.03876,0.198138 -0.09334,0.279993 -0.07321,0.10982 -0.200799,0.1744 -0.27999,0.279991 -0.08347,0.111308 -0.08828,0.274947 -0.186661,0.373326 -0.03967,0.03966 -0.106346,0.04846 -0.139998,0.09334 -0.186661,0.248883 -0.08297,0.207403 -0.186661,0.373321 -0.155144,0.248228 -0.324492,0.490754 -0.466655,0.74665 -0.08445,0.152028 -0.183353,0.300075 -0.233329,0.466656 -0.02717,0.09063 -0.01948,0.189362 -0.04666,0.27999 -0.07385,0.246131 -0.339639,0.365599 -0.419989,0.606653 -0.02992,0.08977 -0.01948,0.189362 -0.04667,0.279993 -0.05239,0.174616 -0.201653,0.309973 -0.279991,0.466652 -0.139997,0.279994 -0.04667,0.209995 -0.139997,0.41999 -0.134625,0.302903 -0.318573,0.876534 -0.513321,1.11997 -0.132315,0.165398 -0.36937,0.31875 -0.466654,0.51332 -0.02783,0.05565 0.01967,0.127635 0,0.186664 -0.03478,0.104353 -0.165798,0.146505 -0.233327,0.233327 -0.191695,0.246464 -0.125922,0.252706 -0.326659,0.419986 -0.04309,0.0359 -0.106346,0.04845 -0.139996,0.09334 -0.08347,0.111298 -0.09975,0.264681 -0.186661,0.373323 -0.158125,0.197655 -0.2856,0.391628 -0.419991,0.606653 -0.04122,0.06595 -0.105214,0.117099 -0.139993,0.18666 -0.02867,0.05737 -0.01798,0.129296 -0.04667,0.186663 -0.145527,0.291053 -0.404222,0.461083 -0.559985,0.746645 -0.242236,0.4441 0.01811,0.02092 -0.09334,0.466656 -0.02875,0.114925 -0.08702,0.220699 -0.139994,0.326657 -0.04056,0.08112 -0.101981,0.150973 -0.139997,0.233327 -0.07551,0.163602 -0.140293,0.606949 -0.279992,0.746648 -0.03966,0.03966 -0.108886,0.04666 -0.139998,0.09334 -0.06167,0.09251 -0.104514,0.360193 -0.139996,0.466656 -0.02198,0.066 -0.08189,0.118045 -0.09334,0.186661 -0.01535,0.09206 0.02265,0.189449 0,0.279994 -0.194211,0.77684 0.0065,-0.112656 -0.186662,0.466656 -0.05573,0.16717 0.03476,0.386199 0,0.559984 -0.08765,0.43824 -0.189856,1.577043 -0.04666,2.006614 0.07548,0.226441 0.243047,0.377602 0.373322,0.559985 0.06065,0.08491 0.07128,0.201464 0.139998,0.279994 0.102574,0.117229 0.482735,0.481128 0.606648,0.559984 0.170176,0.108295 0.197065,-0.01814 0.326659,0.04666 0.116946,0.05848 0.216828,0.206772 0.326658,0.279994 0.05788,0.03859 0.132341,0.04988 0.186661,0.09334 0.02717,0.02173 0.02581,0.0655 0.04666,0.09334 0.0729,0.09719 0.153327,0.188563 0.233329,0.279994 0.130056,0.148636 0.255159,0.309103 0.373322,0.466655 0.178104,0.237466 0.245278,0.525269 0.466656,0.746645 0.105086,0.105097 0.298853,0.105905 0.419987,0.186662 0.209501,0.139669 0.42678,0.306721 0.653317,0.419991 0.281848,0.140922 0.01976,-0.0067 0.233326,0.04666 0.207885,0.05197 0.542054,0.229469 0.699985,0.326657 0.08482,0.0522 0.150454,0.131414 0.233326,0.186662 0.222726,0.148483 0.138814,0.05205 0.373323,0.139997 0.251678,0.09437 0.495911,0.226362 0.746649,0.326658 0.06459,0.02583 0.119173,0.07646 0.186661,0.09334 0.06035,0.0151 0.127063,-0.01788 0.186662,0 0.129625,0.03888 0.328383,0.181477 0.466655,0.233329 0.178534,0.06695 0.382047,0.0955 0.559985,0.139994 0.06749,0.01689 0.119173,0.07646 0.186661,0.09334 0.06036,0.0151 0.128892,-0.02311 0.186661,0 0.129178,0.05168 0.253149,0.116555 0.373324,0.186661 0.06717,0.03919 0.113836,0.112691 0.186661,0.139997 0.08182,0.03067 0.198168,-0.03068 0.279994,0 0.130271,0.04885 0.238348,0.152917 0.373322,0.18666 0.03017,0.0075 0.06223,0 0.09334,0 0.124439,0.06223 0.244896,0.133153 0.373323,0.186663 0.253627,0.105678 0.567934,0.152654 0.839979,0.186661 0.342287,0.04278 0.729956,0 1.073303,0 0.808868,0 1.617739,0 2.426606,0 0.382088,0 0.787134,-0.02711 1.166637,0 0.06222,0.01554 0.12444,0.03112 0.186661,0.04666 0.01554,0.01558 0.0258,0.03971 0.04666,0.04667 0.200991,0.067 0.532748,0 0.746645,0 0.497766,0 0.995532,0 1.493294,0 0.120128,0 0.992831,0.04024 1.073307,0 0.0033,-0.0015 0.300393,-0.180798 0.326656,-0.233328 0.007,-0.01392 0,-0.03112 0,-0.04666 0.01558,-0.03112 0.02645,-0.06503 0.04667,-0.09334 0.05788,-0.08105 0.131413,-0.150458 0.186661,-0.23333 0.0731,-0.109642 0.04698,-0.374248 0.09334,-0.51332 0.02198,-0.066 0.06223,-0.124439 0.09334,-0.186661 0.03112,-0.07778 0.06685,-0.153859 0.09334,-0.233326 0.01476,-0.04427 -0.01135,-0.09473 0,-0.139996 0.03537,-0.14148 0.146266,-0.30391 0.233327,-0.419991 0.239158,-0.318879 -0.05249,0.132216 0.186661,-0.186663 0.05903,-0.0787 0.03293,-0.202336 0.09334,-0.27999 0.06824,-0.08774 0.356524,-0.350927 0.513319,-0.373326 0.36418,-0.05203 1.148888,0.04723 1.446627,0.23333 0.04756,0.02974 0.04062,0.120828 0.09334,0.139996 0.132376,0.04814 0.293998,-0.01632 0.419987,0.04666 0.08112,0.04056 0.08798,0.159021 0.139997,0.233325 0.13261,0.189445 0.342506,0.318229 0.466654,0.513321 0.04258,0.06692 0.01123,0.162386 0.04666,0.233328 0.154747,0.309495 0.164694,0.146573 0.326659,0.373323 0.121042,0.169464 0.373322,0.640725 0.373322,0.839978"
     id="path125" /><path
     style="fill:none;stroke:#000000;stroke-width:5.49574;stroke-dasharray:none"
     d="m 36.587982,55.517222 c 0.04666,-0.09334 0.05561,-0.218619 0.139993,-0.279993 0.103749,-0.07545 0.250463,-0.05647 0.373326,-0.09334 1.59003,-0.477008 -0.553092,0.088 1.213302,-0.279991 0.53312,-0.111072 1.04456,-0.295888 1.586623,-0.373326 0.313938,-0.04485 0.673715,0.07657 0.979976,0 0.484625,-0.121157 -0.09963,-0.09334 0.373323,-0.09334 0.499917,0 0.994184,0.0217 1.493294,0.04666 0.170893,0.0085 0.347322,-0.0415 0.51332,0 0.210189,0.05255 0.39833,0.173807 0.606652,0.23333 0.243477,0.06957 0.495383,0.108589 0.746646,0.139993 0.09261,0.01159 0.188476,-0.01829 0.279994,0 0.525303,0.105064 0.747237,0.967492 1.259966,0.933311 0.623414,-0.04155 1.261017,-0.122011 1.866617,-0.279995 0.128599,-0.03354 0.24439,-0.107758 0.373324,-0.139996 0.218544,-0.05464 0.483694,0.0618 0.699984,0 0.0423,-0.01207 0.05213,-0.07789 0.09334,-0.09334 0.08859,-0.03322 0.186661,-0.03112 0.279993,-0.04666 0.186661,-0.07778 0.370643,-0.162328 0.559984,-0.23333 0.183691,-0.06888 0.391047,0.0167 0.559985,-0.04666 0.687895,-0.257961 -0.09462,-0.06179 0.279993,-0.186663 0.121689,-0.04056 0.258597,-0.03596 0.373324,-0.09334 0.336555,-0.168278 0.586088,-0.442927 0.886643,-0.653316 0.120221,-0.08415 0.253104,-0.149172 0.373325,-0.233326 0.114807,-0.08037 0.214336,-0.195752 0.326658,-0.279995 0.183448,-0.137585 0.444838,-0.155147 0.653314,-0.233325 0.06514,-0.02441 0.118045,-0.08189 0.186665,-0.09334 0.199463,-0.03324 0.404434,0 0.606649,0 0.257579,0 0.538761,-0.03055 0.793314,0 0.78463,0.09416 1.550044,0.326002 2.333274,0.41999 0.237127,0.02846 0.50308,0 0.746644,0 0.18088,0 0.382082,0.02964 0.559986,0 0.146653,-0.02445 0.890131,-0.118407 1.02664,-0.186662 0.100332,-0.05016 0.179666,-0.136497 0.279992,-0.186661 0.136007,-0.068 0.324742,-0.104525 0.466656,-0.139997 0.141044,-0.03526 0.278991,-0.146375 0.419987,-0.186662 0.04486,-0.01283 0.09573,0.01476 0.139997,0 0.137929,-0.04597 0.40647,-0.126479 0.513321,-0.233329 0.04919,-0.04919 0.05159,-0.13101 0.09334,-0.186661 0.101711,-0.135613 0.267483,-0.147693 0.373323,-0.279991 0.115515,-0.144403 0.261159,-0.433906 0.419987,-0.51332 0.06145,-0.03074 0.167836,0.02183 0.23333,0 0.06599,-0.02198 0.119445,-0.0754 0.18666,-0.09334 0.287925,-0.07679 0.715029,-0.160694 1.02664,-0.186661 0.093,-0.0078 0.189953,0.02454 0.279994,0 0.187368,-0.0511 0.738541,-0.232211 0.979973,-0.419991 0.06946,-0.05402 0.116272,-0.133865 0.186663,-0.186663 0.11131,-0.08347 0.257561,-0.109487 0.373324,-0.18666 0.124441,-0.09334 0.248883,-0.186662 0.373323,-0.279991 0.01554,-0.03112 0.02208,-0.06874 0.04666,-0.09334 0.04918,-0.04918 0.13322,-0.0488 0.186662,-0.09334 0.101389,-0.08451 0.176926,-0.197541 0.279993,-0.279994 0.121466,-0.09717 0.254578,-0.179516 0.373324,-0.279994 0.08397,-0.07104 0.141809,-0.172314 0.233328,-0.233326 0.215681,-0.14379 0.131857,0.03012 0.27999,-0.09334 0.218798,-0.182331 0.393675,-0.417337 0.606654,-0.60665 0.09334,-0.07778 0.186661,-0.155554 0.27999,-0.233329 0.03112,-0.01554 0.0655,-0.02579 0.09334,-0.04666 0.242201,-0.181649 0.596043,-0.556589 0.793315,-0.793314 0.07181,-0.08617 0.112796,-0.195576 0.186661,-0.27999 0.08691,-0.09934 0.192302,-0.181344 0.27999,-0.279994 0.07452,-0.08383 0.11366,-0.194825 0.186665,-0.279993 0.16815,-0.196177 0.45678,-0.380143 0.606649,-0.559986 0.09395,-0.112738 0.145278,-0.255924 0.233328,-0.373322 0.136708,-0.182277 0.36333,-0.344583 0.513321,-0.51332 0.172243,-0.193775 0.307899,-0.402538 0.466652,-0.606652 0.04052,-0.0521 0.101636,-0.08629 0.139997,-0.139997 0.120387,-0.168544 0.194057,-0.400862 0.326658,-0.559984 0.05634,-0.06761 0.1362,-0.11457 0.186662,-0.186662 0.242657,-0.346649 0.06922,-0.173049 0.186661,-0.466656 0.362432,-0.906073 -0.06248,0.218289 0.279994,-0.466654 0.01392,-0.02783 -0.0075,-0.06314 0,-0.09334 0.03939,-0.157552 0.08297,-0.314594 0.139997,-0.466655 0.04885,-0.130273 0.146682,-0.240062 0.18666,-0.373324 0.07807,-0.260246 -0.0045,-0.49077 0.04666,-0.746646 0.01364,-0.06822 0.07334,-0.12003 0.09334,-0.186663 0.114169,-0.380554 0.09334,-0.774516 0.09334,-1.166634 0,-0.684428 0,-1.368856 0,-2.053283 0,-0.397226 0.03688,-0.823445 -0.04666,-1.213301 -0.04621,-0.215634 -0.13257,-0.436952 -0.186662,-0.653317 -0.03478,-0.139127 -0.05212,-0.282623 -0.09334,-0.419988 -0.02407,-0.08024 -0.07302,-0.152061 -0.09334,-0.233325 -0.03946,-0.157857 0.06556,-0.158328 -0.04667,-0.326659 -0.03112,-0.04667 -0.10349,-0.05075 -0.139993,-0.09334 -0.17288,-0.201694 -0.06725,-0.260763 -0.186661,-0.419989 -0.160572,-0.214098 -0.297896,-0.445612 -0.466655,-0.653316 -0.06282,-0.07731 -0.157292,-0.122326 -0.23333,-0.186662 -0.126228,-0.10681 -0.243301,-0.224501 -0.373322,-0.326657 -0.132302,-0.103953 -0.290733,-0.172281 -0.419987,-0.279994 -0.06956,-0.05796 -0.150749,-0.178275 -0.23333,-0.233326 -0.186321,-0.124215 -0.367544,-0.253051 -0.559985,-0.373326 -0.187021,-0.116888 -0.508469,-0.441501 -0.699981,-0.51332 -0.07466,-0.02798 -0.195995,0.014 -0.279994,0 -0.126525,-0.02107 -0.246796,-0.07225 -0.373322,-0.09334 -0.04604,-0.0077 -0.09513,0.01283 -0.139998,0 -0.0946,-0.02701 -0.183521,-0.07403 -0.27999,-0.09334 -0.09152,-0.01829 -0.189451,0.02265 -0.279993,0 -0.06749,-0.01685 -0.119176,-0.07646 -0.186663,-0.09334 -0.06035,-0.0151 -0.127635,0.01967 -0.186661,0 -0.066,-0.02198 -0.120669,-0.07134 -0.186662,-0.09334 -0.150249,-0.05008 -1.540034,0 -1.819953,0 -0.466654,0 -0.93331,0 -1.399962,0 -0.233329,0 -0.467815,-0.0232 -0.699985,0 -0.26099,0.02611 -0.494714,0.12368 -0.746645,0.186661 -0.236191,0.05905 -0.492878,0.03133 -0.699982,0.186663 -0.151226,0.113423 -0.23494,0.298902 -0.373322,0.419989 -0.104698,0.09162 -0.257561,0.109489 -0.373327,0.186662 -0.104536,0.0697 -0.185896,0.196352 -0.27999,0.279993 -0.107188,0.09529 -0.240612,0.165263 -0.326659,0.27999 -0.10433,0.13911 -0.131282,0.406921 -0.23333,0.559989 -0.03661,0.05491 -0.101636,0.0863 -0.139994,0.139994 -0.122012,0.17082 -0.07027,0.292066 -0.186661,0.466655 -0.02439,0.03661 -0.06776,0.05753 -0.09334,0.09334 -0.323393,0.45275 -0.02558,0.05115 -0.186662,0.373323 -0.114204,0.228395 -0.05645,0.05971 -0.186661,0.233326 -0.08213,0.109511 -0.104536,0.263817 -0.186661,0.373327 -0.0729,0.09719 -0.163659,0.180463 -0.233329,0.279991 -0.200051,0.285791 -0.302334,0.651993 -0.51332,0.93331 -0.08028,0.107058 -0.149735,0.222168 -0.233327,0.326658 -0.09619,0.120244 -0.257792,0.188925 -0.326658,0.326659 -0.0666,0.133186 -0.08758,0.326876 -0.139998,0.466652 -0.02441,0.06514 -0.07133,0.120668 -0.09334,0.186661 -0.06006,0.180189 0,1.088986 0,1.166637 0,0.789201 -0.08164,1.750095 0.04666,2.519934 0.04856,0.291342 0.23398,0.554697 0.279993,0.839979 0.05718,0.354535 0.03954,0.71824 0.09334,1.073308 0.02432,0.160565 0.102801,0.308567 0.139997,0.466651 0.122667,0.521343 0.191756,1.078232 0.373322,1.586628 0.03888,0.108886 0.181478,0.342212 0.233327,0.466652 0.08567,0.205607 0.172405,0.561544 0.326658,0.746648 0.0359,0.04308 0.106347,0.04845 0.139997,0.09334 0.104341,0.139131 0.118806,0.335774 0.233329,0.466655 0.06558,0.07496 0.172178,0.108046 0.233327,0.186661 0.05143,0.06613 0.05176,0.160599 0.09334,0.23333 0.02183,0.0382 0.06517,0.05953 0.09334,0.09334 0.09959,0.119499 0.180411,0.253826 0.279994,0.373323 0.118243,0.141893 0.162017,0.115362 0.326657,0.279993 0.447084,0.447084 -0.606544,-0.363907 0.373324,0.419991 0.05432,0.04346 0.13747,0.04414 0.186662,0.09334 0.07931,0.07931 0.09908,0.209921 0.18666,0.279995 0.07682,0.06145 0.188651,0.05678 0.279994,0.09334 0.06459,0.02583 0.120032,0.07335 0.186662,0.09334 0.714531,0.214357 0.05258,-0.0068 0.373324,0.04666 0.126525,0.02107 0.246796,0.07225 0.373322,0.09334 0.03068,0.0051 0.0655,-0.01392 0.09334,0 0.343923,0.257943 0.02382,0.05561 0.373323,0.186662 0.290744,0.109027 0.553529,0.300635 0.839978,0.419987 0.182096,0.07587 0.150072,0.0068 0.279994,0.09334 0.141128,0.09409 0.207599,0.18361 0.373322,0.233326 0.523837,0.157152 0.118335,-0.03417 0.373323,0.09334 0.20826,0.104126 0.451477,0.315655 0.653318,0.373324 0.481932,0.137694 1.159937,0.301873 1.586623,0.606652 0.0537,0.03835 0.08508,0.103393 0.139998,0.139993 0.278108,0.185406 0.608525,0.152834 0.886642,0.326659 0.07462,0.04663 0.116272,0.133868 0.186661,0.186662 0.07646,0.05734 0.165646,0.02564 0.23333,0.09334 0.03966,0.03966 0.04666,0.108886 0.09334,0.139996 0.194777,0.129851 0.133233,0.0099 0.279994,0.04666 0.22434,0.05608 0.441249,0.141125 0.653318,0.233325 0.178741,0.07772 0.337346,0.1962 0.513319,0.279994 0.15126,0.07203 0.318591,0.108271 0.466656,0.186662 0.368331,0.194998 0.677288,0.522063 1.026639,0.74665 0.08777,0.05642 0.195602,0.07862 0.279991,0.139993 0.1649,0.119927 0.3192,0.3192 0.466656,0.466656"
     id="path126" /><path
     style="fill:none;stroke:#000000;stroke-width:5.49574;stroke-dasharray:none"
     d="m 72.940364,54.070591 c 0.373164,-0.0078 0.746971,0.01554 1.119972,0 0.1253,-0.0052 0.248129,-0.0393 0.373324,-0.04666 0.478816,-0.02818 0.966506,0 1.44663,0 1.026639,0 2.053279,0 3.079918,0 0.575542,0 1.151084,0 1.726621,0 0.254812,0 0.548706,-0.04742 0.793315,0.04666 0.499248,0.192019 0.902481,0.500991 1.399962,0.699982 0.27928,0.11171 0.598259,0.157436 0.886644,0.233326 0.157054,0.04133 0.307407,0.108154 0.466653,0.139997 0.153294,0.03068 0.314051,0.01276 0.466656,0.04667 0.129737,0.02882 0.246469,0.100353 0.373323,0.139993 0.277367,0.08667 0.555028,0.176339 0.839979,0.233331 0.8338,0.166757 1.681472,0.280242 2.519934,0.419986 0.220444,0.03675 0.709078,-0.07985 0.793313,-0.09334 0.280289,-0.04485 0.564597,-0.07115 0.839979,-0.139997 0.07853,-0.01964 0.355555,-0.130737 0.466651,-0.139997 0.533081,-0.04442 1.098506,0 1.633293,0 0.559984,0 1.119972,0 1.679956,0 0.598416,0 1.073848,0.03711 1.633293,-0.186661 0.09134,-0.03653 0.196564,-0.04119 0.27999,-0.09334 0.04756,-0.0297 0.05368,-0.100342 0.09334,-0.139993 0.11463,-0.114629 0.283697,-0.105915 0.419987,-0.139998 0.04269,-0.01067 0.06223,-0.06223 0.09334,-0.09334 0.07778,-0.07778 0.165797,-0.146504 0.233326,-0.233326 0.07699,-0.099 0.140087,-0.210217 0.186661,-0.326658 0.03618,-0.09043 0.02354,-0.932051 0,-1.073304 -0.03137,-0.188217 -0.116343,-0.370737 -0.139994,-0.559989 -0.0077,-0.06174 0,-0.124439 0,-0.18666 -0.03112,-0.09334 -0.07404,-0.183523 -0.09334,-0.279993 -0.01829,-0.09152 0.02265,-0.189449 0,-0.279993 -0.08197,-0.32788 -0.161183,-0.709814 -0.279995,-1.02664 -0.02441,-0.06513 -0.07334,-0.120029 -0.09334,-0.18666 -0.06638,-0.221251 -0.164719,-0.785262 -0.186662,-1.026639 -0.0057,-0.06274 0.0069,-0.472256 0,-0.513321 -0.01617,-0.09704 -0.06947,-0.18455 -0.09334,-0.279993 -0.07583,-0.303297 -0.0969,-0.634111 -0.186662,-0.933312 -0.01998,-0.06664 -0.07134,-0.120664 -0.09334,-0.18666 -0.0098,-0.02952 0.0075,-0.06314 0,-0.09334 -0.06084,-0.243352 -0.169717,-0.679874 -0.279994,-0.886647 -0.05716,-0.107198 -0.168938,-0.176966 -0.233327,-0.27999 -0.01648,-0.02639 0.0075,-0.06314 0,-0.09334 -0.02386,-0.09544 -0.0568,-0.188651 -0.09334,-0.279991 -0.609707,-1.524271 0.108851,0.38878 -0.326658,-0.699984 -0.05629,-0.140732 -0.07234,-0.33135 -0.139997,-0.466653 -0.106789,-0.213597 -0.18229,-0.180836 -0.326657,-0.373323 -0.101755,-0.135688 -0.127403,-0.334247 -0.233327,-0.466654 -0.618262,-0.618264 -0.06861,-0.0096 -0.373323,-0.466656 -0.0425,-0.06375 -0.462878,-0.339066 -0.559987,-0.419988 -0.231948,-0.19329 -0.510702,-0.457221 -0.793311,-0.559987 -0.12055,-0.04384 -0.251635,-0.05277 -0.373326,-0.09334 -0.131989,-0.044 -0.240062,-0.146686 -0.373323,-0.186661 -0.09062,-0.02721 -0.189362,-0.01948 -0.279991,-0.04667 -0.254245,-0.07626 -0.376816,-0.271357 -0.653316,-0.326657 -0.09153,-0.01829 -0.189451,0.02264 -0.279994,0 -0.333459,-0.08337 0.18523,-6.28e-4 -0.186662,-0.139996 -0.08859,-0.03322 -0.189016,-0.02067 -0.279994,-0.04667 -0.6481,-0.185171 -0.140766,-0.09683 -0.559984,-0.186662 0.05705,-0.137693 -0.66999,-0.07801 -0.746646,-0.09334 -0.170535,-0.0341 -0.306122,-0.16644 -0.466655,-0.233329 -0.176574,-0.07357 -0.762597,-0.321933 -0.886642,-0.466655 -0.186938,-0.07791 -0.172281,-0.290732 -0.279995,-0.419988 -0.0359,-0.0431 -0.106346,-0.04846 -0.139996,-0.09334 -0.06533,-0.08711 0.02639,-0.221021 0,-0.326658 -0.01689,-0.06749 -0.07646,-0.119175 -0.09334,-0.186661 -0.05144,-0.205717 0.01955,-0.468813 0.09334,-0.653314 0.115716,-0.289291 0.727308,-0.696761 1.02664,-0.746648 0.151347,-0.02523 0.315306,0.02523 0.466655,0 0.06862,-0.01147 0.119174,-0.07646 0.186661,-0.09334 0.06037,-0.0151 0.126301,0.01507 0.186661,0 0.242817,-0.0607 0.35717,-0.186665 0.653317,-0.186665 0.0082,0 -0.225224,0 -0.233326,0"
     id="path127" /><path
     style="fill:none;stroke:#000000;stroke-width:5.49574;stroke-dasharray:none"
     d="m 91.046562,39.137648 c 0.09334,0.01554 0.198857,-0.0019 0.279991,0.04666 0.08541,0.05124 0.116237,0.162899 0.186662,0.233326 0.147979,0.14798 0.296362,0.298353 0.466654,0.41999 0.249649,0.178322 0.528308,0.312069 0.793314,0.466656 0.09012,0.05257 0.198509,0.07482 0.279991,0.139993 0.07778,0.06223 0.116237,0.162899 0.186662,0.23333 0.055,0.055 0.124442,0.09334 0.186663,0.139995 0.06222,0.06223 0.124441,0.124441 0.186663,0.186663 0.10141,0.101399 0.178584,0.225249 0.27999,0.326658 0.09462,0.09462 0.240997,0.130532 0.326659,0.233326 0.04453,0.05344 0.06223,0.124439 0.09334,0.186662 0.07778,0.06223 0.169563,0.11015 0.233325,0.186661 0.01992,0.02389 -0.0075,0.06314 0,0.09334 0.01558,0.06222 0.09489,0.234884 0.139997,0.279991 0.04918,0.04919 0.137474,0.04414 0.186663,0.09334 0.173308,0.173309 0.225077,0.416046 0.373322,0.606651 0.08805,0.1132 0.240612,0.165263 0.326659,0.27999 0.108838,0.145123 0.174556,0.319041 0.279993,0.466656 0.108874,0.15242 0.254712,0.275018 0.373324,0.419987 0.07693,0.09403 0.155551,0.186665 0.233329,0.279994 0.09334,0.09334 0.195492,0.178597 0.27999,0.279994 0.149371,0.179248 0.266886,0.383914 0.419991,0.559984 0.794581,0.913767 1.772756,1.659206 2.473267,2.659933 0.118376,0.169122 0.1616,0.390861 0.279987,0.559983 0.06963,0.09952 0.142512,0.19928 0.233322,0.279995 0.0519,0.04621 0.14979,0.03434 0.18666,0.09334 0.0501,0.08024 0.0116,0.192143 0.0467,0.279994 0.0931,0.232879 0.29956,0.413589 0.37333,0.653317 0.0916,0.297936 0.0419,0.643851 0.18666,0.933306 0.0393,0.0787 0.14139,0.111215 0.18666,0.186663 0.0507,0.08436 0.0494,0.192002 0.0934,0.279993 0.0656,0.131254 0.1677,0.242069 0.23332,0.373323 0.044,0.08799 0.0534,0.190095 0.0934,0.279993 0.15539,0.349631 0.3422,0.684428 0.51332,1.02664 0.16386,0.327731 0.37694,0.639061 0.51331,0.979976 0.0365,0.09134 0.0526,0.190429 0.0934,0.279994 0.45574,1.002624 -0.15086,-0.441714 0.27999,0.419987 0.0287,0.05737 0.0241,0.126611 0.0467,0.186661 0.12148,0.323945 0.33813,0.611994 0.46666,0.933312 0.0708,0.177052 0.073,0.381378 0.13999,0.559984 0.11369,0.303164 0.24709,0.604228 0.27999,0.933307 0.0197,0.196877 -0.0485,0.45916 0,0.653317 0.0253,0.101227 0.11954,0.177674 0.14,0.279994 0.0281,0.140578 0.0357,0.79083 0,0.933307 -0.0169,0.06749 -0.0714,0.120669 -0.0934,0.186665 -0.01,0.02952 0.0181,0.06802 0,0.09334 -0.2638,0.369333 -0.48416,0.417251 -0.88664,0.606652 -0.30867,0.14526 -0.62817,0.26742 -0.93331,0.419987 -1.64806,0.824031 0.48525,-0.132188 -0.83997,0.419991 -0.0926,0.03857 -0.26404,0.168447 -0.37332,0.186662 -0.0908,0.01514 -0.1892,-0.01514 -0.28,0 -0.27394,0.04566 -0.152,0.06079 -0.46666,0.186661 -0.0595,0.02382 -0.12827,0.02013 -0.186656,0.04666 -0.114162,0.0519 -0.214483,0.130579 -0.326661,0.186663 -0.270727,0.135372 -0.591308,0.186823 -0.839971,0.373322 -0.158375,0.118787 -0.274785,0.249915 -0.466649,0.326659 -0.09134,0.03654 -0.192002,0.04933 -0.279994,0.09334 -0.06957,0.03478 -0.1171,0.105215 -0.186662,0.139996 -0.08799,0.044 -0.187878,0.05879 -0.279994,0.09334 -0.274318,0.102864 0.146558,-0.0228 -0.233325,0.139996 -0.05895,0.02527 -0.127114,0.02286 -0.186662,0.04666 -0.186162,0.07446 -0.364529,0.184461 -0.559987,0.233328 -0.0918,0.02295 -0.189364,0.01948 -0.279991,0.04666 -0.342516,0.102757 -0.639864,0.36462 -0.979975,0.466655 -0.181255,0.05438 -0.3764,0.04744 -0.559985,0.09334 -0.848217,0.212055 0.189599,-0.04011 -0.466655,0.233328 -0.177607,0.074 -0.369064,0.116131 -0.559984,0.139998 -0.169788,0.02124 -0.343063,-0.01704 -0.513323,0 -0.203579,0.02035 -0.402614,0.07821 -0.606649,0.09334 -0.566736,0.04199 -1.157028,0 -1.726621,0 -0.326659,0 -0.653317,0 -0.979976,0 -0.202218,0 -0.406785,0.03074 -0.606652,0 -0.769504,-0.118386 -1.245347,-0.915502 -1.819951,-1.353297 -0.178446,-0.13596 -0.375824,-0.245212 -0.559987,-0.373324 -0.283525,-0.197234 -0.543818,-0.428952 -0.839978,-0.606651 -0.04218,-0.02531 -0.09996,-0.01807 -0.139997,-0.04666 -0.0716,-0.05114 -0.119062,-0.130328 -0.186661,-0.186661 -0.114877,-0.09573 -0.492303,-0.213022 -0.559985,-0.233326 -0.0596,-0.01788 -0.131009,0.02783 -0.186661,0 -0.06957,-0.03478 -0.117099,-0.105214 -0.186661,-0.139997 -0.469689,-0.234846 -1.913073,-0.178919 -2.426606,-0.09334 -0.08669,0.01444 -0.126905,0.08771 -0.186662,0.139996 -0.134605,0.117774 -0.462621,0.310535 -0.513319,0.51332 -0.02295,0.09179 -0.01674,0.19023 -0.04666,0.279994 -0.03299,0.099 -0.09889,0.184082 -0.139997,0.27999 -0.104697,0.244318 -0.161119,0.508905 -0.27999,0.74665 -0.06563,0.131253 -0.17451,0.238879 -0.233329,0.373322 -0.134621,0.307708 -0.171056,0.715435 -0.326658,1.02664 -0.03478,0.06957 -0.100806,0.119481 -0.139998,0.186661 -0.0701,0.120178 -0.100709,0.263924 -0.186661,0.373323 -0.487731,0.620753 -0.177722,-0.02364 -0.51332,0.513321 -0.103296,0.165281 -0.166705,0.354719 -0.27999,0.51332 -0.201818,0.282544 -0.582384,0.533841 -0.699981,0.886645 -0.05281,0.158406 0,0.525316 0,0.699981 0,0.575542 0,1.15108 0,1.726621"
     id="path128" /><path
     style="fill:none;stroke:#000000;stroke-width:5.49574;stroke-dasharray:none"
     d="m 87.96664,63.823672 c -0.815256,-0.144769 -1.656885,0.04404 -2.473267,-0.04667 -0.653173,-0.07256 -1.254891,-0.346987 -1.913286,-0.373323 -0.837626,-0.0335 -1.681066,0 -2.519934,0"
     id="path129" /><path
     style="fill:none;stroke:#000000;stroke-width:5.49574;stroke-dasharray:none"
     d="m 79.473529,66.016948 c -0.171646,1.201512 0.142817,-0.591308 -0.279994,0.606649 -0.05718,0.162017 -0.01451,0.344542 -0.04666,0.51332 -0.0304,0.159531 -0.104008,0.308294 -0.139997,0.466656 -0.04193,0.18453 -0.05228,0.375255 -0.09334,0.559984 -0.05238,0.23573 -0.134277,0.46425 -0.186661,0.699981 -0.09599,0.431942 -0.09334,0.825379 -0.09334,1.259969 0,0.155551 0.0326,0.314556 0,0.466656 -0.01629,0.07606 -0.11863,0.111875 -0.139996,0.18666 -0.09241,0.323454 -0.0015,0.61741 -0.04666,0.933308 -0.02954,0.206771 -0.237197,0.788079 -0.326658,1.026639 -0.172734,0.460626 -0.456645,0.959725 -0.746647,1.353299 -0.151337,0.205389 -0.327614,0.392744 -0.466656,0.606652 -0.06457,0.09933 -0.08383,0.222353 -0.139996,0.326659 -0.08601,0.159718 -0.179368,0.315716 -0.279992,0.466654 -0.05525,0.08287 -0.133188,0.149298 -0.186663,0.233327 -0.148627,0.233557 -0.230834,0.509168 -0.373323,0.746646 -0.108543,0.180898 -0.208879,0.27702 -0.279994,0.466655 -0.08123,0.216609 -0.0203,0.434162 -0.09334,0.653317 -0.07645,0.229324 -0.07588,-0.07542 -0.139997,0.373322 -0.03688,0.258121 0.02004,0.532686 0,0.793315 -0.03679,0.478274 -0.08799,0.573923 -0.139998,1.119972 -0.02362,0.247759 0,0.497762 0,0.746645 0,0.466655 0,0.933308 0,1.399962 0,0.637763 0,1.275523 0,1.913286 0,0.321249 -0.03194,0.660662 0,0.979972 0.057,0.570019 0.265432,1.143356 0.466656,1.679956 0.02442,0.06513 0.08089,0.11822 0.09334,0.186663 0.01948,0.107133 -0.01438,0.218729 0,0.326657 0.01695,0.127149 0.0752,0.246345 0.09334,0.373324 0.0132,0.0924 -0.01319,0.187602 0,0.279993 0.01814,0.126983 0.06645,0.247902 0.09334,0.373323 0.08226,0.383883 0.09856,0.784912 0.18666,1.166637 0.12238,0.530308 0.288109,1.059108 0.419989,1.586627 0.140975,0.563893 -0.05047,-0.02658 0.04667,0.653314 0.01392,0.09739 0.07716,0.182952 0.09334,0.279993 0.01535,0.09206 -0.01535,0.187931 0,0.279994 0.03235,0.194083 0.132608,0.370796 0.186662,0.559985 0.09531,0.333587 0.113376,0.753444 0.233329,1.073303 0.03938,0.105032 0.151189,0.173581 0.186662,0.279994 0.02952,0.08855 -0.0078,0.186984 0,0.279995 0.0098,0.118127 0.133564,0.720919 0.139996,0.746646 0.09636,0.385421 0.267812,0.740132 0.373324,1.119971 0.05192,0.186899 0.125838,0.627632 0.139996,0.839978 0.0072,0.108649 -0.01657,0.21904 0,0.326659 0.02992,0.194469 0.13894,0.369101 0.186661,0.559985 0.469486,1.877941 -0.204278,-0.709254 0.139996,0.839977 0.03524,0.158535 0.105969,0.307859 0.139995,0.466656 0.01303,0.06084 -0.01024,0.125287 0,0.186661 0.05331,0.319911 0.178679,0.629356 0.279994,0.933306 0.0867,0.2601 0.01989,0.21733 0.09334,0.55999 0.06861,0.32019 0.237217,0.62027 0.326655,0.93331 0.104158,0.36454 0.128643,0.76682 0.279993,1.11997 0.315754,0.73676 0.0757,-0.10309 0.326658,0.69998 0.139059,0.44498 0.448049,1.75468 0.699981,2.00661"
     id="path130" /><path
     style="fill:none;stroke:#000000;stroke-width:5.49574;stroke-dasharray:none"
     d="m 79.706855,104.00262 c -0.07993,1.74082 -0.04666,3.48433 -0.04666,5.22654 0,0.80327 -0.05237,1.63426 0.04666,2.4266 0.02283,0.1827 -0.03025,0.37848 0,0.55999 -0.03947,0.19368 0.108271,0.33881 0.139997,0.51331 0.02245,0.12339 0.01627,0.25166 0.04667,0.37332 0.03223,0.12894 0.112147,0.24337 0.139995,0.37333 0.01955,0.0912 -0.0132,0.1876 0,0.27999 0.03628,0.25397 0.150381,0.49268 0.186663,0.74665 0.0132,0.0924 -0.01319,0.1876 0,0.28 0.04681,0.3277 0.153388,0.64723 0.186662,0.97997 0.0061,0.0619 -0.0151,0.1263 0,0.18666 0.01686,0.0675 0.07133,0.12067 0.09334,0.18666 0.141409,0.42422 0.239073,0.8687 0.326658,1.30663 0.04686,0.23432 0.0013,0.47311 0.04666,0.69998 0.04957,0.24782 0.141798,0.33747 0.186662,0.60666 0.02301,0.13809 -0.02745,0.28271 0,0.41999 0.0682,0.34093 0.245002,0.67672 0.279994,1.02664 0.01858,0.18572 -0.02223,0.37465 0,0.55997 0.03566,0.2971 0.108118,0.58915 0.139997,0.88666 0.02486,0.232 0,0.46665 0,0.69998 0,0.68442 0,1.36885 0,2.05327 0,0.41999 0,0.83998 0,1.25997 0,0.16891 -0.04078,0.39689 0,0.55999 0.05493,0.21972 0.119105,0.43714 0.18666,0.65331 0.08386,0.26837 0.306787,0.5695 0.466656,0.79332 0.128314,0.17963 0.213222,0.21968 0.279991,0.41999 0.05064,0.1519 0,0.9976 0,1.16663 0,0.1318 -0.02846,0.29197 0,0.41999 0.0711,0.31998 0.299657,0.61399 0.139997,0.93331 -0.007,0.0139 0.01548,0.0452 0,0.0467 -0.431967,0.0432 -0.91659,0 -1.353297,0 -0.979974,0 -1.959949,0 -2.939923,0 -0.151061,0 -0.456428,0.0413 -0.559984,-0.0933 -0.370597,-0.48179 -0.503756,-0.95353 -0.746651,-1.49331 -0.191586,-0.42574 -0.281121,-0.48893 -0.419986,-0.9333 -0.203116,-0.64996 0.129104,0.0936 -0.139998,-0.55999 -0.227303,-0.55201 -0.530624,-1.0778 -0.746649,-1.63329 -0.05885,-0.15136 -0.08635,-0.31337 -0.139993,-0.46665 -0.05535,-0.15814 -0.133684,-0.30772 -0.186662,-0.46665 -0.256015,-0.76805 0.05189,0.0209 -0.139997,-0.74665 -0.09375,-0.37498 -0.274687,-0.73019 -0.326657,-1.11998 -0.01438,-0.1079 0.01438,-0.21872 0,-0.32665 -0.04005,-0.30029 -0.173816,-0.54242 -0.23333,-0.83998 -0.03064,-0.15329 -0.01786,-0.313 -0.04666,-0.46666 -0.01814,-0.0967 -0.07272,-0.18379 -0.09334,-0.27999 -0.02626,-0.12262 -0.02354,-0.25006 -0.04667,-0.37332 -0.0758,-0.40421 -0.173944,-0.81562 -0.279991,-1.2133 -0.102003,-0.38253 -0.255716,-0.74362 -0.373326,-1.11997 -0.43078,-1.37851 0.320898,0.82269 -0.233327,-0.83999 -0.04203,-0.12608 -0.113931,-0.24299 -0.139996,-0.37332 -0.207563,-1.03782 0.270926,0.46564 -0.09334,-0.69998 -0.118899,-0.38048 -0.294475,-0.72573 -0.373327,-1.11997 -0.05425,-0.27127 -0.08257,-0.5672 -0.139993,-0.83998 -0.05986,-0.28435 -0.176339,-0.55503 -0.233329,-0.83997 -0.05525,-0.27625 -0.02843,-0.39371 -0.09334,-0.65331 -0.07114,-0.28458 -0.195682,-0.55896 -0.279993,-0.83998 -0.151595,-0.50534 -0.223466,-1.04866 -0.419987,-1.53997 -0.286804,-0.717 -0.581877,-1.43548 -0.886646,-2.14661 -0.10376,-0.24209 -0.297706,-0.49459 -0.373323,-0.74665 -0.01788,-0.0596 0,-0.12443 0,-0.18666 -0.03112,-0.0934 -0.05549,-0.18918 -0.09334,-0.28 -0.09972,-0.23931 -0.26247,-0.38493 -0.373327,-0.60664 -0.08399,-0.168 -0.056,-0.392 -0.139994,-0.55999 -0.01966,-0.0393 -0.06223,-0.0622 -0.09334,-0.0934 -0.04666,-0.0778 -0.108152,-0.14839 -0.139996,-0.23332 -0.01638,-0.0437 0,-0.0934 0,-0.13999 -0.03112,-0.0778 -0.05867,-0.15707 -0.09334,-0.23334 -0.157486,-0.34646 -0.372065,-0.6735 -0.513319,-1.02664 -0.02382,-0.0596 -0.01267,-0.13227 -0.04667,-0.18666 -0.240608,-0.38498 -0.13479,0.0104 -0.326658,-0.37332 -0.09925,-0.19852 -0.08487,-0.44973 -0.186662,-0.65332 -0.01966,-0.0393 -0.07365,-0.054 -0.09334,-0.0933 -0.04753,-0.0951 -0.230718,-0.50549 -0.279995,-0.65332 -0.0098,-0.0295 0,-0.0622 0,-0.0933 -0.03112,-0.0778 -0.05587,-0.15841 -0.09334,-0.23333 -0.08492,-0.16983 -0.206155,-0.36872 -0.326658,-0.51332 -0.02818,-0.0338 -0.07365,-0.054 -0.09334,-0.0933 -0.02867,-0.0574 -0.01485,-0.13097 -0.04666,-0.18666 0.01463,-0.17383 -0.175437,-0.10561 -0.23333,-0.18666 -0.08087,-0.11321 -0.103178,-0.26202 -0.186661,-0.37332 -0.221768,-0.29569 -0.475633,-0.58153 -0.79331,-0.79332 -0.204817,-0.13654 -0.504159,-0.296344 -0.74665,-0.326654 -0.06174,-0.0077 -0.125288,0.01024 -0.186661,0 -0.282493,-0.04708 -0.552533,-0.222503 -0.839978,-0.279995 -0.461074,-0.0922 -0.532524,0.175106 -0.653318,0.513321 -0.131324,0.367718 -0.291022,0.735908 -0.373321,1.119968 -0.02626,0.12263 -0.01627,0.25166 -0.04666,0.37333 -0.01689,0.0675 -0.07646,0.11917 -0.09334,0.18666 -0.03042,0.12167 -0.01627,0.25166 -0.04666,0.37332 -0.01689,0.0675 -0.07823,0.11876 -0.09334,0.18667 -0.01689,0.0759 0.0096,0.15615 0,0.23332 -0.03143,0.25138 -0.125228,0.50092 -0.186661,0.74665 -0.02295,0.0918 -0.01676,0.19023 -0.04666,0.27999 -0.03888,0.11666 -0.181477,0.33703 -0.233325,0.46666 -0.06031,0.15078 -0.05281,0.32964 -0.139998,0.46665 -0.07699,0.12099 -0.211321,0.20076 -0.279993,0.32666 -0.02979,0.0546 0,0.12444 0,0.18666 -0.04666,0.0622 -0.09685,0.12195 -0.139997,0.18666 -0.07662,0.115 -0.113388,0.2561 -0.186662,0.37333 -0.121732,0.19477 -0.200695,0.26841 -0.27999,0.46665 -0.03654,0.0914 -0.04052,0.19699 -0.09334,0.27999 -0.05905,0.0928 -0.168636,0.14438 -0.233328,0.23333 -0.06138,0.0844 -0.08631,0.19051 -0.139996,0.27999 -0.04002,0.0667 -0.105215,0.11713 -0.139997,0.18667 -0.07963,0.15923 -0.09017,0.30582 -0.18666,0.46665 -0.545702,0.90951 0.02389,-0.0319 -0.279995,0.37332 -0.211146,0.28154 -0.283111,0.67407 -0.466655,0.97997 -0.11921,0.19869 -0.307335,0.42237 -0.373324,0.65333 -0.04358,0.15253 -0.04976,0.31412 -0.09334,0.46665 -0.01911,0.0669 -0.0689,0.12153 -0.09334,0.18666 -0.100288,0.26743 -0.118068,0.5656 -0.186661,0.83998 -0.09921,0.39682 -0.221875,0.8065 -0.279994,1.2133 -0.01319,0.0924 0.01829,0.18847 0,0.28 -0.01364,0.0682 -0.07825,0.11874 -0.09334,0.18665 -0.07,0.315 0.056,0.14001 0,0.41999 0.02142,0.18742 -0.146029,0.30414 -0.186662,0.46666 -0.03791,0.15165 -0.01602,0.31336 -0.04667,0.46665 -0.03283,0.16419 -0.119211,0.30039 -0.139993,0.46666 -0.0077,0.0617 0.0077,0.12492 0,0.18666 -0.03226,0.25814 -0.170778,0.49644 -0.233329,0.74665 -0.05698,0.2279 0.01463,0.48547 -0.04666,0.69998 -0.01911,0.0669 -0.07335,0.12004 -0.09334,0.18665 -0.05438,0.18127 -0.03348,0.38047 -0.09334,0.56 -0.03299,0.0991 -0.114689,0.17876 -0.139997,0.27998 -0.02264,0.0906 0.01535,0.18795 0,0.28 -0.05228,0.31367 -0.227716,0.61964 -0.279993,0.93331 -0.01535,0.0921 0.01829,0.18847 0,0.28 -0.04527,0.22636 -0.289379,0.55076 -0.373323,0.74664 -0.132213,0.16349 -0.06853,0.38134 -0.139998,0.56 -0.124217,0.31054 -0.181842,0.0601 -0.27999,0.41997 -0.02454,0.09 0.01829,0.18848 0,0.28 -0.0476,0.23799 -0.258693,0.48982 -0.373326,0.69998 -0.380159,0.69696 -0.01338,-0.0399 -0.139994,0.46666 -0.01689,0.0675 -0.0689,0.12152 -0.09334,0.18665 -0.05267,0.14044 -0.165125,0.50257 -0.186661,0.65332 -0.03697,0.25877 0.02601,0.53328 0,0.79331 -0.01866,0.18667 -0.103167,0.37584 -0.139997,0.56 -0.05004,0.25019 -0.09661,0.50651 -0.186661,0.74664 -0.04885,0.13027 -0.137812,0.24305 -0.186662,0.37332 -0.07759,0.20692 -0.08824,0.44628 -0.139997,0.65333 -0.01686,0.0675 -0.07646,0.11916 -0.09334,0.18665 -0.03151,0.12601 0,0.28717 0,0.41999 0,0.5124 0.02686,0.80608 -0.139997,1.30663 -0.08721,0.26164 -0.316387,0.47457 -0.466656,0.69999 -0.11953,0.17929 0.04325,0.008 -0.09334,0.27999 -0.08126,0.16253 -0.296529,0.24081 -0.373324,0.41999 -0.09336,0.21781 0.0072,0.2046 -0.04666,0.41998 -0.01689,0.0675 -0.0689,0.12153 -0.09334,0.18667 -0.02252,0.06 -0.02138,0.12772 -0.04666,0.18667 -0.09334,0.21777 -0.07778,0.0777 -0.233328,0.23332 -0.05347,0.0536 -0.08652,0.17984 -0.139996,0.23333 -0.03966,0.0397 -0.106347,0.0485 -0.139997,0.0933 -0.06258,0.0834 0.08387,0.11547 -0.04666,0.18666 -0.147076,0.0802 -0.312008,0.12222 -0.466654,0.18666 -0.0321,0.0134 -0.0589,0.0417 -0.09334,0.0467 -0.251341,0.0359 -0.539566,0 -0.793313,0 -0.591096,0 -1.182194,0 -1.77329,0 -0.171103,0 -0.342212,0 -0.513319,0 -0.435545,0 -0.87109,0 -1.306631,0 -0.17036,0 -0.401703,0.0317 -0.559988,0 -0.154187,-0.0308 -0.434984,-0.18625 -0.559984,-0.28 -0.03282,-0.0246 -0.226046,-0.0964 -0.233326,-0.13999 -0.04037,-0.24226 -0.02387,-1.13756 0,-1.39997 0.09408,-1.0349 -6.25e-4,0.47492 0.09334,-0.55998 0.04446,-0.48904 0,-1.0015 0,-1.49329 0,-0.10885 -0.02865,-0.22161 0,-0.32667 0.02745,-0.10068 0.09987,-0.18365 0.139998,-0.27999 0.05535,-0.13284 0.171882,-0.53508 0.18666,-0.65332 0.0368,-0.29441 0.0063,-0.54981 0.09334,-0.83997 0.07877,-0.26258 0.294546,-0.48407 0.373323,-0.74664 0.01788,-0.0596 -0.01024,-0.1253 0,-0.18668 0.0331,-0.1986 0.230915,-0.36366 0.27999,-0.55997 0.02915,-0.11653 0.07295,-0.25103 0.09334,-0.37333 0.01024,-0.0613 -0.0151,-0.12629 0,-0.18667 0.0462,-0.18477 0.140469,-0.3752 0.186661,-0.55998 0.01245,-0.0498 -0.03422,-0.24576 0,-0.28 0.09334,-0.0933 0.303325,-0.18665 0.41999,-0.27997 0.145783,-0.11665 0.147261,-0.18322 0.233328,-0.32667 0.06505,-0.10838 0.174059,-0.16146 0.233325,-0.27999"
     id="path131" /><path
     style="fill:none;stroke:#000000;stroke-width:5.49574;stroke-dasharray:none"
     d="m 81.853466,128.96864 c 0.155551,0.0777 0.329905,0.12588 0.466656,0.23333 0.08821,0.0693 0.116592,0.1924 0.186661,0.27998 0.117005,0.14627 0.240878,0.28755 0.373323,0.42 0.49331,0.4933 -0.135622,-0.25499 0.373323,0.32665 0.18077,0.2066 0.320636,0.46063 0.513321,0.65333 0.05499,0.055 0.131665,0.0849 0.186663,0.13999 0.162588,0.16259 0.03878,0.10283 0.139994,0.27999 0.124413,0.21772 0.162368,0.17618 0.326659,0.37334 0.04453,0.0533 0.04414,0.13745 0.09334,0.18665 0.03966,0.0397 0.100342,0.0537 0.139996,0.0933 0.04919,0.0492 0.04414,0.13747 0.09334,0.18667 0.02461,0.0246 0.06661,0.0244 0.09334,0.0467 0.15216,0.1268 0.358431,0.30433 0.466655,0.46666"
     id="path132" /><path
     style="fill:none;stroke:#000000;stroke-width:5.49574;stroke-dasharray:none"
     d="m 80.780162,130.74192 c 0.06223,0 0.186662,0.0622 0.186662,0 0,-0.0622 -0.247026,-0.0151 -0.186662,0 0.245659,0.0614 0.516124,0.0353 0.746646,0.14001 0.130556,0.0593 0.174279,0.22975 0.279993,0.32665 0.08269,0.0758 0.192404,0.11665 0.279994,0.18667 0.06872,0.055 0.112042,0.14001 0.186662,0.18665 0.05439,0.0341 0.133296,0.0108 0.186662,0.0467 0.04666,0.031 0.04316,0.11488 0.09334,0.13999 0.08464,0.0424 0.19886,-0.002 0.279993,0.0467 0.08541,0.0513 0.101248,0.18208 0.186662,0.23332 0.08113,0.0487 0.190229,0.0168 0.279994,0.0467 0.341233,0.1137 0.235185,0.16428 0.559984,0.32667 0.166169,0.0831 0.388376,0.0885 0.559984,0.13999 0.06664,0.0199 0.120669,0.0714 0.186662,0.0933 0.02952,0.01 0.06314,-0.008 0.09334,0 0.09545,0.0238 0.184551,0.0695 0.279993,0.0934 0.219346,0.0549 0.724913,0 0.979972,0"
     id="path133" /><path
     style="fill:none;stroke:#000000;stroke-width:5.49574;stroke-dasharray:none"
     d="m 49.234316,131.67525 c -0.108885,0.0467 -0.225765,0.0778 -0.326658,0.13999 -0.16965,0.10434 -0.300907,0.26282 -0.466653,0.37331 -0.05787,0.0387 -0.13101,0.0516 -0.186661,0.0933 -0.03519,0.0264 -0.05397,0.0736 -0.09334,0.0933 -0.06668,0.14144 -0.195365,0.004 -0.279995,0.0467 -0.03935,0.0196 -0.05397,0.0736 -0.09334,0.0934 -0.02783,0.0139 -0.06314,-0.008 -0.09334,0 -0.06749,0.0169 -0.119174,0.0764 -0.186661,0.0933 -0.175682,0.044 -0.384302,-0.044 -0.559985,0 -0.06749,0.0169 -0.118449,0.0797 -0.186661,0.0934 -0.142864,0.0286 -0.357166,-0.0629 -0.466656,0.0467"
     id="path134" /><path
     style="fill:none;stroke:#000000;stroke-width:5.49574;stroke-dasharray:none"
     d="m 46.527721,131.62857 c -0.09334,0.0777 -0.194085,0.14743 -0.279992,0.23333 -0.01691,0.0169 -0.208989,0.2293 -0.233329,0.32665 -0.02673,0.10693 -0.03971,0.29811 -0.139997,0.37333 -0.03935,0.0295 -0.09433,0.0283 -0.139993,0.0467 -0.233871,0.0936 -0.326659,0.28125 -0.326659,0.51333"
     id="path135" /><path
     style="fill:none;stroke:#000000;stroke-width:5.49574;stroke-dasharray:none"
     d="m 55.160827,84.729792 c -0.07778,0.108886 -0.176347,0.205583 -0.233325,0.326659 -0.06915,0.146941 -0.08864,0.312586 -0.139997,0.466653 -0.143673,0.431027 -0.325097,0.8485 -0.373323,1.306635 -0.01467,0.139225 0.01851,0.281219 0,0.419986 -0.03572,0.267972 -0.226981,0.481589 -0.279993,0.746651 -0.04769,0.23846 0.0302,0.504955 0,0.746645 -0.02349,0.187775 -0.05368,0.374949 -0.09334,0.559985 -0.0073,0.03402 -0.03112,0.06223 -0.04667,0.09334 -0.01554,0.06222 -0.0376,0.12317 -0.04666,0.186661 -0.011,0.07699 0.02461,0.159542 0,0.233328 -0.02198,0.06599 -0.07132,0.120668 -0.09334,0.18666 -0.02952,0.08855 0.0094,0.187127 0,0.279994 -0.01501,0.150184 -0.07831,0.316471 -0.09334,0.466656 -0.01858,0.185735 0.03661,0.376947 0,0.559983 -0.01364,0.06822 -0.07335,0.120031 -0.09334,0.186663 -0.02721,0.09062 -0.02374,0.188198 -0.04667,0.279993 -0.01686,0.06749 -0.07133,0.120666 -0.09334,0.18666 -0.04554,0.136618 -0.07582,0.338286 -0.139998,0.466656 -0.03478,0.06957 -0.105214,0.1171 -0.139996,0.186663 -0.04175,0.08347 0.01024,0.187229 0,0.27999 -0.02214,0.199363 -0.08484,0.413646 -0.139997,0.606652 -0.11236,0.393271 0.0353,-0.129043 -0.139996,0.279995 -0.101173,0.236058 -0.143035,0.505863 -0.233328,0.746645 -0.02441,0.06513 -0.07646,0.119174 -0.09334,0.186661 -0.04543,0.181718 -0.01589,0.375227 -0.04666,0.559987 -0.03723,0.223404 -0.14224,0.431227 -0.18666,0.653314 -0.03838,0.191942 0.04746,0.416817 0,0.606653 -0.01689,0.06749 -0.07134,0.120665 -0.09334,0.186661 -0.064,0.191996 0.03344,0.452725 0,0.653317 -0.02626,0.157595 -0.136723,0.316833 -0.186665,0.466655 -0.212878,0.11412 -0.05395,0.355821 -0.09334,0.513321 -0.04899,0.195944 -0.127763,0.410317 -0.186661,0.606648 -0.07152,0.238382 -0.194426,0.425138 -0.279995,0.653317 -0.04505,0.120106 -0.04829,0.253219 -0.09334,0.373323 -0.02441,0.06513 -0.07646,0.119168 -0.09334,0.186658 -0.0151,0.0603 0.0151,0.1263 0,0.18666 -0.01689,0.0675 -0.07335,0.12003 -0.09334,0.18666 -0.04997,0.16658 -0.04757,0.34554 -0.09334,0.51332 -0.02589,0.0949 -0.07716,0.18296 -0.09334,0.28 -0.01535,0.0921 0.01829,0.18847 0,0.27999 -0.01364,0.0682 -0.07968,0.11845 -0.09334,0.18666 -0.04272,0.21355 0.0358,0.43851 0,0.65332 -0.01147,0.0686 -0.07335,0.12003 -0.09334,0.18666 -0.04559,0.15194 -0.07365,0.30925 -0.09334,0.46666 -0.04888,0.39109 0.08555,-0.0428 0,0.51331 -0.02471,0.16052 -0.108153,0.30741 -0.139996,0.46666 -0.01854,0.0928 -0.01159,0.19214 -0.04666,0.27999 -0.0289,0.0722 -0.112691,0.11384 -0.139996,0.18666 -0.02186,0.0582 0.0122,0.12565 0,0.18667 -0.01929,0.0965 -0.07404,0.18352 -0.09334,0.27999 -0.02439,0.12202 0.03017,0.25259 0,0.37332 -0.01686,0.0675 -0.07646,0.11917 -0.09334,0.18667 -0.0151,0.0604 0.0151,0.12629 0,0.18666 -0.01689,0.0675 -0.07646,0.11917 -0.09334,0.18665 -0.07279,0.29114 0.03146,0.91383 0,1.25997 -0.105473,1.16011 0.01748,-0.88651 -0.09334,0.88664 -0.0039,0.0621 0.0122,0.12565 0,0.18667 -0.01928,0.0965 -0.07717,0.18295 -0.09334,0.28 -0.04794,0.28771 0.03621,0.59693 0,0.88663 -0.04121,0.32974 -0.04219,0.0473 -0.139998,0.37332 -0.07777,0.25924 -0.106519,0.57219 -0.139996,0.83999 -0.0077,0.0617 0.01788,0.12706 0,0.18666 -0.05435,0.18114 -0.241638,0.46153 -0.27999,0.65331 -0.06138,0.11935 0.02045,0.25058 0,0.37333 -0.0375,0.22501 -0.137684,0.43291 -0.186663,0.65331 -0.05843,0.26295 0,0.86099 0,1.16663 0,0.7622 0,1.52441 0,2.28661 0,0.71554 0,1.43108 0,2.14661 0,0.21185 0.0496,0.87492 0,1.07331 -0.0392,0.15679 -0.148223,0.3129 -0.186661,0.46666 -0.04971,0.19883 0,0.44912 0,0.65331"
     id="path136" /><path
     style="fill:none;stroke:#000000;stroke-width:5.49574;stroke-dasharray:none"
     d="m 50.260956,118.00227 c 0.02035,0.98775 -0.433527,1.86733 -0.699981,2.79991 -0.06118,0.21416 -0.09064,0.43614 -0.139996,0.65333 -0.09188,0.40428 -0.186663,0.70278 -0.186663,1.11997"
     id="path137" /><path
     style="fill:#ffffff;stroke:#000000;stroke-width:5.49574;stroke-dasharray:none"
     d="m 51.147602,63.170355 c -0.103706,0.433683 -0.237466,0.860097 -0.279995,1.306631 -0.06089,0.639332 0,1.315548 0,1.95995 0,0.472527 -0.04709,0.975634 0,1.446629 0.03024,0.302344 0.177575,0.791658 0.279995,1.073305 0.02377,0.06539 0.07646,0.119174 0.09334,0.186662 0.0151,0.06036 -0.0231,0.128892 0,0.186662 0.03117,0.07795 0.292036,0.511815 0.373323,0.606651 0.05726,0.06681 0.140028,0.112042 0.186664,0.186662 0.08607,0.137714 0.06113,0.324691 0.139994,0.466656 0.03206,0.05769 0.09877,0.08846 0.139996,0.139993 0.158341,0.197925 0.178269,0.492234 0.32666,0.699984 0.148148,0.207407 0.191051,0.199826 0.279993,0.466653 0.005,0.01476 0,0.03112 0,0.04667 0.04666,0.139994 0.08956,0.281304 0.139996,0.419987 0.08949,0.246091 0.197972,0.433422 0.279992,0.699982 0.05216,0.169513 0.101517,0.340189 0.139997,0.513319 0.0067,0.03037 -0.01226,0.06473 0,0.09334 0.03573,0.08337 0.102466,0.150754 0.139997,0.233326 0.212462,0.467421 -0.01936,0.106131 0.18666,0.466655 0.09847,0.172314 0.109749,0.121541 0.186662,0.326658 0.02252,0.06005 0.02061,0.128055 0.04666,0.186662 0.07784,0.175141 0.204937,0.338184 0.279995,0.513319 0.05052,0.117903 0.04569,0.254227 0.09334,0.373324 0.03875,0.09688 0.110008,0.180047 0.139993,0.279994 0.02236,0.07449 -0.02461,0.15954 0,0.233325 0.102962,0.3089 0.270426,0.57795 0.373326,0.886647 0.09649,0.289514 0.10293,0.590102 0.139995,0.886641 0.02673,0.213987 0.160112,0.364746 0.233328,0.559986 0.152151,0.405737 0.207935,0.84444 0.326659,1.259968"
     id="path138" /><path
     style="fill:#ffffff;stroke:none;stroke-width:1.15986;stroke-dasharray:none"
     d="m 88.953861,132.58627 c -0.307929,-0.798 -1.925582,-5.86118 -2.405627,-7.52948 -0.56424,-1.96089 -0.675972,-2.69038 -0.886046,-5.78498 -0.629101,-9.26731 -1.292552,-13.34269 -3.926795,-24.121143 -1.40601,-5.752919 -1.835335,-7.674034 -2.123769,-9.503269 -0.163549,-1.037231 -0.163834,-3.722 -6.25e-4,-5.345588 0.334857,-3.329847 0.621796,-4.430969 1.691786,-6.492147 0.799764,-1.540629 1.136857,-2.368587 1.695601,-4.164688 0.236896,-0.761502 0.458856,-1.437124 0.493247,-1.501385 0.08219,-0.153567 0.377805,-0.150238 1.806748,0.02036 1.449604,0.173053 4.937716,0.244158 6.505086,0.132607 2.548569,-0.181382 3.383041,-0.359726 6.792889,-1.451786 l 1.220909,-0.391013 0.0401,4.003758 c 0.0221,2.202067 0.05928,15.422526 0.08268,29.3788 0.02339,13.956274 0.06047,27.075234 0.08236,29.153244 l 0.0398,3.77821 h -5.519191 -5.519155 z"
     id="path139" /></svg>
