<?xml version="1.0" encoding="UTF-8" standalone="no"?>
<!-- Created with Inkscape (http://www.inkscape.org/) -->

<svg
   version="1.1"
   id="svg1"
   width="512"
   height="512"
   viewBox="0 0 512 512"
   xml:space="preserve"
   xmlns="http://www.w3.org/2000/svg"
   xmlns:svg="http://www.w3.org/2000/svg"><defs
     id="defs1" /><g
     id="g1"><g
       id="g113"
       transform="matrix(1.1974425,0,0,1.1974425,-16.65194,-45.511462)"><path
         style="fill:#d0d0d0;fill-opacity:1"
         d="m 217.46792,379.37727 c 0.31559,-0.12734 0.832,-0.12734 1.14758,0 0.31558,0.12734 0.0574,0.23153 -0.57379,0.23153 -0.63117,0 -0.88937,-0.10419 -0.57379,-0.23153 z m -51.81432,-29.8773 c -0.57098,-0.72805 -0.55474,-0.74429 0.17331,-0.17331 0.44181,0.3465 0.8033,0.70798 0.8033,0.8033 0,0.3778 -0.37695,0.13464 -0.97661,-0.62999 z m 225.6288,-29.14848 -0.87445,-1.03283 1.03282,0.87445 c 0.56805,0.48095 1.03282,0.94572 1.03282,1.03282 0,0.36735 -0.36943,0.0962 -1.19119,-0.87444 z m 9.63965,-6.88547 -0.87445,-1.03282 1.03282,0.87444 c 0.9706,0.82177 1.24179,1.1912 0.87445,1.1912 -0.0871,0 -0.55187,-0.46477 -1.03282,-1.03282 z M 267.50233,295.83358 c 0.31558,-0.12734 0.83199,-0.12734 1.14758,0 0.31558,0.12734 0.0574,0.23153 -0.57379,0.23153 -0.63117,0 -0.88938,-0.10419 -0.57379,-0.23153 z m -164.67746,-2.16446 c 0,-0.0953 0.36148,-0.45681 0.8033,-0.8033 0.72805,-0.57098 0.74429,-0.55474 0.17331,0.17331 -0.59966,0.76463 -0.97661,1.00779 -0.97661,0.62999 z m 97.80989,-54.71918 c 0.022,-0.53474 0.1308,-0.64351 0.27733,-0.27733 0.1326,0.33136 0.1163,0.72728 -0.0362,0.87981 -0.15253,0.15253 -0.26102,-0.11858 -0.24109,-0.60248 z m -43.57173,-4.32254 c 0,-0.63117 0.10419,-0.88937 0.23153,-0.57379 0.12734,0.31558 0.12734,0.83199 0,1.14758 -0.12734,0.31558 -0.23153,0.0574 -0.23153,-0.57379 z M 62.545875,216.03663 c 0.0051,-1.00987 0.0991,-1.36894 0.208895,-0.79795 0.109797,0.57099 0.105629,1.39725 -0.0093,1.83612 -0.114893,0.43888 -0.204727,-0.0283 -0.199632,-1.03817 z m -0.07952,-7.38275 c 0.02203,-0.53475 0.130796,-0.64352 0.277331,-0.27733 0.132601,0.33136 0.116293,0.72728 -0.03624,0.87981 -0.152533,0.15253 -0.261024,-0.11858 -0.241092,-0.60248 z m 148.726125,-1.83612 c 0.022,-0.53475 0.1308,-0.64352 0.27733,-0.27734 0.1326,0.33137 0.1163,0.72728 -0.0362,0.87981 -0.15253,0.15254 -0.26102,-0.11858 -0.24109,-0.60247 z m 159.89254,-1.22409 -0.87445,-1.03282 1.03282,0.87445 c 0.56805,0.48095 1.03282,0.94572 1.03282,1.03282 0,0.36734 -0.36942,0.0961 -1.19119,-0.87445 z m 38.25797,-2.0622 c 1.83038,-0.0871 4.82556,-0.0871 6.65595,0 1.83039,0.0871 0.3328,0.15842 -3.32798,0.15842 -3.66077,0 -5.15836,-0.0713 -3.32797,-0.15842 z m 23.41059,0.0368 c 0.31558,-0.12734 0.83199,-0.12734 1.14758,0 0.31558,0.12734 0.0574,0.23153 -0.57379,0.23153 -0.63117,0 -0.88937,-0.10419 -0.57379,-0.23153 z m -54.47372,-4.55408 c 0.022,-0.53474 0.13079,-0.64351 0.27733,-0.27733 0.1326,0.33137 0.11629,0.72728 -0.0362,0.87981 -0.15253,0.15253 -0.26102,-0.11858 -0.24109,-0.60248 z m -19.37411,-5.58488 c -0.57097,-0.72805 -0.55474,-0.74428 0.17331,-0.17331 0.44182,0.3465 0.80331,0.70799 0.80331,0.80331 0,0.3778 -0.37695,0.13463 -0.97662,-0.63 z m -209.94824,-7.91829 c 0.45696,-0.50493 0.93411,-0.91806 1.06035,-0.91806 0.12623,0 -0.14436,0.41313 -0.60132,0.91806 -0.45696,0.50494 -0.93412,0.91807 -1.06035,0.91807 -0.12624,0 0.14436,-0.41313 0.60132,-0.91807 z m 201.17044,-22.79653 c 0.31559,-0.12735 0.832,-0.12735 1.14758,0 0.31559,0.12734 0.0574,0.23152 -0.57379,0.23152 -0.63117,0 -0.88937,-0.10418 -0.57379,-0.23152 z m 4.13129,0 c 0.31558,-0.12735 0.83199,-0.12735 1.14757,0 0.31559,0.12734 0.0574,0.23152 -0.57379,0.23152 -0.63116,0 -0.88937,-0.10418 -0.57378,-0.23152 z m 10.3282,-11.51431 c 2.71402,-0.0812 7.15515,-0.0812 9.86917,0 2.71402,0.0812 0.49346,0.14755 -4.93459,0.14755 -5.42804,0 -7.6486,-0.0664 -4.93458,-0.14755 z m -241.67996,-3.63373 c 0.31559,-0.12734 0.832,-0.12734 1.14758,0 0.31559,0.12734 0.0574,0.23153 -0.57379,0.23153 -0.63117,0 -0.88937,-0.10419 -0.57379,-0.23153 z"
         id="path120" /><path
         style="fill:#b9b9b9;fill-opacity:1"
         d="m 385.70288,396.32173 c 4.98622,-0.0741 13.1455,-0.0741 18.13173,0 4.98623,0.0741 0.90659,0.13474 -9.06587,0.13474 -9.97245,0 -14.05209,-0.0606 -9.06586,-0.13474 z m 32.58295,-15.72239 c 0,-0.88364 0.0945,-1.24512 0.20993,-0.80331 0.11546,0.44182 0.11546,1.16479 0,1.60661 -0.11546,0.44182 -0.20993,0.0803 -0.20993,-0.8033 z M 389.8259,368.20549 c 0,-0.88363 0.0945,-1.24512 0.20992,-0.8033 0.11546,0.44182 0.11546,1.16479 0,1.60661 -0.11546,0.44182 -0.20992,0.0803 -0.20992,-0.80331 z m -60.97176,-47.854 -0.87444,-1.03283 1.03282,0.87445 c 0.56805,0.48095 1.03282,0.94572 1.03282,1.03282 0,0.36735 -0.36943,0.0962 -1.1912,-0.87444 z m 60.80671,-1.60661 c -0.57098,-0.72805 -0.55474,-0.74429 0.17331,-0.17331 0.44181,0.34649 0.8033,0.70798 0.8033,0.8033 0,0.3778 -0.37695,0.13464 -0.97661,-0.62999 z m -55.54278,-9.18063 c -0.57098,-0.72805 -0.55474,-0.74428 0.17331,-0.17331 0.44181,0.3465 0.8033,0.70799 0.8033,0.80331 0,0.37779 -0.37695,0.13463 -0.97661,-0.63 z m -253.203211,-6.8593 c 0.446623,-0.11638 1.066315,-0.10873 1.377094,0.017 0.310779,0.12574 -0.05464,0.22096 -0.812041,0.21161 -0.757401,-0.009 -1.011675,-0.11223 -0.565053,-0.22862 z m 189.341661,-7.3625 c 1.07298,-0.0966 2.82878,-0.0966 3.90176,0 1.07299,0.0966 0.19509,0.17571 -1.95088,0.17571 -2.14597,0 -3.02387,-0.0791 -1.95088,-0.17571 z m 6.91415,0.0225 c 0.33137,-0.1326 0.72728,-0.11629 0.87981,0.0362 0.15254,0.15254 -0.11858,0.26103 -0.60247,0.2411 -0.53475,-0.022 -0.64352,-0.1308 -0.27734,-0.27734 z m -7.59244,-34.5728 c 0,-1.1361 0.0895,-1.60087 0.19893,-1.03282 0.10942,0.56805 0.10942,1.49759 0,2.06564 -0.10941,0.56805 -0.19893,0.10328 -0.19893,-1.03282 z M 200.671,240.5948 c 0,-0.63116 0.10419,-0.88937 0.23153,-0.57378 0.12734,0.31558 0.12734,0.83199 0,1.14757 -0.12734,0.31559 -0.23153,0.0574 -0.23153,-0.57379 z m -0.0362,-3.02195 c 0.022,-0.53475 0.1308,-0.64352 0.27733,-0.27733 0.1326,0.33136 0.1163,0.72728 -0.0362,0.87981 -0.15253,0.15253 -0.26102,-0.11859 -0.24109,-0.60248 z m -43.57173,-1.10933 c 0,-0.63116 0.10419,-0.88937 0.23153,-0.57379 0.12734,0.31559 0.12734,0.832 0,1.14758 -0.12734,0.31559 -0.23153,0.0574 -0.23153,-0.57379 z M 62.502594,213.51196 c 0,-0.63117 0.104188,-0.88937 0.231529,-0.57379 0.127341,0.31559 0.127341,0.832 0,1.14758 -0.127341,0.31558 -0.231529,0.0574 -0.231529,-0.57379 z m -0.03624,-3.48099 c 0.02203,-0.53474 0.130796,-0.64351 0.277331,-0.27733 0.132601,0.33137 0.116293,0.72728 -0.03624,0.87981 -0.152533,0.15253 -0.261024,-0.11858 -0.241092,-0.60248 z M 399.2443,203.53389 c 1.32545,-0.0927 3.49437,-0.0927 4.81983,0 1.32545,0.0927 0.24099,0.16859 -2.40992,0.16859 -2.6509,0 -3.73536,-0.0759 -2.40991,-0.16859 z m -34.5637,-3.90762 -1.81453,-1.95089 1.95088,1.81453 c 1.07299,0.99799 1.95089,1.87589 1.95089,1.95088 0,0.34729 -0.39975,-2.2e-4 -2.08724,-1.81452 z m -213.19842,-0.97662 c 0,-0.0953 0.36149,-0.45681 0.8033,-0.8033 0.72805,-0.57098 0.74429,-0.55474 0.17331,0.17331 -0.59966,0.76463 -0.97661,1.00779 -0.97661,0.62999 z m 226.79768,-1.01252 c 0.022,-0.53475 0.13079,-0.64352 0.27733,-0.27733 0.1326,0.33136 0.11629,0.72728 -0.0362,0.87981 -0.15253,0.15253 -0.26102,-0.11858 -0.24109,-0.60248 z M 143.21962,175.64188 c 0.59295,-0.63117 1.18137,-1.14758 1.30761,-1.14758 0.12623,0 -0.25563,0.51641 -0.84858,1.14758 -0.59295,0.63117 -1.18138,1.14758 -1.30761,1.14758 -0.12624,0 0.25562,-0.51641 0.84858,-1.14758 z m -12.74638,-2.52467 c 0,-0.88363 0.0945,-1.24512 0.20992,-0.8033 0.11546,0.44181 0.11546,1.16479 0,1.60661 -0.11546,0.44181 -0.20992,0.0803 -0.20992,-0.80331 z m 215.12061,-12.27909 c -0.57098,-0.72804 -0.55474,-0.74428 0.17331,-0.17331 0.44181,0.3465 0.8033,0.70799 0.8033,0.80331 0,0.3778 -0.37695,0.13463 -0.97661,-0.63 z m -1.22906,-4.01652 c 0.009,-0.7574 0.11224,-1.01167 0.22862,-0.56505 0.11638,0.44662 0.10873,1.06631 -0.017,1.37709 -0.12574,0.31078 -0.22096,-0.0546 -0.21161,-0.81204 z m 39.06391,-5.62044 c 1.96816,-0.0862 5.06662,-0.0857 6.88547,0.001 1.81885,0.0869 0.20853,0.15747 -3.57847,0.15683 -3.78701,-6.5e-4 -5.27516,-0.0717 -3.307,-0.158 z m -341.010058,-16.2983 -0.874449,-1.03282 1.032821,0.87445 c 0.970596,0.82176 1.24179,1.19119 0.874448,1.19119 -0.0871,0 -0.551873,-0.46477 -1.03282,-1.03282 z m 7.825547,-9.63966 -1.814527,-1.95088 1.950883,1.81453 c 1.814301,1.68749 2.161819,2.08724 1.814526,2.08724 -0.075,0 -0.952893,-0.8779 -1.950882,-1.95089 z"
         id="path119" /><path
         style="fill:#a3a3a3;fill-opacity:1"
         d="m 373.77437,396.33604 c 0.69776,-0.10551 1.73058,-0.10269 2.29516,0.006 0.56458,0.10896 -0.006,0.19529 -1.26865,0.19184 -1.26233,-0.003 -1.72426,-0.0926 -1.02651,-0.1981 z m 39.26955,0.0158 c 0.33137,-0.1326 0.72728,-0.11629 0.87981,0.0362 0.15254,0.15253 -0.11858,0.26102 -0.60247,0.24109 -0.53475,-0.022 -0.64352,-0.13079 -0.27734,-0.27733 z M 388.22755,385.3056 c 3.34519,-0.0784 8.81914,-0.0784 12.16433,0 3.34519,0.0784 0.60821,0.1426 -6.08217,0.1426 -6.69038,0 -9.42735,-0.0642 -6.08216,-0.1426 z m 30.05828,-1.95208 c 0,-0.88363 0.0945,-1.24512 0.20993,-0.8033 0.11546,0.44182 0.11546,1.16479 0,1.60661 -0.11546,0.44182 -0.20993,0.0803 -0.20993,-0.80331 z m 2.87721,-10.55771 c 0.45696,-0.50494 0.93412,-0.91807 1.06035,-0.91807 0.12623,0 -0.14436,0.41313 -0.60132,0.91807 -0.45696,0.50493 -0.93412,0.91806 -1.06035,0.91806 -0.12623,0 0.14436,-0.41313 0.60132,-0.91806 z m -33.76351,-56.34609 -1.5819,-1.72137 1.72137,1.5819 c 1.60221,1.4724 1.93242,1.86084 1.5819,1.86084 -0.0767,0 -0.85132,-0.77462 -1.72137,-1.72137 z m -2.78803,-2.75419 c -0.57097,-0.72805 -0.55474,-0.74428 0.17331,-0.17331 0.44182,0.3465 0.80331,0.70799 0.80331,0.80331 0,0.3778 -0.37695,0.13463 -0.97662,-0.63 z m -204.21035,-3.50128 c 0,-0.0953 0.36148,-0.45681 0.8033,-0.80331 0.72805,-0.57097 0.74429,-0.55474 0.17331,0.17331 -0.59966,0.76463 -0.97661,1.00779 -0.97661,0.63 z m 93.64237,-14.97473 -2.06564,-0.32114 2.15331,-0.0689 c 1.18432,-0.0379 2.28097,0.13762 2.43701,0.39008 0.15603,0.25247 0.11658,0.42801 -0.0877,0.39009 -0.20425,-0.0379 -1.3009,-0.21346 -2.43701,-0.39009 z m 155.52553,-25.10125 c 0.33136,-0.13261 0.72728,-0.1163 0.87981,0.0362 0.15253,0.15254 -0.11858,0.26103 -0.60248,0.2411 -0.53474,-0.022 -0.64351,-0.1308 -0.27733,-0.27733 z m -274.9322,-3.70296 c -0.57098,-0.72805 -0.55474,-0.74428 0.17331,-0.17331 0.44181,0.3465 0.8033,0.70799 0.8033,0.80331 0,0.3778 -0.37695,0.13463 -0.97661,-0.63 z m 11.01675,-40.85378 c -0.57098,-0.72805 -0.55474,-0.74428 0.17331,-0.17331 0.44181,0.3465 0.8033,0.70799 0.8033,0.80331 0,0.37779 -0.37695,0.13463 -0.97661,-0.63 z M 62.502594,211.67584 c 0,-0.63117 0.104188,-0.88938 0.231529,-0.57379 0.127341,0.31558 0.127341,0.83199 0,1.14757 -0.127341,0.31559 -0.231529,0.0574 -0.231529,-0.57378 z M 383.63724,203.5683 c 0.31558,-0.12734 0.83199,-0.12734 1.14757,0 0.31559,0.12734 0.0574,0.23153 -0.57379,0.23153 -0.63116,0 -0.88937,-0.10419 -0.57378,-0.23153 z m 5.73789,-0.0352 c 1.45168,-0.0911 3.82717,-0.0911 5.27886,0 1.45168,0.0911 0.26394,0.16562 -2.63943,0.16562 -2.90338,0 -4.09112,-0.0745 -2.63943,-0.16562 z m -27.69138,-6.89053 -1.11284,-1.26233 1.26234,1.11283 c 0.69429,0.61206 1.26234,1.18011 1.26234,1.26234 0,0.36 -0.37173,0.067 -1.41184,-1.11284 z M 146.31808,169.59998 c 0.31558,-0.12734 0.83199,-0.12734 1.14758,0 0.31558,0.12735 0.0574,0.23153 -0.57379,0.23153 -0.63117,0 -0.88938,-0.10418 -0.57379,-0.23153 z m 251.77864,-18.39977 c 2.71402,-0.0812 7.15515,-0.0812 9.86917,0 2.71402,0.0812 0.49346,0.14755 -4.93458,0.14755 -5.42805,0 -7.64861,-0.0664 -4.93459,-0.14755 z"
         id="path118" /><path
         style="fill:#8c8c8c;fill-opacity:1"
         d="m 418.26882,385.8782 c 0.009,-0.7574 0.11224,-1.01168 0.22862,-0.56506 0.11639,0.44663 0.10873,1.06632 -0.017,1.3771 -0.12574,0.31078 -0.22096,-0.0546 -0.21161,-0.81204 z m -199.85415,-6.96953 c 0.33137,-0.1326 0.72728,-0.11629 0.87981,0.0362 0.15254,0.15253 -0.11858,0.26103 -0.60248,0.24109 -0.53474,-0.022 -0.64351,-0.13079 -0.27733,-0.27733 z m 203.89595,-7.20424 c 0,-0.0953 0.36149,-0.4568 0.8033,-0.8033 0.72805,-0.57098 0.74429,-0.55474 0.17331,0.17331 -0.59966,0.76463 -0.97661,1.00779 -0.97661,0.62999 z m -237.3539,-17.61415 -1.11284,-1.26233 1.26234,1.11283 c 1.17984,1.04012 1.47284,1.41184 1.11283,1.41184 -0.0822,0 -0.65027,-0.56805 -1.26233,-1.26234 z m 18.96978,-10.09182 c 1.19922,-0.0946 3.16158,-0.0946 4.3608,0 1.19922,0.0946 0.21804,0.17193 -2.1804,0.17193 -2.39844,0 -3.37962,-0.0774 -2.1804,-0.17193 z m -5.68169,-0.92493 c -0.57097,-0.72805 -0.55473,-0.74428 0.17331,-0.17331 0.44182,0.3465 0.80331,0.70799 0.80331,0.80331 0,0.3778 -0.37695,0.13463 -0.97662,-0.63 z m 2.38995,-99.99231 c 0.022,-0.53474 0.1308,-0.64351 0.27733,-0.27733 0.1326,0.33137 0.1163,0.72728 -0.0362,0.87981 -0.15253,0.15253 -0.26102,-0.11858 -0.24109,-0.60248 z m -33.05025,-9.18062 c 0.022,-0.53475 0.1308,-0.64352 0.27733,-0.27733 0.1326,0.33136 0.1163,0.72728 -0.0362,0.87981 -0.15253,0.15253 -0.26102,-0.11859 -0.24109,-0.60248 z m 200.74632,-30.60208 -0.87445,-1.03282 1.03282,0.87444 c 0.56806,0.48095 1.03282,0.94572 1.03282,1.03282 0,0.36735 -0.36942,0.0962 -1.19119,-0.87444 z m 17.14253,0.26978 c 0.31558,-0.12734 0.83199,-0.12734 1.14758,0 0.31558,0.12734 0.0574,0.23153 -0.57379,0.23153 -0.63117,0 -0.88937,-0.10419 -0.57379,-0.23153 z m -298.987718,-6.23719 -0.874448,-1.03282 1.03282,0.87445 c 0.970596,0.82176 1.24179,1.19119 0.874449,1.19119 -0.0871,0 -0.551874,-0.46477 -1.032821,-1.03282 z m 273.338178,-2.52467 c -0.57098,-0.72805 -0.55474,-0.74429 0.17331,-0.17331 0.76463,0.59966 1.00779,0.97661 0.62999,0.97661 -0.0953,0 -0.45681,-0.36149 -0.8033,-0.8033 z m 23.81342,-2.25489 c 0.31558,-0.12734 0.83199,-0.12734 1.14757,0 0.31559,0.12734 0.0574,0.23153 -0.57379,0.23153 -0.63116,0 -0.88937,-0.10419 -0.57378,-0.23153 z m 5.29794,-0.0368 c 1.71466,-0.0886 4.39999,-0.0879 5.96741,0.001 1.56742,0.0894 0.16452,0.16183 -3.11755,0.16102 -3.28207,-8e-4 -4.56451,-0.0739 -2.84986,-0.16248 z M 177.31922,176.10091 c 0.003,-1.26233 0.0926,-1.72426 0.1981,-1.02651 0.10551,0.69776 0.10269,1.73058 -0.006,2.29516 -0.10896,0.56458 -0.19529,-0.006 -0.19184,-1.26865 z m -33.69912,-7.91829 c -0.57098,-0.72804 -0.55474,-0.74428 0.17331,-0.17331 0.44181,0.3465 0.8033,0.70799 0.8033,0.80331 0,0.3778 -0.37695,0.13463 -0.97661,-0.63 z m 259.31444,-5.96346 c 1.58781,-0.0899 4.06658,-0.0891 5.50837,0.002 1.44179,0.0908 0.14267,0.16435 -2.88693,0.16344 -3.02961,-9.1e-4 -4.20926,-0.0752 -2.62144,-0.16509 z m 9.61143,0.009 c 0.81488,-0.1014 2.26083,-0.10307 3.21321,-0.004 0.95239,0.0994 0.28566,0.18234 -1.48161,0.18438 -1.76727,0.002 -2.54649,-0.0793 -1.7316,-0.18068 z m -375.635703,-2.07861 -0.874449,-1.03282 1.03282,0.87445 c 0.970597,0.82176 1.241791,1.19119 0.874449,1.19119 -0.0871,0 -0.551873,-0.46477 -1.03282,-1.03282 z m 386.813683,-2.9072 c 0.022,-0.53475 0.1308,-0.64352 0.27733,-0.27733 0.1326,0.33136 0.1163,0.72728 -0.0362,0.87981 -0.15253,0.15253 -0.26102,-0.11858 -0.24109,-0.60248 z m -78.53058,-3.57779 c 0,-0.0953 0.36148,-0.45681 0.8033,-0.80331 0.72805,-0.57097 0.74429,-0.55474 0.17331,0.17331 -0.59966,0.76463 -0.97661,1.0078 -0.97661,0.63 z m 68.28625,-2.4465 c 0.57099,-0.1098 1.39725,-0.10563 1.83612,0.009 0.43888,0.11489 -0.0283,0.20473 -1.03817,0.19963 -1.00987,-0.005 -1.36895,-0.0991 -0.79795,-0.20889 z m 3.23656,0.0111 c 0.33136,-0.1326 0.72727,-0.11629 0.8798,0.0362 0.15254,0.15253 -0.11858,0.26102 -0.60247,0.24109 -0.53475,-0.022 -0.64352,-0.13079 -0.27733,-0.27733 z m -373.379475,-15.86728 -0.874449,-1.03282 1.03282,0.87445 c 0.970596,0.82176 1.24179,1.19119 0.874449,1.19119 -0.0871,0 -0.551874,-0.46477 -1.03282,-1.03282 z"
         id="path117" /><path
         style="fill:#767676;fill-opacity:1"
         d="m 418.26882,388.17335 c 0.009,-0.7574 0.11224,-1.01167 0.22862,-0.56505 0.11639,0.44662 0.10873,1.06631 -0.017,1.37709 -0.12574,0.31078 -0.22096,-0.0546 -0.21161,-0.81204 z m 5.91416,-21.61272 c 0.022,-0.53474 0.1308,-0.64351 0.27733,-0.27733 0.1326,0.33136 0.1163,0.72728 -0.0362,0.87981 -0.15253,0.15253 -0.26102,-0.11858 -0.24109,-0.60248 z m -246.59457,-3.28972 c -0.57098,-0.72805 -0.55474,-0.74429 0.17331,-0.17331 0.76463,0.59966 1.00779,0.97661 0.62999,0.97661 -0.0953,0 -0.4568,-0.36148 -0.8033,-0.8033 z m 49.21113,-2.21865 c 0.022,-0.53475 0.1308,-0.64352 0.27733,-0.27734 0.13261,0.33137 0.1163,0.72728 -0.0362,0.87981 -0.15254,0.15254 -0.26103,-0.11858 -0.2411,-0.60247 z m -26.31578,-17.0204 c 0.31559,-0.12734 0.832,-0.12734 1.14758,0 0.31559,0.12734 0.0574,0.23153 -0.57379,0.23153 -0.63116,0 -0.88937,-0.10419 -0.57379,-0.23153 z m -48.6011,-10.59798 c -0.57098,-0.72805 -0.55474,-0.74429 0.17331,-0.17331 0.44182,0.34649 0.8033,0.70798 0.8033,0.8033 0,0.3778 -0.37695,0.13464 -0.97661,-0.62999 z m 173.07859,-16.98416 -1.11284,-1.26234 1.26234,1.11284 c 0.69429,0.61206 1.26234,1.18011 1.26234,1.26234 0,0.36 -0.37173,0.067 -1.41184,-1.11284 z m 77.57628,-0.91806 -1.11283,-1.26234 1.26233,1.11284 c 0.69429,0.61206 1.26234,1.18011 1.26234,1.26233 0,0.36001 -0.37172,0.067 -1.41184,-1.11283 z m -3.91063,-3.90177 -0.87445,-1.03282 1.03282,0.87445 c 0.97059,0.82177 1.24179,1.19119 0.87445,1.19119 -0.0871,0 -0.55188,-0.46477 -1.03282,-1.03282 z m -20.80607,-13.92395 c 0.022,-0.53474 0.13079,-0.64351 0.27733,-0.27733 0.1326,0.33137 0.11629,0.72728 -0.0362,0.87981 -0.15253,0.15253 -0.26103,-0.11858 -0.24109,-0.60248 z m 17.80742,-15.22453 c -0.57097,-0.72805 -0.55474,-0.74429 0.17331,-0.17331 0.44182,0.34649 0.80331,0.70798 0.80331,0.8033 0,0.3778 -0.37695,0.13464 -0.97662,-0.62999 z M 156.01394,267.33338 c -0.57098,-0.72805 -0.55474,-0.74429 0.17331,-0.17331 0.76463,0.59966 1.00779,0.97661 0.62999,0.97661 -0.0953,0 -0.4568,-0.36149 -0.8033,-0.8033 z m 11.57057,-26.08828 c 0.022,-0.53475 0.1308,-0.64352 0.27733,-0.27733 0.1326,0.33136 0.1163,0.72728 -0.0362,0.87981 -0.15253,0.15253 -0.26102,-0.11859 -0.24109,-0.60248 z m 0.0703,-5.24061 c 0,-0.88363 0.0945,-1.24512 0.20992,-0.8033 0.11546,0.44182 0.11546,1.16479 0,1.60661 -0.11545,0.44181 -0.20992,0.0803 -0.20992,-0.80331 z m 202.97122,-14.34472 -0.87445,-1.03282 1.03282,0.87444 c 0.56805,0.48095 1.03282,0.94572 1.03282,1.03282 0,0.36735 -0.36943,0.0961 -1.19119,-0.87444 z m 66.31508,-27.7714 c -0.57098,-0.72804 -0.55474,-0.74428 0.17331,-0.1733 0.44181,0.34649 0.8033,0.70798 0.8033,0.8033 0,0.3778 -0.37695,0.13464 -0.97661,-0.63 z m -36.5301,-1.37365 c 1.71465,-0.0886 4.39998,-0.0879 5.9674,10e-4 1.56742,0.0894 0.16452,0.16183 -3.11755,0.16102 -3.28207,-8e-4 -4.56451,-0.0739 -2.84985,-0.16248 z m -250.99443,-7.92173 c 0.45696,-0.50493 0.93412,-0.91806 1.06035,-0.91806 0.12623,0 -0.14436,0.41313 -0.60132,0.91806 -0.45696,0.50494 -0.93412,0.91806 -1.06035,0.91806 -0.12624,0 0.14436,-0.41312 0.60132,-0.91806 z m 27.87789,-11.93481 c 0,-0.88364 0.0945,-1.24512 0.20992,-0.80331 0.11546,0.44182 0.11546,1.1648 0,1.60661 -0.11546,0.44182 -0.20992,0.0803 -0.20992,-0.8033 z m -2.00118,-6.31168 c -0.57097,-0.72805 -0.55474,-0.74429 0.17331,-0.17331 0.44182,0.3465 0.80331,0.70798 0.80331,0.8033 0,0.3778 -0.37695,0.13464 -0.97662,-0.62999 z m 204.90125,-4.1303 c 3.72389,-0.0771 9.81753,-0.0771 13.54142,0 3.72389,0.0772 0.67707,0.14029 -6.77071,0.14029 -7.44778,0 -10.4946,-0.0631 -6.77071,-0.14029 z m 37.41105,0.0393 c 0.31558,-0.12734 0.83199,-0.12734 1.14758,0 0.31558,0.12734 0.0574,0.23153 -0.57379,0.23153 -0.63117,0 -0.88938,-0.10419 -0.57379,-0.23153 z m -71.76725,-1.64687 -0.87445,-1.03282 1.03282,0.87445 c 0.9706,0.82176 1.24179,1.19119 0.87445,1.19119 -0.0871,0 -0.55187,-0.46477 -1.03282,-1.03282 z m -304.782015,-27.54188 -1.348217,-1.49185 1.491852,1.34822 c 0.820518,0.74152 1.491851,1.41285 1.491851,1.49185 0,0.35463 -0.378759,0.0424 -1.635486,-1.34822 z m 9.180625,-7.3445 -1.348217,-1.49185 1.491852,1.34822 c 1.390615,1.25673 1.702846,1.63549 1.348216,1.63549 -0.079,0 -0.750332,-0.67134 -1.491851,-1.49186 z"
         id="path116" /><path
         style="fill:#606060;fill-opacity:1"
         d="m 368.18117,391.34832 c 0.022,-0.53475 0.1308,-0.64352 0.27733,-0.27733 0.1326,0.33136 0.11629,0.72728 -0.0362,0.87981 -0.15253,0.15253 -0.26102,-0.11859 -0.24109,-0.60248 z m 50.08765,-0.87981 c 0.009,-0.7574 0.11224,-1.01168 0.22862,-0.56505 0.11639,0.44662 0.10873,1.06631 -0.017,1.37709 -0.12574,0.31078 -0.22096,-0.0546 -0.21161,-0.81204 z m -11.49279,-9.86917 c 0,-0.63117 0.10419,-0.88938 0.23153,-0.57379 0.12734,0.31558 0.12734,0.83199 0,1.14758 -0.12734,0.31558 -0.23153,0.0574 -0.23153,-0.57379 z M 226.85279,359.25438 c 0.009,-0.7574 0.11223,-1.01167 0.22862,-0.56505 0.11638,0.44662 0.10873,1.06632 -0.017,1.37709 -0.12574,0.31078 -0.22096,-0.0546 -0.21161,-0.81204 z m -0.017,-2.52467 c 0,-0.63117 0.10419,-0.88937 0.23153,-0.57379 0.12734,0.31559 0.12734,0.832 0,1.14758 -0.12734,0.31559 -0.23153,0.0574 -0.23153,-0.57379 z m 31.97364,-24.18319 c 0.33137,-0.1326 0.72728,-0.1163 0.87981,0.0362 0.15254,0.15253 -0.11858,0.26102 -0.60247,0.24109 -0.53475,-0.022 -0.64352,-0.1308 -0.27734,-0.27733 z m 127.44565,-17.70341 -1.81453,-1.95088 1.95088,1.81452 c 1.8143,1.6875 2.16182,2.08724 1.81453,2.08724 -0.075,0 -0.95289,-0.87789 -1.95088,-1.95088 z m 14.20795,-1.37709 -0.87445,-1.03282 1.03282,0.87444 c 0.9706,0.82177 1.24179,1.1912 0.87445,1.1912 -0.0871,0 -0.55187,-0.46477 -1.03282,-1.03282 z M 269.82617,294.90595 c 0.33137,-0.1326 0.72728,-0.11629 0.87981,0.0362 0.15254,0.15253 -0.11858,0.26103 -0.60247,0.24109 -0.53475,-0.022 -0.64352,-0.13079 -0.27734,-0.27733 z m -205.818322,-12.65406 -1.348217,-1.49185 1.491851,1.34822 c 0.820519,0.74152 1.491852,1.41285 1.491852,1.49185 0,0.35463 -0.37876,0.0424 -1.635486,-1.34822 z M 311.34082,281.6781 c 0.005,-1.00987 0.0991,-1.36895 0.20889,-0.79795 0.1098,0.57099 0.10563,1.39725 -0.009,1.83612 -0.1149,0.43888 -0.20473,-0.0283 -0.19963,-1.03817 z M 167.66403,238.9882 c 0.005,-1.00987 0.0991,-1.36895 0.2089,-0.79796 0.10979,0.571 0.10563,1.39725 -0.009,1.83613 -0.11489,0.43887 -0.20472,-0.0283 -0.19963,-1.03817 z m 198.12719,-22.14826 c -0.57097,-0.72805 -0.55474,-0.74429 0.17331,-0.17331 0.44182,0.34649 0.80331,0.70798 0.80331,0.8033 0,0.3778 -0.37695,0.13464 -0.97662,-0.62999 z m 4.83477,-11.24627 -0.87445,-1.03282 1.03282,0.87445 c 0.56805,0.48095 1.03282,0.94572 1.03282,1.03282 0,0.36734 -0.36943,0.0961 -1.19119,-0.87445 z m -219.5666,-3.82526 c 0.022,-0.53474 0.13079,-0.64351 0.27733,-0.27733 0.1326,0.33136 0.11629,0.72728 -0.0362,0.87981 -0.15253,0.15253 -0.26103,-0.11858 -0.24109,-0.60248 z m 228.9618,-0.0765 c -0.57097,-0.72805 -0.55474,-0.74429 0.17331,-0.17331 0.76463,0.59966 1.00779,0.97661 0.63,0.97661 -0.0953,0 -0.45681,-0.36149 -0.80331,-0.8033 z m 56.5194,0.62999 c 0,-0.0953 0.36148,-0.45681 0.8033,-0.8033 0.72805,-0.57098 0.74429,-0.55474 0.17331,0.17331 -0.59966,0.76463 -0.97661,1.00779 -0.97661,0.62999 z m -269.91038,-2.29516 c 0,-0.0953 0.36149,-0.4568 0.8033,-0.8033 0.72805,-0.57098 0.74429,-0.55474 0.17331,0.17331 -0.59966,0.76463 -0.97661,1.00779 -0.97661,0.62999 z m 271.78274,-2.38961 c 0.022,-0.53475 0.1308,-0.64352 0.27733,-0.27733 0.1326,0.33136 0.1163,0.72728 -0.0362,0.87981 -0.15253,0.15253 -0.26102,-0.11858 -0.24109,-0.60248 z m -26.08626,-5.12278 c 1.95662,-0.086 5.15836,-0.086 7.11498,0 1.95662,0.0861 0.35575,0.15645 -3.55749,0.15645 -3.91324,0 -5.51411,-0.0704 -3.55749,-0.15645 z m -62.62908,-30.26843 c 0.33137,-0.1326 0.72728,-0.11629 0.87981,0.0362 0.15253,0.15253 -0.11858,0.26102 -0.60248,0.24109 -0.53474,-0.022 -0.64351,-0.13079 -0.27733,-0.27733 z m 9.38145,-0.029 c 2.71403,-0.0812 7.15515,-0.0812 9.86918,0 2.71402,0.0812 0.49345,0.14755 -4.93459,0.14755 -5.42805,0 -7.64861,-0.0664 -4.93459,-0.14755 z"
         id="path115" /><path
         style="fill:#494949;fill-opacity:1"
         d="m 281.76099,395.89283 c 0.33136,-0.1326 0.72727,-0.11629 0.87981,0.0362 0.15253,0.15253 -0.11859,0.26102 -0.60248,0.24109 -0.53475,-0.022 -0.64352,-0.1308 -0.27733,-0.27733 z m 140.77914,-24.93315 c 0.45696,-0.50493 0.93412,-0.91806 1.06035,-0.91806 0.12624,0 -0.14436,0.41313 -0.60131,0.91806 -0.45696,0.50494 -0.93412,0.91806 -1.06036,0.91806 -0.12623,0 0.14436,-0.41312 0.60132,-0.91806 z m -175.45596,-1.23617 c 0.44663,-0.11638 1.06632,-0.10873 1.3771,0.017 0.31078,0.12574 -0.0546,0.22097 -0.81204,0.21161 -0.75741,-0.009 -1.01168,-0.11223 -0.56506,-0.22862 z m 91.16518,-27.10901 c -0.57098,-0.72805 -0.55474,-0.74428 0.17331,-0.17331 0.44181,0.3465 0.8033,0.70799 0.8033,0.80331 0,0.37779 -0.37695,0.13463 -0.97661,-0.63 z m 50.49344,-25.24672 c -0.57098,-0.72805 -0.55474,-0.74428 0.1733,-0.17331 0.44182,0.3465 0.80331,0.70799 0.80331,0.80331 0,0.3778 -0.37695,0.13463 -0.97661,-0.63 z m 0.59006,-18.93504 c 0,-0.63117 0.10418,-0.88937 0.23153,-0.57379 0.12734,0.31559 0.12734,0.832 0,1.14758 -0.12735,0.31559 -0.23153,0.0574 -0.23153,-0.57379 z m -327.634895,-18.47601 -0.874449,-1.03282 1.03282,0.87445 c 0.568051,0.48095 1.032821,0.94572 1.032821,1.03282 0,0.36734 -0.369426,0.0961 -1.191192,-0.87445 z M 437.12464,254.36574 c 0,-1.1361 0.0895,-1.60087 0.19893,-1.03282 0.10941,0.56805 0.10941,1.49759 0,2.06564 -0.10941,0.56805 -0.19893,0.10328 -0.19893,-1.03282 z M 165.19456,225.56153 c -0.57097,-0.72805 -0.55474,-0.74428 0.17331,-0.17331 0.44182,0.3465 0.80331,0.70799 0.80331,0.80331 0,0.37779 -0.37695,0.13463 -0.97662,-0.63 z m 198.79438,-26.16478 -1.5819,-1.72137 1.72137,1.5819 c 1.60221,1.4724 1.93242,1.86084 1.5819,1.86084 -0.0767,0 -0.85133,-0.77462 -1.72137,-1.72137 z M 152.62976,197.9049 c 0.45696,-0.50494 0.93411,-0.91806 1.06035,-0.91806 0.12623,0 -0.14436,0.41312 -0.60132,0.91806 -0.45696,0.50493 -0.93412,0.91806 -1.06035,0.91806 -0.12624,0 0.14436,-0.41313 0.60132,-0.91806 z m 272.33568,-5.3883 c 1.33391,-0.093 3.39955,-0.092 4.59031,0.002 1.19075,0.0942 0.0994,0.17032 -2.4253,0.16912 -2.52468,-0.001 -3.49893,-0.0783 -2.16501,-0.1713 z M 114.2421,162.21522 c -0.57098,-0.72805 -0.55474,-0.74429 0.1733,-0.17331 0.76464,0.59966 1.0078,0.97661 0.63,0.97661 -0.0953,0 -0.45681,-0.36148 -0.8033,-0.8033 z m 237.26295,0.0203 c 0.56805,-0.10941 1.49759,-0.10941 2.06564,0 0.56805,0.10941 0.10328,0.19893 -1.03282,0.19893 -1.1361,0 -1.60087,-0.0895 -1.03282,-0.19893 z m -229.21497,-8.5124 -0.87445,-1.03282 1.03282,0.87445 c 0.9706,0.82176 1.24179,1.19119 0.87445,1.19119 -0.0871,0 -0.55187,-0.46477 -1.03282,-1.03282 z m 222.90329,0.40048 c 0,-0.0953 0.36148,-0.45681 0.8033,-0.80331 0.72805,-0.57097 0.74429,-0.55473 0.17331,0.17331 -0.59966,0.76463 -0.97661,1.0078 -0.97661,0.63 z M 26.256134,130.19779 c 0.0094,-0.7574 0.112232,-1.01168 0.228617,-0.56505 0.116384,0.44662 0.10873,1.06631 -0.01701,1.37709 -0.12574,0.31078 -0.220963,-0.0546 -0.211607,-0.81204 z"
         id="path114" /><path
         style="fill:#333333;fill-opacity:1"
         d="m 281.38802,395.86921 c -4.89371,-0.57955 -5.19807,-5.55867 -0.9004,-14.72966 4.087,-8.72145 11.39635,-17.98269 24.65657,-31.24092 4.38893,-4.38826 7.81079,-8.12968 7.60415,-8.31427 -0.20664,-0.18459 -2.8761,-2.51402 -5.93213,-5.1765 -10.21052,-8.89564 -15.49242,-15.66406 -19.60478,-25.12224 -1.60609,-3.69394 -3.06173,-9.61973 -3.066,-12.48151 -0.002,-1.18432 -0.24255,-2.30123 -0.53507,-2.48201 -1.19137,-0.73631 -6.36388,-1.53034 -10.06767,-1.54548 -5.0908,-0.0208 -7.13228,0.64112 -11.89301,3.85624 -9.11019,6.15249 -20.40977,10.39693 -37.41105,14.05264 -2.52467,0.54286 -4.66186,1.05515 -4.74932,1.13841 -0.33983,0.32353 21.9471,27.29874 22.55423,27.29874 0.95252,0 8.59869,-3.87078 11.82922,-5.9884 4.48891,-2.94249 6.50275,-3.09424 8.64743,-0.65158 0.78356,0.89242 1.42465,1.67485 1.42465,1.73874 0,0.0639 1.85907,5.47118 4.13128,12.01622 4.05757,11.68776 4.67153,14.42844 3.6569,16.32429 -1.78656,3.33822 -15.09829,5.77691 -27.23643,4.98968 -10.16061,-0.65898 -11.94814,-2.39158 -10.15009,-9.83818 0.36576,-1.51481 0.66825,-3.80441 0.6722,-5.08801 0.008,-2.6561 -0.58917,-3.64313 -7.66892,-12.67222 -2.23881,-2.85523 -5.52174,-7.05041 -7.2954,-9.32262 -1.77367,-2.2722 -5.24082,-6.71333 -7.70479,-9.86917 -2.46396,-3.15584 -4.62893,-6.00033 -4.81103,-6.32108 -0.26581,-0.4682 -1.59367,-0.43384 -6.73403,0.17425 -3.52161,0.41659 -6.47604,0.82099 -6.56539,0.89866 -0.27426,0.2384 4.9311,8.01622 8.01028,11.96889 l 2.91118,3.73702 5.17822,0.16666 c 4.55137,0.14649 5.4966,0.32278 7.80828,1.45626 4.33478,2.12547 6.28446,5.34975 7.91014,13.08131 0.96176,4.57405 0.9485,15.93284 -0.0241,20.64575 -0.87931,4.26089 -2.62775,8.13084 -4.11323,9.10417 -2.83436,1.85714 -7.29856,0.94328 -22.69848,-4.64656 -16.94112,-6.14927 -19.37265,-7.4255 -23.04067,-12.09327 -1.32088,-1.68089 -6.02411,-7.16886 -10.45163,-12.19548 -16.11417,-18.29464 -21.42734,-24.83138 -22.74285,-27.98031 -0.90344,-2.16254 -1.7387,-11.4326 -1.37048,-15.20994 0.79983,-8.20483 3.52467,-13.90158 8.57835,-17.93455 2.0033,-1.59869 3.17473,-2.0981 16.09179,-6.86036 6.48945,-2.39253 8.48685,-3.43551 6.57932,-3.43551 -1.69564,0 -11.66339,-6.13198 -16.23557,-9.98781 -2.77776,-2.34257 -2.63667,-2.33998 -9.04928,-0.16598 -2.2722,0.77032 -7.95271,2.24673 -12.62336,3.28091 -13.46846,2.9822 -16.19813,4.63612 -25.02285,15.16154 -2.88802,3.44458 -6.13385,7.07554 -7.21296,8.0688 -9.745827,8.97045 -22.349447,11.30217 -33.172134,6.13698 -1.557135,-0.74315 -4.673815,-2.64847 -6.925955,-4.23404 -4.70676,-3.31369 -15.586246,-13.95482 -17.314216,-16.93488 -1.871428,-3.22747 -2.757381,-6.9916 -2.51825,-10.69923 0.188048,-2.9156 0.788488,-4.59449 5.841023,-16.33205 3.097287,-7.19531 7.572282,-17.453 9.944434,-22.79485 l 4.313005,-9.71247 0.008,-6.58314 c 0.01174,-9.70068 1.24252,-14.28817 5.704892,-21.26398 0.926407,-1.44821 1.620869,-2.69137 1.543249,-2.76259 -0.07762,-0.0712 -1.775446,-0.58524 -3.772946,-1.14228 -11.954704,-3.33381 -22.275961,-7.74318 -29.71108,-12.69294 -7.978108,-5.31124 -11.698865,-9.48952 -15.884481,-17.8377 -8.498557,-16.95031 -7.900347,-38.41888 1.59883,-57.378906 3.470001,-6.926 5.759099,-10.149045 7.651778,-10.773686 2.091973,-0.690413 4.573538,0.03924 5.633071,1.656294 0.406819,0.620885 1.211244,3.959117 1.78761,7.418293 2.176544,13.062965 6.332018,21.987605 13.251842,28.460765 3.840484,3.59258 6.359804,5.29894 10.964318,7.42623 5.045078,2.33083 8.899947,3.34967 20.045228,5.29795 9.955576,1.74031 17.115113,3.35539 21.382332,4.82353 l 2.58811,0.89044 1.89529,-1.62229 c 2.69874,-2.31002 7.52462,-4.59818 11.6191,-5.50911 8.42392,-1.87415 16.55733,0.49886 23.44796,6.8412 l 1.94727,1.79233 6.31529,-3.81592 c 3.47341,-2.09875 12.51221,-7.7721 20.08623,-12.60745 31.20052,-19.91879 39.96949,-24.99972 50.72295,-29.38994 20.1326,-8.219375 41.43645,-7.330016 58.06745,2.42411 15.23937,8.93792 37.2198,32.66842 55.91695,60.36901 6.29794,9.33066 20.01377,27.23435 24.93792,32.55222 2.48872,2.68771 7.107,7.2256 10.26284,10.08421 7.59026,6.87535 10.91026,10.3456 14.66158,15.3251 3.89859,5.17497 6.8916,10.32499 8.9822,15.4555 2.87249,7.04934 3.64421,11.0339 4.78571,24.70973 0.53067,6.35776 1.81045,10.82143 3.57646,12.47408 1.9155,1.79255 3.98065,2.67395 6.26514,2.67395 3.58705,0 5.3844,-2.29787 6.89478,-8.81485 l 0.60673,-2.61793 -1.55939,-2.19332 c -5.17212,-7.27469 -3.106,-16.74033 5.0229,-23.01173 3.06861,-2.36741 9.75011,-5.80034 13.61551,-6.9956 2.39926,-0.7419 3.23212,-0.81783 4.47413,-0.40793 3.07826,1.01591 3.67073,3.69355 1.80048,8.13708 -2.23055,5.29955 -2.67944,8.06111 -2.73964,16.85449 -0.0532,7.76379 -0.11838,8.3492 -1.08036,9.69782 -1.34966,1.89212 -3.6342,2.92554 -6.46742,2.92554 h -2.30312 l -0.95964,2.86894 c -1.24489,3.72175 -3.09508,6.91053 -5.67374,9.77862 -6.32237,7.032 -16.33035,7.30684 -23.87223,0.65559 -1.21019,-1.06728 -2.26056,-1.86341 -2.33417,-1.76918 -0.39148,0.50116 -4.85532,14.1865 -5.07846,15.56964 -0.14686,0.91036 0.0385,2.62948 0.42081,3.90177 0.58095,1.93356 1.74499,3.38434 7.76791,9.68142 3.89651,4.07387 7.43997,8.09433 7.87436,8.93435 0.43439,0.84002 1.56827,3.70377 2.51972,6.3639 4.91997,13.75546 11.66679,30.19149 14.66747,35.73167 1.03879,1.91791 1.3799,3.14788 1.3799,4.97555 0,2.22523 -0.1716,2.62105 -2.05639,4.74322 -3.55582,4.00366 -3.6355,4.28255 -3.90234,13.6578 l -0.23819,8.36852 -1.27243,1.27113 -1.27243,1.27113 -21.2071,0.1283 c -22.57442,0.13657 -22.96732,0.10334 -24.69139,-2.08846 -1.13709,-1.44557 -1.21839,-5.54968 -0.17228,-8.69627 1.03797,-3.12208 4.50882,-9.92845 6.88995,-13.51125 l 2.02853,-3.05224 -2.48209,-5.43983 c -2.53197,-5.54917 -10.08112,-21.41756 -10.77063,-22.63999 -0.20941,-0.37126 -3.97695,-2.235 -8.3723,-4.14164 -10.19091,-4.42067 -14.11469,-6.54905 -20.45893,-11.09755 -9.11337,-6.53384 -15.99651,-13.78093 -19.32732,-20.34925 -0.89872,-1.77227 -1.06189,-1.8653 -4.69185,-2.67491 -2.06841,-0.46133 -3.87724,-0.72228 -4.01964,-0.57988 -0.46465,0.46465 0.82268,8.09906 1.98738,11.78597 2.3185,7.33936 9.0331,14.90834 20.4515,23.0538 11.86876,8.46673 12.38771,10.04381 5.51906,16.77256 -8.48659,8.31373 -14.8947,19.65905 -18.18873,32.20244 -2.0913,7.96352 -3.03441,9.17487 -7.83399,10.06212 -2.52316,0.46643 -25.02653,0.59074 -28.67711,0.15841 z m 125.77457,-15.21216 c 0,-5.6327 0.49814,-7.53368 3.07223,-11.72407 1.61393,-2.62735 1.6501,-2.78192 1.11718,-4.77447 -0.30292,-1.13256 -1.48675,-4.35183 -2.63075,-7.15392 -2.563,-6.2778 -8.58932,-21.42812 -10.94669,-27.52026 -1.72521,-4.45847 -1.84711,-4.6273 -8.49998,-11.77212 -10.16738,-10.91922 -11.32346,-13.12706 -10.91118,-20.83764 0.19817,-3.70616 0.57149,-5.14187 3.29496,-12.6718 3.93805,-10.88802 5.27815,-16.32435 5.62548,-22.82054 0.61187,-11.44428 -1.85594,-20.24447 -8.45819,-30.16184 -2.53097,-3.8018 -5.40782,-6.94297 -16.42089,-17.92959 -13.65633,-13.62352 -17.00753,-17.47758 -26.60653,-30.59884 -25.45919,-34.80122 -33.07888,-44.26098 -45.05696,-55.93776 -10.59052,-10.32413 -17.86832,-15.25185 -27.02595,-18.29899 -9.64007,-3.20767 -21.36058,-3.12821 -31.98145,0.21681 -10.62169,3.34528 -20.55409,8.90168 -53.39836,29.87219 -6.31168,4.0299 -15.19394,9.56959 -19.73835,12.31042 -4.54441,2.74082 -8.34565,5.04674 -8.44721,5.12426 -0.10157,0.0775 0.65659,2.04733 1.68479,4.37735 1.33144,3.01719 1.75088,4.45794 1.45745,5.00623 -0.58022,1.08416 -5.23396,3.62346 -6.64066,3.62346 -1.91992,0 -4.47754,-2.98188 -8.26812,-9.63966 -5.2058,-9.14347 -7.60609,-11.21479 -13.64992,-11.77917 -2.53063,-0.23632 -3.3305,-0.12031 -5.10995,0.74111 -1.94535,0.94172 -2.75663,1.85744 -1.64561,1.85744 0.25523,0 2.08543,1.54905 4.06711,3.44233 3.71931,3.55341 5.62003,6.50895 7.23277,11.24667 1.2277,3.60657 1.22345,13.39915 -0.007,16.98415 -2.80962,8.18359 -7.76674,13.53723 -16.23944,17.53846 -6.61696,3.12485 -13.095988,3.89686 -18.554585,2.21087 -4.00526,-1.23709 -6.81575,-3.211 -9.886438,-6.9436 l -2.590923,-3.14941 -2.23658,3.31965 c -1.230119,1.8258 -2.883797,4.55903 -3.67484,6.07383 -1.404616,2.68976 -1.446026,2.94747 -1.770221,11.01675 -0.369727,9.20256 -0.560743,10.09239 -3.498099,16.29561 -3.23136,6.82411 -5.788289,12.64863 -10.881637,24.78769 -5.614531,13.3812 -5.770134,13.82063 -5.770134,16.29523 0,2.46879 1.037191,3.88872 8.084474,11.06773 8.305278,8.46053 13.322725,11.29064 20.145948,11.3634 6.597351,0.0704 9.299269,-1.86554 20.594655,-14.75577 5.70666,-6.51241 9.84537,-10.11477 14.0622,-12.23984 4.01277,-2.02224 6.35358,-2.73587 14.45949,-4.40819 14.88764,-3.07144 20.08953,-5.23523 22.49249,-9.35599 2.23246,-3.82838 3.09866,-8.1388 3.22155,-16.03133 0.0996,-6.39696 0.22204,-7.42448 1.01186,-8.49208 2.09228,-2.82813 4.9282,-2.92185 7.5172,-0.24842 l 1.56134,1.61226 -0.0146,10.18659 c -0.0163,11.34744 -0.50943,14.34469 -3.00427,18.25981 -0.73805,1.15821 -1.3419,2.3286 -1.3419,2.60086 0,1.07064 4.14689,3.75938 14.34965,9.30394 2.46426,1.33917 5.27856,3.11799 6.254,3.95293 l 1.77352,1.51807 5.75299,-2.317 5.75299,-2.317 -1.8158,-3.67711 c -4.23365,-8.57343 -5.79668,-16.41465 -5.28541,-26.51521 0.50511,-9.97879 2.84833,-18.18423 7.51006,-26.29855 4.70592,-8.19124 9.63272,-11.47431 12.5535,-8.36528 1.69804,1.80748 1.43986,3.93453 -0.94405,7.77765 -3.02846,4.88222 -5.76073,11.01682 -6.95119,15.60706 -0.94196,3.63207 -1.06819,5.15744 -1.0446,12.62336 0.0224,7.08798 0.19028,9.15309 1.01539,12.48991 1.21406,4.90971 2.99413,8.91174 5.76165,12.95359 1.15982,1.69388 2.24958,3.83037 2.42168,4.74775 0.44975,2.39737 -0.87342,4.64844 -3.49641,5.94832 -2.46616,1.22215 -24.04232,9.69136 -37.03926,14.53888 -5.09733,1.90117 -10.22739,3.9077 -11.40013,4.45895 -4.11785,1.93562 -5.55341,5.81849 -5.13079,13.87762 0.3193,6.08871 1.12108,8.98967 3.42824,12.40387 1.60708,2.37822 26.91447,31.17016 29.80111,33.90441 3.07479,2.91246 27.89901,12.25732 29.17402,10.98231 0.61038,-0.61037 0.15883,-15.77573 -0.53752,-18.05286 -0.28344,-0.92689 -1.10941,-2.32119 -1.83549,-3.09846 l -1.32014,-1.41322 h -6.2037 -6.2037 l -1.35461,-1.72137 c -0.74504,-0.94675 -5.0954,-6.96122 -9.66748,-13.36548 -9.88793,-13.85036 -10.28251,-14.93302 -6.81964,-18.71167 l 1.48597,-1.62147 8.94261,-1.11242 c 29.16844,-3.6284 51.12759,-9.55459 62.60178,-16.89454 10.44855,-6.68386 16.10743,-18.76242 15.27634,-32.60648 -0.15272,-2.54388 -0.63268,-8.96309 -1.06657,-14.2649 -0.4339,-5.30181 -0.63941,-10.2255 -0.4567,-10.94153 0.18272,-0.71602 0.83083,-1.80049 1.44026,-2.40991 2.1184,-2.1184 6.79617,-0.97692 7.93424,1.93612 1.53365,3.92563 3.13878,22.8786 2.66669,31.48771 -0.31697,5.78023 -1.64789,11.90291 -3.66297,16.85082 -0.84328,2.07063 -1.0484,3.05071 -0.68541,3.27505 0.2849,0.17607 1.78374,0.46254 3.33075,0.6366 5.95819,0.67035 20.94961,3.48851 31.73438,5.96559 0.89595,0.20579 0.91619,0.0247 0.75158,-6.72432 -0.10083,-4.13399 0.058,-8.34474 0.39306,-10.42358 1.53567,-9.52645 8.20007,-23.22334 11.73079,-24.10949 2.86145,-0.71818 6.1717,1.72551 6.1717,4.55607 0,0.81578 -0.91677,3.42162 -2.03726,5.79074 -9.29394,19.65081 -5.93215,39.90419 8.72462,52.56208 7.10862,6.13916 13.11141,9.69411 24.75628,14.66105 7.58643,3.23588 10.13896,4.68009 12.24123,6.92605 0.67346,0.71949 2.6048,4.40663 4.29188,8.19364 1.68707,3.787 5.00913,10.89288 7.38235,15.79084 5.32556,10.99108 5.46919,12.02422 2.31268,16.63418 -1.95229,2.85124 -6.26028,10.49374 -6.26028,11.10592 0,0.1686 5.78379,0.30654 12.85287,0.30654 h 12.85288 z M 67.249943,278.76325 c -1.906408,-1.17088 -5.024575,-4.65633 -6.164312,-6.8904 -1.866632,-3.6589 -0.895891,-6.41155 2.603832,-7.38346 3.650461,-1.01377 7.357834,-0.29213 9.583965,1.86552 1.878089,1.82031 1.997618,3.41119 0.60446,8.0451 -1.449563,4.82152 -3.588815,6.22981 -6.627945,4.36324 z m 23.410594,-39.99354 c -2.59547,-0.66726 -3.755039,-1.31074 -4.975286,-2.76092 -2.17882,-2.58938 -1.462377,-4.90571 3.86817,-12.5062 4.049552,-5.774 5.951885,-7.81933 8.226804,-8.84517 2.521435,-1.13701 4.039725,-0.51389 5.571125,2.28645 3.53926,6.4719 2.25664,14.75165 -3.00227,19.38072 -2.945569,2.5928 -6.058372,3.37838 -9.688543,2.44512 z m 62.887283,-33.15667 c -1.52526,-0.87474 -2.03572,-1.86985 -2.05104,-3.99837 -0.0142,-1.97198 0.12928,-2.17529 5.18314,-7.3445 6.6661,-6.81825 8.20175,-9.65801 8.49068,-15.70116 l 0.19482,-4.07478 -1.77752,0.73476 c -2.63965,1.09114 -8.5092,4.65449 -11.38576,6.91221 -2.45926,1.93019 -4.47839,4.24231 -7.44906,8.52996 -1.01945,1.47139 -1.88233,2.18807 -2.90483,2.41265 -3.51958,0.77303 -7.35023,-1.36995 -7.35023,-4.11193 0,-3.58356 8.68994,-13.93264 15.5545,-18.52427 4.68119,-3.1312 8.6117,-4.79403 13.83227,-5.85186 6.19605,-1.25548 10.37142,-0.18247 12.43065,3.19451 0.73094,1.19868 0.86933,2.34367 0.87077,7.20441 0.003,10.57843 -2.42596,16.69024 -9.38015,23.60117 -5.93502,5.8981 -11.46447,8.61942 -14.25824,7.0172 z m -45.37827,-15.47509 c 3.27227,-1.53128 7.5039,-5.27046 9.12511,-8.0632 2.68075,-4.6179 2.1031,-11.99396 -1.40857,-17.98619 -2.23857,-3.81982 -12.08659,-8.95197 -21.406505,-11.15568 -2.100476,-0.49666 -7.752688,-1.6179 -12.560471,-2.49163 -14.536102,-2.6417 -19.947883,-4.16068 -26.374468,-7.40278 -11.768325,-5.9369 -19.8005,-14.58247 -24.594846,-26.47306 -0.80978,-2.00836 -1.581496,-3.47492 -1.714924,-3.25903 -0.133429,0.21589 -0.685035,2.12539 -1.225793,4.24333 -2.470685,9.67672 -1.919427,21.58796 1.424505,30.77981 3.418109,9.39575 11.99854,17.63962 23.349209,22.43334 8.324485,3.51567 16.800182,6.24304 24.336318,7.83112 8.381447,1.76621 11.577781,3.25828 14.571424,6.80206 3.342085,3.95626 4.753836,5.13824 7.003045,5.86325 2.802796,0.90346 5.943196,0.53184 9.475966,-1.12134 z m 273.39612,12.35869 c -3.06889,-1.87112 -3.67114,-5.99494 -1.21292,-8.30534 l 1.17701,-1.10623 26.01356,-0.22952 c 14.30746,-0.12623 26.46021,-0.15725 27.0061,-0.0689 0.5459,0.0883 1.63036,0.78416 2.40991,1.54632 1.1827,1.1563 1.41738,1.73984 1.41738,3.5243 0,1.19498 -0.31609,2.58984 -0.71641,3.16137 -1.69522,2.42026 -1.38687,2.39481 -28.98307,2.39296 -24.75882,-0.002 -25.66378,-0.0322 -27.11156,-0.91492 z m -34.34324,-41.26167 c -3.73598,-2.2782 -2.9714,-7.57332 1.3288,-9.20262 0.87402,-0.33116 12.58015,-0.48961 36.1715,-0.48961 30.279,0 35.05689,0.0918 36.22582,0.69632 3.10164,1.60392 3.59674,6.21089 0.92414,8.59906 l -1.41268,1.26234 -35.91195,-0.002 c -34.32473,-0.002 -35.97444,-0.0398 -37.32563,-0.86377 z"
         id="path113" /></g><path
       style="fill:#ffffff;stroke:none;stroke-width:3.92547"
       d="m 102.60653,183.57327 c -2.51603,-0.6089 -3.899747,-1.64378 -8.356236,-6.24965 -5.399393,-5.58037 -8.217212,-6.99012 -18.273377,-9.14211 -9.433932,-2.01884 -23.792241,-6.80623 -31.726217,-10.57824 -11.64719,-5.53738 -21.35793,-15.15002 -25.097873,-24.84432 -0.718695,-1.86293 -1.800409,-5.47651 -2.403807,-8.03018 -1.00536,-4.25482 -1.09782,-5.41946 -1.105827,-13.9291 -0.0081,-8.61661 0.07256,-9.62794 1.118953,-14.028184 0.620231,-2.608165 1.295927,-5.042736 1.501547,-5.41016 0.282652,-0.505071 0.815989,0.34287 2.186226,3.475836 1.989597,4.549093 5.497795,10.679198 7.806602,13.640988 0.814362,1.04469 2.197543,2.94268 3.073734,4.21776 1.970454,2.86752 4.651468,5.59652 5.289253,5.38393 0.262741,-0.0876 2.002087,0.93265 3.865213,2.26717 6.375648,4.56677 14.017142,8.26312 21.141,10.22636 4.608275,1.26997 10.440525,2.51266 25.021221,5.33133 12.931001,2.49975 16.841838,3.6905 24.500928,7.45988 7.27358,3.57965 10.38185,6.32705 12.24594,10.82416 2.56451,6.18691 2.83781,12.42336 0.74476,16.99518 -1.23363,2.69459 -5.15887,6.83749 -8.69587,9.17806 -4.06376,2.68915 -9.43806,4.03367 -12.83617,3.21129 z"
       id="path121" /><path
       style="fill:#ffffff;stroke:none;stroke-width:3.92547"
       d="m 442.6457,415.84516 -2.24136,-0.12847 2.15167,-4.02699 c 1.18342,-2.21484 3.2915,-5.81807 4.68462,-8.00717 2.78015,-4.36865 3.8684,-7.83633 3.00333,-9.57001 -0.25577,-0.51259 -0.93224,-2.07163 -1.50327,-3.46454 -0.57103,-1.39291 -2.30836,-5.19176 -3.86074,-8.44188 -1.55238,-3.25012 -4.40729,-9.3599 -6.34425,-13.57728 -6.62539,-14.42562 -7.29582,-15.47263 -11.57034,-18.06926 -1.34358,-0.81618 -5.84679,-2.98259 -10.00713,-4.81423 -16.77141,-7.38385 -24.88383,-12.44663 -32.87271,-20.51514 -9.3814,-9.47489 -13.87594,-20.51626 -13.83422,-33.98534 0.0268,-8.6649 1.67733,-15.73729 6.05182,-25.93219 1.15176,-2.68424 2.20133,-5.59277 2.33238,-6.4634 0.47952,-3.18593 -2.7008,-6.41504 -6.33296,-6.43012 -2.60016,-0.0108 -5.36213,3.18547 -8.85454,10.24682 -5.54968,11.22095 -7.05758,17.76843 -7.04357,30.58383 0.008,7.42781 -0.076,8.54741 -0.64223,8.54741 -0.35836,0 -4.66952,-0.84358 -9.58034,-1.87462 -9.71035,-2.03872 -18.13119,-3.57175 -26.58636,-4.84012 -2.97927,-0.44692 -5.52808,-0.92381 -5.66402,-1.05974 -0.13594,-0.13594 0.53481,-2.57354 1.49055,-5.41689 3.16013,-9.40147 3.64942,-12.63081 3.62917,-23.9529 -0.0246,-13.76293 -1.59154,-28.97314 -3.37372,-32.74868 -0.85627,-1.81402 -3.3641,-3.12931 -5.96657,-3.12931 -2.46588,0 -3.85355,0.89564 -4.94223,3.18987 -0.80005,1.68598 -0.83246,0.60344 0.61833,20.65844 0.99049,13.69195 0.84729,19.62324 -0.61143,25.32564 -2.48471,9.71317 -8.26841,18.27613 -15.79794,23.38933 -13.35613,9.06998 -38.55909,16.04069 -75.52909,20.89008 -6.108,0.8012 -11.34889,1.65875 -11.64642,1.90568 -0.29754,0.24693 -0.63355,0.3564 -0.74669,0.24325 -0.11315,-0.11315 -0.65113,0.26838 -1.1955,0.84785 -0.55771,0.59365 -0.76003,1.05357 -0.46347,1.05357 0.33216,0 0.2036,0.41024 -0.34852,1.11216 -1.11729,1.4204 -1.13119,3.98039 -0.0347,6.39623 1.09531,2.41331 4.56486,7.54592 13.25527,19.6089 3.97121,5.51237 7.45652,10.47402 7.74512,11.02589 1.09065,2.08555 1.44746,2.16751 9.38439,2.15563 l 7.45676,-0.0112 1.44731,1.78717 c 2.34782,2.89911 2.57451,4.05342 2.81792,14.34868 0.12171,5.148 0.11266,9.6431 -0.0201,9.9891 -0.21345,0.55623 -0.57446,0.55383 -3.11746,-0.0207 -5.65499,-1.27769 -20.20955,-6.76554 -27.00589,-10.18268 -2.59793,-1.30621 -4.09293,-2.46979 -6.94467,-5.40512 -4.94316,-5.08805 -23.44105,-26.00216 -31.02168,-35.07377 -4.70463,-5.62997 -6.10667,-10.01786 -6.1726,-19.31808 -0.0604,-8.51856 1.40313,-12.02865 5.97193,-14.32318 1.06558,-0.53515 9.06025,-3.6827 17.76594,-6.99455 18.11489,-6.89132 38.08224,-14.79342 40.5091,-16.0315 2.03461,-1.03799 3.64708,-3.09447 4.02514,-5.13353 0.33701,-1.81766 -0.49523,-3.93691 -3.3457,-8.51964 -4.74629,-7.63064 -6.91483,-14.22135 -7.38407,-22.44195 -0.51605,-9.0407 -0.21205,-17.3212 0.78263,-21.31772 1.23585,-4.96551 3.82934,-11.19962 7.19871,-17.30388 1.60176,-2.9019 3.046,-5.65606 3.20943,-6.12037 0.16342,-0.4643 0.58261,-1.17658 0.93154,-1.58285 0.56634,-0.65942 0.55946,-0.82147 -0.0642,-1.51056 -0.38421,-0.42455 -0.69856,-0.93649 -0.69856,-1.13766 0,-0.20117 -0.51039,-0.8985 -1.13421,-1.54962 -0.92201,-0.96238 -1.4988,-1.18386 -3.08306,-1.18386 -4.45619,0 -9.10305,4.97138 -14.16643,15.15578 -5.3112,10.68285 -7.21429,20.18006 -6.8148,34.00865 0.31199,10.80012 1.41361,15.44516 6.01331,25.35549 1.05269,2.26807 1.76372,4.26509 1.58008,4.43783 -0.18364,0.17274 -3.11305,1.4356 -6.50981,2.80637 l -6.17593,2.4923 -2.63509,-1.98221 c -1.44931,-1.09022 -4.93824,-3.26532 -7.75318,-4.83355 -6.9855,-3.89168 -13.72157,-7.96752 -15.24833,-9.22639 l -1.26629,-1.04411 1.84115,-3.43963 c 2.30351,-4.30343 2.90233,-6.56072 3.26628,-12.31251 0.1589,-2.51107 0.45181,-4.56558 0.65092,-4.56558 0.56755,0 0.42345,-1.59324 -0.1656,-1.83093 -0.42209,-0.17032 -0.42209,-0.21956 0,-0.24622 0.31264,-0.0197 0.52762,-0.62093 0.52762,-1.47548 0,-0.79318 -0.23743,-1.55295 -0.52762,-1.68838 -0.42209,-0.19697 -0.42209,-0.29546 0,-0.49244 0.29019,-0.13542 0.52762,-0.78439 0.52762,-1.44215 0,-0.65776 -0.23743,-1.29174 -0.52762,-1.40883 -0.42209,-0.17032 -0.42209,-0.21956 0,-0.24622 0.6217,-0.0393 0.72482,-1.7217 0.10552,-1.7217 -0.24553,0 -0.42209,-1.38537 -0.42209,-3.31191 0,-3.25673 -0.66034,-5.53407 -1.82063,-6.27892 -1.09201,-0.70102 -3.53671,-1.37124 -5.02371,-1.37726 -1.911,-0.008 -4.28724,1.88431 -4.92203,3.91911 -0.23175,0.74289 -0.53573,4.48476 -0.6755,8.31526 -0.29545,8.09723 -0.81213,12.21737 -1.94503,15.51019 -2.98174,8.66659 -6.69904,10.56434 -31.18278,15.91934 -10.2499,2.24183 -15.27775,4.32706 -20.91012,8.67219 -2.51052,1.93675 -8.17956,7.73389 -15.39537,15.74322 -5.761769,6.39539 -9.751747,9.90465 -12.926172,11.36882 -1.795841,0.82832 -2.738432,0.95165 -7.134355,0.93349 -5.945577,-0.0246 -7.888352,-0.62492 -13.172398,-4.07049 -3.676277,-2.39719 -15.170142,-13.41587 -18.105845,-17.3573 -2.275583,-3.05516 -2.609176,-4.6585 -1.67284,-8.04007 1.129752,-4.08011 11.923761,-29.65417 18.973759,-44.95422 1.536748,-3.33508 3.087516,-7.19617 3.446151,-8.58019 0.368305,-1.42133 0.896663,-6.74837 1.214137,-12.24121 l 0.562072,-9.7248 1.562852,-2.99194 c 1.850291,-3.54221 6.528582,-10.85085 6.91894,-10.80908 0.390176,0.0418 4.283064,4.92808 4.283064,5.37608 0,0.50241 1.349381,1.69241 2.889273,2.548 0.692551,0.38479 2.073611,1.15041 3.069023,1.70138 6.824753,3.77758 15.532749,3.92707 24.365599,0.4183 10.48546,-4.16528 17.16615,-10.35093 21.02621,-19.46819 1.82784,-4.31727 2.87295,-12.09129 2.22414,-16.54416 -0.90947,-6.24175 -1.28639,-7.66084 -2.91273,-10.96609 -1.76226,-3.58149 -5.96401,-9.32771 -7.39688,-10.11581 -0.4643,-0.25537 -1.55702,-1.08163 -2.42826,-1.83612 -0.87124,-0.75449 -1.78467,-1.3718 -2.02986,-1.3718 -0.92082,0 0.20209,-0.96455 2.20119,-1.89075 2.9636,-1.37306 8.40911,-1.07568 11.75404,0.64188 2.88697,1.48241 5.86164,5.13149 10.13629,12.43436 1.22299,2.08936 3.09733,5.03347 4.1652,6.54245 1.06787,1.50899 1.88787,2.90984 1.82222,3.11301 -0.28414,0.8794 1.23512,1.77104 3.16871,1.85969 2.24938,0.10312 6.23426,-1.56714 8.29477,-3.47676 1.35787,-1.25843 1.30762,-1.61475 -1.04848,-7.43398 -1.81978,-4.4946 -1.89082,-4.84797 -1.04024,-5.17437 1.1174,-0.42879 18.16671,-10.96168 36.54935,-22.57981 22.9603,-14.51129 35.41418,-22.009273 43.61979,-26.261725 14.19736,-7.357605 24.1475,-10.105752 36.60921,-10.111164 6.86594,-0.003 12.08327,0.802943 18.1189,2.79884 11.30787,3.739359 20.3787,10.046733 34.16575,23.757059 13.13356,13.06048 21.60972,23.64835 52.78325,65.93349 10.14309,13.75853 13.63288,17.76397 31.02702,35.61162 8.63459,8.85972 16.75299,17.51808 18.04089,19.2408 4.82016,6.44754 8.4281,13.79517 10.33139,21.04006 0.86617,3.29707 1.10101,5.37654 1.2756,11.2952 0.3303,11.19704 -0.57921,15.8011 -6.58152,33.31638 -1.94287,5.66947 -3.47207,10.88644 -3.64986,12.45178 -0.16831,1.48174 -0.49805,2.93151 -0.73277,3.2217 -0.28286,0.34971 -0.28553,0.70552 -0.008,1.05523 0.23037,0.29019 0.51803,1.82667 0.63924,3.4144 0.26656,3.49154 2.18418,7.64797 5.28926,11.46442 1.13328,1.39291 1.99533,2.72585 1.91568,2.96209 -0.0797,0.23624 2.26297,2.80046 5.20585,5.69827 6.78952,6.68552 8.56431,8.86805 9.96244,12.25123 2.71958,6.58075 15.46193,38.85279 16.28463,41.24342 0.49964,1.45188 0.90843,3.12272 0.90843,3.71299 0,0.59027 -0.83937,2.53643 -1.86527,4.32479 -2.71132,4.72635 -3.2787,7.11411 -3.27026,13.76176 l 0.007,5.59554 -12.94775,-0.0331 c -7.12127,-0.0182 -13.95637,-0.0909 -15.18912,-0.16155 z M 69.445006,287.95687 c 1.923562,-1.92357 3.532446,-6.59535 3.551079,-10.31142 0.01125,-2.2434 -0.104168,-2.53298 -1.634027,-4.0997 -1.945204,-1.99206 -4.543823,-2.98442 -7.806582,-2.98115 -3.161994,0.003 -5.289225,0.64956 -6.911857,2.1003 -1.205593,1.07788 -1.347077,1.44601 -1.328363,3.45623 0.02745,2.94848 1.600711,5.8487 5.141053,9.47725 4.248196,4.35403 6.422619,4.92456 8.988697,2.35849 z m 30.802314,-47.98094 c 8.72125,-4.44977 12.01197,-16.62566 6.98805,-25.85626 -2.72303,-5.0031 -7.05135,-4.4235 -12.103816,1.62079 -4.81697,5.76257 -9.693995,13.35906 -10.486068,16.33318 -1.33242,5.00305 3.89922,9.1201 11.169848,8.79014 1.759646,-0.0798 3.552166,-0.43895 4.431986,-0.88785 z m 74.32437,-40.01826 c 1.25713,-0.61948 3.64283,-2.16493 5.30158,-3.43433 1.65873,-1.2694 3.10372,-2.22017 3.21107,-2.11281 0.2102,0.2102 1.06734,-0.7206 1.77635,-1.92901 0.24121,-0.41112 1.52549,-2.03597 2.85394,-3.61077 2.69675,-3.19682 5.39583,-8.07944 6.40758,-11.59128 1.81411,-6.29686 2.28146,-16.34334 0.99159,-21.31574 -0.52772,-2.03432 -0.65338,-2.16378 -3.48263,-3.5878 -2.6828,-1.35032 -3.24447,-1.47589 -6.53296,-1.46054 -8.29017,0.0387 -17.53013,3.60889 -25.12459,9.70785 -1.62506,1.30505 -3.26817,2.54409 -3.65136,2.75342 -0.9989,0.54567 -7.99625,9.04332 -9.71035,11.79234 -2.62551,4.21072 -2.93257,5.47265 -1.84391,7.57791 1.30694,2.52734 5.71608,4.01672 8.83947,2.98591 1.19596,-0.39471 2.1749,-1.3422 4.3038,-4.16556 1.51564,-2.01006 3.11211,-3.7873 3.54769,-3.94944 0.43558,-0.16214 1.11039,-0.91053 1.49955,-1.66309 0.87053,-1.68343 1.51781,-2.2515 6.27749,-5.50925 3.47762,-2.38025 11.57679,-6.88858 11.83934,-6.59026 0.0621,0.0706 -0.0485,2.1519 -0.2458,4.6252 -0.39359,4.93417 -1.04852,7.03074 -3.24686,10.3938 -1.7768,2.71816 -9.75578,11.49017 -10.45141,11.49017 -0.91906,0 -2.81477,1.76811 -2.37125,2.21162 0.27144,0.27145 0.17251,1.07742 -0.28647,2.33386 -0.54104,1.48109 -0.58064,1.96021 -0.17347,2.09879 0.29019,0.0988 0.52762,0.5624 0.52762,1.03029 0,0.46789 0.61115,1.42162 1.35812,2.11938 1.24172,1.15994 1.56133,1.25398 3.72915,1.09717 1.41778,-0.10255 3.28997,-0.62433 4.65672,-1.29783 z m -14.69556,-42.37139 c -0.28577,-0.11562 -0.8556,-0.12266 -1.26628,-0.0156 -0.41069,0.10702 -0.17687,0.20162 0.51958,0.21022 0.69646,0.009 1.03247,-0.0789 0.7467,-0.19458 z"
       id="path122" /><path
       style="fill:#ffffff;stroke:none;stroke-width:7.85095"
       d="m 442.98763,415.49281 c -1.04468,-0.14836 -1.89942,-0.39678 -1.89942,-0.55204 0,-0.30391 4.49877,-8.24327 7.46413,-13.17261 0.9992,-1.66097 1.88763,-3.94028 1.97429,-5.06512 0.18369,-2.38427 -4.31575,-12.79518 -13.47105,-31.16965 l -6.51972,-13.08492 -16.1229,-8.01978 c -8.8676,-4.41088 -18.59047,-9.80122 -21.60638,-11.97852 -16.61467,-11.99479 -24.56596,-29.37679 -21.93819,-47.95825 0.52524,-3.71412 2.48384,-10.81004 4.35245,-15.76872 3.85386,-10.22692 4.08942,-12.24229 1.70909,-14.62262 -2.41688,-2.41688 -5.99738,-2.15424 -8.6315,0.63314 -2.60812,2.75988 -6.7989,10.84765 -9.15845,17.67487 -1.96048,5.67255 -3.32412,18.10242 -2.69159,24.53453 0.33574,3.41412 0.16882,4.43031 -0.7268,4.42471 -0.63946,-0.004 -7.81063,-1.30002 -15.93593,-2.88004 -8.12531,-1.58 -16.96265,-3.14066 -19.63853,-3.46813 -2.67588,-0.32746 -5.06781,-0.92315 -5.31539,-1.32375 -0.24759,-0.40061 0.33739,-3.27815 1.29994,-6.39454 3.05363,-9.88651 3.82652,-19.57795 2.72849,-34.21303 -1.21101,-16.14089 -2.26882,-21.37484 -4.65823,-23.04845 -2.56307,-1.79525 -6.78006,-1.5941 -8.59366,0.40991 -1.39221,1.53836 -1.45447,2.72513 -0.76399,14.56224 1.19482,20.48295 0.84544,30.59953 -1.25902,36.45649 -3.41609,9.50738 -9.7874,17.15574 -18.21503,21.86604 -14.03192,7.84259 -37.28932,13.99427 -69.25812,18.31906 -7.42886,1.00498 -14.344,2.3589 -15.36698,3.00869 -2.75259,1.74844 -3.29573,6.17046 -1.24782,10.1592 2.77285,5.40072 21.27691,31.09322 22.79972,31.65694 0.77703,0.28764 4.37383,0.44274 7.99289,0.34468 6.4733,-0.17541 6.61036,-0.13592 8.44188,2.43167 1.63638,2.29403 1.89739,3.9059 2.15608,13.31499 l 0.29432,10.705 -4.71542,-1.23137 c -6.19891,-1.61875 -18.41798,-6.30485 -24.67199,-9.46186 -3.99334,-2.01584 -6.93517,-4.68824 -14.71965,-13.37156 -18.77109,-20.93851 -26.33136,-30.09354 -28.04649,-33.9626 -2.38574,-5.3818 -2.5923,-18.63721 -0.35433,-22.7373 1.78572,-3.27152 0.9837,-2.89942 31.86015,-14.78183 27.36478,-10.53099 30.81505,-12.01268 32.95433,-14.15196 2.49837,-2.49837 1.98358,-6.19345 -1.73487,-12.45252 -5.38421,-9.06297 -6.88714,-14.34427 -7.39506,-25.98625 -0.59795,-13.70535 0.83932,-20.05609 7.44623,-32.90205 4.62774,-8.99781 4.93564,-9.93609 3.94341,-12.01665 -0.83594,-1.75286 -1.77798,-2.31505 -4.21892,-2.51776 -2.77051,-0.23009 -3.58233,0.19139 -6.85545,3.55918 -4.55986,4.69176 -10.04124,15.53836 -12.4115,24.56001 -1.34908,5.13484 -1.7842,9.38383 -1.81546,17.72795 -0.0455,12.13629 1.09696,18.00578 5.31544,27.30945 1.3612,3.00204 2.37656,5.53174 2.25637,5.62156 -0.12017,0.0898 -2.94015,1.21678 -6.2666,2.50434 l -6.04809,2.34105 -6.19263,-3.80053 c -3.40595,-2.09029 -8.88352,-5.34636 -12.17237,-7.23572 -8.38501,-4.81696 -8.65306,-5.24778 -6.25394,-10.05154 3.21413,-6.43569 4.60817,-29.15082 2.08806,-34.02416 -2.09493,-4.05114 -8.5844,-4.46295 -10.61248,-0.67344 -0.53263,0.99522 -1.24651,6.40409 -1.58641,12.01971 -0.79119,13.07158 -2.72437,18.11045 -8.17322,21.30369 -4.42089,2.59081 -8.21511,3.77599 -22.66612,7.08005 -17.0214,3.89177 -19.60339,5.46518 -35.45589,21.60608 -7.428857,7.56401 -14.576423,14.14918 -15.883483,14.63372 -4.272236,1.58377 -11.587081,1.04496 -16.431358,-1.21031 -5.221038,-2.43068 -21.365625,-17.64979 -23.058459,-21.73665 -1.360674,-3.28496 -0.302275,-6.49667 9.868695,-29.94652 13.678598,-31.53691 12.850164,-29.05606 13.474974,-40.35249 0.520666,-9.41354 0.767651,-10.51848 3.490936,-15.61748 1.611845,-3.01797 3.613752,-6.19121 4.448681,-7.05166 1.472281,-1.51727 1.595756,-1.4515 4.095029,2.18107 2.798229,4.06709 9.256796,7.58056 15.896295,8.6476 8.31257,1.33593 21.97341,-3.83423 29.37719,-11.11828 8.31547,-8.18099 11.88811,-22.03434 8.59964,-33.34624 -1.65218,-5.68329 -6.55141,-13.15959 -10.83942,-16.54114 l -3.13111,-2.46921 2.11559,-0.96393 c 2.6531,-1.20883 7.11107,-1.23766 10.21203,-0.066 3.77621,1.42675 6.62664,4.68705 12.72113,14.55037 6.50733,10.53146 7.9465,11.54726 12.66634,8.94013 5.68023,-3.13762 5.83951,-3.50173 3.74375,-8.55812 -1.01816,-2.4565 -1.8512,-4.88822 -1.8512,-5.40381 0,-0.51559 6.74295,-5.10503 14.98434,-10.19875 8.24138,-5.09371 23.15185,-14.38345 33.13437,-20.64387 32.38721,-20.311227 43.38289,-25.729444 57.05286,-28.113288 9.29178,-1.620351 14.80214,-1.612283 22.96954,0.03363 12.82617,2.584757 23.54318,9.010867 38.08131,22.834218 11.76788,11.18931 21.97899,23.58355 46.51037,56.45426 19.17485,25.69326 22.20848,29.32101 38.53912,46.08686 18.30779,18.79568 21.08804,22.16009 25.41459,30.75444 7.70357,15.30252 7.86922,28.93862 0.6153,50.65128 -5.53306,16.56174 -6.35372,20.38355 -5.4223,25.25165 0.81531,4.26133 3.90183,10.34065 6.23177,12.27433 0.72322,0.60021 1.31494,1.52856 1.31494,2.06297 0,0.53442 3.04034,3.99417 6.75629,7.68835 l 6.7563,6.71666 9.28328,23.29373 c 5.1058,12.81156 9.28328,23.95817 9.28328,24.77026 0,0.81208 -1.02594,3.22713 -2.27985,5.36678 -1.87939,3.20693 -2.34111,5.17157 -2.62861,11.18478 l -0.34875,7.2945 -12.77783,-0.06 c -7.0278,-0.033 -13.63256,-0.1814 -14.67725,-0.32977 z M 71.150751,285.33553 c 2.700023,-5.32184 2.322449,-10.57708 -0.934007,-12.99997 -3.207329,-2.38632 -10.588587,-2.47906 -13.145427,-0.16515 -2.545711,2.30383 -2.290008,6.2943 0.664693,10.37315 5.854318,8.08165 10.265265,8.99969 13.414741,2.79197 z m 29.518879,-45.68842 c 7.08262,-3.42864 10.76641,-12.82663 8.32271,-21.23266 -1.62779,-5.5994 -4.47424,-8.52117 -7.54955,-7.74932 -4.064454,1.02012 -15.948951,16.29137 -17.074449,21.9402 -0.658823,3.3066 1.427614,5.95354 5.959771,7.5608 4.60342,1.63254 6.046615,1.56011 10.341518,-0.51902 z m 72.62706,-39.1956 c 7.98466,-3.33118 16.63235,-12.07678 19.99105,-20.21738 1.85852,-4.50455 3.22583,-15.86955 2.52357,-20.97566 -0.66143,-4.80909 -2.43367,-6.88281 -6.91302,-8.08897 -10.32645,-2.78063 -28.04119,5.75835 -38.19601,18.41149 -5.48365,6.83275 -7.04011,9.87706 -6.38479,12.48807 0.61284,2.44176 5.61245,4.86966 8.52331,4.13908 1.05241,-0.26413 4.2625,-3.27331 7.13354,-6.68705 6.08978,-7.24093 19.05665,-16.38897 20.78321,-14.66241 1.02885,1.02885 -1.39246,11.14633 -3.31376,13.84665 -2.4103,3.38757 -9.51173,10.95118 -11.13485,11.85953 -0.65226,0.36502 -1.43669,2.23183 -1.74318,4.14848 -0.46031,2.87859 -0.24736,3.79467 1.22415,5.26619 2.1262,2.12619 3.35633,2.20354 7.50678,0.47198 z"
       id="path123" /></g></svg>
