<?xml version="1.0" encoding="UTF-8" standalone="no"?>
<!-- Created with Inkscape (http://www.inkscape.org/) -->

<svg
   width="512"
   height="512"
   viewBox="0 0 135.46667 135.46667"
   version="1.1"
   id="svg1"
   xml:space="preserve"
   xmlns="http://www.w3.org/2000/svg"
   xmlns:svg="http://www.w3.org/2000/svg"><defs
     id="defs1" /><path
     style="fill:none;stroke:#ffffff;stroke-width:5.36443;stroke-linecap:round;stroke-dasharray:none"
     d="M 10.897722,46.591711 C 15.477925,29.534406 28.744718,14.214421 49.11872,12.161227"
     id="path175" /><path
     style="fill:none;stroke:#ffffff;stroke-width:4.47358;stroke-linecap:round;stroke-dasharray:none"
     d="M 21.263369,49.929127 C 24.376642,36.901947 33.3944,25.201611 47.243097,23.633525"
     id="path175-0" /><path
     style="fill:#000000;stroke-width:0.685887"
     d="m 12.417957,135.2816 c -1.973495,-0.13209 -2.399968,-0.39717 -3.1259126,-1.94283 -0.2379311,-0.5066 -0.346166,-1.13546 -0.3488831,-2.02706 -0.0077,-2.51699 0.8502555,-4.64168 3.1535377,-7.80991 0.764381,-1.05143 1.79227,-2.52503 2.2842,-3.27466 l 0.894415,-1.36296 -0.240246,-0.84165 c -0.351982,-1.23309 -0.290675,-1.75403 0.290005,-2.46416 4.755725,-5.81592 8.337991,-10.02032 11.28947,-13.25009 3.943887,-4.315767 4.731213,-5.226567 6.884113,-7.963787 3.096415,-3.936808 3.062153,-3.886091 3.062153,-4.533211 0,-0.85541 1.214363,-2.65439 4.57713,-6.780626 0.988368,-1.212761 2.433196,-3.113912 3.210726,-4.224759 0.777532,-1.110858 1.932102,-2.658852 2.565714,-3.439999 1.006868,-1.241304 1.171976,-1.553615 1.310399,-2.478759 0.08711,-0.582182 0.209596,-1.236459 0.272194,-1.453941 0.143075,-0.497075 0.128531,-0.501628 -3.147476,-0.983984 -5.249959,-0.773007 -6.343239,-1.185394 -8.269015,-3.119091 -1.824749,-1.832253 -2.495542,-3.528847 -2.489991,-6.297762 0.0051,-2.57327 0.588535,-4.19526 3.335871,-9.274898 7.810176,-14.440487 8.887482,-16.11771 11.64784,-18.13415 1.270477,-0.928083 3.789966,-2.182007 5.909188,-2.940944 1.80037,-0.644749 4.460133,-0.74784 5.421118,-0.210122 0.606435,0.339331 4.518142,4.040698 9.121326,8.630853 1.661831,1.657137 2.815598,2.673815 2.966824,2.614344 0.290115,-0.114086 2.666916,-3.867353 4.361105,-6.886708 2.018502,-3.597367 2.602324,-3.902097 5.648999,-2.948563 5.406925,1.692236 12.168143,5.036189 17.384049,8.597772 1.91803,1.309703 2.06043,1.375225 2.455,1.129686 1.01869,-0.633925 4.20786,-4.942956 4.20786,-5.685436 0,-0.223977 -0.25167,-1.157555 -0.55925,-2.074618 -0.45319,-1.351187 -0.5405,-1.85333 -0.46039,-2.647918 0.13118,-1.301071 0.93559,-2.733962 1.93785,-3.451869 0.43485,-0.311474 0.98739,-0.940341 1.23735,-1.408273 0.81652,-1.528586 1.54858,-2.289454 2.81774,-2.928661 1.16407,-0.586275 1.28486,-0.608205 3.2743,-0.594506 2.39179,0.01646 3.73983,0.323207 5.73266,1.304442 1.67464,0.82456 3.23092,2.358914 3.91519,3.860027 0.62216,1.36484 0.76366,3.804841 0.32283,5.566379 -0.81841,3.270257 -4.29263,9.026759 -9.64847,15.986711 -1.21138,1.574197 -2.71197,3.530487 -3.33464,4.347313 -1.76603,2.316694 -3.70109,4.105337 -5.3357,4.931989 -1.36223,0.688906 -1.46364,0.710888 -3.20897,0.695621 -1.6446,-0.01439 -2.01637,-0.08948 -4.24894,-0.858203 -1.345649,-0.46334 -4.061966,-1.550074 -6.036276,-2.414966 -4.463912,-1.955531 -4.418939,-1.938294 -4.659898,-1.785843 -0.205601,0.130083 -0.70985,2.967817 -1.647632,9.272421 -0.509938,3.428243 -1.477869,8.702183 -1.711534,9.325523 -0.07284,0.194425 0.463192,0.788419 1.741359,1.92956 2.326062,2.076703 8.217404,6.765892 11.62181,9.250351 1.430411,1.043879 3.265451,2.572922 4.077891,3.397892 2.45975,2.497688 2.64383,3.07977 5.60091,17.710313 0.98453,4.87108 1.824,11.06476 1.78559,13.17422 l -0.0316,1.73253 1.13086,1.16805 c 1.18598,1.22498 2.34733,1.95583 4.30258,2.70765 2.93979,1.1304 4.29946,2.19985 5.12599,4.03185 0.46646,1.03393 0.51753,1.33735 0.51753,3.07504 0,2.12651 -0.23332,2.80545 -1.22387,3.56126 -0.5029,0.38372 -0.58939,0.38641 -12.40763,0.38641 -15.058433,0 -13.557375,0.6953 -13.767638,-6.3773 -0.139414,-4.68901 -0.208647,-5.09848 -0.86217,-5.09848 -0.179724,0 -0.528899,-0.1859 -0.775948,-0.41312 -0.668269,-0.6146 -3.109027,-9.01458 -4.681604,-16.11199 -0.647087,-2.92047 -0.990931,-3.98006 -1.423582,-4.38707 -0.204062,-0.19196 -1.702778,-0.90129 -3.330478,-1.57628 -4.661995,-1.933277 -10.461673,-4.445967 -12.983575,-5.625098 -1.271378,-0.594441 -2.381563,-1.080799 -2.46708,-1.080799 -0.08552,0 -1.708807,1.468645 -3.607314,3.263643 -1.898508,1.79501 -4.178245,3.916604 -5.066081,4.714684 -0.887837,0.79807 -4.237403,3.90488 -7.44348,6.90403 -3.206077,2.99914 -6.676711,6.21289 -7.712521,7.14168 -1.918118,1.71992 -8.414977,7.13214 -9.446196,7.86916 -0.952053,0.68045 -1.720851,0.70071 -3.86291,0.10173 -0.216385,-0.0605 -0.412488,0.12941 -0.672604,0.65136 -0.201942,0.40522 -0.367166,0.87667 -0.367166,1.04766 0,0.171 0.38863,0.73201 0.863624,1.2467 0.474993,0.51469 1.099169,1.34778 1.387057,1.85129 1.218471,2.13113 0.317626,4.51359 -2.161001,5.71523 l -0.896804,0.43477 -7.174439,-0.0279 c -3.94594,-0.0153 -7.909312,-0.0771 -8.807491,-0.13722 z m 15.488686,-3.59836 c 0.41882,-0.14433 0.226133,-0.65247 -0.879156,-2.31847 -1.648092,-2.48417 -1.805659,-3.26063 -0.989017,-4.87367 0.162924,-0.3218 0.249325,-0.71023 0.192,-0.86315 -0.112109,-0.29908 -0.262223,-0.3627 -4.197898,-1.77939 -3.506849,-1.26232 -3.446984,-1.25469 -3.987613,-0.508 -4.996762,6.90123 -5.218095,7.28769 -5.237146,9.14424 l -0.01234,1.20145 1.883291,0.0918 c 2.107385,0.10273 12.878663,0.0255 13.22787,-0.0948 z m 89.904677,-0.85699 c 0,-1.15567 -1.1585,-2.22213 -3.52381,-3.24388 -2.88378,-1.24571 -3.9187,-1.95554 -6.1302,-4.20457 -1.59141,-1.61843 -2.13506,-2.064 -2.51105,-2.05809 -0.8231,0.0129 -7.925947,1.57416 -8.134894,1.78805 -0.297343,0.30438 0.146585,7.51965 0.496742,8.07356 l 0.261137,0.41314 h 9.771035 9.77104 z M 33.554614,120.25462 c 0.51895,-0.48066 2.436724,-2.15274 4.261722,-3.71573 1.824998,-1.56298 4.004234,-3.49458 4.842746,-4.29245 0.838512,-0.79786 3.460423,-3.1951 5.826466,-5.3272 2.366045,-2.13208 5.716768,-5.23983 7.446051,-6.90612 5.462339,-5.263336 10.03489,-9.32711 11.049325,-9.819903 0.776047,-0.376994 1.312956,-0.225935 2.363846,0.665078 0.465419,0.394594 1.411208,1.006211 2.101744,1.359134 1.066433,0.54504 9.302809,4.159743 15.628119,6.858727 1.761737,0.751722 2.318008,1.153474 2.728809,1.970804 0.108083,0.21515 1.126151,4.18118 2.262239,8.8134 2.08179,8.48811 2.392629,9.54256 2.868056,9.72933 0.143295,0.0563 2.181395,-0.28108 4.52914,-0.7497 5.457903,-1.08944 7.407423,-1.55508 7.407423,-1.76925 0,-0.27988 -0.69869,-4.69023 -1.0879,-6.86713 -1.24572,-6.96759 -2.47907,-12.879923 -3.58723,-17.196356 -0.27986,-1.090034 -1.52104,-2.799682 -2.815948,-3.878752 -0.664353,-0.553627 -2.479842,-1.851917 -4.034405,-2.885099 l -2.826474,-1.878508 -0.647009,0.525519 c -1.471845,1.195495 -2.113801,1.581869 -4.04673,2.435695 -1.116067,0.492972 -2.755624,1.243568 -3.643458,1.667977 -7.684054,3.673139 -9.284014,4.184972 -10.358098,3.313601 -0.354172,-0.287337 -0.49324,-0.566075 -0.49324,-0.988621 0,-0.747228 0.349187,-1.253931 1.349777,-1.958684 L 75.47531,88.79994 74.313299,87.107937 c -0.639112,-0.930599 -1.699096,-2.559559 -2.35553,-3.619923 -2.096278,-3.38617 -3.371277,-4.954553 -4.029444,-4.956628 -0.159331,-5.02e-4 -0.493974,0.163585 -0.74365,0.364635 -0.715056,0.575791 -3.445256,4.626224 -7.339503,10.888614 -1.720407,2.766622 -2.90374,3.983354 -3.875562,3.984982 -0.225822,3.79e-4 -1.381552,-0.371137 -2.568287,-0.825584 -1.186736,-0.454447 -2.939071,-1.030382 -3.894078,-1.279852 -0.955007,-0.24947 -2.944038,-0.869152 -4.420067,-1.37707 -1.476031,-0.50793 -2.864553,-0.923505 -3.085603,-0.923505 -0.232244,0 -0.537952,0.203303 -0.724167,0.481584 -0.17724,0.264885 -0.665854,0.873111 -1.085808,1.351628 -0.419954,0.478517 -1.065654,1.413611 -1.434887,2.078009 -1.278398,2.300318 -4.317931,6.052137 -9.029096,11.144983 -3.133851,3.38776 -10.56482,12.10795 -10.56482,12.39776 0,0.17184 5.809637,2.18883 11.030699,3.82962 2.066253,0.64936 2.26072,0.62665 3.361118,-0.39257 z M 56.213006,88.858665 c 0.251439,-0.378688 0.841958,-1.349542 1.312261,-2.157436 0.743385,-1.276996 4.208178,-6.54376 5.293414,-8.046424 0.356882,-0.494143 0.360059,-0.534008 0.06042,-0.758303 -0.173946,-0.130212 -1.061661,-0.331775 -1.972699,-0.447933 -2.939656,-0.374818 -6.081358,-0.958807 -7.630725,-1.41844 -0.831373,-0.246626 -1.648421,-0.403964 -1.815665,-0.349621 -0.371234,0.120619 -3.232377,3.595306 -4.31222,5.236926 -0.431782,0.656423 -1.376243,1.982999 -2.098801,2.947963 -0.722559,0.964964 -1.313743,1.881074 -1.313743,2.035791 0,0.207408 0.789397,0.506368 3.004296,1.137773 1.652362,0.471032 4.174626,1.222978 5.60503,1.670966 1.430403,0.448 2.783104,0.819661 3.006001,0.825908 0.274394,0.0078 0.552898,-0.210967 0.862431,-0.67717 z M 82.32934,85.893168 c 3.145522,-1.450073 6.72122,-3.156709 7.198599,-3.435793 0.286858,-0.167711 0.171872,-0.328262 -0.98648,-1.37755 -1.771609,-1.604779 -5.588589,-4.850653 -6.099486,-5.186845 -0.37213,-0.244875 -0.573482,-0.228612 -2.027414,0.163774 -0.887835,0.239609 -2.381006,0.564681 -3.318175,0.722387 -3.267134,0.549802 -3.951018,0.69313 -4.044276,0.847613 -0.15977,0.264639 0.726057,1.837161 2.009947,3.568046 0.674971,0.909953 1.624699,2.314585 2.110544,3.121408 1.136825,1.887933 1.865503,2.844052 2.167519,2.844052 0.132342,0 1.47749,-0.570191 2.989222,-1.267092 z m -7.544038,-12.38154 c 3.730939,-0.627702 6.987823,-1.477624 7.291646,-1.90285 0.314442,-0.440107 0.221317,0.107814 1.663515,-9.787026 0.699165,-4.796872 1.355711,-9.125397 1.459008,-9.61894 0.269502,-1.287749 1.078879,-2.139957 2.149773,-2.263522 0.713174,-0.08229 1.05027,0.01644 2.504893,0.73367 6.537592,3.223489 11.909423,5.273196 13.819903,5.273196 1.00585,0 1.6272,-0.279266 2.9914,-1.344528 1.47147,-1.149035 7.69225,-8.935158 7.45404,-9.329723 -0.0537,-0.08897 -0.68245,-0.604491 -1.39718,-1.145591 -0.71473,-0.541099 -1.85316,-1.614579 -2.52984,-2.385512 -0.67668,-0.770933 -1.27725,-1.401132 -1.3346,-1.400441 -0.0573,6.9e-4 -0.30606,0.307374 -0.55267,0.681522 -0.76697,1.163562 -3.80341,4.286528 -4.54364,4.673119 -1.02191,0.533697 -1.61041,0.344556 -3.908172,-1.256081 -2.742094,-1.910155 -4.176775,-2.76197 -8.139081,-4.83244 -3.118451,-1.629523 -7.442547,-3.502426 -9.395074,-4.069305 -0.972482,-0.282339 -0.850412,-0.41935 -3.197098,3.588753 -3.591191,6.133681 -5.501075,8.745751 -7.217483,9.871022 -2.027968,1.329531 -3.070084,-0.225231 -1.803333,-2.690443 0.295944,-0.575937 0.538084,-1.143989 0.538084,-1.262336 0,-0.255443 -2.200674,-2.476872 -4.214985,-4.254739 -0.789187,-0.696551 -2.656771,-2.483581 -4.150185,-3.971177 -1.653951,-1.647507 -2.912416,-2.755364 -3.219593,-2.834289 -1.091572,-0.28046 -4.29049,0.753975 -6.491948,2.099302 -2.555604,1.56175 -2.901156,2.019986 -6.809288,9.029759 -7.309945,13.111392 -7.190912,12.861475 -7.345949,15.423438 -0.277939,4.5929 1.68895,5.838987 10.59597,6.712891 1.565738,0.15362 3.739841,0.399889 4.831343,0.547263 2.699173,0.364441 3.482072,0.352851 3.60493,-0.05336 0.05345,-0.176729 0.181722,-1.106265 0.285049,-2.06564 0.10333,-0.959375 0.349701,-2.771962 0.547497,-4.027971 0.291691,-1.852237 0.316363,-2.327679 0.130601,-2.516693 -0.164551,-0.167431 -1.436402,-0.269414 -4.517591,-0.362241 -4.912131,-0.147989 -4.948528,-0.159881 -4.948528,-1.616945 0,-0.652875 0.102851,-0.917421 0.524488,-1.349053 0.288469,-0.295307 0.774838,-0.643077 1.080819,-0.772822 0.648875,-0.275144 1.23599,-1.424018 2.697313,-5.278131 1.184783,-3.124766 1.918566,-3.797143 2.969651,-2.721145 0.712451,0.72934 0.597526,2.53477 -0.389667,6.121503 -0.258322,0.938554 -0.426147,1.751023 -0.372944,1.805487 0.140617,0.14395 2.261644,0.392765 4.431357,0.519837 l 1.883291,0.110302 0.670446,-0.917098 c 1.33551,-1.82683 3.438423,-2.831143 6.408713,-3.060686 2.584556,-0.199733 3.695875,0.451567 4.027516,2.360372 0.06581,0.378701 0.193667,0.688547 0.284148,0.688547 0.537365,0 2.231052,0.85215 2.910418,1.464332 1.189695,1.072038 1.764102,2.524856 1.878219,4.750452 0.169183,3.29992 -0.757333,5.81632 -2.991542,8.124955 -2.36925,2.448175 -4.031068,2.805832 -13.098238,2.819017 -3.403375,0.0049 -6.833652,-0.03233 -7.622841,-0.08281 -1.177682,-0.07536 -1.434887,-0.04386 -1.434887,0.175538 0,0.329031 0.813927,0.580386 4.214983,1.301692 3.389139,0.718784 5.629825,0.890255 10.761657,0.823565 3.500216,-0.04551 4.689914,-0.134684 7.015686,-0.525977 z m -5.534605,-5.708201 c 2.962843,-0.580322 4.138239,-1.682854 4.908867,-4.604583 0.258906,-0.981594 0.327102,-3.172888 0.109086,-3.50705 -0.243982,-0.374048 -0.842382,-0.573938 -2.095944,-0.700127 -2.245442,-0.226034 -3.098734,-0.998922 -2.917736,-2.642793 l 0.09047,-0.821716 -1.460547,0.105673 c -0.803299,0.05812 -1.597981,0.159734 -1.765958,0.225817 -0.167976,0.06608 -0.557041,0.521572 -0.864587,1.012201 -0.618129,0.986104 -1.666669,2.027341 -2.469583,2.452386 -0.473629,0.250729 -0.55754,0.44635 -0.902198,2.103329 -0.43573,2.094818 -0.851333,5.917543 -0.690109,6.347645 0.09379,0.250226 0.566166,0.290368 3.416873,0.290368 2.115577,0 3.788638,-0.09414 4.641306,-0.261145 z M 116.86417,41.762103 c 0.58922,-0.656293 2.66546,-3.989682 3.5317,-5.670121 0.94653,-1.836179 1.54222,-3.738161 1.53681,-4.906932 -0.0114,-2.449969 -2.12363,-4.206583 -5.51688,-4.587876 -1.39228,-0.156449 -2.72979,-0.09209 -2.72979,0.131359 0,0.0661 0.42305,0.32559 0.94012,0.576652 1.93067,0.937452 2.98249,2.527757 2.53445,3.831963 -0.26528,0.772187 -0.9139,0.876934 -2.04891,0.33088 -1.98056,-0.952851 -4.22248,-1.133598 -5.0101,-0.40392 -0.47951,0.444243 -0.45818,0.662453 0.16631,1.701447 0.56286,0.936426 0.89555,2.109737 0.9027,3.183431 0.01,1.546271 1.82726,4.085815 3.99011,5.576894 1.10851,0.764202 1.21606,0.779117 1.70348,0.236223 z m -95.52583,8.859163 c -1.914632,-0.46288 -1.868218,-2.799133 0.159597,-8.033519 1.709057,-4.411577 3.822189,-7.743373 7.170991,-11.30657 4.499413,-4.78747 9.14223,-7.486913 15.022151,-8.734233 2.629296,-0.557758 3.172576,-0.524646 3.918365,0.23882 0.509806,0.521891 0.609828,0.757564 0.609828,1.436894 0,0.926912 -0.532148,1.611071 -1.25311,1.611071 -0.690564,0 -3.382326,0.547401 -5.114205,1.040031 -3.635024,1.033978 -7.393319,3.59018 -10.924598,7.430355 -3.31117,3.600815 -6.220819,8.998557 -6.854874,12.716602 -0.389877,2.286203 -0.571539,2.804744 -1.160257,3.311858 -0.584887,0.503815 -0.641273,0.514158 -1.573888,0.288691 z M 10.604434,47.738452 C 10.385841,47.695141 9.9950339,47.401831 9.7359716,47.086656 9.3067855,46.564507 9.2760038,46.423034 9.3894086,45.49386 9.7808797,42.286357 12.36329,35.948024 15.071705,31.547086 c 4.332562,-7.040037 11.283142,-13.465917 18.7512,-17.335668 1.259227,-0.652498 2.907362,-1.402499 3.662523,-1.66667 2.759234,-0.965234 9.042,-2.318069 10.765464,-2.318069 1.334732,0 2.266997,1.463287 1.70327,2.673458 -0.41902,0.899523 -1.096147,1.161215 -4.030911,1.557853 -6.119344,0.827037 -11.995667,3.446143 -17.426986,7.767294 -2.501478,1.990172 -6.763127,6.366434 -8.482259,8.710382 -3.209966,4.376622 -5.66147,9.586786 -6.50149,13.817572 -0.388716,1.957782 -0.675515,2.525758 -1.440629,2.85302 -0.615675,0.263344 -0.746217,0.275104 -1.467453,0.132194 z M 69.322836,32.446479 C 63.110712,31.297185 58.427675,26.934091 56.805572,20.78439 56.502059,19.633713 56.41409,18.758605 56.399511,16.744918 c -0.02181,-3.011717 0.205453,-4.090038 1.393076,-6.610044 1.359746,-2.8852311 3.466451,-5.289654 6.115758,-6.980035 3.081032,-1.9658407 7.03794,-2.72268605 10.460345,-2.0007716 5.922606,1.2493024 10.952303,6.0144772 12.43508,11.7810806 0.520712,2.025079 0.517667,5.62763 -0.0067,7.66563 -1.372988,5.338473 -5.54298,9.741928 -10.866752,11.475144 -1.404018,0.45709 -5.03835,0.660902 -6.607709,0.370557 z m 6.451969,-4.389063 c 2.890275,-1.151575 5.237317,-3.308091 6.503427,-5.975491 0.926874,-1.952726 1.17418,-3.103618 1.166539,-5.428812 -0.01115,-3.352381 -0.996909,-5.73826 -3.380514,-8.1808769 -2.418316,-2.4781708 -5.069706,-3.6198173 -8.438378,-3.6334297 -3.226202,-0.013039 -5.719156,1.0535435 -8.08628,3.459615 -1.61142,1.6379339 -2.692908,3.5716056 -3.235014,5.7841176 -0.409343,1.670669 -0.257772,4.754154 0.320955,6.529255 1.068455,3.277227 3.578178,6.01982 6.639045,7.255059 1.940613,0.783151 2.663535,0.906794 4.899376,0.837951 1.901106,-0.05854 2.322571,-0.134102 3.610844,-0.647388 z"
     id="path161" /><path
     style="fill:#ffffff;stroke:#000000;stroke-width:2.48047;stroke-dasharray:none"
     id="path162"
     d="M 10.739785,63.175202 C 10.284091,63.019851 9.8196444,58.379122 9.6072691,57.947048 9.3948938,57.514974 6.0042325,54.312553 6.1595829,53.856859 c 0.1553503,-0.455694 4.7960801,-0.920141 5.2281541,-1.132516 0.432074,-0.212375 3.634494,-3.603036 4.090188,-3.447686 0.455695,0.15535 0.920141,4.79608 1.132516,5.228154 0.212376,0.432074 3.603037,3.634494 3.447687,4.090188 -0.155351,0.455695 -4.79608,0.920141 -5.228154,1.132516 -0.432074,0.212376 -3.634495,3.603037 -4.090189,3.447687 z" /><path
     style="fill:#ffffff;stroke:#000000;stroke-width:2.48047;stroke-dasharray:none"
     id="path163"
     d="m 22.743072,74.072922 c -0.207133,0.258917 -3.322157,-0.524676 -3.651705,-0.488059 -0.329548,0.03662 -3.196587,1.484883 -3.455505,1.277749 -0.258917,-0.207134 0.524676,-3.322158 0.488059,-3.651706 -0.03662,-0.329548 -1.484882,-3.196587 -1.277749,-3.455504 0.207134,-0.258918 3.322158,0.524675 3.651706,0.488059 0.329548,-0.03662 3.196587,-1.484883 3.455504,-1.277749 0.258918,0.207133 -0.524675,3.322157 -0.488058,3.651705 0.03662,0.329548 1.484882,3.196587 1.277748,3.455505 z" /><path
     style="fill:#ffffff;stroke:#000000;stroke-width:2.48047;stroke-dasharray:none"
     id="path164"
     d="m 114.03124,70.598288 c -0.23821,0.269274 -3.5695,-0.746447 -3.92834,-0.724478 -0.35884,0.02197 -3.54135,1.436496 -3.81062,1.198292 -0.26928,-0.238204 0.74644,-3.569501 0.72447,-3.928342 -0.022,-0.358841 -1.43649,-3.541347 -1.19829,-3.810621 0.23821,-0.269274 3.5695,0.746447 3.92834,0.724478 0.35884,-0.02197 3.54135,-1.436496 3.81062,-1.198292 0.26928,0.238204 -0.74644,3.569501 -0.72447,3.928342 0.022,0.358841 1.43649,3.541347 1.19829,3.810621 z"
     transform="translate(13.266793,-12.003288)" /><path
     style="fill:#ffffff;stroke:#000000;stroke-width:2.48047;stroke-dasharray:none"
     id="path165"
     d="m 120.19082,85.286522 c -0.49713,0.06214 -3.04483,-4.068605 -3.44029,-4.376183 -0.39545,-0.307578 -5.02623,-1.760092 -5.08837,-2.257213 -0.0621,-0.497121 4.06861,-3.044825 4.37619,-3.440283 0.30757,-0.395457 1.76009,-5.026229 2.25721,-5.088369 0.49712,-0.06214 3.04482,4.068604 3.44028,4.376182 0.39546,0.307578 5.02623,1.760092 5.08837,2.257213 0.0621,0.497122 -4.0686,3.044826 -4.37618,3.440283 -0.30758,0.395458 -1.76009,5.02623 -2.25721,5.08837 z"
     transform="rotate(-13.674527,84.101535,92.198139)" /><path
     style="fill:#ffffff;stroke:none;stroke-width:1.48067;stroke-dasharray:none"
     d="M 60.095412,73.666413 C 57.921095,73.361827 53.783652,72.433632 53.206329,72.120915 52.83411,71.9193 52.808784,71.87376 53.067171,71.870707 c 0.173731,-0.0021 3.869481,-0.02787 8.212775,-0.05737 8.618019,-0.05853 9.584704,-0.144436 11.448823,-1.017384 1.031579,-0.483079 3.199191,-2.57215 3.872714,-3.732387 1.116523,-1.92337 1.619668,-4.434462 1.355088,-6.762946 -0.30244,-2.661685 -1.210292,-4.097184 -3.212016,-5.078857 -0.629994,-0.308957 -1.256083,-0.592807 -1.391306,-0.630775 -0.143867,-0.0404 -0.355052,-0.461769 -0.509069,-1.015735 -0.529553,-1.904694 -2.08712,-2.449124 -5.325681,-1.861527 -2.375051,0.430925 -3.895445,1.288055 -5.098098,2.874082 l -0.666642,0.879152 -1.956601,-0.098 c -1.811883,-0.09075 -4.114221,-0.344098 -4.236278,-0.466156 -0.02874,-0.02874 0.163208,-0.933249 0.426542,-2.010024 0.685636,-2.803551 0.88019,-4.480433 0.610193,-5.259387 -0.271989,-0.784699 -0.906296,-1.278065 -1.463405,-1.138238 -0.581271,0.145889 -1.099265,1.050338 -2.265953,3.956495 -1.279604,3.187422 -1.668608,3.950134 -2.195507,4.304665 -0.233021,0.156795 -0.731311,0.577784 -1.107308,0.935535 -0.647636,0.616207 -0.68363,0.697092 -0.68363,1.536255 0,1.335091 0.120414,1.382803 3.916669,1.551991 4.790126,0.213476 5.385269,0.275709 5.534896,0.578747 0.10968,0.222128 -0.394629,4.642977 -0.876758,7.685839 l -0.125121,0.789691 -0.805691,0.04692 c -1.053402,0.06135 -10.427346,-0.997524 -12.461103,-1.407599 -1.705536,-0.343895 -3.103586,-0.846511 -3.930316,-1.412994 -1.432666,-0.981679 -1.986373,-3.097702 -1.508673,-5.765462 0.237283,-1.325123 1.457626,-3.771447 5.568998,-11.163721 5.227788,-9.399601 5.740648,-10.165996 7.687921,-11.488478 1.875176,-1.273519 4.97019,-2.509417 6.446369,-2.574155 0.658683,-0.02889 0.838433,0.03763 1.404022,0.519594 0.723244,0.616302 9.656536,9.161917 10.375864,9.925582 l 0.458229,0.486471 -0.528085,1.21118 c -1.663096,3.814368 0.861518,4.575953 3.771437,1.137703 1.110062,-1.311606 3.37253,-4.737896 5.454137,-8.259763 2.286868,-3.869153 2.111248,-3.671956 3.04885,-3.423435 1.374981,0.36445 4.340127,1.610143 7.553269,3.173219 3.923216,1.9085 6.230372,3.215415 9.442038,5.348542 3.643036,2.419638 3.879676,2.410968 6.519636,-0.238911 0.84531,-0.848495 1.87485,-1.988278 2.28786,-2.532854 l 0.75092,-0.990137 1.11741,1.23752 c 0.61458,0.680635 1.75873,1.763691 2.54255,2.40679 0.78382,0.643096 1.42513,1.255953 1.42513,1.361901 0,0.264818 -2.46048,3.540932 -4.37841,5.829824 -2.63031,3.139072 -4.10058,4.357947 -5.5177,4.574246 -1.40501,0.21445 -5.998248,-1.415939 -12.301277,-4.366384 -2.833193,-1.326219 -3.455427,-1.561566 -4.128601,-1.561566 -0.963843,0 -1.702033,0.446289 -2.138987,1.293172 -0.349837,0.678035 -0.373631,0.817912 -1.956244,11.499806 -0.662803,4.473593 -1.264402,8.290316 -1.33689,8.481602 -0.07249,0.191289 -0.349311,0.460277 -0.615164,0.597755 -0.652629,0.337489 -3.685469,1.085889 -6.479474,1.598911 -2.149856,0.394748 -2.628625,0.423519 -7.817932,0.469784 -4.230254,0.03771 -5.917102,-0.0053 -7.186179,-0.183028 z"
     id="path166" /><path
     style="fill:#ffffff;stroke:none;stroke-width:1.48067;stroke-dasharray:none"
     d="m 68.22922,28.100089 c -1.920849,-0.648893 -3.442092,-1.630042 -4.842447,-3.123213 -1.360998,-1.451206 -2.356165,-3.213805 -2.834658,-5.020635 -0.485006,-1.831408 -0.479222,-4.930849 0.01204,-6.452542 1.230077,-3.8101946 4.201933,-6.9489611 7.652682,-8.0824837 1.102815,-0.3622591 1.554403,-0.4208296 3.329082,-0.4317778 1.731979,-0.010684 2.23851,0.045063 3.237728,0.3563408 2.145903,0.6684931 3.237577,1.3537708 5.060347,3.1765437 2.639496,2.639495 3.468306,4.620569 3.468306,8.290157 0,2.301558 -0.221511,3.283603 -1.177409,5.219873 -1.235016,2.501649 -3.050344,4.313805 -5.534956,5.525278 -1.673942,0.8162 -2.707556,1.02961 -4.968746,1.025898 -1.784575,-0.0029 -2.121162,-0.05076 -3.401967,-0.483439 z"
     id="path167" /><path
     style="fill:#ffffff;stroke:none;stroke-width:1.48067;stroke-dasharray:none"
     d="m 61.261283,67.684752 c -0.190937,-0.497573 0.502176,-5.688356 0.971208,-7.273465 0.198184,-0.669771 0.358617,-0.873633 1.05649,-1.342472 0.47948,-0.322122 1.221435,-1.075507 1.778105,-1.805498 1.048616,-1.3751 1.110742,-1.407713 2.979426,-1.563997 l 1.238734,-0.1036 -0.09859,0.749435 c -0.07356,0.559109 -0.02716,0.886965 0.182708,1.290989 0.428942,0.825797 0.948724,1.110195 2.501963,1.368962 2.490468,0.414904 2.547144,0.477753 2.389529,2.649908 -0.137898,1.900439 -0.772081,3.580453 -1.702964,4.511337 -1.348989,1.348991 -3.126357,1.746991 -7.801602,1.746991 -2.827915,0 -3.422201,-0.03887 -3.495003,-0.22859 z"
     id="path168" /><path
     style="fill:#ffffff;stroke:none;stroke-width:1.48067;stroke-dasharray:none"
     d="m 115.28463,41.475732 c -1.11208,-0.748924 -2.97358,-2.789933 -3.47006,-3.804697 -0.22896,-0.467982 -0.47907,-1.335249 -0.5558,-1.92726 -0.17735,-1.368377 -0.30464,-1.781807 -0.94932,-3.083354 -0.51359,-1.036878 -0.51851,-1.066202 -0.23215,-1.382625 0.72599,-0.802208 2.48071,-0.744196 4.72977,0.156372 0.64463,0.258119 1.32012,0.46931 1.5011,0.46931 0.56812,0 0.9608,-0.551236 0.9608,-1.348767 0,-1.321744 -0.72756,-2.274181 -2.50236,-3.275819 -0.81578,-0.460397 -0.84007,-0.49193 -0.48137,-0.624962 0.52873,-0.196097 3.03534,0.09988 4.14303,0.489196 1.94859,0.684877 3.20199,2.053159 3.36975,3.678626 0.18086,1.752309 -0.87612,4.42444 -3.27059,8.268352 -1.27682,2.049711 -1.9563,2.921404 -2.27723,2.921404 -0.0935,0 -0.528,-0.241098 -0.96557,-0.535776 z"
     id="path169" /><path
     style="fill:#ffffff;stroke:none;stroke-width:1.48067;stroke-dasharray:none"
     d="m 78.931264,86.66848 c -0.18134,-0.195448 -1.509398,-2.123115 -2.951239,-4.283705 -2.360732,-3.53754 -2.949967,-4.557715 -2.748698,-4.758984 0.03575,-0.03575 1.270277,-0.285652 2.743398,-0.555342 1.473121,-0.269689 3.366466,-0.663561 4.207436,-0.875276 0.840968,-0.211711 1.635821,-0.384929 1.76634,-0.384929 0.29882,0 1.527164,0.981528 4.877919,3.897784 1.455002,1.26633 2.645461,2.385081 2.645461,2.486115 0,0.204803 -0.555371,0.493834 -4.65917,2.424771 -3.021126,1.421511 -5.243724,2.404928 -5.435328,2.404928 -0.06403,0 -0.264779,-0.159912 -0.446119,-0.355362 z"
     id="path170" /><path
     style="fill:#ffffff;stroke:none;stroke-width:1.48067;stroke-dasharray:none"
     d="m 52.751295,88.743559 c -1.129257,-0.346186 -3.332493,-1.007633 -4.89608,-1.469887 -1.563584,-0.462251 -3.117686,-0.956151 -3.453556,-1.097558 l -0.610674,-0.257101 0.277471,-0.434697 c 0.50905,-0.797502 3.275039,-4.680233 4.388816,-6.160762 1.489776,-1.980343 2.917391,-3.51331 3.271853,-3.51331 0.160777,0 1.142672,0.207648 2.181987,0.461439 1.039318,0.253791 3.086945,0.649319 4.550284,0.878951 3.697247,0.580184 4.328779,0.712449 4.409477,0.92351 0.03872,0.101277 -1.014998,1.818796 -2.341597,3.816712 -1.3266,1.997917 -2.792027,4.272225 -3.256503,5.054016 -1.244473,2.094658 -1.541888,2.449764 -2.041993,2.438077 -0.23446,-0.0055 -1.35023,-0.293203 -2.479485,-0.63939 z"
     id="path171" /><path
     style="fill:#ffffff;stroke:none;stroke-width:1.48067;stroke-dasharray:none"
     d="m 26.296678,119.25925 c -5.561055,-1.8587 -6.949272,-2.35797 -6.949272,-2.49929 0,-0.27512 6.170183,-7.51782 10.263089,-12.04706 5.304857,-5.870388 7.388255,-8.4205 8.948341,-10.952904 0.956646,-1.552871 2.930078,-4.126328 3.261876,-4.253651 0.111411,-0.04275 1.088319,0.199062 2.170906,0.537366 1.082588,0.338302 3.247639,1.00878 4.811226,1.489949 1.563587,0.481168 3.716166,1.191352 4.783511,1.578184 1.067345,0.386834 2.119188,0.703331 2.33743,0.703331 1.141796,0 2.265553,-1.240766 4.888002,-5.396958 4.458663,-7.066306 6.421864,-9.765091 7.103518,-9.765091 0.436425,0 1.624706,1.317226 2.786523,3.088905 0.566359,0.863647 1.838825,2.806694 2.827705,4.317883 l 1.797963,2.747616 -0.383852,0.253207 c -1.721155,1.135348 -2.197029,2.509972 -1.153168,3.331072 1.03618,0.81506 2.611808,0.338968 9.521822,-2.877121 6.252883,-2.910245 6.865216,-3.222591 7.975871,-4.068438 0.60806,-0.463084 1.178819,-0.842457 1.268351,-0.843049 0.194038,-0.0013 3.542927,2.224166 5.466916,3.632948 1.499265,1.097791 2.909534,2.530618 3.525804,3.582189 0.47645,0.813014 1.06096,3.014739 2.12339,7.998481 0.86101,4.038901 2.33463,11.986021 2.82113,15.214171 l 0.30538,2.02635 -0.35994,0.13685 c -0.91233,0.34686 -9.627293,2.12658 -10.965675,2.23934 -0.514765,0.0434 -0.577384,-0.003 -0.910471,-0.6737 -0.196731,-0.39615 -1.323623,-4.55343 -2.504204,-9.23842 -1.348325,-5.35063 -2.261614,-8.67978 -2.456035,-8.95282 -0.453485,-0.636865 -1.179581,-1.012004 -5.895671,-3.046015 -9.369809,-4.041124 -12.160028,-5.328489 -13.472875,-6.216185 -1.927862,-1.303544 -2.256081,-1.464238 -2.786964,-1.364498 -0.900989,0.169275 -3.668411,2.526599 -10.194778,8.684032 -9.506889,8.969466 -23.516741,21.596396 -24.612097,22.182616 -0.176737,0.0946 -0.521462,0.1707 -0.766054,0.16915 -0.244591,-0.002 -2.754556,-0.77485 -5.577698,-1.71844 z"
     id="path172" /><path
     style="fill:#ffffff;stroke:none;stroke-width:1.48067;stroke-dasharray:none"
     d="m 13.227308,131.60884 c -0.320794,-0.0618 -0.355361,-0.15939 -0.355361,-1.0034 0,-1.63027 0.511206,-2.59594 3.820214,-7.21637 1.553684,-2.16944 1.771059,-2.40856 2.189578,-2.40856 0.494199,0 6.899651,2.26442 7.169892,2.53466 0.107815,0.10782 0.04519,0.47953 -0.192439,1.14218 -0.610963,1.70373 -0.454322,2.32358 1.283849,5.08036 0.490025,0.77718 0.890956,1.49679 0.890956,1.59912 0,0.10232 -0.222102,0.23047 -0.493557,0.28476 -0.543671,0.10873 -13.743449,0.097 -14.313132,-0.0128 z"
     id="path173" /><path
     style="fill:#ffffff;stroke:none;stroke-width:1.48067;stroke-dasharray:none"
     d="m 98.163832,131.2565 c -0.29719,-0.5553 -0.510889,-2.73444 -0.534691,-5.45234 l -0.02344,-2.6784 1.768697,-0.42862 c 2.599252,-0.6299 5.652182,-1.24281 6.190432,-1.24281 0.38703,0 0.8329,0.34836 2.51783,1.96719 1.97419,1.89674 3.64552,3.15104 4.88429,3.66556 1.25688,0.52205 3.11878,1.51148 3.67851,1.95479 0.67083,0.53131 1.09734,1.32073 1.09734,2.03106 v 0.48943 h -9.70764 c -9.440015,0 -9.712137,-0.008 -9.871315,-0.30586 z"
     id="path174" /></svg>
