<?xml version="1.0" encoding="UTF-8" standalone="no"?>
<!-- Created with Inkscape (http://www.inkscape.org/) -->

<svg
   width="512"
   height="512"
   viewBox="0 0 135.46667 135.46667"
   version="1.1"
   id="svg1"
   xml:space="preserve"
   xmlns="http://www.w3.org/2000/svg"
   xmlns:svg="http://www.w3.org/2000/svg"><defs
     id="defs1" /><ellipse
     style="fill:#ffffff;stroke:none;stroke-width:4.65005;stroke-dasharray:none"
     id="path109"
     cx="122.17686"
     cy="85.546143"
     rx="2.6802969"
     ry="2.9036548" /><ellipse
     style="fill:#ffffff;stroke:none;stroke-width:4.65005;stroke-dasharray:none"
     id="path110"
     cx="16.081781"
     cy="119.71992"
     rx="3.0153341"
     ry="2.9036548" /><path
     style="fill:#ffffff;stroke:none;stroke-width:4.65005;stroke-dasharray:none"
     id="path111"
     d="m 108.10531,18.315362 c -0.57122,0.01465 -2.99851,-4.960129 -3.41278,-5.353683 -0.41427,-0.393555 -5.506898,-2.562708 -5.521545,-3.1339239 -0.01465,-0.5712164 4.960125,-2.9985085 5.353685,-3.4127762 0.39355,-0.4142676 2.56271,-5.50690051 3.13392,-5.52154707 0.57122,-0.0146466 2.99851,4.96012887 3.41278,5.35368317 0.41427,0.3935542 5.5069,2.5627073 5.52155,3.1339236 0.0146,0.5712163 -4.96013,2.9985084 -5.35369,3.4127764 -0.39355,0.414267 -2.56271,5.5069 -3.13392,5.521547 z" /><path
     style="fill:#ffffff;stroke:none;stroke-width:4.65005;stroke-dasharray:none"
     id="path112"
     d="m 7.7058537,105.31333 c -0.4247506,-0.0146 -2.0046162,-3.81659 -2.2946035,-4.12729 -0.2899873,-0.3107 -3.9740694,-2.148702 -3.9594228,-2.573453 0.014647,-0.42475 3.8165862,-2.004616 4.1272869,-2.294603 0.3107007,-0.289988 2.1487046,-3.97407 2.5734552,-3.959423 0.4247506,0.01465 2.0046165,3.816586 2.2946035,4.127287 0.289987,0.310701 3.974069,2.148704 3.959423,2.573455 -0.01465,0.424751 -3.816586,2.004617 -4.127287,2.294607 -0.3107008,0.28998 -2.1487047,3.97407 -2.5734553,3.95942 z" /><path
     style="fill:#000000;stroke-width:0.593871"
     d="m 51.25599,134.07428 c -12.431282,-0.74622 -22.82872,-6.41149 -29.180148,-15.89944 -1.459443,-2.18015 -3.611824,-6.53519 -4.356756,-8.81527 -0.758023,-2.32016 -1.430084,-5.13014 -1.770264,-7.40172 -0.262788,-1.7548 -0.282366,-3.645092 -0.282366,-27.261749 0,-26.732129 -0.01837,-25.953326 0.715457,-30.325744 C 19.857825,23.659693 36.320548,6.3845756 56.126969,2.663982 61.978244,1.5648311 69.069811,1.4472537 74.825223,2.3539668 c 3.703105,0.5833885 7.603018,1.6900415 11.326019,3.2139058 12.653026,5.1790134 23.457548,17.0138094 28.036878,30.7103804 1.4901,4.456806 2.20382,7.647229 2.68575,12.005653 0.21899,1.980238 0.25726,5.13288 0.2807,23.112503 0.0294,22.559201 -0.0463,27.820936 -0.44203,30.718561 -1.10577,8.09734 -5.11228,16.20538 -10.63929,21.53096 -6.607864,6.36702 -14.898606,9.87311 -24.687481,10.44017 -3.172877,0.18379 -27.026833,0.17444 -30.129779,-0.0118 z m 27.96883,-2.95179 c 0,-0.33343 -0.541619,-2.96644 -1.102513,-5.35972 -0.726327,-3.09917 -3.623761,-14.81482 -3.691972,-14.92832 -0.0264,-0.0438 -1.09728,0.004 -2.379842,0.10614 -3.093323,0.24654 -8.540012,0.23923 -11.366806,-0.0153 -1.2531,-0.11282 -2.304285,-0.1827 -2.335975,-0.15529 -0.312262,0.27008 -4.889526,19.33489 -4.891679,20.37435 -1.34e-4,0.0649 5.797786,0.11787 12.884274,0.11787 7.418196,0 12.884513,-0.0593 12.884513,-0.13977 z m -28.454778,-1.2351 c 0.354339,-2.11689 1.077528,-5.25125 2.849808,-12.35142 0.946817,-3.79313 1.721478,-6.94671 1.721478,-7.00795 0,-0.0613 -0.760111,-0.26961 -1.689128,-0.46305 -0.929017,-0.19341 -2.349472,-0.52342 -3.156569,-0.7333 -0.807088,-0.20989 -1.554812,-0.38161 -1.661589,-0.38161 -0.185751,0 -1.521191,3.97031 -2.597396,7.72218 -1.144669,3.99053 -3.15622,12.90907 -2.956627,13.10868 0.276848,0.27685 5.402747,1.28836 6.649026,1.31209 l 0.637159,0.0121 z m 34.189948,0.98263 c 0.864212,-0.12828 2.220991,-0.38822 3.01507,-0.57762 1.39683,-0.33316 1.441471,-0.35749 1.372533,-0.74787 -0.459261,-2.60035 -1.339323,-6.71499 -2.034877,-9.51382 -0.754162,-3.03467 -3.060361,-10.81934 -3.266179,-11.02517 -0.04141,-0.0414 -0.948798,0.13686 -2.016407,0.39613 -1.067608,0.25927 -2.559805,0.59159 -3.315986,0.73848 -0.75618,0.14687 -1.374867,0.32531 -1.374867,0.39649 0,0.0712 0.712744,3.01357 1.583871,6.5386 1.745573,7.06347 2.491509,10.272 2.913886,12.53362 l 0.279443,1.49628 0.636115,-9.6e-4 c 0.349873,-5.2e-4 1.343197,-0.1059 2.207398,-0.23419 z m -43.687885,-5.67597 c 0.938044,-4.7665 2.142064,-9.29118 4.099062,-15.40415 l 1.013853,-3.16691 v -3.47956 c 0,-3.616885 0.06472,-4.03073 0.714749,-4.570207 0.238918,-0.198289 0.253509,-0.541619 0.153111,-3.602505 L 47.141907,91.587383 46.488489,90.91292 c -0.640223,-0.660842 -0.653645,-0.697329 -0.664719,-1.806974 -0.01075,-1.07804 -0.81721,-5.29641 -1.012549,-5.29641 -0.05099,0 -0.359023,1.255062 -0.684501,2.789026 -0.606093,2.856495 -1.062561,4.10875 -1.724322,4.730443 -0.344773,0.323897 -0.36295,0.413183 -0.222138,1.091211 0.08434,0.406146 0.279011,0.879865 0.432589,1.052705 0.487755,0.548935 0.504155,0.949991 0.09442,2.308744 -0.216474,0.717864 -0.756051,2.719359 -1.199057,4.447775 -0.443006,1.72841 -1.156391,4.45064 -1.5853,6.04943 -0.428907,1.59879 -0.843975,3.45215 -0.922371,4.11859 -0.0784,0.66646 -0.258612,1.38889 -0.400482,1.6054 -0.337158,0.51458 -0.210154,1.29626 0.512398,3.15376 0.434404,1.11674 0.567232,1.7139 0.631575,2.83941 l 0.08148,1.42527 -0.5099,0.58075 c -0.280444,0.3194 -0.589924,0.57118 -0.687731,0.55949 -0.411963,-0.0493 -0.570652,0.032 -0.570652,0.29223 0,0.1644 -0.397554,0.54066 -0.98205,0.92945 -2.017491,1.34201 -2.632964,1.46154 -4.090148,0.79442 -1.988383,-0.91031 -4.062661,-2.73792 -4.773579,-4.20589 -0.948259,-1.95806 -1.158088,-2.54199 -1.381191,-3.84365 -0.317163,-1.85043 -0.324996,-5.2357 -0.01384,-5.98041 0.185741,-0.44454 0.247847,-2.01048 0.32541,-8.2049 0.07684,-6.13674 0.15599,-8.152485 0.398961,-10.160556 0.166707,-1.377777 0.303101,-2.595124 0.303101,-2.705218 0,-0.110093 0.318186,-0.558428 0.707078,-0.9963 0.388892,-0.437871 0.707077,-0.841194 0.707077,-0.896274 0,-0.05508 0.318773,-1.908795 0.708383,-4.11937 0.38961,-2.210575 0.732331,-4.173022 0.7616,-4.36099 0.03566,-0.228949 -0.08802,-0.446189 -0.374661,-0.658109 -0.652422,-0.482356 -0.680577,-0.937731 -0.216518,-3.501983 0.23294,-1.287162 0.387362,-2.376458 0.343159,-2.42066 -0.0442,-0.0442 -0.42561,-0.0027 -0.847574,0.09204 -1.10831,0.249059 -1.888266,0.22628 -2.337817,-0.06828 -0.499548,-0.327317 -0.512721,-0.93479 -0.0758,-3.495378 0.77776,-4.558031 2.173742,-7.76561 4.438724,-10.198952 2.25205,-2.419448 4.34527,-3.326157 10.698259,-4.634104 3.332063,-0.686003 3.654113,-0.715698 4.396745,-0.405407 0.393947,0.164602 0.652593,0.477675 1.103418,1.335591 0.323864,0.616325 0.677649,1.120591 0.786168,1.120591 0.12016,0 0.561668,-1.211037 1.128961,-3.09666 0.979541,-3.255918 1.350065,-3.974111 2.050306,-3.974111 0.209186,0 0.990484,0.329899 1.736209,0.733105 0.745725,0.403207 1.32839,0.665818 1.294815,0.58358 C 54.441849,47.509787 52.938376,43.29918 52.753323,42.636627 52.554288,41.924008 52.428121,41.736026 52.054134,41.594863 51.803158,41.50013 51.484947,41.204369 51.347005,40.937619 51.060379,40.38335 50.513652,36.978171 50.36579,34.82634 l -0.09977,-1.451908 0.554992,-0.52343 c 0.406069,-0.382974 0.584731,-0.710151 0.665798,-1.21927 0.760312,-4.774836 3.339219,-8.715107 7.242327,-11.065438 0.5022,-0.302413 1.660059,-0.83952 2.572996,-1.193572 0.912946,-0.354052 1.739547,-0.725487 1.836884,-0.825411 0.09734,-0.09992 0.587542,-1.24075 1.089332,-2.535175 0.978727,-2.524737 1.349558,-3.067425 2.096038,-3.067425 0.899996,0 1.295255,0.656231 2.697289,4.478153 0.190216,0.518523 0.408986,1.022931 0.48615,1.120905 0.07719,0.09798 0.792519,0.403965 1.589668,0.679981 2.211913,0.765884 3.865735,1.764841 5.580747,3.370937 2.273877,2.129472 4.089833,5.76408 4.527199,9.061111 0.07413,0.558774 0.199897,0.827002 0.471123,1.004716 0.203503,0.133341 0.479492,0.454165 0.613311,0.712943 0.267573,0.517411 0.217412,1.177349 -0.396914,5.222653 -0.315466,2.077235 -0.549568,2.656661 -1.214065,3.004826 -0.316823,0.166002 -0.548018,0.681235 -1.28369,2.860813 -0.493496,1.46209 -1.047933,2.994208 -1.232076,3.404706 -0.184143,0.410497 -0.313227,0.746359 -0.286836,0.746359 0.0264,0 0.570382,-0.288832 1.208908,-0.641847 2.390078,-1.3214 2.544865,-1.202865 3.813222,2.920207 0.505118,1.641988 1.007396,3.079848 1.116163,3.195242 0.161817,0.171669 0.310195,2.9e-4 0.816193,-0.942768 0.541505,-1.009232 0.698846,-1.180766 1.265105,-1.379224 0.603268,-0.211431 0.82419,-0.191393 3.290781,0.298473 6.809837,1.352437 8.981365,2.205025 11.309005,4.440119 1.90223,1.826613 3.23659,4.248175 4.13731,7.508363 0.38062,1.377642 0.94644,4.68879 0.94649,5.538768 5e-5,1.136596 -0.79656,1.447965 -2.67428,1.04527 -0.44231,-0.09486 -0.83482,-0.141863 -0.87224,-0.10445 -0.0374,0.03741 0.10822,1.016548 0.32361,2.175858 0.52632,2.832727 0.51797,3.054295 -0.13835,3.673277 l -0.53296,0.50265 0.43916,2.501339 c 1.24045,7.065258 1.05794,6.348661 1.81768,7.136622 l 0.68172,0.707076 0.31425,2.67118 c 0.25688,2.183675 0.33048,4.086322 0.40322,10.425171 0.0772,6.72722 0.12273,7.81925 0.34381,8.24678 0.21704,0.41973 0.23927,0.84262 0.14987,2.85216 -0.13607,3.05888 -0.44504,4.78465 -1.02721,5.73764 -0.0792,0.12962 -0.33818,0.65993 -0.57554,1.17847 -0.61675,1.34733 -2.42888,3.10588 -4.07367,3.95325 -1.765724,0.90968 -2.002869,0.93661 -3.207532,0.36423 -1.381455,-0.65636 -2.52764,-1.52066 -2.52764,-1.90598 0,-0.2311 -0.07474,-0.28775 -0.28958,-0.21955 -0.443361,0.14071 -1.093023,-0.46992 -1.293996,-1.21629 -0.244072,-0.90639 -0.0579,-2.30411 0.496196,-3.72541 0.252694,-0.64816 0.543843,-1.5835 0.647019,-2.07854 0.162919,-0.78175 0.152118,-0.97441 -0.08222,-1.46564 -0.148328,-0.31106 -0.341785,-1.08389 -0.429897,-1.71739 -0.08811,-0.63352 -0.514167,-2.48409 -0.946769,-4.11242 -1.940433,-7.303614 -2.971809,-11.426719 -2.971809,-11.880408 0,-0.270037 0.168418,-0.742254 0.374264,-1.049371 0.644715,-0.961927 0.642955,-1.460989 -0.0077,-2.239321 -0.750987,-0.898072 -0.742139,-0.872662 -1.461263,-4.194363 -0.344114,-1.589419 -0.658116,-2.922325 -0.697802,-2.962015 -0.218407,-0.218402 -1.046193,4.169075 -0.997811,5.288616 0.04027,0.933024 0.03233,0.952501 -0.697019,1.696327 L 85.52721,91.58738 85.416309,94.9302 c -0.106787,3.219107 -0.09911,3.355767 0.207502,3.692515 0.63713,0.699754 0.671919,0.937807 0.671919,4.598085 v 3.56198 l 0.931589,2.85133 c 1.872362,5.7308 2.911485,9.67059 4.168864,15.80608 0.397557,1.93987 0.741532,3.54577 0.764418,3.56865 0.02284,0.0228 0.794104,-0.26508 1.713818,-0.6399 4.486562,-1.82845 8.869181,-4.87675 11.844881,-8.23866 3.99349,-4.51178 6.9445,-10.9072 8.06313,-17.47437 0.61444,-3.607182 0.66644,-6.237456 0.59941,-30.316737 -0.0566,-20.359233 -0.0943,-23.24285 -0.32574,-24.953974 -0.52021,-3.846333 -1.4212,-7.250668 -3.04356,-11.49977 C 106.67799,24.532635 98.546079,15.181984 88.475625,9.9707507 83.828313,7.5658738 79.312516,6.0749612 74.118361,5.2306306 71.553382,4.8136832 63.895382,4.6303802 61.131499,4.9197755 47.680669,6.3281591 36.186594,13.031437 27.972444,24.257941 c -4.924382,6.730289 -8.350635,15.488668 -9.317702,23.818435 -0.198608,1.710689 -0.2386,5.80223 -0.254819,26.069772 -0.01956,24.443135 0.0047,25.661217 0.575777,28.942682 1.578288,9.06851 6.803471,17.36321 13.994664,22.21577 1.563006,1.05471 4.181261,2.42502 6.013903,3.14752 l 1.50866,0.59475 0.109548,-0.50287 c 0.06025,-0.27658 0.361682,-1.78406 0.669846,-3.34995 z m 1.459684,-95.056404 c -0.06482,-0.06508 -0.117902,-0.300994 -0.11797,-0.524247 -2.29e-4,-0.749886 -0.852947,-2.260249 -1.712299,-3.032879 -0.816174,-0.733811 -2.155461,-1.364198 -2.968035,-1.397021 -0.297239,-0.012 -0.214403,-0.05873 0.27375,-0.154424 2.381424,-0.466821 4.371766,-2.67331 4.421473,-4.901639 0.01346,-0.60386 0.03326,-0.568922 0.225729,0.398427 0.267111,1.342533 0.892634,2.496418 1.773765,3.272021 0.739352,0.650804 2.081561,1.234941 2.901889,1.262918 0.445679,0.0152 0.422827,0.03328 -0.195183,0.154426 -2.253618,0.441766 -4.077909,2.23988 -4.380036,4.317187 -0.05788,0.39796 -0.158267,0.670314 -0.223083,0.605231 z m -7.777846,83.997724 0.903487,-0.17949 v -0.93657 c 0,-0.61595 -0.06724,-0.95486 -0.19641,-0.99006 -0.108026,-0.0294 -1.11561,-0.17505 -2.239077,-0.32363 -1.123467,-0.14858 -2.484589,-0.36113 -3.024718,-0.47234 l -0.982051,-0.20219 0.0048,0.57006 c 0.0051,0.59763 0.245937,2.64499 0.390874,3.32265 l 0.08464,0.39568 2.077463,-0.50231 c 1.142604,-0.27627 2.484032,-0.58307 2.980949,-0.6818 z m 68.130607,-0.19567 c 0.37937,-2.96349 0.3798,-2.981 0.0702,-2.88727 -0.43526,0.13177 -3.780684,0.69038 -4.858864,0.81132 -0.529547,0.0594 -1.03147,0.15286 -1.115393,0.20771 -0.158096,0.10337 -0.422212,1.90669 -0.279253,1.90669 0.229386,0 4.49938,0.95825 5.10721,1.14613 0.38889,0.12021 0.75276,0.1947 0.80858,0.16556 0.0559,-0.0292 0.17623,-0.63672 0.26755,-1.35014 z m -66.352727,-6.80662 c 0.586497,-1.97893 1.48253,-5.50438 1.48253,-5.83303 0,-0.10687 -0.300508,-0.27024 -0.667795,-0.36306 -2.301808,-0.58172 -5.280513,-1.873159 -6.771903,-2.936015 -0.418964,-0.298582 -0.788816,-0.515812 -0.821894,-0.482735 -0.03308,0.0331 -0.07918,2.455189 -0.10245,5.38247 l -0.04232,5.32233 1.17846,0.21915 c 2.277598,0.42354 4.950793,0.77841 5.069527,0.67298 0.066,-0.0586 0.37012,-0.95053 0.675842,-1.98209 z m 63.466737,1.57257 c 1.38114,-0.22581 2.57595,-0.45059 2.65513,-0.49952 0.14352,-0.0886 0.0463,-10.51579 -0.0995,-10.661509 -0.0403,-0.04036 -0.45442,0.18642 -0.92023,0.503866 -1.48505,1.012015 -4.620066,2.363673 -6.699976,2.888703 -0.510998,0.12899 -0.6678,0.24346 -0.6678,0.48757 0,0.46137 0.698465,3.17969 1.461051,5.68627 l 0.659505,2.16775 0.550295,-0.0813 c 0.302656,-0.0447 1.680311,-0.26605 3.061465,-0.49184 z m -30.279248,-2.50534 0.04361,-2.04268 -3.657575,0.0279 c -2.011662,0.0154 -3.639887,0.0684 -3.618289,0.11786 0.02161,0.0494 0.03932,0.93387 0.03932,1.96545 v 1.87559 l 0.510666,0.065 c 0.280868,0.0358 1.889465,0.0579 3.574671,0.0493 l 3.063995,-0.0157 z m -10.178396,-0.22857 v -2.03555 l -0.510667,-0.0842 c -0.280867,-0.0463 -1.111676,-0.15987 -1.846258,-0.25235 -1.541371,-0.19404 -4.98978,-0.93104 -6.874357,-1.46919 l -1.296307,-0.37016 0.01377,1.35581 c 0.0077,0.7457 0.06065,1.7068 0.117845,2.13579 l 0.104081,0.77998 1.257033,0.36637 c 2.89113,0.84263 6.608488,1.56431 8.20995,1.59385 l 0.824916,0.0153 z m 15.948518,1.80622 c 1.818853,-0.25878 3.746532,-0.67825 5.970871,-1.29927 l 1.571273,-0.43867 0.100798,-0.9412 c 0.157474,-1.47053 0.150099,-3.21954 -0.01358,-3.21954 -0.08169,0 -1.372085,0.31217 -2.86759,0.69373 -1.495506,0.38154 -3.638309,0.81154 -4.761771,0.95554 -1.123471,0.144 -2.197833,0.29178 -2.387486,0.32841 -0.330846,0.0639 -0.346753,0.1493 -0.39282,2.10875 l -0.04801,2.04212 0.628511,-0.003 c 0.345683,-0.002 1.335593,-0.1038 2.199804,-0.22672 z m -4.870978,-6.68215 c 1.38273,-0.0847 2.840615,-0.19579 3.239759,-0.24704 l 0.725705,-0.0932 0.110326,-1.441528 c 0.06065,-0.792845 0.265277,-2.838006 0.454652,-4.544817 0.189365,-1.706806 0.316049,-3.103283 0.281508,-3.103283 -0.03453,0 -1.732373,0.770737 -3.772961,1.712749 -3.734384,1.723926 -4.958434,2.215455 -5.517138,2.215455 -0.576743,0 -1.822345,-0.514422 -5.559981,-2.296213 -2.064147,-0.984015 -3.772186,-1.78912 -3.79565,-1.78912 -0.02343,0 -0.01473,0.123739 0.01932,0.274975 0.03406,0.151236 0.239908,2.007313 0.457358,4.124616 0.549587,5.351426 0.404261,4.830796 1.381162,4.947946 3.10657,0.37254 8.152452,0.47343 11.975909,0.23945 z M 55.29661,99.640201 c -0.04811,-0.367281 -0.245935,-2.152656 -0.439643,-3.967487 -0.193709,-1.814829 -0.375996,-3.329058 -0.405094,-3.364952 -0.02908,-0.0359 -0.541074,0.406028 -1.137723,0.982051 -1.186621,1.145588 -1.421517,1.218167 -2.37241,0.733057 -0.338796,-0.17284 -0.654166,-0.314256 -0.700816,-0.314256 -0.117224,0 -0.106807,3.200438 0.01416,4.358047 l 0.09901,0.947325 1.354417,0.40691 c 1.803271,0.541763 3.017527,0.855404 3.379164,0.872824 0.258973,0.0124 0.285307,-0.0699 0.208899,-0.653519 z m 25.094745,-0.05845 c 1.035259,-0.297981 1.913186,-0.572679 1.95095,-0.610452 0.116344,-0.116334 0.233089,-5.262676 0.119386,-5.262676 -0.05873,0 -0.384031,0.141417 -0.722827,0.314258 -0.950892,0.485109 -1.185788,0.41253 -2.3724,-0.733058 -0.596658,-0.576022 -1.111131,-1.017945 -1.143261,-0.98205 -0.03214,0.03589 -0.21084,1.585476 -0.397126,3.44352 -0.186276,1.858033 -0.379812,3.652733 -0.430058,3.988219 l -0.09134,0.609968 0.602216,-0.11297 c 0.33121,-0.0622 1.449238,-0.356779 2.484488,-0.654759 z M 39.473084,97.001424 c 0.193121,-0.781576 0.314649,-1.457531 0.270065,-1.502119 -0.04458,-0.0446 -0.764373,-0.250263 -1.599527,-0.457066 -2.50162,-0.619448 -3.001801,-0.92193 -5.362875,-3.243155 -1.159167,-1.139603 -2.138938,-2.040642 -2.177271,-2.002309 -0.100292,0.100292 -0.402661,2.611851 -0.402661,3.344568 0,0.567178 0.103924,0.719912 1.232268,1.811096 1.8924,1.830072 3.303208,2.555356 6.152757,3.163082 0.734575,0.156671 1.380708,0.28982 1.435852,0.295904 0.05514,0.0058 0.25827,-0.628425 0.451392,-1.410001 z m 56.32876,0.928681 c 1.54931,-0.380366 2.966632,-1.026497 4.225716,-1.92642 0.98946,-0.707199 2.60938,-2.314174 2.60938,-2.588533 0,-0.194608 -0.28879,-2.435008 -0.40447,-3.137775 l -0.0863,-0.524384 -2.11662,2.067279 c -2.377202,2.321784 -2.83788,2.594569 -5.449621,3.226966 -0.863889,0.209185 -1.593072,0.402687 -1.62039,0.430011 -0.04443,0.04442 0.472879,2.250712 0.645366,2.752683 0.07422,0.215996 0.123157,0.209318 2.196962,-0.299827 z M 69.835509,91.451706 c 1.750509,-0.809197 3.889822,-1.801924 4.754023,-2.206062 l 1.571283,-0.734794 0.502535,-2.542101 c 0.276401,-1.398156 0.486839,-2.557808 0.467641,-2.577005 -0.05921,-0.05925 -5.740833,1.299396 -8.318297,1.989156 l -2.441893,0.653481 -1.940066,-0.553009 c -2.953008,-0.841743 -8.325537,-2.14322 -8.84728,-2.14322 -0.133781,0 -0.08638,0.458448 0.166428,1.610564 0.194388,0.885811 0.436162,2.02525 0.537277,2.53209 l 0.183837,0.921526 2.459886,1.182822 c 3.956501,1.90246 7.152613,3.334059 7.44781,3.336009 0.15074,0.0011 1.706308,-0.660261 3.456816,-1.469457 z M 53.252042,85.778854 52.579406,82.798631 51.685351,82.619534 C 50.851826,82.452561 50.667864,82.324569 48.967832,80.728781 46.757868,78.65434 46.38502,78.356025 46.38502,78.662284 c 0,1.276698 2.091009,10.109266 2.49064,10.520632 0.142504,0.146692 0.78941,0.651333 1.437569,1.121425 l 1.178462,0.854711 1.216494,-1.199989 1.216484,-1.199989 z m 30.80669,3.288096 c 0.02277,-0.01335 0.396112,-1.422753 0.829519,-3.132028 0.734552,-2.896908 1.611581,-7.314253 1.478776,-7.448182 -0.0617,-0.06225 -0.720252,0.503176 -3.021889,2.594701 -1.250844,1.136655 -1.493191,1.290511 -2.182012,1.385248 -0.426185,0.05862 -0.862624,0.160805 -0.96988,0.22709 -0.107247,0.06629 -0.473552,1.458066 -0.814003,3.09285 l -0.619013,2.972333 1.194437,1.201487 1.194446,1.201486 1.434048,-1.035364 c 0.788741,-0.56945 1.452739,-1.046279 1.475571,-1.059621 z M 40.575853,88.562665 c 0.58348,-1.544079 1.059124,-3.659183 1.55142,-6.898881 0.569018,-3.744574 0.991863,-7.14338 0.90012,-7.235121 -0.03668,-0.03668 -0.645677,0.224441 -1.353345,0.580248 -1.28021,0.643677 -1.303497,0.648599 -4.638551,0.980245 l -3.351882,0.333319 -0.4843,2.525787 c -0.612596,3.194886 -1.27009,6.994027 -1.27009,7.338848 0,0.180783 0.384739,0.426276 1.217743,0.777014 1.106198,0.465769 6.726791,2.473443 6.980917,2.493582 0.05861,0.0046 0.260191,-0.398123 0.447968,-0.895041 z m 56.325898,-0.595027 c 3.290949,-1.226272 3.850179,-1.459826 3.847619,-1.606876 -0.004,-0.250962 -1.088097,-6.506713 -1.424174,-8.221176 l -0.35683,-1.820309 -3.364254,-0.326997 c -3.316323,-0.322339 -3.383107,-0.336039 -4.686547,-0.961476 -0.727263,-0.348963 -1.322286,-0.609375 -1.322286,-0.578695 0,0.299122 1.174292,8.301453 1.411484,9.618718 0.3389,1.882086 0.97595,4.223314 1.341536,4.930283 l 0.231819,0.448282 0.825212,-0.243211 c 0.453877,-0.133766 2.027264,-0.69111 3.496421,-1.238543 z m -31.980446,-6.868563 -0.0047,-1.453436 -1.42695,-1.649845 c -3.660913,-4.232763 -3.905728,-4.552622 -3.905728,-5.103091 0,-0.438319 0.427398,-1.078244 2.590166,-3.878205 l 2.590166,-3.35327 0.0028,-1.279214 0.0028,-1.279214 -1.689128,-0.589117 c -1.311917,-0.45756 -4.928475,-1.829428 -6.266019,-2.376892 -0.09752,-0.03992 -1.860827,2.035249 -3.918459,4.611473 -2.057634,2.576222 -4.159029,5.121498 -4.669762,5.656166 l -0.928609,0.972123 0.184826,2.013313 0.184822,2.013312 1.940122,1.951676 1.940123,1.951677 6.336067,1.598366 c 3.484842,0.879101 6.495158,1.609446 6.689603,1.62299 0.343252,0.02392 0.353401,-0.01769 0.348696,-1.428812 z m 9.668227,-0.14055 6.442261,-1.599011 2.002757,-1.978168 2.002749,-1.978168 0.181788,-2.003267 0.181791,-2.003267 -0.857659,-0.903604 c -0.471707,-0.496983 -1.415282,-1.610683 -2.096823,-2.474889 -0.681552,-0.864204 -2.367848,-2.985434 -3.747336,-4.713844 -1.379488,-1.728411 -2.520942,-3.160362 -2.536562,-3.182115 -0.01559,-0.02175 -1.295131,0.446759 -2.843351,1.041136 -1.548221,0.594376 -3.433639,1.280793 -4.189819,1.525372 l -1.374868,0.444688 v 1.194363 1.194363 l 2.66973,3.447814 c 2.158798,2.787959 2.670018,3.542846 2.671185,3.94437 0.0019,0.570252 -0.234362,0.884859 -3.281675,4.374418 l -2.058226,2.356923 -5.08e-4,1.453436 c -3.72e-4,1.056932 0.05309,1.454122 0.195899,1.455949 0.108031,0.0014 3.095427,-0.717042 6.638667,-1.596499 z m -6.586536,-6.037759 c 0.857134,-0.999901 1.558437,-1.913048 1.558437,-2.029217 0,-0.116167 -0.729254,-1.174144 -1.620564,-2.351056 l -1.620553,-2.139842 -1.639857,2.155824 c -0.901918,1.185703 -1.639847,2.217657 -1.639847,2.293234 0,0.156438 3.172438,3.876115 3.312532,3.883948 0.05031,0.0027 0.79271,-0.81299 1.649852,-1.812891 z m -31.372,-1.729783 c 2.523097,-0.226647 2.85867,-0.293119 3.882303,-0.769018 1.577981,-0.733622 3.809367,-2.272654 5.172813,-3.567794 1.031239,-0.979575 8.211573,-9.965532 8.064027,-10.091872 -0.16526,-0.141512 -3.827311,-1.955045 -3.867217,-1.915139 -0.02573,0.02569 0.06016,0.251664 0.190828,0.502178 0.535842,1.027483 0.37809,1.43864 -1.452432,3.785668 -0.930548,1.193116 -2.37598,3.06111 -3.212075,4.151101 -0.836095,1.089991 -1.724243,2.153514 -1.973661,2.363387 -0.36977,0.311141 -1.031365,0.492083 -3.583719,0.980127 -1.721625,0.329199 -3.837304,0.750536 -4.70151,0.936305 l -1.571281,0.337764 -0.266989,1.492719 c -0.146844,0.820993 -0.270582,1.616456 -0.274975,1.767692 -0.01,0.342863 0.06968,0.343459 3.593888,0.02689 z m 63.020487,0.0053 c 0,-0.133536 -0.11577,-0.93988 -0.257267,-1.791875 l -0.25727,-1.549118 -4.782311,-0.943897 c -3.430192,-0.677028 -4.873433,-1.025592 -5.104618,-1.232844 -0.177285,-0.15892 -1.798403,-2.185271 -3.602488,-4.503004 -3.013605,-3.871623 -3.280144,-4.26488 -3.280144,-4.839495 0,-0.343991 0.10787,-0.834049 0.239718,-1.089019 0.131849,-0.25497 0.201476,-0.463581 0.154719,-0.463581 -0.204602,0 -3.850918,1.89965 -3.847751,2.004596 0.0028,0.107155 5.453355,7.09732 6.951521,8.915813 1.300707,1.578798 3.588942,3.352392 5.860206,4.542197 0.970255,0.508269 1.3462,0.606702 3.062419,0.801827 3.903463,0.443802 4.863266,0.473083 4.863266,0.148363 z M 35.293787,66.536451 c 2.859408,-0.598885 5.458933,-1.136095 5.776721,-1.193803 0.528964,-0.09606 0.796112,-0.386491 3.160909,-3.436442 1.420711,-1.832338 2.67352,-3.476285 2.784017,-3.653221 0.17678,-0.283069 0.09957,-0.515486 -0.643019,-1.935466 -0.464157,-0.88757 -0.942525,-1.651603 -1.063039,-1.697847 -0.308352,-0.118326 -3.01897,0.371719 -5.512514,0.996594 -5.593616,1.401742 -8.033179,3.902528 -9.365488,9.600521 -0.560546,2.397334 -0.562611,2.408545 -0.443659,2.408545 0.05893,0 2.446661,-0.489996 5.306072,-1.088881 z m 67.390723,0.49965 c -0.0495,-0.324077 -0.24983,-1.230808 -0.44542,-2.014956 -1.14388,-4.585782 -3.285394,-7.272388 -6.873386,-8.622908 -1.631286,-0.614011 -6.762008,-1.814547 -7.754826,-1.814547 -0.313591,0 -0.502411,0.264216 -1.240293,1.735521 -0.479186,0.955459 -0.820077,1.820605 -0.758447,1.924821 0.197228,0.333478 4.675319,6.123164 5.083033,6.571813 0.364861,0.401484 0.795493,0.515982 6.049441,1.60847 3.111141,0.64692 5.740568,1.181797 5.843168,1.188617 0.12774,0.0085 0.15822,-0.173322 0.0967,-0.576831 z M 69.404303,59.474092 c 2.635505,-0.795324 4.917255,-1.765814 5.016018,-2.133445 0.117023,-0.435627 0.114459,-3.385469 -0.0028,-3.385469 -0.05146,0 -0.28127,0.132459 -0.510667,0.294354 -1.578303,1.113903 -5.155088,2.382017 -7.01646,2.487621 -2.059422,0.116841 -5.440749,-0.913928 -7.621316,-2.323295 -0.524019,-0.338694 -0.985739,-0.615808 -1.026038,-0.615808 -0.105927,0 -0.08743,2.137386 0.02669,3.0873 0.109933,0.914959 -0.08141,0.789661 2.885515,1.88975 3.870796,1.43524 5.384466,1.5635 8.249234,0.698992 z M 55.325669,54.544408 c -0.0086,-0.88581 -0.0617,-1.766292 -0.117855,-1.956628 -0.1098,-0.371885 -2.236247,-1.834723 -2.3975,-1.649312 -0.231807,0.266525 -0.971381,3.348164 -0.835831,3.48268 0.179762,0.178383 3.086082,1.72664 3.249,1.730808 0.06486,0.0016 0.110795,-0.721737 0.102187,-1.607548 z m 23.716165,0.825113 c 0.835219,-0.431996 1.612587,-0.846221 1.727505,-0.920499 0.168446,-0.108881 0.11115,-0.466655 -0.295694,-1.846447 -0.277539,-0.941268 -0.528706,-1.738915 -0.558149,-1.772549 -0.02947,-0.03363 -0.577709,0.281857 -1.218368,0.701092 -1.148992,0.751875 -1.166132,0.773016 -1.259978,1.55387 -0.121977,1.014943 -0.125919,3.069984 -0.0058,3.069984 0.0506,0 0.775358,-0.353452 1.610568,-0.785451 z M 67.822058,52.46246 c 0.673622,-5.434617 1.416955,-10.624372 1.576725,-11.008198 0.146944,-0.35302 0.747782,-0.842788 2.263299,-1.844911 l 2.063249,-1.364306 v -0.708421 c 0,-0.459406 -0.06858,-0.708421 -0.195086,-0.708421 -0.107285,0 -1.76126,0.53743 -3.675481,1.19429 l -3.480404,1.194291 -3.485723,-1.194291 c -1.917157,-0.65686 -3.551093,-1.19429 -3.630982,-1.19429 -0.07987,0 -0.145251,0.343633 -0.145251,0.763631 v 0.763631 l 1.975276,1.308447 c 1.094249,0.724844 2.068003,1.488059 2.18316,1.711138 0.114335,0.221481 0.538272,2.944885 0.942092,6.052009 0.403812,3.107127 0.758285,5.687957 0.787718,5.735181 0.02947,0.04723 0.654376,0.08586 1.388766,0.08586 h 1.335257 z M 61.94071,51.866245 c 0,-0.02544 -0.2467,-1.95223 -0.548229,-4.281744 -0.301529,-2.329513 -0.549004,-4.31965 -0.549952,-4.422527 -9.46e-4,-0.102872 -0.92627,-0.838296 -2.056284,-1.634262 -1.130014,-0.795968 -2.172953,-1.628572 -2.317639,-1.850232 -0.21965,-0.336499 -0.255663,-0.754018 -0.218167,-2.529635 0.02468,-1.169639 0.112775,-2.380542 0.195745,-2.690895 0.198032,-0.740813 0.669538,-1.151505 1.298623,-1.131146 0.276869,0.0089 2.322948,0.615789 4.546837,1.348506 l 4.04345,1.332214 4.048654,-1.315378 c 2.226759,-0.723458 4.301485,-1.316365 4.610495,-1.31757 0.968359,-0.0037 1.261996,0.483632 1.43864,2.38804 0.195812,2.111033 0.09365,3.805053 -0.252593,4.187626 -0.14481,0.160017 -1.144725,0.884367 -2.222043,1.609668 -1.123872,0.75665 -1.993918,1.452674 -2.041277,1.632985 -0.108949,0.414894 -1.130683,8.626503 -1.081918,8.695412 0.05146,0.07271 1.870429,-1.153752 2.697604,-1.818893 0.754085,-0.606375 0.987939,-1.014655 2.025369,-3.536067 2.338874,-5.684487 3.202273,-10.188558 2.733703,-14.260862 -0.367644,-3.195212 -1.34686,-5.289957 -3.470781,-7.424763 -1.138134,-1.143966 -1.589888,-1.478077 -2.685408,-1.98612 -2.181553,-1.011685 -1.958651,-1.17395 -2.077597,1.512427 -0.157694,3.561727 -0.687644,6.625175 -1.379947,7.97702 -0.474585,0.926696 -1.371012,1.788248 -1.979398,1.902382 -0.994807,0.186628 -2.355087,-1.113672 -2.926733,-2.797684 -0.490646,-1.445361 -0.877019,-3.858181 -1.051807,-6.568289 -0.09754,-1.512358 -0.191518,-2.763978 -0.208821,-2.781377 -0.127363,-0.128042 -3.342099,1.621919 -4.059817,2.209983 -2.404914,1.970476 -3.813461,4.910673 -4.026873,8.405691 -0.202136,3.310268 0.184286,6.371985 1.233175,9.77099 0.516233,1.672885 2.340013,6.228134 2.734747,6.830579 0.344295,0.525463 3.548242,2.822539 3.548242,2.543921 z m 5.012355,-23.145524 c 0.0925,-0.755945 0.251071,-2.797805 0.352455,-4.537468 0.168359,-2.888864 0.160869,-3.224489 -0.08647,-3.872128 C 67.070107,19.921119 66.790655,19.40439 66.598047,19.16284 L 66.247859,18.723656 65.7302,19.743521 c -0.515276,1.015184 -0.517179,1.027345 -0.413711,2.649299 0.326533,5.118663 0.64197,7.970467 0.971018,8.778767 0.143509,0.352528 0.469469,-0.847804 0.665558,-2.450866 z m 53.078305,95.951239 c -0.24633,-0.29275 -0.48864,-0.91219 -0.66071,-1.68912 -0.547,-2.46973 -1.14495,-3.56029 -2.2584,-4.11895 -0.59111,-0.29657 -2.11028,-0.81109 -3.298,-1.11698 -1.31935,-0.3398 -1.85566,-1.43359 -1.06645,-2.17502 0.21405,-0.20109 0.95613,-0.50419 1.76769,-0.72201 2.42651,-0.65127 3.5584,-1.29663 4.09539,-2.33507 0.13741,-0.26574 0.45166,-1.29918 0.69831,-2.29654 0.24664,-0.99736 0.58059,-1.99123 0.74209,-2.20859 0.40673,-0.5474 1.19529,-0.61181 1.69884,-0.13875 0.37532,0.35259 0.48658,0.66269 1.16973,3.26004 0.55605,2.11415 1.35553,2.77072 4.31862,3.54664 1.23719,0.32398 1.64978,0.50588 1.99241,0.87838 0.92406,1.00465 0.37515,1.70213 -1.84626,2.34596 -3.51155,1.01775 -3.92119,1.42363 -4.79387,4.74989 -0.51656,1.96887 -0.86034,2.48242 -1.6618,2.48242 -0.36999,0 -0.61462,-0.12599 -0.89759,-0.4623 z m 1.70424,-6.51279 c 0.26343,-0.35451 0.84418,-0.89972 1.29057,-1.21157 l 0.81162,-0.56702 -0.75998,-0.49244 c -0.7711,-0.49965 -1.42721,-1.23352 -1.76435,-1.97347 -0.23996,-0.52668 -0.32124,-0.51428 -0.67309,0.10274 -0.43893,0.76976 -1.35124,1.67698 -2.04758,2.03619 l -0.62117,0.32042 0.60086,0.30826 c 0.75688,0.38831 1.86623,1.5199 2.14149,2.18445 0.18876,0.45572 0.2269,0.47822 0.37636,0.22204 0.0915,-0.1568 0.38184,-0.57512 0.64527,-0.92964 z m -105.754899,3.2161 c -0.757027,-0.21837 -1.178461,-0.75715 -1.178461,-1.50656 0,-0.59382 0.784581,-1.33384 1.414154,-1.33384 1.070375,0 1.799196,1.42303 1.180918,2.30575 -0.277767,0.39656 -0.978514,0.66104 -1.416611,0.53465 z M 8.0062512,101.86946 C 7.7724898,100.25118 6.839283,98.933407 5.471837,98.290633 5.0745343,98.10388 4.5188982,97.946596 4.2370887,97.941125 3.8085267,97.932525 3.8979622,97.873215 4.78382,97.576991 5.3663308,97.382202 6.1013031,97.013706 6.4170931,96.75812 c 0.7531506,-0.609582 1.4296667,-1.830012 1.6068237,-2.898709 0.1021975,-0.616522 0.1473779,-0.715863 0.1605789,-0.353103 0.028613,0.786036 0.5948424,2.127614 1.1928989,2.826306 0.5748107,0.671536 1.2785984,1.07397 2.4394204,1.394888 0.622017,0.171957 0.65037,0.197343 0.235691,0.21106 -0.748554,0.02477 -1.989943,0.69036 -2.6471664,1.419366 -0.6876042,0.762702 -1.0351293,1.499642 -1.1890266,2.521352 l -0.1065042,0.70708 z M 122.04227,86.652377 c -1.02671,-0.439656 -1.23313,-1.666414 -0.40489,-2.406433 0.65616,-0.586274 1.30836,-0.578456 1.90971,0.02289 0.5796,0.579602 0.62263,1.380235 0.10574,1.967596 -0.38627,0.438959 -1.11644,0.627534 -1.61056,0.415948 z M 22.851967,22.442913 c -0.507479,-0.355452 -0.64886,-0.693146 -1.231553,-2.941622 -0.615889,-2.376572 -0.993833,-3.133168 -1.91603,-3.835657 -0.618931,-0.471471 -2.350401,-1.110632 -4.409529,-1.627748 -0.898581,-0.225663 -1.436863,-0.767405 -1.430376,-1.439567 0.0091,-0.938024 0.344917,-1.171353 2.688133,-1.867468 3.575137,-1.0620918 4.122746,-1.638729 5.085965,-5.3555645 0.650308,-2.5093893 0.934911,-2.9435974 1.935658,-2.9531637 0.930999,-0.0089 1.312416,0.5720593 1.888799,2.8769498 0.968056,3.8711486 1.628027,4.5438077 5.48758,5.5930874 0.887702,0.241337 1.747512,0.559617 1.910688,0.707289 0.629526,0.569712 0.527214,1.573923 -0.209536,2.056659 -0.215261,0.141045 -0.998701,0.423535 -1.740979,0.627756 -1.551581,0.426883 -2.904147,1.013469 -3.651787,1.583723 -0.7191,0.548484 -1.238027,1.6562 -1.704596,3.638676 -0.218454,0.928226 -0.473981,1.884526 -0.567838,2.125112 -0.362474,0.929141 -1.402296,1.324464 -2.134599,0.811538 z m 1.111383,-7.064271 c 0.352021,-0.738195 1.447044,-1.914376 2.27373,-2.442245 l 0.671547,-0.428807 -0.684691,-0.401256 c -0.808293,-0.47369 -1.633052,-1.350493 -2.2325,-2.373373 L 23.559607,8.9960991 23.177663,9.6740995 C 22.729888,10.46896 21.541537,11.727359 20.80706,12.184443 l -0.516013,0.321126 0.673141,0.429818 c 0.828091,0.528759 1.923049,1.704532 2.275321,2.443255 0.144649,0.30333 0.307513,0.55151 0.361921,0.55151 0.0544,0 0.217273,-0.24818 0.36192,-0.55151 z m 84.22974,0.577517 c -0.52925,-3.378645 -3.09449,-5.776642 -6.73462,-6.2955495 -0.62506,-0.089102 -0.76509,-0.1408509 -0.41551,-0.1535546 0.74121,-0.026936 2.32134,-0.4554499 3.07728,-0.8345281 2.42783,-1.2174868 3.84124,-3.2737381 4.1658,-6.0605019 0.10686,-0.9175564 0.1261,-0.9637666 0.14399,-0.3457572 0.10043,3.4690131 2.5782,6.3748733 6.07009,7.1188068 0.69148,0.1473181 0.91941,0.2390852 0.61383,0.2471393 -1.12562,0.029662 -3.07219,0.9114502 -4.19266,1.8992362 -1.38347,1.219665 -2.2476,2.856007 -2.44485,4.629648 l -0.10433,0.938025 z"
     id="path72" /><path
     style="fill:#ffffff;stroke:none;stroke-width:2.77577;stroke-dasharray:none"
     d="M 23.004985,14.861135 C 22.514571,14.104296 21.95793,13.542047 21.004258,12.840251 l -0.472317,-0.347572 0.394845,-0.268742 c 0.613051,-0.417258 2.040163,-1.948453 2.319541,-2.488711 l 0.251448,-0.4862478 0.254401,0.3580114 c 0.925679,1.3026834 1.521536,1.9641404 2.173296,2.4125624 l 0.744552,0.512266 -0.384095,0.249034 c -0.722149,0.468215 -1.717721,1.465429 -2.156636,2.160193 -0.241226,0.381839 -0.479927,0.69438 -0.530446,0.694535 -0.05052,1.56e-4 -0.317758,-0.348345 -0.593862,-0.774445 z"
     id="path73" /><path
     style="fill:#ffffff;stroke:none;stroke-width:2.77577;stroke-dasharray:none"
     d="m 38.454828,128.11501 c -3.740332,-1.6876 -6.246915,-3.28138 -8.785489,-5.58617 -5.518902,-5.01064 -9.282652,-11.98526 -10.636862,-19.7112 -0.304256,-1.73582 -0.362491,-2.861089 -0.482244,-9.318341 -0.170394,-9.187921 -0.03514,-42.366243 0.183181,-44.933363 0.697411,-8.20067 4.519425,-17.883939 9.841444,-24.933806 7.540405,-9.988474 17.465818,-16.0640252 29.862204,-18.2792727 2.378551,-0.42505 8.666663,-0.582089 12.60647,-0.3148336 9.568201,0.649056 19.083296,4.7527063 26.693937,11.5125083 8.030561,7.13277 13.976331,18.01412 15.997831,29.277586 l 0.43468,2.421943 0.0616,23.927607 c 0.0642,24.912874 0.0169,27.364755 -0.59171,30.735422 -0.80291,4.44647 -2.5792,9.13764 -4.89755,12.93444 -2.32078,3.80078 -5.92204,7.38108 -9.91577,9.85807 -1.961338,1.21646 -6.414339,3.33626 -6.593271,3.13864 -0.02281,-0.0252 -0.340183,-1.46724 -0.705274,-3.20456 -1.35864,-6.4652 -2.229469,-9.77716 -4.195693,-15.95716 l -1.019191,-3.20341 -0.0011,-3.4496 c -7.93e-4,-2.88846 -0.04285,-3.526672 -0.25845,-3.923412 -0.657707,-1.210318 -0.653434,-1.177845 -0.569473,-4.325583 l 0.08167,-3.062081 0.744101,-0.821661 0.744101,-0.821664 0.09233,-1.565118 c 0.09047,-1.533637 0.513353,-3.978405 0.72794,-4.208365 0.05966,-0.06393 0.402903,1.198943 0.762768,2.806393 0.564041,2.519466 0.72866,3.025706 1.193342,3.669842 0.801494,1.11102 0.812871,1.218732 0.250603,2.37289 l -0.502415,1.031298 1.05314,4.199342 c 0.579228,2.309639 1.471295,5.869539 1.982372,7.910889 0.511077,2.04135 1.054563,4.20905 1.207746,4.81711 0.392496,1.55801 0.348808,2.31726 -0.229838,3.99435 -0.632391,1.83286 -0.828884,3.0049 -0.657537,3.92208 0.153879,0.82368 0.697092,1.48088 1.224036,1.48088 0.209098,0 0.367313,0.095 0.367313,0.22055 0,0.61943 2.838628,2.30646 3.880909,2.30646 0.361944,0 1.04508,-0.24337 1.859711,-0.66253 1.82783,-0.94048 3.61394,-2.73232 4.51755,-4.53204 0.81847,-1.63015 1.0577,-2.72397 1.27872,-5.84671 0.14738,-2.08236 0.13647,-2.58392 -0.0756,-3.47464 -0.19502,-0.81902 -0.27959,-2.70793 -0.39662,-8.858908 -0.10276,-5.400588 -0.23141,-8.550458 -0.41607,-10.187001 l -0.26732,-2.369069 -0.65962,-0.711613 c -0.74932,-0.808384 -0.71297,-0.676717 -1.65655,-6.000753 l -0.60181,-3.395667 0.45144,-0.516195 c 0.24829,-0.283908 0.4935,-0.683744 0.54489,-0.888526 0.0766,-0.305215 -0.33479,-3.265181 -0.64264,-4.623739 -0.0763,-0.336889 -0.0529,-0.341313 1.3831,-0.261099 1.94919,0.108876 2.1037,-0.0019 2.06216,-1.477124 -0.0401,-1.424332 -0.72058,-4.855663 -1.30698,-6.590464 -0.95205,-2.816543 -2.53576,-5.261248 -4.42338,-6.8282 -1.96861,-1.634189 -4.300637,-2.503517 -9.712017,-3.620424 -4.23213,-0.873508 -4.578387,-0.822981 -5.531776,0.807241 -0.325943,0.557337 -0.652196,0.976527 -0.725001,0.93153 -0.07281,-0.045 -0.540054,-1.333329 -1.038323,-2.862959 -0.498274,-1.529628 -1.054187,-3.001923 -1.235369,-3.271766 -0.496448,-0.739383 -1.237395,-0.745009 -2.557446,-0.01942 -0.570553,0.313615 -1.065327,0.542253 -1.099498,0.508084 -0.03417,-0.03417 0.04072,-0.308287 0.166434,-0.60915 0.125706,-0.300863 0.627314,-1.679914 1.114679,-3.064558 0.666882,-1.89466 0.996109,-2.615223 1.330666,-2.91238 0.785284,-0.697481 0.942679,-1.213882 1.444165,-4.73814 0.438118,-3.078916 0.421891,-3.348035 -0.246457,-4.087817 -0.41834,-0.463053 -0.595923,-0.841918 -0.722005,-1.540352 -0.817092,-4.526349 -3.370832,-8.45399 -6.942493,-10.677536 -0.647909,-0.403357 -1.938258,-1.02769 -2.86744,-1.387407 -0.929182,-0.359717 -1.757905,-0.736946 -1.841603,-0.838286 -0.0837,-0.10134 -0.512469,-1.108192 -0.952823,-2.237449 -1.188059,-3.046696 -1.62256,-3.550573 -2.748092,-3.186885 -0.507569,0.164008 -0.85375,0.779396 -1.950567,3.467393 -0.39783,0.974977 -0.787106,1.851664 -0.86506,1.948192 -0.07795,0.09653 -0.969442,0.518259 -1.981084,0.937179 -3.885806,1.609107 -6.361906,3.86294 -8.14731,7.415967 -0.601159,1.196333 -1.277657,3.206073 -1.461994,4.343295 -0.14105,0.870175 -0.303213,1.20542 -0.878571,1.816288 l -0.446267,0.473813 0.15457,1.737318 c 0.182596,2.052306 0.723712,5.372163 0.942157,5.780333 0.08461,0.158091 0.388043,0.466082 0.674301,0.684422 0.361889,0.276026 0.602036,0.655738 0.788175,1.246245 0.147241,0.467096 0.648246,1.890467 1.113351,3.163044 0.465101,1.27258 0.827014,2.313781 0.804249,2.313781 -0.02275,0 -0.655053,-0.294454 -1.405083,-0.654346 -2.051976,-0.984607 -2.18032,-0.865989 -3.464409,3.201908 -0.401167,1.270858 -0.826974,2.542733 -0.946243,2.826388 l -0.21685,0.515734 -0.657558,-1.125895 c -0.361657,-0.619244 -0.815033,-1.212548 -1.007505,-1.318458 -0.556429,-0.306179 -1.888222,-0.192294 -4.779036,0.408664 -5.934221,1.233639 -8.048795,2.115744 -10.194978,4.252884 -2.021435,2.012918 -3.376705,4.537369 -4.244695,7.906549 -0.622525,2.416387 -1.022802,5.264309 -0.816038,5.80602 0.24062,0.630417 1.040394,0.840713 2.337964,0.614751 0.570468,-0.09934 1.066236,-0.151604 1.101704,-0.116136 0.03547,0.03547 -0.07946,0.961758 -0.255389,2.058424 -0.436158,2.718766 -0.422178,3.132979 0.127262,3.770466 l 0.447135,0.518795 -0.749192,4.297495 -0.749191,4.297495 -0.698302,0.857242 -0.698304,0.857239 -0.272714,2.584228 c -0.183198,1.735952 -0.322302,5.096362 -0.423778,10.237345 -0.09705,4.9167 -0.216998,7.88147 -0.335468,8.29175 -0.245464,0.85009 -0.231489,4.7773 0.02193,6.16645 0.229291,1.25682 1.111719,3.47547 1.766081,4.44036 1.242446,1.83207 4.42454,4.00933 5.859687,4.00933 0.988357,0 3.755676,-1.58097 3.755676,-2.14562 0,-0.1229 0.151522,-0.22346 0.336712,-0.22346 0.185192,0 0.585652,-0.26395 0.889912,-0.58656 l 0.553199,-0.58656 -0.09888,-1.39314 c -0.07283,-1.02598 -0.270936,-1.90158 -0.751716,-3.3224 -0.64634,-1.9101 -0.650399,-1.93633 -0.40862,-2.63999 0.134313,-0.39089 0.359894,-1.35037 0.50129,-2.13216 0.245248,-1.35601 1.939484,-8.03147 3.256751,-12.831937 0.339591,-1.237552 0.61522,-2.481313 0.612508,-2.763917 -0.0027,-0.282602 -0.180028,-0.798113 -0.394036,-1.145575 -0.496448,-0.806029 -0.493532,-1.386699 0.01027,-2.047218 0.525682,-0.689206 0.924896,-1.85491 1.506524,-4.399058 0.556604,-2.434686 0.625134,-2.682161 0.717251,-2.590044 0.137629,0.137629 0.710579,3.385286 0.837145,4.745197 0.125343,1.346806 0.151794,1.417235 0.771078,2.053193 l 0.641281,0.658548 0.04807,3.23773 c 0.04805,3.236444 0.04791,3.237939 -0.344459,3.763873 -0.386511,0.51808 -0.393917,0.585814 -0.483404,4.422258 -0.08698,3.7288 -0.109342,3.947 -0.520811,5.08066 -1.497251,4.12516 -3.631052,12.01251 -4.689362,17.3337 -0.390554,1.9637 -0.739894,3.35353 -0.841983,3.34978 -0.09597,-0.004 -0.922126,-0.34372 -1.83591,-0.756 z M 43.11866,29.272871 c 0.232291,-1.031401 0.698963,-1.769176 1.673037,-2.644952 0.7091,-0.637544 2.164848,-1.357838 2.744248,-1.357838 0.121912,0 0.265584,-0.07107 0.31927,-0.157938 0.05522,-0.08934 -0.07535,-0.157938 -0.30063,-0.157938 -0.711277,0 -2.097564,-0.627023 -2.849354,-1.288774 -0.824788,-0.726008 -1.368814,-1.686037 -1.722114,-3.03897 -0.280742,-1.075074 -0.418825,-1.279404 -0.418825,-0.619758 0,1.963939 -1.851658,4.215909 -3.948449,4.802069 -0.869431,0.24305 -1.155954,0.461309 -0.605591,0.461309 0.222866,0 0.916908,0.255991 1.542314,0.568869 0.874215,0.437351 1.298506,0.774515 1.835245,1.458375 0.673108,0.85761 1.176481,1.967595 1.176481,2.594253 0,0.586187 0.378021,0.16429 0.554368,-0.618707 z"
     id="path74" /><path
     style="fill:#ffffff;stroke:none;stroke-width:1.38788;stroke-dasharray:none"
     d="M 60.959242,51.285144 C 60.074661,50.693721 59.00831,49.875243 58.63171,49.498643 58.351657,49.218589 58.177767,48.861074 57.371463,46.907589 55.789495,43.074858 55.064444,40.660427 54.63247,37.786668 54.517879,37.024337 54.490359,36.35264 54.491738,34.351516 c 0.0016,-2.399188 0.0093,-2.522863 0.214543,-3.482654 0.433514,-2.02701 1.051531,-3.386837 2.244529,-4.938639 0.964015,-1.253955 2.051722,-2.062776 4.368395,-3.248353 l 1.145276,-0.586105 0.05477,0.619788 c 0.03012,0.340883 0.111723,1.383813 0.181338,2.317621 0.284136,3.811347 0.774941,6.232676 1.519036,7.49398 0.375203,0.635997 1.070425,1.349703 1.532769,1.573519 0.515458,0.249529 1.049602,0.23119 1.493996,-0.05129 0.498126,-0.316637 1.102384,-1.008176 1.43488,-1.642141 0.751801,-1.433439 1.242521,-4.3887 1.44956,-8.729686 0.05718,-1.198954 0.136371,-1.459765 0.432842,-1.425576 0.301837,0.03481 2.132566,0.909259 2.690072,1.284919 0.631013,0.42519 2.184278,1.976247 2.763711,2.759779 0.914019,1.235973 1.477938,2.413168 1.834705,3.829996 1.114314,4.425251 0.413824,9.554858 -2.183728,15.991223 -1.205809,2.987832 -1.423381,3.344061 -2.569472,4.206952 -0.9222,0.694325 -2.144379,1.50607 -2.193544,1.456905 -0.04832,-0.04832 0.76449,-6.784767 0.988179,-8.189828 0.09443,-0.593125 0.05767,-0.561306 3.181805,-2.754623 0.507929,-0.356594 1.012167,-0.753718 1.120527,-0.882499 0.275383,-0.327273 0.326369,-0.74727 0.315931,-2.602465 -0.01336,-2.377313 -0.224137,-3.42849 -0.7669,-3.824902 -0.514877,-0.376041 -1.252832,-0.206465 -6.562421,1.508009 l -2.837196,0.916133 -2.848573,-0.929209 c -5.702451,-1.860156 -6.026481,-1.929442 -6.600003,-1.411301 -0.422267,0.381493 -0.530846,0.788104 -0.630012,2.359311 -0.154877,2.453881 -0.08745,3.443907 0.260128,3.819253 0.282868,0.305472 1.200446,1.031071 2.50245,1.978879 1.46952,1.069753 1.816261,1.386785 1.816362,1.660724 4e-5,0.110628 0.231024,2.00447 0.513297,4.208539 0.282276,2.204072 0.513225,4.043061 0.513225,4.086646 0,0.146124 -0.133387,0.08194 -0.912971,-0.439277 z"
     id="path75" /><path
     style="fill:#ffffff;stroke:none;stroke-width:1.38788;stroke-dasharray:none"
     d="m 66.189377,30.674628 c -0.303035,-1.333246 -0.822478,-6.868356 -0.862811,-9.193974 l -0.01331,-0.767913 0.466498,-0.960826 0.466497,-0.960825 0.182431,0.218931 c 0.100335,0.120412 0.351057,0.553533 0.557156,0.962491 l 0.37473,0.74356 -0.01259,1.27015 c -0.01368,1.379095 -0.195445,4.276874 -0.387192,6.172878 -0.13476,1.332507 -0.352991,2.50264 -0.529613,2.839735 l -0.117232,0.223748 z"
     id="path76" /><path
     style="fill:#ffffff;stroke:none;stroke-width:1.38788;stroke-dasharray:none"
     d="m 65.254493,53.16916 c -0.25605,-0.03921 -0.205372,0.235164 -0.857501,-4.642707 -0.440465,-3.294666 -0.72535,-5.257547 -0.951733,-6.557532 -0.140663,-0.807736 -0.462804,-1.105961 -3.015482,-2.791598 l -1.24251,-0.820478 V 37.66183 c 0,-0.382257 0.0323,-0.714978 0.07178,-0.739378 0.03948,-0.02439 1.655704,0.490725 3.59161,1.144722 l 3.519829,1.189091 3.560112,-1.199637 c 2.381427,-0.80246 3.586345,-1.173401 3.639349,-1.1204 0.04358,0.04358 0.0991,0.341953 0.123388,0.663046 l 0.04415,0.583809 -1.724721,1.144265 c -0.948595,0.629345 -1.931421,1.339715 -2.184059,1.578596 -0.428543,0.405212 -0.466886,0.471387 -0.571944,0.987113 -0.148011,0.726567 -0.8978,6.012223 -1.274231,8.982724 l -0.297714,2.349328 -1.109761,-0.01183 c -0.610367,-0.0065 -1.204624,-0.02635 -1.32057,-0.04412 z"
     id="path77" /><path
     style="fill:#ffffff;stroke:none;stroke-width:1.38788;stroke-dasharray:none"
     d="m 65.07046,59.880721 c -1.335014,-0.186457 -6.069698,-1.831176 -6.494592,-2.25607 -0.253228,-0.25323 -0.349452,-1.038612 -0.319247,-2.605747 l 0.02249,-1.167542 0.710721,0.449294 c 2.163413,1.367628 5.039802,2.35064 7.186179,2.455889 0.691486,0.03391 1.047022,0.0084 1.743141,-0.125278 1.961359,-0.37652 4.443489,-1.332047 5.899573,-2.271109 0.294527,-0.189947 0.552162,-0.345361 0.572524,-0.345361 0.02037,0 0.03702,0.730105 0.03702,1.622454 v 1.622455 l -0.200235,0.200234 c -0.522779,0.522779 -4.527933,2.008065 -6.343173,2.352323 -0.61359,0.116369 -2.195836,0.154855 -2.814418,0.06846 z"
     id="path78" /><path
     style="fill:#ffffff;stroke:none;stroke-width:1.38788;stroke-dasharray:none"
     d="m 54.291189,55.661445 c -1.957959,-1.050758 -2.290101,-1.25735 -2.290101,-1.42444 0,-0.250037 0.386702,-1.922613 0.603671,-2.61102 0.14157,-0.449172 0.228745,-0.611954 0.327652,-0.611806 0.25908,2.64e-4 1.707507,0.972767 2.099585,1.40952 0.119282,0.132876 0.162317,0.364172 0.218509,1.174414 0.08028,1.157586 0.01654,2.470917 -0.11979,2.467909 -0.04913,-0.0011 -0.426911,-0.183145 -0.839526,-0.404577 z"
     id="path79" /><path
     style="fill:#ffffff;stroke:none;stroke-width:1.38788;stroke-dasharray:none"
     d="m 77.402565,55.653404 c -0.06119,-0.525378 0.06641,-2.794331 0.172693,-3.070831 0.04402,-0.114511 0.216202,-0.322524 0.38263,-0.462251 0.382239,-0.320905 1.753447,-1.185314 1.880264,-1.185314 0.09118,0 0.858306,2.477595 0.958729,3.096429 0.04325,0.266541 0.02537,0.298847 -0.267809,0.483926 -0.286803,0.181049 -2.980023,1.55263 -3.04873,1.55263 -0.01622,0 -0.05122,-0.186565 -0.07778,-0.414589 z"
     id="path80" /><path
     style="fill:#ffffff;stroke:none;stroke-width:1.38788;stroke-dasharray:none"
     d="m 99.935273,67.036079 c -7.675369,-1.564881 -8.703225,-1.81495 -9.149712,-2.226038 -0.183073,-0.168558 -2.936566,-3.679359 -4.424448,-5.641324 L 85.6284,58.202538 85.762441,57.798982 c 0.199398,-0.600332 1.267669,-2.698681 1.503386,-2.953025 0.194678,-0.210061 0.230098,-0.218721 0.711028,-0.17381 1.199317,0.111995 5.003282,1.003903 6.802041,1.59486 4.110445,1.350434 6.396954,4.217472 7.588974,9.515783 0.30023,1.334481 0.35958,1.709838 0.27767,1.756076 -0.0357,0.02011 -1.25526,-0.206137 -2.710267,-0.502787 z"
     id="path81" /><path
     style="fill:#ffffff;stroke:none;stroke-width:1.38788;stroke-dasharray:none"
     d="m 97.645172,73.307749 c -2.796341,-0.295222 -4.075313,-0.458266 -4.552905,-0.580414 -0.758751,-0.194056 -1.932326,-0.80228 -3.266218,-1.692767 -1.804246,-1.204495 -2.954832,-2.212517 -4.098459,-3.59064 -1.351024,-1.628044 -6.719102,-8.520594 -6.719102,-8.627247 0,-0.03211 0.257635,-0.202375 0.572524,-0.378368 0.670568,-0.374779 3.030619,-1.580631 3.093559,-1.580631 0.02373,0 -0.02931,0.183851 -0.117883,0.408556 -0.08857,0.224703 -0.180144,0.624486 -0.203496,0.8884 -0.05062,0.572068 0.0615,0.817448 0.895424,1.95961 1.029954,1.410652 4.131321,5.370692 5.867905,7.49255 0.25001,0.30548 1.580108,0.628449 6.944779,1.686311 1.669695,0.329248 3.040142,0.606579 3.045436,0.616289 0.0053,0.0097 0.12704,0.759198 0.27055,1.665528 0.216926,1.369989 0.242697,1.659425 0.152807,1.716368 -0.104166,0.06599 -1.315569,0.07656 -1.884921,0.01646 z"
     id="path82" /><path
     style="fill:#ffffff;stroke:none;stroke-width:1.38788;stroke-dasharray:none"
     d="M 67.89844,82.424187 C 67.8632,82.369737 67.82253,81.732048 67.80805,81.0071 l -0.02633,-1.318088 1.845871,-2.117063 C 73.352609,73.299658 73.37753,73.260402 72.931424,72.36766 72.693,71.890537 71.247859,69.936095 68.995543,67.044683 l -1.199531,-1.539894 0.01918,-1.169627 0.01918,-1.169628 1.57938,-0.536408 c 0.868659,-0.295027 2.733617,-0.970863 4.144351,-1.501855 l 2.564974,-0.965446 0.180346,0.223443 c 0.09919,0.122894 1.537562,1.929173 3.196381,4.013954 3.632726,4.565558 4.318854,5.399072 5.186722,6.300868 l 0.667954,0.69407 -0.174022,1.990876 -0.174024,1.990879 -2.028622,1.98152 -2.028624,1.981523 -3.872462,0.958831 c -3.037288,0.752041 -7.311229,1.796101 -8.94138,2.184244 -0.09506,0.02265 -0.201671,-0.0034 -0.236908,-0.05785 z"
     id="path83" /><path
     style="fill:#ffffff;stroke:none;stroke-width:1.38788;stroke-dasharray:none"
     d="m 65.3393,75.555913 c -1.140986,-1.315259 -1.67794,-1.951074 -2.020824,-2.392886 l -0.246507,-0.317632 0.162394,-0.235151 c 0.08931,-0.129334 0.820266,-1.11252 1.624332,-2.184861 l 1.461942,-1.949706 1.196094,1.594347 c 0.65785,0.87689 1.383059,1.872009 1.611577,2.211374 l 0.415484,0.617027 -0.453221,0.602155 c -0.505143,0.671145 -2.176285,2.622762 -2.538246,2.964251 l -0.233463,0.220261 z"
     id="path84" /><path
     style="fill:#ffffff;stroke:none;stroke-width:1.38788;stroke-dasharray:none"
     d="m 64.438706,82.469741 c -0.08687,-0.019 -3.021933,-0.745649 -6.522371,-1.614776 L 51.5519,79.274733 49.626807,77.293961 47.701712,75.313193 47.526603,73.488782 c -0.09631,-1.003427 -0.177263,-1.879499 -0.179898,-1.946831 -0.0026,-0.06733 0.308848,-0.463571 0.692179,-0.880538 0.896916,-0.975617 2.138558,-2.462612 4.437652,-5.314561 2.2668,-2.811886 3.288824,-4.039421 3.885327,-4.666592 l 0.457703,-0.481235 2.190705,0.842593 c 1.204889,0.463425 2.981328,1.12418 3.947642,1.468344 l 1.756934,0.625756 -0.0019,1.263504 -0.0019,1.263505 -0.951835,1.224018 c -3.528563,4.53757 -4.104873,5.356659 -4.158004,5.909609 -0.06239,0.649296 0.04294,0.797076 3.118003,4.374568 l 2.153817,2.505731 v 1.328217 c 0,1.244729 -0.04681,1.547839 -0.232958,1.508577 -0.02389,-0.005 -0.114506,-0.02471 -0.201371,-0.04371 z"
     id="path85" /><path
     style="fill:#ffffff;stroke:none;stroke-width:1.38788;stroke-dasharray:none"
     d="m 33.107284,73.315668 c -0.02558,-0.02559 -0.02837,-0.176623 -0.0062,-0.335619 0.09814,-0.702797 0.497412,-2.945119 0.535337,-3.006484 0.02304,-0.03728 0.140055,-0.08517 0.260027,-0.106416 1.710159,-0.30285 8.648039,-1.756037 8.984158,-1.881793 0.674256,-0.252272 0.855752,-0.458661 4.195355,-4.770668 2.377811,-3.070169 2.751222,-3.576725 3.036795,-4.119605 0.298394,-0.567261 0.309695,-1.101974 0.03578,-1.693188 -0.106793,-0.230505 -0.181713,-0.431556 -0.166491,-0.44678 0.04584,-0.04584 3.677361,1.793361 3.677361,1.862418 0,0.285654 -6.819381,8.788916 -7.984736,9.956369 -1.638657,1.64161 -5.04063,3.765304 -6.523392,4.072249 -1.178171,0.243891 -5.90264,0.610902 -6.044025,0.469517 z"
     id="path86" /><path
     style="fill:#ffffff;stroke:none;stroke-width:1.38788;stroke-dasharray:none"
     d="m 30.002999,67.305226 c 0.142574,-0.802537 0.856041,-3.552987 1.112298,-4.287962 0.632545,-1.814214 1.409825,-3.117906 2.521231,-4.228735 1.14137,-1.140778 2.502532,-1.948111 4.378833,-2.597184 1.639371,-0.567111 5.752933,-1.47129 6.797537,-1.494132 l 0.511286,-0.01119 0.294752,0.43433 c 0.459644,0.677307 1.407107,2.580606 1.407107,2.826652 0,0.244779 -0.303729,0.663226 -2.985641,4.113319 -1.757188,2.260502 -2.422922,3.022137 -2.759506,3.157027 -0.119359,0.04783 -2.633467,0.585025 -5.586907,1.193757 -2.953441,0.608735 -5.454132,1.126443 -5.557092,1.150462 -0.17816,0.04157 -0.184624,0.02919 -0.133898,-0.256355 z"
     id="path87" /><path
     style="fill:#ffffff;stroke:none;stroke-width:1.96276;stroke-dasharray:none"
     d="m 37.859193,88.625883 c -4.48777,-1.575535 -5.863262,-2.16467 -5.863029,-2.511176 2.41e-4,-0.360976 1.653791,-9.598282 1.737484,-9.706184 0.01527,-0.01968 1.226159,-0.15661 2.690882,-0.304295 3.640714,-0.367088 3.943442,-0.427053 5.291357,-1.048123 l 1.168863,-0.538567 0.03446,0.314004 c 0.07293,0.664634 -0.84867,7.131162 -1.434582,10.065902 -0.481444,2.411481 -1.161402,4.45344 -1.478478,4.439981 -0.0752,-0.0032 -1.041332,-0.323387 -2.146954,-0.711542 z"
     id="path88" /><path
     style="fill:#ffffff;stroke:none;stroke-width:0.693941;stroke-dasharray:none"
     d="m 38.082803,98.198919 c -2.504665,-0.537517 -3.553558,-0.924449 -4.833051,-1.782903 -0.701339,-0.470548 -1.211175,-0.904656 -2.07967,-1.770756 -0.936369,-0.933786 -0.926928,-0.916136 -0.919388,-1.718485 0.0031,-0.325747 0.04356,-0.920977 0.09,-1.322731 0.08993,-0.778013 0.226864,-1.684044 0.263466,-1.743266 0.03927,-0.06353 0.571575,0.420841 2.382129,2.167599 2.210964,2.133058 2.642463,2.387606 5.135994,3.029792 0.984705,0.253603 1.289071,0.338915 1.511882,0.42378 0.104457,0.03979 0.108879,0.05143 0.08506,0.224065 -0.106518,0.772137 -0.623321,2.697078 -0.721254,2.686461 -0.01474,-0.0016 -0.426556,-0.0887 -0.915175,-0.193556 z"
     id="path89" /><path
     style="fill:#ffffff;stroke:none;stroke-width:0.693941;stroke-dasharray:none"
     d="m 34.9043,109.03067 c -0.872178,-0.10396 -2.554666,-0.36594 -3.824185,-0.59547 l -1.257694,-0.2274 0.0254,-3.08005 c 0.02828,-3.42816 0.09467,-7.528732 0.122338,-7.556397 0.03417,-0.03417 0.237641,0.08133 0.788258,0.447464 0.655171,0.43566 1.157017,0.727419 1.833033,1.065675 1.379942,0.690481 3.030175,1.331278 4.534522,1.760778 0.679278,0.19394 0.939038,0.29616 1.029433,0.40508 0.03761,0.0453 0.02635,0.15797 -0.05374,0.53726 -0.38151,1.80693 -1.436965,5.64079 -1.922224,6.98232 l -0.117827,0.32575 -0.341754,-0.004 c -0.187968,-0.002 -0.554975,-0.0297 -0.815571,-0.0607 z"
     id="path90" /><path
     style="fill:#ffffff;stroke:none;stroke-width:0.693941;stroke-dasharray:none"
     d="m 29.856391,115.02977 c -0.229955,-1.02483 -0.520676,-3.95987 -0.392229,-3.95987 0.02238,0 0.304988,0.0545 0.627999,0.12107 0.741519,0.15285 2.104147,0.36737 4.016,0.63223 1.066633,0.14776 1.515565,0.22492 1.569484,0.26974 0.112909,0.0939 0.154541,0.40854 0.154541,1.16807 v 0.67992 l -0.641623,0.1274 c -0.811562,0.16113 -4.811281,1.09014 -5.208439,1.20975 -0.05304,0.016 -0.07709,-0.0315 -0.125733,-0.24831 z"
     id="path91" /><path
     style="fill:#ffffff;stroke:none;stroke-width:0.693941;stroke-dasharray:none"
     d="m 50.688493,90.544258 c -1.170782,-0.854303 -1.749497,-1.31091 -1.832552,-1.44589 -0.512019,-0.832083 -2.729574,-10.524209 -2.407933,-10.524209 0.0553,0 0.322894,0.19128 0.597775,0.427291 0.353505,0.303514 0.49992,0.437523 1.724327,1.578197 1.221827,1.138275 1.756532,1.596562 2.076093,1.779397 0.230476,0.131863 0.678775,0.259969 1.336574,0.381937 l 0.379111,0.07029 0.480812,2.135899 c 0.264448,1.174742 0.56607,2.512211 0.670271,2.972149 l 0.18946,0.836256 -1.210347,1.183751 -1.210344,1.183754 z"
     id="path92" /><path
     style="fill:#ffffff;stroke:none;stroke-width:0.693941;stroke-dasharray:none"
     d="M 65.939119,92.753047 C 64.764583,92.302285 62.185766,91.12096 58.213648,89.21411 l -1.723824,-0.827537 -0.08557,-0.434586 c -0.04706,-0.239025 -0.237021,-1.14531 -0.422124,-2.013969 -0.458634,-2.152301 -0.515358,-2.523064 -0.393181,-2.569948 0.224888,-0.0863 5.73714,1.259014 9.326457,2.276205 0.761664,0.21585 1.41665,0.392454 1.455534,0.392454 0.03888,0 0.801608,-0.194516 1.694952,-0.43226 3.667176,-0.975935 8.936522,-2.238476 9.014995,-2.160003 0.01587,0.01587 -0.02994,0.352419 -0.101791,0.7479 -0.126878,0.698376 -0.775097,4.020042 -0.82128,4.208471 -0.02657,0.108421 0.236228,-0.02003 -3.664267,1.790988 -3.022793,1.403498 -3.750374,1.736304 -4.619686,2.113132 -0.647197,0.280543 -1.455574,0.602792 -1.507263,0.60085 -0.01794,-7.94e-4 -0.210312,-0.06942 -0.427476,-0.15276 z"
     id="path93" /><path
     style="fill:#ffffff;stroke:none;stroke-width:0.693941;stroke-dasharray:none"
     d="m 54.646551,100.19469 c -0.56555,-0.1182 -1.143384,-0.273053 -2.448039,-0.656043 -1.604193,-0.470921 -1.811499,-0.536289 -1.82295,-0.574831 -0.05201,-0.175064 -0.13951,-1.424027 -0.175358,-2.503178 -0.04108,-1.236631 -0.01447,-2.639822 0.05132,-2.705608 0.01336,-0.01336 0.270333,0.09122 0.57105,0.232407 0.629854,0.295709 0.835028,0.358262 1.069647,0.326104 0.350523,-0.04805 0.655029,-0.263305 1.490821,-1.053883 0.691097,-0.653711 1.008642,-0.919953 1.047721,-0.878451 0.05045,0.05358 0.867278,7.262948 0.867278,7.654663 0,0.13065 -0.01871,0.18303 -0.07637,0.21389 -0.09374,0.0502 -0.0529,0.0541 -0.575119,-0.0551 z"
     id="path94" /><path
     style="fill:#ffffff;stroke:none;stroke-width:0.693941;stroke-dasharray:none"
     d="m 63.451593,101.15586 c -1.644226,-0.0554 -3.155815,-0.15899 -4.518657,-0.30959 -0.636815,-0.0704 -0.651243,-0.074 -0.75764,-0.19313 -0.05965,-0.0668 -0.127627,-0.18897 -0.151053,-0.27156 -0.08603,-0.30334 -0.199255,-1.130871 -0.336584,-2.460016 -0.432012,-4.181277 -0.623692,-5.945934 -0.676569,-6.228681 -0.0136,-0.07265 -0.0075,-0.128323 0.01408,-0.128323 0.04258,0 0.09901,0.02638 3.188703,1.490218 4.585853,2.172703 5.482053,2.544152 6.132409,2.541702 0.626245,-0.0024 1.527424,-0.366385 6.147269,-2.483168 1.281273,-0.587071 2.510697,-1.147591 2.732058,-1.245597 l 0.402468,-0.178195 -0.01786,0.184298 c -0.0098,0.101362 -0.04513,0.495237 -0.07844,0.875277 -0.03331,0.380039 -0.130498,1.339511 -0.215966,2.132163 -0.215898,2.002287 -0.379484,3.675586 -0.472676,4.834866 -0.04355,0.541816 -0.09252,0.997256 -0.108815,1.012086 -0.10455,0.0951 -3.538371,0.35195 -5.754878,0.43041 -1.254448,0.0444 -4.171879,0.043 -5.527831,-0.003 z"
     id="path95" /><path
     style="fill:#ffffff;stroke:none;stroke-width:0.693941;stroke-dasharray:none"
     d="m 58.456805,107.9488 c -0.899361,-0.0648 -2.52399,-0.32893 -4.12613,-0.67075 -1.487302,-0.31732 -2.529723,-0.58709 -4.742987,-1.22743 -0.138226,-0.04 -0.119327,0.0349 -0.233,-0.92313 -0.0479,-0.40373 -0.153066,-3.2888 -0.121203,-3.32514 0.0041,-0.005 0.415227,0.10698 0.913686,0.24804 1.544381,0.43706 3.309207,0.85209 5.170615,1.21596 0.946674,0.18506 1.561602,0.28292 3.271443,0.52059 0.561454,0.078 1.045633,0.15141 1.075952,0.16305 0.04618,0.0177 0.05513,0.34727 0.05513,2.03064 v 2.00948 l -0.424458,-0.006 c -0.233453,-0.003 -0.611024,-0.0192 -0.839047,-0.0356 z"
     id="path96" /><path
     style="fill:#ffffff;stroke:none;stroke-width:0.693941;stroke-dasharray:none"
     d="m 63.155461,108.17876 c -0.206306,-0.0206 -0.377105,-0.0403 -0.379553,-0.0439 -0.0024,-0.004 -0.01495,-0.862 -0.02776,-1.90755 l -0.02331,-1.90101 0.08699,-0.0234 c 0.144118,-0.0387 3.036123,-0.10203 5.155734,-0.11289 l 1.988958,-0.0102 -0.02421,0.67123 c -0.01331,0.36919 -0.03574,1.2798 -0.04982,2.02359 l -0.02561,1.35234 -3.163155,-0.005 c -1.739736,-0.003 -3.331951,-0.0222 -3.538257,-0.0428 z"
     id="path97" /><path
     style="fill:#ffffff;stroke:none;stroke-width:1.38788;stroke-dasharray:none"
     d="m 79.974836,89.924964 c -0.618357,-0.619461 -1.124286,-1.187622 -1.124286,-1.262576 0,-0.206761 0.683665,-3.426479 0.993204,-4.67749 0.15027,-0.607311 0.3195,-1.15049 0.376073,-1.207061 0.05657,-0.05657 0.425485,-0.167579 0.819809,-0.246684 0.394322,-0.0791 0.853144,-0.227999 1.019604,-0.330877 0.16646,-0.102878 1.172998,-0.96084 2.236755,-1.906582 1.063755,-0.945746 1.963844,-1.719535 2.000195,-1.719535 0.295251,0 -2.001091,10.15755 -2.37613,10.510472 -0.21168,0.199194 -2.692014,1.96663 -2.75988,1.96663 -0.03358,0 -0.566986,-0.506834 -1.185344,-1.126297 z"
     id="path98" /><path
     style="fill:#ffffff;stroke:none;stroke-width:1.38788;stroke-dasharray:none"
     d="m 77.377332,100.11407 c 0.02588,-0.10309 0.226859,-1.871567 0.446635,-3.929943 0.219773,-2.058376 0.413126,-3.756041 0.429673,-3.772588 0.03409,-0.03409 0.448365,0.321818 1.297082,1.114351 0.672772,0.628232 1.156767,0.879978 1.5346,0.798203 0.139012,-0.03009 0.45607,-0.156901 0.704572,-0.28181 0.776491,-0.390303 0.726011,-0.536634 0.663982,1.924798 -0.02983,1.183548 -0.07591,2.338785 -0.102415,2.567197 l -0.04819,0.41529 -0.877445,0.273788 c -0.974352,0.304025 -3.31379,0.935034 -3.789485,1.022124 -0.293142,0.0537 -0.304075,0.0481 -0.259013,-0.13141 z"
     id="path99" /><path
     style="fill:#ffffff;stroke:none;stroke-width:1.38788;stroke-dasharray:none"
     d="m 92.353736,88.891136 c -0.484968,-1.069575 -1.105194,-3.56715 -1.493259,-6.013167 -0.611605,-3.855019 -1.228838,-8.240919 -1.168278,-8.30148 0.02254,-0.02254 0.515242,0.179134 1.094875,0.448183 1.340284,0.622121 1.78063,0.709758 5.308709,1.056532 1.514933,0.148902 2.781432,0.299879 2.814442,0.335505 0.0993,0.107167 0.629171,3.021571 1.775115,9.763578 0.0353,0.207502 0.004,0.237746 -0.4594,0.447976 -1.070058,0.485188 -7.335539,2.76465 -7.599101,2.76465 -0.02508,0 -0.147969,-0.225801 -0.273103,-0.501777 z"
     id="path100" /><path
     style="fill:#ffffff;stroke:none;stroke-width:1.38788;stroke-dasharray:none"
     d="m 93.626553,98.138729 c -0.05441,-0.145913 -0.46878,-1.849102 -0.602488,-2.476432 -0.03306,-0.155098 0.06652,-0.192402 1.443885,-0.54093 2.89135,-0.73162 3.109423,-0.866521 6.16539,-3.813937 l 1.49476,-1.441664 0.0959,0.651973 c 0.0527,0.358587 0.16012,1.14948 0.23859,1.757542 0.17383,1.346986 0.22127,1.236168 -1.0539,2.462041 -1.821946,1.751513 -3.464154,2.619425 -6.242843,3.299359 -1.351523,0.330711 -1.451557,0.337344 -1.539304,0.102048 z"
     id="path101" /><path
     style="fill:#ffffff;stroke:none;stroke-width:1.38788;stroke-dasharray:none"
     d="m 96.579333,109.11542 c -0.414296,-1.19273 -1.689556,-5.77469 -1.936952,-6.95939 -0.202334,-0.96893 -0.198098,-0.97525 0.854229,-1.27283 1.939367,-0.54843 4.79468,-1.789389 6.19237,-2.691288 0.80256,-0.517871 0.9899,-0.603998 1.06157,-0.488042 0.0332,0.05368 0.0751,2.43058 0.0932,5.28199 l 0.0329,5.18438 -0.42439,0.0914 c -0.49763,0.10721 -5.588932,0.95236 -5.737533,0.95241 -0.05565,2e-5 -0.116618,-0.0444 -0.135474,-0.0987 z"
     id="path102" /><path
     style="fill:#ffffff;stroke:none;stroke-width:1.38788;stroke-dasharray:none"
     d="m 101.4067,114.93916 c -0.55886,-0.14425 -1.793739,-0.43255 -2.744178,-0.64068 l -1.728071,-0.37842 0.0013,-0.39848 c 0.0013,-0.43992 0.176813,-1.27935 0.291333,-1.39387 0.04021,-0.0402 0.799277,-0.17925 1.686816,-0.30899 0.88754,-0.12973 2.20857,-0.3424 2.93562,-0.4726 0.72705,-0.1302 1.35782,-0.23673 1.4017,-0.23673 0.0439,0 0.0798,0.11753 0.0798,0.26117 0,0.32661 -0.28951,2.68859 -0.41082,3.35166 -0.10939,0.59794 -0.0631,0.5913 -1.51342,0.21694 z"
     id="path103" /><path
     style="fill:#ffffff;stroke:none;stroke-width:1.38788;stroke-dasharray:none"
     d="m 72.935292,106.75841 c 0.0096,-1.56595 0.0877,-2.64618 0.199525,-2.75792 0.04867,-0.0486 0.919303,-0.20691 1.934742,-0.35174 2.25076,-0.321 3.272608,-0.52414 6.050275,-1.20276 1.18296,-0.28901 2.177968,-0.49822 2.211133,-0.4649 0.154943,0.15565 -0.02379,3.83727 -0.19437,4.00368 -0.09933,0.0969 -3.190812,0.91817 -4.598279,1.22155 -1.789478,0.38573 -3.578826,0.66053 -4.682559,0.71915 l -0.927886,0.0493 z"
     id="path104" /><path
     style="fill:#ffffff;stroke:none;stroke-width:1.38788;stroke-dasharray:none"
     d="m 56.804948,131.16967 c -1.766322,-0.0229 -3.235132,-0.0653 -3.264019,-0.0942 -0.212749,-0.21311 4.495271,-19.87315 4.842113,-20.21999 0.04377,-0.0438 0.676434,-0.0227 1.603063,0.0533 3.562773,0.29242 9.257398,0.31183 12.467955,0.0425 0.499481,-0.0419 1.144926,-0.0768 1.434325,-0.0775 l 0.526182,-10e-4 1.346309,5.42912 c 2.509147,10.11835 3.533515,14.60633 3.370963,14.76889 -0.138483,0.13848 -14.40675,0.20186 -22.326891,0.0992 z"
     id="path105" /><path
     style="fill:#ffffff;stroke:none;stroke-width:1.38788;stroke-dasharray:none"
     d="m 49.632019,131.03671 c -1.65418,-0.18018 -5.508977,-0.94248 -6.149647,-1.21611 -0.173974,-0.0743 -0.183703,-0.10976 -0.135011,-0.49189 0.230026,-1.80523 2.067848,-9.64245 3.079506,-13.13225 0.887257,-3.06067 2.124136,-6.7744 2.362079,-7.09214 0.08292,-0.11073 0.299997,-0.0744 2.027608,0.33963 1.064106,0.255 2.493954,0.59451 3.177434,0.75447 0.683482,0.15997 1.256406,0.31488 1.273159,0.34426 0.01675,0.0294 -0.546986,2.38102 -1.252762,5.22588 -2.221693,8.95524 -2.826708,11.54727 -3.234905,13.85906 l -0.250986,1.42144 -0.310042,0.009 c -0.170524,0.005 -0.434419,-0.005 -0.586433,-0.0212 z"
     id="path106" /><path
     style="fill:#ffffff;stroke:none;stroke-width:1.38788;stroke-dasharray:none"
     d="m 82.129656,130.91087 c -0.02233,-0.0977 -0.149876,-0.74626 -0.283435,-1.44119 -0.474681,-2.46982 -0.938575,-4.4615 -3.040084,-13.05221 -0.757367,-3.09602 -1.377029,-5.69472 -1.377029,-5.77488 0,-0.16352 0.233225,-0.23368 2.104678,-0.63318 0.601462,-0.12839 1.697678,-0.37473 2.43604,-0.54742 0.73836,-0.17268 1.508919,-0.33831 1.712355,-0.36807 l 0.369882,-0.0541 0.475665,1.48885 c 1.864056,5.83456 3.195894,10.98836 4.353923,16.84832 0.415737,2.10375 0.448654,2.34254 0.339558,2.46317 -0.294756,0.32591 -5.257678,1.24838 -6.716355,1.24838 -0.282313,0 -0.340943,-0.0278 -0.375198,-0.17768 z"
     id="path107" /><path
     style="fill:#ffffff;stroke:none;stroke-width:1.96276;stroke-dasharray:none"
     d="m 120.77077,118.79857 c -0.19277,-0.46997 -1.72558,-2.00278 -2.19555,-2.19556 -0.19963,-0.0819 -0.36296,-0.18372 -0.36296,-0.22632 0,-0.0426 0.17851,-0.16257 0.39669,-0.26662 0.55056,-0.26254 1.44622,-1.12436 1.97162,-1.89712 l 0.4412,-0.64894 0.38998,0.64894 c 0.4968,0.82671 0.7175,1.06151 1.57641,1.6771 l 0.69962,0.50143 -0.47626,0.33752 c -0.70819,0.50189 -1.50408,1.30313 -1.88934,1.90205 -0.18767,0.29177 -0.35502,0.53048 -0.37188,0.53048 -0.0169,0 -0.0976,-0.16333 -0.17953,-0.36296 z"
     id="path108" /></svg>
