<?xml version="1.0" encoding="UTF-8" standalone="no"?>
<!-- Created with Inkscape (http://www.inkscape.org/) -->

<svg
   width="512"
   height="512"
   viewBox="0 0 512 512"
   version="1.1"
   id="svg1"
   xml:space="preserve"
   xmlns="http://www.w3.org/2000/svg"
   xmlns:svg="http://www.w3.org/2000/svg"><defs
     id="defs1" /><path
     style="fill:none;stroke:#ffffff;stroke-width:26.8;stroke-linecap:round;stroke-dasharray:none"
     d="m 324.73048,103.866 c 1.79079,-20.892587 3.58159,-41.785173 5.37238,-62.677759 0,0 34.622,59.096169 34.622,59.096169 0,0 59.6931,-72.228651 59.6931,-72.228651 0,0 -16.71406,93.718171 -16.71406,93.718171 0,0 77.60103,-13.72941 77.60103,-13.72941 0,0 -52.52993,58.49924 -52.52993,58.49924 0,0 53.12686,25.66803 53.12686,25.66803 0,0 -57.90231,16.71407 -57.90231,16.71407"
     id="path3"
     transform="matrix(0.95706217,0,0,0.96853939,0.91375657,32.741661)" /><path
     style="fill:#000000;stroke-width:1.01867"
     d="M 112.14138,486.61618 C 81.224554,480.30856 30.483488,431.3598 12.326501,390.32702 7.3079259,378.98558 5.523237,368.51705 7.1049609,359.69879 9.6692264,345.40277 15.808563,338.39488 46.147367,315.13284 62.21923,302.80986 71.104189,293.14722 80.571363,277.69575 c 13.762622,-22.46211 25.869897,-38.04921 47.467067,-61.10981 10.01545,-10.69411 35.9558,-36.49082 43.24698,-43.00755 5.41342,-4.83841 12.24359,-9.34156 20.94876,-13.81161 7.0298,-3.60976 7.86875,-4.21631 12.64163,-9.13985 10.55459,-10.88775 18.56624,-15.23244 31.08459,-16.85711 11.15481,-1.44769 23.11786,1.51809 50.54124,12.5298 19.09006,7.66552 28.84438,12.72157 37.67463,19.52828 13.97312,10.77104 29.81606,28.67567 36.27442,40.99488 4.62079,8.81407 6.21437,19.23506 4.3611,28.51903 -1.404,7.03343 -1.58788,6.4702 2.71187,8.3065 4.84351,2.06852 10.41645,6.29661 13.62524,10.33723 3.06291,3.85689 7.62665,13.0173 8.71304,17.4889 1.46446,6.0278 1.94748,12.90413 1.35935,19.35226 -2.19174,24.02985 -8.75743,40.37188 -21.41816,53.30978 -5.53117,5.65224 -8.92681,8.31119 -29.57786,23.16086 -9.86999,7.09724 -21.99284,15.97522 -26.93968,19.72882 -24.52475,18.60911 -41.06549,26.53707 -63.23231,30.30718 -13.41331,2.28133 -25.19292,2.5217 -39.90275,0.81425 l -3.10809,-0.36076 -29.5983,29.74072 c -31.26975,31.42021 -33.70274,33.5687 -41.94682,37.04187 -6.77376,2.85375 -15.60655,3.6278 -23.35593,2.04676 z m 15.5747,-16.64075 c 1.4775,-0.5049 3.5449,-1.46241 4.59423,-2.12783 1.56537,-0.99264 31.20847,-29.82168 52.72419,-51.27629 4.87554,-4.86169 5.01759,-5.07416 4.70315,-7.03502 -0.42595,-2.65636 0.0451,-4.38387 1.75633,-6.44203 2.23945,-2.69335 4.29243,-2.95132 13.61647,-1.71099 9.22675,1.22737 24.39159,1.46712 33.5741,0.53079 12.82914,-1.30819 26.91114,-5.19009 37.5338,-10.34675 8.94368,-4.34162 16.35171,-9.15951 30.93267,-20.11741 7.42143,-5.57735 19.258,-14.31861 26.30348,-19.425 16.2651,-11.7885 18.46302,-13.49973 23.39272,-18.2126 7.01353,-6.70507 11.90591,-14.09947 14.56784,-22.01805 3.09168,-9.19697 4.87259,-25.91438 3.52912,-33.12806 -1.41613,-7.60381 -6.96533,-15.3731 -13.0665,-18.29403 -2.73887,-1.31123 -3.47315,-1.42344 -7.68536,-1.17444 -6.00871,0.35517 -10.98482,2.06533 -22.10058,7.59534 -8.66902,4.31277 -17.03605,9.48365 -24.10461,14.89681 -6.31976,4.83974 -15.83116,13.7321 -18.48583,17.28272 -4.0477,5.41377 -4.82785,7.56535 -4.83103,13.32344 -0.002,4.30765 0.20462,5.41912 1.56396,8.39732 1.74359,3.82 5.82843,8.13143 9.50005,10.02702 3.47362,1.79336 9.18866,2.96956 12.68627,2.61096 7.06098,-0.72396 21.91084,-7.43698 32.9144,-14.87925 3.88453,-2.62732 7.59224,-4.77694 8.23936,-4.77694 2.98738,0 5.68445,4.07436 5.68445,8.58729 0,3.65701 -1.2958,5.94012 -5.10624,8.99683 -12.00884,9.63344 -33.15706,18.83626 -43.24896,18.82016 -6.44716,-0.0103 -14.40263,-2.17359 -19.71031,-5.35974 -3.90737,-2.34558 -9.89928,-7.99543 -11.21947,-10.57899 -0.4805,-0.94033 -1.0513,-1.70751 -1.26846,-1.70486 -0.21716,0.003 -1.37092,1.55414 -2.56392,3.44778 -3.03389,4.81565 -10.67086,12.3782 -15.6659,15.51326 -7.66595,4.81141 -17.38499,8.02445 -24.35845,8.05271 -2.75074,0.0111 -3.068,0.15642 -4.79134,2.1939 -2.61639,3.09333 -9.94983,8.54689 -14.82506,11.02476 -9.03879,4.59403 -18.02098,6.45333 -28.62913,5.92618 -12.31537,-0.61198 -20.01621,-3.69204 -27.06445,-10.82482 -7.50005,-7.58997 -10.57023,-16.33206 -10.23067,-29.13096 l 0.17923,-6.75596 -3.5236,-2.07351 c -4.41283,-2.59678 -6.01577,-4.86698 -6.01577,-8.52001 0,-3.17742 0.95142,-5.27864 3.29289,-7.27249 2.42142,-2.06193 4.45965,-1.87238 8.98066,0.83523 9.69733,5.80765 18.44188,8.91411 28.49656,10.12325 6.6571,0.80056 8.24744,1.49016 9.94877,4.31389 2.18341,3.62384 0.66226,8.43301 -3.30549,10.45038 -2.41015,1.22542 -9.06501,1.27987 -16.56737,0.13551 -2.97196,-0.45331 -5.60892,-0.82421 -5.8599,-0.82421 -0.61946,0 -0.55285,3.59666 0.12143,6.55647 1.87192,8.21706 7.26014,13.53779 16.61638,16.40823 5.1478,1.57932 14.53374,1.33703 20.14563,-0.52005 8.43292,-2.79061 15.50451,-8.45786 19.02378,-15.24584 1.74136,-3.35874 3.78488,-10.62957 5.19142,-18.4709 1.20105,-6.69576 0.42003,-13.44159 -2.14546,-18.53066 -1.89076,-3.75065 -9.78478,-12.58809 -28.76232,-32.19974 -13.77748,-14.23782 -15.38421,-16.2142 -15.38421,-18.92339 0,-5.68594 5.90459,-9.37059 11.00329,-6.86642 3.0556,1.50071 18.50435,16.04556 27.40878,25.80511 21.18408,23.21846 24.9114,30.09565 24.11955,44.5026 -0.27484,5.00038 -2.04858,17.11435 -2.91549,19.91154 -0.93082,3.00343 10.17405,-2.03559 15.41047,-6.99275 6.50295,-6.15614 9.801,-13.16993 11.36516,-24.16974 1.67048,-11.74759 2.64065,-19.64044 2.86731,-23.32731 0.40159,-6.5318 -0.0408,-7.21262 -14.02261,-21.58151 -30.8094,-31.66231 -35.93978,-37.20954 -36.5563,-39.5266 -0.70032,-2.63199 -0.30766,-4.85893 1.19841,-6.79654 2.47409,-3.18301 7.15881,-4.02743 10.02903,-1.80772 0.88271,0.68265 12.64378,12.53608 26.13571,26.34096 26.13429,26.74046 27.86553,28.82847 29.23642,35.26132 0.36074,1.69282 0.73768,3.18208 0.83763,3.30943 0.0999,0.12735 3.43116,-2.98686 7.4027,-6.92047 3.97153,-3.93363 9.85117,-9.09375 13.06588,-11.46694 6.71841,-4.95975 6.58032,-3.80332 1.34974,-11.30443 -2.32349,-3.3321 -10.08231,-11.64195 -26.10081,-27.95459 -25.00397,-25.46305 -23.87473,-23.97451 -21.76077,-28.68481 1.15899,-2.5825 3.21217,-4.41123 5.53128,-4.9267 3.77061,-0.8381 4.61659,-0.13266 27.70057,23.09879 22.80857,22.9543 26.49652,27.05692 30.57035,34.00772 1.33168,2.27214 2.46481,4.20217 2.51808,4.28897 0.0533,0.0868 2.15258,-0.76717 4.66514,-1.89774 2.51257,-1.13057 7.51187,-3.07963 11.10958,-4.33124 7.44269,-2.58926 7.24072,-2.37297 9.07661,-9.72 1.3151,-5.26284 1.19516,-13.2108 -0.26966,-17.86994 -1.82143,-5.79342 -8.60232,-14.88751 -20.35731,-27.3019 -11.18138,-11.80862 -16.75184,-15.63466 -33.87692,-23.26821 -36.03919,-16.06456 -43.47158,-18.56072 -53.47429,-17.95924 -8.833,0.53115 -14.40128,3.43387 -22.61674,11.79001 -6.21412,6.32052 -10.3615,9.21479 -19.44163,13.56743 -3.47529,1.66591 -7.89065,4.10752 -9.81192,5.4258 -4.61773,3.16846 -13.997,12.0662 -34.26758,32.50826 -27.21353,27.44375 -41.41185,44.0821 -53.12693,62.25697 -2.573148,3.992 -6.719212,10.42322 -9.213474,14.29162 -5.82179,9.02911 -11.926839,16.63454 -18.997349,23.66614 -4.842244,4.8156 -20.801407,18.19226 -36.386187,30.49818 -12.844626,10.14226 -16.373564,18.62116 -12.906447,31.01006 2.656148,9.49109 10.520996,24.07597 19.550223,36.25469 21.13924,28.51283 50.20536,52.82811 69.900514,58.47535 4.80788,1.37857 11.14765,1.48789 14.75704,0.25444 z m 185.03561,10.78358 c -1.7552,-0.7087 -3.21498,-2.06647 -4.11468,-3.82716 -0.80311,-1.57168 -11.57375,-49.41432 -12.44344,-55.27309 -0.46606,-3.13972 -0.4098,-4.02762 0.35853,-5.65813 2.53153,-5.37234 11.0425,-5.54143 13.73471,-0.27287 0.47843,0.9363 1.32904,3.8641 1.89024,6.50621 2.25381,10.61092 8.87546,40.37116 9.86524,44.33824 1.42364,5.70593 1.39452,9.80397 -0.0831,11.70505 -2.18399,2.80978 -5.90866,3.81373 -9.20747,2.48175 z m 66.15651,-29.41254 c -0.99695,-0.43913 -3.82247,-3.33412 -6.84359,-7.01186 -13.99689,-17.03898 -32.50121,-40.04936 -33.06713,-41.11949 -0.83163,-1.57254 -0.80061,-5.05506 0.0603,-6.77694 1.70521,-3.41037 7.12519,-4.94747 10.75228,-3.04934 0.871,0.4558 6.80728,7.20525 13.19176,14.99878 6.38449,7.79352 14.74008,17.99165 18.56797,22.66249 7.74987,9.4565 8.57571,10.77251 8.57571,13.66569 0,5.38367 -6.01317,8.93179 -11.23735,6.63067 z m 40.94564,-62.03995 c -15.3843,-6.29343 -42.52388,-17.81273 -43.88749,-18.6279 -4.62792,-2.76658 -4.53003,-10.54636 0.16918,-13.446 0.95983,-0.59227 2.34329,-1.07776 3.07437,-1.0789 2.16999,-0.003 53.3704,21.0263 54.85835,22.53208 2.9819,3.01767 2.72232,8.15349 -0.58108,11.49651 -2.66235,2.69427 -5.32435,2.52327 -13.63333,-0.87579 z M 407.75787,243.47855 c -0.28032,-0.37927 -1.80896,-3.63242 -3.39699,-7.22925 -2.42664,-5.49628 -2.76908,-6.65675 -2.14632,-7.27334 0.40755,-0.40351 3.31662,-1.38799 6.46461,-2.18775 9.8343,-2.49846 30.19392,-8.02747 30.42651,-8.26283 0.12205,-0.12353 -8.5137,-4.64271 -19.19058,-10.0426 -10.6769,-5.39991 -19.41254,-10.14156 -19.41254,-10.537 0,-0.66207 11.65499,-14.56366 30.9373,-36.9008 4.27367,-4.95071 7.63307,-9.00129 7.46537,-9.00129 -0.1677,0 -12.67138,2.60651 -27.78594,5.79225 -15.11456,3.18573 -27.98697,5.79225 -28.60534,5.79225 -1.73111,0 -1.89304,-1.34685 -0.92254,-7.67329 0.4929,-3.21308 2.02471,-13.41326 3.40399,-22.66708 1.3793,-9.25381 3.30759,-22.01287 4.28509,-28.35346 l 1.77729,-11.528334 -2.22771,2.433205 c -1.22524,1.338263 -9.34134,10.100249 -18.03578,19.471099 -8.69445,9.37086 -16.99605,18.37002 -18.44802,19.99813 -3.44466,3.86259 -4.48906,4.42902 -5.85669,3.17648 -1.11034,-1.0169 -10.21888,-13.57725 -18.17032,-25.05627 -2.62707,-3.79255 -4.8459,-6.96783 -4.93073,-7.05616 -0.19302,-0.20104 -1.50237,7.37023 -3.30708,19.12313 -0.76288,4.9681 -1.7574,9.75768 -2.21006,10.64352 -2.58242,5.05376 -11.47658,4.99455 -13.98805,-0.0932 -0.52419,-1.06191 -0.95346,-3.01131 -0.95394,-4.33198 -8.1e-4,-2.32877 8.91642,-63.778758 9.73797,-67.105816 0.30196,-1.222832 0.77004,-1.698375 1.79278,-1.821337 1.55184,-0.186569 -0.87343,-3.575011 28.53371,39.865693 3.59771,5.31458 6.69703,9.60305 6.88739,9.52992 0.19035,-0.0732 5.68383,-5.96659 12.20772,-13.096576 6.52389,-7.129986 13.97238,-15.200298 16.55219,-17.934025 2.57982,-2.733736 10.08712,-10.799631 16.6829,-17.924227 19.31528,-20.863862 19.63216,-21.181637 20.70646,-20.764449 0.75448,0.293001 0.88267,0.751389 0.60308,2.156436 -0.1953,0.981388 -2.05388,12.830995 -4.1302,26.332466 -4.26423,27.728538 -9.59799,62.262025 -10.28817,66.610905 -0.34849,2.19581 -0.29505,2.89613 0.22101,2.89613 0.37436,0 18.55108,-3.59847 40.39274,-7.99659 21.84163,-4.39813 40.38664,-7.9976 41.21111,-7.99882 1.93415,-0.003 1.95924,1.2097 0.0725,3.50381 -2.64273,3.21334 -42.07293,48.54166 -49.94422,57.4151 -4.27763,4.82223 -5.21151,6.16612 -4.65442,6.69784 0.64626,0.61683 18.4396,11.7093 41.4436,25.83616 5.32161,3.26803 9.67564,6.27149 9.67564,6.67437 0,0.98446 -1.94611,1.57344 -25.34744,7.67112 -11.09291,2.89048 -25.81077,6.75132 -32.70637,8.57965 -6.89559,1.82835 -12.93667,3.32471 -13.42463,3.32526 -0.48796,5.6e-4 -1.11655,-0.30928 -1.39686,-0.68853 z m -296.43415,-33.3327 c -0.59961,-0.15254 -9.55297,-2.7351 -19.896368,-5.73906 -38.180163,-11.08832 -35.74372,-10.22317 -37.63631,-13.36432 -2.508346,-4.16314 -0.660038,-9.85498 3.6993,-11.39197 2.241342,-0.79024 2.505752,-0.73654 16.880521,3.42818 8.031934,2.32705 20.718287,5.97787 28.191887,8.11295 7.4736,2.13507 14.15285,4.25627 14.84278,4.71376 3.99784,2.65088 4.0215,10.59236 0.0393,13.18736 -1.4059,0.91616 -4.53987,1.45534 -6.1211,1.0531 z m 18.83095,-39.96051 c -2.86093,-1.76499 -45.62561,-44.48415 -46.382341,-46.33296 -0.376476,-0.9198 -0.536959,-2.73221 -0.372597,-4.20792 0.579772,-5.2054 6.350545,-7.9996 11.211235,-5.42845 1.759067,0.93049 44.173373,43.20665 45.415023,45.26711 2.10679,3.49611 0.74122,8.49577 -2.94101,10.76778 -2.28813,1.41182 -4.57059,1.39023 -6.93031,-0.0656 z m 37.80629,-23.60129 c -1.00818,-0.62216 -2.05839,-1.97628 -2.60508,-3.35899 -1.29184,-3.26734 -13.42175,-52.688503 -13.42175,-54.684542 0,-7.092101 10.55758,-9.80274 14.35539,-3.685716 0.73765,1.188104 4.41074,15.680218 10.80747,42.640768 3.25206,13.70661 3.27635,15.51306 0.24631,18.32319 -1.69189,1.56909 -2.33798,1.81151 -4.82339,1.80972 -1.85154,-9.7e-4 -3.46917,-0.37192 -4.55895,-1.04443 z"
     id="path1" /><path
     style="fill:#ffffff;stroke-width:8.62074;stroke-linecap:round"
     d="m 113.52978,469.48983 c -26.007538,-7.07883 -67.205277,-46.97758 -84.311353,-81.653 -5.158174,-10.45604 -6.222612,-13.95955 -6.269236,-20.63469 -0.03659,-5.2388 0.113351,-6.09835 1.597348,-9.15683 2.444039,-5.03711 7.211625,-9.77707 21.47017,-21.34573 30.714579,-24.92025 34.768562,-29.24045 51.128185,-54.48567 11.432606,-17.64214 16.232276,-24.06339 28.945806,-38.72515 13.30054,-15.33874 53.39801,-55.53002 61.21375,-61.35697 1.80895,-1.34864 6.43649,-4.06955 10.2834,-6.04645 9.83508,-5.05418 13.66967,-7.68975 20.13728,-13.84063 9.2943,-8.83918 13.70507,-11.17125 22.53869,-11.91679 8.2336,-0.69488 17.00037,2.00209 42.01246,12.92459 28.74667,12.55336 32.53939,15.00454 46.91814,30.32276 9.51968,10.14166 15.00005,17.36065 17.81779,23.47038 1.39557,3.02604 1.52506,3.91825 1.52872,10.53298 0.004,7.47549 -1.07041,13.00693 -2.93733,15.12056 -0.46436,0.52573 -2.43372,1.54332 -4.37636,2.26133 -1.94264,0.718 -6.73859,2.58574 -10.65766,4.15052 -3.91906,1.56478 -7.20981,2.58937 -7.31274,2.27685 -0.10294,-0.31253 -1.75831,-3.00065 -3.67863,-5.97362 -2.93109,-4.53783 -7.12144,-9.08423 -26.1083,-28.32663 -12.43927,-12.60668 -23.74804,-23.72887 -25.1306,-24.71596 -4.62182,-3.29984 -9.20676,-1.76284 -11.74697,3.93788 -1.85017,4.15216 -2.64108,3.17702 29.11219,35.89428 14.91878,15.3717 22.56869,24.37487 22.56869,26.56107 0,0.60725 -1.38743,2.09714 -3.28498,3.52755 -4.8504,3.65634 -10.04229,8.2117 -16.07538,14.10451 -5.89532,5.75824 -5.49202,5.72373 -6.84917,0.58606 -0.33999,-1.28708 -1.41314,-3.55473 -2.38478,-5.03922 -2.44361,-3.73343 -17.30222,-19.5489 -36.99682,-39.37935 l -16.58046,-16.69484 -3.50307,0.25643 c -2.95753,0.21649 -3.7723,0.52888 -5.23187,2.00597 -1.80253,1.82413 -2.67456,5.20389 -2.0218,7.8359 0.4698,1.89423 5.15689,7.04824 27.84332,30.61696 10.91807,11.34268 20.55385,21.83672 21.41286,23.32008 1.48817,2.56981 1.54519,2.94697 1.20877,7.99543 -0.55412,8.31549 -3.15318,25.98885 -4.45539,30.29606 -2.91752,9.65013 -9.08416,17.12893 -17.65948,21.41712 -5.42687,2.71378 -7.10605,3.06006 -6.57134,1.35516 0.93833,-2.99188 2.58781,-17.24604 2.58416,-22.33129 -0.007,-9.47407 -1.90074,-14.58985 -8.86268,-23.93915 -10.37909,-13.93829 -37.90393,-41.88104 -43.29623,-43.95362 -7.18067,-2.75995 -13.53128,5.0175 -9.27405,11.35773 0.77036,1.14726 8.71078,9.78405 17.64539,19.19285 19.97129,21.03122 22.79991,24.28277 24.94079,28.66992 2.64042,5.41083 3.21587,10.46029 2.01816,17.70901 -1.22216,7.39675 -3.26624,14.64814 -5.24402,18.60321 -0.82566,1.65114 -3.07342,4.56307 -4.995,6.47097 -9.83646,9.76639 -25.68994,12.8099 -37.79438,7.25566 -7.12069,-3.26739 -11.86216,-9.75023 -12.62472,-17.26131 -0.36792,-3.62401 -0.3619,-3.64413 1.00002,-3.33741 3.23488,0.72852 10.61678,1.49072 14.40859,1.48774 7.27585,-0.006 9.86083,-1.46383 11.31741,-6.38376 0.56015,-1.89203 0.48043,-2.53033 -0.5975,-4.78375 -1.53559,-3.21012 -3.14401,-3.93599 -11.72647,-5.29203 -8.36745,-1.32206 -15.01135,-3.60471 -23.62149,-8.11564 -7.80769,-4.09053 -9.99615,-4.53636 -12.70076,-2.58739 -3.37735,2.43371 -4.36065,9.20734 -1.83808,12.66195 0.60057,0.8225 2.61182,2.43307 4.46941,3.57908 l 3.37746,2.08362 0.10942,7.7982 c 0.18966,13.51564 2.75007,20.43427 10.44797,28.2321 7.62682,7.72581 15.70755,10.59269 30.00491,10.64509 11.6187,0.0426 20.11818,-2.24541 29.41847,-7.91921 3.80343,-2.32033 10.3982,-7.54932 12.09459,-9.58979 0.69813,-0.83973 1.98847,-1.24653 4.85606,-1.53096 8.71912,-0.86485 18.32503,-4.38164 24.86168,-9.10203 4.66246,-3.36696 11.38787,-10.19344 14.30259,-14.51754 l 2.27828,-3.37989 0.98986,1.64544 c 1.86058,3.09282 9.73558,9.9637 13.50817,11.78579 9.89149,4.77738 19.73408,5.25067 30.80323,1.48121 16.70584,-5.68898 33.5868,-16.49899 35.19331,-22.53664 1.33082,-5.00157 -1.73233,-11.48827 -5.42501,-11.48827 -0.81132,0 -4.63664,2.01987 -8.74935,4.61988 -11.76545,7.438 -23.02046,12.76923 -30.17425,14.29282 -7.29075,1.55274 -15.59703,-1.1846 -20.60144,-6.7892 -3.37973,-3.78509 -4.87595,-7.14335 -5.24272,-11.76736 -0.56743,-7.15386 1.85385,-12.18178 9.49294,-19.7126 11.56811,-11.40414 22.62508,-19.29162 37.78947,-26.95708 10.76649,-5.44238 15.95131,-7.26453 21.9847,-7.7263 3.79437,-0.29042 4.56553,-0.16365 7.32968,1.20495 5.85131,2.89711 10.81044,9.61283 12.76569,17.28746 2.05228,8.0555 -0.55723,28.01382 -4.94241,37.80113 -5.15993,11.51646 -12.03648,18.31538 -36.85201,36.43606 -5.65587,4.13 -16.19636,11.8935 -23.42331,17.25219 -7.22694,5.35871 -15.6982,11.4408 -18.82502,13.51578 -15.40637,10.2238 -32.67953,16.38612 -52.01619,18.55716 -6.29465,0.70674 -21.12941,0.7005 -27.70805,-0.0116 -2.67083,-0.28912 -7.48315,-0.70174 -10.69402,-0.91694 l -5.83798,-0.39125 -2.30305,2.33068 c -2.0801,2.10504 -2.30306,2.61252 -2.30306,5.24216 0,1.60132 -0.14727,3.29987 -0.32726,3.77455 -0.29959,0.79007 -37.72929,37.7164 -51.51234,50.81956 -7.02876,6.68207 -9.75254,7.98256 -16.59501,7.92348 -2.42338,-0.0209 -5.78866,-0.41434 -7.4784,-0.87426 z"
     id="path2" /></svg>
