<?xml version="1.0" encoding="UTF-8" standalone="no"?>
<!-- Created with Inkscape (http://www.inkscape.org/) -->

<svg
   version="1.1"
   id="svg1"
   width="512.7594"
   height="512.75946"
   viewBox="0 0 512.7594 512.75946"
   xml:space="preserve"
   xmlns="http://www.w3.org/2000/svg"
   xmlns:svg="http://www.w3.org/2000/svg"><defs
     id="defs1" /><g
     id="g1"
     transform="translate(1.7221525,0.40615398)"><g
       id="g131"
       transform="translate(-0.84418777,-0.84418783)"><path
         style="fill:#d0d0d0;fill-opacity:1"
         d="m 255.43674,494.98302 238.16282,-0.0629 0.0686,-12.0177 0.0686,-12.0177 -0.004,12.08042 -0.004,12.08043 -238.22781,2e-4 -238.227822,1.9e-4 z m 232.36215,-24.77003 c 0.18074,-0.0723 0.39668,-0.0634 0.47988,0.0198 0.0832,0.0832 -0.0647,0.14237 -0.32861,0.1315 -0.29167,-0.012 -0.351,-0.0713 -0.15127,-0.15127 z m -13.52002,-1.25185 c 0.18074,-0.0723 0.39668,-0.0634 0.47988,0.0198 0.0832,0.0832 -0.0647,0.14237 -0.32861,0.1315 -0.29167,-0.012 -0.351,-0.0713 -0.15127,-0.15127 z M 213.25221,427.94618 c 0.003,-0.55082 0.0541,-0.74667 0.11394,-0.43523 0.0599,0.31144 0.0576,0.7621 -0.005,1.00148 -0.0627,0.23938 -0.11166,-0.0154 -0.10888,-0.56625 z m 0,-7.01039 c 0.003,-0.55081 0.0541,-0.74667 0.11394,-0.43523 0.0599,0.31144 0.0576,0.76211 -0.005,1.00149 -0.0627,0.23937 -0.11166,-0.0154 -0.10888,-0.56626 z m -12.06117,-15.29348 c 0.012,-0.29167 0.0713,-0.35099 0.15126,-0.15127 0.0723,0.18074 0.0634,0.39669 -0.0198,0.47988 -0.0832,0.0832 -0.14237,-0.0647 -0.1315,-0.32861 z m 47.51875,-13.81212 c -0.31143,-0.3971 -0.30258,-0.40596 0.0945,-0.0945 0.41705,0.32708 0.54968,0.53268 0.34362,0.53268 -0.052,0 -0.24916,-0.19717 -0.43815,-0.43815 z m -8.62965,-7.63631 -0.47695,-0.56334 0.56333,0.47696 c 0.5294,0.44822 0.67732,0.64971 0.47696,0.64971 -0.0475,0 -0.30101,-0.2535 -0.56334,-0.56333 z m -4.89038,-4.63186 c -0.31142,-0.3971 -0.30257,-0.40596 0.0945,-0.0945 0.41706,0.32708 0.54969,0.53268 0.34362,0.53268 -0.052,0 -0.24915,-0.19717 -0.43815,-0.43815 z m -1.36889,-1.37704 -0.47695,-0.56334 0.56333,0.47696 c 0.30984,0.26232 0.56334,0.51582 0.56334,0.56333 0,0.20036 -0.2015,0.0524 -0.64972,-0.47695 z m -83.45511,-3.33828 c 0.012,-0.29167 0.0713,-0.35099 0.15127,-0.15126 0.0723,0.18073 0.0634,0.39668 -0.0198,0.47987 -0.0832,0.0832 -0.14237,-0.0647 -0.1315,-0.32861 z m 79.81659,-0.2921 c -0.31143,-0.3971 -0.30258,-0.40596 0.0945,-0.0945 0.24098,0.18899 0.43815,0.38616 0.43815,0.43815 0,0.20607 -0.20561,0.0734 -0.53268,-0.34362 z m -17.643,-5.63334 -0.47695,-0.56333 0.56334,0.47695 c 0.52939,0.44822 0.67731,0.64971 0.47695,0.64971 -0.0475,0 -0.30101,-0.2535 -0.56334,-0.56333 z m -18.93888,-8.37672 c 0.31144,-0.0599 0.76211,-0.0576 1.00149,0.005 0.23937,0.0627 -0.0154,0.11167 -0.56626,0.10889 -0.55081,-0.003 -0.74667,-0.0541 -0.43523,-0.11394 z m 141.22186,-6.75397 c 0.18074,-0.0723 0.39669,-0.0634 0.47988,0.0198 0.0832,0.0832 -0.0647,0.14237 -0.32861,0.1315 -0.29167,-0.012 -0.35099,-0.0713 -0.15127,-0.15127 z m 15.02225,0 c 0.18074,-0.0723 0.39668,-0.0634 0.47988,0.0198 0.0832,0.0832 -0.0647,0.14237 -0.32861,0.1315 -0.29167,-0.012 -0.351,-0.0713 -0.15127,-0.15127 z m 7.01038,-0.50074 c 0.18074,-0.0723 0.39669,-0.0634 0.47988,0.0198 0.0832,0.0832 -0.0647,0.14237 -0.32861,0.1315 -0.29167,-0.012 -0.35099,-0.0713 -0.15127,-0.15127 z m -222.01218,-1.22687 c 0.012,-0.29167 0.0713,-0.351 0.15126,-0.15127 0.0723,0.18074 0.0634,0.39668 -0.0198,0.47988 -0.0832,0.0832 -0.14237,-0.0647 -0.13149,-0.32861 z m 11.79647,-7.49026 c 0.005,-0.41311 0.0612,-0.5518 0.12469,-0.3082 0.0635,0.2436 0.0593,0.5816 -0.009,0.75111 -0.0686,0.16951 -0.12052,-0.0298 -0.11541,-0.44291 z m -10.96955,-6.76001 c 5e-4,-1.65245 0.041,-2.29587 0.09,-1.42982 0.049,0.86604 0.0486,2.21805 -9e-4,3.00445 -0.0495,0.7864 -0.0896,0.0778 -0.0891,-1.57463 z m 217.22628,-5.4775 c 0,-0.052 0.19716,-0.24916 0.43815,-0.43815 0.3971,-0.31143 0.40595,-0.30258 0.0945,0.0945 -0.32707,0.41705 -0.53267,0.54968 -0.53267,0.34362 z m -206.26601,-1.90844 c 0,-0.34426 0.0568,-0.48509 0.12628,-0.31296 0.0695,0.17213 0.0695,0.45379 0,0.62592 -0.0694,0.17213 -0.12628,0.0313 -0.12628,-0.31296 z m -11.53682,-4.9031 c 0.012,-0.29166 0.0713,-0.35099 0.15126,-0.15126 0.0723,0.18073 0.0634,0.39668 -0.0198,0.47988 -0.0832,0.0832 -0.14238,-0.0647 -0.1315,-0.32862 z m 225.81469,-0.98061 c 0.32342,-0.34426 0.64436,-0.62593 0.71322,-0.62593 0.0688,0 -0.13943,0.28167 -0.46285,0.62593 -0.32341,0.34425 -0.64436,0.62592 -0.71321,0.62592 -0.0688,0 0.13943,-0.28167 0.46284,-0.62592 z m -114.20102,-6.0715 c -0.31143,-0.3971 -0.30257,-0.40595 0.0945,-0.0945 0.41705,0.32708 0.54968,0.53268 0.34362,0.53268 -0.052,0 -0.24916,-0.19716 -0.43815,-0.43815 z m 120.96103,-0.40749 c 0,-0.052 0.19717,-0.24916 0.43815,-0.43815 0.3971,-0.31143 0.40596,-0.30257 0.0945,0.0945 -0.32708,0.41706 -0.53268,0.54968 -0.53268,0.34362 z m -126.46919,-4.59992 c -0.31143,-0.3971 -0.30257,-0.40596 0.0945,-0.0945 0.41706,0.32708 0.54969,0.53268 0.34362,0.53268 -0.052,0 -0.24916,-0.19717 -0.43815,-0.43815 z m 133.47958,-2.16009 c 0,-0.052 0.19716,-0.24916 0.43814,-0.43815 0.39711,-0.31143 0.40596,-0.30257 0.0945,0.0945 -0.32707,0.41705 -0.53267,0.54968 -0.53267,0.34362 z M 52.451016,303.29217 c 0,-0.052 0.197167,-0.24915 0.438149,-0.43815 0.397102,-0.31142 0.405957,-0.30257 0.09453,0.0945 -0.327077,0.41706 -0.532678,0.54969 -0.532678,0.34362 z m 7.010382,-6.25927 c 0,-0.052 0.197167,-0.24915 0.438149,-0.43815 0.397102,-0.31142 0.405958,-0.30257 0.09453,0.0945 -0.327077,0.41706 -0.532678,0.54969 -0.532678,0.34362 z m 7.761495,-7.26075 c 0,-0.052 0.197167,-0.24916 0.438149,-0.43815 0.397102,-0.31143 0.405958,-0.30257 0.09453,0.0945 -0.327077,0.41705 -0.532678,0.54968 -0.532678,0.34362 z m -49.958245,-1.72066 c -0.06531,-0.17213 -0.08994,-60.8714 -0.05473,-134.88727 l 0.06401,-134.574303 0.125184,134.887273 c 0.06885,74.18799 0.09348,134.88727 0.05473,134.88727 -0.03875,-1e-5 -0.123884,-0.14084 -0.189191,-0.31297 z m 65.731605,-14.30307 c 0,-0.052 0.197167,-0.24916 0.438149,-0.43815 0.397102,-0.31143 0.405958,-0.30257 0.09453,0.0945 -0.327077,0.41705 -0.532678,0.54968 -0.532678,0.34362 z m 2.503708,-2.75408 c 0,-0.052 0.197168,-0.24916 0.438149,-0.43815 0.397102,-0.31143 0.405958,-0.30257 0.09453,0.0945 -0.327077,0.41705 -0.532678,0.54968 -0.532678,0.34362 z M 257.04349,260.82367 c 0,-0.34426 0.0568,-0.4851 0.12629,-0.31297 0.0695,0.17213 0.0695,0.4538 0,0.62593 -0.0695,0.17213 -0.12629,0.0313 -0.12629,-0.31296 z M 71.979938,256.97358 c 0,-0.052 0.197167,-0.24916 0.438149,-0.43815 0.397102,-0.31143 0.405958,-0.30258 0.09453,0.0945 -0.327077,0.41705 -0.532678,0.54968 -0.532678,0.34362 z m 303.073852,-0.90696 c 0.24924,-0.27541 0.5095,-0.50074 0.57835,-0.50074 0.0688,0 -0.0787,0.22533 -0.32798,0.50074 -0.24924,0.27541 -0.5095,0.50074 -0.57835,0.50074 -0.0688,0 0.0787,-0.22533 0.32798,-0.50074 z m 1.25186,-1.25185 c 0.24924,-0.27541 0.50949,-0.50074 0.57835,-0.50074 0.0688,0 -0.0787,0.22533 -0.32798,0.50074 -0.24924,0.27541 -0.5095,0.50074 -0.57835,0.50074 -0.0689,0 0.0787,-0.22533 0.32798,-0.50074 z m 1.25185,-1.25186 c 0.24924,-0.2754 0.5095,-0.50074 0.57835,-0.50074 0.0688,0 -0.0787,0.22534 -0.32798,0.50074 -0.24924,0.27541 -0.5095,0.50074 -0.57835,0.50074 -0.0688,0 0.0787,-0.22533 0.32798,-0.50074 z m -120.50473,-0.37555 c 0.005,-0.41311 0.0612,-0.5518 0.12469,-0.3082 0.0635,0.2436 0.0593,0.5816 -0.009,0.75111 -0.0686,0.16951 -0.12052,-0.0298 -0.11542,-0.44291 z m 142.18157,-8.2831 c 0.012,-0.29167 0.0713,-0.351 0.15127,-0.15127 0.0723,0.18074 0.0634,0.39668 -0.0198,0.47988 -0.0832,0.0832 -0.14237,-0.0647 -0.1315,-0.32861 z M 115.31385,203.84345 c 0.012,-0.29167 0.0713,-0.351 0.15127,-0.15127 0.0723,0.18074 0.0634,0.39668 -0.0198,0.47988 -0.0832,0.0832 -0.14237,-0.0647 -0.1315,-0.32861 z M 97.036784,203.3427 c 0.01201,-0.29166 0.07134,-0.35099 0.151266,-0.15126 0.07232,0.18073 0.06343,0.39668 -0.01977,0.47988 -0.0832,0.0832 -0.142371,-0.0647 -0.1315,-0.32862 z m 0.270137,-4.11025 c 0,-0.34426 0.05683,-0.48509 0.126284,-0.31296 0.06946,0.17213 0.06946,0.45379 0,0.62592 -0.06946,0.17213 -0.126284,0.0313 -0.126284,-0.31296 z m 18.556099,-5.50816 c 0,-0.61967 0.0488,-0.87317 0.1085,-0.56333 0.0597,0.30983 0.0597,0.81683 0,1.12667 -0.0597,0.30983 -0.1085,0.0563 -0.1085,-0.56334 z m 0,-13.01928 c 0,-0.61967 0.0488,-0.87317 0.1085,-0.56333 0.0597,0.30983 0.0597,0.81683 0,1.12666 -0.0597,0.30984 -0.1085,0.0563 -0.1085,-0.56333 z m -18.556099,-8.01187 c 0,-0.34426 0.05683,-0.48509 0.126284,-0.31296 0.06946,0.17213 0.06946,0.4538 0,0.62593 -0.06946,0.17213 -0.126284,0.0313 -0.126284,-0.31297 z m 18.026699,-5.25778 c 0,-0.34426 0.0568,-0.4851 0.12628,-0.31297 0.0695,0.17213 0.0695,0.4538 0,0.62593 -0.0695,0.17213 -0.12628,0.0313 -0.12628,-0.31296 z m -18.277069,-0.75111 c 0,-0.34426 0.05683,-0.4851 0.126283,-0.31297 0.06946,0.17213 0.06946,0.4538 0,0.62593 -0.06946,0.17213 -0.126283,0.0313 -0.126283,-0.31296 z m 365.705259,-2.92512 c 0.18074,-0.0723 0.39668,-0.0634 0.47988,0.0198 0.0832,0.0832 -0.0647,0.14237 -0.32861,0.1315 -0.29167,-0.012 -0.351,-0.0713 -0.15127,-0.15127 z m 7.24511,0.005 c 0.17213,-0.0695 0.4538,-0.0695 0.62593,0 0.17213,0.0695 0.0313,0.12628 -0.31297,0.12628 -0.34426,0 -0.48509,-0.0568 -0.31296,-0.12628 z m -354.94344,-0.98172 c 0.012,-0.29166 0.0713,-0.35099 0.15127,-0.15126 0.0723,0.18073 0.0634,0.39668 -0.0198,0.47988 -0.0832,0.0832 -0.14237,-0.0647 -0.1315,-0.32862 z M 96.536043,158.7767 c 0.01201,-0.29167 0.07134,-0.35099 0.151266,-0.15126 0.07232,0.18073 0.06343,0.39668 -0.01977,0.47987 -0.0832,0.0832 -0.142371,-0.0647 -0.131499,-0.32861 z m 12.702197,-1.27684 c 0.18074,-0.0723 0.39668,-0.0634 0.47988,0.0198 0.0832,0.0832 -0.0647,0.14237 -0.32861,0.1315 -0.29167,-0.012 -0.351,-0.0713 -0.15127,-0.15127 z m 309.57261,-23.28695 c 0.24361,-0.0635 0.58161,-0.0593 0.75112,0.009 0.16951,0.0686 -0.0298,0.12053 -0.44292,0.11542 -0.41311,-0.005 -0.5518,-0.0612 -0.3082,-0.12469 z m 10.268,-0.26121 c 0.65825,-0.0517 1.67225,-0.0511 2.25333,0.001 0.58109,0.0525 0.0425,0.0948 -1.19681,0.0941 -1.23934,-7.6e-4 -1.71477,-0.0437 -1.05652,-0.0955 z m 45.93548,-0.48222 c 0.17213,-0.0695 0.4538,-0.0695 0.62593,0 0.17213,0.0695 0.0313,0.12629 -0.31296,0.12629 -0.34426,0 -0.4851,-0.0568 -0.31297,-0.12629 z m 8.77863,-0.50595 c 0.18074,-0.0723 0.39668,-0.0634 0.47988,0.0198 0.0832,0.0832 -0.0647,0.14237 -0.32861,0.1315 -0.29167,-0.012 -0.351,-0.0713 -0.15127,-0.15126 z M 331.33215,108.66081 c -0.31143,-0.3971 -0.30257,-0.40596 0.0945,-0.0945 0.41705,0.32708 0.54968,0.53268 0.34362,0.53268 -0.052,0 -0.24916,-0.19717 -0.43815,-0.43815 z"
         id="path138" /><path
         style="fill:#b9b9b9;fill-opacity:1"
         d="m 202.19252,431.68087 c 0.012,-0.29166 0.0713,-0.35099 0.15127,-0.15126 0.0723,0.18073 0.0634,0.39668 -0.0198,0.47988 -0.0832,0.0832 -0.14237,-0.0647 -0.1315,-0.32862 z m 0.0198,-14.12508 c 0,-0.34426 0.0568,-0.4851 0.12628,-0.31297 0.0695,0.17213 0.0695,0.4538 0,0.62593 -0.0695,0.17213 -0.12628,0.0313 -0.12628,-0.31296 z m -15.96187,-30.10709 -0.47695,-0.56334 0.56333,0.47696 c 0.5294,0.44822 0.67731,0.64971 0.47695,0.64971 -0.0475,0 -0.30101,-0.2535 -0.56333,-0.56333 z m 32.75526,-4.19371 c 0,-0.48197 0.0515,-0.67913 0.11451,-0.43815 0.063,0.24098 0.063,0.63531 0,0.8763 -0.063,0.24098 -0.11451,0.0438 -0.11451,-0.43815 z m -87.41773,-2.14902 c 0.012,-0.29167 0.0713,-0.35099 0.15127,-0.15126 0.0723,0.18073 0.0634,0.39668 -0.0198,0.47987 -0.0832,0.0832 -0.14237,-0.0647 -0.1315,-0.32861 z m 0,-3.00445 c 0.012,-0.29167 0.0713,-0.35099 0.15127,-0.15126 0.0723,0.18073 0.0634,0.39668 -0.0198,0.47987 -0.0832,0.0832 -0.14237,-0.0647 -0.1315,-0.32861 z m 101.23144,-0.91802 -0.47695,-0.56334 0.56333,0.47695 c 0.5294,0.44822 0.67731,0.64972 0.47695,0.64972 -0.0475,0 -0.30101,-0.2535 -0.56333,-0.56333 z m -1.25185,-1.25186 -0.47696,-0.56333 0.56334,0.47695 c 0.52939,0.44822 0.67731,0.64972 0.47695,0.64972 -0.0475,0 -0.30101,-0.2535 -0.56333,-0.56334 z m -96.22402,-29.62721 c 0.012,-0.29167 0.0713,-0.35099 0.15126,-0.15127 0.0723,0.18074 0.0634,0.39669 -0.0198,0.47988 -0.0832,0.0832 -0.14237,-0.0647 -0.1315,-0.32861 z m 11.26668,-0.75111 c 0.012,-0.29167 0.0713,-0.351 0.15127,-0.15127 0.0723,0.18074 0.0634,0.39668 -0.0198,0.47988 -0.0832,0.0832 -0.14237,-0.0647 -0.1315,-0.32861 z m -0.20699,-7.991 c 0.003,-0.55082 0.054,-0.74667 0.11393,-0.43523 0.0599,0.31144 0.0576,0.7621 -0.005,1.00148 -0.0627,0.23938 -0.11166,-0.0154 -0.10888,-0.56625 z m 208.24536,-7.01039 c 0.32342,-0.34426 0.64436,-0.62592 0.71322,-0.62592 0.0688,0 -0.13943,0.28166 -0.46285,0.62592 -0.32341,0.34426 -0.64436,0.62593 -0.71321,0.62593 -0.0688,0 0.13943,-0.28167 0.46284,-0.62593 z M 146.63,329.42527 c 0,-0.34426 0.0568,-0.4851 0.12628,-0.31297 0.0695,0.17213 0.0695,0.4538 0,0.62593 -0.0694,0.17213 -0.12628,0.0313 -0.12628,-0.31296 z m -11.28645,-0.6468 c 0.012,-0.29166 0.0713,-0.35099 0.15126,-0.15126 0.0723,0.18074 0.0634,0.39668 -0.0198,0.47988 -0.0832,0.0832 -0.14237,-0.0647 -0.1315,-0.32862 z m 226.81618,-5.48729 c 0.32341,-0.34426 0.64436,-0.62593 0.71321,-0.62593 0.0688,0 -0.13943,0.28167 -0.46284,0.62593 -0.32342,0.34426 -0.64436,0.62593 -0.71322,0.62593 -0.0688,0 0.13943,-0.28167 0.46285,-0.62593 z m -227.31692,-1.27272 c 0.012,-0.29166 0.0713,-0.35099 0.15126,-0.15126 0.0723,0.18073 0.0634,0.39668 -0.0198,0.47987 -0.0832,0.0832 -0.14237,-0.0647 -0.13149,-0.32861 z m 242.3787,-0.85543 c 0,-0.34426 0.0568,-0.48509 0.12628,-0.31296 0.0695,0.17213 0.0695,0.45379 0,0.62592 -0.0695,0.17213 -0.12628,0.0313 -0.12628,-0.31296 z m 0.009,-6.8852 c 0.005,-0.41311 0.0612,-0.5518 0.1247,-0.3082 0.0635,0.24361 0.0593,0.58161 -0.009,0.75112 -0.0686,0.16951 -0.12052,-0.0298 -0.11542,-0.44292 z m -243.63983,-4.52754 c 0.012,-0.29166 0.0713,-0.35099 0.15127,-0.15126 0.0723,0.18073 0.0634,0.39668 -0.0198,0.47988 -0.0832,0.0832 -0.14237,-0.0647 -0.1315,-0.32862 z m 242.33917,0.3019 c 0,-0.052 0.19717,-0.24916 0.43815,-0.43815 0.3971,-0.31143 0.40596,-0.30258 0.0945,0.0945 -0.32708,0.41705 -0.53268,0.54968 -0.53268,0.34362 z m -135.68121,-2.30486 c 0.012,-0.29167 0.0713,-0.351 0.15127,-0.15127 0.0723,0.18074 0.0634,0.39668 -0.0198,0.47988 -0.0832,0.0832 -0.14237,-0.0647 -0.1315,-0.32861 z M 63.842887,292.87113 c 0.249241,-0.27541 0.509499,-0.50074 0.578351,-0.50074 0.06885,0 -0.07874,0.22533 -0.32798,0.50074 -0.249241,0.27541 -0.509498,0.50074 -0.57835,0.50074 -0.06885,0 0.07874,-0.22533 0.327979,-0.50074 z m 5.508158,-5.25779 c 0.249241,-0.27541 0.509498,-0.50074 0.57835,-0.50074 0.06885,0 -0.07874,0.22533 -0.327979,0.50074 -0.249241,0.27541 -0.509499,0.50074 -0.578351,0.50074 -0.06885,0 0.07874,-0.22533 0.32798,-0.50074 z m 76.589675,-6.32186 -0.47695,-0.56333 0.56333,0.47695 c 0.5294,0.44822 0.67732,0.64971 0.47696,0.64971 -0.0475,0 -0.30101,-0.2535 -0.56334,-0.56333 z m -67.826697,-2.44112 c 0.249241,-0.2754 0.509498,-0.50074 0.57835,-0.50074 0.06885,0 -0.07874,0.22534 -0.327979,0.50074 -0.249241,0.27541 -0.509499,0.50075 -0.578351,0.50075 -0.06885,0 0.07874,-0.22534 0.32798,-0.50075 z m 38.306737,-1.75259 c 0.24924,-0.27541 0.50949,-0.50074 0.57835,-0.50074 0.0688,0 -0.0787,0.22533 -0.32798,0.50074 -0.24924,0.27541 -0.5095,0.50074 -0.57835,0.50074 -0.0689,0 0.0787,-0.22533 0.32798,-0.50074 z m 137.82912,-6.85454 c 0,-0.052 0.19717,-0.24916 0.43815,-0.43815 0.3971,-0.31143 0.40596,-0.30257 0.0945,0.0945 -0.32708,0.41705 -0.53268,0.54968 -0.53268,0.34362 z M 66.471781,262.23136 c 0,-0.052 0.197167,-0.24916 0.438149,-0.43815 0.397102,-0.31143 0.405957,-0.30257 0.09453,0.0945 -0.327076,0.41706 -0.532677,0.54969 -0.532677,0.34362 z m 3.755562,-3.50519 c 0,-0.052 0.197167,-0.24916 0.438149,-0.43815 0.397102,-0.31143 0.405957,-0.30257 0.09453,0.0945 -0.327076,0.41706 -0.532677,0.54968 -0.532677,0.34362 z m 1.001483,-1.00148 c 0,-0.052 0.197167,-0.24916 0.438149,-0.43815 0.397102,-0.31143 0.405957,-0.30257 0.09453,0.0945 -0.327077,0.41705 -0.532678,0.54968 -0.532678,0.34362 z m 2.879264,-2.90992 c 0.249241,-0.27541 0.509498,-0.50074 0.57835,-0.50074 0.06885,0 -0.07874,0.22533 -0.327979,0.50074 -0.249241,0.27541 -0.509498,0.50074 -0.57835,0.50074 -0.06885,0 0.07874,-0.22533 0.327979,-0.50074 z m 325.39639,-6.0089 c 0,-0.34426 0.0568,-0.4851 0.12628,-0.31297 0.0695,0.17213 0.0695,0.4538 0,0.62593 -0.0695,0.17213 -0.12628,0.0313 -0.12628,-0.31296 z M 97.287155,200.08788 c 0.01201,-0.29166 0.07134,-0.35099 0.151266,-0.15126 0.07232,0.18073 0.06343,0.39668 -0.01977,0.47987 -0.0832,0.0832 -0.142371,-0.0647 -0.1315,-0.32861 z m 18.277065,-1.00148 c 0.012,-0.29167 0.0713,-0.35099 0.15127,-0.15127 0.0723,0.18074 0.0634,0.39669 -0.0198,0.47988 -0.0832,0.0832 -0.14237,-0.0647 -0.1315,-0.32861 z m -17.997651,-4.23544 c 0.0051,-0.41311 0.06122,-0.5518 0.124696,-0.3082 0.06348,0.2436 0.0593,0.58161 -0.0093,0.75111 -0.06858,0.16951 -0.12052,-0.0298 -0.115418,-0.44291 z m 0.01938,-16.39929 c 0,-0.61966 0.04883,-0.87317 0.108503,-0.56333 0.05968,0.30983 0.05968,0.81683 0,1.12667 -0.05968,0.30983 -0.108503,0.0563 -0.108503,-0.56334 z M 115.58399,173.945 c 0,-0.34426 0.0568,-0.48509 0.12628,-0.31296 0.0695,0.17213 0.0695,0.45379 0,0.62592 -0.0694,0.17213 -0.12628,0.0313 -0.12628,-0.31296 z m -18.267791,-2.37852 c 0.0051,-0.41312 0.06122,-0.55181 0.124695,-0.3082 0.06348,0.2436 0.0593,0.5816 -0.0093,0.75111 -0.06858,0.16951 -0.120521,-0.0298 -0.115418,-0.44291 z m 18.017421,-3.12964 c 0,-0.34426 0.0568,-0.48509 0.12628,-0.31296 0.0695,0.17213 0.0695,0.45379 0,0.62592 -0.0695,0.17213 -0.12628,0.0313 -0.12628,-0.31296 z m -0.27014,-4.90309 c 0.012,-0.29167 0.0713,-0.351 0.15127,-0.15127 0.0723,0.18074 0.0634,0.39668 -0.0198,0.47988 -0.0832,0.0832 -0.14237,-0.0647 -0.1315,-0.32861 z m 346.94722,0.22538 c 0.18074,-0.0723 0.39668,-0.0634 0.47988,0.0198 0.0832,0.0832 -0.0647,0.14237 -0.32861,0.1315 -0.29167,-0.012 -0.351,-0.0713 -0.15127,-0.15127 z m -359.2821,-5.75852 c 0.18074,-0.0723 0.39668,-0.0634 0.47988,0.0198 0.0832,0.0832 -0.0647,0.14237 -0.32861,0.1315 -0.29167,-0.012 -0.351,-0.0713 -0.15127,-0.15126 z m 7.26076,-0.50075 c 0.18073,-0.0723 0.39668,-0.0634 0.47987,0.0198 0.0832,0.0832 -0.0647,0.14237 -0.32861,0.1315 -0.29167,-0.012 -0.35099,-0.0713 -0.15126,-0.15127 z M 417.67942,134.2206 c 0.17213,-0.0695 0.4538,-0.0695 0.62593,0 0.17213,0.0695 0.0313,0.12628 -0.31297,0.12628 -0.34426,0 -0.48509,-0.0568 -0.31296,-0.12628 z m 8.26672,-0.26601 c 0.45001,-0.0557 1.12601,-0.0546 1.50223,0.003 0.37622,0.0571 0.008,0.10272 -0.81819,0.10132 -0.82623,-0.001 -1.13404,-0.0481 -0.68404,-0.10387 z m 39.55859,-0.25037 c 0.45,-0.0557 1.126,-0.0546 1.50222,0.003 0.37622,0.0571 0.008,0.10272 -0.81819,0.10132 -0.82622,-0.001 -1.13404,-0.0481 -0.68403,-0.10387 z m 14.03193,-0.49032 c 0.18073,-0.0723 0.39668,-0.0634 0.47987,0.0198 0.0832,0.0832 -0.0647,0.14237 -0.32861,0.1315 -0.29167,-0.012 -0.35099,-0.0713 -0.15126,-0.15126 z M 329.56455,120.19462 c 0.18073,-0.0723 0.39668,-0.0634 0.47987,0.0198 0.0832,0.0832 -0.0647,0.14237 -0.32861,0.1315 -0.29166,-0.012 -0.35099,-0.0713 -0.15126,-0.15126 z m 3.23917,0.005 c 0.17213,-0.0695 0.4538,-0.0695 0.62593,0 0.17213,0.0695 0.0313,0.12629 -0.31297,0.12629 -0.34426,0 -0.48509,-0.0568 -0.31296,-0.12629 z"
         id="path137" /><path
         style="fill:#a3a3a3;fill-opacity:1"
         d="m 217.71551,466.98316 c 0.012,-0.29167 0.0713,-0.351 0.15127,-0.15127 0.0723,0.18074 0.0634,0.39668 -0.0198,0.47988 -0.0832,0.0832 -0.14237,-0.0647 -0.1315,-0.32861 z m -4.47763,-37.53476 c 0.005,-0.41311 0.0612,-0.5518 0.12469,-0.3082 0.0635,0.2436 0.0593,0.58161 -0.009,0.75111 -0.0686,0.16951 -0.12052,-0.0298 -0.11542,-0.44291 z m -0.009,-10.14002 c 0,-0.34426 0.0568,-0.48509 0.12629,-0.31296 0.0694,0.17213 0.0694,0.4538 0,0.62593 -0.0695,0.17213 -0.12629,0.0313 -0.12629,-0.31297 z m 25.59969,-36.36636 -0.47695,-0.56333 0.56333,0.47695 c 0.30983,0.26233 0.56333,0.51583 0.56333,0.56334 0,0.20036 -0.20149,0.0524 -0.64971,-0.47696 z m 103.50517,-28.90108 c 0.18073,-0.0723 0.39668,-0.0634 0.47988,0.0198 0.0832,0.0832 -0.0647,0.14237 -0.32862,0.1315 -0.29166,-0.012 -0.35099,-0.0713 -0.15126,-0.15127 z m -8.51261,-0.25037 c 0.18074,-0.0723 0.39668,-0.0634 0.47988,0.0198 0.0832,0.0832 -0.0647,0.14237 -0.32861,0.1315 -0.29167,-0.012 -0.351,-0.0713 -0.15127,-0.15127 z m 17.00957,0.005 c 0.17213,-0.0695 0.45379,-0.0695 0.62592,0 0.17213,0.0694 0.0313,0.12628 -0.31296,0.12628 -0.34426,0 -0.48509,-0.0568 -0.31296,-0.12628 z m 13.58261,-2.68279 c 0,-0.052 0.19717,-0.24916 0.43815,-0.43815 0.3971,-0.31143 0.40596,-0.30258 0.0945,0.0945 -0.32708,0.41705 -0.53268,0.54968 -0.53268,0.34362 z m -9.01335,-21.26534 c 0,-0.0431 0.36617,-0.40925 0.81371,-0.8137 l 0.8137,-0.73536 -0.73536,0.8137 c -0.68546,0.75849 -0.89205,0.92879 -0.89205,0.73536 z m -220.30653,-5.07512 c 0.012,-0.29167 0.0713,-0.35099 0.15126,-0.15126 0.0723,0.18073 0.0634,0.39668 -0.0198,0.47987 -0.0832,0.0832 -0.14238,-0.0647 -0.1315,-0.32861 z m 234.3273,-8.46108 c 0,-0.052 0.19717,-0.24916 0.43815,-0.43815 0.3971,-0.31143 0.40596,-0.30258 0.0945,0.0945 -0.32708,0.41705 -0.53268,0.54968 -0.53268,0.34362 z M 242.4508,314.71576 c -0.31143,-0.3971 -0.30258,-0.40596 0.0945,-0.0945 0.41705,0.32708 0.54968,0.53268 0.34362,0.53268 -0.052,0 -0.24916,-0.19717 -0.43815,-0.43815 z M 57.708803,298.53513 c 0,-0.052 0.197167,-0.24916 0.438149,-0.43815 0.397102,-0.31143 0.405957,-0.30257 0.09453,0.0945 -0.327076,0.41705 -0.532677,0.54968 -0.532677,0.34362 z m 94.409557,-2.30486 c 0.012,-0.29167 0.0713,-0.35099 0.15127,-0.15127 0.0723,0.18074 0.0634,0.39669 -0.0198,0.47988 -0.0832,0.0832 -0.14237,-0.0647 -0.1315,-0.32861 z m 0,-1.7526 c 0.012,-0.29166 0.0713,-0.35099 0.15127,-0.15126 0.0723,0.18074 0.0634,0.39668 -0.0198,0.47988 -0.0832,0.0832 -0.14237,-0.0647 -0.1315,-0.32862 z m -38.80747,-8.26223 c 0.012,-0.29167 0.0713,-0.351 0.15126,-0.15127 0.0723,0.18074 0.0634,0.39668 -0.0198,0.47988 -0.0832,0.0832 -0.14237,-0.0647 -0.1315,-0.32861 z m 0.0198,-1.35618 c 0,-0.34426 0.0568,-0.48509 0.12629,-0.31296 0.0695,0.17213 0.0695,0.4538 0,0.62593 -0.0695,0.17213 -0.12629,0.0313 -0.12629,-0.31297 z m 31.72563,-4.44408 c -0.31143,-0.3971 -0.30258,-0.40596 0.0945,-0.0945 0.24099,0.18899 0.43815,0.38616 0.43815,0.43815 0,0.20607 -0.2056,0.0734 -0.53267,-0.34362 z m -63.311881,-5.41491 c 0,-0.052 0.197167,-0.24915 0.438149,-0.43815 0.397102,-0.31142 0.405958,-0.30257 0.09453,0.0945 -0.327077,0.41706 -0.532678,0.54969 -0.532678,0.34362 z M 399.52808,250.18291 c 0.003,-0.55082 0.0541,-0.74667 0.11394,-0.43523 0.0599,0.31144 0.0576,0.7621 -0.005,1.00148 -0.0627,0.23938 -0.11166,-0.0154 -0.10889,-0.56625 z m -0.0143,-2.50371 c 0.005,-0.41311 0.0612,-0.5518 0.1247,-0.3082 0.0635,0.2436 0.0593,0.5816 -0.009,0.75111 -0.0686,0.16951 -0.12052,-0.0298 -0.11542,-0.44291 z M 150.86651,212.60642 c 0.012,-0.29166 0.0713,-0.35099 0.15126,-0.15126 0.0723,0.18073 0.0634,0.39668 -0.0198,0.47987 -0.0832,0.0832 -0.14237,-0.0647 -0.1315,-0.32861 z M 97.287155,200.839 c 0.01201,-0.29167 0.07134,-0.351 0.151266,-0.15127 0.07232,0.18074 0.06343,0.39668 -0.01977,0.47988 -0.0832,0.0832 -0.142371,-0.0647 -0.1315,-0.32861 z m 0.270137,-4.86137 c 0,-0.34426 0.05683,-0.48509 0.126284,-0.31296 0.06946,0.17213 0.06946,0.45379 0,0.62592 -0.06946,0.17213 -0.126284,0.0313 -0.126284,-0.31296 z m 18.325018,-5.50816 c 0,-1.17048 0.0431,-1.64932 0.0958,-1.06407 0.0527,0.58524 0.0527,1.54291 0,2.12815 -0.0527,0.58524 -0.0958,0.1064 -0.0958,-1.06408 z m 0,-6.50964 c 0,-1.17048 0.0431,-1.64932 0.0958,-1.06408 0.0527,0.58525 0.0527,1.54291 0,2.12816 -0.0527,0.58524 -0.0958,0.1064 -0.0958,-1.06408 z m -18.315741,-7.13557 c 0.0051,-0.41311 0.06122,-0.5518 0.124696,-0.3082 0.06348,0.24361 0.0593,0.58161 -0.0093,0.75112 -0.06858,0.16951 -0.12052,-0.0298 -0.115418,-0.44292 z m -0.259648,-6.38445 c 0,-0.34426 0.05683,-0.4851 0.126284,-0.31297 0.06946,0.17213 0.06946,0.4538 0,0.62593 -0.06946,0.17213 -0.126284,0.0313 -0.126284,-0.31296 z m 16.688369,-13.19032 c 0.18073,-0.0723 0.39668,-0.0634 0.47988,0.0198 0.0832,0.0832 -0.0647,0.14237 -0.32862,0.1315 -0.29166,-0.012 -0.35099,-0.0713 -0.15126,-0.15127 z m 359.76719,-23.78001 c 0.17213,-0.0695 0.4538,-0.0695 0.62593,0 0.17213,0.0695 0.0313,0.12629 -0.31297,0.12629 -0.34426,0 -0.48509,-0.0568 -0.31296,-0.12629 z M 328.54742,120.19983 c 0.17213,-0.0695 0.45379,-0.0695 0.62592,0 0.17213,0.0695 0.0313,0.12629 -0.31296,0.12629 -0.34426,0 -0.48509,-0.0568 -0.31296,-0.12629 z m 5.55727,-9.03531 -0.86282,-0.93889 0.93889,0.86282 c 0.8739,0.80309 1.05401,1.01496 0.86282,1.01496 -0.0418,0 -0.46434,-0.4225 -0.93889,-0.93889 z"
         id="path136" /><path
         style="fill:#8c8c8c;fill-opacity:1"
         d="m 202.5073,424.81654 c 0,-1.03278 0.0442,-1.45528 0.0982,-0.93889 0.054,0.51639 0.054,1.36139 0,1.87778 -0.054,0.51639 -0.0982,0.0939 -0.0982,-0.93889 z m 35.43654,-42.75081 c -0.31143,-0.39711 -0.30257,-0.40596 0.0945,-0.0945 0.24098,0.18899 0.43815,0.38616 0.43815,0.43815 0,0.20606 -0.2056,0.0734 -0.53268,-0.34362 z m -106.31251,-2.44112 c 0.003,-0.55081 0.0541,-0.74667 0.11394,-0.43523 0.0599,0.31144 0.0576,0.76211 -0.005,1.00148 -0.0627,0.23938 -0.11166,-0.0154 -0.10888,-0.56625 z m 96.18064,-7.6989 -0.47695,-0.56334 0.56333,0.47696 c 0.5294,0.44822 0.67732,0.64971 0.47696,0.64971 -0.0475,0 -0.30101,-0.2535 -0.56334,-0.56333 z M 354.852,353.5402 c 0.18073,-0.0723 0.39668,-0.0634 0.47988,0.0198 0.0832,0.0832 -0.0647,0.14237 -0.32862,0.1315 -0.29166,-0.012 -0.35099,-0.0713 -0.15126,-0.15127 z m -219.50848,-6.23429 c 0.012,-0.29166 0.0713,-0.35099 0.15126,-0.15126 0.0723,0.18073 0.0634,0.39668 -0.0198,0.47988 -0.0832,0.0832 -0.14237,-0.0647 -0.1315,-0.32862 z m 0.29374,-5.48729 c 0.003,-0.55082 0.054,-0.74667 0.11394,-0.43523 0.0599,0.31144 0.0576,0.76211 -0.005,1.00148 -0.0627,0.23938 -0.11167,-0.0154 -0.10889,-0.56625 z m 10.78039,-1.7526 c 0.001,-0.82622 0.0481,-1.13404 0.10387,-0.68403 0.0557,0.45 0.0546,1.126 -0.003,1.50222 -0.0571,0.37622 -0.10272,0.008 -0.10131,-0.81819 z m 0,-5.00741 c 0.001,-0.82622 0.0481,-1.13404 0.10387,-0.68404 0.0557,0.45001 0.0546,1.12601 -0.003,1.50223 -0.0571,0.37622 -0.10272,0.008 -0.10131,-0.81819 z m -10.78039,-1.50223 c 0.003,-0.55081 0.054,-0.74667 0.11394,-0.43523 0.0599,0.31144 0.0576,0.76211 -0.005,1.00149 -0.0627,0.23937 -0.11167,-0.0154 -0.10889,-0.56626 z m 227.52392,-11.23603 c 0,-0.052 0.19717,-0.24915 0.43815,-0.43814 0.3971,-0.31143 0.40596,-0.30258 0.0945,0.0945 -0.32708,0.41706 -0.53268,0.54969 -0.53268,0.34362 z m 7.51112,-7.24456 c 0,-0.0431 0.36617,-0.40926 0.81371,-0.81371 l 0.8137,-0.73536 -0.73536,0.8137 c -0.68546,0.75849 -0.89205,0.92879 -0.89205,0.73537 z m 6.52941,-1.82031 c 0.012,-0.29166 0.0713,-0.35099 0.15127,-0.15126 0.0723,0.18074 0.0634,0.39668 -0.0198,0.47988 -0.0832,0.0832 -0.14237,-0.0647 -0.1315,-0.32862 z M 73.607348,283.35704 c 1.786178,-1.79015 3.303929,-3.25482 3.372781,-3.25482 0.06885,0 -1.336232,1.46467 -3.12241,3.25482 -1.786177,1.79015 -3.303929,3.25482 -3.372781,3.25482 -0.06885,0 1.336233,-1.46467 3.12241,-3.25482 z m -4.631859,-23.37901 c 0,-0.052 0.197167,-0.24916 0.438149,-0.43815 0.397102,-0.31143 0.405957,-0.30258 0.09453,0.0945 -0.327076,0.41705 -0.532677,0.54968 -0.532677,0.34362 z m 46.608501,-61.74706 c 0,-0.34426 0.0568,-0.4851 0.12628,-0.31297 0.0695,0.17213 0.0695,0.4538 0,0.62593 -0.0694,0.17213 -0.12628,0.0313 -0.12628,-0.31296 z m 0.009,-22.90893 c 0.005,-0.41311 0.0612,-0.5518 0.12469,-0.3082 0.0635,0.2436 0.0593,0.5816 -0.009,0.75111 -0.0686,0.16951 -0.12052,-0.0298 -0.11541,-0.44291 z m -0.25965,-5.88372 c 0,-0.34426 0.0568,-0.48509 0.12628,-0.31296 0.0695,0.17213 0.0695,0.4538 0,0.62593 -0.0695,0.17213 -0.12628,0.0313 -0.12628,-0.31297 z m -0.27014,-4.65272 c 0.012,-0.29167 0.0713,-0.35099 0.15127,-0.15127 0.0723,0.18074 0.0634,0.39669 -0.0198,0.47988 -0.0832,0.0832 -0.14237,-0.0647 -0.1315,-0.32861 z m -18.277066,-3.50519 c 0.01201,-0.29167 0.07134,-0.351 0.151265,-0.15127 0.07232,0.18074 0.06343,0.39668 -0.01977,0.47988 -0.0832,0.0832 -0.142371,-0.0647 -0.131499,-0.32861 z m 304.412176,-19.32028 -0.60698,-0.68852 0.68852,0.60698 c 0.37869,0.33383 0.68852,0.64367 0.68852,0.68852 0,0.19636 -0.20275,0.0365 -0.77006,-0.60698 z m 87.20608,-4.06853 c 0,-0.48196 0.0515,-0.67913 0.1145,-0.43815 0.063,0.24099 0.063,0.63532 0,0.8763 -0.063,0.24098 -0.1145,0.0438 -0.1145,-0.43815 z m -71.71108,-3.67622 c 0.18073,-0.0723 0.39668,-0.0634 0.47987,0.0198 0.0832,0.0832 -0.0647,0.14237 -0.32861,0.1315 -0.29167,-0.012 -0.35099,-0.0713 -0.15126,-0.15127 z m 6.74436,-0.25603 c 0.30983,-0.0597 0.81683,-0.0597 1.12667,0 0.30983,0.0597 0.0563,0.1085 -0.56334,0.1085 -0.61966,0 -0.87316,-0.0488 -0.56333,-0.1085 z m 38.31335,-0.25733 c 0.58888,-0.0529 1.49022,-0.0521 2.00297,0.002 0.51275,0.0538 0.0309,0.0971 -1.0707,0.0962 -1.10163,-9.1e-4 -1.52115,-0.0449 -0.93227,-0.0978 z"
         id="path135" /><path
         style="fill:#767676;fill-opacity:1"
         d="m 217.73528,472.88773 c 0,-0.34426 0.0568,-0.48509 0.12628,-0.31296 0.0695,0.17213 0.0695,0.4538 0,0.62593 -0.0695,0.17213 -0.12628,0.0313 -0.12628,-0.31297 z m 0,-4.50667 c 0,-0.34426 0.0568,-0.48509 0.12628,-0.31296 0.0695,0.17213 0.0695,0.45379 0,0.62592 -0.0695,0.17213 -0.12628,0.0313 -0.12628,-0.31296 z m -15.54276,-35.6987 c 0.012,-0.29167 0.0713,-0.351 0.15127,-0.15127 0.0723,0.18074 0.0634,0.39668 -0.0198,0.47988 -0.0832,0.0832 -0.14237,-0.0647 -0.1315,-0.32861 z m 11.01632,-2.25334 c 0.012,-0.29167 0.0713,-0.351 0.15126,-0.15127 0.0723,0.18074 0.0634,0.39669 -0.0198,0.47988 -0.0832,0.0832 -0.14238,-0.0647 -0.1315,-0.32861 z m 0,-12.26817 c 0.012,-0.29167 0.0713,-0.35099 0.15126,-0.15127 0.0723,0.18074 0.0634,0.39669 -0.0198,0.47988 -0.0832,0.0832 -0.14238,-0.0647 -0.1315,-0.32861 z m -11.01632,-1.7526 c 0.012,-0.29166 0.0713,-0.35099 0.15127,-0.15126 0.0723,0.18074 0.0634,0.39668 -0.0198,0.47988 -0.0832,0.0832 -0.14237,-0.0647 -0.1315,-0.32862 z m -22.03263,-41.81192 c 0.012,-0.29167 0.0713,-0.35099 0.15127,-0.15126 0.0723,0.18073 0.0634,0.39668 -0.0198,0.47987 -0.0832,0.0832 -0.14237,-0.0647 -0.1315,-0.32861 z m 45.01504,-5.54989 c -0.31143,-0.3971 -0.30257,-0.40595 0.0945,-0.0945 0.24098,0.18899 0.43815,0.38615 0.43815,0.43814 0,0.20607 -0.2056,0.0734 -0.53268,-0.34362 z m 114.26362,-15.01685 c 0.51639,-0.054 1.36139,-0.054 1.87778,0 0.51639,0.054 0.0939,0.0982 -0.93889,0.0982 -1.03278,0 -1.45528,-0.0442 -0.93889,-0.0982 z m 4.12553,0.002 c 0.44447,-0.0553 1.23313,-0.0562 1.7526,-0.002 0.51946,0.0542 0.1558,0.0995 -0.80813,0.10057 -0.96392,0.001 -1.38894,-0.0432 -0.94447,-0.0985 z m -10.49434,-0.2407 c 0.18074,-0.0723 0.39668,-0.0634 0.47988,0.0198 0.0832,0.0832 -0.0647,0.14237 -0.32862,0.1315 -0.29166,-0.012 -0.35099,-0.0713 -0.15126,-0.15127 z m 18.76216,0.005 c 0.17213,-0.0695 0.4538,-0.0695 0.62593,0 0.17213,0.0694 0.0313,0.12628 -0.31297,0.12628 -0.34426,0 -0.48509,-0.0568 -0.31296,-0.12628 z M 135.09315,350.8111 c 0.012,-0.29166 0.0713,-0.35099 0.15126,-0.15126 0.0723,0.18074 0.0634,0.39668 -0.0198,0.47988 -0.0832,0.0832 -0.14238,-0.0647 -0.1315,-0.32862 z m 11.29573,-8.74211 c 0.005,-0.41311 0.0612,-0.5518 0.12469,-0.3082 0.0635,0.24361 0.0593,0.58161 -0.009,0.75112 -0.0686,0.1695 -0.12052,-0.0298 -0.11541,-0.44292 z m 0.009,-9.13853 c 0,-0.48197 0.0515,-0.67913 0.1145,-0.43815 0.063,0.24098 0.063,0.63531 0,0.8763 -0.063,0.24098 -0.1145,0.0438 -0.1145,-0.43815 z m 211.25487,-5.38298 c 0.32342,-0.34426 0.64436,-0.62592 0.71321,-0.62592 0.0689,0 -0.13942,0.28166 -0.46284,0.62592 -0.32341,0.34426 -0.64436,0.62593 -0.71321,0.62593 -0.0688,0 0.13943,-0.28167 0.46284,-0.62593 z m 7.51113,-7.26075 c 0.32341,-0.34426 0.64436,-0.62593 0.71321,-0.62593 0.0688,0 -0.13943,0.28167 -0.46284,0.62593 -0.32342,0.34426 -0.64436,0.62593 -0.71322,0.62593 -0.0688,0 0.13943,-0.28167 0.46285,-0.62593 z M 243.452,315.71746 c -0.31143,-0.3971 -0.30257,-0.40595 0.0945,-0.0945 0.41705,0.32707 0.54968,0.53267 0.34362,0.53267 -0.052,0 -0.24916,-0.19716 -0.43815,-0.43815 z m -3.42445,-11.9552 c 0.005,-0.41311 0.0612,-0.5518 0.1247,-0.3082 0.0635,0.2436 0.0593,0.5816 -0.009,0.75111 -0.0686,0.16951 -0.12052,-0.0298 -0.11542,-0.44291 z m -87.88942,-8.38742 c 0,-0.34426 0.0568,-0.4851 0.12628,-0.31297 0.0695,0.17213 0.0695,0.4538 0,0.62593 -0.0695,0.17213 -0.12628,0.0313 -0.12628,-0.31296 z m -90.673765,-0.3449 c 0,-0.052 0.197167,-0.24916 0.438149,-0.43815 0.397102,-0.31143 0.405957,-0.30257 0.09453,0.0945 -0.327076,0.41705 -0.532677,0.54968 -0.532677,0.34362 z m 4.131118,-3.91141 c 0.249241,-0.2754 0.509498,-0.50074 0.57835,-0.50074 0.06885,0 -0.07874,0.22534 -0.327979,0.50074 -0.249241,0.27541 -0.509499,0.50074 -0.578351,0.50074 -0.06885,0 0.07874,-0.22533 0.32798,-0.50074 z M 354.52339,276.8474 c 0.24924,-0.27541 0.50949,-0.50074 0.57835,-0.50074 0.0688,0 -0.0787,0.22533 -0.32798,0.50074 -0.24924,0.27541 -0.5095,0.50074 -0.57835,0.50074 -0.0688,0 0.0787,-0.22533 0.32798,-0.50074 z M 80.742916,276.00176 c 0,-0.052 0.197167,-0.24916 0.438149,-0.43815 0.397102,-0.31143 0.405958,-0.30258 0.09453,0.0945 -0.327077,0.41705 -0.532678,0.54968 -0.532678,0.34362 z M 378.79605,260.82367 c 0,-4.47538 0.034,-6.30622 0.0755,-4.06853 0.0415,2.23769 0.0415,5.89936 0,8.13705 -0.0415,2.23769 -0.0755,0.40685 -0.0755,-4.06852 z m -310.571674,-0.0945 c 0,-0.052 0.197167,-0.24916 0.438149,-0.43815 0.397102,-0.31143 0.405958,-0.30257 0.09453,0.0945 -0.327077,0.41705 -0.532678,0.54968 -0.532678,0.34362 z M 256.84107,257.0681 c 0,-1.17048 0.0431,-1.64931 0.0958,-1.06407 0.0527,0.58524 0.0527,1.54291 0,2.12815 -0.0527,0.58524 -0.0958,0.10641 -0.0958,-1.06408 z M 75.485129,253.46838 c 0,-0.052 0.197167,-0.24915 0.438149,-0.43814 0.397102,-0.31143 0.405958,-0.30258 0.09453,0.0945 -0.327077,0.41706 -0.532678,0.54969 -0.532678,0.34362 z m 323.999581,-1.80411 c 0.012,-0.29167 0.0713,-0.351 0.15127,-0.15127 0.0723,0.18074 0.0634,0.39668 -0.0198,0.47988 -0.0832,0.0832 -0.14237,-0.0647 -0.1315,-0.32861 z m 0.0198,-5.36211 c 0,-0.34426 0.0568,-0.48509 0.12628,-0.31296 0.0695,0.17213 0.0695,0.45379 0,0.62592 -0.0695,0.17213 -0.12628,0.0313 -0.12628,-0.31296 z m -248.638,-32.94462 c 0.012,-0.29167 0.0713,-0.351 0.15126,-0.15127 0.0723,0.18074 0.0634,0.39668 -0.0198,0.47988 -0.0832,0.0832 -0.14237,-0.0647 -0.1315,-0.32861 z M 97.566569,197.35467 c 0.0051,-0.41311 0.06122,-0.5518 0.124696,-0.3082 0.06348,0.2436 0.0593,0.5816 -0.0093,0.75111 -0.06858,0.16951 -0.12052,-0.0298 -0.115418,-0.44291 z m 18.299871,-10.01483 c 0.002,-0.68852 0.0505,-0.94047 0.10805,-0.5599 0.0575,0.38058 0.056,0.94392 -0.003,1.25186 -0.0594,0.30794 -0.10651,-0.003 -0.10463,-0.69196 z m -18.299871,-12.0178 c 0.0051,-0.41311 0.06122,-0.5518 0.124696,-0.3082 0.06348,0.2436 0.0593,0.5816 -0.0093,0.75111 -0.06858,0.16951 -0.12052,-0.0298 -0.115418,-0.44291 z m -0.259648,-5.88372 c 0,-0.34426 0.05683,-0.48509 0.126284,-0.31296 0.06946,0.17213 0.06946,0.4538 0,0.62593 -0.06946,0.17213 -0.126284,0.0313 -0.126284,-0.31297 z m 17.756559,-3.90161 c 0.012,-0.29167 0.0713,-0.35099 0.15127,-0.15126 0.0723,0.18073 0.0634,0.39668 -0.0198,0.47987 -0.0832,0.0832 -0.14237,-0.0647 -0.1315,-0.32861 z M 97.036784,164.7856 c 0.01201,-0.29167 0.07134,-0.35099 0.151266,-0.15127 0.07232,0.18074 0.06343,0.39669 -0.01977,0.47988 -0.0832,0.0832 -0.142371,-0.0647 -0.1315,-0.32861 z m 17.776326,-3.75556 c 0.012,-0.29167 0.0713,-0.351 0.15127,-0.15127 0.0723,0.18074 0.0634,0.39668 -0.0198,0.47988 -0.0832,0.0832 -0.14237,-0.0647 -0.1315,-0.32861 z m 364.89568,-0.35469 c 0.24924,-0.27541 0.5095,-0.50075 0.57835,-0.50075 0.0688,0 -0.0787,0.22534 -0.32798,0.50075 -0.24924,0.2754 -0.5095,0.50074 -0.57835,0.50074 -0.0688,0 0.0787,-0.22534 0.32798,-0.50074 z m -58.02052,-26.71639 c 0.31144,-0.0599 0.76211,-0.0576 1.00149,0.005 0.23937,0.0627 -0.0154,0.11166 -0.56626,0.10888 -0.55081,-0.003 -0.74667,-0.0541 -0.43523,-0.11394 z m 50.4468,-0.49625 c 0.24098,-0.063 0.63532,-0.063 0.8763,0 0.24098,0.063 0.0438,0.1145 -0.43815,0.1145 -0.48196,0 -0.67913,-0.0515 -0.43815,-0.1145 z m 6.4001,-0.24881 c 0.18074,-0.0723 0.39668,-0.0634 0.47988,0.0198 0.0832,0.0832 -0.0647,0.14237 -0.32861,0.1315 -0.29167,-0.012 -0.351,-0.0713 -0.15127,-0.15126 z M 327.81195,120.19462 c 0.18074,-0.0723 0.39668,-0.0634 0.47988,0.0198 0.0832,0.0832 -0.0647,0.14237 -0.32861,0.1315 -0.29167,-0.012 -0.351,-0.0713 -0.15127,-0.15126 z m 5.02243,-10.28195 c -0.31143,-0.39711 -0.30258,-0.40596 0.0945,-0.0945 0.41705,0.32707 0.54968,0.53268 0.34362,0.53268 -0.052,0 -0.24916,-0.19717 -0.43815,-0.43815 z m -68.6016,-14.771881 c -0.31143,-0.397102 -0.30258,-0.405958 0.0945,-0.09453 0.41705,0.327077 0.54968,0.532678 0.34362,0.532678 -0.052,0 -0.24916,-0.197167 -0.43815,-0.438149 z m -1.50223,-1.502225 c -0.31143,-0.397102 -0.30257,-0.405957 0.0945,-0.09453 0.41706,0.327076 0.54968,0.532677 0.34362,0.532677 -0.052,0 -0.24916,-0.197167 -0.43815,-0.438149 z m -2.40016,-7.448531 c 0.002,-0.68852 0.0505,-0.940471 0.10805,-0.559892 0.0575,0.380579 0.056,0.943914 -0.003,1.251854 -0.0594,0.307941 -0.10651,-0.0034 -0.10463,-0.691962 z m 7.68989,-22.252345 c 0,-0.05199 0.19716,-0.249157 0.43814,-0.438149 0.39711,-0.311428 0.40596,-0.302573 0.0945,0.09453 -0.32707,0.417055 -0.53267,0.549684 -0.53267,0.34362 z"
         id="path134" /><path
         style="fill:#606060;fill-opacity:1"
         d="m 207.63397,485.98636 c 0.18073,-0.0723 0.39668,-0.0634 0.47987,0.0198 0.0832,0.0832 -0.0647,0.14237 -0.32861,0.1315 -0.29166,-0.012 -0.35099,-0.0713 -0.15126,-0.15126 z m 1.50222,0 c 0.18074,-0.0723 0.39668,-0.0634 0.47988,0.0198 0.0832,0.0832 -0.0647,0.14237 -0.32861,0.1315 -0.29167,-0.012 -0.351,-0.0713 -0.15127,-0.15126 z m -11.18021,-13.59937 c 0,-0.34426 0.0568,-0.48509 0.12629,-0.31296 0.0695,0.17213 0.0695,0.4538 0,0.62593 -0.0695,0.17213 -0.12629,0.0313 -0.12629,-0.31297 z m 19.82394,-1.75259 c 0,-1.03278 0.0442,-1.45528 0.0982,-0.93889 0.054,0.51639 0.054,1.36139 0,1.87778 -0.054,0.51639 -0.0982,0.0939 -0.0982,-0.93889 z m -19.82394,-2.50371 c 0,-0.34426 0.0568,-0.48509 0.12629,-0.31296 0.0695,0.17213 0.0695,0.45379 0,0.62592 -0.0695,0.17213 -0.12629,0.0313 -0.12629,-0.31296 z m 4.53028,-40.43489 c 0.003,-0.55081 0.0541,-0.74666 0.11394,-0.43522 0.0599,0.31143 0.0576,0.7621 -0.005,1.00148 -0.0627,0.23937 -0.11166,-0.0154 -0.10889,-0.56626 z m 0.005,-5.88371 c 0,-0.61967 0.0488,-0.87317 0.1085,-0.56333 0.0597,0.30983 0.0597,0.81683 0,1.12667 -0.0597,0.30983 -0.1085,0.0563 -0.1085,-0.56334 z m 34.58437,-40.62266 -0.47695,-0.56334 0.56333,0.47696 c 0.5294,0.44822 0.67732,0.64971 0.47696,0.64971 -0.0475,0 -0.30101,-0.2535 -0.56334,-0.56333 z m -86.70993,-4.33976 c 0.012,-0.29167 0.0713,-0.351 0.15127,-0.15127 0.0723,0.18074 0.0634,0.39668 -0.0198,0.47988 -0.0832,0.0832 -0.14237,-0.0647 -0.1315,-0.32861 z m 78.82809,-3.54692 -0.60698,-0.68852 0.68852,0.60698 c 0.37869,0.33383 0.68852,0.64367 0.68852,0.68852 0,0.19636 -0.20275,0.0365 -0.77006,-0.60698 z m -16.28709,-3.75556 c -0.31143,-0.39711 -0.30257,-0.40596 0.0945,-0.0945 0.24098,0.18899 0.43815,0.38616 0.43815,0.43815 0,0.20606 -0.2056,0.0734 -0.53268,-0.34362 z m -29.38663,-4.81964 c 0.24924,-0.27541 0.5095,-0.50074 0.57835,-0.50074 0.0688,0 -0.0787,0.22533 -0.32798,0.50074 -0.24924,0.27541 -0.5095,0.50074 -0.57835,0.50074 -0.0688,0 0.0787,-0.22533 0.32798,-0.50074 z M 355.60311,353.5402 c 0.18074,-0.0723 0.39668,-0.0634 0.47988,0.0198 0.0832,0.0832 -0.0647,0.14237 -0.32861,0.1315 -0.29167,-0.012 -0.351,-0.0713 -0.15127,-0.15127 z M 135.62293,343.32085 c 0.005,-0.41312 0.0612,-0.55181 0.1247,-0.3082 0.0635,0.2436 0.0593,0.5816 -0.009,0.75111 -0.0686,0.16951 -0.12052,-0.0298 -0.11542,-0.44291 z m 0,-11.26669 c 0.005,-0.41311 0.0612,-0.5518 0.1247,-0.3082 0.0635,0.2436 0.0593,0.5816 -0.009,0.75111 -0.0686,0.16951 -0.12052,-0.0298 -0.11542,-0.44291 z m 10.98727,-4.52754 c 0.012,-0.29167 0.0713,-0.35099 0.15127,-0.15127 0.0723,0.18074 0.0634,0.39669 -0.0198,0.47988 -0.0832,0.0832 -0.14237,-0.0647 -0.1315,-0.32861 z m -11.26668,-0.50074 c 0.012,-0.29167 0.0713,-0.351 0.15126,-0.15127 0.0723,0.18074 0.0634,0.39668 -0.0198,0.47988 -0.0832,0.0832 -0.14237,-0.0647 -0.1315,-0.32861 z m 223.81173,-0.94996 c 0,-0.052 0.19716,-0.24916 0.43815,-0.43815 0.3971,-0.31143 0.40595,-0.30258 0.0945,0.0945 -0.32707,0.41705 -0.53267,0.54968 -0.53267,0.34362 z m 18.04646,-3.05597 c 0.012,-0.29167 0.0713,-0.351 0.15127,-0.15127 0.0723,0.18074 0.0634,0.39668 -0.0198,0.47988 -0.0832,0.0832 -0.14237,-0.0647 -0.1315,-0.32861 z m 0,-10.76595 c 0.012,-0.29167 0.0713,-0.35099 0.15127,-0.15126 0.0723,0.18073 0.0634,0.39668 -0.0198,0.47987 -0.0832,0.0832 -0.14237,-0.0647 -0.1315,-0.32861 z m -3.52496,-0.19885 c 0,-0.052 0.19717,-0.24916 0.43815,-0.43815 0.3971,-0.31143 0.40596,-0.30257 0.0945,0.0945 -0.32708,0.41706 -0.53268,0.54969 -0.53268,0.34362 z M 83.496995,272.99731 c 0,-0.052 0.197167,-0.24916 0.438149,-0.43815 0.397102,-0.31143 0.405958,-0.30258 0.09453,0.0945 -0.327077,0.41705 -0.532678,0.54968 -0.532678,0.34362 z m 42.516095,-0.0765 c 0.18073,-0.0723 0.39668,-0.0634 0.47987,0.0198 0.0832,0.0832 -0.0647,0.14237 -0.32861,0.1315 -0.29167,-0.012 -0.35099,-0.0713 -0.15126,-0.15127 z m 2.23769,0.005 c 0.17213,-0.0695 0.45379,-0.0695 0.62592,0 0.17213,0.0695 0.0313,0.12628 -0.31296,0.12628 -0.34426,0 -0.48509,-0.0568 -0.31296,-0.12628 z m 128.52258,-13.50026 c 0.012,-0.29166 0.0713,-0.35099 0.15126,-0.15126 0.0723,0.18073 0.0634,0.39668 -0.0198,0.47987 -0.0832,0.0832 -0.14237,-0.0647 -0.13149,-0.32861 z m 0,-4.75704 c 0.012,-0.29167 0.0713,-0.351 0.15126,-0.15127 0.0723,0.18074 0.0634,0.39668 -0.0198,0.47988 -0.0832,0.0832 -0.14237,-0.0647 -0.13149,-0.32861 z M 97.537526,198.33529 c 0.01201,-0.29167 0.07134,-0.351 0.151266,-0.15127 0.07232,0.18074 0.06343,0.39668 -0.01977,0.47988 -0.0832,0.0832 -0.142371,-0.0647 -0.1315,-0.32861 z m 0.02904,-24.26511 c 0.0051,-0.41311 0.06122,-0.5518 0.124696,-0.30819 0.06348,0.2436 0.0593,0.5816 -0.0093,0.75111 -0.06858,0.16951 -0.12052,-0.0298 -0.115418,-0.44292 z m 17.767054,-3.63037 c 0,-0.34426 0.0568,-0.4851 0.12628,-0.31297 0.0695,0.17213 0.0695,0.4538 0,0.62593 -0.0695,0.17213 -0.12628,0.0313 -0.12628,-0.31296 z m -18.046468,-1.89865 c 0.01201,-0.29167 0.07134,-0.35099 0.151266,-0.15126 0.07232,0.18073 0.06343,0.39668 -0.01977,0.47987 -0.0832,0.0832 -0.142371,-0.0647 -0.1315,-0.32861 z m 367.715268,-4.5377 c 0.31144,-0.0599 0.76211,-0.0576 1.00148,0.005 0.23938,0.0627 -0.0154,0.11167 -0.56625,0.10889 -0.55081,-0.003 -0.74667,-0.054 -0.43523,-0.11394 z m 2.75116,3.8e-4 c 0.30984,-0.0597 0.81684,-0.0597 1.12667,0 0.30983,0.0597 0.0563,0.10851 -0.56333,0.10851 -0.61967,0 -0.87317,-0.0488 -0.56334,-0.10851 z m -352.94047,-2.22269 c 0.012,-0.29167 0.0713,-0.35099 0.15127,-0.15127 0.0723,0.18074 0.0634,0.39669 -0.0198,0.47988 -0.0832,0.0832 -0.14237,-0.0647 -0.1315,-0.32861 z m -10.58228,-3.78054 c 0.18073,-0.0723 0.39668,-0.0634 0.47987,0.0198 0.0832,0.0832 -0.0647,0.14237 -0.32861,0.1315 -0.29167,-0.012 -0.35099,-0.0713 -0.15126,-0.15126 z m 7.51112,-0.50075 c 0.18074,-0.0723 0.39668,-0.0634 0.47988,0.0198 0.0832,0.0832 -0.0647,0.14237 -0.32861,0.1315 -0.29167,-0.012 -0.351,-0.0713 -0.15127,-0.15127 z m 376.6244,-18.25208 c 0.012,-0.29167 0.0713,-0.351 0.15126,-0.15127 0.0723,0.18074 0.0634,0.39668 -0.0198,0.47988 -0.0832,0.0832 -0.14238,-0.0647 -0.1315,-0.32861 z m -72.67425,-5.0324 c 0.18074,-0.0723 0.39668,-0.0634 0.47988,0.0198 0.0832,0.0832 -0.0647,0.14237 -0.32861,0.1315 -0.29167,-0.012 -0.351,-0.0713 -0.15127,-0.15127 z m 36.53849,-0.51661 c 1.54917,-0.0439 4.08418,-0.0439 5.63334,0 1.54917,0.0439 0.28167,0.0799 -2.81667,0.0799 -3.09834,0 -4.36584,-0.0359 -2.81667,-0.0799 z m 29.5594,-0.73524 c 0.18074,-0.0723 0.39669,-0.0634 0.47988,0.0198 0.0832,0.0832 -0.0647,0.14237 -0.32861,0.1315 -0.29167,-0.012 -0.35099,-0.0713 -0.15127,-0.15126 z M 332.08326,109.16155 c -0.31143,-0.3971 -0.30257,-0.40595 0.0945,-0.0945 0.41706,0.32707 0.54969,0.53267 0.34362,0.53267 -0.052,0 -0.24916,-0.19716 -0.43815,-0.43815 z M 260.29831,84.562623 c 0,-0.34426 0.0568,-0.485094 0.12629,-0.312964 0.0695,0.17213 0.0695,0.453797 0,0.625927 -0.0695,0.17213 -0.12629,0.0313 -0.12629,-0.312963 z"
         id="path133" /><path
         style="fill:#494949;fill-opacity:1"
         d="m 17.022043,413.04911 c 0,-45.09804 0.02884,-63.54724 0.06409,-40.99822 0.03525,22.54902 0.03525,59.44742 0,81.99644 -0.03525,22.54902 -0.06409,4.09982 -0.06409,-40.99822 z m 191.363037,72.93725 c 0.18074,-0.0723 0.39668,-0.0634 0.47988,0.0198 0.0832,0.0832 -0.0647,0.14237 -0.32861,0.1315 -0.29167,-0.012 -0.351,-0.0713 -0.15127,-0.15126 z m -10.38647,-15.72752 c 10e-4,-0.96393 0.0464,-1.32758 0.10056,-0.80812 0.0542,0.51946 0.0533,1.30813 -0.002,1.7526 -0.0553,0.44446 -0.0996,0.0195 -0.0985,-0.94448 z m 19.4863,-4.88223 c 0,-0.34426 0.0568,-0.48509 0.12628,-0.31296 0.0695,0.17213 0.0695,0.45379 0,0.62592 -0.0695,0.17213 -0.12628,0.0313 -0.12628,-0.31296 z m -15.29239,-31.94314 c 0.012,-0.29167 0.0713,-0.351 0.15127,-0.15127 0.0723,0.18074 0.0634,0.39668 -0.0198,0.47988 -0.0832,0.0832 -0.14237,-0.0647 -0.1315,-0.32861 z m 0,-17.77633 c 0.012,-0.29167 0.0713,-0.35099 0.15127,-0.15126 0.0723,0.18073 0.0634,0.39668 -0.0198,0.47987 -0.0832,0.0832 -0.14237,-0.0647 -0.1315,-0.32861 z m 11.51706,-5.25778 c 0.012,-0.29167 0.0713,-0.351 0.15126,-0.15127 0.0723,0.18074 0.0634,0.39668 -0.0198,0.47988 -0.0832,0.0832 -0.14237,-0.0647 -0.1315,-0.32861 z m -78.16739,-20.0714 c -0.31143,-0.3971 -0.30258,-0.40595 0.0945,-0.0945 0.41706,0.32708 0.54969,0.53268 0.34362,0.53268 -0.052,0 -0.24915,-0.19717 -0.43814,-0.43815 z m 83.1748,-5.7168 c 0.012,-0.29166 0.0713,-0.35099 0.15127,-0.15126 0.0723,0.18073 0.0634,0.39668 -0.0198,0.47987 -0.0832,0.0832 -0.14237,-0.0647 -0.1315,-0.32861 z m 16.60611,-5.17433 -0.47696,-0.56333 0.56334,0.47695 c 0.52939,0.44822 0.67731,0.64972 0.47695,0.64972 -0.0475,0 -0.30101,-0.2535 -0.56333,-0.56334 z m -1.13482,-1.12667 c -0.31143,-0.3971 -0.30257,-0.40595 0.0945,-0.0945 0.24098,0.18899 0.43815,0.38615 0.43815,0.43814 0,0.20607 -0.2056,0.0734 -0.53268,-0.34362 z m -3.8726,-3.88074 -0.47695,-0.56334 0.56333,0.47696 c 0.30984,0.26232 0.56334,0.51582 0.56334,0.56333 0,0.20036 -0.2015,0.0524 -0.64972,-0.47695 z m -50.12675,-1.06408 c 0.005,-0.41311 0.0612,-0.5518 0.1247,-0.3082 0.0635,0.24361 0.0593,0.58161 -0.009,0.75112 -0.0686,0.1695 -0.12052,-0.0298 -0.11542,-0.44292 z m 14.91085,-12.55917 c 0.17213,-0.0695 0.4538,-0.0695 0.62593,0 0.17213,0.0695 0.0313,0.12628 -0.31297,0.12628 -0.34426,0 -0.48509,-0.0568 -0.31296,-0.12628 z m 142.3358,-6.76678 c 0.24098,-0.063 0.63532,-0.063 0.8763,0 0.24098,0.063 0.0438,0.1145 -0.43815,0.1145 -0.48197,0 -0.67913,-0.0515 -0.43815,-0.1145 z m 9.13853,-0.004 c 0.30984,-0.0597 0.81684,-0.0597 1.12667,0 0.30984,0.0597 0.0563,0.1085 -0.56333,0.1085 -0.61967,0 -0.87317,-0.0488 -0.56334,-0.1085 z m 9.78011,-0.49508 c 0.18074,-0.0723 0.39668,-0.0634 0.47988,0.0198 0.0832,0.0832 -0.0647,0.14237 -0.32861,0.1315 -0.29167,-0.012 -0.351,-0.0713 -0.15127,-0.15127 z m -220.99094,-4.83638 c 0,-0.34426 0.0568,-0.4851 0.12629,-0.31297 0.0695,0.17213 0.0695,0.4538 0,0.62593 -0.0695,0.17213 -0.12629,0.0313 -0.12629,-0.31296 z m 11.01632,-5.25779 c 0,-0.34426 0.0568,-0.48509 0.12628,-0.31296 0.0695,0.17213 0.0695,0.45379 0,0.62592 -0.0694,0.17213 -0.12628,0.0313 -0.12628,-0.31296 z m 206.64156,-11.51706 c 0.24924,-0.2754 0.5095,-0.50074 0.57835,-0.50074 0.0688,0 -0.0787,0.22534 -0.32798,0.50074 -0.24924,0.27541 -0.5095,0.50075 -0.57835,0.50075 -0.0688,0 0.0787,-0.22534 0.32798,-0.50075 z M 146.3796,331.42823 c 0,-0.34426 0.0568,-0.48509 0.12628,-0.31296 0.0695,0.17213 0.0695,0.4538 0,0.62593 -0.0694,0.17213 -0.12628,0.0313 -0.12628,-0.31297 z m -11.03608,-5.15346 c 0.012,-0.29167 0.0713,-0.351 0.15126,-0.15127 0.0723,0.18074 0.0634,0.39668 -0.0198,0.47988 -0.0832,0.0832 -0.14237,-0.0647 -0.1315,-0.32861 z m 225.06358,-1.45071 c 0,-0.052 0.19717,-0.24916 0.43815,-0.43815 0.3971,-0.31143 0.40596,-0.30257 0.0945,0.0945 -0.32708,0.41706 -0.53268,0.54969 -0.53268,0.34362 z m 17.07402,-6.79067 c 0.005,-0.41311 0.0612,-0.5518 0.1247,-0.30819 0.0635,0.2436 0.0593,0.5816 -0.009,0.75111 -0.0686,0.16951 -0.12052,-0.0298 -0.11542,-0.44292 z m -0.27941,-6.5305 c 0.012,-0.29167 0.0713,-0.351 0.15127,-0.15127 0.0723,0.18074 0.0634,0.39668 -0.0198,0.47988 -0.0832,0.0832 -0.14237,-0.0647 -0.1315,-0.32861 z m -2.39829,-0.60506 c 0.24924,-0.27541 0.5095,-0.50075 0.57835,-0.50075 0.0688,0 -0.0787,0.22534 -0.32798,0.50075 -0.24924,0.2754 -0.5095,0.50074 -0.57835,0.50074 -0.0688,0 0.0787,-0.22534 0.32798,-0.50074 z m -134.76154,-5.38298 c 0.003,-0.55081 0.0541,-0.74666 0.11394,-0.43523 0.0599,0.31144 0.0576,0.76211 -0.005,1.00149 -0.0627,0.23937 -0.11166,-0.0154 -0.10889,-0.56626 z m 0,-3.50519 c 0.003,-0.55081 0.0541,-0.74667 0.11394,-0.43523 0.0599,0.31144 0.0576,0.76211 -0.005,1.00149 -0.0627,0.23937 -0.11166,-0.0154 -0.10889,-0.56626 z m -120.27305,-2.31593 c -0.31143,-0.3971 -0.30258,-0.40595 0.0945,-0.0945 0.41706,0.32708 0.54969,0.53268 0.34362,0.53268 -0.052,0 -0.24915,-0.19716 -0.43814,-0.43815 z m -52.796308,-9.95224 c 0.323416,-0.34426 0.644362,-0.62592 0.713214,-0.62592 0.06885,0 -0.139428,0.28166 -0.462843,0.62592 -0.323415,0.34426 -0.644361,0.62593 -0.713213,0.62593 -0.06885,0 0.139427,-0.28167 0.462842,-0.62593 z M 356.1508,275.25064 c 0,-0.052 0.19716,-0.24915 0.43815,-0.43814 0.3971,-0.31143 0.40595,-0.30258 0.0945,0.0945 -0.32707,0.41706 -0.53267,0.54969 -0.53267,0.34362 z m 1.25185,-1.25185 c 0,-0.052 0.19717,-0.24916 0.43815,-0.43815 0.3971,-0.31143 0.40596,-0.30257 0.0945,0.0945 -0.32708,0.41705 -0.53268,0.54968 -0.53268,0.34362 z m 1.25185,-1.25185 c 0,-0.052 0.19717,-0.24916 0.43815,-0.43815 0.39711,-0.31143 0.40596,-0.30258 0.0945,0.0945 -0.32707,0.41705 -0.53268,0.54968 -0.53268,0.34362 z m 1.25186,-1.25186 c 0,-0.052 0.19717,-0.24916 0.43815,-0.43815 0.3971,-0.31143 0.40596,-0.30257 0.0945,0.0945 -0.32708,0.41706 -0.53268,0.54969 -0.53268,0.34362 z m 1.25185,-1.25185 c 0,-0.052 0.19717,-0.24916 0.43815,-0.43815 0.3971,-0.31143 0.40596,-0.30257 0.0945,0.0945 -0.32708,0.41705 -0.53268,0.54968 -0.53268,0.34362 z m 1.25186,-1.25186 c 0,-0.052 0.19716,-0.24915 0.43815,-0.43814 0.3971,-0.31143 0.40595,-0.30258 0.0945,0.0945 -0.32707,0.41706 -0.53267,0.54969 -0.53267,0.34362 z m 1.25185,-1.25185 c 0,-0.052 0.19717,-0.24916 0.43815,-0.43815 0.3971,-0.31143 0.40596,-0.30257 0.0945,0.0945 -0.32708,0.41705 -0.53268,0.54968 -0.53268,0.34362 z m 1.25185,-1.25185 c 0,-0.052 0.19717,-0.24916 0.43815,-0.43815 0.39711,-0.31143 0.40596,-0.30258 0.0945,0.0945 -0.32707,0.41705 -0.53268,0.54968 -0.53268,0.34362 z m 1.25186,-1.25186 c 0,-0.052 0.19717,-0.24916 0.43815,-0.43815 0.3971,-0.31143 0.40596,-0.30257 0.0945,0.0945 -0.32708,0.41706 -0.53268,0.54969 -0.53268,0.34362 z m 1.25185,-1.25185 c 0,-0.052 0.19717,-0.24916 0.43815,-0.43815 0.3971,-0.31143 0.40596,-0.30257 0.0945,0.0945 -0.32708,0.41705 -0.53268,0.54968 -0.53268,0.34362 z m 1.25186,-1.25186 c 0,-0.052 0.19716,-0.24915 0.43815,-0.43814 0.3971,-0.31143 0.40595,-0.30258 0.0945,0.0945 -0.32707,0.41706 -0.53267,0.54969 -0.53267,0.34362 z M 67.598449,261.32441 c 0.249241,-0.27541 0.509499,-0.50074 0.578351,-0.50074 0.06885,0 -0.07874,0.22533 -0.32798,0.50074 -0.249241,0.27541 -0.509498,0.50074 -0.57835,0.50074 -0.06885,0 0.07874,-0.22533 0.327979,-0.50074 z m 302.322741,0.15584 c 0,-0.052 0.19717,-0.24916 0.43815,-0.43815 0.3971,-0.31143 0.40596,-0.30257 0.0945,0.0945 -0.32708,0.41705 -0.53268,0.54968 -0.53268,0.34362 z m 1.25185,-1.25185 c 0,-0.052 0.19717,-0.24916 0.43815,-0.43815 0.39711,-0.31143 0.40596,-0.30258 0.0945,0.0945 -0.32707,0.41705 -0.53268,0.54968 -0.53268,0.34362 z m 1.25186,-1.25186 c 0,-0.052 0.19717,-0.24916 0.43815,-0.43815 0.3971,-0.31143 0.40596,-0.30257 0.0945,0.0945 -0.32708,0.41706 -0.53268,0.54969 -0.53268,0.34362 z m 1.75259,-1.78325 c 0.32342,-0.34426 0.64437,-0.62593 0.71322,-0.62593 0.0688,0 -0.13943,0.28167 -0.46284,0.62593 -0.32342,0.34426 -0.64437,0.62593 -0.71322,0.62593 -0.0688,0 0.13943,-0.28167 0.46284,-0.62593 z m 25.30722,-4.52754 c 0.012,-0.29167 0.0713,-0.35099 0.15127,-0.15126 0.0723,0.18073 0.0634,0.39668 -0.0198,0.47987 -0.0832,0.0832 -0.14237,-0.0647 -0.1315,-0.32861 z M 150.93422,216.00729 c 0,-1.17048 0.0431,-1.64931 0.0958,-1.06407 0.0527,0.58524 0.0527,1.54291 0,2.12815 -0.0527,0.58524 -0.0958,0.10641 -0.0958,-1.06408 z M 97.537526,199.0864 c 0.01201,-0.29167 0.07134,-0.35099 0.151266,-0.15127 0.07232,0.18074 0.06343,0.39669 -0.01977,0.47988 -0.0832,0.0832 -0.142371,-0.0647 -0.1315,-0.32861 z m 18.055744,-2.23247 c 0.005,-0.41311 0.0612,-0.5518 0.12469,-0.3082 0.0635,0.2436 0.0593,0.5816 -0.009,0.75111 -0.0686,0.16951 -0.12052,-0.0298 -0.11541,-0.44291 z M 97.874107,186.83909 c 2.05e-4,-2.89178 0.03665,-4.04049 0.08099,-2.55269 0.04434,1.4878 0.04417,3.85381 -3.72e-4,5.25779 -0.04454,1.40398 -0.08082,0.18669 -0.08062,-2.7051 z m 17.719163,-10.01483 c 0.005,-0.41311 0.0612,-0.5518 0.12469,-0.3082 0.0635,0.24361 0.0593,0.58161 -0.009,0.75112 -0.0686,0.16951 -0.12052,-0.0298 -0.11541,-0.44292 z m -18.026701,-4.00593 c 0.0051,-0.41311 0.06122,-0.5518 0.124696,-0.3082 0.06348,0.2436 0.0593,0.5816 -0.0093,0.75111 -0.06858,0.16951 -0.12052,-0.0298 -0.115418,-0.44291 z m 17.516681,-6.38446 c 0,-0.34426 0.0568,-0.48509 0.12628,-0.31296 0.0695,0.17213 0.0695,0.4538 0,0.62593 -0.0695,0.17213 -0.12628,0.0313 -0.12628,-0.31297 z m 348.28884,-2.42592 c 0.24098,-0.063 0.63532,-0.063 0.8763,0 0.24098,0.063 0.0438,0.1145 -0.43815,0.1145 -0.48196,0 -0.67913,-0.0515 -0.43815,-0.1145 z m 6.14973,0.002 c 0.18074,-0.0723 0.39669,-0.0634 0.47988,0.0198 0.0832,0.0832 -0.0647,0.14237 -0.32861,0.1315 -0.29167,-0.012 -0.35099,-0.0713 -0.15127,-0.15126 z m -354.95908,-5.98392 c 0.012,-0.29167 0.0713,-0.351 0.15127,-0.15127 0.0723,0.18074 0.0634,0.39668 -0.0198,0.47988 -0.0832,0.0832 -0.14237,-0.0647 -0.1315,-0.32861 z m -9.5808,-0.025 c 0.18074,-0.0723 0.39668,-0.0634 0.47988,0.0198 0.0832,0.0832 -0.0647,0.14237 -0.32861,0.1315 -0.29167,-0.012 -0.351,-0.0713 -0.15127,-0.15126 z m 3.75556,-0.25037 c 0.18074,-0.0723 0.39668,-0.0634 0.47988,0.0198 0.0832,0.0832 -0.0647,0.14237 -0.32861,0.1315 -0.29167,-0.012 -0.351,-0.0713 -0.15127,-0.15126 z m 290.49684,-19.0032 c 0.012,-0.29167 0.0713,-0.351 0.15127,-0.15127 0.0723,0.18074 0.0634,0.39668 -0.0198,0.47988 -0.0832,0.0832 -0.14237,-0.0647 -0.1315,-0.32861 z m 20.82837,-4.7845 c 0.2436,-0.0635 0.5816,-0.0593 0.75111,0.009 0.16951,0.0686 -0.0298,0.12052 -0.44291,0.11542 -0.41311,-0.005 -0.5518,-0.0612 -0.3082,-0.12469 z m 16.26934,-0.26427 c 2.44424,-0.041 6.44391,-0.041 8.88816,0 2.44424,0.041 0.44441,0.0745 -4.44408,0.0745 -4.88849,0 -6.88833,-0.0335 -4.44408,-0.0745 z m 34.05042,-0.23556 c 0.24099,-0.063 0.63532,-0.063 0.8763,0 0.24098,0.063 0.0438,0.1145 -0.43815,0.1145 -0.48196,0 -0.67913,-0.0515 -0.43815,-0.1145 z m 7.15122,-0.24881 c 0.18074,-0.0723 0.39668,-0.0634 0.47988,0.0198 0.0832,0.0832 -0.0647,0.14237 -0.32861,0.1315 -0.29167,-0.012 -0.351,-0.0713 -0.15127,-0.15126 z m -146.48257,-12.775 c 0.30984,-0.0597 0.81684,-0.0597 1.12667,0 0.30984,0.0597 0.0563,0.10851 -0.56333,0.10851 -0.61967,0 -0.87317,-0.0488 -0.56334,-0.10851 z m -65.9339,-24.422233 -0.47695,-0.563334 0.56333,0.476953 c 0.5294,0.448218 0.67732,0.649715 0.47696,0.649715 -0.0475,0 -0.30101,-0.2535 -0.56334,-0.563334 z M 199.1683,18.756831 c 0,-0.221902 -21.85657,-0.30706 -90.94719,-0.35435 l -90.947192,-0.06225 90.871742,-0.06328 c 59.39188,-0.04136 90.95714,0.02213 91.11828,0.183263 0.1356,0.135597 0.16955,0.323529 0.0755,0.417626 -0.0941,0.0941 -0.17109,0.03964 -0.17109,-0.121012 z"
         id="path132" /><path
         style="fill:#333333;fill-opacity:1"
         d="M -0.87796468,256.81773 V 0.43803385 H 255.50174 511.88143 V 256.81773 513.19743 H 255.50174 -0.87796468 Z M 493.85474,482.91391 v -12.25682 l -0.81371,-0.13264 c -0.44754,-0.073 -3.51771,-0.36485 -6.8226,-0.64866 -19.89331,-1.70832 -40.45479,-4.01675 -56.70899,-6.36667 -4.34699,-0.62846 -5.16674,-0.75698 -12.89409,-2.0215 -9.7569,-1.59665 -20.93327,-3.73589 -28.91783,-5.5351 -2.13441,-0.48096 -4.89475,-1.09823 -6.13409,-1.37171 -6.42224,-1.41718 -18.71279,-4.70375 -26.28893,-7.02983 -27.70274,-8.50547 -50.32281,-18.29714 -71.48086,-30.94228 -44.61835,-26.66623 -79.29311,-64.95841 -103.77298,-114.59904 -5.5753,-11.30567 -8.74296,-18.52483 -13.07322,-29.79412 -5.37872,-13.99786 -9.65328,-27.45179 -14.43785,-45.4423 -2.24615,-8.44578 -1.89762,-16.48586 1.3892,-32.04746 1.80124,-8.52804 4.9279,-20.76955 7.89763,-30.9208 0.48342,-1.65245 1.03981,-3.62412 1.23642,-4.38149 0.19661,-0.75737 0.56753,-2.05304 0.82427,-2.87926 0.25673,-0.82623 0.82408,-2.74156 1.26077,-4.25631 0.43668,-1.51474 1.00002,-3.43008 1.25185,-4.2563 0.25183,-0.82622 0.81702,-2.74156 1.25597,-4.2563 0.43895,-1.51475 1.22624,-4.16242 1.74952,-5.88372 0.52328,-1.7213 1.64763,-5.49564 2.49855,-8.38742 0.85092,-2.89178 1.75388,-5.93379 2.00658,-6.76001 0.55585,-1.81735 2.74705,-9.26758 3.79232,-12.8941 0.41675,-1.44589 0.96664,-3.30489 1.22199,-4.13111 0.59158,-1.91421 3.86348,-13.504663 5.33616,-18.903 0.61985,-2.272115 1.52646,-5.595787 2.01469,-7.385939 3.11704,-11.428816 7.23931,-28.802855 9.38591,-39.558586 1.75169,-8.777006 3.83543,-21.124703 3.62306,-21.469296 -0.0636,-0.103278 -41.01068,-0.187778 -90.99341,-0.187778 -72.471904,0 -90.901731,0.06339 -90.996422,0.312963 -0.06531,0.17213 -0.08994,61.000375 -0.05474,135.173876 l 0.064,134.86092 1.502225,-0.58272 C 30.451855,283.45034 40.193956,279.40385 49.071,275.39609 l 4.757045,-2.14769 4.381489,-3.64018 c 14.538775,-12.07896 22.888034,-21.10503 29.133924,-31.4956 1.075571,-1.78931 3.934691,-7.67199 4.537714,-9.33642 3.758011,-10.37262 5.323324,-19.25321 5.913544,-33.54968 0.364155,-8.82067 -0.09166,-26.17705 -0.918366,-34.96909 l -0.145235,-1.54458 1.332208,-0.15145 c 0.732714,-0.0833 3.969737,-0.31863 7.193397,-0.52295 3.22365,-0.20433 6.62262,-0.44227 7.55327,-0.52877 l 1.69208,-0.15726 0.13782,1.09813 c 0.60479,4.81904 1.02702,16.67039 1.01586,28.51373 -0.0108,11.41114 -0.0758,13.53098 -0.56588,18.43173 -1.26716,12.67233 -3.48609,22.31415 -7.22443,31.39206 -1.35061,3.27972 -6.48029,13.35629 -8.154846,16.01911 -1.703817,2.70935 -5.655616,8.0443 -8.436476,11.3893 -7.315392,8.79942 -20.783531,22.63866 -31.311988,32.17476 -1.721299,1.55906 -3.580303,3.24361 -4.131118,3.74345 -9.154486,8.30727 -22.177854,18.83752 -33.611449,27.17705 l -5.196025,3.78993 -0.06409,81.73157 c -0.03525,44.95236 -0.01062,81.8724 0.05474,82.04453 0.09494,0.25007 48.021276,0.31297 238.479682,0.31297 h 238.36086 z m -288.30198,2.67334 c -3.50019,-1.44045 -5.31694,-3.63933 -6.66976,-8.07265 -0.74782,-2.45068 -0.94065,-10.06543 -0.35175,-13.89059 3.18331,-20.67694 4.0038,-28.74786 3.98334,-39.18303 -0.0149,-7.59886 -0.35523,-12.91756 -1.4672,-22.92969 -0.34285,-3.08692 -0.62423,-5.737 -0.62529,-5.88907 -0.001,-0.15207 -0.87511,-0.53377 -1.94231,-0.84823 -7.81089,-2.30153 -14.58409,-8.5088 -17.21355,-15.77531 -0.90092,-2.48969 -1.14173,-6.59417 -0.52729,-8.98761 1.07796,-4.199 4.56454,-7.48731 9.23457,-8.70942 1.97342,-0.51643 6.41742,-0.51071 8.81923,0.0114 11.80389,2.56574 21.33668,13.96911 19.92306,23.8325 -0.27202,1.89802 -0.98744,3.78369 -1.89834,5.00356 -0.62004,0.83036 -1.03046,3.24542 -2.24902,13.23413 -1.78091,14.5985 -1.82013,27.46853 -0.12213,40.08597 0.61335,4.55766 1.90391,13.05801 2.38346,15.69877 1.04141,5.73483 1.11531,15.64278 0.14403,19.3092 -0.87841,3.31581 -2.45257,5.60207 -4.64525,6.74659 -1.2362,0.64527 -5.53125,0.87569 -6.7758,0.36352 z m -64.73462,-92.28869 c -2.17507,-0.69606 -3.87489,-1.73829 -5.33979,-3.27409 -3.35449,-3.51683 -4.34495,-8.40047 -3.17557,-15.65765 0.61628,-3.82466 1.83828,-12.95565 2.51302,-18.77781 0.98183,-8.47196 1.25027,-18.24149 0.74987,-27.29041 -0.23351,-4.22251 -1.58973,-18.73369 -1.88681,-20.18823 -0.11505,-0.56331 -0.36055,-0.72123 -1.686,-1.08456 -4.09721,-1.12312 -8.28692,-3.66914 -11.70478,-7.11281 -2.67186,-2.69204 -3.96398,-4.51659 -5.16364,-7.2914 -2.01455,-4.65962 -2.06533,-9.53338 -0.13668,-13.11713 1.60969,-2.99107 5.21455,-5.5146 8.81893,-6.17356 11.38615,-2.08166 24.33023,6.17568 27.65252,17.64021 1.16397,4.01662 0.66671,8.31943 -1.29784,11.23034 -0.63645,0.94304 -0.81768,1.58254 -1.16,4.0933 -3.31882,24.34231 -3.4557,35.88274 -0.66255,55.85912 0.41934,2.99911 0.81156,5.62193 0.8716,5.82849 0.5612,1.93086 1.21756,8.17142 1.23767,11.76743 0.044,7.872 -1.68241,12.07576 -5.55427,13.52441 -1.60358,0.59998 -2.26457,0.60393 -4.07568,0.0244 z m 210.19198,-39.34479 c 2.62082,-0.14201 6.34246,-0.42983 8.27031,-0.6396 l 3.50519,-0.3814 1.21898,-1.17559 c 3.03985,-2.93165 6.99374,-8.24654 8.7905,-11.81634 1.97812,-3.93014 3.50797,-9.00561 4.26388,-14.14595 0.57177,-3.88821 0.52264,-16.64966 -0.0641,-16.64966 -0.22947,0 -1.9374,1.56632 -5.70179,5.22903 -9.35372,9.10106 -17.33448,16.79089 -18.03282,17.37544 l -0.76239,0.63817 -1.55575,-3.04612 c -5.28723,-10.35226 -8.61651,-16.82772 -8.68996,-16.90204 -0.0465,-0.047 -4.53152,2.17814 -9.96673,4.94483 -5.4352,2.76669 -9.98714,5.03034 -10.11542,5.03034 -0.1993,0 -5.37212,-9.94676 -9.07411,-17.44852 -0.62455,-1.2656 -1.28414,-2.30777 -1.46575,-2.31593 -0.32194,-0.0145 -18.87947,9.32706 -19.5223,9.82718 -0.19299,0.15015 -0.40856,0.16003 -0.53418,0.0245 -0.21885,-0.23614 -3.22521,-6.05624 -7.35976,-14.24801 -1.32053,-2.61637 -2.55593,-4.96874 -2.74531,-5.22747 -0.32655,-0.44612 -0.66678,-0.30534 -6.58337,2.72395 -3.43147,1.75691 -7.83238,4.02477 -9.7798,5.0397 -1.94743,1.01492 -3.6656,1.84531 -3.81816,1.84531 -0.15256,0 -0.27738,-0.2246 -0.27738,-0.49911 0,-0.2745 -0.26957,-1.93634 -0.59904,-3.69296 -0.32947,-1.75663 -0.89964,-4.88387 -1.26703,-6.94943 -1.01807,-5.72384 -1.85946,-10.42699 -2.50831,-14.02077 -0.32321,-1.79015 -0.77898,-4.36279 -1.01283,-5.71697 l -0.42518,-2.46216 -0.7556,0.70956 c -1.45994,1.37098 -4.99526,5.74291 -6.64759,8.22069 -6.47573,9.71081 -8.9586,20.97986 -7.27408,33.01494 l 0.27559,1.96896 1.65702,1.56748 c 5.862,5.54523 12.32903,10.64926 19.68372,15.53516 25.9605,17.24619 56.58262,25.39251 88.87356,23.64279 z m 31.41718,-55.07374 c 7.85948,-10.90496 14.42749,-27.14053 16.56029,-40.93563 0.64093,-4.14557 0.88634,-10.57977 0.51013,-13.37427 -0.15606,-1.15917 -0.32413,-2.14797 -0.37349,-2.19734 -0.0494,-0.0494 -2.61241,-0.36999 -5.69564,-0.7125 -21.76487,-2.41785 -41.24402,-6.69684 -60.81265,-13.35874 -17.38762,-5.9194 -35.04207,-14.17368 -50.8048,-23.75362 l -4.36102,-2.65045 -1.39751,1.48811 c -8.5002,9.05128 -16.54255,28.62956 -18.70912,45.54546 -0.50087,3.91065 -0.64687,13.18798 -0.21434,13.61972 0.16677,0.16647 2.1389,-2.27446 5.9067,-7.31083 3.11099,-4.15841 9.89917,-13.2343 15.08484,-20.16865 5.18568,-6.93435 9.42917,-12.51136 9.42998,-12.39335 8.2e-4,0.118 0.17381,1.34122 0.38444,2.71826 0.21063,1.37704 0.94491,6.44705 1.63173,11.26668 0.68682,4.81964 1.40776,9.83332 1.60208,11.1415 0.19432,1.30819 0.59978,4.04036 0.90103,6.0715 0.32287,2.17693 0.66034,3.69297 0.82205,3.69297 0.15089,0 4.69261,-2.22334 10.09271,-4.94075 5.40011,-2.7174 9.86835,-4.88624 9.92944,-4.81963 0.0611,0.0666 2.32506,4.53853 5.03105,9.93761 2.706,5.39909 5.01957,9.87806 5.14128,9.95328 0.12171,0.0752 4.25913,-1.8947 9.19427,-4.37762 4.93514,-2.48291 9.45419,-4.73143 10.04233,-4.9967 l 1.06934,-0.48232 5.00276,10.00308 c 2.75152,5.50169 5.09523,10.00308 5.20825,10.00308 0.11302,0 5.77426,-5.59584 12.58052,-12.43521 l 12.37503,-12.43521 0.15345,9.1178 c 0.0844,5.01479 0.17313,16.32847 0.19718,25.14153 l 0.0437,16.02373 0.87985,-1.00149 c 0.48392,-0.55081 1.65127,-2.07181 2.59411,-3.38 z m 88.77098,-134.9339 c 4.1632,-0.47882 5.32224,-0.77936 6.87429,-1.7825 5.12747,-3.31404 10.28779,-15.20049 10.37429,-23.89647 0.0285,-2.86866 -0.46192,-4.56945 -1.51706,-5.2608 -0.64671,-0.42374 -1.85478,-0.3902 -8.72324,0.24217 -0.68852,0.0634 -13.64521,0.22536 -28.79264,0.35994 -26.61863,0.2365 -32.73106,0.41414 -39.93414,1.16058 -5.75899,0.59678 -9.47136,1.8183 -10.03549,3.30206 -1.96133,5.15869 21.86276,17.34953 44.83703,22.9432 5.70302,1.38854 12.27151,2.48642 17.90151,2.9921 2.14296,0.19248 7.10633,0.15929 9.01545,-0.0603 z M 335.89554,120.09436 c 0.49559,-0.12562 1.28426,-0.4887 1.75259,-0.80687 0.77798,-0.52851 0.85089,-0.68533 0.84413,-1.81572 -0.006,-0.99178 -0.17722,-1.48406 -0.86343,-2.48129 -3.31671,-4.82007 -12.17902,-12.07474 -37.18554,-30.440021 -10.30055,-7.564932 -20.59106,-15.539405 -25.50643,-19.76582 -2.37004,-2.037848 -3.13531,-2.560947 -3.77298,-2.579023 -4.17717,-0.118406 -10.23551,12.551447 -10.83282,22.654752 -0.27709,4.687002 0.52231,6.881311 3.6305,9.965503 7.10784,7.052949 19.66806,13.791939 35.63159,19.117569 14.87209,4.96151 30.52876,7.61431 36.30239,6.15092 z"
         id="path131" /></g><path
       style="fill:#ffffff;stroke:none;stroke-width:7.85095"
       d="m 16.50444,412.17477 0.04278,-81.67518 11.986904,-9.01215 c 21.211152,-15.94723 44.887743,-37.60378 58.91525,-53.88871 15.687106,-18.21161 23.321656,-34.75864 26.477876,-57.38781 1.36328,-9.77427 1.73292,-32.54464 0.75252,-46.35654 l -0.5519,-7.77514 -8.94522,0.5787 c -4.91987,0.31827 -9.135159,0.68245 -9.367311,0.80929 -0.232152,0.12683 -0.07185,6.63086 0.356224,14.4534 0.948425,17.33128 -0.272684,37.27324 -2.880387,47.03968 -4.473242,16.7533 -12.346791,28.1729 -30.811893,44.6888 -9.171647,8.20348 -11.770981,9.64732 -32.853557,18.24908 l -12.319868,5.02654 v -83.80799 c 0,-46.0944 -0.252342,-106.675221 -0.56076,-134.624051 l -0.560761,-50.816053 90.396713,0.236703 c 49.71817,0.130186 90.62259,0.462707 90.89866,0.738935 0.75567,0.75609 -4.15908,26.150754 -8.4598,43.711989 -3.92454,16.025148 -11.18151,41.771907 -23.1102,81.991877 -11.19809,37.75662 -16.05545,59.11892 -16.06294,70.64369 -0.006,8.85691 7.84921,36.09965 17.48092,60.62754 4.77412,12.15767 15.05017,33.50276 21.40075,44.45292 22.77923,39.27777 53.46061,71.07212 90.69779,93.98788 47.16611,29.02603 102.71045,44.90651 187.40972,53.58162 9.28607,0.95111 18.21336,1.87439 19.83842,2.05172 1.62506,0.17735 3.61946,0.36492 4.43198,0.41682 1.33214,0.0851 1.47733,1.2559 1.47733,11.913 v 11.81863 H 254.52267 16.461665 Z m 196.34317,71.73721 c 4.90087,-3.96986 5.54955,-12.53907 2.49615,-32.97462 -1.61503,-10.80896 -2.1863,-17.98704 -2.1863,-27.47118 0,-14.3451 1.92429,-31.51474 3.97689,-35.48402 2.87937,-5.56808 0.11362,-15.30392 -5.94768,-20.9367 -5.20617,-4.8381 -10.46075,-6.93742 -17.44553,-6.96988 -5.30642,-0.0247 -6.77764,0.28886 -9.08776,1.93657 -10.52276,7.5054 -4.93987,24.82371 10.07758,31.26093 2.13912,0.91694 4.08015,1.98351 4.31341,2.37016 0.94281,1.56283 1.86488,17.54092 1.74564,30.24959 -0.081,8.63307 -0.76638,17.91568 -1.89942,25.72466 -2.86561,19.75011 -2.20413,27.63586 2.66162,31.73012 2.97711,2.50508 8.55547,2.78379 11.2954,0.56437 z m -67.32385,-91.897 c 4.70431,-3.29502 5.39581,-11.21303 2.6076,-29.85834 -2.93375,-19.61851 -1.76384,-54.08795 2.08861,-61.53777 2.92195,-5.65041 0.22813,-15.84248 -5.62367,-21.27719 -7.24756,-6.73098 -18.31513,-9.33477 -25.30184,-5.95256 -12.70963,6.15262 -6.94007,25.6648 9.60498,32.48323 3.51246,1.44752 3.64048,1.82834 4.87395,14.49698 1.09963,11.29395 0.36585,31.26745 -1.67472,45.58615 -2.43858,17.11152 -1.51306,21.85893 4.99763,25.63488 3.68189,2.13535 5.83049,2.24361 8.42746,0.42462 z"
       id="path139" /><path
       style="fill:#ffffff;stroke:none;stroke-width:7.85095"
       d="m 321.86761,351.63728 c -15.86522,-2.27934 -31.97757,-7.2441 -45.48198,-14.01454 -8.21774,-4.11996 -22.27964,-13.56355 -29.98427,-20.13661 -5.92641,-5.05601 -6.01874,-5.19792 -6.57371,-10.10319 -0.66046,-5.83771 0.53834,-14.33836 2.91963,-20.70292 1.50722,-4.02841 8.96985,-15.74979 10.71349,-16.82741 0.36982,-0.22857 1.96378,6.96043 3.54212,15.97555 1.57834,9.01512 3.0019,16.39113 3.16346,16.39113 0.16157,0 4.45983,-2.08936 9.5517,-4.64303 5.09187,-2.55367 9.61166,-4.64304 10.04398,-4.64304 0.43232,0 2.9595,4.2737 5.61596,9.49712 2.65646,5.22341 4.92805,9.61517 5.04796,9.75947 0.11992,0.1443 4.72929,-1.99906 10.24304,-4.76302 l 10.02501,-5.02538 4.9513,9.6171 c 2.72321,5.28941 5.28637,9.6171 5.69591,9.6171 0.40954,0 4.95417,-2.11116 10.09917,-4.69148 10.89754,-5.46532 9.37833,-6.1044 15.61343,6.56798 2.23357,4.53957 4.42507,8.25376 4.87,8.25376 0.44494,0 5.69787,-4.84353 11.67318,-10.7634 5.97531,-5.91986 11.27334,-10.90456 11.77338,-11.07709 0.62761,-0.21655 0.79358,2.5286 0.53595,8.86397 -0.45038,11.0754 -2.5491,17.84419 -7.81879,25.21725 -6.13644,8.58576 -4.97027,8.14625 -22.5525,8.49956 -10.33929,0.20777 -18.17596,-0.0799 -23.66742,-0.86888 z"
       id="path140" /><path
       style="fill:#ffffff;stroke:none;stroke-width:7.85095"
       d="m 378.6183,278.68755 c 0,-12.01385 -0.24457,-23.06619 -0.54348,-24.56076 l -0.54348,-2.71739 -12.33257,12.31201 -12.33257,12.31201 -4.98481,-9.48909 c -2.74164,-5.219 -5.05841,-9.59086 -5.14838,-9.71523 -0.09,-0.12438 -4.4938,1.86652 -9.7863,4.42423 -5.2925,2.55771 -9.84976,4.65386 -10.12726,4.65813 -0.27749,0.004 -2.70887,-4.26595 -5.40307,-9.48937 -2.69419,-5.22341 -4.97035,-9.59438 -5.05813,-9.71326 -0.0878,-0.11888 -4.49433,1.8333 -9.79232,4.33818 -5.29799,2.50489 -9.85688,4.42173 -10.13087,4.25965 -0.27398,-0.16208 -1.59138,-7.87877 -2.92753,-17.1482 -1.33616,-9.26943 -2.75032,-16.65516 -3.14257,-16.41273 -0.39226,0.24243 -7.13981,9.00194 -14.99455,19.46558 -9.66071,12.86945 -14.44159,18.60723 -14.77662,17.73417 -0.27239,-0.70985 -0.0951,-4.87977 0.3941,-9.26649 1.83385,-16.44611 9.37276,-36.11453 17.16563,-44.78378 l 2.74013,-3.04829 10.13026,5.86201 c 28.79903,16.66495 62.53145,27.81945 98.3479,32.52127 5.80379,0.7619 11.07572,1.54192 11.7154,1.73339 0.92981,0.2783 1.07636,2.16516 0.73078,9.40826 -0.50072,10.49434 -3.07765,20.22465 -8.32283,31.42648 -3.02373,6.4576 -9.73428,17.73259 -10.55392,17.73259 -0.17762,0 -0.32294,-9.82952 -0.32294,-21.84337 z"
       id="path141" /><path
       style="fill:#ffffff;stroke:none;stroke-width:7.85095"
       d="m 316.14839,117.23909 c -24.62942,-5.13344 -50.89184,-18.174783 -55.29782,-27.459702 -1.36865,-2.884214 -1.38164,-3.576527 -0.18145,-9.668518 1.42466,-7.231371 5.24362,-15.603928 7.93142,-17.388559 1.5804,-1.04935 2.30189,-0.687824 8.38787,4.203032 3.66231,2.943124 15.9083,12.309835 27.21332,20.814913 19.9095,14.978464 30.5339,23.942774 32.31001,27.261464 2.32777,4.34947 -5.89512,5.25293 -20.36335,2.23737 z"
       id="path142" /><path
       style="fill:#ffffff;stroke:none;stroke-width:7.85095"
       d="m 455.03508,162.04005 c -13.70711,-2.1392 -30.14896,-7.53903 -42.92775,-14.09835 -7.0952,-3.64194 -13.22852,-8.32112 -13.22852,-10.09219 0,-3.12568 13.13592,-4.22606 56.41456,-4.7258 l 30.66683,-0.35411 0.74192,1.95139 c 1.92136,5.05358 -4.29956,22.13495 -9.43954,25.91904 -2.65731,1.95633 -14.06063,2.67457 -22.2275,1.40002 z"
       id="path143" /><path
       style="fill:#000000;stroke:none;stroke-width:7.85095"
       d="M -1.2662819,255.78895 V 0 H 254.52267 510.31162 V 255.78895 511.57791 H 254.52267 -1.2662819 Z M 493.42786,482.09208 v -12.60209 l -4.43198,-0.48635 c -2.43759,-0.2675 -10.3202,-1.06212 -17.5169,-1.76583 -55.35613,-5.41286 -95.7384,-13.39613 -132.53751,-26.20169 C 279.83691,420.46859 233.93973,385.89451 200.60891,336.831 181.33629,308.46139 167.0582,277.23665 155.53634,238.26181 c -4.26113,-14.41405 -4.42394,-15.33719 -4.3531,-24.68226 0.10963,-14.46124 3.58183,-28.64119 23.15193,-94.54905 11.23839,-37.848463 18.49499,-66.490665 22.4366,-88.558587 1.11897,-6.264798 2.0345,-11.885004 2.0345,-12.489347 0,-0.895532 -16.94459,-1.098807 -91.5944,-1.098807 H 15.617477 V 152.37593 c 0,94.42668 0.269782,135.49217 0.890123,135.49217 0.943972,0 24.095254,-9.32607 32.190662,-12.96742 5.244301,-2.3589 19.836928,-14.4636 26.900312,-22.31401 17.563291,-19.52025 22.705249,-37.65575 21.61612,-76.23925 l -0.514812,-18.2379 8.115148,-0.57045 c 4.46332,-0.31373 8.34806,-0.33764 8.63274,-0.0531 0.28469,0.28452 0.51746,11.59741 0.51728,25.13976 -2.6e-4,20.05997 -0.27688,26.05822 -1.49285,32.37098 -2.92338,15.17681 -8.82414,29.22977 -17.305701,41.21436 C 83.005381,273.39493 52.76988,302.1427 24.270404,323.6187 l -8.652927,6.52049 v 82.27748 82.27748 H 254.52267 493.42786 Z M 365.72126,348.92405 c 4.73895,-5.41515 8.34996,-12.31192 9.9088,-18.92512 1.51378,-6.42205 1.77246,-21.87032 0.36621,-21.87032 -0.51351,0 -6.13024,5.11473 -12.48161,11.36607 l -11.54796,11.36607 -5.03529,-9.66373 c -2.76941,-5.31504 -5.32653,-9.67 -5.68249,-9.67769 -0.35596,-0.008 -4.81327,2.07539 -9.90514,4.62906 -5.09188,2.55367 -9.45104,4.64304 -9.68705,4.64304 -0.23601,0 -2.50995,-4.14909 -5.0532,-9.22019 -2.54325,-5.0711 -4.99849,-9.45156 -5.45607,-9.73437 -0.45759,-0.28281 -5.02157,1.58697 -10.14219,4.15505 -5.12061,2.56809 -9.49106,4.66925 -9.71209,4.66925 -0.22104,0 -2.71758,-4.34871 -5.54786,-9.66379 -4.09613,-7.69225 -5.43787,-9.55894 -6.57672,-9.14985 -0.78692,0.28268 -5.26096,2.54163 -9.94231,5.0199 l -8.51154,4.50595 -2.80676,-15.82766 c -1.54371,-8.70522 -3.13806,-16.19975 -3.543,-16.65452 -1.55269,-1.74375 -10.26385,11.0184 -13.18253,19.31285 -1.7229,4.8962 -2.12106,7.66051 -2.17163,15.07691 l -0.0619,9.08146 4.56049,4.00345 c 19.18329,16.84018 39.78973,27.67721 63.2109,33.24296 13.65577,3.24512 22.43607,4.07463 39.39677,3.72198 l 16.03957,-0.3335 z m 19.72766,-56.09738 c 4.16284,-6.91409 8.44865,-16.96814 10.97215,-25.73943 1.46422,-5.08941 1.92894,-8.93047 1.97518,-16.32557 l 0.0605,-9.67031 -11.20922,-1.46443 c -37.87084,-4.94765 -72.14078,-16.45408 -102.6153,-34.45402 -3.96322,-2.34089 -7.59833,-4.25617 -8.078,-4.25617 -1.37857,0 -7.20718,8.27973 -10.57126,15.01683 -1.6898,3.38408 -4.2061,9.53689 -5.5918,13.67291 -4.0042,11.95173 -6.50201,32.13044 -3.96905,32.06418 0.58038,-0.0152 7.44532,-8.59889 15.25541,-19.0749 7.8101,-10.47601 14.35833,-18.88914 14.55164,-18.69584 0.1933,0.19331 1.30187,6.97256 2.46349,15.06502 1.16162,8.09245 2.31319,15.56788 2.55903,16.61206 0.43642,1.85359 0.66863,1.78738 9.81126,-2.79783 5.15035,-2.583 9.84375,-4.51236 10.42978,-4.28749 0.58603,0.22489 3.21651,4.61406 5.84552,9.75373 l 4.78001,9.34485 10.09218,-5.05906 10.09219,-5.05905 5.14414,10.26189 5.14413,10.26191 11.99897,-11.97756 c 6.59942,-6.58764 12.26565,-11.71085 12.59161,-11.38489 0.32597,0.32596 0.60632,11.45103 0.62302,24.72237 l 0.0304,24.1297 2.12309,-2.53256 c 1.1677,-1.39291 3.63865,-5.04976 5.49099,-8.12634 z M 476.7246,162.06822 c 2.6058,-1.21874 5.71576,-5.39331 8.17426,-10.97251 2.26277,-5.13503 3.70712,-14.43175 2.66711,-17.16719 l -0.80722,-2.12314 -32.75447,0.42031 c -45.50633,0.58394 -55.03022,1.54439 -55.81681,5.62885 -1.08741,5.64645 28.09584,19.46669 50.07634,23.71452 3.71443,0.71783 7.70321,1.47902 8.86397,1.69152 3.87223,0.7089 17.27534,-0.1066 19.59682,-1.19236 z M 336.79413,118.73976 c 4.30065,-3.14471 -1.35013,-8.70814 -33.82435,-33.301488 -12.94896,-9.806502 -25.54572,-19.423456 -27.9928,-21.371014 -3.82107,-3.041076 -4.72104,-3.417174 -6.37438,-2.663863 -4.51592,2.057594 -10.64037,19.268842 -9.42224,26.478885 1.67409,9.908859 28.72887,24.43689 56.27986,30.22146 9.3869,1.97087 19.1119,2.26079 21.33391,0.63602 z"
       id="path144" /><path
       style="fill:#000000;stroke:none;stroke-width:7.85095"
       d="m 138.0326,390.98115 c -3.22984,-1.73218 -6.76137,-7.49919 -6.76137,-11.04136 0,-1.21651 0.75612,-7.58023 1.68027,-14.14163 2.43835,-17.31217 2.92411,-29.38841 1.76147,-43.79077 -0.55999,-6.93688 -1.20319,-13.25843 -1.42934,-14.0479 -0.22615,-0.78946 -2.43156,-2.36035 -4.9009,-3.49085 -9.28038,-4.2487 -14.83945,-11.64994 -14.83945,-19.75696 0,-12.191 14.77895,-15.98535 27.26614,-7.0003 7.90521,5.68812 11.86162,15.71467 8.70094,22.05039 -4.08398,8.18654 -5.31946,41.71633 -2.29823,62.37179 2.88799,19.74457 2.15121,27.13462 -2.93639,29.45268 -2.73231,1.24493 -2.80709,1.23769 -6.24314,-0.60509 z"
       id="path145" /><path
       style="fill:#000000;stroke:none;stroke-width:7.85095"
       d="m 202.61666,482.73378 c -1.27964,-1.00657 -2.85041,-3.08373 -3.4906,-4.61592 -1.36825,-3.27469 -1.51073,-12.9769 -0.29585,-20.14589 3.18273,-18.78117 3.91822,-36.58083 2.21223,-53.53866 l -0.96989,-9.64088 -5.33957,-2.72329 c -6.55267,-3.342 -8.91052,-5.47872 -12.04823,-10.91827 -9.38601,-16.27166 8.37886,-27.4708 24.81552,-15.64394 7.9736,5.73733 11.66748,15.2145 8.6991,22.31882 -4.22033,10.10068 -5.08033,40.86832 -1.76784,63.24681 2.30536,15.57456 2.56185,21.25136 1.18434,26.21251 -1.89902,6.83932 -7.98714,9.3912 -12.99921,5.44871 z"
       id="path146" /></g></svg>
