<?xml version="1.0" encoding="UTF-8" standalone="no"?>
<!-- Created with Inkscape (http://www.inkscape.org/) -->

<svg
   width="512"
   height="512"
   viewBox="0 0 135.46667 135.46667"
   version="1.1"
   id="svg1"
   xml:space="preserve"
   xmlns="http://www.w3.org/2000/svg"
   xmlns:svg="http://www.w3.org/2000/svg"><defs
     id="defs1" /><path
     style="fill:#ffffff;stroke:#ffffff;stroke-width:1.47505;stroke-dasharray:none"
     d="m 53.494259,134.7966 78.622041,-0.22336 c 0,0 -1.34015,-6.14235 -7.14746,-8.82265 -5.80731,-2.68029 -9.49272,-4.8022 -9.49272,-4.8022 l -5.02555,-9.82775 -2.6803,-1.45183 -1.22847,-24.681064 -49.585492,36.295684 z"
     id="path142" /><path
     style="fill:#000000;stroke-width:0.632621"
     d="m 52.309385,135.12775 c -0.225964,-0.22597 -0.410844,-0.52332 -0.410844,-0.66078 0,-0.26139 2.345574,-8.68433 3.104203,-11.14719 0.241034,-0.7825 0.502584,-1.63145 0.58122,-1.88653 0.138961,-0.45078 0.104502,-0.48301 -1.227235,-1.14785 -2.146958,-1.07183 -4.036476,-2.39729 -4.68505,-3.28647 -1.212156,-1.66185 -2.098251,-3.82231 -5.473939,-13.34639 -0.84836,-2.39354 -2.128314,-5.820674 -2.84434,-7.615829 -0.716026,-1.795156 -1.605647,-4.215619 -1.976935,-5.37879 -0.821232,-2.572746 -2.425848,-8.876628 -2.784932,-10.940845 -0.57709,-3.317448 -0.513634,-6.617828 0.241374,-12.553561 0.541834,-4.259801 0.5695,-5.555168 0.180538,-8.452732 -0.478527,-3.564767 -0.737385,-7.98707 -0.634583,-10.841135 0.07605,-2.111308 0.04733,-2.489975 -0.247533,-3.263925 C 35.633904,43.300095 35.03,40.148649 34.832328,37.82694 c -0.212253,-2.492977 -0.02034,-5.060456 0.588134,-7.868256 0.68632,-3.167018 0.723072,-2.80155 -0.424545,-4.221773 -1.487533,-1.840885 -2.012452,-3.453118 -2.010239,-6.174247 0.004,-4.907141 3.479331,-10.6514879 8.504236,-14.0565499 1.930289,-1.3080347 3.846403,-2.0148725 6.656495,-2.4555222 1.45309,-0.2278582 2.517891,-0.2674329 5.336284,-0.198332 3.937258,0.096532 4.174125,0.1302854 12.55953,1.7896762 9.029083,1.7867697 9.352864,1.8246914 20.002011,2.3426554 2.18129,0.1060953 4.018109,0.2896158 5.042083,0.5037642 3.527938,0.7378123 8.227139,2.6953773 10.356953,4.3144393 1.51657,1.152876 3.63674,3.452819 4.45006,4.827384 0.857,1.448373 1.47556,3.013636 1.74667,4.419912 l 0.20974,1.087977 1.14894,0.563085 c 2.29426,1.124409 4.01914,2.700468 5.56751,5.087156 2.63604,4.063275 3.64394,7.775824 3.63193,13.378098 -0.008,3.610572 -0.59872,9.051674 -1.1349,10.448942 -0.0445,0.115875 0.19991,0.336291 0.56155,0.506492 0.79866,0.375872 2.32294,1.954072 3.05677,3.164896 1.8106,2.98747 2.12126,7.292388 0.93804,12.998321 -0.97561,4.704724 -3.37653,9.752725 -5.99371,12.601909 -1.5068,1.640374 -2.86654,2.644704 -4.91082,3.627227 l -1.69165,0.813042 -0.10872,2.216349 c -0.16954,3.45627 -0.33633,18.569865 -0.21223,19.231355 0.0965,0.51436 0.20103,0.61928 0.79421,0.79699 1.41846,0.42499 2.0304,1.24771 4.11891,5.53762 1.05323,2.1634 2.40309,4.91856 2.99969,6.12259 1.18577,2.39309 1.23665,2.79156 0.43674,3.42077 -0.52149,0.4102 -1.06368,0.42378 -1.53942,0.0386 -0.1994,-0.16146 -0.88048,-1.44742 -1.51351,-2.85768 -1.15467,-2.57237 -4.45475,-8.56541 -4.71656,-8.56541 -0.0769,0 -0.13966,0.20713 -0.13959,0.4603 5.8e-4,2.03968 -1.20095,5.04585 -3.23829,8.10205 -2.54688,3.82057 -8.228592,9.63275 -12.24367,12.52483 -2.042834,1.47147 -4.248752,2.6809 -4.889763,2.6809 -0.630334,0 -1.156569,-0.44007 -1.324013,-1.10723 -0.215496,-0.8586 0.103015,-1.25628 1.86334,-2.32647 6.079919,-3.69628 12.814876,-10.51735 15.484716,-15.68268 l 1.02172,-1.97673 0.079,-9.99944 c 0.0435,-5.499702 0.13269,-11.600127 0.19834,-13.556515 0.0656,-1.956387 0.0737,-3.55697 0.018,-3.556841 -0.0557,1.18e-4 -0.38319,1.412504 -0.72766,3.13862 -0.84149,4.216598 -1.30307,5.93565 -2.06468,7.68956 -1.4489,3.336606 -3.740714,6.360986 -8.709702,11.493666 -6.558836,6.77491 -9.322155,9.11257 -12.866497,10.88453 -4.120343,2.05993 -7.94953,2.78073 -14.772546,2.78073 -3.080992,0 -5.332466,-0.14659 -6.772093,-0.4409 l -0.486928,-0.0995 0.113385,1.90218 c 0.06236,1.04621 0.184068,2.91902 0.270456,4.16183 0.21438,3.08412 0.208729,5.42625 -0.01428,5.91568 -0.367864,0.80738 -1.384166,0.99675 -2.090158,0.38949 -0.444955,-0.38274 -0.45756,-0.44799 -0.670957,-3.47315 -0.119616,-1.6957 -0.227182,-3.30906 -0.239036,-3.58523 l -0.02156,-0.50215 -0.260062,0.58583 c -0.143035,0.32221 -0.730197,2.0761 -1.304806,3.89753 -0.574608,1.82142 -1.178662,3.45966 -1.342343,3.64053 -0.42853,0.47351 -1.327929,0.43351 -1.843443,-0.082 z m 22.297987,-15.72561 c 5.735573,-0.9865 9.999347,-3.74622 16.887695,-10.93053 4.673715,-4.87453 6.415211,-6.99573 7.941579,-9.673116 1.939714,-3.402426 2.703994,-5.883701 3.762654,-12.215636 0.61805,-3.696643 0.83344,-4.52054 1.27823,-4.889375 0.61268,-0.508055 1.0609,-0.529249 2.24752,-0.106289 1.39766,0.498191 2.65586,0.457506 3.87993,-0.125469 1.59264,-0.758508 4.83536,-4.555517 6.06426,-7.100835 1.3111,-2.715563 2.28322,-6.442012 2.77971,-10.655468 0.29345,-2.490253 0.22,-3.873018 -0.28624,-5.388955 -1.0223,-3.061305 -2.83726,-3.997514 -5.34836,-2.758842 -1.72048,0.848672 -3.44841,2.737141 -5.1737,5.654387 -0.78251,1.323113 -1.72563,2.741832 -2.09582,3.152711 -0.59732,0.662956 -0.75161,0.745968 -1.37056,0.737425 -0.80825,-0.01116 -1.42205,-0.359084 -1.69663,-0.961711 -0.28051,-0.615666 -0.23969,-1.702923 0.17309,-4.608726 0.25848,-1.819653 0.36931,-3.440416 0.3766,-5.507593 0.0139,-3.929374 -0.2366,-4.795959 -2.75759,-9.540708 -0.94994,-1.787902 -2.02996,-4.974898 -2.342544,-6.912591 -0.330487,-2.048686 -0.134336,-4.828921 0.510165,-7.23109 0.296394,-1.104714 0.577739,-2.184693 0.625219,-2.399953 0.0703,-0.31894 -0.159472,-0.632923 -1.241658,-1.696379 -1.545669,-1.518924 -2.643385,-2.130306 -4.95617,-2.760379 -1.959443,-0.53381 -4.24573,-0.710874 -7.402066,-0.573258 -2.938282,0.128108 -4.513086,0.428281 -8.272473,1.57681 -5.738604,1.753198 -7.681123,2.088878 -12.059909,2.084023 -5.022277,-0.0056 -7.982723,-0.610986 -14.482834,-2.961782 -4.279461,-1.547687 -4.036142,-1.514454 -4.852247,-0.662721 -0.908806,0.948483 -2.827288,3.736053 -3.707217,5.386616 -0.755436,1.417044 -1.628983,4.200899 -2.226421,7.095254 -0.518666,2.512734 -1.353262,9.267346 -1.469835,11.895764 l -0.09999,2.254482 0.403214,-0.260063 c 2.121803,-1.368505 3.116257,-1.654659 5.747938,-1.653962 3.503635,9.49e-4 6.054922,0.623409 9.552173,2.330609 3.450873,1.684559 4.668763,2.809465 5.46472,5.047494 0.544169,1.530069 0.545766,5.299254 0.0033,7.85302 -0.482142,2.269879 -1.78887,7.064524 -3.079205,11.298205 -0.561155,1.841193 -1.052831,3.582461 -1.092613,3.869495 -0.105105,0.758347 0.349809,1.490751 1.257263,2.024167 0.719889,0.423175 0.942776,0.466542 2.384245,0.463871 1.176146,-0.0022 2.134819,-0.132695 3.682379,-0.501347 2.689916,-0.640771 5.060679,-0.701476 5.80421,-0.148611 0.334728,0.248902 0.48739,0.524026 0.523376,0.943249 0.07351,0.856322 -0.441076,1.197847 -2.173144,1.442291 -0.765962,0.108098 -2.108212,0.411749 -2.982776,0.67479 -3.289832,0.989469 -5.494434,1.092722 -7.448448,0.348838 -0.752967,-0.286647 -1.280002,-0.658411 -2.10607,-1.485604 -1.267123,-1.268846 -1.66115,-2.164636 -1.658013,-3.769354 0.0023,-1.154169 0.04747,-1.33625 1.582482,-6.372491 0.617297,-2.025313 1.445613,-4.944017 1.840699,-6.486012 l 0.71834,-2.80363 -0.523481,-0.0037 c -0.287914,-0.002 -0.851822,-0.152666 -1.253128,-0.334762 -0.942694,-0.427759 -0.947546,-0.426911 -1.212057,0.211673 -0.290668,0.701736 -1.240824,1.749883 -1.891133,2.086171 -0.280709,0.145161 -0.891545,0.269438 -1.357415,0.276171 -1.652156,0.02389 -2.593241,-1.022924 -2.729048,-3.035627 -0.08124,-1.203958 0.16128,-1.165168 -2.207241,-0.353044 -0.782505,0.268307 -1.848358,0.750497 -2.368561,1.071534 -1.058276,0.653101 -1.399209,0.709785 -1.844625,0.306689 -0.601592,-0.544434 -0.396685,-1.208586 0.70274,-2.277744 1.750315,-1.702129 4.837633,-2.799701 7.862348,-2.79514 1.568298,0.0024 2.346341,0.180152 4.165974,0.951945 1.640063,0.695627 2.45893,1.234582 2.612916,1.719747 0.426623,1.344171 0.57844,-1.392937 0.172688,-3.113403 -0.394763,-1.673865 -0.541548,-1.885017 -1.498368,-2.155412 -0.467615,-0.132158 -2.733256,-0.77724 -5.034742,-1.433523 -4.044552,-1.15333 -7.811324,-2.003108 -8.864099,-1.999726 -0.547,0.0017 -2.161684,0.68832 -2.64279,1.123716 -0.376245,0.340498 -0.371774,0.729458 0.05647,4.913085 0.406477,3.970918 0.37354,4.826628 -0.386057,10.030125 -0.408774,2.800243 -0.527652,4.19288 -0.535795,6.276783 -0.01222,3.128055 0.129387,3.958392 1.916738,11.238885 1.234695,5.029338 2.511305,9.028717 4.132917,12.947641 0.552352,1.33486 1.928439,4.874965 3.05797,7.866905 2.431356,6.44024 3.397802,8.75724 3.966493,9.50941 0.575953,0.7618 2.11278,1.95895 3.291262,2.56382 1.389678,0.71328 2.963403,1.06706 6.133425,1.37882 1.518981,0.1494 2.987749,0.30319 3.263927,0.34177 1.217902,0.17015 8.435715,-0.0513 9.904195,-0.30387 z m -12.27062,-12.1362 c -1.230725,-0.3346 -2.767027,-1.0284 -3.282679,-1.48247 -0.457825,-0.40315 -0.392475,-1.47215 0.110128,-1.80146 0.364464,-0.23881 0.488633,-0.23956 1.297201,-0.008 1.293118,0.37059 3.913901,0.76509 5.078679,0.7645 0.850977,-4.3e-4 2.94204,-0.27718 4.628252,-0.61255 0.921258,-0.18322 1.543611,1.23709 0.868798,1.98275 -0.152673,0.16871 -1.000038,0.53975 -1.883034,0.82453 -2.146124,0.69217 -4.985206,0.83067 -6.817345,0.33255 z m -0.432773,-6.12847 c -1.959219,-0.3899 -2.957947,-0.95591 -4.525516,-2.564725 -0.776019,-0.796425 -1.901933,-2.201272 -2.502031,-3.121863 -1.227702,-1.883396 -1.782131,-2.46342 -3.324703,-3.478207 -1.18158,-0.77731 -1.50025,-1.318017 -1.229877,-2.08682 0.308571,-0.877419 0.838364,-0.958961 3.13408,-0.482372 2.999577,0.622712 4.231311,0.776944 7.474317,0.935926 7.444384,0.364958 13.477902,-0.880466 20.00887,-4.130189 2.306722,-1.147793 5.607257,-3.046825 5.607257,-3.226268 0,-0.05891 -0.914453,-0.316573 -2.032119,-0.572604 -2.315219,-0.530358 -2.940878,-0.926772 -2.745104,-1.739254 0.1786,-0.741203 0.514746,-0.870516 2.256657,-0.868125 3.075793,0.0043 6.223561,0.972045 7.355832,2.261621 0.7309,0.832459 1.068838,2.144941 0.997739,3.875041 -0.04875,1.186346 -0.113501,1.460587 -0.393126,1.66511 -0.970603,0.709898 -1.675516,0.303931 -2.512327,-1.446878 -0.510494,-1.068071 -0.625305,-1.128107 -1.47698,-0.772249 -0.430103,0.179701 -0.593672,0.385721 -0.764138,0.962439 -0.344382,1.165099 -1.583355,3.615359 -2.656219,5.253063 -2.068034,3.156819 -5.999412,6.088837 -10.761394,8.025819 -3.592459,1.461275 -8.824664,2.124805 -11.911218,1.510535 z m 8.322765,-3.318096 c 3.249629,-0.814183 5.970973,-2.000906 7.971379,-3.47616 1.954066,-1.441074 4.002328,-3.824438 4.403742,-5.124202 0.113011,-0.365928 0.09045,-0.36288 -1.108455,0.149321 -3.109752,1.328593 -8.351927,2.835109 -11.936189,3.430264 -1.51309,0.251238 -2.800867,0.306009 -7.226595,0.307334 l -5.385406,0.0011 0.492104,0.923541 c 0.665027,1.248073 1.891876,2.784635 2.54572,3.188372 0.58325,0.360145 1.870606,0.775297 3.101703,1.000249 1.491925,0.272604 5.310382,0.05858 7.141997,-0.400334 z m 39.083426,-22.20313 c -0.56036,-0.560361 -0.4448,-1.381038 0.29292,-2.080263 0.34522,-0.327213 0.67499,-0.595574 0.73283,-0.596371 0.23118,-0.0032 1.30786,-1.803782 1.48367,-2.481218 0.31771,-1.224198 -0.24916,-2.284835 -1.42144,-2.659571 -0.72003,-0.230169 -0.88612,-0.826944 -0.5371,-1.929892 0.46167,-1.458978 1.46167,-2.973262 2.96413,-4.4885 1.6611,-1.675249 2.84955,-2.502266 3.59582,-2.502266 0.9525,0 1.67393,1.079329 1.28784,1.926724 -0.0991,0.217585 -0.594,0.66028 -1.09969,0.983764 -1.21569,0.777666 -2.10554,1.596229 -3.11684,2.867154 l -0.83157,1.045043 0.71635,1.068257 c 1.37869,2.055985 1.60852,3.906916 0.72795,5.862288 -1.09516,2.431856 -3.71622,4.063497 -4.79487,2.984851 z M 83.0514,63.874052 C 81.703085,63.48628 81.022808,62.461512 81.022808,60.81818 v -0.967144 l -0.878748,0.110601 c -1.290987,0.162487 -2.618593,0.560061 -3.473154,1.040094 -0.414267,0.232708 -1.165855,0.567518 -1.670193,0.744024 -0.897044,0.313943 -0.926156,0.314101 -1.339047,0.0072 -0.284499,-0.211441 -0.438578,-0.505778 -0.472723,-0.903045 -0.06336,-0.737268 0.447364,-1.286716 2.227219,-2.396051 1.905403,-1.187585 3.307536,-1.615198 5.606646,-1.709873 3.189318,-0.131332 6.299668,0.590082 9.52236,2.208615 1.715391,0.861522 2.194298,1.292189 2.194298,1.973264 0,0.521577 -0.649024,1.299878 -1.083968,1.299878 -0.221152,0 -2.427458,-0.793348 -3.726878,-1.340119 -0.345673,-0.145452 -0.390603,-0.09695 -0.569938,0.615254 -0.251314,0.998059 -1.310754,2.126331 -2.235042,2.380254 -0.789035,0.216766 -1.29988,0.215012 -2.07224,-0.0071 z M 71.047646,53.693701 C 70.42554,53.442176 69.47353,52.174889 69.47353,51.598284 c 0,-1.031494 0.579659,-1.341849 4.881416,-2.613559 7.298133,-2.157518 11.379912,-2.875227 14.30658,-2.515561 1.756369,0.215844 2.605078,0.511693 4.412703,1.538207 2.765166,1.570281 3.683193,2.500916 3.814437,3.866823 0.0866,0.901262 -0.239739,1.480402 -0.834193,1.480402 -0.519401,0 -1.552527,-0.608445 -2.589601,-1.525105 -0.537062,-0.474703 -1.466065,-1.097796 -2.064451,-1.38465 -1.003876,-0.481238 -1.217358,-0.520459 -2.761784,-0.507395 -2.20402,0.01864 -4.290489,0.533809 -9.869464,2.436859 -4.241016,1.446657 -4.382397,1.482177 -5.85833,1.471824 -0.831838,-0.0058 -1.670277,-0.07442 -1.863197,-0.152428 z"
     id="path139" /><path
     style="fill:#ffffff;stroke:none;stroke-width:1.96276;stroke-dasharray:none"
     d="m 64.103768,119.60648 c -0.429967,-0.0565 -1.744777,-0.2076 -2.9218,-0.33583 -4.429455,-0.48256 -6.208569,-1.16179 -8.429807,-3.21832 -1.127639,-1.04402 -1.340768,-1.51364 -4.823095,-10.62732 -0.950529,-2.48765 -2.179781,-5.653752 -2.731673,-7.035779 -1.292727,-3.237204 -1.987722,-5.184169 -2.756744,-7.722783 -0.725879,-2.396202 -2.32705,-8.722006 -2.911594,-11.502943 -0.379632,-1.806075 -0.411247,-2.108904 -0.466235,-4.465916 -0.06564,-2.813402 -8e-6,-3.681121 0.60276,-7.969366 0.528003,-3.756319 0.585642,-5.745335 0.262152,-9.046002 -0.13244,-1.351317 -0.269856,-2.94668 -0.305366,-3.545255 L 39.5578,53.04865 39.963776,52.665764 c 0.490046,-0.462169 1.996641,-1.070049 2.652062,-1.070049 0.579871,0 2.73309,0.432342 5.07111,1.018222 2.785684,0.698063 8.906619,2.44615 9.184045,2.622886 0.378246,0.240964 0.586169,0.624086 0.824786,1.519756 0.226756,0.851138 0.409188,3.160451 0.276905,3.505177 -0.06628,0.172725 -0.10513,0.153167 -0.285756,-0.143849 -0.114977,-0.189063 -0.380026,-0.474163 -0.588997,-0.633553 -0.480605,-0.366575 -1.966185,-1.060505 -3.268636,-1.526818 -0.892032,-0.31937 -1.174731,-0.365884 -2.512779,-0.413456 -3.191884,-0.11348 -6.276372,0.882226 -8.174573,2.638835 -1.201171,1.111575 -1.472244,1.837566 -0.893236,2.392291 0.463553,0.444111 0.868016,0.39357 2.080295,-0.25995 1.108056,-0.597337 3.591893,-1.56186 4.022095,-1.56186 0.238011,0 0.265216,0.06136 0.33419,0.753833 0.166074,1.66725 0.700651,2.618586 1.682052,2.993384 0.737478,0.281647 1.987656,0.182436 2.659023,-0.21101 0.590917,-0.346303 1.19336,-1.010571 1.662485,-1.833102 0.18392,-0.322474 0.399002,-0.586314 0.477962,-0.586314 0.07896,0 0.477351,0.125637 0.88532,0.279196 0.407969,0.153559 0.93613,0.279199 1.173697,0.279199 h 0.431935 l -0.147508,0.530474 c -0.08113,0.291761 -0.4288,1.598567 -0.772599,2.904011 -0.3438,1.305443 -1.145625,4.119753 -1.781837,6.254025 -1.441127,4.834493 -1.448583,4.868442 -1.38289,6.297832 0.04655,1.01295 0.09611,1.240962 0.399479,1.838209 0.726689,1.430626 2.26392,2.763509 3.716369,3.222337 1.825916,0.576805 3.487703,0.490958 6.694189,-0.345824 1.074912,-0.280514 2.569324,-0.628383 3.32092,-0.773041 1.960936,-0.37742 2.263032,-0.564047 2.263032,-1.398045 0,-0.408644 -0.06662,-0.611688 -0.286377,-0.872855 -0.376418,-0.44735 -0.863976,-0.568945 -2.282241,-0.569185 -1.25096,-2.09e-4 -2.235824,0.136763 -4.467161,0.621286 -1.117132,0.242581 -1.708306,0.305509 -2.959494,0.315034 -1.490642,0.01135 -1.589861,-0.0021 -2.128989,-0.286538 -0.311015,-0.164142 -0.747911,-0.500367 -0.97088,-0.747167 -0.671563,-0.743339 -0.663787,-0.953487 0.136839,-3.698442 2.429148,-8.328327 3.308062,-11.599085 3.651809,-13.589722 0.271941,-1.574819 0.272907,-5.481614 0.0016,-6.563435 -0.606748,-2.419545 -2.024703,-3.850693 -5.492594,-5.543698 -2.621783,-1.279938 -4.577725,-1.926262 -6.756583,-2.232652 -1.314545,-0.184851 -4.687522,-0.187031 -5.528111,-0.0036 -0.746035,0.162822 -2.066589,0.738174 -2.854026,1.24347 -0.283745,0.182079 -0.555236,0.331052 -0.603314,0.331052 -0.189894,0 0.153779,-4.340405 0.672045,-8.487606 0.713343,-5.708232 1.643962,-9.568921 2.947767,-12.228854 0.851514,-1.737204 2.771167,-4.563776 3.918776,-5.770163 0.419944,-0.441455 0.458375,-0.457146 0.969986,-0.396032 0.292995,0.035 1.939873,0.562952 3.65973,1.173228 7.079245,2.512006 8.908884,2.871064 14.629954,2.871064 3.163657,0 4.002021,-0.03421 5.025556,-0.205059 1.526228,-0.254762 3.901446,-0.856811 6.812421,-1.726753 3.889856,-1.162478 5.103008,-1.405765 7.968573,-1.598025 5.072245,-0.340314 9.199012,0.471473 11.582691,2.27846 0.821381,0.62266 2.393667,2.24697 2.393667,2.472869 0,0.08964 -0.200768,0.933992 -0.446154,1.876332 -0.608965,2.338589 -0.805076,3.728506 -0.807746,5.724822 -0.0019,1.298972 0.05269,1.938533 0.242358,2.847813 0.441727,2.117657 1.257192,4.328018 2.589212,7.018174 2.32407,4.6937 2.27674,4.504732 2.27023,9.063609 -0.005,3.18548 -0.0336,3.727453 -0.30711,5.735738 -0.37843,2.778263 -0.38769,3.542745 -0.0508,4.199687 0.32974,0.643059 0.8165,0.89744 1.71725,0.89744 h 0.68771 l 0.59834,-0.655354 c 0.32909,-0.360445 0.97115,-1.25248 1.42681,-1.982301 2.021,-3.237029 2.48944,-3.878824 3.74254,-5.127612 1.3428,-1.338175 2.08317,-1.814751 3.30584,-2.127986 1.17077,-0.299937 2.02516,-0.03326 2.88619,0.900848 0.53611,0.581613 1.14501,1.784903 1.41395,2.79422 0.80726,3.029535 -0.54532,10.939968 -2.60888,15.257828 -1.29922,2.718538 -4.50799,6.457191 -6.24769,7.279418 -0.67983,0.321305 -0.85335,0.355396 -1.81275,0.356137 -0.83596,5.29e-4 -1.22673,-0.05671 -1.8427,-0.270478 -1.38774,-0.481592 -2.18305,-0.314735 -2.62453,0.55063 -0.27223,0.533611 -0.45064,1.321853 -0.9479,4.187827 -1.22538,7.0626 -1.93752,9.304703 -4.125056,12.987325 -1.438667,2.421926 -3.062473,4.373936 -7.536977,9.060346 -7.417043,7.76829 -12.275129,10.69279 -18.562862,11.17457 -2.10434,0.16125 -7.929309,0.23496 -8.864064,0.11218 z m 3.18285,-12.18867 c 0.910857,-0.12704 2.28015,-0.52789 3.214002,-0.94089 0.464018,-0.20521 0.62669,-0.34724 0.758203,-0.66199 0.312389,-0.74765 -0.195072,-1.73083 -0.892577,-1.72933 -0.18892,5.3e-4 -0.92143,0.10272 -1.627799,0.22737 -2.709698,0.47815 -4.897908,0.39678 -7.798554,-0.29 -1.42327,-0.33698 -1.495655,-0.33712 -1.883375,-0.004 -0.272452,0.23436 -0.313346,0.34942 -0.313346,0.88171 0,0.7578 0.169039,0.96703 1.201814,1.48758 2.33485,1.17685 4.303831,1.45287 7.341632,1.02918 z m 1.340149,-6.34324 c 2.892978,-0.48716 5.106644,-1.217042 7.686868,-2.534476 3.398568,-1.735268 6.384121,-4.152035 8.03733,-6.506123 1.079633,-1.537338 2.176574,-3.650779 2.990618,-5.761916 0.181546,-0.470821 0.297518,-0.599205 0.739476,-0.818605 0.39271,-0.194959 0.574688,-0.232029 0.725646,-0.147831 0.110818,0.06181 0.456843,0.580951 0.768943,1.153644 0.663117,1.216795 1.100939,1.598758 1.719344,1.499984 0.535922,-0.0856 0.923285,-0.40431 1.042797,-0.85797 0.05542,-0.210378 0.07691,-1.035828 0.04777,-1.834332 -0.06262,-1.71554 -0.303488,-2.495881 -1.005454,-3.257423 -1.223624,-1.327476 -3.985178,-2.18245 -7.118271,-2.20381 -1.88877,-0.01288 -2.169805,0.04424 -2.399067,0.487587 -0.573024,1.108104 0.09789,1.586701 3.292499,2.348699 0.583523,0.139184 1.102043,0.290094 1.152263,0.335351 0.115348,0.10395 -0.833985,0.702363 -3.098257,1.952993 -7.726104,4.267375 -14.438961,5.825331 -22.902591,5.31536 -2.57093,-0.154908 -3.879226,-0.320654 -6.306537,-0.798962 -0.953894,-0.187968 -2.051121,-0.347163 -2.438281,-0.353764 -0.616715,-0.0105 -0.739696,0.02376 -0.992629,0.276701 -0.208222,0.208222 -0.303443,0.44209 -0.341575,0.838952 -0.04781,0.497628 -0.01836,0.589552 0.307991,0.961247 0.198472,0.226049 0.769459,0.706178 1.268857,1.066953 1.172962,0.847368 1.958015,1.684163 2.945733,3.139872 1.685756,2.484485 3.667885,4.503592 5.073415,5.168059 0.649539,0.30708 1.648833,0.58981 2.639992,0.74693 1.075592,0.1705 4.59817,0.0464 6.163122,-0.21712 z M 111.52034,75.589553 c 0.34268,-0.180753 0.90515,-0.615191 1.24995,-0.965417 1.22534,-1.244656 1.86824,-2.709855 1.86824,-4.257837 0,-1.311899 -0.35649,-2.3134 -1.3996,-3.931933 l -0.47728,-0.740572 0.75864,-0.934614 c 1.00435,-1.237295 1.60995,-1.810533 3.01678,-2.855542 0.99694,-0.740537 1.18787,-0.932704 1.27431,-1.282573 0.21295,-0.861864 -0.49412,-1.769129 -1.37458,-1.76376 -0.57381,0.0035 -1.1706,0.308327 -2.15479,1.100614 -2.40804,1.938512 -4.39495,4.765677 -4.6119,6.562254 -0.0877,0.726162 0.0921,1.037815 0.79659,1.38068 0.75226,0.366128 0.9281,0.525344 1.17174,1.06095 0.33768,0.742337 0.27181,1.257875 -0.30491,2.386203 -0.50591,0.989799 -0.63634,1.15242 -1.58819,1.980169 -0.58713,0.510585 -0.80244,0.904041 -0.80244,1.466384 0,0.516543 0.24396,0.893638 0.71232,1.101045 0.46473,0.205796 1.08891,0.103373 1.86512,-0.306051 z M 85.407161,63.843174 c 0.487042,-0.203499 1.261763,-0.892762 1.589286,-1.41397 0.135308,-0.215326 0.333245,-0.655341 0.439862,-0.977816 0.106614,-0.322471 0.213624,-0.586314 0.237802,-0.586314 0.02418,0 0.434745,0.156811 0.912376,0.34847 0.477631,0.191656 1.365848,0.517496 1.973813,0.724088 1.260504,0.428326 1.478478,0.396832 1.933691,-0.2794 0.361384,-0.536845 0.341495,-1.142159 -0.05167,-1.572536 -0.421418,-0.461303 -1.797651,-1.219305 -3.439242,-1.894265 -2.549388,-1.048211 -4.57648,-1.462263 -7.17331,-1.46521 -1.931133,-0.0021 -2.989588,0.139099 -4.169846,0.55662 -1.52817,0.540599 -3.671915,1.906423 -4.277019,2.724975 -0.35093,0.474718 -0.303242,1.216134 0.10568,1.642954 0.521094,0.543904 1.014163,0.456499 3.179074,-0.563544 1.252162,-0.589981 2.487102,-0.955008 3.62553,-1.071641 l 0.702847,-0.07201 0.04444,1.106347 c 0.03843,0.956813 0.08561,1.176597 0.34902,1.626081 0.560263,0.956019 1.634117,1.470856 2.885292,1.383295 0.406379,-0.02844 0.915948,-0.125696 1.132377,-0.216125 z M 74.14465,53.825033 c 0.424336,-0.06134 2.585326,-0.71048 4.802198,-1.442543 6.183418,-2.041909 7.728561,-2.397659 10.131343,-2.332617 l 1.410147,0.03817 0.935112,0.479102 c 0.514313,0.26351 1.437669,0.880285 2.051902,1.370616 1.803569,1.439752 2.640415,1.743043 3.191306,1.156595 0.369409,-0.393253 0.370507,-1.441731 0.0024,-2.202331 -0.647708,-1.337988 -4.066694,-3.547523 -6.543985,-4.229087 -1.314784,-0.361731 -4.640046,-0.362061 -6.665246,-5.29e-4 -3.890304,0.694224 -11.701839,2.873822 -13.194485,3.681563 -0.81923,0.443323 -1.05685,1.092081 -0.675304,1.843731 0.25024,0.492976 0.900197,1.278699 1.194226,1.44368 0.466119,0.261541 2.19996,0.361521 3.360478,0.193778 z"
     id="path140" /><path
     style="fill:#ffffff;stroke:none;stroke-width:1.96276;stroke-dasharray:none"
     d="m 63.266173,98.20815 c -0.86647,-0.171458 -2.459955,-0.655447 -2.89869,-0.880414 -0.516464,-0.264827 -1.234969,-0.953707 -1.899206,-1.820897 -0.370019,-0.483077 -1.344451,-2.127703 -1.344451,-2.269136 0,-0.04155 2.575597,-0.09993 5.723552,-0.129746 5.216345,-0.0494 5.837362,-0.07523 7.00786,-0.291396 3.354991,-0.619607 8.781431,-2.186443 11.462359,-3.309652 0.656341,-0.274982 1.214943,-0.478372 1.241335,-0.45198 0.09437,0.09437 -0.538896,1.209297 -1.142132,2.010812 -0.837497,1.112772 -2.623963,2.803351 -3.757113,3.555453 -2.337459,1.551437 -5.946606,2.943648 -8.769123,3.382647 -1.080177,0.168005 -5.074592,0.313106 -5.624391,0.204309 z"
     id="path141" /><path
     style="fill:#ffffff;stroke:#000000;stroke-width:1.47505;stroke-dasharray:none"
     id="path143"
     d="m 18.315362,80.185545 c -0.307578,0.117173 -2.577637,-2.121853 -2.877981,-2.25649 -0.300344,-0.134637 -3.48223,-0.339587 -3.599403,-0.647165 -0.117173,-0.307578 2.121853,-2.577637 2.25649,-2.877981 0.134637,-0.300344 0.339587,-3.482231 0.647165,-3.599403 0.307578,-0.117173 2.577637,2.121853 2.877981,2.25649 0.300344,0.134637 3.482231,0.339587 3.599403,0.647165 0.117173,0.307578 -2.121853,2.577637 -2.25649,2.877981 -0.134637,0.300344 -0.339587,3.482231 -0.647165,3.599403 z" /><path
     style="fill:#ffffff;stroke:#000000;stroke-width:1.47505;stroke-dasharray:none"
     id="path144"
     d="m 24.010992,60.753396 c -0.497983,0.344195 -5.534691,-2.659336 -6.130201,-2.768082 -0.59551,-0.108745 -6.368694,0.920806 -6.712888,0.422822 -0.344195,-0.497983 2.659336,-5.534691 2.768082,-6.130201 0.108745,-0.595509 -0.920806,-6.368693 -0.422822,-6.712888 0.497983,-0.344194 5.534691,2.659337 6.130201,2.768082 0.595509,0.108745 6.368693,-0.920806 6.712888,-0.422822 0.344194,0.497983 -2.659337,5.534691 -2.768082,6.130201 -0.108745,0.59551 0.920806,6.368694 0.422822,6.712888 z" /><path
     style="fill:#ffffff;stroke:#000000;stroke-width:1.47505;stroke-dasharray:none"
     id="path145"
     d="m 27.696401,85.546142 c -0.117173,0.153789 -1.943831,-0.260014 -2.13543,-0.234122 -0.191599,0.02589 -1.842906,0.90969 -1.996694,0.792517 -0.153789,-0.117173 0.260013,-1.943831 0.234121,-2.13543 -0.02589,-0.191598 -0.909689,-1.842905 -0.792517,-1.996694 0.117173,-0.153789 1.943831,0.260013 2.13543,0.234122 0.191599,-0.02589 1.842905,-0.90969 1.996694,-0.792517 0.153789,0.117172 -0.260013,1.94383 -0.234121,2.135429 0.02589,0.191599 0.909689,1.842906 0.792517,1.996695 z" /></svg>
