<?xml version="1.0" encoding="UTF-8" standalone="no"?>
<!-- Created with Inkscape (http://www.inkscape.org/) -->

<svg
   version="1.1"
   id="svg1"
   width="512"
   height="512"
   viewBox="0 0 512 512"
   xml:space="preserve"
   xmlns="http://www.w3.org/2000/svg"
   xmlns:svg="http://www.w3.org/2000/svg"><defs
     id="defs1" /><g
     id="g1"><g
       id="g123"
       transform="matrix(0.53898186,0,0,0.53898186,102.08816,252.20473)"><path
         style="fill:#d0d0d0;fill-opacity:1"
         d="m 76,299.68709 c 0,-0.1721 1.4625,-1.6346 3.25,-3.25 L 82.5,293.5 79.562909,296.75 C 76.825128,299.77946 76,300.45965 76,299.68709 Z m 336,-93.06465 c 0,-0.20765 0.7875,-0.99515 1.75,-1.75 1.58606,-1.24387 1.62143,-1.2085 0.37756,0.37756 C 412.82119,206.91575 412,207.44548 412,206.62244 Z m 11,-10.93535 c 0,-0.1721 1.4625,-1.6346 3.25,-3.25 l 3.25,-2.93709 -2.93709,3.25 C 423.82513,195.77946 423,196.45965 423,195.68709 Z M 438.5,180 c 2.14824,-2.2 4.1309,-4 4.4059,-4 0.275,0 -1.25766,1.8 -3.4059,4 -2.14824,2.2 -4.1309,4 -4.4059,4 -0.275,0 1.25766,-1.8 3.4059,-4 z M 591,55.622445 c 0,-0.207656 0.7875,-0.995156 1.75,-1.75 1.58606,-1.243871 1.62143,-1.208501 0.37756,0.377555 C 591.82119,55.915748 591,56.445479 591,55.622445 Z M 301.5,-159 c 0.99549,-1.1 2.03498,-2 2.30998,-2 0.275,0 -0.31449,0.9 -1.30998,2 -0.99549,1.1 -2.03498,2 -2.30998,2 -0.275,0 0.31449,-0.9 1.30998,-2 z M 728,-244.5 c 1.29175,-1.375 2.57363,-2.5 2.84863,-2.5 0.275,0 -0.55688,1.125 -1.84863,2.5 -1.29175,1.375 -2.57363,2.5 -2.84863,2.5 -0.275,0 0.55688,-1.125 1.84863,-2.5 z"
         id="path130" /><path
         style="fill:#b9b9b9;fill-opacity:1"
         d="m 429,189.68709 c 0,-0.1721 1.4625,-1.6346 3.25,-3.25 l 3.25,-2.93709 -2.93709,3.25 C 429.82513,189.77946 429,190.45965 429,189.68709 Z M 335.8125,71.316886 c 0.72187,-0.288871 1.58438,-0.253344 1.91667,0.07895 0.33229,0.332292 -0.25834,0.568641 -1.3125,0.52522 -1.16495,-0.04798 -1.4019,-0.284941 -0.60417,-0.604167 z M 686,12.622445 c 0,-0.207656 0.7875,-0.995156 1.75,-1.75 1.58606,-1.2438709 1.62143,-1.2085006 0.37756,0.377555 C 686.82119,12.915748 686,13.445479 686,12.622445 Z M 174.8125,-331.68311 c 0.72187,-0.28887 1.58438,-0.25335 1.91667,0.0789 0.33229,0.33229 -0.25834,0.56864 -1.3125,0.52522 -1.16495,-0.048 -1.4019,-0.28494 -0.60417,-0.60416 z m 12,0 c 0.72187,-0.28887 1.58438,-0.25335 1.91667,0.0789 0.33229,0.33229 -0.25834,0.56864 -1.3125,0.52522 -1.16495,-0.048 -1.4019,-0.28494 -0.60417,-0.60416 z"
         id="path129" /><path
         style="fill:#a3a3a3;fill-opacity:1"
         d="m 614,95.622445 c 0,-0.207656 0.7875,-0.995156 1.75,-1.75 1.58606,-1.243871 1.62143,-1.208501 0.37756,0.377555 C 614.82119,95.915748 614,96.445479 614,95.622445 Z m -27,-36 c 0,-0.207656 0.7875,-0.995156 1.75,-1.75 1.58606,-1.243871 1.62143,-1.208501 0.37756,0.377555 C 587.82119,59.915748 587,60.445479 587,59.622445 Z M -83.805051,-35.5 c 0.02038,-1.65 0.244498,-2.203936 0.498042,-1.230968 0.253543,0.972967 0.236869,2.322967 -0.03705,3 C -83.617986,-33.053936 -83.825431,-33.85 -83.805051,-35.5 Z M 165,-263.37756 c 0,-0.20765 0.7875,-0.99515 1.75,-1.75 1.58606,-1.24387 1.62143,-1.2085 0.37756,0.37756 -1.30637,1.66575 -2.12756,2.19548 -2.12756,1.37244 z m 14.26375,-68.34002 c 1.52006,-0.22986 3.77006,-0.22371 5,0.0136 1.22994,0.23736 -0.0137,0.42542 -2.76375,0.41792 -2.75,-0.008 -3.75631,-0.20172 -2.23625,-0.43157 z"
         id="path128" /><path
         style="fill:#8c8c8c;fill-opacity:1"
         d="m 381,183.62244 c 0,-0.20765 0.7875,-0.99515 1.75,-1.75 1.58606,-1.24387 1.62143,-1.2085 0.37756,0.37756 C 381.82119,183.91575 381,184.44548 381,183.62244 Z m 122,-296 c 0,-0.20765 0.7875,-0.99515 1.75,-1.75 1.58606,-1.24387 1.62143,-1.2085 0.37756,0.37756 -1.30637,1.66575 -2.12756,2.19548 -2.12756,1.37244 z"
         id="path127" /><path
         style="fill:#767676;fill-opacity:1"
         d="m 97,314.62244 c 0,-0.20765 0.7875,-0.99515 1.75,-1.75 1.58606,-1.24387 1.62143,-1.2085 0.377555,0.37756 C 97.821186,314.91575 97,315.44548 97,314.62244 Z M 378,186.5 c 1.29175,-1.375 2.57363,-2.5 2.84863,-2.5 0.275,0 -0.55688,1.125 -1.84863,2.5 -1.29175,1.375 -2.57363,2.5 -2.84863,2.5 -0.275,0 0.55688,-1.125 1.84863,-2.5 z M 222.87244,68.25 c -1.24387,-1.586056 -1.2085,-1.621426 0.37756,-0.377555 0.9625,0.754844 1.75,1.542344 1.75,1.75 0,0.823034 -0.82119,0.293303 -2.12756,-1.372445 z M 628,26.622445 c 0,-0.207656 0.7875,-0.995156 1.75,-1.75 1.58606,-1.243871 1.62143,-1.208501 0.37756,0.377555 C 628.82119,26.915748 628,27.445479 628,26.622445 Z M 509,-118.5 c 1.86578,-1.925 3.61733,-3.5 3.89233,-3.5 0.275,0 -1.02655,1.575 -2.89233,3.5 -1.86578,1.925 -3.61733,3.5 -3.89233,3.5 -0.275,0 1.02655,-1.575 2.89233,-3.5 z M 684.5,-155 c 0.99549,-1.1 2.03498,-2 2.30998,-2 0.275,0 -0.31449,0.9 -1.30998,2 -0.99549,1.1 -2.03498,2 -2.30998,2 -0.275,0 0.31449,-0.9 1.30998,-2 z M 185,-210.37756 c 0,-0.20765 0.7875,-0.99515 1.75,-1.75 1.58606,-1.24387 1.62143,-1.2085 0.37756,0.37756 -1.30637,1.66575 -2.12756,2.19548 -2.12756,1.37244 z"
         id="path126" /><path
         style="fill:#606060;fill-opacity:1"
         d="m 494,-13.377555 c 0,-0.207656 0.7875,-0.995156 1.75,-1.75 1.58606,-1.243871 1.62143,-1.208501 0.37756,0.377555 C 494.82119,-13.084252 494,-12.554521 494,-13.377555 Z M -110.71399,-63.5 c 0.008,-2.75 0.20172,-3.756313 0.43157,-2.23625 0.22986,1.520062 0.22371,3.770062 -0.0136,5 -0.23736,1.229937 -0.42542,-0.01375 -0.41792,-2.76375 z M 305.8125,-283.68311 c 0.72187,-0.28887 1.58438,-0.25335 1.91667,0.0789 0.33229,0.33229 -0.25834,0.56864 -1.3125,0.52522 -1.16495,-0.048 -1.4019,-0.28494 -0.60417,-0.60416 z"
         id="path125" /><path
         style="fill:#494949;fill-opacity:1"
         d="m -147.12756,324.25 c -1.24387,-1.58606 -1.2085,-1.62143 0.37756,-0.37756 1.66575,1.30637 2.19548,2.12756 1.37244,2.12756 -0.20765,0 -0.99515,-0.7875 -1.75,-1.75 z M 536.5,161 c 2.14824,-2.2 4.1309,-4 4.4059,-4 0.275,0 -1.25766,1.8 -3.4059,4 -2.14824,2.2 -4.1309,4 -4.4059,4 -0.275,0 1.25766,-1.8 3.4059,-4 z M -4.9210526,-96.583333 c 0.047984,-1.164943 0.2849403,-1.4019 0.6041666,-0.604167 0.2888706,0.721875 0.2533443,1.584375 -0.078947,1.916667 -0.3322917,0.332291 -0.5686404,-0.258334 -0.5252196,-1.3125 z M 561.5,-174 c 0.99549,-1.1 2.03498,-2 2.30998,-2 0.275,0 -0.31449,0.9 -1.30998,2 -0.99549,1.1 -2.03498,2 -2.30998,2 -0.275,0 0.31449,-0.9 1.30998,-2 z"
         id="path124" /><path
         style="fill:#333333;fill-opacity:1"
         d="m 2.5,438.29013 c -14.55154,-1.87975 -26.068031,-9.56437 -79.694278,-53.1777 -25.271272,-20.5527 -37.039022,-30.80674 -63.513022,-55.34318 -34.4929,-31.96846 -43.63829,-46.24934 -43.71925,-68.26925 -0.0582,-15.83441 4.40912,-26.32267 28.32474,-66.5 12.39383,-20.82116 18.64415,-32.80792 21.42959,-41.0973 2.21377,-6.58813 3.97302,-19.51953 9.64591,-70.9027 5.58669,-50.602266 6.60616,-58.29352 11.73058,-88.5 3.51264,-20.705618 3.5644,-21.427555 3.6925,-51.5 0.11859,-27.839587 0.32555,-31.328653 2.37264,-40 7.781174,-32.9605 24.127985,-60.9955 51.400191,-88.15199 6.813074,-6.78417 11.672249,-12.57581 13.382174,-15.95018 9.433408,-18.61594 27.203419,-39.02691 46.4434115,-53.3458 17.8294895,-13.26915 31.0161205,-19.68489 49.5329535,-24.09947 10.5096,-2.50558 11.203583,-2.83696 16.47186,-7.86556 11.939798,-11.39659 30.06044,-24.61866 41.82851,-30.52097 19.61517,-9.83805 45.8363,-14.61212 75.67149,-13.77749 26.13702,0.73118 41.12709,4.02719 59,12.97289 14.52489,7.26995 29.5202,19.73977 35.94341,29.88984 l 2.75197,4.34873 14.15231,0.12653 c 48.4788,0.43341 82.96342,15.72368 104.58759,46.37347 6.68356,9.47319 14.75555,25.75549 15.61734,31.50231 1.17192,7.81497 -3.97363,14.88036 -11.75685,16.14341 -2.97866,0.48337 -5.47946,-0.24526 -13.47655,-3.9265 -16.03179,-7.37977 -19.29209,-8.19516 -32.81922,-8.20791 -12.61018,-0.0119 -13.89556,0.26613 -30.5,6.59696 -6.96764,2.65658 -7.62406,3.16236 -9.24777,7.12564 -6.72912,16.42492 -25.2032,36.27252 -43.87742,47.13966 -18.87262,10.98258 -18.0216,10.15312 -22.32,21.75465 -5.02707,13.56823 -12.75129,30.361859 -21.09871,45.87178 -20.41312,37.928581 -24.48893,47.604868 -28.01086,66.5 -2.09713,11.2510802 -1.54651,36.670583 0.99643,46 2.21517,8.126928 6.85049,17.84588 11.34318,23.783462 6.71312,8.872121 24.20287,21.820175 36.21515,26.810878 10.91195,4.533555 11.73706,4.525069 18,-0.185115 8.07168,-6.070484 20.07304,-11.769496 30.93642,-14.690585 8.39441,-2.257203 11.71683,-2.591124 27.17681,-2.731419 l 17.61322,-0.159836 5.98033,-4.601755 c 3.28918,-2.530965 10.03422,-8.885253 14.98897,-14.120641 11.20878,-11.843617 16.95018,-22.293838 18.34312,-33.387232 0.50108,-3.990616 1.36947,-8.112238 1.92977,-9.159159 4.15191,-7.75791 16.5053,-8.0889943 21.4291,-0.574324 3.41923,5.218409 8.65962,20.996049 10.58138,31.858183 1.08572,6.136649 2.42897,13.407543 2.98502,16.157543 2.01653,9.973077 2.33779,30.354099 0.65148,41.330711 -7.2036,46.889979 -45.44919,96.070459 -91.91744,118.197779 -14.98307,7.13466 -23.75794,9.64103 -47.40128,13.53926 -45.64864,7.52638 -83.468,19.53054 -122.7969,38.9767 -38.71828,19.14424 -66.053118,39.95153 -79.97795,60.87926 C 74.016937,345.70901 67.709602,359.56132 51.842064,401 46.170609,415.81122 32.271986,431.91374 21.845162,435.75349 16.248188,437.81461 7.5987094,438.94878 2.5,438.29013 Z m 13.058884,-28.32652 c 6.377989,-3.94182 10.888131,-12.36635 21.422302,-40.0149 14.66826,-38.49911 26.516494,-57.93023 47.196747,-77.40276 22.728727,-21.40136 54.268217,-40.21837 97.309307,-58.0564 33.95685,-14.07315 51.55049,-18.91914 101.77684,-28.03338 32.96869,-5.98261 54.25175,-16.78402 75.73592,-38.43686 26.94463,-27.15618 41.25296,-57.56074 42.71587,-90.76931 0.33552,-7.616403 0.20112,-13.248038 -0.31609,-13.245385 -0.49488,0.0025 -6.07478,4.751064 -12.39978,10.552279 -13.29135,12.190672 -19.14303,16.860004 -27.5,21.943576 -5.77911,3.51545 -6.24769,3.62649 -12.72784,3.016306 -26.79333,-2.522934 -47.26931,2.002734 -66.2257,14.637424 -8.91926,5.94481 -11.17099,7.01247 -14.78956,7.01247 -5.34819,0 -15.12496,-3.64725 -28.4987,-10.6315 -14.14398,-7.3865 -24.92697,-15.375381 -34.90473,-25.860168 -13.90977,-14.616594 -21.71159,-33.317099 -24.5502,-58.845366 -2.1695,-19.5107519 1.98839,-45.799985 10.61045,-67.087099 1.9509,-4.816604 10.91433,-23.266604 19.91874,-41 9.00441,-17.733395 18.51785,-37.867537 21.141,-44.742537 6.94034,-18.18997 8.27861,-20.19065 16.80133,-25.1176 11.26586,-6.51276 25.66377,-16.74768 31.96071,-22.71966 6.12041,-5.80457 16.23461,-19.83975 21.34195,-29.61563 l 3.11005,-5.95289 14.23979,-7.33222 c 19.29819,-9.93685 26.47386,-12.22876 40.94903,-13.07914 L 371.5,-231.5 365,-236.68548 c -19.55306,-15.59875 -40.56046,-21.21085 -74.84572,-19.99492 -23.43112,0.83098 -35.44775,3.86589 -57.65428,14.56109 -30.78089,14.82482 -50.74953,31.4352 -62.02105,51.59056 -1.99346,3.56465 -6.92217,14.60344 -10.95269,24.53066 -8.15217,20.07892 -14.03861,31.08364 -23.15634,43.29086 -12.78591,17.11835 -34.51194,37.860568 -41.677233,39.789981 -5.013524,1.350002 -9.785654,-0.216092 -13.267534,-4.354071 -2.267728,-2.695042 -2.574444,-3.823175 -2.173608,-7.994754 0.449885,-4.682044 0.845923,-5.214106 10.998328,-14.775756 20.264937,-19.08575 27.167517,-31.75018 29.704207,-54.49948 1.29994,-11.65797 3.08319,-15.99754 11.24243,-27.35868 9.19981,-12.81007 15.07785,-24.83913 20.32798,-41.60001 6.59577,-21.0568 8.2199,-24.12391 17.27189,-32.61729 9.9604,-9.34574 21.95835,-17.0805 38.73231,-24.96972 7.40922,-3.48474 13.47131,-6.64144 13.47131,-7.01489 0,-0.37345 -3.7125,-1.7408 -8.25,-3.03855 -7.74195,-2.21424 -9.88192,-2.35882 -34.75,-2.34772 -24.2526,0.0108 -27.26268,0.20494 -35.49308,2.28898 -23.938,6.06137 -52.098772,25.97592 -66.285177,46.8751 C 63.999617,-236.31865 48.667269,-195.65725 39.52338,-157 29.056277,-112.74864 26.187696,-103.1777 20.438299,-93.323136 16.797453,-87.082664 13.626302,-85 7.7651413,-85 3.4518433,-85 2.3536346,-85.446365 -0.6,-88.4 c -4.6786078,-4.678608 -4.6899898,-10.067305 -0.0409237,-19.37496 4.8754646,-9.76092 8.001058,-20.0896 13.1282497,-43.38296 7.312721,-33.22244 14.470128,-55.5887 27.890565,-87.15553 5.272368,-12.40137 5.371264,-12.30849 -6.377891,-5.99024 -9.128147,4.90876 -16.040537,10.23812 -26.8835024,20.72679 -18.1149406,17.52304 -25.7279826,28.99912 -32.0897336,48.37281 -5.37204,16.35968 -6.890568,25.46835 -8.019688,48.10491 -2.020591,40.508748 -4.587511,56.468714 -11.160076,69.388409 -4.943035,9.716525 -18.929786,10.378117 -23.330842,1.103579 -2.131777,-4.492388 -1.920422,-6.902291 1.404325,-16.012314 1.606265,-4.401272 3.632877,-11.451236 4.503581,-15.666585 1.36095,-6.588776 3.552658,-36.884829 3.560284,-49.213909 l 0.0025,-4 -2.046992,3 c -6.885983,10.09186 -16.313302,32.93957 -20.591015,49.903643 -2.275748,9.024901 -2.633934,13.0678 -3.375197,38.096357 -0.696909,23.530926 -1.239213,30.154732 -3.397686,41.5 -5.763288,30.292737 -7.648701,44.126947 -11.58433,85 -3.652278,37.93043 -8.910558,77.70531 -11.212668,84.81538 -3.01156,9.30122 -15.15722,32.84046 -29.76382,57.68462 -17.72161,30.14244 -18.51511,31.98528 -18.51511,43 0,13.08522 1.70802,15.7786 24.46091,38.57253 38.389728,38.45899 116.285969,103.47736 132.3316692,110.45451 4.900794,2.13101 13.3528708,1.8552 17.2663008,-0.56343 z M 190.67374,-246.59285 c 13.88139,-9.95944 33.49173,-20.29339 49.92499,-26.3087 7.44817,-2.72636 8.70849,-3.8713 6.08386,-5.52687 -1.88015,-1.18597 -7.13567,0.53893 -22.69088,7.44734 -14.83034,6.58648 -25.88676,13.44596 -39.46585,24.48492 -1.29073,1.04928 -3.03351,5.49616 -2.15401,5.49616 0.27864,0 4.01449,-2.51678 8.30189,-5.59285 z M 345,262.07673 c 0,-1.97925 5.53458,-7.33504 12.35511,-11.95598 31.71874,-21.48961 38.87833,-27.44905 71.64489,-59.63521 27.69253,-27.20201 32.19119,-30.99351 48,-40.4547 19.41756,-11.62095 23.84967,-15.586 39.79066,-35.59756 C 526.87042,101.77963 533.76804,96.202864 550.103,87.5 c 14.65936,-7.810141 23.49345,-14.429904 39.48923,-29.590969 7.20072,-6.824967 16.87572,-15.076565 21.5,-18.336883 20.20783,-14.247422 21.21315,-15.306213 28.19145,-29.6911319 4.50416,-9.2847605 8.46036,-13.4660158 22.98303,-24.2904431 13.75284,-10.250632 28.12585,-25.240321 54.74184,-57.090573 19.73521,-23.616295 33.79923,-36.9729 36.90803,-35.05155 0.61582,0.38059 0.48828,1.9787 -0.34538,4.32749 -2.45424,6.914759 -15.43628,32.601414 -26.64674,52.72406 -6.12818,11 -12.49786,22.7 -14.15486,26 -5.25572,10.467053 -13.17279,21.7148448 -21.85381,31.0477597 -4.62869,4.9762683 -11.68152,13.0368583 -15.67297,17.9124223 -6.50937,7.951219 -7.56766,9.870796 -10.27029,18.628833 -4.73642,15.348652 -8.89963,19.995343 -34.64596,38.669423 -7.60461,5.515706 -15.03926,11.313983 -16.52145,12.885059 -1.48218,1.571077 -7.10718,8.915993 -12.5,16.322043 -12.25188,16.8257 -16.85199,20.59477 -38.78098,31.77485 -16.9124,8.62247 -17.01706,8.69667 -28,19.8502 -26.02162,26.42582 -30.98875,29.94172 -56.12492,39.72713 -18.11358,7.05155 -20.46136,8.27898 -35.08643,18.34346 -18.61577,12.81073 -50.10839,27.16466 -81.69018,37.23334 C 348.5612,263.05867 345,263.74042 345,262.07673 Z M 437.36686,89.5 c 0.37909,-1.65 0.94991,-7.95 1.2685,-14 0.5069,-9.626128 0.24549,-12.475784 -2.09302,-22.815961 -1.68377,-7.445073 -2.42582,-12.938075 -2.00602,-14.849409 1.04915,-4.776761 7.15977,-9.742642 21.8868,-17.786629 C 472.14062,11.463013 479.57547,5.5397219 487.86307,-5 494.95338,-14.017054 499.10445,-17.944105 509,-24.996207 c 10.86456,-7.742672 17.3928,-14.320163 24.23007,-24.412855 9.56249,-14.115467 15.30015,-19.004359 34.26993,-29.200368 14.47086,-7.777901 25.6657,-20.133494 39.04576,-43.09428 6.98769,-11.99118 12.26265,-17.43689 25.10368,-25.91625 20.62274,-13.6179 37.87251,-29.07044 51.99117,-46.57429 8.54759,-10.59702 32.5975,-37.1346 44.45721,-49.05575 8.42109,-8.46472 12.90218,-10.95515 12.90218,-7.17056 0,5.08721 -17.81929,41.35274 -29.22603,59.48036 -10.18965,16.19341 -16.19068,24.41556 -23.3119,31.9402 -12.95796,13.69204 -18.91259,23.19873 -21.97276,35.07996 -0.90946,3.53102 -3.0571,8.89504 -4.77253,11.92004 -4.22283,7.44655 -20.4173,23.516026 -30.21678,29.983545 -10.96418,7.236208 -13.76264,10.047123 -29.02662,29.155834 -17.22566,21.564517 -21.98876,26.130739 -38.92016,37.311512 -7.72927,5.104076 -15.69151,10.9414438 -17.69386,12.9719285 -2.00235,2.03048468 -5.82735,7.8148129 -8.5,12.8540625 -8.05372,15.185204 -10.62167,17.800903 -23.829,24.272098 l -11.48507,5.627341 -12.77265,14.068405 c -13.40736,14.767517 -15.32195,16.187167 -29.39802,21.798396 -5.12538,2.043162 -9.55138,4.750794 -13.5,8.258704 -3.23104,2.870424 -6.73466,5.889278 -7.78582,6.708564 -1.80863,1.409669 -1.8742,1.328612 -1.22194,-1.51039 z M 270,24.775325 c 0,-0.264161 2.8106,-2.684174 6.24577,-5.377808 C 279.68094,16.703882 285.23651,12.025 288.59147,9 c 3.35496,-3.025 10.47012,-8.19412651 15.81145,-11.4869478 9.98486,-6.1554571 36.78632,-28.2797622 42.1694,-34.8103722 1.66372,-2.018381 4.96185,-7.304953 7.32917,-11.747938 5.54956,-10.415411 9.28399,-13.886607 25.01904,-23.255481 11.27217,-6.711608 13.6869,-8.63328 18.78635,-14.950399 5.23994,-6.491136 6.96941,-7.834139 16.54516,-12.847972 15.6143,-8.1756 18.40193,-10.28137 22.77067,-17.2009 7.48152,-11.84978 9.08101,-13.62773 19.48575,-21.65989 5.75467,-4.44244 15.82476,-13.13132 22.37798,-19.30863 7.44699,-7.01982 15.23331,-13.25213 20.76425,-16.62008 25.27584,-15.3912 32.49397,-21.84291 48.91754,-43.7235 12.732,-16.96242 17.83483,-21.97432 34.13992,-33.53158 14.72262,-10.43558 17.99237,-13.23628 25.1839,-21.57127 7.73717,-8.96738 12.24725,-12.35991 17.33945,-13.04292 l 4.09067,-0.54867 -3.34609,5.90327 c -1.84035,3.24681 -9.83983,16.70328 -17.77663,29.90328 -7.93681,13.2 -17.94204,31.2 -22.23385,40 -12.72154,26.08444 -16.20292,30.52562 -42.10935,53.71862 -4.83196,4.32586 -12.58212,12.89718 -17.63184,19.5 -13.45719,17.5961 -25.49837,28.85056 -37.22441,34.7923 -8.77848,4.448183 -10.75162,6.063229 -25.9798,21.264888 -23.99584,23.954052 -34.71974,30.910439 -52.0202,33.744498 -11.0104,1.803658 -10.22161,1.315996 -32.10367,19.847855 C 360.32124,-12.900651 355.69679,-9.8456976 336,-0.29415841 310.06836,12.280843 270,27.500434 270,24.775325 Z"
         id="path123" /></g><path
       style="fill:#ffffff;stroke:none;stroke-width:7.85095"
       d="m 96.07974,469.65477 c -21.060316,-14.40731 -69.758255,-57.6436 -76.336989,-67.77553 -1.97948,-3.0486 -2.436898,-4.67806 -2.436898,-8.68098 0,-5.59563 0.71149,-7.22449 10.977878,-25.13231 10.280214,-17.93193 14.347395,-26.58674 15.619617,-33.23796 1.088929,-5.69294 3.838136,-28.24355 6.754185,-55.40177 0.722876,-6.7324 2.224437,-17.55911 3.336803,-24.05936 3.006552,-17.56915 3.370032,-20.61743 3.120498,-26.16983 -0.405396,-9.02048 1.329884,-23.2297 3.711427,-30.39076 2.728199,-8.20343 8.641508,-21.14175 9.342304,-20.44094 1.198363,1.19835 -1.455128,25.7885 -3.489588,32.33832 -2.535457,8.16276 -2.576739,9.63804 -0.348951,12.47022 1.340688,1.70441 2.497991,2.22432 4.951282,2.22432 8.430297,0 10.944027,-7.16081 13.13667,-37.42214 1.428788,-19.71915 3.176831,-28.01469 8.035193,-38.13195 4.350561,-9.05979 16.539419,-21.77883 26.781199,-27.94611 2.61906,-1.57712 5.04121,-2.86749 5.38254,-2.86749 0.34133,0 -1.26281,4.65359 -3.56478,10.34131 -5.51411,13.62435 -7.72983,20.75165 -12.20768,39.26834 -2.05093,8.48103 -5.0809,18.92062 -6.73326,23.1991 -1.85119,4.79337 -2.817678,8.52249 -2.518119,9.71603 1.336169,5.32372 7.980589,7.0962 11.901829,3.17496 3.30092,-3.30092 5.22295,-8.73164 10.61163,-29.98333 6.39984,-25.23944 10.4993,-37.51419 16.81615,-50.35152 4.09761,-8.32732 6.08356,-11.30145 10.57575,-15.83805 8.57285,-8.657628 18.50646,-14.859843 28.66129,-17.895148 6.27591,-1.875887 32.28596,-2.167124 38.29754,-0.42882 l 3.72189,1.076219 -9.05474,4.810666 c -10.04841,5.338593 -19.3571,12.206863 -22.19893,16.379133 -1.02356,1.50275 -3.42157,7.26068 -5.32893,12.7954 -4.0681,11.80473 -4.58579,12.87903 -11.01601,22.8602 -4.44794,6.9042 -5.01814,8.32971 -6.24704,15.61747 -1.93534,11.47731 -4.98657,17.22834 -14.1856,26.73727 -6.44703,6.66422 -7.54643,8.21515 -7.61819,10.74688 -0.15473,5.45845 4.56845,8.29729 10.01706,6.02072 4.15364,-1.73551 18.52752,-16.38631 23.55779,-24.01164 2.26928,-3.43998 5.97621,-10.46784 8.23761,-15.61748 9.61813,-21.90221 13.1591,-27.03658 24.55304,-35.60156 6.97982,-5.24682 25.52637,-14.2973 32.48999,-15.8547 13.68179,-3.0599 31.0679,-2.47165 41.75303,1.4127 2.89434,1.05217 7.73168,3.60648 10.74965,5.67624 l 5.48722,3.7632 -6.7535,0.56443 c -3.71443,0.31043 -8.7359,1.34623 -11.15882,2.30178 -6.88646,2.71587 -17.96567,8.47254 -17.96567,9.33481 0,1.6462 -10.2383,15.98663 -13.54905,18.9777 -1.91319,1.72845 -6.9601,5.42524 -11.21536,8.21509 -10.04784,6.58761 -10.22247,6.76174 -12.42126,12.38546 -1.02952,2.63314 -6.92993,15.25538 -13.11203,28.04943 -6.66042,13.78393 -12.11961,26.29665 -13.39859,30.71014 -5.50747,19.00511 -4.3145,36.34378 3.53385,51.36151 5.59901,10.71363 20.34503,22.27799 34.83096,27.3157 6.86876,2.38871 7.6207,2.27241 14.96618,-2.31482 2.88869,-1.80398 8.20708,-4.28566 11.81863,-5.51485 5.63142,-1.91663 8.06907,-2.24751 17.11881,-2.3236 12.54627,-0.1055 13.50411,-0.52934 25.95878,-11.48661 4.29481,-3.77845 7.83756,-6.55851 7.8728,-6.1779 0.0352,0.38061 0.008,3.30078 -0.0599,6.48926 -0.54937,25.70437 -22.91193,55.22418 -48.64571,64.21503 -3.27471,1.14411 -13.51899,3.60054 -22.76508,5.45873 -9.24607,1.85819 -20.23002,4.36594 -24.40875,5.57276 -18.11988,5.23309 -44.73661,17.40251 -59.09315,27.01795 -20.60996,13.80373 -30.2761,26.33789 -40.89579,53.02985 -5.52672,13.89111 -8.81975,20.37543 -11.19102,22.03634 -3.66087,2.56416 -8.43446,1.72096 -14.76173,-2.60751 z"
       id="path131" /></g></svg>
