<?xml version="1.0" encoding="UTF-8" standalone="no"?>
<!-- Created with Inkscape (http://www.inkscape.org/) -->

<svg
   width="440.6543"
   height="504.44336"
   viewBox="0 0 440.6543 504.44336"
   version="1.1"
   id="svg1"
   xml:space="preserve"
   sodipodi:docname="Template.svg"
   inkscape:version="1.4 (86a8ad7, 2024-10-11)"
   inkscape:export-filename="Bone_lacing.svg"
   inkscape:export-xdpi="96"
   inkscape:export-ydpi="96"
   xmlns:inkscape="http://www.inkscape.org/namespaces/inkscape"
   xmlns:sodipodi="http://sodipodi.sourceforge.net/DTD/sodipodi-0.dtd"
   xmlns="http://www.w3.org/2000/svg"
   xmlns:svg="http://www.w3.org/2000/svg"><sodipodi:namedview
     id="namedview1"
     pagecolor="#ffffff"
     bordercolor="#000000"
     borderopacity="0.25"
     inkscape:showpageshadow="2"
     inkscape:pageopacity="0.0"
     inkscape:pagecheckerboard="true"
     inkscape:deskcolor="#d1d1d1"
     inkscape:zoom="2"
     inkscape:cx="188.25"
     inkscape:cy="300.75"
     inkscape:window-width="2560"
     inkscape:window-height="1494"
     inkscape:window-x="585"
     inkscape:window-y="2149"
     inkscape:window-maximized="1"
     inkscape:current-layer="svg1"><inkscape:page
       x="0"
       y="0"
       width="440.6543"
       height="504.44336"
       id="page2"
       margin="0"
       bleed="0" /></sodipodi:namedview><defs
     id="defs1"><inkscape:path-effect
       effect="bspline"
       id="path-effect519"
       is_visible="true"
       lpeversion="1.3"
       weight="33.333333"
       steps="2"
       helper_size="0"
       apply_no_weight="true"
       apply_with_weight="true"
       only_selected="false"
       uniform="false" /></defs><path
     style="fill:#ffffff;stroke:none;stroke-width:12.3;stroke-linecap:round;stroke-linejoin:round;stroke-dasharray:none"
     d="m 45.25,505.75 c 119.58333,0.16667 239.16667,0.33333 300.08336,0.16666 C 406.25005,505.74999 408.5,505.25 410.75,504.75 c 0,0 -62,-45.5 -62,-45.5 0,0 -24.75,-54 -24.75,-54 0,0 12.75,-53 12.75,-53 0,0 32.75,-53.5 32.75,-53.5 0,0 12.5,-56 12.5,-56 0,0 -3.25,-30 -3.25,-30 0,0 -31.5,-45.25 -31.5,-45.25 0,0 -12.25,-29 -12.25,-29 0,0 14,-44.5 14,-44.5 0,0 -11,-31.75 -11,-31.75 0,0 -49.75,-15.75 -49.75,-15.75 0,0 -26.5,2.5 -26.5,2.5 0,0 -28.5,-4 -28.5,-4 0,0 -31.5,4 -31.5,4 0,0 -7.25,4 -7.25,4 0,0 -22.75,0 -22.75,0 0,0 -20.5,16.75 -20.5,16.75 0,0 1.75,20.75 1.75,20.75 0,0 3,14.25 3,14.25 0,0 -10.5,-0.25 -10.5,-0.25 0,0 -20.25,7.5 -20.25,7.5 0,0 -11,13 -11,13 0,0 3.25,28 3.25,28 0,0 -1.25,36.75 -1.25,36.75 0,0 0.5,37 0.5,37 0,0 -2.25,14.75 -2.25,14.75 0,0 -56.5,-22.25 -56.5,-22.25 0,0 1.75,18.5 1.75,18.5 0,0 12.25,26.75 12.25,26.75 0,0 17,20.25 17,20.25 0,0 21.75,30.75 21.75,30.75 0,0 14,11.75 14,11.75 0,0 12.75,3.5 12.75,3.5 0,0 11.75,56.25 11.75,56.25 0,0 11.25,18.5 11.25,18.5 0,0 1.25,21.5 1.25,21.5 0,0 -12.25,-2 -12.25,-2 0,0 -13.25,24.75 -13.25,24.75 0,0 -7,16.75 -7,16.75 z"
     id="path519"
     inkscape:path-effect="#path-effect519"
     inkscape:original-d="m 45.25,505.75 c 0,0 239.16667,0.33333 358.75,0.5 2.25005,-0.50001 6.75,-1.5 6.75,-1.5 0,0 -62,-45.5 -62,-45.5 0,0 -24.75,-54 -24.75,-54 0,0 12.75,-53 12.75,-53 0,0 32.75,-53.5 32.75,-53.5 0,0 12.5,-56 12.5,-56 0,0 -3.25,-30 -3.25,-30 0,0 -31.5,-45.25 -31.5,-45.25 0,0 -12.25,-29 -12.25,-29 0,0 14,-44.5 14,-44.5 0,0 -11,-31.75 -11,-31.75 0,0 -49.75,-15.75 -49.75,-15.75 0,0 -26.5,2.5 -26.5,2.5 0,0 -28.5,-4 -28.5,-4 0,0 -31.5,4 -31.5,4 0,0 -7.25,4 -7.25,4 0,0 -22.75,0 -22.75,0 0,0 -20.5,16.75 -20.5,16.75 0,0 1.75,20.75 1.75,20.75 0,0 3,14.25 3,14.25 0,0 -10.5,-0.25 -10.5,-0.25 0,0 -20.25,7.5 -20.25,7.5 0,0 -11,13 -11,13 0,0 3.25,28 3.25,28 0,0 -1.25,36.75 -1.25,36.75 0,0 0.5,37 0.5,37 0,0 -2.25,14.75 -2.25,14.75 0,0 -56.5,-22.25 -56.5,-22.25 0,0 1.75,18.5 1.75,18.5 0,0 12.25,26.75 12.25,26.75 0,0 17,20.25 17,20.25 0,0 21.75,30.75 21.75,30.75 0,0 14,11.75 14,11.75 0,0 12.75,3.5 12.75,3.5 0,0 11.75,56.25 11.75,56.25 0,0 11.25,18.5 11.25,18.5 0,0 1.25,21.5 1.25,21.5 0,0 -12.25,-2 -12.25,-2 0,0 -13.25,24.75 -13.25,24.75 0,0 -7,16.75 -7,16.75 z"
     transform="translate(-31.828064,-2.0566721)" /><path
     id="path518"
     style="fill:#000000;stroke-width:0.468361"
     d="m 328.79889,0.11324981 c -1.50548,0.1771083 -2.79194,0.5601801 -3.92773,1.14257809 -2.53117,1.2979049 -3.40312,2.3835904 -7.18555,8.9628911 -5.56087,9.672615 -7.63237,11.944842 -13.79297,15.11914 -2.59987,1.339614 -3.30083,1.473102 -9.36718,1.789063 -7.71978,0.402093 -11.0261,1.101501 -17.75586,3.75 l -4.97852,1.958984 0.76563,1.169922 0.76562,1.167969 -3.44922,-0.416016 c -1.89725,-0.229399 -7.55884,-0.397967 -12.58203,-0.373047 -7.5091,0.0373 -10.00209,0.230097 -14.01562,1.080078 -6.06509,1.284444 -11.01394,3.192472 -15.20704,5.863282 l -3.22851,2.05664 -4.5,-1.628906 c -7.48157,-2.709153 -11.31723,-3.465489 -19.01953,-3.75 -11.70478,-0.432367 -21.33396,1.533646 -31.46875,6.425781 l -3.83594,1.851563 -8.81055,0.0098 c -9.99329,0.01053 -13.7296,0.430645 -18.43945,2.076172 -8.70844,3.042546 -16.91657,11.44611 -19.83203,20.304688 -2.80666,8.527992 -2.56227,15.587808 0.875,25.330078 0.39647,1.123733 0.7207,2.16636 0.7207,2.316406 0,0.150045 -0.96759,-0.666023 -2.15039,-1.814453 -8.87012,-8.612458 -11.46503,-20.063028 -6.4375,-28.412109 0.86779,-1.441104 1.4762,-2.722984 1.35156,-2.847657 -0.58554,-0.585556 -5.9047,2.672135 -8.2207,5.035157 -3.40185,3.470954 -4.92563,6.422391 -5.914064,11.453125 -0.95593,4.865109 -0.55133,9.106628 1.396484,14.68164 l 1.15625,3.314453 -2.884764,2.242196 c -10.41515,8.093832 -16.97212,17.598072 -19.23828,27.888662 -0.19624,0.89116 -1.05582,1.72515 -2.96875,2.87695 -7.06032,4.25109 -13.877106,6.875 -17.855473,6.875 -2.637158,0 -8.591761,-1.57883 -10.773438,-2.85742 -0.86966,-0.50966 -1.673929,-0.83388 -1.787109,-0.7207 -0.402978,0.403 2.600758,5.70809 3.910156,6.90625 1.968812,1.80149 5.276307,3.90039 7.546875,4.78906 2.302368,0.90113 9.364672,1.05474 12.738279,0.27735 1.62377,-0.37417 6.74775,-2.60768 10.41016,-4.53712 0.64343,-0.33899 -6.77797,15.70563 -9.72461,21.02344 -4.23526,7.64332 -8.954383,17.58652 -9.529298,20.08203 -1.647739,7.1523 1.206634,15.64604 7.269528,21.63087 1.64869,1.62743 3.18693,3.02231 3.41797,3.09961 0.23104,0.0773 0.10921,-0.76417 -0.27148,-1.86914 -1.05695,-3.06776 -1.77445,-12.828 -1.1875,-16.16016 0.75991,-4.31398 2.14008,-8.58927 2.31445,-7.16992 0.0791,0.644 0.81062,4.54443 1.625,8.66602 l 1.48047,7.49414 -0.82031,10.06836 c -1.05495,12.97198 -1.08102,20.78998 -0.0801,23.18554 0.40954,0.98015 0.67449,1.85085 0.58984,1.93555 -0.0846,0.0847 -1.71968,-0.5973 -3.63476,-1.51562 -1.91514,-0.91831 -5.471464,-2.51565 -7.902347,-3.55078 -6.219011,-2.64822 -29.248997,-13.47777 -35.267578,-16.58399 -5.376748,-2.77494 -7.301314,-3.17648 -8.789063,-1.83008 -1.322463,1.1968 -1.240937,5.52751 0.210938,11.07227 1.702593,6.50231 7.566004,23.57123 9.388671,27.33203 2.598198,5.36091 16.504764,25.85459 27.365235,40.32617 1.178822,1.57076 3.434695,4.6266 5.011719,6.79102 6.096385,8.36731 17.182685,22.33771 19.970705,25.16601 3.29455,3.34218 9.05913,7.36671 15.59961,10.89258 2.429684,1.30981 4.419924,2.52241 4.419924,2.69336 0.001,0.17098 0.64245,4.20902 1.42578,8.97461 0.78328,4.76557 2.04414,12.77564 2.80078,17.79883 0.75668,5.02318 1.70979,11.33509 2.11914,14.02734 0.40939,2.69225 0.95465,5.28679 1.21094,5.76563 0.6779,1.2667 5.6411,7.87164 9.67969,12.88281 4.02478,4.99396 4.25475,5.71828 4.28515,13.45703 l 0.0195,5.15234 -4.33204,3.27735 c -6.67973,5.05521 -9.58285,8.25283 -12.36328,13.61523 -2.21596,4.27369 -7.811934,17.06156 -9.759764,22.30469 -0.79827,2.1487 -1.0018,2.30917 -9.07617,7.07617 -4.54297,2.68209 -13.10843,7.81689 -19.03321,11.4121 -16.353589,9.92352 -37.072947,20.62185 -52.220702,26.96094 C 3.9068822,502.44335 0.71563526,503.87059 2.6087207e-7,504.44336 H 32.318359 c 2.954884,-1.11728 7.152535,-2.78028 9.519532,-3.7793 2.444147,-1.03158 4.52626,-1.79596 4.625,-1.69726 0.162842,0.16285 -1.224447,2.46219 -3.146485,5.47656 h 19.066407 c 1.357919,-2.30506 2.382754,-4.12404 3.61914,-6.19141 6.832313,-11.42441 7.252623,-12.00709 9.642573,-13.4414 2.5477,-1.52897 4.13672,-2.26659 4.13672,-1.91992 0,0.85623 -4.25006,10.42448 -9.43359,21.55273 h 13.80274 c -0.52039,-1.12964 -0.74122,-1.73043 -0.36524,-1.27344 0.1049,0.12749 0.742,1.01107 0.94336,1.27344 h 39.599614 c -2.13072,-4.68906 -4.65334,-10.27278 -6.92969,-15.5332 -2.94786,-6.81226 -6.85018,-15.64674 -8.67187,-19.63282 L 105.41407,462.0293 108,454.49805 c 1.42177,-4.14239 3.46874,-9.95558 4.54883,-12.91797 1.08008,-2.96239 2.21159,-6.2589 2.51367,-7.32617 0.41427,-1.46362 1.23683,-2.52281 3.34961,-4.3125 l 2.80079,-2.37305 2.48046,4.83984 c 3.06089,5.97567 6.09645,9.57838 16.07227,19.06836 20.12921,19.14887 36.84515,33.17704 54.0625,45.3711 2.31839,1.64197 4.92311,3.50197 5.78906,4.13281 l 1.57422,1.14648 -2.57422,2.31641 h 33.93164 c -1.40658,-0.99352 -3.35742,-2.33044 -3.35742,-2.41797 0.002,-0.1434 0.78666,-0.78764 1.74414,-1.43164 3.44527,-2.31729 10.77995,-8.364 16.75391,-13.8125 11.13188,-10.15269 30.25659,-28.96283 35.48047,-34.89648 5.42592,-6.16311 12.99414,-14.18758 12.99414,-13.77735 0,0.5804 -4.05537,9.69245 -7.05664,15.85352 -4.06729,8.34941 -6.2934,11.31467 -15.16797,20.20703 -5.10476,5.11501 -8.45856,8.02068 -12.16602,10.53906 l -5.11914,3.47656 -0.85937,3.70118 c -0.47286,2.0358 -0.77311,3.78742 -0.66797,3.89257 0.1052,0.10517 2.52831,-0.9815 5.38476,-2.41406 2.85649,-1.43257 5.32014,-2.60547 5.47461,-2.60547 0.3027,0 -1.26335,1.8916 -5.56445,6.71875 -2.3739,2.66422 -2.74219,3.48998 -3.55078,6.9668 h 5.93359 c 0.57676,-0.54298 1.30377,-1.11349 1.75,-1.5918 1.75945,-1.88586 3.03613,-3.00738 2.83594,-2.49218 -0.1342,0.34549 -0.47962,2.38015 -0.7832,4.08398 h 42.42773 c -0.0759,-0.10447 -0.23749,-0.3524 -0.30469,-0.44336 l -1.87109,-2.5332 2.84961,-6.48047 c 1.56676,-3.5641 2.84766,-6.6593 2.84766,-6.87891 0,-0.21962 -1.16486,-3.00875 -2.58985,-6.19726 -1.42503,-3.18849 -2.5079,-5.88077 -2.40625,-5.98242 0.41581,-0.41586 9.67969,11.74725 9.67969,12.70898 0,0.27534 -1.36857,3.4347 -3.04297,7.02148 -1.67439,3.58678 -3.04601,6.85082 -3.04101,7.25196 6.9e-4,0.1172 0.51187,1.155 0.65234,1.5332 h 122.18164 c -12.37297,-3.24637 -28.854,-9.10292 -42.98242,-15.43555 -20.42891,-9.15658 -31.27524,-15.32825 -52.44532,-29.83398 l -4.67382,-3.20117 -2.60742,-5.90821 c -1.43422,-3.24939 -4.58006,-10.64933 -6.99024,-16.44531 l -4.38281,-10.53906 -5.78321,-4.56055 -5.7832,-4.5625 -0.0156,-3.86914 c -0.008,-2.12778 -0.20456,-5.33529 -0.43555,-7.12891 l -0.41992,-3.26171 3.38086,-3.53907 c 3.69187,-3.86419 9.74352,-12.04825 10.77734,-14.57617 0.9837,-2.4053 2.13235,-17.08113 2.15625,-27.54297 l 0.0117,-5.34179 2.77539,-4.28321 c 2.63313,-4.06474 4.71875,-8.93197 4.71875,-11.00976 0,-1.10932 0.0495,-1.12319 1.60156,-0.41602 0.87845,0.40025 1.43662,1.32299 2.19532,3.63086 2.16721,6.59278 5.24338,14.46389 6.83984,17.50195 1.98997,3.78692 3.64862,5.15791 9.16016,7.57227 6.20078,2.71629 6.80373,3.58462 12.77539,18.36523 1.96199,4.85598 3.68376,8.9349 3.82617,9.06446 0.36248,0.32983 -0.29764,-9.90039 -0.84375,-13.07227 -1.29703,-7.53233 -3.4497,-13.47458 -5.89258,-16.26562 -0.48255,-0.55132 -2.54674,-1.81432 -4.58594,-2.8086 -2.04534,-0.99727 -4.6752,-2.75334 -5.86719,-3.91601 -2.34742,-2.28966 -2.13526,-1.70901 -6.83007,-18.66797 -1.47394,-5.32462 -1.69091,-6.70154 -1.45313,-9.24805 0.34126,-3.65392 0.64558,-4.24875 4.27735,-8.38281 4.71299,-5.36484 5.79701,-6.96632 7.81835,-11.55274 1.05926,-2.40349 1.97326,-4.4293 2.03126,-4.5 0.058,-0.0707 1.48032,0.70798 3.16015,1.72852 1.67986,1.02054 5.07182,2.85036 7.53711,4.06641 10.13208,4.99766 12.96323,9.26786 12.37695,18.66601 -0.30263,4.85057 -0.98595,6.16603 -5.48242,10.56055 -2.33684,2.28378 -4.05625,4.46006 -4.91406,6.21875 -1.17388,2.40606 -1.29453,3.07825 -1.09961,6.08789 0.13029,2.01296 0.62564,4.30315 1.22461,5.6543 0.98206,2.21508 4.25717,7.05927 4.56445,6.75195 0.0848,-0.0848 -0.2641,-2.04339 -0.77539,-4.35352 -1.15649,-5.22524 -1.25993,-8.93484 -0.29883,-10.77148 0.90265,-1.72479 3.13214,-3.8271 6.19336,-5.83789 4.24519,-2.78848 7.16072,-6.00212 8.0586,-8.88086 1.77513,-5.69131 0.61085,-17.86913 -2.25196,-23.55859 -1.1382,-2.26207 -17.26126,-18.31664 -20.16796,-20.08204 -1.59213,-0.96697 -1.79284,-1.28005 -1.57618,-2.45507 0.13662,-0.7406 0.24805,-2.74842 0.24805,-4.46289 v -3.11719 l 3.62891,3.54492 c 4.68359,4.57493 10.69575,8.76997 14.5957,10.18555 1.69677,0.61594 5.05545,1.52575 7.46484,2.02148 2.40927,0.49574 5.25576,1.30033 6.32422,1.78711 8.55093,3.89555 16.34715,17.66981 18.96485,33.50977 0.46565,2.8173 0.98567,4.89703 1.15625,4.62109 0.17047,-0.27593 0.61009,-1.84264 0.97851,-3.48242 2.11037,-9.39545 1.08269,-17.1087 -4.00391,-30.03516 -3.44244,-8.7479 -4.25016,-9.77079 -10.8457,-13.74414 -10.19799,-6.14346 -19.2215,-14.43791 -22.42187,-20.60742 -1.566,-3.01897 -3.66407,-8.49344 -3.66407,-9.56055 0,-0.26024 0.78987,0.0412 1.75586,0.66992 6.05643,3.94191 18.34925,10.00741 22.02539,10.86719 5.03897,1.17852 11.38288,1.01185 15.36329,-0.40234 5.38177,-1.91208 9.765,-5.21967 13.73632,-10.36719 2.12632,-2.75614 6.13282,-10.16904 6.13282,-11.34766 0,-0.39286 -1.47135,1.0719 -3.26954,3.25391 -5.80189,7.0398 -10.8882,9.44699 -17.57421,8.32031 -3.67371,-0.61905 -9.7981,-3.39306 -12.52735,-5.67382 -1.44922,-1.21117 -1.67176,-1.61969 -1.2832,-2.34571 0.25885,-0.48358 2.92092,-3.03512 5.91602,-5.66992 2.99495,-2.63482 6.04062,-5.73138 6.76953,-6.88086 2.43454,-3.83883 5.99639,-16.51117 6.18945,-22.01953 0.0965,-2.7547 -0.70628,-3.82617 -2.86719,-3.82617 -0.62552,0 -8.33108,3.7592 -17.12305,8.35547 -8.79196,4.59626 -16.643,8.58029 -17.44726,8.85351 -1.4413,0.48967 -1.52237,0.43357 -5.64844,-4.02343 -2.30191,-2.48669 -4.33137,-4.76473 -4.50976,-5.0625 -0.1785,-0.2978 -0.74872,-3.02553 -1.26758,-6.06055 -1.29249,-7.55978 -3.64036,-11.33164 -9.61328,-15.44531 -1.40615,-0.96845 -2.55664,-1.83489 -2.55664,-1.92579 0,-0.24817 1.68343,0.18904 12.17773,3.16211 23.02263,6.52238 26.25055,7.04122 30.67773,4.9336 2.29377,-1.09203 4.08424,-2.51237 11.06055,-8.77149 5.5732,-5.00042 12.78442,-9.25424 18.12695,-10.6914 1.11283,-0.29937 4.06514,-0.81511 6.5586,-1.14649 l 4.5332,-0.60156 -2.61133,-1.24023 c -3.47994,-1.65374 -6.56378,-2.18555 -12.69531,-2.18555 -5.96444,0 -9.76222,0.69848 -19.27344,3.54297 -3.82077,1.14266 -7.82473,2.07664 -8.89843,2.07617 -2.8656,-0.002 -9.68869,-1.95653 -17.77735,-5.0957 -3.91869,-1.52082 -7.86207,-2.92347 -8.76367,-3.11524 -1.52071,-0.32345 -1.34672,-0.40687 2.42188,-1.17187 4.85941,-0.98638 19.77345,-5.94637 24.63671,-8.19336 4.98424,-2.30283 8.87812,-5.2454 15.79493,-11.93164 8.07014,-7.80121 9.7476,-8.95731 18.20898,-12.5625 l 3.22266,-1.37305 -1.81641,-0.60547 c -2.45783,-0.81787 -8.7808,-0.82691 -11.65234,-0.0176 -3.19211,0.89966 -6.90222,2.79518 -11.93164,6.09766 -6.75157,4.43331 -8.40078,4.9331 -16.16993,4.9043 -5.73493,-0.0212 -7.07382,-0.18071 -10.67382,-1.2793 -7.81281,-2.3842 -15.55402,-7.00942 -22.34571,-13.35156 -2.18958,-2.04469 -3.87313,-3.83062 -3.74218,-3.96875 0.13091,-0.13812 1.49948,0.0513 3.04296,0.42187 7.33477,1.76093 15.40772,1.21342 20.98243,-1.42383 5.09311,-2.40939 11.45975,-10.0801 19.33789,-23.29687 2.03608,-3.41577 4.67421,-7.17396 5.86132,-8.351562 2.51827,-2.498074 8.35294,-5.520198 19.35157,-10.025389 4.1029,-1.680611 7.68226,-3.279914 7.95508,-3.552735 0.57883,-0.578744 -2.66168,-0.308298 -9.56055,0.796875 -8.62057,1.380962 -17.60295,4.228404 -21.27734,6.746094 -0.84675,0.580224 -3.17875,3.449605 -5.18165,6.376945 -4.21503,6.160682 -6.22446,8.071732 -10.82421,10.285162 -4.8019,2.31069 -10.50406,3.27591 -15.125,2.5625 -4.96212,-0.76607 -7.78058,-2.35298 -12.81055,-7.2168 -4.89968,-4.73784 -7.21127,-6.398412 -14.87109,-10.679682 -6.07564,-3.39585 -9.99123,-6.887651 -11.85938,-10.574219 l -1.19727,-2.359375 4.63477,0.222657 c 4.06136,0.195562 5.1172,0.0714 8.54102,-0.996094 4.60999,-1.43733 8.75932,-3.998394 12.90625,-7.96875 4.13366,-3.95763 6.65894,-7.64443 9.88281,-14.427735 3.85442,-8.110412 4.94852,-9.466057 9.32226,-11.554687 3.4223,-1.634282 3.83063,-1.719063 8.28321,-1.695313 3.75194,0.02005 5.49201,0.280415 8.74804,1.306641 2.23554,0.70457 5.0802,1.400024 6.32227,1.544922 4.309,0.502709 9.84115,-1.605402 20.52539,-7.820313 4.91252,-2.857546 10.95375,-5.413136 13.94336,-5.898437 0.9717,-0.157742 1.89793,-0.497131 2.05664,-0.753906 0.18851,-0.304863 -1.64504,-0.389645 -5.28125,-0.244141 -6.12897,0.245247 -8.08293,0.770957 -16.46875,4.417969 -8.65619,3.764641 -13.37286,4.179207 -20.24414,1.779297 -4.28885,-1.497973 -10.44642,-2.003472 -14.10742,-1.15625 -7.02056,1.624626 -11.9924,5.426217 -18.67774,14.277343 -3.8045,5.037068 -5.5708,6.958596 -7.80273,8.484375 -3.59796,2.459609 -7.24398,3.842799 -11.83594,4.492188 -3.05737,0.432367 -4.26396,0.367801 -8.57031,-0.458985 -6.51051,-1.249942 -11.45741,-3.314428 -18.4375,-7.691406 -8.93355,-5.601922 -14.43339,-8.14486 -20.56836,-9.509765 -1.92941,-0.429247 -3.50781,-0.837753 -3.50781,-0.908203 0,-0.635452 8.82131,-5.624772 15.00976,-8.490235 9.64263,-4.464856 14.42796,-7.546487 17.80078,-11.458984 1.42817,-1.656705 4.26047,-4.96197 6.29297,-7.34375 2.03251,-2.381792 4.44641,-4.84591 5.36328,-5.476563 4.27075,-2.937482 13.24649,-3.304862 22.97657,-0.939453 9.65704,2.347629 14.44283,1.762705 29.43945,-3.6015621 7.36812,-2.6355394 19.65832,-8.1345583 19.20117,-8.5917972 C 405.82744,0.76293101 390.84724,3.8546255 382.34382,6.0116873 369.08216,9.3757609 364.52787,9.1369659 350.04303,4.3183279 339.79666,0.90968991 333.31536,-0.41807519 328.79889,0.11324981 Z M 178.01178,50.73239 188.73053,50.7695 c 10.05282,0.03461 18.19061,0.542045 26.40821,1.646484 4.96341,0.667088 5.1373,0.769654 3.25195,1.904297 -5.69476,3.427243 -12.5433,10.763745 -15.01367,16.083985 -1.03827,2.236102 -2.51685,8.967434 -2.08203,9.478515 0.0526,0.06183 1.1626,-1.412316 2.46679,-3.277344 3.09639,-4.427875 6.90155,-8.005078 12.34766,-11.605468 5.43955,-3.596093 15.17867,-8.410498 20.80664,-10.285157 4.05635,-1.351129 13.77074,-3.737934 15.22266,-3.740234 0.3864,-6.99e-4 -1.17282,0.949274 -3.46485,2.111328 -5.73476,2.907603 -9.68232,5.786238 -14.15625,10.324219 -8.60914,8.73245 -15.10358,22.003385 -18.27734,37.349615 -0.6492,3.1391 -1.2246,5.75194 -1.2793,5.80664 -0.0547,0.0547 -1.28126,-3.31607 -2.72461,-7.492192 l -2.62304,-7.593751 -3.20899,0.111329 c -4.76028,0.164565 -10.40309,1.349511 -17.49414,3.673828 -5.62333,1.843243 -6.38281,1.991261 -6.86523,1.33789 -0.8179,-1.107746 -2.38764,-7.350262 -3.17383,-12.61914 -0.60196,-4.03377 -0.61123,-5.106603 -0.0566,-7.726563 0.74629,-3.525565 2.76341,-8.199838 5.14062,-11.916015 0.91589,-1.431754 1.49616,-2.601563 1.29102,-2.601563 -1.12341,0 -6.27459,3.64439 -8.42188,5.958984 -4.86094,5.23964 -6.46989,10.596787 -6.06054,20.181641 l 0.2539,5.941406 -1.38867,-2.740234 c -2.13193,-4.205461 -3.20236,-9.078895 -3.19336,-14.546875 0.016,-9.268322 2.54673,-16.038393 8.32813,-22.289063 z m -35.60742,4.625 c 0.0776,0.0776 -0.73493,1.492776 -1.80664,3.144532 -1.07171,1.651745 -2.53914,4.266902 -3.25976,5.8125 -4.46648,9.579601 -5.63796,24.011849 -2.73243,33.656246 0.53207,1.76603 0.8773,3.300562 0.76563,3.412112 -0.44953,0.44958 -4.49193,-4.650656 -6.0586,-7.64453 -2.76362,-5.281303 -3.81854,-9.469541 -3.81054,-15.138672 0.0156,-11.427909 5.47793,-19.987309 14.48242,-22.697266 1.25423,-0.377465 2.34232,-0.622472 2.41992,-0.544922 z m 120.03906,3.771485 c 0,0.08721 -1.75409,1.433715 -3.89648,2.990234 -4.64024,3.371374 -6.58073,5.442346 -9.95898,10.625 -2.71373,4.163217 -4.80955,8.498687 -6.29688,13.029297 -1.04585,3.185838 -1.23243,4.89701 -0.36719,3.365234 1.12042,-1.98339 6.63241,-8.253985 10.23243,-11.640624 8.81901,-8.2963 21.309,-15.291016 27.30468,-15.291016 4.08969,0 4.4701,0.385547 1.86133,1.884766 -3.28247,1.886373 -9.00532,6.935396 -12.31055,10.859374 -5.36167,6.365388 -8.56945,11.711412 -16.63086,27.72071 -9.62301,19.11066 -13.3382,25.81478 -18.96679,34.2246 -2.33286,3.48563 -4.3462,6.3379 -4.47266,6.3379 -0.12646,0 0.38892,-1.10659 1.14453,-2.45899 0.75556,-1.3524 2.88858,-6.88535 4.74024,-12.29492 4.23517,-12.37293 7.60024,-20.91811 11.0664,-28.10156 1.49154,-3.091205 2.79994,-5.830294 2.90625,-6.087896 0.10621,-0.25759 -1.09376,0.925356 -2.66601,2.628906 -10.11375,10.95834 -18.79787,25.68512 -24.22852,41.08789 -0.8482,2.4058 -1.66968,4.50171 -1.82617,4.65821 -0.63884,0.63883 0.13277,-25.4845 0.89648,-30.34375 2.88675,-18.367865 8.49828,-30.351605 18.91016,-40.388678 4.59532,-4.429878 7.71681,-6.620076 12.89258,-9.048828 3.45613,-1.62182 9.66601,-4.035072 9.66601,-3.755859 z m -103.15625,4.537109 -0.91015,2.900391 c -1.32799,4.225711 -3.02511,12.007276 -3.86328,17.714844 -1.63726,11.148593 -0.42164,20.168061 3.76172,27.923831 1.54593,2.86605 1.55629,2.92761 0.5332,2.91601 -1.03695,-0.0115 -4.4854,-2.25926 -7.08008,-4.61523 -3.77738,-3.42994 -7.16354,-11.320462 -8.24414,-19.212893 -0.63978,-4.672528 0.0213,-11.241806 1.46484,-14.566406 1.40686,-3.240204 6.83223,-8.324409 13.10743,-12.283203 z m 145.54297,13.939453 -4.08203,1.419922 c -8.36654,2.913856 -16.13955,7.429761 -21.38281,12.423828 -4.46869,4.256323 -14.58055,17.213283 -27.07227,34.689453 -1.84132,2.57599 -5.71283,8.47846 -8.60351,13.11524 -2.89068,4.63679 -5.14148,8.11295 -5.00196,7.72656 0.60938,-1.6876 11.20751,-24.57082 13.41602,-28.96875 5.3486,-10.65102 11.81199,-19.430182 19.42578,-26.382815 6.54512,-5.976802 9.36155,-7.970865 14.56641,-10.314453 5.20246,-2.342517 8.6023,-3.180706 14.04883,-3.464844 z m -106.87109,23.455083 1.08594,1.01953 c 1.20125,1.12855 4.23682,6.16531 5.46875,9.07226 1.27216,3.00207 2.52664,8.58128 2.89453,12.87891 0.18748,2.18959 0.21847,3.86544 0.0684,3.72266 -0.15011,-0.14276 -1.56259,-2.88383 -3.13867,-6.08985 -3.02337,-6.15019 -7.31984,-12.58655 -9.37891,-14.05273 l -1.22852,-0.875 -5.20703,3.52734 c -7.94899,5.38225 -11.21819,9.71677 -11.68164,15.49024 -0.54011,6.72832 2.5367,12.67514 12.79688,24.74023 2.957,3.47719 5.306,6.32227 5.2207,6.32227 -0.46934,0 -7.11919,-4.74922 -10.83789,-7.74024 -5.64198,-4.53792 -10.43462,-10.11456 -16.85938,-19.61719 l -3.13867,-4.64257 3.89453,-3.94336 c 7.73532,-7.83077 15.66124,-13.4054 24.92969,-17.53516 z m 108.50977,2.32422 c -2.8e-4,0.1498 -2.05705,0.97329 -4.56836,1.82812 -14.16065,4.82013 -27.9341,14.20455 -41.81836,28.49219 -2.71509,2.794 -6.48302,6.76538 -8.37305,8.82617 l -3.4375,3.74805 5.27539,-7.96289 c 9.59613,-14.48706 18.33671,-24.10067 25.61328,-28.16993 3.35791,-1.87785 9.63355,-4.11486 14.42774,-5.14257 4.1082,-0.88065 12.88086,-1.98359 12.88086,-1.61914 z m -190.30469,4.83203 c 1.42577,0.0844 2.76286,0.29147 3.92773,0.63086 2.1673,0.63143 3.1366,1.3423 6.54688,4.80078 4.36274,4.42448 6.88154,7.98535 10.98632,15.53515 4.70661,8.65665 8.96322,13.93876 14.18555,17.60547 1.72891,1.21389 3.34318,2.38702 3.58789,2.60547 0.878,0.78373 -0.97775,0.3278 -6.76758,-1.66211 -8.44232,-2.90157 -12.01639,-4.42072 -19.80664,-8.41992 -8.7801,-4.50734 -10.98727,-5.16742 -16.28711,-4.86523 -5.83059,0.33245 -10.1106,2.43062 -16.076174,7.88281 -1.44603,1.32155 -2.6289,2.25079 -2.6289,2.06445 0,-0.78005 4.68107,-6.80938 7.912114,-10.1914 3.72577,-3.8999 9.13688,-7.83008 10.78125,-7.83008 1.64601,0 6.00689,2.44607 14.56836,8.17383 4.4463,2.97465 8.2315,5.4082 8.4121,5.4082 0.18055,0 -1.33832,-3.25702 -3.375,-7.23828 -3.46372,-6.7707 -3.95425,-7.47676 -7.59375,-10.92188 -4.8793,-4.61865 -9.81177,-7.2387 -14.15039,-7.51758 -3.47003,-0.22306 -9.53311,0.93364 -13.193364,2.51563 l -2.6582,1.14844 3.28711,-3.16016 c 1.80779,-1.73843 4.271534,-3.64465 5.474614,-4.23437 3.52627,-1.72848 8.58987,-2.5832 12.86719,-2.33008 z m 19.92969,5.28711 c 0.0691,-0.046 5.07728,5.05199 11.13085,11.32812 9.47384,9.82208 14.24089,14.38303 19.67188,18.82031 1.42316,1.16278 1.43596,1.16304 -2.3418,-0.125 -6.71799,-2.29055 -10.65382,-4.81011 -16.1582,-10.33984 -5.50624,-5.53162 -8.47481,-9.88246 -11.03906,-16.18359 -0.76427,-1.87805 -1.33277,-3.454 -1.26367,-3.5 z m 163.11914,10.99609 c 0.29656,0 -3.19381,2.88696 -18.26954,15.10938 -5.15198,4.1769 -11.47479,9.39148 -14.05078,11.58984 -6.67304,5.69482 -9.37875,7.83133 -8.89648,7.02344 1.05578,-1.76852 10.54697,-12.05898 16.21289,-17.57813 7.18746,-7.00128 12.25094,-10.57824 19.63477,-13.87305 2.79935,-1.24914 5.21542,-2.27148 5.36914,-2.27148 z m 20.51562,6.2168 c 0.0299,-0.33049 1.13492,0.69534 4.17188,3.73047 5.18585,5.18276 10.73957,9.70146 16.21289,13.19531 6.78243,4.32952 18.70833,9.76017 25.36914,11.55078 l 3.04297,0.81836 -4.44922,-0.0176 c -14.26227,-0.0544 -24.55382,-3.80548 -34.17383,-12.45312 -4.00435,-3.59956 -5.63079,-5.89901 -7.50195,-10.60938 -0.78979,-1.98816 -1.85862,-4.44484 -2.375,-5.45703 -0.19742,-0.38697 -0.30685,-0.64765 -0.29688,-0.75781 z m -201.80273,13.57422 c 0.0548,-0.0631 3.08191,1.24933 6.72656,2.91601 3.64469,1.66667 7.16008,3.16243 7.8125,3.32617 2.60053,0.65269 1.40985,0.93927 -1.53516,0.36914 -1.72774,-0.33449 -3.51415,-0.616 -3.9707,-0.625 -1.71927,-0.0357 -5.31751,4.23042 -11.82422,14.02149 -6.81354,10.25285 -13.63993,18.72743 -19.052734,23.65039 -3.23105,2.93861 -6.94357,5.66065 -6.91407,5.07031 0.0104,-0.20557 2.42274,-3.7456 5.36133,-7.86719 7.111094,-9.97385 10.741034,-16.06733 17.578134,-29.50586 3.14542,-6.18238 5.76366,-11.29236 5.81836,-11.35546 z m 56.69921,11.44531 5.61915,2.94726 c 6.54962,3.43445 20.2403,10.6738 24.48828,12.94922 1.61885,0.86715 3.04129,1.57617 3.16015,1.57617 0.11888,1e-5 -0.19655,-1.08604 -0.70117,-2.41406 -0.90036,-2.36977 -0.89136,-3.20508 0.0371,-3.20508 0.61595,0 5.70508,3.43347 8.44336,5.69727 2.45394,2.02869 3.24168,2.17224 5.01367,0.91211 2.03466,-1.44693 13.35672,-8.01563 13.81641,-8.01563 0.23343,0 -0.55952,1.0146 -1.76172,2.25391 -7.89924,8.1429 -12.16004,20.54075 -13.875,40.36133 -0.65449,7.56453 -0.35168,9.64375 2.14648,14.75976 l 2.05664,4.21485 -0.0488,14.15625 -0.0488,14.15625 -1.36719,-0.80664 c -2.55116,-1.50619 -3.06388,-2.47576 -3.88476,-7.36524 -0.94332,-5.61868 -2.91051,-15.24057 -3.16993,-15.5 -0.32682,-0.32681 -2.3556,12.08035 -2.64453,16.17383 l -0.2793,3.95117 -2.72851,1.59375 c -1.50106,0.87604 -2.79851,1.521 -2.88281,1.4336 -0.27742,-0.28762 -1.58859,-9.90979 -1.92188,-14.10743 l -0.32617,-4.11328 -4.26563,-5.97656 c -2.34667,-3.28696 -4.79349,-6.7575 -5.4375,-7.71094 -1.23605,-1.83002 -2.09876,-2.29675 -1.69921,-0.91992 0.13087,0.4508 0.47276,1.76855 0.75976,2.92774 0.92722,3.74487 2.42143,8.11818 3.92188,11.47461 1.44819,3.23948 1.46602,3.37177 1.48242,11.04687 l 0.0156,7.76758 1.49414,1.88672 c 0.8217,1.03747 2.28082,2.48549 3.24219,3.21875 l 1.74805,1.33398 7.33789,-0.13672 7.33789,-0.13476 0.47852,1.37109 0.47851,1.37305 -6.34766,0.30469 c -8.52922,0.40906 -10.01573,0.3701 -11.14453,-0.29688 -0.52949,-0.31287 -2.61846,-2.31387 -4.64257,-4.44726 -4.17446,-4.39988 -7.64287,-6.36661 -14.18555,-8.03711 -3.53225,-0.90193 -5.10778,-0.96399 -23.84375,-0.95899 -20.09848,0.005 -28.52468,0.40547 -34.5,1.64063 -3.61243,0.74671 -13.09518,4.79285 -16.16211,6.89648 l -2.0293,1.39258 -4.98828,-0.64258 -4.990234,-0.64062 -0.29102,-1.79493 -0.29101,-1.79492 4.265624,0.36719 c 2.34621,0.20171 4.68793,0.35369 5.20313,0.33789 0.5152,-0.0159 4.30809,-1.45325 8.42968,-3.19336 4.12158,-1.7401 8.23122,-3.34116 9.13282,-3.55859 3.29244,-0.79401 13.34661,-1.12305 34.28515,-1.12305 11.77246,0 21.25667,-0.14315 21.07617,-0.31836 -0.18051,-0.1752 -4.54333,-2.56834 -9.69531,-5.31836 -5.15199,-2.75001 -13.3732,-7.17385 -18.26758,-9.83008 -4.89438,-2.65622 -10.0731,-5.4005 -11.50976,-6.09765 l -2.61328,-1.26758 -8.39258,3.625 c -7.56962,3.26748 -15.45469,7.18263 -15.0918,7.49414 0.0771,0.0662 1.29806,-0.0494 2.71485,-0.25586 3.35716,-0.48909 7.02832,-0.53685 7.01562,-0.0918 -0.006,0.19321 -0.79539,0.91889 -1.75586,1.61133 -0.96052,0.69242 -3.82715,3.04533 -6.37109,5.23047 -2.54401,2.18512 -5.54899,4.6361 -6.67578,5.44531 l -2.04883,1.47071 v -1.65039 c 0,-2.31911 1.55542,-8.718 3.26953,-13.45508 l 1.45117,-4.00977 4.61328,-3.12109 c 8.23465,-5.57052 16.24418,-13.22622 20.39063,-19.49219 4.27305,-6.45728 5.18607,-8.89196 7.47851,-19.92383 2.5248,-12.15022 3.68733,-16.42178 4.80274,-17.6543 1.52278,-1.68264 7.30332,-5.22005 10.31836,-6.31445 1.64933,-0.59867 3.65505,-1.42709 4.45703,-1.84179 2.36405,-1.2225 11.68915,-0.70212 16.41015,0.91601 4.37379,1.49913 4.66714,1.51459 3.13868,0.17578 -0.65111,-0.57034 -2.86235,-2.80788 -4.91602,-4.97265 z m -20.0957,1.29883 c 1.65242,0.0323 2.8622,0.1759 4.17188,0.43945 l 3.27734,0.66016 -5.38672,0.0508 c -8.24491,0.0798 -13.08645,1.38129 -16.81836,4.52148 -2.61215,2.19796 -3.17534,4.04593 -5.43164,17.83789 -2.76113,16.87759 -3.7634,21.48355 -5.22461,23.98047 -0.65799,1.12432 -3.25982,4.49689 -5.78125,7.49414 -3.94468,4.68911 -11.23828,11.8938 -11.23828,11.10156 0,-0.1442 1.01555,-1.68607 2.25586,-3.42578 6.21066,-8.71141 9.42486,-17.05095 12.91992,-33.52343 1.49838,-7.0619 2.6818,-14.76624 3.46485,-22.5625 l 0.32812,-3.2754 1.87305,-0.61914 c 4.77593,-1.57714 7.56651,-2.04135 14.7539,-2.45507 3.08716,-0.17769 5.18353,-0.25688 6.83594,-0.22461 z m 117.58985,9.5625 c 0.22292,-0.0993 0.0217,0.63279 -0.5293,2.16211 -0.47038,1.30565 -0.68277,4.01028 -0.69727,8.92187 l -0.0195,7.04688 -2.70898,2.55664 c -1.4894,1.40558 -3.61359,3.75438 -4.72071,5.2207 -1.86482,2.46999 -2.07631,3.05601 -2.88671,7.96094 -0.48114,2.91189 -1.05466,6.45235 -1.27539,7.86914 l -0.40235,2.57617 -0.40625,-3.51172 c -0.2236,-1.93199 -0.38869,-6.23128 -0.36719,-9.55273 l 0.0391,-6.03907 4.49023,-4.50781 4.49023,-4.50586 0.0215,-3.03711 c 0.0314,-4.68152 0.59267,-6.64454 2.95312,-10.33398 1.14875,-1.79551 1.79661,-2.72691 2.01954,-2.82617 z m 34.16796,7.1289 c 0.16804,-0.15546 0.17588,0.45388 0.0176,1.35547 -0.15831,0.9016 -0.4026,3.11479 -0.54297,4.91797 -0.65337,8.39359 -1.52408,10.57397 -7.47851,18.73438 -3.6485,5.00019 -4.43461,6.47368 -4.77149,8.93164 l -0.31054,2.25976 3.69922,-3.01953 c 2.03419,-1.66085 4.91677,-4.17891 6.40625,-5.5957 l 2.70898,-2.57617 2.01758,-11.24024 c 1.82104,-10.13871 2.05151,-11.01676 2.33594,-8.95117 0.52958,3.84555 0.31653,18.16018 -0.29688,19.95898 -0.41745,1.22417 -1.88057,2.70569 -5.77344,5.85352 -10.15235,8.20923 -10.9364,8.90769 -10.9414,9.72461 -0.002,0.45398 -1.53859,2.35043 -3.41602,4.21484 -1.87743,1.86441 -4.11222,4.44442 -4.9668,5.73242 -0.85462,1.28799 -1.44445,1.9195 -1.30859,1.4043 1.44541,-5.4813 1.77634,-6.16331 4.14063,-8.57422 l 2.43554,-2.48437 0.36914,-5.71094 c 0.20225,-3.14106 0.57316,-6.44996 0.82617,-7.35156 0.25305,-0.9016 0.72211,-3.89327 1.04102,-6.64844 0.31891,-2.75516 0.7348,-4.91371 0.92383,-4.79687 0.18905,0.11683 0.35976,2.35396 0.38086,4.9707 0.0212,2.61673 0.11056,4.82931 0.19726,4.91601 0.32013,0.32011 6.31145,-7.65159 7.45313,-9.91601 1.46264,-2.90102 3.00278,-7.80522 3.88086,-12.36328 0.36705,-1.90534 0.80451,-3.59064 0.97265,-3.7461 z m -193.25195,29.17578 c 0,0.69889 -2.09665,4.41762 -4.02734,7.14258 -2.60863,3.68184 -5.46812,5.75836 -11.884774,8.63086 -2.83322,1.26832 -5.27105,2.30664 -5.41797,2.30664 -0.41516,0 5.2293,-4.66064 9.386724,-7.75 2.06078,-1.53137 5.59173,-4.55376 7.8457,-6.71679 2.254,-2.16302 4.09766,-3.78908 4.09766,-3.61329 z m 200.22461,19.27149 -1.4707,1.86328 c -2.59626,3.28775 -7.89367,9.06265 -9.83985,10.72852 -1.03873,0.88911 -3.87092,2.91977 -6.29492,4.51171 -2.424,1.59194 -5.00836,3.44774 -5.74219,4.125 -1.17642,1.08583 -1.09837,0.85659 0.6543,-1.95312 3.00468,-4.81696 5.42853,-7.23039 11.27735,-11.22852 2.93045,-2.00317 6.69668,-4.6327 8.37109,-5.84375 z m -148.70508,0.83203 c 0,0.0875 2.14196,2.03811 4.75977,4.33594 12.10359,10.62431 10.20654,9.36484 15.05469,10.00586 2.36804,0.31309 4.62335,0.63429 5.00976,0.71289 0.3864,0.0786 1.22906,0.16134 1.87305,0.18554 l 1.16992,0.0449 -1.16992,-0.90235 c -2.36817,-1.82513 -26.69727,-14.93205 -26.69727,-14.38281 z m -133.414064,0.10156 c 0.201256,-0.19059 5.120755,2.00762 19.601562,8.75586 6.053583,2.82103 15.854521,7.32878 21.779298,10.01758 17.5794,7.97794 15.45551,6.64372 16.04883,10.08789 1.10824,6.43339 3.32198,19.93276 3.55859,21.70508 l 0.25,1.87305 -1.49805,-1.70313 c -0.82376,-0.93626 -4.05255,-4.62357 -7.17578,-8.19531 -7.05362,-8.06658 -6.95462,-7.9786 -12.35351,-10.95703 -5.917187,-3.26439 -13.786193,-8.3007 -18.968752,-12.13867 -6.09414,-4.5131 -14.753907,-10.44719 -14.753907,-10.11133 0,0.54119 2.001463,4.2123 4.345703,7.9707 4.602128,7.37819 9.691636,13.25195 13.980469,16.13477 1.313473,0.8829 1.880568,1.727 2.509766,3.74609 1.332861,4.27704 7.208392,16.90128 9.388672,20.17187 1.877049,2.81571 3.747709,4.59019 4.279299,4.0586 0.12197,-0.12197 -0.20805,-1.66622 -0.73242,-3.42969 -1.30046,-4.37312 -3.392864,-13.31901 -3.22852,-13.80469 0.0736,-0.21744 2.30303,1.02433 4.95313,2.75977 4.25173,2.78433 4.79697,3.29296 4.63867,4.32617 -0.0987,0.644 -0.56671,3.39496 -1.04102,6.11328 l -0.86328,4.94336 1.51563,3.23828 c 1.30772,2.79453 2.4983,4.20138 8.70312,10.2793 l 7.18945,7.04102 -1.58008,-4.38086 c -0.86838,-2.40913 -2.42583,-6.22139 -3.46289,-8.47266 -2.05483,-4.46078 -2.16532,-5.20701 -1.26757,-8.66992 l 0.60156,-2.32032 3.99414,5.62305 3.99414,5.625 2.19922,13.32227 c 1.20916,7.32792 2.314044,13.90293 2.457034,14.61133 0.143,0.7084 0.0848,1.2862 -0.12891,1.2832 -1.279524,-0.0186 -11.856774,-7.53689 -14.263674,-10.13867 -3.18688,-3.44495 -25.87356,-34.46406 -34.20117,-46.76172 -8.160121,-12.05027 -9.889116,-15.1174 -14.115234,-25.05664 -3.291414,-7.74095 -6.716822,-17.20275 -6.353516,-17.54688 z m 204.687504,8.88672 c 0.29446,-0.27338 7.52244,8.23155 9.49414,11.17188 1.3273,1.97936 2.28019,4.11983 2.82617,6.34765 0.45309,1.84883 0.71287,3.47271 0.57813,3.60742 -0.31564,0.31567 -2.50475,-2.91261 -4.80469,-7.08203 -0.99466,-1.80318 -3.25788,-5.66947 -5.02734,-8.59179 -1.76948,-2.92232 -3.14941,-5.37603 -3.06641,-5.45313 z m 37.72266,24.16797 c 7.08415,-0.4459 14.52704,2.97129 18.80664,9.71289 6.21099,9.78417 1.87598,23.45249 -9.15039,28.85156 -2.99986,1.46891 -7.90188,2.11431 -11.7793,1.55274 -5.73659,-0.83083 -11.76405,-5.40369 -14.35156,-10.88867 -1.02473,-2.17213 -1.37197,-3.70903 -1.55078,-6.84571 -0.39929,-7.00278 1.70978,-12.6822 6.42187,-17.29297 3.23273,-3.16322 7.35302,-4.8223 11.60352,-5.08984 z m -132.89453,3.22656 c -0.007,0.1288 -1.85278,1.26641 -4.09961,2.5293 -4.28021,2.40588 -9.88137,6.34305 -9.91797,6.9707 -0.0118,0.20189 0.69199,0.78797 1.56445,1.30274 0.96899,0.57172 2.28687,2.13294 3.38672,4.01367 2.28449,3.90624 3.67629,5.06024 7.57812,6.28125 3.13887,0.98224 9.56839,2.37107 9.81836,2.12109 0.0728,-0.0728 -0.68006,-0.66984 -1.67187,-1.32617 -5.31117,-3.51478 -10.39258,-8.95997 -10.39258,-11.13672 0,-0.8324 4.25351,-3.01201 6.91797,-3.54492 1.28135,-0.25626 1.44556,-0.15126 1.72461,1.11914 0.74976,3.41356 5.79436,9.4751 8.83984,10.62109 1.07447,0.40431 3.99266,1.01209 6.48438,1.35157 l 4.53125,0.61914 4.05664,-2.57031 4.05859,-2.56836 2.36328,2.36132 2.36328,2.36328 -2.28711,1.02344 c -1.2578,0.56278 -3.65764,1.3407 -5.33203,1.72852 -5.32786,1.23407 -10.81002,2.99521 -10.56445,3.39258 0.13062,0.2113 1.24437,0.64631 2.47461,0.96679 1.23021,0.32048 2.61242,0.68127 3.07226,0.80274 0.7536,0.1991 0.73032,0.30166 -0.23437,1.03906 -1.87734,1.43501 -6.11886,3.65503 -9.5,4.97266 -6.19259,2.41327 -4.99227,2.71241 3.81641,0.94726 8.85067,-1.77358 20.50713,-6.52787 28.10546,-11.46289 2.83187,-1.83928 2.9043,-1.94246 4.15235,-5.7539 1.52901,-4.66957 2.08894,-5.43186 3.11523,-4.2461 2.8421,3.28385 2.18596,11.32546 -1.80664,22.14844 -3.23081,8.75803 -6.90507,14.11296 -11.02539,16.06445 -0.95893,0.45416 -3.38326,1.26728 -5.38672,1.80664 -3.22233,0.8675 -5.20935,0.99806 -17.22461,1.13086 -14.07081,0.15552 -18.36855,-0.17988 -24.44531,-1.90039 -2.54874,-0.72161 -3.30082,-1.23354 -6.19726,-4.2207 -3.62212,-3.73549 -4.20282,-4.84999 -6.97266,-13.39063 -2.77238,-8.54832 -3.48784,-12.44433 -3.52344,-19.16406 -0.0266,-5.03759 0.11656,-6.23112 1.03516,-8.55469 1.84297,-4.66181 3.85724,-6.34884 8.53711,-7.14843 2.64582,-0.45207 12.60324,-0.9973 12.58594,-0.68946 z m 73.33984,13.77735 c 1.32339,-0.21772 2.6929,-0.20929 4.17969,0.0137 2.42242,0.36326 2.50991,0.49424 4.45703,6.66797 1.02558,3.25179 1.04107,3.56342 0.46484,9.36718 -0.32785,3.30193 -0.64578,13.16938 -0.70508,21.92774 -0.10144,14.98543 -0.51814,20.94306 -1.91601,27.39844 -0.16163,0.74635 -0.0931,1.00163 0.18945,0.70312 0.62943,-0.66501 3.934,-8.15473 4.33984,-9.83594 0.22364,-0.9266 0.36115,0.11072 0.40235,3.04493 0.0342,2.44719 0.26308,7.08469 0.50781,10.30468 l 0.44531,5.85352 -4.87304,4.80078 c -3.29338,3.245 -5.2157,4.80078 -5.9336,4.80078 -1.45759,0 -6.48753,-3.11617 -12.99023,-8.04687 -3.00435,-2.27808 -5.90935,-4.13086 -6.47461,-4.13086 -1.68512,0 -2.37651,-1.17295 -3.46485,-5.88282 -0.56925,-2.46343 -1.1824,-4.30885 -1.36328,-4.0996 -0.18084,0.20925 -0.60354,1.11793 -0.93945,2.01953 -0.33595,0.90159 -1.6406,3.78736 -2.90039,6.41211 -1.68785,3.51665 -2.21306,5.0868 -1.99219,5.96679 0.37188,1.48161 6.74767,6.68973 14.53516,11.875 l 5.66797,3.77539 0.30273,2.20899 c 0.16659,1.21539 0.30274,3.45278 0.30274,4.9707 0,1.51791 0.2873,3.44807 0.63867,4.28906 0.54592,1.30656 0.99419,1.61032 3.08008,2.0918 3.10631,0.71656 5.30734,0.71805 6.02343,0.002 0.3345,-0.33449 0.5625,-1.94765 0.5625,-3.98242 0,-1.88495 0.20196,-3.41797 0.45118,-3.41797 0.73655,0 3.65812,2.75819 4.62304,4.36524 0.49182,0.81919 1.02284,2.48906 1.17969,3.71093 l 0.28516,2.22071 -2.2168,1.11133 c -4.71907,2.36471 -5.00821,2.38056 -12.79688,0.74414 -10.26368,-2.15643 -12.30109,-1.97516 -22.90625,2.03125 l -8.19531,3.0957 -1.68945,-1.10742 -1.68945,-1.10938 -3.06836,3.12305 c -4.21742,4.29281 -5.4961,6.322 -5.4961,8.7207 0,1.07401 0.26743,2.3174 0.59375,2.76367 0.55402,0.75766 0.88563,0.70494 5.03321,-0.79882 2.44287,-0.8857 6.33981,-2.35667 8.6582,-3.26953 8.51795,-3.3539 15.81026,-4.01629 29.50586,-2.68165 5.35535,0.52193 7.93042,0.53288 14.05078,0.0664 8.07952,-0.61578 15.18735,-0.20268 19.62891,1.14063 1.26454,0.38243 2.79342,0.69531 3.39648,0.69531 0.60307,0 1.0957,0.15802 1.0957,0.35156 0,0.45628 -10.85802,6.00934 -13.51172,6.91016 -3.80852,1.29287 -12.28242,1.75454 -28.11328,1.52929 -8.404,-0.11957 -15.67813,-0.38871 -16.16406,-0.59765 -1.75968,-0.7566 -0.46233,0.91807 3.26367,4.21484 2.03985,1.8049 4.19232,3.59797 4.78321,3.98438 1.06074,0.69362 1.01515,0.74608 -3.51368,4.08007 -5.24213,3.85914 -11.65094,10.08739 -11.17382,10.85938 0.66868,1.08194 2.99702,0.35083 15.44921,-4.85352 l 6.51954,-2.72461 6.95507,0.2793 c 3.82562,0.1537 7.19078,0.4249 7.47657,0.60156 0.76137,0.47053 0.19195,10.6097 -0.76954,13.71289 -0.6789,2.19095 -0.71335,3.24558 -0.26953,8.10938 0.2806,3.07474 0.82704,6.34917 1.21485,7.27734 0.6699,1.6033 0.6519,1.746 -0.35742,2.84766 -0.58416,0.63758 -2.29745,2.07865 -3.80664,3.20117 -3.01919,2.24539 -3.15228,2.26621 -10.36719,1.53906 -6.99573,-0.70506 -19.84534,-3.00787 -22.55078,-4.04101 -0.54012,-0.20627 -4.52606,-4.69579 -8.85743,-9.97656 -4.33142,-5.28078 -10.85277,-13.18333 -14.49218,-17.5625 -3.63935,-4.37919 -14.00556,-17.18119 -23.03516,-28.44922 -13.08373,-16.32719 -16.47917,-20.84555 -16.7207,-22.24805 -0.1667,-0.96793 -1.4534,-9.13637 -2.85938,-18.15234 -4.08912,-26.22168 -4.81693,-30.70325 -5.59375,-34.42383 -1.06224,-5.08788 -0.92697,-5.29036 1.09766,-1.64063 1.00029,1.80319 3.89526,5.69765 6.43359,8.6543 5.31441,6.19034 19.86236,21.21774 20.20703,20.87305 0.12754,-0.12751 0.0153,-0.4999 -0.24804,-0.82813 -0.2634,-0.32822 -2.31574,-4.07384 -4.56055,-8.32422 -2.24486,-4.25039 -6.55869,-11.41781 -9.58594,-15.92578 -6.75898,-10.06487 -11.73616,-18.57574 -15.9707,-27.30664 -3.73177,-7.69416 -4.18836,-9.74487 -4.19336,-18.90234 l -0.004,-6.16602 3.03321,-0.1582 c 3.43001,-0.17757 3.16413,-0.51272 3.76953,4.76172 0.93092,8.11044 4.87662,21.27282 8.33789,27.81445 3.44327,6.50748 10.54856,11.87438 18.36328,13.87305 5.67808,1.4516 17.39698,2.07131 27.31641,1.44336 21.39289,-1.35429 25.84219,-3.83749 32.99609,-18.41602 1.93022,-3.93349 3.8919,-8.31172 4.35938,-9.72851 l 0.85156,-2.57618 0.34179,3.2793 c 0.18824,1.80318 0.67485,8.33716 1.08204,14.51953 0.40724,6.18237 0.83146,11.97733 0.94335,12.87891 0.11193,0.9016 0.21366,3.69544 0.22266,6.20703 0.01,2.51159 0.17861,4.56641 0.375,4.56641 0.39249,0 1.74329,-4.518 2.45117,-8.19727 0.96806,-5.0313 1.09081,-19.76703 0.26172,-31.37891 -0.44142,-6.18237 -0.73324,-12.58488 -0.64844,-14.22656 l 0.1543,-2.98437 2.21094,-1.15625 c 1.30514,-0.68231 2.58285,-1.12604 3.90625,-1.34375 z m 101.4043,4.2539 0.83593,1.09375 c 0.45909,0.60144 1.21516,1.80178 1.68164,2.66797 l 0.84961,1.57422 -1.39843,2.10938 c -0.94783,1.43095 -1.65859,3.43138 -2.21289,6.22265 -0.44931,2.26239 -1.2294,4.69203 -1.73243,5.39844 -0.68959,0.96833 -0.83708,1.69072 -0.60351,2.93555 0.38597,2.05759 0.0886,2.08941 -1.07617,0.11523 -0.87975,-1.49091 -0.88124,-1.57006 -0.0508,-2.69336 0.90304,-1.22153 1.78652,-5.05757 1.82032,-7.89648 0.0151,-1.28485 0.46322,-2.19676 1.85937,-3.78711 1.64338,-1.87202 1.7731,-2.19447 1.22461,-3.04297 -0.3376,-0.52223 -0.74393,-1.79382 -0.9043,-2.82422 z m -71.25977,16.86133 2.24219,2.54102 c 1.23316,1.39821 3.02477,3.58641 3.98047,4.86132 1.44086,1.92213 2.40148,2.61426 5.62109,4.05079 9.31581,4.15657 9.12227,4.02534 10.17969,6.85156 0.5292,1.41437 0.96289,2.78078 0.96289,3.03515 0,1.32552 1.95578,5.74867 2.89648,6.54883 0.59553,0.50653 2.76929,1.95539 4.83008,3.22071 2.06079,1.26531 5.11663,3.68394 6.79102,5.37304 3.51211,3.54292 4.75201,3.85804 7.10937,1.80664 0.81401,-0.7084 2.67718,-2.34286 4.14063,-3.63086 1.46339,-1.28799 3.48355,-2.63356 4.48828,-2.99023 3.80309,-1.35008 5.80664,-2.49768 5.80664,-3.32617 0,-0.45538 -0.29721,-1.54262 -0.66211,-2.41602 -0.43142,-1.03246 -0.66406,-3.33178 -0.66406,-6.57226 0,-2.74127 -0.22877,-5.4102 -0.50782,-5.93164 -0.82432,-1.54025 -0.58181,-1.69901 0.49805,-0.32618 0.55294,0.70297 1.06849,2.04847 1.14648,2.99024 0.34949,4.21828 0.83841,6.02061 2.14649,7.92187 0.77125,1.12097 1.54176,1.97058 1.71289,1.88868 0.41183,-0.19689 4.06963,-2.49219 7.68164,-4.82032 2.61387,-1.68478 3.11994,-2.28598 5.02734,-5.96094 2.50302,-4.82253 7.12377,-11.58774 7.38282,-10.81054 0.27231,0.8168 -2.58461,10.24916 -4.16407,13.75 -1.27193,2.81928 -1.61897,3.19481 -4.28515,4.63867 -1.59567,0.86411 -5.008,3.08637 -7.58399,4.9375 -6.04444,4.34366 -11.28965,7.84528 -13.3125,8.88672 -0.88222,0.45421 -3.09793,2.2247 -4.92187,3.93359 -1.82395,1.70889 -4.12152,3.80041 -5.10742,4.64844 -1.71866,1.47829 -1.84876,1.79745 -3.1211,7.72852 -1.96951,9.18103 -4.22945,15.5827 -7.08984,20.08203 -0.76469,1.20289 -2.58504,3.08969 -4.04688,4.19336 l -2.6582,2.00586 1.08008,-1.61719 c 3.1629,-4.73884 5.62069,-12.6127 4.97852,-15.94727 -0.0966,-0.50158 0.80112,-2.93079 1.99414,-5.39843 1.92894,-3.98989 2.19196,-4.92096 2.375,-8.40821 0.18383,-3.50314 0.0669,-4.24707 -1.09571,-6.98242 -1.43216,-3.3698 -3.41585,-5.34269 -9.64258,-9.59375 l -3.45703,-2.36133 -2.11914,-5.73633 -2.11914,-5.73437 -6.50976,-2.13477 -6.51172,-2.13476 -0.81055,-2.38672 c -0.44597,-1.31198 -1.68178,-4.24971 -2.74609,-6.5293 z m -56.29883,31.32813 c -0.66021,-0.66017 -3.54671,1.80387 -7.12109,6.07617 -3.59234,4.29379 -11.80686,17.52354 -12.66016,20.39062 l -0.33398,1.125 1.57422,-1.10156 c 2.42603,-1.69561 10.38075,-8.17412 11.25195,-9.16406 0.99152,-1.12665 7.65325,-16.96194 7.28906,-17.32617 z m 55.79883,0.51953 1.55664,1.40625 c 3.27062,2.95359 12.72204,13.30273 13.5332,14.81836 0.25642,0.47923 0.40554,0.8596 0.33203,0.8457 -1.2366,-0.23318 -5.80318,-1.92605 -6.5957,-2.44531 -1.57886,-1.0345 -4.6982,-5.95595 -7.48828,-11.81446 z m 22.94531,53.6289 c 0.18201,0 1.72493,1.42136 3.42774,3.16016 2.58326,2.63783 3.18921,3.56751 3.66211,5.61523 0.54415,2.35599 0.51742,2.51252 -0.65039,3.90039 -0.99405,1.18137 -1.21666,1.93224 -1.22266,4.10352 -0.004,1.46143 -0.21121,2.97296 -0.46094,3.35937 -0.30626,0.4739 -0.4602,-1.27953 -0.4707,-5.38671 l -0.0156,-6.08789 -2.30078,-4.33204 c -1.26491,-2.38278 -2.15071,-4.33203 -1.96875,-4.33203 z m 12.25391,5.85352 1.07617,1.3457 c 0.99658,1.2454 1.04807,1.59515 0.69141,4.6836 -0.21198,1.83575 -0.69535,5.12878 -1.07617,7.31835 h -0.004 c -0.38088,2.1896 -1.20713,5.56216 -1.83594,7.49415 l -1.14258,3.51367 0.25,-4.6836 c 0.13746,-2.57599 0.65002,-7.08231 1.14063,-10.01367 0.49061,-2.93135 0.89453,-6.3039 0.89453,-7.49414 z m -142.85547,27.7168 7.22852,9.56054 c 7.22716,9.55694 8.48413,11.17992 22.50781,29.05274 6.07133,7.73771 16.1566,20.16217 19.81836,24.41601 0.38804,0.45079 0.61995,0.8155 0.51562,0.8125 -0.43497,-0.0134 -11.28143,-8.3137 -15.17773,-11.61523 -9.56156,-8.10207 -21.95291,-19.39562 -28.21875,-25.71875 l -6.67383,-6.73633 v -9.88477 z m 153.44141,66.78906 c 0.46724,0.46725 -1.0677,4.013 -2.88672,6.66992 -1.46269,2.13651 -2.08399,3.51963 -2.08399,4.63867 0,1.38932 -0.25603,1.7377 -1.99023,2.70703 l -1.99024,1.11328 0.13477,-3.76562 c 0.19334,-5.39326 0.34477,-5.82837 2.32617,-6.65625 0.94919,-0.39659 2.76234,-1.65382 4.0293,-2.79297 1.26702,-1.13915 2.37484,-2.00016 2.46094,-1.91406 z" /></svg>
