<?xml version="1.0" encoding="UTF-8" standalone="no"?>
<!-- Created with Inkscape (http://www.inkscape.org/) -->

<svg
   width="497.12302"
   height="468.14539"
   viewBox="0 0 497.12302 468.14539"
   version="1.1"
   id="svg1"
   xml:space="preserve"
   sodipodi:docname="Template.svg"
   inkscape:version="1.4 (86a8ad7, 2024-10-11)"
   inkscape:export-filename="Suit-case.svg"
   inkscape:export-xdpi="96"
   inkscape:export-ydpi="96"
   xmlns:inkscape="http://www.inkscape.org/namespaces/inkscape"
   xmlns:sodipodi="http://sodipodi.sourceforge.net/DTD/sodipodi-0.dtd"
   xmlns="http://www.w3.org/2000/svg"
   xmlns:svg="http://www.w3.org/2000/svg"><sodipodi:namedview
     id="namedview1"
     pagecolor="#ffffff"
     bordercolor="#000000"
     borderopacity="0.25"
     inkscape:showpageshadow="2"
     inkscape:pageopacity="0.0"
     inkscape:pagecheckerboard="true"
     inkscape:deskcolor="#d1d1d1"
     inkscape:zoom="2"
     inkscape:cx="188.25"
     inkscape:cy="300.75"
     inkscape:window-width="2560"
     inkscape:window-height="1494"
     inkscape:window-x="585"
     inkscape:window-y="2149"
     inkscape:window-maximized="1"
     inkscape:current-layer="svg1"><inkscape:page
       x="0"
       y="0"
       width="497.12302"
       height="468.14539"
       id="page2"
       margin="0"
       bleed="0" /></sodipodi:namedview><defs
     id="defs1"><inkscape:path-effect
       effect="bspline"
       id="path-effect37"
       is_visible="true"
       lpeversion="1.3"
       weight="33.333333"
       steps="2"
       helper_size="0"
       apply_no_weight="true"
       apply_with_weight="true"
       only_selected="false"
       uniform="false" /><inkscape:path-effect
       effect="bspline"
       id="path-effect34"
       is_visible="true"
       lpeversion="1.3"
       weight="33.333333"
       steps="2"
       helper_size="0"
       apply_no_weight="true"
       apply_with_weight="true"
       only_selected="false"
       uniform="false" /></defs><path
     style="fill:#ffffff;stroke-width:12.3;stroke-linecap:round;stroke-linejoin:round"
     d="m 190,394.875 c 0.75,15.95833 8.25,35.54167 15.83341,49.79176 7.58341,14.25009 15.24992,23.16657 23.54168,28.58326 8.29176,5.41669 17.20824,7.33331 27.37502,6.29161 10.16679,-1.04171 21.58322,-5.04163 30.49995,-11.70839 8.91674,-6.66676 15.33327,-15.99991 18.62494,-24.49998 3.29167,-8.50008 3.45833,-16.16659 4.00001,-25.37503 0.54167,-9.20844 1.45832,-19.95823 2.75001,-29.83332 1.29168,-9.87509 2.95831,-18.87491 4.79167,-28.125 1.83335,-9.2501 3.83331,-18.74991 4.83331,-18.87482 1,-0.1249 1,9.12491 2.95837,11.95821 1.95838,2.83329 5.87496,-0.74997 9.41666,-0.99993 3.5417,-0.24997 6.7083,2.8333 9.70833,6.29167 3.00003,3.45837 5.83331,7.29163 8.83334,4.04153 3.00003,-3.25011 6.16663,-13.58324 6.12494,-22.54164 -0.0417,-8.95841 -3.29164,-16.5416 6.25025,-31.08348 9.54189,-14.54188 31.87478,-36.04145 43.12478,-51.66655 11.25,-15.62509 11.41666,-25.3749 9.12495,-34.45831 -2.29171,-9.08342 -7.04162,-17.49992 -1.9998,-21.41658 5.04181,-3.91666 19.87485,-3.33334 30.87492,-10.45849 11.00007,-7.12515 18.16659,-21.95819 21.08325,-33.49993 2.91665,-11.54175 1.58334,-19.79159 -1.83338,-27.20832 -3.41672,-7.41673 -8.91661,-13.99994 -16.50004,-18.99997 -7.58343,-5.00003 -17.2499,-8.41663 -27.95835,-6.54156 -10.70845,1.87507 -22.45822,9.04159 -35.6667,18.91672 -13.20848,9.87513 -27.87485,22.45821 -48.04178,37.87506 C 317.58282,176.75037 291.91667,195 274.91658,213.62519 257.9165,232.25038 249.58333,251.25 238.74987,274.75028 227.9164,298.25056 214.58333,326.25 204.91661,346.41679 195.24988,366.58358 189.25,378.91667 190,394.875 Z"
     id="path35"
     inkscape:path-effect="#path-effect37"
     inkscape:original-d="m 183.25,391.25 c 7.5,19.58333 15,39.16667 22.5,58.75 7.66682,8.91685 15.33333,17.83333 23,26.75 8.91685,1.91671 17.83333,3.83333 26.75,5.75 11.4169,-4.00008 22.83333,-8 34.25,-12 6.4168,-9.33352 12.83333,-18.66667 19.25,-28 0.16667,-7.66682 0.33333,-15.33333 0.5,-23 0.91669,-10.75021 1.83333,-21.5 2.75,-32.25 1.6667,-9.00018 3.33333,-18 5,-27 2.00004,-9.50019 4,-19 6,-28.5 0,9.25019 0,18.5 0,27.75 3.91675,-3.5834 7.83333,-7.16667 11.75,-10.75 3.16673,3.0834 6.33333,6.16667 9.5,9.25 2.83339,3.83341 5.66667,7.66667 8.5,11.5 3.16673,-10.33354 6.33333,-20.66667 9.5,-31 -3.25006,-7.58348 -6.5,-15.16667 -9.75,-22.75 22.33378,-21.50043 44.66667,-43 67,-64.5 0.16667,-9.75019 0.33333,-19.5 0.5,-29.25 -4.75009,-8.41683 -9.5,-16.83333 -14.25,-25.25 14.83363,0.58335 29.66667,1.16667 44.5,1.75 7.16681,-14.83363 14.33333,-29.66667 21.5,-44.5 -1.33336,-8.25016 -2.66667,-16.5 -4,-24.75 -5.50011,-6.58346 -11,-13.16667 -16.5,-19.75 -9.66686,-3.41673 -19.33333,-6.83333 -29,-10.25 -11.75023,7.16681 -23.5,14.33333 -35.25,21.5 -14.66696,12.58359 -29.33333,25.16667 -44,37.75 -25.66718,18.25037 -51.33333,36.5 -77,54.75 -8.3335,19.00038 -16.66667,38 -25,57 -13.3336,28.00056 -26.66667,56 -40,84 -6.00012,12.33358 -12,24.66667 -18,37 z"
     transform="translate(-3.8832316,-18.524401)" /><path
     style="fill:#ffffff;stroke-width:12.3;stroke-linecap:round;stroke-linejoin:round"
     d="m 272.58333,87.124999 c -3.83333,3.708334 -7.83333,5.541668 -6.74993,9.583398 1.08339,4.041733 7.24993,10.291603 13.08332,12.083243 5.83339,1.79164 11.33328,-0.87497 17.29168,-6.16672 5.9584,-5.291747 12.37493,-13.208252 17.0833,-22.458358 4.70836,-9.250107 7.7083,-19.833229 12.00002,-28.208292 4.29173,-8.375062 9.87495,-14.541605 16.58336,-18.041612 6.70841,-3.500008 14.54159,-4.333325 23.20835,-1.833267 8.66676,2.500059 18.16657,8.333276 23.70825,16.29171 5.54169,7.958435 7.12499,18.041567 6.58329,28.208335 -0.54169,10.166769 -3.2083,20.416563 -4.70831,33.250054 -1.5,12.83349 -1.83333,28.24984 -6.95843,43.37499 -5.12509,15.12515 -15.04156,29.95819 -38.87527,42.74996 C 320.99925,208.75021 283.25,219.5 250.9164,225.16667 c -32.3336,5.66667 -59.24973,6.25 -79.24986,4.29162 -20.00013,-1.95838 -33.08321,-6.45829 -40.70823,-17.37513 -7.62502,-10.91684 -9.79164,-28.24983 -9.37495,-42.70827 0.4167,-14.45845 3.41664,-26.04156 2.24992,-32.91658 -1.16672,-6.87502 -6.49995,-9.04164 -13.70837,-13.95839 C 102.91649,117.58318 93.833335,109.91667 89.58334,102.04159 85.333345,94.166505 85.916667,86.083333 88.458378,77.791581 91.00009,69.49983 95.5,61 102.7501,54.58329 110.0002,48.16658 120,43.833333 131.45846,44.29172 c 11.45847,0.458387 24.37487,5.708279 33.87493,12.708368 9.50007,7.000089 15.58328,15.749914 21.95834,20.33325 6.37507,4.583337 13.0416,4.999995 16.5416,1.458254 3.50001,-3.541742 3.83334,-11.041592 7.29174,-18.750006 3.4584,-7.708413 10.0416,-15.624921 19.33338,-20.666608 9.29179,-5.041688 21.29155,-7.208311 30.87495,-3.70822 9.58341,3.500092 16.74993,12.666574 20.08326,19.70829 3.33333,7.041717 2.83334,11.958285 0.74997,17.208341 -2.08337,5.250056 -5.74996,10.833276 -9.5833,14.54161 z"
     id="path33"
     inkscape:path-effect="#path-effect34"
     inkscape:original-d="m 272.75,89 c -4,1.833333 -8,3.666667 -12,5.5 6.16679,6.25013 12.33333,12.5 18.5,18.75 5.50011,-2.66672 11,-5.33333 16.5,-8 6.4168,-7.916825 12.83333,-15.833333 19.25,-23.75 3.00006,-10.583545 6,-21.166667 9,-31.75 5.58345,-6.16679 11.16667,-12.333333 16.75,-18.5 7.83349,-0.83335 15.66667,-1.666667 23.5,-2.5 9.50019,5.83345 19,11.666667 28.5,17.5 1.58337,10.083535 3.16667,20.166667 4.75,30.25 -2.66672,10.250205 -5.33333,20.5 -8,30.75 -0.33334,15.41698 -0.66667,30.83333 -1,46.25 -9.91686,14.83363 -19.83333,29.66667 -29.75,44.5 -37.75075,10.75022 -75.5,21.5 -113.25,32.25 -26.9172,0.58335 -53.83333,1.16667 -80.75,1.75 -13.08359,-4.50009 -26.16667,-9 -39.25,-13.5 -2.16671,-17.33368 -4.33333,-34.66667 -6.5,-52 3.00006,-11.58356 6,-23.16667 9,-34.75 -5.33344,-2.16671 -10.66667,-4.33333 -16,-6.5 -9.08351,-7.66682 -18.166667,-15.33333 -27.25,-23 0.583345,-8.083495 1.166667,-16.166667 1.75,-24.25 4.50009,-8.50017 9,-17 13.5,-25.5 10.0002,-4.33342 20,-8.666667 30,-13 12.91693,5.250105 25.83333,10.5 38.75,15.75 6.08346,8.750175 12.16667,17.5 18.25,26.25 6.6668,0.416675 13.33333,0.833333 20,1.25 0.33334,-7.50015 0.66667,-15 1,-22.5 6.58347,-7.916825 13.16667,-15.833333 19.75,-23.75 12.00024,-2.16671 24,-4.333333 36,-6.5 7.16681,9.16685 14.33333,18.333333 21.5,27.5 -0.50001,4.916765 -1,9.833333 -1.5,14.75 -3.66674,5.583445 -7.33333,11.166667 -11,16.75 z"
     transform="translate(-3.8832316,-18.524401)" /><path
     style="fill:#000000;stroke-width:0.54333"
     d="m 242.52585,467.40231 c -5.72225,-1.0642 -13.54779,-3.7537 -18.9634,-6.51737 -19.4276,-9.91426 -33.36832,-29.3932 -34.92321,-48.79714 l -0.33911,-4.23181 -5.21532,5.07142 c -15.84222,15.4051 -33.16732,24.55936 -50.145,26.49571 -5.69934,0.65002 -15.55673,-0.25052 -21.51598,-1.96565 -6.46778,-1.86148 -16.418731,-6.72662 -21.124915,-10.32823 -18.146209,-13.88716 -25.695907,-34.87591 -20.860129,-57.99272 1.436911,-6.86897 3.997297,-14.49386 6.102502,-18.17335 0.911321,-1.59283 1.569591,-2.97969 1.46281,-3.0819 -0.106767,-0.10222 -2.272397,0.27324 -4.812472,0.83431 -5.316222,1.1743 -13.533997,1.34859 -20.918238,0.44368 C 38.406796,347.5825 27.305423,342.18587 17.434501,332.70938 11.538004,327.0485 8.4647874,322.93566 5.5235852,316.76908 2.0282572,309.44075 0.41504029,302.67596 0.06933759,293.89749 -0.50538351,279.30367 2.4691397,268.14554 9.8724444,257.12367 c 3.5787126,-5.32789 12.2921966,-15.9379 16.9510606,-20.64053 5.360795,-5.41115 19.33691,-17.0518 26.315902,-21.91842 l 5.19728,-3.62417 -7.334959,-0.33317 C 39.82117,210.09952 32.700375,207.36598 24.105213,200.2823 13.868223,191.84552 7.1636794,180.08282 4.7756608,166.36979 3.8216887,160.89167 4.3899316,148.97584 5.8759934,143.29613 c 3.91924,-14.97918 15.0219356,-27.56056 29.3808406,-33.29385 8.15748,-3.25716 11.495673,-3.854 21.721532,-3.88367 7.582314,-0.022 10.223645,0.1719 13.039937,0.95721 5.961567,1.66235 13.313728,5.51309 20.265425,10.61416 6.96303,5.10936 9.985082,7.82554 16.770942,15.07345 l 4.12809,4.40918 0.37988,-4.85602 c 0.20894,-2.67082 0.97139,-7.29889 1.69434,-10.2846 0.72295,-2.9857 1.31446,-5.53524 1.31446,-5.66562 0,-0.13038 -1.28361,-0.23767 -2.85249,-0.23842 -3.7602,-0.002 -12.291702,-2.32049 -16.108785,-4.37802 -8.866973,-4.7796 -14.587706,-10.23081 -18.245939,-17.386291 -3.377976,-6.60729 -3.818738,-8.91932 -3.774502,-19.799124 0.03537,-8.714604 0.191422,-10.342231 1.431931,-14.941602 4.156783,-15.411822 15.015116,-30.16659 28.411505,-38.606808 3.33618,-2.101906 9.2665,-4.645312 14.66993,-6.291634 4.59835,-1.40104 5.52185,-1.491314 15.48492,-1.513785 9.40019,-0.02116 11.11575,0.11701 15.21328,1.225524 13.06811,3.535366 24.02337,10.32885 32.12617,19.921819 4.1891,4.959494 10.52839,13.798224 11.78243,16.427966 0.46518,0.975489 1.00953,1.773619 1.20967,1.773619 0.20015,0 0.40708,-1.65037 0.45983,-3.66748 0.44219,-16.904894 13.30921,-36.122113 29.67321,-44.3176776 7.1001,-3.555937 18.39333,-5.37961894 26.213,-4.23299894 10.89061,1.59691994 18.19949,4.32698494 24.63392,9.20143394 12.97353,9.8281936 18.86447,26.6511016 14.84087,42.3814676 -3.10901,12.154788 -11.9492,21.364026 -23.2863,24.258397 -4.13023,1.054457 -12.19967,1.062552 -16.21658,0.01628 -7.49325,-1.951748 -12.93786,-6.46547 -16.505,-13.683094 -1.94049,-3.926325 -2.07328,-4.509975 -2.07328,-9.113156 0,-4.291254 0.19468,-5.314582 1.52728,-8.028317 3.62629,-7.384611 11.50518,-10.410108 18.20656,-6.991318 1.13965,0.581404 2.39129,1.441716 2.78144,1.911808 0.62426,0.752188 0.45698,0.855777 -1.39469,0.863643 -2.48618,0.01085 -5.88728,1.81422 -7.48623,3.970052 -0.78015,1.051865 -1.13774,2.345941 -1.13774,4.117281 0,4.481157 3.83348,8.214118 9.5483,9.297904 7.07091,1.340972 12.7394,-3.682572 14.67731,-13.007364 1.38642,-6.671168 -0.86429,-14.006204 -5.75673,-18.761115 -4.42668,-4.302235 -13.52656,-7.864824 -20.16055,-7.892818 -11.41178,-0.04817 -23.5857,8.714786 -29.81377,21.460375 -3.84725,7.873298 -4.44147,15.328523 -2.19046,27.481901 1.93881,10.467812 2.63432,17.877401 2.29013,24.397951 -0.49249,9.330131 -1.99516,15.099901 -7.99502,30.698201 -3.79108,9.85596 -4.31916,13.40125 -4.93672,33.14316 -0.29914,9.56263 -0.38913,19.5439 -0.20001,22.18061 l 0.34386,4.79402 -2.62472,-0.37398 c -3.9577,-0.56395 -6.10194,-1.76026 -9.68804,-5.4052 -8.36151,-8.49868 -12.56797,-21.91556 -11.16309,-35.60572 0.68069,-6.6331 1.22247,-8.84098 5.79674,-23.62289 6.01874,-19.449751 6.26981,-20.618101 6.5384,-30.426511 l 0.23807,-8.693294 -1.35947,3.872994 c -2.6029,7.4154 -5.65704,13.81934 -12.45907,26.124131 -10.56858,19.1185 -13.5556,27.00081 -14.24241,37.58375 -0.31946,4.92243 -0.20994,5.72534 1.88861,13.84592 1.22527,4.74127 2.36133,8.83662 2.52461,9.1008 0.72444,1.17216 -0.86185,0.26682 -4.04422,-2.30815 -6.94346,-5.61822 -9.81304,-12.21881 -10.24396,-23.56308 -0.22539,-5.93365 -0.0861,-7.82595 0.87122,-11.83187 1.32257,-5.53449 4.05748,-12.4223 7.3833,-18.59466 4.70243,-8.72722 9.1181,-23.042701 9.82141,-31.840732 0.45695,-5.716176 -0.51142,-14.195153 -2.19648,-19.232358 -4.52855,-13.537295 -17.058,-25.539907 -30.15509,-28.887128 -5.64823,-1.443518 -16.54113,-1.31734 -22.0049,0.254906 -6.39227,1.839415 -11.70817,4.667806 -15.772322,8.39187 -14.865608,13.621624 -16.343069,34.84043 -3.324042,47.738861 6.372424,6.31338 12.189184,8.86512 19.498324,8.55366 5.78559,-0.24654 10.98302,-2.58233 13.53651,-6.08346 3.44201,-4.71941 4.395,-7.28245 4.15716,-11.180575 -0.25462,-4.1733 -1.37889,-6.780268 -4.09562,-9.496999 -2.307,-2.306999 -3.03583,-2.484858 -2.30495,-0.562471 1.48307,3.900742 -0.18922,9.572193 -3.40923,11.562275 -2.21932,1.37161 -6.53759,1.57514 -9.26259,0.43656 -7.51105,-3.138316 -8.57969,-15.663245 -1.9271,-22.586607 6.03177,-6.277268 15.89668,-7.193817 25.53414,-2.372394 11.83431,5.920466 17.56812,19.822454 14.25028,34.550761 -1.76614,7.840171 -4.66461,12.784711 -12.29435,20.973141 -8.24051,8.84389 -13.56977,22.43734 -13.07878,34.598 1.27344,31.54073 12.70904,43.24376 60.72347,50.24329 -9.58253,1.23297 -40.60311,42.72656 -40.41486,30.56898 0.24989,-16.13773 -8.96576,-27.33564 -14.02969,-17.01769 -1.10022,2.86979 -0.83637,-8.20468 -1.20109,13.0426 -0.43183,25.15625 -0.30372,24.23424 -4.66403,33.56937 -6.45219,13.81367 -24.64281,36.0801 -36.186228,44.29417 -4.834837,3.44037 -10.452495,5.96749 -17.865747,8.03696 -5.534855,1.54512 -6.669106,1.68639 -11.731104,1.46127 -5.145816,-0.22887 -5.94706,-0.41887 -9.803172,-2.32466 -7.225382,-3.57098 -11.341317,-8.85347 -12.723324,-16.32944 -1.013672,-5.48347 0.0293,-9.28399 3.646722,-13.288 6.296051,-6.96899 18.936847,-3.52756 20.847429,5.67566 0.686273,3.30575 -0.0087,7.73793 -1.650673,10.52006 -0.607218,1.02917 -1.01901,1.95625 -0.915085,2.06019 0.323709,0.3237 5.458165,-2.58668 7.605133,-4.31085 1.124724,-0.90324 2.713963,-3.0045 3.531644,-4.66946 1.249536,-2.54431 1.484586,-3.72062 1.473455,-7.37388 -0.0114,-3.72975 -0.256969,-4.86509 -1.7305,-7.99964 -2.36623,-5.03352 -5.976692,-8.7404 -10.717476,-11.0037 -8.736454,-4.17085 -17.453877,-3.99198 -26.756166,0.54903 -6.272895,3.06219 -12.183519,10.34686 -14.622242,18.0215 -1.103848,3.4738 -1.582326,13.21482 -0.842626,17.15462 3.015689,16.06227 17.550108,29.36483 35.031773,32.06265 7.912762,1.22111 15.430213,-0.21013 23.636118,-4.50009 6.372533,-3.33148 10.307041,-6.58592 21.822587,-18.05048 16.337322,-16.26499 26.731822,-23.43386 40.687322,-28.06113 7.22106,-2.3943 11.72753,-3.22053 21.00896,-3.85184 12.04246,-0.81909 32.30126,-0.75013 32.29503,0.10995 -0.0161,2.2277 -2.92963,12.97177 -4.50061,16.59693 -4.77256,11.01303 -12.93132,18.43956 -23.12728,21.05164 -8.42267,2.15778 -16.37698,-2.63376 -16.37698,-9.86522 0,-2.64224 1.15341,-4.59813 4.37189,-7.41359 l 2.77054,-2.42358 -3.16372,0.48297 c -7.36846,1.12487 -12.4592,4.11514 -16.01747,9.40855 -6.0884,9.0573 -2.28944,18.69549 9.21088,23.36848 7.40501,3.00894 15.91563,2.91854 24.62946,-0.26163 6.39373,-2.33341 10.19534,-4.91586 15.5218,-10.544 5.27265,-5.57129 8.88055,-11.33689 11.68004,-18.66527 0.94135,-2.46425 1.75989,-4.42023 1.81896,-4.34664 0.0592,0.0735 -0.0921,4.08874 -0.33592,8.92261 -1.05853,20.98415 -7.59617,46.01503 -16.58527,63.50053 -3.66723,7.13346 -10.95213,17.84098 -15.40767,22.64654 -6.29368,6.78812 -16.09414,12.66067 -23.88505,14.31221 -5.06101,1.07283 -12.10179,0.9793 -16.42022,-0.21817 -14.60166,-4.04892 -23.24104,-19.6637 -17.64391,-31.8895 3.06515,-6.69513 9.93168,-11.35988 16.63575,-11.30141 5.62468,0.049 10.04715,2.60452 12.01866,6.94481 2.51141,5.52883 0.33786,10.57124 -6.05179,14.03966 -2.79653,1.51801 -1.27907,2.51989 4.39544,2.90203 3.88141,0.26139 4.97336,0.13681 7.16497,-0.81739 3.78899,-1.64967 7.59573,-5.47103 9.41836,-9.45453 1.35228,-2.95553 1.5517,-4.04524 1.56453,-8.54894 0.0132,-4.65849 -0.14894,-5.50697 -1.66409,-8.70416 -2.15712,-4.55183 -6.89227,-9.66468 -10.93082,-11.80272 -4.44168,-2.35147 -8.09102,-3.30163 -14.16876,-3.68904 -6.48749,-0.41353 -11.51121,0.74112 -18.86142,4.33509 -11.470062,5.60841 -19.444202,15.47963 -22.606447,27.98462 -0.959225,3.79326 -1.109664,5.60583 -0.878711,10.58729 0.513543,11.07677 3.405924,18.03977 10.391944,25.01724 8.423104,8.4128 16.134874,12.21039 27.022654,13.30709 13.90497,1.40063 28.49498,-3.12399 41.4903,-12.86686 6.15879,-4.61736 19.43599,-17.5316 23.90377,-23.25031 9.90613,-12.67975 21.22082,-34.54372 25.34553,-48.97654 1.19646,-4.18657 1.22395,-4.93817 1.40877,-38.51966 l 0.18849,-34.24977 -1.26146,-1.18508 -1.26145,-1.18507 -30.70627,-0.15332 c -28.23697,-0.14099 -30.82352,-0.2302 -32.16464,-1.10927 -3.20436,-2.10041 -3.17028,-1.76161 -3.12628,-31.08202 0.025,-16.6696 0.2494,-27.42283 0.59278,-28.40786 0.33987,-0.97495 0.79803,-0.39467 2.03802,-1.03509 1.89697,-0.97976 4.35888,-2.64814 33.29729,-2.90379 24.70369,-0.21824 30.92476,-0.41585 31.63397,-1.00486 0.79554,-0.66072 0.89773,-4.25022 1.03369,-36.30658 l 0.15089,-35.57338 2.28813,-2.13408 2.28812,-2.13408 h 27.25926 c 26.38205,0 27.31632,0.0353 29.03141,1.09523 3.65629,2.25972 3.55565,1.16751 3.55927,38.62549 0.002,27.69024 0.14005,34.09834 0.76291,35.58905 l 0.75965,1.81809 32.40842,0.14839 32.40844,0.14839 1.31106,1.52446 1.31105,1.52446 v 28.52155 c 0,31.43484 0.041,31.03881 -3.32455,32.212 -1.18381,0.41268 -11.18555,0.60224 -31.77581,0.60224 -21.62482,0 -30.43569,0.17654 -31.43043,0.62978 -0.88665,0.40398 -1.57558,1.32931 -1.92152,2.58083 -0.32712,1.18345 -0.53988,13.93065 -0.5408,32.40064 -0.001,33.18493 1.3351,36.67543 -2.87743,39.46048 -4.54973,3.00799 -24.19939,16.00711 -28.7118,4.51237 -9.00334,-22.93476 10.73312,-47.1263 11.5714,-62.80375 -5.73875,12.3707 -15.75917,23.70792 -20.0396,31.8179 -6.78853,12.862 -7.56555,33.92512 -13.67847,39.7115 -21.15179,20.02189 -26.10587,51.31193 -17.68283,71.56258 6.5519,15.7521 20.79749,28.2205 36.05576,31.55766 4.13939,0.90533 7.0796,1.13684 14.43483,1.13659 8.62113,-3e-4 9.53404,-0.0996 13.69982,-1.48978 13.95217,-4.65607 24.45933,-18.20403 25.50116,-32.88122 0.44771,-6.30742 -0.36603,-10.50431 -3.16931,-16.34575 -3.48081,-7.25333 -8.23668,-11.15365 -17.18036,-14.0897 -10.03289,-3.29363 -21.11731,-1.07369 -26.9322,5.39386 -5.75433,6.40021 -6.95889,13.12721 -3.51282,19.61788 2.31457,4.35954 5.7919,8.05405 7.58059,8.05405 1.24375,0 1.34348,-0.20793 1.46235,-3.04876 0.15546,-3.71516 1.88565,-7.93351 3.97511,-9.69167 1.87517,-1.57786 6.70589,-2.75036 9.31495,-2.2609 2.72183,0.51062 6.05878,3.13014 7.83347,6.1493 1.31093,2.23023 1.53048,3.18827 1.53048,6.67871 0,4.76901 -0.85724,6.87079 -4.41733,10.83048 -4.75493,5.28864 -10.68188,7.80171 -18.40256,7.80284 -11.01603,0.001 -22.23087,-5.87233 -28.80722,-15.08827 -4.90326,-6.87131 -6.85595,-13.21733 -6.84082,-22.2318 0.0115,-6.83836 1.46039,-12.96371 4.48583,-18.96422 6.63231,-13.15423 15.77495,-19.92394 33.87886,-25.08575 9.27927,-2.64572 17.34216,-5.8177 21.27387,-8.36928 7.25183,-4.70619 12.63557,-12.56053 14.57281,-21.26024 0.97368,-4.37253 1.87128,-22.30543 1.89904,-37.94049 l 0.0157,-8.8723 1.76583,0.35562 c 5.19157,1.04554 13.10384,6.58282 17.26992,12.08608 6.85764,9.05872 9.43143,19.41506 8.17037,32.87568 -0.7321,7.81455 -1.37892,10.70965 -5.54509,24.81903 -1.80245,6.10427 -3.74078,13.19474 -4.30738,15.75659 -1.37924,6.23601 -1.37281,14.64083 0.0167,21.69007 2.74188,13.91089 3.21447,27.32036 1.25832,35.70321 -1.53305,6.56975 -4.00206,12.81363 -6.68874,16.91523 -2.88605,4.40593 -9.14157,11.06784 -13.46828,14.34326 -7.20574,5.45487 -17.82291,9.9227 -27.65388,11.63709 -5.70742,0.99529 -19.53902,0.99802 -24.87909,0.004 z m 55.8571,-95.09251 c 0.74759,-2.09183 2.07653,-5.5148 2.95322,-7.60663 3.2049,-7.64713 8.29843,-24.89526 7.56762,-25.62607 -0.11351,-0.1135 -0.63662,0.96045 -1.16247,2.38657 -1.47846,4.00956 -5.61705,11.50042 -8.23506,14.90547 -4.33158,5.63378 -9.89027,9.90002 -18.62827,14.29707 l -2.94099,1.47993 4.84265,2.52636 c 5.27551,2.75216 11.3779,8.19155 12.76086,11.37444 0.75098,1.72841 0.7861,1.60171 1.12913,-4.07499 0.2516,-4.16353 0.74736,-6.95935 1.71331,-9.66215 z M 97.698318,256.04754 c 5.276862,-1.86178 9.818362,-6.45815 11.975352,-12.12002 1.79846,-4.72082 1.27847,-8.11026 -1.64333,-10.71169 l -1.21906,-1.08538 0.37155,2.02945 c 0.52546,2.87029 -0.44139,5.86889 -2.55191,7.91449 -4.32172,4.18878 -12.782912,3.63937 -16.257922,-1.05567 -1.629618,-2.20176 -2.005479,-3.17732 -2.593472,-6.73159 -0.897302,-5.42387 1.721736,-12.75107 6.311742,-17.65817 2.792091,-2.98496 9.832282,-7.59301 16.267002,-10.64732 2.21281,-1.05032 4.15256,-2.11886 4.31056,-2.37453 0.93184,-1.50774 -15.853912,-1.77061 -21.732285,-0.34035 -5.165943,1.25694 -12.123798,4.71135 -14.711979,7.30416 -2.877151,2.88231 -5.983451,8.24966 -7.446185,12.86623 -0.955557,3.01587 -1.205061,5.10314 -1.205061,10.08126 0,6.16434 0.037,6.35281 2.046114,10.41653 3.155301,6.38205 9.707924,11.44182 16.698794,12.89436 3.026333,0.62881 8.435274,0.25723 11.38009,-0.78176 z m -38.43754,-63.37551 c 8.050919,-1.70646 12.805201,-7.20308 13.335728,-15.41799 0.70779,-10.95973 -7.88161,-18.53594 -18.206618,-16.059 -4.312283,1.03449 -7.191475,4.97207 -7.191475,9.83503 0,4.62337 4.646527,6.80098 9.371579,4.39201 l 1.994704,-1.01696 -0.804781,1.92613 c -1.039624,2.48816 -1.699065,3.2524 -3.698554,4.28638 -2.897562,1.49839 -4.744496,1.79988 -7.215052,1.17779 -3.348307,-0.84311 -6.859573,-4.14909 -8.978797,-8.45386 -1.510823,-3.0689 -1.794223,-4.29387 -1.973167,-8.52886 -0.289042,-6.84048 0.98774,-10.20792 5.633117,-14.85708 3.869589,-3.87275 6.51668,-5.18785 12.448474,-6.18457 3.65306,-0.61382 4.747978,-0.58686 8.619346,0.21226 9.394572,1.93917 17.025486,7.17909 34.646486,23.79067 12.475412,11.76073 16.392192,14.71969 22.913832,17.31038 4.96719,1.97316 5.82578,2.05774 5.82578,0.57386 0,-2.05229 -1.51994,-4.75959 -5.53109,-9.85189 -5.94727,-7.55028 -6.52171,-8.39987 -9.67478,-14.30889 -4.31674,-8.08976 -7.82266,-12.90667 -13.862332,-19.04594 -8.703754,-8.84732 -18.576289,-14.79389 -28.851169,-17.3781 -7.706475,-1.93823 -12.422489,-2.20494 -19.239485,-1.08808 -14.062137,2.30387 -23.700959,11.39265 -26.671023,25.14905 -2.843526,13.17034 3.388594,29.36422 14.431928,37.50069 8.165118,6.01586 14.642054,7.7401 22.677349,6.03697 z M 378.43177,426.29807 c -4.66189,-0.59867 -11.30861,-2.28038 -16.01597,-4.05222 -13.93221,-5.24407 -27.30695,-20.50095 -31.54945,-35.98925 -3.60558,-13.16302 -2.37197,-25.89085 4.23353,-43.67983 5.1903,-13.97781 6.60306,-21.99189 5.54674,-31.46496 -1.15813,-10.38627 -6.18542,-20.36037 -13.32384,-26.4344 -3.25206,-2.76716 -11.08039,-7.72217 -12.20013,-7.72217 -0.33301,0 -0.60547,-0.23797 -0.60547,-0.52881 0,-0.3373 4.40846,-0.40489 12.17336,-0.1866 16.91417,0.47546 16.07111,0.76332 35.36808,-12.07671 13.54702,-9.01406 17.42877,-11.95797 25.14455,-19.06944 16.22336,-14.95274 22.38171,-32.46164 15.77647,-44.85432 -1.57252,-2.95038 -6.70537,-8.48231 -7.30966,-7.87802 -0.15164,0.15165 -0.0148,1.21552 0.30418,2.36417 1.34795,4.85439 0.24533,11.316 -2.73116,16.00526 -2.07619,3.27092 -6.56853,7.51149 -13.03069,12.3004 -6.61523,4.90237 -11.33809,9.63366 -14.77785,14.80425 -1.49098,2.24125 -2.51093,3.46373 -2.26652,2.71666 0.57914,-1.7703 0.68982,-17.43832 0.2226,-31.51318 -0.45153,-13.60233 -0.86427,-15.0589 -5.63554,-19.88774 -2.39578,-2.42469 -4.19841,-3.69486 -6.56299,-4.62435 -3.10392,-1.22014 -4.05328,-1.29485 -19.83159,-1.56048 l -16.57158,-0.27898 4.73311,-3.12908 c 16.75225,-11.07493 31.01626,-16.18342 45.06701,-16.14021 8.36748,0.0258 12.69453,0.89901 24.99621,5.04472 13.2115,4.4523 18.09883,5.69778 24.90171,6.34597 5.85839,0.55819 12.16254,0.033 17.38975,-1.4487 13.37876,-3.79233 25.1699,-17.84783 28.63179,-34.1302 0.5734,-2.69687 0.74141,-5.87889 0.57425,-10.87558 -0.20265,-6.05743 -0.46701,-7.72712 -1.8562,-11.7247 -3.06557,-8.82147 -10.2761,-17.272891 -18.96262,-22.225941 -7.51074,-4.28262 -15.12132,-5.36665 -23.1898,-3.30308 -8.68563,2.2214 -16.94813,7.93472 -20.67705,14.297631 -4.14474,7.07245 -5.09344,16.53561 -2.33486,23.28971 2.67791,6.55661 7.94552,11.93116 13.56407,13.83942 4.14285,1.40707 10.6695,0.8832 14.41863,-1.15733 4.28134,-2.3302 5.76069,-4.8332 5.74248,-9.71605 -0.0155,-4.15432 -0.74753,-6.08667 -3.2561,-8.59523 -2.87611,-2.87611 -6.6451,-2.39347 -9.70479,1.24276 -0.95496,1.1349 -1.42304,2.3307 -1.42304,3.63538 0,1.90793 -0.0202,1.92589 -1.08361,0.96352 -2.24632,-2.03288 -2.82476,-7.75943 -1.1551,-11.43519 1.92444,-4.23664 6.17424,-6.76915 11.35926,-6.76915 13.73866,0 24.3291,12.95788 21.86402,26.75161 -1.43509,8.03033 -7.74492,16.72032 -14.32956,19.73487 -9.92513,4.54387 -19.91538,3.75275 -37.84492,-2.99693 -9.07278,-3.41549 -13.861,-4.6571 -21.18788,-5.49407 -14.953,-1.70813 -34.31767,2.84776 -44.46088,10.46026 -1.59173,1.19459 -2.99146,2.07458 -3.11051,1.95553 -0.11905,-0.11903 0.98254,-2.6472 2.44794,-5.61811 3.21696,-6.52195 6.79949,-10.7629 23.38106,-27.67824 6.44456,-6.57431 14.1404,-14.52053 17.10183,-17.65825 2.96143,-3.13774 6.86147,-6.89799 8.66674,-8.35612 3.19698,-2.582231 3.23319,-2.640471 1.39288,-2.241081 -3.68516,0.799791 -17.72079,5.869341 -22.76732,8.223361 -25.18283,12.4878 -73.53671,38.85562 -73.48259,69.55767 0.005,4.04936 -3.23378,-20.06913 -1.13562,-28.89202 3.78005,-15.89538 56.93865,-48.681761 67.78623,-54.591421 11.45621,-6.24124 15.36827,-8.74857 19.84807,-12.721038 11.55594,-10.247279 15.88147,-19.525101 15.04314,-32.265915 -0.74539,-11.328004 -5.88323,-20.736517 -14.40325,-26.375449 -4.64329,-3.073153 -8.01429,-4.232848 -13.29229,-4.572811 -9.94262,-0.64043 -19.00173,3.573115 -22.83852,10.622558 -2.13755,3.927367 -3.26562,9.382418 -2.94657,14.24885 0.42435,6.472715 2.53196,10.227301 7.04364,12.547799 1.97645,1.016534 2.67394,0.792974 1.4244,-0.456572 -1.14187,-1.141857 -1.2649,-8.034698 -0.1935,-10.840139 1.78205,-4.666232 6.71765,-8.324001 11.23196,-8.324001 2.31737,0 6.21362,1.62257 8.40934,3.502023 9.97309,8.536601 6.12276,25.920287 -8.24137,37.208624 -4.10996,3.229885 -7.33473,5.129321 -18.3965,10.835801 -21.73472,11.21237 -20.28911,11.77338 -28.50526,17.862981 -14.31805,10.61217 -6.71999,19.93694 -11.08285,11.05289 -2.53424,-5.19737 -2.70797,-6.02158 -7.46662,-8.36514 l -3.52465,-1.73584 -27.99428,-0.27166 -27.99432,-0.27167 2.98833,-3.0225 c 6.46185,-6.535741 13.07902,-8.870681 29.98822,-10.581681 18.53609,-1.87561 31.16424,-7.26867 40.41429,-17.259579 8.60251,-9.291506 13.05016,-19.436453 14.10041,-32.16262 0.57288,-6.941515 1.79089,-11.58813 4.48028,-17.091878 4.98881,-10.209387 15.2997,-17.9279816 29.46291,-22.0555156 2.86957,-0.836257 5.26327,-1.025238 12.76828,-1.007996 8.40995,0.01931 9.65669,0.149919 13.93022,1.459294 6.4452,1.974763 9.97416,3.610049 14.76068,6.8399666 15.2559,10.294563 22.74837,24.435321 21.91692,41.364421 -0.16877,3.436563 -0.68742,7.837548 -1.15253,9.779953 -1.15937,4.841845 -6.23416,14.877337 -9.27292,18.337423 -1.37783,1.568861 -2.41395,2.852481 -2.30248,2.852481 0.11146,0 2.63653,-1.3449 5.61126,-2.988675 7.99938,-4.420254 12.89451,-5.910462 19.26356,-5.864315 8.05645,0.05837 14.86512,1.717348 22.2052,5.410457 8.61462,4.334383 15.33621,8.945523 20.46224,14.037483 11.59519,11.518151 18.43164,29.145301 17.3774,44.806011 -0.78295,11.6309 -2.74187,19.19032 -7.25326,27.99024 -6.46948,12.6194 -16.59541,22.10527 -29.79938,27.91579 -5.67894,2.49907 -12.66892,5.96499 -12.66892,6.28179 0,0.1186 1.25479,-0.11535 2.78841,-0.51993 8.63493,-2.27784 22.63279,-2.39209 30.61385,-0.24986 17.87198,4.79709 30.31152,20.27387 32.90395,40.93783 2.09572,16.70458 -1.63058,33.0565 -10.44028,45.81473 -3.48358,5.04495 -10.72789,12.4866 -15.93112,16.36509 -9.33022,6.95478 -22.11702,11.40727 -31.2737,10.88982 -1.77639,-0.10034 -3.2198,-0.0603 -3.2076,0.089 0.0123,0.14941 1.08848,1.05564 2.39174,2.01382 2.95388,2.17177 8.18822,8.53238 11.94228,14.51189 8.93558,14.23273 10.34424,34.56272 3.66331,52.86893 -2.58552,7.08449 -10.75428,18.60132 -17.16423,24.19918 -3.71439,3.2438 -14.94715,10.26035 -20.69008,12.92406 -11.92665,5.53184 -24.60168,7.52347 -37.4114,5.87846 z m 23.46733,-22.20128 c 8.74003,-2.44947 15.12944,-6.3367 21.58348,-13.13113 4.37839,-4.6093 6.17402,-7.56268 8.35459,-13.74124 2.61994,-7.42349 3.53751,-12.8514 3.49442,-20.67121 -0.0428,-7.77714 -0.92807,-12.1009 -3.97686,-19.42442 -6.63662,-15.94186 -21.42759,-29.16179 -39.95624,-35.7122 -8.22324,-2.90715 -16.28933,-4.35215 -26.35155,-4.72076 -4.93073,-0.18063 -8.8427,-0.20534 -8.69329,-0.0549 0.14941,0.15041 2.70109,1.30433 5.67038,2.56424 15.34202,6.50986 22.24875,10.9324 31.31455,20.05139 9.75838,9.81561 13.98952,17.16409 16.8727,29.30378 0.89591,3.77228 1.08413,6.04866 0.93029,11.25097 -0.17756,6.00492 -0.33122,6.81479 -1.93841,10.21741 -2.30982,4.8901 -6.80543,9.38268 -11.82803,11.82011 -3.48691,1.69217 -4.21015,1.84324 -8.69329,1.81589 -5.61372,-0.0342 -7.78764,-0.78815 -11.23565,-3.89644 -2.38435,-2.14944 -4.77865,-6.55922 -4.78707,-8.81679 -0.005,-1.32128 0.10233,-1.35926 3.93385,-1.39273 4.65008,-0.0406 6.5337,-0.87166 9.2994,-4.10278 4.36817,-5.10322 4.82686,-12.45605 1.23093,-19.73194 -2.59834,-5.25733 -5.29522,-8.03143 -9.00623,-9.26403 -1.54949,-0.51465 -2.92197,-0.83101 -3.04995,-0.703 -0.12801,0.12799 0.25458,1.24133 0.85018,2.4741 2.74799,5.68766 0.35531,10.14361 -8.21877,15.306 -4.67205,2.81302 -8.7575,7.30063 -10.29073,11.30373 -1.68049,4.38756 -2.07565,12.88103 -0.80296,17.25891 3.47869,11.9663 12.6025,20.03753 25.82868,22.84895 4.79839,1.01998 14.26478,0.6057 19.46558,-0.85188 z m 39.92508,-104.38291 c 11.61226,-1.79676 22.43024,-8.67403 28.31948,-18.00341 4.92189,-7.79697 7.13897,-16.58881 7.02221,-27.84678 -0.0917,-8.8404 -1.11352,-13.56808 -4.30042,-19.89643 -6.7155,-13.33521 -22.78539,-19.52725 -37.1855,-14.3283 -15.56612,5.61993 -23.53379,15.47965 -22.67182,28.05555 0.37314,5.44408 2.14322,9.34634 5.97983,13.18294 4.12258,4.12258 6.7544,5.34539 12.14155,5.64121 5.55233,0.30492 7.83168,-0.42268 10.88297,-3.474 2.88037,-2.88035 3.16283,-4.24241 0.7019,-3.38452 -0.91237,0.31805 -3.11311,0.47309 -4.89053,0.34452 -2.64629,-0.19142 -3.53923,-0.52273 -4.92962,-1.82904 -3.66094,-3.43957 -4.88576,-9.97638 -2.6796,-14.30081 1.33292,-2.6127 4.22142,-5.16742 6.91288,-6.11398 3.36426,-1.18318 10.37203,-0.89342 13.35865,0.55239 4.98133,2.41141 9.24217,9.07731 9.9345,15.54205 1.07142,10.00485 -6.03182,22.12733 -15.77575,26.92306 -8.87145,4.36631 -19.22122,3.55073 -32.59986,-2.56893 -12.52891,-5.73098 -21.89553,-8.13761 -29.6586,-7.62036 -3.26919,0.21781 -5.01165,0.69495 -8.42162,2.30606 l -4.29958,2.03141 4.4547,0.90283 c 5.46784,1.10815 12.96403,4.75754 22.44018,10.92463 18.05498,11.7502 30.3434,15.26859 45.26405,12.95991 z"
     id="path24"
     sodipodi:nodetypes="csscssssssssssssssscssssssssscssscsscssscsssscssssssssssscsssssssssssscssssscssssssssssssscssssssssssssscssssssssscscssssssssssssssssssscssssssccsssssssssssssssssssssssscccsssssssscccsccscccccssssscsscsssssssssssssssssscssssssscssssscssssccsssssscssssssscsssssscsssssssssssscssssssscssssssssssscsssssssssssscsssssssscsssssssssssssssssssssssssssssssssssssssssssssssssssscccssssssssssssssssssssscsssssssssssccssssssssssssssssssssssssssssssssssssssssssssssssscsss" /><path
     style="fill:#ffffff;stroke-width:6.15;stroke-linecap:round;stroke-linejoin:round"
     d="m 121.36677,421.64277 c -10.5272,-1.65606 -18.39365,-5.91252 -26.134567,-14.14117 -6.10945,-6.49438 -8.47797,-12.03752 -9.430495,-22.07058 -0.47477,-5.00079 -0.433375,-6.41225 0.2937,-10.01339 3.346085,-16.57295 15.593252,-29.28255 32.287112,-33.50622 6.98989,-1.7685 15.78844,-0.8397 22.41877,2.36658 3.9575,1.91376 9.45198,7.5787 11.61793,11.97837 1.60413,3.25845 1.69753,3.73771 1.69715,8.70872 -3.5e-4,4.62334 -0.15764,5.59361 -1.29858,8.01052 -1.79162,3.79528 -5.4392,7.67604 -8.72653,9.28438 -2.50408,1.22513 -3.11787,1.31769 -7.47432,1.12716 -2.61042,-0.11418 -4.98699,-0.44836 -5.28128,-0.74265 -0.38007,-0.38007 0.30593,-1.10945 2.36838,-2.51812 3.89731,-2.6619 5.88722,-6.25271 5.47107,-9.87261 -1.04039,-9.04992 -12.14717,-13.39928 -21.43875,-8.39531 -3.15933,1.70145 -7.12991,5.97277 -8.66089,9.31687 -5.34684,11.67904 2.73105,27.15888 16.5413,31.69846 5.80153,1.90703 15.1117,1.81031 21.16277,-0.21985 9.52755,-3.19654 18.34661,-9.89809 25.36355,-19.27364 16.21361,-21.66348 25.78126,-50.55275 27.52255,-83.10365 0.38153,-7.13217 0.055,-7.65829 -1.82104,-2.93456 -3.29379,8.29333 -6.81546,13.90449 -12.3864,19.73553 -5.94604,6.22365 -12.07976,9.73671 -20.41472,11.69244 -5.07446,1.19068 -13.31249,0.7588 -17.86634,-0.93664 -4.7097,-1.75348 -8.37638,-4.40448 -10.64215,-7.69428 -1.70236,-2.47176 -1.92347,-3.15219 -2.08891,-6.42854 -0.1556,-3.08123 0.0101,-4.08744 1.0414,-6.32459 2.63096,-5.70709 8.20879,-10.05719 14.92582,-11.64051 4.58948,-1.08182 4.67377,-1.01603 1.95573,1.52637 -3.34028,3.12445 -4.33045,5.75147 -3.48934,9.25762 1.54507,6.44057 8.93663,9.84552 16.81774,7.74714 9.0419,-2.40745 17.08941,-9.28997 21.6428,-18.50971 1.99533,-4.04014 5.52654,-15.75042 5.52654,-18.32722 v -1.36544 l -5.75906,-0.35984 c -10.25201,-0.64057 -31.93911,0.49498 -39.47669,2.06703 -5.29004,1.10331 -13.26524,3.91168 -18.40516,6.48118 -9.67617,4.83721 -16.57944,10.2704 -32.218422,25.35736 -11.321805,10.92218 -15.01537,13.8918 -20.861105,16.77229 -5.917145,2.91567 -10.317742,4.15192 -15.843013,4.45076 -17.951934,0.97094 -36.600819,-12.60197 -41.189799,-29.97849 -1.339069,-5.07048 -0.859668,-15.83894 0.91207,-20.48719 3.773645,-9.90037 11.470354,-16.79456 21.348759,-19.12277 12.245268,-2.88606 24.364074,2.47809 29.592503,13.09854 1.498815,3.04453 1.649475,3.76452 1.64511,7.86196 -0.0043,4.0453 -0.155825,4.78402 -1.469035,7.16229 -0.80533,1.45848 -2.31178,3.41749 -3.34767,4.35335 -1.788601,1.61589 -5.837364,4.00267 -6.190618,3.64942 -0.09087,-0.0909 0.261086,-1.40032 0.78213,-2.90988 3.345076,-9.69132 -2.038765,-18.01721 -11.628943,-17.98368 -1.952189,0.007 -3.898046,0.35574 -5.141059,0.92185 -2.182224,0.99386 -5.206061,4.06497 -6.537511,6.63971 -1.241015,2.39985 -1.474742,7.12948 -0.533822,10.80225 1.833728,7.15774 5.683017,11.76928 12.745293,15.26916 l 4.249711,2.10605 6.788164,-0.025 c 6.191545,-0.0228 7.23422,-0.1647 11.86324,-1.61487 9.878795,-3.0948 15.595535,-6.30999 22.342285,-12.56566 11.688272,-10.83751 23.712282,-26.27332 29.837212,-38.30348 4.46345,-8.76681 4.51786,-9.07703 5.12509,-29.22498 0.33689,-11.17822 0.73518,-17.99375 1.07741,-18.43672 1.86913,-2.41937 3.83652,-4.07932 4.83485,-4.07932 0.71345,0 2.03303,0.92452 3.51686,2.46396 1.90457,1.97596 2.64639,3.28808 3.74548,6.625 1.36437,4.14231 1.37184,4.24248 1.65926,22.25087 0.27644,17.32071 0.33309,18.14979 1.33256,19.5 2.12,2.86397 1.33001,2.79413 34.43207,3.04404 30.30298,0.22878 30.5304,0.23809 31.7147,1.29828 l 1.19284,1.06785 -0.32108,33.75 c -0.24724,25.98815 -0.4816,34.50123 -1.01903,37.0165 -1.16026,5.43018 -4.07981,12.68492 -9.55115,23.7335 -8.42145,17.00588 -14.21296,25.53565 -24.19622,35.6363 -14.30654,14.47477 -23.48113,20.91545 -35.29821,24.77982 -7.1547,2.33969 -17.32273,3.43349 -23.25,2.50105 z"
     id="path25" /><path
     style="fill:#ffffff;stroke-width:6.15;stroke-linecap:round;stroke-linejoin:round"
     d="m 85.680548,256.42047 c -6.001344,-1.40929 -13.039321,-7.19786 -16.06378,-13.21208 -1.465082,-2.91336 -1.499454,-3.15156 -1.476539,-10.23279 0.0212,-6.55212 0.147438,-7.57447 1.311409,-10.62078 2.935118,-7.68169 6.593643,-12.07618 12.66513,-15.21288 5.533941,-2.85899 9.718107,-4.03034 15.86847,-4.44232 5.727092,-0.38364 13.881532,0.0956 13.881532,0.81585 0,0.24755 -2.08125,1.49468 -4.625,2.7714 -9.378942,4.70734 -14.566209,8.58209 -17.574554,13.12774 -4.829733,7.29779 -5.615974,14.84444 -2.146211,20.60017 2.112561,3.50437 4.814664,4.93143 9.345763,4.93575 6.677922,0.006 10.500002,-3.40478 10.500002,-9.37112 v -2.33108 l 1.375,1.375 c 1.2056,1.20559 1.375,1.75861 1.375,4.48863 0,5.60334 -4.45357,12.41949 -10.119592,15.48794 -3.87952,2.10096 -9.87559,2.86345 -14.31663,1.82057 z"
     id="path26" /><path
     style="fill:#ffffff;stroke-width:6.15;stroke-linecap:round;stroke-linejoin:round"
     d="m 46.83786,191.86434 c -14.473091,-5.07701 -24.954726,-20.16235 -24.967589,-35.93376 -0.01217,-14.92222 9.380627,-27.14489 23.846256,-31.03067 5.900712,-1.58506 14.812781,-1.49852 21.215835,0.20601 11.533586,3.07031 20.291511,8.23848 29.470186,17.39076 5.532352,5.51644 8.955852,10.13481 13.698042,18.47892 2.10992,3.7125 6.06536,9.69112 8.78986,13.28581 5.03255,6.63991 7.44997,10.94054 6.61765,11.77286 -0.52788,0.52788 -4.703,-0.81297 -8.46086,-2.71722 -4.09579,-2.07549 -9.0253,-6.05192 -19.964802,-16.10477 -11.99921,-11.02668 -18.029095,-15.97259 -23.21567,-19.04226 -4.119718,-2.43825 -9.739065,-4.41449 -14,-4.92361 -3.459516,-0.41335 -9.796167,0.76749 -13.289147,2.47644 -3.288266,1.6088 -7.897931,6.44839 -9.522995,9.998 -1.173249,2.56271 -1.258282,3.22795 -1.104485,8.64061 0.144866,5.09832 0.340344,6.23471 1.49683,8.70171 2.742621,5.85052 8.249702,9.88725 12.55042,9.19954 2.315756,-0.37031 5.274309,-1.79912 6.475308,-3.12721 0.743431,-0.8221 2.394069,-4.1794 2.394069,-4.8694 0,-0.13288 -0.95625,0.19245 -2.125,0.72296 -3.020565,1.37109 -5.905313,1.2865 -7.531767,-0.22085 -1.731299,-1.60451 -2.074603,-3.24392 -1.329612,-6.34939 1.624213,-6.77048 9.918623,-9.49172 17.068972,-5.60001 8.752432,4.76367 9.951937,18.42788 2.241578,25.53504 -4.586946,4.2281 -13.784875,5.81455 -20.353079,3.51049 z"
     id="path27" /><path
     style="fill:#ffffff;stroke-width:3.075;stroke-linecap:round;stroke-linejoin:round"
     d="m 427.46863,299.84674 c -6.69291,-0.91357 -13.78848,-3.43742 -21.51754,-7.65366 -2.96083,-1.61514 -5.10451,-2.90962 -11.94131,-7.21081 -4.79194,-3.01472 -11.63348,-6.58532 -15.01801,-7.8379 -1.30625,-0.48343 -3.82718,-1.19601 -5.60207,-1.58352 l -3.22708,-0.70455 2.82182,-1.32794 c 4.78874,-2.25357 6.09527,-2.60307 10.25733,-2.74388 4.12675,-0.13961 6.726,0.13761 11.14058,1.18819 3.9853,0.94842 8.31476,2.42806 13.35942,4.56571 13.98486,5.92603 17.67091,6.97687 24.625,7.02024 5.05183,0.0315 8.60874,-0.79178 12.87723,-2.98058 9.51134,-4.87722 16.46597,-17.17414 15.2495,-26.96355 -0.57575,-4.63321 -2.89231,-9.33035 -6.23332,-12.63889 -2.19209,-2.17078 -3.91848,-3.11147 -6.67995,-3.63983 -2.17647,-0.41643 -6.90758,-0.47451 -8.86684,-0.10885 -4.19604,0.78311 -8.2862,4.55681 -9.33603,8.61371 -1.34437,5.19507 1.25483,11.88398 5.32533,13.70441 0.96576,0.43192 1.67519,0.52195 4.16408,0.52847 1.65,0.004 3.44661,-0.1262 3.99247,-0.29005 0.62114,-0.18645 1.08062,-0.20977 1.22805,-0.0623 0.33654,0.33654 -0.88664,2.00724 -2.69606,3.68244 -2.84534,2.63428 -5.65489,3.37592 -10.963,2.89391 -5.0161,-0.4555 -7.25292,-1.56152 -11.20218,-5.53904 -3.84668,-3.8742 -5.43303,-7.1487 -5.99297,-12.37047 -0.46681,-4.35326 0.3512,-9.11829 2.19521,-12.78736 3.38887,-6.74293 11.2669,-12.78175 20.86157,-15.99123 9.16769,-3.06664 19.00634,-1.73348 27.03791,3.66372 2.21218,1.48658 6.1374,5.49975 7.64467,7.81596 2.55387,3.92452 4.59668,9.08792 5.39506,13.63655 0.55817,3.18006 0.78064,12.18754 0.39827,16.125 -1.57702,16.23905 -9.32478,28.09689 -22.69389,34.73267 -3.21897,1.59774 -5.57462,2.46319 -8.95511,3.29003 -5.23849,1.2813 -12.47035,1.6802 -17.64814,0.97344 z"
     id="path29" /><path
     style="fill:#ffffff;stroke-width:3.075;stroke-linecap:round;stroke-linejoin:round"
     d="m 385.601,405.23123 c -5.34504,-0.47146 -11.62129,-2.73544 -16.43568,-5.92872 -2.36432,-1.5682 -5.63912,-4.71396 -7.48388,-7.18897 -1.7898,-2.40128 -3.92592,-6.70085 -4.85044,-9.76294 -0.63369,-2.09883 -0.68012,-2.56912 -0.69105,-7 -0.0213,-8.64083 1.28922,-12.27162 6.22682,-17.25129 1.89286,-1.90898 3.40836,-3.12173 6.24031,-4.99367 6.15928,-4.07134 8.41106,-6.88999 8.40566,-10.52174 -0.003,-1.90771 -0.13587,-2.4765 -1.12799,-4.82289 -0.36967,-0.87428 -0.6057,-1.65602 -0.52452,-1.7372 0.25195,-0.25196 2.42308,0.42145 4.28644,1.3295 3.07334,1.4977 6.16643,5.39093 8.08027,10.17051 1.10407,2.75728 1.56945,5.01218 1.58955,7.70178 0.0317,4.24816 -1.25985,7.55909 -4.16034,10.66492 -2.65843,2.84661 -4.59881,3.579 -9.49332,3.58319 -2.56253,0.002 -3.17106,0.23542 -3.17106,1.21531 0,2.8289 2.77067,7.57141 5.84823,10.01034 3.09202,2.45038 5.09864,3.0185 10.65177,3.01579 4.31659,-0.002 5.17336,-0.17154 8.14641,-1.61098 5.45721,-2.64219 9.8292,-7.05639 12.37989,-12.49943 1.48895,-3.17733 1.5987,-3.9585 1.5987,-11.37914 v -6.625 l -0.92018,-3.625 c -3.11988,-12.29058 -7.19074,-19.22109 -17.12809,-29.16 -8.68376,-8.68513 -15.09655,-12.80879 -30.07673,-19.34043 -3.23125,-1.40888 -5.93125,-2.61914 -6,-2.68946 -0.25035,-0.25607 11.9705,0.18654 15.375,0.55684 18.80806,2.04573 34.65206,9.47025 46.76244,21.91294 4.70295,4.83201 8.04198,9.52359 10.74329,15.09511 3.6551,7.53875 4.97025,12.60915 5.28485,20.375 0.2927,7.22527 -0.64523,13.888 -2.92508,20.77871 -2.53699,7.66793 -4.67999,11.1798 -10.14105,16.61877 -5.86407,5.84036 -12.32654,9.63548 -19.97574,11.73085 -4.3248,1.18471 -11.71256,1.80084 -16.51448,1.3773 z"
     id="path30" /><path
     style="fill:#ffffff;stroke-width:3.075;stroke-linecap:round;stroke-linejoin:round"
     d="m 295.35714,385.43796 c -0.95121,-1.90366 -5.55807,-6.37827 -8.86537,-8.61087 -1.44375,-0.97461 -3.89362,-2.42734 -5.44416,-3.2283 l -2.81917,-1.45628 3.69417,-1.91094 c 10.75058,-5.56111 16.00388,-10.33411 21.29261,-19.34586 1.67222,-2.84939 3.75794,-7.03986 4.65337,-9.34917 2.32589,-5.99846 -0.38058,4.98696 -3.62997,14.7339 -0.81041,2.43091 -2.30996,6.53716 -3.33235,9.125 -3.60462,9.12394 -3.91778,10.35263 -4.4151,17.3226 -0.15177,2.12709 -0.31866,3.91016 -0.37087,3.96236 -0.0522,0.0522 -0.39562,-0.50689 -0.76316,-1.24244 z"
     id="path31" /></svg>
