<?xml version="1.0" encoding="UTF-8" standalone="no"?>
<!-- Created with Inkscape (http://www.inkscape.org/) -->

<svg
   width="505.08896"
   height="505.75937"
   viewBox="0 0 505.08896 505.75937"
   version="1.1"
   id="svg1"
   xml:space="preserve"
   sodipodi:docname="Template.svg"
   inkscape:version="1.4 (86a8ad7, 2024-10-11)"
   inkscape:export-filename="..\magic\Mage_ManaBall.svg"
   inkscape:export-xdpi="96"
   inkscape:export-ydpi="96"
   xmlns:inkscape="http://www.inkscape.org/namespaces/inkscape"
   xmlns:sodipodi="http://sodipodi.sourceforge.net/DTD/sodipodi-0.dtd"
   xmlns="http://www.w3.org/2000/svg"
   xmlns:svg="http://www.w3.org/2000/svg"><sodipodi:namedview
     id="namedview1"
     pagecolor="#ffffff"
     bordercolor="#000000"
     borderopacity="0.25"
     inkscape:showpageshadow="2"
     inkscape:pageopacity="0.0"
     inkscape:pagecheckerboard="true"
     inkscape:deskcolor="#d1d1d1"
     inkscape:zoom="1.6959064"
     inkscape:cx="131.19828"
     inkscape:cy="318.11897"
     inkscape:window-width="2560"
     inkscape:window-height="1494"
     inkscape:window-x="585"
     inkscape:window-y="2149"
     inkscape:window-maximized="1"
     inkscape:current-layer="svg1"><inkscape:page
       x="0"
       y="0"
       width="505.08896"
       height="505.75937"
       id="page2"
       margin="0"
       bleed="0" /></sodipodi:namedview><defs
     id="defs1"><inkscape:path-effect
       effect="bspline"
       id="path-effect66"
       is_visible="true"
       lpeversion="1.3"
       weight="33.333333"
       steps="2"
       helper_size="0"
       apply_no_weight="true"
       apply_with_weight="true"
       only_selected="false"
       uniform="false" /><inkscape:path-effect
       effect="bspline"
       id="path-effect65"
       is_visible="true"
       lpeversion="1.3"
       weight="33.333333"
       steps="2"
       helper_size="0"
       apply_no_weight="true"
       apply_with_weight="true"
       only_selected="false"
       uniform="false" /></defs><path
     style="fill:#ffffff;stroke:none;stroke-width:13.25;stroke-linecap:round;stroke-linejoin:round;stroke-dasharray:none"
     d="m 383.25,475.75 c -3.91667,-6.91667 -7.08333,-20.08334 -11.41672,-30.50008 C 367.49989,434.83318 362,427.16667 357.16663,418.08323 352.33325,408.99979 348.16667,398.5 345.41665,388.74991 342.66664,378.99982 341.33333,370 338.91663,361.33325 336.49993,352.6665 333,344.33333 328.58328,334.83323 324.16656,325.33312 318.83333,314.66667 316,304.66657 c -2.83334,-10.00009 -3.16667,-19.33324 -1.41663,-24.49992 1.75004,-5.16667 5.5833,-6.16665 11.25004,-6.74999 5.66674,-0.58333 13.16659,-0.74999 18.66662,1.83339 5.50004,2.58339 8.99997,7.91662 12.50001,14.33336 3.50003,6.41674 6.99996,13.91659 11.16667,21.58333 4.16672,7.66675 8.99996,15.49993 13.08332,19.74994 4.08337,4.25 7.41664,4.91665 10.5,3.58329 3.08336,-1.33337 5.91664,-4.66664 9,-9.33337 3.08337,-4.66672 6.41664,-10.6666 8.0833,-16.16665 1.66667,-5.50005 1.66667,-10.49995 1.5,-17.33337 -0.16667,-6.83342 -0.5,-15.49991 -0.83333,-24.16667 -0.33334,-8.66675 -0.66667,-17.33324 -2.00002,-26.08333 -1.33336,-8.75009 -3.66665,-17.58325 -4.24997,-24.41663 -0.58332,-6.83338 0.58332,-11.66662 2.16668,-14.58329 1.58335,-2.91668 3.58331,-3.91666 5.08332,-4.66667 1.50001,-0.75 2.49999,-1.24999 2.91665,-4.66672 0.41667,-3.41673 0.25001,-9.74994 1.58337,-13.99996 1.33336,-4.25002 4.16664,-6.41664 8.08335,-7.16664 3.91672,-0.74999 8.91662,-0.0833 12.83331,2.50004 3.9167,2.58338 6.74998,7.08329 8.16664,10.74999 1.41667,3.66669 1.41667,6.49997 4.08339,7.49996 2.66672,0.99999 7.99994,0.16667 11.24996,1.1667 3.25001,1.00003 4.41665,3.83331 7.83338,10.91675 3.41672,7.08345 9.08327,18.41656 13.16663,29.16666 4.08336,10.7501 6.58331,20.91656 6.83329,32.58336 0.24998,11.6668 -1.74998,24.8332 -3.75,37.91667 -2.00002,13.08346 -3.99998,26.0832 -6.50001,37.91664 -2.50003,11.83344 -5.49997,22.49989 -8.08332,33.33334 -2.58336,10.83344 -4.74998,21.83322 -6.16666,28.08324 -1.41667,6.25001 -2.08332,7.74998 -1.58331,14.83344 0.50002,7.08346 2.16665,19.74987 4.25001,30.08328 2.08336,10.33342 4.58331,18.33326 5.99998,23.58328 1.41667,5.25003 1.75,7.74998 -10.91693,9.24998 -12.66692,1.50001 -38.33307,2 -53.49979,1.91666 -15.16671,-0.0833 -19.83328,-0.74999 -23.74995,-7.66666 z"
     id="path65"
     inkscape:path-effect="#path-effect66"
     inkscape:original-d="m 382.5,482 c -3.16667,-13.16667 -6.33333,-26.33334 -9.5,-39.5 -5.50011,-7.66682 -11,-15.33333 -16.5,-23 -4.16675,-10.50021 -8.33333,-21 -12.5,-31.5 -1.33336,-9.00018 -2.66667,-18 -4,-27 -3.50007,-8.3335 -7,-16.66667 -10.5,-25 -5.33344,-10.66688 -10.66667,-21.33333 -16,-32 -0.33334,-9.33352 -0.66667,-18.66667 -1,-28 3.83341,-1.00002 7.66667,-2 11.5,-3 7.50015,-0.16667 15,-0.33333 22.5,-0.5 3.50007,5.33344 7,10.66667 10.5,16 3.50007,7.50015 7,15 10.5,22.5 4.83343,7.83349 9.66667,15.66667 14.5,23.5 3.3334,0.66668 6.66667,1.33333 10,2 2.83339,-3.3334 5.66667,-6.66667 8.5,-10 3.3334,-6.00012 6.66667,-12 10,-18 0,-5.0001 0,-10 0,-15 -0.33334,-8.66684 -0.66667,-17.33333 -1,-26 -0.33334,-8.66684 -0.66667,-17.33333 -1,-26 -2.33338,-8.83351 -4.66667,-17.66667 -7,-26.5 1.16669,-4.83343 2.33333,-9.66667 3.5,-14.5 2.00004,-1.00002 4,-2 6,-3 1.00002,-0.50001 2,-1 3,-1.5 -0.16667,-6.33346 -0.33333,-12.66667 -0.5,-19 2.83339,-2.16671 5.66667,-4.33333 8.5,-6.5 5.0001,0.66668 10,1.33333 15,2 2.83339,4.50009 5.66667,9 8.5,13.5 0,2.83339 0,5.66667 0,8.5 5.33344,-0.83335 10.66666,-1.66667 16,-2.5 1.16669,2.83339 2.33333,5.66667 3.5,8.5 5.66678,11.33356 11.33333,22.66667 17,34 2.50005,10.16687 5,20.33333 7.5,30.5 -2.00004,13.16693 -4,26.33333 -6,39.5 -2.00004,13.00026 -4,26 -6,39 -3.00006,10.66688 -6,21.33333 -9,32 -2.16671,11.00022 -4.33334,22 -6.5,33 -0.66668,1.50003 -1.33334,3 -2,4.5 1.6667,12.66692 3.33333,25.33333 5,38 2.50005,8.00016 5,16 7.5,24 0.33334,2.50005 0.66666,5 1,7.5 -25.66718,0.50001 -51.33333,1 -77,1.5 -4.66676,-0.66668 -9.33333,-1.33334 -14,-2 z" /><path
     style="fill:#ffffff;stroke:none;stroke-width:13.25;stroke-linecap:round;stroke-linejoin:round;stroke-dasharray:none"
     d="M 159.91667,72.833334 C 147,75 147,75 147,75 129.5,79.333333 112,83.666667 96.833205,89.250068 81.66641,94.83347 68.833332,101.66667 60.749966,107.25004 52.6666,112.83342 49.333332,117.16667 48.166676,141.75045 47.00002,166.33423 48,211.16667 52.33341,245.08356 56.66682,279.00046 64.333333,302 75.583482,326.58359 c 11.250148,24.5836 26.083188,50.74974 43.000038,71.66657 16.91686,20.91682 35.91648,36.58317 50.58325,47.66657 14.66677,11.0834 24.9999,17.58327 39.75009,14.58315 C 223.66705,457.49975 242.83333,445 260.16682,431.49986 277.50031,417.99971 293,403.5 302.25003,392.41659 311.50006,381.33318 314.5,373.66667 312.16659,363.66654 309.83318,353.66642 302.16667,341.33333 298.25,332.91662 294.33333,324.49991 294.16667,320 288.33322,314.24993 282.49977,308.49986 271,301.5 265,292.49989 258.99999,283.49978 258.5,272.5 258.5,263.4166 c 10e-6,-9.08341 0.5,-16.24993 4.00006,-26.5834 C 266.00013,226.49973 272.5,213 278.50005,199.33319 284.50011,185.66639 290,171.83333 298.08344,160.24991 c 8.08344,-11.58343 18.74989,-20.91658 24.74991,-28.83331 6.00001,-7.91673 7.33332,-14.4166 1.83319,-22.50003 C 319.16642,100.83314 306.83333,91.166665 288.99977,83.083267 271.1662,74.99987 247.83333,68.499999 223.24974,67.41671 c -24.58359,-1.08329 -50.41641,3.249957 -63.33307,5.416624 z"
     id="path64"
     inkscape:path-effect="#path-effect65"
     inkscape:original-d="m 147,75 c 0,0 0,0 0,0 0,0 -35,8.666666 -52.5,13 -12.83359,6.83347 -25.666667,13.66667 -38.5,20.5 -3.3334,4.33342 -6.666667,8.66667 -10,13 1.00002,44.83423 2,89.66667 3,134.5 7.66682,23.00046 15.333333,46 23,69 14.83363,26.16719 29.66667,52.33333 44.5,78.5 19.00038,15.66698 38,31.33333 57,47 10.33354,6.50013 20.66667,13 31,19.5 19.16705,-12.50025 38.33333,-25 57.5,-37.5 15.50031,-14.50029 31,-29 46.5,-43.5 3.00006,-7.66682 6,-15.33333 9,-23 -7.66682,-12.33358 -15.33333,-24.66667 -23,-37 -0.16667,-4.50009 -0.33333,-9 -0.5,-13.5 -11.50023,-7.00014 -23,-14 -34.5,-21 -0.50001,-11.00022 -1,-22 -1.5,-33 0.50001,-7.16681 1,-14.33333 1.5,-21.5 6.50013,-13.50027 13,-27 19.5,-40.5 5.50011,-13.83361 11,-27.66667 16.5,-41.5 10.66688,-9.33352 21.33333,-18.66667 32,-28 1.33336,-6.50013 2.66667,-13 4,-19.5 -12.33358,-9.66686 -24.66667,-19.333334 -37,-29 -23.3338,-6.50013 -46.66667,-13 -70,-19.5 -25.83385,4.33342 -51.66667,8.666666 -77.5,13 z" /><path
     style="fill:#000000;stroke-width:0.53878"
     d="M 195.01805,472.17305 C 166.83221,457.76919 146.18893,442.91982 125.22446,421.9683 109.73517,406.48857 101.31659,396.25886 89.962716,379.12052 66.111482,343.11778 52.743532,304.69043 45.542176,251.42975 c -4.05041,-29.95652 -6.120617,-80.092 -4.967383,-120.29817 l 0.644748,-22.47842 1.739503,-1.50141 c 2.346359,-2.0252 14.606677,-10.337068 20.596789,-13.963558 7.890629,-4.77709 20.495681,-11.46433 28.285928,-15.00627 48.753689,-22.16652 94.743239,-29.94592 139.813299,-23.65025 35.88904,5.0132 69.55366,18.24747 94.17129,37.02072 6.9576,5.30582 13.01197,11.980538 15.75577,17.370158 7.35608,14.4495 -3.11735,32.11075 -28.59267,48.21558 -7.98225,5.04616 -13.0474,8.81001 -15.4497,11.48044 -3.25932,3.6231 -5.52965,8.91158 -8.25761,19.23519 -3.01083,11.3941 -5.94904,16.7971 -10.24235,18.83441 -1.96715,0.93347 -4.55175,0.77548 -4.55175,-0.27824 0,-0.30249 0.46969,-1.47064 1.04375,-2.59589 0.57405,-1.12525 1.44971,-4.20684 1.94588,-6.84797 0.78671,-4.18764 0.81633,-5.52592 0.23142,-10.45926 -0.94378,-7.96035 -0.87813,-14.76278 0.17682,-18.3185 2.60075,-8.7659 10.653,-17.37179 25.69623,-27.46296 14.59397,-9.7898 18.98816,-14.46057 19.76355,-21.00751 0.97966,-8.2717 -9.89228,-18.30223 -31.6167,-29.169798 -19.99715,-10.00351 -40.91186,-16.0479 -66.26989,-19.15212 -10.77668,-1.31922 -33.21448,-1.31661 -44.44932,0.005 -40.61404,4.77833 -79.41907,18.55312 -115.164134,40.880328 l -6.869439,4.29082 -0.05236,2.7752 c -0.02879,1.52616 -0.351166,9.19994 -0.716383,17.05265 -2.753632,59.20727 1.555528,112.70861 12.389258,153.82157 14.537986,55.17026 40.080638,96.70295 81.857738,133.10179 13.48404,11.74814 28.35461,21.73389 45.81177,30.76309 l 8.63597,4.4667 5.91108,-2.86065 c 40.42825,-19.56513 81.4956,-57.87356 98.53439,-91.91483 3.07554,-6.14453 3.60717,-6.92249 3.9912,-5.84053 0.24367,0.68652 1.61644,6.36217 3.0506,12.61255 l 2.60755,11.36433 -4.10811,6.22126 c -16.10437,24.38823 -39.56746,47.12326 -67.9929,65.88311 -11.46325,7.56536 -40.18464,23.9913 -41.8812,23.95211 -0.37531,-0.009 -5.77385,-2.61766 -11.99676,-5.79776 z m 191.55098,-1.05592 c -1.85075,-7.11699 -6.01992,-19.58404 -8.87367,-26.5349 -3.08774,-7.52077 -6.29487,-13.01353 -11.24613,-19.26095 -11.27613,-14.22803 -14.78885,-22.98442 -20.29283,-50.58527 -3.7462,-18.7861 -6.79861,-27.70469 -19.42869,-56.76698 -8.67837,-19.96926 -9.73336,-22.81745 -10.05494,-27.14558 -0.39723,-5.34648 0.46726,-8.14885 3.37697,-10.9469 5.83046,-5.60671 19.1605,-5.30792 25.15534,0.56386 1.41675,1.38767 3.70552,4.90659 6.01229,9.24373 2.04858,3.85171 5.41499,9.91251 7.4809,13.46845 2.06592,3.55595 6.05953,10.9507 8.8747,16.43278 7.21443,14.04893 11.09522,19.17267 16.14063,21.31018 5.85906,2.48222 11.13893,0.15694 20.11359,-8.85815 18.89998,-18.98511 31.19731,-50.61542 29.97735,-77.10558 -0.45446,-9.86804 -2.01517,-16.77689 -7.7116,-34.1371 -8.98248,-27.37461 -10.11249,-35.05927 -6.01425,-40.90015 1.57637,-2.24669 5.00156,-3.80214 7.60391,-3.45309 5.92982,0.79536 7.85576,4.65134 19.2898,38.62065 11.62169,34.52682 12.62364,39.08417 12.14137,55.22491 -0.16822,5.63025 -0.58916,14.4797 -0.9354,19.66545 -0.70218,10.51672 -0.43666,22.35984 0.54232,24.18908 0.8048,1.5038 2.24788,1.27413 3.07472,-0.48936 0.66598,-1.4204 3.3875,-22.56641 4.79733,-37.27487 1.60097,-16.70259 -0.27048,-27.36548 -8.40015,-47.86108 -7.87011,-19.84121 -9.24477,-27.61049 -5.31905,-30.06215 2.4838,-1.55116 4.11445,0.2466 7.48941,8.25694 1.2485,2.96329 4.52624,10.47926 7.28385,16.70217 11.99047,27.05799 14.76342,36.39604 14.07924,47.4126 -0.66314,10.67785 -7.21225,56.89659 -9.84837,69.50257 -0.74362,3.55594 -5.01673,21.0124 -9.49582,38.79213 l -8.14379,32.32677 -0.008,8.88986 c -0.007,7.84231 0.15955,9.5565 1.41599,14.54705 0.78335,3.11145 3.26838,13.17316 5.52229,22.35936 2.25391,9.18619 4.22432,17.12645 4.37869,17.64503 0.26549,0.89187 -1.82951,0.94286 -38.73555,0.94286 H 387.79497 Z M 196.27365,423.10396 C 162.48635,405.80694 134.3741,376.78568 115.84449,340.07412 107.69896,323.93589 102.39788,309.82379 97.812468,292.07072 91.762265,268.6465 87.866336,239.38355 86.452799,206.74635 85.938477,194.87117 85.859345,154.66513 86.323732,141.1686 l 0.197429,-5.7379 2.794995,-1.85328 c 8.120853,-5.3847 25.608834,-13.91049 38.440204,-18.74049 14.71856,-5.54038 33.4507,-10.19602 48.94319,-12.16422 19.19854,-2.43902 46.02416,-0.23274 62.74931,5.16084 9.28927,2.99564 8.3376,3.15611 -9.41014,1.58677 -13.22349,-1.16929 -34.54189,0.22709 -50.91467,3.33496 -14.76465,2.80262 -32.45999,8.06353 -48.78001,14.50251 -9.00594,3.55326 -30.415623,14.03413 -31.61153,15.47509 -0.975471,1.17535 -0.977928,57.96352 -0.0032,71.25169 4.92442,67.12474 19.12976,111.56433 47.79206,149.51134 11.51211,15.24129 25.50558,29.97586 39.67886,41.78028 6.2666,5.21923 15.71551,12.13148 20.47935,14.98146 l 1.96363,1.17474 8.54258,-6.41039 c 28.3943,-21.30722 51.3747,-47.87556 65.80381,-76.07777 3.78357,-7.39513 7.77479,-17.3619 9.04432,-22.58523 0.50501,-2.07777 1.18848,-3.77686 1.51882,-3.77575 1.46556,0.005 4.05157,2.24605 5.10671,4.42568 2.58761,5.34529 0.80702,12.74466 -6.71365,27.89908 -4.75348,9.57844 -10.90627,19.22049 -17.72057,27.76999 -5.78126,7.25342 -22.88977,24.30638 -30.17836,30.08039 -12.32355,9.7627 -34.16807,23.33218 -38.42055,23.86626 -1.66576,0.20921 -3.18147,-0.36135 -9.3528,-3.52069 z M 413.49519,299.38713 c -10e-4,-2.66366 0.38906,-10.54331 0.86705,-17.51033 0.95822,-13.96687 0.76621,-26.41555 -0.52364,-33.94911 -0.43126,-2.5188 -1.93455,-9.6711 -3.34065,-15.894 -2.19675,-9.72203 -2.56396,-12.18637 -2.60925,-17.51034 -0.0475,-5.5802 0.0704,-6.39399 1.18629,-8.18857 0.68146,-1.09594 1.70271,-2.13978 2.26947,-2.31966 2.16338,-0.68663 2.98809,0.54919 5.10582,7.65114 1.1313,3.79386 3.24293,10.65593 4.6925,15.24902 1.44958,4.5931 3.21929,10.65437 3.93267,13.46949 2.62014,10.33946 3.01708,22.47635 1.05276,32.18908 -1.66616,8.2384 -7.40835,23.09046 -11.56004,29.89977 l -1.07097,1.75653 z m -155.76728,-7.41598 c -1.21888,-6.25279 -4.24025,-12.32965 -7.99902,-16.08842 -3.77496,-3.77496 -6.12583,-4.98794 -13.40372,-6.91593 -3.16122,-0.83744 -5.38399,-1.63799 -4.9395,-1.77899 0.4445,-0.141 2.62655,-0.8006 4.84902,-1.46577 8.76418,-2.62311 13.7396,-6.66206 17.35694,-14.09006 1.78513,-3.66568 2.49868,-5.741 4.23753,-12.32477 l 0.64035,-2.42451 1.26946,5.11314 c 1.62549,6.54722 4.86308,13.28277 7.99309,16.629 3.50547,3.74763 9.0348,6.4585 17.26218,8.46313 1.45034,0.35338 1.19006,0.49456 -2.53428,1.37469 -12.16293,2.87429 -18.48761,9.49308 -22.02417,23.04832 -0.70411,2.69878 -1.40655,4.90607 -1.56097,4.9051 -0.15443,-0.001 -0.67054,-2.00119 -1.14691,-4.44493 z m 43.69911,-30.48442 c 0,-2.03186 3.05107,-6.92312 6.43204,-10.3114 5.90111,-5.91388 10.76278,-7.67443 23.75517,-8.60242 14.64843,-1.04629 19.23403,-3.46099 26.60853,-14.01164 5.78172,-8.27187 9.51502,-11.35968 14.74562,-12.19608 2.32796,-0.37226 4.42656,0.41537 4.42656,1.66134 0,0.42426 -1.52579,2.46547 -3.39065,4.53602 -1.95758,2.17351 -5.13376,6.79232 -7.51485,10.92813 -8.76038,15.21622 -12.10873,19.34167 -17.89148,22.04383 -4.44683,2.07791 -9.00899,2.41391 -18.18577,1.33933 -4.06035,-0.47545 -8.6766,-0.86446 -10.25831,-0.86446 -4.64808,0 -13.00421,2.54939 -16.8007,5.12575 -1.71201,1.1618 -1.92616,1.20089 -1.92616,0.3516 z m -15.8042,-25.2326 c -1.25038,-1.25038 0.96339,-7.65006 3.95587,-11.43583 5.03039,-6.36393 8.77724,-9.0601 20.4688,-14.72904 4.5931,-2.22708 9.84642,-5.17664 11.67404,-6.55459 7.23512,-5.45497 13.958,-13.88118 19.81881,-24.84016 1.42627,-2.66696 3.3349,-5.94005 4.24139,-7.27352 8.32022,-12.23935 21.82655,-20.13404 39.15613,-22.88744 3.11145,-0.49436 7.96046,-1.27002 10.77559,-1.72369 17.28851,-2.78612 29.318,-10.70126 35.94381,-23.65023 1.50485,-2.94097 3.39891,-7.22621 4.20902,-9.52276 0.81011,-2.29654 1.63903,-4.17554 1.84205,-4.17554 0.54384,0 2.06421,3.38761 2.4548,5.46969 0.18643,0.99372 -0.0184,3.52048 -0.45509,5.615 -2.17477,10.43031 -11.2832,23.47801 -21.5502,30.8704 -7.50472,5.4035 -12.722,7.69793 -24.8554,10.93078 -10.53292,2.80643 -15.61929,4.80958 -20.49811,8.07274 -5.25264,3.51318 -8.43088,7.13535 -14.82437,16.89504 -10.48092,15.99917 -13.73111,19.98406 -20.57516,25.22619 -5.78467,4.43069 -11.99932,7.11403 -22.71554,9.808 -14.24126,3.58014 -17.99133,5.27512 -24.01985,10.8566 -3.6075,3.34 -4.32285,3.7721 -5.04659,3.04836 z M 389.64548,125.08594 c -0.13839,-0.44449 -0.77872,-2.74777 -1.42297,-5.1184 -0.64424,-2.37064 -2.40807,-6.82173 -3.91961,-9.89134 -4.72278,-9.59089 -11.40291,-15.242078 -22.34265,-18.901218 -2.71067,-0.90667 -5.37763,-1.64984 -5.92657,-1.6515 -0.54895,-0.002 -1.96789,-0.27347 -3.15321,-0.60403 l -2.15512,-0.60103 5.3878,-1.51671 c 15.47237,-4.35561 23.04867,-9.41916 27.86312,-18.62206 1.88119,-3.59592 4.85409,-12.39497 5.57561,-16.50243 0.1952,-1.11123 0.50977,-2.02019 0.69904,-2.01992 0.18927,2.7e-4 1.02202,2.59141 1.85056,5.75807 3.33562,12.74865 8.4603,20.66246 16.39612,25.31982 2.99492,1.75764 11.02733,4.5972 17.25281,6.09907 2.74104,0.66126 4.98371,1.36107 4.98371,1.55513 0,0.19406 -2.65848,1.00271 -5.90774,1.79699 -11.74118,2.87014 -19.42148,7.00088 -24.52839,13.192228 -3.80701,4.61541 -5.83275,8.55027 -8.32628,16.17319 -1.14104,3.48827 -2.18785,5.97863 -2.32623,5.53414 z"
     id="path54" /></svg>
