<?xml version="1.0" encoding="UTF-8" standalone="no"?>
<!-- Created with Inkscape (http://www.inkscape.org/) -->

<svg
   width="462.62344"
   height="495.42816"
   viewBox="0 0 462.62344 495.42816"
   version="1.1"
   id="svg1"
   xml:space="preserve"
   sodipodi:docname="Template.svg"
   inkscape:version="1.4 (86a8ad7, 2024-10-11)"
   inkscape:export-filename="Suit-case.svg"
   inkscape:export-xdpi="96"
   inkscape:export-ydpi="96"
   xmlns:inkscape="http://www.inkscape.org/namespaces/inkscape"
   xmlns:sodipodi="http://sodipodi.sourceforge.net/DTD/sodipodi-0.dtd"
   xmlns="http://www.w3.org/2000/svg"
   xmlns:svg="http://www.w3.org/2000/svg"><sodipodi:namedview
     id="namedview1"
     pagecolor="#ffffff"
     bordercolor="#000000"
     borderopacity="0.25"
     inkscape:showpageshadow="2"
     inkscape:pageopacity="0.0"
     inkscape:pagecheckerboard="true"
     inkscape:deskcolor="#d1d1d1"
     inkscape:zoom="2"
     inkscape:cx="188.25"
     inkscape:cy="300.75"
     inkscape:window-width="2560"
     inkscape:window-height="1494"
     inkscape:window-x="585"
     inkscape:window-y="2149"
     inkscape:window-maximized="1"
     inkscape:current-layer="svg1"><inkscape:page
       x="0"
       y="0"
       width="462.62344"
       height="495.42816"
       id="page2"
       margin="0"
       bleed="0" /></sodipodi:namedview><defs
     id="defs1" /><ellipse
     style="fill:#ffffff;stroke-width:11.5624;stroke-linecap:round;stroke-linejoin:round"
     id="path24"
     cx="232.92261"
     cy="473.82608"
     rx="183.14606"
     ry="21.602087" /><path
     style="fill:#000000;stroke-width:0.584948"
     d="m 185.71719,486.83852 c -2.25205,-0.1045 -11.59659,-0.47232 -20.76564,-0.81749 -32.4959,-1.22329 -64.07535,-3.99549 -80.349251,-7.05343 -12.415859,-2.33301 -18.608519,-5.03851 -16.725624,-7.30728 2.654469,-3.19844 15.226734,-6.12735 38.580145,-8.98785 49.44411,-6.05628 141.26909,-7.64078 205.90146,-3.55297 44.96547,2.84394 77.50934,8.69729 75.88284,13.64831 -1.37793,4.19436 -28.27423,8.91002 -65.64625,11.50958 -29.39251,2.0445 -42.98594,2.44969 -87.15716,2.59792 -25.09424,0.0842 -47.46848,0.0676 -49.72052,-0.0368 z m -25.44522,-41.13466 c -3.05634,-0.59124 -7.08942,-1.52478 -8.9624,-2.07453 -4.99616,-1.46643 -12.71933,-6.91991 -19.01244,-13.42502 -8.51255,-8.79933 -10.19634,-13.93767 -6.76553,-20.64607 1.95174,-3.81635 5.89928,-7.16338 10.32796,-8.75684 1.5332,-0.55166 2.70881,-1.23947 2.61248,-1.52847 -0.25646,-0.76935 -19.69982,-7.86319 -26.06374,-9.50923 -9.51716,-2.46168 -16.357361,-6.22214 -23.978081,-13.18218 -2.79334,-2.55118 -7.60947,-6.67502 -10.70251,-9.16407 -5.312625,-4.27521 -5.846286,-4.91382 -9.647615,-11.54492 -2.21315,-3.86065 -4.650364,-8.86194 -5.416021,-11.114 -1.238346,-3.6424 -1.351717,-4.74066 -1.026449,-9.9441 0.687532,-10.99867 3.289739,-17.78253 9.482179,-24.71972 3.984798,-4.46403 6.570896,-6.02793 13.401496,-8.10429 4.79862,-1.45869 6.11869,-1.60284 14.91615,-1.6289 11.593521,-0.0344 15.691121,0.66005 39.483951,6.69101 9.00819,2.28337 18.10921,4.29951 20.22448,4.48029 3.68146,0.31463 3.90045,0.25943 5.11971,-1.29061 1.50608,-1.91467 3.6107,-8.38331 3.6107,-11.09764 0,-2.47618 1.26922,-6.03008 3.19028,-8.93299 1.20432,-1.81985 1.41536,-2.6057 0.99713,-3.71305 -0.98449,-2.60652 -8.80045,-30.04738 -9.20123,-32.3043 l -0.3973,-2.23725 -2.03842,1.94478 c -2.09512,1.99891 -14.6964,17.54367 -21.08292,26.00762 -4.23092,5.60716 -7.05531,8.14731 -12.00185,10.79402 -3.19331,1.70861 -4.28265,1.97112 -9.06961,2.18564 -5.39092,0.24158 -5.48934,0.2211 -10.82153,-2.25163 -9.105341,-4.22247 -15.210881,-9.6974 -18.442931,-16.53803 -1.0199,-2.15862 -1.85435,-4.15374 -1.85435,-4.43362 0,-1.45354 -5.15068,-16.32038 -7.34993,-21.2147 -1.39403,-3.10235 -3.687574,-8.64394 -5.096748,-12.31467 -1.409186,-3.67072 -4.455667,-10.08213 -6.769953,-14.24757 -2.314286,-4.16545 -4.750548,-9.05141 -5.413898,-10.85773 l -1.206116,-3.28418 -4.483862,-1.19406 c -7.609849,-2.0265 -18.447735,-5.21036 -19.984964,-5.87101 -0.8043,-0.34566 -4.116841,-1.42786 -7.361197,-2.40489 -6.130101,-1.84606 -8.356798,-3.2109 -12.006993,-7.35957 -5.278607,-5.99944 -7.6129801,-9.69097 -8.9655441,-14.17787 -0.752783,-2.49724 -2.450829,-7.4689 -3.773425,-11.04813 -1.322605,-3.57922 -2.404727,-6.94386 -2.404727,-7.47694 0,-1.85755 3.529437,-10.1053 4.858724,-11.35411 0.736452,-0.69187 2.78687,-1.75607 4.5564661,-2.36491 3.617303,-1.24453 7.659175,-3.20395 9.978366,-4.83731 0.971465,-0.68417 2.558935,-1.0935 4.240872,-1.0935 2.340985,0 2.98042,0.29221 4.950637,2.26244 4.010524,4.01051 7.179458,8.72323 8.311519,12.36056 0.953093,3.0623 2.015717,5.62878 2.628407,6.34817 0.09627,0.11308 2.817884,-0.87819 6.048022,-2.20274 9.711506,-3.9823 12.067696,-3.79684 20.062101,1.57907 2.346343,1.57781 7.293187,4.6767 10.992983,6.88641 9.55379,5.70601 11.16356,7.34062 13.37248,13.57872 0.99437,2.80815 2.12169,6.42186 2.50516,8.03046 0.38346,1.60861 2.63045,7.65455 4.99331,13.43543 6.414891,15.69443 10.741151,22.65134 14.552011,23.40059 1.45419,0.28591 2.29771,-0.0372 4.51297,-1.72868 4.53911,-3.46587 7.06506,-7.78963 12.13742,-20.77613 3.61553,-9.2566 7.52629,-17.26794 9.39188,-19.23951 2.19017,-2.31464 13.61907,-7.40688 25.05272,-11.1625 5.92201,-1.94519 12.10783,-4.28027 13.74628,-5.18907 2.98729,-1.65696 19.54916,-12.15098 20.39087,-12.92016 0.99501,-0.90928 -2.85579,-11.42791 -5.84986,-15.97916 -2.52175,-3.83328 -3.21565,-5.5286 -4.49366,-10.97873 -0.83126,-3.54498 -1.51138,-8.16402 -1.51138,-10.26454 0,-3.32236 0.19022,-3.99541 1.46236,-5.1744 1.40051,-1.29795 1.46281,-1.64941 1.47254,-8.30757 0.0162,-11.125123 1.8361,-17.408562 7.21995,-24.928444 5.16365,-7.212325 10.88836,-11.366397 19.36934,-14.055161 8.1622,-2.587698 15.31295,-2.656173 22.53612,-0.215804 6.69129,2.26069 10.52989,4.516742 15.23145,8.951939 2.86249,2.700349 4.50959,4.877187 6.01518,7.94988 3.21801,6.567428 3.90611,10.157545 3.90611,20.37982 0,8.92491 0.006,8.965 1.50533,10.16058 1.33735,1.06636 1.50612,1.6237 1.51228,4.99402 0.0147,8.01362 -2.44321,17.69589 -5.43376,21.40518 -3.33989,4.14258 -8.19465,16.08621 -7.02721,17.28825 0.40409,0.41608 18.13367,8.04969 35.76599,15.39934 5.95184,2.48089 13.65307,5.69434 17.11385,7.14097 5.39048,2.25327 6.67476,3.06229 8.96069,5.64464 3.44458,3.89122 4.31146,5.61914 8.08597,16.1172 3.32083,9.23622 6.28372,14.18241 13.70057,22.87145 1.785,2.09119 3.43721,4.02936 3.67156,4.30705 0.53445,0.63335 4.72964,-4.73472 9.0815,-11.62054 4.27287,-6.76077 8.99459,-16.70251 8.99459,-18.93836 0,-1.56256 1.03155,-7.48379 3.00472,-17.2475 0.93929,-4.64784 2.56728,-6.36196 9.21517,-9.70268 3.09155,-1.55358 8.43422,-4.68085 11.87259,-6.94949 3.43838,-2.26865 7.10137,-4.56424 8.13997,-5.10132 3.02566,-1.56462 6.1378,-0.84966 12.85374,2.95293 4.72136,2.67327 6.04745,3.19836 6.46608,2.5604 0.28965,-0.44141 2.25637,-3.88243 4.37051,-7.64675 4.75024,-8.45802 10.01468,-14.50636 12.62622,-14.50636 1.84791,0 12.99431,4.22611 18.77418,7.11817 4.92637,2.46499 5.68312,3.99816 5.25267,10.64205 -0.26878,4.1487 -0.7243,6.14467 -2.08352,9.1295 -0.95677,2.101 -2.48361,6.01202 -3.39302,8.69114 -1.09992,3.24041 -2.65757,6.22561 -4.65283,8.91707 -4.89507,6.60307 -12.99914,13.41185 -15.96334,13.41185 -1.73461,0 -24.22578,7.79221 -27.49979,9.52749 -2.94224,1.55942 -3.91773,2.54775 -6.91641,7.00743 -4.4175,6.56976 -5.9191,9.94189 -11.65178,26.16622 -11.21317,31.73494 -12.63355,35.05881 -17.17004,40.17986 -4.58434,5.17507 -13.90206,10.38926 -22.25592,12.45439 -2.85631,0.70611 -3.05286,0.6664 -8.40225,-1.69812 -3.01265,-1.33164 -6.60437,-3.19645 -7.98163,-4.14403 -1.65162,-1.13634 -6.0597,-6.40602 -12.94831,-15.47921 -14.96177,-19.70655 -14.24268,-18.57459 -14.26712,-22.45855 -0.0116,-1.81354 -0.37608,-5.63867 -0.8104,-8.50031 -0.43431,-2.86163 -0.6821,-6.28357 -0.55066,-7.60431 0.20704,-2.08012 0.15672,-2.21243 -0.37621,-0.98905 -1.69257,3.88546 -11.42137,47.89733 -12.10081,54.74265 -0.27689,2.78955 1.58033,11.99537 2.7142,13.45379 0.25013,0.32172 0.60467,1.9204 0.78785,3.55264 0.40773,3.6328 2.06375,7.27389 3.29951,7.25458 0.50342,-0.008 1.96823,-0.25549 3.25511,-0.5503 1.28688,-0.2948 6.81464,-1.22749 12.2839,-2.07264 5.46925,-0.84515 14.29958,-2.56823 19.62295,-3.82904 16.75293,-3.96787 22.99784,-4.81594 33.0223,-4.48447 13.15978,0.43511 20.31592,2.86462 26.34173,8.94299 9.51386,9.59689 12.88636,29.33771 7.08714,41.48433 -4.2738,8.95159 -16.56498,21.52991 -37.23103,38.10082 -12.44457,9.97857 -14.3261,10.93699 -23.63648,12.04 -3.98128,0.47166 -6.15489,0.43914 -9.21291,-0.13787 -2.20126,-0.41534 -4.00229,-0.83218 -4.00229,-0.9263 0,-0.0942 0.29419,-0.8168 0.65376,-1.60595 0.71303,-1.56495 1.82342,-2.20619 9.29034,-5.36506 4.72893,-2.00055 12.86885,-6.45065 12.86885,-7.03539 0,-0.15082 -0.98312,0.13657 -2.18471,0.63862 -1.20157,0.50205 -4.6882,1.45523 -7.74805,2.11818 -3.05985,0.66295 -8.06514,2.09078 -11.12286,3.17297 -8.37814,2.96522 -12.0623,3.63549 -25.45994,4.63199 -6.7494,0.50201 -12.66648,1.0219 -13.14906,1.1553 -0.48259,0.13341 -3.83446,0.52748 -7.44859,0.87573 -3.61416,0.34825 -7.15796,0.85024 -7.87512,1.11553 l -1.30395,0.48237 1.36973,0.73305 c 1.84912,0.98963 10.75097,1.73058 21.39986,1.78123 18.56038,0.0882 23.19309,1.20185 28.94992,6.95867 5.044,5.04401 5.0882,8.7723 0.18139,15.2998 -3.89099,5.17616 -8.09179,8.26595 -17.43236,12.82188 -11.7451,5.72876 -15.35784,7.03585 -19.4468,7.03585 -5.07415,0 -8.28022,-1.17466 -29.02342,-10.63377 -11.7736,-5.36891 -15.92582,-7.41781 -23.2272,-11.46144 l -2.67365,-1.48071 -25.69629,12.75877 c -25.30695,12.56545 -25.75835,12.76139 -29.79094,12.93137 -2.31592,0.0977 -6.50859,-0.29438 -9.65164,-0.90241 z m -21.04173,-26.02902 c -0.33072,-0.86986 -0.60131,-2.02582 -0.60131,-2.56881 0,-1.12037 5.06863,-4.44057 9.90934,-6.49114 3.40459,-1.4422 23.75082,-5.47914 32.57316,-6.46289 15.07331,-1.68077 31.47969,-6.73532 36.84875,-11.35254 3.42903,-2.94884 5.65552,-4.14859 11.56012,-6.22922 4.80634,-1.69362 9.29234,-3.68601 28.14283,-12.49925 3.85922,-1.8043 7.19567,-3.34676 7.41434,-3.42767 0.4156,-0.15377 -0.3796,-8.50032 -0.99438,-10.43734 -0.50666,-1.59635 -1.2809,-1.43184 -7.19535,1.52895 -4.11424,2.05958 -6.03746,3.46524 -8.68744,6.34949 -1.87189,2.0374 -4.19312,4.10527 -5.15828,4.59528 -0.96516,0.49001 -6.68931,2.48919 -12.72031,4.44261 -12.60763,4.08356 -14.36361,5.17989 -17.94074,11.20111 -3.02329,5.08893 -3.38996,5.3591 -6.66424,4.91031 l -2.69221,-0.36901 -0.65211,-3.14123 c -0.35867,-1.72768 -0.90304,-3.14122 -1.20973,-3.14122 -0.30668,0 -4.56545,2.40731 -9.46393,5.34958 l -8.9063,5.3496 -9.20793,1.35999 c -11.0728,1.63544 -15.37688,2.70038 -19.7002,4.87427 -1.79517,0.90269 -5.36979,2.50894 -7.94355,3.56947 -5.12038,2.10983 -8.97712,4.32493 -10.04515,5.76938 -1.36918,1.85174 -1.41437,4.18236 -0.11645,6.00512 1.06036,1.48914 3.37019,2.99739 3.88978,2.53989 0.0894,-0.0788 -0.10798,-0.85486 -0.43871,-1.72473 z m 42.51057,-34.17286 c 3.24482,-1.08712 8.08068,-3.4452 12.52743,-6.10869 9.62272,-5.76375 11.83383,-6.84976 13.9461,-6.84976 0.97799,0 1.77816,-0.2579 1.77816,-0.57311 0,-0.91539 -5.54311,-3.82937 -9.81894,-5.16176 -2.16003,-0.67307 -6.62491,-2.0567 -9.92197,-3.07473 -7.32573,-2.26196 -24.20611,-11.71314 -35.09575,-19.64981 -8.34545,-6.0824 -23.63424,-15.74418 -32.32049,-20.42501 -5.97582,-3.22023 -8.77421,-5.20282 -8.77421,-6.21627 0,-0.27317 2.17161,-0.32321 4.82581,-0.11123 5.17291,0.41321 10.24537,2.02921 15.58651,4.96562 3.98302,2.18975 2.28127,0.63897 -3.91333,-3.56617 -7.46364,-5.06663 -18.60539,-7.4076 -32.585051,-6.84642 -11.31945,0.45441 -13.71419,1.23095 -18.01305,5.84113 -1.86417,1.99916 -4.628054,5.43993 -6.141958,7.64614 -2.601267,3.79084 -2.752564,4.22488 -2.752564,7.8968 0,2.84443 0.444112,5.06092 1.657569,8.27258 0.911665,2.4129 1.923223,5.09296 2.247934,5.95567 0.324698,0.8627 5.077209,5.71018 10.561119,10.77214 5.48392,5.06199 9.86078,8.96258 9.72639,8.66802 -0.1344,-0.29456 -2.40905,-4.8788 -5.05477,-10.18719 -5.57956,-11.19486 -6.8102,-15.33189 -6.43385,-21.62843 0.39241,-6.56485 2.80657,-10.44262 8.2776,-13.2959 3.93514,-2.05227 5.95802,-1.9804 14.031811,0.49858 11.75182,3.60826 21.60283,9.09973 41.97691,23.40008 13.33996,9.36316 17.5469,12.04136 29.58633,18.83502 9.28166,5.23747 12.45974,7.6392 12.45974,9.41604 0,1.94427 -6.33034,5.75632 -15.90676,9.57882 -2.47515,0.98798 -5.50225,2.34878 -6.72689,3.02401 l -2.22661,1.22769 5.60593,-0.26664 c 4.15613,-0.19769 6.97271,-0.72455 10.89085,-2.03726 z m 97.85664,-6.99727 c -0.002,-3.43949 0.30078,-10.33365 0.67301,-15.32033 l 0.67681,-9.06669 2.87276,-5.76451 c 1.58,-3.17047 4.08172,-7.58267 5.55939,-9.80486 1.47767,-2.22222 2.52579,-4.20127 2.32914,-4.39792 -0.40794,-0.40792 -12.45997,6.68081 -15.74294,9.25964 -2.76604,2.17274 -3.11022,4.03198 -1.92811,10.41518 0.50643,2.73462 1.43142,9.18367 2.05552,14.33121 1.54885,12.77451 2.34778,17.31914 2.97638,16.93063 0.29251,-0.18077 0.53012,-3.14282 0.52804,-6.58235 z m 17.0653,-25.52276 c 8.1533,-8.89787 15.19697,-12.5993 31.83851,-16.73098 6.40312,-1.58973 12.16847,-3.13775 12.81191,-3.44002 1.08836,-0.51131 1.06798,-0.55341 -0.29247,-0.60428 -3.5266,-0.13186 -13.08102,-1.21159 -13.38167,-1.51224 -0.50132,-0.50131 0.87639,-1.21363 6.81355,-3.52283 2.9828,-1.16013 7.72087,-3.61717 10.52904,-5.46011 9.48602,-6.22543 12.14722,-7.45742 19.72944,-9.1336 l 3.50969,-0.77588 -5.86846,-0.0465 c -5.98031,-0.0473 -26.66079,3.02444 -33.53602,4.98137 -3.68562,1.04904 -13.26548,5.37899 -12.84068,5.80377 0.16099,0.16098 1.99462,-0.47899 4.07476,-1.42218 4.21178,-1.90971 10.03266,-3.56 12.5568,-3.56 1.64285,0 1.64628,0.008 0.50051,1.13005 -0.6345,0.62151 -4.7072,3.15449 -9.05044,5.62884 -9.9543,5.67099 -12.30157,7.23789 -19.90908,13.29022 -6.44712,5.12916 -9.05655,8.37638 -11.14239,13.86584 -1.26652,3.33327 -1.43527,5.27652 -0.45816,5.27652 0.36436,0 2.21617,-1.6956 4.11516,-3.768 z M 191.08316,333.41924 c -2.46871,-2.53683 -4.48855,-4.90585 -4.48855,-5.26452 0,-1.16246 2.19864,-0.69924 8.32373,1.7537 19.73297,7.9025 24.46735,8.94688 33.20752,7.32545 4.35042,-0.80708 7.94318,-2.55579 17.84091,-8.68379 3.86064,-2.39027 8.40262,-5.09408 10.09326,-6.00848 3.49096,-1.88812 3.78695,-2.74307 0.34622,-1.00007 -4.91458,2.48964 -16.12735,6.55314 -23.89328,8.65893 -7.32568,1.9864 -8.89863,2.21718 -14.91615,2.18835 -7.35594,-0.0352 -9.31593,-0.53271 -27.49253,-6.97796 -7.75251,-2.74897 -8.01969,-2.79914 -14.62369,-2.74586 -3.69978,0.0298 -7.47028,0.28159 -8.37886,0.55943 -1.52464,0.46623 -1.164,0.69493 4.67958,2.96768 3.48235,1.3544 10.14833,4.54805 14.81329,7.09701 4.66495,2.54896 8.59318,4.65878 8.7294,4.68849 0.13622,0.0297 -1.77217,-2.02154 -4.24085,-4.55836 z m 27.79263,-20.66956 c 7.35829,-3.48832 25.38806,-15.82017 26.05495,-17.82083 0.12231,-0.36693 -1.46656,0.22968 -3.53083,1.32581 -8.8382,4.69312 -28.32554,10.33357 -35.81593,10.36664 -3.63251,0.016 -4.5994,-0.23584 -8.23084,-2.1441 -2.26315,-1.18924 -5.25328,-3.32229 -6.64473,-4.74007 -2.44419,-2.49045 -2.53948,-2.72669 -2.81191,-6.97194 -0.27795,-4.33102 -0.26037,-4.39957 1.2243,-4.77219 1.92873,-0.48408 4.8954,0.46685 10.1341,3.24836 l 4.17856,2.21862 -5.93837,-7.10778 c -6.35039,-7.60092 -7.9642,-9.976 -12.38131,-18.22177 -1.55107,-2.89549 -3.45679,-6.44903 -4.23494,-7.89679 -1.35131,-2.51406 -5.4056,-8.18925 -5.85033,-8.18925 -0.11643,0 -0.0707,0.46064 0.10183,1.02365 0.17246,0.56301 1.12629,5.4985 2.11962,10.96776 0.99333,5.46927 2.30018,11.65509 2.90411,13.74627 2.79484,9.67754 2.79111,9.80059 -0.61213,20.1963 -1.68234,5.13895 -3.15848,9.61403 -3.28028,9.94464 -0.13964,0.37898 1.45831,0.6007 4.32453,0.60003 4.15201,-9.8e-4 5.08487,0.23818 10.76361,2.75945 6.65226,2.9535 13.79877,4.57939 18.93513,4.3079 2.03178,-0.1074 4.65466,-0.97472 8.59081,-2.84071 z M 99.727409,261.32176 c -4.79293,-14.06468 -11.01378,-33.07798 -12.22194,-37.35485 -0.81044,-2.86897 -3.88747,-7.61366 -4.92783,-7.59857 -0.21787,0.004 -0.46492,2.03347 -0.54898,4.51182 -0.1897,5.59213 1.4228,12.4141 4.67009,19.75776 1.28037,2.89548 3.84058,8.81807 5.68937,13.16131 5.08619,11.94869 7.619801,17.00591 9.299761,18.56285 0.83767,0.77632 1.60755,1.15788 1.71088,0.84793 0.10333,-0.30996 -1.54879,-5.65968 -3.671351,-11.88825 z m 241.082961,5.86115 c 0.0692,-3.99353 0.35039,-5.25859 1.78661,-8.03791 2.18411,-4.22666 12.4109,-18.77871 15.91461,-22.64546 1.47939,-1.63268 3.95653,-5.38078 5.50476,-8.32913 1.54824,-2.94835 3.86763,-6.69233 5.1542,-8.31996 3.26323,-4.12829 4.03458,-6.7611 4.27598,-14.59465 0.20605,-6.68691 0.21921,-6.74124 1.87797,-7.75475 1.89225,-1.15617 10.31171,-4.01139 16.00166,-5.42648 2.09119,-0.52009 4.72346,-1.57065 5.84948,-2.33456 4.53741,-3.0783 8.06746,-4.08825 20.18068,-5.77372 l 5.26453,-0.73252 -0.16392,-2.59261 c -0.0901,-1.42594 0.33494,-4.30358 0.94464,-6.39477 1.31029,-4.4941 5.91345,-16.38428 7.69476,-19.87593 l 1.25252,-2.45514 -1.35432,0.4107 c -1.87457,0.56848 -4.76875,2.3727 -5.80988,3.62188 -0.47792,0.57341 -2.01375,3.49911 -3.41296,6.50157 -2.31008,4.95706 -2.53666,5.845 -2.46421,9.65658 0.0599,3.15619 -0.18839,4.63851 -1.0011,5.97493 -1.04143,1.71249 -1.3762,1.82582 -9.16976,3.10466 -4.44887,0.73 -8.93055,1.67897 -9.95928,2.1088 -1.02875,0.42983 -4.42001,1.37067 -7.53614,2.09074 -5.63326,1.30173 -5.67443,1.30269 -7.19435,0.16791 -0.84076,-0.62772 -1.62194,-1.42119 -1.73596,-1.76326 -0.33369,-1.00103 2.52296,-4.00293 6.53077,-6.86285 2.04651,-1.46036 4.5606,-3.71535 5.58684,-5.01109 l 1.8659,-2.3559 -1.12778,-1.89767 c -1.6571,-2.78831 -3.06194,-2.28421 -8.26145,2.96444 -3.42939,3.4618 -5.74335,5.19242 -9.54658,7.13987 -2.761,1.41379 -5.29267,3.00711 -5.6259,3.54072 -0.38387,0.61469 -0.4217,1.80294 -0.10322,3.24281 0.27647,1.24993 0.29281,4.90486 0.0363,8.12207 -0.41185,5.16556 -0.78672,6.56759 -3.20632,11.99143 -7.64711,17.14201 -13.05325,25.9219 -21.18787,34.41041 -2.05749,2.147 -4.51777,5.48298 -5.4673,7.41332 -2.35788,4.79348 -4.0601,11.78811 -4.1941,17.23412 -0.0951,3.86716 0.0813,4.80706 1.1968,6.37359 0.71963,1.01061 1.35631,1.8352 1.41482,1.83239 0.0586,-0.004 0.14337,-2.13787 0.18855,-4.74458 z M 124.86324,247.4786 c -0.8357,-1.51034 -3.07979,-4.42517 -4.98683,-6.47743 l -3.46737,-3.73138 3.45734,7.24106 c 3.24674,6.80004 4.53373,10.61553 5.69796,16.89269 0.40451,2.18094 0.51652,1.44823 0.6533,-4.27332 0.15538,-6.49978 0.0758,-7.06695 -1.3544,-9.65162 z m 83.68322,2.9305 c 1.10438,-0.64041 1.09513,-0.66968 -0.21692,-0.68672 -3.3034,-0.0429 -13.48741,-2.57045 -16.1398,-4.00572 -6.97652,-3.77525 -15.79099,-14.7636 -21.43527,-26.7218 -2.74644,-5.81874 -7.90468,-20.52267 -9.3187,-26.56366 -0.92057,-3.93284 -0.50249,-4.34221 5.46213,-5.34827 6.74626,-1.13791 14.20218,-0.3545 33.95995,3.56827 4.78844,0.9507 9.00006,1.71339 9.35916,1.69487 1.0953,-0.0565 -5.3729,-2.81437 -13.09335,-5.58262 -11.13401,-3.99219 -13.45379,-4.98538 -13.45379,-5.76009 0,-0.88516 9.48491,-5.06004 12.27603,-5.40341 1.13034,-0.13905 4.02937,0.26204 6.44229,0.89132 2.4129,0.62928 4.5139,1.02255 4.66889,0.87395 0.39685,-0.38055 0.18213,-9.19588 -0.27466,-11.27561 l -0.37873,-1.72436 -7.71099,4.10109 c -14.94748,7.94983 -19.32638,9.74594 -31.10888,12.76013 -15.92094,4.07288 -23.94621,10.9815 -28.40155,24.44971 -2.59089,7.83204 -7.49426,17.43285 -11.14207,21.81614 -2.63826,3.17018 -2.96771,3.84324 -2.51206,5.13213 0.28843,0.81589 0.8114,1.57868 1.16215,1.69507 0.92815,0.30801 12.49062,-11.86092 16.04155,-16.88293 1.6688,-2.36016 4.41424,-7.05507 6.10098,-10.43314 1.68673,-3.37808 3.61953,-7.04256 4.29509,-8.14329 l 1.22831,-2.00134 0.55428,1.41639 c 0.30484,0.77902 1.93432,5.23317 3.62105,9.89813 6.17102,17.06692 16.00696,33.46108 22.94063,38.23647 4.68027,3.22343 12.50177,5.12129 20.05491,4.86628 3.2262,-0.10891 6.38491,-0.49908 7.01937,-0.86699 z m 105.98122,-53.49556 c -3.23449,-5.29144 -6.89731,-8.33764 -12.01264,-9.99033 -2.46838,-0.7975 -7.97929,-3.05043 -12.24647,-5.00652 -8.82435,-4.0451 -31.71451,-13.21857 -34.3577,-13.7692 l -1.75485,-0.36557 1.46237,1.2141 c 2.91278,2.41828 6.23854,4.31957 11.98413,6.85112 5.79358,2.5527 8.89233,4.70922 7.51202,5.22782 -4.26913,1.604 -20.66605,10.82216 -20.66605,11.61822 0,0.13342 0.72387,-0.034 1.6086,-0.37198 0.88474,-0.338 4.24088,-1.23639 7.45808,-1.99643 14.2617,-3.3692 27.70804,-4.48851 35.94344,-2.99205 l 4.94122,0.89788 5.87674,5.87674 c 3.2322,3.23219 5.93327,5.87674 6.00238,5.87674 0.0691,0 -0.71897,-1.38175 -1.75127,-3.07054 z M 81.807189,186.85803 c -0.11586,-0.10508 -3.63257,-1.37505 -7.814945,-2.82223 -9.285789,-3.21305 -14.498902,-4.37092 -22.557839,-5.01025 -3.672475,-0.29134 -6.97184,-0.88558 -8.132897,-1.4648 -1.074466,-0.53602 -2.259508,-0.97457 -2.633418,-0.97457 -0.996039,0 -2.658306,-3.25672 -7.016249,-13.74626 -3.80591,-9.16079 -5.96746,-12.57638 -7.958961,-12.57638 -1.420772,0 -1.686948,1.76427 -0.714533,4.73625 1.764469,5.39277 12.204856,25.89052 13.685265,26.86844 0.258103,0.1705 0.646904,1.42083 0.864008,2.77851 0.217104,1.35767 0.690119,2.47332 1.051154,2.47921 1.149831,0.0187 12.512133,1.68958 19.743121,2.9032 8.50596,1.42761 10.093767,2.18376 11.682421,5.56349 l 1.218537,2.59233 4.39748,-5.56797 c 2.418606,-3.06238 4.302706,-5.65392 4.186856,-5.75897 z m -53.148364,-2.28349 c 0,-1.7062 -2.456895,-7.82309 -4.030913,-10.03567 -2.997758,-4.21394 -5.587914,-10.37437 -7.404794,-17.61149 -0.164368,-0.65471 -3.739466,-1.62775 -4.218951,-1.14825 -0.413147,0.41315 2.201923,7.90183 4.099792,11.74037 0.954392,1.93032 3.154993,5.77561 4.890223,8.54509 1.73523,2.76948 3.154959,5.30043 3.154959,5.62435 0,0.81853 2.305679,3.67145 2.967197,3.67145 0.298371,0 0.542487,-0.35363 0.542487,-0.78585 z m 405.758685,-7.79182 c 0.88404,-3.48147 2.45845,-7.59331 3.99359,-10.42996 1.9682,-3.63687 4.39044,-9.81872 4.39044,-11.20496 0,-0.37461 -2.11483,0.6161 -3.07403,1.44003 -1.3264,1.13936 -4.89672,13.41554 -7.17715,24.67793 -0.85164,4.20606 0.46113,1.05406 1.86715,-4.48304 z M 214.77566,156.63453 c -2.2291,-5.22598 -5.32797,-14.96235 -5.89269,-18.51432 -0.50482,-3.17529 -0.29333,-6.80334 0.6191,-10.62029 0.12891,-0.53926 -0.51617,-0.98188 -1.84936,-1.26893 -1.29007,-0.27778 -2.75048,-1.25158 -3.94839,-2.6328 -1.0456,-1.20558 -1.90108,-2.08179 -1.90108,-1.94711 0,0.93427 2.46201,12.88957 2.99728,14.55454 1.38283,4.30129 10.38654,23.68204 10.80675,23.26184 0.14525,-0.14527 -0.22897,-1.42008 -0.83161,-2.83293 z m -3.30296,-41.32158 c -0.2208,-0.88473 -1.23644,-3.45119 -2.25697,-5.70324 -1.69669,-3.74419 -1.84867,-4.57023 -1.77574,-9.651625 0.0438,-3.056355 0.38245,-6.673528 0.75243,-8.038176 0.92976,-3.429496 5.60985,-8.842513 10.39211,-12.019601 3.68878,-2.450631 10.01247,-5.094951 12.18418,-5.094951 0.50872,0 1.76564,-0.434753 2.79318,-0.966105 l 1.86825,-0.966106 -2.33602,-0.822592 c -1.28479,-0.452427 -4.04695,-0.969642 -6.13815,-1.149378 l -3.80216,-0.326798 -4.53293,3.068728 c -6.7095,4.542223 -12.84914,9.991855 -14.89735,13.223116 -3.91776,6.180657 -4.53107,11.301613 -2.40926,20.116668 1.20526,5.00733 1.86898,5.98487 3.17608,4.67779 0.38507,-0.38509 1.55239,0.40466 3.45844,2.33979 3.26379,3.31362 4.10118,3.6255 3.52391,1.31248 z m 198.57179,15.81697 c -2.33578,-0.40891 -13.04488,-3.56975 -18.29132,-5.39878 -2.64777,-0.92307 -9.43969,-3.146 -15.09316,-4.93984 -5.65348,-1.79385 -11.18122,-3.86878 -12.28389,-4.61099 -1.24795,-0.83997 -3.41167,-3.66006 -5.73118,-7.46971 -2.04949,-3.36614 -7.57025,-11.911236 -12.26837,-18.989089 -7.06673,-10.646276 -8.54241,-13.2362 -8.54426,-14.995879 -0.002,-2.02459 1.15365,-4.776957 7.82672,-18.638592 1.31646,-2.734634 3.70344,-7.341088 5.30439,-10.236586 1.60095,-2.895487 3.86488,-7.704883 5.03097,-10.687552 l 2.12017,-5.423038 3.8832,-2.242064 c 2.13576,-1.233128 6.77869,-3.775918 10.31762,-5.650626 3.53894,-1.874719 8.71189,-4.808665 11.49544,-6.519875 4.55985,-2.803225 5.3914,-3.111316 8.39731,-3.111316 6.37148,0 17.77274,3.876647 33.86512,11.514807 5.75947,2.733694 12.47174,5.750125 14.91615,6.703183 7.82219,3.049786 7.46694,2.650768 10.23582,11.496852 0.83573,2.670009 2.60858,7.408089 3.93965,10.529042 2.71174,6.358187 4.70221,11.947355 6.34872,17.827019 l 1.10987,3.963285 -3.1798,4.518458 c -4.18411,5.945623 -6.76163,10.967332 -9.09128,17.712371 -1.77077,5.1269 -2.20621,5.81903 -6.05169,9.61904 -3.61642,3.57366 -24.01983,20.45489 -29.16347,24.12907 -1.83183,1.30849 -2.29546,1.3905 -5.09273,0.90081 z m 6.38034,-16.70462 c 3.64208,-1.79524 6.14608,-3.60679 9.65164,-6.98257 l 4.73364,-4.55843 -7.57945,3.91189 c -4.16868,2.15153 -11.36602,5.41443 -15.99403,7.25086 l -8.41462,3.33896 6.34242,-0.26828 c 6.00133,-0.25384 6.60691,-0.39864 11.2604,-2.69243 z m -41.9897,-12.75623 c -1.86081,-2.597885 -4.36763,-6.545835 -5.57069,-8.773232 l -2.18738,-4.049783 1.64927,-0.679379 c 0.9278,-0.38219 6.49731,-0.83042 12.73176,-1.024641 l 11.08248,-0.345261 -4.64807,-2.993051 c -5.96231,-3.839324 -10.83838,-6.696514 -14.88465,-8.721822 -1.76946,-0.885685 -5.66095,-3.164504 -8.64775,-5.064031 -2.98681,-1.899528 -5.77489,-3.585815 -6.19571,-3.747306 -0.91329,-0.350458 -4.4598,7.664266 -4.4598,10.078632 0,0.863799 1.1704,3.567872 2.60088,6.009063 1.43049,2.441181 3.26017,5.930382 4.06595,7.753781 0.80579,1.823386 2.45039,4.300578 3.65465,5.504852 1.83355,1.833543 13.46596,10.775608 14.0176,10.775608 0.0961,0 -1.34771,-2.12555 -3.20854,-4.72343 z m 28.38217,-37.650452 9.69589,-4.937276 -2.18446,-0.912731 c -5.56457,-2.325026 -13.09352,-9.438188 -13.14198,-12.41623 -0.008,-0.498623 1.8328,-0.604815 6.81884,-0.393348 5.92809,0.251422 7.56944,0.560313 12.43014,2.339199 3.08009,1.127248 6.07347,2.193747 6.65193,2.370002 1.3435,0.409365 3.12417,-1.241837 7.47802,-6.934332 l 3.41991,-4.471395 -5.79267,-2.080607 c -3.18596,-1.144333 -7.89124,-3.382188 -10.45617,-4.972999 -4.16307,-2.582026 -5.2993,-2.993108 -10.58843,-3.830811 -7.44933,-1.179869 -11.84533,-1.187791 -15.74941,-0.02841 -5.21311,1.54813 -15.28367,6.8002 -17.8587,9.313799 -5.25588,5.130464 -12.84344,16.394185 -12.51967,18.585426 0.18909,1.279764 0.27619,1.314708 14.00736,5.6217 3.10048,0.972508 7.95912,3.099543 10.79698,4.726737 2.83784,1.627206 5.6405,2.958546 6.22813,2.958546 0.58762,0 5.43155,-2.22178 10.76429,-4.937265 z M 50.354523,123.49963 c -1.798417,-1.85131 -4.22199,-4.54938 -5.385715,-5.9957 -2.083311,-2.58924 -13.17408,-9.65934 -24.426736,-15.57144 C 12.519553,97.717485 12.278106,97.362155 7.5848639,82.863714 1.7317009,64.78199 0.0041719,58.52249 3.1904513e-5,55.380951 -0.0034681,52.816368 0.2793699,52.294862 4.1223719,47.776634 c 2.269284,-2.668002 6.5896961,-7.878018 9.6009311,-11.577806 3.011224,-3.699789 6.787721,-8.007349 8.392218,-9.572343 3.202035,-3.123191 4.509146,-3.586428 23.214311,-8.227131 13.686053,-3.395479 11.797393,-3.580282 22.078643,2.160368 4.907956,2.74042 13.963304,7.490759 20.122994,10.556309 16.746261,8.334297 14.590421,6.105431 20.758121,21.461324 7.30718,18.192868 7.30478,18.184796 6.31772,21.175595 -0.44339,1.343483 -2.66329,5.625018 -4.93312,9.514515 -3.62529,6.212168 -4.54905,8.45233 -7.59919,18.428185 -1.9553,6.39509 -3.992651,11.95123 -4.663491,12.71801 -0.90277,1.03188 -2.35678,1.5641 -6.00373,2.19757 -5.07418,0.88136 -13.897535,3.36985 -27.177053,7.66483 -4.403685,1.42428 -8.591611,2.5896 -9.306515,2.5896 -0.813731,0 -2.522668,-1.2588 -4.569688,-3.36603 z m 36.646196,-15.35195 c 1.83018,-0.64326 3.6773,-1.51927 4.10472,-1.94667 0.42741,-0.42741 1.04675,-2.59919 1.37631,-4.82616 0.32956,-2.226965 0.80493,-5.430965 1.05639,-7.12 0.25144,-1.689035 0.39774,-3.070977 0.32507,-3.070977 -0.0726,0 -2.37123,2.961295 -5.10793,6.580662 -2.7367,3.619345 -6.06899,7.699365 -7.40511,9.066665 l -2.4293,2.48604 h 2.37611 c 1.30687,0 3.87354,-0.5263 5.70374,-1.16956 z M 49.853337,88.088819 c 1.936062,-3.150018 3.364905,-5.882506 3.175219,-6.072191 -0.189674,-0.189675 -1.473044,-0.02633 -2.851913,0.362868 -6.609366,1.865846 -7.154439,1.821275 -12.036636,-0.984361 -6.733489,-3.869514 -17.165525,-9.044527 -17.519265,-8.690787 -0.492732,0.492732 0.981832,7.182484 2.219726,10.070374 1.21275,2.829239 1.517291,3.010053 15.469995,9.184909 6.980272,3.089174 7.339116,2.968834 11.542874,-3.870812 z m 1.14678,-22.545951 c 3.959201,-1.877156 10.042597,-5.032845 13.518658,-7.012619 3.47605,-1.979775 8.21413,-4.359195 10.529054,-5.287595 6.50649,-2.609433 15.61541,-7.073161 15.61541,-7.652158 0,-0.81924 -5.64423,-1.914478 -11.40647,-2.213383 -7.127461,-0.369722 -12.024237,0.411266 -22.845179,3.643607 -6.753101,2.017225 -9.686432,2.639784 -11.146951,2.365781 -1.090169,-0.204508 -1.982129,-0.562273 -1.982129,-0.795023 0,-0.232749 2.596304,-3.009739 5.769564,-6.171088 l 5.769564,-5.747921 6.592143,-2.253083 6.592144,-2.253094 -5.196099,-2.408195 c -6.710455,-3.110051 -7.541699,-3.244913 -11.174485,-1.813006 -1.669817,0.658188 -4.824565,1.608195 -7.010566,2.111145 -2.185987,0.502938 -6.010895,1.460565 -8.499801,2.128056 L 31.599706,33.397899 20.658749,44.82731 9.7177789,56.256708 15.532378,59.181595 c 3.198045,1.608684 9.631388,4.463508 14.296342,6.344038 11.109036,4.478261 11.761299,4.478783 21.171397,0.01728 z m 111.904123,8.18343 c -8.77268,-4.684915 -24.76507,-14.701462 -26.02048,-16.297446 -2.27686,-2.894571 -1.21108,-7.657783 2.06085,-9.210413 2.44861,-1.161939 4.78168,-1.114573 7.02135,0.142562 2.4052,1.350048 22.07792,17.832448 23.61229,19.7831 1.85665,2.360341 1.52885,8.428161 -0.45405,8.404871 -0.52549,-0.0058 -3.32447,-1.276388 -6.21996,-2.822674 z m 124.44452,2.102714 c -2.175,-2.718605 -1.09808,-5.470856 3.80002,-9.711577 1.85273,-1.604079 7.04959,-6.126436 11.54859,-10.049682 4.49898,-3.923248 8.79355,-7.366465 9.54347,-7.651579 0.74993,-0.285127 2.35002,-0.518398 3.55577,-0.518398 4.36331,0 7.20512,5.351071 4.84367,9.120552 -1.23307,1.968304 -21.07719,14.342282 -28.38211,17.697933 -4.67139,2.145881 -4.1732,2.032963 -4.90941,1.112751 z M 186.90505,53.60101 c -2.38604,-3.43555 -11.36546,-17.055598 -14.15199,-21.465824 -2.01656,-3.191597 -3.12115,-5.57336 -3.11974,-6.72689 0.005,-4.132964 4.43856,-7.847052 8.46526,-7.091636 2.84825,0.534333 4.93477,3.253901 11.44468,14.917 4.57323,8.193334 6.0771,11.422602 6.26541,13.453778 0.32394,3.493923 -0.55289,5.619427 -2.9113,7.057353 -2.56383,1.563174 -4.84483,1.508442 -5.99232,-0.143781 z m 75.63386,0.421439 c -1.78851,-0.971291 -3.11186,-4.28237 -2.50264,-6.261727 0.89147,-2.896427 13.86739,-26.561472 15.23998,-27.794183 2.86675,-2.574592 8.6557,-1.30899 10.52218,2.300392 1.82076,3.520981 0.96977,5.932922 -5.14268,14.575634 -3.04882,4.310901 -6.87278,9.822269 -8.4977,12.24749 -3.76682,5.622106 -6.12374,6.830658 -9.61914,4.932394 z M 225.65455,43.476276 c -0.87665,-0.47574 -1.89893,-1.434933 -2.27175,-2.131535 -0.42206,-0.788633 -0.90861,-7.629647 -1.28945,-18.129694 -0.68594,-18.912236 -0.55613,-19.796413 3.24646,-22.1148738 2.39496,-1.46021708 3.75341,-1.46554058 6.11773,-0.023892 3.90131,2.3787822 3.96355,2.7109387 3.16413,16.8864068 -0.98108,17.396546 -1.6819,24.681347 -2.46528,25.625254 -0.86834,1.046283 -4.48248,0.984233 -6.50184,-0.111689 z"
     id="path1" /><path
     style="fill:#ffffff;stroke-width:4.2449;stroke-linecap:round;stroke-linejoin:round"
     d="M 37.91759,68.259349 C 33.750539,67.101631 20.082805,61.314869 13.015995,57.716299 l -2.98689,-1.520988 10.751943,-11.167037 c 5.913569,-6.14187 10.989556,-11.294228 11.279972,-11.449684 0.290416,-0.155455 4.172941,-1.216911 8.627835,-2.35879 4.454896,-1.141879 9.252944,-2.47334 10.662328,-2.958803 3.224561,-1.110698 4.690137,-1.109587 7.477832,0.0057 3.873354,1.549587 8.540298,3.830672 8.217137,4.016332 -0.171373,0.09846 -2.951706,1.054751 -6.178517,2.1251 l -5.866929,1.94609 -2.966498,2.845737 c -1.631572,1.565156 -4.349341,4.294122 -6.039485,6.064367 -2.96494,3.105463 -3.048719,3.23695 -2.382761,3.739635 1.085716,0.819533 5.164616,0.38867 10.353404,-1.093652 13.088466,-3.739087 16.090038,-4.312369 22.563859,-4.309567 4.597814,0.002 10.427234,0.653263 12.784434,1.4283 1.12564,0.370106 1.15035,0.412509 0.51767,0.888401 -1.17888,0.88673 -7.41269,3.923646 -13.433589,6.54441 -3.22681,1.40456 -9.138562,4.330989 -13.137223,6.503175 -7.83842,4.258052 -15.500408,8.013825 -18.268101,8.954704 -2.451306,0.833322 -4.878504,0.949849 -7.074826,0.339655 z"
     id="path2" /><path
     style="fill:#ffffff;stroke-width:4.2449;stroke-linecap:round;stroke-linejoin:round"
     d="M 40.505942,92.647081 C 33.87985,89.988513 25.662808,85.97482 24.408496,84.784129 23.906647,84.307733 23.181824,83.09685 22.797778,82.093277 c -0.92083,-2.406278 -2.337013,-8.728735 -2.025049,-9.0407 0.251858,-0.251857 10.452471,4.747133 17.451877,8.552601 3.54443,1.92705 4.123816,2.135244 5.895753,2.118554 1.080775,-0.01018 3.15739,-0.345625 4.614702,-0.745432 3.319521,-0.910698 4.078169,-0.935403 3.776455,-0.122974 -0.593199,1.597308 -4.846828,8.345748 -5.982061,9.49062 -1.590016,1.603516 -2.645949,1.656305 -6.023513,0.301135 z"
     id="path3" /><path
     style="fill:#ffffff;stroke-width:4.2449;stroke-linecap:round;stroke-linejoin:round"
     d="m 80.238609,108.39371 c 0.37543,-0.42707 1.4541,-1.64314 2.39704,-2.70237 0.94293,-1.05923 3.72641,-4.52553 6.1855,-7.702905 2.45908,-3.17737 4.52876,-5.603949 4.59927,-5.392397 0.17139,0.514168 -1.26456,10.016062 -1.79044,11.847632 -0.3518,1.22524 -0.68837,1.59504 -2.18803,2.40403 -2.05637,1.1093 -6.49681,2.32252 -8.50054,2.32252 h -1.38541 z"
     id="path4" /><path
     style="fill:#ffffff;stroke-width:3.00159;stroke-linecap:round;stroke-linejoin:round"
     d="m 72.251388,195.79906 c -1.586377,-3.15515 -3.023127,-4.09603 -7.832919,-5.12949 -2.600696,-0.5588 -12.434793,-2.13337 -19.278533,-3.08674 -4.772402,-0.66482 -4.988697,-0.75007 -5.278955,-2.08065 -0.561866,-2.57564 -0.908302,-3.5534 -1.538929,-4.34335 -2.267659,-2.84057 -11.345715,-20.86642 -13.104208,-26.02038 -0.751625,-2.20293 -0.780256,-4.16266 -0.0664,-4.5447 0.382743,-0.20484 0.694154,-0.19686 1.246518,0.0319 1.703452,0.70559 3.781711,4.38394 7.640869,13.52369 4.035979,9.55852 5.630537,12.56393 6.66921,12.57003 0.22295,9.8e-4 0.965989,0.26343 1.651199,0.58249 1.837612,0.85565 4.251597,1.33236 9.465505,1.86923 5.845463,0.60191 10.28458,1.40203 14.676329,2.64528 4.337214,1.22782 14.999645,4.93506 14.999645,5.21526 0,0.11622 -0.29879,0.61578 -0.66398,1.11014 -1.47485,1.99653 -7.428205,9.56198 -7.524449,9.56198 -0.05677,0 -0.534179,-0.85713 -1.060905,-1.90473 z"
     id="path5" /><path
     style="fill:#ffffff;stroke-width:3.00159;stroke-linecap:round;stroke-linejoin:round"
     d="m 27.168154,184.46505 c -0.985261,-1.05419 -1.663419,-2.08959 -1.978476,-3.02071 -0.14207,-0.41987 -1.436539,-2.72598 -2.876598,-5.12467 -3.477695,-5.79278 -4.849271,-8.28378 -5.99613,-10.88993 -1.179057,-2.67932 -3.145214,-8.42702 -3.145214,-9.19445 0,-0.52565 0.07209,-0.55587 0.979907,-0.41071 0.53895,0.0862 1.407586,0.32782 1.930303,0.53697 0.914106,0.36576 0.970927,0.45647 1.488172,2.37583 1.503113,5.57765 3.743895,10.83572 6.465262,15.17096 3.0154,4.80364 5.367355,11.34981 4.077841,11.34981 -0.1121,0 -0.537381,-0.35689 -0.945067,-0.7931 z"
     id="path6" /><path
     style="fill:#ffffff;stroke-width:1.5008;stroke-linecap:round;stroke-linejoin:round"
     d="m 102.44798,272.85456 c -1.97549,-1.30852 -3.930561,-5.02899 -9.804211,-18.65735 -1.37384,-3.18767 -3.37904,-7.82733 -4.45601,-10.31036 -2.49117,-5.74358 -2.88706,-6.72793 -3.75408,-9.33422 -1.7382,-5.22508 -2.40856,-9.23822 -2.29028,-13.71087 0.0733,-2.77042 0.26698,-4.3475 0.53403,-4.3475 0.59008,0 2.66752,2.8167 3.80731,5.16217 0.38373,0.78965 0.9644,2.40841 1.5906,4.43423 1.9398,6.27547 5.11795,15.9746 10.56913,32.25509 3.266401,9.75539 4.695001,14.25531 4.696811,14.79445 6.4e-4,0.18901 -0.34224,0.0794 -0.8933,-0.28564 z"
     id="path7" /><path
     style="fill:#ffffff;stroke-width:1.5008;stroke-linecap:round;stroke-linejoin:round"
     d="m 125.50477,260.72507 c -1.29692,-6.57964 -2.46268,-9.76366 -7.20898,-19.68972 -0.78201,-1.63544 -1.401,-2.99436 -1.37553,-3.01983 0.0255,-0.0255 0.86338,0.8386 1.86202,1.92015 4.7003,5.09049 6.819,8.23635 7.26373,10.78525 0.16536,0.94772 0.076,10.50113 -0.10565,11.28531 -0.0877,0.37869 -0.13701,0.23361 -0.43559,-1.28116 z"
     id="path8" /><path
     style="fill:#ffffff;stroke-width:1.5008;stroke-linecap:round;stroke-linejoin:round"
     d="m 197.96502,251.18381 c -5.77199,-0.30643 -11.79817,-1.97206 -15.62463,-4.31862 -5.0165,-3.07636 -11.12921,-11.43642 -17.12133,-23.41602 -3.12861,-6.2548 -4.648,-9.87703 -7.98427,-19.0345 -2.29345,-6.2951 -2.77699,-7.565 -2.88057,-7.565 -0.0815,0 -1.09514,1.62301 -1.90512,3.0504 -0.24752,0.43622 -1.43959,2.71486 -2.64902,5.06367 -4.20452,8.16543 -6.39816,11.733 -9.49076,15.43503 -3.38325,4.04994 -9.42488,10.44231 -12.01546,12.71298 -1.35036,1.18361 -1.57086,1.25934 -2.03791,0.69988 -0.40521,-0.48537 -0.82946,-1.55098 -0.82946,-2.08337 0,-0.59495 0.65125,-1.6643 2.15831,-3.54395 4.40594,-5.4952 8.53258,-13.47568 11.75481,-22.73251 2.23096,-6.40913 4.7376,-10.58117 8.61424,-14.33753 2.36331,-2.28999 4.72654,-3.94204 8.03765,-5.61883 3.46379,-1.75411 6.73432,-2.90552 12.9337,-4.55334 11.7433,-3.12141 14.91137,-4.48894 34.34687,-14.82613 1.64381,-0.8743 3.02365,-1.55091 3.06632,-1.50358 0.13183,0.14625 0.46558,1.85728 0.59991,3.07545 0.1612,1.46199 0.30299,8.29872 0.188,9.06547 -0.0754,0.50307 -0.12267,0.5738 -0.38316,0.5738 -0.31493,0 -1.83694,-0.31697 -4.93462,-1.02768 -2.69857,-0.61914 -5.02979,-0.88943 -6.09529,-0.70672 -3.25715,0.55855 -12.0851,4.50186 -12.0851,5.39825 0,0.7904 1.9096,1.63978 11.65253,5.18298 7.8065,2.839 13.15784,4.96988 14.40492,5.736 0.45343,0.27855 0.46274,0.29573 0.16214,0.29932 -0.42001,0.005 -3.31986,-0.5217 -9.44149,-1.71492 -15.57613,-3.03608 -21.62371,-3.89176 -27.51626,-3.89332 -3.53436,-9.4e-4 -7.43164,0.48501 -9.78786,1.22042 -2.53399,0.79091 -2.62825,1.76502 -0.78506,8.11311 1.61708,5.5694 4.7813,14.53844 7.18874,20.37668 2.67615,6.48985 7.11759,13.87068 11.85794,19.70559 3.55868,4.3804 7.85182,8.26099 10.79317,9.75599 3.04144,1.54588 12.35024,3.82978 16.54553,4.05944 l 0.61008,0.0334 -0.45573,0.26934 c -0.58478,0.34561 -1.11479,0.48491 -2.67283,0.70251 -2.4059,0.33601 -5.75507,0.47713 -8.21893,0.34632 z"
     id="path9" /><path
     style="fill:#ffffff;stroke-width:1.5008;stroke-linecap:round;stroke-linejoin:round"
     d="m 210.74826,116.44371 c -0.21697,-0.1323 -1.28467,-1.09874 -2.37266,-2.14765 -1.08799,-1.04892 -2.25497,-2.09352 -2.59328,-2.32135 -0.70026,-0.47159 -1.26308,-0.53641 -1.58348,-0.18237 -0.5843,0.64564 -1.22402,0.21636 -1.76218,-1.1825 -0.48537,-1.26166 -1.38245,-4.88302 -1.80476,-7.28545 -0.30879,-1.75667 -0.34344,-2.23341 -0.34588,-4.758625 -0.002,-2.221677 0.0427,-3.029306 0.21522,-3.876436 0.57088,-2.803286 1.97913,-5.940257 3.83717,-8.547558 0.8149,-1.143521 3.90729,-4.303564 5.7672,-5.893392 3.41503,-2.919107 5.96381,-4.81281 11.3861,-8.45966 l 1.68581,-1.133826 1.12056,0.08331 c 2.19035,0.162859 4.64396,0.446083 5.92346,0.683756 1.28161,0.238068 4.89736,1.313944 4.89736,1.457226 0,0.09762 -2.37953,1.289876 -3.06375,1.535085 -0.29465,0.105595 -1.0848,0.274922 -1.75589,0.376282 -2.55864,0.386456 -7.16011,2.270827 -10.61539,4.347164 -3.58777,2.155956 -7.5808,5.917613 -9.76337,9.197629 -2.06005,3.095892 -2.42797,4.955586 -2.4344,12.304685 -0.005,5.16387 -0.01,5.13377 1.41119,8.39524 2.39412,5.4959 3.08682,7.65076 2.45899,7.64941 -0.11744,-2.4e-4 -0.39105,-0.10869 -0.60802,-0.24097 z"
     id="path10" /><path
     style="fill:#ffffff;stroke-width:1.5008;stroke-linecap:round;stroke-linejoin:round"
     d="m 214.96817,158.38412 c -1.09164,-1.86813 -4.72926,-9.53624 -7.42342,-15.64856 -1.73517,-3.93659 -2.64751,-6.3414 -3.05999,-8.06568 -0.74645,-3.12037 -2.55422,-12.00847 -2.55422,-12.55812 0,-0.33557 0.18915,-0.18197 1.22412,0.99398 1.10295,1.25318 2.33519,2.29769 3.21066,2.72151 0.2958,0.14318 0.93278,0.36979 1.41552,0.50357 1.54754,0.42884 1.77637,0.69435 1.52286,1.76686 -0.0947,0.40043 -0.27824,1.46931 -0.408,2.37527 -0.6087,4.24999 -0.41777,6.97948 0.79804,11.4085 1.19409,4.34988 2.83917,9.2621 4.67877,13.97084 1.02746,2.62991 1.29693,3.41645 1.17053,3.41645 -0.0319,0 -0.29057,-0.39808 -0.57487,-0.88462 z"
     id="path11" /><path
     style="fill:#ffffff;stroke-width:1.5008;stroke-linecap:round;stroke-linejoin:round"
     d="m 310.14719,193.84905 -5.67498,-5.67499 -2.93748,-0.532 c -3.54239,-0.64155 -4.4224,-0.75195 -7.42108,-0.931 -6.36709,-0.38018 -15.97109,0.53061 -25.30641,2.39992 -4.60674,0.92246 -9.9727,2.24663 -12.86892,3.17568 -0.72957,0.23403 -1.35099,0.401 -1.38095,0.37105 -0.03,-0.03 0.29243,-0.30186 0.71641,-0.60422 3.17444,-2.26389 14.59481,-8.61322 18.92075,-10.51929 1.50392,-0.66265 1.5591,-0.7601 0.86528,-1.52808 -0.88614,-0.98084 -3.51187,-2.45941 -7.78969,-4.38641 -3.96049,-1.78406 -7.09583,-3.44646 -9.14914,-4.85102 -1.12145,-0.76713 -3.62222,-2.73478 -3.55771,-2.79929 0.11579,-0.1158 2.34959,0.52387 4.32652,1.23893 7.19038,2.60078 22.64743,8.88913 30.85447,12.55241 5.80302,2.59024 8.82367,3.83408 12.48346,5.14043 1.1744,0.4192 2.63204,1.01213 3.23918,1.31761 2.84938,1.43367 5.28129,3.53185 7.42602,6.40698 0.8466,1.1349 3.07504,4.75248 2.98377,4.84374 -0.03,0.03 -2.60826,-2.49922 -5.7295,-5.62045 z"
     id="path12" /><path
     style="fill:#ffffff;stroke-width:2.12244;stroke-linecap:round;stroke-linejoin:round"
     d="m 339.78421,270.71003 c -1.59674,-2.18951 -1.86406,-3.51135 -1.6035,-7.92874 0.32557,-5.51955 1.83622,-11.49456 4.04449,-15.99708 1.10256,-2.24804 3.35719,-5.30796 6.03937,-8.19644 6.59162,-7.09866 10.69474,-13.26716 16.12661,-24.24423 3.99238,-8.06802 6.17699,-13.06373 6.86675,-15.70265 0.9935,-3.80096 1.2478,-8.72602 0.79534,-15.40343 l -0.10833,-1.59888 0.59358,-0.55808 c 0.59538,-0.55976 2.688,-1.82353 6.30591,-3.80822 3.00992,-1.65117 4.82684,-3.04066 8.12745,-6.21553 5.03584,-4.84397 6.24251,-5.5829 7.50074,-4.59318 0.53529,0.42106 2.06825,2.8943 1.96298,3.16703 -0.0411,0.10632 -0.57966,0.81849 -1.19695,1.58261 -1.48515,1.83843 -3.50359,3.69727 -6.30892,5.81008 -3.99459,3.0085 -6.24379,5.37859 -6.24379,6.57939 0,0.95867 2.44364,2.87296 3.66743,2.87296 1.32555,0 8.4962,-1.68545 12.41289,-2.91764 2.63424,-0.82872 4.98886,-1.3374 10.9248,-2.36012 6.9931,-1.20488 7.63862,-1.41852 8.53008,-2.82316 0.88621,-1.39636 1.06416,-2.34704 1.21297,-6.48013 0.12284,-3.41198 0.18042,-3.91852 0.56879,-5.00415 0.65188,-1.82222 1.71397,-4.15387 3.43996,-7.55188 1.37221,-2.70149 1.67627,-3.17329 2.5611,-3.97401 0.55222,-0.49973 1.59623,-1.24744 2.32002,-1.66156 1.28504,-0.73524 3.51369,-1.65059 3.66075,-1.50354 0.0405,0.0406 -0.31353,0.84547 -0.78686,1.7887 -1.50617,3.00139 -3.93446,8.97244 -6.22953,15.31809 -2.10403,5.81744 -2.50939,7.63974 -2.5046,11.25933 0.002,1.44732 -0.0632,2.63149 -0.14462,2.63149 -0.0814,0 -2.10194,0.27459 -4.48996,0.61021 -12.22278,1.71783 -15.44305,2.59258 -20.17806,5.48113 -2.18969,1.3358 -3.7362,1.96051 -7.1726,2.89733 -8.3864,2.28628 -15.61276,4.98126 -16.33765,6.09294 -0.43033,0.65993 -0.57715,1.87158 -0.76534,6.31542 -0.1025,2.42011 -0.26489,5.06023 -0.3609,5.86693 -0.41505,3.48774 -1.39529,5.92178 -3.55179,8.81941 -1.749,2.3501 -3.26972,4.76401 -5.31472,8.43626 -2.1315,3.8276 -4.12774,6.82507 -6.12797,9.20156 -4.69492,5.57807 -13.89384,18.85388 -15.80366,22.80772 -1.13576,2.35133 -1.27789,3.09842 -1.47624,7.75959 -0.0968,2.27476 -0.1914,4.15039 -0.21021,4.16808 -0.0188,0.0177 -0.35443,-0.40694 -0.74581,-0.94361 z"
     id="path13" /><path
     style="fill:#ffffff;stroke-width:1.06123;stroke-linecap:round;stroke-linejoin:round"
     d="m 432.34167,182.71017 c 0.10486,-0.74456 0.81552,-4.15494 1.34583,-6.45852 2.01221,-8.74069 4.38841,-16.73241 5.64952,-19.00057 0.35431,-0.63725 0.94105,-1.09341 2.18533,-1.69902 0.93926,-0.45715 1.21333,-0.49931 1.21333,-0.18668 0,0.34929 -0.56271,2.18914 -1.12674,3.68398 -0.87389,2.31612 -1.74179,4.26986 -3.23412,7.28028 -1.99342,4.02127 -2.97485,6.60327 -4.08523,10.74756 -0.90623,3.3823 -1.70061,5.86269 -1.92133,5.9991 -0.0551,0.0341 -0.0645,-0.0964 -0.0265,-0.36613 z"
     id="path14" /><path
     style="fill:#ffffff;stroke-width:1.5008;stroke-linecap:round;stroke-linejoin:round"
     d="m 404.72118,115.11227 c 2.98635,-1.19695 6.06115,-2.45064 6.8329,-2.78597 5.23199,-2.27334 9.64938,-4.38154 14.99224,-7.15505 1.90394,-0.98835 3.48404,-1.77467 3.51133,-1.74738 0.0689,0.0689 -5.27708,5.16628 -6.546,6.24161 -2.37936,2.01638 -4.26171,3.24204 -7.3149,4.76304 -3.42288,1.70515 -4.66136,2.12321 -7.02198,2.37039 -1.05248,0.11019 -8.6631,0.50244 -9.56526,0.49297 -0.17492,-0.002 2.12533,-0.98266 5.11167,-2.17961 z"
     id="path15" /><path
     style="fill:#ffffff;stroke-width:1.5008;stroke-linecap:round;stroke-linejoin:round"
     d="m 375.90561,105.16623 c -3.00087,-2.14533 -7.63698,-5.733425 -10.61386,-8.214541 -2.61922,-2.183025 -3.52905,-3.455083 -6.00645,-8.397804 -0.90637,-1.808327 -2.28236,-4.413465 -3.05775,-5.789196 -1.50888,-2.677125 -2.40819,-4.592402 -2.72688,-5.807522 -0.19333,-0.737098 -0.19065,-0.783499 0.11667,-2.018557 0.693,-2.784919 2.49908,-6.861586 3.62162,-8.174616 l 0.40905,-0.47848 0.81111,0.451194 c 0.4461,0.248158 2.59558,1.560022 4.77661,2.915256 4.68973,2.91406 7.1437,4.342271 10.37136,6.036137 4.90979,2.576635 9.43964,5.295897 16.83822,10.10795 l 1.5252,0.991995 -0.91512,0.0018 c -1.6103,0.0031 -12.05359,0.356473 -14.58092,0.493319 -2.87796,0.15583 -6.17,0.436022 -7.19895,0.612717 -0.79958,0.13731 -2.62334,0.814887 -2.62334,0.974648 0,0.134786 2.61813,4.937667 3.35616,6.156784 1.26253,2.085489 3.08443,4.859791 4.68755,7.137926 2.1403,3.04155 2.72642,3.91247 2.67061,3.96829 -0.0247,0.0247 -0.68213,-0.41055 -1.46089,-0.96729 z"
     id="path16" /><path
     style="fill:#ffffff;stroke-width:1.5008;stroke-linecap:round;stroke-linejoin:round"
     d="m 390.3843,68.272499 c -0.7382,-0.326153 -2.33051,-1.135165 -3.53847,-1.797805 -4.70519,-2.581086 -8.18094,-4.089067 -12.9337,-5.611388 -10.90443,-3.49272 -11.68714,-3.770815 -12.36722,-4.394062 -0.381,-0.349163 -0.43006,-0.462719 -0.42763,-0.989815 0.005,-1.121156 1.23803,-3.536986 3.75967,-7.367292 3.23436,-4.912892 7.36559,-9.967784 9.52897,-11.659433 3.68957,-2.885047 12.80027,-7.462401 17.33566,-8.70969 0.72989,-0.200731 1.91064,-0.449268 2.6239,-0.552308 1.68841,-0.243912 5.36164,-0.243928 7.80678,-3.5e-5 2.6593,0.265257 7.20159,0.981611 8.80997,1.389403 2.42529,0.61491 2.83906,0.810043 7.52676,3.549602 3.22428,1.884316 6.99292,3.566595 12.04883,5.378481 1.76147,0.631255 3.20279,1.190771 3.20292,1.243367 3e-4,0.108783 -3.45498,4.625907 -5.29351,6.920292 -0.6722,0.83886 -1.74648,2.050214 -2.38729,2.691897 -1.28157,1.283317 -2.08181,1.772119 -2.72867,1.666735 -0.21378,-0.03483 -1.87119,-0.596197 -3.68312,-1.247486 -7.88972,-2.835901 -8.6789,-3.033795 -13.42177,-3.365623 -2.89452,-0.202509 -8.31982,-0.216812 -8.75465,-0.02307 -0.46593,0.207597 -0.44389,0.731568 0.076,1.806198 1.85139,3.826884 8.26293,9.228593 13.46778,11.346585 0.62076,0.252603 1.12865,0.498929 1.12865,0.547393 0,0.223945 -15.29056,7.843369 -18.36341,9.150654 -1.71734,0.730606 -1.82296,0.731454 -3.41645,0.02741 z"
     id="path17" /><path
     style="fill:#ffffff;stroke-width:1.06123;stroke-linecap:round;stroke-linejoin:round"
     d="m 206.54865,315.4577 c -3.6715,-0.40958 -7.14323,-1.21959 -10.95735,-2.55653 -1.49122,-0.52271 -2.727,-1.02105 -5.52181,-2.22675 -4.45081,-1.9201 -5.65201,-2.19861 -9.49063,-2.20052 -2.28872,-9.7e-4 -4.07421,-0.18379 -4.22794,-0.43255 -0.0279,-0.0452 0.65215,-2.20861 1.51123,-4.80767 4.03596,-12.21033 4.31773,-13.2572 4.32051,-16.05169 0.002,-1.90624 -0.32257,-3.56963 -1.52186,-7.80189 -0.72819,-2.56976 -1.18473,-4.45811 -1.88355,-7.79086 -0.54828,-2.61478 -0.82754,-4.06678 -2.33974,-12.16525 -0.40759,-2.18284 -0.88099,-4.60942 -1.052,-5.3924 -0.39102,-1.79029 -0.40871,-1.89812 -0.31157,-1.89812 0.28327,0 3.25427,4.03462 4.78914,6.50367 0.38702,0.62258 1.9442,3.44207 3.4604,6.26553 6.70914,12.49375 7.00277,12.92929 15.95244,23.66184 2.1269,2.5506 3.84626,4.63746 3.8208,4.63746 -0.0255,0 -0.94809,-0.48062 -2.05029,-1.06805 -5.03147,-2.68159 -7.46179,-3.7403 -9.54093,-4.1563 -0.90368,-0.18081 -2.17914,-0.13654 -2.85758,0.0992 -0.901,0.31305 -1.02576,0.80663 -0.87058,3.44438 0.314,5.33717 0.42111,5.68091 2.41368,7.74603 2.02531,2.09905 4.92733,4.15543 8.12966,5.76072 2.82788,1.41757 4.18848,1.70749 7.53549,1.60567 3.09707,-0.0942 7.11851,-0.78326 12.40421,-2.12535 8.94599,-2.27147 17.44837,-5.28212 23.14563,-8.19575 2.06171,-1.05438 3.49337,-1.62646 3.49337,-1.39594 0,0.16753 -1.13941,1.30796 -2.15695,2.1589 -4.17333,3.49001 -13.68695,9.92507 -20.12522,13.61281 -3.791,2.17142 -7.4533,3.79195 -10.15849,4.49501 -1.15025,0.29895 -1.19001,0.30303 -3.1923,0.32707 -1.11514,0.0134 -2.33815,-0.0103 -2.71777,-0.0526 z"
     id="path18" /><path
     style="fill:#ffffff;stroke-width:1.06123;stroke-linecap:round;stroke-linejoin:round"
     d="m 219.36099,337.71507 c -4.86879,-0.53327 -9.90757,-2.12622 -22.78011,-7.20163 -2.25258,-0.88815 -4.63915,-1.80677 -5.30349,-2.04138 -3.95518,-1.39676 -5.537,-1.22527 -4.269,0.46283 0.71394,0.95045 2.17112,2.56477 4.73837,5.2493 2.58548,2.7036 3.34617,3.53741 3.22717,3.53741 -0.0673,0 -1.45047,-0.74076 -8.05361,-4.31311 -3.87893,-2.09854 -8.59201,-4.43021 -12.10143,-5.98688 -0.70043,-0.31069 -2.54463,-1.07596 -4.09823,-1.7006 -3.42631,-1.3776 -4.33458,-1.81218 -4.33458,-2.07394 0,-0.13296 0.48663,-0.32241 1.17093,-0.45584 1.66333,-0.32433 5.89907,-0.51638 10.11282,-0.45852 4.95769,0.068 4.70526,0.007 14.85859,3.58191 12.31813,4.33687 15.75201,5.36026 19.60291,5.84219 2.63065,0.32922 8.37815,0.37017 11.18495,0.0797 2.23194,-0.23099 4.74306,-0.77157 8.98647,-1.93453 8.1653,-2.23782 18.06726,-5.80148 23.86189,-8.58775 1.48905,-0.71599 2.42377,-1.09986 2.56416,-1.05305 0.21301,0.071 -1.21909,1.0342 -2.9152,1.96072 -1.37978,0.75371 -5.56052,3.24332 -9.89221,5.89076 -6.35033,3.88119 -8.27283,4.98896 -10.8146,6.23152 -3.25186,1.5897 -5.2564,2.20932 -8.96553,2.77132 -1.24018,0.18791 -1.83703,0.22784 -3.76052,0.25163 -1.25751,0.0155 -2.6164,-0.008 -3.01975,-0.052 z"
     id="path19" /><path
     style="fill:#ffffff;stroke-width:1.06123;stroke-linecap:round;stroke-linejoin:round"
     d="m 165.65271,387.65456 c 0.0949,-0.0667 0.75494,-0.43648 1.46673,-0.82177 1.48383,-0.80318 3.62232,-1.78746 6.16891,-2.83937 7.47059,-3.08582 11.3785,-5.02081 14.34205,-7.10144 0.96514,-0.67759 2.0473,-1.722 2.29841,-2.21823 0.40568,-0.80168 0.1651,-1.57869 -0.80539,-2.60118 -1.71657,-1.80857 -4.32094,-3.50259 -12.81533,-8.33584 -11.21329,-6.38028 -14.53154,-8.49971 -27.69536,-17.68958 -5.07148,-3.54048 -7.85687,-5.45373 -10.69852,-7.34868 -13.64856,-9.1015 -22.00937,-13.40934 -31.93393,-16.45369 -6.271721,-1.92384 -8.842561,-2.27562 -11.364771,-1.55508 -1.03432,0.29549 -3.30312,1.42371 -4.54265,2.25897 -4.16192,2.80453 -5.95605,6.28935 -6.34742,12.32887 -0.27064,4.17645 0.37217,7.70339 2.26823,12.44523 1.03302,2.58348 2.20069,5.06735 5.69309,12.11037 1.85375,3.73842 3.35301,6.81458 3.33168,6.83591 -0.0751,0.0751 -5.08691,-4.40975 -9.68666,-8.66818 -4.17534,-3.8655 -8.601643,-8.29444 -9.821051,-9.82689 -0.403351,-0.5069 -0.544186,-0.83436 -1.84044,-4.27921 -2.314067,-6.14975 -2.600514,-7.45693 -2.511581,-11.46138 0.04897,-2.20512 0.126905,-2.6245 0.711797,-3.83036 1.277776,-2.63433 6.166315,-8.94499 9.282485,-11.98283 3.21628,-3.13543 5.69073,-4.00117 12.8024,-4.47922 10.814241,-0.72692 19.172261,-0.0768 26.556881,2.06558 3.20616,0.93016 6.58182,2.39888 8.9898,3.91138 1.30812,0.82166 3.88296,2.6084 5.43555,3.77186 1.27407,0.95476 1.71183,1.33704 1.5311,1.33704 -0.0505,0 -0.64858,-0.29261 -1.32911,-0.65025 -2.33604,-1.22763 -4.51769,-2.2668 -5.93951,-2.82912 -4.36668,-1.72697 -8.74316,-2.57902 -13.09745,-2.54991 -1.76818,0.0118 -2.03424,0.0496 -2.06937,0.29398 -0.0419,0.29143 0.47056,0.94762 1.2155,1.55642 1.39451,1.13969 3.44576,2.39829 7.86869,4.82805 9.41621,5.17284 22.60826,13.5119 31.78033,20.08921 4.48565,3.21667 8.46325,5.82355 13.60209,8.9147 7.59602,4.56919 16.12833,8.93313 20.47284,10.47104 0.41341,0.14635 3.31411,1.06198 6.44602,2.03475 3.13189,0.97276 6.33498,2.02074 7.11796,2.32883 3.61194,1.42125 7.57417,3.71845 7.39816,4.28925 -0.0737,0.23902 -0.6783,0.41359 -1.70125,0.49124 -1.19353,0.0906 -1.82309,0.2356 -2.83098,0.65205 -1.83071,0.75643 -4.13695,2.02667 -9.89761,5.4515 -6.52919,3.88172 -11.15516,6.09724 -15.34525,7.34934 -3.57216,1.06744 -5.84464,1.39932 -11.2285,1.63983 -1.09142,0.0488 -2.31441,0.11102 -2.71776,0.13835 -0.64578,0.0437 -0.71275,0.0352 -0.56081,-0.0716 z"
     id="path20" /><path
     style="fill:#ffffff;stroke-width:1.5008;stroke-linecap:round;stroke-linejoin:round"
     d="m 138.75475,421.23262 c -1.11477,-0.44783 -2.83151,-2.08939 -3.40307,-3.25404 -0.31432,-0.64049 -0.34694,-0.82737 -0.34694,-1.98811 0,-1.18303 0.0293,-1.34308 0.38292,-2.08933 0.2106,-0.44449 0.59332,-1.04106 0.85049,-1.32572 1.12045,-1.2402 5.29996,-3.57393 9.68703,-5.40899 2.71216,-1.13446 4.85104,-2.09007 7.53754,-3.36762 5.82874,-2.77181 8.38759,-3.3646 25.29672,-5.86025 l 4.09947,-0.60507 5.70077,-3.42186 c 8.08742,-4.85446 12.18016,-7.20501 12.5452,-7.20501 0.39594,0 0.90125,1.50985 1.51093,4.51459 0.18382,0.90598 0.33907,1.65724 0.34497,1.66948 0.0402,0.0833 3.76229,0.52681 4.42101,0.52681 1.56448,0 2.43366,-0.75289 4.1785,-3.61944 3.22969,-5.30602 4.38549,-6.61311 7.2489,-8.19776 2.22086,-1.22906 4.0796,-1.93129 12.64923,-4.77891 6.4871,-2.15562 10.71527,-3.64289 11.53051,-4.05593 0.92892,-0.47064 1.96559,-1.37437 5.00266,-4.36114 3.20672,-3.15361 3.987,-3.80483 5.98482,-4.99491 1.42312,-0.84773 5.66183,-2.97698 7.16489,-3.59918 2.19991,-0.91065 2.65844,-0.72346 3.07466,1.25518 0.41591,1.97709 0.99327,7.70208 0.89971,8.92113 -0.0334,0.43504 -0.10347,0.57725 -0.34688,0.70392 -0.16776,0.0873 -4.39562,2.05871 -9.39523,4.3809 -16.18718,7.51853 -20.50779,9.44052 -24.64724,10.96416 -7.29412,2.68481 -8.76465,3.42917 -12.10274,6.12628 -1.92472,1.55513 -2.98378,2.24987 -4.95721,3.2519 -4.01715,2.03977 -9.49996,3.96054 -16.0674,5.62882 -5.4273,1.37865 -9.7325,2.17982 -16.10232,2.99653 -4.52316,0.57994 -8.02556,1.12677 -12.87649,2.0104 -8.44991,1.53921 -16.1552,3.2176 -19.09551,4.15945 -2.9537,0.94613 -8.43286,4.05417 -10.20635,5.78953 l -0.74695,0.7309 0.0637,0.75922 c 0.035,0.41757 0.26209,1.36841 0.50449,2.11299 0.24242,0.74458 0.44075,1.44465 0.44075,1.5557 0,0.22456 -0.37012,0.25835 -0.8256,0.0754 z"
     id="path21" /><path
     style="fill:#ffffff;stroke-width:1.5008;stroke-linecap:round;stroke-linejoin:round"
     d="m 278.76801,384.67687 c -0.52888,-1.054 -1.19318,-5.18712 -2.46835,-15.35754 -0.82888,-6.6109 -1.51218,-11.44669 -2.14042,-15.14785 -0.65407,-3.85337 -0.80957,-5.52629 -0.62543,-6.72873 0.2844,-1.85715 1.1446,-3.03196 3.39645,-4.63868 2.90029,-2.06937 9.94941,-6.3209 13.03484,-7.8617 1.32023,-0.65928 1.64722,-0.77295 1.64722,-0.57257 0,0.25379 -0.84956,1.82732 -1.80727,3.34738 -2.80041,4.44474 -4.1884,6.92963 -6.90933,12.36954 l -2.00321,4.00498 -0.37117,4.99048 c -0.6751,9.07652 -0.8217,11.88269 -0.99057,18.9613 -0.14703,6.16324 -0.30581,7.54404 -0.76276,6.63339 z"
     id="path22" /><path
     style="fill:#ffffff;stroke-width:1.5008;stroke-linecap:round;stroke-linejoin:round"
     d="m 292.16831,356.4195 c -0.26883,-0.38383 -0.23623,-1.11017 0.10959,-2.44115 0.55393,-2.13196 1.79279,-5.06061 2.956,-6.98795 2.21226,-3.66553 6.25798,-7.4731 14.25265,-13.41368 3.79648,-2.82105 5.83308,-4.11684 13.0201,-8.28408 7.83409,-4.54243 10.0782,-5.94949 11.00403,-6.89954 0.70544,-0.72388 0.57825,-0.86957 -0.75914,-0.86957 -2.56451,0 -7.50016,1.3197 -11.85537,3.16989 -4.0482,1.71978 -5.61774,2.18219 -3.81896,1.12514 2.23598,-1.31396 8.74857,-4.09088 11.6653,-4.974 4.66669,-1.41294 18.84546,-3.74925 28.88048,-4.75877 2.32319,-0.2337 9.23328,-0.38576 9.41194,-0.2071 0.0834,0.0834 -0.0282,0.1506 -0.34313,0.20678 -0.25667,0.0458 -1.42755,0.30266 -2.60196,0.57085 -6.78141,1.54861 -9.55011,2.8014 -17.44829,7.89508 -4.98996,3.21812 -8.49489,5.05305 -13.42176,7.02665 -4.58329,1.83597 -5.80643,2.47472 -5.7098,2.98179 0.0267,0.14035 0.2627,0.24763 0.76942,0.34982 1.7648,0.35595 7.81869,1.02767 11.4583,1.2714 1.23976,0.0831 2.22857,0.19228 2.19734,0.24279 -0.17752,0.28724 -3.73375,1.2925 -12.25373,3.46381 -9.80846,2.49969 -14.11193,3.89969 -18.72946,6.093 -5.11532,2.42977 -8.16572,4.71084 -13.48277,10.08241 -3.53239,3.56859 -4.66815,4.62761 -4.963,4.62761 -0.0813,0 -0.23331,-0.12204 -0.33778,-0.27118 z"
     id="path23" /></svg>
