<?xml version="1.0" encoding="UTF-8" standalone="no"?>
<!-- Created with Inkscape (http://www.inkscape.org/) -->

<svg
   width="392.89648"
   height="337.59518"
   viewBox="0 0 392.89649 337.59519"
   version="1.1"
   id="svg1"
   xml:space="preserve"
   sodipodi:docname="Template.svg"
   inkscape:version="1.4 (86a8ad7, 2024-10-11)"
   inkscape:export-filename="..\magic\Mage_Clairvoyance.svg"
   inkscape:export-xdpi="96"
   inkscape:export-ydpi="96"
   xmlns:inkscape="http://www.inkscape.org/namespaces/inkscape"
   xmlns:sodipodi="http://sodipodi.sourceforge.net/DTD/sodipodi-0.dtd"
   xmlns="http://www.w3.org/2000/svg"
   xmlns:svg="http://www.w3.org/2000/svg"><sodipodi:namedview
     id="namedview1"
     pagecolor="#ffffff"
     bordercolor="#000000"
     borderopacity="0.25"
     inkscape:showpageshadow="2"
     inkscape:pageopacity="0.0"
     inkscape:pagecheckerboard="true"
     inkscape:deskcolor="#d1d1d1"
     inkscape:zoom="1.6959064"
     inkscape:cx="131.19828"
     inkscape:cy="318.11897"
     inkscape:window-width="2560"
     inkscape:window-height="1494"
     inkscape:window-x="585"
     inkscape:window-y="2149"
     inkscape:window-maximized="1"
     inkscape:current-layer="svg1"><inkscape:page
       x="0"
       y="0"
       width="392.89648"
       height="337.59518"
       id="page2"
       margin="0"
       bleed="0" /></sodipodi:namedview><defs
     id="defs1"><inkscape:path-effect
       effect="bspline"
       id="path-effect79"
       is_visible="true"
       lpeversion="1.3"
       weight="33.333333"
       steps="2"
       helper_size="0"
       apply_no_weight="true"
       apply_with_weight="true"
       only_selected="false"
       uniform="false" /><inkscape:path-effect
       effect="bspline"
       id="path-effect78"
       is_visible="true"
       lpeversion="1.3"
       weight="33.333333"
       steps="2"
       helper_size="0"
       apply_no_weight="true"
       apply_with_weight="true"
       only_selected="false"
       uniform="false" /></defs><path
     id="rect83"
     style="fill:#1a1a1a;stroke:none;stroke-width:9.214;stroke-linecap:round;stroke-linejoin:round;stroke-dasharray:none;stroke-dashoffset:0"
     d="M 4.7536447e-7,61.51528 V 89.91763 C 0.55756947,90.91169 1.1133545,91.92417 1.6484385,93.0602 c 2.70836,5.75008 5.123671,13.16598 7.832031,18.79102 1.3136405,2.7283 2.6935655,5.02734 3.9589855,6.93164 -0.01953,1.00038 -0.06711,1.82471 -0.06836,2.96875 -0.0097,8.84952 -0.03985,9.10364 -1.105469,9.37109 -1.59885,0.40129 -2.3011455,2.43205 -2.2910155,6.62305 0.01536,6.37295 2.4818905,15.78944 5.1503905,19.66797 1.45782,2.11888 4.417551,3.83203 6.619141,3.83203 0.75273,0 1.03712,0.52749 1.3125,2.44336 0.55182,3.83908 4.240049,14.40735 6.474609,18.55078 1.98875,3.68765 2.03125,3.87848 2.03125,9.0332 0,7.901 -1.665533,12.66806 -6.089843,17.4336 C 21.26227,213.24182 16.364537,216.0053 4.7536448e-7,223.13052 v 90.73047 C 5.4023965,313.87619 7.1284415,313.91709 14.611329,313.92349 l 47.582028,0.041 0.92383,-11.18359 c 1.64195,-19.87236 2.93881,-28.3957 5.56836,-36.61914 4.14068,-12.9492 11.98199,-23.60406 22.35547,-30.37891 2.02765,-1.32424 6.4238,-3.49758 9.769533,-4.82812 8.64522,-3.43805 20.22266,-8.56952 20.22266,-8.96289 0,-0.18332 -2.83442,-1.47917 -6.29883,-2.88086 -14.57376,-5.89654 -19.926443,-9.38566 -22.646483,-14.76172 -1.73492,-3.42889 -2.91409,-8.83988 -2.92579,-13.42188 -0.008,-3.30186 0.10149,-3.625 2.06836,-6.11328 3.67789,-4.65287 8.72071,-16.98869 8.72071,-21.33008 0,-0.97934 0.475493,-1.45002 2.218753,-2.19726 3.96971,-1.70163 6.28116,-5.34816 8.28906,-13.07618 2.51638,-9.68502 2.14996,-15.31193 -1.09375,-16.74023 -1.48369,-0.65331 -1.6094,-0.87528 -1.28711,-2.3125 0.20087,-0.89577 0.30489,-2.63559 0.35156,-4.68945 1.67872,-2.27648 3.88813,-5.49768 5.93555,-9.75 2.70836,-5.62504 5.12563,-13.04095 7.83398,-18.79102 2.70836,-5.75007 5.70701,-9.83394 8.95703,-10.70898 3.25003,-0.87504 6.75127,1.45896 9.66797,5.33398 2.91671,3.87503 5.2487,9.29233 7.58203,14.70899 0,0.16667 0.001,0.33203 0.16797,-2.91797 0.16667,-3.25 0.4987,-9.9166 -2.16797,-17.375 -2.66666,-7.4584 -8.33327,-15.70694 -13.875,-19.08203 -5.54172,-3.37508 -10.95827,-1.87632 -16,2.83203 -5.04172,4.70835 -9.70828,12.62623 -14.125,16.91797 -1.74526,1.69589 -3.450203,2.81798 -5.132813,3.60547 -2.51981,-2.76462 -5.41,-5.27148 -8.75195,-7.50782 -8.846,-5.91949 -16.98074,-8.75351 -26.62109,-9.27344 -1.71194,-0.0923 -3.39021,-0.10109 -5.03516,-0.0254 -11.51469,0.53024 -21.406817,5.18581 -29.941408,14.07227 -0.0066,0.007 -0.01099,0.0127 -0.01758,0.0195 -1.79044,-0.79232 -3.606306,-1.95192 -5.466796,-3.75976 C 17.022733,78.47544 12.356173,70.55952 7.3144525,65.85117 4.9505415,63.64357 2.5031165,62.14058 -1.5246355e-6,61.51523 Z" /><path
     id="rect82"
     style="fill:#000000;stroke:none;stroke-width:12.0101;stroke-linecap:round;stroke-linejoin:round;stroke-dasharray:none;stroke-dashoffset:0"
     d="m 304.79102,46.71059 c -4.40334,0.0982 -8.51226,0.5399 -11.58984,1.34571 -5.57508,1.45974 -10.96545,3.80759 -15.38868,6.70312 -4.11584,2.69429 -11.50699,9.26254 -14.36718,12.76953 -4.12514,5.05802 -7.59237,14.27037 -8.66407,23.01563 -0.66489,5.42509 -0.69917,15.8665 -0.0645,19.53906 0.36444,2.10796 0.29972,2.66435 -0.36133,3.08594 -3.25773,2.07768 -3.47816,2.51522 -3.65625,7.28125 -0.26933,7.20749 2.32374,18.3762 5.31641,22.89844 1.15385,1.74358 4.56153,4.67936 5.98047,5.15234 0.28583,0.0953 0.85341,2.13449 1.25976,4.53125 1.3706,8.08408 4.42268,15.85263 8.14454,20.72852 1.83161,2.39967 1.83712,2.41965 1.82812,7.67187 -0.0212,12.47803 -3.78379,19.62334 -13.04883,24.78711 -3.36432,1.87505 -4.917,2.58472 -29.35742,13.39453 -25.11668,11.1089 -29.83969,13.72337 -35.89453,19.87696 -6.74411,6.85403 -11.94344,16.58653 -14.74414,27.59765 -2.53266,9.95725 -7.11802,48.85303 -6.43555,54.58789 0.87649,7.36525 5.92474,13.18373 13.11914,15.11719 2.432,0.65359 18.59258,0.75986 119.8125,0.78906 41.80551,0.0121 68.13939,0.0327 86.2168,-0.0488 v -115.4844 c -4.42892,-1.95377 -9.14624,-3.91521 -13.99219,-5.75977 -19.49027,-7.41869 -26.13544,-10.63477 -30.68164,-14.84375 -5.40175,-5.00106 -8.10762,-12.8198 -7.32812,-21.17578 0.31676,-3.39558 0.57167,-4.10113 2.13086,-5.91211 2.11158,-2.45264 5.9033,-10.10581 7.11132,-14.35156 0.4754,-1.67085 1.26459,-5.01477 1.75391,-7.43164 0.82234,-4.06182 0.99728,-4.4235 2.32031,-4.77734 0.78723,-0.21053 2.00276,-0.91551 2.70117,-1.56641 3.04237,-2.83539 6.22724,-12.03183 7.34571,-21.21289 0.86707,-7.11733 0.0421,-10.22803 -3.15039,-11.87891 -1.52059,-0.78635 -1.57465,-0.92432 -1.24024,-3.15429 0.56268,-3.75233 0.41053,-18.03495 -0.24219,-22.7793 -1.48063,-10.76195 -4.85483,-17.22125 -13.17578,-25.22266 -6.6729,-6.41666 -13.99067,-11.03017 -20.61718,-12.99804 -4.43684,-1.3176 -10.54357,-2.08826 -16.56641,-2.25977 -1.50571,-0.0429 -3.00683,-0.0483 -4.47461,-0.0156 z" /><path
     id="path73"
     style="fill:#cccccc;stroke:#000000;stroke-width:9.214;stroke-dasharray:18.428, 9.214;stroke-dashoffset:0"
     d="m 179.4336,75.12466 c -6.62481,0.21116 -13.22163,1.3653 -18.12891,3.4082 -10.20157,4.24694 -18.97625,12.37183 -23.80273,22.03906 -3.88852,7.78855 -5.75855,15.48187 -9.24805,38.05078 -2.96241,19.15989 -4.36986,26.19932 -7.45898,37.2793 -3.90465,14.00506 1.02994,19.84193 19.38086,22.92188 3.37576,0.56657 7.07246,1.40423 8.21484,1.86132 l 2.07812,0.83008 -0.24414,3.7793 c -0.19291,3.00593 -0.62718,4.55724 -2.12695,7.5918 -3.44244,6.96531 -7.01159,9.24046 -30.14844,19.22265 -18.369563,7.92539 -18.781603,8.12001 -22.843753,10.72266 -4.21474,2.70041 -7.2011,5.43609 -10.33007,9.46484 -6.70931,8.63848 -10.18569,19.69664 -12.83594,40.83399 -2.09775,16.73089 -2.54807,22.85865 -1.86133,25.33984 0.76245,2.75463 3.2797,5.65783 5.95898,6.875 1.94018,0.88138 4.57316,0.93657 44.857433,0.94727 l 42.79882,0.0117 0.23047,-1.15626 c 0.12676,-0.6363 0.49076,-4.62895 0.81055,-8.87109 0.90405,-11.9929 2.50803,-28.70997 3.37891,-35.22265 2.93339,-21.93699 9.62455,-36.88267 21.64843,-48.35743 5.19651,-4.95919 9.68359,-7.90741 19.34375,-12.70703 4.30412,-2.1385 7.92776,-3.97056 8.05078,-4.07226 0.12303,-0.10165 -0.61784,-1.04817 -1.64453,-2.10352 -2.49918,-2.56893 -3.95289,-5.93682 -3.96679,-9.18359 -0.0136,-3.16717 -0.0318,-3.15817 8.72851,-5.03516 6.78349,-1.45345 8.88116,-2.14112 13.14063,-4.30859 5.42075,-2.75841 8.45703,-6.92203 8.45703,-11.59766 0,-1.24956 -0.91604,-6.05773 -2.03516,-10.68555 -2.79382,-11.55308 -4.15639,-18.51127 -7.48633,-38.21875 -3.32861,-19.69963 -3.45035,-20.29806 -5.22265,-25.73046 -5.10693,-15.6537 -15.56415,-26.92457 -29.39649,-31.6836 -5.01823,-1.72652 -11.67206,-2.45726 -18.29687,-2.24609 z" /><path
     style="fill:#000000;stroke:none;stroke-width:13.25;stroke-linecap:round;stroke-linejoin:round;stroke-dasharray:none"
     d="m 420.01812,195.05903 c 1.56153,-5.77471 4.14117,-6.99038 7.72914,-10.30885 3.58797,-3.31847 8.18407,-8.73952 10.60002,-11.6858 2.41595,-2.94628 2.65165,-3.41768 2.88735,-3.88908 -4.71405,10.3709 -9.42809,20.7418 -13.4056,29.46285 -3.97751,8.72105 -7.21835,15.79198 -8.56709,14.16055 -1.34874,-1.63144 -0.80535,-11.96497 0.75618,-17.73967 z"
     id="path78"
     inkscape:path-effect="#path-effect78"
     inkscape:original-d="m 419,190.5 c 2.57965,-1.21568 5.15929,-2.43136 7.73894,-3.64703 4.59629,-5.42126 9.19239,-10.84231 13.78858,-16.26346 0.23571,-0.47141 0.70711,-1.41421 0.70711,-1.41421 0,0 -9.42809,20.7418 -14.14214,31.1127 -3.24097,7.0712 -6.48181,14.14213 -9.72271,21.2132 C 417.91319,211.16726 418.45659,200.83373 419,190.5 Z"
     transform="translate(-59.396483,-76.36753)" /><path
     style="fill:#000000;stroke:none;stroke-width:13.25;stroke-linecap:round;stroke-linejoin:round;stroke-dasharray:none"
     d="m 315.04553,194.04189 c -0.44194,-4.00694 -1.56152,-4.00694 -5.36229,-7.18898 -3.80076,-3.18205 -10.28244,-9.54588 -13.52335,-12.81626 -3.24091,-3.27037 -3.24091,-3.44714 -3.24091,-3.62392 6.83537,14.61354 13.67073,29.22708 17.35359,36.50439 3.68285,7.27731 4.21317,7.21838 4.7435,7.15946 0.2357,-8.01388 0.47141,-16.02776 0.0295,-20.03469 z"
     id="path79"
     inkscape:path-effect="#path-effect79"
     inkscape:original-d="m 315.72318,190.03495 c -1.11959,0 -2.23917,0 -3.35876,0 -6.48194,-6.36409 -12.96362,-12.72793 -19.44544,-19.09189 0,-0.17678 0,-0.53033 0,-0.53033 0,0 13.67073,29.22708 20.5061,43.84062 0.53034,-0.0589 1.59099,-0.17677 1.59099,-0.17677 0,0 0.4714,-16.02776 0.70711,-24.04163 z"
     transform="translate(-59.396483,-76.36753)" /><rect
     style="fill:#00ffff;stroke:none;stroke-width:9.214;stroke-linecap:round;stroke-linejoin:round;stroke-dasharray:none;stroke-dashoffset:0"
     id="rect84"
     width="0.70710677"
     height="19.091883"
     x="171.82744"
     y="1.2834787e-06" /></svg>
