<?xml version="1.0" encoding="UTF-8" standalone="no"?>
<!-- Created with Inkscape (http://www.inkscape.org/) -->

<svg
   width="507.20648"
   height="508.1788"
   viewBox="0 0 507.20648 508.1788"
   version="1.1"
   id="svg1"
   xml:space="preserve"
   sodipodi:docname="Template.svg"
   inkscape:version="1.4 (86a8ad7, 2024-10-11)"
   inkscape:export-filename="cyber_arm.svg"
   inkscape:export-xdpi="96"
   inkscape:export-ydpi="96"
   xmlns:inkscape="http://www.inkscape.org/namespaces/inkscape"
   xmlns:sodipodi="http://sodipodi.sourceforge.net/DTD/sodipodi-0.dtd"
   xmlns="http://www.w3.org/2000/svg"
   xmlns:svg="http://www.w3.org/2000/svg"><sodipodi:namedview
     id="namedview1"
     pagecolor="#ffffff"
     bordercolor="#000000"
     borderopacity="0.25"
     inkscape:showpageshadow="2"
     inkscape:pageopacity="0.0"
     inkscape:pagecheckerboard="true"
     inkscape:deskcolor="#d1d1d1"
     inkscape:zoom="1.6959064"
     inkscape:cx="131.19828"
     inkscape:cy="318.11897"
     inkscape:window-width="2560"
     inkscape:window-height="1494"
     inkscape:window-x="585"
     inkscape:window-y="2149"
     inkscape:window-maximized="1"
     inkscape:current-layer="svg1"><inkscape:page
       x="0"
       y="0"
       width="507.20648"
       height="508.1788"
       id="page2"
       margin="0"
       bleed="0" /></sodipodi:namedview><defs
     id="defs1"><inkscape:path-effect
       effect="bspline"
       id="path-effect33"
       is_visible="true"
       lpeversion="1.3"
       weight="33.333333"
       steps="2"
       helper_size="0"
       apply_no_weight="true"
       apply_with_weight="true"
       only_selected="false"
       uniform="false" /><inkscape:path-effect
       effect="bspline"
       id="path-effect32"
       is_visible="true"
       lpeversion="1.3"
       weight="33.333333"
       steps="2"
       helper_size="0"
       apply_no_weight="true"
       apply_with_weight="true"
       only_selected="false"
       uniform="false" /><inkscape:path-effect
       effect="bspline"
       id="path-effect31"
       is_visible="true"
       lpeversion="1.3"
       weight="33.333333"
       steps="2"
       helper_size="0"
       apply_no_weight="true"
       apply_with_weight="true"
       only_selected="false"
       uniform="false" /><inkscape:path-effect
       effect="bspline"
       id="path-effect30"
       is_visible="true"
       lpeversion="1.3"
       weight="33.333333"
       steps="2"
       helper_size="0"
       apply_no_weight="true"
       apply_with_weight="true"
       only_selected="false"
       uniform="false" /><inkscape:path-effect
       effect="bspline"
       id="path-effect27"
       is_visible="true"
       lpeversion="1.3"
       weight="33.333333"
       steps="2"
       helper_size="0"
       apply_no_weight="true"
       apply_with_weight="true"
       only_selected="false"
       uniform="false" /><inkscape:path-effect
       effect="bspline"
       id="path-effect22"
       is_visible="true"
       lpeversion="1.3"
       weight="33.333333"
       steps="2"
       helper_size="0"
       apply_no_weight="true"
       apply_with_weight="true"
       only_selected="false"
       uniform="false" /></defs><path
     id="path1"
     style="fill:#000000;stroke:#ffffff;stroke-width:19.6584;stroke-dasharray:none"
     d="m 202.98446,67.163892 c -27.19313,-1.034901 -64.05996,6.683615 -90.33008,19.46289 -16.617645,8.083779 -35.331067,21.852348 -53.691407,39.499998 -24.98426,24.01457 -41.129029,54.38272 -45.804687,86.16406 -0.947289,6.43884 -1.979276,11.96366 -2.292969,12.27735 -0.01496,0.015 -0.626869,-0.0559 -0.662109,-0.043 -0.09775,0.29188 -0.2057824,0.6643 -0.3144534,1.11133 -5.03e-4,0.088 5.87e-4,0.14513 -0.0078,0.4414 -0.02993,1.17804 -0.03556,2.35875 -0.04297,3.53711 -0.0042,0.82297 -0.0064,1.64618 -0.0078,2.46875 0.05566,0.47117 0.0918,0.96476 0.0918,1.49414 v 1.57813 c 0.03902,0.38996 -0.0051,0.79485 0.0625,1.18164 0.0565,0.42038 0.1099014,0.83968 0.1523434,1.26172 0.04027,0.40341 0.0569,0.80781 0.06641,1.21289 0.007,0.37475 0.0045,0.74826 0.0059,1.12304 0.0011,0.46194 0.0059,0.92672 0.0059,1.38868 1.25e-4,0.41776 -1.5e-5,0.83222 0,1.25 -0.0056,0.23364 0.0031,0.72805 0.0059,0.77343 0.01986,0.17862 0.06717,0.51707 0.09766,0.79883 0.04908,0.4778 0.06513,0.95566 0.07813,1.43555 0.007,0.32325 0.0084,0.64737 0.0098,0.9707 0.0014,0.32642 -2.38e-4,0.65403 0,0.98047 2.1e-4,0.31896 -2.8e-5,0.63612 0,0.95508 0.0014,0.0899 9.93e-4,0.1795 0,0.26953 8.81e-4,0.004 -6.85e-4,0.005 0,0.008 0.04293,0.17041 0.08918,0.33958 0.132812,0.50977 0.06419,0.18087 0.187472,0.50513 0.275391,0.74023 0.249827,0.63816 0.469534,1.2864 0.650391,1.94727 0.178452,0.65443 0.27573,1.32578 0.33789,2 0.0098,0.12642 0.01198,0.25233 0.01953,0.37891 1.108905,1.08129 1.677352,2.66152 2.347657,6.03515 1.903668,9.58095 4.13507,17.00447 9.478515,31.52539 4.13935,11.24875 4.74478,13.60009 3.703125,14.4043 0.137604,0.20396 0.275806,0.40841 0.41211,0.61328 0.291291,0.45215 0.574256,0.90993 0.857422,1.36719 0.344324,0.53781 0.638528,1.10615 0.917968,1.67969 0.29664,0.58013 0.556336,1.17569 0.791016,1.7832 0.22429,0.59024 0.374889,1.20453 0.568359,1.80469 0.10614,0.22491 0.16975,0.5589 0.31836,0.76171 0.21019,0.39532 0.437852,0.78308 0.669921,1.16602 0.318821,0.47008 0.614992,0.95303 0.894532,1.44727 0.30199,0.52376 0.593947,1.05438 0.867187,1.59375 0.23627,0.41769 0.404111,0.87236 0.644531,1.2871 0.31827,0.61285 0.648641,1.21899 0.962891,1.83399 0.36234,0.71417 0.728376,1.42815 1.097656,2.13867 0.4138,0.77675 0.814444,1.5592 1.246094,2.32617 0.28732,0.57372 0.611064,1.12386 0.958985,1.66211 0.3883,0.57308 0.760915,1.15771 1.134765,1.74024 0.34141,0.54058 0.674149,1.08563 1.011719,1.6289 0.49644,0.0508 2.829771,2.73727 5.24414,6.05274 0.36013,0.49453 1.185994,1.36902 1.683594,1.98242 0.77137,0.85221 1.539592,1.70957 2.326172,2.54492 1.32183,1.42578 2.592427,2.89371 3.841797,4.38086 1.78461,1.86751 3.606163,3.79229 5.314453,5.40039 2.22597,2.09542 2.708438,2.72052 3.898438,3.92188 2.73914,1.86659 5.532898,3.6465 8.267578,5.52343 3.41288,2.26733 6.420588,5.04704 9.486328,7.74414 2.16028,1.8564 4.116354,3.92861 6.183594,5.88282 0.95494,0.8777 1.88008,1.78629 2.820312,2.67968 0.01,0.01 0.0194,0.0201 0.0293,0.0293 0.20819,0.19765 0.412587,0.39857 0.623047,0.59375 0.11481,0.10656 -0.256298,-0.17117 -0.330078,-0.33594 2.28517,1.76399 4.386769,3.73377 6.458986,5.73829 1.430991,1.38429 2.744031,2.77042 4.029304,4.15624 3.61623,2.82952 7.36575,5.8418 10.60742,8.02149 11.40916,7.67149 15.40291,12.26844 21.17773,24.38867 7.73452,16.23323 11.82583,35.16455 11.81836,54.69141 -0.004,8.34428 -0.37727,10.72935 -2.34766,14.96093 -1.16547,2.50292 -3.72933,5.55353 -6.99609,8.85157 h 253.64844 c -20.04632,-7.97889 -30.51621,-12.43069 -31.51758,-13.95899 -1.68239,-2.56763 -4.39849,-26.81392 -4.60547,-41.11914 -0.27713,-19.14999 3.42887,-24.82319 23.10547,-35.36523 23.83169,-12.76819 33.69539,-21.25236 40.34766,-34.71289 3.72326,-7.53359 3.81851,-7.99872 3.66601,-17.71485 -0.2081,-13.25882 -2.19275,-19.24263 -18.89844,-57.01367 -18.60271,-42.06015 -22.36574,-51.93245 -22.37695,-58.67578 -0.006,-3.00258 1.43121,-11.67814 3.19336,-19.28125 2.03168,-8.76598 3.00079,-15.09157 2.64453,-17.28711 -0.75225,-4.63552 -5.36916,-9.19656 -13.78906,-13.62109 -10.05364,-5.28303 -25.82529,-17.46671 -27.74609,-21.43555 -0.88247,-1.82337 -2.80516,-6.3154 -4.27344,-9.98437 -2.65002,-6.621 -11.41195,-22.21129 -15.38086,-27.36719 C 313.22474,118.29602 281.3337,92.290011 265.7913,84.27538 252.38204,77.360726 231.03822,70.7184 213.98856,68.154286 210.55777,67.638325 206.8714,67.311893 202.98661,67.164052 Z m 108.78125,96.837888 5.97461,5.17578 c 3.85805,3.34229 6.20197,6.21499 6.61719,8.10547 0.48556,2.21077 1.65943,3.38015 4.78711,4.77539 2.27834,1.01634 6.50938,3.98762 9.40234,6.60156 5.06185,4.57357 5.25065,4.92363 4.96484,9.33008 l -0.29883,4.57813 -8.43554,0.10937 c -4.64035,0.0587 -9.99943,-0.0544 -11.91016,-0.24804 -1.91075,-0.19363 -8.61055,-0.8404 -14.88867,-1.43946 -16.587,-1.58279 -19.37352,-3.08334 -20.46289,-11.03125 l -0.61328,-4.47461 8.99023,-8.88672 c 4.94551,-4.88932 10.53963,-9.7252 12.43164,-10.74414 z m -123.81445,24.96094 c 3.49434,0.028 7.80104,0.15465 13.11328,0.36719 35.21317,1.40854 40.48617,2.53222 42.82812,9.10742 1.45517,4.08551 -0.96505,7.70901 -10.52539,15.75195 -4.73178,3.98078 -15.00758,12.64798 -22.83203,19.25977 -7.82442,6.61178 -15.2021,12.52868 -16.39453,13.15039 -1.71087,0.89198 -3.51848,1.14748 -5.32227,0.96679 -6.79347,0.77849 -14.45914,-4.99151 -16.31836,-18.2832 -0.17321,-1.23806 -0.3112,-2.48104 -0.33398,-3.73242 -0.004,-0.24941 -0.0166,-0.49871 -0.0234,-0.74805 -0.74881,-1.38773 -1.48236,-2.78761 -2.04101,-4.26562 -0.51752,-1.32919 -0.93345,-2.56055 -1.30079,-3.67188 -0.17413,-0.62528 -0.37383,-1.24189 -0.52539,-1.87304 -0.39829,-1.65936 -0.48489,-3.38275 -0.49609,-5.08204 0,-0.90431 9.1e-4,-1.80859 0.004,-2.71289 0.004,-0.94255 0.007,-1.8856 0.0156,-2.82812 2.1e-4,-0.0194 -2.1e-4,-0.0393 0,-0.0586 -0.007,-0.0417 -0.0185,-0.0815 -0.0254,-0.12304 -0.098,-0.60662 -0.12189,-1.22085 -0.13867,-1.83399 -0.0112,-0.38089 -0.0132,-0.75962 -0.0156,-1.14062 -0.006,-0.44951 -3.7e-4,-0.90045 0.0156,-1.34961 0.0468,-0.90778 0.34491,-1.76545 0.68164,-2.59961 0.24117,-0.58717 0.54373,-1.14489 0.87109,-1.6875 0.0727,-0.12991 0.1629,-0.24762 0.24805,-0.36914 0.0705,-0.12446 0.11478,-0.17884 0.0723,-0.12695 0.23821,-0.42078 0.45206,-0.76803 0.73242,-1.16993 0.0475,-0.0763 0.031,-0.0503 0.0195,-0.0293 0.0826,-0.1566 0.34786,-0.5437 0.36914,-0.57617 0.35652,-0.48036 0.74867,-0.93669 1.20117,-1.33008 0.14689,-0.12767 0.30398,-0.24094 0.45703,-0.36133 0.48532,-0.31486 0.43473,-0.29943 0.94336,-0.55469 0.0526,-0.0266 0.10638,-0.0526 0.16016,-0.0762 0.015,-0.0112 0.0332,-0.0196 0.0488,-0.0293 0.1469,-0.0913 0.29198,-0.18185 0.44336,-0.26562 0.38708,-0.2145 0.51507,-0.25237 0.9414,-0.42578 0.39119,-0.13732 0.7916,-0.23667 1.19532,-0.32813 0.042,-0.01 0.0835,-0.0185 0.125,-0.0273 2.19309,-0.67808 5.65754,-0.99261 11.80664,-0.94336 z m 133.52734,48.86133 c 3.83234,0.0168 5.4844,0.73384 10.61523,3.28906 3.93129,1.95786 10.20631,5.92172 13.94336,8.81055 6.57315,5.0812 6.93288,5.59144 11.06836,15.67382 2.35118,5.7322 8.54622,20.0263 13.76563,31.76368 l 9.49023,21.34179 -7.65625,0.66992 c -26.80894,2.3517 -46.69165,11.6901 -65.22656,30.63086 -4.9133,5.02088 -9.96464,9.52297 -11.22852,10.00586 -8.22875,3.14405 -14.5203,-2.76166 -17.08398,-16.0332 -0.57633,-2.98351 -1.31339,-12.12365 -1.63867,-20.3125 -1.34526,-33.86583 7.37849,-68.18586 19.91211,-78.33398 6.77554,-5.48608 10.34616,-6.84394 19.26953,-7.33008 1.97094,-0.1074 3.49209,-0.18119 4.76953,-0.17578 z M 10.406333,248.83772 c -2.24e-4,0.045 -10e-4,0.0897 0,0.13476 5.31e-4,0.028 -0.01009,-0.0589 0.0039,-0.084 0.0014,-0.004 0.01707,0.2901 -0.0039,-0.0508 z m 52.621094,106.60156 c 0.0126,0.0126 0.02696,0.0268 0.03906,0.0391 0.0559,0.0344 0.107822,0.0796 0.164062,0.11329 0.0723,0.0435 -0.09377,-0.0734 -0.203124,-0.15235 z" /><path
     style="fill:#ffffff;stroke:none;stroke-width:2.6;stroke-linecap:round;stroke-linejoin:round;stroke-dasharray:none"
     d="m 275.22156,168.66595 c -0.93362,-0.36853 -1.71983,-1.15474 -4.22591,-1.20387 -2.50607,-0.0491 -6.73185,0.63879 -10.68749,3.63625 -3.95564,2.99747 -7.64091,8.30426 -9.77842,14.81511 -2.13751,6.51086 -2.72715,14.22536 -2.89913,20.95732 -0.17197,6.73195 0.0737,12.48097 0.83536,16.756 0.76165,4.27502 2.03921,7.07583 4.07846,8.54997 2.03925,1.47414 4.84006,1.62155 7.07585,0.49135 2.23579,-1.13019 3.90645,-3.5379 6.2651,-5.82284 2.35865,-2.28493 5.40514,-4.44696 9.06596,-6.55991 3.66082,-2.11296 7.93573,-4.17671 12.4319,-5.69999 4.49617,-1.52329 9.21332,-2.50602 11.74393,-3.93104 2.5306,-1.42502 2.87456,-3.29223 2.62886,-5.08578 -0.24569,-1.79355 -1.08102,-3.51334 -2.11293,-5.6263 -1.03191,-2.11296 -2.26034,-4.61894 -3.26767,-6.65818 -1.00733,-2.03924 -1.79352,-3.61162 -3.02199,-6.09312 -1.22846,-2.4815 -2.89912,-5.87195 -4.52069,-8.47628 -1.62157,-2.60433 -3.19395,-4.4224 -4.93836,-5.92112 -1.74442,-1.49871 -3.66076,-2.678 -5.15948,-3.24309 -1.49872,-0.56508 -2.57973,-0.51595 -3.51335,-0.88448 z"
     id="path22"
     inkscape:path-effect="#path-effect22"
     inkscape:original-d="m 275.07414,169.08362 c -0.7862,-0.7862 -1.57241,-1.57241 -2.35862,-2.35862 -4.22594,0.68795 -8.45172,1.37587 -12.67758,2.0638 -3.68542,5.307 -7.37069,10.61379 -11.05604,15.92069 -0.58967,7.71481 -1.17931,15.42931 -1.76896,23.14396 0.24569,5.74926 0.49138,11.49828 0.73707,17.24742 1.27761,2.80091 2.55517,5.60172 3.83275,8.40258 2.80092,0.14742 5.60173,0.29483 8.40259,0.44224 1.67072,-2.4078 3.34138,-4.81551 5.01207,-7.22327 3.04661,-2.16211 6.0931,-4.32414 9.13965,-6.48621 4.27509,-2.06383 8.55,-4.12758 12.825,-6.19138 4.71734,-0.98278 9.43449,-1.96552 14.15173,-2.94827 0.34397,-1.86728 0.68793,-3.73449 1.0319,-5.60173 -0.83537,-1.71986 -1.67069,-3.43965 -2.50604,-5.15948 -1.22847,-2.50609 -2.4569,-5.01207 -3.68534,-7.5181 -0.78623,-1.57245 -1.57242,-3.14483 -2.35862,-4.71725 -1.67073,-3.39058 -3.34138,-6.78103 -5.01207,-10.17155 -1.57245,-1.81814 -3.14483,-3.63621 -4.71724,-5.45431 -1.91642,-1.17933 -3.83276,-2.35862 -5.74914,-3.53793 -1.08106,0.0491 -2.16207,0.0983 -3.24311,0.14741 z"
     transform="matrix(1.9768158,0,0,2.1175219,-209.51765,-124.87899)" /><path
     style="fill:#ffffff;stroke:#ffffff;stroke-width:5.79585;stroke-linecap:round;stroke-linejoin:round;stroke-dasharray:none"
     d="m 182.63785,256.53207 c -9.73451,-2.84788 -16.88846,-11.75292 -19.07766,-23.74738 -0.4961,-2.71815 -1.76303,-7.29466 -2.81534,-10.17002 -1.74682,-4.77303 -1.951,-5.97014 -2.3465,-13.75772 -0.24692,-4.86173 -0.21856,-9.67347 0.0659,-11.1893 0.51977,-2.76957 2.40438,-7.5212 2.9831,-7.5212 0.18329,0 1.08706,0.38971 2.00816,0.86604 0.92111,0.47632 1.79892,0.74185 1.95069,0.59008 0.15175,-0.15175 -0.62731,-0.73932 -1.73125,-1.30571 l -2.00721,-1.02975 2.30012,-2.61309 c 2.54632,-2.89277 6.01294,-4.87577 10.81884,-6.18863 5.29292,-1.4459 34.76166,-0.92932 53.25165,0.93352 14.2389,1.43456 20.39392,4.62791 24.09439,12.50063 1.46378,3.1142 1.60799,3.89509 1.37881,7.46615 -0.50172,7.81803 -3.34446,11.1603 -24.92291,29.3025 -30.54732,25.68281 -31.07256,26.03907 -38.90028,26.38577 -2.76838,0.12264 -5.55173,-0.0835 -7.0505,-0.52189 z"
     id="path25" /><path
     style="fill:#ffffff;stroke:none;stroke-width:10.532;stroke-linecap:round;stroke-linejoin:round;stroke-dasharray:none"
     d="m 160.97587,191.63793 c 0,0 -53.65863,-51.3 -53.65863,-51.3 0,0 -35.379308,-68.399998 -35.379308,-68.399998 0,0 51.889658,61.324138 51.889658,61.324138 0,0 13.56207,21.22759 13.56207,21.22759 0,0 28.30345,30.66207 28.30345,30.66207 0,0 7.66551,-8.84483 7.66551,-8.84483 0,0 -17.1,-42.45517 -17.1,-42.45517 0,0 -10.02413,-34.200004 -10.02413,-34.200004 0,0 -41.27587,-83.731036 -41.27587,-83.731036 0,0 63.68276,96.11379 63.68276,96.11379 0,0 -0.58965,27.7138 -0.58965,27.7138 0,0 20.04827,39.5069 20.04827,39.5069 0,0 1.17931,-30.66207 1.17931,-30.66207 0,0 -5.89655,-38.91725 -5.89655,-38.91725 0,0 16.51035,38.32759 16.51035,38.32759 0,0 -3.53793,24.76552 -3.53793,24.76552 0,0 12.38276,10.02414 12.38276,10.02414 0,0 3.53793,-32.43104 3.53793,-32.43104 0,0 -10.02414,-51.299999 -10.02414,-51.299999 0,0 0,-89.6275881 0,-89.6275881 0,0 17.1,80.1931051 17.1,80.1931051 0,0 -5.89655,20.637932 -5.89655,20.637932 0,0 12.97241,33.61034 12.97241,33.61034 0,0 1.17931,37.14828 1.17931,37.14828 0,0 11.7931,-27.12414 11.7931,-27.12414 0,0 15.33104,-46.58276 15.33104,-46.58276 0,0 -5.3069,56.6069 -5.3069,56.6069 0,0 -5.89655,18.27931 -5.89655,18.27931 0,0 25.94483,-27.12414 25.94483,-27.12414 0,0 -10.61379,34.78966 -10.61379,34.78966 0,0 -47.76207,15.92069 -47.76207,15.92069 z"
     id="path26"
     inkscape:path-effect="#path-effect27"
     inkscape:original-d="m 160.97587,191.63793 c 0,0 -53.65863,-51.3 -53.65863,-51.3 0,0 -35.379308,-68.399998 -35.379308,-68.399998 0,0 51.889658,61.324138 51.889658,61.324138 0,0 13.56207,21.22759 13.56207,21.22759 0,0 28.30345,30.66207 28.30345,30.66207 0,0 7.66551,-8.84483 7.66551,-8.84483 0,0 -17.1,-42.45517 -17.1,-42.45517 0,0 -10.02413,-34.200004 -10.02413,-34.200004 0,0 -41.27587,-83.731036 -41.27587,-83.731036 0,0 63.68276,96.11379 63.68276,96.11379 0,0 -0.58965,27.7138 -0.58965,27.7138 0,0 20.04827,39.5069 20.04827,39.5069 0,0 1.17931,-30.66207 1.17931,-30.66207 0,0 -5.89655,-38.91725 -5.89655,-38.91725 0,0 16.51035,38.32759 16.51035,38.32759 0,0 -3.53793,24.76552 -3.53793,24.76552 0,0 12.38276,10.02414 12.38276,10.02414 0,0 3.53793,-32.43104 3.53793,-32.43104 0,0 -10.02414,-51.299999 -10.02414,-51.299999 0,0 0,-89.6275881 0,-89.6275881 0,0 17.1,80.1931051 17.1,80.1931051 0,0 -5.89655,20.637932 -5.89655,20.637932 0,0 12.97241,33.61034 12.97241,33.61034 0,0 1.17931,37.14828 1.17931,37.14828 0,0 11.7931,-27.12414 11.7931,-27.12414 0,0 15.33104,-46.58276 15.33104,-46.58276 0,0 -5.3069,56.6069 -5.3069,56.6069 0,0 -5.89655,18.27931 -5.89655,18.27931 0,0 25.94483,-27.12414 25.94483,-27.12414 0,0 -10.61379,34.78966 -10.61379,34.78966 0,0 -47.76207,15.92069 -47.76207,15.92069 z"
     transform="translate(-2.7558634,3.847718)" /><path
     style="fill:#ffffff;stroke:none;stroke-width:10.532;stroke-linecap:round;stroke-linejoin:round;stroke-dasharray:none"
     d="m 292.46897,170.41035 c -4.91379,-8.84483 -9.82759,-17.68966 -7.86198,-19.75341 1.96561,-2.06374 10.81025,2.65341 19.65508,7.37065 0,0 -10.02413,-46.58276 -10.02413,-46.58276 0,0 -1.76897,-95.52414 -1.76897,-95.52414 0,0 16.51035,71.348277 16.51035,71.348277 0,0 -1.17931,40.686203 -1.17931,40.686203 0,0 6.4862,37.73794 6.4862,37.73794 0,0 12.38276,-33.61035 12.38276,-33.61035 0,0 28.30345,-34.789655 28.30345,-34.789655 0,0 40.09655,-69.579311 40.09655,-69.579311 0,0 -5.89655,45.403449 -5.89655,45.403449 0,0 -21.22759,12.382759 -21.22759,12.382759 0,0 -28.30344,48.941378 -28.30344,48.941378 0,0 -15.33104,39.5069 -15.33104,39.5069 0,0 33.02069,-30.66207 33.02069,-30.66207 0,0 67.81035,-41.86552 67.81035,-41.86552 0,0 36.55862,-21.81724 36.55862,-21.81724 0,0 -44.8138,47.76207 -44.8138,47.76207 0,0 -57.7862,26.53448 -57.7862,26.53448 0,0 -15.33104,24.17587 -15.33104,24.17587 0,0 15.92069,-2.35863 15.92069,-2.35863 0,0 68.98966,-19.45862 68.98966,-19.45862 0,0 -81.37242,40.09656 -81.37242,40.09656 0,0 -46.58276,-2.35862 -46.58276,-2.35862 z m 27.12414,65.45172 c 0,0 15.92069,-26.53448 15.92069,-26.53448 0,0 0.58965,22.99655 0.58965,22.99655 0,0 35.96897,-37.14827 35.96897,-37.14827 0,0 -12.97241,27.71379 -12.97241,27.71379 0,0 -19.45862,14.15172 -19.45862,14.15172 0,0 5.89655,11.79311 5.89655,11.79311 0,0 66.04138,-47.76207 66.04138,-47.76207 0,0 66.04138,-20.63793 66.04138,-20.63793 0,0 -51.3,41.27586 -51.3,41.27586 0,0 -38.91724,10.02414 -38.91724,10.02414 0,0 -35.37932,33.61034 -35.37932,33.61034 0,0 17.10001,8.84483 17.10001,8.84483 0,0 48.35172,-24.76552 48.35172,-24.76552 0,0 -44.81379,41.27587 -44.81379,41.27587 0,0 91.9862,-14.74138 91.9862,-14.74138 0,0 33.61035,10.61379 33.61035,10.61379 0,0 -41.86552,7.07586 -41.86552,7.07586 0,0 -37.73793,-1.17931 -37.73793,-1.17931 0,0 -37.73793,15.92069 -37.73793,15.92069 0,0 70.16897,5.89655 70.16897,5.89655 0,0 -57.19656,10.6138 -57.19656,10.6138 0,0 -80.1931,-12.38276 -80.1931,-12.38276 z"
     id="path27"
     inkscape:path-effect="#path-effect30"
     inkscape:original-d="m 292.46897,170.41035 c 0,0 -9.82759,-17.68966 -14.74138,-26.53449 8.84501,4.71734 26.53448,14.15173 26.53448,14.15173 0,0 -10.02413,-46.58276 -10.02413,-46.58276 0,0 -1.76897,-95.52414 -1.76897,-95.52414 0,0 16.51035,71.348277 16.51035,71.348277 0,0 -1.17931,40.686203 -1.17931,40.686203 0,0 6.4862,37.73794 6.4862,37.73794 0,0 12.38276,-33.61035 12.38276,-33.61035 0,0 28.30345,-34.789655 28.30345,-34.789655 0,0 40.09655,-69.579311 40.09655,-69.579311 0,0 -5.89655,45.403449 -5.89655,45.403449 0,0 -21.22759,12.382759 -21.22759,12.382759 0,0 -28.30344,48.941378 -28.30344,48.941378 0,0 -15.33104,39.5069 -15.33104,39.5069 0,0 33.02069,-30.66207 33.02069,-30.66207 0,0 67.81035,-41.86552 67.81035,-41.86552 0,0 36.55862,-21.81724 36.55862,-21.81724 0,0 -44.8138,47.76207 -44.8138,47.76207 0,0 -57.7862,26.53448 -57.7862,26.53448 0,0 -15.33104,24.17587 -15.33104,24.17587 0,0 15.92069,-2.35863 15.92069,-2.35863 0,0 68.98966,-19.45862 68.98966,-19.45862 0,0 -81.37242,40.09656 -81.37242,40.09656 0,0 -46.58276,-2.35862 -46.58276,-2.35862 z m 27.12414,65.45172 c 0,0 15.92069,-26.53448 15.92069,-26.53448 0,0 0.58965,22.99655 0.58965,22.99655 0,0 35.96897,-37.14827 35.96897,-37.14827 0,0 -12.97241,27.71379 -12.97241,27.71379 0,0 -19.45862,14.15172 -19.45862,14.15172 0,0 5.89655,11.79311 5.89655,11.79311 0,0 66.04138,-47.76207 66.04138,-47.76207 0,0 66.04138,-20.63793 66.04138,-20.63793 0,0 -51.3,41.27586 -51.3,41.27586 0,0 -38.91724,10.02414 -38.91724,10.02414 0,0 -35.37932,33.61034 -35.37932,33.61034 0,0 17.10001,8.84483 17.10001,8.84483 0,0 48.35172,-24.76552 48.35172,-24.76552 0,0 -44.81379,41.27587 -44.81379,41.27587 0,0 91.9862,-14.74138 91.9862,-14.74138 0,0 33.61035,10.61379 33.61035,10.61379 0,0 -41.86552,7.07586 -41.86552,7.07586 0,0 -37.73793,-1.17931 -37.73793,-1.17931 0,0 -37.73793,15.92069 -37.73793,15.92069 0,0 70.16897,5.89655 70.16897,5.89655 0,0 -57.19656,10.6138 -57.19656,10.6138 0,0 -80.1931,-12.38276 -80.1931,-12.38276 z"
     transform="translate(-2.7558634,3.847718)" /><path
     style="fill:none;stroke:#000000;stroke-width:10.532;stroke-linecap:round;stroke-linejoin:round;stroke-dasharray:none"
     d="M 105.14434,146.80269 C 90.605576,116.0724 76.066809,85.342102 61.528044,54.611808 c 0,0 65.432986,74.017012 65.432986,74.017012 0,0 26.47627,26.2678 26.47627,26.2678 0,0 -1.87627,-8.13051 -1.87627,-8.13051 0,0 -10.63221,-45.86441 -10.63221,-45.86441 0,0 -48.297832,-99.4874864 -48.297832,-99.4874864 0,0 79.019182,104.6517964 79.019182,104.6517964 0,0 24.74873,-6.0104 24.74873,-6.0104 0,0 5.30331,-91.3935519 5.30331,-91.3935519 0,0 23.86485,82.3779389 23.86485,82.3779389"
     id="path30"
     inkscape:path-effect="#path-effect31"
     inkscape:original-d="M 105.14434,146.80269 C 90.605575,116.0724 61.528044,54.611808 61.528044,54.611808 l 65.432986,74.017012 26.47627,26.2678 -1.87627,-8.13051 L 140.92882,100.9017 92.630988,1.4142136 171.65017,106.06601 l 24.74873,-6.0104 5.30331,-91.3935519 23.86485,82.3779389"
     sodipodi:nodetypes="ccccccccccc"
     transform="translate(-2.7558634,3.847718)" /><path
     style="fill:none;stroke:#000000;stroke-width:10.532;stroke-linecap:round;stroke-linejoin:round;stroke-dasharray:none"
     d="m 288.75,133.5 c 0.5,-43.833334 1,-87.666667 1.5,-131.5 0,0 23.75,93 23.75,93 0,0 -3,32.5 -3,32.5 0,0 5.75,13 5.75,13 0,0 18.75,-30.25 18.75,-30.25 0,0 16.25,-15 16.25,-15 0,0 49.5,-89 49.5,-89 0,0 -8,73.25 -8,73.25 0,0 -23.5,13 -23.5,13 0,0 -38.25,69 -38.25,69 0,0 22.75,-24.5 22.75,-24.5 0,0 118.5,-69.25 118.5,-69.25 0,0 -52,64.75 -52,64.75 0,0 -59.75,24.5 -59.75,24.5 0,0 -10.5,16.75 -10.5,16.75 0,0 22.75,-6.75 22.75,-6.75 0,0 70,-21 70,-21 0,0 -41.5,28.25 -41.5,28.25 0,0 -42.75,18.25 -42.75,18.25"
     id="path31"
     inkscape:path-effect="#path-effect32"
     inkscape:original-d="m 288.75,133.5 c 0.5,-43.833334 1.5,-131.5 1.5,-131.5 0,0 23.75,93 23.75,93 0,0 -3,32.5 -3,32.5 0,0 5.75,13 5.75,13 0,0 18.75,-30.25 18.75,-30.25 0,0 16.25,-15 16.25,-15 0,0 49.5,-89 49.5,-89 0,0 -8,73.25 -8,73.25 0,0 -23.5,13 -23.5,13 0,0 -38.25,69 -38.25,69 0,0 22.75,-24.5 22.75,-24.5 0,0 118.5,-69.25 118.5,-69.25 0,0 -52,64.75 -52,64.75 0,0 -59.75,24.5 -59.75,24.5 0,0 -10.5,16.75 -10.5,16.75 0,0 22.75,-6.75 22.75,-6.75 0,0 70,-21 70,-21 0,0 -41.5,28.25 -41.5,28.25 0,0 -42.75,18.25 -42.75,18.25"
     transform="translate(-2.7558634,3.847718)" /><path
     style="fill:none;stroke:#000000;stroke-width:10.532;stroke-linecap:round;stroke-linejoin:round;stroke-dasharray:none"
     d="m 356.91215,235.113 c 16.61701,-13.6118 33.23402,-27.22361 41.60145,-34.1179 8.36743,-6.89429 8.48528,-7.07106 8.60313,-7.24784 0,0 85.38314,-26.69328 85.38314,-26.69328 0,0 -62.22539,61.34151 -62.22539,61.34151 0,0 -39.06765,7.77817 -39.06765,7.77817 0,0 -22.09709,17.67767 -22.09709,17.67767 0,0 6.36396,12.37437 6.36396,12.37437 0,0 59.75052,-33.94112 59.75052,-33.94112 0,0 -51.97235,52.3259 -51.97235,52.3259 0,0 81.84761,-14.14214 81.84761,-14.14214 0,0 39.59798,16.44024 39.59798,16.44024 0,0 -43.31029,11.3137 -43.31029,11.3137 0,0 -41.01219,-2.29809 -41.01219,-2.29809 0,0 -26.5165,9.19239 -26.5165,9.19239 0,0 1.76776,2.82842 1.76776,2.82842 0,0 69.65002,5.3033 69.65002,5.3033 0,0 -72.47844,16.61701 -72.47844,16.61701"
     id="path32"
     inkscape:path-effect="#path-effect33"
     inkscape:original-d="m 356.91215,235.113 c 16.61701,-13.6118 33.23402,-27.22361 49.85102,-40.83541 0.11786,-0.17678 0.35356,-0.53033 0.35356,-0.53033 0,0 85.38314,-26.69328 85.38314,-26.69328 0,0 -62.22539,61.34151 -62.22539,61.34151 0,0 -39.06765,7.77817 -39.06765,7.77817 0,0 -22.09709,17.67767 -22.09709,17.67767 0,0 6.36396,12.37437 6.36396,12.37437 0,0 59.75052,-33.94112 59.75052,-33.94112 0,0 -51.97235,52.3259 -51.97235,52.3259 0,0 81.84761,-14.14214 81.84761,-14.14214 0,0 39.59798,16.44024 39.59798,16.44024 0,0 -43.31029,11.3137 -43.31029,11.3137 0,0 -41.01219,-2.29809 -41.01219,-2.29809 0,0 -26.5165,9.19239 -26.5165,9.19239 0,0 1.76776,2.82842 1.76776,2.82842 0,0 69.65002,5.3033 69.65002,5.3033 0,0 -72.47844,16.61701 -72.47844,16.61701"
     transform="translate(-2.7558634,3.847718)" /></svg>
