<?xml version="1.0" encoding="UTF-8" standalone="no"?>
<!-- Created with Inkscape (http://www.inkscape.org/) -->

<svg
   width="490.73901"
   height="494.56201"
   viewBox="0 0 490.73901 494.56201"
   version="1.1"
   id="svg1"
   xml:space="preserve"
   sodipodi:docname="Template.svg"
   inkscape:version="1.4 (86a8ad7, 2024-10-11)"
   inkscape:export-filename="..\magic\Mage_ManaBall.svg"
   inkscape:export-xdpi="96"
   inkscape:export-ydpi="96"
   xmlns:inkscape="http://www.inkscape.org/namespaces/inkscape"
   xmlns:sodipodi="http://sodipodi.sourceforge.net/DTD/sodipodi-0.dtd"
   xmlns="http://www.w3.org/2000/svg"
   xmlns:svg="http://www.w3.org/2000/svg"><sodipodi:namedview
     id="namedview1"
     pagecolor="#ffffff"
     bordercolor="#000000"
     borderopacity="0.25"
     inkscape:showpageshadow="2"
     inkscape:pageopacity="0.0"
     inkscape:pagecheckerboard="true"
     inkscape:deskcolor="#d1d1d1"
     inkscape:zoom="1.6959064"
     inkscape:cx="131.19828"
     inkscape:cy="318.11897"
     inkscape:window-width="2560"
     inkscape:window-height="1494"
     inkscape:window-x="585"
     inkscape:window-y="2149"
     inkscape:window-maximized="1"
     inkscape:current-layer="svg1"><inkscape:page
       x="0"
       y="0"
       width="490.73901"
       height="494.56201"
       id="page2"
       margin="0"
       bleed="0" /></sodipodi:namedview><defs
     id="defs1" /><path
     style="fill:#000000;stroke-width:0.751851"
     d="m 449.83183,423.56994 c -36.4041,44.35375 -89.59029,69.89256 -147.78563,70.96337 -58.46191,1.07569 -117.65843,-28.16249 -160.95693,-79.49939 -21.15503,-25.08245 -34.97122,-53.98679 -44.812668,-93.7509 -6.619826,-26.74725 -7.428814,-29.72108 -10.37071,-38.12298 -7.669968,-21.905 -18.52592,-39.1224 -33.190294,-52.63935 -6.149768,-5.6686 -20.733678,-15.18974 -27.719815,-18.09696 -2.739126,-1.13986 -6.045199,-2.57386 -7.346801,-3.18667 l -2.36655,-1.11418 5.432806,-1.94417 c 19.414255,-6.94759 41.493378,-2.92968 61.435396,11.17992 9.060513,6.40987 14.115778,11.31247 27.663386,26.82365 15.20817,17.41238 19.07088,21.23097 25.75082,25.45658 13.96577,8.83452 26.34375,5.56869 28.26459,-7.45739 1.09442,-7.42171 -3.75621,-16.35025 -13.86301,-25.51758 -6.54108,-5.93308 -15.91605,-11.10957 -38.84974,-21.45137 C 88.851977,205.1724 84.118801,202.57344 70.211538,192.75176 57.272509,183.61477 51.933994,178.945 42.113693,168.17879 21.938056,146.05979 9.9209251,119.02058 3.4859481,81.26428 -0.69144724,56.754046 -1.0747644,39.361823 2.1231061,19.430755 3.6505811,9.9107008 6.3486021,0.20194404 7.5227171,4.3313871e-4 7.7512311,-0.03876886 8.6875011,2.5875861 9.6032931,5.8368228 14.465068,23.086247 26.287632,48.291318 36.35451,62.869012 c 11.684478,16.920095 26.762233,32.0356 41.222316,41.325458 14.808706,9.51384 25.471474,13.49603 59.578884,22.25067 24.64968,6.32704 48.33181,18.83267 63.98345,33.78723 11.0995,10.60512 22.0416,26.03346 28.73796,40.52051 4.21668,9.12238 11.14953,25.14948 11.54636,26.69239 0.2133,0.82919 0.56079,1.62995 0.77227,1.77949 0.36778,0.26001 0.60537,-2.89683 1.76641,-23.4698 1.25037,-22.15581 -2.52922,-37.79265 -12.35838,-51.12896 -6.83025,-9.26736 -11.09235,-12.78258 -35.77023,-29.50164 C 172.03396,109.00035 166.25816,104.26894 157.9176,94.065084 149.52559,83.798196 143.46444,69.47924 142.73112,58.188311 c -0.42224,-6.500952 0.16091,-8.383105 1.9269,-6.21931 7.32397,8.973824 22.94009,20.974069 33.56054,25.789698 12.65104,5.736372 21.23286,8.254946 47.91376,14.061677 29.63481,6.449635 42.83913,11.648354 59.54448,23.443474 6.71364,4.74109 10.25878,7.73058 14.40391,12.14978 12.52771,13.35602 17.35851,22.26164 26.79446,49.39574 4.41673,12.70079 10.00422,20.94774 18.24866,26.93443 4.81498,3.49637 8.90436,4.9873 13.36133,4.87126 4.12235,-0.10738 6.97497,-1.72688 9.61269,-5.45756 2.93103,-4.14556 3.66513,-9.50133 2.26182,-16.50182 -2.19888,-10.96921 -5.66366,-15.17748 -24.16753,-29.35342 -14.51846,-11.12269 -18.30093,-14.93042 -24.15296,-24.31442 -9.56397,-15.33625 -13.49432,-40.907122 -8.3257,-54.167054 l 0.77558,-1.989729 1.7057,4.568066 c 3.82351,10.239842 12.18314,22.513107 20.916,30.708037 8.69267,8.15724 19.60463,14.63922 39.27823,23.33225 19.63317,8.67515 24.85693,11.57786 39.65978,22.0379 15.54444,10.98477 21.36817,16.38243 33.05867,30.64426 39.39216,48.05648 52.15563,117.56753 32.57802,177.42296 -6.39737,19.55893 -18.74918,42.05933 -31.85363,58.02541 z m -22.01468,-40.08478 c 18.11,-36.85565 12.13672,-84.07736 -14.72669,-116.42129 -3.52754,-4.24724 -5.80178,-6.19464 -14.30057,-12.24549 l -10.10593,-7.19511 -7.72895,-2.09183 c -4.25093,-1.15049 -11.65864,-2.98042 -16.46155,-4.06647 -14.31783,-3.23767 -19.95237,-5.76145 -32.16893,-14.409 -9.47734,-6.70836 -10.88502,-7.93667 -15.37673,-13.4148 -5.75272,-7.01607 -12.92852,-19.53428 -16.32725,-28.48287 -8.04188,-21.17379 -17.26381,-32.79071 -36.96404,-46.56385 l -10.16728,-7.10831 2.61367,3.46613 c 7.47024,9.90659 12.93319,23.16105 15.44412,37.47111 1.73048,9.8622 2.13204,18.94271 1.69077,38.23411 -0.48213,21.07621 1.08918,31.14552 6.52313,41.80234 2.98565,5.85539 9.55611,14.33388 15.4458,19.93126 2.27177,2.15902 4.17232,4.0986 4.22345,4.3102 0.34173,1.41447 -18.86762,6.78082 -26.99587,7.54162 -19.6938,1.84329 -28.96299,0.0878 -41.3105,-7.82409 -11.97259,-7.67154 -17.07434,-15.28006 -22.99979,-34.3006 -7.58591,-24.35072 -9.17875,-28.94139 -12.48288,-35.97689 -7.27696,-15.49476 -12.55324,-21.87378 -25.81485,-31.20995 -11.40489,-8.02907 -18.08684,-11.0785 -34.80818,-15.8855 C 106.75965,150.92224 101.14765,149.183 92.151382,145.76087 79.035631,140.77175 68.334841,135.0033 57.976434,127.3383 c -4.650746,-3.44146 -8.579657,-6.08123 -8.730986,-5.86604 -0.33707,0.47935 3.692427,9.55214 6.927971,15.59901 2.897753,5.41553 10.172427,15.16606 15.164502,20.32561 2.110538,2.18134 7.886734,6.76163 13.525349,10.72507 10.731072,7.54303 14.420412,9.40056 33.67744,16.95636 32.13487,12.6086 49.00964,24.26346 60.27107,41.62732 7.17925,11.06962 11.35811,25.37319 12.87416,44.06641 1.1664,14.38145 2.38484,21.0407 5.17113,28.26169 3.02569,7.84145 7.93676,16.18433 13.28433,22.56716 1.94912,2.32647 3.034,4.07202 2.41082,3.87897 -0.6232,-0.19299 -4.05583,-1.49154 -7.62813,-2.88561 -3.57228,-1.39407 -15.12197,-4.93436 -25.66592,-7.86731 -27.48875,-7.64636 -39.08268,-11.7995 -54.33744,-19.46446 l -3.31004,-1.66319 2.5553,11.01309 c 12.03084,51.85164 27.51705,82.95962 54.5997,109.67737 8.29491,8.18314 33.33021,25.89537 44.25846,31.31242 9.60531,4.7613 25.57031,11.04207 34.50133,13.57314 11.39245,3.22866 11.55992,3.1038 3.23992,-2.41514 -9.10902,-6.04238 -21.50498,-17.04179 -27.77142,-24.64272 -9.21588,-11.17844 -14.70873,-20.89394 -23.55901,-41.67006 -6.13237,-14.39581 -11.83617,-25.67385 -17.56726,-34.73544 -1.85319,-2.93012 -3.26033,-5.4818 -3.127,-5.67038 0.13345,-0.18857 5.4388,3.58904 11.78997,8.39468 14.80197,11.20009 23.92469,19.87845 42.25241,40.19415 5.53645,6.137 13.19625,14.05693 17.02172,17.59985 23.56306,21.82245 53.97478,30.61276 87.17016,25.19602 12.73708,-2.0784 23.60021,-5.65171 34.61346,-11.38575 22.23584,-11.57707 35.70782,-25.14425 46.2288,-46.55547 z m 24.50677,-118.42901 c -3.38456,-15.03005 -9.54926,-30.72293 -16.27496,-41.42949 -7.38164,-11.75071 -18.92538,-23.85485 -29.28494,-30.70648 l -5.87788,-3.88756 1.41638,4.09204 c 0.77902,2.25063 2.25087,8.11978 3.27082,13.04254 2.54635,12.29001 5.54273,17.15352 19.07521,30.96158 9.35525,9.54577 24.12368,27.67778 27.51116,33.77693 0.84961,1.52973 1.60947,2.50621 1.68857,2.16993 0.0791,-0.3363 -0.60686,-3.94506 -1.52436,-8.01949 z"
     id="path36" /><path
     style="fill:#ffffff;stroke:none;stroke-width:13.25;stroke-linecap:round;stroke-linejoin:round;stroke-dasharray:none"
     d="m 251.07748,456.37768 c -15.2876,-5.30972 -27.57666,-10.87538 -37.15715,-16.82831 -43.22049,-26.8555 -66.11655,-56.91613 -81.71265,-107.28196 -3.96857,-12.81606 -9.82054,-36.14299 -9.2182,-36.74533 0.21402,-0.21403 2.57138,0.70607 5.23857,2.04465 9.59819,4.81704 23.44609,9.7014 47.00925,16.58085 13.18714,3.8501 27.05256,8.15795 30.81205,9.57302 3.75948,1.41507 7.01889,2.38938 7.24312,2.16515 0.22424,-0.22423 -1.83362,-3.49259 -4.57302,-7.26302 -10.32468,-14.21061 -14.27501,-24.95999 -16.11658,-43.85532 -2.75942,-28.31308 -7.6796,-42.63763 -19.35864,-56.36052 -10.88521,-12.79015 -26.344,-22.40037 -54.16675,-33.67369 C 92.031602,173.77466 77.0994,163.97613 65.927516,149.85611 60.177381,142.58858 49.813674,124.69788 50.788934,123.72262 c 0.212887,-0.21288 4.560411,2.49149 9.661165,6.00973 16.454531,11.34949 27.428946,15.99947 61.396871,26.01451 12.22678,3.60492 25.15551,7.73875 28.73051,9.18629 9.509,3.85025 24.78273,14.27813 31.62214,21.58948 8.36053,8.93743 13.23871,19.04157 22.29028,46.16966 7.82043,23.43829 10.63671,29.71414 16.1541,35.9981 3.73491,4.25383 14.20908,11.09759 21.10473,13.78971 7.40711,2.8918 24.37254,3.57319 35.69687,1.43371 11.03859,-2.08549 22.13188,-5.63559 22.13188,-7.08269 0,-0.6368 -1.84339,-2.93664 -4.09643,-5.11076 -5.73163,-5.53087 -12.1501,-14.0143 -15.27261,-20.18615 -5.24219,-10.36152 -5.83397,-14.57109 -6.57446,-46.7668 -0.80155,-34.85093 -2.01762,-41.83955 -10.16431,-58.41348 -2.59167,-5.27259 -4.5873,-9.71436 -4.43473,-9.87061 0.8364,-0.8566 17.08307,12.54467 23.31571,19.23226 5.71955,6.13704 8.36082,10.07344 12.3649,18.42795 17.29549,36.08708 20.51125,40.91665 33.80584,50.7712 13.70456,10.15844 19.96388,12.9581 40.86688,18.27891 18.64586,4.74626 18.73193,4.78097 27.6966,11.16742 10.86021,7.73683 15.87965,12.73235 21.75628,21.6526 18.3745,27.89101 23.59776,62.39271 14.03587,92.71251 -8.7275,27.67404 -26.71482,48.33777 -53.79954,61.8046 -27.10718,13.478 -61.06032,15.45679 -87.37097,5.09198 -16.47704,-6.49096 -20.63194,-9.78646 -51.62903,-40.95008 -20.63016,-20.74099 -32.16925,-31.51725 -39.9809,-37.33783 -6.0395,-4.50011 -11.12593,-7.74694 -11.30319,-7.21516 -0.17726,0.53178 2.35708,5.62006 5.63185,11.3073 3.27478,5.68724 8.97582,17.09043 12.66897,25.34043 17.6802,39.49517 25.33738,49.57806 54.06673,71.19444 4.03981,3.03962 2.55975,2.80709 -10.08346,-1.58417 z"
     id="path37" /><path
     style="fill:#ffffff;stroke:none;stroke-width:4.68458;stroke-linecap:round;stroke-linejoin:round;stroke-dasharray:none"
     d="M 452.12238,270.40045 C 447.5206,262.82509 435.4553,248.243 421.93826,233.91999 410.63472,221.94246 408.68,218.50919 405.56963,205.17008 c -0.96101,-4.12135 -2.23126,-9.14432 -2.82278,-11.16217 -0.59152,-2.01785 -1.00106,-3.74326 -0.91009,-3.83423 0.28544,-0.28544 8.37082,5.37482 11.88347,8.31915 6.68399,5.60257 14.48911,14.18107 19.84495,21.81131 8.01235,11.41485 15.08434,28.80843 18.89723,46.47777 0.64868,3.00607 1.12379,5.52121 1.0558,5.5892 -0.068,0.068 -0.69611,-0.8188 -1.39583,-1.97066 z"
     id="path38" /></svg>
