<?xml version="1.0" encoding="UTF-8" standalone="no"?>
<!-- Created with Inkscape (http://www.inkscape.org/) -->

<svg
   width="453.69977"
   height="472.12015"
   viewBox="0 0 453.69977 472.12015"
   version="1.1"
   id="svg1"
   xml:space="preserve"
   sodipodi:docname="Template.svg"
   inkscape:version="1.4 (86a8ad7, 2024-10-11)"
   inkscape:export-filename="..\magic\Mage_ManaBall.svg"
   inkscape:export-xdpi="96"
   inkscape:export-ydpi="96"
   xmlns:inkscape="http://www.inkscape.org/namespaces/inkscape"
   xmlns:sodipodi="http://sodipodi.sourceforge.net/DTD/sodipodi-0.dtd"
   xmlns="http://www.w3.org/2000/svg"
   xmlns:svg="http://www.w3.org/2000/svg"><sodipodi:namedview
     id="namedview1"
     pagecolor="#ffffff"
     bordercolor="#000000"
     borderopacity="0.25"
     inkscape:showpageshadow="2"
     inkscape:pageopacity="0.0"
     inkscape:pagecheckerboard="true"
     inkscape:deskcolor="#d1d1d1"
     inkscape:zoom="1.6959064"
     inkscape:cx="131.19828"
     inkscape:cy="318.11897"
     inkscape:window-width="2560"
     inkscape:window-height="1494"
     inkscape:window-x="585"
     inkscape:window-y="2149"
     inkscape:window-maximized="1"
     inkscape:current-layer="svg1"><inkscape:page
       x="0"
       y="0"
       width="453.69977"
       height="472.12015"
       id="page2"
       margin="0"
       bleed="0" /></sodipodi:namedview><defs
     id="defs1" /><path
     style="fill:#000000;stroke-width:0.745704"
     d="m 0.2555497,0.00407492 c 0.368647,0.08871 3.862161,2.28739398 7.763377,4.88597298 C 34.516285,22.539871 65.03964,32.563008 98.710013,34.670825 c 4.318627,0.270343 15.170247,0.785006 24.114717,1.143684 39.96923,1.602796 57.23405,5.503845 75.51137,17.062068 4.21363,2.664626 7.68655,5.643741 15.03217,12.894833 8.81005,8.696662 10.24302,10.422692 18.43488,22.205266 7.95536,11.44236 9.76942,13.649324 17.38308,21.147734 7.26293,7.15295 9.33553,8.83917 14.23318,11.57953 6.04398,3.38178 15.92465,7.14519 22.98184,8.75345 4.10372,0.93521 4.17433,0.98381 2.67302,1.84014 -4.22503,2.40987 -16.20178,6.07104 -21.78879,6.6606 -11.72136,1.2369 -19.07098,0.0836 -28.76851,-4.51433 -5.9193,-2.80655 -10.32752,-6.77382 -28.91589,-26.02349 -7.48051,-7.746634 -8.32855,-8.441654 -12.3522,-10.123534 -8.3695,-3.49844 -15.61687,-2.42524 -20.10191,2.976704 -3.34319,4.02666 -3.89189,8.51535 -1.7365,14.20574 1.32915,3.50907 2.59554,5.32985 6.8308,9.82106 9.64539,10.22833 19.24026,15.21114 44.52809,23.12435 33.0054,10.32824 37.99619,12.05039 45.25905,15.61733 10.54459,5.17867 16.91948,9.62785 26.97479,18.8263 15.24932,13.94984 19.75312,21.93905 31.64264,56.13044 4.51108,12.97277 9.34488,26.25549 10.74177,29.51714 7.82156,18.26286 18.74417,31.76442 34.92035,43.16543 4.06399,2.8643 7.39104,5.41035 7.39346,5.65786 0.008,0.81512 -10.37251,1.91039 -15.69757,1.65628 -16.42203,-0.78364 -31.72804,-7.77819 -44.43323,-20.30511 -7.58586,-7.47947 -9.73444,-10.43082 -19.09524,-26.23031 -9.359,-15.79646 -15.03867,-23.39975 -22.29156,-29.84146 -5.87787,-5.22047 -15.09924,-11.06144 -20.915,-13.24792 l -3.46151,-1.30139 4.67882,6.94422 c 8.86253,13.15361 12.09275,21.5838 17.30128,45.15246 3.50009,15.83799 9.0285,26.92168 18.57823,37.2468 13.16459,14.23346 25.48225,21.26795 59.77133,34.13476 31.52272,11.82873 45.06011,20.06671 61.76749,37.58767 15.80333,16.57289 25.37942,34.99083 30.42261,58.51258 1.94129,9.0543 3.93092,24.74686 3.22842,25.46317 -0.19872,0.20262 -2.11254,-2.93203 -4.25296,-6.96587 -2.14041,-4.03384 -6.40595,-11.06665 -9.47897,-15.62846 -5.0068,-7.43243 -6.77287,-9.4644 -16.99774,-19.55697 -9.93913,-9.81055 -12.35662,-11.87721 -18.74853,-16.02793 -17.74663,-11.52411 -34.04563,-17.64582 -66.171,-24.85303 -32.47281,-7.28517 -52.39807,-17.11598 -70.3602,-34.71464 -14.94928,-14.64677 -23.41856,-30.02983 -31.67572,-57.5338 -7.40389,-24.66178 -13.07675,-37.80654 -21.18682,-49.09255 -9.2327,-12.84829 -23.00999,-22.40324 -33.31053,-23.10182 -13.54534,-0.91866 -20.50015,11.29425 -14.80832,26.00395 3.03496,7.84338 7.70163,13.70255 18.59558,23.3474 21.60204,19.12517 30.55193,29.32487 37.87397,43.16286 4.88423,9.23078 7.15531,15.45419 9.23549,25.30792 1.76286,8.35056 2.66273,21.35879 1.55563,22.48767 -0.29992,0.30582 -2.73402,-3.17754 -5.5407,-7.92915 -7.32691,-12.40423 -14.36346,-21.1299 -24.38978,-30.24456 C 191.49758,315.50184 180.79573,308.59011 156.57586,296.21114 133.5435,284.43912 122.23848,276.80837 109.75634,264.60854 97.575773,252.70349 89.528213,241.25557 82.974471,226.51056 77.196144,213.51015 73.596126,200.33558 66.453865,166.05203 57.065965,120.98918 51.400891,106.79793 27.057562,67.362618 16.028156,49.495386 10.869092,39.754675 6.8708307,29.248525 3.5828287,20.608681 -1.1548223,-0.33524708 0.2555497,0.00407492 Z M 46.837899,59.514358 c 6.537637,6.604854 15.744984,17.769313 20.782491,25.200026 15.313361,22.588376 21.629713,38.820756 26.400063,67.845366 4.37508,26.61968 9.549807,43.5807 17.632757,57.79426 3.68961,6.48804 12.56074,18.58228 13.78667,18.79574 0.10862,0.0188 -0.7457,-4.38177 -1.89845,-9.77927 -1.15274,-5.39751 -2.73662,-15.15031 -3.51974,-21.67292 -1.98175,-16.50611 -2.62956,-50.02316 -0.96637,-49.99835 0.2098,0.003 3.49098,3.54453 7.29152,7.8698 15.32177,17.43719 33.92671,28.92735 56.44463,34.85942 9.50606,2.50424 22.34724,4.13293 42.94082,5.44631 20.05447,1.279 31.96731,2.74473 40.42557,4.97389 l 6.2883,1.65727 -2.11984,-2.0727 c -3.9506,-3.86292 -13.80282,-10.52717 -20.64968,-13.96786 -3.90464,-1.96216 -14.53664,-5.8682 -24.88974,-9.14414 -21.41055,-6.77473 -27.38464,-8.97479 -36.24871,-13.34921 -23.88617,-11.78783 -45.50352,-32.79796 -57.18333,-55.57711 -3.20935,-6.25919 -10.60428,-26.462334 -9.93557,-27.144192 0.25852,-0.263606 6.3409,-2.080905 13.51641,-4.038444 7.1755,-1.957529 13.36185,-3.652615 13.74743,-3.76685 1.20838,-0.358 -2.24439,-1.904604 -9.74059,-4.363138 -7.77498,-2.549943 -18.07627,-3.875828 -34.17616,-4.398813 C 82.988059,63.975985 65.216266,61.319989 51.286284,56.690831 46.904083,55.234553 42.99793,53.728519 42.605944,53.3441 42.213959,52.959672 41.685552,52.856921 41.4317,53.115763 c -0.253851,0.258842 2.178919,3.138226 5.406147,6.398648 z"
     id="path38" /><path
     style="fill:#ffffff;stroke:none;stroke-width:13.25;stroke-linecap:round;stroke-linejoin:round;stroke-dasharray:none"
     d="m 121.66262,223.91389 c -0.83269,-0.96587 -3.31764,-4.45613 -5.5221,-7.75613 -10.80964,-16.18162 -15.0836,-29.22558 -22.772227,-69.5 -6.584691,-34.49183 -16.835445,-54.613354 -42.741734,-83.899081 -3.150935,-3.561971 -5.573112,-6.632171 -5.382615,-6.822668 0.190497,-0.190497 4.118535,0.744564 8.728974,2.077914 12.941696,3.742769 25.366599,5.511078 50.225382,7.148065 25.23258,1.661601 24.84832,1.605853 36.13924,5.243172 l 7.982,2.571369 -13.25372,3.695665 c -7.28955,2.032616 -13.51521,3.957146 -13.8348,4.276734 -0.76799,0.767995 2.99668,12.085796 7.5854,22.80411 10.70286,24.9997 34.35752,48.65572 61.51841,61.52196 5.03336,2.38432 18.57212,7.45781 30.08613,11.27441 11.51402,3.81661 23.07198,7.86129 25.68437,8.98819 5.60779,2.41902 19.98949,11.49338 21.90925,13.82398 1.19886,1.45543 1.04195,1.55344 -1.48084,0.92498 -6.31574,-1.57333 -23.34684,-3.59907 -43.17821,-5.13578 -32.38895,-2.50977 -44.44291,-5.08002 -61.06956,-13.02176 -11.71177,-5.59415 -22.73813,-13.87363 -33.7139,-25.31511 -4.8309,-5.03588 -9.28488,-9.15615 -9.89774,-9.15615 -0.80415,0 -0.94865,6.4709 -0.51916,23.25 0.58332,22.78882 1.01308,27.2638 4.32504,45.03568 0.90051,4.83212 1.42559,8.99738 1.16684,9.25613 -0.25875,0.25875 -1.15174,-0.31981 -1.98443,-1.28568 z"
     id="path39" /></svg>
