<?xml version="1.0" encoding="UTF-8" standalone="no"?>
<!-- Created with Inkscape (http://www.inkscape.org/) -->

<svg
   width="505.08896"
   height="505.75937"
   viewBox="0 0 505.08896 505.75937"
   version="1.1"
   id="svg1"
   xml:space="preserve"
   sodipodi:docname="Template.svg"
   inkscape:version="1.4 (86a8ad7, 2024-10-11)"
   inkscape:export-filename="..\magic\Mage_barrier.svg"
   inkscape:export-xdpi="96"
   inkscape:export-ydpi="96"
   xmlns:inkscape="http://www.inkscape.org/namespaces/inkscape"
   xmlns:sodipodi="http://sodipodi.sourceforge.net/DTD/sodipodi-0.dtd"
   xmlns="http://www.w3.org/2000/svg"
   xmlns:svg="http://www.w3.org/2000/svg"><sodipodi:namedview
     id="namedview1"
     pagecolor="#ffffff"
     bordercolor="#000000"
     borderopacity="0.25"
     inkscape:showpageshadow="2"
     inkscape:pageopacity="0.0"
     inkscape:pagecheckerboard="true"
     inkscape:deskcolor="#d1d1d1"
     inkscape:zoom="1.6959064"
     inkscape:cx="131.19828"
     inkscape:cy="318.11897"
     inkscape:window-width="2560"
     inkscape:window-height="1494"
     inkscape:window-x="585"
     inkscape:window-y="2149"
     inkscape:window-maximized="1"
     inkscape:current-layer="svg1"><inkscape:page
       x="0"
       y="0"
       width="505.08896"
       height="505.75937"
       id="page2"
       margin="0"
       bleed="0" /></sodipodi:namedview><defs
     id="defs1" /><path
     style="fill:#000000;stroke-width:1.21548"
     d="m 234.06794,499.19964 c -38.89447,-0.89807 -77.6341,-5.34178 -108.19352,-12.41055 -17.16997,-3.97162 -38.334015,-10.49586 -44.66077,-13.76755 -1.016116,-0.52546 -2.319026,-1.94909 -2.89537,-3.16363 -0.938678,-1.97811 -0.977051,-2.94431 -0.368217,-9.27013 1.027104,-10.67186 3.561781,-26.21443 5.236846,-32.11235 2.284908,-8.04511 5.667868,-14.40502 10.355402,-19.468 5.140192,-5.55188 8.908979,-8.08786 15.043529,-10.12261 5.88121,-1.95073 7.27944,-2.80485 8.08756,-4.94034 0.34079,-0.90052 2.46247,-9.49037 4.71485,-19.08857 l 4.09526,-17.45127 -2.38058,-1.88227 C 118.93798,352.22924 101.99267,334.90926 98.017441,329.88225 83.817816,311.92558 70.957674,287.37546 64.374952,265.65847 57.638021,243.43272 54.943995,220.96826 56.177196,197.30066 57.651877,168.9988 63.512204,146.02 75.611966,121.09551 l 4.252125,-8.75903 -2.077292,-1.90305 C 75.992788,108.7899 75.528426,107.73551 74.381693,102.70176 71.629251,90.619496 63.06515,82.311691 51.371942,80.380597 c -3.641553,-0.601395 -4.593505,-1.01557 -5.898285,-2.566206 -1.351772,-1.6065 -1.520541,-2.275403 -1.286416,-5.09861 0.369968,-4.461419 1.895553,-5.871728 7.633432,-7.056638 5.628316,-1.162279 10.341546,-3.537241 14.032521,-7.070921 5.614155,-5.3749 7.72813,-10.020403 8.500884,-18.680892 0.634784,-7.114167 1.751859,-8.595351 6.798045,-9.013816 2.922889,-0.242391 3.424238,-0.097 5.116878,1.484198 1.594078,1.489084 1.937487,2.342582 2.281687,5.670724 1.376701,13.311595 6.711539,21.399884 17.586792,26.663811 7.44588,3.60402 6.84614,3.790523 18.00696,-5.599545 14.6589,-12.333158 34.38729,-24.52605 50.87488,-31.44258 59.72333,-25.0539077 127.44689,-18.1252106 183.26725,18.749798 7.75188,5.120902 16.04188,11.587704 24.52881,19.134242 25.56962,22.736414 45.80424,54.903788 55.47935,88.196618 9.33077,32.10801 9.97779,68.2457 1.82007,101.65836 -6.65366,27.25233 -18.07189,50.4287 -35.9409,72.95172 -4.50272,5.67548 -20.94767,22.61137 -26.03238,26.80956 l -2.60896,2.15407 4.63525,18.7036 c 3.53035,14.24528 4.94688,19.01741 5.94264,20.02013 0.71907,0.7241 3.42634,2.01946 6.01612,2.87859 7.96436,2.64206 13.22548,6.75142 18.03394,14.08597 6.32351,9.64553 9.47291,21.37415 12.43764,46.31872 1.50177,12.63551 1.44116,12.72187 -12.29222,17.51896 -27.55251,9.6241 -62.31442,16.46985 -101.38141,19.96529 -26.92345,2.40891 -46.61462,3.036 -74.85658,2.38389 z m 50.0054,-16.31151 c 44.70674,-2.43187 87.03552,-9.13532 114.94719,-18.20378 4.04788,-1.31516 7.69038,-2.78952 8.09443,-3.27637 0.57819,-0.69669 0.51426,-2.53367 -0.30029,-8.62651 -2.12159,-15.86973 -6.32493,-28.1137 -11.74368,-34.20848 -2.72444,-3.06431 -7.80595,-5.96058 -10.45786,-5.96058 -0.91163,0 -6.17957,1.63878 -11.70652,3.64173 -58.70987,21.27638 -128.39936,26.14858 -194.29922,13.58403 -19.04022,-3.63022 -35.16862,-8.0335 -53.94522,-14.72779 -3.83375,-1.36682 -7.67697,-2.48802 -8.54048,-2.49156 -2.47433,-0.01 -8.71643,3.43144 -11.19033,6.16976 -4.81479,5.32939 -8.176669,15.67319 -10.662702,32.80688 -1.115167,7.68568 -1.18107,9.10177 -0.456522,9.80916 1.796844,1.75433 25.091064,8.21231 42.573754,11.80295 42.56516,8.74213 98.06349,12.37991 147.68745,9.68056 z m 5.45515,-63.55143 c 12.8417,-1.29436 24.25247,-2.94034 34.05359,-4.91216 13.73285,-2.76285 34.51125,-8.80695 42.64957,-12.40611 2.82578,-1.2497 3.30548,-1.69928 3.30548,-3.09792 0,-1.78807 -6.52951,-28.74537 -7.24174,-29.89779 -0.3015,-0.48783 -2.51665,0.55437 -7.05456,3.31908 -17.46556,10.64085 -40.41992,19.56521 -62.07559,24.13417 -34.67922,7.31671 -67.1961,6.06309 -102.05564,-3.93455 -14.40549,-4.13147 -29.23618,-10.63368 -44.02076,-19.29999 -4.16713,-2.44265 -7.74539,-4.53307 -7.95173,-4.64538 -0.3978,-0.21652 -3.97368,13.86144 -6.29692,24.79053 l -1.38909,6.53454 2.33395,1.19069 c 1.28367,0.65488 6.37051,2.57042 11.30409,4.25674 24.95628,8.5302 52.19115,13.37912 86.25123,15.35626 10.66867,0.61931 46.83055,-0.24336 58.18812,-1.38811 z m -11.0352,-35.12697 c 15.19045,-2.3662 34.37738,-7.84526 46.40977,-13.25285 33.96435,-15.2643 61.96036,-39.9876 80.34897,-70.95624 12.2105,-20.56399 19.58778,-41.24292 23.20756,-65.05213 1.81055,-11.90902 1.96054,-40.65186 0.2685,-51.4518 -4.37194,-27.90503 -13.24884,-50.8725 -28.46348,-73.64433 C 385.88847,88.335524 366.85419,70.058864 343.75038,55.587543 311.85379,35.608786 278.09554,26.844799 239.13542,28.428411 185.14885,30.622814 131.87056,61.383048 100.72958,108.33706 c -15.734632,23.7245 -26.394476,53.49447 -28.757539,80.31172 -1.165985,13.23225 -1.283936,18.34914 -0.649735,28.18486 3.048266,47.27451 21.68173,88.32099 54.626214,120.33257 12.04811,11.70693 23.27743,19.87119 39.02103,28.37016 18.00091,9.71755 40.66038,16.83924 60.91568,19.14532 3.16701,0.36056 6.57648,0.76552 7.57658,0.8999 1.0001,0.1344 9.72833,0.16311 19.39604,0.0638 14.10636,-0.14488 19.16893,-0.4284 25.63544,-1.43568 z M 122.51968,311.44618 c -2.13371,-0.9124 -2.72773,-2.20421 -3.55257,-7.72579 -1.65159,-11.05596 -7.57102,-17.78137 -17.47414,-19.85337 -6.302164,-1.31858 -7.743237,-2.54731 -7.743237,-6.60222 0,-3.20977 1.814651,-5.0366 5.486895,-5.52374 11.981942,-1.58946 19.970412,-11.23193 19.970412,-24.10526 0,-3.47361 2.06519,-5.34486 5.89884,-5.34486 5.06802,0 6.40142,1.87126 7.06087,9.9089 0.41956,5.11396 2.40808,9.64421 5.89256,13.42442 3.48364,3.7793 6.72477,5.5661 11.45404,6.31451 4.62418,0.73177 6.66738,2.4977 6.66738,5.76262 0,3.08993 -1.89721,5.0046 -5.75187,5.80482 -10.60752,2.20211 -17.33355,9.63221 -18.55159,20.4935 -0.39753,3.54481 -0.83336,4.91746 -1.89575,5.97089 -1.52525,1.51239 -5.52575,2.30348 -7.46184,1.47558 z m 4.84185,-28.49023 c 0.50165,-0.97011 1.91601,-2.59133 3.143,-3.60272 l 2.23089,-1.83888 -3.52184,-3.82233 c -3.63766,-3.94803 -4.55141,-4.67164 -4.55141,-3.60433 0,0.34215 -1.50575,2.24848 -3.34611,4.23629 l -3.34612,3.61419 2.14685,1.32682 c 1.18075,0.72975 2.85525,2.25562 3.7211,3.3908 0.86586,1.1352 1.80766,2.064 2.09291,2.064 0.28524,0 0.92907,-0.79374 1.43073,-1.76384 z m -21.18621,-72.59159 c -2.00664,-0.52825 -3.91483,-2.70336 -4.59829,-5.24149 -0.74744,-2.77578 0.0511,-14.96969 1.55514,-23.74761 1.15968,-6.76818 4.68588,-19.47051 7.37237,-26.5573 4.8983,-12.92141 14.10177,-28.85546 23.51871,-40.71822 5.76541,-7.26282 16.30379,-17.880881 20.19748,-20.350189 6.66029,-4.223829 14.11669,-0.171954 12.27433,6.669999 -0.49267,1.82964 -1.97453,3.5813 -6.7704,8.00308 -25.03804,23.08506 -41.08861,57.0517 -43.88999,92.8812 -0.36272,4.63927 -0.63989,5.62026 -2.00943,7.11218 -1.61672,1.76119 -5.04453,2.63422 -7.64992,1.94835 z m 249.61167,-30.78544 c -2.55275,-1.11027 -3.82752,-3.7383 -3.82752,-7.89069 0,-4.03219 -1.84882,-9.8661 -4.21785,-13.30937 -4.2808,-6.22193 -10.52104,-10.16067 -17.71106,-11.1789 -2.20581,-0.31238 -4.56998,-0.86736 -5.25371,-1.23328 -3.18438,-1.70422 -4.06425,-6.07632 -1.92796,-9.58002 1.23246,-2.02133 1.52505,-2.14396 7.59311,-3.18246 11.26701,-1.92822 19.5784,-10.99738 21.02591,-22.94289 0.94406,-7.79094 1.62085,-9.3687 4.43138,-10.330714 3.02897,-1.03678 7.13523,-0.10417 8.46294,1.922224 0.49408,0.75406 1.14412,4.12167 1.47558,7.64437 0.74848,7.9548 2.89177,12.70261 7.99935,17.72016 3.75518,3.68898 7.26416,5.36884 13.61488,6.51787 4.58771,0.83004 6.93627,3.09939 6.93627,6.70229 0,3.77959 -1.86872,5.44666 -7.24501,6.46326 -2.45243,0.46371 -5.71236,1.45393 -7.24427,2.20045 -3.61094,1.75968 -9.77302,7.88387 -11.43296,11.3627 -1.73318,3.63228 -3.17182,9.33956 -3.17182,12.58302 0,3.48697 -1.33779,5.92076 -3.70879,6.7473 -2.45584,0.8561 -3.41709,0.82041 -5.79847,-0.21532 z m 9.60133,-36.86582 2.57665,-2.1403 -3.393,-3.33923 c -1.86615,-1.83658 -3.88966,-4.18 -4.49668,-5.2076 -0.60702,-1.02759 -1.28052,-1.86837 -1.49668,-1.86837 -0.21615,0 -1.14804,1.08952 -2.07086,2.42115 -0.92283,1.33164 -2.86921,3.5193 -4.32532,4.8615 -1.4561,1.34218 -2.64746,2.66124 -2.64746,2.93124 0,0.26998 1.18541,1.34218 2.63423,2.38264 1.44883,1.04048 3.55546,3.09178 4.6814,4.55848 l 2.04717,2.66669 1.95695,-2.56295 c 1.07633,-1.40962 3.11645,-3.52608 4.5336,-4.70325 z M 88.068179,77.636724 91.868267,73.909006 89.371684,72.18159 c -2.309254,-1.597809 -6.6139,-6.424601 -7.336928,-8.226903 -0.198342,-0.494396 -1.258715,0.257415 -2.935068,2.080963 -1.443504,1.570242 -3.767331,3.785199 -5.164076,4.922122 l -2.539514,2.06713 3.065793,1.986568 c 1.706084,1.105503 4.176498,3.538165 5.570155,5.485011 2.450334,3.422998 2.523032,3.470086 3.37021,2.183209 0.476212,-0.723393 2.575881,-2.992718 4.665923,-5.042966 z M 424.88429,385.84726 c -2.47056,-0.67198 -4.43255,-3.16534 -4.43255,-5.63303 0,-6.80618 -2.67296,-13.24529 -7.2917,-17.56558 -3.65669,-3.42041 -6.56931,-4.87603 -12.00982,-6.00207 -5.15722,-1.06739 -5.91697,-1.58761 -6.84565,-4.68731 -1.34108,-4.47608 0.63603,-6.67407 6.75112,-7.5054 4.16942,-0.56682 8.5916,-3.02129 12.07016,-6.69936 3.89877,-4.12237 6.07332,-8.7543 6.77507,-14.43125 1.02757,-8.31282 1.86192,-9.50942 6.6306,-9.50942 4.89801,0 5.92988,1.42711 6.66004,9.21101 1.09258,11.64744 7.94858,19.31003 19.16141,21.41571 5.68324,1.06727 7.49697,2.59471 7.49697,6.31362 0,3.48214 -1.41555,4.75158 -6.79255,6.0914 -6.16416,1.53597 -8.85666,2.98058 -12.55183,6.73449 -3.80197,3.86242 -6.01257,8.28212 -6.83871,13.6728 -0.34931,2.27922 -0.89239,4.85765 -1.20688,5.72986 -0.93539,2.59428 -4.12924,3.80194 -7.57568,2.86453 z m 2.99748,-29.51973 c 0.56321,-0.95344 2.09774,-2.70357 3.41005,-3.88917 l 2.38604,-2.15563 -2.2257,-2.02057 c -1.22415,-1.11132 -2.95633,-2.96451 -3.84932,-4.11822 l -1.62361,-2.09765 -1.36464,1.79458 c -0.75056,0.98703 -2.35018,2.71593 -3.55471,3.842 l -2.19006,2.04741 3.19697,3.02357 c 1.75834,1.66296 3.36005,3.53739 3.55938,4.16538 0.50104,1.57865 1.06019,1.43198 2.2556,-0.5917 z"
     id="path66" /><path
     style="fill:#ffffff;stroke:none;stroke-width:9.36916;stroke-linecap:round;stroke-linejoin:round;stroke-dasharray:none"
     d="m 225.4081,384.28986 c -37.84687,-5.1604 -71.81663,-21.31951 -98.05775,-46.64516 -29.963924,-28.91857 -47.423539,-62.7858 -53.9519,-104.65302 -2.029437,-13.01504 -2.204538,-38.11599 -0.352975,-50.59941 4.688341,-31.60928 18.06627,-62.47236 37.701115,-86.97703 6.43244,-8.027808 19.62159,-21.125 27.84634,-27.652178 26.6085,-21.11657 57.39114,-34.229277 89.44901,-38.103253 10.28033,-1.242309 32.14665,-1.057991 43.13351,0.363584 51.93333,6.719586 99.60953,36.570454 129.04798,80.799107 13.34309,20.04679 21.16472,38.93996 26.71909,64.53998 1.88222,8.67511 1.91718,9.29072 1.88714,33.23402 l -0.0306,24.39518 -2.31908,10.93612 c -7.5205,35.46451 -24.06515,66.01649 -49.13559,90.73561 -15.69942,15.47943 -36.70581,29.38859 -56.67148,37.52443 -14.74956,6.01033 -35.50296,11.18337 -50.02185,12.46857 -11.01237,0.9748 -36.94636,0.7647 -45.24297,-0.36655 z m -96.38787,-73.27935 c 1.87239,-0.85312 2.3558,-2.08163 3.9167,-9.9538 1.57679,-7.95232 7.62923,-14.22865 16.17545,-16.77383 5.64503,-1.68116 7.15822,-3.08108 7.15822,-6.62237 0,-3.39855 -1.74863,-5.07564 -6.31273,-6.05446 -5.21145,-1.11765 -8.66071,-3.0869 -11.94777,-6.8212 -3.18315,-3.61626 -4.6553,-7.39498 -5.77472,-14.8226 -0.97505,-6.46974 -2.91666,-8.46583 -7.70929,-7.92563 -4.03593,0.4549 -5.73215,2.36693 -5.73215,6.46141 0,10.78994 -7.59195,20.13305 -18.38478,22.62541 -5.253765,1.21324 -7.071065,2.88231 -7.071065,6.4943 0,3.0205 1.821545,4.8952 5.793104,5.96214 12.376041,3.3248 17.466471,8.8071 19.668971,21.18314 0.44988,2.52791 1.31823,5.15304 1.92967,5.83363 1.29448,1.44088 5.56809,1.65422 8.29039,0.41386 z M 113.49964,209.12167 c 1.69837,-1.46087 1.96669,-2.46464 3.16612,-11.84403 2.40246,-18.78701 6.22399,-32.24795 13.34817,-47.01745 7.76248,-16.0928 15.69475,-27.26387 27.68372,-38.98719 7.88311,-7.70843 9.17955,-9.59185 9.17955,-13.335738 0,-6.033098 -7.2019,-8.107959 -13.54939,-3.903563 -3.53701,2.342824 -14.87751,13.785391 -19.63377,19.810491 -12.21503,15.47367 -21.75021,33.64679 -26.8757,51.22245 -3.9368,13.49959 -5.28688,21.8244 -5.32005,32.80416 l -0.0285,9.42685 1.98398,1.71008 c 2.681,2.31089 7.42913,2.36474 10.04584,0.11394 z M 360.9575,180.31223 c 2.40579,0 3.97289,-2.49252 4.66803,-7.42462 1.35505,-9.61427 2.55713,-12.20102 8.40877,-18.09474 5.16947,-5.20667 5.50785,-5.41443 11.33889,-6.96233 7.19866,-1.91093 9.19239,-3.47256 9.19239,-7.20012 0,-3.97412 -2.17598,-5.97231 -8.23504,-7.56218 -12.20008,-3.20124 -18.19389,-10.2024 -20.09023,-23.46669 -0.47261,-3.30572 -1.11429,-6.69516 -1.42595,-7.53209 -1.25067,-3.358478 -9.52468,-3.888387 -11.58624,-0.74204 -0.56192,0.8576 -1.39062,3.94516 -1.84155,6.86125 -1.23343,7.97639 -3.10233,12.22721 -7.43167,16.90343 -4.16665,4.50046 -8.2441,6.66939 -14.99104,7.9742 -2.22656,0.43061 -4.60335,1.26156 -5.28177,1.84656 -1.98475,1.7115 -2.7547,5.60966 -1.63656,8.28575 1.20268,2.87842 1.30599,2.93731 7.40322,4.2199 6.32189,1.32985 9.93619,3.15964 14.29558,7.23734 4.31792,4.0389 6.8231,9.29087 7.68884,16.11916 0.37178,2.93228 1.02597,5.98541 1.45376,6.78476 0.87878,1.64198 4.77667,3.57715 6.20437,3.08023 0.51794,-0.18028 1.35774,-0.32777 1.8662,-0.32777 z"
     id="path67" /><path
     style="fill:#ffffff;stroke:none;stroke-width:3.3125;stroke-linecap:round;stroke-linejoin:round;stroke-dasharray:none"
     d="M 80.516003,80.913564 C 78.377701,78.056163 75.903817,75.685162 73.537272,74.225062 72.556627,73.620028 71.75783,73.06875 71.762167,73 c 0.0043,-0.06875 0.588511,-0.575 1.298164,-1.125 0.709653,-0.55 2.888718,-2.546875 4.842366,-4.4375 C 79.856345,65.546875 81.5594,64 81.687263,64 c 0.127864,0 0.353408,0.265411 0.501211,0.589802 0.368003,0.807679 3.731525,4.807574 5.083348,6.04511 0.606748,0.555451 1.806303,1.505723 2.665678,2.111714 0.859375,0.605992 1.5625,1.184608 1.5625,1.285814 0,0.101205 -0.956454,1.059366 -2.125452,2.129246 -1.168999,1.06988 -3.159033,3.102429 -4.422299,4.516775 C 83.688983,82.092807 82.567437,83.25 82.459925,83.25 c -0.107513,0 -0.982277,-1.051396 -1.943922,-2.336436 z"
     id="path68" /><path
     style="fill:#ffffff;stroke:none;stroke-width:3.3125;stroke-linecap:round;stroke-linejoin:round;stroke-dasharray:none"
     d="m 124.53122,283.1875 c -1.84711,-2.09677 -3.30106,-3.40022 -4.85002,-4.34796 l -1.44381,-0.8834 1.56881,-1.7328 c 3.19065,-3.52418 4.50969,-5.11716 4.84259,-5.84834 l 0.34148,-0.75 3.75675,3.87479 3.75675,3.87479 -2.08722,1.9219 c -1.14798,1.05705 -2.56829,2.66027 -3.15625,3.56272 -0.58797,0.90244 -1.18239,1.6408 -1.32095,1.6408 -0.13856,0 -0.77222,-0.59063 -1.40813,-1.3125 z"
     id="path69" /><path
     style="fill:#ffffff;stroke:none;stroke-width:3.3125;stroke-linecap:round;stroke-linejoin:round;stroke-dasharray:none"
     d="m 357.69029,148.14924 c -1.16001,-1.52463 -3.6452,-3.99776 -6.58937,-6.55738 l -1.47592,-1.28315 2.76113,-2.84185 c 1.51863,-1.56302 3.45925,-3.76335 4.31251,-4.88961 0.85325,-1.12626 1.65081,-2.10921 1.77234,-2.18432 0.12154,-0.0751 0.81449,0.72199 1.5399,1.77133 0.72541,1.04934 2.74913,3.38228 4.49717,5.18432 l 3.17825,3.27642 -1.15565,0.93006 c -1.92667,1.55056 -4.47709,4.13461 -6.07596,6.15606 -0.83258,1.05263 -1.52861,1.93218 -1.54674,1.95455 -0.0181,0.0224 -0.56607,-0.66003 -1.21766,-1.51643 z"
     id="path70" /><path
     style="fill:#ffffff;stroke:none;stroke-width:3.3125;stroke-linecap:round;stroke-linejoin:round;stroke-dasharray:none"
     d="m 425.64004,356.71603 c -0.28412,-0.64397 -1.59053,-2.15585 -3.46358,-4.00832 l -3.00739,-2.97435 2.74528,-2.80418 c 1.5099,-1.5423 3.00219,-3.17532 3.31621,-3.62893 0.31401,-0.45362 0.65258,-0.79112 0.75238,-0.75 0.0998,0.0411 0.8283,0.86225 1.61889,1.82475 0.7906,0.9625 2.41298,2.67355 3.60531,3.80233 l 2.16786,2.05233 -2.28536,2.23392 c -1.25695,1.22866 -2.75176,2.92073 -3.32182,3.76017 -0.57005,0.83944 -1.17936,1.52625 -1.35402,1.52625 -0.17467,0 -0.52286,-0.46529 -0.77376,-1.03397 z"
     id="path71" /><path
     style="fill:#ffffff;stroke:none;stroke-width:3.3125;stroke-linecap:round;stroke-linejoin:round;stroke-dasharray:none"
     d="m 230.75,420.57996 c -0.61875,-0.0455 -3.54375,-0.25266 -6.5,-0.46042 -22.39659,-1.57395 -42.98643,-4.77518 -61.18913,-9.51344 -14.01383,-3.64787 -31.31087,-9.77838 -31.31087,-11.09736 0,-1.43051 5.47134,-24.69623 6.80634,-28.9425 l 0.56866,-1.80875 4.75,2.77882 c 19.16172,11.2099 33.22131,17.34142 50.59493,22.06495 31.51102,8.5672 61.34376,9.89458 92.91873,4.13434 23.60674,-4.30659 47.76881,-13.25922 67.53113,-25.02192 3.59205,-2.13802 6.54821,-3.71054 6.97898,-3.71246 0.15058,-6.7e-4 0.52157,0.8144 0.82444,1.81128 1.20512,3.96669 6.02712,24.11026 6.63353,27.71115 0.29915,1.77633 -1.13535,2.71607 -8.0045,5.24372 -8.37179,3.08059 -25.28969,7.85361 -35.72724,10.07968 -10.67304,2.27629 -28.69198,4.84681 -39.5,5.63495 -10.33896,0.75393 -28.81002,1.27782 -43.125,1.22314 -6.11875,-0.0234 -11.63125,-0.0797 -12.25,-0.12518 z"
     id="path72" /><path
     style="fill:#ffffff;stroke:none;stroke-width:3.3125;stroke-linecap:round;stroke-linejoin:round;stroke-dasharray:none"
     d="M 242.125,483.59379 C 198.21749,482.80165 158.68913,478.43285 126,470.75927 c -12.98142,-3.0473 -27.861185,-7.32142 -31.058254,-8.92128 -0.818123,-0.40939 -1.233548,-0.7925 -1.346239,-1.24149 -0.21765,-0.86719 0.02506,-3.57931 0.780512,-8.7215 1.869313,-12.7241 4.083211,-21.34467 6.997371,-27.24666 2.55867,-5.18203 5.00341,-7.62332 10.3348,-10.32018 4.1976,-2.12334 3.49889,-2.22042 17.16681,2.38507 18.03901,6.07836 30.78338,9.53296 46.875,12.70636 18.17062,3.5834 34.61918,5.62973 55.5,6.90464 6.78765,0.41444 33.41805,0.41394 40.25,-7.4e-4 26.21715,-1.59133 47.35226,-4.7171 69.875,-10.33413 10.35747,-2.58308 18.86422,-5.1545 30.84125,-9.32267 7.92315,-2.75735 11.6182,-3.89669 12.63757,-3.89669 1.61455,0 5.19638,1.80124 8.07763,4.06211 4.45725,3.49751 8.44677,11.46924 11.1667,22.31289 2.06795,8.24434 3.7578,20.81822 2.96052,22.02892 -0.7083,1.07559 -10.08585,4.26998 -20.69307,7.04893 -27.2415,7.1369 -62.33931,12.20103 -99.8656,14.40923 -12.44921,0.73256 -32.99313,1.18706 -44.375,0.98171 z"
     id="path73" /></svg>
