<?xml version="1.0" encoding="UTF-8" standalone="no"?>
<!-- Created with Inkscape (http://www.inkscape.org/) -->

<svg
   width="512"
   height="512"
   viewBox="0 0 135.46667 135.46667"
   version="1.1"
   id="svg1"
   xml:space="preserve"
   xmlns="http://www.w3.org/2000/svg"
   xmlns:svg="http://www.w3.org/2000/svg"><defs
     id="defs1" /><path
     style="fill:#000000;stroke-width:0.567983"
     d="m 70.81216,133.31509 c -1.239801,-0.0574 -8.644796,-0.11365 -16.455544,-0.12512 l -14.201358,-0.0209 -0.751395,-0.35522 c -0.683573,-0.32316 -1.127456,-0.70813 -1.735724,-1.50537 -0.166516,-0.21825 -0.235621,-0.98003 -0.293041,-3.23039 l -0.07514,-2.94478 -0.813201,-0.41046 c -0.998617,-0.50402 -1.44995,-0.91413 -1.865063,-1.69467 -0.317639,-0.59726 -0.319697,-0.67155 -0.320465,-11.57148 l -7.95e-4,-10.97036 0.435522,-0.791552 c 0.52929,-0.961974 0.603525,-1.026288 1.69604,-1.469356 0.477366,-0.1936 0.888623,-0.451113 0.913903,-0.572268 0.100249,-0.480434 -1.009558,-2.820368 -2.5662,-5.410614 C 30.823936,85.660181 28.873958,80.509813 28.198867,74.860968 28.07758,73.846096 28.033081,65.97452 28.044211,47.503073 c 0.01723,-28.608014 -0.0419,-26.849234 0.959177,-28.521983 1.711656,-2.860071 5.489672,-3.964212 8.573093,-2.50552 1.252599,0.592574 2.545803,1.852333 3.13964,3.058441 l 0.491067,0.997378 0.03776,13.002408 0.03776,13.002409 0.317014,0.262987 c 0.373421,0.309782 1.297454,0.339478 1.673798,0.05379 0.247726,-0.18805 0.262988,-1.181588 0.262988,-17.119622 0,-11.863138 0.05006,-17.157993 0.167499,-17.716347 0.260968,-1.240754 0.839644,-2.315393 1.799111,-3.3410664 3.787707,-4.0490703 10.788725,-2.0968029 11.938475,3.3291014 0.179811,0.848569 0.216352,3.67466 0.218525,16.901164 0.0016,9.688229 0.05842,16.029025 0.145732,16.258656 0.168778,0.443919 0.990401,0.727446 1.62103,0.559387 l 0.414919,-0.110591 0.113705,-2.318903 c 0.06254,-1.275397 0.09635,-10.234244 0.07514,-19.908549 L 59.992073,5.796615 60.570897,4.624662 c 0.760441,-1.539678 2.05233,-2.86353 3.474435,-3.5603974 0.972868,-0.47672989 1.169082,-0.51700549 2.747785,-0.56401943 1.393478,-0.0414938 1.885623,0.005719 2.728721,0.26180283 1.677742,0.509599 3.488603,2.0278218 4.278923,3.5874422 0.733381,1.4472592 0.73098,1.3616712 0.613311,21.8566238 l -0.110195,19.193244 0.530865,0.530865 c 0.613423,0.613423 1.13743,0.682201 1.856574,0.243685 l 0.469118,-0.286057 0.10904,-16.582191 c 0.05998,-9.120206 0.170448,-16.920319 0.245501,-17.333586 0.347932,-1.915835 1.807354,-3.7936156 3.625687,-4.6650278 4.514355,-2.1634474 9.562185,0.4443404 10.19354,5.2661438 0.105745,0.807591 0.142441,9.107358 0.111793,25.28445 -0.03476,18.35161 -0.0037,24.082214 0.130693,24.082198 0.38299,-4.2e-5 1.090146,-0.791641 1.312901,-1.469675 1.087678,-3.310743 2.738895,-12.428764 3.026819,-16.714095 0.260893,-3.883023 1.406634,-6.023613 3.847667,-7.188612 4.205385,-2.007046 9.240365,0.307169 10.044675,4.616812 0.33595,1.800138 0.20989,3.699414 -0.90886,13.692441 -0.40252,3.595424 -0.83946,7.585329 -0.97098,8.866457 -0.27236,2.652865 -0.75903,6.098121 -0.98709,6.987853 -0.75231,2.934844 -2.26434,6.649825 -3.62415,8.904356 -1.82121,3.019513 -3.00663,4.360511 -7.418893,8.392556 -1.692601,1.546744 -2.480484,2.507542 -3.454394,4.212523 -0.724771,1.268823 -1.472196,3.395976 -1.643068,4.676127 -0.11172,0.836978 -0.120789,0.823785 0.686717,0.999064 0.567399,0.123166 1.790896,1.262068 2.109646,1.963783 0.259233,0.570692 0.275694,1.252952 0.275694,11.427022 0,10.54942 -0.0076,10.83689 -0.304817,11.49206 -0.413832,0.91232 -0.968526,1.61211 -1.492701,1.88316 -0.589757,0.30498 -0.748759,0.96039 -0.749785,3.09061 -9.53e-4,2.00088 -0.217629,2.91838 -0.912191,3.86284 -1.206049,1.63998 -2.443045,1.84127 -11.110962,1.80809 -3.430116,-0.0132 -7.250959,-0.0708 -8.49076,-0.12812 z m 13.712953,-3.99854 3.043148,-0.0995 3.4e-5,-1.96735 3.4e-5,-1.96734 -11.684221,0.0436 c -6.426321,0.024 -11.768753,0.0726 -11.87207,0.108 -0.137334,0.047 -0.187849,0.58919 -0.187849,2.01611 v 1.95175 l 1.089523,0.064 c 1.452744,0.0852 15.772049,-0.0237 19.611401,-0.14925 z m 5.620333,-17.70954 c -0.02899,-5.53778 -0.0628,-10.07335 -0.07514,-10.07904 -0.01234,-0.006 -2.42315,0.0383 -5.357346,0.0979 -2.934196,0.0595 -13.348526,0.15036 -23.142955,0.20187 -9.79443,0.0515 -19.109845,0.13321 -20.700923,0.18154 l -2.892869,0.0879 v 1.86207 1.86206 l 12.58586,0.0376 c 6.922223,0.0207 15.088006,0.0375 18.146181,0.0375 h 5.560321 l 1.051952,-0.69401 c 2.551885,-1.68357 5.147301,-1.91855 7.726394,-0.69953 1.258343,0.59476 2.76971,2.10047 3.435176,3.42232 1.178836,2.34156 1.192423,4.7631 0.04008,7.14384 -1.051854,2.17313 -2.891794,3.81724 -4.871669,4.35316 -1.529084,0.41391 -3.48367,0.27506 -4.799198,-0.34092 -0.563178,-0.26369 -1.20562,-0.60838 -1.42765,-0.76595 -0.22203,-0.15756 -0.741819,-0.33666 -1.155085,-0.398 -0.981893,-0.14572 -31.216172,-0.27236 -34.000607,-0.14242 l -2.141475,0.0999 v 1.86203 1.86201 l 12.811279,0.0384 c 7.046203,0.0212 18.762325,0.0384 26.035825,0.0384 h 13.224546 z m -30.153369,2.41602 c 6.364312,-0.0357 11.706729,-0.10696 11.872036,-0.15847 0.277091,-0.0864 0.300558,-0.22507 0.300558,-1.77672 0,-0.92569 0.05201,-1.86903 0.115571,-2.09633 l 0.115573,-0.41327 H 55.261154 38.126492 v 2.30333 2.30332 l 5.147053,-0.0485 c 2.83088,-0.0267 10.354219,-0.0777 16.718532,-0.11333 z M 70.623101,86.698276 c 0.05041,-11.105905 0.05225,-11.163495 0.392514,-12.285303 0.686152,-2.26214 2.034485,-4.721891 3.491487,-6.369485 0.649052,-0.733957 3.980472,-3.466704 7.801396,-6.399449 1.115822,-0.856447 2.789553,-2.164058 3.719404,-2.905802 L 87.71854,57.389611 V 38.459309 c 0,-17.970745 -0.01333,-18.924705 -0.262987,-18.819866 -2.221297,0.932787 -3.215973,1.01113 -4.996776,0.393559 -0.702553,-0.243641 -1.311184,-0.410053 -1.35251,-0.369803 -0.04133,0.04025 -0.094,6.00171 -0.117038,13.247688 -0.04657,14.641722 0.01348,13.795428 -1.076709,15.174624 -0.999163,1.264036 -3.114767,2.116981 -4.745497,1.913235 -1.048558,-0.131009 -2.473791,-0.844271 -3.090478,-1.546638 -0.655584,-0.74667 -1.142226,-1.865989 -1.33212,-3.063998 -0.104655,-0.660254 -0.147637,-6.136504 -0.127044,-16.18672 0.01712,-8.353883 3.2e-4,-15.219287 -0.03733,-15.25645 -0.03764,-0.03717 -0.57497,0.102532 -1.194051,0.310434 -0.979265,0.328859 -1.321165,0.370081 -2.629881,0.31707 -1.114754,-0.04515 -1.688446,-0.144018 -2.215493,-0.3818 l -0.711211,-0.320868 -0.04019,16.258088 -0.04019,16.258088 -0.325461,0.60787 c -0.421446,0.787143 -1.431658,1.711908 -2.379559,2.178291 -0.638337,0.31407 -0.966207,0.369697 -2.179045,0.369697 -1.185582,0 -1.546451,-0.05853 -2.128303,-0.345157 -0.94762,-0.466818 -2.020679,-1.436464 -2.423918,-2.190318 L 53.98091,46.385952 53.940198,32.958687 c -0.0384,-12.660499 -0.05555,-13.420815 -0.300558,-13.314311 -1.859547,0.808355 -3.24122,0.873376 -5.111384,0.240544 l -1.244847,-0.421237 0.04457,16.316435 0.04457,16.316434 0.394554,1.427649 c 1.359541,4.919339 4.546263,9.275514 10.286876,14.061923 2.958531,2.466764 3.918765,3.529325 4.743436,5.248921 1.028234,2.144063 1.021235,2.047273 1.024147,14.163789 l 0.0026,10.857654 h 3.374133 3.374134 z m 14.013964,11.025151 2.403706,-0.09237 0.265177,-1.577928 c 0.459478,-2.734116 1.287451,-4.881686 2.663059,-6.907358 0.790542,-1.164127 2.843825,-3.314624 4.640599,-4.860316 1.623626,-1.39674 3.723338,-3.701286 4.827286,-5.298202 1.703778,-2.464608 3.390008,-6.801503 3.911238,-10.059473 0.41323,-2.582994 2.25361,-18.496391 2.25361,-19.486567 v -0.390228 l -0.63869,0.223613 c -0.35128,0.122988 -1.19211,0.259581 -1.86851,0.303542 -1.36433,0.08867 -2.39638,-0.152833 -3.374693,-0.789696 l -0.546985,-0.356074 -0.105449,1.005555 c -0.483095,4.606775 -2.027382,11.333377 -3.071983,13.380938 -1.148903,2.252008 -3.836109,3.439042 -5.836855,2.578345 -0.912001,-0.392332 -1.848989,-1.345536 -2.325008,-2.365247 -0.183948,-0.394045 -0.349404,-0.741321 -0.367682,-0.771726 -0.02866,-0.04768 -2.727086,2.070117 -7.968126,6.253605 -2.337969,1.866207 -3.656274,3.506669 -4.503375,5.603879 -0.783602,1.940004 -0.795532,2.139236 -0.798339,13.331949 l -0.0026,10.406817 4.019961,-0.0204 c 2.210979,-0.01115 5.101629,-0.06186 6.423667,-0.112709 z M 104.71776,45.329453 c 0.77531,-0.547676 1.21786,-1.367389 1.3049,-2.416994 0.087,-1.049263 -0.0273,-1.44436 -0.60966,-2.107662 -1.28013,-1.457991 -3.48031,-1.468912 -4.6992,-0.02332 -0.976216,1.157768 -1.085168,2.324078 -0.33426,3.578153 0.68932,1.151226 1.3818,1.526951 2.69855,1.464173 0.83014,-0.03958 1.11933,-0.126767 1.63967,-0.494345 z M 36.178685,25.268794 c 1.15468,-0.589075 1.796753,-2.315166 1.356929,-3.647848 -0.63259,-1.916764 -3.139464,-2.647391 -4.668641,-1.360672 -1.562999,1.315177 -1.334991,4.07847 0.412655,5.001067 0.770725,0.406872 2.109384,0.410314 2.899057,0.0074 z m 15.876483,-9.027261 c 1.593934,-0.771611 2.259814,-2.67649 1.469708,-4.204386 -0.304854,-0.589521 -1.188081,-1.304977 -1.831602,-1.483684 -1.283693,-0.356485 -2.412208,-0.08251 -3.294535,0.799811 -1.050778,1.050778 -1.20779,2.459132 -0.423392,3.797702 0.734498,1.253417 2.672998,1.771587 4.079821,1.090557 z m 34.040293,-0.126952 c 0.819545,-0.561562 1.221083,-1.263906 1.293289,-2.26214 0.140784,-1.946332 -0.885392,-3.181323 -2.835314,-3.412261 -1.911163,-0.22635 -3.710703,1.582814 -3.371718,3.389752 0.215364,1.147996 0.897714,2.053654 1.879248,2.494259 0.79453,0.356659 2.366553,0.24807 3.034495,-0.20961 z M 68.782053,10.488275 C 70.433244,9.6662345 70.946857,7.1761648 69.801832,5.5442501 69.409442,4.9850081 68.46636,4.5253628 67.508475,4.4265002 66.062139,4.2772254 64.954501,4.9145716 64.330159,6.2553357 c -0.455007,0.9771208 -0.454498,1.8942943 0.0016,2.8614406 0.456956,0.9689977 0.963343,1.4244417 1.855013,1.6684027 0.879416,0.240607 1.705439,0.146109 2.595295,-0.296904 z"
     id="path28" /><path
     style="fill:#ffffff;stroke-width:0.907838"
     d="m 33.345261,25.167226 c -0.651224,-0.32452 -1.14776,-0.968213 -1.364387,-1.768751 -0.163222,-0.603179 -0.06117,-1.591991 0.221469,-2.146022 0.460179,-0.902022 1.549456,-1.596943 2.503181,-1.596943 1.019442,0 2.356331,0.909071 2.713937,1.845451 0.413851,1.083651 -0.03682,2.819603 -0.897554,3.45731 -0.813882,0.602995 -2.202598,0.694342 -3.176646,0.208955 z"
     id="path29" /><path
     style="fill:#ffffff;stroke-width:0.907838"
     d="m 50.014758,16.416315 c -2.296004,-0.47464 -3.230619,-3.107578 -1.714498,-4.82998 1.136367,-1.290983 2.928157,-1.470187 4.317807,-0.431842 1.020477,0.762499 1.403064,2.038705 0.981808,3.275027 -0.47289,1.38786 -2.105567,2.292655 -3.585117,1.986795 z"
     id="path30" /><path
     style="fill:#ffffff;stroke-width:0.907838"
     d="M 66.012443,10.657167 C 65.292877,10.393522 64.866762,9.9863748 64.473449,9.186673 64.159947,8.5492476 64.104204,8.3159695 64.106652,7.6516399 c 0.0045,-1.2183836 0.66503,-2.3583345 1.664215,-2.872058 1.241254,-0.6381814 3.408898,-0.1376696 4.057309,0.9368375 0.820841,1.3602462 0.616146,3.1966522 -0.474366,4.2557441 -0.792046,0.7692245 -2.279327,1.0741275 -3.341367,0.6850035 z"
     id="path31" /><path
     style="fill:#ffffff;stroke-width:0.907838"
     d="m 83.675833,16.415339 c -1.30692,-0.225791 -2.318612,-1.424741 -2.409732,-2.855761 -0.07588,-1.191681 0.505637,-2.134447 1.677895,-2.720231 0.834617,-0.417064 1.580668,-0.448967 2.495431,-0.106711 1.28012,0.478955 1.870538,1.356034 1.875787,2.78653 0.0038,1.027622 -0.279466,1.699409 -0.96329,2.284736 -0.643651,0.550943 -1.669526,0.785336 -2.676091,0.611437 z"
     id="path32" /><path
     style="fill:#ffffff;stroke-width:0.907838"
     d="m 101.86521,45.631696 c -0.96869,-0.361767 -1.893861,-1.758828 -1.893861,-2.859868 0,-1.524783 1.546641,-3.025939 3.100371,-3.009191 1.27742,0.01376 2.59363,1.022589 2.86214,2.193701 0.11591,0.505528 -0.0472,1.691968 -0.30238,2.198822 -0.25146,0.499565 -0.80738,1.058788 -1.30994,1.31771 -0.57261,0.295018 -1.86746,0.378743 -2.45633,0.158826 z"
     id="path33" /><path
     style="fill:#ffffff;stroke-width:0.907838"
     d="m 74.244884,87.599591 c 0.04074,-6.580675 0.108122,-10.579616 0.187847,-11.147658 0.315068,-2.244908 1.451681,-4.384281 3.338465,-6.283783 0.734621,-0.739574 4.317113,-3.653195 8.989584,-7.311179 l 0.656241,-0.51376 0.37267,0.744927 c 0.430332,0.860179 1.408359,1.903505 2.096773,2.236758 1.976086,0.956609 4.530649,0.06867 5.900666,-2.051018 1.119648,-1.732314 2.596079,-7.917111 3.390882,-14.204469 l 0.05818,-0.460245 0.860828,0.435417 c 0.61448,0.310814 1.08778,0.462904 1.65389,0.531463 0.91561,0.110884 2.59953,-0.02853 3.2909,-0.272457 0.25691,-0.09065 0.48637,-0.164812 0.5099,-0.164812 0.0487,0 0.0558,-0.07291 -0.4692,4.802198 -0.52181,4.845278 -1.45619,12.654154 -1.73398,14.491296 -0.28841,1.907389 -0.82694,3.859265 -1.61642,5.858642 -1.47529,3.736221 -2.858236,5.760821 -6.009863,8.798291 -3.786193,3.649054 -5.154305,5.080683 -5.851871,6.123556 -1.312948,1.962875 -2.058118,3.871648 -2.546507,6.522935 -0.161353,0.875921 -0.309036,1.648531 -0.328186,1.716907 -0.04211,0.15035 -2.13949,0.234689 -8.360402,0.336183 l -4.453922,0.07267 z"
     id="path34" /><path
     style="fill:#ffffff;stroke-width:0.907838"
     d="m 63.794946,86.635013 c -0.0449,-12.401839 -0.0099,-11.803881 -0.789922,-13.511319 -0.842216,-1.843675 -1.712886,-2.850113 -4.596889,-5.313709 -2.28909,-1.955406 -5.179531,-4.821656 -6.335017,-6.282 -2.185196,-2.761729 -3.557662,-5.425789 -4.36894,-8.480443 l -0.281774,-1.060951 -0.03695,-16.221379 c -0.02032,-8.921761 -0.03304,-16.221381 -0.02828,-16.221381 0.0048,0 0.457835,0.160097 1.006814,0.355771 0.924158,0.329401 1.105749,0.356011 2.449968,0.359017 1.261713,0.0028 1.537282,-0.0307 2.104398,-0.256013 0.493948,-0.19624 0.683969,-0.227862 0.781753,-0.130093 0.0959,0.09589 0.138904,3.529802 0.166921,13.329646 l 0.03774,13.20048 0.293685,0.542521 c 0.379476,0.701011 1.653569,1.877938 2.460749,2.273093 0.547593,0.268073 0.795512,0.315074 1.853682,0.351425 0.694904,0.02387 1.47406,-0.01455 1.807255,-0.08912 1.072684,-0.240056 2.501138,-1.354659 3.149507,-2.457516 l 0.299077,-0.508728 0.05584,-16.156268 c 0.03071,-8.885948 0.09006,-16.190477 0.131892,-16.232287 0.04183,-0.04181 0.36849,0.03516 0.725913,0.171043 0.515496,0.195978 0.961589,0.257825 2.157529,0.299123 1.428922,0.04934 1.563897,0.03486 2.584268,-0.277266 l 1.0766,-0.329327 0.05273,15.648256 c 0.05101,15.139522 0.05987,15.673833 0.272661,16.434936 0.492361,1.76109 1.310717,2.781863 2.79554,3.487002 1.896145,0.900477 4.252079,0.501838 5.892007,-0.996964 0.777486,-0.710578 1.127725,-1.299053 1.285512,-2.159926 0.08047,-0.439023 0.158882,-5.133252 0.227409,-13.613736 0.05753,-7.119015 0.129091,-12.968159 0.159031,-12.998097 0.02994,-0.02994 0.596122,0.103555 1.258186,0.296653 1.628672,0.475017 2.575608,0.477808 3.966875,0.01169 0.555061,-0.185963 1.039902,-0.307418 1.077423,-0.269902 0.03752,0.03752 0.08136,8.503793 0.09742,18.813947 l 0.0292,18.745737 -2.318618,1.826425 c -1.275241,1.004532 -3.12271,2.450216 -4.105486,3.212629 -3.075589,2.385962 -5.803668,4.658381 -6.60335,5.500425 -1.771549,1.865387 -3.523977,5.284748 -3.825748,7.464849 -0.0703,0.507849 -0.148442,5.173832 -0.19499,11.64254 l -0.07768,10.795035 H 67.16218 63.83547 Z"
     id="path35" /><path
     style="fill:#ffffff;stroke-width:0.907838"
     d="m 40.846606,121.5348 -2.708217,-0.032 v -1.76849 -1.76849 l 0.854443,-0.0722 c 1.102207,-0.0932 28.889217,-0.0746 32.706962,0.0219 l 2.905511,0.0734 1.226614,0.63151 c 1.724411,0.88779 2.284748,1.03643 3.906912,1.03643 2.10172,0 3.322306,-0.475 4.823759,-1.87719 1.213051,-1.13285 1.940835,-2.27328 2.503445,-3.92287 0.229224,-0.67209 0.266647,-0.99324 0.266798,-2.28942 1.56e-4,-1.36545 -0.03066,-1.60175 -0.326697,-2.50504 -0.414097,-1.26352 -1.147665,-2.3706 -2.257677,-3.40723 -1.410618,-1.31736 -3.014413,-1.94442 -4.953788,-1.93686 -1.690188,0.007 -3.003209,0.44413 -4.732769,1.57713 l -0.87984,0.57637 -5.430026,-6e-5 c -2.986513,-2e-5 -11.121467,-0.0335 -18.077675,-0.0743 l -12.64765,-0.0742 v -1.7562 -1.7562 l 0.418796,-0.0606 c 0.230338,-0.0333 6.524848,-0.11331 13.987799,-0.17776 7.462951,-0.0645 18.964754,-0.17086 25.559558,-0.23648 6.594806,-0.0656 12.004193,-0.1042 12.020859,-0.0857 0.01667,0.0184 0.05086,4.51886 0.07597,10.00091 l 0.04566,9.96735 -23.290266,-0.0259 c -12.809647,-0.0142 -24.508966,-0.0402 -25.998486,-0.0578 z"
     id="path36" /><path
     style="fill:#ffffff;stroke-width:0.907838"
     d="m 38.138389,111.90381 v -2.235 h 17.098842 c 16.240427,0 17.094854,0.01 17.019386,0.19544 -0.0437,0.10749 -0.106325,0.98275 -0.139168,1.94502 -0.03284,0.96227 -0.09929,1.81362 -0.147664,1.89189 -0.09289,0.1503 -4.905446,0.22215 -24.813313,0.37046 l -9.018083,0.0672 z"
     id="path37" /></svg>
