<?xml version="1.0" encoding="UTF-8" standalone="no"?>
<!-- Created with Inkscape (http://www.inkscape.org/) -->

<svg
   width="512"
   height="512"
   viewBox="0 0 135.46667 135.46667"
   version="1.1"
   id="svg1"
   xml:space="preserve"
   xmlns="http://www.w3.org/2000/svg"
   xmlns:svg="http://www.w3.org/2000/svg"><defs
     id="defs1" /><path
     id="path175"
     style="fill:#000000;stroke-width:1.58489"
     d="M 0.63200278,0.63200278 V 5.4559979 C 4.5892344,3.6687311 8.5778727,2.0892973 12.772347,0.63200278 Z m 95.82929522,0 C 108.38186,4.425254 118.97274,8.7450606 128.71204,13.913363 c 2.34582,1.244838 4.58453,2.528944 6.79855,3.849378 V 0.63200278 Z M 68.159149,6.2879884 c -13.491628,0 -25.465727,2.2366009 -37.522775,7.0093916 -5.597782,2.215884 -14.145422,6.75564 -18.557524,9.855729 -3.9516225,2.776543 -7.775496,5.982195 -11.44684722,9.531718 v 5.750554 C 7.8144362,31.926752 13.488265,27.805171 20.453532,23.852808 31.584218,17.536822 46.518378,13.047098 59.899188,11.9941 c 5.769614,-0.454039 15.257816,-0.213555 21.355803,0.541052 13.696184,1.694857 27.229839,6.708452 36.752799,13.615707 3.10212,2.250029 5.35417,4.228111 8.55813,7.516854 3.25023,3.336206 5.7762,6.413899 8.94467,10.976591 V 34.220651 C 133.15034,31.237085 130.702,28.593276 128.31465,26.514145 123.4351,22.264535 117.69095,18.420574 112.30478,15.80007 99.584953,9.611554 84.160553,6.2879884 68.159149,6.2879884 Z M 70.966213,22.563998 C 54.46625,22.425893 37.680651,26.977166 23.779944,35.559587 15.851225,40.454849 10.8857,44.332508 0.67902834,53.601897 c -0.0171951,0.01562 -0.0298615,0.02627 -0.0470256,0.04186 v 16.464629 l 0.0599447,1.191142 c 0.0685912,1.361072 0.19430874,2.807149 0.27905274,3.213757 1.66317422,7.97962 10.63069382,18.520532 22.19709482,26.090915 11.653647,7.62748 23.829414,11.61348 38.970749,12.75788 11.708088,0.88487 26.079216,-1.0708 37.062855,-5.04311 4.543721,-1.64327 6.814681,-2.66126 14.898321,-6.68021 7.46011,-3.708931 8.99941,-4.392869 12.03957,-5.346959 3.7944,-1.190814 5.90659,-1.578052 9.371,-1.677934 v -5.618261 c -3.76168,0.156111 -5.17557,0.440459 -8.31008,1.501717 -3.16662,1.07211 -5.76632,2.266642 -11.42411,5.250842 -5.54948,2.92706 -8.66555,4.431985 -12.4995,6.035285 -5.3113,2.22111 -11.745822,4.25355 -16.630507,5.25291 -2.726362,0.5578 -5.24789,0.78252 -4.441073,0.39584 0.290431,-0.1392 1.483767,-0.69728 2.651518,-1.24023 4.785742,-2.22525 9.312995,-5.37283 12.881901,-8.955524 4.767131,-4.78553 7.936911,-9.801064 9.821621,-15.540653 3.43877,-10.472175 2.62901,-22.021647 -2.2288,-31.790309 -1.75197,-3.523046 -3.62149,-6.128835 -6.627505,-9.236646 L 96.298,38.18165 l 1.138432,0.469222 c 1.942295,0.800375 5.290878,2.558965 7.985558,4.194059 4.98009,3.021848 9.27764,6.5079 14.0777,11.419458 3.24781,3.323247 4.23443,4.588173 5.24929,6.730339 2.45999,5.192527 2.94628,13.893188 1.19476,21.381124 -0.49049,2.096936 -0.37205,2.784183 0.53898,3.130559 0.74671,0.283891 1.11794,-0.06594 1.98593,-1.872754 1.58317,-3.295607 2.56984,-9.517366 2.16679,-13.661699 -0.11297,-1.16173 -0.17851,-2.1464 -0.14521,-2.18798 0.13462,-0.168527 4.1484,5.446578 4.74338,6.635771 0.12244,0.244736 0.18265,0.529981 0.27698,0.792199 V 58.274997 c -0.0644,-0.09023 -0.10746,-0.145754 -0.17259,-0.237194 -3.76918,-5.29134 -5.21945,-7.170743 -7.76491,-10.063986 C 115.79316,34.584505 99.882565,25.953499 82.304539,23.417176 78.566254,22.877781 74.773896,22.595868 70.966213,22.563998 Z M 59.332297,36.946583 c 0.428994,0.0187 0.694531,0.06679 0.694531,0.148828 0,0.133429 -0.18471,0.242363 -0.41031,0.242363 -0.225598,0 -1.517816,0.335841 -2.87166,0.746207 -8.668518,2.627544 -16.018789,8.837722 -19.908346,16.820163 -1.044678,2.143967 -2.415355,6.159933 -2.87476,8.422742 -1.011971,4.984565 -1.014684,10.470655 -0.0083,16.625342 0.331357,2.026397 -0.598257,0.544089 -1.716174,-2.736267 -1.022962,-3.001722 -1.24408,-4.64433 -1.244886,-9.250599 -8.7e-4,-4.963743 0.243622,-6.567385 1.600936,-10.503752 2.533559,-7.347592 6.912993,-12.914593 13.28136,-16.881657 2.278489,-1.41935 5.114812,-2.550924 7.920964,-3.160531 1.489646,-0.32361 4.249631,-0.528937 5.536613,-0.472839 z m -24.751461,4.44624 c 0.05035,0.05035 -0.388974,0.655646 -0.976168,1.345138 -0.58719,0.689489 -1.640277,2.104887 -2.339909,3.145544 -4.510769,6.709437 -6.723753,14.827105 -6.452319,23.66574 0.312123,10.163554 3.325502,18.088785 9.672794,25.439275 4.234377,4.90363 11.713322,9.94526 18.043344,12.16308 0.929384,0.32561 1.779948,0.67165 1.890324,0.76895 0.322342,0.28442 -0.849733,0.17346 -3.68608,-0.34985 C 37.122735,105.05966 23.661192,98.616482 13.899927,89.941282 9.3587696,85.905391 6.6819813,82.309093 5.7769085,79.02877 5.0851015,76.521652 4.807669,73.18737 5.0906455,70.781211 5.5948529,66.493887 6.7739055,63.823469 9.3890912,61.046404 14.5298,55.587477 21.548334,49.570847 27.498581,45.52177 c 2.691034,-1.831221 6.916618,-4.294578 7.082255,-4.128947 z m 48.469394,0.169499 h 1.041797 c 1.170646,0 1.342394,0.220676 1.276924,1.64176 -0.01994,0.432946 -0.02665,1.333949 -0.0155,2.001945 l 0.02015,1.214397 h 2.640149 2.640666 v 1.056266 1.056266 H 88.01375 85.373601 l -0.03876,1.953369 c -0.02144,1.074602 -0.04879,2.191585 -0.05994,2.482019 h 5.17e-4 c -0.01887,0.484515 -0.111636,0.533642 -1.122929,0.592212 l -1.102258,0.06356 v -2.545579 -2.545581 h -2.53473 -2.534729 V 47.47669 46.420424 h 2.534729 2.534729 v -2.428793 z m -30.296343,4.908744 c 2.396836,0.148107 4.062168,1.262769 5.290117,3.540353 0.639407,1.185961 0.531262,4.193527 -0.208773,5.809981 -0.833691,1.82102 -1.841134,2.932255 -3.335197,3.678846 -1.101911,0.550637 -1.527825,0.647016 -2.797245,0.633036 -2.031526,-0.02262 -3.142651,-0.459374 -4.462777,-1.754932 -2.801086,-2.748962 -2.623667,-6.919458 0.424263,-9.971484 1.462754,-1.46472 3.035151,-2.062739 5.089612,-1.9358 z m 13.609506,4.51497 c 6.547818,-0.04422 12.742428,3.935487 15.241447,9.791134 0.323858,0.758856 0.591796,1.640614 0.594796,1.960087 0.0049,0.500428 -0.0784,0.58136 -0.602031,0.58136 -0.755942,0 -0.834596,-0.09647 -2.037601,-2.499589 -1.497972,-2.992346 -4.31417,-5.69656 -7.176824,-6.891569 -2.880877,-1.202618 -7.084428,-1.517825 -9.720853,-0.729154 -2.224016,0.6653 -2.516621,0.646337 -2.595191,-0.165365 -0.05413,-0.559147 0.03631,-0.725892 0.528133,-0.976168 1.228985,-0.625406 3.54588,-1.055686 5.768124,-1.070736 z m 30.679265,2.016932 c 0.384297,0.0343 0.776012,0.129184 1.166854,0.292488 3.393058,1.417713 3.393058,5.954963 0,7.372677 -0.936944,0.391472 -1.627293,0.410905 -2.738335,0.07803 L 94.641254,60.4976 91.325177,63.809026 88.0091,67.120451 85.688312,67.074461 c -1.276582,-0.02525 -4.174546,-0.09624 -6.439917,-0.158129 l -4.119129,-0.112655 v -0.73949 -0.738973 l 6.025989,-0.05633 6.025472,-0.05581 3.028756,-3.03444 3.028756,-3.033923 -0.260449,-0.789099 c -0.947993,-2.872445 1.374785,-5.592738 4.064868,-5.352645 z m -0.348816,1.949235 c -0.214489,0.01233 -0.440274,0.0578 -0.678512,0.136425 -1.655901,0.546498 -1.782233,3.004918 -0.191202,3.718637 0.886712,0.397772 1.801575,0.191297 2.487186,-0.561206 0.733404,-0.804894 0.751533,-1.662456 0.05323,-2.492355 -0.483855,-0.575031 -1.027233,-0.838477 -1.670699,-0.801501 z m -25.619109,4.156852 c 0.127494,-0.02865 0.272784,-0.01217 0.435116,0.05013 0.274596,0.105366 0.345715,0.437825 0.345715,1.617989 v 1.485181 h -0.640271 c -0.769656,0 -0.882444,-0.238792 -0.797884,-1.693437 0.05125,-0.881618 0.274844,-1.373905 0.657324,-1.459859 z m -3.947563,0.01705 c 0.142243,-0.01637 0.31761,0.01422 0.533301,0.08268 0.333032,0.105697 0.392741,0.347213 0.392741,1.58905 v 1.46451 h -0.738973 -0.73949 v -1.456242 c 0,-1.15722 0.125693,-1.630891 0.552421,-1.680001 z m -4.088122,0.0021 c 0.129188,-0.01638 0.291545,0.0069 0.494543,0.05788 0.503049,0.12626 0.522651,0.192735 0.463021,1.551326 -0.05896,1.34313 -0.09071,1.422404 -0.597896,1.481564 -0.75398,0.08793 -0.837158,-0.06709 -0.837158,-1.563729 0,-1.073411 0.08992,-1.477897 0.47749,-1.527039 z m -11.867493,3.134176 c 0.325798,0 0.645197,0.08508 0.709517,0.189136 0.0643,0.104043 -0.116638,0.809608 -0.402042,1.567863 -0.719583,1.911735 -1.016051,4.536524 -0.760161,6.729305 0.661041,5.664593 3.794061,10.171023 8.779826,12.62817 2.409818,1.187636 4.233555,1.633828 6.864698,1.680518 2.374004,0.0421 2.902552,0.247108 2.654101,1.029911 -0.07445,0.234564 -0.282399,0.482964 -0.461987,0.551904 -0.63104,0.24215 -3.156156,0.307812 -4.410067,0.114722 -5.674261,-0.873759 -10.870083,-4.670179 -13.489099,-9.856246 -2.177139,-4.311075 -2.416294,-9.422192 -0.627352,-13.408484 0.481239,-1.072338 0.624759,-1.226799 1.142566,-1.226799 z m -8.570537,0.84491 c 0.899903,0 1.025914,0.613259 0.65164,3.173449 -0.414513,2.835455 -0.418519,4.175296 -0.02015,6.818189 0.75427,5.004102 3.174327,9.884242 6.765996,13.643095 0.8441,0.88339 2.076462,1.98684 2.738334,2.45153 0.661871,0.46469 1.455976,1.055379 1.76475,1.313099 0.678655,0.5664 0.452644,0.586727 -0.811837,0.07235 -3.87303,-1.5755 -7.76867,-5.414851 -9.979236,-9.834543 C 41.3117,75.94838 40.4107,70.116034 41.357167,65.506081 c 0.423394,-2.062237 0.598281,-2.39882 1.243851,-2.39882 z m 24.501865,0.679545 c 2.904326,-0.03269 5.494331,-0.0071 5.755721,0.05684 l 0.475423,0.116272 v 5.897831 c 0,4.489682 -0.06307,5.936954 -0.264067,6.062163 -0.266779,0.166185 -10.317978,0.28847 -10.962122,0.133325 -0.295871,-0.07126 -0.370339,-0.569579 -0.499711,-3.33003 -0.08368,-1.785404 -0.06978,-4.513293 0.03101,-6.061645 l 0.182935,-2.815332 z m -8.847523,1.460893 c 0.272908,-0.007 0.572365,0.01656 0.886251,0.07545 0.609606,0.114366 0.69131,0.204532 0.63407,0.700216 -0.0623,0.539638 -0.131125,0.572429 -1.34152,0.630969 -1.358218,0.06572 -1.575615,-0.0191 -1.575615,-0.612882 0,-0.472869 0.578091,-0.772648 1.396814,-0.79375 z m 5.467884,0.711067 -0.05788,3.688664 c -0.03188,2.028947 -0.01028,3.813603 0.04806,3.96565 0.08296,0.216145 0.901335,0.263801 3.754293,0.218591 l 3.648356,-0.05788 v -3.907255 -3.907772 h -3.696415 z m 11.511442,3.062862 h 4.239018 4.239018 l 2.814815,2.745569 2.814815,2.746086 h 1.821078 1.821077 l 0.89452,-0.929659 c 1.384772,-1.440068 3.055975,-1.730066 4.908227,-0.851111 2.761076,1.310177 2.691476,5.701059 -0.113688,7.167522 -2.229129,1.16532 -5.232592,-0.289866 -5.62808,-2.726966 l -0.12299,-0.759127 h -2.089795 -2.089795 l -3.004985,-2.844787 -3.004468,-2.845305 -3.749125,-0.0062 -3.749642,-0.0062 V 69.86657 Z M 58.34011,69.338405 h 1.369942 v 0.633553 c 0,0.629926 -0.0079,0.634008 -1.322917,0.696598 -1.388851,0.06609 -1.653777,-0.102336 -1.490865,-0.948262 0.06195,-0.321673 0.290096,-0.381889 1.44384,-0.381889 z m 19.393648,3.51038 c 0.795221,0.0081 1.507586,0.06906 1.713591,0.179317 0.48301,0.258499 0.568923,0.843396 0.180867,1.23145 -0.27021,0.270214 -4.206902,0.36956 -4.46381,0.112654 -0.07747,-0.07745 -0.14056,-0.399072 -0.14056,-0.714685 0,-0.435699 0.120265,-0.596649 0.499711,-0.669209 0.53718,-0.102685 1.414981,-0.14762 2.210201,-0.139527 z m -19.537826,0.188619 c 1.253805,0.0054 1.648619,0.209959 1.578199,0.817005 -0.0604,0.520675 -0.139067,0.556849 -1.33997,0.614949 -1.400152,0.06775 -1.575615,-0.01101 -1.575615,-0.707967 0,-0.531259 0.363481,-0.728087 1.337386,-0.723987 z m 38.928375,1.136365 c -0.622966,-0.10128 -1.19681,0.116254 -1.735812,0.655257 -0.723965,0.723878 -0.719294,2.239698 0.0088,2.967778 0.617477,0.617467 1.954553,0.707179 2.752287,0.184485 1.269785,-0.831994 1.046389,-2.916955 -0.385506,-3.599781 -0.219134,-0.104497 -0.432099,-0.173979 -0.639754,-0.207739 z m -25.718328,3.341915 c 0.281326,0.05418 0.343648,0.354287 0.343648,1.647445 0,1.535675 -0.01538,1.583087 -0.535884,1.643827 -0.74648,0.08705 -0.837158,-0.07047 -0.837158,-1.455725 0,-1.29182 0.375868,-1.961397 1.029394,-1.835547 z m -7.346838,0.137459 -0.06253,1.545642 c -0.06076,1.506204 -0.07669,1.547368 -0.63562,1.611788 -0.68544,0.07903 -0.86105,-0.379391 -0.759644,-1.981274 0.06385,-1.008645 0.08806,-1.044236 0.761711,-1.108976 z m 3.255098,0.133842 h 0.633553 v 1.47898 c 0,1.456663 -0.0089,1.479195 -0.582393,1.545125 -0.723611,0.08323 -0.832198,-0.175019 -0.749308,-1.780253 0.06334,-1.226782 0.07309,-1.243852 0.698148,-1.243852 z m 68.196351,4.457609 c -0.0787,0.377088 -0.12143,0.706498 -0.21962,1.110527 -0.29806,1.226346 -0.23149,1.908707 0.21962,2.254643 z M 0.63200278,83.688434 v 12.739274 l 2.58123782,-1.309481 2.2045167,2.318722 c 1.2124538,1.27483 2.2089619,2.398839 2.2148519,2.498039 0.00587,0.09915 -0.656164,0.846852 -1.471228,1.661912 -1.8160884,1.81608 -3.655954,4.5361 -4.440556,6.56498 -1.03416576,2.6742 -1.34667069,5.32215 -0.6283854,5.32215 0.1725514,0 0.830858,-0.76045 1.4629598,-1.68982 1.9563577,-2.87648 7.6026934,-8.12273 8.7477864,-8.12973 0.212127,-10e-4 0.924714,0.40575 1.583883,0.90433 0.65917,0.49857 1.982996,1.4643 2.941423,2.14613 0.958427,0.68182 1.742529,1.32554 1.742529,1.42988 0,0.10445 -0.337264,0.63139 -0.749308,1.17099 -1.797977,2.35476 -3.053044,6.32011 -3.053044,9.64696 0,1.40067 0.08793,2.05306 0.316776,2.34921 0.310762,0.40192 0.323206,0.4019 0.627352,0.009 0.17055,-0.22043 0.607807,-1.12339 0.972034,-2.00659 1.175572,-2.85062 2.82858,-5.45522 4.906161,-7.73131 l 1.156518,-1.26711 3.45612,1.73426 c 1.900929,0.95381 3.907855,1.92242 4.459676,2.15284 0.551824,0.23045 1.003557,0.5074 1.003557,0.61547 0,0.10811 -0.13549,0.5801 -0.300757,1.04851 -0.805176,2.28214 -1.211941,7.37432 -0.660425,8.26668 0.428276,0.69295 0.88188,0.0365 1.816427,-2.62723 0.926726,-2.64142 1.706193,-4.31389 2.487186,-5.33817 l 0.36897,-0.48421 2.617412,0.74621 c 5.655615,1.61246 10.324273,2.32812 15.215609,2.33112 4.096958,0.003 4.858618,-0.11156 4.858618,-0.73226 0,-0.42481 -0.607604,-0.66485 -2.429309,-0.96014 -0.464693,-0.0753 -1.985566,-0.37085 -3.379639,-0.65681 C 39.474217,113.99418 29.958851,110.13007 20.607528,103.9642 16.30121,101.1248 13.689433,98.981893 9.8422935,95.130113 5.9701226,91.253273 4.8870797,89.937347 1.9523357,85.545685 1.4376221,84.775448 1.0273123,84.218509 0.63200278,83.688434 Z m 78.95849022,0.475423 4.662764,0.117822 c 4.761888,0.120612 5.55625,0.258988 5.55625,0.968933 0,0.818123 -0.353584,0.88005 -5.046203,0.88005 h -4.538741 l -3.875216,3.854545 -3.874699,3.855062 -2.896981,0.06873 c -3.073126,0.07322 -3.425114,-0.02043 -3.425114,-0.913639 0,-0.83651 0.375784,-0.95033 3.135209,-0.95033 h 2.62878 l 3.836975,-3.940845 z m 3.374471,6.085417 c 2.521071,0 2.725359,0.03015 2.798279,0.40876 0.04327,0.22467 -0.09218,0.533383 -0.301274,0.686263 -0.591594,0.43264 -5.016279,0.386333 -5.383651,-0.05633 -0.201504,-0.24277 -0.216907,-0.43139 -0.05581,-0.68678 0.188429,-0.29874 0.633754,-0.351916 2.942456,-0.351916 z M 122.17446,104.5652 c -0.0967,-0.0196 -0.23552,-0.009 -0.41755,0.0346 -1.5845,0.37785 -4.1533,1.83933 -15.68328,8.924 -19.066918,11.71572 -33.191133,16.69551 -51.11626,18.02164 -1.80068,0.13321 -5.222638,0.30627 -7.604187,0.38447 -4.11822,0.13508 -4.329968,0.1621 -4.329968,0.55759 0,0.30543 0.28049,0.52081 1.056266,0.81132 1.061189,0.3974 3.684767,0.9074 6.031673,1.26453 h 17.411858 c 12.541446,-1.67017 24.590171,-6.79304 38.445198,-16.40262 3.62959,-2.5174 10.29588,-7.50119 12.67313,-9.47436 2.83867,-2.35624 4.21021,-3.98371 3.53312,-4.12119 z m 3.61425,11.17761 c -0.32214,-0.0461 -1.10122,0.4851 -2.64067,1.80144 -6.19566,5.29767 -13.39359,11.35112 -15.17323,12.75994 -1.86753,1.4784 -3.78279,2.886 -5.71852,4.25918 h 7.71013 c 3.36051,-2.87697 6.56141,-5.93307 9.48779,-9.14518 5.5133,-6.05165 7.75325,-9.4726 6.3345,-9.67538 z" /><path
     style="fill:#ffffff;stroke:none;stroke-width:4.09961;stroke-linecap:round;stroke-dasharray:none"
     d="m 49.735786,59.765396 c -1.266809,-0.354597 -3.065395,-2.024629 -3.739469,-3.472193 -1.166694,-2.505451 -0.42137,-5.598881 1.883491,-7.817317 1.361253,-1.31021 2.62732,-1.828191 4.470987,-1.829181 1.847459,-8.13e-4 3.341206,0.632122 4.437602,1.880861 1.108647,1.262692 1.485086,2.263023 1.485086,3.946368 0,4.096753 -2.710113,7.322617 -6.286497,7.482841 -0.743167,0.03332 -1.756205,-0.05283 -2.2512,-0.191379 z"
     id="path176" /><path
     style="fill:#ffffff;stroke:none;stroke-width:2.04982;stroke-linecap:round;stroke-dasharray:none"
     d="m 33.634823,80.40057 c -0.605947,-0.981756 -1.788264,-4.366217 -2.14115,-6.129167 -0.305165,-1.524542 -0.436974,-3.426782 -0.435744,-6.288411 0.0021,-4.325797 0.249014,-6.26675 1.169708,-9.186076 1.737901,-5.510539 4.400591,-10.038531 8.037896,-13.668705 5.28863,-5.278264 11.744725,-8.120362 18.446168,-8.120362 1.146625,0 1.51911,0.167449 0.683707,0.30736 -0.875799,0.146673 -3.713022,1.012927 -5.121881,1.563804 -8.349387,3.264668 -15.15296,9.929372 -18.354141,17.979508 -1.983758,4.988644 -2.720019,8.864098 -2.723785,14.337158 -0.0021,3.131929 0.104084,4.645048 0.53948,7.683355 0.132596,0.925261 0.221973,1.739613 0.198627,1.809652 -0.02335,0.07008 -0.157851,-0.05961 -0.298885,-0.288116 z"
     id="path177" /><path
     style="fill:#ffffff;stroke:none;stroke-width:2.04982;stroke-linecap:round;stroke-dasharray:none"
     d="m 54.090929,90.661917 c -0.832584,-0.30707 -2.259909,-1.08143 -3.33392,-1.80874 -1.33719,-0.90554 -4.077895,-3.614558 -5.063429,-5.004879 -3.811585,-5.377141 -5.452532,-12.597955 -4.218856,-18.564664 0.321281,-1.553886 0.562995,-2.01802 1.076641,-2.067324 0.860314,-0.08258 0.965732,0.428442 0.633193,3.069413 -0.408809,3.246636 -0.295512,5.941815 0.369482,8.789422 0.769615,3.295615 2.479869,6.846873 4.699993,9.759293 1.024243,1.343625 3.204605,3.461379 4.836721,4.697819 0.88349,0.66931 1.606343,1.23634 1.606343,1.26008 0,0.0695 -0.154034,0.0363 -0.606168,-0.13043 z"
     id="path178" /><path
     style="fill:#ffffff;stroke:none;stroke-width:2.04982;stroke-linecap:round;stroke-dasharray:none"
     d="m 64.311312,86.706237 c -2.589418,-0.337119 -5.673137,-1.62803 -8.03818,-3.364962 -1.682549,-1.23569 -3.628398,-3.309424 -4.752128,-5.064421 -0.986788,-1.541134 -1.871418,-3.770888 -2.295289,-5.785382 -0.314606,-1.49522 -0.373401,-4.258459 -0.12044,-5.660198 0.300356,-1.664355 1.035557,-3.674373 1.563112,-4.273478 0.244247,-0.277373 0.97726,-0.285708 1.082173,-0.01231 0.04219,0.109915 -0.09437,0.723664 -0.303475,1.363873 -0.553661,1.695248 -0.757056,2.791823 -0.834286,4.497944 -0.123492,2.727888 0.416251,5.280498 1.65445,7.824457 0.870454,1.788401 1.806808,3.068157 3.234045,4.420122 1.766557,1.673382 3.978089,2.986146 6.301907,3.740787 1.442121,0.468317 2.353368,0.612026 4.653975,0.733929 1.460919,0.07743 2.011578,0.151632 2.241132,0.302037 0.357321,0.23413 0.388338,0.548146 0.09047,0.915987 -0.350025,0.432275 -2.562367,0.610945 -4.47747,0.361615 z"
     id="path179" /><path
     style="fill:#ffffff;stroke:none;stroke-width:0.724718;stroke-linecap:round;stroke-dasharray:none"
     d="m 57.280606,66.605796 c -0.242934,-0.05462 -0.367957,-0.199972 -0.390108,-0.453503 -0.04743,-0.542908 0.505069,-0.86936 1.471355,-0.86936 0.687092,0 1.292246,0.143771 1.361168,0.323386 0.04886,0.127286 0.02742,0.534735 -0.03611,0.686801 -0.04239,0.101426 -0.110877,0.17029 -0.210974,0.212115 -0.283218,0.118338 -1.806063,0.188094 -2.195317,0.100554 z"
     id="path180" /><path
     style="fill:#ffffff;stroke:none;stroke-width:0.724718;stroke-linecap:round;stroke-dasharray:none"
     d="m 57.232574,70.586882 c -0.231787,-0.08938 -0.323733,-0.214751 -0.34372,-0.468661 -0.0269,-0.34142 0.0591,-0.552062 0.267613,-0.655644 0.156037,-0.07751 0.278882,-0.08658 1.366453,-0.100954 l 1.194999,-0.01577 -0.01913,0.486715 c -0.01065,0.267696 -0.04219,0.529269 -0.07035,0.581281 -0.02819,0.05201 -0.123349,0.116197 -0.211474,0.142652 -0.241028,0.07234 -2.011734,0.09697 -2.184383,0.03038 z"
     id="path181" /><path
     style="fill:#ffffff;stroke:none;stroke-width:0.724718;stroke-linecap:round;stroke-dasharray:none"
     d="m 57.17327,74.390108 c -0.207655,-0.09064 -0.273977,-0.231259 -0.273977,-0.580886 0,-0.4882 0.204195,-0.657787 0.87565,-0.727257 0.415551,-0.04299 1.224871,0.0053 1.522639,0.0907 0.09318,0.02677 0.235192,0.114401 0.315561,0.194768 0.142729,0.142728 0.145737,0.153013 0.12931,0.443549 -0.03051,0.539804 -0.172813,0.597955 -1.535857,0.627539 -0.735339,0.01596 -0.903907,0.008 -1.033328,-0.04843 z"
     id="path182" /><path
     style="fill:#ffffff;stroke:none;stroke-width:0.724718;stroke-linecap:round;stroke-dasharray:none"
     d="m 62.267325,76.047235 c -0.112248,-0.01723 -0.232015,-0.05932 -0.266147,-0.09356 -0.267865,-0.268788 -0.388049,-2.159828 -0.383968,-6.041583 0.0029,-2.65663 0.01218,-3.020481 0.113236,-4.449496 0.06062,-0.855954 0.118734,-1.564811 0.129157,-1.575242 0.0104,-0.0104 1.955793,-0.0405 4.323029,-0.06679 4.408663,-0.04897 6.453309,-0.02038 6.911096,0.09665 l 0.206738,0.05286 -0.01933,5.446308 c -0.01894,5.339636 -0.03494,5.970679 -0.161174,6.354357 -0.05473,0.166346 -0.07248,0.169213 -1.433135,0.231527 -1.126307,0.05158 -9.127334,0.08977 -9.419529,0.04498 z m 6.98708,-2.220276 1.896664,-0.02835 v -3.93636 -3.936366 h -3.722093 -3.722097 l -0.02838,1.485759 c -0.03542,1.854862 -0.0363,5.897102 -0.0012,6.108534 0.04825,0.291819 0.248998,0.321272 2.244702,0.329351 0.789742,0.0031 2.289391,-0.007 3.33256,-0.02254 z"
     id="path183" /><path
     style="fill:#ffffff;stroke:none;stroke-width:0.724718;stroke-linecap:round;stroke-dasharray:none"
     d="m 62.805204,62.114866 c -0.167314,-0.15849 -0.201742,-0.391155 -0.20353,-1.375358 -0.0021,-1.068582 0.0379,-1.307093 0.247654,-1.483606 0.120594,-0.101479 0.159169,-0.110415 0.392266,-0.09093 0.377935,0.03159 0.619548,0.141683 0.692109,0.315346 0.107095,0.256331 0.04229,2.12632 -0.08417,2.428879 -0.09284,0.222095 -0.171465,0.259967 -0.578251,0.278547 -0.331431,0.0152 -0.381398,0.0074 -0.46607,-0.07288 z"
     id="path184" /><path
     style="fill:#ffffff;stroke:none;stroke-width:0.724718;stroke-linecap:round;stroke-dasharray:none"
     d="m 66.60797,61.178845 c 1.78e-4,-0.583462 0.02056,-1.185524 0.04528,-1.33791 0.05511,-0.339675 0.184187,-0.57987 0.348087,-0.64776 0.145599,-0.06031 0.47079,-0.03067 0.696025,0.06345 0.282888,0.118196 0.299891,0.208765 0.316663,1.686489 l 0.01474,1.296588 h -0.710542 -0.710542 z"
     id="path185" /><path
     style="fill:#ffffff;stroke:none;stroke-width:0.724718;stroke-linecap:round;stroke-dasharray:none"
     d="m 70.808194,62.191539 c -0.331675,-0.132256 -0.406844,-0.39276 -0.374593,-1.298167 0.03509,-0.985347 0.179121,-1.468102 0.503808,-1.688712 0.1208,-0.08207 0.184531,-0.09677 0.333263,-0.07685 0.101132,0.01352 0.221492,0.04475 0.267446,0.06934 0.233565,0.124991 0.295628,0.538511 0.297428,1.981698 l 0.0012,1.060848 -0.460772,-0.0029 c -0.253426,-0.0017 -0.508984,-0.02193 -0.567905,-0.04545 z"
     id="path186" /><path
     style="fill:#ffffff;stroke:none;stroke-width:0.724718;stroke-linecap:round;stroke-dasharray:none"
     d="m 70.668865,80.755622 c -0.151553,-0.09384 -0.214548,-0.30631 -0.252518,-0.851644 -0.09333,-1.340394 0.19525,-2.280158 0.72142,-2.349353 0.259635,-0.03416 0.386797,0.01153 0.473247,0.169764 0.06622,0.121286 0.07751,0.289782 0.08993,1.342962 0.01547,1.31462 -0.0075,1.511985 -0.190838,1.632059 -0.131706,0.0863 -0.728301,0.126157 -0.841238,0.05621 z"
     id="path187" /><path
     style="fill:#ffffff;stroke:none;stroke-width:0.724718;stroke-linecap:round;stroke-dasharray:none"
     d="m 66.87101,80.732543 c -0.240041,-0.173985 -0.297627,-0.63369 -0.224923,-1.795464 0.0528,-0.843535 0.109415,-1.048282 0.304459,-1.100867 0.05893,-0.01589 0.306747,-0.03083 0.550687,-0.03315 l 0.44353,-0.0043 -0.01851,1.296593 c -0.01243,0.874336 -0.0355,1.34003 -0.07062,1.429979 -0.06737,0.172504 -0.213311,0.237856 -0.583606,0.26135 -0.236633,0.01509 -0.321377,0.0038 -0.401006,-0.05414 z"
     id="path188" /><path
     style="fill:#ffffff;stroke:none;stroke-width:0.724718;stroke-linecap:round;stroke-dasharray:none"
     d="m 62.939473,80.721319 c -0.290867,-0.183963 -0.383514,-0.700456 -0.318659,-1.776499 0.04665,-0.774067 0.0928,-0.991625 0.229332,-1.08108 0.0889,-0.05824 0.374156,-0.107736 0.963827,-0.167233 l 0.228134,-0.02302 -0.02737,0.652 c -0.05023,1.196899 -0.105659,1.979175 -0.151755,2.141879 -0.05968,0.210683 -0.183676,0.285938 -0.517704,0.314242 -0.224391,0.01905 -0.297615,0.0085 -0.405812,-0.06027 z"
     id="path189" /><path
     style="fill:#ffffff;stroke:none;stroke-width:0.724718;stroke-linecap:round;stroke-dasharray:none"
     d="m 81.33091,63.290193 c -0.02356,-0.0077 -0.09554,-0.02593 -0.159945,-0.0401 -0.312514,-0.06885 -0.543818,-0.40607 -1.339879,-1.953374 -0.615288,-1.19593 -0.901379,-1.685819 -1.363044,-2.334008 -0.546135,-0.766792 -0.980541,-1.276108 -1.722182,-2.019137 -2.582358,-2.587197 -5.208074,-3.773915 -9.148124,-4.134579 -0.629274,-0.0576 -2.381053,-0.05676 -2.961765,0.0017 -0.723755,0.07252 -1.431475,0.209447 -2.143122,0.414644 -1.512559,0.436131 -2.002692,0.505865 -2.206931,0.31399 -0.139411,-0.130968 -0.192834,-0.331716 -0.19313,-0.725755 l -2.4e-4,-0.318099 0.185286,-0.177536 c 0.431645,-0.413586 1.886257,-0.874911 3.500887,-1.11029 0.793248,-0.115632 1.286689,-0.156601 2.207418,-0.183244 4.560614,-0.131966 9.06837,1.679869 12.324309,4.953585 1.723399,1.732814 3.08921,3.953158 3.709805,6.03088 0.135436,0.453452 0.183315,1.027723 0.09537,1.144271 -0.0868,0.115042 -0.588372,0.202814 -0.784733,0.137308 z"
     id="path190" /><path
     style="fill:#ffffff;stroke:none;stroke-width:0.724718;stroke-linecap:round;stroke-dasharray:none"
     d="m 85.767181,67.054917 c -0.17681,-0.0062 -1.237658,-0.03217 -2.357439,-0.05775 -1.119782,-0.02559 -3.415067,-0.0841 -5.100633,-0.130002 -1.685567,-0.04591 -3.088782,-0.08357 -3.118249,-0.08375 -0.04073,-2.24e-4 -0.05358,-0.173382 -0.05358,-0.722059 v -0.721762 l 3.546871,-0.02838 c 1.950782,-0.01564 4.669335,-0.04108 6.041236,-0.05658 l 2.494361,-0.02819 3.023455,-3.02801 3.023462,-3.028012 -0.107417,-0.340595 c -0.298756,-0.947264 -0.326166,-1.070071 -0.350584,-1.57083 -0.01544,-0.316527 -0.0046,-0.624893 0.02943,-0.835818 0.360186,-2.233975 2.48961,-3.768776 4.62165,-3.331079 1.288828,0.26459 2.476171,1.225775 2.965166,2.400393 0.87218,2.095097 -0.19581,4.389783 -2.43545,5.232784 -0.858426,0.323107 -1.453031,0.307297 -2.750196,-0.07314 l -0.61129,-0.179278 -3.305359,3.305152 -3.305359,3.305156 -0.964302,-0.0086 c -0.530368,-0.0046 -1.108965,-0.01351 -1.28577,-0.0197 z m 11.621416,-8.146912 c 0.529848,-0.191559 1.062988,-0.6763 1.332722,-1.211735 0.130759,-0.259594 0.140351,-0.308005 0.140351,-0.709454 0,-0.414036 -0.0066,-0.443977 -0.166298,-0.767311 -0.217747,-0.440596 -0.659579,-0.89574 -1.058507,-1.090426 -0.490585,-0.239413 -1.064299,-0.255678 -1.658754,-0.04703 -0.800846,0.281095 -1.295533,1.022996 -1.295533,1.942945 0,0.930993 0.58142,1.68062 1.500189,1.934172 0.317779,0.08771 0.88874,0.06347 1.20583,-0.05118 z"
     id="path191" /><path
     style="fill:#ffffff;stroke:none;stroke-width:0.724718;stroke-linecap:round;stroke-dasharray:none"
     d="M 96.283129,80.224312 C 95.037385,79.9864 93.948162,79.209695 93.422624,78.184539 93.185931,77.722833 93.148888,77.604387 93.034967,76.945095 l -0.0932,-0.539346 -2.097824,-0.01167 -2.097823,-0.01167 -3.000377,-2.84702 -3.000373,-2.847023 -3.739753,-0.0025 -3.739751,-0.0025 v -0.814289 -0.814384 h 4.224046 4.224048 l 2.807644,2.743197 2.80765,2.7432 1.830126,3.44e-4 1.830122,3.42e-4 0.664372,-0.677183 c 0.365404,-0.372446 0.795692,-0.769788 0.956198,-0.882977 1.044359,-0.736487 2.236098,-0.904345 3.500941,-0.493114 0.436815,0.142022 1.028043,0.445012 1.307237,0.669932 1.75566,1.414398 1.83653,4.369992 0.16478,6.022597 -0.505967,0.500181 -0.998372,0.79242 -1.642918,0.975072 -0.414848,0.117574 -1.223825,0.150792 -1.656989,0.0681 z m 1.315453,-1.979791 c 0.567725,-0.168444 0.957957,-0.483585 1.190606,-0.961497 0.539846,-1.108958 0.0028,-2.513079 -1.140015,-2.977196 -0.798583,-0.324493 -1.512771,-0.189235 -2.16722,0.410443 -0.456885,0.418654 -0.643027,0.886339 -0.638312,1.603749 0.0075,1.114511 0.565047,1.803982 1.611152,1.9918 0.291691,0.05236 0.851466,0.01945 1.143789,-0.0673 z"
     id="path192" /><path
     style="fill:#ffffff;stroke:none;stroke-width:0.724718;stroke-linecap:round;stroke-dasharray:none"
     d="m 75.625903,74.457666 c -0.413881,-0.04779 -0.471898,-0.08589 -0.527838,-0.346727 -0.06173,-0.287872 -0.05799,-0.680757 0.0076,-0.808589 0.166769,-0.324505 0.637197,-0.404552 2.388951,-0.406519 1.666226,-0.0021 1.984478,0.05782 2.221962,0.41667 0.159444,0.240939 0.158595,0.546162 -0.0021,0.789141 -0.130078,0.196556 -0.218766,0.225618 -0.955321,0.313003 -0.492687,0.05846 -2.733124,0.08921 -3.133256,0.04302 z"
     id="path193" /><path
     style="fill:#ffffff;stroke:none;stroke-width:0.724718;stroke-linecap:round;stroke-dasharray:none"
     d="m 83.066845,51.058571 v -2.534875 h -2.52889 -2.528887 v -1.050128 -1.050133 h 2.528887 2.52889 v -2.426278 -2.426276 l 0.8251,0.01553 c 0.777677,0.01458 0.837382,0.02165 1.038699,0.122413 0.402078,0.201247 0.384676,0.08951 0.398701,2.560785 l 0.01231,2.153839 h 2.655968 2.655965 v 1.050132 1.050131 h -2.649421 -2.649368 l -0.05113,2.312939 c -0.03294,1.49054 -0.068,2.349947 -0.09856,2.417006 -0.08971,0.196899 -0.388305,0.259189 -1.484568,0.309692 l -0.653652,0.0301 z"
     id="path194" /><path
     style="fill:#ffffff;stroke:none;stroke-width:0.724718;stroke-linecap:round;stroke-dasharray:none"
     d="m 67.215998,93.871747 c -0.851249,-0.0888 -1.077802,-0.30625 -1.028531,-0.98742 0.02994,-0.41387 0.211669,-0.58691 0.747811,-0.71205 0.24199,-0.0565 0.710279,-0.0733 2.65247,-0.0952 l 2.358593,-0.0266 3.336589,-3.42899 c 1.835122,-1.88595 3.561851,-3.6565 3.83717,-3.934552 l 0.500588,-0.505553 2.591043,0.06649 c 4.403089,0.112991 5.598699,0.169212 6.456948,0.303622 0.913787,0.143115 1.183552,0.354043 1.106859,0.865481 -0.05595,0.373076 -0.316487,0.513993 -1.136573,0.614713 -0.271272,0.03329 -1.748704,0.05687 -4.42614,0.07064 l -4.018952,0.02066 -3.862891,3.842449 -3.862893,3.84246 -0.797814,0.0268 c -1.559433,0.0524 -4.103642,0.0736 -4.454277,0.037 z"
     id="path195" /><path
     style="fill:#ffffff;stroke:none;stroke-width:0.724718;stroke-linecap:round;stroke-dasharray:none"
     d="m 81.97385,91.599687 c -1.113384,-0.0585 -1.69354,-0.16451 -1.871044,-0.34201 -0.220077,-0.22009 -0.212637,-0.47529 0.02068,-0.70859 0.234944,-0.23495 0.472399,-0.2559 2.900507,-0.2559 2.236136,0 2.47768,0.0179 2.638343,0.19543 0.153291,0.16938 0.02689,0.67779 -0.206448,0.83047 -0.344098,0.22515 -1.998775,0.35848 -3.482023,0.2806 z"
     id="path196" /><path
     style="fill:#ffffff;stroke:none;stroke-width:2.04982;stroke-linecap:round;stroke-dasharray:none"
     d="m 52.817977,107.85955 c -5.960012,-0.91556 -12.66922,-2.85538 -18.704895,-5.40815 -2.366588,-1.00093 -7.186624,-3.437613 -9.300023,-4.701473 -5.068893,-3.03128 -9.515378,-6.42286 -13.035237,-9.94265 C 6.7160324,82.745566 5.0739106,79.068447 5.0903362,72.832329 5.1007204,68.878099 6.0656935,65.542925 7.9728483,62.869368 8.2667958,62.457293 9.148292,61.445853 9.9317241,60.621717 15.454653,54.811847 23.14791,48.36828 29.116845,44.553019 c 2.033237,-1.299619 4.949699,-2.965461 5.102547,-2.914512 0.06786,0.02263 -0.37208,0.667548 -0.977668,1.433166 -4.685496,5.923678 -7.309842,12.331906 -8.265586,20.183217 -0.247953,2.036888 -0.21238,8.144481 0.06038,10.365458 0.635069,5.171281 1.74351,8.994675 3.801255,13.111809 2.929619,5.86159 7.286277,10.80251 13.169397,14.935503 3.055338,2.14642 6.892009,4.18659 10.265266,5.45858 2.564716,0.96712 2.628869,1.05333 0.545548,0.73331 z"
     id="path197" /><path
     id="path198"
     style="fill:#ffffff;stroke:none;stroke-width:2.04982;stroke-linecap:round;stroke-dasharray:none"
     d="m 96.999766,38.606947 c -0.06275,0.02091 0.685402,0.883236 1.662431,1.916679 3.075183,3.252722 4.801333,5.615344 6.438883,8.811865 4.06517,7.935179 5.4854,16.887475 4.09071,25.782406 -1.31958,8.415961 -4.79444,15.328405 -10.847403,21.577495 -4.008366,4.138268 -8.418862,7.223538 -14.092163,9.857798 -1.085999,0.50426 -2.001678,0.94552 -2.035018,0.98082 -0.11706,0.12406 1.895718,-0.10762 3.515548,-0.40463 5.294101,-0.97081 12.582357,-3.28763 18.852076,-5.99292 2.98784,-1.289188 5.89864,-2.708019 10.97143,-5.347989 6.50425,-3.38495 8.62661,-4.35258 12.06696,-5.50199 2.67644,-0.894191 4.03637,-1.143043 8.06669,-1.332735 V 85.76841 c -0.12322,-0.04953 -0.23295,-0.116158 -0.31781,-0.201021 -0.40723,-0.407303 -0.3906,-1.004578 0.091,-3.270085 0.1011,-0.475435 0.17103,-0.839237 0.22686,-1.172538 v -5.225521 c -0.20435,-0.941425 -0.65122,-1.706156 -1.63866,-3.183785 -1.47496,-2.207168 -3.33233,-4.720288 -3.42253,-4.630208 -0.036,0.03604 -0.006,0.955334 0.0672,2.042769 0.31819,4.72899 -0.67057,10.5842 -2.35076,13.920598 -0.77013,1.529352 -1.24855,1.842744 -2.12287,1.390612 -0.7457,-0.38562 -0.77398,-0.988254 -0.18397,-3.881933 1.59613,-7.828178 0.99677,-15.75612 -1.58078,-20.920688 -0.79411,-1.591125 -1.62696,-2.703695 -3.7145,-4.95887 -4.85853,-5.248701 -10.17558,-9.640008 -15.613,-12.894821 -3.23108,-1.934101 -7.806288,-4.283965 -8.130254,-4.175972 z" /></svg>
