<?xml version="1.0" encoding="UTF-8" standalone="no"?>
<!-- Created with Inkscape (http://www.inkscape.org/) -->

<svg
   width="512"
   height="512"
   viewBox="0 0 135.46667 135.46667"
   version="1.1"
   id="svg1"
   xml:space="preserve"
   xmlns="http://www.w3.org/2000/svg"
   xmlns:svg="http://www.w3.org/2000/svg"><defs
     id="defs1" /><path
     style="fill:#000000;stroke-width:0.523772"
     d="m 71.35461,107.75477 c -10.76883,-0.71565 -18.771093,-2.53303 -22.60536,-5.13386 -1.732648,-1.17528 -3.735887,-3.960952 -5.835491,-8.114743 -1.602272,-3.16989 -2.64175,-5.720563 -4.116714,-10.10159 -0.614981,-1.826644 -1.301478,-3.695353 -1.525549,-4.152673 -0.447934,-0.914215 -1.270511,-1.809188 -1.560545,-1.697897 -0.109598,0.0421 -0.343381,0.798548 -0.573118,1.854537 -0.213406,0.980924 -0.726224,2.798928 -1.139596,4.040022 -1.654437,4.967187 -3.55581,7.661282 -6.402562,9.071902 -1.034775,0.512753 -1.289374,0.580573 -2.37391,0.632425 -1.621986,0.07753 -3.044258,-0.288616 -5.207679,-1.340728 -3.102904,-1.509006 -6.229327,-3.799834 -8.6593,-6.344949 C 9.6627424,84.694987 9.0599873,83.83393 8.084618,81.795667 5.9981452,77.435483 4.4072718,70.736835 3.80534,63.777038 L 3.6269691,61.714621 2.7570498,60.876459 C 1.8378802,59.99084 1.3384647,59.108486 1.0880515,57.927709 1.0087043,57.553538 0.90695529,55.875264 0.86195226,54.198202 0.769394,50.748985 0.89089925,49.636824 1.5001235,48.357051 2.5405706,46.171426 6.6647258,43.670662 12.057582,41.955347 c 3.108376,-0.988696 11.239655,-3.08637 18.276956,-4.715031 6.863915,-1.588519 8.104979,-1.859281 13.38448,-2.920025 12.690131,-2.549656 19.769388,-3.250707 24.531421,-2.429308 5.453833,0.940728 15.083718,4.597477 17.259976,6.554117 0.92453,0.831241 1.130828,1.27461 1.139848,2.449707 0.0063,0.819751 -0.05547,1.085074 -0.398565,1.712225 -0.748585,1.368399 -2.436199,2.504483 -3.900723,2.625933 -1.237002,0.102579 -2.5692,-0.436653 -7.531835,-3.048662 -6.361406,-3.348223 -8.788346,-3.95703 -13.462701,-3.37717 -3.744146,0.464462 -9.714025,1.843352 -14.403893,3.326927 -2.045721,0.647134 -2.351472,0.830908 -4.082263,2.453583 -2.842357,2.664814 -3.660406,3.269338 -5.383779,3.978539 -0.541803,0.222961 -2.232329,0.918294 -3.756724,1.545178 -1.524395,0.626884 -4.08122,1.684019 -5.681833,2.349184 -1.600615,0.665175 -3.030183,1.252603 -3.176823,1.305409 -0.213353,0.07678 0.0358,0.283214 1.247233,1.033165 1.825081,1.129831 3.423514,2.201629 5.758829,3.861447 1.961144,1.393885 3.733277,2.357621 5.178546,2.816237 1.580377,0.501503 4.102779,0.532762 7.206229,0.08927 4.351124,-0.621713 6.139489,-0.702392 11.363667,-0.512623 6.307588,0.229123 12.905516,0.724835 27.577681,2.071973 8.15929,0.749157 10.5593,0.895648 13.157408,0.803091 2.619163,-0.0933 3.932353,-0.32514 6.125783,-1.081474 5.5398,-1.910191 16.92841,-8.22018 25.31752,-14.027426 2.33209,-1.614358 3.13928,-1.953726 4.42765,-1.861548 2.3078,0.165123 3.17896,1.901152 2.73954,5.459338 -0.1859,1.505297 -1.06884,6.289303 -1.62036,8.779521 -0.55832,2.52096 -1.23833,3.435211 -2.653,3.56692 -0.79362,0.07392 -1.49091,-0.327805 -1.86642,-1.075222 -0.30862,-0.614275 -0.30141,-1.165355 0.0344,-2.63028 0.14854,-0.647865 0.27165,-1.291993 0.27362,-1.431398 0.004,-0.335548 -6.82819,6.298397 -7.2552,7.043944 -0.17461,0.304872 -0.44629,0.897313 -0.60374,1.31652 -1.34713,3.586845 -1.64587,4.22088 -2.36274,5.014516 -1.17865,1.304862 -5.95851,4.958621 -12.29423,9.397764 -4.77976,3.348963 -4.61987,3.2283 -5.01583,3.785079 -0.17282,0.243 -0.94484,1.938509 -1.715588,3.76778 -2.646724,6.281643 -4.89247,10.524043 -6.771244,12.791403 -1.180284,1.42441 -3.706087,2.98589 -6.062595,3.74798 -1.078624,0.34882 -3.28442,0.79764 -5.249848,1.0682 -1.853775,0.25517 -7.85992,0.36698 -10.453842,0.1946 z m 6.097574,-3.52871 c 4.411337,-0.19283 8.547166,-1.02951 10.370185,-2.09786 1.951938,-1.14392 3.350833,-3.25084 5.08787,-7.663016 1.33434,-3.389307 2.498638,-8.007246 2.832312,-11.233779 0.210389,-2.034397 0.17901,-4.906741 -0.05985,-5.478415 -0.412616,-0.987539 -0.907847,-0.409954 -0.907847,1.058819 0,1.082085 -0.36187,4.346807 -0.704925,6.359732 -0.992694,5.82473 -3.463661,12.399051 -5.532719,14.720469 -0.774648,0.86914 -1.574715,1.3301 -3.183077,1.83392 -4.525143,1.41754 -13.199402,1.55316 -21.690787,0.33913 -3.94673,-0.56429 -7.70549,-1.55126 -8.950674,-2.350294 -1.708879,-1.096586 -3.668533,-4.449174 -5.706186,-9.76217 -2.371917,-6.184561 -3.566584,-11.211605 -3.566584,-15.007859 v -2.022953 l -0.397199,0.546982 c -0.218461,0.300838 -0.482009,0.79643 -0.585663,1.1013 -0.242744,0.713984 -0.244937,3.529092 -0.0038,4.919638 0.786663,4.537029 2.677222,10.103495 5.201334,15.314561 1.445865,2.985006 2.468702,4.664066 3.297179,5.412545 2.077985,1.87733 8.55631,3.46059 16.116297,3.93872 3.762278,0.23793 4.426845,0.24352 8.384167,0.0706 z M 49.181597,99.789125 c 0,-0.03966 -0.151012,-0.311267 -0.335581,-0.603647 -0.493404,-0.7816 -2.297297,-4.428171 -3.059158,-6.18409 -2.078243,-4.789881 -3.604411,-9.450089 -4.561086,-13.927429 -0.992426,-4.644658 -0.699271,-6.502487 1.234632,-7.824315 2.461129,-1.682206 6.382731,-1.971952 16.006142,-1.182627 11.883019,0.974661 30.086119,2.690995 34.57604,3.260087 4.979002,0.631093 6.035282,1.685639 6.024712,6.014832 -0.0032,1.357047 -0.143937,3.314307 -0.351639,4.894178 -0.105037,0.798973 0.138343,0.886719 0.678582,0.244682 0.743409,-0.883482 1.153319,-2.637949 1.603529,-6.863196 0.15066,-1.413877 0.36826,-2.751469 0.502,-3.085704 0.38457,-0.961136 1.19646,-1.539803 3.73798,-2.664166 2.4899,-1.101532 2.98117,-1.474861 2.97737,-2.262575 -0.003,-0.61854 -0.1741,-0.849901 -0.49994,-0.675934 -0.60978,0.325575 -4.79182,1.739129 -5.87268,1.984995 -0.64787,0.14738 -1.988644,0.305131 -2.979499,0.350563 -1.950417,0.08946 -3.268038,-0.0074 -12.54161,-0.922255 C 80.604762,69.778604 75.249723,69.290515 69.622342,68.820456 51.195616,67.281281 49.831515,67.252954 43.15331,68.270745 39.730659,68.792387 36.460008,68.51774 33.23755,67.438115 31.028194,66.697924 29.516847,65.828096 25.899936,63.215116 22.581347,60.817658 19.588602,59.068835 12.665421,55.481472 8.659679,53.405833 6.5582167,52.194435 4.9083766,51.009913 4.300549,50.573509 3.7155301,50.182797 3.6083327,50.141667 c -0.1650003,-0.06328 -0.1832704,0.348481 -0.1190851,2.683982 0.066682,2.426403 0.2812157,4.165032 0.5466841,4.430503 0.035895,0.03589 0.2726843,-0.481466 0.5262049,-1.149683 0.6950592,-1.83201 0.9300683,-2.254306 1.2545404,-2.254306 0.4749759,0 8.109485,3.998956 11.906962,6.236868 4.405925,2.596477 9.751342,6.601992 10.874544,8.148687 0.682081,0.939248 1.057648,2.199732 1.143519,3.837885 0.16284,3.106527 -0.830548,7.187634 -3.657793,15.027175 -0.644198,1.786262 -1.206369,3.423258 -1.249269,3.637755 -0.07175,0.358777 -0.04447,0.39 0.34071,0.39 0.650682,0 1.152817,-0.70377 1.942955,-2.723179 1.305848,-3.337437 2.467628,-7.286603 3.286145,-11.17041 0.370703,-1.758972 1.030227,-2.307332 2.91659,-2.425016 1.850384,-0.115445 3.350068,0.384236 4.593678,1.530553 1.236972,1.140201 1.921897,2.495823 2.661797,5.268292 1.296267,4.857248 4.246058,11.986008 6.3189,15.270888 1.248439,1.978436 2.286182,3.298179 2.286182,2.907464 z m 34.8532,-2.183582 c 0.385668,-0.197253 0.494954,-0.406365 0.321559,-0.615302 -0.108719,-0.130986 -0.722612,-0.177871 -2.329265,-0.177871 -1.997274,0 -2.212502,0.02424 -2.546789,0.287219 -0.421208,0.33133 -0.471855,0.632852 -0.122625,0.729988 0.415428,0.115538 4.384924,-0.07457 4.67712,-0.224034 z m -8.0473,-0.01804 c 0.256602,-0.107212 0.924987,-0.627198 1.485297,-1.155511 0.560316,-0.528313 2.225497,-2.030807 3.7004,-3.338888 l 2.681651,-2.378316 h 2.272635 c 2.11081,0 2.292979,-0.02035 2.558454,-0.285823 0.558429,-0.558427 0.340052,-0.612758 -2.622695,-0.652483 l -2.79901,-0.03756 -1.005301,0.938305 c -0.55292,0.516073 -1.966947,1.81137 -3.142286,2.878441 -1.17534,1.06708 -2.567215,2.345493 -3.093062,2.840919 -0.52584,0.495434 -1.050623,0.954835 -1.166178,1.020907 -0.174893,0.100001 -0.178287,0.140284 -0.02021,0.240391 0.273309,0.173144 0.617903,0.152043 1.150339,-0.0704 z m -15.353889,-3.28501 c -1.082973,-1.196725 -2.197808,-3.41508 -2.569085,-5.112097 -0.699907,-3.199104 -0.268838,-6.213018 1.211656,-8.47155 1.345155,-2.052076 3.397314,-3.462151 6.050142,-4.157188 l 0.970069,-0.254147 -1.118282,0.06041 c -2.690033,0.145382 -5.387044,1.618827 -6.846883,3.740637 -1.247711,1.81348 -1.737254,3.724864 -1.63068,6.366865 0.127767,3.167344 1.029469,5.291764 3.166952,7.461356 1.357443,1.377835 1.928898,1.650604 0.766111,0.365688 z m 25.47444,0.294659 c 0.482301,-0.183377 0.605381,-0.544513 0.270502,-0.793701 -0.198871,-0.14799 -0.61692,-0.186235 -1.674676,-0.15319 -1.268864,0.03969 -1.445329,0.07761 -1.766914,0.379991 -0.657998,0.61877 -0.510331,0.7034 1.227397,0.7034 0.871567,0 1.746224,-0.06142 1.943691,-0.1365 z m -16.166655,-1.214674 0.04189,-0.727545 h -0.83873 -0.83873 v 0.769111 0.769111 l 0.796843,-0.04154 0.796841,-0.04163 z m 3.006898,0 c 0,-0.400148 -0.04677,-0.727545 -0.103933,-0.727545 -0.05716,0 -0.415744,0 -0.796845,0 h -0.692904 v 0.769111 0.769111 l 0.796841,-0.04154 0.79684,-0.04163 z m 2.064425,-2.840909 c 0.03714,-0.247717 0.05557,-2.258875 0.04091,-4.469256 l -0.0266,-4.018854 h -4.503894 -4.503896 l -0.0367,4.294667 c -0.02018,2.362072 -0.0066,4.37323 0.0303,4.469247 0.05194,0.135353 1.063055,0.174578 4.499662,0.174578 h 4.432676 z m -7.538384,-4.122801 v -3.187373 h 3.048791 3.048787 v 3.187373 3.187373 H 70.523123 67.474332 Z M 20.489477,88.873425 C 14.768987,86.039648 12.104999,82.081712 9.7596564,72.931952 8.5874379,68.358843 7.8843654,63.669253 7.8843654,60.423524 c 0,-1.464647 -0.09552,-1.744299 -0.4684187,-1.371396 -0.3389011,0.338897 -0.4335623,1.095926 -0.4154883,3.322772 0.049539,6.103662 2.2608805,15.572863 4.5480776,19.475376 1.891244,3.226913 5.889301,6.437063 9.495618,7.624278 1.378781,0.453906 1.213507,0.274786 -0.554677,-0.601129 z m 43.957506,-1.144484 -0.04785,-0.768907 -0.783639,0.04117 -0.783638,0.04117 -0.04189,0.727545 -0.04189,0.727555 0.873375,1.86e-4 0.873376,1.84e-4 z m 13.670705,0.04098 -0.0419,-0.727555 H 77.31359 76.551392 l -0.0419,0.727555 -0.0419,0.727545 h 0.84597 0.84597 z m -54.4033,-1.559018 c 0.484956,-0.888488 0.921937,-2.048088 1.618898,-4.296028 1.272597,-4.104549 1.815158,-6.832215 1.812237,-9.110813 -0.0031,-2.351452 -0.427439,-3.23399 -2.335415,-4.856248 -2.069861,-1.759907 -5.828985,-4.329092 -6.168535,-4.215904 -0.159314,0.0531 -3.044712,6.862178 -3.74124,8.828727 -0.256463,0.724086 -0.507046,1.597151 -0.556849,1.940137 -0.198163,1.364735 0.750706,4.837894 1.893025,6.929074 1.367901,2.504131 2.915687,3.971572 5.425136,5.143532 1.20913,0.564689 1.582676,0.498719 2.052743,-0.362477 z m 40.711154,-1.254146 v -0.76912 l -0.796842,0.04154 -0.796843,0.04163 -0.0075,0.623609 c -0.0042,0.342994 0.01509,0.670392 0.04283,0.727555 0.02774,0.05717 0.389735,0.103934 0.804446,0.103934 h 0.754019 z m 13.692146,-0.02775 0.0419,-0.727554 H 77.320862 76.48213 v 0.669809 c 0,0.368398 0.04437,0.714187 0.09861,0.768416 0.05423,0.05421 0.412821,0.0802 0.796845,0.05773 l 0.69823,-0.04089 z m 5.847819,-3.568472 v -0.762202 h 0.900778 0.900777 V 79.974712 79.351103 H 84.866285 83.965507 V 78.519612 77.68813 h -0.623613 -0.623619 v 0.831482 0.831491 h -0.908744 -0.90875 l 0.04264,0.588973 0.04264,0.588964 0.866134,0.04127 0.866131,0.04125 v 0.755586 0.755585 h 0.623619 0.623613 z M 72.948291,80.032504 v -0.750645 l -0.79684,-0.04154 -0.796841,-0.04163 v 0.761515 0.761525 l 0.658261,0.05061 c 0.946843,0.07271 0.93542,0.08178 0.93542,-0.739859 z m -2.979496,-0.05773 v -0.76221 h -0.831487 -0.831489 v 0.762192 0.7622 h 0.831489 0.831487 z m 40.044925,-3.429879 c 0.2495,-0.57283 0.40321,-1.426949 0.97676,-5.427283 0.16088,-1.122079 0.37879,-2.106926 0.52125,-2.355883 0.19495,-0.340626 0.75246,-0.682705 2.73655,-1.679061 2.65999,-1.335788 3.83941,-2.064277 5.8204,-3.595098 1.4253,-1.101411 4.90573,-3.927314 7.34208,-5.961341 1.28407,-1.072029 4.38378,-3.61114 4.76951,-3.906917 0.0317,-0.02433 0.0233,-0.07863 -0.0187,-0.120727 -0.0421,-0.042 -2.24099,1.548648 -4.88654,3.534873 -7.14759,5.3663 -9.18322,6.716401 -13.94296,9.247481 -2.79167,1.484518 -2.45565,1.057866 -2.76299,3.508109 -0.0813,0.647875 -0.33186,2.441011 -0.55688,3.984774 -0.41862,2.871928 -0.46686,3.360046 -0.33205,3.360046 0.0424,0 0.19252,-0.265035 0.3336,-0.588973 z M 98.536508,68.674121 c 2.572012,-0.259596 5.574202,-1.054073 8.329562,-2.204303 0.59071,-0.246588 1.07401,-0.493223 1.07401,-0.548064 0,-0.124955 -0.59811,-0.670762 -1.29142,-1.178492 -0.6185,-0.452944 -0.65805,-0.448124 -2.45028,0.298637 -1.58017,0.658402 -3.63591,1.210509 -5.335379,1.432906 -1.918016,0.251002 -7.029474,0.07632 -12.264451,-0.419214 -18.60283,-1.760786 -26.149814,-2.338093 -32.150863,-2.459412 -4.227369,-0.08548 -5.092143,-0.03784 -9.700692,0.534141 -1.275306,0.158287 -3.236587,0.292539 -4.434602,0.303566 -3.706707,0.03414 -5.230004,-0.53934 -9.943939,-3.743458 -6.219367,-4.227357 -6.544497,-4.420779 -12.021199,-7.151424 -4.334363,-2.161091 -5.369223,-2.790066 -6.42196,-3.90318 -1.24974,-1.321411 -1.671026,-2.646154 -1.200013,-3.77344 0.403063,-0.964671 0.361991,-0.962867 -1.779671,0.07817 -1.766618,0.858718 -3.4171278,1.859282 -3.4171278,2.071522 0,0.329146 3.0233675,2.446958 5.6137048,3.932282 0.991495,0.568538 2.831163,1.581619 4.088148,2.251308 6.091098,3.245137 8.199879,4.525224 13.926261,8.453566 4.167179,2.858718 8.591828,3.771564 14.412457,2.973414 1.454404,-0.199436 3.202929,-0.308876 5.821883,-0.36442 4.515545,-0.09577 6.46035,0.01628 20.993601,1.209353 4.729627,0.388279 6.605369,0.558916 13.650259,1.241769 5.318531,0.515519 9.129854,0.849836 10.933106,0.959018 0.999006,0.0605 1.887721,0.119127 1.974923,0.130302 0.0872,0.0112 0.804357,-0.04487 1.593682,-0.12452 z M 112.6589,63.256709 c 2.73041,-1.516676 4.36776,-2.528231 7.68421,-4.747298 3.89221,-2.604303 11.98728,-8.753174 11.98728,-9.105309 0,-0.506647 -0.85203,-0.09508 -3.18737,1.539628 -5.55747,3.890181 -11.9394,7.728362 -17.99291,10.821188 -2.28718,1.168556 -2.77329,1.466156 -2.57965,1.579279 0.13124,0.07669 0.5264,0.369231 0.87812,0.650151 0.35174,0.280919 0.70504,0.514769 0.78514,0.519672 0.0801,0.0046 1.17144,-0.560886 2.42518,-1.257311 z M 20.992057,47.624778 c 2.932602,-0.960239 15.027393,-4.340665 19.597499,-5.477387 1.733741,-0.431232 1.86434,-0.473778 1.763633,-0.574486 -0.08965,-0.08964 -0.78998,0.07123 -7.930503,1.821981 -9.797998,2.402296 -14.620327,3.841631 -14.620327,4.363774 0,0.197198 0.27208,0.166576 1.189698,-0.133882 z m -5.901463,-2.094631 c 18.88186,-4.989547 32.589663,-8.220595 40.192656,-9.473733 7.264521,-1.197365 10.834173,-1.196718 15.378451,0.0027 2.588508,0.68326 6.017966,2.010066 9.908565,3.833462 1.295733,0.607271 2.515331,1.133263 2.710216,1.16888 0.412564,0.0754 0.732625,-0.227893 0.6014,-0.569861 -0.09963,-0.259613 -4.008552,-2.207318 -6.429698,-3.203728 -3.631609,-1.494566 -7.133557,-2.523236 -9.923265,-2.914873 -2.890898,-0.405846 -7.907303,-0.161534 -13.19063,0.642408 -9.188481,1.398169 -26.412915,5.271124 -37.946826,8.532433 -1.41969,0.401424 -2.365673,0.745427 -2.597357,0.944502 -0.302437,0.259883 -0.782231,1.110533 -0.782231,1.386864 0,0.149739 0.523593,0.06179 2.078719,-0.349156 z"
     id="path198" /><path
     style="fill:#ffffff;stroke:none;stroke-width:1.88827;stroke-linecap:round;stroke-dasharray:none"
     d="m 48.136189,98.604046 c -2.551112,-3.465438 -5.44037,-9.998932 -7.478352,-16.910831 -0.727192,-2.466295 -1.018056,-3.18947 -1.688352,-4.197739 -1.227283,-1.846098 -2.887646,-2.713456 -5.186577,-2.709418 -1.388697,0.0024 -1.984896,0.148786 -2.51995,0.618569 -0.566229,0.497155 -0.661863,0.737696 -1.175329,2.956248 -1.377204,5.950511 -3.549012,12.059764 -4.460626,12.547646 -0.260319,0.139319 -0.778418,0.143174 -0.778418,0.0058 0,-0.05726 0.623613,-1.879021 1.385806,-4.048366 2.743933,-7.809743 3.525962,-10.932136 3.527414,-14.083843 0.0011,-2.202635 -0.348141,-3.560495 -1.206249,-4.691068 C 27.393234,66.55966 21.979427,62.537792 17.589448,59.944423 13.877828,57.751792 6.3258501,53.829304 5.8159927,53.829304 c -0.3441944,0 -0.5764147,0.373451 -1.1805585,1.898544 -0.2554861,0.644946 -0.5062614,1.215694 -0.5572781,1.268328 -0.2351958,0.242652 -0.550889,-2.802311 -0.557009,-5.372534 -0.0018,-0.752438 0.037252,-1.368068 0.086764,-1.368068 0.049511,0 0.5646312,0.330528 1.14471,0.734507 1.7167506,1.195584 3.8276674,2.410265 8.0904679,4.655484 7.671012,4.040326 9.292644,4.996882 13.443658,7.930045 1.128818,0.797636 2.439116,1.690102 2.911776,1.983256 4.291539,2.661697 8.986703,3.524837 14.579659,2.68026 3.783033,-0.571264 7.489449,-0.711827 11.782139,-0.446831 5.681404,0.350727 17.313548,1.33267 29.706624,2.507724 11.045677,1.0473 11.819737,1.105741 13.453843,1.015767 1.974532,-0.10872 2.875132,-0.252777 4.303122,-0.688308 1.37485,-0.419325 4.40662,-1.462254 4.70133,-1.617258 0.44305,-0.233026 0.58986,0.591154 0.21485,1.206204 -0.18198,0.298471 -0.65212,0.572958 -2.70779,1.580933 -1.40113,0.687025 -2.69657,1.400294 -2.96607,1.633122 -0.84008,0.72575 -0.97217,1.163619 -1.36396,4.521497 -0.28438,2.437347 -0.60885,4.291679 -0.904515,5.16936 -0.252378,0.749173 -0.773634,1.577345 -1.062578,1.688224 -0.20702,0.07944 -0.214238,0.374402 0.07626,-3.116336 0.15053,-1.808851 0.07644,-4.329134 -0.151037,-5.137238 -0.574575,-2.041213 -1.89312,-2.771923 -5.943444,-3.293729 -4.352005,-0.560671 -27.64059,-2.734527 -36.630722,-3.419266 -3.384045,-0.257749 -8.429911,-0.264512 -9.966394,-0.01336 -2.126724,0.347636 -3.658005,1.010076 -4.627134,2.001715 -1.259152,1.288402 -1.380586,3.170889 -0.477769,7.406397 1.211882,5.685457 3.28825,11.476207 6.262539,17.465501 0.68901,1.387454 1.235089,2.540304 1.213504,2.561889 -0.02159,0.02159 -0.27124,-0.275905 -0.554792,-0.661083 z"
     id="path199" /><path
     style="fill:#ffffff;stroke:none;stroke-width:0.944134;stroke-linecap:round;stroke-dasharray:none"
     d="M 21.051498,89.432701 C 17.627574,88.281226 13.950977,85.436892 11.913549,82.363288 9.7808939,79.146029 7.6610212,71.220226 7.1119145,64.410883 c -0.090586,-1.123337 -0.091909,-3.896056 -0.00212,-4.43924 0.077828,-0.470813 0.2567884,-0.875599 0.4383585,-0.991513 0.2226442,-0.142134 0.2582106,0.04804 0.305525,1.633667 0.1115729,3.739094 0.6816264,7.528605 1.8119908,12.045463 1.5734632,6.28745 3.3250552,10.091098 5.8497892,12.703038 1.439428,1.489149 2.610383,2.320809 5.033482,3.574989 1.627552,0.84241 1.675811,0.889985 0.502556,0.495414 z"
     id="path200" /><path
     style="fill:#ffffff;stroke:none;stroke-width:0.944134;stroke-linecap:round;stroke-dasharray:none"
     d="m 71.530423,104.27038 c -5.231439,-0.26113 -9.059076,-0.74599 -12.515403,-1.58537 -2.763686,-0.67117 -4.664742,-1.434 -5.872213,-2.35632 -0.803346,-0.613635 -1.858933,-2.290519 -3.30822,-5.255379 -2.455574,-5.023448 -4.323826,-10.327214 -5.185206,-14.720245 -0.284441,-1.450636 -0.311965,-1.759368 -0.311132,-3.489971 0.0011,-2.127268 0.04813,-2.341972 0.739574,-3.371032 l 0.319704,-0.475811 0.03574,1.839664 c 0.03672,1.890215 0.09081,2.519487 0.356975,4.152794 0.518676,3.182798 1.75042,7.326181 3.468302,11.666792 1.69854,4.29174 3.279058,7.107603 4.794705,8.54229 0.410943,0.38899 0.586846,0.509558 1.109406,0.760397 2.009582,0.964641 6.212134,1.894161 10.979259,2.428391 4.724072,0.52941 10.008169,0.64759 13.756248,0.30767 3.876345,-0.35155 6.66305,-1.10476 7.988668,-2.15923 1.577229,-1.254609 3.383325,-4.853189 4.842391,-9.648285 1.106856,-3.637587 1.855949,-7.921493 2.055371,-11.754218 0.05954,-1.144228 0.128138,-1.535933 0.305009,-1.741562 0.108918,-0.126622 0.139393,-0.135832 0.251288,-0.07595 0.236784,0.126725 0.38862,0.582425 0.457957,1.374458 0.07936,0.906494 0.03004,3.442769 -0.08795,4.523094 -0.555255,5.083808 -2.706875,11.933709 -4.919178,15.660701 -0.972103,1.637672 -2.096241,2.766062 -3.411104,3.424022 -1.696924,0.84914 -5.295741,1.58357 -8.926084,1.82158 -2.200762,0.1443 -5.43678,0.20576 -6.924099,0.13152 z"
     id="path201" /><path
     style="fill:#ffffff;stroke:none;stroke-width:0.944134;stroke-linecap:round;stroke-dasharray:none"
     d="M 96.239409,68.729931 C 95.886225,68.703763 94.893677,68.631487 94.033747,68.569318 91.817248,68.409076 90.1066,68.255855 83.145042,67.594037 74.176741,66.741444 67.482843,66.169362 59.971643,65.613565 54.622876,65.21778 51.73805,65.137159 47.910307,65.276496 c -2.129195,0.07751 -2.695546,0.122931 -5.1781,0.415303 C 38.15482,66.230885 34.238743,65.547162 30.767574,63.602848 30.399033,63.396417 28.765728,62.336785 27.138006,61.248109 22.513187,58.154878 21.221435,57.382509 15.662985,54.386913 12.384672,52.620144 10.771767,51.712642 9.5783593,50.963392 7.9869627,49.964278 6.1258594,48.640596 5.7287744,48.225436 5.4990528,47.985255 5.5110196,47.963454 6.0848779,47.576694 c 0.6445906,-0.434433 1.4372656,-0.8753 2.7656856,-1.538203 1.3417995,-0.669581 1.9299015,-0.913046 2.0071125,-0.830908 0.02632,0.02799 -0.03615,0.298235 -0.140708,0.608742 -0.306603,0.9105 -0.248457,1.616954 0.204523,2.484859 0.648978,1.243435 1.808309,2.28474 3.764302,3.381081 0.368541,0.206568 2.265689,1.185254 4.215884,2.174857 5.009662,2.542095 4.893825,2.473838 10.135008,5.971995 3.792292,2.53111 4.822632,3.165456 5.98609,3.685439 1.729536,0.772978 2.891729,0.959583 5.652228,0.907537 1.799029,-0.03392 2.738956,-0.104293 4.973804,-0.372404 3.537178,-0.424349 4.416007,-0.472844 7.789611,-0.429858 5.80017,0.07391 11.489897,0.466281 25.68618,1.771354 8.554707,0.78644 9.684771,0.886674 10.944545,0.970751 2.704381,0.180494 3.702053,0.217625 5.946908,0.221329 2.578758,0.0043 2.872451,-0.02111 4.550919,-0.393028 1.25572,-0.278251 2.49418,-0.664419 3.8163,-1.189976 1.34192,-0.533432 1.51591,-0.580308 1.79587,-0.483855 0.23827,0.08209 0.9495,0.611677 1.42367,1.060083 l 0.33208,0.314023 -0.13294,0.09311 c -0.3784,0.265041 -2.44945,1.071742 -3.91253,1.523981 -1.83772,0.568042 -3.51516,0.924994 -5.225173,1.111893 -1.382861,0.151144 -1.687862,0.165034 -2.424838,0.11043 z"
     id="path202" /><path
     style="fill:#ffffff;stroke:none;stroke-width:0.944134;stroke-linecap:round;stroke-dasharray:none"
     d="m 13.038527,45.842524 c 0,-0.138001 0.398172,-0.880133 0.596568,-1.111914 0.325003,-0.379693 0.875881,-0.605724 2.865483,-1.175742 8.574439,-2.456566 22.630097,-5.740707 32.371754,-7.563739 5.508802,-1.030907 9.013952,-1.501384 12.74472,-1.710656 1.558385,-0.08742 4.715682,-0.0392 5.641647,0.08615 2.933668,0.397145 6.570641,1.455762 10.216269,2.97366 2.364314,0.984406 6.029735,2.800361 6.336419,3.139242 0.21898,0.241969 -0.142933,0.619739 -0.521239,0.544076 C 83.082,40.981971 81.889898,40.464494 79.81217,39.513846 72.22392,36.041907 67.807442,34.923227 62.659899,35.169237 55.390393,35.516658 43.091641,38.17815 15.774664,45.315352 c -2.065665,0.539705 -2.736137,0.668885 -2.736137,0.527172 z"
     id="path203" /><path
     style="fill:#ffffff;stroke:none;stroke-width:0.472067;stroke-linecap:round;stroke-dasharray:none"
     d="m 19.89336,47.845727 c -0.09352,-0.04701 -0.09661,-0.08402 -0.01511,-0.180869 0.196219,-0.233193 1.214251,-0.640802 2.918236,-1.168432 2.796111,-0.865798 6.687203,-1.882971 14.350756,-3.75144 4.456988,-1.08667 5.148403,-1.239414 5.203899,-1.149617 0.04255,0.06884 -0.09164,0.108741 -2.048965,0.609291 -5.62065,1.437372 -15.646953,4.241916 -19.264529,5.388644 -0.779981,0.247243 -1.04034,0.304678 -1.144284,0.252423 z"
     id="path204" /><path
     style="fill:#ffffff;stroke:none;stroke-width:0.472067;stroke-linecap:round;stroke-dasharray:none"
     d="m 109.64477,77.072537 c -0.0545,-0.142169 0.008,-0.66801 0.45662,-3.82505 0.3612,-2.543085 0.43067,-3.056183 0.5859,-4.327562 0.10184,-0.83408 0.16983,-1.045747 0.42133,-1.311664 0.21383,-0.226094 0.52453,-0.412808 1.88265,-1.131353 4.82176,-2.551078 6.8285,-3.856416 12.93696,-8.415176 0.74264,-0.554236 1.76032,-1.313701 2.2615,-1.687698 1.7003,-1.268823 3.27759,-2.414312 3.74125,-2.717059 0.18543,-0.121079 0.25512,-0.143632 0.25512,-0.08256 0,0.01156 -0.14763,0.138842 -0.32806,0.282855 -0.57862,0.46182 -2.57614,2.099061 -3.9995,3.27814 -2.55444,2.116019 -4.22361,3.482337 -5.89107,4.822177 -3.47372,2.791206 -4.34305,3.37335 -7.30102,4.889066 -2.43589,1.248198 -2.85638,1.494571 -3.10377,1.818553 -0.21465,0.281112 -0.38314,1.063426 -0.70731,3.284016 -0.19109,1.308957 -0.34709,2.335962 -0.405,2.666336 -0.241,1.374706 -0.31494,1.654726 -0.57333,2.171245 -0.0632,0.126421 -0.13736,0.252889 -0.16471,0.281041 -0.0455,0.0469 -0.0512,0.04729 -0.0676,0.0047 z"
     id="path205" /><path
     style="fill:#ffffff;stroke:none;stroke-width:0.472067;stroke-linecap:round;stroke-dasharray:none"
     d="m 109.97461,64.352407 c -0.11983,-0.07823 -0.4334,-0.30752 -0.69681,-0.509534 -0.26342,-0.202015 -0.53917,-0.40897 -0.61278,-0.459894 l -0.13385,-0.09259 0.0802,-0.08422 c 0.16707,-0.175377 0.63878,-0.440294 2.45341,-1.377868 6.49985,-3.358314 11.9524,-6.628104 17.8532,-10.70622 1.73321,-1.197845 2.41771,-1.627976 2.89455,-1.818912 0.21197,-0.08488 0.40359,-0.104333 0.45047,-0.04573 0.0868,0.108551 0.0704,0.154747 -0.12412,0.348732 -1.0232,1.020344 -7.08896,5.627407 -10.78998,8.195199 -0.6427,0.445908 -2.62426,1.765827 -3.48566,2.32179 -1.7178,1.108713 -3.25251,2.027725 -5.09535,3.051188 -1.27167,0.706248 -2.45148,1.320298 -2.53677,1.320298 -0.0212,0 -0.13669,-0.06401 -0.25653,-0.142235 z"
     id="path206" /><path
     style="fill:#ffffff;stroke:none;stroke-width:0.472067;stroke-linecap:round;stroke-dasharray:none"
     d="m 60.987127,94.950261 c -0.305547,-0.22861 -1.531718,-1.451631 -1.884593,-1.879745 -0.869265,-1.054608 -1.435672,-2.048643 -1.812735,-3.181319 -0.400206,-1.202192 -0.577873,-2.454714 -0.578437,-4.077819 -5.29e-4,-1.15733 0.08389,-1.913356 0.314388,-2.819895 0.413071,-1.624563 1.312842,-3.136633 2.514833,-4.226189 1.524699,-1.382075 3.535995,-2.23981 5.568294,-2.374652 0.886892,-0.05884 0.97698,-0.06353 0.963232,-0.05015 -0.0077,0.0075 -0.277802,0.08331 -0.600274,0.168524 -2.127244,0.56212 -3.693258,1.412324 -4.996651,2.71273 -1.530254,1.526747 -2.402864,3.396293 -2.684761,5.75204 -0.06229,0.520517 -0.07109,1.936149 -0.01537,2.470898 0.186894,1.793518 0.590879,3.160533 1.376733,4.658617 0.515784,0.983242 0.906743,1.560198 1.602198,2.364431 0.347853,0.402262 0.508106,0.616172 0.481526,0.642755 -0.0081,0.0081 -0.119833,-0.06404 -0.248383,-0.160227 z"
     id="path207" /><path
     style="fill:#ffffff;stroke:none;stroke-width:0.472067;stroke-linecap:round;stroke-dasharray:none"
     d="m 63.149183,85.684074 c -0.260541,-0.03392 -0.276598,-0.04846 -0.297453,-0.269312 -0.01688,-0.178681 -0.02638,-1.123791 -0.01132,-1.126064 0.03448,-0.0052 1.424641,-0.08158 1.493705,-0.08207 l 0.09074,-5.29e-4 v 0.753835 0.753832 l -0.551416,-0.0035 c -0.303278,-0.0019 -0.62919,-0.01368 -0.724246,-0.02603 z"
     id="path208" /><path
     style="fill:#ffffff;stroke:none;stroke-width:0.472067;stroke-linecap:round;stroke-dasharray:none"
     d="m 62.7772,88.359056 c -2.09e-4,-0.06526 0.0146,-0.38564 0.03292,-0.711954 0.0291,-0.518401 0.0391,-0.593294 0.07921,-0.593294 0.06937,0 1.045139,-0.05275 1.286375,-0.06954 l 0.211545,-0.01474 0.03377,0.593545 c 0.01857,0.326448 0.04122,0.665787 0.05032,0.754084 l 0.01656,0.160538 h -0.855158 -0.855159 z"
     id="path209" /><path
     style="fill:#ffffff;stroke:none;stroke-width:0.472067;stroke-linecap:round;stroke-dasharray:none"
     d="M 68.026493,90.960339 C 66.76473,90.94031 66.290215,90.91301 66.109738,90.850098 l -0.08761,-0.03054 -0.02085,-0.493866 c -0.02323,-0.550093 0.0061,-7.604792 0.03328,-8.011261 l 0.01728,-0.258259 h 4.474025 4.474028 l 0.01976,1.095851 c 0.01087,0.602718 0.01373,2.509287 0.0064,4.236823 -0.01058,2.482477 -0.02141,3.187801 -0.05162,3.364331 l -0.03823,0.223358 -2.805703,0.0021 c -1.543135,0.0013 -3.389921,-0.0071 -4.103968,-0.01842 z m 5.556031,-4.534725 v -3.196813 h -3.057213 -3.057213 v 3.196813 3.196812 h 3.057213 3.057213 z"
     id="path210" /><path
     style="fill:#ffffff;stroke:none;stroke-width:0.472067;stroke-linecap:round;stroke-dasharray:none"
     d="m 68.30569,79.976149 v -0.739873 h 0.823634 0.823632 v 0.739873 0.739875 H 69.129324 68.30569 Z"
     id="path211" /><path
     style="fill:#ffffff;stroke:none;stroke-width:0.472067;stroke-linecap:round;stroke-dasharray:none"
     d="m 72.00506,80.758373 c -0.230339,-0.0204 -0.465913,-0.03826 -0.523497,-0.03971 l -0.104698,-0.0026 V 79.96153 79.207044 l 0.216376,0.01543 c 0.283218,0.02019 1.194149,0.06964 1.283078,0.06964 h 0.06936 l -0.01021,0.635175 c -0.0131,0.815512 -0.02074,0.833909 -0.355751,0.857277 -0.08573,0.006 -0.344326,-0.0058 -0.574662,-0.02619 z"
     id="path212" /><path
     style="fill:#ffffff;stroke:none;stroke-width:0.472067;stroke-linecap:round;stroke-dasharray:none"
     d="m 76.687909,85.665947 c -0.03493,-0.0067 -0.08176,-0.04004 -0.10406,-0.07408 -0.05015,-0.07654 -0.09711,-0.579641 -0.09743,-1.043853 l -2.38e-4,-0.342019 h 0.823632 0.823632 l -0.0024,0.174498 c -0.0013,0.09598 -0.01709,0.419497 -0.0349,0.718934 l -0.0324,0.544436 -0.279196,0.01765 c -0.316696,0.02003 -1.000842,0.02281 -1.096539,0.0044 z"
     id="path213" /><path
     style="fill:#ffffff;stroke:none;stroke-width:0.472067;stroke-linecap:round;stroke-dasharray:none"
     d="m 76.487154,88.400937 c 7.94e-4,-0.06184 0.07691,-1.313963 0.0815,-1.340604 7.94e-4,-0.0041 0.337368,-0.0041 0.748136,0 l 0.746853,0.0074 0.03254,0.530476 c 0.01789,0.291762 0.0336,0.609 0.0349,0.704975 l 0.0024,0.174498 h -0.823632 -0.823632 z"
     id="path214" /><path
     style="fill:#ffffff;stroke:none;stroke-width:0.472067;stroke-linecap:round;stroke-dasharray:none"
     d="m 71.376865,93.419514 v -0.753835 h 0.73856 0.738561 l 0.03133,0.104699 c 0.01722,0.05759 0.03839,0.376846 0.04701,0.709469 l 0.01569,0.604769 -0.150397,0.01569 c -0.144867,0.01511 -1.22927,0.07358 -1.357929,0.07322 l -0.06282,-1.77e-4 z"
     id="path215" /><path
     style="fill:#ffffff;stroke:none;stroke-width:0.472067;stroke-linecap:round;stroke-dasharray:none"
     d="m 68.30569,93.419514 v -0.753835 l 0.830614,-1.8e-5 0.830612,-1.6e-5 -0.03833,0.70499 c -0.02109,0.387747 -0.04253,0.709689 -0.04766,0.715428 -0.0097,0.01087 -1.248912,0.08416 -1.456576,0.08615 l -0.11866,0.0011 z"
     id="path216" /><path
     style="fill:#ffffff;stroke:none;stroke-width:0.472067;stroke-linecap:round;stroke-dasharray:none"
     d="m 74.987149,97.712741 c -0.049,-0.01574 -0.12909,-0.06203 -0.177988,-0.102854 l -0.0889,-0.07422 0.191947,-0.140539 c 0.229505,-0.168039 0.530828,-0.436525 1.532094,-1.365141 0.414607,-0.384527 1.689573,-1.553221 2.833256,-2.597097 1.14368,-1.04388 2.511327,-2.298571 3.039211,-2.788203 l 0.959792,-0.890244 1.651306,0.0191 c 2.681725,0.03102 3.67238,0.0789 3.878549,0.187455 0.15362,0.08088 0.138499,0.154342 -0.0793,0.385222 -0.205843,0.218208 -0.303226,0.266581 -0.626314,0.311124 -0.117821,0.01624 -1.098677,0.03605 -2.242825,0.04529 l -2.033429,0.01643 -1.498423,1.328205 c -2.418257,2.143551 -3.759404,3.34781 -4.681273,4.20347 -1.028557,0.954683 -1.548384,1.324277 -2.042173,1.45197 -0.19046,0.04925 -0.478872,0.05395 -0.615527,0.01003 z"
     id="path217" /><path
     style="fill:#ffffff;stroke:none;stroke-width:0.472067;stroke-linecap:round;stroke-dasharray:none"
     d="m 83.38236,94.702818 c -0.79261,-0.03415 -0.91213,-0.108239 -0.669602,-0.41506 0.155951,-0.197295 0.458478,-0.439833 0.611322,-0.490101 0.211402,-0.06953 0.480047,-0.09613 1.294612,-0.12818 0.782989,-0.03081 1.31735,-0.01074 1.5646,0.05879 0.212559,0.05977 0.392856,0.291526 0.360101,0.462873 -0.0185,0.09675 -0.157425,0.243713 -0.307719,0.325514 -0.191251,0.104092 -0.537217,0.151513 -1.359606,0.186362 -0.716262,0.03035 -0.784955,0.03034 -1.493708,-2.01e-4 z"
     id="path218" /><path
     style="fill:#ffffff;stroke:none;stroke-width:0.472067;stroke-linecap:round;stroke-dasharray:none"
     d="m 79.515475,97.832876 c -0.234673,-0.02432 -0.373849,-0.110747 -0.376032,-0.23349 -0.0024,-0.139742 0.23571,-0.424148 0.481436,-0.574847 0.282213,-0.173077 0.809355,-0.21027 2.686569,-0.18955 1.69263,0.01868 1.980409,0.04845 2.065877,0.213733 0.02313,0.04474 0.04207,0.112416 0.04207,0.150389 0,0.157988 -0.300328,0.385638 -0.572354,0.433848 -0.723988,0.128302 -3.694579,0.265533 -4.327562,0.199917 z"
     id="path219" /><path
     style="fill:#ffffff;stroke:none;stroke-width:0.472067;stroke-linecap:round;stroke-dasharray:none"
     d="m 82.740206,81.360398 v -0.751609 l -0.174498,-0.0158 c -0.09597,-0.0087 -0.482219,-0.02948 -0.858324,-0.04622 -0.376103,-0.01675 -0.69001,-0.03662 -0.697569,-0.04418 -0.01378,-0.01378 -0.07946,-0.825627 -0.08268,-1.022032 l -0.0016,-0.104698 h 0.907394 0.907391 V 78.53827 77.700679 h 0.600273 0.600276 v 0.837591 0.837595 h 0.907392 0.907393 v 0.600273 0.600276 h -0.90738 -0.907392 V 81.344206 82.112 h -0.600276 -0.600273 z"
     id="path220" /><path
     style="fill:#ffffff;stroke:none;stroke-width:1.88827;stroke-linecap:round;stroke-dasharray:none"
     d="m 21.915178,86.609346 c -3.236735,-1.344502 -5.451891,-3.973458 -6.777138,-8.043144 -0.52107,-1.600147 -0.83287,-3.268493 -0.74016,-3.960368 0.03673,-0.274074 0.264171,-1.078161 0.505435,-1.786863 0.61842,-1.816579 3.417545,-8.515477 3.72403,-8.912392 0.132817,-0.172003 0.542939,0.05289 2.479159,1.359469 2.891449,1.951175 4.972962,3.778612 5.473475,4.805362 0.885338,1.816177 0.605057,5.245241 -0.833444,10.196648 -1.055556,3.633293 -1.899217,5.832634 -2.447823,6.38124 -0.301171,0.301172 -0.581823,0.293068 -1.383534,-0.03995 z"
     id="path221" /></svg>
