<?xml version="1.0" encoding="UTF-8" standalone="no"?>
<!-- Created with Inkscape (http://www.inkscape.org/) -->

<svg
   width="512"
   height="512"
   viewBox="0 0 135.46667 135.46667"
   version="1.1"
   id="svg1"
   xml:space="preserve"
   xmlns="http://www.w3.org/2000/svg"
   xmlns:svg="http://www.w3.org/2000/svg"><defs
     id="defs1" /><path
     style="fill:none;stroke:#ffffff;stroke-width:4.74728;stroke-dasharray:none"
     d="m 76.981734,38.846116 c 0,10.913689 0.0786,11.079048 0.0786,11.079048 l 10.69126,0.165359"
     id="path72-61" /><path
     style="fill:none;stroke:#ffffff;stroke-width:4.71902;stroke-dasharray:none"
     d="m 125.77858,39.747296 c 0,10.390139 -0.0816,10.547565 -0.0816,10.547565 l -11.09672,0.157427"
     id="path72-6-8" /><path
     style="fill:none;stroke:#ffffff;stroke-width:4.74728;stroke-dasharray:none"
     d="m 76.935076,16.456089 c 0,-10.9136891 0.07861,-11.0790481 0.07861,-11.0790481 L 87.704941,5.211682"
     id="path72" /><path
     style="fill:none;stroke:#ffffff;stroke-width:4.71902;stroke-dasharray:none"
     d="m 125.73192,15.554909 c 0,-10.3901394 -0.0816,-10.5475657 -0.0816,-10.5475657 L 114.5536,4.8499169"
     id="path72-6" /><path
     style="fill:none;stroke:#ffffff;stroke-width:4.74728;stroke-dasharray:none"
     d="m 77.369719,119.24342 c 0,10.91369 0.0786,11.07905 0.0786,11.07905 l 10.69126,0.16535"
     id="path72-61-9" /><path
     style="fill:none;stroke:#ffffff;stroke-width:4.71902;stroke-dasharray:none"
     d="m 129.24635,119.51285 c 0,10.39014 -0.0816,10.54756 -0.0816,10.54756 l -11.09672,0.15743"
     id="path72-6-8-5" /><path
     style="fill:none;stroke:#ffffff;stroke-width:4.74728;stroke-dasharray:none"
     d="m 77.323061,89.904121 c 0,-10.913689 0.07861,-11.079048 0.07861,-11.079048 l 10.691255,-0.165359"
     id="path72-4" /><path
     style="fill:none;stroke:#ffffff;stroke-width:4.71902;stroke-dasharray:none"
     d="m 129.51557,90.029538 c 0,-10.390139 -0.0816,-10.547566 -0.0816,-10.547566 l -11.09672,-0.157426"
     id="path72-6-3" /><path
     style="fill:#000000;stroke-width:0.589455"
     d="m 17.546387,134.35 -0.437586,-0.37619 -0.05005,-4.18564 -0.05004,-4.18566 -0.671239,-0.42839 c -1.067334,-0.68117 -2.810046,-2.37666 -3.818647,-3.71517 -1.66281,-2.20672 -2.503851,-3.94286 -5.4345734,-11.21849 -0.9501958,-2.3589 -2.1968753,-5.37672 -2.7703992,-6.70627 -0.9999424,-2.3181 -1.0430076,-2.4698 -1.0485343,-3.693646 -0.0049,-1.078504 0.059747,-1.410161 0.4170364,-2.140424 0.8227338,-1.68161 2.3586799,-2.534706 4.3119525,-2.39495 1.9054069,0.13633 2.342591,0.493832 5.116146,4.18367 l 2.396014,3.18757 -0.102161,-10.293353 c -0.115472,-11.634174 -0.143361,-11.293773 1.034998,-12.63246 1.960034,-2.226716 5.328495,-1.936355 7.024192,0.605485 0.412136,0.617789 0.428247,0.626011 0.42889,0.218864 0.0024,-1.496365 1.438449,-3.320419 2.972958,-3.776119 1.739425,-0.516553 3.094858,-0.163015 4.371237,1.140151 1.059402,1.081636 1.390225,1.935156 1.390225,3.58676 v 1.174006 l 0.50687,-0.838095 c 0.666672,-1.102326 1.389162,-1.656424 2.544057,-1.951109 1.984543,-0.506378 4.062135,0.431343 4.969758,2.243104 0.543465,1.084843 0.576944,1.570658 0.323297,4.691273 -0.128737,1.583837 -0.234068,3.083242 -0.234068,3.332014 v 0.452312 l 0.671977,-0.619405 c 1.736841,-1.600965 3.967004,-1.492389 5.746311,0.27976 0.515927,0.51385 0.805018,0.974291 0.999918,1.592586 0.270162,0.85705 0.267909,0.909194 -0.154236,3.570565 -0.971506,6.124771 -1.510054,10.077421 -1.886533,13.846131 -0.491991,4.92503 -0.763087,6.82684 -1.251745,8.78129 -0.749778,2.9988 -1.726019,5.01646 -3.384883,6.99569 l -0.896768,1.06996 v 3.83429 3.83428 l -0.455883,0.45589 -0.455883,0.45589 H 28.826487 17.983974 Z m 20.084689,-5.70627 c -0.0065,-1.67268 0.05035,-3.30352 0.126381,-3.6241 0.09814,-0.41376 0.429823,-0.86625 1.143218,-1.5596 2.289625,-2.22527 3.360889,-5.47273 4.019072,-12.18356 0.169458,-1.7278 0.384508,-3.91346 0.477888,-4.85703 0.175526,-1.7736 0.778089,-5.98341 1.466544,-10.246004 0.514019,-3.182569 0.51241,-3.597706 -0.01555,-4.013 -0.226012,-0.177783 -0.569147,-0.32324 -0.762522,-0.32324 -0.836734,0 -0.975329,0.314084 -2.515618,5.700914 -0.864588,3.02371 -1.581483,5.25117 -1.742003,5.41255 -0.790823,0.7951 -2.077328,0.54653 -2.353812,-0.45482 -0.166891,-0.60443 0.108019,-9.34496 0.454293,-14.443854 0.08604,-1.266977 0.156439,-2.816292 0.156439,-3.442922 0,-1.003242 -0.04502,-1.181635 -0.377004,-1.493506 -0.912217,-0.856985 -2.167442,-0.257513 -2.33609,1.115672 -0.04497,0.366163 -0.159078,1.367571 -0.253572,2.22535 -0.0945,0.85778 -0.40967,3.349239 -0.700391,5.536576 -0.29072,2.187337 -0.638013,4.889341 -0.771763,6.004459 -0.133749,1.11511 -0.314698,2.288115 -0.402108,2.606685 -0.376414,1.37182 -2.042085,1.4396 -2.72911,0.11104 -0.244739,-0.47328 -0.524601,-6.235236 -0.783456,-16.130279 -0.05834,-2.230225 -0.173418,-4.183716 -0.255723,-4.341089 -0.151209,-0.289126 -1.014917,-0.727606 -1.43322,-0.727606 -0.12484,0 -0.435864,0.175761 -0.691165,0.390583 -0.53317,0.448633 -0.453784,-0.418493 -0.89233,9.746809 -0.360454,8.355126 -0.490524,10.061187 -0.824499,10.814432 -0.354675,0.79993 -0.620935,1.02807 -1.335082,1.14396 -0.704143,0.11426 -1.285621,-0.24291 -1.592965,-0.97848 -0.232991,-0.55764 -0.776191,-6.917901 -1.228535,-14.384798 -0.131635,-2.172909 -0.309457,-4.081768 -0.395162,-4.241908 -0.503028,-0.939917 -1.908601,-1.028347 -2.618131,-0.164715 -0.165308,0.20121 -0.184391,2.68696 -0.102109,13.301328 l 0.101185,13.053873 -0.397667,0.39767 c -0.521944,0.52194 -1.180687,0.51798 -1.809207,-0.0109 -0.267045,-0.22471 -1.904159,-2.37954 -3.638034,-4.78851 -3.8811603,-5.392347 -4.0351316,-5.564176 -4.9860062,-5.564176 -0.6037119,0 -0.7735623,0.07307 -1.1158667,0.479852 -0.5944805,0.706494 -0.5219484,1.289524 0.4410766,3.545494 0.4646609,1.08852 1.7548555,4.22516 2.8670973,6.97035 2.561565,6.32232 3.391703,8.17256 4.289275,9.56006 0.947726,1.46504 2.867342,3.45807 4.155544,4.31446 1.754033,1.16607 1.63876,0.82482 1.69269,5.01108 l 0.04699,3.64795 8.816441,-0.0379 8.816438,-0.0379 z m -6.647261,-10.75367 c -0.447646,-0.18144 -0.597551,-0.42431 -0.919219,-1.48918 -0.590498,-1.95484 -1.834021,-3.7933 -3.310665,-4.89455 -1.075197,-0.80187 -1.845023,-1.15462 -3.640675,-1.66825 -1.645024,-0.47052 -1.948063,-0.62493 -2.166211,-1.10371 -0.444076,-0.97465 0.103562,-2.0822 1.028413,-2.07989 0.739396,0.002 2.949878,0.59269 4.001705,1.06961 1.893674,0.85864 3.808843,2.42794 5.069449,4.15396 0.955393,1.30811 2.048077,3.86535 2.048077,4.79318 0,0.9502 -1.143987,1.61074 -2.110874,1.21883 z m 45.983684,13.40792 c -0.188,-0.0782 -0.468728,-0.33562 -0.623841,-0.57212 -0.25093,-0.3826 -0.287596,-0.89412 -0.332592,-4.64 -0.02781,-2.31549 -0.0056,-4.44961 0.04932,-4.74248 0.145556,-0.77588 0.713122,-1.27855 1.436784,-1.27249 0.325567,0.003 0.703294,0.0905 0.839394,0.19495 0.55784,0.42831 0.610325,0.82031 0.610325,4.55854 v 3.68724 l 3.002227,-0.0515 3.002228,-0.0514 1.247679,-0.64293 c 0.686224,-0.3536 2.089862,-1.00828 3.119197,-1.45482 2.806479,-1.21751 2.878753,-1.2583 3.157284,-1.78222 0.208271,-0.39176 0.253473,-0.89812 0.233433,-2.61491 l -0.02485,-2.12909 -0.889172,-1.30204 c -1.047319,-1.53362 -2.321799,-4.10647 -2.948495,-5.95227 -0.406443,-1.19708 -0.506157,-1.3511 -1.111374,-1.71667 -0.801326,-0.48401 -1.492392,-1.39991 -1.921358,-2.54641 -0.698596,-1.86717 -1.026204,-5.87994 -0.569319,-6.97342 0.268411,-0.6424 0.902514,-1.15232 1.594318,-1.28212 l 0.530039,-0.09943 v -1.66328 c 0,-5.633462 1.534675,-9.701161 4.867122,-12.900442 2.279041,-2.187974 4.901878,-3.522779 7.976222,-4.059238 1.97017,-0.34378 6.06305,-0.220934 7.78114,0.23355 2.97843,0.787878 4.95538,1.905595 7.07119,3.997854 2.24873,2.223698 3.35193,4.208952 4.11669,7.408094 0.32665,1.366488 0.70173,5.563064 0.57876,6.475568 -0.0664,0.492678 -0.0408,0.522369 0.58665,0.680374 1.5749,0.39655 1.87972,1.08764 1.75708,3.98342 -0.0969,2.28585 -0.48359,4.04908 -1.13027,5.15255 -0.44324,0.75632 -1.30357,1.58533 -1.86792,1.79989 -0.27206,0.1034 -0.45767,0.44247 -0.78409,1.43218 -0.63151,1.91482 -1.64037,3.9921 -2.79366,5.75228 l -1.02188,1.55962 v 2.32531 c 0,2.89558 -0.0746,2.78923 2.79777,3.98905 1.15276,0.48152 2.73186,1.2029 3.50909,1.60306 l 1.41315,0.72757 h 3.00533 3.00533 l 0.0358,-3.77859 0.0358,-3.77861 0.38989,-0.38851 c 0.67388,-0.67149 1.85951,-0.55152 2.26314,0.22902 0.19029,0.36797 0.23223,1.28098 0.23223,5.05517 v 4.60611 l -0.45516,0.50932 -0.45516,0.50933 h -4.74651 -4.7465 l -0.60784,-0.54808 c -0.40326,-0.36362 -1.57002,-0.96435 -3.46662,-1.78489 -3.16286,-1.36836 -3.88826,-1.87339 -4.61881,-3.21568 -0.34153,-0.62749 -0.46641,-1.09769 -0.52212,-1.96593 -0.0403,-0.62766 -0.1067,-1.14119 -0.14759,-1.14119 -0.0409,0 -0.58897,0.34422 -1.218,0.76492 -2.22123,1.48566 -4.64403,2.15273 -7.23454,1.99191 -2.3886,-0.14828 -4.139653,-0.76193 -6.272112,-2.19801 -0.456391,-0.30735 -0.873948,-0.55882 -0.927902,-0.55882 -0.05394,0 -0.132703,0.48374 -0.175008,1.07496 -0.09286,1.29779 -0.555532,2.33134 -1.438446,3.21327 -0.488491,0.48795 -1.269497,0.91381 -3.439288,1.87534 -2.008825,0.8902 -3.001631,1.42154 -3.490598,1.86812 l -0.683319,0.62408 -4.619317,0.0335 c -2.540624,0.0185 -4.773134,-0.0304 -4.961134,-0.10856 z m 28.888721,-8.97833 c 3.84825,-1.00036 7.8232,-5.42831 9.65342,-10.75352 0.96324,-2.80268 0.82944,-2.57362 1.738,-2.97542 0.4573,-0.20225 0.94565,-0.54203 1.08526,-0.75506 0.43098,-0.65778 0.70495,-1.81802 0.80392,-3.40469 l 0.0948,-1.52061 h -0.49644 c -0.75683,0 -1.55928,-0.39792 -1.73512,-0.86039 -0.0852,-0.22418 -0.15495,-1.35326 -0.15495,-2.509045 0,-5.292489 -0.81415,-8.339867 -2.94422,-11.020328 -1.50317,-1.891601 -3.84258,-3.39332 -6.3354,-4.066844 -2.82456,-0.763157 -6.56862,-0.60542 -9.230455,0.388877 -2.284832,0.853475 -4.81469,2.916358 -6.020841,4.909487 -1.415958,2.339819 -1.83802,4.220135 -1.963905,8.749291 l -0.09636,3.467032 -0.410533,0.41007 c -0.283128,0.2828 -0.634033,0.43525 -1.13071,0.49124 l -0.720177,0.0812 v 0.98326 c 0,1.10729 0.354897,2.98409 0.684984,3.62241 0.29946,0.57909 0.690084,0.89467 1.382683,1.11705 0.701953,0.22539 0.744897,0.29892 1.462943,2.50515 1.756229,5.39614 5.449186,9.71431 9.394401,10.98485 1.43496,0.46212 3.50907,0.52765 4.93864,0.15602 z m -6.236062,-6.92303 c -0.309169,-0.34163 -0.360575,-1.21304 -0.100261,-1.69944 0.24819,-0.46375 0.778493,-0.51852 4.492333,-0.46405 2.83387,0.0415 3.34607,0.0857 3.56772,0.30768 0.36719,0.36769 0.36571,1.42631 -0.003,1.83326 -0.2823,0.31193 -0.44262,0.32499 -3.98881,0.32499 -3.45806,0 -3.712246,-0.0194 -3.968418,-0.30244 z M 96.68929,102.66621 c -1.190575,-0.646 -1.171064,-2.64023 0.03195,-3.262317 1.201415,-0.621278 2.462989,0.02673 2.611149,1.341227 0.181168,1.60733 -1.273152,2.6644 -2.643073,1.92109 z m 12.00893,0 c -0.87559,-0.47509 -1.15444,-1.75193 -0.58615,-2.683999 0.34848,-0.571578 0.84495,-0.814903 1.66267,-0.814903 0.41902,0 0.67853,0.127234 1.08157,0.530262 0.45809,0.45809 0.53027,0.63381 0.53027,1.29096 0,0.85904 -0.26861,1.34287 -0.93749,1.68877 -0.56529,0.29231 -1.1991,0.2883 -1.75087,-0.0111 z M 76.5955,89.197876 76.139617,88.741993 v -4.69854 c 0,-5.144615 0.04046,-5.403922 0.898651,-5.759396 0.318711,-0.132014 1.811469,-0.171551 5.2457,-0.138938 l 4.80022,0.04558 0.37621,0.437588 c 0.519325,0.604049 0.516328,1.541933 -0.0066,2.064861 l -0.382811,0.38281 h -4.062046 -4.062046 l -0.0049,3.860006 c -0.0052,4.048165 -0.02347,4.162401 -0.725596,4.536353 -0.576948,0.307284 -1.133314,0.213078 -1.620839,-0.274447 z m 52.1503,0.07973 -0.43759,-0.376154 -0.0466,-3.912742 -0.0466,-3.912743 h -3.96202 c -2.5715,0 -4.09539,-0.06076 -4.34205,-0.173157 -0.77628,-0.353691 -0.96235,-1.56245 -0.35014,-2.274513 l 0.37622,-0.437586 5.00015,-0.04519 c 5.67383,-0.05127 5.80056,-0.03005 6.09224,1.020187 0.26214,0.943957 0.21488,8.972858 -0.0567,9.622728 -0.3887,0.930289 -1.44409,1.162115 -2.22694,0.489169 z M 12.11307,63.859945 C 10.443399,63.332864 8.9123655,61.943972 8.0919749,60.21217 L 7.5952462,59.163601 7.5472679,32.884359 C 7.511635,13.368094 7.5459218,6.3843682 7.6803777,5.7473397 8.1313614,3.6111721 9.6863219,1.9219605 11.930643,1.1301184 12.848978,0.80611019 43.66685,0.79524343 44.605388,1.1185902 c 2.246959,0.774141 3.861167,2.6923818 4.246729,5.0465954 0.203789,1.2443151 0.199621,51.2832984 -0.0044,52.5305294 -0.334272,2.043741 -1.816782,3.997425 -3.704737,4.882185 l -0.897146,0.420452 -15.751949,0.03004 c -12.386959,0.02364 -15.886286,-0.01235 -16.3808,-0.168458 z m 32.021994,-3.199548 c 0.731607,-0.375189 1.19973,-0.875599 1.506952,-1.610886 0.202057,-0.483592 0.241383,-1.455118 0.241383,-5.963336 V 47.70055 H 28.181953 10.480504 v 5.167571 c 0,3.420906 0.06017,5.368404 0.178018,5.761741 0.229635,0.766453 0.946095,1.630269 1.668864,2.012103 0.552394,0.291824 1.056957,0.301607 15.899769,0.308282 14.76859,0.0066 15.350437,-0.0039 15.907909,-0.28985 z M 23.655827,58.619388 c -2.606965,-0.382312 -4.10909,-2.864621 -3.322397,-5.490367 0.255023,-0.851191 1.292506,-1.972581 2.228025,-2.408216 0.77108,-0.359062 0.87596,-0.365902 5.620498,-0.366544 2.767187,-3.75e-4 5.076373,0.06646 5.399747,0.156284 0.803665,0.223234 1.987455,1.325574 2.419209,2.252758 0.92716,1.991057 0.07195,4.510261 -1.850404,5.450784 l -0.850197,0.415961 -4.430696,0.05209 c -2.436883,0.02865 -4.783086,4.11e-4 -5.213785,-0.06274 z m 9.530437,-3.324491 c 0.480552,-0.558812 0.478297,-1.112178 -0.0065,-1.596981 L 32.796915,53.315104 H 28.2599 23.722887 l -0.382812,0.382812 c -0.210545,0.210545 -0.38281,0.55199 -0.38281,0.758766 0,0.479972 0.527389,1.154937 0.977856,1.251486 0.191291,0.041 2.266379,0.06325 4.611306,0.04944 l 4.263501,-0.02511 z M 45.883403,25.510247 C 45.883399,8.5792108 45.855443,6.2942438 45.642016,5.7834486 45.32001,5.0127786 44.844859,4.519046 44.08986,4.1705918 43.496862,3.8969053 42.714274,3.8826713 28.259933,3.8826713 c -14.458927,0 -15.237284,0.014172 -15.840962,0.2883523 -0.761422,0.3458301 -1.516302,1.2171828 -1.760449,2.0320746 -0.129128,0.4309896 -0.178018,5.7754428 -0.178018,19.4602188 0,10.376326 0.02925,18.89529 0.065,18.931032 0.03575,0.03574 8.001403,0.06499 17.701451,0.06499 H 45.883403 Z M 21.956909,40.164025 c -0.490059,-0.490059 -0.537924,-1.295874 -0.109339,-1.840731 0.16165,-0.205506 0.670469,-0.506495 1.130709,-0.668865 1.535403,-0.541679 2.861865,-1.298524 4.116545,-2.348789 2.577058,-2.157204 3.267925,-2.162143 5.524315,-0.03949 0.664664,0.625267 1.638366,1.365977 2.163784,1.646023 1.072104,0.571425 1.430963,0.981063 1.430963,1.633445 0,0.646285 -0.758193,1.356939 -1.447714,1.356939 -0.80915,0 -2.366285,-0.886395 -3.630182,-2.066468 -0.620129,-0.579002 -1.192877,-1.052729 -1.272777,-1.052729 -0.0799,0 -0.315413,0.183053 -0.523365,0.406785 -1.185266,1.275202 -4.660261,3.137748 -6.138894,3.290357 -0.75634,0.07807 -0.881298,0.04627 -1.244045,-0.316474 z m -3.45134,-3.580958 c -0.361444,-0.3109 -0.45392,-0.518372 -0.45392,-1.018379 0,-0.877702 0.326956,-1.16392 1.990871,-1.742809 2.481407,-0.8633 3.772819,-1.628154 5.259898,-3.115234 2.153616,-2.153615 3.171867,-4.490626 3.080582,-7.07031 -0.03505,-0.99025 -0.0738,-1.173561 -0.171562,-0.811387 -1.15913,4.294229 -4.588806,7.806623 -9.059904,9.278411 -1.541585,0.507458 -2.214104,0.49524 -2.682,-0.04872 -0.486533,-0.565629 -0.496524,-1.359851 -0.02355,-1.873036 0.226486,-0.245747 0.848606,-0.530264 1.75455,-0.802421 2.050797,-0.616084 3.399173,-1.382534 4.675417,-2.657628 1.281774,-1.280618 2.098516,-2.611459 2.673941,-4.357051 0.82006,-2.48771 1.423842,-3.204612 2.698955,-3.204612 1.014382,0 1.689863,0.471837 2.232721,1.559598 1.262572,2.529905 0.881374,6.263183 -0.939566,9.201633 -0.924267,1.491491 -3.046091,3.639568 -4.579191,4.635851 -1.517569,0.986188 -4.36632,2.247724 -5.291076,2.343089 -0.596975,0.06156 -0.785693,0.01028 -1.166154,-0.316995 z M 35.938251,35.29862 c -2.708189,-1.354851 -3.722871,-4.08128 -2.842941,-7.638916 0.428442,-1.732226 0.576989,-4.398722 0.319357,-5.73261 -0.409775,-2.121604 -1.766875,-4.162679 -3.307356,-4.974255 -0.947975,-0.499424 -2.587405,-0.501277 -3.530975,-0.004 -1.644735,0.866821 -2.330465,1.889048 -3.157141,4.706401 -0.573665,1.955077 -1.190682,3.046922 -2.294464,4.06018 -0.932923,0.856409 -2.012263,1.428651 -3.47318,1.841401 -1.595875,0.450882 -2.492249,0.02411 -2.492249,-1.186597 0,-0.562082 0.571682,-1.283867 1.016873,-1.283867 0.138187,0 0.75547,-0.234157 1.371737,-0.520349 1.840362,-0.854658 2.693595,-1.991871 3.286888,-4.380864 0.710842,-2.86231 2.589075,-4.963626 5.324005,-5.956353 3.699996,-1.343026 7.118797,0.246148 9.037847,4.201098 0.955547,1.969275 1.231396,3.200331 1.229455,5.486769 -0.0012,1.45384 -0.09823,2.321087 -0.434613,3.885926 -0.69577,3.236695 -0.280372,4.316646 1.980263,5.148275 1.253279,0.46105 1.588331,1.826334 0.632676,2.578052 -0.603082,0.474385 -1.394193,0.406049 -2.666182,-0.2303 z m 2.430544,-5.226073 c -0.534853,-0.534855 -0.536052,-0.370632 0.02445,-3.348603 0.606178,-3.220616 0.223276,-6.182366 -1.169442,-9.045672 -1.907962,-3.9226 -5.674072,-6.36284 -9.431756,-6.111281 -4.502114,0.301395 -8.09031,3.638196 -9.338919,8.684619 -0.239754,0.969002 -0.435587,1.420067 -0.727894,1.676568 -0.890687,0.781586 -2.256296,0.171294 -2.251713,-1.006292 0.0077,-1.974258 1.298224,-5.185015 2.987788,-7.43337 2.800044,-3.726103 8.175943,-5.6189541 12.683933,-4.4660043 7.268311,1.8589203 11.764974,10.1422853 10.074955,18.5592123 -0.391158,1.948112 -0.64637,2.533348 -1.218414,2.793988 -0.634052,0.288894 -1.133693,0.196135 -1.632994,-0.303165 z M 76.18856,51.295389 c -0.273304,-0.166645 -0.571576,-0.442497 -0.662828,-0.613003 -0.107047,-0.200019 -0.165915,-2.031567 -0.165915,-5.162111 v -4.852099 l 0.382812,-0.38281 c 0.281672,-0.281673 0.551372,-0.382811 1.020828,-0.382811 0.469455,0 0.739155,0.101132 1.020828,0.382811 l 0.382811,0.38281 v 3.984067 3.984065 h 4.188142 4.188144 l 0.412673,0.382453 c 0.327374,0.3034 0.412674,0.526192 0.412674,1.077856 0,0.585062 -0.07614,0.759468 -0.479847,1.099165 l -0.479844,0.403765 -4.861781,-5.84e-4 c -4.53895,-5.44e-4 -4.894776,-0.0207 -5.358697,-0.303574 z m 39.77676,0.07875 c -0.91089,-0.396352 -1.05568,-1.795655 -0.2513,-2.428386 0.37059,-0.291508 0.6409,-0.309454 4.66126,-0.309454 h 4.26788 v -3.828761 c 0,-4.292448 0.0601,-4.590271 0.98856,-4.896683 0.61344,-0.202454 1.12191,-0.05557 1.58477,0.457813 0.29552,0.327772 0.31413,0.597231 0.35394,5.125584 0.0396,4.521268 0.0254,4.806508 -0.26483,5.276924 -0.2052,0.332603 -0.5032,0.551833 -0.89978,0.661961 -0.93433,0.259457 -9.82409,0.209222 -10.4405,-0.059 z M 97.896021,44.434075 C 92.112592,43.40424 86.219625,39.882615 80.491163,34.032971 c -2.00685,-2.049306 -4.42024,-4.953737 -4.676679,-5.628226 -0.318334,-0.83728 -0.172275,-1.391169 0.656955,-2.491335 1.926278,-2.555652 4.417131,-5.188697 6.998292,-7.397793 4.902966,-4.196221 9.767244,-6.742174 14.74387,-7.716908 1.702988,-0.333553 4.964209,-0.372459 6.622649,-0.07901 6.20443,1.097836 14.43588,6.408292 19.70353,12.711578 2.35583,2.818989 2.65945,3.294895 2.64657,4.14837 -0.0132,0.872162 -0.0875,1.02511 -1.13833,2.34147 -2.50285,3.135331 -5.76848,6.372549 -8.68466,8.609083 -6.47709,4.967569 -13.22793,7.014901 -19.467339,5.903871 z m 5.780769,-2.827259 c 3.39631,-0.472383 7.36346,-2.165855 10.74445,-4.586506 3.02859,-2.168359 6.54914,-5.467967 8.87491,-8.317933 l 0.91439,-1.120499 -0.89838,-1.130788 c -1.43526,-1.806561 -5.29733,-5.542945 -7.2468,-7.010943 -4.28652,-3.227861 -8.16693,-5.159891 -11.54103,-5.746208 -1.59663,-0.277444 -4.637898,-0.242096 -6.08245,0.07069 -5.015301,1.085977 -9.96634,3.971524 -14.876742,8.670408 -1.534045,1.467967 -3.858431,3.986725 -4.464397,4.837723 l -0.314482,0.441651 0.888209,1.064361 c 3.034866,3.636742 7.239373,7.38928 10.664222,9.517857 4.458903,2.771253 9.039538,3.908052 13.3381,3.310178 z m -3.770882,-3.410084 c -3.92766,-0.622685 -7.315242,-3.474114 -8.543904,-7.191655 -1.854258,-5.610405 1.267077,-11.634115 7.001897,-13.512617 1.053013,-0.344926 1.527507,-0.408691 3.041229,-0.408691 1.51661,0 1.98619,0.06334 3.04122,0.410229 1.73145,0.569288 3.08118,1.39871 4.36449,2.682019 1.28215,1.282154 2.11149,2.631027 2.68347,4.364485 0.35645,1.080258 0.4117,1.509275 0.4117,3.197179 0,1.687901 -0.0552,2.116919 -0.4117,3.197177 -0.58133,1.761819 -1.40118,3.050515 -2.77689,4.364845 -1.30207,1.244 -3.05512,2.226821 -4.72755,2.650451 -1.17123,0.296674 -3.05179,0.410217 -4.083962,0.246578 z m 3.298982,-3.055896 c 2.75875,-0.70896 4.92097,-2.803469 5.62996,-5.453658 0.31259,-1.168454 0.26823,-3.139263 -0.0973,-4.322707 -1.91298,-6.193483 -10.109089,-7.37411 -13.714153,-1.975488 -2.045985,3.063884 -1.629006,7.170238 0.987962,9.729313 1.956683,1.913396 4.660291,2.673547 7.193531,2.02254 z m -3.955269,-3.202898 c -1.789407,-0.894177 -2.77293,-2.588729 -2.637998,-4.54513 0.186968,-2.710946 2.2263,-4.580953 4.957077,-4.545495 2.67808,0.03477 4.81692,2.366046 4.63211,5.04884 -0.12916,1.874844 -1.01601,3.230178 -2.6469,4.04514 -0.81211,0.40582 -1.12578,0.475184 -2.14878,0.475184 -1.02485,0 -1.33619,-0.06912 -2.155509,-0.478539 z M 76.061636,14.933415 c -0.694997,-0.399237 -0.701819,-0.450849 -0.701819,-5.3095485 0,-3.0052425 0.05967,-4.772608 0.169251,-5.0131125 0.390264,-0.8565379 0.621189,-0.890893 5.988236,-0.890893 h 4.939659 l 0.455882,0.4558826 c 0.586567,0.5865655 0.617753,1.3659072 0.07971,1.9917891 l -0.376177,0.4375862 -4.22464,0.046151 -4.224639,0.046151 V 10.494 c 0,3.391813 -0.02926,3.832724 -0.274525,4.135601 -0.322994,0.398883 -1.364571,0.571716 -1.830935,0.303815 z m 49.408474,0.01372 c -0.73892,-0.297575 -0.82696,-0.7989 -0.82684,-4.708203 l 1.3e-4,-3.633813 -3.90202,0.044219 c -4.49961,0.050997 -5.0301,-0.028931 -5.40463,-0.8143477 -0.30524,-0.6400773 -0.18123,-1.4811381 0.27994,-1.8987705 0.30241,-0.2738569 0.68182,-0.2974749 5.45162,-0.3393709 5.64829,-0.049612 5.82461,-0.024489 6.3015,0.8977042 0.33832,0.6542545 0.35076,9.1573929 0.0143,9.8079609 -0.35268,0.681991 -1.15242,0.951333 -1.91404,0.644618 z"
     id="path64" /><path
     style="fill:#ffffff;stroke:none;stroke-width:0.564629;stroke-dasharray:none"
     d="M 10.577297,39.839861 C 10.511465,37.255602 10.498241,28.7013 10.547909,20.830305 10.623659,8.826196 10.675177,6.430942 10.867514,5.9706136 11.191676,5.1947838 12.173936,4.2938119 12.853358,4.1491094 13.167613,4.0821799 20.212116,4.0274191 28.50781,4.0274191 h 15.083081 l 0.70221,0.3948451 c 0.487344,0.2740282 0.812315,0.6123152 1.06205,1.105566 l 0.359842,0.7107211 0.108365,19.1499837 0.108365,19.149982 H 28.314357 10.696992 Z m 13.710654,0.421669 c 1.352327,-0.452371 3.247785,-1.48214 4.317437,-2.345586 0.49162,-0.396849 0.981117,-0.786265 1.087768,-0.865371 0.133472,-0.09899 0.582004,0.184836 1.439024,0.910612 1.426988,1.20846 2.868996,1.99713 3.651557,1.99713 0.742217,0 1.463035,-0.718687 1.463035,-1.458714 0,-0.61686 -0.359228,-1.005594 -1.79169,-1.938853 -0.507669,-0.330751 -1.289462,-0.935808 -1.73732,-1.344573 -2.230136,-2.035479 -3.104079,-2.078191 -5.335191,-0.260739 -1.351185,1.100667 -2.69435,1.91461 -4.083642,2.474635 -1.431451,0.577016 -1.740391,0.897069 -1.740391,1.803003 0,1.30942 0.888581,1.644242 2.729413,1.028456 z m -3.564107,-3.55474 c 1.336383,-0.443328 3.920962,-1.783273 4.966742,-2.574949 1.772117,-1.34153 3.535372,-3.373393 4.327378,-4.9866 0.915384,-1.864513 1.224905,-3.12093 1.227011,-4.980726 0.0019,-1.703614 -0.285332,-2.886589 -0.94878,-3.90716 -0.521666,-0.80247 -1.179915,-1.146856 -2.192071,-1.146856 -1.118219,0 -1.722294,0.703958 -2.56487,2.988965 -1.43432,3.889777 -3.493052,5.889405 -7.422778,7.209687 -1.956892,0.65746 -2.473907,1.385623 -1.845989,2.59988 0.431196,0.833843 1.561886,0.822233 3.748684,-0.03849 3.509815,-1.381461 6.677669,-4.542845 7.88006,-7.863965 0.348168,-0.961673 0.374846,-0.993542 0.421862,-0.503907 0.24678,2.569908 -1.650849,6.195797 -4.274965,8.168382 -1.159496,0.871606 -1.881788,1.244565 -3.927907,2.028187 -1.676223,0.641961 -2.005524,0.905238 -2.135715,1.707507 -0.07054,0.434663 -0.004,0.641268 0.336667,1.046187 0.498213,0.592092 1.170991,0.663117 2.404671,0.253858 z M 38.83871,35.365995 c 0.823817,-0.979051 0.385704,-1.911876 -1.264013,-2.691331 -1.813689,-0.856927 -2.08027,-1.754039 -1.472864,-4.956543 0.44894,-2.36697 0.488987,-5.33056 0.09285,-6.870304 -0.468921,-1.822639 -1.606886,-3.89897 -2.776506,-5.06601 -1.4448,-1.441618 -2.490306,-1.920571 -4.387123,-2.009773 -1.159888,-0.05455 -1.668168,-0.0023 -2.533565,0.26059 -2.770754,0.84159 -5.070624,3.287603 -5.739747,6.104472 -0.594844,2.50417 -1.989129,4.010926 -4.448171,4.80698 -1.716801,0.555773 -1.588688,2.853013 0.159108,2.853013 1.548837,0 3.714825,-1.023758 4.986332,-2.356801 1.011525,-1.060478 1.46222,-1.906121 2.149697,-4.033495 0.859067,-2.65835 1.484594,-3.570814 2.93408,-4.279982 0.989428,-0.484082 2.348502,-0.561019 3.250771,-0.184027 1.334159,0.557447 2.748196,2.37362 3.32399,4.269293 0.28757,0.946763 0.319826,1.357913 0.24833,3.16532 -0.04519,1.142469 -0.204277,2.641113 -0.353523,3.330315 -0.387768,1.790703 -0.279014,3.819748 0.268467,5.008825 0.786003,1.707121 2.79753,3.134992 4.416838,3.135265 0.628229,1.06e-4 0.796118,-0.07112 1.145051,-0.485807 z m 1.617649,-5.264544 c 0.195752,-0.225192 0.495443,-1.015103 0.706094,-1.861103 0.311853,-1.25245 0.36644,-1.878667 0.369048,-4.233771 0.0027,-2.404627 -0.04542,-2.948692 -0.369903,-4.185357 C 40.37755,16.833061 38.988776,14.312426 37.06842,12.392068 34.547544,9.8711922 31.783365,8.6855662 28.432015,8.6876969 c -5.114039,0.00325 -9.249737,2.5751991 -11.515944,7.1616481 -1.192834,2.414109 -1.797584,4.968991 -1.366736,5.774039 0.105007,0.196206 0.439425,0.460571 0.74315,0.587476 0.499047,0.208514 0.608093,0.203426 1.132338,-0.05286 0.554565,-0.271102 0.611495,-0.377479 1.29285,-2.415753 0.860813,-2.575124 1.585441,-3.823551 3.082064,-5.309939 1.816449,-1.804027 4.028761,-2.74115 6.471168,-2.74115 4.533312,0 8.477107,3.505784 9.894919,8.795959 0.463061,1.727776 0.467791,4.54014 0.01188,7.054467 -0.368414,2.031728 -0.344244,2.200979 0.397618,2.784526 0.553781,0.435605 1.39436,0.335211 1.881048,-0.224663 z"
     id="path65" /><path
     style="fill:#ffffff;stroke:none;stroke-width:0.564629;stroke-dasharray:none"
     d="M 12.651517,60.643679 C 12.05706,60.46377 11.344701,59.779253 10.94701,59.005794 10.654368,58.436641 10.623722,57.984979 10.542472,53.043634 l -0.08791,-5.346357 H 28.191465 45.92837 l -0.111591,5.488348 c -0.124565,6.126491 -0.126685,6.138318 -1.264504,7.059308 l -0.595762,0.48223 -15.423828,0.02746 c -8.483108,0.01511 -15.629633,-0.03482 -15.881169,-0.110948 z m 21.34989,-2.271482 c 1.555051,-0.79478 2.396368,-2.158225 2.396368,-3.883584 0,-1.626997 -0.743572,-2.910189 -2.171166,-3.746815 l -0.723365,-0.423923 -5.14318,-0.0073 c -5.729452,-0.0081 -5.710752,-0.01109 -6.932794,1.092952 -1.953962,1.765287 -1.775138,5.093338 0.35036,6.520426 0.420624,0.282414 0.987602,0.578059 1.259952,0.656992 0.272349,0.07893 2.683011,0.149926 5.357026,0.157761 4.839994,0.01418 4.86519,0.01254 5.606799,-0.366499 z"
     id="path66" /><path
     style="fill:#ffffff;stroke:none;stroke-width:0.141157;stroke-dasharray:none"
     d="m 24.598845,55.717725 c -0.584398,-0.02111 -0.734802,-0.03871 -0.846201,-0.09906 -0.363891,-0.197136 -0.759502,-0.791091 -0.759502,-1.140286 0,-0.248147 0.162685,-0.546912 0.472625,-0.867955 l 0.257632,-0.266858 h 4.527392 4.527394 l 0.303191,0.311557 c 0.166754,0.171358 0.332084,0.380132 0.367395,0.463942 0.164754,0.391041 0.01717,0.847632 -0.428834,1.326703 l -0.2478,0.266173 -3.731287,0.01572 c -2.052206,0.0087 -4.051109,0.0042 -4.442005,-0.0099 z"
     id="path67" /><path
     style="fill:#ffffff;stroke:none;stroke-width:0.564629;stroke-dasharray:none"
     d="m 20.082128,130.03738 c -0.05663,-0.9256 -0.110055,-2.47143 -0.118713,-3.43515 -0.0087,-0.96373 -0.06511,-1.92967 -0.125448,-2.14654 -0.06689,-0.24044 -0.600019,-0.76012 -1.366214,-1.33176 -2.537795,-1.89337 -4.142303,-3.8602 -5.507366,-6.751 -1.406855,-2.9793 -6.6091068,-15.80106 -6.6853743,-16.47714 -0.085467,-0.757632 0.347467,-1.416979 1.014072,-1.544408 0.9636877,-0.184219 1.3909197,0.220769 3.9617963,3.755538 2.736075,3.76191 4.529788,6.11477 4.974342,6.52498 0.499493,0.4609 1.266193,0.49274 1.823971,0.0757 l 0.425553,-0.31814 -0.06444,-13.113092 -0.06444,-13.113094 0.412625,-0.412626 c 0.541371,-0.541371 1.396292,-0.563242 1.910655,-0.04888 0.436577,0.436576 0.449953,0.542901 0.888081,7.059337 0.45901,6.827005 0.902525,11.438095 1.159274,12.052585 0.414941,0.99309 1.944528,1.17928 2.621177,0.31906 0.663194,-0.84311 0.7678,-1.922195 1.271878,-13.120452 0.176901,-3.929915 0.388017,-7.319892 0.469146,-7.533281 0.32571,-0.856676 1.212461,-1.044935 2.024698,-0.429845 0.354144,0.268185 0.366141,0.369248 0.509931,4.295868 0.08099,2.211671 0.223107,6.082311 0.315823,8.601422 0.09271,2.519111 0.234926,5.32646 0.316031,6.238552 0.138864,1.561646 0.175427,1.683676 0.626981,2.092686 0.970351,0.8789 2.21561,0.40673 2.502879,-0.94904 0.08727,-0.411842 0.594466,-4.231333 1.127112,-8.487762 0.532648,-4.256432 1.046919,-7.940969 1.142825,-8.187862 0.09607,-0.247304 0.399928,-0.556459 0.676614,-0.688401 0.452932,-0.21599 0.551021,-0.214276 0.999114,0.01744 0.291968,0.150984 0.539946,0.428567 0.601324,0.673105 0.104629,0.416878 0.02564,2.755887 -0.257768,7.632933 -0.08329,1.433288 -0.199604,4.570296 -0.258479,6.971134 l -0.107043,4.365163 0.412467,0.41246 c 0.499256,0.49926 1.478034,0.56676 1.972935,0.13608 0.344818,-0.30008 0.964054,-2.10796 2.25856,-6.593913 0.840055,-2.911121 1.387927,-4.373018 1.714502,-4.574853 0.248907,-0.153834 0.87752,0.01741 1.182148,0.322043 0.377841,0.377841 0.312986,1.392375 -0.375713,5.877227 -0.830787,5.410166 -1.0482,7.083256 -1.430793,11.010626 -0.816843,8.38497 -1.688772,11.41872 -4.008279,13.94624 -0.560721,0.61101 -1.10839,1.27667 -1.217041,1.47924 -0.131982,0.24608 -0.221581,1.44765 -0.26996,3.6204 l -0.07241,3.25208 -5.217173,0.1041 c -2.869446,0.0573 -6.758359,0.1041 -8.642029,0.1041 h -3.424852 z m 12.52357,-12.3466 c 0.531251,-0.39226 0.632896,-0.91255 0.376552,-1.92748 -0.794081,-3.14396 -3.489129,-6.36908 -6.647716,-7.95523 -0.995366,-0.49984 -3.519167,-1.19896 -4.330203,-1.19952 -0.745113,-5.3e-4 -1.235483,0.56847 -1.235483,1.43354 0,0.95237 0.446091,1.29886 2.517311,1.95528 0.993624,0.3149 2.213011,0.81944 2.709748,1.12119 1.774649,1.07805 3.057521,2.86215 4.193512,5.83198 0.456296,1.1929 1.408251,1.48454 2.416279,0.74024 z"
     id="path68" /><path
     style="fill:#ffffff;stroke:none;stroke-width:0.564629;stroke-dasharray:none"
     d="m 103.13352,122.44422 c -3.325046,-0.20261 -6.508182,-2.36997 -9.018236,-6.14042 -1.036408,-1.55682 -1.896684,-3.36726 -2.678076,-5.63595 l -0.587256,-1.70504 -0.872648,-0.43035 c -0.622253,-0.30686 -0.956781,-0.59247 -1.16586,-0.99535 -0.352439,-0.67913 -0.761006,-2.71161 -0.761006,-3.78573 0,-0.72485 0.02627,-0.7758 0.399918,-0.7758 0.531146,0 1.359038,-0.35577 1.653276,-0.71047 0.184832,-0.2228 0.259222,-0.98327 0.338423,-3.45961 0.111101,-3.473725 0.416158,-5.649037 0.99219,-7.075149 1.465255,-3.627605 4.839449,-6.440562 8.798525,-7.335047 1.7714,-0.400219 5.3617,-0.356484 7.00714,0.08536 4.52752,1.21575 7.80845,4.48555 8.91453,8.884285 0.3735,1.485387 0.63946,4.210693 0.64018,6.560048 2.6e-4,0.971583 0.0712,1.952263 0.15747,2.179283 0.17707,0.46574 0.9897,0.8713 1.74582,0.8713 h 0.49146 l -0.0978,1.06608 c -0.27391,2.98476 -0.61659,3.79872 -1.85988,4.4178 -0.87506,0.43574 -0.8751,0.43579 -1.68256,2.69936 -2.55958,7.17533 -7.41638,11.59002 -12.41558,11.2854 z m 4.42944,-7.06333 c 0.47988,-0.47988 0.52569,-1.36957 0.0928,-1.80245 -0.25617,-0.25617 -0.66711,-0.30991 -3.13169,-0.40959 -3.23161,-0.1307 -4.532122,-0.0235 -4.964962,0.40937 -0.499899,0.4999 -0.302162,1.92674 0.288218,2.07974 0.156944,0.0407 1.869944,0.0822 3.806654,0.0923 l 3.5213,0.0183 z M 98.479517,102.736 c 0.878253,-0.45416 1.21067,-1.78445 0.695061,-2.781529 -0.308139,-0.595873 -1.176486,-0.986591 -1.859325,-0.836615 -1.06824,0.234625 -1.525852,0.842704 -1.525852,2.027564 0,1.43364 1.396677,2.25944 2.690116,1.59058 z m 11.996373,0.004 c 0.686,-0.35474 0.94937,-0.83839 0.94937,-1.74338 0,-0.68082 -0.0728,-0.87796 -0.47646,-1.290874 -0.5888,-0.602237 -1.08674,-0.737251 -1.90573,-0.516721 -0.80618,0.217086 -1.24897,0.893735 -1.24979,1.909905 -10e-4,1.4771 1.37348,2.31805 2.68261,1.64107 z"
     id="path69" /><path
     style="fill:#ffffff;stroke:none;stroke-width:0.564629;stroke-dasharray:none"
     d="m 99.185068,41.531343 c -3.081647,-0.404009 -6.394222,-1.733058 -9.55525,-3.833694 -2.83723,-1.885463 -6.617679,-5.289505 -9.407065,-8.470434 l -1.308107,-1.491727 0.500993,-0.705614 c 0.759418,-1.069587 5.534462,-5.832285 7.055419,-7.037179 6.209311,-4.918976 12.045186,-7.010476 17.507322,-6.274393 5.3207,0.717022 12.60292,5.351044 18.13839,11.542318 0.73317,0.820022 1.47208,1.68623 1.64203,1.924903 l 0.30901,0.433954 -1.16821,1.392351 c -1.42442,1.697725 -4.76504,4.954884 -6.5819,6.417453 -5.8093,4.676497 -11.78153,6.803602 -17.132632,6.102062 z m 4.794092,-3.491733 c 3.41954,-0.827897 6.48241,-3.672004 7.54359,-7.004791 0.34539,-1.084773 0.4027,-1.556221 0.40511,-3.332795 0.003,-1.882396 -0.0391,-2.190763 -0.46079,-3.414264 -1.14613,-3.325161 -4.12098,-6.136502 -7.39605,-6.989552 -1.23699,-0.322193 -4.071522,-0.317072 -5.336968,0.0096 -2.81862,0.727714 -5.466086,2.908944 -6.792863,5.596593 -1.549699,3.13922 -1.5832,6.331426 -0.09859,9.39388 1.388073,2.863311 3.904538,4.905502 7.105557,5.766383 0.954559,0.256717 1.486704,0.30245 2.740904,0.235558 0.85599,-0.04566 1.88654,-0.162949 2.2901,-0.260654 z"
     id="path70" /><path
     style="fill:#ffffff;stroke:#ffffff;stroke-width:0.282313;stroke-dasharray:none"
     d="m 99.905566,35.174516 c -2.59139,-0.578109 -4.763749,-2.449716 -5.6525,-4.869945 -0.363035,-0.988605 -0.43184,-1.40753 -0.431292,-2.625936 5.29e-4,-1.275034 0.09287,-1.814002 0.478086,-2.791825 0.391128,-0.992824 0.89232,-1.743502 1.726448,-2.585846 1.245976,-1.25825 2.473503,-1.908865 4.140052,-2.194309 0.92007,-0.157589 1.49842,-0.160267 2.41438,-0.01118 3.02635,0.492596 5.40614,2.632741 6.17466,5.552869 0.17441,0.6627 0.20249,0.938299 0.20688,2.03029 0.004,0.935633 -0.0296,1.403442 -0.12849,1.802778 -0.54967,2.21919 -2.12747,4.108141 -4.26945,5.111377 -1.08076,0.506201 -1.67384,0.640702 -2.97072,0.673717 -0.83237,0.02119 -1.29333,-0.0039 -1.688054,-0.09199 z m 3.171004,-2.971866 c 1.25031,-0.513614 2.11932,-1.275175 2.62441,-2.299915 0.97041,-1.968799 0.63629,-4.164769 -0.86246,-5.668353 -1.20835,-1.212247 -2.79135,-1.664658 -4.53324,-1.295573 -1.713349,0.363036 -3.110736,1.706901 -3.573717,3.436838 -0.206187,0.770418 -0.19476,2.022496 0.02487,2.72443 0.386337,1.234768 1.277258,2.264857 2.485366,2.873597 0.832201,0.419328 1.140791,0.478819 2.351831,0.453388 0.85107,-0.01786 1.05545,-0.0488 1.48294,-0.224412 z"
     id="path71" /></svg>
