<?xml version="1.0" encoding="UTF-8" standalone="no"?>
<!-- Created with Inkscape (http://www.inkscape.org/) -->

<svg
   width="505.08896"
   height="505.75937"
   viewBox="0 0 505.08896 505.75937"
   version="1.1"
   id="svg1"
   xml:space="preserve"
   sodipodi:docname="Template.svg"
   inkscape:version="1.4 (86a8ad7, 2024-10-11)"
   inkscape:export-filename="Suit-case.svg"
   inkscape:export-xdpi="96"
   inkscape:export-ydpi="96"
   xmlns:inkscape="http://www.inkscape.org/namespaces/inkscape"
   xmlns:sodipodi="http://sodipodi.sourceforge.net/DTD/sodipodi-0.dtd"
   xmlns="http://www.w3.org/2000/svg"
   xmlns:svg="http://www.w3.org/2000/svg"><sodipodi:namedview
     id="namedview1"
     pagecolor="#ffffff"
     bordercolor="#000000"
     borderopacity="0.25"
     inkscape:showpageshadow="2"
     inkscape:pageopacity="0.0"
     inkscape:pagecheckerboard="true"
     inkscape:deskcolor="#d1d1d1"
     inkscape:zoom="2"
     inkscape:cx="256.25"
     inkscape:cy="263.75"
     inkscape:window-width="2560"
     inkscape:window-height="1494"
     inkscape:window-x="585"
     inkscape:window-y="2149"
     inkscape:window-maximized="1"
     inkscape:current-layer="svg1"><inkscape:page
       x="0"
       y="0"
       width="505.08896"
       height="505.75937"
       id="page2"
       margin="0"
       bleed="0" /></sodipodi:namedview><defs
     id="defs1" /><g
     id="g1"
     transform="translate(67.769598,386.50178)"><path
       style="fill:#000000;stroke-width:0.599542"
       d="m 8.0487127,106.70637 c -11.139052,-2.91825 -18.8233297,-9.748309 -22.7983867,-20.263999 -1.489795,-3.94113 -1.519052,-4.34987 -1.858582,-25.96219 l -0.344968,-21.95802 -3.897023,-2.65472 c -4.530569,-3.08632 -8.84063,-8.42891 -10.881916,-13.48882 l -1.408692,-3.49187 -0.164565,-57.20222 c -0.179985,-62.558551 -0.319351,-59.73256 3.297901,-66.870861 1.888296,-3.72638 7.429579,-9.23956 10.819905,-10.76505 l 2.534165,-1.14025 v -48.13305 c 0,-32.63812 0.205864,-48.67638 0.639479,-49.82083 0.87932,-2.32077 2.633786,-4.09852 6.8547927,-6.94576 1.978497,-1.33458 5.307054,-3.79891 7.396806,-5.47631 11.073098,-8.88812 21.7820593,-27.91338 26.6925443,-47.42128 3.367224,-13.37699 3.378051,-13.56091 3.38012,-57.43003 0.0019,-39.30256 0.04098,-40.71949 1.187417,-42.96665 1.385007,-2.71483 3.559823,-4.41058 6.908316,-5.38657 1.732976,-0.50511 11.57272,-0.64861 35.47491,-0.51734 l 33.076744,0.18166 1.62407,1.49885 c 2.93639,2.70998 3.26817,4.40167 3.26817,16.6638 0,12.50407 0.58998,19.8249 2.71569,33.69773 2.2836,14.90315 6.04166,25.59759 12.16231,34.61064 7.15607,10.53778 19.95994,17.47493 38.78101,21.01159 7.7661,1.45932 31.91006,1.42983 39.71113,-0.0486 17.04837,-3.23073 29.22453,-9.12985 36.19144,-17.53405 11.48528,-13.85475 16.95149,-35.13746 17.85425,-69.51562 0.24007,-9.14237 0.6311,-14.82623 1.0724,-15.5881 1.33131,-2.29839 4.27729,-4.59639 6.57635,-5.12984 1.27336,-0.29546 16.6904,-0.54363 34.26008,-0.5515 25.81607,-0.0116 32.31501,0.14407 33.87412,0.81117 2.39838,1.0262 4.86941,3.68697 5.67617,6.112 0.39049,1.17379 0.64265,17.11687 0.69552,43.97518 l 0.0829,42.1338 1.52451,7.28566 c 5.4652,26.11839 18.25657,47.40241 35.57492,59.19445 9.12879,6.21577 8.11126,-0.65248 8.29736,56.00744 l 0.16018,48.77386 3.0569,1.88092 c 6.29741,3.87485 11.43868,10.96369 13.06253,18.010811 0.89729,3.89405 0.87182,111.58001 -0.0274,115.81532 -1.56214,7.3577 -6.04235,13.78024 -12.66526,18.15609 l -3.44736,2.27773 v 20.18943 c 0,11.71905 -0.26905,21.68197 -0.6413,23.74692 -2.06309,11.44456 -11.86797,21.376079 -24.21578,24.528489 -3.15955,0.80663 -23.50077,0.90845 -175.66582,0.87926 C 17.045693,107.85354 12.306822,107.82184 8.0486937,106.70632 Z M 359.64465,89.503501 c 3.1413,-1.68002 6.41156,-5.47207 7.31255,-8.47928 0.46341,-1.54674 0.6958,-8.55661 0.6958,-20.98852 v -18.66613 h -53.53305 c -58.16063,0 -56.72024,0.0761 -63.48804,-3.35342 -4.05571,-2.05519 -8.87288,-6.66879 -10.95243,-10.48963 -2.69783,-4.9568 -3.31127,-8.35423 -3.31907,-18.3823297 l -0.007,-9.14302 h -52.16047 -52.16016 v 7.68394 c 0,4.2261597 -0.29147,9.2847997 -0.6477,11.2414097 -1.84663,10.14256 -9.54254,18.28657 -20.2952,21.47688 -2.88912,0.8572 -9.3303,0.96617 -57.106394,0.96617 H 0.13373172 v 17.96531 c 0,14.88838 0.164575,18.45664 0.96094798,20.83409 1.687423,5.03754 4.899211,8.18027 10.3597693,10.13703 1.760563,0.63088 34.512457,0.75357 173.937771,0.65152 l 171.7688,-0.12573 z M 108.99564,23.088851 c 1.4017,-0.82146 3.17908,-2.50767 3.9497,-3.74714 1.39471,-2.24325 1.40196,-2.35721 1.57782,-24.8317697 l 0.17665,-22.5781703 -3.67745,1.14454 c -3.51064,1.09264 -6.25157,1.14423 -60.430634,1.13744 -59.3474883,-0.008 -59.6875323,-0.021 -64.62111,-2.57352 -1.029873,-0.53283 -2.024982,-0.81631 -2.211347,-0.62995 -0.186375,0.18638 -0.197027,10.34979 -0.02369,22.5853803 0.287841,20.3174897 0.414127,22.4404897 1.45639,24.4834997 1.179882,2.31275 3.985069,4.80611 6.5660877,5.83619 0.934001,0.37276 22.3857063,0.60508 58.0849793,0.62904 l 56.604044,0.038 z m 268.12404,0.34936 c 2.86148,-1.47188 5.21526,-3.96972 6.38938,-6.78049 0.7833,-1.87517 0.93112,-5.65707 0.93112,-23.8230497 V -28.759349 l -3.14759,1.34022 -3.14761,1.34022 -56.65672,0.18768 c -58.96783,0.19534 -59.9415,0.16081 -65.75573,-2.33146 l -2.59206,-1.11109 v 22.7851803 c 0,21.1755497 0.0802,22.9423197 1.13529,25.0095797 1.37803,2.7 2.73737,3.98354 5.4775,5.17206 1.80264,0.78187 9.63197,0.90555 58.61129,0.92589 54.47477,0.0226 56.61163,-0.0182 58.75513,-1.12072 z m -140.76639,-66.90384 v -26.67962 h -52.16015 -52.16016 v 26.67962 26.67962 h 52.16016 52.16015 z m -129.19617,-0.21882 c 2.88856,-1.31224 5.93677,-4.63113 6.77253,-7.37391 0.33516,-1.09997 0.77399,-10.69612 0.97515,-21.32479 0.40082,-21.17751 0.31036,-21.91393 -3.13817,-25.54444 -3.41207,-3.592131 0.23749,-3.393841 -62.464564,-3.393841 -56.4103443,0 -57.6585883,0.025 -59.958117,1.19807 -1.514032,0.772411 -2.943398,2.210251 -4.023018,4.046901 l -1.674605,2.84884 -0.197096,18.28603 c -0.246182,22.84138 0.20834,25.24913 5.561287,29.45976 3.7079007,2.91663 2.5524607,2.86206 60.885199,2.87603 51.797814,0.0124 54.992164,-0.0478 57.261404,-1.07865 z m 269.21375,-0.3009 c 3.49289,-1.62651 5.74386,-4.05575 7.1352,-7.70031 0.85257,-2.23324 0.95892,-5.22146 0.80806,-22.70404 l -0.17373,-20.1323 -1.71818,-2.25168 c -0.94501,-1.23842 -2.56377,-2.76728 -3.59725,-3.397481 -1.81562,-1.1071 -3.83374,-1.14586 -59.76738,-1.14803 l -57.88832,-0.002 -2.78735,1.767681 c -3.30763,2.09765 -5.08388,5.21158 -5.54965,9.72913 -0.181,1.75558 -0.11826,11.19541 0.13943,20.9774 l 0.46854,17.78543 1.80887,2.573 c 1.12873,1.60555 3.01424,3.2027 5.01468,4.24774 l 3.20581,1.67474 54.93953,-0.006 54.93952,-0.006 z m -139.91994,-49.69192 c 0.20423,-5.37211 0.47252,-6.653791 2.1323,-10.186671 3.43622,-7.31409 10.4875,-12.67696 18.72119,-14.23844 2.09018,-0.3964 22.4135,-0.61142 56.65412,-0.5994 29.36707,0.0103 53.46214,-0.12181 53.54457,-0.29359 0.0824,-0.17178 0.14989,-20.2274 0.14989,-44.56804 v -44.25571 l -2.44428,-1.37375 c -6.77146,-3.80578 -15.21579,-12.34597 -21.61209,-21.85745 -10.66865,-15.86456 -17.76314,-33.60042 -20.8933,-52.23212 -1.12088,-6.67185 -1.20891,-9.88404 -1.21187,-44.21622 l -0.003,-37.02173 h -22.98903 -22.98911 l -0.37672,8.28165 c -1.72615,37.9459 -10.66765,65.61165 -25.70523,79.53415 -11.04263,10.22378 -26.15937,17.29635 -43.65144,20.4229 -2.80286,0.50099 -9.54761,1.17355 -14.98834,1.4946 -30.04957,1.77313 -56.41776,-5.8988 -72.96615,-21.22982 -15.53946,-14.39629 -24.368314,-41.1865 -25.758494,-78.16137 l -0.38885,-10.34211 h -22.96412 -22.96412 l -0.18476,40.31921 c -0.18075,39.4404 -0.21493,40.46294 -1.56836,46.91415 -0.76097,3.62724 -2.44504,9.86482 -3.74236,13.86128 -2.770177,8.53368 -10.845994,25.05995 -16.225043,33.20278 -4.469159,6.76542 -14.015505,16.53283 -19.8454143,20.30497 l -4.04690498,2.61847 v 44.29569 44.29569 l 53.50912228,0.0492 c 29.43002,0.0271 54.318504,0.17176 55.307754,0.32143 4.04707,0.6123 9.50102,2.8773 12.83088,5.32859 6.48124,4.77123 9.60933,10.9395 10.10758,19.931101 l 0.3073,5.54576 h 52.01046 52.01046 z M 72.978436,-145.08801 c -2.47528,-1.23738 -4.02938,-4.44026 -3.70493,-7.6355 0.338,-3.32872 1.65476,-5.23526 4.76254,-6.89568 l 2.53928,-1.35667 107.044404,-0.15792 107.0444,-0.15791 3.24071,1.65677 c 4.18628,2.14016 5.60331,4.09255 5.54959,7.64626 -0.0463,3.06071 -1.15893,5.15704 -3.57865,6.74242 -1.52723,1.00064 -7.51955,1.05755 -111.35622,1.05755 -96.349324,0 -109.961684,-0.10975 -111.541124,-0.89932 z m 5.54419,-34.42716 c -3.59011,-1.28531 -6.45744,-3.85502 -8.00137,-7.17084 -1.39461,-2.99511 -1.42831,-3.45181 -1.42117,-19.25551 0.008,-18.16014 0.21609,-19.26035 4.32039,-22.86397 4.72868,-4.15184 -4.17256,-3.86311 113.470594,-3.68055 l 106.11894,0.16467 2.69795,1.59015 c 1.48386,0.87458 3.28126,2.38289 3.99421,3.35181 2.43921,3.31495 2.68819,5.58372 2.48955,22.68576 l -0.18857,16.23642 -1.81448,2.93307 c -1.1236,1.81629 -2.93191,3.62396 -4.74925,4.74755 l -2.93477,1.81448 -105.86626,0.12617 c -87.339754,0.10408 -106.259924,-0.0148 -108.115764,-0.67921 z m 206.993114,-26.12658 v -10.19222 H 185.69199 85.868236 v 10.19222 10.19221 h 99.823754 99.82375 z"
       id="path11" /><path
       style="fill:#ffffff;stroke-width:5.47318;stroke-linecap:round;stroke-linejoin:round"
       d="m -6.3743923,23.636311 c -1.602591,-0.22476 -3.605149,-1.05434 -4.8652757,-2.01549 -4.090687,-3.12012 -4.071783,-3.00901 -4.624019,-27.1766297 -0.316583,-13.8546403 -0.291095,-21.9777203 0.07009,-22.3389103 0.363662,-0.36366 1.481748,-0.19467 3.11211,0.47037 4.2183757,1.72072 21.6693527,2.17181 73.303163,1.89481 40.896234,-0.21939 48.209194,-0.38768 50.872444,-1.17073 l 3.11037,-0.91451 -0.37298,21.9151503 C 113.81123,18.994371 113.83175,18.876421 109.3698,22.247751 l -2.55187,1.92813 -55.234334,-0.0788 c -30.37889,-0.0433 -56.4599823,-0.25068 -57.9579913,-0.46078 z"
       id="path15" /><path
       style="fill:#ffffff;stroke-width:5.47318;stroke-linecap:round;stroke-linejoin:round"
       d="m 261.98892,23.640361 c -3.51932,-0.52048 -5.58607,-1.98367 -7.01675,-4.96764 -1.08866,-2.27062 -1.2097,-4.17175 -1.59413,-25.0387797 l -0.41602,-22.5815903 3.18673,1.27401 c 5.22746,2.08988 17.95365,2.43801 73.01589,1.99742 46.65711,-0.37333 49.94097,-0.46695 52.3319,-1.49182 l 2.55101,-1.09349 -0.003,20.7643903 c -0.002,12.66991 -0.24441,21.6326597 -0.62182,22.9917197 -0.72256,2.60192 -3.49426,5.95953 -6.09604,7.38469 -1.68129,0.92095 -6.30103,1.0079 -57.25644,1.07765 -30.48517,0.0417 -56.62164,-0.10073 -58.08104,-0.31656 z"
       id="path18" /><path
       style="fill:#ffffff;stroke-width:5.47318;stroke-linecap:round;stroke-linejoin:round"
       d="m 21.999259,90.242821 c -9.690728,-0.28462 -11.171949,-0.46249 -13.2672403,-1.59312 -3.159515,-1.70488 -5.277562,-4.03373 -6.800113,-7.47691 -1.17186398,-2.65011 -1.28545898,-4.14978 -1.59676198,-21.08017 L -1.2833084e-6,41.865531 42.103936,41.811331 c 23.15717,-0.0298 48.20688,-0.22996 55.66601,-0.4448 l 13.562074,-0.39061 4.60431,-2.19596 c 8.39976,-4.00616 14.3415,-11.65247 15.75314,-20.27243 0.31267,-1.90923 0.57002,-6.85448 0.5719,-10.9894297 l 0.003,-7.5181100003439 h 51.88966 51.88966 L 236.04769,7.8129213 c 0.008,13.9867497 1.67962,19.3669997 7.92368,25.5025897 4.06077,3.99023 8.63478,6.53431 13.34692,7.42359 1.94075,0.36626 24.24144,0.73407 56.79028,0.93664 l 53.59464,0.33355 -0.31459,18.94449 c -0.18929,11.39928 -0.5683,19.58852 -0.9516,20.56152 -0.91607,2.32538 -5.25668,6.84258 -7.84292,8.16198 -2.16756,1.10581 -5.6228,1.12704 -163.95065,1.00776 -88.95503,-0.067 -166.645309,-0.26602 -172.645051,-0.44224 z"
       id="path19" /></g></svg>
