<?xml version="1.0" encoding="UTF-8" standalone="no"?>
<!-- Created with Inkscape (http://www.inkscape.org/) -->

<svg
   width="505.08896"
   height="505.75937"
   viewBox="0 0 505.08896 505.75937"
   version="1.1"
   id="svg1"
   xml:space="preserve"
   xmlns="http://www.w3.org/2000/svg"
   xmlns:svg="http://www.w3.org/2000/svg"><defs
     id="defs1" /><path
     style="fill:#000000;stroke-width:0.605489"
     d="m 230.21936,499.44654 c -20.78124,-1.07335 -38.71054,-4.53759 -55.03372,-10.63344 -10.80876,-4.0365 -15.73862,-6.86256 -29.56815,-16.95006 -9.63042,-7.02461 -24.38581,-16.75511 -39.82616,-26.26349 -11.523333,-7.09624 -15.86394,-10.89791 -17.583375,-15.40019 l -1.143265,-2.99359 2.2524,-13.34815 c 4.384775,-25.98507 7.50195,-50.40233 8.081162,-63.30101 0.57373,-12.77643 -2.068854,-32.29225 -5.563151,-41.08469 -0.840913,-2.11591 -3.855624,-7.8179 -6.699352,-12.67108 -2.843739,-4.85319 -6.136643,-10.74261 -7.317574,-13.08762 -6.097632,-12.10828 -16.067733,-43.65883 -20.780019,-65.75874 -5.253963,-24.64025 -7.665142,-41.07873 -6.97317,-47.54032 0.723872,-6.75935 2.204028,-9.17141 13.982634,-22.78604 8.441134,-9.75692 11.155475,-13.72585 15.881307,-23.22172 4.350979,-8.74269 7.052784,-16.92068 8.579521,-25.969057 1.838879,-10.89834 2.048252,-15.104249 2.098159,-42.148476 0.04261,-23.105264 0.153488,-25.926884 1.085349,-27.629007 1.619392,-2.95791 4.405415,-4.924146 8.854734,-6.249203 11.56424,-3.443981 57.87818,-13.9453405 63.37161,-14.3690621 2.981,-0.2299362 4.11551,-0.027838 6.32218,1.1263049 1.4791,0.7735976 3.20997,2.1220022 3.8464,2.9964542 0.63642,0.874451 1.94694,5.09774 2.91226,9.385083 5.665,25.16057 12.2625,36.304919 27.69813,46.787059 19.67997,13.364412 45.18177,15.329733 67.18448,5.177659 12.45253,-5.745621 22.49258,-15.244762 29.08558,-27.5186 3.1583,-5.879651 5.1051,-11.794871 7.06086,-21.45402 2.05067,-10.127918 3.54956,-13.052633 7.86788,-15.3521946 4.19272,-2.2326946 14.9181,-0.411557 50.8611,8.6360346 22.08826,5.560063 23.83054,6.25602 26.76866,10.692714 1.53161,2.312804 1.68528,3.03575 1.64597,7.743622 -0.0238,2.855969 -0.12071,13.63925 -0.21526,23.96284 -0.22002,24.022958 1.52273,41.027169 5.49198,53.585779 3.30961,10.47154 11.73002,23.97846 22.27078,35.72387 10.97227,12.22623 12.76348,15.56634 12.75693,23.78816 -0.01,12.12097 -6.66329,46.21379 -13.61449,69.75992 -3.98613,13.50243 -9.5509,29.59474 -12.24871,35.42112 -1.31069,2.83065 -5.18026,10.01895 -8.59905,15.97397 -8.53404,14.86505 -10.43779,20.34281 -12.43164,35.7702 -2.15015,16.63679 -0.54701,36.09332 6.44469,78.21655 l 3.12935,18.85346 -1.09672,2.94415 c -1.70215,4.56947 -6.48752,8.72856 -19.25689,16.73668 -13.52054,8.4792 -26.97308,17.4362 -39.80635,26.50391 -29.68661,20.97594 -60.47502,28.38736 -107.77706,25.94422 z m 21.84773,-18.09166 c 24.52977,-1.10435 42.68714,-4.91784 57.77409,-12.13397 3.33019,-1.59284 11.09559,-6.36871 17.25644,-10.61303 15.04385,-10.364 30.3099,-20.51202 42.24192,-28.08009 5.41654,-3.43553 9.96658,-6.43788 10.1112,-6.67189 0.14463,-0.23401 -0.94073,-7.15107 -2.41192,-15.37124 -2.6216,-14.6481 -5.58145,-34.52504 -6.98468,-46.90572 -0.93301,-8.23206 -0.42271,-29.91178 0.9008,-38.26934 2.20547,-13.92703 4.48413,-20.21009 11.87329,-32.7388 7.26989,-12.32652 11.33234,-21.60781 18.01045,-41.14768 2.91992,-8.54354 8.20675,-26.62473 7.78492,-26.62473 -0.0537,0 -1.95702,1.77888 -4.22961,3.95307 -8.43675,8.0714 -27.87948,15.48897 -49.14112,18.74773 -15.00482,2.29979 -41.84996,2.31508 -58.04895,0.0331 -12.13688,-1.70976 -23.2329,-5.11505 -31.6618,-9.71679 -5.85054,-3.19406 -15.58673,-10.41054 -19.30536,-14.30914 -1.86333,-1.95351 -3.54267,-3.55184 -3.73184,-3.55184 -0.18918,0 -2.49314,2.0533 -5.1199,4.5629 -8.91178,8.51427 -20.99245,15.3651 -34.10993,19.34342 -8.45222,2.56342 -14.43968,3.53132 -30.27446,4.89395 -9.76246,0.8401 -13.29197,0.88509 -23.31133,0.29714 -14.62603,-0.85827 -24.62883,-2.035 -33.85208,-3.98237 -15.41242,-3.25415 -28.562261,-9.19045 -36.369328,-16.41841 -2.006553,-1.85772 -3.648281,-3.18115 -3.648281,-2.94096 0,1.69822 12.31732,37.20165 16.053995,46.27403 2.425069,5.88787 7.271737,15.32905 10.865004,21.16469 9.84128,15.98273 12.98178,28.72242 13.02441,52.83458 0.0273,15.41455 -1.83446,31.05999 -7.57498,63.65844 -1.51182,8.5851 -2.60095,15.84843 -2.4203,16.14073 0.18065,0.2923 4.48314,3.0642 9.5611,6.15979 10.94428,6.67176 31.52847,20.40369 38.15664,25.45472 17.82899,13.58664 32.21492,19.83225 54.02803,23.45617 7.17846,1.19259 17.76675,2.33837 24.82505,2.68636 1.99812,0.0985 4.45035,0.22348 5.4494,0.27771 0.99907,0.0542 7.42467,-0.1539 14.27913,-0.46249 z m -42.49783,-11.82213 c -14.60867,-2.91112 -27.83573,-13.52593 -38.06681,-30.54886 -6.15783,-10.24568 -8.81438,-20.06657 -8.3699,-30.9423 0.22754,-5.56738 0.50364,-6.91193 2.13543,-10.39898 l 1.8741,-4.00487 -1.22959,-1.10531 c -0.67628,-0.60792 -2.39127,-2.74013 -3.81109,-4.73824 -8.33934,-11.73596 -11.74335,-26.56272 -8.86099,-38.59564 1.22727,-5.12349 3.26474,-9.94289 5.60888,-13.26716 1.53951,-2.1832 1.45971,-2.48282 -1.01643,-3.8163 -3.10764,-1.67358 -6.18869,-5.3465 -8.33971,-9.94177 -1.70426,-3.64085 -1.89973,-4.68485 -2.12136,-11.33 -0.40326,-12.0903 1.71229,-23.88534 5.80046,-32.33992 2.71078,-5.60605 9.55059,-12.70141 15.32419,-15.89672 3.52972,-1.95347 13.07841,-5.37824 19.84117,-7.1163 8.63088,-2.21819 35.74113,-3.80363 42.78997,-2.50241 1.99812,0.36885 5.45287,1.6117 7.67724,2.76191 3.25144,1.68129 4.17309,1.93606 4.70133,1.29958 0.36136,-0.43542 2.35602,-1.5764 4.43255,-2.53551 l 3.77552,-1.74384 13.01801,0.0233 c 22.86798,0.0409 35.31099,2.46317 49.65012,9.66541 9.87214,4.95857 15.47229,10.30443 19.31751,18.44036 3.30127,6.98502 3.99382,11.5044 3.99382,26.06226 0,12.06402 -0.0959,13.22548 -1.30839,15.84908 -1.58998,3.44037 -5.45634,7.74688 -8.35804,9.30954 -1.17733,0.63403 -2.1406,1.35534 -2.1406,1.60289 0,0.24756 0.8216,1.61606 1.82579,3.04112 4.38215,6.21884 6.36242,17.51973 4.86479,27.76211 -1.55976,10.66722 -5.34071,18.99956 -11.4389,25.20866 l -3.23458,3.29342 1.26216,2.93397 c 8.33489,19.375 -0.91214,46.46029 -21.05972,61.68557 -11.55982,8.73562 -21.7727,12.80031 -32.13882,12.79114 -9.52592,-0.009 -16.46413,-1.7066 -21.41685,-5.24189 l -2.92527,-2.08809 -1.91864,1.4607 c -3.01934,2.29868 -6.70617,3.98686 -10.83055,4.95925 -4.61146,1.08722 -13.86103,1.08908 -19.3068,0.004 z m 18.85979,-18.80704 c 1.15635,-0.66592 2.63499,-2.28168 3.30403,-3.61044 1.12487,-2.2341 1.21097,-3.61046 1.21097,-19.3588 0,-9.32453 -0.21338,-18.1968 -0.47417,-19.71614 -0.28467,-1.65838 -1.20978,-3.65487 -2.31467,-4.99529 l -1.84049,-2.23284 h -22.29194 c -26.28314,0 -24.91776,-0.3364 -25.33669,6.24264 -0.3671,5.7652 1.19657,11.851 5.02262,19.54804 6.92919,13.9398 15.63079,22.08211 26.5566,24.84976 4.65599,1.17941 13.54775,0.77952 16.16374,-0.72693 z m 44.94673,-0.20568 c 5.99392,-2.08089 10.85737,-5.04367 15.49623,-9.44016 8.55446,-8.10749 13.34537,-16.67334 15.01525,-26.84629 0.85255,-5.19378 0.87035,-6.31041 0.1368,-8.58243 -0.4746,-1.46998 -1.57834,-3.15568 -2.52465,-3.85578 -1.63244,-1.20772 -2.3025,-1.23895 -23.0086,-1.07228 -23.84621,0.19193 -23.25691,0.0863 -24.93176,4.47173 -0.87069,2.2799 -0.97573,5.2022 -0.81654,22.71807 l 0.18269,20.1016 1.58823,1.58742 c 0.87353,0.87307 2.50836,1.82273 3.63295,2.11034 3.13782,0.80251 11.3312,0.16111 15.2294,-1.19222 z m -45.98479,-68.6984 c 1.08718,-0.45425 2.72539,-1.7157 3.64048,-2.80323 l 1.6638,-1.97731 -0.17835,-16.55964 -0.17836,-16.55962 -1.67833,-1.6779 -1.67835,-1.67789 -25.34227,-0.17028 -25.34228,-0.17027 -2.662,2.59222 c -6.07295,5.91379 -7.44709,14.87856 -3.77581,24.6333 3.1869,8.46777 7.5005,13.23042 13.25088,14.63034 0.99907,0.24323 10.47616,0.47011 21.06021,0.50421 14.99567,0.0483 19.68007,-0.12034 21.22038,-0.76393 z m 74.67388,-0.46707 c 2.2408,-0.68019 6.84395,-5.39248 8.56719,-8.7703 2.20893,-4.32989 3.98293,-11.24709 4.01873,-15.67002 0.0538,-6.63899 -2.8101,-12.84271 -7.15032,-15.48926 -1.78228,-1.08678 -3.33084,-1.1573 -25.4586,-1.15942 l -23.56087,-0.002 -2.55102,1.49499 c -1.40306,0.82225 -2.7175,2.11648 -2.92099,2.87607 -0.49677,1.85428 -0.40963,18.50107 0.14107,26.94748 0.39113,5.99921 0.61304,6.9771 1.89222,8.33874 0.79702,0.84839 2.28154,1.77669 3.29896,2.06294 2.42373,0.6819 41.24497,0.12347 43.72363,-0.62894 z m -72.576,-61.96838 c 3.12937,-2.63319 3.21601,-3.33113 3.02565,-24.37327 -0.16785,-18.55442 -0.23346,-19.5273 -1.42435,-21.12134 -2.94265,-3.93879 -3.3806,-4.04741 -13.35126,-3.31154 -21.32371,1.57379 -27.82183,2.60556 -36.1485,5.73972 -11.39276,4.28821 -15.5411,10.75411 -16.79333,26.17523 -0.70101,8.63289 -0.22432,11.66116 2.25066,14.29729 3.84317,4.09344 3.62824,4.06734 33.60756,4.08207 l 27.04918,0.0133 z m 84.45881,0.68579 c 1.07161,-0.44863 2.97016,-1.94799 4.21898,-3.33194 l 2.27058,-2.51626 v -8.23634 c 0,-12.77573 -1.74772,-17.8724 -8.12847,-23.70404 -7.28714,-6.66004 -20.23621,-9.94628 -45.76006,-11.61308 l -8.7796,-0.57334 -1.97376,1.90577 c -1.08557,1.04818 -2.24204,2.87151 -2.56995,4.05184 -0.79569,2.86418 -0.77549,36.61889 0.0236,39.49611 0.34091,1.22742 1.45017,2.93035 2.46504,3.7843 l 1.84523,1.55264 h 27.22 c 21.45484,0 27.63267,-0.17275 29.1684,-0.81566 z M 173.9958,228.24693 c 9.88965,-0.71315 23.27057,-3.0901 28.52108,-5.06638 9.08895,-3.42107 17.21709,-8.68258 24.00712,-15.54028 7.20821,-7.28005 6.72265,-4.23978 6.72374,-42.10041 8.5e-4,-29.89407 0.0905,-32.83225 1.05961,-34.73278 2.2798,-4.47097 7.97689,-6.17007 12.66644,-3.77764 4.98987,2.54564 4.70229,0.32737 5.04317,38.90103 l 0.30275,34.25822 2.67987,3.54862 c 13.58509,17.98908 33.66512,25.12 70.71847,25.11391 25.96052,-0.004 44.41104,-3.32619 58.97447,-10.61803 12.46572,-6.24153 23.76667,-18.42798 28.1582,-30.36461 1.57563,-4.2827 1.7401,-5.45394 1.7401,-12.39213 0,-7.63827 -0.006,-7.66907 -1.81647,-9.78565 -0.99906,-1.16779 -4.62031,-5.34888 -8.04723,-9.2913 -10.11659,-11.63843 -15.84301,-20.67496 -19.69836,-31.08488 -3.74291,-10.10629 -6.35346,-22.24451 -7.74818,-36.02659 -0.7379,-7.291624 -1.0802,-35.272852 -0.55474,-45.346266 l 0.28084,-5.38399 -12.39063,-2.927241 c -36.89889,-8.71724 -38.34617,-9.024816 -38.83598,-8.25343 -0.26421,0.416085 -0.48455,1.169634 -0.48964,1.674552 -0.005,0.504917 -0.96272,4.703676 -2.12806,9.33058 -4.58947,18.222387 -12.95323,30.798339 -27.99373,42.092096 -10.56348,7.932021 -19.87997,12.139065 -34.41969,15.542881 -6.56292,1.536413 -8.29021,1.692455 -19.0253,1.718749 -9.20011,0.0225 -12.9434,-0.213835 -16.9537,-1.070516 -23.87163,-5.099484 -43.56442,-18.63505 -54.59801,-37.527187 -3.0708,-5.257939 -6.63717,-14.720529 -8.37643,-22.225044 -2.41349,-10.413747 -2.41681,-10.423481 -3.41921,-10.038827 -0.5098,0.195626 -7.91797,1.97616 -16.46262,3.956754 -19.64808,4.554269 -28.28431,6.590633 -31.00455,7.310662 l -2.14806,0.568572 0.25351,18.023358 c 0.26762,19.025672 -0.47063,34.72737 -2.08575,44.361327 -1.17496,7.00841 -4.44959,18.54126 -7.171137,25.25577 -3.886645,9.58904 -13.621871,24.23642 -22.958515,34.54283 -5.920597,6.53555 -6.137501,7.08229 -6.062721,15.28207 0.07941,8.70733 1.807409,14.56293 6.351869,21.52434 11.674883,17.88412 30.559734,27.29913 61.096684,30.45963 7.2307,0.74836 26.00833,0.79411 35.81079,0.0872 z"
     id="path29" /><path
     style="fill:#ffffff;stroke:none;stroke-width:0.159275;stroke-linecap:round;stroke-linejoin:round;stroke-dasharray:none"
     d="m 141.34577,228.22946 c -8.60048,-0.65002 -20.16911,-2.73646 -27.56547,-4.97152 -16.88626,-5.10276 -27.96583,-12.93877 -36.470794,-25.79393 -4.54631,-6.87169 -6.225596,-12.89548 -6.210514,-22.2778 0.01137,-7.07461 0.214781,-7.57973 5.507603,-13.67677 14.050951,-16.18592 22.030701,-29.4453 26.437775,-43.92977 5.12264,-16.83626 6.10068,-26.210849 6.05244,-58.012873 l -0.0314,-20.695921 4.3579,-1.091986 c 2.39685,-0.600592 10.03518,-2.411497 16.97408,-4.024232 6.9389,-1.612735 16.15656,-3.791188 20.48369,-4.841006 6.43678,-1.561644 7.93209,-1.805177 8.22259,-1.339171 0.19528,0.313274 1.02687,3.383996 1.84797,6.823826 4.27474,17.90831 9.93831,28.830591 20.47727,39.490683 10.34964,10.468606 23.62874,17.905274 39.20509,21.955948 6.27098,1.63078 11.07034,2.115596 20.98805,2.120136 9.80297,0.0045 13.79318,-0.426535 21.21399,-2.291553 15.2057,-3.821531 25.40625,-8.949117 36.83352,-18.515387 9.73045,-8.145769 17.06444,-18.631974 21.15762,-30.251351 1.3802,-3.917978 4.60165,-16.244675 4.60165,-17.607926 0,-0.432812 0.23454,-1.088856 0.52119,-1.457877 0.47527,-0.611833 1.01711,-0.567269 6.15,0.50581 5.08241,1.062525 39.37304,9.05987 42.96382,10.020126 l 1.47736,0.395083 -0.16621,16.372393 c -0.34364,33.847775 1.60495,50.534558 8.07106,69.116468 3.93528,11.30896 9.40122,19.87593 22.07998,34.60678 3.45408,4.01313 6.60254,7.76052 6.99656,8.32752 0.60942,0.87694 0.71642,2.10024 0.71642,8.19082 0,6.10437 -0.12974,7.58131 -0.88007,10.01825 -3.57108,11.5983 -13.48164,23.58738 -25.3197,30.62993 -9.89963,5.88936 -21.58041,9.34531 -38.85217,11.49504 -8.8291,1.09891 -37.62457,1.09932 -46.06502,6.5e-4 -23.08159,-3.00445 -36.36904,-9.53643 -47.34082,-23.27223 l -3.20985,-4.01849 -0.29648,-29.75439 c -0.32602,-32.72016 -0.59228,-38.86244 -1.77429,-40.9304 -1.18455,-2.07241 -4.62411,-3.62662 -8.01519,-3.62178 -2.25998,0.003 -3.11102,0.21693 -4.86083,1.22056 -1.16665,0.66916 -2.41784,1.66941 -2.78042,2.22277 -1.55454,2.37253 -1.64573,4.07543 -1.95885,36.57988 -0.27772,28.82853 -0.37816,32.11719 -1.04423,34.18978 -0.60685,1.88833 -1.40952,2.98266 -4.54664,6.19875 -6.58263,6.7483 -11.98462,10.64063 -20.16279,14.528 -6.49058,3.0852 -14.20007,4.95826 -27.21809,6.61277 -4.96448,0.63095 -32.9566,1.17849 -38.5678,0.75439 z"
     id="path30" /><path
     style="fill:#ffffff;stroke:none;stroke-width:0.159275;stroke-linecap:round;stroke-linejoin:round;stroke-dasharray:none"
     d="m 231.40679,481.30477 c -27.88815,-2.19633 -43.70114,-5.93875 -58.99438,-13.96207 -5.74738,-3.01526 -10.54979,-6.12654 -19.18359,-12.42824 -8.07365,-5.89287 -25.6439,-17.61878 -37.83813,-25.25217 -8.1338,-5.09163 -9.27646,-5.9374 -9.27172,-6.86276 0.006,-1.23305 0.75792,-6.01211 3.90369,-24.82154 5.26079,-31.45567 6.57209,-45.90061 5.69859,-62.77379 -0.9979,-19.27605 -3.89116,-29.34856 -12.60428,-43.88028 -3.463982,-5.7772 -9.90436,-18.47071 -11.572563,-22.80865 -4.903145,-12.74997 -15.201264,-42.65314 -14.949299,-43.40904 0.08781,-0.26344 1.277297,0.50475 2.643296,1.7071 15.033926,13.23278 42.867786,20.41378 79.827706,20.59514 9.34071,0.0458 13.71453,-0.23504 26.05933,-1.67344 20.68914,-2.41066 38.46969,-10.1769 52.04365,-22.73178 5.65649,-5.23183 4.71549,-5.10586 8.9733,-1.20123 16.70813,15.32221 31.90372,21.88583 57.18814,24.70198 3.17127,0.35321 11.00712,0.53432 23.14068,0.53484 20.17895,8.6e-4 24.59616,-0.32934 36.51935,-2.72997 18.63138,-3.75127 33.69361,-10.18418 42.38828,-18.10356 1.44009,-1.31168 2.60593,-2.10579 2.60593,-1.77501 0,1.1357 -4.96426,17.63281 -7.93357,26.36463 -5.62796,16.55008 -10.23245,27.07974 -16.95637,38.77627 -7.97592,13.87443 -10.51806,20.94013 -12.42722,34.54054 -0.82072,5.84663 -1.54272,23.77959 -1.2281,30.50354 0.43202,9.23319 2.89057,27.25502 7.26721,53.27066 1.37971,8.20124 2.50856,15.14605 2.50856,15.43292 0,0.28687 -4.36233,3.33205 -9.69407,6.76708 -12.69394,8.1782 -27.53503,18.02036 -38.67204,25.64611 -10.77998,7.38129 -19.5891,12.7306 -24.03302,14.59396 -15.55703,6.52317 -31.25825,9.60344 -55.18732,10.82669 -7.60201,0.38861 -16.38034,0.45463 -20.22204,0.15207 z m -3.33559,-11.4557 c 3.4739,-0.60398 7.41233,-2.22465 10.75677,-4.42643 l 2.83474,-1.86622 2.1901,1.45414 c 4.91937,3.26628 8.86117,4.55641 16.31044,5.33831 10.53932,1.10625 20.17167,-1.18037 30.16275,-7.16031 16.7055,-9.99872 27.76264,-25.01946 31.21969,-42.41086 0.49728,-2.50169 0.70859,-5.4878 0.684,-9.66581 -0.0382,-6.49704 -0.62768,-9.63377 -2.85795,-15.20856 l -1.10131,-2.75284 2.7892,-2.9567 c 6.80022,-7.20859 10.54694,-15.85646 11.89547,-27.45618 1.1003,-9.46439 -0.8751,-19.67745 -5.0444,-26.08022 -0.90639,-1.39192 -1.64797,-2.65141 -1.64797,-2.79887 0,-0.14746 1.10499,-1.01848 2.45553,-1.93562 3.16684,-2.15056 5.99024,-5.38069 7.67286,-8.77819 l 1.33772,-2.70107 0.14787,-9.68056 c 0.15874,-10.39153 -0.35604,-18.71258 -1.42709,-23.06815 -0.994,-4.04222 -4.74934,-11.44206 -7.46997,-14.71942 -6.95971,-8.38393 -22.9818,-16.08421 -38.78302,-18.63928 -7.66332,-1.23917 -14.66623,-1.66503 -27.37997,-1.66503 h -11.62329 l -3.43058,1.71371 c -1.88681,0.94253 -3.74481,1.9908 -4.12889,2.32947 -0.62381,0.55008 -1.09438,0.43743 -4.41081,-1.05588 -6.85527,-3.08676 -7.50765,-3.19984 -18.24003,-3.16162 -21.01736,0.0748 -33.83469,2.12534 -47.39414,7.58205 -5.52804,2.22465 -8.1631,3.899 -12.41233,7.88697 -7.65835,7.18747 -11.10935,14.49316 -13.18704,27.91663 -1.00396,6.48632 -1.00729,19.46035 -0.006,22.85731 1.60448,5.44263 5.12839,10.5594 8.95104,12.99704 1.39207,0.88769 2.53493,1.8588 2.53969,2.15801 0.005,0.29922 -0.74153,1.78785 -1.65842,3.30808 -3.87595,6.4264 -5.56043,12.67551 -5.59271,20.7479 -0.0342,8.56194 1.29129,14.12213 5.37268,22.53684 2.14943,4.43155 6.03066,10.17611 8.24748,12.207 l 1.05985,0.97096 -1.67905,3.58299 c -1.47703,3.15191 -1.73234,4.15652 -2.12206,8.34992 -1.28339,13.80949 2.65111,26.17911 12.93556,40.66794 5.67904,8.0007 16.01659,16.86338 23.68092,20.30237 8.06172,3.61729 19.08105,4.89214 28.35254,3.28018 z"
     id="path31" /><path
     style="fill:#ffffff;stroke:none;stroke-width:0.159275;stroke-linecap:round;stroke-linejoin:round;stroke-dasharray:none"
     d="m 175.11866,320.22994 c -3.73311,-0.43258 -5.2826,-1.0875 -7.19542,-3.0413 -2.55957,-2.61443 -3.01984,-4.07485 -3.01984,-9.58193 0,-16.42828 4.02033,-25.05538 13.84045,-29.6998 2.13394,-1.00924 5.56853,-2.32356 7.63243,-2.92072 7.03722,-2.0361 20.87363,-3.75397 34.30856,-4.25961 l 6.78992,-0.25554 2.03975,2.11621 c 1.62218,1.68298 2.09817,2.50575 2.32511,4.01907 0.15694,1.04658 0.31139,9.92682 0.34321,19.73388 0.0656,20.22358 0.0158,20.59949 -3.05528,23.0318 l -1.5933,1.26192 -24.95695,-0.0571 c -13.72632,-0.0314 -26.08271,-0.1875 -27.45864,-0.34693 z"
     id="path32" /><path
     style="fill:#ffffff;stroke:none;stroke-width:0.159275;stroke-linecap:round;stroke-linejoin:round;stroke-dasharray:none"
     d="m 256.17447,319.30328 c -3.21107,-2.95293 -3.08632,-2.0039 -3.08632,-23.47784 0,-18.87616 0.0143,-19.20605 0.90281,-20.84746 0.49654,-0.91728 1.6223,-2.35062 2.50169,-3.18519 l 1.59889,-1.5174 8.13051,0.57126 c 27.17852,1.9096 39.1893,5.16167 46.74582,12.65699 5.58413,5.5389 6.80603,9.2988 7.25642,22.32858 l 0.27384,7.92204 -1.94741,2.19179 c -1.07108,1.2055 -2.82298,2.70651 -3.89313,3.3356 l -1.94571,1.14379 -27.51864,0.12869 -27.51865,0.12868 z"
     id="path33" /><path
     style="fill:#ffffff;stroke:none;stroke-width:0.159275;stroke-linecap:round;stroke-linejoin:round;stroke-dasharray:none"
     d="m 256.94603,381.00602 c -0.85936,-0.53715 -1.84266,-1.37668 -2.18512,-1.86561 -1.05937,-1.51246 -1.46943,-6.10509 -1.74387,-19.53148 -0.31367,-15.3452 -0.30168,-15.41462 3.03329,-17.54797 l 2.25044,-1.43959 23.90084,0.11729 23.90083,0.11729 1.71186,1.13314 c 4.62564,3.06186 7.33135,10.72114 6.34142,17.95116 -0.57152,4.17418 -2.15345,9.30876 -3.88315,12.60384 -1.70459,3.24725 -6.30687,7.90126 -8.45867,8.55374 -1.09668,0.33255 -8.26165,0.5516 -22.45795,0.6866 l -20.84746,0.19824 z"
     id="path34" /><path
     style="fill:#ffffff;stroke:none;stroke-width:0.159275;stroke-linecap:round;stroke-linejoin:round;stroke-dasharray:none"
     d="m 186.76267,381.96052 c -3.4418,-0.33427 -6.01203,-1.64701 -8.67554,-4.43102 -3.69457,-3.86172 -6.90206,-10.99706 -7.787,-17.32289 -0.89456,-6.39459 0.98008,-12.31542 5.42478,-17.13352 l 2.31239,-2.50666 25.22542,0.0541 25.22543,0.0541 1.78842,1.78036 1.78842,1.78036 0.25942,16.36323 0.25943,16.36323 -1.83937,1.88986 c -3.37528,3.46795 -2.0663,3.2753 -22.68683,3.33883 -10.09017,0.0311 -19.67291,-0.0724 -21.29497,-0.22992 z"
     id="path35" /><path
     style="fill:#ffffff;stroke:none;stroke-width:0.159275;stroke-linecap:round;stroke-linejoin:round;stroke-dasharray:none"
     d="m 213.75235,451.50513 c -5.83542,-0.97014 -11.4834,-4.19831 -16.98554,-9.70829 -4.80393,-4.81076 -7.54324,-8.757 -11.02546,-15.88325 -3.60086,-7.36903 -4.68796,-11.36171 -4.73753,-17.39991 -0.0473,-5.76614 0.24636,-6.29623 3.86903,-6.98325 1.33419,-0.25303 10.56529,-0.42532 22.78769,-0.42532 h 20.54501 l 1.09936,1.30652 c 2.57858,3.06447 2.84308,4.11159 3.25079,12.86975 0.20818,4.47178 0.29507,12.86056 0.1931,18.64174 -0.18401,10.43285 -0.1939,10.5286 -1.32595,12.84245 -0.7316,1.49533 -1.68647,2.68991 -2.66306,3.33157 -2.55985,1.68194 -9.46364,2.32965 -15.00744,1.40799 z"
     id="path36" /><path
     style="fill:#ffffff;stroke:none;stroke-width:0.159275;stroke-linecap:round;stroke-linejoin:round;stroke-dasharray:none"
     d="m 258.92544,451.6065 c -1.85983,-0.48766 -3.62307,-1.50056 -4.79492,-2.75445 l -1.04237,-1.11535 v -20.50139 -20.50139 l 1.04237,-2.08474 c 0.66223,-1.32446 1.49855,-2.30355 2.29323,-2.68472 0.97656,-0.46841 4.77082,-0.67818 17.30339,-0.95665 17.36395,-0.38583 25.36912,-0.17322 27.09569,0.71962 1.79057,0.92594 3.3416,4.27059 3.3416,7.20584 0,17.4357 -15.58248,37.42668 -32.53779,41.7432 -3.52641,0.89775 -10.7946,1.42996 -12.7012,0.93003 z"
     id="path37" /></svg>
