<?xml version="1.0" encoding="UTF-8" standalone="no"?>
<!-- Created with Inkscape (http://www.inkscape.org/) -->

<svg
   width="505.08896"
   height="505.75937"
   viewBox="0 0 505.08896 505.75937"
   version="1.1"
   id="svg1"
   xml:space="preserve"
   sodipodi:docname="Template.svg"
   inkscape:version="1.4 (86a8ad7, 2024-10-11)"
   inkscape:export-filename="Suit-case.svg"
   inkscape:export-xdpi="96"
   inkscape:export-ydpi="96"
   xmlns:inkscape="http://www.inkscape.org/namespaces/inkscape"
   xmlns:sodipodi="http://sodipodi.sourceforge.net/DTD/sodipodi-0.dtd"
   xmlns="http://www.w3.org/2000/svg"
   xmlns:svg="http://www.w3.org/2000/svg"><sodipodi:namedview
     id="namedview1"
     pagecolor="#ffffff"
     bordercolor="#000000"
     borderopacity="0.25"
     inkscape:showpageshadow="2"
     inkscape:pageopacity="0.0"
     inkscape:pagecheckerboard="true"
     inkscape:deskcolor="#d1d1d1"
     inkscape:zoom="2"
     inkscape:cx="188.25"
     inkscape:cy="300.75"
     inkscape:window-width="2560"
     inkscape:window-height="1494"
     inkscape:window-x="585"
     inkscape:window-y="2149"
     inkscape:window-maximized="1"
     inkscape:current-layer="svg1"><inkscape:page
       x="0"
       y="0"
       width="505.08896"
       height="505.75937"
       id="page2"
       margin="0"
       bleed="0" /></sodipodi:namedview><defs
     id="defs1"><inkscape:path-effect
       effect="bspline"
       id="path-effect510"
       is_visible="true"
       lpeversion="1.3"
       weight="33.333333"
       steps="2"
       helper_size="0"
       apply_no_weight="true"
       apply_with_weight="true"
       only_selected="false"
       uniform="false" /></defs><path
     style="fill:#ffffff;stroke:none;stroke-width:12.3;stroke-linecap:round;stroke-linejoin:round;stroke-dasharray:none"
     d="m 147.75,505.5 c 21.25,0.16667 42.5,0.33333 53.79168,0.41667 C 212.83336,506 214.16667,506 215.5,506 c 0,0 12.75,-49.25 12.75,-49.25 0,0 35.75,-0.25 35.75,-0.25 0,0 11.5,49.25 11.5,49.25 0,0 69,-0.25 69,-0.25 0,0 1,-22.25 1,-22.25 0,0 -13.25,-61 -13.25,-61 0,0 -5.5,-11.75 -5.5,-11.75 0,0 -145.75,6.25 -145.75,6.25 0,0 -20.5,8 -20.5,8 0,0 -16.5,61 -16.5,61 z"
     id="path510"
     inkscape:path-effect="#path-effect510"
     inkscape:original-d="m 147.75,505.5 c 0,0 42.5,0.33333 63.75,0.5 1.33336,0 4,0 4,0 0,0 12.75,-49.25 12.75,-49.25 0,0 35.75,-0.25 35.75,-0.25 0,0 11.5,49.25 11.5,49.25 0,0 69,-0.25 69,-0.25 0,0 1,-22.25 1,-22.25 0,0 -13.25,-61 -13.25,-61 0,0 -5.5,-11.75 -5.5,-11.75 0,0 -145.75,6.25 -145.75,6.25 0,0 -20.5,8 -20.5,8 0,0 -16.5,61 -16.5,61 z" /><path
     id="path489"
     style="fill:#1a1a1a;fill-opacity:1;stroke-width:0.572456"
     d="m 244.09375,2.1191405 c -0.87017,0.1315813 -0.29496,0.2437535 1.2793,0.2480469 1.57425,0.0043 2.28611,-0.1043547 1.58203,-0.240234 -0.70409,-0.1358793 -1.99116,-0.1393948 -2.86133,-0.00781 z m 4.28516,0.03125 c -0.39357,0.1588067 -0.0703,0.2890622 0.71679,0.2890622 0.78713,0 1.10841,-0.1302555 0.71485,-0.2890622 -0.39357,-0.1588062 -1.03808,-0.1588062 -1.43164,0 z m 1.93554,0.4667966 C 243.04134,2.4258624 233.72754,3.0312416 229.26758,4.1621096 206.83393,9.8503905 188.64606,28.010334 182.93164,50.423828 180.933,58.263031 180.05448,69.799477 180.82422,78.125 c 0.58359,6.312165 0.55414,6.700891 -0.8125,10.560547 -2.98665,8.434817 -3.64008,10.993724 -3.72851,14.597653 -0.25917,10.5621 6.10134,17.35679 17.77734,18.99024 l 4.78906,0.66992 -0.38477,4.62304 c -0.55335,6.66086 -2.0204,20.86193 -2.41406,23.36133 -0.30315,1.92484 -0.54009,2.16532 -2.41211,2.4668 -1.14156,0.18385 -6.71159,1.25742 -12.3789,2.38477 -14.10038,2.80484 -13.19199,2.7592 -20.42969,1.01367 -6.23955,-1.5048 -6.85297,-1.54745 -16.78125,-1.18359 -10.88649,0.39896 -21.26359,1.50826 -23.91602,2.55664 -0.87453,0.34566 -2.90167,1.85543 -4.50585,3.35546 -7.16458,6.69942 -26.781747,32.14994 -27.748053,36.00001 -0.354012,1.41051 0.439572,2.99743 4.080077,8.15234 1.619272,2.29286 2.572269,4.25562 2.572269,5.30078 0,0.91308 -0.754085,4.55548 -1.675785,8.09375 -0.9217,3.53827 -3.896142,15.01716 -6.611329,25.50781 -2.715188,10.49065 -5.154583,19.63572 -5.419922,20.32227 -0.619014,1.60166 -1.914872,2.72058 -8.904296,7.6875 -6.693454,4.7566 -9.046924,7.05329 -10.298828,10.05469 -0.609282,1.46074 -1.22201,6.49624 -1.853515,15.21875 -0.905706,12.50977 -0.900783,13.24133 0.117187,18.13867 1.606615,7.72926 1.633996,9.06975 0.378909,18.00976 -0.63897,4.55144 -1.321343,9.94957 -1.517581,11.9961 -0.196244,2.04653 -0.968103,8.10066 -1.714843,13.45312 -0.746741,5.35246 -1.90846,13.85301 -2.580077,18.89063 -2.393221,17.95095 -5.671505,40.09895 -6.189452,41.8164 -0.289514,0.95996 -0.401309,3.03474 -0.250003,4.60938 0.267772,2.78675 -0.113701,5.98022 -1.837887,15.39844 -2.659545,14.52745 -3.249232,19.25425 -2.625003,21.04492 0.344928,0.98945 2.643144,4.90168 5.107424,8.69531 2.46428,3.79364 7.497972,11.58836 11.185545,17.32031 3.687578,5.73195 7.41721,11.18205 8.287108,12.11329 2.520112,2.69779 4.535901,2.9402 20.720704,2.47655 16.617941,-0.47606 16.957441,-0.56723 18.935551,-5.03906 1.69282,-3.82692 1.03516,-6.8802 -2.4668,-11.44921 l -2.80469,-3.66016 4.16602,-2.65625 c 2.29177,-1.46067 4.58831,-3.1798 5.10352,-3.82031 0.51507,-0.64035 0.93729,-3.6038 1.24023,-8.41993 0.053,0.19035 0.0624,0.54111 0.17187,0.43165 0.1902,-0.19023 0.21225,-0.68442 0.0469,-1.09766 -0.0761,-0.19029 -0.13799,-0.21801 -0.19336,-0.20703 0.26223,-4.48114 0.41697,-10.52327 0.46289,-17.65625 0.0166,0.44533 0.0952,0.8052 0.25781,0.64258 0.1902,-0.19022 0.21029,-0.68443 0.0449,-1.09766 -0.13913,-0.34771 -0.23344,-0.24961 -0.29101,0.0625 0.002,-0.34491 0.0201,-0.49745 0.0215,-0.84766 0.007,-1.6652 -0.0296,-2.7567 -0.0566,-3.9707 -0.004,0.53086 0.10341,0.87901 0.28125,0.70117 0.1902,-0.19022 0.21029,-0.68441 0.0449,-1.09765 -0.16865,-0.42147 -0.28771,-0.28372 -0.32812,0.25586 -0.14613,-6.04095 -0.96653,-7.54953 -5.19922,-12.16993 -2.24434,-2.44992 -3.41219,-4.21006 -3.41797,-5.15234 -0.0218,-3.55132 2.88561,-13.53944 11.38867,-39.14258 5.03175,-15.15084 9.29619,-28.19139 9.47657,-28.97852 0.18037,-0.78712 -0.84066,-6.96898 -2.26758,-13.73828 -1.42692,-6.76929 -2.59537,-12.91349 -2.59766,-13.65234 -0.002,-0.84594 1.25656,-2.71898 3.40039,-5.05859 2.80106,-3.05686 3.50404,-4.23818 3.9707,-6.66992 1.34911,-7.03007 4.64649,-28.36063 4.64649,-30.06055 0,-2.22986 -0.72477,-3.69396 -5.18359,-10.48438 -1.87255,-2.85173 -3.4043,-5.78239 -3.4043,-6.51171 0,-1.28215 5.15152,-27.2639 8.36914,-42.21289 l 1.57422,-7.31641 2.65625,-2.47852 c -0.23282,0.22226 -0.57813,0.50954 -0.57813,0.57813 0,0.47115 0.47091,0.16841 1.21875,-0.78516 0.65203,-0.8314 0.59965,-0.83872 -0.0957,-0.30078 l 4.56445,-4.25977 c 1.49137,-1.39166 2.08113,-1.94175 3.47461,-3.24218 0.002,0.4661 0.47083,0.16602 1.2168,-0.78516 0.56703,-0.72302 0.51442,-0.74428 0.0742,-0.41992 1.91243,-1.78479 4.55938,-4.25326 5.18554,-4.83789 2.11342,-1.97323 2.21222,-2.00455 3.00587,-0.92969 1.20292,1.62915 1.08944,1.97814 -2.00782,6.22656 -3.55292,4.87345 -4.47284,8.52988 -3.47461,13.82031 0.66929,3.54708 0.65897,3.61147 -1.375,7.6504 -4.97064,9.87037 -6.44816,16.52279 -4.47265,20.13671 0.60238,1.10198 1.89748,2.51874 2.8789,3.14844 2.11747,1.35861 2.2381,2.02844 0.625,3.48828 -2.50173,2.26404 -3.96961,5.6982 -4.53515,10.61719 -1.15751,10.06773 -0.62539,15.57091 2.17578,22.54492 1.36562,3.39997 1.66361,6.18783 2.44726,22.88477 0.80428,17.13622 1.33598,18.17297 12.09961,23.57422 7.75381,3.8909 10.15519,4.34507 21.64649,4.0957 11.39772,-0.24734 10.08595,0.30858 25.75976,-10.93164 12.71284,-9.11681 14.6798,-10.25726 15.48242,-8.98828 1.35504,2.14237 0.63044,3.69284 -2.65429,5.68359 -1.76079,1.06716 -3.39962,2.47462 -3.64063,3.12695 -0.24101,0.65235 -0.60976,7.23968 -0.82031,14.63868 -0.19215,6.75219 -0.38256,11.14585 -0.60547,14.12695 -0.14099,-0.23267 -0.25021,-0.14006 -0.27344,0.42383 -0.017,0.41359 0.10749,0.43403 0.20703,0.51367 -0.22698,2.62848 -0.4885,3.82617 -0.82812,3.82617 -0.39138,0 -4.33786,-3.14556 -11.67383,-9.30469 -4.96678,-4.1701 -5.87737,-4.43828 -14.91992,-4.39843 -11.04449,0.0486 -15.94797,0.60189 -17.89844,2.01953 -2.06902,1.5038 -22.49117,28.68613 -24.42773,32.51367 -2.59571,5.13032 -2.40853,5.64652 6.125,16.95312 1.78222,2.36139 3.24588,4.72919 3.25195,5.26172 0.006,0.53253 -1.24974,6.06988 -2.79102,12.30665 -4.90457,19.84623 -8.596,35.22575 -9.72656,40.53515 -0.60338,2.83366 -2.55924,11.17816 -4.34765,18.54297 l -3.25196,13.39062 1.23047,6.93165 c 0.25684,1.44797 0.80922,4.44502 1.22852,6.76367 h 17.51172 c -1.11993,-6.55634 -2.13511,-12.82478 -2.13672,-13.6543 -0.002,-1.214 1.84156,-9.67792 4.09766,-18.80859 7.51031,-30.39516 11.84156,-47.32399 12.19726,-47.67969 0.19358,-0.19358 1.67227,0.96914 3.28711,2.58398 l 2.93554,2.93555 -1.26562,11.44336 c -1.41581,12.78833 -1.35001,13.32744 2.22852,17.8457 l 1.74023,2.19727 -2.33008,15.92773 c -1.64324,11.22581 -2.61887,18.97611 -3.69335,27.20899 h 16.59765 c 1.76195,-14.43513 3.76844,-31.09536 4.06836,-31.87695 0.14645,-0.38166 0.25832,-0.57736 0.40234,-0.59376 0.14402,-0.0164 0.3208,0.14656 0.59375,0.48047 0.35633,0.43589 2.77976,2.50549 5.38672,4.59766 5.47277,4.39208 6.40173,4.57082 10.80469,2.08594 1.67365,-0.94455 3.20511,-1.7168 3.40234,-1.7168 0.66773,0 -0.39618,4.25075 -4.72461,18.89062 -0.86472,2.92473 -1.48773,5.0502 -2.39648,8.13282 h 17.40039 c 2.09022,-7.50734 4.60609,-16.56445 6.58008,-23.76172 2.4872,-9.06849 4.67304,-16.73293 4.85742,-17.03125 0.19381,-0.3136 5.38457,-0.54297 12.30469,-0.54297 h 11.96875 l 1.42773,4.72266 c 0.78538,2.59752 4.76899,16.70123 8.85156,31.34179 0.51498,1.84675 0.92852,3.32157 1.47266,5.27149 h 17.18359 c -0.75279,-2.59826 -0.89009,-3.21819 -1.74023,-6.12891 -4.83905,-16.568 -5.9137,-20.89453 -5.18945,-20.89453 0.18714,0 1.59576,0.77225 3.13086,1.7168 1.53509,0.94455 3.31561,1.71679 3.95703,1.71679 1.17781,0 6.92814,-3.26871 11.23242,-6.38672 l 2.33594,-1.69336 0.41211,1.32032 c 0.24172,0.77735 2.19955,17.28684 3.75781,30.34961 h 16.29297 c -0.99557,-8.43085 -2.12278,-17.36118 -4.61133,-35.88867 l -1.07617,-8.00782 1.94141,-2.54101 c 1.06752,-1.3981 2.0881,-3.13458 2.26953,-3.85743 0.34528,-1.37573 -0.52151,-12.18122 -1.59376,-19.85351 l -0.62695,-4.48437 2.50586,-2.57227 c 2.40114,-2.46543 4.39637,-3.93583 4.79492,-3.53321 0.19264,0.1946 5.15872,19.74392 12.33789,48.5625 3.31566,13.30969 4.00557,16.84271 3.74219,19.17774 -0.1322,1.17202 -1.30796,7.38337 -2.37305,12.99805 h 17.45899 c 1.09203,-6.1205 2.32226,-12.9904 2.32226,-13.91797 0,-1.27122 -0.65619,-5.19161 -1.45898,-8.71094 -2.81077,-12.32193 -9.41095,-39.76134 -13.88281,-57.7168 -3.57515,-14.35497 -4.38166,-18.34457 -3.88672,-19.2207 0.34354,-0.60811 2.45692,-3.53314 4.69726,-6.5 2.24035,-2.96685 4.58947,-6.42614 5.22071,-7.68555 1.04487,-2.08464 1.07735,-2.49204 0.35156,-4.55859 -1.80829,-5.14873 -22.53858,-33.48511 -25.96094,-35.48633 -1.8175,-1.06278 -3.15302,-1.18949 -14.37695,-1.36914 -14.58164,-0.23338 -12.9829,-0.73921 -23.48633,7.44141 -3.98081,3.10045 -7.50074,5.63671 -7.82227,5.63671 -0.73476,0 -1.17312,-5.01092 -1.80273,-20.60742 -0.27327,-6.76929 -0.67858,-12.76683 -0.90039,-13.32617 -0.22181,-0.55933 -1.5343,-1.67855 -2.91602,-2.48828 -2.71629,-1.59186 -3.56998,-3.38085 -2.53515,-5.31445 1.11008,-2.07421 0.50184,-2.41116 15.77148,8.72851 15.495,11.30408 14.50082,10.88495 26.42383,11.14844 11.16538,0.24674 13.40405,-0.17177 20.76758,-3.89258 6.51283,-3.29094 8.86862,-5.23307 10.55469,-8.69726 1.41199,-2.90107 1.52157,-3.82809 2.30469,-19.36133 l 0.82226,-16.31445 1.87695,-4.00781 c 1.71857,-3.66907 1.8978,-4.58051 2.11328,-10.79102 0.12943,-3.73057 0.0545,-8.70783 -0.16601,-11.06055 -0.35562,-3.79504 -0.68519,-4.69197 -2.92188,-7.95899 l -2.52148,-3.68359 2.2207,-2.2207 c 3.01598,-3.01598 3.76814,-5.45572 2.92774,-9.50391 -0.72097,-3.47286 -2.65289,-8.50479 -5.21094,-13.57226 -1.50021,-2.9719 -1.65821,-3.83657 -1.65821,-8.99219 0,-6.67322 -0.31208,-7.67433 -3.73046,-12.02539 -1.41234,-1.79769 -2.56836,-3.68186 -2.56836,-4.1875 0,-1.37406 0.62205,-2.73047 1.25195,-2.73047 0.4348,0 10.36702,9.4103 17.23047,16.27344 l 0.64062,0.75586 c 0.57905,0.68391 0.93632,1.0214 1.17383,1.16211 1.15646,1.44601 1.75529,3.46498 3.63867,11.92578 3.65198,16.40589 7.55078,36.24903 7.55078,38.42773 0,2.35721 -0.5268,3.38693 -4.15624,8.125 -4.35246,5.68195 -4.20264,4.50619 -2.38477,18.64258 0.73643,5.72669 3.26713,20.6711 3.67969,21.72656 0.25204,0.64482 1.90154,2.82848 3.66406,4.85157 1.76251,2.02307 3.20508,4.17197 3.20508,4.77539 0,0.60342 -1.28903,6.56338 -2.86328,13.24414 -1.57426,6.68076 -2.86133,12.54818 -2.86133,13.03906 0,0.49087 4.26567,13.74053 9.48047,29.44531 10.22626,30.79719 12.59271,39.19381 11.58008,41.08594 -0.33669,0.62911 -1.9561,2.72866 -3.59961,4.66602 -5.02635,5.92501 -5.10486,6.33783 -4.625,24.73046 0.29195,11.19036 0.641,16.38736 1.1875,17.69532 0.57908,1.38594 1.93687,2.52694 5.39648,4.53711 2.54234,1.4772 4.62305,3.03596 4.62305,3.46484 0,0.42887 -0.86671,1.74808 -1.92578,2.92969 -2.7399,3.05688 -3.79883,5.41823 -3.79883,8.47265 0,3.11821 1.19164,5.9412 3.0039,7.11133 1.57214,1.01509 28.65263,1.97039 31.94336,1.12696 1.11697,-0.28629 2.70303,-1.23266 3.52539,-2.10352 1.77877,-1.88368 23.53082,-34.78134 24.91016,-37.67383 0.8529,-1.78855 0.88349,-2.67664 0.26953,-8.14649 -0.37898,-3.37647 -1.46003,-10.7066 -2.40039,-16.28905 -1.19656,-7.10338 -1.67438,-11.74337 -1.59179,-15.45704 0.0856,-3.84744 -0.61124,-10.26341 -2.53907,-23.33789 -1.46238,-9.9178 -3.97392,-27.43568 -5.58008,-38.92773 -1.60617,-11.49206 -3.43994,-24.43517 -4.07421,-28.76367 -1.12188,-7.65608 -1.12392,-7.97606 -0.12305,-11.73633 1.23024,-4.62204 1.1854,-14.82685 -0.11719,-27.2207 -1.16181,-11.05427 -1.40372,-11.48963 -10.28906,-18.4336 -4.02876,-3.14851 -7.80745,-6.11171 -8.39648,-6.58399 -0.7938,-0.63644 -2.84857,-7.87636 -7.93751,-27.97461 -3.77624,-14.9139 -6.86523,-27.69098 -6.86523,-28.39452 0,-0.70355 1.28108,-2.92722 2.84766,-4.94141 1.56657,-2.0142 3.2986,-4.51859 3.84765,-5.56446 0.98633,-1.87882 0.97867,-1.93874 -0.6875,-5.12108 -2.12424,-4.05726 -9.45619,-13.79399 -19.2832,-25.60743 -8.53055,-10.2549 -10.00273,-11.32815 -16.7793,-12.25391 -6.48645,-0.88612 -25.78427,-1.94886 -29.69727,-1.63476 -1.98538,0.15937 -5.60924,0.8834 -8.05468,1.60938 l -4.44727,1.32031 -14.10547,-2.73047 c -7.75838,-1.50227 -14.29631,-2.90962 -14.52734,-3.12695 -0.4281,-0.40273 -3.29768,-24.66411 -3.29883,-27.88868 l -0.002,-1.77148 4.72266,-0.65235 c 6.64233,-0.91855 11.44191,-3.41239 14.21484,-7.38476 2.38959,-3.42322 3.69627,-8.65977 3.07617,-12.33008 -0.43144,-2.55367 -2.46091,-8.786712 -4.35547,-13.376952 -1.13012,-2.738123 -1.17225,-3.367574 -0.62109,-9.160157 C 313.64023,56.007115 308.17965,37.61186 294.44531,23.052734 284.71752,12.740762 270.18723,5.0630454 256.65234,3.0839842 c -1.7158,-0.250884 -3.91352,-0.4030216 -6.33789,-0.4667971 z m 41.42774,17.3730469 1.09179,1.28711 c 1.02483,1.210427 1.48438,1.549906 1.48438,1.091797 0,-0.108628 -0.5787,-0.689276 -1.28711,-1.289063 z m -46.21485,0.300782 c 9.35316,-0.02591 21.14034,3.375313 28.0625,8.097656 10.08108,6.877373 16.36733,16.732131 19.06055,29.878906 1.04719,5.111763 1.16678,7.402043 1,19.253906 l -0.18945,13.453125 2.39648,4.535156 c 2.27125,4.298177 2.35296,4.619725 1.56446,6.144535 -1.48031,2.8626 -3.29428,3.34441 -12.07618,3.20898 -7.48438,-0.11542 -8.05389,-0.0439 -10.49023,1.30664 -3.07251,1.70322 -3.16943,1.94957 -6.33594,16.00391 -1.51594,6.72838 -2.57477,10.25182 -3.22265,10.73242 -0.53056,0.39356 -2.17177,0.7168 -3.64649,0.7168 -2.55049,0 -2.69745,-0.0888 -3.04101,-1.80664 -0.5182,-2.59097 -1.36073,-3.34677 -3.7168,-3.33789 -3.66285,0.0138 -4.59523,0.52587 -5.3125,2.91992 -0.63964,2.13492 -0.76478,2.22461 -3.125,2.22461 -2.22777,0 -2.54369,-0.1802 -3.3711,-1.92383 -1.0361,-2.18343 -2.88571,-3.22852 -5.71679,-3.22852 -2.12235,0 -2.57947,0.44901 -3.44727,3.38868 -0.70573,2.39067 -1.08605,2.48432 -5.8418,1.45312 -1.49073,-0.32324 -1.64556,-0.82995 -4.23046,-13.86133 -1.01525,-5.11822 -2.30712,-10.0648 -2.8711,-10.99219 -2.11783,-3.48251 -6.20036,-4.26444 -18.00586,-3.45117 -3.76497,0.25937 -4.19774,0.16538 -6.15039,-1.32226 -2.98933,-2.27744 -3.18053,-3.758176 -0.95508,-7.375005 3.35971,-5.460224 3.475,-6.219098 3.08204,-20.166014 -0.32234,-11.439994 -0.2428,-13.194787 0.83398,-18.373047 2.22473,-10.698718 5.93153,-17.579572 13.14453,-24.404296 9.04465,-8.557779 20.22517,-13.041888 32.60156,-13.076172 z m -25.90429,43.005859 c -4.89336,0.207149 -7.59337,1.109773 -9.86328,3.052734 -4.06069,3.475792 -5.58208,10.745395 -4.13868,19.759766 1.04662,6.536307 3.1665,9.463463 7.89063,10.890625 2.27202,0.686374 6.53491,0.642146 8.73633,-0.08984 4.06776,-1.352559 16.28218,-11.610324 17.91015,-15.041017 0.54978,-1.158577 0.92188,-3.423195 0.92188,-5.603516 0,-3.1089 -0.27894,-4.129536 -1.85938,-6.773438 -2.87996,-4.817858 -5.30841,-5.89532 -13.9082,-6.18164 -2.184,-0.07271 -4.05833,-0.08272 -5.68945,-0.01367 z m 48.25195,0.01758 c -6.84102,0.217294 -10.25441,1.10198 -12.74023,3.820313 0.11876,-0.131675 0.1908,-0.168119 0.33007,-0.345703 0.71207,-0.907948 0.69115,-0.928859 -0.21679,-0.216798 -0.55099,0.432115 -1.00196,0.88308 -1.00196,1.001954 0,0.348924 0.32029,0.14544 0.75782,-0.304688 -0.80839,0.915464 -1.52479,2.018551 -2.22657,3.382813 -1.47507,2.867567 -1.39138,8.74418 0.16602,11.736328 1.59211,3.058833 12.43555,12.541836 16.47461,14.408203 1.20434,0.556502 2.9892,0.70194 5.97851,0.488282 8.30214,-0.593402 10.55942,-3.184876 11.50977,-13.214844 0.68074,-7.184549 0.33396,-10.389089 -1.52734,-14.097657 -2.76141,-5.501973 -6.70253,-7.001291 -17.50391,-6.658203 z m -26.61914,12.261719 c -0.0523,0.129697 -0.0859,0.407217 -0.0859,0.800781 0,0.787127 0.13026,1.108408 0.28906,0.714844 0.15881,-0.393563 0.15881,-1.036124 0,-1.429688 -0.0794,-0.196781 -0.15079,-0.215634 -0.20312,-0.08594 z m 52.07812,4.453125 c -0.0602,0.06019 -0.1015,0.26031 -0.11523,0.59375 -0.0249,0.603464 0.11056,0.942175 0.30078,0.751953 0.19022,-0.190222 0.21029,-0.684415 0.0449,-1.097656 -0.0914,-0.228334 -0.17028,-0.308235 -0.23047,-0.248047 z m -46.92382,9.666015 c -2.13826,0.0724 -4.29801,1.196393 -5.65235,3.341797 -4.05777,6.427926 -5.00569,12.961779 -2.5957,17.886719 0.74689,1.52631 2.15839,3.2785 3.13867,3.89453 2.37937,1.49524 8.18999,1.25546 10.50781,-0.43359 2.26093,-1.64759 4.15625,-5.67638 4.15625,-8.83399 0,-2.93574 -2.17433,-9.891184 -4.02929,-12.892575 -1.27099,-2.056507 -3.38714,-3.035294 -5.52539,-2.962891 z m -0.85743,26.363286 c -0.45666,0.18273 -0.32117,0.31822 0.34571,0.3457 0.60346,0.0249 0.94217,-0.11056 0.75195,-0.30078 -0.19022,-0.1902 -0.68441,-0.21029 -1.09766,-0.0449 z m 32.25977,30.84765 c 0.52855,-0.25006 0.8767,1.05687 1.94531,7.30664 0.96364,5.63587 2.18314,8.73506 4.13477,10.5 1.27895,1.15661 10.80496,5.18244 13.77539,5.82226 1.05438,0.22711 1.69694,0.6172 1.42969,0.86719 -0.26726,0.25 -4.86487,1.89938 -10.21875,3.66407 -5.35389,1.76468 -10.31638,3.20703 -11.02735,3.20703 -1.43174,0 -1.42453,0.016 -7.95312,-15.34766 -2.04867,-4.82111 -3.58585,-9.12773 -3.41602,-9.57031 0.23571,-0.61424 6.33296,-4.08507 11.33008,-6.44922 z m -63.36133,0.56055 c 0.37993,-0.37993 12.31836,5.66784 12.31836,6.24023 0,0.55311 -8.03486,18.95102 -9.71289,22.24024 -0.95629,1.87449 -1.49114,2.32347 -2.75,2.30859 -1.46551,-0.0173 -21.56551,-6.3409 -22.21289,-6.98828 -0.16403,-0.16402 0.67963,-0.47788 1.875,-0.69727 3.56683,-0.65463 11.74754,-3.69645 14.09766,-5.24219 2.71327,-1.78459 3.64423,-3.93574 5.03125,-11.62109 0.59187,-3.27951 1.20115,-6.08787 1.35351,-6.24023 z m 26.79688,4.4746 h 5.64062 5.64063 v 4.86524 4.86719 l -5.29493,-0.01 c -1.4988,-0.002 -1.99125,-0.15179 -3.09374,-0.24023 0.0124,-0.0416 0.0712,-0.08 -0.0547,-0.13086 -0.39357,-0.1588 -1.03808,-0.1588 -1.43164,0 -0.0148,0.006 0.007,0.01 -0.006,0.0156 -0.32548,-0.0526 -1.33221,-0.05 -1.42578,-0.10937 -0.52846,-0.33553 -0.61978,-1.6132 -0.34571,-4.85547 z m -90.46094,3.03712 c -0.55698,0.14514 -0.24143,0.27347 0.70312,0.28515 0.94456,0.0117 1.40124,-0.10685 1.01367,-0.26367 -0.38757,-0.15683 -1.15981,-0.16662 -1.71679,-0.0215 z m 193.80078,0.006 c -0.45667,0.18274 -0.32118,0.31823 0.34571,0.34571 0.60346,0.0249 0.94217,-0.11056 0.75195,-0.30079 -0.19023,-0.19019 -0.68442,-0.21028 -1.09766,-0.0449 z m -92.4707,0.60743 c -0.0602,0.0602 -0.1015,0.26226 -0.11524,0.5957 -0.0248,0.60346 0.11056,0.94022 0.30078,0.75 0.19023,-0.19022 0.21029,-0.68246 0.0449,-1.0957 -0.0914,-0.22834 -0.17028,-0.31019 -0.23047,-0.25 z m 0.0156,3.5625 c -0.0523,0.12969 -0.0859,0.40722 -0.0859,0.80078 0,0.78713 0.13026,1.11036 0.28907,0.71679 0.1588,-0.39356 0.1588,-1.03807 0,-1.43163 -0.0794,-0.19679 -0.15079,-0.21564 -0.20313,-0.0859 z m -4.61133,2.10937 c -0.86584,0.13116 -0.15746,0.23828 1.57422,0.23828 1.73168,0 2.44006,-0.10712 1.57422,-0.23828 -0.86584,-0.13116 -2.2826,-0.13116 -3.14844,0 z m -132.38085,0.41016 c -0.0296,-0.0296 -0.26282,0.14202 -0.7168,0.49804 -0.55099,0.43212 -1.00196,0.88309 -1.00196,1.00196 0,0.47115 0.47092,0.16841 1.21876,-0.78516 0.35602,-0.45398 0.52954,-0.68529 0.5,-0.71484 z m 34.63281,10.70508 10.01758,3.75585 c 5.50989,2.065 16.85486,6.45181 25.21093,9.75001 23.9797,9.46493 29.60735,11.01972 38.39453,10.5996 5.02236,-0.24012 5.31913,-0.32982 6.85157,-2.04492 1.73369,-1.94033 2.46528,-4.02101 3.51757,-10.01172 l 0.46485,-2.64648 c 0.0299,0.71724 0.40562,0.56474 0.77148,-0.38867 0.19549,-0.50942 0.0999,-0.73962 -0.22461,-0.53907 -0.29155,0.1802 -0.50181,0.54341 -0.53125,0.83204 l 0.19727,-1.1211 h 11.83594 11.83398 l 1.22461,5.30274 c 1.45885,6.31318 2.83386,8.78885 5.49414,9.90039 2.53796,1.06042 9.81457,1.06765 15.26758,0.0137 4.21146,-0.81401 17.8516,-5.53056 29.10351,-10.0625 6.90828,-2.78245 19.75895,-7.65854 28.90821,-10.9707 6.1161,-2.21413 6.44513,-2.27035 11.44922,-1.91016 6.301,0.45355 16.89984,1.80707 18.04882,2.30469 1.9429,0.84146 15.43946,19.1205 15.43946,20.91016 0,0.77063 -2.0723,2.3078 -7.29688,5.4121 -4.01398,2.38501 -7.88474,4.48416 -8.60156,4.66407 -1.05374,0.26447 -2.37025,-0.64995 -6.87109,-4.77149 -15.37789,-14.08193 -16.83378,-15.07788 -22.00586,-15.05664 -3.0963,0.0127 -4.05498,0.31387 -23.63282,7.42969 -5.35246,1.94542 -15.01235,5.37207 -21.46679,7.61328 l -11.73438,4.07422 -6.11132,0.19531 c 0.28392,-0.0446 0.64851,-0.0761 0.51757,-0.20703 -0.19022,-0.1902 -0.68441,-0.21029 -1.09765,-0.0449 -0.30946,0.12383 -0.25263,0.20991 -0.0371,0.27148 l -3.73047,0.11914 c -10.19453,0.32536 -10.49384,0.36885 -11.89453,1.76954 -1.20799,1.20799 -1.53359,2.29818 -2.04883,6.84569 -0.33707,2.97502 -0.50985,8.4373 -0.38281,12.13673 0.28254,8.22816 0.93132,9.45103 5.66406,10.67187 1.69991,0.4385 8.62914,2.28684 15.39844,4.10742 26.56678,7.14508 28.18878,7.52779 30.40234,7.17383 2.42394,-0.3876 8.60128,-2.78158 15.80078,-6.12304 4.03715,-1.87374 5.04038,-2.1427 5.81445,-1.5586 3.18749,2.40517 3.82263,5.42971 1.57813,7.50977 -1.22158,1.13208 -13.48576,8.13095 -19.6543,11.21679 -1.32557,0.66313 -3.05756,1.20508 -3.84961,1.20508 -0.79204,0 -5.11707,-1.1376 -9.61132,-2.52929 -21.43761,-6.63839 -37.07665,-11.20899 -38.35547,-11.20899 -2.28847,0 -3.34958,1.78026 -3.98438,6.6836 -0.77119,5.95688 -0.19782,17.71923 1.01172,20.74218 0.63633,1.59035 1.87112,3.01045 3.87891,4.46094 1.61975,1.17016 10.64446,7.89797 20.05468,14.95117 9.41022,7.05319 18.4256,13.50489 20.03516,14.33594 2.79405,1.44262 3.30154,1.50608 11.22656,1.43359 6.44011,-0.0589 9.25923,-0.34027 12.57813,-1.25586 2.35274,-0.64905 4.39035,-1.06668 4.52734,-0.92968 0.13699,0.13699 -0.0145,2.71772 -0.33593,5.73633 -0.64397,6.04722 -1.47811,7.73083 -4.80665,9.6914 -1.67542,0.98686 -2.97406,1.14648 -9.40234,1.14648 h -7.45703 l -3.61328,-2.15234 c -3.27245,-1.94977 -12.1485,-8.40584 -36.14063,-26.28516 -4.60846,-3.4343 -8.85955,-6.18854 -9.55664,-6.19141 -2.86331,-0.0119 -3.03711,1.14638 -3.03711,20.15821 v 17.61914 h -8.58789 -8.58594 v -17.78515 c 0,-11.16408 -0.22173,-18.19552 -0.59375,-18.89063 -0.78131,-1.4599 -2.53262,-1.40019 -4.75781,0.16016 -0.99315,0.69642 -9.43849,7.11209 -18.76758,14.25781 -9.32908,7.14572 -18.94024,14.36868 -21.35937,16.05078 l -4.39844,3.05859 -7.28516,0.19727 c -2.38559,0.0647 -4.2518,0.0326 -5.88476,-0.0605 0.25652,-0.0477 0.61911,-0.0723 0.49414,-0.19726 -0.19022,-0.1902 -0.68441,-0.21029 -1.09765,-0.0449 -0.16126,0.0645 -0.15955,0.11202 -0.17579,0.16212 -3.47152,-0.28674 -5.52615,-1.00838 -7.17187,-2.51759 -1.91584,-1.75691 -3.42188,-6.64771 -3.42188,-11.11327 0,-3.27172 -0.21155,-3.2282 7.7793,-1.54688 7.59118,1.59722 16.98579,1.36659 20.85351,-0.51172 1.42292,-0.69102 6.83449,-4.48586 12.02344,-8.43164 5.18896,-3.94578 14.37179,-10.89945 20.40625,-15.45313 13.69102,-10.3314 12.97641,-8.97371 12.68946,-24.10741 -0.23298,-12.28715 -0.52698,-13.3711 -3.62891,-13.3711 -1.79378,0 -17.62755,4.71546 -37.60157,11.19726 -4.30963,1.39853 -8.66526,2.54102 -9.67968,2.54102 -1.21805,0 -5.65246,-1.9676 -13.05859,-5.79687 -6.168,-3.18911 -11.53613,-6.05438 -11.92969,-6.36719 -1.17501,-0.9339 -0.81406,-4.02505 0.73633,-6.30664 0.79848,-1.17506 1.69847,-2.13672 2,-2.13672 0.30152,0 3.06104,1.12225 6.13281,2.49414 8.35683,3.73225 14.79579,6.0918 16.6211,6.0918 0.8952,0 5.73354,-1.13277 10.75194,-2.51758 5.01841,-1.38481 14.73373,-3.95979 21.58985,-5.72266 6.85612,-1.76287 13.33968,-3.57112 14.4082,-4.01758 3.25263,-1.35904 3.4712,-2.27422 3.42383,-14.36133 -0.012,-3.06946 -0.0858,-4.4897 -0.14844,-6.22265 0.0202,0.42867 0.0924,0.79041 0.25196,0.63086 0.19022,-0.19022 0.21028,-0.68442 0.0449,-1.09766 -0.14997,-0.37476 -0.25192,-0.25649 -0.30469,0.13282 -0.12769,-3.21509 -0.34537,-5.28347 -0.88867,-6.42188 -0.55186,-1.15634 -1.43427,-2.28845 -1.96094,-2.51562 -0.52667,-0.22718 -5.85377,-0.59436 -11.83594,-0.81641 l -5.91601,-0.2207 c 0.0931,-0.0531 0.40617,-0.047 0.32422,-0.12891 -0.19023,-0.1902 -0.68442,-0.21029 -1.09766,-0.0449 -0.13885,0.0556 -0.11934,0.0955 -0.15039,0.14062 l -4.03516,-0.15039 -16.3164,-5.87109 c -8.97325,-3.22954 -21.15652,-7.51835 -27.07422,-9.53125 -15.54733,-5.28842 -18.40017,-5.05967 -26.5918,2.13867 -2.28214,2.00541 -6.69538,5.89935 -9.80664,8.6543 -3.11125,2.75494 -6.01021,5.00976 -6.44336,5.00976 -0.80884,0 -13.30449,-7.54767 -14.75781,-8.91406 -0.694,-0.65249 -0.57869,-1.11463 0.80664,-3.22265 2.64512,-4.02501 11.51695,-15.50789 13.26562,-17.16993 1.87772,-1.78468 4.49896,-2.29369 17.36329,-3.37109 z m 94.59961,8.33789 c -1.33812,0.12052 -0.24459,0.21875 2.43164,0.21875 2.67623,0 3.77171,-0.0982 2.43359,-0.21875 -1.33811,-0.12052 -3.52712,-0.12052 -4.86523,0 z m -5.71875,0.0156 c -0.71209,0.13693 -0.26527,0.25341 0.99414,0.25977 1.2594,0.006 1.84224,-0.10672 1.29492,-0.25 -0.54732,-0.14329 -1.57698,-0.14669 -2.28906,-0.01 z m 13.45703,0.008 c -0.55698,0.14514 -0.23948,0.27348 0.70508,0.28515 0.94455,0.0117 1.39929,-0.10686 1.01171,-0.26367 -0.38757,-0.15684 -1.15981,-0.16662 -1.71679,-0.0215 z m 3.17383,0.006 c -0.45667,0.18274 -0.32118,0.31823 0.3457,0.34571 0.60346,0.0248 0.94022,-0.11056 0.75,-0.30078 -0.19022,-0.1902 -0.68246,-0.21029 -1.0957,-0.0449 z m -79.28321,31.30274 c 0.41866,0 5.50689,1.64441 11.3086,3.6543 12.77359,4.42515 16.76817,5.34672 27.15039,6.25976 l 8.01562,0.70508 -5.72461,1.3418 c -3.14851,0.73801 -10.61939,2.72593 -16.60156,4.41797 -5.98216,1.69203 -11.13437,3.07155 -11.44922,3.0664 -1.28616,-0.0201 -21.46679,-10.26187 -21.46679,-10.89453 0,-0.93015 7.81369,-8.55078 8.76757,-8.55078 z m 139.98829,0.21484 c 1.80145,0.1022 2.8686,1.3043 5.24609,3.72461 2.19751,2.2371 3.99609,4.4298 3.99609,4.87305 0,1.04093 -2.07476,2.23823 -11.8789,6.86133 -4.41941,2.08394 -8.38501,3.76667 -8.8125,3.73828 -0.4275,-0.0284 -2.45152,-0.51497 -4.49805,-1.08008 -12.04555,-3.32617 -26.36358,-6.88281 -27.70508,-6.88281 -3.28991,0 -0.72151,-1.0266 3.51172,-1.4043 11.57013,-1.03231 19.46817,-2.83455 30.49023,-6.95117 5.31228,-1.98408 7.84895,-2.9811 9.6504,-2.87891 z m -205.08204,7.41016 c 0.79823,-0.30631 7.09376,1.95247 7.09376,2.54492 0,0.45194 -3.55908,17.18616 -7.48829,35.20898 -1.90607,8.74294 -3.48515,16.60303 -3.50976,17.46876 -0.0631,2.2179 1.2136,4.34853 5.55859,9.28124 3.6024,4.08968 3.76598,4.40283 3.45508,6.58399 -0.17952,1.2594 -1.00915,6.60515 -1.84375,11.87891 -0.83461,5.27375 -1.73276,9.58788 -1.99414,9.58788 -0.26138,0 -0.47461,-0.22085 -0.47461,-0.49023 0,-0.26939 -2.22408,-4.53847 -4.94336,-9.48828 -3.73557,-6.79973 -5.31112,-9.14189 -6.44141,-9.58203 -1.850646,-0.72066 -9.003867,-0.30055 -10.941402,0.64258 -0.787127,0.38315 -3.182352,3.09025 -5.324219,6.01758 -4.803479,6.56498 -7.748078,10.03906 -8.511723,10.03906 -0.625339,0 -0.482328,-1.70144 1.050783,-12.47266 0.64276,-4.51583 1.26044,-6.89563 2.050784,-7.90039 0.621979,-0.79072 3.483904,-3.00703 6.361326,-4.92578 9.432438,-6.28981 9.89599,-6.77705 11.48242,-12.08594 0.771116,-2.58047 3.742791,-13.9642 6.603511,-25.29883 6.27373,-24.8575 6.78141,-26.6126 7.81641,-27.00976 z m 270.08008,0.17578 c 1.58441,-0.0687 1.72084,0.12368 2.95313,4.2207 1.44944,4.81901 3.92011,13.86183 8.29297,30.33985 5.79439,21.83469 5.76023,21.72703 7.57422,23.54101 0.93542,0.93542 3.28008,2.75768 5.20898,4.04883 6.73377,4.5074 8.92461,6.39273 9.51758,8.18946 0.85719,2.59732 2.84026,16.84907 2.47656,17.79687 -0.46854,1.22098 -1.19827,0.97881 -2.30274,-0.76563 -3.06977,-4.8485 -9.16957,-12.9787 -10.2871,-13.71094 -0.72255,-0.47343 -3.2821,-0.9869 -5.78126,-1.1582 -6.75272,-0.46284 -6.98399,-0.26923 -12.74414,10.65039 -2.66762,5.05708 -4.99992,9.20224 -5.18163,9.21094 -0.36002,0.0172 -0.90439,-2.88865 -2.85743,-15.22656 l -1.28125,-8.08594 3.52344,-4.18554 c 1.93783,-2.30214 4.04362,-5.25651 4.67773,-6.56641 l 1.15234,-2.38282 -3.18749,-14.82812 c -5.54894,-25.81995 -7.70704,-36.41627 -7.70704,-37.83594 0,-1.05141 0.50937,-1.59248 2.14649,-2.27929 1.18069,-0.49533 2.89345,-0.93305 3.80664,-0.97266 z m -37.85156,1.00391 c -0.0602,0.0602 -0.0996,0.26031 -0.11328,0.59374 -0.0249,0.60346 0.11056,0.94218 0.30078,0.75196 0.1902,-0.19022 0.21029,-0.68442 0.0449,-1.09766 -0.0914,-0.22833 -0.17223,-0.30823 -0.23242,-0.24804 z m -105.9043,33.77343 c -0.0602,0.0602 -0.0995,0.26227 -0.11328,0.59571 -0.0249,0.60346 0.11056,0.94021 0.30078,0.74999 0.19023,-0.19022 0.21029,-0.68441 0.0449,-1.09765 -0.0914,-0.22833 -0.17223,-0.30824 -0.23242,-0.24805 z m 0,3.43555 c -0.0602,0.0602 -0.0995,0.26031 -0.11328,0.59375 -0.0249,0.60346 0.11056,0.94217 0.30078,0.75195 0.19023,-0.19022 0.21029,-0.68441 0.0449,-1.09765 -0.0914,-0.22833 -0.17223,-0.30824 -0.23242,-0.24805 z m 0,2.28906 c -0.0602,0.0602 -0.0995,0.26226 -0.11328,0.59571 -0.0249,0.60346 0.11056,0.94022 0.30078,0.75 0.19023,-0.19023 0.21029,-0.68442 0.0449,-1.09766 -0.0914,-0.22834 -0.17223,-0.30823 -0.23242,-0.24805 z m 0.0508,2.66992 c -0.0474,0.18158 -0.0762,0.57011 -0.0762,1.1211 0,1.10198 0.11773,1.55294 0.26172,1.00195 0.14399,-0.55099 0.14399,-1.45291 0,-2.0039 -0.072,-0.2755 -0.1381,-0.30072 -0.18555,-0.11915 z m 36.16797,4.55664 c 0.47452,0 14.73685,4.46756 27.73047,8.6875 11.21606,3.64265 11.63389,3.61492 22.04883,-1.4414 4.31378,-2.09428 8.06788,-3.66929 8.3418,-3.5 0.45242,0.27962 0.94656,1.79626 1.9746,6.0625 0.27492,1.14087 0.0375,1.8171 -0.9707,2.76953 -1.40818,1.3303 -11.90763,8.67405 -15.43359,10.79492 -2.49142,1.49859 -6.43627,2.30587 -8.79883,1.79883 -1.72794,-0.37084 -36.10648,-25.17188 -34.89258,-25.17188 z m -52.40625,0.002 c 0,0.21192 -0.58065,0.65273 -1.28906,0.97851 -0.70842,0.32578 -2.83355,1.7365 -4.72266,3.13477 -13.22432,9.78832 -27.10501,19.84938 -28.15625,20.4082 -1.67297,0.88931 -7.48014,0.80586 -9.64844,-0.13867 -0.9578,-0.41723 -3.40617,-1.90026 -5.43945,-3.29492 -8.19594,-5.62171 -13.14258,-9.17851 -13.14258,-9.45117 0,-0.96112 2.01958,-7.63282 2.31055,-7.63282 0.19446,0 3.94048,1.5756 8.32422,3.5 11.45336,5.02778 11.31266,5.02825 27.46484,-0.0371 7.22429,-2.26555 15.64701,-4.96017 18.7168,-5.98633 3.0698,-1.02616 5.58203,-1.6924 5.58203,-1.48047 z m 129.53516,7.65625 c -0.0602,0.0602 -0.1015,0.26031 -0.11524,0.59375 -0.0248,0.60346 0.11056,0.94217 0.30078,0.75195 0.1902,-0.19022 0.21029,-0.68441 0.0449,-1.09765 -0.0914,-0.22834 -0.17028,-0.30824 -0.23047,-0.24805 z m 0.0488,2.66992 c -0.0475,0.18158 -0.0762,0.5701 -0.0762,1.12109 0,1.10198 0.11773,1.55099 0.26172,1 0.14399,-0.55099 0.14399,-1.45096 0,-2.00195 -0.072,-0.2755 -0.13809,-0.30072 -0.18554,-0.11914 z m -208.98047,0.32031 c -0.0523,0.1297 -0.084,0.40722 -0.084,0.80078 0,0.78713 0.12831,1.10841 0.28711,0.71485 0.15881,-0.39356 0.15881,-1.03808 0,-1.43164 -0.0794,-0.19679 -0.15079,-0.21368 -0.20312,-0.084 z M 254.457,293.93409 c -0.0474,0.18158 -0.0781,0.57011 -0.0781,1.1211 0,1.10198 0.11773,1.55294 0.26172,1.00195 0.14398,-0.55099 0.14398,-1.45292 0,-2.00391 -0.072,-0.27549 -0.13615,-0.30071 -0.1836,-0.11914 z m -16.5625,0.10352 c -0.043,0.28347 -0.0707,0.9324 -0.0723,1.87695 -0.003,1.88911 0.1018,2.7313 0.23242,1.8711 0.13061,-0.8602 0.13326,-2.40665 0.006,-3.43555 -0.0637,-0.51445 -0.12297,-0.59597 -0.16602,-0.3125 z m -0.0742,5.36914 c -0.0523,0.12969 -0.084,0.40722 -0.084,0.80078 0,0.78713 0.13025,1.11036 0.28906,0.7168 0.15881,-0.39356 0.15881,-1.03808 0,-1.43164 -0.0794,-0.19679 -0.15274,-0.21564 -0.20508,-0.0859 z m 16.85352,2.08984 c -0.10494,-2.75494 -0.19141,-0.50207 -0.19141,5.00782 0,5.50989 0.0865,7.76471 0.19141,5.00976 0.10494,-2.75494 0.10494,-7.26263 0,-10.01758 z m -16.86914,0.0723 c -0.0602,0.0602 -0.0995,0.26226 -0.11328,0.5957 -0.0249,0.60346 0.11055,0.94023 0.30078,0.75001 0.19022,-0.19023 0.21029,-0.68443 0.0449,-1.09767 -0.0914,-0.22833 -0.17223,-0.30823 -0.23242,-0.24804 z m 0,1.71875 c -0.0602,0.0602 -0.0995,0.26031 -0.11328,0.59375 -0.0249,0.60346 0.11055,0.94217 0.30078,0.75195 0.19022,-0.19022 0.21029,-0.68441 0.0449,-1.09765 -0.0914,-0.22834 -0.17223,-0.30824 -0.23242,-0.24805 z m 0,1.7168 c -0.0602,0.0602 -0.0995,0.2603 -0.11328,0.59375 -0.0249,0.60346 0.11055,0.94217 0.30078,0.75195 0.19022,-0.19022 0.21029,-0.68442 0.0449,-1.09766 -0.0914,-0.22833 -0.17223,-0.30823 -0.23242,-0.24804 z m 0,2.86132 c -0.0602,0.0602 -0.0995,0.26227 -0.11328,0.59571 -0.0249,0.60346 0.11055,0.94022 0.30078,0.75 0.19022,-0.19022 0.21029,-0.68247 0.0449,-1.09571 -0.0914,-0.22833 -0.17223,-0.31019 -0.23242,-0.25 z m -54.65039,2.25586 c -0.45667,0.18274 -0.32118,0.31823 0.3457,0.34571 0.60346,0.0249 0.94218,-0.11056 0.75195,-0.30078 -0.19022,-0.1902 -0.68441,-0.21029 -1.09765,-0.0449 z m 125.9414,0 c -0.45666,0.18274 -0.32117,0.31823 0.34571,0.34571 0.60346,0.0249 0.94217,-0.11056 0.75195,-0.30078 -0.19022,-0.1902 -0.68442,-0.21029 -1.09766,-0.0449 z m -214.580075,6.11524 c 0.328332,0 1.773308,1.86772 3.212892,4.15039 1.439584,2.28267 3.113873,4.84808 3.718753,5.70117 0.60488,0.85309 1.0996,1.76672 1.0996,2.03125 0,0.26452 -3.107334,2.50477 -6.904291,4.97852 -5.177682,3.37329 -7.165604,5.01185 -7.951174,6.55468 -0.716955,1.40806 -2.068627,9.19224 -4.283202,24.66992 -1.779445,12.43661 -3.739901,25.60762 -4.357421,29.26759 -1.353784,8.02369 -1.501483,10.74165 -0.666018,12.30273 0.568477,1.06221 6.994617,4.56943 10.279301,5.61133 1.496348,0.47464 1.498724,0.49111 0.617188,5.27539 -0.576172,3.12699 -0.840921,3.63516 -1.86133,3.58398 -2.207694,-0.11076 -22.259947,-3.35955 -22.554687,-3.65429 -0.160706,-0.16071 0.262002,-3.44761 0.9375,-7.30469 0.675504,-3.85707 1.758802,-10.74912 2.408202,-15.31446 0.6494,-4.56534 2.440191,-17.05874 3.978518,-27.76367 1.538327,-10.70493 3.393834,-23.92232 4.124998,-29.37109 l 1.330079,-9.90625 4.378905,-2.52734 c 2.408654,-1.38957 6.070169,-3.82233 8.136718,-5.40626 2.066555,-1.58392 4.027136,-2.8789 4.355469,-2.8789 z m 303.943355,0.0156 c 0.49761,0.008 2.36684,1.10191 4.15235,2.43164 1.78552,1.32973 5.16038,3.60951 7.5,5.06641 3.87662,2.41401 4.28241,2.84682 4.58594,4.86719 0.18318,1.21933 0.86276,5.82256 1.50976,10.23047 0.64701,4.40791 1.69834,11.4917 2.33594,15.74218 0.63761,4.25049 1.79601,11.97879 2.57422,17.17383 0.7782,5.19504 1.80837,11.89369 2.28906,14.88477 1.53696,9.56368 3.77215,24.2424 4.11719,27.03711 0.2495,2.02095 0.13368,2.77887 -0.45899,2.99023 -0.43663,0.15571 -5.76264,1.06272 -11.83398,2.01563 -6.07134,0.95291 -11.11449,1.73242 -11.20703,1.73242 -0.18969,0 -1.50977,-6.93597 -1.50977,-7.93164 0,-0.3541 2.3108,-1.80534 5.13672,-3.22461 7.59235,-3.81311 7.43526,-3.35288 5.58789,-16.25391 -6.09784,-42.58405 -7.41877,-50.86342 -8.46484,-53.05274 -0.90329,-1.89048 -2.3251,-3.11398 -7.6543,-6.58398 -3.59965,-2.34383 -6.56327,-4.66056 -6.58594,-5.15038 -0.0226,-0.48983 0.58034,-1.73422 1.33985,-2.76368 0.75951,-1.02945 2.34827,-3.52603 3.53125,-5.54883 1.22671,-2.09757 2.53868,-3.67081 3.05468,-3.66211 z m -143.98632,1.32422 c -0.0472,0.18037 -0.0789,0.60663 -0.082,1.23633 -0.006,1.2594 0.10672,1.84224 0.25001,1.29492 0.14328,-0.54732 0.14864,-1.57893 0.0117,-2.29101 -0.0685,-0.35605 -0.13247,-0.4206 -0.17968,-0.24024 z m 0,4.00586 c -0.0472,0.18037 -0.0789,0.60663 -0.082,1.23633 -0.006,1.2594 0.10672,1.84224 0.25001,1.29492 0.14328,-0.54732 0.14864,-1.57698 0.0117,-2.28906 -0.0685,-0.35604 -0.13247,-0.42256 -0.17968,-0.24219 z m -6.65821,5.125 c -0.71208,0.13693 -0.26526,0.25536 0.99414,0.26172 1.25941,0.006 1.84224,-0.10672 1.29493,-0.25 -0.54732,-0.14329 -1.57698,-0.14864 -2.28907,-0.0117 z m -5.16015,0.002 c -0.70842,0.13645 -0.12777,0.24805 1.28906,0.24805 1.41683,0 1.99552,-0.1116 1.28711,-0.24805 -0.70842,-0.13645 -1.86776,-0.13645 -2.57617,0 z m 8.88476,0.008 c -0.55698,0.14514 -0.23947,0.27348 0.70508,0.28516 0.94455,0.0117 1.39929,-0.10882 1.01172,-0.26563 -0.38757,-0.15684 -1.15982,-0.16467 -1.7168,-0.0195 z m -12.89062,0.0176 c -0.39357,0.15881 -0.0723,0.28711 0.71484,0.28711 0.78713,0 1.10841,-0.1283 0.71485,-0.28711 -0.39357,-0.1588 -1.03613,-0.1588 -1.42969,0 z m 36.95508,5.875 c -0.0523,0.1297 -0.0859,0.40722 -0.0859,0.80078 0,0.78713 0.13025,1.10841 0.28906,0.71485 0.15881,-0.39357 0.15881,-1.03808 0,-1.43164 -0.0794,-0.19678 -0.15079,-0.21368 -0.20312,-0.084 z m -60.68164,7.44141 c -0.0523,0.1297 -0.084,0.40722 -0.084,0.80078 0,0.78713 0.13026,1.10841 0.28906,0.71485 0.15881,-0.39357 0.15881,-1.03613 0,-1.42969 -0.0794,-0.19678 -0.15274,-0.21563 -0.20507,-0.0859 z m 96.42773,2.6875 c -0.70841,0.13644 -0.12972,0.24805 1.28711,0.24805 1.41683,0 1.99748,-0.11161 1.28906,-0.24805 -0.70841,-0.13645 -1.86776,-0.13645 -2.57617,0 z m -139.39258,0.008 c -0.55099,0.14399 -0.10003,0.26172 1.00195,0.26172 1.10198,0 1.55294,-0.11773 1.00196,-0.26172 -0.55099,-0.14398 -1.45292,-0.14398 -2.00391,0 z m 6.61914,0.004 c -0.45666,0.18274 -0.32118,0.31823 0.3457,0.3457 0.60346,0.0249 0.94023,-0.11055 0.75001,-0.30078 -0.19022,-0.19019 -0.68246,-0.21029 -1.09571,-0.0449 z m 129.94727,0 c -0.45667,0.18274 -0.32118,0.31823 0.3457,0.3457 0.60346,0.0249 0.94218,-0.11055 0.75195,-0.30078 -0.19022,-0.19019 -0.68441,-0.21029 -1.09765,-0.0449 z m 6.86914,0 c -0.45667,0.18274 -0.32118,0.31823 0.3457,0.3457 0.60346,0.0249 0.94218,-0.11055 0.75196,-0.30078 -0.19023,-0.19019 -0.68442,-0.21029 -1.09766,-0.0449 z m 1.7168,0 c -0.45667,0.18274 -0.32119,0.31823 0.3457,0.3457 0.60346,0.0249 0.94217,-0.11055 0.75195,-0.30078 -0.19022,-0.19019 -0.68442,-0.21029 -1.09765,-0.0449 z m -142.00391,0.0117 c -0.39356,0.1588 -0.0723,0.28906 0.71484,0.28906 0.78713,0 1.10841,-0.13026 0.71485,-0.28906 -0.39357,-0.15881 -1.03613,-0.15881 -1.42969,0 z m 7.44141,0 c -0.39357,0.1588 -0.0723,0.28906 0.71484,0.28906 0.78713,0 1.11036,-0.13026 0.71679,-0.28906 -0.39356,-0.15881 -1.03807,-0.15881 -1.43163,0 z m 62.54101,1.48046 c 5.35246,0 10.76208,0.009 12.02149,0.0215 l 2.28906,0.0234 v 6.29687 6.29688 h -13.45117 -13.45313 v -6.29688 -6.29687 l 1.42969,-0.0234 c 0.78713,-0.0121 5.8116,-0.0215 11.16406,-0.0215 z m 13.89844,2.55079 c -0.0602,0.0602 -0.1015,0.26031 -0.11524,0.59375 -0.0248,0.60346 0.11056,0.94217 0.30079,0.75195 0.19022,-0.19022 0.21028,-0.68442 0.0449,-1.09766 -0.0914,-0.22833 -0.17028,-0.30823 -0.23047,-0.24804 z m 0.0156,2.41797 c -0.0523,0.12969 -0.084,0.40721 -0.084,0.80078 0,0.78712 0.1283,1.1084 0.28711,0.71484 0.1588,-0.39356 0.1588,-1.03807 0,-1.43164 -0.0794,-0.19678 -0.15079,-0.21368 -0.20313,-0.084 z m -153.49219,0.875 c 0.89692,0.23913 1.92244,1.31683 2.90821,3.15625 l 1.57617,2.94336 -6.22461,16.80468 c -3.4242,9.24312 -6.633562,17.77244 -7.130861,18.95313 -1.059163,2.51469 -1.764132,2.82504 -1.30078,0.57227 0.178085,-0.86584 1.237066,-6.98384 2.355468,-13.59571 2.154283,-12.7358 5.015383,-25.92852 6.035153,-27.83398 0.26467,-0.49453 0.58129,-0.81087 0.9336,-0.95704 0.26423,-0.10961 0.54869,-0.12267 0.84765,-0.043 z m 282.32227,0.0352 c 1.0351,0.14755 1.433,0.98897 2.52734,5.32812 1.1326,4.49084 2.23784,10.65073 6.1543,34.30078 0.78357,4.73169 0.81406,6.25037 0.10156,5.09375 -0.15836,-0.25709 -2.39266,-6.3932 -4.96484,-13.63476 -2.57219,-7.24157 -5.69705,-15.96022 -6.94531,-19.37501 -1.24827,-3.41478 -2.1331,-6.63344 -1.96485,-7.15429 0.59883,-1.85374 3.82198,-4.7396 5.0918,-4.55859 z m -85.05859,0.61914 c -1.02891,0.1274 -0.32661,0.23484 1.5625,0.23828 1.8891,0.003 2.73129,-0.1018 1.87109,-0.23243 -0.8602,-0.13061 -2.40469,-0.13326 -3.43359,-0.006 z m -3.72071,0.0195 c -0.55698,0.14514 -0.23947,0.27347 0.70508,0.28515 0.94456,0.0117 1.39929,-0.10685 1.01172,-0.26367 -0.38757,-0.15683 -1.15982,-0.16662 -1.7168,-0.0215 z m -114.75195,0.006 c -0.45667,0.18274 -0.32118,0.31823 0.34571,0.34571 0.60346,0.0249 0.94021,-0.11056 0.74999,-0.30078 -0.19022,-0.1902 -0.68246,-0.21029 -1.0957,-0.0449 z m 2.28906,0 c -0.45666,0.18274 -0.32117,0.31823 0.34571,0.34571 0.60346,0.0249 0.94217,-0.11056 0.75195,-0.30078 -0.19022,-0.1902 -0.68441,-0.21029 -1.09766,-0.0449 z m 121.36133,0 c -0.45666,0.18274 -0.32117,0.31823 0.3457,0.34571 0.60347,0.0249 0.94023,-0.11056 0.75,-0.30078 -0.19022,-0.1902 -0.68246,-0.21029 -1.0957,-0.0449 z m -119.67969,0.0117 c -0.39356,0.15881 -0.0723,0.28906 0.71485,0.28906 0.78712,0 1.11036,-0.13025 0.7168,-0.28906 -0.39357,-0.1588 -1.03808,-0.1588 -1.43165,0 z m -14.84765,0.56055 c -0.45667,0.18274 -0.32118,0.31822 0.3457,0.3457 0.60346,0.0249 0.94218,-0.11056 0.75195,-0.30078 -0.19022,-0.1902 -0.68441,-0.21028 -1.09765,-0.0449 z m 85.5625,0.0352 c -0.0602,0.0602 -0.1015,0.2603 -0.11524,0.59375 -0.0248,0.60346 0.11056,0.94217 0.30079,0.75195 0.19022,-0.19022 0.21028,-0.68442 0.0449,-1.09766 -0.0914,-0.22833 -0.17028,-0.30823 -0.23047,-0.24804 z m -26.08203,0.49804 c -0.13117,-0.86584 -0.23828,-0.15746 -0.23828,1.57422 0,1.73168 0.10711,2.44006 0.23828,1.57422 0.13116,-0.86584 0.13116,-2.2826 0,-3.14844 z m 74.96289,16.38086 c 2.79865,-8.3e-4 5.54095,0.35992 6.37304,1.08008 1.29507,1.12086 14.88044,19.20273 15.35352,20.43555 0.27927,0.72776 -2.14389,3.72403 -20.58789,25.44921 -3.09967,3.6511 -6.32028,7.79607 -7.15625,9.2129 l -1.51953,2.57617 0.16992,12.38672 0.16992,12.38672 -6.4668,4.56641 c -5.99523,4.23281 -7.72456,5.94057 -9.93359,4.78905 -0.21061,-0.25932 -0.56512,-0.64692 -1.25586,-1.25586 l -1.57422,-1.38671 1.38672,1.57422 c -1.23783,-1.10967 -2.74709,-2.80269 -5.16406,-5.35547 l -7.26172,-7.66797 -22.53125,-0.17188 c -12.39238,-0.0942 -23.43318,-0.006 -24.53516,0.19531 -1.626,0.29716 -3.44579,1.86618 -9.65429,8.32813 -4.20763,4.3794 -7.85749,7.96289 -8.11133,7.96289 -0.60827,0 -12.67057,-9.00272 -13.51367,-10.08594 -0.2813,-0.36141 -0.3922,-2.53417 -0.42188,-5.77538 0.0865,-0.23829 0.16286,-0.52854 0.0352,-0.84766 -0.0116,-0.0289 -0.0181,-0.007 -0.0293,-0.0312 -0.007,-2.03696 -0.0234,-3.91162 0.0488,-7.18555 0.18232,-8.26137 0.0731,-13.52011 -0.30078,-14.42969 -0.46992,-1.14324 -16.72872,-21.15772 -26.24023,-32.30273 -1.05601,-1.23736 -1.91993,-2.63047 -1.91993,-3.09571 0,-0.46522 0.99267,-2.15837 2.20508,-3.76171 1.21241,-1.60334 4.08335,-5.49017 6.38086,-8.63867 6.77624,-9.28615 6.20591,-8.8742 12.27344,-8.87305 l 5.1875,0.002 12.59375,10.09961 c 16.35313,13.11544 23.44402,18.41624 26.61914,19.89648 2.40839,1.1228 3.54579,1.20118 17.46094,1.20118 12.93561,0 15.17226,-0.13142 17.09375,-1.00001 2.78912,-1.26079 7.68455,-4.93756 23.80664,-17.8789 7.06849,-5.67404 13.50972,-10.76554 14.3125,-11.31445 1.05402,-0.72082 3.90838,-1.08315 6.70703,-1.08399 z m -74.22852,4.08399 h 12.59375 12.59375 v 4.5332 c 0,1.38662 -0.11754,1.99461 -0.19336,3.02539 -0.0184,-0.0849 0.0288,-0.18836 0,-0.25976 -0.1588,-0.39357 -0.28906,-0.0703 -0.28906,0.71679 0,0.63886 0.0957,0.8559 0.21289,0.74805 -0.0377,0.28239 -0.0357,1.09829 -0.0781,1.20898 -0.30139,0.7854 -1.91977,0.9043 -12.21094,0.9043 -3.89814,0 -5.05609,-0.13247 -7.31641,-0.22656 0.24849,-0.0477 0.78307,-0.0608 0.56641,-0.14844 -0.38757,-0.15683 -1.16177,-0.16662 -1.71875,-0.0215 -0.1852,0.0483 -0.13768,0.088 -0.13867,0.1289 -0.88655,-0.0521 -3.57824,-0.0509 -3.64063,-0.11328 -0.2099,-0.2099 -0.38086,-2.65827 -0.38086,-5.43945 z m 24.77539,3.65234 c -0.0602,0.0602 -0.1015,0.26031 -0.11523,0.59375 -0.0249,0.60346 0.11056,0.94218 0.30078,0.75195 0.19022,-0.19022 0.21029,-0.68441 0.0449,-1.09765 -0.0914,-0.22834 -0.17028,-0.30823 -0.23047,-0.24805 z m 45.38281,5.68359 c -0.80452,-0.0472 -1.65104,-0.0202 -2.38476,0.0899 -2.92089,0.43801 -4.40012,1.688 -19.30859,16.31445 -10.37739,10.18108 -11.88742,12.12754 -13.61719,17.5586 -0.68835,2.16125 -1.6474,4.25096 -2.13086,4.64453 -0.30534,0.24856 -1.83726,0.40234 -4.45117,0.51367 0.0771,-0.0497 0.0979,-0.10713 -0.0723,-0.17578 -0.39356,-0.1588 -1.03808,-0.1588 -1.43164,0 -0.25872,0.10439 -0.12062,0.17973 0.16797,0.23047 -0.3787,0.0115 -1.30319,0.006 -1.72852,0.0156 0.6739,-0.0213 1.04289,-0.11066 0.71289,-0.24414 -0.38757,-0.15683 -1.15981,-0.16467 -1.71679,-0.0195 -0.50832,0.13245 -0.21531,0.24098 0.54492,0.26953 -3.0702,0.0658 -6.34171,0.11983 -12.11524,0.11719 -5.53522,-0.003 -6.75631,-0.14029 -10.39453,-0.22461 0.14758,-0.0432 0.1558,-0.0984 -0.0801,-0.16016 -0.54732,-0.14329 -1.57698,-0.14864 -2.28907,-0.0117 -0.23244,0.0447 -0.16082,0.0799 -0.1582,0.11719 -0.28146,-0.01 -0.76945,-0.0115 -1.01758,-0.0215 -0.008,-0.0138 0.0262,-0.0207 0.0117,-0.0352 -0.19022,-0.1902 -0.68246,-0.21029 -1.0957,-0.0449 v -0.002 c -0.0555,0.0222 -0.0224,0.0359 -0.0606,0.0566 -0.28679,-0.0144 -1.18495,-0.0161 -1.40039,-0.0312 -0.0104,-0.005 0.006,-0.007 -0.006,-0.0117 -0.15571,-0.0628 -0.36331,0.0131 -0.56641,0 -0.3677,-0.0306 -2.73642,-0.0281 -2.78515,-0.0605 -0.34714,-0.23132 -1.08447,-1.83668 -1.63867,-3.56836 -0.55421,-1.73168 -1.60229,-4.1781 -2.32813,-5.4375 -1.92174,-3.33441 -27.06831,-28.11291 -29.60742,-29.17382 -3.48869,-1.45767 -7.32748,-0.1369 -11.17188,3.84179 -2.14674,2.22172 -3.15868,5.0771 -2.45507,6.92774 0.26546,0.69823 1.7573,2.80752 3.31445,4.68554 3.21505,3.87755 20.5481,26.17082 27.30273,35.11523 l 4.48633,5.93946 3.78906,-0.46875 c 4.90243,-0.60612 49.98693,-0.6298 55.59571,-0.0293 3.29092,0.35234 4.51289,0.28062 5.23633,-0.30859 1.55309,-1.26495 33.28139,-42.9568 34.43164,-45.24414 1.01023,-2.00892 1.01387,-2.21444 0.0859,-4.16993 -1.19209,-2.51214 -4.88372,-5.76297 -7.53711,-6.63866 -0.56426,-0.18623 -1.32633,-0.30825 -2.13086,-0.35548 z m -61.41796,1.14454 c -0.55698,0.14514 -0.23948,0.27348 0.70507,0.28515 0.94456,0.0117 1.40125,-0.10686 1.01368,-0.26367 -0.38758,-0.15683 -1.16177,-0.16662 -1.71875,-0.0215 z m 52.40429,2.6875 c -0.15742,0 -0.75239,0.51483 -1.32226,1.14453 -0.56987,0.6297 -0.90743,1.14453 -0.75,1.14453 0.15742,0 0.75239,-0.51483 1.32226,-1.14453 0.56988,-0.6297 0.90743,-1.14453 0.75,-1.14453 z m -50.40429,14.47851 c -0.71209,0.13693 -0.26527,0.25341 0.99414,0.25977 1.2594,0.006 1.84224,-0.10477 1.29492,-0.24805 -0.54732,-0.14329 -1.57698,-0.14864 -2.28906,-0.0117 z m -25.625,6.70117 c -0.0296,0.0296 0.14397,0.26282 0.5,0.7168 0.74784,0.95357 1.21875,1.25631 1.21875,0.78516 0,-0.11887 -0.45097,-0.56984 -1.00196,-1.00196 -0.45397,-0.35602 -0.68725,-0.52955 -0.71679,-0.5 z m 27.07226,13.88672 c -2.13833,0.11045 -0.53837,0.20198 3.55469,0.20313 4.09306,10e-4 5.84339,-0.0897 3.88867,-0.20118 -1.95472,-0.11133 -5.30502,-0.11239 -7.44336,-0.002 z m -6.59961,0.0195 c -0.71208,0.13693 -0.26331,0.25537 0.9961,0.26173 1.2594,0.006 1.84028,-0.10673 1.29297,-0.25001 -0.54732,-0.14329 -1.57698,-0.14864 -2.28907,-0.0117 z m -47.2168,6.91993 c -0.0602,0.0602 -0.10149,0.2603 -0.11523,0.59375 -0.0249,0.60346 0.11056,0.94217 0.30078,0.75195 0.1902,-0.19022 0.21029,-0.68442 0.0449,-1.09766 -0.0914,-0.22833 -0.17028,-0.30823 -0.23047,-0.24804 z m 0.0156,4.13476 c -0.0523,0.1297 -0.0859,0.40722 -0.0859,0.80078 0,0.78713 0.13026,1.10841 0.28907,0.71484 0.1588,-0.39356 0.1588,-1.03807 0,-1.43163 -0.0794,-0.19679 -0.15079,-0.21368 -0.20313,-0.084 z m 234.56836,1.9375 c 0.70065,0.005 1.29263,2.04192 2.71875,9.34766 1.00284,5.1374 1.82041,10.35542 1.81641,11.59375 -0.006,1.90707 -1.21043,4.13557 -7.8711,14.57031 -4.32501,6.77568 -8.43995,13.11901 -9.14258,14.09766 -1.34419,1.87224 -3.33898,2.78574 -3.94531,1.80468 -0.36406,-0.58907 0.15628,-2.633 3.53906,-13.91015 4.08978,-13.63407 4.83233,-17.02339 4.27149,-19.46485 -0.31899,-1.38862 -1.15421,-2.79067 -2.12305,-3.56445 -1.91818,-1.53201 -7.01767,-2.68958 -9.85937,-2.23828 -3.67665,0.5839 -4.68709,2.427 -6.87891,12.55664 -1.07627,4.97407 -2.13093,9.15167 -2.34375,9.2832 -0.21282,0.13153 -0.55853,-3.03543 -0.76758,-7.03906 -0.20904,-4.00362 -0.53859,-9.23097 -0.73242,-11.61523 l -0.35156,-4.33399 5.08594,-4.3164 5.08788,-4.31641 10.29884,-1.23047 c 5.66515,-0.67709 10.70456,-1.22862 11.19726,-1.22461 z m -361.425782,0.16992 c 0.435542,-0.16713 5.868235,0.27543 12.072267,0.98438 l 11.281248,1.28906 3.14844,2.73047 c 1.731679,1.5024 3.773286,3.40319 4.537109,4.22265 l 1.388669,1.49024 -0.701172,10.90234 c -0.136216,2.11721 -0.254703,2.48399 -0.40625,4.2793 -0.09731,-0.0491 -0.174931,0.0625 -0.193358,0.50977 -0.0096,0.23376 0.08487,0.15217 0.117187,0.29101 -0.247507,2.78586 -0.525961,6.6499 -0.669922,7.03906 -0.460621,1.24517 -0.421791,1.38486 -4.128902,-14.92187 -1.158365,-5.09539 -1.309499,-5.39002 -3.138673,-6.1543 -3.742426,-1.56368 -10.303717,-0.34873 -12.867192,2.38282 -1.201551,1.28032 -1.392774,2.02347 -1.367185,5.30468 0.03008,3.85647 0.758601,6.80976 5.511721,22.32617 1.986205,6.48391 2.219189,7.7493 1.546873,8.40821 -1.404955,1.37693 -3.180319,-0.30473 -7.292969,-6.90626 -2.149143,-3.44975 -6.152328,-9.74424 -8.896482,-13.98827 -3.598321,-5.56508 -4.892862,-8.03888 -4.64453,-8.87305 0.368083,-1.23645 2.155136,-10.64543 3.248046,-17.09571 0.389236,-2.29725 0.99071,-4.0425 1.455075,-4.2207 z m 126.857422,1.32617 c -0.0523,0.1297 -0.0859,0.40722 -0.0859,0.80079 0,0.78713 0.13026,1.11036 0.28907,0.71679 0.1588,-0.39356 0.1588,-1.03807 0,-1.43163 -0.0794,-0.19679 -0.15079,-0.21564 -0.20313,-0.0859 z m 108.17774,3.88086 c -0.0602,0.0602 -0.10151,0.26031 -0.11524,0.59376 -0.0249,0.60346 0.11056,0.94217 0.30078,0.75195 0.19023,-0.19023 0.21029,-0.68442 0.0449,-1.09766 -0.0914,-0.22833 -0.17028,-0.30823 -0.23046,-0.24805 z m 0.0156,4.13477 c -0.0523,0.12969 -0.084,0.40722 -0.084,0.80078 0,0.78713 0.1283,1.10841 0.2871,0.71485 0.15881,-0.39357 0.15881,-1.03808 0,-1.43165 -0.0794,-0.19678 -0.15079,-0.21368 -0.20312,-0.084 z m -0.0156,2.16211 c -0.0602,0.0602 -0.10151,0.26031 -0.11524,0.59375 -0.0249,0.60346 0.11056,0.94218 0.30078,0.75195 0.19023,-0.19022 0.21029,-0.68441 0.0449,-1.09765 -0.0914,-0.22834 -0.17028,-0.30824 -0.23046,-0.24805 z m -61.8418,1.08398 c -1.18069,0.12351 -0.2149,0.22461 2.14648,0.22461 2.36138,0 3.32718,-0.1011 2.14649,-0.22461 -1.18069,-0.1235 -3.11228,-0.1235 -4.29297,0 z m 14.31054,0 c -1.18069,0.12351 -0.21294,0.22461 2.14844,0.22461 2.36138,0 3.32718,-0.1011 2.14649,-0.22461 -1.18069,-0.1235 -3.11423,-0.1235 -4.29493,0 z m -24.03515,0.006 c -0.87017,0.13157 -0.29301,0.24151 1.28125,0.24609 1.57425,0.004 2.28612,-0.10241 1.58203,-0.23829 -0.70409,-0.13585 -1.99311,-0.13939 -2.86328,-0.008 z m 32.34375,0.006 c -0.71209,0.13693 -0.26526,0.25342 0.99414,0.25977 1.2594,0.006 1.84224,-0.10477 1.29492,-0.24805 -0.54732,-0.14329 -1.57698,-0.14864 -2.28906,-0.0117 z m -26.30469,0.0137 c -0.45667,0.18274 -0.32117,0.31823 0.3457,0.34571 0.60347,0.0249 0.94218,-0.11056 0.75196,-0.30078 -0.19022,-0.1902 -0.68442,-0.21029 -1.09766,-0.0449 z m 30.33985,0 c -0.45667,0.18274 -0.32118,0.31823 0.3457,0.34571 0.60346,0.0249 0.94217,-0.11056 0.75195,-0.30078 -0.19022,-0.1902 -0.68441,-0.21029 -1.09765,-0.0449 z m 35.20312,1.88086 c -0.0523,0.1297 -0.084,0.40527 -0.084,0.79883 0,0.78713 0.1283,1.11036 0.2871,0.7168 0.15881,-0.39357 0.15881,-1.03808 0,-1.43164 -0.0794,-0.19678 -0.15079,-0.21368 -0.20312,-0.084 z m -186.63672,2.73438 c -0.0602,0.0602 -0.0995,0.26031 -0.11328,0.59375 -0.0249,0.60346 0.11056,0.94217 0.30078,0.75195 0.1902,-0.19022 0.21029,-0.68442 0.0449,-1.09765 -0.0914,-0.22833 -0.17223,-0.30824 -0.23242,-0.24805 z m 265.63477,9.28711 c -0.0523,0.12969 -0.084,0.40722 -0.084,0.80078 0,0.78713 0.13026,1.10841 0.28906,0.71484 0.15881,-0.39356 0.15881,-1.03807 0,-1.43164 -0.0794,-0.19678 -0.15274,-0.21368 -0.20507,-0.084 z m 0,4.00586 c -0.0523,0.12969 -0.084,0.40721 -0.084,0.80078 0,0.78712 0.13026,1.11036 0.28906,0.7168 0.15881,-0.39357 0.15881,-1.03808 0,-1.43165 -0.0794,-0.19678 -0.15274,-0.21563 -0.20507,-0.0859 z m -266.20703,3.30859 c -0.0602,0.0602 -0.0996,0.26031 -0.11329,0.59375 -0.0249,0.60346 0.10861,0.94217 0.29883,0.75195 0.1902,-0.19022 0.21225,-0.68441 0.0469,-1.09765 -0.0914,-0.22833 -0.17224,-0.30824 -0.23242,-0.24805 z m 266.19336,0 c -0.0602,0.0602 -0.1015,0.26031 -0.11524,0.59375 -0.0249,0.60346 0.11056,0.94217 0.30078,0.75195 0.1902,-0.19022 0.21029,-0.68441 0.0449,-1.09765 -0.0914,-0.22833 -0.17028,-0.30824 -0.23046,-0.24805 z m 9.57031,16.95703 c -0.0295,-0.0295 -0.26087,0.14202 -0.71485,0.49805 -0.55099,0.43212 -1.00195,0.88308 -1.00195,1.00195 0,0.47116 0.47091,0.16841 1.21875,-0.78516 0.35603,-0.45397 0.52759,-0.68529 0.49805,-0.71484 z" /><path
     style="fill:#ffffff;stroke:none;stroke-width:6.15;stroke-linecap:round;stroke-linejoin:round;stroke-dasharray:none"
     d="m 228.36773,132.98173 c -1.48109,-0.59502 -1.74331,-1.37095 -3.84708,-11.38346 -0.97855,-4.65723 -2.10194,-9.54012 -2.49641,-10.85087 -1.60837,-5.34418 -4.73689,-6.5558 -15.75229,-6.10057 -4.26005,0.17606 -7.10292,0.086 -7.75,-0.24548 -1.91119,-0.97909 -3.77195,-3.08477 -3.77195,-4.26845 0,-0.649 0.95625,-2.913155 2.125,-5.03145 L 199,91.25 199.30749,75 c 0.34617,-18.293904 0.65669,-20.260849 4.49475,-28.471507 C 210.67371,31.828558 226.09048,21.664858 243,20.686869 c 8.26715,-0.478143 18.80646,1.803247 26.67128,5.773396 9.16282,4.625373 17.15221,14.23034 20.82922,25.041201 2.36373,6.949674 2.74382,10.507745 2.72422,25.501849 l -0.0182,13.93009 2.26686,4.51359 c 2.45212,4.882475 2.48587,5.816495 0.28192,7.803005 -0.99534,0.89714 -2.01692,1.02571 -9.93238,1.25 -13.38938,0.37939 -13.61284,0.57939 -17.03843,15.25 -3.03772,13.0095 -3.42423,13.72467 -7.42726,13.74263 -1.46717,0.007 -1.74334,-0.22725 -2.58362,-2.18755 -1.14359,-2.66789 -1.58866,-2.97004 -4.31409,-2.92884 -3.35806,0.0508 -4.20122,0.52149 -5.22904,2.91928 -0.85908,2.00416 -1.10346,2.20448 -2.68937,2.20448 -1.31995,0 -1.96303,-0.31869 -2.64277,-1.30969 -1.68227,-2.45257 -3.17768,-3.58431 -5.03934,-3.81384 -2.8092,-0.34634 -4.02026,0.3336 -5.10612,2.86681 -0.87269,2.03591 -1.12808,2.25362 -2.61011,2.22502 -0.90352,-0.0174 -2.15229,-0.23639 -2.77504,-0.48657 z m 20.31928,-17.20877 c 6.6064,-1.75834 8.99595,-8.42372 6.10276,-17.02296 -2.38707,-7.09497 -4.29039,-9.244295 -8.1896,-9.24813 -3.98818,-0.0039 -6.91539,3.107365 -8.86811,9.4258 -2.464,7.97279 -0.17346,15.05902 5.42444,16.78156 2.94098,0.90497 2.39354,0.89866 5.53051,0.0637 z M 224.99819,95.73001 c 3.91061,-2.354845 9.04576,-6.597815 12.65584,-10.45699 2.55913,-2.735725 3.0124,-3.524365 3.49624,-6.083125 0.63577,-3.36227 0.25958,-5.978995 -1.29361,-8.99813 C 236.79631,64.242982 234.37999,63.25 222.96465,63.25 c -7.95906,0 -8.0635,0.01438 -11,1.514266 -2.373,1.21207 -3.28121,2.042869 -4.55089,4.163012 -2.01097,3.357982 -2.90246,8.316562 -2.44273,13.586777 0.98491,11.290885 4.08348,14.91021 12.80838,14.961025 4.03394,0.02349 4.44802,-0.07661 7.21878,-1.74507 z m 56.53896,0.474985 c 2.13406,-1.04532 3.90197,-3.33541 4.74475,-6.14618 0.2983,-0.99485 0.66201,-4.958815 0.80826,-8.808815 0.24285,-6.393215 0.16965,-7.25419 -0.84453,-9.9324 -1.42694,-3.768212 -4.04709,-6.414269 -7.28038,-7.352352 -3.54808,-1.029412 -16.68935,-0.891201 -19.62329,0.206384 -3.32732,1.24475 -4.76741,2.510087 -6.29664,5.532565 -1.15868,2.290083 -1.40643,3.421178 -1.40643,6.420878 0,4.40643 0.80888,6.52696 3.67641,9.637855 2.64644,2.87105 8.84298,8.06574 12.1847,10.214685 2.45444,1.578365 2.58736,1.60379 7.29375,1.39502 3.35543,-0.148845 5.37874,-0.499185 6.7434,-1.16764 z"
     id="path490" /><path
     style="fill:#ffffff;stroke:none;stroke-width:3.075;stroke-linecap:round;stroke-linejoin:round;stroke-dasharray:none"
     d="m 212.61442,177.71491 c -4.59441,-1.16529 -19.59622,-5.97811 -20.05732,-6.4347 -0.1061,-0.10505 1.07515,-0.50348 2.625,-0.88539 3.26907,-0.80555 8.74321,-2.79004 11.4429,-4.14828 2.90691,-1.4625 3.9869,-2.68942 5.03918,-5.72475 0.36928,-1.0652 2.71082,-11.98883 2.71082,-12.64638 0,-0.069 0.2025,-0.12541 0.44999,-0.12541 0.56734,0 8.54483,3.91148 10.40702,5.10271 l 1.39175,0.89028 -0.41504,1.06601 c -0.61131,1.57013 -6.0451,14.03298 -7.82226,17.941 -2.51642,5.5337 -2.74712,5.73213 -5.77204,4.96491 z"
     id="path491" /><path
     style="fill:#ffffff;stroke:none;stroke-width:3.075;stroke-linecap:round;stroke-linejoin:round;stroke-dasharray:none"
     d="m 244.81687,161.35854 c -0.0998,-0.0998 -0.92828,-0.20798 -1.84114,-0.24045 -1.06509,-0.0379 -1.74457,-0.18157 -1.89654,-0.40106 -0.23592,-0.34075 -0.0985,-5.34427 0.20823,-7.5822 L 241.44296,152 h 5.46602 5.46602 v 1.75 c 0,1 -0.10714,1.75 -0.25,1.75 -0.1375,0 -0.25,0.3375 -0.25,0.75 0,0.4125 0.1125,0.75 0.25,0.75 0.1375,0 0.25,0.44336 0.25,0.98525 0,0.54188 -0.1125,1.05477 -0.25,1.13975 -0.1375,0.085 -0.25,0.47873 -0.25,0.875 0,0.39627 0.1125,0.79002 0.25,0.875 0.58064,0.35886 0.22229,0.67545 -0.5625,0.49695 -0.97512,-0.22178 -3.58666,-0.21915 -5.31336,0.005 -0.68798,0.0894 -1.3325,0.081 -1.43227,-0.0188 z"
     id="path492" /><path
     style="fill:#ffffff;stroke:none;stroke-width:3.075;stroke-linecap:round;stroke-linejoin:round;stroke-dasharray:none"
     d="m 276.88735,177.76235 c -0.72307,-0.72307 -1.47328,-2.30085 -4.77663,-10.04583 -3.03463,-7.11495 -5.48572,-13.38928 -5.48572,-14.04243 0,-0.41063 2.02088,-1.76969 5.38306,-3.62018 2.42662,-1.33556 5.78368,-3.05391 5.96631,-3.05391 0.22743,0 0.64941,1.7198 1.28818,5.25 1.3988,7.73069 2.35153,10.46934 4.27926,12.30094 1.24856,1.1863 8.36306,4.34026 13.14569,5.82767 1.20313,0.37418 2.1875,0.76855 2.1875,0.8764 0,0.2353 -0.0158,0.24112 -7.78687,2.86645 -5.47427,1.8494 -11.05387,3.55776 -13.02182,3.98702 -0.49027,0.10695 -0.82381,0.009 -1.17896,-0.34613 z"
     id="path493" /><path
     style="fill:#ffffff;stroke:none;stroke-width:3.075;stroke-linecap:round;stroke-linejoin:round;stroke-dasharray:none"
     d="m 237.875,318.175 c 0,-5.40129 0.0946,-8.9196 0.24384,-9.06884 0.15845,-0.15844 0.14401,-0.56908 -0.0412,-1.17261 -0.21546,-0.70205 -0.21332,-1.08622 0.009,-1.57368 0.18905,-0.41492 0.2113,-0.79237 0.0624,-1.05843 -0.13994,-0.25005 -0.14133,-0.58187 -0.004,-0.83937 0.26161,-0.48882 0.0559,-1.21207 -0.34483,-1.21207 -0.14907,0 -0.067,-0.1492 0.18239,-0.33155 0.49406,-0.36127 0.35534,-1.41525 -0.18721,-1.42228 -0.18545,-0.002 -0.16365,-0.0874 0.0585,-0.228 0.42572,-0.26947 0.47526,-1.82503 0.0625,-1.96261 -0.16042,-0.0535 -0.28995,-0.45348 -0.28784,-0.88889 0.003,-0.53633 0.0729,-0.68275 0.21783,-0.45396 0.31821,0.50213 0.59468,-1.72465 0.38649,-3.11292 -0.11674,-0.77852 -0.24164,-1.04108 -0.38649,-0.8125 -0.1177,0.18574 -0.22067,0.22521 -0.22881,0.0877 -0.24131,-4.07441 -0.77357,-5.0211 -2.70093,-4.80386 -1.38463,0.15607 -2.14517,0.68135 -13.29192,9.18035 -14.35377,10.94423 -29.4563,22.27087 -31.83954,23.87911 l -2.21453,1.4944 -7.53547,-0.0106 c -7.98957,-0.0113 -9.21432,-0.14519 -11.41046,-1.24749 -2.24812,-1.12839 -3.33668,-2.68077 -4.37692,-6.24187 -0.88335,-3.024 -1.1612,-7.55116 -0.5038,-8.20856 0.51311,-0.51312 0.92519,-0.47367 6.25572,0.59884 4.00622,0.80606 7.74755,1.23472 10.77649,1.23472 1.23234,0 2.09851,0.10319 2.09851,0.25 0,0.32581 1.43276,0.3265 1.54167,7.5e-4 0.0458,-0.13709 1.03958,-0.36672 2.20833,-0.51028 5.51222,-0.67711 4.97698,-0.32964 31.71758,-20.59051 7.60381,-5.76127 14.52767,-11.1673 15.38635,-12.01339 2.55743,-2.51993 3.39607,-4.81547 3.39607,-9.29569 0,-1.39392 0.10113,-2.34088 0.25,-2.34088 0.1375,0 0.25,-0.61875 0.25,-1.375 0,-0.75625 -0.1125,-1.375 -0.25,-1.375 -0.1375,0 -0.25,-0.225 -0.25,-0.5 0,-0.275 0.1125,-0.5 0.25,-0.5 0.1375,0 0.25,-0.3375 0.25,-0.75 0,-0.4125 -0.1125,-0.75 -0.25,-0.75 -0.1375,0 -0.25,-0.16875 -0.25,-0.375 0,-0.20625 0.1125,-0.375 0.25,-0.375 0.1375,0 0.25,-0.3375 0.25,-0.75 0,-0.4125 -0.1125,-0.75 -0.25,-0.75 -0.1375,0 -0.25,-0.38711 -0.25,-0.86024 0,-0.47314 0.1125,-0.92978 0.25,-1.01476 0.31491,-0.19462 0.33105,-1.625 0.0183,-1.625 -0.12742,0 -0.27367,0.19688 -0.325,0.4375 -0.0513,0.24063 -0.16536,-0.7645 -0.25339,-2.23362 -0.27789,-4.63768 -0.94993,-5.82989 -3.26384,-5.79005 -2.09577,0.0361 -13.5154,3.32694 -31.43641,9.05917 -9.83103,3.14456 -14.6948,4.527 -15.92716,4.527 -1.26347,0 -3.46636,-0.94396 -10.81253,-4.63329 -8.40715,-4.22216 -13.4423,-6.91408 -14.20756,-7.59571 -0.53737,-0.47865 -0.58942,-0.69634 -0.49984,-2.09015 0.11482,-1.7865 0.7903,-3.35356 2.11025,-4.89563 0.70961,-0.82901 1.01404,-1.0174 1.43631,-0.88879 0.29471,0.0898 3.51709,1.42967 7.16084,2.97757 7.70921,3.27494 11.5012,4.70192 13.7028,5.15654 2.08341,0.43023 2.72579,0.29488 18.6722,-3.93425 7.0125,-1.85977 15.73125,-4.17109 19.375,-5.13627 3.64375,-0.96517 7.66182,-2.08633 8.92905,-2.49147 4.55762,-1.45709 4.68593,-1.8032 4.69176,-12.65555 0.002,-4.29661 0.0886,-7.81223 0.19169,-7.8125 0.25905,-6.9e-4 0.23708,-1.19035 -0.025,-1.3523 -0.11686,-0.0722 -0.28546,-1.06324 -0.37467,-2.20226 -0.0892,-1.13902 -0.2873,-2.51877 -0.44021,-3.06612 -0.35663,-1.27665 -1.60868,-3.09886 -2.3133,-3.36676 -0.72762,-0.27664 -6.66168,-0.67573 -15.53435,-1.04475 l -7.25,-0.30153 -12.5,-4.47925 c -6.875,-2.46359 -17.1125,-6.0888 -22.75,-8.05602 -16.86066,-5.88359 -18.14647,-6.23476 -22.875,-6.24745 -3.36776,-0.009 -3.37902,-0.007 -5.25,0.88968 -2.54861,1.22162 -4.324,2.61345 -12.24713,9.60126 -7.09219,6.25495 -10.02308,8.625 -10.66599,8.625 -0.74725,0 -12.90583,-7.29575 -14.27438,-8.56533 -1.00544,-0.93274 -0.75312,-1.53703 2.53018,-6.05967 2.18884,-3.01505 7.69799,-10.15404 9.59616,-12.4351 3.09584,-3.72033 3.97481,-3.95631 19.78819,-5.31265 l 7.35203,-0.6306 3.39797,1.27252 c 7.41704,2.77764 16.47184,6.25553 28.39797,10.90747 24.67351,9.62422 29.42325,11.16779 36.38475,11.82428 2.97327,0.28039 7.40465,0.14673 9.70842,-0.29283 2.5376,-0.48417 4.31653,-2.96167 5.40168,-7.52289 0.335,-1.40811 0.74036,-3.3477 0.9008,-4.3102 0.18052,-1.08305 0.47037,-1.92045 0.76052,-2.19724 0.25786,-0.24598 0.46883,-0.64708 0.46883,-0.89132 0,-0.41743 0.49261,-0.44114 8.20509,-0.39499 4.5128,0.027 8.57023,0.12929 9.01651,0.22731 0.48727,0.10703 1.11,0.0545 1.55882,-0.13136 0.56112,-0.23242 0.8187,-0.23828 1.03349,-0.0235 0.35254,0.35254 1.35125,0.37563 1.56109,0.0361 0.085,-0.1375 0.45725,-0.24958 0.82726,-0.24907 0.66575,9.1e-4 0.68464,0.0498 1.81748,4.69979 1.67271,6.86601 3.01254,9.35708 5.61833,10.44585 2.20254,0.92028 8.63865,1.02505 13.95387,0.22714 4.93109,-0.74025 15.55899,-4.37805 34.53306,-11.82024 14.30272,-5.60995 27.78277,-10.55721 30.5,-11.19368 2.08241,-0.48778 4.2153,-0.39719 12.625,0.53621 6.20958,0.68921 9.78883,1.21924 10.93758,1.6197 0.44237,0.15421 1.44457,1.07143 2.42352,2.21802 5.16825,6.05327 13.1389,17.30036 13.1389,18.53982 0,0.25094 -0.64832,0.94612 -1.47715,1.58388 C 378.3413,199.95938 367.75833,206 366.69433,206 c -0.78015,0 -2.96508,-1.72955 -8.19433,-6.48655 -10.15841,-9.24098 -13.86487,-12.13315 -16.54936,-12.91356 -1.06476,-0.30953 -2.08605,-0.38239 -4.17984,-0.29819 -2.68306,0.1079 -2.95684,0.17511 -8.6458,2.12225 -3.23125,1.10594 -9.98125,3.49707 -15,5.31362 -5.01875,1.81654 -14.4125,5.15797 -20.875,7.42539 l -11.75,4.12258 -3.875,0.0907 c -6.527,0.1527 -15.47724,0.61617 -16.54886,0.85695 -1.33051,0.29894 -2.82834,1.76608 -3.31842,3.25041 -0.71396,2.16244 -1.14803,7.3827 -1.15508,13.89144 -0.007,6.17848 0.24302,9.15076 0.89998,10.71224 0.4238,1.00731 1.50325,2.03426 2.63533,2.50715 0.48836,0.204 8.25086,2.33943 17.25,4.74541 27.92971,7.46718 28.52656,7.60429 31.09653,7.14334 2.05075,-0.36781 6.91561,-2.21409 13.5248,-5.13284 3.01989,-1.33365 5.94072,-2.47386 6.49072,-2.53382 0.90883,-0.0991 1.09916,-0.0102 2.08759,0.97476 1.25513,1.25072 1.71476,2.03862 1.80129,3.08777 0.21913,2.65696 -0.56219,3.31199 -10.84369,9.09097 -9.55144,5.36864 -12.00434,6.53002 -13.79171,6.53002 -1.08289,0 -5.49381,-1.23162 -17.00348,-4.74773 -13.74414,-4.19871 -23.69676,-7.13685 -27.58733,-8.14413 -4.00171,-1.03605 -4.89681,-0.94654 -5.89942,0.58992 -1.6417,2.51585 -2.31123,10.39349 -1.62033,19.06447 0.48796,6.12387 1.04684,7.99341 2.96214,9.90871 1.79041,1.79041 35.80399,27.00846 40.7025,30.17729 3.54949,2.29615 3.45985,2.27883 11.69244,2.25905 7.87794,-0.0189 9.86114,-0.20532 14.48478,-1.36132 1.64163,-0.41044 3.1442,-0.74626 3.33904,-0.74626 0.29239,0 0.32461,0.40391 0.18449,2.3125 -0.26845,3.65662 -0.86774,7.37714 -1.43064,8.88163 -0.64475,1.72323 -2.11087,3.2287 -4.09129,4.20107 L 322,323.625 l -7.44966,0.0793 -7.44965,0.0793 -2.55035,-1.55738 c -3.38941,-2.06974 -9.04086,-6.08728 -20.67534,-14.6978 C 260.64953,290.33957 259.07793,289.25 257.50993,289.25 c -1.5665,0 -1.80031,0.38662 -2.53863,4.19773 -0.061,0.31499 -0.22016,0.50523 -0.35363,0.42274 -0.14589,-0.0902 -0.24267,0.41013 -0.24267,1.25453 0,0.94433 0.0887,1.34969 0.27072,1.2372 0.19082,-0.11794 0.22067,0.41259 0.10113,1.79774 -0.0933,1.08079 -0.17927,8.01194 -0.19111,15.40256 -0.0203,12.6501 -0.0473,13.4375 -0.46138,13.4375 -0.24192,0 -0.50938,-0.1125 -0.59436,-0.25 -0.21742,-0.35179 -1.77788,-0.31134 -2.41105,0.0625 -0.42342,0.25 -0.55191,0.25 -0.64245,0 -0.13714,-0.37869 -2.71726,-0.43342 -2.9465,-0.0625 -0.085,0.1375 -0.53498,0.25 -1,0.25 -0.46502,0 -0.91502,-0.1125 -1,-0.25 -0.085,-0.1375 -0.81623,-0.25 -1.625,-0.25 -0.80877,0 -1.54002,0.1125 -1.625,0.25 -0.085,0.1375 -0.53498,0.25 -1,0.25 -0.46502,0 -0.91502,-0.1125 -1,-0.25 -0.085,-0.1375 -0.47873,-0.25 -0.875,-0.25 -0.39627,0 -0.79002,0.1125 -0.875,0.25 -0.53128,0.85963 -0.625,-0.42623 -0.625,-8.575 z m 72.5,-7.925 c 0,-0.1375 -0.33086,-0.25 -0.73524,-0.25 -0.40439,0 -0.80478,0.1125 -0.88976,0.25 -0.0919,0.14878 0.20574,0.25 0.73525,0.25 0.48936,0 0.88975,-0.1125 0.88975,-0.25 z"
     id="path494" /><path
     style="fill:#ffffff;stroke:none;stroke-width:3.075;stroke-linecap:round;stroke-linejoin:round;stroke-dasharray:none"
     d="m 186.375,230.40747 c -5.64425,-2.49675 -19,-9.51386 -19,-9.98259 0,-0.36682 7.27769,-7.49965 8.06834,-7.90775 0.65641,-0.33881 1.28879,-0.16214 11.875,3.31757 6.14991,2.0215 12.38668,3.95895 13.85947,4.30545 3.64261,0.85699 8.15057,1.49388 14.22672,2.00995 2.80251,0.23802 5.18282,0.5071 5.28957,0.59794 0.10676,0.0908 -1.18699,0.48036 -2.875,0.86561 -1.688,0.38524 -8.79701,2.26102 -15.79779,4.1684 -7.00077,1.90737 -12.96328,3.465 -13.25,3.46139 -0.28672,-0.004 -1.36506,-0.37979 -2.39631,-0.83597 z"
     id="path495" /><path
     style="fill:#ffffff;stroke:none;stroke-width:3.075;stroke-linecap:round;stroke-linejoin:round;stroke-dasharray:none"
     d="m 297.75,229.60638 c -8.9916,-2.41771 -22.48378,-5.75747 -24.75,-6.12644 l -2,-0.32563 1.07162,-0.31393 c 0.58939,-0.17265 3.23314,-0.55131 5.875,-0.84145 9.65255,-1.0601 16.83939,-2.64751 24.92838,-5.50611 11.01712,-3.89339 11.33519,-3.99282 12.77302,-3.99282 1.14522,0 1.58051,0.13016 2.37697,0.71074 1.27497,0.92939 5.66456,5.51974 6.53244,6.8312 l 0.67821,1.02485 -0.86782,0.74286 c -1.79128,1.53333 -18.63808,9.461 -20.02915,9.4252 -0.32377,-0.008 -3.28867,-0.74115 -6.58867,-1.62847 z"
     id="path496" /><path
     style="fill:#ffffff;stroke:none;stroke-width:3.075;stroke-linecap:round;stroke-linejoin:round;stroke-dasharray:none"
     d="m 303.85901,289.7129 c -10.34406,-6.96878 -30.10706,-21.46355 -29.52788,-21.65661 0.25667,-0.0856 7.84964,2.26036 22.11264,6.83191 5.74661,1.84189 11.42889,3.53292 12.6273,3.75783 4.02043,0.75456 5.64547,0.33393 14.30393,-3.70242 3.09375,-1.44223 6.17381,-2.82784 6.84457,-3.07913 1.14798,-0.43008 1.2379,-0.43182 1.53202,-0.0296 0.17186,0.23502 0.67053,1.78057 1.10816,3.43455 0.7892,2.98268 0.79193,3.01375 0.33503,3.80639 -0.53657,0.93084 -3.17026,2.96097 -9.44856,7.28324 -7.80318,5.37208 -9.20903,6.04775 -13.13721,6.31386 l -2.141,0.14505 z"
     id="path497" /><path
     style="fill:#ffffff;stroke:none;stroke-width:3.075;stroke-linecap:round;stroke-linejoin:round;stroke-dasharray:none"
     d="m 178.35734,292.15816 c -0.62847,-0.16945 -1.69722,-0.62897 -2.375,-1.02116 -2.98653,-1.72808 -15.89534,-10.71213 -16.75207,-11.65881 -0.40267,-0.44493 -0.41438,-0.61976 -0.12045,-1.79802 0.47643,-1.90982 1.7694,-5.93017 1.90718,-5.93017 0.0652,0 3.23803,1.33688 7.05076,2.97085 7.81282,3.34822 9.65337,3.9818 12.17021,4.18939 3.36612,0.27764 6.02481,-0.38683 22.38703,-5.59506 16.76442,-5.33626 17.56679,-5.58458 17.79682,-5.50791 0.12295,0.041 -0.48416,0.48271 -1.34914,0.98162 -0.86497,0.4989 -5.90393,4.08849 -11.19768,7.97686 -14.93624,10.97097 -20.91401,15.18687 -21.93613,15.47073 -1.27143,0.35309 -6.16917,0.30249 -7.58153,-0.0783 z"
     id="path498" /><path
     style="fill:#ffffff;stroke:none;stroke-width:3.075;stroke-linecap:round;stroke-linejoin:round;stroke-dasharray:none"
     d="m 110.19685,308.42719 c -3.86552,-7.63358 -7.59249,-13.93198 -9.05482,-15.30219 l -0.80043,-0.75 -4.0458,0.003 c -5.576654,0.004 -6.624797,0.2655 -8.412714,2.09528 -0.760697,0.77851 -3.101452,3.67717 -5.201677,6.44147 -3.769172,4.96096 -6.634611,8.33502 -7.078557,8.33502 -0.400337,0 -0.247563,-2.32906 0.52203,-7.95838 0.918022,-6.71502 1.380641,-9.20353 2.037165,-10.95825 0.443393,-1.18507 0.771218,-1.55562 2.680059,-3.0293 1.196179,-0.92349 4.069343,-2.97282 6.384808,-4.55407 5.283309,-3.60801 7.134846,-5.27513 8.137209,-7.3267 0.911688,-1.86598 2.115919,-6.23881 7.035737,-25.5483 6.56072,-25.74975 7.34974,-28.606 8.18821,-29.64147 0.43024,-0.53132 0.52498,-0.5459 1.67164,-0.25716 1.73478,0.43682 5.02271,1.73585 5.32965,2.10569 0.28313,0.34114 -0.63978,4.92059 -5.92869,29.41794 -3.3609,15.56716 -4.78567,22.62463 -4.78567,23.70541 0,1.85218 1.40803,4.22176 4.98368,8.38705 1.19658,1.3939 2.60397,3.09556 3.12753,3.78147 0.95001,1.24457 0.95166,1.25092 0.81497,3.12409 -0.27864,3.81833 -3.18066,20.85273 -3.62942,21.30417 -0.0969,0.0975 -0.98559,-1.42129 -1.97491,-3.375 z"
     id="path499" /><path
     style="fill:#ffffff;stroke:none;stroke-width:3.075;stroke-linecap:round;stroke-linejoin:round;stroke-dasharray:none"
     d="m 84.125,419.83616 c -5.32944,-0.79886 -18.777222,-3.07347 -19.005761,-3.21472 -0.288454,-0.17827 -0.309946,-0.0122 1.293543,-9.99644 1.250002,-7.78323 9.329517,-64.11443 10.624408,-74.07445 l 0.692226,-5.32445 4.010292,-2.39287 c 2.205661,-1.31608 5.715804,-3.61476 7.80032,-5.10817 2.084515,-1.49342 4.091825,-2.85281 4.460687,-3.02087 0.60177,-0.27419 0.72068,-0.24259 1.157653,0.30762 0.615662,0.7752 6.553602,9.71643 6.972222,10.49863 0.39424,0.73665 0.38881,0.74123 -5.925857,4.99911 -5.33752,3.599 -7.634967,5.4081 -8.33976,6.56704 -0.981494,1.61393 -1.931278,7.02374 -5.363299,30.54841 -1.183535,8.1125 -2.48711,16.8875 -2.896833,19.5 -1.501781,9.57574 -1.735692,11.38479 -1.751455,13.5456 -0.01899,2.60372 0.207426,3.31701 1.318586,4.15394 1.492165,1.12391 5.639036,3.32882 8.069728,4.29071 l 2.3833,0.94314 v 1.08694 c 0,0.59782 -0.22466,2.24406 -0.499243,3.65831 -0.274584,1.41425 -0.499584,2.59145 -0.5,2.616 -4.16e-4,0.0246 -0.177543,0.22143 -0.393614,0.4375 -0.459227,0.45923 -0.919159,0.45688 -4.107143,-0.021 z"
     id="path500" /><path
     style="fill:#ffffff;stroke:none;stroke-width:3.075;stroke-linecap:round;stroke-linejoin:round;stroke-dasharray:none"
     d="m 95.444436,392.8125 c 0.460595,-3.19217 3.637317,-20.96448 4.691454,-26.24655 2.10026,-10.52394 3.44848,-15.53711 4.33649,-16.12462 1.08358,-0.7169 2.44254,0.45281 4.20653,3.62072 l 1.17484,2.10987 -4.5854,12.35154 c -8.354372,22.5039 -9.412891,25.22654 -9.807687,25.22654 -0.08332,0 -0.09063,-0.42187 -0.01623,-0.9375 z"
     id="path501" /><path
     style="fill:#ffffff;stroke:none;stroke-width:3.075;stroke-linecap:round;stroke-linejoin:round;stroke-dasharray:none"
     d="M 79.470389,484.77069 C 78.122784,483.94973 76.88894,482.19793 69.859326,471.125 62.833122,460.05744 62.074892,458.82956 61.314527,457.28751 l -0.78277,-1.58749 0.573808,-2.91251 c 0.315594,-1.60188 1.066335,-5.61251 1.668314,-8.91251 1.36638,-7.49039 1.783725,-9.23651 2.324645,-9.72604 0.520647,-0.47118 2.016847,-0.36693 14.737884,1.02684 l 8.586407,0.94077 3.538593,3.15918 c 1.946225,1.73756 3.97959,3.62003 4.51859,4.18328 l 0.979995,1.02409 -0.310383,5.07094 c -0.17071,2.78902 -0.429675,6.13969 -0.575477,7.44594 -0.29181,2.61432 -0.32397,2.98837 -0.570263,6.63237 -0.09321,1.37906 -0.255297,2.89781 -0.360195,3.375 l -0.190727,0.86763 -0.40996,-1.375 c -0.22548,-0.75625 -1.26611,-5.08544 -2.31251,-9.62042 -1.0464,-4.53499 -2.049188,-8.529 -2.228418,-8.87559 -0.81561,-1.57722 -2.73467,-2.31865 -6.00206,-2.31889 -4.915066,-3.6e-4 -8.945594,1.89419 -10.021129,4.71043 -0.35274,0.92364 -0.400811,1.65704 -0.281619,4.29661 0.175502,3.88659 0.648435,5.86492 4.31686,18.05786 2.080347,6.91456 2.677431,9.22677 2.703031,10.4675 0.02906,1.40853 -0.02832,1.61557 -0.496754,1.79227 -0.356901,0.13464 -0.764537,0.0567 -1.25,-0.23908 z"
     id="path502" /><path
     style="fill:#ffffff;stroke:none;stroke-width:3.075;stroke-linecap:round;stroke-linejoin:round;stroke-dasharray:none"
     d="m 232.625,356.13975 c 0,-0.33563 0.1125,-0.67977 0.25,-0.76475 0.1375,-0.085 0.25,-0.92873 0.25,-1.875 0,-0.94627 -0.1125,-1.79002 -0.25,-1.875 -0.1471,-0.0909 -0.25,-1.57297 -0.25,-3.60087 v -3.44635 l 3.5625,-0.16298 c 4.58076,-0.20955 12.86753,-0.20971 18.64742,-3.5e-4 l 4.54008,0.16445 v 0.97841 c 0,0.53812 -0.15873,1.13714 -0.35274,1.33115 -0.36155,0.36155 -0.26467,1.36154 0.1319,1.36154 0.12146,0 0.22084,0.16875 0.22084,0.375 0,0.20625 -0.1125,0.375 -0.25,0.375 -0.36588,0 -0.30786,1.93499 0.0625,2.08443 0.25,0.10088 0.25,0.13004 0,0.14583 -0.18776,0.0119 -0.3125,0.37488 -0.3125,0.90949 0,0.52951 0.10122,0.8272 0.25,0.73525 0.15877,-0.0981 0.25,0.58074 0.25,1.86025 V 356.75 H 246 232.625 Z"
     id="path503" /><path
     style="fill:#ffffff;stroke:none;stroke-width:3.075;stroke-linecap:round;stroke-linejoin:round;stroke-dasharray:none"
     d="m 239.41824,382.79691 c -0.18246,-0.12387 -1.40347,-0.16916 -2.71335,-0.10065 -1.86545,0.0976 -2.42935,0.0492 -2.60192,-0.22334 -0.12117,-0.19136 -0.22204,-2.51354 -0.22414,-5.16042 L 233.875,372.5 h 12.375 12.375 v 1.61025 c 0,0.88563 -0.1125,1.67977 -0.25,1.76475 -0.33591,0.2076 -0.31893,1.30289 0.0235,1.5145 0.1733,0.10711 0.21142,0.5475 0.10407,1.20226 -0.0932,0.56828 -0.15976,1.67792 -0.14798,2.46585 0.0203,1.35733 -0.0147,1.44273 -0.66657,1.625 -0.57054,0.15955 -11.31506,0.21225 -14.31299,0.0702 -0.48125,-0.0228 -1.49375,0.0285 -2.25,0.11393 -0.75625,0.0855 -1.52429,0.054 -1.70676,-0.0698 z"
     id="path504" /><path
     style="fill:#ffffff;stroke:none;stroke-width:3.075;stroke-linecap:round;stroke-linejoin:round;stroke-dasharray:none"
     d="m 201.9787,460.76203 c -5.22721,-3.75317 -9.441,-7.10364 -9.78751,-7.78225 -0.39335,-0.77032 -0.45639,-16.22978 -0.0662,-16.22978 0.1375,0 0.25,-0.39375 0.25,-0.875 0,-0.48125 -0.1125,-0.875 -0.25,-0.875 -0.1375,0 -0.25,-0.3375 -0.25,-0.75 0,-0.4125 0.1125,-0.75 0.25,-0.75 0.1375,0 0.25,-0.45 0.25,-1 0,-0.55 -0.1125,-1 -0.25,-1 -0.1375,0 -0.25,-0.5625 -0.25,-1.25 0,-0.6875 0.1125,-1.25 0.25,-1.25 0.1375,0 0.25,-0.3375 0.25,-0.75 0,-0.4125 -0.10561,-0.75 -0.23468,-0.75 -0.12908,0 -0.31221,-0.53437 -0.40696,-1.1875 -0.0948,-0.65312 -0.27226,-1.38048 -0.39448,-1.61635 -0.64071,-1.23651 -13.7322,-17.43511 -22.45002,-27.77826 -2.41387,-2.86391 -4.65944,-5.6585 -4.99015,-6.2102 l -0.60129,-1.00308 0.50728,-1.03981 c 0.49521,-1.01506 10.13813,-14.24695 12.64499,-17.35128 0.83781,-1.03749 1.68252,-1.77155 2.51722,-2.1875 1.2027,-0.59933 1.4487,-0.62578 5.76968,-0.62031 l 4.51341,0.006 11.63901,9.30679 c 22.27167,17.80888 26.37278,20.72646 30.09441,21.40953 0.81587,0.14974 2.67212,0.27272 4.125,0.27328 4.06718,0.002 9.01384,0.30117 8.86801,0.53712 -0.072,0.11652 0.54133,0.21186 1.36298,0.21186 0.82166,0 1.53142,-0.11056 1.57726,-0.24569 0.0494,-0.14572 2.98269,-0.34112 7.20833,-0.48018 3.91875,-0.12897 7.49734,-0.34998 7.95242,-0.49114 2.60916,-0.8093 7.0789,-4.07862 23.79758,-17.40635 16.64123,-13.266 15.60547,-12.51073 17.66051,-12.87798 2.06996,-0.36992 8.58966,-0.21474 9.75584,0.23221 0.87225,0.3343 2.97079,2.86517 8.65822,10.44191 5.05974,6.74055 7.42543,10.10291 7.42543,10.55379 0,0.73319 -3.37193,4.89798 -17.62837,21.77343 -6.18408,7.32014 -8.69005,10.51456 -10.3572,13.20255 l -1.24404,2.00581 0.15435,5.52224 c 0.11797,4.22057 0.0773,5.75571 -0.17253,6.51271 -0.25326,0.76738 -0.25998,1.0711 -0.0298,1.34841 0.31514,0.37972 0.22395,4.35777 -0.12043,5.2539 -0.0995,0.25884 -0.0519,0.67704 0.10562,0.92933 0.18357,0.29395 0.22985,1.00046 0.12884,1.96689 -0.11039,1.05613 -0.072,1.50816 0.12798,1.50816 0.15708,0 0.28561,0.36837 0.28561,0.81859 0,0.77177 -0.22195,0.97556 -3.88012,3.5625 -8.70967,6.15923 -9.5461,6.68549 -10.81275,6.80314 -1.14458,0.1063 -1.22977,0.0656 -2.68213,-1.28153 -0.825,-0.76523 -1.56669,-1.39389 -1.64819,-1.39701 -0.0815,-0.003 -2.59503,-2.59319 -5.5856,-5.75569 L 270.57882,447 h -3.47691 c -2.92392,0 -3.47691,-0.0596 -3.47691,-0.375 0,-0.29167 -0.33333,-0.375 -1.5,-0.375 -0.83333,0 -1.5,0.11111 -1.5,0.25 0,0.14403 -0.76828,0.24838 -1.8125,0.24617 -1.26253,-0.003 -1.69871,-0.0774 -1.4375,-0.24617 0.25437,-0.16438 -0.53449,-0.24357 -2.45225,-0.24617 -1.8221,-0.002 -2.77233,0.0851 -2.67275,0.24617 0.101,0.16342 -1.51729,0.24868 -4.67274,0.24617 -3.20906,-0.003 -4.70155,-0.0851 -4.45226,-0.24617 0.25437,-0.16438 -0.53449,-0.24357 -2.45225,-0.24617 -1.8221,-0.002 -2.77233,0.0851 -2.67275,0.24617 0.0944,0.1527 -0.28907,0.25 -0.98524,0.25 -0.62687,0 -1.13976,-0.1125 -1.13976,-0.25 0,-0.1375 -0.3375,-0.25 -0.75,-0.25 -0.4125,0 -0.75,0.1125 -0.75,0.25 0,0.1375 -0.62539,0.25 -1.38975,0.25 -0.86284,0 -1.33118,-0.0948 -1.23525,-0.25 0.0978,-0.15824 -0.53907,-0.25 -1.73524,-0.25 -1.03937,0 -1.88976,0.0963 -1.88976,0.2141 0,0.11775 -1.17858,0.27425 -2.61906,0.34776 -2.2473,0.1147 -2.78847,0.23025 -3.8125,0.81404 -0.72123,0.41116 -3.91371,3.41891 -8.06844,7.60156 -3.78125,3.80665 -7.16583,7.17119 -7.5213,7.47674 l -0.6463,0.55555 z M 266.375,446.5 c 0,-0.1375 -0.39375,-0.25 -0.875,-0.25 -0.48125,0 -0.875,0.1125 -0.875,0.25 0,0.1375 0.39375,0.25 0.875,0.25 0.48125,0 0.875,-0.1125 0.875,-0.25 z m -47.06258,-8.03839 c 4.77641,-0.42333 47.81,-0.41453 53.81258,0.011 3.24742,0.23022 4.8218,0.25077 5.28572,0.069 1.00652,-0.39436 8.68853,-10.18007 24.46656,-31.16662 11.4719,-15.25892 11.73755,-15.66706 11.26646,-17.30967 -0.81297,-2.83466 -4.16738,-6.37775 -7.47706,-7.89763 -0.95174,-0.43706 -1.62727,-0.53405 -3.66668,-0.52646 -2.91167,0.0108 -3.6818,0.31226 -6.42416,2.5144 -0.92079,0.7394 -1.73417,1.34436 -1.80752,1.34436 -0.33012,0 -20.15845,19.87326 -21.88612,21.93572 -2.27952,2.72124 -3.09813,4.18389 -4.51337,8.06428 -1.42373,3.90367 -1.89503,4.71059 -2.85067,4.88078 -0.74891,0.13337 -7.06327,0.20799 -15.89316,0.18783 -2.40625,-0.005 -6.4,-0.006 -8.875,-4e-5 -2.475,0.005 -6.7087,-0.008 -9.40823,-0.0293 l -4.90823,-0.0393 -0.61724,-1.3125 c -0.33947,-0.72187 -0.8189,-1.93125 -1.06539,-2.6875 -0.79891,-2.45111 -2.27839,-5.34748 -3.34039,-6.53948 -0.57062,-0.64047 -0.9779,-1.31977 -0.90507,-1.50957 0.14212,-0.37035 -1.09519,-1.70176 -1.66256,-1.78899 -0.18859,-0.029 -3.04289,-2.78882 -6.34289,-6.13295 -6.35546,-6.44045 -14.86741,-14.55509 -17.7008,-16.87458 -1.98344,-1.6237 -3.12834,-2.00759 -5.48893,-1.84049 -2.50116,0.17706 -4.54088,1.27076 -7.06893,3.79037 -2.272,2.26442 -3.10945,3.76255 -3.29376,5.8923 -0.11131,1.28609 -0.0499,1.48491 0.9168,2.96904 0.56986,0.87485 2.13532,2.9561 3.47881,4.625 5.31068,6.59698 22.43656,28.69482 28.28449,36.496 l 2.59492,3.46165 0.95112,-0.15209 c 0.52312,-0.0836 2.38553,-0.27922 4.1387,-0.4346 z"
     id="path505" /><path
     style="fill:#ffffff;stroke:none;stroke-width:3.075;stroke-linecap:round;stroke-linejoin:round;stroke-dasharray:none"
     d="m 380.39628,311.07904 c -0.14535,-0.53979 -0.88423,-4.80028 -1.64195,-9.46774 -0.75772,-4.66746 -1.52852,-9.41042 -1.71288,-10.5399 l -0.3352,-2.0536 2.71526,-3.27891 c 3.01912,-3.64585 4.75262,-6.10861 5.89949,-8.38137 l 0.76575,-1.51749 -2.20361,-10.23251 c -6.34658,-29.47052 -8.88315,-42.07539 -8.65227,-42.99529 0.19578,-0.78008 1.2941,-1.4723 3.35796,-2.11639 2.23001,-0.69594 3.41687,-0.66033 3.92672,0.11781 0.73004,1.11418 2.33649,6.76799 8.989,31.63635 4.99063,18.65589 6.06689,22.41044 6.88822,24.02965 0.63269,1.24733 3.29831,3.62826 6.45746,5.7678 5.94304,4.02494 8.47487,6.13461 9.2976,7.7473 0.81495,1.59743 2.86222,14.95685 2.68037,17.49068 -0.11815,1.64625 -0.79196,1.48048 -2.17632,-0.53543 -5.74067,-8.35951 -9.46558,-13.07115 -10.73545,-13.57925 -1.33303,-0.53338 -4.45767,-0.95644 -7.37696,-0.99881 -2.20948,-0.0321 -2.69734,0.0402 -3.75436,0.55616 -1.54144,0.75242 -2.93358,2.61075 -5.41706,7.23111 -3.27182,6.08702 -6.05275,11.15474 -6.38394,11.63353 -0.29676,0.42901 -0.34544,0.38647 -0.58783,-0.5137 z"
     id="path506" /><path
     style="fill:#ffffff;stroke:none;stroke-width:3.075;stroke-linecap:round;stroke-linejoin:round;stroke-dasharray:none"
     d="m 404.00087,419.9375 c -0.12293,-0.35423 -0.98766,-4.7715 -1.24493,-6.35942 -0.16286,-1.00516 -0.13053,-1.07524 0.81039,-1.75684 0.53901,-0.39046 2.58373,-1.55059 4.54383,-2.57808 4.09132,-2.14468 5.63182,-3.349 6.00567,-4.69506 0.60887,-2.19225 0.37347,-4.1684 -4.26046,-35.76495 -3.02451,-20.62268 -4.06441,-26.72656 -4.88997,-28.70239 -0.66168,-1.58362 -2.77041,-3.47099 -7.35918,-6.58663 -4.14305,-2.81302 -6.98122,-5.03661 -6.98122,-5.4695 0,-0.39742 5.57357,-9.17689 6.6418,-10.46213 0.4857,-0.58437 1.09907,-1.0625 1.36305,-1.0625 0.26398,0 1.63651,0.79652 3.05006,1.77005 1.41355,0.97352 4.67411,3.16249 7.24568,4.86438 3.41572,2.26054 4.7883,3.31229 5.09387,3.9032 0.27089,0.52384 1.24364,6.3637 2.7606,16.57312 3.12888,21.0579 4.95137,33.08244 7.46669,49.26425 3.64672,23.46042 3.63595,23.35568 2.44102,23.72728 -0.71946,0.22373 -21.81972,3.64772 -22.47904,3.64772 -0.0547,0 -0.14822,-0.14062 -0.20786,-0.3125 z"
     id="path507" /><path
     style="fill:#ffffff;stroke:none;stroke-width:3.075;stroke-linecap:round;stroke-linejoin:round;stroke-dasharray:none"
     d="m 395.29016,390.875 c -4.57423,-12.53353 -11.48792,-32.10959 -11.95034,-33.83728 -0.67268,-2.51333 -0.5227,-2.95852 1.69585,-5.03387 3.06988,-2.87172 3.66497,-2.45233 5.20108,3.66552 1.46379,5.82984 6.72231,36.3344 6.58606,38.20563 -0.0657,0.90192 -0.21599,0.60768 -1.53265,-3 z"
     id="path508" /><path
     style="fill:#ffffff;stroke:none;stroke-width:3.075;stroke-linecap:round;stroke-linejoin:round;stroke-dasharray:none"
     d="m 410.38609,484.88836 c -0.39024,-0.47021 0.057,-2.2601 3.28275,-13.13836 4.05968,-13.69047 4.94992,-17.67176 4.45015,-19.90182 -0.72981,-3.25657 -2.51167,-4.77883 -6.74399,-5.76148 -2.29562,-0.53298 -5.61813,-0.52839 -6.87159,0.01 -2.60279,1.11693 -3.37564,2.83048 -5.48457,12.16039 -0.63634,2.81513 -1.40243,6.01841 -1.70243,7.11841 l -0.54545,2 -0.17514,-1.17273 c -0.0963,-0.64501 -0.29983,-3.23251 -0.45221,-5.75 -0.15238,-2.5175 -0.45502,-7.08803 -0.67253,-10.15675 -0.2175,-3.06871 -0.35622,-5.60979 -0.30827,-5.64684 0.048,-0.0371 2.32556,-1.96513 5.06135,-4.28463 l 4.97416,-4.21727 8.90084,-1.0478 c 4.89546,-0.57629 9.75585,-1.1272 10.80085,-1.22425 l 1.90001,-0.17645 0.43617,1.08836 c 1.00232,2.50105 3.63881,16.66132 3.63881,19.5436 0,1.36654 -0.14377,1.85699 -1.08042,3.68553 -1.41506,2.76255 -9.79492,16.08792 -14.95956,23.7882 -1.92163,2.86509 -3.64142,4.05739 -4.44893,3.08439 z"
     id="path509" /></svg>
