<?xml version="1.0" encoding="UTF-8" standalone="no"?>
<!-- Created with Inkscape (http://www.inkscape.org/) -->

<svg
   width="512"
   height="512"
   viewBox="0 0 135.46667 135.46667"
   version="1.1"
   id="svg1"
   xml:space="preserve"
   xmlns="http://www.w3.org/2000/svg"
   xmlns:svg="http://www.w3.org/2000/svg"><defs
     id="defs1" /><path
     style="fill:#000000;stroke-width:0.691816"
     d="m 83.787368,125.95102 c -0.973838,-0.30594 -1.606755,-1.09224 -1.859901,-2.31064 -0.167646,-0.80688 -0.527775,-0.79403 -0.757652,0.027 -0.230336,0.82266 -1.049202,1.60412 -1.930989,1.84276 -0.684397,0.18522 -1.740999,0.13497 -5.235758,-0.24899 -3.205614,-0.3522 -3.689121,-0.70209 -4.163492,-3.01294 -0.125357,-0.61066 -0.427442,-0.48369 -0.814299,0.34226 -0.397001,0.84762 -0.921938,1.34654 -1.679932,1.59671 -0.437361,0.14433 -0.757659,0.12213 -1.941169,-0.13457 -0.77956,-0.16909 -2.164468,-0.46945 -3.077576,-0.66749 -2.541459,-0.55118 -2.630276,-0.63634 -3.374765,-3.23551 l -0.297455,-1.03848 -2.086039,-0.80867 c -3.677586,-1.42562 -6.442867,-2.22035 -9.553748,-2.74569 -1.0149,-0.17139 -1.865201,-0.29047 -1.889559,-0.26461 -0.02436,0.0259 -0.349036,1.56043 -0.721507,3.41015 -0.804531,3.99535 -1.10281,4.73014 -2.194259,5.40537 l -0.71694,0.44354 -3.813732,0.0473 c -2.520147,0.0312 -4.000546,-0.008 -4.364493,-0.11626 -0.70845,-0.2103 -1.549602,-0.95131 -1.855549,-1.63467 l -0.240167,-0.53643 -0.326323,0.61513 c -0.392264,0.73942 -1.303238,1.36687 -2.128549,1.46607 -0.330741,0.0398 -1.983154,0.10408 -3.67203,0.14296 -3.284457,0.0756 -3.85447,-0.005 -4.528187,-0.63758 -0.183208,-0.17212 -0.448138,-0.56804 -0.588733,-0.87982 l -0.255629,-0.56689 -0.457519,0.6744 c -0.80629,1.18848 -1.140987,1.27965 -4.697985,1.27965 -2.928556,0 -3.103014,-0.0159 -3.769217,-0.34397 -0.8291876,-0.40832 -1.3674891,-1.06527 -1.6597216,-2.02557 -0.3053687,-1.00347 -0.4886484,-18.38905 -0.2045549,-19.40373 0.2337698,-0.83494 1.1014135,-1.84502 1.8904965,-2.20086 0.526066,-0.23722 0.583779,-0.31162 0.50336,-0.648972 -0.04995,-0.20957 -0.142334,-0.48215 -0.205279,-0.60573 -0.174395,-0.3424 -3.6982091,-2.39514 -6.6444686,-3.87063 -2.3943614,-1.1991 -2.6564809,-1.36805 -2.902984,-1.87122 -0.3334788,-0.68069 -0.2353039,-1.37427 0.2814514,-1.9884 0.281002,-0.33395 0.7061842,-0.53925 1.8577564,-0.89702 1.6296541,-0.50629 6.1488755,-2.210494 6.9951198,-2.637871 0.498392,-0.251699 0.534479,-0.318489 0.630487,-1.167092 0.09116,-0.805758 0.06442,-0.955941 -0.255082,-1.432741 -0.429121,-0.640386 -2.4716593,-2.859451 -6.0032379,-6.52209 -2.4313037,-2.521521 -2.6177979,-2.753687 -2.6765838,-3.332037 -0.086121,-0.847288 0.3269212,-1.49722 1.0984111,-1.728362 0.4948779,-0.148271 1.1201278,-0.09006 4.5033493,0.419247 2.1607753,0.325284 4.4031413,0.629696 4.9830333,0.676478 l 1.05435,0.08505 0.163766,-0.621935 c 0.488834,-1.856431 0.944473,-3.411393 1.381948,-4.716174 0.524564,-1.564527 0.942991,-4.135454 1.273208,-7.822928 0.119959,-1.339562 0.185479,-4.246889 0.177946,-7.896041 C 17.023166,47.156326 16.78874,43.5768 16.027106,38.43212 15.611675,35.625968 14.538958,26.923006 14.278089,24.242332 c -0.03913,-0.402114 -0.212314,-1.925235 -0.384851,-3.384716 -0.294862,-2.494231 -0.299457,-2.69649 -0.07649,-3.36776 0.463546,-1.395609 1.427846,-2.199101 3.013146,-2.510672 0.925056,-0.181809 5.273781,-0.536585 9.212047,-0.751534 3.623639,-0.197777 11.448948,-0.189074 17.140054,0.01906 l 4.637991,0.169623 0.84537,-0.375537 c 1.485032,-0.659691 2.04264,-0.756131 4.354722,-0.753169 2.319019,0.003 3.732578,0.223858 6.580033,1.028217 1.720522,0.48602 4.093485,1.637364 4.807027,2.332333 1.080267,1.052149 1.285034,2.027615 0.98105,4.673528 -0.07367,0.64127 -0.16931,1.82395 -0.212525,2.628176 l -0.07857,1.46223 0.557153,0.385821 c 0.674444,0.467046 1.183905,1.456006 1.183905,2.298184 0,1.108326 -0.788104,2.185921 -1.780926,2.435104 -0.360056,0.09037 -0.377492,0.146494 -0.468639,1.508507 -0.05207,0.778056 -0.130758,1.90815 -0.174868,2.51132 l -0.0802,1.096672 0.595555,0.268525 c 1.900727,0.857008 1.677386,4.063875 -0.311269,4.469376 l -0.484778,0.09878 -0.0948,1.237198 c -0.05214,0.68046 -0.129114,1.878753 -0.17106,2.662874 -0.07529,1.407457 -0.07202,1.425673 0.255951,1.425673 0.496411,0 1.278765,0.591273 1.650281,1.247219 0.660075,1.165426 0.265345,2.570852 -0.877426,3.124059 -0.349772,0.169321 -0.713874,0.307857 -0.809117,0.307857 -0.308654,0 -0.133942,2.903271 0.263544,4.37942 0.136067,0.505315 0.204564,0.563801 0.765358,0.653475 1.481902,0.236965 2.599154,2.027979 1.997289,3.20176 -0.09007,0.175664 -0.352257,0.518873 -0.582632,0.762687 l -0.418863,0.443298 1.251854,1.603824 c 0.68852,0.882103 1.341405,1.727759 1.450856,1.879237 0.189136,0.261759 0.228597,0.263571 0.795967,0.03656 0.767706,-0.307175 1.251955,-0.297522 1.99463,0.03976 1.189528,0.540219 1.685914,1.901147 1.107186,3.035547 l -0.299693,0.587446 0.831916,0.803962 c 0.457554,0.44218 1.147321,1.05509 1.532816,1.362022 l 0.7009,0.55806 0.468884,-0.351813 c 0.659655,-0.494951 2.014937,-0.500612 2.70099,-0.01128 0.83029,0.592208 1.116599,1.47813 0.867288,2.683646 l -0.111342,0.538385 2.067682,1.495261 c 2.225746,1.609564 2.789823,2.225286 3.056307,3.33612 0.143671,0.59887 0.302513,0.820078 1.00095,1.393911 1.566634,1.28715 4.276521,2.384352 7.227679,2.926398 1.932954,0.355032 4.57519,0.665151 5.667187,0.665151 h 1.009874 l 0.291763,-0.987008 c 0.160467,-0.542849 0.453945,-1.612105 0.652165,-2.376117 0.48643,-1.874833 0.57865,-2.084668 1.11421,-2.535316 0.65284,-0.54933 1.58305,-0.543823 2.18917,0.01294 0.48512,0.445654 2.28055,3.462604 3.07623,5.169138 l 0.51178,1.097649 2.50765,-0.01431 c 1.79967,-0.01029 2.57109,-0.06697 2.73236,-0.200821 0.12359,-0.102569 0.94593,-1.251168 1.82743,-2.552437 0.8815,-1.301277 1.76456,-2.516617 1.96236,-2.70075 0.7625,-0.709816 2.2014,-0.494461 2.66322,0.398596 0.12867,0.248812 0.36242,1.389054 0.51946,2.533863 0.5236,3.817228 0.62574,4.474643 0.71385,4.595094 0.0482,0.06577 0.47336,0.247735 0.94496,0.404309 1.19061,0.395297 2.69778,1.466711 4.33347,3.080557 l 1.38911,1.370584 2.41268,-0.80764 c 1.32698,-0.444198 2.75576,-0.844544 3.17506,-0.889658 0.72468,-0.07799 0.78796,-0.05644 1.27946,0.435048 0.42883,0.42885 0.51706,0.62254 0.51706,1.13515 0,0.71406 -0.32165,1.33973 -2.95697,5.75173 l -1.73475,2.90432 0.24745,0.74502 c 0.1361,0.40976 0.35827,1.405832 0.49371,2.213482 l 0.24624,1.46846 0.60625,0.22428 c 0.88742,0.3283 1.60942,1.09558 1.85087,1.96693 0.42005,1.51587 1.06329,9.16507 0.92042,10.94507 -0.11789,1.46866 -0.79902,2.49238 -2.08589,3.13506 -0.5926,0.29596 -4.08816,1.40247 -7.00751,2.21822 -2.47458,0.69146 -3.21735,0.59149 -4.20851,-0.56648 l -0.49799,-0.58178 -0.16447,0.61451 c -0.47609,1.77877 -1.2839,2.21557 -5.5912,3.02329 -1.72691,0.32383 -3.35758,0.58879 -3.62372,0.58879 -1.08854,0 -2.04518,-0.75685 -2.51241,-1.9877 -0.14978,-0.39459 -0.32827,-0.70277 -0.39665,-0.68487 -0.0683,0.0179 -0.20671,0.43956 -0.30739,0.93701 -0.46068,2.27608 -1.64383,2.70591 -8.224765,2.98793 -2.226655,0.0954 -2.275386,0.091 -2.774756,-0.2521 -0.659514,-0.45312 -1.154774,-1.19867 -1.268439,-1.90951 -0.126802,-0.79296 -0.492141,-0.68206 -0.72205,0.21919 -0.228198,0.89453 -0.791655,1.62932 -1.567366,2.04396 -0.588841,0.31475 -0.774232,0.32876 -4.707219,0.35584 -2.251837,0.0155 -4.264437,-0.0252 -4.472445,-0.0906 z m 7.634079,-3.31426 c 0.05001,-0.0295 0.207389,-0.66365 0.349701,-1.40917 0.456933,-2.39379 0.696459,-2.61566 2.931113,-2.71504 2.344935,-0.1043 2.732666,0.184 3.205084,2.3831 0.138211,0.64339 0.300519,1.2222 0.360676,1.28625 0.105133,0.11194 5.379329,-0.26415 5.883369,-0.41952 0.25663,-0.0791 0.28972,-0.19238 0.56466,-1.93244 0.28089,-1.77786 0.76328,-2.12438 3.22013,-2.31323 1.90884,-0.14673 2.27307,0.12781 2.83402,2.13606 0.36778,1.31669 0.25489,1.27057 2.22729,0.90972 0.95077,-0.17395 2.20238,-0.42327 2.78137,-0.55407 l 1.05269,-0.23782 0.16151,-0.82659 c 0.57871,-2.9619 0.66193,-3.08309 2.48535,-3.61926 1.94511,-0.57196 2.5772,-0.24777 3.22442,1.65379 0.15845,0.46553 0.31667,0.92464 0.35159,1.02022 0.0468,0.12803 0.34471,0.097 1.13164,-0.11776 1.5647,-0.42708 6.00689,-1.85884 6.2402,-2.01129 0.16767,-0.10955 0.17321,-0.53428 0.0339,-2.59721 -0.20031,-2.96522 -0.43632,-5.8082 -0.53367,-6.42846 l -0.0711,-0.45289 -1.62705,0.49327 c -0.89488,0.27131 -3.24615,0.91872 -5.22504,1.43871 -8.05827,2.11742 -13.22713,2.98336 -22.6579,3.79585 -13.48403,1.1617 -23.938659,0.848 -32.118123,-0.96371 -2.882957,-0.63857 -6.574503,-1.61321 -8.998685,-2.37585 -11.221636,-3.53027 -17.557645,-4.57068 -32.601749,-5.35339 -3.152181,-0.164 -12.584035,-0.20356 -13.651439,-0.0572 l -0.678411,0.093 v 8.73182 8.73184 l 1.206338,0.0939 c 0.663488,0.0516 1.641932,0.0943 2.174321,0.0948 l 0.967981,6.9e-4 0.158053,-0.84078 c 0.08693,-0.46243 0.200641,-1.14653 0.252695,-1.52022 0.205006,-1.47176 0.958964,-2.03096 2.720082,-2.01743 2.114064,0.0162 2.54955,0.43639 2.760211,2.66304 0.198181,2.09472 -0.07448,1.91847 2.816619,1.82066 1.36426,-0.0462 2.534389,-0.13807 2.600288,-0.20426 0.0659,-0.0662 0.197141,-0.74544 0.291649,-1.50945 0.303903,-2.45677 0.625374,-2.77824 2.778244,-2.77824 h 1.34047 l 0.54513,0.54834 c 0.479542,0.48235 0.585479,0.72719 0.880489,2.03486 0.184448,0.81759 0.386878,1.56989 0.449844,1.67178 0.131552,0.21285 2.554173,0.29861 4.834318,0.17113 l 1.407047,-0.0786 0.477409,-2.72207 c 0.530579,-3.02521 1.035433,-4.95834 1.484802,-5.68544 0.354143,-0.57301 1.233723,-1.05774 1.919368,-1.05774 0.506416,0 4.749844,0.82215 6.410474,1.242 2.398703,0.60647 8.330237,2.62704 9.572943,3.26103 0.696224,0.35518 1.11989,1.06396 1.561582,2.61247 l 0.324786,1.13865 1.389118,0.33149 c 0.764015,0.18231 1.693544,0.37233 2.065621,0.42227 l 0.676502,0.0908 0.502662,-1.2959 c 0.763372,-1.96801 1.21055,-2.17781 3.700806,-1.73629 1.008231,0.17876 1.231997,0.27501 1.620258,0.69686 0.390626,0.42443 0.474931,0.66841 0.634556,1.83649 0.133261,0.97515 0.251497,1.38311 0.428284,1.47772 0.242946,0.13003 3.477164,0.45046 4.54654,0.45046 h 0.560563 l 0.330641,-1.33814 c 0.233794,-0.94618 0.449567,-1.47085 0.736663,-1.79123 l 0.406022,-0.45309 1.655823,0.0121 c 2.559238,0.0186 2.892183,0.30377 3.229968,2.76617 l 0.180535,1.316 1.316004,0.0891 c 1.253404,0.0849 5.016631,0.0107 5.20876,-0.10269 z m -7.07637,-14.64437 c 0.161785,-6.9204 3.323524,-15.077372 8.191756,-21.133867 0.502641,-0.625327 0.91389,-1.162951 0.91389,-1.194718 0,-0.03176 -0.213853,-0.100776 -0.475224,-0.153335 -1.066598,-0.214521 -5.452458,-1.579145 -6.508202,-2.024974 -0.622569,-0.262907 -1.48821,-0.723426 -1.923635,-1.023373 -0.435425,-0.29994 -0.840194,-0.493653 -0.89949,-0.430457 -0.05926,0.0632 -0.809593,1.661211 -1.667338,3.551142 -0.857737,1.889931 -1.933476,4.12714 -2.390524,4.97158 -0.735632,1.35915 -0.905867,1.5731 -1.483426,1.86434 -1.038284,0.52358 -1.785653,0.45365 -5.256241,-0.49179 -5.470305,-1.49018 -11.135834,-1.53581 -15.754883,-0.12692 -3.745445,1.14242 -7.002718,3.51432 -8.650455,6.29909 -0.509212,0.86061 -1.489486,3.379332 -1.489486,3.827112 0,0.0785 0.608653,0.25312 1.352563,0.38818 2.357772,0.42804 5.98703,1.37027 9.945539,2.58203 8.494246,2.60025 13.881703,3.73494 20.066724,4.22638 2.851168,0.22655 3.101925,0.24117 4.606023,0.26846 l 1.389122,0.0252 z m 7.577042,1.2752 c 12.787051,-0.62416 20.466091,-1.71272 30.480751,-4.32083 3.343,-0.87061 4.83967,-1.39128 4.76558,-1.65785 -0.0355,-0.12785 -0.10783,-0.46276 -0.16065,-0.74424 -0.0528,-0.28148 -0.15727,-0.7522 -0.2321,-1.04606 l -0.13607,-0.53429 -1.35071,-0.0564 c -1.64196,-0.0687 -2.46238,-0.41537 -3.55259,-1.501322 -1.43969,-1.43406 -1.98138,-3.32991 -1.46196,-5.11666 0.30654,-1.05447 1.40492,-2.23063 2.45907,-2.63321 0.38114,-0.14556 0.69299,-0.316 0.69299,-0.37875 0,-0.12683 -1.60775,-1.61611 -2.21805,-2.05461 l -0.39027,-0.28041 -0.16534,0.50098 c -0.26927,0.81588 -1.20399,1.74809 -2.22596,2.21997 -0.83424,0.38519 -1.06915,0.42577 -2.45775,0.42461 -1.35341,-0.002 -1.63368,-0.0473 -2.36517,-0.38902 -1.86776,-0.87266 -2.91363,-2.39042 -2.98953,-4.338365 l -0.0437,-1.12025 -1.0099,-0.04253 -1.00989,-0.04253 -0.0698,1.087012 c -0.0925,1.442033 -0.61935,2.396183 -1.84067,3.333793 -1.27428,0.97827 -2.32067,1.33933 -3.64431,1.25747 -2.57982,-0.15955 -4.349217,-1.97722 -4.541563,-4.665482 l -0.07164,-1.000773 H 97.89881 c -0.420575,0 -0.61481,0.148656 -1.48074,1.133235 -2.997952,3.40873 -5.843799,8.18561 -7.2086,12.09995 -1.041014,2.985692 -1.754011,6.644222 -1.754011,9.000202 v 1.01608 h 0.701299 c 0.385713,0 2.080074,-0.0673 3.765245,-0.14957 z m -47.704274,-9.17215 c 0.750752,-2.707582 2.203559,-5.081422 4.368055,-7.137262 2.998863,-2.84832 7.496029,-4.677254 12.777154,-5.196297 2.067964,-0.203241 6.050616,-0.09375 8.180214,0.224884 2.614834,0.391237 2.61561,0.405613 -0.07311,-1.352604 C 59.974983,80.42508 54.143872,74.911153 50.220635,68.431727 47.334791,63.665609 46.107726,59.544189 45.466378,52.463304 c -0.249968,-2.759816 -0.245145,-11.322507 0.0087,-15.538462 0.112683,-1.871076 0.156432,-3.450285 0.09722,-3.509352 -0.219083,-0.218551 -16.234388,-0.09882 -21.496419,0.160715 -2.810387,0.138612 -5.136017,0.278246 -5.16807,0.310298 -0.03205,0.03205 0.111463,1.165228 0.318922,2.518171 0.99295,6.475513 1.185909,9.342525 1.18413,17.593971 -0.0011,5.258968 -0.05669,7.246158 -0.26514,9.483058 -0.145038,1.556453 -0.23242,2.861199 -0.194181,2.899438 0.03824,0.03824 0.782654,0.3186 1.654259,0.623024 4.031295,1.408011 7.192524,3.196424 10.179148,5.758681 5.951809,5.106129 9.211009,11.48807 10.05675,19.692442 0.200954,1.94942 0.259153,7.06712 0.09176,8.068742 l -0.114393,0.68448 0.628896,0.14064 c 1.372026,0.30684 1.328596,0.33759 1.76983,-1.25371 z m -5.812992,-0.219342 c 0.16248,-1.15887 0.119156,-5.53749 -0.07198,-7.27458 -0.228307,-2.07496 -0.767299,-4.647629 -1.321356,-6.307007 -2.131274,-6.38309 -6.860082,-11.67778 -13.028242,-14.587291 -1.461026,-0.689164 -4.761247,-1.878278 -4.871551,-1.755285 -0.02867,0.03197 -0.318795,0.91353 -0.64472,1.959023 -3.704821,11.884271 -4.98367,20.95399 -3.80913,27.01469 l 0.162939,0.84078 H 18.5871 c 4.371331,0 9.544313,0.20342 14.619763,0.574902 1.970354,0.1442 3.92174,0.27126 4.336412,0.28232 l 0.753949,0.0201 z m 88.225137,-3.45479 c 0.87971,-1.18667 2.37608,-3.55293 2.29687,-3.63214 -0.10546,-0.10546 -2.33678,0.83394 -3.81886,1.60778 -1.28188,0.66929 -1.46813,0.815 -1.51002,1.18129 -0.099,0.8658 0.58576,1.7956 1.46391,1.98772 0.59062,0.12922 0.66279,0.0765 1.5681,-1.14465 z M 10.834746,93.209458 v -1.73161 l -1.5718972,0.62943 c -0.8645424,0.34621 -1.654147,0.63193 -1.7546753,0.63496 -0.4212167,0.0126 -0.082525,0.27733 1.5394696,1.20296 0.9426956,0.53798 1.7304409,0.98213 1.7505479,0.98701 0.0201,0.005 0.03656,-0.77036 0.03656,-1.72275 z M 116.92421,88.587835 c 0.60384,-0.252302 0.62744,-0.449729 0.22849,-1.911302 -0.15323,-0.561335 -0.35322,-1.415414 -0.44443,-1.897947 -0.27182,-1.438079 -0.30007,-1.535349 -0.44598,-1.535349 -0.22396,0 -1.4135,2.138952 -1.84022,3.308938 -0.37519,1.028713 -0.38097,1.087776 -0.14213,1.452295 0.4778,0.729218 1.66718,0.991618 2.64427,0.583365 z m -12.70134,-0.510022 c 0.90114,-0.409142 0.96418,-0.629163 0.57073,-1.991793 -0.52075,-1.803482 -1.41233,-3.866342 -1.67106,-3.866342 -0.0926,0 -0.8673,2.995741 -1.26313,4.884361 -0.0364,0.173693 0.12562,0.462288 0.431,0.767663 0.57018,0.570179 1.02401,0.618581 1.93246,0.206111 z M 77.830707,86.058032 c 1.635165,-3.534933 3.190267,-7.250126 3.183739,-7.606085 -0.0064,-0.33634 -0.275804,-0.600454 -1.702717,-1.667808 l -1.695399,-1.268187 -0.398418,0.294561 c -0.331087,0.244785 -0.411292,0.436556 -0.474608,1.134812 -0.254127,2.802557 -3.194723,4.365247 -5.781704,3.072524 -1.415967,-0.707567 -2.207724,-1.872964 -2.33303,-3.434018 -0.18676,-2.326623 1.196744,-4.101551 3.421641,-4.389699 l 0.75227,-0.09743 -1.748126,-1.555102 c -0.961469,-0.855307 -1.809311,-1.576825 -1.884093,-1.603375 -0.329435,-0.116962 -0.943041,0.613175 -1.189199,1.415039 -0.53835,1.753676 -1.974356,2.797729 -3.848045,2.797729 -2.346945,0 -4.138856,-1.62814 -4.287072,-3.895258 -0.113055,-1.729282 0.716921,-3.186068 2.239654,-3.931071 0.714883,-0.34976 0.920286,-0.383163 2.0068,-0.326352 0.665721,0.03481 1.341646,0.120653 1.502055,0.190763 0.217568,0.09509 0.152674,-0.05642 -0.255469,-0.596454 -0.300917,-0.39816 -1.053268,-1.480631 -1.67189,-2.405492 -0.618622,-0.92486 -1.169745,-1.735704 -1.224716,-1.801875 -0.05497,-0.06617 -0.365861,-0.04871 -0.690865,0.0388 -0.463628,0.124842 -0.669372,0.292498 -0.955134,0.778315 -0.743702,1.264347 -1.852005,1.880371 -3.383016,1.880371 -1.226688,0 -2.215566,-0.428162 -3.050539,-1.320817 -2.544238,-2.719996 -0.333759,-7.222649 3.358711,-6.841552 0.855373,0.08828 2.119249,0.701172 2.534468,1.229036 0.311742,0.396317 0.733681,0.441923 0.732115,0.07913 -6.08e-4,-0.140739 -0.07201,-0.683592 -0.158664,-1.206338 -0.08666,-0.522747 -0.201311,-1.805854 -0.254786,-2.851349 l -0.09723,-1.900898 -0.548335,-0.04538 c -0.323945,-0.02681 -0.548337,0.01941 -0.548337,0.112934 0,0.280838 -1.211801,1.482905 -1.821214,1.806585 -0.461265,0.244993 -0.84897,0.314703 -1.761248,0.316677 -1.024464,0.0023 -1.266486,-0.05103 -1.94821,-0.428674 -1.412847,-0.782643 -2.12589,-1.979986 -2.137871,-3.589926 -0.0068,-0.916348 0.05942,-1.234302 0.402863,-1.933689 1.252401,-2.550403 4.319457,-3.047704 6.522321,-1.057549 0.441652,0.399006 0.682672,0.505447 1.144509,0.505447 h 0.585038 l 0.10005,-2.522346 c 0.05503,-1.38729 0.13656,-2.736197 0.181183,-2.997571 0.07681,-0.4499 0.0574,-0.475225 -0.364273,-0.475225 -0.344266,0 -0.625831,0.180426 -1.239966,0.794559 -1.317694,1.317695 -2.974441,1.582132 -4.636291,0.740008 -2.661182,-1.348523 -3.083141,-4.906942 -0.818272,-6.90056 0.77287,-0.680306 1.476888,-0.921594 2.688985,-0.921594 1.17497,0 2.045997,0.390268 2.922853,1.309598 0.546555,0.57303 0.803589,0.737523 1.152441,0.737523 h 0.448994 l 0.09157,-1.060116 c 0.05036,-0.583064 0.128316,-1.882621 0.173226,-2.887904 0.04491,-1.005283 0.109834,-2.008738 0.144276,-2.229901 0.03444,-0.221161 -0.0015,-0.402111 -0.07994,-0.402111 -0.07842,0 -0.142567,0.08686 -0.142567,0.193014 0,0.330849 -1.015987,1.398614 -1.730396,1.818581 -0.614751,0.361384 -0.819778,0.401043 -2.071402,0.400679 -1.663159,-4.83e-4 -2.231254,-0.242002 -3.259614,-1.385785 -0.875256,-0.973496 -1.184843,-1.89903 -1.095559,-3.275258 0.102616,-1.581742 0.836452,-2.708646 2.221777,-3.411834 1.618273,-0.821432 3.558638,-0.57278 4.893128,0.627041 0.396722,0.356687 0.913337,0.686927 1.148033,0.733866 l 0.426722,0.08535 0.178729,-2.408556 c 0.0983,-1.324705 0.217403,-2.646869 0.26467,-2.938144 l 0.08594,-0.529589 -1.098676,-0.50762 c -1.267445,-0.585596 -3.700357,-1.287433 -5.575536,-1.608409 -2.427178,-0.415463 -5.114797,-0.203412 -5.346124,0.421806 -0.224836,0.607668 -0.441784,4.23579 -0.822731,13.758873 -0.122249,3.056059 -0.284563,6.444777 -0.360698,7.530482 -0.183182,2.612244 -0.178537,9.142229 0.0086,12.06589 0.447442,6.991067 1.353613,10.717511 3.583341,14.735778 3.478877,6.269402 7.951057,10.793775 16.669085,16.86362 2.838685,1.976412 7.625988,4.972731 8.011255,5.014154 0.06551,0.0072 0.385443,-0.562951 0.710955,-1.266646 z M 12.750046,79.95322 c 0.208701,-0.92486 0.340189,-1.682591 0.292195,-1.68385 -0.04799,-0.0014 -1.00657,-0.132857 -2.13017,-0.292444 -1.1235985,-0.159589 -2.0951465,-0.290162 -2.1589954,-0.290162 -0.063847,0 0.6909593,0.887807 1.6773504,1.972898 0.986391,1.085092 1.826452,1.973395 1.866801,1.974014 0.04035,6.03e-4 0.244118,-0.755596 0.452819,-1.680456 z m 60.497109,-2.791944 c 0.270747,-0.189641 0.324469,-0.345375 0.288426,-0.836129 -0.03542,-0.482216 -0.124881,-0.647967 -0.446406,-0.827072 -0.361112,-0.201145 -0.443115,-0.201152 -0.804227,-6.1e-5 -0.589361,0.328203 -0.640611,1.160098 -0.09777,1.587093 0.471109,0.37057 0.623977,0.381557 1.059981,0.07617 z m -8.602357,-7.370551 c 0.420759,-0.420759 0.378548,-1.080829 -0.09283,-1.451615 -0.211902,-0.166684 -0.466229,-0.303059 -0.565172,-0.303059 -0.09894,0 -0.35327,0.136375 -0.565173,0.303059 -0.517693,0.407217 -0.517693,1.033786 0,1.441003 0.484463,0.381079 0.849543,0.384246 1.223176,0.01061 z M 57.886006,59.766161 c 0.39431,-0.276185 0.437846,-1.01375 0.08299,-1.405869 -0.528753,-0.584265 -1.512679,-0.156502 -1.512679,0.657639 0,0.845743 0.738601,1.23229 1.429694,0.74823 z M 56.500004,48.853598 c 0.252685,-0.339974 0.26805,-0.450496 0.114245,-0.821813 -0.09774,-0.235958 -0.349616,-0.507343 -0.559733,-0.603078 -0.854644,-0.389403 -1.599382,0.913186 -0.913974,1.598594 0.406157,0.406157 0.983291,0.332415 1.359462,-0.173703 z m 0.394977,-10.354587 c 0.420759,-0.420759 0.378547,-1.08083 -0.09283,-1.451617 -0.211903,-0.166682 -0.46623,-0.303059 -0.565172,-0.303059 -0.09894,0 -0.353271,0.136377 -0.565173,0.303059 -0.710565,0.558931 -0.326517,1.744063 0.565173,1.744063 0.201056,0 0.497158,-0.1316 0.658003,-0.292446 z M 28.140627,29.951315 c 2.96379,-0.124126 8.145566,-0.225682 11.515058,-0.225682 5.867333,0 6.12635,-0.01146 6.12635,-0.271008 0,-1.354778 0.53056,-10.382889 0.655715,-11.157765 l 0.06282,-0.388938 -1.346272,-0.08893 c -2.821263,-0.186368 -13.31934,-0.3217 -16.187903,-0.208681 -3.245634,0.127876 -11.729912,0.693265 -11.824637,0.78799 -0.04945,0.04945 0.466634,5.11575 1.019798,10.011327 0.244018,2.159586 0.02358,1.993716 2.487311,1.871605 1.156678,-0.05733 4.527971,-0.205791 7.491762,-0.329916 z m 29.81447,-1.85657 c 0.868643,-1.026557 -0.695966,-2.535059 -1.645008,-1.586017 -0.43883,0.438829 -0.377539,1.107186 0.149903,1.634628 0.354584,0.354585 0.521401,0.423645 0.840782,0.348074 0.219138,-0.05185 0.513583,-0.230359 0.654323,-0.396685 z"
     id="path26" /><path
     style="fill:#ffffff;stroke:none;stroke-width:0.617524"
     d="m 18.539723,30.003026 c -0.247302,-0.377431 -1.4449,-11.341945 -1.259115,-11.52773 0.03719,-0.03719 1.340594,-0.161627 2.896448,-0.276521 5.786337,-0.427301 8.845842,-0.553485 13.372879,-0.551542 4.678651,0.002 11.842017,0.169543 12.500803,0.292367 l 0.374013,0.06973 -0.06774,0.571812 c -0.08753,0.738822 -0.356195,4.99868 -0.522062,8.277664 -0.07147,1.41274 -0.172937,2.615306 -0.225494,2.672371 -0.0556,0.06037 -3.330662,0.139153 -7.831678,0.188402 -7.143324,0.07816 -8.941419,0.129125 -15.386128,0.436065 -3.481938,0.165833 -3.647566,0.159269 -3.851924,-0.152619 z"
     id="path27" /><path
     style="fill:#ffffff;stroke:none;stroke-width:0.617524"
     d="M 75.495028,86.347577 C 69.025092,82.455109 62.829592,77.84284 59.192021,74.210719 56.052745,71.07615 53.697991,67.852604 51.931402,64.271286 49.942428,60.239134 49.186371,56.506733 48.84536,49.03658 c -0.132281,-2.897791 -0.07385,-8.506106 0.122851,-11.791622 0.06252,-1.0442 0.214183,-4.260554 0.337037,-7.147457 0.364075,-8.555287 0.555789,-11.786292 0.743797,-12.535375 0.09247,-0.368447 0.576797,-0.579206 1.665872,-0.724923 2.199664,-0.294312 6.355599,0.519437 9.386626,1.83794 l 0.841682,0.366133 -0.06314,0.670074 c -0.03473,0.368541 -0.141538,1.648302 -0.237363,2.843915 -0.09582,1.195612 -0.194582,2.194195 -0.219461,2.219073 -0.123576,0.123578 -0.67428,-0.153345 -1.403318,-0.705665 -1.071661,-0.811895 -1.796743,-1.076932 -2.947231,-1.077295 -2.687085,-8.47e-4 -4.438536,1.877988 -4.281382,4.592761 0.06341,1.095338 0.439045,1.920957 1.270667,2.792825 0.92188,0.966494 1.376696,1.15185 2.965294,1.208492 1.213792,0.04328 1.344972,0.02694 1.92823,-0.240083 0.704014,-0.322307 1.741208,-1.244007 2.007426,-1.783897 0.220012,-0.44618 0.219377,-0.568563 0.01439,2.769605 -0.09052,1.474163 -0.16538,2.818498 -0.166343,2.987414 -0.0016,0.275867 -0.0413,0.307117 -0.390404,0.307117 -0.31978,0 -0.522628,-0.121824 -1.144711,-0.687493 -0.415833,-0.378121 -1.032465,-0.817856 -1.370293,-0.977191 -0.53335,-0.25155 -0.761299,-0.289698 -1.731026,-0.289698 -0.99345,0 -1.186162,0.03407 -1.744933,0.308475 -0.775046,0.380619 -1.580121,1.223201 -1.976204,2.06827 -0.262097,0.559196 -0.299308,0.77743 -0.299308,1.755378 0,0.978776 0.0371,1.195954 0.300212,1.75736 0.383027,0.817268 1.195705,1.629936 2.047484,2.047459 0.602969,0.295561 0.775814,0.327263 1.784429,0.327285 1.314781,2.6e-5 1.593509,-0.114462 2.858874,-1.174269 0.734049,-0.614804 1.252484,-0.893924 1.395232,-0.751176 0.03066,0.03066 0.0032,0.978988 -0.06097,2.107396 -0.0642,1.128408 -0.116747,2.44113 -0.116784,2.917164 l -6.4e-5,0.865513 h -0.486042 c -0.327237,0 -0.598903,-0.0821 -0.831477,-0.251278 -0.18999,-0.138205 -0.578467,-0.419865 -0.863283,-0.625914 -0.829535,-0.600125 -1.616961,-0.8249 -2.731214,-0.779637 -0.728073,0.02957 -1.08209,0.102859 -1.50953,0.312481 -0.738709,0.362272 -1.485691,1.132877 -1.898542,1.95858 -0.308583,0.617165 -0.335039,0.762866 -0.335039,1.845186 0,1.100823 0.02302,1.221851 0.36404,1.914446 0.435462,0.884391 1.03101,1.451898 1.999002,1.904875 0.683098,0.319662 0.769474,0.332738 1.912323,0.289492 0.839388,-0.03176 1.303113,-0.101846 1.552461,-0.234628 0.466755,-0.248552 1.619174,-1.319585 1.816415,-1.688137 0.11597,-0.216688 0.242166,-0.289552 0.499282,-0.288276 0.189246,0.0011 0.399513,0.03863 0.467262,0.08376 0.07381,0.04917 0.154655,0.730993 0.201727,1.701398 0.0432,0.89064 0.128085,1.996263 0.188627,2.456936 0.295624,2.249438 0.327453,2.17677 -0.616607,1.407822 -0.885547,-0.721289 -1.695569,-1.007454 -2.856418,-1.009121 -0.786529,-0.0011 -1.055452,0.04788 -1.568603,0.285896 -2.607641,1.209489 -3.25669,4.560586 -1.290439,6.662663 0.765492,0.818375 1.560414,1.174544 2.748163,1.231331 1.717726,0.08213 2.725278,-0.396838 3.663181,-1.741381 0.378195,-0.542169 0.5736,-0.717492 0.912995,-0.819177 0.237498,-0.07115 0.501422,-0.102663 0.586502,-0.07001 0.08508,0.03265 0.662278,0.805868 1.282668,1.718271 0.620387,0.912402 1.338591,1.951111 1.596006,2.308243 l 0.468027,0.649333 -0.374243,-0.06973 c -0.205835,-0.03835 -0.851672,-0.07927 -1.435195,-0.09094 -0.94003,-0.01879 -1.130959,0.0122 -1.675185,0.271989 -1.430666,0.682918 -2.230732,1.86732 -2.32159,3.436839 -0.08145,1.407065 0.329804,2.49246 1.276734,3.369575 0.877605,0.812901 1.682255,1.108795 3.015232,1.108795 1.969619,0 3.189062,-0.838706 3.891253,-2.676319 0.155829,-0.4078 0.426519,-0.912976 0.601538,-1.122622 0.265565,-0.318103 0.356757,-0.363339 0.551178,-0.273418 0.351589,0.162619 3.378544,2.854315 3.318706,2.951134 -0.02863,0.04633 -0.302276,0.113863 -0.608103,0.150082 -2.169747,0.256977 -3.616097,2.368754 -3.24599,4.739389 0.235437,1.508022 1.003302,2.514896 2.435307,3.19332 0.674629,0.319611 0.847436,0.353409 1.806921,0.353409 0.934056,0 1.13655,-0.03712 1.693016,-0.310393 1.247418,-0.612582 1.993252,-1.656411 2.227197,-3.117059 0.120679,-0.753473 0.306673,-1.130544 0.647668,-1.31304 0.177453,-0.09497 0.420897,0.044 1.479746,0.844725 1.590244,1.202573 1.993265,1.586018 1.993265,1.896451 0,0.320355 -0.74222,2.1663 -2.128552,5.29385 -1.159595,2.616028 -1.536054,3.363828 -1.724374,3.425298 -0.06142,0.02006 -0.765003,-0.3566 -1.563508,-0.836999 z"
     id="path28" /><path
     style="fill:#ffffff;stroke:none;stroke-width:0.308761"
     d="m 56.788787,28.378844 c -0.199824,-0.125762 -0.495961,-0.453731 -0.61159,-0.677336 -0.232857,-0.450292 -0.119795,-0.962972 0.279533,-1.267553 0.180064,-0.137342 0.262654,-0.161462 0.552873,-0.161462 0.301183,0 0.373237,0.02302 0.614574,0.196377 0.382185,0.274523 0.548108,0.59994 0.519502,1.018884 -0.02508,0.367429 -0.132112,0.545018 -0.474375,0.787151 -0.292936,0.207235 -0.649507,0.249327 -0.880517,0.103939 z"
     id="path29" /><path
     style="fill:#ffffff;stroke:none;stroke-width:0.308761"
     d="m 55.834565,38.647035 c -0.231786,-0.14134 -0.401326,-0.366461 -0.471083,-0.62552 -0.105511,-0.391843 0.07326,-0.777364 0.487815,-1.051952 0.320368,-0.212203 0.429961,-0.213727 0.750512,-0.01045 0.591081,0.374854 0.720283,0.973614 0.310737,1.440061 -0.307615,0.350356 -0.74498,0.450916 -1.077981,0.247854 z"
     id="path30" /><path
     style="fill:#ffffff;stroke:none;stroke-width:0.308761"
     d="m 55.364011,49.146922 c -0.389882,-0.207463 -0.559279,-0.785255 -0.355886,-1.213877 0.30639,-0.645665 0.99695,-0.706395 1.418305,-0.12473 0.327974,0.452752 0.315806,0.733245 -0.04885,1.126048 -0.30335,0.326763 -0.658844,0.401315 -1.013569,0.212559 z"
     id="path31" /><path
     style="fill:#ffffff;stroke:none;stroke-width:0.308761"
     d="m 57.059702,59.911209 c -0.381151,-0.111651 -0.659776,-0.665636 -0.551995,-1.097521 0.136721,-0.547854 0.791797,-0.849587 1.244825,-0.573373 0.557104,0.339669 0.548611,1.248733 -0.01466,1.569217 -0.224838,0.127926 -0.465426,0.163997 -0.67817,0.101677 z"
     id="path32" /><path
     style="fill:#ffffff;stroke:none;stroke-width:0.308761"
     d="m 63.595048,69.841276 c -0.665927,-0.447495 -0.700768,-1.066345 -0.08526,-1.514428 0.358653,-0.261093 0.464992,-0.284017 0.716439,-0.154445 0.402323,0.20732 0.68721,0.598215 0.68721,0.942925 0,0.236955 -0.211386,0.604742 -0.437721,0.761595 -0.291743,0.202179 -0.541822,0.192056 -0.880671,-0.03565 z"
     id="path33" /><path
     style="fill:#ffffff;stroke:none;stroke-width:0.308761"
     d="m 72.378828,77.171369 c -0.617082,-0.391345 -0.709768,-1.075203 -0.207256,-1.529193 0.338432,-0.305753 0.556189,-0.327949 0.933284,-0.09513 0.28249,0.174408 0.368255,0.354946 0.395322,0.832165 0.02143,0.377922 0.0099,0.446211 -0.09854,0.583162 -0.134388,0.169725 -0.494594,0.375359 -0.657506,0.375359 -0.05663,0 -0.22102,-0.07486 -0.3653,-0.166362 z"
     id="path34" /><path
     style="fill:#ffffff;stroke:none;stroke-width:0.308761"
     d="m 42.451108,101.32572 c -0.299926,-0.0702 -0.556429,-0.13878 -0.570007,-0.15236 -0.01357,-0.0136 0.01534,-0.2498 0.06427,-0.52493 0.07293,-0.41012 0.08897,-0.968072 0.08901,-3.096793 7.4e-5,-3.516667 -0.09656,-5.040768 -0.462663,-7.296878 -0.501722,-3.091863 -1.378202,-5.893147 -2.652578,-8.477785 -1.411475,-2.862696 -3.129621,-5.208624 -5.562526,-7.594973 -2.459466,-2.412402 -4.881481,-4.137261 -7.837957,-5.581875 -1.288584,-0.629634 -2.142199,-0.984761 -3.950098,-1.64334 -0.759814,-0.276784 -1.434474,-0.531607 -1.499245,-0.56627 -0.135239,-0.07238 -0.141818,0.125778 0.09075,-2.733466 0.215393,-2.648069 0.251866,-4.02609 0.251991,-9.520637 1.96e-4,-8.562314 -0.130065,-10.714866 -1.013733,-16.751856 -0.361412,-2.469068 -0.479854,-3.413699 -0.433801,-3.459753 0.0727,-0.0727 5.046181,-0.336311 7.922203,-0.419896 6.208922,-0.180448 18.449354,-0.225057 18.605733,-0.06781 0.08961,0.09011 0.07774,1.07093 -0.04069,3.361142 -0.256854,4.967076 -0.255592,12.866511 0.0026,15.802584 0.51562,5.86517 1.606532,10.04279 3.623506,13.876118 2.955454,5.616943 7.401936,10.61892 13.853335,15.584012 1.874065,1.442307 3.991211,2.936221 6.551899,4.623189 1.4835,0.97732 1.963629,1.328536 1.963629,1.436396 0,0.08075 -0.35577,0.05756 -1.39599,-0.091 -2.226259,-0.317934 -5.278461,-0.467458 -7.454238,-0.36517 -4.288359,0.201602 -8.381424,1.380189 -11.466193,3.301656 -1.433116,0.892673 -3.108518,2.371522 -4.108053,3.626112 -1.342083,1.684544 -2.272401,3.525071 -2.91696,5.770863 -0.113242,0.39456 -0.259154,0.7966 -0.324247,0.89343 -0.108844,0.1619 -0.145124,0.17689 -0.451456,0.18651 -0.188127,0.006 -0.570434,-0.0451 -0.878419,-0.11722 z"
     id="path35" /><path
     style="fill:#ffffff;stroke:none;stroke-width:0.617524"
     d="M 33.782908,100.33848 C 27.666141,99.916559 25.393596,99.818653 19.990547,99.744268 l -5.137235,-0.07073 -0.192721,-1.060951 c -0.259592,-1.429083 -0.390485,-4.297158 -0.294379,-6.450279 0.185777,-4.162034 1.163105,-9.61897 2.767421,-15.451967 0.780875,-2.839114 1.893108,-6.481069 2.020588,-6.616319 0.192059,-0.203763 4.18542,1.310082 5.917722,2.243355 2.32077,1.250304 4.235371,2.712688 6.199863,4.735489 4.409242,4.540117 6.676745,10.025584 7.103378,17.184238 0.114149,1.915395 0.06553,5.346499 -0.08586,6.058586 -0.07769,0.36541 0.424034,0.36287 -4.506416,0.0228 z"
     id="path36" /><path
     style="fill:#ffffff;stroke:none;stroke-width:0.218328"
     d="M 11.783036,81.072661 C 10.963307,80.229437 9.1029406,78.156839 8.8557549,77.811434 l -0.0796,-0.111229 0.1328981,0.02172 c 0.073094,0.01196 0.9946476,0.138559 2.047896,0.281365 1.053249,0.142804 1.952089,0.267095 1.997421,0.276202 0.07753,0.01558 0.08042,0.03127 0.04866,0.264194 -0.08698,0.637993 -0.617066,2.921061 -0.69671,3.000703 -0.01804,0.01805 -0.253523,-0.194233 -0.523286,-0.471728 z"
     id="path37" /><path
     style="fill:#ffffff;stroke:none;stroke-width:0.218328"
     d="M 9.831641,94.363585 C 8.1065496,93.383938 7.4345963,92.966458 7.3881694,92.845472 c -0.014364,-0.03743 0.014131,-0.06364 0.085666,-0.0788 0.3146552,-0.06666 1.2957853,-0.435118 3.2758206,-1.23023 0.03902,-0.01566 0.04936,0.332396 0.04936,1.662496 0,0.925274 -0.01333,1.681877 -0.02961,1.681337 -0.01629,-5.29e-4 -0.438278,-0.23305 -0.9377572,-0.516694 z"
     id="path38" /><path
     style="fill:#ffffff;stroke:none;stroke-width:0.308761"
     d="m 85.937018,122.70217 c -0.122846,-0.0119 -0.402518,-0.0364 -0.621498,-0.0543 l -0.398137,-0.0326 -0.09559,-0.73574 c -0.220091,-1.69402 -0.406021,-2.36046 -0.768146,-2.75332 -0.425251,-0.46134 -1.036884,-0.57895 -3.01085,-0.57895 h -1.267584 l -0.309266,0.37259 c -0.386602,0.46576 -0.535139,0.83124 -0.869823,2.14019 l -0.264139,1.03303 -0.786601,-0.0108 c -1.066075,-0.0146 -3.654222,-0.25555 -4.19276,-0.39033 -0.202557,-0.0507 -0.324244,-0.40163 -0.482621,-1.39182 -0.180613,-1.12921 -0.270436,-1.43723 -0.517157,-1.77346 -0.401458,-0.54709 -0.793385,-0.72066 -2.098823,-0.92946 -0.986005,-0.15771 -1.898108,-0.14142 -2.241487,0.04 -0.478401,0.25279 -0.739606,0.66583 -1.26301,1.99717 -0.217699,0.55375 -0.404378,1.01588 -0.414843,1.02697 -0.06013,0.0637 -2.703949,-0.46489 -3.883318,-0.7764 -0.194363,-0.0513 -0.20446,-0.0673 -0.325882,-0.51388 -0.226029,-0.83139 -0.557692,-1.79434 -0.746599,-2.16768 -0.244758,-0.48371 -0.453864,-0.74044 -0.793004,-0.9736 -0.863237,-0.59347 -7.659666,-2.91187 -10.377758,-3.54007 -1.639596,-0.37894 -4.350361,-0.90687 -5.486685,-1.06855 -0.382956,-0.0545 -0.506847,-0.0506 -0.803802,0.0255 -0.726707,0.18617 -1.342588,0.65288 -1.614466,1.22343 -0.479433,1.00611 -0.855224,2.56609 -1.514042,6.28512 -0.181652,1.02542 -0.337571,1.8717 -0.346487,1.88062 -0.0089,0.009 -0.589995,0.0464 -1.291286,0.0832 -1.461947,0.0768 -4.158795,0.0436 -4.597633,-0.0566 -0.337992,-0.0772 -0.303162,-0.006 -0.601655,-1.23096 -0.477385,-1.95916 -0.520403,-2.0612 -1.135864,-2.69425 l -0.420727,-0.43276 -1.065226,5.3e-4 c -1.234223,5.3e-4 -1.672328,0.0562 -2.098196,0.26663 -0.557263,0.2754 -0.755216,0.73656 -0.979088,2.28092 -0.148587,1.02501 -0.270907,1.68007 -0.323546,1.73271 -0.08705,0.087 -2.622796,0.24208 -3.962098,0.24224 -1.120259,1.3e-4 -1.226445,-0.0856 -1.326984,-1.07184 -0.183934,-1.80422 -0.274475,-2.24479 -0.550866,-2.68052 -0.325564,-0.51325 -0.813825,-0.69795 -1.987243,-0.75175 -1.244022,-0.057 -1.965576,0.1247 -2.46058,0.6197 -0.354344,0.35435 -0.490665,0.6972 -0.642672,1.61638 -0.121705,0.73594 -0.315955,1.82774 -0.36205,2.03493 l -0.02887,0.12978 -1.044889,-0.0347 c -1.097753,-0.0365 -2.536405,-0.12094 -2.985312,-0.17529 l -0.265237,-0.0321 v -8.69944 -8.69944 l 0.572355,-0.0761 c 0.450852,-0.0599 1.680699,-0.075 5.79335,-0.071 5.284444,0.005 6.801314,0.0416 10.302391,0.24777 13.048264,0.7684 19.167915,1.80228 29.399506,4.96686 4.329581,1.33912 8.722096,2.46316 11.907198,3.04703 8.360915,1.53266 19.405928,1.62403 33.043612,0.27334 7.61733,-0.75443 12.34314,-1.60181 19.79511,-3.54943 2.23396,-0.58386 5.16678,-1.41012 6.62233,-1.8657 0.0735,-0.023 0.10015,0.0529 0.15212,0.43381 0.1543,1.1308 0.55007,6.26536 0.60372,7.83253 0.0258,0.75272 0.0168,0.96945 -0.0433,1.04674 -0.0928,0.11938 -0.97832,0.43383 -3.28348,1.16595 -2.07014,0.65748 -3.43007,1.04842 -3.79906,1.09212 -0.25251,0.0299 -0.26715,0.024 -0.32095,-0.12907 -0.60986,-1.73543 -0.73976,-2.02261 -1.0837,-2.39574 -0.47059,-0.51053 -1.1626,-0.57469 -2.42144,-0.22449 -1.82865,0.50872 -1.99594,0.72661 -2.51021,3.26949 -0.10869,0.53746 -0.20986,1.03018 -0.22482,1.09494 -0.0208,0.0903 -0.0957,0.13219 -0.32127,0.17975 -4.48725,0.94609 -5.13388,1.03441 -5.35899,0.73194 -0.0586,-0.0787 -0.22008,-0.51849 -0.35883,-0.97719 -0.13875,-0.4587 -0.32624,-0.98931 -0.41665,-1.17914 -0.19312,-0.4055 -0.55327,-0.74844 -0.89283,-0.85018 -0.45851,-0.13737 -2.1983,-0.0585 -3.06125,0.13876 -1.02158,0.23354 -1.44171,0.69414 -1.65131,1.81039 -0.049,0.26106 -0.14916,0.80914 -0.22253,1.21796 -0.0734,0.40882 -0.17196,0.80214 -0.21907,0.87404 -0.0673,0.10266 -0.16707,0.14347 -0.46484,0.19009 -0.75593,0.11833 -3.06982,0.30418 -4.686539,0.37642 -0.795285,0.0355 -0.848683,0.0315 -0.902251,-0.0686 -0.03131,-0.0585 -0.173492,-0.5835 -0.315962,-1.16666 -0.383009,-1.56775 -0.609592,-1.98592 -1.231009,-2.27193 -0.266247,-0.12254 -0.340053,-0.1285 -1.591426,-0.1285 -1.448322,0 -1.868117,0.0538 -2.319327,0.29734 -0.519324,0.28027 -0.711129,0.71506 -1.06294,2.40953 -0.265242,1.27753 -0.29083,1.34998 -0.498581,1.41205 -0.165256,0.0494 -4.871326,0.10605 -5.304753,0.0639 z"
     id="path39" /><path
     style="fill:#ffffff;stroke:none;stroke-width:0.308761"
     d="m 81.776974,109.33028 c -1.76676,-0.0711 -4.802132,-0.3312 -6.840342,-0.58606 -4.680556,-0.58526 -9.127207,-1.61211 -16.291232,-3.76206 -4.69659,-1.40947 -7.224938,-2.07557 -9.973249,-2.6275 -1.3799,-0.27712 -1.6832,-0.3657 -1.68319,-0.49158 2.2e-5,-0.27646 0.639086,-1.99677 1.116563,-3.005706 0.568786,-1.20187 1.180277,-2.032836 2.298079,-3.122882 1.32484,-1.291948 2.750198,-2.256547 4.564509,-3.088992 3.282196,-1.505943 7.770599,-2.134984 12.206828,-1.710765 1.943415,0.185841 3.386267,0.444884 5.500193,0.98747 2.881826,0.739688 3.321968,0.827818 4.125478,0.826056 0.914549,-0.0021 1.673781,-0.358508 2.11337,-0.992349 0.555922,-0.801579 1.421869,-2.535687 3.28217,-6.572729 0.636847,-1.382027 1.230275,-2.656626 1.318726,-2.832439 0.192521,-0.382677 0.153794,-0.388368 1.026083,0.15081 0.808067,0.499481 1.768814,0.970995 2.540767,1.246955 1.492994,0.53372 4.750877,1.527297 5.807311,1.771094 0.230338,0.05315 0.438923,0.114819 0.463523,0.137031 0.02461,0.02223 -0.353102,0.552966 -0.839337,1.179457 -1.899587,2.447512 -2.977669,4.135263 -4.258787,6.667182 -2.012375,3.977135 -3.312485,8.151627 -3.765087,12.089257 -0.09695,0.84348 -0.196897,2.49502 -0.198527,3.28057 l -0.0011,0.51652 -0.739873,-0.009 c -0.40693,-0.005 -1.204738,-0.0276 -1.772905,-0.0505 z"
     id="path40" /><path
     style="fill:#ffffff;stroke:none;stroke-width:0.308761"
     d="m 87.489477,108.25886 c 0.09559,-3.13864 0.975243,-7.04412 2.329884,-10.344265 0.163885,-0.399254 0.618828,-1.366674 1.010983,-2.149822 1.56999,-3.135328 3.645371,-6.229186 5.798447,-8.644001 0.713767,-0.800537 0.868437,-0.904558 1.34501,-0.904558 h 0.377483 l 0.03496,0.488598 c 0.114959,1.606588 0.471091,2.646384 1.210834,3.535276 0.39188,0.470892 0.823332,0.796647 1.472452,1.111731 0.72577,0.352293 1.12532,0.449099 2.0123,0.487556 1.22399,0.05307 1.97998,-0.165227 3.07364,-0.887529 0.72626,-0.47966 1.33537,-1.048411 1.68893,-1.577022 0.43861,-0.65577 0.59771,-1.275377 0.71076,-2.767987 l 0.0317,-0.419052 0.4572,0.01471 c 0.25146,0.0081 0.68627,0.02914 0.96624,0.04679 l 0.50905,0.03208 0.0354,0.338577 c 0.0195,0.186219 0.0356,0.49194 0.0358,0.679384 0.002,1.304398 0.6336,2.703259 1.59072,3.520951 0.44673,0.381659 1.206,0.84056 1.71636,1.037375 0.56624,0.218369 1.44893,0.303131 2.62426,0.252003 0.94546,-0.04113 1.26468,-0.1114 1.91411,-0.421362 1.12797,-0.538356 1.97467,-1.423385 2.31245,-2.417109 l 0.0914,-0.268796 0.24971,0.178935 c 0.35185,0.252132 1.23113,1.015897 1.81464,1.576253 0.57843,0.555471 0.5788,0.551421 -0.0751,0.821962 -0.6042,0.249992 -1.09726,0.593376 -1.58491,1.103802 -0.72804,0.762024 -1.07273,1.504635 -1.15305,2.484097 -0.13657,1.665454 0.47543,3.185287 1.77708,4.413191 1.05775,0.997832 1.83839,1.286592 3.66969,1.357412 0.52799,0.0204 0.98808,0.0545 1.02243,0.0757 0.0727,0.0449 0.21519,0.57558 0.42356,1.57757 0.12448,0.59856 0.13626,0.7264 0.0738,0.8016 -0.24469,0.29484 -2.40581,0.95986 -6.22107,1.91436 -9.60917,2.40402 -17.19144,3.40215 -30.376702,3.99879 -1.013489,0.0459 -2.104218,0.0834 -2.423845,0.0835 l -0.581139,7e-5 z"
     id="path41" /><path
     style="fill:#ffffff;stroke:none;stroke-width:0.308761"
     d="m 102.98282,88.282518 c -0.36256,-0.109167 -0.82312,-0.513226 -1.02086,-0.895615 -0.0855,-0.165346 -0.0837,-0.210868 0.0296,-0.743209 0.15851,-0.744644 0.86012,-3.533476 1.01056,-4.016897 0.14568,-0.46813 0.17819,-0.450881 0.55024,0.29192 0.68819,1.373942 1.54092,4.003824 1.43503,4.425718 -0.0605,0.240924 -0.26074,0.434054 -0.65711,0.633661 -0.36986,0.186259 -0.92861,0.365276 -1.10873,0.355222 -0.0473,-0.0026 -0.15474,-0.02551 -0.23876,-0.0508 z"
     id="path42" /><path
     style="fill:#ffffff;stroke:none;stroke-width:0.308761"
     d="m 115.17736,88.620563 c -0.32163,-0.119015 -0.38387,-0.157994 -0.66923,-0.419132 -0.23036,-0.210796 -0.34424,-0.421495 -0.34424,-0.636889 0,-0.568386 1.24246,-3.22057 1.93262,-4.125418 0.12836,-0.168283 0.15729,-0.182486 0.2279,-0.111879 0.0451,0.04509 0.17767,0.56456 0.29966,1.174154 0.12034,0.601306 0.33497,1.540942 0.47695,2.088084 0.28792,1.109462 0.33247,1.55955 0.17194,1.737344 -0.32591,0.360977 -1.47761,0.52241 -2.0956,0.293736 z"
     id="path43" /><path
     style="fill:#ffffff;stroke:none;stroke-width:0.308761"
     d="m 125.0526,97.528875 c -0.56023,-0.157975 -0.9952,-0.527257 -1.26104,-1.07061 -0.17135,-0.350237 -0.21246,-0.86173 -0.088,-1.095137 0.11249,-0.210963 0.71322,-0.582526 1.8568,-1.148464 1.43405,-0.709684 3.24727,-1.470073 3.32357,-1.393767 0.0766,0.07661 -1.84965,3.035541 -2.58615,3.972589 -0.61237,0.779116 -0.76675,0.870292 -1.24517,0.735389 z"
     id="path44" /></svg>
