<?xml version="1.0" encoding="UTF-8" standalone="no"?>
<!-- Created with Inkscape (http://www.inkscape.org/) -->

<svg
   width="512"
   height="512"
   viewBox="0 0 135.46667 135.46667"
   version="1.1"
   id="svg1"
   xml:space="preserve"
   xmlns="http://www.w3.org/2000/svg"
   xmlns:svg="http://www.w3.org/2000/svg"><defs
     id="defs1" /><g
     id="g252"
     transform="matrix(0.60080049,0,0,0.55797012,49.696851,19.237257)"
     style="fill:#000000"><path
       style="fill:#000000;fill-opacity:1"
       d="m 100.29797,185.84775 c 0.0127,-0.30822 0.0754,-0.37092 0.15985,-0.15985 0.0764,0.191 0.067,0.4192 -0.0209,0.50712 -0.0879,0.0879 -0.15045,-0.0684 -0.13896,-0.34727 z m 0,-3.70416 c 0.0127,-0.30823 0.0754,-0.37092 0.15985,-0.15986 0.0764,0.191 0.067,0.4192 -0.0209,0.50712 -0.0879,0.0879 -0.15045,-0.0683 -0.13896,-0.34726 z M 27.101597,170.78855 c 1.73e-4,-3.4925 0.03782,-4.88466 0.08366,-3.09368 0.04584,1.79097 0.0457,4.64848 -3.15e-4,6.35 -0.04601,1.70152 -0.08352,0.23618 -0.08335,-3.25632 z m -0.09322,-22.77622 c 0.0127,-0.30822 0.07539,-0.37092 0.159853,-0.15985 0.07643,0.191 0.06703,0.4192 -0.02089,0.50712 -0.08792,0.0879 -0.150453,-0.0684 -0.138965,-0.34727 z m 0.0405,-21.80607 c 0,-0.50933 0.05445,-0.71769 0.121,-0.46303 0.06655,0.25467 0.06655,0.67139 0,0.92605 -0.06655,0.25466 -0.121,0.0463 -0.121,-0.46302 z m 0,-1.85209 c 0,-0.50932 0.05445,-0.71768 0.121,-0.46302 0.06655,0.25466 0.06655,0.67138 0,0.92604 -0.06655,0.25466 -0.121,0.0463 -0.121,-0.46302 z m -0.0098,-9.12812 c 0.0054,-0.43657 0.06469,-0.58313 0.131774,-0.3257 0.06708,0.25743 0.06267,0.61462 -0.0098,0.79375 -0.07248,0.17913 -0.127362,-0.0315 -0.12197,-0.46805 z m 50.48384,-6.59897 c 0,-0.2097 0.107959,-0.44798 0.239909,-0.52953 0.131949,-0.0815 0.177594,0.09 0.101433,0.38126 -0.161558,0.61779 -0.341342,0.69589 -0.341342,0.14827 z"
       id="path259" /><path
       style="fill:#000000;fill-opacity:1"
       d="m 27.996218,186.87969 c 0.190996,-0.0764 0.419199,-0.067 0.507118,0.0209 0.08792,0.0879 -0.06835,0.15046 -0.347265,0.13897 -0.308225,-0.0127 -0.37092,-0.0754 -0.159853,-0.15985 z m 72.362852,-2.86197 c 10e-4,-0.87313 0.0509,-1.19842 0.10976,-0.72287 0.0589,0.47555 0.0577,1.18993 -0.003,1.5875 -0.0604,0.39758 -0.10855,0.008 -0.10706,-0.86463 z M -0.77286928,129.22692 c 0.0126958,-0.30823 0.0753905,-0.37092 0.15985244,-0.15986 0.0764304,0.191 0.0670307,0.4192 -0.0208882,0.50712 -0.0879188,0.0879 -0.15045277,-0.0684 -0.13896424,-0.34726 z M 26.144135,116.23593 c 0.190996,-0.0764 0.419199,-0.067 0.507118,0.0209 0.08792,0.0879 -0.06835,0.15045 -0.347266,0.13896 -0.308224,-0.0127 -0.370919,-0.0754 -0.159852,-0.15985 z m 0.952175,-6.16926 c 0,-2.54661 0.03968,-3.58841 0.08818,-2.3151 0.0485,1.2733 0.0485,3.3569 0,4.63021 -0.0485,1.2733 -0.08818,0.23151 -0.08818,-2.31511 z"
       id="path258" /><path
       style="fill:#000000;fill-opacity:1"
       d="m -44.185427,195.4272 c 0,-0.0549 0.20836,-0.2633 0.463021,-0.46302 0.419644,-0.32911 0.429002,-0.31975 0.09989,0.0999 -0.345644,0.44073 -0.562916,0.58089 -0.562916,0.36313 z m -18.743641,-4.39802 c 0,-0.36381 0.06005,-0.51263 0.133452,-0.33073 0.0734,0.1819 0.0734,0.47955 0,0.66146 -0.0734,0.1819 -0.133452,0.0331 -0.133452,-0.33073 z m 178.593758,-0.26459 c 0,-0.3638 0.0601,-0.51263 0.13345,-0.33073 0.0734,0.1819 0.0734,0.47956 0,0.66146 -0.0734,0.1819 -0.13345,0.0331 -0.13345,-0.33073 z m -80.403931,-3.88752 c 0.257431,-0.0671 0.614619,-0.0627 0.79375,0.01 0.179132,0.0725 -0.03149,0.12736 -0.468056,0.12197 -0.436562,-0.005 -0.583125,-0.0647 -0.325694,-0.13178 z M 24.821218,116.23593 c 0.190996,-0.0764 0.419199,-0.067 0.507118,0.0209 0.08792,0.0879 -0.06835,0.15045 -0.347266,0.13896 -0.308224,-0.0127 -0.370919,-0.0754 -0.159852,-0.15985 z m 2.187164,-11.61527 c 0.0127,-0.30822 0.07539,-0.37092 0.159853,-0.15985 0.07643,0.191 0.06703,0.4192 -0.02089,0.50712 -0.08792,0.0879 -0.150453,-0.0683 -0.138965,-0.34727 z m 0.09382,-7.121698 c -1.61e-4,-3.638021 0.0371,-5.162999 0.08281,-3.38884 0.04571,1.774158 0.04584,4.750721 2.93e-4,6.614588 -0.04555,1.86386 -0.08294,0.41227 -0.0831,-3.225748 z"
       id="path257" /><path
       style="fill:#000000;fill-opacity:1"
       d="m 29.302599,186.8852 c 0.181901,-0.0734 0.479557,-0.0734 0.661458,0 0.181901,0.0734 0.03307,0.13345 -0.330729,0.13345 -0.363802,0 -0.512631,-0.0601 -0.330729,-0.13345 z m 4.365625,-0.007 c 0.254661,-0.0666 0.67138,-0.0666 0.926042,0 0.254661,0.0666 0.0463,0.121 -0.463021,0.121 -0.509323,0 -0.717683,-0.0545 -0.463021,-0.121 z m -7.259506,-43.39002 c 0.190996,-0.0764 0.419199,-0.067 0.507118,0.0209 0.08792,0.0879 -0.06835,0.15046 -0.347265,0.13897 -0.308225,-0.0127 -0.37092,-0.0754 -0.159853,-0.15985 z m -2.66237,-27.24658 c 0.181901,-0.0734 0.479558,-0.0734 0.661459,0 0.181901,0.0734 0.03307,0.13346 -0.33073,0.13346 -0.363802,0 -0.51263,-0.0601 -0.330729,-0.13346 z m -8.979297,-0.27009 c 0.190996,-0.0764 0.419199,-0.067 0.507118,0.0209 0.08792,0.0879 -0.06835,0.15045 -0.347266,0.13896 -0.308224,-0.0127 -0.370919,-0.0754 -0.159852,-0.15985 z M 27.008382,90.597747 c 0.0127,-0.308225 0.07539,-0.37092 0.159853,-0.159853 0.07643,0.190996 0.06703,0.419199 -0.02089,0.507118 -0.08792,0.08792 -0.150453,-0.06835 -0.138965,-0.347265 z M 26.529509,-24.789607 c 0.257431,-0.06708 0.614618,-0.06267 0.79375,0.0098 0.179131,0.07248 -0.03149,0.127362 -0.468056,0.121969 -0.436563,-0.0054 -0.583125,-0.06469 -0.325694,-0.131773 z"
       id="path256" /><path
       style="fill:#000000;fill-opacity:1"
       d="m 30.890099,186.86903 c 0.472942,-0.0587 1.246849,-0.0587 1.719791,0 0.472943,0.0587 0.08599,0.10671 -0.859895,0.10671 -0.945886,0 -1.332839,-0.048 -0.859896,-0.10671 z m 44.80162,-49.70461 c 0.01269,-0.30823 0.07539,-0.37092 0.159852,-0.15986 0.07643,0.191 0.06703,0.4192 -0.02089,0.50712 -0.08792,0.0879 -0.150453,-0.0684 -0.138964,-0.34726 z m -53.13096,-20.9311 c 0.257431,-0.0671 0.614618,-0.0627 0.79375,0.01 0.179131,0.0725 -0.03149,0.12736 -0.468057,0.12197 -0.436562,-0.005 -0.583124,-0.0647 -0.325693,-0.13177 z m 2.645833,-141.022927 c 0.257431,-0.06708 0.614619,-0.06267 0.79375,0.0098 0.179132,0.07248 -0.03149,0.127362 -0.468056,0.121969 -0.436563,-0.0054 -0.583125,-0.06469 -0.325694,-0.131773 z"
       id="path255" /><path
       style="fill:#000000;fill-opacity:1"
       d="m 75.691719,136.37067 c 0.01269,-0.30823 0.07539,-0.37092 0.159852,-0.15986 0.07643,0.191 0.06703,0.4192 -0.02089,0.50712 -0.08792,0.0879 -0.150453,-0.0684 -0.138964,-0.34726 z"
       id="path254" /><path
       style="fill:#000000;fill-opacity:1"
       d="m 120.4566,205.66249 c 0.25743,-0.0671 0.61462,-0.0627 0.79375,0.01 0.17913,0.0725 -0.0315,0.12737 -0.46806,0.12197 -0.43656,-0.005 -0.58312,-0.0647 -0.32569,-0.13177 z M -40.724955,179.76234 c 0.0127,-0.30823 0.07539,-0.37092 0.159852,-0.15986 0.07643,0.191 0.06703,0.4192 -0.02089,0.50712 -0.08792,0.0879 -0.150453,-0.0684 -0.138964,-0.34726 z m 66.58797,-42.8834 c 0.181901,-0.0734 0.479557,-0.0734 0.661458,0 0.181901,0.0734 0.03307,0.13346 -0.330729,0.13346 -0.363802,0 -0.51263,-0.0601 -0.330729,-0.13346 z m 49.849592,-1.41227 c 0,-0.3638 0.06005,-0.51263 0.133452,-0.33073 0.0734,0.1819 0.0734,0.47956 0,0.66146 -0.0734,0.1819 -0.133452,0.0331 -0.133452,-0.33073 z M 21.117051,116.23593 c 0.190996,-0.0764 0.419199,-0.067 0.507118,0.0209 0.08792,0.0879 -0.06835,0.15045 -0.347265,0.13896 -0.308225,-0.0127 -0.37092,-0.0754 -0.159853,-0.15985 z M -0.02003264,39.489063 -0.66146576,38.761459 0.06613845,39.402892 c 0.6800557,0.599516 0.84893906,0.813775 0.64143312,0.813775 -0.0473941,0 -0.37481599,-0.327422 -0.72760421,-0.727604 z M 71.722968,25.510243 c 0.0127,-0.308225 0.07539,-0.37092 0.159853,-0.159853 0.07643,0.190996 0.06703,0.419199 -0.02089,0.507118 -0.08792,0.08792 -0.150453,-0.06835 -0.138965,-0.347265 z"
       id="path253" /><path
       style="fill:#000000;fill-opacity:1"
       d="m -64.174274,206.02109 c -3.144045,-0.80037 -7.304017,-3.30367 -9.347007,-5.62463 -3.786007,-4.30113 -6.196869,-10.865 -6.210148,-16.90791 -0.0057,-2.59257 0.08228,-3.15603 0.805553,-5.15937 2.419367,-6.70124 4.990804,-14.25872 5.779633,-16.98642 0.920438,-3.18278 1.149252,-5.04577 1.699544,-13.83754 0.364129,-5.81752 1.255705,-8.09752 3.317741,-8.48437 0.853664,-0.16014 0.931756,-0.27465 1.67521,-2.45639 5.969476,-17.518 11.730199,-35.13604 16.839696,-51.500915 4.346484,-13.921071 7.025435,-20.274927 11.182437,-26.522172 1.895881,-2.849177 5.03136,-6.43669 6.479583,-7.413728 5.207951,-3.513524 13.816435,-7.363431 21.765566,-9.734048 1.3096872,-0.390579 2.413916,-0.738697 2.4538414,-0.773594 0.039925,-0.0349 -0.4145987,-0.865381 -1.0100537,-1.84552 -2.1523047,-3.542766 -3.4355607,-7.64431 -3.9825007,-12.728875 -0.947357,-8.806995 3.4336897,-25.3808704 9.562218,-36.17469 6.2272217,-10.967642 13.246576,-17.408022 22.254971,-20.419323 7.953286,-2.658602 16.001334,-2.239902 23.241318,1.209129 13.867677,6.606376 22.680418,19.6280959 27.767055,41.028646 1.644668,6.919462 2.12328,13.770789 1.244556,17.81579 -0.776184,3.572981 -2.343717,7.337656 -4.057717,9.745237 -0.502243,0.705479 -0.875222,1.317709 -0.828843,1.360511 0.04638,0.0428 2.406045,0.875256 5.243701,1.849895 7.381685,2.53536 13.249022,4.779728 16.078687,6.150406 1.954729,0.946861 2.844271,1.582224 4.381719,3.129678 4.254837,4.282526 8.745274,11.629466 10.904444,17.841099 0.75794,2.180504 6.04991,17.160943 9.90864,28.049268 5.01584,14.153386 11.33655,33.207236 13.35381,40.255236 0.33801,1.18092 0.52331,1.46873 0.88478,1.3742 0.67609,-0.1768 2.23394,0.9736 2.7494,2.03031 0.54535,1.11798 1.40661,6.94026 1.79986,12.16734 0.43841,5.82745 0.61699,6.60598 3.19936,13.94798 4.78313,13.59902 5.37489,18.08204 3.1479,23.84759 -2.55943,6.62623 -8.16014,12.18774 -14.00297,13.90498 -1.97724,0.58112 -5.14735,0.54463 -6.51136,-0.075 -1.46841,-0.667 -2.43146,-1.8903 -2.65342,-3.37045 -0.1932,-1.28839 -0.11184,-2.33759 0.56181,-7.24472 0.25174,-1.83369 0.35371,-3.73329 0.25665,-4.78068 -0.18278,-1.97237 -0.77741,-4.43076 -1.16559,-4.81894 -0.32098,-0.32098 -0.90893,1.65392 -1.46622,4.92492 -0.21896,1.28522 -0.69562,2.9866 -1.05924,3.78085 -0.76366,1.66804 -1.70038,2.21967 -4.70769,2.77231 -3.15172,0.57919 -4.38206,-0.17152 -5.91947,-3.61184 -0.65733,-1.47094 -0.71211,-1.89414 -0.83736,-6.4687 -0.12923,-4.72024 0.1243,-10.31786 0.77625,-17.13854 l 0.31044,-3.24791 -1.03844,-0.9981 c -1.102433,-1.05959 -4.015507,-5.49806 -5.371394,-8.18405 -1.111168,-2.20122 -1.257726,-3.37667 -0.692652,-5.55534 l 0.464981,-1.79276 -0.929967,-1.84842 c -0.511483,-1.01664 -1.471284,-3.15812 -2.132892,-4.75884 -0.661608,-1.60073 -1.970692,-4.63683 -2.909076,-6.74688 -0.938384,-2.11005 -2.306181,-5.4438 -3.03955,-7.40833 -3.271863,-8.7646 -7.937699,-20.62133 -8.257658,-20.9842 -0.103977,-0.11792 -0.271839,1.19176 -0.373026,2.91042 -0.101188,1.71865 -0.29443,4.19638 -0.429426,5.50607 -0.361426,3.50644 -0.751342,9.32161 -1.046701,15.61041 -0.382112,8.13595 0.254987,13.87718 3.59667,32.41146 1.765126,9.79009 1.875451,11.05337 1.072355,12.27905 -0.895787,1.36714 -7.937917,4.24427 -15.272664,6.2398 -11.858989,3.22641 -16.972186,3.9279 -30.275784,4.1536 -14.874514,0.25235 -25.8650343,-0.8375 -39.1583353,-3.88305 -5.4075222,-1.23889 -15.5750417,-4.55608 -16.4703137,-5.3735 -0.473316,-0.43216 -0.595312,-0.82934 -0.595312,-1.93813 0,-1.96275 0.842347,-7.46605 2.378222,-15.53763 2.186778,-11.4923 2.957247,-20.67484 2.425432,-28.90659 -0.311341,-4.81912 -1.448153,-17.64386 -1.801736,-20.32595 l -0.171614,-1.30177 -0.724577,1.96323 c -0.398517,1.07978 -1.46611,3.63011 -2.372428,5.6674 -0.906319,2.03729 -2.388516,5.4901 -3.293773,7.67292 -2.700543,6.51172 -5.612575,13.16296 -8.263152,18.87349 l -2.49704,5.37975 0.413457,1.64862 c 0.531108,2.11773 0.520422,2.82801 -0.07484,4.97472 -0.601971,2.1709 -2.098474,4.81853 -4.68103,8.28175 -1.193758,1.60084 -1.913979,2.80259 -1.823529,3.04271 0.404458,1.07376 0.953244,9.53855 0.969165,14.94896 0.016,5.43754 -0.0427,6.30834 -0.551336,8.17929 -0.313084,1.15162 -0.862231,2.59381 -1.220327,3.20485 -2.324057,3.96571 -7.883274,5.33105 -10.608801,2.60552 -0.478853,-0.47885 -1.428616,-1.89426 -2.110584,-3.14534 -0.681968,-1.25109 -1.286865,-2.22778 -1.344216,-2.17043 -0.05735,0.0574 0.06521,2.2 0.272358,4.76143 0.411486,5.08811 0.247143,6.88168 -0.794359,8.66934 -1.081872,1.85696 -4.244735,2.75062 -7.132888,2.01538 z m 1.822211,-8.97264 c -0.437249,-4.80876 -0.426572,-8.50487 0.03148,-10.8989 1.222461,-6.38923 5.417917,-9.50672 8.255541,-6.1344 0.860586,1.02275 1.385513,2.22592 3.003296,6.8838 1.236098,3.55894 2.015472,4.91493 2.612761,4.54578 0.158253,-0.0978 0.542044,-1.01509 0.852867,-2.03841 0.522441,-1.72002 0.554746,-2.27367 0.427632,-7.32876 -0.0816,-3.24495 -0.305375,-6.35835 -0.550396,-7.65761 -0.670194,-3.5538 -1.527239,-6.41962 -2.125375,-7.10692 -0.438151,-0.50347 -1.752638,-0.98313 -6.085052,-2.22049 -3.039395,-0.86806 -6.642459,-1.93587 -8.00681,-2.37291 -1.364351,-0.43704 -2.591071,-0.79462 -2.726046,-0.79462 -0.134975,0 -0.557457,1.04179 -0.938849,2.3151 -0.381393,1.27331 -1.530717,4.81542 -2.554055,7.87136 -2.196386,6.55894 -2.857841,9.3429 -2.860307,12.03854 -0.0045,4.87961 2.23569,9.71717 6.25603,13.50976 1.639177,1.54632 3.713404,2.89363 4.455712,2.8942 0.181622,1.4e-4 0.165729,-1.15026 -0.04843,-3.50552 z m 89.541766,-33.14836 c -0.03845,-0.0335 -2.272573,-0.1983 -4.964709,-0.36618 -12.29662,-0.76682 -21.41300461,-2.04199 -29.7656268,-4.16353 -2.0372918,-0.51746 -3.9492712,-0.99732 -4.2488432,-1.06635 -0.478486,-0.11027 -0.581488,0.0619 -0.847598,1.417 -0.166606,0.84839 -0.831664,4.07659 -1.477907,7.17379 l -1.174985,5.63127 0.96425,0.48369 c 2.058772,1.03274 8.4953498,2.91299 14.06112526,4.10754 7.18796344,1.54271 13.16431374,2.37869 21.69583474,3.03484 l 5.688542,0.43751 0.06992,-8.31432 c 0.03845,-4.57288 0.03845,-8.34175 0,-8.37526 z m -71.610601,-3.89331 c 0.312968,-0.61847 1.283118,-2.23042 2.155889,-3.58213 0.872771,-1.3517 1.541861,-2.49268 1.486865,-2.53551 -0.409338,-0.31873 -23.274598,-6.59624 -23.41984,-6.42976 -0.02199,0.0252 -0.355611,1.77224 -0.741374,3.88229 -0.385763,2.11006 -0.763104,4.08321 -0.838537,4.38479 -0.129147,0.51634 0.4234,0.68921 9.470889,2.96303 5.284421,1.32808 9.992571,2.42078 10.462556,2.42823 0.744953,0.0118 0.927479,-0.13064 1.423552,-1.11094 z m 71.408392,-4.91852 c 0,-1.14084 0.07832,-4.23647 0.174045,-6.87917 l 0.174045,-4.80492 -1.959983,-0.001 c -2.610012,-10e-4 -8.270013,-0.42465 -14.235604,-1.06443 -2.6770091,-0.2871 -4.8940595,-0.522 -4.926779,-0.522 -0.03272,0 0.04581,0.56365 0.1745095,1.25254 0.1286999,0.6889 0.4017304,3.4018 0.6067347,6.02867 0.453403,5.80979 0.7846866,6.87114 2.2160386,7.09968 2.7803622,0.44393 8.9579192,0.84367 14.1389722,0.91492 l 3.638021,0.05 z M 0.98108161,152.33398 c -0.43013726,-5.56741 -0.95580657,-10.8448 -1.093992,-10.98299 -0.0785367,-0.0785 -2.15922551,-0.46916 -4.62375291,-0.86805 -2.4645273,-0.39889 -4.5994272,-0.79847 -4.7442219,-0.88796 -0.1607116,-0.0993 -0.3227841,0.58514 -0.4160614,1.7571 -0.084039,1.05589 -0.2728574,3.36904 -0.4195964,5.14033 -0.146739,1.7713 -0.266798,3.86688 -0.266798,4.65686 v 1.43631 l 3.7703124,0.8383 c 5.231939,1.16327 7.14451433,1.56443 7.60677126,1.59551 0.34135354,0.023 0.36756164,-0.35273 0.18733895,-2.68541 z M -45.636335,145.19011 c 0.568693,-2.73749 3.033856,-11.52403 4.628256,-16.49642 1.017355,-3.17278 1.849736,-5.96654 1.849736,-6.20835 0,-0.48721 -0.821326,-1.58428 -2.838153,-3.79101 l -1.339978,-1.46615 -2.871872,-0.42536 c -2.68214,-0.39726 -5.258085,-0.92721 -6.179165,-1.27124 -0.316735,-0.1183 -1.162879,2.15994 -4.19035,11.28249 -2.086412,6.2869 -4.14024,12.12677 -4.564063,12.97749 -0.423823,0.85072 -0.770587,1.57847 -0.770587,1.61722 0,0.0387 0.642603,0.14598 1.428007,0.23829 1.877814,0.2207 7.021388,1.72601 10.925721,3.1975 1.718419,0.64765 3.263766,1.18382 3.434104,1.19149 0.170339,0.008 0.390094,-0.37301 0.488344,-0.84595 z m 72.888413,-15.12482 v -6.98889 l -1.91823,-0.14167 c -1.055026,-0.0779 -5.251979,-0.33414 -9.326563,-0.56937 -4.074583,-0.23524 -8.2184959,-0.49612 -9.2086943,-0.57974 -1.7909753,-0.15125 -1.7996631,-0.14875 -1.666552,0.48065 0.073595,0.34798 0.2698959,3.43066 0.4362247,6.8504 0.1663288,3.41974 0.380496,6.29654 0.475927,6.39288 0.2251302,0.22729 5.4422566,0.67092 11.9474696,1.01593 4.832444,0.2563 6.776603,0.36589 8.532813,0.481 l 0.727605,0.0477 z m -27.658442,3.35086 c -0.0642629,-0.69122 -0.19076292,-3.8425 -0.28111119,-7.00283 -0.14310824,-5.00585 -0.22018133,-5.76317 -0.59829681,-5.87889 -0.2387149,-0.073 -2.1009023,-0.5626 -4.1381941,-1.08788 -2.0372917,-0.52528 -4.0498813,-1.12423 -4.4724211,-1.33101 -0.4225398,-0.20677 -0.8409768,-0.37595 -0.9298588,-0.37595 -0.146842,0 0.9448109,15.35099 1.1017148,15.49248 0.056387,0.0508 8.1394494,1.297 9.11674545,1.40552 0.22256928,0.0247 0.28313192,-0.34255 0.20142175,-1.22144 z m 27.658442,-30.36094 c 0,-7.3488 -0.03492,-13.361457 -0.07761,-13.361457 -0.04268,0 -2.096512,-0.419023 -4.564063,-0.931163 C 20.142857,88.25045 11.039733,86.821392 2.3812428,85.586906 -6.2772474,84.35242 -13.527205,83.28041 -13.729774,83.204662 c -0.297981,-0.111427 -0.336486,0.12868 -0.201654,1.257454 0.369336,3.091965 1.786995,17.539884 2.11421,21.546744 0.483421,5.91965 0.322776,5.73168 5.8640853,6.86131 1.7462501,0.35598 5.020469,1.05379 7.2760421,1.5507 5.7389864,1.26431 12.1697486,1.81523 22.8203136,1.955 l 3.108855,0.0408 z m -65.485922,6.60881 c 1.454322,-0.80354 2.847643,-1.66674 3.096269,-1.91823 0.248625,-0.25148 0.882625,-1.88198 1.408889,-3.62333 1.781113,-5.893497 3.455843,-9.665604 6.993364,-15.751623 3.384472,-5.822711 4.774897,-8.611158 4.774897,-9.575885 0,-0.506712 -0.337483,-2.042007 -0.749961,-3.411767 -0.654586,-2.173757 -6.333395,-17.9191 -6.56755,-18.209513 -0.331125,-0.410681 -3.72238,3.979456 -5.340469,6.913486 -1.549363,2.80941 -3.672898,7.799731 -5.943567,13.967422 -2.009467,5.458202 -10.844187,31.76616 -10.708023,31.88626 0.20395,0.1799 7.431458,1.12666 8.804394,1.15333 1.456345,0.0283 1.806043,-0.0899 4.231757,-1.43015 z M 26.987494,71.89298 V 60.971373 L 25.069265,60.485322 C 19.957396,59.19005 13.123554,56.646828 9.2604098,54.602039 6.0652375,52.910812 1.5557236,49.854234 -0.98455652,47.657934 -2.889436,46.010996 -3.2346555,45.809421 -3.7626817,46.035781 c -0.331623,0.142163 -2.9842011,0.970026 -5.8946179,1.839695 -9.1516284,2.734622 -11.2707404,3.580746 -13.4323634,5.3633 l -0.732362,0.603934 1.332056,3.132517 c 1.541348,3.624699 5.09238,13.120673 6.348128,16.975817 0.474009,1.455209 0.952099,2.744958 1.062422,2.866109 0.110323,0.121152 4.399559,0.689025 9.5316362,1.26194 5.13207736,0.572916 12.2005163,1.451838 15.7076418,1.95316 6.191109,0.88498 15.25948,2.45033 15.48267,2.672563 0.06063,0.06037 0.388055,0.10977 0.727604,0.10977 h 0.617361 z M 22.992972,52.314603 C 9.8835759,44.083943 2.0037345,33.767161 1.0683743,23.609545 -0.0919727,11.008666 8.4253804,-1.6360642 20.769786,-5.6388644 c 3.17577,-1.0297761 5.200013,-1.3277379 8.995833,-1.3241568 4.170801,0.00393 7.028015,0.5119074 11.067526,1.9676511 4.137553,1.4910753 3.829875,1.4318453 3.731152,0.7182717 -0.047,-0.3397325 -0.22442,-1.927383 -0.394263,-3.5281123 -0.567818,-5.3515853 -1.835959,-9.2008473 -3.848463,-11.6814623 -1.117954,-1.377993 -4.603997,-4.021826 -5.735088,-4.34952 -2.032879,-0.588955 -7.510123,-1.077283 -10.112531,-0.901589 -3.940221,0.266011 -6.033717,1.161508 -10.671077,4.564574 -4.4533688,3.268045 -9.3422306,8.913435 -12.0996851,13.9720521 -3.652708,6.7009817 -6.7124805,15.817485 -7.8090307,23.2667799 -1.0223416,6.945166 -0.4933042,11.635547 1.8462428,16.368564 2.1204165,4.289705 5.8468515,8.135138 11.6679244,12.040519 4.5554786,3.05629 7.6837006,4.576161 16.0072926,7.77727 1.94451,0.747825 1.819359,0.470257 -0.422647,-0.937374 z"
       id="path252" /></g><path
     style="fill:#ffffff;stroke:none;stroke-width:2.1508;stroke-dasharray:none"
     d="m 66.00231,73.708164 c 0,0 1.340149,1.11679 4.578839,-0.446718 3.238694,-1.563505 4.578843,-5.025556 7.259138,-2.791976 2.680298,2.233581 2.903657,0.446718 3.015335,5.025557 0.111678,4.578842 -0.893432,4.69052 -3.908767,4.69052 -3.015334,0 -5.025557,1.786864 -6.030666,-0.111678 -1.005113,-1.898544 -5.360594,-1.898544 -5.360594,-1.898544 z"
     id="path260" /><path
     style="fill:#ffffff;stroke:none;stroke-width:0.907838;stroke-dasharray:none"
     d="M 65.164718,65.3241 C 63.243573,64.84758 55.792737,63.794888 49.012222,63.041995 42.4091,62.308797 40.789821,62.106637 40.683874,62.002243 c -0.04344,-0.0428 -0.476332,-1.132824 -0.961993,-2.422276 -1.33754,-3.551241 -2.32369,-5.944908 -4.102965,-9.959063 l -0.15756,-0.355465 0.793433,-0.527473 c 1.145082,-0.761249 2.485803,-1.246233 7.090929,-2.565035 2.250987,-0.644631 4.135022,-1.198208 4.18674,-1.230173 0.143864,-0.08891 0.482981,0.125228 1.811742,1.144043 2.26731,1.738442 5.252914,3.467222 7.761251,4.494067 1.788975,0.732359 5.37374,1.902069 7.249594,2.365544 l 1.479746,0.365607 v 6.065949 c 0,4.784402 -0.02949,6.06353 -0.1396,6.054516 -0.07678,-0.0063 -0.315491,-0.05506 -0.530473,-0.108384 z"
     id="path261" /><path
     style="fill:#ffffff;stroke:none;stroke-width:0.907838;stroke-dasharray:none"
     d="m 61.758506,48.14504 c -2.570017,-0.974201 -3.175066,-1.231665 -4.763357,-2.026926 -2.890444,-1.447247 -5.498807,-3.260529 -7.368323,-5.122312 -3.822039,-3.80623 -4.665637,-7.973087 -2.997751,-14.807068 0.94016,-3.852216 2.937579,-8.593174 4.780809,-11.347464 2.850949,-4.260098 7.805151,-8.3068158 11.142391,-9.1013869 0.968219,-0.2305253 3.257531,-0.2983544 5.013542,-0.1485439 2.711183,0.2312993 3.283426,0.4219967 4.918292,1.6389972 2.339223,1.7413293 3.146121,3.4914296 3.742642,8.1175106 0.118237,0.91694 0.201248,1.680895 0.184465,1.697676 -0.01677,0.01678 -0.732343,-0.196515 -1.59014,-0.473989 -3.66857,-1.18669 -6.460059,-1.51682 -9.736535,-1.151471 -5.648696,0.629867 -10.955028,4.371402 -13.371754,9.428522 -2.200333,4.604309 -1.962023,9.183111 0.706544,13.575213 2.114859,3.480776 5.403363,6.558836 10.148848,9.499386 0.813861,0.504309 1.479748,0.933873 1.479748,0.954582 0,0.108146 -0.456917,-0.03809 -2.289421,-0.732726 z"
     id="path262" /><path
     style="fill:#ffffff;stroke:none;stroke-width:0.907838;stroke-dasharray:none"
     d="m 21.609893,80.913538 c -1.136334,-0.146896 -2.155586,-0.270277 -2.265005,-0.27418 -0.109419,-0.0039 -0.227285,-0.08095 -0.261924,-0.171219 -0.06694,-0.17443 1.030899,-3.324956 3.814924,-10.94794 3.012129,-8.247558 4.556055,-11.944501 6.007297,-14.384539 0.625353,-1.051431 1.998678,-2.857802 2.673543,-3.51658 l 0.490889,-0.479187 0.959329,2.433571 c 1.830311,4.643025 3.076131,8.02199 3.274992,8.882584 l 0.199893,0.865058 -0.573678,1.145165 c -0.315521,0.629838 -1.281988,2.301041 -2.147702,3.713781 -2.361393,3.853503 -3.043722,5.258912 -4.364747,8.990161 -0.775293,2.189829 -0.780812,2.196148 -2.822191,3.230634 -1.71199,0.867566 -2.006318,0.897832 -4.98562,0.512691 z"
     id="path263" /><path
     style="fill:#ffffff;stroke:none;stroke-width:0.907838;stroke-dasharray:none"
     d="m 20.102226,100.06767 c -2.774747,-0.966424 -6.2546,-1.89512 -7.119538,-1.900049 -0.37498,-0.0021 -0.37975,-0.08816 -0.04211,-0.759293 0.353989,-0.703628 1.438388,-3.548153 3.010739,-7.89758 1.249488,-3.456324 1.90802,-5.162219 2.140684,-5.545339 0.103316,-0.170127 0.18267,-0.168431 1.059752,0.02265 0.521441,0.113596 1.727574,0.317415 2.680297,0.452932 l 1.732223,0.246393 0.543522,0.513141 c 0.865676,0.817287 1.969257,2.147803 1.969257,2.374204 0,0.114197 -0.557289,1.903164 -1.23842,3.975484 -0.681131,2.072317 -1.577632,4.948857 -1.992226,6.392307 -0.631573,2.19889 -0.788414,2.62813 -0.967241,2.64709 -0.117389,0.0124 -0.917013,-0.22243 -1.776942,-0.52193 z"
     id="path264" /><path
     style="fill:#ffffff;stroke:none;stroke-width:0.907838;stroke-dasharray:none"
     d="m 21.833251,109.03319 c -0.651078,-0.10914 -6.056479,-1.32816 -8.336297,-1.87999 -2.862144,-0.69277 -3.319881,-0.85385 -3.238523,-1.13962 0.03096,-0.10873 0.246774,-1.13999 0.479598,-2.29167 0.332863,-1.64655 0.46071,-2.09399 0.598315,-2.09399 0.32766,0 11.200669,2.75559 13.546478,3.43313 0.110964,0.0321 0.179896,0.11524 0.153179,0.18486 -0.02672,0.0696 -0.581607,0.93682 -1.23309,1.92711 -1.0599,1.6111 -1.364473,1.97342 -1.615837,1.92219 -0.04104,-0.008 -0.200264,-0.0363 -0.353823,-0.062 z"
     id="path265" /><path
     style="fill:#ffffff;stroke:none;stroke-width:0.907838;stroke-dasharray:none"
     d="m 11.528553,130.79054 c -2.0470055,-1.07969 -4.1636051,-3.46236 -5.0020863,-5.63089 -0.7340061,-1.89833 -0.8101841,-3.43139 -0.2791225,-5.61725 0.2584924,-1.06396 3.0046201,-9.09604 3.2960951,-9.64067 0.083523,-0.15606 0.207577,-0.23396 0.3217977,-0.20208 0.1022318,0.0285 1.869438,0.51367 3.927124,1.07807 4.072783,1.11711 5.398919,1.52211 5.767934,1.76151 0.33623,0.21814 0.6801,1.07913 1.106049,2.76938 0.435955,1.72993 0.607856,3.54758 0.628432,6.6449 0.01423,2.14165 0.0091,2.19252 -0.309843,3.07005 -0.211235,0.58118 -0.390412,0.90489 -0.513891,0.92841 -0.295554,0.0563 -0.660263,-0.63009 -1.597479,-3.00642 -0.974209,-2.47012 -1.210493,-2.92055 -1.821732,-3.47277 -2.057613,-1.85892 -4.725197,0.77037 -5.005079,4.93325 -0.0394,0.58595 -0.116199,1.15216 -0.170673,1.25823 -0.05889,0.11468 -0.0559,0.27314 0.0074,0.39088 0.116691,0.21709 0.396905,4.24911 0.330707,4.75856 l -0.04116,0.31675 z"
     id="path266" /><path
     style="fill:#ffffff;stroke:none;stroke-width:0.907838;stroke-dasharray:none"
     d="m 64.047927,119.81935 c -5.673418,-0.44926 -7.832238,-0.68168 -10.888705,-1.17228 -3.205565,-0.51454 -7.183133,-1.38842 -9.660237,-2.12238 -1.170635,-0.34685 -2.781173,-0.94074 -2.849065,-1.05059 -0.07229,-0.11697 1.612112,-7.62668 1.739398,-7.75487 0.0675,-0.068 0.684998,0.0265 1.696765,0.25952 2.836084,0.6533 5.339691,1.13173 7.67715,1.4671 3.616619,0.51889 6.022808,0.74709 12.173014,1.15446 l 1.954384,0.12945 0.02916,4.60676 0.02916,4.60677 -0.364196,-0.0155 c -0.200308,-0.009 -0.891879,-0.0573 -1.536825,-0.10839 z"
     id="path267" /><path
     style="fill:#ffffff;stroke:none;stroke-width:0.907838;stroke-dasharray:none"
     d="m 46.832407,105.03877 c -1.57562,-0.32403 -2.99534,-0.62192 -3.154934,-0.66198 -0.272134,-0.0683 -0.290168,-0.1145 -0.290168,-0.7434 0,-0.88338 0.441526,-5.997132 0.538628,-6.238363 0.06921,-0.171939 0.309213,-0.149198 2.835442,0.268666 1.517906,0.251079 2.782628,0.479348 2.810491,0.507262 0.09594,0.09613 0.733309,6.335465 0.738169,7.226135 0.0019,0.34603 -0.107627,0.33474 -3.477628,-0.35832 z"
     id="path268" /><path
     style="fill:#ffffff;stroke:none;stroke-width:0.907838;stroke-dasharray:none"
     d="m 61.870187,106.80157 c -3.214876,-0.10907 -6.621317,-0.40288 -6.995991,-0.6034 -0.499563,-0.26736 -0.657016,-0.97181 -0.984044,-4.40273 -0.122952,-1.28989 -0.267906,-2.58132 -0.32212,-2.869838 -0.09836,-0.523457 -0.09795,-0.52447 0.193025,-0.47357 1.176099,0.205743 8.851789,0.796333 11.111389,0.854943 l 1.215395,0.03153 -0.07914,1.116785 c -0.07536,1.06342 -0.102058,1.95143 -0.151916,5.05348 l -0.02199,1.36807 -1.535586,-0.0225 c -0.844574,-0.0123 -1.937631,-0.0361 -2.429018,-0.0528 z"
     id="path269" /><path
     style="fill:#ffffff;stroke:none;stroke-width:0.907838;stroke-dasharray:none"
     d="m 63.545372,95.521438 c -0.307117,-0.0195 -1.99068,-0.112844 -3.741248,-0.207457 -3.153465,-0.170434 -5.263123,-0.327485 -6.044898,-0.45 l -0.405104,-0.06349 -0.06941,-0.746329 c -0.03818,-0.410482 -0.146378,-2.052976 -0.240451,-3.649985 -0.09407,-1.597012 -0.196003,-2.97415 -0.226515,-3.060309 -0.04616,-0.130344 0.127918,-0.14556 1.036431,-0.09059 0.600551,0.03633 3.479051,0.197262 6.396665,0.357616 2.917616,0.160353 5.405265,0.312023 5.528114,0.337044 0.217125,0.04423 0.224444,0.150948 0.262279,3.826209 l 0.03892,3.780713 -0.988192,0.0011 c -0.543507,5.29e-4 -1.239473,-0.01495 -1.546588,-0.03443 z"
     id="path270" /><path
     style="fill:#ffffff;stroke:none;stroke-width:0.907838;stroke-dasharray:none"
     d="M 46.321407,93.895643 C 44.434586,93.624939 43.939863,93.518852 43.897395,93.37584 43.795456,93.032543 43.277937,86.49281 43.276436,85.528951 l -7.93e-4,-0.519747 0.553984,0.2105 c 0.304694,0.115773 1.572779,0.466129 2.817969,0.778568 1.24519,0.312441 2.298822,0.624446 2.341404,0.693343 0.102915,0.166521 0.196461,1.51887 0.259855,3.75666 0.02853,1.007028 0.08547,2.27598 0.126526,2.819895 l 0.07465,0.988936 -0.378981,-0.01066 c -0.208439,-0.0059 -1.445773,-0.163727 -2.749632,-0.350792 z"
     id="path271" /><path
     style="fill:#ffffff;stroke:none;stroke-width:0.907838;stroke-dasharray:none"
     d="m 60.681758,84.043078 c -0.02201,-0.02103 -0.919515,-0.07019 -1.994424,-0.10922 -2.087015,-0.07578 -4.526905,-0.299138 -6.254028,-0.572514 -1.67114,-0.264514 -7.818467,-1.493686 -8.387805,-1.677162 -0.595927,-0.192042 -0.915964,-0.50156 -1.087671,-1.05192 -0.06707,-0.214982 -0.301447,-2.200076 -0.520832,-4.411321 -0.219384,-2.211245 -0.547616,-5.350092 -0.729398,-6.975216 -0.375481,-3.356737 -0.388257,-3.592383 -0.190918,-3.520816 0.07678,0.02784 3.330826,0.480412 7.231216,1.005703 9.930662,1.337424 15.823571,2.230281 16.986158,2.573639 0.156644,0.04626 0.180597,0.390379 0.195913,2.814624 0.0096,1.519055 0.0492,3.327295 0.088,4.018307 0.0508,0.904777 0.03504,1.25639 -0.05631,1.25639 -0.06978,0 -0.126862,0.10051 -0.126862,0.223358 0,0.122846 0.03854,0.223359 0.08565,0.223359 0.06509,0 0.06944,4.757444 0.0052,5.69563 -0.0063,0.09214 0.02146,0.242901 0.06168,0.335037 0.06373,0.145946 -0.270589,0.170277 -2.596192,0.188946 -1.468133,0.0118 -2.687355,0.0042 -2.709379,-0.01683 z"
     id="path272" /><path
     style="fill:#000000;stroke:none;stroke-width:2.1508;stroke-dasharray:none"
     d="m 65.884283,73.54183 c 0,0 -1.340149,1.11679 -4.578839,-0.446718 -3.238694,-1.563505 -4.578843,-5.025556 -7.259138,-2.791976 -2.680298,2.233581 -2.903657,0.446718 -3.015335,5.025557 -0.111678,4.578842 0.893432,4.69052 3.908767,4.69052 3.015334,0 5.025557,1.786864 6.030666,-0.111678 1.005113,-1.898544 5.360594,-1.898544 5.360594,-1.898544 z"
     id="path260-9" /><path
     style="fill:#ffffff;stroke:none;stroke-width:0.907838;stroke-dasharray:none"
     d="M 64.885519,65.270096 C 62.403269,64.710976 55.236477,63.725233 47.10378,62.82434 44.018982,62.482626 41.305179,62.163641 41.073111,62.115487 l -0.421942,-0.08756 -0.543922,-1.44694 C 39.129402,57.979722 37.244293,53.296168 36.500044,51.618895 36.099187,50.715507 35.701495,49.81641 35.616286,49.620904 l -0.15493,-0.355465 0.793433,-0.527473 c 1.14345,-0.760164 2.426996,-1.223801 7.193889,-2.59855 3.04982,-0.879554 4.29238,-1.193356 4.431236,-1.119087 0.106132,0.05677 0.813274,0.569711 1.571424,1.139875 2.490838,1.873224 5.21448,3.435303 7.793678,4.469877 1.932231,0.775059 5.204648,1.836962 7.110029,2.307206 l 1.479746,0.365202 V 59.3732 c 0,4.788223 -0.02949,6.068298 -0.1396,6.059271 -0.07678,-0.0063 -0.441132,-0.07937 -0.809672,-0.162375 z"
     id="path273" /><path
     style="fill:#ffffff;stroke:none;stroke-width:2.1508;stroke-dasharray:none"
     d="m 111.12064,63.098655 4.2438,12.619731 c 0,0 2.23358,2.45694 -2.68029,2.45694 -4.91388,0 -10.60951,-0.223359 -10.83287,-2.45694 -0.22336,-2.233581 2.6803,-3.462049 2.6803,-3.462049 0,0 3.46205,0.893432 3.68541,-1.675186 0.22335,-2.56862 -0.5584,-2.56862 0.22335,-4.020447 0.78176,-1.451827 2.6803,-3.462049 2.6803,-3.462049 z"
     id="path274" /><path
     style="fill:#ffffff;stroke:none;stroke-width:2.1508;stroke-dasharray:none"
     d="m 97.942514,47.351912 5.137236,2.345258 c 0,0 -1.56351,-2.568617 0.67007,0.335037 2.23359,2.903657 3.23869,4.913879 3.23869,4.913879 0,0 -2.1219,3.127012 -2.56861,3.127012 -0.44672,0 -7.705855,1.005113 -8.375931,-0.223358 -0.670073,-1.228469 -0.893431,-5.137235 -0.893431,-5.137235 0,0 0.11168,-4.69052 0.893431,-5.025557 0.781754,-0.335036 1.898545,-0.335036 1.898545,-0.335036 z"
     id="path275" /><path
     style="fill:#ffffff;stroke:none;stroke-width:2.1508;stroke-dasharray:none"
     d="m 112.68415,120.61336 c -0.22336,2.01022 -0.33504,1.89854 -0.22336,3.46205 0.11168,1.56351 -0.5584,2.90365 1.22847,2.01022 1.78686,-0.89343 1.67518,-1.67518 2.23358,-3.01533 0.55839,-1.34015 1.11679,-3.90877 1.11679,-3.90877 0,0 0.22336,-2.1219 2.01022,-0.22336 1.78687,1.89855 2.01023,3.68541 2.01023,4.91388 0,1.22847 -0.33504,4.35548 -0.33504,4.35548 0,0 -1.78687,2.56862 -0.11168,3.12702 1.67518,0.55839 5.13723,0.55839 5.13723,0.55839 0,0 1.56351,0.11168 1.56351,-2.6803 0,-2.79197 0.5584,-2.90365 0,-5.80731 -0.55839,-2.90365 0.89343,-3.57373 -1.89854,-6.3657 -2.79198,-2.79198 -2.79198,-4.57884 -5.80731,-4.46716 -3.01534,0.11168 -6.03067,4.35548 -6.36571,6.25402 -0.33503,1.89855 -0.55839,1.78687 -0.55839,1.78687 z"
     id="path276" /><path
     style="fill:#ffffff;stroke:none;stroke-width:2.1508;stroke-dasharray:none"
     d="m 102.74471,89.454908 5.24892,11.056222 c 0,0 0.11168,0.33504 1.78686,-2.010221 1.67519,-2.345259 6.36571,-3.908767 4.46716,-6.142347 -1.89854,-2.233581 -2.56861,-3.797086 -4.57884,-2.903654 -2.01022,0.893431 -3.57373,1.451827 -4.2438,-0.893432 -0.67008,-2.345262 -3.68541,-4.802198 -3.68541,-2.345262 0,2.45694 1.00511,3.238694 1.00511,3.238694 z"
     id="path277" /><path
     style="fill:#ffffff;stroke:none;stroke-width:2.1508;stroke-dasharray:none"
     d="m 82.191122,86.439573 c -1.11679,5.807311 -1.005112,4.355484 -2.121903,7.370813 -1.11679,3.01534 -3.350371,3.57373 -1.340149,4.57885 2.010222,1.00511 2.010222,2.121894 3.797089,1.00511 1.786863,-1.1168 3.350371,-5.13724 3.685407,-5.58396 0.335037,-0.44671 2.345259,-1.898539 3.127013,-4.355478 0.781754,-2.45694 1.898544,-4.913879 0.670073,-5.472274 -1.228468,-0.558396 -4.913876,-2.568618 -5.807308,-2.345259 -0.893432,0.223358 -2.010222,4.802198 -2.010222,4.802198 z"
     id="path278" /><path
     style="fill:#ffffff;stroke:none;stroke-width:2.1508;stroke-dasharray:none"
     d="m 78.282356,57.180566 c -0.33504,4.91387 -0.223359,6.9241 -0.223359,7.59417 0,0.67007 1.675186,2.34526 3.015335,2.34526 1.340146,0 3.23869,-2.56862 3.23869,-3.01533 0,-0.44672 -0.558395,-5.80731 0,-6.70075 0.558395,-0.89343 3.350371,-3.6854 3.350371,-3.6854 l -3.573729,-0.67008 z"
     id="path279" /><path
     style="fill:#ffffff;stroke:none;stroke-width:2.1508;stroke-dasharray:none"
     d="m 122.28854,100.06442 c -0.22335,-1.451831 -1.78686,-2.233584 -2.68029,-1.675189 -0.89344,0.558395 -1.11679,2.791979 -1.11679,4.020449 0,1.22847 3.23869,3.57373 4.13212,3.6854 0.89343,0.11168 3.12701,-0.22336 3.35037,-1.22847 0.22336,-1.00511 0.11168,-4.2438 0.11168,-4.2438 z"
     id="path280" /><path
     style="fill:#000000;stroke:none;stroke-width:2.1508;stroke-dasharray:none"
     d="m 25.587007,57.604777 -4.2438,12.619731 c 0,0 -2.23358,2.45694 2.68029,2.45694 4.91388,0 10.60951,-0.223359 10.83287,-2.45694 0.22336,-2.233581 -2.6803,-3.462049 -2.6803,-3.462049 0,0 -3.46205,0.893432 -3.68541,-1.675186 -0.22335,-2.56862 0.5584,-2.56862 -0.22335,-4.020447 -0.78176,-1.451827 -2.6803,-3.462049 -2.6803,-3.462049 z"
     id="path274-7" /><path
     style="fill:#000000;stroke:none;stroke-width:2.1508;stroke-dasharray:none"
     d="m 40.502455,44.385042 -5.13724,2.345258 c 0,0 1.56351,-2.568617 -0.67007,0.335037 -2.23359,2.903657 -3.23869,4.913879 -3.23869,4.913879 0,0 2.1219,3.127012 2.56861,3.127012 0.44672,0 7.70586,1.005113 8.37593,-0.223358 0.67008,-1.228469 0.89343,-5.137235 0.89343,-5.137235 0,0 -0.11168,-4.69052 -0.89343,-5.025557 -0.78175,-0.335036 -1.89854,-0.335036 -1.89854,-0.335036 z"
     id="path275-6" /><path
     style="fill:#000000;stroke:none;stroke-width:2.1508;stroke-dasharray:none"
     d="m 21.338551,121.59494 c 0.22336,2.01022 0.33504,1.89854 0.22336,3.46205 -0.11168,1.56351 0.5584,2.90365 -1.22847,2.01022 -1.78686,-0.89343 -1.67518,-1.67518 -2.23358,-3.01533 -0.55839,-1.34015 -1.11679,-3.90877 -1.11679,-3.90877 0,0 -0.22336,-2.1219 -2.01022,-0.22336 -1.78687,1.89855 -2.01023,3.68541 -2.01023,4.91388 0,1.22847 0.33504,4.35548 0.33504,4.35548 0,0 1.78687,2.56862 0.11168,3.12702 -1.67518,0.55839 -5.1372297,0.55839 -5.1372297,0.55839 0,0 -1.56351,0.11168 -1.56351,-2.6803 0,-2.79197 -0.5584,-2.90365 0,-5.80731 0.55839,-2.90365 -0.89343,-3.57373 1.89854,-6.3657 2.7919797,-2.79198 2.7919797,-4.57884 5.8073097,-4.46716 3.01534,0.11168 6.03067,4.35548 6.36571,6.25402 0.33503,1.89855 0.55839,1.78687 0.55839,1.78687 z"
     id="path276-3" /><path
     style="fill:#000000;stroke:none;stroke-width:2.1508;stroke-dasharray:none"
     d="m 31.277991,90.436488 -5.24892,11.056222 c 0,0 -0.11168,0.33504 -1.78686,-2.010221 -1.67519,-2.345259 -6.36571,-3.908767 -4.46716,-6.142347 1.89854,-2.233581 2.56861,-3.797086 4.57884,-2.903654 2.01022,0.893431 3.57373,1.451827 4.2438,-0.893432 0.67008,-2.345262 3.68541,-4.802198 3.68541,-2.345262 0,2.45694 -1.00511,3.238694 -1.00511,3.238694 z"
     id="path277-6" /><path
     style="fill:#000000;stroke:none;stroke-width:2.1508;stroke-dasharray:none"
     d="m 54.042714,85.841773 c 1.11679,5.807311 1.005112,4.355484 2.121903,7.370816 1.11679,3.015334 3.350371,3.573729 1.340149,4.578842 -2.010222,1.005109 -2.010222,2.121899 -3.797089,1.005109 -1.786863,-1.11679 -3.350371,-5.137234 -3.685407,-5.583951 -0.335037,-0.446715 -2.345261,-1.898542 -3.127011,-4.355481 -0.78176,-2.45694 -1.89855,-4.913879 -0.67008,-5.472274 1.22847,-0.558396 4.913881,-2.568618 5.807313,-2.345259 0.893432,0.223358 2.010222,4.802198 2.010222,4.802198 z"
     id="path278-1" /><path
     style="fill:#000000;stroke:none;stroke-width:2.1508;stroke-dasharray:none"
     d="m 55.58241,55.793076 c 0.33504,4.91387 0.223359,6.9241 0.223359,7.59417 0,0.67007 -1.675186,2.34526 -3.015335,2.34526 -1.340146,0 -3.23869,-2.56862 -3.23869,-3.01533 0,-0.44672 0.558395,-5.80731 0,-6.70075 -0.558395,-0.89343 -3.350371,-3.6854 -3.350371,-3.6854 l 3.573729,-0.67008 z"
     id="path279-5" /><path
     style="fill:#000000;stroke:none;stroke-width:2.1508;stroke-dasharray:none"
     d="m 11.734161,101.046 c 0.22335,-1.451831 1.78686,-2.233584 2.68029,-1.675189 0.89344,0.558395 1.11679,2.791979 1.11679,4.020449 0,1.22847 -3.23869,3.57373 -4.13212,3.6854 -0.89343,0.11168 -3.1270097,-0.22336 -3.3503697,-1.22847 -0.22336,-1.00511 -0.11168,-4.2438 -0.11168,-4.2438 z"
     id="path280-4" /></svg>
