<?xml version="1.0" encoding="UTF-8" standalone="no"?>
<!-- Created with Inkscape (http://www.inkscape.org/) -->

<svg
   width="390.44699"
   height="497.37408"
   viewBox="0 0 390.44699 497.37409"
   version="1.1"
   id="svg1"
   xml:space="preserve"
   sodipodi:docname="Template.svg"
   inkscape:version="1.4 (86a8ad7, 2024-10-11)"
   inkscape:export-filename="Medikt.svg"
   inkscape:export-xdpi="96"
   inkscape:export-ydpi="96"
   xmlns:inkscape="http://www.inkscape.org/namespaces/inkscape"
   xmlns:sodipodi="http://sodipodi.sourceforge.net/DTD/sodipodi-0.dtd"
   xmlns="http://www.w3.org/2000/svg"
   xmlns:svg="http://www.w3.org/2000/svg"><sodipodi:namedview
     id="namedview1"
     pagecolor="#ffffff"
     bordercolor="#000000"
     borderopacity="0.25"
     inkscape:showpageshadow="2"
     inkscape:pageopacity="0.0"
     inkscape:pagecheckerboard="true"
     inkscape:deskcolor="#d1d1d1"
     inkscape:zoom="1.6959064"
     inkscape:cx="141.81207"
     inkscape:cy="249.42414"
     inkscape:window-width="2560"
     inkscape:window-height="1494"
     inkscape:window-x="585"
     inkscape:window-y="2149"
     inkscape:window-maximized="1"
     inkscape:current-layer="svg1"><inkscape:page
       x="0"
       y="0"
       width="390.44699"
       height="497.37408"
       id="page2"
       margin="0"
       bleed="0" /></sodipodi:namedview><defs
     id="defs1" /><path
     style="fill:#000000;stroke-width:0.584344"
     d="M 12.376711,497.02721 C 7.3557265,495.80602 3.6483535,492.66209 1.3359255,487.6644 l -1.23042899,-2.65923 -0.09646,-93.20281 c -0.05305,-51.26154 0.132957,-95.51317 0.413347,-98.33694 C 2.0204115,277.37214 9.2530015,262.3674 21.06151,250.64749 c 6.865757,-6.81424 11.569325,-10.02653 36.309653,-24.79768 9.32028,-5.56465 16.9769,-10.14218 17.01471,-10.17229 0.0378,-0.0301 0.50906,-12.28214 1.04721,-27.22672 0.53815,-14.94459 1.35543,-37.42721 1.81617,-49.96138 0.46075,-12.53417 0.98815,-27.39111 1.172,-33.01541 0.63821,-19.524569 1.95073,-28.555928 5.83851,-40.174372 3.02993,-9.054825 7.12599,-17.095018 12.45932,-24.456513 C 113.42924,17.778425 133.413,5.9688475 164.01386,1.0747379 169.81599,0.14678797 174.32528,5.9438498e-8 197.02928,5.9438498e-8 224.36927,5.9438498e-8 227.99336,0.23874557 237.93333,2.6946578 c 12.16856,3.0065357 20.09452,6.4062347 29.54471,12.6726562 18.0797,11.988662 30.60168,27.814199 38.23811,48.326132 4.4499,11.952722 5.78845,20.906361 6.72657,44.994454 0.33796,8.6775 1.12248,27.87319 1.7434,42.65708 0.62091,14.7839 1.44996,35.34858 1.84233,45.69931 l 0.71339,18.81952 16.99474,10.21534 c 22.70138,13.64554 28.75086,17.75798 35.22025,23.94277 6.97381,6.667 10.60619,11.47634 14.18119,18.77612 3.30154,6.74141 4.74486,10.86302 6.24111,17.82248 1.0101,4.69822 1.06786,10.23023 1.06786,102.26013 v 97.2932 l -1.27244,2.37724 c -1.52108,2.8417 -5.34749,6.42426 -8.28767,7.75946 -1.96194,0.89098 -16.25486,0.97269 -184.44196,1.05443 -100.273347,0.0487 -183.104049,-0.10329 -184.068216,-0.33777 z m 52.042812,-97.19022 c 0.0333,-74.80059 0.11492,-81.5189 1.01092,-83.21726 1.57761,-2.99034 3.68076,-4.28809 6.94931,-4.28809 3.40017,0 5.7455,1.08143 7.21752,3.32802 1.02525,1.56474 1.07275,5.14335 1.10937,83.5909 l 0.0383,81.95617 114.677427,1e-4 114.67743,10e-5 v -80.02631 c 0,-55.37064 0.19552,-80.93798 0.6346,-82.98538 0.87683,-4.08851 3.19837,-5.8636 7.66865,-5.8636 2.38666,0 3.62963,0.31749 4.77735,1.22028 3.4944,2.74869 3.28102,-2.85146 3.28102,86.11006 v 81.54495 h 23.30219 c 19.13527,0 23.42225,-0.14466 23.97357,-0.80895 0.50122,-0.60396 0.62208,-24.48334 0.47689,-94.2254 -0.21381,-102.70822 0.0291,-95.82697 -3.71681,-105.29975 -3.77949,-9.55776 -12.9885,-20.3604 -23.29165,-27.32232 -2.8925,-1.95448 -13.54216,-8.49836 -23.66591,-14.54193 -18.90763,-11.28731 -21.0797,-12.79998 -22.62193,-15.75448 -1.0016,-1.91883 -0.78727,2.22546 -3.94581,-76.2917 -1.11833,-27.80015 -2.18747,-52.386408 -2.37586,-54.636122 -1.53705,-18.354327 -9.63491,-36.611987 -22.06097,-49.739268 -10.0704,-10.638662 -21.92149,-18.122012 -34.95156,-22.070103 -9.97853,-3.023484 -13.2059,-3.278778 -41.44926,-3.278778 -23.24509,0 -26.9,0.126609 -32.79278,1.135899 -17.0877,2.926729 -30.2948,9.581205 -42.58851,21.458452 -11.65008,11.255444 -18.75775,23.518379 -22.721187,39.201127 -1.95138,7.721373 -2.31875,12.713883 -3.85899,52.443693 -3.76138,97.02327 -3.42599,90.43279 -4.71442,92.63891 -1.65933,2.84116 -3.46954,4.04783 -26.92124,17.94545 -12.65149,7.49735 -22.97688,14.04643 -26.068416,16.53441 -9.270324,7.46046 -14.823698,15.77595 -17.847863,26.72497 l -1.569407,5.68206 -0.158134,94.29709 c -0.117517,70.07851 0.01344,94.5038 0.50981,95.10192 0.546718,0.65875 4.870405,0.80481 23.82404,0.80472 l 23.15611,-1e-4 z m 94.447947,7.7003 c -7.73539,-1.00427 -13.87656,-3.50367 -18.04548,-7.34436 -3.12788,-2.88161 -3.5628,-4.90502 -1.80162,-8.3818 1.00033,-1.97476 1.87159,-2.824 3.53448,-3.44521 2.11618,-0.79054 2.43865,-0.73084 7.84417,1.45209 5.37219,2.16947 5.94161,2.27652 12.10952,2.27652 5.88962,0 6.79822,-0.15058 10.0935,-1.67288 1.99168,-0.92009 4.02234,-2.11608 4.51256,-2.65778 0.81746,-0.90327 0.52406,-1.2247 -3.54012,-3.87837 -7.47476,-4.88059 -13.59375,-12.24903 -17.18995,-20.70001 -2.22206,-5.22174 -3.70977,-13.78554 -3.22582,-18.56887 0.20323,-2.00868 0.20178,-3.65215 -0.003,-3.65215 -0.205,0 -1.92208,0.8258 -3.81573,1.8351 -4.50228,2.39968 -7.71044,5.96205 -10.3532,11.49623 -2.13564,4.47221 -2.14468,4.52375 -2.14468,12.22225 v 7.73109 l -1.8076,1.80782 c -2.28125,2.28152 -5.64291,2.86425 -8.37453,1.45168 -5.64464,-2.91896 -6.1883,-17.18004 -1.11958,-29.36846 4.83048,-11.61555 14.17104,-21.04137 24.8229,-25.04949 2.20501,-0.82971 4.07125,-1.57034 4.14721,-1.64585 0.076,-0.0755 -0.25274,-2.18 -0.73043,-4.67665 -1.64935,-8.62038 -0.76345,-19.22508 2.20119,-26.34944 4.58037,-11.00711 17.8867,-22.83484 26.49235,-23.54848 2.95855,-0.24535 3.25159,-0.14389 5.19352,1.79804 1.73997,1.73997 2.05807,2.46135 2.05807,4.66724 0,3.38306 -1.37436,5.11118 -6.01614,7.56469 -6.53566,3.45455 -11.42492,9.5977 -13.57597,17.05755 -1.07208,3.71803 -1.02399,13.27483 0.0723,14.37115 0.37291,0.3729 1.33983,0.05 2.77933,-0.92817 13.01735,-8.84552 31.70947,-9.66306 44.85907,-1.962 1.72907,1.01264 3.58301,2.23109 4.11988,2.70767 0.87372,0.77563 1.04891,0.7304 1.67059,-0.43123 0.38951,-0.72781 0.68301,-3.50781 0.66829,-6.33018 -0.0343,-6.5759 -1.62913,-11.73101 -5.02284,-16.23579 -3.3882,-4.49749 -4.63751,-5.60216 -8.81034,-7.79031 -4.33373,-2.27252 -5.49602,-3.28416 -6.50107,-5.65851 -1.10372,-2.60737 -0.42916,-5.13581 1.92058,-7.19892 2.56822,-2.25494 5.05061,-2.26436 10.26679,-0.039 7.0179,2.99403 13.88217,8.68954 18.37876,15.24948 6.3309,9.23598 8.32369,23.8472 5.07035,37.17597 -0.26383,1.08087 0.12026,1.39152 2.8098,2.27262 13.17336,4.31563 23.5186,14.58332 27.9514,27.74189 2.41748,7.17617 2.57465,19.53745 0.30424,23.92794 -1.89498,3.66448 -7.80032,4.48181 -10.7924,1.4937 -1.41883,-1.41695 -1.50727,-1.88509 -1.79724,-9.51371 -0.28438,-7.48158 -0.43099,-8.29127 -2.17086,-11.98971 -2.09941,-4.46264 -7.11437,-10.10837 -11.00364,-12.38763 -1.37826,-0.80769 -2.78778,-1.46854 -3.13229,-1.46854 -0.3873,0 -0.6293,1.61698 -0.63405,4.23649 -0.0284,15.6592 -8.96606,31.87756 -21.87213,39.68925 -1.76761,1.06987 -3.22128,2.12808 -3.2304,2.35157 -0.0343,0.84033 8.58304,4.60886 11.639,5.08997 5.3763,0.84641 13.09047,-0.59352 18.85311,-3.51913 3.26166,-1.6559 5.88221,-1.43616 8.31173,0.697 4.09713,3.59732 3.29643,8.05672 -2.07841,11.57539 -6.99831,4.58148 -14.02151,6.57333 -23.29491,6.60665 -11.97656,0.043 -21.55159,-3.50147 -28.65924,-10.60913 l -3.9668,-3.96679 -3.32238,3.46512 c -6.35661,6.62973 -13.41071,9.95192 -23.36965,11.00615 -5.875,0.62191 -6.11702,0.62085 -11.28199,-0.0498 z m 54.14765,-34.60838 c 5.69463,-3.40328 11.00466,-10.51306 13.26943,-17.76688 1.19832,-3.83809 1.80187,-12.7256 0.90197,-13.28177 -1.10524,-0.68307 -5.92963,2.50308 -9.70522,6.40955 -6.64863,6.87911 -9.54214,13.71079 -9.60798,22.68479 -0.0385,5.24756 -0.24034,5.17085 5.1418,1.95431 z m -26.45223,-0.18829 c 0.54727,-2.91724 -1.05465,-10.58546 -3.13428,-15.00345 -0.9385,-1.99372 -2.97009,-5.16879 -4.51467,-7.05568 -2.67359,-3.26612 -8.93117,-7.96399 -10.6081,-7.96399 -1.26866,0 -1.02507,8.45209 0.37415,12.98225 1.37267,4.4442 4.70727,9.73605 8.2621,13.11154 2.44924,2.32567 7.85165,6.04511 8.78041,6.04511 0.24391,0 0.62208,-0.9521 0.84039,-2.11578 z m 14.15373,-18.54244 c 1.9935,-1.10622 3.60873,-3.89475 3.6131,-6.23765 0.0148,-7.91569 -12.80147,-8.71379 -13.81741,-0.86045 -0.1663,1.28555 -0.0237,3.06038 0.3171,3.94405 1.25247,3.24846 6.62728,4.96304 9.88721,3.15405 z m 2.63531,-23.83102 c 3.96771,-0.79683 10.62331,-4.07306 10.62331,-5.22935 0,-0.45492 -2.09086,-1.87895 -4.64635,-3.1645 l -4.64634,-2.33738 h -7.62488 c -6.10221,0 -8.20832,0.22327 -10.54658,1.11806 -3.46707,1.32676 -7.3043,3.64277 -7.3043,4.40861 0,0.82743 8.1179,4.65166 11.10253,5.23024 3.83592,0.74361 9.26528,0.73291 13.04261,-0.0257 z m -68.54324,-92.28373 c -0.79686,-0.33512 -1.948,-1.05563 -2.55808,-1.60114 -1.0962,-0.98015 -26.13334,-51.18984 -28.12036,-56.39275 -2.44158,-6.39317 0.37021,-9.81494 11.82135,-14.3859 4.34767,-1.73547 7.74255,-3.42186 7.74255,-3.84607 0,-0.41551 -1.20629,-3.87117 -2.68064,-7.67924 -9.86743,-25.48629 -12.90637,-51.22593 -7.89085,-66.834888 2.63756,-8.208449 6.20285,-13.879767 12.84724,-20.436111 7.91235,-7.807523 14.88142,-11.718831 26.23101,-14.721869 5.06677,-1.340637 5.28706,-1.347578 42.78316,-1.347578 37.14219,0 37.76498,0.0191 42.83647,1.311728 19.72792,5.028371 34.63639,18.376828 40.02127,35.833447 4.57539,14.832441 1.78962,38.509401 -7.53472,64.039491 -1.89681,5.1935 -3.44875,9.69589 -3.44875,10.00533 0,0.30942 3.77018,2.0458 8.37818,3.85861 4.60801,1.81281 8.92925,3.88427 9.60275,4.60327 1.5057,1.60738 2.47108,4.05448 2.47108,6.26381 0,1.5146 -12.10256,27.07089 -23.93203,50.53589 -5.06089,10.03879 -6.11875,11.13311 -10.73317,11.10292 -2.48916,-0.0163 -4.83155,-0.82712 -13.22447,-4.57779 -5.60974,-2.50691 -11.13178,-5.03193 -12.27121,-5.61116 -2.05399,-1.04416 -2.0892,-1.0409 -4.1169,0.3811 -14.99026,10.51243 -37.49365,10.89983 -53.87213,0.92745 l -3.91075,-2.38115 -12.1587,5.56236 c -12.19404,5.57852 -15.50991,6.55615 -18.2823,5.39024 z m 67.92218,-18.93511 c 14.05464,-2.97831 23.80776,-15.44106 23.80776,-30.42206 0,-17.04963 -14.6683,-31.85368 -31.53124,-31.82309 -13.61201,0.0247 -26.59798,10.24274 -30.09878,23.68327 -1.02162,3.92226 -1.1554,12.15984 -0.26056,16.04516 1.10924,4.81635 4.13329,10.03475 8.12697,14.02425 7.7535,7.74536 18.75853,10.86528 29.95585,8.49247 z m -22.6695,-14.35201 c -6.23718,-1.88809 -7.3919,-10.65198 -1.84881,-14.0318 6.87117,-4.18959 15.08757,3.58441 10.95379,10.36401 -2.03191,3.33244 -5.54191,4.74638 -9.10498,3.66779 z m 24.54533,-0.538 c -7.40809,-3.75791 -4.78791,-14.63883 3.5251,-14.63883 6.08952,0 9.85056,6.41686 6.74567,11.50904 -2.35174,3.85695 -6.40337,5.09161 -10.27077,3.12979 z m -14.55698,-19.4696 c -3.08698,-1.74852 -4.66961,-4.57093 -4.65029,-8.29317 0.03,-5.78664 3.32783,-9.18512 9.26761,-9.55058 4.36948,-0.26886 6.96165,1.21828 8.9361,5.12667 1.63651,3.2394 1.65873,5.36583 0.09,8.60647 -2.41416,4.98698 -8.73433,6.89119 -13.64338,4.11061 z m 65.14531,20.9484 c 11.74149,-24.17625 11.71506,-24.1128 10.59622,-25.4329 -0.53796,-0.63474 -2.32559,-1.67412 -3.9725,-2.30971 l -2.99437,-1.15564 -1.46202,1.56948 c -2.58453,2.7745 -10.39872,13.64064 -11.80336,16.41335 -0.74851,1.47753 -2.32097,5.17273 -3.49436,8.21153 -1.1734,3.03881 -2.91736,6.79912 -3.87548,8.35627 l -1.74203,2.83116 5.41784,2.51834 c 2.97982,1.38509 5.78806,2.37963 6.24052,2.21009 0.45246,-0.16953 3.64276,-6.11492 7.08954,-13.21197 z M 148.5849,216.71722 c 2.71346,-1.16569 5.04828,-2.30506 5.1885,-2.53193 0.14021,-0.22687 -0.42078,-1.40689 -1.24664,-2.62227 -0.82588,-1.21536 -2.52489,-4.72474 -3.7756,-7.79859 -2.79565,-6.87084 -4.82188,-10.50338 -9.14682,-16.39813 -1.84074,-2.50887 -4.19599,-5.78927 -5.23387,-7.2898 -1.17831,-1.70355 -2.32429,-2.72823 -3.05114,-2.72823 -1.88058,0 -7.62518,2.78248 -7.62518,3.69337 0,1.19614 1.88381,5.29809 9.57487,20.84906 8.29522,16.77256 8.39237,16.94597 9.49407,16.94597 0.48853,0 3.10834,-0.95376 5.82181,-2.11945 z m 7.48607,-56.56157 c 5.40673,-7.57684 15.2953,-14.87213 23.8122,-17.56742 8.57496,-2.71367 18.99292,-2.93498 28.11771,-0.59731 4.75177,1.21734 13.139,5.49392 17.51246,8.92945 4.88103,3.83423 9.15556,9.18862 12.50009,15.65792 1.56289,3.02311 2.97309,5.49566 3.13378,5.49456 0.8362,-0.006 11.10253,-17.12081 11.10253,-18.50908 0,-0.33324 -1.61509,-0.92363 -3.5891,-1.312 -1.974,-0.38835 -5.85258,-1.50444 -8.61907,-2.48017 -11.60184,-4.09196 -18.36005,-8.61752 -28.69587,-19.21589 -8.51812,-8.73449 -11.09373,-10.43758 -15.81928,-10.46028 -5.6522,-0.0272 -7.72606,1.25055 -16.60135,10.22819 -4.50519,4.55713 -9.90046,9.48072 -11.98949,10.94131 -7.45082,5.2094 -18.11619,9.65146 -25.58609,10.65645 -2.81821,0.37916 -3.05465,0.52572 -2.69842,1.67262 0.89475,2.88072 5.55976,11.45284 8.13,14.93921 l 2.7634,3.74833 1.96669,-4.246 c 1.08169,-2.33529 3.1336,-5.88124 4.55981,-7.87989 z m -11.69973,-26.49584 c 8.60802,-2.82668 17.7969,-9.15969 24.749,-17.05708 11.80247,-13.40728 25.86589,-16.829378 40.43467,-9.83908 3.0981,1.48651 5.29723,3.32089 11.43245,9.53623 8.66514,8.77829 12.05119,11.44874 18.8307,14.85099 4.80742,2.41258 12.33379,4.70901 15.43341,4.70901 2.15028,0 2.97497,-1.38684 4.51726,-7.59647 1.91353,-7.7043 2.9928,-16.04393 2.98711,-23.08157 -0.01,-11.755348 -2.69031,-18.775255 -9.96367,-26.09046 -3.6285,-3.649384 -5.45352,-4.954127 -9.94367,-7.108911 -9.33054,-4.477647 -9.27546,-4.472483 -47.94751,-4.503191 -32.4129,-0.02566 -34.33244,0.03176 -38.77577,1.160909 -14.4792,3.679582 -24.7041,13.633426 -27.48504,26.756395 -2.09926,9.906178 -0.32453,28.103818 3.79844,38.948018 0.61476,1.61693 0.68799,1.63973 3.97563,1.23777 1.84214,-0.22523 5.42279,-1.09037 7.95699,-1.92256 z"
     id="path1" /><path
     style="fill:#ffffff;stroke-width:10.9464;stroke-linecap:round;stroke-linejoin:round"
     d="m 17.589848,385.76033 c 0.01363,-101.01919 -0.102113,-98.82701 5.83179,-110.45843 5.521821,-10.82365 12.788443,-16.65715 44.173185,-35.46134 9.02406,-5.40677 17.94546,-11.20526 19.82532,-12.88553 l 3.41793,-3.05504 1.07508,-23.58621 c 0.59129,-12.97241 1.8994,-43.22173 2.90692,-67.22069 2.01117,-47.9057 3.02138,-55.290074 9.401947,-68.725742 10.55096,-22.217324 29.49344,-37.860003 53.18354,-43.91891 7.9244,-2.02672 13.08883,-2.338108 38.77791,-2.338108 33.52365,0 37.74818,0.651881 53.18727,8.207248 16.27132,7.962626 31.6702,24.583969 38.25649,41.293543 5.60071,14.209119 5.96246,17.61314 8.90146,83.761279 1.57062,35.34983 2.86644,65.92479 2.87962,67.94436 0.0344,5.27115 2.84375,7.56422 27.92399,22.79216 33.62274,20.41467 43.31113,31.64494 45.3348,52.54969 0.50232,5.18896 0.94669,49.10353 0.98751,97.58793 l 0.0742,88.15345 H 350.1426 326.5564 v -81.69966 c 0,-91.0192 0.36263,-86.94172 -7.73239,-86.94172 -2.48831,0 -4.97404,0.91332 -6.41934,2.35862 -2.31337,2.31337 -2.35862,3.93103 -2.35862,84.32069 v 81.96207 H 195.67635 81.306663 l -0.31824,-82.64712 c -0.30903,-80.25706 -0.38444,-82.69552 -2.60743,-84.32069 -3.40945,-2.49255 -9.34943,-2.09175 -11.97458,0.80799 -2.15624,2.3818 -2.26109,5.77218 -2.60767,84.32069 l -0.36109,81.83913 H 40.507363 17.577082 Z M 182.18747,405.0088 c 3.18998,-1.40783 7.79004,-4.49862 10.22237,-6.86842 l 4.42242,-4.30873 4.42241,4.30873 c 9.12765,8.893 24.76461,12.34177 39.21714,8.64943 13.33979,-3.40807 19.89094,-9.69123 16.57152,-15.89364 -2.00318,-3.74295 -6.2196,-4.16445 -14.16221,-1.41575 -3.92755,1.35922 -8.98558,2.47129 -11.24005,2.47129 -4.25057,0 -13.58123,-3.17286 -13.58123,-4.61827 0,-0.45334 2.34724,-2.47873 5.2161,-4.50088 9.60517,-6.77035 18.37011,-23.86063 18.37011,-35.81887 0,-2.52615 0.51222,-4.59301 1.13827,-4.59301 2.13202,0 9.60777,7.42891 11.75511,11.68145 1.17735,2.33157 2.51863,8.35793 2.98063,13.3919 0.65557,7.14298 1.31852,9.40875 3.01926,10.31897 3.43695,1.83939 6.8436,1.37426 9.51734,-1.29948 2.23294,-2.23295 2.42383,-3.54145 2.02147,-13.8569 -0.35235,-9.03329 -1.03639,-12.61163 -3.30475,-17.28767 -3.93234,-8.10624 -13.30275,-17.14464 -21.4382,-20.67858 l -6.69361,-2.90762 0.65144,-9.43449 c 1.46811,-21.26216 -8.32779,-38.0581 -26.17101,-44.87248 -5.29839,-2.02348 -5.5251,-2.01595 -8.6225,0.28623 -4.70381,3.49616 -4.7476,7.7044 -0.11581,11.1276 2.08116,1.53812 6.30563,5.26364 9.38771,8.27894 4.51766,4.41975 5.88484,6.73822 7.05386,11.96193 0.79754,3.56378 1.12416,7.77809 0.72585,9.36513 l -0.72422,2.88554 -6.80595,-3.3693 c -12.15703,-6.0184 -30.00678,-5.4097 -41.02338,1.39893 -2.06156,1.27411 -4.09505,1.96981 -4.51887,1.54599 -1.18499,-1.185 -0.91713,-7.00619 0.59958,-13.02957 1.37821,-5.47336 8.1074,-13.44804 15.49239,-18.35985 3.96758,-2.63887 4.40434,-8.79553 0.85202,-12.01034 -2.10268,-1.9029 -2.89075,-1.95859 -7.96035,-0.56259 -4.39103,1.20914 -7.46431,3.38088 -13.995,9.88955 -10.55961,10.524 -12.77644,16.18966 -12.82538,32.77845 l -0.0338,11.46589 -6.15112,3.06609 c -7.17927,3.57858 -16.6009,13.39115 -20.19103,21.02882 -9.21153,19.59668 -4.53137,38.49983 7.93582,32.0528 3.615,-1.86939 3.66495,-2.01795 3.66495,-10.90134 0,-8.07936 0.38001,-9.59833 3.69283,-14.76092 2.03107,-3.16514 5.18885,-6.52841 7.0173,-7.47394 3.93001,-2.03228 5.03795,-2.16872 4.00221,-0.49286 -1.34076,2.1694 1.93041,17.5388 4.95499,23.28066 3.35104,6.36161 8.37207,12.02459 14.98604,16.90201 l 4.58096,3.37819 -5.17061,2.34605 c -6.64011,3.0128 -10.98889,2.98799 -20.4461,-0.11659 -7.267,-2.38559 -7.81556,-2.41216 -10.7055,-0.5186 -2.49392,1.63408 -2.98045,2.76331 -2.68425,6.23004 0.43021,5.03497 3.6687,7.82608 12.9192,11.13446 8.37124,2.99392 22.84268,2.40233 31.17366,-1.27438 z m -28.96178,-171.62996 11.86924,-5.26255 6.81018,3.46069 c 14.54601,7.39175 33.41829,7.40825 47.02025,0.0411 l 6.30375,-3.41425 11.90918,5.28025 c 15.0787,6.68553 18.95707,6.66085 23.50952,-0.14962 4.95298,-7.40969 26.99134,-54.33023 26.99134,-57.46565 0,-5.01999 -2.78299,-7.07251 -17.27858,-12.74328 l -2.53719,-0.99257 4.49821,-14.04591 C 286.3923,104.15054 281.94528,76.638414 258.21088,60.78919 243.58145,51.020038 242.11434,50.74617 201.5495,50.212071 c -42.14659,-0.554924 -50.0072,0.226349 -62.02209,6.164438 -10.15775,5.020227 -20.5466,15.543029 -25.06152,25.38464 -2.54855,5.555312 -3.06205,8.642829 -3.47631,20.901881 -0.56328,16.66902 1.17387,27.33187 7.4851,45.94444 2.23356,6.58706 4.06102,12.2759 4.06102,12.64188 0,0.36597 -3.97465,2.50181 -8.83256,4.74631 -10.88885,5.03095 -12.50264,7.61153 -9.56703,15.29833 2.77956,7.27815 22.12915,46.39517 25.9213,52.40232 2.68673,4.25606 3.69135,4.94505 7.21036,4.94505 2.28131,0 9.3354,-2.32628 15.95792,-5.26253 z"
     id="path2" /><path
     style="fill:#ffffff;stroke-width:1.93506;stroke-linecap:round;stroke-linejoin:round"
     d="m 193.80465,330.7422 c -3.01454,-0.35735 -4.30869,-0.62874 -5.98393,-1.25484 -3.97029,-1.48387 -8.40082,-3.78457 -8.40082,-4.36241 0,-0.68829 4.38237,-3.24587 7.42313,-4.33219 2.28322,-0.81568 4.15652,-0.97674 11.36046,-0.97674 h 6.66189 l 3.67253,1.92839 c 2.01989,1.06061 4.05773,2.28024 4.52853,2.71028 l 0.85601,0.7819 -0.72966,0.63317 c -0.96901,0.84088 -4.66209,2.71139 -6.91849,3.50417 -0.99598,0.34993 -2.59081,0.78619 -3.54407,0.96948 -1.66767,0.32064 -7.4176,0.57754 -8.92558,0.39879 z"
     id="path3" /><path
     style="fill:#ffffff;stroke-width:1.93506;stroke-linecap:round;stroke-linejoin:round"
     d="m 195.4775,354.50554 c -2.10944,-0.56685 -3.82129,-1.90487 -4.50676,-3.52257 -0.54137,-1.27764 -0.48962,-4.08686 0.0999,-5.42034 1.37634,-3.1135 4.94834,-4.55459 8.56585,-3.45581 1.26565,0.38443 1.69807,0.64591 2.71843,1.64377 0.99292,0.97104 1.27794,1.41102 1.56883,2.42183 0.68278,2.37251 -0.0884,4.9158 -2.10126,6.93018 -1.64821,1.64942 -3.72165,2.10788 -6.34494,1.40294 z"
     id="path4" /><path
     style="fill:#ffffff;stroke-width:1.93506;stroke-linecap:round;stroke-linejoin:round"
     d="m 184.29136,374.0472 c -2.42049,-1.33475 -6.52346,-4.47581 -8.16528,-6.25099 -1.31547,-1.42232 -3.20189,-3.9065 -4.17993,-5.50443 -3.05091,-4.98459 -4.22623,-9.17828 -4.27953,-15.26983 -0.0292,-3.33461 0.2215,-4.38341 0.99222,-4.15151 2.28616,0.68788 8.1064,5.31413 10.43105,8.29117 3.54805,4.5438 5.38271,8.48467 6.71528,14.42448 0.88956,3.96514 0.77203,9.0707 -0.20844,9.05497 -0.12941,-0.002 -0.71683,-0.26931 -1.30537,-0.59386 z"
     id="path5" /><path
     style="fill:#ffffff;stroke-width:1.93506;stroke-linecap:round;stroke-linejoin:round"
     d="m 208.17675,374.62119 c -0.40444,-0.75568 -0.1147,-7.48079 0.43458,-10.08737 0.88731,-4.21062 2.46145,-7.81886 4.95677,-11.36187 1.74565,-2.47857 6.87345,-7.65768 9.03767,-9.12808 2.77399,-1.88469 4.36035,-2.52007 4.61766,-1.84952 0.47066,1.22652 0.28704,5.85225 -0.39438,9.93523 -1.16791,6.99792 -6.2578,15.1616 -12.17694,19.5306 -1.4956,1.10393 -4.96376,3.12291 -5.66813,3.2997 -0.44157,0.11083 -0.60288,0.0431 -0.80723,-0.33869 z"
     id="path6" /><path
     style="fill:#ffffff;stroke-width:1.93506;stroke-linecap:round;stroke-linejoin:round"
     d="m 141.70028,217.94595 c -0.37267,-0.44202 -3.56731,-6.62011 -7.0992,-13.72909 -7.10406,-14.29903 -9.46979,-19.24949 -10.3014,-21.5564 l -0.55618,-1.54284 0.45587,-0.48525 c 0.90722,-0.96569 5.86899,-3.2045 7.10199,-3.2045 0.21295,0 0.79977,0.38032 1.30406,0.84515 0.91953,0.8476 7.91519,10.45221 10.31729,14.16502 1.65491,2.5579 3.77786,6.75175 5.53063,10.92566 1.49505,3.56017 3.15767,6.9769 4.36559,8.9714 0.41257,0.68122 0.75013,1.39422 0.75013,1.58444 0,0.39534 -3.36272,2.04941 -7.39276,3.63638 -3.46845,1.36583 -3.64065,1.38083 -4.47602,0.39003 z"
     id="path7" /><path
     style="fill:#ffffff;stroke-width:1.93506;stroke-linecap:round;stroke-linejoin:round"
     d="m 190.36482,219.43116 c -3.67814,-0.59339 -7.90195,-2.07525 -10.89095,-3.82092 -7.23581,-4.22594 -12.80761,-11.41002 -14.69333,-18.94506 -0.40902,-1.63439 -0.45879,-2.38597 -0.46629,-7.04154 -0.009,-5.75294 0.16745,-7.33109 1.17884,-10.52797 3.39899,-10.74371 13.11423,-19.32137 24.48105,-21.61449 2.71708,-0.54814 8.02566,-0.49978 10.75472,0.098 6.301,1.38013 11.45483,4.22219 16.12434,8.8917 6.30684,6.30683 9.51073,13.90732 9.4922,22.51802 -0.0182,8.47826 -3.16964,16.20871 -8.97373,22.0128 -4.22308,4.22308 -9.06256,6.82285 -15.1238,8.12452 -2.7555,0.59176 -9.09666,0.7545 -11.88305,0.30497 z m 20.70729,-14.74257 c 1.55362,-0.5729 3.38027,-2.39929 4.25674,-4.25614 0.5946,-1.25969 0.67379,-1.63572 0.67379,-3.19949 0,-1.54829 -0.0813,-1.94314 -0.64345,-3.12712 -0.83538,-1.75926 -2.0754,-3.00692 -3.80113,-3.82453 -1.27182,-0.60256 -1.56286,-0.65742 -3.4729,-0.65467 -1.84867,0.003 -2.23164,0.0705 -3.38195,0.59919 -1.49733,0.68816 -3.2045,2.35743 -3.80933,3.72475 -1.38168,3.12352 -0.701,6.78055 1.6759,9.00386 2.36732,2.21435 5.47899,2.84901 8.50233,1.73415 z m -25.339,-0.22982 c 1.48119,-0.72733 3.09415,-2.32909 3.80174,-3.77534 1.91479,-3.9137 0.2217,-8.48288 -3.86011,-10.41731 -1.21843,-0.57744 -1.55619,-0.64248 -3.33619,-0.64248 -1.78936,0 -2.11434,0.0634 -3.36713,0.65695 -2.7743,1.31442 -4.15446,3.4177 -4.30759,6.56452 -0.14533,2.98672 0.97313,5.43551 3.17538,6.95226 1.56105,1.07514 2.60441,1.35725 4.81205,1.3011 1.58025,-0.0402 2.06648,-0.14111 3.08185,-0.6397 z m 11.24052,-18.50535 c 2.48921,-0.51909 4.91681,-2.12862 6.18033,-4.09763 2.21007,-3.4441 2.25495,-6.98149 0.13449,-10.5998 -1.93463,-3.30118 -4.64125,-4.67106 -8.6685,-4.38731 -3.21192,0.2263 -5.45648,1.1881 -7.13843,3.05884 -2.34244,2.60535 -2.8842,7.71124 -1.18524,11.17055 1.77292,3.60992 6.45025,5.73686 10.67735,4.85535 z"
     id="path8" /><path
     style="fill:#ffffff;stroke-width:1.93506;stroke-linecap:round;stroke-linejoin:round"
     d="m 246.02754,218.31517 c -2.07838,-0.73638 -9.27712,-4.00902 -9.27712,-4.21748 0,-0.0846 0.48559,-0.93513 1.07909,-1.89017 1.33061,-2.14117 2.45839,-4.53344 4.55324,-9.65846 2.80068,-6.8518 3.27077,-7.79279 5.74454,-11.49905 3.08099,-4.61602 7.59199,-10.63779 9.40334,-12.55261 l 1.42233,-1.50358 1.81086,0.7189 c 3.5531,1.41057 5.38151,2.66297 5.38151,3.68616 0,1.08356 -1.62859,4.77267 -6.99012,15.83408 -1.9174,3.9558 -4.1,8.45886 -4.85023,10.00678 -2.95704,6.10123 -6.04785,11.68214 -6.46331,11.67046 -0.0805,-0.002 -0.89685,-0.27002 -1.81413,-0.59503 z"
     id="path9" /><path
     style="fill:#ffffff;stroke-width:1.93506;stroke-linecap:round;stroke-linejoin:round"
     d="m 147.67414,169.523 c -2.26747,-3.13789 -4.57429,-6.9589 -6.61802,-10.96208 -2.07612,-4.06661 -2.61823,-5.49293 -2.23382,-5.87734 0.15592,-0.15591 1.44147,-0.47704 2.85678,-0.71362 5.54771,-0.92733 11.05546,-2.81953 17.31031,-5.94699 7.43705,-3.71856 9.5659,-5.37686 19.90439,-15.50481 5.87642,-5.75675 7.35451,-7.08344 9.25166,-8.30399 1.81245,-1.16607 3.36204,-1.70997 5.41402,-1.90031 2.82615,-0.26216 4.85481,0.0398 6.81056,1.01363 2.42545,1.20775 4.53099,2.99701 10.84215,9.21355 5.94928,5.86009 6.98357,6.82602 9.48622,8.85923 7.13788,5.79899 15.79209,9.91172 26.544,12.61445 3.06708,0.77098 4.93515,1.36511 4.93515,1.56961 0,0.0472 -0.41982,0.92167 -0.93293,1.94333 -2.60494,5.18674 -9.46842,16.2714 -10.07505,16.2714 -0.0846,0 -0.70707,-1.0085 -1.3833,-2.2411 -0.67623,-1.23261 -1.74595,-3.17924 -2.37717,-4.32585 -5.18436,-9.41747 -11.21491,-15.11383 -21.19342,-20.01896 -5.53837,-2.7225 -8.09187,-3.54735 -13.65509,-4.411 -3.38719,-0.52584 -11.83145,-0.52584 -15.21864,0 -9.45427,1.46771 -16.71918,4.99429 -24.74939,12.01401 -4.51793,3.94941 -7.67887,8.24047 -11.02171,14.96225 l -2.10246,4.22761 z"
     id="path10" /><path
     style="fill:#ffffff;stroke-width:1.93506;stroke-linecap:round;stroke-linejoin:round"
     d="m 133.29732,135.4872 c -1.17731,-0.89477 -3.76243,-10.89438 -4.62534,-17.89153 -0.92492,-7.49988 -0.98305,-16.18541 -0.14009,-20.930518 1.93141,-10.872124 8.767,-19.66447 19.30411,-24.830127 4.07443,-1.997426 8.37958,-3.320325 12.61272,-3.875669 2.56013,-0.335865 50.48257,-0.503507 60.1609,-0.210456 12.70972,0.384839 14.87318,0.806329 22.04175,4.294224 4.41078,2.146082 6.27252,3.469964 9.64047,6.85531 4.02173,4.042501 6.02402,6.828659 7.71999,10.742252 3.55619,8.206176 3.45674,22.674624 -0.26165,38.065994 -1.61427,6.68186 -2.39533,8.02627 -4.66302,8.02627 -3.41797,0 -12.14048,-2.93509 -17.4002,-5.8551 -5.20505,-2.88967 -7.86677,-5.06614 -16.05075,-13.12458 -8.20762,-8.08173 -9.52258,-9.11257 -13.968,-10.94997 -4.31027,-1.78154 -8.25095,-2.59025 -12.62809,-2.59154 -4.66419,-0.001 -8.59429,0.89417 -12.80581,2.91805 -4.58258,2.2022 -7.66603,4.63882 -13.401,10.58975 -4.40974,4.5758 -6.49917,6.48265 -9.77706,8.92272 -3.99024,2.97035 -9.26194,5.90535 -13.20075,7.34947 -4.96073,1.81878 -11.68928,3.15582 -12.55818,2.49545 z"
     id="path11"
     inkscape:export-filename="Combinaison_NRBC.svg"
     inkscape:export-xdpi="96"
     inkscape:export-ydpi="96" /></svg>
