<?xml version="1.0" encoding="UTF-8" standalone="no"?>
<!-- Created with Inkscape (http://www.inkscape.org/) -->

<svg
   width="512"
   height="512"
   viewBox="0 0 135.46667 135.46667"
   version="1.1"
   id="svg1"
   xml:space="preserve"
   xmlns="http://www.w3.org/2000/svg"
   xmlns:svg="http://www.w3.org/2000/svg"><defs
     id="defs1" /><path
     style="fill:#000000;stroke-width:0.600221"
     d="m 33.185314,134.94714 c -4.000686,-0.86945 -7.047864,-4.42253 -7.664008,-8.93645 -0.115923,-0.84926 -0.143397,-19.1267 -0.08941,-59.47587 l 0.07794,-58.2498507 0.388858,-1.1181601 c 0.581264,-1.671428 1.296055,-2.7680494 2.793464,-4.285698 1.346199,-1.3643965 1.977216,-1.7838957 3.64495,-2.42316558 L 33.218197,0.1202126 63.62997,0.07218189 c 30.569687,-0.0482828 33.240653,-0.0096456 35.199817,0.50901586 1.329263,0.35191096 2.441173,1.04485645 3.714563,2.31493095 1.26863,1.2653142 1.94053,2.4094611 2.4733,4.2116516 0.25453,0.8610282 0.28706,1.9667011 0.33766,11.4738947 l 0.056,10.521045 0.34994,5.94e-4 c 0.59033,10e-4 1.32213,0.568594 1.66844,1.294056 0.31594,0.661878 0.33385,1.032222 0.43276,8.948481 l 0.10314,8.258028 -0.37139,0.714637 c -0.24774,0.476705 -0.64898,0.897196 -1.20514,1.262958 l -0.83374,0.548323 -0.005,37.645057 c -0.004,31.079176 -0.0433,37.852786 -0.22205,38.836116 -0.93096,5.12121 -3.95697,7.70136 -9.856733,8.40443 -0.973329,0.11599 -10.978666,0.16643 -31.364633,0.15814 -24.491413,-0.01 -30.114611,-0.0512 -30.921087,-0.22639 z m 63.861684,-3.79983 c 2.785782,-1.04857 4.333602,-2.76264 4.719762,-5.22667 0.0963,-0.61495 0.14887,-22.13975 0.14164,-58.068718 C 101.8958,4.8146506 101.97121,9.3966763 100.90933,7.2181183 100.06644,5.4888715 98.282413,4.2128693 96.132157,3.8013211 95.392317,3.6597182 87.691424,3.6333759 64.582826,3.6934 L 34.012244,3.772801 33.244856,4.153743 c -1.673879,0.8309345 -3.142997,2.5783588 -3.848591,4.5776632 l -0.379781,1.076107 -1.55e-4,57.4885788 c -9.1e-5,33.360508 0.06001,57.904598 0.143209,58.479798 0.401652,2.77701 2.760057,5.20629 5.431612,5.59483 0.467702,0.0681 14.480439,0.1326 31.139411,0.14349 l 30.289049,0.0198 z m -60.611485,-4.4447 c -1.327578,-0.47381 -2.042635,-1.27625 -2.416558,-2.71184 -0.21844,-0.83865 -0.244923,-6.97006 -0.244923,-56.708076 0,-49.485374 0.02718,-55.844815 0.241328,-56.451758 0.336279,-0.9531153 0.931506,-1.6798488 1.713273,-2.0917959 l 0.665735,-0.3508039 27.870846,-0.053906 c 15.328965,-0.029649 28.371081,-0.061271 28.982503,-0.07027 1.65616,-0.024388 2.91638,0.6788311 3.61961,2.0197728 0.332061,0.633209 0.333266,0.694717 0.376277,19.295202 0.02367,10.262981 0.05327,35.53988 0.06555,56.170884 0.02105,35.194511 0.0055,37.565001 -0.253076,38.386851 -0.381484,1.21284 -1.147268,2.05898 -2.230107,2.46411 -0.872751,0.32654 -0.967026,0.32757 -29.335984,0.32063 -23.320314,-0.005 -28.56771,-0.0453 -29.054503,-0.21901 z M 47.987369,83.99719 C 51.732138,80.529028 56.00313,76.44584 62.291912,70.321651 72.342483,60.534121 77.195136,55.84804 80.06663,53.15705 c 1.48486,-1.391516 4.379137,-4.164401 6.431731,-6.161968 2.052606,-1.997565 4.210217,-4.035584 4.794697,-4.528929 L 92.355773,41.56916 92.325301,28.943906 C 92.298118,17.678185 92.267099,16.258798 92.037413,15.762823 91.408158,14.40428 90.40404,14.000341 87.443411,13.914751 l -2.151714,-0.0622 -0.406277,0.439011 c -0.443884,0.479639 -1.400344,1.712379 -10.377088,13.374508 -6.351187,8.251142 -17.073746,22.100667 -20.231367,26.131327 -1.026385,1.310169 -2.627058,3.382616 -3.557051,4.605439 -2.757957,3.626364 -4.626938,6.04486 -6.688507,8.655048 -1.069284,1.35384 -2.706943,3.464555 -3.639241,4.690478 l -1.695088,2.228951 -0.0062,2.376488 c -0.0034,1.307069 -0.07238,3.94869 -0.15324,5.870271 -0.08087,1.92158 -0.107132,5.173176 -0.05837,7.225772 l 0.08866,3.731994 3.677464,-3.636313 c 2.022606,-1.999975 4.606494,-4.496722 5.741973,-5.548331 z M 77.298488,16.38447 c 1.105173,-0.232392 2.013822,-1.136902 2.971419,-2.957883 l 0.679701,-1.292525 -16.100578,0.02778 -16.100573,0.02779 0.939717,1.234647 c 1.656935,2.176965 2.491032,3.107452 2.861112,3.191748 0.746276,0.169986 23.868415,-0.04635 24.749202,-0.231563 z"
     id="path23" /><path
     style="fill:#ffffff;stroke:none;stroke-width:1.28388"
     d="m 38.590396,89.825324 c -0.03802,-1.671113 0.0055,-5.922785 0.09661,-9.448154 l 0.165737,-6.409767 0.939636,-1.250228 c 0.516801,-0.687626 2.404968,-3.133638 4.19593,-5.435584 1.790959,-2.301947 5.281546,-6.815024 7.756858,-10.029064 2.475312,-3.214039 5.884889,-7.620508 7.576839,-9.792155 1.69195,-2.17165 6.942715,-8.959035 11.668366,-15.083081 12.333113,-15.982678 13.819828,-17.89199 14.185564,-18.217836 0.305081,-0.271805 0.481016,-0.280762 2.558931,-0.130269 2.588954,0.187505 3.483206,0.509421 4.024461,1.448739 0.297463,0.516233 0.325221,0.928719 0.419793,6.238551 0.0557,3.127173 0.109003,8.855121 0.118454,12.728769 l 0.01717,7.043005 -0.77079,0.649938 c -0.423931,0.357466 -1.83548,1.665656 -3.136773,2.907091 -9.566767,9.126707 -13.629846,13.031264 -22.389116,21.5156 -11.572695,11.209462 -12.369202,11.976442 -17.925963,17.261414 -2.301947,2.189356 -5.365988,5.11932 -6.808981,6.511034 l -2.623624,2.530385 z"
     id="path24" /><path
     style="fill:#ffffff;stroke:none;stroke-width:1.28388"
     d="M 52.170419,16.227346 C 51.937802,16.032329 51.128873,15.090976 50.3728,14.135452 l -1.374683,-1.737319 7.404418,-0.09598 c 4.072432,-0.05279 11.230719,-0.106092 15.907309,-0.118454 l 8.502885,-0.02247 -0.656944,1.224019 c -0.70226,1.308453 -1.52499,2.2748 -2.292348,2.692507 -0.57745,0.314331 -6.135407,0.467547 -17.768025,0.489811 l -7.502057,0.01436 z"
     id="path25" /><path
     style="fill:#ffffff;stroke:none;stroke-width:1.28388"
     d="m 35.055893,131.25823 c -1.615885,-0.12533 -2.757736,-0.6788 -3.924898,-1.90244 -1.156362,-1.21233 -1.652979,-2.24714 -1.844077,-3.84253 -0.09963,-0.83178 -0.139608,-21.85958 -0.111752,-58.784453 L 29.218531,9.2393733 29.817294,8.0141878 C 30.56585,6.4825009 31.95173,4.9668818 33.223635,4.2889626 L 34.158826,3.7905122 H 64.94093 c 33.982082,0 31.739159,-0.066515 33.511637,0.9937999 1.681083,1.0056437 2.736733,2.607949 3.063273,4.6495704 0.15376,0.9613895 0.19624,13.7376625 0.19624,59.0322425 v 57.805315 l -0.36876,0.9136 c -0.56346,1.39603 -1.821035,2.65467 -3.467656,3.47062 l -1.351682,0.66979 -30.09912,0.0156 c -16.554517,0.009 -30.670551,-0.0287 -31.368969,-0.0829 z m 58.818385,-4.42481 c 1.519208,-0.17592 2.279644,-0.68767 2.93974,-1.97835 l 0.475795,-0.93032 0.04014,-50.867231 C 97.352014,45.080543 97.31648,19.55453 97.25098,16.333047 L 97.131875,10.475804 96.669145,9.8081187 C 96.414643,9.4408916 95.881603,8.9494783 95.484608,8.7160893 l -0.721804,-0.424344 -29.252895,0.013589 -29.252895,0.013589 -0.738571,0.4602258 c -0.506339,0.315514 -0.892826,0.7333639 -1.229141,1.3288849 l -0.490569,0.868659 v 56.462835 56.462842 l 0.363075,0.78772 c 0.745275,1.61694 1.422201,2.02193 3.585376,2.14506 2.577611,0.14673 54.859001,0.14511 56.127094,-0.002 z"
     id="path26" /></svg>
