<?xml version="1.0" encoding="UTF-8" standalone="no"?>
<!-- Created with Inkscape (http://www.inkscape.org/) -->

<svg
   width="512"
   height="512"
   viewBox="0 0 135.46667 135.46667"
   version="1.1"
   id="svg1"
   xml:space="preserve"
   xmlns="http://www.w3.org/2000/svg"
   xmlns:svg="http://www.w3.org/2000/svg"><defs
     id="defs1" /><path
     style="fill:#000000;stroke-width:0.59822"
     d="m 33.860926,135.04637 c -3.431952,-0.19585 -5.399366,-0.96843 -7.27109,-2.85527 -1.854793,-1.86978 -2.849364,-4.09616 -3.162624,-7.07966 C 23.223749,123.17365 23.21069,32.42976 23.411895,18.635285 23.554758,8.840404 23.588171,8.5204899 24.708628,6.2195552 25.903389,3.766033 28.287364,1.8624892 31.050375,1.1558302 31.80913,0.96177329 33.240132,0.80208423 35.063353,0.70801279 36.633868,0.62697961 49.997484,0.57849683 65.041945,0.59925151 c 28.259942,0.0389861 29.133285,0.0589068 31.24949,0.71278599 3.299472,1.0194932 5.852375,4.0690329 6.645695,7.9385294 0.21434,1.0454971 0.25012,2.8480411 0.25012,12.6026321 v 11.382642 l 0.8046,0.07731 c 0.95384,0.09165 1.37281,0.443394 1.57709,1.324013 0.20304,0.875339 0.19053,15.979268 -0.0138,16.715155 -0.2218,0.798577 -0.81246,1.233863 -1.67432,1.233863 h -0.68828 l -0.0472,36.602078 c -0.0448,34.71836 -0.0619,36.65909 -0.33361,37.71002 -0.79539,3.07649 -2.75701,5.65913 -5.213462,6.86398 -1.73292,0.84997 -3.049255,1.08816 -7.080849,1.28128 -3.825311,0.18323 -53.451854,0.18573 -56.656492,0.003 z m 59.895173,-3.95022 c 2.943278,-0.75277 4.796311,-2.58337 5.552046,-5.48484 0.210554,-0.80836 0.238671,-7.5952 0.238671,-57.615805 0,-62.5717981 0.07659,-57.936299 -0.990753,-59.9388928 C 97.579539,6.2244612 95.800162,4.890831 93.76978,4.4693252 93.207506,4.3525974 83.790075,4.3155448 63.132458,4.3487831 35.192364,4.3937398 33.247665,4.4144024 32.369123,4.6756605 30.350193,5.2760427 28.605052,6.678454 27.779926,8.3635814 26.832399,10.298682 26.889448,6.2546948 26.934493,68.293507 c 0.03931,54.140873 0.05486,56.909183 0.324976,57.813383 0.788637,2.64002 2.789083,4.46521 5.552783,5.06631 0.786868,0.17115 6.503989,0.21325 30.344587,0.22347 28.770444,0.0123 29.400249,0.006 30.59926,-0.30052 z m -37.98991,-5.44723 c -1.564291,-0.49903 -2.838057,-1.86093 -3.333056,-3.56367 -0.674445,-2.32 0.560107,-5.05781 2.770082,-6.14309 l 0.895947,-0.43998 h 7.122565 7.122567 l 0.870536,0.41356 c 1.107353,0.52604 1.98856,1.40725 2.514614,2.51461 0.347931,0.7324 0.412448,1.08401 0.406594,2.21591 -0.006,1.15122 -0.07152,1.47476 -0.454341,2.24198 -0.548758,1.09977 -1.322045,1.8697 -2.466867,2.45615 l -0.870536,0.44595 -6.964287,0.0329 c -5.377511,0.0255 -7.112279,-0.0143 -7.613818,-0.17431 z m 4.474809,-14.81598 -27.355734,-0.0791 -0.435602,-0.48754 -0.435602,-0.48753 -0.105381,-9.54971 c -0.190697,-17.280815 -0.11186,-79.783195 0.1014,-80.391825 0.103904,-0.296534 0.390003,-0.688275 0.635777,-0.870537 l 0.446862,-0.331383 29.905347,-0.04079 c 32.943654,-0.04493 30.678638,-0.11301 31.321478,0.941371 0.318391,0.522225 0.319434,0.669282 0.320024,45.124195 6.58e-4,48.642819 0.0646,45.337709 -0.889369,45.962719 -0.38648,0.25321 -0.797839,0.2893 -3.297516,0.2893 -1.570772,0 -15.16603,-0.0357 -30.211684,-0.0791 z M 90.999736,64.773687 V 22.354847 H 63.300867 35.601999 v 42.41884 42.418833 H 63.300867 90.999736 Z M 54.452487,13.924145 c -1.404525,-0.721813 -1.347427,-2.939899 0.09115,-3.540975 0.410162,-0.171376 1.976316,-0.215703 7.604622,-0.215233 6.75088,5.64e-4 7.112186,0.01529 7.594803,0.309559 0.929444,0.566715 1.226994,1.610511 0.747281,2.621434 -0.485735,1.023609 -0.502706,1.025657 -8.479631,1.023064 -5.38179,-0.0018 -7.272977,-0.05126 -7.558225,-0.197849 z"
     id="path26" /><path
     style="fill:#ffffff;stroke:none;stroke-width:1.28388"
     d="M 35.615021,64.754582 V 22.427197 H 63.254172 90.893323 V 64.754582 107.08197 H 63.254172 35.615021 Z"
     id="path27" /><path
     style="fill:#ffffff;stroke:none;stroke-width:1.28388"
     d="m 32.957601,131.08584 c -1.993095,-0.29298 -4.230523,-1.97309 -5.14945,-3.86678 -0.374907,-0.77259 -0.482222,-1.25393 -0.581009,-2.60597 C 27.023111,121.82059 26.991835,12.980924 27.194508,11.043472 27.3938,9.1383344 27.743606,8.2890068 28.84191,7.043584 29.675392,6.0984547 30.818305,5.3486943 32.158301,4.8680025 l 1.008681,-0.3618413 30.403065,-0.00246 30.403066,-0.00246 1.235358,0.5898666 c 1.503709,0.7180012 2.651694,1.8337346 3.394308,3.2989423 0.510505,1.00725 0.526775,1.1015224 0.666562,3.8627429 0.17195,3.396539 0.18274,110.419007 0.01132,112.372067 -0.258405,2.94428 -1.933755,5.07188 -4.880867,6.19844 l -0.900504,0.34422 -29.850282,0.021 c -16.417655,0.0115 -30.228794,-0.0346 -30.691416,-0.10266 z m 38.204393,-5.60963 c 1.147395,-0.58143 1.964875,-1.38932 2.510356,-2.48093 0.429117,-0.85874 0.479383,-1.11063 0.478002,-2.39535 -0.0013,-1.17784 -0.06893,-1.58044 -0.376762,-2.24153 -0.455131,-0.97744 -1.249008,-1.79801 -2.350952,-2.42998 l -0.82435,-0.47277 -7.309882,-0.002 -7.309884,-0.002 -0.789866,0.40026 c -2.876476,1.45762 -3.868246,5.24727 -2.064782,7.88972 0.534453,0.78308 1.796788,1.7525 2.540981,1.95136 0.309759,0.0828 3.729194,0.15723 7.63405,0.16625 l 7.072979,0.0163 z m 22.614538,-14.74792 c 0.290193,-0.14881 0.500664,-0.43821 0.631754,-0.86866 0.154832,-0.50841 0.19658,-10.14359 0.19658,-45.369843 V 19.76544 l -0.329803,-0.441748 c -0.194747,-0.26085 -0.582806,-0.50774 -0.947629,-0.602897 -0.409504,-0.106812 -10.69498,-0.161474 -30.504001,-0.162114 l -29.886175,-9.53e-4 -0.409459,0.409458 c -0.225203,0.225202 -0.468678,0.672016 -0.541054,0.992921 -0.205291,0.910233 -0.351163,54.005692 -0.200155,72.853046 l 0.135599,16.923927 0.432596,0.56716 0.432597,0.56716 22.301121,0.0445 c 36.823878,0.0735 38.191711,0.0669 38.688029,-0.18762 z M 68.939941,14.060649 c 1.195499,-0.171675 1.642983,-0.557783 1.813044,-1.564364 0.129151,-0.764436 -0.218257,-1.601837 -0.839539,-2.023643 -0.391136,-0.265552 -0.943266,-0.28564 -7.850857,-0.28564 -6.930819,0 -7.459734,0.0194 -7.870605,0.288676 -0.937705,0.614546 -1.108433,2.17557 -0.336143,3.073413 0.289012,0.335996 0.551392,0.44205 1.287566,0.520439 1.494978,0.159186 12.67628,0.151988 13.796534,-0.0089 z"
     id="path28" /></svg>
