<?xml version="1.0" encoding="UTF-8" standalone="no"?>
<!-- Created with Inkscape (http://www.inkscape.org/) -->

<svg
   width="464.15433"
   height="488.99609"
   viewBox="0 0 464.15433 488.99609"
   version="1.1"
   id="svg1"
   xml:space="preserve"
   sodipodi:docname="Medikt.svg"
   inkscape:version="1.4 (86a8ad7, 2024-10-11)"
   inkscape:export-filename="Reflexes_Cables.svg"
   inkscape:export-xdpi="96"
   inkscape:export-ydpi="96"
   xmlns:inkscape="http://www.inkscape.org/namespaces/inkscape"
   xmlns:sodipodi="http://sodipodi.sourceforge.net/DTD/sodipodi-0.dtd"
   xmlns="http://www.w3.org/2000/svg"
   xmlns:svg="http://www.w3.org/2000/svg"><sodipodi:namedview
     id="namedview1"
     pagecolor="#ffffff"
     bordercolor="#000000"
     borderopacity="0.25"
     inkscape:showpageshadow="2"
     inkscape:pageopacity="0.0"
     inkscape:pagecheckerboard="true"
     inkscape:deskcolor="#d1d1d1"
     inkscape:zoom="1.6959064"
     inkscape:cx="435.46037"
     inkscape:cy="243.23277"
     inkscape:window-width="2560"
     inkscape:window-height="1494"
     inkscape:window-x="585"
     inkscape:window-y="2149"
     inkscape:window-maximized="1"
     inkscape:current-layer="svg1"><inkscape:page
       x="0"
       y="0"
       width="464.15433"
       height="488.99609"
       id="page1"
       margin="0"
       bleed="0" /></sodipodi:namedview><defs
     id="defs1" /><path
     style="fill:#000000;stroke-width:0.583132"
     d="m 157.59535,488.12993 c -3.84459,-1.18755 -6.53532,-3.15134 -7.90636,-5.77035 -1.15879,-2.21356 -1.24462,-3.06488 -1.00826,-10.00026 0.1421,-4.16939 0.24194,-14.00974 0.22186,-21.86745 -0.0309,-12.10257 -0.27132,-15.98059 -1.57242,-25.36624 -3.52382,-25.41924 -3.52377,-25.41894 -4.33368,-25.10814 -2.79891,1.07404 -26.75668,5.40729 -37.19736,6.72788 -2.88651,0.3651 -6.035406,0.791 -6.997586,0.94644 -0.96216,0.15544 -7.5224,0.43664 -14.578299,0.6249 -14.823959,0.39549 -17.361012,0.0438 -24.130777,-3.3445 -8.473779,-4.24127 -12.046,-8.71527 -14.709098,-18.42237 -1.304757,-4.75586 -1.31043,-5.57114 -0.16883,-24.25031 l 0.38273,-6.26226 -2.693683,-5.53612 c -1.481524,-3.04487 -3.272997,-7.50523 -3.981059,-9.91192 -1.272699,-4.32588 -1.275882,-4.43575 -0.279535,-9.6332 l 1.00783,-5.25741 -2.151962,-1.88943 c -2.564892,-2.25202 -4.484825,-6.17147 -5.841041,-11.92422 -0.975429,-4.13753 -0.9684,-4.34077 0.362936,-10.50847 2.493638,-11.55234 2.464559,-10.67464 0.381832,-11.52534 -1.005117,-0.41054 -3.650514,-1.05714 -5.878643,-1.43689 -7.207848,-1.22844 -15.628001,-4.99483 -18.2721391,-8.17324 -2.376359,-2.85651 -6.731182,-9.74413 -7.45118497,-11.78482 -2.32055703,-6.57716 -0.103975,-12.86217 13.42624507,-38.06989 12.037414,-22.42647 18.978103,-38.77848 18.967868,-44.6876 -0.0021,-1.4151 -0.530846,-4.27856 -1.174213,-6.36326 -3.992858,-12.93797 -4.794832,-19.22628 -4.002724,-31.38562 0.844335,-12.96108 3.594867,-25.20336 9.249922,-41.1702 C 49.013544,73.615734 69.151661,46.231225 94.623514,28.785211 111.68083,17.102424 133.95074,7.8310274 155.27394,3.5352304 c 17.60367,-3.54644743 43.06977,-4.5496758 61.90341,-2.4386801 34.40846,3.8567461 58.44421,13.6645947 84.26259,34.3836147 6.34554,5.092239 8.82475,7.548745 14.53315,14.399971 11.80143,14.164109 19.92064,29.334595 24.85993,46.450045 l 2.21397,7.671749 7.62416,0.21562 c 8.87027,0.25086 10.5754,0.87843 12.8273,4.72102 1.64243,2.80258 2.78737,8.90336 4.1864,22.30704 l 0.36713,3.51736 4.74335,1.66642 c 2.60884,0.91653 6.50124,2.54482 8.64979,3.61839 2.26771,1.13314 4.05414,1.71299 4.25854,1.38225 0.54967,-0.88937 15.52159,-11.97802 17.60965,-13.0422 2.81726,-1.43584 5.44167,-1.19252 8.4207,0.78071 3.18822,2.11179 24.26738,23.42955 28.02404,28.34127 4.8316,6.31716 4.40758,8.49015 -3.47326,17.79994 -2.48316,2.93339 -5.12464,6.08931 -5.86997,7.01315 l -1.35513,1.6797 2.3107,5.6845 c 1.27088,3.12647 2.72986,7.15555 3.24218,8.95351 l 0.93148,3.26901 9.48402,1.28361 c 11.59178,1.56888 13.31596,2.00277 15.60174,3.92612 3.4552,2.90737 3.56134,3.68544 3.5188,25.79642 -0.0354,18.36898 -0.13215,20.28292 -1.14143,22.5646 -2.04732,4.62827 -5.86071,6.08966 -20.44928,7.83665 -7.394,0.88545 -8.16385,1.10439 -8.16385,2.32185 0,1.34911 -3.2499,10.62516 -4.76717,13.60671 l -1.1376,2.23551 2.51503,3.88482 c 1.38328,2.13666 4.10226,5.85405 6.04219,8.26088 5.26638,6.53388 5.5114,6.9791 5.5114,10.01526 0,2.44849 -0.33296,3.16529 -2.98686,6.4305 -3.99437,4.91441 -23.25162,23.83698 -27.53678,27.0582 -3.55816,2.67471 -5.70632,3.17582 -8.1472,1.90055 -0.70054,-0.366 -4.16021,-2.80734 -7.68816,-5.42519 -3.52795,-2.61787 -7.63326,-5.59213 -9.12291,-6.60945 l -2.70845,-1.8497 -5.4554,2.21036 c -3.00047,1.21569 -6.72574,2.56212 -8.27836,2.99205 -1.55263,0.42995 -2.90213,1.06894 -2.9989,1.41999 -0.0968,0.35103 -0.46185,3.13115 -0.81132,6.17802 -1.73097,15.09197 -1.90211,16.04847 -3.30003,18.44458 -2.11231,3.62056 -4.36273,4.29757 -14.28545,4.29757 h -8.15895 l 0.28445,2.18674 c 0.15643,1.20271 0.69811,5.59807 1.20372,9.76747 1.79927,14.83743 5.66801,31.3603 10.64992,45.4843 7.54453,21.38912 14.61273,35.05643 27.80858,53.77157 2.86973,4.07003 3.27851,5.76142 2.26711,9.38069 -1.00824,3.60789 -2.14789,5.06851 -5.05149,6.47411 l -2.56495,1.24166 -107.82302,-0.0569 c -86.25994,-0.0456 -108.31001,-0.20744 -110.2581,-0.80918 z M 352.531,464.92083 c -2.51171,-3.92879 -8.07005,-15.04258 -12.17429,-24.3422 -7.73092,-17.51716 -13.92367,-38.21798 -17.0086,-56.85538 -0.7338,-4.43325 -2.66482,-20.63574 -2.66482,-22.3596 0,-0.29838 -1.83079,-0.64596 -4.0684,-0.77239 -3.6709,-0.20743 -4.26395,-0.4194 -6.06943,-2.16934 -2.43456,-2.35967 -2.90818,-4.12316 -4.16765,-15.51792 -0.53176,-4.81084 -1.07008,-9.30554 -1.19629,-9.98822 -0.18393,-0.99498 -1.24221,-1.557 -5.33385,-2.83271 -2.80741,-0.87531 -6.61397,-2.3535 -8.45904,-3.28489 l -3.35466,-1.69342 -5.98013,4.77204 c -11.57292,9.23496 -14.33132,10.44789 -18.86634,8.29588 -1.83667,-0.87157 -26.48318,-24.26534 -31.37173,-29.77717 -2.74458,-3.0945 -3.21472,-5.62748 -1.61356,-8.69324 0.65567,-1.25541 4.12441,-5.94726 7.70827,-10.42632 l 6.51614,-8.14375 -2.39845,-5.85142 c -1.31913,-3.21828 -2.73765,-7.03227 -3.15226,-8.47551 l -0.75381,-2.62409 -4.486,-0.36646 c -16.7868,-1.37128 -23.26616,-3.86638 -24.84941,-9.5691 -0.40633,-1.4636 -0.64256,-9.34832 -0.64464,-21.51525 -0.003,-18.28463 0.055,-19.32554 1.21395,-21.71939 2.33692,-4.82744 5.24993,-6.01622 19.17603,-7.82556 4.96218,-0.6447 9.0431,-1.22331 9.06872,-1.28579 0.0256,-0.0624 0.51605,-1.68804 1.08985,-3.61239 0.5738,-1.92432 1.95952,-5.81589 3.07936,-8.64791 2.33176,-5.89685 2.66122,-4.8001 -3.35792,-11.17858 -4.93562,-5.23025 -9.28048,-11.77162 -9.28048,-13.97213 0,-3.97195 2.56383,-7.35886 15.02837,-19.85302 6.64801,-6.66381 13.60974,-13.39085 15.47056,-14.94901 5.80944,-4.86458 8.19011,-4.07645 21.60964,7.15383 l 5.16644,4.3236 3.34994,-1.60783 c 1.84248,-0.8843 5.68421,-2.22671 8.53717,-2.98312 l 5.18722,-1.37528 0.68435,-4.3179 c 0.3764,-2.37484 0.86157,-6.02354 1.07817,-8.10824 0.21659,-2.08469 0.47743,-3.92711 0.57962,-4.09425 0.10213,-0.16713 0.35067,-1.47919 0.55218,-2.91565 0.62696,-4.46951 2.06776,-8.05246 3.83665,-9.54088 1.34527,-1.13196 2.62163,-1.50288 6.22753,-1.80968 2.49451,-0.21226 4.72876,-0.43213 4.96502,-0.48862 0.70002,-0.16738 -4.0847,-13.620293 -7.12407,-20.03036 C 309.04608,72.853115 302.73132,64.398329 292.79031,55.119349 272.26165,35.957845 244.66405,24.743439 209.46388,21.25929 199.05062,20.228565 176.18962,20.866961 166.73643,22.452456 142.63887,26.494107 120.90285,34.69866 105.97372,45.388194 85.756506,59.864085 71.448224,78.131128 60.433514,103.52829 c -6.851221,15.79725 -10.760343,30.36741 -12.125009,45.19273 -0.647374,7.03291 -0.608392,8.02319 0.539435,13.70361 0.680469,3.36759 1.925659,8.61577 2.767074,11.66263 0.922604,3.34078 1.64512,7.73874 1.820178,11.07952 0.265786,5.07208 0.132423,6.03205 -1.579635,11.37108 -4.554156,14.20207 -10.432426,27.08205 -21.556932,47.23369 -6.311297,11.4327 -8.762078,16.72858 -8.762078,18.93396 0,2.41124 5.588129,4.88802 16.571807,7.34498 9.372902,2.09665 12.401553,4.1625 15.261812,10.41015 1.41355,3.08758 1.578042,4.12135 1.577081,9.91153 -5.77e-4,5.02439 -0.278253,7.30874 -1.245361,10.25476 -2.110684,6.42953 -1.961702,6.94645 3.697283,12.8289 4.545834,4.72534 4.956617,5.3469 4.956617,7.49962 0,1.291 -0.812838,4.77343 -1.806311,7.73877 -2.223493,6.63667 -2.079629,7.91946 1.744683,15.55753 4.278659,8.54553 4.955495,13.27717 3.268863,22.85223 -1.210824,6.87385 -1.121559,13.10368 0.230405,16.08037 1.691215,3.72368 3.992255,4.55008 13.40041,4.81266 15.807588,0.44117 41.354244,-3.4275 67.265284,-10.18639 l 8.00457,-2.08799 2.20023,1.14153 c 1.21013,0.62783 2.65549,1.9206 3.2119,2.87283 2.04012,3.49134 7.07872,32.43324 8.6125,49.47056 0.66626,7.40075 0.84126,35.08807 0.23183,36.67623 -0.95179,2.48033 -4.24769,2.40077 92.98303,2.24427 l 92.78273,-0.14933 z M 119.48834,200.8564 c -4.90584,-0.52768 -7.62895,-2.23557 -9.07228,-5.68997 -1.68524,-4.03331 -0.55275,-9.708 2.48573,-12.45571 3.01906,-2.73017 3.75119,-2.79213 32.99116,-2.79213 27.46628,0 27.60583,0.006 30.16202,1.31204 1.41244,0.72163 3.35869,2.30584 4.32501,3.52048 1.44649,1.81822 1.79152,2.84859 1.95262,5.83133 0.22135,4.09829 -1.13508,7.18726 -4.12751,9.39938 -1.62041,1.19788 -2.16353,1.22109 -28.57347,1.22109 -14.80692,0 -28.37139,-0.15593 -30.14328,-0.34651 z m -1.06238,-45.46464 c -5.28725,-1.05606 -8.2542,-3.96978 -8.67819,-8.52248 -0.37608,-4.03806 2.08123,-8.62199 5.62717,-10.49713 l 2.56183,-1.35473 40.29018,0.0139 c 22.1596,0.007 41.31951,0.25264 42.57758,0.54442 3.14294,0.72894 5.05206,2.25418 6.64287,5.30713 2.50267,4.8029 0.39857,11.10057 -4.51835,13.52363 l -2.66253,1.31209 -39.65297,0.0897 c -21.80914,0.0494 -40.79356,-0.1381 -42.18759,-0.41655 z m -3.00485,-44.94187 c -7.06315,-2.79711 -7.85267,-13.454289 -1.36349,-18.404672 l 2.14637,-1.637396 51.37175,-0.178925 51.37174,-0.178925 2.03059,1.349892 c 3.03943,2.020547 4.80783,5.853027 4.44796,9.639616 -0.15947,1.678 -0.85897,4.06333 -1.5544,5.3007 -2.53679,4.51359 1.44772,4.19547 -55.79884,4.45492 -32.96871,0.1494 -51.71304,0.0266 -52.65168,-0.34521 z M 347.6757,338.12672 c 1.25921,-9.27241 3.35379,-17.88538 4.81562,-19.80192 1.8449,-2.41879 2.49946,-2.74901 13.67628,-6.89968 4.9712,-1.84613 10.83572,-4.40163 13.03226,-5.67891 2.19654,-1.27728 4.82064,-2.34469 5.83132,-2.372 1.9622,-0.053 10.68631,5.22728 17.64787,10.68151 l 3.56449,2.7927 4.60759,-4.75773 c 2.53418,-2.61677 5.62864,-5.86013 6.87658,-7.20752 l 2.26898,-2.44975 -2.88349,-3.52092 c -3.61872,-4.41867 -10.12636,-15.7519 -10.12636,-17.63533 0,-0.77807 0.78821,-2.65755 1.75157,-4.17661 3.25978,-5.14016 4.53103,-8.23645 6.98127,-17.00405 3.22506,-11.54 3.38875,-11.92242 5.50114,-12.85273 1.42117,-0.62587 19.86779,-3.18066 22.96572,-3.18066 0.52415,0 0.70388,-2.72791 0.70388,-10.68296 v -10.68297 l -6.26867,-0.73831 c -3.44776,-0.40607 -7.58072,-0.86952 -9.18433,-1.02986 -8.10852,-0.81082 -9.24193,-1.94611 -12.5856,-12.60659 -2.96131,-9.44139 -4.77798,-13.52484 -8.30752,-18.67324 -1.49805,-2.18514 -2.72372,-4.19707 -2.72372,-4.47092 0,-0.27386 0.53611,-1.74864 1.19136,-3.27728 1.69999,-3.9659 5.65698,-9.28098 10.01822,-13.45658 l 3.76203,-3.60191 -7.40588,-7.38945 -7.40589,-7.38945 -3.53337,2.60112 c -5.68603,4.18581 -14.95278,9.72229 -16.93709,10.11914 -1.47329,0.29466 -2.60485,-0.0849 -5.77644,-1.93737 -4.86623,-2.84233 -8.13657,-4.22488 -17.88961,-7.56286 -4.19678,-1.43636 -8.1166,-3.04993 -8.7107,-3.58571 -1.6071,-1.44933 -2.51373,-3.54867 -2.94027,-6.80821 -0.20985,-1.60362 -0.93355,-6.52934 -1.60823,-10.94605 l -1.22669,-8.03041 -11.13491,0.15811 -11.1349,0.15812 -0.45375,2.6241 c -0.24956,1.44325 -0.99251,6.42903 -1.65103,11.0795 -0.65851,4.65048 -1.3235,8.88812 -1.47774,9.41697 -0.72614,2.48964 -3.34824,3.96331 -11.80453,6.63439 -4.9749,1.57142 -10.9922,3.98172 -14.38411,5.76173 -7.10926,3.7308 -8.10341,4.00745 -10.62104,2.95552 -2.09874,-0.8769 -9.99704,-6.41295 -15.28669,-10.71468 l -3.16559,-2.57435 -7.2001,7.37445 -7.20011,7.37447 3.95125,4.59951 c 2.51098,2.92297 5.22241,7.04231 7.43867,11.30126 l 3.48742,6.70176 -1.99096,3.13749 c -3.9707,6.25722 -6.12283,10.83203 -8.8732,18.86185 -2.10906,6.15742 -3.22095,8.56379 -4.49015,9.71759 -1.76352,1.60315 -1.92435,1.63658 -17.27837,3.59114 l -5.83131,0.74232 -0.15866,10.55103 -0.15866,10.55104 3.07432,0.31537 c 11.83068,1.21366 18.92691,2.2914 20.08543,3.05049 1.80055,1.17976 2.48153,2.63524 5.99669,12.81682 1.66092,4.81085 4.46977,11.67832 6.24188,15.26106 2.13695,4.32031 3.09866,6.9028 2.85569,7.66833 -0.64888,2.04443 -4.66178,7.83521 -9.23794,13.33072 l -4.45842,5.35411 2.7497,2.85564 c 1.51232,1.5706 4.89241,4.89258 7.51127,7.38219 l 4.76156,4.52654 5.07883,-4.1085 c 2.79334,-2.25969 7.07485,-5.457 9.51447,-7.10514 5.46065,-3.68909 6.24814,-3.64149 13.74232,0.83066 6.76284,4.03576 10.94823,5.88153 17.53709,7.73392 2.88744,0.81178 5.61376,1.77787 6.05848,2.14686 1.98048,1.64323 3.90634,8.73211 5.33544,19.63922 0.35721,2.72613 0.72755,5.21902 0.82299,5.53974 0.10917,0.36666 4.15182,0.54148 10.89,0.47092 l 10.71645,-0.11218 z m -22.7113,-46.52636 c -11.34439,-2.05855 -21.63884,-7.35049 -30.22882,-15.53935 -11.64898,-11.10498 -17.00297,-23.1291 -17.62318,-39.57862 -0.46118,-12.231 1.91234,-22.16115 7.7422,-32.39122 8.3338,-14.62391 19.02032,-23.20219 34.954,-28.05824 4.90102,-1.49367 5.96179,-1.60046 16.03613,-1.61442 12.95349,-0.0179 17.96189,0.99182 27.11564,5.46686 22.56129,11.02965 36.86999,37.91396 32.89059,61.79745 -2.16977,13.02252 -8.28819,25.26729 -16.6675,33.35657 -13.85922,13.37949 -35.43458,19.9696 -54.21906,16.56097 z m 20.50201,-19.86219 c 7.81032,-2.05707 19.14508,-9.10741 23.19095,-14.42502 2.3365,-3.07093 5.4332,-9.53929 6.34342,-13.25003 0.44683,-1.82162 0.78709,-6.35635 0.7876,-10.49639 5.8e-4,-6.47102 -0.18906,-7.86868 -1.69147,-12.45269 -3.47419,-10.59998 -10.40865,-18.19447 -21.63292,-23.69192 -6.97113,-3.41434 -11.45702,-4.38883 -17.9715,-3.904 -11.92377,0.88738 -21.55906,6.12168 -29.51336,16.03292 -5.66194,7.0549 -7.60388,13.33717 -7.60388,24.59883 0,12.83533 2.25837,18.62425 10.46867,26.83455 10.43304,10.43303 24.05588,14.3269 37.62249,10.75375 z"
     id="path44" /><path
     style="fill:#ffffff;stroke:none;stroke-width:5.47318;stroke-linecap:round;stroke-linejoin:round;stroke-dasharray:none"
     d="m 326.62097,340.74052 c -0.60505,-0.48828 -1.33153,-3.42406 -2.15225,-8.69741 -1.39848,-8.98575 -2.59328,-13.45082 -4.09369,-15.29861 -0.64437,-0.79353 -3.79436,-2.19978 -8.46208,-3.77771 -4.60435,-1.5565 -10.13157,-4.01629 -14.51589,-6.46002 -9.13277,-5.09044 -10.16529,-5.14421 -16.33384,-0.85073 -2.44621,1.70263 -6.5332,4.73272 -9.0822,6.73355 l -4.63455,3.63786 -7.14571,-7.1758 -7.14572,-7.17579 4.94498,-6.17405 c 2.71974,-3.39573 5.80204,-7.5882 6.84956,-9.31659 2.23141,-3.68181 2.34093,-3.0728 -2.56927,-14.28694 -1.77502,-4.05388 -4.22121,-10.15681 -5.43598,-13.56207 -4.25285,-11.92165 -4.05254,-11.75542 -15.9199,-13.21223 -4.21604,-0.51756 -8.79324,-1.0896 -10.17156,-1.27121 l -2.50603,-0.3302 v -10.28284 c 0,-8.36281 0.15234,-10.28283 0.81586,-10.28283 2.68105,0 19.083,-2.52674 20.6488,-3.18097 2.52203,-1.05377 3.19539,-2.22273 6.82911,-11.85524 3.52735,-9.35055 4.38813,-11.17754 8.00288,-16.98607 l 2.57633,-4.13989 -2.67643,-5.18206 c -2.57893,-4.99327 -6.52021,-10.90595 -10.19582,-15.29568 l -1.75569,-2.0968 6.79172,-7.18692 6.79173,-7.18692 4.81938,3.75362 c 7.85683,6.11936 13.86908,9.80175 16.00334,9.80175 1.07102,0 4.47388,-1.26211 7.83676,-2.90663 3.26906,-1.59865 9.71255,-4.25623 14.31885,-5.90574 9.69971,-3.47345 11.49278,-4.41626 12.33085,-6.48362 0.3365,-0.83005 1.34445,-6.41806 2.2399,-12.4178 l 1.6281,-10.90862 11.05234,-0.16043 c 8.63505,-0.12533 11.05236,0.004 11.05244,0.58966 3.7e-4,2.76997 3.1382,20.92957 3.85645,22.31851 1.24504,2.40764 2.58159,3.14005 11.84249,6.48951 4.50009,1.62758 11.10956,4.41134 14.68771,6.18612 6.13563,3.0433 6.62201,3.18699 8.55,2.5258 2.50853,-0.86029 9.37966,-4.93838 15.35378,-9.11262 l 4.46467,-3.11957 7.15994,7.18979 7.15994,7.18978 -2.21088,1.84334 c -5.11473,4.26444 -12.48834,14.96631 -12.48834,18.12527 0,0.7011 0.93684,2.66584 2.08186,4.36611 3.24613,4.82023 5.8103,10.40262 8.4587,18.41528 2.80058,8.47308 4.04562,10.78799 6.47889,12.04628 0.95731,0.49505 5.14823,1.30202 9.31315,1.79327 4.16491,0.49124 8.70029,1.04406 10.07861,1.22846 l 2.50603,0.33529 -0.009,9.54576 c -0.005,5.25017 -0.22767,9.89047 -0.49491,10.31176 -0.30308,0.47779 -3.80874,1.19246 -9.31763,1.89948 -13.08118,1.67887 -14.7997,2.12623 -15.83129,4.12109 -0.47551,0.91954 -1.90207,5.20831 -3.17014,9.5306 -2.90712,9.90913 -4.17772,13.22372 -6.54216,17.06642 -2.98059,4.84407 -2.95103,6.0634 0.29625,12.22222 1.54324,2.92694 4.35966,7.3956 6.2587,9.93037 1.89903,2.53476 3.38696,4.76945 3.3065,4.96597 -0.0805,0.19652 -2.98814,3.35373 -6.46152,7.01602 -5.83688,6.15434 -6.4012,6.59624 -7.45025,5.83407 -0.62427,-0.45355 -2.90952,-2.12203 -5.07834,-3.70773 -6.17791,-4.51689 -13.33068,-8.61519 -15.03612,-8.61519 -0.85553,0 -4.19632,1.28439 -7.42399,2.85419 -3.22767,1.56981 -9.77264,4.37245 -14.54437,6.2281 -9.70064,3.77241 -11.02054,4.82001 -12.55151,9.96205 -0.50236,1.68725 -1.45761,6.1192 -2.12279,9.84877 -0.66518,3.72956 -1.32714,7.37806 -1.47102,8.10775 -0.25848,1.31086 -0.37647,1.32673 -9.86698,1.32673 -6.80409,0 -9.87174,-0.21496 -10.51872,-0.73707 z m 24.98516,-50.15225 c 24.75124,-6.52546 40.97292,-24.85013 44.72717,-50.52567 3.97145,-27.16086 -16.47379,-57.3281 -43.61415,-64.35327 -5.66762,-1.46704 -20.76451,-2.11596 -27.35046,-1.17562 -5.59112,0.7983 -13.42476,3.66844 -19.60531,7.18313 -12.23714,6.95888 -23.27791,21.99491 -27.2294,37.08279 -1.26163,4.81724 -1.47747,6.95278 -1.49294,14.77106 -0.0351,17.73278 4.5182,29.6059 15.68882,40.91025 8.8975,9.00401 19.21089,14.72097 31.04112,17.20684 6.34482,1.33323 20.76882,0.76347 27.83515,-1.09951 z"
     id="path45" /><path
     style="fill:#ffffff;stroke:none;stroke-width:5.47318;stroke-linecap:round;stroke-linejoin:round;stroke-dasharray:none"
     d="m 326.71926,271.56623 c -1.78371,-0.46425 -5.49854,-1.97089 -8.25518,-3.34809 -3.99637,-1.99657 -6.0893,-3.58018 -10.32782,-7.81452 -8.32557,-8.31737 -10.29388,-13.28034 -10.29115,-25.94845 0.003,-13.30871 2.65155,-20.06594 11.23938,-28.67342 4.04839,-4.05765 6.07796,-5.57857 10.02846,-7.51509 9.68932,-4.74968 19.34013,-5.75425 27.54034,-2.86672 13.79543,4.85776 23.79029,14.72144 27.6247,27.26213 0.84915,2.77724 1.06659,5.31288 1.01127,11.7931 -0.0632,7.39854 -0.23174,8.67713 -1.6245,12.32143 -3.32021,8.68772 -6.91751,13.08521 -14.96018,18.28799 -5.01953,3.24712 -9.95554,5.46888 -14.5905,6.5674 -4.48686,1.06341 -13.1827,1.03054 -17.39482,-0.0658 z"
     id="path46" /><path
     style="fill:#ffffff;stroke:none;stroke-width:5.47318;stroke-linecap:round;stroke-linejoin:round;stroke-dasharray:none"
     d="m 170.46063,467.25472 -1.47414,-0.23238 -0.0268,-19.58014 c -0.0247,-18.00495 -0.15491,-20.48904 -1.61906,-30.87824 -1.82343,-12.93854 -4.04929,-25.49476 -5.73231,-32.33637 -1.23274,-5.01118 -3.10514,-7.53514 -6.15842,-8.30147 -0.88952,-0.22325 -6.69503,0.90545 -14.89334,2.89557 -24.59749,5.97097 -38.05271,8.02774 -55.301089,8.45339 -14.135196,0.34881 -16.206563,-0.0149 -18.366457,-3.22466 -1.956776,-2.90794 -2.296293,-7.48923 -1.164599,-15.71455 1.626058,-11.81844 1.209703,-14.82746 -3.461806,-25.01873 -3.108663,-6.7818 -3.228658,-8.35745 -1.170628,-15.37134 2.342398,-7.98303 2.235096,-8.46852 -3.202939,-14.49174 -2.565587,-2.84168 -4.778516,-5.76205 -4.917619,-6.48972 -0.139103,-0.72768 0.251582,-3.14397 0.868188,-5.36955 0.787298,-2.84168 1.14063,-6.15333 1.186686,-11.12237 0.07358,-7.93894 -0.703551,-10.59429 -4.29911,-14.6894 -2.629555,-2.9949 -4.84488,-3.99577 -14.400411,-6.50601 -4.533368,-1.19092 -9.57492,-2.88574 -11.203448,-3.76627 -2.688399,-1.45359 -2.952432,-1.78091 -2.868302,-3.55582 0.106302,-2.24267 2.781779,-7.79666 11.969008,-24.8463 7.659195,-14.21392 13.024452,-26.12617 16.86084,-37.43541 2.732493,-8.05508 2.765994,-8.24544 2.483247,-14.1106 -0.201377,-4.17727 -0.96833,-8.66341 -2.578942,-15.08502 -2.170082,-8.65225 -2.288572,-9.59562 -2.221886,-17.68966 0.142634,-17.3123 5.924188,-37.64381 16.767684,-58.965519 11.687337,-22.980968 27.821867,-40.710102 48.158833,-52.91846 12.95594,-7.777502 34.15107,-14.984622 53.58349,-18.220352 9.35194,-1.557211 41.70301,-1.574068 51.53507,-0.02685 26.53975,4.176406 47.59815,12.383509 64.49823,25.136932 18.86566,14.23672 29.8207,29.843066 36.88778,52.549649 l 1.04745,3.36547 -4.60247,0.40148 c -8.33398,0.72698 -9.66832,3.08974 -12.06027,21.35562 -1.31534,10.04449 -0.94016,9.32377 -5.47522,10.51773 -2.16433,0.56981 -5.89732,1.83851 -8.29551,2.81934 -2.82289,1.15452 -4.62034,1.59545 -5.0977,1.25052 -0.40553,-0.29304 -3.6176,-2.8767 -7.13792,-5.74146 -3.52032,-2.86475 -7.38505,-5.71721 -8.58829,-6.33879 -2.84857,-1.47152 -6.14523,-1.43132 -8.72091,0.10634 -2.69066,1.6063 -28.11918,27.17345 -30.38883,30.55449 -2.71126,4.0389 -2.46672,6.93918 1.02346,12.13834 1.52396,2.27018 4.66577,6.22023 6.9818,8.77789 3.16813,3.49867 4.137,4.95894 3.9123,5.89656 -0.16428,0.68543 -1.44868,4.6018 -2.85422,8.70304 l -2.55555,7.45679 -5.01206,0.69578 c -16.24105,2.25459 -19.43711,3.23806 -22.17093,6.82227 -1.62575,2.13149 -1.72361,2.61874 -2.24368,11.1718 -0.33035,5.43286 -0.33236,14.05829 -0.005,21.97514 0.48873,11.82359 0.65318,13.18631 1.77343,14.6957 2.7341,3.68383 8.42167,5.52932 21.07542,6.83848 l 6.97913,0.72206 1.64097,4.71707 c 0.90253,2.5944 2.31595,6.30915 3.14092,8.25501 l 1.49994,3.53793 -1.92098,2.35862 c -6.13931,7.53803 -11.2386,14.42262 -12.29862,16.60447 -2.17178,4.47017 -1.53858,5.43868 12.70473,19.43268 6.89368,6.77302 14.46286,13.97298 16.82038,15.99992 3.96569,3.40961 4.49743,3.68535 7.10681,3.68535 3.37327,0 6.78685,-1.89134 14.99853,-8.31015 2.99319,-2.33967 5.75288,-4.49359 6.13265,-4.78648 0.44001,-0.33936 1.72336,-0.0104 3.53793,0.90672 1.56609,0.79158 4.9702,2.1739 7.56468,3.0718 2.59449,0.89791 5.03875,1.92375 5.4317,2.27965 0.39367,0.35656 1.25265,5.01531 1.91318,10.37639 1.43777,11.66945 1.91286,13.51863 4.0136,15.62239 2.02845,2.03135 3.6588,2.65692 6.92442,2.65692 1.41915,0 2.75908,0.28934 2.97765,0.64298 0.21855,0.35363 0.91003,5.0635 1.53661,10.46638 2.62056,22.59666 9.01709,46.65448 17.73731,66.71132 3.361,7.73045 11.03208,23.23422 13.17781,26.63329 l 1.43528,2.27362 -90.96171,-0.0884 c -50.02894,-0.0486 -91.62507,-0.19292 -92.43585,-0.32073 z m 7.96082,-266.94564 c 1.85778,-1.21726 3.63401,-4.31946 4.09563,-7.15306 0.84311,-5.17541 -1.47436,-9.64477 -6.28382,-12.11864 -2.06219,-1.06074 -3.77079,-1.1245 -29.77759,-1.11124 -15.17442,0.008 -28.61055,0.25092 -29.85806,0.5404 -4.44604,1.03173 -7.07104,4.8746 -7.08412,10.37084 -0.01,4.22119 1.28078,6.81502 4.34024,8.72145 1.89526,1.18098 3.09908,1.31641 14.74138,1.65845 6.97268,0.20484 20.7345,0.28189 30.58183,0.17122 14.6158,-0.16428 18.15041,-0.36253 19.24451,-1.07942 z m 24.37383,-45.40751 c 2.51756,-1.30189 5.29246,-4.75601 5.74083,-7.14605 0.92567,-4.93424 -1.33198,-9.7615 -5.40874,-11.56484 -2.36913,-1.04798 -5.05213,-1.13962 -43.78089,-1.49537 l -41.25709,-0.37898 -2.88652,1.85227 c -4.14522,2.65999 -5.67492,5.6402 -5.36812,10.45839 0.26026,4.08723 1.39675,5.90399 4.90347,7.83851 2.39853,1.32319 19.48049,1.77343 57.33511,1.51123 24.21456,-0.16771 29.31212,-0.34611 30.72195,-1.07516 z m 18.19859,-45.07904 c 4.00477,-1.62116 5.95329,-10.018919 3.48142,-15.004229 -0.61283,-1.23597 -2.06661,-2.894372 -3.23064,-3.685341 l -2.1164,-1.438134 h -20.69886 c -11.38438,0 -34.7139,0.176578 -51.84339,0.392404 l -31.14453,0.392398 -2.0033,1.758924 c -2.79343,2.452669 -3.89508,4.882259 -3.92656,8.659718 -0.033,3.9597 1.40549,7.17108 3.95664,8.83307 1.84578,1.20246 2.24575,1.21015 53.74928,1.03321 40.78149,-0.14011 52.29354,-0.34177 53.77634,-0.94202 z"
     id="path47" /></svg>
