<?xml version="1.0" encoding="UTF-8" standalone="no"?>
<!-- Created with Inkscape (http://www.inkscape.org/) -->

<svg
   width="505.08896"
   height="505.75937"
   viewBox="0 0 505.08896 505.75937"
   version="1.1"
   id="svg1"
   xml:space="preserve"
   xmlns="http://www.w3.org/2000/svg"
   xmlns:svg="http://www.w3.org/2000/svg"><defs
     id="defs1" /><path
     style="fill:#000000;stroke-width:0.606245"
     d="m 70.567545,498.32083 c -5.870869,-0.37992 -10.940482,-1.50861 -13.823152,-3.07755 -8.159523,-4.44097 -12.255614,-14.46453 -9.94225,-24.3297 l 0.908749,-3.87528 -3.148758,-3.09653 c -3.75647,-3.69418 -5.55458,-7.30342 -6.504678,-13.05648 -0.803898,-4.86779 -0.134893,-9.62271 1.904356,-13.53508 l 1.211461,-2.32424 -2.468556,-3.63512 c -4.09258,-6.02659 -5.408602,-9.41748 -5.415315,-13.95324 -0.0066,-4.42397 0.689642,-6.9724 2.847039,-10.4217 1.428647,-2.28414 1.43039,-2.30873 0.279444,-3.94059 -5.622489,-7.97179 -7.278808,-18.22845 -3.992553,-24.72362 1.500142,-2.96498 5.605912,-7.55375 7.341776,-8.20545 0.43132,-0.16194 0.376463,-1.68804 -0.171984,-4.78461 -1.667311,-9.41373 -0.851664,-16.48261 2.524072,-21.87508 4.197884,-6.70581 14.34641,-10.73382 24.824683,-9.85307 l 4.255515,0.35769 1.43703,-3.0681 c 2.74196,-5.85422 7.612834,-9.21108 13.365482,-9.21108 4.023451,0 25.042384,2.72101 32.305964,4.18219 7.02573,1.41331 7.19729,1.50106 20.4068,10.43715 15.82258,10.70382 24.58083,18.31043 34.01431,29.54172 l 2.72096,3.23951 3.11704,-1.18599 c 3.77846,-1.43765 23.4839,-13.34447 34.88027,-21.07603 4.56022,-3.09376 13.09781,-9.26533 18.97243,-13.71461 20.22812,-15.32024 37.87153,-27.35759 50.24052,-34.27694 3.7642,-2.10575 5.1098,-3.16429 4.85812,-3.82179 -0.19143,-0.50015 -1.55794,-4.04668 -3.03668,-7.88118 -6.21518,-16.11645 -10.16461,-32.99026 -12.06111,-51.53082 -1.28884,-12.5999 -0.94778,-44.66699 0.59321,-55.77455 1.47185,-10.60916 3.89104,-23.50675 6.06374,-32.32798 l 1.95645,-7.94327 -2.11195,-2.75013 c -1.16157,-1.51257 -2.95673,-4.52339 -3.98926,-6.69071 -1.82664,-3.8342 -1.88284,-4.21069 -2.08151,-13.94363 -0.67865,-33.246556 7.40825,-58.960841 25.02541,-79.574544 12.40237,-14.511904 34.89942,-26.8057644 55.80936,-30.4978837 8.87071,-1.5663259 22.59605,-1.835917 30.06046,-0.5904576 18.25297,3.0455743 30.53057,8.3745653 43.57743,18.9144363 13.80653,11.153571 22.3066,27.740582 24.98137,48.748578 0.58384,4.585668 0.79573,15.14697 0.77147,38.453021 -0.0355,34.07722 -0.33734,38.69833 -2.86892,43.91913 -1.32014,2.72249 -1.33932,3.14952 -1.34936,30.04277 -0.0109,29.40171 -0.46712,36.07174 -3.66269,53.55769 -3.01378,16.4912 -11.08327,47.92992 -18.75614,73.07387 -2.52866,8.28638 -4.64337,15.23938 -4.69935,15.45109 -0.056,0.21172 0.89752,2.43514 2.11893,4.94096 5.49192,11.26717 5.43359,23.98686 -0.16177,35.27158 -3.48242,7.02335 -9.50567,13.72691 -25.65434,28.55192 -34.81975,31.96572 -62.92748,49.15907 -107.70969,65.88543 -17.99319,6.72055 -31.72464,10.56159 -54.25894,15.17765 -13.87689,2.84262 -15.44514,3.09397 -33.94972,5.44092 -16.88937,2.1421 -17.92811,2.38873 -28.79663,6.8371 -11.93112,4.88329 -22.01419,7.11432 -37.55682,8.31005 -7.23238,0.5564 -57.363156,0.71984 -65.201725,0.21258 z m 11.821776,-17.5014 c 0,-0.18426 -0.439763,-2.2685 -0.977243,-4.63166 l -0.977254,-4.29663 -7.661741,0.41303 c -8.147564,0.43923 -9.177348,0.85791 -9.177348,3.7313 0,1.90269 2.182557,4.39387 4.105486,4.68603 2.57935,0.39188 14.6881,0.47262 14.6881,0.098 z m 60.321399,-0.89611 c 9.37624,-0.77482 15.22561,-2.23178 21.92447,-5.46098 l 4.94961,-2.38598 0.68657,-3.19058 c 0.37762,-1.75482 1.37437,-9.32882 2.21501,-16.83111 1.18684,-10.59194 1.4442,-15.19867 1.15154,-20.61232 -0.73255,-13.55105 -3.2952,-27.71398 -7.07493,-39.101 l -2.46716,-7.43274 -6.44884,-0.36622 c -3.54686,-0.20143 -19.91776,-0.54579 -36.3798,-0.76525 l -29.930927,-0.39901 0.309496,23.2743 c 0.213722,16.07249 0.61705,25.80679 1.303446,31.45861 1.165267,9.59502 4.693729,30.11476 6.505825,37.83459 l 1.26767,5.40048 17.05341,-0.38576 c 9.37937,-0.21217 20.59995,-0.67883 24.93461,-1.03703 z m -10.6093,-16.93266 c -2.16733,-0.22579 -4.50974,-0.71837 -5.20537,-1.09461 -2.81408,-1.52208 -5.9866,-6.12553 -10.35721,-15.02865 -3.91484,-7.97474 -4.58871,-9.80278 -4.5149,-12.24787 0.11989,-3.97159 5.18274,-23.63568 6.57984,-25.55606 0.62733,-0.86229 2.34187,-2.18162 3.8101,-2.93185 2.27666,-1.16331 3.6097,-1.36187 9.05819,-1.34923 7.49353,0.0174 10.99656,0.69957 14.11358,2.74853 1.89447,1.24531 3.07836,3.11541 7.17724,11.33731 l 4.90856,9.84602 -0.28753,5.15307 c -0.15815,2.8342 -0.89585,8.83603 -1.63934,13.3374 -1.67094,10.11641 -2.88728,12.55319 -7.38478,14.79439 -3.37196,1.68033 -7.32994,1.92171 -16.25838,0.99155 z m 7.60413,-25.40112 c 0.40987,-5.23961 0.3902,-5.34655 -1.77482,-9.6457 -1.84545,-3.66458 -2.49893,-4.42859 -4.16086,-4.86467 l -1.97158,-0.51731 -0.71975,4.28869 c -1.15075,6.85676 -0.99302,8.47425 1.26328,12.95466 1.54041,3.05887 2.57126,4.33285 4.09216,5.05735 1.99628,0.95098 2.04046,0.94188 2.44504,-0.5031 0.22663,-0.80937 0.59856,-3.85584 0.82653,-6.76992 z m 68.1765,26.56833 c 4.16793,-0.3947 7.63982,-0.77216 7.71527,-0.83881 0.0755,-0.0667 0.82127,-4.33347 1.65735,-9.48182 1.67246,-10.29879 3.86341,-18.18271 5.58068,-20.0816 1.75329,-1.93873 5.0461,-3.33225 8.99338,-3.80603 8.82788,-1.05957 34.55086,-7.07328 48.32577,-11.29796 19.58893,-6.00779 43.56526,-15.86752 57.53904,-23.66163 6.85775,-3.82504 6.9242,-3.84685 11.74672,-3.85488 4.80299,-0.008 4.91571,0.0279 11.63786,3.70896 l 6.78789,3.71706 6.85263,-5.59302 c 10.61059,-8.66022 28.5034,-25.82969 31.33169,-30.06508 4.10311,-6.14449 5.34639,-12.66033 3.4443,-18.05139 -2.12703,-6.02867 -11.80627,-17.71436 -26.47756,-31.96623 -9.34981,-9.08252 -14.69849,-12.64586 -23.31352,-15.53168 -6.00303,-2.01087 -18.4561,-2.01367 -27.42642,-0.007 -7.41834,1.66018 -18.83031,5.50809 -23.84861,8.04131 -16.29746,8.22694 -38.28193,22.38834 -62.04991,39.96978 -8.66931,6.41278 -18.30066,13.43112 -21.40303,15.59631 -3.10236,2.16518 -5.55765,4.00179 -5.4562,4.08133 2.93704,2.30309 14.0766,10.12423 15.37933,10.79789 1.67511,0.86622 2.03978,0.82898 5.42536,-0.5542 1.99626,-0.81555 12.90511,-4.4869 24.24189,-8.15855 11.33679,-3.67164 26.28409,-8.60421 33.21624,-10.96126 10.86058,-3.6928 13.02784,-4.24482 15.66885,-3.99105 2.50155,0.24037 3.46466,0.69421 5.2394,2.46897 1.90553,1.90552 2.20242,2.60943 2.40037,5.69117 0.41886,6.5204 -1.86438,8.52301 -14.08771,12.35635 -4.33465,1.35938 -18.11156,5.84827 -30.61537,9.9753 -26.52598,8.75527 -38.78083,12.40673 -41.63877,12.40673 -2.97422,0 -5.62859,-1.28975 -10.94225,-5.31679 -2.59002,-1.9629 -8.19435,-6.0909 -12.45407,-9.17334 l -7.74492,-5.60443 -4.6831,2.69551 c -2.57569,1.48252 -7.20004,3.95716 -10.27631,5.49922 -5.53979,2.77692 -5.58716,2.81965 -4.95734,4.4721 1.50171,3.94009 4.88558,19.25001 6.11937,27.68647 1.63116,11.15344 1.7275,24.75505 0.27304,38.54703 -0.54502,5.16823 -0.99185,10.10488 -0.99294,10.97032 l -0.002,1.57354 5.60777,-0.7709 c 3.08426,-0.42399 9.01789,-1.09382 13.18582,-1.48851 z m 152.78844,-93.06025 c -4.45344,-1.24927 -8.09427,-3.45884 -12.30943,-7.47043 -11.79774,-11.22795 -11.85092,-26.37345 -0.13623,-38.79164 8.8841,-9.41762 20.25748,-11.61145 30.90551,-5.96144 5.1786,2.74786 10.58176,8.28817 13.10097,13.43353 1.99327,4.07114 2.07109,4.49294 2.07109,11.22618 0,6.72708 -0.0794,7.1589 -2.06582,11.22918 -2.7128,5.5588 -9.20812,12.08102 -14.74641,14.80752 -4.90243,2.41347 -11.51851,3.01415 -16.81968,1.5271 z m 10.10518,-19.00812 c 3.10211,-2.24715 4.8655,-4.50774 5.70685,-7.31594 0.58851,-1.96421 0.48563,-2.60057 -0.8448,-5.22606 -3.79576,-7.49058 -11.99013,-7.16983 -15.90163,0.62244 -1.82095,3.62757 -1.87758,5.24621 -0.29777,8.50967 1.32198,2.73083 4.73692,5.12644 7.34053,5.14945 0.86692,0.008 2.66549,-0.77515 3.99682,-1.73956 z M 242.62504,458.08024 c 13.80744,-3.46654 29.97735,-8.42982 43.76574,-13.43368 21.16325,-7.68023 48.93995,-21.40101 62.07789,-30.66445 3.57723,-2.52227 3.79181,-2.79788 2.76379,-3.54959 -0.61301,-0.44824 -1.61064,-0.815 -2.21696,-0.815 -0.60632,0 -6.4989,2.70084 -13.09463,6.00184 -25.6555,12.83997 -58.45736,23.7511 -90.45163,30.08757 -4.50136,0.8915 -8.27437,1.70601 -8.38446,1.81002 -0.57454,0.54285 -2.87297,12.41892 -2.40349,12.41892 0.30399,0 3.87868,-0.83504 7.94375,-1.85563 z m -167.093073,-3.95691 1.78163,-0.35633 -0.538353,-3.4327 c -0.296096,-1.88798 -0.670541,-4.33883 -0.832081,-5.44633 l -0.293729,-2.01362 -9.209636,0.42407 c -5.065304,0.23323 -9.431073,0.55205 -9.701723,0.70846 -0.270639,0.15641 -0.756254,0.97921 -1.079117,1.82844 -0.830347,2.18397 0.327413,5.26114 2.675964,7.11237 1.792476,1.41291 2.395515,1.51899 8.670934,1.52524 3.70947,0.003 7.546216,-0.15362 8.526111,-0.3496 z M 73.901893,418.98237 V 413.255 H 63.362328 c -10.533095,0 -10.540155,10e-4 -11.518653,1.49428 -1.746122,2.66491 -1.259601,4.54596 1.957542,7.5685 l 2.93664,2.75899 8.582013,-0.18351 8.582023,-0.18352 z m -0.129601,-30.12874 0.173511,-5.91088 -7.448456,0.0792 c -4.096647,0.0435 -9.492223,0.24819 -11.99018,0.45469 -4.20878,0.34792 -4.600825,0.49923 -5.348066,2.0642 -1.080284,2.26247 -0.429975,4.87307 1.759228,7.06228 2.260229,2.26022 2.68214,2.32972 13.586766,2.23792 l 9.093675,-0.0766 z m 73.485258,-24.19274 c -7.1634,-6.29275 -23.4491,-17.32379 -24.29914,-16.45891 -0.67432,0.68609 -4.19263,9.96478 -4.20263,11.08338 -0.004,0.50776 1.56412,2.34482 3.48591,4.08235 l 3.49415,3.15915 11.82179,-10e-4 11.82178,-0.001 z M 85.10399,363.4202 c -1.32635,-1.06779 -4.883794,-4.34151 -7.905427,-7.27494 l -5.493882,-5.3335 h -3.721516 c -2.046824,0 -5.108908,0.29754 -6.804617,0.66121 -4.363194,0.93573 -5.142931,2.31366 -4.644679,8.20791 0.212619,2.51538 0.540578,4.82256 0.728777,5.12709 0.191505,0.30986 6.927922,0.55367 15.297544,0.55367 h 14.955356 z m 18.44052,-15.83953 c 1.03517,-2.94412 1.88213,-5.56181 1.88213,-5.81709 0,-0.25526 -2.7074,-0.79226 -6.016458,-1.19331 -3.309055,-0.40105 -6.917501,-0.9876 -8.01877,-1.30343 -1.653807,-0.47431 -2.203639,-0.37294 -3.159015,0.58245 -1.138108,1.1381 -1.108209,1.20519 1.859323,4.17272 2.619407,2.61941 11.17531,9.35591 11.46677,9.02838 0.0572,-0.0643 0.95085,-2.52561 1.98602,-5.46972 z M 410.7406,302.79284 c 1.45616,-4.43231 2.65003,-8.34349 2.65304,-8.69152 0.003,-0.34802 -4.01848,-1.40923 -8.93664,-2.35824 -9.88655,-1.90769 -11.42177,-2.48691 -13.6685,-5.157 -2.96124,-3.51922 -2.86441,-8.29858 0.23975,-11.83402 3.16339,-3.60291 4.42844,-3.69645 16.61027,-1.22832 5.9117,1.19775 10.82907,2.09511 10.9275,1.99413 0.28944,-0.29696 4.59556,-20.02952 4.40428,-20.18235 -0.0959,-0.0766 -5.21915,-1.14173 -11.38497,-2.36687 -6.16581,-1.22515 -12.16004,-2.69592 -13.32051,-3.26836 -5.76551,-2.84409 -5.8383,-12.07459 -0.12172,-15.43914 2.57903,-1.5179 5.70081,-1.32909 17.6435,1.06716 7.20489,1.44563 10.69961,1.91437 10.97315,1.47179 0.61409,-0.99364 3.04534,-18.1173 3.44233,-24.24501 l 0.35217,-5.43579 -7.81976,2.80715 c -12.48528,4.48197 -12.82595,4.56514 -15.64121,3.81837 -6.07303,-1.61093 -8.74988,-7.93753 -5.67403,-13.41028 1.57532,-2.8029 2.83107,-3.54322 9.67821,-5.70572 2.76637,-0.87369 8.30349,-2.78681 12.3047,-4.25137 l 7.27494,-2.66285 -0.2018,-11.35819 c -0.11099,-6.24701 -0.27043,-11.42681 -0.35428,-11.51067 -0.14997,-0.14996 -38.78054,5.6718 -41.4089,6.24047 -0.74059,0.16023 -1.61546,0.79381 -1.94414,1.40796 -0.67051,1.25285 -4.29954,19.4362 -5.82402,29.18131 -0.5477,3.50107 -2.32184,13.73145 -3.94253,22.7342 -1.6207,9.00273 -3.91757,22.09762 -5.10413,29.09975 -2.10205,12.4045 -4.34023,24.38367 -4.95561,26.52322 -0.21689,0.7541 0.0395,1.06093 0.88657,1.06093 2.05731,0 12.06097,5.38737 17.25269,9.29128 2.73776,2.05864 8.93348,7.60558 13.76828,12.32653 4.83481,4.72095 8.89254,8.48378 9.01716,8.36187 0.12464,-0.12193 1.41802,-3.84812 2.87421,-8.28042 z M 308.72014,285.33943 c 10.3996,-4.1642 24.03423,-7.35929 35.06182,-8.21625 l 5.25411,-0.40831 0.98419,-4.32778 c 0.54129,-2.38028 1.66894,-8.28352 2.50587,-13.11833 0.83694,-4.8348 2.31195,-13.01912 3.2778,-18.18735 0.96585,-5.16824 3.27159,-18.04657 5.12386,-28.61851 1.85229,-10.57194 4.16808,-23.2525 5.14622,-28.17902 0.97814,-4.92652 1.69647,-9.03928 1.59629,-9.13946 -0.10017,-0.10018 -9.20682,1.32695 -20.23697,3.17141 -11.03014,1.84446 -21.1322,3.35356 -22.44903,3.35356 -3.01174,0 -9.79702,-2.05262 -13.64346,-4.12729 -2.72875,-1.47181 -8.11879,-7.18673 -14.28775,-15.14894 -1.10986,-1.43247 -2.11785,-2.50457 -2.23999,-2.38243 -0.40446,0.40447 -1.99726,9.72543 -2.92411,17.11183 -4.84332,38.59817 -1.57544,73.18496 9.8379,104.12258 1.19935,3.25099 2.2427,5.91089 2.31857,5.91089 0.0758,0 2.17948,-0.81747 4.67468,-1.8166 z m 32.53582,-125.22257 c 14.99339,-2.89835 35.90063,-6.33844 66.19433,-10.89168 14.38698,-2.1624 26.30891,-4.0824 26.49317,-4.26665 0.72873,-0.72875 0.82344,-58.698222 0.10639,-65.109735 -2.14872,-19.212136 -4.06122,-24.827305 -11.75934,-34.525939 -7.20585,-9.078431 -21.10075,-17.125605 -35.32243,-20.456844 -7.49,-1.754437 -24.40837,-1.597457 -33.28407,0.308831 -14.94601,3.210039 -27.67225,9.590661 -37.36402,18.733396 -13.44925,12.687335 -20.74966,29.253036 -24.4928,55.577725 -0.47702,3.354826 -0.87232,9.760326 -0.87843,14.234446 l -0.0111,8.13476 4.33595,6.41513 c 5.82745,8.6218 19.02899,26.27019 22.5955,30.20661 4.56518,5.03868 5.47491,5.10248 23.38689,1.63995 z m 49.71209,-38.07919 c -10.41338,-2.26215 -18.73087,-11.14077 -21.52052,-22.972373 -3.70886,-15.730128 4.21022,-31.133791 18.4893,-35.964127 4.72442,-1.598188 12.53701,-1.47389 16.97485,0.27005 15.91801,6.255319 22.804,27.051666 14.58186,44.0386 -3.89659,8.05036 -10.57026,13.22155 -19.08848,14.79102 -4.29534,0.79141 -5.10743,0.77737 -9.43701,-0.16317 z m 7.90815,-19.49718 c 2.05089,-1.06056 4.59589,-5.627241 5.18331,-9.30081 0.53097,-3.320436 -1.25855,-8.167958 -3.85777,-10.450109 -4.17712,-3.667568 -10.32314,-1.685463 -12.45769,4.017634 -3.46939,9.269467 3.79039,19.529845 11.13215,15.733285 z"
     id="path37" /><path
     style="fill:#ffffff;stroke:none;stroke-width:0.159275;stroke-linecap:round;stroke-linejoin:round;stroke-dasharray:none"
     d="m 321.76603,161.49921 c -0.75327,-0.37126 -2.23344,-1.63347 -3.28928,-2.80491 -4.26094,-4.72747 -18.06951,-23.21043 -24.30609,-32.53404 l -3.04572,-4.5533 0.23252,-9.83145 c 0.18624,-7.87453 0.44915,-11.11781 1.32086,-16.294148 2.2728,-13.496303 4.99806,-22.54061 9.6112,-31.896612 8.49463,-17.228153 22.69963,-29.22442 42.17814,-35.619879 7.09937,-2.330965 12.15395,-3.285508 20.42634,-3.857458 12.51164,-0.865051 22.48449,0.362945 31.26079,3.849261 8.34023,3.313094 16.04927,7.908453 21.36175,12.733745 3.10976,2.824561 7.6786,8.604064 9.79871,12.395181 3.24445,5.801614 5.61188,16.042898 6.55318,28.348502 0.48699,6.366318 0.3938,62.543418 -0.10458,63.041328 -0.49119,0.49073 -2.97406,0.91448 -28.0723,4.79104 -32.81753,5.06884 -44.28724,6.95355 -62.06338,10.19825 -15.70846,2.8673 -19.46346,3.21674 -21.86214,2.03449 z m 80.58993,-39.53847 c 7.44577,-1.908 13.63756,-6.99843 17.03854,-14.00783 4.315,-8.893178 4.85008,-19.177905 1.4732,-28.315617 -3.29348,-8.912001 -11.80686,-16.241477 -20.38801,-17.552784 -12.47044,-1.905636 -23.69489,4.247465 -29.18369,15.998122 -6.50992,13.936706 -1.60947,32.120669 10.89267,40.419119 6.12921,4.06834 13.11419,5.26637 20.16729,3.45899 z"
     id="path38" /><path
     style="fill:#ffffff;stroke:none;stroke-width:0.159275;stroke-linecap:round;stroke-linejoin:round;stroke-dasharray:none"
     d="m 392.44609,102.14425 c -7.86993,-4.273615 -6.4241,-19.787981 1.93188,-20.72982 2.52364,-0.284452 3.7171,0.0698 5.49542,1.631185 2.48896,2.185332 3.70187,5.019333 3.71889,8.689281 0.0125,2.697504 -0.17068,3.509768 -1.31732,5.841257 -1.89842,3.860057 -3.31771,5.095877 -6.05978,5.276407 -1.62973,0.1073 -2.60445,-0.0759 -3.76909,-0.70831 z"
     id="path39" /><path
     style="fill:#ffffff;stroke:none;stroke-width:0.159275;stroke-linecap:round;stroke-linejoin:round;stroke-dasharray:none"
     d="m 398.9807,302.48543 c -9.95476,-9.37886 -13.99403,-12.74609 -18.72305,-15.60796 -4.4466,-2.69096 -9.85263,-5.3851 -11.44459,-5.70349 -0.70934,-0.14187 -1.37841,-0.40146 -1.48683,-0.57688 -0.10841,-0.17542 0.27576,-2.63724 0.8537,-5.47072 0.91961,-4.50853 6.27128,-34.67467 11.45461,-64.56704 3.35734,-19.3618 4.22412,-24.07743 5.67135,-30.85424 0.90801,-4.25187 1.73745,-7.14989 2.17149,-7.58712 0.4573,-0.46066 2.44777,-0.99874 5.7057,-1.5424 8.54694,-1.42627 36.54071,-5.54595 36.67177,-5.39678 0.0684,0.0779 0.25788,5.12958 0.42106,11.22606 l 0.2967,11.08451 -3.6846,1.36039 c -2.02652,0.74822 -7.53095,2.67745 -12.23205,4.28718 -4.7011,1.60973 -9.23333,3.27484 -10.07161,3.70024 -3.02621,1.53572 -4.73651,5.04872 -4.44177,9.12349 0.23421,3.23784 1.79093,5.57702 4.71012,7.07758 3.52897,1.814 5.59723,1.53059 16.05701,-2.20026 4.93016,-1.75852 9.06291,-3.1973 9.1839,-3.1973 0.61238,0 -1.24718,16.66489 -2.94637,26.4045 l -0.49667,2.84687 -2.14052,-0.28164 c -1.1773,-0.15489 -5.51782,-0.92291 -9.64562,-1.70671 -4.12779,-0.78379 -9.09991,-1.53126 -11.04915,-1.66103 -3.16631,-0.2108 -3.74346,-0.13234 -5.41476,0.73612 -2.76857,1.43862 -4.30384,3.88499 -4.51452,7.19364 -0.32164,5.05134 1.57701,7.8986 6.22424,9.33398 1.51195,0.46699 7.045,1.73293 12.29567,2.81319 5.25066,1.08026 9.71789,2.11978 9.92717,2.31005 0.22583,0.20532 -0.32379,3.61501 -1.35206,8.38781 -2.1437,9.95016 -2.48376,11.16977 -3.1133,11.16591 -0.27588,-0.002 -4.34795,-0.73579 -9.04905,-1.63132 -4.7011,-0.89554 -9.39178,-1.66986 -10.42373,-1.72071 -4.30758,-0.2123 -4.62105,-0.11145 -6.86482,2.2085 -3.88274,4.01458 -4.17616,8.82084 -0.78068,12.78769 1.95374,2.28251 4.02155,3.13433 11.18957,4.60945 7.87999,1.62164 11.04915,2.501 11.04915,3.06586 0,0.57193 -3.97414,13.06227 -4.72216,14.84128 l -0.56903,1.35331 z"
     id="path40" /><path
     style="fill:#ffffff;stroke:none;stroke-width:0.159275;stroke-linecap:round;stroke-linejoin:round;stroke-dasharray:none"
     d="m 303.51404,285.27951 c -0.3556,-0.85008 -1.67846,-4.54763 -2.93967,-8.21678 -9.87575,-28.73086 -12.84065,-60.59944 -8.90402,-95.70578 0.93631,-8.34985 2.78504,-20.0452 3.24066,-20.50081 0.16866,-0.16867 1.61608,1.32619 3.21648,3.3219 5.10327,6.36382 9.72576,11.24602 12.23303,12.92031 3.10206,2.07147 9.73666,4.29099 13.59151,4.54686 2.98906,0.1984 3.74867,0.092 32.00062,-4.48138 6.12462,-0.99145 11.2189,-1.71649 11.32062,-1.61119 0.10172,0.10529 -0.45395,3.56873 -1.23483,7.69652 -0.78087,4.1278 -4.14425,22.70289 -7.47418,41.27797 -6.80921,37.98328 -9.2967,51.12703 -9.77047,51.62657 -0.1783,0.188 -2.3656,0.52215 -4.86067,0.74256 -12.02135,1.06195 -24.36663,4.01772 -36.9562,8.84824 l -2.81632,1.0806 z"
     id="path41" /><path
     style="fill:#ffffff;stroke:none;stroke-width:0.159275;stroke-linecap:round;stroke-linejoin:round;stroke-dasharray:none"
     d="m 189.33955,464.58562 c 0.079,-0.85995 0.47659,-4.94084 0.88344,-9.06864 1.04224,-10.57425 1.02653,-32.10321 -0.0286,-39.19322 -1.00146,-6.72934 -3.75723,-19.95207 -5.31285,-25.49211 -1.4908,-5.30924 -1.96624,-4.52651 4.83034,-7.95218 4.29745,-2.16604 9.58044,-5.04383 12.55629,-6.83974 l 1.29867,-0.78374 6.20642,4.504 c 3.41353,2.4772 8.83319,6.43699 12.0437,8.79954 9.574,7.0453 10.99773,7.49195 18.1056,5.68012 6.02955,-1.53697 12.80817,-3.65382 40.89271,-12.77009 36.56789,-11.86999 36.90585,-11.99882 39.12789,-14.91466 1.02064,-1.33932 1.10771,-1.76737 1.10771,-5.44575 0,-3.74998 -0.0723,-4.08665 -1.19116,-5.54927 -2.0632,-2.697 -3.73361,-3.45101 -7.56477,-3.41462 -3.21018,0.0305 -4.60368,0.45134 -37.06137,11.1927 -18.54919,6.13856 -34.55995,11.51858 -35.57949,11.95561 -1.01954,0.43702 -2.28669,0.79459 -2.81588,0.79459 -1.00009,0 -5.58193,-2.86255 -12.33688,-7.70759 -2.16436,-1.5524 -4.09124,-2.96402 -4.28195,-3.13694 -0.19071,-0.17291 1.96701,-1.97298 4.79492,-4.00015 2.82791,-2.02716 10.67666,-7.73293 17.44166,-12.67947 27.59025,-20.17386 45.64289,-32.05526 61.75154,-40.64195 10.98923,-5.8578 24.89627,-10.35007 35.49965,-11.46714 11.15726,-1.17543 18.46661,-0.0835 26.59254,3.97277 5.40141,2.69623 9.85817,6.25204 18.48979,14.75202 12.64227,12.44946 20.47826,21.75456 23.53283,27.94481 1.47312,2.98538 1.53768,3.29688 1.51373,7.30456 -0.0214,3.57756 -0.1898,4.58023 -1.15843,6.89637 -0.62338,1.49059 -1.8123,3.74212 -2.64205,5.00339 -1.67437,2.54515 -13.44838,14.47986 -21.19146,21.48071 -4.73396,4.28017 -16.66361,14.37692 -16.98682,14.37692 -0.0826,0 -2.51867,-1.29241 -5.41346,-2.87202 -7.65211,-4.17556 -8.11665,-4.31605 -13.71897,-4.14902 l -4.74177,0.14137 -6.14479,3.28504 c -15.83287,8.46435 -37.34311,17.40847 -55.77216,23.1905 -12.73218,3.99467 -36.66599,9.75602 -48.55696,11.68864 -5.95948,0.96859 -9.15257,2.20507 -10.82399,4.19143 -1.94407,2.3104 -3.64197,8.82696 -6.43154,24.68438 -0.43516,2.47368 -0.86604,4.57244 -0.95751,4.66392 -0.0915,0.0915 -3.91526,0.56327 -8.49731,1.04845 -4.58205,0.48518 -10.28684,1.15392 -12.67731,1.48608 -2.39047,0.33217 -4.47666,0.60394 -4.63598,0.60394 -0.15932,0 -0.225,-0.7036 -0.14597,-1.56356 z m 186.12319,-93.97648 c 6.89903,-2.58594 14.78404,-10.3395 17.83063,-17.53337 1.05582,-2.49311 1.11379,-2.98803 1.11379,-9.50965 0,-6.47463 -0.0638,-7.03013 -1.08365,-9.43546 -2.87092,-6.77111 -9.41679,-13.47917 -15.9845,-16.38055 -10.88186,-4.80721 -22.87985,-1.26214 -31.27407,9.24061 -8.85347,11.07734 -9.0006,23.97423 -0.38889,34.08727 4.18677,4.91667 9.84877,8.81415 14.82811,10.20704 3.53323,0.98835 11.476,0.62947 14.95858,-0.67589 z"
     id="path42" /><path
     style="fill:#ffffff;stroke:none;stroke-width:0.159275;stroke-linecap:round;stroke-linejoin:round;stroke-dasharray:none"
     d="m 363.88301,352.69046 c -3.52472,-1.7447 -5.98432,-6.2522 -5.13369,-9.40805 0.69369,-2.57357 3.02418,-6.04954 4.97052,-7.41361 1.51205,-1.05971 2.20563,-1.26708 4.23781,-1.26708 2.03364,0 2.72403,0.20674 4.23386,1.26789 2.34816,1.65036 4.69105,5.95254 4.28654,7.87126 -0.71182,3.37633 -3.95816,7.30415 -7.56156,9.1489 -1.76882,0.90555 -2.89119,0.86111 -5.03348,-0.19931 z"
     id="path43" /><path
     style="fill:#ffffff;stroke:none;stroke-width:0.159275;stroke-linecap:round;stroke-linejoin:round;stroke-dasharray:none"
     d="m 136.30132,444.51072 c -1.43174,-0.87296 -3.53504,-4.03888 -4.77765,-7.19141 -0.98363,-2.49548 -1.04216,-5.91235 -0.18468,-10.7803 0.34336,-1.94924 0.62454,-3.57788 0.62486,-3.6192 0.002,-0.29845 2.76586,0.80987 3.35988,1.34745 0.95935,0.8682 3.52378,5.77858 4.07086,7.7949 0.42302,1.55906 -0.0232,9.07239 -0.69793,11.75188 -0.3912,1.55349 -0.79665,1.67142 -2.39534,0.69668 z"
     id="path44" /><path
     style="fill:#ffffff;stroke:none;stroke-width:0.159275;stroke-linecap:round;stroke-linejoin:round;stroke-dasharray:none"
     d="m 99.507289,475.00935 c -2.800285,-12.93706 -6.057142,-32.97893 -6.747176,-41.52042 -0.370839,-4.59038 -1.200512,-35.95525 -1.23002,-46.49955 l -0.0097,-3.48352 17.824577,0.27213 c 26.64113,0.40674 52.63257,1.04839 53.74153,1.32672 0.83809,0.21035 1.22785,1.01419 2.67522,5.51738 6.59222,20.51032 8.88798,39.83218 6.89317,58.01523 -0.99686,9.0866 -2.26243,18.58712 -2.81429,21.12665 l -0.46841,2.15547 -4.42335,2.0708 c -10.81959,5.06521 -16.44685,5.87773 -46.7437,6.74927 -7.91161,0.22759 -15.05566,0.41516 -15.87568,0.41682 l -1.49093,0.003 z m 48.304331,-12.48758 c 4.12439,-1.84936 5.7254,-4.07145 7.07298,-9.8168 0.99855,-4.25733 2.37884,-14.13486 2.75535,-19.71773 l 0.28216,-4.18397 -4.25642,-8.51967 c -2.34104,-4.68582 -4.75956,-9.26882 -5.3745,-10.18444 -2.73019,-4.06515 -6.68488,-5.35983 -16.53525,-5.41328 -6.12541,-0.0332 -6.84174,0.0424 -8.75593,0.92404 -2.31705,1.06724 -4.15751,2.64439 -5.02654,4.30743 -1.60148,3.06471 -6.00442,21.25019 -6.01575,24.84689 -0.008,2.60511 1.07415,5.63226 4.36399,12.20528 4.74744,9.48528 8.37168,14.47663 11.17809,15.39461 2.50154,0.81825 7.16174,1.22279 12.8036,1.11144 4.58541,-0.0905 5.97719,-0.2673 7.50822,-0.9538 z"
     id="path45" /><path
     style="fill:#ffffff;stroke:none;stroke-width:0.159275;stroke-linecap:round;stroke-linejoin:round;stroke-dasharray:none"
     d="m 122.44265,363.07931 c -3.08679,-3.03748 -3.44825,-3.55039 -3.23909,-4.59619 0.43166,-2.1583 3.64457,-9.91361 4.10706,-9.91361 1.75562,0 17.73812,10.95869 23.66397,16.22562 l 1.87627,1.66764 -11.46684,0.0178 -11.46684,0.0178 z"
     id="path46" /><path
     style="fill:#ffffff;stroke:none;stroke-width:0.159275;stroke-linecap:round;stroke-linejoin:round;stroke-dasharray:none"
     d="m 97.32809,349.75273 c -2.142898,-1.65614 -5.216367,-4.27009 -6.82993,-5.80877 l -2.933751,-2.7976 0.830291,-0.91746 c 0.933547,-1.03156 0.485331,-1.04831 9.83161,0.36744 3.11498,0.47185 5.96728,0.97444 6.33844,1.11687 0.58808,0.22566 0.4375,0.93198 -1.17107,5.49308 -1.01526,2.87877 -1.91871,5.30691 -2.00767,5.39587 -0.089,0.0889 -1.915021,-1.19329 -4.05792,-2.84943 z"
     id="path47" /><path
     style="fill:#ffffff;stroke:none;stroke-width:0.159275;stroke-linecap:round;stroke-linejoin:round;stroke-dasharray:none"
     d="m 60.584848,364.93797 -3.208377,-0.14169 -0.297751,-1.96338 c -0.163763,-1.07986 -0.314824,-3.40195 -0.335691,-5.1602 -0.033,-2.78072 0.08544,-3.32827 0.909974,-4.20677 1.375313,-1.46534 3.432275,-1.98528 8.972918,-2.2681 l 4.917443,-0.25101 4.463914,4.35335 c 2.455152,2.39435 5.871117,5.60992 7.591032,7.14572 l 3.127119,2.79236 -11.466102,-0.0793 c -6.306357,-0.0436 -12.909872,-0.14306 -14.674479,-0.22099 z"
     id="path48" /><path
     style="fill:#ffffff;stroke:none;stroke-width:0.159275;stroke-linecap:round;stroke-linejoin:round;stroke-dasharray:none"
     d="m 55.862477,394.47831 c -3.043083,-0.38418 -4.49326,-1.2723 -5.845664,-3.58 -1.303956,-2.22503 -1.336421,-4.399 -0.08715,-5.8359 0.878408,-1.01033 1.283229,-1.10394 6.358475,-1.47041 2.981187,-0.21526 8.094026,-0.39685 11.361865,-0.40354 l 5.941526,-0.0122 v 5.62881 5.62881 h -2.644708 c -1.454589,0 -4.878785,0.0813 -7.609322,0.18066 -2.730538,0.0994 -6.094299,0.038 -7.475023,-0.13627 z"
     id="path49" /><path
     style="fill:#ffffff;stroke:none;stroke-width:0.159275;stroke-linecap:round;stroke-linejoin:round;stroke-dasharray:none"
     d="m 54.120086,422.25866 c -3.426364,-3.56821 -3.763661,-5.00266 -1.771761,-7.53495 l 0.87322,-1.11012 H 63.406537 73.59153 v 5.35626 5.35626 l -5.068852,0.27255 c -2.787868,0.14991 -6.604484,0.27255 -8.481368,0.27255 h -3.412517 z"
     id="path50" /><path
     style="fill:#ffffff;stroke:none;stroke-width:0.159275;stroke-linecap:round;stroke-linejoin:round;stroke-dasharray:none"
     d="m 63.167801,454.05766 c -3.682889,-0.24553 -4.970342,-0.95992 -6.531854,-3.62444 -0.853543,-1.45646 -1.029862,-2.1923 -0.848792,-3.54228 0.125701,-0.93717 0.477473,-1.95091 0.781715,-2.25275 0.532645,-0.52844 10.912471,-1.41449 16.626421,-1.41928 l 2.31393,-0.002 0.519871,3.6483 c 0.28593,2.00657 0.62692,4.33929 0.757756,5.18382 0.229644,1.48232 0.189255,1.5432 -1.166005,1.75765 -2.177732,0.34458 -8.989285,0.48182 -12.453042,0.25091 z"
     id="path51" /><path
     style="fill:#ffffff;stroke:none;stroke-width:0.159275;stroke-linecap:round;stroke-linejoin:round;stroke-dasharray:none"
     d="m 66.656295,479.94267 c -1.820061,-1.10982 -2.654596,-2.45589 -2.654596,-4.28176 0,-1.14288 0.227153,-1.68192 0.849,-2.01472 0.913532,-0.48891 5.902369,-1.07386 11.740151,-1.37655 l 3.624744,-0.18795 0.85746,3.65231 c 1.297437,5.52637 1.930932,5.00864 -6.126439,5.00684 -6.139426,-10e-4 -7.141868,-0.0979 -8.29032,-0.79817 z"
     id="path52" /><path
     style="fill:#ffffff;stroke:none;stroke-width:0.159275;stroke-linecap:round;stroke-linejoin:round;stroke-dasharray:none"
     d="m 234.95086,458.64563 c 0,-1.67895 2.07713,-10.57982 2.53497,-10.86278 0.25977,-0.16054 3.40749,-0.89655 6.99494,-1.63557 22.89451,-4.71633 41.62764,-9.99598 60.72603,-17.11474 11.39506,-4.2474 18.56549,-7.31862 31.06271,-13.3047 12.95687,-6.20624 12.69757,-6.10447 14.01934,-5.50223 0.58098,0.26471 0.98202,0.71314 0.89119,0.9965 -0.0908,0.28336 -1.65349,1.5859 -3.47258,2.89452 -10.16506,7.31257 -35.1909,19.99052 -55.00914,27.86731 -6.75035,2.68294 -26.55374,9.31857 -35.44068,11.87529 -7.44108,2.14077 -20.90873,5.61877 -21.75722,5.61877 -0.30226,0 -0.54956,-0.37457 -0.54956,-0.83237 z"
     id="path53" /></svg>
