<?xml version="1.0" encoding="UTF-8" standalone="no"?>
<!-- Created with Inkscape (http://www.inkscape.org/) -->

<svg
   width="318.90195"
   height="497.15668"
   viewBox="0 0 318.90195 497.15668"
   version="1.1"
   id="svg1"
   xml:space="preserve"
   sodipodi:docname="Template.svg"
   inkscape:version="1.4 (86a8ad7, 2024-10-11)"
   inkscape:export-filename="Suit-case.svg"
   inkscape:export-xdpi="96"
   inkscape:export-ydpi="96"
   xmlns:inkscape="http://www.inkscape.org/namespaces/inkscape"
   xmlns:sodipodi="http://sodipodi.sourceforge.net/DTD/sodipodi-0.dtd"
   xmlns="http://www.w3.org/2000/svg"
   xmlns:svg="http://www.w3.org/2000/svg"><sodipodi:namedview
     id="namedview1"
     pagecolor="#ffffff"
     bordercolor="#000000"
     borderopacity="0.25"
     inkscape:showpageshadow="2"
     inkscape:pageopacity="0.0"
     inkscape:pagecheckerboard="true"
     inkscape:deskcolor="#d1d1d1"
     inkscape:zoom="2"
     inkscape:cx="227.5"
     inkscape:cy="294.75"
     inkscape:window-width="2560"
     inkscape:window-height="1494"
     inkscape:window-x="585"
     inkscape:window-y="2149"
     inkscape:window-maximized="1"
     inkscape:current-layer="svg1"><inkscape:page
       x="0"
       y="0"
       width="318.90195"
       height="497.15668"
       id="page2"
       margin="0"
       bleed="0" /></sodipodi:namedview><defs
     id="defs1" /><path
     style="fill:#000000;stroke-width:0.538827"
     d="m 165.36793,496.71996 c -37.26831,-1.8694 -59.97872,-7.70004 -68.7341,-17.64668 -3.85611,-4.38076 -3.9499,-5.20808 -3.5549,-31.35518 0.19285,-12.76624 0.58936,-23.76394 0.89601,-24.85212 0.62021,-2.20094 3.99747,-6.30141 6.13002,-7.44272 1.29392,-0.69248 1.41202,-1.03939 1.41202,-4.1479 0,-4.39436 -1.69394,-13.0653 -3.8228,-19.5682 l -1.68461,-5.14588 -8.42695,-8.53282 C 82.9478,373.3354 74.91241,365.79481 69.72621,361.2716 58.94843,351.87161 49.60558,342.41813 45.18259,336.43736 36.45829,324.64035 28.44354,308.30129 24.54761,294.37041 22.886758,288.43162 21.911455,283.57959 15.622469,249.96873 11.237822,226.53541 5.4298952,196.35751 1.4673472,176.41889 0.53289325,171.71694 0.05435025,167.46563 0.01169725,163.48705 c -0.05843,-5.45043 0.05615,-6.17082 1.42479195,-8.95774 3.727322,-7.58987 13.1097338,-12.48728 21.9506308,-11.45774 5.75529,0.67021 12.71733,4.05043 17.79988,8.64221 4.39762,3.97299 9.06088,11.7365 12.05314,20.0664 1.88612,5.25059 6.90056,25.02696 11.35462,44.7813 5.68186,25.19975 6.07814,26.70817 8.0401,30.60411 2.81809,5.59598 9.52967,13.94828 10.65127,13.25509 0.24726,-0.15282 0.46356,-5.77978 0.48067,-12.50435 0.0171,-6.72458 0.25147,-15.01494 0.52082,-18.42301 1.35389,-17.13059 1.66244,-37.81916 1.08728,-72.9024 -0.32165,-19.61914 -0.73707,-51.79556 -0.92317,-71.50314 -0.30712,-32.52267 -0.25326,-36.2499 0.58306,-40.35723 2.05113,-10.07349 7.83799,-16.88769 17.2398,-20.30037 9.89579,-3.59198 18.79334,-1.66253 26.24276,5.69079 5.93991,5.86328 7.76885,10.81949 8.25415,22.3678 0.16191,3.85261 0.43885,36.09953 0.61542,71.65983 0.24007,48.34482 0.47966,64.76497 0.94978,65.09064 0.67565,0.46806 8.78136,0.22087 9.2854,-0.28317 0.16685,-0.16686 0.50243,-37.72947 0.74571,-83.47249 0.40682,-76.49002 0.51699,-83.4071 1.37181,-86.13265 2.93226,-9.3494 8.34845,-14.9357793 17.6002,-18.1532193 3.39147,-1.17943001 4.57415,-1.32964001 8.78653,-1.11591001 10.61913,0.5388 18.39836,5.79625001 23.52202,15.89692931 l 1.82095,3.58979 -0.014,84.7564 -0.0139,84.7564 h 4.37884 4.37884 l 0.34978,-9.83359 c 0.19237,-5.40847 0.71333,-24.86685 1.15768,-43.24083 0.44434,-18.37399 1.05164,-41.89378 1.34955,-52.26619 0.2979,-10.37241 0.54055,-23.63582 0.53922,-29.47423 -0.003,-11.84918 0.44425,-14.90682 2.8448,-19.46079 2.19862,-4.1709 7.97762,-10.3386 11.23242,-11.98794 13.00106,-6.58813 28.75188,-1.33332 35.1979,11.74278 1.06249,2.15531 2.16818,5.37358 2.45709,7.15171 0.66471,4.09097 0.67362,26.70202 0.0173,43.91437 -0.27685,7.26068 -0.64759,20.83912 -0.82388,30.17429 -0.34176,18.09806 -1.07882,44.22898 -1.89154,67.06115 -0.27383,7.6927 -0.42757,14.05702 -0.34166,14.14294 0.0859,0.0859 1.6323,0.31049 3.4364,0.49906 l 3.28019,0.34285 0.30875,-2.36219 c 0.16987,-1.29921 0.55632,-9.63635 0.85883,-18.52699 0.3025,-8.89064 0.78047,-21.62042 1.06213,-28.2884 0.28168,-6.66798 0.89078,-21.94371 1.35358,-33.94608 1.01846,-26.41333 1.32801,-29.33161 3.58609,-33.80768 5.8043,-11.50555 19.00323,-15.17592 31.63797,-8.79793 5.28813,2.66944 9.54978,8.81937 10.85632,15.66662 0.56644,2.96858 0.16579,15.40284 -1.88369,58.46035 -0.43729,9.187 -1.17388,25.43262 -1.63687,36.10139 -0.46299,10.66876 -1.02934,22.9079 -1.25856,27.19808 -0.38485,7.20314 -0.33145,8.00756 0.69746,10.50712 1.02548,2.49123 1.10911,3.71519 1.05012,15.36922 -0.0769,15.18841 -1.08967,27.40795 -4.84554,58.46269 -3.03972,25.13338 -8.28404,46.81496 -14.85339,61.40831 -5.23774,11.63527 -13.42992,23.96461 -20.86026,31.39494 l -3.31847,3.31847 -1.04475,5.68644 c -0.95184,5.18079 -2.69965,17.43048 -2.69965,18.92079 0,0.33845 1.17437,1.34539 2.6097,2.23765 1.43534,0.89226 3.22387,2.44395 3.97452,3.44821 2.78573,3.72693 2.84524,4.35127 2.84524,29.84491 v 23.70837 l -1.61648,2.92179 c -1.74918,3.16162 -5.31014,6.30616 -9.60694,8.4835 -16.61227,8.41809 -60.9942,13.4628 -100.85252,11.46348 z m 30.1743,-9.67748 c 31.11077,-1.23532 53.69435,-4.76318 65.19802,-10.18474 7.05792,-3.32634 6.46592,-0.88034 6.46592,-26.71594 0,-21.12205 -0.0519,-22.30531 -1.02646,-23.38177 -0.56455,-0.6236 -1.28199,-1.13382 -1.59431,-1.13382 -0.31232,0 -2.52443,0.84036 -4.9158,1.86748 -9.57229,4.11138 -26.48522,6.82643 -52.38384,8.40924 -18.15739,1.1097 -59.7099,-0.0151 -70.34093,-1.90409 l -1.48177,-0.26329 v 24.98355 24.98357 l 1.21236,0.29818 c 3.83054,0.9423 19.13189,2.68772 26.53721,3.02719 13.00248,0.59594 17.63154,0.59804 32.3296,0.0145 z M 125.76418,456.96574 V 432.2673 l -4.46618,-1.10256 c -5.32805,-1.31534 -11.25441,-3.60625 -13.8443,-5.35169 -2.57108,-1.73276 -3.57417,-1.62717 -3.98348,0.41934 -0.18522,0.92611 -0.33676,11.57627 -0.33676,23.66703 v 21.98317 l 1.31937,1.56804 c 2.62631,3.12115 14.26954,8.13272 19.02133,8.18725 l 2.29002,0.0263 z m 93.75583,-32.11171 c 12.19033,-1.081 21.17467,-2.2513 26.93557,-3.50864 5.26148,-1.14833 10.23825,-2.5546 11.09892,-3.13617 0.45127,-0.30494 2.40282,-16.15011 2.38164,-19.33722 -0.002,-0.34162 -1.88329,0.45263 -4.18004,1.765 -4.69045,2.68014 -10.20661,4.58294 -16.94758,5.84608 -3.87397,0.72592 -10.93983,0.8711 -47.34885,0.97284 -33.19682,0.0928 -43.76218,-0.0387 -47.10598,-0.58627 -10.03745,-1.64362 -20.25242,-5.26676 -30.84782,-10.94138 -2.74128,-1.46816 -4.98341,-2.60027 -4.98251,-2.51581 0.001,0.0845 0.47519,2.59257 1.05398,5.57358 0.57881,2.98101 1.21241,8.07292 1.40802,11.31536 0.19561,3.24244 0.66493,6.39229 1.04295,6.99966 0.78609,1.26308 8.53605,4.08388 14.72565,5.3598 5.20587,1.07312 16.6781,2.38648 25.85296,2.95967 11.53743,0.72079 55.86752,0.21298 66.91309,-0.7665 z M 181.2621,395.85604 c -0.004,-7.85256 -1.25969,-28.95925 -2.16106,-36.33072 -1.43768,-11.75737 -2.83062,-18.68763 -5.64733,-28.0969 -4.38747,-14.65646 -8.54865,-24.7812 -13.88063,-33.77354 -4.81376,-8.11836 -7.69818,-11.71442 -15.57748,-19.42076 -7.09138,-6.93571 -7.29133,-7.08139 -15.26788,-11.12416 -10.7636,-5.45534 -21.28297,-8.74197 -33.23422,-10.38355 l -2.52109,-0.3463 -0.17304,8.24437 -0.17303,8.24438 -7.60617,7.54357 c -4.1834,4.14897 -8.39885,8.72608 -9.36768,10.17137 -3.84017,5.72868 -7.54276,19.99252 -7.54276,29.05763 0,8.73978 4.10321,22.73563 9.53699,32.53018 2.69301,4.85425 3.98275,6.47087 9.32194,11.68457 15.42367,15.06116 40.01675,29.74436 55.17913,32.94448 l 1.56588,0.33049 -0.32962,-6.09318 c -0.84231,-15.57052 -3.83668,-27.47511 -9.86781,-39.23101 -3.28919,-6.4113 -7.34074,-12.22573 -14.7525,-21.17152 l -5.11454,-6.17311 -4.32585,0.26987 c -5.55295,0.34644 -8.89995,-0.95205 -12.35267,-4.79231 -5.66289,-6.2985 -5.45013,-14.78358 0.52041,-20.75412 6.14963,-6.14963 15.74324,-5.97607 21.46537,0.38832 4.05604,4.51129 5.07745,9.64426 3.06083,15.38189 l -1.05276,2.99527 5.67548,6.55544 c 3.12151,3.6055 7.21651,8.85893 9.1,11.6743 3.93539,5.88247 9.66435,17.47111 12.09299,24.46189 3.02069,8.69504 5.38846,23.6466 5.40577,34.1355 l 0.006,3.36767 h 14.0095 14.00949 z m 48.2262,1.77474 c 11.03592,-0.54435 15.69453,-1.67068 21.73306,-5.25449 4.47901,-2.65825 13.02126,-9.68877 13.02126,-10.71687 0,-1.45088 -2.59663,-3.26476 -10.38519,-7.25459 -22.63363,-11.59449 -32.93995,-19.06415 -39.23338,-28.43501 -6.23652,-9.28612 -9.87778,-23.47841 -9.59844,-37.41119 l 0.12901,-6.43489 -8.84739,-8.38655 c -17.65838,-16.73857 -30.736,-28.68132 -31.4068,-28.68132 -1.44317,0 -5.16444,-3.83045 -5.71783,-5.88559 -1.01111,-3.75498 0.87922,-8.9849 3.91706,-10.83716 3.68636,-2.24769 10.19341,-0.71679 12.02735,2.82966 0.70023,1.3541 0.82289,2.60073 0.57377,5.83127 l -0.31685,4.10896 10.34856,9.43695 c 5.69171,5.19032 12.96557,11.89904 16.16414,14.90827 3.19857,3.00923 6.1513,5.47132 6.56162,5.47132 0.41031,0 1.65379,-1.49433 2.76328,-3.32074 8.05303,-13.25673 22.81249,-20.97952 40.35867,-21.11741 7.74209,-0.0609 11.91825,0.86709 18.22093,4.04868 1.74447,0.8806 3.2838,1.48907 3.42073,1.35214 0.90367,-0.90367 3.40403,-14.21804 3.4106,-18.1614 0.003,-1.65715 -0.34305,-2.16406 -2.65251,-3.88824 -4.79105,-3.57685 -7.5162,-8.81433 -8.76469,-16.84489 -0.76591,-4.92654 -0.1703,-8.73295 2.21791,-14.17426 1.34071,-3.0547 1.65889,-4.51161 1.65889,-7.59583 v -3.81618 l -2.55942,-0.007 c -1.40769,-0.004 -3.06724,-0.1437 -3.6879,-0.31033 -1.07493,-0.28859 -1.14389,-0.05 -1.45325,5.02801 -0.621,10.19326 -3.77505,16.33671 -10.75668,20.95185 -6.04099,3.99335 -10.40257,5.26653 -16.88088,4.92768 -4.66955,-0.24425 -5.54312,-0.47192 -9.6841,-2.52386 -8.4894,-4.20666 -11.90115,-9.03504 -13.84798,-19.59793 l -1.13958,-6.18304 1.08798,-4.24077 c 0.5984,-2.33242 1.26222,-4.6304 1.47516,-5.10663 0.31547,-0.70552 -0.081,-0.93002 -2.14083,-1.21236 -1.39039,-0.1906 -4.21972,-0.34652 -6.28739,-0.34652 h -3.75939 l 0.35363,1.48177 c 1.48739,6.23249 0.72416,14.41228 -1.8481,19.80665 -1.74052,3.65009 -6.51639,9.20752 -9.93237,11.55778 -3.07341,2.11456 -8.27068,3.7943 -11.73479,3.79265 -3.67577,-0.002 -12.38261,-2.33878 -15.50167,-4.16083 -3.38532,-1.9776 -7.54605,-6.41733 -9.28198,-9.9044 -2.52056,-5.06319 -3.28576,-9.15531 -2.98683,-15.973 l 0.26579,-6.0618 h -6.36499 -6.36499 l 1.43793,3.09826 c 2.68922,5.79437 2.00234,16.53413 -1.51494,23.68685 -2.69168,5.47381 -9.30028,10.40356 -16.43921,12.26302 -8.06866,2.10162 -18.46135,-0.11395 -24.20983,-5.16117 l -1.90087,-1.66899 v 7.50022 7.50023 l 6.22866,0.93108 c 19.90637,2.97568 40.58515,12.36873 52.0459,23.64112 10.95288,10.77287 19.59147,24.91564 26.51979,43.41718 8.31609,22.20747 11.40179,40.1418 12.50982,72.70799 l 0.37124,10.91124 14.33972,-0.0184 c 7.88684,-0.0101 18.70421,-0.23372 24.03859,-0.49684 z m 47.13349,-28.44666 c 5.78026,-7.85979 12.16977,-20.73936 15.5708,-31.38665 1.69934,-5.31999 6.43877,-27.53386 7.87482,-36.90963 2.15439,-14.06563 5.63496,-48.97332 4.95121,-49.65707 -0.14127,-0.14126 -1.44305,0.34425 -2.89286,1.07893 -3.32129,1.68302 -7.56211,2.87403 -11.86033,3.3309 -1.83879,0.19545 -3.56758,0.63592 -3.84177,0.97883 -0.27418,0.3429 -1.14047,3.71095 -1.92508,7.48455 -2.68948,12.93516 -4.28809,16.3868 -8.18512,17.67293 -2.54959,0.84144 -4.70206,0.35956 -9.44374,-2.11419 -6.29972,-3.28657 -9.19275,-4.05839 -15.02011,-4.00712 -13.69044,0.12045 -25.16729,5.97322 -32.06813,16.35355 -5.44499,8.19043 -6.57741,15.84616 -4.26796,28.85357 1.41895,7.9919 4.55811,15.43539 9.23496,21.8977 2.30973,3.1915 8.96808,8.74326 13.89988,11.58977 10.36102,5.98012 33.89412,18.43007 34.89177,18.45915 0.22378,0.007 1.61053,-1.62483 3.08166,-3.62522 z m -30.33345,-45.68858 c -7.13016,-2.61576 -11.04755,-10.90103 -8.80367,-18.61969 1.78952,-6.15576 7.68058,-10.42553 14.32773,-10.38457 4.27376,0.0263 6.71729,0.9984 9.91193,3.94312 7.81992,7.20815 5.89703,20.07166 -3.67821,24.60606 -3.13664,1.48536 -8.39466,1.68887 -11.75778,0.45508 z M 60.53267,334.52253 c -1.45962,-5.81484 -2.03899,-20.11045 -1.06373,-26.24675 0.92739,-5.83506 3.94892,-14.89872 6.23809,-18.71236 2.5618,-4.26783 7.0662,-10.12288 11.33381,-14.73229 l 3.46375,-3.74117 -5.28093,-5.30706 c -2.99853,-3.01337 -6.42811,-7.13049 -7.93525,-9.52604 -3.0253,-4.80865 -3.10222,-4.82831 -8.64133,-2.20789 -5.26926,2.49276 -12.49746,11.78725 -18.4843,23.76829 -1.21188,2.42526 -3.29201,6.25084 -4.6225,8.50127 l -2.41908,4.0917 2.21301,6.31646 c 4.24196,12.10753 8.10945,19.82363 15.09933,30.12494 3.8504,5.67452 10.76639,13.62454 11.06725,12.72196 0.0941,-0.28217 -0.3416,-2.55514 -0.96812,-5.05106 z M 34.03059,268.76208 c 3.37259,-5.8931 9.91909,-14.45157 14.11711,-18.45581 2.8615,-2.7294 7.35874,-5.3385 12.05149,-6.9917 0.61329,-0.21606 0.88088,-0.69917 0.71499,-1.29088 -0.14581,-0.52008 -0.78567,-3.37032 -1.4219,-6.33387 -2.89838,-13.50042 -8.80389,-36.47326 -9.43862,-36.71683 -1.00297,-0.38488 -6.95397,2.75855 -9.39165,4.96086 -1.15005,1.03899 -4.11316,4.84942 -6.58469,8.46762 -2.47153,3.6182 -6.24952,8.37031 -8.39552,10.56023 l -3.901819,3.98169 2.435779,14.0721 c 2.56522,14.8199 5.49642,30.63107 5.99019,32.31173 0.38093,1.29658 0.662,0.96109 3.82464,-4.56514 z m 262.33332,-24.68927 c 3.31928,-1.46487 6.35878,-4.37614 8.18965,-7.84416 1.20966,-2.29134 1.42425,-3.37889 1.43522,-7.27416 0.0106,-3.77433 -0.21676,-5.04666 -1.29262,-7.23262 -2.84992,-5.7905 -7.91045,-9.07469 -14.03743,-9.11002 -6.18588,-0.0357 -12.13314,3.83255 -14.58282,9.48497 -1.64995,3.80709 -2.01837,9.61732 -0.83562,13.17824 2.80775,8.45334 12.63232,12.54516 21.12362,8.79775 z m -9.24374,-8.56164 c -5.44412,-2.53804 -5.89852,-9.4983 -0.84068,-12.87716 4.75317,-3.17532 11.37389,0.38575 11.36837,6.11466 -0.005,5.53666 -5.53629,9.08949 -10.52769,6.7625 z m -167.52914,-7.58916 c 3.16474,-1.39991 6.53885,-4.60732 8.23064,-7.82397 1.24566,-2.36842 1.43495,-3.36803 1.43495,-7.57776 0,-4.20973 -0.18929,-5.20935 -1.43495,-7.57777 -1.62476,-3.0892 -4.68658,-6.07208 -8.09501,-7.8863 -3.30175,-1.75743 -10.98098,-1.78216 -14.23757,-0.0458 -5.04123,2.68781 -8.40586,8.45116 -9.11091,15.6063 -0.41025,4.16338 0.43495,6.93774 3.22991,10.60212 1.51999,1.99281 6.47407,4.88083 9.78532,5.70442 2.77713,0.69075 7.39842,0.23704 10.19762,-1.00118 z m -10.89393,-8.91379 c -5.11754,-2.22602 -5.02961,-9.57129 0.15013,-12.54088 4.05145,-2.32272 7.98796,-1.15497 9.98029,2.96063 1.52527,3.15079 1.03019,5.62318 -1.66587,8.31924 -1.75738,1.75738 -2.38041,2.04424 -4.40063,2.02614 -1.29437,-0.0116 -3.12314,-0.35591 -4.06392,-0.76513 z m 133.63653,7.63046 c 6.08364,-2.78518 9.04481,-7.3347 9.40555,-14.45064 0.21248,-4.1912 0.0908,-4.96497 -1.2506,-7.95405 -2.27949,-5.07938 -7.44647,-8.99211 -13.26692,-10.04645 -4.89092,-0.88597 -12.00189,2.45389 -15.12478,7.10377 -0.82023,1.2213 -1.88535,3.75854 -2.36694,5.63833 -1.61483,6.30333 -0.19689,12.23502 3.89292,16.28526 5.16011,5.11017 12.20959,6.40013 18.71077,3.42378 z m -11.33739,-8.43891 c -5.3629,-3.26995 -4.09206,-11.73258 2.03768,-13.5691 2.65527,-0.79553 5.33801,0.12092 7.4734,2.55299 2.0366,2.31956 2.26455,5.9277 0.55195,8.73671 -1.9392,3.18065 -6.78482,4.27825 -10.06303,2.2794 z m -49.32488,5.38035 c 7.04466,-3.05293 11.006,-12.66112 8.50209,-20.6217 -1.43697,-4.56849 -4.26996,-7.8935 -8.61,-10.10532 -3.2721,-1.66757 -4.17424,-1.88527 -7.7927,-1.88054 -3.51831,0.005 -4.49715,0.2289 -6.97967,1.59932 -5.52295,3.04883 -8.69731,8.53136 -8.69731,15.02137 0,8.16167 3.97919,14.17051 11.15516,16.84502 2.91426,1.08616 8.8882,0.67347 12.42243,-0.85815 z m -10.40305,-7.75087 c -5.43603,-2.45276 -6.48049,-8.84514 -2.07694,-12.71151 4.65988,-4.09143 12.07708,-0.41563 12.06994,5.9816 -0.005,4.93149 -5.61144,8.70689 -9.993,6.72991 z M 22.189004,213.46322 c 0.872614,-1.11133 3.002566,-4.32408 4.733216,-7.13945 5.36998,-8.73569 9.91366,-12.73517 17.14476,-15.09128 l 3.70682,-1.2078 -0.32461,-3.10568 c -0.37135,-3.55294 -3.89016,-14.66746 -5.89416,-18.61736 -4.93419,-9.72531 -12.79463,-15.32172 -21.520136,-15.32172 -7.445954,0 -11.2973148,4.73969 -10.0839798,12.40988 0.5269788,3.33135 8.8794978,46.36146 9.4883498,48.88165 0.405446,1.67824 0.914955,1.52848 2.74974,-0.80824 z m 283.275366,-20.63191 0.38228,-13.22305 -2.16009,-1.49693 c -3.1578,-2.18836 -6.73803,-3.10429 -12.28871,-3.1438 -4.95772,-0.0353 -9.97693,1.09144 -10.84939,2.43551 -0.31726,0.48877 -1.76126,27.72393 -1.49666,28.22842 0.0335,0.0638 1.62512,-0.53372 3.53706,-1.32773 2.96267,-1.23039 4.27228,-1.44652 8.86451,-1.463 5.10479,-0.0183 5.58669,0.0802 9.16005,1.87295 2.07448,1.04075 3.92858,1.76817 4.12023,1.61648 0.19164,-0.1517 0.52047,-6.22617 0.73072,-13.49885 z m -199.47628,-6.71866 c 4.07174,-0.93173 9.88295,-1.16394 12.8845,-0.51486 1.54981,0.33514 4.33334,1.65211 8.17273,3.86677 0.6223,0.35895 1.2725,0.48019 1.44487,0.26941 0.17238,-0.21078 0.20901,-8.45578 0.0814,-18.32222 l -0.232,-17.93899 -2.76948,-1.59909 c -8.21353,-4.74245 -17.82748,-4.99777 -26.8619,-0.71338 l -3.07817,1.45977 -0.15479,18.36533 c -0.0851,10.10094 -0.0712,18.76951 0.031,19.26349 0.15441,0.74626 0.72828,0.54755 3.39346,-1.17504 2.04874,-1.32416 4.60967,-2.39401 7.08832,-2.96119 z m 147.14087,-0.66841 c 0.17487,-2.88946 0.47051,-11.08533 0.65697,-18.21305 l 0.33902,-12.95948 -3.15827,-1.67574 c -8.54925,-4.53615 -19.24065,-4.69823 -27.68393,-0.41969 l -2.68508,1.36063 -0.0274,3.62801 c -0.0151,1.9954 -0.23128,9.93227 -0.48049,17.63749 -0.24921,7.70522 -0.36908,14.09957 -0.26637,14.20966 0.1027,0.1101 1.28123,-0.44124 2.61895,-1.2252 3.29122,-1.92878 9.97168,-3.53666 14.73604,-3.54672 4.35365,-0.009 8.6845,1.59432 12.7853,4.7338 1.18542,0.90753 2.31101,1.66665 2.50131,1.68695 0.19029,0.0203 0.48907,-2.3272 0.66394,-5.21666 z m -91.85017,-0.94225 c 4.45105,-2.8359 7.68789,-3.75561 13.2492,-3.76462 6.43474,-0.0105 7.96263,0.37622 12.69614,3.21293 3.92027,2.34935 4.01511,2.37562 4.35789,1.20689 0.19273,-0.6571 0.37459,-10.67797 0.40412,-22.2686 l 0.0537,-21.07387 -3.09825,-1.62569 c -5.50738,-2.8898 -8.49277,-3.6274 -14.68302,-3.62778 -5.9492,-3.7e-4 -10.51356,1.10183 -14.41362,3.48057 l -1.75119,1.06809 -0.0242,19.00156 c -0.0133,10.45086 -0.156,20.63824 -0.31708,22.63864 -0.1611,2.00039 -0.0896,3.63087 0.1589,3.62328 0.24849,-0.008 1.76382,-0.84972 3.3674,-1.8714 z m 145.79462,-33.245 c 0.77419,-18.61224 1.05537,-17.23279 -3.97252,-19.48918 -5.84155,-2.62153 -13.22179,-2.79861 -18.5427,-0.44492 -2.26439,1.00164 -2.47725,1.26596 -2.75716,3.42356 -0.435,3.35309 -1.38504,30.81468 -1.0767,31.12301 0.14192,0.14193 1.80516,-0.1542 3.69609,-0.65806 6.05711,-1.61399 14.54894,-0.86521 19.58433,1.72688 1.09831,0.56538 2.08526,0.94213 2.19321,0.83721 0.10795,-0.10492 0.5019,-7.53825 0.87545,-16.5185 z M 254.59972,136.1416 c 0.0308,-3.63034 0.22199,-14.35973 0.4249,-23.84308 0.20292,-9.48335 0.28298,-17.5196 0.17791,-17.85834 -0.19572,-0.63104 -4.62464,-2.73821 -8.47177,-4.03066 -1.27735,-0.42913 -4.45997,-0.71735 -7.81299,-0.70754 -6.10135,0.0178 -10.39641,1.11662 -14.50623,3.71104 l -2.0284,1.28047 -0.34851,10.419 c -0.19168,5.73045 -0.50936,16.40623 -0.70595,23.72396 l -0.35745,13.30498 4.25854,-1.38278 c 7.9676,-2.58715 18.73073,-2.20228 25.74938,0.92074 3.64955,1.62391 3.55865,1.76295 3.62057,-5.53779 z m -154.84527,4.09282 c 3.23296,-1.10423 5.53805,-1.48152 10.11434,-1.65548 5.78308,-0.21985 9.30754,0.36986 16.83833,2.81732 l 1.21236,0.394 v -20.18533 c 0,-22.791689 0.4163,-20.69285 -4.60304,-23.20695 -8.75678,-4.38612 -17.81327,-4.03479 -26.5142,1.028561 l -2.29001,1.332639 v 9.85893 c 0,10.37011 0.58758,31.04646 0.88228,31.04646 0.095,0 2.05695,-0.64357 4.35994,-1.43015 z m 92.2854,-35.18734 V 79.74494 l -2.33307,-1.36727 c -4.80832,-2.81787 -8.27759,-3.70741 -14.63997,-3.7538 -6.39889,-0.0467 -11.16761,1.11932 -14.9238,3.64894 l -1.77982,1.19862 -0.29985,25.03477 c -0.16492,13.76913 -0.24824,25.11311 -0.18515,25.20885 0.0631,0.0957 2.13781,-0.47789 4.61047,-1.27475 8.13514,-2.62168 18.54277,-2.29378 26.22244,0.82617 1.38628,0.56319 2.70237,1.0372 2.92463,1.05336 0.22227,0.0162 0.40412,-11.35658 0.40412,-25.27275 z m 116.38343,15.46855 c -0.002,-1.25951 0.26861,-8.38723 0.60073,-15.83938 0.55573,-12.46938 0.52832,-13.77681 -0.34389,-16.40277 -2.06545,-6.21849 -9.02116,-10.55681 -14.65247,-9.13882 -3.15251,0.79381 -6.03426,2.281 -7.53271,3.88744 -2.3798,2.55128 -2.7683,4.57046 -3.36069,17.46651 -0.31199,6.79181 -0.71807,14.34848 -0.90241,16.7926 l -0.33516,4.44386 2.22003,-0.78327 c 6.52563,-2.30238 14.75045,-2.11318 20.19628,0.46459 3.87032,1.83199 4.11393,1.7792 4.11029,-0.89076 z M 104.84799,86.34687 c 7.24334,-1.37494 13.62614,-0.55073 21.65368,2.79611 0.976,0.40691 0.99955,-0.25673 0.76737,-21.61958 -0.2249,-20.69213 -0.3064,-22.18927 -1.33325,-24.49147 -2.32334,-5.20892 -7.10776,-8.70459 -12.92667,-9.44472 -2.92332,-0.37183 -7.36804,0.40797 -10.04256,1.76189 -2.40109,1.21552 -5.73449,4.47934 -7.01158,6.86521 -1.1442,2.13763 -1.17723,2.75688 -1.33001,24.93773 l -0.15667,22.74567 2.94886,-1.35003 c 1.62188,-0.74252 4.96575,-1.73289 7.43083,-2.20081 z M 255.98468,60.30175 c -0.16667,-13.20402 -0.42302,-18.62939 -0.95476,-20.20599 -1.03242,-3.06114 -5.52017,-7.40738 -8.80384,-8.52624 -7.35281,-2.50535 -16.8758,0.66061 -20.47851,6.80816 -2.07882,3.54724 -2.37588,6.56463 -2.57262,26.13124 -0.1792,17.82272 -0.17288,17.94474 0.91114,17.58483 0.60038,-0.19934 3.27385,-0.96005 5.94104,-1.69048 6.66112,-1.82419 14.05368,-1.56509 20.74483,0.72708 l 4.58002,1.56896 0.43027,-2.17343 c 0.23665,-1.19539 0.32774,-10.29625 0.20243,-20.22413 z m -85.79724,4.22243 c 5.55059,-0.80253 11.87792,-0.0759 17.38314,1.99625 1.93596,0.7287 3.61229,1.3249 3.72519,1.3249 0.11289,0 0.20526,-9.91351 0.20526,-22.03002 0,-19.09757 -0.11965,-22.40047 -0.89883,-24.81307 -1.07693,-3.33453 -4.20791,-7.05053 -7.64098,-9.06869 -2.20093,-1.29383 -3.06392,-1.47295 -7.08617,-1.47076 -3.90769,0.002 -5.07532,0.23088 -7.95405,1.55821 -4.11518,1.89746 -6.76586,4.71384 -8.00945,8.51018 -0.8126,2.48067 -0.96541,5.80845 -1.14956,25.03574 l -0.21239,22.17478 3.51395,-1.27549 c 1.93267,-0.70152 5.58842,-1.57543 8.12389,-1.94203 z"
     id="path46" /><path
     style="fill:#ffffff;stroke:none;stroke-width:0;stroke-linecap:round;stroke-linejoin:round"
     d="m 19.672672,214.52878 c -0.958909,-3.8128 -9.454487,-47.91758 -9.7659688,-50.70001 -0.320919,-2.86673 0.7109998,-6.13528 2.5168218,-7.9719 0.525582,-0.53455 1.694528,-1.32205 2.597659,-1.75 1.594477,-0.75555 1.74347,-0.7781 5.142056,-0.7781 2.972213,0 3.78274,0.0884 5.375,0.58636 6.83304,2.13686 12.4999,7.43638 16.10778,15.0636 2.28378,4.82804 5.43797,15.20114 5.78426,19.02259 l 0.17128,1.89012 -2.46916,0.81298 c -5.16893,1.70189 -8.44832,3.59801 -11.56578,6.68725 -2.36899,2.34755 -4.03179,4.57386 -7.7024,10.31273 -3.016808,4.71667 -4.98498,7.32593 -5.617918,7.44782 -0.258259,0.0497 -0.459271,-0.16873 -0.57363,-0.62344 z"
     id="path47" /><path
     style="fill:#ffffff;stroke:none;stroke-width:0;stroke-linecap:round;stroke-linejoin:round"
     d="m 30.43879,273.4951 c -0.41228,-0.66707 -8.40055,-44.60654 -8.40055,-46.20718 0,-0.22927 1.21613,-1.66388 2.70251,-3.188 2.99828,-3.07445 6.32141,-7.16575 9.66254,-11.89615 2.60799,-3.69241 5.26266,-7.0644 6.42586,-8.16219 1.16131,-1.096 4.15564,-2.98014 6.34018,-3.98946 1.82507,-0.84323 2.72266,-1.03725 2.96731,-0.6414 0.66048,1.06868 6.28449,23.15876 9.03709,35.49601 1.44363,6.47041 1.6395,7.62615 1.34013,7.90772 -0.19284,0.18137 -1.36312,0.75565 -2.60062,1.27618 -6.7793,2.85156 -10.41171,5.88287 -16.61214,13.86314 -3.17631,4.08807 -5.19975,7.05566 -7.87955,11.55622 -2.23025,3.74556 -2.72352,4.40459 -2.98276,3.98511 z"
     id="path48" /><path
     style="fill:#ffffff;stroke:none;stroke-width:0;stroke-linecap:round;stroke-linejoin:round"
     d="M 59.13637,337.40204 C 53.09759,331.1087 46.37191,321.16969 41.6619,311.57877 c -2.51385,-5.1189 -4.17133,-9.17299 -6.74202,-16.49052 l -1.63503,-4.65418 1.72795,-2.92765 c 0.95037,-1.61021 2.68344,-4.72765 3.85126,-6.92765 1.16782,-2.2 2.78163,-5.2306 3.58625,-6.73466 2.03873,-3.811 6.39255,-10.3111 8.80149,-13.14034 2.88172,-3.38451 5.19613,-5.3078 8.16559,-6.78565 3.03987,-1.51289 4.21376,-1.73433 5.17539,-0.97627 0.37375,0.29463 1.30964,1.49248 2.07975,2.66189 2.24795,3.41346 5.20218,6.93217 9.54047,11.36338 l 4.05157,4.13834 -2.39501,2.6067 c -6.99946,7.6181 -11.7703,14.16188 -13.88653,19.04707 -1.96564,4.53753 -3.98136,11.38741 -4.7288,16.06954 -0.45628,2.85823 -0.37239,13.9565 0.14362,19 0.22508,2.2 0.7517,5.54194 1.17026,7.42652 0.41856,1.88459 0.7237,3.61385 0.67808,3.84279 -0.059,0.29589 -0.66911,-0.1946 -2.10982,-1.69604 z"
     id="path49" /><path
     style="fill:#ffffff;stroke:none;stroke-width:0;stroke-linecap:round;stroke-linejoin:round"
     d="m 153.21581,392.39127 c -0.20607,-7.92745 -1.21194,-15.7224 -3.0889,-23.9375 -1.53272,-6.70839 -3.4203,-11.78945 -7.47633,-20.125 -4.84474,-9.95643 -8.43817,-15.24068 -17.65671,-25.96474 l -3.83795,-4.46475 0.87527,-2.53525 c 0.83353,-2.41434 0.87505,-2.69623 0.87056,-5.91026 -0.004,-2.90843 -0.0825,-3.57012 -0.56733,-4.78645 -1.3657,-3.42621 -4.23893,-6.71467 -7.24865,-8.29624 -2.36777,-1.24423 -4.23009,-1.69102 -7.04753,-1.69077 -4.68215,4e-4 -8.73221,1.94327 -11.6948,5.61016 -4.81513,5.95981 -4.74735,13.23247 0.18008,19.3222 3.35977,4.15229 7.00901,5.53298 13.76292,5.20721 l 3.3768,-0.16287 3.75,4.57355 c 7.31086,8.91642 10.53638,13.27872 13.51711,18.28101 6.4247,10.78197 10.17827,22.37766 11.71555,36.1922 0.41301,3.71152 1.00444,12.97124 0.83904,13.13663 -0.18295,0.18296 -4.98259,-1.07302 -7.61953,-1.99389 -14.82341,-5.17662 -33.83177,-17.15986 -47.57717,-29.99358 -6.37595,-5.95305 -8.66684,-8.96477 -11.99873,-15.77416 -3.25181,-6.64572 -5.47584,-13.1794 -7.06319,-20.75 -0.72891,-3.47642 -0.78661,-4.11477 -0.79093,-8.75 -0.004,-4.0663 0.10017,-5.60691 0.55675,-8.25 1.44787,-8.38148 4.36854,-17.19892 6.86573,-20.72752 1.11639,-1.57748 4.71171,-5.44521 10.71092,-11.52248 l 6.16973,-6.25 0.1819,-8.16658 0.1819,-8.16659 0.90546,0.13251 c 14.17976,2.07503 23.24446,4.89589 35.36513,11.00534 6.75684,3.4058 7.90171,4.27653 15.19228,11.55447 6.44158,6.43041 8.88823,9.24355 11.64632,13.39085 5.61104,8.43725 10.10741,17.9015 14.17745,29.84159 6.12717,17.97501 8.36705,29.79728 9.76369,51.53341 0.63396,9.86644 0.88228,15.43213 0.88397,19.8125 l 0.002,4.1875 h -13.83891 -13.83892 z"
     id="path50" /><path
     style="fill:#ffffff;stroke:none;stroke-width:0;stroke-linecap:round;stroke-linejoin:round"
     d="m 191.19305,395.89127 c -0.077,-1.13437 -0.25913,-5.49375 -0.40463,-9.6875 -1.14881,-33.11153 -4.5826,-51.91238 -13.67516,-74.875 -5.34292,-13.49316 -11.69207,-24.64121 -19.15046,-33.625 -2.58312,-3.11142 -7.71592,-8.27418 -10.3059,-10.36604 -9.61672,-7.76721 -23.78775,-14.44173 -38.24366,-18.01267 -3.72134,-0.91926 -8.33506,-1.77593 -14.9375,-2.77358 l -0.9375,-0.14166 v -7.24614 -7.24615 l 0.8125,0.66337 c 4.44691,3.63066 8.03649,5.29348 13.42564,6.2192 7.46463,1.28225 14.49069,-0.20036 20.65422,-4.35836 7.36727,-4.97005 10.7049,-12.09997 10.70255,-22.86297 -0.001,-4.69828 -0.34147,-6.54815 -1.81681,-9.87192 l -1.00007,-2.25308 h 6.14724 6.14724 l -0.17307,4.9375 c -0.26961,7.69193 0.38984,11.6682 2.72612,16.4375 1.35757,2.77137 3.01255,4.9802 5.50628,7.349 3.44188,3.26945 5.82683,4.43855 12.61816,6.18543 5.56445,1.4313 8.96184,1.41431 13.42368,-0.0671 4.41793,-1.46687 7.54655,-3.75767 11.36101,-8.31859 3.57181,-4.27079 5.2199,-7.72114 6.10149,-12.7737 0.4801,-2.75155 0.56321,-8.61771 0.15408,-10.875 -0.14953,-0.825 -0.34955,-1.9377 -0.44448,-2.47266 l -0.17261,-0.97266 4.97591,0.14061 c 4.39701,0.12425 6.85092,0.42369 6.85092,0.83598 0,0.073 -0.43476,1.72711 -0.96614,3.67575 -1.81362,6.65083 -1.73421,5.59674 -0.79895,10.60451 1.00983,5.40707 1.75021,8.04956 3.00651,10.73042 2.28365,4.87319 5.24181,7.68537 11.27112,10.71492 3.30813,1.66223 4.63762,2.06861 7.82661,2.39234 5.46853,0.55514 9.9038,-0.12111 14.12793,-2.15408 9.86634,-4.74843 14.30288,-11.03112 15.28248,-21.64187 0.37048,-4.01298 0.68785,-6.7525 0.79242,-6.84012 0.0457,-0.0383 1.64585,-0.0135 3.55597,0.055 l 3.47296,0.12452 -0.14837,3.52868 c -0.15691,3.73151 -0.32517,4.48891 -1.77581,7.99328 -2.2429,5.41826 -2.80607,9.34874 -2.03838,14.22618 1.12898,7.17283 3.49706,12.07086 7.53008,15.57487 2.87356,2.49663 3.57161,3.23843 3.76526,4.00124 0.24955,0.983 -0.48604,6.73062 -1.53364,11.98312 -0.98425,4.93491 -1.52644,6.875 -1.92135,6.875 -0.15507,0 -1.64133,-0.63291 -3.30282,-1.40648 -6.80137,-3.16662 -8.6198,-3.59398 -16.04336,-3.77047 -6.49417,-0.15439 -10.31214,0.22864 -15.49911,1.55495 -7.35886,1.88166 -13.65822,5.16271 -19.17944,9.98969 -2.57133,2.24801 -4.61598,4.66614 -7.53155,8.90727 -1.24708,1.81406 -2.45395,3.41534 -2.68194,3.5584 -0.57962,0.36369 -2.06651,-0.89117 -12.83548,-10.83246 -4.95,-4.56956 -11.56142,-10.62975 -14.69205,-13.46709 l -5.69205,-5.15881 0.1705,-2.25 c 0.30441,-4.01703 0.23936,-5.91558 -0.24611,-7.18291 -0.57114,-1.49095 -2.23581,-2.99036 -4.12852,-3.71864 -1.67541,-0.64467 -4.95823,-0.90053 -6.43542,-0.50157 -2.28206,0.61634 -4.27305,2.64867 -5.39323,5.50518 -0.75861,1.93452 -0.80751,5.69544 -0.0928,7.13677 0.75831,1.5292 3.50206,4.28551 4.97092,4.99365 2.15101,1.03702 10.23826,8.3821 34.01318,30.89183 l 6.72445,6.3666 -0.14852,4.00455 c -0.4399,11.86156 1.61383,23.46621 5.82579,32.91879 4.56226,10.23871 11.94239,17.54484 26.54098,26.27485 4.02293,2.40572 6.94409,4.01361 15.33286,8.43962 3.7125,1.95875 7.36875,3.95205 8.125,4.42956 1.74609,1.1025 3.25,2.54018 3.25,3.10687 0,0.58479 -2.22339,2.73809 -5.80391,5.62094 -7.27542,5.85779 -12.1953,8.31726 -18.88715,9.44175 -5.60606,0.94204 -16.87064,1.3876 -35.224,1.39323 l -12.79005,0.004 z"
     id="path51" /><path
     style="fill:#ffffff;stroke:none;stroke-width:0;stroke-linecap:round;stroke-linejoin:round"
     d="m 110.41324,228.95629 c -1.69105,-0.27789 -3.09543,-0.8129 -5.52124,-2.10336 -3.16424,-1.68328 -4.71431,-2.98064 -6.12294,-5.12473 -1.60754,-2.44684 -2.25165,-4.51514 -2.26541,-7.27443 -0.0449,-8.99848 5.28246,-17.00602 12.15959,-18.27713 2.14847,-0.3971 7.91329,-0.1472 9.5,0.41182 3.04801,1.07385 7.31931,4.69303 9.11092,7.71989 1.53928,2.60057 1.74683,3.55689 1.75592,8.09081 0.009,4.67036 -0.28665,5.95027 -2.00564,8.67211 -1.18043,1.86907 -4.34104,4.93442 -6.25393,6.06542 -2.42115,1.43151 -7.39811,2.30588 -10.35727,1.8196 z m 4.23571,-9.27898 c 1.17774,-0.32698 3.78503,-2.83216 4.52579,-4.34854 0.76662,-1.56933 0.67558,-4.11903 -0.21159,-5.92565 -0.86062,-1.75256 -2.82648,-3.58625 -4.25796,-3.97171 -3.3946,-0.91408 -7.54463,1.08121 -9.18622,4.41663 -0.48969,0.99496 -0.6049,1.61386 -0.6014,3.23073 0.005,2.25976 0.46386,3.41241 1.91126,4.79983 1.7164,1.64527 5.35683,2.48261 7.82012,1.79871 z"
     id="path52" /><path
     style="fill:#ffffff;stroke:none;stroke-width:0;stroke-linecap:round;stroke-linejoin:round"
     d="m 95.70491,190.2871 c -0.21505,-0.21504 -0.21547,-19.41582 -6.6e-4,-29.69786 l 0.16601,-7.94608 2.14649,-0.99977 c 9.92383,-4.62225 18.74941,-4.48523 27.58055,0.42817 l 2.61041,1.45236 0.16497,11.40243 c 0.22789,15.75181 0.20149,24.08348 -0.0777,24.52509 -0.19901,0.31477 -0.4994,0.2247 -1.93367,-0.5798 -6.01573,-3.3743 -7.50527,-3.77593 -13.32306,-3.5924 -6.68023,0.21074 -10.07477,1.11971 -14.64264,3.92095 -2.05587,1.26075 -2.38422,1.39339 -2.69069,1.08691 z"
     id="path53" /><path
     style="fill:#ffffff;stroke:none;stroke-width:0;stroke-linecap:round;stroke-linejoin:round"
     d="M 95.42471,140.89127 C 95.22576,139.9819 94.81007,125.24885 94.6282,112.6615 l -0.16858,-11.66727 0.85181,-0.53374 c 0.4685,-0.29356 2.20181,-1.199279 3.85181,-2.012708 8.2139,-4.049364 16.06587,-3.92681 24.625,0.384349 1.16875,0.58869 2.36734,1.335009 2.66354,1.658489 1.16972,1.27748 1.18014,1.45563 1.27376,21.77565 0.0486,10.55313 0.0154,19.1875 -0.0739,19.1875 -0.0892,0 -1.64203,-0.43688 -3.45063,-0.97085 -5.9795,-1.76537 -6.93808,-1.90569 -12.91281,-1.89031 -6.15314,0.0158 -7.89647,0.27258 -12.6152,1.85787 -1.64251,0.55181 -3.01763,1.00329 -3.05583,1.00329 -0.0382,0 -0.12482,-0.25312 -0.1925,-0.5625 z"
     id="path54" /><path
     style="fill:#ffffff;stroke:none;stroke-width:0;stroke-linecap:round;stroke-linejoin:round"
     d="m 94.69082,71.741986 c 0.0697,-9.852267 0.22619,-20.096969 0.34764,-22.766002 0.21329,-4.68757 0.24668,-4.905338 0.98068,-6.396311 1.41291,-2.870017 5.25843,-6.439206 8.17735,-7.589738 7.62259,-3.004543 15.99533,-0.636081 20.22087,5.720031 1.79859,2.705469 2.09859,3.841735 2.36111,8.942771 0.31119,6.046941 0.61551,35.253432 0.39065,37.492467 -0.0999,0.994712 -0.29526,1.808567 -0.43416,1.808567 -0.13889,0 -1.3112,-0.396515 -2.60512,-0.881147 -1.29392,-0.48463 -3.55949,-1.187643 -5.03459,-1.562253 -2.51224,-0.63799 -3.01434,-0.680217 -7.93201,-0.6671 -5.20579,0.01389 -5.27842,0.02154 -8.625,0.908595 -1.85625,0.492025 -4.40983,1.346558 -5.67462,1.898963 l -2.29961,1.00437 z"
     id="path55" /><path
     style="fill:#ffffff;stroke:none;stroke-width:0;stroke-linecap:round;stroke-linejoin:round"
     d="m 188.10494,66.563454 c -5.32078,-1.887255 -7.40357,-2.235715 -13.3167,-2.227963 -4.73822,0.0062 -5.35141,0.06008 -8.125,0.713783 -1.65,0.388885 -4.06875,1.088952 -5.375,1.555705 -1.30625,0.466752 -2.40312,0.848677 -2.4375,0.848717 -0.14943,1.8e-4 -0.0246,-21.349665 0.18492,-31.624925 0.25572,-12.541209 0.44002,-14.293975 1.79229,-17.045896 1.58948,-3.234639 5.09618,-6.039031 9.32753,-7.459451 1.83563,-0.616198 2.17003,-0.647549 6.11448,-0.57325 l 4.17266,0.0786 1.73531,0.869652 c 2.24946,1.127319 6.12982,4.930349 7.29611,7.150712 1.71566,3.266239 1.64879,2.316905 1.75087,24.854636 0.0508,11.20625 0.0577,21.178125 0.0153,22.159723 l -0.077,1.784719 z"
     id="path56" /><path
     style="fill:#ffffff;stroke:none;stroke-width:0;stroke-linecap:round;stroke-linejoin:round"
     d="m 188.51127,129.04965 c -5.27299,-1.94774 -11.36619,-2.78317 -17.09803,-2.34429 -3.71933,0.28479 -6.0131,0.71875 -9.82838,1.85947 -1.63524,0.48892 -3.11921,0.88894 -3.29769,0.88894 -0.26469,0 -0.294,-3.63014 -0.15899,-19.6875 0.091,-10.828119 0.23705,-22.075656 0.32445,-24.994515 l 0.15892,-5.307017 1.52584,-0.992753 c 3.22736,-2.099799 6.49524,-3.120644 11.44355,-3.574822 3.78963,-0.347829 8.77414,-0.0017 11.7073,0.812911 1.85905,0.516318 5.61115,2.265593 7.72236,3.600254 l 1.09736,0.693727 -0.19094,24.037355 c -0.10502,13.22055 -0.26133,24.49699 -0.34736,25.05876 l -0.15642,1.02141 z"
     id="path57" /><path
     style="fill:#ffffff;stroke:none;stroke-width:0;stroke-linecap:round;stroke-linejoin:round"
     d="m 157.87275,182.89127 c 0.089,-1.82187 0.23744,-11.9572 0.32995,-22.52295 l 0.1682,-19.21046 0.90542,-0.57156 c 4.55166,-2.87334 9.74751,-4.06978 16.59696,-3.82176 4.97986,0.18033 7.163,0.75024 12.03778,3.14249 l 3.91602,1.92174 -0.0211,18.125 c -0.0196,16.87248 -0.13341,23.81291 -0.4129,25.1875 -0.16618,0.81735 -0.64084,0.70825 -3.01215,-0.69238 -5.85351,-3.45741 -6.47168,-3.62176 -13.59269,-3.61394 l -5.625,0.006 -2.35273,0.81504 c -1.35866,0.47066 -3.69138,1.60357 -5.521,2.68131 -1.74255,1.02646 -3.26058,1.86629 -3.37339,1.86629 -0.11281,0 -0.13233,-1.49062 -0.0434,-3.3125 z"
     id="path58" /><path
     style="fill:#ffffff;stroke:none;stroke-width:0;stroke-linecap:round;stroke-linejoin:round"
     d="m 250.16324,188.94576 c -2.42148,-1.80068 -5.14713,-3.25205 -7.5,-3.99367 -5.19159,-1.63636 -14.02469,-0.44119 -20.38909,2.75877 -1.12071,0.56348 -2.10217,0.95999 -2.18102,0.88113 -0.22868,-0.22868 -0.0521,-9.18498 0.59252,-30.04684 l 0.15553,-5.03362 2.16103,-1.0129 c 4.7472,-2.22506 7.72379,-3.00162 12.28603,-3.20527 5.53828,-0.24722 10.11005,0.76117 15.3297,3.38127 l 3.2953,1.65414 -0.0675,4.25 c -0.1068,6.72016 -0.54824,20.58199 -0.80979,25.42888 -0.24914,4.61694 -0.45376,6.45332 -0.71711,6.43574 -0.0856,-0.006 -1.0556,-0.67964 -2.1556,-1.49763 z"
     id="path59" /><path
     style="fill:#ffffff;stroke:none;stroke-width:0;stroke-linecap:round;stroke-linejoin:round"
     d="m 251.08539,141.58119 c -2.50448,-1.02557 -3.955,-1.45375 -6.92215,-2.04338 -3.10768,-0.61755 -11.27047,-0.62331 -14.5249,-0.0102 -1.83496,0.34567 -6.47301,1.66347 -8.23685,2.34032 -0.3015,0.11569 -0.3361,-0.39518 -0.22525,-3.32621 0.072,-1.9046 0.34887,-11.28165 0.6152,-20.8379 0.26633,-9.55625 0.55431,-18.638869 0.63994,-20.183601 l 0.1557,-2.808601 1.78808,-1.075526 c 5.16445,-3.106405 9.9016,-4.076548 17.81219,-3.647846 3.8234,0.207203 5.60885,0.716952 10.0787,2.877492 l 2.85282,1.378929 -0.18394,13.417073 c -0.47732,34.81865 -0.47739,34.82023 -1.4898,34.78122 -0.15504,-0.006 -1.21692,-0.39375 -2.35974,-0.86172 z"
     id="path60" /><path
     style="fill:#ffffff;stroke:none;stroke-width:0;stroke-linecap:round;stroke-linejoin:round"
     d="m 251.66324,81.325314 c -4.87099,-1.621748 -6.42993,-1.898985 -11.5,-2.04513 -5.23553,-0.150913 -6.85792,0.06564 -12.6478,1.688182 -3.14571,0.881548 -3.81785,1.000208 -4.01897,0.709498 -0.3251,-0.469928 -0.076,-31.155077 0.2849,-35.099093 0.51529,-5.630663 1.36363,-7.747274 4.27063,-10.655158 3.29523,-3.296239 7.62317,-4.98314 12.71373,-4.955431 4.74534,0.02583 7.30987,1.096935 10.74547,4.487955 1.94519,1.91995 3.31309,4.087109 3.62788,5.747634 0.38537,2.032783 0.64794,12.027511 0.65411,24.898283 0.006,12.951177 -0.14476,16.407587 -0.71316,16.328515 -0.0917,-0.01276 -1.62929,-0.510125 -3.41679,-1.105255 z"
     id="path61" /><path
     style="fill:#ffffff;stroke:none;stroke-width:0;stroke-linecap:round;stroke-linejoin:round"
     d="m 305.31784,121.69278 c -6.36901,-2.94635 -14.22241,-3.26432 -21.28603,-0.86182 -1.00539,0.34195 -1.86542,0.5843 -1.91118,0.53854 -0.0458,-0.0458 0.0265,-1.47989 0.16052,-3.18696 0.13404,-1.70707 0.47346,-7.71627 0.75425,-13.35377 0.74451,-14.947131 1.02904,-17.482859 2.22308,-19.812137 1.04915,-2.046638 3.45548,-3.851942 6.81119,-5.109977 3.97247,-1.489252 7.56291,-0.986109 11.20246,1.569845 3.07208,2.157438 4.98858,5.111316 5.71781,8.812789 0.36291,1.84207 0.35009,3.084318 -0.17168,16.64008 -0.31013,8.05717 -0.62008,14.84628 -0.68879,15.0869 -0.17733,0.62104 -0.96605,0.53029 -2.81163,-0.32349 z"
     id="path62" /><path
     style="fill:#ffffff;stroke:none;stroke-width:0;stroke-linecap:round;stroke-linejoin:round"
     d="m 304.03824,166.79176 c -5.51634,-2.57283 -12.95559,-3.22134 -19.62044,-1.71039 -1.50999,0.34232 -2.96027,0.6224 -3.22283,0.6224 -0.46244,0 -0.47194,-0.21337 -0.30316,-6.8125 0.2095,-8.19175 0.83707,-22.58861 1.05806,-24.27267 0.2246,-1.71162 0.98324,-2.49167 3.28613,-3.37892 2.6798,-1.03245 4.70838,-1.37342 8.05224,-1.35343 4.05595,0.0242 6.87745,0.68754 10.91796,2.56665 2.81694,1.31008 2.92519,1.54 3.03893,6.45483 0.0903,3.90372 -0.87092,27.07436 -1.16829,28.16081 l -0.1636,0.59773 z"
     id="path63" /><path
     style="fill:#ffffff;stroke:none;stroke-width:0;stroke-linecap:round;stroke-linejoin:round"
     d="m 301.24485,204.82031 c -3.99566,-1.86604 -5.10589,-2.11753 -9.32163,-2.11159 -4.68797,0.007 -6.39999,0.29046 -9.82182,1.62843 -1.58678,0.62044 -2.91427,1.09737 -2.94998,1.05984 -0.16153,-0.16971 0.98192,-22.57963 1.34286,-26.31822 l 0.16896,-1.75 1.125,-0.55502 c 2.42976,-1.19872 4.02342,-1.44078 9.5,-1.44295 4.14851,-0.002 5.43462,0.0829 6.75,0.4439 2.08827,0.57307 4.31742,1.61668 6.23563,2.91931 l 1.52181,1.03344 -0.13077,2.67566 c -0.0719,1.47161 -0.25126,6.50066 -0.39851,11.17566 -0.30332,9.62934 -0.49386,12.4283 -0.85316,12.53219 -0.1375,0.0398 -1.56328,-0.54104 -3.16839,-1.29065 z"
     id="path64" /><path
     style="fill:#ffffff;stroke:none;stroke-width:0;stroke-linecap:round;stroke-linejoin:round"
     d="m 287.67094,245.18388 c -4.96456,-0.75125 -9.48616,-3.93456 -11.51255,-8.10511 -1.14042,-2.34713 -1.44241,-4.16564 -1.3075,-7.87356 0.0994,-2.73127 0.24793,-3.76235 0.77743,-5.39604 1.13643,-3.50631 3.24548,-6.2904 6.32602,-8.35079 2.20051,-1.4718 5.12641,-2.46903 7.82125,-2.66573 5.56495,-0.40617 11.2776,2.785 14.19078,7.9272 1.58719,2.80163 1.89015,4.32799 1.77915,8.96365 -0.0856,3.57624 -0.14723,4.01133 -0.7521,5.31236 -3.25004,6.99058 -10.45383,11.2274 -17.32248,10.18802 z m 4.46044,-9.10731 c 5.43165,-1.41477 7.47331,-7.96421 3.76754,-12.08592 -3.32442,-3.69756 -8.95261,-3.42391 -11.82435,0.57491 -3.19425,4.44792 -0.67791,10.54417 4.79961,11.62786 1.52276,0.30126 1.67256,0.29589 3.2572,-0.11685 z"
     id="path65" /><path
     style="fill:#ffffff;stroke:none;stroke-width:0;stroke-linecap:round;stroke-linejoin:round"
     d="m 233.33153,227.93232 c -2.06534,-0.26436 -3.0114,-0.58036 -5.36596,-1.79232 -2.33798,-1.20343 -5.19682,-3.78918 -6.39663,-5.78559 -0.46436,-0.77268 -1.13216,-2.16329 -1.48401,-3.09025 -0.57142,-1.50546 -0.64143,-2.05904 -0.6557,-5.18539 -0.0188,-4.10547 0.30203,-5.56745 1.98063,-9.02678 0.92054,-1.89711 1.41773,-2.56905 2.98141,-4.02936 3.06319,-2.86067 7.56904,-4.81886 11.08837,-4.81886 3.93208,0 8.94495,2.49267 12.17872,6.0559 1.73983,1.91709 3.54032,5.46543 3.89697,7.68003 0.35215,2.18669 -0.0946,6.94222 -0.88816,9.45431 -1.22984,3.89312 -3.76231,6.7349 -7.75393,8.70099 -3.37662,1.66316 -6.4052,2.2439 -9.58171,1.83732 z m 4.34755,-9.14762 c 1.7938,-0.61121 3.62381,-2.53044 4.21468,-4.42017 0.57715,-1.84582 0.44679,-4.34045 -0.3036,-5.80996 -0.80769,-1.58171 -2.99481,-3.43576 -4.67723,-3.96494 -3.76061,-1.18286 -7.88782,1.12745 -9.02943,5.05443 -1.14581,3.94147 0.67823,7.91733 4.23373,9.22819 1.19783,0.44163 4.14495,0.39523 5.56185,-0.0875 z"
     id="path66" /><path
     style="fill:#ffffff;stroke:none;stroke-width:0;stroke-linecap:round;stroke-linejoin:round"
     d="m 170.53824,224.61985 c -1.75841,-0.41842 -2.86009,-0.90129 -4.60937,-2.02029 -5.02419,-3.21394 -7.64063,-8.31571 -7.64063,-14.8984 0,-6.86752 3.40746,-12.4147 9.48703,-15.44445 l 1.86204,-0.92794 h 4.13796 c 3.82602,0 4.24163,0.0454 5.51297,0.60267 5.7315,2.51214 9.19264,6.12729 10.79211,11.27233 0.82765,2.66232 0.8235,7.06159 -0.009,9.74119 -1.50803,4.85282 -4.24933,8.36788 -7.99065,10.24607 -2.74218,1.37661 -8.67519,2.11106 -11.54227,1.42882 z m 5.82296,-8.66808 c 1.6636,-0.62243 3.21718,-1.92698 4.1163,-3.45649 0.61787,-1.05105 0.68567,-1.40159 0.68505,-3.54151 -8e-4,-2.75462 -0.37265,-3.68598 -2.16618,-5.42554 -1.55802,-1.51114 -3.18367,-2.17168 -5.33313,-2.16698 -2.16909,0.005 -3.66491,0.66246 -5.13587,2.25827 -1.55779,1.69 -2.10909,3.09357 -2.09522,5.33425 0.014,2.25509 0.73,3.87618 2.36428,5.35266 2.29318,2.07175 4.90612,2.64007 7.56477,1.64534 z"
     id="path67" /><path
     style="fill:#ffffff;stroke:none;stroke-width:0;stroke-linecap:round;stroke-linejoin:round"
     d="m 268.16324,370.07334 c -9.32945,-4.75504 -24.20071,-12.7851 -29.45235,-15.90342 -6.12909,-3.63934 -12.08398,-8.88534 -14.96815,-13.1863 -4.77044,-7.11381 -7.68728,-15.43149 -8.82638,-25.1693 -1.3933,-11.911 1.31433,-20.53983 8.95213,-28.52911 3.03551,-3.1752 5.88304,-5.27005 9.79475,-7.20574 5.14221,-2.5446 9.21291,-3.63993 15.43454,-4.15308 6.49796,-0.53594 10.40265,0.25384 16.61004,3.35964 5.76004,2.88197 8.18928,3.44658 10.88174,2.52917 3.55867,-1.21256 5.06241,-4.41122 7.82091,-16.63619 1.84885,-8.19364 1.87572,-8.27912 2.73207,-8.69147 0.38975,-0.18767 2.10922,-0.55241 3.82105,-0.81054 4.73599,-0.71415 7.5005,-1.51755 11.41836,-3.31834 1.08279,-0.49769 2.13424,-0.90489 2.33656,-0.90489 0.4268,0 0.36055,1.59961 -0.45559,11 -1.37509,15.83837 -3.41013,33.05989 -4.98075,42.14943 -1.47972,8.56352 -5.0229,25.13452 -6.62097,30.9654 -1.92843,7.03631 -6.36206,17.35632 -10.75361,25.03085 -2.04962,3.58186 -5.87602,9.26365 -7.28301,10.81452 l -1.21134,1.3352 z M 254.81672,324.0968 c 4.60965,-0.82225 8.37694,-3.74036 10.3513,-8.01803 1.12144,-2.42973 1.4757,-4.11221 1.44761,-6.875 -0.0437,-4.29465 -1.65993,-7.88284 -4.92761,-10.9396 -3.22998,-3.02148 -5.72478,-3.92427 -10.37885,-3.75575 -4.48501,0.16239 -7.60113,1.49265 -10.53009,4.49524 -5.46987,5.60739 -5.28266,15.63051 0.39805,21.31122 3.44464,3.44464 8.17589,4.7565 13.63959,3.78192 z"
     id="path68" /><path
     style="fill:#ffffff;stroke:none;stroke-width:0;stroke-linecap:round;stroke-linejoin:round"
     d="m 160.78824,425.6902 c -10.43191,-0.19818 -18.26602,-0.81936 -28.5,-2.25981 -4.34149,-0.61107 -7.85226,-1.37897 -11.80561,-2.5822 -3.25647,-0.99113 -7.24045,-2.63237 -7.95117,-3.27556 -0.64556,-0.58422 -0.92253,-2.11203 -1.51047,-8.33191 -0.42495,-4.49567 -1.35109,-10.89512 -2.1336,-14.74273 l -0.16896,-0.83078 5.8474,2.96576 c 8.84098,4.48408 15.51964,7.0728 23.07118,8.94261 6.56202,1.6248 6.59931,1.62803 21.60963,1.87505 16.28689,0.26803 73.1072,-0.10167 76.9166,-0.50046 6.16161,-0.64502 12.39719,-2.56034 18.81722,-5.77989 2.51198,-1.25972 4.6416,-2.21603 4.7325,-2.12513 0.30209,0.3021 -1.36278,15.19337 -2.06344,18.45611 -0.12497,0.58195 -0.40301,0.75765 -2.06535,1.30515 -2.76728,0.9114 -8.37363,2.27496 -12.40437,3.01695 -8.00211,1.47304 -22.39513,2.96362 -32.69061,3.38553 -5.35431,0.21943 -39.17051,0.80352 -40.20095,0.69438 -0.20625,-0.0218 -4.48125,-0.11773 -9.5,-0.21307 z"
     id="path69" /><path
     style="fill:#ffffff;stroke:none;stroke-width:0;stroke-linecap:round;stroke-linejoin:round"
     d="m 169.91324,487.18339 c -11.32407,-0.39787 -25.02985,-1.73289 -32.3125,-3.14743 l -2.0625,-0.40061 v -24.86861 -24.86862 l 0.8125,0.15011 c 7.36007,1.35972 27.39592,2.2574 50.5625,2.2654 14.05935,0.005 18.33667,-0.0749 23.125,-0.43113 18.58808,-1.38293 30.53046,-2.91503 39.5,-5.06751 4.40403,-1.05687 6.50351,-1.73375 11.3563,-3.66133 l 3.73131,-1.48211 0.64369,0.46974 c 0.35404,0.25836 0.8687,0.91249 1.1437,1.45361 0.48508,0.95451 0.50238,1.56209 0.57977,20.35887 0.0838,20.35189 -0.0264,23.20144 -0.97284,25.16034 -0.6251,1.29377 -1.57818,1.92787 -5.49916,3.65868 -13.71691,6.05495 -36.24858,9.25403 -73.48277,10.43319 -8.312,0.26323 -9.01624,0.2623 -17.125,-0.0226 z"
     id="path70" /><path
     style="fill:#ffffff;stroke:none;stroke-width:0;stroke-linecap:round;stroke-linejoin:round"
     d="m 120.16324,480.96127 c -6.29666,-1.67301 -12.74219,-4.83654 -15.45965,-7.58774 l -1.45965,-1.47778 0.0874,-22.78349 c 0.0814,-21.1981 0.11815,-22.84003 0.52857,-23.59599 0.24262,-0.44687 0.63983,-0.8125 0.88269,-0.8125 0.24287,0 1.4246,0.56366 2.62608,1.25257 3.87427,2.22147 9.36319,4.2599 15.23201,5.65673 l 2.9375,0.69916 v 24.57077 24.57077 l -1.8125,-0.0138 c -0.99687,-0.008 -2.6,-0.22301 -3.5625,-0.47874 z"
     id="path71" /></svg>
