<?xml version="1.0" encoding="UTF-8" standalone="no"?>
<!-- Created with Inkscape (http://www.inkscape.org/) -->

<svg
   width="489.24988"
   height="491.35016"
   viewBox="0 0 489.24988 491.35016"
   version="1.1"
   id="svg1"
   xml:space="preserve"
   xmlns="http://www.w3.org/2000/svg"
   xmlns:svg="http://www.w3.org/2000/svg"><defs
     id="defs1" /><path
     style="fill:#000000;stroke:#000000;stroke-width:0.719772"
     d="m 366.59785,490.76602 c -10.84465,-2.62991 -17.4812,-5.62518 -22.73413,-10.26055 l -3.30029,-2.91227 -6.87344,3.44725 c -11.21498,5.62465 -20.99645,7.40705 -32.35417,5.89561 -11.83834,-1.57538 -24.32767,-5.62452 -32.92727,-10.67528 -6.07184,-3.56616 -15.62216,-12.64133 -19.91515,-18.92433 -1.88718,-2.76198 -3.61697,-5.01407 -3.844,-5.00464 -0.22704,0.009 -1.8356,2.1049 -3.57458,4.65662 -6.05292,8.88178 -15.1169,16.83786 -24.67197,21.65633 -6.71939,3.38845 -19.876,7.22728 -28.42729,8.29449 -16.15265,2.01584 -35.8845,-3.74774 -47.43542,-13.85569 -10.25794,-8.9765 -15.75123,-17.98075 -18.98722,-31.12274 l -1.22023,-4.95556 -7.50604,-2.65893 c -4.12831,-1.46241 -9.15469,-3.50325 -11.16977,-4.53522 C 96.488043,427.16398 87.314023,420.92462 82.358376,416.68596 72.3374,408.11482 62.263054,391.46198 58.409433,377.09852 56.656985,370.56666 56.47364,368.66893 56.427507,356.585 c -0.04492,-11.76876 0.144959,-14.05651 1.634479,-19.69164 0.926918,-3.50672 1.412649,-6.61012 1.079397,-6.89644 -0.333251,-0.2863 -2.063463,-0.93265 -3.844903,-1.43631 -5.655598,-1.59897 -14.720435,-6.3251 -20.955877,-10.92576 C 10.746984,300.22696 -1.7040059,272.94002 0.64013154,243.77867 1.3796868,234.57838 2.0597989,231.08943 4.6774279,223.06731 8.8451989,210.29452 16.817012,197.55342 28.100565,185.63078 l 6.304662,-6.66175 -0.860675,-4.22254 c -1.180747,-5.79275 -1.124354,-27.37606 0.08907,-34.07607 1.958178,-10.81265 7.218067,-23.07266 14.627761,-34.09505 l 3.796181,-5.64706 -5.856363,-5.935466 c -4.392521,-4.45188 -6.490285,-7.268285 -8.392478,-11.267599 -6.856942,-14.416377 -6.305529,-31.297703 1.45383,-44.509342 11.40951,-19.426614 37.200203,-28.26718 57.98143,-19.874938 8.698687,3.512862 16.900427,9.852528 21.250477,16.425908 l 1.83335,2.770373 1.78846,-2.384974 c 3.93865,-5.252335 15.25122,-15.67261 21.59008,-19.887164 11.76643,-7.8231929 23.28091,-12.5462559 36.26027,-14.8734199 5.54883,-0.99490144 9.69803,-1.18605544 20.15362,-0.92850244 11.89231,0.292953 13.7582,0.515922 19.28429,2.30444944 7.10483,2.299485 13.32514,5.590106 19.72785,10.4362909 2.50146,1.893362 4.90544,3.663309 5.34217,3.933215 0.43672,0.269906 2.66717,-1.03681 4.95659,-2.90382 5.28851,-4.3127799 15.17888,-9.0126669 24.35775,-11.5747839 6.68982,-1.86732944 8.04731,-1.99615744 20.83182,-1.97686244 12.48222,0.01888 14.36285,0.193108 21.55031,1.99691044 13.58289,3.40883 26.00885,10.3650689 41.34185,23.1437629 14.11269,11.761702 21.74254,23.175321 25.3994,37.995429 1.20511,4.883909 1.83291,6.298007 2.79606,6.298007 2.66566,0 14.30267,3.792072 20.11614,6.555085 9.33943,4.438868 17.65276,10.34181 25.20874,17.899705 15.62015,15.624056 24.64565,35.055756 25.69383,55.318166 l 0.4219,8.15566 4.50357,2.84426 c 5.717,3.61061 12.96462,11.28184 15.91924,16.84971 4.89614,9.22657 6.45433,20.86087 4.48973,33.52294 -0.76117,4.90592 -0.72026,5.17246 1.73334,11.29434 4.23229,10.55973 5.17442,16.11648 5.09019,30.0223 -0.0647,10.69057 -0.30648,13.11063 -1.91397,19.15953 -2.36324,8.89286 -5.85749,16.40196 -11.75412,25.25937 -10.4055,15.63028 -24.89425,26.84268 -41.72497,32.28972 l -5.08316,1.64507 2.17992,6.1688 c 2.12066,6.00108 2.17952,6.52098 2.16478,19.12469 -0.0136,11.65934 -0.20165,13.6444 -1.87883,19.83593 -2.95598,10.91241 -9.45292,22.90653 -17.91736,33.07757 l -3.64906,4.3848 2.85674,3.74058 c 6.49092,8.49913 9.10073,16.34855 9.02136,27.13318 -0.0653,8.88163 -1.39059,14.63963 -5.13547,22.31292 -5.01311,10.27195 -16.51275,19.37736 -28.57959,22.62935 -4.28008,1.15347 -18.10372,2.09823 -20.87338,1.42656 z m 19.10679,-23.44732 c 5.666,-2.60305 8.94142,-5.77245 11.64867,-11.27166 2.13393,-4.33462 2.35347,-5.38891 2.3479,-11.27483 -0.005,-5.6288 -0.27175,-7.03548 -2.00146,-10.56797 -2.30943,-4.71638 -6.0712,-8.37466 -11.46229,-11.14693 -5.4047,-2.77927 -14.93459,-3.23724 -20.8644,-1.00264 -5.117,1.92829 -10.82957,6.97449 -13.39041,11.82838 -1.74967,3.31638 -1.93957,4.41623 -1.93957,11.23391 0,6.79414 0.19346,7.92407 1.91496,11.18536 1.91571,3.62918 6.79383,8.70907 10.03737,10.45254 6.34516,3.41068 16.96294,3.66319 23.70923,0.56384 z m -189.69275,-3.48736 c 8.7578,-2.7555 17.28042,-7.63195 22.57404,-12.91636 5.65743,-5.64759 8.80056,-10.72947 12.18864,-19.70684 2.123,-5.62527 2.58895,-7.99224 3.14218,-15.96172 0.35726,-5.14637 0.55178,-48.22472 0.43227,-95.72967 -0.24224,-96.29015 0.15037,-88.85243 -5.30007,-100.40818 -6.07752,-12.88529 -15.78341,-21.99137 -33.91046,-31.81489 -7.25905,-3.93386 -8.25829,-4.71693 -9.62696,-7.54423 -3.41107,-7.04629 1.75581,-14.62378 9.97152,-14.62378 2.03695,0 5.02937,1.11617 10.46683,3.90407 9.01904,4.62426 13.99055,7.9188 22.36681,14.82206 l 6.20301,5.11219 -0.002,-75.07915 c -0.002,-86.037801 0.78172,-77.06768 -7.26064,-82.988131 -9.13319,-6.723468 -18.4136,-9.7279 -30.03191,-9.722527 -11.16212,0.0051 -23.96331,2.836668 -32.53643,7.196754 -9.66222,4.913963 -22.28811,16.374443 -31.39042,28.493025 -5.68267,7.565731 -6.12776,8.423546 -7.73306,14.904258 -1.97314,7.965736 -4.89963,14.564936 -8.59112,19.372975 l -2.60353,3.39102 19.05265,20.721336 c 13.56013,14.74778 19.28562,21.47945 19.86081,23.35108 1.60522,5.22336 -0.67664,10.20303 -5.89541,12.86546 -6.61635,3.37541 -7.49,2.73195 -30.5735,-22.51791 l -20.075867,-21.95996 -3.62646,1.13668 c -2.418384,0.75797 -6.50326,1.14965 -12.260333,1.17556 l -8.633688,0.0389 -3.789602,5.03841 c -7.106504,9.44835 -12.403959,21.58665 -13.799342,31.61904 -1.00354,7.21516 -0.988762,20.183 0.02846,25.02758 1.588452,7.5646 5.196352,13.95186 11.243122,19.90428 9.659947,9.50923 19.9926,14.14462 33.773733,15.15146 7.690147,0.56184 10.039937,1.46561 12.138757,4.66879 4.79047,7.31121 1.04211,15.39481 -7.90557,17.04889 -7.913547,1.4629 -24.146903,-2.29029 -34.935753,-8.07723 -7.257743,-3.89291 -11.809333,-7.50057 -19.011382,-15.06869 l -6.044249,-6.35148 -4.283926,5.18374 c -5.343515,6.46588 -9.066611,12.25949 -12.107029,18.84008 -8.003755,17.32309 -7.842054,38.55321 0.422292,55.44176 7.226144,14.76697 19.144749,25.33508 34.803536,30.85987 l 6.938095,2.44794 3.6713,-4.23784 c 5.027923,-5.80381 13.64781,-12.12894 22.442109,-16.46765 7.639847,-3.76915 14.021927,-5.59891 25.782717,-7.39201 12.27132,-1.87093 20.92788,-7.45287 29.83537,-19.23848 5.98267,-7.9157 7.95684,-9.35537 12.83599,-9.36062 4.32317,-0.003 7.7609,1.95353 9.36535,5.33468 2.37065,4.99575 1.22186,8.84775 -5.16968,17.33435 -12.09796,16.06347 -25.94485,24.4225 -45.30937,27.35214 -15.98226,2.41794 -22.63351,5.49158 -31.883827,14.73409 -10.494212,10.48533 -13.990142,19.81731 -13.894063,37.08868 0.06752,12.13919 1.445422,18.11616 6.378078,27.6667 6.25341,12.10775 14.982755,20.63735 27.335342,26.70983 10.6055,5.21363 10.54291,5.21291 12.02331,0.13819 1.69335,-5.8047 7.25419,-13.98843 13.48147,-19.84031 14.55986,-13.68211 28.72523,-17.40363 33.90553,-8.90762 1.96784,3.22735 1.86566,8.25111 -0.23136,11.37496 -1.62649,2.42295 -2.58076,3.02003 -10.95423,6.85406 -5.41414,2.47902 -12.00039,8.92108 -14.39534,14.08017 -0.97646,2.10344 -2.31788,6.25363 -2.98095,9.22269 -1.58394,7.0925 -0.70191,12.52219 3.36856,20.73677 5.22908,10.55271 13.65767,17.46518 25.1642,20.63769 5.7266,1.5789 18.88956,1.0293 25.55189,-1.06691 z m 120.30975,1.15497 c 4.1676,-1.10967 10.43147,-4.31873 12.16167,-6.23058 0.97066,-1.07257 1.0278,-1.89732 0.37571,-5.4247 -1.76209,-9.53212 -0.22072,-20.25949 4.19997,-29.23005 l 2.73054,-5.54087 -6.18899,-4.62971 c -7.20336,-5.38848 -15.96243,-13.82857 -20.26419,-19.52619 -2.13957,-2.83384 -3.10723,-4.88471 -3.32737,-7.05197 -0.61455,-6.05067 4.20839,-11.33338 10.34701,-11.33338 4.3239,0 6.62853,1.36626 10.27303,6.0902 4.2255,5.47706 13.83578,14.46094 19.90591,18.60848 l 5.00692,3.42107 4.68464,-1.76328 c 9.25258,-3.48267 22.63334,-4.18209 31.0631,-1.62371 l 3.41722,1.03711 4.73076,-5.10967 c 6.31609,-6.82195 11.13492,-14.84252 14.03736,-23.36402 2.17487,-6.38539 2.39044,-7.7862 2.40839,-15.65037 0.0165,-7.18444 -0.2488,-9.35806 -1.57659,-12.92253 -2.00181,-5.37383 -5.54223,-9.04862 -11.22838,-11.65452 -4.0745,-1.86729 -5.09275,-2.02206 -13.40656,-2.03764 -4.94842,-0.009 -14.20722,0.12339 -20.57509,0.29491 -10.96044,0.29517 -11.71453,0.22738 -14.13886,-1.27094 -6.33343,-3.91428 -6.43782,-13.73064 -0.18957,-17.82465 4.26857,-2.79686 38.4675,-3.09655 50.99698,-0.44687 5.62656,1.18987 7.10806,1.2465 12.59602,0.48142 11.07477,-1.54389 16.98539,-3.79915 26.48771,-10.1066 12.91908,-8.57543 22.35976,-22.64114 25.87705,-38.55436 1.44384,-6.53231 1.54094,-19.91368 0.17512,-24.13318 l -0.97478,-3.01146 -4.565,2.7581 c -10.33223,6.24258 -24.46264,8.68047 -36.10211,6.22865 -7.869,-1.65756 -16.07171,-5.97122 -22.27365,-11.71325 -4.84489,-4.48564 -5.32394,-4.75804 -6.76539,-3.8471 -0.85319,0.5392 -3.01686,1.89662 -4.80815,3.01649 -7.39775,4.62491 -22.354,8.60682 -36.37919,9.68547 -6.76658,0.52044 -10.08442,-0.60784 -12.7415,-4.33288 -2.17987,-3.05598 -2.22472,-8.87161 -0.0905,-11.73472 2.5659,-3.44228 5.29296,-4.49776 14.5972,-5.64965 4.81639,-0.59626 10.44922,-1.43425 12.51741,-1.86214 4.96235,-1.02672 13.13577,-4.95672 16.66478,-8.01289 l 2.82764,-2.44876 0.12952,-8.944 c 0.10145,-7.00284 0.47788,-10.03749 1.73459,-13.9824 4.55385,-14.29475 14.62941,-24.66949 28.71547,-29.56814 2.77561,-0.96527 6.60881,-1.93146 8.51821,-2.1471 1.90942,-0.21567 4.55899,-0.5578 5.88796,-0.76031 l 2.41631,-0.36821 -0.48812,-4.09163 c -0.77742,-6.5166 -2.45501,-12.28529 -5.4163,-18.62489 -3.77443,-8.08037 -7.32719,-13.25448 -13.68225,-19.92634 -8.1763,-8.58391 -17.33246,-14.536686 -26.58352,-17.283026 -6.52631,-1.93744 -6.62983,-1.88547 -8.86782,4.45172 -4.96265,14.052486 -15.87769,26.701196 -32.09079,37.187866 -9.78595,6.32957 -24.83099,12.62226 -30.17828,12.62226 -7.10584,0 -12.01215,-6.39932 -10.16517,-13.2585 1.16027,-4.30887 4.52575,-7.05858 10.90969,-8.91351 7.81002,-2.2693 18.78037,-8.05922 24.82536,-13.10231 8.73898,-7.29059 14.40979,-15.511856 17.11254,-24.808996 1.66641,-5.732227 1.17648,-17.811187 -0.94313,-23.252751 -4.04752,-10.391041 -13.65001,-20.61201 -28.38428,-30.212511 -15.28407,-9.958718 -35.79742,-14.300875 -50.59308,-10.709274 -10.88039,2.641175 -21.35969,9.485534 -24.77594,16.181934 l -1.49574,2.931869 V 163.78228 285.57722 l 5.57824,-5.40764 c 9.16816,-8.88778 31.47726,-24.55696 36.20226,-25.4273 3.38025,-0.62262 8.15991,1.30905 10.1482,4.10135 2.11689,2.97291 2.53009,7.62913 0.96894,10.91899 -0.95334,2.00904 -3.4039,4.10915 -10.33888,8.8604 -4.99914,3.42497 -11.69433,8.24315 -14.8782,10.70705 -12.66875,9.80392 -21.29149,21.78274 -25.63352,35.61034 l -1.68715,5.37292 v 44.62586 c 0,49.52092 -0.19835,47.14485 4.99993,59.89523 4.43565,10.87979 11.33536,18.64906 21.52422,24.23692 11.06813,6.07005 24.61946,8.4245 34.04452,5.91497 z M 446.89756,222.53306 c 5.13086,-2.51029 9.77814,-7.13789 12.11311,-12.06175 1.61367,-3.40282 1.8773,-4.919 1.8773,-10.79659 0,-6.03227 -0.23747,-7.32139 -2.01561,-10.94242 -2.51926,-5.13014 -7.88457,-10.04718 -13.31436,-12.20192 -6.03174,-2.39364 -14.83764,-2.27315 -20.427,0.27949 -11.06367,5.05276 -17.26619,16.52367 -14.96461,27.67547 1.94765,9.43686 7.58084,15.97008 16.58935,19.23979 5.08341,1.84507 15.1521,1.24917 20.14182,-1.19207 z M 87.015751,86.981806 C 99.478073,83.385164 107.14919,71.49038 105.04554,59.024897 103.53511,50.074588 98.791793,43.799457 90.651687,39.982653 c -3.480844,-1.632147 -4.99896,-1.896719 -10.882963,-1.896719 -5.883982,0 -7.402097,0.264572 -10.882953,1.896719 -5.676068,2.661452 -9.592973,6.476317 -12.304284,11.983763 -1.998682,4.059898 -2.328938,5.499128 -2.33588,10.179295 -0.01148,7.400615 1.685261,12.011494 6.260161,17.01714 7.132898,7.804539 16.740848,10.638336 26.509983,7.818955 z"
     id="path88" /><rect
     style="fill:#ffffff;stroke:#000000;stroke-width:23.0754;stroke-linecap:round;stroke-linejoin:round;stroke-dasharray:none"
     id="rect88"
     width="106.95016"
     height="53.741127"
     x="116.81042"
     y="311.61548" /><path
     style="fill:#ffffff;stroke:none;stroke-width:9.62127;stroke-linecap:round;stroke-linejoin:round;stroke-dasharray:none"
     d="M 63.601407,308.21572 C 42.340018,300.44457 28.83083,285.12414 23.613553,262.86655 c -1.218837,-5.19972 -1.367497,-20.45745 -0.248235,-25.4777 2.762869,-12.39232 7.699468,-22.2218 16.749639,-33.35095 l 3.799102,-4.67182 6.119039,6.26878 c 9.812601,10.05272 17.722047,15.2628 28.732885,18.9268 11.399578,3.79336 22.073237,5.03154 27.497887,3.18983 7.36649,-2.501 10.21844,-9.43174 6.67343,-16.21766 -2.10046,-4.02073 -4.39443,-5.0895 -12.961637,-6.03891 -8.822249,-0.97767 -12.981234,-2.04661 -19.081319,-4.90425 C 69.425531,195.218 59.823708,185.1498 56.425715,174.93358 c -2.486388,-7.47542 -2.471079,-24.85144 0.0303,-34.40145 2.265686,-8.65016 6.710064,-17.66959 12.869712,-26.11783 l 3.14857,-4.3184 9.131847,-0.28731 c 6.338872,-0.19943 10.009261,-0.55987 12.000599,-1.17848 2.73493,-0.84963 2.91171,-0.84576 3.78938,0.0829 0.50633,0.53578 7.591987,8.27707 15.745897,17.20289 21.95626,24.03482 25.93107,27.6941 30.04184,27.65701 1.7576,-0.0158 5.16531,-1.62576 7.35699,-3.47564 3.39181,-2.86283 4.71146,-8.1566 3.03407,-12.17115 -0.9489,-2.27101 -7.67768,-10.07212 -24.4969,-28.40082 -7.33246,-7.99056 -13.39313,-14.699366 -13.4681,-14.908456 -0.0751,-0.2091 0.83639,-1.67474 2.02528,-3.25699 3.1541,-4.197716 6.06057,-10.588036 8.13924,-17.895394 1.00531,-3.534082 2.32851,-7.407016 2.94045,-8.606504 3.67355,-7.200749 18.40228,-23.368063 27.47022,-30.153283 11.4024,-8.532007 25.11418,-12.752567 41.23702,-12.692967 8.44732,0.03122 12.63231,0.835032 19.60877,3.766232 3.84632,1.616051 11.93845,6.782744 13.90987,8.881227 0.63586,0.676832 1.38712,2.151649 1.66951,3.27737 1.04149,4.151907 1.53952,37.048105 1.40161,92.577915 l -0.14159,57.00945 -5.853,-4.75465 c -7.71971,-6.27107 -13.9589,-10.35499 -21.99738,-14.39856 -5.77855,-2.90678 -7.04591,-3.34394 -10.21328,-3.52292 -3.16861,-0.17904 -3.95249,-0.0212 -6.33457,1.27526 -4.39637,2.39281 -6.32326,6.64606 -5.25903,11.60835 0.80999,3.77689 3.19704,5.97723 11.75682,10.83724 18.098,10.27558 26.69664,18.63474 33.11464,32.19236 1.28147,2.70702 2.59594,6.11151 2.92107,7.56553 1.0387,4.64539 1.56798,21.08184 1.58354,49.17467 l 0.0151,27.34219 -1.46324,-1.47894 c -0.80479,-0.81342 -2.42102,-1.91828 -3.59161,-2.45528 -2.00635,-0.92037 -4.55335,-0.97767 -44.42955,-0.99971 l -42.30118,-0.0234 2.29819,-1.04296 c 11.72578,-5.32137 27.9231,-22.05584 30.74574,-31.76537 0.7363,-2.53277 0.7368,-3.10221 0.005,-5.61958 -0.79688,-2.74117 -2.96732,-5.4279 -5.38021,-6.66005 -1.92164,-0.98127 -5.85266,-1.29328 -8.22973,-0.65321 -3.26642,0.87957 -4.93916,2.2795 -9.22438,7.72007 -5.34677,6.7883 -9.13328,10.6589 -13.3054,13.60085 -5.41703,3.81976 -10.04963,5.51274 -20.18689,7.37725 -4.9012,0.90147 -11.13967,2.35283 -13.86326,3.22528 -11.431727,3.66192 -24.959322,12.37188 -32.270852,20.77813 -1.517742,1.74497 -3.042368,3.16073 -3.388092,3.14611 -0.345713,-0.0146 -2.783522,-0.81423 -5.417377,-1.77692 z"
     id="path89" /><path
     style="fill:#ffffff;stroke:none;stroke-width:9.62127;stroke-linecap:round;stroke-linejoin:round;stroke-dasharray:none"
     d="m 74.642888,86.79853 c -4.39753,-0.955289 -8.152997,-3.047067 -12.134317,-6.75876 -5.606267,-5.22658 -8.145494,-11.964085 -7.565274,-20.073429 0.203911,-2.849914 0.705435,-4.424309 2.521069,-7.914189 2.71196,-5.212733 6.418219,-8.846001 11.618471,-11.389649 3.491143,-1.707658 3.711166,-1.743346 10.747326,-1.743271 l 7.183216,7.6e-5 3.941038,2.043942 c 7.533136,3.906915 12.047093,10.098842 13.419253,18.407579 2.13658,12.937534 -7.306177,25.486974 -20.81888,27.668255 -4.221282,0.681413 -4.731101,0.667656 -8.911902,-0.240554 z"
     id="path90" /><path
     style="fill:#ffffff;stroke:none;stroke-width:9.62127;stroke-linecap:round;stroke-linejoin:round;stroke-dasharray:none"
     d="m 299.93213,464.53994 c -9.96742,-1.80084 -18.6184,-5.86179 -26.26824,-12.33085 -8.06588,-6.82089 -15.40159,-21.4609 -16.63884,-33.20643 -0.29479,-2.79853 -0.52646,-23.31236 -0.53168,-47.07646 l -0.009,-42.11667 1.90412,-5.47037 c 6.08373,-17.47811 14.84781,-27.59836 37.73662,-43.57608 12.04101,-8.40533 13.5683,-10.14323 13.5683,-15.43949 0,-8.7524 -8.22555,-13.76437 -16.06785,-9.79039 -8.65359,4.38511 -25.39841,16.75108 -34.08167,25.16915 l -3.59161,3.48193 0.005,-121.03629 0.005,-121.036292 1.55738,-2.715273 c 3.60469,-6.284719 13.93352,-13.138245 23.70693,-15.730327 6.17707,-1.638268 17.62845,-1.613239 24.97811,0.05459 15.74589,3.573169 30.24391,11.71918 42.09286,23.650747 7.47052,7.522617 11.21893,13.666411 12.7517,20.900592 1.02448,4.835249 1.00943,13.999277 -0.0296,18.024393 -4.15603,16.09983 -19.72668,30.48743 -40.91559,37.80685 -9.27045,3.20236 -12.2496,6.30664 -12.20775,12.7205 0.0241,3.70002 0.95218,5.79899 3.58665,8.11209 5.20463,4.56973 12.35075,3.37926 28.53965,-4.7544 20.47102,-10.2851 34.58466,-24.45708 41.23172,-41.402146 2.70229,-6.88885 2.6443,-6.84195 7.06308,-5.71134 4.93924,1.26377 13.37869,5.52719 18.50875,9.350176 5.6291,4.1949 13.69525,12.65252 17.45295,18.3 4.97833,7.48196 8.59248,16.18489 10.19116,24.54042 1.40912,7.36477 1.63319,6.96923 -4.39138,7.75184 -11.29514,1.4673 -20.78431,5.88756 -28.07573,13.07832 -4.97071,4.9021 -7.6864,8.83075 -10.16223,14.70116 -2.5654,6.08278 -3.3979,10.91451 -3.39937,19.72926 l -0.001,7.60473 -2.79219,2.25883 c -6.29272,5.09065 -13.33897,7.66228 -25.88577,9.44733 -12.04755,1.71404 -14.36791,2.44087 -17.03733,5.33685 -4.58811,4.97751 -3.15545,13.74653 2.75213,16.84545 4.04623,2.12251 15.59475,1.32047 29.08062,-2.01965 7.4495,-1.84506 12.96748,-4.01675 18.20634,-7.16541 2.39913,-1.44191 4.56073,-2.62165 4.80357,-2.62165 0.24285,0 1.72473,1.16206 3.29308,2.58237 9.40089,8.51348 18.31695,12.82341 28.77063,13.9074 10.30041,1.0681 20.91653,-1.06267 30.49423,-6.12053 2.99063,-1.57931 5.54931,-2.69057 5.68596,-2.46946 0.92261,1.49281 1.49492,8.59001 1.22766,15.22434 -0.39438,9.79023 -1.9412,15.89726 -6.20501,24.49796 -3.73334,7.53066 -6.89663,11.85652 -12.78132,17.47874 -9.96787,9.52325 -20.82355,14.66753 -34.57299,16.38347 -4.64015,0.5791 -5.91985,0.54733 -10.24784,-0.25446 -7.73145,-1.43228 -14.62838,-1.91979 -27.37,-1.93465 -11.86946,-0.0138 -21.36394,0.63374 -24.02405,1.63855 -6.18726,2.33712 -8.29712,11.1897 -4.01562,16.84882 2.79697,3.69692 1.82329,3.55267 25.96318,3.8467 l 21.84048,0.26606 3.72464,1.94937 c 9.23829,4.83507 12.39325,11.7372 11.85189,25.92846 -0.21665,5.67883 -0.50976,7.45878 -1.91043,11.60114 -3.30485,9.77378 -8.39063,18.24684 -15.33617,25.55049 l -3.65083,3.83905 -3.99069,-1.06126 c -3.02948,-0.80564 -5.65673,-1.05849 -10.90784,-1.04969 -8.2077,0.0138 -11.50304,0.49514 -18.66495,2.72668 l -5.3627,1.67093 -4.48097,-3.19063 c -5.64435,-4.01902 -11.62549,-9.52678 -18.65638,-17.17986 -3.049,-3.3188 -6.26116,-6.30154 -7.2158,-6.70041 -4.65237,-1.94391 -10.77566,-0.16631 -13.69262,3.97499 -1.91691,2.72148 -2.43819,7.26759 -1.17424,10.24036 2.14367,5.04178 12.61956,15.98541 22.82278,23.84178 3.14598,2.42239 5.71996,4.47234 5.71996,4.55545 0,0.0831 -0.95867,2.22614 -2.13037,4.7623 -3.31757,7.18086 -4.31844,11.32957 -4.63573,19.21566 -0.157,3.90174 -0.0258,8.53562 0.30099,10.62981 0.56765,3.63788 0.55136,3.74181 -0.80821,5.16089 -1.96761,2.05375 -8.44792,5.11889 -12.74876,6.03009 -4.49491,0.95231 -9.26432,0.93401 -14.74722,-0.0566 z"
     id="path91" /><path
     style="fill:#ffffff;stroke:none;stroke-width:9.62127;stroke-linecap:round;stroke-linejoin:round;stroke-dasharray:none"
     d="m 429.89902,223.81445 c -6.4537,-1.09203 -13.51085,-6.50591 -16.64379,-12.7683 -4.96089,-9.91622 -3.29244,-20.36668 4.49488,-28.15399 12.22519,-12.22519 33.13542,-8.77832 40.74384,6.71626 1.42947,2.91113 1.51478,3.47499 1.51478,10.01321 0,6.79333 -0.0349,6.99943 -1.79497,10.57446 -5.03785,10.23333 -16.30203,15.65098 -28.31474,13.61836 z"
     id="path92" /><path
     style="fill:#ffffff;stroke:none;stroke-width:9.62127;stroke-linecap:round;stroke-linejoin:round;stroke-dasharray:none"
     d="m 370.61754,468.49646 c -5.58247,-0.62432 -9.07936,-2.30358 -12.99358,-6.23966 -1.92568,-1.93642 -4.21954,-4.83714 -5.09749,-6.44604 -1.56576,-2.86937 -1.59628,-3.07284 -1.59628,-10.64061 0,-7.46388 0.0496,-7.80976 1.52516,-10.61325 1.80042,-3.42099 6.50875,-8.261 10.0132,-10.29324 5.72712,-3.32118 14.70142,-3.9225 21.35772,-1.43106 4.14238,1.55048 9.1437,5.44703 11.597,9.0353 3.01828,4.41461 3.81737,7.55257 3.57697,14.04661 -0.18689,5.04907 -0.35709,5.78431 -2.20398,9.52125 -2.51568,5.09013 -5.72212,8.31983 -10.70464,10.78233 -4.34876,2.14929 -9.64961,2.92976 -15.47408,2.27837 z"
     id="path93" /><path
     style="fill:#ffffff;stroke:none;stroke-width:9.62127;stroke-linecap:round;stroke-linejoin:round;stroke-dasharray:none"
     d="m 174.10229,464.84728 c -4.34069,-0.6013 -6.38331,-1.28196 -11.26604,-3.75427 -7.55065,-3.82315 -12.83141,-9.18422 -16.79042,-17.04577 -4.19959,-8.33929 -4.97863,-14.47919 -2.86232,-22.55908 1.71613,-6.55194 3.46665,-9.61871 8.2335,-14.42433 3.73529,-3.76569 5.06406,-4.69921 10.37891,-7.2917 6.75997,-3.2974 7.20052,-3.59753 8.96074,-6.10461 1.50824,-2.1482 2.07821,-7.06592 1.14627,-9.88975 -0.8306,-2.51674 -2.99173,-5.0704 -5.04962,-5.96676 -1.37458,-0.59873 3.05473,-0.71175 28.97255,-0.73928 28.50938,-0.0304 30.7403,-0.099 32.72355,-1.00886 1.1706,-0.53699 2.81309,-1.66812 3.64997,-2.51364 l 1.52163,-1.5373 -0.26418,23.94196 c -0.28473,25.80812 -0.4228,27.23938 -3.3853,35.09115 -5.88502,15.59769 -15.40125,25.10376 -31.03429,31.0012 -6.61538,2.4956 -17.94907,3.76877 -24.93495,2.80104 z"
     id="path94" /><path
     style="fill:#ffffff;stroke:none;stroke-width:9.62127;stroke-linecap:round;stroke-linejoin:round;stroke-dasharray:none"
     d="M 112.53334,410.41304 C 98.980853,403.71567 90.806746,395.88765 84.387617,383.45903 79.075991,373.17474 77.984824,367.7005 78.376243,353.30064 c 0.303202,-11.15467 0.927435,-14.46927 3.912667,-20.77606 3.288928,-6.9484 11.009533,-15.43371 18.38594,-20.20702 1.95347,-1.2641 3.68941,-2.29836 3.85766,-2.29836 0.16824,0 0.3059,12.64689 0.3059,28.10421 0,31.13336 0.067,31.84435 3.31208,35.18009 3.64587,3.74768 3.51565,3.72995 27.8152,3.78628 21.59712,0.0501 21.78904,0.0601 19.15526,0.99882 -13.81667,4.92471 -28.13367,19.26225 -32.71483,32.76171 -0.62199,1.83287 -1.22528,2.70877 -1.9394,2.81573 -0.57013,0.0854 -4.14014,-1.37845 -7.93338,-3.253 z"
     id="path95" /></svg>
