<?xml version="1.0" encoding="UTF-8" standalone="no"?>
<!-- Created with Inkscape (http://www.inkscape.org/) -->

<svg
   width="450.57553"
   height="500.74069"
   viewBox="0 0 450.57553 500.74069"
   version="1.1"
   id="svg1"
   xml:space="preserve"
   sodipodi:docname="Template.svg"
   inkscape:version="1.4 (86a8ad7, 2024-10-11)"
   inkscape:export-filename="Suit-case.svg"
   inkscape:export-xdpi="96"
   inkscape:export-ydpi="96"
   xmlns:inkscape="http://www.inkscape.org/namespaces/inkscape"
   xmlns:sodipodi="http://sodipodi.sourceforge.net/DTD/sodipodi-0.dtd"
   xmlns="http://www.w3.org/2000/svg"
   xmlns:svg="http://www.w3.org/2000/svg"><sodipodi:namedview
     id="namedview1"
     pagecolor="#ffffff"
     bordercolor="#000000"
     borderopacity="0.25"
     inkscape:showpageshadow="2"
     inkscape:pageopacity="0.0"
     inkscape:pagecheckerboard="true"
     inkscape:deskcolor="#d1d1d1"
     inkscape:zoom="2"
     inkscape:cx="227.5"
     inkscape:cy="294.75"
     inkscape:window-width="2560"
     inkscape:window-height="1494"
     inkscape:window-x="585"
     inkscape:window-y="2149"
     inkscape:window-maximized="1"
     inkscape:current-layer="svg1"><inkscape:page
       x="0"
       y="0"
       width="450.57553"
       height="500.74069"
       id="page2"
       margin="0"
       bleed="0" /></sodipodi:namedview><defs
     id="defs1"><inkscape:path-effect
       effect="bspline"
       id="path-effect415"
       is_visible="true"
       lpeversion="1.3"
       weight="33.333333"
       steps="2"
       helper_size="0"
       apply_no_weight="true"
       apply_with_weight="true"
       only_selected="false"
       uniform="false" /><inkscape:path-effect
       effect="bspline"
       id="path-effect414"
       is_visible="true"
       lpeversion="1.3"
       weight="33.333333"
       steps="2"
       helper_size="0"
       apply_no_weight="true"
       apply_with_weight="true"
       only_selected="false"
       uniform="false" /><inkscape:path-effect
       effect="bspline"
       id="path-effect413"
       is_visible="true"
       lpeversion="1.3"
       weight="33.333333"
       steps="2"
       helper_size="0"
       apply_no_weight="true"
       apply_with_weight="true"
       only_selected="false"
       uniform="false" /></defs><g
     id="g400"
     transform="matrix(1.0393828,0.87930566,-0.87930566,1.0393828,234.85436,-226.978)"
     style="fill:#1a1a1a"><path
       style="fill:#1a1a1a;fill-opacity:1"
       d="m 341.04984,324.71062 -1.52087,-1.79632 1.79631,1.52088 c 1.6881,1.42924 2.15977,2.07176 1.52088,2.07176 -0.1515,0 -0.95984,-0.80834 -1.79632,-1.79632 z M 276.92041,179.14224 c 0.0383,-0.93005 0.22749,-1.11923 0.48235,-0.48235 0.23062,0.57632 0.20226,1.26491 -0.063,1.5302 -0.26529,0.26529 -0.45398,-0.20625 -0.41932,-1.04785 z m -33.59432,-68.49503 c 0,-0.16579 0.62871,-0.7945 1.39714,-1.39714 1.26625,-0.99306 1.29449,-0.96482 0.30142,0.30143 -1.04295,1.32987 -1.69856,1.75279 -1.69856,1.09571 z"
       id="path407" /><path
       style="fill:#1a1a1a;fill-opacity:1"
       d="m 152.37561,387.51527 c 0.0383,-0.93005 0.22749,-1.11923 0.48235,-0.48235 0.23062,0.57632 0.20226,1.26491 -0.063,1.5302 -0.26529,0.26529 -0.45398,-0.20625 -0.41932,-1.04785 z m 124.5448,-210.76813 c 0.0383,-0.93005 0.22749,-1.11922 0.48235,-0.48234 0.23062,0.57632 0.20226,1.26491 -0.063,1.5302 -0.26529,0.26529 -0.45398,-0.20625 -0.41932,-1.04786 z M 174.82242,160.84639 c 0.0163,-1.3173 0.1952,-1.75954 0.39762,-0.98276 0.20242,0.77678 0.18911,1.85457 -0.0296,2.39509 -0.21869,0.54052 -0.3843,-0.095 -0.36803,-1.41233 z m 102.09799,-5.65508 c 0.0383,-0.93005 0.22749,-1.11922 0.48235,-0.48234 0.23062,0.57632 0.20226,1.26491 -0.063,1.53019 -0.26529,0.26529 -0.45398,-0.20624 -0.41932,-1.04785 z"
       id="path406" /><path
       style="fill:#1a1a1a;fill-opacity:1"
       d="m 276.92041,174.35205 c 0.0383,-0.93005 0.22749,-1.11923 0.48235,-0.48234 0.23062,0.57631 0.20226,1.2649 -0.063,1.53019 -0.26529,0.26529 -0.45398,-0.20624 -0.41932,-1.04785 z m -11.97546,-11.1771 c 0.0383,-0.93005 0.22749,-1.11922 0.48235,-0.48234 0.23062,0.57632 0.20226,1.26491 -0.063,1.5302 -0.26529,0.26529 -0.45399,-0.20625 -0.41932,-1.04786 z m 12.09766,-4.32447 c 0,-1.53685 0.1643,-2.16556 0.36511,-1.39714 0.20081,0.76843 0.20081,2.02585 0,2.79428 -0.20081,0.76842 -0.36511,0.13971 -0.36511,-1.39714 z M 252.80462,54.464374 c -0.99306,-1.266249 -0.96482,-1.294488 0.30143,-0.301426 1.32987,1.042959 1.75279,1.698564 1.09571,1.698564 -0.16578,0 -0.79449,-0.628712 -1.39714,-1.397138 z"
       id="path405" /><path
       style="fill:#1a1a1a;fill-opacity:1"
       d="m 303.01312,321.95047 c 0.99309,-0.19096 2.43015,-0.18371 3.19345,0.0161 0.76331,0.19983 -0.0492,0.35607 -1.80562,0.34721 -1.75641,-0.009 -2.38093,-0.17236 -1.38783,-0.36332 z m 0,-11.97546 c 0.99309,-0.19096 2.43015,-0.18371 3.19345,0.0161 0.76331,0.19982 -0.0492,0.35607 -1.80562,0.34721 -1.75641,-0.009 -2.38093,-0.17236 -1.38783,-0.36332 z M 265.1439,169.6284 c 0.004,-3.07371 0.14784,-4.2333 0.32067,-2.57688 0.17282,1.65642 0.16992,4.17127 -0.006,5.58855 -0.17637,1.41728 -0.31777,0.062 -0.31423,-3.01167 z m 11.98717,-2.3951 c 0.003,-3.5128 0.14326,-4.85054 0.31191,-2.97276 0.16865,1.87778 0.16628,4.7519 -0.005,6.38691 -0.17155,1.63502 -0.30954,0.0987 -0.30664,-3.41415 z m -90.4258,-4.05835 c 0.0383,-0.93005 0.22748,-1.11922 0.48234,-0.48234 0.23063,0.57632 0.20226,1.26491 -0.063,1.5302 -0.26528,0.26529 -0.45398,-0.20625 -0.41931,-1.04786 z m 78.23968,-2.39509 c 0.0383,-0.93005 0.22749,-1.11923 0.48235,-0.48234 0.23062,0.57631 0.20226,1.2649 -0.063,1.53019 -0.26529,0.26529 -0.45399,-0.20624 -0.41932,-1.04785 z"
       id="path404" /><path
       style="fill:#1a1a1a;fill-opacity:1"
       d="m 140.40015,385.12017 c 0.0383,-0.93004 0.22749,-1.11922 0.48235,-0.48234 0.23062,0.57632 0.20226,1.26491 -0.063,1.5302 -0.26529,0.26529 -0.45399,-0.20625 -0.41932,-1.04786 z m 124.5448,-226.7354 c 0.0383,-0.93005 0.22749,-1.11923 0.48235,-0.48235 0.23062,0.57632 0.20226,1.26491 -0.063,1.5302 -0.26529,0.26529 -0.45399,-0.20624 -0.41932,-1.04785 z m -28.15546,-29.61913 c 0.57631,-0.23063 1.2649,-0.20227 1.53019,0.063 0.26529,0.26529 -0.20624,0.45399 -1.04785,0.41932 -0.93005,-0.0383 -1.11923,-0.22749 -0.48234,-0.48234 z"
       id="path403" /><path
       style="fill:#1a1a1a;fill-opacity:1"
       d="m 264.94495,155.98968 c 0.0383,-0.93005 0.22749,-1.11923 0.48235,-0.48235 0.23062,0.57632 0.20226,1.26491 -0.063,1.5302 -0.26529,0.26529 -0.45399,-0.20624 -0.41932,-1.04785 z"
       id="path402" /><path
       style="fill:#1a1a1a;fill-opacity:1"
       d="m 238.93509,353.65132 c 1.71508,-1.7564 3.29796,-3.19345 3.51751,-3.19345 0.21955,0 -1.00407,1.43705 -2.71915,3.19345 -1.71508,1.7564 -3.29796,3.19346 -3.51751,3.19346 -0.21955,0 1.00407,-1.43706 2.71915,-3.19346 z m 93.70595,-20.55787 c -0.99307,-1.26625 -0.96483,-1.29449 0.30142,-0.30143 0.76843,0.60264 1.39714,1.23135 1.39714,1.39714 0,0.65708 -0.65561,0.23416 -1.69856,-1.09571 z M 264.94495,179.14224 c 0.0383,-0.93005 0.22749,-1.11923 0.48235,-0.48235 0.23062,0.57632 0.20226,1.26491 -0.063,1.5302 -0.26529,0.26529 -0.45399,-0.20625 -0.41932,-1.04785 z m 0,-25.54766 c 0.0383,-0.93004 0.22749,-1.11922 0.48235,-0.48234 0.23062,0.57632 0.20226,1.26491 -0.063,1.5302 -0.26529,0.26529 -0.45399,-0.20625 -0.41932,-1.04786 z"
       id="path401" /><path
       style="fill:#1a1a1a;fill-opacity:1"
       d="m 155.75782,450.24781 c -2.84054,-1.14449 -3.69619,-3.689 -3.12273,-9.28635 0.64507,-6.29625 2.97702,-13.8142 5.9409,-19.15281 l 2.27324,-4.09463 -4.74427,-1.31902 c -3.80237,-1.05716 -5.5903,-2.16507 -9.00572,-5.58049 -6.51509,-6.51509 -7.07607,-9.22834 -5.9943,-28.99242 2.60919,-47.67036 7.19475,-78.06097 20.43536,-135.43441 7.85579,-34.04031 12.51563,-61.1807 13.61656,-79.30729 l 0.53097,-8.74232 -2.70603,-1.11622 c -3.31428,-1.36712 -9.20327,-6.6741 -10.77172,-9.70715 -1.93839,-3.74842 -2.74545,-9.82687 -1.89805,-14.29523 0.42507,-2.24135 2.25381,-7.36086 4.06387,-11.37669 1.81007,-4.01583 5.73534,-14.66642 8.72283,-23.667971 8.97744,-27.04977 14.28491,-37.71487 22.52217,-45.257217 8.9995,-8.240274 23.44987,-12.083723 35.72973,-9.50324 17.57485,3.69317 30.16658,16.76231 33.91467,35.200537 0.71408,3.512802 2.15502,9.799919 3.20209,13.971371 5.33795,21.26593 7.5288,39.02366 8.12608,65.86504 0.9915,44.55766 -4.22959,80.31022 -18.24608,124.94398 -5.77538,18.39099 -14.93507,49.79489 -14.62415,50.13876 0.11985,0.13254 3.16598,-1.76642 6.76917,-4.21992 11.08054,-7.54499 23.71709,-13.3491 36.74371,-16.87679 8.11422,-2.19738 25.79629,-2.0521 33.13211,0.27222 16.52637,5.2363 29.35904,18.54116 33.45879,34.68993 3.67856,14.48968 1.44351,34.43159 -5.94307,53.02622 -3.20683,8.07272 -6.16069,11.69754 -11.78163,14.45779 l -4.557,2.23778 -25.33151,0.241 -25.33152,0.24099 2.30799,4.15001 c 4.54131,8.16573 7.4125,21.03365 5.6452,25.30028 -1.47381,3.5581 -4.08338,4.14862 -17.05306,3.85895 -13.14067,-0.2935 -14.40512,-0.80687 -14.40512,-5.84849 0,-4.75735 1.5501,-5.55092 11.4397,-5.85656 l 8.67225,-0.26802 -0.80619,-2.92544 c -1.23972,-4.49858 -4.95582,-11.34283 -8.19885,-15.10049 l -2.92835,-3.39305 h -44.57832 -44.57833 l -3.27335,3.71872 c -3.29472,3.74299 -7.48959,11.56782 -8.38543,15.64161 l -0.48281,2.1955 h 32.00226 c 36.45519,0 36.66303,0.0339 36.66303,5.98773 0,6.01454 0.13455,5.99459 -40.04086,5.93713 -19.45906,-0.0278 -36.16496,-0.36683 -37.12423,-0.75333 z m 176.49415,-46.37004 c 5.75081,-4.52359 11.668,-25.30682 11.668,-40.9821 0,-19.33643 -8.25625,-31.86303 -25.44914,-38.61214 -4.64727,-1.8243 -6.40015,-2.06982 -14.46907,-2.02659 -6.71262,0.036 -10.86426,0.5028 -15.44095,1.73628 -19.65482,5.29724 -40.65613,19.14643 -56.01263,36.93721 -10.1847,11.79915 -11.13049,12.67999 -13.61501,12.67999 -1.23715,0 -3.08086,-0.78115 -4.09714,-1.73589 -3.34783,-3.14512 -2.52561,-5.371 5.28221,-14.29979 6.71704,-7.68142 7.23055,-8.5282 8.86662,-14.62094 4.28901,-15.97235 13.04549,-46.09431 17.42975,-59.9577 5.99419,-18.95408 8.97655,-30.22855 12.03758,-45.50675 6.91878,-34.53292 8.87432,-73.89165 5.23603,-105.38407 -1.48191,-12.8271 -2.96328,-21.95501 -3.56309,-21.95501 -0.24948,0 -1.97618,1.94949 -3.8371,4.33221 -4.73467,6.06224 -15.45409,14.03017 -18.87507,14.03017 -2.76756,0 -4.70306,-1.57257 -5.61295,-4.56044 -0.79467,-2.60956 0.64568,-4.61976 5.83535,-8.144 13.56229,-9.20998 19.46245,-22.612677 15.69674,-35.65644 -3.2,-11.084243 -9.91109,-19.628583 -18.62746,-23.715897 -4.67971,-2.194425 -5.54442,-2.33558 -12.45587,-2.033297 -6.41365,0.28051 -8.15741,0.684388 -12.77975,2.959958 -10.02859,4.937059 -15.04916,13.626814 -25.18811,43.596396 -3.56334,10.53283 -7.94512,22.33378 -9.73729,26.22434 -2.79171,6.06044 -3.20425,7.63813 -2.8799,11.01371 1.13674,11.83019 14.48495,12.32741 31.07144,1.15741 2.33423,-1.57196 5.23682,-2.8581 6.45021,-2.8581 4.60501,0 7.19812,6.18513 3.95343,9.42982 -4.20667,4.20667 -17.49057,11.03203 -24.30106,12.48606 -2.13009,0.45477 -2.19575,0.62882 -2.20405,5.84248 -0.0233,14.67955 -4.29005,42.60788 -10.8597,71.08382 -1.14534,4.96443 -1.90449,9.20417 -1.68701,9.42166 0.21749,0.21749 2.10375,-0.68796 4.1917,-2.01209 2.08795,-1.32414 6.71004,-3.36811 10.27132,-4.54216 3.56129,-1.17405 7.74863,-2.77326 9.30522,-3.5538 5.81042,-2.91358 12.16188,-11.75384 14.31874,-19.92948 1.47135,-5.57719 2.8104,-7.17191 6.02207,-7.17191 3.4793,0 5.96932,2.3417 5.96932,5.61373 0,3.25299 -2.80571,11.43611 -5.60286,16.34128 -5.52947,9.69667 -12.02168,14.71791 -24.62672,19.04695 -13.62476,4.67925 -19.64884,9.5917 -24.48892,19.96998 -2.17624,4.66637 -3.2352,9.07062 -5.87947,24.45302 -6.41187,37.29934 -10.04351,67.51463 -10.9855,91.39963 -0.57968,14.69801 -0.0749,17.14414 4.05808,19.66442 2.36499,1.44217 5.71858,1.49943 87.9756,1.5023 85.51548,0.003 85.51692,0.003 87.63641,-1.66423 z"
       id="path400" /></g><rect
     style="fill:#1a1a1a;stroke:none;stroke-width:0.136143;stroke-linecap:round;stroke-linejoin:round;stroke-dasharray:none"
     id="rect407"
     width="89.288345"
     height="15.643522"
     x="322.02344"
     y="273.10629"
     transform="rotate(40.23083)" /><path
     style="fill:#ffffff;stroke:none;stroke-width:0.0680716;stroke-linecap:round;stroke-linejoin:round;stroke-dasharray:none"
     d="M 60.341643,347.66151 C 44.012446,333.35795 43.679985,333.02766 42.767793,330.20329 41.06192,324.92147 41.517161,324.04987 52.991379,310.62907 71.9024,288.50986 102.11294,259.96477 143.8544,224.77519 c 23.95293,-20.19321 30.13993,-24.18334 41.67812,-26.87911 9.23111,-2.15676 16.76733,-1.11577 32.52285,4.49243 13.04784,4.64441 19.99711,5.80932 29.32109,4.91511 8.01264,-0.76846 20.24472,-5.62762 28.05188,-11.14351 8.2548,-5.83214 9.38504,-10.84587 3.55653,-15.77671 -3.27308,-2.76901 -5.63349,-2.35589 -13.0751,2.28837 -7.07739,4.41696 -15.77635,7.46646 -23.02359,8.07112 -6.05258,0.505 -8.40124,0.0212 -19.24543,-3.96342 -4.48924,-1.64958 -11.42308,-3.76902 -15.40853,-4.70985 -3.98547,-0.9408 -7.14101,-1.83503 -7.01233,-1.98713 0.12866,-0.1521 7.09891,-5.58596 15.48944,-12.07525 29.88773,-23.1154 55.36247,-45.34416 64.98627,-56.70578 1.34302,-1.58553 2.91355,-2.92215 3.49007,-2.97023 0.75806,-0.0633 1.14152,-0.5236 1.38529,-1.66299 0.67354,-3.14824 2.71597,-3.67347 6.86538,-1.76552 8.59747,3.95323 26.52174,7.93826 33.79653,7.51386 3.74182,-0.21829 3.94654,-0.32595 5.85625,-3.07955 1.48903,-2.14706 1.93809,-3.55974 1.81416,-5.707 -0.15049,-2.60697 -0.41371,-3.03207 -3.04497,-4.91751 -2.25979,-1.619273 -4.32103,-2.284632 -9.56899,-3.088829 -8.07085,-1.236792 -17.66905,-3.820571 -21.6722,-5.83406 -10.8175,-5.440932 -13.99921,-13.99068 -8.30723,-22.322843 1.8257,-2.67253 2.89386,-3.466 8.86509,-6.585515 11.83037,-6.180435 20.42969,-11.001004 36.39875,-20.404315 34.69258,-20.428602 45.06604,-24.756905 57.79768,-24.115998 9.61195,0.48388 18.98807,4.948449 27.38908,13.041708 13.20254,12.718872 12.66329,41.793666 -1.07859,58.154747 -4.66326,5.552026 -7.89034,7.870066 -15.21541,10.929175 -6.43618,2.68791 -17.92055,4.07651 -27.798,3.36113 -7.26866,-0.52645 -10.34122,0.32895 -12.06243,3.35815 -1.27286,2.24014 -1.28447,7.33944 -0.0192,8.40986 0.45698,0.38661 0.63304,0.93677 0.39123,1.22261 -0.51155,0.60468 1.82442,2.76728 2.58342,2.39169 0.28121,-0.13911 2.96664,0.16457 5.96768,0.67492 7.26272,1.23503 17.80726,1.11794 25.83731,-0.28692 7.55126,-1.32112 7.45472,-1.65293 2.09419,7.19798 -17.51534,28.91997 -44.83023,62.85029 -71.48868,88.80267 -27.33892,26.6148 -49.4865,43.85526 -88.53325,68.91739 -20.69772,13.28481 -44.12793,28.74446 -61.70317,40.71282 -8.3501,5.68624 -16.29585,10.80065 -17.6572,11.36536 -1.36135,0.56471 -7.90156,1.98444 -14.53382,3.15495 -16.7764,2.96083 -19.2217,4.28149 -18.73007,10.11571 0.34603,4.1064 2.68166,7.04504 6.07287,7.64075 1.36173,0.23921 7.50342,-0.29083 13.64821,-1.17786 15.71488,-2.2685 31.47092,-3.48302 41.32197,-3.18522 21.13435,0.63891 41.80044,5.22782 58.30712,12.94712 5.89529,2.75691 7.19482,3.66306 16.82436,11.73138 l 10.4356,8.74369 2.99617,5.86316 c 4.49737,8.80092 5.84352,13.32769 6.6766,22.45188 0.62284,6.82156 0.47175,9.37783 -0.85331,14.43587 -2.02537,7.73134 -5.25594,14.39571 -10.31288,21.2745 -11.82867,16.09023 -38.12001,34.85836 -49.95392,35.65977 l -3.28597,0.22252 L 204.881,470.02284 C 184.05362,453.10206 84.528817,368.84828 60.341661,347.66148 Z"
     id="path408" /><path
     style="fill:#ffffff;stroke:#000000;stroke-width:0.0680716;stroke-linecap:round;stroke-linejoin:round;stroke-dasharray:none"
     d="m 20.72694,373.40897 c 1.24136,-1.46735 9.277646,-5.58201 14.299585,-7.32151 2.778652,-0.96247 7.404487,-2.16482 10.279636,-2.67186 l 5.22755,-0.92192 46.464871,39.30874 46.464888,39.30875 -0.0919,4.94755 c -0.13029,7.00801 -1.51247,14.47922 -3.86071,20.86808 l -2.02205,5.50139 -1.40365,-0.66115 c -0.77207,-0.36361 -27.1896,-22.47022 -58.705684,-49.12576 -50.198224,-42.45641 -57.2215,-48.55977 -56.652536,-49.23231 z"
     id="path409" /><ellipse
     style="fill:#ffffff;stroke:#000000;stroke-width:16.7456;stroke-linecap:round;stroke-linejoin:round;stroke-dasharray:none"
     id="path410"
     cx="443.80209"
     cy="160.71378"
     rx="23.585592"
     ry="24.066931"
     transform="rotate(40.23083)" /><ellipse
     style="fill:#ffffff;stroke:#000000;stroke-width:16.7456;stroke-linecap:round;stroke-linejoin:round;stroke-dasharray:none"
     id="path411"
     cx="285.92307"
     cy="96.214386"
     rx="13.958819"
     ry="15.884175"
     transform="rotate(40.23083)" /><ellipse
     style="fill:#ffffff;stroke:#000000;stroke-width:16.7456;stroke-linecap:round;stroke-linejoin:round;stroke-dasharray:none"
     id="path412"
     cx="366.30658"
     cy="-95.599075"
     rx="12.996142"
     ry="13.718151"
     transform="rotate(40.23083)" /><path
     style="fill:#ffffff;stroke:#000000;stroke-width:12.3;stroke-linecap:round;stroke-linejoin:round;stroke-dasharray:none"
     d="m 242.18407,373.35238 c -10.01734,6.59966 -20.03469,13.19933 -30.05204,19.79899 0,0 14.49569,5.65685 14.49569,5.65685 0,0 -30.75914,18.73833 -30.75914,18.73833"
     id="path413"
     inkscape:path-effect="#path-effect413"
     inkscape:original-d="m 242.18407,373.35238 c -10.01734,6.59966 -30.05204,19.79899 -30.05204,19.79899 0,0 14.49569,5.65685 14.49569,5.65685 0,0 -30.75914,18.73833 -30.75914,18.73833"
     transform="matrix(1.0393828,0.87930566,-0.87930566,1.0393828,294.1781,-187.4904)" /><path
     style="fill:#ffffff;stroke:#000000;stroke-width:12.3;stroke-linecap:round;stroke-linejoin:round;stroke-dasharray:none"
     d="m 124.80435,413.65747 c 2.82843,-8.01388 5.65685,-16.02775 8.48528,-24.04163 0,0 -20.5061,-25.45585 -20.5061,-25.45585 0,0 18.38478,-39.59798 18.38478,-39.59798"
     id="path414"
     inkscape:path-effect="#path-effect414"
     inkscape:original-d="m 124.80435,413.65747 c 2.82842,-8.01388 8.48528,-24.04163 8.48528,-24.04163 0,0 -20.5061,-25.45585 -20.5061,-25.45585 0,0 18.38478,-39.59798 18.38478,-39.59798"
     transform="matrix(1.0532203,0.89101202,-0.8296604,0.98069964,271.81941,-164.51411)" /><path
     style="fill:#ffffff;stroke:#000000;stroke-width:12.3;stroke-linecap:round;stroke-linejoin:round;stroke-dasharray:none"
     d="m 143.54268,307.59145 c 11.43156,-8.01388 22.86312,-16.02775 34.29468,-24.04163 0,0 -4.94975,-21.56676 -4.94975,-21.56676 0,0 25.45584,-42.4264 25.45584,-42.4264 0,0 -3.53553,-31.1127 -3.53553,-31.1127"
     id="path415"
     inkscape:path-effect="#path-effect415"
     inkscape:original-d="m 143.54268,307.59145 c 11.43156,-8.01388 34.29468,-24.04163 34.29468,-24.04163 0,0 -4.94975,-21.56676 -4.94975,-21.56676 0,0 25.45584,-42.4264 25.45584,-42.4264 0,0 -3.53553,-31.1127 -3.53553,-31.1127"
     transform="matrix(1.0393828,0.87930566,-0.87930566,1.0393828,294.1781,-187.4904)" /></svg>
