<?xml version="1.0" encoding="UTF-8" standalone="no"?>
<!-- Created with Inkscape (http://www.inkscape.org/) -->

<svg
   width="505.08896"
   height="505.75937"
   viewBox="0 0 505.08896 505.75937"
   version="1.1"
   id="svg1"
   xml:space="preserve"
   sodipodi:docname="Template.svg"
   inkscape:version="1.4 (86a8ad7, 2024-10-11)"
   inkscape:export-filename="Medikt.svg"
   inkscape:export-xdpi="96"
   inkscape:export-ydpi="96"
   xmlns:inkscape="http://www.inkscape.org/namespaces/inkscape"
   xmlns:sodipodi="http://sodipodi.sourceforge.net/DTD/sodipodi-0.dtd"
   xmlns="http://www.w3.org/2000/svg"
   xmlns:svg="http://www.w3.org/2000/svg"><sodipodi:namedview
     id="namedview1"
     pagecolor="#ffffff"
     bordercolor="#000000"
     borderopacity="0.25"
     inkscape:showpageshadow="2"
     inkscape:pageopacity="0.0"
     inkscape:pagecheckerboard="true"
     inkscape:deskcolor="#d1d1d1"
     inkscape:zoom="1.6959064"
     inkscape:cx="141.81207"
     inkscape:cy="249.42414"
     inkscape:window-width="2560"
     inkscape:window-height="1494"
     inkscape:window-x="585"
     inkscape:window-y="2149"
     inkscape:window-maximized="1"
     inkscape:current-layer="svg1"><inkscape:page
       x="0"
       y="0"
       width="505.08896"
       height="505.75937"
       id="page2"
       margin="0"
       bleed="0" /></sodipodi:namedview><defs
     id="defs1"><inkscape:path-effect
       effect="bspline"
       id="path-effect29"
       is_visible="true"
       lpeversion="1.3"
       weight="33.333333"
       steps="2"
       helper_size="0"
       apply_no_weight="true"
       apply_with_weight="true"
       only_selected="false"
       uniform="false" /></defs><path
     style="fill:#ffffff;stroke:none;stroke-width:0.382;stroke-linecap:round;stroke-linejoin:round;stroke-dasharray:none"
     d="m 40.44407,493.25088 c 20.986443,-0.13898 41.972884,-0.27797 52.952557,-0.27797 10.979673,10e-6 11.952533,0.13899 12.925413,0.27797 0,0 13.75932,-145.09832 13.75932,-145.09832 0,0 18.34577,68.79662 18.34577,68.79662 0,0 4.16949,76.3017 4.16949,76.3017 0,0 191.37967,0.41695 191.37967,0.41695 0,0 6.67119,-82.13899 6.67119,-82.13899 0,0 19.59661,-56.28814 19.59661,-56.28814 0,0 15.01017,138.01018 15.01017,138.01018 0,0 65.46102,-0.41695 65.46102,-0.41695 0,0 -12.50847,-201.8034 -12.50847,-201.8034 0,0 -18.76272,-52.11865 -18.76272,-52.11865 0,0 -52.53559,-28.35254 -52.53559,-28.35254 0,0 -53.3695,-10.00678 -53.3695,-10.00678 0,0 -22.51525,-26.68475 -22.51525,-26.68475 0,0 20.43051,-26.2678 20.43051,-26.2678 0,0 5.00339,-49.616953 5.00339,-49.616953 0,0 -6.25424,-45.44746 -6.25424,-45.44746 0,0 -32.10509,-27.518646 -32.10509,-27.518646 0,0 -61.70848,-2.918645 -61.70848,-2.918645 0,0 -33.35593,41.694918 -33.35593,41.694918 0,0 -6.25424,50.450856 -6.25424,50.450856 0,0 13.34238,40.02712 13.34238,40.02712 0,0 14.59322,25.4339 14.59322,25.4339 0,0 -15.42712,21.68135 -15.42712,21.68135 0,0 -55.87119,14.17628 -55.87119,14.17628 0,0 -45.864413,15.01017 -45.864413,15.01017 0,0 -19.179662,41.69491 -19.179662,41.69491 0,0 -10.423729,40.02713 -10.423729,40.02713 0,0 -1.667797,59.62373 -1.667797,59.62373 0,0 -2.084746,61.70848 -2.084746,61.70848 z"
     id="path28"
     inkscape:path-effect="#path-effect29"
     inkscape:original-d="m 40.44407,493.25088 c 0,0 41.972884,-0.27797 62.95933,-0.41695 0.9729,0.13899 2.91864,0.41695 2.91864,0.41695 0,0 13.75932,-145.09832 13.75932,-145.09832 0,0 18.34577,68.79662 18.34577,68.79662 0,0 4.16949,76.3017 4.16949,76.3017 0,0 191.37967,0.41695 191.37967,0.41695 0,0 6.67119,-82.13899 6.67119,-82.13899 0,0 19.59661,-56.28814 19.59661,-56.28814 0,0 15.01017,138.01018 15.01017,138.01018 0,0 65.46102,-0.41695 65.46102,-0.41695 0,0 -12.50847,-201.8034 -12.50847,-201.8034 0,0 -18.76272,-52.11865 -18.76272,-52.11865 0,0 -52.53559,-28.35254 -52.53559,-28.35254 0,0 -53.3695,-10.00678 -53.3695,-10.00678 0,0 -22.51525,-26.68475 -22.51525,-26.68475 0,0 20.43051,-26.2678 20.43051,-26.2678 0,0 5.00339,-49.616953 5.00339,-49.616953 0,0 -6.25424,-45.44746 -6.25424,-45.44746 0,0 -32.10509,-27.518646 -32.10509,-27.518646 0,0 -61.70848,-2.918645 -61.70848,-2.918645 0,0 -33.35593,41.694918 -33.35593,41.694918 0,0 -6.25424,50.450856 -6.25424,50.450856 0,0 13.34238,40.02712 13.34238,40.02712 0,0 14.59322,25.4339 14.59322,25.4339 0,0 -15.42712,21.68135 -15.42712,21.68135 0,0 -55.87119,14.17628 -55.87119,14.17628 0,0 -45.864413,15.01017 -45.864413,15.01017 0,0 -19.179662,41.69491 -19.179662,41.69491 0,0 -10.423729,40.02713 -10.423729,40.02713 0,0 -1.667797,59.62373 -1.667797,59.62373 0,0 -2.084746,61.70848 -2.084746,61.70848 z" /><path
     style="fill:#000000;stroke-width:0.580489"
     d="m 100.33151,497.78672 c -2.229869,-0.54288 -4.108276,-2.08525 -4.826256,-3.96281 -0.325699,-0.85172 0.003,-5.85565 0.914916,-13.93176 8.10913,-71.80934 10.75357,-105.7764 10.75911,-138.19795 0.002,-11.13212 0.24832,-19.82908 0.59746,-21.08616 1.23374,-4.44205 6.08466,-6.62702 10.75388,-4.84384 4.86654,1.85856 4.82314,1.7357 11.82018,33.46236 6.94011,31.4685 7.67016,34.49656 11.39013,47.24319 5.01851,17.19618 5.05744,17.48884 6.94796,52.23307 2.33415,42.89711 2.34439,43.27582 1.22811,45.43449 -1.32772,2.56751 -3.83554,3.7246 -8.02904,3.70454 -3.87788,-0.0186 -5.73887,-0.92009 -7.34247,-3.557 -0.89433,-1.47061 -1.14426,-5.18107 -2.04091,-30.29906 -1.34944,-37.80214 -1.76509,-42.04134 -5.48435,-55.93546 -1.62813,-6.08218 -3.29222,-12.80861 -3.69798,-14.9476 -0.84559,-4.45752 -1.63397,-5.08875 -1.63397,-1.30826 0,3.25285 -2.36751,30.56202 -4.6577,53.72665 -2.76663,27.9834 -5.13505,46.93118 -6.09936,48.79596 -1.47749,2.85714 -6.44145,4.48202 -10.59971,3.46964 z m 232.76222,0.0165 c -2.30927,-0.58479 -4.40267,-2.43926 -5.35854,-4.7469 -0.70201,-1.69483 -0.38776,-12.09582 1.19065,-39.4083 0.30442,-5.26795 0.83105,-14.41067 1.17026,-20.31714 0.93465,-16.27443 1.80173,-21.49042 5.98291,-35.99037 4.70338,-16.31085 8.52176,-32.17027 13.48695,-56.01725 2.41051,-11.57723 4.33526,-19.44201 5.10878,-20.87516 3.32012,-6.15134 10.90699,-6.72661 14.58959,-1.10626 0.91224,1.39225 1.04262,3.63788 1.22264,21.05778 0.25801,24.96744 0.98186,40.04627 3.13573,65.32174 1.59697,18.74032 5.27871,53.50415 8.16176,77.06532 1.08853,8.89587 1.1111,9.8371 0.27453,11.45485 -1.28784,2.4904 -3.65566,3.52371 -8.07458,3.52371 -3.18948,0 -4.02578,-0.22577 -5.5325,-1.4936 -0.98415,-0.82811 -2.02225,-2.44466 -2.32983,-3.62806 -1.5508,-5.96653 -9.91597,-91.12756 -9.91597,-100.9489 0,-1.55189 -0.22715,-2.40918 -0.58048,-2.1908 -0.31928,0.19732 -0.58049,0.89752 -0.58049,1.55599 0,0.65845 -1.42138,6.84703 -3.15862,13.75236 -1.73723,6.90534 -3.4398,14.77553 -3.78347,17.48932 -0.85595,6.75894 -2.3005,33.96869 -2.86919,54.04467 -0.50069,17.67592 -0.72379,18.94505 -3.65193,20.77369 -1.49049,0.93083 -6.05857,1.29854 -8.4882,0.68329 z M 33.679149,497.19634 c -3.50587,-1.41653 -4.346951,-4.99364 -3.142,-13.36283 4.396873,-30.53916 9.91518,-114.21357 11.925219,-180.82254 0.427851,-14.17812 1.039228,-19.74975 2.993765,-27.28302 6.814662,-26.26542 25.102016,-49.11848 48.658877,-60.80726 2.87343,-1.42578 6.92236,-3.17488 8.9976,-3.88689 3.48603,-1.19604 24.37899,-6.34603 49.63187,-12.23395 13.54856,-3.15896 23.26819,-6.09262 25.90659,-7.81937 3.37405,-2.2082 4.84291,-5.89989 4.8519,-12.1943 l 0.007,-5.22441 -3.97697,-6.30231 c -4.84451,-7.67718 -10.92888,-19.99621 -12.83542,-25.98803 -3.30632,-10.39091 -3.50472,-12.65409 -3.50472,-39.98066 0,-21.869326 0.13758,-25.92631 1.02721,-30.291239 5.56992,-27.328718 23.30608,-48.164359 48.04564,-56.441893 9.91673,-3.318008 15.27424,-3.997738 28.71277,-3.642896 8.70479,0.229841 12.84441,0.596553 16.54396,1.465555 26.38266,6.197169 46.13474,24.356612 54.17424,49.806118 3.39462,10.745892 3.58448,12.863274 3.58448,39.975095 0,21.67667 -0.13642,25.63091 -1.03673,30.0519 -2.41933,11.87992 -5.92627,19.78656 -14.98752,33.79038 l -4.87337,7.53161 0.002,5.52782 c 0.003,8.81134 1.93745,11.43434 10.50501,14.24104 4.48707,1.46992 29.04849,7.62227 54.50823,13.65366 14.74423,3.4929 18.81044,4.84136 26.41228,8.75898 8.21452,4.23334 15.45887,9.72562 22.80084,17.28635 10.43669,10.74765 17.19482,22.03314 22.1112,36.92376 3.7113,11.2407 4.04893,14.16001 5.03489,43.53275 1.97538,58.84844 7.75544,143.75904 11.59774,170.37373 0.81265,5.62896 0.69479,9.42861 -0.33824,10.90346 -1.40098,1.99997 -3.95155,3.02829 -7.51127,3.02829 -3.82713,0 -6.33074,-1.13217 -7.49889,-3.39113 -0.49398,-0.95526 -1.35541,-6.64753 -2.08099,-13.75095 -0.68094,-6.66652 -1.34514,-12.29418 -1.47602,-12.50591 -0.27595,-0.44653 -2.04352,-0.74815 -13.2395,-2.25915 -15.19412,-2.05059 -17.08721,-2.89764 -18.64389,-8.34202 -2.03195,-7.10662 -7.40406,-34.08404 -7.47476,-37.53646 -0.0708,-3.4569 0.2564,-4.55174 3.90345,-13.06101 2.18941,-5.10832 5.1909,-12.15252 6.67,-15.65381 2.07066,-4.90161 3.10879,-6.64783 4.51306,-7.59132 1.12678,-0.75706 4.98368,-1.8735 10.09194,-2.92128 l 8.26814,-1.69593 -0.35737,-6.09573 c -0.19655,-3.35266 -0.91273,-18.11186 -1.59151,-32.79825 -0.67878,-14.68639 -1.30837,-26.7828 -1.39912,-26.88092 -0.0907,-0.0981 -2.64597,0.75085 -5.6783,1.88659 -8.8428,3.31201 -9.01994,3.27123 -19.80927,-4.56113 -5.02022,-3.64437 -13.48638,-9.6805 -18.81366,-13.41364 -5.3273,-3.73313 -10.17682,-7.441 -10.77673,-8.23972 -1.18751,-1.58104 -14.29224,-42.39673 -14.29224,-44.51429 0,-0.71401 0.41247,-2.68711 0.91659,-4.38468 0.76629,-2.58041 1.82587,-4.02354 6.46216,-8.80146 3.64336,-3.75467 5.27034,-5.81143 4.74318,-5.99614 -2.25517,-0.79026 -35.58092,-9.46716 -46.95131,-12.22455 -17.05269,-4.13537 -18.74676,-4.65536 -23.21958,-7.12709 -7.00651,-3.87189 -11.62978,-9.72884 -13.38808,-16.96054 -1.1694,-4.80966 -1.10408,-20.59767 0.096,-23.21958 0.51148,-1.11745 3.35744,-5.42758 6.32434,-9.57808 6.13764,-8.58618 9.81942,-15.8316 11.58763,-22.80346 2.11714,-8.34769 2.47081,-15.51924 1.8527,-37.567478 C 297.7429,77.895423 297.524,74.902083 296.41873,70.815063 292.00723,54.502399 280.86908,41.024362 265.35924,33.230633 250.9042,25.96695 232.9051,25.171677 216.71253,31.081242 c -18.0232,6.577654 -31.57539,22.648438 -35.94375,42.623684 -0.95318,4.358665 -1.19611,8.273637 -1.44851,23.342846 -0.54841,32.743118 1.54845,41.636508 13.96422,59.226288 7.70021,10.90912 7.35015,9.91919 7.35015,20.78519 0,13.06136 -1.35598,17.72934 -6.87462,23.66593 -3.22839,3.47288 -7.29526,6.17153 -11.8487,7.86238 -1.83717,0.68221 -9.67379,2.54586 -17.41469,4.14145 -13.0356,2.68697 -19.46052,4.27012 -41.47477,10.21973 l -8.24425,2.22809 5.6527,5.82916 c 4.64714,4.79219 5.82973,6.38312 6.64791,8.94337 1.65266,5.17154 2.13063,2.88514 -6.39388,30.58617 -2.55991,8.31859 -5.09218,15.97132 -5.62726,17.00605 -0.53508,1.03475 -2.46197,2.9298 -4.28195,4.21124 -1.81999,1.28143 -8.92533,6.27581 -15.78962,11.09861 -6.864287,4.8228 -14.128763,10.03161 -16.143284,11.57513 -3.326796,2.54898 -3.947697,2.80639 -6.769317,2.80639 -2.263124,0 -4.403903,-0.55529 -7.885073,-2.04529 -2.628192,-1.12491 -4.926305,-1.89753 -5.106907,-1.71693 -0.180613,0.18061 -0.787228,10.43963 -1.348046,22.7978 -0.560808,12.35819 -1.267331,26.91017 -1.570045,32.33775 -0.302718,5.42758 -0.377029,10.02835 -0.165137,10.22392 0.211887,0.19558 3.25868,0.93659 6.770631,1.64669 9.023347,1.82446 10.486975,2.31499 12.179943,4.08205 2.310766,2.41194 14.20081,30.99745 14.21837,34.18321 0.01227,2.22118 -6.446517,33.72503 -8.153244,39.76906 -0.811976,2.87539 -2.713702,4.7662 -5.55268,5.52076 -1.233964,0.32796 -7.598591,1.28576 -14.143607,2.12844 -6.545019,0.84268 -11.937976,1.57207 -11.984338,1.62088 -0.04639,0.0488 -0.641485,5.53509 -1.322497,12.19176 -1.320891,12.91139 -1.917243,15.24256 -4.298476,16.8028 -1.633789,1.0705 -7.785972,1.32834 -10.032891,0.42047 z m 24.735759,-46.74101 c 3.033045,-0.2053 5.952606,-0.49671 6.487895,-0.6476 1.079469,-0.30427 1.055227,-0.21056 4.821743,-18.64051 L 72.242823,418.845 68.188091,408.81836 c -2.230112,-5.51464 -4.272768,-10.25102 -4.539226,-10.52529 -0.584502,-0.60165 -8.245407,-2.77853 -8.584574,-2.43935 -0.131521,0.13152 -0.730158,7.76872 -1.330319,16.97155 -1.218032,18.67745 -2.11849,30.8587 -2.624774,35.50776 -0.306385,2.81337 -0.238753,3.07388 0.726606,2.79883 0.585449,-0.16679 3.546043,-0.47124 6.579104,-0.67653 z M 426.7718,448.85899 c -0.37386,-2.83617 -0.98743,-11.04529 -2.65498,-35.52152 -0.65128,-9.55965 -1.28072,-17.47776 -1.39873,-17.59577 -0.118,-0.118 -2.22974,0.39826 -4.69276,1.14725 l -4.47819,1.36182 -2.87906,7.5266 c -1.58349,4.13964 -3.40567,8.96333 -4.0493,10.71931 l -1.17021,3.1927 3.09716,15.09273 3.09716,15.09273 6.38539,0.64408 c 10.0561,1.01433 9.11947,1.19216 8.74352,-1.65993 z M 82.505224,291.38089 c 6.066119,-4.30436 12.745414,-9.09849 14.84288,-10.65363 l 3.813566,-2.8275 3.84851,-12.69574 c 2.11667,-6.98264 4.27416,-14.20483 4.79443,-16.04931 l 0.94593,-3.35362 -3.48354,-3.90252 c -1.91595,-2.14638 -5.03321,-5.42409 -6.92728,-7.28378 l -3.443746,-3.38126 -5.744142,4.58138 c -11.652207,9.2935 -19.940592,19.80679 -24.925256,31.61608 -3.019073,7.15256 -5.768231,17.2653 -6.379216,23.46585 l -0.404275,4.10275 5.145678,2.09131 c 2.830127,1.15023 5.537513,2.0969 6.01642,2.10372 0.478906,0.006 5.833931,-3.50936 11.900041,-7.81373 z m 330.821096,5.76706 c 5.62749,-2.35571 5.52617,-2.15551 4.39655,-8.68779 -3.82873,-22.14041 -14.31431,-39.86875 -31.53306,-53.31413 l -5.11442,-3.99363 -4.06137,4.00231 c -2.23376,2.20128 -5.34068,5.46634 -6.90427,7.25569 l -2.84289,3.25338 3.13759,10.38813 c 1.72567,5.71348 4.00426,12.99965 5.06355,16.19149 l 1.92599,5.80334 4.64392,3.47384 c 9.30625,6.96146 24.81457,17.71715 25.54584,17.71715 0.41272,0 2.99687,-0.9404 5.74257,-2.08978 z m -216.33837,182.0062 c -4.43981,-1.0814 -5.26062,-1.7097 -19.17696,-14.67952 -3.77323,-3.51659 -7.21422,-7.07797 -7.64663,-7.91418 -0.60309,-1.16624 -0.82113,-5.84038 -0.93611,-20.06648 -0.13278,-16.43138 -0.0386,-18.7578 0.82528,-20.40268 1.90533,-3.62754 7.26308,-6.38057 11.34774,-5.83093 1.16004,0.15608 5.50503,1.94964 9.65553,3.98565 l 7.54636,3.70185 h 39.4733 39.47331 l 4.41646,-1.84788 c 2.42907,-1.01633 6.07081,-2.71426 8.09277,-3.77318 3.08983,-1.61817 4.29077,-1.92506 7.52825,-1.92378 3.24996,9.2e-4 4.23766,0.25676 6.31992,1.63474 4.49658,2.97569 4.67141,3.87359 4.68604,24.06905 0.0101,13.44002 -0.17114,18.01823 -0.76835,19.44641 -1.11503,2.66651 -20.2698,20.43544 -24.42922,22.66178 -2.35785,1.26205 -2.451,1.26501 -43.28747,1.36936 -23.37899,0.0598 -41.86588,-0.1247 -43.12022,-0.43021 z m 83.84613,-21.00736 c 2.91837,-2.63398 6.55631,-5.96454 8.08432,-7.40125 l 2.7782,-2.61221 0.23819,-8.85247 c 0.13101,-4.86885 0.18054,-8.85247 0.11006,-8.85247 -0.0705,0 -2.13439,0.91428 -4.58646,2.03172 l -4.45829,2.03171 -44.52043,-0.0158 -44.52043,-0.0158 -4.04667,-1.72577 c -2.22569,-0.94911 -4.14647,-1.7257 -4.26842,-1.7257 -0.12196,0 -0.0798,3.85032 0.0938,8.55628 l 0.31552,8.5563 7.43584,6.88281 c 4.08972,3.78555 7.95828,7.10223 8.59681,7.37038 0.63854,0.26816 17.42417,0.50412 37.30141,0.52436 l 36.14043,0.0368 z m -87.34346,-53.24362 c -1.53482,-0.59969 -3.10214,-1.33655 -3.48294,-1.63746 -0.3808,-0.3009 -4.34944,-2.44716 -8.81921,-4.76944 -11.51134,-5.98077 -11.91274,-6.25518 -13.07699,-8.94019 -0.67833,-1.56439 -1.58384,-7.42298 -2.65482,-17.17665 -1.91006,-17.39522 -1.75916,-18.8202 2.43755,-23.01689 3.76361,-3.76361 6.21634,-4.26613 20.8227,-4.26613 h 12.25187 l 11.72868,-5.2244 11.72866,-5.22441 h 14.15695 14.15696 l 11.24388,5.0752 11.2439,5.0752 14.55986,0.29433 14.55986,0.29433 2.83687,1.7552 c 3.92992,2.43147 6.18943,5.80827 6.51521,9.73688 0.2708,3.26557 -2.33031,26.81016 -3.42246,30.97914 -0.34831,1.32959 -1.32397,3.06795 -2.16809,3.86301 -0.84415,0.79506 -7.19548,4.34388 -14.11408,7.88625 l -12.57927,6.44069 -42.56725,-0.0271 c -40.23408,-0.0256 -42.72021,-0.0869 -45.35784,-1.11751 z m 92.43162,-20.52882 9.04222,-4.17594 0.66959,-6.66682 c 0.3683,-3.66675 0.74591,-8.10353 0.83913,-9.8595 l 0.16953,-3.1927 -12.15868,-0.30669 -12.15868,-0.30669 -10.70801,-4.77259 -10.70802,-4.7726 h -12.00678 -12.0068 l -10.66335,4.78904 -10.66335,4.78904 -12.04515,0.1777 -12.04517,0.17771 0.0476,2.4345 c 0.0262,1.33898 0.35275,5.83036 0.72561,9.98086 l 0.67792,7.54637 8.12685,4.06343 8.12685,4.06343 14.80249,0.29024 c 8.14138,0.15964 25.62306,0.20629 38.8482,0.10369 L 276.88,388.55028 Z M 173.35187,331.46393 c -10.9525,-1.19813 -13.34766,-1.85587 -15.59872,-4.28359 -1.07647,-1.16096 -4.28935,-6.68218 -7.13973,-12.26939 -19.00599,-37.25485 -18.11963,-35.38393 -18.10878,-38.22407 0.008,-2.05707 1.56542,-6.64201 6.53759,-19.24441 3.59001,-9.09918 7.06154,-17.9147 7.71451,-19.59007 0.65298,-1.67536 2.02526,-3.78191 3.04952,-4.68122 1.0377,-0.91112 6.71476,-3.64388 12.82141,-6.17187 15.1688,-6.27942 15.60587,-6.41414 18.24408,-5.62372 1.85821,0.55673 10.6522,4.63401 42.11198,19.52499 5.44783,2.57864 7.89848,4.62598 8.98798,7.50881 0.44519,1.178 0.63246,11.29835 0.60509,32.70069 -0.0433,33.79645 -0.005,33.38461 -3.39211,36.23495 -3.12461,2.62919 -21.77573,13.68528 -24.19614,14.34307 -3.10234,0.84316 -23.18054,0.70089 -31.63668,-0.22417 z m 34.4878,-20.47129 8.42207,-5.07928 0.0231,-25.01349 0.0231,-25.01349 -9.14272,-4.23408 c -5.02849,-2.32873 -13.5682,-6.32712 -18.97714,-8.88531 -8.56911,-4.0528 -10.02551,-4.57324 -11.31955,-4.04496 -11.0572,4.51403 -14.91095,6.1523 -15.29082,6.50029 -0.42438,0.38877 -8.48196,20.92679 -10.90232,27.78899 l -1.08927,3.08831 2.4509,5.03854 c 2.06555,4.24635 16.60185,32.55519 16.98199,33.07174 0.2011,0.27325 21.03773,1.71212 25.92778,1.79043 l 4.4707,0.0716 z m 65.35642,20.82632 c -4.46895,-1.48279 -24.03835,-13.57788 -25.78103,-15.93427 -1.18856,-1.60712 -1.21512,-2.24564 -1.38769,-33.37815 -0.11919,-21.50107 0.0262,-32.43309 0.45048,-33.88918 1.14858,-3.94123 4.11068,-5.71898 28.16946,-16.90639 17.71694,-8.23842 23.14394,-10.52266 24.96107,-10.50615 3.48972,0.0317 27.2148,10.06676 29.7179,12.56984 1.96131,1.96133 1.93823,1.90693 11.83599,27.89716 5.68473,14.92739 5.71608,15.34951 1.74337,23.47326 -6.95707,14.22651 -20.66187,40.07196 -22.04326,41.57074 -2.2158,2.40408 -2.99737,2.7014 -10.43462,3.96943 -5.09907,0.86936 -10.31507,1.20868 -21.2682,1.38354 -7.98174,0.12743 -15.1653,0.0149 -15.96347,-0.24983 z m 23.71399,-16.58935 c 6.81695,-0.45306 12.46476,-0.906 12.55068,-1.00657 1.00563,-1.17679 18.88185,-37.24732 18.88185,-38.09967 0,-0.63841 -2.37478,-7.38846 -5.27729,-15.00012 -2.9025,-7.61163 -5.4099,-14.27863 -5.57197,-14.81552 -0.24976,-0.82737 -9.92042,-5.24872 -16.55229,-7.56758 -1.32161,-0.46211 -2.51449,-0.0981 -7.54635,2.30228 -3.28715,1.56814 -11.65816,5.55001 -18.60227,8.8486 l -12.62566,5.99743 -0.10736,21.5295 c -0.13597,27.26542 -0.11661,28.41562 0.4822,28.64494 0.27275,0.10445 4.02237,2.38879 8.33251,5.07629 9.1114,5.68126 7.02698,5.35379 26.03595,4.09042 z"
     id="path27" /></svg>
