<?xml version="1.0" encoding="UTF-8" standalone="no"?>
<!-- Created with Inkscape (http://www.inkscape.org/) -->

<svg
   width="512"
   height="512"
   viewBox="0 0 135.46667 135.46667"
   version="1.1"
   id="svg1"
   xml:space="preserve"
   xmlns="http://www.w3.org/2000/svg"
   xmlns:svg="http://www.w3.org/2000/svg"><defs
     id="defs1" /><path
     style="fill:#000000;stroke-width:0.56899"
     d="M 7.229767,134.64145 C 6.8985665,134.44266 6.459578,134.05377 6.2542303,133.77724 5.895354,133.29398 5.8766806,133.15479 5.7726993,130.1883 5.6070132,125.46131 5.3440505,115.59769 5.2424527,110.29869 c -0.089492,-4.66728 -0.084965,-4.7729 0.2345839,-5.43292 0.195025,-0.40287 0.5937945,-0.86554 0.9932413,-1.1524 1.1683927,-0.83907 2.2419349,-1.80955 3.0408028,-2.74887 0.6583713,-0.77412 0.8037973,-1.060268 0.9602583,-1.889513 l 0.184394,-0.977252 -0.599282,-0.627601 c -0.9354889,-0.979689 -1.0954134,-1.29466 -1.0954134,-2.157427 0,-0.431958 0.198043,-1.596424 0.4401031,-2.587703 0.2420602,-0.991268 0.5513549,-2.502703 0.6873243,-3.358748 0.13597,-0.856029 0.474604,-2.538729 0.752536,-3.739328 0.277925,-1.200597 0.693447,-3.08851 0.923384,-4.19536 0.412076,-1.983562 0.41386,-2.015375 0.124635,-2.21608 C 11.045329,78.630023 9.1078359,76.901208 8.7635862,76.426686 8.1281837,75.550822 8.1085329,74.919703 8.6606766,73.121311 8.9258513,72.257613 9.4325461,70.839626 9.7866639,69.970227 10.140782,69.100829 10.886639,67.01834 11.444133,65.342475 c 1.074743,-3.23075 1.528161,-4.151599 3.651515,-7.415864 0.915461,-1.407361 1.580622,-2.183161 3.555222,-4.146606 4.165452,-4.141923 5.327672,-4.702519 13.719948,-6.617781 7.890648,-1.800785 7.860503,-1.797197 8.964001,-1.066934 0.935961,0.619388 1.072471,1.039648 1.162468,3.578814 0.04347,1.226885 0.119869,2.230699 0.169733,2.230699 0.04989,0 0.722005,-0.21033 1.493644,-0.4674 1.032268,-0.343902 1.38143,-0.523529 1.321449,-0.679826 -0.217308,-0.566293 -1.443633,-6.389809 -1.440743,-6.841723 0.0042,-0.607311 0.436441,-1.618256 0.841066,-1.965686 0.156599,-0.134458 0.928296,-0.484648 1.714896,-0.778199 0.86846,-0.324099 1.422799,-0.612418 1.411396,-0.734073 -0.01041,-0.11019 -0.161897,-1.047161 -0.336825,-2.08216 -0.17492,-1.034997 -0.388721,-2.520957 -0.475101,-3.302132 -0.08639,-0.781173 -0.235775,-1.515153 -0.331972,-1.631065 -0.0962,-0.115912 -0.458365,-0.405775 -0.804818,-0.644141 -1.095422,-0.75367 -1.118794,-0.89916 -1.117834,-6.958596 5.06e-4,-3.183749 0.06302,-5.527455 0.156333,-5.863541 0.226687,-0.81624 0.759626,-1.363741 1.633264,-1.677899 0.423504,-0.15229 0.807545,-0.337617 0.853414,-0.411839 0.04587,-0.07422 0.218979,-0.931075 0.384683,-1.904119 0.741373,-4.35354 2.271857,-7.1775403 5.307121,-9.7925368 3.063772,-2.6395535 3.834304,-3.1241108 6.350132,-3.9933466 3.204946,-1.1073297 6.485615,-1.5396917 10.67617,-1.40701853 3.371404,0.10673857 5.466335,0.45138263 8.435436,1.38774003 1.953415,0.616042 3.154044,1.2608439 5.067574,2.7215591 1.630761,1.2448606 2.024969,1.652566 3.765851,3.894804 1.940906,2.4998778 2.232581,3.2127878 3.002572,7.3389608 0.196989,1.055635 0.425918,1.920049 0.508714,1.920923 0.08282,8.57e-4 0.501798,0.16513 0.931116,0.365017 0.844968,0.393414 1.209452,0.897405 1.422585,1.96708 0.06601,0.331199 0.07999,3.041012 0.03104,6.021807 l -0.08892,5.419627 -0.868005,0.827999 -0.868007,0.827998 -0.185336,1.580724 c -0.101925,0.8694 -0.340546,2.460487 -0.530267,3.53575 -0.189709,1.075264 -0.316154,2.001583 -0.280994,2.058486 0.03515,0.0569 0.418819,0.220017 0.852534,0.362473 1.796971,0.59021 2.33261,0.908569 2.684841,1.595743 0.537569,1.048745 0.452964,2.256468 -0.391773,5.59234 -0.40856,1.613434 -0.65988,2.884909 -0.583951,2.954351 0.233057,0.21314 2.646946,1.08354 2.741839,0.988649 0.05007,-0.05006 0.131057,-1.120806 0.179977,-2.379422 0.09723,-2.501665 0.218621,-2.920313 1.049408,-3.619374 0.412668,-0.347236 0.708244,-0.441427 1.920423,-0.611968 0.219118,-0.03084 0.338728,0.0304 0.338728,0.173393 0,0.139169 0.08769,0.187397 0.236736,0.130202 0.130208,-0.04997 1.027834,0.108151 1.994744,0.351369 0.96688,0.243218 3.68873,0.88876 6.04853,1.434538 4.9746,1.15053 7.10423,1.93578 9.10799,3.358335 1.11836,0.793977 5.5134,4.887948 6.04789,5.633602 1.3704,1.911812 2.61759,4.291719 3.5157,6.708745 0.51485,1.385604 1.44144,3.874188 2.05906,5.530185 2.14017,5.738244 2.25946,6.215744 1.78292,7.137265 -0.2241,0.433366 -2.70403,2.766627 -3.4117,3.209915 l -0.39372,0.246642 0.36445,1.628171 c 0.20045,0.895486 0.59422,2.712088 0.87506,4.03689 0.28083,1.324793 0.8215,3.831371 1.20147,5.570169 0.37996,1.738798 0.73102,3.672921 0.7801,4.298044 0.10491,1.335536 -0.0581,1.759178 -1.03942,2.70215 l -0.63428,0.609475 0.26522,1.012612 c 0.30037,1.146829 0.79078,1.729479 3.15629,3.749999 2.10205,1.79548 1.98253,1.22343 1.78544,8.5453 -0.0915,3.3993 -0.24302,9.56783 -0.33672,13.70782 -0.19289,8.52175 -0.17965,8.43343 -1.38438,9.23082 l -0.61049,0.40407 h -8.66744 -8.66745 l -0.48215,-0.36177 c -0.62507,-0.46902 -0.78621,-0.90242 -1.5447,-4.15459 -0.3476,-1.4904 -1.34212,-5.72448 -2.21003,-9.40907 -0.86791,-3.6846 -1.61333,-7.00412 -1.65649,-7.37671 -0.12485,-1.07784 0.19617,-1.77987 1.13353,-2.4788 l 0.81034,-0.60422 -0.0825,-1.95867 -0.0825,-1.95866 -3.25897,-6.43581 c -1.79244,-3.539701 -3.31707,-6.435815 -3.38806,-6.435815 -0.16053,0 -0.18594,0.130362 -0.76272,3.914179 -0.33585,2.203235 -0.55751,3.228066 -0.77477,3.582126 -0.16739,0.27277 -0.76697,0.86506 -1.332372,1.3162 -1.14822,0.91614 -1.096624,0.7762 -1.274844,3.45693 -0.04955,0.7452 -0.555144,4.13247 -1.123569,7.52725 -0.568426,3.3948 -1.055752,6.35631 -1.082948,6.58114 -0.04184,0.34642 0.06096,0.4788 0.674224,0.86776 1.162803,0.73749 1.158241,0.71033 1.157599,6.8857 -5.41e-4,5.10968 -0.01595,5.41208 -0.299719,5.87747 -0.164536,0.26987 -0.51994,0.62527 -0.789796,0.78981 -0.484816,0.29558 -0.81503,0.29916 -27.754707,0.29971 l -27.264059,5.6e-4 -0.497693,-0.33872 c -0.27373,-0.1863 -0.639405,-0.52989 -0.812619,-0.76353 -0.303267,-0.40905 -0.31666,-0.62108 -0.361543,-5.72073 -0.03146,-3.57443 0.0078,-5.48131 0.120709,-5.86631 0.122045,-0.41607 0.368838,-0.71518 0.912237,-1.10557 0.409709,-0.29434 0.744931,-0.5939 0.744931,-0.6657 0,-0.21213 -0.890992,-7.94239 -1.062045,-9.21433 -0.08642,-0.64262 -0.357033,-2.25778 -0.601357,-3.58924 -0.244332,-1.33147 -0.444236,-2.69008 -0.444236,-3.01914 0,-0.81522 -0.14101,-1.02738 -1.275125,-1.91866 -1.583126,-1.24412 -1.660632,-1.42207 -2.329618,-5.348451 -0.320518,-1.881178 -0.618152,-3.455713 -0.661406,-3.498975 -0.0433,-0.04322 -0.209558,0.181958 -0.369542,0.500478 -0.159993,0.31852 -1.400079,2.746984 -2.755746,5.396577 -3.930603,7.682201 -3.508264,6.654511 -3.573544,8.695651 -0.03112,0.97379 -0.01698,1.92224 0.03155,2.10762 0.04844,0.1854 0.328902,0.49163 0.623158,0.68053 0.738073,0.47377 1.125799,1.16417 1.126485,2.00586 3.09e-4,0.38133 -0.580753,3.19276 -1.291253,6.24762 -0.71049,3.05488 -1.71468,7.42439 -2.231527,9.71004 -0.519795,2.29869 -1.072993,4.38394 -1.237967,4.6664 -0.164031,0.28086 -0.524759,0.6633 -0.801629,0.8499 l -0.503394,0.33923 -8.52118,-0.002 -8.5211828,-8.6e-4 z m 71.835397,-2.92311 c 0.295723,-0.0414 1.767272,-1.36896 1.991302,-1.79654 0.170882,-0.32614 0.191192,-0.97154 0.107317,-3.41089 -0.05693,-1.65474 -0.134239,-3.03942 -0.171877,-3.07705 -0.03764,-0.0377 -0.211409,0.0611 -0.386184,0.2192 -0.305607,0.27662 -0.726839,0.28917 -11.016518,0.32823 -10.422433,0.0395 -10.7144,0.0329 -11.304559,-0.25913 -0.333199,-0.16485 -0.622345,-0.28319 -0.642553,-0.26298 -0.02023,0.0203 -0.08514,1.41123 -0.144201,3.09116 l -0.107453,3.05444 1.057707,1.0349 c 0.940196,0.91991 1.130917,1.04013 1.716712,1.08211 0.654359,0.0469 18.563525,0.0437 18.900307,-0.003 z m -61.811981,-0.29781 c 0.0481,-0.0568 0.197118,-0.51333 0.331184,-1.01465 0.134066,-0.50133 1.205096,-4.46444 2.380074,-8.80689 2.906985,-10.74357 2.661932,-9.6288 2.259673,-10.27967 -0.25751,-0.41666 -0.462181,-0.56159 -0.889852,-0.6301 -0.305487,-0.049 -1.029645,-0.19391 -1.609241,-0.32216 l -1.053823,-0.23318 -3.287963,-3.30231 -3.287967,-3.30231 -1.12934,1.02245 c -0.621136,0.56236 -1.4283461,1.2494 -1.7938069,1.52679 l -0.6644672,0.50435 0.083679,3.71092 c 0.1339549,5.93827 0.5090526,18.01607 0.6150144,19.80285 l 0.097234,1.63959 3.9310677,-0.10627 c 2.162089,-0.0585 3.97041,-0.15268 4.0185,-0.20941 z m 37.407771,-0.16854 -0.423239,-0.44177 0.110179,-2.64471 0.110181,-2.6447 -1.173349,-1.46752 c -0.645348,-0.80714 -1.659106,-1.9756 -2.252788,-2.5966 -1.18843,-1.2431 -4.536179,-5.012 -5.287257,-5.95238 -0.26196,-0.32799 -0.510047,-0.56247 -0.551312,-0.52107 -0.07802,0.0783 0.117613,4.04316 0.280256,5.6799 l 0.09318,0.93773 2.716402,2.67536 c 4.997946,4.92243 4.705164,4.52879 4.573687,6.14916 l -0.102912,1.26836 h 1.165109 1.165109 z m 31.228673,-0.99647 v -1.43825 l 3.527349,-3.57058 3.527345,-3.57059 0.159041,-1.27644 c 0.306894,-2.46311 0.627026,-5.75528 0.565622,-5.81669 -0.05555,-0.0555 -1.640999,1.68476 -4.479622,4.91738 -0.795361,0.90576 -4.07146,4.86889 -4.697148,5.68218 -0.08248,0.10718 -0.133466,1.34431 -0.118625,2.87726 l 0.02607,2.68923 -0.397466,0.47237 -0.397475,0.47236 h 1.142475 1.142465 z m 43.454183,-0.51885 c 0.0296,-1.035 0.15311,-5.03197 0.2744,-8.88218 0.33679,-10.69095 0.4063,-14.36251 0.27513,-14.52968 -0.0658,-0.084 -0.49236,-0.45166 -0.94776,-0.81715 -0.4554,-0.36549 -1.14264,-0.9647 -1.52723,-1.33155 -0.82546,-0.78744 -0.85164,-0.78045 -1.97132,0.52518 -1.16837,1.36242 -5.19916,5.21211 -5.66161,5.40724 -0.21969,0.0927 -0.87367,0.25159 -1.45328,0.35307 -0.57959,0.10151 -1.1893,0.21058 -1.3549,0.24241 -0.16561,0.0319 -0.4595,0.30454 -0.65311,0.60602 -0.42482,0.66146 -0.69301,-0.53598 2.3063,10.2972 1.27231,4.5954 2.39283,8.66011 2.49004,9.03271 0.0971,0.3726 0.2471,0.76326 0.33308,0.86813 0.12034,0.14679 1.04046,0.18145 3.99635,0.15055 l 3.84001,-0.0401 z m -106.106306,1.57841 c 0.196636,-0.18662 4.182523,-17.65844 4.053368,-17.76764 -0.240542,-0.20341 -1.318131,-0.64247 -1.368998,-0.5578 -0.03695,0.0615 -0.962299,3.29581 -2.056375,7.18741 -1.094077,3.89159 -2.250012,7.9847 -2.568737,9.0958 -0.318727,1.1111 -0.540287,2.08363 -0.492351,2.1612 0.07622,0.12327 2.292013,0.0149 2.433093,-0.11897 z m 26.370734,-0.38395 c 0,-0.33663 -0.06138,-0.72618 -0.136338,-0.86564 -0.07502,-0.13946 -1.429889,-1.49582 -3.010898,-3.01416 l -2.874568,-2.76064 v 3.62627 3.62625 h 3.010898 3.010906 z m 45.464656,-2.92573 c 0,-1.9458 -0.04682,-3.53782 -0.1039,-3.53782 -0.05719,0 -1.37777,1.26749 -2.934729,2.81662 -2.217915,2.20677 -2.850908,2.92363 -2.923553,3.31087 -0.180227,0.96069 -0.220232,0.94814 3.021824,0.94814 h 2.940354 z m 22.732346,3.30006 c 0,-0.0479 -0.60592,-2.26663 -1.34646,-4.93036 -0.74057,-2.66373 -1.69326,-6.13031 -2.1171,-7.70351 -0.42385,-1.57319 -0.97376,-3.52488 -1.22202,-4.33708 l -0.45139,-1.47672 -0.70587,0.40731 c -0.38823,0.22401 -0.72826,0.4254 -0.75561,0.44752 -0.0274,0.0221 0.12023,0.67275 0.32797,1.4458 0.20772,0.77305 0.58365,2.35397 0.83538,3.51317 0.42863,1.97371 1.84379,8.19482 2.57699,11.32854 l 0.32581,1.39253 h 1.26616 c 0.69637,0 1.26614,-0.0393 1.26614,-0.0872 z M 79.657056,120.4287 c 0.322918,-0.23418 0.796261,-0.66432 1.051877,-0.95584 l 0.464744,-0.53006 0.100735,-2.67009 c 0.05539,-1.46856 0.06079,-2.73479 0.01191,-2.81383 -0.0517,-0.0837 -0.457054,-0.10204 -0.97053,-0.044 -1.607184,0.18184 -1.861093,0.0635 -3.496373,-1.62995 l -1.467673,-1.51984 -6.124175,-0.0254 -6.124173,-0.0254 -1.412065,1.47117 c -1.536699,1.60103 -1.691034,1.67939 -3.307409,1.67939 h -0.94733 l 0.0078,1.90064 c 0.0042,1.04534 0.05967,2.36868 0.123195,2.94074 0.106836,0.96237 0.159692,1.07853 0.707352,1.5543 1.373638,1.19333 0.348357,1.09275 11.145107,1.09337 l 9.649946,5.8e-4 z m -25.212819,-0.89578 c -0.440866,-1.95904 -0.575576,-6.39965 -0.243054,-8.01223 0.0637,-0.30881 -0.15563,-0.64425 -1.222004,-1.86905 -1.158611,-1.33073 -2.16611,-2.9644 -2.166462,-3.51293 -5.9e-5,-0.10353 -0.0673,-0.18818 -0.149335,-0.18818 -0.08205,0 -1.115185,0.47059 -2.295813,1.04577 -1.180627,0.57518 -2.255875,1.07759 -2.389435,1.11646 -0.198455,0.0578 -0.02323,0.50628 0.958774,2.4544 1.378851,2.73532 1.09099,2.3169 3.725144,5.41462 1.1178,1.31451 2.43474,2.89316 2.926542,3.50812 0.491794,0.61495 0.921497,1.03613 0.954883,0.93594 0.03335,-0.10013 -0.01123,-0.50198 -0.09924,-0.89292 z m 30.884415,-0.29678 c 0.538512,-0.7245 1.738292,-2.19796 2.666176,-3.27435 0.927885,-1.0764 1.976787,-2.36357 2.330887,-2.86036 0.599205,-0.84067 2.611832,-4.85089 2.4751,-4.93171 -0.03369,-0.02 -1.138934,-0.57824 -2.455954,-1.24065 -1.788166,-0.89937 -2.412791,-1.15092 -2.466523,-0.99332 -0.321829,0.94396 -1.402239,2.71939 -2.246958,3.69239 -1.486134,1.71181 -1.454676,1.6586 -1.2233,2.06984 0.134771,0.23953 0.212774,1.1792 0.247719,2.98418 0.04373,2.25817 0.0069,2.82354 -0.260845,3.95763 -0.339791,1.44158 -0.383859,1.91362 -0.178641,1.91362 0.07331,0 0.573828,-0.59277 1.112339,-1.31727 z m -4.156965,-9.55962 c 0.601134,-0.63987 2.752985,-3.46744 3.280292,-4.31039 0.328851,-0.52567 0.371513,-0.68582 0.210062,-0.78853 -0.175794,-0.11183 -1.963617,-0.80505 -2.498407,-0.96875 -0.103507,-0.0318 -0.188183,-0.18454 -0.188183,-0.3397 0,-0.31754 -0.31582,-0.49957 -2.408719,-1.38823 -0.786598,-0.33401 -1.687305,-0.7774 -2.001572,-0.98531 l -0.571383,-0.37805 -7.607563,0.003 -7.607563,0.003 -2.359214,1.19084 c -1.297572,0.65497 -3.138285,1.54462 -4.090485,1.97699 -0.952198,0.43239 -1.760095,0.81315 -1.795341,0.84614 -0.03524,0.033 0.402234,0.75378 0.972167,1.60173 1.067644,1.58846 2.678326,3.33293 3.437498,3.72303 l 0.431418,0.22168 1.318612,-1.38946 c 0.744262,-0.78426 1.554233,-1.48791 1.859558,-1.61549 0.455347,-0.19025 1.674367,-0.22602 7.702679,-0.22602 8.200037,0 7.785552,-0.0638 8.983721,1.38254 1.747732,2.10971 2.127974,2.29647 2.932423,1.44019 z m -30.208545,-7.58743 c 1.2834,-0.62157 3.281886,-1.5311 4.441087,-2.02119 1.159202,-0.490085 2.886701,-1.33206 3.838899,-1.871065 l 1.731271,-0.980012 8.313286,0.0078 8.313296,0.0078 0.794693,0.444526 c 1.647231,0.921408 5.108812,2.572191 7.86376,3.750121 1.569589,0.6711 3.553585,1.62923 4.408876,2.12914 0.855286,0.49992 1.648873,0.88751 1.763511,0.86131 0.114655,-0.0261 1.523008,-1.13783 3.129677,-2.47031 l 2.921227,-2.422685 0.252022,-1.867857 c 0.138611,-1.027317 0.355987,-2.748547 0.483057,-3.824944 0.127071,-1.076398 0.435217,-3.403949 0.684762,-5.172327 0.249554,-1.768377 0.433564,-3.269159 0.408924,-3.335059 -0.0246,-0.0659 -1.099747,0.771244 -2.389149,1.86033 -3.938285,3.32646 -7.166888,5.95156 -7.693397,6.255308 -0.876862,0.50588 -5.844029,1.998649 -6.934093,2.08388 l -1.014058,0.07931 -2.373232,-1.585029 C 78.602282,93.146359 77.20246,92.256636 76.79684,92.040975 l -0.73749,-0.392134 h -6.976617 -6.97662 l -1.889891,1.317274 c -1.039437,0.724492 -2.310259,1.612233 -2.824035,1.97274 l -0.934143,0.655473 -1.279636,-0.06704 c -1.010268,-0.0529 -1.802509,-0.234919 -3.763631,-0.864629 -1.366195,-0.438679 -2.687225,-0.899942 -2.93563,-1.025031 -0.248396,-0.125091 -1.027467,-0.74855 -1.731271,-1.385462 -0.703794,-0.636911 -2.261936,-1.939224 -3.462532,-2.894021 -1.200604,-0.954806 -2.758746,-2.218683 -3.462541,-2.808628 -0.703804,-0.589944 -1.318715,-1.072715 -1.36647,-1.072829 -0.09987,-2.39e-4 -0.09157,0.0817 0.305033,3.010699 0.162558,1.200595 0.504535,4.012027 0.759935,6.247626 0.255401,2.23559 0.494041,4.206321 0.530307,4.379399 0.03626,0.173067 0.794993,0.918268 1.686045,1.655988 0.891051,0.73774 2.257042,1.89892 3.035547,2.58042 l 1.415451,1.23909 1.220529,-0.68529 c 0.671275,-0.37692 2.270562,-1.19386 3.553962,-1.81543 z m -31.552354,-6.95691 2.696681,-0.26358 0.46477,-0.54267 c 0.436048,-0.509138 1.355976,-1.932143 3.677183,-5.688101 0.83678,-1.353995 6.699946,-11.485923 8.493984,-14.678155 0.86408,-1.537495 1.749962,-3.600105 1.998066,-4.652086 0.26983,-1.144141 0.282889,-2.50713 0.02735,-2.856585 -0.175083,-0.239448 -0.345793,-0.108982 -1.784376,1.363769 -0.874916,0.895701 -2.297939,2.391346 -3.162266,3.323656 -0.86432,0.93231 -1.704178,1.786205 -1.86634,1.897543 -0.162171,0.111338 -0.950305,0.419429 -1.751428,0.684648 -0.801113,0.265219 -1.529849,0.570504 -1.619401,0.678411 -0.08957,0.107907 -1.112192,2.998131 -2.272525,6.422723 -1.160343,3.424585 -2.159114,6.273821 -2.219498,6.331625 -0.467401,0.447399 -6.243416,3.501646 -7.358428,3.891001 l -1.377362,0.480948 -0.391543,1.562575 c -0.463861,1.851156 -0.486598,2.273906 -0.12809,2.381325 0.399627,0.119741 3.555274,-0.04201 6.57322,-0.337047 z M 125.92874,94.923094 c -0.006,-0.773301 -0.51001,-3.254613 -0.69199,-3.41464 -0.0715,-0.06293 -0.77365,-0.332753 -1.56024,-0.599651 -1.36361,-0.462677 -6.39054,-3.087906 -6.75592,-3.528163 -0.29803,-0.359116 -1.95978,-4.725033 -3.36061,-8.829338 -0.74888,-2.194195 -1.42622,-4.070311 -1.5052,-4.169146 -0.079,-0.09883 -0.59574,-0.328482 -1.14838,-0.51033 -1.52488,-0.501771 -2.633,-1.109178 -3.18543,-1.746083 -0.85297,-0.983378 -5.48355,-5.840826 -5.62432,-5.899858 -0.4708,-0.197444 -0.51682,1.276033 -0.10255,3.283823 0.21902,1.061499 0.50922,1.842754 1.14638,3.086176 2.67378,5.217866 11.85399,20.756944 12.93017,21.886524 0.25415,0.266744 0.59752,0.383936 1.44787,0.494169 1.92552,0.249596 5.574,0.543201 7.02362,0.565192 l 1.39254,0.02117 z M 56.945379,91.17132 c 1.878943,-1.356421 4.400825,-2.83386 4.846527,-2.839321 0.212773,-0.0025 3.688415,-0.0061 7.723659,-0.0078 8.496918,-0.0042 7.4638,-0.183493 10.57807,1.839573 1.076397,0.699242 2.206483,1.423734 2.511294,1.609988 l 0.554201,0.338634 1.916805,-0.388113 c 1.054243,-0.213458 2.27905,-0.537894 2.721794,-0.720976 0.584551,-0.241708 2.209921,-1.50748 5.935634,-4.622437 4.949308,-4.137953 5.12782,-4.305567 5.050529,-4.742169 -0.04407,-0.248932 -0.420342,-2.417218 -0.836172,-4.818413 -0.903236,-5.215734 -1.334585,-6.887471 -1.927462,-7.470135 -0.231257,-0.227265 -1.366864,-1.264198 -2.523579,-2.304297 -1.65524,-1.488358 -2.141221,-1.851196 -2.282026,-1.703773 -0.09839,0.103029 -0.590635,0.860017 -1.093857,1.682208 -0.945597,1.544967 -1.965965,2.575208 -2.706635,2.732836 -0.217498,0.04629 -1.479369,0.462518 -2.80417,0.924959 -1.324794,0.46244 -2.747447,0.870269 -3.161443,0.906285 -0.685893,0.05967 -0.791975,0.02418 -1.194748,-0.399687 -0.361706,-0.380651 -0.453667,-0.626253 -0.506138,-1.351721 -0.07613,-1.052858 0.201807,-1.447264 1.127943,-1.600452 1.031085,-0.170546 5.084308,-1.298453 5.295323,-1.47355 0.302393,-0.250927 1.508588,-2.08846 2.393406,-3.646156 1.02583,-1.805971 1.627435,-2.329581 2.676572,-2.329581 0.367295,0 2.390302,1.639164 4.626389,3.748574 l 1.05168,0.992101 0.23292,-0.375613 c 0.128099,-0.206588 0.661176,-0.795625 1.184588,-1.308972 0.523423,-0.513348 0.951677,-0.987769 0.951677,-1.054271 0,-0.0665 -0.816658,-0.996746 -1.814787,-2.067208 L 95.658595,58.775535 95.760052,57.259746 95.86151,55.743959 94.300479,55.24684 C 93.44191,54.97346 92.173316,54.537565 91.481388,54.278219 l -1.258068,-0.471537 -0.27146,0.35989 c -0.149309,0.197938 -0.949677,1.446778 -1.778604,2.775198 -0.828928,1.32842 -2.139129,3.361684 -2.911564,4.518367 -1.33395,1.997532 -1.442193,2.117157 -2.157151,2.384037 -1.452274,0.542109 -2.394631,0.582038 -13.850156,0.586859 -14.579903,0.0062 -13.685319,0.181792 -15.87359,-3.116867 -3.215414,-4.847025 -4.895792,-7.229556 -5.128224,-7.271069 -0.280513,-0.05011 -2.611922,0.665898 -4.411499,1.354824 -1.111206,0.425401 -1.171369,0.471896 -1.099376,0.849686 0.04192,0.219812 0.118737,0.810004 0.170771,1.311536 l 0.09461,0.911881 -0.801775,0.995644 c -0.440978,0.547604 -1.225184,1.476969 -1.742683,2.065254 -0.517505,0.588285 -0.940907,1.147127 -0.940907,1.241872 0,0.09475 0.423402,0.619588 0.940907,1.166319 0.517499,0.546731 1.014453,1.125486 1.104348,1.286123 0.151385,0.270521 0.24579,0.218775 1.279636,-0.7014 4.265851,-3.796831 4.190351,-3.737579 4.762445,-3.737579 0.448934,0 0.658877,0.118486 1.187521,0.670202 0.698324,0.728815 1.66966,2.12895 2.896714,4.175486 0.898879,1.49919 0.647465,1.371098 4.387518,2.235349 1.107298,0.255875 2.127022,0.526107 2.266062,0.600516 0.745891,0.399191 0.742727,1.875452 -0.0061,2.62333 -0.400724,0.400471 -0.55992,0.457228 -1.246567,0.444451 -0.972999,-0.0181 -6.640446,-1.889436 -7.149669,-2.360744 -0.187378,-0.173427 -0.824418,-1.064818 -1.415631,-1.980869 -0.591214,-0.916051 -1.127009,-1.72462 -1.19065,-1.79682 -0.117828,-0.133665 -2.134276,1.553339 -4.241561,3.548578 -0.905311,0.85717 -1.16673,1.197564 -1.16673,1.519201 0,0.227982 -0.434959,2.631673 -0.966586,5.341536 -0.531618,2.709862 -1.011426,5.234795 -1.066238,5.61096 l -0.09965,0.683936 4.415872,3.674854 c 2.428729,2.021163 4.767452,3.967675 5.197164,4.325582 0.932908,0.777006 1.406346,0.98652 3.497839,1.547864 2.373361,0.636996 2.513634,0.620355 4.036548,-0.479063 z m 8.16852,-7.743633 c -0.207268,-0.128781 -0.597112,-0.550384 -0.866316,-0.936905 -0.269205,-0.386514 -1.137511,-1.617319 -1.929571,-2.735117 -1.840928,-2.598004 -2.318996,-3.424559 -2.320744,-4.012425 -0.0017,-0.573723 2.440509,-6.324647 2.86716,-6.751556 0.289327,-0.289513 0.530882,-0.302691 6.281055,-0.342675 5.611495,-0.03902 6.008044,-0.02431 6.432414,0.238726 0.248731,0.154171 0.5681,0.51161 0.709693,0.794311 0.53167,1.061488 2.375873,5.704875 2.375873,5.982025 0,0.350085 -3.187961,5.276283 -4.320482,6.676225 -0.490661,0.606515 -0.997022,1.068358 -1.279199,1.166724 -0.285219,0.09943 -1.850332,0.161258 -4.020043,0.158811 -2.947486,-0.0034 -3.617201,-0.04393 -3.92984,-0.238144 z m 6.700367,-3.296501 c 0.264086,-0.0539 1.509608,-1.889185 2.927956,-4.314355 l 0.322584,-0.551568 -0.688979,-1.480792 c -0.378939,-0.814436 -0.801603,-1.565475 -0.939262,-1.668975 -0.185713,-0.139632 -1.290644,-0.188182 -4.282851,-0.188182 h -4.03257 l -0.756103,1.60293 c -0.415856,0.881612 -0.756093,1.709143 -0.756093,1.838959 0,0.21013 2.43239,4.053621 2.992139,4.727965 0.199937,0.240857 0.444509,0.2581 2.566233,0.180916 1.28989,-0.04692 2.481012,-0.113027 2.646946,-0.146898 z m 52.637244,6.071415 c -0.16871,-0.68922 -0.58228,-2.472542 -0.91905,-3.962942 -0.33676,-1.490395 -0.66398,-2.913048 -0.72717,-3.161447 -0.0901,-0.354265 -0.36381,-0.601385 -1.26949,-1.146212 -1.07316,-0.645576 -5.21482,-2.46297 -5.33622,-2.341575 -0.0696,0.06952 1.8695,5.777758 2.6162,7.701791 0.3136,0.808057 0.70568,1.596186 0.87127,1.751412 0.33739,0.316246 4.90727,2.576028 5.00725,2.476051 0.0352,-0.03516 -0.0741,-0.627867 -0.24279,-1.317078 z M 16.475938,86.359542 c 1.290199,-0.590656 2.426783,-1.149553 2.52574,-1.241997 0.09896,-0.09244 0.493868,-1.048761 0.877557,-2.125158 1.41318,-3.964474 2.504846,-7.176544 2.455634,-7.225323 -0.02778,-0.02757 -1.202251,0.443358 -2.609848,1.046516 -3.829623,1.640996 -3.989452,1.715715 -3.989452,1.864982 0,0.07588 -0.406469,2.017098 -0.90327,4.313825 -0.955131,4.415611 -0.959735,4.441083 -0.802717,4.441083 0.0553,0 1.156167,-0.483263 2.446356,-1.073928 z M 126.33538,75.365818 c 0.7502,-0.740876 0.77723,-0.794779 0.58504,-1.166725 -0.70858,-1.371328 -2.15746,-5.090345 -2.94849,-7.568193 -1.19795,-3.752524 -1.78374,-4.93781 -3.80718,-7.703401 -1.08626,-1.484657 -5.21516,-5.289727 -6.59292,-6.075845 -1.18608,-0.676748 -1.1414,-0.663722 -7.88548,-2.298505 -2.4012,-0.582056 -4.72147,-1.15456 -5.15615,-1.272231 -0.771818,-0.208937 -0.791897,-0.206278 -0.857572,0.113516 -0.03695,0.180105 -0.104356,1.91948 -0.149722,3.865276 -0.04535,1.945797 -0.123357,3.750728 -0.173325,4.010958 -0.104792,0.545698 -0.212103,0.412827 5.271349,6.527206 1.81926,2.028597 3.77571,4.213322 4.34768,4.854946 1.19532,1.340903 2.01867,1.806232 4.32028,2.44167 4.01143,1.107499 5.78651,1.782879 8.95743,3.408128 1.7388,0.891215 3.1932,1.624794 3.23199,1.630176 0.0389,0.0054 0.42448,-0.339757 0.85707,-0.766976 z M 14.112026,75.475514 c 1.349965,-0.737016 6.384924,-2.714504 10.43044,-4.096567 l 3.462541,-1.182903 1.135204,-1.129088 c 1.187581,-1.181173 5.305484,-5.713267 8.342411,-9.181518 l 1.778092,-2.03062 -0.09673,-2.33519 c -0.26629,-6.428754 -0.271872,-6.496877 -0.524254,-6.400026 -0.130217,0.04997 -2.373061,0.594824 -4.984108,1.210794 -8.589162,2.026269 -8.810045,2.122787 -12.02575,5.254928 -1.651124,1.608218 -3.229441,3.576427 -4.812139,6.000883 -0.908336,1.391429 -1.862876,3.778108 -3.398659,8.497818 -0.62658,1.925585 -1.242383,3.700535 -1.368459,3.944335 -0.126076,0.2438 -0.229226,0.575108 -0.229226,0.736243 0,0.285347 0.924421,1.227432 1.20442,1.227432 0.07708,0 0.56587,-0.232434 1.086215,-0.516521 z M 75.151718,53.222075 c 0.795961,-0.827185 1.225732,-2.197486 3.576571,-11.4038 0.925561,-3.624685 1.008338,-3.864103 1.483508,-4.290537 0.588676,-0.528297 4.229772,-3.172913 7.074916,-5.138688 1.094599,-0.756282 2.150977,-1.504522 2.347493,-1.662756 0.353321,-0.284482 0.358826,-0.332772 0.492249,-4.318957 0.152491,-4.555875 0.152054,-4.558468 -0.89437,-5.260727 l -0.646995,-0.434201 -7.331902,0.165497 c -9.463185,0.213604 -13.23064,0.211982 -23.156778,-0.01 -7.684571,-0.17183 -8.186662,-0.167052 -8.844528,0.08419 l -0.697458,0.266364 v 4.550402 c 0,3.413823 0.04699,4.609478 0.188183,4.786911 0.103496,0.130077 1.509213,1.136993 3.123805,2.237588 5.314134,3.622398 6.936356,4.819945 7.09803,5.239881 0.392013,1.018207 1.098929,3.642684 3.533291,13.117514 0.319266,1.242622 0.449148,1.512457 0.996328,2.069997 l 0.629203,0.641111 h 5.20639 5.206397 z M 61.606681,35.341613 C 61.393909,35.174244 59.185745,33.68444 56.699658,32.030937 54.213579,30.377436 52.11642,28.905424 52.039299,28.7598 c -0.07708,-0.145626 -0.148436,-0.908354 -0.158475,-1.694954 -0.02109,-1.648948 0.213466,-2.30119 0.988157,-2.748234 0.444219,-0.256341 0.697956,-0.264444 3.838899,-0.122597 12.491917,0.564146 14.5346,0.570828 22.934121,0.07503 4.225477,-0.249416 4.57096,-0.250448 5.364076,-0.01603 1.455558,0.43021 1.533853,0.550296 1.649906,2.530454 0.08658,1.477313 0.06498,1.763063 -0.157686,2.087918 -0.141903,0.207 -1.247588,1.019944 -2.457092,1.806542 -1.209502,0.786599 -3.376753,2.226188 -4.816099,3.199086 l -2.616998,1.768906 H 69.30083 c -7.105088,0 -7.317988,-0.0084 -7.694149,-0.304309 z m 25.856152,16.276951 c 0.45509,-0.89808 0.954205,-1.312474 1.740874,-1.445382 0.528745,-0.08933 0.611635,-0.16236 0.740412,-0.652302 0.407403,-1.55003 1.214599,-4.843097 1.214599,-4.955115 0,-0.0705 -0.404079,-0.273572 -0.897948,-0.451268 l -0.897945,-0.323084 -0.602711,1.204193 c -0.331501,0.662306 -1.205749,2.072994 -1.942783,3.134864 l -1.340063,1.930671 0.739572,1.147649 c 0.406778,0.631208 0.769392,1.14765 0.80583,1.14765 0.03644,0 0.234507,-0.332043 0.440163,-0.737876 z M 52.3803,51.074068 53.097289,49.942242 52.801764,49.441365 c -0.16254,-0.275482 -0.756291,-1.10413 -1.319461,-1.841441 -0.563161,-0.737311 -1.288595,-1.904548 -1.612079,-2.593859 -0.344413,-0.733922 -0.660936,-1.224266 -0.763794,-1.183244 -1.310372,0.522598 -1.455275,0.608998 -1.455275,0.867712 0,0.357719 1.007405,4.625334 1.192098,5.050019 0.09095,0.209146 0.337476,0.35697 0.712694,0.427362 0.85596,0.160577 1.038374,0.302208 1.557234,1.209094 0.260837,0.455887 0.491323,0.828886 0.512191,0.828886 0.02092,0 0.360591,-0.509322 0.754928,-1.131826 z m 6.350673,-0.93817 c -0.472743,-1.541214 -1.255004,-4.45352 -1.890441,-7.037987 -0.427508,-1.738797 -0.810151,-3.275498 -0.85031,-3.41489 -0.04021,-0.139392 -0.425545,-0.48499 -0.856414,-0.767996 -0.43087,-0.283006 -1.519142,-0.998838 -2.41839,-1.590739 -0.899256,-0.5919 -1.696067,-1.076183 -1.770692,-1.076183 -0.144037,0 -0.0927,0.500476 0.262551,2.559268 0.728779,4.223458 1.626021,5.765827 5.889539,10.124164 1.412819,1.44424 1.793883,1.72508 1.634157,1.204363 z m 23.346144,-1.736982 c 2.754717,-2.830739 4.034988,-4.712834 4.846167,-7.124237 0.318614,-0.947147 1.145458,-5.005273 1.0411,-5.10964 -0.0541,-0.05411 -4.82806,3.089808 -5.117755,3.370332 -0.05907,0.05718 -0.690154,2.395558 -1.402446,5.196391 -0.712299,2.800833 -1.331755,5.187963 -1.376561,5.304733 -0.19914,0.518964 0.332367,0.08583 2.009495,-1.637579 z M 78.689724,17.510301 c 3.007752,-0.121408 6.163021,-0.263418 7.011719,-0.315577 1.521953,-0.09354 1.543096,-0.100013 1.543096,-0.472616 0,-1.225107 -1.22702,-4.375116 -2.23108,-5.72762 C 83.933366,9.5395637 81.922474,7.644934 80.695824,6.9264837 78.617971,5.7094876 75.280005,4.5494214 73.24383,4.336645 71.07123,4.1096126 66.177925,4.1474519 64.512217,4.404167 c -2.809528,0.432994 -5.458712,1.5145286 -7.527262,3.073022 -1.61634,1.2177851 -3.718216,3.497602 -4.21656,4.573525 -0.49146,1.061058 -1.504163,4.316215 -1.504163,4.834863 v 0.341407 l 5.457271,0.1864 c 3.001494,0.10252 5.62662,0.205783 5.833622,0.229475 1.217486,0.139338 11.489416,0.05495 16.134599,-0.132557 z"
     id="path178" /><path
     style="fill:#ffffff;stroke:none;stroke-width:0.907838;stroke-dasharray:none"
     d="m 122.53226,131.591 -0.98475,-0.042 -0.15946,-0.38165 c -0.1746,-0.41787 -4.73142,-16.8514 -5.08813,-18.34961 -0.12144,-0.51005 -0.19277,-1.01567 -0.15851,-1.1236 0.0343,-0.10793 0.22604,-0.35496 0.42619,-0.54895 0.31893,-0.30913 0.53386,-0.38654 1.73928,-0.62645 1.0162,-0.20226 1.49697,-0.35569 1.84093,-0.58753 0.25605,-0.17258 1.78916,-1.634 3.40691,-3.24758 1.61776,-1.61359 3.01463,-2.9338 3.10416,-2.9338 0.0895,0 0.69686,0.46487 1.34961,1.03304 0.65275,0.56816 1.34149,1.16751 1.53052,1.33189 l 0.34371,0.29886 -0.031,2.88399 c -0.0265,2.46161 -0.16174,7.39972 -0.54317,19.83129 l -0.0745,2.42901 -2.46761,0.001 c -1.35719,7.9e-4 -2.64351,0.0176 -2.85849,0.0375 -0.21498,0.02 -0.83402,0.0174 -1.37563,-0.006 z"
     id="path179" /><path
     style="fill:#ffffff;stroke:none;stroke-width:0.907838;stroke-dasharray:none"
     d="m 115.30861,131.29849 c 0,-0.0198 -0.27911,-1.23852 -0.62024,-2.70822 -0.34112,-1.46969 -1.09752,-4.78289 -1.68089,-7.36268 -0.58337,-2.57978 -1.20887,-5.27808 -1.39,-5.99621 -0.18112,-0.71814 -0.32932,-1.34715 -0.32932,-1.39782 0,-0.15575 1.24274,-0.84512 1.33922,-0.74289 0.16921,0.1793 5.02648,17.62425 5.02648,18.05268 0,0.16834 -0.14019,0.1912 -1.17263,0.1912 -0.64494,0 -1.17262,-0.0162 -1.17262,-0.0361 z"
     id="path180" /><path
     style="fill:#ffffff;stroke:none;stroke-width:0.907838;stroke-dasharray:none"
     d="m 122.12103,95.36177 c -2.6298,-0.207954 -4.77928,-0.453546 -5.32837,-0.608798 -0.51688,-0.146148 -0.63727,-0.242454 -1.07598,-0.86069 -1.33067,-1.875208 -6.68856,-10.841029 -10.09305,-16.889587 -2.64192,-4.693735 -3.24644,-5.9914 -3.59797,-7.723397 -0.25272,-1.245198 -0.30723,-2.769494 -0.10354,-2.895383 0.12399,-0.07663 1.36949,1.148993 4.89899,4.820806 1.76301,1.8341 1.988,1.985725 4.05395,2.732027 0.60716,0.219329 1.04162,0.446286 1.13653,0.593712 0.0845,0.13126 0.63708,1.620681 1.22794,3.309829 2.40182,6.866287 3.32331,9.209733 3.79859,9.660234 0.65082,0.616892 5.01603,2.863795 6.96168,3.583382 0.63408,0.234511 1.19683,0.508526 1.25056,0.608925 0.12741,0.238072 0.51701,2.202022 0.61392,3.094752 l 0.0758,0.697992 -1.32319,-0.01553 c -0.72776,-0.0085 -1.85088,-0.05727 -2.49582,-0.108265 z"
     id="path181" /><path
     style="fill:#ffffff;stroke:none;stroke-width:0.907838;stroke-dasharray:none"
     d="m 122.15111,86.277457 c -2.74831,-1.375552 -2.57768,-1.199409 -3.47895,-3.591263 -0.91854,-2.437678 -2.3945,-6.857299 -2.31619,-6.935611 0.19165,-0.191651 5.22279,2.168965 5.91446,2.775072 l 0.42861,0.375584 0.94361,4.076007 c 0.51898,2.241804 0.92917,4.168466 0.91154,4.281469 -0.0274,0.175374 -0.37926,0.03168 -2.40308,-0.981258 z"
     id="path182" /><path
     style="fill:#ffffff;stroke:none;stroke-width:0.907838;stroke-dasharray:none"
     d="m 122.73526,74.691602 c -3.20469,-1.613916 -4.98387,-2.345124 -7.56404,-3.108672 -4.20611,-1.244706 -4.67463,-1.464887 -5.96486,-2.803192 -0.97932,-1.015801 -8.4443,-9.388766 -9.16534,-10.280147 -0.33196,-0.410374 -0.607058,-0.837547 -0.611331,-0.949272 -0.0199,-0.52051 0.257246,-7.826897 0.305308,-8.048586 0.02996,-0.138202 0.129236,-0.251277 0.22061,-0.251277 0.273243,0 10.979703,2.6422 11.949143,2.948879 1.66128,0.525537 3.28925,1.748872 6.25611,4.701133 1.48533,1.478026 1.96251,2.037797 2.76084,3.238693 1.28624,1.934837 1.88872,3.249147 3.04446,6.641476 0.79321,2.328232 1.65249,4.571558 2.87815,7.513994 0.12135,0.291317 0.0907,0.344954 -0.59131,1.033032 -0.39562,0.399169 -0.74589,0.723061 -0.77838,0.719762 -0.0325,-0.0033 -1.2652,-0.613418 -2.73936,-1.355823 z"
     id="path183" /><path
     style="fill:#ffffff;stroke:none;stroke-width:0.907838;stroke-dasharray:none"
     d="m 53.159222,91.644112 c -1.888175,-0.498043 -2.634438,-0.784486 -3.231843,-1.240496 -0.520121,-0.397015 -9.747634,-8.039915 -9.961139,-8.250539 -0.09415,-0.09288 -0.03234,-0.624949 0.241543,-2.07921 1.093507,-5.806239 1.71786,-9.150578 1.782614,-9.548556 0.06232,-0.383 0.242785,-0.611658 1.265272,-1.603147 0.979086,-0.9494 2.980333,-2.696364 3.840798,-3.352771 0.170945,-0.130406 0.271166,-0.02318 0.943001,1.009015 0.413454,0.635209 1.014937,1.514117 1.336628,1.953127 0.584843,0.798121 0.585009,0.79824 1.777711,1.264563 2.424071,0.947764 5.306595,1.790483 6.121845,1.789745 0.948939,-7.94e-4 1.63504,-0.797814 1.63504,-1.899221 0,-0.734733 -0.231933,-1.176748 -0.696052,-1.326529 -0.200695,-0.06477 -1.37001,-0.363865 -2.598481,-0.664662 -1.228468,-0.3008 -2.42012,-0.625544 -2.648112,-0.721657 -0.454284,-0.191508 -0.54475,-0.309075 -1.967597,-2.557023 -1.709619,-2.701017 -2.595031,-3.663355 -3.37052,-3.663355 -0.554548,0 -0.923258,0.265748 -3.386045,2.440504 -1.13748,1.004448 -2.162008,1.892014 -2.276726,1.972365 -0.189159,0.132491 -0.306409,0.0342 -1.259231,-1.055608 -0.577858,-0.660937 -1.066536,-1.24936 -1.085951,-1.307602 -0.01942,-0.05825 0.320958,-0.530683 0.756383,-1.049859 0.435427,-0.519179 1.21943,-1.459376 1.742234,-2.089325 l 0.95055,-1.145363 -0.136528,-1.236337 c -0.1147,-1.038669 -0.111744,-1.260988 0.01849,-1.390517 0.296559,-0.294974 5.019818,-1.873907 5.288519,-1.767891 0.198014,0.07813 1.418582,1.78638 3.588115,5.021774 2.801596,4.177972 2.833481,4.218223 3.660023,4.620157 0.37664,0.183155 0.986335,0.391437 1.354876,0.462846 0.91209,0.176733 21.872864,0.272746 23.849312,0.109244 1.891435,-0.156467 2.737112,-0.425572 3.318084,-1.055852 0.47956,-0.520263 2.046381,-2.868972 4.542637,-6.809544 0.849532,-1.341067 1.603095,-2.46075 1.674585,-2.488184 0.07149,-0.02743 0.755727,0.176135 1.520523,0.452376 0.7648,0.276238 1.985159,0.690825 2.711911,0.921303 l 1.321363,0.41905 -0.07915,1.536213 -0.07915,1.536216 1.274336,1.370814 c 0.700887,0.753946 1.512907,1.641814 1.804485,1.973038 l 0.530146,0.602226 -0.760651,0.793761 c -0.418359,0.43657 -0.946211,1.01478 -1.173004,1.284912 l -0.412353,0.491151 -0.964017,-0.882028 c -2.93407,-2.684519 -4.287282,-3.72984 -4.828429,-3.72984 -0.927563,0 -1.524775,0.562153 -2.728807,2.568618 -1.11838,1.86373 -1.70521,2.755566 -2.077783,3.157725 -0.335865,0.36253 -0.889529,0.549296 -3.925383,1.324126 -1.458304,0.372197 -2.25153,0.628724 -2.401099,0.77651 -0.185372,0.18316 -0.223358,0.368707 -0.223358,1.091059 0,0.755333 0.03925,0.929664 0.29695,1.318999 0.418232,0.631862 0.809741,0.77117 1.686959,0.600252 0.995434,-0.19395 5.746131,-1.762316 6.295332,-2.0783 0.649838,-0.373888 1.333879,-1.174747 2.330024,-2.727941 0.472864,-0.737291 0.929526,-1.34053 1.01481,-1.34053 0.18688,0 1.130313,0.78713 3.253589,2.714551 1.417722,1.286949 1.613003,1.508599 1.822543,2.068639 0.455448,1.217303 0.869415,3.243917 2.044657,10.009831 0.2402,1.382837 0.252503,1.58699 0.108852,1.806229 -0.30172,0.460486 -7.026492,6.130737 -9.329028,7.866134 -1.475031,1.111713 -1.720811,1.211342 -4.424569,1.793499 l -1.656961,0.35677 -2.473765,-1.591631 c -1.360572,-0.875397 -2.730529,-1.689195 -3.044354,-1.808437 -0.90488,-0.343829 -2.78148,-0.427792 -9.622414,-0.430528 l -6.336782,-0.0026 -1.089874,0.565891 c -0.59943,0.31124 -1.958843,1.148033 -3.020917,1.859537 -2.332424,1.562542 -2.300042,1.555295 -4.434661,0.992246 z m 18.636306,-7.981958 1.437735,-0.07775 0.740006,-0.779383 c 1.193382,-1.256879 4.704611,-6.60935 4.704611,-7.17164 0,-0.267742 -1.623258,-4.473575 -2.170311,-5.623235 -0.387268,-0.813869 -0.819425,-1.21948 -1.423728,-1.336283 -0.578289,-0.111776 -8.205242,-0.118192 -10.440128,-0.0088 -1.298942,0.06359 -1.622009,0.113691 -1.805839,0.280053 -0.374386,0.338815 -2.68655,5.679395 -2.882046,6.656883 -0.05369,0.268459 0.02299,0.533281 0.334061,1.153752 0.463579,0.924656 3.88684,5.844276 4.478078,6.435514 0.376034,0.376031 0.441362,0.398095 1.372976,0.463711 1.364554,0.09611 3.949089,0.09938 5.654585,0.0072 z"
     id="path184" /><path
     style="fill:#ffffff;stroke:none;stroke-width:0.907838;stroke-dasharray:none"
     d="m 66.877077,80.188437 c -0.342963,-0.142449 -3.164186,-4.475541 -3.164186,-4.859846 0,-0.169873 0.700399,-1.805321 1.170172,-2.732373 l 0.285417,-0.56324 h 3.899614 c 2.252319,0 4.020122,0.04582 4.184889,0.108461 0.220395,0.08379 0.451649,0.449604 1.016857,1.608519 l 0.731584,1.500057 -0.903849,1.49138 c -0.497115,0.820259 -1.19067,1.892517 -1.54123,2.382795 -0.602358,0.842434 -0.664929,0.895234 -1.138769,0.960954 -0.925335,0.128338 -4.295608,0.205009 -4.540499,0.103293 z"
     id="path185" /><path
     style="fill:#ffffff;stroke:none;stroke-width:0.907838;stroke-dasharray:none"
     d="m 79.901914,109.86425 c -0.204877,-0.1382 -0.81344,-0.75975 -1.352362,-1.38122 -0.582506,-0.67173 -1.146815,-1.20917 -1.391568,-1.32531 -0.296958,-0.14092 -0.912918,-0.22606 -2.209961,-0.30548 -2.339655,-0.14327 -12.691052,-0.0345 -13.286783,0.13958 -0.320236,0.0936 -0.815128,0.50023 -1.90904,1.56864 l -1.476732,1.44231 -0.637165,-0.45627 c -0.815295,-0.58382 -2.20999,-2.17957 -3.201048,-3.6625 -0.426514,-0.6382 -0.775478,-1.20456 -0.775478,-1.25858 0,-0.054 0.464862,-0.30868 1.033031,-0.56591 0.568167,-0.25724 2.378729,-1.13573 4.023474,-1.9522 l 2.990443,-1.4845 h 7.645307 7.645308 l 0.550093,0.33848 c 0.302551,0.18616 1.276223,0.6578 2.163717,1.04808 1.880227,0.82686 2.177838,1.00381 2.224686,1.32271 0.02749,0.18715 0.303826,0.3422 1.349057,0.75691 0.722966,0.28685 1.342303,0.54937 1.376304,0.58337 0.116483,0.11648 -0.301807,0.76421 -1.659929,2.57041 -1.470599,1.95578 -2.286887,2.87276 -2.557317,2.87276 -0.09434,0 -0.339159,-0.11307 -0.544037,-0.25128 z"
     id="path186" /><path
     style="fill:#ffffff;stroke:none;stroke-width:0.907838;stroke-dasharray:none"
     d="m 44.489421,103.02699 c -0.943991,-0.81262 -2.269162,-1.95166 -2.94482,-2.5312 -0.675659,-0.579543 -1.285865,-1.17753 -1.356014,-1.328859 -0.07015,-0.151331 -0.28662,-1.657173 -0.481046,-3.346318 -0.194427,-1.689147 -0.552821,-4.648856 -0.796431,-6.577134 -0.24361,-1.928278 -0.417277,-3.531611 -0.385926,-3.562961 0.03135,-0.03135 0.447138,0.263305 0.923972,0.654791 0.476838,0.391485 1.821831,1.483992 2.988877,2.427795 1.167048,0.943803 2.867649,2.352469 3.779118,3.130368 0.911465,0.777899 1.841195,1.527169 2.066062,1.665046 0.399905,0.245203 3.770376,1.407086 5.099365,1.757876 0.368541,0.09728 1.227373,0.207338 1.908514,0.244576 l 1.238438,0.06771 2.818027,-1.970095 2.818029,-1.970096 h 6.957478 6.957481 l 1.159068,0.704189 c 0.637487,0.387305 2.011514,1.274641 3.05339,1.971855 l 1.894319,1.267666 0.667369,-0.02408 c 1.115385,-0.04025 6.031728,-1.424503 7.251475,-2.041736 0.481179,-0.243494 2.669138,-1.98763 6.552039,-5.222976 3.434335,-2.861591 3.573725,-2.968988 3.573725,-2.753445 0,0.09585 -0.17444,1.46953 -0.387642,3.052638 -0.213204,1.583106 -0.616524,4.662327 -0.896265,6.842713 -0.404347,3.151613 -0.548106,4.001826 -0.701225,4.147211 -0.517459,0.491316 -5.473386,4.492306 -5.688905,4.592736 -0.196365,0.0915 -0.357589,0.058 -0.781753,-0.16229 -2.819628,-1.46457 -4.126672,-2.09834 -6.285839,-3.04793 -1.382027,-0.6078 -3.74404,-1.723643 -5.248913,-2.479639 l -2.736138,-1.374535 -8.282679,-5e-5 -8.282675,-5e-5 -1.657054,0.921353 c -0.911378,0.506743 -2.787668,1.422694 -4.169534,2.035451 -2.533534,1.12343 -6.956677,3.27287 -8.222785,3.99588 l -0.684747,0.39103 z"
     id="path187" /><path
     style="fill:#ffffff;stroke:none;stroke-width:0.907838;stroke-dasharray:none"
     d="m 52.147731,117.66034 c -3.987898,-4.75613 -3.852916,-4.56912 -5.10381,-7.07095 -0.693455,-1.38694 -1.090367,-2.30054 -1.025798,-2.36116 0.161698,-0.15181 4.398288,-2.13315 4.561203,-2.13315 0.07889,0 0.202332,0.19656 0.274306,0.4368 0.169053,0.56424 1.240708,2.19371 2.140292,3.25435 0.388046,0.45752 0.78001,0.91956 0.871029,1.02675 0.1373,0.16169 0.168222,0.76102 0.181502,3.51789 0.01241,2.57817 0.06007,3.59428 0.212579,4.53335 0.108114,0.66569 0.178422,1.26481 0.156234,1.33136 -0.02217,0.0666 -1.042577,-1.0743 -2.267537,-2.53524 z"
     id="path188" /><path
     style="fill:#ffffff;stroke:none;stroke-width:0.907838;stroke-dasharray:none"
     d="m 61.032593,120.72164 c -0.706369,-0.0441 -1.430028,-0.1384 -1.608133,-0.20952 -0.458837,-0.1832 -1.385011,-0.98374 -1.584544,-1.36959 -0.17063,-0.32996 -0.370184,-2.83447 -0.377553,-4.73849 l -0.0035,-0.90457 1.109789,-0.0727 c 0.610381,-0.04 1.250167,-0.1261 1.421744,-0.19134 0.171577,-0.0652 0.967788,-0.76801 1.769356,-1.56172 l 1.457397,-1.44312 6.027261,0.0683 6.027259,0.0683 1.395989,1.36763 c 0.767792,0.7522 1.571882,1.45779 1.786864,1.56799 0.314312,0.1611 0.626044,0.19608 1.591426,0.17861 l 1.20055,-0.0217 -5.29e-4,1.31538 c -2.49e-4,0.72347 -0.0332,1.95755 -0.07323,2.74241 l -0.07278,1.42701 -0.568923,0.59101 c -0.312906,0.32505 -0.790048,0.75083 -1.060315,0.94616 l -0.491392,0.35516 -8.33125,-0.0174 c -4.58219,-0.01 -8.909191,-0.0535 -9.615562,-0.0977 z"
     id="path189" /><path
     style="fill:#ffffff;stroke:none;stroke-width:0.907838;stroke-dasharray:none"
     d="m 59.618323,131.52603 c -0.1329,-0.0746 -0.679175,-0.5344 -1.21394,-1.02177 l -0.972301,-0.88612 0.07094,-1.90585 c 0.03902,-1.04822 0.101182,-2.41923 0.138147,-3.04667 l 0.0672,-1.14082 0.335735,0.17361 c 0.184653,0.0955 0.794401,0.21802 1.354992,0.27228 1.153589,0.11167 9.602233,0.11627 16.380236,0.009 4.009702,-0.0635 4.561501,-0.0936 4.81978,-0.26296 0.251177,-0.16468 0.30045,-0.16836 0.354888,-0.0265 0.09887,0.25765 0.224031,5.55848 0.139224,5.89638 -0.09101,0.36262 -0.708687,1.06832 -1.448181,1.65457 l -0.540504,0.42848 -9.622288,-0.004 c -7.334822,-0.003 -9.679734,-0.0362 -9.863929,-0.1396 z"
     id="path190" /><path
     style="fill:#ffffff;stroke:none;stroke-width:0.907838;stroke-dasharray:none"
     d="m 52.912025,130.54809 c 0.141901,-1.67419 0.227454,-1.55011 -3.847212,-5.57925 l -3.4447,-3.40621 -0.108744,-1.11679 c -0.174133,-1.78836 -0.271505,-5.37805 -0.14238,-5.24892 0.06142,0.0614 0.630767,0.71475 1.265216,1.45183 0.634453,0.73708 1.809317,2.0632 2.610814,2.94693 0.801494,0.88373 1.825527,2.01448 2.275628,2.51278 0.450099,0.4983 1.282591,1.48394 1.84998,2.19031 l 1.031618,1.2843 -0.106415,2.65912 -0.106413,2.65911 0.372322,0.38414 0.372321,0.38414 H 53.875515 52.81697 Z"
     id="path191" /><path
     style="fill:#ffffff;stroke:none;stroke-width:0.907838;stroke-dasharray:none"
     d="m 43.610663,127.91613 v -3.53009 l 2.692647,2.6073 c 1.480957,1.43401 2.812729,2.75 2.959494,2.92442 0.209558,0.24905 0.266848,0.44716 0.266848,0.9228 v 0.60567 h -2.959494 -2.959495 z"
     id="path192" /><path
     style="fill:#ffffff;stroke:none;stroke-width:0.907838;stroke-dasharray:none"
     d="m 84.150154,120.29291 c 0,-0.11483 0.130522,-0.83097 0.290053,-1.59143 0.27719,-1.32134 0.287641,-1.49904 0.235693,-4.00711 -0.03419,-1.65071 -0.104674,-2.75983 -0.189965,-2.98933 -0.161947,-0.43573 -0.143624,-0.46953 0.952656,-1.75703 0.878684,-1.03195 1.549334,-2.035 2.117341,-3.1668 0.220215,-0.43879 0.46505,-0.7978 0.544079,-0.7978 0.07903,0 1.157017,0.5005 2.395529,1.11222 2.23124,1.10205 2.25084,1.11486 2.142374,1.40015 -0.301128,0.79202 -2.07232,4.1362 -2.493465,4.7079 -0.26461,0.3592 -1.257052,1.58283 -2.205424,2.71916 -0.948373,1.13633 -2.166977,2.63144 -2.708013,3.32245 -0.541033,0.69102 -1.00556,1.25639 -1.03228,1.25639 -0.02672,0 -0.04858,-0.0939 -0.04858,-0.20877 z"
     id="path193" /><path
     style="fill:#ffffff;stroke:none;stroke-width:0.907838;stroke-dasharray:none"
     d="m 83.815115,131.60057 c 0,-0.038 0.14827,-0.23789 0.329486,-0.44428 l 0.329486,-0.37527 -0.01238,-2.72702 -0.01236,-2.72703 1.451904,-1.77049 c 2.877449,-3.50884 7.60716,-8.92212 7.707659,-8.82162 0.04452,0.0445 -0.364135,4.10716 -0.577424,5.74046 l -0.149688,1.14626 -3.528229,3.58298 -3.52823,3.58297 v 1.44103 1.44102 h -1.005112 c -0.552813,0 -1.005113,-0.0311 -1.005113,-0.069 z"
     id="path194" /><path
     style="fill:#ffffff;stroke:none;stroke-width:0.907838;stroke-dasharray:none"
     d="m 89.239426,131.27063 c -0.180208,-0.18021 -0.151313,-0.53947 0.08019,-0.99704 0.135945,-0.2687 5.443149,-5.63979 5.57271,-5.63979 0.04988,0 0.0907,1.5328 0.0907,3.40621 v 3.40622 H 92.19902 c -2.382678,0 -2.809311,-0.0253 -2.959594,-0.1756 z"
     id="path195" /><path
     style="fill:#ffffff;stroke:none;stroke-width:0.907838;stroke-dasharray:none"
     d="m 20.88777,131.15632 c 0.214571,-0.95956 4.161043,-15.04497 4.868943,-17.37782 l 0.227087,-0.74835 0.517494,0.20328 c 0.284621,0.11179 0.56373,0.27657 0.620242,0.36616 0.116007,0.18391 -0.188648,1.67548 -1.717687,8.40976 -1.188776,5.23566 -2.094142,8.99588 -2.211171,9.18356 -0.05336,0.0856 -0.518836,0.16593 -1.231605,0.21264 l -1.145827,0.0751 z"
     id="path196" /><path
     style="fill:#ffffff;stroke:none;stroke-width:0.907838;stroke-dasharray:none"
     d="M 9.2837833,130.42838 C 9.1886,128.785 8.9168589,120.46065 8.7719826,114.75021 c -0.062334,-2.45694 -0.1424311,-5.2772 -0.1779942,-6.26724 l -0.064661,-1.80008 1.1517691,-0.95706 c 0.6334725,-0.52638 1.4281745,-1.2081 1.7660035,-1.51494 l 0.614236,-0.55788 3.294532,3.27961 3.294531,3.27961 1.445299,0.29421 c 1.634707,0.33276 1.744415,0.37668 2.064824,0.82665 0.309021,0.43398 0.295538,0.64341 -0.154476,2.39924 -0.768218,2.99738 -4.663049,17.32501 -4.757736,17.50194 -0.105074,0.19633 -0.759106,0.24239 -5.589654,0.39363 l -2.3012248,0.072 z"
     id="path197" /><path
     style="fill:#ffffff;stroke:none;stroke-width:0.907838;stroke-dasharray:none"
     d="m 12.871009,95.364951 c -0.273956,-0.159565 -0.250527,-0.499862 0.154512,-2.244199 l 0.354627,-1.527228 0.848261,-0.301016 c 1.263731,-0.448448 5.804414,-2.752609 7.400559,-3.755396 0.333764,-0.20969 0.568569,-0.45629 0.651962,-0.684707 0.07168,-0.196347 0.975237,-2.794386 2.007898,-5.773425 1.03266,-2.97904 1.984011,-5.698181 2.114112,-6.042536 0.267537,-0.708126 0.231308,-0.685504 2.298571,-1.435309 l 1.228471,-0.445569 1.285555,-1.315128 c 0.707057,-0.72332 2.16543,-2.232292 3.240829,-3.353271 1.075399,-1.120976 2.018374,-2.038141 2.0955,-2.038141 0.510389,0 0.433019,1.926712 -0.146968,3.659984 -0.649711,1.941629 -1.526869,3.571979 -6.953555,12.924354 -3.90152,6.723899 -6.4867,10.863101 -7.207701,11.540448 -0.238128,0.223708 -0.504799,0.272637 -2.543863,0.466754 -2.072543,0.197305 -5.663442,0.446262 -6.354134,0.440534 -0.153559,-0.0013 -0.367145,-0.05354 -0.474636,-0.116149 z"
     id="path198" /><path
     style="fill:#ffffff;stroke:none;stroke-width:0.907838;stroke-dasharray:none"
     d="m 14.015719,87.213072 c 0,-0.06596 0.403374,-2.013366 0.896386,-4.327562 0.600415,-2.818347 0.953063,-4.25028 1.068042,-4.336807 0.205751,-0.154832 5.924455,-2.606958 6.079796,-2.606958 0.05959,0 0.108345,0.04693 0.108345,0.10428 0,0.133059 -1.341586,4.097314 -2.174672,6.425946 -0.901863,2.520873 -0.921385,2.552817 -1.844116,3.017496 -0.834465,0.42023 -3.98167,1.843538 -4.076413,1.843538 -0.03155,0 -0.05737,-0.05397 -0.05737,-0.119933 z"
     id="path199" /><path
     style="fill:#ffffff;stroke:none;stroke-width:0.907838;stroke-dasharray:none"
     d="m 12.393434,75.442127 c -0.274789,-0.274789 -0.499617,-0.574461 -0.499617,-0.665938 0,-0.09148 0.105411,-0.432028 0.234247,-0.756774 0.128836,-0.324747 0.802569,-2.27401 1.497186,-4.331698 1.423661,-4.217361 1.971875,-5.650587 2.704679,-7.070987 1.7754,-3.441272 6.449161,-8.593828 8.91228,-9.825287 0.990444,-0.495181 2.810644,-1.031811 6.697995,-1.974696 2.088399,-0.506545 4.463408,-1.085811 5.2778,-1.287256 0.814391,-0.201444 1.50504,-0.326901 1.534774,-0.278789 0.06002,0.09711 0.247275,3.428217 0.368112,6.548385 l 0.07845,2.025631 -1.160997,1.32474 c -3.145012,3.58857 -6.943987,7.757181 -8.498697,9.32561 l -1.731569,1.746845 -2.401098,0.805889 c -4.390383,1.473555 -9.476955,3.44858 -11.495585,4.463527 -0.492707,0.247729 -0.923396,0.450416 -0.957088,0.450416 -0.03369,0 -0.286085,-0.22483 -0.560874,-0.499618 z"
     id="path200" /><path
     style="fill:#ffffff;stroke:none;stroke-width:0.907838;stroke-dasharray:none"
     d="m 51.075414,51.211209 -0.5203,-0.828445 -0.788596,-0.234855 -0.788594,-0.234852 -0.216085,-0.699598 c -0.378,-1.223825 -1.056502,-4.394843 -0.98194,-4.58915 0.03949,-0.102918 0.359185,-0.314217 0.71043,-0.469551 0.75724,-0.334889 0.655884,-0.415264 1.496785,1.186931 0.306255,0.583523 0.884933,1.51325 1.285946,2.066063 0.401014,0.55281 0.958012,1.342649 1.237772,1.755198 l 0.508658,0.750086 -0.517414,0.830159 c -0.90856,1.457725 -0.822758,1.429576 -1.426662,0.468014 z"
     id="path201" /><path
     style="fill:#ffffff;stroke:none;stroke-width:0.907838;stroke-dasharray:none"
     d="m 86.327895,51.243456 c -0.368541,-0.560356 -0.684977,-1.056574 -0.703191,-1.102709 -0.0182,-0.04613 0.584853,-1.008245 1.340149,-2.138027 0.755295,-1.129781 1.61644,-2.519328 1.913654,-3.087883 0.604013,-1.155435 0.497748,-1.11416 1.609432,-0.62512 0.322474,0.141861 0.586314,0.304284 0.586314,0.360941 0,0.26529 -1.250328,5.105805 -1.34982,5.225683 -0.06219,0.07494 -0.354285,0.194109 -0.649105,0.264835 -0.712083,0.170828 -1.233482,0.62153 -1.673008,1.446164 -0.198887,0.373148 -0.371226,0.677659 -0.382981,0.676696 -0.01175,-0.0011 -0.322903,-0.460224 -0.691444,-1.02058 z"
     id="path202" /><path
     style="fill:#ffffff;stroke:none;stroke-width:0.907838;stroke-dasharray:none"
     d="m 80.132459,50.128076 c -0.0026,-0.06602 2.08833,-8.152159 2.537108,-9.811944 l 0.196276,-0.725913 2.45694,-1.646052 c 1.351317,-0.905328 2.487022,-1.646598 2.523791,-1.647264 0.223338,-0.004 -0.822608,4.611946 -1.315122,5.803955 -0.850902,2.059398 -2.045113,3.685887 -4.634423,6.312004 -0.969002,0.982776 -1.763059,1.754621 -1.76457,1.715214 z"
     id="path203" /><path
     style="fill:#ffffff;stroke:none;stroke-width:0.907838;stroke-dasharray:none"
     d="m 63.585319,53.181283 c -0.329089,-0.356404 -0.658722,-0.821269 -0.732515,-1.033031 -0.07379,-0.211759 -0.661056,-2.420369 -1.305025,-4.908021 -1.419186,-5.482326 -1.759834,-6.750352 -2.21501,-8.245145 -0.330536,-1.085485 -0.384635,-1.181851 -0.917141,-1.633722 -0.646875,-0.548921 -2.541199,-1.899031 -6.334564,-4.514731 -1.452918,-1.001851 -2.809817,-1.961881 -3.015335,-2.133397 L 48.692061,30.401388 48.6584,25.821084 48.62474,21.24078 49.216795,21.03446 c 0.725205,-0.25272 2.098456,-0.2573 12.932588,-0.04313 7.380259,0.145893 11.240961,0.124556 21.42507,-0.118408 l 4.95241,-0.11815 0.600152,0.398478 c 0.675761,0.44868 0.878821,0.771355 0.982239,1.560837 0.08201,0.62608 -0.12496,6.8466 -0.247415,7.43597 -0.07249,0.348888 -0.267972,0.522963 -1.807609,1.609633 -4.139245,2.921458 -4.831628,3.417498 -6.427293,4.604692 -1.50073,1.116557 -1.711365,1.31395 -1.920269,1.799563 -0.129053,0.299993 -0.768033,2.603085 -1.41995,5.117982 -2.154677,8.312044 -2.415133,9.081902 -3.445553,10.18441 L 74.50194,53.829295 H 69.342803 64.183664 Z M 81.209697,32.638199 c 2.551192,-1.704501 4.840788,-3.285728 5.087991,-3.513833 l 0.44946,-0.41474 -0.05208,-1.595483 c -0.0639,-1.957555 -0.194588,-2.345336 -0.893879,-2.652308 -1.118265,-0.490889 -1.501299,-0.503855 -6.399763,-0.216631 -6.001716,0.351914 -12.710341,0.355279 -20.379059,0.01022 -3.064817,-0.137903 -5.470146,-0.200293 -5.696444,-0.147757 -0.553599,0.12852 -0.86795,0.346268 -1.15024,0.796756 -0.21641,0.345357 -0.249414,0.576613 -0.2834,1.985811 -0.03132,1.29853 -0.0063,1.643956 0.134379,1.858729 0.206433,0.315058 1.509213,1.236306 6.260518,4.427075 l 3.564454,2.393733 1.126067,0.06357 c 0.619334,0.03496 3.931226,0.07265 7.359763,0.08376 l 6.2337,0.02019 z"
     id="path204" /><path
     style="fill:#ffffff;stroke:none;stroke-width:0.907838;stroke-dasharray:none"
     d="m 57.838638,49.571424 c -1.170774,-1.116369 -3.347927,-3.516955 -4.084995,-4.504219 -0.795875,-1.066035 -1.666748,-2.804369 -1.988555,-3.969319 -0.277183,-1.0034 -0.783609,-3.806097 -0.783609,-4.33669 0,-0.295283 0.03778,-0.363231 0.173096,-0.311306 0.240077,0.09213 4.055456,2.584966 4.438782,2.900148 0.285316,0.234598 0.402542,0.612259 1.359744,4.38058 0.576133,2.268116 1.200584,4.648784 1.387674,5.29037 0.187087,0.641588 0.318614,1.188072 0.29228,1.214403 -0.02633,0.02633 -0.383821,-0.272449 -0.794417,-0.663967 z"
     id="path205" /><path
     style="fill:#ffffff;stroke:none;stroke-width:0.907838;stroke-dasharray:none"
     d="m 62.261061,17.580868 c -0.414338,-0.04666 -9.579063,-0.382297 -10.438659,-0.382297 -0.456785,0 -0.505886,-0.02551 -0.505886,-0.262883 0,-0.349743 0.814755,-3.095557 1.243692,-4.191384 0.425437,-1.086885 1.168606,-2.093732 2.607448,-3.5325718 2.345282,-2.3452831 4.567571,-3.6023696 7.784248,-4.4033298 1.656067,-0.4123648 3.302566,-0.5607828 6.233258,-0.5618763 3.681503,-0.00138 5.372412,0.2385613 7.873373,1.1172053 1.435304,0.5042548 3.572534,1.5540559 4.355481,2.1393992 1.020988,0.7633046 2.328085,2.0297341 3.134744,3.0372114 1.161814,1.451053 2.428187,4.305323 2.585217,5.826813 0.05213,0.505041 0.03193,0.591975 -0.149553,0.64383 -0.281879,0.08054 -1.727718,0.165533 -6.184641,0.36356 -3.41948,0.151932 -17.618377,0.309955 -18.538722,0.206323 z"
     id="path206" /></svg>
