<?xml version="1.0" encoding="UTF-8" standalone="no"?>
<!-- Created with Inkscape (http://www.inkscape.org/) -->

<svg
   width="505.08896"
   height="505.75937"
   viewBox="0 0 505.08896 505.75937"
   version="1.1"
   id="svg1"
   xml:space="preserve"
   sodipodi:docname="ID.svg"
   inkscape:version="1.4 (86a8ad7, 2024-10-11)"
   inkscape:export-filename="Medikt.svg"
   inkscape:export-xdpi="96"
   inkscape:export-ydpi="96"
   xmlns:inkscape="http://www.inkscape.org/namespaces/inkscape"
   xmlns:sodipodi="http://sodipodi.sourceforge.net/DTD/sodipodi-0.dtd"
   xmlns="http://www.w3.org/2000/svg"
   xmlns:svg="http://www.w3.org/2000/svg"><sodipodi:namedview
     id="namedview1"
     pagecolor="#ffffff"
     bordercolor="#000000"
     borderopacity="0.25"
     inkscape:showpageshadow="2"
     inkscape:pageopacity="0.0"
     inkscape:pagecheckerboard="true"
     inkscape:deskcolor="#d1d1d1"
     inkscape:zoom="1.6959064"
     inkscape:cx="235.27242"
     inkscape:cy="191.04828"
     inkscape:window-width="5160"
     inkscape:window-height="2054"
     inkscape:window-x="-11"
     inkscape:window-y="-11"
     inkscape:window-maximized="1"
     inkscape:current-layer="svg1" /><defs
     id="defs1"><inkscape:path-effect
       effect="bspline"
       id="path-effect9"
       is_visible="true"
       lpeversion="1.3"
       weight="33.333333"
       steps="2"
       helper_size="0"
       apply_no_weight="true"
       apply_with_weight="true"
       only_selected="false"
       uniform="false" /></defs><path
     style="fill:#000000;stroke-width:0.551098"
     d="M 43.509598,457.63957 C 23.500355,455.65395 7.0210864,440.92667 2.9942766,421.43164 2.2234725,417.69994 2.1340686,401.71236 2.1565917,271.63986 2.1731213,176.19369 2.3732609,125.00707 2.7374926,123.06915 5.9548396,105.951 19.519612,91.617944 36.571263,87.319104 c 4.257537,-1.07335 6.263682,-1.09898 86.053857,-1.09898 h 81.69471 l 0.26013,-16.1196 c 0.28482,-17.648574 0.54954,-19.444908 3.87803,-26.314913 2.58924,-5.34421 9.19451,-11.737366 15.26055,-14.770476 7.03528,-3.517753 10.38129,-3.966845 29.55544,-3.966845 19.30165,0 22.17767,0.410037 29.96311,4.271898 7.20955,3.576207 12.6708,8.928742 15.8838,15.567624 3.41493,7.056139 3.95571,10.780882 3.95571,27.245682 v 14.06582 l 83.07797,0.14819 83.07797,0.14817 4.68433,1.68174 c 13.73008,4.92927 24.59572,15.787286 29.24576,29.225236 l 1.89126,5.46547 0.1428,147.3467 c 0.14125,145.74967 0.13083,147.39707 -0.96081,151.99348 -3.32377,13.99486 -12.72442,25.40051 -26.04543,31.60047 -4.19196,1.95105 -8.52877,3.10798 -14.4272,3.84872 -5.2146,0.65487 -413.649451,0.63745 -420.253652,-0.0179 z M 466.7526,433.14698 c 6.84706,-2.46527 12.41877,-7.68183 15.02134,-14.06387 l 1.23605,-3.03103 0.16816,-142.7343 c 0.12567,-106.66062 0.007,-143.50034 -0.47052,-145.76534 -1.81886,-8.63166 -9.31548,-16.09974 -18.22261,-18.15321 -1.56754,-0.36138 -30.32824,-0.56189 -81.85008,-0.57062 l -79.43332,-0.0135 -0.2374,9.50644 c -0.21338,8.54526 -0.38569,9.92307 -1.70416,13.62722 -3.53625,9.93489 -12.06367,18.166 -22.42333,21.64419 -3.38211,1.13551 -4.75832,1.21658 -23.70563,1.39637 -22.86113,0.21693 -24.62285,0.007 -32.04014,-3.82727 -8.05303,-4.16235 -14.33386,-11.54562 -17.03705,-20.02749 -1.00259,-3.14584 -1.27757,-5.56103 -1.49022,-13.08856 l -0.26076,-9.2309 h -79.17868 c -86.192956,0 -81.955379,-0.14744 -88.310256,3.07282 -6.029715,3.05549 -10.793926,9.44677 -12.040862,16.15304 -0.76187,4.09748 -0.75987,283.71555 0.0022,287.7981 0.806603,4.32194 3.479797,9.37119 6.373467,12.03848 3.039959,2.80213 8.609473,5.50702 12.522548,6.08168 1.57819,0.23177 96.735143,0.38936 211.459893,0.35022 206.41779,-0.0704 208.62204,-0.0826 211.6215,-1.16248 z M 293.15684,386.24592 c -4.46035,-1.94376 -6.8003,-5.54193 -6.81192,-10.47479 -0.0101,-4.31134 1.80211,-7.62978 5.24237,-9.59932 l 2.3962,-1.37181 43.81226,-0.16041 c 33.4232,-0.12236 44.39602,5.5e-4 46.27404,0.51843 5.60918,1.54674 8.97975,7.46842 7.49936,13.17548 -0.90237,3.47873 -2.06655,5.16273 -4.83637,6.99592 l -2.28829,1.51448 -44.6794,0.12129 c -39.01436,0.10591 -44.92397,0.0147 -46.60825,-0.71927 z m -140.49013,-3.61845 c -19.51779,-1.48706 -37.68873,-8.39444 -53.220703,-20.23095 -9.479546,-7.22412 -21.25483,-20.68772 -27.128104,-31.01768 -5.014685,-8.81988 -9.115006,-20.59801 -11.291604,-32.43502 -1.440069,-7.83152 -1.710774,-26.98684 -0.494551,-34.9947 3.584792,-23.60293 15.863843,-45.24273 34.505481,-60.81019 19.968001,-16.67508 44.205281,-25.1414 69.162761,-24.15923 18.78329,0.7392 34.9338,5.83602 50.14989,15.82641 29.0869,19.09754 45.49557,47.25472 47.67977,81.81826 0.99308,15.71489 -3.15249,35.49988 -10.4754,49.99444 -18.80913,37.22981 -57.52827,59.15983 -98.88754,56.00866 z m 24.20852,-22.69603 c 9.84122,-2.31215 18.57366,-6.2746 27.1545,-12.32169 4.18947,-2.95239 4.36398,-3.16087 4.08499,-4.88011 -0.39717,-2.44739 -3.32675,-9.00374 -6.08943,-13.62798 -8.71166,-14.58184 -23.19118,-23.55526 -39.48853,-24.47232 -20.46332,-1.15149 -38.50422,11.25811 -47.56129,32.71547 -1.41827,3.36004 -2.57502,6.44812 -2.57057,6.86242 0.004,0.41428 2.2984,2.28674 5.09766,4.16102 9.6432,6.45672 19.01097,10.29781 29.99962,12.30083 8.34998,1.52204 21.12011,1.20135 29.37305,-0.73764 z m 54.81092,-41.26096 c 6.22961,-11.77423 8.49824,-20.42375 8.93212,-34.0552 0.32501,-10.21085 -0.40826,-16.6594 -2.8513,-25.07494 -7.26585,-25.02876 -28.40302,-46.89785 -53.17637,-55.01777 -15.38173,-5.04164 -34.08348,-5.14786 -49.04769,-0.27858 -18.81191,6.12129 -36.834733,21.54043 -46.180706,39.50916 -11.298722,21.72313 -11.825174,48.14431 -1.416264,71.07885 2.480952,5.46645 6.935799,12.87204 7.434437,12.35879 0.222568,-0.2291 0.929976,-1.75706 1.572011,-3.39547 4.995882,-12.74902 18.240612,-27.2975 30.461832,-33.46035 3.90091,-1.96714 4.24831,-2.39071 2.88724,-3.5203 -1.4347,-1.19069 -5.84318,-8.6709 -7.4785,-12.68935 -3.2209,-7.9147 -4.05762,-16.56558 -2.38529,-24.66185 1.79241,-8.67762 5.41816,-15.27219 12.06177,-21.93813 7.39349,-7.41836 16.77644,-11.24616 27.56732,-11.24616 18.76724,0 34.72662,12.37236 39.45339,30.58591 1.42151,5.47746 1.54593,14.19794 0.287,20.11507 -1.08598,5.10422 -4.79105,12.83747 -8.51605,17.77476 l -2.80793,3.72176 3.97801,1.99457 c 6.19542,3.10636 11.097,6.62356 16.11679,11.56487 6.22713,6.12976 10.79874,12.44934 14.43271,19.95111 l 3.02785,6.25051 1.32287,-1.94679 c 0.72759,-1.07073 2.67372,-4.49994 4.32475,-7.62047 z m -63.41337,-43.6457 c 10.94139,-5.35312 14.57674,-18.30578 7.91838,-28.21293 -6.86799,-10.21906 -21.03075,-11.66151 -29.67038,-3.02188 -5.47253,5.47252 -7.11181,13.3164 -4.32824,20.71025 1.83278,4.86833 6.79474,9.69149 11.5719,11.24822 4.90043,1.5969 10.31756,1.3267 14.50834,-0.72366 z m 125.15961,56.7146 c -3.06946,-1.07637 -6.11509,-4.62894 -6.83126,-7.9683 -1.17917,-5.49827 2.25073,-11.91423 7.08754,-13.25794 1.1997,-0.3333 18.84098,-0.5424 45.9201,-0.54429 42.19025,-0.003 44.05484,0.0396 46.01666,1.04865 4.32161,2.22293 6.17789,5.31888 6.17789,10.30361 0,4.94357 -2.00563,8.00061 -6.62308,10.09507 -2.41737,1.09651 -3.39826,1.12014 -46.00675,1.10831 -35.91856,-0.01 -43.92244,-0.14736 -45.7411,-0.78511 z m 0.16057,-54.83307 c -4.37745,-1.31956 -7.2515,-5.47555 -7.28563,-10.53532 -0.0274,-4.06728 2.18437,-7.8264 5.69622,-9.68112 l 2.42885,-1.28276 h 75.98249 c 82.49026,0 78.06629,-0.15874 81.36641,2.91957 3.04037,2.83601 4.30527,8.38549 2.81209,12.33751 -0.78651,2.08168 -3.09791,4.45234 -5.59173,5.73509 -1.98418,1.02062 -4.29105,1.05034 -77.98032,1.00436 -41.76462,-0.026 -76.60738,-0.24985 -77.42838,-0.49733 z m -0.71639,-55.59285 c -7.3633,-3.34508 -8.82783,-12.99182 -2.83235,-18.65652 1.65519,-1.56388 3.01926,-2.3754 4.04497,-2.40644 0.85117,-0.0258 35.81037,-0.0437 77.68709,-0.0399 84.3269,0.008 77.64641,-0.29298 81.10911,3.65082 0.94993,1.0819 1.86966,2.64453 2.04384,3.47251 0.17419,0.82797 0.41387,1.98267 0.53262,2.566 0.11875,0.58333 -0.0496,2.31929 -0.37394,3.85768 -0.76439,3.62475 -4.08698,7.01508 -7.78826,7.94708 -1.85101,0.46609 -22.56892,0.6333 -77.37095,0.62444 -71.20085,-0.0116 -74.95052,-0.0609 -77.05213,-1.01569 z m -20.41555,-89.52973 c 3.57077,-1.57429 5.6461,-3.49824 7.20046,-6.67521 l 1.46981,-3.00419 0.0197,-31.319326 0.0197,-31.319326 -1.24931,-2.904127 c -0.73949,-1.718979 -2.1672,-3.689791 -3.49852,-4.82935 -3.89428,-3.333359 -5.92065,-3.621154 -24.15628,-3.430815 l -16.14824,0.168559 -2.59903,1.527801 c -2.93555,1.725616 -5.17108,4.378159 -6.2589,7.426412 -1.07837,3.021796 -1.07837,63.387702 0,66.409492 1.71512,4.80609 5.58514,7.85683 11.0507,8.7113 1.52192,0.23792 9.33895,0.37972 17.3712,0.31509 12.50307,-0.10062 14.91696,-0.25546 16.77881,-1.07631 z"
     id="path1" /><path
     style="fill:#ffffff;stroke-width:5.47318;stroke-linecap:round;stroke-linejoin:round"
     d="m 237.8235,132.05659 c -5.05466,-0.99946 -9.03634,-4.4355 -10.21586,-8.81591 -0.43155,-1.60264 -0.58295,-12.65804 -0.46705,-34.104136 l 0.17148,-31.732781 1.6025,-2.420787 c 0.88137,-1.331433 2.77428,-3.226998 4.20646,-4.212366 l 2.60397,-1.791578 13.48319,-0.376422 c 21.51278,-0.60059 25.9429,0.455435 29.74924,7.091435 l 1.70737,2.976646 -0.008,31.84138 -0.008,31.841379 -1.60778,2.92622 c -2.25933,4.11208 -5.43426,6.17594 -10.50577,6.82927 -5.03722,0.64892 -27.35708,0.61088 -30.71127,-0.0523 z"
     id="path2" /><path
     style="fill:#ffffff;stroke-width:5.47318;stroke-linecap:round;stroke-linejoin:round"
     d="M 42.592015,433.36961 C 36.13895,432.07517 29.562073,426.78407 26.629068,420.52742 l -1.568723,-3.34638 v -145.35 -145.35 l 1.768966,-3.50976 c 2.288657,-4.54086 6.796645,-9.11573 11.002008,-11.16523 2.785384,-1.35747 4.538523,-1.71341 10.613793,-2.15489 4.002517,-0.29086 40.607338,-0.53696 81.344048,-0.54689 l 74.06674,-0.0181 0.42359,8.89895 c 0.67396,14.15888 2.70379,19.48047 10.32947,27.0807 4.84448,4.82831 10.76038,8.24499 16.34419,9.43945 2.01577,0.4312 10.42122,0.58934 24.76552,0.46596 l 21.71409,-0.18678 5.01207,-2.41271 c 6.39197,-3.07696 10.51544,-6.37523 14.17109,-11.33513 4.94631,-6.71104 5.95381,-10.01233 6.51162,-21.33665 0.26357,-5.35112 0.494,-9.92832 0.51205,-10.17155 0.0407,-0.54805 144.94659,-0.49159 155.11865,0.0604 6.36305,0.34532 7.83139,0.62257 10.68119,2.01685 4.40127,2.15334 8.94401,6.80858 11.28586,11.56535 l 1.90748,3.87447 0.16004,144.30238 0.16003,144.30238 -1.85099,3.91763 c -2.39054,5.05961 -6.89609,9.57564 -12.11849,12.14671 l -4.01516,1.97673 -209.92979,0.0915 c -115.46138,0.0504 -211.062261,-0.13556 -212.446395,-0.4132 z M 386.57791,385.72082 c 2.98908,-2.18706 4.04697,-3.47389 4.86964,-5.92346 1.70533,-5.07779 -0.0713,-10.76739 -4.21952,-13.51298 l -2.39117,-1.58265 -45.45687,-0.16135 -45.45687,-0.16135 -2.75834,1.74929 c -3.17088,2.01091 -4.5152,4.2338 -4.99124,8.25325 -0.53597,4.52542 1.74451,9.40186 5.32713,11.39124 2.3694,1.31569 7.17854,1.46464 49.96862,1.54762 l 42.80895,0.083 z m -209.68135,-3.83371 c 22.12399,-3.7553 39.59204,-12.7783 55.46249,-28.64875 8.78692,-8.78691 14.27291,-16.30521 19.50392,-26.72923 8.06097,-16.06335 11.90376,-37.22051 9.98478,-54.97292 -2.77056,-25.63024 -12.84907,-46.44598 -30.85827,-63.7334 -13.19709,-12.66817 -26.69298,-20.68143 -42.58672,-25.28609 -15.11489,-4.37902 -32.6585,-4.99479 -48.65448,-1.70777 -16.23454,3.33605 -33.81729,12.2784 -47.172416,23.99126 -15.709408,13.77764 -26.971325,33.23241 -31.634504,54.64807 -0.915954,4.20652 -1.084831,7.52348 -1.050745,20.63793 0.03581,13.77771 0.194068,16.3408 1.338037,21.67056 2.754034,12.83103 8.15397,26.22847 14.103481,34.99125 18.048775,26.58325 43.648617,42.42693 74.198227,45.92109 6.18368,0.70727 21.10419,0.28091 27.3662,-0.782 z m 210.45503,-51.28082 c 3.4549,-2.28668 5.02492,-5.87076 4.6042,-10.51057 -0.38616,-4.25855 -1.96447,-6.89302 -5.26027,-8.78024 l -2.53517,-1.45168 -36.55862,-0.17377 c -20.10724,-0.0956 -40.91318,0.051 -46.23542,0.32581 l -9.6768,0.49958 -2.15712,2.43075 c -2.22726,2.50982 -3.55924,5.8162 -3.53668,8.77914 0.0295,3.87081 3.85973,9.15481 7.41926,10.23519 0.9391,0.28503 21.8932,0.47143 46.56468,0.41422 l 44.85723,-0.10402 z m 58.57324,-53.40156 c 5.93269,-0.74118 9.28897,-4.42558 9.28897,-10.19707 0,-6.40429 -2.99966,-10.3907 -8.39704,-11.15927 -1.70567,-0.24288 -36.95922,-0.46098 -78.34121,-0.48465 l -75.23998,-0.043 -2.49829,1.80976 c -4.78441,3.46581 -6.11969,10.51393 -2.96035,15.62584 2.23474,3.61588 3.44807,4.05037 12.32756,4.41438 11.99676,0.4918 141.91354,0.52214 145.82034,0.0341 z m 2.61645,-55.57912 c 1.03262,-0.31389 2.80942,-1.60224 3.94845,-2.86301 3.90541,-4.32282 4.21769,-10.3352 0.77128,-14.84968 -1.03398,-1.35441 -2.676,-2.73074 -3.64893,-3.0585 -1.14262,-0.38493 -29.05596,-0.67195 -78.83382,-0.8106 -85.22395,-0.2374 -79.02254,-0.50455 -82.03859,3.53401 -3.21132,4.30005 -3.48445,9.8927 -0.68939,14.11632 2.94441,4.44931 1.55805,4.27602 36.84973,4.60585 45.37528,0.42407 121.39161,0.009 123.64127,-0.67439 z"
     id="path3" /><path
     style="fill:#ffffff;stroke-width:5.47318;stroke-linecap:round;stroke-linejoin:round"
     d="m 223.57917,322.31119 c -6.9574,-14.04064 -16.76904,-24.33829 -30.33229,-31.83479 -2.56604,-1.41827 -3.84757,-2.45738 -3.5864,-2.90799 0.22351,-0.38564 1.14474,-1.65145 2.04718,-2.81291 2.62652,-3.38041 6.21105,-10.49799 7.69679,-15.28308 1.16433,-3.74989 1.36705,-5.63296 1.3331,-12.38276 -0.0368,-7.31111 -0.18753,-8.38169 -1.84841,-13.12644 -2.37042,-6.77173 -4.923,-10.9493 -9.62579,-15.7536 -10.91073,-11.14625 -27.50308,-15.04729 -42.55522,-10.00518 -15.92629,5.33493 -27.24292,21.75762 -27.20154,39.47488 0.0228,9.7605 2.24457,16.87271 8.09706,25.91973 1.49058,2.3042 2.71015,4.29438 2.71015,4.42262 0,0.12824 -1.52574,1.09071 -3.39052,2.13881 -5.55583,3.12266 -10.76605,7.21742 -15.81702,12.43071 -6.31044,6.51323 -9.363,10.75078 -12.994435,18.03879 l -3.01404,6.04895 -1.501934,-2.26958 c -4.513281,-6.82003 -9.381219,-19.13731 -11.341513,-28.69728 -1.51421,-7.3845 -1.790773,-18.3177 -0.657376,-25.98763 2.686893,-18.18276 9.626483,-31.94342 22.749778,-45.11101 9.56174,-9.59401 19.77098,-16.15227 30.97912,-19.90051 13.85012,-4.63176 32.88747,-4.7713 47.39129,-0.34737 17.86374,5.44878 35.49649,19.15923 45.76576,35.58543 4.97142,7.95204 9.37845,19.31988 10.98755,28.34213 1.7619,9.87905 0.60104,27.63758 -2.42836,37.14828 -1.28763,4.04248 -8.1333,18.20765 -9.92129,20.52931 l -1.05164,1.36551 z"
     id="path4" /><path
     style="fill:#ffffff;stroke-width:5.47318;stroke-linecap:round;stroke-linejoin:round"
     d="m 155.9638,276.03452 c -5.63408,-1.47381 -10.63956,-5.7232 -13.11776,-11.13631 -5.55276,-12.12884 3.81529,-26.39281 17.27726,-26.30668 17.07752,0.10926 25.37422,21.1259 12.8846,32.63843 -1.47687,1.36132 -3.90963,3.01675 -5.40615,3.67874 -2.9446,1.30253 -8.79784,1.86876 -11.63795,1.12582 z"
     id="path5" /><path
     style="fill:#ffffff;stroke-width:5.47318;stroke-linecap:round;stroke-linejoin:round"
     d="m 150.73637,360.83188 c -12.36255,-1.71675 -26.69513,-7.63934 -35.88275,-14.82767 l -2.19294,-1.71574 1.38182,-3.67115 c 4.82647,-12.82276 14.02991,-24.25184 24.0026,-29.80708 21.42499,-11.9347 48.08163,-4.99164 62.13755,16.1845 2.24735,3.38577 6.99238,13.10599 7.54594,15.45788 0.38462,1.63412 -0.26929,2.32061 -5.70322,5.98739 -8.22368,5.54929 -17.69094,9.56313 -27.17817,11.52278 -5.52027,1.14024 -18.72952,1.61638 -24.11083,0.86909 z"
     id="path6"
     inkscape:export-filename="ID.svg"
     inkscape:export-xdpi="96"
     inkscape:export-ydpi="96" /></svg>
