<?xml version="1.0" encoding="UTF-8" standalone="no"?>
<!-- Created with Inkscape (http://www.inkscape.org/) -->

<svg
   width="512"
   height="512"
   viewBox="0 0 135.46667 135.46667"
   version="1.1"
   id="svg1"
   xml:space="preserve"
   sodipodi:docname="Reinforced-Coat-Mana-Integration.svg"
   xmlns:inkscape="http://www.inkscape.org/namespaces/inkscape"
   xmlns:sodipodi="http://sodipodi.sourceforge.net/DTD/sodipodi-0.dtd"
   xmlns="http://www.w3.org/2000/svg"
   xmlns:svg="http://www.w3.org/2000/svg"><sodipodi:namedview
     id="namedview1"
     pagecolor="#ffffff"
     bordercolor="#000000"
     borderopacity="0.25"
     inkscape:showpageshadow="2"
     inkscape:pageopacity="0.0"
     inkscape:pagecheckerboard="true"
     inkscape:deskcolor="#d1d1d1"><inkscape:page
       x="0"
       y="0"
       width="135.46667"
       height="135.46667"
       id="page2"
       margin="0"
       bleed="0" /></sodipodi:namedview><defs
     id="defs1" /><path
     id="path1"
     style="fill:#000000;stroke-width:1.16482"
     d="m 74.537137,0.16951736 c -1.258823,-0.007116 -2.478866,0.27377737 -3.643526,0.84030404 -1.389449,0.6758712 -3.165946,2.3740932 -3.87527,3.7049224 -0.597918,1.1218106 -1.137099,3.027348 -1.141875,4.0347838 -0.0027,0.5644027 -0.03536,0.5843806 -2.086916,1.2821264 -7.728756,2.628593 -14.981521,6.952115 -20.940184,12.483571 l -0.889663,0.82646 -2.117615,-2.118819 -2.117614,-2.118817 0.47252,-1.168361 C 40.622175,11.940151 35.735038,5.5542132 29.143862,6.1058203 c -3.439453,0.2878443 -6.733584,3.189182 -7.526621,6.6291317 -0.269537,1.169157 -0.235444,3.450632 0.06681,4.446509 0.845062,2.784283 2.872154,4.811488 5.725023,5.726227 1.053961,0.337943 1.564367,0.391802 3.056034,0.321435 0.984943,-0.04647 2.143074,-0.212455 2.573281,-0.368386 l 0.781917,-0.283512 2.088721,2.115809 c 1.148792,1.163404 2.11402,2.186224 2.144701,2.273515 0.03068,0.08729 -0.588449,0.979713 -1.375425,1.982781 -2.851513,3.634489 -5.836547,8.704042 -7.443554,12.64128 l -0.408715,1.001623 -2.637688,-0.12099 c -1.450739,-0.06637 -3.741994,-0.121218 -5.091786,-0.121591 -2.271528,-6.27e-4 -2.454097,-0.02628 -2.454097,-0.346114 0,-0.190055 -0.294254,-0.933218 -0.653703,-1.651715 -1.117451,-2.233651 -3.263521,-3.891296 -5.80809,-4.486237 -1.264308,-0.295605 -3.7221878,-0.150083 -4.8365657,0.286522 -3.1340234,1.22789 -5.4003586,4.288769 -5.6858966,7.678911 -0.3582972,4.253992 3.1231926,8.465805 7.5007374,9.074201 3.3494909,0.465514 6.7152159,-1.185047 8.4427689,-4.140123 l 0.719315,-1.229757 h 4.327927 c 2.380541,0 4.32853,0.03601 4.32853,0.08006 0,0.04405 -0.255001,1.065436 -0.566424,2.269303 -1.068443,4.130298 -1.358826,6.778646 -1.366397,12.468523 -0.0055,4.139606 0.05564,5.418528 0.324444,6.828374 0.181902,0.954104 0.281272,1.783963 0.220912,1.844335 -0.06036,0.06036 -2.302789,0.699757 -4.982835,1.421173 l -4.872681,1.311621 -0.815022,-0.627219 c -1.736908,-1.33767 -3.343548,-1.882373 -5.5649089,-1.885868 -4.8363847,-0.0075 -8.67872758,3.798132 -8.67872758,8.596262 0,4.764186 3.72878368,8.442167 8.55954448,8.442167 4.918436,0 8.97862,-4.258687 8.631778,-9.053734 l -0.08247,-1.137661 0.753023,-0.201047 c 0.414069,-0.11046 2.086423,-0.561088 3.716359,-1.001623 7.767438,-2.09937 11.639692,-3.062495 11.761247,-2.925415 0.07319,0.08253 0.240795,0.691594 0.372599,1.353757 0.957599,4.810822 3.414278,10.542506 6.456377,15.064075 5.977409,8.884419 7.504466,12.800447 7.487494,19.201787 -0.01958,7.38902 -2.231579,14.67654 -7.597046,25.05323 h 19.348061 c 2.649074,0.0129 5.298245,-0.002 7.947374,-0.005 2.649131,-0.002 5.298134,0.007 7.946773,0.0705 1.473418,0.0353 5.719146,-0.10036 7.192546,-0.0517 3.613056,-0.26706 7.282467,-0.0622 10.952384,0.0182 1.248638,-4.18249 1.576515,-4.3571 2.227629,-4.86926 1.126013,-0.88573 4.639081,-1.03157 9.901861,-0.41052 5.58005,0.6585 8.26549,0.45916 10.83548,-0.80539 2.18809,-1.07665 3.8872,-3.03403 4.75711,-5.47944 0.39019,-1.09697 0.42825,-1.5163 0.42857,-4.72279 l 6e-4,-3.51953 0.78071,-1.76669 c 0.98687,-2.23342 1.4173,-4.02658 1.28454,-5.35242 -0.0956,-0.95526 -0.0674,-1.04452 0.55559,-1.73418 0.87382,-0.96721 1.3527,-2.06896 1.35736,-3.12646 0.002,-0.47662 -0.21279,-2.21431 -0.47733,-3.862029 -0.26449,-1.647713 -0.41003,-3.056991 -0.32384,-3.131877 0.0863,-0.07489 1.07347,-0.449505 2.19406,-0.832479 4.50269,-1.538855 6.5215,-2.926774 6.7116,-4.613245 0.16256,-1.44225 -0.49499,-2.60899 -6.79888,-12.068838 -1.90076,-2.852388 -3.77334,-5.753769 -4.16119,-6.44795 l -0.70487,-1.262262 0.59473,-2.905549 c 0.32711,-1.597917 0.64956,-3.015982 0.71689,-3.15114 0.0673,-0.13516 0.58098,-0.406059 1.14128,-0.60254 2.04661,-0.717706 3.03188,-1.32443 3.40997,-2.098954 0.34357,-0.703682 0.34434,-0.786292 0.0342,-2.870638 -0.17555,-1.180471 -0.43725,-2.771144 -0.58206,-3.535176 -0.14482,-0.764033 -0.47608,-2.556223 -0.73617,-3.982416 -1.051,-5.763018 -2.98138,-11.130085 -5.48364,-15.24887 -0.39458,-0.649489 -0.71691,-1.261523 -0.71691,-1.359775 0,-0.09825 0.20585,-0.448413 0.45747,-0.778305 1.15185,-1.510149 1.75184,-4.249196 1.38205,-6.306494 -0.93548,-5.204339 -6.56613,-8.474148 -11.41514,-6.629133 l -0.96249,0.366579 -0.9823,-0.843523 C 103.48022,15.511984 94.774771,11.186681 85.289537,8.6652564 L 83.40728,8.1650468 83.172525,7.0153471 C 82.473084,3.5864141 79.47642,0.84279302 75.807825,0.27244859 75.380217,0.20596973 74.956743,0.17188917 74.537137,0.16951736 Z M 74.424569,5.2119437 c 0.415838,-0.01837 0.851833,0.030903 1.298377,0.1607172 3.36712,0.9788477 3.684872,5.5301181 0.479745,6.8693051 -1.526033,0.637617 -3.429535,0.188202 -4.534994,-1.070846 C 69.573985,8.7865138 71.513698,5.3405362 74.424569,5.2119437 Z M 29.924574,11.17714 c 0.930304,-0.03756 1.876999,0.248894 2.620232,0.920362 1.88884,1.706454 1.561721,4.727056 -0.634442,5.861662 -2.000309,1.033421 -4.378699,0.220991 -5.322929,-1.818451 -0.392789,-0.848383 -0.428396,-1.381323 -0.157707,-2.355982 0.439409,-1.58216 1.944339,-2.544985 3.494846,-2.607591 z m 52.621334,1.946664 2.75326,0.805392 c 7.645086,2.237387 14.579033,5.573093 19.996952,9.618954 0.93279,0.696562 1.69626,1.341354 1.69626,1.433212 0,0.09186 -0.19897,0.432349 -0.44182,0.756634 -0.24286,0.324283 -0.49984,0.781854 -0.57124,1.016671 -0.0714,0.234817 -0.18506,0.401525 -0.25281,0.370192 -0.0678,-0.03133 -1.58209,-0.783799 -3.36483,-1.671579 -5.000679,-2.490263 -9.890262,-3.977975 -15.465573,-4.705944 -3.319524,-0.433391 -10.888452,-0.435132 -14.402546,-0.003 -8.38584,1.031235 -14.681738,3.030967 -20.278657,6.440726 -0.688321,0.419339 -1.802865,1.161622 -2.476368,1.649307 l -1.224341,0.886654 -1.5536,-1.561425 -1.552997,-1.561424 0.910731,-0.783723 c 4.586316,-3.945534 10.482541,-7.618082 15.393938,-9.589458 1.834287,-0.736261 5.593638,-2.02913 5.900787,-2.02913 0.125617,0 0.473081,0.261423 0.772286,0.58087 0.870145,0.929015 2.648193,1.993463 4.029968,2.413165 1.79241,0.544427 4.231109,0.422239 5.785819,-0.289532 1.478372,-0.676821 2.857821,-1.750372 3.67001,-2.856793 z m 31.619152,12.635862 c 0.95982,-0.0374 1.92861,0.305903 2.72257,1.03774 2.0693,1.907419 1.31329,5.362255 -1.3345,6.097621 -2.06572,0.573704 -3.8782,-0.174846 -4.6915,-1.937033 -0.64517,-1.397893 -0.41041,-2.85998 0.63384,-3.949911 0.75914,-0.792359 1.70978,-1.211015 2.66959,-1.248417 z m -34.424178,4.650565 c 2.551365,-3.2e-5 5.11068,0.07864 6.228845,0.23596 3.969563,0.558504 8.194443,1.912685 10.878808,3.486419 3.573465,2.094981 7.493095,5.810667 9.734525,9.228297 1.44865,2.208846 3.33877,5.751685 3.16258,5.927875 -0.0636,0.06366 -3.48023,1.073527 -7.59283,2.244021 -4.112615,1.170493 -7.64432,2.169585 -7.848062,2.220546 -0.313643,0.07845 -0.453296,-0.114222 -0.910731,-1.256845 -0.297147,-0.742246 -0.900189,-2.129561 -1.339911,-3.083121 l -0.799372,-1.733578 0.657314,-0.766868 c 0.810186,-0.945221 1.637946,-2.666653 1.909946,-3.970979 0.824169,-3.952144 -1.158142,-7.828087 -4.923844,-9.626176 -1.43155,-0.683601 -1.470357,-0.690422 -3.76632,-0.690422 -2.240554,0 -2.360601,0.02017 -3.535778,0.598926 -1.505481,0.741423 -2.743215,1.813813 -3.671815,3.181238 l -0.710286,1.046166 -2.475165,0.619996 c -1.361279,0.341105 -4.591517,1.194134 -7.1781,1.8955 l -4.702934,1.275504 -1.224339,-0.494792 c -0.848108,-0.342583 -1.719602,-0.528306 -2.837531,-0.604346 l -1.613794,-0.109551 -1.097331,-1.666763 c -1.278338,-1.941397 -1.384158,-1.687545 1.262262,-3.038578 4.197836,-2.143048 9.746218,-3.74557 16.213173,-4.682468 1.086114,-0.157351 3.629324,-0.235927 6.18069,-0.235961 z M 41.62322,30.667259 c 0.202625,-0.07376 0.51332,0.20258 1.613793,1.224941 0.836664,0.777278 1.521697,1.497457 1.521697,1.599949 0,0.102493 -0.453386,0.68657 -1.007041,1.298378 -1.467671,1.62183 -3.62406,4.772237 -4.793224,7.002936 -3.535118,6.7448 -5.459378,15.511331 -5.283202,24.066645 l 0.0626,3.043995 -1.296571,0.327454 c -0.713097,0.180159 -1.478709,0.373744 -1.701677,0.429784 -0.525704,0.132119 -0.55066,0.07944 -0.774091,-1.664356 -0.705024,-5.502458 -0.237029,-12.081746 1.279116,-17.982869 1.518701,-5.911067 4.551935,-12.019805 8.378362,-16.874101 0.837923,-1.063009 1.65164,-2.096801 1.808219,-2.296991 0.06865,-0.08777 0.124476,-0.151179 0.192019,-0.175765 z m 43.698219,6.873518 c 2.451936,-0.0024 4.272805,2.432571 3.521333,4.709556 -0.267394,0.81021 -1.146162,1.862746 -1.866006,2.234992 -0.281716,0.145681 -0.95643,0.314242 -1.500026,0.374405 -0.838006,0.09275 -1.138727,0.03313 -1.973752,-0.390055 -3.635621,-1.842482 -2.301753,-6.924821 1.818451,-6.928898 z m 31.565581,0.263046 c 0.13572,0.04304 0.26144,0.180821 0.48335,0.446638 0.66012,0.790712 2.05947,3.347348 2.92782,5.349414 l 0.73316,1.689638 -0.56461,0.196833 c -0.7188,0.250563 -1.06483,0.249851 -1.06483,-0.0024 0,-0.363235 -2.03819,-4.49367 -2.89832,-5.873702 -0.46535,-0.746628 -0.81597,-1.377601 -0.77951,-1.401911 0.0365,-0.02431 0.31564,-0.151893 0.6206,-0.283512 0.26103,-0.112662 0.40662,-0.16403 0.54234,-0.12099 z m -65.912107,1.718531 0.827664,1.080477 c 1.23823,1.61617 1.217401,1.490975 0.390658,2.387884 -1.292656,1.402366 -2.248837,3.894102 -2.248837,5.860459 0,0.966509 0.41275,2.660735 0.937215,3.846377 0.365897,0.827177 0.366018,0.837131 0.0066,1.601755 -0.495794,1.054754 -1.238457,3.672282 -1.523502,5.368676 l -0.23596,1.405523 -1.145485,0.546559 c -1.429752,0.682357 -2.949271,2.15963 -3.729,3.625467 l -0.59652,1.121409 -1.634861,0.40089 c -0.899272,0.220543 -1.693395,0.40089 -1.76488,0.40089 -0.195311,0 -0.156192,-2.739075 0.0626,-4.385714 0.666238,-5.013988 2.053754,-9.805343 3.960143,-13.672999 1.604141,-3.254461 3.169008,-5.548879 5.985662,-8.776242 z M 10.255078,40.68349 c 4.040491,0.0082 5.199379,5.387095 1.494007,6.934917 C 9.9747954,48.359571 7.6511768,47.387034 6.9853557,45.624792 6.7065492,44.886883 6.7411839,43.347237 7.0497585,42.756561 7.6275461,41.650589 9.1265193,40.681277 10.255073,40.68349 Z m 66.193208,2.036956 c 0.06028,-3.75e-4 0.214077,0.35378 0.341901,0.786732 1.158282,3.923193 5.238135,6.779966 9.086841,6.362474 l 1.019079,-0.110751 1.165351,2.714736 c 0.640983,1.49298 1.099164,2.771786 1.018477,2.841745 -0.142448,0.123494 -4.42569,1.293762 -11.630026,3.178227 -10.272665,2.687057 -12.329454,3.224529 -15.546829,4.060065 -1.929087,0.500974 -3.566145,0.910731 -3.638108,0.910731 -0.07196,0 -0.174346,-0.113605 -0.227532,-0.252212 -0.156859,-0.408768 -2.358123,-1.788562 -3.221566,-2.019498 -0.91787,-0.245493 -0.938213,-0.332061 -0.51285,-2.173594 0.233538,-1.01106 0.623918,-2.229283 0.711489,-2.220547 0.0131,0.0013 0.552085,0.168366 1.197855,0.370794 3.547445,1.112007 7.553559,-0.422442 9.655672,-3.698301 1.261855,-1.966432 1.592716,-5.049157 0.773489,-7.205186 -0.199172,-0.524178 -0.345625,-0.952867 -0.325649,-0.952867 0.01998,0 2.28296,-0.583248 5.029184,-1.29597 2.746224,-0.712723 5.042943,-1.296198 5.103222,-1.296572 z m -18.20438,2.451689 c 1.026939,-0.04895 1.366027,0.01398 1.975556,0.367784 0.951073,0.552063 1.78845,1.804296 1.906335,2.850171 0.185243,1.643466 -1.07547,3.503168 -2.67561,3.947503 -0.855072,0.237434 -1.062763,0.232675 -1.961713,-0.04695 -1.556531,-0.484163 -2.715864,-1.998418 -2.724367,-3.558652 -0.0054,-0.979643 0.651577,-2.237031 1.53494,-2.93986 0.598496,-0.476183 0.89238,-0.569838 1.944859,-0.619996 z m 64.061154,5.575141 c 0.12486,0.124854 0.93919,4.566135 1.18822,6.480454 0.20296,1.560301 0.19862,1.843895 -0.0289,1.984586 -0.80569,0.498232 -30.071127,10.061418 -39.254125,12.827278 -5.522479,1.663335 -5.016245,1.611254 -5.663626,0.580267 -0.700038,-1.114844 -2.239879,-2.211594 -3.767524,-2.683435 -2.830561,-0.874272 -7.585128,-0.239774 -10.202231,1.361581 -1.095319,0.670205 -2.4224,2.023949 -2.891103,2.94889 -0.514391,1.015123 -0.998604,2.744951 -0.998604,3.567681 V 78.381 l -4.769147,0.897489 c -6.072505,1.142825 -8.780038,1.651804 -11.900295,2.236195 -1.375259,0.257571 -2.511637,0.469144 -2.525125,0.470113 -0.108841,0.0078 -1.638264,-4.969436 -2.008664,-6.537035 -0.610022,-2.581692 -0.605767,-2.869807 0.04213,-3.014501 0.488032,-0.108992 2.935622,-0.743608 3.611622,-0.936615 0.223405,-0.06378 0.324968,0.01178 0.32625,0.243785 0.0038,0.704881 0.921932,2.26546 2.029731,3.449701 1.373312,1.468075 3.047454,2.38389 4.993069,2.73159 4.556828,0.814351 9.198496,-2.681362 9.855514,-7.422485 0.104647,-0.755146 0.14399,-1.602286 0.08788,-1.882859 -0.09423,-0.471174 -0.04217,-0.525591 0.679587,-0.711489 0.429791,-0.110693 1.990028,-0.52357 3.467157,-0.917352 1.477128,-0.393784 4.394508,-1.145541 6.482862,-1.670376 12.431603,-3.124244 33.996172,-9.278627 49.710962,-14.187054 0.80367,-0.251019 1.49416,-0.423018 1.53435,-0.382831 z M 51.833275,65.604285 c 0.991696,-0.01198 1.910178,0.400133 2.634679,1.202069 0.814161,0.90118 1.034671,1.428079 1.029313,2.45831 -0.0077,1.472698 -0.892863,2.787566 -2.261478,3.359411 -2.953716,1.234141 -6.069815,-1.764849 -4.856427,-4.674041 0.44579,-1.068817 1.339233,-1.870452 2.442058,-2.191051 0.342429,-0.09955 0.681291,-0.150706 1.011855,-0.154698 z M 9.6627718,76.278434 c 0.9070602,0.05776 1.3007112,0.184041 1.8280832,0.586287 2.391692,1.824233 1.638082,5.603164 -1.276107,6.399192 -0.4074839,0.11131 -0.9074336,0.198988 -1.1111756,0.195028 -1.4897269,-0.02854 -3.3084721,-1.579595 -3.5219345,-3.003064 -0.167296,-1.115603 0.00303,-1.806159 0.675976,-2.735201 0.7711266,-1.06451 1.8915476,-1.538619 3.4051579,-1.442242 z"
     sodipodi:nodetypes="ssscscccccsscsscccsscccsssssssccssssssscccsscccssssscccsccssscccccccccssscccssccssssssccccccsssssssssssssccsssscsccscccccsssssccsssssssssscsssccsscsscccccccccsssssssscccsssssscsssccssccsssssssccsssscccsccscsccssscsssscccsssssssssssssssssssscsssssssssssccscssscsssssssssssscssssssscscs" /><path
     style="fill:#ffffff;stroke:none;stroke-width:0.907838"
     d="m 50.869801,72.715744 c -2.019996,-0.65608 -3.154024,-2.781359 -2.462009,-4.614051 0.313775,-0.830985 1.046451,-1.634466 1.865075,-2.045319 0.556789,-0.279442 0.784145,-0.32803 1.546206,-0.330438 0.7259,-0.0024 0.997593,0.04843 1.448914,0.270523 0.670523,0.329957 1.365501,1.003401 1.802164,1.746324 0.283147,0.481738 0.322639,0.658334 0.322562,1.442379 -7.4e-5,0.7331 -0.05321,1.006777 -0.296101,1.525021 -0.351348,0.749652 -1.013282,1.425327 -1.743493,1.779686 -0.56625,0.274791 -1.946243,0.400312 -2.483318,0.225875 z"
     id="path9" /><path
     style="fill:#ffffff;stroke:none;stroke-width:0.907838"
     d="m 41.367052,81.555155 c -0.0639,-0.168068 -0.443497,-1.386765 -0.843552,-2.708216 -1.230861,-4.065747 -1.605368,-5.944638 -1.240399,-6.223016 0.132644,-0.101174 3.701638,-1.043403 3.936685,-1.0393 0.06142,0.0011 0.197229,0.290849 0.301787,0.643949 0.104558,0.353099 0.453131,1.041326 0.774607,1.529392 1.728259,2.623849 4.271272,4.146021 7.148047,4.278609 1.547556,0.07132 2.580796,-0.149143 4.073282,-0.869135 3.020388,-1.457071 4.956688,-4.571924 4.956688,-7.973637 0,-0.798227 0.03191,-0.967132 0.199697,-1.056926 0.209902,-0.112337 4.613008,-1.27898 11.638281,-3.083666 12.840981,-3.298658 29.692025,-8.092403 45.341685,-12.898697 4.15694,-1.27667 4.48544,-1.367396 4.58234,-1.26556 0.19092,0.20063 1.15742,5.655069 1.29555,7.311377 l 0.073,0.875929 -0.43477,0.183198 c -2.3129,0.974584 -30.081652,10.025007 -39.131556,12.753798 -3.953891,1.192204 -4.16078,1.248193 -4.612307,1.248193 -0.345443,0 -0.430649,-0.0634 -0.746307,-0.555313 -0.733039,-1.142339 -2.192417,-2.234372 -3.675037,-2.749976 -2.472552,-0.859867 -6.916002,-0.449694 -9.659223,0.89164 -1.683089,0.822968 -3.23891,2.295668 -3.831331,3.626644 -0.381262,0.856568 -0.780372,2.297433 -0.870979,3.144404 l -0.07786,0.727829 -9.398733,1.760553 c -5.169303,0.968307 -9.462797,1.758969 -9.541098,1.75703 -0.0783,-0.0019 -0.194643,-0.141034 -0.258543,-0.309103 z"
     id="path10" /><path
     style="fill:#ffffff;stroke:none;stroke-width:0.907838"
     d="m 58.078303,63.146764 c -0.335426,-0.511923 -1.971048,-1.502455 -3.554148,-2.152385 -0.170638,-0.07005 -0.343215,-0.213275 -0.383506,-0.31827 -0.08968,-0.233696 0.214601,-1.753627 0.587161,-2.932988 l 0.275492,-0.872088 0.900059,0.261673 c 1.402303,0.407688 2.494445,0.52206 3.633561,0.380508 2.385099,-0.296384 4.467227,-1.476907 5.906534,-3.348882 1.668621,-2.170221 2.154399,-5.311299 1.231728,-7.96444 -0.151246,-0.434914 -0.258032,-0.807715 -0.237299,-0.828448 0.108421,-0.108423 9.958745,-2.577129 10.015254,-2.510041 0.03668,0.04355 0.181015,0.405847 0.320734,0.805101 0.974767,2.78543 3.033527,4.866653 5.783601,5.846709 0.915382,0.326218 1.086329,0.349907 2.65231,0.367541 l 1.673868,0.01884 0.761119,1.769409 c 0.418619,0.973175 0.906664,2.180821 1.084543,2.683659 l 0.323424,0.914252 -0.52483,0.169801 c -0.643945,0.208341 -4.435798,1.240809 -8.398201,2.286715 -5.112123,1.349383 -15.788246,4.133183 -18.895854,4.927097 l -2.981592,0.76172 z"
     id="path11" /><path
     style="fill:#ffffff;stroke:none;stroke-width:0.907838"
     d="m 57.796609,52.310116 c -1.220497,-0.327978 -2.127795,-1.099921 -2.660568,-2.263648 -0.610354,-1.333196 -0.214223,-2.870343 1.033605,-4.01079 0.699236,-0.639059 1.202481,-0.805669 2.433534,-0.805669 0.660112,0 0.936125,0.05684 1.401131,0.288568 1.113956,0.555109 1.928704,1.797473 2.007941,3.061803 0.06737,1.075021 -0.263866,1.872213 -1.14387,2.752942 -0.57962,0.580102 -0.804323,0.723331 -1.445443,0.921353 -0.878835,0.271444 -0.82886,0.26974 -1.62633,0.05544 z"
     id="path12" /><path
     style="fill:#ffffff;stroke:none;stroke-width:0.907838"
     d="m 84.344877,44.728975 c -1.14845,-0.291602 -2.367592,-1.379246 -2.713569,-2.420882 -0.24692,-0.74341 -0.174077,-1.888019 0.164687,-2.587813 0.606497,-1.252857 1.802157,-1.996464 3.320738,-2.065245 0.802632,-0.03635 0.991177,-0.0052 1.588341,0.26284 1.39704,0.626954 2.324709,2.075019 2.217458,3.461385 -0.093,1.20215 -0.955377,2.489229 -2.015311,3.007807 -0.730951,0.357622 -1.890887,0.512398 -2.562344,0.341908 z"
     id="path13" /><path
     style="fill:#ffffff;stroke:none;stroke-width:0.907838"
     d="m 93.931443,53.466337 c -0.08981,-0.138202 -0.471365,-0.975685 -0.847899,-1.861071 -0.376534,-0.885388 -0.907278,-2.086298 -1.179428,-2.668691 -0.272153,-0.582393 -0.494827,-1.115295 -0.494827,-1.184227 0,-0.06893 0.203775,-0.371928 0.45283,-0.673317 0.904554,-1.09464 1.708724,-2.747865 2.013032,-4.138441 0.200911,-0.918091 0.177342,-2.843779 -0.0461,-3.766931 -0.37832,-1.562992 -1.231852,-3.024473 -2.43459,-4.168685 -0.901539,-0.857668 -1.522733,-1.280105 -2.748172,-1.868863 l -0.978241,-0.469993 h -2.51278 -2.512777 l -0.88352,0.421844 c -1.661906,0.793488 -2.98663,1.947838 -4.086199,3.56067 l -0.502555,0.737139 -3.517889,0.90972 c -1.93484,0.500346 -5.151195,1.354508 -7.147457,1.898134 -3.510558,0.956006 -3.642387,0.983007 -4.020447,0.823471 -1.415595,-0.597369 -2.485253,-0.837954 -4.39261,-0.987981 l -0.874723,-0.0688 -0.923857,-1.413518 c -0.508121,-0.777433 -0.95577,-1.504254 -0.994777,-1.615154 -0.112599,-0.320146 0.338391,-0.672307 1.798023,-1.403996 4.368414,-2.189821 9.168115,-3.640622 15.439057,-4.666753 1.570249,-0.256945 2.125187,-0.28856 5.974829,-0.340384 4.960819,-0.06679 7.005352,0.04723 9.3252,0.520005 4.084085,0.832323 7.385955,2.085491 9.939433,3.772334 3.030071,2.001689 5.880931,4.695497 8.069721,7.625186 1.43787,1.9246 4.0387,6.659893 3.74654,6.821315 -0.26095,0.144185 -15.196532,4.458269 -15.434753,4.458269 -0.03397,0 -0.135249,-0.113075 -0.22506,-0.25128 z"
     id="path14" /><path
     style="fill:#ffffff;stroke:none;stroke-width:0.907838"
     d="m 40.203261,66.534005 c -0.04086,-0.327064 -0.01974,-1.329674 0.04696,-2.228022 0.310949,-4.1886 1.635599,-9.537475 3.355134,-13.547863 1.651506,-3.85173 3.717833,-6.989257 7.270274,-11.039247 0.0912,-0.103979 1.732381,1.962639 1.817701,2.288905 0.03462,0.132379 -0.178276,0.484418 -0.613508,1.014486 -0.366588,0.446466 -0.888177,1.264058 -1.159089,1.816868 -1.27712,2.606053 -1.31554,4.809805 -0.13589,7.795024 0.314407,0.795637 0.334748,0.917292 0.206375,1.234324 -0.742723,1.834253 -1.508215,4.55554 -1.796852,6.387725 l -0.124,0.787116 -0.859226,0.413759 c -1.771666,0.853143 -3.20874,2.238925 -4.146055,3.998079 l -0.459949,0.863232 -1.476984,0.351642 c -0.81234,0.193405 -1.561044,0.375716 -1.663785,0.40514 -0.152098,0.04356 -0.200609,-0.05699 -0.261104,-0.541168 z"
     id="path15" /><path
     style="fill:#ffffff;stroke:none;stroke-width:0.907838"
     d="m 30.326561,69.527073 c -0.170847,-0.20586 -0.451967,-2.609377 -0.562099,-4.805842 -0.276262,-5.509781 0.579855,-11.975513 2.271442,-17.154785 1.35554,-4.150362 3.582649,-8.668057 5.969112,-12.108352 0.860446,-1.240409 3.593401,-4.746358 3.69988,-4.746358 0.260472,0 2.911581,2.541783 2.909332,2.789354 -7.94e-4,0.09358 -0.282416,0.4968 -0.625703,0.896054 -4.800782,5.583473 -7.8442,12.072943 -9.362363,19.963339 -0.746496,3.879774 -0.975376,6.475458 -0.967801,10.97565 l 0.0059,3.521787 -1.614625,0.399928 c -1.21148,0.300075 -1.641711,0.367295 -1.723102,0.269225 z"
     id="path16" /><path
     style="fill:#ffffff;stroke:none;stroke-width:0.907838"
     d="M 9.2506487,47.598678 C 8.3266737,47.268528 7.6304753,46.67843 7.1807596,45.844244 6.8060588,45.149205 6.7628325,43.673788 7.0945768,42.902625 c 0.3090003,-0.718291 1.0261318,-1.380257 1.987648,-1.834748 0.6297044,-0.297648 0.7897032,-0.327885 1.4754242,-0.278823 2.365664,0.169262 3.924466,2.481252 3.168595,4.699611 -0.231719,0.680056 -1.04644,1.577023 -1.764571,1.942701 -0.762544,0.388294 -1.896684,0.458287 -2.7110243,0.167312 z"
     id="path17" /><path
     style="fill:#ffffff;stroke:none;stroke-width:0.907838"
     d="M 8.3200882,83.243869 C 7.3706,82.902319 6.3439555,82.014612 5.9033927,81.154227 c -0.7820231,-1.527228 0.01224,-3.612719 1.6905907,-4.438968 0.6432659,-0.316679 0.841337,-0.35997 1.6499169,-0.360611 1.1967607,-0.0011 1.7238347,0.157808 2.3480007,0.707221 0.653002,0.574794 0.923772,1.018879 1.143001,1.874615 0.205929,0.80382 0.103734,1.624007 -0.304101,2.440615 -0.708744,1.419122 -2.7624601,2.351762 -4.1107128,1.86677 z"
     id="path18" /><path
     style="fill:#ffffff;stroke:none;stroke-width:0.907838"
     d="m 113.38041,32.935482 c -1.96321,-0.462528 -3.22726,-2.623243 -2.65036,-4.53041 0.45086,-1.490467 2.32114,-2.733134 3.87252,-2.573017 1.25594,0.129625 2.58821,1.071999 3.07834,2.177454 0.73491,1.657567 0.0887,3.683596 -1.4388,4.510898 -0.8494,0.460041 -1.97678,0.623562 -2.8617,0.415075 z"
     id="path19" /><path
     style="fill:#ffffff;stroke:none;stroke-width:0.907838"
     d="m 119.35034,45.14625 c -0.1815,-0.604481 -1.99923,-4.228537 -2.84162,-5.66542 l -0.71886,-1.226177 0.44164,-0.197731 c 0.2429,-0.10875 0.50732,-0.197729 0.58758,-0.197729 0.30613,0 1.28321,1.482966 2.37761,3.608626 0.64474,1.25226 1.69587,3.574574 1.69587,3.746749 0,0.11435 -0.76805,0.350477 -1.13999,0.350477 -0.22269,0 -0.30095,-0.08149 -0.40223,-0.418795 z"
     id="path20" /><path
     style="fill:#ffffff;stroke:none;stroke-width:0.907838"
     d="m 46.97397,28.10024 -1.491628,-1.494705 1.381501,-1.150725 c 4.412223,-3.675169 9.734933,-7.001992 14.22459,-8.890709 1.554692,-0.654031 5.619747,-2.102342 6.211107,-2.212914 0.375161,-0.07015 0.452922,-0.03167 1.096367,0.542464 1.338586,1.194399 3.139496,2.176535 4.530503,2.470737 1.000998,0.211713 3.016814,0.212345 4.013258,0.0013 1.705314,-0.361255 3.85041,-1.78379 5.006835,-3.320318 l 0.636149,-0.845243 1.705102,0.495782 c 7.294557,2.120991 13.175234,4.723052 18.448456,8.163007 1.37548,0.897285 4.01462,2.841674 4.14636,3.054831 0.0342,0.05529 -0.0845,0.31453 -0.26364,0.576096 -0.17917,0.261566 -0.43933,0.701724 -0.57813,0.978128 -0.1388,0.276408 -0.26595,0.518126 -0.28254,0.537154 -0.0166,0.01902 -0.78951,-0.345704 -1.71759,-0.810514 -5.446265,-2.727679 -9.231268,-4.070882 -14.139045,-5.017597 -2.356649,-0.4546 -3.953825,-0.620509 -7.143287,-0.74202 -13.496243,-0.514178 -24.410822,2.244499 -33.077477,8.360387 -0.623205,0.439783 -1.151585,0.799605 -1.174181,0.799605 -0.0226,0 -0.712314,-0.672618 -1.53271,-1.494705 z"
     id="path21" /><path
     style="fill:#ffffff;stroke:none;stroke-width:0.907838"
     d="M 73.791997,12.341638 C 72.880449,12.086623 72.39373,11.791009 71.780293,11.119812 71.070406,10.343082 70.809989,9.6274461 70.8872,8.6655574 70.988022,7.4095101 71.843859,6.2198125 73.083983,5.6118071 74.410815,4.9612906 76.316487,5.326559 77.329516,6.425567 c 0.678204,0.7357653 0.931408,1.3221063 0.986917,2.2853979 0.03873,0.6720223 5e-5,0.9653847 -0.195662,1.4840711 -0.61818,1.638355 -2.611758,2.626953 -4.328774,2.146602 z"
     id="path22" /><path
     style="fill:#ffffff;stroke:none;stroke-width:0.907838"
     d="m 29.092388,18.217392 c -1.077256,-0.353815 -1.980509,-1.138138 -2.440413,-2.119087 -0.76122,-1.623639 -0.0136,-3.567901 1.7145,-4.458755 0.435784,-0.224651 0.770588,-0.298661 1.524762,-0.337056 0.868598,-0.04422 1.032428,-0.01905 1.619345,0.248811 0.851437,0.38858 1.512173,1.047353 1.886037,1.88043 0.267354,0.595747 0.295476,0.77197 0.251603,1.576621 -0.07503,1.376081 -0.612613,2.237651 -1.786691,2.86348 -0.602393,0.321099 -0.831028,0.379244 -1.596512,0.406012 -0.491387,0.01719 -1.019072,-0.01002 -1.172631,-0.06046 z"
     id="path23" /></svg>
