<?xml version="1.0" encoding="UTF-8" standalone="no"?>
<!-- Created with Inkscape (http://www.inkscape.org/) -->

<svg
   width="512"
   height="512"
   viewBox="0 0 512 512"
   version="1.1"
   id="svg1"
   xml:space="preserve"
   xmlns="http://www.w3.org/2000/svg"
   xmlns:svg="http://www.w3.org/2000/svg"><defs
     id="defs1" /><g
     id="layer1"><path
       style="fill:#ffffff;stroke:#ffffff;stroke-width:1;stroke-linecap:round;stroke-linejoin:round;stroke-dasharray:none"
       d="M 153.64221,509.04534 H 509.88953 V 7.5976917 L 471.90107,1.6883759 234.68425,3.3767519 221.17725,319.94724 156.17477,302.21929 137.60264,343.5845 V 462.615 Z"
       id="path15" /><path
       id="path13"
       style="fill:#999999;stroke-width:1.37017"
       d="M 207.22461,-0.4179688 C 200.86786,27.080395 196.03546,59.13064 193.20117,94.292969 c -2.73471,33.927191 -1.1251,180.730351 2.13867,195.078121 0.62095,2.72981 0.34195,3.08621 -1.72656,2.20508 -19.14986,-8.15716 -40.73248,-4.70126 -55.61914,8.9043 -13.78055,12.59465 -18.74214,28.19291 -18.74414,58.93945 -0.004,42.87847 3.2286,85.92334 8.32617,110.89453 2.61751,12.82223 7.02453,26.6527 12.37891,40.24024 h 33.93164 c -9.41507,-18.3408 -16.26284,-40.8796 -18.95899,-63.44531 -2.51244,-21.02803 -4.54346,-99.31166 -2.79492,-107.73438 2.79447,-13.46076 13.46836,-21.30109 25.8711,-19.00195 7.66158,1.42026 13.43963,6.81037 22.85937,21.32617 l 8.69141,13.39453 1.16601,19.63281 c 0.64086,10.79781 1.05072,19.80666 0.91211,20.01953 -0.13868,0.21273 -4.49559,-6.46521 -9.68359,-14.83789 -5.18803,-8.37269 -12.41095,-18.56448 -16.05078,-22.65039 -5.6029,-6.28955 -7.34716,-7.42969 -11.36719,-7.42969 -6.80914,0 -11.47461,5.01602 -11.47461,12.33594 0,4.39945 1.78046,8.61931 8.25391,19.56836 4.53926,7.67761 10.52559,18.37275 13.30273,23.76758 l 5.04883,9.80859 -3.64649,5.28125 c -6.34113,9.18278 -9.66677,18.43935 -10.33593,28.77539 -1.48915,23.00142 10.80292,47.21145 29.75,61.18946 h 49.57422 c -9.13777,-46.16319 -12.57912,-96.50775 -12.94922,-181.2793 -0.19707,-45.13725 -0.0678,-47.76584 2.86523,-58.23242 3.61865,-12.91341 13.01363,-32.65818 17.83203,-37.47656 8.15103,-8.15105 9.54175,-18.68083 6.45899,-48.90821 C 260.06753,95.005184 285.36588,28.841939 336.76562,7.982422 359.72798,-1.3363712 384.86705,-2.3496634 425.13086,4.4160156 460.32504,10.329819 487.10558,13.836454 513.33398,15.9375 512.49852,6.401904 510.39534,-0.4179688 507.87109,-0.4179688 Z M 320.96484,303.68945 c -16.62771,1.67638 -30.94506,12.57256 -40.55859,30.86719 -5.76195,10.96502 -6.06317,13.54489 -2.15625,18.51172 3.38408,4.30215 7.0824,4.54625 15.32812,1.01172 17.29667,-7.41418 46.9635,-9.62756 68.1543,-5.08594 5.65195,1.21135 12.43274,2.24694 15.07031,2.30274 3.63516,0.077 1.82312,0.91691 -7.49023,3.4707 -23.21697,6.36629 -47.85204,18.3622 -51.94727,25.29492 -5.68733,9.62789 0.68939,21.73468 11.48243,21.80078 5.36022,0.0328 14.87951,-4.21334 34.45117,-15.36719 l 13.21484,-7.53125 0.11133,7.92969 c 0.3039,21.58989 11.73307,30.07331 40.50391,30.07031 15.86611,-0.002 21.45988,-1.9902 26.39257,-9.375 4.20985,-6.30267 8.68903,-18.71967 9.63477,-26.70507 l 0.78906,-6.65235 3.52344,4.58203 c 8.80512,11.45213 18.85584,20.59587 27.09961,24.6543 7.43393,3.65966 9.72055,4.16041 16.43555,3.60352 6.02089,-0.49928 10.18772,-2.57359 12.74414,-6.19727 v -57.73828 c -4.68617,-1.33415 -10.68508,-3.20877 -20.48047,-6.38867 -12.43423,-4.03657 -25.99977,-8.28093 -30.14453,-9.43164 -26.58058,-7.37951 -131.06602,-24.74525 -142.15821,-23.62696 z m -105.02539,137.95703 1.75782,18.83204 c 0.96681,10.35706 2.2426,21.45153 2.83398,24.65429 0.5914,3.20274 0.60558,5.82227 0.0312,5.82227 -1.56017,0 -9.18965,-9.03065 -11.65234,-13.79297 -5.22216,-10.09853 -3.71413,-25.22124 3.17382,-31.82031 z" /><path
       style="fill:none;stroke:#ffffff;stroke-width:32.8264;stroke-linecap:round;stroke-linejoin:round;stroke-dasharray:none"
       d="m 184.53886,197.28309 c -81.3131,-0.6665 -151.962185,43.98906 -116.637642,154.62819 35.324542,110.63913 18.789985,44.11269 29.106145,90.96528 12.994737,59.01777 6.763777,55.73949 6.763777,55.73949"
       id="path14-5" /><rect
       style="fill:#ffffff;stroke:#000000;stroke-width:23.239;stroke-linecap:round;stroke-linejoin:round;stroke-dasharray:none"
       id="rect13"
       width="202.13081"
       height="41.91341"
       x="190.25168"
       y="174.0239"
       ry="19.770475" /><rect
       style="fill:#ffffff;stroke:#000000;stroke-width:18.6397;stroke-linecap:round;stroke-linejoin:round;stroke-dasharray:none"
       id="rect13-1"
       width="97.392685"
       height="51.613598"
       x="145.86119"
       y="-277.15002"
       ry="24.185274"
       transform="matrix(-0.0052213,0.99998637,-0.99999973,-7.370348e-4,0,0)"
       rx="6.8969965" /><rect
       style="fill:none;stroke:#000000;stroke-width:18.088;stroke-linecap:round;stroke-linejoin:round;stroke-dasharray:none"
       id="rect14"
       width="0.94256252"
       height="40.530704"
       x="322.33179"
       y="175.89844"
       ry="0.47128725" /><path
       style="fill:none;stroke:#000000;stroke-width:18.088;stroke-linecap:round;stroke-linejoin:round;stroke-dasharray:none"
       d="m 188.3427,198.3131 c -81.31309,-0.6665 -149.238107,43.15599 -116.637636,154.62818 16.819684,57.51227 21.177708,50.082 28.509216,110.06707 7.33151,59.98508 4.37605,37.83156 4.37605,37.83156"
       id="path14" /></g><ellipse
     style="fill:#ffffff;stroke:#000000;stroke-width:17.4;stroke-linecap:round;stroke-dasharray:none"
     id="path1"
     cx="386.21439"
     cy="51.037601"
     rx="17.311001"
     ry="17.609465" /><ellipse
     style="fill:#ffffff;stroke:#000000;stroke-width:17.4;stroke-linecap:round;stroke-dasharray:none"
     id="path2"
     cx="399.0484"
     cy="473.3663"
     rx="16.415604"
     ry="14.326344" /><ellipse
     style="fill:#ffffff;stroke:#000000;stroke-width:17.4;stroke-linecap:round;stroke-dasharray:none"
     id="path3"
     cx="472.76938"
     cy="144.15884"
     rx="16.117138"
     ry="15.818672" /><circle
     style="fill:#ffffff;stroke:#000000;stroke-width:17.4;stroke-linecap:round;stroke-dasharray:none"
     id="path4"
     cx="444.41516"
     cy="283.24377"
     r="17.012535" /><path
     style="fill:none;stroke:#000000;stroke-width:17.4;stroke-linecap:round;stroke-dasharray:none"
     d="M 249.51717,142.66652 V 87.748862 l 22.08645,-29.249621 91.33045,-1.193862"
     id="path5" /><path
     style="fill:#ffffff;stroke:#000000;stroke-width:17.4;stroke-linecap:round;stroke-dasharray:none"
     d="m 340.84762,219.07369 14.92328,43.57596 18.50486,19.1018 52.52993,-1.7908"
     id="path6" /><path
     style="fill:#ffffff;stroke:#000000;stroke-width:17.4;stroke-linecap:round;stroke-dasharray:none"
     d="m 398.153,196.39031 h 28.05576 l 31.63734,-36.41279"
     id="path7" /><path
     style="fill:none;stroke:#000000;stroke-width:17.4;stroke-linecap:round;stroke-dasharray:none"
     d="m 384.42359,488.28959 -17.90794,10.14782 -53.72379,-0.59693 -47.15755,-46.56062 0.59693,-17.311 -20.89259,-10.74476 -2.38772,-41.18824 10.74476,-15.52021 -2.38772,-122.37086"
     id="path8" /></svg>
