<?xml version="1.0" encoding="UTF-8" standalone="no"?>
<!-- Created with Inkscape (http://www.inkscape.org/) -->

<svg
   width="512"
   height="512"
   viewBox="0 0 512 512"
   version="1.1"
   id="svg1"
   xml:space="preserve"
   xmlns="http://www.w3.org/2000/svg"
   xmlns:svg="http://www.w3.org/2000/svg"><defs
     id="defs1" /><g
     id="layer1"><path
       style="fill:#ffffff;stroke:#ffffff;stroke-width:1;stroke-linecap:round;stroke-linejoin:round;stroke-dasharray:none"
       d="M 153.64221,509.04534 H 509.88953 V 7.5976917 L 471.90107,1.6883759 234.68425,3.3767519 221.17725,319.94724 156.17477,302.21929 137.60264,343.5845 V 462.615 Z"
       id="path15" /><path
       id="path13"
       style="fill:#999999;stroke-width:1.37017"
       d="M 207.22461,-0.4179688 C 200.86786,27.080395 196.03546,59.13064 193.20117,94.292969 c -2.73471,33.927191 -1.1251,180.730351 2.13867,195.078121 0.62095,2.72981 0.34195,3.08621 -1.72656,2.20508 -19.14986,-8.15716 -40.73248,-4.70126 -55.61914,8.9043 -13.78055,12.59465 -18.74214,28.19291 -18.74414,58.93945 -0.004,42.87847 3.2286,85.92334 8.32617,110.89453 2.61751,12.82223 7.02453,26.6527 12.37891,40.24024 h 33.93164 c -9.41507,-18.3408 -16.26284,-40.8796 -18.95899,-63.44531 -2.51244,-21.02803 -4.54346,-99.31166 -2.79492,-107.73438 2.79447,-13.46076 13.46836,-21.30109 25.8711,-19.00195 7.66158,1.42026 13.43963,6.81037 22.85937,21.32617 l 8.69141,13.39453 1.16601,19.63281 c 0.64086,10.79781 1.05072,19.80666 0.91211,20.01953 -0.13868,0.21273 -4.49559,-6.46521 -9.68359,-14.83789 -5.18803,-8.37269 -12.41095,-18.56448 -16.05078,-22.65039 -5.6029,-6.28955 -7.34716,-7.42969 -11.36719,-7.42969 -6.80914,0 -11.47461,5.01602 -11.47461,12.33594 0,4.39945 1.78046,8.61931 8.25391,19.56836 4.53926,7.67761 10.52559,18.37275 13.30273,23.76758 l 5.04883,9.80859 -3.64649,5.28125 c -6.34113,9.18278 -9.66677,18.43935 -10.33593,28.77539 -1.48915,23.00142 10.80292,47.21145 29.75,61.18946 h 49.57422 c -9.13777,-46.16319 -12.57912,-96.50775 -12.94922,-181.2793 -0.19707,-45.13725 -0.0678,-47.76584 2.86523,-58.23242 3.61865,-12.91341 13.01363,-32.65818 17.83203,-37.47656 8.15103,-8.15105 9.54175,-18.68083 6.45899,-48.90821 C 260.06753,95.005184 285.36588,28.841939 336.76562,7.982422 359.72798,-1.3363712 384.86705,-2.3496634 425.13086,4.4160156 460.32504,10.329819 487.10558,13.836454 513.33398,15.9375 512.49852,6.401904 510.39534,-0.4179688 507.87109,-0.4179688 Z M 320.96484,303.68945 c -16.62771,1.67638 -30.94506,12.57256 -40.55859,30.86719 -5.76195,10.96502 -6.06317,13.54489 -2.15625,18.51172 3.38408,4.30215 7.0824,4.54625 15.32812,1.01172 17.29667,-7.41418 46.9635,-9.62756 68.1543,-5.08594 5.65195,1.21135 12.43274,2.24694 15.07031,2.30274 3.63516,0.077 1.82312,0.91691 -7.49023,3.4707 -23.21697,6.36629 -47.85204,18.3622 -51.94727,25.29492 -5.68733,9.62789 0.68939,21.73468 11.48243,21.80078 5.36022,0.0328 14.87951,-4.21334 34.45117,-15.36719 l 13.21484,-7.53125 0.11133,7.92969 c 0.3039,21.58989 11.73307,30.07331 40.50391,30.07031 15.86611,-0.002 21.45988,-1.9902 26.39257,-9.375 4.20985,-6.30267 8.68903,-18.71967 9.63477,-26.70507 l 0.78906,-6.65235 3.52344,4.58203 c 8.80512,11.45213 18.85584,20.59587 27.09961,24.6543 7.43393,3.65966 9.72055,4.16041 16.43555,3.60352 6.02089,-0.49928 10.18772,-2.57359 12.74414,-6.19727 v -57.73828 c -4.68617,-1.33415 -10.68508,-3.20877 -20.48047,-6.38867 -12.43423,-4.03657 -25.99977,-8.28093 -30.14453,-9.43164 -26.58058,-7.37951 -131.06602,-24.74525 -142.15821,-23.62696 z m -105.02539,137.95703 1.75782,18.83204 c 0.96681,10.35706 2.2426,21.45153 2.83398,24.65429 0.5914,3.20274 0.60558,5.82227 0.0312,5.82227 -1.56017,0 -9.18965,-9.03065 -11.65234,-13.79297 -5.22216,-10.09853 -3.71413,-25.22124 3.17382,-31.82031 z" /><path
       style="fill:none;stroke:#ffffff;stroke-width:32.8264;stroke-linecap:round;stroke-linejoin:round;stroke-dasharray:none"
       d="m 184.53886,197.28309 c -81.3131,-0.6665 -151.962185,43.98906 -116.637642,154.62819 35.324542,110.63913 18.789985,44.11269 29.106145,90.96528 12.994737,59.01777 6.763777,55.73949 6.763777,55.73949"
       id="path14-5" /><rect
       style="fill:#ffffff;stroke:#000000;stroke-width:23.239;stroke-linecap:round;stroke-linejoin:round;stroke-dasharray:none"
       id="rect13"
       width="202.13081"
       height="41.91341"
       x="190.25168"
       y="174.0239"
       ry="19.770475" /><rect
       style="fill:#ffffff;stroke:#000000;stroke-width:18.6397;stroke-linecap:round;stroke-linejoin:round;stroke-dasharray:none"
       id="rect13-1"
       width="97.392685"
       height="51.613598"
       x="145.86119"
       y="-277.15002"
       ry="24.185274"
       transform="matrix(-0.0052213,0.99998637,-0.99999973,-7.370348e-4,0,0)"
       rx="6.8969965" /><rect
       style="fill:none;stroke:#000000;stroke-width:18.088;stroke-linecap:round;stroke-linejoin:round;stroke-dasharray:none"
       id="rect14"
       width="0.94256252"
       height="40.530704"
       x="322.33179"
       y="175.89844"
       ry="0.47128725" /><path
       style="fill:none;stroke:#000000;stroke-width:18.088;stroke-linecap:round;stroke-linejoin:round;stroke-dasharray:none"
       d="m 188.3427,198.3131 c -81.31309,-0.6665 -149.238107,43.15599 -116.637636,154.62818 16.819684,57.51227 21.177708,50.082 28.509216,110.06707 7.33151,59.98508 4.37605,37.83156 4.37605,37.83156"
       id="path14" /></g><path
     style="fill:none;stroke:#000000;stroke-width:14.276;stroke-linecap:round;stroke-dasharray:none"
     d="m 256.68034,143.26345 -0.59693,-29.84655 10.14783,-19.101797 51.33607,-0.596931 13.13248,-16.117138"
     id="path2" /><path
     style="fill:none;stroke:#000000;stroke-width:14.276;stroke-linecap:round;stroke-dasharray:none"
     d="M 346.81693,167.14069 346.22,154.60514 365.91872,137.89107 v -17.90793"
     id="path3" /><path
     style="fill:#ffffff;stroke:none;stroke-width:8.52179;stroke-linecap:round;stroke-dasharray:none"
     d="m 354.85695,113.52224 c -4.5703,-4.00475 -9.53142,-9.59571 -12.84661,-14.477551 -2.66879,-3.929967 -7.13203,-12.587923 -7.13203,-13.834975 0,-0.445772 0.67155,-1.720726 1.49233,-2.833231 2.0876,-2.829593 2.07613,-6.974688 -0.0262,-9.473193 -0.8352,-0.992578 -2.04398,-1.971456 -2.68619,-2.175284 -1.11502,-0.353892 -1.16764,-0.999243 -1.16764,-14.318023 0,-12.76621 0.0885,-13.973906 1.04463,-14.260067 0.57454,-0.171952 8.83457,-2.617705 18.35562,-5.435007 9.52105,-2.817303 17.64678,-5.238166 18.05717,-5.379697 0.59224,-0.204246 0.74616,8.301178 0.74616,41.231646 0,40.833962 -0.0182,41.479212 -1.15462,40.871042 -0.63504,-0.33987 -2.40792,-0.61793 -3.93974,-0.61793 -2.37571,0 -3.0858,0.30066 -4.8305,2.04537 l -2.04538,2.04538 z"
     id="path4" /><path
     style="fill:#000000;stroke:none;stroke-width:0.608736;stroke-dasharray:none"
     d="m 377.31963,135.59473 c -6.33619,-3.66789 -11.29297,-7.06895 -16.98995,-11.65754 -3.66832,-2.95465 -12.03116,-11.24688 -14.71835,-14.5941 -9.39037,-11.69687 -14.61542,-22.721114 -16.50765,-34.829351 -0.39512,-2.528242 -0.43678,-4.814798 -0.44215,-24.271176 l -0.006,-21.479982 25.90964,-7.823922 25.90965,-7.823929 25.90965,7.823929 25.90964,7.823922 -0.006,21.479982 c -0.006,19.456378 -0.047,21.742934 -0.44211,24.271176 -1.89226,12.108237 -7.11731,23.132481 -16.50766,34.829351 -2.68722,3.34722 -11.05002,11.63945 -14.71838,14.5941 -5.74657,4.62855 -11.26052,8.39712 -17.31703,11.83551 -1.55371,0.88207 -2.85296,1.59804 -2.88722,1.59103 -0.0343,-0.007 -1.42756,-0.80305 -3.09621,-1.769 z m 3.05974,-114.168922 c -0.0532,-0.05318 -9.88212,2.859172 -21.84215,6.471806 -11.96003,3.61264 -21.8013,6.568436 -21.86947,6.568436 -0.0681,0 -0.12396,8.301513 -0.12396,18.447806 0,20.146914 0.0308,20.704997 1.442,26.090081 1.02833,3.924137 2.03257,6.510875 4.27749,11.017966 6.8871,13.827127 19.20729,26.650517 35.03606,36.467077 l 3.0542,1.8941 0.0612,-53.430313 c 0.0336,-29.386688 0.0178,-53.473818 -0.0353,-53.526959 z"
     id="path1" /><path
     style="fill:#ffffff;stroke:none;stroke-width:9.58042;stroke-linecap:round;stroke-dasharray:none"
     d="m 373.79887,123.68193 c -14.41437,-9.84572 -24.74488,-21.2234 -31.425,-34.61046 -4.89626,-9.812185 -5.3804,-12.967222 -5.3804,-35.062699 0,-17.808147 0.0913,-19.336223 1.17439,-19.660382 0.64593,-0.193313 9.93207,-2.942892 20.63588,-6.110176 10.70381,-3.167285 19.83897,-5.888882 20.30034,-6.047995 0.66642,-0.229827 0.83885,10.535631 0.83885,52.369845 0,28.962527 -0.22648,52.652797 -0.50331,52.645067 -0.27682,-0.008 -2.81516,-1.59319 -5.64075,-3.5232 z"
     id="path5" /></svg>
