<?xml version="1.0" encoding="UTF-8" standalone="no"?>
<!-- Created with Inkscape (http://www.inkscape.org/) -->

<svg
   width="512"
   height="512"
   viewBox="0 0 135.46667 135.46667"
   version="1.1"
   id="svg1"
   xml:space="preserve"
   xmlns="http://www.w3.org/2000/svg"
   xmlns:svg="http://www.w3.org/2000/svg"><defs
     id="defs1"><rect
       x="258.47113"
       y="309.50873"
       width="106.85066"
       height="102.9706"
       id="rect311" /></defs><path
     style="fill:#000000;stroke-width:0.549248"
     d="m 79.153063,119.20016 c -8.27062,-1.06157 -15.902118,-7.06012 -19.527167,-15.3488 -1.070435,-2.44756 -1.943672,-5.345221 -2.287301,-7.589942 -0.201472,-1.316105 -0.08281,-1.231526 -1.945631,-1.386734 l -1.017252,-0.08478 -0.50844,0.896261 c -0.974859,1.718455 -3.273041,3.426034 -5.575377,4.142589 -0.756128,0.235336 -0.947196,0.380476 -1.694301,1.287046 -2.257663,2.73955 -4.595219,4.42663 -8.376763,6.04571 -1.172621,0.50207 -2.071559,1.00848 -2.825784,1.59191 -3.793498,2.93445 -7.794657,4.2494 -12.248025,4.02522 -5.488634,-0.2763 -10.638169,-2.71323 -14.692969,-6.95322 C 4.4810946,101.67102 1.904527,96.196753 1.028744,90.049346 0.6817193,87.613472 0.71449855,83.637854 1.0998172,81.429254 2.3532093,74.244973 5.8195429,69.094076 11.651131,65.750247 c 0.719343,-0.412476 1.820519,-0.959663 2.44706,-1.215984 1.129058,-0.461894 1.146308,-0.47699 1.944687,-1.701815 0.927394,-1.422737 2.099341,-2.608436 3.44435,-3.484744 0.834948,-0.54399 0.968279,-0.697066 1.187734,-1.363644 0.327159,-0.993711 1.059074,-2.124197 1.751068,-2.704627 0.308107,-0.258432 1.606511,-1.070615 2.885342,-1.804851 l 2.325146,-1.334972 0.02101,-2.539468 c 0.01733,-2.094149 0.07166,-2.697658 0.309816,-3.441558 0.344276,-1.075366 1.331181,-2.507102 2.375162,-3.445731 3.652322,-3.28375 11.037538,-5.881253 18.239299,-6.415067 l 1.326856,-0.09835 0.08713,-0.635665 c 0.193215,-1.409663 1.31706,-2.837704 2.840936,-3.609911 l 0.739718,-0.374844 V 30.80203 c 0,-2.465557 0.996534,-4.281148 2.871242,-5.231135 l 0.701851,-0.355654 0.403493,-1.429629 c 0.479801,-1.699994 1.455359,-4.238779 2.187307,-5.692234 2.264985,-4.497658 5.186556,-7.488027 8.87058,-9.0794652 2.381972,-1.0289738 2.511627,-1.0385122 10.375686,-0.7633394 9.574471,0.3350225 10.26127,0.4211125 12.736789,1.5965463 2.318594,1.1009213 3.847177,2.5099063 5.530143,5.0974573 3.249494,4.996073 5.236314,11.140098 6.388254,19.755012 0.20241,1.513805 0.38286,2.763385 0.40099,2.776843 0.0181,0.01346 1.11197,0.200789 2.43077,0.416287 7.15599,1.169336 14.37736,3.342828 19.28654,5.804873 3.69133,1.851269 6.95234,4.566601 8.0728,6.721943 0.98155,1.888082 1.00159,2.10836 0.94291,10.360249 -0.0506,7.123008 -0.0624,7.386568 -0.37888,8.442457 -0.47402,1.581933 -1.48682,3.583534 -2.48045,4.902188 -1.15726,1.535802 -4.12086,4.379207 -6.00606,5.762444 -1.36459,1.001268 -1.53592,1.177115 -1.61544,1.658186 -0.049,0.295986 -0.0897,1.855503 -0.0906,3.465605 -10e-4,2.558341 -0.0401,3.05307 -0.30689,3.923687 -0.28037,0.9149 -0.41115,1.100055 -1.60185,2.267909 l -1.29657,1.271693 -0.28778,1.416762 c -0.70827,3.486758 -1.90911,5.968472 -3.91119,8.083015 -1.07038,1.13053 -6.09754,5.54617 -7.60604,6.68083 -2.40534,1.80924 -4.35327,2.48196 -7.9457,2.74405 l -2.246079,0.16386 -1.67761,1.31584 c -5.312589,4.16697 -8.215304,5.63926 -12.358751,6.26854 -1.481153,0.22494 -4.275877,0.25056 -5.812868,0.0533 z m 4.525906,-3.04631 c 6.181598,-0.62701 11.430626,-4.3272 14.336128,-10.10596 C 103.24612,95.643895 99.306141,81.648122 89.263536,74.960218 85.551955,72.48848 81.963504,71.361763 77.772507,71.352221 70.970264,71.336669 65.347316,74.9826 62.078054,81.52838 c -2.334383,4.673954 -2.901346,11.244361 -1.451719,16.823673 0.752316,2.895507 2.202188,6.010347 3.960475,8.508527 1.256775,1.78562 3.955258,4.47697 5.628968,5.61407 2.580055,1.75287 5.523897,2.96861 8.355997,3.45083 2.311415,0.39356 3.121438,0.42979 5.107194,0.22837 z m -3.435994,-2.77252 c -2.313522,-0.23182 -4.538769,-0.89601 -6.763939,-2.01889 -3.484088,-1.75817 -6.872067,-5.30109 -8.833127,-9.23708 -0.735072,-1.47535 -1.555356,-3.808469 -1.937205,-5.509957 -0.416442,-1.855642 -0.52589,-5.852273 -0.216891,-7.920036 0.90553,-6.059623 4.368556,-11.089071 9.159542,-13.302641 3.283353,-1.51701 7.390378,-1.620662 11.376004,-0.287134 3.075792,1.029122 5.435371,2.531376 7.97579,5.077883 3.96674,3.97626 6.151014,8.685365 6.594838,14.217903 0.548183,6.833312 -2.408894,13.334922 -7.589497,16.686752 -2.82422,1.82726 -6.291005,2.64135 -9.765515,2.2932 z m 4.67685,-3.56013 c 0.205339,-0.0821 -0.384005,-0.1303 -1.671199,-0.13664 -1.6515,-0.008 -2.257777,-0.0765 -3.578288,-0.40351 -2.881294,-0.71349 -5.463643,-2.1783 -7.526943,-4.26954 -1.33329,-1.35135 -1.80596,-1.9413 -2.683597,-3.3494 -3.803636,-6.102689 -3.682348,-14.499294 0.288065,-19.94219 l 0.583041,-0.799263 -0.614223,0.581284 c -0.856619,0.810688 -2.193624,2.850749 -2.760096,4.211476 -0.955902,2.296172 -1.216198,3.647977 -1.231779,6.397004 -0.01064,1.882538 0.04896,2.764439 0.250558,3.705708 1.212089,5.659281 4.555174,10.259201 9.147705,12.586801 2.643956,1.34002 4.146857,1.67251 7.227072,1.59892 1.238866,-0.0296 2.395225,-0.11085 2.569684,-0.18065 z m -2.490904,-3.78677 c 0.207198,-0.2072 0.236737,-0.49219 0.192032,-1.85271 l -0.05283,-1.60784 0.873511,-0.0965 c 1.630053,-0.18012 3.202005,-0.95182 4.478063,-2.19837 0.934371,-0.912774 1.914686,-2.793429 2.165209,-4.15377 l 0.17056,-0.926149 1.487592,0.09963 c 1.464708,0.09811 1.491147,0.09425 1.718746,-0.25313 0.177616,-0.271079 0.197103,-0.442342 0.08415,-0.739427 -0.184223,-0.484544 -0.221159,-0.496857 -1.894883,-0.631485 L 90.270852,93.563737 90.162851,92.697002 C 89.90714,90.644756 88.970922,88.769656 87.439357,87.242238 86.210062,86.016279 85.242429,85.434585 83.676992,84.980491 l -1.070948,-0.310661 0.02463,-1.664326 c 0.01354,-0.915379 -0.04172,-1.838839 -0.122817,-2.052129 -0.193151,-0.508036 -0.792489,-0.669418 -1.180832,-0.317969 -0.254375,0.230198 -0.284788,0.454947 -0.284788,2.104375 v 1.846651 l -0.796269,0.09355 c -3.234693,0.380167 -6.121174,3.173489 -6.654138,6.439369 -0.08896,0.545117 -0.167505,1.0039 -0.174546,1.019522 -0.007,0.01555 -0.660341,-0.03286 -1.451778,-0.107697 -1.256375,-0.118865 -1.472525,-0.105826 -1.703348,0.103137 -0.293376,0.265501 -0.338243,0.656567 -0.12174,1.061104 0.105184,0.196544 0.381779,0.290712 1.053583,0.35871 2.363822,0.239249 2.291507,0.218844 2.291507,0.646674 0,0.718134 0.43227,2.11062 1.041301,3.354377 1.071826,2.188884 3.273938,4.031952 5.570837,4.662552 l 0.87193,0.23938 0.07266,1.67164 c 0.04825,1.10994 0.139679,1.75212 0.272107,1.91115 0.257518,0.30923 0.802594,0.30661 1.114569,-0.006 z m 0.06654,-6.790981 c 0,-1.78319 -0.0077,-1.827157 -0.363304,-2.060127 -0.336546,-0.220516 -0.390062,-0.220516 -0.726609,0 -0.354105,0.232023 -0.363304,0.282188 -0.363304,1.981325 v 1.743283 l -0.399634,-0.0869 c -0.2198,-0.0478 -0.870466,-0.31259 -1.445927,-0.58839 -1.883895,-0.902903 -3.467279,-2.895161 -4.035842,-5.078023 -0.350932,-1.347326 -0.428877,-1.276452 1.275943,-1.160242 1.65014,0.112492 1.880678,0.02245 1.880678,-0.734761 0,-0.629731 -0.288049,-0.762604 -1.889182,-0.871447 -1.692156,-0.115064 -1.629325,-0.04315 -1.264008,-1.446078 0.65107,-2.500283 2.688371,-4.299083 5.405677,-4.772869 l 0.472295,-0.08232 v 1.856484 c 0,1.995158 0.06922,2.205256 0.726608,2.205256 0.653925,0 0.726609,-0.213956 0.726609,-2.138989 V 86.21943 l 0.399634,0.08618 c 0.2198,0.04736 0.930689,0.341907 1.579755,0.654439 1.950228,0.939071 3.481839,2.841616 4.053047,5.034629 0.381716,1.465512 0.454451,1.398344 -1.384275,1.278229 -1.769473,-0.115532 -2.032371,-0.03227 -2.032371,0.644101 0,0.728097 0.238067,0.851031 1.928369,0.995796 0.860784,0.07367 1.59942,0.168387 1.641413,0.210378 0.122313,0.122314 -0.236733,1.425568 -0.621216,2.254859 -0.194458,0.419435 -0.684562,1.124764 -1.08912,1.567422 -1.067077,1.167547 -2.230069,1.787577 -3.784957,2.017867 l -0.690279,0.1022 z M 26.946183,109.54729 C 35.748676,107.87748 41.769702,99.142382 41.319226,88.695367 41.097295,83.548563 39.395418,78.743524 36.44536,74.93461 32.109956,69.337032 25.671049,66.081957 19.498498,66.367419 12.520909,66.690113 6.8661914,71.390377 4.4750326,78.855081 c -0.6349715,1.98226 -0.8998622,3.664394 -0.9921942,6.300789 -0.2545185,7.267341 2.2857208,14.026001 7.0687226,18.80734 2.979428,2.97839 6.18179,4.77679 9.818867,5.51415 1.68606,0.34183 4.958982,0.37663 6.575755,0.0699 z m -5.753192,-2.61274 C 14.8862,105.72674 9.7121143,101.03192 7.1778106,94.217591 6.277932,91.797959 5.8841858,89.690917 5.8064123,86.87885 5.6970663,82.925053 6.2327132,80.306128 7.797839,77.142286 c 2.277934,-4.604752 6.144053,-7.388789 11.014825,-7.931918 2.991018,-0.333522 6.671497,0.521952 9.548114,2.2193 6.810865,4.018766 10.814941,11.332073 10.487402,19.154879 -0.214337,5.119102 -1.871992,9.08133 -5.218756,12.474223 -1.781362,1.80591 -3.934096,3.08158 -6.207996,3.67873 -1.447895,0.38025 -4.729704,0.48407 -6.228437,0.19705 z m 4.601395,-3.18592 c 0.745224,-0.11191 1.382238,-0.23075 1.41559,-0.2641 0.03335,-0.0333 -0.641773,-0.0345 -1.500273,-0.002 -5.615212,0.20898 -10.848361,-3.16626 -13.688123,-8.828419 -2.8723398,-5.72713 -2.6705075,-13.023166 0.490005,-17.713269 0.290309,-0.430812 0.505902,-0.805226 0.479095,-0.83204 -0.08064,-0.08069 -1.061063,1.148595 -1.680422,2.106867 -0.706099,1.092477 -1.3853032,2.69181 -1.7825679,4.197443 -0.3900884,1.478434 -0.5374816,5.218754 -0.2757259,6.99694 0.6756346,4.589807 3.1540648,8.958034 6.5781428,11.593968 1.848538,1.42306 4.559706,2.53639 6.792808,2.78946 1.587785,0.17994 1.687475,0.17853 3.171471,-0.0443 z m -1.166032,-3.74723 c 0.114971,-0.114948 0.174386,-0.731605 0.174386,-1.809945 v -1.635548 l 0.544957,-0.09109 c 1.769742,-0.295939 2.960462,-0.838401 4.055084,-1.847387 1.190004,-1.096909 2.207095,-3.02925 2.451178,-4.656916 l 0.103721,-0.691683 1.28743,0.09717 c 0.94542,0.07133 1.346234,0.04841 1.508788,-0.08653 0.269989,-0.224071 0.290932,-0.926734 0.03398,-1.139977 -0.103067,-0.08548 -0.769131,-0.20798 -1.480157,-0.272107 L 32.014947,87.7508 31.837383,86.733547 C 31.190232,83.02605 28.854128,80.407125 25.420359,79.53963 l -0.617617,-0.156026 v -1.854521 c 0,-2.006571 -0.06702,-2.20329 -0.75056,-2.20329 -0.594313,0 -0.702657,0.357049 -0.702657,2.315595 v 1.753418 h -0.420658 c -0.746256,0 -2.287474,0.568024 -3.206658,1.181828 -1.50746,1.006647 -2.715745,2.953044 -3.072528,4.949476 l -0.181612,1.016248 -1.269433,-0.100447 c -1.227725,-0.09717 -1.276851,-0.08911 -1.495252,0.244172 -0.29198,0.445616 -0.152509,0.975659 0.302216,1.148548 0.194095,0.07379 0.691966,0.135072 1.106379,0.136159 1.313774,0.0035 1.32193,0.01052 1.587339,1.416587 0.287905,1.524997 1.123545,3.276907 2.081335,4.363479 1.03615,1.175467 2.839949,2.274084 4.205568,2.561417 l 0.435965,0.09168 -0.04481,1.649077 c -0.03726,1.371251 -0.0049,1.688975 0.192032,1.885906 0.278415,0.278414 0.811545,0.309864 1.058947,0.06245 z m 0.174386,-6.657782 c 0,-1.193147 -0.05462,-1.748495 -0.181651,-1.846791 -0.398862,-0.308626 -0.701262,-0.320004 -0.984218,-0.03707 -0.251406,0.25141 -0.287347,0.487222 -0.287347,1.885298 v 1.597941 l -0.725866,-0.275803 c -2.302496,-0.874873 -3.924975,-2.723676 -4.567995,-5.205167 -0.354756,-1.369052 -0.40931,-1.306726 1.023334,-1.16921 0.889936,0.08548 1.30994,0.0718 1.453217,-0.04712 0.250988,-0.208308 0.26447,-1.062788 0.01987,-1.259157 -0.09991,-0.08022 -0.753856,-0.192183 -1.453216,-0.248826 -0.834984,-0.06759 -1.271565,-0.162867 -1.271565,-0.277394 0,-0.386926 0.453579,-1.880105 0.744097,-2.449579 0.766316,-1.502102 2.571468,-2.847077 4.162685,-3.101528 l 0.615442,-0.09846 v 1.68977 c 0,1.496021 0.03333,1.723109 0.290643,1.980424 0.360831,0.360827 0.611911,0.367609 0.922068,0.02491 0.194742,-0.215184 0.240507,-0.587003 0.240507,-1.954009 v -1.68825 l 0.762938,0.222562 c 2.541771,0.741497 4.462872,3.062776 4.98109,6.018684 l 0.09059,0.516713 -1.26042,-0.129237 c -0.693232,-0.0711 -1.410234,-0.09168 -1.593341,-0.04572 -0.436887,0.109685 -0.597648,0.730528 -0.304857,1.177396 0.193387,0.295144 0.380031,0.345999 1.607377,0.438015 0.763722,0.0573 1.418916,0.153185 1.455987,0.213173 0.119983,0.194135 -0.361026,1.775916 -0.766875,2.521845 -0.915031,1.681796 -2.445263,2.816312 -4.209548,3.120974 l -0.762938,0.131739 z m 85.33139,10.344272 c 0.57145,-0.81986 0.94457,-1.90286 1.06006,-3.07685 l 0.0928,-0.943888 -0.34863,0.944588 c -0.59214,1.60432 -2.14763,4.45841 -2.57322,4.72143 -0.0804,0.0497 -0.21953,0.23387 -0.30913,0.40926 -0.23775,0.46543 1.56161,-1.31355 2.07807,-2.05454 z m -5.40942,-3.02611 c 1.14518,-2.893537 1.6333,-5.609284 1.62842,-9.05998 -0.008,-5.445644 -1.55928,-10.816753 -4.34487,-15.040799 -3.140906,-4.762848 -7.134885,-7.99111 -11.828033,-9.560414 -3.457246,-1.156032 -7.891955,-1.052743 -11.432191,0.26625 -0.582432,0.217008 -1.03567,0.417844 -1.007197,0.446318 0.02847,0.02841 0.635801,-0.0207 1.349614,-0.109335 1.513328,-0.187797 4.029974,-0.08104 6.020794,0.25534 6.499313,1.098243 12.701816,5.756445 16.500473,12.392172 1.29064,2.254579 2.53552,5.718021 3.03506,8.443988 0.81024,4.421538 0.48559,9.649635 -0.86182,13.87822 -0.23765,0.74583 0.40688,-0.56538 0.93975,-1.91181 z m -58.349294,-7.8974 c 0.903653,-2.726914 1.141984,-4.236406 1.13575,-7.193425 -0.0064,-3.062121 -0.30395,-5.057372 -1.141411,-7.655214 -1.538921,-4.773828 -4.160147,-8.475923 -8.469869,-11.962424 l -1.217042,-0.984582 -0.850465,0.425199 -0.850464,0.4252 1.268237,0.936147 c 6.801541,5.020538 10.667755,13.226867 10.3023,21.867422 -0.0971,2.295658 -0.402447,4.244697 -0.917804,5.858296 -0.0669,0.209454 -0.05546,0.21343 0.07839,0.02725 0.08619,-0.119882 0.384261,-0.904622 0.662371,-1.743853 z m 70.197984,-1.222556 0.58128,-0.491607 0.0406,-6.689961 0.0406,-6.689973 0.71677,-0.644441 c 0.95016,-0.85427 1.14121,-1.273435 0.81049,-1.778174 -0.31202,-0.476183 -0.41335,-0.43929 -1.91371,0.696711 l -1.1773,0.891396 -0.0946,2.406466 c -0.0901,2.292676 0.0135,12.231819 0.13149,12.613869 0.085,0.275079 0.22996,0.222364 0.8645,-0.314286 z M 57.247381,87.641782 c 0.04232,-0.579472 0.05591,-1.076037 0.03018,-1.103482 -0.04347,-0.04631 -4.066438,-0.444528 -4.59047,-0.454328 -0.172744,-0.0035 -0.280995,0.227334 -0.406675,0.86615 -0.0942,0.478803 -0.18445,0.920209 -0.200559,0.980922 -0.02431,0.09168 3.756505,0.680515 4.783129,0.745005 0.280074,0.01766 0.3143,-0.07449 0.384401,-1.034267 z m 50.898759,-6.754031 c -0.13231,-1.588317 -0.53692,-3.153213 -1.11367,-4.307268 -1.14767,-2.296453 -3.28573,-4.918501 -5.17994,-6.352499 -0.86849,-0.657491 -3.480169,-2.108258 -3.59271,-1.995719 -0.02906,0.029 0.469124,0.438378 1.107003,0.909661 2.291007,1.692659 4.856517,4.673147 6.509747,7.562683 0.70607,1.234098 1.65769,3.467254 2.05977,4.833664 0.1,0.339685 0.21182,0.617616 0.24859,0.617616 0.0367,0 0.0193,-0.570655 -0.0388,-1.268138 z m 3.69593,-5.149563 c 0.0133,-4.092378 -0.45999,-5.839493 -2.35834,-8.70473 l -0.24665,-0.372275 1.95584,-1.414049 c 1.07571,-0.777723 1.99266,-1.473604 2.03765,-1.546408 0.11634,-0.188242 -1.34553,-1.308585 -1.70749,-1.308585 -0.16569,0 -1.05863,0.572198 -1.98431,1.271563 -0.92567,0.699354 -1.72505,1.290894 -1.7764,1.314526 -0.0514,0.02362 -0.54217,-0.297752 -1.09073,-0.714169 -0.54855,-0.416406 -1.63365,-1.062776 -2.41133,-1.436372 l -1.41395,-0.679253 1.74093,-1.272342 c 0.95751,-0.699788 1.74092,-1.321104 1.74092,-1.380701 0,-0.20601 -0.70705,-0.429107 -1.84088,-0.580856 -2.03026,-0.271723 -6.987036,-0.726098 -11.892014,-1.090109 -7.584783,-0.562887 -7.802911,-0.571593 -8.367567,-0.333949 -0.273381,0.115053 -1.706861,0.98707 -3.185509,1.937809 l -2.688451,1.728615 3.272645,0.242611 c 3.133281,0.232291 12.12289,1.051094 16.563769,1.508685 1.15894,0.119414 2.564927,0.352512 3.124417,0.517999 2.31591,0.684982 4.90504,2.469306 6.4763,4.463213 1.95479,2.480602 3.46065,6.602646 3.7253,10.197476 0.0878,1.192235 0.11637,1.301254 0.20956,0.799263 0.0593,-0.319712 0.11168,-1.736287 0.11629,-3.147962 z M 71.80528,67.878033 c 0.916958,-0.579472 1.67013,-1.089788 1.673714,-1.134048 0.0036,-0.0442 -1.350424,-0.193761 -3.008908,-0.332236 -2.544353,-0.212436 -8.099079,-0.727851 -25.322307,-2.349577 -1.318794,-0.124173 -2.949139,-0.288233 -3.622987,-0.364568 -0.673849,-0.07636 -1.234198,-0.123355 -1.245222,-0.10454 -0.01099,0.01883 0.6384,0.658637 1.443163,1.421755 l 1.463203,1.387493 7.847373,0.772708 c 4.316054,0.424988 9.940004,0.986815 12.497666,1.248492 2.557662,0.261666 5.090578,0.483035 5.628701,0.491923 0.974495,0.01602 0.985077,0.01193 2.645604,-1.037437 z m 50.94429,-2.727183 c 4.24428,-2.894085 6.25689,-4.70078 7.70117,-6.913194 0.94176,-1.442625 1.23133,-2.326247 1.23397,-3.765551 0.001,-0.974898 -0.062,-1.29306 -0.39482,-1.970876 -0.21834,-0.444567 -0.62529,-1.065817 -0.90434,-1.380556 l -0.50737,-0.572255 0.10512,0.508627 c 0.0578,0.279744 0.10069,1.293363 0.0953,2.252486 -0.008,1.524278 -0.0579,1.86692 -0.39176,2.721156 -0.98416,2.517692 -3.13589,4.601226 -8.61502,8.341983 -0.99546,0.67965 -1.80853,1.313146 -1.80677,1.407782 0.001,0.0946 0.1335,0.459262 0.29277,0.81029 0.26665,0.587704 0.30953,0.620679 0.54176,0.416674 0.13871,-0.121858 1.33121,-0.957312 2.65,-1.856566 z m -90.118222,-1.940865 1.21647,-0.620774 -0.853166,-0.306978 c -2.925595,-1.052688 -5.883925,-1.237752 -8.845859,-0.553372 -0.973573,0.224948 -3.04439,0.94369 -2.951096,1.02427 0.02456,0.02116 0.698609,-0.01368 1.497879,-0.07753 2.312332,-0.184816 6.186227,0.306779 7.920032,1.005057 0.564923,0.227521 0.717416,0.191914 2.01574,-0.470629 z M 120.71506,60.92938 c 1.55857,-1.121086 3.17632,-2.280559 3.595,-2.576608 0.41866,-0.296048 0.76199,-0.57407 0.76293,-0.61783 10e-4,-0.04376 -0.76666,-0.544881 -1.7058,-1.113603 -4.21594,-2.553083 -8.03983,-4.080841 -13.042,-5.210677 -3.58342,-0.809387 -10.25418,-1.75477 -15.332063,-2.17287 -3.037297,-0.250083 -11.044448,-0.464517 -11.044448,-0.295775 0,0.06076 0.298933,0.442965 0.664295,0.849336 1.028423,1.143855 1.145117,1.444268 1.126708,2.90056 -0.0153,1.209792 -8.79e-4,1.271565 0.296811,1.271565 0.960808,0 15.724097,1.255829 18.911167,1.608667 3.11459,0.344811 4.31067,0.645814 6.24884,1.572558 2.38307,1.139478 4.41,2.843869 5.96954,5.019648 0.31347,0.437314 0.60263,0.796983 0.6426,0.799251 0.04,0.0023 1.34786,-0.913134 2.90643,-2.034222 z M 73.910555,59.460618 c -0.02307,-2.288153 -0.0026,-2.512222 0.247196,-2.696098 0.149796,-0.110293 2.005317,-1.18706 4.123381,-2.392805 2.118064,-1.205743 3.934805,-2.269339 4.037201,-2.363544 0.14985,-0.137865 0.129956,-0.222163 -0.101967,-0.432049 -0.279979,-0.253378 -0.334658,-0.234191 -1.930036,0.677224 -2.961381,1.691793 -4.10302,2.272306 -4.756898,2.418832 -0.482788,0.108188 -1.668025,0.05526 -4.722955,-0.210915 -2.243131,-0.195442 -7.577041,-0.648517 -11.853132,-1.006835 -4.276092,-0.358318 -8.149527,-0.692953 -8.607634,-0.743633 -1.040873,-0.115158 -1.487053,0.133309 -1.70714,0.950648 -0.130887,0.486075 -0.744362,5.848822 -0.677509,5.922499 0.07436,0.08195 2.003989,0.274925 2.047323,0.204742 0.02886,-0.04675 0.100213,-1.049066 0.158559,-2.227371 0.06005,-1.212824 0.178614,-2.241572 0.273255,-2.371002 0.17783,-0.243198 -0.06247,-0.258966 12.29151,0.806561 8.478968,0.731307 8.478183,0.731213 8.828294,1.056179 0.311565,0.289188 0.326974,0.408089 0.326974,2.523051 v 2.219564 l 0.762939,0.05332 c 0.419616,0.02935 0.880582,0.06548 1.024369,0.08022 0.243454,0.02502 0.2597,-0.144707 0.236268,-2.468668 z M 44.848809,56.906243 c 0.09508,-0.779287 0.209607,-1.662116 0.2545,-1.961843 0.06396,-0.427026 0.0337,-0.544956 -0.139829,-0.544956 -0.121797,0 -2.810041,-0.261579 -5.973874,-0.581287 -3.163835,-0.319708 -5.996879,-0.581288 -6.295656,-0.581288 -0.426293,0 -1.179735,0.362918 -3.500106,1.685924 -1.626282,0.927258 -2.936254,1.704123 -2.911049,1.726367 0.02521,0.02224 1.02675,0.114948 2.225653,0.206017 3.05202,0.23182 9.847131,0.850149 12.78831,1.163685 1.358759,0.144847 2.674928,0.272563 2.924822,0.283812 l 0.454352,0.02045 z M 74.502768,44.758407 v -7.315889 l -0.338256,-0.640474 c -0.214963,-0.407023 -0.578528,-0.789299 -0.99744,-1.048774 l -0.659183,-0.4083 -8.302888,-0.599243 c -8.234157,-0.594282 -8.309804,-0.597063 -9.13823,-0.335924 -1.012846,0.319271 -1.832863,1.079728 -2.051353,1.902357 -0.09318,0.350854 -0.169653,3.174909 -0.195617,7.224559 -0.0374,5.831843 -0.01586,6.648555 0.175355,6.648645 0.11989,5.8e-5 1.983641,0.161388 4.141669,0.358513 2.158027,0.197123 4.773817,0.432387 5.812867,0.522806 1.03905,0.09043 3.851026,0.34751 6.248834,0.571311 2.397808,0.223801 4.572184,0.413524 4.831947,0.421607 l 0.472295,0.0147 z M 64.40291,49.885581 c -2.557663,-0.222199 -5.580333,-0.471954 -6.717046,-0.555015 -1.292073,-0.09441 -2.226884,-0.233824 -2.493967,-0.371939 -1.025153,-0.530127 -1.409796,-1.693719 -0.904756,-2.736995 0.623638,-1.288263 0.804566,-1.305059 8.153926,-0.756951 6.760816,0.504216 7.918763,0.624198 8.580876,0.889124 1.522403,0.609144 1.73962,2.831116 0.360115,3.683697 -0.605009,0.373916 -1.033837,0.364582 -6.979148,-0.151921 z m 4.494894,-6.520319 c -0.709381,-0.171989 -1.345737,-0.612894 -1.771669,-1.227513 -0.319996,-0.461754 -0.404571,-0.767029 -0.447384,-1.614855 -0.06291,-1.245749 0.247529,-2.002613 1.082661,-2.639599 0.744956,-0.568205 2.060165,-0.642812 2.88519,-0.163668 0.750246,0.435715 1.408051,1.50031 1.496628,2.422148 0.186431,1.94023 -1.525415,3.640506 -3.245426,3.223487 z M 56.700859,42.424866 c -1.505985,-0.663735 -2.26244,-2.807852 -1.54321,-4.374114 0.949048,-2.066733 3.763087,-2.00124 4.746235,0.110457 0.570771,1.225958 0.424681,2.797817 -0.338463,3.641716 -0.667596,0.73824 -1.962684,1.01942 -2.864562,0.621935 z m -9.569935,7.503868 c 0.550913,-0.543742 1.33435,-1.144409 1.753248,-1.344226 0.587758,-0.280367 0.758557,-0.437021 0.762939,-0.699757 0.0051,-0.305483 -0.04045,-0.329108 -0.46665,-0.242081 -1.489299,0.304107 -3.670499,0.884094 -4.726212,1.256714 -1.557369,0.549683 -3.680566,1.569919 -3.302812,1.587062 0.159854,0.0072 1.140776,0.09749 2.179826,0.200535 2.980044,0.295522 2.66913,0.357566 3.799661,-0.758247 z m -15.738455,0.183719 c 0.286937,-0.11989 0.71999,-0.217982 0.962337,-0.217982 0.515813,0 0.50687,0.03914 0.203218,-0.889229 -0.297004,-0.908032 -0.204189,-2.17773 0.217276,-2.972316 0.391874,-0.738803 1.220102,-1.64563 2.102104,-2.301597 0.80325,-0.597397 0.780416,-0.651767 -0.08958,-0.213311 -1.669063,0.841166 -3.255699,2.277162 -3.749524,3.393535 -0.300472,0.679266 -0.514352,2.452581 -0.366741,3.040709 0.111754,0.445275 0.06401,0.434664 0.72091,0.160191 z M 80.091777,48.861431 80.61114,48.555 80.532524,47.662527 c -0.127143,-1.443354 -0.360976,-4.925687 -0.361618,-5.385335 -3.24e-4,-0.233121 -0.03096,-0.39348 -0.06809,-0.356354 -0.03713,0.03713 -0.166475,1.339571 -0.287442,2.894323 -0.120968,1.554753 -0.258786,3.170147 -0.306261,3.589762 -0.04748,0.419616 -0.05266,0.76294 -0.01146,0.76294 0.04114,0 0.308525,-0.137895 0.594174,-0.306432 z m 10.105735,-12.60001 c 0,-0.616444 -0.916137,-5.765682 -1.314803,-7.38998 -0.526156,-2.143736 -1.724568,-5.704563 -2.303555,-6.844526 -0.232827,-0.458415 -0.631661,-1.119131 -0.886295,-1.468259 l -0.462972,-0.634779 -0.658922,0.634779 c -2.249933,2.167492 -4.196422,5.979363 -4.740235,9.282945 -0.360159,2.187906 -0.375742,2.050035 0.312686,2.766482 0.717743,0.746957 1.225151,1.748022 1.48664,2.932989 l 0.183759,0.832721 2.992944,0.04232 c 1.64612,0.02328 3.532452,0.05728 4.191849,0.07554 1.072993,0.02972 1.198904,0.0055 1.198904,-0.230237 z M 74.324234,31.329623 c 0.218421,-1.274857 0.08259,-1.956409 -0.446331,-2.239478 -0.180569,-0.09663 -1.832082,-0.248795 -3.877513,-0.357241 -1.959638,-0.103897 -5.366852,-0.29506 -7.57159,-0.424802 -3.622777,-0.213191 -4.060388,-0.214263 -4.546533,-0.01111 -0.568494,0.237531 -0.839511,0.693905 -1.024254,1.724764 l -0.09766,0.544958 h 1.36102 c 0.748562,0 3.547152,0.162297 6.219088,0.360663 7.781342,0.577687 8.841629,0.700203 9.435701,1.09029 0.357913,0.235018 0.398701,0.183816 0.548073,-0.688015 z m 0.771413,-7.338746 c 1.408271,-4.374192 4.430325,-9.106594 7.386251,-11.56654 l 0.85332,-0.710141 -1.4008,-0.09248 c -0.77044,-0.05087 -3.344639,-0.15998 -5.720444,-0.242478 l -4.319646,-0.149994 -1.129919,0.377632 c -1.857863,0.620918 -3.360769,1.628886 -4.930126,3.306533 -1.819279,1.944816 -3.642704,5.237691 -4.711751,8.50883 l -0.553908,1.694884 0.754569,0.09697 c 0.415013,0.05333 2.814505,0.201574 5.332204,0.329426 2.517698,0.127852 4.937304,0.251955 5.376902,0.275784 0.439599,0.02383 1.169206,0.05543 1.62135,0.07021 l 0.82208,0.02688 z m 8.185551,-6.318042 c 1.411671,-1.317141 2.876128,-2.233426 4.373184,-2.736226 1.029458,-0.345753 1.31233,-0.381474 2.47047,-0.311971 0.719341,0.04317 1.438684,0.121811 1.598539,0.174759 l 0.290642,0.09627 -0.290642,-0.241223 c -2.701822,-2.242399 -6.915977,-0.615518 -9.728546,3.75572 -1.022313,1.588857 -1.187784,1.99761 -0.420774,1.03941 0.319896,-0.399635 1.088102,-1.199168 1.707127,-1.776739 z"
     id="path309" /><ellipse
     style="fill:#000000;stroke:none;stroke-width:0.769408;stroke-linecap:round;stroke-dasharray:none"
     id="path310"
     cx="25.191113"
     cy="87.81353"
     rx="11.766382"
     ry="13.819575" /><ellipse
     style="fill:#000000;stroke:none;stroke-width:0.769408;stroke-linecap:round;stroke-dasharray:none"
     id="path311"
     cx="82.285698"
     cy="92.7491"
     rx="12.319164"
     ry="15.43844" /><text
     xml:space="preserve"
     transform="matrix(0.26458334,0.02773246,0,0.26458334,3.7905122,-6.6669543)"
     id="text311"
     style="font-style:normal;font-variant:normal;font-weight:normal;font-stretch:condensed;font-size:85.3333px;font-family:'Gill Sans MT Condensed';-inkscape-font-specification:'Gill Sans MT Condensed,  Condensed';text-align:start;writing-mode:lr-tb;direction:ltr;white-space:pre;shape-inside:url(#rect311);fill:#000000;stroke:none;stroke-width:2.908;stroke-linecap:round;stroke-dasharray:none"><tspan
       x="258.4707"
       y="383.18504"
       id="tspan2"><tspan
         style="fill:#ffffff"
         id="tspan1">°C</tspan></tspan></text><ellipse
     style="fill:#ffffff;stroke:none;stroke-width:0.775138;stroke-linecap:round;stroke-dasharray:none"
     id="path312"
     cx="23.002909"
     cy="77.612946"
     rx="4.0876255"
     ry="4.2248416"
     transform="matrix(0.98527112,0.17099947,0,1,0,0)" /><rect
     style="fill:#ffffff;stroke:none;stroke-width:3.135;stroke-linecap:round;stroke-dasharray:none"
     id="rect312"
     width="12.299318"
     height="10.897722"
     x="17.713043"
     y="82.706444"
     rx="26.884403"
     ry="3.7658145"
     transform="matrix(0.98527112,0.17099947,0,1,0,0)" /><path
     style="fill:none;stroke:#ffffff;stroke-width:0.769408;stroke-linecap:round;stroke-dasharray:none"
     d="m 27.560183,78.416221 c 2.053194,4.501232 -0.394845,7.502054 -0.394845,7.502054 0,0 4.422264,1.737318 4.422264,4.422264 0,2.684947 1.026597,5.922675 -1.500412,7.975871"
     id="path313" /><path
     style="fill:none;stroke:#ffffff;stroke-width:0.769408;stroke-linecap:round;stroke-dasharray:none"
     d="m 18.873592,76.836841 c -3.869481,3.316697 -0.473814,8.291745 -0.473814,8.291745 0,0 -2.527008,1.658348 -2.684946,3.237728 -0.157938,1.57938 -0.552783,7.028241 1.421442,8.765559"
     id="path314" /><path
     style="fill:#ffffff;stroke:none;stroke-width:0.324763;stroke-linecap:round;stroke-dasharray:none"
     d="m 73.596483,25.833003 c -0.36854,-0.01887 -2.705423,-0.135844 -5.193075,-0.259951 -4.595802,-0.229282 -7.613131,-0.427 -7.690038,-0.503907 -0.02339,-0.02338 0.14387,-0.610252 0.371666,-1.304163 1.786048,-5.440675 4.64798,-9.504922 7.988448,-11.34445 0.337828,-0.186035 1.10826,-0.521188 1.712069,-0.744782 l 1.097835,-0.406536 4.709475,0.179643 c 2.59021,0.0988 5.122,0.214212 5.626198,0.256462 l 0.916726,0.07682 -0.979726,0.849565 c -2.797529,2.425866 -5.732661,7.128319 -7.154891,11.463049 -0.327489,0.998131 -0.626748,1.805282 -0.665023,1.793668 -0.03827,-0.01161 -0.371123,-0.03655 -0.739664,-0.05542 z"
     id="path315" /><path
     style="fill:#ffffff;stroke:none;stroke-width:0.114821;stroke-linecap:round;stroke-dasharray:none"
     d="m 81.199878,19.788709 c 0,-0.04436 0.477457,-0.842928 0.805908,-1.347912 1.244288,-1.913061 2.702383,-3.298628 4.307335,-4.093079 1.335513,-0.661079 2.561148,-0.831524 3.765833,-0.523701 0.397806,0.101648 1.180573,0.495818 1.521669,0.76625 0.284784,0.225786 0.289946,0.240455 0.06265,0.178021 -0.194887,-0.05353 -1.213861,-0.149304 -1.914999,-0.179989 -0.764638,-0.03346 -1.20088,0.031 -1.982949,0.293021 -1.481661,0.49641 -2.727756,1.228721 -4.077922,2.396532 -0.498713,0.431358 -1.730637,1.677306 -2.134098,2.158394 -0.320503,0.382168 -0.353425,0.415001 -0.353425,0.352463 z"
     id="path316" /><path
     style="fill:#ffffff;stroke:none;stroke-width:0.114821;stroke-linecap:round;stroke-dasharray:none"
     d="M 73.721811,31.963572 C 73.12348,31.623625 71.824428,31.468291 65.800922,31.01643 61.433823,30.688828 59.188698,30.561006 57.801723,30.561006 h -1.010676 l 0.02831,-0.205804 c 0.05725,-0.416253 0.218112,-1.038611 0.330565,-1.278922 0.253711,-0.542168 0.656809,-0.813892 1.314005,-0.885756 0.453274,-0.04957 1.270675,-0.01847 4.71128,0.179242 1.302988,0.07487 3.666138,0.208042 5.251439,0.295929 4.294622,0.23809 5.311598,0.335372 5.570533,0.53287 0.2912,0.22211 0.441325,0.746734 0.396433,1.385375 -0.03067,0.436356 -0.163166,1.196869 -0.240946,1.383022 -0.06993,0.16737 -0.131146,0.166888 -0.43085,-0.0034 z"
     id="path317" /><path
     style="fill:#ffffff;stroke:none;stroke-width:0.114821;stroke-linecap:round;stroke-dasharray:none"
     d="m 73.381946,51.994637 c -0.228023,-0.01923 -1.773841,-0.159303 -3.435152,-0.311263 -6.554086,-0.599509 -15.842557,-1.434291 -16.563311,-1.488597 -0.383072,-0.02886 -0.395962,-0.03297 -0.448503,-0.142785 -0.105032,-0.219527 -0.128588,-2.031142 -0.08607,-6.619041 0.03994,-4.309558 0.08221,-6.143543 0.157729,-6.844419 0.05607,-0.520338 0.230431,-0.850803 0.690743,-1.30913 0.386932,-0.385265 0.690218,-0.583483 1.18542,-0.774745 0.861336,-0.332674 1.196817,-0.325257 8.23317,0.182012 1.335564,0.09628 3.3167,0.239099 4.402524,0.317366 1.085823,0.07827 2.64941,0.191161 3.474635,0.250877 l 1.50041,0.108578 0.414589,0.25409 c 0.612185,0.375192 1.014261,0.792117 1.332785,1.382003 l 0.246595,0.456679 v 7.292155 7.292157 l -0.345491,-0.0055 c -0.190018,-0.003 -0.532053,-0.02122 -0.760076,-0.04045 z m -2.522527,-1.731462 c 0.652965,-0.12305 1.226973,-0.708933 1.395648,-1.424522 0.176943,-0.750655 -0.03444,-1.522103 -0.560776,-2.046555 -0.626449,-0.624208 -1.105324,-0.713126 -5.853886,-1.086964 -5.545349,-0.436568 -7.776038,-0.580628 -9.04195,-0.583946 -1.628788,-0.0043 -2.001465,0.12377 -2.391783,0.821722 -0.251817,0.450289 -0.345226,0.774552 -0.346139,1.201584 -0.0011,0.457443 0.101124,0.799716 0.345776,1.15915 0.213712,0.313979 0.62969,0.632571 0.960343,0.735521 0.391945,0.122034 1.244306,0.224078 3.129637,0.374676 0.966382,0.0772 3.214039,0.263917 4.994791,0.414938 2.71757,0.230474 3.82955,0.320771 5.508088,0.447286 0.427728,0.03224 1.666317,0.02365 1.860251,-0.01289 z m -0.851821,-6.890044 c 0.764379,-0.194302 1.469586,-0.79647 1.848935,-1.578787 0.242554,-0.500208 0.280326,-0.6833 0.281022,-1.362216 5.29e-4,-0.585186 -0.0047,-0.626977 -0.121634,-0.953561 -0.193231,-0.5398 -0.454385,-0.950867 -0.862412,-1.357458 -0.403702,-0.40228 -0.616863,-0.526195 -1.126522,-0.654862 -0.657863,-0.166079 -1.536449,-0.05184 -2.08824,0.271534 -0.260863,0.152876 -0.705056,0.583954 -0.881245,0.855223 -0.08352,0.128596 -0.198713,0.377349 -0.255982,0.552784 -0.189243,0.579736 -0.173143,1.949299 0.02927,2.490306 0.296436,0.7923 1.111699,1.490374 2.030177,1.738357 0.26829,0.07244 0.859147,0.07176 1.146627,-0.0013 z M 58.298867,42.542329 c 0.708978,-0.166521 1.338509,-0.646822 1.630299,-1.24383 0.252222,-0.516054 0.318037,-0.835332 0.316958,-1.537605 -0.0011,-0.653532 -0.05263,-0.940081 -0.26334,-1.461754 -0.609163,-1.508136 -2.244632,-2.187205 -3.650586,-1.515775 -0.239683,0.114465 -0.374711,0.216752 -0.640654,0.485328 -0.527981,0.533199 -0.769739,1.102667 -0.814962,1.919674 -0.08404,1.518211 0.852403,3.011713 2.103822,3.355314 0.268176,0.07363 1.002416,0.07288 1.318463,-0.0013 z"
     id="path318" /><path
     style="fill:#ffffff;stroke:none;stroke-width:0.114821;stroke-linecap:round;stroke-dasharray:none"
     d="m 30.731876,50.115704 c -0.08058,-0.227632 -0.06531,-1.503294 0.024,-2.003838 0.110366,-0.61859 0.208243,-0.961498 0.371917,-1.302988 0.461497,-0.962858 1.766432,-2.187255 3.219955,-3.021214 0.437661,-0.251108 1.006832,-0.529606 1.031648,-0.504788 0.0075,0.0075 -0.249915,0.222499 -0.572056,0.477756 -1.24396,0.985673 -2.061514,2.017326 -2.290477,2.890306 -0.214296,0.817049 -0.196016,1.656365 0.05349,2.455809 0.183793,0.588907 0.202033,0.685761 0.136911,0.727022 -0.02947,0.01868 -0.147606,0.03422 -0.262533,0.03455 -0.302572,7.94e-4 -0.76703,0.106151 -1.150482,0.260771 -0.43651,0.176014 -0.495816,0.174604 -0.562367,-0.01339 z"
     id="path319" /><path
     style="fill:#ffffff;stroke:none;stroke-width:0.114821;stroke-linecap:round;stroke-dasharray:none"
     d="m 44.142116,58.275822 c -0.399576,-0.02888 -1.10531,-0.09858 -3.749471,-0.370305 -2.413567,-0.248026 -8.437238,-0.794092 -11.095144,-1.005814 -2.521802,-0.20088 -2.952964,-0.245525 -2.894402,-0.299699 0.20106,-0.185991 3.907068,-2.303653 4.967338,-2.8384 0.922145,-0.465084 1.089586,-0.514651 1.628037,-0.481946 0.634466,0.03853 2.899514,0.251873 7.366067,0.69379 2.187104,0.216392 4.131865,0.40549 4.321691,0.420219 0.210087,0.0163 0.362246,0.0474 0.388863,0.07946 0.05617,0.06768 0.05218,0.109659 -0.203142,2.13764 -0.125259,0.9949 -0.23146,1.705271 -0.254465,1.702065 -0.02172,-0.003 -0.235636,-0.01969 -0.475372,-0.03701 z"
     id="path320" /><path
     style="fill:#ffffff;stroke:none;stroke-width:0.114821;stroke-linecap:round;stroke-dasharray:none"
     d="m 72.70084,61.839887 -0.77982,-0.06011 -0.0016,-1.523288 c -0.0019,-1.656361 -0.04407,-2.719189 -0.115406,-2.90525 -0.0784,-0.204472 -0.354462,-0.451347 -0.57387,-0.513196 -0.631288,-0.177948 -1.428639,-0.25527 -11.786124,-1.142947 -7.908378,-0.677781 -8.672452,-0.72939 -8.9235,-0.602734 -0.07125,0.03595 -0.112307,0.104428 -0.147595,0.246197 -0.0824,0.331068 -0.165028,1.199803 -0.24775,2.604947 -0.04347,0.738363 -0.09024,1.453523 -0.103944,1.589252 l -0.02492,0.24678 h -0.212834 c -0.271044,0 -1.308891,-0.106165 -1.588399,-0.162478 l -0.213016,-0.04292 0.02349,-0.400728 c 0.04604,-0.785611 0.464005,-4.397301 0.603837,-5.21784 0.150971,-0.885909 0.53104,-1.244875 1.316159,-1.243076 0.164362,2.65e-4 0.458751,0.01738 0.654198,0.03778 0.605182,0.06317 4.472859,0.395118 12.437619,1.067456 2.323663,0.196149 5.246505,0.444368 6.495201,0.551595 3.737546,0.320953 3.871362,0.32988 4.994791,0.333251 1.251151,0.0038 1.159383,0.0245 2.26242,-0.511154 0.775338,-0.37651 1.570352,-0.806807 3.245668,-1.756709 1.345943,-0.763148 1.668481,-0.930434 1.86505,-0.967311 0.129006,-0.02421 0.159163,-0.01103 0.324972,0.141795 0.233826,0.215533 0.224891,0.289156 -0.05786,0.476719 -0.313279,0.207811 -1.509609,0.906137 -3.829994,2.235649 -2.849243,1.632533 -3.986496,2.294102 -4.140192,2.40845 -0.26664,0.198379 -0.259991,0.134831 -0.281975,2.694157 -0.01529,1.779344 -0.0315,2.330249 -0.07058,2.398683 -0.05916,0.103579 -0.01064,0.102844 -1.123919,0.01704 z"
     id="path321" /><path
     style="fill:#ffffff;stroke:none;stroke-width:0.114821;stroke-linecap:round;stroke-dasharray:none"
     d="m 111.62874,79.008488 c -0.0139,-0.05429 -0.0528,-0.427419 -0.0865,-0.829175 -0.14901,-1.776193 -0.45757,-3.282736 -1.02299,-4.994789 -0.61133,-1.851027 -1.57969,-3.801432 -2.4995,-5.034274 -1.29156,-1.731127 -3.43551,-3.41439 -5.45875,-4.28578 -1.36282,-0.586954 -2.26521,-0.763505 -5.626539,-1.10082 -5.203587,-0.522189 -12.529728,-1.175853 -16.386067,-1.462024 -1.020675,-0.07574 -1.917266,-0.1427 -1.992424,-0.148793 -0.125309,-0.01016 -0.0057,-0.09511 1.441186,-1.023486 2.708296,-1.737756 3.961064,-2.503998 4.334671,-2.651257 0.428067,-0.168725 1.152303,-0.148071 5.317745,0.151651 5.384323,0.387427 9.104524,0.695108 12.161228,1.005801 2.82026,0.28666 3.81265,0.443021 4.26697,0.672301 0.27545,0.139014 0.27133,0.160297 -0.0896,0.462415 -0.33837,0.283228 -1.2305,0.954391 -2.44992,1.843095 -0.38546,0.280929 -0.70085,0.520996 -0.70085,0.533485 0,0.01249 0.41885,0.225618 0.93077,0.473628 1.41047,0.683323 1.78834,0.908476 3.45202,2.056892 0.24973,0.172392 0.47846,0.313595 0.50828,0.313785 0.0671,5.29e-4 0.32221,-0.180406 1.52517,-1.081214 0.96307,-0.721178 1.74863,-1.258531 2.06078,-1.40964 0.12243,-0.05926 0.21116,-0.07638 0.30487,-0.0588 0.20329,0.03814 0.95438,0.555046 1.30316,0.89684 0.28148,0.275849 0.30705,0.313134 0.25665,0.374197 -0.0735,0.08908 -1.60715,1.234274 -2.89887,2.164657 -0.56462,0.406683 -1.03272,0.756407 -1.04022,0.777161 -0.007,0.02074 0.14558,0.281424 0.34014,0.579268 1.46969,2.249808 1.98642,3.742759 2.18268,6.30627 0.09,1.175663 0.0368,4.940178 -0.0768,5.42912 -0.0305,0.131337 -0.0333,0.133295 -0.0573,0.03948 z"
     id="path322" /><path
     style="fill:#ffffff;stroke:none;stroke-width:0.114821;stroke-linecap:round;stroke-dasharray:none"
     d="m 103.8264,102.56944 c -0.001,-0.0171 0.0682,-0.2747 0.15389,-0.57252 0.50523,-1.75599 0.81672,-3.461211 1.01129,-5.536282 0.0866,-0.923698 0.12154,-3.542012 0.0601,-4.508093 -0.11445,-1.80064 -0.36087,-3.402597 -0.75751,-4.924594 -0.69666,-2.673199 -1.75994,-5.291572 -2.96223,-7.294621 -3.520978,-5.866048 -8.931889,-10.112616 -14.758581,-11.582766 -1.410131,-0.355793 -2.824565,-0.544864 -4.74177,-0.633846 -1.049073,-0.04869 -1.767364,-0.02802 -2.882368,0.08295 -0.423471,0.04214 -0.858787,0.08458 -0.96737,0.0943 l -0.197424,0.01767 0.154234,-0.08093 c 0.08483,-0.04451 0.326265,-0.149127 0.53653,-0.232473 1.334344,-0.528929 2.921751,-0.904635 4.60016,-1.088763 0.873849,-0.09587 2.834841,-0.09686 3.683897,-0.0019 1.350367,0.151072 2.434452,0.386514 3.573182,0.776023 4.455768,1.52412 8.276931,4.570733 11.36617,9.062244 2.81473,4.09239 4.43619,9.209419 4.61054,14.549989 0.12355,3.78447 -0.39069,6.917454 -1.65143,10.061182 -0.35784,0.89231 -0.8253,1.91139 -0.83135,1.81242 z"
     id="path323" /><path
     style="fill:#ffffff;stroke:none;stroke-width:0.114821;stroke-linecap:round;stroke-dasharray:none"
     d="m 108.12819,82.038922 c -7.9e-4,-0.06421 -0.60171,-1.774539 -0.7831,-2.228749 -0.93672,-2.345727 -1.78799,-3.877321 -3.21741,-5.788756 -1.52405,-2.037961 -3.08136,-3.629482 -4.942612,-5.051205 -0.30403,-0.232235 -0.623855,-0.485955 -0.710721,-0.563825 -0.136228,-0.122115 -0.14437,-0.137877 -0.05923,-0.114644 0.413052,0.112705 2.631503,1.378347 3.367373,1.921114 2.10548,1.552948 4.71131,4.906409 5.5755,7.175108 0.31254,0.820508 0.58503,1.955972 0.71106,2.962995 0.0681,0.544211 0.12594,1.697834 0.0851,1.697834 -0.0142,0 -0.0259,-0.0044 -0.026,-0.0099 z"
     id="path324" /><path
     style="fill:#ffffff;stroke:none;stroke-width:0.114821;stroke-linecap:round;stroke-dasharray:none"
     d="m 68.446384,68.858333 c -2.10648,-0.181975 -3.568247,-0.32275 -9.397312,-0.904997 -3.680941,-0.367678 -8.70041,-0.864902 -11.15437,-1.10494 -2.453963,-0.240038 -4.516951,-0.445426 -4.584417,-0.456419 -0.09506,-0.01548 -0.428319,-0.311674 -1.48067,-1.315942 -0.7469,-0.71278 -1.391848,-1.334331 -1.433219,-1.381231 -0.07462,-0.08459 -0.07446,-0.08527 0.01974,-0.08485 0.05223,2.33e-4 0.343713,0.02701 0.647743,0.05951 1.77619,0.189841 4.251497,0.427297 12.950915,1.242375 5.320538,0.498502 10.455498,0.977898 11.411022,1.065326 0.955524,0.08743 1.923883,0.176933 2.151906,0.198898 0.228024,0.02196 1.32964,0.120171 2.448039,0.218239 1.93171,0.169384 3.351459,0.316627 3.385998,0.351163 0.042,0.04201 -1.696649,1.188816 -2.603649,1.71736 -0.649544,0.378519 -0.747199,0.407972 -1.394359,0.420569 -0.30403,0.0059 -0.739347,-0.0053 -0.96737,-0.02506 z"
     id="path325" /><path
     style="fill:#ffffff;stroke:none;stroke-width:0.114821;stroke-linecap:round;stroke-dasharray:none"
     d="m 45.665407,94.500443 c -7.94e-4,-0.02487 0.03293,-0.158118 0.07511,-0.296135 0.768028,-2.51311 1.048364,-6.42303 0.690351,-9.628505 C 45.784059,78.784574 43.279847,73.457257 39.287713,69.379874 38.211949,68.281136 37.43255,67.609407 35.976201,66.525822 l -0.941808,-0.700744 0.825256,-0.412986 0.825254,-0.412985 0.827276,0.67155 c 1.319731,1.071305 1.871779,1.564129 2.862971,2.555835 1.205376,1.205997 1.875081,1.983994 2.696592,3.132638 1.748784,2.445165 2.982349,5.164555 3.774376,8.320595 0.494395,1.970053 0.659972,3.697465 0.622575,6.495201 -0.03006,2.249051 -0.153072,3.231293 -0.621035,4.958871 -0.344824,1.272982 -1.172993,3.631325 -1.182251,3.366646 z"
     id="path326" /><path
     style="fill:#ffffff;stroke:none;stroke-width:0.114821;stroke-linecap:round;stroke-dasharray:none"
     d="m 30.580746,63.646168 c -1.831761,-0.72177 -5.542935,-1.15991 -8.203841,-0.968544 -0.483706,0.03479 -0.936791,0.06172 -1.006854,0.05985 -0.118038,-0.0031 -0.10903,-0.01196 0.122731,-0.120089 0.376249,-0.175541 1.9234,-0.680633 2.575425,-0.840793 1.287026,-0.316135 2.490317,-0.439304 3.96003,-0.405345 1.851149,0.04277 3.34001,0.337939 5.27341,1.045451 l 0.490027,0.179322 -0.983583,0.49231 c -0.54097,0.270772 -1.095039,0.534347 -1.231263,0.585724 -0.341243,0.128701 -0.618365,0.120941 -0.996082,-0.02789 z"
     id="path327" /><path
     style="fill:#ffffff;stroke:none;stroke-width:0.114821;stroke-linecap:round;stroke-dasharray:none"
     d="m 22.229774,109.68611 c -2.121637,-0.15733 -4.008908,-0.67095 -6.002372,-1.63355 C 12.016713,106.01931 8.2087849,102.08753 6.0224439,97.515698 4.574383,94.487672 3.7441284,91.237122 3.5342323,87.774047 c -0.1022604,-1.687193 -0.00661,-4.170458 0.220526,-5.725253 0.4758245,-3.257129 1.8808433,-6.659076 3.8077469,-9.219631 0.9354325,-1.243045 2.1611262,-2.47853 3.3352168,-3.36186 1.925288,-1.448496 4.200994,-2.436879 6.57417,-2.855291 1.609379,-0.283747 3.41346,-0.310819 5.093501,-0.07643 4.376843,0.610622 8.624871,2.845896 12.047034,6.339042 3.838208,3.917817 6.071693,8.880745 6.616394,14.702004 0.08551,0.913884 0.09698,3.32436 0.0199,4.185357 -0.575347,6.427372 -3.408857,11.764565 -7.996494,15.062195 -2.041919,1.46774 -4.632606,2.50202 -7.034522,2.8084 -0.565015,0.0721 -3.251605,0.10813 -3.987935,0.0535 z m 3.454894,-2.66348 c 1.225924,-0.11764 1.929652,-0.27383 2.961339,-0.65725 1.752378,-0.65127 3.478755,-1.77911 4.916755,-3.21212 3.577936,-3.565517 5.310492,-7.956042 5.309568,-13.45515 -1.77e-4,-1.061379 -0.0413,-1.752023 -0.160133,-2.689328 -0.815621,-6.433347 -4.598843,-12.179237 -10.224128,-15.528238 -2.144467,-1.276702 -4.614917,-2.07319 -7.154684,-2.306717 -0.726365,-0.06679 -2.312293,-0.02646 -2.996541,0.07622 -4.365445,0.655024 -7.78813,3.019817 -10.0663821,6.955039 -0.4778666,0.825421 -1.1263752,2.245683 -1.478385,3.23773 -0.7199525,2.028997 -1.007843,3.900147 -1.0074138,6.547697 5.027e-4,3.162316 0.3735787,5.477031 1.2893424,7.999815 2.0251465,5.578959 5.7443325,9.760622 10.5558245,11.868432 1.140788,0.49975 2.773457,0.98147 3.875953,1.1436 0.869857,0.12791 2.951851,0.13802 4.178885,0.0203 z"
     id="path328" /><path
     style="fill:#ffffff;stroke:none;stroke-width:0.114821;stroke-linecap:round;stroke-dasharray:none"
     d="m 22.900074,103.80586 c -2.756353,-0.32483 -5.487967,-1.49309 -7.55965,-3.23314 C 12.210273,97.943651 9.9129022,93.726436 9.2823689,89.452137 9.0968459,88.194504 9.0961882,86.032824 9.2807549,84.141474 9.3923651,82.997733 9.5290843,82.371848 9.9084434,81.26799 10.53232,79.452636 11.378632,77.959836 12.606465,76.508982 c 0.473429,-0.559421 0.419177,-0.401431 -0.177995,0.518346 -0.412296,0.635026 -0.841439,1.436121 -1.114179,2.079871 -1.4575871,3.440358 -1.7305316,7.537188 -0.769447,11.549216 0.147543,0.615918 0.154277,0.639239 0.43321,1.500412 0.675878,2.086695 1.728475,4.033616 3.116689,5.764737 0.45115,0.562591 1.440612,1.590233 1.995193,2.072182 2.014517,1.750684 4.450614,2.918164 6.955555,3.333404 0.833194,0.13812 1.272065,0.16564 2.678664,0.16797 l 1.362215,0.002 -0.375102,0.0745 c -0.206306,0.041 -0.739841,0.12789 -1.185631,0.19318 -0.960214,0.14064 -1.683319,0.15189 -2.625561,0.0408 z"
     id="path329" /><path
     style="fill:#ffffff;stroke:none;stroke-width:0.114821;stroke-linecap:round;stroke-dasharray:none"
     d="m 56.265415,88.59933 c -1.67176,-0.211535 -4.073454,-0.601507 -4.144987,-0.673039 -0.02318,-0.02318 0.245282,-1.297141 0.314944,-1.494584 0.09118,-0.258448 0.159359,-0.316008 0.374267,-0.316008 0.318132,0 3.970435,0.354351 4.340124,0.421087 l 0.134144,0.02421 -0.02654,0.55717 c -0.03409,0.715507 -0.09691,1.280879 -0.156234,1.406083 -0.04232,0.08932 -0.07115,0.09925 -0.303048,0.104381 -0.140952,0.0031 -0.380651,-0.01005 -0.532667,-0.0293 z"
     id="path330" /><path
     style="fill:#ffffff;stroke:none;stroke-width:0.114821;stroke-linecap:round;stroke-dasharray:none"
     d="m 80.469414,116.1816 c -1.035164,-0.11356 -2.35454,-0.34471 -3.277214,-0.57415 -2.933806,-0.72952 -6.113169,-2.32575 -8.212775,-4.12332 -1.042758,-0.89275 -2.455723,-2.30229 -3.344194,-3.33608 -1.707356,-1.98663 -3.325074,-4.87804 -4.371382,-7.81315 -1.349116,-3.784553 -1.738992,-8.027972 -1.127633,-12.273172 0.333489,-2.315707 0.969486,-4.451321 1.891451,-6.351302 2.684568,-5.532342 7.111587,-9.073896 12.5783,-10.062456 1.137652,-0.205727 1.573871,-0.238808 3.15876,-0.239554 1.510863,-7.94e-4 1.926135,0.02429 3.000822,0.180573 2.724965,0.396293 5.338342,1.396053 7.936384,3.036102 2.636927,1.664597 4.937334,3.84692 6.787718,6.439302 4.038264,5.657588 5.671959,12.906447 4.382024,19.443407 -0.698306,3.53879 -2.19747,6.72472 -4.412684,9.37757 -0.462965,0.55443 -1.542502,1.64509 -2.078146,2.09956 -2.04752,1.73723 -4.395253,2.97026 -6.933559,3.64151 -1.918857,0.50744 -4.352664,0.73347 -5.977872,0.55516 z m 3.079792,-2.79967 c 1.894015,-0.22772 3.528251,-0.70842 5.120334,-1.50612 2.905514,-1.45578 5.349491,-3.95015 6.93787,-7.08093 1.158761,-2.28398 1.827498,-4.71407 2.020556,-7.342396 0.06839,-0.931013 0.02809,-2.859831 -0.07887,-3.775504 -0.378285,-3.23832 -1.268536,-6.017247 -2.764718,-8.630113 -1.943648,-3.394303 -5.234517,-6.723311 -8.392282,-8.489551 -1.862905,-1.041979 -4.046943,-1.812432 -6.139842,-2.165924 -0.983467,-0.166108 -1.602036,-0.214786 -2.744171,-0.215947 -1.485561,-0.0016 -2.484295,0.117919 -3.756517,0.449204 -4.968436,1.293775 -9.020816,5.610529 -10.693797,11.391453 -0.339021,1.171469 -0.602631,2.555237 -0.688422,3.613716 -0.180338,2.224985 -0.01418,5.587204 0.353057,7.143925 0.297344,1.260457 0.873808,2.997941 1.444001,4.352257 1.585595,3.7661 4.714634,7.46112 8.116811,9.58499 1.687184,1.05325 3.917937,1.9439 5.937417,2.37058 0.869513,0.18371 1.51902,0.27478 2.663375,0.37343 0.395623,0.0341 2.180907,-0.0148 2.665203,-0.0731 z"
     id="path331" /><path
     style="fill:#ffffff;stroke:none;stroke-width:0.114821;stroke-linecap:round;stroke-dasharray:none"
     d="m 80.507144,109.96175 c -1.851756,-0.10101 -3.213997,-0.49904 -5.269426,-1.53966 -1.614689,-0.81748 -2.869719,-1.72237 -4.129527,-2.97743 -2.532518,-2.52297 -4.361342,-5.978194 -5.108022,-9.650672 -0.191551,-0.942123 -0.205814,-1.128268 -0.227087,-2.963486 -0.03705,-3.196625 0.146555,-4.411399 0.994034,-6.576608 0.512567,-1.309545 1.319586,-2.719303 2.226395,-3.889225 0.270592,-0.349104 0.992756,-1.11874 1.022152,-1.089342 0.0093,0.0093 -0.09806,0.17376 -0.23849,0.365543 -2.100472,2.868464 -3.187997,6.557367 -3.094387,10.496214 0.02635,1.108483 0.09059,1.799916 0.264932,2.851359 0.129657,0.781926 0.417489,1.976933 0.64942,2.696213 0.694518,2.153888 1.910178,4.375774 3.294486,6.021384 0.436901,0.51938 1.528009,1.62543 2.090055,2.11868 2.036331,1.78709 4.507939,3.01885 7.231086,3.60369 0.868215,0.18647 1.224953,0.22026 2.744174,0.25997 1.610532,0.0421 2.025783,0.0686 1.888191,0.12045 -0.131799,0.0497 -0.919046,0.11182 -1.967161,0.15525 -1.046369,0.0434 -1.541949,0.0429 -2.370825,-0.002 z"
     id="path332" /><path
     style="fill:#ffffff;stroke:none;stroke-width:0.0405953;stroke-linecap:round;stroke-dasharray:none"
     d="m 108.04249,105.79807 c 0,-0.0261 0.12468,-0.23248 0.19718,-0.32646 0.0318,-0.0412 0.0968,-0.10551 0.14451,-0.14302 0.0477,-0.0375 0.12897,-0.12068 0.18053,-0.18482 0.48564,-0.60413 1.42893,-2.31869 2.05486,-3.735 0.1705,-0.38581 0.20863,-0.48147 0.44671,-1.12099 0.11004,-0.295605 0.20027,-0.525817 0.20051,-0.511587 7.9e-4,0.05069 -0.0977,1.009867 -0.1192,1.160717 -0.15884,1.11226 -0.55958,2.13855 -1.12837,2.88969 -0.42228,0.55766 -1.64535,1.80483 -1.92298,1.96086 -0.0411,0.0231 -0.0537,0.0256 -0.0537,0.0106 z"
     id="path333" /><path
     style="fill:#ffffff;stroke:none;stroke-width:0.0811906;stroke-linecap:round;stroke-dasharray:none"
     d="m 115.7716,91.956517 c -0.0178,-0.02151 -0.0438,-0.112586 -0.0577,-0.202417 -0.0736,-0.475517 -0.14284,-4.692063 -0.14588,-8.888257 -0.002,-2.784112 0.005,-3.304233 0.0581,-4.577958 0.0332,-0.790343 0.0696,-1.445501 0.0808,-1.455907 0.0112,-0.0104 0.36593,-0.279591 0.78822,-0.598189 1.41373,-1.066599 1.68708,-1.245859 1.90865,-1.251667 0.0955,-0.0024 0.12285,0.01299 0.22813,0.129284 0.22333,0.246665 0.30567,0.513101 0.23576,0.762801 -0.083,0.296402 -0.45291,0.720672 -1.23291,1.414045 l -0.41372,0.367776 -5.3e-4,0.434147 c -0.002,1.867283 -0.0849,12.936215 -0.0967,12.955379 -0.008,0.01341 -0.20558,0.184097 -0.43843,0.379304 -0.62337,0.522583 -0.82434,0.639505 -0.91384,0.531659 z"
     id="path334" /><path
     style="fill:#ffffff;stroke:none;stroke-width:0.0811906;stroke-linecap:round;stroke-dasharray:none"
     d="m 119.82953,67.049765 c -0.12002,-0.12002 -0.54236,-1.085096 -0.54236,-1.239332 0,-0.122356 0.66649,-0.642114 2.0577,-1.604669 3.03018,-2.096542 4.64728,-3.366174 5.94163,-4.664935 1.17719,-1.181192 1.92128,-2.257094 2.39706,-3.465954 0.36777,-0.934426 0.39398,-1.131176 0.39217,-2.943574 -0.001,-1.393701 -0.0224,-1.814484 -0.11195,-2.247728 -0.0243,-0.117446 -0.0386,-0.219057 -0.0319,-0.225801 0.0309,-0.03087 0.64008,0.71478 0.88891,1.087993 0.4626,0.693859 0.7359,1.314818 0.80734,1.834338 0.0476,0.346271 0.0399,1.42372 -0.013,1.818976 -0.11788,0.880202 -0.4307,1.654212 -1.07918,2.67022 -1.00004,1.566828 -2.20921,2.851213 -4.14317,4.400902 -1.00975,0.809122 -1.9628,1.503437 -3.75521,2.735741 -1.34748,0.926412 -2.17108,1.502109 -2.45693,1.71739 -0.2845,0.214259 -0.26887,0.208632 -0.35107,0.126433 z"
     id="path335" /><path
     style="fill:#ffffff;stroke:none;stroke-width:0.0574104;stroke-linecap:round;stroke-dasharray:none"
     d="m 79.483574,49.07097 c -0.01423,-0.09492 -0.008,-0.194775 0.04909,-0.791294 0.05854,-0.611299 0.146042,-1.639383 0.255391,-3.000823 0.147156,-1.832144 0.27032,-3.145073 0.309976,-3.304373 0.02728,-0.10958 0.05002,0.03624 0.06681,0.428493 0.04521,1.056039 0.232866,3.79835 0.364752,5.33042 0.0377,0.437904 0.06383,0.803812 0.05807,0.813126 -0.02257,0.03653 -1.040792,0.611684 -1.08289,0.611684 -0.0045,0 -0.014,-0.03925 -0.02119,-0.08723 z"
     id="path336" /></svg>
