<?xml version="1.0" encoding="UTF-8" standalone="no"?>
<!-- Created with Inkscape (http://www.inkscape.org/) -->

<svg
   width="512"
   height="512"
   viewBox="0 0 135.46667 135.46667"
   version="1.1"
   id="svg1"
   xml:space="preserve"
   xmlns="http://www.w3.org/2000/svg"
   xmlns:svg="http://www.w3.org/2000/svg"><defs
     id="defs1" /><path
     style="fill:#000000;stroke-width:0.530657"
     d="m 64.901658,114.61583 c -2.637667,-0.25549 -6.262871,-1.56522 -8.810444,-3.18307 -3.698798,-2.34896 -6.793019,-5.70525 -8.860097,-9.61052 -1.325495,-2.504221 -2.389225,-5.61272 -2.900693,-8.476588 -0.221794,-1.241889 -0.505886,-1.755041 -0.971636,-1.755041 -0.09378,0 -0.544845,0.291641 -1.002367,0.648084 -2.788947,2.1728 -4.64302,2.850225 -7.319692,2.674403 l -1.306728,-0.08581 -1.789039,1.168445 c -6.770836,4.422157 -7.261351,4.687187 -9.798779,5.294567 -1.760704,0.42145 -4.597569,0.32843 -6.451764,-0.21156 C 10.33027,99.517764 5.5097292,95.236367 2.7250876,89.56351 -0.79216591,82.398166 -0.84451204,73.207561 2.599877,67.579804 c 1.8036295,-2.94693 4.6815584,-5.266872 7.566214,-6.099217 l 0.793804,-0.229055 -0.07191,-1.643696 c -0.08607,-1.96726 0.135673,-3.103811 0.88302,-4.526016 0.648043,-1.233227 1.705664,-2.294932 3.088617,-3.100538 1.351631,-0.787348 7.597113,-3.969107 9.014334,-4.592334 0.562641,-0.247426 1.059106,-0.559665 1.103253,-0.693865 0.664269,-2.019191 1.933737,-3.260083 5.474877,-5.351672 1.191591,-0.703807 1.350595,-0.874353 1.586699,-1.701859 1.110999,-3.893884 6.04233,-6.420888 16.716531,-8.566199 1.196935,-0.240561 2.279645,-0.466954 2.406022,-0.503096 0.126377,-0.03614 0.472773,-0.481219 0.76977,-0.98906 1.143729,-1.955686 2.571245,-2.990337 5.017973,-3.636982 0.529656,-0.139983 1.082504,-0.353842 1.228552,-0.475242 0.146046,-0.1214 0.575299,-1.105266 0.953895,-2.186368 1.062577,-3.034245 1.86378,-5.134435 2.876417,-7.539943 0.510439,-1.212546 0.92807,-2.22794 0.92807,-2.25643 0,-0.02849 -0.274519,-0.338305 -0.610047,-0.688479 -1.215623,-1.268696 -1.23478,-3.2788332 -0.05248,-5.5078258 0.582206,-1.0976349 1.333966,-1.8437543 2.326596,-2.3091344 0.732996,-0.3436547 0.925769,-0.3706167 2.548029,-0.3563742 0.96527,0.00844 3.460933,0.1502176 5.545915,0.3149857 6.365516,0.5030405 12.522647,0.9772676 14.81251,1.1408717 2.80959,0.2007377 3.509017,0.4111979 4.43635,1.3349177 0.93368,0.9300486 1.251628,1.8108611 1.242363,3.4417493 -0.0054,0.954651 -0.07984,1.370259 -0.371927,2.077262 -0.486018,1.176422 -0.910782,1.771606 -1.543145,2.162291 -0.324342,0.200388 -0.499915,0.403709 -0.461236,0.534148 0.03433,0.115832 0.570732,1.9165 1.191967,4.001484 0.621239,2.084983 1.26162,4.271666 1.423068,4.859292 l 0.293543,1.068412 1.422505,0.167249 c 11.822164,1.389979 22.979944,4.223022 29.597014,7.514907 4.4453,2.211463 8.22019,5.722263 9.47615,8.813205 0.73121,1.799499 0.77657,2.358442 0.68136,8.395388 -0.0481,3.050254 -0.15039,6.114548 -0.22729,6.809541 -0.33253,3.005256 -1.88295,6.1531 -4.85883,9.864848 -1.02221,1.274992 -4.44727,4.82329 -6.23648,6.460875 l -0.79035,0.723379 -0.0996,1.093049 c -0.39919,4.379545 -1.94908,7.754228 -5.13559,11.182082 -0.58449,0.628757 -1.53296,1.836059 -2.10769,2.682881 -1.14464,1.686538 -2.74882,3.38796 -4.2744,4.53353 -1.20184,0.902474 -3.20949,1.916823 -4.38114,2.213547 -0.7873,0.199389 -0.99016,0.335531 -2.10605,1.413421 -2.88964,2.791256 -7.335716,6.266146 -9.307987,7.274776 -3.285879,1.68041 -5.948291,1.91562 -9.62466,0.85024 -1.018453,-0.29513 -1.264136,-0.32435 -1.465589,-0.17429 -0.133115,0.0991 -1.151441,0.90801 -2.262949,1.79747 -2.776227,2.2216 -5.194716,4.04357 -6.414717,4.83251 -2.035617,1.31638 -4.3684,2.17101 -6.913101,2.53266 -1.568818,0.22296 -2.125302,0.23366 -3.786422,0.0728 z m 4.264836,-2.89429 c 3.627421,-0.68696 6.855524,-2.98578 8.976352,-6.39234 2.723039,-4.37384 3.208738,-10.578566 1.282152,-16.379228 -2.298816,-6.921405 -7.416508,-12.436008 -13.548476,-14.59925 -4.878418,-1.721014 -9.326352,-1.324453 -13.032214,1.161917 -1.70442,1.143537 -3.585741,3.298931 -4.558827,5.222962 -1.394881,2.758003 -2.088313,6.663751 -1.779428,10.022584 0.949406,10.323845 7.330577,18.468515 16.277982,20.776545 2.074151,0.53504 4.213064,0.59765 6.382459,0.18681 z m -5.949677,-1.73349 c -2.911127,-0.62544 -5.434419,-1.90354 -8.073167,-4.08925 -3.497734,-2.89723 -6.103753,-7.796521 -6.901274,-12.974353 -0.312432,-2.028443 -0.184629,-5.248999 0.288778,-7.277096 0.64,-2.741797 1.633508,-4.665117 3.354479,-6.493907 1.607988,-1.708732 3.30312,-2.747439 5.406803,-3.313072 1.672385,-0.449662 4.540131,-0.415319 6.415796,0.07686 5.408199,1.419053 10.613173,6.224856 13.114366,12.108641 1.800375,4.235179 2.087615,9.237798 0.770376,13.416977 -1.972266,6.25735 -8.092496,9.89523 -14.376157,8.54523 z m 0.491415,-2.11206 c -5.071883,-1.33199 -9.768716,-5.72705 -12.180116,-11.397541 -0.24015,-0.564707 -0.617494,-1.690157 -0.838543,-2.50099 l -0.401907,-1.474227 0.07746,1.133481 c 0.150342,2.200108 1.337241,5.306441 2.906014,7.605577 0.997484,1.46189 3.144757,3.58264 4.621822,4.56474 2.117959,1.40823 4.510935,2.33317 6.025876,2.32913 l 0.772216,-0.002 z m 0.49141,-6.87009 c 0,-1.230991 -0.04739,-2.26733 -0.105304,-2.302985 -0.05792,-0.03569 -0.405412,-0.109728 -0.772217,-0.164628 l -0.666914,-0.09984 0.0139,1.455074 c 0.02213,2.317959 0.133126,2.960299 0.547723,3.169379 0.193059,0.0974 0.493166,0.17793 0.666919,0.17907 0.314477,0.002 0.315906,-0.008 0.315906,-2.23609 z m 6.292321,0.019 0.465592,-0.38629 -1.014111,-1.400064 c -0.557763,-0.770033 -1.150544,-1.564853 -1.317292,-1.766265 -0.301046,-0.36361 -0.305488,-0.364312 -0.632272,-0.09973 -0.181001,0.146563 -0.424059,0.31963 -0.540129,0.384585 -0.169858,0.09506 0.04208,0.463834 1.086148,1.889851 0.713453,0.974453 1.339776,1.770053 1.391829,1.767953 0.05205,-0.002 0.304156,-0.17761 0.560235,-0.39007 z m -11.716683,-2.916531 1.104377,-1.16268 -0.472564,-0.567097 -0.472563,-0.567086 -1.248422,1.244938 -1.248423,1.244939 0.47035,0.560234 c 0.258692,0.308132 0.536166,0.526308 0.616609,0.484838 0.08044,-0.04148 0.643229,-0.598613 1.250636,-1.238086 z m 6.904331,-1.514823 c 2.194038,-1.021679 2.786676,-4.02602 1.287756,-6.528219 -1.096459,-1.830356 -3.196693,-2.842071 -5.001228,-2.409165 -1.01172,0.242699 -2.004888,1.159061 -2.406516,2.22039 -0.79661,2.105089 0.219772,5.027304 2.186039,6.285114 1.320894,0.844962 2.717573,0.998295 3.933949,0.43188 z m 7.927026,-2.893718 c 0,-0.425891 -0.07495,-0.606075 -0.315905,-0.759399 -0.266464,-0.169559 -3.086773,-0.788272 -3.593216,-0.788272 -0.103106,0 -0.162561,0.277682 -0.162561,0.759236 v 0.759237 l 1.368924,0.23546 c 0.752913,0.129503 1.43211,0.256708 1.509332,0.282694 0.07723,0.02603 0.377334,0.05226 0.666919,0.05836 0.522007,0.01098 0.526507,0.0061 0.526507,-0.547292 z M 57.741104,91.180234 c 0,-0.656442 -0.02289,-0.698389 -0.456309,-0.835843 -0.25097,-0.07961 -0.975593,-0.240746 -1.610274,-0.35812 -0.63468,-0.117385 -1.31388,-0.253547 -1.509332,-0.302601 -0.345354,-0.08672 -0.355367,-0.06903 -0.355367,0.625362 0,0.625117 0.03954,0.723978 0.315906,0.789828 0.173749,0.04138 1.042492,0.225852 1.930541,0.409889 0.888048,0.184037 1.63043,0.340919 1.649735,0.348615 0.01931,0.0081 0.03511,-0.297009 0.03511,-0.67713 z m 11.768279,-4.127097 1.302715,-1.308155 -0.537206,-0.605354 -0.537204,-0.605364 -1.038108,1.176405 c -0.570961,0.647007 -1.163641,1.289398 -1.317065,1.427532 -0.276365,0.248809 -0.274588,0.255651 0.192066,0.737114 0.259062,0.267282 0.507266,0.485977 0.551555,0.485977 0.04431,0 0.666754,-0.588681 1.383247,-1.308155 z m -9.872838,-0.297741 c 0.320407,-0.259291 0.387608,-0.390776 0.280805,-0.549417 -0.07723,-0.114711 -0.614262,-0.889848 -1.193425,-1.722528 -0.579162,-0.832681 -1.097652,-1.579503 -1.1522,-1.659607 -0.06029,-0.08855 -0.290159,0.03945 -0.586191,0.326401 l -0.487012,0.472028 1.147803,1.72993 c 0.631291,0.951457 1.242574,1.733111 1.358406,1.736995 0.115832,0.0041 0.400148,-0.146319 0.631814,-0.333802 z m 4.563097,-3.162393 v -2.381439 l -0.581733,-0.156648 c -0.462287,-0.124481 -0.607534,-0.118381 -0.707371,0.02969 -0.06909,0.10248 -0.105728,1.197237 -0.08141,2.432782 l 0.0442,2.246447 0.487636,0.08682 c 0.268195,0.04778 0.56661,0.09516 0.663136,0.105306 0.134229,0.01413 0.175504,-0.541548 0.175504,-2.362957 z m 26.900501,17.147337 c 1.877283,-1.218256 3.321158,-3.317296 3.80041,-5.524865 0.262999,-1.21146 0.350366,-7.812554 0.178056,-13.453122 C 94.923032,76.669545 94.333269,74.032464 92.753818,71.367161 90.57249,67.686198 87.460607,66.04971 81.679811,65.543522 l -0.982824,-0.08601 1.443944,0.816394 c 3.466012,1.959635 6.204338,4.409679 8.08522,7.23403 2.686694,4.034356 3.880142,8.204783 3.878671,13.553751 -0.0016,5.409489 -1.299367,10.267183 -3.563976,13.339203 -0.37364,0.50685 -0.56724,0.87752 -0.458339,0.87752 0.103701,0 0.561636,-0.24211 1.017636,-0.53802 z M 22.289359,98.611121 c 2.085865,-0.655598 4.03804,-1.988031 5.401176,-3.686525 1.042054,-1.298425 2.301087,-3.935455 2.743288,-5.745782 0.349983,-1.432809 0.661794,-4.652714 0.548238,-5.6614 -0.326009,-2.895863 -0.83231,-5.068103 -1.658966,-7.117652 -1.703393,-4.223263 -4.429956,-7.644377 -7.870991,-9.876021 -2.604184,-1.688907 -5.115228,-2.460496 -8.008132,-2.460719 -4.0058554,-3.15e-4 -7.2457755,1.973939 -9.2527546,5.638168 -2.0383626,3.721529 -2.460142,9.182949 -1.1103839,14.377831 1.9646268,7.561376 7.3097805,13.248843 13.8030105,14.686989 1.604456,0.355355 4.000509,0.2867 5.405515,-0.154889 z m -5.3825,-1.421412 C 11.857184,96.350064 6.9029253,91.667613 4.743491,85.69366 3.7116476,82.839125 3.2772423,78.930804 3.6838428,76.160083 c 0.788918,-5.37598 3.5589633,-8.883439 7.8306082,-9.915193 1.476081,-0.356525 3.903973,-0.232298 5.439595,0.278312 5.162158,1.7165 9.952729,7.153866 11.440851,12.985527 1.171881,4.592374 0.856138,8.766736 -0.925091,12.230376 -2.141712,4.164612 -6.078805,6.196197 -10.562947,5.450604 z m 0.398194,-1.975576 C 13.663741,94.186608 10.888867,92.11698 8.6596947,88.766006 7.4694628,86.976815 6.6831393,85.172273 6.0671431,82.816362 5.7332077,81.539215 5.6620736,81.3748 5.657338,81.869164 c -0.012637,1.31881 0.8365275,4.256112 1.7550867,6.070943 1.3995941,2.765231 4.1914353,5.502047 6.7350513,6.602314 0.944093,0.408375 2.554633,0.825076 3.157577,0.816973 l 0.49141,-0.0061 z m 0.109158,-6.398259 c 0.03893,-1.997486 0.03871,-1.99899 -0.280807,-2.000912 -0.175868,-10e-4 -0.463753,-0.04046 -0.639743,-0.08764 l -0.319983,-0.08571 0.03918,1.944049 c 0.03859,1.91483 0.04446,1.946744 0.390184,2.123298 0.727825,0.371693 0.768905,0.275822 0.811172,-1.893074 z m 5.292194,-0.02897 0.399381,-0.416864 -0.408214,-0.572383 c -0.224518,-0.314811 -0.731699,-1.039033 -1.127071,-1.609404 l -0.718856,-1.03702 -0.4518,0.466142 -0.4518,0.466141 1.085565,1.560126 c 0.59706,0.858067 1.12783,1.560126 1.179489,1.560126 0.05166,0 0.273647,-0.187596 0.493306,-0.416864 z M 13.509479,84.86646 c -0.254932,-0.317231 -0.500323,-0.575647 -0.545315,-0.574254 -0.045,0.002 -0.506431,0.468317 -1.025421,1.03762 l -0.943618,1.035099 0.431887,0.596193 0.431887,0.596204 1.057045,-1.057038 1.057045,-1.057049 z m 5.458255,-0.21042 c 1.065292,-0.738252 1.625799,-2.43696 1.286201,-3.898052 -0.503615,-2.166791 -2.109394,-3.618886 -4.009516,-3.625779 -1.18211,-0.0041 -1.984286,0.504755 -2.519587,1.598871 -0.352277,0.720024 -0.37992,0.892634 -0.322659,2.014728 0.09676,1.896033 0.824746,3.140392 2.358448,4.031327 0.548534,0.318644 0.76326,0.361375 1.62907,0.324205 0.828052,-0.03558 1.095798,-0.111101 1.578043,-0.4453 z m 6.41866,-2.548437 c -0.114634,-0.611047 -0.315236,-0.712541 -1.923895,-0.973438 -1.881365,-0.305112 -1.804954,-0.322802 -1.804954,0.417657 0,0.347496 0.01579,0.635752 0.0351,0.640561 0.811551,0.202296 3.699904,0.602324 3.73489,0.517269 0.02713,-0.06598 0.0086,-0.336852 -0.04114,-0.602049 z M 11.969742,80.030096 V 79.42099 l -1.559201,-0.323005 c -1.7390825,-0.360266 -1.8199868,-0.334778 -1.6799674,0.529338 0.084271,0.520065 0.085156,0.520645 1.1352414,0.74851 0.577998,0.125416 1.287834,0.235989 1.577416,0.245698 l 0.526511,0.01769 z m 9.674924,-3.668693 0.867312,-1.048529 -0.472715,-0.515815 -0.472715,-0.515827 -0.83202,1.009652 c -0.457611,0.555313 -0.850428,1.061776 -0.872929,1.12547 -0.04819,0.136417 0.647768,0.993578 0.80672,0.993578 0.05997,0 0.499325,-0.471835 0.976347,-1.048529 z m -8.617167,-2.136402 c -0.524824,-0.835212 -0.979544,-1.54692 -1.010491,-1.581568 -0.03095,-0.03467 -0.252522,0.133255 -0.492391,0.373127 l -0.436124,0.43612 0.632906,0.960709 c 0.348098,0.528382 0.805232,1.23768 1.015854,1.576199 l 0.382948,0.61549 0.43076,-0.430762 0.430761,-0.430761 z m 4.277554,-0.886351 v -2.105638 l -0.456309,-0.191459 c -0.713324,-0.299286 -0.807317,-0.122071 -0.807317,1.522072 0,0.790601 0.03971,1.727164 0.08825,2.081269 0.09108,0.664534 0.09852,0.670319 0.999877,0.77836 0.133536,0.01596 0.175503,-0.482469 0.175503,-2.084604 z m 85.096717,21.027512 c 0.14926,-0.288175 0.44053,-1.172715 0.64728,-1.965644 l 0.3759,-1.441694 0.0547,-8.704984 c 0.0671,-10.67079 -0.0354,-11.937099 -1.24286,-15.361557 -1.36819,-3.880149 -4.667069,-7.383765 -7.99095,-8.486909 -0.673817,-0.223626 -2.519298,-0.556828 -5.124712,-0.925278 -2.239425,-0.316702 -5.335308,-0.764493 -6.879742,-0.995114 -1.544435,-0.23061 -4.513958,-0.670451 -6.598941,-0.977413 -2.084983,-0.306962 -4.012015,-0.594302 -4.282289,-0.638527 -0.412129,-0.06741 -0.729261,0.04677 -1.965643,0.707793 -4.219199,2.25579 -4.73435,2.397005 -7.250799,1.987502 -0.76119,-0.123871 -2.773971,-0.44711 -4.472846,-0.718316 -6.933883,-1.106916 -10.979696,-1.772446 -11.469452,-1.88672 -1.393885,-0.325221 -2.219474,-1.457025 -2.331054,-3.195667 -0.06537,-1.01867 -0.0682,-1.024851 -0.503776,-1.102504 -0.401892,-0.07167 -2.437627,-0.371205 -11.14924,-1.640534 l -3.129498,-0.455985 -1.186893,0.402976 c -0.65279,0.221644 -2.559802,1.076101 -4.237804,1.898808 l -3.050912,1.495821 1.610781,0.385124 c 5.649466,1.350743 25.269566,5.009746 34.394871,6.414393 3.842036,0.591405 16.643432,2.393701 21.411452,3.014498 8.461121,1.10165 9.28469,1.257667 11.123665,2.107326 2.255318,1.042022 4.71098,3.21229 5.848496,5.168794 0.299758,0.515582 0.600481,0.937417 0.668272,0.937417 0.06779,0 0.580709,-0.336831 1.13982,-0.74851 1.828372,-1.34625 3.983464,-2.761561 4.205014,-2.761561 0.32672,0 0.49655,0.276197 0.82683,1.344694 0.68801,2.225818 0.71512,2.658623 0.78597,12.543571 0.0695,9.710985 0.0169,11.043937 -0.51385,12.998895 -0.49762,1.832918 -0.48124,1.726096 -0.21515,1.404037 0.12761,-0.154452 0.35413,-0.516589 0.50337,-0.804753 z M 84.696702,90.773181 c 0.0026,-0.671692 -0.636869,-3.365431 -1.200781,-5.058649 -1.229267,-3.691028 -3.242638,-6.777851 -6.321142,-9.691353 -3.556855,-3.366193 -7.519354,-5.095492 -12.432748,-5.425848 -1.321394,-0.08886 -4.052464,0.152103 -4.052464,0.357521 0,0.05246 0.492989,0.133346 1.095532,0.179808 1.373468,0.105916 3.444711,0.550372 4.966562,1.065741 5.04922,1.709901 10.04804,5.996645 13.055187,11.195512 1.357642,2.347137 2.528685,5.371811 3.135146,8.097749 L 83.180875,92.567363 83.9379,91.9035 c 0.629018,-0.551612 0.757327,-0.742746 0.758802,-1.130319 z M 112.41046,89.13284 c 0.81948,-1.006012 1.39634,-2.030588 1.76838,-3.1409 0.58429,-1.743786 0.24475,-1.536214 -0.72675,0.444273 -0.51789,1.055758 -1.16472,2.268305 -1.4374,2.694573 -0.6376,0.99673 -0.41543,0.997889 0.39577,0.002 z M 41.816579,85.629112 c 0.344291,-0.698084 0.792337,-1.901065 0.995657,-2.673284 0.336814,-1.279221 0.370896,-1.653639 0.383419,-4.21208 0.012,-2.450309 -0.02737,-2.991572 -0.30892,-4.248436 -0.414615,-1.850831 -1.442381,-4.563552 -1.650238,-4.355694 -0.03183,0.03182 0.126309,0.702252 0.35142,1.489823 0.638884,2.235192 0.869533,4.00716 0.871212,6.693092 0.002,3.320829 -0.480958,6.001647 -1.494193,8.292756 -0.334062,0.755373 -0.338759,0.793874 -0.06683,0.54778 0.16087,-0.145577 0.574182,-0.835863 0.918473,-1.533957 z m -7.859741,-5.247321 c 0.925739,-0.672535 0.925797,-0.672708 0.681902,-2.07404 C 34.376658,76.801895 33.646536,74.568248 32.885648,72.94455 29.59309,65.918418 22.389485,61.095169 16.412031,61.91447 c -0.758687,0.103995 -0.874087,0.331921 -0.16805,0.331921 0.669349,0 3.171089,0.840499 4.519078,1.518259 2.04756,1.029487 3.677562,2.233586 5.537724,4.090762 2.029893,2.026623 3.582051,4.221301 4.862229,6.874933 0.779763,1.616347 1.786901,4.444785 1.95337,5.485821 0.04955,0.30988 0.135721,0.563426 0.191487,0.563426 0.05576,0 0.347802,-0.179014 0.648969,-0.397801 z m 80.507062,-0.79177 0.49141,-0.51059 0.0701,-7.492345 c 0.0386,-4.120793 0.10179,-7.52074 0.1404,-7.555439 0.0386,-0.03467 1.01792,-0.74177 2.17625,-1.571278 1.15833,-0.829508 2.16616,-1.564589 2.23964,-1.633509 0.16064,-0.1507 -0.86438,-1.248121 -1.16579,-1.248121 -0.11165,0 -1.26672,0.796081 -2.56682,1.769061 l -2.36383,1.769061 -0.0372,8.480585 c -0.0205,4.664334 -0.0164,8.543171 0.009,8.619645 0.0665,0.199246 0.42812,-0.02603 1.00659,-0.62707 z M 86.495745,73.688038 c 0.02324,-0.09709 -0.306141,-0.587257 -0.731941,-1.089165 -2.129307,-2.509906 -4.840619,-4.323486 -8.22457,-5.501366 -1.875744,-0.652893 -3.445762,-0.919829 -5.4102,-0.919829 -2.363763,0 -4.056564,0.423584 -6.314758,1.580124 -0.803992,0.41177 -0.927302,0.349113 1.404027,0.713415 3.907816,0.61064 7.834046,2.391128 10.867545,4.92825 0.985016,0.823836 2.375071,2.211362 3.489896,3.483547 l 0.457549,0.52214 2.210106,-1.770261 c 1.215559,-0.973631 2.229119,-1.849723 2.252346,-1.946855 z M 35.019389,66.57795 c 1.183975,-0.706512 2.269018,-1.39324 2.411208,-1.526057 0.248685,-0.232288 0.21456,-0.287595 -0.896426,-1.452675 -2.503153,-2.625033 -5.71083,-4.573352 -8.365809,-5.081329 -2.250836,-0.43066 -3.578142,-0.234637 -6.153618,0.908767 -1.216943,0.540277 -1.244907,0.56302 -0.868379,0.706177 0.213981,0.08133 0.482476,0.147925 0.596652,0.147925 0.398244,0 2.941814,1.014979 4.070488,1.624267 2.102885,1.13521 4.318941,2.959232 5.903796,4.859371 0.503747,0.603961 0.968441,1.098112 1.032654,1.098112 0.06421,0 1.085457,-0.578046 2.269434,-1.284558 z m 30.242744,-1.927702 c 1.439391,-0.64236 2.365355,-0.952718 2.633523,-0.88269 0.06365,0.01657 0.08162,-0.02501 0.0399,-0.09252 -0.04171,-0.06751 -0.599234,-0.160145 -1.238962,-0.205925 -3.502584,-0.25067 -25.61925,-4.010191 -33.175009,-5.639287 -0.540552,-0.116551 -1.045995,-0.213002 -1.123206,-0.214344 -0.07722,-10e-4 0.478195,0.339333 1.234238,0.757061 0.756043,0.417728 1.830118,1.100694 2.386832,1.51769 0.556714,0.417006 1.082874,0.800401 1.169243,0.852007 0.148408,0.08865 4.138647,0.871355 10.092382,1.979643 4.933207,0.918314 15.083301,2.572248 15.945205,2.598224 0.32151,0.01017 1.050568,-0.230214 2.035844,-0.669912 z m 58.170407,-6.369436 c 2.80934,-2.360405 5.6433,-5.593771 7.03087,-8.021784 1.56034,-2.730329 1.97999,-4.523332 1.46856,-6.274632 -0.24708,-0.84609 -1.04742,-2.372117 -1.39565,-2.661125 -0.20023,-0.166174 -0.21218,-0.141896 -0.11042,0.224267 0.0627,0.225852 0.11015,1.295172 0.10526,2.376275 -0.008,1.83798 -0.0384,2.052121 -0.46468,3.297354 -1.21454,3.548431 -4.13977,7.144106 -8.58683,10.55485 l -0.48702,0.373533 0.55501,0.574193 c 0.30525,0.315807 0.58185,0.574193 0.61467,0.574193 0.0328,0 0.60441,-0.457703 1.27023,-1.017124 z m -20.30388,-0.634369 c 1.09914,-0.831095 2.5865,-1.941071 3.30524,-2.466596 0.71874,-0.525535 1.34339,-1.050857 1.3881,-1.167388 0.18747,-0.488548 -2.09704,-2.368528 -3.83677,-3.157359 -1.24032,-0.56239 -2.15901,-0.746772 -5.808073,-1.165659 -5.086818,-0.583943 -6.378161,-0.737023 -12.036092,-1.42678 l -5.366946,-0.654296 -1.021387,0.600677 c -4.00508,2.355352 -5.839009,3.454145 -6.119754,3.666618 l -0.32466,0.245708 0.465067,0.07645 c 0.255787,0.04209 0.844154,0.138013 1.307486,0.213256 0.463328,0.07523 4.841267,0.710671 9.728749,1.412038 5.66595,0.81309 9.329424,1.403214 10.109013,1.628395 2.191903,0.633109 4.038149,1.698809 5.428167,3.133275 0.30525,0.315014 0.60639,0.572749 0.66921,0.572749 0.0628,0 1.0135,-0.679987 2.11265,-1.511081 z M 15.620218,56.956604 c 0.640637,-0.329797 2.276837,-0.317841 3.484517,0.02552 l 0.887061,0.252164 1.008379,-0.434422 c 0.554608,-0.238937 1.255009,-0.533607 1.556446,-0.654835 0.301438,-0.121227 0.518227,-0.250252 0.481754,-0.28673 -0.148529,-0.148525 -5.021751,-0.912306 -5.803523,-0.909581 -1.03067,0.0041 -1.778182,0.321958 -2.496775,1.063382 -0.529874,0.546713 -0.944711,1.557178 -0.941548,2.293437 0.0014,0.335978 0.04702,0.310846 0.666914,-0.367647 0.36595,-0.400546 0.8865,-0.842105 1.156775,-0.981246 z m 47.704631,-5.13011 c 0.03768,-3.035705 0.03646,-3.049603 -0.280809,-3.250486 -0.177615,-0.112464 -1.90315,-0.431097 -3.898906,-0.719963 -3.884896,-0.562298 -4.54538,-0.663141 -8.803195,-1.344043 -3.858165,-0.616985 -3.692668,-0.753889 -3.692668,3.054707 0,1.259619 0.0624,2.284521 0.148939,2.446221 0.156228,0.291916 0.460892,0.44403 1.21999,0.609126 l 0.456309,0.09923 7.96e-4,-1.099281 c 0.001,-1.430623 0.179609,-2.061475 0.643418,-2.272799 0.368311,-0.167811 1.610423,-0.0246 8.885753,1.024159 3.036752,0.437777 3.017176,0.420768 3.083303,2.679801 0.04451,1.520527 0.06446,1.6159 0.351007,1.677805 0.639578,0.138175 1.020367,0.18176 1.427041,0.163338 l 0.421209,-0.01911 z m 59.576911,0.907599 c 1.58234,-1.513247 3.02508,-3.190717 3.44858,-4.009672 l 0.2264,-0.437817 -0.73681,-0.677497 c -2.93973,-2.703093 -9.02696,-5.216669 -17.2342,-7.116452 -4.81424,-1.114379 -7.44501,-1.51055 -17.79973,-2.680482 -1.312766,-0.148324 -2.65537,-0.306721 -2.98356,-0.351994 l -0.596713,-0.08232 v 1.683336 1.683338 l 0.737114,0.08408 c 1.446963,0.164975 7.434428,0.791638 13.506269,1.413594 3.39362,0.347618 6.58427,0.696792 7.09035,0.77595 5.00758,0.783199 9.05181,3.397761 11.06533,7.153612 0.50433,0.940762 1.12261,2.618526 1.35816,3.685579 0.0469,0.212361 0.14269,0.386109 0.2129,0.386109 0.0703,0 0.83788,-0.679194 1.70591,-1.509333 z M 66.730206,52.52349 c 1.128478,-4.357382 0.788439,-3.894575 4.68935,-6.382368 1.306812,-0.833413 2.401944,-1.594245 2.433629,-1.690727 0.15197,-0.462766 -0.502717,-0.224063 -2.429097,0.885669 -3.402099,1.959839 -4.544391,2.719594 -4.78316,3.181323 -0.160953,0.311252 -0.229291,0.966901 -0.261816,2.512 -0.04442,2.110813 0.06774,2.588199 0.351094,1.494103 z m 48.699744,-0.860638 c 1.15188,-1.159621 1.17184,-1.265659 0.40297,-2.141354 -1.52553,-1.737484 -4.71017,-3.250385 -7.89929,-3.752669 -0.77138,-0.121492 -2.7609,-0.348778 -4.42116,-0.50509 -1.66027,-0.156303 -4.187518,-0.408477 -5.616121,-0.560367 -4.797796,-0.510132 -6.654133,-0.706715 -9.505358,-1.006601 -1.559919,-0.16406 -2.981501,-0.260511 -3.159064,-0.214324 -0.405878,0.105571 -1.375871,0.992135 -1.375871,1.257536 0,0.233874 -0.08328,0.22086 5.545916,0.866667 12.529928,1.437495 15.790888,1.859809 17.402108,2.253665 2.65689,0.649467 5.29851,2.253116 6.7393,4.091219 0.31323,0.399611 0.63427,0.731268 0.71343,0.737012 0.0792,0.0061 0.60707,-0.455812 1.17314,-1.025694 z M 43.854745,46.490825 c 0.09978,-1.45848 0.672481,-2.793332 1.486199,-3.464068 l 0.504238,-0.415634 -0.545676,-0.139527 c -0.462776,-0.11834 -2.77017,-0.443043 -7.107155,-1.000146 -1.313429,-0.168705 -2.528251,0.1049 -4.179346,0.941301 -1.482486,0.750992 -5.335312,3.134272 -5.335312,3.300324 0,0.05836 0.22152,0.10617 0.492267,0.10617 0.646462,0 4.897662,0.564799 9.967753,1.32428 2.239426,0.335449 4.198048,0.601195 4.352491,0.590541 0.250861,-0.01728 0.289735,-0.149888 0.364541,-1.243241 z m 22.38074,-1.321301 c 2.439195,-1.406406 6.054131,-3.387492 6.35323,-3.481737 0.327007,-0.103049 0.4227,-0.419263 0.173482,-0.573288 -0.07833,-0.04839 -1.357754,-0.244061 -2.843157,-0.434768 -1.485405,-0.190706 -4.627769,-0.604062 -6.983026,-0.918568 -6.07748,-0.811552 -5.834696,-0.802206 -6.979174,-0.268687 -1.321866,0.616214 -6.633277,3.472397 -7.059025,3.795951 -0.191899,0.145841 -0.300793,0.313285 -0.241982,0.3721 0.112647,0.112646 1.570853,0.331504 6.979227,1.047492 1.814709,0.240248 4.373553,0.581289 5.68632,0.757884 3.530284,0.474885 3.581865,0.471774 4.914105,-0.296379 z m 12.530797,-1.250856 c 0.437639,-0.306535 0.592606,-0.944483 1.232785,-5.075014 0.560332,-3.615322 1.02568,-4.691268 2.403791,-5.557869 0.533539,-0.335507 0.597992,-0.425961 0.471685,-0.661965 -0.203518,-0.380282 -1.029278,-0.591303 -2.107355,-0.538532 l -0.912619,0.04467 -0.772216,1.574886 c -0.884149,1.803167 -1.3252,2.325502 -2.221484,2.630896 -0.93619,0.318992 -1.580026,0.280011 -6.904986,-0.41806 -2.663993,-0.349235 -6.13884,-0.79229 -7.721885,-0.984567 -4.551174,-0.552788 -5.000117,-0.686859 -5.489076,-1.639238 -0.428642,-0.834894 -0.350086,-1.460806 0.529345,-4.217681 0.113263,-0.35506 -0.278763,-0.314281 -0.990925,0.103073 -0.766007,0.448911 -1.140028,0.853744 -1.430049,1.547865 -0.298414,0.714204 -2.01938,6.53147 -2.024547,6.84344 -0.0035,0.209751 0.328726,0.09148 1.93939,-0.690495 1.481758,-0.719387 1.726766,-0.795612 2.551759,-0.793889 0.501941,10e-4 3.408283,0.326702 6.458537,0.723674 3.050253,0.396974 7.009966,0.908013 8.799362,1.135644 3.195144,0.406458 3.819891,0.564948 4.276611,1.084922 0.639819,0.728425 0.752233,1.18195 0.753109,3.038231 5.31e-4,1.441979 0.04229,1.82152 0.211329,1.928392 0.30361,0.191927 0.596055,0.16773 0.947439,-0.07839 z M 49.738135,39.741552 c 0.733369,-0.369052 0.438405,-1.627509 -0.422338,-1.801904 -1.146141,-0.232217 -7.353636,-0.965785 -8.172544,-0.965785 -1.16495,0 -2.256827,0.293402 -3.514793,0.944473 -1.011578,0.523551 -1.0149,0.527142 -0.526591,0.569186 0.51407,0.04427 5.780802,0.725315 8.915589,1.152892 2.23407,0.304725 3.260657,0.332633 3.720677,0.101158 z M 76.671324,31.14599 c 0.158374,-0.201341 0.383309,-0.630947 0.499857,-0.954679 0.116549,-0.323732 0.600322,-1.694278 1.075047,-3.045655 1.188332,-3.382759 2.961442,-7.974339 3.957156,-10.247316 0.457187,-1.043647 0.864875,-1.976517 0.905974,-2.073044 0.05385,-0.126497 -0.115699,-0.175797 -0.607209,-0.176555 -0.722898,-0.0011 -6.939856,-0.568262 -15.845455,-1.445518 -0.347267,-0.03421 -0.543006,0.36029 -2.131081,4.295036 -1.920431,4.758209 -4.116853,11.060271 -4.116853,11.812244 0,0.406179 0.02681,0.4155 1.825238,0.634588 0.656385,0.07996 3.025683,0.367502 5.265114,0.638982 2.239425,0.271477 4.735088,0.576131 5.545915,0.677005 0.810828,0.100874 1.893654,0.198614 2.406285,0.217198 0.856841,0.03107 0.955293,0.0043 1.220012,-0.332286 z m 5.219089,-2.078389 c 0,-0.10125 0.828796,-2.549531 1.841761,-5.440614 2.551616,-7.282487 2.79367,-8.073282 2.316535,-7.56815 -0.377774,0.399938 -2.78235,6.2554 -4.091608,9.963595 -0.177219,0.501941 -0.513935,1.433865 -0.748264,2.070943 L 80.782795,29.2517 h 0.553809 c 0.363234,0 0.553809,-0.06335 0.553809,-0.184099 z m 4.49236,-17.927596 c 0.413483,-0.221289 0.825107,-0.892269 0.923025,-1.5045922 L 87.395678,9.0732876 86.57358,8.9821946 C 86.121431,8.932093 84.266727,8.7638052 82.452019,8.6082227 80.637311,8.4526422 78.457558,8.264871 77.60812,8.1909543 76.758682,8.1170426 74.80006,7.9603336 73.255624,7.8427236 71.711196,7.7251136 69.784164,7.568004 68.973335,7.4935922 68.162508,7.4191823 67.127478,7.3561683 66.673268,7.3535687 c -0.763897,-0.00437 -0.860434,0.031954 -1.287051,0.4842942 -0.472076,0.5005477 -0.748173,1.269174 -0.533139,1.4842092 0.06613,0.066134 0.972858,0.1863743 2.014946,0.2672064 1.042093,0.080835 3.916512,0.3389119 6.3876,0.5735095 4.724816,0.448557 11.798571,1.073075 12.469995,1.100933 0.217438,0.009 0.513157,-0.04665 0.65715,-0.123714 z"
     id="path247" /><path
     style="fill:#ffffff;stroke:none;stroke-width:0.944134;stroke-linecap:round;stroke-dasharray:none"
     d="m 74.322399,31.372448 c -0.84683,-0.08452 -12.413715,-1.491498 -13.038529,-1.585992 -0.701453,-0.106084 -0.837591,-0.177268 -0.837591,-0.437964 0,-0.758188 1.964092,-6.439776 3.949213,-11.424007 1.323731,-3.323621 1.874258,-4.537715 2.105361,-4.643011 0.08384,-0.0382 1.236498,0.05379 3.886605,0.310172 6.563717,0.635 10.561659,0.995445 11.836231,1.067129 0.695738,0.03913 0.837594,0.06306 0.837594,0.141306 0,0.02801 -0.228338,0.572844 -0.507418,1.210747 -1.448676,3.311296 -2.893637,7.048705 -4.720619,12.209938 -0.787234,2.223942 -1.030132,2.775858 -1.342247,3.0499 l -0.190183,0.166984 -0.737931,-0.0075 c -0.405863,-0.0041 -0.964081,-0.03009 -1.240486,-0.05768 z"
     id="path248" /><path
     style="fill:#ffffff;stroke:none;stroke-width:0.944134;stroke-linecap:round;stroke-dasharray:none"
     d="M 84.038474,11.108443 C 80.70719,10.815713 77.91727,10.56409 73.847763,10.189342 71.375468,9.9616763 68.598848,9.7105253 67.677495,9.6312286 65.748071,9.4651719 64.911681,9.3541593 64.844903,9.2552636 c -0.07678,-0.1137047 0.0036,-0.4736772 0.186891,-0.8367176 0.230722,-0.4570584 0.685612,-0.907389 1.004466,-0.9944007 0.302771,-0.082622 1.180796,-0.046471 3.45602,0.1422942 0.905997,0.075167 2.941346,0.2387812 4.523002,0.3635883 5.703311,0.4500441 13.259107,1.1225036 13.322276,1.1856715 0.01363,0.013629 -0.01154,0.2146123 -0.05594,0.4466294 -0.137099,0.7165613 -0.517248,1.3384383 -0.94465,1.5453403 -0.297614,0.144073 -0.666329,0.144197 -2.298499,7.68e-4 z"
     id="path249" /><path
     style="fill:#ffffff;stroke:none;stroke-width:0.333801;stroke-linecap:round;stroke-dasharray:none"
     d="m 80.878134,29.026044 c 0.247044,-0.66869 0.782286,-2.141395 1.042194,-2.867562 1.271469,-3.552407 3.039369,-7.946293 3.869865,-9.61804 0.167193,-0.336551 0.263112,-0.484538 0.361005,-0.556962 0.04743,-0.03509 0.05781,-0.03674 0.07341,-0.01163 0.02323,0.03739 0.0094,0.130476 -0.06276,0.422184 -0.165277,0.668181 -0.622448,2.022039 -2.503942,7.415118 -0.948381,2.718419 -1.702626,4.944792 -1.777349,5.246372 -0.03649,0.147275 -0.174112,0.182748 -0.708975,0.182748 h -0.371848 z"
     id="path250" /><path
     style="fill:#ffffff;stroke:none;stroke-width:0.472067;stroke-linecap:round;stroke-dasharray:none"
     d="m 78.049506,44.088758 c -0.03849,-0.01259 -0.111834,-0.04456 -0.162986,-0.07101 -0.200647,-0.103759 -0.253831,-0.414417 -0.256096,-1.495959 -0.0019,-0.906479 -0.04347,-1.822545 -0.0975,-2.148663 -0.05273,-0.318236 -0.1402,-0.578993 -0.273719,-0.815943 -0.12469,-0.221287 -0.431948,-0.605454 -0.574617,-0.718447 -0.270947,-0.214596 -0.679924,-0.363064 -1.384999,-0.502788 -0.773819,-0.153347 -0.747958,-0.14981 -6.854301,-0.937609 -1.497198,-0.193157 -3.400626,-0.438997 -4.229843,-0.546309 -2.657018,-0.343858 -4.781879,-0.594392 -6.156307,-0.725869 -0.460857,-0.04409 -0.728599,-0.05589 -1.005113,-0.0443 -0.649284,0.02721 -0.866433,0.102074 -2.350285,0.810327 -1.068055,0.509791 -1.166493,0.55458 -1.455685,0.662323 -0.223708,0.08334 -0.365551,0.102592 -0.395764,0.05371 -0.0094,-0.01519 0.01479,-0.1598 0.05372,-0.321363 0.226256,-0.938871 1.305902,-4.595987 1.787308,-6.054201 0.32053,-0.970913 0.642716,-1.419302 1.354611,-1.885241 0.489522,-0.320395 1.015702,-0.543719 1.155065,-0.490241 0.09445,0.03624 0.07951,0.141753 -0.102944,0.727276 -0.470506,1.509929 -0.606946,2.111631 -0.610161,2.690791 -0.0021,0.391734 0.03615,0.576226 0.190252,0.915988 0.34159,0.753102 0.730065,0.998447 1.975429,1.247595 0.683572,0.136758 1.297551,0.222345 4.205764,0.586285 1.420418,0.177755 3.989734,0.505436 5.709592,0.728183 1.719855,0.222748 3.535339,0.454771 4.034404,0.51561 2.769023,0.337552 3.446365,0.350774 4.248095,0.08292 0.49444,-0.16519 0.829923,-0.394412 1.151469,-0.786755 0.368019,-0.449048 0.670134,-0.984469 1.399439,-2.480156 0.243348,-0.499065 0.449572,-0.915385 0.458272,-0.925156 0.03492,-0.03921 1.273985,-0.07822 1.624891,-0.05117 0.650452,0.05015 1.139944,0.223662 1.329486,0.471257 0.109038,0.142436 0.11579,0.247655 0.02297,0.357973 -0.03727,0.0443 -0.254003,0.205118 -0.481616,0.35737 -0.685911,0.458812 -1.074097,0.892953 -1.390904,1.555552 -0.415015,0.868005 -0.643083,1.832644 -1.061132,4.488199 -0.619001,3.93202 -0.750208,4.389178 -1.342962,4.679185 -0.153157,0.07493 -0.397928,0.10858 -0.513826,0.07063 z"
     id="path251" /><path
     style="fill:#ffffff;stroke:none;stroke-width:0.944134;stroke-linecap:round;stroke-dasharray:none"
     d="m 63.712891,45.725944 c -0.594979,-0.04866 -9.466432,-1.220536 -12.448948,-1.644449 -1.691196,-0.240374 -2.532335,-0.384752 -2.592586,-0.445 -0.06992,-0.06992 0.362225,-0.403807 0.969976,-0.749414 1.608076,-0.914461 5.235432,-2.845795 6.226103,-3.315002 0.978564,-0.463468 1.217084,-0.494652 2.640008,-0.34513 1.018762,0.10705 12.447273,1.611876 13.436489,1.769221 0.811083,0.129011 1.011814,0.225428 0.900874,0.432723 -0.03093,0.0578 -0.439835,0.305089 -0.908671,0.549529 -1.035818,0.540057 -2.260145,1.209739 -3.784005,2.069775 -2.372593,1.33904 -2.715435,1.522375 -2.987413,1.597507 -0.397569,0.109823 -0.810811,0.132664 -1.451827,0.08024 z"
     id="path252" /><path
     style="fill:#ffffff;stroke:none;stroke-width:0.944134;stroke-linecap:round;stroke-dasharray:none"
     d="m 62.177302,54.832572 c -0.66112,-0.09096 -0.873509,-0.161304 -0.942203,-0.312071 -0.03507,-0.07698 -0.08775,-0.716095 -0.118366,-1.436077 -0.06215,-1.461743 -0.121457,-1.759894 -0.403688,-2.029597 -0.378267,-0.361474 -0.595487,-0.40803 -4.489495,-0.962221 -5.568194,-0.792456 -6.834188,-0.921721 -7.188436,-0.733975 -0.396139,0.209946 -0.533429,0.732702 -0.577451,2.198732 l -0.03322,1.106358 -0.22915,-0.03778 c -0.485656,-0.08006 -1.070557,-0.300966 -1.225746,-0.462949 -0.20537,-0.21436 -0.243078,-0.515289 -0.287991,-2.298308 -0.04483,-1.779681 0.02143,-2.801594 0.205721,-3.172974 0.290944,-0.586298 0.653857,-0.595069 3.815004,-0.0922 3.028124,0.481706 4.767704,0.748991 6.896179,1.059588 3.387905,0.494379 5.127654,0.800637 5.42825,0.955569 0.26751,0.137877 0.277654,0.268719 0.257818,3.325434 -0.01011,1.556089 -0.03296,2.843829 -0.0508,2.861646 -0.06205,0.06196 -0.695732,0.08044 -1.056428,0.03082 z"
     id="path253" /><path
     style="fill:#ffffff;stroke:none;stroke-width:0.944134;stroke-linecap:round;stroke-dasharray:none"
     d="m 47.639654,39.806775 c -0.271706,-0.02614 -1.905013,-0.234833 -3.62957,-0.463735 -1.724557,-0.228902 -4.002466,-0.521197 -5.062019,-0.649547 -1.059556,-0.128349 -1.975599,-0.251259 -2.035649,-0.273129 -0.08447,-0.03077 0.08423,-0.136499 0.745284,-0.467098 1.762625,-0.881515 2.735963,-1.052632 4.81439,-0.846389 1.356204,0.134575 4.491874,0.513792 5.736026,0.693698 1.269191,0.183523 1.456516,0.250563 1.712413,0.612836 0.144568,0.204663 0.167518,0.286813 0.167518,0.599593 0,0.345027 -0.0097,0.371319 -0.201737,0.547314 -0.328943,0.301453 -0.958133,0.370475 -2.246656,0.246457 z"
     id="path254" /><path
     style="fill:#ffffff;stroke:none;stroke-width:0.944134;stroke-linecap:round;stroke-dasharray:none"
     d="m 42.661391,47.62039 c -0.214982,-0.02876 -1.934392,-0.277085 -3.820911,-0.551839 -5.828165,-0.848823 -9.090428,-1.278737 -9.72017,-1.280967 -0.446892,-0.0016 -0.445672,-0.06937 0.007,-0.388332 0.573111,-0.403841 2.524754,-1.616038 3.594666,-2.232705 2.198293,-1.267039 3.381142,-1.691508 4.718439,-1.69323 1.00312,-0.0013 7.620585,0.903856 8.214641,1.123611 0.09911,0.03666 0.0726,0.07336 -0.226015,0.312873 -0.950974,0.762748 -1.45963,1.951553 -1.621491,3.789677 -0.08286,0.940975 -0.106178,0.989497 -0.47107,0.980334 -0.156308,-0.0039 -0.460089,-0.03066 -0.675071,-0.05942 z"
     id="path255" /><path
     style="fill:#ffffff;stroke:none;stroke-width:0.944134;stroke-linecap:round;stroke-dasharray:none"
     d="m 100.41291,58.588438 c -0.802254,-0.761982 -1.204651,-1.089324 -1.88408,-1.53266 -1.035989,-0.676 -2.254022,-1.235594 -3.43413,-1.577729 -1.127914,-0.326999 -3.893479,-0.764148 -14.518275,-2.294877 -4.921994,-0.709118 -7.02591,-1.031449 -7.083312,-1.085199 -0.08621,-0.08073 1.38634,-0.98897 5.771081,-3.559487 l 1.535589,-0.900227 1.786864,0.219538 c 3.86257,0.47456 10.721644,1.296316 13.95988,1.672471 5.613143,0.652032 6.163403,0.757124 7.594173,1.450396 1.5336,0.743098 3.48915,2.297181 3.63828,2.891359 0.0302,0.120483 -0.003,0.17803 -0.20972,0.360291 -0.40533,0.35782 -6.20338,4.691706 -6.51111,4.86687 -0.0406,0.02313 -0.29601,-0.179054 -0.64524,-0.510746 z"
     id="path256" /><path
     style="fill:#ffffff;stroke:none;stroke-width:0.944134;stroke-linecap:round;stroke-dasharray:none"
     d="m 113.8186,52.198885 c -0.77699,-0.870638 -1.35972,-1.452668 -1.83245,-1.830218 -1.19443,-0.953963 -2.75165,-1.781254 -4.29964,-2.284227 -1.64804,-0.535483 -3.28602,-0.763892 -16.448946,-2.293742 -5.751205,-0.668428 -7.160294,-0.847902 -7.290922,-0.928635 -0.02627,-0.01624 -0.04777,-0.08182 -0.04777,-0.14574 0,-0.147164 0.724205,-0.866982 1.084977,-1.07841 0.262234,-0.153678 0.271156,-0.154789 0.943989,-0.117689 0.969126,0.05344 1.853041,0.140488 7.463753,0.735073 2.748701,0.291288 6.517868,0.680469 8.375929,0.864846 5.44869,0.540679 6.40485,0.667049 7.78961,1.029528 2.64001,0.691052 5.09625,2.040491 6.30281,3.462722 0.69433,0.818438 0.68556,0.850389 -0.57883,2.108962 -0.51679,0.514421 -0.96536,0.93531 -0.9968,0.93531 -0.0315,0 -0.24102,-0.206 -0.46571,-0.45778 z"
     id="path257" /><path
     style="fill:#ffffff;stroke:none;stroke-width:0.944134;stroke-linecap:round;stroke-dasharray:none"
     d="m 121.0971,54.078255 c -0.0344,-0.07555 -0.11263,-0.332086 -0.1738,-0.570079 -0.1312,-0.510466 -0.47683,-1.54051 -0.72113,-2.149126 -0.72793,-1.813417 -1.85497,-3.387246 -3.35798,-4.689168 -1.689,-1.463035 -3.9352,-2.628583 -6.25402,-3.245202 -1.65419,-0.439878 -1.58714,-0.431655 -13.959884,-1.712593 -5.694553,-0.589549 -8.943928,-0.935378 -9.19956,-0.979101 l -0.18148,-0.03104 v -1.65095 -1.65095 l 0.18148,0.03238 c 0.249285,0.04447 1.066453,0.141716 4.760317,0.566499 8.703257,1.00085 11.520487,1.422644 15.523387,2.324145 7.29184,1.642213 12.87905,3.678563 16.31719,5.947072 0.68163,0.449741 1.4955,1.090395 2.10985,1.660797 l 0.39088,0.362913 -0.18586,0.354113 c -0.5329,1.015355 -2.42188,3.138107 -4.30794,4.84109 -0.8409,0.759275 -0.85885,0.770503 -0.94145,0.589203 z"
     id="path258" /><path
     style="fill:#ffffff;stroke:none;stroke-width:0.944134;stroke-linecap:round;stroke-dasharray:none"
     d="m 101.76752,95.249185 c 0,-0.02233 0.13661,-0.575059 0.30357,-1.228291 0.35142,-1.374923 0.45535,-2.063623 0.53313,-3.532955 0.0715,-1.350508 0.0716,-10.185914 2.1e-4,-14.602035 -0.0759,-4.696798 -0.14241,-5.535398 -0.5593,-7.055829 -0.30656,-1.11806 -0.52805,-1.67685 -0.73302,-1.849321 -0.0921,-0.07747 -0.20735,-0.140851 -0.25619,-0.140851 -0.21949,0 -1.907084,1.076177 -3.588042,2.288088 -0.476031,0.343202 -1.075407,0.765802 -1.331939,0.939112 l -0.466429,0.315108 -0.119885,-0.160385 c -0.06594,-0.08821 -0.308349,-0.456819 -0.538684,-0.819129 -0.569442,-0.895696 -1.026806,-1.4659 -1.786866,-2.22771 -1.705618,-1.709544 -3.750332,-2.983214 -5.680726,-3.538572 -1.120712,-0.322421 -2.91383,-0.615571 -7.38572,-1.207471 C 72.50223,61.415675 60.570601,59.741212 56.453753,59.102386 46.558564,57.566913 26.921302,53.876431 21.328302,52.501172 l -0.616628,-0.151625 1.677579,-0.823333 c 3.163572,-1.552639 4.72987,-2.255658 5.978015,-2.683182 l 0.7262,-0.248743 6.588524,0.963009 c 8.206762,1.199539 7.825989,1.13968 7.964824,1.252101 0.09758,0.07901 0.126257,0.207296 0.19027,0.851096 0.09474,0.952863 0.15209,1.191575 0.423889,1.764377 0.407239,0.858226 1.063305,1.363265 2.049783,1.577922 1.059084,0.230455 16.043272,2.646294 16.941379,2.731392 0.667078,0.0632 1.386023,0.0057 1.940499,-0.155332 0.833689,-0.242054 1.405827,-0.509265 4.41179,-2.060493 0.599136,-0.309184 1.188887,-0.580827 1.310558,-0.603655 0.266068,-0.04991 -0.142071,-0.105375 6.569276,0.892718 2.998203,0.445883 7.11916,1.051099 9.157682,1.344922 6.632618,0.955992 7.33596,1.094631 8.595053,1.694209 1.115267,0.53109 2.141239,1.267235 3.201419,2.297051 2.187436,2.12479 3.526476,4.481664 4.362536,7.678601 0.61697,2.359144 0.66453,3.427052 0.62676,14.071558 l -0.0287,8.096729 -0.28162,1.033031 c -0.34321,1.258977 -0.58624,1.994691 -0.79313,2.401099 -0.15705,0.308494 -0.55671,0.900441 -0.55671,0.824561 z"
     id="path259" /><path
     style="fill:#ffffff;stroke:none;stroke-width:0.944134;stroke-linecap:round;stroke-dasharray:none"
     d="M 61.563069,65.080485 C 54.493095,64.00579 46.281828,62.560464 39.342802,61.169324 L 37.252683,60.750298 36.56819,60.248129 c -1.157597,-0.849254 -1.775576,-1.244494 -3.527676,-2.256181 -0.254759,-0.1471 -0.451967,-0.278688 -0.43824,-0.292415 0.01373,-0.01373 0.749848,0.125735 1.635826,0.309915 6.113585,1.270904 20.011232,3.702306 28.106723,4.917289 1.671973,0.250931 2.944307,0.416764 4.738015,0.617535 0.317884,0.03558 0.631981,0.08524 0.697992,0.110355 0.103553,0.0394 0.08937,0.05099 -0.103335,0.08449 -0.406392,0.07063 -1.103143,0.318973 -2.20566,0.786143 -1.986859,0.841893 -2.005496,0.844542 -3.908766,0.555228 z"
     id="path260" /><path
     style="fill:#ffffff;stroke:none;stroke-width:0.944134;stroke-linecap:round;stroke-dasharray:none"
     d="m 13.841281,58.10847 c 0.119964,-1.170916 0.904372,-2.323732 1.903681,-2.797773 0.750918,-0.356211 1.375674,-0.390681 3.030027,-0.167187 1.651294,0.223081 4.11736,0.647621 4.191278,0.72154 0.07069,0.07069 -2.927601,1.332817 -3.08328,1.2979 -0.06369,-0.01429 -0.415989,-0.105151 -0.782889,-0.201925 -1.329455,-0.350655 -2.7949,-0.359629 -3.490964,-0.02138 -0.207601,0.10088 -0.53068,0.368189 -1.010794,0.836303 -0.388115,0.378418 -0.725423,0.688031 -0.749573,0.688031 -0.02415,0 -0.02752,-0.159978 -0.0075,-0.355505 z"
     id="path261" /><path
     style="fill:#ffffff;stroke:none;stroke-width:0.944134;stroke-linecap:round;stroke-dasharray:none"
     d="m 81.466676,76.710142 c -2.621698,-2.963455 -4.972473,-4.824984 -7.889039,-6.247159 -2.06421,-1.006549 -4.096718,-1.643753 -6.486456,-2.033542 -1.40884,-0.229796 -1.731026,-0.298165 -1.731026,-0.367324 0,-0.06315 1.411483,-0.746398 2.101104,-1.017061 0.747506,-0.293383 1.531286,-0.514498 2.344769,-0.661493 0.647856,-0.117067 0.882862,-0.129886 2.36655,-0.129087 1.76113,0.0011 2.164112,0.03994 3.517889,0.34041 1.377731,0.305787 3.513617,1.122209 4.893623,1.870543 0.859782,0.466236 1.96846,1.197639 2.700552,1.781583 1.059307,0.844941 2.434219,2.257171 2.947492,3.027489 0.296138,0.444447 0.337828,0.353986 -0.495252,1.074611 -0.569069,0.492249 -3.656002,2.988619 -3.695634,2.988619 -0.01064,0 -0.269206,-0.282413 -0.574572,-0.627589 z"
     id="path262" /><path
     style="fill:#ffffff;stroke:none;stroke-width:0.944134;stroke-linecap:round;stroke-dasharray:none"
     d="M 83.123783,92.171464 C 82.503875,89.095437 81.12698,85.512502 79.590344,82.976788 76.72125,78.242297 72.291923,74.353528 67.677495,72.517785 65.953507,71.831937 63.837748,71.320567 61.870187,71.114181 61.40951,71.065857 60.95721,71.005784 60.865074,70.980683 c -0.164541,-0.04483 -0.162554,-0.04678 0.111678,-0.109667 0.827469,-0.18976 2.758118,-0.301684 3.908767,-0.226603 4.39883,0.287028 8.322252,1.908543 11.586348,4.78853 3.392667,2.99343 5.703001,6.411728 7.014765,10.378837 0.541161,1.636602 1.142125,4.166817 1.15791,4.875096 0.01053,0.472152 -0.08043,0.609804 -0.861293,1.303552 l -0.590264,0.524412 z"
     id="path263" /><path
     style="fill:#ffffff;stroke:none;stroke-width:0.944134;stroke-linecap:round;stroke-dasharray:none"
     d="m 65.248477,111.92545 c -2.184297,-0.25469 -3.845169,-0.71983 -5.863151,-1.64205 -3.451905,-1.57751 -6.583262,-4.30624 -8.786479,-7.65673 -2.272832,-3.456349 -3.659246,-7.520352 -4.06172,-11.906136 -0.08291,-0.903494 -0.03367,-3.293176 0.08534,-4.141362 0.463359,-3.302486 1.378667,-5.725432 2.946048,-7.798607 1.116118,-1.476287 2.389341,-2.678086 3.702386,-3.494691 3.411495,-2.121664 7.425196,-2.516375 11.806534,-1.161063 4.828064,1.493499 9.103268,4.979805 11.985787,9.774063 1.825427,3.036084 2.965095,6.364976 3.383714,9.883596 0.09826,0.825915 0.098,3.715914 -5.29e-4,4.49508 -0.377627,2.99009 -1.189763,5.30776 -2.600233,7.42055 -0.669819,1.00334 -1.081402,1.50496 -1.93026,2.35251 -2.052433,2.04928 -4.551987,3.31505 -7.400956,3.74783 -0.692092,0.10513 -2.763494,0.18567 -3.266613,0.12701 z m 2.512777,-1.77896 c 2.536857,-0.43242 4.734748,-1.54632 6.553367,-3.32126 1.821722,-1.77797 2.929916,-3.75101 3.578341,-6.37092 1.087731,-4.394907 0.501714,-9.460498 -1.572442,-13.592356 -1.574904,-3.137308 -3.902687,-5.943489 -6.632803,-7.995947 -2.158066,-1.622398 -4.622321,-2.76099 -6.81242,-3.147626 -1.656147,-0.292375 -3.718714,-0.291513 -5.171435,0.0021 -1.012831,0.204747 -2.307183,0.711252 -3.204494,1.253976 -1.092303,0.660665 -2.30216,1.719551 -3.22223,2.820152 -2.261495,2.705224 -3.328554,6.38977 -3.210015,11.084145 0.0341,1.350256 0.128635,2.156798 0.399261,3.406209 0.773126,3.569316 2.458249,7.082087 4.610061,9.610047 1.505119,1.76822 3.873989,3.60354 6.077222,4.70844 1.550816,0.77772 3.650449,1.42052 5.285137,1.61805 0.655865,0.0793 2.686217,0.0334 3.32245,-0.0751 z"
     id="path264" /><path
     style="fill:#ffffff;stroke:none;stroke-width:0.944134;stroke-linecap:round;stroke-dasharray:none"
     d="m 33.262235,80.648121 c -0.0286,-0.05479 -0.09461,-0.312261 -0.146683,-0.572158 -0.268758,-1.341284 -1.27727,-4.064207 -2.151679,-5.809404 -1.375944,-2.7462 -3.143064,-5.087776 -5.409981,-7.168666 -2.452441,-2.251191 -4.562447,-3.493458 -7.582847,-4.46441 -0.869888,-0.279638 -1.51388,-0.42826 -1.855694,-0.42826 -0.330717,0 -0.327558,-0.09409 0.0067,-0.198241 0.396459,-0.12355 2.061094,-0.174604 2.812379,-0.08626 4.732867,0.556564 9.555884,3.895754 12.670133,8.772104 0.589748,0.923436 1.479328,2.708646 1.892184,3.797237 0.423971,1.117896 0.845296,2.541953 1.03913,3.512209 0.231703,1.159819 0.253372,1.440736 0.129566,1.679763 -0.100166,0.193386 -0.728374,0.715671 -1.137147,0.945417 -0.202523,0.113824 -0.216811,0.114935 -0.266015,0.02066 z"
     id="path265" /><path
     style="fill:#ffffff;stroke:none;stroke-width:0.944134;stroke-linecap:round;stroke-dasharray:none"
     d="m 32.353222,67.412258 c -0.201158,-0.207304 -0.605915,-0.653323 -0.899457,-0.99115 -1.500034,-1.726341 -3.504234,-3.361791 -5.436792,-4.436492 -1.160668,-0.645448 -3.354766,-1.53824 -4.256567,-1.732018 -0.267052,-0.05738 -0.560933,-0.133919 -0.653068,-0.170077 l -0.167519,-0.06574 0.133822,-0.09237 c 0.356215,-0.245867 2.256852,-1.033865 3.043496,-1.261827 1.42036,-0.411604 2.869088,-0.412888 4.500615,-0.004 2.234264,0.559956 4.773142,2.037318 6.926556,4.030535 0.701871,0.649656 1.819754,1.827271 1.921661,2.024338 0.07615,0.147259 0.07212,0.164277 -0.07011,0.295921 -0.208376,0.19287 -0.641604,0.474879 -1.906202,1.240835 -1.375629,0.833207 -2.615136,1.538954 -2.702875,1.538954 -0.0373,0 -0.232407,-0.169614 -0.433564,-0.376917 z"
     id="path266" /><path
     style="fill:#ffffff;stroke:none;stroke-width:0.333801;stroke-linecap:round;stroke-dasharray:none"
     d="m 40.718392,87.260004 c 0,-0.03184 0.12024,-0.330626 0.2857,-0.709944 0.669189,-1.53412 1.099552,-3.237682 1.311693,-5.192244 0.187592,-1.728393 0.203353,-3.978667 0.04038,-5.763848 -0.119843,-1.312669 -0.349602,-2.524191 -0.739616,-3.899984 -0.161161,-0.568495 -0.344961,-1.304195 -0.35882,-1.436249 -0.01445,-0.137588 0.0043,-0.143684 0.09956,-0.03239 0.301266,0.351962 1.043546,2.377699 1.420702,3.877191 0.374335,1.488289 0.420682,2.039503 0.401714,4.777623 -0.01188,1.714535 -0.02733,2.155841 -0.09438,2.694819 -0.120203,0.966263 -0.501595,2.256837 -1.038281,3.513391 -0.369646,0.865463 -0.964067,1.904193 -1.206441,2.108214 -0.104418,0.0879 -0.122206,0.09713 -0.122206,0.06342 z"
     id="path267" /><path
     style="fill:#ffffff;stroke:none;stroke-width:0.944134;stroke-linecap:round;stroke-dasharray:none"
     d="m 18.008245,98.915302 c -0.07678,-0.01312 -0.328058,-0.05093 -0.558396,-0.084 C 16.004651,98.623781 14.068751,97.917656 12.54913,97.043748 7.9237784,94.383788 4.4897073,89.599407 3.0504038,83.810035 2.5576012,81.827811 2.3555951,80.17294 2.3523644,78.091566 c -0.00443,-2.852801 0.4170818,-5.120698 1.3602759,-7.318846 1.1901742,-2.773743 3.30896,-4.948904 5.7863657,-5.94033 1.369825,-0.548187 2.679574,-0.760116 4.405034,-0.712779 2.625864,0.07204 4.855411,0.769691 7.277892,2.27734 4.490584,2.794746 7.940971,7.884996 9.195088,13.565238 0.17318,0.784376 0.382188,2.015197 0.507299,2.987416 0.159869,1.242322 0.01831,3.523086 -0.343112,5.528112 -0.356053,1.975241 -1.617459,4.798308 -2.844335,6.365703 -1.54086,1.968529 -4.10489,3.559024 -6.394096,3.966329 -0.506073,0.09004 -2.930868,0.16773 -3.294531,0.105553 z m 2.149821,-1.649307 c 2.705327,-0.4049 5.001962,-1.896594 6.609878,-4.293198 2.479247,-3.695319 3.011456,-8.76468 1.479775,-14.095037 -0.51013,-1.775285 -1.54999,-3.904573 -2.729151,-5.588392 -1.867644,-2.66696 -4.32128,-4.84169 -6.86674,-6.086194 -1.615596,-0.789885 -2.75747,-1.083247 -4.580269,-1.17673 -3.618351,-0.185568 -6.8254865,1.601052 -8.6810216,4.835996 -1.2897404,2.248538 -1.9979498,5.347955 -1.8751228,8.206317 0.1843656,4.29046 1.2380476,7.706247 3.3759297,10.943961 2.4963943,3.780666 6.0621467,6.402435 9.7220527,7.148275 1.065139,0.217061 2.509984,0.259863 3.544669,0.105002 z"
     id="path268" /><path
     style="fill:#ffffff;stroke:none;stroke-width:0.333801;stroke-linecap:round;stroke-dasharray:none"
     d="m 20.413129,77.187266 c -0.269443,-0.274604 -0.542553,-0.650841 -0.542553,-0.747425 0,-0.03213 0.227348,-0.340053 0.523169,-0.70858 0.446901,-0.556736 1.158184,-1.411558 1.174537,-1.411558 0.0096,0 0.187838,0.186563 0.395984,0.414587 0.208145,0.228023 0.413411,0.450876 0.456146,0.495231 l 0.0777,0.08064 -0.521351,0.630079 c -0.828084,1.000778 -1.237607,1.449382 -1.32312,1.449382 -0.02714,0 -0.112086,-0.07147 -0.240512,-0.202358 z"
     id="path269" /><path
     style="fill:#ffffff;stroke:none;stroke-width:0.333801;stroke-linecap:round;stroke-dasharray:none"
     d="m 16.833067,75.375338 c -0.401018,-0.06124 -0.510344,-0.110731 -0.585136,-0.264898 -0.133306,-0.274778 -0.197965,-1.240491 -0.181825,-2.715615 0.01049,-0.958548 0.02374,-1.109403 0.113783,-1.29541 0.104466,-0.2158 0.245776,-0.216416 0.764297,-0.0033 l 0.350026,0.143835 0.0056,0.918017 c 0.0066,1.07193 -0.02506,2.748061 -0.05586,2.961336 -0.02571,0.177983 -0.07272,0.284901 -0.127433,0.289798 -0.02172,0.0019 -0.149276,-0.01323 -0.283464,-0.03372 z"
     id="path270" /><path
     style="fill:#ffffff;stroke:none;stroke-width:0.333801;stroke-linecap:round;stroke-dasharray:none"
     d="m 13.046566,76.463014 c -0.392738,-0.63618 -1.13367,-1.786737 -1.710362,-2.655941 l -0.235328,-0.35469 0.313011,-0.308133 c 0.279374,-0.275022 0.535669,-0.492766 0.580005,-0.492766 0.01551,0 0.273654,0.3931 0.661188,1.006854 0.229507,0.363482 1.279836,2.03413 1.297839,2.064337 0.0069,0.01156 -0.177144,0.210526 -0.408961,0.442156 l -0.421484,0.421142 z"
     id="path271" /><path
     style="fill:#ffffff;stroke:none;stroke-width:0.333801;stroke-linecap:round;stroke-dasharray:none"
     d="m 16.652589,85.090087 c -0.236543,-0.02484 -0.388532,-0.07162 -0.641623,-0.197448 -0.600424,-0.298506 -1.214559,-0.776304 -1.592816,-1.239213 -0.711541,-0.870781 -1.02265,-1.950908 -1.022963,-3.551592 -1.1e-4,-0.562896 0.04928,-0.764495 0.324096,-1.323012 0.483379,-0.982367 1.103226,-1.469697 2.044904,-1.607722 0.219263,-0.03214 0.745228,-0.02709 0.985319,0.0095 1.673468,0.254748 3.012947,1.608605 3.474626,3.511917 0.09262,0.381826 0.10876,0.525167 0.108279,0.96147 -3.71e-4,0.328186 -0.0087,0.451686 -0.04412,0.653097 -0.133297,0.758071 -0.412379,1.387288 -0.838632,1.890776 -0.169615,0.200351 -0.334076,0.342395 -0.598268,0.516729 -0.343003,0.22634 -0.608264,0.311214 -1.103105,0.352952 -0.340542,0.02872 -0.922982,0.04073 -1.095695,0.02259 z"
     id="path272" /><path
     style="fill:#ffffff;stroke:none;stroke-width:0.333801;stroke-linecap:round;stroke-dasharray:none"
     d="M 11.381408,80.606148 C 10.765442,80.564116 9.3221238,80.277041 9.0229896,80.13706 8.8322528,80.047803 8.7914932,79.963909 8.7265234,79.526852 c -0.055433,-0.372901 -0.031033,-0.523706 0.095989,-0.593268 0.048484,-0.02655 0.1095505,-0.03334 0.2885361,-0.0321 0.2736715,0.0019 0.4452281,0.03163 1.8106875,0.313717 0.553423,0.114329 1.012068,0.207872 1.01921,0.207872 0.0071,0 0.01299,0.270963 0.01299,0.602139 v 0.602139 l -0.172745,-0.0029 c -0.09501,-0.0016 -0.274911,-0.0098 -0.39978,-0.01836 z"
     id="path273" /><path
     style="fill:#ffffff;stroke:none;stroke-width:0.333801;stroke-linecap:round;stroke-dasharray:none"
     d="m 11.435983,86.952595 -0.425827,-0.587687 0.298807,-0.326965 c 0.742438,-0.812395 1.191456,-1.292256 1.411934,-1.508918 l 0.238455,-0.234331 0.06488,0.05399 c 0.03568,0.02969 0.125543,0.121568 0.199686,0.20416 0.161322,0.17971 0.70204,0.843111 0.715104,0.877356 0.0051,0.01328 -0.460238,0.493471 -1.034003,1.067107 l -1.043209,1.042977 z"
     id="path274" /><path
     style="fill:#ffffff;stroke:none;stroke-width:0.333801;stroke-linecap:round;stroke-dasharray:none"
     d="m 16.972875,90.854204 c -0.125882,-0.02984 -0.500572,-0.225158 -0.558493,-0.291123 -0.07071,-0.08054 -0.111095,-0.216972 -0.136056,-0.459674 -0.0213,-0.207095 -0.05245,-1.221568 -0.06941,-2.260262 -0.006,-0.369181 -0.01612,-0.787741 -0.02243,-0.930135 l -0.01147,-0.258897 0.253592,0.0646 c 0.265535,0.06764 0.532484,0.107561 0.719809,0.107657 0.216682,1.08e-4 0.252711,0.08083 0.268792,0.602194 0.01224,0.396777 -0.0267,2.229604 -0.05576,2.625101 -0.03831,0.521274 -0.09713,0.728223 -0.224094,0.788471 -0.07239,0.03435 -0.07094,0.03425 -0.164477,0.01207 z"
     id="path275" /><path
     style="fill:#ffffff;stroke:none;stroke-width:0.333801;stroke-linecap:round;stroke-dasharray:none"
     d="m 22.006855,88.952903 c -0.271803,-0.340717 -0.611772,-0.812599 -1.376012,-1.909924 l -0.662253,-0.950889 0.06283,-0.0721 c 0.03455,-0.03965 0.233206,-0.246962 0.441449,-0.460685 l 0.378622,-0.388588 0.323067,0.467556 c 0.424417,0.614233 1.34843,1.93508 1.664856,2.379863 l 0.250897,0.352669 -0.200401,0.209984 c -0.317711,0.332906 -0.627896,0.614701 -0.676627,0.614701 -0.0071,0 -0.09999,-0.109165 -0.206425,-0.242586 z"
     id="path276" /><path
     style="fill:#ffffff;stroke:none;stroke-width:0.333801;stroke-linecap:round;stroke-dasharray:none"
     d="m 25.200983,82.706469 c -0.879422,-0.06597 -3.420523,-0.457486 -3.502734,-0.539674 -0.03414,-0.03413 -0.0286,-0.998855 0.0062,-1.081365 0.04465,-0.10586 0.118252,-0.132659 0.357515,-0.130193 0.22948,0.0024 0.360799,0.02005 1.322731,0.178088 1.206255,0.198181 1.548068,0.291624 1.765671,0.482682 0.138603,0.121695 0.224165,0.377402 0.26812,0.801285 0.02557,0.246645 0.0077,0.306705 -0.08918,0.298987 -0.02172,-0.0019 -0.07946,-0.0061 -0.128325,-0.0098 z"
     id="path277" /><path
     style="fill:#ffffff;stroke:none;stroke-width:0.333801;stroke-linecap:round;stroke-dasharray:none"
     d="M 58.841514,86.930066 C 58.67193,86.756552 58.397149,86.406865 58.076429,85.956417 57.869517,85.66581 56.539362,83.67169 56.52818,83.635336 c -0.0083,-0.02709 0.63807,-0.643496 0.755896,-0.720817 0.13969,-0.09167 0.222131,-0.119791 0.261636,-0.08925 0.02439,0.01886 1.716882,2.446798 2.256298,3.236751 0.200554,0.293706 0.196755,0.339368 -0.04741,0.569698 -0.217589,0.205264 -0.620557,0.451356 -0.73908,0.451356 -0.01347,0 -0.09176,-0.06885 -0.174006,-0.153003 z"
     id="path278" /><path
     style="fill:#ffffff;stroke:none;stroke-width:0.333801;stroke-linecap:round;stroke-dasharray:none"
     d="m 57.578275,91.820299 c -0.038,-0.0094 -0.682096,-0.145847 -1.431314,-0.303194 -1.567172,-0.329129 -1.983836,-0.418952 -2.08869,-0.450268 -0.101759,-0.03039 -0.182697,-0.127797 -0.209312,-0.2519 -0.02784,-0.129815 -0.02837,-0.953068 -7.94e-4,-1.052798 0.03306,-0.119057 0.06928,-0.122481 0.438272,-0.04143 0.176279,0.03872 0.68031,0.140018 1.120069,0.225111 1.18143,0.2286 1.626819,0.328763 1.952715,0.439139 0.211778,0.07173 0.300887,0.141105 0.336269,0.261821 0.03072,0.10482 0.04668,0.673521 0.02685,0.957043 -0.01738,0.248425 -0.01707,0.24796 -0.144187,0.21648 z"
     id="path279" /><path
     style="fill:#ffffff;stroke:none;stroke-width:0.333801;stroke-linecap:round;stroke-dasharray:none"
     d="m 57.379781,99.287123 c -0.146669,-0.09338 -0.308184,-0.254412 -0.587377,-0.585618 -0.146508,-0.173799 -0.282551,-0.334057 -0.302318,-0.356129 -0.03547,-0.0396 -0.0195,-0.05658 1.20338,-1.279337 l 1.239322,-1.239205 0.456811,0.548873 c 0.251248,0.301881 0.459534,0.554651 0.462859,0.561713 0.0064,0.01355 -0.272528,0.310255 -1.276048,1.357511 -0.604478,0.630822 -1.036132,1.048075 -1.084249,1.048075 -0.01355,0 -0.06411,-0.02514 -0.11238,-0.05588 z"
     id="path280" /><path
     style="fill:#ffffff;stroke:none;stroke-width:0.333801;stroke-linecap:round;stroke-dasharray:none"
     d="m 63.441722,108.09853 c -1.852351,-0.20652 -4.591855,-1.46978 -6.435971,-2.9678 -1.070462,-0.86956 -2.288009,-2.08009 -3.140708,-3.12259 -1.526199,-1.86591 -2.926927,-4.941948 -3.362227,-7.383531 -0.08582,-0.481345 -0.132337,-0.941234 -0.178737,-1.766932 l -0.01109,-0.197422 0.128659,0.463942 c 0.606399,2.18666 0.868141,2.947035 1.420323,4.12613 2.084745,4.451623 5.671836,8.105613 9.704243,9.885213 0.77611,0.34251 1.427054,0.56349 2.45791,0.83438 0.293172,0.077 0.541925,0.14349 0.552783,0.14767 0.05139,0.0198 -0.935442,0.003 -1.135181,-0.0191 z"
     id="path281" /><path
     style="fill:#ffffff;stroke:none;stroke-width:0.333801;stroke-linecap:round;stroke-dasharray:none"
     d="m 63.649324,103.19947 c -0.35411,-0.0759 -0.574201,-0.20969 -0.687628,-0.41809 -0.106108,-0.19496 -0.185901,-0.6068 -0.230126,-1.18776 -0.02902,-0.38124 -0.05897,-1.60851 -0.05942,-2.434438 l -2.65e-4,-0.706996 0.09377,0.01336 c 0.730144,0.104024 1.268243,0.208846 1.315696,0.256299 0.06104,0.06104 0.08959,0.654577 0.103479,2.151185 0.01696,1.82795 -0.01119,2.26405 -0.150734,2.33391 -0.0644,0.0322 -0.212759,0.0294 -0.384667,-0.007 z"
     id="path282" /><path
     style="fill:#ffffff;stroke:none;stroke-width:0.333801;stroke-linecap:round;stroke-dasharray:none"
     d="m 63.710152,96.892226 c -1.049327,-0.134646 -2.153438,-0.720444 -2.885075,-1.530704 -0.795411,-0.880886 -1.304208,-1.983979 -1.482709,-3.214566 -0.04875,-0.336103 -0.04851,-1.060315 5.29e-4,-1.372087 0.139163,-0.885902 0.45538,-1.537301 1.038474,-2.139238 0.651126,-0.672166 1.345459,-1.006145 2.196203,-1.056384 1.086554,-0.06417 2.202723,0.318963 3.149394,1.081043 1.815118,1.461188 2.556293,4.117247 1.699908,6.091745 -0.507696,1.170546 -1.534927,1.958425 -2.779757,2.132047 -0.237054,0.03306 -0.710624,0.03718 -0.936906,0.0082 z"
     id="path283" /><path
     style="fill:#ffffff;stroke:none;stroke-width:0.333801;stroke-linecap:round;stroke-dasharray:none"
     d="m 69.834624,101.30216 c -0.135175,-0.14451 -0.452681,-0.54988 -0.923713,-1.17933 -1.031245,-1.378092 -1.457428,-2.017997 -1.49374,-2.242822 l -0.01148,-0.07117 0.21435,-0.147365 c 0.11789,-0.08105 0.300627,-0.214894 0.40608,-0.297429 0.105452,-0.08253 0.209841,-0.155807 0.23197,-0.162832 0.06707,-0.02127 0.112287,0.0059 0.239319,0.143984 0.158004,0.17173 0.925409,1.195162 1.771891,2.363041 0.633939,0.874633 0.670446,0.929583 0.636143,0.957503 -0.02,0.0163 -0.170752,0.13993 -0.334974,0.27476 -0.314248,0.258 -0.585165,0.4557 -0.62448,0.4557 -0.01286,0 -0.06297,-0.0423 -0.111352,-0.094 z"
     id="path284" /><path
     style="fill:#ffffff;stroke:none;stroke-width:0.333801;stroke-linecap:round;stroke-dasharray:none"
     d="m 72.898261,94.227478 c -0.205121,-0.0091 -0.391544,-0.02919 -0.503428,-0.0543 -0.270608,-0.06075 -0.734811,-0.145757 -1.796545,-0.328991 -0.532053,-0.09182 -0.987358,-0.17162 -1.01179,-0.177324 l -0.04442,-0.01037 1.61e-4,-0.468503 c 2.17e-4,-0.62947 0.03547,-0.926589 0.118888,-1.002083 0.02932,-0.02653 0.05821,-0.02787 0.209198,-0.0097 0.718958,0.08657 2.516836,0.474612 3.170653,0.684337 0.317907,0.101973 0.456023,0.227295 0.518157,0.470161 0.04009,0.156713 0.04208,0.693973 0.0029,0.78771 -0.04768,0.114115 -0.154199,0.131617 -0.663795,0.109064 z"
     id="path285" /><path
     style="fill:#ffffff;stroke:none;stroke-width:0.333801;stroke-linecap:round;stroke-dasharray:none"
     d="m 67.968142,88.23058 c -0.202515,-0.175607 -0.686234,-0.675137 -0.723111,-0.74675 -0.06025,-0.116996 -0.04922,-0.137252 0.229105,-0.420629 0.143902,-0.146518 0.403759,-0.422301 0.577461,-0.612854 0.297291,-0.326136 1.610185,-1.804776 1.662851,-1.872777 0.01688,-0.02177 0.02895,-0.02468 0.03948,-0.0095 0.0084,0.01204 0.241726,0.276714 0.518609,0.588166 0.276887,0.311454 0.505746,0.572855 0.508577,0.580893 0.0067,0.01918 -2.221447,2.238107 -2.457955,2.447729 -0.100346,0.08894 -0.19118,0.161708 -0.201851,0.161708 -0.01066,0 -0.0796,-0.0522 -0.15317,-0.115993 z"
     id="path286" /><path
     style="fill:#ffffff;stroke:none;stroke-width:0.333801;stroke-linecap:round;stroke-dasharray:none"
     d="m 63.579919,85.877804 c -0.17916,-0.03125 -0.40713,-0.07137 -0.5066,-0.08915 l -0.180854,-0.03234 -0.01127,-0.200345 c -0.0062,-0.110188 -0.02162,-0.786688 -0.03423,-1.503333 -0.03017,-1.711791 -0.0048,-2.761819 0.07114,-2.943535 0.06561,-0.157025 0.257866,-0.162237 0.78028,-0.02114 0.17916,0.04838 0.363503,0.09815 0.409652,0.110585 l 0.08391,0.02262 -2.65e-4,1.63291 c -5.29e-4,2.102861 -0.0264,2.822165 -0.108712,3.019161 -0.0241,0.0577 -0.03531,0.06462 -0.102119,0.0631 -0.04127,-0.0011 -0.221628,-0.02726 -0.400788,-0.05851 z"
     id="path287" /><path
     style="fill:#ffffff;stroke:none;stroke-width:0.667605;stroke-linecap:round;stroke-dasharray:none"
     d="m 90.10674,101.14942 c 0.03747,-0.11816 0.15761,-0.30751 0.56995,-0.89827 1.827773,-2.618659 2.936584,-6.106638 3.338812,-10.502878 0.08587,-0.938514 0.119451,-3.465597 0.05958,-4.482833 -0.209709,-3.562739 -0.925902,-6.374119 -2.348334,-9.21829 -1.259649,-2.518685 -2.863733,-4.640077 -4.86084,-6.428438 -1.552969,-1.390645 -2.998803,-2.400779 -5.263034,-3.677021 -0.397271,-0.223924 -0.713404,-0.416044 -0.702516,-0.426931 0.04696,-0.04696 2.14181,0.180202 3.023955,0.327919 4.10011,0.686567 6.61621,2.175447 8.470376,5.012262 1.725631,2.640158 2.401864,5.198689 2.624646,9.930349 0.158284,3.361847 0.15799,10.424904 -5.29e-4,13.010145 -0.05716,0.932035 -0.102654,1.274615 -0.236406,1.780022 -0.389495,1.471763 -1.193233,2.859527 -2.309677,3.987969 -0.660877,0.667985 -1.362877,1.197565 -2.042338,1.540725 -0.315147,0.15917 -0.361812,0.1657 -0.323625,0.0453 z"
     id="path288" /><path
     style="fill:#ffffff;stroke:none;stroke-width:0.236034;stroke-linecap:round;stroke-dasharray:none"
     d="m 111.66204,89.816897 c 0.011,-0.08217 0.11211,-0.277029 0.31955,-0.615958 0.35747,-0.584067 0.73413,-1.282647 1.31199,-2.433309 0.54406,-1.083387 0.77602,-1.513409 0.94503,-1.751965 0.18773,-0.26498 0.24986,-0.261506 0.20338,0.01138 -0.0464,0.272605 -0.24752,0.929452 -0.41747,1.363673 -0.37467,0.957273 -0.89818,1.843135 -1.6031,2.712712 -0.36053,0.444733 -0.67914,0.769903 -0.75469,0.770226 -0.007,2.7e-5 -0.009,-0.02551 -0.005,-0.05676 z"
     id="path289" /><path
     style="fill:#ffffff;stroke:none;stroke-width:0.472067;stroke-linecap:round;stroke-dasharray:none"
     d="m 113.47711,80.195898 c -0.0237,-0.05972 -0.0274,-2.008822 -0.0143,-7.646405 0.01,-4.161439 0.0257,-7.987613 0.0356,-8.502608 l 0.0181,-0.936355 0.26788,-0.197173 c 0.14733,-0.108445 0.86466,-0.643133 1.59406,-1.188199 1.962,-1.466149 2.9001,-2.116474 3.05304,-2.116474 0.21963,0 1.04658,0.818021 1.1454,1.133034 0.023,0.07338 -0.0128,0.100261 -2.91413,2.185569 -1.54594,1.111142 -1.49805,1.073862 -1.51711,1.18106 -0.0442,0.248629 -0.11243,4.744218 -0.15803,10.40949 -0.0162,2.019297 -0.0367,3.874103 -0.0455,4.12179 l -0.016,0.450345 -0.43866,0.444928 c -0.45314,0.459611 -0.74169,0.693807 -0.89183,0.723834 -0.0764,0.01529 -0.0903,0.0079 -0.11844,-0.06284 z"
     id="path290" /><path
     style="fill:#ffffff;stroke:none;stroke-width:0.667605;stroke-linecap:round;stroke-dasharray:none"
     d="m 121.58582,58.725145 c -0.30035,-0.2976 -0.54608,-0.552225 -0.54608,-0.565832 0,-0.0136 0.0838,-0.08491 0.18619,-0.158454 0.38163,-0.274061 1.74755,-1.384758 2.28159,-1.855271 2.29239,-2.019684 3.96999,-3.955392 5.20328,-6.003865 0.58317,-0.968621 1.1042,-2.093896 1.44265,-3.11568 0.23621,-0.713113 0.31666,-1.095463 0.36157,-1.718472 0.0755,-1.047575 0.0281,-3.298378 -0.0801,-3.802213 -0.0248,-0.115509 -0.0363,-0.21885 -0.0255,-0.229645 0.0108,-0.0108 0.0899,0.05356 0.1759,0.143007 0.31129,0.323959 0.95889,1.537581 1.22886,2.302926 0.37638,1.067027 0.38948,2.169496 0.0402,3.383364 -0.34259,1.190617 -1.21543,2.947012 -2.11916,4.264327 -1.77025,2.580402 -4.34689,5.317196 -7.06765,7.506941 -0.26649,0.214477 -0.49605,0.389959 -0.51013,0.389959 -0.0141,0 -0.27135,-0.243491 -0.57169,-0.541092 z"
     id="path291" /><path
     style="fill:#ffffff;stroke:none;stroke-width:0.333801;stroke-linecap:round;stroke-dasharray:none"
     d="m 66.465571,53.036881 c -0.0627,-0.13762 -0.07238,-0.334907 -0.07115,-1.450379 0.0021,-2.022026 0.08164,-2.81186 0.317079,-3.153699 0.288801,-0.419325 1.337329,-1.118968 3.99537,-2.665955 1.92297,-1.119174 2.725256,-1.524463 3.017734,-1.524463 0.169704,0 0.189931,0.148797 0.03826,0.28144 -0.283726,0.248134 -1.412343,1.010997 -2.779602,1.878809 -1.725811,1.095391 -2.209326,1.434219 -2.60814,1.827684 -0.435526,0.429683 -0.673751,0.84098 -0.926219,1.599123 -0.138047,0.414546 -0.221795,0.717761 -0.5421,1.962687 -0.24828,0.964988 -0.322064,1.207953 -0.383794,1.263817 -0.03185,0.02883 -0.03629,0.02736 -0.05744,-0.01905 z"
     id="path292" /></svg>
