<?xml version="1.0" encoding="UTF-8" standalone="no"?>
<!-- Created with Inkscape (http://www.inkscape.org/) -->

<svg
   width="505.08896"
   height="505.75937"
   viewBox="0 0 505.08896 505.75937"
   version="1.1"
   id="svg1"
   xml:space="preserve"
   sodipodi:docname="ID.svg"
   inkscape:version="1.4 (86a8ad7, 2024-10-11)"
   xmlns:inkscape="http://www.inkscape.org/namespaces/inkscape"
   xmlns:sodipodi="http://sodipodi.sourceforge.net/DTD/sodipodi-0.dtd"
   xmlns="http://www.w3.org/2000/svg"
   xmlns:svg="http://www.w3.org/2000/svg"><sodipodi:namedview
     id="namedview1"
     pagecolor="#ffffff"
     bordercolor="#000000"
     borderopacity="0.25"
     inkscape:showpageshadow="2"
     inkscape:pageopacity="0.0"
     inkscape:pagecheckerboard="true"
     inkscape:deskcolor="#d1d1d1"
     inkscape:zoom="1.6959064"
     inkscape:cx="435.46037"
     inkscape:cy="243.23277"
     inkscape:window-width="2560"
     inkscape:window-height="1494"
     inkscape:window-x="585"
     inkscape:window-y="2149"
     inkscape:window-maximized="1"
     inkscape:current-layer="svg1"><inkscape:page
       x="0"
       y="0"
       width="505.08896"
       height="505.75937"
       id="page2"
       margin="0"
       bleed="0" /></sodipodi:namedview><defs
     id="defs1"><inkscape:path-effect
       effect="bspline"
       id="path-effect9"
       is_visible="true"
       lpeversion="1.3"
       weight="33.333333"
       steps="2"
       helper_size="0"
       apply_no_weight="true"
       apply_with_weight="true"
       only_selected="false"
       uniform="false" /></defs><path
     style="fill:none;stroke:#ffffff;stroke-width:29.069;stroke-linecap:round;stroke-linejoin:round;stroke-dasharray:none"
     d="m 160.38621,120.87932 c -0.68793,-18.57415 -1.63796,-44.224985 0.0349,-52.133275 1.67291,-7.90829 14.75992,-22.895031 21.42781,-23.719925 6.6679,-0.824894 126.32301,-1.055 138.23826,0.512797 11.91525,1.567796 19.65234,13.328176 22.25671,25.121516 2.60436,11.793341 2.89918,27.910263 3.19401,44.027507"
     id="path9"
     inkscape:path-effect="#path-effect9"
     inkscape:original-d="m 160.38621,120.87932 c -0.68793,-18.57415 -1.63796,-44.224985 -2.06379,-55.72242 3.77165,-4.319142 16.85866,-19.305885 18.27931,-20.93276 11.91514,-0.02291 131.57025,-0.25302 153.31035,-0.294828 2.0904,3.177399 9.82749,14.937783 14.74139,22.406898 0.29483,16.117564 0.58965,32.234486 0.88448,48.35173"
     sodipodi:nodetypes="cccccc" /><path
     style="fill:#000000;stroke-width:0.556857"
     d="M 62.060436,467.29097 C 53.025431,467.11137 45.00669,466.77468 44.241012,466.54278 31.01684,462.53754 23.417361,458.25398 16.36473,450.82989 10.744061,444.91317 6.6669589,437.98577 3.7950936,429.47281 L 2.1983094,424.73953 V 290.25856 155.7776 l 1.5364359,-4.89844 c 3.0681183,-9.78172 7.5816087,-17.00845 15.0698077,-24.12885 2.90157,-2.75905 7.203102,-6.14094 9.740816,-7.65828 5.399519,-3.22847 13.734594,-6.17697 19.77315,-6.9947 2.784523,-0.37706 21.704975,-0.58986 52.447221,-0.58986 h 48.0913 l 0.2086,-20.742924 c 0.23366,-23.234456 0.32097,-23.876593 4.33984,-31.91907 5.62069,-11.248023 15.65328,-20.084851 27.69467,-24.393798 l 4.86096,-1.739471 65.61088,-0.150361 c 64.08278,-0.146863 65.72076,-0.12427 70.3284,0.970041 15.92132,3.781307 28.72284,16.514037 32.4879,32.313316 1.02595,4.305142 1.12832,6.584355 1.13188,25.19778 l 0.004,20.464487 49.42105,0.008 c 46.07315,0.007 49.76056,0.0778 54.43278,1.04714 10.81648,2.24418 20.11443,7.17083 27.78539,14.72247 7.34474,7.23048 12.18865,15.49217 14.91014,25.43049 l 1.29617,4.73328 v 132.53196 c 0,124.51677 -0.059,132.76195 -0.97668,136.3347 -3.91402,15.23936 -14.28031,28.14545 -28.25832,35.18174 -5.44027,2.73854 -10.63317,4.48238 -15.69038,5.26901 -4.39148,0.68308 -364.443167,1.16031 -396.383787,0.52539 z M 456.59362,445.34079 c 6.1075,-1.28229 11.51075,-4.24612 16.11626,-8.84022 4.50448,-4.4933 6.94002,-8.68937 8.63976,-14.88496 1.15112,-4.19591 1.15175,-4.27867 1.00561,-132.79083 l -0.14622,-128.59232 -1.75974,-4.56351 c -4.2829,-11.10684 -12.50442,-18.66156 -23.66597,-21.74657 -3.33451,-0.92164 -14.694,-0.97592 -204.27779,-0.97592 -190.176871,0 -200.937532,0.0519 -204.366519,0.98386 -12.486764,3.39405 -21.456233,12.51693 -24.753809,25.17717 -0.765394,2.93855 -0.861613,17.49307 -0.861613,130.33051 0,88.84925 0.181426,128.01556 0.6037,130.32676 2.29539,12.56325 13.504944,23.65341 26.125435,25.84719 1.378221,0.23956 92.716686,0.4607 202.974366,0.49141 174.36461,0.0485 200.9761,-0.0507 204.36653,-0.76257 z M 214.04501,397.30517 c -2.1982,-1.14834 -3.46025,-2.30249 -4.6873,-4.28655 l -1.67917,-2.7151 -0.13985,-27.33055 c -0.0769,-15.03181 -0.26747,-27.8858 -0.42347,-28.56442 l -0.28362,-1.23387 -28.81152,-0.15827 -28.81153,-0.15829 -2.48113,-1.39214 c -1.36462,-0.76568 -3.244,-2.47856 -4.17643,-3.80641 l -1.69529,-2.41428 -0.12995,-36.56571 -0.12994,-36.56572 1.28585,-2.50585 c 0.729,-1.42067 2.31288,-3.22931 3.65741,-4.17643 l 2.37155,-1.67057 29.04868,-0.27844 c 15.97676,-0.15312 29.3619,-0.48115 29.74474,-0.72893 0.54102,-0.35015 0.69607,-6.43674 0.69607,-27.32414 0,-29.80341 0.10315,-30.82339 3.46625,-34.27706 3.40523,-3.4969 1.96179,-3.37898 41.36504,-3.37898 34.28919,0 36.05318,0.0493 38.02337,1.06271 2.49539,1.28357 4.80076,3.63485 5.7828,5.89799 0.55017,1.26786 0.79362,8.44368 1.00993,29.76713 l 0.28501,28.09656 1.39214,0.38686 c 0.76568,0.21276 13.86683,0.41183 29.11367,0.44237 21.88563,0.0438 28.09875,0.21342 29.51342,0.80565 2.48139,1.03881 5.78931,4.86986 6.50735,7.53647 0.40551,1.50599 0.55007,13.62444 0.4476,37.5243 l -0.15134,35.29997 -1.67554,2.7097 c -1.18958,1.92378 -2.47705,3.1223 -4.43904,4.13232 l -2.7635,1.42263 -29.08793,0.15809 -29.08794,0.15808 -0.16287,28.52005 -0.16287,28.52005 -1.39214,2.48114 c -0.76568,1.36462 -2.47853,3.24401 -3.80633,4.17642 l -2.41418,1.6953 -36.05495,0.1547 -36.05493,0.1547 z m 62.41759,-47.32369 c 0.0114,-26.28672 0.0842,-28.41881 1.0418,-30.52731 1.23479,-2.71867 4.34597,-5.41397 7.25555,-6.28571 1.46841,-0.43994 10.80134,-0.63561 30.31738,-0.63561 h 28.19588 v -24.22328 -24.22328 h -28.69602 c -31.30099,0 -30.98446,0.0298 -34.41774,-3.23148 -3.54375,-3.36611 -3.40405,-2.10353 -3.70907,-33.52108 l -0.27843,-28.67814 -23.3235,-0.14538 c -16.49151,-0.10282 -23.54203,0.036 -24.06953,0.47376 -0.60192,0.49955 -0.77572,6.12844 -0.89977,29.14317 l -0.15377,28.52403 -1.49396,2.25698 c -0.97326,1.47034 -2.51551,2.76602 -4.42498,3.71755 l -2.93101,1.46059 h -28.56879 -28.5688 v 24.22328 24.22328 h 28.29985 28.29985 l 3.01991,1.53135 c 1.97719,1.00261 3.59791,2.36482 4.69392,3.94519 l 1.67401,2.41385 0.29572,28.77014 c 0.16262,15.8236 0.35057,28.83281 0.41763,28.90937 0.0671,0.0766 10.89713,0.13922 24.0668,0.13922 h 23.94485 z m 56.80035,-239.61231 c 0.41861,-0.78218 0.54833,-7.1847 0.41464,-20.464492 -0.22364,-22.21292 -0.28301,-22.540293 -5.02984,-27.734084 -3.02074,-3.305151 -6.02431,-5.091881 -11.29216,-6.717352 -3.13399,-0.967028 -6.67266,-1.023609 -64.01478,-1.023609 -47.35966,0 -61.36277,0.156593 -63.72534,0.712585 -7.27302,1.711627 -14.08023,6.64825 -16.8083,12.189447 -1.31088,2.662638 -1.32596,2.895978 -1.48367,22.969952 -0.12615,16.058253 -0.01,20.374583 0.55687,20.734393 0.3939,0.24993 36.72905,0.45825 80.74478,0.46294 l 80.0286,0.009 z"
     id="path6" /><path
     style="fill:#ffffff;stroke:none;stroke-width:1.22;stroke-linecap:round;stroke-linejoin:round"
     d="m 55.100308,445.2316 c -8.83456,-0.33513 -8.899546,-0.34776 -13.504104,-2.62438 -9.342073,-4.61897 -16.608904,-14.04906 -18.05292,-23.42708 -0.370996,-2.4094 -0.521013,-49.90511 -0.416052,-131.72323 l 0.164148,-127.95518 1.601801,-3.9979 c 3.483074,-8.69334 9.274132,-14.9621 17.450197,-18.88968 4.805021,-2.30821 5.075687,-2.364 13.924438,-2.8699 4.96329,-0.28376 96.822914,-0.44199 204.132494,-0.35163 l 195.10833,0.16428 3.94863,1.58326 c 8.92656,3.57922 15.29537,9.47945 19.48895,18.05507 l 2.50725,5.12719 0.46612,78.71897 c 0.25636,43.29543 0.35752,101.93664 0.22479,130.3138 -0.23682,50.62948 -0.26471,51.66654 -1.49111,55.42759 -2.77089,8.4976 -8.90372,15.56204 -16.99411,19.57557 -4.43417,2.19974 -5.35874,2.43071 -11.49827,2.8725 -7.41779,0.53377 -382.99081,0.53448 -397.060582,7.5e-4 z m 224.390872,-46.42614 10.79746,-0.39111 2.04457,-1.79515 c 1.12451,-0.98734 2.67646,-2.79615 3.44879,-4.01959 l 1.40422,-2.22443 v -28.61 -28.60999 h 29.28354 29.28354 l 2.53903,-1.48797 c 1.39647,-0.81839 3.34353,-2.65727 4.32681,-4.08641 l 1.78777,-2.59845 V 288.18883 251.3953 l -1.80911,-2.73126 c -0.99501,-1.5022 -2.7334,-3.3025 -3.86309,-4.00069 -2.00932,-1.24183 -2.68053,-1.2763 -30.87701,-1.58547 -15.85267,-0.17382 -29.11024,-0.49355 -29.46128,-0.71051 -0.43231,-0.26718 -0.79641,-9.53954 -1.12838,-28.73615 -0.48501,-28.04543 -0.50417,-28.3644 -1.83274,-30.51408 -0.73843,-1.19481 -2.41844,-2.88422 -3.73336,-3.75424 l -2.39076,-1.58186 h -36.8961 c -41.39241,0 -39.60292,-0.18037 -42.7114,4.30516 -2.28479,3.29695 -2.67656,8.65994 -2.709,37.08332 -0.0198,17.34501 -0.19507,22.62913 -0.76277,22.99655 -0.40539,0.26238 -13.73897,0.70071 -29.63018,0.97408 l -28.8931,0.49703 -2.24849,1.52538 c -1.23667,0.83895 -2.89507,2.62869 -3.68535,3.97718 l -1.43685,2.45182 v 36.76995 36.76995 l 1.5215,2.19553 c 0.83683,1.20754 2.60495,2.94655 3.92914,3.86445 l 2.40763,1.66892 29.23897,0.29483 29.23897,0.29483 0.49558,28.83894 0.49558,28.83893 1.53408,2.31815 c 0.84403,1.27541 2.87559,3.08761 4.51649,4.0288 l 2.98241,1.71066 25.99771,0.006 c 14.29874,0.003 30.85658,-0.17047 36.79518,-0.38558 z"
     id="path7" /><path
     style="fill:none;stroke:#ffffff;stroke-width:1.22;stroke-linecap:round;stroke-linejoin:round"
     d="m 228.58601,367.79743 c -0.21221,-5.59435 -0.38665,-18.55644 -0.38764,-28.80463 l -0.002,-18.63308 -1.70486,-2.3535 c -0.93768,-1.29442 -2.90868,-3.05898 -4.38,-3.92123 l -2.67514,-1.56773 h -28.64069 -28.64069 v -24.17587 -24.17586 h 28.62177 c 27.38245,0 28.71649,-0.0505 30.80948,-1.16603 2.81943,-1.50272 3.71961,-2.26694 5.26382,-4.46881 1.24273,-1.77197 1.26699,-2.27607 1.45249,-30.17123 0.10376,-15.60304 0.40952,-28.59003 0.67947,-28.85999 0.26996,-0.26996 10.95009,-0.566 23.73363,-0.65786 l 23.24279,-0.16702 0.0556,16.97219 c 0.0306,9.33471 0.24085,22.41177 0.46726,29.06013 0.46643,13.6958 0.77899,14.81404 4.904,17.54476 l 2.44571,1.61903 29.67406,0.17295 29.67406,0.17296 v 24.15032 24.15033 h -28.85472 c -18.91237,0 -29.42668,0.21563 -30.51466,0.62582 -0.91297,0.3442 -2.54494,1.47192 -3.62663,2.50603 -3.97154,3.79692 -3.81682,2.52191 -4.11017,33.86901 l -0.26626,28.45086 h -23.41753 -23.41752 z"
     id="path8" /><path
     style="fill:#ffffff;stroke:none;stroke-width:17.1407;stroke-linecap:round;stroke-linejoin:round;stroke-dasharray:none"
     d="m 228.55747,373.69398 c -0.18405,-2.67556 -0.49766,-15.87646 -0.69692,-29.33534 l -0.3623,-24.47069 -1.46681,-1.93865 c -0.80673,-1.06626 -2.49779,-2.58949 -3.75789,-3.38495 l -2.29108,-1.4463 -29.06106,-0.15299 -29.06106,-0.15298 V 288.34139 263.8707 l 29.52661,-0.29483 29.52661,-0.29482 2.37003,-1.56893 c 4.33074,-2.8669 4.24736,-2.27504 4.75469,-33.75113 0.35875,-22.25786 0.61506,-28.21175 1.23089,-28.59201 0.80976,-0.50002 46.06016,-1.32492 46.83687,-0.85381 0.24323,0.14753 0.45036,10.26934 0.4603,22.49292 0.0188,23.17521 0.5915,35.68416 1.7311,37.81355 0.36892,0.68932 1.75816,2.04102 3.0872,3.00377 l 2.41645,1.75046 h 28.14127 c 15.4777,0 28.97338,0.16643 29.99042,0.36984 l 1.84915,0.36983 -0.15389,24.24827 -0.1539,24.24827 -29.77758,0.29483 c -21.15697,0.20948 -30.119,0.4942 -30.9569,0.9835 -0.64862,0.37877 -2.05639,1.60063 -3.12838,2.71524 -2.67869,2.78522 -3.03625,5.8739 -3.05311,26.37368 -0.008,9.24284 -0.18715,20.98435 -0.399,26.09224 l -0.38518,9.28707 h -23.44096 -23.44096 z"
     id="path10" /></svg>
