<?xml version="1.0" encoding="UTF-8" standalone="no"?>
<!-- Created with Inkscape (http://www.inkscape.org/) -->

<svg
   width="512"
   height="512"
   viewBox="0 0 135.46667 135.46667"
   version="1.1"
   id="svg1"
   xml:space="preserve"
   xmlns="http://www.w3.org/2000/svg"
   xmlns:svg="http://www.w3.org/2000/svg"><defs
     id="defs1" /><path
     style="fill:#000000;stroke:none;stroke-width:2.87232;stroke-dasharray:none"
     d="m 35.356651,112.93091 c -0.28247,-0.13369 -0.64649,-0.4637 -0.80892,-0.73335 -0.27658,-0.45913 -0.2982,-1.18104 -0.34051,-11.36816 l -0.0452,-10.877902 h -8.73728 c -9.70622,0 -9.33126,0.0449 -9.79955,-1.17453 -0.34609,-0.90126 -0.31131,-7.4539 0.0439,-8.26835 0.49987,-1.14617 0.26141,-1.11905 9.83895,-1.11905 h 8.66346 v -2.7285 -2.7285 l -8.3723,-0.001 c -5.04254,-5.9e-4 -8.60229,-0.0705 -8.95056,-0.17576 -0.31804,-0.0961 -0.75486,-0.37916 -0.9707,-0.62894 -0.38704,-0.4479 -0.39316,-0.50728 -0.44413,-4.30471 -0.0448,-3.34037 -0.0152,-3.93431 0.22404,-4.48277 0.5015,-1.14989 0.46738,-1.14481 7.68342,-1.14481 5.48199,0 6.4832,-0.0383 6.41033,-0.24485 -0.0475,-0.13465 -4.32343,-8.55119 -9.50209,-18.70341 -10.12692,-19.85277 -9.83354,-19.19892 -9.0982,-20.27679 0.61296,-0.8985 0.66461,-0.90496 7.24628,-0.90703 5.71935,-0.002 6.18231,0.021 6.64321,0.32678 0.41663,0.27644 1.56614,2.63503 7.22776,14.83006 3.70279,7.97574 7.21086,15.68956 7.79572,17.14183 0.58487,1.45226 1.2016,2.95734 1.37053,3.34461 0.30621,0.70201 0.30761,0.7028 0.46668,0.26405 0.1833,-0.50562 13.58161,-32.61705 14.30523,-34.28502 0.74463,-1.7164 0.40477,-1.64576 7.63785,-1.58754 5.94585,0.0479 6.22466,0.0649 6.57197,0.40205 0.61663,0.59854 0.82415,1.34827 0.59599,2.15324 -0.10838,0.38238 -4.25415,8.85583 -9.21284,18.82988 -4.95869,9.97405 -9.06163,18.26458 -9.11764,18.4234 -0.0934,0.26477 0.45022,0.28876 6.5432,0.28876 h 6.64505 l 0.57163,0.62198 0.57164,0.62198 v 3.97171 c 0,3.34159 -0.0415,4.04813 -0.26152,4.45342 -0.54969,1.0125 -0.20888,0.97669 -9.80951,1.03061 l -8.85765,0.0497 v 2.72276 2.72277 h 8.8927 8.89271 l 0.57163,0.62198 0.57164,0.62198 v 4.06048 4.06048 l -0.55006,0.59851 -0.55007,0.5985 h -8.91428 -8.91427 V 100.7943 c 0,12.03653 0.0427,11.55258 -1.06894,12.12652 -0.72659,0.37516 -10.86941,0.3839 -11.65931,0.0101 z"
     id="path8" /><path
     id="path9"
     style="fill:#000000;stroke-width:1.01034"
     d="m 7.2008688,3.606339 -1.38586,0.6848274 c -1.64021,0.8106705 -2.611,1.7281375 -3.50365,3.3113435 l -0.653947,1.160179 V 67.416175 126.06966 l 0.748687,1.31981 c 1.00967,1.78031 2.76583,3.10753 4.93174,3.72677 0.3821,0.10921 15.9113802,0.17845 34.5097202,0.15409 l 33.81516,-0.0443 1.24729,-0.60828 c 1.70206,-0.83031 2.68841,-1.7333 3.55995,-3.25898 l 0.73624,-1.28908 0.0774,-15.91469 0.0774,-15.914696 23.759511,-0.06996 23.7595,-0.06996 1.24729,-0.608293 c 1.70206,-0.83031 2.6884,-1.733297 3.55993,-3.258971 l 0.73625,-1.289088 V 68.447445 47.950952 l -0.65395,-1.160179 C 132.87688,45.207567 131.9061,44.2901 130.26588,43.47943 l -1.38587,-0.684829 -23.76005,-0.06999 -23.760041,-0.06999 -0.0769,-16.945963 -0.0769,-16.9459636 -0.73625,-1.2890881 c -0.87147,-1.5256772 -1.85782,-2.4286622 -3.55989,-3.2589722 l -1.24728,-0.6082877 h -34.23092 z m 19.2013102,3.9765326 0.93222,3.5550624 c 0.65465,2.49745 1.11354,3.727098 1.54285,4.134647 l 0.61066,0.58009 h 11.9439 11.9439 l 0.61064,-0.58009 c 0.42933,-0.407549 0.88821,-1.637197 1.54287,-4.134647 l 0.9322,-3.5550624 9.24904,0.074521 9.24958,0.074026 0.9057,0.8429432 0.90568,0.842942 V 67.416177 125.41504 l -0.90623,0.84296 -0.90623,0.84294 -33.18611,0.0499 c -18.25242,0.0274 -33.4355702,-0.0469 -33.7404602,-0.16516 -0.30489,-0.11826 -0.86617,-0.52698 -1.24727,-0.90841 l -0.69294,-0.69338 V 67.400565 9.4173038 l 0.90569,-0.8429429 0.90568,-0.8429419 9.2495902,-0.074026 z m 4.56036,0.019639 h 10.46927 10.46924 l -0.55705,2.0625402 -0.55705,2.0625422 h -9.35514 -9.35515 l -0.55707,-2.0625422 z m 50.38224,39.1797024 23.415751,0.06848 23.41628,0.06899 0.86671,0.806685 c 0.64238,0.597569 0.90427,1.115277 1.01125,1.998086 l 0.14455,1.191399 H 105.77231 81.344779 v -2.067064 z m 0,8.258722 h 24.391261 24.39128 v 2.06254 2.06254 H 105.73604 81.344779 v -2.06254 z m 0,8.250161 h 24.398851 24.39885 l -0.0769,12.499618 -0.0769,12.499114 -0.90623,0.842942 -0.90568,0.842439 -23.4163,0.06899 -23.415731,0.06848 v -2.066562 -2.067071 h 4.86298 c 4.79377,0 4.87284,-0.0092 5.54347,-0.632962 l 0.68048,-0.632459 v -6.98474 -6.984739 l -0.68048,-0.63246 c -0.67063,-0.623763 -0.7497,-0.632962 -5.54347,-0.632962 h -4.86298 v -3.09381 z m 21.316921,6.18762 -0.67995,0.632962 c -0.42885,0.398904 -0.68048,0.927253 -0.68048,1.429579 0,0.502325 0.25163,1.030673 0.68048,1.429579 l 0.67995,0.63296 h 10.83521 10.83519 l 0.67996,-0.63296 c 0.42884,-0.398905 0.68047,-0.927254 0.68047,-1.429579 0,-0.502325 -0.25163,-1.030675 -0.68047,-1.429579 l -0.67996,-0.632962 h -10.83519 z m -21.316921,4.12508 h 3.32609 3.32607 v 4.125081 4.12508 h -3.32607 -3.32609 v -4.12508 z m 21.316921,2.062541 -0.67995,0.632962 c -0.42885,0.398905 -0.68048,0.927253 -0.68048,1.429578 0,0.502324 0.25163,1.030673 0.68048,1.429579 l 0.67995,0.632962 h 10.83521 10.83519 l 0.67996,-0.632962 c 0.42884,-0.398905 0.68047,-0.927255 0.68047,-1.429579 0,-0.502325 -0.25163,-1.030672 -0.68047,-1.429578 l -0.67996,-0.632962 h -10.83519 z m 16.37867,6.18762 c -5.24857,0 -5.29687,0.0052 -5.97168,0.632962 -0.42886,0.398905 -0.68049,0.927253 -0.68049,1.429578 0,0.502324 0.25163,1.030673 0.68049,1.429577 0.67481,0.62766 0.72311,0.632964 5.97168,0.632964 5.24856,0 5.29687,-0.0052 5.97169,-0.632964 0.42884,-0.398904 0.68047,-0.927253 0.68047,-1.429577 0,-0.502325 -0.25163,-1.030673 -0.68047,-1.429578 -0.67482,-0.627661 -0.72313,-0.632962 -5.97169,-0.632962 z m -87.335081,39.188263 -0.67994,0.63297 c -0.42885,0.3989 -0.68049,0.92725 -0.68049,1.42958 0,0.50232 0.25164,1.03066 0.68049,1.42956 l 0.67994,0.63298 h 9.72652 9.72651 l 0.67994,-0.63298 c 0.42885,-0.3989 0.68048,-0.92724 0.68048,-1.42956 0,-0.50233 -0.25163,-1.03068 -0.68048,-1.42958 l -0.67994,-0.63297 h -9.72651 z" /><path
     style="fill:#ffffff;stroke:none;stroke-width:1.21239;stroke-linecap:round;stroke-dasharray:none"
     d="m 10.944545,126.98272 c -2.2133141,-0.0454 -2.9700333,-0.0971 -3.182852,-0.2179 -0.1535586,-0.0871 -0.568167,-0.43401 -0.9213522,-0.77084 L 6.1981865,125.38156 V 67.390334 9.3991123 L 7.0481885,8.6235595 7.8981903,7.8480067 10.37064,7.7782435 c 1.359847,-0.03837 5.511572,-0.081703 9.226057,-0.096296 l 6.753607,-0.026532 0.134242,0.499855 c 1.644328,6.1226925 1.757786,6.4621225 2.406259,7.1988285 l 0.443923,0.504324 h 12.098195 12.098192 l 0.443923,-0.504324 c 0.261552,-0.297138 0.564462,-0.829517 0.737333,-1.295898 0.285843,-0.771159 1.355979,-4.5830472 1.628508,-5.8008304 l 0.136078,-0.6080628 6.437863,0.028108 c 3.540824,0.01546 7.699709,0.058779 9.241967,0.096266 l 2.804108,0.068159 0.853381,0.7786359 0.853382,0.778636 V 67.387966 125.37683 l -0.880607,0.85696 -0.880608,0.85695 -30.52912,-0.0243 c -16.791017,-0.0134 -31.835767,-0.0511 -33.432778,-0.0838 z m 40.860839,-2.34583 c 0.596905,-0.63815 0.73983,-0.94793 0.739031,-1.60178 -7.94e-4,-0.57045 -0.329613,-1.14554 -0.966454,-1.68978 l -0.464468,-0.39694 h -9.68057 -9.68057 l -0.464471,0.39694 c -0.636839,0.54424 -0.965753,1.11933 -0.966451,1.68978 -7.94e-4,0.65385 0.142126,0.96363 0.739031,1.60178 l 0.51943,0.55531 h 9.853031 9.853031 z m -6.107732,-11.50136 c 1.459664,-0.12078 1.87607,-0.29246 2.12857,-0.8776 0.222946,-0.51665 0.3424,-5.75898 0.35483,-15.571806 l 0.0084,-6.672821 h 8.870564 8.870564 l 0.563907,-0.586314 0.563906,-0.586317 0.0024,-4.113022 0.0024,-4.113022 -0.575146,-0.661257 -0.575141,-0.661255 h -8.861737 -8.861735 v -2.607487 -2.607485 l 1.190003,-0.07281 c 0.654503,-0.04005 4.03419,-0.07435 7.510415,-0.07623 6.462118,-0.0035 8.758037,-0.08803 9.316784,-0.343051 0.173842,-0.07934 0.425119,-0.347943 0.558395,-0.59689 0.233683,-0.436491 0.243621,-0.596918 0.278789,-4.49998 l 0.03647,-4.047353 -0.583692,-0.671086 -0.583692,-0.671087 -6.432717,-0.0016 c -3.537995,-0.0011 -6.500082,-0.04441 -6.582415,-0.09659 -0.115144,-0.07298 1.132668,-2.682778 5.405599,-11.305792 12.457951,-25.140849 12.808821,-25.86956 12.819936,-26.625461 0.0096,-0.651125 -0.291267,-1.32089 -0.745713,-1.660181 -0.275785,-0.205904 -0.557334,-0.231616 -3.510224,-0.32056 -1.765716,-0.05319 -4.542163,-0.07583 -6.169885,-0.05033 -3.201064,0.05016 -3.656563,0.122763 -4.043614,0.644565 -0.251854,0.339534 -1.316479,2.858886 -9.022903,21.351978 -3.218739,7.724 -5.879817,14.043325 -5.913504,14.042938 C 41.683776,59.07736 41.334045,58.285713 40.940284,57.31868 39.562758,53.935613 36.607613,47.399079 31.183472,35.737412 26.202353,25.027964 25.4597,23.550139 24.906644,23.246736 24.604228,23.080835 23.940611,23.061881 18.48288,23.063261 c -6.892047,0.0017 -6.700485,-0.01997 -7.350347,0.833302 -0.344509,0.452344 -0.37465,0.550516 -0.317408,1.033838 0.03479,0.29372 0.300733,1.099046 0.590992,1.789617 0.543051,1.291997 3.747447,7.703428 8.553482,17.114004 7.065152,13.834094 9.700627,19.069069 9.633786,19.136054 -0.03992,0.04001 -2.769706,0.103176 -6.066182,0.140377 -3.296478,0.0372 -6.219744,0.10596 -6.49615,0.152805 -0.783231,0.132733 -1.110813,0.354361 -1.377855,0.932196 -0.222553,0.481568 -0.24422,0.732745 -0.276283,3.202844 -0.01914,1.474164 0.01014,3.296955 0.06505,4.05065 0.09456,1.297855 0.117084,1.388485 0.425669,1.713076 0.721128,0.758532 0.09852,0.710221 9.623102,0.746705 l 8.627205,0.03304 v 2.675173 2.67517 l -6.449465,0.0064 c -3.547204,0.0035 -7.454574,0.04679 -8.683044,0.09614 -2.501246,0.100478 -2.936521,0.206541 -3.237681,0.788921 -0.300517,0.581136 -0.41597,2.242719 -0.372608,5.362549 0.0401,2.885371 0.04807,2.973443 0.318044,3.516437 0.454504,0.91413 0.01029,0.872503 9.853388,0.92338 l 8.571366,0.04431 0.0094,6.831859 c 0.0052,3.757522 0.04553,8.666182 0.08962,10.908142 0.08804,4.47694 0.09619,4.52842 0.795317,5.02624 0.251174,0.17885 0.592637,0.26416 1.313913,0.32827 1.405599,0.12493 7.901392,0.13238 9.371399,0.0107 z"
     id="path11" /><path
     style="fill:#ffffff;stroke:none;stroke-width:1.21239;stroke-linecap:round;stroke-dasharray:none"
     d="M 31.62027,9.7988416 C 31.335557,8.73874 31.10261,7.8341399 31.10261,7.7886189 c 0,-0.045521 4.648642,-0.082765 10.330313,-0.082765 5.68167,0 10.33031,0.032914 10.33031,0.073143 0,0.040229 -0.233188,0.9448289 -0.518195,2.0102227 L 50.726844,11.7263 h -9.294458 -9.294458 z"
     id="path12" /><path
     style="fill:#ffffff;stroke:none;stroke-width:1.71457;stroke-linecap:round;stroke-dasharray:none"
     d="M 31.97591,11.016176 C 31.878752,10.646996 31.635984,9.7585945 31.436425,9.041951 L 31.073588,7.7389624 h 10.343976 10.343973 l -0.09391,0.3553603 c -0.05165,0.1954485 -0.283879,1.0838498 -0.516062,1.9742253 l -0.422156,1.618864 h -9.288425 -9.288426 z"
     id="path13" /><path
     style="fill:#ffffff;stroke:none;stroke-width:1.71457;stroke-linecap:round;stroke-dasharray:none"
     d="m 15.319987,126.99316 c -4.082698,-0.0538 -7.4438995,-0.1138 -7.4693373,-0.13337 -0.025437,-0.0196 -0.3985665,-0.36512 -0.8291746,-0.7679 L 6.2385513,125.35955 V 67.354573 9.3495966 l 0.925363,-0.8016558 0.9253633,-0.8016558 9.1316244,-0.01116 9.131625,-0.01116 0.771456,2.889867 c 0.852615,3.193878 1.393955,4.56696 1.983296,5.030536 0.379336,0.298385 0.740137,0.307371 12.341765,0.307371 h 11.951007 l 0.497195,-0.513299 c 0.619426,-0.639487 1.072999,-1.845644 1.945095,-5.17247 l 0.683133,-2.6059765 9.150757,0.043238 9.150761,0.043238 0.91585,0.8254215 0.91585,0.8254212 0.01011,57.9686448 0.01011,57.968643 -0.829175,0.8133 -0.829175,0.81331 -26.138742,0.0649 c -14.376305,0.0357 -29.479127,0.0209 -33.561825,-0.0329 z m 36.542533,-2.45551 c 0.545767,-0.59209 0.651868,-0.81399 0.651868,-1.36332 0,-0.73654 -0.429933,-1.55144 -1.023822,-1.94057 -0.344135,-0.22548 -1.458621,-0.25325 -10.165842,-0.25325 h -9.779336 l -0.562237,0.62233 c -0.94407,1.04498 -0.927137,1.95029 0.05745,3.07167 l 0.500753,0.57033 h 9.83465 9.83465 z m -4.618709,-11.64843 c 0.271785,-0.14726 0.556074,-0.39474 0.631751,-0.54997 0.07568,-0.15523 0.158093,-5.23951 0.183152,-11.29841 l 0.04556,-11.016176 8.956906,-0.0029 8.956905,-0.0029 0.5133,-0.618284 0.513297,-0.618283 V 84.632569 80.482733 L 66.459848,79.883806 65.87501,79.28488 h -8.891442 -8.891445 v -2.605977 -2.605979 l 1.06608,-0.01498 c 0.586346,-0.0082 4.584153,-0.06387 8.884013,-0.123629 5.945177,-0.08262 7.906261,-0.15775 8.186664,-0.31361 0.727977,-0.404649 0.815803,-0.968532 0.815803,-5.23774 v -3.962786 l -0.485884,-0.604615 -0.485883,-0.604618 -6.53125,-0.05941 C 55.949478,63.118861 52.961287,63.042995 52.90124,62.98295 52.841193,62.9229 55.794956,56.811626 59.465161,49.402334 71.736296,24.629763 71.503156,25.14556 70.930121,24.037432 c -0.463759,-0.896811 -0.453361,-0.895386 -6.916148,-0.94767 -6.295104,-0.05093 -7.023391,0.012 -7.428394,0.641877 -0.210145,0.326824 -6.295647,14.822223 -12.216271,29.098624 -1.36893,3.300905 -2.535457,6.056329 -2.592281,6.123162 -0.05682,0.06683 -0.41379,-0.643887 -0.793263,-1.57938 C 39.951809,54.830008 38.068746,50.618934 34.467243,42.8012 27.545936,27.777221 25.568559,23.704424 25.003419,23.308584 c -0.309769,-0.21697 -1.142295,-0.24952 -6.362392,-0.248754 -3.63154,5.29e-4 -6.237446,0.06516 -6.591447,0.163482 -0.695003,0.193025 -1.230826,0.868635 -1.230826,1.551927 0,1.073639 0.797815,2.718881 11.629758,23.982711 3.957181,7.768206 7.151884,14.167001 7.099343,14.219542 -0.05254,0.05254 -2.99429,0.136289 -6.537218,0.186105 -7.218768,0.1015 -7.117046,0.08466 -7.458988,1.234988 -0.115574,0.388802 -0.158599,1.932945 -0.124985,4.485613 0.07051,5.354437 -0.316185,5.030637 6.008348,5.031114 2.369886,1.77e-4 6.174527,0.04712 8.454756,0.104314 l 4.145873,0.103992 v 2.580632 2.58063 l -7.620509,0.0085 c -4.19128,0.0047 -8.173269,0.06651 -8.848864,0.137382 -1.417023,0.148662 -1.767753,0.380426 -2.02798,1.340107 -0.262437,0.967838 -0.230435,7.270676 0.04096,8.067117 0.386942,1.135528 0.100333,1.10164 9.783933,1.156833 l 8.621754,0.04914 0.10432,5.228079 c 0.05738,2.875444 0.107418,7.579632 0.111202,10.453742 0.0038,2.87411 0.06671,5.53536 0.139838,5.91389 0.174876,0.90519 0.617667,1.32339 1.547883,1.46192 0.414391,0.0617 3.027747,0.0994 5.807454,0.0838 4.416158,-0.0248 5.116383,-0.0622 5.548178,-0.29616 z"
     id="path14" /><path
     style="fill:#ffffff;stroke:none;stroke-width:1.21239;stroke-linecap:round;stroke-dasharray:none"
     d="m 81.358178,77.728608 v -4.020444 h 3.294531 3.294531 v 4.020444 4.020445 h -3.294531 -3.294531 z"
     id="path15" /><path
     style="fill:#ffffff;stroke:none;stroke-width:1.21239;stroke-linecap:round;stroke-dasharray:none"
     d="m 81.358178,88.008581 v -2.004724 l 4.830118,-0.03342 c 5.31423,-0.03677 4.991343,0.0066 5.851342,-0.786109 L 92.52608,84.735942 V 77.728608 70.721277 L 92.039638,70.272891 C 91.179639,69.48017 91.502526,69.523548 86.188296,69.486779 l -4.830118,-0.03342 v -3.065675 -3.065671 h 24.363832 24.36383 l -0.0797,12.455911 -0.0797,12.455912 -0.85076,0.815676 -0.85076,0.815679 -8.77547,0.07398 c -4.82651,0.04069 -15.37152,0.07401 -23.433349,0.07406 l -14.657873,8e-5 z m 42.814632,-2.121384 c 0.45971,-0.106656 1.10272,-0.646528 1.36395,-1.145183 0.4158,-0.793676 0.0163,-2.04575 -0.81821,-2.564294 -0.39468,-0.24525 -0.56337,-0.265038 -2.82088,-0.330935 -2.95522,-0.08626 -7.49369,-0.0031 -8.09673,0.148325 -0.57429,0.144224 -1.23406,0.827752 -1.40239,1.452885 -0.2722,1.010881 0.45684,2.188099 1.51173,2.441089 0.49248,0.118107 9.75268,0.116406 10.26253,-0.0019 z m 0.70043,-6.511322 c 0.71296,-0.746247 0.82152,-0.963917 0.82152,-1.647267 0,-0.68335 -0.10856,-0.901017 -0.82152,-1.647264 l -0.45346,-0.474636 -10.89337,5.8e-5 -10.89338,6.4e-5 -0.54701,0.530413 c -0.59287,0.574878 -0.84898,1.054939 -0.84898,1.591365 0,0.53643 0.25611,1.016487 0.84898,1.591366 l 0.54701,0.530415 10.89338,6.1e-5 10.89337,6.1e-5 z m -0.21214,-5.974829 c 0.63057,-0.480221 1.03366,-1.199301 1.03366,-1.84399 0,-0.66594 -0.10669,-0.884504 -0.76255,-1.562221 l -0.51337,-0.530474 h -10.95341 -10.95341 l -0.46468,0.474636 c -1.07564,1.098682 -1.0582,2.104329 0.0562,3.238691 l 0.52113,0.530476 h 10.81659 10.8166 z"
     id="path16" /><path
     style="fill:#ffffff;stroke:none;stroke-width:1.21239;stroke-linecap:round;stroke-dasharray:none"
     d="m 81.358178,57.067986 v -2.010222 h 24.346032 24.34603 v 2.010222 2.010225 H 105.70421 81.358178 Z"
     id="path17" /><path
     style="fill:#ffffff;stroke:none;stroke-width:1.21239;stroke-linecap:round;stroke-dasharray:none"
     d="m 81.358178,48.823185 v -1.990772 l 13.596922,0.03656 c 7.47831,0.02011 18.00901,0.05277 23.40157,0.07257 l 9.80464,0.036 0.67829,0.66182 c 0.74927,0.731087 1.04452,1.272956 1.15167,2.113646 0.0391,0.307117 0.0945,0.67147 0.12303,0.809672 l 0.0519,0.251278 h -24.404 -24.403992 z"
     id="path18" /></svg>
