<?xml version="1.0" encoding="UTF-8" standalone="no"?>
<!-- Created with Inkscape (http://www.inkscape.org/) -->

<svg
   width="512"
   height="512"
   viewBox="0 0 135.46667 135.46667"
   version="1.1"
   id="svg1"
   xml:space="preserve"
   xmlns="http://www.w3.org/2000/svg"
   xmlns:svg="http://www.w3.org/2000/svg"><defs
     id="defs1" /><path
     style="fill:#000000;stroke:none;stroke-width:2.57022;stroke-dasharray:none"
     d="m 41.48861,123.01105 c -0.252762,-0.11967 -0.578496,-0.41493 -0.723843,-0.65621 -0.24749,-0.41086 -0.266837,-1.05683 -0.304696,-10.17253 l -0.04044,-9.73383 h -7.81834 c -8.685374,0 -8.349849,0.0402 -8.768887,-1.05099 -0.30969,-0.80648 -0.278568,-6.669956 0.03928,-7.398747 0.447296,-1.025624 0.233915,-1.001346 8.804142,-1.001346 h 7.752286 V 90.55586 88.11434 l -7.491749,-8.98e-4 c -4.512192,-5.36e-4 -7.697548,-0.06303 -8.009188,-0.157311 -0.28459,-0.08599 -0.675469,-0.339279 -0.868608,-0.562794 -0.346333,-0.400787 -0.351809,-0.45392 -0.397418,-3.851959 -0.0401,-2.98905 -0.01364,-3.52052 0.200476,-4.011307 0.448756,-1.02894 0.418224,-1.024399 6.87532,-1.024399 4.905425,0 5.801332,-0.03436 5.736127,-0.219095 -0.0425,-0.120529 -3.868716,-7.651821 -8.502713,-16.736288 C 18.908534,43.785527 19.171057,44.370597 19.829058,43.4061 c 0.548493,-0.804009 0.59471,-0.809794 6.484156,-0.811641 5.11782,-0.0017 5.53209,0.01882 5.944514,0.292414 0.372811,0.247362 1.401421,2.357892 6.467584,13.270317 3.313351,7.136894 6.452462,14.039411 6.975809,15.338939 0.523356,1.299527 1.075222,2.646317 1.226384,2.992848 0.274005,0.628171 0.275259,0.628879 0.417598,0.236277 0.164027,-0.452436 12.153173,-29.186573 12.800687,-30.679103 0.666315,-1.53589 0.362198,-1.472673 6.834544,-1.420575 5.320497,0.04282 5.569983,0.05802 5.880765,0.359758 0.551777,0.535597 0.737471,1.206471 0.533308,1.926783 -0.09698,0.342162 -3.806723,7.924412 -8.243885,16.849462 -4.437162,8.925032 -8.108577,16.3436 -8.158697,16.485714 -0.08358,0.236932 0.40287,0.258396 5.855023,0.258396 h 5.94616 l 0.511509,0.556561 0.511519,0.55656 v 3.553985 c 0,2.990155 -0.03714,3.622383 -0.234016,3.985043 -0.491877,0.90601 -0.186911,0.873961 -8.7778,0.922208 l -7.92605,0.04455 v 2.436391 2.436409 h 7.957414 7.957424 l 0.511509,0.556561 0.511519,0.55656 v 3.633418 3.633435 l -0.492208,0.53556 -0.492217,0.53555 H 60.854886 52.87817 v 9.70247 c 0,10.77058 0.03821,10.33752 -0.956516,10.8511 -0.650171,0.33571 -9.726227,0.34353 -10.433049,0.009 z"
     id="path8" /><path
     id="path18"
     style="fill:#000000"
     d="m 46.208751,0.24344922 c -11.98816,0 -23.976085,0.1038344 -24.432101,0.3116089 -0.354602,0.161568 -0.777393,0.58435878 -0.938961,0.93896078 -0.204859,0.449607 -0.293522,5.4451807 -0.293522,16.5070031 V 33.86362 h -3.40031 c -3.730988,0 -4.448429,0.243882 -5.703528,1.937867 l -0.553454,0.746724 v 39.20536 39.204849 l 0.609782,2.23138 c 2.577275,9.432 10.124262,16.4105 19.602938,18.12655 3.040038,0.55041 26.867794,0.56384 30.003854,0.0171 9.647922,-1.68245 17.211599,-8.60722 19.817396,-18.1436 l 0.609785,-2.23138 V 75.753571 36.548211 L 80.977172,35.801487 C 79.722073,34.107502 79.004632,33.86362 75.273644,33.86362 H 71.873335 V 18.001022 C 71.873335,6.9391996 71.78415,1.9436259 71.579296,1.4940189 71.417728,1.1394169 70.995454,0.71662612 70.640852,0.55505812 70.184836,0.34728362 58.19691,0.24344922 46.208751,0.24344922 Z M 24.7775,4.4948694 h 21.431251 21.43125 V 19.179245 33.86362 H 46.208751 24.7775 V 19.179245 Z M 55.350829,21.839548 c 0.02786,0.0036 0.02997,0.0039 0.05891,0.0078 0.0065,8e-4 -0.01159,-0.0071 -0.01809,-0.0072 -0.0136,-3.54e-4 -0.02722,-2.54e-4 -0.04082,-5.17e-4 z M 14.977581,38.096954 h 31.23117 31.231169 l -0.07131,38.43073 -0.07131,38.430736 -0.621667,1.85208 c -1.233903,3.67573 -2.599499,5.88876 -5.320089,8.62221 -2.165631,2.17586 -2.882603,2.71219 -5.038453,3.76876 -1.382448,0.67753 -3.227916,1.43603 -4.101041,1.68569 -1.394902,0.39886 -3.25668,0.46123 -15.345834,0.51263 -16.252673,0.0691 -16.568817,0.0326 -21.380608,-2.4691 -1.379455,-0.7172 -2.597002,-1.68289 -4.427636,-3.51193 -2.722194,-2.71983 -4.081987,-4.92002 -5.320089,-8.60826 l -0.621668,-1.85208 -0.07131,-38.430736 z" /><rect
     style="fill:#000000;stroke:none;stroke-width:2.87232;stroke-linecap:round;stroke-dasharray:none"
     id="rect22"
     width="4.5802026"
     height="20.374002"
     x="32.633194"
     y="11.425732" /><rect
     style="fill:#000000;stroke:none;stroke-width:2.87232;stroke-linecap:round;stroke-dasharray:none"
     id="rect22-1"
     width="4.5802026"
     height="20.374002"
     x="54.158226"
     y="11.522084" /><path
     style="fill:#000000"
     d="m 99.703202,133.57317 c -0.49049,-0.16836 -1.56759,-0.69498 -2.39357,-1.17025 -2.27474,-1.30893 -2.69545,-1.42065 -5.7698,-1.53228 -2.20575,-0.0801 -2.7251,-0.14071 -3.37583,-0.39408 -1.769513,-0.689 -2.783197,-1.67801 -4.114438,-4.01428 -1.168414,-2.05052 -1.957811,-2.84009 -4.09984,-4.10075 -2.479352,-1.45919 -3.283477,-2.28974 -4.018838,-4.15091 -0.236065,-0.59747 -0.300252,-1.162 -0.378212,-3.32639 -0.111138,-3.0855 -0.215433,-3.47376 -1.566521,-5.83169 -1.111216,-1.9393 -1.448439,-2.9613 -1.448439,-4.38967 0,-1.42836 0.337223,-2.45036 1.448439,-4.38966 1.351088,-2.357926 1.455383,-2.746186 1.566521,-5.831696 0.07796,-2.16439 0.142147,-2.72891 0.378212,-3.32638 0.733314,-1.85599 1.661122,-2.81451 4.025382,-4.15862 2.041821,-1.160806 2.937761,-2.056746 4.098564,-4.098566 1.344114,-2.36426 2.302632,-3.292068 4.15862,-4.025382 0.59747,-0.236066 1.162,-0.300253 3.32638,-0.378212 3.08551,-0.111138 3.47377,-0.215434 5.8317,-1.566522 1.9393,-1.111215 2.961298,-1.448439 4.389668,-1.448439 1.42837,0 2.45036,0.337224 4.38966,1.448439 2.35726,1.350704 2.74626,1.455248 5.8317,1.567273 2.20575,0.08009 2.7251,0.140714 3.37583,0.394089 1.77143,0.689743 2.7853,1.679827 4.11444,4.017913 1.16347,2.046658 2.05447,2.933535 4.10903,4.090007 2.31392,1.30247 3.27531,2.29943 4.00965,4.15802 0.23606,0.59747 0.30025,1.16199 0.37821,3.32638 0.11114,3.08551 0.21543,3.47377 1.56652,5.831696 1.11122,1.9393 1.44844,2.9613 1.44844,4.38966 0,1.42837 -0.33722,2.45037 -1.44844,4.38967 -1.3507,2.35726 -1.45525,2.74625 -1.56727,5.83169 -0.0801,2.20576 -0.14071,2.7251 -0.39409,3.37583 -0.69131,1.77545 -1.72132,2.82788 -4.04488,4.13294 -1.99384,1.11986 -2.89124,2.0196 -4.05717,4.06777 -1.33037,2.33702 -2.34413,3.32648 -4.11444,4.01579 -0.65073,0.25337 -1.17008,0.314 -3.37583,0.39408 -3.08544,0.11203 -3.47444,0.21657 -5.8317,1.56728 -0.86739,0.49701 -1.96945,1.02623 -2.44902,1.17605 -1.21247,0.37876 -2.8242,0.36232 -3.998638,-0.0408 z m -0.0226,-16.22028 c 0.382018,-0.20792 0.815868,-0.50885 0.964128,-0.66875 0.3699,-0.39894 13.99399,-21.556766 14.15692,-21.985296 0.33941,-0.89274 0.0472,-1.9302 -0.73772,-2.61939 -0.91029,-0.79924 -2.10926,-0.76979 -2.97146,0.073 -0.28441,0.278 -3.37296,4.95073 -6.86345,10.383816 -3.49049,5.4331 -6.371668,9.90686 -6.402628,9.94169 -0.031,0.0348 -1.36548,-1.27553 -2.96561,-2.91191 -2.52674,-2.58398 -2.97699,-2.98674 -3.42383,-3.06269 -0.77165,-0.13115 -1.4238,0.0438 -1.97846,0.53082 -0.83779,0.73559 -1.08881,1.77484 -0.6705,2.77599 0.23034,0.55127 6.48163,7.0671 7.16963,7.47303 1.12905,0.66615 2.57726,0.69326 3.72298,0.0697 z"
     id="path22" /><path
     style="fill:#ffffff;stroke:none;stroke-width:2.42477;stroke-linecap:round;stroke-dasharray:none"
     d="m 96.490687,117.38893 c -0.612752,-0.27734 -3.650838,-3.25917 -6.543599,-6.42244 -1.476825,-1.61492 -1.573509,-2.4946 -0.402839,-3.66527 1.299576,-1.29958 1.579439,-1.17295 5.085403,2.30102 1.94074,1.92303 3.166526,2.98142 3.29822,2.84782 0.115273,-0.11695 2.938538,-4.43069 6.273918,-9.58609 3.33538,-5.155406 6.35968,-9.746369 6.72065,-10.20214 1.16761,-1.474224 2.8693,-1.268453 3.68253,0.445299 0.4761,1.003308 0.58482,0.789688 -4.23521,8.321531 -9.43058,14.73636 -9.77159,15.23205 -10.855227,15.77849 -1.128049,0.56884 -2.046677,0.62406 -3.023846,0.18178 z"
     id="path23" /><path
     style="fill:#ffffff;stroke:none;stroke-width:2.42477;stroke-linecap:round;stroke-dasharray:none"
     d="m 32.894189,131.09249 c -4.211762,-0.34799 -7.792679,-2.0516 -11.19096,-5.32405 -2.972055,-2.86201 -4.470191,-5.15959 -5.826029,-8.93493 L 15.281782,115.17556 15.142666,76.684893 15.003549,38.19423 h 31.222563 31.222565 l -0.16581,25.295302 c -0.159837,24.384448 -0.181152,25.316953 -0.591931,25.896579 -0.820782,1.158163 -1.069144,2.160518 -1.281192,5.17072 l -0.213762,3.034586 -1.284724,2.520813 c -1.185391,2.32591 -1.291899,2.65896 -1.377585,4.30767 l -0.09286,1.78686 1.380485,2.79082 1.380487,2.7908 0.194982,2.75138 c 0.107241,1.51326 0.259292,3.09417 0.337889,3.51314 0.272261,1.45127 -2.035223,4.94291 -5.323703,8.05573 -1.968489,1.86334 -3.570451,2.84057 -6.7539,4.12005 -1.665173,0.66926 -2.045459,0.73046 -5.583952,0.89858 -4.795636,0.22786 -22.292757,0.2037 -25.178909,-0.0348 z m 19.516537,-8.18904 c 0.484931,-0.48568 0.598636,-2.62289 0.617969,-11.61529 l 0.01884,-8.7668 h 8.025683 8.025678 l 0.461928,-0.64872 c 0.420105,-0.58998 0.461925,-0.96803 0.461925,-4.175742 0,-3.523319 -5.29e-4,-3.527687 -0.600183,-4.153485 l -0.600184,-0.626456 h -7.887425 -7.887422 v -2.32378 -2.323775 l 7.923141,-0.07732 c 7.687061,-0.07501 7.93705,-0.09123 8.389951,-0.544264 0.423902,-0.424021 0.478964,-0.809699 0.599006,-4.19553 l 0.132196,-3.728582 -0.634725,-0.662509 -0.634722,-0.662509 H 63.05686 c -3.25763,0 -5.765522,-0.08724 -5.765522,-0.200549 0,-0.110304 3.668657,-7.639711 8.152569,-16.732017 4.483915,-9.092306 8.152569,-16.736688 8.152569,-16.987513 0,-0.79407 -0.503036,-1.599126 -1.099243,-1.759217 -0.316767,-0.08506 -3.010215,-0.15803 -5.985439,-0.162163 -5.121963,-0.0071 -5.432451,0.01622 -5.84132,0.439203 -0.38037,0.393488 -4.024945,8.950632 -11.082705,26.021216 -1.193575,2.886903 -2.250327,5.334415 -2.348334,5.438915 -0.09801,0.104503 -0.252169,-0.04626 -0.342587,-0.335036 -0.681837,-2.177617 -12.454671,-27.79711 -13.918076,-30.287866 -0.46177,-0.785942 -0.795444,-1.084943 -1.379712,-1.236343 -0.423855,-0.109831 -3.098218,-0.165473 -5.943033,-0.123647 -7.572929,0.111339 -7.47164,-0.150376 -3.237756,8.365829 1.580946,3.179977 5.350114,10.641404 8.375929,16.580951 3.025815,5.939546 5.501479,10.83338 5.501479,10.875185 0,0.0418 -2.660129,0.107222 -5.911398,0.145367 -5.317771,0.0624 -5.951411,0.109358 -6.309865,0.46763 -0.344574,0.3444 -0.40796,0.906886 -0.468655,4.158827 -0.06955,3.726505 -0.06518,3.766388 0.482963,4.403934 l 0.55315,0.643369 7.837126,0.06903 7.837126,0.06903 v 2.321423 2.321425 l -7.921515,0.06648 c -7.254383,0.06089 -7.95508,0.100076 -8.320088,0.465339 -0.352025,0.352271 -0.398574,0.853501 -0.398574,4.291666 0,3.438304 0.04654,3.939384 0.398607,4.291664 0.365102,0.36533 1.063062,0.40423 8.303585,0.46279 l 7.90498,0.0639 0.07234,9.83919 0.07234,9.83918 0.639828,0.55017 0.639824,0.55017 5.212585,-0.0671 c 3.789193,-0.0488 5.288526,-0.1432 5.490679,-0.34567 z"
     id="path24" /><path
     style="fill:#ffffff;stroke:none;stroke-width:2.42477;stroke-linecap:round;stroke-dasharray:none"
     d="M 24.904425,19.208794 V 4.6905194 H 46.235121 67.565817 V 19.208794 33.727068 H 46.235121 24.904425 Z m 12.508051,2.456939 V 11.391262 H 34.955539 32.4986 v 10.274471 10.274471 h 2.456939 2.456937 z m 21.442376,0 V 11.391262 h -2.456939 -2.45694 v 10.274471 10.274471 h 2.45694 2.456939 z"
     id="path25" /></svg>
