<?xml version="1.0" encoding="UTF-8" standalone="no"?>
<!-- Created with Inkscape (http://www.inkscape.org/) -->

<svg
   width="288.83759"
   height="499.59494"
   viewBox="0 0 288.83759 499.59494"
   version="1.1"
   id="svg1"
   xml:space="preserve"
   xmlns="http://www.w3.org/2000/svg"
   xmlns:svg="http://www.w3.org/2000/svg"><defs
     id="defs1" /><path
     style="fill:#000000;stroke-width:0.556216"
     d="m 42.567686,499.2348 c -3.52549,-0.59709 -5.90387,-1.98987 -7.96386,-4.66361 -3.45272,-4.48144 -3.9474,-7.88548 -2.04226,-14.05357 1.58388,-5.12806 4.59072,-8.29074 11.18712,-11.76699 12.77677,-6.73324 14.39304,-11.04319 14.39304,-38.38081 0,-20.80642 0.70916,-26.19844 5.26773,-40.05228 2.32564,-7.06777 2.51845,-8.08954 2.50843,-13.29338 -0.005,-3.10042 -0.37891,-8.891 -0.82876,-12.86792 -1.27779,-11.2964 -1.07626,-23.36686 0.56651,-33.92916 1.70179,-10.94177 4.21749,-22.86989 6.68811,-31.7114 6.88816,-24.65044 9.42775,-48.87196 7.20157,-68.68547 -0.73771,-6.56578 -3.43285,-22.16265 -3.92791,-22.73091 -0.0979,-0.1123 -1.54476,2.64096 -3.2154,6.11837 -3.51844,7.32355 -5.18325,12.47253 -7.85399,24.29087 -2.42924,10.7497 -4.04901,13.97668 -9.84291,19.60954 -5.25306,5.10708 -6.31403,7.43588 -5.3774,11.80326 0.33863,1.57895 1.06429,3.91739 1.61259,5.19653 0.54831,1.27914 1.67539,5.03538 2.50465,8.34722 1.27767,5.10283 1.45974,6.76186 1.19334,10.87385 -0.31845,4.91527 -1.64372,9.02821 -3.60955,11.20205 -2.58902,2.863 -7.9853,4.14384 -12.14351,2.88236 -1.49271,-0.45285 -2.83915,-0.82546 -2.99212,-0.82802 -0.15297,-0.003 -0.27811,1.72583 -0.27811,3.84087 0,3.37579 -0.20381,4.13472 -1.66864,6.21333 -0.91776,1.30232 -2.79498,2.97182 -4.17162,3.71001 -3.40162,1.82404 -9.05676,1.55996 -13.53729,-0.63216 -5.82305,-2.84895 -12.2306505,-11.38466 -14.4564825,-19.25781 -3.170104,-11.21321 -2.06743594,-24.72187 2.982836,-36.54236 2.058137,-4.81722 2.206105,-5.52117 2.206105,-10.49546 0,-13.3987 5.5677315,-35.68259 12.0117915,-48.07503 1.76344,-3.39122 1.9165,-4.13106 2.46858,-11.93172 0.92661,-13.09266 3.10324,-22.13576 7.74525,-32.17869 2.39642,-5.1846 3.21089,-7.90447 4.19663,-14.01409 1.73729,-10.76803 4.71368,-16.94353 11.40041,-23.65391 4.26187,-4.27695 11.77748,-9.67462 16.18611,-11.62476 7.04557,-3.1166 32.66985,-9.90264 42.215584,-11.17991 2.5998,-0.34787 4.79655,-0.70214 4.88168,-0.787267 0.0851,-0.0851 -0.75461,-1.50388 -1.86608,-3.152804 C 101.4299,89.742316 97.307156,78.630178 95.708046,68.52774 94.458786,60.635392 94.427236,44.96381 95.647146,38.289731 97.431166,28.529721 101.87335,19.794701 108.4195,13.174408 117.27309,4.2205267 128.88544,-0.03662033 144.35508,2.3717643e-4 158.33639,0.03359817 168.71154,3.1994893 176.8567,9.9180071 c 7.05211,5.8169129 11.29879,12.6116569 14.15774,22.6525659 2.74092,9.62635 3.0285,12.247089 2.6916,24.528935 -0.27494,10.023234 -0.47672,11.815103 -1.99651,17.729806 -1.94158,7.556202 -7.57461,19.737443 -10.91115,23.595009 l -2.04463,2.363917 1.57294,0.0105 c 6.08319,0.0397 36.3695,7.08692 44.58973,10.37552 7.54482,3.01841 15.62631,8.9455 21.77057,15.96688 5.29005,6.04524 7.80539,12.00711 8.94597,21.20377 0.59914,4.83102 1.14705,6.58574 4.1682,13.34917 5.63195,12.60814 6.18836,15.1113 7.45188,33.52375 l 0.54472,7.93786 3.57126,7.91429 c 1.9642,4.35286 4.22882,9.75378 5.03248,12.00209 2.49604,6.98275 4.21534,16.99954 4.78027,27.85031 0.42846,8.22948 0.70277,10.24117 1.60849,11.79648 2.43397,4.17955 5.24329,15.1075 5.91566,23.01125 1.30809,15.37689 -7.28805,31.35171 -18.74273,34.83096 -9.88468,3.00238 -17.14609,-2.01001 -17.14609,-11.83556 v -2.59784 l -2.66847,1.1274 c -2.37963,1.00536 -3.00808,1.05688 -5.80596,0.47606 -4.16675,-0.86503 -6.35368,-2.45869 -8.41884,-6.13503 -1.514,-2.69517 -1.73565,-3.66663 -1.92772,-8.44856 -0.25032,-6.23249 0.66411,-11.17006 3.58842,-19.37607 1.95973,-5.4992 2.32886,-8.67701 1.248,-10.7437 -0.34947,-0.6682 -2.69874,-3.2173 -5.22059,-5.66464 -5.88893,-5.71491 -7.4359,-8.79161 -10.28577,-20.45687 -3.88448,-15.90013 -4.46293,-17.8187 -7.11628,-23.6034 -1.43329,-3.12477 -2.73113,-5.68976 -2.88409,-5.69999 -0.39964,-0.0268 -3.17585,14.69764 -4.24751,22.52767 -1.19168,8.70711 -1.16692,25.11383 0.0499,33.07285 1.44272,9.43637 4.6868,25.84018 6.70993,33.92914 1.03294,4.1299 2.90094,12.26454 4.15111,18.07701 5.06203,23.5348 5.39809,30.94552 2.73094,60.22277 l -0.57119,6.26989 1.97166,5.54435 c 4.90527,13.79363 5.90221,21.02102 6.40552,46.43686 0.36278,18.31994 0.45857,19.65296 1.6247,22.61309 2.22146,5.63903 6.25372,9.58854 13.62114,13.34158 7.13491,3.63462 10.94581,9.31208 11.04998,16.46221 0.066,4.52989 -0.85442,6.91914 -3.74392,9.71846 -3.56432,3.45307 -6.16931,3.77618 -30.44336,3.77618 -20.76612,0 -25.67827,-0.3446 -28.93755,-2.03003 -2.73356,-1.4136 -5.99203,-4.75116 -7.48668,-7.66844 -1.35234,-2.6395 -1.46824,-3.49752 -1.84556,-13.66257 -0.24028,-6.47367 -0.7805,-12.64006 -1.34002,-15.29592 -1.26374,-5.99874 -5.27308,-17.89184 -8.30816,-24.64491 -4.64424,-10.33347 -5.36792,-13.73319 -5.99627,-28.16927 -0.6483,-14.8945 -1.02927,-16.6782 -5.92619,-27.74622 -1.87281,-4.2329 -4.76113,-11.86695 -6.41853,-16.96456 -2.66405,-8.19379 -4.28182,-13.76912 -10.19428,-35.13242 -0.8043,-2.90623 -1.62916,-5.48152 -1.83296,-5.72289 -0.2038,-0.24136 -1.07055,2.2616 -1.92607,5.56215 -4.39987,16.97406 -14.42696,47.93104 -17.52764,54.11363 -0.84385,1.68255 -2.21169,5.06157 -3.03969,7.50891 -1.38909,4.1058 -1.54149,5.45999 -1.9718,17.52079 -0.57395,16.08675 -0.50748,15.81729 -9.16188,37.13386 -1.39871,3.44515 -3.31547,9.20198 -4.25946,12.79295 -1.56118,5.93884 -1.74248,7.53468 -2.00569,17.65336 -0.23573,9.062 -0.48586,11.65461 -1.34916,13.98485 -1.19401,3.22286 -4.914014,7.07455 -8.871514,9.18553 l -2.44291,1.3031 -23.91728,0.0769 c -13.15449,0.0422 -24.54299,-0.0291 -25.3078,-0.15865 z m 43.17598,-14.1546 c 1.92372,-0.33501 3.81871,-0.99592 4.21109,-1.4687 0.49902,-0.60129 0.82819,-4.3046 1.09532,-12.32292 0.38468,-11.54562 0.90023,-15.00424 3.26554,-21.90658 1.73758,-5.07053 5.00831,-13.22254 6.488214,-16.17131 0.74454,-1.48354 1.23499,-2.81605 1.08989,-2.96114 -0.1451,-0.14512 -0.9754,0.0962 -1.84509,0.53616 -0.869714,0.43999 -2.875404,1.22282 -4.457094,1.73964 -3.99388,1.30498 -4.51632,2.34578 -5.24717,10.45328 -0.98008,10.87235 -1.40461,12.56551 -3.46558,13.8222 -2.45876,1.49923 -5.49952,1.39653 -7.41422,-0.25042 -1.90142,-1.63552 -1.94423,-2.85599 -0.51529,-14.68455 0.56502,-4.67706 0.93267,-8.56708 0.81702,-8.64448 -3.12253,-2.08951 -5.43471,-3.3737 -6.75726,-3.75301 l -1.65415,-0.47439 0.3378,2.11241 c 0.18579,1.16183 0.10174,6.97253 -0.18677,12.91268 -0.71609,14.74404 -2.28209,20.60679 -7.08684,26.53144 -2.61421,3.22353 -8.60829,7.96362 -12.67383,10.02239 -1.83551,0.92947 -4.17921,2.3209 -5.20825,3.09202 l -1.87095,1.40203 2.70527,0.21093 c 6.59879,0.51446 35.1269,0.36748 38.37235,-0.19768 z m 156.505364,0.14535 2.50296,-0.38127 -3.53944,-2.21951 c -17.17521,-10.7702 -20.03652,-13.9034 -22.89161,-25.06665 -0.86892,-3.3975 -1.20393,-7.07088 -1.47916,-16.21941 -0.40544,-13.4764 -0.15386,-12.98001 -5.07803,-10.01947 l -3.00669,1.8077 0.35467,5.28404 c 0.19508,2.90623 0.62548,7.21967 0.95649,9.58543 0.33097,2.36576 0.43827,4.95286 0.23843,5.7491 -1.0425,4.15364 -5.97933,5.51976 -9.28227,2.56858 -1.6745,-1.49616 -1.77132,-1.8177 -2.219,-7.36984 -0.25745,-3.19299 -0.74921,-7.85894 -1.0928,-10.36877 l -0.62468,-4.56333 -2.58818,-0.94283 c -1.4235,-0.51857 -3.65196,-1.39198 -4.9521,-1.94092 -1.30016,-0.54896 -2.36392,-0.88472 -2.36392,-0.74616 0,0.13857 1.08818,2.81519 2.41817,5.94805 2.51295,5.91931 5.05401,13.63358 7.00635,21.27013 0.86353,3.37764 1.19341,6.79491 1.36923,14.18349 0.1274,5.35358 0.46492,10.34502 0.75006,11.09212 0.9521,2.49456 2.89478,2.72855 22.66344,2.72973 10.0953,5.5e-4 19.48144,-0.17051 20.85808,-0.38021 z M 95.819436,419.39423 c 1.71024,0.24888 6.412034,-2.41179 9.674214,-5.47447 l 2.70746,-2.54191 v -3.91801 c 0,-3.22935 -0.19822,-4.0974 -1.12772,-4.9386 -1.10002,-0.9955 -1.22215,-0.9749 -4.96939,0.83789 -6.762084,3.27128 -8.209554,5.42923 -8.700784,12.97147 -0.24811,3.80942 -0.17624,4.42163 0.43682,3.72098 0.40359,-0.46124 1.29432,-0.75705 1.9794,-0.65735 z m 99.055804,-3.77946 c -0.45375,-4.69377 -1.68268,-7.79532 -3.91324,-9.8762 -1.1973,-1.11697 -7.47901,-4.03779 -8.68389,-4.03779 -0.93614,0 -1.76899,2.88378 -1.76899,6.12518 0,2.91174 0.20597,3.52636 1.78417,5.32382 2.30002,2.61957 5.50304,4.63026 9.34012,5.86326 1.68257,0.54065 3.19689,0.99647 3.36517,1.01293 0.1683,0.0165 0.11279,-1.96858 -0.12334,-4.4112 z M 81.853306,413.56336 c 0.35369,-2.50017 0.75399,-4.75284 0.88957,-5.00594 0.13556,-0.2531 -1.69738,-2.14791 -4.07323,-4.21072 l -4.31971,-3.75054 -1.42952,3.1225 c -2.40354,5.25001 -1.62264,9.09477 2.57738,12.68984 1.78813,1.53057 2.78228,1.98934 4.04193,1.86522 1.64631,-0.16221 1.67985,-0.2305 2.31358,-4.71036 z m 128.867054,4.20091 c 3.42932,-1.7584 6.49898,-6.12661 6.49898,-9.24824 0,-1.42981 -2.67296,-7.92769 -3.26112,-7.92769 -0.18047,0 -2.11151,1.77147 -4.2912,3.93662 l -3.96307,3.93662 0.44941,2.3208 c 0.2472,1.27644 0.46035,3.50972 0.47366,4.96283 0.0225,2.45911 0.12302,2.64202 1.45133,2.64202 0.7849,0 1.97381,-0.28033 2.64201,-0.62296 z M 92.232076,393.27728 c 1.28797,-0.65598 3.18122,-1.83185 4.20725,-2.61305 1.81529,-1.38216 1.85965,-1.5121 1.64839,-4.82956 -0.23172,-3.63906 -1.10669,-5.22592 -5.65754,-10.2606 l -2.14367,-2.37158 -3.59988,3.542 c -1.97992,1.94809 -4.33009,4.45198 -5.22257,5.56421 l -1.6227,2.02223 1.47029,2.7056 c 2.01458,3.70722 5.66477,7.43344 7.2818,7.43344 0.71327,0 2.35066,-0.53672 3.63863,-1.19269 z m 110.875294,-0.39026 c 1.30727,-0.94698 2.61179,-2.5671 3.247,-4.03256 0.58399,-1.34729 1.42633,-2.8846 1.87186,-3.41624 0.73642,-0.87874 0.33496,-1.46002 -4.41503,-6.39291 -2.8738,-2.98446 -5.27606,-5.52059 -5.33837,-5.63584 -0.20029,-0.37051 -4.13109,4.01573 -5.91249,6.59755 -1.35657,1.96612 -1.77219,3.22605 -1.94156,5.88596 -0.21396,3.3603 -0.20025,3.39631 1.92917,5.06768 4.98185,3.91024 7.24964,4.32395 10.55942,1.92636 z M 115.41303,373.89 c 2.89236,-5.75943 5.58806,-17.5658 5.57284,-24.40728 -0.0157,-7.03715 -6.8996,-23.74836 -14.57673,-35.38588 -1.61447,-2.44735 -3.59595,-5.69879 -4.4033,-7.22544 l -1.46787,-2.77572 -0.42121,5.55679 c -0.900174,11.87535 0.88498,49.41253 2.60524,54.78186 0.90017,2.80961 2.46818,5.79913 5.64802,10.76816 l 2.79756,4.37165 1.6339,-1.86869 c 0.89866,-1.02778 2.07385,-2.74474 2.61155,-3.81545 z m 68.40103,-4.94186 c 2.63,-5.20998 3.23544,-9.16863 4.13569,-27.04052 0.75753,-15.03832 0.59036,-35.2611 -0.2988,-36.15028 -0.17828,-0.17827 -1.06791,0.8743 -1.97697,2.33904 -0.90903,1.46475 -3.1868,5.0944 -5.06167,8.06591 -4.22742,6.70005 -7.65582,13.49748 -10.46029,20.73938 -2.147,5.54412 -2.15384,5.58741 -2.10793,13.34918 0.0685,11.58428 2.58283,20.69432 7.29886,26.44555 l 2.07319,2.52827 2.30311,-3.3636 c 1.26672,-1.84997 3.10939,-4.9608 4.09481,-6.91293 z m -97.708704,-11.2554 c 0.44944,-3.78472 1.23212,-63.17948 0.82738,-62.78533 -0.71357,0.6949 -5.54748,19.39107 -6.75906,26.14213 -2.30658,12.85251 -2.73134,18.40082 -2.43269,31.77681 0.15279,6.84325 0.46711,12.89173 0.6985,13.44102 0.36277,0.86124 0.89383,0.55495 3.85765,-2.22485 3.22675,-3.0264 3.45968,-3.4148 3.80822,-6.34978 z m 124.354104,2.70903 c 1.62234,-16.89624 0.1123,-31.10928 -5.77645,-54.37005 -1.35534,-5.35358 -2.71212,-10.48466 -3.0151,-11.40241 -0.53934,-1.63371 -0.43241,17.1131 0.29506,51.72803 l 0.29222,13.90538 3.43345,3.47635 c 1.88839,1.91199 3.58715,3.47635 3.77501,3.47635 0.18788,0 0.63598,-3.06615 0.99581,-6.81365 z m -79.19351,-33.37905 c 1.57364,-7.02004 4.16886,-15.95281 5.38861,-18.5477 3.22263,-6.85586 11.43677,-6.97683 14.77752,-0.21764 1.21771,2.46374 4.19456,11.83719 6.00404,18.90536 0.50833,1.98563 1.03684,3.79245 1.17448,4.01514 0.13763,0.22271 2.47109,-4.03002 5.18546,-9.45049 6.9346,-13.84808 14.52129,-25.01681 24.74556,-36.42912 4.66099,-5.20258 7.02101,-7.07731 8.90931,-7.07731 0.92154,0 0.86012,-1.97337 -0.30298,-9.73378 -0.2751,-1.83551 -0.50207,-4.2232 -0.50438,-5.30597 l -0.004,-1.9687 -4.60725,2.25573 c -2.534,1.24065 -6.59603,2.72457 -9.02675,3.29761 -5.22199,1.23109 -6.31328,2.19027 -9.72964,8.55177 -2.78289,5.18196 -7.61448,11.62527 -10.8587,14.48095 -5.49275,4.8349 -14.00167,7.30035 -21.49389,6.22787 -7.65475,-1.09575 -13.3715,-3.99295 -18.31857,-9.28368 -2.7891,-2.98284 -3.76778,-4.41997 -8.51496,-12.50348 -2.71088,-4.6161 -3.4663,-5.49681 -5.36728,-6.25742 -1.21656,-0.48688 -2.46541,-0.88522 -2.77501,-0.88522 -1.2034,0 -9.449764,-3.45844 -11.396654,-4.77963 -1.12956,-0.76654 -2.12603,-1.31878 -2.21436,-1.22718 -0.26379,0.27355 -1.37762,12.12993 -1.37762,14.66445 0,2.0204 0.18758,2.39315 1.35125,2.68521 1.52151,0.38188 11.065014,10.35636 15.334594,16.02712 5.4692,7.26403 14.53879,21.96145 18.18862,29.47498 2.03582,4.19094 3.88802,7.50461 4.11599,7.36372 0.22796,-0.14088 0.82063,-2.06806 1.31707,-4.28259 z M 272.53067,300.6949 c 1.40875,-2.89826 2.66631,-12.24854 2.38674,-17.74612 -0.25641,-5.0421 -1.10138,-8.05632 -4.57872,-16.33356 -1.01573,-2.41775 -1.64559,-5.24008 -1.9861,-8.89945 -0.27426,-2.94736 -0.74728,-7.11092 -1.05113,-9.25234 -0.30389,-2.14143 -0.82889,-6.52163 -1.16668,-9.73377 -0.7049,-6.70291 -2.48925,-14.04879 -4.98372,-20.51716 -1.5557,-4.03409 -2.77178,-6.05203 -2.77178,-4.59945 0,0.82402 -5.88076,4.53663 -7.18602,4.53663 -1.43171,0 -1.43827,-0.10752 0.19193,3.14691 3.0849,6.15849 7.10835,16.02173 8.18366,20.06169 0.78985,2.96754 1.1764,6.24349 1.23215,10.44244 0.0727,5.4747 -0.0868,6.57519 -1.51635,10.46075 -1.2722,3.45794 -2.21016,4.95498 -4.60505,7.34986 -2.073,2.07299 -3.51234,4.19392 -4.63239,6.82601 -2.59191,6.09089 -3.70747,15.37269 -1.92962,16.05493 1.18428,0.45444 3.58709,-1.91677 3.58709,-3.53994 0,-2.06852 1.3937,-4.87221 3.08216,-6.20036 3.07666,-2.42009 5.683,-2.25438 8.8947,0.56551 3.67646,3.228 3.89158,4.07106 3.73801,14.64912 l -0.13731,9.45567 2.20584,-2.50298 c 1.21321,-1.37664 2.58237,-3.27761 3.04259,-4.22439 z M 21.918176,286.56418 c 1.94347,-3.53369 4.89945,-5.56215 8.10544,-5.56215 2.93572,0 6.17985,3.09626 6.6702,6.36619 0.38886,2.59307 1.86325,4.91483 3.76863,5.93456 1.13077,0.60516 1.14051,0.54604 0.74457,-4.51536 -0.71041,-9.08116 -2.99454,-15.18803 -6.81958,-18.23288 -6.62125,-5.27074 -8.8386,-16.18731 -5.9409,-29.2486 0.78932,-3.55789 6.94015,-18.14851 9.00701,-21.36591 0.95888,-1.49264 1.11328,-1.32345 -2.39477,-2.62406 -1.52958,-0.56709 -3.47171,-1.72091 -4.31583,-2.56403 l -1.53477,-1.53297 -0.76772,1.49198 c -3.70584,7.20176 -6.622,21.50898 -8.35878,41.00961 -0.68747,7.71901 -0.90684,8.7134 -2.8224,12.79296 -3.50028,7.45461 -4.47766,16.71638 -2.73402,25.90808 0.92402,4.87105 1.65835,6.57213 4.40327,10.20026 l 1.66866,2.20556 0.2781,-9.43636 c 0.19159,-6.50073 0.51604,-9.86893 1.04289,-10.82688 z M 137.68054,265.14989 v -14.73971 h -9.51517 c -8.84252,0 -9.48711,0.0688 -9.11814,0.97338 0.21838,0.53535 1.08563,2.97575 1.92722,5.42309 1.78115,5.17955 5.86853,13.47727 8.23541,16.71855 1.44604,1.98025 6.9051,6.2789 8.05352,6.34162 0.22942,0.0125 0.41716,-6.61009 0.41716,-14.71693 z m 18.64541,10.71203 c 3.05112,-2.79581 4.10536,-4.27817 6.38447,-8.97716 1.50143,-3.0956 3.39313,-7.63075 4.20376,-10.07811 0.81065,-2.44734 1.70696,-4.88774 1.99184,-5.42309 0.48378,-0.9092 -0.10677,-0.97338 -8.9573,-0.97338 h -9.47523 v 14.68763 c 0,17.09735 -0.35222,16.44956 5.85246,10.76411 z m 33.87249,-25.72435 c 5.23341,-3.18216 5.16757,-3.04994 5.6111,-11.26887 0.27865,-5.16387 0.21738,-7.36985 -0.20471,-7.36985 -1.42735,0 -10.8132,4.88607 -13.26747,6.90675 -0.0652,0.0537 -0.23693,3.50857 -0.38166,7.67754 l -0.26313,7.57998 3.11828,-1.07285 c 1.71506,-0.59006 4.13947,-1.69378 5.38759,-2.4527 z m -83.66596,-4.38989 v -6.88735 l -3.52298,-2.29531 c -2.99888,-1.95385 -10.355764,-5.34585 -10.678544,-4.92353 -0.057,0.0746 0.0904,1.63724 0.32747,3.47276 0.23705,1.83552 0.45212,4.976 0.47794,6.97888 0.0445,3.45283 0.15563,3.74772 2.14454,5.68984 2.57434,2.51375 7.018864,4.7835 9.443854,4.82278 l 1.80772,0.0293 z m -62.841064,4.54002 c 2.59666,-1.19104 3.49778,-2.26589 5.50031,-6.56077 2.04522,-4.38647 3.22299,-8.87309 3.83047,-14.59199 l 0.45791,-4.31067 h -2.29482 -2.29482 l -3.12565,6.53553 c -1.71912,3.59454 -3.3733,7.78702 -3.67596,9.31661 -0.87943,4.44434 -1.40013,11.01697 -0.85168,10.7505 0.27291,-0.13258 1.37732,-0.64523 2.45424,-1.13921 z m 203.563554,-1.7969 c 0,-4.70563 -0.96304,-8.31635 -4.34658,-16.29668 l -3.12473,-7.36985 h -2.56466 -2.56466 l 0.69279,5.4231 c 0.81709,6.39591 1.10449,7.39839 3.78388,13.19757 2.31238,5.00485 3.2446,6.20844 5.61632,7.25121 2.485,1.09258 2.50764,1.07268 2.50764,-2.20535 z M 136.5681,228.91939 v -8.14161 l -4.86688,0.3874 c -5.42333,0.4317 -12.19819,1.80929 -12.67255,2.57682 -0.29056,0.47013 -0.51675,1.5858 -1.20869,5.96163 -0.35741,2.26032 0.66267,4.82638 2.49006,6.2638 1.22477,0.9634 2.2752,1.09358 8.82417,1.09358 h 7.43389 z m 32.90585,6.46727 c 1.16423,-1.56095 1.4672,-5.00139 0.79218,-8.99543 -0.39654,-2.34632 -0.65103,-2.68902 -2.56571,-3.45512 -2.48386,-0.99385 -13.87923,-2.34181 -15.27363,-1.80671 -0.84713,0.32507 -0.93611,1.19441 -0.79124,7.73178 0.0898,4.05102 0.26667,7.57168 0.39307,7.82365 0.12641,0.25199 3.869,0.37715 8.3169,0.27811 7.89182,-0.17568 8.1122,-0.21376 9.12843,-1.57628 z m -62.62459,-12.6482 c 1.56421,-7.07671 2.0046,-8.28293 3.53586,-9.68477 1.72976,-1.58357 2.0313,-1.66012 16.171,-4.10524 4.74174,-0.81997 8.90007,-1.56714 9.24073,-1.66038 0.64543,-0.17667 1.65634,-9.01858 1.09526,-9.57966 -0.17452,-0.17452 -2.88439,0.46199 -6.02192,1.41442 -16.87775,5.12354 -25.20082,4.44304 -38.799624,-3.17227 -3.32628,-1.86273 -6.1753,-3.38678 -6.33113,-3.38678 -0.15584,0 0.18137,1.35069 0.74935,3.00155 0.56797,1.65086 1.43964,5.39052 1.937,8.31037 1.60338,9.41249 2.09761,10.52328 6.02147,13.53352 3.12333,2.39613 10.636954,6.80747 11.657354,6.84421 0.22361,0.008 0.5587,-0.6737 0.74465,-1.51497 z m 78.60739,-0.16774 c 4.50771,-1.71329 12.4934,-7.46976 12.92244,-9.31516 0.53144,-2.28577 4.37854,-20.73296 4.37854,-20.99548 0,-0.12654 -1.77456,0.91788 -3.94346,2.32094 -4.70193,3.04166 -8.82949,4.7826 -15.70818,6.62549 -8.22549,2.2037 -14.51879,1.67308 -25.81896,-2.17697 l -5.70121,-1.94243 v 4.95854 c 0,5.63531 -0.71814,4.95982 6.39649,6.01667 10.45919,1.55369 17.75387,2.94855 19.12316,3.65663 1.82438,0.94341 3.00561,3.22916 4.25747,8.23844 0.51604,2.06494 0.97303,3.75432 1.01555,3.75418 0.0426,-1.6e-4 1.42767,-0.51356 3.07816,-1.14085 z M 60.827566,210.22361 c 2.79184,-4.55517 6.3656,-12.51402 7.35334,-16.37604 1.07892,-4.21854 1.38684,-10.23053 0.72811,-14.21581 -0.32641,-1.97482 -0.45487,-2.08579 -2.41459,-2.08579 -3.26898,0 -5.55005,1.92534 -7.92197,6.68655 -2.71095,5.44172 -4.12833,11.53235 -4.57185,19.64567 -0.41719,7.63148 -0.20416,8.15313 3.32954,8.15313 2.09776,0 2.52475,-0.22071 3.49742,-1.80771 z m 172.483504,0.4089 c 0.70937,-0.71512 0.85419,-2.15095 0.77328,-7.66662 -0.0828,-5.64011 -0.3522,-7.58547 -1.59495,-11.51455 -3.00958,-9.51509 -6.07403,-13.42299 -10.6368,-13.56441 -1.79401,-0.0556 -2.08596,0.12982 -2.52845,1.6058 -0.66033,2.20264 -0.0673,11.26189 1.02062,15.59329 0.85138,3.38937 2.68162,7.39705 6.30578,13.80773 1.79908,3.18234 1.88871,3.25137 3.81501,2.93879 1.08498,-0.17609 2.36544,-0.71609 2.84551,-1.20003 z M 40.695036,203.40253 c -0.96335,-2.5105 3.31722,-20.89772 6.35473,-27.29667 4.05355,-8.5394 15.10507,-14.07859 24.97576,-12.51824 3.39342,0.53642 4.40457,1.41388 7.51702,6.52314 1.90879,3.13337 2.59561,3.80285 4.47162,4.3586 2.94989,0.87391 6.60589,3.20821 10.00345,6.3871 3.23015,3.02224 6.486944,5.02495 11.464194,7.04969 6.391,2.59985 14.78261,1.86003 26.00792,-2.29295 l 4.80027,-1.77592 0.16638,-3.7858 c 0.0915,-2.08218 -0.0501,-4.0024 -0.315,-4.26716 -0.94757,-0.94755 -10.589,-3.27341 -20.24579,-4.884 -14.99085,-2.5002 -17.217384,-3.40431 -32.998044,-13.39929 -3.36276,-2.12988 -6.90392,-4.02068 -7.86922,-4.20176 -3.43695,-0.64478 -10.58511,1.48077 -25.78604,7.66764 -3.82399,1.55638 -7.48905,3.3137 -8.1446,3.90514 -2.43516,2.19703 -4.27195,9.34507 -5.18624,20.18282 -0.7926,9.39531 -0.71975,13.16531 0.29368,15.19676 1.312,2.62999 5.38755,5.49007 4.48991,3.1509 z m 209.216524,-0.87126 c 3.57927,-3.35457 3.57893,-3.35313 2.8952,-12.82801 -1.3206,-18.30005 -2.88381,-23.69372 -7.4692,-25.77163 -12.11563,-5.4903 -24.41332,-10.14207 -28.10785,-10.63216 -3.42262,-0.45403 -6.28891,0.81491 -14.87933,6.58726 -9.31365,6.2583 -17.19245,9.09526 -31.29693,11.26925 -3.21214,0.49511 -8.76108,1.66159 -12.33096,2.59219 l -6.49071,1.69199 -0.18388,3.61282 c -0.10111,1.98704 -0.0588,3.78477 0.0942,3.99496 0.42296,0.58123 6.5072,3.16158 10.54464,4.47204 8.24478,2.67608 13.08008,2.61227 21.37992,-0.28216 3.61075,-1.25918 4.99672,-2.1727 12.57268,-8.28668 1.68254,-1.35787 4.6261,-3.04168 6.54124,-3.74179 2.32242,-0.849 3.59442,-1.6444 3.81941,-2.3883 0.18553,-0.61345 1.19058,-2.53535 2.23348,-4.27092 3.1206,-5.19324 7.08688,-6.4033 15.28954,-4.66469 10.12985,2.14714 16.53239,9.17888 19.75766,21.69934 0.71295,2.76772 1.68376,6.40887 2.15734,8.09143 0.47356,1.68255 0.86304,4.74869 0.86549,6.81364 0.002,2.06494 0.18026,3.75331 0.39512,3.75188 0.21485,-0.002 1.21067,-0.77112 2.21291,-1.71046 z m -91.21658,-43.30778 c 2.97319,-0.91169 8.0339,-2.04927 11.24604,-2.52795 11.84913,-1.76581 18.2793,-4.02457 27.09,-9.51604 5.42312,-3.38007 11.45254,-6.08928 15.30646,-6.87767 5.01483,-1.02585 11.52458,0.0909 21.48698,3.68625 6.67016,2.40716 8.0735,2.64508 6.91188,1.17178 -0.30734,-0.38979 -0.73557,-1.4596 -0.95164,-2.37735 -0.60226,-2.55816 -3.01072,-6.36457 -6.08794,-9.62164 -3.08354,-3.26377 -9.26918,-7.89916 -10.54094,-7.89916 -0.44927,0 -2.43762,0.98466 -4.41859,2.18813 -8.67274,5.26888 -22.30831,9.11253 -38.6594,10.89747 -11.76042,1.28381 -15.73658,1.86557 -18.7671,2.74585 -6.13407,1.78181 -10.28681,7.06095 -10.2749,13.06191 0.009,4.73291 0.56562,7.3737 1.47934,7.02306 0.42572,-0.16335 3.20664,-1.04295 6.17981,-1.95464 z m -22.07745,-0.1717 c 0.26356,-9.64027 -1.12454,-13.18366 -6.36548,-16.24882 -2.89281,-1.69187 -5.68812,-2.31769 -16.48879,-3.69155 -12.6643,-1.61092 -17.269514,-2.47954 -26.477024,-4.99399 -8.34847,-2.27986 -16.87917,-5.89192 -19.92479,-8.43652 l -1.62646,-1.35892 -3.65758,2.55201 c -7.33145,5.1154 -13.49485,12.77929 -14.27964,17.75603 l -0.37905,2.40375 2.16327,-0.95455 c 9.10545,-4.01773 17.8976,-6.35592 23.89981,-6.35592 4.266,0 10.72162,2.49096 17.51743,6.75927 10.760504,6.75847 15.664344,8.5269 29.716734,10.71659 3.05918,0.47668 7.56453,1.46987 10.01188,2.20708 5.85936,1.76501 5.83169,1.76667 5.88969,-0.35446 z m 15.95095,-28.95544 c 5.32519,-2.79831 10.97436,-4.2093 19.31929,-4.82539 9.73476,-0.71868 16.01204,-1.53659 20.02377,-2.60902 1.8355,-0.49068 4.94775,-1.30856 6.9161,-1.81751 1.96835,-0.50896 3.67015,-1.19935 3.78176,-1.5342 0.36203,-1.08608 -17.53149,-4.93129 -32.66838,-7.02024 -4.95222,-0.68342 -5.44123,-0.66015 -7.78702,0.37048 -10.00161,4.39429 -23.30148,4.6155 -34.55265,0.5747 -5.34508,-1.91966 -4.41357,-1.99563 -27.46536,2.23994 -9.233404,1.69655 -15.295914,3.17292 -15.295914,3.72492 0,0.45243 11.7973,3.35335 18.911314,4.65025 2.6003,0.47403 8.10684,1.0919 12.23675,1.37301 10.78608,0.7342 19.90179,3.88536 25.58009,8.84262 l 2.49717,2.18007 2.36981,-2.086 c 1.3034,-1.14729 4.06336,-2.97592 6.13327,-4.06363 z m -3.17074,-28.98527 c 8.37871,-1.494807 16.42083,-6.62201 21.16179,-13.491603 2.88293,-4.177316 6.04024,-11.168272 7.16749,-15.870316 0.60811,-2.536571 1.10742,-4.764859 1.10956,-4.951757 0.002,-0.186887 -2.18621,0.480781 -4.863,1.483695 -2.67678,1.002924 -6.86925,2.091415 -9.3166,2.418881 -2.44736,0.327465 -6.39975,0.84871 -8.78312,1.158336 -11.33714,1.472779 -33.19123,-0.419501 -42.0902,-3.644479 -1.97725,-0.716549 -3.70102,-1.19681 -3.83058,-1.067253 -0.12956,0.129567 0.28757,2.478689 0.92695,5.220283 2.03102,8.708629 6.73595,16.492383 13.05311,21.594743 6.27931,5.071803 11.33317,6.98814 20.70008,7.84913 0.30592,0.028 2.44995,-0.28674 4.76452,-0.69966 z m 11.92195,-43.994135 c 6.21187,-0.933832 7.67472,-1.341994 13.54393,-3.779085 l 4.08829,-1.69759 -0.2037,-4.033678 c -0.11202,-2.218517 -0.36213,-4.192117 -0.55578,-4.385781 -0.19366,-0.193652 -1.44114,-0.02732 -2.77217,0.369561 -3.47318,1.03566 -55.84738,1.052008 -61.30491,0.01916 -2.10076,-0.397595 -3.9659,-0.576531 -4.14477,-0.397648 -0.17889,0.178873 -0.33732,2.255837 -0.35208,4.615451 l -0.0268,4.290219 4.40863,1.765095 c 2.42475,0.970802 6.42951,2.050242 8.89945,2.398754 12.1941,1.720585 29.96224,2.107012 38.41995,0.835582 z m 10.15092,-27.296244 c 1.30016,-0.162908 2.36391,-0.422464 2.36391,-0.576791 0,-0.652795 -1.43791,-2.910888 -3.68016,-5.779258 -4.62333,-5.914321 -12.74514,-9.250378 -23.85249,-9.797482 -5.38016,-0.265006 -6.78946,-0.127995 -11.68052,1.135578 -7.82053,2.020375 -11.77008,4.103023 -15.57517,8.21297 -3.27011,3.532116 -4.63528,5.741343 -3.96314,6.413485 0.21343,0.213423 3.82082,0.530046 8.01643,0.70359 8.77063,0.362803 44.84236,0.130061 48.37114,-0.312092 z"
     id="path53" /><path
     style="fill:#ffffff;stroke:none;stroke-width:0.119239;stroke-linecap:round;stroke-linejoin:round;stroke-dasharray:none"
     d="m 119.41016,29.772391 c -2.05108,-0.146776 -3.87452,-0.412156 -4.0521,-0.589738 -0.95722,-0.95722 5.2916,-8.104809 8.97493,-10.2658 3.45483,-2.02693 10.8946,-4.406289 15.70478,-5.022646 2.63351,-0.337449 9.70096,0.07295 13.42218,0.779437 5.22208,0.99141 10.1351,3.096929 13.40507,5.744872 1.04418,0.845541 2.81666,2.779113 3.93888,4.296831 2.51844,3.406035 2.91046,4.1251 2.48235,4.553207 -0.18104,0.181035 -3.0298,0.4324 -6.50588,0.574054 -8.01908,0.326788 -42.53739,0.275621 -47.37021,-0.07021 z"
     id="path54" /><path
     style="fill:#ffffff;stroke:none;stroke-width:0.119239;stroke-linecap:round;stroke-linejoin:round;stroke-dasharray:none"
     d="m 134.06439,57.263361 c -10.01671,-0.740624 -15.27696,-1.729082 -20.92168,-3.931414 l -3.11332,-1.214692 v -4.361566 -4.361568 l 0.93643,0.0273 c 0.51502,0.01501 2.48153,0.225451 4.36999,0.467638 4.80639,0.616401 54.8473,0.622642 58.83895,0.0073 4.02171,-0.619937 3.83438,-0.647039 4.0796,0.590229 0.11908,0.600875 0.29785,2.435332 0.39727,4.076569 l 0.18075,2.984067 -4.90399,1.931775 c -8.70574,3.429352 -11.37861,3.84525 -25.50543,3.968607 -5.83707,0.05097 -12.29843,-0.03195 -14.35857,-0.184279 z"
     id="path55" /><path
     style="fill:#ffffff;stroke:none;stroke-width:0.119239;stroke-linecap:round;stroke-linejoin:round;stroke-dasharray:none"
     d="m 140.61939,101.15448 c -3.7562,-0.59045 -7.08424,-1.596677 -9.76554,-2.952587 -10.50654,-5.313108 -17.61901,-15.119001 -20.25511,-27.925539 -0.30123,-1.463438 -0.47137,-2.737117 -0.37809,-2.830397 0.0932,-0.09328 1.42282,0.25637 2.95452,0.777002 5.79638,1.970204 14.81123,3.380688 26.03958,4.074216 7.0747,0.436975 13.08226,0.200868 20.77365,-0.816434 6.7255,-0.889548 9.42013,-1.488736 14.63142,-3.253488 2.04742,-0.693336 3.78487,-1.198317 3.861,-1.122182 0.17685,0.176852 -0.73066,3.963391 -1.7235,7.191203 -1.03253,3.356897 -4.34646,10.213832 -6.30675,13.049479 -1.86831,2.702613 -5.64519,6.452978 -8.29331,8.235071 -4.10341,2.761449 -8.17343,4.436686 -13.07907,5.383376 -3.75714,0.72505 -4.89409,0.75063 -8.4588,0.19028 z"
     id="path56" /><path
     style="fill:#ffffff;stroke:none;stroke-width:0.119239;stroke-linecap:round;stroke-linejoin:round;stroke-dasharray:none"
     d="m 142.01882,134.18803 c -6.23198,-5.30954 -14.43724,-8.1423 -26.52694,-9.15812 -9.07007,-0.76209 -15.05371,-1.79776 -25.230424,-4.36699 -4.36883,-1.10296 -5.25875,-1.40669 -4.85413,-1.65676 1.73644,-1.07319 29.759384,-6.3898 35.234914,-6.68489 2.9616,-0.15962 3.29725,-0.11111 6.555,0.9474 11.91932,3.8728 22.91033,3.97928 32.8619,0.31836 5.07888,-1.86839 4.87987,-1.8523 11.3203,-0.91512 13.03926,1.89742 29.62027,5.37056 30.70934,6.43252 0.43682,0.42594 -1.29879,1.04309 -7.41541,2.63681 -6.291,1.63915 -11.21959,2.41245 -19.87432,3.11825 -15.26405,1.24482 -21.42669,3.36909 -29.81486,10.27721 l -0.94165,0.77549 z"
     id="path57" /><path
     style="fill:#ffffff;stroke:none;stroke-width:0.119239;stroke-linecap:round;stroke-linejoin:round;stroke-dasharray:none"
     d="m 132.19152,159.65284 c -3.36686,-0.9965 -7.97781,-1.9897 -15.13892,-3.2609 -11.06197,-1.96368 -15.24278,-3.57475 -25.720824,-9.91145 -4.73122,-2.86126 -8.07655,-4.49614 -11.73633,-5.73561 -2.44459,-0.82793 -2.99685,-0.89673 -7.02322,-0.87493 -3.3521,0.0181 -5.05404,0.18448 -7.30666,0.71405 -3.91738,0.92094 -9.98381,2.91285 -14.01545,4.60196 -1.80492,0.7562 -3.34935,1.30722 -3.43205,1.22451 -0.0827,-0.0827 0.003,-0.91745 0.19196,-1.85498 1.02705,-5.11405 6.8848,-12.30034 14.39994,-17.66585 1.68114,-1.20025 3.15686,-2.18228 3.27939,-2.18228 0.12254,0 0.8083,0.47707 1.52391,1.06017 4.73113,3.85506 18.34581,8.69933 31.57896,11.23618 2.231834,0.42784 7.780174,1.283 12.329654,1.90034 15.94039,2.16302 18.11943,2.76919 21.57552,6.00195 2.80316,2.62203 3.81103,5.96912 3.64487,12.10446 -0.0748,2.76194 -0.18406,3.44314 -0.5611,3.49806 -0.25751,0.0375 -1.87285,-0.34755 -3.58965,-0.85568 z"
     id="path58" /><path
     style="fill:#ffffff;stroke:none;stroke-width:0.119239;stroke-linecap:round;stroke-linejoin:round;stroke-dasharray:none"
     d="m 38.071616,202.18572 c -1.30205,-1.3389 -1.85091,-2.18191 -2.12228,-3.25966 -0.71889,-2.85499 -0.32716,-11.67669 0.89897,-20.24406 1.09827,-7.67408 2.65868,-12.23556 4.72458,-13.8113 2.71437,-2.07037 20.51931,-9.05259 27.25362,-10.68756 4.61974,-1.12158 5.85082,-1.0391 8.96648,0.60084 1.42054,0.74771 4.89474,2.80565 7.72043,4.57322 12.75534,7.97886 15.610524,9.09645 29.510254,11.55097 7.91701,1.39804 15.75589,3.12582 18.88465,4.16237 2.02586,0.67118 2.02935,0.67438 2.30931,2.12259 0.16577,0.85743 0.16577,2.5015 0,4.02144 l -0.28038,2.57104 -4.21394,1.54109 c -9.94566,3.63726 -17.59808,4.71772 -23.41072,3.30545 -2.17265,-0.52789 -6.59573,-2.51051 -9.114834,-4.08568 -1.25312,-0.78357 -3.71845,-2.66918 -5.47852,-4.19026 -3.63512,-3.14152 -5.61067,-4.42192 -8.86786,-5.74744 -1.25176,-0.50941 -2.53118,-1.15719 -2.84314,-1.43953 -0.31198,-0.28232 -1.59892,-2.08226 -2.8599,-3.99984 -1.26097,-1.91759 -2.76482,-3.84382 -3.34188,-4.28051 -1.56597,-1.185 -3.46986,-1.59866 -7.29209,-1.58432 -5.45807,0.0206 -9.3884,1.23554 -14.10653,4.36099 -4.12591,2.73314 -6.61275,5.87347 -8.49746,10.73038 -2.20382,5.67924 -5.34046,19.17361 -5.4197,23.31653 -0.0242,1.26967 -0.18073,2.2792 -0.35322,2.2792 -0.17028,0 -1.09992,-0.81268 -2.06584,-1.80595 z"
     id="path59" /><path
     style="fill:#ffffff;stroke:none;stroke-width:0.119239;stroke-linecap:round;stroke-linejoin:round;stroke-dasharray:none"
     d="m 151.75009,159.90148 c -0.51422,-1.67772 -0.71693,-5.89656 -0.37012,-7.7027 0.71255,-3.71079 2.79697,-6.92324 5.77469,-8.89974 3.31114,-2.1978 5.81505,-2.76119 19.51725,-4.39141 5.06451,-0.60254 11.24494,-1.45049 13.73428,-1.88432 10.95074,-1.90846 21.13306,-5.19614 27.44338,-8.86095 1.12978,-0.65613 2.80484,-1.57056 3.7224,-2.03205 l 1.66826,-0.83909 1.70861,1.03467 c 6.43981,3.89975 12.78067,10.94551 14.48721,16.09776 0.38344,1.15763 0.90234,2.42083 1.15313,2.8071 0.32154,0.49526 0.34652,0.70233 0.0847,0.70233 -0.20419,0 -3.55637,-1.0417 -7.44929,-2.3149 -12.80328,-4.18733 -17.64665,-4.72312 -23.90828,-2.64483 -2.74085,0.90971 -8.22788,3.59104 -12.52922,6.12261 -9.48136,5.58029 -14.35707,7.32728 -25.88986,9.27646 -5.5036,0.93017 -9.90981,1.96675 -14.71435,3.46163 -1.91247,0.59505 -3.62227,1.08189 -3.79956,1.08189 -0.17728,0 -0.46225,-0.45651 -0.63326,-1.01446 z"
     id="path60" /><path
     style="fill:#ffffff;stroke:none;stroke-width:0.119239;stroke-linecap:round;stroke-linejoin:round;stroke-dasharray:none"
     d="m 247.70836,203.62177 c -0.0705,-0.22575 -0.21307,-1.99984 -0.31692,-3.94243 -0.29767,-5.56907 -3.7757,-18.39467 -6.27018,-23.122 -3.44571,-6.53004 -8.55936,-10.72848 -15.30495,-12.56579 -1.92852,-0.52527 -3.41482,-0.6818 -6.69296,-0.70487 -3.83478,-0.027 -4.33529,0.0352 -5.56272,0.69031 -2.0298,1.08351 -3.82882,3.16241 -5.51852,6.37709 -0.83591,1.59033 -1.73969,3.06167 -2.00841,3.26964 -0.26872,0.20797 -1.40159,0.76556 -2.51751,1.23909 -3.14121,1.33294 -5.47541,2.7764 -9.20821,5.69427 -6.26362,4.89619 -6.83291,5.24122 -11.0964,6.72524 -3.70955,1.29122 -7.44651,2.03863 -10.19281,2.03863 -4.08331,0 -10.76212,-1.82192 -17.49413,-4.77227 -3.5339,-1.54876 -3.54882,-1.57602 -3.2847,-6.00303 l 0.17658,-2.95965 1.28072,-0.33408 c 0.7044,-0.18375 2.54491,-0.67184 4.09001,-1.08462 3.99224,-1.06657 9.22433,-2.16267 14.82679,-3.10616 13.57547,-2.28621 20.37319,-4.86222 30.90215,-11.71049 2.66102,-1.73079 6.02247,-3.7371 7.46988,-4.45847 2.45494,-1.22352 2.80078,-1.31044 5.15036,-1.2944 2.15055,0.0147 3.13463,0.22765 6.73263,1.45708 5.04495,1.72386 14.24908,5.39744 19.7415,7.87927 5.27016,2.38142 6.43588,3.71222 7.75573,8.85404 1.23701,4.81906 2.6345,18.88048 2.42498,24.39993 -0.1011,2.66297 -0.20003,3.07968 -0.97034,4.08651 -1.26965,1.65949 -3.95673,3.84647 -4.11257,3.34716 z"
     id="path61" /><path
     style="fill:#ffffff;stroke:none;stroke-width:0.119239;stroke-linecap:round;stroke-linejoin:round;stroke-dasharray:none"
     d="m 181.8392,221.09908 c -1.45935,-5.73116 -2.80327,-8.56026 -4.47773,-9.42615 -1.26299,-0.65312 -7.16212,-1.83447 -16.45279,-3.29482 -6.93852,-1.09063 -8.19495,-1.37046 -8.66196,-1.92921 -0.46051,-0.55094 -0.54625,-1.30961 -0.54625,-4.83288 0,-2.29864 0.0624,-4.17935 0.13855,-4.17935 0.0763,0 2.28853,0.71217 4.91625,1.58262 12.48031,4.13414 18.24499,4.55659 27.50646,2.01575 6.13303,-1.68255 9.10647,-2.96665 14.65853,-6.33034 1.85003,-1.12084 3.412,-1.98304 3.47103,-1.91599 0.059,0.067 -0.86613,4.75721 -2.05589,10.4226 l -2.16323,10.30072 -1.30585,1.3379 c -2.72287,2.7897 -10.73622,7.69085 -13.65272,8.35032 -0.75835,0.17148 -0.81949,0.0781 -1.3744,-2.10117 z"
     id="path62" /><path
     style="fill:#ffffff;stroke:none;stroke-width:0.119239;stroke-linecap:round;stroke-linejoin:round;stroke-dasharray:none"
     d="m 104.09618,223.15108 c -3.94519,-2.07035 -9.203884,-5.48536 -11.139244,-7.23384 -2.17456,-1.96458 -2.79836,-3.6497 -4.2991,-11.61344 -0.84159,-4.46593 -2.01814,-9.28681 -2.70035,-11.06463 -0.148,-0.38567 0.5418,-0.12645 2.41195,0.90639 5.14166,2.83966 10.47201,5.42075 13.137594,6.36159 7.73119,2.72877 15.85402,2.59366 26.62665,-0.44287 7.00058,-1.97331 8.4022,-2.27458 8.64743,-1.85875 0.25313,0.42924 -0.25814,6.01462 -0.70519,7.70398 -0.20619,0.77921 -0.52123,1.19275 -1.0002,1.31296 -0.38455,0.0966 -5.05359,0.95153 -10.37562,1.90004 -5.32204,0.94851 -10.40684,1.92333 -11.29957,2.16628 -3.37063,0.91727 -4.5956,2.55941 -5.84965,7.84181 -0.87543,3.68763 -1.26857,4.83821 -1.65319,4.83821 -0.1338,0 -0.94448,-0.36797 -1.80151,-0.81773 z"
     id="path63" /><path
     style="fill:#ffffff;stroke:none;stroke-width:0.119239;stroke-linecap:round;stroke-linejoin:round;stroke-dasharray:none"
     d="m 55.033716,211.55 c -1.074,-0.6829 -1.26645,-3.39021 -0.70373,-9.8994 0.59738,-6.91037 1.99058,-12.32874 4.44259,-17.27798 2.2638,-4.56937 4.63535,-6.57946 7.77992,-6.59411 2.17593,-0.0105 2.27509,0.29656 2.26852,7.01637 -0.006,6.22922 -0.24457,7.75272 -1.92981,12.32965 -1.44709,3.93005 -5.44376,12.03016 -6.66114,13.50017 -0.93007,1.1231 -1.04753,1.17035 -2.89754,1.16576 -1.06049,-0.002 -2.09495,-0.11084 -2.29881,-0.24046 z"
     id="path64" /><path
     style="fill:#ffffff;stroke:none;stroke-width:0.119239;stroke-linecap:round;stroke-linejoin:round;stroke-dasharray:none"
     d="m 41.201856,249.58052 c 0,-2.72084 0.90406,-8.55206 1.67366,-10.79524 0.78467,-2.28706 2.66016,-6.56978 4.8823,-11.14878 l 1.32545,-2.73126 h 2.16022 2.16024 l -0.1617,1.01446 c -0.0889,0.55797 -0.3159,2.34888 -0.50437,3.97984 -0.78142,6.76195 -3.37879,14.38779 -6.12832,17.99262 -0.61513,0.80645 -4.53231,3.23309 -5.21901,3.23309 -0.10365,0 -0.18847,-0.69513 -0.18847,-1.54473 z"
     id="path65" /><path
     style="fill:#ffffff;stroke:none;stroke-width:0.119239;stroke-linecap:round;stroke-linejoin:round;stroke-dasharray:none"
     d="m 18.782236,304.02516 c -2.07871,-2.89247 -2.94677,-4.70088 -3.59193,-7.48311 -1.01613,-4.38206 -1.23767,-6.33337 -1.2404,-10.925 -0.004,-6.70229 0.90682,-11.01982 3.68751,-17.48001 1.63229,-3.79216 1.84319,-4.8217 2.65363,-12.95393 1.54694,-15.52276 3.16615,-25.13761 5.62044,-33.37421 0.89252,-2.99532 3.00898,-8.1408 3.34849,-8.1408 0.0796,0 0.83377,0.61945 1.67587,1.37657 0.92325,0.83007 2.49046,1.77216 3.94766,2.373 1.3291,0.54805 2.53224,1.10478 2.67362,1.23717 0.14138,0.1324 -0.37538,1.41733 -1.14837,2.85539 -1.79784,3.34465 -5.73588,12.57672 -7.17355,16.81716 -1.58076,4.66249 -2.19419,9.31729 -1.99507,15.13893 0.27297,7.98092 1.97059,12.23508 6.8037,17.04983 3.19506,3.1829 4.56248,5.63511 5.7228,10.26268 1.20117,4.79043 1.86037,12.48572 1.06958,12.48572 -0.20112,0 -0.95764,-0.61783 -1.68119,-1.37296 -1.2586,-1.31355 -1.62349,-2.11641 -2.62477,-5.77525 -0.51454,-1.88025 -3.16001,-4.52861 -5.02542,-5.03092 -2.35176,-0.63326 -4.95742,0.16264 -7.31801,2.23529 -2.73959,2.40537 -3.16955,4.33238 -3.5205,15.77823 l -0.22197,7.23901 z"
     id="path66" /><path
     style="fill:#ffffff;stroke:none;stroke-width:0.119239;stroke-linecap:round;stroke-linejoin:round;stroke-dasharray:none"
     d="m 121.26723,236.27493 c -1.38616,-0.72277 -1.91876,-1.29151 -2.63366,-2.81241 -0.77901,-1.65726 -0.80604,-3.05898 -0.13023,-6.75291 0.50311,-2.74995 0.53835,-2.82122 1.61814,-3.27239 2.04605,-0.85488 7.5982,-1.74864 14.80131,-2.38265 l 1.48268,-0.13049 v 7.92128 7.92131 l -7.10126,-0.002 c -5.8297,-0.001 -7.26881,-0.0892 -8.03698,-0.48983 z"
     id="path67" /><path
     style="fill:#ffffff;stroke:none;stroke-width:0.119239;stroke-linecap:round;stroke-linejoin:round;stroke-dasharray:none"
     d="m 101.65358,251.61034 c -3.272784,-1.34566 -6.982814,-4.15235 -7.819504,-5.91555 -0.29967,-0.6315 -0.50445,-1.86706 -0.50461,-3.04457 -2.7e-4,-2.0544 -0.48451,-8.06861 -0.79636,-9.89051 -0.1663,-0.97162 -0.1298,-1.02745 0.54328,-0.83102 1.55921,0.45504 8.420784,3.91258 10.824164,5.45428 l 2.53919,1.62882 v 6.68102 6.68101 l -1.48268,-0.007 c -0.83465,-0.004 -2.27849,-0.33462 -3.30348,-0.75607 z"
     id="path68" /><path
     style="fill:#ffffff;stroke:none;stroke-width:0.119239;stroke-linecap:round;stroke-linejoin:round;stroke-dasharray:none"
     d="m 135.00082,278.37839 c -4.92258,-3.58425 -6.6025,-5.74463 -10.14823,-13.05063 -1.8685,-3.85007 -4.91669,-11.46278 -5.4658,-13.65057 -0.17653,-0.70336 -0.0842,-0.79328 0.99868,-0.9722 0.65626,-0.10844 4.81016,-0.19869 9.23089,-0.20059 l 8.03767,-0.003 -7.1e-4,7.25733 c -0.001,11.44344 -0.35779,21.77318 -0.75146,21.76423 -0.18718,-0.004 -1.04265,-0.51912 -1.90104,-1.14414 z"
     id="path69" /><path
     style="fill:#ffffff;stroke:none;stroke-width:0.119239;stroke-linecap:round;stroke-linejoin:round;stroke-dasharray:none"
     d="m 151.06845,278.41744 c -0.18086,-0.4757 -0.30441,-6.3124 -0.30441,-14.38029 v -13.57963 l 8.87055,0.0998 c 4.87879,0.0549 8.94392,0.17336 9.03362,0.26333 0.21184,0.21246 -2.74242,8.2896 -4.63157,12.663 -1.72246,3.98753 -3.2577,6.86834 -4.78293,8.97503 -1.26891,1.75265 -6.77583,6.75948 -7.43462,6.75948 -0.24542,0 -0.58321,-0.3603 -0.75064,-0.80068 z"
     id="path70" /><path
     style="fill:#ffffff;stroke:none;stroke-width:0.119239;stroke-linecap:round;stroke-linejoin:round;stroke-dasharray:none"
     d="m 152.15803,236.38325 c -0.0928,-0.24205 -0.19872,-3.62986 -0.23519,-7.52845 -0.0561,-6.00106 0.005,-7.13779 0.40191,-7.41072 0.63384,-0.43641 5.84419,-0.11359 10.54522,0.65337 4.19132,0.68378 5.22728,1.00498 6.20986,1.92533 1.38493,1.29722 1.78922,8.21125 0.61269,10.47792 -1.05005,2.02297 -1.38316,2.09844 -9.78289,2.21629 -6.30779,0.0885 -7.61112,0.0324 -7.7516,-0.33374 z"
     id="path71" /><path
     style="fill:#ffffff;stroke:none;stroke-width:0.119239;stroke-linecap:round;stroke-linejoin:round;stroke-dasharray:none"
     d="m 182.11767,246.27459 c 0.12595,-3.9084 0.30006,-7.29132 0.38689,-7.5176 0.34503,-0.89915 10.14458,-6.32072 12.39974,-6.86012 l 0.90845,-0.21729 -0.19728,6.05515 c -0.22202,6.81421 -0.47554,8.10682 -1.88217,9.59667 -1.72711,1.82924 -6.90212,4.54411 -11.09749,5.82183 l -0.74716,0.22756 z"
     id="path72" /><path
     style="fill:#ffffff;stroke:none;stroke-width:0.119239;stroke-linecap:round;stroke-linejoin:round;stroke-dasharray:none"
     d="m 129.28573,330.07678 c -0.22152,-0.35471 -1.88267,-3.47196 -3.69146,-6.92722 -6.15579,-11.75928 -14.77661,-25.24986 -20.53993,-32.14259 -4.22484,-5.05277 -11.259704,-12.14874 -12.586984,-12.69631 -0.63636,-0.26252 -1.09136,-0.71071 -1.21282,-1.19468 -0.32271,-1.28579 0.79555,-15.1387 1.2595,-15.60266 0.0851,-0.0851 0.98207,0.34775 1.99319,0.96197 2.43928,1.48178 7.585844,3.64995 11.549124,4.86547 2.17901,0.6683 3.55253,1.28738 4.28704,1.9323 0.59443,0.52191 2.73344,3.69239 4.75339,7.04551 6.04079,10.02779 9.49185,13.6837 15.84617,16.78668 4.96472,2.4244 7.95478,3.1093 13.57822,3.11017 3.73156,5.9e-4 4.99183,-0.12436 7.1793,-0.71183 3.31211,-0.88952 7.11037,-2.70088 9.62122,-4.58832 3.28757,-2.47131 8.22109,-8.71597 11.6618,-14.76101 2.40963,-4.23353 3.94823,-6.38478 5.21788,-7.29555 0.67091,-0.48127 2.82364,-1.32405 5.04849,-1.97645 4.03843,-1.1842 7.77308,-2.62822 10.96644,-4.24023 1.0294,-0.51963 1.92915,-0.88729 1.99942,-0.81701 0.0703,0.0703 0.26834,1.61127 0.44015,3.42441 0.1718,1.81314 0.51889,4.7497 0.77134,6.52569 0.25244,1.77599 0.46155,3.82905 0.46469,4.56237 0.005,1.16626 -0.10185,1.37597 -0.85266,1.67393 -3.21424,1.27549 -6.2185,4.10841 -13.031,12.28777 -8.24334,9.8973 -13.36381,17.84867 -21.20671,32.93109 -2.00866,3.86277 -3.76896,7.14259 -3.91178,7.28852 -0.14284,0.14592 -0.47132,-0.48616 -0.72996,-1.40464 -0.25865,-0.91848 -1.05879,-3.77692 -1.77807,-6.35211 -1.36659,-4.89257 -3.65911,-12.01802 -4.46903,-13.89035 -0.84912,-1.96292 -2.3575,-3.71032 -4.03152,-4.67036 -3.8816,-2.22605 -9.01088,-0.53561 -11.11823,3.66418 -1.04603,2.08467 -3.99173,11.72056 -5.03913,16.48394 -0.65211,2.96565 -1.63175,6.37225 -1.83246,6.37225 -0.11158,0 -0.38411,-0.29022 -0.60562,-0.64493 z"
     id="path73" /><path
     style="fill:#ffffff;stroke:none;stroke-width:0.119239;stroke-linecap:round;stroke-linejoin:round;stroke-dasharray:none"
     d="m 109.46204,376.54494 c -3.99987,-6.2187 -5.93499,-9.93 -6.73414,-12.91508 -1.65203,-6.17091 -3.218474,-42.45249 -2.3826,-55.18537 l 0.24319,-3.70471 0.93639,1.67577 c 0.515,0.92169 2.37698,3.99345 4.13773,6.82614 6.61495,10.64219 9.8407,17.22338 12.96915,26.45981 1.82583,5.39055 2.28053,8.04874 2.05697,12.02466 -0.35487,6.3108 -2.96831,17.00794 -5.27788,21.60305 -0.89212,1.77496 -3.33206,5.2201 -3.9811,5.62122 -0.1655,0.10228 -1.05097,-0.98018 -1.96771,-2.40549 z"
     id="path74" /><path
     style="fill:#ffffff;stroke:none;stroke-width:0.119239;stroke-linecap:round;stroke-linejoin:round;stroke-dasharray:none"
     d="m 78.544716,365.83411 c -0.35723,-0.93097 -0.88001,-18.82066 -0.68398,-23.40705 0.50936,-11.91801 2.38348,-22.99592 6.44248,-38.08143 2.70565,-10.05571 2.48542,-11.58155 2.29765,15.91928 -0.20264,29.67776 -0.46869,38.30422 -1.23087,39.91039 -0.58718,1.23742 -5.55983,6.13069 -6.23012,6.13069 -0.22773,0 -0.49557,-0.21235 -0.59516,-0.47188 z"
     id="path75" /><path
     style="fill:#ffffff;stroke:none;stroke-width:0.119239;stroke-linecap:round;stroke-linejoin:round;stroke-dasharray:none"
     d="m 87.054416,393.50895 c -2.54149,-1.61177 -7.0919,-8.10868 -6.65138,-9.49661 0.1096,-0.34531 2.39574,-2.8542 5.0803,-5.57528 l 4.88104,-4.94743 2.34107,2.67357 c 4.15305,4.74288 5.30642,7.11723 5.30642,10.92379 0,2.04139 -0.56513,2.78376 -3.52183,4.62634 -4.24545,2.64571 -5.58504,2.96921 -7.43562,1.79562 z"
     id="path76" /><path
     style="fill:#ffffff;stroke:none;stroke-width:0.119239;stroke-linecap:round;stroke-linejoin:round;stroke-dasharray:none"
     d="m 77.566516,417.63442 c -1.55168,-0.80109 -4.23733,-3.62591 -5.02687,-5.28734 -1.24631,-2.6226 -0.83453,-5.97999 1.23224,-10.04672 l 0.68825,-1.35426 2.80176,2.46243 c 1.54096,1.35433 3.34684,3.03125 4.01305,3.72646 l 1.21129,1.26403 -0.53145,3.53476 c -0.87732,5.8352 -1.03691,6.19096 -2.77505,6.18603 -0.37224,-10e-4 -1.09819,-0.21949 -1.61322,-0.48539 z"
     id="path77" /><path
     style="fill:#ffffff;stroke:none;stroke-width:0.119239;stroke-linecap:round;stroke-linejoin:round;stroke-dasharray:none"
     d="m 93.493006,417.28393 c 0.59842,-8.26785 1.91386,-10.33064 8.760254,-13.73726 3.39745,-1.69049 3.49163,-1.71701 4.27509,-1.20366 1.15409,0.75619 1.47378,2.01775 1.45929,5.75868 l -0.0128,3.30897 -2.40628,2.13024 c -3.99746,3.53888 -8.021834,5.82939 -10.242104,5.82939 -0.43405,0 -1.06895,0.14974 -1.4109,0.33275 -0.60542,0.324 -0.61649,0.26056 -0.42253,-2.41911 z"
     id="path78" /><path
     style="fill:#ffffff;stroke:none;stroke-width:0.119239;stroke-linecap:round;stroke-linejoin:round;stroke-dasharray:none"
     d="m 50.666786,485.25279 c -2.77733,-0.10079 -5.12626,-0.25976 -5.21983,-0.35333 -0.22238,-0.22237 3.001,-2.32962 6.45457,-4.21959 3.69891,-2.02424 8.63993,-5.78428 11.34872,-8.63621 6.40809,-6.74671 8.30035,-14.37805 8.35854,-33.70958 0.0149,-4.93515 0.1147,-8.9735 0.22187,-8.9741 0.66468,-0.004 3.14876,1.12777 5.28092,2.40553 1.90789,1.14334 2.48387,1.64882 2.48387,2.17977 0,0.38021 -0.3621,3.82307 -0.80467,7.65082 -1.02708,8.88321 -1.12647,12.89614 -0.34891,14.08668 1.29554,1.9836 4.04653,2.77619 6.82869,1.9674 3.34844,-0.97342 3.97054,-2.47212 4.94114,-11.90379 1.03456,-10.05322 1.39266,-11.20892 3.81735,-12.31964 2.08699,-0.95603 7.560714,-3.06394 7.681034,-2.95794 0.0597,0.0526 -0.52657,1.48122 -1.30283,3.17472 -1.938534,4.22907 -4.876564,11.66002 -6.389574,16.16071 -2.17597,6.47281 -2.64906,9.8209 -3.1931,22.59779 -0.35004,8.22071 -0.6631,10.90396 -1.32225,11.33277 -0.2126,0.13831 -1.08885,0.47292 -1.94724,0.74359 -2.71569,0.85633 -22.93174,1.28073 -36.8883,0.7744 z"
     id="path79" /><path
     style="fill:#ffffff;stroke:none;stroke-width:0.119239;stroke-linecap:round;stroke-linejoin:round;stroke-dasharray:none"
     d="m 176.1183,377.30904 c -3.62846,-4.35255 -5.77907,-9.4238 -7.11503,-16.77769 -0.68693,-3.78124 -0.98171,-15.35378 -0.45911,-18.02337 0.9555,-4.88091 6.80721,-17.42888 12.19254,-26.14485 5.96011,-9.64621 6.56636,-10.50171 6.95501,-9.81442 0.51162,0.90473 0.6722,21.51197 0.24557,31.51225 -0.89308,20.93392 -1.64304,25.91311 -4.77141,31.67861 -1.20563,2.22196 -5.52042,9.05215 -5.71845,9.05215 -0.0512,0 -0.64931,-0.66721 -1.32912,-1.48268 z"
     id="path80" /><path
     style="fill:#ffffff;stroke:none;stroke-width:0.119239;stroke-linecap:round;stroke-linejoin:round;stroke-dasharray:none"
     d="m 205.80856,363.41737 -3.46948,-3.5103 -0.35626,-20.28929 c -0.35614,-20.28335 -0.49778,-43.48969 -0.26684,-43.72063 0.17352,-0.17352 3.73747,13.72078 5.04945,19.68562 4.06043,18.46039 4.93627,30.07133 3.42258,45.3728 -0.26084,2.63683 -0.5723,5.05925 -0.69212,5.38316 -0.18378,0.4968 -0.76057,0.0398 -3.68733,-2.92136 z"
     id="path81" /><path
     style="fill:#ffffff;stroke:none;stroke-width:0.119239;stroke-linecap:round;stroke-linejoin:round;stroke-dasharray:none"
     d="m 196.99716,393.60367 c -1.3153,-0.57095 -4.62211,-2.92384 -5.62343,-4.00125 -0.70832,-0.76216 -0.73879,-0.95435 -0.55784,-3.51857 0.13942,-1.97558 0.40438,-3.14764 0.97535,-4.31467 0.70823,-1.44758 5.02917,-6.98689 6.12843,-7.85647 0.36099,-0.28556 1.30526,0.55891 4.94631,4.42347 2.4751,2.62704 4.70909,5.12074 4.96441,5.54154 0.43537,0.71752 0.37869,0.93667 -0.91051,3.52137 -2.75172,5.51687 -6.33922,7.76009 -9.92272,6.20458 z"
     id="path82" /><path
     style="fill:#ffffff;stroke:none;stroke-width:0.119239;stroke-linecap:round;stroke-linejoin:round;stroke-dasharray:none"
     d="m 191.90742,418.90562 c -4.72355,-1.65191 -8.82829,-4.47734 -10.39942,-7.15825 -0.66702,-1.1382 -0.77628,-1.70326 -0.76458,-3.95378 0.008,-1.62321 0.21703,-3.2217 0.54625,-4.1865 0.4696,-1.3761 0.63049,-1.55427 1.36022,-1.50617 1.08122,0.0712 5.69399,2.07661 7.28809,3.1684 2.76362,1.89278 4.43688,5.84523 4.74728,11.21366 0.21262,3.67719 0.38345,3.5282 -2.77784,2.42264 z"
     id="path83" /><path
     style="fill:#ffffff;stroke:none;stroke-width:0.119239;stroke-linecap:round;stroke-linejoin:round;stroke-dasharray:none"
     d="m 206.82031,416.01476 c -0.0986,-1.15883 -0.33416,-3.35122 -0.5236,-4.87198 l -0.34446,-2.76502 3.8216,-3.63391 c 2.10187,-1.99865 3.93411,-3.67822 4.07163,-3.73238 0.65205,-0.25675 3.09576,5.94429 3.08611,7.83113 -0.0195,3.80008 -5.10692,9.26827 -8.63037,9.27621 l -1.30176,0.003 z"
     id="path84" /><path
     style="fill:#ffffff;stroke:none;stroke-width:0.119239;stroke-linecap:round;stroke-linejoin:round;stroke-dasharray:none"
     d="m 206.48155,485.24944 c -4.34311,-0.26525 -6.40927,-0.68185 -7.01773,-1.41502 -0.69216,-0.83399 -0.91346,-2.74279 -1.24932,-10.77553 -0.18304,-4.37781 -0.47423,-9.22383 -0.64709,-10.76893 -0.60955,-5.44834 -4.03042,-16.80427 -7.95668,-26.41304 -1.12881,-2.76256 -1.99683,-5.07837 -1.92894,-5.14626 0.0679,-0.0679 1.45663,0.41901 3.0861,1.08202 1.62945,0.66301 3.68955,1.4469 4.57798,1.74199 0.88842,0.29509 1.61533,0.56928 1.61533,0.60932 0,0.04 0.21209,1.67919 0.47131,3.64259 0.25923,1.96338 0.754,6.42727 1.0995,9.91973 0.67359,6.809 0.92076,7.66533 2.56475,8.88583 3.67513,2.72843 8.37463,1.28882 9.30996,-2.85196 0.1688,-0.74732 2.9e-4,-3.81002 -0.48388,-8.79416 -0.40859,-4.20613 -0.80443,-8.56214 -0.87963,-9.68003 l -0.13674,-2.03252 2.69303,-1.6044 c 1.48116,-0.88242 2.96667,-1.65335 3.30113,-1.71319 1.16314,-0.20809 1.39134,1.08822 1.71823,9.76035 0.49291,13.07624 0.73518,15.26786 2.25624,20.40872 2.54246,8.59307 6.01788,12.29913 19.80164,21.11574 l 5.53366,3.53954 -1.22835,0.22159 c -1.84372,0.33261 -31.8361,0.55252 -36.5005,0.26762 z"
     id="path85" /><path
     style="fill:#ffffff;stroke:none;stroke-width:0.119239;stroke-linecap:round;stroke-linejoin:round;stroke-dasharray:none"
     d="m 267.4525,297.32241 c -0.11973,-11.05987 -0.0576,-10.80894 -3.43171,-13.86232 -3.06998,-2.77816 -5.65011,-3.21429 -8.52059,-1.44023 -1.93497,1.19587 -3.89286,4.42218 -3.90714,6.43835 -0.008,1.16127 -1.11203,2.89754 -2.24713,3.53465 -1.37374,0.77105 -1.81803,0.0989 -1.81522,-2.74635 0.003,-2.9488 0.39414,-5.4222 1.42167,-8.98828 1.19865,-4.15988 2.62587,-6.75845 5.58712,-10.1726 3.13392,-3.61325 3.84538,-4.78193 5.17673,-8.50358 0.90198,-2.52147 1.02059,-3.26057 1.15761,-7.21381 0.16959,-4.89301 -0.25487,-9.49553 -1.2146,-13.17 -0.81029,-3.10232 -4.08563,-11.3551 -7.01604,-17.6781 -1.26806,-2.7361 -2.30556,-5.01864 -2.30556,-5.07232 0,-0.0537 0.28494,-0.0976 0.63318,-0.0976 1.4245,0 7.31537,-3.63873 7.58008,-4.68215 0.16393,-0.64618 2.13791,3.66004 3.461,7.55018 2.47815,7.2862 3.10605,10.56353 4.86271,25.3809 1.82432,15.38811 2.0301,16.62809 3.30261,19.90042 2.32085,5.96822 3.87606,10.76502 4.22479,13.03066 0.45647,2.9656 0.19124,11.3836 -0.47169,14.97066 -0.98704,5.34086 -1.82269,7.0926 -5.29201,11.09329 l -1.08274,1.24856 z"
     id="path86" /><path
     style="fill:#ffffff;stroke:none;stroke-width:0.119239;stroke-linecap:round;stroke-linejoin:round;stroke-dasharray:none"
     d="m 244.87514,250.54125 c -1.99191,-0.9098 -3.21107,-2.43272 -5.18616,-6.47831 -2.57328,-5.27091 -3.29577,-7.61203 -4.0235,-13.03762 -0.34787,-2.59349 -0.68107,-5.03147 -0.74045,-5.41775 -0.10408,-0.67712 -0.0213,-0.70233 2.30683,-0.70233 h 2.41481 l 2.50145,6.00876 c 3.67251,8.82178 4.48391,11.47163 4.91584,16.05387 0.23137,2.45455 -0.005,4.16123 -0.57488,4.15053 -0.20096,-0.004 -0.92723,-0.26349 -1.61394,-0.57715 z"
     id="path87" /><path
     style="fill:#ffffff;stroke:none;stroke-width:0.119239;stroke-linecap:round;stroke-linejoin:round;stroke-dasharray:none"
     d="m 228.07804,210.78078 c -1.11387,-1.49966 -4.61759,-8.11426 -5.91091,-11.15911 -1.98315,-4.6689 -2.76864,-9.02737 -2.84292,-15.77475 -0.0552,-5.00596 0.25998,-5.76311 2.39826,-5.76311 1.73939,0 4.30473,1.28173 5.52285,2.75941 2.14364,2.60043 5.02673,9.51075 6.06481,14.53642 0.57956,2.80581 0.6878,13.57856 0.1466,14.5898 -0.4026,0.75227 -2.60085,1.80933 -3.78268,1.81895 -0.59248,0.005 -1.06613,-0.29421 -1.59601,-1.00761 z"
     id="path88" /></svg>
