<?xml version="1.0" encoding="UTF-8" standalone="no"?>
<!-- Created with Inkscape (http://www.inkscape.org/) -->

<svg
   width="236.71893"
   height="509.27063"
   viewBox="0 0 236.71893 509.27063"
   version="1.1"
   id="svg1"
   xml:space="preserve"
   sodipodi:docname="Template.svg"
   inkscape:version="1.4 (86a8ad7, 2024-10-11)"
   inkscape:export-filename="Suit-case.svg"
   inkscape:export-xdpi="96"
   inkscape:export-ydpi="96"
   xmlns:inkscape="http://www.inkscape.org/namespaces/inkscape"
   xmlns:sodipodi="http://sodipodi.sourceforge.net/DTD/sodipodi-0.dtd"
   xmlns="http://www.w3.org/2000/svg"
   xmlns:svg="http://www.w3.org/2000/svg"><sodipodi:namedview
     id="namedview1"
     pagecolor="#ffffff"
     bordercolor="#000000"
     borderopacity="0.25"
     inkscape:showpageshadow="2"
     inkscape:pageopacity="0.0"
     inkscape:pagecheckerboard="true"
     inkscape:deskcolor="#d1d1d1"
     inkscape:zoom="1.4142136"
     inkscape:cx="308.65211"
     inkscape:cy="285.31759"
     inkscape:window-width="2560"
     inkscape:window-height="1494"
     inkscape:window-x="585"
     inkscape:window-y="2149"
     inkscape:window-maximized="1"
     inkscape:current-layer="svg1"><inkscape:page
       x="0"
       y="0"
       width="236.71893"
       height="509.27063"
       id="page2"
       margin="0"
       bleed="0" /></sodipodi:namedview><defs
     id="defs1" /><g
     id="g445"
     transform="matrix(0.37680962,0,0,0.37680962,60.970236,118.96154)"><path
       style="fill:#d0d0d0;fill-opacity:1"
       d="m 299.75,1035.2943 c 1.2375,-0.2384 3.2625,-0.2384 4.5,0 1.2375,0.2383 0.225,0.4333 -2.25,0.4333 -2.475,0 -3.4875,-0.195 -2.25,-0.4333 z m -343.988341,-1.0016 c 1.243913,-0.2392 3.043913,-0.2301 4,0.02 0.956088,0.2503 -0.06166,0.446 -2.261659,0.4349 -2.2,-0.011 -2.982253,-0.2159 -1.738341,-0.4551 z M 339.26903,1000.307 c 0.97297,-0.2535 2.32297,-0.2369 3,0.037 0.67703,0.2739 -0.11903,0.4813 -1.76903,0.461 -1.65,-0.02 -2.20394,-0.2445 -1.23097,-0.4981 z M -22.842105,620 c 0,-1.375 0.226973,-1.9375 0.504386,-1.25 0.277412,0.6875 0.277412,1.8125 0,2.5 -0.277413,0.6875 -0.504386,0.125 -0.504386,-1.25 z m 315.921055,-6.58333 c 0.048,-1.16495 0.28494,-1.4019 0.60416,-0.60417 0.28887,0.72187 0.25335,1.58438 -0.0789,1.91667 -0.33229,0.33229 -0.56864,-0.25834 -0.52522,-1.3125 z m 126,-148 c 0.048,-1.16495 0.28494,-1.4019 0.60416,-0.60417 0.28887,0.72187 0.25335,1.58438 -0.0789,1.91667 -0.33229,0.33229 -0.56864,-0.25834 -0.52522,-1.3125 z m 44,-80 c 0.048,-1.16495 0.28494,-1.4019 0.60416,-0.60417 0.28887,0.72187 0.25335,1.58438 -0.0789,1.91667 -0.33229,0.33229 -0.56864,-0.25834 -0.52522,-1.3125 z m -621,-4 c 0.048,-1.16495 0.28494,-1.4019 0.60416,-0.60417 0.28887,0.72187 0.25335,1.58438 -0.0789,1.91667 -0.33229,0.33229 -0.56864,-0.25834 -0.52522,-1.3125 z m 385.26613,-38.9598 c -0.32569,-0.84872 -0.36872,-1.76657 -0.0956,-2.03966 0.27309,-0.2731 0.73656,0.42131 1.02992,1.54313 0.62315,2.38293 -0.0692,2.75089 -0.9343,0.49653 z M 463.19495,337.5 c 0.0204,-1.65 0.2445,-2.20394 0.49804,-1.23097 0.25354,0.97297 0.23687,2.32297 -0.0371,3 -0.27393,0.67703 -0.48137,-0.11903 -0.46099,-1.76903 z m -294.116,-231.08333 c 0.048,-1.16495 0.28494,-1.4019 0.60416,-0.60417 0.28887,0.72187 0.25335,1.58438 -0.0789,1.91667 -0.33229,0.33229 -0.56864,-0.25834 -0.52522,-1.3125 z"
       id="path452" /><path
       style="fill:#b9b9b9;fill-opacity:1"
       d="m 288.75,1035.2766 c 1.7875,-0.2218 4.7125,-0.2218 6.5,0 1.7875,0.2218 0.325,0.4033 -3.25,0.4033 -3.575,0 -5.0375,-0.1815 -3.25,-0.4033 z m -326.480968,-0.9696 c 0.972967,-0.2535 2.322967,-0.2369 3,0.037 0.677032,0.2739 -0.119032,0.4813 -1.769032,0.461 -1.65,-0.02 -2.203936,-0.2445 -1.230968,-0.4981 z m 371.999998,-34 c 0.97297,-0.2535 2.32297,-0.2369 3,0.037 0.67703,0.2739 -0.11903,0.4813 -1.76903,0.461 -1.65,-0.02 -2.20394,-0.2445 -1.23097,-0.4981 z M 53.157895,933 c 0,-1.375 0.226973,-1.9375 0.504386,-1.25 0.277412,0.6875 0.277412,1.8125 0,2.5 -0.277413,0.6875 -0.504386,0.125 -0.504386,-1.25 z M -22.767997,612 c 0,-1.925 0.205795,-2.7125 0.457323,-1.75 0.251527,0.9625 0.251527,2.5375 0,3.5 -0.251528,0.9625 -0.457323,0.175 -0.457323,-1.75 z m 315.846947,-1.58333 c 0.048,-1.16495 0.28494,-1.4019 0.60416,-0.60417 0.28887,0.72187 0.25335,1.58438 -0.0789,1.91667 -0.33229,0.33229 -0.56864,-0.25834 -0.52522,-1.3125 z M -123.59501,539.75 -125.5,537.5 l 2.25,1.90499 c 2.11444,1.79022 2.70524,2.59501 1.90499,2.59501 -0.18976,0 -1.20226,-1.0125 -2.25,-2.25 z m 424.67396,-21.33333 c 0.048,-1.16495 0.28494,-1.4019 0.60416,-0.60417 0.28887,0.72187 0.25335,1.58438 -0.0789,1.91667 -0.33229,0.33229 -0.56864,-0.25834 -0.52522,-1.3125 z M 463.19495,332.5 c 0.0204,-1.65 0.2445,-2.20394 0.49804,-1.23097 0.25354,0.97297 0.23687,2.32297 -0.0371,3 -0.27393,0.67703 -0.48137,-0.11903 -0.46099,-1.76903 z m -0.116,-31.08333 c 0.048,-1.16495 0.28494,-1.4019 0.60416,-0.60417 0.28887,0.72187 0.25335,1.58438 -0.0789,1.91667 -0.33229,0.33229 -0.56864,-0.25834 -0.52522,-1.3125 z M 169.15789,110 c 0,-1.375 0.22698,-1.9375 0.50439,-1.25 0.27741,0.6875 0.27741,1.8125 0,2.5 -0.27741,0.6875 -0.50439,0.125 -0.50439,-1.25 z m 0.92106,-81.583333 c 0.048,-1.164943 0.28494,-1.4019 0.60416,-0.604167 0.28887,0.721875 0.25335,1.584375 -0.0789,1.916667 -0.33229,0.332291 -0.56864,-0.258334 -0.52522,-1.3125 z M 77.078947,-162.58333 c 0.04798,-1.16495 0.284941,-1.4019 0.604167,-0.60417 0.288871,0.72188 0.253344,1.58438 -0.07895,1.91667 -0.332292,0.33229 -0.568641,-0.25834 -0.52522,-1.3125 z m 151.000003,0 c 0.048,-1.16495 0.28494,-1.4019 0.60416,-0.60417 0.28887,0.72188 0.25335,1.58438 -0.0789,1.91667 -0.33229,0.33229 -0.56864,-0.25834 -0.52522,-1.3125 z m 37,-25 c 0.048,-1.16495 0.28494,-1.4019 0.60416,-0.60417 0.28887,0.72188 0.25335,1.58438 -0.0789,1.91667 -0.33229,0.33229 -0.56864,-0.25834 -0.52522,-1.3125 z M 72,-281.37756 c 0,-0.20765 0.7875,-0.99515 1.75,-1.75 1.586056,-1.24387 1.621426,-1.2085 0.377555,0.37756 C 72.821186,-281.08425 72,-280.55452 72,-281.37756 Z"
       id="path451" /><path
       style="fill:#a3a3a3;fill-opacity:1"
       d="m 281.25,1035.3107 c 0.9625,-0.2516 2.5375,-0.2516 3.5,0 0.9625,0.2515 0.175,0.4573 -1.75,0.4573 -1.925,0 -2.7125,-0.2058 -1.75,-0.4573 z m -313.980968,-1.0037 c 0.972967,-0.2535 2.322967,-0.2369 3,0.037 0.677032,0.2739 -0.119032,0.4813 -1.769032,0.461 -1.65,-0.02 -2.203936,-0.2445 -1.230968,-0.4981 z M 328.25,1000.3107 c 0.9625,-0.2516 2.5375,-0.2516 3.5,0 0.9625,0.2515 0.175,0.4573 -1.75,0.4573 -1.925,0 -2.7125,-0.2058 -1.75,-0.4573 z M 53.078947,936.41667 c 0.04798,-1.16495 0.284941,-1.4019 0.604167,-0.60417 0.288871,0.72187 0.253344,1.58437 -0.07895,1.91667 -0.332292,0.33229 -0.568641,-0.25834 -0.52522,-1.3125 z M -43.727636,903 c 0,-2.475 0.195016,-3.4875 0.433369,-2.25 0.238353,1.2375 0.238353,3.2625 0,4.5 -0.238353,1.2375 -0.433369,0.225 -0.433369,-2.25 z m 392.806586,1.41667 c 0.048,-1.16495 0.28494,-1.4019 0.60416,-0.60417 0.28887,0.72187 0.25335,1.58437 -0.0789,1.91667 -0.33229,0.33229 -0.56864,-0.25834 -0.52522,-1.3125 z M 3.2320027,507 c 0,-1.925 0.2057953,-2.7125 0.4573228,-1.75 0.2515276,0.9625 0.2515276,2.5375 0,3.5 C 3.437798,509.7125 3.2320027,508.925 3.2320027,507 Z M -113.92105,466.41667 c 0.048,-1.16495 0.28494,-1.4019 0.60416,-0.60417 0.28887,0.72187 0.25335,1.58438 -0.0789,1.91667 -0.3323,0.33229 -0.56864,-0.25834 -0.52522,-1.3125 z m -47.884,-4.91667 c 0.0204,-1.65 0.2445,-2.20394 0.49804,-1.23097 0.25354,0.97297 0.23687,2.32297 -0.0371,3 -0.27393,0.67703 -0.48137,-0.11903 -0.46099,-1.76903 z M 148.75,456.33772 c 0.6875,-0.27741 1.8125,-0.27741 2.5,0 0.6875,0.27741 0.125,0.50439 -1.25,0.50439 -1.375,0 -1.9375,-0.22698 -1.25,-0.50439 z M 463.32814,320.5 c 0.004,-3.85 0.18518,-5.30246 0.40166,-3.2277 0.21647,2.07477 0.21284,5.22477 -0.008,7 -0.22091,1.77524 -0.39803,0.0777 -0.39359,-3.7723 z m -0.24919,-16.08333 c 0.048,-1.16495 0.28494,-1.4019 0.60416,-0.60417 0.28887,0.72187 0.25335,1.58438 -0.0789,1.91667 -0.33229,0.33229 -0.56864,-0.25834 -0.52522,-1.3125 z M 288.5,182 c 0.99549,-1.1 2.03498,-2 2.30998,-2 0.275,0 -0.31449,0.9 -1.30998,2 -0.99549,1.1 -2.03498,2 -2.30998,2 -0.275,0 0.31449,-0.9 1.30998,-2 z M 169.07895,113.41667 c 0.048,-1.16495 0.28494,-1.4019 0.60416,-0.60417 0.28887,0.72187 0.25335,1.58438 -0.0789,1.91667 -0.33229,0.33229 -0.56864,-0.25834 -0.52522,-1.3125 z M 152.8125,-62.683114 c 0.72187,-0.288871 1.58438,-0.253344 1.91667,0.07895 0.33229,0.332292 -0.25834,0.568641 -1.3125,0.52522 -1.16495,-0.04798 -1.4019,-0.284941 -0.60417,-0.604167 z M 228.15789,-159 c 0,-1.375 0.22698,-1.9375 0.50439,-1.25 0.27741,0.6875 0.27741,1.8125 0,2.5 -0.27741,0.6875 -0.50439,0.125 -0.50439,-1.25 z m -0.0789,-6.58333 c 0.048,-1.16495 0.28494,-1.4019 0.60416,-0.60417 0.28887,0.72188 0.25335,1.58438 -0.0789,1.91667 -0.33229,0.33229 -0.56864,-0.25834 -0.52522,-1.3125 z M 265.15789,-174 c 0,-1.375 0.22698,-1.9375 0.50439,-1.25 0.27741,0.6875 0.27741,1.8125 0,2.5 -0.27741,0.6875 -0.50439,0.125 -0.50439,-1.25 z m 0.12812,-7.5 c 0.008,-2.75 0.20172,-3.75631 0.43157,-2.23625 0.22986,1.52006 0.22371,3.77006 -0.0136,5 -0.23736,1.22994 -0.42542,-0.0137 -0.41792,-2.76375 z M 145.8125,-233.68311 c 0.72187,-0.28887 1.58438,-0.25335 1.91667,0.0789 0.33229,0.3323 -0.25834,0.56864 -1.3125,0.52522 -1.16495,-0.048 -1.4019,-0.28494 -0.60417,-0.60416 z"
       id="path450" /><path
       style="fill:#8c8c8c;fill-opacity:1"
       d="m -27.75,1034.3107 c 0.9625,-0.2516 2.5375,-0.2516 3.5,0 0.9625,0.2515 0.175,0.4573 -1.75,0.4573 -1.925,0 -2.7125,-0.2058 -1.75,-0.4573 z m 10,-0.039 c 2.0625,-0.2157 5.4375,-0.2157 7.5,0 2.0625,0.2158 0.375,0.3923 -3.75,0.3923 -4.125,0 -5.8125,-0.1765 -3.75,-0.3923 z m 37.5,0.023 c 1.2375,-0.2384 3.2625,-0.2384 4.5,0 1.2375,0.2383 0.225,0.4333 -2.25,0.4333 -2.475,0 -3.4875,-0.195 -2.25,-0.4333 z m 304,-33.9566 c 0.6875,-0.2774 1.8125,-0.2774 2.5,0 0.6875,0.2774 0.125,0.5044 -1.25,0.5044 -1.375,0 -1.9375,-0.227 -1.25,-0.5044 z m -44.9375,-1.02081 c 0.72187,-0.28887 1.58438,-0.25335 1.91667,0.0789 0.33229,0.3323 -0.25834,0.56864 -1.3125,0.52522 -1.16495,-0.048 -1.4019,-0.28494 -0.60417,-0.60416 z m 70.26645,-91.90022 c 0.048,-1.16495 0.28494,-1.4019 0.60416,-0.60417 0.28887,0.72187 0.25335,1.58437 -0.0789,1.91667 -0.33229,0.33229 -0.56864,-0.25834 -0.52522,-1.3125 z M 349.30987,897.5 c 0.006,-3.3 0.1923,-4.52944 0.41486,-2.73209 0.22256,1.79735 0.21797,4.49735 -0.0102,6 -0.22818,1.50265 -0.41027,0.0321 -0.40466,-3.26791 z M -43.767997,896 c 0,-1.925 0.205795,-2.7125 0.457323,-1.75 0.251527,0.9625 0.251527,2.5375 0,3.5 -0.251528,0.9625 -0.457323,0.175 -0.457323,-1.75 z m 32.962946,-150.5 c 0.02038,-1.65 0.244498,-2.20394 0.498042,-1.23097 0.253543,0.97297 0.236869,2.32297 -0.03705,3 -0.273923,0.67703 -0.481368,-0.11903 -0.460988,-1.76903 z M 233.27236,728 c 0,-2.475 0.19502,-3.4875 0.43337,-2.25 0.23836,1.2375 0.23836,3.2625 0,4.5 -0.23835,1.2375 -0.43337,0.225 -0.43337,-2.25 z M -48.805051,468.5 c 0.02038,-1.65 0.244498,-2.20394 0.498042,-1.23097 0.253543,0.97297 0.236869,2.32297 -0.03705,3 -0.273923,0.67703 -0.481368,-0.11903 -0.460988,-1.76903 z m -112.999999,-2 c 0.0204,-1.65 0.2445,-2.20394 0.49804,-1.23097 0.25354,0.97297 0.23687,2.32297 -0.0371,3 -0.27393,0.67703 -0.48137,-0.11903 -0.46099,-1.76903 z M 433.29966,462 c 0,-3.025 0.18747,-4.2625 0.41659,-2.75 0.22913,1.5125 0.22913,3.9875 0,5.5 -0.22912,1.5125 -0.41659,0.275 -0.41659,-2.75 z M 153.75,456.29427 c 1.2375,-0.23836 3.2625,-0.23836 4.5,0 1.2375,0.23835 0.225,0.43337 -2.25,0.43337 -2.475,0 -3.4875,-0.19502 -2.25,-0.43337 z m -21.9375,-37.97738 c 0.72187,-0.28887 1.58438,-0.25335 1.91667,0.0789 0.33229,0.33229 -0.25834,0.56864 -1.3125,0.52522 -1.16495,-0.048 -1.4019,-0.28494 -0.60417,-0.60416 z m -289.73355,-30.90022 c 0.048,-1.16495 0.28494,-1.4019 0.60416,-0.60417 0.28887,0.72187 0.25335,1.58438 -0.0789,1.91667 -0.33229,0.33229 -0.56864,-0.25834 -0.52522,-1.3125 z M 463.27236,310 c 0,-2.475 0.19502,-3.4875 0.43337,-2.25 0.23836,1.2375 0.23836,3.2625 0,4.5 -0.23835,1.2375 -0.43337,0.225 -0.43337,-2.25 z M 169.07895,116.41667 c 0.048,-1.16495 0.28494,-1.4019 0.60416,-0.60417 0.28887,0.72187 0.25335,1.58438 -0.0789,1.91667 -0.33229,0.33229 -0.56864,-0.25834 -0.52522,-1.3125 z M -5.7679973,11 c 0,-1.925 0.2057953,-2.7125 0.4573228,-1.75 0.2515276,0.9625 0.2515276,2.5375 0,3.5 C -5.562202,13.7125 -5.7679973,12.925 -5.7679973,11 Z M 311.07895,10.416667 c 0.048,-1.1649433 0.28494,-1.4018997 0.60416,-0.604167 0.28887,0.721875 0.25335,1.584375 -0.0789,1.916667 -0.33229,0.332291 -0.56864,-0.258334 -0.52522,-1.3125 z M 265.15789,-166 c 0,-1.375 0.22698,-1.9375 0.50439,-1.25 0.27741,0.6875 0.27741,1.8125 0,2.5 -0.27741,0.6875 -0.50439,0.125 -0.50439,-1.25 z m -0.0789,-4.58333 c 0.048,-1.16495 0.28494,-1.4019 0.60416,-0.60417 0.28887,0.72188 0.25335,1.58438 -0.0789,1.91667 -0.33229,0.33229 -0.56864,-0.25834 -0.52522,-1.3125 z"
       id="path449" /><path
       style="fill:#767676;fill-opacity:1"
       d="m -0.70841181,1034.2575 c 3.73537351,-0.1929 9.58537351,-0.1915 12.99999981,0 3.414627,0.1947 0.358412,0.3525 -6.791588,0.3508 -7.15,0 -9.9437853,-0.1611 -6.20841181,-0.354 z M 312.25,1000.2715 c 2.0625,-0.2157 5.4375,-0.2157 7.5,0 2.0625,0.2158 0.375,0.3923 -3.75,0.3923 -4.125,0 -5.8125,-0.1765 -3.75,-0.3923 z m 36.82895,-109.85483 c 0.048,-1.16495 0.28494,-1.4019 0.60416,-0.60417 0.28887,0.72187 0.25335,1.58437 -0.0789,1.91667 -0.33229,0.33229 -0.56864,-0.25834 -0.52522,-1.3125 z M 233.15789,734 c 0,-1.375 0.22698,-1.9375 0.50439,-1.25 0.27741,0.6875 0.27741,1.8125 0,2.5 -0.27741,0.6875 -0.50439,0.125 -0.50439,-1.25 z M 72.252183,727.5 c 0.0111,-2.2 0.215885,-2.98225 0.455078,-1.73834 0.239193,1.24391 0.230112,3.04391 -0.02018,4 C 72.436788,730.71775 72.241084,729.7 72.252183,727.5 Z M -96.1875,552.31689 c 0.721875,-0.28887 1.584375,-0.25335 1.916667,0.0789 0.332291,0.33229 -0.258334,0.56864 -1.3125,0.52522 -1.164943,-0.048 -1.4019,-0.28494 -0.604167,-0.60416 z m 493.9375,0.0208 c 0.6875,-0.27741 1.8125,-0.27741 2.5,0 0.6875,0.27741 0.125,0.50439 -1.25,0.50439 -1.375,0 -1.9375,-0.22698 -1.25,-0.50439 z m 35.32895,-83.92105 c 0.048,-1.16495 0.28494,-1.4019 0.60416,-0.60417 0.28887,0.72187 0.25335,1.58438 -0.0789,1.91667 -0.33229,0.33229 -0.56864,-0.25834 -0.52522,-1.3125 z M -127.84211,465 c 0,-1.375 0.22698,-1.9375 0.50439,-1.25 0.27741,0.6875 0.27741,1.8125 0,2.5 -0.27741,0.6875 -0.50439,0.125 -0.50439,-1.25 z m 0.0371,-5.5 c 0.0204,-1.65 0.2445,-2.20394 0.49804,-1.23097 0.25354,0.97297 0.23687,2.32297 -0.037,3 -0.27393,0.67703 -0.48137,-0.11903 -0.46099,-1.76903 z M 128.8125,418.31689 c 0.72187,-0.28887 1.58438,-0.25335 1.91667,0.0789 0.33229,0.33229 -0.25834,0.56864 -1.3125,0.52522 -1.16495,-0.048 -1.4019,-0.28494 -0.60417,-0.60416 z m 22.96393,-34.05039 c 2.35204,-0.21124 5.95204,-0.20827 8,0.007 2.04796,0.21487 0.12357,0.38771 -4.27643,0.38408 -4.4,-0.004 -6.07561,-0.17944 -3.72357,-0.39069 z m 17.30252,-264.84983 c 0.048,-1.16495 0.28494,-1.4019 0.60416,-0.60417 0.28887,0.72187 0.25335,1.58438 -0.0789,1.91667 -0.33229,0.33229 -0.56864,-0.25834 -0.52522,-1.3125 z m 109,-109.000003 c 0.048,-1.1649433 0.28494,-1.4018997 0.60416,-0.604167 0.28887,0.721875 0.25335,1.584375 -0.0789,1.916667 -0.33229,0.332291 -0.56864,-0.258334 -0.52522,-1.3125 z M 311.15789,7 c 0,-1.375 0.22698,-1.9375 0.50439,-1.25 0.27741,0.6875 0.27741,1.8125 0,2.5 -0.27741,0.6875 -0.50439,0.125 -0.50439,-1.25 z M 163.8125,-233.68311 c 0.72187,-0.28887 1.58438,-0.25335 1.91667,0.0789 0.33229,0.3323 -0.25834,0.56864 -1.3125,0.52522 -1.16495,-0.048 -1.4019,-0.28494 -0.60417,-0.60416 z"
       id="path448" /><path
       style="fill:#606060;fill-opacity:1"
       d="m 27.8125,1034.3169 c 0.721875,-0.2889 1.584375,-0.2534 1.916667,0.079 0.332291,0.3323 -0.258334,0.5687 -1.3125,0.5253 -1.164943,-0.048 -1.4019,-0.285 -0.604167,-0.6042 z M 61.232003,997 c 0,-1.925 0.205795,-2.7125 0.457323,-1.75 0.251527,0.9625 0.251527,2.5375 0,3.5 -0.251528,0.9625 -0.457323,0.175 -0.457323,-1.75 z M 352.07895,775.41667 c 0.048,-1.16495 0.28494,-1.4019 0.60416,-0.60417 0.28887,0.72187 0.25335,1.58437 -0.0789,1.91667 -0.33229,0.33229 -0.56864,-0.25834 -0.52522,-1.3125 z M 72.194949,733.5 c 0.02038,-1.65 0.244498,-2.20394 0.498042,-1.23097 0.253543,0.97297 0.236869,2.32297 -0.03705,3 C 72.382014,735.94606 72.174569,735.15 72.194949,733.5 Z M 46.8125,730.31689 c 0.721875,-0.28887 1.584375,-0.25335 1.916667,0.0789 0.332291,0.3323 -0.258334,0.56864 -1.3125,0.52522 -1.164943,-0.048 -1.4019,-0.28494 -0.604167,-0.60416 z M 72.232003,719 c 0,-1.925 0.205795,-2.7125 0.457323,-1.75 0.251527,0.9625 0.251527,2.5375 0,3.5 -0.251528,0.9625 -0.457323,0.175 -0.457323,-1.75 z M 3.0789474,514.41667 c 0.047984,-1.16495 0.2849403,-1.4019 0.6041666,-0.60417 0.2888706,0.72187 0.2533443,1.58438 -0.078947,1.91667 -0.3322917,0.33229 -0.5686404,-0.25834 -0.5252196,-1.3125 z M 144.26903,384.30701 c 0.97297,-0.25354 2.32297,-0.23687 3,0.0371 0.67703,0.27393 -0.11903,0.48137 -1.76903,0.46099 -1.65,-0.0204 -2.20394,-0.2445 -1.23097,-0.49804 z m -268.19008,-4.89034 c 0.048,-1.16495 0.28494,-1.4019 0.60416,-0.60417 0.28887,0.72187 0.25335,1.58438 -0.0789,1.91667 -0.3323,0.33229 -0.56864,-0.25834 -0.52522,-1.3125 z m 201.999997,-47 c 0.04798,-1.16495 0.284941,-1.4019 0.604167,-0.60417 0.288871,0.72187 0.253344,1.58438 -0.07895,1.91667 -0.332292,0.33229 -0.568641,-0.25834 -0.52522,-1.3125 z M 393.87244,3.25 c -1.24387,-1.5860556 -1.2085,-1.6214259 0.37756,-0.3775553 0.9625,0.7548446 1.75,1.5423446 1.75,1.75 C 396,5.4454789 395.17881,4.915748 393.87244,3.25 Z M 144.8125,-200.68311 c 0.72187,-0.28887 1.58438,-0.25335 1.91667,0.0789 0.33229,0.3323 -0.25834,0.56864 -1.3125,0.52522 -1.16495,-0.048 -1.4019,-0.28494 -0.60417,-0.60416 z m 4.45653,-0.01 c 0.97297,-0.25354 2.32297,-0.23687 3,0.0371 0.67703,0.27393 -0.11903,0.48137 -1.76903,0.46099 -1.65,-0.0204 -2.20394,-0.2445 -1.23097,-0.49804 z m 5.54347,0.01 c 0.72187,-0.28887 1.58438,-0.25335 1.91667,0.0789 0.33229,0.3323 -0.25834,0.56864 -1.3125,0.52522 -1.16495,-0.048 -1.4019,-0.28494 -0.60417,-0.60416 z m -0.0446,-33.04162 c 1.79735,-0.22256 4.49735,-0.21797 6,0.0102 1.50265,0.22818 0.0321,0.41027 -3.26791,0.40466 -3.3,-0.006 -4.52944,-0.1923 -2.73209,-0.41486 z"
       id="path447" /><path
       style="fill:#494949;fill-opacity:1"
       d="m 304.26903,1000.307 c 0.97297,-0.2535 2.32297,-0.2369 3,0.037 0.67703,0.2739 -0.11903,0.4813 -1.76903,0.461 -1.65,-0.02 -2.20394,-0.2445 -1.23097,-0.4981 z M -46.921053,828.41667 c 0.04798,-1.16495 0.284941,-1.4019 0.604167,-0.60417 0.288871,0.72187 0.253344,1.58437 -0.07895,1.91667 -0.332292,0.33229 -0.568641,-0.25834 -0.52522,-1.3125 z m 363.000003,-82 c 0.048,-1.16495 0.28494,-1.4019 0.60416,-0.60417 0.28887,0.72187 0.25335,1.58437 -0.0789,1.91667 -0.33229,0.33229 -0.56864,-0.25834 -0.52522,-1.3125 z m -83,-7 c 0.048,-1.16495 0.28494,-1.4019 0.60416,-0.60417 0.28887,0.72187 0.25335,1.58437 -0.0789,1.91667 -0.33229,0.33229 -0.56864,-0.25834 -0.52522,-1.3125 z m 0,-20 c 0.048,-1.16495 0.28494,-1.4019 0.60416,-0.60417 0.28887,0.72187 0.25335,1.58437 -0.0789,1.91667 -0.33229,0.33229 -0.56864,-0.25834 -0.52522,-1.3125 z m -161.000003,-5 c 0.04798,-1.16495 0.284941,-1.4019 0.604167,-0.60417 0.288871,0.72187 0.253344,1.58437 -0.07895,1.91667 -0.332292,0.33229 -0.568641,-0.25834 -0.52522,-1.3125 z M 78.157895,329 c 0,-1.375 0.226973,-1.9375 0.504386,-1.25 0.277412,0.6875 0.277412,1.8125 0,2.5 -0.277413,0.6875 -0.504386,0.125 -0.504386,-1.25 z M 34.078947,302.41667 c 0.04798,-1.16495 0.284941,-1.4019 0.604167,-0.60417 0.288871,0.72187 0.253344,1.58438 -0.07895,1.91667 -0.332292,0.33229 -0.568641,-0.25834 -0.52522,-1.3125 z M 344.43709,70.75 341.5,67.5 l 3.25,2.937091 C 347.77946,73.174872 348.45965,74 347.68709,74 c -0.1721,0 -1.6346,-1.4625 -3.25,-3.25 z M 41.078947,-195.58333 c 0.04798,-1.16495 0.284941,-1.4019 0.604167,-0.60417 0.288871,0.72188 0.253344,1.58438 -0.07895,1.91667 -0.332292,0.33229 -0.568641,-0.25834 -0.52522,-1.3125 z M 140.75,-200.66228 c 0.6875,-0.27741 1.8125,-0.27741 2.5,0 0.6875,0.27741 0.125,0.50439 -1.25,0.50439 -1.375,0 -1.9375,-0.22698 -1.25,-0.50439 z m 17,0 c 0.6875,-0.27741 1.8125,-0.27741 2.5,0 0.6875,0.27741 0.125,0.50439 -1.25,0.50439 -1.375,0 -1.9375,-0.22698 -1.25,-0.50439 z"
       id="path446" /><path
       style="fill:#333333;fill-opacity:1"
       d="m 310.44488,1035.0282 -39.05512,-0.5282 -6.46729,-3.2841 c -8.21828,-4.1732 -13.09548,-8.6504 -16.28939,-14.9533 -5.48718,-10.8284 -5.50935,-23.12856 -0.0924,-51.2626 4.5754,-23.7634 4.36552,-43.5379 -0.67396,-63.5 -5.33706,-21.14082 -13.71701,-43.29866 -27.60813,-73 -17.07988,-36.51937 -20.2283,-54.24052 -20.2538,-114 -0.0185,-43.3756 -1.59337,-51.49899 -20.40707,-105.26268 -6.06229,-17.32413 -17.76311,-69.57157 -23.22056,-103.68627 -1.78133,-11.13517 -2.97296,-16.28043 -3.47397,-15 -0.41942,1.07192 -0.79422,3.15491 -0.83287,4.62887 -0.11556,4.40604 -8.81036,47.63543 -14.64643,72.82008 -6.19553,26.73585 -11.24787,45.11222 -19.06883,69.35723 -10.93138,33.88732 -11.96676,41.057 -12.80091,88.64277 -0.91668,52.29404 -3.46836,65.81038 -18.464583,97.80761 C 76.435096,846.54084 69.671539,863.08872 64.122216,880 c -6.469124,19.71433 -8.703276,28.91339 -10.189528,41.95514 -1.450896,12.7315 -0.890382,19.83022 3.201418,40.54486 2.695368,13.64523 3.175623,18.35477 3.263202,32 0.09219,14.363 -0.115984,16.4729 -2.034636,20.6224 -3.053785,6.6044 -8.356215,12.0407 -15.054894,15.4348 L 37.5,1033.5 h -53.601872 -53.601872 l -6.853782,-3.5 c -11.467101,-5.8559 -16.415861,-15.1817 -14.854492,-27.9931 0.577563,-4.73903 1.817719,-7.18015 8.894,-17.5069 8.002408,-11.67829 24.419479,-38.281 31.844622,-51.60196 7.69783,-13.81018 8.673037,-23.52772 6.261974,-62.39804 -2.368727,-38.18778 -3.054677,-78.84562 -1.687129,-100 1.786971,-27.64236 4.920734,-46.77292 15.561877,-95 C -26.135469,655.55315 -22,627.37315 -22,617.3292 c 0,-4.18386 -0.885123,-12.83201 -1.966939,-19.21811 -5.811236,-34.30447 -8.058301,-70.90658 -6.206607,-101.09852 1.854653,-30.24018 4.594687,-52.1323 9.70153,-77.51257 C -9.4105552,364.52614 -4.0012607,332.639 0.08813705,298.30036 4.0905595,264.69204 3.9189842,261.86336 -3.5390867,238.5 -6.6993726,228.6 -10.260486,217.37898 -11.452672,213.5644 l -2.167611,-6.9356 -3.572243,6.4356 c -5.547796,9.99467 -14.376513,29.70877 -16.710739,37.31427 -1.161133,3.78327 -2.560778,12.10827 -3.110322,18.5 -2.377123,27.64828 -6.018345,45.16019 -15.307958,73.62133 -7.635797,23.39424 -9.976734,32.34639 -12.028746,46 -3.349814,22.28888 -3.526568,20.38134 3.256004,35.13887 9.427533,20.51243 11.405457,28.1366 11.508526,44.36113 0.08535,13.43596 0.06961,13.53219 -3.319048,20.28561 -3.306748,6.59018 -13.578669,17.69346 -16.402191,17.7297 -3.281837,0.0421 -3.645684,1.57317 -1.432782,6.02905 3.431262,6.90916 3.639619,17.31038 0.484803,24.20141 -5.226536,11.41626 -13.561287,16.31128 -26.498051,15.56238 -9.47199,-0.54832 -17.0057,-3.70103 -23.7921,-9.95652 -11.99877,-11.06008 -32.85779,-39.72714 -37.66248,-51.76046 -2.07139,-5.18779 -2.23324,-7.17837 -2.24344,-27.59117 -0.006,-12.1 0.58193,-29.65 1.30662,-39 0.72468,-9.35 1.68996,-43.775 2.14505,-76.5 0.89899,-64.64512 1.4529,-72.07255 6.95211,-93.22074 1.61314,-6.20359 4.34533,-15.32165 6.07154,-20.26235 4.71617,-13.49848 8.5092,-30.54334 14.10171,-63.36934 6.77387,-39.76015 7.49393,-45.74209 8.85874,-73.594931 2.21959,-45.297171 6.25853,-60.823809 20.85388,-80.167385 18.239565,-24.1733507 38.091175,-34.376707 86.1614,-44.285353 30.796573,-6.348053 46.008168,-10.197068 59.4311,-15.037951 7.662105,-2.763282 14.334586,-5.427636 14.827736,-5.920786 1.490913,-1.490913 2.683442,-8.095607 3.365807,-18.641164 l 0.647064,-10 -7.08786,-16 c -11.302051,-25.51304 -14.604557,-40.30714 -15.843112,-70.97176 -0.855475,-21.1802 1.192105,-59.94005 3.730867,-70.62376 2.432975,-10.23854 9.102324,-24.11688 15.877403,-33.03951 6.393292,-8.41982 20.081384,-21.40784 28.248465,-26.80371 20.37235,-13.45973 49.65326,-22.21424 68.80253,-20.57084 48.61388,4.17207 91.92976,36.32618 101.92331,75.65941 3.08359,12.13655 4.14381,24.33086 4.7689,54.85017 0.93478,45.64023 -2.25292,63.06387 -17.0146,93 L 242.5,-81.5 242.67575,-69 c 0.0967,6.875 0.57603,13.85 1.06526,15.5 1.05938,3.572932 4.40088,5.337588 22.37042,11.813883 12.44715,4.486003 20.97277,6.636443 52.38857,13.214103 30.79482,6.447644 49.58443,13.063998 63.79331,22.4634387 C 398.00359,4.3840627 413.59387,24.44446 418.82684,41 c 4.77158,15.095878 6.24861,26.659636 8.17466,64 1.05204,20.39591 2.87554,32.31817 13.07711,85.5 4.04975,21.11173 7.1252,33.247 12.41812,49 C 461.78017,267.12973 463,278.84157 463,340.34394 c 0,35.02058 0.4747,55.58201 1.71511,74.28942 2.3167,34.93967 2.25525,66.08328 -0.14378,72.86664 -2.59705,7.34327 -13.01913,24.34801 -21.35089,34.83628 -17.936,22.57837 -26.5726,28.64498 -41.95558,29.47084 -7.40037,0.39731 -8.78903,0.17113 -13.69935,-2.23127 -6.37086,-3.11697 -10.92487,-8.67949 -13.09866,-15.99943 -1.99348,-6.71278 -1.84595,-11.13838 0.63959,-19.18561 1.70039,-5.50522 1.84496,-6.89834 0.75,-7.22702 -3.13314,-0.94049 -15.0662,-14.38028 -17.51253,-19.72376 -7.1737,-15.66944 -4.22138,-36.60151 9.44144,-66.94003 l 4.50345,-10 -1.162,-12 c -1.55245,-16.03213 -4.60045,-28.96578 -12.5735,-53.35339 -9.82517,-30.05281 -14.56422,-51.74778 -16.08737,-73.64661 -1.18925,-17.09832 -5.99828,-32.1234 -17.2066,-53.75943 -3.06559,-5.91768 -5.6804,-10.64268 -5.81068,-10.5 -0.72906,0.79849 -14.71122,43.77471 -15.94656,49.01407 -1.73581,7.362 -1.92185,20.91776 -0.44976,32.77159 2.22673,17.93049 13.34147,82.91129 20.41513,119.3543 14.38787,74.12524 16.40895,107.04038 9.98532,162.61947 -0.85816,7.425 -2.48241,18.9 -3.60945,25.5 -3.56379,20.86977 -1.57617,43.04095 7.62015,85 9.86384,45.0047 12.96886,63.97771 14.64709,89.5 1.2626,19.20161 0.65387,63.87552 -1.1991,88 -0.61254,7.975 -1.18071,23.95 -1.2626,35.5 -0.12264,17.29989 0.15248,21.97215 1.56146,26.51746 1.85241,5.97576 21.93442,40.15307 36.51799,62.14947 9.97665,15.04776 11.33062,19.14567 9.30797,28.17117 -2.49322,11.1252 -8.56919,17.7744 -20.17224,22.0752 -6.04855,2.242 -8.33672,2.5571 -17.17126,2.3649 -5.60603,-0.122 -27.76759,-0.4595 -49.24791,-0.75 z m 48.89717,-36.97214 c -1.01313,-1.61916 -5.04641,-7.58166 -8.96284,-13.25 -17.25887,-24.9791 -30.73401,-50.29922 -33.9216,-63.73953 -1.51432,-6.38503 -1.67149,-10.26982 -1.11439,-27.54338 0.35671,-11.06045 1.35006,-29.46646 2.20744,-40.90225 0.85737,-11.43578 1.38348,-21.31626 1.16913,-21.95662 -0.21434,-0.64035 -1.20434,1.31072 -2.19999,4.33572 -2.56663,7.79802 -9.15722,22.98964 -17.78705,41 -13.71195,28.61671 -13.59845,28.1631 -12.26126,49 0.9261,14.43092 -0.15133,25.95303 -4.49851,48.10759 -1.57647,8.03418 -3.17228,16.91412 -3.54625,19.73321 -0.37396,2.81909 -0.73546,5.47067 -0.80333,5.89241 -0.16879,1.04882 20.25416,1.81869 54.71865,2.06259 L 361.1841,1001 Z M 28,998.65096 c 0,-0.74198 -1.775157,-11.20448 -3.944794,-23.25 -6.125861,-34.00995 -6.366716,-36.59522 -4.96541,-53.29736 l 1.225239,-14.6036 -3.267476,-9 C 15.250447,893.55 9.5872315,880.725 4.4626353,870 -3.4028278,853.53878 -8.055454,842.57813 -11.410158,832.60687 c -1.579957,-4.69614 -1.620063,0.90727 -0.172102,24.04509 3.5948698,57.44454 3.4439841,61.19319 -3.113312,77.34804 -6.000392,14.78284 -22.514908,43.28267 -33.218257,57.32621 -2.58796,3.39558 -5.042617,6.73629 -5.454793,7.42379 -0.594657,0.99187 7.729372,1.25 40.309605,1.25 C 20.729244,1000 28,999.76111 28,998.65096 Z M 273.82384,849.46158 c 2.70251,-6.02887 10.6638,-23.78658 17.69175,-39.46158 26.70508,-59.56249 25.98983,-57.52163 24.45344,-69.77462 -0.90532,-7.22007 -4.39901,-22.49406 -5.58359,-24.41074 -0.26397,-0.42712 -1.87549,0.81284 -3.58114,2.75547 -1.70565,1.94263 -4.27189,4.12923 -5.70274,4.85911 -5.3679,2.73817 -19.62753,5.09735 -42.60175,7.04822 l -7.00019,0.59443 -6.11829,-7.28593 c -3.36506,-4.00727 -7.26042,-8.97426 -8.65635,-11.03776 l -2.53806,-3.75183 -0.74256,9.75183 c -0.94618,12.42592 0.85282,38.72229 3.53764,51.71052 4.12787,19.96921 9.02744,34.45528 25.78297,76.22999 3.13004,7.80379 5.79318,14.0865 5.91809,13.96158 0.12491,-0.12491 2.43826,-5.15982 5.14078,-11.18869 z M 51.89238,822.71356 C 62.295521,796.42147 68.589381,775.25306 70.984557,758.5 c 1.34166,-9.38424 2.380327,-50.52943 1.273208,-50.43616 -0.416771,0.0351 -4.698846,5.10617 -9.515723,11.26903 l -8.757957,11.20519 -7.742043,-0.33338 C 36.983683,729.806 16.487567,726.6603 9.4825555,724.56292 6.1787022,723.57371 3.1210316,721.68418 0.52960771,719.03032 -1.6349191,716.81364 -3.6907912,715 -4.038997,715 c -2.062686,0 -7.381828,27.77001 -6.537821,34.13245 0.6999278,5.27631 7.384545,21.95156 17.7856541,44.36755 3.8280319,8.25 11.2495739,24.9 16.4923159,37 5.242741,12.1 10.436587,23.781 11.541879,25.95778 l 2.009621,3.95778 2.218329,-5.95778 c 1.22008,-3.27678 6.80971,-17.56168 12.421399,-31.74422 z M 58.040576,677.5 c 8.908941,-10.45 17.08493,-19.97217 18.168865,-21.16037 1.903553,-2.08667 9.712766,-30.11945 9.766443,-35.05866 0.01378,-1.26808 -3.198098,-6.3411 -7.494932,-11.8379 -4.135476,-5.29038 -12.061519,-15.90032 -17.613428,-23.57763 -9.790366,-13.53836 -10.158727,-13.91277 -12.230952,-12.43175 -1.175114,0.83985 -5.885661,3.89835 -10.467882,6.79666 -4.58222,2.89831 -12.45722,7.9993 -17.5,11.33553 L 11.5,597.63176 11.336654,609.06588 c -0.08984,6.28877 -1.183941,20.68979 -2.4313338,32.00228 l -2.2679875,20.56816 5.3665493,13.37335 c 6.87363,17.12898 8.149158,18.53445 18.496118,20.38031 4.4,0.78495 8.752063,1.35582 9.671251,1.2686 C 41.09044,696.57136 49.131636,687.95 58.040576,677.5 Z m 218.760754,17.43033 c 6.80075,-1.05099 7.46412,-1.37866 9.67563,-4.77934 1.30586,-2.00804 4.66238,-9.12736 7.45893,-15.82071 l 5.08465,-12.16972 -2.58116,-20.83028 c -1.78073,-14.37078 -2.48165,-24.29048 -2.26027,-31.98855 0.37843,-13.15917 2.16783,-10.85805 -18.17911,-23.37783 -7.425,-4.56871 -15.16193,-9.59717 -17.19319,-11.17436 l -3.69318,-2.86761 -5.2521,7.78904 c -2.88865,4.28397 -10.60979,14.95849 -17.15808,23.72116 -6.5483,8.76267 -12.10854,16.45994 -12.35609,17.10504 -0.37761,0.98405 2.33288,12.92208 6.75472,29.75038 0.64049,2.43753 4.11058,7.42764 9.73549,14 4.80714,5.61685 12.90601,15.25955 17.99748,21.42822 8.25923,10.00662 9.54873,11.16872 11.96109,10.77934 1.48712,-0.24004 5.98946,-0.94419 10.00519,-1.56478 z M 100.75188,575.68363 c 3.36104,-10.93586 12.74458,-52.10267 17.82113,-78.18363 7.06383,-36.29071 7.15006,-36.59447 10.92699,-38.49245 4.14481,-2.08284 42.37015,-2.19528 47.24339,-0.13897 3.81294,1.60891 4.04531,2.31139 7.65158,23.13142 3.33365,19.24611 19.392,88.84339 22.33416,96.79681 0.71709,1.93848 1.19974,1.60893 5.48288,-3.74369 2.58312,-3.2281 8.17729,-10.97314 12.43149,-17.2112 4.25421,-6.23805 9.67478,-13.84493 12.04571,-16.90416 4.98422,-6.43116 5.20762,-8.26542 2.73278,-22.43776 -2.55778,-14.64729 -16.74116,-70.28484 -23.96292,-94 -3.6847,-12.1 -6.92782,-23.0386 -7.20693,-24.308 -0.31995,-1.45518 -1.02191,-2.11059 -1.8997,-1.77375 -2.60832,1.00091 -12.83601,8.38835 -19.35244,13.97825 l -6.5,5.57579 -27.10983,0.0139 -27.10983,0.0138 -7.82475,-6.50535 C 109.80627,404.30377 100.18494,397.43762 99.663072,398.0836 95.941524,402.69023 70.506446,493.44609 66.616026,516 c -3.171466,18.38592 -3.212155,17.88763 2.005708,24.56283 2.552529,3.26544 7.333875,9.98717 10.625213,14.93717 7.896027,11.87521 18.798908,25.78748 19.589648,24.99674 0.346213,-0.34621 1.208085,-2.51211 1.915285,-4.81311 z M 20.713143,551.30676 c 5.004369,-4.01507 4.39917,-2.11347 12.827961,-40.30676 9.664912,-43.79451 13.067152,-57.90621 17.961465,-74.5 4.290429,-14.54637 14.051339,-42.18178 18.256209,-51.68758 l 2.066011,-4.67056 -9.662394,-5.77845 c -5.314317,-3.17814 -15.62747,-9.01564 -22.918117,-12.97222 -12.482549,-6.77418 -13.283649,-7.0683 -13.734526,-5.04248 -1.277277,5.73887 -14.86031,81.73958 -16.9380511,94.77293 -3.5227955,22.09796 -4.9253962,38.78504 -4.906881,58.37836 0.016453,17.4107 1.6931039,46.44589 2.9048921,50.30509 0.4348011,1.38472 5.972576,-1.94275 14.143431,-8.49833 z M 301.05,533.09438 c 2.14749,-35.3996 0.60648,-54.88131 -8.47123,-107.09438 -13.7263,-78.95076 -12.18078,-71.36531 -14.37064,-70.53131 -3.29452,1.25469 -42.13163,23.59851 -42.7461,24.59274 -0.34158,0.55269 0.72583,4.25247 2.37201,8.22173 12.49038,30.11659 23.97379,71.22659 36.65166,131.21102 3.13791,14.8468 6.09669,27.7255 6.57506,28.61934 0.47836,0.89384 4.59789,4.17754 9.1545,7.2971 l 8.28474,5.67193 0.65605,-3.79127 c 0.36083,-2.08521 1.21311,-12.97381 1.89395,-24.1969 z M -104.98164,506.75 c -0.42407,-1.7875 -1.72825,-6.93114 -2.89819,-11.43031 -1.16994,-4.49917 -2.80051,-11.69917 -3.6235,-16 -3.38475,-17.68839 -1.37862,-23.2503 8.68723,-24.08503 7.700341,-0.63858 13.703604,2.12264 18.038452,8.29681 l 3.277648,4.6684 0.303256,-2.96448 c 0.705505,-6.89667 -2.69305,-16.46367 -10.385496,-29.23539 -10.07463,-16.72684 -9.12009,-15.7462 -16.49125,-16.94218 -10.19737,-1.65454 -16.69276,-1.39474 -17.30582,0.69218 -1.3455,4.58027 -2.7424,48.04617 -1.73978,54.13486 1.0972,6.66303 5.49267,15.17143 13.49119,26.11514 7.7527,10.60738 9.9725,12.34034 8.64626,6.75 z m 522.73131,-5.66452 c 3.43732,-4.85711 8.38732,-12.37584 11,-16.70829 L 433.5,476.5 433.21591,455 c -0.15625,-11.825 -0.60625,-25.0807 -1,-29.45712 L 431.5,417.58576 426,417.81447 c -3.025,0.12579 -8.47899,0.73061 -12.11998,1.34404 l -6.61999,1.11533 -5.78997,9.61308 c -3.18448,5.28719 -6.84246,11.04486 -8.12884,12.79482 -2.46279,3.35032 -6.32232,17.47266 -6.33421,23.17745 l -0.007,3.35919 3.31777,-4.8144 c 4.67524,-6.78422 10.39978,-9.68337 18.08309,-9.15801 12.59114,0.86093 13.31994,7.55491 4.53042,41.612 -1.6122,6.24688 -2.93128,11.75938 -2.93128,12.25 0,2.1988 1.93036,0.20048 7.74967,-8.02249 z M -95.571508,382.75 c 0.285515,-1.7875 1.002018,-6.625 1.592229,-10.75 1.457981,-10.18987 4.960469,-23.58292 10.852889,-41.5 7.676674,-23.34246 12.870578,-49.84469 11.954773,-61 L -71.5,265.5 -84,258.8043 c -13.819305,-7.4024 -29.75516,-12.81218 -31.1476,-10.57374 -1.22244,1.96515 -5.63042,21.40396 -6.75058,29.76944 -0.55234,4.125 -1.0804,29.1 -1.17346,55.5 l -0.16919,48 3.37041,0.73347 c 1.85373,0.40341 7.64542,1.36649 12.87042,2.14019 5.225,0.77369 9.817109,1.45613 10.204687,1.51653 0.387578,0.0604 0.93829,-1.35269 1.223805,-3.14019 z m 513.904678,0.7996 c 5.95824,-0.76043 10.91853,-1.53267 11.02288,-1.7161 0.10434,-0.18342 -0.0829,-23.9585 -0.41609,-52.8335 -0.6426,-55.6891 -1.00496,-60.21347 -6.06677,-75.75 -1.69552,-5.20417 -2.41163,-6.25 -4.27957,-6.25 -6.48303,0 -32.99519,12.12044 -39.49203,18.0544 -3.64534,3.3295 -3.77298,4.89047 -1.59001,19.4456 1.94706,12.9822 3.90363,20.36594 12.44672,46.97168 6.76228,21.0598 10.06205,34.84997 11.5418,48.2347 0.66858,6.04748 0.75416,6.19382 3.34302,5.71609 1.46129,-0.26965 7.5318,-1.11245 13.49005,-1.87287 z M 175.0814,379.83739 c 3.59263,-2.56443 8.75652,-6.67659 11.47533,-9.13812 l 4.94327,-4.47551 0.0802,-12.86188 c 0.18107,-29.04307 3.34451,-61.84114 8.49684,-88.09395 4.94993,-25.22156 9.88343,-39.9626 22.26206,-66.51793 2.49971,-5.3625 4.45852,-9.75003 4.35291,-9.75006 -0.26867,-8e-5 -23.17055,-8.14758 -35.192,-12.51979 C 177.3196,171.32273 159.84029,167 153.16624,167 c -6.84758,0 -28.77996,5.39513 -42.66624,10.49543 -8.02261,2.94664 -21.574393,7.72608 -31.321033,11.0463 -1.002748,0.34159 -0.819732,1.15403 0.759602,3.372 2.621307,3.68128 6.839399,13.57341 13.176936,30.90209 11.878665,32.47976 16.580225,59.33769 19.945495,113.93977 0.61882,10.04058 0.82528,20.43581 0.45879,23.10051 -0.66244,4.81652 -0.63861,4.86934 4.06452,9.00919 9.25244,8.14433 18.95943,14.9898 21.91569,15.45518 1.65,0.25975 8.8611,0.4064 16.02467,0.3259 L 168.54935,384.5 Z m 67.22576,-43.67648 c 7.80606,-4.31151 17.90534,-9.76165 22.44284,-12.11144 9.18935,-4.75879 8.94205,-4.23961 7.16838,-15.04947 -0.58658,-3.575 -1.37068,-11.9 -1.74245,-18.5 l -0.67593,-12 -5.5,0.29193 c -7.12144,0.37798 -33.39375,3.27046 -33.8513,3.72689 -1.67766,1.67357 -4.34,61.48118 -2.73684,61.48118 0.38636,0 7.08924,-3.52759 14.8953,-7.83909 z M 78.361569,336.75 c 0.350767,-3.4375 0.431364,-8.725 0.179105,-11.75 -0.252259,-3.025 -0.996004,-13.70503 -1.652767,-23.73341 l -1.194114,-18.23341 -3.096897,-0.52052 C 66.790771,281.53678 42.82012,279 39.404882,279 36.627008,279 36,279.38163 36,281.07242 c 0,1.13982 -0.706116,10.18371 -1.569146,20.09752 -0.863031,9.9138 -1.425531,18.13733 -1.25,18.2745 1.726916,1.34948 43.012477,23.44502 43.931051,23.51136 0.336548,0.0243 0.898896,-2.7683 1.249664,-6.2058 z m -10.916426,-90 C 66.176466,242.6108 57.135081,218.6101 53.224215,209 l -3.86606,-9.5 -6.929023,-1.25593 C 34.209673,196.75425 28.64329,193.24941 17.548009,182.57782 9.0651963,174.41894 9.0791434,174.38176 14.763698,190 c 1.901738,5.225 6.574999,18.95 10.385025,30.5 3.810026,11.55 7.488883,21.5626 8.175237,22.25022 0.686354,0.68763 7.981744,2.32142 16.211978,3.63065 19.616692,3.12054 18.747028,3.10262 17.909205,0.36913 z M 255.44769,246.49608 C 263.66892,245.12324 270.74486,244 271.17201,244 c 1.25283,0 3.30247,-4.66388 8.13019,-18.5 C 283.99124,212.06137 296,175.59215 296,174.79073 c 0,-0.2496 -4.1625,3.65697 -9.25,8.68126 C 276.5741,193.52147 267.48132,199 260.978,199 h -3.70256 l -4.029,10.25 c -2.21595,5.6375 -4.59338,12.05 -5.28319,14.25 -0.6898,2.2 -2.92635,7.825 -4.97013,12.5 -4.94664,11.31514 -5.44092,13.00093 -3.81051,12.99608 0.72457,-0.002 8.04385,-1.12715 16.26508,-2.5 z M -55.381213,211.86747 c 12.589016,-27.32185 19.194809,-48.01568 24.81505,-77.73759 2.43347,-12.86909 2.466851,-13.56235 0.890766,-18.5 -0.900595,-2.82143 -1.740542,-5.26587 -1.866548,-5.43207 -0.126006,-0.1662 -4.00292,2.15771 -8.615365,5.16425 -11.987028,7.81354 -24.599306,14.03402 -38.351185,18.91513 l -11.954528,4.24316 -2.592525,12.98982 c -1.425889,7.14441 -3.821247,21.08983 -5.323017,30.98983 -1.50177,9.9 -3.155955,19.88677 -3.675965,22.19282 -1.69395,7.51204 -1.69134,7.51578 7.808143,11.19146 10.483414,4.05639 20.774232,9.27659 25.955703,13.16648 l 3.790684,2.84579 0.957913,-2.19828 c 0.526853,-1.20905 4.199246,-9.23291 8.160874,-17.8308 z M 376.98979,227.08499 C 382.43818,223.56353 405.74328,213 408.06389,213 c 1.16457,0 1.16244,-0.61783 -0.0173,-5 -0.51822,-1.925 -2.3255,-13.175 -4.01617,-25 -3.96121,-27.7057 -6.86504,-43.21866 -8.34874,-44.60093 -0.64995,-0.60551 -5.45672,-2.55541 -10.68172,-4.33311 -12.45194,-4.23652 -25.15666,-10.49938 -37.5,-18.48583 l -10,-6.47025 -1.11505,4.32219 c -0.61327,2.37721 -1.41329,4.80477 -1.77782,5.3946 -0.90471,1.46385 3.70983,28.21831 7.38717,42.82982 3.36848,13.38427 15.04635,43.56738 22.86334,59.09351 2.83833,5.6375 5.36631,10.25 5.61774,10.25 0.25142,0 3.18291,-1.76175 6.51441,-3.91501 z M 273.16452,154.33035 C 282.77535,143.3523 288.52335,135.39203 293.98252,125.5 298.3143,117.6508 310,88.629504 310,85.72077 310,84.684938 307.33619,80.161515 304.08042,75.668719 300.82466,71.175924 296.28557,64.0125 293.99356,59.75 291.70155,55.4875 289.62912,52 289.38817,52 c -0.24095,0 -3.64783,1.616393 -7.57083,3.591984 -9.41937,4.743523 -51.52454,21.784419 -69.88646,28.284601 -8.01301,2.836635 -20.83801,7.563023 -28.5,10.503085 L 169.5,99.725235 l 0.20747,17.261515 c 0.1141,9.49384 0.4086,17.46265 0.65443,17.70849 0.54585,0.54584 15.1877,4.93423 34.6381,10.38157 7.975,2.23351 21.7,6.93566 30.5,10.44924 16.33537,6.52222 26.08585,9.55767 28.16452,8.76798 0.64048,-0.24332 4.91548,-4.72698 9.5,-9.96368 z M 68.022239,156.60847 C 86.710161,150.17706 110.121,142.8891 129.15174,137.57842 l 5.65174,-1.57716 0.56961,-5.75063 c 0.31328,-3.16285 0.85323,-11.19657 1.19987,-17.85271 l 0.63027,-12.10208 -15.35161,-6.129436 C 113.40823,90.795214 96.825,84.70318 85,80.628551 62.532704,72.886827 37.579462,62.868988 25.274964,56.651075 c -3.97377,-2.008091 -7.57377,-3.644592 -8,-3.636667 -0.42623,0.0079 -2.066466,2.370424 -3.644969,5.25 C 12.051493,61.143983 7.6639929,68.262545 3.8799954,74.083433 0.09599795,79.904321 -3,85.706974 -3,86.978218 c 0,2.952469 12.262905,33.831292 16.21324,40.826032 7.666618,13.57505 27.167193,36.09967 31.308999,36.16423 1.112231,0.0173 11.687231,-3.29467 23.5,-7.36001 z M -79.758801,98.773517 C -60.770336,90.333285 -47.785525,81.610653 -35.936396,69.335528 -23.150997,56.090472 -13.31894,39.929059 -7.4989152,22.591505 -5.2310013,15.835507 -4.2046714,7.128662 -5.5210446,5.8122888 -6.3772823,4.956051 -30.502403,10.750942 -41.749116,14.514327 c -5.754862,1.925697 -14.367362,5.517593 -19.138889,7.98199 -7.644438,3.948197 -9.044562,5.106039 -11.780788,9.742203 C -79.119306,43.168041 -84.322607,60.860063 -85.90436,77.241483 -87.323188,91.935583 -87.951748,102 -87.450619,102 c 0.238159,0 3.699477,-1.45192 7.691818,-3.226483 z M 392.05935,81.345453 C 390.43081,61.791175 384.42995,40.784896 377.17267,29.233944 375.14024,25.999067 360.55284,18.334387 348.04068,13.927088 339.95943,11.080537 315.02531,5 311.43386,5 c -0.83977,0 -0.41028,7.546142 0.65453,11.5 0.59249,2.2 2.69708,7.825 4.67688,12.5 8.21975,19.409727 20.70395,36.35261 36.05311,48.929318 8.54604,7.002403 25.81715,17.404253 34.68162,20.887655 l 5,1.964807 0.32985,-3.112035 c 0.18142,-1.711621 -0.16531,-9.057552 -0.7705,-16.324292 z M 135.04143,38.953332 135.15619,17.5 131.19147,16.346309 C 124.21021,14.314844 102.70026,5.927722 96.5,2.819476 89.323708,-0.77806302 85.816359,-3.3027699 76.299512,-11.721511 l -7.200487,-6.369656 -4.299513,2.208195 C 61.227359,-14.048342 34.743763,-4.0583825 28.75,-2.2846223 c -1.492708,0.4417435 -1.748382,1.78719689 -1.738994,9.1512537 0.0061,4.7483526 0.282448,10.2747546 0.614212,12.2808916 l 0.603207,3.647524 17.635788,7.025186 C 55.563896,33.684086 70.7,39.322159 79.5,42.349284 c 8.8,3.027125 19.825,6.918544 24.5,8.647598 8.6727,3.20761 30.32713,9.986711 30.71333,9.61507 0.11734,-0.112908 0.26498,-9.859287 0.3281,-21.65862 z M 207.5,48.711424 C 233.18304,39.711698 248.73923,33.968735 263,28.222183 l 14.5,-5.842951 0.66239,-4.939616 c 0.36432,-2.716789 0.70182,-8.1117162 0.75,-11.9887276 L 279,-1.5982231 275.25,-2.9212115 c -2.0625,-0.7276437 -11.57783,-4.2256538 -21.14518,-7.7733555 l -17.39517,-6.450368 -5.10483,4.911007 C 224.51159,-5.4100007 218.48224,-0.79115526 211.75732,2.9704608 205.30865,6.5775563 175.86139,17 172.11869,17 h -2.4262 l 0.64245,16.25 c 0.35335,8.9375 0.64754,18.789627 0.65376,21.893614 L 171,60.787229 182.75,57.027025 c 6.4625,-2.068112 17.6,-5.810132 24.75,-8.315601 z M 136.63029,-18.25 c -0.33164,-1.2375 -0.60913,-4.787419 -0.61664,-7.888709 L 136,-31.777418 l -3.75,-0.69866 c -5.34571,-0.995954 -20.85324,-7.116354 -24.59003,-9.705015 -1.73798,-1.203986 -5.23902,-3.898746 -7.780081,-5.988355 l -4.620112,-3.799291 -1.793999,4.69752 -1.794,4.697521 8.414112,7.894824 c 8.65318,8.11914 15.47354,12.237094 26.91411,16.250037 8.66875,3.040688 10.40588,3.072947 9.63029,0.178837 z m 46.08355,-1.635931 c 10.44309,-3.635157 16.39802,-7.477904 24.23416,-15.63843 4.54373,-4.73182 6.06919,-6.984547 5.58214,-8.243404 -0.36861,-0.952729 -0.91994,-2.969735 -1.22517,-4.482235 -0.30523,-1.5125 -0.73008,-2.75 -0.9441,-2.75 -0.21402,0 -2.96508,2.098142 -6.11346,4.662537 -6.9465,5.657998 -17.25613,10.679727 -26.98334,13.143344 -3.97976,1.007957 -7.50687,2.103587 -7.83802,2.434734 -0.33115,0.331147 -0.28505,3.562477 0.10243,7.180735 0.84425,7.883469 1.01156,7.930326 13.18536,3.692719 z m -18.92875,-43.704708 c 14.43859,-2.982371 26.25013,-9.358282 35.25643,-19.031527 12.30979,-13.221387 23.05073,-35.223944 27.52183,-56.377834 1.90239,-9.00068 2.55916,-29.5715 1.15503,-36.17702 -1.10619,-5.20391 -8.56646,-13.13279 -15.39698,-16.36415 -17.60325,-8.32767 -64.52629,-11.75689 -93.31702,-6.81978 -10.69643,1.83425 -24.756331,6.50665 -29.978397,9.96245 -5.292083,3.50214 -9.648353,10.26775 -11.102043,17.24231 -3.523039,16.90294 5.461401,54.53492 17.441227,73.053837 9.017483,13.939598 23.608483,26.989448 35.081453,31.376034 12.26673,4.69007 21.57475,5.565544 33.33847,3.13568 z M 83.378273,-219.92643 c 6.520923,-3.7259 18.407737,-7.71408 30.586217,-10.26206 12.08905,-2.52928 52.46089,-3.68849 65.28738,-1.87463 13.53144,1.91355 27.79114,5.68203 37.30207,9.85799 4.92033,2.16038 10.02328,4.26618 11.33989,4.67958 2.36089,0.74128 2.38466,0.68255 1.72774,-4.26956 -2.70911,-20.42227 -17.29039,-38.93507 -39.5169,-50.17175 -13.55805,-6.85431 -38.82251,-9.12451 -55.92256,-5.02505 -27.18773,6.51782 -49.654198,26.33911 -56.585761,49.92341 -1.873757,6.37537 -2.045448,10.0685 -0.468076,10.0685 0.620551,0 3.433051,-1.31689 6.25,-2.92643 z"
       id="path445" /></g><path
     style="fill:#ffffff;stroke:none;stroke-width:3.27727;stroke-linecap:round;stroke-linejoin:round;stroke-dasharray:none"
     d="m 89.879486,35.99211 c 0,-1.199974 0.93287,-4.172312 1.93216,-6.156299 1.28268,-2.546622 2.81924,-4.645282 4.98196,-6.804483 8.117664,-8.104382 19.750594,-10.982473 31.681944,-7.838383 7.03048,1.852636 13.99809,7.683474 17.09818,14.308569 1.28513,2.746383 2.30108,7.395083 1.61616,7.395083 -0.13291,0 -1.52991,-0.539738 -3.10446,-1.199418 -9.57661,-4.012237 -18.49072,-5.345258 -30.22592,-4.519982 -7.22538,0.508119 -9.38238,0.765248 -12.20126,1.454424 -3.778724,0.923844 -6.438244,1.860932 -9.175014,3.232824 -1.13247,0.567686 -2.18159,1.032152 -2.33139,1.032152 -0.1498,0 -0.27236,-0.407021 -0.27236,-0.904487 z"
     id="path453" /><path
     style="fill:#ffffff;stroke:none;stroke-width:3.27727;stroke-linecap:round;stroke-linejoin:round;stroke-dasharray:none"
     d="m 113.32661,94.683922 c -4.33967,-1.15472 -7.92467,-3.381002 -11.79076,-7.322037 -2.665094,-2.716757 -4.175864,-4.747824 -5.665994,-7.617289 -4.32581,-8.329944 -6.83292,-21.357824 -5.06503,-26.319706 1.45462,-4.082622 3.74614,-5.905683 9.718334,-7.731588 5.15921,-1.577358 9.61355,-2.1226 17.33302,-2.121696 10.05963,8.7e-4 19.49203,1.468738 23.56361,3.666158 1.64929,0.890121 3.94496,3.147534 4.72589,4.647116 0.49845,0.957158 0.60671,1.677179 0.70224,4.670448 0.24747,7.75431 -1.03812,13.757683 -4.51625,21.089729 -4.74788,10.008723 -10.29086,14.933108 -19.2181,17.073353 -2.94324,0.705629 -7.05997,0.691115 -9.78696,-0.03452 z"
     id="path454" /><path
     style="fill:#ffffff;stroke:none;stroke-width:1.63864;stroke-linecap:round;stroke-linejoin:round;stroke-dasharray:none"
     d="m 110.1959,112.38764 c -1.86595,-0.58648 -3.95799,-1.42238 -5.39499,-2.15562 -2.35708,-1.20273 -3.90497,-2.38677 -7.369894,-5.63752 -1.4747,-1.38355 -1.76151,-1.71421 -1.69988,-1.95975 0.0408,-0.16246 0.32024,-0.93042 0.62104,-1.70657 l 0.54691,-1.411189 1.35281,1.108829 c 2.184914,1.79086 3.515814,2.72435 4.668114,3.2742 2.53528,1.20978 6.23525,2.5479 8.07521,2.92045 l 1.13239,0.22928 0.0995,2.45881 c 0.0548,1.35235 0.1147,2.63866 0.13323,2.85848 0.0301,0.35713 -0.009,0.40289 -0.36599,0.42996 -0.21981,0.0167 -1.02914,-0.16755 -1.79849,-0.40936 z"
     id="path455" /><path
     style="fill:#ffffff;stroke:none;stroke-width:1.63864;stroke-linecap:round;stroke-linejoin:round;stroke-dasharray:none"
     d="m 125.47132,112.19176 c -0.35545,-0.39398 -0.48385,-1.07023 -0.57684,-3.03827 l -0.0826,-1.7481 0.65204,-0.209 c 0.35862,-0.11495 1.51906,-0.45445 2.57876,-0.75443 4.1231,-1.16718 7.11632,-2.66488 10.32973,-5.16864 0.806,-0.62799 1.54495,-1.20261 1.64213,-1.276923 0.24951,-0.190823 0.32713,-0.02096 0.68688,1.502913 l 0.31035,1.31468 -0.37258,0.63575 c -0.20491,0.34967 -1.15848,1.4258 -2.11901,2.3914 -3.12966,3.14617 -4.99171,4.27197 -9.73977,5.8887 -2.15006,0.7321 -2.96296,0.84558 -3.30909,0.46192 z"
     id="path456" /><path
     style="fill:#ffffff;stroke:none;stroke-width:1.63864;stroke-linecap:round;stroke-linejoin:round;stroke-dasharray:none"
     d="m 109.72961,141.21215 c -2.97087,-0.88304 -7.33408,-2.31802 -10.524564,-3.46133 -1.68526,-0.60392 -4.32306,-1.53547 -5.86178,-2.0701 -8.29111,-2.88079 -21.25317,-7.84946 -21.59932,-8.27954 -0.26888,-0.33407 -0.47924,-2.71506 -0.49257,-5.57536 -0.0145,-3.11596 0.0614,-3.47816 0.77632,-3.70306 2.67521,-0.84159 12.14172,-4.46745 13.70027,-5.24749 0.64757,-0.32409 1.22643,-0.57103 1.28636,-0.54875 0.0599,0.0223 1.14877,0.95139 2.41963,2.06468 3.99502,3.49971 5.35418,4.47525 8.0392,5.77011 2.718944,1.31122 9.448974,3.9359 12.656124,4.93581 l 1.59867,0.49842 0.0413,6.04187 c 0.0404,5.92535 -0.0515,10.11283 -0.22183,10.09733 -0.0472,-0.004 -0.86524,-0.23947 -1.81778,-0.52259 z"
     id="path457" /><path
     style="fill:#ffffff;stroke:none;stroke-width:1.63864;stroke-linecap:round;stroke-linejoin:round;stroke-dasharray:none"
     d="m 125.45561,138.84497 c -0.0496,-1.59367 -0.13475,-4.15653 -0.18904,-5.69526 -0.0543,-1.53871 -0.0503,-2.85461 0.009,-2.92422 0.14454,-0.16988 0.13707,-0.78809 -0.0114,-0.94588 -0.0655,-0.0696 -0.16088,-0.93788 -0.21194,-1.92948 l -0.0928,-1.80291 1.04458,-0.15449 c 2.1998,-0.32532 11.22242,-3.49038 14.30019,-5.01638 2.3723,-1.17621 4.80348,-2.99307 7.98818,-5.96966 l 1.92655,-1.80067 1.00433,0.371 c 0.55239,0.20405 4.09177,1.50975 7.86529,2.90156 l 6.86095,2.53056 0.0368,2.00809 c 0.0267,1.45973 -0.005,2.00809 -0.11831,2.00809 -0.11056,0 -0.13055,0.23951 -0.0697,0.8341 0.0757,0.73867 -0.20774,3.89895 -0.36365,4.05486 -0.0311,0.0311 -1.96633,0.82372 -4.30044,1.76132 -8.39366,3.37169 -18.06362,6.87955 -28.72621,10.42066 -3.72008,1.23546 -6.78588,2.2463 -6.8129,2.2463 -0.027,0 -0.0898,-1.30392 -0.13944,-2.89759 z"
     id="path458" /><path
     style="fill:#ffffff;stroke:none;stroke-width:1.63864;stroke-linecap:round;stroke-linejoin:round;stroke-dasharray:none"
     d="m 76.647616,180.04061 c -1.78393,-1.341 -5.72659,-5.8096 -8.28662,-9.39202 -2.29448,-3.21082 -3.41543,-5.43797 -5.89899,-11.72035 -2.83801,-7.17897 -2.82195,-7.0911 -1.67045,-9.14543 0.41462,-0.73971 1.46991,-2.47669 2.34507,-3.85996 0.87516,-1.38325 1.99683,-3.20444 2.49258,-4.04707 1.27208,-2.16215 1.7083,-2.79711 1.9218,-2.79741 0.10235,-1.5e-4 1.33132,0.54758 2.73106,1.21716 5.93807,2.84057 12.69601,5.58089 20.99626,8.51393 8.840424,3.12392 20.841534,7.64036 21.225954,7.98807 0.19448,0.1759 -0.59197,12.54777 -0.83479,13.13236 -0.0891,0.21451 -0.42712,0.36083 -1.49379,0.6466 -5.05836,1.35518 -14.116364,4.1537 -22.227934,6.86743 -6.87563,2.30025 -9.73739,3.19955 -10.18154,3.19955 -0.17414,0 -0.67752,-0.27128 -1.11861,-0.60286 z"
     id="path459" /><path
     style="fill:#ffffff;stroke:none;stroke-width:1.63864;stroke-linecap:round;stroke-linejoin:round;stroke-dasharray:none"
     d="m 159.059,180.70667 c -1.24094,-0.24697 -5.09391,-1.55437 -8.43013,-2.86054 -5.7616,-2.25573 -8.54601,-3.17937 -16.25313,-5.39149 -6.78059,-1.94619 -9.07807,-2.68548 -9.18126,-2.9544 -0.0464,-0.12083 -0.11351,-2.32415 -0.14921,-4.89626 -0.0357,-2.57212 -0.0918,-5.43162 -0.12458,-6.35445 l -0.0596,-1.67787 0.42763,-0.14042 c 0.2352,-0.0772 2.34604,-0.86993 4.69075,-1.76153 2.34471,-0.89161 6.24147,-2.34204 8.65945,-3.22317 11.48714,-4.186 23.18409,-8.90431 29.17375,-11.76811 l 2.12961,-1.01821 0.23764,0.29347 c 0.1307,0.1614 0.57468,0.89989 0.98663,1.64108 1.32549,2.38489 2.0516,3.55559 3.9954,6.44179 1.04804,1.55618 2.05984,3.13393 2.24845,3.50613 0.34042,0.67179 0.34134,0.68226 0.12571,1.43372 -0.57678,2.01003 -3.50123,9.29935 -5.08734,12.68038 -1.18783,2.53209 -3.39442,5.99852 -5.55464,8.72606 -2.47684,3.12732 -6.47911,7.54613 -6.80642,7.51479 -0.0733,-0.007 -0.53616,-0.093 -1.02864,-0.19097 z"
     id="path460" /><path
     style="fill:#ffffff;stroke:none;stroke-width:1.63864;stroke-linecap:round;stroke-linejoin:round;stroke-dasharray:none"
     d="m 27.998746,156.82891 c 0.002,-0.74853 0.3712,-5.67883 0.60173,-8.02557 0.6164,-6.2748 2.09494,-11.80746 4.36211,-16.32294 1.44469,-2.87735 2.05214,-3.43815 5.6263,-5.19435 4.49542,-2.20885 9.4261,-3.8362 16.29612,-5.37847 3.02046,-0.67807 3.8693,-0.79064 4.0314,-0.53462 0.16246,0.25658 0.15267,0.91914 -0.0136,0.91914 -0.0836,0 -0.12885,0.473 -0.11789,1.2323 0.0577,3.98842 -3.8816,12.39761 -8.53419,18.21816 -4.7994,6.00423 -10.57973,10.35876 -18.55948,13.98152 -1.40864,0.63953 -2.81595,1.26189 -3.12736,1.38304 l -0.5662,0.22029 z"
     id="path461" /><path
     style="fill:#ffffff;stroke:none;stroke-width:1.63864;stroke-linecap:round;stroke-linejoin:round;stroke-dasharray:none"
     d="m 35.724616,205.52897 c -2.1649,-1.6279 -5.72363,-3.47376 -10.08885,-5.23295 -1.40898,-0.56782 -2.71047,-1.17019 -2.8922,-1.33861 -0.53815,-0.49875 -0.54916,-0.87229 -0.0958,-3.25197 0.23114,-1.21331 0.72153,-4.12442 1.08975,-6.46913 1.17024,-7.45159 3.02406,-17.79242 3.22587,-17.99422 0.0243,-0.0243 1.33116,-0.50248 2.90402,-1.06249 6.79783,-2.42037 10.23561,-4.07259 16.10671,-7.74098 1.57059,-0.98134 2.91774,-1.76356 2.99366,-1.73825 0.0759,0.0253 0.3626,0.73102 0.63709,1.56824 0.64494,1.96723 0.64229,2.43428 -0.0348,6.1435 -1.82447,9.99444 -3.99236,17.43789 -7.47603,25.66907 -0.82513,1.9496 -5.17407,11.5509 -5.40939,11.94248 -0.0636,0.10586 -0.37406,-0.0541 -0.95997,-0.49469 z"
     id="path462" /><path
     style="fill:#ffffff;stroke:none;stroke-width:1.63864;stroke-linecap:round;stroke-linejoin:round;stroke-dasharray:none"
     d="m 207.24835,156.21334 c -3.90979,-1.65583 -9.66755,-5.08697 -12.98173,-7.736 -1.71773,-1.373 -4.88887,-4.49712 -6.33859,-6.24464 -3.31745,-3.99889 -6.16743,-8.88371 -8.19197,-14.0409 -1.0982,-2.7975 -1.37657,-3.86166 -1.26397,-4.83185 0.0604,-0.52055 0.0404,-0.80203 -0.0615,-0.865 -0.11223,-0.0694 -0.11149,-0.14101 0.003,-0.27881 0.0847,-0.10201 0.13094,-0.4264 0.10286,-0.72087 -0.0416,-0.43625 -0.009,-0.5354 0.17679,-0.5354 0.95543,0 9.7112,2.13734 12.56413,3.06698 4.28026,1.39474 10.04329,4.25784 11.49206,5.70931 0.55392,0.55496 2.11418,3.7393 2.88017,5.87817 1.24353,3.47229 2.24618,7.78767 2.7483,11.8286 0.57242,4.6067 0.72015,9.39238 0.28845,9.34419 -0.0471,-0.005 -0.68517,-0.26346 -1.4179,-0.57378 z"
     id="path463" /><path
     style="fill:#ffffff;stroke:none;stroke-width:1.63864;stroke-linecap:round;stroke-linejoin:round;stroke-dasharray:none"
     d="m 199.76004,204.45125 c -3.44526,-6.31753 -8.54078,-19.17877 -10.01304,-25.27322 -0.90147,-3.7317 -2.19814,-10.72034 -2.55893,-13.7919 -0.1514,-1.2889 -0.14529,-1.36813 0.17434,-2.26479 0.18218,-0.51104 0.43609,-1.36379 0.56424,-1.89502 0.12815,-0.53122 0.25874,-0.96586 0.29021,-0.96586 0.0315,0 1.22739,0.75222 2.65761,1.67161 5.77993,3.71548 9.55526,5.61253 15.24149,7.65862 1.28227,0.4614 2.70239,1.00464 3.15582,1.20719 0.8185,0.36565 0.8263,0.37435 1.0846,1.21064 0.56919,1.84282 1.55447,7.45472 2.75571,15.69574 0.74774,5.12989 1.32057,8.62523 1.65817,10.1181 0.14,0.61909 0.22965,1.16588 0.19923,1.2151 -0.0304,0.0492 -0.24403,0.12724 -0.47468,0.17337 -1.50447,0.3009 -9.45776,3.97574 -11.9356,5.51489 -0.57168,0.35511 -1.25216,0.77455 -1.51218,0.93211 l -0.47277,0.28646 z"
     id="path464" /><path
     style="fill:#ffffff;stroke:none;stroke-width:1.63864;stroke-linecap:round;stroke-linejoin:round;stroke-dasharray:none"
     d="m 212.6449,263.87411 c -0.0696,-0.16485 -0.27843,-1.45279 -0.46417,-2.86206 -0.70865,-5.37686 -1.71595,-9.35761 -4.93206,-19.49107 -2.18366,-6.88033 -3.002,-9.89361 -3.59859,-13.25053 -0.78704,-4.42865 -1.04868,-7.29219 -0.74038,-8.10309 0.45603,-1.19944 2.92394,-2.88319 7.26955,-4.9597 4.29179,-2.0508 7.99793,-3.33049 8.85641,-3.05802 0.38035,0.12072 0.81208,1.03316 1.4504,3.06539 1.72286,5.48505 1.91184,8.63572 2.10253,35.05294 l 0.0905,12.53874 -0.85442,0.14478 c -0.95109,0.16117 -8.6873,1.22238 -8.91113,1.22238 -0.0782,0 -0.19909,-0.13489 -0.26865,-0.29976 z"
     id="path465" /><path
     style="fill:#ffffff;stroke:none;stroke-width:1.63864;stroke-linecap:round;stroke-linejoin:round;stroke-dasharray:none"
     d="m 215.57475,310.77253 c 0,-0.18999 0.38272,-1.86482 0.85051,-3.72184 1.65961,-6.58843 2.34674,-9.96494 2.3468,-11.53209 2e-5,-0.53357 0.0424,-0.67897 0.18235,-0.62527 0.23771,0.0912 0.34501,-0.32882 0.19062,-0.74621 -0.0981,-0.26517 -0.14303,-0.28874 -0.24452,-0.12824 -0.0917,0.14497 -0.12489,0.0809 -0.12638,-0.24397 -0.005,-1.22288 -0.63198,-2.32914 -1.59751,-2.82172 -0.58331,-0.29758 -1.87677,-0.53207 -2.94294,-0.53352 -2.65772,-0.003 -4.70417,1.20308 -6.48004,3.82096 l -0.77173,1.13762 -0.0417,-0.84781 c -0.0511,-1.03853 0.26551,-2.86974 0.85289,-4.9321 0.63897,-2.2435 0.9781,-2.99356 2.24016,-4.95459 0.6202,-0.96368 1.87081,-2.98113 2.77914,-4.4832 l 1.6515,-2.73106 0.78859,-0.15891 c 1.7494,-0.35253 4.69142,-0.71684 6.42612,-0.79575 l 1.83724,-0.0836 0.1611,1.91796 c 0.23578,2.80708 0.40655,7.80302 0.49134,14.37424 l 0.0748,5.79516 -1.37662,2.26478 c -2.44583,4.0238 -5.92926,9.07814 -6.88045,9.9833 l -0.41119,0.39128 z"
     id="path466" /><path
     style="fill:#ffffff;stroke:none;stroke-width:1.63864;stroke-linecap:round;stroke-linejoin:round;stroke-dasharray:none"
     d="m 147.04599,247.89148 c -0.0462,-0.23074 -0.18266,-0.52866 -0.30337,-0.66204 -0.19774,-0.2185 -0.21119,-0.64793 -0.13585,-4.33846 0.15373,-7.53025 0.77357,-17.00685 1.13686,-17.3811 0.25874,-0.26655 14.44016,-1.71558 14.65801,-1.49773 0.0303,0.0303 0.1339,1.42032 0.23044,3.08916 0.23596,4.0788 0.39363,5.78082 0.80418,8.68037 0.38625,2.72803 0.35177,3.14153 -0.31483,3.77511 -0.20314,0.19306 -1.73562,1.07604 -3.40552,1.96216 -1.66991,0.88612 -4.99714,2.6799 -7.39384,3.98619 -2.39671,1.30629 -4.54541,2.47199 -4.77492,2.59047 l -0.41725,0.21539 z"
     id="path467" /><path
     style="fill:#ffffff;stroke:none;stroke-width:1.63864;stroke-linecap:round;stroke-linejoin:round;stroke-dasharray:none"
     d="m 150.88609,212.57423 c -0.10035,-0.26151 0.21441,-1.11959 1.6703,-4.55357 0.71449,-1.68527 1.58408,-3.87344 1.93241,-4.86262 0.58543,-1.66248 2.82384,-7.54192 3.30948,-8.69275 l 0.21083,-0.49958 h 1.115 c 1.37606,0 2.19282,-0.23128 3.82782,-1.08387 1.46286,-0.76283 2.85186,-1.76642 4.71954,-3.40999 0.7273,-0.64003 1.38676,-1.16468 1.46545,-1.1659 0.3428,-0.005 1.60924,-1.31753 1.47739,-1.53085 -0.0387,-0.0626 0.30469,-0.44807 0.7631,-0.85655 0.45841,-0.40848 0.85002,-0.69366 0.87025,-0.63375 0.083,0.2456 -5.461,16.92136 -7.16617,21.55533 -0.76763,2.08608 -1.47574,3.65477 -1.74032,3.85531 -0.10417,0.079 -1.02871,0.27157 -2.05452,0.42801 -1.02581,0.15646 -3.51374,0.54913 -5.52872,0.87261 -5.16014,0.82841 -4.79256,0.78478 -4.87184,0.57817 z"
     id="path468" /><path
     style="fill:#ffffff;stroke:none;stroke-width:1.63864;stroke-linecap:round;stroke-linejoin:round;stroke-dasharray:none"
     d="m 116.7904,263.76717 c -0.2931,-0.063 -1.10948,-0.0792 -1.81419,-0.036 -1.18824,0.073 -1.33648,0.0534 -2.04097,-0.26911 -2.32574,-1.06476 -8.98418,-6.41537 -9.19275,-7.38713 -0.0426,-0.19839 -0.0216,-0.9421 0.0465,-1.65271 0.14163,-1.47613 -0.005,-6.63214 -0.31808,-11.18391 -1.27173,-18.48934 -2.97057,-28.02749 -7.020064,-39.41417 -2.15853,-6.06954 -4.00194,-10.42832 -5.44734,-12.88038 -0.40232,-0.68252 -0.40385,-0.69224 -0.13216,-0.83765 0.15119,-0.0809 1.63849,-0.61857 3.3051,-1.19477 1.66661,-0.57622 4.64885,-1.62822 6.627204,-2.33778 7.06164,-2.53276 13.99332,-4.35408 17.31891,-4.55059 2.98772,-0.17656 8.58723,1.2346 17.3855,4.38139 2.67445,0.95654 6.18152,2.20645 7.79352,2.77758 1.97814,0.70086 2.91739,1.095 2.88938,1.21249 -0.0229,0.0957 -0.88546,2.03254 -1.91695,4.30398 -3.94792,8.69371 -5.66373,13.59166 -7.23372,20.64946 -1.49612,6.72569 -2.58958,14.19143 -3.25854,22.24812 -0.45598,5.49167 -0.54674,7.4186 -0.63381,13.45546 l -0.0845,5.86178 -1.24669,1.12354 c -1.66119,1.49708 -3.31435,2.81546 -5.54963,4.42578 l -1.84715,1.3307 -3.2153,-0.0429 c -1.76841,-0.0236 -3.36518,-0.003 -3.54835,0.0443 -0.18319,0.0479 -0.57286,0.0356 -0.86595,-0.0276 z"
     id="path469" /><path
     style="fill:#ffffff;stroke:none;stroke-width:1.63864;stroke-linecap:round;stroke-linejoin:round;stroke-dasharray:none"
     d="m 84.284146,212.46227 c -6.14172,-0.9404 -10.21621,-1.74374 -10.64376,-2.09858 -0.34851,-0.28924 -1.37785,-3.14694 -4.87483,-13.5337 -0.7894,-2.34472 -1.92208,-5.62874 -2.51705,-7.29782 -1.02014,-2.86185 -1.23744,-3.69303 -0.96544,-3.69303 0.064,0 1.12718,0.9397 2.36268,2.08821 4.57852,4.25618 6.07577,5.16464 9.64423,5.85168 0.9159,0.17635 1.79165,0.34944 1.94611,0.38466 0.30425,0.0694 0.68365,0.92655 2.7427,6.19669 2.53322,6.48375 4.52994,11.97272 4.42001,12.15058 -0.0825,0.1335 -1.07382,0.11068 -2.11465,-0.0487 z"
     id="path470" /><path
     style="fill:#ffffff;stroke:none;stroke-width:1.63864;stroke-linecap:round;stroke-linejoin:round;stroke-dasharray:none"
     d="m 88.680486,247.43229 c -3.18215,-1.61412 -13.53553,-7.18072 -14.62115,-7.8612 -0.45924,-0.28785 -0.49959,-0.36252 -0.49959,-0.92452 0,-1.39845 0.29837,-4.55329 0.47856,-5.06016 0.11774,-0.33121 0.15279,-0.65735 0.0891,-0.82942 -0.13486,-0.36454 0.47964,-8.16258 0.66061,-8.38329 0.20876,-0.25461 1.78573,-0.2065 5.50644,0.16797 4.96937,0.50015 8.91309,1.01414 9.08272,1.18377 0.12312,0.12313 1.01212,13.93635 1.01476,15.76732 0.002,1.11741 0.0554,2.03164 0.11944,2.03164 0.0641,0 0.068,0.075 0.009,0.16653 -0.0593,0.0916 -0.11193,0.76603 -0.117,1.49876 -0.009,1.29033 -0.24861,2.87129 -0.43319,2.85753 -0.0497,-0.003 -0.63003,-0.28042 -1.28947,-0.61493 z"
     id="path471" /><path
     style="fill:#ffffff;stroke:none;stroke-width:1.63864;stroke-linecap:round;stroke-linejoin:round;stroke-dasharray:none"
     d="m 20.956196,263.7759 c -1.78459,-0.279 -3.94279,-0.64027 -4.796,-0.80282 l -1.55132,-0.29554 0.032,-11.34176 c 0.0355,-12.5809 0.24234,-25.14999 0.44759,-27.19522 0.21959,-2.18815 1.63203,-8.85908 2.33418,-11.02431 0.24762,-0.76353 0.46728,-0.84696 1.66047,-0.6306 2.4371,0.44193 6.75788,2.23653 11.57406,4.80722 l 3.31449,1.76912 0.0982,1.27368 c 0.3375,4.37697 -1.4185,13.45743 -4.43277,22.92229 -2.70061,8.47999 -3.49653,11.63435 -4.35504,17.25999 -0.49069,3.21535 -0.63101,3.79692 -0.91134,3.77718 -0.0934,-0.007 -1.62994,-0.24022 -3.41452,-0.51923 z"
     id="path472" /><path
     style="fill:#ffffff;stroke:none;stroke-width:1.63864;stroke-linecap:round;stroke-linejoin:round;stroke-dasharray:none"
     d="m 20.437296,310.16887 c -0.94209,-1.09473 -2.76236,-3.57725 -3.93175,-5.3622 -1.76894,-2.70009 -2.79645,-4.84224 -3.23998,-6.75468 -0.42444,-1.8302 -0.11472,-16.58388 0.4282,-20.39695 0.13428,-0.9431 0.37994,-1.02816 2.90864,-1.00708 2.39224,0.0199 4.97703,0.38782 5.70299,0.81167 0.6689,0.39053 1.48909,1.51353 3.29432,4.51051 3.62391,6.0163 5.00731,9.69303 4.68261,12.44519 l -0.0864,0.73273 -0.76333,-1.08224 c -1.81609,-2.57481 -3.72546,-3.65046 -6.47054,-3.64519 -2.82227,0.005 -4.35822,1.07494 -4.5307,3.15483 -0.04,0.48267 -0.11671,0.70665 -0.24194,0.70665 -0.24185,0 -0.24139,0.71561 7.6e-4,1.10377 0.10121,0.16228 0.22155,0.77467 0.26743,1.36084 0.11643,1.4879 0.99772,5.73001 2.08887,10.05479 0.5079,2.01306 0.92346,3.7666 0.92346,3.89675 0,0.43277 -0.36601,0.24511 -1.03254,-0.52939 z"
     id="path473" /><path
     style="fill:#ffffff;stroke:none;stroke-width:1.63864;stroke-linecap:round;stroke-linejoin:round;stroke-dasharray:none"
     d="m 63.509326,329.8652 c -0.28718,-0.46468 -0.81479,-8.22597 -0.98802,-14.53396 -0.33151,-12.0727 0.2276,-17.93811 3.45423,-36.23647 3.29928,-18.71038 4.63262,-25.86329 4.86655,-26.10734 0.1639,-0.17099 0.42678,-0.0751 2.08932,0.76236 2.50712,1.26284 7.62484,4.11525 11.71173,6.52765 l 3.28988,1.94194 -0.20829,0.47766 c -1.60224,3.67424 -3.42897,8.57824 -5.51262,14.79906 -2.89255,8.6358 -4.04088,13.1358 -8.65203,33.90508 -3.14014,14.14368 -3.01408,13.75627 -4.99617,15.35529 -1.49452,1.2057 -3.24763,2.4192 -4.15876,2.87872 -0.78082,0.39379 -0.79271,0.39685 -0.89582,0.23001 z"
     id="path474" /><path
     style="fill:#ffffff;stroke:none;stroke-width:1.63864;stroke-linecap:round;stroke-linejoin:round;stroke-dasharray:none"
     d="m 96.873286,336.28682 c -1.58085,-1.88521 -3.83353,-4.91725 -5.86922,-7.8998 -1.78844,-2.62031 -3.17387,-4.55932 -4.56901,-6.39467 -1.32076,-1.7375 -1.36076,-2.18234 -0.60487,-6.72772 0.80458,-4.83827 2.33374,-11.17334 5.4024,-22.38135 3.8316,-13.99459 6.89212,-23.78019 7.43743,-23.78019 0.47065,0 4.333954,2.84702 7.928874,5.84312 1.42386,1.18667 2.02804,1.61091 2.29808,1.61363 0.2015,0.002 0.36637,0.0637 0.36637,0.13692 0,0.19498 1.03113,0.16407 1.11076,-0.0333 0.0537,-0.13323 0.0693,-0.13323 0.0777,0 0.0125,0.19894 0.94308,0.2318 0.94308,0.0333 0,-0.0875 3.01912,-0.13322 8.79093,-0.13322 h 8.79094 l 1.90015,-1.61155 c 2.19415,-1.86089 4.44965,-3.59553 6.16328,-4.74001 1.73918,-1.16152 1.77083,-1.17522 2.07603,-0.89902 0.14045,0.1271 0.25536,0.30701 0.25536,0.39977 0,0.0928 0.72333,2.58641 1.60741,5.54139 2.68355,8.96968 4.32685,14.95565 6.83286,24.88978 2.62834,10.41904 3.81975,16.18667 3.83897,18.58451 0.0128,1.59957 -0.25685,2.26597 -1.69815,4.1965 -0.62909,0.84263 -2.37979,3.30058 -3.89042,5.46211 -3.94696,5.64763 -6.04428,8.43485 -6.68437,8.88319 -0.21988,0.15401 -0.26605,0.12011 -0.44353,-0.32566 -1.10964,-2.78705 -6.90746,-28.08532 -8.67818,-37.86644 -1.11066,-6.13501 -1.25693,-6.57171 -2.38438,-7.11865 -0.86086,-0.4176 -2.30011,-0.56426 -6.84858,-0.69783 -1.81514,-0.0533 -3.19461,-0.11944 -3.06549,-0.14697 0.12913,-0.0276 0.20052,-0.10546 0.15867,-0.17319 -0.1031,-0.16681 -1.25938,-0.15755 -1.25938,0.0101 0,0.0733 0.075,0.14166 0.16652,0.15198 0.43254,0.0487 -1.43617,0.22282 -2.5171,0.23451 -1.4293,0.0155 -3.76765,0.23643 -4.47101,0.42251 -0.27144,0.0718 -0.66813,0.27748 -0.88152,0.45704 -0.82844,0.6971 -1.15519,1.93665 -3.10541,11.78096 -3.45621,17.44623 -7.205824,33.31061 -7.928334,33.54428 -0.0837,0.0271 -0.64488,-0.53811 -1.24688,-1.25602 z m 23.980394,-45.33527 c 0,-0.0777 -0.44407,-0.13322 -1.06578,-0.13322 -0.62171,0 -1.06578,0.0555 -1.06578,0.13322 0,0.0777 0.44407,0.13322 1.06578,0.13322 0.62171,0 1.06578,-0.0555 1.06578,-0.13322 z"
     id="path475" /><path
     style="fill:#ffffff;stroke:none;stroke-width:1.63864;stroke-linecap:round;stroke-linejoin:round;stroke-dasharray:none"
     d="m 171.27833,328.79166 c -3.24785,-2.24024 -4.29513,-3.11157 -4.45468,-3.70629 -0.36747,-1.36966 -1.157,-4.83381 -2.0713,-9.08803 -5.26576,-24.50178 -8.76883,-37.26588 -13.58293,-49.49208 -0.60587,-1.53872 -1.18315,-3.11873 -1.28283,-3.51113 -0.16998,-0.66915 -0.16497,-0.72566 0.0807,-0.90979 1.26441,-0.94772 15.76269,-9.23437 16.15641,-9.23437 0.36023,0 0.71747,1.84707 3.88329,20.07874 3.39474,19.54995 4.15275,24.99001 4.53464,32.54408 0.15512,3.06833 0.17666,8.393 0.0339,8.39302 -0.055,10e-6 -0.10644,1.0941 -0.11443,2.43131 -0.0187,3.13345 -0.62144,11.58238 -0.96024,13.46032 l -0.091,0.50448 z"
     id="path476" /><path
     style="fill:#ffffff;stroke:none;stroke-width:1.63864;stroke-linecap:round;stroke-linejoin:round;stroke-dasharray:none"
     d="m 160.75376,381.20252 c -0.75365,-0.39388 -0.92143,-0.58621 -10.4666,-11.9974 -1.96737,-2.35198 -3.05814,-3.85298 -3.45982,-4.76102 -0.29557,-0.66821 -2.12646,-7.96403 -2.54025,-10.12256 l -0.27656,-1.44267 0.57181,-0.8221 c 0.31449,-0.45217 1.5887,-2.20097 2.83156,-3.88623 4.27216,-5.79284 6.44205,-8.79714 7.93827,-10.99085 0.82461,-1.20899 1.57179,-2.27478 1.66043,-2.36843 0.12933,-0.13664 0.33841,-0.0361 1.05858,0.5091 1.25421,0.94946 4.50746,3.06165 8.31838,5.40074 5.39708,3.31266 5.58268,3.53736 5.40177,6.53931 -0.0663,1.10157 -0.1174,1.34093 -0.27311,1.28118 -0.15021,-0.0577 -0.18235,0.038 -0.14907,0.44384 0.0267,0.32616 0.10394,0.50503 0.20892,0.48403 0.0916,-0.0183 0.16653,0.0548 0.16653,0.16234 0,0.11919 -0.0781,0.16568 -0.19983,0.11898 -0.15487,-0.0594 -0.19983,0.0314 -0.19983,0.40384 0,0.31828 0.0616,0.48053 0.18269,0.48053 0.13858,0 0.20455,0.36185 0.27324,1.49875 0.16627,2.7522 0.49593,5.98427 1.138,11.15737 l 0.6366,5.12906 -1.39414,3.33056 c -1.6132,3.85391 -3.01899,6.81967 -3.61295,7.62219 -0.67413,0.91083 -0.93926,1.00201 -4.55067,1.56512 -1.20899,0.18852 -2.34804,0.3721 -2.53122,0.40797 -0.18318,0.0358 -0.51291,-0.0288 -0.73273,-0.14365 z"
     id="path477" /><path
     style="fill:#ffffff;stroke:none;stroke-width:1.63864;stroke-linecap:round;stroke-linejoin:round;stroke-dasharray:none"
     d="m 74.159256,381.19974 c -3.48321,-0.53442 -4.50522,-0.8809 -5.48319,-1.85887 -0.87748,-0.87748 -1.74804,-2.64886 -3.70863,-7.54619 l -1.4225,-3.5532 0.47745,-4.37353 c 0.95663,-8.76273 1.27367,-12.93633 1.27847,-16.8298 0.002,-1.42881 0.0498,-2.67118 0.10674,-2.76083 0.21546,-0.33913 14.15011,-9.3624 14.45838,-9.3624 0.33493,0 1.34037,1.25747 5.11293,6.39467 1.964,2.67444 4.19469,5.66617 4.95706,6.64829 1.54479,1.99005 2.93351,4.01423 3.20697,4.67441 0.14855,0.35862 0.15072,0.61208 0.0124,1.45019 -0.36572,2.2162 -2.39796,9.5739 -3.11209,11.26736 -0.22396,0.53111 -1.21669,1.78603 -3.76437,4.75863 -5.11389,5.96683 -7.02415,8.13425 -8.63929,9.80228 -1.63743,1.69108 -1.40962,1.6067 -3.48034,1.28899 z"
     id="path478" /><path
     style="fill:#ffffff;stroke:none;stroke-width:1.63864;stroke-linecap:round;stroke-linejoin:round;stroke-dasharray:none"
     d="m 73.964766,440.87169 c -0.53357,-1.16049 -2.34405,-5.24573 -4.02329,-9.07833 -1.67925,-3.83259 -4.25654,-9.61777 -5.72732,-12.85596 -4.10225,-9.03181 -6.05875,-13.72268 -6.81961,-16.35054 -0.29022,-1.00235 -0.32251,-1.32655 -0.27198,-2.73105 0.12953,-3.60062 1.71805,-11.38552 2.32323,-11.38552 0.0616,0 0.63955,0.49889 1.28445,1.10863 1.9467,1.84061 2.72695,2.26166 5.23583,2.8255 2.62875,0.59079 7.15158,1.28897 10.30057,1.59007 1.0976,0.10495 2.05863,0.25381 2.13563,0.33081 0.18478,0.18478 0.84575,0.17973 0.96136,-0.007 0.061,-0.0987 0.40417,-0.11917 1.04034,-0.062 l 0.94928,0.0854 0.99916,-1.29851 c 1.80762,-2.34916 5.15422,-6.49838 5.49223,-6.80943 l 0.33158,-0.30514 0.0769,0.83803 c 0.0436,0.47485 0.023,0.85727 -0.0477,0.88242 -0.17877,0.0637 -0.15404,1.05594 0.0278,1.11656 0.11228,0.0374 0.10905,0.13163 -0.0123,0.35835 -0.10511,0.19641 -0.13339,0.53118 -0.0783,0.9262 0.11271,0.80726 0.1137,1.04211 0.0223,5.28138 -0.15768,7.31343 -0.43223,9.93201 -1.54422,14.72796 -1.35562,5.84671 -3.22167,11.38834 -7.4669,22.17463 -1.03817,2.6378 -2.36811,6.05495 -2.95541,7.59367 -0.5873,1.53871 -1.11188,2.87788 -1.16576,2.97592 -0.0618,0.11255 -0.4555,-0.59945 -1.06804,-1.93173 z"
     id="path479" /><path
     style="fill:#ffffff;stroke:none;stroke-width:1.63864;stroke-linecap:round;stroke-linejoin:round;stroke-dasharray:none"
     d="m 161.72315,442.01328 c -1.36555,-3.19273 -4.65426,-11.50072 -6.42887,-16.24074 -4.7652,-12.72797 -6.21217,-20.12994 -6.23723,-31.90674 -0.005,-2.56454 0.0371,-5.30935 0.0947,-6.09958 l 0.1046,-1.43679 0.66782,0.97052 c 0.88691,1.28891 1.65238,2.26499 3.86924,4.93387 1.55069,1.86687 1.91158,2.23138 2.20879,2.2309 0.4131,-7.6e-4 5.47812,-0.45768 7.42074,-0.66955 5.26603,-0.57436 9.21235,-1.33831 10.84498,-2.09944 0.47613,-0.22197 1.19905,-0.79352 2.1073,-1.66604 0.79224,-0.76109 1.43203,-1.27797 1.49847,-1.21064 0.33289,0.33737 1.56891,5.65538 1.99352,8.57713 0.33831,2.32791 0.27417,4.3653 -0.18433,5.85509 -0.81538,2.64944 -2.58345,6.73773 -11.6411,26.91761 -2.71326,6.04496 -5.13713,11.43489 -5.38638,11.97762 l -0.45317,0.98678 z"
     id="path480" /><path
     style="fill:#ffffff;stroke:none;stroke-width:1.63864;stroke-linecap:round;stroke-linejoin:round;stroke-dasharray:none"
     d="m 43.518116,495.58161 c -1.09908,-0.0548 -2.10325,-0.10713 -2.23147,-0.11661 -0.12823,-0.01 -0.23314,-0.0844 -0.23314,-0.16635 0,-0.0817 0.67444,-1.05568 1.49875,-2.16346 5.92941,-7.96892 12.46645,-19.79157 14.15345,-25.59745 0.66969,-2.30477 0.78906,-3.50722 0.78689,-7.92673 -0.002,-4.06588 -0.0524,-5.22663 -0.65356,-15.05412 -0.50023,-8.17722 -0.65339,-11.78179 -0.51143,-12.03547 0.0978,-0.17485 0.23865,0.0939 0.63344,1.20924 1.19016,3.36228 2.59142,6.64166 5.33754,12.4915 3.05035,6.49793 4.35093,9.48699 5.53583,12.72274 l 0.70739,1.93172 -0.322,3.86345 c -0.21848,2.62134 -0.31828,4.7629 -0.31044,6.66112 0.0137,3.32405 0.11796,4.09913 1.97929,14.72102 1.54764,8.83199 1.58448,9.05861 1.48771,9.15539 -0.0434,0.0435 -0.36418,0.13375 -0.71293,0.20097 -0.78212,0.15061 -24.38662,0.24018 -27.14532,0.10304 z"
     id="path481" /><path
     style="fill:#ffffff;stroke:none;stroke-width:1.63864;stroke-linecap:round;stroke-linejoin:round;stroke-dasharray:none"
     d="m 190.79539,495.95232 c -1.02976,-0.12635 -1.46119,-0.14948 -2.26478,-0.12157 -0.25645,0.009 -0.67609,0.0113 -0.93255,0.009 -0.25645,-0.009 -0.73605,-0.009 -1.06578,0 -0.32973,0 -0.8393,-1.8e-4 -1.13239,-0.009 -0.29309,-0.009 -0.74271,-0.009 -0.99916,0 -0.25646,0.01 -0.6911,0.0183 -0.96587,0.02 -0.27477,0 -0.75437,0.009 -1.06577,0.013 -2.30967,0.0417 -12.85646,-0.15817 -14.08827,-0.26687 -1.88551,-0.16644 -2.5385,-0.24244 -2.5928,-0.30166 -0.0937,-0.10218 0.5255,-3.90942 1.3306,-8.18128 1.71141,-9.08062 1.96951,-11.12431 1.98423,-15.71113 0.006,-1.8318 -0.0429,-4.79934 -0.10829,-6.59451 -0.19411,-5.32447 -0.15189,-5.46718 4.56007,-15.41522 3.54594,-7.48631 5.54712,-12.06581 6.71172,-15.35913 0.22025,-0.62282 0.51231,-1.34222 0.64902,-1.59867 l 0.24858,-0.46628 -0.0677,1.26561 c -0.0373,0.69609 -0.21392,3.51374 -0.39255,6.26145 -0.72828,11.20229 -0.89754,14.94916 -0.91473,20.24979 -0.0126,3.87572 0.009,4.29949 0.28295,5.54372 0.65219,2.96271 2.27704,6.86694 4.81741,11.57535 2.50295,4.63912 4.66858,8.13026 8.92503,14.38801 1.44533,2.12493 2.76359,4.08829 2.92947,4.36299 l 0.3016,0.49958 -2.5754,-0.0191 c -1.41647,-0.0113 -3.02502,-0.0748 -3.57456,-0.14209 z"
     id="path482" /></svg>
