<?xml version="1.0" encoding="UTF-8" standalone="no"?>
<!-- Created with Inkscape (http://www.inkscape.org/) -->

<svg
   width="211.85539"
   height="505.89163"
   viewBox="0 0 211.85539 505.89163"
   version="1.1"
   id="svg1"
   xml:space="preserve"
   sodipodi:docname="Template.svg"
   inkscape:version="1.4 (86a8ad7, 2024-10-11)"
   inkscape:export-filename="Suit-case.svg"
   inkscape:export-xdpi="96"
   inkscape:export-ydpi="96"
   xmlns:inkscape="http://www.inkscape.org/namespaces/inkscape"
   xmlns:sodipodi="http://sodipodi.sourceforge.net/DTD/sodipodi-0.dtd"
   xmlns="http://www.w3.org/2000/svg"
   xmlns:svg="http://www.w3.org/2000/svg"><sodipodi:namedview
     id="namedview1"
     pagecolor="#ffffff"
     bordercolor="#000000"
     borderopacity="0.25"
     inkscape:showpageshadow="2"
     inkscape:pageopacity="0.0"
     inkscape:pagecheckerboard="true"
     inkscape:deskcolor="#d1d1d1"
     inkscape:zoom="1.4142136"
     inkscape:cx="308.65211"
     inkscape:cy="285.31759"
     inkscape:window-width="2560"
     inkscape:window-height="1494"
     inkscape:window-x="585"
     inkscape:window-y="2149"
     inkscape:window-maximized="1"
     inkscape:current-layer="svg1"><inkscape:page
       x="0"
       y="0"
       width="211.85539"
       height="505.89163"
       id="page2"
       margin="0"
       bleed="0" /></sodipodi:namedview><defs
     id="defs1" /><g
     id="g415"
     transform="matrix(0.37590269,0,0,0.37590269,24.732366,195.79965)"><path
       style="fill:#d0d0d0;fill-opacity:1"
       d="m 348.75,793.33772 c 0.6875,-0.27741 1.8125,-0.27741 2.5,0 0.6875,0.27741 0.125,0.50439 -1.25,0.50439 -1.375,0 -1.9375,-0.22698 -1.25,-0.50439 z m -203.67105,-1.92105 c 0.048,-1.16495 0.28494,-1.4019 0.60416,-0.60417 0.28887,0.72187 0.25335,1.58437 -0.0789,1.91667 -0.33229,0.33229 -0.56864,-0.25834 -0.52522,-1.3125 z m 141,-1 c 0.048,-1.16495 0.28494,-1.4019 0.60416,-0.60417 0.28887,0.72187 0.25335,1.58437 -0.0789,1.91667 -0.33229,0.33229 -0.56864,-0.25834 -0.52522,-1.3125 z M 288.232,734 c 0,-1.925 0.2058,-2.7125 0.45733,-1.75 0.25152,0.9625 0.25152,2.5375 0,3.5 -0.25153,0.9625 -0.45733,0.175 -0.45733,-1.75 z M 337.75,547.29427 c 1.2375,-0.23836 3.2625,-0.23836 4.5,0 1.2375,0.23835 0.225,0.43337 -2.25,0.43337 -2.475,0 -3.4875,-0.19502 -2.25,-0.43337 z m -83.67105,-14.8776 c 0.048,-1.16495 0.28494,-1.4019 0.60416,-0.60417 0.28887,0.72187 0.25335,1.58437 -0.0789,1.91667 -0.33229,0.33229 -0.56864,-0.25834 -0.52522,-1.3125 z M 118.75,513.33772 c 0.6875,-0.27741 1.8125,-0.27741 2.5,0 0.6875,0.27741 0.125,0.50439 -1.25,0.50439 -1.375,0 -1.9375,-0.22698 -1.25,-0.50439 z m 186.0625,-0.0208 c 0.72187,-0.28887 1.58438,-0.25335 1.91667,0.0789 0.33229,0.3323 -0.25834,0.56864 -1.3125,0.52522 -1.16495,-0.048 -1.4019,-0.28494 -0.60417,-0.60416 z M -60.842105,175 c 0,-1.375 0.226973,-1.9375 0.504386,-1.25 0.277412,0.6875 0.277412,1.8125 0,2.5 -0.277413,0.6875 -0.504386,0.125 -0.504386,-1.25 z m 0,-7 c 0,-1.375 0.226973,-1.9375 0.504386,-1.25 0.277412,0.6875 0.277412,1.8125 0,2.5 -0.277413,0.6875 -0.504386,0.125 -0.504386,-1.25 z m 553.170245,-8.5 c 0.004,-3.85 0.18518,-5.30246 0.40166,-3.2277 0.21647,2.07477 0.21284,5.22477 -0.008,7 -0.22091,1.77524 -0.39803,0.0777 -0.39359,-3.7723 z M 200.07895,131.41667 c 0.048,-1.16495 0.28494,-1.4019 0.60416,-0.60417 0.28887,0.72187 0.25335,1.58438 -0.0789,1.91667 -0.33229,0.33229 -0.56864,-0.25834 -0.52522,-1.3125 z M 231.19495,87.5 c 0.0204,-1.65 0.2445,-2.203936 0.49804,-1.230968 0.25354,0.972967 0.23687,2.322967 -0.0371,3 C 231.38201,89.946064 231.17457,89.15 231.19495,87.5 Z m 0.0572,-23 c 0.0111,-2.2 0.21589,-2.982253 0.45508,-1.738341 0.23919,1.243913 0.23011,3.043913 -0.0202,4 C 231.43679,67.717747 231.24108,66.7 231.25218,64.5 Z M 136.75,-33.662281 c 0.6875,-0.277412 1.8125,-0.277412 2.5,0 0.6875,0.277413 0.125,0.504386 -1.25,0.504386 -1.375,0 -1.9375,-0.226973 -1.25,-0.504386 z M 279,-261.37756 c 0,-0.20765 0.7875,-0.99515 1.75,-1.75 1.58606,-1.24387 1.62143,-1.2085 0.37756,0.37756 -1.30637,1.66575 -2.12756,2.19548 -2.12756,1.37244 z M 347.32007,-386 c 0,-3.575 0.1815,-5.0375 0.40333,-3.25 0.22182,1.7875 0.22182,4.7125 0,6.5 -0.22183,1.7875 -0.40333,0.325 -0.40333,-3.25 z M 226.8125,-432.68311 c 0.72187,-0.28887 1.58438,-0.25335 1.91667,0.0789 0.33229,0.33229 -0.25834,0.56864 -1.3125,0.52522 -1.16495,-0.048 -1.4019,-0.28494 -0.60417,-0.60416 z m -13,-88 c 0.72187,-0.28887 1.58438,-0.25335 1.91667,0.0789 0.33229,0.33229 -0.25834,0.56864 -1.3125,0.52522 -1.16495,-0.048 -1.4019,-0.28494 -0.60417,-0.60416 z m 8,0 c 0.72187,-0.28887 1.58438,-0.25335 1.91667,0.0789 0.33229,0.33229 -0.25834,0.56864 -1.3125,0.52522 -1.16495,-0.048 -1.4019,-0.28494 -0.60417,-0.60416 z"
       id="path422" /><path
       style="fill:#b9b9b9;fill-opacity:1"
       d="m 145.19495,795.5 c 0.0204,-1.65 0.2445,-2.20394 0.49804,-1.23097 0.25354,0.97297 0.23687,2.32297 -0.0371,3 -0.27393,0.67703 -0.48137,-0.11903 -0.46099,-1.76903 z m 140.884,-2.08333 c 0.048,-1.16495 0.28494,-1.4019 0.60416,-0.60417 0.28887,0.72187 0.25335,1.58437 -0.0789,1.91667 -0.33229,0.33229 -0.56864,-0.25834 -0.52522,-1.3125 z M 86.8125,793.31689 c 0.721875,-0.28887 1.584375,-0.25335 1.916667,0.0789 0.332291,0.3323 -0.258334,0.56864 -1.3125,0.52522 -1.164943,-0.048 -1.4019,-0.28494 -0.604167,-0.60416 z m 259,0 c 0.72187,-0.28887 1.58438,-0.25335 1.91667,0.0789 0.33229,0.3323 -0.25834,0.56864 -1.3125,0.52522 -1.16495,-0.048 -1.4019,-0.28494 -0.60417,-0.60416 z M 254.15789,547 c 0,-1.375 0.22698,-1.9375 0.50439,-1.25 0.27741,0.6875 0.27741,1.8125 0,2.5 -0.27741,0.6875 -0.50439,0.125 -0.50439,-1.25 z M 91.75,547.33772 c 0.6875,-0.27741 1.8125,-0.27741 2.5,0 0.6875,0.27741 0.125,0.50439 -1.25,0.50439 -1.375,0 -1.9375,-0.22698 -1.25,-0.50439 z m 254,-0.0435 c 1.2375,-0.23836 3.2625,-0.23836 4.5,0 1.2375,0.23835 0.225,0.43337 -2.25,0.43337 -2.475,0 -3.4875,-0.19502 -2.25,-0.43337 z M 115.8125,513.31689 c 0.72188,-0.28887 1.58438,-0.25335 1.91667,0.0789 0.33229,0.3323 -0.25834,0.56864 -1.3125,0.52522 -1.16495,-0.048 -1.4019,-0.28494 -0.60417,-0.60416 z m 193.45125,-0.0345 c 1.52006,-0.22986 3.77006,-0.22371 5,0.0136 1.22994,0.23736 -0.0138,0.42542 -2.76375,0.41792 -2.75,-0.008 -3.75631,-0.20172 -2.23625,-0.43157 z M 27.078947,231.41667 c 0.04798,-1.16495 0.284941,-1.4019 0.604167,-0.60417 0.288871,0.72187 0.253344,1.58438 -0.07895,1.91667 -0.332292,0.33229 -0.568641,-0.25834 -0.52522,-1.3125 z m -88,-60 c 0.04798,-1.16495 0.284941,-1.4019 0.604167,-0.60417 0.288871,0.72187 0.253344,1.58438 -0.07895,1.91667 -0.332292,0.33229 -0.568641,-0.25834 -0.52522,-1.3125 z M 119.87244,153.25 c -1.24387,-1.58606 -1.2085,-1.62143 0.37756,-0.37756 1.66575,1.30637 2.19548,2.12756 1.37244,2.12756 -0.20765,0 -0.99515,-0.7875 -1.75,-1.75 z m 96.94006,-5.93311 c 0.72187,-0.28887 1.58438,-0.25335 1.91667,0.0789 0.33229,0.33229 -0.25834,0.56864 -1.3125,0.52522 -1.16495,-0.048 -1.4019,-0.28494 -0.60417,-0.60416 z M 200.29966,125 c 0,-3.025 0.18747,-4.2625 0.41659,-2.75 0.22913,1.5125 0.22913,3.9875 0,5.5 -0.22912,1.5125 -0.41659,0.275 -0.41659,-2.75 z m 51.85823,-5 c 0,-1.375 0.22698,-1.9375 0.50439,-1.25 0.27741,0.6875 0.27741,1.8125 0,2.5 -0.27741,0.6875 -0.50439,0.125 -0.50439,-1.25 z m -21,-61 c 0,-1.375 0.22698,-1.9375 0.50439,-1.25 0.27741,0.6875 0.27741,1.8125 0,2.5 -0.27741,0.6875 -0.50439,0.125 -0.50439,-1.25 z m 0,-5 c 0,-1.375 0.22698,-1.9375 0.50439,-1.25 0.27741,0.6875 0.27741,1.8125 0,2.5 -0.27741,0.6875 -0.50439,0.125 -0.50439,-1.25 z m -13.88886,-574.69299 c 0.97297,-0.25354 2.32297,-0.23687 3,0.0371 0.67703,0.27393 -0.11903,0.48137 -1.76903,0.46099 -1.65,-0.0204 -2.20394,-0.2445 -1.23097,-0.49804 z"
       id="path421" /><path
       style="fill:#a3a3a3;fill-opacity:1"
       d="m 286.07895,796.41667 c 0.048,-1.16495 0.28494,-1.4019 0.60416,-0.60417 0.28887,0.72187 0.25335,1.58437 -0.0789,1.91667 -0.33229,0.33229 -0.56864,-0.25834 -0.52522,-1.3125 z M 84.26375,547.28242 c 1.520062,-0.22986 3.770062,-0.22371 5,0.0136 1.229937,0.23736 -0.01375,0.42542 -2.76375,0.41792 -2.75,-0.008 -3.756313,-0.20172 -2.23625,-0.43157 z M 254.232,539 c 0,-1.925 0.2058,-2.7125 0.45733,-1.75 0.25152,0.9625 0.25152,2.5375 0,3.5 -0.25153,0.9625 -0.45733,0.175 -0.45733,-1.75 z M 112.8125,513.31689 c 0.72188,-0.28887 1.58438,-0.25335 1.91667,0.0789 0.33229,0.3323 -0.25834,0.56864 -1.3125,0.52522 -1.16495,-0.048 -1.4019,-0.28494 -0.60417,-0.60416 z m 208.97669,-0.0583 c 3.45905,-0.19583 8.85905,-0.19422 12,0.004 3.14094,0.19781 0.31081,0.35803 -6.28919,0.35606 -6.6,-0.002 -9.16987,-0.16382 -5.71081,-0.35965 z M 53.078947,438.41667 c 0.04798,-1.16495 0.284941,-1.4019 0.604167,-0.60417 0.288871,0.72187 0.253344,1.58437 -0.07895,1.91667 -0.332292,0.33229 -0.568641,-0.25834 -0.52522,-1.3125 z m 308.000003,-154 c 0.048,-1.16495 0.28494,-1.4019 0.60416,-0.60417 0.28887,0.72187 0.25335,1.58438 -0.0789,1.91667 -0.33229,0.33229 -0.56864,-0.25834 -0.52522,-1.3125 z M 27.272364,237 c 0,-2.475 0.195016,-3.4875 0.433369,-2.25 0.238353,1.2375 0.238353,3.2625 0,4.5 -0.238353,1.2375 -0.433369,0.225 -0.433369,-2.25 z m 89.600076,-86.75 c -1.24387,-1.58606 -1.2085,-1.62143 0.37756,-0.37756 1.66575,1.30637 2.19548,2.12756 1.37244,2.12756 -0.20765,0 -0.99515,-0.7875 -1.75,-1.75 z M 200.29966,115 c 0,-3.025 0.18747,-4.2625 0.41659,-2.75 0.22913,1.5125 0.22913,3.9875 0,5.5 -0.22912,1.5125 -0.41659,0.275 -0.41659,-2.75 z m 51.89529,0.5 c 0.0204,-1.65 0.2445,-2.20394 0.49804,-1.23097 0.25354,0.97297 0.23687,2.32297 -0.0371,3 -0.27393,0.67703 -0.48137,-0.11903 -0.46099,-1.76903 z m -21,-66 c 0.0204,-1.65 0.2445,-2.203936 0.49804,-1.230968 0.25354,0.972967 0.23687,2.322967 -0.0371,3 C 231.38201,51.946064 231.17457,51.15 231.19495,49.5 Z M 281,37.622445 c 0,-0.207656 0.7875,-0.995156 1.75,-1.75 1.58606,-1.243871 1.62143,-1.208501 0.37756,0.377555 C 281.82119,37.915748 281,38.445479 281,37.622445 Z M 231.36523,-135.5 c 0.003,-5.5 0.17053,-7.62242 0.37317,-4.71648 0.20265,2.90594 0.20052,7.40594 -0.005,10 -0.20525,2.59406 -0.37104,0.21648 -0.36844,-5.28352 z m -0.0554,-17 c 0.006,-3.3 0.1923,-4.52944 0.41486,-2.73209 0.22256,1.79735 0.21797,4.49735 -0.0102,6 -0.22818,1.50265 -0.41027,0.0321 -0.40466,-3.26791 z"
       id="path420" /><path
       style="fill:#8c8c8c;fill-opacity:1"
       d="m 349.15789,724 c 0,-1.375 0.22698,-1.9375 0.50439,-1.25 0.27741,0.6875 0.27741,1.8125 0,2.5 -0.27741,0.6875 -0.50439,0.125 -0.50439,-1.25 z M -5.8421053,236 c 0,-1.375 0.2269737,-1.9375 0.504386,-1.25 0.2774123,0.6875 0.2774123,1.8125 0,2.5 -0.2774123,0.6875 -0.504386,0.125 -0.504386,-1.25 z M 200.30987,104.5 c 0.006,-3.3 0.1923,-4.529441 0.41486,-2.73209 0.22256,1.79735 0.21797,4.49735 -0.0102,6 -0.22818,1.50265 -0.41027,0.0321 -0.40466,-3.26791 z M 147.15789,104 c 0,-1.375 0.22698,-1.9375 0.50439,-1.25 0.27741,0.6875 0.27741,1.8125 0,2.5 -0.27741,0.6875 -0.50439,0.125 -0.50439,-1.25 z m 52.92106,-38.583333 c 0.048,-1.164943 0.28494,-1.4019 0.60416,-0.604167 0.28887,0.721875 0.25335,1.584375 -0.0789,1.916667 -0.33229,0.332291 -0.56864,-0.258334 -0.52522,-1.3125 z M 231.41858,28 c 0,-10.725 0.14711,-15.1125 0.32692,-9.75 0.17981,5.3625 0.17981,14.1375 0,19.5 -0.17981,5.3625 -0.32692,0.975 -0.32692,-9.75 z M 231.232,-11 c 0,-1.925 0.2058,-2.7125 0.45733,-1.75 0.25152,0.9625 0.25152,2.5375 0,3.5 -0.25153,0.9625 -0.45733,0.175 -0.45733,-1.75 z m 0.12296,-51.5 c -0.003,-4.95 0.16605,-7.101078 0.37577,-4.780173 0.20972,2.320905 0.21222,6.370905 0.006,9 C 231.5296,-55.651078 231.358,-57.55 231.35496,-62.5 Z m -0.0349,-15.5 c 0,-3.575 0.1815,-5.0375 0.40333,-3.25 0.22182,1.7875 0.22182,4.7125 0,6.5 -0.22183,1.7875 -0.40333,0.325 -0.40333,-3.25 z M 194.75,-87.662281 c 0.6875,-0.277412 1.8125,-0.277412 2.5,0 0.6875,0.277413 0.125,0.504386 -1.25,0.504386 -1.375,0 -1.9375,-0.226973 -1.25,-0.504386 z m 48,0 c 0.6875,-0.277412 1.8125,-0.277412 2.5,0 0.6875,0.277413 0.125,0.504386 -1.25,0.504386 -1.375,0 -1.9375,-0.226973 -1.25,-0.504386 z M 231.27236,-162 c 0,-2.475 0.19502,-3.4875 0.43337,-2.25 0.23836,1.2375 0.23836,3.2625 0,4.5 -0.23835,1.2375 -0.43337,0.225 -0.43337,-2.25 z m -31,-10 c 0,-2.475 0.19502,-3.4875 0.43337,-2.25 0.23836,1.2375 0.23836,3.2625 0,4.5 -0.23835,1.2375 -0.43337,0.225 -0.43337,-2.25 z m -38.19341,-58.58333 c 0.048,-1.16495 0.28494,-1.4019 0.60416,-0.60417 0.28887,0.72188 0.25335,1.58438 -0.0789,1.91667 -0.33229,0.33229 -0.56864,-0.25834 -0.52522,-1.3125 z M 142.87244,-265.75 c -1.24387,-1.58606 -1.2085,-1.62143 0.37756,-0.37756 1.66575,1.30637 2.19548,2.12756 1.37244,2.12756 -0.20765,0 -0.99515,-0.7875 -1.75,-1.75 z M 209.75,-432.66228 c 0.6875,-0.27741 1.8125,-0.27741 2.5,0 0.6875,0.27741 0.125,0.50439 -1.25,0.50439 -1.375,0 -1.9375,-0.22698 -1.25,-0.50439 z m 11,0 c 0.6875,-0.27741 1.8125,-0.27741 2.5,0 0.6875,0.27741 0.125,0.50439 -1.25,0.50439 -1.375,0 -1.9375,-0.22698 -1.25,-0.50439 z M 283.40499,-459.25 281.5,-461.5 l 2.25,1.90499 c 1.2375,1.04774 2.25,2.06024 2.25,2.25 0,0.80025 -0.80479,0.20945 -2.59501,-1.90499 z"
       id="path419" /><path
       style="fill:#767676;fill-opacity:1"
       d="m 93.8125,793.31689 c 0.721875,-0.28887 1.584375,-0.25335 1.916667,0.0789 0.332291,0.3323 -0.258334,0.56864 -1.3125,0.52522 -1.164943,-0.048 -1.4019,-0.28494 -0.604167,-0.60416 z m 194.26645,-50.90022 c 0.048,-1.16495 0.28494,-1.4019 0.60416,-0.60417 0.28887,0.72187 0.25335,1.58437 -0.0789,1.91667 -0.33229,0.33229 -0.56864,-0.25834 -0.52522,-1.3125 z M 104.76166,513.29274 c 1.24391,-0.23919 3.04391,-0.23011 4,0.0202 0.95609,0.25029 -0.0617,0.446 -2.26166,0.4349 -2.2,-0.0111 -2.98225,-0.21589 -1.73834,-0.45508 z M 174.29966,492 c 0,-3.025 0.18747,-4.2625 0.41659,-2.75 0.22913,1.5125 0.22913,3.9875 0,5.5 -0.22912,1.5125 -0.41659,0.275 -0.41659,-2.75 z M 284.232,107 c 0,-1.925 0.2058,-2.7125 0.45733,-1.75 0.25152,0.9625 0.25152,2.5375 0,3.5 -0.25153,0.9625 -0.45733,0.175 -0.45733,-1.75 z m -137.15305,0.41667 c 0.048,-1.16495 0.28494,-1.4019 0.60416,-0.60417 0.28887,0.72187 0.25335,1.58438 -0.0789,1.91667 -0.33229,0.33229 -0.56864,-0.25834 -0.52522,-1.3125 z m 53,-10.000003 c 0.048,-1.164943 0.28494,-1.4019 0.60416,-0.604167 0.28887,0.721875 0.25335,1.584375 -0.0789,1.916667 -0.33229,0.332291 -0.56864,-0.258334 -0.52522,-1.3125 z M 200.29966,90 c 0,-3.025 0.18747,-4.2625 0.41659,-2.75 0.22913,1.5125 0.22913,3.9875 0,5.5 -0.22912,1.5125 -0.41659,0.275 -0.41659,-2.75 z m 0.0431,-13.5 c 0.004,-4.4 0.17944,-6.075605 0.39069,-3.723567 0.21124,2.352038 0.20827,5.952038 -0.007,8 C 200.51202,82.824395 200.33918,80.9 200.34281,76.5 Z M 200.232,61 c 0,-1.925 0.2058,-2.7125 0.45733,-1.75 0.25152,0.9625 0.25152,2.5375 0,3.5 C 200.4378,63.7125 200.232,62.925 200.232,61 Z M 231.19495,3.5 c 0.0204,-1.65 0.2445,-2.2039356 0.49804,-1.2309681 0.25354,0.9729675 0.23687,2.3229675 -0.0371,3 C 231.38201,5.9460644 231.17457,5.15 231.19495,3.5 Z m 0.0774,-7.5 c 0,-2.475 0.19502,-3.4875 0.43337,-2.25 0.23836,1.2375 0.23836,3.2625 0,4.5 -0.23835,1.2375 -0.43337,0.225 -0.43337,-2.25 z m -42.5107,-83.707261 c 1.24391,-0.239193 3.04391,-0.230112 4,0.02018 0.95609,0.250292 -0.0617,0.445996 -2.26166,0.434897 -2.2,-0.0111 -2.98225,-0.215885 -1.73834,-0.455077 z M 200.34941,-136 c 0,-4.675 0.17226,-6.5875 0.3828,-4.25 0.21053,2.3375 0.21053,6.1625 0,8.5 -0.21054,2.3375 -0.3828,0.425 -0.3828,-4.25 z m 0,-24 c 0,-4.675 0.17226,-6.5875 0.3828,-4.25 0.21053,2.3375 0.21053,6.1625 0,8.5 -0.21054,2.3375 -0.3828,0.425 -0.3828,-4.25 z m 30.9366,-10.5 c 0.008,-2.75 0.20172,-3.75631 0.43157,-2.23625 0.22986,1.52006 0.22371,3.77006 -0.0136,5 -0.23736,1.22994 -0.42542,-0.0137 -0.41792,-2.76375 z m -15.01698,-262.19299 c 0.97297,-0.25354 2.32297,-0.23687 3,0.0371 0.67703,0.27393 -0.11903,0.48137 -1.76903,0.46099 -1.65,-0.0204 -2.20394,-0.2445 -1.23097,-0.49804 z"
       id="path418" /><path
       style="fill:#606060;fill-opacity:1"
       d="m 108.25,824.31067 c 0.9625,-0.25152 2.5375,-0.25152 3.5,0 0.9625,0.25153 0.175,0.45733 -1.75,0.45733 -1.925,0 -2.7125,-0.2058 -1.75,-0.45733 z m 212,0 c 0.9625,-0.25152 2.5375,-0.25152 3.5,0 0.9625,0.25153 0.175,0.45733 -1.75,0.45733 -1.925,0 -2.7125,-0.2058 -1.75,-0.45733 z m -32.17105,-78.894 c 0.048,-1.16495 0.28494,-1.4019 0.60416,-0.60417 0.28887,0.72187 0.25335,1.58437 -0.0789,1.91667 -0.33229,0.33229 -0.56864,-0.25834 -0.52522,-1.3125 z M 99.75,513.33772 c 0.6875,-0.27741 1.8125,-0.27741 2.5,0 0.6875,0.27741 0.125,0.50439 -1.25,0.50439 -1.375,0 -1.9375,-0.22698 -1.25,-0.50439 z M 462,306.62244 c 0,-0.20765 0.7875,-0.99515 1.75,-1.75 1.58606,-1.24387 1.62143,-1.2085 0.37756,0.37756 C 462.82119,306.91575 462,307.44548 462,306.62244 Z M 200.29966,53 c 0,-3.025 0.18747,-4.2625 0.41659,-2.75 0.22913,1.5125 0.22913,3.9875 0,5.5 -0.22912,1.5125 -0.41659,0.275 -0.41659,-2.75 z M 151.40499,39.75 149.5,37.5 l 2.25,1.904988 c 1.2375,1.047743 2.25,2.060243 2.25,2.25 0,0.800253 -0.80479,0.209457 -2.59501,-1.904988 z M 200.15789,38 c 0,-1.375 0.22698,-1.9375 0.50439,-1.25 0.27741,0.6875 0.27741,1.8125 0,2.5 -0.27741,0.6875 -0.50439,0.125 -0.50439,-1.25 z m 0.0741,-187 c 0,-1.925 0.2058,-2.7125 0.45733,-1.75 0.25152,0.9625 0.25152,2.5375 0,3.5 -0.25153,0.9625 -0.45733,0.175 -0.45733,-1.75 z m 32.02018,-71.5 c 0.0111,-2.2 0.21589,-2.98225 0.45508,-1.73834 0.23919,1.24391 0.23011,3.04391 -0.0202,4 -0.25029,0.95609 -0.446,-0.0617 -0.4349,-2.26166 z M 138,-373.37756 c 0,-0.20765 0.7875,-0.99515 1.75,-1.75 1.58606,-1.24387 1.62143,-1.2085 0.37756,0.37756 -1.30637,1.66575 -2.12756,2.19548 -2.12756,1.37244 z"
       id="path417" /><path
       style="fill:#494949;fill-opacity:1"
       d="m 104.8125,824.31689 c 0.72188,-0.28887 1.58438,-0.25335 1.91667,0.0789 0.33229,0.3323 -0.25834,0.56864 -1.3125,0.52522 -1.16495,-0.048 -1.4019,-0.28494 -0.60417,-0.60416 z m 232,-31 c 0.72187,-0.28887 1.58438,-0.25335 1.91667,0.0789 0.33229,0.3323 -0.25834,0.56864 -1.3125,0.52522 -1.16495,-0.048 -1.4019,-0.28494 -0.60417,-0.60416 z M 437.15789,236 c 0,-1.375 0.22698,-1.9375 0.50439,-1.25 0.27741,0.6875 0.27741,1.8125 0,2.5 -0.27741,0.6875 -0.50439,0.125 -0.50439,-1.25 z M 200.27236,44 c 0,-2.475 0.19502,-3.4875 0.43337,-2.25 0.23836,1.2375 0.23836,3.2625 0,4.5 -0.23835,1.2375 -0.43337,0.225 -0.43337,-2.25 z m 0.16438,-34 c 0,-14.575 0.1398,-20.5375 0.31066,-13.25 0.17086,7.2875 0.17086,19.2125 0,26.5 -0.17086,7.2875 -0.31066,1.325 -0.31066,-13.25 z m 31.64221,-223.58333 c 0.048,-1.16495 0.28494,-1.4019 0.60416,-0.60417 0.28887,0.72188 0.25335,1.58438 -0.0789,1.91667 -0.33229,0.33229 -0.56864,-0.25834 -0.52522,-1.3125 z M 232.15789,-226 c 0,-1.375 0.22698,-1.9375 0.50439,-1.25 0.27741,0.6875 0.27741,1.8125 0,2.5 -0.27741,0.6875 -0.50439,0.125 -0.50439,-1.25 z"
       id="path416" /><path
       style="fill:#333333;fill-opacity:1"
       d="M 45,824.06053 C 36.78889,822.39608 28.455019,815.7266 25.374904,808.35485 22.280799,800.94961 23.387494,796.22504 35.35661,765.74214 49.530246,729.64479 50.127997,726.60608 47.605898,703.47206 44.611357,676.00455 41.082305,637.79238 38.92719,609.5 35.626324,566.16618 36.789543,548.72546 47.493418,481.06218 54.724651,435.35081 54.680667,436.05308 51.630889,415 50.236598,405.375 47.283545,381.975 45.068548,363 34.199584,269.8899 33.873918,243.77136 43.010634,197.95443 49.995927,162.92601 59.740106,138.69154 89.834548,81.5 97.461731,67.005285 98.510729,62.735241 98.432801,46.5 98.38428,36.391221 97.873254,30.693362 96.594208,26 92.879726,12.369985 80.680985,-19 79.095209,-19 c -0.350359,0 -3.494094,8.4375 -6.986077,18.75 -6.331964,18.699511 -10.126155,32.671118 -18.126924,66.75 -5.651151,24.070802 -25.316511,98.80521 -29.67234,112.76401 -0.302751,0.9702 0.225844,11.85016 1.174656,24.17769 2.220186,28.846 1.808555,45.15612 -1.313833,52.0583 -1.244037,2.75 -3.703867,6.79898 -5.466288,8.99773 -3.128995,3.90365 -3.21745,4.29193 -3.758835,16.5 -0.622568,14.03872 -2.252021,19.15488 -7.8992628,24.80212 -5.5732629,5.57326 -10.6258129,7.65381 -18.5463052,7.63702 -14.08668,-0.0299 -20.576897,-5.69775 -35.783884,-31.25 -20.906186,-35.1286 -20.760768,-34.40679 -15.652882,-77.69535 1.102714,-9.34534 2.443609,-29.36652 2.979767,-44.49152 0.995517,-28.08352 4.074567,-74.931589 6.046621,-92 2.737111,-23.690076 13.626205,-54.4931 26.040021,-73.661905 4.708872,-7.271208 4.587609,-6.681326 14.356692,-69.838095 7.7597651,-50.1666 10.5137956,-64.68348 14.6078402,-77 8.7520221,-26.32957 20.9701158,-41.16522 40.7782398,-49.51443 14.502962,-6.11305 43.432906,-12.76221 71.304835,-16.38846 5.87249,-0.76404 11.14776,-1.67995 11.72283,-2.03535 1.68349,-1.04046 3.31648,-8.59383 2.63885,-12.20596 -0.37901,-2.02027 -2.79105,-5.78497 -6.14481,-9.59077 -12.44067,-14.11749 -25.478046,-36.58389 -30.312016,-52.23458 -4.810396,-15.57436 -5.284606,-20.84034 -5.789398,-64.28965 -0.460544,-39.64062 -0.392184,-41.70018 1.74255,-52.5 4.164924,-21.07076 10.436598,-36.52457 21.689914,-53.44535 18.21145,-27.38323 40.51871,-43.22465 73.146,-51.94436 8.36188,-2.23473 12.29331,-2.63963 29.87889,-3.07724 23.09915,-0.57481 31.90686,0.36233 46.24994,4.92101 29.38062,9.33809 49.70487,24.91411 66.94509,51.30514 10.11105,15.47781 16.44967,31.42538 20.12407,50.63088 1.99681,10.437 2.08361,13.33071 1.64055,54.69458 -0.37583,35.08673 -0.785,45.14366 -2.08092,51.14598 -4.66742,21.6181 -14.49011,41.02653 -29.89813,59.07501 -3.54333,4.15055 -6.95728,8.50847 -7.58654,9.68426 -1.54807,2.8926 -1.47332,12.76997 0.10588,13.99048 1.93958,1.49904 11.8809,3.9444 27.75,6.82594 29.93054,5.43484 54.98439,13.35303 66.55882,21.03569 14.36591,9.53555 26.49728,30.06065 32.89321,55.65215 1.41102,5.64577 5.03626,26.24003 8.05611,45.76503 3.01984,19.525 7.57289,46.3 10.11789,59.5 4.47642,23.217652 4.76584,24.212932 8.8783,30.5320775 C 475.07424,15.88338 483.34504,41.917169 486.90973,75 c 2.27988,21.158886 5.07731,65.41377 5.11172,80.86664 0.0118,5.29835 0.91184,18.85836 2.00009,30.13336 5.76269,59.7053 5.76354,59.69365 -5.91287,80.54818 -18.61183,33.24145 -25.21672,41.83766 -34.978,45.52361 -10.52383,3.97388 -21.19199,1.20968 -28.83287,-7.47081 -5.07295,-5.76318 -6.38576,-10.36832 -7.1638,-25.12958 l -0.634,-12.0286 -3.72879,-4.5485 c -8.02845,-9.79339 -8.85648,-17.27961 -6.3134,-57.07896 L 408.2032,178.5 403.65217,162 C 384.6167,92.985787 378.02382,67.784915 373.05325,45.037623 369.34486,28.066543 355.4352,-15.837866 352.94978,-18.416928 351.02952,-20.409539 338.69201,12.734181 335.4853,28.5 c -4.35169,21.395117 -2.91251,33.43043 6.04075,50.516309 14.41778,27.514071 28.6475,56.574611 32.79908,66.983691 8.33958,20.90948 15.36918,48.59588 18.91563,74.5 4.86655,35.54646 1.6188,89.27282 -10.86533,179.74126 -5.42418,39.30733 -5.42609,39.04135 0.52961,73.75874 6.86227,40.00205 8.68733,53.06913 10.68468,76.5 1.48139,17.37818 1.54812,22.68737 0.50904,40.5 -1.57407,26.98362 -3.41551,49.05525 -7.62719,91.42002 C 384.5622,701.62603 383,718.84685 383,720.68851 c 0,4.43894 5.33722,20.81761 15.74298,48.31149 9.93337,26.24574 11.08403,32.59446 7.31764,40.37478 -2.46051,5.08274 -7.04561,9.5065 -13.33842,12.86908 -4.17904,2.23308 -4.61573,2.25545 -42.7222,2.18817 -32.68682,-0.0577 -39.33451,-0.31637 -44.02685,-1.71306 -6.54437,-1.94797 -13.14557,-7.25747 -16.25764,-13.07642 -2.48443,-4.64538 -2.55083,-7.2246 -1.70276,-66.14255 0.48659,-33.80469 1.05671,-30.09689 -13.52536,-87.96238 C 265.36832,619.35076 260.02804,594.36119 257.27647,575 c -1.47374,-10.36987 -1.70831,-17.52711 -1.3765,-42 0.80053,-59.04397 1.80476,-47.73863 -8.7051,-98 -5.11782,-24.475 -13.0811,-62.725 -17.69616,-85 -11.63426,-56.15369 -12.75819,-61.14977 -13.55904,-60.27206 -0.75254,0.82477 -4.26814,17.0402 -13.93456,64.27206 -3.32059,16.225 -7.59561,36.7 -9.50005,45.5 -1.90443,8.8 -6.00569,28.15 -9.11389,43 -3.10821,14.85 -6.5392,31.05 -7.62442,36 -1.93921,8.84526 -1.94352,9.50505 -0.25074,38.37506 2.85707,48.72674 0.88163,63.65964 -19.01329,143.72688 -13.95601,56.16611 -14.23993,58.44701 -12.51676,100.5549 1.4623,35.73314 1.20956,42.5942 -1.78344,48.41555 -5.0215,9.76674 -12.61934,13.42457 -30.20252,14.54038 -15.223152,0.96604 -62.157096,0.92945 -67,-0.0522 z m 65.39098,-31.60007 c 2.07235,-0.8577 2.08348,0.45162 -0.38133,-44.85583 -1.48271,-27.2546 0.11236,-37.12836 16.9793,-105.10463 6.00475,-24.2 11.80631,-48.5 12.89236,-54 C 141.75343,579.01922 144,558.33432 144,550.57791 V 547 l -32.75,-0.004 c -30.578141,-0.003 -32.959679,-0.13159 -35.911799,-1.93166 l -3.161799,-1.92793 -0.721969,9.62972 c -0.987591,13.17262 0.116108,55.36222 1.941985,74.23361 0.824825,8.525 2.86366,29.45 4.530744,46.5 4.467931,45.6955 5.02532,54.07842 3.877247,58.31239 -0.549958,2.02818 -4.808343,12.60833 -9.463077,23.51144 C 64.451241,773.80534 57,792.45457 57,793.72066 c 0,0.84084 51.23651,-0.36851 53.39098,-1.2602 z m 264.34776,0.72217 c 1.51657,-0.9632 -0.8085,-7.21084 -14.80864,-39.79193 C 350.0704,730.44522 350,730.22385 350,722.1649 c 0,-4.46408 2.33872,-32.53989 5.19716,-62.3907 4.91051,-51.28068 5.20008,-55.93807 5.25,-84.44111 0.0291,-16.5918 -0.24284,-30.46248 -0.60423,-30.82374 -0.36139,-0.36125 -2.02654,0.0514 -3.70034,0.91691 C 353.55981,546.76187 348.24979,547 321.04966,547 H 289 l 0.0309,7.75 c 0.0633,15.88676 3.31023,33.23906 15.95186,85.25 17.84253,73.40878 18.85796,81.91005 15.64709,131 -0.77315,11.82045 -0.91641,19.97634 -0.36378,20.70954 1.04268,1.38334 8.13023,1.80653 34.73395,2.0739 10.175,0.10227 19.05743,-0.1681 19.73874,-0.60081 z M 136.03517,512.48181 c 1.61472,-0.835 3.16641,-2.5225 3.44819,-3.75 0.28178,-1.22749 1.83861,-13.03181 3.45962,-26.23181 1.621,-13.2 4.3536,-31.16441 6.07243,-39.92092 2.97647,-15.16343 3.0394,-15.97225 1.32275,-17 -0.99132,-0.59349 -10.81045,-5.37384 -21.82028,-10.62299 -11.00984,-5.24916 -21.01332,-10.09336 -22.22997,-10.7649 C 103.64457,402.73218 102.65414,399.58577 92.062558,359 l -7.698552,-29.5 -4.722876,-2.37579 c -2.597583,-1.30669 -4.974979,-2.12369 -5.283104,-1.81557 -0.512587,0.51259 4.88017,45.46461 11.239867,93.69136 l 2.571479,19.5 -2.584686,15.07205 c -3.514524,20.4942 -3.376513,26.67978 0.995601,44.62238 l 3.580625,14.69443 3.669544,0.38747 c 2.018249,0.2131 11.679394,0.46311 21.469204,0.55557 14.2086,0.13419 18.39196,-0.13819 20.73551,-1.35009 z M 342.95803,510.25 c 6.56216,-23.70008 7.19224,-33.03518 3.62306,-53.67809 C 345.16149,448.36147 344,440.02273 344,438.04139 c 0,-1.98134 1.80359,-16.6387 4.00799,-32.57192 2.20439,-15.93321 5.37385,-39.99447 7.04323,-53.46947 1.66939,-13.475 3.22668,-25.0625 3.46063,-25.75 0.23396,-0.6875 -0.123,-1.24012 -0.79323,-1.22804 -2.25889,0.0407 -9.746,3.88268 -10.10627,5.18597 -0.19644,0.71064 -1.3781,5.56707 -2.62591,10.79207 -1.24781,5.225 -5.06588,20.075 -8.4846,33 -3.41872,12.925 -6.51051,24.72451 -6.87065,26.22114 -0.79209,3.29163 0.0753,2.7969 -27.13119,15.47447 -17.1014,7.96883 -22.07142,10.70473 -22.32076,12.28713 -0.17641,1.11962 0.83402,7.54403 2.2454,14.27646 2.52474,12.04322 3.65108,19.98127 7.19964,50.7408 1.65488,14.34481 1.99063,15.70495 4.50501,18.25 l 2.71686,2.75 h 22.53679 22.53678 z M 160,392.49022 c 0,-0.28038 1.57136,-7.81788 3.4919,-16.75 5.43872,-25.29451 20.16403,-100.99885 22.04849,-113.35356 l 1.69511,-11.11335 -3.7605,-8.38665 C 168.11677,208.6348 148.75509,181.49623 117.75409,150.768 l -16.88053,-16.732 -6.377481,13.232 c -7.460399,15.47884 -12.19845,28.76202 -16.507941,46.28022 -5.599399,22.7617 -7.168479,36.20647 -7.696946,65.95178 l -0.479692,27 8.84425,3.41283 c 12.74787,4.91917 24.38355,10.75445 27.67448,13.87872 5.53614,5.25576 8.54129,14.05075 17.61095,51.54072 2.95495,12.21448 5.86258,21.98776 7.02876,23.62551 1.16721,1.6392 4.37313,3.75293 7.75952,5.11602 3.17379,1.27752 8.92054,3.79237 12.77054,5.58856 7.03495,3.28211 8.5,3.76952 8.5,2.82786 z m 126.5,-5.0189 c 6.05,-2.61648 12.21671,-5.9304 13.7038,-7.36428 2.35929,-2.27486 3.52888,-6.04728 9.17929,-29.60704 7.16561,-29.87751 10.38534,-40.19654 14.03505,-44.98156 2.66697,-3.49658 12.62252,-8.68229 28.96691,-15.08847 l 9.88505,-3.87444 -0.56149,-26.52777 C 360.93043,223.26271 356.57277,196.95482 346.46679,168.01052 341.7643,154.54222 332.69227,134.5 331.29839,134.5 c -1.34006,0 -7.72585,6.08517 -26.36363,25.12251 -23.10015,23.59537 -36.83344,43.01338 -51.13059,72.29539 -8.8921,18.21192 -8.98516,18.48032 -8.32222,24 1.22833,10.22719 25.23196,130.85068 27.05072,135.93585 0.26631,0.74457 1.0429,1.13349 1.72576,0.86428 0.68286,-0.26922 6.19157,-2.63024 12.24157,-5.24671 z M -9.5371978,246.70124 -4.9693552,237.90249 -5.9714917,222.20124 C -7.3495903,200.60951 -8.0044237,192.14409 -8.6364297,187.75 L -9.1757957,184 h -9.3508293 -9.350829 l -0.581866,4.25 c -1.236144,9.0289 -3.655203,31.62675 -4.220827,39.42921 -0.780017,10.75991 0.333233,14.93641 8.435811,31.64809 l 6.704101,13.82729 1.717597,-8.82729 c 1.204001,-6.18776 3.083476,-11.45831 6.2854402,-17.62606 z m 468.2499678,7.72207 c 4.73467,-10.23395 6.22182,-15.66674 6.27493,-22.92331 0.0319,-4.35593 -3.14399,-35.0972 -4.57146,-44.25 L 459.90937,184 h -9.43563 c -8.97419,0 -9.45944,0.11004 -9.92248,2.25 -0.26776,1.2375 -1.11377,13.27365 -1.88001,26.74701 l -1.39317,24.497 4.41846,8.503 c 3.30064,6.35183 4.8291,10.84207 6.04162,17.74879 l 1.62316,9.24579 2.57609,-4.74579 c 1.41685,-2.61019 4.46576,-8.83031 6.77536,-13.82249 z M 219.68744,224.21434 c 0.65309,-0.41528 1.68452,-2.06246 2.29206,-3.66042 2.17737,-5.72692 14.09584,-24.38039 27.37344,-42.8419 l 13.51241,-18.78797 -3.50498,-7.3805 C 254.17036,140.61486 252.65204,130.19213 253.30856,110 c 0.58518,-17.998189 2.5396,-27.493413 8.542,-41.5 6.36676,-14.856815 10.21136,-20.347067 25.32428,-36.164137 C 303.98006,14.747655 310.25408,6.2137691 309.79935,1.5621481 309.52186,-1.276411 309.24444,-1.4796907 306,-1.2218557 c -1.925,0.1529793 -9.125,0.35364612 -16,0.44592616 C 275.19225,-0.57717173 267.93246,-2.422328 248.42428,-11.34287 241.86592,-14.341819 235.375,-16.954016 234,-17.147752 L 231.5,-17.5 230.98512,63 c -0.28319,44.275 -0.62069,80.63546 -0.75,80.80103 -0.12932,0.16556 -1.79567,0.95306 -3.703,1.75 -6.90315,2.88431 -22.21109,1.12659 -24.73176,-2.83982 -0.42335,-0.66616 -0.77663,-36.66283 -0.78505,-79.992595 -0.0139,-71.463623 -0.16474,-78.838727 -1.62407,-79.398723 -0.88481,-0.339536 -5.04731,0.863466 -9.25,2.673337 -16.9435,7.2966606 -23.97317,10.0068089 -30.15813,11.6268642 -7.20804,1.88803529 -23.70526,2.39259897 -33.73311,1.0317199 -6.14777,-0.8343134 -6.25,-0.8094064 -6.25,1.52275232 0,5.17912898 7.51224,15.29283658 24,32.31114858 17.1496,17.701445 22.4829,25.085232 28.48404,39.435229 9.28341,22.198615 9.88538,54.445437 1.47293,78.903117 l -3.2071,9.32406 3.10502,4.17594 c 13.72956,18.46492 25.55595,35.78009 30.80562,45.10288 3.42938,6.09018 6.9547,12.08556 7.83405,13.32306 1.58751,2.2341 4.91646,2.91181 7.19288,1.46434 z M -0.93604603,151 C 6.8607305,123.09823 14.270585,93.733653 19.03508,71.856236 22.311805,56.810306 24.99439,44.037581 24.99638,43.472401 24.998371,42.907222 20.8375,40.917008 15.75,39.049704 10.6625,37.1824 3.0308443,34.206741 -1.209235,32.437128 l -7.709235,-3.217477 -1.47765,4.140175 c -2.342476,6.5633 -4.342761,13.284872 -7.630307,25.640174 -2.557488,9.611587 -3.371402,15.68735 -4.956552,37 -1.043124,14.025 -2.212327,32.29602 -2.598229,40.60228 l -0.701639,15.10227 10.391423,1.00857 C -2.2821886,154.03399 -1.7673765,153.97502 -0.93604603,151 Z M 449.75,152.3925 c 9.66656,-0.79682 8.74954,2.05033 7.20589,-22.37291 -1.56431,-24.75021 -3.82505,-51.070543 -5.52797,-64.35882 -1.36544,-10.654796 -7.4157,-33.982004 -9.32003,-35.933998 -0.5314,-0.544702 -28.52898,9.773387 -34.88208,12.855268 -0.15081,0.07315 0.66694,4.134623 1.81721,9.025485 1.15028,4.890861 4.27396,18.567475 6.94151,30.392475 2.66756,11.825 7.81231,32.2572 11.43279,45.40488 3.62047,13.14768 6.58268,24.5677 6.58268,25.37781 0,1.14054 0.84623,1.33944 3.75,0.8814 2.0625,-0.32535 7.4625,-0.89756 12,-1.27159 z M 303.01427,117.65932 316.2453,104.81863 310.23628,92.159316 C 306.93132,85.196692 303.41224,77.1375 302.41609,74.25 c -0.99615,-2.8875 -2.05978,-5.22842 -2.36363,-5.202044 -0.30385,0.02638 -2.2532,2.163875 -4.33189,4.75 C 287.24173,84.346624 283.37554,97.496985 284.48922,112 c 0.65588,8.54115 3.28134,19.27438 4.59143,18.77032 0.38642,-0.14867 6.65655,-6.04863 13.93362,-13.111 z M 147.14743,113.26093 C 149.12858,99.099028 146.0043,88.017875 136.32195,74.865335 l -4.56289,-6.19824 -2.26279,7.136965 c -1.24454,3.925331 -4.80621,12.159243 -7.91482,18.297582 l -5.65204,11.160618 2.2853,1.58053 c 1.25691,0.86929 7.44904,6.51827 13.7603,12.55329 l 11.47501,10.97277 1.26169,-4.35775 c 0.69392,-2.39676 1.79,-8.13434 2.43572,-12.75017 z M 36.981594,-1.5720388 C 40.418011,-15.220917 46.662541,-31.095269 53.142182,-42.654212 l 4.90458,-8.749214 -2.542293,-7.361903 c -1.398262,-4.049046 -3.027128,-10.820775 -3.619704,-15.048286 -3.222709,-22.991226 7.44215,-58.706345 24.722175,-82.791105 l 5.271668,-7.34761 -2.529668,-7.52384 C 77.957622,-175.61427 76.457336,-179 76.014971,-179 c -0.442366,0 -3.889202,0.94396 -7.659636,2.0977 -19.894555,6.08763 -29.412745,16.32404 -35.897022,38.60571 -1.40796,4.83813 -5.44857,25.67159 -8.979132,46.29659 -3.530562,20.625 -8.861065,49.2 -11.845562,63.5 C 7.5513984,-8.9403351 6.4912231,-2.2142163 7.3536307,-1.346275 8.9960221,0.30665494 31.237068,9.9467848 32.846978,9.703528 33.67838,9.5779034 35.260967,5.2620098 36.981594,-1.5720388 Z M 414,3.4903953 c 6.325,-2.57597567 11.77963,-4.8559129 12.12139,-5.0665271 0.34177,-0.2106143 -0.23533,-3.429645 -1.28243,-7.1534016 C 421.88086,-19.249241 409.20329,-83.823899 406.92035,-100 c -4.17188,-29.56054 -9.47267,-49.12861 -15.7994,-58.32421 -6.17485,-8.97484 -15.59609,-15.36367 -28.1563,-19.09365 -8.26378,-2.45408 -8.52384,-2.34377 -10.87285,4.61203 -1.15049,3.4068 -2.0918,6.97945 -2.0918,7.93924 0,0.95978 2.52043,5.25802 5.60095,9.55163 13.59666,18.95091 22.72856,46.29896 24.06729,72.076255 0.62381,12.011616 0.56983,12.460425 -2.65099,22.040191 l -3.28776,9.778896 4.60079,7.959809 c 7.63023,13.201007 13.3411,28.253276 18.65678,49.1740633 0.96826,3.8107926 1.28342,4.1302676 3.29186,3.3369937 C 401.50051,8.5687547 407.675,6.066371 414,3.4903953 Z M 150.30259,-34.620864 c 3.95858,-0.891475 13.27241,-4.304728 20.69741,-7.585007 7.425,-3.280278 16.9875,-6.898401 21.25,-8.040272 l 7.75,-2.07613 V -70.161136 -88 h -9.28856 c -11.08276,0 -12.08966,-0.429678 -27.35172,-11.67199 -12.50022,-9.20789 -27.46705,-18.22535 -35.38467,-21.31915 -3.01128,-1.17665 -9.62472,-4.34722 -14.69654,-7.04572 l -9.22149,-4.90636 -2.89399,4.22161 c -11.678497,17.03605 -17.114222,40.138756 -12.665725,53.831378 10.079121,31.02387 33.910555,46.551294 61.805285,40.269368 z m 154.16245,0.08796 c 8.72836,-2.273451 15.2634,-6.170348 22.56166,-13.453712 7.21045,-7.195731 11.46114,-14.458838 15.49179,-26.470621 2.28764,-6.817418 2.56985,-8.894448 1.97017,-14.5 -0.98348,-9.19314 -4.74206,-21.500753 -9.86737,-32.311093 -6.55046,-13.81628 -5.83446,-13.39489 -14.12129,-8.31084 -3.85,2.36201 -10.375,5.75977 -14.5,7.55059 -14.3904,6.2474 -23.51307,11.53823 -35.50972,20.59443 C 252.43317,-87.80298 254.05576,-88.56934 242.04658,-88 L 231.5,-87.5 231.22744,-69.25 230.95488,-51 h 2.84106 c 4.55844,0 12.85721,2.812335 25.43543,8.619701 18.98202,8.764006 32.62653,11.131133 45.23367,7.84739 z M 250,-129.46737 c 7.12153,-5.5151 16.80197,-11.40864 27.86839,-16.96653 14.84878,-7.45751 28.43224,-15.58576 32.38804,-19.38079 3.86187,-3.70492 7.27764,-11.12027 7.89431,-17.13789 l 0.34926,-3.40814 -10.5,-3.10565 c -5.775,-1.70811 -12.63801,-4.14234 -15.25114,-5.4094 l -4.75115,-2.30375 -7.24885,3.96557 C 267.28732,-185.84968 245.5585,-179 235.65879,-179 c -2.70707,0 -3.55199,0.47191 -4.0285,2.25 -0.71243,2.65842 -0.85131,51.19565 -0.1485,51.89846 0.26499,0.26499 3.30249,0.29318 6.75,0.0627 5.54012,-0.37045 6.90707,-0.91388 11.76821,-4.67848 z m -49,-21.95317 v -26.42055 l -2.75,-0.54158 c -1.5125,-0.29787 -5,-0.84293 -7.75,-1.21124 -6.07949,-0.81424 -20.7773,-5.74499 -33.16654,-11.12654 l -9.16655,-3.98169 -6.83345,3.32925 c -6.14662,2.99463 -13.77515,5.12361 -24.58346,6.86079 -3.56123,0.57239 -3.75,0.79191 -3.75,4.36107 0,2.06709 1.15388,6.07389 2.56419,8.904 3.16333,6.34799 9.34595,10.52914 33.93581,22.94996 17.26998,8.72341 24.54441,13.14633 32.34461,19.6658 4.13611,3.457 4.70001,3.63127 11.75,3.63127 H 201 Z m -0.80527,-72.55405 -0.30527,-12.97809 -4.19473,-1.05721 c -24.3043,-6.12549 -38.94189,-16.31412 -56.32098,-39.20272 -5.81435,-7.65761 -10.81261,-13.68186 -11.10725,-13.38723 -0.29464,0.29464 0.0662,2.01264 0.8019,3.81778 3.1508,7.73107 8.69779,15.52377 17.05805,23.96403 11.9915,12.10625 15.83487,20.11259 15.86168,33.04235 0.0111,5.37866 0.1981,5.82062 3.096,7.31918 3.79238,1.96112 31.84372,11.42863 33.91587,11.44683 1.27249,0.0112 1.4537,-1.95527 1.19473,-12.96492 z m 53.30307,6.79387 c 5.49879,-1.66731 11.65451,-3.87666 13.67937,-4.90967 3.66997,-1.87227 3.67988,-1.89478 3.14726,-7.1439 -1.07443,-10.58874 4.68479,-22.35797 17.7126,-36.19651 8.1059,-8.61033 13.27599,-16.4811 15.4768,-23.56136 0.69943,-2.25014 0.61177,-2.35697 -0.90271,-1.10006 -0.92256,0.76565 -5.43077,6.38712 -10.01826,12.49216 -4.58749,6.10503 -10.53509,13.14701 -13.21688,15.64883 -9.60165,8.95733 -23.73755,17.18529 -38.54009,22.43271 l -7.66411,2.71688 -0.57316,9.15082 c -0.61114,9.75708 -0.60903,14.75238 0.007,15.79346 0.40265,0.68084 4.71144,-0.41702 20.89253,-5.32336 z m -22.8319,-53.66512 c 8.69026,-2.28155 16.25703,-7.17549 27.02517,-17.479 9.39364,-8.98832 13.91743,-14.61806 21.61964,-26.90502 10.35827,-16.52406 16.669,-35.41108 16.68228,-49.92747 l 0.007,-7.65733 -5.07294,-4.56101 c -13.9486,-12.54099 -36.2115,-19.25198 -67.42706,-20.32539 -34.86857,-1.19903 -67.1473,7.54601 -83.39794,22.59442 l -4.39794,4.07257 0.6017,9.26704 c 0.75351,11.60502 3.51061,21.3927 9.72611,34.52757 6.47902,13.69177 12.54738,22.51208 23.31851,33.89326 12.14014,12.82773 22.50433,20.10292 32.64956,22.91849 6.88808,1.91163 20.55113,1.71234 28.6659,-0.41813 z M 138,-415.91517 c 21.60403,-11.03946 45.74688,-16.03431 77.65826,-16.06651 37.61626,-0.038 67.51664,6.92243 87.40475,20.34657 6.52115,4.40167 6.91162,3.80705 4.39552,-6.69348 -4.35275,-18.16546 -16.6082,-36.79446 -31.75931,-48.27601 -7.59221,-5.75341 -23.45045,-13.42719 -34.19922,-16.54898 -7.05021,-2.0476 -10.07766,-2.31879 -25.5,-2.28419 -16.17788,0.0363 -18.17242,0.24614 -26.40039,2.77771 -17.38876,5.35016 -28.22716,11.41828 -39.47811,22.10273 -14.11816,13.40727 -23.91465,31.43756 -25.80083,47.486 l -0.64311,5.47189 3.41122,-2.24165 c 1.87617,-1.23291 6.78622,-3.96624 10.91122,-6.07408 z"
       id="path415" /></g><path
     style="fill:#ffffff;stroke:none;stroke-width:4.84285;stroke-linecap:round;stroke-linejoin:round;stroke-dasharray:none"
     d="m 147.09472,493.60786 -1.77178,-0.21454 0.19687,-6.10277 c 0.10824,-3.35653 0.18371,-9.8235 0.16765,-14.37105 -0.0382,-10.80785 -0.23333,-11.95279 -6.60973,-38.78216 -4.06175,-17.09024 -5.02286,-22.17769 -5.26928,-27.89207 l -0.20955,-4.85903 11.96481,0.10513 c 8.16167,0.0717 12.2983,-0.0348 13.01403,-0.3354 0.85695,-0.35977 1.09147,-0.33048 1.27962,0.1598 0.38069,0.99204 0.25649,17.65551 -0.17567,23.56897 -0.36707,5.02287 -2.6004,30.33672 -3.50121,39.68453 -0.45689,4.74124 -0.3571,5.1175 4.1941,15.81348 4.20204,9.87541 5.29889,12.76988 5.01392,13.23099 -0.23471,0.37973 -15.14867,0.37495 -18.29378,-0.005 z"
     id="path423" /><path
     style="fill:#ffffff;stroke:none;stroke-width:4.84285;stroke-linecap:round;stroke-linejoin:round;stroke-dasharray:none"
     d="m 46.694206,493.61804 c 0,-0.53917 0.60883,-2.07914 5.22566,-13.21772 l 3.9167,-9.44946 -0.23058,-5.31532 c -0.12683,-2.92342 -0.95844,-12.491 -1.84803,-21.26128 -1.44944,-14.28978 -1.63985,-17.38747 -1.83325,-29.82486 -0.22858,-14.70044 -0.26106,-14.42616 1.58719,-13.40264 0.63368,0.35091 4.06216,0.44638 13.02819,0.36277 l 12.16819,-0.11347 -0.26077,4.26353 c -0.42988,7.02835 -1.20513,11.03939 -5.7661,29.83321 -7.23461,29.81074 -7.33297,30.50578 -6.55012,46.28556 0.2847,5.73859 0.44158,10.72473 0.34864,11.08034 -0.20045,0.76699 -2.23987,0.93826 -12.79707,1.07467 -4.59187,0.0593 -6.98865,-0.0488 -6.98865,-0.31533 z"
     id="path424" /><path
     style="fill:#ffffff;stroke:none;stroke-width:4.84285;stroke-linecap:round;stroke-linejoin:round;stroke-dasharray:none"
     d="m 61.072076,388.46495 -2.35554,-0.19687 -1.08128,-4.52787 c -1.66059,-6.95363 -1.75325,-9.74722 -0.56249,-16.95859 l 1.01238,-6.1311 -1.9315,-14.93333 c -2.38902,-18.4707 -3.33644,-26.89661 -3.05583,-27.17721 0.11849,-0.1185 0.87785,0.12436 1.68743,0.53972 l 1.47198,0.75517 3.30611,12.5616 c 1.81838,6.90887 3.60889,13.18171 3.97892,13.93964 0.60534,1.23985 1.53709,1.80314 9.29052,5.61671 l 8.61769,4.23865 -0.23986,1.86412 c -0.13193,1.02527 -0.58708,3.81306 -1.01145,6.19512 -0.42435,2.38205 -1.32543,8.49468 -2.00238,13.5836 -1.0115,7.6039 -1.36835,9.39222 -2.00271,10.0362 -0.70322,0.71385 -1.3057,0.78394 -6.76918,0.78745 -3.29849,0.002 -7.05726,-0.0847 -8.35281,-0.19301 z"
     id="path425" /><path
     style="fill:#ffffff;stroke:none;stroke-width:4.84285;stroke-linecap:round;stroke-linejoin:round;stroke-dasharray:none"
     d="m 135.73498,387.8995 c -1.20852,-1.34772 -1.23158,-1.45255 -2.42761,-11.03899 -0.63579,-5.09593 -1.60135,-11.67639 -2.14569,-14.62325 -0.54434,-2.94683 -0.88117,-5.53352 -0.7485,-5.74818 0.13266,-0.21465 4.2042,-2.30873 9.04786,-4.65349 6.52943,-3.16084 8.90791,-4.49941 9.19829,-5.17664 0.2154,-0.50239 1.7336,-6.14017 3.37378,-12.5284 1.64017,-6.38823 3.1485,-12.25224 3.35182,-13.03116 0.29244,-1.12033 0.69977,-1.56505 1.94966,-2.12868 0.86899,-0.39185 1.65419,-0.63826 1.74489,-0.54756 0.0907,0.0907 -0.70811,6.80687 -1.77513,14.92483 -1.06701,8.11794 -2.30735,17.57964 -2.75627,21.02599 l -0.81622,6.26609 0.7908,5.15201 c 1.50232,9.78722 1.45132,11.89301 -0.46853,19.3501 l -0.88874,3.4521 -8.35088,0.0589 c -7.97816,0.0563 -8.38338,0.0226 -9.07953,-0.75369 z"
     id="path426" /><path
     style="fill:#ffffff;stroke:none;stroke-width:4.84285;stroke-linecap:round;stroke-linejoin:round;stroke-dasharray:none"
     d="m 127.04642,341.70981 c -1.28079,-4.82083 -9.87499,-49.08625 -9.87499,-50.86236 0,-1.58282 6.40997,-14.31118 9.72927,-19.31956 4.23165,-6.38497 7.13882,-9.8287 14.95722,-17.71773 6.78031,-6.84158 7.25341,-7.23865 7.78943,-6.53781 0.87442,1.14328 4.45294,9.78912 5.9402,14.35178 1.72986,5.30694 3.1345,11.65505 3.93379,17.77831 0.64103,4.91087 1.34471,22.34141 0.94738,23.46691 -0.11529,0.32654 -2.42936,1.52197 -5.1424,2.65652 -5.94243,2.48502 -8.31182,3.8286 -9.36841,5.31243 -1.17652,1.65229 -2.53103,6.00463 -4.99879,16.06228 -1.21477,4.95097 -2.44123,9.56067 -2.72548,10.24379 -0.59179,1.42228 -2.38979,2.57803 -7.21821,4.63992 -1.80573,0.7711 -3.3492,1.402 -3.42994,1.402 -0.0807,0 -0.32331,-0.66442 -0.53907,-1.47648 z"
     id="path427" /><path
     style="fill:#ffffff;stroke:none;stroke-width:4.84285;stroke-linecap:round;stroke-linejoin:round;stroke-dasharray:none"
     d="m 105.46258,279.93065 c -0.26818,-0.10836 -1.49325,-1.91047 -2.72238,-4.00463 -2.66895,-4.54728 -7.314664,-11.52548 -10.919664,-16.40214 -1.60276,-2.16811 -2.52663,-3.76943 -2.38515,-4.13413 0.74064,-1.90929 2.21948,-7.62589 2.58919,-10.00873 0.24926,-1.60653 0.35001,-5.35934 0.23863,-8.88901 -0.22692,-7.19063 -0.98783,-10.58146 -3.57963,-15.95184 -2.03206,-4.21051 -4.27332,-7.19014 -9.27658,-12.33264 -6.2454,-6.41922 -10.16802,-11.81212 -9.2145,-12.66827 0.17721,-0.15914 1.82743,-0.13636 3.66711,0.0506 2.02006,0.20531 4.97383,0.18562 7.45755,-0.0497 3.65646,-0.34645 4.81399,-0.66873 10.43557,-2.9054 7.99389,-3.18056 7.69328,-3.08662 7.92709,-2.47733 0.10802,0.28138 0.23791,13.63258 0.28875,29.66936 0.074,23.33905 0.195274,29.28167 0.607734,29.77864 1.31279,1.58182 7.41284,2.1451 9.80934,0.90582 l 1.2736,-0.6586 0.0344,-10.12838 c 0.0189,-5.57059 0.0881,-14.38062 0.15352,-19.57783 0.0655,-5.19719 0.13857,-14.18895 0.1624,-19.98166 0.0354,-8.59232 0.1419,-10.53222 0.5784,-10.53222 0.29427,0 2.99623,1.05578 6.00434,2.34617 7.56577,3.24551 8.9943,3.55974 16.18265,3.55974 h 6.02006 v 1.08802 c 0,1.75459 -4.00909,6.93862 -9.84694,12.7328 -3.99008,3.96022 -8.17184,11.31781 -9.82333,17.28366 -1.07853,3.89606 -1.67442,12.71009 -1.19761,17.71432 0.3285,3.44773 0.88825,5.48484 2.75966,10.04347 0.47271,1.15148 0.35547,1.3643 -4.66345,8.46513 -2.83158,4.00618 -6.25005,9.14432 -7.59659,11.4181 -1.34654,2.27378 -2.68725,4.5328 -2.97935,5.02004 -0.52028,0.86784 -1.0075,1.02166 -1.98488,0.62663 z"
     id="path428" /><path
     style="fill:#ffffff;stroke:none;stroke-width:4.84285;stroke-linecap:round;stroke-linejoin:round;stroke-dasharray:none"
     d="m 79.946226,341.27734 c -5.27266,-2.4415 -5.66142,-2.68989 -6.13923,-3.92247 -0.22573,-0.58235 -1.53764,-5.41471 -2.91532,-10.73859 -1.37769,-5.32387 -2.89007,-10.72777 -3.36084,-12.00868 -1.68935,-4.59643 -3.39402,-5.97682 -11.47195,-9.28961 l -5.00638,-2.05313 0.17758,-4.1551 c 0.0976,-2.2853 0.26431,-7.16811 0.37032,-10.85068 0.27215,-9.4541 2.28449,-20.2602 5.32373,-28.5879 1.48302,-4.06361 5.53928,-12.94812 5.91151,-12.94812 0.43022,0 12.52971,12.71266 15.73895,16.53655 1.5448,1.84067 4.38371,5.68564 6.30872,8.54437 3.86683,5.74246 9.84564,17.26154 9.84564,18.9691 0,3.04854 -9.80017,52.42768 -10.39464,52.37447 -0.23807,-0.0213 -2.21272,-0.86291 -4.38809,-1.87021 z"
     id="path429" /><path
     style="fill:#ffffff;stroke:none;stroke-width:2.42142;stroke-linecap:round;stroke-linejoin:round;stroke-dasharray:none"
     d="m 74.845726,240.98715 c -2.05724,-1.94862 -4.33143,-4.03623 -5.05379,-4.63912 l -1.31338,-1.09617 1.64038,-3.27091 c 1.84185,-3.67266 2.86431,-6.04193 3.64822,-8.45367 l 0.53277,-1.6392 1.2753,1.73762 c 1.83367,2.49846 3.00261,4.61845 3.7261,6.75767 0.58116,1.7184 0.63655,2.10189 0.68246,4.72472 0.0406,2.31966 -0.0382,3.33406 -0.42039,5.41376 -0.25869,1.40757 -0.5844,2.88526 -0.72381,3.28374 l -0.25346,0.72451 z"
     id="path430" /><path
     style="fill:#ffffff;stroke:none;stroke-width:2.42142;stroke-linecap:round;stroke-linejoin:round;stroke-dasharray:none"
     d="m 132.95414,243.99356 c -1.07164,-2.67829 -1.49286,-8.91155 -0.81993,-12.13373 0.41664,-1.99499 1.24426,-4.14462 2.27063,-5.89766 0.91725,-1.56666 2.91547,-4.08551 3.13393,-3.9505 0.0806,0.0498 0.30425,0.51425 0.49703,1.03208 0.69031,1.8543 1.94407,4.72327 3.67248,8.40373 l 1.7568,3.7409 -0.7444,0.73338 c -2.58536,2.547 -9.22792,8.83266 -9.33419,8.83266 -0.0704,0 -0.26491,-0.34239 -0.43235,-0.76086 z"
     id="path431" /><path
     style="fill:#ffffff;stroke:none;stroke-width:2.42142;stroke-linecap:round;stroke-linejoin:round;stroke-dasharray:none"
     d="m 188.05112,253.38809 c -0.0513,-0.14683 -0.36696,-1.36573 -0.70136,-2.70866 -0.33441,-1.34292 -1.18474,-4.57641 -1.88962,-7.18553 -2.77648,-10.27711 -7.71961,-31.34209 -7.42091,-31.6239 0.47366,-0.44687 11.42441,-4.5034 12.34487,-4.57297 0.56744,-0.0429 0.62071,0.0191 1.06087,1.23446 0.58349,1.61108 1.86825,6.55449 2.39011,9.19648 0.74184,3.75574 1.7009,13.85997 2.59432,27.33274 0.37579,5.66703 0.3957,6.58224 0.15417,7.08619 -0.31155,0.65003 -0.28501,0.64434 -4.99764,1.07049 -1.40759,0.12728 -2.75773,0.27782 -3.00034,0.33453 -0.2708,0.0632 -0.47716,4e-5 -0.53447,-0.16383 z"
     id="path432" /><path
     style="fill:#ffffff;stroke:none;stroke-width:2.42142;stroke-linecap:round;stroke-linejoin:round;stroke-dasharray:none"
     d="m 193.54473,297.16938 c -0.77654,-4.54569 -1.33369,-6.30576 -3.0931,-9.77112 l -1.1878,-2.33954 0.13131,-2.97579 c 0.22492,-5.09763 0.9227,-15.54636 1.07912,-16.15935 0.19869,-0.7786 0.5289,-0.84911 4.08698,-0.87257 l 2.97531,-0.0196 0.32983,2.46125 c 0.63731,4.75577 1.31045,11.44564 1.42616,14.17373 0.1403,3.3077 -0.16823,4.89658 -1.6032,8.25616 -0.9703,2.27173 -3.78241,7.98511 -3.93022,7.98511 -0.0486,0 -0.14504,-0.33221 -0.21439,-0.73826 z"
     id="path433" /><path
     style="fill:#ffffff;stroke:none;stroke-width:2.42142;stroke-linecap:round;stroke-linejoin:round;stroke-dasharray:none"
     d="m 16.193946,294.211 c -3.17732,-6.66085 -3.6556,-8.11486 -3.6556,-11.11329 0,-1.98476 0.68717,-9.31487 1.37992,-14.71964 0.2151,-1.67827 0.39127,-3.11784 0.39147,-3.19904 2.1e-4,-0.0812 1.54083,-0.14764 3.42358,-0.14764 h 3.42321 l 0.11246,0.63979 c 0.44601,2.53761 1.38543,16.35324 1.22387,17.99894 -0.0721,0.73443 -0.0411,1.26464 0.0782,1.33836 0.11555,0.0714 -0.40525,1.32327 -1.25484,3.01629 -1.58829,3.16503 -2.24131,5.03228 -2.78496,7.96343 -0.19582,1.05569 -0.40621,1.91699 -0.46755,1.91399 -0.0614,-0.003 -0.90273,-1.66403 -1.86971,-3.69119 z"
     id="path434" /><path
     style="fill:#ffffff;stroke:none;stroke-width:2.42142;stroke-linecap:round;stroke-linejoin:round;stroke-dasharray:none"
     d="m 18.837986,253.11351 c -1.35343,-0.14021 -2.79023,-0.26229 -3.19288,-0.2713 l -0.73207,-0.0163 0.0932,-1.5257 c 0.0513,-0.83912 0.18413,-3.25316 0.29529,-5.36452 0.5152,-9.78725 1.36772,-20.66289 1.85952,-23.72208 0.61286,-3.81218 3.97958,-15.419 4.41315,-15.21437 0.065,0.0308 2.20016,0.87922 4.74463,1.88553 6.16372,2.43774 6.99241,2.78241 7.39177,3.07443 0.31733,0.23203 0.27234,0.56466 -0.68381,5.05453 -1.63831,7.69313 -2.87033,12.96886 -4.84618,20.75211 -2.76524,10.89294 -3.95776,15.11295 -4.35217,15.40135 -0.41112,0.30062 -1.70546,0.28672 -4.99042,-0.0536 z"
     id="path435" /><path
     style="fill:#ffffff;stroke:none;stroke-width:2.42142;stroke-linecap:round;stroke-linejoin:round;stroke-dasharray:none"
     d="m 34.193356,198.29405 c -1.35344,-0.53912 -3.39098,-1.44612 -4.52786,-2.01555 l -2.06707,-1.03531 0.0333,-1.18118 c 0.0183,-0.64965 0.70053,-4.54756 1.5161,-8.66202 1.8788,-9.47833 2.7266,-14.01082 4.45566,-23.82051 1.98722,-11.27437 3.20986,-17.2015 4.03744,-19.57294 2.51707,-7.21264 6.06293,-10.57241 13.50898,-12.80004 2.39838,-0.71752 2.20046,-0.82724 3.12714,1.73378 1.2149,3.35751 1.25039,2.96345 -0.48996,5.44065 -5.58191,7.94523 -9.1215,17.41852 -9.73355,26.05072 -0.31124,4.38943 0.20935,7.85837 1.88707,12.57473 l 0.5045,1.41823 -1.19456,2.12533 c -2.50576,4.45815 -4.59202,9.36386 -5.94058,13.9689 -1.45166,4.95707 -2.0506,6.6593 -2.36046,6.70854 -0.16241,0.0258 -1.40266,-0.39419 -2.7561,-0.93333 z"
     id="path436" /><path
     style="fill:#ffffff;stroke:none;stroke-width:2.42142;stroke-linecap:round;stroke-linejoin:round;stroke-dasharray:none"
     d="m 73.077016,182.79778 c -6.66097,-1.371 -12.26004,-6.97901 -14.85977,-14.88345 -1.40913,-4.28438 -0.38991,-11.01795 2.55438,-16.87583 0.72573,-1.44391 2.92642,-4.91166 3.11918,-4.91508 0.11709,-0.002 5.44479,2.59855 11.44707,5.58774 3.01889,1.50343 6.53487,3.72537 11.37584,7.18904 2.02633,1.44982 4.15172,2.85268 4.7231,3.11747 1.36113,0.63079 3.36627,0.93986 6.09746,0.93986 h 2.21473 l -10e-6,6.54022 -1e-5,6.54022 -1.13197,0.31328 c -2.64091,0.73087 -5.60998,1.79044 -9.15362,3.26661 -4.58285,1.90909 -7.14162,2.81339 -9.04685,3.19727 -1.80635,0.36395 -5.52977,0.35516 -7.33953,-0.0174 z"
     id="path437" /><path
     style="fill:#ffffff;stroke:none;stroke-width:2.42142;stroke-linecap:round;stroke-linejoin:round;stroke-dasharray:none"
     d="m 94.582546,148.31691 c -0.397,-0.20241 -1.14659,-0.71901 -1.66575,-1.148 -2.77,-2.28889 -4.55333,-3.36238 -12.34166,-7.42912 -10.69462,-5.5843 -12.03179,-6.65141 -13.02916,-10.39791 -0.3524,-1.32372 -0.35106,-2.01545 0.004,-2.37109 0.15625,-0.15625 1.15287,-0.43954 2.21472,-0.62952 3.78372,-0.67699 6.32631,-1.46706 8.97152,-2.78779 1.64879,-0.82324 1.75079,-0.84854 2.29214,-0.56859 0.3116,0.16114 1.96952,0.87718 3.68424,1.59122 4.61816,1.92306 9.16626,3.38481 11.95448,3.84213 1.31577,0.21581 2.61377,0.43685 2.88446,0.4912 l 0.492154,0.0988 v 9.83833 9.83833 h -2.369954 c -1.92606,-1e-5 -2.50514,-0.0689 -3.09177,-0.36801 z"
     id="path438" /><path
     style="fill:#ffffff;stroke:none;stroke-width:2.42142;stroke-linecap:round;stroke-linejoin:round;stroke-dasharray:none"
     d="m 111.95454,148.82229 c -0.0541,-0.0574 -0.0886,-4.51144 -0.0764,-9.89768 0.0249,-11.10522 -0.1028,-10.3198 1.67896,-10.3198 3.2125,0 10.47185,-2.26088 15.88217,-4.9464 l 3.60583,-1.78983 1.51263,0.69005 c 1.20197,0.54833 5.85624,2.12349 9.09189,3.07706 0.39496,0.11639 0.50445,0.29177 0.55445,0.88811 0.1345,1.60436 -1.33824,5.1616 -2.73121,6.59697 -1.42616,1.46954 -4.84657,3.57192 -11.71936,7.20334 -5.48798,2.89974 -7.67291,4.20077 -10.24994,6.10342 -2.53275,1.86995 -3.35197,2.21793 -5.58209,2.37102 -1.02767,0.0705 -1.91278,0.0812 -1.96692,0.0238 z"
     id="path439" /><path
     style="fill:#ffffff;stroke:none;stroke-width:2.42142;stroke-linecap:round;stroke-linejoin:round;stroke-dasharray:none"
     d="m 133.00044,183.12929 c -3.04015,-0.33762 -6.14199,-1.32994 -11.44849,-3.66248 -4.11823,-1.81023 -6.89003,-2.74543 -8.66214,-2.92259 l -1.32864,-0.13282 0.14746,-0.82102 c 0.0811,-0.45156 0.14172,-3.45221 0.13466,-6.66811 l -0.0128,-5.84707 1.05925,-0.13235 c 0.58258,-0.0728 1.76215,-0.0711 2.62126,0.004 0.94936,0.0829 1.56201,0.063 1.56201,-0.0504 0,-0.10271 0.5169,-0.22412 1.14867,-0.26982 1.59822,-0.1156 2.76263,-0.74553 6.33215,-3.42555 5.91806,-4.44333 8.63435,-6.09543 14.56792,-8.86055 1.89481,-0.88302 4.55151,-2.23684 5.90379,-3.00852 1.35225,-0.77167 2.5549,-1.40303 2.67254,-1.40303 0.45371,0 1.10354,0.99542 2.317,3.5493 2.21688,4.66567 3.61197,9.01962 4.0693,12.69998 0.25927,2.08638 0.14799,2.93955 -0.73081,5.60259 -1.7808,5.3964 -4.60876,9.44809 -8.56492,12.27115 -3.34532,2.38718 -7.72001,3.52924 -11.7882,3.07745 z"
     id="path440" /><path
     style="fill:#ffffff;stroke:none;stroke-width:2.42142;stroke-linecap:round;stroke-linejoin:round;stroke-dasharray:none"
     d="m 174.46594,199.09362 c -0.0629,-0.10187 -0.59203,-1.8958 -1.17569,-3.98648 -1.85249,-6.6356 -3.80931,-11.48702 -6.55586,-16.25347 l -1.38998,-2.41219 1.11206,-3.29686 1.11207,-3.29686 -0.0216,-3.24825 c -0.0672,-10.1163 -3.19404,-20.48441 -8.63847,-28.64367 -2.26481,-3.39414 -2.52786,-3.92227 -2.37074,-4.75982 0.24751,-1.31929 1.13988,-3.71287 1.55146,-4.16142 0.50931,-0.55507 0.89347,-0.50742 3.86871,0.4798 2.35718,0.78215 4.44183,1.84804 6.08065,3.10909 5.0487,3.88489 6.9238,8.9052 9.57072,25.62422 1.30951,8.27137 4.86559,26.55053 6.40688,32.93295 0.42787,1.77177 0.77794,3.38733 0.77794,3.59011 0,0.23884 -0.26,0.47957 -0.73823,0.68349 -1.22987,0.52441 -9.35659,3.82463 -9.4181,3.82463 -0.0315,0 -0.10891,-0.0834 -0.17185,-0.18527 z"
     id="path441" /><path
     style="fill:#ffffff;stroke:none;stroke-width:2.42142;stroke-linecap:round;stroke-linejoin:round;stroke-dasharray:none"
     d="m 112.29825,115.53997 c -0.11082,-0.72617 0.0103,-7.23911 0.15068,-8.09801 0.0913,-0.55875 0.22651,-0.63693 2.50793,-1.44975 4.70923,-1.67783 9.96151,-4.52454 13.23893,-7.175421 0.75793,-0.61303 1.48753,-1.115733 1.62134,-1.117103 0.13382,-0.0011 0.48488,-0.37899 0.78017,-0.839153 0.29527,-0.460174 0.85293,-1.191027 1.23922,-1.624129 0.38629,-0.433102 1.9063,-2.337764 3.37779,-4.232571 3.71819,-4.787839 4.20462,-5.158098 2.7537,-2.096074 -0.94995,2.004745 -2.64496,4.372343 -4.95365,6.919236 -3.4919,3.85219 -5.28957,6.578445 -6.23092,9.449465 -0.4455,1.35872 -0.51406,1.89384 -0.49945,3.89845 l 0.0169,2.32353 -0.62749,0.3834 c -1.29103,0.78883 -8.45078,3.15866 -12.07269,3.99599 l -1.20831,0.27934 z"
     id="path442" /><path
     style="fill:#ffffff;stroke:none;stroke-width:2.42142;stroke-linecap:round;stroke-linejoin:round;stroke-dasharray:none"
     d="m 98.764676,116.20381 c -0.27069,-0.0904 -2.30824,-0.75866 -4.52788,-1.48504 -5.06186,-1.65648 -7.4531,-2.58216 -8.02847,-3.10792 -0.38911,-0.35554 -0.44446,-0.58298 -0.41363,-1.69911 0.0196,-0.70873 -0.0664,-1.95302 -0.19123,-2.76508 -0.60291,-3.92412 -1.86145,-6.02863 -6.68972,-11.186608 -1.04639,-1.11784 -2.42388,-2.756724 -3.06109,-3.64197 -1.22968,-1.708341 -2.77334,-4.677065 -2.63997,-5.077137 0.0821,-0.24659 0.62279,0.38624 4.64393,5.436227 4.71349,5.919498 8.98332,9.466748 13.94575,11.585728 1.71625,0.73285 5.24285,1.90221 6.8835,2.28243 l 1.00396,0.23268 0.12802,2.38074 c 0.15914,2.95981 0.16102,6.21135 0.004,6.79757 -0.1265,0.47199 -0.27839,0.50754 -1.05711,0.24749 z"
     id="path443" /><path
     style="fill:#ffffff;stroke:none;stroke-width:2.42142;stroke-linecap:round;stroke-linejoin:round;stroke-dasharray:none"
     d="m 101.81605,94.266678 c -3.417514,-0.677956 -6.143634,-2.232783 -10.282974,-5.86484 -3.91832,-3.438109 -7.76087,-8.178451 -10.15909,-12.532732 -3.73568,-6.782606 -5.41306,-12.508455 -5.44044,-18.571264 -0.004,-0.969419 0.0562,-1.157164 0.43787,-1.357269 0.24362,-0.127725 0.85497,-0.658438 1.35856,-1.179363 1.70981,-1.768669 5.41765,-3.885267 9.22286,-5.264818 12.55315,-4.551049 31.569974,-4.050407 41.833554,1.101324 2.24536,1.127042 3.68982,2.10882 5.67043,3.854114 l 1.57303,1.386135 -0.12985,2.670504 c -0.33091,6.805117 -2.61088,13.14309 -7.2979,20.287089 -0.88895,1.35493 -2.15418,3.127929 -2.81163,3.939998 -1.26467,1.562067 -5.1285,5.45027 -6.94569,6.989507 -2.63801,2.234486 -5.53593,3.750293 -8.30298,4.342999 -2.02163,0.433047 -6.97559,0.545812 -8.72575,0.198616 z"
     id="path444" /><path
     style="fill:#ffffff;stroke:none;stroke-width:2.42142;stroke-linecap:round;stroke-linejoin:round;stroke-dasharray:none"
     d="m 71.501676,41.049657 c 0.65145,-5.698353 3.67913,-11.843751 8.25004,-16.745443 4.13674,-4.436094 8.69137,-7.298917 14.88341,-9.354994 4.23804,-1.407243 4.27089,-1.411273 11.511934,-1.411273 6.19231,0 6.57947,0.02173 8.26828,0.464048 3.65562,0.957444 9.43511,3.56354 12.79614,5.77005 1.71062,1.123022 5.52241,4.788073 7.13189,6.857342 2.71542,3.491171 4.84298,7.87689 5.87329,12.10712 0.50301,2.06528 0.59216,2.958823 0.31245,3.131697 -0.0921,0.05695 -1.04447,-0.438894 -2.11629,-1.101874 -2.37618,-1.469814 -5.6745,-3.067567 -8.05152,-3.900271 -4.8018,-1.682132 -11.29544,-2.921044 -17.13216,-3.268615 -1.80787,-0.107655 -2.41192,-0.21339 -2.59144,-0.453614 -0.19443,-0.260166 -0.30237,-0.271543 -0.63714,-0.06715 -0.50532,0.308528 -0.89931,0.311659 -1.38079,0.01102 -0.28712,-0.179304 -0.49509,-0.181068 -0.87618,-0.0074 -0.31219,0.142244 -0.54365,0.156595 -0.61681,0.03824 -0.15418,-0.249484 -1.02119,-0.244012 -1.17658,0.0074 -0.1692,0.273765 -1.15096,0.246783 -1.43724,-0.0395 -0.18082,-0.180816 -0.3867,-0.183216 -0.87605,-0.01023 -0.35182,0.124387 -2.05709,0.321267 -3.789484,0.437516 -10.29911,0.691095 -17.31627,2.596936 -25.11556,6.821309 -1.12841,0.611187 -2.2868,1.276706 -2.5742,1.478932 -0.2874,0.202228 -0.58169,0.367688 -0.65397,0.367688 -0.0723,0 -0.0732,-0.509386 -0.002,-1.131967 z"
     id="path445" /></svg>
