<?xml version="1.0" encoding="UTF-8" standalone="no"?>
<!-- Created with Inkscape (http://www.inkscape.org/) -->

<svg
   width="505.08896"
   height="505.75937"
   viewBox="0 0 505.08896 505.75937"
   version="1.1"
   id="svg1"
   xml:space="preserve"
   sodipodi:docname="Medikt.svg"
   inkscape:version="1.4 (86a8ad7, 2024-10-11)"
   xmlns:inkscape="http://www.inkscape.org/namespaces/inkscape"
   xmlns:sodipodi="http://sodipodi.sourceforge.net/DTD/sodipodi-0.dtd"
   xmlns="http://www.w3.org/2000/svg"
   xmlns:svg="http://www.w3.org/2000/svg"><sodipodi:namedview
     id="namedview1"
     pagecolor="#ffffff"
     bordercolor="#000000"
     borderopacity="0.25"
     inkscape:showpageshadow="2"
     inkscape:pageopacity="0.0"
     inkscape:pagecheckerboard="true"
     inkscape:deskcolor="#d1d1d1"
     inkscape:zoom="1.6959064"
     inkscape:cx="435.46037"
     inkscape:cy="243.23277"
     inkscape:window-width="2560"
     inkscape:window-height="1494"
     inkscape:window-x="585"
     inkscape:window-y="2149"
     inkscape:window-maximized="1"
     inkscape:current-layer="svg1"><inkscape:page
       x="0"
       y="0"
       width="505.08896"
       height="505.75937"
       id="page2"
       margin="0"
       bleed="0" /></sodipodi:namedview><defs
     id="defs1"><inkscape:path-effect
       effect="bspline"
       id="path-effect43"
       is_visible="true"
       lpeversion="1.3"
       weight="33.333333"
       steps="2"
       helper_size="0"
       apply_no_weight="true"
       apply_with_weight="true"
       only_selected="false"
       uniform="false" /><inkscape:path-effect
       effect="bspline"
       id="path-effect42"
       is_visible="true"
       lpeversion="1.3"
       weight="33.333333"
       steps="2"
       helper_size="0"
       apply_no_weight="true"
       apply_with_weight="true"
       only_selected="false"
       uniform="false" /><inkscape:path-effect
       effect="bspline"
       id="path-effect41"
       is_visible="true"
       lpeversion="1.3"
       weight="33.333333"
       steps="2"
       helper_size="0"
       apply_no_weight="true"
       apply_with_weight="true"
       only_selected="false"
       uniform="false" /><inkscape:path-effect
       effect="bspline"
       id="path-effect40"
       is_visible="true"
       lpeversion="1.3"
       weight="33.333333"
       steps="2"
       helper_size="0"
       apply_no_weight="true"
       apply_with_weight="true"
       only_selected="false"
       uniform="false" /><inkscape:path-effect
       effect="bspline"
       id="path-effect39"
       is_visible="true"
       lpeversion="1.3"
       weight="33.333333"
       steps="2"
       helper_size="0"
       apply_no_weight="true"
       apply_with_weight="true"
       only_selected="false"
       uniform="false" /></defs><path
     id="path1"
     style="fill:#000000;stroke-width:0.593193"
     d="m 214.33398,2.9003906 c -10.83433,0.014458 -21.2446,3.1076173 -30.25586,8.9902344 -10.58904,6.912622 -19.77272,20.020807 -23.90039,33 -0.0729,2.236138 -0.55189,4.427778 -1.42578,6.525391 -0.10671,0.256137 -0.19095,0.403287 -0.28515,0.605468 -0.17735,1.076104 -0.42436,2.167144 -0.51563,3.220704 -0.18903,2.182127 -0.54996,3.949953 -0.80664,3.982421 1e-5,0.0742 1e-5,0.148489 0,0.222657 -8e-5,0.754565 1e-5,1.509095 0,2.263672 -1e-5,0.811216 0,1.622374 0,2.433593 v 2.140625 1.953125 2.152344 0.289063 c 0.006,0.0647 0.0128,0.128699 0.0195,0.193359 0.003,0.03054 0.0121,0.138798 0.0156,0.179687 0.85714,1.906233 1.3711,3.928991 1.69336,5.990235 0.0804,0.581297 0.12678,1.165532 0.16797,1.75 1.83043,7.934881 5.44826,16.493825 10.88867,25.523441 4.88229,8.10323 5.64258,9.93523 5.64258,13.58984 0,2.72566 -0.11742,2.96234 -1.63086,3.2832 -1.48413,0.31467 -17.95992,2.89272 -53.23829,8.32813 -7.17762,1.10589 -15.27008,2.31084 -17.98242,2.67969 l -4.931638,0.67187 -5.152343,-2.77344 c -2.834018,-1.52554 -7.863817,-4.37985 -11.175781,-6.34179 l -6.021485,-3.56641 -0.28125,-17.27344 C 74.850917,84.034369 74.190207,79.074339 71.517578,75.570312 c -1.792877,-2.350571 -4.737589,-3.811435 -8.605469,-4.269531 -4.738988,-0.561257 -9.62732,2.093409 -16.339843,8.871094 -7.079042,7.147761 -10.983851,12.432918 -14.554688,19.707031 -4.287142,8.733294 -5.60323,14.294864 -5.61914,23.728514 -0.01113,6.59423 0.196091,8.352 1.433593,12.13086 4.01885,12.27214 14.473542,22.01718 48.283203,45 11.334626,7.70492 13.974794,8.64714 23.126954,8.26563 3.646752,-0.15202 15.839852,-1.51399 27.095702,-3.02735 11.25583,-1.51336 21.04367,-2.75158 21.75195,-2.75195 1.30019,-6.6e-4 2.50565,1.56702 15.0293,19.57422 2.38248,3.42569 4.68957,7.08687 5.12891,8.13672 0.49818,1.19052 0.79859,4.2597 0.79883,8.15625 v 0.76562 c 0.40055,2.16507 0.37297,4.36764 0.12695,6.55274 -0.0956,0.65235 -0.13837,1.30884 -0.16797,1.96679 -0.0338,0.82848 -0.0446,1.65924 -0.0547,2.48828 -0.007,0.69318 -0.01,1.38491 -0.0117,2.07813 -0.001,0.67102 -0.002,1.34265 -0.002,2.01367 -2.4e-4,0.63411 4e-5,1.26819 0,1.90235 0.023,1.10614 -0.0397,2.20899 -0.13086,3.31054 h 0.0723 l 0.43359,18.75196 c 0.23883,10.31304 0.21147,18.96284 -0.0625,19.22265 -0.53329,0.50574 -10.21214,5.14329 -55.07227,26.39258 -37.450659,17.73963 -43.503357,20.94933 -48.091792,25.49414 -5.15719,5.10814 -8.514059,13.18888 -8.548829,20.58203 -0.0092,1.95805 6.003693,21.89482 24.367188,80.80078 3.244246,10.40681 5.826071,18.97672 5.738281,19.04492 -0.08778,0.0682 -6.831862,3.79875 -14.988281,8.28907 -8.156409,4.49031 -15.814272,9.10457 -17.017578,10.2539 -1.203306,1.14934 -2.771184,3.44238 -3.482422,5.09571 -2.954196,6.86722 0.679343,15.06768 8.261719,18.64648 1.939115,0.91524 5.539624,1.03584 36.261718,1.20703 40.731766,0.22696 40.753366,0.22282 47.570316,-5.78711 5.83118,-5.14086 7.55186,-12.35817 5.3125,-22.2832 -0.66251,-2.9363 -5.76016,-25.20174 -11.32813,-49.47852 -5.56798,-24.27679 -10.04291,-44.22076 -9.94531,-44.31836 0.0976,-0.0976 10.44324,-2.8259 22.99023,-6.06445 12.54697,-3.23854 31.75401,-8.21895 42.6836,-11.06641 l 19.87304,-5.17578 6.22852,1.53711 c 3.42569,0.84614 24.1278,5.93818 46.00391,11.31446 21.8761,5.37627 40.3597,9.99082 41.07617,10.25586 0.0659,0.0243 -0.0446,0.15883 -0.0645,0.23632 0.0469,0.001 0.0937,0.003 0.14063,0.006 0.36262,0.0153 0.72489,0.0362 1.08594,0.0742 0.42389,0.0436 0.84991,0.069 1.26562,0.16992 0.53262,0.13229 1.0578,0.30062 1.55274,0.54102 0.32092,0.15676 0.63749,0.31907 0.95703,0.47851 0.054,0.0294 0.10821,0.0583 0.16211,0.0879 0.20967,0.0261 0.42072,0.0408 0.6289,0.0781 0.29361,0.0648 0.5902,0.12349 0.88477,0.18359 0.19633,0.0439 0.39277,0.0768 0.58984,0.11719 0.4183,0.11019 0.60953,0.17456 0.91797,0.25586 0.16498,0.037 0.33361,0.0608 0.5,0.0918 0.25077,0.0365 0.49823,0.0839 0.7461,0.13672 0.55842,0.12574 1.07692,0.36574 1.58007,0.63086 0.33861,0.19146 0.64494,0.42861 0.95118,0.66601 0.97521,-0.0189 1.88401,0.1268 2.74804,0.69336 0.12652,0.0937 0.25687,0.18185 0.37891,0.28125 0.20098,0.16378 0.3787,0.35183 0.55078,0.54492 0.11721,0.0638 0.23229,0.1313 0.3418,0.20899 0.58903,0.41352 1.04777,0.86904 1.3789,1.47265 l 0.32227,-0.24804 1.69922,1.91601 c 0.93544,1.05465 5.87034,7.12433 10.96484,13.48633 11.48088,14.33726 33.98953,42.10464 42.79492,52.79297 3.62853,4.40446 7.81407,9.78608 9.30078,11.95898 l 2.70313,3.95118 0.43164,7.73828 c 0.39223,7.04849 0.59868,8.08275 2.32813,11.5957 3.09908,6.29514 8.58947,10.13545 15.5957,10.9082 2.06401,0.22763 19.63657,0.34773 39.04883,0.26563 39.69232,-0.16774 38.6429,-0.0588 42.42773,-4.48047 3.85652,-4.50548 4.63268,-10.21571 2.06836,-15.21484 -1.89612,-3.69649 -3.07236,-4.44672 -26.10742,-16.62305 -27.17125,-14.36271 -25.36879,-13.01934 -30.82422,-22.95899 -1.75859,-3.20409 -6.45004,-11.56555 -10.42774,-18.58007 -3.97755,-7.01451 -10.90681,-19.29382 -15.39843,-27.28711 -4.4916,-7.99327 -10.22171,-18.13656 -12.73242,-22.54102 -2.51071,-4.40446 -7.04619,-12.41169 -10.08008,-17.79492 -15.02803,-26.6652 -16.34048,-28.82706 -19.29688,-31.79492 -2.54164,-2.55148 -5.56058,-4.30183 -19.30664,-11.20117 -8.96127,-4.49778 -23.36592,-11.57229 -32.01172,-15.72071 -8.6458,-4.14842 -22.60785,-10.96474 -31.02539,-15.14843 l -15.30468,-7.60743 0.33984,-3.01172 c 0.18652,-1.65645 1.27841,-14.35675 2.42578,-28.22265 1.14736,-13.86589 2.47556,-29.48106 2.95117,-34.70117 0.47562,-5.2201 0.86619,-9.82461 0.86719,-10.23243 0.002,-0.58355 6.49574,-0.74218 30.48633,-0.74218 28.30848,0 30.90053,-0.0858 36.33203,-1.20313 8.004,-1.64655 36.59308,-8.10161 57.7539,-13.04101 9.62458,-2.24657 20.03534,-4.64529 23.13477,-5.33008 19.08332,-4.21629 24.65115,-6.31671 30.63672,-11.55274 4.03964,-3.53379 6.37727,-7.33525 8.0332,-13.0664 1.29517,-4.48286 1.37024,-5.71359 1.36524,-22.24414 -0.005,-16.38827 -0.0917,-17.79458 -1.34571,-22.14063 -1.70234,-5.899918 -3.17177,-8.763017 -6.16992,-12.015623 -4.86187,-5.274979 -12.94436,-7.458664 -19.51758,-5.275391 -4.32284,1.43582 -8.80691,5.929018 -10.53906,10.558594 -1.2516,3.345201 -3.39053,13.99574 -4.86133,24.20703 l -0.73828,5.1211 -2.43555,0.33789 c -10.58611,1.46558 -65.17354,9.03467 -73.96093,10.25585 l -11.01953,1.53126 -29.61328,-3.66016 c -49.4425,-6.11229 -56.7094,-7.04533 -56.98243,-7.31836 -0.14436,-0.14437 1.05029,-1.10548 2.6543,-2.13477 4.11928,-2.64334 13.02606,-12.11547 15.68164,-16.67773 1.2318,-2.11625 2.95464,-5.98371 3.82813,-8.593751 1.55399,-4.643422 1.59316,-5.128195 1.82226,-22.541015 0.25592,-19.451782 -0.0218,-22.423377 -2.94531,-31.439453 -8.09,-24.953012 -30.02328,-41.2527024 -55.45899,-41.2187504 z m 0.65625,15.4160154 c 7.35264,0 11.43839,0.977866 18.41797,4.41211 9.69646,4.771064 16.7189,11.971656 20.36719,20.884765 3.32204,8.116207 3.36133,8.468491 3.36133,30.166016 v 20.167969 l -2.00781,3.855468 c -1.27285,2.443396 -3.66324,5.500756 -6.52539,8.343746 -4.58393,4.55324 -7.25429,6.33436 -13.11914,8.75977 -5.30145,2.1924 -5.83437,2.55195 -6.79493,4.57617 -1.05139,2.21565 -1.2975,13.42678 -0.34961,15.91992 1.14809,3.01971 2.42995,3.32821 25.08985,6.06641 11.82645,1.42909 34.37109,4.20131 50.09765,6.16016 15.72656,1.95884 30.2558,3.5625 32.28907,3.5625 3.54453,0 25.07064,-2.83093 73.92773,-9.72266 23.08429,-3.25624 24.83986,-3.67883 26.24414,-6.30273 0.35169,-0.65713 1.6798,-8.4176 2.94922,-17.2461 2.2828,-15.87638 2.98045,-18.513449 5.12891,-19.337889 1.59137,-0.610668 3.67492,1.089293 4.9414,4.033199 1.97228,4.58469 2.58201,11.40102 2.24805,25.125 -0.34242,14.07129 -0.84477,16.3549 -4.40625,20.00391 -3.13164,3.20861 -6.33036,4.32759 -23.51758,8.23828 -8.53837,1.94278 -20.59605,4.71504 -26.79492,6.16016 -19.79857,4.61556 -53.88961,12.33318 -56.65039,12.82422 -1.46815,0.26114 -18.06459,0.49026 -36.88086,0.50976 l -34.21094,0.0352 -1.78515,1.50195 c -2.12794,1.79053 -2.90807,3.92397 -3.5,9.57422 l -0.44141,4.21484 -19.42188,19.86719 -19.42187,19.86524 -3.56836,0.25781 c -4.74863,0.34348 -7.99779,2.55614 -10.23437,6.9668 -2.2206,4.37906 -2.21001,8.27985 0.0273,12.56445 2.29613,4.39532 5.53853,6.59674 10.22266,6.93555 8.59925,0.62202 15.26289,-5.90439 14.73828,-14.43555 l -0.16602,-2.69922 12.99414,-13.00586 c 7.14749,-7.15305 13.07262,-12.92934 13.16602,-12.83594 0.0934,0.0934 -0.76498,11.2285 -1.90821,24.74414 -3.05977,36.17354 -3.01291,35.20959 -1.79882,37.0625 0.7251,1.10666 4.40742,3.20856 12.39648,7.07618 6.25064,3.02601 19.9055,9.6995 30.3457,14.83007 10.4402,5.13057 23.12075,11.27538 28.17774,13.6543 14.54839,6.84392 26.23256,12.75352 28.30859,14.31641 2.55317,1.92209 4.29212,4.55052 11.13672,16.82617 3.18347,5.70948 9.59577,17.05453 14.24805,25.21094 4.65228,8.15642 12.03916,21.23625 16.41601,29.0664 21.98858,39.33743 31.0986,55.12434 33.04297,57.25977 1.64073,1.80196 6.48587,4.61992 20.82422,12.10937 10.27708,5.36809 19.88732,10.50759 21.35547,11.42188 l 2.66992,1.66211 -32.12891,0.15429 c -20.41437,0.0975 -32.69982,-0.0636 -33.69335,-0.4414 -2.5462,-0.96805 -3.31877,-3.77746 -3.14258,-11.42188 l 0.15429,-6.67968 -2.65429,-4.64454 c -1.45989,-2.5549 -6.39875,-9.25022 -10.97461,-14.87695 -4.57586,-5.62673 -13.12543,-16.19033 -18.99805,-23.47461 -5.87262,-7.28428 -13.87985,-17.14737 -17.79492,-21.91797 -3.91508,-4.77058 -10.32125,-12.80323 -14.23633,-17.85156 -9.24341,-11.91903 -11.0704,-13.7512 -15.27148,-15.31055 -1.87411,-0.69564 -27.63451,-7.30812 -57.24414,-14.69336 -41.20757,-10.278 -54.67024,-13.41983 -57.39454,-13.39843 -2.55104,0.0201 -9.60784,1.63825 -24.91406,5.71484 -16.81331,4.47799 -48.96151,12.85309 -69.82226,18.18945 -3.00878,0.76966 -5.66196,3.15082 -6.42579,5.76563 -0.55634,1.90464 -0.22436,3.87039 2.61915,15.52734 3.15287,12.92519 8.19273,34.4856 16.98632,72.66602 2.90937,12.63208 4.14278,19.10374 3.94141,20.67187 -0.3568,2.77859 -2.32071,5.00542 -4.78516,5.42578 -3.08806,0.52673 -13.80677,0.60855 -39.203121,0.29883 l -24.322266,-0.29687 10.083985,-5.72461 c 5.546361,-3.14871 13.421801,-7.55807 17.5,-9.79883 6.307702,-3.46576 7.580012,-4.40862 8.517582,-6.31836 1.35487,-2.75969 2.22663,0.61283 -9.392582,-36.29101 -22.696703,-72.08752 -21.27921,-67.32361 -21.25586,-71.50196 0.02612,-4.68174 1.03235,-6.8516 4.47461,-9.6543 1.39166,-1.13306 12.806199,-6.99372 25.367192,-13.02343 40.92552,-19.64585 71.74576,-34.2461 72.29101,-34.2461 0.55051,0 9.63051,8.03719 21.21875,18.78321 6.07735,5.63566 6.6375,6.33789 7.00391,8.78125 0.21929,1.46235 1.24814,3.91324 2.29101,5.45507 4.75174,7.02518 14.20423,7.46231 20.09571,0.92774 4.60852,-5.1115 4.6464,-13.15538 0.0859,-18.48242 -2.74407,-3.20584 -6.21045,-4.44476 -11.28906,-4.03711 l -3.9707,0.31836 -10.70899,-9.96485 c -5.88931,-5.48024 -11.6413,-10.93939 -12.7832,-12.13281 l -2.07617,-2.16992 -0.29688,-35.41211 c -0.26993,-32.22659 -0.39137,-35.62029 -1.34765,-37.73828 -1.85489,-4.10827 -25.43337,-37.18669 -27.37891,-38.41016 -1.29412,-0.81388 -2.51028,-1.06873 -4.19531,-0.875 -1.30503,0.15003 -14.11933,1.78144 -28.47461,3.625 -27.594119,3.54376 -28.353645,3.57171 -32.945314,1.19727 -2.493307,-1.28934 -22.983576,-15.68702 -30.738281,-21.59961 -8.172937,-6.23148 -14.505041,-12.60051 -16.068359,-16.16016 -2.886548,-6.57265 -2.768963,-16.5071 0.291015,-24.63672 1.911239,-5.07768 6.919095,-12.570407 12.072266,-18.062496 l 4.083984,-4.355469 0.44336,3.515625 c 0.243569,1.932997 0.311703,10.51587 0.152343,19.07227 -0.304293,16.33802 -0.134039,17.79159 2.326172,19.98242 0.645475,0.57482 6.487252,4.08987 12.982422,7.8125 7.456365,4.27353 11.587509,6.96967 11.541016,7.51953 0.255497,0.0816 0.511949,0.16017 0.765625,0.24805 0.06088,0.0128 -0.120766,-0.0403 -0.08984,-0.0312 0.30733,0.088 0.6079,0.1894 0.908203,0.29882 0.461006,0.18953 0.765307,0.32927 0.966797,0.41407 0.46478,0.20051 0.899922,0.45895 1.330078,0.72461 0.03762,0.0119 0.608807,0.32255 0.695313,0.3496 0.219624,0.0761 0.509677,0.16412 0.861328,0.28321 0.275249,0.10713 0.554517,0.20533 0.833984,0.30078 0.07277,-0.008 0.146149,-0.01 0.21875,-0.0195 0.719928,-0.0913 1.439286,-0.20992 2.166016,-0.22852 0.585585,-0.0319 1.168924,-0.0834 1.751953,-0.14648 0.838521,-0.0872 1.677404,-0.17279 2.517573,-0.24219 0.70414,-0.0797 1.39363,-0.26994 2.10352,-0.30664 0.35248,-0.022 0.78318,-0.0457 1.10742,-0.0547 0.49347,-0.0581 0.98172,-0.1818 1.47852,-0.2207 0.33803,-0.0373 0.67533,-0.0807 1.0039,-0.17188 0.51844,-0.1124 1.04123,-0.19628 1.57032,-0.23828 0.5326,-0.0615 1.06469,-0.13803 1.59961,-0.17773 0.34527,-0.0201 0.68676,-0.0761 1.0332,-0.0801 0.0707,-0.003 0.14249,-0.007 0.21289,-0.0137 0.22513,-0.029 0.43982,-0.0985 0.66211,-0.14258 0.28445,-0.0617 0.57122,-0.12443 0.85742,-0.17773 0.004,0 -0.0386,0.013 -0.01,0.01 0.49397,-0.12246 0.98497,-0.25512 1.49023,-0.32422 0.402,-0.0571 0.80556,-0.098 1.21094,-0.12109 0.5075,-0.0415 1.0161,-0.0628 1.52539,-0.0527 0.0599,0 0.1198,5e-5 0.17969,0 3.42297,-0.51231 5.75767,-0.87307 11.42578,-1.69335 9.00983,-1.3039 23.48025,-3.44576 32.15429,-4.75977 8.67405,-1.31401 16.1218,-2.38867 16.55079,-2.38867 0.42894,0 4.64599,4.46707 9.37109,9.92773 4.7251,5.46067 12.26006,14.12904 16.74609,19.26172 7.75087,8.86818 8.15716,9.45808 8.16016,11.8711 0.0102,7.84851 5.30389,13.53019 12.57812,13.5 7.55018,-0.0313 12.92582,-5.52904 12.92578,-13.22071 5e-5,-6.2181 -4.36466,-11.28691 -10.38085,-12.05469 -1.63127,-0.20818 -3.46975,-0.80891 -4.08594,-1.33593 -0.6162,-0.52701 -4.78191,-5.09733 -9.25781,-10.1543 -4.47591,-5.05697 -11.09141,-12.49388 -14.69922,-16.52734 l -6.5586,-7.33399 -0.22656,-9.57226 c -0.26383,-11.15699 -0.76621,-12.89652 -6.20508,-21.464848 -4.47052,-7.042783 -8.79082,-16.185414 -10.38086,-21.970703 -1.91526,-6.968499 -1.93622,-21.163578 -0.041,-27.701171 2.35144,-8.112435 5.61769,-13.770518 11.04101,-19.123047 8.32687,-8.218205 17.93521,-12.146485 29.70703,-12.146485 z m -7.52929,12.091797 c -7.70631,-0.616644 -15.9103,4.002832 -19.125,11.248047 -0.74571,1.680662 -2.32795,4.082668 -3.51563,5.337891 -3.18476,3.365851 -4.07821,5.509179 -4.37304,10.476562 -0.19186,3.232562 -0.004,5.076446 0.68359,6.722656 0.88808,2.125494 0.87388,2.48736 -0.22852,5.759766 -0.64699,1.920589 -1.17773,4.698886 -1.17773,6.173828 0,5.192659 3.52828,11.836411 7.29687,13.738281 1.04347,0.526602 3.41387,2.499668 5.26758,4.384766 3.8626,3.927984 8.24816,6.29073 12.94336,6.97461 1.79441,0.26132 4.46348,0.29534 5.93164,0.0742 1.46815,-0.22064 4.18076,-0.13928 6.02735,0.18164 4.31167,0.74932 10.78804,-0.21142 15.06836,-2.236329 9.11816,-4.313583 15.0478,-14.450859 14.35156,-24.535157 -0.2115,-3.063475 -0.0213,-4.392814 0.89062,-6.220703 1.68515,-3.377912 2.04817,-10.437379 0.76758,-14.90625 -0.84459,-2.947345 -1.60265,-4.098165 -4.59765,-6.970703 -1.97274,-1.892021 -4.23685,-4.743763 -5.03126,-6.33789 -3.79535,-7.61633 -12.40502,-11.439449 -20.875,-9.269532 -3.44611,0.882679 -4.00069,0.881505 -7.04687,-0.0039 -1.06457,-0.30948 -2.15691,-0.503705 -3.25781,-0.591797 z m 14.47265,14.007813 c 0.92816,0 2.13841,2.706289 2.19141,4.90039 0.0296,1.226573 0.35055,2.783908 0.71289,3.460938 0.74465,1.391398 3.94735,2.910156 6.13672,2.910156 0.88443,0 1.96463,0.642001 2.74414,1.630859 1.9169,2.431724 1.31864,5.441295 -1.74023,8.759766 -2.79047,3.027311 -2.98839,4.434127 -1.15821,8.201172 2.20982,4.54848 0.11829,9.363148 -5.09765,11.732422 -1.31851,0.598921 -2.73086,1.094462 -3.13868,1.101562 -0.57638,0.01014 -0.75755,-4.180041 -0.81445,-18.820312 -0.0403,-10.358646 -0.12679,-19.968884 -0.19141,-21.355469 -0.0646,-1.386595 0.095,-2.521484 0.35547,-2.521484 z m -16.07031,0.05859 c 0.37796,-0.116043 0.67002,-0.130755 0.79102,0.0098 0.10866,0.125479 0.34911,9.63814 0.5332,21.138672 0.20588,12.862026 0.11962,20.910156 -0.22266,20.910156 -0.30605,0 -2.13818,-1.454201 -4.07031,-3.230469 -1.93213,-1.776257 -4.59817,-3.783652 -5.92578,-4.460937 -2.07515,-1.058668 -2.4123,-1.499459 -2.4043,-3.146485 0.0115,-2.417327 0.41367,-2.980194 2.82813,-3.957031 2.5541,-1.033322 4.28125,-3.300549 4.28125,-5.61914 0,-2.444255 -1.32076,-4.242541 -4.19141,-5.707032 -2.92877,-1.494151 -3.01225,-2.9605 -0.28711,-5.039062 1.12547,-0.858434 2.61614,-2.808506 3.31446,-4.332031 0.69832,-1.523514 1.54817,-3.351892 1.88867,-4.064454 0.4191,-0.877076 2.33096,-2.153823 3.46484,-2.501953 z M 322.24023,377.91797 c 0.0451,0.0217 0.0897,0.0446 0.13477,0.0664 -0.0194,-0.011 -0.039,-0.0226 -0.0586,-0.0332 -0.0164,-0.009 -0.0337,-0.0154 -0.0508,-0.0234 -0.009,-0.003 -0.0334,-0.0126 -0.0254,-0.01 z" /><path
     id="path2"
     style="fill:#ffffff;stroke-width:17.1407;stroke-linecap:round;stroke-linejoin:round"
     d="m 218.89648,18.972656 c -1.73151,-0.07297 -3.67916,-0.05127 -6,0.0332 -6.42042,0.233691 -8.04243,0.510159 -12.23437,2.078125 -6.09956,2.281493 -10.6363,5.267133 -15.50977,10.207032 -4.5822,4.644646 -7.7181,9.778796 -9.8789,16.175781 -1.50134,4.444704 -1.59512,5.348576 -1.60742,15.626953 -0.0117,9.778866 0.12867,11.357319 1.35156,15.25 1.74089,5.541562 4.96954,12.294299 9.62304,20.128906 5.57885,9.392434 5.90319,10.512374 6.35743,21.857424 l 0.39062,9.76758 14.20508,15.88086 c 7.812,8.73468 14.85425,16.48359 15.65039,17.21875 0.79615,0.73516 3.28049,1.84538 5.52148,2.46679 4.84579,1.3437 8.00731,4.2431 9.11915,8.36524 1.84884,6.85463 -1.83493,14.39968 -8.02735,16.44336 -3.56502,1.17656 -9.16458,0.50625 -11.96094,-1.43164 -2.93884,-2.03661 -5.38867,-6.6316 -5.38867,-10.10743 0,-1.69736 -0.49915,-3.18427 -1.62304,-4.8457 -1.34264,-1.98479 -19.98986,-23.66004 -29.75977,-34.5918 l -2.59766,-2.9082 -32.98437,4.86523 c -13.08568,1.9303 -18.98113,2.84691 -24.74805,3.73829 0.0514,-8.5e-4 0.10281,-7.9e-4 0.1543,-0.002 0.16933,-0.005 0.33936,-0.0123 0.50781,-0.0312 0.44898,-0.0461 0.89682,-0.0962 1.34766,-0.12109 0.47599,-0.0422 0.94908,-0.10757 1.41797,-0.20117 0.79431,-0.12485 1.59187,-0.23893 2.39062,-0.33203 0.87934,-0.0975 1.75887,-0.1862 2.63867,-0.2793 0.89004,-0.0953 1.78184,-0.16589 2.67578,-0.21289 0.43728,-0.0188 0.87366,-0.0555 1.31055,-0.0801 0.21188,-0.008 0.42311,-0.036 0.63281,-0.0664 0.54115,-0.0866 1.06894,-0.23108 1.59571,-0.38085 1.10971,-0.28784 2.22944,-0.55892 3.38281,-0.57422 10.31806,-0.1365 -10.31889,10.46412 0,10.42382 0.0777,-3e-4 0.15767,-0.0125 0.23437,0 0.0748,0.0122 -0.15092,0.0213 -0.2246,0.0391 -0.25909,0.0626 -0.51554,0.13417 -0.77344,0.20117 -0.81332,0.23956 -1.63954,0.42583 -2.47461,0.57031 -0.58266,0.0977 -1.17047,0.15616 -1.75977,0.19336 -0.48569,0.0277 -0.97223,0.0656 -1.45898,0.0879 -0.67185,0.0397 -1.34281,0.0871 -2.01172,0.16211 -0.87327,0.0925 -1.74632,0.18054 -2.61914,0.27734 -0.19453,0.023 -0.38779,0.0561 -0.58203,0.082 3.15709,4.27236 -0.0998,10.75208 -9.77344,11.04101 -1.5365,0.0459 -3.07067,0.22059 -4.59766,0.39649 -2.15306,0.25571 -4.30716,0.49337 -6.46875,0.66406 -1.39829,0.10744 -2.79957,0.16277 -4.20117,0.20117 -6.547149,0.17946 -10.233396,-2.69228 -10.992186,-5.94727 -0.356662,-0.18124 -0.722129,-0.34456 -1.076172,-0.53125 -1.438618,-0.77332 -2.86319,-1.57821 -4.24414,-2.45117 h -0.002 c -0.467756,-0.29578 -0.890328,-0.60053 -1.277344,-0.91211 -0.524414,-0.13211 -1.04721,-0.27044 -1.572266,-0.40039 -0.694006,-0.18922 -1.389094,-0.37061 -2.082031,-0.5625 -0.333085,-0.11225 -0.660339,-0.23177 -0.982422,-0.37304 -0.09636,-0.0422 -0.203582,-0.0636 -0.289062,-0.125 -0.07567,-0.0543 0.171362,0.0688 0.257812,0.10351 2.076617,0.83239 2.883605,0.57594 3.105469,-0.18164 -0.184501,-0.22691 -0.352531,-0.45345 -0.501953,-0.68164 -1.25027,-0.7065 -2.193578,-1.50501 -2.876953,-2.35352 -0.120775,-0.0377 -0.24212,-0.0759 -0.361328,-0.11914 -0.699936,-0.26703 -1.389372,-0.56356 -2.039063,-0.93945 -0.424113,-0.24741 -0.830181,-0.51947 -1.242187,-0.78516 -0.300106,-0.18289 -0.585605,-0.38211 -0.900391,-0.53711 -0.644308,-0.32337 -1.286215,-0.65449 -1.921875,-0.99414 -0.578057,-0.3365 -1.156988,-0.67778 -1.699219,-1.07031 -6.268973,-4.53823 -4.390746,-10.58662 0.404297,-10.6914 1.598348,-0.0349 3.521269,0.59014 5.574219,2.15234 0.265697,0.20219 0.576846,0.37562 0.957031,0.5957 0.447515,0.21358 0.879985,0.45711 1.326172,0.67383 0.57952,0.26345 1.101401,0.62888 1.648437,0.94922 0.350444,0.19639 0.669503,0.44018 1.00586,0.6582 0.01902,0.0123 -0.07371,-0.052 -0.05273,-0.043 0.04642,0.019 0.08735,0.0513 0.130859,0.0762 0.142817,0.065 0.286322,0.13425 0.433594,0.18945 0.01954,0.007 -0.03803,-0.0203 -0.05664,-0.0293 -0.0041,-0.0116 0.0019,-0.0125 -0.01367,-0.0215 0.0518,-0.004 0.112016,0.002 0.166016,0.004 0.582519,1.8e-4 1.157371,0.0931 1.722656,0.22657 0.659892,0.16405 1.27928,0.43435 1.882812,0.74218 0.546701,0.28878 1.054144,0.64447 1.558594,1 0.181928,0.12787 0.27013,0.16793 0.435547,0.25 l -0.0078,-0.18359 -4.345703,-2.74219 c -2.390462,-1.5079 -7.974114,-4.8645 -12.408204,-7.45898 -6.496704,-3.80137 -8.216237,-5.0862 -8.859375,-6.61524 -0.608248,-1.4461 -0.808263,-6.14534 -0.839843,-19.7539 -0.02279,-9.820822 -0.239142,-18.357667 -0.480469,-18.972659 -0.37201,-0.948024 -1.104989,-0.339212 -4.822266,4.009766 -9.421464,11.022503 -13.02899,19.202163 -13.02539,29.539063 0.0012,3.56224 0.351518,7.01652 0.882812,8.72656 1.108449,3.5677 4.59688,8.11415 9.691406,12.62891 7.451344,6.60336 35.085929,26.43505 39.275391,28.18555 3.399417,1.42035 9.00807,1.05306 36.13477,-2.36524 21.74386,-2.73999 25.93954,-3.12528 27.24414,-2.5 2.18783,1.0486 19.93651,25.07036 27.26367,36.90039 l 1.95312,3.1543 0.41602,28.09765 c 0.22974,15.45439 0.4402,31.72938 0.4668,36.16602 l 0.0488,8.06641 12.5293,11.81445 12.53125,11.81641 5.01172,0.0293 c 6.10546,0.0349 8.79963,1.30235 11.58789,5.45508 5.81082,8.65441 0.68637,20.3613 -9.63477,22.01172 -5.34005,0.85391 -11.5536,-3.05768 -13.48437,-8.48828 -0.5386,-1.51489 -1.24845,-3.48632 -1.57813,-4.38086 -0.7957,-2.15895 -25.82576,-25.20313 -27.375,-25.20313 -0.77681,0 -21.13389,9.55367 -58.87304,27.63086 -43.064335,20.62796 -42.484899,20.23437 -42.410159,28.88477 0.0426,4.93104 0.416835,6.2848 11.115235,40.1875 6.08923,19.29646 12.907211,40.92182 15.152343,48.05664 4.777541,15.18263 5.144981,17.0752 3.818361,19.64062 -1.03882,2.00884 -3.34231,3.45156 -23.349611,14.625 l -11.498047,6.42188 19.164063,0.30664 c 10.540087,0.16892 21.684675,0.34678 24.765625,0.39648 10.28281,0.16592 19.24823,-0.62523 20.56445,-1.8164 1.9888,-1.79984 2.30995,-3.79187 1.4375,-8.91211 -0.88926,-5.21883 -9.16445,-41.46961 -17.36328,-76.06445 -2.9207,-12.32379 -5.44067,-23.60115 -5.59961,-25.06055 -0.32419,-2.97657 0.98061,-5.70052 3.53321,-7.37305 0.79786,-0.52278 12.6855,-3.86397 26.41601,-7.42578 13.73051,-3.56182 32.39392,-8.42862 41.47461,-10.81445 21.45516,-5.63707 26.66665,-6.81836 30.09375,-6.81836 3.72919,0 14.71998,2.49377 53.04688,12.0332 44.68438,11.12179 61.31385,15.49964 63.8496,16.80859 2.83783,1.46493 4.96445,3.75771 13.44727,14.49805 3.84215,4.86466 17.69038,22.05198 30.77344,38.19336 23.28729,28.73101 28.73592,35.75638 31.88672,41.11524 1.42763,2.42811 1.58568,3.34075 1.85547,10.74609 0.27055,7.42625 0.40646,8.20415 1.63867,9.43555 l 1.34179,1.34179 32.26758,0.16016 c 27.76013,0.13844 32.10246,0.0465 31.08789,-0.66211 -0.64863,-0.45299 -7.81217,-4.33594 -15.91992,-8.62891 -19.41402,-10.2795 -24.72334,-13.3225 -26.67969,-15.29101 -1.86185,-1.87342 -9.57927,-15.14235 -33.29882,-57.2461 -9.22652,-16.37767 -21.39684,-37.96675 -27.04493,-47.97461 -5.65489,-10.01988 -11.4245,-19.49583 -12.83984,-21.08984 -2.7824,-3.13365 -5.94869,-4.78849 -47.55078,-24.86523 -29.27997,-14.13021 -51.21097,-25.06414 -52.77344,-26.3086 -1.39768,-1.11318 -1.46995,-1.45789 -1.37695,-6.65625 0.0802,-4.48597 2.89751,-41.48826 4.00781,-52.63867 l 0.29297,-2.92969 -12.58984,12.58008 -12.58985,12.57813 -0.30469,3.79297 c -0.41103,5.12055 -2.36271,8.81637 -5.91992,11.21484 -4.81004,3.24321 -11.72869,3.18245 -16.125,-0.14258 -4.47802,-3.38683 -6.2077,-11.23012 -3.69726,-16.76758 2.24959,-4.96206 5.18513,-7.05262 10.68945,-7.61523 l 3.36719,-0.3457 19.48242,-19.93946 c 15.48243,-15.84693 19.48047,-20.25514 19.48047,-21.47461 0,-0.84393 0.29871,-3.24965 0.66406,-5.34765 0.52004,-2.9863 1.10514,-4.30237 2.69531,-6.0625 l 2.03125,-2.25 35.7793,-0.1836 35.7793,-0.18359 15.92187,-3.65039 c 80.71986,-18.50587 82.75078,-18.99652 86.67969,-20.94727 5.52137,-2.74145 7.2494,-5.85362 8.07812,-14.53906 0.83674,-8.76955 0.25366,-25.9866 -1.02148,-30.13281 -1.40862,-4.5802 -2.96345,-6.598521 -4.91016,-6.373049 -2.21483,0.256524 -3.06901,3.287809 -5.65234,20.074219 -1.18475,7.69844 -2.4271,14.78229 -2.76172,15.74219 -1.06886,3.06613 -2.361,3.35419 -37.07226,8.25 -24.80139,3.49809 -49.25955,6.78185 -57.5586,7.72656 -6.92003,0.78774 -6.72539,0.80552 -64.20508,-6.23633 -37.30648,-4.57042 -45.60518,-5.75654 -47.55273,-6.79883 -1.79664,-0.96154 -2.27612,-3.07292 -2.24024,-9.86914 0.0511,-9.67709 0.11757,-9.78535 8.50196,-13.85547 6.38688,-3.10045 7.54093,-3.91783 12.0918,-8.55078 3.13031,-3.18679 5.78775,-6.554328 7.0332,-8.912106 l 2.00195,-3.789063 -0.35742,-19.796875 c -0.39346,-21.790663 -0.63697,-23.570418 -4.24805,-31 -4.13704,-8.511704 -10.01686,-14.180863 -19.8457,-19.134765 -5.48463,-2.764352 -8.72734,-3.833828 -13.92188,-4.052735 z m 4.375,11.267578 c 6.17288,0.07447 11.33654,3.134402 15.24414,9.058594 1.29724,1.966694 3.79196,5.139105 5.54493,7.050781 1.75298,1.911677 3.5943,4.40593 4.09179,5.541016 1.29836,2.962259 1.24241,13.084404 -0.0898,16.138672 -0.58471,1.340303 -0.99609,3.804441 -0.99609,5.964844 0,13.842654 -7.71167,24.48294 -19.65235,27.121089 -4.23313,0.93527 -14.80794,1.05372 -22.21484,0.24805 -4.15079,-0.4515 -8.60478,-2.727829 -12.92188,-6.603514 -1.87944,-1.687281 -4.81761,-4.242236 -6.52929,-5.675782 -5.59621,-4.686874 -7.339,-10.649208 -5.35157,-18.316406 1.00406,-3.873495 1.10359,-5.01331 0.5293,-6.074219 -1.01302,-1.8714 -0.81357,-10.299438 0.30664,-12.980468 0.50682,-1.213009 1.96423,-3.460147 3.24024,-4.994141 1.276,-1.533995 2.89874,-3.942956 3.60546,-5.353516 2.00796,-4.007619 5.53078,-7.415517 9.60547,-9.291015 3.2554,-1.498398 4.24997,-1.678182 8.54883,-1.541016 2.67556,0.08537 6.12358,0.193645 7.66406,0.240235 1.54047,0.04658 4.54106,-0.125499 6.66797,-0.382813 0.92235,-0.111585 1.8252,-0.161029 2.70703,-0.150391 z" /><path
     style="fill:#ffffff;stroke-width:4.28517;stroke-linecap:round;stroke-linejoin:round"
     d="m 205.32086,85.242028 c -0.77584,-0.628352 -1.99937,-1.665197 -2.71897,-2.304102 -2.14226,-1.902044 -3.88551,-3.163808 -6.60633,-4.781645 -1.04451,-0.621078 -1.31082,-1.115434 -1.32486,-2.459297 -0.0235,-2.247917 0.29886,-2.713428 2.66289,-3.845558 1.28044,-0.613202 1.86914,-0.996239 2.53009,-1.646192 1.42833,-1.404583 2.04963,-3.123513 1.79081,-4.954596 -0.29191,-2.065148 -1.48252,-3.455445 -4.28277,-5.001078 -1.21627,-0.671331 -2.04844,-1.555433 -2.04844,-2.17627 0,-0.719262 0.32551,-1.170462 1.87767,-2.602714 1.87141,-1.726838 2.74514,-3.004962 4.19719,-6.139791 0.64375,-1.389798 1.34792,-2.714447 1.56483,-2.943665 0.68248,-0.721237 2.49058,-1.760661 3.09361,-1.778425 l 0.54386,-0.01602 0.0956,2.432328 c 0.2165,5.508811 0.4573,19.967034 0.47508,28.52457 0.0176,8.471692 -0.0547,10.834914 -0.33148,10.834914 -0.0595,0 -0.74292,-0.514106 -1.51876,-1.142457 z"
     id="path3" /><path
     style="fill:#ffffff;stroke-width:2.14259;stroke-linecap:round;stroke-linejoin:round"
     d="m 222.41412,86.808299 c -0.37883,-0.912159 -0.52395,-4.989648 -0.59221,-16.639332 -0.0229,-3.911994 -0.077,-11.081208 -0.12026,-15.931587 -0.0896,-10.05832 -0.0949,-9.944518 0.45209,-9.717936 0.4747,0.196626 1.10331,1.225192 1.50876,2.468704 0.22443,0.688339 0.365,1.53791 0.47622,2.878184 0.15156,1.826521 0.57296,3.058331 1.2516,3.65866 1.31877,1.166583 3.3822,2.016387 5.31868,2.190447 0.42213,0.03794 0.90469,0.118563 1.07235,0.179155 0.92877,0.335661 1.89226,1.253426 2.45895,2.342261 0.36374,0.698882 0.51399,1.321274 0.51399,2.129095 0,1.745534 -0.84593,3.455073 -2.80838,5.675431 -2.74863,3.109863 -2.94693,4.31525 -1.3073,7.946782 0.81682,1.809153 1.08535,2.988149 0.99528,4.36992 -0.21481,3.295459 -2.48534,6.100193 -6.28564,7.764519 -0.94744,0.414925 -2.4117,0.925245 -2.65481,0.925245 -0.13335,0 -0.20556,-0.06193 -0.27932,-0.239548 z"
     id="path4" /><path
     style="fill:#ffffff;stroke-width:2.14259;stroke-linecap:round;stroke-linejoin:round"
     d="m 184.48837,241.95379 c 0,-1.82521 -0.15024,-15.1774 -0.22157,-19.69064 -0.16977,-10.74361 -0.37702,-13.81487 -1.03999,-15.41226 -0.40867,-0.98467 -1.9649,-3.46119 -4.88173,-7.76856 -7.5662,-11.17327 -19.12064,-27.08328 -21.86645,-30.10927 -0.58654,-0.64638 -0.7921,-0.80494 -1.43617,-1.10783 -0.88944,-0.41828 -1.34898,-0.51016 -2.50603,-0.50105 -1.12196,0.009 -0.37521,-0.0822 -21.41186,2.60963 -19.21388,2.45858 -24.17252,3.0694 -28.04547,3.4547 -5.790502,0.57606 -8.325792,0.54778 -10.414593,-0.11617 -0.73624,-0.23402 -2.540284,-1.10687 -3.405453,-1.64765 -4.300672,-2.6882 -20.523402,-14.10345 -28.362811,-19.95773 -8.892309,-6.64056 -15.577581,-13.18442 -17.44567,-17.07665 -0.412541,-0.85954 -1.144833,-3.05167 -1.393291,-4.17083 -0.572043,-2.57675 -0.738193,-4.2056 -0.740385,-7.2584 -0.0021,-2.91801 0.163695,-4.74749 0.667943,-7.37069 0.435251,-2.26426 1.289456,-5.14588 2.051369,-6.9202 1.261775,-2.93837 3.622021,-6.91808 6.146614,-10.364067 l 0.728987,-0.995043 4.721145,-0.01897 4.721145,-0.01897 0.05495,0.498061 c 0.03022,0.273934 0.01356,3.748529 -0.03702,7.721339 -0.166234,13.0566 -0.176334,15.02262 -0.08719,16.97114 0.223782,4.8912 0.763072,6.26233 3.07095,7.80781 1.51853,1.01689 5.496386,3.3944 11.383,6.80347 7.964132,4.61221 11.023675,6.5391 12.139238,7.64526 0.420928,0.41738 0.518898,0.47521 1.108131,0.65413 0.838477,0.2546 1.912264,0.72804 2.806979,1.23763 0.393737,0.22425 1.155328,0.56131 1.697991,0.75147 l 0.98402,0.34484 1.079773,-0.11796 c 0.593875,-0.0649 1.361702,-0.1383 1.706282,-0.16318 1.352765,-0.0977 4.271376,-0.40345 4.874496,-0.51071 0.34999,-0.0622 1.0631,-0.1435 1.5847,-0.18058 0.96344,-0.0685 2.48896,-0.27752 3.49124,-0.47841 0.56157,-0.11255 1.95877,-0.27888 3.42737,-0.40801 0.44593,-0.0392 1.27513,-0.17404 1.84267,-0.29962 1.70239,-0.37669 2.0763,-0.43116 3.53793,-0.51546 0.96688,-0.0558 2.31319,-0.21562 4.34871,-0.51632 1.62155,-0.23956 6.91187,-1.01559 11.75625,-1.72453 11.13355,-1.62931 16.62579,-2.44317 27.64008,-4.09578 10.58031,-1.5875 16.95601,-2.50627 17.39187,-2.50627 0.32005,0 0.3256,0.005 1.91789,1.60312 2.45726,2.46685 4.26224,4.48317 12.09101,13.50679 2.4092,2.77691 5.94837,6.848 7.8648,9.04688 l 3.48444,3.99795 v 39.10216 39.10215 h -8.51315 -8.51314 z"
     id="path37" /><ellipse
     style="fill:#ffffff;stroke:#000000;stroke-width:9.282;stroke-linecap:round;stroke-linejoin:round;stroke-dasharray:none"
     id="path38"
     cx="297.85077"
     cy="324.60516"
     rx="10.33933"
     ry="10.264407" /><ellipse
     style="fill:#ffffff;stroke:#000000;stroke-width:9.282;stroke-linecap:round;stroke-linejoin:round;stroke-dasharray:none"
     id="path38-4"
     cx="223.31308"
     cy="178.50366"
     rx="10.33933"
     ry="10.264407" /><ellipse
     style="fill:#ffffff;stroke:#000000;stroke-width:6.94519;stroke-linecap:round;stroke-linejoin:round;stroke-dasharray:none"
     id="path38-4-4"
     cx="287.73096"
     cy="161.36641"
     rx="7.7363296"
     ry="7.6802692" /><ellipse
     style="fill:#ffffff;stroke:#000000;stroke-width:6.94519;stroke-linecap:round;stroke-linejoin:round;stroke-dasharray:none"
     id="path38-4-4-2"
     cx="428.7886"
     cy="467.8512"
     rx="7.7363296"
     ry="7.6802692" /><ellipse
     style="fill:#ffffff;stroke:#000000;stroke-width:9.282;stroke-linecap:round;stroke-linejoin:round;stroke-dasharray:none"
     id="path38-4-7"
     cx="221.94412"
     cy="245.3485"
     rx="10.33933"
     ry="10.264407" /><ellipse
     style="fill:#ffffff;stroke:#000000;stroke-width:9.282;stroke-linecap:round;stroke-linejoin:round;stroke-dasharray:none"
     id="path38-4-7-2"
     cx="92.749306"
     cy="352.40024"
     rx="10.33933"
     ry="10.264407" /><path
     style="fill:#ffffff;stroke:#000000;stroke-width:9.282;stroke-linecap:round;stroke-linejoin:round;stroke-dasharray:none"
     d="m 95.229312,362.34311 c 3.243103,4.52069 6.486208,9.04138 8.206038,11.40001 1.71983,2.35862 1.91638,2.55517 2.11293,2.75172 0,0 -2.94828,26.23965 -2.94828,26.23965 0,0 29.18793,37.4431 29.18793,37.4431 m 158.32242,-122.9431 c -11.59655,-5.20862 -23.19311,-10.41724 -34.78966,-15.62586 0,0 0,-16.21552 0,-16.21552 0,0 -24.17586,-11.49828 -24.17586,-11.49828 0,0 -3.83276,-17.39482 -3.83276,-17.39482"
     id="path39"
     inkscape:path-effect="#path-effect39"
     inkscape:original-d="m 95.229312,362.34311 c 3.243104,4.52069 6.486208,9.04138 9.729308,13.56207 0.19656,0.19656 0.58966,0.58966 0.58966,0.58966 0,0 -2.94828,26.23965 -2.94828,26.23965 0,0 29.18793,37.4431 29.18793,37.4431 m 158.32242,-122.9431 c -11.59655,-5.20862 -34.78966,-15.62586 -34.78966,-15.62586 0,0 0,-16.21552 0,-16.21552 0,0 -24.17586,-11.49828 -24.17586,-11.49828 0,0 -3.83276,-17.39482 -3.83276,-17.39482" /><path
     style="fill:#ffffff;stroke:#000000;stroke-width:9.282;stroke-linecap:round;stroke-linejoin:round;stroke-dasharray:none"
     d="m 306.32587,331.68104 c 13.07069,0.88448 26.14138,1.76897 39.21207,2.65345 0,0 8.25517,39.21207 8.25517,39.21207 0,0 68.69483,84.91035 68.69483,84.91035"
     id="path40"
     inkscape:path-effect="#path-effect40"
     inkscape:original-d="m 306.32587,331.68104 c 13.07069,0.88448 39.21207,2.65345 39.21207,2.65345 0,0 8.25517,39.21207 8.25517,39.21207 0,0 68.69483,84.91035 68.69483,84.91035" /><path
     style="fill:#ffffff;stroke:#000000;stroke-width:9.282;stroke-linecap:round;stroke-linejoin:round;stroke-dasharray:none"
     d="m 296.45087,160.52543 c 12.09152,-4.72542 24.18305,-9.45085 30.3678,-11.81356 6.18475,-2.36271 6.4627,-2.36271 6.74067,-2.36271 0,0 35.85763,13.75932 35.85763,13.75932 0,0 32.52204,-20.01356 32.52204,-20.01356"
     id="path41"
     inkscape:path-effect="#path-effect41"
     inkscape:original-d="m 296.45087,160.52543 c 12.09152,-4.72542 24.18305,-9.45084 36.27457,-14.17627 0.27798,0 0.8339,0 0.8339,0 0,0 35.85763,13.75932 35.85763,13.75932 0,0 32.52204,-20.01356 32.52204,-20.01356" /><path
     style="fill:#ffffff;stroke:#000000;stroke-width:9.282;stroke-linecap:round;stroke-linejoin:round;stroke-dasharray:none"
     d="m 150.9356,134.25764 c -11.53559,9.86779 -23.07119,19.73559 -34.60678,29.60339 0,0 -50.867799,-2.91865 -50.867799,-2.91865"
     id="path42"
     inkscape:path-effect="#path-effect42"
     inkscape:original-d="m 150.9356,134.25764 c -11.53559,9.86779 -34.60678,29.60339 -34.60678,29.60339 0,0 -50.867799,-2.91865 -50.867799,-2.91865" /><path
     style="fill:#ffffff;stroke:#000000;stroke-width:9.282;stroke-linecap:round;stroke-linejoin:round;stroke-dasharray:none"
     d="M 99.650854,341.48138 C 111.32543,341.3424 123,341.20341 134.67458,341.06443 c 0,0 7.92204,-20.01356 7.92204,-20.01356 0,0 21.68136,7.08813 21.68136,7.08813 0,0 15.84407,-40.44407 15.84407,-40.44407"
     id="path43"
     inkscape:path-effect="#path-effect43"
     inkscape:original-d="m 99.650854,341.48138 c 11.674576,-0.13899 35.023726,-0.41695 35.023726,-0.41695 0,0 7.92204,-20.01356 7.92204,-20.01356 0,0 21.68136,7.08813 21.68136,7.08813 0,0 15.84407,-40.44407 15.84407,-40.44407" /><ellipse
     style="fill:#ffffff;stroke:#000000;stroke-width:6.94519;stroke-linecap:round;stroke-linejoin:round;stroke-dasharray:none"
     id="path38-4-4-2-5"
     cx="117.90202"
     cy="159.99078"
     rx="7.7363296"
     ry="7.6802692" /></svg>
