<?xml version="1.0" encoding="UTF-8" standalone="no"?>
<!-- Created with Inkscape (http://www.inkscape.org/) -->

<svg
   width="487.34164"
   height="498.18256"
   viewBox="0 0 487.34165 498.18256"
   version="1.1"
   id="svg1"
   xml:space="preserve"
   sodipodi:docname="Template.svg"
   inkscape:version="1.4 (86a8ad7, 2024-10-11)"
   inkscape:export-filename="cyber_arm.svg"
   inkscape:export-xdpi="96"
   inkscape:export-ydpi="96"
   xmlns:inkscape="http://www.inkscape.org/namespaces/inkscape"
   xmlns:sodipodi="http://sodipodi.sourceforge.net/DTD/sodipodi-0.dtd"
   xmlns="http://www.w3.org/2000/svg"
   xmlns:svg="http://www.w3.org/2000/svg"><sodipodi:namedview
     id="namedview1"
     pagecolor="#ffffff"
     bordercolor="#000000"
     borderopacity="0.25"
     inkscape:showpageshadow="2"
     inkscape:pageopacity="0.0"
     inkscape:pagecheckerboard="true"
     inkscape:deskcolor="#d1d1d1"
     inkscape:zoom="1.6959064"
     inkscape:cx="201.36725"
     inkscape:cy="246.77069"
     inkscape:window-width="2560"
     inkscape:window-height="1494"
     inkscape:window-x="585"
     inkscape:window-y="2149"
     inkscape:window-maximized="1"
     inkscape:current-layer="svg1"><inkscape:page
       x="0"
       y="0"
       width="487.34164"
       height="498.18256"
       id="page2"
       margin="0"
       bleed="0" /></sodipodi:namedview><defs
     id="defs1" /><path
     style="fill:#000000;stroke-width:0.670187"
     d="M 68.08774,497.36378 C 59.99654,496.09372 50.434963,492.77345 43.544818,488.84122 22.84109,477.02556 8.7969998,460.59926 3.2913838,441.75985 -0.23911917,429.67899 -0.09631817,436.60671 0.06577683,285.2712 0.23006783,131.88836 -0.06612317,143.78218 3.8875878,131.79839 11.243386,109.50277 28.264091,91.038357 49.8543,81.932766 57.431889,78.736945 63.790857,77.45119 75.230553,76.801819 80.759596,76.487951 135.92184,76.210211 197.81333,76.184598 l 112.52999,-0.04655 19.1323,-19.585545 c 36.59469,-37.46161 41.60846,-42.324235 47.67415,-46.236933 6.56267,-4.2332828 13.07814,-7.1840193 19.77052,-8.9537088 7.27874,-1.92474256 24.31116,-1.78346066 31.36419,0.2601584 8.55543,2.4789327 17.76609,7.6870686 23.59114,13.3395374 4.13683,4.01427 25.06937,26.690917 26.93296,29.177025 2.5388,3.386894 5.27959,9.103251 7.01601,14.633081 1.38961,4.425334 1.5637,6.240485 1.50828,15.725774 -0.0511,8.751253 -0.32907,11.708863 -1.51152,16.084489 -1.78884,6.619591 -6.36405,16.208734 -10.07253,21.110894 -3.26243,4.31254 -43.73263,45.04223 -48.43546,48.74603 l -3.20388,2.52326 0.0965,131.35664 c 0.075,102.07638 -0.0888,132.32767 -0.7347,135.71287 -3.25722,17.07139 -10.57517,31.12804 -22.7567,43.71214 -10.74647,11.1016 -23.34188,18.44798 -38.55574,22.48797 l -6.79012,1.80309 -140.73926,0.11987 c -115.768809,0.0986 -141.768739,-0.0417 -146.54169,-0.79091 z m 289.6515,-19.57901 c 19.40952,-5.64332 31.80077,-15.52439 40.43669,-32.24514 3.24406,-6.28108 6.03365,-14.89133 6.76364,-20.87635 0.24681,-2.02358 0.51068,-63.46682 0.58636,-136.54055 l 0.13762,-132.86132 27.20354,-27.31336 c 22.09951,-22.18872 27.72616,-28.205153 29.98901,-32.066473 5.60854,-9.570387 7.61322,-19.11843 5.82696,-27.753062 -1.91902,-9.27626 -5.9838,-15.934452 -17.14254,-28.079726 -10.30406,-11.215052 -19.44551,-17.389888 -29.47093,-19.906939 -5.90949,-1.483676 -18.04406,-0.997281 -24.15426,0.968196 -9.82484,3.160356 -15.70632,7.828905 -33.48552,26.579879 -7.68901,8.109262 -21.18122,21.906735 -29.98274,30.661051 l -16.00273,15.916943 -51.90745,0.0024 c -67.92249,0.0024 -185.873615,0.611748 -192.464715,0.993868 -15.568275,0.90257 -32.037053,9.978323 -41.972997,23.130823 -6.857924,9.07804 -11.274068,19.08783 -12.861837,29.15314 -0.524031,3.32198 -0.717552,44.4726 -0.663009,140.98272 0.06355,112.40843 0.237982,137.12954 0.995509,141.07434 2.722232,14.17591 10.986174,27.22191 22.93096,36.20036 9.429992,7.08815 19.783845,11.52442 30.719191,13.1621 1.843014,0.276 65.477268,0.4533 141.409438,0.39399 l 138.05852,-0.10781 z M 89.639571,461.80845 c -0.92151,-0.14867 -3.786556,-0.60715 -6.366775,-1.01885 -13.971628,-2.22929 -28.261435,-11.79183 -36.788478,-24.61832 -3.753724,-5.64641 -5.924821,-10.43313 -8.214214,-18.1102 l -1.72648,-5.78946 0.127101,-124.91652 c 0.123169,-121.04833 0.16722,-125.07444 1.422772,-130.01627 2.63675,-10.37825 8.776862,-20.9261 16.452051,-28.2623 7.337441,-7.01337 14.565092,-11.38232 22.695565,-13.71892 5.632908,-1.61883 46.912937,-2.17418 166.876547,-2.24499 102.82284,-0.0608 99.11879,-0.18026 108.21153,3.49247 2.24586,0.90713 5.8088,2.66104 7.91766,3.89756 5.45175,3.19661 16.09772,13.96792 19.44417,19.67308 3.2523,5.54465 6.55249,15.03362 7.48052,21.50864 0.92524,6.45554 0.20266,249.24756 -0.75674,254.27329 -4.22592,22.13678 -21.72923,39.81656 -44.11474,44.55953 -3.57655,0.75778 -26.42717,0.98012 -127.67063,1.24228 -67.82291,0.17563 -124.068349,0.19767 -124.989859,0.049 z M 339.28421,441.85497 c 7.78375,-2.3371 12.43267,-5.09997 18.15463,-10.78937 3.81986,-3.79813 6.04254,-6.67692 7.52511,-9.74645 4.42569,-9.16298 4.14457,-0.0494 4.13367,-134.01065 -0.0109,-134.91016 0.29666,-125.60718 -4.47358,-135.2757 -2.89579,-5.86931 -8.94166,-12.35373 -14.3963,-15.44059 -2.09031,-1.18294 -6.17379,-2.75094 -9.07439,-3.48443 -5.18444,-1.31104 -7.37988,-1.33052 -129.56662,-1.14939 -124.107339,0.18397 -124.299529,0.18634 -128.791664,1.59068 -12.352121,3.86157 -22.185418,14.40514 -26.494037,28.40773 -1.044017,3.39295 -1.15116,13.22434 -1.347585,123.6495 -0.156582,88.02787 -0.0087,121.18895 0.555685,124.5669 0.488594,2.92456 1.861089,6.78484 3.763321,10.58473 6.530443,13.04519 17.404929,20.29146 33.382961,22.24491 1.10581,0.13519 56.144909,0.20388 122.309109,0.15264 113.79108,-0.0882 120.51609,-0.15848 124.31969,-1.30051 z M 100.43784,426.96779 c -6.360509,-1.7212 -11.455899,-4.91375 -17.530557,-10.98394 -4.091484,-4.08846 -6.332047,-6.97345 -7.845604,-10.10214 -4.461722,-9.22287 -4.187342,-1.42823 -4.187342,-118.95421 0,-95.67775 0.109905,-107.00633 1.069854,-110.27249 4.295,-14.61353 17.45495,-26.90852 30.764029,-28.74198 6.96375,-0.95934 217.00803,-0.92405 221.61714,0.0373 12.28052,2.56123 23.33751,13.32611 27.98454,27.24524 1.39883,4.18989 1.3992,4.22415 1.22374,112.5914 l -0.1755,108.40021 -1.53505,4.24803 c -4.1938,11.60585 -14.10155,21.52182 -25.68354,25.70488 l -4.28021,1.54587 -108.90537,0.12948 c -93.59664,0.1113 -109.41294,-0.007 -112.51613,-0.84761 z M 321.7843,407.65331 c 7.32181,-3.59507 11.86224,-9.90991 13.14801,-18.28619 0.47224,-3.07655 0.64123,-37.69131 0.51637,-105.77139 l -0.1856,-101.19823 -1.94971,-4.2225 c -1.25943,-2.72754 -3.0997,-5.25643 -5.19784,-7.14284 -6.08321,-5.46933 3.43081,-5.05424 -115.84409,-5.05424 h -106.3333 l -4.08629,2.04196 c -2.247459,1.12306 -5.010449,3.09449 -6.139979,4.38095 -2.37977,2.71041 -5.0568,7.76884 -5.64513,10.66686 -0.22449,1.10581 -0.48783,48.60531 -0.58521,105.55445 l -0.17705,103.54387 1.77463,3.7852 c 3.22283,6.87412 10.320789,12.22912 17.654069,13.31897 1.84671,0.27444 49.65082,0.45888 106.23134,0.40984 l 102.87371,-0.0891 z M 179.44462,395.17115 c -37.07024,-0.23471 -55.26824,-0.58164 -56.63697,-1.07977 -7.77066,-2.828 -12.2275,-6.68904 -15.72974,-13.62692 -3.26173,-6.46146 -4.01359,-10.99533 -4.02469,-24.26957 -0.01,-11.67175 0.0146,-11.8735 1.67022,-13.84111 3.23683,-3.84676 12.87358,-3.42499 15.17831,0.66431 0.6082,1.07914 0.98888,5.66085 1.22677,14.76524 l 0.34494,13.20059 2.31592,2.3878 c 1.27376,1.3133 3.38485,2.68477 4.6913,3.04772 1.49927,0.4165 32.74221,0.66127 84.70709,0.66363 92.42243,0.004 85.58921,0.38654 88.42013,-4.94734 1.31053,-2.46923 1.49887,-4.0813 1.80958,-15.48962 0.19076,-7.00345 0.59214,-13.11267 0.89196,-13.57605 1.2691,-1.96135 4.65899,-2.98837 8.95993,-2.7145 3.54913,0.22599 4.57691,0.5794 6.09444,2.09562 l 1.82535,1.82379 0.22251,13.22253 c 0.24434,14.51972 -0.2868,18.58809 -3.11217,23.83868 -2.54978,4.73845 -6.36341,8.20503 -12.12539,11.02193 l -5.09056,2.48865 -15.41429,0.1719 c -40.58832,0.45263 -55.44705,0.47396 -106.22464,0.15249 z m 61.32211,-70.16182 c -5.48478,-0.34743 -6.38015,-0.73561 -7.41623,-3.21526 -0.79391,-1.90011 -0.96112,-8.51575 -0.96112,-38.0277 0,-31.25141 0.13071,-35.914 1.04329,-37.21689 0.94352,-1.34707 1.60647,-1.48949 6.9331,-1.48949 9.25983,0 8.40874,-3.92852 8.63223,39.84521 0.17719,34.70856 0.11432,37.11124 -1.00529,38.40765 -1.4312,1.65721 -2.79415,1.97721 -7.22598,1.69648 z m -119.96269,-0.87166 c -1.10537,-0.3515 -2.38711,-1.15513 -2.84829,-1.78583 -0.64688,-0.88465 -0.83852,-9.47205 -0.83852,-37.57429 v -36.42756 l 1.64502,-1.645 c 1.86994,-1.86995 1.58374,-1.84515 19.05742,-1.65166 12.42909,0.13764 16.52967,0.81307 22.03325,3.62919 8.62698,4.41435 13.3124,14.57073 11.60703,25.16008 -1.00174,6.22029 -3.48392,10.77789 -8.18859,15.03539 l -4.03173,3.6485 6.04244,12.07607 c 6.70007,13.39039 7.51784,15.98394 5.8449,18.53716 -1.02345,1.56198 -1.46532,1.6725 -6.68662,1.6725 -4.59093,0 -5.89797,-0.24164 -7.30856,-1.35121 -1.01936,-0.80183 -4.6666,-7.20291 -8.97036,-15.74341 l -7.25256,-14.3922 -3.85358,-0.006 -3.85357,-0.006 v 13.99968 c 0,16.73716 -0.0123,16.77032 -6.37953,17.19582 -2.20461,0.14731 -4.91277,-0.0198 -6.01815,-0.37126 z m 27.16193,-43.72533 c 3.93183,-1.9863 6.01228,-5.15304 6.00904,-9.14663 -0.006,-7.04093 -4.76581,-10.30309 -14.56253,-9.97995 l -5.87567,0.19381 -0.185,10.22035 -0.185,10.22035 h 5.90713 c 4.79471,0 6.46924,-0.28398 8.89203,-1.50793 z m 34.73628,43.11872 -1.58217,-1.28114 v -37.31381 -37.3138 l 1.58217,-1.28116 c 1.46327,-1.18489 2.83821,-1.28116 18.29588,-1.28116 21.48293,0 21.33845,-0.0591 21.33845,8.71937 0,4.88308 -0.75816,6.37881 -3.56534,7.03383 -0.80358,0.18752 -5.83403,0.41415 -11.17877,0.50365 l -9.71771,0.16273 -0.18758,8.54487 -0.18756,8.54489 h 9.70036 c 9.22074,0 9.79106,0.078 11.53468,1.57782 3.41831,2.9403 3.21004,11.89418 -0.32059,13.78371 -0.78896,0.42223 -5.41141,0.72296 -11.11263,0.72296 h -9.76177 v 13.73883 c 0,16.80588 0.18746,16.41957 -7.96801,16.41957 -4.20722,0 -5.61042,-0.26169 -6.86941,-1.28116 z m 80.18064,0.38667 c -1.31244,-0.98701 -1.34037,-1.7908 -1.34037,-38.56857 0,-35.14324 0.0769,-37.63758 1.195,-38.75732 1.70783,-1.71035 21.27785,-2.1024 28.63653,-0.57369 13.65623,2.83697 22.68824,11.66573 26.64673,26.04708 1.62616,5.90786 1.57539,20.75488 -0.0897,26.2346 -4.15117,13.66119 -11.64604,21.55196 -23.66397,24.91393 -5.70805,1.59681 -29.48775,2.1302 -31.38422,0.70397 z m 26.92758,-16.1935 c 2.46211,-0.73118 4.1926,-1.87309 6.37621,-4.20755 4.58262,-4.89919 5.56826,-8.19253 5.56085,-18.58057 -0.006,-8.19334 -0.12226,-8.96453 -1.95358,-12.94351 -3.35994,-7.30028 -9.22467,-10.84812 -17.93236,-10.84812 h -3.89949 v 23.34484 c 0,12.83966 0.20106,23.5459 0.44679,23.79163 0.81294,0.81294 7.96546,0.46369 11.40158,-0.55672 z m 16.45718,-75.68082 -2.50335,-2.29358 -0.3388,-12.61807 c -0.36228,-13.49157 -0.54973,-14.2887 -4.05372,-17.23711 l -2.07709,-1.74775 h -84.12331 c -93.26183,0 -86.75476,-0.32223 -90.00834,4.45711 -1.58204,2.32394 -1.67185,2.98761 -1.88132,13.90331 -0.12097,6.30459 -0.54679,12.30648 -0.94625,13.33751 -1.10277,2.84639 -3.98785,4.01447 -9.10991,3.68832 -3.72517,-0.23721 -4.56682,-0.53816 -5.92689,-2.11933 -1.54478,-1.79592 -1.58517,-2.16278 -1.58517,-14.39825 0,-16.31728 1.29199,-21.51397 7.14276,-28.72967 3.02515,-3.73091 10.32726,-7.33344 16.62182,-8.20047 2.75133,-0.37898 38.34568,-0.65956 86.78921,-0.68415 89.28939,-0.0453 85.5699,-0.19146 93.1719,3.66076 4.5602,2.31084 7.86141,5.8117 10.20719,10.82452 3.38084,7.22468 3.86126,10.18075 3.86993,23.81188 0.008,12.49093 0.005,12.51849 -1.72709,14.57657 -1.6299,1.93702 -2.01633,2.06199 -6.37663,2.06199 -4.35013,0 -4.79876,-0.14402 -7.14494,-2.29359 z m 95.93004,-121.35007 c -8.57286,-1.8646 -15.56589,-6.62604 -21.44175,-14.599323 -5.16933,-7.014553 -7.58028,-16.825625 -6.2363,-25.377967 2.19353,-13.958471 14.65435,-26.483853 28.64616,-28.794553 12.64782,-2.088743 28.15768,5.707518 34.48299,17.333392 2.42511,4.457325 4.50911,12.725511 4.50911,17.889656 0,15.548194 -11.54161,29.902055 -26.96814,33.539225 -5.03669,1.18752 -7.56764,1.18938 -12.99207,0.01 z m 14.07536,-20.91375 c 4.59183,-3.227258 6.70216,-6.892797 6.99968,-12.158128 0.3128,-5.535872 -1.38927,-9.723971 -5.31889,-13.087579 -7.54318,-6.456689 -18.13534,-4.36815 -23.09676,4.554146 -4.48977,8.074086 -0.34175,18.924923 8.52185,22.292402 3.68152,1.398686 9.68721,0.653073 12.89412,-1.600841 z"
     id="path1" /><path
     style="fill:#ffffff;stroke-width:15.0786;stroke-linecap:round;stroke-linejoin:round"
     d="M 84.747598,478.40497 C 66.327109,477.82913 62.388346,476.96857 52.127742,471.27804 39.495365,464.27212 30.902988,455.54792 25.071574,443.80677 18.965789,431.51319 19.315778,441.04201 19.313382,287.03387 19.310982,133.01464 18.909611,143.85482 25.08727,131.09488 31.669514,117.49927 41.262457,107.63624 53.893359,101.47776 66.95805,95.107777 57.129838,95.554627 195.1217,95.056567 l 123.71648,-0.44653 11.41791,-11.360971 c 6.27985,-6.248534 20.59838,-20.742327 31.81896,-32.20843 27.91849,-28.529413 31.57088,-30.782358 49.97765,-30.82825 10.28251,-0.02564 10.50846,0.01475 16.67797,2.981007 8.5685,4.119675 15.52843,9.585239 23.4341,18.402555 14.82567,16.5353 18.97343,27.890878 15.31616,41.932072 -2.78267,10.683416 -4.78259,13.193567 -34.24383,42.98042 l -27.63021,27.9356 -0.505,135.50848 c -0.49874,133.83073 -0.52644,135.58592 -2.23713,141.76272 -6.37922,23.03343 -20.76665,37.68119 -44.57537,45.38194 l -6.64805,2.15027 -125.10789,-0.16055 C 157.72411,478.9986 93.920481,478.69172 84.747598,478.40497 Z M 267.78829,461.78839 c 75.3272,-0.59483 75.4779,-0.59943 80.88814,-2.47069 13.62709,-4.71323 26.02545,-15.18609 32.31865,-27.29946 6.85412,-13.19305 6.34494,-1.63298 6.40454,-145.40131 l 0.0531,-128.0034 -1.9537,-5.83729 c -3.65413,-10.91785 -5.95462,-14.58773 -14.75068,-23.53129 -7.06867,-7.18718 -9.38486,-8.9851 -14.79584,-11.48513 -3.52837,-1.63021 -8.39138,-3.40165 -10.80666,-3.93652 -5.26937,-1.16693 -229.43403,-1.06509 -253.199919,0.11502 -16.66365,0.82745 -19.842203,1.6984 -29.408868,8.05831 -10.018156,6.66006 -18.230161,17.10205 -22.98036,29.22072 l -2.245375,5.72838 -0.584303,30.85424 c -0.321367,16.96983 -0.624387,74.44371 -0.673377,127.71972 l -0.08907,96.86549 2.538617,7.78876 c 7.210442,22.12244 23.784576,37.14561 45.410539,41.16114 6.810457,1.26458 63.453866,1.40422 183.874586,0.45331 z M 414.91985,111.06213 c 8.80759,-1.42738 19.16572,-9.52821 23.72052,-18.551201 4.62028,-9.152729 4.91015,-18.969018 0.87834,-29.744974 -6.49401,-17.356805 -28.89474,-26.409633 -45.36614,-18.333864 -10.86229,5.325673 -19.1189,16.774739 -20.16336,27.959614 -1.7056,18.264867 11.90881,36.092645 29.76009,38.970195 2.50297,0.40348 5.30137,0.62083 6.21866,0.48302 0.91728,-0.13781 3.14564,-0.49006 4.95189,-0.78279 z"
     id="path2" /><path
     style="fill:#ffffff;stroke-width:15.0786;stroke-linecap:round;stroke-linejoin:round"
     d="m 402.46287,90.511565 c -11.07979,-6.128013 -11.58477,-20.809176 -0.94578,-27.496382 3.89184,-2.446241 11.01253,-1.823193 15.13962,1.32469 8.89099,6.781489 7.72438,20.643206 -2.1616,25.684216 -3.20507,1.63431 -9.49775,1.889253 -12.03224,0.487476 z"
     id="path3" /><path
     style="fill:#ffffff;stroke-width:15.0786;stroke-linecap:round;stroke-linejoin:round"
     d="m 86.225393,441.35772 c -11.821311,-2.86445 -21.396189,-10.6309 -26.795512,-21.73457 -2.261253,-4.65026 -2.939934,-7.30024 -3.514319,-13.72203 -0.814226,-9.10326 -0.854737,-173.9452 -0.0531,-216.06275 l 0.53259,-27.98194 3.26906,-6.62484 c 4.022893,-8.1525 11.253522,-15.69726 18.35799,-19.15554 4.141878,-2.01617 6.454058,-2.50735 14.176279,-3.01152 14.727149,-0.9615 241.362239,-0.85166 246.565919,0.1195 10.76591,2.00924 20.47696,9.55106 25.75093,19.99874 2.33505,4.6257 2.74471,6.48104 3.38985,15.35293 0.92459,12.71485 0.93969,226.30052 0.0168,238.25966 -0.59173,7.66812 -1.04926,9.53988 -3.41853,13.98508 -3.34121,6.26875 -12.18481,14.84957 -18.47718,17.92814 -2.48777,1.21715 -6.75555,2.57855 -9.48395,3.02534 -7.99493,1.30919 -244.830309,0.95326 -250.316859,-0.3762 z M 326.76298,426.38585 c 10.10529,-3.96023 18.86843,-12.07279 23.74817,-21.98506 l 2.75172,-5.58963 V 287.03372 175.25627 l -2.78877,-5.66471 c -3.61869,-7.35051 -11.13064,-15.34894 -17.82415,-18.97846 l -5.23793,-2.84025 -59.84367,-0.71685 c -33.77692,-0.40461 -83.53947,-0.39942 -114.24408,0.0119 -54.032399,0.72382 -54.428349,0.74155 -58.531889,2.62164 -9.821093,4.49964 -18.718894,14.11906 -22.305775,24.11479 -1.700893,4.73996 -1.736978,6.34036 -2.101782,93.21598 -0.204147,48.61628 -0.02439,98.39839 0.39947,110.62692 0.761707,21.97583 0.798019,22.29015 3.130938,27.1017 3.001925,6.19134 13.338269,16.70632 19.588299,19.92683 3.5132,1.81028 6.24509,2.48924 11.674579,2.90148 3.89847,0.296 54.2052,0.59763 111.79274,0.67029 l 104.70459,0.13212 z"
     id="path4" /><path
     style="fill:#ffffff;stroke-width:15.0786;stroke-linecap:round;stroke-linejoin:round"
     d="m 105.76407,407.99724 c -6.665259,-2.37756 -12.688579,-8.03555 -15.142839,-14.22438 -0.36376,-0.91728 -0.58704,-48.57458 -0.49619,-105.90509 0.16079,-101.45767 0.20871,-104.33613 1.79686,-107.94392 2.45862,-5.5852 5.10465,-8.60188 9.774269,-11.14341 l 4.22371,-2.29883 107.41047,0.23545 c 102.95805,0.22569 107.54045,0.30005 110.54591,1.79373 3.30583,1.64297 6.89995,5.67359 9.38179,10.52121 1.39387,2.72254 1.51114,8.55804 1.85178,92.14577 0.20003,49.08154 0.0287,96.58767 -0.38065,105.56917 -0.72794,15.97003 -0.7998,16.42962 -3.2596,20.84746 -1.84938,3.32154 -3.89841,5.45568 -7.74001,8.06152 l -5.22474,3.54406 -104.7871,-0.0366 c -85.95768,-0.03 -105.35609,-0.23957 -107.95366,-1.16614 z m 200.25029,-14.94461 c 6.25476,-3.23433 11.29059,-8.16579 13.54747,-13.2667 1.73651,-3.92479 1.96218,-5.90109 2.26633,-19.84698 l 0.33778,-15.48815 -2.75563,-2.31872 c -2.50699,-2.10949 -3.2306,-2.28846 -8.01957,-1.98352 -3.09943,0.19735 -5.75349,0.83299 -6.45451,1.54584 -0.85868,0.87317 -1.39927,4.93011 -1.9392,14.55304 -0.80331,14.31677 -1.81946,17.96175 -5.36348,19.23892 -2.30868,0.83199 -155.29387,1.53682 -163.95266,0.75537 -5.09507,-0.45983 -6.55577,-0.94755 -8.83725,-2.95072 l -2.73325,-2.39983 -0.57948,-12.98943 c -0.31871,-7.14418 -0.92187,-13.88999 -1.34035,-14.99067 -1.63013,-4.28759 -11.53279,-4.81234 -15.52257,-0.82255 -1.90077,1.90077 -1.99158,2.49962 -1.99158,13.13396 0,6.1283 0.40883,13.35391 0.9085,16.05691 1.73922,9.40828 7.56923,17.85044 14.78011,21.40237 3.70459,1.82479 5.10166,1.95077 26.84021,2.42018 12.61271,0.27236 52.95254,0.44079 89.64407,0.3743 l 66.71187,-0.12088 z m -57.82268,-68.99569 c 1.35777,-1.35783 1.11473,-74.89018 -0.25546,-77.29163 -1.01587,-1.78044 -1.54946,-1.89295 -7.91007,-1.66779 l -6.8207,0.24144 -0.58935,3.33559 c -0.82925,4.69351 -0.76042,66.78234 0.0788,71.12289 0.38041,1.96742 0.9228,3.80827 1.20532,4.09079 1.82528,1.82529 12.50881,1.9514 14.29141,0.16871 z M 131.495,323.79428 c 1.47352,-1.07595 1.64233,-2.45966 1.88209,-15.42712 l 0.26338,-14.24515 3.48916,0.0158 3.48916,0.0158 6.25423,12.18416 c 3.43984,6.70129 7.28855,13.63638 8.55269,15.41132 l 2.29845,3.22716 h 6.08223 c 3.61876,0 6.48753,-0.4053 7.08291,-1.00068 2.21491,-2.21491 1.02056,-6.83638 -4.93855,-19.10942 l -5.93922,-12.2321 3.28069,-2.96391 c 5.27441,-4.7651 7.99485,-10.61802 8.43012,-18.13704 0.6578,-11.36314 -3.64325,-19.2614 -12.98774,-23.8501 -4.68071,-2.29851 -5.10265,-2.34955 -21.71986,-2.62748 -15.19534,-0.25415 -17.11256,-0.13309 -18.55424,1.17161 -1.54158,1.39512 -1.60782,2.97195 -1.60782,38.27491 0,38.01737 0.0591,38.72452 3.3356,39.8955 2.5955,0.92761 9.73162,0.54687 11.30672,-0.60326 z m 65.38259,-0.43101 c 0.49229,-0.91986 0.86323,-7.36984 0.86323,-15.01017 v -13.39719 h 9.64466 c 5.30456,0 10.35775,-0.38163 11.2293,-0.84808 2.17976,-1.16657 3.49697,-6.42991 2.48884,-9.94502 -1.5704,-5.47567 -2.50807,-5.88487 -13.48526,-5.88487 h -9.87754 l 0.007,-3.96102 c 0.004,-2.17855 0.24388,-5.9311 0.5331,-8.33898 l 0.52586,-4.37797 h 10.30758 c 12.67759,0 13.64317,-0.5789 13.64317,-8.1796 0,-8.24236 0.49109,-8.04101 -20.33135,-8.3356 -11.84769,-0.16761 -18.54524,0.0554 -19.66519,0.65476 -1.67072,0.89415 -1.69838,1.53254 -1.69838,39.1975 0,44.01714 -0.90319,39.9724 8.93507,40.01386 5.1101,0.0215 6.14645,-0.21762 6.87966,-1.58762 z m 94.00869,0.76144 c 7.38315,-1.19825 12.18379,-3.51282 17.27729,-8.33004 4.72153,-4.46543 8.93348,-11.87661 10.42139,-18.33707 1.10003,-4.77627 1.15173,-18.48506 0.0908,-24.07926 -2.63084,-13.87233 -13.5284,-24.96717 -27.12606,-27.61714 -6.66163,-1.29825 -27.45277,-0.82268 -28.93399,0.66182 -0.85455,0.85645 -1.08167,9.04842 -1.08167,39.01516 0,32.80918 0.16891,38.03788 1.25085,38.72182 1.66145,1.05027 21.56663,1.02527 28.10138,-0.0353 z m 28.58249,-90.85607 c 2.47088,-2.47088 2.75953,-4.77557 2.33136,-18.61501 -0.32467,-10.49474 -0.71293,-13.50756 -2.25507,-17.49925 -2.86214,-7.40839 -6.38247,-11.42991 -12.9334,-14.77475 l -5.71623,-2.91864 h -87.22646 c -81.79252,0 -87.49397,0.0933 -91.5206,1.49849 -6.64215,2.31787 -11.25512,5.81175 -14.18497,10.74374 -3.57207,6.0131 -4.45309,11.08757 -4.45309,25.6488 0,15.58849 0.38425,16.31236 8.65909,16.31236 8.34384,0 8.73403,-0.62871 9.32819,-15.03064 0.55903,-13.55052 1.68315,-17.27934 5.67697,-18.83115 1.95471,-0.7595 23.3132,-1.10348 85.70369,-1.38026 l 83.10014,-0.36866 2.54237,1.87966 c 1.39831,1.03381 2.79624,2.47927 3.10653,3.21213 0.31029,0.73286 0.86351,7.08854 1.22939,14.12373 0.70205,13.49913 1.23227,15.16184 5.37568,16.85771 3.32271,1.35996 9.4892,0.88895 11.23641,-0.85826 z"
     id="path5" /><path
     style="fill:#ffffff;stroke-width:7.53928;stroke-linecap:round;stroke-linejoin:round"
     d="m 133.53065,271.64585 v -10.04588 h 5.55314 c 5.97707,0 8.6544,0.52429 11.16168,2.18573 2.02397,1.34118 3.38213,4.29359 3.38213,7.35219 0,4.10057 -1.89081,6.9416 -6.0757,9.12898 -1.97041,1.0299 -2.60445,1.12966 -8.07972,1.27123 l -5.94153,0.15363 z"
     id="path6" /><path
     style="fill:#ffffff;stroke-width:10.6621;stroke-linecap:round;stroke-linejoin:round"
     d="m 278.9435,307.8672 c -0.25276,-0.40897 -0.59518,-11.10148 -0.76094,-23.76114 l -0.30138,-23.01755 4.82876,0.37236 c 5.81838,0.44868 9.48124,1.94025 12.84106,5.22905 3.68039,3.6026 5.53254,8.24755 5.90898,14.81889 0.34977,6.10587 -0.53711,13.70098 -1.94674,16.67155 -1.47493,3.10818 -5.30472,7.10212 -8.11454,8.46233 -3.16559,1.53244 -11.74368,2.37577 -12.4552,1.22451 z"
     id="path7"
     inkscape:export-filename="RFID_tag.svg"
     inkscape:export-xdpi="96"
     inkscape:export-ydpi="96" /></svg>
