<?xml version="1.0" encoding="UTF-8" standalone="no"?>
<!-- Created with Inkscape (http://www.inkscape.org/) -->

<svg
   width="512"
   height="512"
   viewBox="0 0 135.46667 135.46667"
   version="1.1"
   id="svg1"
   xml:space="preserve"
   xmlns="http://www.w3.org/2000/svg"
   xmlns:svg="http://www.w3.org/2000/svg"><defs
     id="defs1" /><path
     style="fill:#000000;stroke-width:0.995885"
     d="M 5.2329465,134.49102 C 3.2775495,133.79094 1.3658237,131.87873 0.66890073,129.92583 0.38112881,129.11943 0.31443262,122.54974 0.30709865,94.287643 L 0.29810124,59.638115 0.91433807,58.320642 C 1.6103357,56.832646 3.4513054,55.011425 4.9521954,54.326099 c 0.8429265,-0.38489 2.019747,-0.475432 7.2638856,-0.558857 l 6.257995,-0.09956 V 51.96537 c 0,-2.139784 0.660897,-3.521468 2.158974,-4.513589 l 1.094586,-0.724904 6.275872,-0.07917 c 5.731548,-0.0723 6.375668,-0.03502 7.426489,0.429802 1.766747,0.781517 2.566831,2.031692 2.90191,4.534408 l 0.280836,2.097564 h 1.260932 1.260931 v -1.457682 c 0,-2.477783 1.03341,-4.237081 3.030187,-5.158654 0.925801,-0.427284 1.774977,-0.486442 6.982605,-0.486442 5.20763,0 6.056805,0.05916 6.982606,0.486442 1.996778,0.921573 3.030187,2.680871 3.030187,5.158654 v 1.457682 H 81.054033 100.94787 V 50.10375 c 0,-4.131876 0.40993,-5.458737 2.00566,-6.491956 l 0.88626,-0.57384 0.003,-6.796963 0.003,-6.796961 0.64676,-0.64676 c 0.85566,-0.855657 2.06673,-0.855657 2.92239,0 0.58576,0.58577 0.64675,0.859094 0.64675,2.898441 v 2.25168 h 2.89845 2.89844 v -8.840146 c 0,-9.483495 -0.046,-9.843567 -1.37459,-10.774196 -0.32292,-0.22618 -1.04689,-0.411236 -1.60883,-0.411236 -0.8106,0 -1.20679,0.185098 -1.91758,0.89588 l -0.89589,0.895883 v 3.332008 c 0,3.186362 -0.0283,3.36028 -0.64675,3.978767 -0.85566,0.855658 -2.06673,0.855658 -2.92239,0 -0.62447,-0.624465 -0.64668,-0.772054 -0.64419,-4.281785 0.002,-3.256109 0.0668,-3.772363 0.61879,-4.952501 1.27704,-2.730298 3.36888,-4.0705908 6.36125,-4.0758027 2.32455,-0.00409 4.10884,0.7702567 5.4881,2.3815997 1.74256,2.035788 1.758,2.187665 1.758,17.292639 v 13.526578 l 1.15819,1.115419 c 1.47561,1.421104 1.73691,2.386539 1.73877,6.424103 l 0.001,3.200729 4.28178,0.106558 c 3.20635,0.07981 4.52855,0.214996 5.26431,0.538293 1.48031,0.650465 3.49587,2.676992 4.13107,4.153532 l 0.5591,1.299698 -0.0696,34.987129 -0.0696,34.98713 -0.71454,1.21546 c -0.77381,1.31627 -2.08734,2.5862 -3.43905,3.3249 -0.80796,0.44152 -4.10921,0.46895 -62.774024,0.5215 -51.270672,0.0459 -62.0912634,-0.005 -62.909856,-0.29851 z M 129.13653,130.45186 c 0.50435,-0.25338 1.18614,-0.8636 1.51509,-1.35602 l 0.59812,-0.89532 V 94.499087 c 0,-36.991654 0.11272,-34.449327 -1.59172,-35.883563 L 128.83785,57.9254 H 67.818089 6.7983186 L 5.9168122,58.597758 C 4.1217217,59.96694 4.2453776,57.310894 4.2453776,94.499087 v 33.701433 l 0.598114,0.89532 c 0.328964,0.49242 1.0107562,1.10264 1.5150935,1.35602 0.865038,0.43462 4.3423719,0.46072 61.3889749,0.46072 57.0466,0 60.52394,-0.026 61.38897,-0.46072 z m -90.132769,-5.93599 c -0.490221,-0.33037 -1.157955,-1.07144 -1.483852,-1.64684 l -0.59254,-1.0462 -0.0034,-27.535187 c -0.0033,-26.647767 0.01288,-27.56179 0.500221,-28.361012 0.276963,-0.45421 0.949051,-1.165646 1.493527,-1.580967 l 0.989955,-0.755131 25.843048,-0.0806 c 14.213676,-0.04433 26.833872,-0.003 28.044881,0.09186 2.035347,0.159418 2.279018,0.242188 3.222587,1.094646 0.587796,0.531039 1.134105,1.330291 1.287997,1.884349 0.172605,0.621419 0.267768,10.501698 0.268717,27.899143 0.0017,30.241619 0.120553,28.393429 -1.921883,29.872959 l -1.054155,0.76362 H 67.746956 39.895036 Z m 13.094164,-3.43313 c -3.787791,-2.38397 -7.462858,-5.85023 -9.755297,-9.20104 l -1.471509,-2.15087 v 5.69467 c 0,4.30921 0.08012,5.72701 0.329367,5.82759 0.181152,0.0731 2.819392,0.13529 5.862753,0.13821 4.382862,0.003 5.429694,-0.0599 5.034686,-0.30856 z m 42.109287,0.18492 c 0.362249,-0.13901 0.416792,-0.90434 0.416792,-5.84839 v -5.68844 l -1.471511,2.15087 c -2.292438,3.35081 -5.967505,6.81707 -9.755296,9.20104 -0.395725,0.24905 0.625825,0.31706 4.947261,0.32936 2.995278,0.009 5.633517,-0.0564 5.862754,-0.14444 z m -28.304113,-5.97195 v -5.8684 l -2.305577,-0.70227 c -2.787335,-0.84902 -4.9844,-2.22298 -6.89596,-4.31244 -1.550373,-1.69465 -3.304585,-5.062377 -3.600333,-6.911874 l -0.176716,-1.105123 h -6.042842 -6.042843 l 0.173686,1.251596 c 1.424189,10.262761 8.236579,18.697391 17.90798,22.172411 1.9246,0.69154 4.658821,1.29522 5.9945,1.32354 l 0.988105,0.0209 z m 9.002108,5.04865 C 85.184705,117.49822 93.02326,108.41222 94.486204,97.647199 l 0.17009,-1.251596 h -6.046602 -6.046601 l -0.173777,1.158835 c -0.269211,1.795217 -2.014794,5.120882 -3.599737,6.858162 -1.904386,2.08744 -4.102248,3.46268 -6.891977,4.31244 l -2.305577,0.70227 v 5.04498 c 0,2.77473 0.07677,5.42884 0.170611,5.89803 l 0.170611,0.85306 1.519523,-0.17192 c 0.835737,-0.0945 2.389334,-0.41275 3.452439,-0.7071 z M 65.738414,104.2675 c 0.09058,-0.45289 0.164685,-2.40933 0.164685,-4.347664 v -3.524233 h -4.507972 -4.507972 l 0.172517,0.724605 c 0.66772,2.804553 3.232962,5.877052 5.999485,7.185822 2.116263,1.00117 2.472343,0.99604 2.679257,-0.0386 z m 6.69755,0.0386 c 2.77406,-1.31235 5.267272,-4.30571 5.992274,-7.194338 l 0.179728,-0.716096 h -4.507971 -4.507972 v 4.347654 c 0,5.0679 -0.09255,4.95197 2.843941,3.56278 z M 52.991866,91.943948 c 0,-1.075568 1.097592,-3.965946 2.087821,-5.498021 2.078884,-3.21644 4.602341,-5.131535 8.387082,-6.365108 l 2.304583,-0.751138 v -5.893364 -5.893365 l -1.053978,0.08305 c -1.861829,0.146709 -5.208985,1.037307 -7.443263,1.980475 -8.282359,3.496278 -14.464696,11.26373 -16.007702,20.111981 -0.21741,1.246723 -0.39529,2.369804 -0.39529,2.495745 0,0.125941 2.727167,0.228985 6.060374,0.228985 5.772399,0 6.060373,-0.02377 6.060373,-0.499237 z m 12.779486,-3.980169 v -4.347661 l -0.658737,0.07843 c -1.314655,0.156523 -3.952531,1.715232 -5.282346,3.121315 -1.266996,1.339662 -2.377145,3.308657 -2.767893,4.90922 l -0.178487,0.731115 4.443731,-0.07234 4.443732,-0.07234 z m 12.659759,3.754797 c -0.389072,-1.5941 -1.501123,-3.565017 -2.766259,-4.902712 -1.329814,-1.406084 -3.967691,-2.964793 -5.282346,-3.121316 l -0.658736,-0.07843 -0.07303,4.073102 c -0.04016,2.240205 -0.01425,4.2263 0.0576,4.41354 0.09953,0.259366 1.174614,0.340434 4.515131,0.340434 h 4.384493 z M 94.466003,91.05984 C 93.070602,80.101541 84.600715,70.64224 74.020571,68.226063 c -1.203865,-0.274925 -2.62749,-0.56231 -3.163613,-0.638631 -0.97213,-0.138392 -0.975197,-0.135787 -1.132895,0.962354 -0.08697,0.605617 -0.122613,3.283183 -0.07921,5.950146 l 0.07892,4.849022 2.321339,0.723397 c 3.652308,1.138163 6.279468,3.138612 8.370327,6.373576 0.990228,1.532075 2.087819,4.422453 2.087819,5.498021 0,0.475543 0.288142,0.499237 6.06945,0.499237 h 6.069451 z M 45.877514,72.677447 c 1.231837,-1.237226 3.244588,-2.930656 4.472782,-3.763177 l 2.233077,-1.513674 -5.790254,0.07117 -5.790254,0.07117 -0.07119,5.795081 -0.07118,5.795082 1.388663,-2.103082 c 0.763766,-1.156695 2.396531,-3.115359 3.628367,-4.352586 z m 48.628538,-4.930066 c -0.09909,-0.258226 -1.449648,-0.336177 -5.824481,-0.336177 h -5.695476 l 2.064157,1.368882 c 2.55269,1.69286 6.67424,5.816839 8.256279,8.261145 l 1.185726,1.831987 0.0714,-5.39483 c 0.03927,-2.967157 0.01334,-5.54611 -0.0576,-5.731007 z m -76.73079,50.934649 c -3.524575,-0.85493 -7.351206,-3.91163 -8.877266,-7.09115 -3.6556665,-7.61649 0.2647025,-16.651408 8.240564,-18.991316 2.219786,-0.651237 6.059976,-0.554791 8.216082,0.206327 4.723595,1.667455 7.810279,5.262366 8.835381,10.290129 1.917143,9.40293 -6.999854,17.86973 -16.414761,15.58601 z m 7.382254,-4.59507 c 3.370211,-1.65915 5.249803,-4.7209 5.279972,-8.6008 0.01421,-1.82688 -0.09173,-2.33632 -0.794403,-3.82068 -1.010129,-2.133773 -2.658791,-3.806506 -4.713387,-4.782185 -1.374329,-0.652648 -1.890924,-0.750778 -3.952418,-0.750778 -2.071354,0 -2.571516,0.096 -3.952418,0.758865 -2.061719,0.989613 -3.698185,2.647855 -4.711443,4.774098 -0.720023,1.51093 -0.814575,1.97661 -0.802525,3.95242 0.01115,1.82166 0.13885,2.51286 0.684347,3.70306 1.149697,2.50849 2.76549,4.04092 5.46002,5.17833 2.187613,0.92344 5.11586,0.7625 7.502255,-0.41233 z m -7.421557,-2.03669 c -5.643323,-2.81219 -5.20122,-11.07196 0.712169,-13.305398 2.747022,-1.037524 5.672251,-0.362263 7.704136,1.778438 1.332956,1.40435 1.855515,2.56382 2.007218,4.45371 0.245808,3.06223 -1.238697,5.72669 -3.94088,7.07325 -1.086284,0.54132 -1.754877,0.68198 -3.241322,0.68198 -1.486445,0 -2.155038,-0.14066 -3.241321,-0.68198 z m 4.904036,-3.6269 c 1.543421,-0.85647 2.067982,-3.00773 1.114645,-4.57126 -1.007059,-1.65163 -2.955265,-2.10871 -4.513144,-1.05886 -2.795303,1.88375 -1.605058,5.97762 1.735784,5.97025 0.579688,-9.9e-4 1.32791,-0.15434 1.662715,-0.34013 z m 88.675845,10.25866 c -6.84563,-1.66049 -11.403224,-8.75637 -10.01074,-15.58601 1.0251,-5.027763 4.11178,-8.622674 8.83538,-10.290129 2.46555,-0.870349 6.28919,-0.870349 8.75473,0 7.95369,2.807699 11.3986,11.643779 7.46096,19.137129 -2.78358,5.29716 -9.17619,8.16145 -15.04033,6.73901 z m 7.07404,-4.42985 c 2.09832,-0.96064 3.7507,-2.58085 4.74619,-4.65375 0.73081,-1.52175 0.83778,-2.02266 0.85004,-3.98053 0.0124,-1.97365 -0.0827,-2.44314 -0.79962,-3.95242 -1.01442,-2.135354 -2.6633,-3.807303 -4.71622,-4.782185 -1.37433,-0.652648 -1.89093,-0.750778 -3.95243,-0.750778 -2.06239,0 -2.57747,0.09794 -3.95241,0.751517 -2.10206,0.999202 -3.69016,2.601537 -4.69754,4.739656 -0.71912,1.52631 -0.82452,2.0287 -0.81025,3.86247 0.0346,4.44497 2.54073,7.87011 6.76888,9.25089 1.7257,0.56356 4.7635,0.33915 6.56336,-0.48487 z m -7.11336,-2.20191 c -2.70218,-1.34656 -4.18669,-4.01102 -3.94088,-7.07325 0.15169,-1.88989 0.67426,-3.04936 2.00723,-4.45371 2.03374,-2.142657 4.95677,-2.816064 7.71,-1.776232 5.90393,2.229762 6.34272,10.494442 0.70629,13.303192 -1.08627,0.54132 -1.75488,0.68198 -3.24132,0.68198 -1.48643,0 -2.15504,-0.14066 -3.24132,-0.68198 z m 4.90404,-3.6269 c 2.18716,-1.21369 2.0757,-4.65186 -0.18877,-5.82285 -1.54679,-0.7999 -3.31847,-0.2783 -4.2513,1.25159 -0.94855,1.55567 -0.49262,3.53842 1.03113,4.48408 0.82652,0.51296 2.56168,0.55734 3.40894,0.0871 z M 24.666204,87.909353 c -0.918135,-0.320935 -2.42512,-1.36659 -3.113544,-2.160402 -1.65667,-1.910281 -2.018446,-5.331841 -0.818387,-7.740046 1.220769,-2.449764 3.43878,-3.77978 6.303382,-3.77978 3.887877,0 6.668232,2.632909 6.933576,6.565877 0.275792,4.087841 -2.875982,7.455678 -6.933576,7.408896 -0.869532,-0.01001 -1.936686,-0.142571 -2.371451,-0.294545 z m 4.505756,-4.53038 c 0.754766,-0.754764 0.895881,-1.083619 0.895881,-2.087738 0,-3.527513 -4.769938,-4.42413 -5.909028,-1.110737 -0.720754,2.096533 0.69885,4.094357 2.909348,4.094357 1.022384,0 1.345522,-0.137604 2.103799,-0.895882 z m 78.00163,4.461446 c -3.39024,-1.208477 -5.4059,-5.35389 -4.26843,-8.778479 0.55857,-1.681693 2.16003,-3.51766 3.6996,-4.241346 1.6394,-0.770601 4.43748,-0.770601 6.07686,0 2.607,1.225432 4.31615,4.328623 3.95892,7.187902 -0.20667,1.654084 -1.39921,3.833642 -2.59777,4.747832 -1.84237,1.405231 -4.70212,1.856557 -6.86918,1.084091 z m 4.02813,-3.949198 c 0.80268,-0.415086 1.604,-1.824337 1.60243,-2.818123 -0.002,-0.977095 -0.97906,-2.327624 -1.99063,-2.750288 -1.71829,-0.717947 -3.7767,0.348953 -4.24079,2.198058 -0.0883,0.351887 -0.02,1.109013 0.15182,1.682502 0.53604,1.789148 2.70215,2.605749 4.47717,1.687851 z M 11.981517,76.628458 C 9.479024,75.635933 7.4073114,72.654726 7.4073114,70.046149 c 0,-1.468041 0.8256803,-3.475387 1.9161313,-4.658387 1.3434833,-1.457506 2.6256333,-2.133353 4.4541083,-2.347847 3.818945,-0.447993 7.379408,2.422868 7.773339,6.267775 0.534994,5.221734 -4.721883,9.243353 -9.569373,7.320768 z m 4.718125,-4.422762 c 0.55485,-0.55485 0.815955,-1.114974 0.910417,-1.953032 0.117284,-1.040552 0.03628,-1.284588 -0.707619,-2.131845 -1.501538,-1.710158 -3.841501,-1.520391 -5.016541,0.406834 -0.630954,1.034854 -0.662856,1.807335 -0.118136,2.860707 0.993629,1.921468 3.424837,2.324379 4.931879,0.817336 z m 103.001868,4.468857 c -2.82066,-1.006389 -4.60242,-3.572486 -4.60242,-6.628404 0,-2.199742 0.67392,-3.727045 2.31004,-5.235164 4.46584,-4.11647 11.72283,-0.776203 11.73119,5.399658 0.006,4.685202 -4.93663,8.070254 -9.43881,6.46391 z m 3.7469,-3.865969 c 2.94279,-1.396446 1.80576,-5.924369 -1.48769,-5.924369 -1.04549,0 -2.39536,1.084305 -2.79895,2.248294 -0.31526,0.909213 -0.30874,1.17335 0.0499,2.027722 0.44712,1.0648 1.77679,2.045278 2.77585,2.046868 0.3404,5.43e-4 0.99774,-0.178789 1.46079,-0.398515 z M 34.283754,52.533033 c 0,-2.036952 -0.07155,-2.059289 -6.235511,-1.946943 -5.762018,0.105022 -5.610977,0.04761 -5.617708,2.135294 l -0.0041,1.251599 h 5.928627 5.928628 z m 22.660531,0.023 c 0,-0.945886 -0.133051,-1.527379 -0.400212,-1.749102 -0.485658,-0.403061 -10.535037,-0.232796 -10.953415,0.185582 -0.142597,0.142596 -0.328922,0.688499 -0.414055,1.213119 -0.295723,1.822316 -0.481137,1.767358 5.962531,1.767358 h 5.805151 z m 59.755035,-2.074348 -0.0735,-3.491301 h -5.66513 -5.66514 l -0.0735,3.491301 -0.0735,3.491305 h 5.81219 5.81216 z M 113.85911,40.40302 v -2.503198 h -2.89844 -2.89845 v 2.503198 2.503199 h 2.89845 2.89844 z"
     id="path221" /><rect
     style="fill:#000000;stroke:none;stroke-width:4.47358;stroke-linecap:round;stroke-dasharray:none"
     id="rect221"
     width="4.2438049"
     height="18.427042"
     x="103.8615"
     y="18.873758"
     rx="1.6193469"
     ry="3.7658145" /><path
     style="fill:#ffffff;stroke:none;stroke-width:1.88827;stroke-linecap:round;stroke-dasharray:none"
     d="m 108.14295,27.780161 c -0.01,-3.393648 -0.007,-7.50204 0.006,-9.129762 l 0.0244,-2.959495 0.78385,-0.751751 c 0.95353,-0.914478 1.37108,-1.066879 2.43556,-0.888948 1.39841,0.233747 2.02557,0.985087 2.23305,2.675199 0.0623,0.507551 0.14792,4.590815 0.19027,9.073921 l 0.077,8.151102 h -2.86601 -2.86601 z"
     id="path222" /><path
     style="fill:#ffffff;stroke:none;stroke-width:1.88827;stroke-linecap:round;stroke-dasharray:none"
     d="m 108.16115,40.42781 v -2.456939 h 2.84781 2.84782 v 2.456939 2.45694 h -2.84782 -2.84781 z"
     id="path223" /><path
     style="fill:#ffffff;stroke:none;stroke-width:1.88827;stroke-linecap:round;stroke-dasharray:none"
     d="m 105.25749,51.836607 c 0,-1.157404 0.0328,-2.715326 0.073,-3.462052 l 0.073,-1.35768 h 5.55637 5.55637 l 0.0661,1.033031 c 0.0363,0.568166 0.0787,2.126107 0.0942,3.462089 l 0.0281,2.429058 -5.72355,-4e-5 -5.72355,-4e-5 z"
     id="path224" /><path
     style="fill:#ffffff;stroke:none;stroke-width:1.88827;stroke-linecap:round;stroke-dasharray:none"
     d="m 46.386807,53.825014 c -0.407961,-0.04763 -0.854541,-0.146968 -0.992399,-0.220747 -0.234763,-0.12564 -0.246687,-0.186568 -0.188109,-0.961125 0.0344,-0.45484 0.154319,-1.014786 0.266486,-1.244322 0.257535,-0.527013 0.261795,-0.527704 4.280226,-0.694786 3.58345,-0.148995 6.48049,-0.04651 6.766367,0.239369 0.252624,0.252627 0.375393,0.908071 0.378425,2.020379 l 0.0027,0.977191 -4.885958,-0.01468 c -2.687275,-0.0081 -5.219742,-0.05365 -5.627703,-0.101283 z"
     id="path225" /><path
     style="fill:#ffffff;stroke:none;stroke-width:1.88827;stroke-linecap:round;stroke-dasharray:none"
     d="m 22.503326,52.831454 c 0,-2.019869 -0.0392,-1.998578 3.960239,-2.150999 4.05397,-0.154499 6.462109,-0.08751 7.041658,0.195873 0.615119,0.300776 0.720831,0.581592 0.722754,1.919936 l 0.0016,1.144709 h -5.86309 -5.863149 z"
     id="path226" /><path
     style="fill:#ffffff;stroke:none;stroke-width:1.88827;stroke-linecap:round;stroke-dasharray:none"
     d="M 16.584337,130.76601 C 11.771146,130.72151 7.6260102,130.63627 7.2461585,130.5741 6.8704795,130.5126 6.4174946,130.387 6.2395252,130.29497 5.848864,130.09295 4.8902433,129.09115 4.5406327,128.51955 L 4.2874772,128.10564 4.3332052,95.797589 C 4.3805807,62.325352 4.3926991,61.466247 4.8381167,60.003197 5.0173344,59.414525 5.1058682,59.30543 5.9228415,58.666546 l 0.8895797,-0.695664 60.9876308,-0.0047 60.987628,-0.0047 0.85177,0.726763 c 0.74267,0.633685 0.87332,0.801745 1.02008,1.312227 0.42061,1.462921 0.42779,2.002041 0.4731,35.519943 l 0.0442,32.700895 -0.50505,0.70778 c -0.67999,0.95291 -1.44243,1.50193 -2.26902,1.63388 -1.31613,0.21008 -22.59852,0.3118 -62.28878,0.29771 -22.48099,-0.008 -44.769334,-0.0506 -49.529653,-0.0946 z m 80.06111,-6.31455 c 1.129509,-0.81352 1.369147,-1.14949 1.56129,-2.18887 0.375304,-2.03021 0.406067,-4.24544 0.385829,-27.782126 C 98.581559,81.67367 98.529045,70.140019 98.475879,68.850125 98.38141,66.558154 98.37185,66.491368 98.055144,65.910811 97.586353,65.051471 96.470242,64.045578 95.737643,63.822172 94.531161,63.45425 90.314153,63.407175 64.671135,63.475356 l -24.783773,0.0659 -0.452633,0.309177 c -0.743358,0.507756 -1.952448,1.75614 -2.143329,2.212983 -0.114972,0.275169 -0.212971,1.023561 -0.276183,2.109165 -0.05389,0.92546 -0.09962,13.402075 -0.101637,27.725808 l -0.0037,26.043151 0.405569,0.692 c 0.515435,0.87946 1.042993,1.46544 1.868218,2.07514 l 0.654439,0.48352 H 67.727567 95.61699 Z m -73.360368,-5.55933 c 3.925177,-0.70261 7.517938,-3.28552 9.535796,-6.85548 2.192166,-3.87834 2.18911,-8.79463 -0.0081,-12.98781 -1.742858,-3.326133 -5.057524,-5.853063 -8.699387,-6.631964 -1.19993,-0.256636 -4.11784,-0.351166 -5.435211,-0.176083 -3.954481,0.525558 -7.722652,3.239691 -9.6215441,6.930192 -0.8806651,1.711575 -1.2967063,3.115975 -1.5166978,5.119805 -0.2604325,2.37221 0.2694691,5.25622 1.367757,7.44409 1.6646949,3.31618 5.5721019,6.30666 9.2485089,7.07821 1.272375,0.26703 3.85618,0.30685 5.128852,0.079 z m 94.378291,-0.20672 c 2.14581,-0.56814 3.74362,-1.36205 5.42677,-2.69641 2.85709,-2.26502 4.70022,-5.93957 4.9113,-9.79138 0.21027,-3.83695 -1.12732,-7.380283 -3.81435,-10.104377 -2.0279,-2.055871 -4.40733,-3.319145 -7.13417,-3.787638 -1.2593,-0.216358 -3.7275,-0.21931 -5.03885,-0.006 -2.702,0.439462 -5.12435,1.724692 -7.14746,3.792241 -1.74618,1.784543 -2.78192,3.68041 -3.4573,6.328414 -1.14517,4.48994 0.26136,9.38252 3.67371,12.77895 1.50408,1.49707 3.06028,2.47923 5.02708,3.17273 1.57879,0.55669 2.43459,0.67495 4.58427,0.63351 1.59954,-0.0308 2.06713,-0.0812 2.969,-0.32002 z M 29.440778,87.869331 c 1.091449,-0.405522 1.743054,-0.823423 2.563974,-1.644375 1.342806,-1.342866 2.001515,-2.981298 2.001515,-4.978458 0,-1.904849 -0.632018,-3.650033 -1.767197,-4.879756 -0.813835,-0.88161 -1.726298,-1.468784 -2.858728,-1.839603 -0.762796,-0.249782 -1.109247,-0.296688 -2.242336,-0.303588 -1.467735,-0.0089 -2.190668,0.124936 -3.238692,0.599731 -1.344108,0.608936 -2.430431,1.660337 -3.127202,3.026675 -0.559831,1.097804 -0.761164,1.982409 -0.760334,3.340701 0.0016,2.663782 0.938189,4.489079 3.030972,5.907156 1.426313,0.966475 2.072444,1.132525 4.206934,1.08114 1.210961,-0.02915 1.574477,-0.08052 2.191094,-0.309623 z m 82.024952,0.133096 c 2.40461,-0.609767 3.91517,-2.035127 4.86604,-4.591558 0.29909,-0.804116 0.34963,-1.093158 0.35888,-2.052691 0.0123,-1.277699 -0.14216,-2.01735 -0.65321,-3.127015 -0.48947,-1.062855 -1.27127,-2.062861 -2.09943,-2.685396 -1.37182,-1.031214 -2.28666,-1.313106 -4.2692,-1.315477 -2.53083,-0.003 -4.01304,0.683601 -5.52032,2.557264 -1.15635,1.437418 -1.56781,2.562723 -1.56997,4.293669 -0.003,2.0524 0.69443,3.720063 2.17118,5.194912 1.44556,1.443701 2.60926,1.923687 4.70581,1.940999 0.7863,0.0065 1.39382,-0.05839 2.01022,-0.214707 z M 15.970102,77.002766 c 2.607266,-0.545523 4.861684,-2.733503 5.465911,-5.304824 0.759706,-3.232984 -0.817723,-6.5747 -3.786919,-8.022424 -1.006312,-0.490656 -1.897873,-0.688776 -3.0911,-0.686892 -2.042904,0.0032 -3.486331,0.594696 -4.8988479,2.007383 -3.0260571,3.026418 -3.027252,7.022777 -0.00301,10.06072 0.7223299,0.725602 1.1563529,1.057667 1.7909629,1.370238 1.436009,0.707292 2.964536,0.90188 4.523001,0.575799 z M 123.90046,76.877888 c 1.23397,-0.313124 2.22461,-0.902475 3.24888,-1.932837 1.44125,-1.449826 2.00902,-2.794431 2.00581,-4.750321 -0.002,-1.237858 -0.21835,-2.196902 -0.74377,-3.297293 -0.3135,-0.656574 -0.61028,-1.046573 -1.36324,-1.791441 -1.4979,-1.481783 -3.01317,-2.119019 -5.03879,-2.119019 -1.99866,0 -3.40215,0.602991 -4.926,2.116378 -1.49008,1.479852 -1.9981,2.727471 -1.9981,4.907032 0,2.106724 0.60292,3.621717 2.0102,5.051123 1.14637,1.164411 2.30936,1.724205 4.24382,2.042729 0.44367,0.07305 1.88235,-0.05409 2.56119,-0.226351 z"
     id="path227" /><path
     style="fill:#ffffff;stroke:none;stroke-width:1.88827;stroke-linecap:round;stroke-dasharray:none"
     d="m 13.540856,72.885588 c -1.241194,-0.463191 -2.217163,-1.938661 -2.059564,-3.113649 0.119741,-0.892736 0.927645,-1.99326 1.808513,-2.463546 0.638704,-0.341 1.830008,-0.33346 2.492789,0.01577 0.581161,0.306229 1.38846,1.124728 1.647264,1.670116 0.216981,0.457253 0.167201,1.531896 -0.100657,2.17297 -0.222248,0.531913 -0.799342,1.157822 -1.382773,1.499736 -0.607121,0.355795 -1.757743,0.460353 -2.405572,0.218596 z"
     id="path228" /><path
     style="fill:#ffffff;stroke:none;stroke-width:1.88827;stroke-linecap:round;stroke-dasharray:none"
     d="m 26.188011,84.101646 c -0.867286,-0.263816 -1.756663,-1.106022 -1.989842,-1.884305 -0.311419,-1.03942 -0.07061,-2.229511 0.612638,-3.027735 0.605456,-0.70734 1.15999,-0.952767 2.159681,-0.955837 0.723956,-0.0021 0.920004,0.04288 1.445048,0.332449 0.62189,0.34298 1.176505,0.988232 1.422189,1.654615 0.07211,0.195574 0.134927,0.710104 0.139599,1.143399 0.0074,0.681114 -0.03423,0.855051 -0.306959,1.284309 -0.375944,0.591703 -1.035584,1.191699 -1.54346,1.403903 -0.390829,0.163301 -1.473486,0.190772 -1.938894,0.0492 z"
     id="path229" /><path
     style="fill:#ffffff;stroke:none;stroke-width:1.88827;stroke-linecap:round;stroke-dasharray:none"
     d="m 19.747559,108.48082 c -1.594077,-0.56484 -2.431971,-2.55977 -1.729092,-4.11676 0.50929,-1.12816 1.838762,-2.06579 2.929378,-2.06598 1.147262,-1.9e-4 2.297269,0.73257 2.870182,1.82884 0.407422,0.77961 0.421814,1.96909 0.03433,2.83788 -0.328279,0.73606 -1.0664,1.40598 -1.734454,1.5742 -0.674536,0.16985 -1.805137,0.1421 -2.370349,-0.0582 z"
     id="path230" /><path
     style="fill:#ffffff;stroke:none;stroke-width:1.88827;stroke-linecap:round;stroke-dasharray:none"
     d="m 19.27303,114.90798 c -1.125396,-0.2208 -2.641274,-0.87352 -3.693805,-1.5905 -1.640769,-1.11771 -3.13993,-3.16325 -3.738229,-5.10068 -0.254038,-0.82263 -0.357065,-3.38708 -0.177502,-4.4182 0.390064,-2.23991 2.111433,-4.75687 4.194929,-6.133759 1.890654,-1.249444 3.253441,-1.59499 5.80731,-1.472483 1.552933,0.07449 2.207339,0.245867 3.51789,0.921253 2.108604,1.086662 3.600925,2.747076 4.650165,5.173949 0.642829,1.48686 0.722836,3.89203 0.195016,5.86263 -1.083254,4.04431 -5.0092,6.92172 -9.368182,6.86614 -0.491388,-0.006 -1.115804,-0.055 -1.387592,-0.10835 z m 3.480997,-2.27566 c 0.964532,-0.2044 2.326997,-0.91372 3.130289,-1.62968 0.828444,-0.73838 1.648496,-1.98296 1.986345,-3.01463 0.238043,-0.72689 0.272455,-1.03651 0.272455,-2.45132 0,-1.39257 -0.03533,-1.72101 -0.252285,-2.34526 -0.527797,-1.51864 -1.563267,-2.8309 -2.98315,-3.780574 -3.214122,-2.149734 -7.792352,-1.240862 -9.927465,1.970804 -1.51278,2.27555 -1.69956,5.03162 -0.507,7.48109 0.922394,1.89456 2.961586,3.48316 4.903097,3.81969 0.836914,0.14507 2.578603,0.11922 3.377714,-0.0501 z"
     id="path231" /><path
     style="fill:#ffffff;stroke:none;stroke-width:1.88827;stroke-linecap:round;stroke-dasharray:none"
     d="m 41.6842,92.278324 c -0.41461,-0.02291 -0.753835,-0.07021 -0.753835,-0.105111 0,-0.313206 0.61789,-3.592232 0.83103,-4.410123 1.957298,-7.510798 7.260461,-14.038064 14.1898,-17.465154 2.351064,-1.16278 6.400256,-2.387407 8.487609,-2.566966 0.429964,-0.03699 0.894829,-0.09024 1.033031,-0.11833 l 0.251278,-0.05108 v 5.852893 5.852896 l -1.849303,0.626282 c -1.017116,0.344458 -2.232641,0.803397 -2.701165,1.019871 -2.88311,1.332076 -5.442848,3.900596 -6.8984,6.922058 -0.628507,1.304669 -1.282544,3.202319 -1.282544,3.721238 0,0.171797 -0.07129,0.409908 -0.158432,0.52914 -0.152681,0.20891 -0.344334,0.217096 -5.276835,0.225407 -2.815121,0.0047 -5.457626,-0.01011 -5.872234,-0.03302 z"
     id="path232" /><path
     style="fill:#ffffff;stroke:none;stroke-width:1.88827;stroke-linecap:round;stroke-dasharray:none"
     d="m 40.989674,73.261447 c 0.04285,-3.101885 0.08473,-5.645539 0.09306,-5.652564 0.0083,-0.007 2.553055,-0.04733 5.65494,-0.08956 l 5.639792,-0.07679 -1.340149,0.920313 c -3.756816,2.579897 -6.734667,5.536134 -9.117526,9.051346 l -1.008028,1.487051 z"
     id="path233" /><path
     style="fill:#ffffff;stroke:none;stroke-width:1.88827;stroke-linecap:round;stroke-dasharray:none"
     d="m 63.227034,120.88164 c -2.536098,-0.45818 -4.736992,-1.19219 -7.164158,-2.38926 -8.008334,-3.94968 -13.442067,-11.3622 -14.905951,-20.334205 -0.124584,-0.763561 -0.226525,-1.45111 -0.226536,-1.527889 -1.8e-5,-0.10994 1.269384,-0.139599 5.974805,-0.139599 3.286157,0 5.974829,0.01958 5.974829,0.0435 0,0.373343 0.429064,2.087335 0.684834,2.735721 1.519696,3.852492 4.107038,6.809932 7.411895,8.472122 0.892445,0.44886 3.055335,1.23115 4.383403,1.58542 l 0.474636,0.12661 v 5.80301 5.80301 l -0.865513,-0.01 c -0.476031,-0.006 -1.260041,-0.0813 -1.742244,-0.16842 z"
     id="path234" /><path
     style="fill:#ffffff;stroke:none;stroke-width:1.88827;stroke-linecap:round;stroke-dasharray:none"
     d="m 64.159605,104.71199 c -1.761802,-0.73677 -2.862265,-1.46274 -4.083664,-2.69397 -0.943657,-0.95126 -1.985145,-2.405464 -2.399789,-3.350776 -0.270182,-0.61596 -0.661818,-1.818931 -0.663152,-2.036958 -7.94e-4,-0.109344 0.957959,-0.139599 4.423215,-0.139599 h 4.424068 l -0.04821,3.825003 c -0.04054,3.21716 -0.07716,3.89156 -0.230404,4.24381 -0.221094,0.50819 -0.49997,0.5381 -1.422067,0.15249 z"
     id="path235" /><path
     style="fill:#ffffff;stroke:none;stroke-width:1.88827;stroke-linecap:round;stroke-dasharray:none"
     d="m 57.012148,92.209487 c 0,-0.25528 0.451234,-1.549976 0.787374,-2.259155 0.53599,-1.130824 1.432118,-2.40728 2.270397,-3.233978 1.312154,-1.294027 3.6536,-2.704582 4.8156,-2.901051 0.245694,-0.04154 0.534664,-0.09965 0.642154,-0.129143 0.183671,-0.05039 0.19544,0.204679 0.19544,4.235932 v 4.289544 l -2.028127,0.07346 c -3.589152,0.130006 -6.682838,0.095 -6.682838,-0.07561 z"
     id="path236" /><path
     style="fill:#ffffff;stroke:none;stroke-width:1.88827;stroke-linecap:round;stroke-dasharray:none"
     d="m 70.272801,92.251421 c -0.231019,-0.0448 -0.445895,-0.10732 -0.477504,-0.13893 -0.05882,-0.05882 -0.07796,-8.364223 -0.01942,-8.422772 0.110347,-0.110347 1.633813,0.341794 2.325801,0.690263 2.990538,1.505964 5.084824,3.84369 6.089727,6.797591 0.44541,1.30928 0.836843,1.182888 -3.61774,1.168146 -2.134466,-0.0071 -4.069861,-0.0495 -4.300877,-0.0943 z"
     id="path237" /><path
     style="fill:#ffffff;stroke:none;stroke-width:1.88827;stroke-linecap:round;stroke-dasharray:none"
     d="m 70.04917,104.95535 c -0.327936,-0.24074 -0.415963,-1.29176 -0.416645,-4.974693 l -5.29e-4,-3.48997 h 4.423751 4.423749 l -0.07813,0.418795 c -0.290793,1.558711 -1.55716,3.683058 -3.115008,5.225458 -1.099291,1.08838 -2.17424,1.8181 -3.588301,2.43588 -1.150406,0.50258 -1.406583,0.56233 -1.648772,0.38453 z"
     id="path238" /><path
     style="fill:#ffffff;stroke:none;stroke-width:1.88827;stroke-linecap:round;stroke-dasharray:none"
     d="m 41.279756,121.18299 c -0.259916,-0.16465 -0.337066,-1.63495 -0.343369,-6.54396 l -0.006,-4.69003 0.642154,0.94229 c 2.673149,3.92255 5.777,7.05923 9.462852,9.56293 0.518634,0.35229 0.916731,0.68298 0.884664,0.73487 -0.07723,0.12496 -10.442771,0.11901 -10.64028,-0.006 z"
     id="path239" /><path
     style="fill:#ffffff;stroke:none;stroke-width:1.88827;stroke-linecap:round;stroke-dasharray:none"
     d="m 69.919714,120.92048 c -0.154514,-0.53003 -0.279495,-3.86829 -0.283276,-7.56626 l -0.0039,-3.85293 1.981991,-0.64505 c 3.090114,-1.0057 4.577321,-1.85428 6.475989,-3.69508 2.144469,-2.07911 3.872506,-5.12474 4.35459,-7.674881 l 0.188208,-0.995592 h 5.951514 5.951511 v 0.265202 c 0,0.14586 -0.104534,0.880676 -0.232298,1.632926 -0.961861,5.663265 -3.666223,10.906845 -7.720556,14.969665 -4.166303,4.17501 -9.248904,6.75293 -14.975036,7.59538 -0.810688,0.11928 -1.50581,0.2171 -1.544714,0.21738 -0.0389,2.6e-4 -0.103698,-0.11256 -0.143986,-0.25076 z"
     id="path240" /><path
     style="fill:#ffffff;stroke:none;stroke-width:1.88827;stroke-linecap:round;stroke-dasharray:none"
     d="m 84.70855,121.28949 c -0.644949,-0.034 -1.172631,-0.0932 -1.172631,-0.13137 0,-0.0382 0.351787,-0.30958 0.781754,-0.60303 3.787381,-2.5849 6.837542,-5.61587 9.325629,-9.26693 l 0.837162,-1.22847 0.03352,4.74636 c 0.03503,4.96013 -0.0091,6.04615 -0.255846,6.29288 -0.254241,0.25424 -6.124205,0.37137 -9.549588,0.19056 z"
     id="path241" /><path
     style="fill:#ffffff;stroke:none;stroke-width:1.88827;stroke-linecap:round;stroke-dasharray:none"
     d="m 82.986107,92.261589 c -0.305456,-0.06601 -0.338939,-0.128005 -0.520613,-0.963978 -0.257823,-1.186378 -0.676434,-2.327925 -1.351298,-3.684971 -0.736055,-1.480092 -1.60409,-2.679192 -2.82761,-3.906044 -1.792047,-1.796928 -3.586515,-2.826623 -6.671909,-3.828446 l -1.87112,-0.607553 -0.02792,-3.088333 c -0.03277,-3.624373 0.006,-6.874285 0.09172,-7.682606 0.09761,-0.920752 0.189373,-0.985469 1.172969,-0.827201 0.45611,0.07339 1.604502,0.310539 2.551981,0.526989 5.303178,1.211509 9.570786,3.621318 13.36561,7.547219 3.459157,3.57864 5.820188,7.819091 6.973565,12.52464 0.280455,1.144211 0.664821,3.412614 0.664821,3.923577 0,0.141791 -0.750496,0.161915 -5.611874,0.150469 -3.086528,-0.0073 -5.758775,-0.04496 -5.938324,-0.08376 z"
     id="path242" /><path
     style="fill:#ffffff;stroke:none;stroke-width:1.88827;stroke-linecap:round;stroke-dasharray:none"
     d="m 93.665146,77.475426 c -1.089541,-1.670177 -2.016747,-2.764166 -4.145582,-4.891273 -2.17692,-2.17515 -3.011152,-2.883715 -4.970129,-4.221446 l -1.330511,-0.908568 4.51398,0.003 c 4.175787,0.0028 6.496013,0.09931 6.674742,0.277646 0.110111,0.109868 0.142983,6.297824 0.04623,8.703413 l -0.08509,2.115826 z"
     id="path243" /><path
     style="fill:#ffffff;stroke:none;stroke-width:1.88827;stroke-linecap:round;stroke-dasharray:none"
     d="m 121.0345,72.869848 c -0.8065,-0.408959 -1.54087,-1.185098 -1.81529,-1.918547 -0.28181,-0.753198 -0.28155,-0.992905 0.002,-1.750457 0.46291,-1.237242 1.74962,-2.247072 2.84409,-2.232091 2.18635,0.02992 3.65996,2.457622 2.69232,4.435425 -0.335,0.684715 -0.73915,1.052091 -1.55387,1.412478 -0.86719,0.383598 -1.48754,0.398809 -2.16913,0.05319 z"
     id="path244" /><path
     style="fill:#ffffff;stroke:none;stroke-width:1.88827;stroke-linecap:round;stroke-dasharray:none"
     d="m 108.76027,84.084368 c -0.69806,-0.202313 -1.41524,-0.795281 -1.74392,-1.441881 -0.63713,-1.253392 -0.52104,-2.405578 0.33872,-3.361835 0.61629,-0.685467 1.21178,-1.001157 2.02646,-1.074296 0.93231,-0.0837 1.50708,0.118673 2.201,0.774949 0.81003,0.766095 1.2091,1.589249 1.12299,2.316361 -0.075,0.632904 -0.48785,1.503804 -0.97717,2.061109 -0.60323,0.687036 -1.9582,1.018281 -2.96808,0.725593 z"
     id="path245" /><path
     style="fill:#ffffff;stroke:none;stroke-width:1.88827;stroke-linecap:round;stroke-dasharray:none"
     d="m 112.86578,114.90001 c -1.99136,-0.28489 -4.5023,-1.79549 -5.77428,-3.47385 -0.62609,-0.82612 -1.39928,-2.41909 -1.66609,-3.43253 -0.28796,-1.09384 -0.35759,-3.76418 -0.12236,-4.69257 0.24758,-0.97713 1.0484,-2.5635 1.77484,-3.515843 1.09212,-1.431747 2.88272,-2.702554 4.63303,-3.288101 0.88752,-0.29691 3.03776,-0.418005 4.40458,-0.248047 2.8062,0.348933 5.48798,2.442208 6.9993,5.463321 0.67108,1.3415 0.79309,1.92982 0.79309,3.8243 0,1.87956 -0.12659,2.50956 -0.78,3.8819 -1.02685,2.15665 -2.53401,3.68497 -4.59051,4.65497 -1.01706,0.47972 -1.86338,0.70504 -3.17294,0.84475 -1.16259,0.12403 -1.52218,0.12139 -2.49866,-0.0183 z m 4.13136,-2.46452 c 1.06934,-0.39264 1.72878,-0.80977 2.59055,-1.63866 0.91233,-0.87753 1.40912,-1.66194 1.81127,-2.85992 1.15542,-3.44195 -0.38847,-7.32176 -3.52552,-8.859665 -1.22764,-0.601837 -2.15874,-0.828585 -3.40243,-0.828585 -2.20104,0 -4.02674,0.873707 -5.54441,2.65335 -0.80468,0.94357 -1.2463,1.83219 -1.48231,2.9827 -0.73628,3.58931 0.83132,6.82191 4.03156,8.31358 1.05069,0.48973 1.69901,0.59457 3.38604,0.54755 1.13542,-0.0316 1.53398,-0.0896 2.13525,-0.31035 z"
     id="path246" /><path
     style="fill:#ffffff;stroke:none;stroke-width:1.88827;stroke-linecap:round;stroke-dasharray:none"
     d="m 113.35591,108.52318 c -0.70149,-0.18511 -1.66691,-1.21809 -1.90552,-2.03888 -0.43467,-1.4952 0.28772,-3.1338 1.69948,-3.85494 0.73089,-0.37334 1.99185,-0.38557 2.6743,-0.0259 1.17522,0.61934 1.72973,1.49243 1.80814,2.84699 0.0467,0.8066 0.0239,0.92553 -0.30576,1.59515 -0.37906,0.77 -0.84361,1.20916 -1.54308,1.45878 -0.49273,0.17584 -1.79429,0.18593 -2.42756,0.0188 z"
     id="path247" /></svg>
