<?xml version="1.0" encoding="UTF-8" standalone="no"?>
<!-- Created with Inkscape (http://www.inkscape.org/) -->

<svg
   width="512"
   height="512"
   viewBox="0 0 135.46667 135.46667"
   version="1.1"
   id="svg1"
   xml:space="preserve"
   xmlns="http://www.w3.org/2000/svg"
   xmlns:svg="http://www.w3.org/2000/svg"><defs
     id="defs1" /><path
     style="fill:#000000;stroke:none;stroke-width:0.544082"
     d="m 44.782752,133.84164 c -2.904999,-0.63017 -5.410625,-2.07191 -7.412117,-4.26489 -1.661658,-1.82063 -2.754919,-4.13268 -3.127696,-6.61451 -0.135563,-0.90255 -0.183522,-4.73911 -0.190528,-15.24175 l -0.0094,-14.035615 0.537701,-1.079656 c 0.295735,-0.593819 0.864505,-1.630298 1.263932,-2.303284 0.399426,-0.672986 0.879611,-1.709465 1.067068,-2.303284 0.676196,-2.141966 1.071738,-5.978734 0.880004,-8.536077 l -0.103991,-1.387077 -1.219798,0.930727 c -0.670886,0.5119 -1.335007,0.992388 -1.475823,1.067749 -0.233867,0.125155 -0.264834,0.537241 -0.357733,4.760589 -0.08404,3.82064 -0.146093,4.766193 -0.357312,5.444843 -0.656003,2.107743 -2.986603,4.610059 -5.416426,5.815502 -2.152112,1.067666 -4.106268,1.404325 -8.153005,1.404581 l -3.114532,1.92e-4 -0.755611,-0.395875 c -0.59525,-0.311856 -0.850788,-0.563909 -1.204068,-1.187622 l -0.448456,-0.791756 v -6.514004 -6.51401 l -1.036587,4.2e-5 c -1.673206,8.3e-5 -2.467981,-0.23133 -3.158163,-0.91954 -0.850589,-0.848153 -1.0596077,-1.664927 -1.0596077,-4.1406 0,-7.119672 3.1568917,-14.796114 7.8553297,-19.101373 2.071017,-1.897716 5.12236,-3.673031 8.411584,-4.893979 3.486677,-1.294245 5.510068,-1.497257 14.300099,-1.434766 l 6.166644,0.04386 0.347321,0.403901 0.347313,0.403909 v 3.726864 3.726872 l 3.107112,0.04395 3.107114,0.04395 0.39624,0.443762 c 0.248802,0.278654 0.489146,0.814262 0.64596,1.439551 0.753762,3.005483 2.119295,5.04455 4.4671,6.670428 2.052452,1.421349 6.137534,2.072958 9.448481,1.507141 2.798624,-0.478275 4.447496,-1.330813 6.21067,-3.21119 1.489031,-1.588017 2.016313,-2.537749 3.062593,-5.516291 0.151567,-0.431473 0.407293,-0.801608 0.696205,-1.007688 0.435172,-0.310405 0.602899,-0.327769 3.567602,-0.369339 l 3.110953,-0.04362 0.09814,-1.176776 c 0.05398,-0.647222 0.05896,-2.279477 0.01103,-3.627224 -0.06783,-1.907285 -0.04436,-2.530227 0.105859,-2.810341 0.384796,-0.717549 0.734805,-0.745428 8.534387,-0.679802 8.92772,0.07513 9.32674,0.126341 13.28817,1.705659 3.64276,1.452271 5.43624,2.563695 7.81465,4.84279 4.28102,4.102248 6.65403,9.021087 7.54539,15.640352 0.17555,1.303657 0.23142,2.446318 0.18726,3.830045 -0.0573,1.795679 -0.0988,2.04536 -0.46375,2.791336 -0.2744,0.560841 -0.58581,0.941797 -0.98728,1.20778 -0.53518,0.35457 -0.7291,0.392774 -2.21813,0.436938 l -1.63169,0.04843 0.0884,6.429569 0.0884,6.429571 -0.44036,0.67787 c -0.52222,0.803864 -1.42305,1.49311 -2.23842,1.712666 -0.75558,0.20346 -7.96346,0.08296 -8.84811,-0.14791 -2.83828,-0.740751 -5.60836,-2.528429 -6.875147,-4.436941 -0.997829,-1.503285 -1.074292,-1.972479 -1.210874,-7.429762 -0.06708,-2.680466 -0.14903,-4.900628 -0.182107,-4.933698 -0.03309,-0.03309 -0.419483,-0.333997 -0.858685,-0.668707 -0.4392,-0.33471 -1.123821,-0.8858 -1.521378,-1.224656 l -0.722828,-0.616093 -0.1026,0.821153 c -0.180084,1.44135 0.03367,5.886442 0.352066,7.320875 0.466787,2.10305 1.100194,3.673585 2.032023,5.038414 0.663533,0.971882 1.117071,1.984727 1.291367,2.883902 0.121333,0.625902 0.151733,4.608161 0.112087,14.678603 -0.04967,12.6154 -0.0767,13.91377 -0.309849,14.89934 -1.287238,5.44068 -5.398687,9.345 -10.840015,10.29389 -1.771848,0.30898 -41.067125,0.30178 -42.494181,-0.007 z m 42.955494,-3.35668 c 2.987066,-1.00871 5.110747,-2.70464 6.320884,-5.04768 1.177759,-2.28036 1.106307,-1.28634 1.196906,-16.64958 0.04436,-7.52849 0.03848,-13.913535 -0.01327,-14.188972 -0.05166,-0.275453 -0.456595,-1.047201 -0.899852,-1.715021 -1.079017,-1.625688 -1.841502,-3.343236 -2.232559,-5.029002 -0.525639,-2.265902 -0.60877,-3.291251 -0.621042,-7.659897 l -0.01244,-4.420912 -1.077584,-0.737035 c -2.66531,-1.823011 -4.231177,-4.091874 -4.807798,-6.966265 -0.112245,-0.559564 -0.249408,-1.879267 -0.304792,-2.93267 l -0.100707,-1.915287 -2.305299,0.0272 c -2.172615,0.02562 -2.309637,0.0437 -2.380618,0.31514 -0.146434,0.559995 -1.36026,2.923456 -1.980821,3.85692 -2.869706,4.316653 -8.261596,6.593294 -14.322135,6.047296 -6.127052,-0.551991 -10.277552,-3.641916 -12.098723,-9.007137 l -0.390907,-1.151634 -2.17433,-0.03972 -2.174332,-0.03972 -5.45e-4,1.191379 c -0.0022,4.595656 -1.914629,8.336566 -5.624144,11.001585 l -0.682644,0.490432 0.0104,3.486975 c 0.01942,6.50459 -0.639084,9.558269 -2.859215,13.258821 l -1.064637,1.774559 0.01377,8.118445 c 0.02128,12.55874 0.190417,20.18481 0.46902,21.14638 0.762944,2.63319 2.470261,4.63942 5.01719,5.89558 2.840134,1.4008 0.81591,1.29393 23.866856,1.25998 l 20.225667,-0.0298 z m -39.781914,-2.97455 c -0.23778,-0.20009 -0.466578,-0.54017 -0.508434,-0.75577 -0.153208,-0.78906 -0.231746,-6.21114 -0.120911,-8.34729 0.110694,-2.13337 0.125428,-2.20853 0.508069,-2.59119 l 0.394062,-0.39408 17.811172,-0.0347 c 14.060099,-0.0274 17.886967,0.003 18.171061,0.14597 0.197937,0.0994 0.47315,0.40656 0.61159,0.68258 0.224513,0.44765 0.25172,1.01921 0.25192,5.29296 2.48e-4,5.31356 -0.03474,5.55181 -0.890833,6.07379 -0.471102,0.28722 -0.677414,0.29053 -18.135943,0.29106 l -17.659426,5.3e-4 z m 33.807781,-5.82628 v -3.02307 H 66.145005 50.525898 v 2.92709 c 0,1.6099 0.0432,2.97027 0.09597,3.02305 0.05274,0.0529 7.081378,0.096 15.619108,0.096 H 81.764117 Z M 47.955358,109.51521 c -0.761431,-0.6407 -0.794838,-0.94767 -0.686331,-6.30685 0.104991,-5.185677 0.138892,-5.424205 0.84084,-5.915872 0.286487,-0.200657 2.229769,-0.224671 18.184193,-0.224671 h 17.863424 l 0.422808,0.441308 0.422816,0.441315 0.12406,4.88669 c 0.06824,2.68767 0.07886,5.18798 0.02363,5.55623 -0.06808,0.45409 -0.231836,0.80096 -0.508864,1.078 l -0.408454,0.40845 H 66.311092 48.388667 Z m 33.828681,-5.26081 c 0.01186,-1.30025 0.01228,-2.70418 8.29e-4,-3.11985 l -0.02081,-0.75577 H 66.144947 50.525832 v 3.09439 3.09439 l 15.583126,0.0366 c 8.570716,0.0202 15.598941,0.0316 15.618279,0.0255 0.01932,-0.006 0.04486,-1.075 0.05672,-2.37526 z M 47.980913,91.221335 c -0.851057,-0.419706 -0.873752,-0.588687 -0.854969,-6.36615 l 0.01703,-5.23082 0.403905,-0.347439 0.403904,-0.347431 h 18.194245 18.194246 l 0.403901,0.347282 0.403901,0.347281 0.04453,5.087015 c 0.04784,5.461071 -3.4e-5,5.940904 -0.643267,6.446867 -0.374571,0.294642 -0.43576,0.295621 -18.242822,0.292362 -15.930052,-0.0025 -17.916596,-0.02778 -18.32462,-0.228967 z m 33.783863,-4.410306 c 3.57e-4,-0.811551 0.04262,-2.204306 0.09396,-3.095031 l 0.09332,-1.619493 H 66.238981 50.525898 v 3.095031 3.095032 h 15.619107 15.619108 z m -56.334023,7.032022 c 2.125456,-0.565899 4.587177,-2.426823 5.404303,-4.085347 l 0.472849,-0.959742 0.07198,-3.577926 0.07198,-3.577932 L 31.02,81.744352 c -0.237525,0.05622 -3.168809,0.129335 -6.513962,0.162455 l -6.082097,0.0602 -2.79e-4,2.044126 c -1.54e-4,1.124266 -0.04296,3.841759 -0.09512,6.038878 l -0.09485,3.994745 3.226148,-0.0017 c 2.278882,-8.29e-4 3.444828,-0.05996 3.970922,-0.200002 z m 88.893517,-0.05026 c 0.033,-0.138556 0.0142,-2.065751 -0.0417,-4.282663 -0.0558,-2.216903 -0.10769,-4.819886 -0.11508,-5.784412 l -0.0135,-1.753679 -6.0821,-0.04975 c -4.38336,-0.03583 -6.19551,-0.09898 -6.48814,-0.226007 l -0.40604,-0.176244 0.0461,3.995043 c 0.0434,3.751384 0.0653,4.036614 0.36088,4.676439 0.17312,0.374762 0.4859,0.905775 0.69509,1.180027 0.5773,0.756878 2.17898,1.775048 3.53446,2.246813 l 1.21393,0.422501 3.61807,0.0025 c 3.32792,0.0017 3.62288,-0.01824 3.67797,-0.249987 z m 5.06684,-17.598493 -0.0173,-2.663161 -0.65753,-2.553562 c -0.77631,-3.014967 -1.52846,-4.813905 -2.84207,-6.797546 -1.46788,-2.216613 -3.1418,-3.969338 -5.18749,-5.431743 -1.28769,-0.920518 -4.21912,-2.403023 -5.74584,-2.905835 -2.53343,-0.834338 -2.73387,-0.852995 -9.824951,-0.91459 l -6.585938,-0.05722 v 5.747713 c 0,5.892951 0.049,6.577215 0.570924,7.972161 0.769409,2.056438 1.946658,3.239492 4.943608,4.967979 0.934841,0.539174 2.578834,1.679621 3.653317,2.534324 3.42643,2.725578 2.8451,2.590919 11.63367,2.694788 3.87958,0.04586 7.73398,0.08035 8.56532,0.07662 l 1.51152,-0.0066 z M 30.4105,78.5741 c 1.844567,-0.390874 3.442048,-1.327116 5.816454,-3.408863 0.488574,-0.428363 1.624742,-1.243445 2.524821,-1.81131 3.193613,-2.01487 4.327311,-3.283723 5.016668,-5.614754 0.316144,-1.069009 0.333065,-1.374307 0.38707,-6.984043 l 0.05648,-5.866159 -5.9482,5.97e-4 c -4.598389,4.47e-4 -6.250453,0.04958 -7.280139,0.216594 -3.805939,0.617262 -7.903556,2.638989 -10.797175,5.327218 -3.751094,3.484837 -5.924185,7.789707 -6.866081,13.601618 -0.222,1.369837 -0.295048,3.818419 -0.132057,4.426617 l 0.0868,0.323898 8.080679,-0.0025 c 6.460602,-0.0025 8.275952,-0.04386 9.054684,-0.20889 z M 63.493976,60.932531 c -2.128981,-0.297751 -5.321522,-1.183426 -7.226942,-2.004903 -1.977339,-0.852472 -3.995725,-2.281748 -5.897828,-4.176397 -0.917517,-0.913926 -2.009993,-2.147529 -2.427717,-2.741349 -0.896625,-1.2746 -1.91841,-3.297895 -2.179052,-4.314862 -0.13885,-0.541761 -0.252471,-0.72356 -0.452209,-0.72356 -0.752459,0 -2.59961,-0.516004 -3.457965,-0.965987 -1.210016,-0.634344 -2.435903,-1.912518 -3.165021,-3.300042 -0.938905,-1.786732 -0.969173,-2.080843 -0.968362,-9.40969 3.97e-4,-3.602474 0.06325,-6.982171 0.139655,-7.51044 0.301894,-2.087109 1.067298,-3.390499 2.593838,-4.416973 l 0.932382,-0.626949 0.304876,-1.532375 c 0.385096,-1.9356 0.886701,-3.419007 1.71129,-5.060863 3.963912,-7.8926275 10.490984,-12.4411139 19.234711,-13.40400103 2.683652,-0.29553326 7.744289,0.0290228 10.635148,0.68208343 6.258236,1.4137541 12.510741,6.3273219 15.380738,12.0870436 1.11387,2.235397 1.807421,4.317788 2.191147,6.578941 0.14402,0.848681 0.219108,1.003682 0.575427,1.187944 0.624476,0.32293 1.752527,1.520606 2.107163,2.237219 0.717117,1.449115 0.763106,1.944159 0.760669,8.189121 -0.0033,8.449076 -0.212133,10.151931 -1.489993,12.149537 -1.141658,1.784708 -3.543687,3.115431 -5.623493,3.115431 -0.45261,0 -0.48918,0.03856 -0.648192,0.68379 -0.253263,1.027582 -1.34108,3.149463 -2.183949,4.259968 -1.219955,1.607312 -3.819373,4.12884 -5.167369,5.012525 -2.614643,1.714043 -5.923749,3.122529 -8.758419,3.72795 -1.584401,0.338384 -5.391525,0.49068 -6.920533,0.276838 z m 5.931751,-3.379134 c 1.817305,-0.316907 3.261873,-0.817115 5.356572,-1.854795 2.249061,-1.114145 3.748051,-2.205095 5.434222,-3.954952 2.057228,-2.134942 3.307971,-4.280656 3.513239,-6.027138 l 0.09601,-0.816989 -0.634949,0.395327 c -1.018816,0.634327 -2.375999,1.235079 -3.190518,1.412276 -1.182356,0.257219 -27.167578,0.257451 -28.034868,2.49e-4 -0.709381,-0.210367 -2.440539,-1.05201 -3.04527,-1.480523 -0.210168,-0.148913 -0.410892,-0.27076 -0.44606,-0.27076 -0.131084,0 0.194969,1.612337 0.487579,2.411134 0.419383,1.144868 1.90076,3.336173 3.193868,4.724468 2.469031,2.650798 6.469316,4.636577 10.966393,5.443824 1.546845,0.277668 4.76175,0.286789 6.303777,0.01791 z M 44.880724,28.437294 c 0.453781,-0.794447 -0.83733,-0.745182 21.096188,-0.804957 19.91692,-0.05428 20.267327,-0.05044 20.618299,0.225631 0.848708,0.667593 0.834039,0.494323 0.719132,8.493327 l -0.104996,7.309234 h 0.344155 c 0.551147,0 1.803184,-0.700293 2.275239,-1.272593 0.239017,-0.289766 0.573338,-0.88313 0.742957,-1.318591 0.29062,-0.746133 0.31553,-1.156734 0.432236,-7.125773 0.06808,-3.483711 0.08702,-6.647197 0.04204,-7.029971 -0.215939,-1.83624 -1.205906,-3.207463 -2.954842,-4.092797 l -0.928663,-0.4701 -21.020483,0.03824 -21.020486,0.03824 -0.945902,0.465682 c -1.223902,0.602548 -2.118383,1.399389 -2.651703,2.362255 l -0.427012,0.770936 -0.04461,6.477974 c -0.04739,6.886142 0.0059,7.645376 0.62095,8.84843 0.47722,0.933398 1.422322,1.780629 2.337375,2.095322 l 0.541198,0.18612 0.07197,-7.436355 c 0.05502,-5.684641 0.115558,-7.512644 0.256986,-7.760245 z m 35.587801,14.759024 c 1.481061,-0.733726 2.366769,-1.564125 2.969851,-2.784378 l 0.544911,-1.10256 0.104119,-2.466974 c 0.05722,-1.356835 0.108579,-3.195742 0.114028,-4.086464 l 0.0098,-1.619493 H 66.001035 47.79073 v 3.496652 c 0,3.911498 0.113294,4.659935 0.905813,5.984189 0.78203,1.306725 2.459047,2.561116 3.884069,2.905239 0.25546,0.06169 6.456604,0.101783 13.780308,0.0891 l 13.31584,-0.02305 z M 66.369619,19.044233 H 87.516128 L 87.145596,18.00056 C 86.002155,14.779834 83.866666,11.680089 81.116318,9.2488283 78.369505,6.8206822 74.742265,5.0406642 70.823542,4.1977899 68.761622,3.7542931 63.555728,3.7102677 61.543669,4.1193116 c -4.429461,0.9004926 -8.228683,2.9273969 -11.38075,6.0716904 -2.657936,2.651381 -4.253264,5.204053 -5.159499,8.255667 -0.205973,0.693579 -0.206408,0.761071 -0.0043,0.683563 0.123262,-0.0473 9.740037,-0.086 21.370618,-0.086 z"
     id="path155" /><path
     style="fill:#ffffff;stroke:none;stroke-width:1.28388;stroke-dasharray:none"
     d="m 45.025314,18.699598 c 0.291777,-1.217202 1.311926,-3.384778 2.279039,-4.842426 3.093556,-4.6626504 7.544564,-7.8651079 13.035354,-9.3788074 1.515724,-0.4178549 1.71332,-0.4336137 5.520441,-0.4402714 3.638757,-0.00636 4.066133,0.022431 5.448862,0.3671228 7.608996,1.896798 13.09166,6.696888 15.849288,13.876108 l 0.257831,0.671237 H 67.145542 c -11.148822,0 -20.711446,0.04608 -21.250273,0.102397 l -0.979683,0.102397 z"
     id="path167" /><path
     style="fill:#ffffff;stroke:none;stroke-width:1.28388;stroke-dasharray:none"
     d="m 87.323213,35.996971 0.01651,-7.593923 -0.423662,-0.365196 c -0.38027,-0.327793 -0.645681,-0.37709 -2.591316,-0.481296 -1.19221,-0.06386 -10.386282,-0.05363 -20.431274,0.02273 -20.98765,0.159538 -19.029699,-0.01133 -19.180794,1.673783 -0.04892,0.545632 -0.134244,3.959315 -0.189601,7.585967 -0.07893,5.170879 -0.143917,6.593911 -0.301143,6.593911 -0.421563,0 -1.757974,-1.058574 -2.232176,-1.76811 -0.766334,-1.146651 -0.847071,-2.019778 -0.845418,-9.142547 l 0.0016,-6.383553 0.46483,-0.810447 c 0.573292,-0.99955 1.450192,-1.765791 2.757125,-2.409192 l 0.999199,-0.491904 h 20.873171 20.87317 l 0.79869,0.404725 c 1.674714,0.848643 2.660851,2.128715 2.981288,3.869921 0.20107,1.092573 -0.07126,13.239301 -0.315707,14.081657 -0.254145,0.875768 -1.09642,1.883378 -1.980586,2.36937 -1.407178,0.773473 -1.292421,1.418167 -1.273783,-7.155899 z"
     id="path168" /><path
     style="fill:#ffffff;stroke:none;stroke-width:1.28388;stroke-dasharray:none"
     d="m 54.093768,43.441296 c -2.26471,-0.106551 -2.808127,-0.311193 -4.150249,-1.562894 -1.788758,-1.668246 -2.009334,-2.445647 -2.009334,-7.081737 v -3.524941 h 18.109177 18.109179 l -0.104725,3.953904 -0.104724,3.953902 -0.472157,0.935339 c -0.664486,1.316342 -1.295411,1.972678 -2.669548,2.777064 l -1.194028,0.698958 -11.769683,-0.02835 c -6.473325,-0.01558 -12.658085,-0.07015 -13.743908,-0.12124 z"
     id="path169" /><path
     style="fill:#ffffff;stroke:none;stroke-width:1.28388;stroke-dasharray:none"
     d="M 62.912127,57.399953 C 62.246239,57.279462 61.002478,56.958401 60.148212,56.686486 56.433309,55.504015 53.596605,53.714403 51.633246,51.314595 49.84254,49.125821 48.912929,47.422166 48.651267,45.849671 l -0.110336,-0.663075 1.622597,0.821013 1.622597,0.82101 13.651307,0.04372 c 8.865216,0.02839 13.962552,-0.01323 14.539068,-0.11874 0.488268,-0.08935 1.518783,-0.481266 2.290035,-0.870923 l 1.402276,-0.708465 -0.07845,0.696042 c -0.180179,1.598534 -1.674961,4.00008 -3.832918,6.158037 -2.617645,2.617642 -6.658468,4.757619 -10.185747,5.394262 -1.513028,0.273087 -5.092584,0.26094 -6.659565,-0.02259 z"
     id="path170" /><path
     style="fill:#ffffff;stroke:none;stroke-width:1.28388;stroke-dasharray:none"
     d="m 13.248754,78.242641 c -0.174294,-0.694444 0.06762,-3.976516 0.412113,-5.591157 0.415252,-1.946296 1.153292,-4.18039 1.904397,-5.764739 2.646606,-5.582632 7.749247,-9.736648 14.01056,-11.405878 1.512057,-0.403106 1.648108,-0.411194 8.077325,-0.480293 l 6.539362,-0.07028 -0.113657,5.787049 c -0.08349,4.250862 -0.175096,6.026459 -0.345104,6.688947 -0.591785,2.306063 -1.665822,3.588565 -4.761532,5.685727 -1.062902,0.720055 -2.626225,1.866955 -3.47405,2.548665 -1.734677,1.394806 -2.703187,2.001962 -4.074343,2.554181 l -0.94179,0.379297 -8.56323,0.04705 -8.56323,0.04705 z"
     id="path171" /><path
     style="fill:#ffffff;stroke:none;stroke-width:1.28388;stroke-dasharray:none"
     d="m 18.358434,92.134044 c 0.02069,-1.029861 0.08206,-3.738115 0.136357,-6.018345 l 0.09873,-4.145873 h 4.93288 c 2.713085,0 5.594999,-0.047 6.404257,-0.104441 l 1.471374,-0.104442 -0.09759,3.49145 c -0.09371,3.352607 -0.113967,3.523763 -0.509365,4.304046 -0.77937,1.53801 -2.556362,3.044632 -4.65634,3.947874 -0.806223,0.346774 -1.118403,0.378251 -4.343295,0.437917 l -3.474636,0.06429 z"
     id="path172" /><path
     style="fill:#ffffff;stroke:none;stroke-width:1.28388;stroke-dasharray:none"
     d="m 45.964003,130.59806 c -0.999739,-0.10525 -1.553425,-0.27575 -2.684947,-0.82679 -2.679216,-1.30476 -4.338434,-2.94049 -5.226759,-5.1528 -0.585023,-1.45696 -0.674373,-3.44006 -0.801534,-17.7898 l -0.107911,-12.177626 1.043125,-1.799892 c 2.34877,-4.052752 2.951494,-6.87206 2.955245,-13.823458 l 0.0016,-3.0211 0.874718,-0.674838 c 3.371186,-2.600852 5.143018,-5.985227 5.392798,-10.300783 l 0.09827,-1.697834 h 2.070656 2.070653 l 0.459118,1.352241 c 1.300086,3.829116 4.179309,6.730913 7.92869,7.990848 2.139585,0.718981 4.046106,0.96933 6.612091,0.868244 3.330268,-0.131197 5.750171,-0.840598 8.139134,-2.386008 2.25184,-1.456708 3.492217,-2.907702 4.974783,-5.819505 l 0.98107,-1.926849 2.148274,-0.04392 c 2.51007,-0.05131 2.240031,-0.323913 2.390296,2.412987 0.05246,0.955524 0.201644,2.197322 0.33152,2.759549 0.555025,2.402715 2.084798,4.609094 4.360014,6.288413 l 1.34553,0.993127 0.09072,4.692642 c 0.127267,6.583286 0.570405,8.656894 2.551152,11.937833 0.373721,0.619038 0.795555,1.352979 0.937406,1.630979 0.232079,0.45483 0.257482,1.720358 0.253611,12.63504 -0.0024,6.67128 -0.06893,13.18502 -0.147916,14.475 -0.134635,2.19876 -0.177426,2.416 -0.684429,3.47463 -1.365679,2.85158 -3.281593,4.51428 -6.55637,5.68985 l -1.154462,0.41443 -19.693353,-0.021 c -10.831344,-0.0116 -20.260112,-0.0807 -20.952815,-0.1536 z m 38.349466,-3.0319 c 0.761674,-0.49913 0.7996,-0.78244 0.80763,-6.03286 0.0071,-4.66186 -0.008,-4.92253 -0.316971,-5.44887 -0.269658,-0.45941 -0.443048,-0.57081 -1.026597,-0.65952 -0.386178,-0.0587 -8.562361,-0.11202 -18.169295,-0.11846 -16.450361,-0.011 -17.481733,0.004 -17.717548,0.26498 -0.58832,0.65008 -0.637474,1.11883 -0.641744,6.1198 -0.0044,5.16803 0.02093,5.3713 0.743212,5.96065 0.316306,0.25809 1.422124,0.27255 18.111907,0.2369 16.822669,-0.0359 17.798307,-0.0532 18.209406,-0.32262 z m 0.548539,-18.27306 0.377743,-0.55278 -0.06457,-5.40838 -0.06456,-5.408386 -0.454898,-0.474808 -0.454893,-0.474811 -16.909304,0.01125 c -9.300115,0.0062 -17.458331,0.06123 -18.129367,0.122343 -1.86426,0.16977 -1.806808,-0.0046 -1.959557,5.947032 -0.126344,4.92278 -0.04761,5.79954 0.576884,6.42403 l 0.447612,0.44761 18.128583,-0.0402 18.128581,-0.0401 z m -0.176559,-18.22801 0.443137,-0.381016 0.04541,-5.570487 0.04541,-5.570487 -0.440254,-0.360336 -0.440253,-0.360339 -18.251776,-0.0057 -18.251774,-0.0057 -0.444026,0.463463 -0.444024,0.46346 0.07386,5.261792 c 0.07939,5.655453 0.126923,5.987976 0.896366,6.270364 0.252031,0.09249 7.37049,0.155855 18.368151,0.163491 l 17.956639,0.01246 z"
     id="path173" /><path
     style="fill:#ffffff;stroke:none;stroke-width:1.28388;stroke-dasharray:none"
     d="m 50.619132,85.207554 v -3.07979 H 66.27646 81.933793 l -0.100439,0.732764 c -0.05524,0.403021 -0.100436,1.788927 -0.100436,3.079792 v 2.347026 H 66.176024 50.619132 Z"
     id="path174" /><path
     style="fill:#ffffff;stroke:none;stroke-width:1.28388;stroke-dasharray:none"
     d="m 58.081703,106.49044 -7.462571,-0.0433 v -2.99927 -2.99928 h 15.560302 15.560305 l -0.0429,3.04031 -0.0429,3.0403 -8.054837,0.002 c -4.43016,0.001 -11.412996,-0.0172 -15.517408,-0.041 z"
     id="path175" /><path
     style="fill:#ffffff;stroke:none;stroke-width:1.28388;stroke-dasharray:none"
     d="m 50.619132,121.69123 v -2.92185 h 15.556892 15.556894 v 2.92185 2.92186 H 66.176024 50.619132 Z"
     id="path176" /><path
     style="fill:#ffffff;stroke:none;stroke-width:1.28388;stroke-dasharray:none"
     d="m 106.84506,78.647009 c -6.09362,-0.137613 -5.61217,0.0076 -9.398725,-2.83446 -1.216901,-0.91336 -2.917227,-2.087087 -3.778501,-2.608284 -2.793625,-1.690545 -4.156872,-3.280987 -4.74381,-5.534393 -0.196231,-0.753377 -0.241832,-2.039062 -0.241832,-6.817953 v -5.889493 l 4.382778,0.0076 c 6.483094,0.01119 9.2762,0.188889 11.01618,0.70089 1.57905,0.464648 4.66111,1.921655 6.23855,2.949194 1.36423,0.888661 4.31285,3.866547 5.29228,5.344827 1.5189,2.292477 2.30388,4.211084 3.24336,7.927147 0.4211,1.665681 0.46683,2.094934 0.46683,4.382778 v 2.536248 l -3.90897,-0.02942 c -2.14993,-0.01619 -6.00559,-0.07677 -8.56814,-0.134639 z"
     id="path177" /><path
     style="fill:#ffffff;stroke:none;stroke-width:1.28388;stroke-dasharray:none"
     d="m 105.77653,93.498196 c -2.12341,-0.862571 -3.25575,-1.76625 -4.03252,-3.21823 -0.32727,-0.611751 -0.35083,-0.884076 -0.39901,-4.61127 l -0.0512,-3.961122 0.84089,0.119594 c 0.46249,0.06578 3.33547,0.124786 6.3844,0.131128 l 5.54352,0.01154 0.11431,5.866736 c 0.0933,4.789199 0.0759,5.891072 -0.0947,5.999226 -0.11493,0.07287 -1.77254,0.131601 -3.68359,0.130516 l -3.47464,-0.0019 z"
     id="path178" /></svg>
