<?xml version="1.0" encoding="UTF-8" standalone="no"?>
<!-- Created with Inkscape (http://www.inkscape.org/) -->

<svg
   width="512"
   height="512"
   viewBox="0 0 135.46667 135.46667"
   version="1.1"
   id="svg1"
   xml:space="preserve"
   xmlns="http://www.w3.org/2000/svg"
   xmlns:svg="http://www.w3.org/2000/svg"><defs
     id="defs1" /><path
     id="path37"
     style="fill:#000000;stroke-width:0.577044"
     d="m 42.600502,2.1600749 c -0.511978,0.00805 -0.905415,0.176658 -1.35754,0.5084961 -0.57161,0.4195339 -0.76523,0.6924588 -1.052133,1.484664 -0.193357,0.5339022 -0.573367,1.3828751 -0.844392,1.8867066 -1.124896,2.0911657 -1.680512,4.0043494 -2.208651,7.6041874 -0.427993,2.917271 -0.404959,5.395346 0.08268,8.853206 0.288934,2.048795 0.554024,3.277468 1.00769,4.672067 0.822897,2.529636 1.93003,5.080491 2.97553,6.856946 l 0.858345,1.458825 -0.314193,1.00304 c -0.736262,2.349465 -2.06241,7.299573 -2.599841,9.705351 l -0.57981,2.595707 -0.809253,0.09974 c -2.369048,0.29203 -4.649535,1.97603 -5.711279,4.217313 l -0.486275,1.026811 -0.04496,13.893209 -0.04496,13.893726 0.409794,1.26969 c 0.225405,0.69833 0.589006,1.522597 0.808219,1.83193 l 0.398426,0.562756 0.07648,21.526844 0.07648,21.52737 0.496094,1.01389 c 0.888191,1.81543 2.399515,3.18846 4.312915,3.91759 l 0.839742,0.31988 29.109335,0.008 c 28.152696,0.008 29.140163,-0.001 30.038994,-0.28112 2.391291,-0.74426 4.324531,-2.80856 4.976951,-5.31337 0.19882,-0.76316 0.22783,-5.44768 0.22583,-36.835472 -0.002,-39.162758 0.0555,-36.585235 -0.85576,-38.460702 -0.79634,-1.638881 -2.785693,-3.301076 -4.600236,-3.843693 L 97.340314,49.0306 c -0.120369,-0.01526 -0.238194,-0.04779 -0.357084,-0.07235 -0.10132,-0.01792 -0.203981,-0.02581 -0.305925,-0.03979 -0.145359,-0.01713 -0.288284,-0.04503 -0.429431,-0.08372 -0.06682,-0.01664 -0.134241,-0.02932 -0.202571,-0.03772 -0.06104,-0.007 -0.122598,-0.0087 -0.183968,-0.01034 -0.08927,-0.0021 -0.178394,-0.0026 -0.267684,-0.0031 -0.08898,-3.91e-4 -0.178178,-4.44e-4 -0.267168,-5.17e-4 -0.08431,-6e-5 -0.168387,1.1e-5 -0.252697,0 -0.08895,-9e-6 -0.178217,1e-6 -0.267167,0 -0.09027,-2e-6 -0.180515,0 -0.270785,0 h -0.372587 -0.47749 -0.354501 -0.294555 -0.276986 -0.204122 v 0.08217 H 86.57818 80.601284 l 0.700215,-0.372588 c 0.385278,-0.204855 1.202422,-0.521798 1.815394,-0.704349 1.286202,-0.383047 2.034358,-1.036372 2.200382,-1.92133 0.22994,-1.225685 -0.879439,-4.209092 -2.695443,-7.248653 -1.513921,-2.533944 -3.736135,-5.412307 -8.807214,-11.40654 -0.608796,-0.719624 -1.10691,-1.390435 -1.10691,-1.490865 0,-0.100429 0.489035,-1.031503 1.087273,-2.069124 1.581151,-2.742445 3.505094,-6.268282 4.471045,-8.194332 l 0.841809,-1.678451 0.578259,0.134359 c 2.119247,0.491988 4.894879,-0.184684 6.382556,-1.555977 0.869699,-0.80166 1.251488,-1.522988 1.540992,-2.9114507 C 88.160888,6.801942 86.647482,3.9444635 84.042417,2.7104289 82.152601,1.8152117 80.136595,2.1112184 78.319769,3.550171 76.85801,4.7079059 75.897377,6.9487982 75.894077,9.2082237 c -0.0011,0.7845356 -0.06515,1.3358363 -0.154512,1.3358363 -0.255445,0 -5.766722,2.209888 -7.544243,3.025138 -0.919135,0.421557 -2.352834,1.142854 -3.185852,1.602486 l -1.514636,0.835608 -0.996322,-0.986503 C 61.338861,13.872493 56.833431,10.289286 54.080938,8.3266237 53.03129,7.5781736 51.760136,6.6483858 51.256304,6.2600832 48.921932,4.460984 46.991219,3.392092 44.669109,2.6143108 43.743071,2.3041381 43.112479,2.1520263 42.600502,2.1600749 Z m 1.704288,3.8033855 c 0.214247,0 3.915008,2.3781225 5.823934,3.7424074 1.040041,0.7433022 2.68113,1.9776082 3.646806,2.7429852 0.965677,0.765377 2.167802,1.695228 2.671155,2.066024 0.503354,0.370796 1.483008,1.219289 2.177128,1.885673 l 1.261939,1.211812 -2.78381,1.580265 c -1.531106,0.869293 -2.854159,1.575847 -2.940389,1.570447 -0.354466,-0.02241 -3.252398,-3.62961 -4.959387,-6.173267 C 47.404688,11.911308 44.027887,5.9634604 44.30479,5.9634604 Z m -2.608626,2.7481528 c 0.05993,0 0.380165,0.5661513 0.712101,1.2578044 1.335074,2.7818804 5.346556,8.8674774 8.191748,12.4271484 3.7163,4.649531 12.547382,13.222233 17.603578,17.08888 5.808715,4.442126 7.119318,5.278295 9.91619,6.326229 l 0.450619,0.168982 -0.639238,0.381372 c -0.351773,0.209773 -1.379388,0.555606 -2.283064,0.768429 -1.373645,0.323505 -2.106038,0.39584 -4.467428,0.4408 -2.92331,0.05565 -3.904822,-0.02673 -6.405811,-0.536402 -3.975038,-0.810061 -9.362076,-3.131539 -12.296924,-5.299418 -2.675111,-1.976019 -5.387124,-5.03649 -7.946802,-8.967411 -1.562505,-2.399552 -3.014728,-6.299712 -3.81217,-10.238135 -0.666193,-3.290216 -0.45287,-8.007855 0.564306,-12.482443 0.167026,-0.7347539 0.352955,-1.3358358 0.412895,-1.3358358 z m 33.394345,5.6911258 c 0.02395,0.02395 -0.473922,0.934532 -1.106393,2.023649 -0.632471,1.089117 -1.735169,3.045458 -2.450496,4.347022 -0.715327,1.301564 -1.317746,2.385201 -1.338936,2.408121 -0.02119,0.02292 -0.568644,-0.542177 -1.216464,-1.255737 -0.647819,-0.71356 -1.654198,-1.757002 -2.236039,-2.318722 -0.581842,-0.561721 -1.057817,-1.068342 -1.057817,-1.125512 0,-0.05718 0.910506,-0.46797 2.023133,-0.913123 1.112628,-0.445153 2.366533,-0.98155 2.786393,-1.191658 1.064922,-0.532916 4.543759,-2.0269 4.596619,-1.97404 z m -12.586312,5.843571 0.712101,0.772046 c 0.391676,0.424751 1.611314,1.728792 2.709912,2.897497 1.0986,1.168703 2.079966,2.27894 2.180746,2.46755 0.164317,0.30752 0.02237,0.618823 -1.370976,3.01532 -0.854573,1.469834 -1.594985,2.67202 -1.645895,2.671155 -0.197786,-0.0033 -4.391959,-4.007546 -6.501412,-6.206857 l -2.220536,-2.315104 0.497644,-0.297139 c 0.797943,-0.477073 4.412677,-2.430095 5.052922,-2.730066 z m 8.360213,8.99325 c 0.37015,0.228765 3.49874,4.083083 5.458582,6.724654 2.084142,2.809108 4.629175,6.70793 4.629175,7.091557 0,0.08841 -0.08624,0.153911 -0.191203,0.145211 -0.393173,-0.0326 -5.286928,-2.707676 -6.75566,-3.692798 -1.812228,-1.215518 -6.313366,-4.705341 -6.326746,-4.905127 -0.0052,-0.07693 0.289843,-0.626262 0.655774,-1.221114 0.365931,-0.59485 1.057494,-1.787229 1.536857,-2.649451 0.479362,-0.862221 0.926561,-1.534142 0.993221,-1.492932 z m -26.226823,9.854696 c 0.06172,0 0.417169,0.396026 0.789615,0.880049 0.964738,1.25375 3.335756,3.468452 4.857585,4.537191 1.171025,0.82238 1.315433,0.977899 1.451591,1.564762 l 0.151412,0.65164 h -4.705139 c -2.587735,0 -4.704954,-0.05123 -4.704623,-0.114205 5.34e-4,-0.101275 1.450293,-5.452349 1.882056,-6.946863 0.09097,-0.314895 0.215793,-0.572574 0.277503,-0.572574 z m 10.924398,8.573637 c 0.03184,0.0022 0.08081,0.01924 0.146244,0.04548 0.154772,0.06206 0.813728,0.318297 1.46451,0.569474 0.650781,0.251176 1.18339,0.485235 1.18339,0.519865 0,0.03464 -0.513966,0.06305 -1.142049,0.06305 H 56.072031 L 55.74957,48.233233 c -0.225079,-0.441201 -0.28312,-0.57182 -0.187585,-0.56534 z m 12.03079,4.742346 c 28.490823,0.04219 29.1751,0.0501 29.757358,0.338997 0.809044,0.40142 1.590185,1.21281 1.980757,2.057239 l 0.324012,0.700733 0.03979,35.642269 c 0.04483,39.870283 0.134192,36.664683 -1.052132,37.951693 -0.338508,0.36725 -0.936577,0.82542 -1.328601,1.01854 l -0.712618,0.3514 -28.168824,0.0289 c -22.356146,0.0232 -28.315978,-0.0106 -28.882992,-0.16433 -1.194562,-0.32394 -2.313956,-1.36955 -2.699577,-2.5213 -0.126531,-0.37792 -0.17415,-6.21355 -0.17415,-21.47 V 85.393239 L 35.874297,83.58043 35.072795,81.767104 V 68.48471 55.2018 l 0.336931,-0.630453 c 0.454749,-0.850153 1.576831,-1.808821 2.371431,-2.026233 0.48725,-0.133278 7.965705,-0.167225 29.811618,-0.134875 z m -0.06976,4.12688 C 45.198436,56.503087 42.020987,56.52615 41.480156,56.727805 40.332397,57.155758 40.39192,56.6025 40.274028,67.8987 c -0.05803,5.555764 -0.05858,10.350854 -0.0016,10.65568 0.118134,0.629711 0.818642,1.412214 1.328601,1.484664 0.188224,0.02674 11.841246,0.03393 25.895578,0.01602 28.019722,-0.03571 25.920033,0.03703 26.54515,-0.91674 0.24954,-0.380735 0.272522,-1.167922 0.309542,-10.723377 0.03881,-10.018945 0.03137,-10.326358 -0.259932,-10.800374 -0.164912,-0.268346 -0.489122,-0.611748 -0.72037,-0.763261 C 92.970605,56.588979 91.73711,56.574039 67.522962,56.537119 Z M 43.699146,60.163771 H 67.28737 90.876112 v 8.167977 8.168494 H 67.287367 43.699143 v -8.168494 z m 43.70224,25.216549 c -1.722193,0.04992 -2.16756,0.286901 -2.797246,1.004073 -0.845942,0.96348 -0.903821,1.262234 -0.903821,4.643128 0,2.818726 0.02747,3.143607 0.318844,3.745508 0.360776,0.745264 1.213196,1.51812 1.894975,1.718241 0.725207,0.212873 6.122047,0.192516 6.852812,-0.02584 0.795601,-0.237719 1.849379,-1.275711 2.080493,-2.049487 0.115276,-0.38598 0.158167,-1.663348 0.125057,-3.728972 -0.05027,-3.136375 -0.05133,-3.142172 -0.471806,-3.77703 -0.23164,-0.349746 -0.707035,-0.825659 -1.056783,-1.0573 l -0.636137,-0.421163 -3.204456,-0.04961 c -0.911933,-0.01409 -1.627868,-0.01804 -2.201932,-0.0016 z m -11.170895,0.001 c -4.096853,-0.06567 -4.736594,0.119245 -5.621879,1.625224 -0.411245,0.699587 -0.421273,0.776343 -0.470773,3.523816 -0.03183,1.766777 0.01384,3.069987 0.123507,3.51193 0.256071,1.031878 0.83795,1.779563 1.730127,2.224154 0.754043,0.375755 0.864343,0.38654 3.8809,0.38654 3.400655,0 3.696967,-0.0572 4.661215,-0.903821 0.956228,-0.839581 1.058862,-1.351447 1.002522,-4.999178 l -0.04961,-3.204456 -0.421163,-0.63562 c -0.231639,-0.349749 -0.707554,-0.82566 -1.0573,-1.0573 C 79.373179,85.432138 79.366865,85.4316 76.230491,85.38132 Z m -22.02863,0.392224 c -1.336611,0.01431 -2.662297,0.102682 -3.555856,0.260449 -2.757488,0.486863 -5.249828,1.424053 -7.065718,2.657202 -1.201721,0.816072 -1.560629,1.284327 -1.560629,2.036052 0,1.021146 0.506412,1.665424 1.450558,1.846399 0.427064,0.08186 1.056045,-0.199238 2.241207,-1.001489 2.535415,-1.716252 6.948806,-2.657578 10.583333,-2.257744 2.980438,0.327877 5.528394,1.178599 7.50962,2.507858 0.825134,0.553605 1.19178,0.708483 1.676383,0.708483 1.208721,0 1.947109,-1.14405 1.540992,-2.387968 -0.156444,-0.47918 -0.4074,-0.733446 -1.345138,-1.362707 -1.985347,-1.33225 -4.933295,-2.39169 -7.854818,-2.823084 -0.935777,-0.138179 -2.283323,-0.197764 -3.619934,-0.183451 z m 19.421554,3.093351 h 2.213818 2.213819 v 2.137338 2.137337 h -2.213819 -2.213818 v -2.137337 z m 13.588318,0 h 2.137337 2.137854 v 2.137338 2.137337 H 89.34907 87.211733 v -2.137337 z m -32.791281,3.735173 c -1.316367,0.01434 -2.631025,0.136863 -3.469039,0.362768 -2.296039,0.61895 -4.692425,2.057773 -5.111316,3.069064 -0.289228,0.69826 0.0075,1.605884 0.653707,1.999878 0.70105,0.427461 1.193675,0.37086 2.036052,-0.234094 1.879973,-1.35012 3.642345,-1.909961 6.012553,-1.909961 2.497488,0 4.000306,0.43512 5.846154,1.69292 1.372743,0.935416 1.88932,0.980789 2.639116,0.230993 0.42831,-0.428307 0.519348,-0.633421 0.519348,-1.171505 0,-0.573559 -0.08279,-0.731275 -0.68678,-1.309997 -0.84227,-0.807036 -3.368347,-2.050314 -4.962488,-2.442745 -0.843281,-0.207592 -2.160939,-0.30166 -3.477307,-0.287321 z m 23.254912,6.208407 c -0.561736,-0.01148 -1.262052,-0.0058 -2.154907,0.0078 -3.211881,0.04881 -3.219239,0.04943 -3.846794,0.465088 -0.345803,0.22904 -0.821218,0.744397 -1.056783,1.145147 l -0.428398,0.72864 v 3.29437 3.29437 l 0.458887,0.75138 c 0.344637,0.56464 0.664595,0.85608 1.286743,1.1715 0.824493,0.41849 0.842092,0.42051 3.96875,0.41651 3.461786,-0.004 3.923583,-0.10093 4.773869,-1.00769 0.802265,-0.85555 0.886234,-1.30026 0.882634,-4.67103 -0.0038,-3.49658 -0.101653,-3.9186 -1.115178,-4.808488 -0.64593,-0.567124 -1.083616,-0.753116 -2.768823,-0.787548 z m 9.717753,0.0093 c -1.721829,0.05045 -2.161595,0.28591 -2.788977,1.000456 -0.843762,0.960979 -0.903821,1.266809 -0.903821,4.584729 0,2.95637 0.0094,3.04747 0.397392,3.82612 0.411871,0.82652 1.026842,1.39407 1.816427,1.67742 0.283687,0.10179 1.68809,0.15326 3.689697,0.13436 l 3.231844,-0.0305 0.661459,-0.45889 c 0.434549,-0.3015 0.807992,-0.74713 1.088305,-1.29811 l 0.426331,-0.83871 -0.04496,-3.21789 -0.04496,-3.21789 -0.421163,-0.63562 c -0.23164,-0.349723 -0.707056,-0.82566 -1.056783,-1.057296 l -0.636137,-0.421163 -3.210657,-0.04703 c -0.913252,-0.01337 -1.630057,-0.01682 -2.204,0 z m -32.777845,0.432532 c -1.861893,0 -3.484747,0.533915 -4.722192,1.553903 -0.981935,0.80939 -0.843429,2.31289 0.257865,2.79932 0.61203,0.27031 0.95682,0.19652 2.39572,-0.51315 0.973855,-0.48029 1.281019,-0.56036 2.137337,-0.55036 0.997631,0.0108 1.497698,0.17996 2.957959,1.00047 0.516094,0.28998 0.653391,0.30724 1.183907,0.1483 0.721244,-0.21608 1.090827,-0.72663 1.112077,-1.53686 0.02106,-0.80304 -0.38666,-1.3159 -1.554944,-1.95698 -1.247938,-0.684795 -2.284184,-0.944643 -3.767729,-0.944643 z m 19.008143,3.049943 h 2.213818 2.213819 v 2.13733 2.13734 h -2.213819 -2.213818 v -2.13734 z m 13.588318,0 h 2.137337 2.137854 v 2.13733 2.13734 H 89.34907 87.211733 v -2.13734 z m -32.585092,3.51244 c -0.462955,-0.004 -0.923749,0.091 -1.244885,0.28681 -1.105917,0.67439 -1.305654,2.48692 -0.379305,3.44268 0.270293,0.27887 0.70925,0.57806 0.975651,0.66456 1.26948,0.41227 2.734897,-0.5072 2.953308,-1.85312 0.117967,-0.72694 -0.403722,-1.84036 -1.045931,-2.2319 -0.330635,-0.20158 -0.795883,-0.30494 -1.258838,-0.30903 z m 20.194634,8.25738 c -2.03903,-0.004 -4.70062,0.004 -8.220687,0.016 l -13.511838,0.0465 -0.88315,0.35657 c -2.353394,0.94992 -3.693413,2.98574 -3.684013,5.59759 0.0093,2.56268 1.145532,4.42413 3.372404,5.52472 1.025765,0.50695 1.303972,0.57389 2.69596,0.65009 0.85369,0.0468 7.15182,0.0804 13.995528,0.0744 13.22244,-0.0116 13.029163,-0.002 14.501441,-0.75448 1.139459,-0.58269 1.93439,-1.37933 2.477368,-2.48305 0.48717,-0.99026 0.502295,-1.08037 0.502295,-2.93264 0,-1.78296 -0.02829,-1.96912 -0.42633,-2.77967 -0.540472,-1.1006 -1.821971,-2.29045 -2.901632,-2.69441 -1.285688,-0.48101 -1.800259,-0.60848 -7.917346,-0.62167 z m -7.533908,3.46232 c 12.438864,-0.0111 13.786961,0.0116 14.223939,0.23771 0.607524,0.31438 1.029097,0.84624 1.362707,1.7198 0.21943,0.57452 0.231775,0.78046 0.07855,1.29191 -0.225705,0.75333 -0.994382,1.64965 -1.649511,1.9234 -0.40275,0.16824 -2.962593,0.20397 -13.89631,0.19327 -7.371229,-0.007 -13.579904,-0.067 -13.797091,-0.13282 -1.39464,-0.42265 -2.327754,-2.04234 -1.961121,-3.40392 0.190398,-0.70708 1.15491,-1.78698 1.612822,-1.80558 0.15683,-0.006 6.468548,-0.0168 14.026017,-0.0238 z" /><path
     style="fill:#ffffff;stroke-width:1.28388"
     d="M 67.676436,47.442124 C 62.680389,46.811722 56.689968,44.548783 52.830263,41.833843 49.587847,39.553109 45.209728,34.288278 43.410842,30.506687 41.958893,27.454416 40.765252,23.16886 40.51544,20.111253 40.277969,17.204713 40.631868,13.192361 41.415691,9.9046048 l 0.255592,-1.0720864 0.623748,1.1510556 c 2.418823,4.463674 6.583778,10.630637 9.253183,13.700998 8.26257,9.503648 21.087393,20.305848 26.228064,22.091598 0.516409,0.179384 0.52867,0.200305 0.236908,0.404137 -0.419886,0.293344 -1.645743,0.69682 -2.984476,0.982306 -1.091771,0.232822 -6.187117,0.426532 -7.352274,0.279511 z"
     id="path44" /><path
     style="fill:#ffffff;stroke-width:0.64194"
     d="m 53.646598,20.235807 c -0.998937,-1.025693 -3.141054,-3.801655 -4.463693,-5.784479 -1.719387,-2.577605 -5.024311,-8.3707147 -4.775428,-8.3707147 0.124831,0 1.534806,0.8781696 3.504121,2.1824575 2.646691,1.7529152 8.211688,5.9555852 9.97268,7.5313392 0.976255,0.873562 1.904313,1.79633 1.851351,1.840803 -0.263943,0.221647 -5.432132,3.054666 -5.57253,3.054666 -0.04085,0 -0.273278,-0.204332 -0.516501,-0.454072 z"
     id="path45" /><path
     style="fill:#ffffff;stroke-width:0.64194"
     d="M 63.806955,30.902188 C 63.155461,30.308691 61.225439,28.419767 59.51802,26.704576 l -3.104399,-3.118526 0.340484,-0.211078 c 0.534411,-0.3313 3.87893,-2.145795 4.851191,-2.631907 l 0.878131,-0.43905 1.964754,2.10012 c 2.600452,2.779619 3.579619,3.888611 3.637695,4.120004 0.06092,0.242736 -0.274362,0.927168 -1.377939,2.812846 -1.110668,1.897795 -1.542518,2.588487 -1.637477,2.618954 -0.04343,0.01394 -0.612011,-0.460253 -1.263505,-1.053751 z"
     id="path46" /><path
     style="fill:#ffffff;stroke-width:0.64194"
     d="m 79.388824,42.497657 c -1.802585,-0.924383 -4.155416,-2.257447 -5.240893,-2.96938 -1.370735,-0.899025 -5.439596,-4.002095 -6.2151,-4.739873 -0.257382,-0.244864 -0.29822,-0.135953 0.652388,-1.739876 0.334643,-0.564629 0.830747,-1.417494 1.102453,-1.895255 0.271706,-0.477764 0.637402,-1.092391 0.812662,-1.36584 l 0.318651,-0.497184 0.234498,0.220792 c 0.570751,0.537385 3.130598,3.697502 4.848566,5.985526 1.690225,2.251072 3.542782,4.965068 4.504727,6.599418 0.446913,0.759306 0.538547,0.986073 0.426445,1.055356 -0.04232,0.02614 -0.692301,-0.268001 -1.444397,-0.653684 z"
     id="path47" /><path
     style="fill:#ffffff;stroke-width:0.64194"
     d="m 42.860427,46.612859 c -0.184589,-0.01662 -0.335619,-0.03995 -0.335619,-0.05185 0,-0.0902 1.845188,-6.794934 1.942071,-7.056771 0.0683,-0.18459 0.150921,-0.335616 0.183597,-0.335616 0.03268,0 0.322911,0.327498 0.644964,0.727778 1.150694,1.430192 3.194063,3.341214 5.006827,4.682541 1.192969,0.882719 1.275096,0.988531 1.485673,1.914054 l 0.04042,0.177681 -4.316161,-0.01378 c -2.373887,-0.0076 -4.467188,-0.0274 -4.651777,-0.04403 z"
     id="path48" /><path
     style="fill:#ffffff;stroke-width:0.64194"
     d="M 43.709342,68.308187 V 60.17438 h 23.572249 23.572248 v 8.133807 8.133808 H 67.281591 43.709342 Z"
     id="path49" /><path
     style="fill:#ffffff;stroke-width:0.64194"
     d="m 41.138286,130.38325 -1.583945,-0.0454 -0.6073,-0.30015 c -0.775851,-0.38345 -1.490713,-1.08214 -1.868303,-1.82605 l -0.273058,-0.53797 -0.05596,-8.85469 c -0.03077,-4.87007 -0.0588,-14.40543 -0.06229,-21.18968 L 36.681112,85.294343 35.891423,83.501896 35.101732,81.70945 V 68.485188 55.260927 l 0.252992,-0.48487 c 0.314656,-0.603041 1.357672,-1.658906 1.958142,-1.982256 l 0.434329,-0.233884 2.64546,-0.0684 c 3.266708,-0.08447 53.382951,-0.0016 55.239932,0.09134 1.525408,0.07635 1.744083,0.141087 2.431262,0.719807 0.546878,0.460561 0.917062,0.937506 1.257586,1.62028 l 0.275693,0.552783 0.05037,30.955849 c 0.05749,35.330264 0.01542,40.321424 -0.351264,41.683234 -0.1519,0.56411 -1.303036,1.61473 -2.339408,2.13513 l -0.411962,0.20685 -26.911314,-0.0141 c -14.801221,-0.008 -27.624088,-0.0345 -28.495258,-0.0595 z m 40.186126,-4.18081 c 1.508909,-0.23162 3.033549,-1.16211 3.851032,-2.35027 0.382357,-0.55574 0.779714,-1.46254 0.862555,-1.96843 0.09872,-0.60288 0.09943,-2.85762 0.0011,-3.45814 -0.137702,-0.84083 -0.57178,-1.57463 -1.459754,-2.46768 -0.671843,-0.67568 -0.895926,-0.84707 -1.464453,-1.12011 -0.369181,-0.1773 -0.88959,-0.378 -1.156464,-0.44602 -1.230109,-0.31348 -1.634757,-0.32152 -15.515252,-0.3085 l -13.394502,0.0126 -0.756693,0.31617 c -0.96493,0.40319 -1.542793,0.78291 -2.186133,1.43655 -0.919768,0.93449 -1.436605,2.08781 -1.565897,3.4943 -0.265514,2.88836 0.814861,4.97157 3.244522,6.25619 0.8568,0.45301 1.415733,0.6058 2.467248,0.67447 1.552567,0.10139 26.37367,0.0362 27.072707,-0.0711 z M 55.421714,110.19398 c 0.44781,-0.15259 1.105217,-0.72607 1.339358,-1.16838 0.237863,-0.44934 0.236408,-1.35424 -0.003,-1.88201 -0.253717,-0.55926 -0.750252,-1.05618 -1.206923,-1.20786 -0.444021,-0.14748 -1.340414,-0.16547 -1.819318,-0.0365 -0.446423,0.12021 -1.031589,0.71273 -1.204211,1.21935 -0.168336,0.49404 -0.168336,1.24907 0,1.74311 0.156366,0.45891 0.69332,1.02778 1.210815,1.28279 0.432158,0.21296 1.142328,0.23385 1.683309,0.0495 z m 23.586774,-0.19362 c 0.715677,-0.11326 1.27122,-0.40381 1.701443,-0.88986 0.814737,-0.92045 0.865177,-1.19202 0.860782,-4.63451 -0.0046,-3.56266 -0.07661,-3.9344 -0.918332,-4.737233 -0.509077,-0.485553 -1.007311,-0.754346 -1.599171,-0.862727 -0.541625,-0.09919 -5.295759,-0.110546 -6.206032,-0.01484 -1.005409,0.105717 -1.531871,0.46687 -2.246752,1.54127 l -0.436467,0.65597 v 3.37612 3.37613 l 0.362151,0.58105 c 0.199186,0.31958 0.485013,0.68892 0.635172,0.82076 0.304739,0.26757 1.126898,0.70669 1.490202,0.79593 0.368528,0.0905 5.777386,0.0837 6.357004,-0.008 z m 14.346823,-0.28582 c 0.608385,-0.43414 1.03954,-0.95449 1.425802,-1.72076 l 0.280493,-0.55645 -0.05592,-3.23773 -0.05592,-3.23773 -0.307443,-0.4744 c -0.362302,-0.559055 -0.732993,-0.929807 -1.37328,-1.373514 l -0.467164,-0.323733 -3.007471,5.29e-4 c -3.987118,7.94e-4 -4.322512,0.06099 -5.144953,0.923533 -0.580197,0.608485 -0.80868,1.094565 -0.90392,1.923015 -0.101047,0.87896 -0.09991,5.14701 0.0016,5.69047 0.178096,0.95428 0.886285,1.97199 1.668489,2.39772 0.564872,0.30744 0.888812,0.3327 4.437041,0.34602 l 2.98667,0.0112 z m -34.517993,-5.98671 c 0.670179,-0.20033 1.03949,-0.67337 1.117759,-1.43171 0.08732,-0.84605 -0.385514,-1.49606 -1.558687,-2.14275 -1.691875,-0.932615 -3.874365,-1.184046 -5.920827,-0.682104 -1.084911,0.266099 -2.555558,1.101534 -2.95583,1.679124 -0.575998,0.83117 -0.305343,2.04452 0.54823,2.45772 0.57273,0.27726 1.050739,0.19846 2.298134,-0.37885 1.252653,-0.57975 1.487355,-0.64752 2.244119,-0.64808 0.824045,-5.3e-4 1.360725,0.15891 2.516021,0.74788 0.547221,0.27897 1.068456,0.50901 1.158298,0.5112 0.08984,0.002 0.338592,-0.0484 0.552783,-0.11243 z m 3.932703,-5.633131 c 0.171863,-0.124494 0.422175,-0.37779 0.556253,-0.562877 0.215622,-0.297662 0.243773,-0.398671 0.243773,-0.874731 0,-0.471395 -0.02973,-0.580715 -0.239508,-0.880629 -0.370399,-0.529555 -1.22106,-1.11883 -2.603376,-1.803426 -2.370857,-1.174176 -3.219029,-1.366727 -6.041128,-1.371447 -2.803946,-0.0047 -4.026051,0.234225 -5.970236,1.167165 -1.490678,0.715317 -2.575743,1.550032 -2.883326,2.218071 -0.478187,1.038574 0.336097,2.329585 1.46935,2.329585 0.465894,0 0.725067,-0.112911 1.585077,-0.690555 1.811586,-1.216792 3.384171,-1.678035 5.720165,-1.677734 2.428549,2.65e-4 3.834175,0.412674 5.804222,1.70275 1.2034,0.788041 1.743319,0.889635 2.358734,0.443828 z m 16.802154,-1.658448 c 0.277886,-0.110953 0.642876,-0.35887 0.97106,-0.659593 1.002742,-0.918834 1.037704,-1.095854 1.011211,-5.120243 l -0.02053,-3.119274 -0.364141,-0.534754 c -0.446297,-0.655408 -0.956178,-1.119204 -1.529532,-1.391296 l -0.43433,-0.206113 h -3.237727 c -3.588266,0 -3.789337,0.02349 -4.523629,0.528706 -0.420468,0.28929 -1.034045,1.204122 -1.181368,1.761395 -0.142107,0.537559 -0.223488,4.711057 -0.112149,5.751497 0.100177,0.936112 0.379421,1.597652 0.916959,2.172324 0.383492,0.409985 1.085059,0.830263 1.592786,0.954167 0.172826,0.04218 1.650204,0.06743 3.386368,0.05789 2.989427,-0.01643 3.092855,-0.02215 3.525025,-0.194702 z m 12.522713,0.147106 c 0.876502,-0.08482 1.306788,-0.291108 1.961029,-0.940152 0.751131,-0.745165 0.839007,-0.958562 0.930539,-2.259735 0.05215,-0.741333 0.05298,-1.913046 0.0024,-3.445367 -0.06814,-2.065711 -0.09433,-2.361216 -0.237249,-2.677353 -0.219133,-0.484717 -0.868653,-1.175052 -1.480862,-1.573922 l -0.507656,-0.33075 -3.343453,0.02929 c -2.34025,0.0205 -3.430584,0.0581 -3.633845,0.125291 -0.783024,0.258847 -1.677803,1.204277 -1.939018,2.048785 -0.12346,0.39914 -0.139658,0.808736 -0.139658,3.531301 v 3.079793 l 0.252815,0.533715 c 0.486804,1.027678 1.416479,1.770716 2.34908,1.877486 0.711737,0.08148 4.948295,0.08267 5.78585,0.0016 z M 44.518287,92.346105 c 0.228291,-0.114797 0.717132,-0.405027 1.086313,-0.644959 1.824731,-1.185894 4.110991,-1.960772 6.830817,-2.315152 1.182206,-0.154038 3.38517,-0.118274 4.659173,0.07564 2.641846,0.402105 4.630195,1.11802 6.712365,2.416828 0.950421,0.592852 1.256607,0.701262 1.857754,0.657778 1.132882,-0.08194 1.786657,-1.242692 1.377034,-2.444866 -0.147674,-0.433404 -0.496501,-0.780005 -1.379016,-1.370222 -2.145554,-1.43492 -5.619655,-2.595867 -8.645406,-2.889051 -1.300403,-0.126006 -5.017225,-0.05031 -6.121797,0.124671 -1.105268,0.175094 -3.023825,0.669224 -3.993081,1.028433 -1.137312,0.421492 -2.422338,1.058146 -3.240911,1.60568 -1.367782,0.914897 -1.747303,1.454285 -1.662467,2.362771 0.130225,1.394534 1.266309,2.022483 2.519222,1.392452 z m 47.73129,-12.418198 c 1.377209,-0.129519 1.515203,-0.186843 1.794396,-0.745408 l 0.228799,-0.45774 0.07174,-4.2804 c 0.09541,-5.692235 0.04413,-16.184063 -0.08095,-16.56524 -0.115319,-0.351404 -0.583161,-0.906015 -0.904399,-1.072134 -0.192228,-0.0994 -0.67945,-0.139946 -2.341401,-0.194823 -3.327072,-0.109863 -48.159031,-0.12872 -48.940843,-0.02058 -0.768797,0.106334 -1.197023,0.299159 -1.380154,0.621469 -0.07403,0.1303 -0.174006,0.521195 -0.22216,0.868659 -0.131395,0.9481 -0.234821,6.711366 -0.251542,14.016999 -0.01648,7.203239 -0.04579,6.766478 0.495318,7.382766 0.14659,0.166955 0.373137,0.369734 0.503436,0.45062 0.230034,0.142796 0.959845,0.14618 25.151631,0.11665 17.883487,-0.02183 25.18604,-0.05593 25.876129,-0.12083 z"
     id="path50" /><path
     style="fill:#ffffff;stroke-width:0.64194"
     d="m 73.638594,91.011777 v -2.09268 h 2.17165 2.171647 v 2.09268 2.092677 h -2.171647 -2.17165 z"
     id="path51" /><path
     style="fill:#ffffff;stroke-width:0.64194"
     d="m 87.221263,91.011777 v -2.09268 h 2.132164 2.132163 v 2.09268 2.092677 h -2.132163 -2.132164 z"
     id="path52" /><path
     style="fill:#ffffff;stroke-width:0.64194"
     d="m 87.221263,104.43651 v -2.09268 h 2.132164 2.132163 v 2.09268 2.09267 h -2.132163 -2.132164 z"
     id="path53" /><path
     style="fill:#ffffff;stroke-width:0.64194"
     d="m 73.638594,104.43651 v -2.09268 h 2.17165 2.171647 v 2.09268 2.09267 h -2.171647 -2.17165 z"
     id="path54" /><path
     style="fill:#ffffff;stroke-width:0.64194"
     d="m 57.01562,122.79996 c -3.351366,-0.0426 -3.400484,-0.0456 -3.764955,-0.22657 -0.48727,-0.24194 -1.127173,-0.92872 -1.391984,-1.49396 -0.285903,-0.61026 -0.30208,-1.54462 -0.03545,-2.04724 0.229394,-0.43241 0.985946,-1.24516 1.267711,-1.36187 0.327036,-0.13546 27.731277,-0.0802 28.13755,0.0567 0.671832,0.22645 1.227725,0.83887 1.583719,1.74477 0.340603,0.86673 0.140557,1.62131 -0.662864,2.50038 -0.675269,0.73886 -0.751085,0.76028 -2.943442,0.83191 -2.071576,0.0677 -16.762706,0.0649 -22.190289,-0.004 z"
     id="path55" /></svg>
