<?xml version="1.0" encoding="UTF-8" standalone="no"?>
<!-- Created with Inkscape (http://www.inkscape.org/) -->

<svg
   width="512"
   height="512"
   viewBox="0 0 135.46667 135.46667"
   version="1.1"
   id="svg1"
   xml:space="preserve"
   xmlns="http://www.w3.org/2000/svg"
   xmlns:svg="http://www.w3.org/2000/svg"><defs
     id="defs1" /><path
     id="path55"
     style="fill:#000000;stroke-width:0.630051"
     d="m 57.996725,0.54575753 c -2.149468,0 -2.999082,0.27696088 -4.080712,1.33050247 -1.426434,1.3893957 -1.381462,0.9178549 -1.384277,14.626661 l -0.0026,11.881516 h -1.894211 -1.894841 l -0.622545,0.570666 -0.622546,0.570667 -0.04808,5.642138 -0.04745,5.64277 -4.78677,-0.0032 c -4.549969,-0.0033 -4.848444,0.01583 -6.036923,0.385297 -3.262926,1.014363 -5.725721,3.279873 -7.080192,6.51332 -0.965998,2.306081 -0.921166,0.37312 -0.921166,39.943525 0,25.13913 0.0554,36.79707 0.179678,37.69059 0.34333,2.46844 1.453649,4.65134 3.28608,6.46145 1.530989,1.51233 3.095412,2.41558 5.098042,2.94317 1.141609,0.30079 2.239298,0.31161 28.027213,0.27647 26.780897,-0.0365 26.840628,-0.0373 27.856392,-0.38656 1.879024,-0.64602 3.084783,-1.40845 4.588113,-2.90079 1.219771,-1.21085 1.553416,-1.66738 2.192829,-3.00327 0.414771,-0.86656 0.839471,-1.9521 0.943941,-2.41173 0.21507,-0.9463 0.36131,-58.178301 0.17841,-69.845334 l -0.10439,-6.667726 -0.46059,-1.333664 C 99.073946,44.744065 96.214487,42.049908 92.443554,41.014344 91.203159,40.673704 90.877645,40.665715 79.698447,40.69358 l -11.471545,0.02847 0.105656,-5.377049 c 0.116394,-5.929432 0.121609,-5.890452 -0.902184,-6.580385 -0.501029,-0.337646 -0.766071,-0.380233 -2.373139,-0.380233 h -1.8088 l -0.0039,-12.460411 C 63.240677,1.9058535 63.308284,2.6707092 61.978108,1.5706801 61.07399,0.82299146 59.995881,0.54575753 57.996725,0.54575753 Z M 56.413156,4.5467533 h 1.50069 1.500055 V 8.5471165 12.54811 h -1.608874 -1.609508 l 0.108189,-1.875228 c 0.05943,-1.0314599 0.108399,-2.8320073 0.108815,-4.0009962 z M 56.246764,16.382081 h 1.583569 1.583568 v 6.001496 6.00086 h -1.583568 -1.583569 v -6.00086 z M 51.412545,32.21904 h 6.501301 6.5013 v 4.2509 4.250898 h -6.5013 -6.501301 V 36.46994 Z m 13.419531,12.263646 c 24.81156,-0.01066 26.049613,0.0027 26.975085,0.295456 2.046854,0.647586 4.046059,2.477544 4.793097,4.386922 0.353048,0.902372 0.391552,1.342365 0.518155,5.974922 0.07515,2.750562 0.117764,19.704435 0.0949,37.674775 l -0.04177,32.672889 -0.373908,0.92432 c -0.439994,1.08666 -1.673522,2.67476 -2.664167,3.43035 -0.386052,0.29444 -1.135662,0.71032 -1.665816,0.92432 l -0.963554,0.38908 -26.338621,0.0277 c -28.154342,0.0298 -26.926262,0.0636 -28.704168,-0.78956 -1.035427,-0.49692 -2.727726,-2.18386 -3.254447,-3.24369 -0.935539,-1.88243 -0.88194,0.52124 -0.88194,-39.169771 0,-39.636299 -0.04781,-37.479759 0.876246,-39.341855 0.937873,-1.88994 2.565285,-3.256923 4.569131,-3.838399 1.004541,-0.291493 2.329993,-0.306949 27.061761,-0.3176 z m 21.593607,12.856455 c 0.03922,0.0015 0.07845,0.0032 0.117679,0.0045 0.03605,0.0013 -0.07211,-0.004 -0.108191,-0.0045 -0.0032,-4.4e-5 -0.0064,4.3e-5 -0.0096,0 z m -42.81141,24.450738 c -0.05039,-0.0052 -0.08118,2.66e-4 -0.07527,0.02405 0.06326,2.6e-5 0.126542,-3.2e-5 0.1898,0 -0.0401,-0.0093 -0.08442,-0.02089 -0.114507,-0.02405 z m 41.572012,3.396797 c -0.01724,-0.01484 0.02712,0.0369 0.04366,0.05251 0.0016,0.0016 0.0034,0.0029 0.005,0.0045 -0.01424,-0.01924 -0.02753,-0.03871 -0.04872,-0.05694 z" /><g
     id="g61"
     transform="matrix(0.18557854,0,0,0.18557854,16.82141,41.149177)"
     style="fill:#000000;stroke:#000000;stroke-width:8.17332;stroke-dasharray:none"><path
       d="m 140.69,336.45 9.23,6.59 c 1.19,0.85 2.61,1.3 4.07,1.3 h 13.8 c 3.87,0 7,-3.13 7,-7 0,-3.87 -3.13,-7 -7,-7 h -11.55 l -4.47,-3.2 v -23.2 c 0,-2.79 -1.66,-5.31 -4.21,-6.42 l -25.26,-10.96 20.05,-49.39 c 0.43,-1.05 0.59,-2.2 0.48,-3.33 -0.42,-4.15 -0.62,-8.37 -0.62,-12.54 0,-33.5 13.09,-64.94 36.86,-88.55 23.55,-23.39 54.75,-36.24 87.92,-36.24 h 0.9 c 21.64,0.15 42.96,6 61.65,16.92 18.13,10.59 33.46,25.7 44.33,43.69 2,3.31 6.3,4.37 9.61,2.37 3.31,-2 4.37,-6.3 2.37,-9.61 -12.08,-19.99 -29.11,-36.77 -49.26,-48.53 -20.8,-12.15 -44.52,-18.66 -68.61,-18.83 -37.24,-0.26 -72.35,14.05 -98.78,40.3 -26.44,26.25 -41,61.23 -41,98.48 0,4.05 0.18,8.14 0.53,12.18 l -21.98,54.14 c -1.43,3.52 0.21,7.54 3.7,9.06 l 27.31,11.85 v 22.21 c 0,2.26 1.09,4.38 2.93,5.7 z"
       fill="#411530"
       id="path1"
       style="fill:#000000;stroke:#000000;stroke-width:8.17332;stroke-dasharray:none" /><path
       d="m 405.76,222.66 c 0.12,-12.3 -1.4,-24.54 -4.5,-36.37 -0.75,-2.85 -3.2,-4.88 -6.09,-5.17 -0.3,4.36 -2.7,8.28 -6.1,10.94 -0.15,1.03 -0.41,2.04 -0.77,3 h 0.67 c 1.94,8.99 2.88,18.2 2.79,27.46 -0.21,22.13 -6.3,43.82 -17.6,62.73 -16.74,28 -22.14,60.89 -15.2,92.63 l 6.75,30.89 c 0.49,2.25 -0.47,3.87 -1.09,4.64 -0.62,0.77 -2,2.06 -4.3,2.06 H 247.29 l -1.88,-22.8 c -0.31,-3.77 -3.56,-6.62 -7.34,-6.41 l -59.7,3.08 c -1.7,0.08 -3.32,-0.51 -4.55,-1.68 -1.24,-1.17 -1.92,-2.76 -1.92,-4.46 v -9.27 c 0,-2.14 -0.98,-4.17 -2.67,-5.5 L 150.16,353.4 c -3.04,-2.39 -7.44,-1.87 -9.83,1.17 -2.39,3.04 -1.87,7.44 1.17,9.83 l 16.41,12.92 v 5.88 c 0,5.5 2.29,10.82 6.27,14.61 3.99,3.79 9.42,5.8 14.92,5.51 l 52.92,-2.73 1.86,22.46 c 0.3,3.63 3.33,6.42 6.98,6.42 h 119.48 c 5.94,0 11.48,-2.65 15.2,-7.28 3.72,-4.63 5.13,-10.61 3.87,-16.41 l -6.75,-30.89 c -6.17,-28.25 -1.37,-57.53 13.54,-82.46 12.58,-21.03 19.35,-45.16 19.59,-69.78 z"
       fill="#411530"
       id="path2"
       style="fill:#000000;stroke:#000000;stroke-width:8.17332;stroke-dasharray:none" /><path
       d="m 394.2,181.07 h -61.72 l -14.3,-39.05 c -1.03,-2.81 -3.75,-4.65 -6.72,-4.59 -2.99,0.06 -5.61,2.02 -6.52,4.87 l -32.56,102.15 -27.56,-88.56 c -0.9,-2.88 -3.53,-4.86 -6.54,-4.92 -3.03,-0.07 -5.73,1.81 -6.74,4.65 l -13.43,37.78 h -32.9 c -3.83,0 -7.18,2.95 -7.29,6.79 -0.11,3.84 3.06,7.21 7,7.21 h 38.14 c 2.96,0 5.6,-1.86 6.6,-4.66 l 8.05,-22.64 27.92,89.72 c 0.91,2.92 3.6,4.91 6.66,4.92 h 0.02 c 3.05,0 5.74,-1.97 6.67,-4.87 l 33.1,-103.83 8.95,24.44 c 1.01,2.76 3.64,4.59 6.57,4.59 h 66.62 c 2.87,0 5.46,-1.76 6.51,-4.43 1.81,-4.59 -1.57,-9.57 -6.51,-9.57 z"
       fill="#d1512d"
       id="path3"
       style="fill:#000000;stroke:#000000;stroke-width:8.17332;stroke-dasharray:none" /></g><path
     style="fill:#ffffff;stroke:none;stroke-width:0.691269;stroke-dasharray:none"
     d="m 40.771402,130.99341 c -2.808512,-0.12067 -3.182935,-0.17915 -4.060594,-0.63417 -1.152922,-0.5977 -2.968402,-2.44445 -3.583344,-3.64504 -0.408762,-0.79806 -0.452343,-1.21042 -0.591719,-5.59887 -0.194332,-6.11897 -0.195124,-59.889954 -9.72e-4,-66.255879 0.144394,-4.734403 0.162074,-4.89165 0.665666,-5.920954 0.738347,-1.50913 1.847467,-2.680231 3.242653,-3.423855 1.11189,-0.59263 1.406757,-0.657337 3.639245,-0.798608 3.120257,-0.19745 48.138122,-0.195907 50.20126,0.0017 1.010304,0.09678 1.890574,0.313545 2.502542,0.616256 1.267999,0.627226 2.830331,2.183124 3.487326,3.472974 0.517571,1.01612 0.54265,1.202718 0.687493,5.115186 0.08269,2.233326 0.155962,19.215348 0.162848,37.737826 0.01208,32.544764 2.98e-4,33.705394 -0.350857,34.515054 -0.84436,1.94681 -2.587636,3.70273 -4.567348,4.60048 -0.477425,0.21651 -4.806337,0.27083 -24.460248,0.30694 -13.134089,0.0241 -25.272366,-0.016 -26.973948,-0.0891 z m 44.936323,-9.80751 c 1.247621,-0.62172 2.049937,-1.66758 2.33588,-3.04496 0.190677,-0.91848 0.129601,-1.38843 -0.657855,-5.06159 -0.477428,-2.22702 -0.927025,-4.75853 -0.999101,-5.62559 -0.29063,-3.49608 0.745163,-7.748269 2.795318,-11.475433 2.686016,-4.883167 3.691833,-8.606086 3.719178,-13.766125 0.02238,-4.221313 -0.683173,-7.506389 -1.722296,-8.019164 -0.179733,-0.08868 -2.966744,-0.204763 -6.193363,-0.257939 l -5.866579,-0.09668 -1.241552,-3.383831 c -0.682853,-1.861105 -1.40122,-3.60136 -1.596374,-3.867232 -0.689006,-0.938697 -2.371955,-0.995844 -3.186326,-0.108198 -0.27774,0.302732 -1.296427,3.225071 -3.027538,8.685211 -1.434924,4.525932 -2.665572,8.167414 -2.734776,8.092186 -0.06921,-0.07523 -1.015282,-3.0082 -2.102401,-6.517714 -1.087122,-3.509514 -2.099593,-6.689971 -2.249937,-7.067686 -0.542693,-1.363427 -2.290858,-1.78801 -3.342472,-0.8118 -0.445353,0.413424 -0.839099,1.295452 -1.769525,3.963914 l -1.196713,3.432167 H 53.48771 50.304131 l -0.657429,0.657432 c -1.012696,1.012693 -0.851948,2.474394 0.352899,3.208991 0.579821,0.353517 0.975802,0.386088 4.693841,0.386088 4.888922,0 5.032855,-0.04846 5.717084,-1.925032 0.235951,-0.647111 0.45179,-1.152731 0.47964,-1.123596 0.02787,0.02912 1.02374,3.185429 2.213087,7.013988 1.189348,3.828561 2.311506,7.222058 2.493692,7.541103 0.683485,1.196939 2.767688,1.257576 3.471055,0.100984 0.184643,-0.303629 1.546413,-4.353761 3.026151,-9.000298 l 2.690434,-8.448245 0.450526,1.229355 c 0.25588,0.698219 0.699778,1.459096 1.027433,1.761102 l 0.576903,0.531744 h 5.689706 c 4.029611,0 5.729208,0.06392 5.825094,0.219068 0.07446,0.120486 0.176521,1.403923 0.226791,2.852084 0.157649,4.541407 -0.607672,7.623008 -3.057381,12.310687 -2.438795,4.66679 -3.465709,8.395369 -3.468405,12.593259 -0.0014,2.23153 0.235867,3.94122 1.0745,7.74147 0.365537,1.65645 0.664615,3.12964 0.664615,3.27376 0,0.2172 -1.735768,0.26208 -10.134988,0.26208 H 63.52439 l -0.120835,-1.49855 c -0.192748,-2.39046 -0.294684,-2.78095 -0.878315,-3.36458 -0.662685,-0.66268 -0.951226,-0.67251 -8.025163,-0.27345 -2.552373,0.14399 -4.705936,0.22232 -4.785699,0.17407 -0.07977,-0.0483 -0.145022,-0.60897 -0.145022,-1.24607 0,-0.6371 -0.12501,-1.4001 -0.277799,-1.69558 -0.15279,-0.29545 -1.162942,-1.22651 -2.244778,-2.06903 l -1.966979,-1.53182 1.940127,-0.0967 c 1.711176,-0.0853 1.99855,-0.15167 2.435179,-0.56267 0.99254,-0.93428 0.813853,-2.61472 -0.353743,-3.32671 -0.426886,-0.26031 -0.96505,-0.36334 -1.900685,-0.36385 l -1.305194,-6.6e-4 -2.98e-4,-2.175311 c -3.24e-4,-3.126674 -0.08997,-3.266202 -2.900124,-4.519441 -1.369415,-0.610713 -2.212326,-1.093755 -2.194161,-1.257393 0.01623,-0.146142 0.749408,-2.005972 1.629295,-4.132949 l 1.599793,-3.867233 0.136387,-3.577192 c 0.160518,-4.210144 0.60295,-6.246898 1.995586,-9.186785 3.793339,-8.007816 11.47638,-12.899155 20.229856,-12.879158 4.600252,0.01049 8.335694,1.139335 12.290812,3.714203 1.893446,1.232671 4.687905,4.006265 6.143844,6.097959 0.698168,1.003035 1.302769,1.658091 1.671249,1.810723 1.394719,0.577709 2.903384,-0.458511 2.904958,-1.995263 0.0014,-1.137665 -1.651895,-3.523382 -4.252404,-6.137113 -3.80041,-3.819743 -8.24839,-6.233596 -13.546071,-7.351257 -2.642396,-0.55747 -7.342732,-0.607731 -9.949748,-0.106394 -7.184691,1.381646 -13.321092,5.369065 -17.303636,11.243869 -2.945843,4.345522 -4.408539,9.026225 -4.552795,14.569192 l -0.07228,2.777078 -2.039213,5.007297 c -1.121569,2.754015 -2.039217,5.211256 -2.039217,5.460536 0,1.05187 0.748474,1.682259 3.315451,2.792371 l 2.445322,1.0575 0.0752,2.149171 c 0.08711,2.48938 0.192522,2.72471 1.680656,3.75215 l 1.039015,0.71736 -0.737998,0.12065 c -0.821133,0.13425 -1.616898,0.89656 -1.651476,1.58204 -0.07389,1.46463 0.05478,1.67128 2.014973,3.23597 1.422159,1.13522 1.487123,1.22197 1.491185,1.99136 0.0076,1.44342 0.992806,3.11536 2.208115,3.74736 1.180621,0.61397 1.730349,0.64888 6.554819,0.41639 5.467363,-0.2635 5.144201,-0.34987 5.156508,1.37805 0.01156,1.62506 0.292211,2.54557 0.957943,3.14213 l 0.593401,0.53174 h 11.947407 11.947405 z"
     id="path61" /><path
     style="fill:#ffffff;stroke:none;stroke-width:0.345632;stroke-dasharray:none"
     d="m 51.454632,36.471282 v -4.205616 h 6.477615 6.477615 v 4.205616 4.205615 h -6.477615 -6.477615 z"
     id="path62" /><path
     style="fill:#ffffff;stroke:none;stroke-width:0.345632;stroke-dasharray:none"
     d="m 56.288674,22.355883 v -5.945871 h 1.546891 1.546894 v 5.945871 5.945871 h -1.546894 -1.546891 z"
     id="path63" /><path
     style="fill:#ffffff;stroke:none;stroke-width:0.345632;stroke-dasharray:none"
     d="m 56.322998,11.3101 c 0.03529,-0.677975 0.0925,-2.4617354 0.127144,-3.9639137 l 0.06298,-2.7312332 h 1.434666 1.434667 V 8.5788669 12.54278 H 57.820643 56.25883 Z"
     id="path64" /></svg>
